<?xml version="1.0" encoding="utf-8" standalone="no"?>
<!DOCTYPE svg PUBLIC "-//W3C//DTD SVG 1.1//EN"
  "http://www.w3.org/Graphics/SVG/1.1/DTD/svg11.dtd">
<svg xmlns:xlink="http://www.w3.org/1999/xlink" width="720pt" height="360pt" viewBox="0 0 720 360" xmlns="http://www.w3.org/2000/svg" version="1.1">
 <metadata>
  <rdf:RDF xmlns:dc="http://purl.org/dc/elements/1.1/" xmlns:cc="http://creativecommons.org/ns#" xmlns:rdf="http://www.w3.org/1999/02/22-rdf-syntax-ns#">
   <cc:Work>
    <dc:type rdf:resource="http://purl.org/dc/dcmitype/StillImage"/>
    <dc:date>2026-05-26T10:28:30.588450</dc:date>
    <dc:format>image/svg+xml</dc:format>
    <dc:creator>
     <cc:Agent>
      <dc:title>Matplotlib v3.8.0, https://matplotlib.org/</dc:title>
     </cc:Agent>
    </dc:creator>
   </cc:Work>
  </rdf:RDF>
 </metadata>
 <defs>
  <style type="text/css">*{stroke-linejoin: round; stroke-linecap: butt}</style>
 </defs>
 <g id="figure_1">
  <g id="patch_1">
   <path d="M 0 360 
L 720 360 
L 720 0 
L 0 0 
z
" style="fill: #ffffff"/>
  </g>
  <g id="axes_1">
   <g id="patch_2">
    <path d="M 46.64 316.10776 
L 357.0725 316.10776 
L 357.0725 47.04 
L 46.64 47.04 
z
" style="fill: #ffffff"/>
   </g>
   <g id="PolyCollection_1">
    <defs>
     <path id="m06ca4850d6" d="M 90.627496 -58.648076 
L 90.286559 -58.648076 
L 90.222075 -60.375881 
L 90.142145 -62.103686 
L 90.046679 -63.831491 
L 89.937033 -65.559296 
L 89.816267 -67.2871 
L 89.689211 -69.014905 
L 89.562261 -70.74271 
L 89.442901 -72.470515 
L 89.33895 -74.19832 
L 89.257642 -75.926124 
L 89.204654 -77.653929 
L 89.183252 -79.381734 
L 89.19369 -81.109539 
L 89.233001 -82.837344 
L 89.295199 -84.565149 
L 89.371893 -86.292953 
L 89.453228 -88.020758 
L 89.529004 -89.748563 
L 89.58984 -91.476368 
L 89.628213 -93.204173 
L 89.639272 -94.931978 
L 89.6213 -96.659782 
L 89.575798 -98.387587 
L 89.507127 -100.115392 
L 89.421752 -101.843197 
L 89.327101 -103.571002 
L 89.230145 -105.298807 
L 89.135807 -107.026611 
L 89.045374 -108.754416 
L 88.955087 -110.482221 
L 88.855089 -112.210026 
L 88.728907 -113.937831 
L 88.553567 -115.665635 
L 88.300438 -117.39344 
L 87.936782 -119.121245 
L 87.42798 -120.84905 
L 86.740325 -122.576855 
L 85.844212 -124.30466 
L 84.717511 -126.032464 
L 83.348838 -127.760269 
L 81.740384 -129.488074 
L 79.909912 -131.215879 
L 77.891554 -132.943684 
L 75.735086 -134.671489 
L 73.503534 -136.399293 
L 71.269144 -138.127098 
L 69.108068 -139.854903 
L 67.094332 -141.582708 
L 65.293872 -143.310513 
L 63.759491 -145.038318 
L 62.527478 -146.766122 
L 61.61638 -148.493927 
L 61.028038 -150.221732 
L 60.750568 -151.949537 
L 60.762624 -153.677342 
L 61.038046 -155.405146 
L 61.550008 -157.132951 
L 62.273929 -158.860756 
L 63.188763 -160.588561 
L 64.276666 -162.316366 
L 65.521372 -164.044171 
L 66.905897 -165.771975 
L 68.410218 -167.49978 
L 70.009553 -169.227585 
L 71.673649 -170.95539 
L 73.367254 -172.683195 
L 75.051688 -174.411 
L 76.687231 -176.138804 
L 78.235952 -177.866609 
L 79.664533 -179.594414 
L 80.94671 -181.322219 
L 82.065048 -183.050024 
L 83.01187 -184.777829 
L 83.789288 -186.505633 
L 84.408394 -188.233438 
L 84.887748 -189.961243 
L 85.251343 -191.689048 
L 85.5263 -193.416853 
L 85.740492 -195.144657 
L 85.920353 -196.872462 
L 86.089036 -198.600267 
L 86.265076 -200.328072 
L 86.461624 -202.055877 
L 86.686256 -203.783682 
L 86.941296 -205.511486 
L 87.224552 -207.239291 
L 87.530311 -208.967096 
L 87.850476 -210.694901 
L 88.175693 -212.422706 
L 88.496397 -214.150511 
L 88.803679 -215.878315 
L 89.089965 -217.60612 
L 89.349459 -219.333925 
L 89.578367 -221.06173 
L 89.774914 -222.789535 
L 89.939178 -224.51734 
L 90.07279 -226.245144 
L 90.178545 -227.972949 
L 90.259981 -229.700754 
L 90.654074 -229.700754 
L 90.654074 -229.700754 
L 90.73551 -227.972949 
L 90.841265 -226.245144 
L 90.974877 -224.51734 
L 91.139141 -222.789535 
L 91.335688 -221.06173 
L 91.564596 -219.333925 
L 91.82409 -217.60612 
L 92.110376 -215.878315 
L 92.417658 -214.150511 
L 92.738362 -212.422706 
L 93.063579 -210.694901 
L 93.383744 -208.967096 
L 93.689503 -207.239291 
L 93.972759 -205.511486 
L 94.227799 -203.783682 
L 94.452431 -202.055877 
L 94.648979 -200.328072 
L 94.825019 -198.600267 
L 94.993702 -196.872462 
L 95.173563 -195.144657 
L 95.387755 -193.416853 
L 95.662712 -191.689048 
L 96.026307 -189.961243 
L 96.505661 -188.233438 
L 97.124767 -186.505633 
L 97.902185 -184.777829 
L 98.849007 -183.050024 
L 99.967345 -181.322219 
L 101.249522 -179.594414 
L 102.678103 -177.866609 
L 104.226824 -176.138804 
L 105.862367 -174.411 
L 107.546801 -172.683195 
L 109.240406 -170.95539 
L 110.904502 -169.227585 
L 112.503837 -167.49978 
L 114.008158 -165.771975 
L 115.392683 -164.044171 
L 116.637389 -162.316366 
L 117.725292 -160.588561 
L 118.640126 -158.860756 
L 119.364047 -157.132951 
L 119.876009 -155.405146 
L 120.151431 -153.677342 
L 120.163487 -151.949537 
L 119.886017 -150.221732 
L 119.297676 -148.493927 
L 118.386577 -146.766122 
L 117.154564 -145.038318 
L 115.620183 -143.310513 
L 113.819723 -141.582708 
L 111.805987 -139.854903 
L 109.644911 -138.127098 
L 107.410521 -136.399293 
L 105.178969 -134.671489 
L 103.022501 -132.943684 
L 101.004143 -131.215879 
L 99.173671 -129.488074 
L 97.565217 -127.760269 
L 96.196544 -126.032464 
L 95.069843 -124.30466 
L 94.17373 -122.576855 
L 93.486075 -120.84905 
L 92.977274 -119.121245 
L 92.613617 -117.39344 
L 92.360488 -115.665635 
L 92.185149 -113.937831 
L 92.058966 -112.210026 
L 91.958968 -110.482221 
L 91.868681 -108.754416 
L 91.778248 -107.026611 
L 91.68391 -105.298807 
L 91.586954 -103.571002 
L 91.492303 -101.843197 
L 91.406928 -100.115392 
L 91.338257 -98.387587 
L 91.292755 -96.659782 
L 91.274783 -94.931978 
L 91.285842 -93.204173 
L 91.324215 -91.476368 
L 91.385051 -89.748563 
L 91.460827 -88.020758 
L 91.542162 -86.292953 
L 91.618856 -84.565149 
L 91.681054 -82.837344 
L 91.720365 -81.109539 
L 91.730804 -79.381734 
L 91.709401 -77.653929 
L 91.656413 -75.926124 
L 91.575105 -74.19832 
L 91.471154 -72.470515 
L 91.351794 -70.74271 
L 91.224844 -69.014905 
L 91.097788 -67.2871 
L 90.977022 -65.559296 
L 90.867376 -63.831491 
L 90.77191 -62.103686 
L 90.69198 -60.375881 
L 90.627496 -58.648076 
z
" style="stroke: #3f3f3f; stroke-width: 1.25"/>
    </defs>
    <g clip-path="url(#p3be0853d8a)">
     <use xlink:href="#m06ca4850d6" x="0" y="360" style="fill: #b2b2b2; stroke: #3f3f3f; stroke-width: 1.25"/>
    </g>
   </g>
   <g id="PolyCollection_2">
    <defs>
     <path id="md34bc84bd8" d="M 164.919695 -80.664085 
L 164.526657 -80.664085 
L 164.459314 -82.437441 
L 164.375707 -84.210797 
L 164.274383 -85.984152 
L 164.154585 -87.757508 
L 164.016514 -89.530864 
L 163.861541 -91.30422 
L 163.692342 -93.077576 
L 163.512924 -94.850932 
L 163.328489 -96.624288 
L 163.145139 -98.397644 
L 162.969405 -100.171 
L 162.807625 -101.944356 
L 162.665224 -103.717712 
L 162.545938 -105.491068 
L 162.451071 -107.264423 
L 162.378845 -109.037779 
L 162.323929 -110.811135 
L 162.277179 -112.584491 
L 162.225636 -114.357847 
L 162.15279 -116.131203 
L 162.039093 -117.904559 
L 161.8627 -119.677915 
L 161.6004 -121.451271 
L 161.228692 -123.224627 
L 160.724978 -124.997983 
L 160.068815 -126.771339 
L 159.243213 -128.544694 
L 158.235917 -130.31805 
L 157.040647 -132.091406 
L 155.658217 -133.864762 
L 154.097487 -135.638118 
L 152.376034 -137.411474 
L 150.520481 -139.18483 
L 148.56638 -140.958186 
L 146.557587 -142.731542 
L 144.545082 -144.504898 
L 142.585228 -146.278254 
L 140.737513 -148.05161 
L 139.061869 -149.824965 
L 137.615691 -151.598321 
L 136.450756 -153.371677 
L 135.610241 -155.145033 
L 135.126055 -156.918389 
L 135.016717 -158.691745 
L 135.285955 -160.465101 
L 135.922178 -162.238457 
L 136.8989 -164.011813 
L 138.176111 -165.785169 
L 139.702533 -167.558525 
L 141.418587 -169.331881 
L 143.259859 -171.105236 
L 145.160776 -172.878592 
L 147.058232 -174.651948 
L 148.894856 -176.425304 
L 150.621708 -178.19866 
L 152.200224 -179.972016 
L 153.603311 -181.745372 
L 154.815596 -183.518728 
L 155.832877 -185.292084 
L 156.660914 -187.06544 
L 157.313712 -188.838796 
L 157.811479 -190.612152 
L 158.178447 -192.385507 
L 158.440716 -194.158863 
L 158.62426 -195.932219 
L 158.753231 -197.705575 
L 158.848627 -199.478931 
L 158.927402 -201.252287 
L 159.002031 -203.025643 
L 159.080541 -204.798999 
L 159.166957 -206.572355 
L 159.262096 -208.345711 
L 159.364596 -210.119067 
L 159.472049 -211.892423 
L 159.582092 -213.665778 
L 159.693317 -215.439134 
L 159.805888 -217.21249 
L 159.92179 -218.985846 
L 160.044691 -220.759202 
L 160.179463 -222.532558 
L 160.33145 -224.305914 
L 160.505609 -226.07927 
L 160.705677 -227.852626 
L 160.933486 -229.625982 
L 161.188536 -231.399338 
L 161.467891 -233.172693 
L 161.766381 -234.946049 
L 162.077086 -236.719405 
L 162.392007 -238.492761 
L 162.702823 -240.266117 
L 163.001631 -242.039473 
L 163.281567 -243.812829 
L 163.537263 -245.586185 
L 163.765092 -247.359541 
L 163.963209 -249.132897 
L 164.131423 -250.906253 
L 164.270935 -252.679609 
L 164.383998 -254.452964 
L 164.473565 -256.22632 
L 164.972786 -256.22632 
L 164.972786 -256.22632 
L 165.062353 -254.452964 
L 165.175417 -252.679609 
L 165.314929 -250.906253 
L 165.483143 -249.132897 
L 165.68126 -247.359541 
L 165.909089 -245.586185 
L 166.164785 -243.812829 
L 166.444721 -242.039473 
L 166.743528 -240.266117 
L 167.054345 -238.492761 
L 167.369266 -236.719405 
L 167.67997 -234.946049 
L 167.97846 -233.172693 
L 168.257815 -231.399338 
L 168.512866 -229.625982 
L 168.740674 -227.852626 
L 168.940742 -226.07927 
L 169.114902 -224.305914 
L 169.266889 -222.532558 
L 169.401661 -220.759202 
L 169.524562 -218.985846 
L 169.640464 -217.21249 
L 169.753035 -215.439134 
L 169.86426 -213.665778 
L 169.974303 -211.892423 
L 170.081756 -210.119067 
L 170.184256 -208.345711 
L 170.279395 -206.572355 
L 170.365811 -204.798999 
L 170.44432 -203.025643 
L 170.518949 -201.252287 
L 170.597724 -199.478931 
L 170.693121 -197.705575 
L 170.822092 -195.932219 
L 171.005636 -194.158863 
L 171.267904 -192.385507 
L 171.634873 -190.612152 
L 172.13264 -188.838796 
L 172.785438 -187.06544 
L 173.613475 -185.292084 
L 174.630756 -183.518728 
L 175.84304 -181.745372 
L 177.246127 -179.972016 
L 178.824643 -178.19866 
L 180.551496 -176.425304 
L 182.38812 -174.651948 
L 184.285576 -172.878592 
L 186.186493 -171.105236 
L 188.027764 -169.331881 
L 189.743819 -167.558525 
L 191.270241 -165.785169 
L 192.547452 -164.011813 
L 193.524173 -162.238457 
L 194.160397 -160.465101 
L 194.429635 -158.691745 
L 194.320297 -156.918389 
L 193.836111 -155.145033 
L 192.995595 -153.371677 
L 191.830661 -151.598321 
L 190.384482 -149.824965 
L 188.708838 -148.05161 
L 186.861124 -146.278254 
L 184.90127 -144.504898 
L 182.888765 -142.731542 
L 180.879972 -140.958186 
L 178.925871 -139.18483 
L 177.070318 -137.411474 
L 175.348865 -135.638118 
L 173.788135 -133.864762 
L 172.405705 -132.091406 
L 171.210434 -130.31805 
L 170.203139 -128.544694 
L 169.377537 -126.771339 
L 168.721374 -124.997983 
L 168.21766 -123.224627 
L 167.845952 -121.451271 
L 167.583651 -119.677915 
L 167.407258 -117.904559 
L 167.293561 -116.131203 
L 167.220716 -114.357847 
L 167.169173 -112.584491 
L 167.122423 -110.811135 
L 167.067507 -109.037779 
L 166.995281 -107.264423 
L 166.900413 -105.491068 
L 166.781127 -103.717712 
L 166.638727 -101.944356 
L 166.476947 -100.171 
L 166.301212 -98.397644 
L 166.117863 -96.624288 
L 165.933428 -94.850932 
L 165.75401 -93.077576 
L 165.584811 -91.30422 
L 165.429837 -89.530864 
L 165.291767 -87.757508 
L 165.171969 -85.984152 
L 165.070644 -84.210797 
L 164.987038 -82.437441 
L 164.919695 -80.664085 
z
" style="stroke: #3f3f3f; stroke-width: 1.25"/>
    </defs>
    <g clip-path="url(#p3be0853d8a)">
     <use xlink:href="#md34bc84bd8" x="0" y="360" style="fill: #891ab9; stroke: #3f3f3f; stroke-width: 1.25"/>
    </g>
   </g>
   <g id="PolyCollection_3">
    <defs>
     <path id="m86ce4912cd" d="M 239.150818 -56.122593 
L 238.827831 -56.122593 
L 238.767902 -58.593371 
L 238.693157 -61.06415 
L 238.602738 -63.534928 
L 238.496696 -66.005706 
L 238.376175 -68.476485 
L 238.243503 -70.947263 
L 238.102124 -73.418041 
L 237.956394 -75.88882 
L 237.811232 -78.359598 
L 237.671698 -80.830376 
L 237.542548 -83.301155 
L 237.427845 -85.771933 
L 237.330684 -88.242711 
L 237.253028 -90.71349 
L 237.195646 -93.184268 
L 237.15808 -95.655046 
L 237.13856 -98.125824 
L 237.133764 -100.596603 
L 237.138402 -103.067381 
L 237.144603 -105.538159 
L 237.141186 -108.008938 
L 237.112961 -110.479716 
L 237.040224 -112.950494 
L 236.898662 -115.421273 
L 236.659847 -117.892051 
L 236.292447 -120.362829 
L 235.764201 -122.833608 
L 235.044592 -125.304386 
L 234.108022 -127.775164 
L 232.937175 -130.245943 
L 231.526152 -132.716721 
L 229.88294 -135.187499 
L 228.030766 -137.658278 
L 226.008017 -140.129056 
L 223.866604 -142.599834 
L 221.668839 -145.070613 
L 219.483182 -147.541391 
L 217.379384 -150.012169 
L 215.423665 -152.482948 
L 213.674574 -154.953726 
L 212.18001 -157.424504 
L 210.975672 -159.895283 
L 210.084931 -162.366061 
L 209.519845 -164.836839 
L 209.282865 -167.307618 
L 209.368717 -169.778396 
L 209.765998 -172.249174 
L 210.458198 -174.719953 
L 211.424071 -177.190731 
L 212.637497 -179.661509 
L 214.067141 -182.132288 
L 215.676262 -184.603066 
L 217.423016 -187.073844 
L 219.261427 -189.544623 
L 221.143072 -192.015401 
L 223.01932 -194.486179 
L 224.843859 -196.956958 
L 226.575179 -199.427736 
L 228.178698 -201.898514 
L 229.628305 -204.369293 
L 230.907191 -206.840071 
L 232.007948 -209.310849 
L 232.932014 -211.781628 
L 233.688569 -214.252406 
L 234.293021 -216.723184 
L 234.765216 -219.193963 
L 235.127512 -221.664741 
L 235.402829 -224.135519 
L 235.612844 -226.606297 
L 235.776464 -229.077076 
L 235.908723 -231.547854 
L 236.020226 -234.018632 
L 236.11719 -236.489411 
L 236.202065 -238.960189 
L 236.274623 -241.430967 
L 236.333335 -243.901746 
L 236.376793 -246.372524 
L 236.404927 -248.843302 
L 236.419839 -251.314081 
L 236.426091 -253.784859 
L 236.430442 -256.255637 
L 236.4411 -258.726416 
L 236.466643 -261.197194 
L 236.514827 -263.667972 
L 236.591481 -266.138751 
L 236.699697 -268.609529 
L 236.839421 -271.080307 
L 237.007496 -273.551086 
L 237.198126 -276.021864 
L 237.403643 -278.492642 
L 237.615461 -280.963421 
L 237.825031 -283.434199 
L 238.024686 -285.904977 
L 238.208268 -288.375756 
L 238.371481 -290.846534 
L 238.511973 -293.317312 
L 238.629192 -295.788091 
L 238.724068 -298.258869 
L 238.798615 -300.729647 
L 239.180033 -300.729647 
L 239.180033 -300.729647 
L 239.25458 -298.258869 
L 239.349457 -295.788091 
L 239.466675 -293.317312 
L 239.607167 -290.846534 
L 239.77038 -288.375756 
L 239.953962 -285.904977 
L 240.153618 -283.434199 
L 240.363187 -280.963421 
L 240.575005 -278.492642 
L 240.780523 -276.021864 
L 240.971152 -273.551086 
L 241.139227 -271.080307 
L 241.278951 -268.609529 
L 241.387167 -266.138751 
L 241.463821 -263.667972 
L 241.512005 -261.197194 
L 241.537549 -258.726416 
L 241.548206 -256.255637 
L 241.552557 -253.784859 
L 241.558809 -251.314081 
L 241.573721 -248.843302 
L 241.601856 -246.372524 
L 241.645313 -243.901746 
L 241.704026 -241.430967 
L 241.776584 -238.960189 
L 241.861458 -236.489411 
L 241.958422 -234.018632 
L 242.069925 -231.547854 
L 242.202184 -229.077076 
L 242.365804 -226.606297 
L 242.575819 -224.135519 
L 242.851136 -221.664741 
L 243.213432 -219.193963 
L 243.685628 -216.723184 
L 244.290079 -214.252406 
L 245.046634 -211.781628 
L 245.9707 -209.310849 
L 247.071457 -206.840071 
L 248.350343 -204.369293 
L 249.799951 -201.898514 
L 251.40347 -199.427736 
L 253.134789 -196.956958 
L 254.959329 -194.486179 
L 256.835576 -192.015401 
L 258.717221 -189.544623 
L 260.555632 -187.073844 
L 262.302386 -184.603066 
L 263.911507 -182.132288 
L 265.341151 -179.661509 
L 266.554577 -177.190731 
L 267.52045 -174.719953 
L 268.21265 -172.249174 
L 268.609931 -169.778396 
L 268.695783 -167.307618 
L 268.458804 -164.836839 
L 267.893718 -162.366061 
L 267.002977 -159.895283 
L 265.798638 -157.424504 
L 264.304074 -154.953726 
L 262.554984 -152.482948 
L 260.599265 -150.012169 
L 258.495466 -147.541391 
L 256.309809 -145.070613 
L 254.112044 -142.599834 
L 251.970631 -140.129056 
L 249.947883 -137.658278 
L 248.095708 -135.187499 
L 246.452497 -132.716721 
L 245.041474 -130.245943 
L 243.870626 -127.775164 
L 242.934056 -125.304386 
L 242.214448 -122.833608 
L 241.686201 -120.362829 
L 241.318801 -117.892051 
L 241.079986 -115.421273 
L 240.938424 -112.950494 
L 240.865687 -110.479716 
L 240.837462 -108.008938 
L 240.834045 -105.538159 
L 240.840246 -103.067381 
L 240.844884 -100.596603 
L 240.840088 -98.125824 
L 240.820568 -95.655046 
L 240.783003 -93.184268 
L 240.72562 -90.71349 
L 240.647964 -88.242711 
L 240.550803 -85.771933 
L 240.436101 -83.301155 
L 240.30695 -80.830376 
L 240.167416 -78.359598 
L 240.022254 -75.88882 
L 239.876524 -73.418041 
L 239.735145 -70.947263 
L 239.602473 -68.476485 
L 239.481952 -66.005706 
L 239.37591 -63.534928 
L 239.285491 -61.06415 
L 239.210746 -58.593371 
L 239.150818 -56.122593 
z
" style="stroke: #3f3f3f; stroke-width: 1.25"/>
    </defs>
    <g clip-path="url(#p3be0853d8a)">
     <use xlink:href="#m86ce4912cd" x="0" y="360" style="fill: #df9c20; stroke: #3f3f3f; stroke-width: 1.25"/>
    </g>
   </g>
   <g id="PolyCollection_4">
    <defs>
     <path id="m181e8a169d" d="M 313.480109 -84.120067 
L 313.030836 -84.120067 
L 312.95223 -85.655139 
L 312.854326 -87.190211 
L 312.73543 -88.725283 
L 312.594747 -90.260355 
L 312.432709 -91.795427 
L 312.251253 -93.330499 
L 312.053995 -94.865571 
L 311.846252 -96.400643 
L 311.634875 -97.935715 
L 311.427865 -99.470787 
L 311.233788 -101.005858 
L 311.061004 -102.54093 
L 310.91679 -104.076002 
L 310.806427 -105.611074 
L 310.732345 -107.146146 
L 310.693425 -108.681218 
L 310.684526 -110.21629 
L 310.696309 -111.751362 
L 310.715356 -113.286434 
L 310.724612 -114.821506 
L 310.704084 -116.356578 
L 310.631777 -117.89165 
L 310.484781 -119.426722 
L 310.240447 -120.961794 
L 309.877599 -122.496866 
L 309.377706 -124.031938 
L 308.72597 -125.56701 
L 307.912269 -127.102082 
L 306.931919 -128.637154 
L 305.786199 -130.172225 
L 304.482605 -131.707297 
L 303.034828 -133.242369 
L 301.462417 -134.777441 
L 299.79018 -136.312513 
L 298.047336 -137.847585 
L 296.266478 -139.382657 
L 294.482433 -140.917729 
L 292.731065 -142.452801 
L 291.048115 -143.987873 
L 289.468108 -145.522945 
L 288.023385 -147.058017 
L 286.743261 -148.593089 
L 285.653328 -150.128161 
L 284.774892 -151.663233 
L 284.124538 -153.198305 
L 283.71381 -154.733377 
L 283.549013 -156.268449 
L 283.631119 -157.80352 
L 283.955785 -159.338592 
L 284.51348 -160.873664 
L 285.289725 -162.408736 
L 286.265424 -163.943808 
L 287.417316 -165.47888 
L 288.718518 -167.013952 
L 290.139194 -168.549024 
L 291.647331 -170.084096 
L 293.209651 -171.619168 
L 294.792633 -173.15424 
L 296.363631 -174.689312 
L 297.892033 -176.224384 
L 299.350378 -177.759456 
L 300.715356 -179.294528 
L 301.968569 -180.8296 
L 303.096996 -182.364672 
L 304.093097 -183.899744 
L 304.954558 -185.434815 
L 305.683733 -186.969887 
L 306.286867 -188.504959 
L 306.773223 -190.040031 
L 307.154227 -191.575103 
L 307.442743 -193.110175 
L 307.652512 -194.645247 
L 307.797784 -196.180319 
L 307.893081 -197.715391 
L 307.95304 -199.250463 
L 307.992239 -200.785535 
L 308.024934 -202.320607 
L 308.064677 -203.855679 
L 308.12381 -205.390751 
L 308.212867 -206.925823 
L 308.339982 -208.460895 
L 308.510369 -209.995967 
L 308.725992 -211.531039 
L 308.985462 -213.066111 
L 309.284221 -214.601182 
L 309.614998 -216.136254 
L 309.968482 -217.671326 
L 310.334154 -219.206398 
L 310.701166 -220.74147 
L 311.059184 -222.276542 
L 311.399097 -223.811614 
L 311.713551 -225.346686 
L 311.997251 -226.881758 
L 312.247048 -228.41683 
L 312.461829 -229.951902 
L 312.642251 -231.486974 
L 312.790379 -233.022046 
L 312.909278 -234.557118 
L 313.002607 -236.09219 
L 313.508338 -236.09219 
L 313.508338 -236.09219 
L 313.601667 -234.557118 
L 313.720566 -233.022046 
L 313.868694 -231.486974 
L 314.049116 -229.951902 
L 314.263897 -228.41683 
L 314.513694 -226.881758 
L 314.797394 -225.346686 
L 315.111848 -223.811614 
L 315.451761 -222.276542 
L 315.809779 -220.74147 
L 316.176791 -219.206398 
L 316.542463 -217.671326 
L 316.895947 -216.136254 
L 317.226724 -214.601182 
L 317.525483 -213.066111 
L 317.784953 -211.531039 
L 318.000576 -209.995967 
L 318.170963 -208.460895 
L 318.298078 -206.925823 
L 318.387135 -205.390751 
L 318.446268 -203.855679 
L 318.486011 -202.320607 
L 318.518706 -200.785535 
L 318.557905 -199.250463 
L 318.617864 -197.715391 
L 318.713161 -196.180319 
L 318.858433 -194.645247 
L 319.068202 -193.110175 
L 319.356718 -191.575103 
L 319.737722 -190.040031 
L 320.224077 -188.504959 
L 320.827212 -186.969887 
L 321.556387 -185.434815 
L 322.417848 -183.899744 
L 323.413949 -182.364672 
L 324.542376 -180.8296 
L 325.795589 -179.294528 
L 327.160567 -177.759456 
L 328.618912 -176.224384 
L 330.147314 -174.689312 
L 331.718312 -173.15424 
L 333.301294 -171.619168 
L 334.863614 -170.084096 
L 336.371751 -168.549024 
L 337.792427 -167.013952 
L 339.093629 -165.47888 
L 340.245521 -163.943808 
L 341.22122 -162.408736 
L 341.997465 -160.873664 
L 342.55516 -159.338592 
L 342.879826 -157.80352 
L 342.961932 -156.268449 
L 342.797135 -154.733377 
L 342.386407 -153.198305 
L 341.736053 -151.663233 
L 340.857617 -150.128161 
L 339.767684 -148.593089 
L 338.487559 -147.058017 
L 337.042837 -145.522945 
L 335.46283 -143.987873 
L 333.77988 -142.452801 
L 332.028512 -140.917729 
L 330.244467 -139.382657 
L 328.463609 -137.847585 
L 326.720765 -136.312513 
L 325.048528 -134.777441 
L 323.476117 -133.242369 
L 322.02834 -131.707297 
L 320.724746 -130.172225 
L 319.579026 -128.637154 
L 318.598676 -127.102082 
L 317.784975 -125.56701 
L 317.133239 -124.031938 
L 316.633346 -122.496866 
L 316.270498 -120.961794 
L 316.026164 -119.426722 
L 315.879168 -117.89165 
L 315.806861 -116.356578 
L 315.786333 -114.821506 
L 315.795589 -113.286434 
L 315.814636 -111.751362 
L 315.826419 -110.21629 
L 315.81752 -108.681218 
L 315.7786 -107.146146 
L 315.704518 -105.611074 
L 315.594155 -104.076002 
L 315.449941 -102.54093 
L 315.277157 -101.005858 
L 315.08308 -99.470787 
L 314.87607 -97.935715 
L 314.664693 -96.400643 
L 314.45695 -94.865571 
L 314.259692 -93.330499 
L 314.078236 -91.795427 
L 313.916198 -90.260355 
L 313.775515 -88.725283 
L 313.656618 -87.190211 
L 313.558715 -85.655139 
L 313.480109 -84.120067 
z
" style="stroke: #3f3f3f; stroke-width: 1.25"/>
    </defs>
    <g clip-path="url(#p3be0853d8a)">
     <use xlink:href="#m181e8a169d" x="0" y="360" style="fill: #df2020; stroke: #3f3f3f; stroke-width: 1.25"/>
    </g>
   </g>
   <g id="matplotlib.axis_1">
    <g id="xtick_1">
     <g id="line2d_1">
      <defs>
       <path id="mf1446bfea1" d="M 0 0 
L 0 3.5 
" style="stroke: #000000; stroke-width: 0.8"/>
      </defs>
      <g>
       <use xlink:href="#mf1446bfea1" x="90.457028" y="316.10776" style="stroke: #000000; stroke-width: 0.8"/>
      </g>
     </g>
     <g id="text_1">
      <!-- sur -->
      <g transform="translate(77.914721 339.552412) rotate(-45) scale(0.1 -0.1)">
       <defs>
        <path id="DejaVuSans-73" d="M 2834 3397 
L 2834 2853 
Q 2591 2978 2328 3040 
Q 2066 3103 1784 3103 
Q 1356 3103 1142 2972 
Q 928 2841 928 2578 
Q 928 2378 1081 2264 
Q 1234 2150 1697 2047 
L 1894 2003 
Q 2506 1872 2764 1633 
Q 3022 1394 3022 966 
Q 3022 478 2636 193 
Q 2250 -91 1575 -91 
Q 1294 -91 989 -36 
Q 684 19 347 128 
L 347 722 
Q 666 556 975 473 
Q 1284 391 1588 391 
Q 1994 391 2212 530 
Q 2431 669 2431 922 
Q 2431 1156 2273 1281 
Q 2116 1406 1581 1522 
L 1381 1569 
Q 847 1681 609 1914 
Q 372 2147 372 2553 
Q 372 3047 722 3315 
Q 1072 3584 1716 3584 
Q 2034 3584 2315 3537 
Q 2597 3491 2834 3397 
z
" transform="scale(0.015625)"/>
        <path id="DejaVuSans-75" d="M 544 1381 
L 544 3500 
L 1119 3500 
L 1119 1403 
Q 1119 906 1312 657 
Q 1506 409 1894 409 
Q 2359 409 2629 706 
Q 2900 1003 2900 1516 
L 2900 3500 
L 3475 3500 
L 3475 0 
L 2900 0 
L 2900 538 
Q 2691 219 2414 64 
Q 2138 -91 1772 -91 
Q 1169 -91 856 284 
Q 544 659 544 1381 
z
M 1991 3584 
L 1991 3584 
z
" transform="scale(0.015625)"/>
        <path id="DejaVuSans-72" d="M 2631 2963 
Q 2534 3019 2420 3045 
Q 2306 3072 2169 3072 
Q 1681 3072 1420 2755 
Q 1159 2438 1159 1844 
L 1159 0 
L 581 0 
L 581 3500 
L 1159 3500 
L 1159 2956 
Q 1341 3275 1631 3429 
Q 1922 3584 2338 3584 
Q 2397 3584 2469 3576 
Q 2541 3569 2628 3553 
L 2631 2963 
z
" transform="scale(0.015625)"/>
       </defs>
       <use xlink:href="#DejaVuSans-73"/>
       <use xlink:href="#DejaVuSans-75" x="52.099609"/>
       <use xlink:href="#DejaVuSans-72" x="115.478516"/>
      </g>
     </g>
    </g>
    <g id="xtick_2">
     <g id="line2d_2">
      <g>
       <use xlink:href="#mf1446bfea1" x="164.723176" y="316.10776" style="stroke: #000000; stroke-width: 0.8"/>
      </g>
     </g>
     <g id="text_2">
      <!-- iso90 -->
      <g transform="translate(144.280056 347.453225) rotate(-45) scale(0.1 -0.1)">
       <defs>
        <path id="DejaVuSans-69" d="M 603 3500 
L 1178 3500 
L 1178 0 
L 603 0 
L 603 3500 
z
M 603 4863 
L 1178 4863 
L 1178 4134 
L 603 4134 
L 603 4863 
z
" transform="scale(0.015625)"/>
        <path id="DejaVuSans-6f" d="M 1959 3097 
Q 1497 3097 1228 2736 
Q 959 2375 959 1747 
Q 959 1119 1226 758 
Q 1494 397 1959 397 
Q 2419 397 2687 759 
Q 2956 1122 2956 1747 
Q 2956 2369 2687 2733 
Q 2419 3097 1959 3097 
z
M 1959 3584 
Q 2709 3584 3137 3096 
Q 3566 2609 3566 1747 
Q 3566 888 3137 398 
Q 2709 -91 1959 -91 
Q 1206 -91 779 398 
Q 353 888 353 1747 
Q 353 2609 779 3096 
Q 1206 3584 1959 3584 
z
" transform="scale(0.015625)"/>
        <path id="DejaVuSans-39" d="M 703 97 
L 703 672 
Q 941 559 1184 500 
Q 1428 441 1663 441 
Q 2288 441 2617 861 
Q 2947 1281 2994 2138 
Q 2813 1869 2534 1725 
Q 2256 1581 1919 1581 
Q 1219 1581 811 2004 
Q 403 2428 403 3163 
Q 403 3881 828 4315 
Q 1253 4750 1959 4750 
Q 2769 4750 3195 4129 
Q 3622 3509 3622 2328 
Q 3622 1225 3098 567 
Q 2575 -91 1691 -91 
Q 1453 -91 1209 -44 
Q 966 3 703 97 
z
M 1959 2075 
Q 2384 2075 2632 2365 
Q 2881 2656 2881 3163 
Q 2881 3666 2632 3958 
Q 2384 4250 1959 4250 
Q 1534 4250 1286 3958 
Q 1038 3666 1038 3163 
Q 1038 2656 1286 2365 
Q 1534 2075 1959 2075 
z
" transform="scale(0.015625)"/>
        <path id="DejaVuSans-30" d="M 2034 4250 
Q 1547 4250 1301 3770 
Q 1056 3291 1056 2328 
Q 1056 1369 1301 889 
Q 1547 409 2034 409 
Q 2525 409 2770 889 
Q 3016 1369 3016 2328 
Q 3016 3291 2770 3770 
Q 2525 4250 2034 4250 
z
M 2034 4750 
Q 2819 4750 3233 4129 
Q 3647 3509 3647 2328 
Q 3647 1150 3233 529 
Q 2819 -91 2034 -91 
Q 1250 -91 836 529 
Q 422 1150 422 2328 
Q 422 3509 836 4129 
Q 1250 4750 2034 4750 
z
" transform="scale(0.015625)"/>
       </defs>
       <use xlink:href="#DejaVuSans-69"/>
       <use xlink:href="#DejaVuSans-73" x="27.783203"/>
       <use xlink:href="#DejaVuSans-6f" x="79.882812"/>
       <use xlink:href="#DejaVuSans-39" x="141.064453"/>
       <use xlink:href="#DejaVuSans-30" x="204.6875"/>
      </g>
     </g>
    </g>
    <g id="xtick_3">
     <g id="line2d_3">
      <g>
       <use xlink:href="#mf1446bfea1" x="238.989324" y="316.10776" style="stroke: #000000; stroke-width: 0.8"/>
      </g>
     </g>
     <g id="text_3">
      <!-- orth -->
      <g transform="translate(223.031913 342.967517) rotate(-45) scale(0.1 -0.1)">
       <defs>
        <path id="DejaVuSans-74" d="M 1172 4494 
L 1172 3500 
L 2356 3500 
L 2356 3053 
L 1172 3053 
L 1172 1153 
Q 1172 725 1289 603 
Q 1406 481 1766 481 
L 2356 481 
L 2356 0 
L 1766 0 
Q 1100 0 847 248 
Q 594 497 594 1153 
L 594 3053 
L 172 3053 
L 172 3500 
L 594 3500 
L 594 4494 
L 1172 4494 
z
" transform="scale(0.015625)"/>
        <path id="DejaVuSans-68" d="M 3513 2113 
L 3513 0 
L 2938 0 
L 2938 2094 
Q 2938 2591 2744 2837 
Q 2550 3084 2163 3084 
Q 1697 3084 1428 2787 
Q 1159 2491 1159 1978 
L 1159 0 
L 581 0 
L 581 4863 
L 1159 4863 
L 1159 2956 
Q 1366 3272 1645 3428 
Q 1925 3584 2291 3584 
Q 2894 3584 3203 3211 
Q 3513 2838 3513 2113 
z
" transform="scale(0.015625)"/>
       </defs>
       <use xlink:href="#DejaVuSans-6f"/>
       <use xlink:href="#DejaVuSans-72" x="61.181641"/>
       <use xlink:href="#DejaVuSans-74" x="102.294922"/>
       <use xlink:href="#DejaVuSans-68" x="141.503906"/>
      </g>
     </g>
    </g>
    <g id="xtick_4">
     <g id="line2d_4">
      <g>
       <use xlink:href="#mf1446bfea1" x="313.255472" y="316.10776" style="stroke: #000000; stroke-width: 0.8"/>
      </g>
     </g>
     <g id="text_4">
      <!-- iso0 -->
      <g transform="translate(297.311319 342.954258) rotate(-45) scale(0.1 -0.1)">
       <use xlink:href="#DejaVuSans-69"/>
       <use xlink:href="#DejaVuSans-73" x="27.783203"/>
       <use xlink:href="#DejaVuSans-6f" x="79.882812"/>
       <use xlink:href="#DejaVuSans-30" x="141.064453"/>
      </g>
     </g>
    </g>
   </g>
   <g id="matplotlib.axis_2">
    <g id="ytick_1">
     <g id="line2d_5">
      <defs>
       <path id="mef0e148990" d="M 0 0 
L -3.5 0 
" style="stroke: #000000; stroke-width: 0.8"/>
      </defs>
      <g>
       <use xlink:href="#mef0e148990" x="46.64" y="280.935188" style="stroke: #000000; stroke-width: 0.8"/>
      </g>
     </g>
     <g id="text_5">
      <!-- −5 -->
      <g transform="translate(24.897813 284.734407) scale(0.1 -0.1)">
       <defs>
        <path id="DejaVuSans-2212" d="M 678 2272 
L 4684 2272 
L 4684 1741 
L 678 1741 
L 678 2272 
z
" transform="scale(0.015625)"/>
        <path id="DejaVuSans-35" d="M 691 4666 
L 3169 4666 
L 3169 4134 
L 1269 4134 
L 1269 2991 
Q 1406 3038 1543 3061 
Q 1681 3084 1819 3084 
Q 2600 3084 3056 2656 
Q 3513 2228 3513 1497 
Q 3513 744 3044 326 
Q 2575 -91 1722 -91 
Q 1428 -91 1123 -41 
Q 819 9 494 109 
L 494 744 
Q 775 591 1075 516 
Q 1375 441 1709 441 
Q 2250 441 2565 725 
Q 2881 1009 2881 1497 
Q 2881 1984 2565 2268 
Q 2250 2553 1709 2553 
Q 1456 2553 1204 2497 
Q 953 2441 691 2322 
L 691 4666 
z
" transform="scale(0.015625)"/>
       </defs>
       <use xlink:href="#DejaVuSans-2212"/>
       <use xlink:href="#DejaVuSans-35" x="83.789062"/>
      </g>
     </g>
    </g>
    <g id="ytick_2">
     <g id="line2d_6">
      <g>
       <use xlink:href="#mef0e148990" x="46.64" y="232.412658" style="stroke: #000000; stroke-width: 0.8"/>
      </g>
     </g>
     <g id="text_6">
      <!-- 0 -->
      <g transform="translate(33.2775 236.211876) scale(0.1 -0.1)">
       <use xlink:href="#DejaVuSans-30"/>
      </g>
     </g>
    </g>
    <g id="ytick_3">
     <g id="line2d_7">
      <g>
       <use xlink:href="#mef0e148990" x="46.64" y="183.890127" style="stroke: #000000; stroke-width: 0.8"/>
      </g>
     </g>
     <g id="text_7">
      <!-- 5 -->
      <g transform="translate(33.2775 187.689346) scale(0.1 -0.1)">
       <use xlink:href="#DejaVuSans-35"/>
      </g>
     </g>
    </g>
    <g id="ytick_4">
     <g id="line2d_8">
      <g>
       <use xlink:href="#mef0e148990" x="46.64" y="135.367597" style="stroke: #000000; stroke-width: 0.8"/>
      </g>
     </g>
     <g id="text_8">
      <!-- 10 -->
      <g transform="translate(26.915 139.166815) scale(0.1 -0.1)">
       <defs>
        <path id="DejaVuSans-31" d="M 794 531 
L 1825 531 
L 1825 4091 
L 703 3866 
L 703 4441 
L 1819 4666 
L 2450 4666 
L 2450 531 
L 3481 531 
L 3481 0 
L 794 0 
L 794 531 
z
" transform="scale(0.015625)"/>
       </defs>
       <use xlink:href="#DejaVuSans-31"/>
       <use xlink:href="#DejaVuSans-30" x="63.623047"/>
      </g>
     </g>
    </g>
    <g id="ytick_5">
     <g id="line2d_9">
      <g>
       <use xlink:href="#mef0e148990" x="46.64" y="86.845066" style="stroke: #000000; stroke-width: 0.8"/>
      </g>
     </g>
     <g id="text_9">
      <!-- 15 -->
      <g transform="translate(26.915 90.644285) scale(0.1 -0.1)">
       <use xlink:href="#DejaVuSans-31"/>
       <use xlink:href="#DejaVuSans-35" x="63.623047"/>
      </g>
     </g>
    </g>
    <g id="text_10">
     <!-- Average BOLD Response -->
     <g transform="translate(18.818125 243.213724) rotate(-90) scale(0.1 -0.1)">
      <defs>
       <path id="DejaVuSans-41" d="M 2188 4044 
L 1331 1722 
L 3047 1722 
L 2188 4044 
z
M 1831 4666 
L 2547 4666 
L 4325 0 
L 3669 0 
L 3244 1197 
L 1141 1197 
L 716 0 
L 50 0 
L 1831 4666 
z
" transform="scale(0.015625)"/>
       <path id="DejaVuSans-76" d="M 191 3500 
L 800 3500 
L 1894 563 
L 2988 3500 
L 3597 3500 
L 2284 0 
L 1503 0 
L 191 3500 
z
" transform="scale(0.015625)"/>
       <path id="DejaVuSans-65" d="M 3597 1894 
L 3597 1613 
L 953 1613 
Q 991 1019 1311 708 
Q 1631 397 2203 397 
Q 2534 397 2845 478 
Q 3156 559 3463 722 
L 3463 178 
Q 3153 47 2828 -22 
Q 2503 -91 2169 -91 
Q 1331 -91 842 396 
Q 353 884 353 1716 
Q 353 2575 817 3079 
Q 1281 3584 2069 3584 
Q 2775 3584 3186 3129 
Q 3597 2675 3597 1894 
z
M 3022 2063 
Q 3016 2534 2758 2815 
Q 2500 3097 2075 3097 
Q 1594 3097 1305 2825 
Q 1016 2553 972 2059 
L 3022 2063 
z
" transform="scale(0.015625)"/>
       <path id="DejaVuSans-61" d="M 2194 1759 
Q 1497 1759 1228 1600 
Q 959 1441 959 1056 
Q 959 750 1161 570 
Q 1363 391 1709 391 
Q 2188 391 2477 730 
Q 2766 1069 2766 1631 
L 2766 1759 
L 2194 1759 
z
M 3341 1997 
L 3341 0 
L 2766 0 
L 2766 531 
Q 2569 213 2275 61 
Q 1981 -91 1556 -91 
Q 1019 -91 701 211 
Q 384 513 384 1019 
Q 384 1609 779 1909 
Q 1175 2209 1959 2209 
L 2766 2209 
L 2766 2266 
Q 2766 2663 2505 2880 
Q 2244 3097 1772 3097 
Q 1472 3097 1187 3025 
Q 903 2953 641 2809 
L 641 3341 
Q 956 3463 1253 3523 
Q 1550 3584 1831 3584 
Q 2591 3584 2966 3190 
Q 3341 2797 3341 1997 
z
" transform="scale(0.015625)"/>
       <path id="DejaVuSans-67" d="M 2906 1791 
Q 2906 2416 2648 2759 
Q 2391 3103 1925 3103 
Q 1463 3103 1205 2759 
Q 947 2416 947 1791 
Q 947 1169 1205 825 
Q 1463 481 1925 481 
Q 2391 481 2648 825 
Q 2906 1169 2906 1791 
z
M 3481 434 
Q 3481 -459 3084 -895 
Q 2688 -1331 1869 -1331 
Q 1566 -1331 1297 -1286 
Q 1028 -1241 775 -1147 
L 775 -588 
Q 1028 -725 1275 -790 
Q 1522 -856 1778 -856 
Q 2344 -856 2625 -561 
Q 2906 -266 2906 331 
L 2906 616 
Q 2728 306 2450 153 
Q 2172 0 1784 0 
Q 1141 0 747 490 
Q 353 981 353 1791 
Q 353 2603 747 3093 
Q 1141 3584 1784 3584 
Q 2172 3584 2450 3431 
Q 2728 3278 2906 2969 
L 2906 3500 
L 3481 3500 
L 3481 434 
z
" transform="scale(0.015625)"/>
       <path id="DejaVuSans-20" transform="scale(0.015625)"/>
       <path id="DejaVuSans-42" d="M 1259 2228 
L 1259 519 
L 2272 519 
Q 2781 519 3026 730 
Q 3272 941 3272 1375 
Q 3272 1813 3026 2020 
Q 2781 2228 2272 2228 
L 1259 2228 
z
M 1259 4147 
L 1259 2741 
L 2194 2741 
Q 2656 2741 2882 2914 
Q 3109 3088 3109 3444 
Q 3109 3797 2882 3972 
Q 2656 4147 2194 4147 
L 1259 4147 
z
M 628 4666 
L 2241 4666 
Q 2963 4666 3353 4366 
Q 3744 4066 3744 3513 
Q 3744 3084 3544 2831 
Q 3344 2578 2956 2516 
Q 3422 2416 3680 2098 
Q 3938 1781 3938 1306 
Q 3938 681 3513 340 
Q 3088 0 2303 0 
L 628 0 
L 628 4666 
z
" transform="scale(0.015625)"/>
       <path id="DejaVuSans-4f" d="M 2522 4238 
Q 1834 4238 1429 3725 
Q 1025 3213 1025 2328 
Q 1025 1447 1429 934 
Q 1834 422 2522 422 
Q 3209 422 3611 934 
Q 4013 1447 4013 2328 
Q 4013 3213 3611 3725 
Q 3209 4238 2522 4238 
z
M 2522 4750 
Q 3503 4750 4090 4092 
Q 4678 3434 4678 2328 
Q 4678 1225 4090 567 
Q 3503 -91 2522 -91 
Q 1538 -91 948 565 
Q 359 1222 359 2328 
Q 359 3434 948 4092 
Q 1538 4750 2522 4750 
z
" transform="scale(0.015625)"/>
       <path id="DejaVuSans-4c" d="M 628 4666 
L 1259 4666 
L 1259 531 
L 3531 531 
L 3531 0 
L 628 0 
L 628 4666 
z
" transform="scale(0.015625)"/>
       <path id="DejaVuSans-44" d="M 1259 4147 
L 1259 519 
L 2022 519 
Q 2988 519 3436 956 
Q 3884 1394 3884 2338 
Q 3884 3275 3436 3711 
Q 2988 4147 2022 4147 
L 1259 4147 
z
M 628 4666 
L 1925 4666 
Q 3281 4666 3915 4102 
Q 4550 3538 4550 2338 
Q 4550 1131 3912 565 
Q 3275 0 1925 0 
L 628 0 
L 628 4666 
z
" transform="scale(0.015625)"/>
       <path id="DejaVuSans-52" d="M 2841 2188 
Q 3044 2119 3236 1894 
Q 3428 1669 3622 1275 
L 4263 0 
L 3584 0 
L 2988 1197 
Q 2756 1666 2539 1819 
Q 2322 1972 1947 1972 
L 1259 1972 
L 1259 0 
L 628 0 
L 628 4666 
L 2053 4666 
Q 2853 4666 3247 4331 
Q 3641 3997 3641 3322 
Q 3641 2881 3436 2590 
Q 3231 2300 2841 2188 
z
M 1259 4147 
L 1259 2491 
L 2053 2491 
Q 2509 2491 2742 2702 
Q 2975 2913 2975 3322 
Q 2975 3731 2742 3939 
Q 2509 4147 2053 4147 
L 1259 4147 
z
" transform="scale(0.015625)"/>
       <path id="DejaVuSans-70" d="M 1159 525 
L 1159 -1331 
L 581 -1331 
L 581 3500 
L 1159 3500 
L 1159 2969 
Q 1341 3281 1617 3432 
Q 1894 3584 2278 3584 
Q 2916 3584 3314 3078 
Q 3713 2572 3713 1747 
Q 3713 922 3314 415 
Q 2916 -91 2278 -91 
Q 1894 -91 1617 61 
Q 1341 213 1159 525 
z
M 3116 1747 
Q 3116 2381 2855 2742 
Q 2594 3103 2138 3103 
Q 1681 3103 1420 2742 
Q 1159 2381 1159 1747 
Q 1159 1113 1420 752 
Q 1681 391 2138 391 
Q 2594 391 2855 752 
Q 3116 1113 3116 1747 
z
" transform="scale(0.015625)"/>
       <path id="DejaVuSans-6e" d="M 3513 2113 
L 3513 0 
L 2938 0 
L 2938 2094 
Q 2938 2591 2744 2837 
Q 2550 3084 2163 3084 
Q 1697 3084 1428 2787 
Q 1159 2491 1159 1978 
L 1159 0 
L 581 0 
L 581 3500 
L 1159 3500 
L 1159 2956 
Q 1366 3272 1645 3428 
Q 1925 3584 2291 3584 
Q 2894 3584 3203 3211 
Q 3513 2838 3513 2113 
z
" transform="scale(0.015625)"/>
      </defs>
      <use xlink:href="#DejaVuSans-41"/>
      <use xlink:href="#DejaVuSans-76" x="62.533203"/>
      <use xlink:href="#DejaVuSans-65" x="121.712891"/>
      <use xlink:href="#DejaVuSans-72" x="183.236328"/>
      <use xlink:href="#DejaVuSans-61" x="224.349609"/>
      <use xlink:href="#DejaVuSans-67" x="285.628906"/>
      <use xlink:href="#DejaVuSans-65" x="349.105469"/>
      <use xlink:href="#DejaVuSans-20" x="410.628906"/>
      <use xlink:href="#DejaVuSans-42" x="442.416016"/>
      <use xlink:href="#DejaVuSans-4f" x="509.269531"/>
      <use xlink:href="#DejaVuSans-4c" x="587.980469"/>
      <use xlink:href="#DejaVuSans-44" x="643.693359"/>
      <use xlink:href="#DejaVuSans-20" x="720.695312"/>
      <use xlink:href="#DejaVuSans-52" x="752.482422"/>
      <use xlink:href="#DejaVuSans-65" x="817.464844"/>
      <use xlink:href="#DejaVuSans-73" x="878.988281"/>
      <use xlink:href="#DejaVuSans-70" x="931.087891"/>
      <use xlink:href="#DejaVuSans-6f" x="994.564453"/>
      <use xlink:href="#DejaVuSans-6e" x="1055.746094"/>
      <use xlink:href="#DejaVuSans-73" x="1119.125"/>
      <use xlink:href="#DejaVuSans-65" x="1171.224609"/>
     </g>
    </g>
   </g>
   <g id="line2d_10">
    <path d="M 75.603798 203.954337 
L 105.310257 203.954337 
" clip-path="url(#p3be0853d8a)" style="fill: none; stroke: #b2b2b2; stroke-width: 2; stroke-linecap: square"/>
   </g>
   <g id="line2d_11">
    <path d="M 149.869946 194.516719 
L 179.576406 194.516719 
" clip-path="url(#p3be0853d8a)" style="fill: none; stroke: #9400d3; stroke-width: 2; stroke-linecap: square"/>
   </g>
   <g id="line2d_12">
    <path d="M 224.136094 186.216084 
L 253.842554 186.216084 
" clip-path="url(#p3be0853d8a)" style="fill: none; stroke: #ffa500; stroke-width: 2; stroke-linecap: square"/>
   </g>
   <g id="line2d_13">
    <path d="M 298.402243 199.517667 
L 328.108702 199.517667 
" clip-path="url(#p3be0853d8a)" style="fill: none; stroke: #ff0000; stroke-width: 2; stroke-linecap: square"/>
   </g>
   <g id="patch_3">
    <path d="M 46.64 316.10776 
L 46.64 47.04 
" style="fill: none; stroke: #000000; stroke-width: 0.8; stroke-linejoin: miter; stroke-linecap: square"/>
   </g>
   <g id="patch_4">
    <path d="M 357.0725 316.10776 
L 357.0725 47.04 
" style="fill: none; stroke: #000000; stroke-width: 0.8; stroke-linejoin: miter; stroke-linecap: square"/>
   </g>
   <g id="patch_5">
    <path d="M 46.64 316.10776 
L 357.0725 316.10776 
" style="fill: none; stroke: #000000; stroke-width: 0.8; stroke-linejoin: miter; stroke-linecap: square"/>
   </g>
   <g id="patch_6">
    <path d="M 46.64 47.04 
L 357.0725 47.04 
" style="fill: none; stroke: #000000; stroke-width: 0.8; stroke-linejoin: miter; stroke-linecap: square"/>
   </g>
   <g id="PathCollection_1">
    <defs>
     <path id="m191d73a48d" d="M 0 2.5 
C 0.663008 2.5 1.29895 2.236584 1.767767 1.767767 
C 2.236584 1.29895 2.5 0.663008 2.5 0 
C 2.5 -0.663008 2.236584 -1.29895 1.767767 -1.767767 
C 1.29895 -2.236584 0.663008 -2.5 0 -2.5 
C -0.663008 -2.5 -1.29895 -2.236584 -1.767767 -1.767767 
C -2.236584 -1.29895 -2.5 -0.663008 -2.5 0 
C -2.5 0.663008 -2.236584 1.29895 -1.767767 1.767767 
C -1.29895 2.236584 -0.663008 2.5 0 2.5 
z
"/>
    </defs>
    <g clip-path="url(#p3be0853d8a)">
     <use xlink:href="#m191d73a48d" x="85.235494" y="161.219235" style="fill-opacity: 0.7"/>
     <use xlink:href="#m191d73a48d" x="95.21712" y="207.635326" style="fill-opacity: 0.7"/>
     <use xlink:href="#m191d73a48d" x="109.300491" y="212.253822" style="fill-opacity: 0.7"/>
     <use xlink:href="#m191d73a48d" x="90.457028" y="209.744376" style="fill-opacity: 0.7"/>
     <use xlink:href="#m191d73a48d" x="100.273126" y="200.213943" style="fill-opacity: 0.7"/>
     <use xlink:href="#m191d73a48d" x="86.532382" y="195.165819" style="fill-opacity: 0.7"/>
     <use xlink:href="#m191d73a48d" x="81.452691" y="193.902615" style="fill-opacity: 0.7"/>
     <use xlink:href="#m191d73a48d" x="80.26398" y="201.303423" style="fill-opacity: 0.7"/>
     <use xlink:href="#m191d73a48d" x="95.972975" y="191.187535" style="fill-opacity: 0.7"/>
     <use xlink:href="#m191d73a48d" x="90.457028" y="150.940363" style="fill-opacity: 0.7"/>
     <use xlink:href="#m191d73a48d" x="77.596968" y="190.509157" style="fill-opacity: 0.7"/>
     <use xlink:href="#m191d73a48d" x="90.457028" y="186.815479" style="fill-opacity: 0.7"/>
     <use xlink:href="#m191d73a48d" x="100.739157" y="217.755692" style="fill-opacity: 0.7"/>
     <use xlink:href="#m191d73a48d" x="85.370063" y="223.952815" style="fill-opacity: 0.7"/>
     <use xlink:href="#m191d73a48d" x="90.457028" y="172.909411" style="fill-opacity: 0.7"/>
     <use xlink:href="#m191d73a48d" x="90.457028" y="161.739215" style="fill-opacity: 0.7"/>
     <use xlink:href="#m191d73a48d" x="84.562379" y="211.064565" style="fill-opacity: 0.7"/>
     <use xlink:href="#m191d73a48d" x="90.457028" y="280.710807" style="fill-opacity: 0.7"/>
     <use xlink:href="#m191d73a48d" x="90.457028" y="198.486838" style="fill-opacity: 0.7"/>
     <use xlink:href="#m191d73a48d" x="92.747944" y="182.31663" style="fill-opacity: 0.7"/>
     <use xlink:href="#m191d73a48d" x="100.884567" y="209.343988" style="fill-opacity: 0.7"/>
     <use xlink:href="#m191d73a48d" x="104.49064" y="214.257863" style="fill-opacity: 0.7"/>
     <use xlink:href="#m191d73a48d" x="95.592365" y="202.478324" style="fill-opacity: 0.7"/>
     <use xlink:href="#m191d73a48d" x="95.41194" y="196.834151" style="fill-opacity: 0.7"/>
     <use xlink:href="#m191d73a48d" x="75.959987" y="198.440232" style="fill-opacity: 0.7"/>
     <use xlink:href="#m191d73a48d" x="85.252321" y="202.862232" style="fill-opacity: 0.7"/>
     <use xlink:href="#m191d73a48d" x="85.590422" y="184.939831" style="fill-opacity: 0.7"/>
     <use xlink:href="#m191d73a48d" x="80.073907" y="215.758011" style="fill-opacity: 0.7"/>
     <use xlink:href="#m191d73a48d" x="90.457028" y="225.189185" style="fill-opacity: 0.7"/>
     <use xlink:href="#m191d73a48d" x="90.457028" y="219.338669" style="fill-opacity: 0.7"/>
     <use xlink:href="#m191d73a48d" x="97.8333" y="213.412814" style="fill-opacity: 0.7"/>
     <use xlink:href="#m191d73a48d" x="90.864769" y="192.341737" style="fill-opacity: 0.7"/>
     <use xlink:href="#m191d73a48d" x="87.575228" y="215.159276" style="fill-opacity: 0.7"/>
     <use xlink:href="#m191d73a48d" x="95.704101" y="219.171734" style="fill-opacity: 0.7"/>
     <use xlink:href="#m191d73a48d" x="101.222281" y="191.106258" style="fill-opacity: 0.7"/>
     <use xlink:href="#m191d73a48d" x="105.457539" y="199.426077" style="fill-opacity: 0.7"/>
     <use xlink:href="#m191d73a48d" x="71.013278" y="210.99717" style="fill-opacity: 0.7"/>
     <use xlink:href="#m191d73a48d" x="90.457028" y="203.517602" style="fill-opacity: 0.7"/>
     <use xlink:href="#m191d73a48d" x="83.93852" y="219.142284" style="fill-opacity: 0.7"/>
     <use xlink:href="#m191d73a48d" x="79.831889" y="209.245113" style="fill-opacity: 0.7"/>
     <use xlink:href="#m191d73a48d" x="75.973375" y="212.635692" style="fill-opacity: 0.7"/>
     <use xlink:href="#m191d73a48d" x="92.817601" y="214.889854" style="fill-opacity: 0.7"/>
     <use xlink:href="#m191d73a48d" x="90.457028" y="249.721338" style="fill-opacity: 0.7"/>
    </g>
   </g>
   <g id="PathCollection_2">
    <g clip-path="url(#p3be0853d8a)">
     <use xlink:href="#m191d73a48d" x="164.723176" y="128.511557" style="fill-opacity: 0.7"/>
     <use xlink:href="#m191d73a48d" x="149.146909" y="194.889772" style="fill-opacity: 0.7"/>
     <use xlink:href="#m191d73a48d" x="169.820659" y="191.477599" style="fill-opacity: 0.7"/>
     <use xlink:href="#m191d73a48d" x="160.145784" y="151.131154" style="fill-opacity: 0.7"/>
     <use xlink:href="#m191d73a48d" x="147.325348" y="202.914731" style="fill-opacity: 0.7"/>
     <use xlink:href="#m191d73a48d" x="164.723176" y="192.674026" style="fill-opacity: 0.7"/>
     <use xlink:href="#m191d73a48d" x="164.723176" y="205.286519" style="fill-opacity: 0.7"/>
     <use xlink:href="#m191d73a48d" x="170.863306" y="196.378516" style="fill-opacity: 0.7"/>
     <use xlink:href="#m191d73a48d" x="159.462277" y="196.663575" style="fill-opacity: 0.7"/>
     <use xlink:href="#m191d73a48d" x="164.723176" y="135.112836" style="fill-opacity: 0.7"/>
     <use xlink:href="#m191d73a48d" x="159.488948" y="160.754494" style="fill-opacity: 0.7"/>
     <use xlink:href="#m191d73a48d" x="164.723176" y="161.141771" style="fill-opacity: 0.7"/>
     <use xlink:href="#m191d73a48d" x="174.357942" y="201.712153" style="fill-opacity: 0.7"/>
     <use xlink:href="#m191d73a48d" x="174.359291" y="213.166344" style="fill-opacity: 0.7"/>
     <use xlink:href="#m191d73a48d" x="164.723176" y="153.579714" style="fill-opacity: 0.7"/>
     <use xlink:href="#m191d73a48d" x="159.516421" y="134.472394" style="fill-opacity: 0.7"/>
     <use xlink:href="#m191d73a48d" x="159.50291" y="209.811215" style="fill-opacity: 0.7"/>
     <use xlink:href="#m191d73a48d" x="164.723176" y="254.598038" style="fill-opacity: 0.7"/>
     <use xlink:href="#m191d73a48d" x="179.139626" y="203.776426" style="fill-opacity: 0.7"/>
     <use xlink:href="#m191d73a48d" x="164.723176" y="180.74647" style="fill-opacity: 0.7"/>
     <use xlink:href="#m191d73a48d" x="170.502289" y="208.992382" style="fill-opacity: 0.7"/>
     <use xlink:href="#m191d73a48d" x="164.723176" y="216.505373" style="fill-opacity: 0.7"/>
     <use xlink:href="#m191d73a48d" x="169.793915" y="203.991106" style="fill-opacity: 0.7"/>
     <use xlink:href="#m191d73a48d" x="176.093763" y="195.947495" style="fill-opacity: 0.7"/>
     <use xlink:href="#m191d73a48d" x="157.925208" y="191.882669" style="fill-opacity: 0.7"/>
     <use xlink:href="#m191d73a48d" x="142.59604" y="200.743772" style="fill-opacity: 0.7"/>
     <use xlink:href="#m191d73a48d" x="181.098246" y="194.436342" style="fill-opacity: 0.7"/>
     <use xlink:href="#m191d73a48d" x="169.155034" y="213.824944" style="fill-opacity: 0.7"/>
     <use xlink:href="#m191d73a48d" x="154.257532" y="209.601463" style="fill-opacity: 0.7"/>
     <use xlink:href="#m191d73a48d" x="175.457482" y="207.340459" style="fill-opacity: 0.7"/>
     <use xlink:href="#m191d73a48d" x="157.54678" y="205.171247" style="fill-opacity: 0.7"/>
     <use xlink:href="#m191d73a48d" x="165.956638" y="198.156973" style="fill-opacity: 0.7"/>
     <use xlink:href="#m191d73a48d" x="183.50126" y="200.993477" style="fill-opacity: 0.7"/>
     <use xlink:href="#m191d73a48d" x="152.391107" y="204.227699" style="fill-opacity: 0.7"/>
     <use xlink:href="#m191d73a48d" x="164.723176" y="170.815051" style="fill-opacity: 0.7"/>
     <use xlink:href="#m191d73a48d" x="174.764653" y="189.795514" style="fill-opacity: 0.7"/>
     <use xlink:href="#m191d73a48d" x="154.25024" y="196.063372" style="fill-opacity: 0.7"/>
     <use xlink:href="#m191d73a48d" x="153.930969" y="188.637781" style="fill-opacity: 0.7"/>
     <use xlink:href="#m191d73a48d" x="164.723176" y="223.23235" style="fill-opacity: 0.7"/>
     <use xlink:href="#m191d73a48d" x="161.758866" y="201.1598" style="fill-opacity: 0.7"/>
     <use xlink:href="#m191d73a48d" x="164.723176" y="210.34261" style="fill-opacity: 0.7"/>
     <use xlink:href="#m191d73a48d" x="159.557294" y="215.613911" style="fill-opacity: 0.7"/>
     <use xlink:href="#m191d73a48d" x="164.723176" y="247.943807" style="fill-opacity: 0.7"/>
    </g>
   </g>
   <g id="PathCollection_3">
    <g clip-path="url(#p3be0853d8a)">
     <use xlink:href="#m191d73a48d" x="238.989324" y="133.168151" style="fill-opacity: 0.7"/>
     <use xlink:href="#m191d73a48d" x="230.430026" y="185.587376" style="fill-opacity: 0.7"/>
     <use xlink:href="#m191d73a48d" x="238.989324" y="182.820664" style="fill-opacity: 0.7"/>
     <use xlink:href="#m191d73a48d" x="238.989324" y="195.698142" style="fill-opacity: 0.7"/>
     <use xlink:href="#m191d73a48d" x="238.989324" y="124.633099" style="fill-opacity: 0.7"/>
     <use xlink:href="#m191d73a48d" x="243.363295" y="186.393657" style="fill-opacity: 0.7"/>
     <use xlink:href="#m191d73a48d" x="243.848028" y="193.804005" style="fill-opacity: 0.7"/>
     <use xlink:href="#m191d73a48d" x="233.924144" y="181.505671" style="fill-opacity: 0.7"/>
     <use xlink:href="#m191d73a48d" x="240.706745" y="173.782036" style="fill-opacity: 0.7"/>
     <use xlink:href="#m191d73a48d" x="238.989324" y="159.724845" style="fill-opacity: 0.7"/>
     <use xlink:href="#m191d73a48d" x="243.115847" y="169.339536" style="fill-opacity: 0.7"/>
     <use xlink:href="#m191d73a48d" x="238.989324" y="154.076417" style="fill-opacity: 0.7"/>
     <use xlink:href="#m191d73a48d" x="235.060018" y="192.382125" style="fill-opacity: 0.7"/>
     <use xlink:href="#m191d73a48d" x="248.580313" y="197.209647" style="fill-opacity: 0.7"/>
     <use xlink:href="#m191d73a48d" x="238.989324" y="89.850506" style="fill-opacity: 0.7"/>
     <use xlink:href="#m191d73a48d" x="238.989324" y="100.186273" style="fill-opacity: 0.7"/>
     <use xlink:href="#m191d73a48d" x="237.805767" y="177.949378" style="fill-opacity: 0.7"/>
     <use xlink:href="#m191d73a48d" x="238.989324" y="273.297254" style="fill-opacity: 0.7"/>
     <use xlink:href="#m191d73a48d" x="248.393265" y="184.961312" style="fill-opacity: 0.7"/>
     <use xlink:href="#m191d73a48d" x="252.241558" y="175.872787" style="fill-opacity: 0.7"/>
     <use xlink:href="#m191d73a48d" x="238.989324" y="201.261903" style="fill-opacity: 0.7"/>
     <use xlink:href="#m191d73a48d" x="229.048317" y="210.045587" style="fill-opacity: 0.7"/>
     <use xlink:href="#m191d73a48d" x="248.67329" y="202.557712" style="fill-opacity: 0.7"/>
     <use xlink:href="#m191d73a48d" x="230.323904" y="177.866532" style="fill-opacity: 0.7"/>
     <use xlink:href="#m191d73a48d" x="243.142269" y="179.761823" style="fill-opacity: 0.7"/>
     <use xlink:href="#m191d73a48d" x="239.613021" y="189.892663" style="fill-opacity: 0.7"/>
     <use xlink:href="#m191d73a48d" x="231.902551" y="169.039015" style="fill-opacity: 0.7"/>
     <use xlink:href="#m191d73a48d" x="234.605469" y="198.510806" style="fill-opacity: 0.7"/>
     <use xlink:href="#m191d73a48d" x="243.599957" y="210.413302" style="fill-opacity: 0.7"/>
     <use xlink:href="#m191d73a48d" x="238.989324" y="212.804625" style="fill-opacity: 0.7"/>
     <use xlink:href="#m191d73a48d" x="248.837658" y="210.071255" style="fill-opacity: 0.7"/>
     <use xlink:href="#m191d73a48d" x="229.816627" y="192.131312" style="fill-opacity: 0.7"/>
     <use xlink:href="#m191d73a48d" x="253.844708" y="208.567837" style="fill-opacity: 0.7"/>
     <use xlink:href="#m191d73a48d" x="247.019832" y="176.391013" style="fill-opacity: 0.7"/>
     <use xlink:href="#m191d73a48d" x="235.611238" y="172.577997" style="fill-opacity: 0.7"/>
     <use xlink:href="#m191d73a48d" x="229.402754" y="197.841245" style="fill-opacity: 0.7"/>
     <use xlink:href="#m191d73a48d" x="243.865673" y="199.409351" style="fill-opacity: 0.7"/>
     <use xlink:href="#m191d73a48d" x="235.538814" y="186.739241" style="fill-opacity: 0.7"/>
     <use xlink:href="#m191d73a48d" x="238.989324" y="206.375472" style="fill-opacity: 0.7"/>
     <use xlink:href="#m191d73a48d" x="243.952489" y="204.745399" style="fill-opacity: 0.7"/>
     <use xlink:href="#m191d73a48d" x="233.295066" y="205.714428" style="fill-opacity: 0.7"/>
     <use xlink:href="#m191d73a48d" x="234.262479" y="210.628807" style="fill-opacity: 0.7"/>
     <use xlink:href="#m191d73a48d" x="238.989324" y="251.701411" style="fill-opacity: 0.7"/>
    </g>
   </g>
   <g id="PathCollection_4">
    <g clip-path="url(#p3be0853d8a)">
     <use xlink:href="#m191d73a48d" x="308.134819" y="151.100538" style="fill-opacity: 0.7"/>
     <use xlink:href="#m191d73a48d" x="312.735773" y="203.902992" style="fill-opacity: 0.7"/>
     <use xlink:href="#m191d73a48d" x="317.28314" y="206.401781" style="fill-opacity: 0.7"/>
     <use xlink:href="#m191d73a48d" x="313.255472" y="172.013547" style="fill-opacity: 0.7"/>
     <use xlink:href="#m191d73a48d" x="305.692476" y="186.194505" style="fill-opacity: 0.7"/>
     <use xlink:href="#m191d73a48d" x="313.255472" y="191.202995" style="fill-opacity: 0.7"/>
     <use xlink:href="#m191d73a48d" x="319.079271" y="201.7035" style="fill-opacity: 0.7"/>
     <use xlink:href="#m191d73a48d" x="303.071102" y="199.994407" style="fill-opacity: 0.7"/>
     <use xlink:href="#m191d73a48d" x="318.425712" y="190.334748" style="fill-opacity: 0.7"/>
     <use xlink:href="#m191d73a48d" x="313.255472" y="160.313265" style="fill-opacity: 0.7"/>
     <use xlink:href="#m191d73a48d" x="311.573436" y="186.466563" style="fill-opacity: 0.7"/>
     <use xlink:href="#m191d73a48d" x="308.147984" y="170.856467" style="fill-opacity: 0.7"/>
     <use xlink:href="#m191d73a48d" x="330.982589" y="205.682575" style="fill-opacity: 0.7"/>
     <use xlink:href="#m191d73a48d" x="311.992053" y="220.421934" style="fill-opacity: 0.7"/>
     <use xlink:href="#m191d73a48d" x="313.255472" y="152.203579" style="fill-opacity: 0.7"/>
     <use xlink:href="#m191d73a48d" x="313.255472" y="144.918841" style="fill-opacity: 0.7"/>
     <use xlink:href="#m191d73a48d" x="298.557477" y="197.440731" style="fill-opacity: 0.7"/>
     <use xlink:href="#m191d73a48d" x="313.255472" y="254.868902" style="fill-opacity: 0.7"/>
     <use xlink:href="#m191d73a48d" x="307.910228" y="201.933469" style="fill-opacity: 0.7"/>
     <use xlink:href="#m191d73a48d" x="320.894888" y="185.922266" style="fill-opacity: 0.7"/>
     <use xlink:href="#m191d73a48d" x="322.754539" y="211.16008" style="fill-opacity: 0.7"/>
     <use xlink:href="#m191d73a48d" x="307.038096" y="218.766653" style="fill-opacity: 0.7"/>
     <use xlink:href="#m191d73a48d" x="328.019405" y="196.553208" style="fill-opacity: 0.7"/>
     <use xlink:href="#m191d73a48d" x="293.567568" y="195.88648" style="fill-opacity: 0.7"/>
     <use xlink:href="#m191d73a48d" x="323.81823" y="199.551715" style="fill-opacity: 0.7"/>
     <use xlink:href="#m191d73a48d" x="313.255472" y="214.604443" style="fill-opacity: 0.7"/>
     <use xlink:href="#m191d73a48d" x="308.035506" y="190.668944" style="fill-opacity: 0.7"/>
     <use xlink:href="#m191d73a48d" x="308.332616" y="212.867038" style="fill-opacity: 0.7"/>
     <use xlink:href="#m191d73a48d" x="317.163051" y="219.557793" style="fill-opacity: 0.7"/>
     <use xlink:href="#m191d73a48d" x="301.425554" y="208.05596" style="fill-opacity: 0.7"/>
     <use xlink:href="#m191d73a48d" x="296.595505" y="206.096477" style="fill-opacity: 0.7"/>
     <use xlink:href="#m191d73a48d" x="318.236007" y="196.76842" style="fill-opacity: 0.7"/>
     <use xlink:href="#m191d73a48d" x="312.966882" y="209.248177" style="fill-opacity: 0.7"/>
     <use xlink:href="#m191d73a48d" x="308.310048" y="196.644314" style="fill-opacity: 0.7"/>
     <use xlink:href="#m191d73a48d" x="300.543475" y="185.218475" style="fill-opacity: 0.7"/>
     <use xlink:href="#m191d73a48d" x="325.987007" y="207.220209" style="fill-opacity: 0.7"/>
     <use xlink:href="#m191d73a48d" x="317.536395" y="211.71005" style="fill-opacity: 0.7"/>
     <use xlink:href="#m191d73a48d" x="313.255472" y="198.322581" style="fill-opacity: 0.7"/>
     <use xlink:href="#m191d73a48d" x="313.255472" y="225.274992" style="fill-opacity: 0.7"/>
     <use xlink:href="#m191d73a48d" x="321.855662" y="217.31577" style="fill-opacity: 0.7"/>
     <use xlink:href="#m191d73a48d" x="306.675085" y="208.122776" style="fill-opacity: 0.7"/>
     <use xlink:href="#m191d73a48d" x="302.443592" y="216.347335" style="fill-opacity: 0.7"/>
     <use xlink:href="#m191d73a48d" x="313.255472" y="249.420174" style="fill-opacity: 0.7"/>
    </g>
   </g>
   <g id="text_11">
    <!-- V1 tgt -->
    <g transform="translate(183.514062 41.04) scale(0.12 -0.12)">
     <defs>
      <path id="DejaVuSans-56" d="M 1831 0 
L 50 4666 
L 709 4666 
L 2188 738 
L 3669 4666 
L 4325 4666 
L 2547 0 
L 1831 0 
z
" transform="scale(0.015625)"/>
     </defs>
     <use xlink:href="#DejaVuSans-56"/>
     <use xlink:href="#DejaVuSans-31" x="68.408203"/>
     <use xlink:href="#DejaVuSans-20" x="132.03125"/>
     <use xlink:href="#DejaVuSans-74" x="163.818359"/>
     <use xlink:href="#DejaVuSans-67" x="203.027344"/>
     <use xlink:href="#DejaVuSans-74" x="266.503906"/>
    </g>
   </g>
  </g>
  <g id="axes_2">
   <g id="patch_7">
    <path d="M 390.8025 316.10776 
L 701.235 316.10776 
L 701.235 47.04 
L 390.8025 47.04 
z
" style="fill: #ffffff"/>
   </g>
   <g id="matplotlib.axis_3">
    <g id="xtick_5">
     <g id="line2d_14">
      <g>
       <use xlink:href="#mf1446bfea1" x="390.8025" y="316.10776" style="stroke: #000000; stroke-width: 0.8"/>
      </g>
     </g>
     <g id="text_12">
      <!-- 0.0 -->
      <g transform="translate(382.850937 330.706197) scale(0.1 -0.1)">
       <defs>
        <path id="DejaVuSans-2e" d="M 684 794 
L 1344 794 
L 1344 0 
L 684 0 
L 684 794 
z
" transform="scale(0.015625)"/>
       </defs>
       <use xlink:href="#DejaVuSans-30"/>
       <use xlink:href="#DejaVuSans-2e" x="63.623047"/>
       <use xlink:href="#DejaVuSans-30" x="95.410156"/>
      </g>
     </g>
    </g>
    <g id="xtick_6">
     <g id="line2d_15">
      <g>
       <use xlink:href="#mf1446bfea1" x="452.889" y="316.10776" style="stroke: #000000; stroke-width: 0.8"/>
      </g>
     </g>
     <g id="text_13">
      <!-- 0.2 -->
      <g transform="translate(444.937437 330.706197) scale(0.1 -0.1)">
       <defs>
        <path id="DejaVuSans-32" d="M 1228 531 
L 3431 531 
L 3431 0 
L 469 0 
L 469 531 
Q 828 903 1448 1529 
Q 2069 2156 2228 2338 
Q 2531 2678 2651 2914 
Q 2772 3150 2772 3378 
Q 2772 3750 2511 3984 
Q 2250 4219 1831 4219 
Q 1534 4219 1204 4116 
Q 875 4013 500 3803 
L 500 4441 
Q 881 4594 1212 4672 
Q 1544 4750 1819 4750 
Q 2544 4750 2975 4387 
Q 3406 4025 3406 3419 
Q 3406 3131 3298 2873 
Q 3191 2616 2906 2266 
Q 2828 2175 2409 1742 
Q 1991 1309 1228 531 
z
" transform="scale(0.015625)"/>
       </defs>
       <use xlink:href="#DejaVuSans-30"/>
       <use xlink:href="#DejaVuSans-2e" x="63.623047"/>
       <use xlink:href="#DejaVuSans-32" x="95.410156"/>
      </g>
     </g>
    </g>
    <g id="xtick_7">
     <g id="line2d_16">
      <g>
       <use xlink:href="#mf1446bfea1" x="514.9755" y="316.10776" style="stroke: #000000; stroke-width: 0.8"/>
      </g>
     </g>
     <g id="text_14">
      <!-- 0.4 -->
      <g transform="translate(507.023937 330.706197) scale(0.1 -0.1)">
       <defs>
        <path id="DejaVuSans-34" d="M 2419 4116 
L 825 1625 
L 2419 1625 
L 2419 4116 
z
M 2253 4666 
L 3047 4666 
L 3047 1625 
L 3713 1625 
L 3713 1100 
L 3047 1100 
L 3047 0 
L 2419 0 
L 2419 1100 
L 313 1100 
L 313 1709 
L 2253 4666 
z
" transform="scale(0.015625)"/>
       </defs>
       <use xlink:href="#DejaVuSans-30"/>
       <use xlink:href="#DejaVuSans-2e" x="63.623047"/>
       <use xlink:href="#DejaVuSans-34" x="95.410156"/>
      </g>
     </g>
    </g>
    <g id="xtick_8">
     <g id="line2d_17">
      <g>
       <use xlink:href="#mf1446bfea1" x="577.062" y="316.10776" style="stroke: #000000; stroke-width: 0.8"/>
      </g>
     </g>
     <g id="text_15">
      <!-- 0.6 -->
      <g transform="translate(569.110437 330.706197) scale(0.1 -0.1)">
       <defs>
        <path id="DejaVuSans-36" d="M 2113 2584 
Q 1688 2584 1439 2293 
Q 1191 2003 1191 1497 
Q 1191 994 1439 701 
Q 1688 409 2113 409 
Q 2538 409 2786 701 
Q 3034 994 3034 1497 
Q 3034 2003 2786 2293 
Q 2538 2584 2113 2584 
z
M 3366 4563 
L 3366 3988 
Q 3128 4100 2886 4159 
Q 2644 4219 2406 4219 
Q 1781 4219 1451 3797 
Q 1122 3375 1075 2522 
Q 1259 2794 1537 2939 
Q 1816 3084 2150 3084 
Q 2853 3084 3261 2657 
Q 3669 2231 3669 1497 
Q 3669 778 3244 343 
Q 2819 -91 2113 -91 
Q 1303 -91 875 529 
Q 447 1150 447 2328 
Q 447 3434 972 4092 
Q 1497 4750 2381 4750 
Q 2619 4750 2861 4703 
Q 3103 4656 3366 4563 
z
" transform="scale(0.015625)"/>
       </defs>
       <use xlink:href="#DejaVuSans-30"/>
       <use xlink:href="#DejaVuSans-2e" x="63.623047"/>
       <use xlink:href="#DejaVuSans-36" x="95.410156"/>
      </g>
     </g>
    </g>
    <g id="xtick_9">
     <g id="line2d_18">
      <g>
       <use xlink:href="#mf1446bfea1" x="639.1485" y="316.10776" style="stroke: #000000; stroke-width: 0.8"/>
      </g>
     </g>
     <g id="text_16">
      <!-- 0.8 -->
      <g transform="translate(631.196937 330.706197) scale(0.1 -0.1)">
       <defs>
        <path id="DejaVuSans-38" d="M 2034 2216 
Q 1584 2216 1326 1975 
Q 1069 1734 1069 1313 
Q 1069 891 1326 650 
Q 1584 409 2034 409 
Q 2484 409 2743 651 
Q 3003 894 3003 1313 
Q 3003 1734 2745 1975 
Q 2488 2216 2034 2216 
z
M 1403 2484 
Q 997 2584 770 2862 
Q 544 3141 544 3541 
Q 544 4100 942 4425 
Q 1341 4750 2034 4750 
Q 2731 4750 3128 4425 
Q 3525 4100 3525 3541 
Q 3525 3141 3298 2862 
Q 3072 2584 2669 2484 
Q 3125 2378 3379 2068 
Q 3634 1759 3634 1313 
Q 3634 634 3220 271 
Q 2806 -91 2034 -91 
Q 1263 -91 848 271 
Q 434 634 434 1313 
Q 434 1759 690 2068 
Q 947 2378 1403 2484 
z
M 1172 3481 
Q 1172 3119 1398 2916 
Q 1625 2713 2034 2713 
Q 2441 2713 2670 2916 
Q 2900 3119 2900 3481 
Q 2900 3844 2670 4047 
Q 2441 4250 2034 4250 
Q 1625 4250 1398 4047 
Q 1172 3844 1172 3481 
z
" transform="scale(0.015625)"/>
       </defs>
       <use xlink:href="#DejaVuSans-30"/>
       <use xlink:href="#DejaVuSans-2e" x="63.623047"/>
       <use xlink:href="#DejaVuSans-38" x="95.410156"/>
      </g>
     </g>
    </g>
    <g id="xtick_10">
     <g id="line2d_19">
      <g>
       <use xlink:href="#mf1446bfea1" x="701.235" y="316.10776" style="stroke: #000000; stroke-width: 0.8"/>
      </g>
     </g>
     <g id="text_17">
      <!-- 1.0 -->
      <g transform="translate(693.283437 330.706197) scale(0.1 -0.1)">
       <use xlink:href="#DejaVuSans-31"/>
       <use xlink:href="#DejaVuSans-2e" x="63.623047"/>
       <use xlink:href="#DejaVuSans-30" x="95.410156"/>
      </g>
     </g>
    </g>
   </g>
   <g id="matplotlib.axis_4">
    <g id="ytick_6">
     <g id="line2d_20">
      <g>
       <use xlink:href="#mef0e148990" x="390.8025" y="316.10776" style="stroke: #000000; stroke-width: 0.8"/>
      </g>
     </g>
     <g id="text_18">
      <!-- 0.0 -->
      <g transform="translate(367.899375 319.906979) scale(0.1 -0.1)">
       <use xlink:href="#DejaVuSans-30"/>
       <use xlink:href="#DejaVuSans-2e" x="63.623047"/>
       <use xlink:href="#DejaVuSans-30" x="95.410156"/>
      </g>
     </g>
    </g>
    <g id="ytick_7">
     <g id="line2d_21">
      <g>
       <use xlink:href="#mef0e148990" x="390.8025" y="262.294208" style="stroke: #000000; stroke-width: 0.8"/>
      </g>
     </g>
     <g id="text_19">
      <!-- 0.2 -->
      <g transform="translate(367.899375 266.093427) scale(0.1 -0.1)">
       <use xlink:href="#DejaVuSans-30"/>
       <use xlink:href="#DejaVuSans-2e" x="63.623047"/>
       <use xlink:href="#DejaVuSans-32" x="95.410156"/>
      </g>
     </g>
    </g>
    <g id="ytick_8">
     <g id="line2d_22">
      <g>
       <use xlink:href="#mef0e148990" x="390.8025" y="208.480656" style="stroke: #000000; stroke-width: 0.8"/>
      </g>
     </g>
     <g id="text_20">
      <!-- 0.4 -->
      <g transform="translate(367.899375 212.279875) scale(0.1 -0.1)">
       <use xlink:href="#DejaVuSans-30"/>
       <use xlink:href="#DejaVuSans-2e" x="63.623047"/>
       <use xlink:href="#DejaVuSans-34" x="95.410156"/>
      </g>
     </g>
    </g>
    <g id="ytick_9">
     <g id="line2d_23">
      <g>
       <use xlink:href="#mef0e148990" x="390.8025" y="154.667104" style="stroke: #000000; stroke-width: 0.8"/>
      </g>
     </g>
     <g id="text_21">
      <!-- 0.6 -->
      <g transform="translate(367.899375 158.466323) scale(0.1 -0.1)">
       <use xlink:href="#DejaVuSans-30"/>
       <use xlink:href="#DejaVuSans-2e" x="63.623047"/>
       <use xlink:href="#DejaVuSans-36" x="95.410156"/>
      </g>
     </g>
    </g>
    <g id="ytick_10">
     <g id="line2d_24">
      <g>
       <use xlink:href="#mef0e148990" x="390.8025" y="100.853552" style="stroke: #000000; stroke-width: 0.8"/>
      </g>
     </g>
     <g id="text_22">
      <!-- 0.8 -->
      <g transform="translate(367.899375 104.652771) scale(0.1 -0.1)">
       <use xlink:href="#DejaVuSans-30"/>
       <use xlink:href="#DejaVuSans-2e" x="63.623047"/>
       <use xlink:href="#DejaVuSans-38" x="95.410156"/>
      </g>
     </g>
    </g>
    <g id="ytick_11">
     <g id="line2d_25">
      <g>
       <use xlink:href="#mef0e148990" x="390.8025" y="47.04" style="stroke: #000000; stroke-width: 0.8"/>
      </g>
     </g>
     <g id="text_23">
      <!-- 1.0 -->
      <g transform="translate(367.899375 50.839219) scale(0.1 -0.1)">
       <use xlink:href="#DejaVuSans-31"/>
       <use xlink:href="#DejaVuSans-2e" x="63.623047"/>
       <use xlink:href="#DejaVuSans-30" x="95.410156"/>
      </g>
     </g>
    </g>
   </g>
   <g id="patch_8">
    <path d="M 390.8025 316.10776 
L 390.8025 47.04 
" style="fill: none; stroke: #000000; stroke-width: 0.8; stroke-linejoin: miter; stroke-linecap: square"/>
   </g>
   <g id="patch_9">
    <path d="M 701.235 316.10776 
L 701.235 47.04 
" style="fill: none; stroke: #000000; stroke-width: 0.8; stroke-linejoin: miter; stroke-linecap: square"/>
   </g>
   <g id="patch_10">
    <path d="M 390.8025 316.10776 
L 701.235 316.10776 
" style="fill: none; stroke: #000000; stroke-width: 0.8; stroke-linejoin: miter; stroke-linecap: square"/>
   </g>
   <g id="patch_11">
    <path d="M 390.8025 47.04 
L 701.235 47.04 
" style="fill: none; stroke: #000000; stroke-width: 0.8; stroke-linejoin: miter; stroke-linecap: square"/>
   </g>
  </g>
  <g id="text_24">
   <!-- pnr143 -->
   <g transform="translate(338.469375 16.318125) scale(0.12 -0.12)">
    <defs>
     <path id="DejaVuSans-33" d="M 2597 2516 
Q 3050 2419 3304 2112 
Q 3559 1806 3559 1356 
Q 3559 666 3084 287 
Q 2609 -91 1734 -91 
Q 1441 -91 1130 -33 
Q 819 25 488 141 
L 488 750 
Q 750 597 1062 519 
Q 1375 441 1716 441 
Q 2309 441 2620 675 
Q 2931 909 2931 1356 
Q 2931 1769 2642 2001 
Q 2353 2234 1838 2234 
L 1294 2234 
L 1294 2753 
L 1863 2753 
Q 2328 2753 2575 2939 
Q 2822 3125 2822 3475 
Q 2822 3834 2567 4026 
Q 2313 4219 1838 4219 
Q 1578 4219 1281 4162 
Q 984 4106 628 3988 
L 628 4550 
Q 988 4650 1302 4700 
Q 1616 4750 1894 4750 
Q 2613 4750 3031 4423 
Q 3450 4097 3450 3541 
Q 3450 3153 3228 2886 
Q 3006 2619 2597 2516 
z
" transform="scale(0.015625)"/>
    </defs>
    <use xlink:href="#DejaVuSans-70"/>
    <use xlink:href="#DejaVuSans-6e" x="63.476562"/>
    <use xlink:href="#DejaVuSans-72" x="126.855469"/>
    <use xlink:href="#DejaVuSans-31" x="167.96875"/>
    <use xlink:href="#DejaVuSans-34" x="231.591797"/>
    <use xlink:href="#DejaVuSans-33" x="295.214844"/>
   </g>
  </g>
 </g>
 <defs>
  <clipPath id="p3be0853d8a">
   <rect x="46.64" y="47.04" width="310.4325" height="269.06776"/>
  </clipPath>
 </defs>
</svg>
