<?xml version="1.0" encoding="utf-8" standalone="no"?>
<!DOCTYPE svg PUBLIC "-//W3C//DTD SVG 1.1//EN"
  "http://www.w3.org/Graphics/SVG/1.1/DTD/svg11.dtd">
<svg xmlns:xlink="http://www.w3.org/1999/xlink" width="170.07874pt" height="113.385827pt" viewBox="0 0 170.07874 113.385827" xmlns="http://www.w3.org/2000/svg" version="1.1">
 <metadata>
  <rdf:RDF xmlns:dc="http://purl.org/dc/elements/1.1/" xmlns:cc="http://creativecommons.org/ns#" xmlns:rdf="http://www.w3.org/1999/02/22-rdf-syntax-ns#">
   <cc:Work>
    <dc:type rdf:resource="http://purl.org/dc/dcmitype/StillImage"/>
    <dc:date>2026-05-26T10:34:48.635984</dc:date>
    <dc:format>image/svg+xml</dc:format>
    <dc:creator>
     <cc:Agent>
      <dc:title>Matplotlib v3.8.0, https://matplotlib.org/</dc:title>
     </cc:Agent>
    </dc:creator>
   </cc:Work>
  </rdf:RDF>
 </metadata>
 <defs>
  <style type="text/css">*{stroke-linejoin: round; stroke-linecap: butt}</style>
 </defs>
 <g id="figure_1">
  <g id="patch_1">
   <path d="M 0 113.385827 
L 170.07874 113.385827 
L 170.07874 0 
L 0 0 
z
" style="fill: #ffffff"/>
  </g>
  <g id="axes_1">
   <g id="patch_2">
    <path d="M 119.055118 85.03937 
L 161.574803 85.03937 
L 161.574803 5.669291 
L 119.055118 5.669291 
z
" style="fill: #ffffff"/>
   </g>
   <g id="PolyCollection_1">
    <defs>
     <path id="m3898b4e471" d="M 131.584608 -29.872804 
L 128.561336 -29.872804 
L 130.428685 -42.592368 
L 128.390134 -55.311932 
L 132.173218 -68.031496 
L 131.997961 -80.75106 
L 138.265875 -93.470624 
L 129.045767 -106.190188 
L 134.633871 -106.190188 
L 134.633871 -106.190188 
L 146.379992 -93.470624 
L 136.748858 -80.75106 
L 134.705126 -68.031496 
L 131.853583 -55.311932 
L 133.044216 -42.592368 
L 131.584608 -29.872804 
z
"/>
    </defs>
    <g clip-path="url(#p57dfe56bfe)">
     <use xlink:href="#m3898b4e471" x="0" y="113.385827" style="fill: #008000; fill-opacity: 0.4"/>
    </g>
   </g>
   <g id="matplotlib.axis_1">
    <g id="xtick_1">
     <g id="line2d_1">
      <defs>
       <path id="ma876b2e9d4" d="M 0 0 
L 0 3.5 
" style="stroke: #000000; stroke-width: 0.8"/>
      </defs>
      <g>
       <use xlink:href="#ma876b2e9d4" x="129.685039" y="89.03937" style="stroke: #000000; stroke-width: 0.8"/>
      </g>
     </g>
     <g id="text_1">
      <!-- 0 -->
      <g transform="translate(127.776289 100.598433) scale(0.06 -0.06)">
       <defs>
        <path id="DejaVuSans-30" d="M 2034 4250 
Q 1547 4250 1301 3770 
Q 1056 3291 1056 2328 
Q 1056 1369 1301 889 
Q 1547 409 2034 409 
Q 2525 409 2770 889 
Q 3016 1369 3016 2328 
Q 3016 3291 2770 3770 
Q 2525 4250 2034 4250 
z
M 2034 4750 
Q 2819 4750 3233 4129 
Q 3647 3509 3647 2328 
Q 3647 1150 3233 529 
Q 2819 -91 2034 -91 
Q 1250 -91 836 529 
Q 422 1150 422 2328 
Q 422 3509 836 4129 
Q 1250 4750 2034 4750 
z
" transform="scale(0.015625)"/>
       </defs>
       <use xlink:href="#DejaVuSans-30"/>
      </g>
     </g>
    </g>
    <g id="xtick_2">
     <g id="line2d_2">
      <g>
       <use xlink:href="#ma876b2e9d4" x="147.401575" y="89.03937" style="stroke: #000000; stroke-width: 0.8"/>
      </g>
     </g>
     <g id="text_2">
      <!-- 1 -->
      <g transform="translate(145.492825 100.598433) scale(0.06 -0.06)">
       <defs>
        <path id="DejaVuSans-31" d="M 794 531 
L 1825 531 
L 1825 4091 
L 703 3866 
L 703 4441 
L 1819 4666 
L 2450 4666 
L 2450 531 
L 3481 531 
L 3481 0 
L 794 0 
L 794 531 
z
" transform="scale(0.015625)"/>
       </defs>
       <use xlink:href="#DejaVuSans-31"/>
      </g>
     </g>
    </g>
    <g id="text_3">
     <!-- $\Delta$ BOLD % -->
     <g transform="translate(122.534961 111.165151) scale(0.07 -0.07)">
      <defs>
       <path id="DejaVuSans-394" d="M 2188 4044 
L 906 525 
L 3472 525 
L 2188 4044 
z
M 50 0 
L 1831 4666 
L 2547 4666 
L 4325 0 
L 50 0 
z
" transform="scale(0.015625)"/>
       <path id="DejaVuSans-20" transform="scale(0.015625)"/>
       <path id="DejaVuSans-42" d="M 1259 2228 
L 1259 519 
L 2272 519 
Q 2781 519 3026 730 
Q 3272 941 3272 1375 
Q 3272 1813 3026 2020 
Q 2781 2228 2272 2228 
L 1259 2228 
z
M 1259 4147 
L 1259 2741 
L 2194 2741 
Q 2656 2741 2882 2914 
Q 3109 3088 3109 3444 
Q 3109 3797 2882 3972 
Q 2656 4147 2194 4147 
L 1259 4147 
z
M 628 4666 
L 2241 4666 
Q 2963 4666 3353 4366 
Q 3744 4066 3744 3513 
Q 3744 3084 3544 2831 
Q 3344 2578 2956 2516 
Q 3422 2416 3680 2098 
Q 3938 1781 3938 1306 
Q 3938 681 3513 340 
Q 3088 0 2303 0 
L 628 0 
L 628 4666 
z
" transform="scale(0.015625)"/>
       <path id="DejaVuSans-4f" d="M 2522 4238 
Q 1834 4238 1429 3725 
Q 1025 3213 1025 2328 
Q 1025 1447 1429 934 
Q 1834 422 2522 422 
Q 3209 422 3611 934 
Q 4013 1447 4013 2328 
Q 4013 3213 3611 3725 
Q 3209 4238 2522 4238 
z
M 2522 4750 
Q 3503 4750 4090 4092 
Q 4678 3434 4678 2328 
Q 4678 1225 4090 567 
Q 3503 -91 2522 -91 
Q 1538 -91 948 565 
Q 359 1222 359 2328 
Q 359 3434 948 4092 
Q 1538 4750 2522 4750 
z
" transform="scale(0.015625)"/>
       <path id="DejaVuSans-4c" d="M 628 4666 
L 1259 4666 
L 1259 531 
L 3531 531 
L 3531 0 
L 628 0 
L 628 4666 
z
" transform="scale(0.015625)"/>
       <path id="DejaVuSans-44" d="M 1259 4147 
L 1259 519 
L 2022 519 
Q 2988 519 3436 956 
Q 3884 1394 3884 2338 
Q 3884 3275 3436 3711 
Q 2988 4147 2022 4147 
L 1259 4147 
z
M 628 4666 
L 1925 4666 
Q 3281 4666 3915 4102 
Q 4550 3538 4550 2338 
Q 4550 1131 3912 565 
Q 3275 0 1925 0 
L 628 0 
L 628 4666 
z
" transform="scale(0.015625)"/>
       <path id="DejaVuSans-25" d="M 4653 2053 
Q 4381 2053 4226 1822 
Q 4072 1591 4072 1178 
Q 4072 772 4226 539 
Q 4381 306 4653 306 
Q 4919 306 5073 539 
Q 5228 772 5228 1178 
Q 5228 1588 5073 1820 
Q 4919 2053 4653 2053 
z
M 4653 2450 
Q 5147 2450 5437 2106 
Q 5728 1763 5728 1178 
Q 5728 594 5436 251 
Q 5144 -91 4653 -91 
Q 4153 -91 3862 251 
Q 3572 594 3572 1178 
Q 3572 1766 3864 2108 
Q 4156 2450 4653 2450 
z
M 1428 4353 
Q 1159 4353 1004 4120 
Q 850 3888 850 3481 
Q 850 3069 1003 2837 
Q 1156 2606 1428 2606 
Q 1700 2606 1854 2837 
Q 2009 3069 2009 3481 
Q 2009 3884 1853 4118 
Q 1697 4353 1428 4353 
z
M 4250 4750 
L 4750 4750 
L 1831 -91 
L 1331 -91 
L 4250 4750 
z
M 1428 4750 
Q 1922 4750 2215 4408 
Q 2509 4066 2509 3481 
Q 2509 2891 2217 2550 
Q 1925 2209 1428 2209 
Q 931 2209 642 2551 
Q 353 2894 353 3481 
Q 353 4063 643 4406 
Q 934 4750 1428 4750 
z
" transform="scale(0.015625)"/>
      </defs>
      <use xlink:href="#DejaVuSans-394" transform="translate(0 0.78125)"/>
      <use xlink:href="#DejaVuSans-20" transform="translate(68.408203 0.78125)"/>
      <use xlink:href="#DejaVuSans-42" transform="translate(100.195312 0.78125)"/>
      <use xlink:href="#DejaVuSans-4f" transform="translate(168.798828 0.78125)"/>
      <use xlink:href="#DejaVuSans-4c" transform="translate(247.509766 0.78125)"/>
      <use xlink:href="#DejaVuSans-44" transform="translate(303.222656 0.78125)"/>
      <use xlink:href="#DejaVuSans-20" transform="translate(380.224609 0.78125)"/>
      <use xlink:href="#DejaVuSans-25" transform="translate(412.011719 0.78125)"/>
     </g>
    </g>
   </g>
   <g id="matplotlib.axis_2">
    <g id="ytick_1">
     <g id="line2d_3">
      <defs>
       <path id="mff401ca2ba" d="M 0 0 
L -3.5 0 
" style="stroke: #000000; stroke-width: 0.8"/>
      </defs>
      <g>
       <use xlink:href="#mff401ca2ba" x="115.055118" y="83.513022" style="stroke: #000000; stroke-width: 0.8"/>
      </g>
     </g>
    </g>
    <g id="ytick_2">
     <g id="line2d_4">
      <g>
       <use xlink:href="#mff401ca2ba" x="115.055118" y="68.249546" style="stroke: #000000; stroke-width: 0.8"/>
      </g>
     </g>
    </g>
    <g id="ytick_3">
     <g id="line2d_5">
      <g>
       <use xlink:href="#mff401ca2ba" x="115.055118" y="52.986069" style="stroke: #000000; stroke-width: 0.8"/>
      </g>
     </g>
    </g>
    <g id="ytick_4">
     <g id="line2d_6">
      <g>
       <use xlink:href="#mff401ca2ba" x="115.055118" y="37.722592" style="stroke: #000000; stroke-width: 0.8"/>
      </g>
     </g>
    </g>
    <g id="ytick_5">
     <g id="line2d_7">
      <g>
       <use xlink:href="#mff401ca2ba" x="115.055118" y="22.459116" style="stroke: #000000; stroke-width: 0.8"/>
      </g>
     </g>
    </g>
    <g id="ytick_6">
     <g id="line2d_8">
      <g>
       <use xlink:href="#mff401ca2ba" x="115.055118" y="7.195639" style="stroke: #000000; stroke-width: 0.8"/>
      </g>
     </g>
    </g>
   </g>
   <g id="line2d_9">
    <path d="M 129.685039 83.513022 
L 129.685039 7.195639 
" clip-path="url(#p57dfe56bfe)" style="fill: none; stroke-dasharray: 5.55,2.4; stroke-dashoffset: 0; stroke: #808080; stroke-width: 1.5"/>
   </g>
   <g id="line2d_10">
    <path d="M 130.072972 83.513022 
L 131.73645 70.793459 
L 130.121859 58.073895 
L 133.439172 45.354331 
L 134.373409 32.634767 
L 142.322933 19.915203 
L 131.839819 7.195639 
" clip-path="url(#p57dfe56bfe)" style="fill: none; stroke: #008000; stroke-width: 1.5; stroke-linecap: square"/>
   </g>
   <g id="line2d_11">
    <defs>
     <path id="m301facc8eb" d="M 1.448099 -0.62333 
L 0.295992 -0.000514 
L 1.448099 0.626413 
L 1.262076 0.940904 
L 0.182939 0.289311 
L 0.182939 1.5 
L -0.182939 1.5 
L -0.182939 0.289311 
L -1.262076 0.940904 
L -1.448099 0.626413 
L -0.294964 -0.000514 
L -1.448099 -0.62333 
L -1.262076 -0.940904 
L -0.182939 -0.289311 
L -0.182939 -1.5 
L 0.182939 -1.5 
L 0.182939 -0.289311 
L 1.262076 -0.940904 
L 1.448099 -0.62333 
z
" style="stroke: #000000"/>
    </defs>
    <g clip-path="url(#p57dfe56bfe)">
     <use xlink:href="#m301facc8eb" x="136.868348" y="45.354331" style="stroke: #000000"/>
     <use xlink:href="#m301facc8eb" x="149.406523" y="19.915203" style="stroke: #000000"/>
    </g>
   </g>
   <g id="line2d_12">
    <path d="M 130.805499 83.513022 
L 135.446283 70.793459 
L 120.513968 58.073895 
L 142.151251 45.354331 
L 157.084832 32.634767 
L 171.07874 25.583816 
M 171.07874 18.101166 
L 103.444151 7.195639 
" clip-path="url(#p57dfe56bfe)" style="fill: none; stroke: #008000; stroke-opacity: 0.3; stroke-width: 1.5; stroke-linecap: square"/>
   </g>
   <g id="line2d_13">
    <path d="M 141.621038 83.513022 
L 131.127578 70.793459 
L 137.596837 58.073895 
L 130.164374 45.354331 
L 135.441303 32.634767 
L 142.16278 19.915203 
L 143.664558 7.195639 
" clip-path="url(#p57dfe56bfe)" style="fill: none; stroke: #008000; stroke-opacity: 0.3; stroke-width: 1.5; stroke-linecap: square"/>
   </g>
   <g id="line2d_14">
    <path d="M 127.111884 83.513022 
L 130.024196 70.793459 
L 127.042779 58.073895 
L 129.392687 45.354331 
L 128.165295 32.634767 
L 133.551619 19.915203 
L 131.835963 7.195639 
" clip-path="url(#p57dfe56bfe)" style="fill: none; stroke: #008000; stroke-opacity: 0.3; stroke-width: 1.5; stroke-linecap: square"/>
   </g>
   <g id="line2d_15">
    <path d="M 136.164157 83.513022 
L 130.587939 70.793459 
L 135.518989 58.073895 
L 131.100398 45.354331 
L 137.973756 32.634767 
L 150.96431 19.915203 
L 134.674641 7.195639 
" clip-path="url(#p57dfe56bfe)" style="fill: none; stroke: #008000; stroke-opacity: 0.3; stroke-width: 1.5; stroke-linecap: square"/>
   </g>
   <g id="line2d_16">
    <path d="M 131.579491 83.513022 
L 137.067092 70.793459 
L 123.662316 58.073895 
L 132.230965 45.354331 
L 134.327071 32.634767 
L 131.869419 19.915203 
L 134.470422 7.195639 
" clip-path="url(#p57dfe56bfe)" style="fill: none; stroke: #008000; stroke-opacity: 0.3; stroke-width: 1.5; stroke-linecap: square"/>
   </g>
   <g id="line2d_17">
    <path d="M 124.832259 83.513022 
L 127.954989 70.793459 
L 126.076423 58.073895 
L 129.724535 45.354331 
L 128.395401 32.634767 
L 134.747758 19.915203 
L 126.153583 7.195639 
" clip-path="url(#p57dfe56bfe)" style="fill: none; stroke: #008000; stroke-opacity: 0.3; stroke-width: 1.5; stroke-linecap: square"/>
   </g>
   <g id="line2d_18">
    <path d="M 133.47073 83.513022 
L 131.511799 70.793459 
L 134.395007 58.073895 
L 142.690961 45.354331 
L 128.89932 32.634767 
L 154.470708 19.915203 
L 141.131852 7.195639 
" clip-path="url(#p57dfe56bfe)" style="fill: none; stroke: #008000; stroke-opacity: 0.3; stroke-width: 1.5; stroke-linecap: square"/>
   </g>
   <g id="line2d_19">
    <path d="M 127.691434 83.513022 
L 133.165025 70.793459 
L 134.652439 58.073895 
L 131.913545 45.354331 
L 130.540515 32.634767 
L 135.176413 19.915203 
L 132.208723 7.195639 
" clip-path="url(#p57dfe56bfe)" style="fill: none; stroke: #008000; stroke-opacity: 0.3; stroke-width: 1.5; stroke-linecap: square"/>
   </g>
   <g id="line2d_20">
    <path d="M 130.503726 83.513022 
L 135.202722 70.793459 
L 137.303846 58.073895 
L 133.36396 45.354331 
L 138.733153 32.634767 
L 140.637642 19.915203 
L 135.646254 7.195639 
" clip-path="url(#p57dfe56bfe)" style="fill: none; stroke: #008000; stroke-opacity: 0.3; stroke-width: 1.5; stroke-linecap: square"/>
   </g>
   <g id="line2d_21">
    <path d="M 130.237751 83.513022 
L 122.364088 70.793459 
L 133.854142 58.073895 
L 134.741851 45.354331 
L 127.562114 32.634767 
L 128.727899 19.915203 
L 132.437115 7.195639 
" clip-path="url(#p57dfe56bfe)" style="fill: none; stroke: #008000; stroke-opacity: 0.3; stroke-width: 1.5; stroke-linecap: square"/>
   </g>
   <g id="line2d_22">
    <path d="M 120.799344 83.513022 
L 126.908469 70.793459 
L 129.809678 58.073895 
L 129.380265 45.354331 
L 125.875894 32.634767 
L 136.735208 19.915203 
L 136.78914 7.195639 
" clip-path="url(#p57dfe56bfe)" style="fill: none; stroke: #008000; stroke-opacity: 0.3; stroke-width: 1.5; stroke-linecap: square"/>
   </g>
   <g id="line2d_23">
    <path d="M 126.058346 83.513022 
L 139.477226 70.793459 
L 121.035879 58.073895 
L 134.415271 45.354331 
L 139.482258 32.634767 
L 136.5023 19.915203 
L 129.621428 7.195639 
" clip-path="url(#p57dfe56bfe)" style="fill: none; stroke: #008000; stroke-opacity: 0.3; stroke-width: 1.5; stroke-linecap: square"/>
   </g>
   <g id="patch_3">
    <path d="M 115.055118 85.03937 
L 115.055118 5.669291 
" style="fill: none; stroke: #000000; stroke-width: 0.8; stroke-linejoin: miter; stroke-linecap: square"/>
   </g>
   <g id="patch_4">
    <path d="M 119.055118 89.03937 
L 161.574803 89.03937 
" style="fill: none; stroke: #000000; stroke-width: 0.8; stroke-linejoin: miter; stroke-linecap: square"/>
   </g>
   <g id="text_4">
    <!-- odss -->
    <g style="fill: #008000" transform="translate(150.059055 79.697153) scale(0.06 -0.06)">
     <defs>
      <path id="DejaVuSans-6f" d="M 1959 3097 
Q 1497 3097 1228 2736 
Q 959 2375 959 1747 
Q 959 1119 1226 758 
Q 1494 397 1959 397 
Q 2419 397 2687 759 
Q 2956 1122 2956 1747 
Q 2956 2369 2687 2733 
Q 2419 3097 1959 3097 
z
M 1959 3584 
Q 2709 3584 3137 3096 
Q 3566 2609 3566 1747 
Q 3566 888 3137 398 
Q 2709 -91 1959 -91 
Q 1206 -91 779 398 
Q 353 888 353 1747 
Q 353 2609 779 3096 
Q 1206 3584 1959 3584 
z
" transform="scale(0.015625)"/>
      <path id="DejaVuSans-64" d="M 2906 2969 
L 2906 4863 
L 3481 4863 
L 3481 0 
L 2906 0 
L 2906 525 
Q 2725 213 2448 61 
Q 2172 -91 1784 -91 
Q 1150 -91 751 415 
Q 353 922 353 1747 
Q 353 2572 751 3078 
Q 1150 3584 1784 3584 
Q 2172 3584 2448 3432 
Q 2725 3281 2906 2969 
z
M 947 1747 
Q 947 1113 1208 752 
Q 1469 391 1925 391 
Q 2381 391 2643 752 
Q 2906 1113 2906 1747 
Q 2906 2381 2643 2742 
Q 2381 3103 1925 3103 
Q 1469 3103 1208 2742 
Q 947 2381 947 1747 
z
" transform="scale(0.015625)"/>
      <path id="DejaVuSans-73" d="M 2834 3397 
L 2834 2853 
Q 2591 2978 2328 3040 
Q 2066 3103 1784 3103 
Q 1356 3103 1142 2972 
Q 928 2841 928 2578 
Q 928 2378 1081 2264 
Q 1234 2150 1697 2047 
L 1894 2003 
Q 2506 1872 2764 1633 
Q 3022 1394 3022 966 
Q 3022 478 2636 193 
Q 2250 -91 1575 -91 
Q 1294 -91 989 -36 
Q 684 19 347 128 
L 347 722 
Q 666 556 975 473 
Q 1284 391 1588 391 
Q 1994 391 2212 530 
Q 2431 669 2431 922 
Q 2431 1156 2273 1281 
Q 2116 1406 1581 1522 
L 1381 1569 
Q 847 1681 609 1914 
Q 372 2147 372 2553 
Q 372 3047 722 3315 
Q 1072 3584 1716 3584 
Q 2034 3584 2315 3537 
Q 2597 3491 2834 3397 
z
" transform="scale(0.015625)"/>
     </defs>
     <use xlink:href="#DejaVuSans-6f"/>
     <use xlink:href="#DejaVuSans-64" x="61.181641"/>
     <use xlink:href="#DejaVuSans-73" x="124.658203"/>
     <use xlink:href="#DejaVuSans-73" x="176.757812"/>
    </g>
   </g>
  </g>
 </g>
 <defs>
  <clipPath id="p57dfe56bfe">
   <rect x="119.055118" y="5.669291" width="42.519685" height="79.370079"/>
  </clipPath>
 </defs>
</svg>
