<?xml version="1.0" encoding="utf-8" standalone="no"?>
<!DOCTYPE svg PUBLIC "-//W3C//DTD SVG 1.1//EN"
  "http://www.w3.org/Graphics/SVG/1.1/DTD/svg11.dtd">
<svg xmlns:xlink="http://www.w3.org/1999/xlink" width="432pt" height="432pt" viewBox="0 0 432 432" xmlns="http://www.w3.org/2000/svg" version="1.1">
 <metadata>
  <rdf:RDF xmlns:dc="http://purl.org/dc/elements/1.1/" xmlns:cc="http://creativecommons.org/ns#" xmlns:rdf="http://www.w3.org/1999/02/22-rdf-syntax-ns#">
   <cc:Work>
    <dc:type rdf:resource="http://purl.org/dc/dcmitype/StillImage"/>
    <dc:date>2026-05-29T13:02:58.536952</dc:date>
    <dc:format>image/svg+xml</dc:format>
    <dc:creator>
     <cc:Agent>
      <dc:title>Matplotlib v3.8.0, https://matplotlib.org/</dc:title>
     </cc:Agent>
    </dc:creator>
   </cc:Work>
  </rdf:RDF>
 </metadata>
 <defs>
  <style type="text/css">*{stroke-linejoin: round; stroke-linecap: butt}</style>
 </defs>
 <g id="figure_1">
  <g id="patch_1">
   <path d="M 0 432 
L 432 432 
L 432 0 
L 0 0 
z
" style="fill: #ffffff"/>
  </g>
  <g id="axes_1">
   <g id="patch_2">
    <path d="M 38.27 374.02776 
L 421.2 374.02776 
L 421.2 47.04 
L 38.27 47.04 
z
" style="fill: #ffffff"/>
   </g>
   <g id="matplotlib.axis_1">
    <g id="xtick_1">
     <g id="line2d_1">
      <defs>
       <path id="m9406968222" d="M 0 0 
L 0 3.5 
" style="stroke: #000000; stroke-width: 0.8"/>
      </defs>
      <g>
       <use xlink:href="#m9406968222" x="86.13625" y="374.02776" style="stroke: #000000; stroke-width: 0.8"/>
      </g>
     </g>
     <g id="text_1">
      <!-- sur -->
      <g transform="translate(73.593943 397.472412) rotate(-45) scale(0.1 -0.1)">
       <defs>
        <path id="DejaVuSans-73" d="M 2834 3397 
L 2834 2853 
Q 2591 2978 2328 3040 
Q 2066 3103 1784 3103 
Q 1356 3103 1142 2972 
Q 928 2841 928 2578 
Q 928 2378 1081 2264 
Q 1234 2150 1697 2047 
L 1894 2003 
Q 2506 1872 2764 1633 
Q 3022 1394 3022 966 
Q 3022 478 2636 193 
Q 2250 -91 1575 -91 
Q 1294 -91 989 -36 
Q 684 19 347 128 
L 347 722 
Q 666 556 975 473 
Q 1284 391 1588 391 
Q 1994 391 2212 530 
Q 2431 669 2431 922 
Q 2431 1156 2273 1281 
Q 2116 1406 1581 1522 
L 1381 1569 
Q 847 1681 609 1914 
Q 372 2147 372 2553 
Q 372 3047 722 3315 
Q 1072 3584 1716 3584 
Q 2034 3584 2315 3537 
Q 2597 3491 2834 3397 
z
" transform="scale(0.015625)"/>
        <path id="DejaVuSans-75" d="M 544 1381 
L 544 3500 
L 1119 3500 
L 1119 1403 
Q 1119 906 1312 657 
Q 1506 409 1894 409 
Q 2359 409 2629 706 
Q 2900 1003 2900 1516 
L 2900 3500 
L 3475 3500 
L 3475 0 
L 2900 0 
L 2900 538 
Q 2691 219 2414 64 
Q 2138 -91 1772 -91 
Q 1169 -91 856 284 
Q 544 659 544 1381 
z
M 1991 3584 
L 1991 3584 
z
" transform="scale(0.015625)"/>
        <path id="DejaVuSans-72" d="M 2631 2963 
Q 2534 3019 2420 3045 
Q 2306 3072 2169 3072 
Q 1681 3072 1420 2755 
Q 1159 2438 1159 1844 
L 1159 0 
L 581 0 
L 581 3500 
L 1159 3500 
L 1159 2956 
Q 1341 3275 1631 3429 
Q 1922 3584 2338 3584 
Q 2397 3584 2469 3576 
Q 2541 3569 2628 3553 
L 2631 2963 
z
" transform="scale(0.015625)"/>
       </defs>
       <use xlink:href="#DejaVuSans-73"/>
       <use xlink:href="#DejaVuSans-75" x="52.099609"/>
       <use xlink:href="#DejaVuSans-72" x="115.478516"/>
      </g>
     </g>
    </g>
    <g id="xtick_2">
     <g id="line2d_2">
      <g>
       <use xlink:href="#m9406968222" x="181.86875" y="374.02776" style="stroke: #000000; stroke-width: 0.8"/>
      </g>
     </g>
     <g id="text_2">
      <!-- iso90 -->
      <g transform="translate(161.42563 405.373225) rotate(-45) scale(0.1 -0.1)">
       <defs>
        <path id="DejaVuSans-69" d="M 603 3500 
L 1178 3500 
L 1178 0 
L 603 0 
L 603 3500 
z
M 603 4863 
L 1178 4863 
L 1178 4134 
L 603 4134 
L 603 4863 
z
" transform="scale(0.015625)"/>
        <path id="DejaVuSans-6f" d="M 1959 3097 
Q 1497 3097 1228 2736 
Q 959 2375 959 1747 
Q 959 1119 1226 758 
Q 1494 397 1959 397 
Q 2419 397 2687 759 
Q 2956 1122 2956 1747 
Q 2956 2369 2687 2733 
Q 2419 3097 1959 3097 
z
M 1959 3584 
Q 2709 3584 3137 3096 
Q 3566 2609 3566 1747 
Q 3566 888 3137 398 
Q 2709 -91 1959 -91 
Q 1206 -91 779 398 
Q 353 888 353 1747 
Q 353 2609 779 3096 
Q 1206 3584 1959 3584 
z
" transform="scale(0.015625)"/>
        <path id="DejaVuSans-39" d="M 703 97 
L 703 672 
Q 941 559 1184 500 
Q 1428 441 1663 441 
Q 2288 441 2617 861 
Q 2947 1281 2994 2138 
Q 2813 1869 2534 1725 
Q 2256 1581 1919 1581 
Q 1219 1581 811 2004 
Q 403 2428 403 3163 
Q 403 3881 828 4315 
Q 1253 4750 1959 4750 
Q 2769 4750 3195 4129 
Q 3622 3509 3622 2328 
Q 3622 1225 3098 567 
Q 2575 -91 1691 -91 
Q 1453 -91 1209 -44 
Q 966 3 703 97 
z
M 1959 2075 
Q 2384 2075 2632 2365 
Q 2881 2656 2881 3163 
Q 2881 3666 2632 3958 
Q 2384 4250 1959 4250 
Q 1534 4250 1286 3958 
Q 1038 3666 1038 3163 
Q 1038 2656 1286 2365 
Q 1534 2075 1959 2075 
z
" transform="scale(0.015625)"/>
        <path id="DejaVuSans-30" d="M 2034 4250 
Q 1547 4250 1301 3770 
Q 1056 3291 1056 2328 
Q 1056 1369 1301 889 
Q 1547 409 2034 409 
Q 2525 409 2770 889 
Q 3016 1369 3016 2328 
Q 3016 3291 2770 3770 
Q 2525 4250 2034 4250 
z
M 2034 4750 
Q 2819 4750 3233 4129 
Q 3647 3509 3647 2328 
Q 3647 1150 3233 529 
Q 2819 -91 2034 -91 
Q 1250 -91 836 529 
Q 422 1150 422 2328 
Q 422 3509 836 4129 
Q 1250 4750 2034 4750 
z
" transform="scale(0.015625)"/>
       </defs>
       <use xlink:href="#DejaVuSans-69"/>
       <use xlink:href="#DejaVuSans-73" x="27.783203"/>
       <use xlink:href="#DejaVuSans-6f" x="79.882812"/>
       <use xlink:href="#DejaVuSans-39" x="141.064453"/>
       <use xlink:href="#DejaVuSans-30" x="204.6875"/>
      </g>
     </g>
    </g>
    <g id="xtick_3">
     <g id="line2d_3">
      <g>
       <use xlink:href="#m9406968222" x="277.60125" y="374.02776" style="stroke: #000000; stroke-width: 0.8"/>
      </g>
     </g>
     <g id="text_3">
      <!-- orth -->
      <g transform="translate(261.643839 400.887517) rotate(-45) scale(0.1 -0.1)">
       <defs>
        <path id="DejaVuSans-74" d="M 1172 4494 
L 1172 3500 
L 2356 3500 
L 2356 3053 
L 1172 3053 
L 1172 1153 
Q 1172 725 1289 603 
Q 1406 481 1766 481 
L 2356 481 
L 2356 0 
L 1766 0 
Q 1100 0 847 248 
Q 594 497 594 1153 
L 594 3053 
L 172 3053 
L 172 3500 
L 594 3500 
L 594 4494 
L 1172 4494 
z
" transform="scale(0.015625)"/>
        <path id="DejaVuSans-68" d="M 3513 2113 
L 3513 0 
L 2938 0 
L 2938 2094 
Q 2938 2591 2744 2837 
Q 2550 3084 2163 3084 
Q 1697 3084 1428 2787 
Q 1159 2491 1159 1978 
L 1159 0 
L 581 0 
L 581 4863 
L 1159 4863 
L 1159 2956 
Q 1366 3272 1645 3428 
Q 1925 3584 2291 3584 
Q 2894 3584 3203 3211 
Q 3513 2838 3513 2113 
z
" transform="scale(0.015625)"/>
       </defs>
       <use xlink:href="#DejaVuSans-6f"/>
       <use xlink:href="#DejaVuSans-72" x="61.181641"/>
       <use xlink:href="#DejaVuSans-74" x="102.294922"/>
       <use xlink:href="#DejaVuSans-68" x="141.503906"/>
      </g>
     </g>
    </g>
    <g id="xtick_4">
     <g id="line2d_4">
      <g>
       <use xlink:href="#m9406968222" x="373.33375" y="374.02776" style="stroke: #000000; stroke-width: 0.8"/>
      </g>
     </g>
     <g id="text_4">
      <!-- iso0 -->
      <g transform="translate(357.389597 400.874258) rotate(-45) scale(0.1 -0.1)">
       <use xlink:href="#DejaVuSans-69"/>
       <use xlink:href="#DejaVuSans-73" x="27.783203"/>
       <use xlink:href="#DejaVuSans-6f" x="79.882812"/>
       <use xlink:href="#DejaVuSans-30" x="141.064453"/>
      </g>
     </g>
    </g>
    <g id="text_5">
     <!-- condition -->
     <g transform="translate(206.617031 418.442224) scale(0.1 -0.1)">
      <defs>
       <path id="DejaVuSans-63" d="M 3122 3366 
L 3122 2828 
Q 2878 2963 2633 3030 
Q 2388 3097 2138 3097 
Q 1578 3097 1268 2742 
Q 959 2388 959 1747 
Q 959 1106 1268 751 
Q 1578 397 2138 397 
Q 2388 397 2633 464 
Q 2878 531 3122 666 
L 3122 134 
Q 2881 22 2623 -34 
Q 2366 -91 2075 -91 
Q 1284 -91 818 406 
Q 353 903 353 1747 
Q 353 2603 823 3093 
Q 1294 3584 2113 3584 
Q 2378 3584 2631 3529 
Q 2884 3475 3122 3366 
z
" transform="scale(0.015625)"/>
       <path id="DejaVuSans-6e" d="M 3513 2113 
L 3513 0 
L 2938 0 
L 2938 2094 
Q 2938 2591 2744 2837 
Q 2550 3084 2163 3084 
Q 1697 3084 1428 2787 
Q 1159 2491 1159 1978 
L 1159 0 
L 581 0 
L 581 3500 
L 1159 3500 
L 1159 2956 
Q 1366 3272 1645 3428 
Q 1925 3584 2291 3584 
Q 2894 3584 3203 3211 
Q 3513 2838 3513 2113 
z
" transform="scale(0.015625)"/>
       <path id="DejaVuSans-64" d="M 2906 2969 
L 2906 4863 
L 3481 4863 
L 3481 0 
L 2906 0 
L 2906 525 
Q 2725 213 2448 61 
Q 2172 -91 1784 -91 
Q 1150 -91 751 415 
Q 353 922 353 1747 
Q 353 2572 751 3078 
Q 1150 3584 1784 3584 
Q 2172 3584 2448 3432 
Q 2725 3281 2906 2969 
z
M 947 1747 
Q 947 1113 1208 752 
Q 1469 391 1925 391 
Q 2381 391 2643 752 
Q 2906 1113 2906 1747 
Q 2906 2381 2643 2742 
Q 2381 3103 1925 3103 
Q 1469 3103 1208 2742 
Q 947 2381 947 1747 
z
" transform="scale(0.015625)"/>
      </defs>
      <use xlink:href="#DejaVuSans-63"/>
      <use xlink:href="#DejaVuSans-6f" x="54.980469"/>
      <use xlink:href="#DejaVuSans-6e" x="116.162109"/>
      <use xlink:href="#DejaVuSans-64" x="179.541016"/>
      <use xlink:href="#DejaVuSans-69" x="243.017578"/>
      <use xlink:href="#DejaVuSans-74" x="270.800781"/>
      <use xlink:href="#DejaVuSans-69" x="310.009766"/>
      <use xlink:href="#DejaVuSans-6f" x="337.792969"/>
      <use xlink:href="#DejaVuSans-6e" x="398.974609"/>
     </g>
    </g>
   </g>
   <g id="matplotlib.axis_2">
    <g id="ytick_1">
     <g id="line2d_5">
      <defs>
       <path id="m003347884f" d="M 0 0 
L -3.5 0 
" style="stroke: #000000; stroke-width: 0.8"/>
      </defs>
      <g>
       <use xlink:href="#m003347884f" x="38.27" y="346.035374" style="stroke: #000000; stroke-width: 0.8"/>
      </g>
     </g>
     <g id="text_6">
      <!-- 2 -->
      <g transform="translate(24.9075 349.834592) scale(0.1 -0.1)">
       <defs>
        <path id="DejaVuSans-32" d="M 1228 531 
L 3431 531 
L 3431 0 
L 469 0 
L 469 531 
Q 828 903 1448 1529 
Q 2069 2156 2228 2338 
Q 2531 2678 2651 2914 
Q 2772 3150 2772 3378 
Q 2772 3750 2511 3984 
Q 2250 4219 1831 4219 
Q 1534 4219 1204 4116 
Q 875 4013 500 3803 
L 500 4441 
Q 881 4594 1212 4672 
Q 1544 4750 1819 4750 
Q 2544 4750 2975 4387 
Q 3406 4025 3406 3419 
Q 3406 3131 3298 2873 
Q 3191 2616 2906 2266 
Q 2828 2175 2409 1742 
Q 1991 1309 1228 531 
z
" transform="scale(0.015625)"/>
       </defs>
       <use xlink:href="#DejaVuSans-32"/>
      </g>
     </g>
    </g>
    <g id="ytick_2">
     <g id="line2d_6">
      <g>
       <use xlink:href="#m003347884f" x="38.27" y="301.886155" style="stroke: #000000; stroke-width: 0.8"/>
      </g>
     </g>
     <g id="text_7">
      <!-- 3 -->
      <g transform="translate(24.9075 305.685373) scale(0.1 -0.1)">
       <defs>
        <path id="DejaVuSans-33" d="M 2597 2516 
Q 3050 2419 3304 2112 
Q 3559 1806 3559 1356 
Q 3559 666 3084 287 
Q 2609 -91 1734 -91 
Q 1441 -91 1130 -33 
Q 819 25 488 141 
L 488 750 
Q 750 597 1062 519 
Q 1375 441 1716 441 
Q 2309 441 2620 675 
Q 2931 909 2931 1356 
Q 2931 1769 2642 2001 
Q 2353 2234 1838 2234 
L 1294 2234 
L 1294 2753 
L 1863 2753 
Q 2328 2753 2575 2939 
Q 2822 3125 2822 3475 
Q 2822 3834 2567 4026 
Q 2313 4219 1838 4219 
Q 1578 4219 1281 4162 
Q 984 4106 628 3988 
L 628 4550 
Q 988 4650 1302 4700 
Q 1616 4750 1894 4750 
Q 2613 4750 3031 4423 
Q 3450 4097 3450 3541 
Q 3450 3153 3228 2886 
Q 3006 2619 2597 2516 
z
" transform="scale(0.015625)"/>
       </defs>
       <use xlink:href="#DejaVuSans-33"/>
      </g>
     </g>
    </g>
    <g id="ytick_3">
     <g id="line2d_7">
      <g>
       <use xlink:href="#m003347884f" x="38.27" y="257.736936" style="stroke: #000000; stroke-width: 0.8"/>
      </g>
     </g>
     <g id="text_8">
      <!-- 4 -->
      <g transform="translate(24.9075 261.536154) scale(0.1 -0.1)">
       <defs>
        <path id="DejaVuSans-34" d="M 2419 4116 
L 825 1625 
L 2419 1625 
L 2419 4116 
z
M 2253 4666 
L 3047 4666 
L 3047 1625 
L 3713 1625 
L 3713 1100 
L 3047 1100 
L 3047 0 
L 2419 0 
L 2419 1100 
L 313 1100 
L 313 1709 
L 2253 4666 
z
" transform="scale(0.015625)"/>
       </defs>
       <use xlink:href="#DejaVuSans-34"/>
      </g>
     </g>
    </g>
    <g id="ytick_4">
     <g id="line2d_8">
      <g>
       <use xlink:href="#m003347884f" x="38.27" y="213.587716" style="stroke: #000000; stroke-width: 0.8"/>
      </g>
     </g>
     <g id="text_9">
      <!-- 5 -->
      <g transform="translate(24.9075 217.386935) scale(0.1 -0.1)">
       <defs>
        <path id="DejaVuSans-35" d="M 691 4666 
L 3169 4666 
L 3169 4134 
L 1269 4134 
L 1269 2991 
Q 1406 3038 1543 3061 
Q 1681 3084 1819 3084 
Q 2600 3084 3056 2656 
Q 3513 2228 3513 1497 
Q 3513 744 3044 326 
Q 2575 -91 1722 -91 
Q 1428 -91 1123 -41 
Q 819 9 494 109 
L 494 744 
Q 775 591 1075 516 
Q 1375 441 1709 441 
Q 2250 441 2565 725 
Q 2881 1009 2881 1497 
Q 2881 1984 2565 2268 
Q 2250 2553 1709 2553 
Q 1456 2553 1204 2497 
Q 953 2441 691 2322 
L 691 4666 
z
" transform="scale(0.015625)"/>
       </defs>
       <use xlink:href="#DejaVuSans-35"/>
      </g>
     </g>
    </g>
    <g id="ytick_5">
     <g id="line2d_9">
      <g>
       <use xlink:href="#m003347884f" x="38.27" y="169.438497" style="stroke: #000000; stroke-width: 0.8"/>
      </g>
     </g>
     <g id="text_10">
      <!-- 6 -->
      <g transform="translate(24.9075 173.237716) scale(0.1 -0.1)">
       <defs>
        <path id="DejaVuSans-36" d="M 2113 2584 
Q 1688 2584 1439 2293 
Q 1191 2003 1191 1497 
Q 1191 994 1439 701 
Q 1688 409 2113 409 
Q 2538 409 2786 701 
Q 3034 994 3034 1497 
Q 3034 2003 2786 2293 
Q 2538 2584 2113 2584 
z
M 3366 4563 
L 3366 3988 
Q 3128 4100 2886 4159 
Q 2644 4219 2406 4219 
Q 1781 4219 1451 3797 
Q 1122 3375 1075 2522 
Q 1259 2794 1537 2939 
Q 1816 3084 2150 3084 
Q 2853 3084 3261 2657 
Q 3669 2231 3669 1497 
Q 3669 778 3244 343 
Q 2819 -91 2113 -91 
Q 1303 -91 875 529 
Q 447 1150 447 2328 
Q 447 3434 972 4092 
Q 1497 4750 2381 4750 
Q 2619 4750 2861 4703 
Q 3103 4656 3366 4563 
z
" transform="scale(0.015625)"/>
       </defs>
       <use xlink:href="#DejaVuSans-36"/>
      </g>
     </g>
    </g>
    <g id="ytick_6">
     <g id="line2d_10">
      <g>
       <use xlink:href="#m003347884f" x="38.27" y="125.289278" style="stroke: #000000; stroke-width: 0.8"/>
      </g>
     </g>
     <g id="text_11">
      <!-- 7 -->
      <g transform="translate(24.9075 129.088497) scale(0.1 -0.1)">
       <defs>
        <path id="DejaVuSans-37" d="M 525 4666 
L 3525 4666 
L 3525 4397 
L 1831 0 
L 1172 0 
L 2766 4134 
L 525 4134 
L 525 4666 
z
" transform="scale(0.015625)"/>
       </defs>
       <use xlink:href="#DejaVuSans-37"/>
      </g>
     </g>
    </g>
    <g id="ytick_7">
     <g id="line2d_11">
      <g>
       <use xlink:href="#m003347884f" x="38.27" y="81.140059" style="stroke: #000000; stroke-width: 0.8"/>
      </g>
     </g>
     <g id="text_12">
      <!-- 8 -->
      <g transform="translate(24.9075 84.939278) scale(0.1 -0.1)">
       <defs>
        <path id="DejaVuSans-38" d="M 2034 2216 
Q 1584 2216 1326 1975 
Q 1069 1734 1069 1313 
Q 1069 891 1326 650 
Q 1584 409 2034 409 
Q 2484 409 2743 651 
Q 3003 894 3003 1313 
Q 3003 1734 2745 1975 
Q 2488 2216 2034 2216 
z
M 1403 2484 
Q 997 2584 770 2862 
Q 544 3141 544 3541 
Q 544 4100 942 4425 
Q 1341 4750 2034 4750 
Q 2731 4750 3128 4425 
Q 3525 4100 3525 3541 
Q 3525 3141 3298 2862 
Q 3072 2584 2669 2484 
Q 3125 2378 3379 2068 
Q 3634 1759 3634 1313 
Q 3634 634 3220 271 
Q 2806 -91 2034 -91 
Q 1263 -91 848 271 
Q 434 634 434 1313 
Q 434 1759 690 2068 
Q 947 2378 1403 2484 
z
M 1172 3481 
Q 1172 3119 1398 2916 
Q 1625 2713 2034 2713 
Q 2441 2713 2670 2916 
Q 2900 3119 2900 3481 
Q 2900 3844 2670 4047 
Q 2441 4250 2034 4250 
Q 1625 4250 1398 4047 
Q 1172 3844 1172 3481 
z
" transform="scale(0.015625)"/>
       </defs>
       <use xlink:href="#DejaVuSans-38"/>
      </g>
     </g>
    </g>
    <g id="text_13">
     <!-- Average % BOLD Change -->
     <g transform="translate(18.827813 273.643255) rotate(-90) scale(0.1 -0.1)">
      <defs>
       <path id="DejaVuSans-41" d="M 2188 4044 
L 1331 1722 
L 3047 1722 
L 2188 4044 
z
M 1831 4666 
L 2547 4666 
L 4325 0 
L 3669 0 
L 3244 1197 
L 1141 1197 
L 716 0 
L 50 0 
L 1831 4666 
z
" transform="scale(0.015625)"/>
       <path id="DejaVuSans-76" d="M 191 3500 
L 800 3500 
L 1894 563 
L 2988 3500 
L 3597 3500 
L 2284 0 
L 1503 0 
L 191 3500 
z
" transform="scale(0.015625)"/>
       <path id="DejaVuSans-65" d="M 3597 1894 
L 3597 1613 
L 953 1613 
Q 991 1019 1311 708 
Q 1631 397 2203 397 
Q 2534 397 2845 478 
Q 3156 559 3463 722 
L 3463 178 
Q 3153 47 2828 -22 
Q 2503 -91 2169 -91 
Q 1331 -91 842 396 
Q 353 884 353 1716 
Q 353 2575 817 3079 
Q 1281 3584 2069 3584 
Q 2775 3584 3186 3129 
Q 3597 2675 3597 1894 
z
M 3022 2063 
Q 3016 2534 2758 2815 
Q 2500 3097 2075 3097 
Q 1594 3097 1305 2825 
Q 1016 2553 972 2059 
L 3022 2063 
z
" transform="scale(0.015625)"/>
       <path id="DejaVuSans-61" d="M 2194 1759 
Q 1497 1759 1228 1600 
Q 959 1441 959 1056 
Q 959 750 1161 570 
Q 1363 391 1709 391 
Q 2188 391 2477 730 
Q 2766 1069 2766 1631 
L 2766 1759 
L 2194 1759 
z
M 3341 1997 
L 3341 0 
L 2766 0 
L 2766 531 
Q 2569 213 2275 61 
Q 1981 -91 1556 -91 
Q 1019 -91 701 211 
Q 384 513 384 1019 
Q 384 1609 779 1909 
Q 1175 2209 1959 2209 
L 2766 2209 
L 2766 2266 
Q 2766 2663 2505 2880 
Q 2244 3097 1772 3097 
Q 1472 3097 1187 3025 
Q 903 2953 641 2809 
L 641 3341 
Q 956 3463 1253 3523 
Q 1550 3584 1831 3584 
Q 2591 3584 2966 3190 
Q 3341 2797 3341 1997 
z
" transform="scale(0.015625)"/>
       <path id="DejaVuSans-67" d="M 2906 1791 
Q 2906 2416 2648 2759 
Q 2391 3103 1925 3103 
Q 1463 3103 1205 2759 
Q 947 2416 947 1791 
Q 947 1169 1205 825 
Q 1463 481 1925 481 
Q 2391 481 2648 825 
Q 2906 1169 2906 1791 
z
M 3481 434 
Q 3481 -459 3084 -895 
Q 2688 -1331 1869 -1331 
Q 1566 -1331 1297 -1286 
Q 1028 -1241 775 -1147 
L 775 -588 
Q 1028 -725 1275 -790 
Q 1522 -856 1778 -856 
Q 2344 -856 2625 -561 
Q 2906 -266 2906 331 
L 2906 616 
Q 2728 306 2450 153 
Q 2172 0 1784 0 
Q 1141 0 747 490 
Q 353 981 353 1791 
Q 353 2603 747 3093 
Q 1141 3584 1784 3584 
Q 2172 3584 2450 3431 
Q 2728 3278 2906 2969 
L 2906 3500 
L 3481 3500 
L 3481 434 
z
" transform="scale(0.015625)"/>
       <path id="DejaVuSans-20" transform="scale(0.015625)"/>
       <path id="DejaVuSans-25" d="M 4653 2053 
Q 4381 2053 4226 1822 
Q 4072 1591 4072 1178 
Q 4072 772 4226 539 
Q 4381 306 4653 306 
Q 4919 306 5073 539 
Q 5228 772 5228 1178 
Q 5228 1588 5073 1820 
Q 4919 2053 4653 2053 
z
M 4653 2450 
Q 5147 2450 5437 2106 
Q 5728 1763 5728 1178 
Q 5728 594 5436 251 
Q 5144 -91 4653 -91 
Q 4153 -91 3862 251 
Q 3572 594 3572 1178 
Q 3572 1766 3864 2108 
Q 4156 2450 4653 2450 
z
M 1428 4353 
Q 1159 4353 1004 4120 
Q 850 3888 850 3481 
Q 850 3069 1003 2837 
Q 1156 2606 1428 2606 
Q 1700 2606 1854 2837 
Q 2009 3069 2009 3481 
Q 2009 3884 1853 4118 
Q 1697 4353 1428 4353 
z
M 4250 4750 
L 4750 4750 
L 1831 -91 
L 1331 -91 
L 4250 4750 
z
M 1428 4750 
Q 1922 4750 2215 4408 
Q 2509 4066 2509 3481 
Q 2509 2891 2217 2550 
Q 1925 2209 1428 2209 
Q 931 2209 642 2551 
Q 353 2894 353 3481 
Q 353 4063 643 4406 
Q 934 4750 1428 4750 
z
" transform="scale(0.015625)"/>
       <path id="DejaVuSans-42" d="M 1259 2228 
L 1259 519 
L 2272 519 
Q 2781 519 3026 730 
Q 3272 941 3272 1375 
Q 3272 1813 3026 2020 
Q 2781 2228 2272 2228 
L 1259 2228 
z
M 1259 4147 
L 1259 2741 
L 2194 2741 
Q 2656 2741 2882 2914 
Q 3109 3088 3109 3444 
Q 3109 3797 2882 3972 
Q 2656 4147 2194 4147 
L 1259 4147 
z
M 628 4666 
L 2241 4666 
Q 2963 4666 3353 4366 
Q 3744 4066 3744 3513 
Q 3744 3084 3544 2831 
Q 3344 2578 2956 2516 
Q 3422 2416 3680 2098 
Q 3938 1781 3938 1306 
Q 3938 681 3513 340 
Q 3088 0 2303 0 
L 628 0 
L 628 4666 
z
" transform="scale(0.015625)"/>
       <path id="DejaVuSans-4f" d="M 2522 4238 
Q 1834 4238 1429 3725 
Q 1025 3213 1025 2328 
Q 1025 1447 1429 934 
Q 1834 422 2522 422 
Q 3209 422 3611 934 
Q 4013 1447 4013 2328 
Q 4013 3213 3611 3725 
Q 3209 4238 2522 4238 
z
M 2522 4750 
Q 3503 4750 4090 4092 
Q 4678 3434 4678 2328 
Q 4678 1225 4090 567 
Q 3503 -91 2522 -91 
Q 1538 -91 948 565 
Q 359 1222 359 2328 
Q 359 3434 948 4092 
Q 1538 4750 2522 4750 
z
" transform="scale(0.015625)"/>
       <path id="DejaVuSans-4c" d="M 628 4666 
L 1259 4666 
L 1259 531 
L 3531 531 
L 3531 0 
L 628 0 
L 628 4666 
z
" transform="scale(0.015625)"/>
       <path id="DejaVuSans-44" d="M 1259 4147 
L 1259 519 
L 2022 519 
Q 2988 519 3436 956 
Q 3884 1394 3884 2338 
Q 3884 3275 3436 3711 
Q 2988 4147 2022 4147 
L 1259 4147 
z
M 628 4666 
L 1925 4666 
Q 3281 4666 3915 4102 
Q 4550 3538 4550 2338 
Q 4550 1131 3912 565 
Q 3275 0 1925 0 
L 628 0 
L 628 4666 
z
" transform="scale(0.015625)"/>
       <path id="DejaVuSans-43" d="M 4122 4306 
L 4122 3641 
Q 3803 3938 3442 4084 
Q 3081 4231 2675 4231 
Q 1875 4231 1450 3742 
Q 1025 3253 1025 2328 
Q 1025 1406 1450 917 
Q 1875 428 2675 428 
Q 3081 428 3442 575 
Q 3803 722 4122 1019 
L 4122 359 
Q 3791 134 3420 21 
Q 3050 -91 2638 -91 
Q 1578 -91 968 557 
Q 359 1206 359 2328 
Q 359 3453 968 4101 
Q 1578 4750 2638 4750 
Q 3056 4750 3426 4639 
Q 3797 4528 4122 4306 
z
" transform="scale(0.015625)"/>
      </defs>
      <use xlink:href="#DejaVuSans-41"/>
      <use xlink:href="#DejaVuSans-76" x="62.533203"/>
      <use xlink:href="#DejaVuSans-65" x="121.712891"/>
      <use xlink:href="#DejaVuSans-72" x="183.236328"/>
      <use xlink:href="#DejaVuSans-61" x="224.349609"/>
      <use xlink:href="#DejaVuSans-67" x="285.628906"/>
      <use xlink:href="#DejaVuSans-65" x="349.105469"/>
      <use xlink:href="#DejaVuSans-20" x="410.628906"/>
      <use xlink:href="#DejaVuSans-25" x="442.416016"/>
      <use xlink:href="#DejaVuSans-20" x="537.435547"/>
      <use xlink:href="#DejaVuSans-42" x="569.222656"/>
      <use xlink:href="#DejaVuSans-4f" x="636.076172"/>
      <use xlink:href="#DejaVuSans-4c" x="714.787109"/>
      <use xlink:href="#DejaVuSans-44" x="770.5"/>
      <use xlink:href="#DejaVuSans-20" x="847.501953"/>
      <use xlink:href="#DejaVuSans-43" x="879.289062"/>
      <use xlink:href="#DejaVuSans-68" x="949.113281"/>
      <use xlink:href="#DejaVuSans-61" x="1012.492188"/>
      <use xlink:href="#DejaVuSans-6e" x="1073.771484"/>
      <use xlink:href="#DejaVuSans-67" x="1137.150391"/>
      <use xlink:href="#DejaVuSans-65" x="1200.626953"/>
     </g>
    </g>
   </g>
   <g id="patch_3">
    <path d="M 38.27 374.02776 
L 38.27 47.04 
" style="fill: none; stroke: #000000; stroke-width: 0.8; stroke-linejoin: miter; stroke-linecap: square"/>
   </g>
   <g id="patch_4">
    <path d="M 421.2 374.02776 
L 421.2 47.04 
" style="fill: none; stroke: #000000; stroke-width: 0.8; stroke-linejoin: miter; stroke-linecap: square"/>
   </g>
   <g id="patch_5">
    <path d="M 38.27 374.02776 
L 421.2 374.02776 
" style="fill: none; stroke: #000000; stroke-width: 0.8; stroke-linejoin: miter; stroke-linecap: square"/>
   </g>
   <g id="patch_6">
    <path d="M 38.27 47.04 
L 421.2 47.04 
" style="fill: none; stroke: #000000; stroke-width: 0.8; stroke-linejoin: miter; stroke-linecap: square"/>
   </g>
   <g id="PathCollection_1">
    <defs>
     <path id="C0_0_0ee97114d2" d="M 0 2.5 
C 0.663008 2.5 1.29895 2.236584 1.767767 1.767767 
C 2.236584 1.29895 2.5 0.663008 2.5 -0 
C 2.5 -0.663008 2.236584 -1.29895 1.767767 -1.767767 
C 1.29895 -2.236584 0.663008 -2.5 0 -2.5 
C -0.663008 -2.5 -1.29895 -2.236584 -1.767767 -1.767767 
C -2.236584 -1.29895 -2.5 -0.663008 -2.5 0 
C -2.5 0.663008 -2.236584 1.29895 -1.767767 1.767767 
C -1.29895 2.236584 -0.663008 2.5 0 2.5 
z
"/>
    </defs>
    <g clip-path="url(#p9331c3cf97)">
     <use xlink:href="#C0_0_0ee97114d2" x="86.13625" y="304.866881" style="fill: #f77189; fill-opacity: 0.7"/>
    </g>
    <g clip-path="url(#p9331c3cf97)">
     <use xlink:href="#C0_0_0ee97114d2" x="86.13625" y="314.846668" style="fill: #e68332; fill-opacity: 0.7"/>
    </g>
    <g clip-path="url(#p9331c3cf97)">
     <use xlink:href="#C0_0_0ee97114d2" x="86.13625" y="347.491599" style="fill: #bb9832; fill-opacity: 0.7"/>
    </g>
    <g clip-path="url(#p9331c3cf97)">
     <use xlink:href="#C0_0_0ee97114d2" x="86.13625" y="285.486107" style="fill: #97a431; fill-opacity: 0.7"/>
    </g>
    <g clip-path="url(#p9331c3cf97)">
     <use xlink:href="#C0_0_0ee97114d2" x="86.13625" y="296.95464" style="fill: #50b131; fill-opacity: 0.7"/>
    </g>
    <g clip-path="url(#p9331c3cf97)">
     <use xlink:href="#C0_0_0ee97114d2" x="86.13625" y="279.838814" style="fill: #34af84; fill-opacity: 0.7"/>
    </g>
    <g clip-path="url(#p9331c3cf97)">
     <use xlink:href="#C0_0_0ee97114d2" x="86.13625" y="169.345077" style="fill: #36ada4; fill-opacity: 0.7"/>
    </g>
    <g clip-path="url(#p9331c3cf97)">
     <use xlink:href="#C0_0_0ee97114d2" x="90.471778" y="294.134934" style="fill: #38aabf; fill-opacity: 0.7"/>
    </g>
    <g clip-path="url(#p9331c3cf97)">
     <use xlink:href="#C0_0_0ee97114d2" x="80.898598" y="296.611913" style="fill: #3ba3ec; fill-opacity: 0.7"/>
    </g>
    <g clip-path="url(#p9331c3cf97)">
     <use xlink:href="#C0_0_0ee97114d2" x="86.13625" y="359.16468" style="fill: #a48cf4; fill-opacity: 0.7"/>
    </g>
    <g clip-path="url(#p9331c3cf97)">
     <use xlink:href="#C0_0_0ee97114d2" x="86.13625" y="227.385562" style="fill: #e866f4; fill-opacity: 0.7"/>
    </g>
    <g clip-path="url(#p9331c3cf97)">
     <use xlink:href="#C0_0_0ee97114d2" x="86.13625" y="247.746109" style="fill: #f668c2; fill-opacity: 0.7"/>
    </g>
   </g>
   <g id="PathCollection_2">
    <defs>
     <path id="C1_0_e7aabd9189" d="M 0 2.5 
C 0.663008 2.5 1.29895 2.236584 1.767767 1.767767 
C 2.236584 1.29895 2.5 0.663008 2.5 -0 
C 2.5 -0.663008 2.236584 -1.29895 1.767767 -1.767767 
C 1.29895 -2.236584 0.663008 -2.5 0 -2.5 
C -0.663008 -2.5 -1.29895 -2.236584 -1.767767 -1.767767 
C -2.236584 -1.29895 -2.5 -0.663008 -2.5 0 
C -2.5 0.663008 -2.236584 1.29895 -1.767767 1.767767 
C -1.29895 2.236584 -0.663008 2.5 0 2.5 
z
"/>
    </defs>
    <g clip-path="url(#p9331c3cf97)">
     <use xlink:href="#C1_0_e7aabd9189" x="181.86875" y="261.931827" style="fill: #f77189; fill-opacity: 0.7"/>
    </g>
    <g clip-path="url(#p9331c3cf97)">
     <use xlink:href="#C1_0_e7aabd9189" x="181.86875" y="289.330615" style="fill: #e68332; fill-opacity: 0.7"/>
    </g>
    <g clip-path="url(#p9331c3cf97)">
     <use xlink:href="#C1_0_e7aabd9189" x="181.86875" y="322.010524" style="fill: #bb9832; fill-opacity: 0.7"/>
    </g>
    <g clip-path="url(#p9331c3cf97)">
     <use xlink:href="#C1_0_e7aabd9189" x="176.619548" y="239.361308" style="fill: #97a431; fill-opacity: 0.7"/>
    </g>
    <g clip-path="url(#p9331c3cf97)">
     <use xlink:href="#C1_0_e7aabd9189" x="181.86875" y="239.44849" style="fill: #50b131; fill-opacity: 0.7"/>
    </g>
    <g clip-path="url(#p9331c3cf97)">
     <use xlink:href="#C1_0_e7aabd9189" x="181.86875" y="246.13563" style="fill: #34af84; fill-opacity: 0.7"/>
    </g>
    <g clip-path="url(#p9331c3cf97)">
     <use xlink:href="#C1_0_e7aabd9189" x="181.86875" y="91.575454" style="fill: #36ada4; fill-opacity: 0.7"/>
    </g>
    <g clip-path="url(#p9331c3cf97)">
     <use xlink:href="#C1_0_e7aabd9189" x="181.86875" y="268.793146" style="fill: #38aabf; fill-opacity: 0.7"/>
    </g>
    <g clip-path="url(#p9331c3cf97)">
     <use xlink:href="#C1_0_e7aabd9189" x="176.950804" y="260.181853" style="fill: #3ba3ec; fill-opacity: 0.7"/>
    </g>
    <g clip-path="url(#p9331c3cf97)">
     <use xlink:href="#C1_0_e7aabd9189" x="181.86875" y="310.729125" style="fill: #a48cf4; fill-opacity: 0.7"/>
    </g>
    <g clip-path="url(#p9331c3cf97)">
     <use xlink:href="#C1_0_e7aabd9189" x="181.86875" y="228.046541" style="fill: #e866f4; fill-opacity: 0.7"/>
    </g>
    <g clip-path="url(#p9331c3cf97)">
     <use xlink:href="#C1_0_e7aabd9189" x="181.86875" y="213.031378" style="fill: #f668c2; fill-opacity: 0.7"/>
    </g>
   </g>
   <g id="PathCollection_3">
    <defs>
     <path id="C2_0_91d5cec123" d="M 0 2.5 
C 0.663008 2.5 1.29895 2.236584 1.767767 1.767767 
C 2.236584 1.29895 2.5 0.663008 2.5 -0 
C 2.5 -0.663008 2.236584 -1.29895 1.767767 -1.767767 
C 1.29895 -2.236584 0.663008 -2.5 0 -2.5 
C -0.663008 -2.5 -1.29895 -2.236584 -1.767767 -1.767767 
C -2.236584 -1.29895 -2.5 -0.663008 -2.5 0 
C -2.5 0.663008 -2.236584 1.29895 -1.767767 1.767767 
C -1.29895 2.236584 -0.663008 2.5 0 2.5 
z
"/>
    </defs>
    <g clip-path="url(#p9331c3cf97)">
     <use xlink:href="#C2_0_91d5cec123" x="277.60125" y="224.169315" style="fill: #f77189; fill-opacity: 0.7"/>
    </g>
    <g clip-path="url(#p9331c3cf97)">
     <use xlink:href="#C2_0_91d5cec123" x="277.60125" y="262.355446" style="fill: #e68332; fill-opacity: 0.7"/>
    </g>
    <g clip-path="url(#p9331c3cf97)">
     <use xlink:href="#C2_0_91d5cec123" x="277.60125" y="324.831232" style="fill: #bb9832; fill-opacity: 0.7"/>
    </g>
    <g clip-path="url(#p9331c3cf97)">
     <use xlink:href="#C2_0_91d5cec123" x="277.60125" y="208.955113" style="fill: #97a431; fill-opacity: 0.7"/>
    </g>
    <g clip-path="url(#p9331c3cf97)">
     <use xlink:href="#C2_0_91d5cec123" x="278.589536" y="229.287045" style="fill: #50b131; fill-opacity: 0.7"/>
    </g>
    <g clip-path="url(#p9331c3cf97)">
     <use xlink:href="#C2_0_91d5cec123" x="278.017273" y="253.630027" style="fill: #34af84; fill-opacity: 0.7"/>
    </g>
    <g clip-path="url(#p9331c3cf97)">
     <use xlink:href="#C2_0_91d5cec123" x="277.60125" y="61.90308" style="fill: #36ada4; fill-opacity: 0.7"/>
    </g>
    <g clip-path="url(#p9331c3cf97)">
     <use xlink:href="#C2_0_91d5cec123" x="275.255511" y="257.882295" style="fill: #38aabf; fill-opacity: 0.7"/>
    </g>
    <g clip-path="url(#p9331c3cf97)">
     <use xlink:href="#C2_0_91d5cec123" x="277.60125" y="235.513831" style="fill: #3ba3ec; fill-opacity: 0.7"/>
    </g>
    <g clip-path="url(#p9331c3cf97)">
     <use xlink:href="#C2_0_91d5cec123" x="277.60125" y="310.062147" style="fill: #a48cf4; fill-opacity: 0.7"/>
    </g>
    <g clip-path="url(#p9331c3cf97)">
     <use xlink:href="#C2_0_91d5cec123" x="274.06302" y="231.81994" style="fill: #e866f4; fill-opacity: 0.7"/>
    </g>
    <g clip-path="url(#p9331c3cf97)">
     <use xlink:href="#C2_0_91d5cec123" x="277.60125" y="202.412712" style="fill: #f668c2; fill-opacity: 0.7"/>
    </g>
   </g>
   <g id="PathCollection_4">
    <defs>
     <path id="C3_0_621f180d70" d="M 0 2.5 
C 0.663008 2.5 1.29895 2.236584 1.767767 1.767767 
C 2.236584 1.29895 2.5 0.663008 2.5 -0 
C 2.5 -0.663008 2.236584 -1.29895 1.767767 -1.767767 
C 1.29895 -2.236584 0.663008 -2.5 0 -2.5 
C -0.663008 -2.5 -1.29895 -2.236584 -1.767767 -1.767767 
C -2.236584 -1.29895 -2.5 -0.663008 -2.5 0 
C -2.5 0.663008 -2.236584 1.29895 -1.767767 1.767767 
C -1.29895 2.236584 -0.663008 2.5 0 2.5 
z
"/>
    </defs>
    <g clip-path="url(#p9331c3cf97)">
     <use xlink:href="#C3_0_621f180d70" x="368.104189" y="284.682903" style="fill: #f77189; fill-opacity: 0.7"/>
    </g>
    <g clip-path="url(#p9331c3cf97)">
     <use xlink:href="#C3_0_621f180d70" x="373.33375" y="348.180285" style="fill: #e68332; fill-opacity: 0.7"/>
    </g>
    <g clip-path="url(#p9331c3cf97)">
     <use xlink:href="#C3_0_621f180d70" x="373.33375" y="342.629278" style="fill: #bb9832; fill-opacity: 0.7"/>
    </g>
    <g clip-path="url(#p9331c3cf97)">
     <use xlink:href="#C3_0_621f180d70" x="373.33375" y="271.036852" style="fill: #97a431; fill-opacity: 0.7"/>
    </g>
    <g clip-path="url(#p9331c3cf97)">
     <use xlink:href="#C3_0_621f180d70" x="373.33375" y="250.965305" style="fill: #50b131; fill-opacity: 0.7"/>
    </g>
    <g clip-path="url(#p9331c3cf97)">
     <use xlink:href="#C3_0_621f180d70" x="368.257027" y="263.274358" style="fill: #34af84; fill-opacity: 0.7"/>
    </g>
    <g clip-path="url(#p9331c3cf97)">
     <use xlink:href="#C3_0_621f180d70" x="373.33375" y="162.302255" style="fill: #36ada4; fill-opacity: 0.7"/>
    </g>
    <g clip-path="url(#p9331c3cf97)">
     <use xlink:href="#C3_0_621f180d70" x="373.33375" y="313.379098" style="fill: #38aabf; fill-opacity: 0.7"/>
    </g>
    <g clip-path="url(#p9331c3cf97)">
     <use xlink:href="#C3_0_621f180d70" x="373.33375" y="264.548337" style="fill: #3ba3ec; fill-opacity: 0.7"/>
    </g>
    <g clip-path="url(#p9331c3cf97)">
     <use xlink:href="#C3_0_621f180d70" x="368.18473" y="341.653337" style="fill: #a48cf4; fill-opacity: 0.7"/>
    </g>
    <g clip-path="url(#p9331c3cf97)">
     <use xlink:href="#C3_0_621f180d70" x="373.33375" y="285.123677" style="fill: #e866f4; fill-opacity: 0.7"/>
    </g>
    <g clip-path="url(#p9331c3cf97)">
     <use xlink:href="#C3_0_621f180d70" x="373.33375" y="237.612296" style="fill: #f668c2; fill-opacity: 0.7"/>
    </g>
   </g>
   <g id="text_14">
    <!-- pnr143 -->
    <g style="fill: #f77189" transform="translate(88.0509 306.522506) scale(0.06 -0.06)">
     <defs>
      <path id="DejaVuSans-70" d="M 1159 525 
L 1159 -1331 
L 581 -1331 
L 581 3500 
L 1159 3500 
L 1159 2969 
Q 1341 3281 1617 3432 
Q 1894 3584 2278 3584 
Q 2916 3584 3314 3078 
Q 3713 2572 3713 1747 
Q 3713 922 3314 415 
Q 2916 -91 2278 -91 
Q 1894 -91 1617 61 
Q 1341 213 1159 525 
z
M 3116 1747 
Q 3116 2381 2855 2742 
Q 2594 3103 2138 3103 
Q 1681 3103 1420 2742 
Q 1159 2381 1159 1747 
Q 1159 1113 1420 752 
Q 1681 391 2138 391 
Q 2594 391 2855 752 
Q 3116 1113 3116 1747 
z
" transform="scale(0.015625)"/>
      <path id="DejaVuSans-31" d="M 794 531 
L 1825 531 
L 1825 4091 
L 703 3866 
L 703 4441 
L 1819 4666 
L 2450 4666 
L 2450 531 
L 3481 531 
L 3481 0 
L 794 0 
L 794 531 
z
" transform="scale(0.015625)"/>
     </defs>
     <use xlink:href="#DejaVuSans-70"/>
     <use xlink:href="#DejaVuSans-6e" x="63.476562"/>
     <use xlink:href="#DejaVuSans-72" x="126.855469"/>
     <use xlink:href="#DejaVuSans-31" x="167.96875"/>
     <use xlink:href="#DejaVuSans-34" x="231.591797"/>
     <use xlink:href="#DejaVuSans-33" x="295.214844"/>
    </g>
   </g>
   <g id="text_15">
    <!-- pnr256 -->
    <g style="fill: #e68332" transform="translate(88.0509 316.502293) scale(0.06 -0.06)">
     <use xlink:href="#DejaVuSans-70"/>
     <use xlink:href="#DejaVuSans-6e" x="63.476562"/>
     <use xlink:href="#DejaVuSans-72" x="126.855469"/>
     <use xlink:href="#DejaVuSans-32" x="167.96875"/>
     <use xlink:href="#DejaVuSans-35" x="231.591797"/>
     <use xlink:href="#DejaVuSans-36" x="295.214844"/>
    </g>
   </g>
   <g id="text_16">
    <!-- pnr328 -->
    <g style="fill: #bb9832" transform="translate(88.0509 349.147224) scale(0.06 -0.06)">
     <use xlink:href="#DejaVuSans-70"/>
     <use xlink:href="#DejaVuSans-6e" x="63.476562"/>
     <use xlink:href="#DejaVuSans-72" x="126.855469"/>
     <use xlink:href="#DejaVuSans-33" x="167.96875"/>
     <use xlink:href="#DejaVuSans-32" x="231.591797"/>
     <use xlink:href="#DejaVuSans-38" x="295.214844"/>
    </g>
   </g>
   <g id="text_17">
    <!-- pnr495 -->
    <g style="fill: #97a431" transform="translate(88.0509 287.141732) scale(0.06 -0.06)">
     <use xlink:href="#DejaVuSans-70"/>
     <use xlink:href="#DejaVuSans-6e" x="63.476562"/>
     <use xlink:href="#DejaVuSans-72" x="126.855469"/>
     <use xlink:href="#DejaVuSans-34" x="167.96875"/>
     <use xlink:href="#DejaVuSans-39" x="231.591797"/>
     <use xlink:href="#DejaVuSans-35" x="295.214844"/>
    </g>
   </g>
   <g id="text_18">
    <!-- pnr510 -->
    <g style="fill: #50b131" transform="translate(88.0509 298.610265) scale(0.06 -0.06)">
     <use xlink:href="#DejaVuSans-70"/>
     <use xlink:href="#DejaVuSans-6e" x="63.476562"/>
     <use xlink:href="#DejaVuSans-72" x="126.855469"/>
     <use xlink:href="#DejaVuSans-35" x="167.96875"/>
     <use xlink:href="#DejaVuSans-31" x="231.591797"/>
     <use xlink:href="#DejaVuSans-30" x="295.214844"/>
    </g>
   </g>
   <g id="text_19">
    <!-- pnr579 -->
    <g style="fill: #34af84" transform="translate(88.0509 281.494439) scale(0.06 -0.06)">
     <use xlink:href="#DejaVuSans-70"/>
     <use xlink:href="#DejaVuSans-6e" x="63.476562"/>
     <use xlink:href="#DejaVuSans-72" x="126.855469"/>
     <use xlink:href="#DejaVuSans-35" x="167.96875"/>
     <use xlink:href="#DejaVuSans-37" x="231.591797"/>
     <use xlink:href="#DejaVuSans-39" x="295.214844"/>
    </g>
   </g>
   <g id="text_20">
    <!-- pnr668 -->
    <g style="fill: #36ada4" transform="translate(88.0509 171.000702) scale(0.06 -0.06)">
     <use xlink:href="#DejaVuSans-70"/>
     <use xlink:href="#DejaVuSans-6e" x="63.476562"/>
     <use xlink:href="#DejaVuSans-72" x="126.855469"/>
     <use xlink:href="#DejaVuSans-36" x="167.96875"/>
     <use xlink:href="#DejaVuSans-36" x="231.591797"/>
     <use xlink:href="#DejaVuSans-38" x="295.214844"/>
    </g>
   </g>
   <g id="text_21">
    <!-- pnr685 -->
    <g style="fill: #38aabf" transform="translate(92.108505 295.790559) scale(0.06 -0.06)">
     <use xlink:href="#DejaVuSans-70"/>
     <use xlink:href="#DejaVuSans-6e" x="63.476562"/>
     <use xlink:href="#DejaVuSans-72" x="126.855469"/>
     <use xlink:href="#DejaVuSans-36" x="167.96875"/>
     <use xlink:href="#DejaVuSans-38" x="231.591797"/>
     <use xlink:href="#DejaVuSans-35" x="295.214844"/>
    </g>
   </g>
   <g id="text_22">
    <!-- pnr713 -->
    <g style="fill: #3ba3ec" transform="translate(83.109059 298.267538) scale(0.06 -0.06)">
     <use xlink:href="#DejaVuSans-70"/>
     <use xlink:href="#DejaVuSans-6e" x="63.476562"/>
     <use xlink:href="#DejaVuSans-72" x="126.855469"/>
     <use xlink:href="#DejaVuSans-37" x="167.96875"/>
     <use xlink:href="#DejaVuSans-31" x="231.591797"/>
     <use xlink:href="#DejaVuSans-33" x="295.214844"/>
    </g>
   </g>
   <g id="text_23">
    <!-- pnr739 -->
    <g style="fill: #a48cf4" transform="translate(88.0509 360.820305) scale(0.06 -0.06)">
     <use xlink:href="#DejaVuSans-70"/>
     <use xlink:href="#DejaVuSans-6e" x="63.476562"/>
     <use xlink:href="#DejaVuSans-72" x="126.855469"/>
     <use xlink:href="#DejaVuSans-37" x="167.96875"/>
     <use xlink:href="#DejaVuSans-33" x="231.591797"/>
     <use xlink:href="#DejaVuSans-39" x="295.214844"/>
    </g>
   </g>
   <g id="text_24">
    <!-- pnr756 -->
    <g style="fill: #e866f4" transform="translate(88.0509 229.041187) scale(0.06 -0.06)">
     <use xlink:href="#DejaVuSans-70"/>
     <use xlink:href="#DejaVuSans-6e" x="63.476562"/>
     <use xlink:href="#DejaVuSans-72" x="126.855469"/>
     <use xlink:href="#DejaVuSans-37" x="167.96875"/>
     <use xlink:href="#DejaVuSans-35" x="231.591797"/>
     <use xlink:href="#DejaVuSans-36" x="295.214844"/>
    </g>
   </g>
   <g id="text_25">
    <!-- pnr822 -->
    <g style="fill: #f668c2" transform="translate(88.0509 249.401734) scale(0.06 -0.06)">
     <use xlink:href="#DejaVuSans-70"/>
     <use xlink:href="#DejaVuSans-6e" x="63.476562"/>
     <use xlink:href="#DejaVuSans-72" x="126.855469"/>
     <use xlink:href="#DejaVuSans-38" x="167.96875"/>
     <use xlink:href="#DejaVuSans-32" x="231.591797"/>
     <use xlink:href="#DejaVuSans-32" x="295.214844"/>
    </g>
   </g>
   <g id="text_26">
    <!-- pnr143 -->
    <g style="fill: #f77189" transform="translate(183.7834 263.587452) scale(0.06 -0.06)">
     <use xlink:href="#DejaVuSans-70"/>
     <use xlink:href="#DejaVuSans-6e" x="63.476562"/>
     <use xlink:href="#DejaVuSans-72" x="126.855469"/>
     <use xlink:href="#DejaVuSans-31" x="167.96875"/>
     <use xlink:href="#DejaVuSans-34" x="231.591797"/>
     <use xlink:href="#DejaVuSans-33" x="295.214844"/>
    </g>
   </g>
   <g id="text_27">
    <!-- pnr256 -->
    <g style="fill: #e68332" transform="translate(183.7834 290.98624) scale(0.06 -0.06)">
     <use xlink:href="#DejaVuSans-70"/>
     <use xlink:href="#DejaVuSans-6e" x="63.476562"/>
     <use xlink:href="#DejaVuSans-72" x="126.855469"/>
     <use xlink:href="#DejaVuSans-32" x="167.96875"/>
     <use xlink:href="#DejaVuSans-35" x="231.591797"/>
     <use xlink:href="#DejaVuSans-36" x="295.214844"/>
    </g>
   </g>
   <g id="text_28">
    <!-- pnr328 -->
    <g style="fill: #bb9832" transform="translate(183.7834 323.666149) scale(0.06 -0.06)">
     <use xlink:href="#DejaVuSans-70"/>
     <use xlink:href="#DejaVuSans-6e" x="63.476562"/>
     <use xlink:href="#DejaVuSans-72" x="126.855469"/>
     <use xlink:href="#DejaVuSans-33" x="167.96875"/>
     <use xlink:href="#DejaVuSans-32" x="231.591797"/>
     <use xlink:href="#DejaVuSans-38" x="295.214844"/>
    </g>
   </g>
   <g id="text_29">
    <!-- pnr495 -->
    <g style="fill: #97a431" transform="translate(178.83028 241.016933) scale(0.06 -0.06)">
     <use xlink:href="#DejaVuSans-70"/>
     <use xlink:href="#DejaVuSans-6e" x="63.476562"/>
     <use xlink:href="#DejaVuSans-72" x="126.855469"/>
     <use xlink:href="#DejaVuSans-34" x="167.96875"/>
     <use xlink:href="#DejaVuSans-39" x="231.591797"/>
     <use xlink:href="#DejaVuSans-35" x="295.214844"/>
    </g>
   </g>
   <g id="text_30">
    <!-- pnr510 -->
    <g style="fill: #50b131" transform="translate(183.7834 241.104115) scale(0.06 -0.06)">
     <use xlink:href="#DejaVuSans-70"/>
     <use xlink:href="#DejaVuSans-6e" x="63.476562"/>
     <use xlink:href="#DejaVuSans-72" x="126.855469"/>
     <use xlink:href="#DejaVuSans-35" x="167.96875"/>
     <use xlink:href="#DejaVuSans-31" x="231.591797"/>
     <use xlink:href="#DejaVuSans-30" x="295.214844"/>
    </g>
   </g>
   <g id="text_31">
    <!-- pnr579 -->
    <g style="fill: #34af84" transform="translate(183.7834 247.791255) scale(0.06 -0.06)">
     <use xlink:href="#DejaVuSans-70"/>
     <use xlink:href="#DejaVuSans-6e" x="63.476562"/>
     <use xlink:href="#DejaVuSans-72" x="126.855469"/>
     <use xlink:href="#DejaVuSans-35" x="167.96875"/>
     <use xlink:href="#DejaVuSans-37" x="231.591797"/>
     <use xlink:href="#DejaVuSans-39" x="295.214844"/>
    </g>
   </g>
   <g id="text_32">
    <!-- pnr668 -->
    <g style="fill: #36ada4" transform="translate(183.7834 93.231079) scale(0.06 -0.06)">
     <use xlink:href="#DejaVuSans-70"/>
     <use xlink:href="#DejaVuSans-6e" x="63.476562"/>
     <use xlink:href="#DejaVuSans-72" x="126.855469"/>
     <use xlink:href="#DejaVuSans-36" x="167.96875"/>
     <use xlink:href="#DejaVuSans-36" x="231.591797"/>
     <use xlink:href="#DejaVuSans-38" x="295.214844"/>
    </g>
   </g>
   <g id="text_33">
    <!-- pnr685 -->
    <g style="fill: #38aabf" transform="translate(183.7834 270.448771) scale(0.06 -0.06)">
     <use xlink:href="#DejaVuSans-70"/>
     <use xlink:href="#DejaVuSans-6e" x="63.476562"/>
     <use xlink:href="#DejaVuSans-72" x="126.855469"/>
     <use xlink:href="#DejaVuSans-36" x="167.96875"/>
     <use xlink:href="#DejaVuSans-38" x="231.591797"/>
     <use xlink:href="#DejaVuSans-35" x="295.214844"/>
    </g>
   </g>
   <g id="text_34">
    <!-- pnr713 -->
    <g style="fill: #3ba3ec" transform="translate(179.154135 261.837478) scale(0.06 -0.06)">
     <use xlink:href="#DejaVuSans-70"/>
     <use xlink:href="#DejaVuSans-6e" x="63.476562"/>
     <use xlink:href="#DejaVuSans-72" x="126.855469"/>
     <use xlink:href="#DejaVuSans-37" x="167.96875"/>
     <use xlink:href="#DejaVuSans-31" x="231.591797"/>
     <use xlink:href="#DejaVuSans-33" x="295.214844"/>
    </g>
   </g>
   <g id="text_35">
    <!-- pnr739 -->
    <g style="fill: #a48cf4" transform="translate(183.7834 312.38475) scale(0.06 -0.06)">
     <use xlink:href="#DejaVuSans-70"/>
     <use xlink:href="#DejaVuSans-6e" x="63.476562"/>
     <use xlink:href="#DejaVuSans-72" x="126.855469"/>
     <use xlink:href="#DejaVuSans-37" x="167.96875"/>
     <use xlink:href="#DejaVuSans-33" x="231.591797"/>
     <use xlink:href="#DejaVuSans-39" x="295.214844"/>
    </g>
   </g>
   <g id="text_36">
    <!-- pnr756 -->
    <g style="fill: #e866f4" transform="translate(183.7834 229.702166) scale(0.06 -0.06)">
     <use xlink:href="#DejaVuSans-70"/>
     <use xlink:href="#DejaVuSans-6e" x="63.476562"/>
     <use xlink:href="#DejaVuSans-72" x="126.855469"/>
     <use xlink:href="#DejaVuSans-37" x="167.96875"/>
     <use xlink:href="#DejaVuSans-35" x="231.591797"/>
     <use xlink:href="#DejaVuSans-36" x="295.214844"/>
    </g>
   </g>
   <g id="text_37">
    <!-- pnr822 -->
    <g style="fill: #f668c2" transform="translate(183.7834 214.687003) scale(0.06 -0.06)">
     <use xlink:href="#DejaVuSans-70"/>
     <use xlink:href="#DejaVuSans-6e" x="63.476562"/>
     <use xlink:href="#DejaVuSans-72" x="126.855469"/>
     <use xlink:href="#DejaVuSans-38" x="167.96875"/>
     <use xlink:href="#DejaVuSans-32" x="231.591797"/>
     <use xlink:href="#DejaVuSans-32" x="295.214844"/>
    </g>
   </g>
   <g id="text_38">
    <!-- pnr143 -->
    <g style="fill: #f77189" transform="translate(279.5159 225.82494) scale(0.06 -0.06)">
     <use xlink:href="#DejaVuSans-70"/>
     <use xlink:href="#DejaVuSans-6e" x="63.476562"/>
     <use xlink:href="#DejaVuSans-72" x="126.855469"/>
     <use xlink:href="#DejaVuSans-31" x="167.96875"/>
     <use xlink:href="#DejaVuSans-34" x="231.591797"/>
     <use xlink:href="#DejaVuSans-33" x="295.214844"/>
    </g>
   </g>
   <g id="text_39">
    <!-- pnr256 -->
    <g style="fill: #e68332" transform="translate(279.5159 264.011071) scale(0.06 -0.06)">
     <use xlink:href="#DejaVuSans-70"/>
     <use xlink:href="#DejaVuSans-6e" x="63.476562"/>
     <use xlink:href="#DejaVuSans-72" x="126.855469"/>
     <use xlink:href="#DejaVuSans-32" x="167.96875"/>
     <use xlink:href="#DejaVuSans-35" x="231.591797"/>
     <use xlink:href="#DejaVuSans-36" x="295.214844"/>
    </g>
   </g>
   <g id="text_40">
    <!-- pnr328 -->
    <g style="fill: #bb9832" transform="translate(279.5159 326.486857) scale(0.06 -0.06)">
     <use xlink:href="#DejaVuSans-70"/>
     <use xlink:href="#DejaVuSans-6e" x="63.476562"/>
     <use xlink:href="#DejaVuSans-72" x="126.855469"/>
     <use xlink:href="#DejaVuSans-33" x="167.96875"/>
     <use xlink:href="#DejaVuSans-32" x="231.591797"/>
     <use xlink:href="#DejaVuSans-38" x="295.214844"/>
    </g>
   </g>
   <g id="text_41">
    <!-- pnr495 -->
    <g style="fill: #97a431" transform="translate(279.5159 210.610738) scale(0.06 -0.06)">
     <use xlink:href="#DejaVuSans-70"/>
     <use xlink:href="#DejaVuSans-6e" x="63.476562"/>
     <use xlink:href="#DejaVuSans-72" x="126.855469"/>
     <use xlink:href="#DejaVuSans-34" x="167.96875"/>
     <use xlink:href="#DejaVuSans-39" x="231.591797"/>
     <use xlink:href="#DejaVuSans-35" x="295.214844"/>
    </g>
   </g>
   <g id="text_42">
    <!-- pnr510 -->
    <g style="fill: #50b131" transform="translate(280.493358 230.94267) scale(0.06 -0.06)">
     <use xlink:href="#DejaVuSans-70"/>
     <use xlink:href="#DejaVuSans-6e" x="63.476562"/>
     <use xlink:href="#DejaVuSans-72" x="126.855469"/>
     <use xlink:href="#DejaVuSans-35" x="167.96875"/>
     <use xlink:href="#DejaVuSans-31" x="231.591797"/>
     <use xlink:href="#DejaVuSans-30" x="295.214844"/>
    </g>
   </g>
   <g id="text_43">
    <!-- pnr579 -->
    <g style="fill: #34af84" transform="translate(279.947409 255.285652) scale(0.06 -0.06)">
     <use xlink:href="#DejaVuSans-70"/>
     <use xlink:href="#DejaVuSans-6e" x="63.476562"/>
     <use xlink:href="#DejaVuSans-72" x="126.855469"/>
     <use xlink:href="#DejaVuSans-35" x="167.96875"/>
     <use xlink:href="#DejaVuSans-37" x="231.591797"/>
     <use xlink:href="#DejaVuSans-39" x="295.214844"/>
    </g>
   </g>
   <g id="text_44">
    <!-- pnr668 -->
    <g style="fill: #36ada4" transform="translate(279.5159 63.558705) scale(0.06 -0.06)">
     <use xlink:href="#DejaVuSans-70"/>
     <use xlink:href="#DejaVuSans-6e" x="63.476562"/>
     <use xlink:href="#DejaVuSans-72" x="126.855469"/>
     <use xlink:href="#DejaVuSans-36" x="167.96875"/>
     <use xlink:href="#DejaVuSans-36" x="231.591797"/>
     <use xlink:href="#DejaVuSans-38" x="295.214844"/>
    </g>
   </g>
   <g id="text_45">
    <!-- pnr685 -->
    <g style="fill: #38aabf" transform="translate(277.463 259.53792) scale(0.06 -0.06)">
     <use xlink:href="#DejaVuSans-70"/>
     <use xlink:href="#DejaVuSans-6e" x="63.476562"/>
     <use xlink:href="#DejaVuSans-72" x="126.855469"/>
     <use xlink:href="#DejaVuSans-36" x="167.96875"/>
     <use xlink:href="#DejaVuSans-38" x="231.591797"/>
     <use xlink:href="#DejaVuSans-35" x="295.214844"/>
    </g>
   </g>
   <g id="text_46">
    <!-- pnr713 -->
    <g style="fill: #3ba3ec" transform="translate(279.5159 237.169456) scale(0.06 -0.06)">
     <use xlink:href="#DejaVuSans-70"/>
     <use xlink:href="#DejaVuSans-6e" x="63.476562"/>
     <use xlink:href="#DejaVuSans-72" x="126.855469"/>
     <use xlink:href="#DejaVuSans-37" x="167.96875"/>
     <use xlink:href="#DejaVuSans-31" x="231.591797"/>
     <use xlink:href="#DejaVuSans-33" x="295.214844"/>
    </g>
   </g>
   <g id="text_47">
    <!-- pnr739 -->
    <g style="fill: #a48cf4" transform="translate(279.5159 311.717772) scale(0.06 -0.06)">
     <use xlink:href="#DejaVuSans-70"/>
     <use xlink:href="#DejaVuSans-6e" x="63.476562"/>
     <use xlink:href="#DejaVuSans-72" x="126.855469"/>
     <use xlink:href="#DejaVuSans-37" x="167.96875"/>
     <use xlink:href="#DejaVuSans-33" x="231.591797"/>
     <use xlink:href="#DejaVuSans-39" x="295.214844"/>
    </g>
   </g>
   <g id="text_48">
    <!-- pnr756 -->
    <g style="fill: #e866f4" transform="translate(276.247923 233.475565) scale(0.06 -0.06)">
     <use xlink:href="#DejaVuSans-70"/>
     <use xlink:href="#DejaVuSans-6e" x="63.476562"/>
     <use xlink:href="#DejaVuSans-72" x="126.855469"/>
     <use xlink:href="#DejaVuSans-37" x="167.96875"/>
     <use xlink:href="#DejaVuSans-35" x="231.591797"/>
     <use xlink:href="#DejaVuSans-36" x="295.214844"/>
    </g>
   </g>
   <g id="text_49">
    <!-- pnr822 -->
    <g style="fill: #f668c2" transform="translate(279.5159 204.068337) scale(0.06 -0.06)">
     <use xlink:href="#DejaVuSans-70"/>
     <use xlink:href="#DejaVuSans-6e" x="63.476562"/>
     <use xlink:href="#DejaVuSans-72" x="126.855469"/>
     <use xlink:href="#DejaVuSans-38" x="167.96875"/>
     <use xlink:href="#DejaVuSans-32" x="231.591797"/>
     <use xlink:href="#DejaVuSans-32" x="295.214844"/>
    </g>
   </g>
   <g id="text_50">
    <!-- pnr143 -->
    <g style="fill: #f77189" transform="translate(370.314461 286.338528) scale(0.06 -0.06)">
     <use xlink:href="#DejaVuSans-70"/>
     <use xlink:href="#DejaVuSans-6e" x="63.476562"/>
     <use xlink:href="#DejaVuSans-72" x="126.855469"/>
     <use xlink:href="#DejaVuSans-31" x="167.96875"/>
     <use xlink:href="#DejaVuSans-34" x="231.591797"/>
     <use xlink:href="#DejaVuSans-33" x="295.214844"/>
    </g>
   </g>
   <g id="text_51">
    <!-- pnr256 -->
    <g style="fill: #e68332" transform="translate(375.2484 349.83591) scale(0.06 -0.06)">
     <use xlink:href="#DejaVuSans-70"/>
     <use xlink:href="#DejaVuSans-6e" x="63.476562"/>
     <use xlink:href="#DejaVuSans-72" x="126.855469"/>
     <use xlink:href="#DejaVuSans-32" x="167.96875"/>
     <use xlink:href="#DejaVuSans-35" x="231.591797"/>
     <use xlink:href="#DejaVuSans-36" x="295.214844"/>
    </g>
   </g>
   <g id="text_52">
    <!-- pnr328 -->
    <g style="fill: #bb9832" transform="translate(375.2484 344.284903) scale(0.06 -0.06)">
     <use xlink:href="#DejaVuSans-70"/>
     <use xlink:href="#DejaVuSans-6e" x="63.476562"/>
     <use xlink:href="#DejaVuSans-72" x="126.855469"/>
     <use xlink:href="#DejaVuSans-33" x="167.96875"/>
     <use xlink:href="#DejaVuSans-32" x="231.591797"/>
     <use xlink:href="#DejaVuSans-38" x="295.214844"/>
    </g>
   </g>
   <g id="text_53">
    <!-- pnr495 -->
    <g style="fill: #97a431" transform="translate(375.2484 272.692477) scale(0.06 -0.06)">
     <use xlink:href="#DejaVuSans-70"/>
     <use xlink:href="#DejaVuSans-6e" x="63.476562"/>
     <use xlink:href="#DejaVuSans-72" x="126.855469"/>
     <use xlink:href="#DejaVuSans-34" x="167.96875"/>
     <use xlink:href="#DejaVuSans-39" x="231.591797"/>
     <use xlink:href="#DejaVuSans-35" x="295.214844"/>
    </g>
   </g>
   <g id="text_54">
    <!-- pnr510 -->
    <g style="fill: #50b131" transform="translate(375.2484 252.62093) scale(0.06 -0.06)">
     <use xlink:href="#DejaVuSans-70"/>
     <use xlink:href="#DejaVuSans-6e" x="63.476562"/>
     <use xlink:href="#DejaVuSans-72" x="126.855469"/>
     <use xlink:href="#DejaVuSans-35" x="167.96875"/>
     <use xlink:href="#DejaVuSans-31" x="231.591797"/>
     <use xlink:href="#DejaVuSans-30" x="295.214844"/>
    </g>
   </g>
   <g id="text_55">
    <!-- pnr579 -->
    <g style="fill: #34af84" transform="translate(380.032993 264.929983) scale(0.06 -0.06)">
     <use xlink:href="#DejaVuSans-70"/>
     <use xlink:href="#DejaVuSans-6e" x="63.476562"/>
     <use xlink:href="#DejaVuSans-72" x="126.855469"/>
     <use xlink:href="#DejaVuSans-35" x="167.96875"/>
     <use xlink:href="#DejaVuSans-37" x="231.591797"/>
     <use xlink:href="#DejaVuSans-39" x="295.214844"/>
    </g>
   </g>
   <g id="text_56">
    <!-- pnr668 -->
    <g style="fill: #36ada4" transform="translate(375.2484 163.95788) scale(0.06 -0.06)">
     <use xlink:href="#DejaVuSans-70"/>
     <use xlink:href="#DejaVuSans-6e" x="63.476562"/>
     <use xlink:href="#DejaVuSans-72" x="126.855469"/>
     <use xlink:href="#DejaVuSans-36" x="167.96875"/>
     <use xlink:href="#DejaVuSans-36" x="231.591797"/>
     <use xlink:href="#DejaVuSans-38" x="295.214844"/>
    </g>
   </g>
   <g id="text_57">
    <!-- pnr685 -->
    <g style="fill: #38aabf" transform="translate(375.2484 315.034723) scale(0.06 -0.06)">
     <use xlink:href="#DejaVuSans-70"/>
     <use xlink:href="#DejaVuSans-6e" x="63.476562"/>
     <use xlink:href="#DejaVuSans-72" x="126.855469"/>
     <use xlink:href="#DejaVuSans-36" x="167.96875"/>
     <use xlink:href="#DejaVuSans-38" x="231.591797"/>
     <use xlink:href="#DejaVuSans-35" x="295.214844"/>
    </g>
   </g>
   <g id="text_58">
    <!-- pnr713 -->
    <g style="fill: #3ba3ec" transform="translate(375.2484 266.203962) scale(0.06 -0.06)">
     <use xlink:href="#DejaVuSans-70"/>
     <use xlink:href="#DejaVuSans-6e" x="63.476562"/>
     <use xlink:href="#DejaVuSans-72" x="126.855469"/>
     <use xlink:href="#DejaVuSans-37" x="167.96875"/>
     <use xlink:href="#DejaVuSans-31" x="231.591797"/>
     <use xlink:href="#DejaVuSans-33" x="295.214844"/>
    </g>
   </g>
   <g id="text_59">
    <!-- pnr739 -->
    <g style="fill: #a48cf4" transform="translate(370.393141 343.308962) scale(0.06 -0.06)">
     <use xlink:href="#DejaVuSans-70"/>
     <use xlink:href="#DejaVuSans-6e" x="63.476562"/>
     <use xlink:href="#DejaVuSans-72" x="126.855469"/>
     <use xlink:href="#DejaVuSans-37" x="167.96875"/>
     <use xlink:href="#DejaVuSans-33" x="231.591797"/>
     <use xlink:href="#DejaVuSans-39" x="295.214844"/>
    </g>
   </g>
   <g id="text_60">
    <!-- pnr756 -->
    <g style="fill: #e866f4" transform="translate(375.2484 286.779302) scale(0.06 -0.06)">
     <use xlink:href="#DejaVuSans-70"/>
     <use xlink:href="#DejaVuSans-6e" x="63.476562"/>
     <use xlink:href="#DejaVuSans-72" x="126.855469"/>
     <use xlink:href="#DejaVuSans-37" x="167.96875"/>
     <use xlink:href="#DejaVuSans-35" x="231.591797"/>
     <use xlink:href="#DejaVuSans-36" x="295.214844"/>
    </g>
   </g>
   <g id="text_61">
    <!-- pnr822 -->
    <g style="fill: #f668c2" transform="translate(375.2484 239.267921) scale(0.06 -0.06)">
     <use xlink:href="#DejaVuSans-70"/>
     <use xlink:href="#DejaVuSans-6e" x="63.476562"/>
     <use xlink:href="#DejaVuSans-72" x="126.855469"/>
     <use xlink:href="#DejaVuSans-38" x="167.96875"/>
     <use xlink:href="#DejaVuSans-32" x="231.591797"/>
     <use xlink:href="#DejaVuSans-32" x="295.214844"/>
    </g>
   </g>
   <g id="text_62">
    <!-- V1 tgt -->
    <g transform="translate(211.392812 41.04) scale(0.12 -0.12)">
     <defs>
      <path id="DejaVuSans-56" d="M 1831 0 
L 50 4666 
L 709 4666 
L 2188 738 
L 3669 4666 
L 4325 4666 
L 2547 0 
L 1831 0 
z
" transform="scale(0.015625)"/>
     </defs>
     <use xlink:href="#DejaVuSans-56"/>
     <use xlink:href="#DejaVuSans-31" x="68.408203"/>
     <use xlink:href="#DejaVuSans-20" x="132.03125"/>
     <use xlink:href="#DejaVuSans-74" x="163.818359"/>
     <use xlink:href="#DejaVuSans-67" x="203.027344"/>
     <use xlink:href="#DejaVuSans-74" x="266.503906"/>
    </g>
   </g>
  </g>
  <g id="text_63">
   <!-- Average BOLD Response Across Subjects -->
   <g transform="translate(93.109688 17.758125) scale(0.12 -0.12)">
    <defs>
     <path id="DejaVuSans-52" d="M 2841 2188 
Q 3044 2119 3236 1894 
Q 3428 1669 3622 1275 
L 4263 0 
L 3584 0 
L 2988 1197 
Q 2756 1666 2539 1819 
Q 2322 1972 1947 1972 
L 1259 1972 
L 1259 0 
L 628 0 
L 628 4666 
L 2053 4666 
Q 2853 4666 3247 4331 
Q 3641 3997 3641 3322 
Q 3641 2881 3436 2590 
Q 3231 2300 2841 2188 
z
M 1259 4147 
L 1259 2491 
L 2053 2491 
Q 2509 2491 2742 2702 
Q 2975 2913 2975 3322 
Q 2975 3731 2742 3939 
Q 2509 4147 2053 4147 
L 1259 4147 
z
" transform="scale(0.015625)"/>
     <path id="DejaVuSans-53" d="M 3425 4513 
L 3425 3897 
Q 3066 4069 2747 4153 
Q 2428 4238 2131 4238 
Q 1616 4238 1336 4038 
Q 1056 3838 1056 3469 
Q 1056 3159 1242 3001 
Q 1428 2844 1947 2747 
L 2328 2669 
Q 3034 2534 3370 2195 
Q 3706 1856 3706 1288 
Q 3706 609 3251 259 
Q 2797 -91 1919 -91 
Q 1588 -91 1214 -16 
Q 841 59 441 206 
L 441 856 
Q 825 641 1194 531 
Q 1563 422 1919 422 
Q 2459 422 2753 634 
Q 3047 847 3047 1241 
Q 3047 1584 2836 1778 
Q 2625 1972 2144 2069 
L 1759 2144 
Q 1053 2284 737 2584 
Q 422 2884 422 3419 
Q 422 4038 858 4394 
Q 1294 4750 2059 4750 
Q 2388 4750 2728 4690 
Q 3069 4631 3425 4513 
z
" transform="scale(0.015625)"/>
     <path id="DejaVuSans-62" d="M 3116 1747 
Q 3116 2381 2855 2742 
Q 2594 3103 2138 3103 
Q 1681 3103 1420 2742 
Q 1159 2381 1159 1747 
Q 1159 1113 1420 752 
Q 1681 391 2138 391 
Q 2594 391 2855 752 
Q 3116 1113 3116 1747 
z
M 1159 2969 
Q 1341 3281 1617 3432 
Q 1894 3584 2278 3584 
Q 2916 3584 3314 3078 
Q 3713 2572 3713 1747 
Q 3713 922 3314 415 
Q 2916 -91 2278 -91 
Q 1894 -91 1617 61 
Q 1341 213 1159 525 
L 1159 0 
L 581 0 
L 581 4863 
L 1159 4863 
L 1159 2969 
z
" transform="scale(0.015625)"/>
     <path id="DejaVuSans-6a" d="M 603 3500 
L 1178 3500 
L 1178 -63 
Q 1178 -731 923 -1031 
Q 669 -1331 103 -1331 
L -116 -1331 
L -116 -844 
L 38 -844 
Q 366 -844 484 -692 
Q 603 -541 603 -63 
L 603 3500 
z
M 603 4863 
L 1178 4863 
L 1178 4134 
L 603 4134 
L 603 4863 
z
" transform="scale(0.015625)"/>
    </defs>
    <use xlink:href="#DejaVuSans-41"/>
    <use xlink:href="#DejaVuSans-76" x="62.533203"/>
    <use xlink:href="#DejaVuSans-65" x="121.712891"/>
    <use xlink:href="#DejaVuSans-72" x="183.236328"/>
    <use xlink:href="#DejaVuSans-61" x="224.349609"/>
    <use xlink:href="#DejaVuSans-67" x="285.628906"/>
    <use xlink:href="#DejaVuSans-65" x="349.105469"/>
    <use xlink:href="#DejaVuSans-20" x="410.628906"/>
    <use xlink:href="#DejaVuSans-42" x="442.416016"/>
    <use xlink:href="#DejaVuSans-4f" x="509.269531"/>
    <use xlink:href="#DejaVuSans-4c" x="587.980469"/>
    <use xlink:href="#DejaVuSans-44" x="643.693359"/>
    <use xlink:href="#DejaVuSans-20" x="720.695312"/>
    <use xlink:href="#DejaVuSans-52" x="752.482422"/>
    <use xlink:href="#DejaVuSans-65" x="817.464844"/>
    <use xlink:href="#DejaVuSans-73" x="878.988281"/>
    <use xlink:href="#DejaVuSans-70" x="931.087891"/>
    <use xlink:href="#DejaVuSans-6f" x="994.564453"/>
    <use xlink:href="#DejaVuSans-6e" x="1055.746094"/>
    <use xlink:href="#DejaVuSans-73" x="1119.125"/>
    <use xlink:href="#DejaVuSans-65" x="1171.224609"/>
    <use xlink:href="#DejaVuSans-20" x="1232.748047"/>
    <use xlink:href="#DejaVuSans-41" x="1264.535156"/>
    <use xlink:href="#DejaVuSans-63" x="1331.193359"/>
    <use xlink:href="#DejaVuSans-72" x="1386.173828"/>
    <use xlink:href="#DejaVuSans-6f" x="1425.037109"/>
    <use xlink:href="#DejaVuSans-73" x="1486.21875"/>
    <use xlink:href="#DejaVuSans-73" x="1538.318359"/>
    <use xlink:href="#DejaVuSans-20" x="1590.417969"/>
    <use xlink:href="#DejaVuSans-53" x="1622.205078"/>
    <use xlink:href="#DejaVuSans-75" x="1685.681641"/>
    <use xlink:href="#DejaVuSans-62" x="1749.060547"/>
    <use xlink:href="#DejaVuSans-6a" x="1812.537109"/>
    <use xlink:href="#DejaVuSans-65" x="1840.320312"/>
    <use xlink:href="#DejaVuSans-63" x="1901.84375"/>
    <use xlink:href="#DejaVuSans-74" x="1956.824219"/>
    <use xlink:href="#DejaVuSans-73" x="1996.033203"/>
   </g>
  </g>
 </g>
 <defs>
  <clipPath id="p9331c3cf97">
   <rect x="38.27" y="47.04" width="382.93" height="326.98776"/>
  </clipPath>
 </defs>
</svg>
