<?xml version="1.0" encoding="utf-8" standalone="no"?>
<!DOCTYPE svg PUBLIC "-//W3C//DTD SVG 1.1//EN"
  "http://www.w3.org/Graphics/SVG/1.1/DTD/svg11.dtd">
<svg xmlns:xlink="http://www.w3.org/1999/xlink" width="720pt" height="360pt" viewBox="0 0 720 360" xmlns="http://www.w3.org/2000/svg" version="1.1">
 <metadata>
  <rdf:RDF xmlns:dc="http://purl.org/dc/elements/1.1/" xmlns:cc="http://creativecommons.org/ns#" xmlns:rdf="http://www.w3.org/1999/02/22-rdf-syntax-ns#">
   <cc:Work>
    <dc:type rdf:resource="http://purl.org/dc/dcmitype/StillImage"/>
    <dc:date>2026-05-26T10:28:39.059803</dc:date>
    <dc:format>image/svg+xml</dc:format>
    <dc:creator>
     <cc:Agent>
      <dc:title>Matplotlib v3.8.0, https://matplotlib.org/</dc:title>
     </cc:Agent>
    </dc:creator>
   </cc:Work>
  </rdf:RDF>
 </metadata>
 <defs>
  <style type="text/css">*{stroke-linejoin: round; stroke-linecap: butt}</style>
 </defs>
 <g id="figure_1">
  <g id="patch_1">
   <path d="M 0 360 
L 720 360 
L 720 0 
L 0 0 
z
" style="fill: #ffffff"/>
  </g>
  <g id="axes_1">
   <g id="patch_2">
    <path d="M 46.64 262.387974 
L 351.405 262.387974 
L 351.405 47.04 
L 46.64 47.04 
z
" style="fill: #ffffff"/>
   </g>
   <g id="PolyCollection_1">
    <defs>
     <path id="m9bdb0dd385" d="M 90.302997 -108.04003 
L 89.011142 -108.04003 
L 88.777244 -109.684427 
L 88.474678 -111.328824 
L 88.089288 -112.973221 
L 87.606003 -114.617619 
L 87.009461 -116.262016 
L 86.28482 -117.906413 
L 85.41877 -119.55081 
L 84.400705 -121.195207 
L 83.223971 -122.839604 
L 81.887129 -124.484001 
L 80.395095 -126.128398 
L 78.760052 -127.772795 
L 77.002001 -129.417192 
L 75.148844 -131.061589 
L 73.235922 -132.705986 
L 71.304963 -134.350383 
L 69.40246 -135.99478 
L 67.577561 -137.639177 
L 65.879577 -139.283574 
L 64.35531 -140.927971 
L 63.046389 -142.572368 
L 61.986837 -144.216765 
L 61.201075 -145.861162 
L 60.702527 -147.505559 
L 60.492955 -149.149956 
L 60.562557 -150.794353 
L 60.890838 -152.43875 
L 61.448138 -154.083147 
L 62.197713 -155.727545 
L 63.098157 -157.371942 
L 64.105989 -159.016339 
L 65.178199 -160.660736 
L 66.274561 -162.305133 
L 67.359588 -163.94953 
L 68.404002 -165.593927 
L 69.385683 -167.238324 
L 70.290064 -168.882721 
L 71.110026 -170.527118 
L 71.845336 -172.171515 
L 72.501721 -173.815912 
L 73.089681 -175.460309 
L 73.62313 -177.104706 
L 74.117962 -178.749103 
L 74.590646 -180.3935 
L 75.056904 -182.037897 
L 75.530551 -183.682294 
L 76.022546 -185.326691 
L 76.540294 -186.971088 
L 77.087221 -188.615485 
L 77.662654 -190.259882 
L 78.261988 -191.904279 
L 78.877147 -193.548676 
L 79.497285 -195.193073 
L 80.109704 -196.837471 
L 80.700901 -198.481868 
L 81.257676 -200.126265 
L 81.768213 -201.770662 
L 82.223036 -203.415059 
L 82.615777 -205.059456 
L 82.943669 -206.703853 
L 83.207738 -208.34825 
L 83.412668 -209.992647 
L 83.566366 -211.637044 
L 83.67927 -213.281441 
L 83.763465 -214.925838 
L 83.831696 -216.570235 
L 83.896392 -218.214632 
L 83.968757 -219.859029 
L 84.058046 -221.503426 
L 84.171056 -223.147823 
L 84.311879 -224.79222 
L 84.481915 -226.436617 
L 84.680115 -228.081014 
L 84.903415 -229.725411 
L 85.147289 -231.369808 
L 85.406354 -233.014205 
L 85.67496 -234.658602 
L 85.947693 -236.302999 
L 86.21977 -237.947397 
L 86.487281 -239.591794 
L 86.74729 -241.236191 
L 86.997805 -242.880588 
L 87.237646 -244.524985 
L 87.466252 -246.169382 
L 87.683465 -247.813779 
L 87.889318 -249.458176 
L 88.083877 -251.102573 
L 88.267122 -252.74697 
L 88.438901 -254.391367 
L 88.598928 -256.035764 
L 88.74684 -257.680161 
L 88.882263 -259.324558 
L 89.004898 -260.968955 
L 89.114598 -262.613352 
L 89.211421 -264.257749 
L 89.295668 -265.902146 
L 89.36788 -267.546543 
L 89.428821 -269.19094 
L 89.479434 -270.835337 
L 89.834704 -270.835337 
L 89.834704 -270.835337 
L 89.885317 -269.19094 
L 89.946258 -267.546543 
L 90.018471 -265.902146 
L 90.102718 -264.257749 
L 90.199541 -262.613352 
L 90.309241 -260.968955 
L 90.431876 -259.324558 
L 90.567298 -257.680161 
L 90.71521 -256.035764 
L 90.875238 -254.391367 
L 91.047016 -252.74697 
L 91.230262 -251.102573 
L 91.424821 -249.458176 
L 91.630674 -247.813779 
L 91.847886 -246.169382 
L 92.076493 -244.524985 
L 92.316334 -242.880588 
L 92.566849 -241.236191 
L 92.826858 -239.591794 
L 93.094369 -237.947397 
L 93.366446 -236.302999 
L 93.639179 -234.658602 
L 93.907784 -233.014205 
L 94.16685 -231.369808 
L 94.410724 -229.725411 
L 94.634024 -228.081014 
L 94.832224 -226.436617 
L 95.00226 -224.79222 
L 95.143083 -223.147823 
L 95.256093 -221.503426 
L 95.345382 -219.859029 
L 95.417747 -218.214632 
L 95.482442 -216.570235 
L 95.550674 -214.925838 
L 95.634868 -213.281441 
L 95.747773 -211.637044 
L 95.901471 -209.992647 
L 96.106401 -208.34825 
L 96.370469 -206.703853 
L 96.698362 -205.059456 
L 97.091103 -203.415059 
L 97.545926 -201.770662 
L 98.056462 -200.126265 
L 98.613238 -198.481868 
L 99.204435 -196.837471 
L 99.816854 -195.193073 
L 100.436992 -193.548676 
L 101.05215 -191.904279 
L 101.651485 -190.259882 
L 102.226918 -188.615485 
L 102.773845 -186.971088 
L 103.291593 -185.326691 
L 103.783588 -183.682294 
L 104.257235 -182.037897 
L 104.723493 -180.3935 
L 105.196177 -178.749103 
L 105.691009 -177.104706 
L 106.224457 -175.460309 
L 106.812418 -173.815912 
L 107.468803 -172.171515 
L 108.204112 -170.527118 
L 109.024074 -168.882721 
L 109.928456 -167.238324 
L 110.910136 -165.593927 
L 111.954551 -163.94953 
L 113.039578 -162.305133 
L 114.13594 -160.660736 
L 115.208149 -159.016339 
L 116.215982 -157.371942 
L 117.116426 -155.727545 
L 117.866001 -154.083147 
L 118.423301 -152.43875 
L 118.751581 -150.794353 
L 118.821184 -149.149956 
L 118.611612 -147.505559 
L 118.113064 -145.861162 
L 117.327302 -144.216765 
L 116.26775 -142.572368 
L 114.958828 -140.927971 
L 113.434562 -139.283574 
L 111.736578 -137.639177 
L 109.911679 -135.99478 
L 108.009176 -134.350383 
L 106.078217 -132.705986 
L 104.165295 -131.061589 
L 102.312138 -129.417192 
L 100.554087 -127.772795 
L 98.919044 -126.128398 
L 97.42701 -124.484001 
L 96.090168 -122.839604 
L 94.913434 -121.195207 
L 93.895368 -119.55081 
L 93.029319 -117.906413 
L 92.304677 -116.262016 
L 91.708136 -114.617619 
L 91.224851 -112.973221 
L 90.83946 -111.328824 
L 90.536895 -109.684427 
L 90.302997 -108.04003 
z
" style="stroke: #3f3f3f; stroke-width: 1.25"/>
    </defs>
    <g clip-path="url(#p6a7a9141a1)">
     <use xlink:href="#m9bdb0dd385" x="0" y="360" style="fill: #b2b2b2; stroke: #3f3f3f; stroke-width: 1.25"/>
    </g>
   </g>
   <g id="PolyCollection_2">
    <defs>
     <path id="m4f6122e802" d="M 163.745842 -107.796342 
L 161.38887 -107.796342 
L 161.054013 -109.562023 
L 160.645409 -111.327704 
L 160.1532 -113.093386 
L 159.567906 -114.859067 
L 158.880934 -116.624748 
L 158.085129 -118.390429 
L 157.175359 -120.15611 
L 156.149094 -121.921792 
L 155.006928 -123.687473 
L 153.753023 -125.453154 
L 152.395411 -127.218835 
L 150.946131 -128.984517 
L 149.42118 -130.750198 
L 147.840238 -132.515879 
L 146.226202 -134.28156 
L 144.604521 -136.047242 
L 143.002371 -137.812923 
L 141.44772 -139.578604 
L 139.968331 -141.344285 
L 138.590765 -143.109966 
L 137.339437 -144.875648 
L 136.235783 -146.641329 
L 135.297574 -148.40701 
L 134.53841 -150.172691 
L 133.9674 -151.938373 
L 133.589034 -153.704054 
L 133.403242 -155.469735 
L 133.405593 -157.235416 
L 133.587646 -159.001098 
L 133.937382 -160.766779 
L 134.439731 -162.53246 
L 135.077139 -164.298141 
L 135.830175 -166.063822 
L 136.678145 -167.829504 
L 137.599727 -169.595185 
L 138.573583 -171.360866 
L 139.578961 -173.126547 
L 140.59626 -174.892229 
L 141.607542 -176.65791 
L 142.59698 -178.423591 
L 143.55121 -180.189272 
L 144.459579 -181.954954 
L 145.314268 -183.720635 
L 146.110283 -185.486316 
L 146.845314 -187.251997 
L 147.519472 -189.017678 
L 148.134918 -190.78336 
L 148.695414 -192.549041 
L 149.205828 -194.314722 
L 149.671629 -196.080403 
L 150.098404 -197.846085 
L 150.491439 -199.611766 
L 150.855378 -201.377447 
L 151.193991 -203.143128 
L 151.510044 -204.908809 
L 151.805287 -206.674491 
L 152.080539 -208.440172 
L 152.335849 -210.205853 
L 152.570732 -211.971534 
L 152.784425 -213.737216 
L 152.976165 -215.502897 
L 153.145455 -217.268578 
L 153.2923 -219.034259 
L 153.417395 -220.799941 
L 153.522267 -222.565622 
L 153.609343 -224.331303 
L 153.681973 -226.096984 
L 153.74437 -227.862665 
L 153.80151 -229.628347 
L 153.858967 -231.394028 
L 153.922708 -233.159709 
L 153.998851 -234.92539 
L 154.093398 -236.691072 
L 154.211957 -238.456753 
L 154.359469 -240.222434 
L 154.539947 -241.988115 
L 154.756259 -243.753797 
L 155.00995 -245.519478 
L 155.301136 -247.285159 
L 155.62846 -249.05084 
L 155.98913 -250.816521 
L 156.379032 -252.582203 
L 156.792916 -254.347884 
L 157.224632 -256.113565 
L 157.667426 -257.879246 
L 158.114246 -259.644928 
L 158.558058 -261.410609 
L 158.992155 -263.17629 
L 159.410417 -264.941971 
L 159.807534 -266.707653 
L 160.179167 -268.473334 
L 160.52204 -270.239015 
L 160.833975 -272.004696 
L 161.113863 -273.770377 
L 161.36158 -275.536059 
L 161.577872 -277.30174 
L 161.764205 -279.067421 
L 161.922602 -280.833102 
L 162.05548 -282.598784 
L 163.079233 -282.598784 
L 163.079233 -282.598784 
L 163.212111 -280.833102 
L 163.370508 -279.067421 
L 163.556841 -277.30174 
L 163.773133 -275.536059 
L 164.02085 -273.770377 
L 164.300738 -272.004696 
L 164.612673 -270.239015 
L 164.955546 -268.473334 
L 165.327179 -266.707653 
L 165.724296 -264.941971 
L 166.142558 -263.17629 
L 166.576655 -261.410609 
L 167.020467 -259.644928 
L 167.467287 -257.879246 
L 167.910081 -256.113565 
L 168.341797 -254.347884 
L 168.755681 -252.582203 
L 169.145583 -250.816521 
L 169.506253 -249.05084 
L 169.833577 -247.285159 
L 170.124763 -245.519478 
L 170.378454 -243.753797 
L 170.594766 -241.988115 
L 170.775244 -240.222434 
L 170.922756 -238.456753 
L 171.041315 -236.691072 
L 171.135862 -234.92539 
L 171.212005 -233.159709 
L 171.275746 -231.394028 
L 171.333203 -229.628347 
L 171.390343 -227.862665 
L 171.45274 -226.096984 
L 171.525369 -224.331303 
L 171.612446 -222.565622 
L 171.717318 -220.799941 
L 171.842413 -219.034259 
L 171.989258 -217.268578 
L 172.158548 -215.502897 
L 172.350288 -213.737216 
L 172.563981 -211.971534 
L 172.798864 -210.205853 
L 173.054174 -208.440172 
L 173.329426 -206.674491 
L 173.624669 -204.908809 
L 173.940722 -203.143128 
L 174.279335 -201.377447 
L 174.643274 -199.611766 
L 175.036309 -197.846085 
L 175.463084 -196.080403 
L 175.928884 -194.314722 
L 176.439299 -192.549041 
L 176.999795 -190.78336 
L 177.615241 -189.017678 
L 178.289399 -187.251997 
L 179.02443 -185.486316 
L 179.820445 -183.720635 
L 180.675134 -181.954954 
L 181.583503 -180.189272 
L 182.537733 -178.423591 
L 183.527171 -176.65791 
L 184.538453 -174.892229 
L 185.555751 -173.126547 
L 186.56113 -171.360866 
L 187.534986 -169.595185 
L 188.456568 -167.829504 
L 189.304538 -166.063822 
L 190.057573 -164.298141 
L 190.694982 -162.53246 
L 191.197331 -160.766779 
L 191.547067 -159.001098 
L 191.72912 -157.235416 
L 191.731471 -155.469735 
L 191.545679 -153.704054 
L 191.167313 -151.938373 
L 190.596303 -150.172691 
L 189.837138 -148.40701 
L 188.89893 -146.641329 
L 187.795276 -144.875648 
L 186.543948 -143.109966 
L 185.166382 -141.344285 
L 183.686993 -139.578604 
L 182.132342 -137.812923 
L 180.530192 -136.047242 
L 178.908511 -134.28156 
L 177.294475 -132.515879 
L 175.713533 -130.750198 
L 174.188581 -128.984517 
L 172.739302 -127.218835 
L 171.38169 -125.453154 
L 170.127785 -123.687473 
L 168.985619 -121.921792 
L 167.959354 -120.15611 
L 167.049584 -118.390429 
L 166.253779 -116.624748 
L 165.566807 -114.859067 
L 164.981513 -113.093386 
L 164.489304 -111.327704 
L 164.0807 -109.562023 
L 163.745842 -107.796342 
z
" style="stroke: #3f3f3f; stroke-width: 1.25"/>
    </defs>
    <g clip-path="url(#p6a7a9141a1)">
     <use xlink:href="#m4f6122e802" x="0" y="360" style="fill: #891ab9; stroke: #3f3f3f; stroke-width: 1.25"/>
    </g>
   </g>
   <g id="PolyCollection_3">
    <defs>
     <path id="m05b66a711e" d="M 237.049662 -107.400571 
L 233.905625 -107.400571 
L 233.472672 -109.378054 
L 232.949334 -111.355538 
L 232.325155 -113.333022 
L 231.590687 -115.310505 
L 230.738143 -117.287989 
L 229.762086 -119.265473 
L 228.660122 -121.242956 
L 227.43353 -123.22044 
L 226.0878 -125.197924 
L 224.633008 -127.175407 
L 223.083982 -129.152891 
L 221.460236 -131.130375 
L 219.785632 -133.107858 
L 218.087781 -135.085342 
L 216.397185 -137.062826 
L 214.746171 -139.04031 
L 213.167671 -141.017793 
L 211.693903 -142.995277 
L 210.355054 -144.972761 
L 209.178034 -146.950244 
L 208.185371 -148.927728 
L 207.39433 -150.905212 
L 206.816287 -152.882695 
L 206.456391 -154.860179 
L 206.313529 -156.837663 
L 206.38057 -158.815146 
L 206.644865 -160.79263 
L 207.088953 -162.770114 
L 207.691435 -164.747598 
L 208.427945 -166.725081 
L 209.272176 -168.702565 
L 210.19691 -170.680049 
L 211.175013 -172.657532 
L 212.180351 -174.635016 
L 213.188616 -176.6125 
L 214.178023 -178.589983 
L 215.129887 -180.567467 
L 216.029036 -182.544951 
L 216.864089 -184.522434 
L 217.627569 -186.499918 
L 218.315858 -188.477402 
L 218.929002 -190.454885 
L 219.470378 -192.432369 
L 219.946232 -194.409853 
L 220.365114 -196.387337 
L 220.737243 -198.36482 
L 221.073828 -200.342304 
L 221.386384 -202.319788 
L 221.686082 -204.297271 
L 221.983154 -206.274755 
L 222.286397 -208.252239 
L 222.602785 -210.229722 
L 222.93721 -212.207206 
L 223.29236 -214.18469 
L 223.668717 -216.162173 
L 224.064689 -218.139657 
L 224.476839 -220.117141 
L 224.900202 -222.094624 
L 225.328671 -224.072108 
L 225.755416 -226.049592 
L 226.173322 -228.027076 
L 226.575429 -230.004559 
L 226.955334 -231.982043 
L 227.307563 -233.959527 
L 227.627869 -235.93701 
L 227.913477 -237.914494 
L 228.163232 -239.891978 
L 228.377672 -241.869461 
L 228.559007 -243.846945 
L 228.711012 -245.824429 
L 228.838835 -247.801912 
L 228.948733 -249.779396 
L 229.047742 -251.75688 
L 229.143311 -253.734364 
L 229.242899 -255.711847 
L 229.353582 -257.689331 
L 229.481668 -259.666815 
L 229.63237 -261.644298 
L 229.809533 -263.621782 
L 230.015449 -265.599266 
L 230.250764 -267.576749 
L 230.514486 -269.554233 
L 230.804087 -271.531717 
L 231.115698 -273.5092 
L 231.444371 -275.486684 
L 231.784394 -277.464168 
L 232.129635 -279.441651 
L 232.473885 -281.419135 
L 232.811181 -283.396619 
L 233.136091 -285.374103 
L 233.44393 -287.351586 
L 233.730927 -289.32907 
L 233.994301 -291.306554 
L 234.232288 -293.284037 
L 234.444092 -295.261521 
L 234.629798 -297.239005 
L 234.79024 -299.216488 
L 234.926854 -301.193972 
L 235.041518 -303.171456 
L 235.913769 -303.171456 
L 235.913769 -303.171456 
L 236.028434 -301.193972 
L 236.165047 -299.216488 
L 236.325489 -297.239005 
L 236.511195 -295.261521 
L 236.722999 -293.284037 
L 236.960986 -291.306554 
L 237.22436 -289.32907 
L 237.511357 -287.351586 
L 237.819196 -285.374103 
L 238.144106 -283.396619 
L 238.481402 -281.419135 
L 238.825652 -279.441651 
L 239.170893 -277.464168 
L 239.510916 -275.486684 
L 239.839589 -273.5092 
L 240.1512 -271.531717 
L 240.440801 -269.554233 
L 240.704523 -267.576749 
L 240.939838 -265.599266 
L 241.145754 -263.621782 
L 241.322917 -261.644298 
L 241.473619 -259.666815 
L 241.601706 -257.689331 
L 241.712388 -255.711847 
L 241.811976 -253.734364 
L 241.907545 -251.75688 
L 242.006554 -249.779396 
L 242.116452 -247.801912 
L 242.244275 -245.824429 
L 242.39628 -243.846945 
L 242.577615 -241.869461 
L 242.792055 -239.891978 
L 243.04181 -237.914494 
L 243.327418 -235.93701 
L 243.647724 -233.959527 
L 243.999953 -231.982043 
L 244.379858 -230.004559 
L 244.781965 -228.027076 
L 245.199871 -226.049592 
L 245.626616 -224.072108 
L 246.055085 -222.094624 
L 246.478448 -220.117141 
L 246.890598 -218.139657 
L 247.28657 -216.162173 
L 247.662927 -214.18469 
L 248.018077 -212.207206 
L 248.352503 -210.229722 
L 248.66889 -208.252239 
L 248.972133 -206.274755 
L 249.269205 -204.297271 
L 249.568903 -202.319788 
L 249.881459 -200.342304 
L 250.218044 -198.36482 
L 250.590173 -196.387337 
L 251.009055 -194.409853 
L 251.484909 -192.432369 
L 252.026285 -190.454885 
L 252.639429 -188.477402 
L 253.327718 -186.499918 
L 254.091198 -184.522434 
L 254.926252 -182.544951 
L 255.8254 -180.567467 
L 256.777264 -178.589983 
L 257.766671 -176.6125 
L 258.774936 -174.635016 
L 259.780274 -172.657532 
L 260.758377 -170.680049 
L 261.683111 -168.702565 
L 262.527342 -166.725081 
L 263.263852 -164.747598 
L 263.866334 -162.770114 
L 264.310422 -160.79263 
L 264.574717 -158.815146 
L 264.641758 -156.837663 
L 264.498897 -154.860179 
L 264.139 -152.882695 
L 263.560957 -150.905212 
L 262.769916 -148.927728 
L 261.777253 -146.950244 
L 260.600233 -144.972761 
L 259.261384 -142.995277 
L 257.787616 -141.017793 
L 256.209116 -139.04031 
L 254.558102 -137.062826 
L 252.867506 -135.085342 
L 251.169655 -133.107858 
L 249.495051 -131.130375 
L 247.871305 -129.152891 
L 246.322279 -127.175407 
L 244.867487 -125.197924 
L 243.521757 -123.22044 
L 242.295165 -121.242956 
L 241.193201 -119.265473 
L 240.217144 -117.287989 
L 239.3646 -115.310505 
L 238.630132 -113.333022 
L 238.005953 -111.355538 
L 237.482615 -109.378054 
L 237.049662 -107.400571 
z
" style="stroke: #3f3f3f; stroke-width: 1.25"/>
    </defs>
    <g clip-path="url(#p6a7a9141a1)">
     <use xlink:href="#m05b66a711e" x="0" y="360" style="fill: #df9c20; stroke: #3f3f3f; stroke-width: 1.25"/>
    </g>
   </g>
   <g id="PolyCollection_4">
    <defs>
     <path id="m55ee557f9b" d="M 309.690453 -111.507048 
L 307.085408 -111.507048 
L 306.718908 -112.995294 
L 306.273111 -114.483539 
L 305.737873 -115.971785 
L 305.103601 -117.460031 
L 304.361797 -118.948276 
L 303.505647 -120.436522 
L 302.53064 -121.924767 
L 301.435167 -123.413013 
L 300.221059 -124.901258 
L 298.894033 -126.389504 
L 297.463982 -127.87775 
L 295.945093 -129.365995 
L 294.355758 -130.854241 
L 292.718261 -132.342486 
L 291.05824 -133.830732 
L 289.403948 -135.318977 
L 287.785339 -136.807223 
L 286.233012 -138.295469 
L 284.777088 -139.783714 
L 283.446066 -141.27196 
L 282.265715 -142.760205 
L 281.258083 -144.248451 
L 280.440647 -145.736696 
L 279.825671 -147.224942 
L 279.419785 -148.713188 
L 279.223816 -150.201433 
L 279.232858 -151.689679 
L 279.436592 -153.177924 
L 279.819816 -154.66617 
L 280.36317 -156.154415 
L 281.044021 -157.642661 
L 281.837449 -159.130907 
L 282.717314 -160.619152 
L 283.657333 -162.107398 
L 284.632132 -163.595643 
L 285.618223 -165.083889 
L 286.594854 -166.572135 
L 287.544696 -168.06038 
L 288.45433 -169.548626 
L 289.314504 -171.036871 
L 290.120158 -172.525117 
L 290.870199 -174.013362 
L 291.567058 -175.501608 
L 292.216049 -176.989854 
L 292.824586 -178.478099 
L 293.401304 -179.966345 
L 293.955157 -181.45459 
L 294.494554 -182.942836 
L 295.026605 -184.431081 
L 295.556522 -185.919327 
L 296.087217 -187.407573 
L 296.619121 -188.895818 
L 297.150228 -190.384064 
L 297.676342 -191.872309 
L 298.191501 -193.360555 
L 298.688522 -194.8488 
L 299.159628 -196.337046 
L 299.597091 -197.825292 
L 299.99384 -199.313537 
L 300.344 -200.801783 
L 300.643317 -202.290028 
L 300.889452 -203.778274 
L 301.082141 -205.266519 
L 301.22322 -206.754765 
L 301.316529 -208.243011 
L 301.367712 -209.731256 
L 301.383935 -211.219502 
L 301.373555 -212.707747 
L 301.345742 -214.195993 
L 301.310093 -215.684238 
L 301.276247 -217.172484 
L 301.253509 -218.66073 
L 301.250506 -220.148975 
L 301.274873 -221.637221 
L 301.332986 -223.125466 
L 301.429743 -224.613712 
L 301.568414 -226.101957 
L 301.750541 -227.590203 
L 301.975925 -229.078449 
L 302.242673 -230.566694 
L 302.547326 -232.05494 
L 302.885051 -233.543185 
L 303.249893 -235.031431 
L 303.635066 -236.519677 
L 304.033285 -238.007922 
L 304.437097 -239.496168 
L 304.839207 -240.984413 
L 305.232779 -242.472659 
L 305.611688 -243.960904 
L 305.970717 -245.44915 
L 306.305695 -246.937396 
L 306.61356 -248.425641 
L 306.892364 -249.913887 
L 307.141221 -251.402132 
L 307.360201 -252.890378 
L 307.550198 -254.378623 
L 307.71277 -255.866869 
L 307.849971 -257.355115 
L 307.964189 -258.84336 
L 308.811672 -258.84336 
L 308.811672 -258.84336 
L 308.92589 -257.355115 
L 309.063091 -255.866869 
L 309.225663 -254.378623 
L 309.41566 -252.890378 
L 309.63464 -251.402132 
L 309.883497 -249.913887 
L 310.162301 -248.425641 
L 310.470166 -246.937396 
L 310.805144 -245.44915 
L 311.164173 -243.960904 
L 311.543082 -242.472659 
L 311.936654 -240.984413 
L 312.338765 -239.496168 
L 312.742576 -238.007922 
L 313.140795 -236.519677 
L 313.525968 -235.031431 
L 313.89081 -233.543185 
L 314.228535 -232.05494 
L 314.533189 -230.566694 
L 314.799936 -229.078449 
L 315.02532 -227.590203 
L 315.207447 -226.101957 
L 315.346118 -224.613712 
L 315.442876 -223.125466 
L 315.500988 -221.637221 
L 315.525355 -220.148975 
L 315.522352 -218.66073 
L 315.499614 -217.172484 
L 315.465768 -215.684238 
L 315.43012 -214.195993 
L 315.402306 -212.707747 
L 315.391926 -211.219502 
L 315.40815 -209.731256 
L 315.459332 -208.243011 
L 315.552641 -206.754765 
L 315.69372 -205.266519 
L 315.886409 -203.778274 
L 316.132544 -202.290028 
L 316.431861 -200.801783 
L 316.782021 -199.313537 
L 317.178771 -197.825292 
L 317.616233 -196.337046 
L 318.087339 -194.8488 
L 318.58436 -193.360555 
L 319.099519 -191.872309 
L 319.625634 -190.384064 
L 320.156741 -188.895818 
L 320.688644 -187.407573 
L 321.219339 -185.919327 
L 321.749256 -184.431081 
L 322.281308 -182.942836 
L 322.820705 -181.45459 
L 323.374557 -179.966345 
L 323.951275 -178.478099 
L 324.559812 -176.989854 
L 325.208804 -175.501608 
L 325.905662 -174.013362 
L 326.655703 -172.525117 
L 327.461357 -171.036871 
L 328.321532 -169.548626 
L 329.231165 -168.06038 
L 330.181007 -166.572135 
L 331.157638 -165.083889 
L 332.143729 -163.595643 
L 333.118528 -162.107398 
L 334.058547 -160.619152 
L 334.938412 -159.130907 
L 335.731841 -157.642661 
L 336.412691 -156.154415 
L 336.956046 -154.66617 
L 337.339269 -153.177924 
L 337.543003 -151.689679 
L 337.552045 -150.201433 
L 337.356076 -148.713188 
L 336.950191 -147.224942 
L 336.335214 -145.736696 
L 335.517778 -144.248451 
L 334.510146 -142.760205 
L 333.329796 -141.27196 
L 331.998773 -139.783714 
L 330.54285 -138.295469 
L 328.990522 -136.807223 
L 327.371913 -135.318977 
L 325.717621 -133.830732 
L 324.0576 -132.342486 
L 322.420103 -130.854241 
L 320.830768 -129.365995 
L 319.31188 -127.87775 
L 317.881828 -126.389504 
L 316.554802 -124.901258 
L 315.340695 -123.413013 
L 314.245221 -121.924767 
L 313.270214 -120.436522 
L 312.414064 -118.948276 
L 311.67226 -117.460031 
L 311.037989 -115.971785 
L 310.502751 -114.483539 
L 310.056953 -112.995294 
L 309.690453 -111.507048 
z
" style="stroke: #3f3f3f; stroke-width: 1.25"/>
    </defs>
    <g clip-path="url(#p6a7a9141a1)">
     <use xlink:href="#m55ee557f9b" x="0" y="360" style="fill: #df2020; stroke: #3f3f3f; stroke-width: 1.25"/>
    </g>
   </g>
   <g id="matplotlib.axis_1">
    <g id="xtick_1">
     <g id="line2d_1">
      <defs>
       <path id="mcfbbc68c94" d="M 0 0 
L 0 3.5 
" style="stroke: #000000; stroke-width: 0.8"/>
      </defs>
      <g>
       <use xlink:href="#mcfbbc68c94" x="89.657069" y="262.387974" style="stroke: #000000; stroke-width: 0.8"/>
      </g>
     </g>
     <g id="text_1">
      <!-- sur -->
      <g transform="translate(77.114763 285.832626) rotate(-45) scale(0.1 -0.1)">
       <defs>
        <path id="DejaVuSans-73" d="M 2834 3397 
L 2834 2853 
Q 2591 2978 2328 3040 
Q 2066 3103 1784 3103 
Q 1356 3103 1142 2972 
Q 928 2841 928 2578 
Q 928 2378 1081 2264 
Q 1234 2150 1697 2047 
L 1894 2003 
Q 2506 1872 2764 1633 
Q 3022 1394 3022 966 
Q 3022 478 2636 193 
Q 2250 -91 1575 -91 
Q 1294 -91 989 -36 
Q 684 19 347 128 
L 347 722 
Q 666 556 975 473 
Q 1284 391 1588 391 
Q 1994 391 2212 530 
Q 2431 669 2431 922 
Q 2431 1156 2273 1281 
Q 2116 1406 1581 1522 
L 1381 1569 
Q 847 1681 609 1914 
Q 372 2147 372 2553 
Q 372 3047 722 3315 
Q 1072 3584 1716 3584 
Q 2034 3584 2315 3537 
Q 2597 3491 2834 3397 
z
" transform="scale(0.015625)"/>
        <path id="DejaVuSans-75" d="M 544 1381 
L 544 3500 
L 1119 3500 
L 1119 1403 
Q 1119 906 1312 657 
Q 1506 409 1894 409 
Q 2359 409 2629 706 
Q 2900 1003 2900 1516 
L 2900 3500 
L 3475 3500 
L 3475 0 
L 2900 0 
L 2900 538 
Q 2691 219 2414 64 
Q 2138 -91 1772 -91 
Q 1169 -91 856 284 
Q 544 659 544 1381 
z
M 1991 3584 
L 1991 3584 
z
" transform="scale(0.015625)"/>
        <path id="DejaVuSans-72" d="M 2631 2963 
Q 2534 3019 2420 3045 
Q 2306 3072 2169 3072 
Q 1681 3072 1420 2755 
Q 1159 2438 1159 1844 
L 1159 0 
L 581 0 
L 581 3500 
L 1159 3500 
L 1159 2956 
Q 1341 3275 1631 3429 
Q 1922 3584 2338 3584 
Q 2397 3584 2469 3576 
Q 2541 3569 2628 3553 
L 2631 2963 
z
" transform="scale(0.015625)"/>
       </defs>
       <use xlink:href="#DejaVuSans-73"/>
       <use xlink:href="#DejaVuSans-75" x="52.099609"/>
       <use xlink:href="#DejaVuSans-72" x="115.478516"/>
      </g>
     </g>
    </g>
    <g id="xtick_2">
     <g id="line2d_2">
      <g>
       <use xlink:href="#mcfbbc68c94" x="162.567356" y="262.387974" style="stroke: #000000; stroke-width: 0.8"/>
      </g>
     </g>
     <g id="text_2">
      <!-- iso90 -->
      <g transform="translate(142.124237 293.733439) rotate(-45) scale(0.1 -0.1)">
       <defs>
        <path id="DejaVuSans-69" d="M 603 3500 
L 1178 3500 
L 1178 0 
L 603 0 
L 603 3500 
z
M 603 4863 
L 1178 4863 
L 1178 4134 
L 603 4134 
L 603 4863 
z
" transform="scale(0.015625)"/>
        <path id="DejaVuSans-6f" d="M 1959 3097 
Q 1497 3097 1228 2736 
Q 959 2375 959 1747 
Q 959 1119 1226 758 
Q 1494 397 1959 397 
Q 2419 397 2687 759 
Q 2956 1122 2956 1747 
Q 2956 2369 2687 2733 
Q 2419 3097 1959 3097 
z
M 1959 3584 
Q 2709 3584 3137 3096 
Q 3566 2609 3566 1747 
Q 3566 888 3137 398 
Q 2709 -91 1959 -91 
Q 1206 -91 779 398 
Q 353 888 353 1747 
Q 353 2609 779 3096 
Q 1206 3584 1959 3584 
z
" transform="scale(0.015625)"/>
        <path id="DejaVuSans-39" d="M 703 97 
L 703 672 
Q 941 559 1184 500 
Q 1428 441 1663 441 
Q 2288 441 2617 861 
Q 2947 1281 2994 2138 
Q 2813 1869 2534 1725 
Q 2256 1581 1919 1581 
Q 1219 1581 811 2004 
Q 403 2428 403 3163 
Q 403 3881 828 4315 
Q 1253 4750 1959 4750 
Q 2769 4750 3195 4129 
Q 3622 3509 3622 2328 
Q 3622 1225 3098 567 
Q 2575 -91 1691 -91 
Q 1453 -91 1209 -44 
Q 966 3 703 97 
z
M 1959 2075 
Q 2384 2075 2632 2365 
Q 2881 2656 2881 3163 
Q 2881 3666 2632 3958 
Q 2384 4250 1959 4250 
Q 1534 4250 1286 3958 
Q 1038 3666 1038 3163 
Q 1038 2656 1286 2365 
Q 1534 2075 1959 2075 
z
" transform="scale(0.015625)"/>
        <path id="DejaVuSans-30" d="M 2034 4250 
Q 1547 4250 1301 3770 
Q 1056 3291 1056 2328 
Q 1056 1369 1301 889 
Q 1547 409 2034 409 
Q 2525 409 2770 889 
Q 3016 1369 3016 2328 
Q 3016 3291 2770 3770 
Q 2525 4250 2034 4250 
z
M 2034 4750 
Q 2819 4750 3233 4129 
Q 3647 3509 3647 2328 
Q 3647 1150 3233 529 
Q 2819 -91 2034 -91 
Q 1250 -91 836 529 
Q 422 1150 422 2328 
Q 422 3509 836 4129 
Q 1250 4750 2034 4750 
z
" transform="scale(0.015625)"/>
       </defs>
       <use xlink:href="#DejaVuSans-69"/>
       <use xlink:href="#DejaVuSans-73" x="27.783203"/>
       <use xlink:href="#DejaVuSans-6f" x="79.882812"/>
       <use xlink:href="#DejaVuSans-39" x="141.064453"/>
       <use xlink:href="#DejaVuSans-30" x="204.6875"/>
      </g>
     </g>
    </g>
    <g id="xtick_3">
     <g id="line2d_3">
      <g>
       <use xlink:href="#mcfbbc68c94" x="235.477644" y="262.387974" style="stroke: #000000; stroke-width: 0.8"/>
      </g>
     </g>
     <g id="text_3">
      <!-- orth -->
      <g transform="translate(219.520232 289.247731) rotate(-45) scale(0.1 -0.1)">
       <defs>
        <path id="DejaVuSans-74" d="M 1172 4494 
L 1172 3500 
L 2356 3500 
L 2356 3053 
L 1172 3053 
L 1172 1153 
Q 1172 725 1289 603 
Q 1406 481 1766 481 
L 2356 481 
L 2356 0 
L 1766 0 
Q 1100 0 847 248 
Q 594 497 594 1153 
L 594 3053 
L 172 3053 
L 172 3500 
L 594 3500 
L 594 4494 
L 1172 4494 
z
" transform="scale(0.015625)"/>
        <path id="DejaVuSans-68" d="M 3513 2113 
L 3513 0 
L 2938 0 
L 2938 2094 
Q 2938 2591 2744 2837 
Q 2550 3084 2163 3084 
Q 1697 3084 1428 2787 
Q 1159 2491 1159 1978 
L 1159 0 
L 581 0 
L 581 4863 
L 1159 4863 
L 1159 2956 
Q 1366 3272 1645 3428 
Q 1925 3584 2291 3584 
Q 2894 3584 3203 3211 
Q 3513 2838 3513 2113 
z
" transform="scale(0.015625)"/>
       </defs>
       <use xlink:href="#DejaVuSans-6f"/>
       <use xlink:href="#DejaVuSans-72" x="61.181641"/>
       <use xlink:href="#DejaVuSans-74" x="102.294922"/>
       <use xlink:href="#DejaVuSans-68" x="141.503906"/>
      </g>
     </g>
    </g>
    <g id="xtick_4">
     <g id="line2d_4">
      <g>
       <use xlink:href="#mcfbbc68c94" x="308.387931" y="262.387974" style="stroke: #000000; stroke-width: 0.8"/>
      </g>
     </g>
     <g id="text_4">
      <!-- iso0 -->
      <g transform="translate(292.443778 289.234472) rotate(-45) scale(0.1 -0.1)">
       <use xlink:href="#DejaVuSans-69"/>
       <use xlink:href="#DejaVuSans-73" x="27.783203"/>
       <use xlink:href="#DejaVuSans-6f" x="79.882812"/>
       <use xlink:href="#DejaVuSans-30" x="141.064453"/>
      </g>
     </g>
    </g>
   </g>
   <g id="matplotlib.axis_2">
    <g id="ytick_1">
     <g id="line2d_5">
      <defs>
       <path id="mb294169837" d="M 0 0 
L -3.5 0 
" style="stroke: #000000; stroke-width: 0.8"/>
      </defs>
      <g>
       <use xlink:href="#mb294169837" x="46.64" y="257.929059" style="stroke: #000000; stroke-width: 0.8"/>
      </g>
     </g>
     <g id="text_5">
      <!-- −5 -->
      <g transform="translate(24.897813 261.728278) scale(0.1 -0.1)">
       <defs>
        <path id="DejaVuSans-2212" d="M 678 2272 
L 4684 2272 
L 4684 1741 
L 678 1741 
L 678 2272 
z
" transform="scale(0.015625)"/>
        <path id="DejaVuSans-35" d="M 691 4666 
L 3169 4666 
L 3169 4134 
L 1269 4134 
L 1269 2991 
Q 1406 3038 1543 3061 
Q 1681 3084 1819 3084 
Q 2600 3084 3056 2656 
Q 3513 2228 3513 1497 
Q 3513 744 3044 326 
Q 2575 -91 1722 -91 
Q 1428 -91 1123 -41 
Q 819 9 494 109 
L 494 744 
Q 775 591 1075 516 
Q 1375 441 1709 441 
Q 2250 441 2565 725 
Q 2881 1009 2881 1497 
Q 2881 1984 2565 2268 
Q 2250 2553 1709 2553 
Q 1456 2553 1204 2497 
Q 953 2441 691 2322 
L 691 4666 
z
" transform="scale(0.015625)"/>
       </defs>
       <use xlink:href="#DejaVuSans-2212"/>
       <use xlink:href="#DejaVuSans-35" x="83.789062"/>
      </g>
     </g>
    </g>
    <g id="ytick_2">
     <g id="line2d_6">
      <g>
       <use xlink:href="#mb294169837" x="46.64" y="228.315037" style="stroke: #000000; stroke-width: 0.8"/>
      </g>
     </g>
     <g id="text_6">
      <!-- 0 -->
      <g transform="translate(33.2775 232.114256) scale(0.1 -0.1)">
       <use xlink:href="#DejaVuSans-30"/>
      </g>
     </g>
    </g>
    <g id="ytick_3">
     <g id="line2d_7">
      <g>
       <use xlink:href="#mb294169837" x="46.64" y="198.701015" style="stroke: #000000; stroke-width: 0.8"/>
      </g>
     </g>
     <g id="text_7">
      <!-- 5 -->
      <g transform="translate(33.2775 202.500234) scale(0.1 -0.1)">
       <use xlink:href="#DejaVuSans-35"/>
      </g>
     </g>
    </g>
    <g id="ytick_4">
     <g id="line2d_8">
      <g>
       <use xlink:href="#mb294169837" x="46.64" y="169.086993" style="stroke: #000000; stroke-width: 0.8"/>
      </g>
     </g>
     <g id="text_8">
      <!-- 10 -->
      <g transform="translate(26.915 172.886212) scale(0.1 -0.1)">
       <defs>
        <path id="DejaVuSans-31" d="M 794 531 
L 1825 531 
L 1825 4091 
L 703 3866 
L 703 4441 
L 1819 4666 
L 2450 4666 
L 2450 531 
L 3481 531 
L 3481 0 
L 794 0 
L 794 531 
z
" transform="scale(0.015625)"/>
       </defs>
       <use xlink:href="#DejaVuSans-31"/>
       <use xlink:href="#DejaVuSans-30" x="63.623047"/>
      </g>
     </g>
    </g>
    <g id="ytick_5">
     <g id="line2d_9">
      <g>
       <use xlink:href="#mb294169837" x="46.64" y="139.472971" style="stroke: #000000; stroke-width: 0.8"/>
      </g>
     </g>
     <g id="text_9">
      <!-- 15 -->
      <g transform="translate(26.915 143.27219) scale(0.1 -0.1)">
       <use xlink:href="#DejaVuSans-31"/>
       <use xlink:href="#DejaVuSans-35" x="63.623047"/>
      </g>
     </g>
    </g>
    <g id="ytick_6">
     <g id="line2d_10">
      <g>
       <use xlink:href="#mb294169837" x="46.64" y="109.858949" style="stroke: #000000; stroke-width: 0.8"/>
      </g>
     </g>
     <g id="text_10">
      <!-- 20 -->
      <g transform="translate(26.915 113.658168) scale(0.1 -0.1)">
       <defs>
        <path id="DejaVuSans-32" d="M 1228 531 
L 3431 531 
L 3431 0 
L 469 0 
L 469 531 
Q 828 903 1448 1529 
Q 2069 2156 2228 2338 
Q 2531 2678 2651 2914 
Q 2772 3150 2772 3378 
Q 2772 3750 2511 3984 
Q 2250 4219 1831 4219 
Q 1534 4219 1204 4116 
Q 875 4013 500 3803 
L 500 4441 
Q 881 4594 1212 4672 
Q 1544 4750 1819 4750 
Q 2544 4750 2975 4387 
Q 3406 4025 3406 3419 
Q 3406 3131 3298 2873 
Q 3191 2616 2906 2266 
Q 2828 2175 2409 1742 
Q 1991 1309 1228 531 
z
" transform="scale(0.015625)"/>
       </defs>
       <use xlink:href="#DejaVuSans-32"/>
       <use xlink:href="#DejaVuSans-30" x="63.623047"/>
      </g>
     </g>
    </g>
    <g id="ytick_7">
     <g id="line2d_11">
      <g>
       <use xlink:href="#mb294169837" x="46.64" y="80.244927" style="stroke: #000000; stroke-width: 0.8"/>
      </g>
     </g>
     <g id="text_11">
      <!-- 25 -->
      <g transform="translate(26.915 84.044146) scale(0.1 -0.1)">
       <use xlink:href="#DejaVuSans-32"/>
       <use xlink:href="#DejaVuSans-35" x="63.623047"/>
      </g>
     </g>
    </g>
    <g id="ytick_8">
     <g id="line2d_12">
      <g>
       <use xlink:href="#mb294169837" x="46.64" y="50.630905" style="stroke: #000000; stroke-width: 0.8"/>
      </g>
     </g>
     <g id="text_12">
      <!-- 30 -->
      <g transform="translate(26.915 54.430124) scale(0.1 -0.1)">
       <defs>
        <path id="DejaVuSans-33" d="M 2597 2516 
Q 3050 2419 3304 2112 
Q 3559 1806 3559 1356 
Q 3559 666 3084 287 
Q 2609 -91 1734 -91 
Q 1441 -91 1130 -33 
Q 819 25 488 141 
L 488 750 
Q 750 597 1062 519 
Q 1375 441 1716 441 
Q 2309 441 2620 675 
Q 2931 909 2931 1356 
Q 2931 1769 2642 2001 
Q 2353 2234 1838 2234 
L 1294 2234 
L 1294 2753 
L 1863 2753 
Q 2328 2753 2575 2939 
Q 2822 3125 2822 3475 
Q 2822 3834 2567 4026 
Q 2313 4219 1838 4219 
Q 1578 4219 1281 4162 
Q 984 4106 628 3988 
L 628 4550 
Q 988 4650 1302 4700 
Q 1616 4750 1894 4750 
Q 2613 4750 3031 4423 
Q 3450 4097 3450 3541 
Q 3450 3153 3228 2886 
Q 3006 2619 2597 2516 
z
" transform="scale(0.015625)"/>
       </defs>
       <use xlink:href="#DejaVuSans-33"/>
       <use xlink:href="#DejaVuSans-30" x="63.623047"/>
      </g>
     </g>
    </g>
    <g id="text_13">
     <!-- Average BOLD Response -->
     <g transform="translate(18.818125 216.353831) rotate(-90) scale(0.1 -0.1)">
      <defs>
       <path id="DejaVuSans-41" d="M 2188 4044 
L 1331 1722 
L 3047 1722 
L 2188 4044 
z
M 1831 4666 
L 2547 4666 
L 4325 0 
L 3669 0 
L 3244 1197 
L 1141 1197 
L 716 0 
L 50 0 
L 1831 4666 
z
" transform="scale(0.015625)"/>
       <path id="DejaVuSans-76" d="M 191 3500 
L 800 3500 
L 1894 563 
L 2988 3500 
L 3597 3500 
L 2284 0 
L 1503 0 
L 191 3500 
z
" transform="scale(0.015625)"/>
       <path id="DejaVuSans-65" d="M 3597 1894 
L 3597 1613 
L 953 1613 
Q 991 1019 1311 708 
Q 1631 397 2203 397 
Q 2534 397 2845 478 
Q 3156 559 3463 722 
L 3463 178 
Q 3153 47 2828 -22 
Q 2503 -91 2169 -91 
Q 1331 -91 842 396 
Q 353 884 353 1716 
Q 353 2575 817 3079 
Q 1281 3584 2069 3584 
Q 2775 3584 3186 3129 
Q 3597 2675 3597 1894 
z
M 3022 2063 
Q 3016 2534 2758 2815 
Q 2500 3097 2075 3097 
Q 1594 3097 1305 2825 
Q 1016 2553 972 2059 
L 3022 2063 
z
" transform="scale(0.015625)"/>
       <path id="DejaVuSans-61" d="M 2194 1759 
Q 1497 1759 1228 1600 
Q 959 1441 959 1056 
Q 959 750 1161 570 
Q 1363 391 1709 391 
Q 2188 391 2477 730 
Q 2766 1069 2766 1631 
L 2766 1759 
L 2194 1759 
z
M 3341 1997 
L 3341 0 
L 2766 0 
L 2766 531 
Q 2569 213 2275 61 
Q 1981 -91 1556 -91 
Q 1019 -91 701 211 
Q 384 513 384 1019 
Q 384 1609 779 1909 
Q 1175 2209 1959 2209 
L 2766 2209 
L 2766 2266 
Q 2766 2663 2505 2880 
Q 2244 3097 1772 3097 
Q 1472 3097 1187 3025 
Q 903 2953 641 2809 
L 641 3341 
Q 956 3463 1253 3523 
Q 1550 3584 1831 3584 
Q 2591 3584 2966 3190 
Q 3341 2797 3341 1997 
z
" transform="scale(0.015625)"/>
       <path id="DejaVuSans-67" d="M 2906 1791 
Q 2906 2416 2648 2759 
Q 2391 3103 1925 3103 
Q 1463 3103 1205 2759 
Q 947 2416 947 1791 
Q 947 1169 1205 825 
Q 1463 481 1925 481 
Q 2391 481 2648 825 
Q 2906 1169 2906 1791 
z
M 3481 434 
Q 3481 -459 3084 -895 
Q 2688 -1331 1869 -1331 
Q 1566 -1331 1297 -1286 
Q 1028 -1241 775 -1147 
L 775 -588 
Q 1028 -725 1275 -790 
Q 1522 -856 1778 -856 
Q 2344 -856 2625 -561 
Q 2906 -266 2906 331 
L 2906 616 
Q 2728 306 2450 153 
Q 2172 0 1784 0 
Q 1141 0 747 490 
Q 353 981 353 1791 
Q 353 2603 747 3093 
Q 1141 3584 1784 3584 
Q 2172 3584 2450 3431 
Q 2728 3278 2906 2969 
L 2906 3500 
L 3481 3500 
L 3481 434 
z
" transform="scale(0.015625)"/>
       <path id="DejaVuSans-20" transform="scale(0.015625)"/>
       <path id="DejaVuSans-42" d="M 1259 2228 
L 1259 519 
L 2272 519 
Q 2781 519 3026 730 
Q 3272 941 3272 1375 
Q 3272 1813 3026 2020 
Q 2781 2228 2272 2228 
L 1259 2228 
z
M 1259 4147 
L 1259 2741 
L 2194 2741 
Q 2656 2741 2882 2914 
Q 3109 3088 3109 3444 
Q 3109 3797 2882 3972 
Q 2656 4147 2194 4147 
L 1259 4147 
z
M 628 4666 
L 2241 4666 
Q 2963 4666 3353 4366 
Q 3744 4066 3744 3513 
Q 3744 3084 3544 2831 
Q 3344 2578 2956 2516 
Q 3422 2416 3680 2098 
Q 3938 1781 3938 1306 
Q 3938 681 3513 340 
Q 3088 0 2303 0 
L 628 0 
L 628 4666 
z
" transform="scale(0.015625)"/>
       <path id="DejaVuSans-4f" d="M 2522 4238 
Q 1834 4238 1429 3725 
Q 1025 3213 1025 2328 
Q 1025 1447 1429 934 
Q 1834 422 2522 422 
Q 3209 422 3611 934 
Q 4013 1447 4013 2328 
Q 4013 3213 3611 3725 
Q 3209 4238 2522 4238 
z
M 2522 4750 
Q 3503 4750 4090 4092 
Q 4678 3434 4678 2328 
Q 4678 1225 4090 567 
Q 3503 -91 2522 -91 
Q 1538 -91 948 565 
Q 359 1222 359 2328 
Q 359 3434 948 4092 
Q 1538 4750 2522 4750 
z
" transform="scale(0.015625)"/>
       <path id="DejaVuSans-4c" d="M 628 4666 
L 1259 4666 
L 1259 531 
L 3531 531 
L 3531 0 
L 628 0 
L 628 4666 
z
" transform="scale(0.015625)"/>
       <path id="DejaVuSans-44" d="M 1259 4147 
L 1259 519 
L 2022 519 
Q 2988 519 3436 956 
Q 3884 1394 3884 2338 
Q 3884 3275 3436 3711 
Q 2988 4147 2022 4147 
L 1259 4147 
z
M 628 4666 
L 1925 4666 
Q 3281 4666 3915 4102 
Q 4550 3538 4550 2338 
Q 4550 1131 3912 565 
Q 3275 0 1925 0 
L 628 0 
L 628 4666 
z
" transform="scale(0.015625)"/>
       <path id="DejaVuSans-52" d="M 2841 2188 
Q 3044 2119 3236 1894 
Q 3428 1669 3622 1275 
L 4263 0 
L 3584 0 
L 2988 1197 
Q 2756 1666 2539 1819 
Q 2322 1972 1947 1972 
L 1259 1972 
L 1259 0 
L 628 0 
L 628 4666 
L 2053 4666 
Q 2853 4666 3247 4331 
Q 3641 3997 3641 3322 
Q 3641 2881 3436 2590 
Q 3231 2300 2841 2188 
z
M 1259 4147 
L 1259 2491 
L 2053 2491 
Q 2509 2491 2742 2702 
Q 2975 2913 2975 3322 
Q 2975 3731 2742 3939 
Q 2509 4147 2053 4147 
L 1259 4147 
z
" transform="scale(0.015625)"/>
       <path id="DejaVuSans-70" d="M 1159 525 
L 1159 -1331 
L 581 -1331 
L 581 3500 
L 1159 3500 
L 1159 2969 
Q 1341 3281 1617 3432 
Q 1894 3584 2278 3584 
Q 2916 3584 3314 3078 
Q 3713 2572 3713 1747 
Q 3713 922 3314 415 
Q 2916 -91 2278 -91 
Q 1894 -91 1617 61 
Q 1341 213 1159 525 
z
M 3116 1747 
Q 3116 2381 2855 2742 
Q 2594 3103 2138 3103 
Q 1681 3103 1420 2742 
Q 1159 2381 1159 1747 
Q 1159 1113 1420 752 
Q 1681 391 2138 391 
Q 2594 391 2855 752 
Q 3116 1113 3116 1747 
z
" transform="scale(0.015625)"/>
       <path id="DejaVuSans-6e" d="M 3513 2113 
L 3513 0 
L 2938 0 
L 2938 2094 
Q 2938 2591 2744 2837 
Q 2550 3084 2163 3084 
Q 1697 3084 1428 2787 
Q 1159 2491 1159 1978 
L 1159 0 
L 581 0 
L 581 3500 
L 1159 3500 
L 1159 2956 
Q 1366 3272 1645 3428 
Q 1925 3584 2291 3584 
Q 2894 3584 3203 3211 
Q 3513 2838 3513 2113 
z
" transform="scale(0.015625)"/>
      </defs>
      <use xlink:href="#DejaVuSans-41"/>
      <use xlink:href="#DejaVuSans-76" x="62.533203"/>
      <use xlink:href="#DejaVuSans-65" x="121.712891"/>
      <use xlink:href="#DejaVuSans-72" x="183.236328"/>
      <use xlink:href="#DejaVuSans-61" x="224.349609"/>
      <use xlink:href="#DejaVuSans-67" x="285.628906"/>
      <use xlink:href="#DejaVuSans-65" x="349.105469"/>
      <use xlink:href="#DejaVuSans-20" x="410.628906"/>
      <use xlink:href="#DejaVuSans-42" x="442.416016"/>
      <use xlink:href="#DejaVuSans-4f" x="509.269531"/>
      <use xlink:href="#DejaVuSans-4c" x="587.980469"/>
      <use xlink:href="#DejaVuSans-44" x="643.693359"/>
      <use xlink:href="#DejaVuSans-20" x="720.695312"/>
      <use xlink:href="#DejaVuSans-52" x="752.482422"/>
      <use xlink:href="#DejaVuSans-65" x="817.464844"/>
      <use xlink:href="#DejaVuSans-73" x="878.988281"/>
      <use xlink:href="#DejaVuSans-70" x="931.087891"/>
      <use xlink:href="#DejaVuSans-6f" x="994.564453"/>
      <use xlink:href="#DejaVuSans-6e" x="1055.746094"/>
      <use xlink:href="#DejaVuSans-73" x="1119.125"/>
      <use xlink:href="#DejaVuSans-65" x="1171.224609"/>
     </g>
    </g>
   </g>
   <g id="line2d_13">
    <path d="M 75.075012 192.765678 
L 104.239127 192.765678 
" clip-path="url(#p6a7a9141a1)" style="fill: none; stroke: #b2b2b2; stroke-width: 2; stroke-linecap: square"/>
   </g>
   <g id="line2d_14">
    <path d="M 147.985299 182.332554 
L 177.149414 182.332554 
" clip-path="url(#p6a7a9141a1)" style="fill: none; stroke: #9400d3; stroke-width: 2; stroke-linecap: square"/>
   </g>
   <g id="line2d_15">
    <path d="M 220.895586 178.35188 
L 250.059701 178.35188 
" clip-path="url(#p6a7a9141a1)" style="fill: none; stroke: #ffa500; stroke-width: 2; stroke-linecap: square"/>
   </g>
   <g id="line2d_16">
    <path d="M 293.805873 191.820853 
L 322.969988 191.820853 
" clip-path="url(#p6a7a9141a1)" style="fill: none; stroke: #ff0000; stroke-width: 2; stroke-linecap: square"/>
   </g>
   <g id="patch_3">
    <path d="M 46.64 262.387974 
L 46.64 47.04 
" style="fill: none; stroke: #000000; stroke-width: 0.8; stroke-linejoin: miter; stroke-linecap: square"/>
   </g>
   <g id="patch_4">
    <path d="M 351.405 262.387974 
L 351.405 47.04 
" style="fill: none; stroke: #000000; stroke-width: 0.8; stroke-linejoin: miter; stroke-linecap: square"/>
   </g>
   <g id="patch_5">
    <path d="M 46.64 262.387974 
L 351.405 262.387974 
" style="fill: none; stroke: #000000; stroke-width: 0.8; stroke-linejoin: miter; stroke-linecap: square"/>
   </g>
   <g id="patch_6">
    <path d="M 46.64 47.04 
L 351.405 47.04 
" style="fill: none; stroke: #000000; stroke-width: 0.8; stroke-linejoin: miter; stroke-linecap: square"/>
   </g>
   <g id="PathCollection_1">
    <defs>
     <path id="ma76c098a16" d="M 0 2.5 
C 0.663008 2.5 1.29895 2.236584 1.767767 1.767767 
C 2.236584 1.29895 2.5 0.663008 2.5 0 
C 2.5 -0.663008 2.236584 -1.29895 1.767767 -1.767767 
C 1.29895 -2.236584 0.663008 -2.5 0 -2.5 
C -0.663008 -2.5 -1.29895 -2.236584 -1.767767 -1.767767 
C -2.236584 -1.29895 -2.5 -0.663008 -2.5 0 
C -2.5 0.663008 -2.236584 1.29895 -1.767767 1.767767 
C -1.29895 2.236584 -0.663008 2.5 0 2.5 
z
"/>
    </defs>
    <g clip-path="url(#p6a7a9141a1)">
     <use xlink:href="#ma76c098a16" x="91.754149" y="211.424053" style="fill-opacity: 0.7"/>
     <use xlink:href="#ma76c098a16" x="110.202574" y="215.633484" style="fill-opacity: 0.7"/>
     <use xlink:href="#ma76c098a16" x="105.007714" y="216.356246" style="fill-opacity: 0.7"/>
     <use xlink:href="#ma76c098a16" x="79.483032" y="217.742153" style="fill-opacity: 0.7"/>
     <use xlink:href="#ma76c098a16" x="89.657069" y="194.675364" style="fill-opacity: 0.7"/>
     <use xlink:href="#ma76c098a16" x="83.169274" y="165.311031" style="fill-opacity: 0.7"/>
     <use xlink:href="#ma76c098a16" x="82.834256" y="213.893332" style="fill-opacity: 0.7"/>
     <use xlink:href="#ma76c098a16" x="89.657069" y="136.640234" style="fill-opacity: 0.7"/>
     <use xlink:href="#ma76c098a16" x="91.740485" y="190.085928" style="fill-opacity: 0.7"/>
     <use xlink:href="#ma76c098a16" x="64.707971" y="213.465092" style="fill-opacity: 0.7"/>
     <use xlink:href="#ma76c098a16" x="84.407092" y="219.476463" style="fill-opacity: 0.7"/>
     <use xlink:href="#ma76c098a16" x="93.2379" y="206.627892" style="fill-opacity: 0.7"/>
     <use xlink:href="#ma76c098a16" x="89.657069" y="225.696696" style="fill-opacity: 0.7"/>
     <use xlink:href="#ma76c098a16" x="96.99636" y="211.151807" style="fill-opacity: 0.7"/>
     <use xlink:href="#ma76c098a16" x="87.859085" y="179.83474" style="fill-opacity: 0.7"/>
     <use xlink:href="#ma76c098a16" x="100.183659" y="207.178697" style="fill-opacity: 0.7"/>
     <use xlink:href="#ma76c098a16" x="89.657069" y="144.061685" style="fill-opacity: 0.7"/>
     <use xlink:href="#ma76c098a16" x="84.481631" y="193.835681" style="fill-opacity: 0.7"/>
     <use xlink:href="#ma76c098a16" x="69.133166" y="216.155487" style="fill-opacity: 0.7"/>
     <use xlink:href="#ma76c098a16" x="83.127836" y="205.774929" style="fill-opacity: 0.7"/>
     <use xlink:href="#ma76c098a16" x="89.657069" y="201.792351" style="fill-opacity: 0.7"/>
     <use xlink:href="#ma76c098a16" x="74.355426" y="216.668809" style="fill-opacity: 0.7"/>
     <use xlink:href="#ma76c098a16" x="87.87118" y="214.789215" style="fill-opacity: 0.7"/>
     <use xlink:href="#ma76c098a16" x="89.657069" y="171.393754" style="fill-opacity: 0.7"/>
     <use xlink:href="#ma76c098a16" x="79.063413" y="210.414436" style="fill-opacity: 0.7"/>
     <use xlink:href="#ma76c098a16" x="94.545358" y="169.569967" style="fill-opacity: 0.7"/>
     <use xlink:href="#ma76c098a16" x="94.633144" y="217.897061" style="fill-opacity: 0.7"/>
     <use xlink:href="#ma76c098a16" x="84.407164" y="184.502419" style="fill-opacity: 0.7"/>
     <use xlink:href="#ma76c098a16" x="77.959051" y="204.898862" style="fill-opacity: 0.7"/>
     <use xlink:href="#ma76c098a16" x="85.594553" y="140.894612" style="fill-opacity: 0.7"/>
     <use xlink:href="#ma76c098a16" x="89.657069" y="219.491035" style="fill-opacity: 0.7"/>
     <use xlink:href="#ma76c098a16" x="104.78308" y="204.767871" style="fill-opacity: 0.7"/>
     <use xlink:href="#ma76c098a16" x="87.21205" y="208.916587" style="fill-opacity: 0.7"/>
     <use xlink:href="#ma76c098a16" x="99.822657" y="217.140262" style="fill-opacity: 0.7"/>
     <use xlink:href="#ma76c098a16" x="84.578183" y="170.127619" style="fill-opacity: 0.7"/>
     <use xlink:href="#ma76c098a16" x="82.696141" y="178.92797" style="fill-opacity: 0.7"/>
     <use xlink:href="#ma76c098a16" x="84.863999" y="199.75217" style="fill-opacity: 0.7"/>
     <use xlink:href="#ma76c098a16" x="85.729088" y="133.322795" style="fill-opacity: 0.7"/>
     <use xlink:href="#ma76c098a16" x="89.657069" y="184.532378" style="fill-opacity: 0.7"/>
     <use xlink:href="#ma76c098a16" x="88.207823" y="166.588033" style="fill-opacity: 0.7"/>
     <use xlink:href="#ma76c098a16" x="89.657069" y="115.427936" style="fill-opacity: 0.7"/>
     <use xlink:href="#ma76c098a16" x="93.081335" y="179.321332" style="fill-opacity: 0.7"/>
    </g>
   </g>
   <g id="PathCollection_2">
    <g clip-path="url(#p6a7a9141a1)">
     <use xlink:href="#ma76c098a16" x="153.399876" y="215.24983" style="fill-opacity: 0.7"/>
     <use xlink:href="#ma76c098a16" x="166.099163" y="216.387198" style="fill-opacity: 0.7"/>
     <use xlink:href="#ma76c098a16" x="162.567356" y="220.086661" style="fill-opacity: 0.7"/>
     <use xlink:href="#ma76c098a16" x="164.796456" y="209.868687" style="fill-opacity: 0.7"/>
     <use xlink:href="#ma76c098a16" x="172.506977" y="189.185684" style="fill-opacity: 0.7"/>
     <use xlink:href="#ma76c098a16" x="159.127352" y="139.162539" style="fill-opacity: 0.7"/>
     <use xlink:href="#ma76c098a16" x="167.375635" y="196.963452" style="fill-opacity: 0.7"/>
     <use xlink:href="#ma76c098a16" x="158.683051" y="120.528668" style="fill-opacity: 0.7"/>
     <use xlink:href="#ma76c098a16" x="157.323924" y="192.107273" style="fill-opacity: 0.7"/>
     <use xlink:href="#ma76c098a16" x="159.828791" y="208.251096" style="fill-opacity: 0.7"/>
     <use xlink:href="#ma76c098a16" x="171.287448" y="215.622798" style="fill-opacity: 0.7"/>
     <use xlink:href="#ma76c098a16" x="167.632975" y="191.04383" style="fill-opacity: 0.7"/>
     <use xlink:href="#ma76c098a16" x="181.768864" y="215.066993" style="fill-opacity: 0.7"/>
     <use xlink:href="#ma76c098a16" x="162.567356" y="198.970911" style="fill-opacity: 0.7"/>
     <use xlink:href="#ma76c098a16" x="160.748216" y="171.073833" style="fill-opacity: 0.7"/>
     <use xlink:href="#ma76c098a16" x="162.567356" y="192.35729" style="fill-opacity: 0.7"/>
     <use xlink:href="#ma76c098a16" x="166.021634" y="109.518213" style="fill-opacity: 0.7"/>
     <use xlink:href="#ma76c098a16" x="147.674637" y="188.440061" style="fill-opacity: 0.7"/>
     <use xlink:href="#ma76c098a16" x="143.223026" y="213.402984" style="fill-opacity: 0.7"/>
     <use xlink:href="#ma76c098a16" x="170.905122" y="201.789676" style="fill-opacity: 0.7"/>
     <use xlink:href="#ma76c098a16" x="152.501089" y="201.191638" style="fill-opacity: 0.7"/>
     <use xlink:href="#ma76c098a16" x="148.151488" y="215.125915" style="fill-opacity: 0.7"/>
     <use xlink:href="#ma76c098a16" x="176.521982" y="215.239293" style="fill-opacity: 0.7"/>
     <use xlink:href="#ma76c098a16" x="162.567356" y="142.939647" style="fill-opacity: 0.7"/>
     <use xlink:href="#ma76c098a16" x="162.567356" y="186.092869" style="fill-opacity: 0.7"/>
     <use xlink:href="#ma76c098a16" x="165.067665" y="157.275625" style="fill-opacity: 0.7"/>
     <use xlink:href="#ma76c098a16" x="157.827644" y="217.936382" style="fill-opacity: 0.7"/>
     <use xlink:href="#ma76c098a16" x="162.567356" y="162.373189" style="fill-opacity: 0.7"/>
     <use xlink:href="#ma76c098a16" x="157.493645" y="197.686097" style="fill-opacity: 0.7"/>
     <use xlink:href="#ma76c098a16" x="162.567356" y="123.892431" style="fill-opacity: 0.7"/>
     <use xlink:href="#ma76c098a16" x="161.589396" y="213.827347" style="fill-opacity: 0.7"/>
     <use xlink:href="#ma76c098a16" x="167.450441" y="205.554615" style="fill-opacity: 0.7"/>
     <use xlink:href="#ma76c098a16" x="155.713668" y="205.146237" style="fill-opacity: 0.7"/>
     <use xlink:href="#ma76c098a16" x="162.567356" y="203.978278" style="fill-opacity: 0.7"/>
     <use xlink:href="#ma76c098a16" x="165.238622" y="168.483295" style="fill-opacity: 0.7"/>
     <use xlink:href="#ma76c098a16" x="162.567356" y="175.764077" style="fill-opacity: 0.7"/>
     <use xlink:href="#ma76c098a16" x="152.781202" y="189.600832" style="fill-opacity: 0.7"/>
     <use xlink:href="#ma76c098a16" x="158.837276" y="109.764959" style="fill-opacity: 0.7"/>
     <use xlink:href="#ma76c098a16" x="159.885187" y="158.074956" style="fill-opacity: 0.7"/>
     <use xlink:href="#ma76c098a16" x="162.567356" y="132.544735" style="fill-opacity: 0.7"/>
     <use xlink:href="#ma76c098a16" x="162.567356" y="113.283488" style="fill-opacity: 0.7"/>
     <use xlink:href="#ma76c098a16" x="170.314911" y="157.11369" style="fill-opacity: 0.7"/>
    </g>
   </g>
   <g id="PathCollection_3">
    <g clip-path="url(#p6a7a9141a1)">
     <use xlink:href="#ma76c098a16" x="240.442486" y="208.849657" style="fill-opacity: 0.7"/>
     <use xlink:href="#ma76c098a16" x="245.830654" y="215.740853" style="fill-opacity: 0.7"/>
     <use xlink:href="#ma76c098a16" x="224.998461" y="216.608398" style="fill-opacity: 0.7"/>
     <use xlink:href="#ma76c098a16" x="230.23398" y="216.979518" style="fill-opacity: 0.7"/>
     <use xlink:href="#ma76c098a16" x="234.819352" y="183.177967" style="fill-opacity: 0.7"/>
     <use xlink:href="#ma76c098a16" x="232.295535" y="136.467827" style="fill-opacity: 0.7"/>
     <use xlink:href="#ma76c098a16" x="230.229273" y="199.863916" style="fill-opacity: 0.7"/>
     <use xlink:href="#ma76c098a16" x="235.477644" y="120.221902" style="fill-opacity: 0.7"/>
     <use xlink:href="#ma76c098a16" x="239.542038" y="185.361962" style="fill-opacity: 0.7"/>
     <use xlink:href="#ma76c098a16" x="235.477644" y="210.475091" style="fill-opacity: 0.7"/>
     <use xlink:href="#ma76c098a16" x="250.971751" y="214.727734" style="fill-opacity: 0.7"/>
     <use xlink:href="#ma76c098a16" x="240.659366" y="194.171121" style="fill-opacity: 0.7"/>
     <use xlink:href="#ma76c098a16" x="220.047447" y="214.945148" style="fill-opacity: 0.7"/>
     <use xlink:href="#ma76c098a16" x="242.624739" y="204.302074" style="fill-opacity: 0.7"/>
     <use xlink:href="#ma76c098a16" x="230.631313" y="160.162389" style="fill-opacity: 0.7"/>
     <use xlink:href="#ma76c098a16" x="230.267237" y="187.913941" style="fill-opacity: 0.7"/>
     <use xlink:href="#ma76c098a16" x="238.400067" y="92.202883" style="fill-opacity: 0.7"/>
     <use xlink:href="#ma76c098a16" x="226.484558" y="184.446719" style="fill-opacity: 0.7"/>
     <use xlink:href="#ma76c098a16" x="248.707681" y="204.37985" style="fill-opacity: 0.7"/>
     <use xlink:href="#ma76c098a16" x="235.477644" y="199.988486" style="fill-opacity: 0.7"/>
     <use xlink:href="#ma76c098a16" x="235.477644" y="194.974884" style="fill-opacity: 0.7"/>
     <use xlink:href="#ma76c098a16" x="230.400186" y="209.203768" style="fill-opacity: 0.7"/>
     <use xlink:href="#ma76c098a16" x="226.372752" y="205.996312" style="fill-opacity: 0.7"/>
     <use xlink:href="#ma76c098a16" x="235.477644" y="140.444709" style="fill-opacity: 0.7"/>
     <use xlink:href="#ma76c098a16" x="237.838345" y="179.087362" style="fill-opacity: 0.7"/>
     <use xlink:href="#ma76c098a16" x="236.592956" y="152.2703" style="fill-opacity: 0.7"/>
     <use xlink:href="#ma76c098a16" x="235.477644" y="217.225091" style="fill-opacity: 0.7"/>
     <use xlink:href="#ma76c098a16" x="235.20309" y="157.091904" style="fill-opacity: 0.7"/>
     <use xlink:href="#ma76c098a16" x="230.229755" y="194.833088" style="fill-opacity: 0.7"/>
     <use xlink:href="#ma76c098a16" x="235.477644" y="108.940345" style="fill-opacity: 0.7"/>
     <use xlink:href="#ma76c098a16" x="240.713523" y="216.858624" style="fill-opacity: 0.7"/>
     <use xlink:href="#ma76c098a16" x="221.611528" y="203.88958" style="fill-opacity: 0.7"/>
     <use xlink:href="#ma76c098a16" x="234.019013" y="205.671946" style="fill-opacity: 0.7"/>
     <use xlink:href="#ma76c098a16" x="245.676717" y="208.462416" style="fill-opacity: 0.7"/>
     <use xlink:href="#ma76c098a16" x="235.477644" y="162.085062" style="fill-opacity: 0.7"/>
     <use xlink:href="#ma76c098a16" x="235.477644" y="167.363443" style="fill-opacity: 0.7"/>
     <use xlink:href="#ma76c098a16" x="235.477644" y="188.526849" style="fill-opacity: 0.7"/>
     <use xlink:href="#ma76c098a16" x="230.643635" y="94.406006" style="fill-opacity: 0.7"/>
     <use xlink:href="#ma76c098a16" x="231.482343" y="151.125805" style="fill-opacity: 0.7"/>
     <use xlink:href="#ma76c098a16" x="238.166518" y="136.150278" style="fill-opacity: 0.7"/>
     <use xlink:href="#ma76c098a16" x="235.477644" y="96.356611" style="fill-opacity: 0.7"/>
     <use xlink:href="#ma76c098a16" x="240.39977" y="148.827121" style="fill-opacity: 0.7"/>
    </g>
   </g>
   <g id="PathCollection_4">
    <g clip-path="url(#p6a7a9141a1)">
     <use xlink:href="#ma76c098a16" x="299.498936" y="210.712316" style="fill-opacity: 0.7"/>
     <use xlink:href="#ma76c098a16" x="318.498708" y="219.329099" style="fill-opacity: 0.7"/>
     <use xlink:href="#ma76c098a16" x="293.12767" y="218.809393" style="fill-opacity: 0.7"/>
     <use xlink:href="#ma76c098a16" x="298.10636" y="220.395944" style="fill-opacity: 0.7"/>
     <use xlink:href="#ma76c098a16" x="308.387931" y="191.584913" style="fill-opacity: 0.7"/>
     <use xlink:href="#ma76c098a16" x="308.387931" y="147.647972" style="fill-opacity: 0.7"/>
     <use xlink:href="#ma76c098a16" x="301.699112" y="206.078944" style="fill-opacity: 0.7"/>
     <use xlink:href="#ma76c098a16" x="308.387931" y="136.430367" style="fill-opacity: 0.7"/>
     <use xlink:href="#ma76c098a16" x="318.438835" y="197.375061" style="fill-opacity: 0.7"/>
     <use xlink:href="#ma76c098a16" x="316.276244" y="212.410314" style="fill-opacity: 0.7"/>
     <use xlink:href="#ma76c098a16" x="313.548079" y="220.993389" style="fill-opacity: 0.7"/>
     <use xlink:href="#ma76c098a16" x="294.377486" y="209.612637" style="fill-opacity: 0.7"/>
     <use xlink:href="#ma76c098a16" x="308.387931" y="221.91448" style="fill-opacity: 0.7"/>
     <use xlink:href="#ma76c098a16" x="304.177179" y="212.981412" style="fill-opacity: 0.7"/>
     <use xlink:href="#ma76c098a16" x="308.387931" y="178.344973" style="fill-opacity: 0.7"/>
     <use xlink:href="#ma76c098a16" x="303.325784" y="198.313971" style="fill-opacity: 0.7"/>
     <use xlink:href="#ma76c098a16" x="303.272472" y="127.735111" style="fill-opacity: 0.7"/>
     <use xlink:href="#ma76c098a16" x="313.631049" y="199.383591" style="fill-opacity: 0.7"/>
     <use xlink:href="#ma76c098a16" x="307.254517" y="217.03239" style="fill-opacity: 0.7"/>
     <use xlink:href="#ma76c098a16" x="320.769395" y="209.824095" style="fill-opacity: 0.7"/>
     <use xlink:href="#ma76c098a16" x="312.125667" y="206.836528" style="fill-opacity: 0.7"/>
     <use xlink:href="#ma76c098a16" x="306.876222" y="206.909229" style="fill-opacity: 0.7"/>
     <use xlink:href="#ma76c098a16" x="309.161409" y="211.41072" style="fill-opacity: 0.7"/>
     <use xlink:href="#ma76c098a16" x="308.387931" y="171.084096" style="fill-opacity: 0.7"/>
     <use xlink:href="#ma76c098a16" x="308.387931" y="199.639518" style="fill-opacity: 0.7"/>
     <use xlink:href="#ma76c098a16" x="313.363185" y="176.748677" style="fill-opacity: 0.7"/>
     <use xlink:href="#ma76c098a16" x="323.720168" y="218.808457" style="fill-opacity: 0.7"/>
     <use xlink:href="#ma76c098a16" x="323.253233" y="174.368712" style="fill-opacity: 0.7"/>
     <use xlink:href="#ma76c098a16" x="297.28749" y="203.368406" style="fill-opacity: 0.7"/>
     <use xlink:href="#ma76c098a16" x="304.240276" y="144.582628" style="fill-opacity: 0.7"/>
     <use xlink:href="#ma76c098a16" x="303.138864" y="221.820192" style="fill-opacity: 0.7"/>
     <use xlink:href="#ma76c098a16" x="316.94536" y="204.854051" style="fill-opacity: 0.7"/>
     <use xlink:href="#ma76c098a16" x="326.011652" y="209.552636" style="fill-opacity: 0.7"/>
     <use xlink:href="#ma76c098a16" x="312.310965" y="215.687259" style="fill-opacity: 0.7"/>
     <use xlink:href="#ma76c098a16" x="303.195058" y="177.609373" style="fill-opacity: 0.7"/>
     <use xlink:href="#ma76c098a16" x="303.702455" y="189.329394" style="fill-opacity: 0.7"/>
     <use xlink:href="#ma76c098a16" x="299.175166" y="195.252266" style="fill-opacity: 0.7"/>
     <use xlink:href="#ma76c098a16" x="303.7783" y="134.037292" style="fill-opacity: 0.7"/>
     <use xlink:href="#ma76c098a16" x="318.003411" y="174.40985" style="fill-opacity: 0.7"/>
     <use xlink:href="#ma76c098a16" x="308.387931" y="158.799214" style="fill-opacity: 0.7"/>
     <use xlink:href="#ma76c098a16" x="308.387931" y="128.859804" style="fill-opacity: 0.7"/>
     <use xlink:href="#ma76c098a16" x="298.388965" y="175.597172" style="fill-opacity: 0.7"/>
    </g>
   </g>
   <g id="text_14">
    <!-- V1 tgt -->
    <g transform="translate(180.680312 41.04) scale(0.12 -0.12)">
     <defs>
      <path id="DejaVuSans-56" d="M 1831 0 
L 50 4666 
L 709 4666 
L 2188 738 
L 3669 4666 
L 4325 4666 
L 2547 0 
L 1831 0 
z
" transform="scale(0.015625)"/>
     </defs>
     <use xlink:href="#DejaVuSans-56"/>
     <use xlink:href="#DejaVuSans-31" x="68.408203"/>
     <use xlink:href="#DejaVuSans-20" x="132.03125"/>
     <use xlink:href="#DejaVuSans-74" x="163.818359"/>
     <use xlink:href="#DejaVuSans-67" x="203.027344"/>
     <use xlink:href="#DejaVuSans-74" x="266.503906"/>
    </g>
   </g>
  </g>
  <g id="axes_2">
   <g id="patch_7">
    <path d="M 404.435 262.387974 
L 709.2 262.387974 
L 709.2 47.04 
L 404.435 47.04 
z
" style="fill: #ffffff"/>
   </g>
   <g id="PolyCollection_5">
    <defs>
     <path id="mfb811a14ef" d="M 447.462071 -111.842967 
L 447.442067 -111.842967 
L 447.43078 -113.775578 
L 447.412097 -115.708189 
L 447.384703 -117.6408 
L 447.347922 -119.573411 
L 447.301224 -121.506022 
L 447.244713 -123.438633 
L 447.181137 -125.371244 
L 447.116867 -127.303855 
L 447.058052 -129.236466 
L 447.002562 -131.169077 
L 446.934815 -133.101688 
L 446.831152 -135.034299 
L 446.675498 -136.96691 
L 446.475376 -138.899521 
L 446.265939 -140.832132 
L 446.096641 -142.764743 
L 446.005895 -144.697354 
L 445.996549 -146.629965 
L 446.02589 -148.562576 
L 446.01806 -150.495187 
L 445.89532 -152.427798 
L 445.611999 -154.360409 
L 445.170686 -156.29302 
L 444.611121 -158.225631 
L 443.981485 -160.158242 
L 443.312783 -162.090853 
L 442.610818 -164.023464 
L 441.865052 -165.956075 
L 441.062254 -167.888686 
L 440.189802 -169.821297 
L 439.220101 -171.753908 
L 438.08537 -173.686519 
L 436.670814 -175.61913 
L 434.851715 -177.551741 
L 432.567655 -179.484352 
L 429.889139 -181.416963 
L 427.025781 -183.349574 
L 424.263152 -185.282185 
L 421.86799 -187.214796 
L 420.022239 -189.147407 
L 418.817153 -191.080018 
L 418.287955 -193.012629 
L 418.443556 -194.94524 
L 419.263665 -196.877851 
L 420.674413 -198.810462 
L 422.536293 -200.743073 
L 424.666912 -202.675684 
L 426.888188 -204.608295 
L 429.063822 -206.540906 
L 431.102832 -208.473517 
L 432.940323 -210.406128 
L 434.528241 -212.338739 
L 435.850662 -214.27135 
L 436.942905 -216.203961 
L 437.884649 -218.136572 
L 438.763814 -220.069183 
L 439.636929 -222.001794 
L 440.511997 -223.934405 
L 441.357924 -225.867016 
L 442.127933 -227.799627 
L 442.784089 -229.732238 
L 443.314867 -231.664849 
L 443.739556 -233.59746 
L 444.098002 -235.530071 
L 444.433119 -237.462682 
L 444.776349 -239.395293 
L 445.139435 -241.327904 
L 445.51141 -243.260515 
L 445.862989 -245.193126 
L 446.160785 -247.125737 
L 446.385205 -249.058348 
L 446.539921 -250.990959 
L 446.647133 -252.92357 
L 446.733717 -254.856181 
L 446.81721 -256.788792 
L 446.897809 -258.721403 
L 446.959817 -260.654014 
L 446.983118 -262.586625 
L 446.959392 -264.519236 
L 446.902348 -266.451847 
L 446.843845 -268.384458 
L 446.818024 -270.317069 
L 446.844368 -272.24968 
L 446.920216 -274.182291 
L 447.025664 -276.114902 
L 447.135781 -278.047513 
L 447.231691 -279.980124 
L 447.304668 -281.912735 
L 447.35358 -283.845346 
L 447.380696 -285.777957 
L 447.389972 -287.710568 
L 447.38761 -289.643179 
L 447.381897 -291.57579 
L 447.38066 -293.508401 
L 447.387824 -295.441012 
L 447.402042 -297.373623 
L 447.418601 -299.306234 
L 447.432883 -301.238845 
L 447.442653 -303.171456 
L 447.461486 -303.171456 
L 447.461486 -303.171456 
L 447.471255 -301.238845 
L 447.485537 -299.306234 
L 447.502097 -297.373623 
L 447.516315 -295.441012 
L 447.523479 -293.508401 
L 447.522242 -291.57579 
L 447.516529 -289.643179 
L 447.514167 -287.710568 
L 447.523443 -285.777957 
L 447.550559 -283.845346 
L 447.599471 -281.912735 
L 447.672448 -279.980124 
L 447.768358 -278.047513 
L 447.878474 -276.114902 
L 447.983923 -274.182291 
L 448.059771 -272.24968 
L 448.086114 -270.317069 
L 448.060294 -268.384458 
L 448.00179 -266.451847 
L 447.944747 -264.519236 
L 447.92102 -262.586625 
L 447.944322 -260.654014 
L 448.00633 -258.721403 
L 448.086929 -256.788792 
L 448.170422 -254.856181 
L 448.257006 -252.92357 
L 448.364218 -250.990959 
L 448.518934 -249.058348 
L 448.743354 -247.125737 
L 449.04115 -245.193126 
L 449.392729 -243.260515 
L 449.764704 -241.327904 
L 450.127789 -239.395293 
L 450.47102 -237.462682 
L 450.806137 -235.530071 
L 451.164583 -233.59746 
L 451.589272 -231.664849 
L 452.12005 -229.732238 
L 452.776206 -227.799627 
L 453.546215 -225.867016 
L 454.392141 -223.934405 
L 455.267209 -222.001794 
L 456.140325 -220.069183 
L 457.01949 -218.136572 
L 457.961234 -216.203961 
L 459.053477 -214.27135 
L 460.375898 -212.338739 
L 461.963815 -210.406128 
L 463.801307 -208.473517 
L 465.840317 -206.540906 
L 468.015951 -204.608295 
L 470.237227 -202.675684 
L 472.367846 -200.743073 
L 474.229726 -198.810462 
L 475.640474 -196.877851 
L 476.460582 -194.94524 
L 476.616184 -193.012629 
L 476.086986 -191.080018 
L 474.8819 -189.147407 
L 473.036149 -187.214796 
L 470.640987 -185.282185 
L 467.878358 -183.349574 
L 465.014999 -181.416963 
L 462.336484 -179.484352 
L 460.052424 -177.551741 
L 458.233324 -175.61913 
L 456.818768 -173.686519 
L 455.684038 -171.753908 
L 454.714337 -169.821297 
L 453.841884 -167.888686 
L 453.039087 -165.956075 
L 452.293321 -164.023464 
L 451.591356 -162.090853 
L 450.922653 -160.158242 
L 450.293017 -158.225631 
L 449.733453 -156.29302 
L 449.29214 -154.360409 
L 449.008819 -152.427798 
L 448.886079 -150.495187 
L 448.878248 -148.562576 
L 448.907589 -146.629965 
L 448.898244 -144.697354 
L 448.807498 -142.764743 
L 448.6382 -140.832132 
L 448.428763 -138.899521 
L 448.228641 -136.96691 
L 448.072986 -135.034299 
L 447.969324 -133.101688 
L 447.901577 -131.169077 
L 447.846087 -129.236466 
L 447.787272 -127.303855 
L 447.723002 -125.371244 
L 447.659426 -123.438633 
L 447.602914 -121.506022 
L 447.556217 -119.573411 
L 447.519436 -117.6408 
L 447.492042 -115.708189 
L 447.473359 -113.775578 
L 447.462071 -111.842967 
z
" style="stroke: #3f3f3f; stroke-width: 1.25"/>
    </defs>
    <g clip-path="url(#pfd45041526)">
     <use xlink:href="#mfb811a14ef" x="0" y="360" style="fill: #b2b2b2; stroke: #3f3f3f; stroke-width: 1.25"/>
    </g>
   </g>
   <g id="PolyCollection_6">
    <defs>
     <path id="mf83dd043e7" d="M 520.386643 -148.23312 
L 520.33807 -148.23312 
L 520.311921 -149.306279 
L 520.266471 -150.379438 
L 520.194575 -151.452598 
L 520.090529 -152.525757 
L 519.951995 -153.598917 
L 519.781339 -154.672076 
L 519.585958 -155.745235 
L 519.377748 -156.818395 
L 519.172136 -157.891554 
L 518.986754 -158.964714 
L 518.83886 -160.037873 
L 518.740266 -161.111033 
L 518.689988 -162.184192 
L 518.667736 -163.257351 
L 518.63331 -164.330511 
L 518.535234 -165.40367 
L 518.326605 -166.47683 
L 517.980779 -167.549989 
L 517.498338 -168.623148 
L 516.901591 -169.696308 
L 516.220771 -170.769467 
L 515.481324 -171.842627 
L 514.699445 -172.915786 
L 513.884788 -173.988946 
L 513.042849 -175.062105 
L 512.171734 -176.135264 
L 511.256996 -177.208424 
L 510.273249 -178.281583 
L 509.195516 -179.354743 
L 508.01209 -180.427902 
L 506.726993 -181.501061 
L 505.349305 -182.574221 
L 503.880079 -183.64738 
L 502.311571 -184.72054 
L 500.643512 -185.793699 
L 498.905859 -186.866859 
L 497.170065 -187.940018 
L 495.537807 -189.013177 
L 494.111614 -190.086337 
L 492.963911 -191.159496 
L 492.121107 -192.232656 
L 491.56886 -193.305815 
L 491.272307 -194.378974 
L 491.198242 -195.452134 
L 491.327488 -196.525293 
L 491.653485 -197.598453 
L 492.172774 -198.671612 
L 492.877446 -199.744772 
L 493.754569 -200.817931 
L 494.788471 -201.89109 
L 495.959236 -202.96425 
L 497.237454 -204.037409 
L 498.582159 -205.110569 
L 499.947192 -206.183728 
L 501.29352 -207.256888 
L 502.600179 -208.330047 
L 503.867926 -209.403206 
L 505.113566 -210.476366 
L 506.356153 -211.549525 
L 507.60001 -212.622685 
L 508.823879 -213.695844 
L 509.985624 -214.769003 
L 511.043399 -215.842163 
L 511.981116 -216.915322 
L 512.819956 -217.988482 
L 513.605947 -219.061641 
L 514.380956 -220.134801 
L 515.156633 -221.20796 
L 515.908177 -222.281119 
L 516.590295 -223.354279 
L 517.163397 -224.427438 
L 517.613793 -225.500598 
L 517.958244 -226.573757 
L 518.233622 -227.646916 
L 518.479453 -228.720076 
L 518.722429 -229.793235 
L 518.969143 -230.866395 
L 519.208728 -231.939554 
L 519.422486 -233.012714 
L 519.594848 -234.085873 
L 519.720393 -235.159032 
L 519.804729 -236.232192 
L 519.860492 -237.305351 
L 519.901637 -238.378511 
L 519.938934 -239.45167 
L 519.978039 -240.524829 
L 520.019927 -241.597989 
L 520.062618 -242.671148 
L 520.103188 -243.744308 
L 520.139435 -244.817467 
L 520.17086 -245.890627 
L 520.198713 -246.963786 
L 520.225082 -248.036945 
L 520.251488 -249.110105 
L 520.277866 -250.183264 
L 520.302633 -251.256424 
L 520.323696 -252.329583 
L 520.33964 -253.402742 
L 520.350311 -254.475902 
L 520.374402 -254.475902 
L 520.374402 -254.475902 
L 520.385073 -253.402742 
L 520.401017 -252.329583 
L 520.42208 -251.256424 
L 520.446847 -250.183264 
L 520.473225 -249.110105 
L 520.499631 -248.036945 
L 520.526 -246.963786 
L 520.553853 -245.890627 
L 520.585278 -244.817467 
L 520.621525 -243.744308 
L 520.662095 -242.671148 
L 520.704786 -241.597989 
L 520.746674 -240.524829 
L 520.785779 -239.45167 
L 520.823075 -238.378511 
L 520.864221 -237.305351 
L 520.919984 -236.232192 
L 521.00432 -235.159032 
L 521.129865 -234.085873 
L 521.302227 -233.012714 
L 521.515985 -231.939554 
L 521.75557 -230.866395 
L 522.002283 -229.793235 
L 522.24526 -228.720076 
L 522.491091 -227.646916 
L 522.766469 -226.573757 
L 523.11092 -225.500598 
L 523.561316 -224.427438 
L 524.134417 -223.354279 
L 524.816536 -222.281119 
L 525.56808 -221.20796 
L 526.343757 -220.134801 
L 527.118765 -219.061641 
L 527.904756 -217.988482 
L 528.743597 -216.915322 
L 529.681314 -215.842163 
L 530.739089 -214.769003 
L 531.900834 -213.695844 
L 533.124703 -212.622685 
L 534.36856 -211.549525 
L 535.611147 -210.476366 
L 536.856787 -209.403206 
L 538.124534 -208.330047 
L 539.431193 -207.256888 
L 540.777521 -206.183728 
L 542.142554 -205.110569 
L 543.487259 -204.037409 
L 544.765477 -202.96425 
L 545.936242 -201.89109 
L 546.970144 -200.817931 
L 547.847267 -199.744772 
L 548.551939 -198.671612 
L 549.071227 -197.598453 
L 549.397225 -196.525293 
L 549.526471 -195.452134 
L 549.452406 -194.378974 
L 549.155853 -193.305815 
L 548.603606 -192.232656 
L 547.760802 -191.159496 
L 546.613099 -190.086337 
L 545.186906 -189.013177 
L 543.554648 -187.940018 
L 541.818854 -186.866859 
L 540.0812 -185.793699 
L 538.413142 -184.72054 
L 536.844634 -183.64738 
L 535.375407 -182.574221 
L 533.99772 -181.501061 
L 532.712623 -180.427902 
L 531.529197 -179.354743 
L 530.451463 -178.281583 
L 529.467717 -177.208424 
L 528.552979 -176.135264 
L 527.681864 -175.062105 
L 526.839925 -173.988946 
L 526.025268 -172.915786 
L 525.243388 -171.842627 
L 524.503942 -170.769467 
L 523.823122 -169.696308 
L 523.226375 -168.623148 
L 522.743934 -167.549989 
L 522.398108 -166.47683 
L 522.189479 -165.40367 
L 522.091403 -164.330511 
L 522.056977 -163.257351 
L 522.034725 -162.184192 
L 521.984447 -161.111033 
L 521.885853 -160.037873 
L 521.737959 -158.964714 
L 521.552577 -157.891554 
L 521.346965 -156.818395 
L 521.138755 -155.745235 
L 520.943374 -154.672076 
L 520.772718 -153.598917 
L 520.634184 -152.525757 
L 520.530138 -151.452598 
L 520.458242 -150.379438 
L 520.412792 -149.306279 
L 520.386643 -148.23312 
z
" style="stroke: #3f3f3f; stroke-width: 1.25"/>
    </defs>
    <g clip-path="url(#pfd45041526)">
     <use xlink:href="#mf83dd043e7" x="0" y="360" style="fill: #891ab9; stroke: #3f3f3f; stroke-width: 1.25"/>
    </g>
   </g>
   <g id="PolyCollection_7">
    <defs>
     <path id="m31377252f2" d="M 593.317767 -107.400571 
L 593.22752 -107.400571 
L 593.17676 -109.240089 
L 593.093848 -111.079608 
L 592.97915 -112.919127 
L 592.846711 -114.758645 
L 592.722785 -116.598164 
L 592.635439 -118.437683 
L 592.600415 -120.277202 
L 592.612711 -122.11672 
L 592.649655 -123.956239 
L 592.682862 -125.795758 
L 592.690883 -127.635276 
L 592.665403 -129.474795 
L 592.609409 -131.314314 
L 592.53097 -133.153833 
L 592.437688 -134.993351 
L 592.33427 -136.83287 
L 592.222048 -138.672389 
L 592.0985 -140.511908 
L 591.956718 -142.351426 
L 591.786117 -144.190945 
L 591.575145 -146.030464 
L 591.315596 -147.869982 
L 591.007009 -149.709501 
L 590.657395 -151.54902 
L 590.275657 -153.388539 
L 589.856892 -155.228057 
L 589.37264 -157.067576 
L 588.78087 -158.907095 
L 588.054766 -160.746613 
L 587.206982 -162.586132 
L 586.283517 -164.425651 
L 585.32698 -166.26517 
L 584.337 -168.104688 
L 583.256346 -169.944207 
L 581.9887 -171.783726 
L 580.436961 -173.623245 
L 578.550884 -175.462763 
L 576.371614 -177.302282 
L 574.048145 -179.141801 
L 571.799317 -180.981319 
L 569.826672 -182.820838 
L 568.22827 -184.660357 
L 566.97459 -186.499876 
L 565.965731 -188.339394 
L 565.127372 -190.178913 
L 564.475307 -192.018432 
L 564.108529 -193.85795 
L 564.148999 -195.697469 
L 564.678758 -197.536988 
L 565.709624 -199.376507 
L 567.185942 -201.216025 
L 569.004232 -203.055544 
L 571.03785 -204.895063 
L 573.159726 -206.734582 
L 575.257325 -208.5741 
L 577.239046 -210.413619 
L 579.037528 -212.253138 
L 580.614375 -214.092656 
L 581.966094 -215.932175 
L 583.128211 -217.771694 
L 584.170906 -219.611213 
L 585.177283 -221.450731 
L 586.20549 -223.29025 
L 587.255537 -225.129769 
L 588.267862 -226.969287 
L 589.159562 -228.808806 
L 589.873806 -230.648325 
L 590.408067 -232.487844 
L 590.805871 -234.327362 
L 591.125136 -236.166881 
L 591.408859 -238.0064 
L 591.67427 -239.845919 
L 591.918249 -241.685437 
L 592.127968 -243.524956 
L 592.289908 -245.364475 
L 592.397127 -247.203993 
L 592.454998 -249.043512 
L 592.482445 -250.883031 
L 592.505924 -252.72255 
L 592.548133 -254.562068 
L 592.618018 -256.401587 
L 592.708411 -258.241106 
L 592.802441 -260.080624 
L 592.88368 -261.920143 
L 592.943227 -263.759662 
L 592.980613 -265.599181 
L 593.000507 -267.438699 
L 593.009087 -269.278218 
L 593.012228 -271.117737 
L 593.015243 -272.957256 
L 593.02302 -274.796774 
L 593.039619 -276.636293 
L 593.067121 -278.475812 
L 593.104333 -280.31533 
L 593.14659 -282.154849 
L 593.187378 -283.994368 
L 593.221057 -285.833887 
L 593.244934 -287.673405 
L 593.259501 -289.512924 
L 593.285786 -289.512924 
L 593.285786 -289.512924 
L 593.300353 -287.673405 
L 593.32423 -285.833887 
L 593.357909 -283.994368 
L 593.398697 -282.154849 
L 593.440954 -280.31533 
L 593.478166 -278.475812 
L 593.505668 -276.636293 
L 593.522267 -274.796774 
L 593.530044 -272.957256 
L 593.533059 -271.117737 
L 593.5362 -269.278218 
L 593.54478 -267.438699 
L 593.564674 -265.599181 
L 593.60206 -263.759662 
L 593.661607 -261.920143 
L 593.742846 -260.080624 
L 593.836876 -258.241106 
L 593.927269 -256.401587 
L 593.997154 -254.562068 
L 594.039363 -252.72255 
L 594.062842 -250.883031 
L 594.090289 -249.043512 
L 594.14816 -247.203993 
L 594.255379 -245.364475 
L 594.417319 -243.524956 
L 594.627038 -241.685437 
L 594.871017 -239.845919 
L 595.136428 -238.0064 
L 595.420151 -236.166881 
L 595.739416 -234.327362 
L 596.137221 -232.487844 
L 596.671481 -230.648325 
L 597.385726 -228.808806 
L 598.277425 -226.969287 
L 599.28975 -225.129769 
L 600.339797 -223.29025 
L 601.368004 -221.450731 
L 602.374382 -219.611213 
L 603.417077 -217.771694 
L 604.579194 -215.932175 
L 605.930913 -214.092656 
L 607.507759 -212.253138 
L 609.306242 -210.413619 
L 611.287963 -208.5741 
L 613.385561 -206.734582 
L 615.507437 -204.895063 
L 617.541055 -203.055544 
L 619.359346 -201.216025 
L 620.835663 -199.376507 
L 621.866529 -197.536988 
L 622.396288 -195.697469 
L 622.436758 -193.85795 
L 622.06998 -192.018432 
L 621.417915 -190.178913 
L 620.579556 -188.339394 
L 619.570697 -186.499876 
L 618.317017 -184.660357 
L 616.718615 -182.820838 
L 614.74597 -180.981319 
L 612.497142 -179.141801 
L 610.173674 -177.302282 
L 607.994404 -175.462763 
L 606.108326 -173.623245 
L 604.556587 -171.783726 
L 603.288941 -169.944207 
L 602.208287 -168.104688 
L 601.218307 -166.26517 
L 600.26177 -164.425651 
L 599.338305 -162.586132 
L 598.490521 -160.746613 
L 597.764417 -158.907095 
L 597.172647 -157.067576 
L 596.688396 -155.228057 
L 596.26963 -153.388539 
L 595.887892 -151.54902 
L 595.538278 -149.709501 
L 595.229691 -147.869982 
L 594.970142 -146.030464 
L 594.75917 -144.190945 
L 594.588569 -142.351426 
L 594.446787 -140.511908 
L 594.323239 -138.672389 
L 594.211017 -136.83287 
L 594.107599 -134.993351 
L 594.014317 -133.153833 
L 593.935878 -131.314314 
L 593.879885 -129.474795 
L 593.854404 -127.635276 
L 593.862425 -125.795758 
L 593.895632 -123.956239 
L 593.932576 -122.11672 
L 593.944872 -120.277202 
L 593.909848 -118.437683 
L 593.822502 -116.598164 
L 593.698576 -114.758645 
L 593.566137 -112.919127 
L 593.451439 -111.079608 
L 593.368527 -109.240089 
L 593.317767 -107.400571 
z
" style="stroke: #3f3f3f; stroke-width: 1.25"/>
    </defs>
    <g clip-path="url(#pfd45041526)">
     <use xlink:href="#m31377252f2" x="0" y="360" style="fill: #df9c20; stroke: #3f3f3f; stroke-width: 1.25"/>
    </g>
   </g>
   <g id="PolyCollection_8">
    <defs>
     <path id="mfe237caacb" d="M 666.195066 -153.423633 
L 666.170795 -153.423633 
L 666.159097 -154.358154 
L 666.141223 -155.292675 
L 666.116986 -156.227197 
L 666.086466 -157.161718 
L 666.047922 -158.096239 
L 665.995842 -159.030761 
L 665.922004 -159.965282 
L 665.820905 -160.899803 
L 665.696465 -161.834325 
L 665.5635 -162.768846 
L 665.439808 -163.703367 
L 665.33255 -164.637889 
L 665.229218 -165.57241 
L 665.101426 -166.506931 
L 664.91987 -167.441453 
L 664.669942 -168.375974 
L 664.357713 -169.310495 
L 664.003892 -170.245017 
L 663.631045 -171.179538 
L 663.251727 -172.114059 
L 662.86327 -173.048581 
L 662.450987 -173.983102 
L 661.996096 -174.917623 
L 661.48028 -175.852145 
L 660.881395 -176.786666 
L 660.165136 -177.721188 
L 659.28582 -178.655709 
L 658.204272 -179.59023 
L 656.914348 -180.524752 
L 655.457604 -181.459273 
L 653.911072 -182.393794 
L 652.352267 -183.328316 
L 650.822557 -184.262837 
L 649.312424 -185.197358 
L 647.779059 -186.13188 
L 646.186457 -187.066401 
L 644.542517 -188.000922 
L 642.908083 -188.935444 
L 641.372055 -189.869965 
L 640.012165 -190.804486 
L 638.872153 -191.739008 
L 637.971776 -192.673529 
L 637.337035 -193.60805 
L 637.018816 -194.542572 
L 637.076196 -195.477093 
L 637.529874 -196.411614 
L 638.317969 -197.346136 
L 639.290761 -198.280657 
L 640.259871 -199.215178 
L 641.082173 -200.1497 
L 641.730239 -201.084221 
L 642.302129 -202.018742 
L 642.961672 -202.953264 
L 643.850568 -203.887785 
L 645.031335 -204.822307 
L 646.487312 -205.756828 
L 648.156734 -206.691349 
L 649.961253 -207.625871 
L 651.81316 -208.560392 
L 653.614049 -209.494913 
L 655.261671 -210.429435 
L 656.668481 -211.363956 
L 657.785572 -212.298477 
L 658.622979 -213.232999 
L 659.25455 -214.16752 
L 659.796138 -215.102041 
L 660.359605 -216.036563 
L 661.006003 -216.971084 
L 661.727205 -217.905605 
L 662.465728 -218.840127 
L 663.154825 -219.774648 
L 663.750691 -220.709169 
L 664.241244 -221.643691 
L 664.635795 -222.578212 
L 664.949918 -223.512733 
L 665.196658 -224.447255 
L 665.386159 -225.381776 
L 665.529009 -226.316297 
L 665.637814 -227.250819 
L 665.72508 -228.18534 
L 665.799625 -229.119862 
L 665.86486 -230.054383 
L 665.920201 -230.988904 
L 665.964111 -231.923426 
L 665.996568 -232.857947 
L 666.019784 -233.792468 
L 666.037235 -234.72699 
L 666.051754 -235.661511 
L 666.064021 -236.596032 
L 666.072823 -237.530554 
L 666.077209 -238.465075 
L 666.078717 -239.399596 
L 666.081437 -240.334118 
L 666.089552 -241.268639 
L 666.104455 -242.20316 
L 666.123882 -243.137682 
L 666.143565 -244.072203 
L 666.1598 -245.006724 
L 666.170982 -245.941246 
L 666.194879 -245.941246 
L 666.194879 -245.941246 
L 666.206061 -245.006724 
L 666.222296 -244.072203 
L 666.24198 -243.137682 
L 666.261406 -242.20316 
L 666.276309 -241.268639 
L 666.284425 -240.334118 
L 666.287144 -239.399596 
L 666.288653 -238.465075 
L 666.293038 -237.530554 
L 666.301841 -236.596032 
L 666.314107 -235.661511 
L 666.328626 -234.72699 
L 666.346077 -233.792468 
L 666.369294 -232.857947 
L 666.40175 -231.923426 
L 666.44566 -230.988904 
L 666.501001 -230.054383 
L 666.566237 -229.119862 
L 666.640781 -228.18534 
L 666.728048 -227.250819 
L 666.836852 -226.316297 
L 666.979703 -225.381776 
L 667.169203 -224.447255 
L 667.415943 -223.512733 
L 667.730066 -222.578212 
L 668.124618 -221.643691 
L 668.615171 -220.709169 
L 669.211036 -219.774648 
L 669.900133 -218.840127 
L 670.638656 -217.905605 
L 671.359859 -216.971084 
L 672.006256 -216.036563 
L 672.569723 -215.102041 
L 673.111311 -214.16752 
L 673.742882 -213.232999 
L 674.58029 -212.298477 
L 675.697381 -211.363956 
L 677.10419 -210.429435 
L 678.751812 -209.494913 
L 680.552701 -208.560392 
L 682.404608 -207.625871 
L 684.209128 -206.691349 
L 685.87855 -205.756828 
L 687.334527 -204.822307 
L 688.515293 -203.887785 
L 689.40419 -202.953264 
L 690.063732 -202.018742 
L 690.635622 -201.084221 
L 691.283688 -200.1497 
L 692.10599 -199.215178 
L 693.0751 -198.280657 
L 694.047892 -197.346136 
L 694.835987 -196.411614 
L 695.289666 -195.477093 
L 695.347045 -194.542572 
L 695.028827 -193.60805 
L 694.394085 -192.673529 
L 693.493708 -191.739008 
L 692.353696 -190.804486 
L 690.993806 -189.869965 
L 689.457778 -188.935444 
L 687.823345 -188.000922 
L 686.179404 -187.066401 
L 684.586802 -186.13188 
L 683.053437 -185.197358 
L 681.543304 -184.262837 
L 680.013595 -183.328316 
L 678.454789 -182.393794 
L 676.908257 -181.459273 
L 675.451513 -180.524752 
L 674.161589 -179.59023 
L 673.080041 -178.655709 
L 672.200725 -177.721188 
L 671.484466 -176.786666 
L 670.885581 -175.852145 
L 670.369765 -174.917623 
L 669.914874 -173.983102 
L 669.502592 -173.048581 
L 669.114134 -172.114059 
L 668.734816 -171.179538 
L 668.361969 -170.245017 
L 668.008148 -169.310495 
L 667.695919 -168.375974 
L 667.445991 -167.441453 
L 667.264435 -166.506931 
L 667.136643 -165.57241 
L 667.033311 -164.637889 
L 666.926054 -163.703367 
L 666.802361 -162.768846 
L 666.669396 -161.834325 
L 666.544956 -160.899803 
L 666.443857 -159.965282 
L 666.370019 -159.030761 
L 666.317939 -158.096239 
L 666.279396 -157.161718 
L 666.248876 -156.227197 
L 666.224638 -155.292675 
L 666.206764 -154.358154 
L 666.195066 -153.423633 
z
" style="stroke: #3f3f3f; stroke-width: 1.25"/>
    </defs>
    <g clip-path="url(#pfd45041526)">
     <use xlink:href="#mfe237caacb" x="0" y="360" style="fill: #df2020; stroke: #3f3f3f; stroke-width: 1.25"/>
    </g>
   </g>
   <g id="matplotlib.axis_3">
    <g id="xtick_5">
     <g id="line2d_17">
      <g>
       <use xlink:href="#mcfbbc68c94" x="447.452069" y="262.387974" style="stroke: #000000; stroke-width: 0.8"/>
      </g>
     </g>
     <g id="text_15">
      <!-- V23_deveined_orth -->
      <g transform="translate(377.730236 342.815489) rotate(-45) scale(0.1 -0.1)">
       <defs>
        <path id="DejaVuSans-5f" d="M 3263 -1063 
L 3263 -1509 
L -63 -1509 
L -63 -1063 
L 3263 -1063 
z
" transform="scale(0.015625)"/>
        <path id="DejaVuSans-64" d="M 2906 2969 
L 2906 4863 
L 3481 4863 
L 3481 0 
L 2906 0 
L 2906 525 
Q 2725 213 2448 61 
Q 2172 -91 1784 -91 
Q 1150 -91 751 415 
Q 353 922 353 1747 
Q 353 2572 751 3078 
Q 1150 3584 1784 3584 
Q 2172 3584 2448 3432 
Q 2725 3281 2906 2969 
z
M 947 1747 
Q 947 1113 1208 752 
Q 1469 391 1925 391 
Q 2381 391 2643 752 
Q 2906 1113 2906 1747 
Q 2906 2381 2643 2742 
Q 2381 3103 1925 3103 
Q 1469 3103 1208 2742 
Q 947 2381 947 1747 
z
" transform="scale(0.015625)"/>
       </defs>
       <use xlink:href="#DejaVuSans-56"/>
       <use xlink:href="#DejaVuSans-32" x="68.408203"/>
       <use xlink:href="#DejaVuSans-33" x="132.03125"/>
       <use xlink:href="#DejaVuSans-5f" x="195.654297"/>
       <use xlink:href="#DejaVuSans-64" x="245.654297"/>
       <use xlink:href="#DejaVuSans-65" x="309.130859"/>
       <use xlink:href="#DejaVuSans-76" x="370.654297"/>
       <use xlink:href="#DejaVuSans-65" x="429.833984"/>
       <use xlink:href="#DejaVuSans-69" x="491.357422"/>
       <use xlink:href="#DejaVuSans-6e" x="519.140625"/>
       <use xlink:href="#DejaVuSans-65" x="582.519531"/>
       <use xlink:href="#DejaVuSans-64" x="644.042969"/>
       <use xlink:href="#DejaVuSans-5f" x="707.519531"/>
       <use xlink:href="#DejaVuSans-6f" x="757.519531"/>
       <use xlink:href="#DejaVuSans-72" x="818.701172"/>
       <use xlink:href="#DejaVuSans-74" x="859.814453"/>
       <use xlink:href="#DejaVuSans-68" x="899.023438"/>
      </g>
     </g>
    </g>
    <g id="xtick_6">
     <g id="line2d_18">
      <g>
       <use xlink:href="#mcfbbc68c94" x="520.362356" y="262.387974" style="stroke: #000000; stroke-width: 0.8"/>
      </g>
     </g>
     <g id="text_16">
      <!-- V23_deveined_iso90 -->
      <g transform="translate(446.154814 347.301197) rotate(-45) scale(0.1 -0.1)">
       <use xlink:href="#DejaVuSans-56"/>
       <use xlink:href="#DejaVuSans-32" x="68.408203"/>
       <use xlink:href="#DejaVuSans-33" x="132.03125"/>
       <use xlink:href="#DejaVuSans-5f" x="195.654297"/>
       <use xlink:href="#DejaVuSans-64" x="245.654297"/>
       <use xlink:href="#DejaVuSans-65" x="309.130859"/>
       <use xlink:href="#DejaVuSans-76" x="370.654297"/>
       <use xlink:href="#DejaVuSans-65" x="429.833984"/>
       <use xlink:href="#DejaVuSans-69" x="491.357422"/>
       <use xlink:href="#DejaVuSans-6e" x="519.140625"/>
       <use xlink:href="#DejaVuSans-65" x="582.519531"/>
       <use xlink:href="#DejaVuSans-64" x="644.042969"/>
       <use xlink:href="#DejaVuSans-5f" x="707.519531"/>
       <use xlink:href="#DejaVuSans-69" x="757.519531"/>
       <use xlink:href="#DejaVuSans-73" x="785.302734"/>
       <use xlink:href="#DejaVuSans-6f" x="837.402344"/>
       <use xlink:href="#DejaVuSans-39" x="898.583984"/>
       <use xlink:href="#DejaVuSans-30" x="962.207031"/>
      </g>
     </g>
    </g>
    <g id="xtick_7">
     <g id="line2d_19">
      <g>
       <use xlink:href="#mcfbbc68c94" x="593.272644" y="262.387974" style="stroke: #000000; stroke-width: 0.8"/>
      </g>
     </g>
     <g id="text_17">
      <!-- V23_deveined_iso0 -->
      <g transform="translate(523.564068 342.80223) rotate(-45) scale(0.1 -0.1)">
       <use xlink:href="#DejaVuSans-56"/>
       <use xlink:href="#DejaVuSans-32" x="68.408203"/>
       <use xlink:href="#DejaVuSans-33" x="132.03125"/>
       <use xlink:href="#DejaVuSans-5f" x="195.654297"/>
       <use xlink:href="#DejaVuSans-64" x="245.654297"/>
       <use xlink:href="#DejaVuSans-65" x="309.130859"/>
       <use xlink:href="#DejaVuSans-76" x="370.654297"/>
       <use xlink:href="#DejaVuSans-65" x="429.833984"/>
       <use xlink:href="#DejaVuSans-69" x="491.357422"/>
       <use xlink:href="#DejaVuSans-6e" x="519.140625"/>
       <use xlink:href="#DejaVuSans-65" x="582.519531"/>
       <use xlink:href="#DejaVuSans-64" x="644.042969"/>
       <use xlink:href="#DejaVuSans-5f" x="707.519531"/>
       <use xlink:href="#DejaVuSans-69" x="757.519531"/>
       <use xlink:href="#DejaVuSans-73" x="785.302734"/>
       <use xlink:href="#DejaVuSans-6f" x="837.402344"/>
       <use xlink:href="#DejaVuSans-30" x="898.583984"/>
      </g>
     </g>
    </g>
    <g id="xtick_8">
     <g id="line2d_20">
      <g>
       <use xlink:href="#mcfbbc68c94" x="666.182931" y="262.387974" style="stroke: #000000; stroke-width: 0.8"/>
      </g>
     </g>
     <g id="text_18">
      <!-- V23_deveined_sur -->
      <g transform="translate(599.876202 339.400384) rotate(-45) scale(0.1 -0.1)">
       <use xlink:href="#DejaVuSans-56"/>
       <use xlink:href="#DejaVuSans-32" x="68.408203"/>
       <use xlink:href="#DejaVuSans-33" x="132.03125"/>
       <use xlink:href="#DejaVuSans-5f" x="195.654297"/>
       <use xlink:href="#DejaVuSans-64" x="245.654297"/>
       <use xlink:href="#DejaVuSans-65" x="309.130859"/>
       <use xlink:href="#DejaVuSans-76" x="370.654297"/>
       <use xlink:href="#DejaVuSans-65" x="429.833984"/>
       <use xlink:href="#DejaVuSans-69" x="491.357422"/>
       <use xlink:href="#DejaVuSans-6e" x="519.140625"/>
       <use xlink:href="#DejaVuSans-65" x="582.519531"/>
       <use xlink:href="#DejaVuSans-64" x="644.042969"/>
       <use xlink:href="#DejaVuSans-5f" x="707.519531"/>
       <use xlink:href="#DejaVuSans-73" x="757.519531"/>
       <use xlink:href="#DejaVuSans-75" x="809.619141"/>
       <use xlink:href="#DejaVuSans-72" x="872.998047"/>
      </g>
     </g>
    </g>
   </g>
   <g id="matplotlib.axis_4">
    <g id="ytick_9">
     <g id="line2d_21">
      <g>
       <use xlink:href="#mb294169837" x="404.435" y="248.815079" style="stroke: #000000; stroke-width: 0.8"/>
      </g>
     </g>
     <g id="text_19">
      <!-- −30 -->
      <g transform="translate(376.330312 252.614297) scale(0.1 -0.1)">
       <use xlink:href="#DejaVuSans-2212"/>
       <use xlink:href="#DejaVuSans-33" x="83.789062"/>
       <use xlink:href="#DejaVuSans-30" x="147.412109"/>
      </g>
     </g>
    </g>
    <g id="ytick_10">
     <g id="line2d_22">
      <g>
       <use xlink:href="#mb294169837" x="404.435" y="220.500817" style="stroke: #000000; stroke-width: 0.8"/>
      </g>
     </g>
     <g id="text_20">
      <!-- −20 -->
      <g transform="translate(376.330312 224.300036) scale(0.1 -0.1)">
       <use xlink:href="#DejaVuSans-2212"/>
       <use xlink:href="#DejaVuSans-32" x="83.789062"/>
       <use xlink:href="#DejaVuSans-30" x="147.412109"/>
      </g>
     </g>
    </g>
    <g id="ytick_11">
     <g id="line2d_23">
      <g>
       <use xlink:href="#mb294169837" x="404.435" y="192.186555" style="stroke: #000000; stroke-width: 0.8"/>
      </g>
     </g>
     <g id="text_21">
      <!-- −10 -->
      <g transform="translate(376.330312 195.985774) scale(0.1 -0.1)">
       <use xlink:href="#DejaVuSans-2212"/>
       <use xlink:href="#DejaVuSans-31" x="83.789062"/>
       <use xlink:href="#DejaVuSans-30" x="147.412109"/>
      </g>
     </g>
    </g>
    <g id="ytick_12">
     <g id="line2d_24">
      <g>
       <use xlink:href="#mb294169837" x="404.435" y="163.872293" style="stroke: #000000; stroke-width: 0.8"/>
      </g>
     </g>
     <g id="text_22">
      <!-- 0 -->
      <g transform="translate(391.0725 167.671512) scale(0.1 -0.1)">
       <use xlink:href="#DejaVuSans-30"/>
      </g>
     </g>
    </g>
    <g id="ytick_13">
     <g id="line2d_25">
      <g>
       <use xlink:href="#mb294169837" x="404.435" y="135.558031" style="stroke: #000000; stroke-width: 0.8"/>
      </g>
     </g>
     <g id="text_23">
      <!-- 10 -->
      <g transform="translate(384.71 139.35725) scale(0.1 -0.1)">
       <use xlink:href="#DejaVuSans-31"/>
       <use xlink:href="#DejaVuSans-30" x="63.623047"/>
      </g>
     </g>
    </g>
    <g id="ytick_14">
     <g id="line2d_26">
      <g>
       <use xlink:href="#mb294169837" x="404.435" y="107.243769" style="stroke: #000000; stroke-width: 0.8"/>
      </g>
     </g>
     <g id="text_24">
      <!-- 20 -->
      <g transform="translate(384.71 111.042988) scale(0.1 -0.1)">
       <use xlink:href="#DejaVuSans-32"/>
       <use xlink:href="#DejaVuSans-30" x="63.623047"/>
      </g>
     </g>
    </g>
    <g id="ytick_15">
     <g id="line2d_27">
      <g>
       <use xlink:href="#mb294169837" x="404.435" y="78.929508" style="stroke: #000000; stroke-width: 0.8"/>
      </g>
     </g>
     <g id="text_25">
      <!-- 30 -->
      <g transform="translate(384.71 82.728726) scale(0.1 -0.1)">
       <use xlink:href="#DejaVuSans-33"/>
       <use xlink:href="#DejaVuSans-30" x="63.623047"/>
      </g>
     </g>
    </g>
    <g id="ytick_16">
     <g id="line2d_28">
      <g>
       <use xlink:href="#mb294169837" x="404.435" y="50.615246" style="stroke: #000000; stroke-width: 0.8"/>
      </g>
     </g>
     <g id="text_26">
      <!-- 40 -->
      <g transform="translate(384.71 54.414465) scale(0.1 -0.1)">
       <defs>
        <path id="DejaVuSans-34" d="M 2419 4116 
L 825 1625 
L 2419 1625 
L 2419 4116 
z
M 2253 4666 
L 3047 4666 
L 3047 1625 
L 3713 1625 
L 3713 1100 
L 3047 1100 
L 3047 0 
L 2419 0 
L 2419 1100 
L 313 1100 
L 313 1709 
L 2253 4666 
z
" transform="scale(0.015625)"/>
       </defs>
       <use xlink:href="#DejaVuSans-34"/>
       <use xlink:href="#DejaVuSans-30" x="63.623047"/>
      </g>
     </g>
    </g>
    <g id="text_27">
     <!-- Average BOLD Response -->
     <g transform="translate(370.250625 216.353831) rotate(-90) scale(0.1 -0.1)">
      <use xlink:href="#DejaVuSans-41"/>
      <use xlink:href="#DejaVuSans-76" x="62.533203"/>
      <use xlink:href="#DejaVuSans-65" x="121.712891"/>
      <use xlink:href="#DejaVuSans-72" x="183.236328"/>
      <use xlink:href="#DejaVuSans-61" x="224.349609"/>
      <use xlink:href="#DejaVuSans-67" x="285.628906"/>
      <use xlink:href="#DejaVuSans-65" x="349.105469"/>
      <use xlink:href="#DejaVuSans-20" x="410.628906"/>
      <use xlink:href="#DejaVuSans-42" x="442.416016"/>
      <use xlink:href="#DejaVuSans-4f" x="509.269531"/>
      <use xlink:href="#DejaVuSans-4c" x="587.980469"/>
      <use xlink:href="#DejaVuSans-44" x="643.693359"/>
      <use xlink:href="#DejaVuSans-20" x="720.695312"/>
      <use xlink:href="#DejaVuSans-52" x="752.482422"/>
      <use xlink:href="#DejaVuSans-65" x="817.464844"/>
      <use xlink:href="#DejaVuSans-73" x="878.988281"/>
      <use xlink:href="#DejaVuSans-70" x="931.087891"/>
      <use xlink:href="#DejaVuSans-6f" x="994.564453"/>
      <use xlink:href="#DejaVuSans-6e" x="1055.746094"/>
      <use xlink:href="#DejaVuSans-73" x="1119.125"/>
      <use xlink:href="#DejaVuSans-65" x="1171.224609"/>
     </g>
    </g>
   </g>
   <g id="line2d_29">
    <path d="M 432.870012 163.536817 
L 462.034127 163.536817 
" clip-path="url(#pfd45041526)" style="fill: none; stroke: #b2b2b2; stroke-width: 2; stroke-linecap: square"/>
   </g>
   <g id="line2d_30">
    <path d="M 505.780299 163.473523 
L 534.944414 163.473523 
" clip-path="url(#pfd45041526)" style="fill: none; stroke: #9400d3; stroke-width: 2; stroke-linecap: square"/>
   </g>
   <g id="line2d_31">
    <path d="M 578.690586 166.739023 
L 607.854701 166.739023 
" clip-path="url(#pfd45041526)" style="fill: none; stroke: #ffa500; stroke-width: 2; stroke-linecap: square"/>
   </g>
   <g id="line2d_32">
    <path d="M 651.600873 163.924266 
L 680.764988 163.924266 
" clip-path="url(#pfd45041526)" style="fill: none; stroke: #ff0000; stroke-width: 2; stroke-linecap: square"/>
   </g>
   <g id="patch_8">
    <path d="M 404.435 262.387974 
L 404.435 47.04 
" style="fill: none; stroke: #000000; stroke-width: 0.8; stroke-linejoin: miter; stroke-linecap: square"/>
   </g>
   <g id="patch_9">
    <path d="M 709.2 262.387974 
L 709.2 47.04 
" style="fill: none; stroke: #000000; stroke-width: 0.8; stroke-linejoin: miter; stroke-linecap: square"/>
   </g>
   <g id="patch_10">
    <path d="M 404.435 262.387974 
L 709.2 262.387974 
" style="fill: none; stroke: #000000; stroke-width: 0.8; stroke-linejoin: miter; stroke-linecap: square"/>
   </g>
   <g id="patch_11">
    <path d="M 404.435 47.04 
L 709.2 47.04 
" style="fill: none; stroke: #000000; stroke-width: 0.8; stroke-linejoin: miter; stroke-linecap: square"/>
   </g>
   <g id="text_28">
    <!-- V23 -->
    <g transform="translate(545.078125 41.04) scale(0.12 -0.12)">
     <use xlink:href="#DejaVuSans-56"/>
     <use xlink:href="#DejaVuSans-32" x="68.408203"/>
     <use xlink:href="#DejaVuSans-33" x="132.03125"/>
    </g>
   </g>
  </g>
  <g id="text_29">
   <!-- pnr668 -->
   <g transform="translate(338.469375 16.318125) scale(0.12 -0.12)">
    <defs>
     <path id="DejaVuSans-36" d="M 2113 2584 
Q 1688 2584 1439 2293 
Q 1191 2003 1191 1497 
Q 1191 994 1439 701 
Q 1688 409 2113 409 
Q 2538 409 2786 701 
Q 3034 994 3034 1497 
Q 3034 2003 2786 2293 
Q 2538 2584 2113 2584 
z
M 3366 4563 
L 3366 3988 
Q 3128 4100 2886 4159 
Q 2644 4219 2406 4219 
Q 1781 4219 1451 3797 
Q 1122 3375 1075 2522 
Q 1259 2794 1537 2939 
Q 1816 3084 2150 3084 
Q 2853 3084 3261 2657 
Q 3669 2231 3669 1497 
Q 3669 778 3244 343 
Q 2819 -91 2113 -91 
Q 1303 -91 875 529 
Q 447 1150 447 2328 
Q 447 3434 972 4092 
Q 1497 4750 2381 4750 
Q 2619 4750 2861 4703 
Q 3103 4656 3366 4563 
z
" transform="scale(0.015625)"/>
     <path id="DejaVuSans-38" d="M 2034 2216 
Q 1584 2216 1326 1975 
Q 1069 1734 1069 1313 
Q 1069 891 1326 650 
Q 1584 409 2034 409 
Q 2484 409 2743 651 
Q 3003 894 3003 1313 
Q 3003 1734 2745 1975 
Q 2488 2216 2034 2216 
z
M 1403 2484 
Q 997 2584 770 2862 
Q 544 3141 544 3541 
Q 544 4100 942 4425 
Q 1341 4750 2034 4750 
Q 2731 4750 3128 4425 
Q 3525 4100 3525 3541 
Q 3525 3141 3298 2862 
Q 3072 2584 2669 2484 
Q 3125 2378 3379 2068 
Q 3634 1759 3634 1313 
Q 3634 634 3220 271 
Q 2806 -91 2034 -91 
Q 1263 -91 848 271 
Q 434 634 434 1313 
Q 434 1759 690 2068 
Q 947 2378 1403 2484 
z
M 1172 3481 
Q 1172 3119 1398 2916 
Q 1625 2713 2034 2713 
Q 2441 2713 2670 2916 
Q 2900 3119 2900 3481 
Q 2900 3844 2670 4047 
Q 2441 4250 2034 4250 
Q 1625 4250 1398 4047 
Q 1172 3844 1172 3481 
z
" transform="scale(0.015625)"/>
    </defs>
    <use xlink:href="#DejaVuSans-70"/>
    <use xlink:href="#DejaVuSans-6e" x="63.476562"/>
    <use xlink:href="#DejaVuSans-72" x="126.855469"/>
    <use xlink:href="#DejaVuSans-36" x="167.96875"/>
    <use xlink:href="#DejaVuSans-36" x="231.591797"/>
    <use xlink:href="#DejaVuSans-38" x="295.214844"/>
   </g>
  </g>
 </g>
 <defs>
  <clipPath id="p6a7a9141a1">
   <rect x="46.64" y="47.04" width="304.765" height="215.347974"/>
  </clipPath>
  <clipPath id="pfd45041526">
   <rect x="404.435" y="47.04" width="304.765" height="215.347974"/>
  </clipPath>
 </defs>
</svg>
