<?xml version="1.0" encoding="utf-8" standalone="no"?>
<!DOCTYPE svg PUBLIC "-//W3C//DTD SVG 1.1//EN"
  "http://www.w3.org/Graphics/SVG/1.1/DTD/svg11.dtd">
<svg xmlns:xlink="http://www.w3.org/1999/xlink" width="170.07874pt" height="113.385827pt" viewBox="0 0 170.07874 113.385827" xmlns="http://www.w3.org/2000/svg" version="1.1">
 <metadata>
  <rdf:RDF xmlns:dc="http://purl.org/dc/elements/1.1/" xmlns:cc="http://creativecommons.org/ns#" xmlns:rdf="http://www.w3.org/1999/02/22-rdf-syntax-ns#">
   <cc:Work>
    <dc:type rdf:resource="http://purl.org/dc/dcmitype/StillImage"/>
    <dc:date>2026-05-26T10:34:49.149035</dc:date>
    <dc:format>image/svg+xml</dc:format>
    <dc:creator>
     <cc:Agent>
      <dc:title>Matplotlib v3.8.0, https://matplotlib.org/</dc:title>
     </cc:Agent>
    </dc:creator>
   </cc:Work>
  </rdf:RDF>
 </metadata>
 <defs>
  <style type="text/css">*{stroke-linejoin: round; stroke-linecap: butt}</style>
 </defs>
 <g id="figure_1">
  <g id="patch_1">
   <path d="M 0 113.385827 
L 170.07874 113.385827 
L 170.07874 0 
L 0 0 
z
" style="fill: #ffffff"/>
  </g>
  <g id="axes_1">
   <g id="patch_2">
    <path d="M 119.055118 85.03937 
L 161.574803 85.03937 
L 161.574803 5.669291 
L 119.055118 5.669291 
z
" style="fill: #ffffff"/>
   </g>
   <g id="PolyCollection_1">
    <defs>
     <path id="mb81f68e2b0" d="M 145.663427 -29.872804 
L 126.664 -29.872804 
L 150.61562 -42.592368 
L 149.380996 -55.311932 
L 148.843485 -68.031496 
L 139.259686 -80.75106 
L 147.931679 -93.470624 
L 135.22572 -106.190188 
L 153.921297 -106.190188 
L 153.921297 -106.190188 
L 163.897712 -93.470624 
L 149.937943 -80.75106 
L 156.777552 -68.031496 
L 158.556818 -55.311932 
L 161.735233 -42.592368 
L 145.663427 -29.872804 
z
"/>
    </defs>
    <g clip-path="url(#p2c8b4bdf5e)">
     <use xlink:href="#mb81f68e2b0" x="0" y="113.385827" style="fill: #ff8c00; fill-opacity: 0.4"/>
    </g>
   </g>
   <g id="matplotlib.axis_1">
    <g id="xtick_1">
     <g id="line2d_1">
      <defs>
       <path id="me5518bc0a7" d="M 0 0 
L 0 3.5 
" style="stroke: #000000; stroke-width: 0.8"/>
      </defs>
      <g>
       <use xlink:href="#me5518bc0a7" x="137.27784" y="89.03937" style="stroke: #000000; stroke-width: 0.8"/>
      </g>
     </g>
     <g id="text_1">
      <!-- 0 -->
      <g transform="translate(135.36909 100.598433) scale(0.06 -0.06)">
       <defs>
        <path id="DejaVuSans-30" d="M 2034 4250 
Q 1547 4250 1301 3770 
Q 1056 3291 1056 2328 
Q 1056 1369 1301 889 
Q 1547 409 2034 409 
Q 2525 409 2770 889 
Q 3016 1369 3016 2328 
Q 3016 3291 2770 3770 
Q 2525 4250 2034 4250 
z
M 2034 4750 
Q 2819 4750 3233 4129 
Q 3647 3509 3647 2328 
Q 3647 1150 3233 529 
Q 2819 -91 2034 -91 
Q 1250 -91 836 529 
Q 422 1150 422 2328 
Q 422 3509 836 4129 
Q 1250 4750 2034 4750 
z
" transform="scale(0.015625)"/>
       </defs>
       <use xlink:href="#DejaVuSans-30"/>
      </g>
     </g>
    </g>
    <g id="xtick_2">
     <g id="line2d_2">
      <g>
       <use xlink:href="#me5518bc0a7" x="161.574803" y="89.03937" style="stroke: #000000; stroke-width: 0.8"/>
      </g>
     </g>
     <g id="text_2">
      <!-- 2 -->
      <g transform="translate(159.666053 100.598433) scale(0.06 -0.06)">
       <defs>
        <path id="DejaVuSans-32" d="M 1228 531 
L 3431 531 
L 3431 0 
L 469 0 
L 469 531 
Q 828 903 1448 1529 
Q 2069 2156 2228 2338 
Q 2531 2678 2651 2914 
Q 2772 3150 2772 3378 
Q 2772 3750 2511 3984 
Q 2250 4219 1831 4219 
Q 1534 4219 1204 4116 
Q 875 4013 500 3803 
L 500 4441 
Q 881 4594 1212 4672 
Q 1544 4750 1819 4750 
Q 2544 4750 2975 4387 
Q 3406 4025 3406 3419 
Q 3406 3131 3298 2873 
Q 3191 2616 2906 2266 
Q 2828 2175 2409 1742 
Q 1991 1309 1228 531 
z
" transform="scale(0.015625)"/>
       </defs>
       <use xlink:href="#DejaVuSans-32"/>
      </g>
     </g>
    </g>
    <g id="text_3">
     <!-- $\Delta$ BOLD % -->
     <g transform="translate(122.534961 111.165151) scale(0.07 -0.07)">
      <defs>
       <path id="DejaVuSans-394" d="M 2188 4044 
L 906 525 
L 3472 525 
L 2188 4044 
z
M 50 0 
L 1831 4666 
L 2547 4666 
L 4325 0 
L 50 0 
z
" transform="scale(0.015625)"/>
       <path id="DejaVuSans-20" transform="scale(0.015625)"/>
       <path id="DejaVuSans-42" d="M 1259 2228 
L 1259 519 
L 2272 519 
Q 2781 519 3026 730 
Q 3272 941 3272 1375 
Q 3272 1813 3026 2020 
Q 2781 2228 2272 2228 
L 1259 2228 
z
M 1259 4147 
L 1259 2741 
L 2194 2741 
Q 2656 2741 2882 2914 
Q 3109 3088 3109 3444 
Q 3109 3797 2882 3972 
Q 2656 4147 2194 4147 
L 1259 4147 
z
M 628 4666 
L 2241 4666 
Q 2963 4666 3353 4366 
Q 3744 4066 3744 3513 
Q 3744 3084 3544 2831 
Q 3344 2578 2956 2516 
Q 3422 2416 3680 2098 
Q 3938 1781 3938 1306 
Q 3938 681 3513 340 
Q 3088 0 2303 0 
L 628 0 
L 628 4666 
z
" transform="scale(0.015625)"/>
       <path id="DejaVuSans-4f" d="M 2522 4238 
Q 1834 4238 1429 3725 
Q 1025 3213 1025 2328 
Q 1025 1447 1429 934 
Q 1834 422 2522 422 
Q 3209 422 3611 934 
Q 4013 1447 4013 2328 
Q 4013 3213 3611 3725 
Q 3209 4238 2522 4238 
z
M 2522 4750 
Q 3503 4750 4090 4092 
Q 4678 3434 4678 2328 
Q 4678 1225 4090 567 
Q 3503 -91 2522 -91 
Q 1538 -91 948 565 
Q 359 1222 359 2328 
Q 359 3434 948 4092 
Q 1538 4750 2522 4750 
z
" transform="scale(0.015625)"/>
       <path id="DejaVuSans-4c" d="M 628 4666 
L 1259 4666 
L 1259 531 
L 3531 531 
L 3531 0 
L 628 0 
L 628 4666 
z
" transform="scale(0.015625)"/>
       <path id="DejaVuSans-44" d="M 1259 4147 
L 1259 519 
L 2022 519 
Q 2988 519 3436 956 
Q 3884 1394 3884 2338 
Q 3884 3275 3436 3711 
Q 2988 4147 2022 4147 
L 1259 4147 
z
M 628 4666 
L 1925 4666 
Q 3281 4666 3915 4102 
Q 4550 3538 4550 2338 
Q 4550 1131 3912 565 
Q 3275 0 1925 0 
L 628 0 
L 628 4666 
z
" transform="scale(0.015625)"/>
       <path id="DejaVuSans-25" d="M 4653 2053 
Q 4381 2053 4226 1822 
Q 4072 1591 4072 1178 
Q 4072 772 4226 539 
Q 4381 306 4653 306 
Q 4919 306 5073 539 
Q 5228 772 5228 1178 
Q 5228 1588 5073 1820 
Q 4919 2053 4653 2053 
z
M 4653 2450 
Q 5147 2450 5437 2106 
Q 5728 1763 5728 1178 
Q 5728 594 5436 251 
Q 5144 -91 4653 -91 
Q 4153 -91 3862 251 
Q 3572 594 3572 1178 
Q 3572 1766 3864 2108 
Q 4156 2450 4653 2450 
z
M 1428 4353 
Q 1159 4353 1004 4120 
Q 850 3888 850 3481 
Q 850 3069 1003 2837 
Q 1156 2606 1428 2606 
Q 1700 2606 1854 2837 
Q 2009 3069 2009 3481 
Q 2009 3884 1853 4118 
Q 1697 4353 1428 4353 
z
M 4250 4750 
L 4750 4750 
L 1831 -91 
L 1331 -91 
L 4250 4750 
z
M 1428 4750 
Q 1922 4750 2215 4408 
Q 2509 4066 2509 3481 
Q 2509 2891 2217 2550 
Q 1925 2209 1428 2209 
Q 931 2209 642 2551 
Q 353 2894 353 3481 
Q 353 4063 643 4406 
Q 934 4750 1428 4750 
z
" transform="scale(0.015625)"/>
      </defs>
      <use xlink:href="#DejaVuSans-394" transform="translate(0 0.78125)"/>
      <use xlink:href="#DejaVuSans-20" transform="translate(68.408203 0.78125)"/>
      <use xlink:href="#DejaVuSans-42" transform="translate(100.195312 0.78125)"/>
      <use xlink:href="#DejaVuSans-4f" transform="translate(168.798828 0.78125)"/>
      <use xlink:href="#DejaVuSans-4c" transform="translate(247.509766 0.78125)"/>
      <use xlink:href="#DejaVuSans-44" transform="translate(303.222656 0.78125)"/>
      <use xlink:href="#DejaVuSans-20" transform="translate(380.224609 0.78125)"/>
      <use xlink:href="#DejaVuSans-25" transform="translate(412.011719 0.78125)"/>
     </g>
    </g>
   </g>
   <g id="matplotlib.axis_2">
    <g id="ytick_1">
     <g id="line2d_3">
      <defs>
       <path id="mf701957ab8" d="M 0 0 
L -3.5 0 
" style="stroke: #000000; stroke-width: 0.8"/>
      </defs>
      <g>
       <use xlink:href="#mf701957ab8" x="115.055118" y="83.513022" style="stroke: #000000; stroke-width: 0.8"/>
      </g>
     </g>
    </g>
    <g id="ytick_2">
     <g id="line2d_4">
      <g>
       <use xlink:href="#mf701957ab8" x="115.055118" y="68.249546" style="stroke: #000000; stroke-width: 0.8"/>
      </g>
     </g>
    </g>
    <g id="ytick_3">
     <g id="line2d_5">
      <g>
       <use xlink:href="#mf701957ab8" x="115.055118" y="52.986069" style="stroke: #000000; stroke-width: 0.8"/>
      </g>
     </g>
    </g>
    <g id="ytick_4">
     <g id="line2d_6">
      <g>
       <use xlink:href="#mf701957ab8" x="115.055118" y="37.722592" style="stroke: #000000; stroke-width: 0.8"/>
      </g>
     </g>
    </g>
    <g id="ytick_5">
     <g id="line2d_7">
      <g>
       <use xlink:href="#mf701957ab8" x="115.055118" y="22.459116" style="stroke: #000000; stroke-width: 0.8"/>
      </g>
     </g>
    </g>
    <g id="ytick_6">
     <g id="line2d_8">
      <g>
       <use xlink:href="#mf701957ab8" x="115.055118" y="7.195639" style="stroke: #000000; stroke-width: 0.8"/>
      </g>
     </g>
    </g>
   </g>
   <g id="line2d_9">
    <path d="M 137.27784 83.513022 
L 137.27784 7.195639 
" clip-path="url(#p2c8b4bdf5e)" style="fill: none; stroke-dasharray: 5.55,2.4; stroke-dashoffset: 0; stroke: #808080; stroke-width: 1.5"/>
   </g>
   <g id="line2d_10">
    <path d="M 136.163713 83.513022 
L 156.175426 70.793459 
L 153.968907 58.073895 
L 152.810519 45.354331 
L 144.598815 32.634767 
L 155.914695 19.915203 
L 144.573509 7.195639 
" clip-path="url(#p2c8b4bdf5e)" style="fill: none; stroke: #ff8c00; stroke-width: 1.5; stroke-linecap: square"/>
   </g>
   <g id="line2d_11">
    <defs>
     <path id="mc456ee7915" d="M 1.448099 -0.62333 
L 0.295992 -0.000514 
L 1.448099 0.626413 
L 1.262076 0.940904 
L 0.182939 0.289311 
L 0.182939 1.5 
L -0.182939 1.5 
L -0.182939 0.289311 
L -1.262076 0.940904 
L -1.448099 0.626413 
L -0.294964 -0.000514 
L -1.448099 -0.62333 
L -1.262076 -0.940904 
L -0.182939 -0.289311 
L -0.182939 -1.5 
L 0.182939 -1.5 
L 0.182939 -0.289311 
L 1.262076 -0.940904 
L 1.448099 -0.62333 
z
" style="stroke: #000000"/>
    </defs>
    <g clip-path="url(#p2c8b4bdf5e)">
     <use xlink:href="#mc456ee7915" x="164.66977" y="70.793459" style="stroke: #000000"/>
     <use xlink:href="#mc456ee7915" x="161.190741" y="58.073895" style="stroke: #000000"/>
     <use xlink:href="#mc456ee7915" x="159.219433" y="45.354331" style="stroke: #000000"/>
    </g>
   </g>
   <g id="line2d_12">
    <path d="M 165.594317 83.513022 
L 171.07874 78.116342 
M 171.07874 68.722579 
L 132.811461 58.073895 
L 143.081847 45.354331 
L 158.178885 32.634767 
L 171.07874 29.777136 
M 171.07874 16.056803 
L 68.837927 7.195639 
" clip-path="url(#p2c8b4bdf5e)" style="fill: none; stroke: #ff8c00; stroke-opacity: 0.3; stroke-width: 1.5; stroke-linecap: square"/>
   </g>
   <g id="line2d_13">
    <path d="M 138.824295 83.513022 
L 171.07874 72.82464 
M 171.07874 66.660938 
L 158.3421 58.073895 
L 158.331211 45.354331 
L 155.300149 32.634767 
L 141.064864 19.915203 
L 171.07874 14.656448 
" clip-path="url(#p2c8b4bdf5e)" style="fill: none; stroke: #ff8c00; stroke-opacity: 0.3; stroke-width: 1.5; stroke-linecap: square"/>
   </g>
   <g id="line2d_14">
    <path d="M 156.321855 83.513022 
L 150.601506 70.793459 
L 145.412929 58.073895 
L 152.392825 45.354331 
L 121.080437 32.634767 
L 138.442614 19.915203 
L 131.527752 7.195639 
" clip-path="url(#p2c8b4bdf5e)" style="fill: none; stroke: #ff8c00; stroke-opacity: 0.3; stroke-width: 1.5; stroke-linecap: square"/>
   </g>
   <g id="line2d_15">
    <path d="M 124.708656 83.513022 
L 140.752018 70.793459 
L 138.843614 58.073895 
L 149.943425 45.354331 
L 145.898452 32.634767 
L 149.364102 19.915203 
L 141.895214 7.195639 
" clip-path="url(#p2c8b4bdf5e)" style="fill: none; stroke: #ff8c00; stroke-opacity: 0.3; stroke-width: 1.5; stroke-linecap: square"/>
   </g>
   <g id="line2d_16">
    <path d="M 127.063193 83.513022 
L 158.973273 70.793459 
L 171.07874 62.48012 
M 171.07874 49.357518 
L 168.131995 45.354331 
L 149.90703 32.634767 
L 171.07874 21.51796 
M 171.07874 18.596119 
L 144.69756 7.195639 
" clip-path="url(#p2c8b4bdf5e)" style="fill: none; stroke: #ff8c00; stroke-opacity: 0.3; stroke-width: 1.5; stroke-linecap: square"/>
   </g>
   <g id="line2d_17">
    <path d="M 149.881832 83.513022 
L 143.113859 70.793459 
L 144.602584 58.073895 
L 143.310602 45.354331 
L 148.306003 32.634767 
L 104.125673 19.915203 
L 118.198182 7.195639 
" clip-path="url(#p2c8b4bdf5e)" style="fill: none; stroke: #ff8c00; stroke-opacity: 0.3; stroke-width: 1.5; stroke-linecap: square"/>
   </g>
   <g id="line2d_18">
    <path d="M 124.397186 83.513022 
L 121.09517 70.793459 
L 134.447695 58.073895 
L 171.07874 48.324662 
M 171.07874 42.650493 
L 129.737301 32.634767 
L 140.364166 19.915203 
L 171.07874 9.439817 
" clip-path="url(#p2c8b4bdf5e)" style="fill: none; stroke: #ff8c00; stroke-opacity: 0.3; stroke-width: 1.5; stroke-linecap: square"/>
   </g>
   <g id="line2d_19">
    <path d="M 168.036116 83.513022 
L 144.503429 70.793459 
L 152.694425 58.073895 
L 144.248764 45.354331 
L 145.797735 32.634767 
L 138.356959 19.915203 
L 144.803998 7.195639 
" clip-path="url(#p2c8b4bdf5e)" style="fill: none; stroke: #ff8c00; stroke-opacity: 0.3; stroke-width: 1.5; stroke-linecap: square"/>
   </g>
   <g id="line2d_20">
    <path d="M 115.900907 83.513022 
L 168.301681 70.793459 
L 156.831052 58.073895 
L 155.417184 45.354331 
L 117.806385 32.634767 
L 155.104128 19.915203 
L 144.892874 7.195639 
" clip-path="url(#p2c8b4bdf5e)" style="fill: none; stroke: #ff8c00; stroke-opacity: 0.3; stroke-width: 1.5; stroke-linecap: square"/>
   </g>
   <g id="line2d_21">
    <path d="M 169.859747 83.513022 
L 146.125487 70.793459 
L 152.197819 58.073895 
L 145.432864 45.354331 
L 144.145945 32.634767 
L 149.927507 19.915203 
L 145.00594 7.195639 
" clip-path="url(#p2c8b4bdf5e)" style="fill: none; stroke: #ff8c00; stroke-opacity: 0.3; stroke-width: 1.5; stroke-linecap: square"/>
   </g>
   <g id="line2d_22">
    <path d="M 149.11183 83.513022 
L 151.039608 70.793459 
L 171.07874 63.534932 
M 171.07874 54.840362 
L 126.849154 45.354331 
L 129.314431 32.634767 
L 171.07874 23.53082 
M 171.07874 14.00976 
L 151.939912 7.195639 
" clip-path="url(#p2c8b4bdf5e)" style="fill: none; stroke: #ff8c00; stroke-opacity: 0.3; stroke-width: 1.5; stroke-linecap: square"/>
   </g>
   <g id="line2d_23">
    <path d="M 44.264628 83.513022 
L 171.07874 72.731199 
M 171.07874 59.676599 
L 167.792931 58.073895 
L 164.347115 45.354331 
L 171.07874 41.978803 
M 171.07874 16.99586 
L 151.763262 7.195639 
" clip-path="url(#p2c8b4bdf5e)" style="fill: none; stroke: #ff8c00; stroke-opacity: 0.3; stroke-width: 1.5; stroke-linecap: square"/>
   </g>
   <g id="patch_3">
    <path d="M 115.055118 85.03937 
L 115.055118 5.669291 
" style="fill: none; stroke: #000000; stroke-width: 0.8; stroke-linejoin: miter; stroke-linecap: square"/>
   </g>
   <g id="patch_4">
    <path d="M 119.055118 89.03937 
L 161.574803 89.03937 
" style="fill: none; stroke: #000000; stroke-width: 0.8; stroke-linejoin: miter; stroke-linecap: square"/>
   </g>
   <g id="text_4">
    <!-- ctr-iso0 -->
    <g style="fill: #ff8c00" transform="translate(151.248594 79.697153) scale(0.06 -0.06)">
     <defs>
      <path id="DejaVuSans-63" d="M 3122 3366 
L 3122 2828 
Q 2878 2963 2633 3030 
Q 2388 3097 2138 3097 
Q 1578 3097 1268 2742 
Q 959 2388 959 1747 
Q 959 1106 1268 751 
Q 1578 397 2138 397 
Q 2388 397 2633 464 
Q 2878 531 3122 666 
L 3122 134 
Q 2881 22 2623 -34 
Q 2366 -91 2075 -91 
Q 1284 -91 818 406 
Q 353 903 353 1747 
Q 353 2603 823 3093 
Q 1294 3584 2113 3584 
Q 2378 3584 2631 3529 
Q 2884 3475 3122 3366 
z
" transform="scale(0.015625)"/>
      <path id="DejaVuSans-74" d="M 1172 4494 
L 1172 3500 
L 2356 3500 
L 2356 3053 
L 1172 3053 
L 1172 1153 
Q 1172 725 1289 603 
Q 1406 481 1766 481 
L 2356 481 
L 2356 0 
L 1766 0 
Q 1100 0 847 248 
Q 594 497 594 1153 
L 594 3053 
L 172 3053 
L 172 3500 
L 594 3500 
L 594 4494 
L 1172 4494 
z
" transform="scale(0.015625)"/>
      <path id="DejaVuSans-72" d="M 2631 2963 
Q 2534 3019 2420 3045 
Q 2306 3072 2169 3072 
Q 1681 3072 1420 2755 
Q 1159 2438 1159 1844 
L 1159 0 
L 581 0 
L 581 3500 
L 1159 3500 
L 1159 2956 
Q 1341 3275 1631 3429 
Q 1922 3584 2338 3584 
Q 2397 3584 2469 3576 
Q 2541 3569 2628 3553 
L 2631 2963 
z
" transform="scale(0.015625)"/>
      <path id="DejaVuSans-2d" d="M 313 2009 
L 1997 2009 
L 1997 1497 
L 313 1497 
L 313 2009 
z
" transform="scale(0.015625)"/>
      <path id="DejaVuSans-69" d="M 603 3500 
L 1178 3500 
L 1178 0 
L 603 0 
L 603 3500 
z
M 603 4863 
L 1178 4863 
L 1178 4134 
L 603 4134 
L 603 4863 
z
" transform="scale(0.015625)"/>
      <path id="DejaVuSans-73" d="M 2834 3397 
L 2834 2853 
Q 2591 2978 2328 3040 
Q 2066 3103 1784 3103 
Q 1356 3103 1142 2972 
Q 928 2841 928 2578 
Q 928 2378 1081 2264 
Q 1234 2150 1697 2047 
L 1894 2003 
Q 2506 1872 2764 1633 
Q 3022 1394 3022 966 
Q 3022 478 2636 193 
Q 2250 -91 1575 -91 
Q 1294 -91 989 -36 
Q 684 19 347 128 
L 347 722 
Q 666 556 975 473 
Q 1284 391 1588 391 
Q 1994 391 2212 530 
Q 2431 669 2431 922 
Q 2431 1156 2273 1281 
Q 2116 1406 1581 1522 
L 1381 1569 
Q 847 1681 609 1914 
Q 372 2147 372 2553 
Q 372 3047 722 3315 
Q 1072 3584 1716 3584 
Q 2034 3584 2315 3537 
Q 2597 3491 2834 3397 
z
" transform="scale(0.015625)"/>
      <path id="DejaVuSans-6f" d="M 1959 3097 
Q 1497 3097 1228 2736 
Q 959 2375 959 1747 
Q 959 1119 1226 758 
Q 1494 397 1959 397 
Q 2419 397 2687 759 
Q 2956 1122 2956 1747 
Q 2956 2369 2687 2733 
Q 2419 3097 1959 3097 
z
M 1959 3584 
Q 2709 3584 3137 3096 
Q 3566 2609 3566 1747 
Q 3566 888 3137 398 
Q 2709 -91 1959 -91 
Q 1206 -91 779 398 
Q 353 888 353 1747 
Q 353 2609 779 3096 
Q 1206 3584 1959 3584 
z
" transform="scale(0.015625)"/>
     </defs>
     <use xlink:href="#DejaVuSans-63"/>
     <use xlink:href="#DejaVuSans-74" x="54.980469"/>
     <use xlink:href="#DejaVuSans-72" x="94.189453"/>
     <use xlink:href="#DejaVuSans-2d" x="128.927734"/>
     <use xlink:href="#DejaVuSans-69" x="165.011719"/>
     <use xlink:href="#DejaVuSans-73" x="192.794922"/>
     <use xlink:href="#DejaVuSans-6f" x="244.894531"/>
     <use xlink:href="#DejaVuSans-30" x="306.076172"/>
    </g>
   </g>
  </g>
 </g>
 <defs>
  <clipPath id="p2c8b4bdf5e">
   <rect x="119.055118" y="5.669291" width="42.519685" height="79.370079"/>
  </clipPath>
 </defs>
</svg>
