<?xml version="1.0" encoding="utf-8" standalone="no"?>
<!DOCTYPE svg PUBLIC "-//W3C//DTD SVG 1.1//EN"
  "http://www.w3.org/Graphics/SVG/1.1/DTD/svg11.dtd">
<svg xmlns:xlink="http://www.w3.org/1999/xlink" width="576pt" height="504pt" viewBox="0 0 576 504" xmlns="http://www.w3.org/2000/svg" version="1.1">
 <metadata>
  <rdf:RDF xmlns:dc="http://purl.org/dc/elements/1.1/" xmlns:cc="http://creativecommons.org/ns#" xmlns:rdf="http://www.w3.org/1999/02/22-rdf-syntax-ns#">
   <cc:Work>
    <dc:type rdf:resource="http://purl.org/dc/dcmitype/StillImage"/>
    <dc:date>2026-05-26T10:36:38.895041</dc:date>
    <dc:format>image/svg+xml</dc:format>
    <dc:creator>
     <cc:Agent>
      <dc:title>Matplotlib v3.8.0, https://matplotlib.org/</dc:title>
     </cc:Agent>
    </dc:creator>
   </cc:Work>
  </rdf:RDF>
 </metadata>
 <defs>
  <style type="text/css">*{stroke-linejoin: round; stroke-linecap: butt}</style>
 </defs>
 <g id="figure_1">
  <g id="patch_1">
   <path d="M 0 504 
L 576 504 
L 576 0 
L 0 0 
z
" style="fill: #ffffff"/>
  </g>
  <g id="axes_1">
   <g id="patch_2">
    <path d="M 86.4 241.92 
L 489.6 241.92 
L 489.6 40.32 
L 86.4 40.32 
z
" style="fill: #ffffff"/>
   </g>
   <g id="PolyCollection_1">
    <defs>
     <path id="mbee408bb3d" d="M 86.4 -432.944941 
L 86.4 -351.394858 
L 94.628571 -351.260114 
L 102.857143 -351.223847 
L 111.085714 -348.330886 
L 119.314286 -342.865896 
L 127.542857 -339.443503 
L 135.771429 -343.34614 
L 144 -347.420758 
L 152.228571 -355.009887 
L 160.457143 -357.563087 
L 168.685714 -358.207179 
L 176.914286 -361.883658 
L 185.142857 -368.673258 
L 193.371429 -369.458984 
L 201.6 -374.379652 
L 209.828571 -372.222719 
L 218.057143 -368.362251 
L 226.285714 -365.287719 
L 234.514286 -364.669161 
L 242.742857 -363.937478 
L 250.971429 -362.956457 
L 259.2 -360.870132 
L 267.428571 -360.380653 
L 275.657143 -356.943932 
L 283.885714 -353.85047 
L 292.114286 -351.13055 
L 300.342857 -346.249138 
L 308.571429 -340.569796 
L 316.8 -337.788847 
L 325.028571 -335.630297 
L 333.257143 -335.873904 
L 341.485714 -337.549368 
L 349.714286 -335.234993 
L 357.942857 -333.25848 
L 366.171429 -331.712002 
L 374.4 -334.476108 
L 382.628571 -340.486875 
L 390.857143 -344.654862 
L 399.085714 -345.760545 
L 407.314286 -347.524567 
L 415.542857 -351.440337 
L 423.771429 -355.302196 
L 432 -354.599988 
L 440.228571 -350.569044 
L 448.457143 -346.478046 
L 456.685714 -346.387944 
L 464.914286 -345.439921 
L 473.142857 -342.46744 
L 481.371429 -345.654706 
L 489.6 -349.408979 
L 489.6 -380.179381 
L 489.6 -380.179381 
L 481.371429 -378.187132 
L 473.142857 -375.302234 
L 464.914286 -378.716563 
L 456.685714 -379.57107 
L 448.457143 -380.902854 
L 440.228571 -384.754802 
L 432 -388.949527 
L 423.771429 -391.477533 
L 415.542857 -389.874176 
L 407.314286 -389.08995 
L 399.085714 -392.372976 
L 390.857143 -396.430868 
L 382.628571 -395.032633 
L 374.4 -390.153285 
L 366.171429 -387.745917 
L 357.942857 -387.491906 
L 349.714286 -389.28184 
L 341.485714 -392.902687 
L 333.257143 -391.592343 
L 325.028571 -392.264397 
L 316.8 -394.861477 
L 308.571429 -398.226401 
L 300.342857 -406.185817 
L 292.114286 -412.855695 
L 283.885714 -414.78294 
L 275.657143 -416.833065 
L 267.428571 -419.760064 
L 259.2 -420.534655 
L 250.971429 -422.419462 
L 242.742857 -420.95144 
L 234.514286 -421.124656 
L 226.285714 -423.438194 
L 218.057143 -428.607053 
L 209.828571 -432.988643 
L 201.6 -434.766363 
L 193.371429 -430.844897 
L 185.142857 -431.503054 
L 176.914286 -427.241781 
L 168.685714 -424.072596 
L 160.457143 -427.495912 
L 152.228571 -426.555779 
L 144 -423.176486 
L 135.771429 -422.050183 
L 127.542857 -417.528895 
L 119.314286 -413.377181 
L 111.085714 -420.178194 
L 102.857143 -428.587923 
L 94.628571 -431.470529 
L 86.4 -432.944941 
z
" style="stroke: #1ab200; stroke-opacity: 0.4"/>
    </defs>
    <g clip-path="url(#pa9e6d0be81)">
     <use xlink:href="#mbee408bb3d" x="0" y="504" style="fill: #1ab200; fill-opacity: 0.4; stroke: #1ab200; stroke-opacity: 0.4"/>
    </g>
   </g>
   <g id="matplotlib.axis_1">
    <g id="xtick_1">
     <g id="line2d_1">
      <defs>
       <path id="m313d0d019f" d="M 0 0 
L 0 3.5 
" style="stroke: #000000; stroke-width: 0.8"/>
      </defs>
      <g>
       <use xlink:href="#m313d0d019f" x="86.4" y="245.92" style="stroke: #000000; stroke-width: 0.8"/>
      </g>
     </g>
    </g>
    <g id="xtick_2">
     <g id="line2d_2">
      <g>
       <use xlink:href="#m313d0d019f" x="167.04" y="245.92" style="stroke: #000000; stroke-width: 0.8"/>
      </g>
     </g>
    </g>
    <g id="xtick_3">
     <g id="line2d_3">
      <g>
       <use xlink:href="#m313d0d019f" x="247.68" y="245.92" style="stroke: #000000; stroke-width: 0.8"/>
      </g>
     </g>
    </g>
    <g id="xtick_4">
     <g id="line2d_4">
      <g>
       <use xlink:href="#m313d0d019f" x="328.32" y="245.92" style="stroke: #000000; stroke-width: 0.8"/>
      </g>
     </g>
    </g>
    <g id="xtick_5">
     <g id="line2d_5">
      <g>
       <use xlink:href="#m313d0d019f" x="408.96" y="245.92" style="stroke: #000000; stroke-width: 0.8"/>
      </g>
     </g>
    </g>
    <g id="xtick_6">
     <g id="line2d_6">
      <g>
       <use xlink:href="#m313d0d019f" x="489.6" y="245.92" style="stroke: #000000; stroke-width: 0.8"/>
      </g>
     </g>
    </g>
   </g>
   <g id="matplotlib.axis_2">
    <g id="ytick_1">
     <g id="line2d_7">
      <defs>
       <path id="m739ccad852" d="M 0 0 
L -3.5 0 
" style="stroke: #000000; stroke-width: 0.8"/>
      </defs>
      <g>
       <use xlink:href="#m739ccad852" x="82.4" y="241.92" style="stroke: #000000; stroke-width: 0.8"/>
      </g>
     </g>
     <g id="text_1">
      <!-- −2.0 -->
      <g transform="translate(51.117187 245.719219) scale(0.1 -0.1)">
       <defs>
        <path id="DejaVuSans-2212" d="M 678 2272 
L 4684 2272 
L 4684 1741 
L 678 1741 
L 678 2272 
z
" transform="scale(0.015625)"/>
        <path id="DejaVuSans-32" d="M 1228 531 
L 3431 531 
L 3431 0 
L 469 0 
L 469 531 
Q 828 903 1448 1529 
Q 2069 2156 2228 2338 
Q 2531 2678 2651 2914 
Q 2772 3150 2772 3378 
Q 2772 3750 2511 3984 
Q 2250 4219 1831 4219 
Q 1534 4219 1204 4116 
Q 875 4013 500 3803 
L 500 4441 
Q 881 4594 1212 4672 
Q 1544 4750 1819 4750 
Q 2544 4750 2975 4387 
Q 3406 4025 3406 3419 
Q 3406 3131 3298 2873 
Q 3191 2616 2906 2266 
Q 2828 2175 2409 1742 
Q 1991 1309 1228 531 
z
" transform="scale(0.015625)"/>
        <path id="DejaVuSans-2e" d="M 684 794 
L 1344 794 
L 1344 0 
L 684 0 
L 684 794 
z
" transform="scale(0.015625)"/>
        <path id="DejaVuSans-30" d="M 2034 4250 
Q 1547 4250 1301 3770 
Q 1056 3291 1056 2328 
Q 1056 1369 1301 889 
Q 1547 409 2034 409 
Q 2525 409 2770 889 
Q 3016 1369 3016 2328 
Q 3016 3291 2770 3770 
Q 2525 4250 2034 4250 
z
M 2034 4750 
Q 2819 4750 3233 4129 
Q 3647 3509 3647 2328 
Q 3647 1150 3233 529 
Q 2819 -91 2034 -91 
Q 1250 -91 836 529 
Q 422 1150 422 2328 
Q 422 3509 836 4129 
Q 1250 4750 2034 4750 
z
" transform="scale(0.015625)"/>
       </defs>
       <use xlink:href="#DejaVuSans-2212"/>
       <use xlink:href="#DejaVuSans-32" x="83.789062"/>
       <use xlink:href="#DejaVuSans-2e" x="147.412109"/>
       <use xlink:href="#DejaVuSans-30" x="179.199219"/>
      </g>
     </g>
    </g>
    <g id="ytick_2">
     <g id="line2d_8">
      <g>
       <use xlink:href="#m739ccad852" x="82.4" y="216.72" style="stroke: #000000; stroke-width: 0.8"/>
      </g>
     </g>
     <g id="text_2">
      <!-- −1.5 -->
      <g transform="translate(51.117187 220.519219) scale(0.1 -0.1)">
       <defs>
        <path id="DejaVuSans-31" d="M 794 531 
L 1825 531 
L 1825 4091 
L 703 3866 
L 703 4441 
L 1819 4666 
L 2450 4666 
L 2450 531 
L 3481 531 
L 3481 0 
L 794 0 
L 794 531 
z
" transform="scale(0.015625)"/>
        <path id="DejaVuSans-35" d="M 691 4666 
L 3169 4666 
L 3169 4134 
L 1269 4134 
L 1269 2991 
Q 1406 3038 1543 3061 
Q 1681 3084 1819 3084 
Q 2600 3084 3056 2656 
Q 3513 2228 3513 1497 
Q 3513 744 3044 326 
Q 2575 -91 1722 -91 
Q 1428 -91 1123 -41 
Q 819 9 494 109 
L 494 744 
Q 775 591 1075 516 
Q 1375 441 1709 441 
Q 2250 441 2565 725 
Q 2881 1009 2881 1497 
Q 2881 1984 2565 2268 
Q 2250 2553 1709 2553 
Q 1456 2553 1204 2497 
Q 953 2441 691 2322 
L 691 4666 
z
" transform="scale(0.015625)"/>
       </defs>
       <use xlink:href="#DejaVuSans-2212"/>
       <use xlink:href="#DejaVuSans-31" x="83.789062"/>
       <use xlink:href="#DejaVuSans-2e" x="147.412109"/>
       <use xlink:href="#DejaVuSans-35" x="179.199219"/>
      </g>
     </g>
    </g>
    <g id="ytick_3">
     <g id="line2d_9">
      <g>
       <use xlink:href="#m739ccad852" x="82.4" y="191.52" style="stroke: #000000; stroke-width: 0.8"/>
      </g>
     </g>
     <g id="text_3">
      <!-- −1.0 -->
      <g transform="translate(51.117187 195.319219) scale(0.1 -0.1)">
       <use xlink:href="#DejaVuSans-2212"/>
       <use xlink:href="#DejaVuSans-31" x="83.789062"/>
       <use xlink:href="#DejaVuSans-2e" x="147.412109"/>
       <use xlink:href="#DejaVuSans-30" x="179.199219"/>
      </g>
     </g>
    </g>
    <g id="ytick_4">
     <g id="line2d_10">
      <g>
       <use xlink:href="#m739ccad852" x="82.4" y="166.32" style="stroke: #000000; stroke-width: 0.8"/>
      </g>
     </g>
     <g id="text_4">
      <!-- −0.5 -->
      <g transform="translate(51.117187 170.119219) scale(0.1 -0.1)">
       <use xlink:href="#DejaVuSans-2212"/>
       <use xlink:href="#DejaVuSans-30" x="83.789062"/>
       <use xlink:href="#DejaVuSans-2e" x="147.412109"/>
       <use xlink:href="#DejaVuSans-35" x="179.199219"/>
      </g>
     </g>
    </g>
    <g id="ytick_5">
     <g id="line2d_11">
      <g>
       <use xlink:href="#m739ccad852" x="82.4" y="141.12" style="stroke: #000000; stroke-width: 0.8"/>
      </g>
     </g>
     <g id="text_5">
      <!-- 0.0 -->
      <g transform="translate(59.496875 144.919219) scale(0.1 -0.1)">
       <use xlink:href="#DejaVuSans-30"/>
       <use xlink:href="#DejaVuSans-2e" x="63.623047"/>
       <use xlink:href="#DejaVuSans-30" x="95.410156"/>
      </g>
     </g>
    </g>
    <g id="ytick_6">
     <g id="line2d_12">
      <g>
       <use xlink:href="#m739ccad852" x="82.4" y="115.92" style="stroke: #000000; stroke-width: 0.8"/>
      </g>
     </g>
     <g id="text_6">
      <!-- 0.5 -->
      <g transform="translate(59.496875 119.719219) scale(0.1 -0.1)">
       <use xlink:href="#DejaVuSans-30"/>
       <use xlink:href="#DejaVuSans-2e" x="63.623047"/>
       <use xlink:href="#DejaVuSans-35" x="95.410156"/>
      </g>
     </g>
    </g>
    <g id="ytick_7">
     <g id="line2d_13">
      <g>
       <use xlink:href="#m739ccad852" x="82.4" y="90.72" style="stroke: #000000; stroke-width: 0.8"/>
      </g>
     </g>
     <g id="text_7">
      <!-- 1.0 -->
      <g transform="translate(59.496875 94.519219) scale(0.1 -0.1)">
       <use xlink:href="#DejaVuSans-31"/>
       <use xlink:href="#DejaVuSans-2e" x="63.623047"/>
       <use xlink:href="#DejaVuSans-30" x="95.410156"/>
      </g>
     </g>
    </g>
    <g id="ytick_8">
     <g id="line2d_14">
      <g>
       <use xlink:href="#m739ccad852" x="82.4" y="65.52" style="stroke: #000000; stroke-width: 0.8"/>
      </g>
     </g>
     <g id="text_8">
      <!-- 1.5 -->
      <g transform="translate(59.496875 69.319219) scale(0.1 -0.1)">
       <use xlink:href="#DejaVuSans-31"/>
       <use xlink:href="#DejaVuSans-2e" x="63.623047"/>
       <use xlink:href="#DejaVuSans-35" x="95.410156"/>
      </g>
     </g>
    </g>
    <g id="ytick_9">
     <g id="line2d_15">
      <g>
       <use xlink:href="#m739ccad852" x="82.4" y="40.32" style="stroke: #000000; stroke-width: 0.8"/>
      </g>
     </g>
     <g id="text_9">
      <!-- 2.0 -->
      <g transform="translate(59.496875 44.119219) scale(0.1 -0.1)">
       <use xlink:href="#DejaVuSans-32"/>
       <use xlink:href="#DejaVuSans-2e" x="63.623047"/>
       <use xlink:href="#DejaVuSans-30" x="95.410156"/>
      </g>
     </g>
    </g>
    <g id="text_10">
     <!-- BOLD % change -->
     <g transform="translate(45.453437 173.31625) rotate(-90) scale(0.08 -0.08)">
      <defs>
       <path id="DejaVuSans-42" d="M 1259 2228 
L 1259 519 
L 2272 519 
Q 2781 519 3026 730 
Q 3272 941 3272 1375 
Q 3272 1813 3026 2020 
Q 2781 2228 2272 2228 
L 1259 2228 
z
M 1259 4147 
L 1259 2741 
L 2194 2741 
Q 2656 2741 2882 2914 
Q 3109 3088 3109 3444 
Q 3109 3797 2882 3972 
Q 2656 4147 2194 4147 
L 1259 4147 
z
M 628 4666 
L 2241 4666 
Q 2963 4666 3353 4366 
Q 3744 4066 3744 3513 
Q 3744 3084 3544 2831 
Q 3344 2578 2956 2516 
Q 3422 2416 3680 2098 
Q 3938 1781 3938 1306 
Q 3938 681 3513 340 
Q 3088 0 2303 0 
L 628 0 
L 628 4666 
z
" transform="scale(0.015625)"/>
       <path id="DejaVuSans-4f" d="M 2522 4238 
Q 1834 4238 1429 3725 
Q 1025 3213 1025 2328 
Q 1025 1447 1429 934 
Q 1834 422 2522 422 
Q 3209 422 3611 934 
Q 4013 1447 4013 2328 
Q 4013 3213 3611 3725 
Q 3209 4238 2522 4238 
z
M 2522 4750 
Q 3503 4750 4090 4092 
Q 4678 3434 4678 2328 
Q 4678 1225 4090 567 
Q 3503 -91 2522 -91 
Q 1538 -91 948 565 
Q 359 1222 359 2328 
Q 359 3434 948 4092 
Q 1538 4750 2522 4750 
z
" transform="scale(0.015625)"/>
       <path id="DejaVuSans-4c" d="M 628 4666 
L 1259 4666 
L 1259 531 
L 3531 531 
L 3531 0 
L 628 0 
L 628 4666 
z
" transform="scale(0.015625)"/>
       <path id="DejaVuSans-44" d="M 1259 4147 
L 1259 519 
L 2022 519 
Q 2988 519 3436 956 
Q 3884 1394 3884 2338 
Q 3884 3275 3436 3711 
Q 2988 4147 2022 4147 
L 1259 4147 
z
M 628 4666 
L 1925 4666 
Q 3281 4666 3915 4102 
Q 4550 3538 4550 2338 
Q 4550 1131 3912 565 
Q 3275 0 1925 0 
L 628 0 
L 628 4666 
z
" transform="scale(0.015625)"/>
       <path id="DejaVuSans-20" transform="scale(0.015625)"/>
       <path id="DejaVuSans-25" d="M 4653 2053 
Q 4381 2053 4226 1822 
Q 4072 1591 4072 1178 
Q 4072 772 4226 539 
Q 4381 306 4653 306 
Q 4919 306 5073 539 
Q 5228 772 5228 1178 
Q 5228 1588 5073 1820 
Q 4919 2053 4653 2053 
z
M 4653 2450 
Q 5147 2450 5437 2106 
Q 5728 1763 5728 1178 
Q 5728 594 5436 251 
Q 5144 -91 4653 -91 
Q 4153 -91 3862 251 
Q 3572 594 3572 1178 
Q 3572 1766 3864 2108 
Q 4156 2450 4653 2450 
z
M 1428 4353 
Q 1159 4353 1004 4120 
Q 850 3888 850 3481 
Q 850 3069 1003 2837 
Q 1156 2606 1428 2606 
Q 1700 2606 1854 2837 
Q 2009 3069 2009 3481 
Q 2009 3884 1853 4118 
Q 1697 4353 1428 4353 
z
M 4250 4750 
L 4750 4750 
L 1831 -91 
L 1331 -91 
L 4250 4750 
z
M 1428 4750 
Q 1922 4750 2215 4408 
Q 2509 4066 2509 3481 
Q 2509 2891 2217 2550 
Q 1925 2209 1428 2209 
Q 931 2209 642 2551 
Q 353 2894 353 3481 
Q 353 4063 643 4406 
Q 934 4750 1428 4750 
z
" transform="scale(0.015625)"/>
       <path id="DejaVuSans-63" d="M 3122 3366 
L 3122 2828 
Q 2878 2963 2633 3030 
Q 2388 3097 2138 3097 
Q 1578 3097 1268 2742 
Q 959 2388 959 1747 
Q 959 1106 1268 751 
Q 1578 397 2138 397 
Q 2388 397 2633 464 
Q 2878 531 3122 666 
L 3122 134 
Q 2881 22 2623 -34 
Q 2366 -91 2075 -91 
Q 1284 -91 818 406 
Q 353 903 353 1747 
Q 353 2603 823 3093 
Q 1294 3584 2113 3584 
Q 2378 3584 2631 3529 
Q 2884 3475 3122 3366 
z
" transform="scale(0.015625)"/>
       <path id="DejaVuSans-68" d="M 3513 2113 
L 3513 0 
L 2938 0 
L 2938 2094 
Q 2938 2591 2744 2837 
Q 2550 3084 2163 3084 
Q 1697 3084 1428 2787 
Q 1159 2491 1159 1978 
L 1159 0 
L 581 0 
L 581 4863 
L 1159 4863 
L 1159 2956 
Q 1366 3272 1645 3428 
Q 1925 3584 2291 3584 
Q 2894 3584 3203 3211 
Q 3513 2838 3513 2113 
z
" transform="scale(0.015625)"/>
       <path id="DejaVuSans-61" d="M 2194 1759 
Q 1497 1759 1228 1600 
Q 959 1441 959 1056 
Q 959 750 1161 570 
Q 1363 391 1709 391 
Q 2188 391 2477 730 
Q 2766 1069 2766 1631 
L 2766 1759 
L 2194 1759 
z
M 3341 1997 
L 3341 0 
L 2766 0 
L 2766 531 
Q 2569 213 2275 61 
Q 1981 -91 1556 -91 
Q 1019 -91 701 211 
Q 384 513 384 1019 
Q 384 1609 779 1909 
Q 1175 2209 1959 2209 
L 2766 2209 
L 2766 2266 
Q 2766 2663 2505 2880 
Q 2244 3097 1772 3097 
Q 1472 3097 1187 3025 
Q 903 2953 641 2809 
L 641 3341 
Q 956 3463 1253 3523 
Q 1550 3584 1831 3584 
Q 2591 3584 2966 3190 
Q 3341 2797 3341 1997 
z
" transform="scale(0.015625)"/>
       <path id="DejaVuSans-6e" d="M 3513 2113 
L 3513 0 
L 2938 0 
L 2938 2094 
Q 2938 2591 2744 2837 
Q 2550 3084 2163 3084 
Q 1697 3084 1428 2787 
Q 1159 2491 1159 1978 
L 1159 0 
L 581 0 
L 581 3500 
L 1159 3500 
L 1159 2956 
Q 1366 3272 1645 3428 
Q 1925 3584 2291 3584 
Q 2894 3584 3203 3211 
Q 3513 2838 3513 2113 
z
" transform="scale(0.015625)"/>
       <path id="DejaVuSans-67" d="M 2906 1791 
Q 2906 2416 2648 2759 
Q 2391 3103 1925 3103 
Q 1463 3103 1205 2759 
Q 947 2416 947 1791 
Q 947 1169 1205 825 
Q 1463 481 1925 481 
Q 2391 481 2648 825 
Q 2906 1169 2906 1791 
z
M 3481 434 
Q 3481 -459 3084 -895 
Q 2688 -1331 1869 -1331 
Q 1566 -1331 1297 -1286 
Q 1028 -1241 775 -1147 
L 775 -588 
Q 1028 -725 1275 -790 
Q 1522 -856 1778 -856 
Q 2344 -856 2625 -561 
Q 2906 -266 2906 331 
L 2906 616 
Q 2728 306 2450 153 
Q 2172 0 1784 0 
Q 1141 0 747 490 
Q 353 981 353 1791 
Q 353 2603 747 3093 
Q 1141 3584 1784 3584 
Q 2172 3584 2450 3431 
Q 2728 3278 2906 2969 
L 2906 3500 
L 3481 3500 
L 3481 434 
z
" transform="scale(0.015625)"/>
       <path id="DejaVuSans-65" d="M 3597 1894 
L 3597 1613 
L 953 1613 
Q 991 1019 1311 708 
Q 1631 397 2203 397 
Q 2534 397 2845 478 
Q 3156 559 3463 722 
L 3463 178 
Q 3153 47 2828 -22 
Q 2503 -91 2169 -91 
Q 1331 -91 842 396 
Q 353 884 353 1716 
Q 353 2575 817 3079 
Q 1281 3584 2069 3584 
Q 2775 3584 3186 3129 
Q 3597 2675 3597 1894 
z
M 3022 2063 
Q 3016 2534 2758 2815 
Q 2500 3097 2075 3097 
Q 1594 3097 1305 2825 
Q 1016 2553 972 2059 
L 3022 2063 
z
" transform="scale(0.015625)"/>
      </defs>
      <use xlink:href="#DejaVuSans-42"/>
      <use xlink:href="#DejaVuSans-4f" x="66.853516"/>
      <use xlink:href="#DejaVuSans-4c" x="145.564453"/>
      <use xlink:href="#DejaVuSans-44" x="201.277344"/>
      <use xlink:href="#DejaVuSans-20" x="278.279297"/>
      <use xlink:href="#DejaVuSans-25" x="310.066406"/>
      <use xlink:href="#DejaVuSans-20" x="405.085938"/>
      <use xlink:href="#DejaVuSans-63" x="436.873047"/>
      <use xlink:href="#DejaVuSans-68" x="491.853516"/>
      <use xlink:href="#DejaVuSans-61" x="555.232422"/>
      <use xlink:href="#DejaVuSans-6e" x="616.511719"/>
      <use xlink:href="#DejaVuSans-67" x="679.890625"/>
      <use xlink:href="#DejaVuSans-65" x="743.367188"/>
     </g>
    </g>
   </g>
   <g id="line2d_16">
    <path d="M 86.4 111.8301 
L 94.628571 112.634679 
L 102.857143 114.094115 
L 111.085714 119.74546 
L 119.314286 125.878462 
L 127.542857 125.513801 
L 135.771429 121.301838 
L 144 118.701378 
L 152.228571 113.217167 
L 160.457143 111.470501 
L 168.685714 112.860112 
L 176.914286 109.437281 
L 185.142857 103.911844 
L 193.371429 103.84806 
L 201.6 99.426992 
L 209.828571 101.394319 
L 218.057143 105.515348 
L 226.285714 109.637043 
L 234.514286 111.103091 
L 242.742857 111.555541 
L 250.971429 111.312041 
L 259.2 113.297607 
L 267.428571 113.929641 
L 275.657143 117.111501 
L 283.885714 119.683295 
L 292.114286 122.006877 
L 300.342857 127.782523 
L 308.571429 134.601902 
L 316.8 137.674838 
L 325.028571 140.052653 
L 333.257143 140.266877 
L 341.485714 138.773973 
L 349.714286 141.741583 
L 357.942857 143.624807 
L 366.171429 144.27104 
L 374.4 141.685304 
L 382.628571 136.240246 
L 390.857143 133.457135 
L 399.085714 134.933239 
L 407.314286 135.692742 
L 415.542857 133.342743 
L 423.771429 130.610135 
L 432 132.225242 
L 440.228571 136.338077 
L 448.457143 140.30955 
L 456.685714 141.020493 
L 464.914286 141.921758 
L 473.142857 145.115163 
L 481.371429 142.079081 
L 489.6 139.20582 
" clip-path="url(#pa9e6d0be81)" style="fill: none; stroke: #1ab200; stroke-width: 1.5; stroke-linecap: square"/>
   </g>
   <g id="line2d_17">
    <path d="M 86.4 100.40078 
L 94.628571 97.406823 
L 102.857143 96.936322 
L 111.085714 91.332433 
L 119.314286 88.824308 
L 127.542857 86.34197 
L 135.771429 92.048162 
L 144 98.971124 
L 152.228571 115.936235 
L 160.457143 131.854791 
L 168.685714 146.211368 
L 176.914286 158.071438 
L 185.142857 151.574367 
L 193.371429 145.100079 
L 201.6 143.56407 
L 209.828571 152.585108 
L 218.057143 155.834557 
L 226.285714 156.983433 
L 234.514286 157.200196 
L 242.742857 154.42948 
L 250.971429 151.698193 
L 259.2 151.759417 
L 267.428571 155.299816 
L 275.657143 155.341585 
L 283.885714 159.622578 
L 292.114286 161.963385 
L 300.342857 173.813203 
L 308.571429 176.293895 
L 316.8 178.267182 
L 325.028571 179.740328 
L 333.257143 176.740206 
L 341.485714 170.085349 
L 349.714286 168.557962 
L 357.942857 168.354944 
L 366.171429 165.959904 
L 374.4 154.667342 
L 382.628571 149.980552 
L 390.857143 156.020557 
L 399.085714 166.684253 
L 407.314286 171.059466 
L 415.542857 159.385577 
L 423.771429 144.955451 
L 432 141.494141 
L 440.228571 142.925719 
L 448.457143 147.23385 
L 456.685714 142.214121 
L 464.914286 149.59993 
L 473.142857 150.76905 
L 481.371429 145.05858 
L 489.6 130.554068 
" clip-path="url(#pa9e6d0be81)" style="fill: none; stroke: #1ab200; stroke-opacity: 0.2; stroke-width: 1.5; stroke-linecap: square"/>
   </g>
   <g id="line2d_18">
    <path d="M 86.4 110.969206 
L 94.628571 110.969206 
L 102.857143 103.600323 
L 111.085714 95.200536 
L 119.314286 98.954519 
L 127.542857 104.819252 
L 135.771429 116.116713 
L 144 122.89806 
L 152.228571 130.113042 
L 160.457143 135.358212 
L 168.685714 142.659677 
L 176.914286 140.63824 
L 185.142857 135.962552 
L 193.371429 139.405426 
L 201.6 138.211698 
L 209.828571 136.648148 
L 218.057143 138.219789 
L 226.285714 141.642232 
L 234.514286 144.573712 
L 242.742857 157.287845 
L 250.971429 166.173045 
L 259.2 177.634627 
L 267.428571 184.42734 
L 275.657143 186.331829 
L 283.885714 188.237176 
L 292.114286 185.628376 
L 300.342857 181.268686 
L 308.571429 180.576637 
L 316.8 176.155001 
L 325.028571 171.969133 
L 333.257143 168.550089 
L 341.485714 162.476942 
L 349.714286 159.472378 
L 357.942857 158.311602 
L 366.171429 158.51662 
L 374.4 155.769581 
L 382.628571 151.717069 
L 390.857143 152.253283 
L 399.085714 153.022528 
L 407.314286 157.701584 
L 415.542857 158.715075 
L 423.771429 155.594146 
L 432 151.383756 
L 440.228571 157.071894 
L 448.457143 164.621141 
L 456.685714 168.104209 
L 464.914286 176.239773 
L 473.142857 179.811055 
L 481.371429 175.614406 
L 489.6 168.300462 
" clip-path="url(#pa9e6d0be81)" style="fill: none; stroke: #1ab200; stroke-opacity: 0.2; stroke-width: 1.5; stroke-linecap: square"/>
   </g>
   <g id="line2d_19">
    <path d="M 86.4 117.916626 
L 94.628571 117.576992 
L 102.857143 112.603973 
L 111.085714 111.880268 
L 119.314286 121.127157 
L 127.542857 128.381937 
L 135.771429 134.72709 
L 144 144.26092 
L 152.228571 147.603468 
L 160.457143 150.084582 
L 168.685714 155.421945 
L 176.914286 159.855407 
L 185.142857 155.89792 
L 193.371429 150.008355 
L 201.6 145.914068 
L 209.828571 143.945391 
L 218.057143 136.852056 
L 226.285714 126.578981 
L 234.514286 118.54719 
L 242.742857 112.238231 
L 250.971429 106.588856 
L 259.2 101.372558 
L 267.428571 98.673772 
L 275.657143 95.815541 
L 283.885714 93.804526 
L 292.114286 96.39989 
L 300.342857 100.779583 
L 308.571429 107.450127 
L 316.8 110.478692 
L 325.028571 108.794925 
L 333.257143 110.097516 
L 341.485714 116.729727 
L 349.714286 118.560601 
L 357.942857 113.130987 
L 366.171429 104.959631 
L 374.4 92.90181 
L 382.628571 85.277686 
L 390.857143 78.079416 
L 399.085714 72.868372 
L 407.314286 63.214862 
L 415.542857 57.556257 
L 423.771429 56.516928 
L 432 61.358289 
L 440.228571 68.2464 
L 448.457143 79.196761 
L 456.685714 89.642836 
L 464.914286 97.06457 
L 473.142857 103.214383 
L 481.371429 97.109501 
L 489.6 87.233773 
" clip-path="url(#pa9e6d0be81)" style="fill: none; stroke: #1ab200; stroke-opacity: 0.2; stroke-width: 1.5; stroke-linecap: square"/>
   </g>
   <g id="line2d_20">
    <path d="M 86.4 132.435542 
L 94.628571 132.435542 
L 102.857143 135.45464 
L 111.085714 142.445117 
L 119.314286 149.196326 
L 127.542857 153.14775 
L 135.771429 159.644679 
L 144 163.282172 
L 152.228571 158.387612 
L 160.457143 159.57498 
L 168.685714 159.469425 
L 176.914286 161.84684 
L 185.142857 161.340987 
L 193.371429 162.804481 
L 201.6 162.924048 
L 209.828571 167.176443 
L 218.057143 170.539254 
L 226.285714 170.985589 
L 234.514286 168.198564 
L 242.742857 167.240533 
L 250.971429 165.424275 
L 259.2 160.463402 
L 267.428571 159.770522 
L 275.657143 163.419244 
L 283.885714 167.322387 
L 292.114286 169.70138 
L 300.342857 175.804065 
L 308.571429 184.635609 
L 316.8 190.723361 
L 325.028571 192.396206 
L 333.257143 191.306973 
L 341.485714 193.597988 
L 349.714286 194.9854 
L 357.942857 194.070524 
L 366.171429 191.831492 
L 374.4 188.800496 
L 382.628571 186.56492 
L 390.857143 182.550537 
L 399.085714 180.689593 
L 407.314286 181.890367 
L 415.542857 183.248541 
L 423.771429 183.973827 
L 432 184.487619 
L 440.228571 188.547185 
L 448.457143 194.69803 
L 456.685714 189.760187 
L 464.914286 181.841704 
L 473.142857 176.709404 
L 481.371429 176.079724 
L 489.6 175.357366 
" clip-path="url(#pa9e6d0be81)" style="fill: none; stroke: #1ab200; stroke-opacity: 0.2; stroke-width: 1.5; stroke-linecap: square"/>
   </g>
   <g id="line2d_21">
    <path d="M 86.4 11.925488 
L 94.628571 12.962372 
L 102.857143 37.408365 
L 111.085714 56.599079 
L 119.314286 48.886235 
L 127.542857 17.965846 
L 135.771429 6.595557 
L 144 17.492483 
L 152.228571 42.884219 
L 160.457143 58.76475 
L 168.685714 58.960392 
L 176.914286 60.953382 
L 185.142857 63.406683 
L 193.371429 80.160769 
L 201.6 93.276058 
L 209.828571 111.53617 
L 218.057143 117.453194 
L 226.285714 107.957214 
L 234.514286 93.837613 
L 242.742857 72.013027 
L 250.971429 45.25236 
L 259.2 27.316367 
L 267.428571 11.413169 
L 275.657143 4.216039 
L 281.294276 -1 
M 344.278755 -1 
L 349.714286 7.395451 
L 357.942857 9.525022 
L 366.171429 3.13922 
L 374.4 3.022761 
L 380.938037 -1 
M 383.494182 -1 
L 390.857143 7.847706 
L 399.085714 27.668837 
L 407.314286 46.668185 
L 415.542857 54.885534 
L 423.771429 57.917314 
L 432 61.764456 
L 440.228571 55.777814 
L 448.457143 48.813331 
L 456.685714 45.664824 
L 464.914286 46.047927 
L 473.142857 49.432104 
L 481.371429 43.596586 
L 489.6 46.498268 
" clip-path="url(#pa9e6d0be81)" style="fill: none; stroke: #1ab200; stroke-opacity: 0.2; stroke-width: 1.5; stroke-linecap: square"/>
   </g>
   <g id="line2d_22">
    <path d="M 86.4 180.58118 
L 94.628571 186.846067 
L 102.857143 197.109325 
L 111.085714 201.435642 
L 119.314286 204.443014 
L 127.542857 186.213569 
L 135.771429 136.312087 
L 144 102.248476 
L 152.228571 62.152804 
L 160.457143 41.370604 
L 168.685714 48.100816 
L 176.914286 45.858712 
L 185.142857 50.491845 
L 193.371429 72.810932 
L 201.6 74.365443 
L 209.828571 80.89538 
L 218.057143 102.310272 
L 226.285714 118.422644 
L 234.514286 136.680749 
L 242.742857 155.15726 
L 250.971429 170.692731 
L 259.2 184.975347 
L 267.428571 181.873731 
L 275.657143 171.61984 
L 283.885714 153.838148 
L 292.114286 142.807951 
L 300.342857 149.232203 
L 308.571429 180.877444 
L 316.8 195.270362 
L 325.028571 205.061439 
L 333.257143 223.151681 
L 341.485714 231.991807 
L 349.714286 249.506511 
L 357.942857 263.428512 
L 366.171429 268.566535 
L 374.4 267.395359 
L 382.628571 261.999207 
L 390.857143 242.440584 
L 399.085714 220.647515 
L 407.314286 206.820494 
L 415.542857 191.681557 
L 423.771429 186.983499 
L 432 189.881448 
L 440.228571 202.362393 
L 448.457143 207.840264 
L 456.685714 197.734522 
L 464.914286 189.65781 
L 473.142857 185.529977 
L 481.371429 182.447055 
L 489.6 189.836571 
" clip-path="url(#pa9e6d0be81)" style="fill: none; stroke: #1ab200; stroke-opacity: 0.2; stroke-width: 1.5; stroke-linecap: square"/>
   </g>
   <g id="line2d_23">
    <path d="M 414.702585 -1 
L 415.542857 0.418319 
L 423.771429 12.495753 
L 432 26.495865 
L 440.228571 39.851892 
L 448.457143 47.952604 
L 456.685714 55.685096 
L 464.914286 51.109465 
L 473.142857 54.017272 
L 481.371429 57.114692 
L 489.6 64.946201 
" clip-path="url(#pa9e6d0be81)" style="fill: none; stroke: #1ab200; stroke-opacity: 0.2; stroke-width: 1.5; stroke-linecap: square"/>
   </g>
   <g id="line2d_24">
    <path d="M 86.4 327.979407 
L 94.628571 318.327659 
L 102.857143 294.553926 
L 111.085714 285.755999 
L 119.314286 291.957983 
L 127.542857 326.837209 
L 135.771429 332.693476 
L 144 324.706378 
L 152.228571 305.655663 
L 160.457143 290.013336 
L 168.685714 267.87503 
L 176.914286 249.218551 
L 185.142857 223.85717 
L 193.371429 219.536746 
L 201.6 200.532221 
L 209.828571 185.983364 
L 218.057143 179.162293 
L 226.285714 175.292777 
L 234.514286 162.107767 
L 242.742857 153.043995 
L 250.971429 146.573838 
L 259.2 147.139031 
L 267.428571 148.753008 
L 275.657143 159.159328 
L 283.885714 170.873342 
L 292.114286 179.941196 
L 300.342857 179.955119 
L 308.571429 179.361834 
L 316.8 174.402085 
L 325.028571 167.914809 
L 333.257143 155.442685 
L 341.485714 143.748712 
L 349.714286 135.947725 
L 357.942857 132.156405 
L 366.171429 134.957657 
L 374.4 133.053194 
L 382.628571 131.023428 
L 390.857143 131.818866 
L 399.085714 133.642917 
L 407.314286 130.96999 
L 415.542857 131.710045 
L 423.771429 128.205674 
L 432 122.500764 
L 440.228571 123.483098 
L 448.457143 128.070801 
L 456.685714 142.027149 
L 464.914286 150.84311 
L 473.142857 160.187402 
L 481.371429 163.56945 
L 489.6 166.69596 
" clip-path="url(#pa9e6d0be81)" style="fill: none; stroke: #1ab200; stroke-opacity: 0.2; stroke-width: 1.5; stroke-linecap: square"/>
   </g>
   <g id="line2d_25">
    <path d="M 86.4 297.308039 
L 94.628571 287.31393 
L 102.857143 276.68981 
L 111.085714 261.555546 
L 119.314286 248.282913 
L 127.542857 240.892403 
L 135.771429 234.725878 
L 144 221.734024 
L 152.228571 209.225527 
L 160.457143 200.045263 
L 168.685714 190.269361 
L 176.914286 181.507598 
L 185.142857 164.324755 
L 193.371429 154.07402 
L 201.6 145.382029 
L 209.828571 146.469415 
L 218.057143 154.735149 
L 226.285714 163.017698 
L 234.514286 167.423666 
L 242.742857 173.272283 
L 250.971429 176.094747 
L 259.2 177.485047 
L 267.428571 176.35349 
L 275.657143 180.127495 
L 283.885714 182.561566 
L 292.114286 188.138714 
L 300.342857 199.295932 
L 308.571429 204.197073 
L 316.8 211.362602 
L 325.028571 216.361324 
L 333.257143 213.288738 
L 341.485714 206.705075 
L 349.714286 202.094427 
L 357.942857 196.340036 
L 366.171429 190.098909 
L 374.4 181.402903 
L 382.628571 169.878164 
L 390.857143 162.11979 
L 399.085714 155.866573 
L 407.314286 153.707397 
L 415.542857 148.559059 
L 423.771429 144.260288 
L 432 148.707031 
L 440.228571 153.833582 
L 448.457143 162.976687 
L 456.685714 162.12958 
L 464.914286 156.357147 
L 473.142857 153.22725 
L 481.371429 144.987226 
L 489.6 139.575061 
" clip-path="url(#pa9e6d0be81)" style="fill: none; stroke: #1ab200; stroke-opacity: 0.2; stroke-width: 1.5; stroke-linecap: square"/>
   </g>
   <g id="line2d_26">
    <path d="M 111.13619 -1 
L 119.314286 57.392521 
L 127.542857 85.81136 
L 135.771429 120.447467 
L 144 132.989153 
L 152.228571 118.78538 
L 160.457143 119.284756 
L 168.685714 141.239793 
L 176.914286 143.69407 
L 185.142857 136.536605 
L 193.371429 123.568583 
L 201.6 91.854767 
L 209.828571 75.940114 
L 218.057143 70.232228 
L 226.285714 76.728513 
L 234.514286 76.368732 
L 242.742857 59.776575 
L 250.971429 47.423278 
L 259.2 42.286094 
L 267.428571 32.231974 
L 275.657143 32.819143 
L 283.885714 30.386428 
L 292.114286 29.397578 
L 300.342857 37.745895 
L 308.571429 52.659839 
L 316.8 71.214202 
L 325.028571 97.464231 
L 333.257143 118.451875 
L 341.485714 126.13034 
L 349.714286 148.179814 
L 357.942857 175.251671 
L 366.171429 210.731522 
L 374.4 230.747039 
L 382.628571 221.379417 
L 390.857143 212.572534 
L 399.085714 211.785146 
L 407.314286 192.883629 
L 415.542857 166.051781 
L 423.771429 148.664994 
L 432 148.172966 
L 440.228571 149.317123 
L 448.457143 141.761096 
L 456.685714 131.09038 
L 464.914286 128.438398 
L 473.142857 142.157719 
L 481.371429 142.015253 
L 489.6 143.933983 
" clip-path="url(#pa9e6d0be81)" style="fill: none; stroke: #1ab200; stroke-opacity: 0.2; stroke-width: 1.5; stroke-linecap: square"/>
   </g>
   <g id="line2d_27">
    <path d="M 86.4 173.374221 
L 94.628571 192.78785 
L 102.857143 211.603696 
L 111.085714 219.481826 
L 119.314286 228.668445 
L 127.542857 238.288327 
L 135.771429 206.32769 
L 144 179.50178 
L 152.228571 151.331445 
L 160.457143 136.639262 
L 168.685714 113.894014 
L 176.914286 89.17588 
L 185.142857 89.514868 
L 193.371429 86.467437 
L 201.6 94.181533 
L 209.828571 114.693964 
L 218.057143 131.569211 
L 226.285714 150.302419 
L 234.514286 166.832643 
L 242.742857 183.853382 
L 250.971429 207.010372 
L 259.2 218.888516 
L 267.428571 229.860245 
L 275.657143 252.155069 
L 283.885714 273.755759 
L 292.114286 289.488773 
L 300.342857 289.197841 
L 308.571429 279.404589 
L 316.8 271.51519 
L 325.028571 267.632989 
L 333.257143 253.72612 
L 341.485714 246.192273 
L 349.714286 236.616273 
L 357.942857 228.64687 
L 366.171429 220.592829 
L 374.4 208.434269 
L 382.628571 199.295021 
L 390.857143 198.154259 
L 399.085714 197.659565 
L 407.314286 201.1751 
L 415.542857 214.558432 
L 423.771429 217.143611 
L 432 218.231333 
L 440.228571 218.301748 
L 448.457143 220.240486 
L 456.685714 227.172518 
L 464.914286 233.939504 
L 473.142857 241.211173 
L 481.371429 235.27742 
L 489.6 218.332308 
" clip-path="url(#pa9e6d0be81)" style="fill: none; stroke: #1ab200; stroke-opacity: 0.2; stroke-width: 1.5; stroke-linecap: square"/>
   </g>
   <g id="line2d_28">
    <path d="M 167.04 241.92 
L 167.04 40.32 
" clip-path="url(#pa9e6d0be81)" style="fill: none; stroke-dasharray: 5.55,2.4; stroke-dashoffset: 0; stroke: #000000; stroke-width: 1.5"/>
   </g>
   <g id="line2d_29">
    <path d="M 86.4 141.12 
L 489.6 141.12 
" clip-path="url(#pa9e6d0be81)" style="fill: none; stroke-dasharray: 5.55,2.4; stroke-dashoffset: 0; stroke: #000000; stroke-width: 1.5"/>
   </g>
   <g id="patch_3">
    <path d="M 82.4 241.92 
L 82.4 40.32 
" style="fill: none; stroke: #000000; stroke-width: 0.8; stroke-linejoin: miter; stroke-linecap: square"/>
   </g>
   <g id="patch_4">
    <path d="M 86.4 245.92 
L 489.6 245.92 
" style="fill: none; stroke: #000000; stroke-width: 0.8; stroke-linejoin: miter; stroke-linecap: square"/>
   </g>
   <g id="text_11">
    <!-- all depths -->
    <g transform="translate(268.328125 34.32) scale(0.08 -0.08)">
     <defs>
      <path id="DejaVuSans-6c" d="M 603 4863 
L 1178 4863 
L 1178 0 
L 603 0 
L 603 4863 
z
" transform="scale(0.015625)"/>
      <path id="DejaVuSans-64" d="M 2906 2969 
L 2906 4863 
L 3481 4863 
L 3481 0 
L 2906 0 
L 2906 525 
Q 2725 213 2448 61 
Q 2172 -91 1784 -91 
Q 1150 -91 751 415 
Q 353 922 353 1747 
Q 353 2572 751 3078 
Q 1150 3584 1784 3584 
Q 2172 3584 2448 3432 
Q 2725 3281 2906 2969 
z
M 947 1747 
Q 947 1113 1208 752 
Q 1469 391 1925 391 
Q 2381 391 2643 752 
Q 2906 1113 2906 1747 
Q 2906 2381 2643 2742 
Q 2381 3103 1925 3103 
Q 1469 3103 1208 2742 
Q 947 2381 947 1747 
z
" transform="scale(0.015625)"/>
      <path id="DejaVuSans-70" d="M 1159 525 
L 1159 -1331 
L 581 -1331 
L 581 3500 
L 1159 3500 
L 1159 2969 
Q 1341 3281 1617 3432 
Q 1894 3584 2278 3584 
Q 2916 3584 3314 3078 
Q 3713 2572 3713 1747 
Q 3713 922 3314 415 
Q 2916 -91 2278 -91 
Q 1894 -91 1617 61 
Q 1341 213 1159 525 
z
M 3116 1747 
Q 3116 2381 2855 2742 
Q 2594 3103 2138 3103 
Q 1681 3103 1420 2742 
Q 1159 2381 1159 1747 
Q 1159 1113 1420 752 
Q 1681 391 2138 391 
Q 2594 391 2855 752 
Q 3116 1113 3116 1747 
z
" transform="scale(0.015625)"/>
      <path id="DejaVuSans-74" d="M 1172 4494 
L 1172 3500 
L 2356 3500 
L 2356 3053 
L 1172 3053 
L 1172 1153 
Q 1172 725 1289 603 
Q 1406 481 1766 481 
L 2356 481 
L 2356 0 
L 1766 0 
Q 1100 0 847 248 
Q 594 497 594 1153 
L 594 3053 
L 172 3053 
L 172 3500 
L 594 3500 
L 594 4494 
L 1172 4494 
z
" transform="scale(0.015625)"/>
      <path id="DejaVuSans-73" d="M 2834 3397 
L 2834 2853 
Q 2591 2978 2328 3040 
Q 2066 3103 1784 3103 
Q 1356 3103 1142 2972 
Q 928 2841 928 2578 
Q 928 2378 1081 2264 
Q 1234 2150 1697 2047 
L 1894 2003 
Q 2506 1872 2764 1633 
Q 3022 1394 3022 966 
Q 3022 478 2636 193 
Q 2250 -91 1575 -91 
Q 1294 -91 989 -36 
Q 684 19 347 128 
L 347 722 
Q 666 556 975 473 
Q 1284 391 1588 391 
Q 1994 391 2212 530 
Q 2431 669 2431 922 
Q 2431 1156 2273 1281 
Q 2116 1406 1581 1522 
L 1381 1569 
Q 847 1681 609 1914 
Q 372 2147 372 2553 
Q 372 3047 722 3315 
Q 1072 3584 1716 3584 
Q 2034 3584 2315 3537 
Q 2597 3491 2834 3397 
z
" transform="scale(0.015625)"/>
     </defs>
     <use xlink:href="#DejaVuSans-61"/>
     <use xlink:href="#DejaVuSans-6c" x="61.279297"/>
     <use xlink:href="#DejaVuSans-6c" x="89.0625"/>
     <use xlink:href="#DejaVuSans-20" x="116.845703"/>
     <use xlink:href="#DejaVuSans-64" x="148.632812"/>
     <use xlink:href="#DejaVuSans-65" x="212.109375"/>
     <use xlink:href="#DejaVuSans-70" x="273.632812"/>
     <use xlink:href="#DejaVuSans-74" x="337.109375"/>
     <use xlink:href="#DejaVuSans-68" x="376.318359"/>
     <use xlink:href="#DejaVuSans-73" x="439.697266"/>
    </g>
   </g>
   <g id="legend_1">
    <g id="patch_5">
     <path d="M 223.275 63.27625 
L 352.725 63.27625 
Q 354.725 63.27625 354.725 61.27625 
L 354.725 47.32 
Q 354.725 45.32 352.725 45.32 
L 223.275 45.32 
Q 221.275 45.32 221.275 47.32 
L 221.275 61.27625 
Q 221.275 63.27625 223.275 63.27625 
z
" style="fill: #ffffff; opacity: 0.8; stroke: #cccccc; stroke-linejoin: miter"/>
    </g>
    <g id="line2d_30">
     <path d="M 225.275 53.418437 
L 235.275 53.418437 
L 245.275 53.418437 
" style="fill: none; stroke: #1ab200; stroke-width: 1.5; stroke-linecap: square"/>
    </g>
    <g id="text_12">
     <!-- odss_gPPI_deep_V1 -->
     <g transform="translate(253.275 56.918437) scale(0.1 -0.1)">
      <defs>
       <path id="DejaVuSans-6f" d="M 1959 3097 
Q 1497 3097 1228 2736 
Q 959 2375 959 1747 
Q 959 1119 1226 758 
Q 1494 397 1959 397 
Q 2419 397 2687 759 
Q 2956 1122 2956 1747 
Q 2956 2369 2687 2733 
Q 2419 3097 1959 3097 
z
M 1959 3584 
Q 2709 3584 3137 3096 
Q 3566 2609 3566 1747 
Q 3566 888 3137 398 
Q 2709 -91 1959 -91 
Q 1206 -91 779 398 
Q 353 888 353 1747 
Q 353 2609 779 3096 
Q 1206 3584 1959 3584 
z
" transform="scale(0.015625)"/>
       <path id="DejaVuSans-5f" d="M 3263 -1063 
L 3263 -1509 
L -63 -1509 
L -63 -1063 
L 3263 -1063 
z
" transform="scale(0.015625)"/>
       <path id="DejaVuSans-50" d="M 1259 4147 
L 1259 2394 
L 2053 2394 
Q 2494 2394 2734 2622 
Q 2975 2850 2975 3272 
Q 2975 3691 2734 3919 
Q 2494 4147 2053 4147 
L 1259 4147 
z
M 628 4666 
L 2053 4666 
Q 2838 4666 3239 4311 
Q 3641 3956 3641 3272 
Q 3641 2581 3239 2228 
Q 2838 1875 2053 1875 
L 1259 1875 
L 1259 0 
L 628 0 
L 628 4666 
z
" transform="scale(0.015625)"/>
       <path id="DejaVuSans-49" d="M 628 4666 
L 1259 4666 
L 1259 0 
L 628 0 
L 628 4666 
z
" transform="scale(0.015625)"/>
       <path id="DejaVuSans-56" d="M 1831 0 
L 50 4666 
L 709 4666 
L 2188 738 
L 3669 4666 
L 4325 4666 
L 2547 0 
L 1831 0 
z
" transform="scale(0.015625)"/>
      </defs>
      <use xlink:href="#DejaVuSans-6f"/>
      <use xlink:href="#DejaVuSans-64" x="61.181641"/>
      <use xlink:href="#DejaVuSans-73" x="124.658203"/>
      <use xlink:href="#DejaVuSans-73" x="176.757812"/>
      <use xlink:href="#DejaVuSans-5f" x="228.857422"/>
      <use xlink:href="#DejaVuSans-67" x="278.857422"/>
      <use xlink:href="#DejaVuSans-50" x="342.333984"/>
      <use xlink:href="#DejaVuSans-50" x="402.636719"/>
      <use xlink:href="#DejaVuSans-49" x="462.939453"/>
      <use xlink:href="#DejaVuSans-5f" x="492.431641"/>
      <use xlink:href="#DejaVuSans-64" x="542.431641"/>
      <use xlink:href="#DejaVuSans-65" x="605.908203"/>
      <use xlink:href="#DejaVuSans-65" x="667.431641"/>
      <use xlink:href="#DejaVuSans-70" x="728.955078"/>
      <use xlink:href="#DejaVuSans-5f" x="792.431641"/>
      <use xlink:href="#DejaVuSans-56" x="842.431641"/>
      <use xlink:href="#DejaVuSans-31" x="910.839844"/>
     </g>
    </g>
   </g>
  </g>
  <g id="axes_2">
   <g id="patch_6">
    <path d="M 86.4 443.52 
L 489.6 443.52 
L 489.6 292.32 
L 86.4 292.32 
z
" style="fill: #ffffff"/>
   </g>
   <g id="patch_7">
    <path d="M 90.432 367.92 
L 163.008 367.92 
L 163.008 336.358552 
L 90.432 336.358552 
z
" clip-path="url(#p142b7a0bf8)" style="fill: #1ab200; opacity: 0.6"/>
   </g>
   <g id="patch_8">
    <path d="M 171.072 367.92 
L 243.648 367.92 
L 243.648 307.376899 
L 171.072 307.376899 
z
" clip-path="url(#p142b7a0bf8)" style="fill: #1ab200; opacity: 0.6"/>
   </g>
   <g id="patch_9">
    <path d="M 251.712 367.92 
L 324.288 367.92 
L 324.288 335.358612 
L 251.712 335.358612 
z
" clip-path="url(#p142b7a0bf8)" style="fill: #1ab200; opacity: 0.6"/>
   </g>
   <g id="patch_10">
    <path d="M 332.352 367.92 
L 404.928 367.92 
L 404.928 367.876666 
L 332.352 367.876666 
z
" clip-path="url(#p142b7a0bf8)" style="fill: #1ab200; opacity: 0.6"/>
   </g>
   <g id="patch_11">
    <path d="M 412.992 367.92 
L 485.568 367.92 
L 485.568 366.989692 
L 412.992 366.989692 
z
" clip-path="url(#p142b7a0bf8)" style="fill: #1ab200; opacity: 0.6"/>
   </g>
   <g id="matplotlib.axis_3">
    <g id="xtick_7">
     <g id="line2d_31">
      <g>
       <use xlink:href="#m313d0d019f" x="86.4" y="447.52" style="stroke: #000000; stroke-width: 0.8"/>
      </g>
     </g>
     <g id="text_13">
      <!-- 0 -->
      <g transform="translate(83.21875 462.118438) scale(0.1 -0.1)">
       <use xlink:href="#DejaVuSans-30"/>
      </g>
     </g>
    </g>
    <g id="xtick_8">
     <g id="line2d_32">
      <g>
       <use xlink:href="#m313d0d019f" x="167.04" y="447.52" style="stroke: #000000; stroke-width: 0.8"/>
      </g>
     </g>
     <g id="text_14">
      <!-- 1 -->
      <g transform="translate(163.85875 462.118438) scale(0.1 -0.1)">
       <use xlink:href="#DejaVuSans-31"/>
      </g>
     </g>
    </g>
    <g id="xtick_9">
     <g id="line2d_33">
      <g>
       <use xlink:href="#m313d0d019f" x="247.68" y="447.52" style="stroke: #000000; stroke-width: 0.8"/>
      </g>
     </g>
     <g id="text_15">
      <!-- 2 -->
      <g transform="translate(244.49875 462.118438) scale(0.1 -0.1)">
       <use xlink:href="#DejaVuSans-32"/>
      </g>
     </g>
    </g>
    <g id="xtick_10">
     <g id="line2d_34">
      <g>
       <use xlink:href="#m313d0d019f" x="328.32" y="447.52" style="stroke: #000000; stroke-width: 0.8"/>
      </g>
     </g>
     <g id="text_16">
      <!-- 3 -->
      <g transform="translate(325.13875 462.118438) scale(0.1 -0.1)">
       <defs>
        <path id="DejaVuSans-33" d="M 2597 2516 
Q 3050 2419 3304 2112 
Q 3559 1806 3559 1356 
Q 3559 666 3084 287 
Q 2609 -91 1734 -91 
Q 1441 -91 1130 -33 
Q 819 25 488 141 
L 488 750 
Q 750 597 1062 519 
Q 1375 441 1716 441 
Q 2309 441 2620 675 
Q 2931 909 2931 1356 
Q 2931 1769 2642 2001 
Q 2353 2234 1838 2234 
L 1294 2234 
L 1294 2753 
L 1863 2753 
Q 2328 2753 2575 2939 
Q 2822 3125 2822 3475 
Q 2822 3834 2567 4026 
Q 2313 4219 1838 4219 
Q 1578 4219 1281 4162 
Q 984 4106 628 3988 
L 628 4550 
Q 988 4650 1302 4700 
Q 1616 4750 1894 4750 
Q 2613 4750 3031 4423 
Q 3450 4097 3450 3541 
Q 3450 3153 3228 2886 
Q 3006 2619 2597 2516 
z
" transform="scale(0.015625)"/>
       </defs>
       <use xlink:href="#DejaVuSans-33"/>
      </g>
     </g>
    </g>
    <g id="xtick_11">
     <g id="line2d_35">
      <g>
       <use xlink:href="#m313d0d019f" x="408.96" y="447.52" style="stroke: #000000; stroke-width: 0.8"/>
      </g>
     </g>
     <g id="text_17">
      <!-- 4 -->
      <g transform="translate(405.77875 462.118438) scale(0.1 -0.1)">
       <defs>
        <path id="DejaVuSans-34" d="M 2419 4116 
L 825 1625 
L 2419 1625 
L 2419 4116 
z
M 2253 4666 
L 3047 4666 
L 3047 1625 
L 3713 1625 
L 3713 1100 
L 3047 1100 
L 3047 0 
L 2419 0 
L 2419 1100 
L 313 1100 
L 313 1709 
L 2253 4666 
z
" transform="scale(0.015625)"/>
       </defs>
       <use xlink:href="#DejaVuSans-34"/>
      </g>
     </g>
    </g>
    <g id="xtick_12">
     <g id="line2d_36">
      <g>
       <use xlink:href="#m313d0d019f" x="489.6" y="447.52" style="stroke: #000000; stroke-width: 0.8"/>
      </g>
     </g>
     <g id="text_18">
      <!-- 5 -->
      <g transform="translate(486.41875 462.118438) scale(0.1 -0.1)">
       <use xlink:href="#DejaVuSans-35"/>
      </g>
     </g>
    </g>
    <g id="text_19">
     <!-- relative distance from ROI center ($\sigma$) -->
     <g transform="translate(214.48 474.276875) scale(0.08 -0.08)">
      <defs>
       <path id="DejaVuSans-72" d="M 2631 2963 
Q 2534 3019 2420 3045 
Q 2306 3072 2169 3072 
Q 1681 3072 1420 2755 
Q 1159 2438 1159 1844 
L 1159 0 
L 581 0 
L 581 3500 
L 1159 3500 
L 1159 2956 
Q 1341 3275 1631 3429 
Q 1922 3584 2338 3584 
Q 2397 3584 2469 3576 
Q 2541 3569 2628 3553 
L 2631 2963 
z
" transform="scale(0.015625)"/>
       <path id="DejaVuSans-69" d="M 603 3500 
L 1178 3500 
L 1178 0 
L 603 0 
L 603 3500 
z
M 603 4863 
L 1178 4863 
L 1178 4134 
L 603 4134 
L 603 4863 
z
" transform="scale(0.015625)"/>
       <path id="DejaVuSans-76" d="M 191 3500 
L 800 3500 
L 1894 563 
L 2988 3500 
L 3597 3500 
L 2284 0 
L 1503 0 
L 191 3500 
z
" transform="scale(0.015625)"/>
       <path id="DejaVuSans-66" d="M 2375 4863 
L 2375 4384 
L 1825 4384 
Q 1516 4384 1395 4259 
Q 1275 4134 1275 3809 
L 1275 3500 
L 2222 3500 
L 2222 3053 
L 1275 3053 
L 1275 0 
L 697 0 
L 697 3053 
L 147 3053 
L 147 3500 
L 697 3500 
L 697 3744 
Q 697 4328 969 4595 
Q 1241 4863 1831 4863 
L 2375 4863 
z
" transform="scale(0.015625)"/>
       <path id="DejaVuSans-6d" d="M 3328 2828 
Q 3544 3216 3844 3400 
Q 4144 3584 4550 3584 
Q 5097 3584 5394 3201 
Q 5691 2819 5691 2113 
L 5691 0 
L 5113 0 
L 5113 2094 
Q 5113 2597 4934 2840 
Q 4756 3084 4391 3084 
Q 3944 3084 3684 2787 
Q 3425 2491 3425 1978 
L 3425 0 
L 2847 0 
L 2847 2094 
Q 2847 2600 2669 2842 
Q 2491 3084 2119 3084 
Q 1678 3084 1418 2786 
Q 1159 2488 1159 1978 
L 1159 0 
L 581 0 
L 581 3500 
L 1159 3500 
L 1159 2956 
Q 1356 3278 1631 3431 
Q 1906 3584 2284 3584 
Q 2666 3584 2933 3390 
Q 3200 3197 3328 2828 
z
" transform="scale(0.015625)"/>
       <path id="DejaVuSans-52" d="M 2841 2188 
Q 3044 2119 3236 1894 
Q 3428 1669 3622 1275 
L 4263 0 
L 3584 0 
L 2988 1197 
Q 2756 1666 2539 1819 
Q 2322 1972 1947 1972 
L 1259 1972 
L 1259 0 
L 628 0 
L 628 4666 
L 2053 4666 
Q 2853 4666 3247 4331 
Q 3641 3997 3641 3322 
Q 3641 2881 3436 2590 
Q 3231 2300 2841 2188 
z
M 1259 4147 
L 1259 2491 
L 2053 2491 
Q 2509 2491 2742 2702 
Q 2975 2913 2975 3322 
Q 2975 3731 2742 3939 
Q 2509 4147 2053 4147 
L 1259 4147 
z
" transform="scale(0.015625)"/>
       <path id="DejaVuSans-28" d="M 1984 4856 
Q 1566 4138 1362 3434 
Q 1159 2731 1159 2009 
Q 1159 1288 1364 580 
Q 1569 -128 1984 -844 
L 1484 -844 
Q 1016 -109 783 600 
Q 550 1309 550 2009 
Q 550 2706 781 3412 
Q 1013 4119 1484 4856 
L 1984 4856 
z
" transform="scale(0.015625)"/>
       <path id="DejaVuSans-Oblique-3c3" d="M 2219 3044 
Q 1744 3044 1422 2700 
Q 1081 2341 969 1747 
Q 844 1119 1044 756 
Q 1241 397 1706 397 
Q 2166 397 2503 759 
Q 2844 1122 2966 1747 
Q 3075 2319 2881 2700 
Q 2700 3044 2219 3044 
z
M 2309 3503 
L 4219 3500 
L 4106 2925 
L 3463 2925 
Q 3706 2438 3575 1747 
Q 3406 888 2884 400 
Q 2359 -91 1609 -91 
Q 856 -91 525 400 
Q 194 888 363 1747 
Q 528 2609 1050 3097 
Q 1484 3503 2309 3503 
z
" transform="scale(0.015625)"/>
       <path id="DejaVuSans-29" d="M 513 4856 
L 1013 4856 
Q 1481 4119 1714 3412 
Q 1947 2706 1947 2009 
Q 1947 1309 1714 600 
Q 1481 -109 1013 -844 
L 513 -844 
Q 928 -128 1133 580 
Q 1338 1288 1338 2009 
Q 1338 2731 1133 3434 
Q 928 4138 513 4856 
z
" transform="scale(0.015625)"/>
      </defs>
      <use xlink:href="#DejaVuSans-72" transform="translate(0 0.015625)"/>
      <use xlink:href="#DejaVuSans-65" transform="translate(41.113281 0.015625)"/>
      <use xlink:href="#DejaVuSans-6c" transform="translate(102.636719 0.015625)"/>
      <use xlink:href="#DejaVuSans-61" transform="translate(130.419922 0.015625)"/>
      <use xlink:href="#DejaVuSans-74" transform="translate(191.699219 0.015625)"/>
      <use xlink:href="#DejaVuSans-69" transform="translate(230.908203 0.015625)"/>
      <use xlink:href="#DejaVuSans-76" transform="translate(258.691406 0.015625)"/>
      <use xlink:href="#DejaVuSans-65" transform="translate(317.871094 0.015625)"/>
      <use xlink:href="#DejaVuSans-20" transform="translate(379.394531 0.015625)"/>
      <use xlink:href="#DejaVuSans-64" transform="translate(411.181641 0.015625)"/>
      <use xlink:href="#DejaVuSans-69" transform="translate(474.658203 0.015625)"/>
      <use xlink:href="#DejaVuSans-73" transform="translate(502.441406 0.015625)"/>
      <use xlink:href="#DejaVuSans-74" transform="translate(554.541016 0.015625)"/>
      <use xlink:href="#DejaVuSans-61" transform="translate(593.75 0.015625)"/>
      <use xlink:href="#DejaVuSans-6e" transform="translate(655.029297 0.015625)"/>
      <use xlink:href="#DejaVuSans-63" transform="translate(718.408203 0.015625)"/>
      <use xlink:href="#DejaVuSans-65" transform="translate(773.388672 0.015625)"/>
      <use xlink:href="#DejaVuSans-20" transform="translate(834.912109 0.015625)"/>
      <use xlink:href="#DejaVuSans-66" transform="translate(866.699219 0.015625)"/>
      <use xlink:href="#DejaVuSans-72" transform="translate(901.904297 0.015625)"/>
      <use xlink:href="#DejaVuSans-6f" transform="translate(943.017578 0.015625)"/>
      <use xlink:href="#DejaVuSans-6d" transform="translate(1004.199219 0.015625)"/>
      <use xlink:href="#DejaVuSans-20" transform="translate(1101.611328 0.015625)"/>
      <use xlink:href="#DejaVuSans-52" transform="translate(1133.398438 0.015625)"/>
      <use xlink:href="#DejaVuSans-4f" transform="translate(1202.880859 0.015625)"/>
      <use xlink:href="#DejaVuSans-49" transform="translate(1281.591797 0.015625)"/>
      <use xlink:href="#DejaVuSans-20" transform="translate(1311.083984 0.015625)"/>
      <use xlink:href="#DejaVuSans-63" transform="translate(1342.871094 0.015625)"/>
      <use xlink:href="#DejaVuSans-65" transform="translate(1397.851562 0.015625)"/>
      <use xlink:href="#DejaVuSans-6e" transform="translate(1459.375 0.015625)"/>
      <use xlink:href="#DejaVuSans-74" transform="translate(1522.753906 0.015625)"/>
      <use xlink:href="#DejaVuSans-65" transform="translate(1561.962891 0.015625)"/>
      <use xlink:href="#DejaVuSans-72" transform="translate(1623.486328 0.015625)"/>
      <use xlink:href="#DejaVuSans-20" transform="translate(1664.599609 0.015625)"/>
      <use xlink:href="#DejaVuSans-28" transform="translate(1696.386719 0.015625)"/>
      <use xlink:href="#DejaVuSans-Oblique-3c3" transform="translate(1735.400391 0.015625)"/>
      <use xlink:href="#DejaVuSans-29" transform="translate(1798.779297 0.015625)"/>
     </g>
    </g>
   </g>
   <g id="matplotlib.axis_4">
    <g id="ytick_10">
     <g id="line2d_37">
      <g>
       <use xlink:href="#m739ccad852" x="82.4" y="443.52" style="stroke: #000000; stroke-width: 0.8"/>
      </g>
     </g>
     <g id="text_20">
      <!-- −1.0 -->
      <g transform="translate(51.117187 447.319219) scale(0.1 -0.1)">
       <use xlink:href="#DejaVuSans-2212"/>
       <use xlink:href="#DejaVuSans-31" x="83.789062"/>
       <use xlink:href="#DejaVuSans-2e" x="147.412109"/>
       <use xlink:href="#DejaVuSans-30" x="179.199219"/>
      </g>
     </g>
    </g>
    <g id="ytick_11">
     <g id="line2d_38">
      <g>
       <use xlink:href="#m739ccad852" x="82.4" y="405.72" style="stroke: #000000; stroke-width: 0.8"/>
      </g>
     </g>
     <g id="text_21">
      <!-- −0.5 -->
      <g transform="translate(51.117187 409.519219) scale(0.1 -0.1)">
       <use xlink:href="#DejaVuSans-2212"/>
       <use xlink:href="#DejaVuSans-30" x="83.789062"/>
       <use xlink:href="#DejaVuSans-2e" x="147.412109"/>
       <use xlink:href="#DejaVuSans-35" x="179.199219"/>
      </g>
     </g>
    </g>
    <g id="ytick_12">
     <g id="line2d_39">
      <g>
       <use xlink:href="#m739ccad852" x="82.4" y="367.92" style="stroke: #000000; stroke-width: 0.8"/>
      </g>
     </g>
     <g id="text_22">
      <!-- 0.0 -->
      <g transform="translate(59.496875 371.719219) scale(0.1 -0.1)">
       <use xlink:href="#DejaVuSans-30"/>
       <use xlink:href="#DejaVuSans-2e" x="63.623047"/>
       <use xlink:href="#DejaVuSans-30" x="95.410156"/>
      </g>
     </g>
    </g>
    <g id="ytick_13">
     <g id="line2d_40">
      <g>
       <use xlink:href="#m739ccad852" x="82.4" y="330.12" style="stroke: #000000; stroke-width: 0.8"/>
      </g>
     </g>
     <g id="text_23">
      <!-- 0.5 -->
      <g transform="translate(59.496875 333.919219) scale(0.1 -0.1)">
       <use xlink:href="#DejaVuSans-30"/>
       <use xlink:href="#DejaVuSans-2e" x="63.623047"/>
       <use xlink:href="#DejaVuSans-35" x="95.410156"/>
      </g>
     </g>
    </g>
    <g id="ytick_14">
     <g id="line2d_41">
      <g>
       <use xlink:href="#m739ccad852" x="82.4" y="292.32" style="stroke: #000000; stroke-width: 0.8"/>
      </g>
     </g>
     <g id="text_24">
      <!-- 1.0 -->
      <g transform="translate(59.496875 296.119219) scale(0.1 -0.1)">
       <use xlink:href="#DejaVuSans-31"/>
       <use xlink:href="#DejaVuSans-2e" x="63.623047"/>
       <use xlink:href="#DejaVuSans-30" x="95.410156"/>
      </g>
     </g>
    </g>
    <g id="text_25">
     <!-- Binned Avg -->
     <g transform="translate(45.453437 390.525625) rotate(-90) scale(0.08 -0.08)">
      <defs>
       <path id="DejaVuSans-41" d="M 2188 4044 
L 1331 1722 
L 3047 1722 
L 2188 4044 
z
M 1831 4666 
L 2547 4666 
L 4325 0 
L 3669 0 
L 3244 1197 
L 1141 1197 
L 716 0 
L 50 0 
L 1831 4666 
z
" transform="scale(0.015625)"/>
      </defs>
      <use xlink:href="#DejaVuSans-42"/>
      <use xlink:href="#DejaVuSans-69" x="68.603516"/>
      <use xlink:href="#DejaVuSans-6e" x="96.386719"/>
      <use xlink:href="#DejaVuSans-6e" x="159.765625"/>
      <use xlink:href="#DejaVuSans-65" x="223.144531"/>
      <use xlink:href="#DejaVuSans-64" x="284.667969"/>
      <use xlink:href="#DejaVuSans-20" x="348.144531"/>
      <use xlink:href="#DejaVuSans-41" x="379.931641"/>
      <use xlink:href="#DejaVuSans-76" x="442.464844"/>
      <use xlink:href="#DejaVuSans-67" x="501.644531"/>
     </g>
    </g>
   </g>
   <g id="LineCollection_1">
    <path d="M 126.72 410.309919 
L 126.72 262.407186 
" clip-path="url(#p142b7a0bf8)" style="fill: none; stroke: #000000; stroke-width: 1.5"/>
    <path d="M 207.36 359.679152 
L 207.36 255.074646 
" clip-path="url(#p142b7a0bf8)" style="fill: none; stroke: #000000; stroke-width: 1.5"/>
    <path d="M 288 378.250435 
L 288 292.466789 
" clip-path="url(#p142b7a0bf8)" style="fill: none; stroke: #000000; stroke-width: 1.5"/>
    <path d="M 368.64 411.556737 
L 368.64 324.196595 
" clip-path="url(#p142b7a0bf8)" style="fill: none; stroke: #000000; stroke-width: 1.5"/>
    <path d="M 449.28 392.132711 
L 449.28 341.846673 
" clip-path="url(#p142b7a0bf8)" style="fill: none; stroke: #000000; stroke-width: 1.5"/>
   </g>
   <g id="line2d_42">
    <defs>
     <path id="mc497bc5149" d="M 5 0 
L -5 -0 
" style="stroke: #000000"/>
    </defs>
    <g clip-path="url(#p142b7a0bf8)">
     <use xlink:href="#mc497bc5149" x="126.72" y="410.309919" style="stroke: #000000"/>
     <use xlink:href="#mc497bc5149" x="207.36" y="359.679152" style="stroke: #000000"/>
     <use xlink:href="#mc497bc5149" x="288" y="378.250435" style="stroke: #000000"/>
     <use xlink:href="#mc497bc5149" x="368.64" y="411.556737" style="stroke: #000000"/>
     <use xlink:href="#mc497bc5149" x="449.28" y="392.132711" style="stroke: #000000"/>
    </g>
   </g>
   <g id="line2d_43">
    <g clip-path="url(#p142b7a0bf8)">
     <use xlink:href="#mc497bc5149" x="126.72" y="262.407186" style="stroke: #000000"/>
     <use xlink:href="#mc497bc5149" x="207.36" y="255.074646" style="stroke: #000000"/>
     <use xlink:href="#mc497bc5149" x="288" y="292.466789" style="stroke: #000000"/>
     <use xlink:href="#mc497bc5149" x="368.64" y="324.196595" style="stroke: #000000"/>
     <use xlink:href="#mc497bc5149" x="449.28" y="341.846673" style="stroke: #000000"/>
    </g>
   </g>
   <g id="line2d_44">
    <path d="M 86.4 367.92 
L 489.6 367.92 
" clip-path="url(#p142b7a0bf8)" style="fill: none; stroke-dasharray: 5.55,2.4; stroke-dashoffset: 0; stroke: #000000; stroke-width: 1.5"/>
   </g>
   <g id="patch_12">
    <path d="M 82.4 443.52 
L 82.4 292.32 
" style="fill: none; stroke: #000000; stroke-width: 0.8; stroke-linejoin: miter; stroke-linecap: square"/>
   </g>
   <g id="patch_13">
    <path d="M 86.4 447.52 
L 489.6 447.52 
" style="fill: none; stroke: #000000; stroke-width: 0.8; stroke-linejoin: miter; stroke-linecap: square"/>
   </g>
  </g>
 </g>
 <defs>
  <clipPath id="pa9e6d0be81">
   <rect x="86.4" y="40.32" width="403.2" height="201.6"/>
  </clipPath>
  <clipPath id="p142b7a0bf8">
   <rect x="86.4" y="292.32" width="403.2" height="151.2"/>
  </clipPath>
 </defs>
</svg>
