<?xml version="1.0" encoding="utf-8" standalone="no"?>
<!DOCTYPE svg PUBLIC "-//W3C//DTD SVG 1.1//EN"
  "http://www.w3.org/Graphics/SVG/1.1/DTD/svg11.dtd">
<svg xmlns:xlink="http://www.w3.org/1999/xlink" width="576pt" height="504pt" viewBox="0 0 576 504" xmlns="http://www.w3.org/2000/svg" version="1.1">
 <metadata>
  <rdf:RDF xmlns:dc="http://purl.org/dc/elements/1.1/" xmlns:cc="http://creativecommons.org/ns#" xmlns:rdf="http://www.w3.org/1999/02/22-rdf-syntax-ns#">
   <cc:Work>
    <dc:type rdf:resource="http://purl.org/dc/dcmitype/StillImage"/>
    <dc:date>2026-05-26T10:36:36.783706</dc:date>
    <dc:format>image/svg+xml</dc:format>
    <dc:creator>
     <cc:Agent>
      <dc:title>Matplotlib v3.8.0, https://matplotlib.org/</dc:title>
     </cc:Agent>
    </dc:creator>
   </cc:Work>
  </rdf:RDF>
 </metadata>
 <defs>
  <style type="text/css">*{stroke-linejoin: round; stroke-linecap: butt}</style>
 </defs>
 <g id="figure_1">
  <g id="patch_1">
   <path d="M 0 504 
L 576 504 
L 576 0 
L 0 0 
z
" style="fill: #ffffff"/>
  </g>
  <g id="axes_1">
   <g id="patch_2">
    <path d="M 86.4 241.92 
L 489.6 241.92 
L 489.6 40.32 
L 86.4 40.32 
z
" style="fill: #ffffff"/>
   </g>
   <g id="PolyCollection_1">
    <defs>
     <path id="m329226b95c" d="M 86.4 -426.585551 
L 86.4 -391.634445 
L 94.628571 -392.569468 
L 102.857143 -391.737511 
L 111.085714 -390.426029 
L 119.314286 -389.025154 
L 127.542857 -388.324475 
L 135.771429 -385.871781 
L 144 -385.278872 
L 152.228571 -389.392289 
L 160.457143 -390.802069 
L 168.685714 -390.387657 
L 176.914286 -389.15868 
L 185.142857 -386.586813 
L 193.371429 -383.351261 
L 201.6 -382.46704 
L 209.828571 -381.538047 
L 218.057143 -382.02392 
L 226.285714 -382.828524 
L 234.514286 -383.997201 
L 242.742857 -384.808944 
L 250.971429 -385.239146 
L 259.2 -383.973329 
L 267.428571 -382.22274 
L 275.657143 -380.032579 
L 283.885714 -377.302051 
L 292.114286 -375.638932 
L 300.342857 -375.514183 
L 308.571429 -373.874866 
L 316.8 -371.337822 
L 325.028571 -369.493703 
L 333.257143 -370.643672 
L 341.485714 -372.756731 
L 349.714286 -373.52662 
L 357.942857 -371.727271 
L 366.171429 -371.311614 
L 374.4 -370.268942 
L 382.628571 -368.680045 
L 390.857143 -366.872337 
L 399.085714 -366.791226 
L 407.314286 -368.175234 
L 415.542857 -367.400372 
L 423.771429 -365.038157 
L 432 -360.82315 
L 440.228571 -357.437395 
L 448.457143 -355.953468 
L 456.685714 -355.923989 
L 464.914286 -356.744464 
L 473.142857 -357.547581 
L 481.371429 -355.856701 
L 489.6 -353.111042 
L 489.6 -369.04934 
L 489.6 -369.04934 
L 481.371429 -372.716235 
L 473.142857 -375.983625 
L 464.914286 -376.124783 
L 456.685714 -377.064713 
L 448.457143 -378.976545 
L 440.228571 -381.00842 
L 432 -384.265893 
L 423.771429 -388.114525 
L 415.542857 -391.287144 
L 407.314286 -393.932586 
L 399.085714 -394.600838 
L 390.857143 -394.706803 
L 382.628571 -395.194354 
L 374.4 -396.030624 
L 366.171429 -397.280508 
L 357.942857 -397.977658 
L 349.714286 -400.164171 
L 341.485714 -399.621508 
L 333.257143 -397.557494 
L 325.028571 -395.785602 
L 316.8 -395.906561 
L 308.571429 -398.614912 
L 300.342857 -401.797777 
L 292.114286 -401.99709 
L 283.885714 -402.906147 
L 275.657143 -404.885907 
L 267.428571 -406.073771 
L 259.2 -406.383032 
L 250.971429 -406.691606 
L 242.742857 -405.949179 
L 234.514286 -405.292699 
L 226.285714 -403.694151 
L 218.057143 -402.310547 
L 209.828571 -401.795298 
L 201.6 -402.957487 
L 193.371429 -405.158191 
L 185.142857 -408.256338 
L 176.914286 -412.453232 
L 168.685714 -415.573578 
L 160.457143 -417.418786 
L 152.228571 -415.207391 
L 144 -410.375932 
L 135.771429 -411.143583 
L 127.542857 -414.885576 
L 119.314286 -418.007791 
L 111.085714 -422.007213 
L 102.857143 -424.736084 
L 94.628571 -427.1536 
L 86.4 -426.585551 
z
" style="stroke: #1a8000; stroke-opacity: 0.4"/>
    </defs>
    <g clip-path="url(#pf42a9cf252)">
     <use xlink:href="#m329226b95c" x="0" y="504" style="fill: #1a8000; fill-opacity: 0.4; stroke: #1a8000; stroke-opacity: 0.4"/>
    </g>
   </g>
   <g id="matplotlib.axis_1">
    <g id="xtick_1">
     <g id="line2d_1">
      <defs>
       <path id="m5d34f7773c" d="M 0 0 
L 0 3.5 
" style="stroke: #000000; stroke-width: 0.8"/>
      </defs>
      <g>
       <use xlink:href="#m5d34f7773c" x="86.4" y="245.92" style="stroke: #000000; stroke-width: 0.8"/>
      </g>
     </g>
    </g>
    <g id="xtick_2">
     <g id="line2d_2">
      <g>
       <use xlink:href="#m5d34f7773c" x="167.04" y="245.92" style="stroke: #000000; stroke-width: 0.8"/>
      </g>
     </g>
    </g>
    <g id="xtick_3">
     <g id="line2d_3">
      <g>
       <use xlink:href="#m5d34f7773c" x="247.68" y="245.92" style="stroke: #000000; stroke-width: 0.8"/>
      </g>
     </g>
    </g>
    <g id="xtick_4">
     <g id="line2d_4">
      <g>
       <use xlink:href="#m5d34f7773c" x="328.32" y="245.92" style="stroke: #000000; stroke-width: 0.8"/>
      </g>
     </g>
    </g>
    <g id="xtick_5">
     <g id="line2d_5">
      <g>
       <use xlink:href="#m5d34f7773c" x="408.96" y="245.92" style="stroke: #000000; stroke-width: 0.8"/>
      </g>
     </g>
    </g>
    <g id="xtick_6">
     <g id="line2d_6">
      <g>
       <use xlink:href="#m5d34f7773c" x="489.6" y="245.92" style="stroke: #000000; stroke-width: 0.8"/>
      </g>
     </g>
    </g>
   </g>
   <g id="matplotlib.axis_2">
    <g id="ytick_1">
     <g id="line2d_7">
      <defs>
       <path id="maa7679b59a" d="M 0 0 
L -3.5 0 
" style="stroke: #000000; stroke-width: 0.8"/>
      </defs>
      <g>
       <use xlink:href="#maa7679b59a" x="82.4" y="241.92" style="stroke: #000000; stroke-width: 0.8"/>
      </g>
     </g>
     <g id="text_1">
      <!-- −2.0 -->
      <g transform="translate(51.117187 245.719219) scale(0.1 -0.1)">
       <defs>
        <path id="DejaVuSans-2212" d="M 678 2272 
L 4684 2272 
L 4684 1741 
L 678 1741 
L 678 2272 
z
" transform="scale(0.015625)"/>
        <path id="DejaVuSans-32" d="M 1228 531 
L 3431 531 
L 3431 0 
L 469 0 
L 469 531 
Q 828 903 1448 1529 
Q 2069 2156 2228 2338 
Q 2531 2678 2651 2914 
Q 2772 3150 2772 3378 
Q 2772 3750 2511 3984 
Q 2250 4219 1831 4219 
Q 1534 4219 1204 4116 
Q 875 4013 500 3803 
L 500 4441 
Q 881 4594 1212 4672 
Q 1544 4750 1819 4750 
Q 2544 4750 2975 4387 
Q 3406 4025 3406 3419 
Q 3406 3131 3298 2873 
Q 3191 2616 2906 2266 
Q 2828 2175 2409 1742 
Q 1991 1309 1228 531 
z
" transform="scale(0.015625)"/>
        <path id="DejaVuSans-2e" d="M 684 794 
L 1344 794 
L 1344 0 
L 684 0 
L 684 794 
z
" transform="scale(0.015625)"/>
        <path id="DejaVuSans-30" d="M 2034 4250 
Q 1547 4250 1301 3770 
Q 1056 3291 1056 2328 
Q 1056 1369 1301 889 
Q 1547 409 2034 409 
Q 2525 409 2770 889 
Q 3016 1369 3016 2328 
Q 3016 3291 2770 3770 
Q 2525 4250 2034 4250 
z
M 2034 4750 
Q 2819 4750 3233 4129 
Q 3647 3509 3647 2328 
Q 3647 1150 3233 529 
Q 2819 -91 2034 -91 
Q 1250 -91 836 529 
Q 422 1150 422 2328 
Q 422 3509 836 4129 
Q 1250 4750 2034 4750 
z
" transform="scale(0.015625)"/>
       </defs>
       <use xlink:href="#DejaVuSans-2212"/>
       <use xlink:href="#DejaVuSans-32" x="83.789062"/>
       <use xlink:href="#DejaVuSans-2e" x="147.412109"/>
       <use xlink:href="#DejaVuSans-30" x="179.199219"/>
      </g>
     </g>
    </g>
    <g id="ytick_2">
     <g id="line2d_8">
      <g>
       <use xlink:href="#maa7679b59a" x="82.4" y="216.72" style="stroke: #000000; stroke-width: 0.8"/>
      </g>
     </g>
     <g id="text_2">
      <!-- −1.5 -->
      <g transform="translate(51.117187 220.519219) scale(0.1 -0.1)">
       <defs>
        <path id="DejaVuSans-31" d="M 794 531 
L 1825 531 
L 1825 4091 
L 703 3866 
L 703 4441 
L 1819 4666 
L 2450 4666 
L 2450 531 
L 3481 531 
L 3481 0 
L 794 0 
L 794 531 
z
" transform="scale(0.015625)"/>
        <path id="DejaVuSans-35" d="M 691 4666 
L 3169 4666 
L 3169 4134 
L 1269 4134 
L 1269 2991 
Q 1406 3038 1543 3061 
Q 1681 3084 1819 3084 
Q 2600 3084 3056 2656 
Q 3513 2228 3513 1497 
Q 3513 744 3044 326 
Q 2575 -91 1722 -91 
Q 1428 -91 1123 -41 
Q 819 9 494 109 
L 494 744 
Q 775 591 1075 516 
Q 1375 441 1709 441 
Q 2250 441 2565 725 
Q 2881 1009 2881 1497 
Q 2881 1984 2565 2268 
Q 2250 2553 1709 2553 
Q 1456 2553 1204 2497 
Q 953 2441 691 2322 
L 691 4666 
z
" transform="scale(0.015625)"/>
       </defs>
       <use xlink:href="#DejaVuSans-2212"/>
       <use xlink:href="#DejaVuSans-31" x="83.789062"/>
       <use xlink:href="#DejaVuSans-2e" x="147.412109"/>
       <use xlink:href="#DejaVuSans-35" x="179.199219"/>
      </g>
     </g>
    </g>
    <g id="ytick_3">
     <g id="line2d_9">
      <g>
       <use xlink:href="#maa7679b59a" x="82.4" y="191.52" style="stroke: #000000; stroke-width: 0.8"/>
      </g>
     </g>
     <g id="text_3">
      <!-- −1.0 -->
      <g transform="translate(51.117187 195.319219) scale(0.1 -0.1)">
       <use xlink:href="#DejaVuSans-2212"/>
       <use xlink:href="#DejaVuSans-31" x="83.789062"/>
       <use xlink:href="#DejaVuSans-2e" x="147.412109"/>
       <use xlink:href="#DejaVuSans-30" x="179.199219"/>
      </g>
     </g>
    </g>
    <g id="ytick_4">
     <g id="line2d_10">
      <g>
       <use xlink:href="#maa7679b59a" x="82.4" y="166.32" style="stroke: #000000; stroke-width: 0.8"/>
      </g>
     </g>
     <g id="text_4">
      <!-- −0.5 -->
      <g transform="translate(51.117187 170.119219) scale(0.1 -0.1)">
       <use xlink:href="#DejaVuSans-2212"/>
       <use xlink:href="#DejaVuSans-30" x="83.789062"/>
       <use xlink:href="#DejaVuSans-2e" x="147.412109"/>
       <use xlink:href="#DejaVuSans-35" x="179.199219"/>
      </g>
     </g>
    </g>
    <g id="ytick_5">
     <g id="line2d_11">
      <g>
       <use xlink:href="#maa7679b59a" x="82.4" y="141.12" style="stroke: #000000; stroke-width: 0.8"/>
      </g>
     </g>
     <g id="text_5">
      <!-- 0.0 -->
      <g transform="translate(59.496875 144.919219) scale(0.1 -0.1)">
       <use xlink:href="#DejaVuSans-30"/>
       <use xlink:href="#DejaVuSans-2e" x="63.623047"/>
       <use xlink:href="#DejaVuSans-30" x="95.410156"/>
      </g>
     </g>
    </g>
    <g id="ytick_6">
     <g id="line2d_12">
      <g>
       <use xlink:href="#maa7679b59a" x="82.4" y="115.92" style="stroke: #000000; stroke-width: 0.8"/>
      </g>
     </g>
     <g id="text_6">
      <!-- 0.5 -->
      <g transform="translate(59.496875 119.719219) scale(0.1 -0.1)">
       <use xlink:href="#DejaVuSans-30"/>
       <use xlink:href="#DejaVuSans-2e" x="63.623047"/>
       <use xlink:href="#DejaVuSans-35" x="95.410156"/>
      </g>
     </g>
    </g>
    <g id="ytick_7">
     <g id="line2d_13">
      <g>
       <use xlink:href="#maa7679b59a" x="82.4" y="90.72" style="stroke: #000000; stroke-width: 0.8"/>
      </g>
     </g>
     <g id="text_7">
      <!-- 1.0 -->
      <g transform="translate(59.496875 94.519219) scale(0.1 -0.1)">
       <use xlink:href="#DejaVuSans-31"/>
       <use xlink:href="#DejaVuSans-2e" x="63.623047"/>
       <use xlink:href="#DejaVuSans-30" x="95.410156"/>
      </g>
     </g>
    </g>
    <g id="ytick_8">
     <g id="line2d_14">
      <g>
       <use xlink:href="#maa7679b59a" x="82.4" y="65.52" style="stroke: #000000; stroke-width: 0.8"/>
      </g>
     </g>
     <g id="text_8">
      <!-- 1.5 -->
      <g transform="translate(59.496875 69.319219) scale(0.1 -0.1)">
       <use xlink:href="#DejaVuSans-31"/>
       <use xlink:href="#DejaVuSans-2e" x="63.623047"/>
       <use xlink:href="#DejaVuSans-35" x="95.410156"/>
      </g>
     </g>
    </g>
    <g id="ytick_9">
     <g id="line2d_15">
      <g>
       <use xlink:href="#maa7679b59a" x="82.4" y="40.32" style="stroke: #000000; stroke-width: 0.8"/>
      </g>
     </g>
     <g id="text_9">
      <!-- 2.0 -->
      <g transform="translate(59.496875 44.119219) scale(0.1 -0.1)">
       <use xlink:href="#DejaVuSans-32"/>
       <use xlink:href="#DejaVuSans-2e" x="63.623047"/>
       <use xlink:href="#DejaVuSans-30" x="95.410156"/>
      </g>
     </g>
    </g>
    <g id="text_10">
     <!-- BOLD % change -->
     <g transform="translate(45.453437 173.31625) rotate(-90) scale(0.08 -0.08)">
      <defs>
       <path id="DejaVuSans-42" d="M 1259 2228 
L 1259 519 
L 2272 519 
Q 2781 519 3026 730 
Q 3272 941 3272 1375 
Q 3272 1813 3026 2020 
Q 2781 2228 2272 2228 
L 1259 2228 
z
M 1259 4147 
L 1259 2741 
L 2194 2741 
Q 2656 2741 2882 2914 
Q 3109 3088 3109 3444 
Q 3109 3797 2882 3972 
Q 2656 4147 2194 4147 
L 1259 4147 
z
M 628 4666 
L 2241 4666 
Q 2963 4666 3353 4366 
Q 3744 4066 3744 3513 
Q 3744 3084 3544 2831 
Q 3344 2578 2956 2516 
Q 3422 2416 3680 2098 
Q 3938 1781 3938 1306 
Q 3938 681 3513 340 
Q 3088 0 2303 0 
L 628 0 
L 628 4666 
z
" transform="scale(0.015625)"/>
       <path id="DejaVuSans-4f" d="M 2522 4238 
Q 1834 4238 1429 3725 
Q 1025 3213 1025 2328 
Q 1025 1447 1429 934 
Q 1834 422 2522 422 
Q 3209 422 3611 934 
Q 4013 1447 4013 2328 
Q 4013 3213 3611 3725 
Q 3209 4238 2522 4238 
z
M 2522 4750 
Q 3503 4750 4090 4092 
Q 4678 3434 4678 2328 
Q 4678 1225 4090 567 
Q 3503 -91 2522 -91 
Q 1538 -91 948 565 
Q 359 1222 359 2328 
Q 359 3434 948 4092 
Q 1538 4750 2522 4750 
z
" transform="scale(0.015625)"/>
       <path id="DejaVuSans-4c" d="M 628 4666 
L 1259 4666 
L 1259 531 
L 3531 531 
L 3531 0 
L 628 0 
L 628 4666 
z
" transform="scale(0.015625)"/>
       <path id="DejaVuSans-44" d="M 1259 4147 
L 1259 519 
L 2022 519 
Q 2988 519 3436 956 
Q 3884 1394 3884 2338 
Q 3884 3275 3436 3711 
Q 2988 4147 2022 4147 
L 1259 4147 
z
M 628 4666 
L 1925 4666 
Q 3281 4666 3915 4102 
Q 4550 3538 4550 2338 
Q 4550 1131 3912 565 
Q 3275 0 1925 0 
L 628 0 
L 628 4666 
z
" transform="scale(0.015625)"/>
       <path id="DejaVuSans-20" transform="scale(0.015625)"/>
       <path id="DejaVuSans-25" d="M 4653 2053 
Q 4381 2053 4226 1822 
Q 4072 1591 4072 1178 
Q 4072 772 4226 539 
Q 4381 306 4653 306 
Q 4919 306 5073 539 
Q 5228 772 5228 1178 
Q 5228 1588 5073 1820 
Q 4919 2053 4653 2053 
z
M 4653 2450 
Q 5147 2450 5437 2106 
Q 5728 1763 5728 1178 
Q 5728 594 5436 251 
Q 5144 -91 4653 -91 
Q 4153 -91 3862 251 
Q 3572 594 3572 1178 
Q 3572 1766 3864 2108 
Q 4156 2450 4653 2450 
z
M 1428 4353 
Q 1159 4353 1004 4120 
Q 850 3888 850 3481 
Q 850 3069 1003 2837 
Q 1156 2606 1428 2606 
Q 1700 2606 1854 2837 
Q 2009 3069 2009 3481 
Q 2009 3884 1853 4118 
Q 1697 4353 1428 4353 
z
M 4250 4750 
L 4750 4750 
L 1831 -91 
L 1331 -91 
L 4250 4750 
z
M 1428 4750 
Q 1922 4750 2215 4408 
Q 2509 4066 2509 3481 
Q 2509 2891 2217 2550 
Q 1925 2209 1428 2209 
Q 931 2209 642 2551 
Q 353 2894 353 3481 
Q 353 4063 643 4406 
Q 934 4750 1428 4750 
z
" transform="scale(0.015625)"/>
       <path id="DejaVuSans-63" d="M 3122 3366 
L 3122 2828 
Q 2878 2963 2633 3030 
Q 2388 3097 2138 3097 
Q 1578 3097 1268 2742 
Q 959 2388 959 1747 
Q 959 1106 1268 751 
Q 1578 397 2138 397 
Q 2388 397 2633 464 
Q 2878 531 3122 666 
L 3122 134 
Q 2881 22 2623 -34 
Q 2366 -91 2075 -91 
Q 1284 -91 818 406 
Q 353 903 353 1747 
Q 353 2603 823 3093 
Q 1294 3584 2113 3584 
Q 2378 3584 2631 3529 
Q 2884 3475 3122 3366 
z
" transform="scale(0.015625)"/>
       <path id="DejaVuSans-68" d="M 3513 2113 
L 3513 0 
L 2938 0 
L 2938 2094 
Q 2938 2591 2744 2837 
Q 2550 3084 2163 3084 
Q 1697 3084 1428 2787 
Q 1159 2491 1159 1978 
L 1159 0 
L 581 0 
L 581 4863 
L 1159 4863 
L 1159 2956 
Q 1366 3272 1645 3428 
Q 1925 3584 2291 3584 
Q 2894 3584 3203 3211 
Q 3513 2838 3513 2113 
z
" transform="scale(0.015625)"/>
       <path id="DejaVuSans-61" d="M 2194 1759 
Q 1497 1759 1228 1600 
Q 959 1441 959 1056 
Q 959 750 1161 570 
Q 1363 391 1709 391 
Q 2188 391 2477 730 
Q 2766 1069 2766 1631 
L 2766 1759 
L 2194 1759 
z
M 3341 1997 
L 3341 0 
L 2766 0 
L 2766 531 
Q 2569 213 2275 61 
Q 1981 -91 1556 -91 
Q 1019 -91 701 211 
Q 384 513 384 1019 
Q 384 1609 779 1909 
Q 1175 2209 1959 2209 
L 2766 2209 
L 2766 2266 
Q 2766 2663 2505 2880 
Q 2244 3097 1772 3097 
Q 1472 3097 1187 3025 
Q 903 2953 641 2809 
L 641 3341 
Q 956 3463 1253 3523 
Q 1550 3584 1831 3584 
Q 2591 3584 2966 3190 
Q 3341 2797 3341 1997 
z
" transform="scale(0.015625)"/>
       <path id="DejaVuSans-6e" d="M 3513 2113 
L 3513 0 
L 2938 0 
L 2938 2094 
Q 2938 2591 2744 2837 
Q 2550 3084 2163 3084 
Q 1697 3084 1428 2787 
Q 1159 2491 1159 1978 
L 1159 0 
L 581 0 
L 581 3500 
L 1159 3500 
L 1159 2956 
Q 1366 3272 1645 3428 
Q 1925 3584 2291 3584 
Q 2894 3584 3203 3211 
Q 3513 2838 3513 2113 
z
" transform="scale(0.015625)"/>
       <path id="DejaVuSans-67" d="M 2906 1791 
Q 2906 2416 2648 2759 
Q 2391 3103 1925 3103 
Q 1463 3103 1205 2759 
Q 947 2416 947 1791 
Q 947 1169 1205 825 
Q 1463 481 1925 481 
Q 2391 481 2648 825 
Q 2906 1169 2906 1791 
z
M 3481 434 
Q 3481 -459 3084 -895 
Q 2688 -1331 1869 -1331 
Q 1566 -1331 1297 -1286 
Q 1028 -1241 775 -1147 
L 775 -588 
Q 1028 -725 1275 -790 
Q 1522 -856 1778 -856 
Q 2344 -856 2625 -561 
Q 2906 -266 2906 331 
L 2906 616 
Q 2728 306 2450 153 
Q 2172 0 1784 0 
Q 1141 0 747 490 
Q 353 981 353 1791 
Q 353 2603 747 3093 
Q 1141 3584 1784 3584 
Q 2172 3584 2450 3431 
Q 2728 3278 2906 2969 
L 2906 3500 
L 3481 3500 
L 3481 434 
z
" transform="scale(0.015625)"/>
       <path id="DejaVuSans-65" d="M 3597 1894 
L 3597 1613 
L 953 1613 
Q 991 1019 1311 708 
Q 1631 397 2203 397 
Q 2534 397 2845 478 
Q 3156 559 3463 722 
L 3463 178 
Q 3153 47 2828 -22 
Q 2503 -91 2169 -91 
Q 1331 -91 842 396 
Q 353 884 353 1716 
Q 353 2575 817 3079 
Q 1281 3584 2069 3584 
Q 2775 3584 3186 3129 
Q 3597 2675 3597 1894 
z
M 3022 2063 
Q 3016 2534 2758 2815 
Q 2500 3097 2075 3097 
Q 1594 3097 1305 2825 
Q 1016 2553 972 2059 
L 3022 2063 
z
" transform="scale(0.015625)"/>
      </defs>
      <use xlink:href="#DejaVuSans-42"/>
      <use xlink:href="#DejaVuSans-4f" x="66.853516"/>
      <use xlink:href="#DejaVuSans-4c" x="145.564453"/>
      <use xlink:href="#DejaVuSans-44" x="201.277344"/>
      <use xlink:href="#DejaVuSans-20" x="278.279297"/>
      <use xlink:href="#DejaVuSans-25" x="310.066406"/>
      <use xlink:href="#DejaVuSans-20" x="405.085938"/>
      <use xlink:href="#DejaVuSans-63" x="436.873047"/>
      <use xlink:href="#DejaVuSans-68" x="491.853516"/>
      <use xlink:href="#DejaVuSans-61" x="555.232422"/>
      <use xlink:href="#DejaVuSans-6e" x="616.511719"/>
      <use xlink:href="#DejaVuSans-67" x="679.890625"/>
      <use xlink:href="#DejaVuSans-65" x="743.367188"/>
     </g>
    </g>
   </g>
   <g id="line2d_16">
    <path d="M 86.4 94.890002 
L 94.628571 94.138466 
L 102.857143 95.763203 
L 111.085714 97.783379 
L 119.314286 100.483528 
L 127.542857 102.394975 
L 135.771429 105.492318 
L 144 106.172598 
L 152.228571 101.70016 
L 160.457143 99.889572 
L 168.685714 101.019382 
L 176.914286 103.194044 
L 185.142857 106.578424 
L 193.371429 109.745274 
L 201.6 111.287737 
L 209.828571 112.333327 
L 218.057143 111.832766 
L 226.285714 110.738662 
L 234.514286 109.35505 
L 242.742857 108.620938 
L 250.971429 108.034624 
L 259.2 108.821819 
L 267.428571 109.851744 
L 275.657143 111.540757 
L 283.885714 113.895901 
L 292.114286 115.181989 
L 300.342857 115.34402 
L 308.571429 117.755111 
L 316.8 120.377808 
L 325.028571 121.360347 
L 333.257143 119.899417 
L 341.485714 117.810881 
L 349.714286 117.154605 
L 357.942857 119.147536 
L 366.171429 119.703939 
L 374.4 120.850217 
L 382.628571 122.062801 
L 390.857143 123.21043 
L 399.085714 123.303968 
L 407.314286 122.94609 
L 415.542857 124.656242 
L 423.771429 127.423659 
L 432 131.455478 
L 440.228571 134.777093 
L 448.457143 136.534994 
L 456.685714 137.505649 
L 464.914286 137.565377 
L 473.142857 137.234397 
L 481.371429 139.713532 
L 489.6 142.919809 
" clip-path="url(#pf42a9cf252)" style="fill: none; stroke: #1a8000; stroke-width: 1.5; stroke-linecap: square"/>
   </g>
   <g id="line2d_17">
    <path d="M 86.4 42.99002 
L 94.628571 43.034664 
L 102.857143 44.251132 
L 111.085714 46.900907 
L 119.314286 57.33561 
L 127.542857 60.993649 
L 135.771429 64.736366 
L 144 62.669392 
L 152.228571 50.978872 
L 160.457143 47.932716 
L 168.685714 48.287907 
L 176.914286 51.419211 
L 185.142857 55.781724 
L 193.371429 56.809905 
L 201.6 58.728895 
L 209.828571 58.809779 
L 218.057143 55.945875 
L 226.285714 50.234481 
L 234.514286 46.654257 
L 242.742857 48.783611 
L 250.971429 49.694852 
L 259.2 51.036811 
L 267.428571 50.649397 
L 275.657143 54.211416 
L 283.885714 57.321632 
L 292.114286 57.880108 
L 300.342857 61.140775 
L 308.571429 74.213305 
L 316.8 77.749104 
L 325.028571 70.959584 
L 333.257143 60.359122 
L 341.485714 51.517652 
L 349.714286 48.242551 
L 357.942857 52.87044 
L 366.171429 56.90876 
L 374.4 61.889332 
L 382.628571 56.985965 
L 390.857143 48.842202 
L 399.085714 42.403391 
L 407.314286 45.960479 
L 415.542857 56.802264 
L 423.771429 70.404679 
L 432 73.283614 
L 440.228571 72.032922 
L 448.457143 73.788945 
L 456.685714 84.207898 
L 464.914286 95.044813 
L 473.142857 108.643513 
L 481.371429 125.67201 
L 489.6 138.038758 
" clip-path="url(#pf42a9cf252)" style="fill: none; stroke: #1a8000; stroke-opacity: 0.2; stroke-width: 1.5; stroke-linecap: square"/>
   </g>
   <g id="line2d_18">
    <path d="M 86.4 221.026106 
L 94.628571 221.026106 
L 102.857143 218.361036 
L 111.085714 214.593199 
L 119.314286 199.772868 
L 127.542857 190.005679 
L 135.771429 186.049046 
L 144 197.417831 
L 152.228571 203.814325 
L 160.457143 207.907901 
L 168.685714 205.183835 
L 176.914286 203.135848 
L 185.142857 196.455057 
L 193.371429 194.862375 
L 201.6 188.05283 
L 209.828571 184.056814 
L 218.057143 180.014269 
L 226.285714 176.656786 
L 234.514286 175.126944 
L 242.742857 173.758575 
L 250.971429 172.012363 
L 259.2 169.787542 
L 267.428571 172.895531 
L 275.657143 174.842965 
L 283.885714 175.561788 
L 292.114286 182.270527 
L 300.342857 187.001961 
L 308.571429 184.000295 
L 316.8 179.083403 
L 325.028571 179.924586 
L 333.257143 181.191958 
L 341.485714 182.909292 
L 349.714286 182.806824 
L 357.942857 183.245606 
L 366.171429 183.443855 
L 374.4 186.396386 
L 382.628571 193.212721 
L 390.857143 199.791599 
L 399.085714 202.74688 
L 407.314286 203.362732 
L 415.542857 206.10114 
L 423.771429 210.88087 
L 432 218.379799 
L 440.228571 221.652518 
L 448.457143 220.20108 
L 456.685714 215.603951 
L 464.914286 208.083886 
L 473.142857 201.160338 
L 481.371429 194.504489 
L 489.6 191.395441 
" clip-path="url(#pf42a9cf252)" style="fill: none; stroke: #1a8000; stroke-opacity: 0.2; stroke-width: 1.5; stroke-linecap: square"/>
   </g>
   <g id="line2d_19">
    <path d="M 86.4 28.050152 
L 94.628571 32.106376 
L 102.857143 47.633304 
L 111.085714 67.704915 
L 119.314286 81.747526 
L 127.542857 86.9611 
L 135.771429 90.398592 
L 144 99.358053 
L 152.228571 103.078272 
L 160.457143 106.062173 
L 168.685714 106.730207 
L 176.914286 102.933181 
L 185.142857 96.29252 
L 193.371429 92.39784 
L 201.6 85.675641 
L 209.828571 80.505395 
L 218.057143 75.540783 
L 226.285714 67.982069 
L 234.514286 61.26767 
L 242.742857 56.136102 
L 250.971429 50.740827 
L 259.2 43.368658 
L 267.428571 39.636378 
L 275.657143 36.260384 
L 283.885714 30.301154 
L 292.114286 24.543925 
L 300.342857 21.75174 
L 308.571429 26.478354 
L 316.8 29.328431 
L 325.028571 26.085496 
L 333.257143 26.403891 
L 341.485714 27.919519 
L 349.714286 28.762717 
L 357.942857 31.231527 
L 366.171429 32.451144 
L 374.4 34.635296 
L 382.628571 40.913065 
L 390.857143 45.208621 
L 399.085714 53.720341 
L 407.314286 64.187297 
L 415.542857 68.446523 
L 423.771429 68.12894 
L 432 76.079397 
L 440.228571 84.696198 
L 448.457143 92.80832 
L 456.685714 100.555372 
L 464.914286 104.398708 
L 473.142857 114.956971 
L 481.371429 135.802169 
L 489.6 147.484069 
" clip-path="url(#pf42a9cf252)" style="fill: none; stroke: #1a8000; stroke-opacity: 0.2; stroke-width: 1.5; stroke-linecap: square"/>
   </g>
   <g id="line2d_20">
    <path d="M 86.4 40.773506 
L 94.628571 40.773506 
L 102.857143 42.964953 
L 111.085714 41.039477 
L 119.314286 37.931873 
L 127.542857 40.85639 
L 135.771429 36.405597 
L 144 40.447993 
L 152.228571 46.0117 
L 160.457143 53.754845 
L 168.685714 68.417251 
L 176.914286 78.885976 
L 185.142857 82.176188 
L 193.371429 84.450599 
L 201.6 89.806031 
L 209.828571 89.461478 
L 218.057143 86.10295 
L 226.285714 84.22244 
L 234.514286 86.264011 
L 242.742857 88.969802 
L 250.971429 89.776838 
L 259.2 90.37746 
L 267.428571 89.56899 
L 275.657143 89.269069 
L 283.885714 96.460481 
L 292.114286 100.396031 
L 300.342857 104.649046 
L 308.571429 106.201643 
L 316.8 106.896528 
L 325.028571 108.656972 
L 333.257143 108.550943 
L 341.485714 106.623232 
L 349.714286 107.591144 
L 357.942857 114.798354 
L 366.171429 118.080306 
L 374.4 120.977053 
L 382.628571 121.301924 
L 390.857143 122.667022 
L 399.085714 124.248456 
L 407.314286 125.450026 
L 415.542857 126.510336 
L 423.771429 126.069597 
L 432 124.033285 
L 440.228571 127.00203 
L 448.457143 129.995662 
L 456.685714 130.768494 
L 464.914286 135.702499 
L 473.142857 137.6731 
L 481.371429 139.803343 
L 489.6 147.27677 
" clip-path="url(#pf42a9cf252)" style="fill: none; stroke: #1a8000; stroke-opacity: 0.2; stroke-width: 1.5; stroke-linecap: square"/>
   </g>
   <g id="line2d_21">
    <path d="M 86.4 49.864966 
L 94.628571 50.660642 
L 102.857143 66.260059 
L 111.085714 81.32256 
L 119.314286 96.83569 
L 127.542857 109.386234 
L 135.771429 124.77807 
L 144 120.543536 
L 152.228571 104.229825 
L 160.457143 93.829319 
L 168.685714 95.674606 
L 176.914286 100.348901 
L 185.142857 123.025753 
L 193.371429 145.701429 
L 201.6 145.054041 
L 209.828571 146.58946 
L 218.057143 149.631641 
L 226.285714 149.286588 
L 234.514286 143.088041 
L 242.742857 130.42767 
L 250.971429 126.683629 
L 259.2 129.607177 
L 267.428571 130.847499 
L 275.657143 130.968767 
L 283.885714 129.923824 
L 292.114286 130.26612 
L 300.342857 128.023824 
L 308.571429 131.523198 
L 316.8 143.503092 
L 325.028571 153.464516 
L 333.257143 151.767185 
L 341.485714 140.025924 
L 349.714286 131.489082 
L 357.942857 132.671277 
L 366.171429 139.088165 
L 374.4 148.600158 
L 382.628571 152.532079 
L 390.857143 154.409353 
L 399.085714 147.477125 
L 407.314286 139.72945 
L 415.542857 138.496214 
L 423.771429 143.951439 
L 432 149.627087 
L 440.228571 157.490257 
L 448.457143 160.444466 
L 456.685714 162.055614 
L 464.914286 167.085016 
L 473.142857 180.940676 
L 481.371429 186.302927 
L 489.6 183.948916 
" clip-path="url(#pf42a9cf252)" style="fill: none; stroke: #1a8000; stroke-opacity: 0.2; stroke-width: 1.5; stroke-linecap: square"/>
   </g>
   <g id="line2d_22">
    <path d="M 86.4 158.936877 
L 94.628571 147.408071 
L 102.857143 128.521357 
L 111.085714 117.523123 
L 119.314286 114.787212 
L 127.542857 116.884142 
L 135.771429 112.88785 
L 144 102.385295 
L 152.228571 80.061579 
L 160.457143 66.891232 
L 168.685714 70.412542 
L 176.914286 85.5386 
L 185.142857 103.61106 
L 193.371429 107.936016 
L 201.6 112.60149 
L 209.828571 121.206363 
L 218.057143 111.263532 
L 226.285714 108.37928 
L 234.514286 108.643857 
L 242.742857 108.408228 
L 250.971429 104.693338 
L 259.2 96.544411 
L 267.428571 88.870827 
L 275.657143 87.996415 
L 283.885714 95.023757 
L 292.114286 102.956384 
L 300.342857 103.890096 
L 308.571429 103.38325 
L 316.8 106.500252 
L 325.028571 104.693275 
L 333.257143 103.012021 
L 341.485714 108.436623 
L 349.714286 117.434045 
L 357.942857 120.265233 
L 366.171429 115.286301 
L 374.4 111.144138 
L 382.628571 105.976693 
L 390.857143 103.760818 
L 399.085714 100.77079 
L 407.314286 100.165051 
L 415.542857 112.656077 
L 423.771429 128.287787 
L 432 145.428442 
L 440.228571 154.687987 
L 448.457143 162.765505 
L 456.685714 156.929536 
L 464.914286 154.772167 
L 473.142857 147.187752 
L 481.371429 137.469731 
L 489.6 125.58901 
" clip-path="url(#pf42a9cf252)" style="fill: none; stroke: #1a8000; stroke-opacity: 0.2; stroke-width: 1.5; stroke-linecap: square"/>
   </g>
   <g id="line2d_23">
    <path d="M 86.4 87.643041 
L 94.628571 86.10793 
L 102.857143 94.55097 
L 111.085714 107.270889 
L 119.314286 118.266484 
L 127.542857 125.635786 
L 135.771429 130.280921 
L 144 129.65596 
L 152.228571 128.651859 
L 160.457143 127.857311 
L 168.685714 127.284081 
L 176.914286 123.71912 
L 185.142857 125.460645 
L 193.371429 129.173368 
L 201.6 128.426795 
L 209.828571 126.84681 
L 218.057143 125.70765 
L 226.285714 124.067991 
L 234.514286 118.154677 
L 242.742857 116.219603 
L 250.971429 117.171823 
L 259.2 121.300313 
L 267.428571 124.927669 
L 275.657143 134.444628 
L 283.885714 141.089064 
L 292.114286 139.230374 
L 300.342857 136.071114 
L 308.571429 137.216839 
L 316.8 141.03171 
L 325.028571 142.747271 
L 333.257143 143.264722 
L 341.485714 144.927841 
L 349.714286 147.030586 
L 357.942857 152.762434 
L 366.171429 157.879539 
L 374.4 159.2504 
L 382.628571 162.132229 
L 390.857143 164.436626 
L 399.085714 163.003093 
L 407.314286 154.989526 
L 415.542857 147.450711 
L 423.771429 143.632331 
L 432 143.331647 
L 440.228571 138.390281 
L 448.457143 137.743867 
L 456.685714 140.869022 
L 464.914286 143.965224 
L 473.142857 140.755925 
L 481.371429 139.176728 
L 489.6 139.721459 
" clip-path="url(#pf42a9cf252)" style="fill: none; stroke: #1a8000; stroke-opacity: 0.2; stroke-width: 1.5; stroke-linecap: square"/>
   </g>
   <g id="line2d_24">
    <path d="M 86.4 114.14499 
L 94.628571 117.315595 
L 102.857143 125.077774 
L 111.085714 133.426528 
L 119.314286 131.992633 
L 127.542857 124.351438 
L 135.771429 125.75084 
L 144 124.492889 
L 152.228571 121.40979 
L 160.457143 122.051652 
L 168.685714 120.981319 
L 176.914286 117.467442 
L 185.142857 112.349254 
L 193.371429 108.481022 
L 201.6 111.780307 
L 209.828571 118.327372 
L 218.057143 120.90709 
L 226.285714 121.219336 
L 234.514286 122.885925 
L 242.742857 124.05533 
L 250.971429 133.69754 
L 259.2 144.933173 
L 267.428571 155.476193 
L 275.657143 163.939091 
L 283.885714 170.398041 
L 292.114286 169.035199 
L 300.342857 164.294858 
L 308.571429 162.927758 
L 316.8 165.513574 
L 325.028571 167.411627 
L 333.257143 166.867035 
L 341.485714 166.860997 
L 349.714286 165.807481 
L 357.942857 166.858468 
L 366.171429 164.994182 
L 374.4 163.321535 
L 382.628571 165.134341 
L 390.857143 172.319331 
L 399.085714 175.035407 
L 407.314286 169.226704 
L 415.542857 165.524206 
L 423.771429 164.071913 
L 432 165.385561 
L 440.228571 166.446748 
L 448.457143 166.463181 
L 456.685714 167.726927 
L 464.914286 160.630789 
L 473.142857 153.047054 
L 481.371429 152.479668 
L 489.6 159.414653 
" clip-path="url(#pf42a9cf252)" style="fill: none; stroke: #1a8000; stroke-opacity: 0.2; stroke-width: 1.5; stroke-linecap: square"/>
   </g>
   <g id="line2d_25">
    <path d="M 86.4 103.253156 
L 94.628571 104.575618 
L 102.857143 109.067729 
L 111.085714 108.955623 
L 119.314286 110.837665 
L 127.542857 108.92335 
L 135.771429 113.045133 
L 144 108.4301 
L 152.228571 103.929583 
L 160.457143 102.979378 
L 168.685714 105.026994 
L 176.914286 103.784724 
L 185.142857 103.001544 
L 193.371429 105.423749 
L 201.6 109.500577 
L 209.828571 110.24124 
L 218.057143 111.549312 
L 226.285714 113.91184 
L 234.514286 117.0968 
L 242.742857 121.676528 
L 250.971429 124.407995 
L 259.2 127.392922 
L 267.428571 128.191494 
L 275.657143 124.223201 
L 283.885714 121.225902 
L 292.114286 119.711322 
L 300.342857 119.487862 
L 308.571429 118.617271 
L 316.8 115.614545 
L 325.028571 115.066108 
L 333.257143 115.388111 
L 341.485714 113.043051 
L 349.714286 111.80013 
L 357.942857 111.900585 
L 366.171429 109.717841 
L 374.4 106.847799 
L 382.628571 104.679779 
L 390.857143 107.229625 
L 399.085714 109.502475 
L 407.314286 112.218614 
L 415.542857 111.684036 
L 423.771429 113.431094 
L 432 113.840225 
L 440.228571 114.809378 
L 448.457143 115.29252 
L 456.685714 116.82358 
L 464.914286 113.737591 
L 473.142857 106.10832 
L 481.371429 100.949534 
L 489.6 98.761712 
" clip-path="url(#pf42a9cf252)" style="fill: none; stroke: #1a8000; stroke-opacity: 0.2; stroke-width: 1.5; stroke-linecap: square"/>
   </g>
   <g id="line2d_26">
    <path d="M 86.4 144.939958 
L 94.628571 147.858937 
L 102.857143 147.768827 
L 111.085714 137.253729 
L 119.314286 136.096004 
L 127.542857 134.567625 
L 135.771429 133.045628 
L 144 129.396159 
L 152.228571 120.678053 
L 160.457143 116.620421 
L 168.685714 110.232083 
L 176.914286 111.052586 
L 185.142857 113.605722 
L 193.371429 113.333403 
L 201.6 120.677086 
L 209.828571 122.738315 
L 218.057143 128.455796 
L 226.285714 131.61945 
L 234.514286 135.777765 
L 242.742857 141.223269 
L 250.971429 136.524761 
L 259.2 134.915029 
L 267.428571 134.051244 
L 275.657143 135.835671 
L 283.885714 139.067235 
L 292.114286 141.194112 
L 300.342857 140.554807 
L 308.571429 145.788483 
L 316.8 153.396497 
L 325.028571 160.417529 
L 333.257143 157.673952 
L 341.485714 150.127264 
L 349.714286 145.274225 
L 357.942857 143.643543 
L 366.171429 139.127845 
L 374.4 134.219548 
L 382.628571 134.463663 
L 390.857143 128.08329 
L 399.085714 126.429243 
L 407.314286 125.403144 
L 415.542857 125.729172 
L 423.771429 121.701603 
L 432 124.99033 
L 440.228571 130.847316 
L 448.457143 126.826051 
L 456.685714 126.092228 
L 464.914286 123.317047 
L 473.142857 116.900509 
L 481.371429 117.043715 
L 489.6 123.879784 
" clip-path="url(#pf42a9cf252)" style="fill: none; stroke: #1a8000; stroke-opacity: 0.2; stroke-width: 1.5; stroke-linecap: square"/>
   </g>
   <g id="line2d_27">
    <path d="M 86.4 52.167251 
L 94.628571 44.655683 
L 102.857143 28.938091 
L 111.085714 19.626216 
L 119.314286 19.715239 
L 127.542857 27.779332 
L 135.771429 43.037456 
L 144 53.101368 
L 152.228571 55.857903 
L 160.457143 52.898346 
L 168.685714 52.982379 
L 176.914286 56.848898 
L 185.142857 60.603198 
L 193.371429 68.628305 
L 201.6 73.861414 
L 209.828571 76.883576 
L 218.057143 85.04153 
L 226.285714 90.545024 
L 234.514286 87.945602 
L 242.742857 85.171605 
L 250.971429 82.976899 
L 259.2 87.776513 
L 267.428571 93.253968 
L 275.657143 94.956718 
L 283.885714 96.482036 
L 292.114286 99.517783 
L 300.342857 101.918132 
L 308.571429 104.955826 
L 316.8 105.538752 
L 325.028571 105.536856 
L 333.257143 104.41465 
L 341.485714 103.528293 
L 349.714286 102.461865 
L 357.942857 100.375424 
L 366.171429 99.76539 
L 374.4 102.070741 
L 382.628571 105.358349 
L 390.857143 108.566241 
L 399.085714 111.006448 
L 407.314286 111.713967 
L 415.542857 111.817982 
L 423.771429 111.099997 
L 432 111.630877 
L 440.228571 114.492385 
L 448.457143 115.555333 
L 456.685714 110.929513 
L 464.914286 106.481401 
L 473.142857 102.204215 
L 481.371429 107.644537 
L 489.6 116.607325 
" clip-path="url(#pf42a9cf252)" style="fill: none; stroke: #1a8000; stroke-opacity: 0.2; stroke-width: 1.5; stroke-linecap: square"/>
   </g>
   <g id="line2d_28">
    <path d="M 167.04 241.92 
L 167.04 40.32 
" clip-path="url(#pf42a9cf252)" style="fill: none; stroke-dasharray: 5.55,2.4; stroke-dashoffset: 0; stroke: #000000; stroke-width: 1.5"/>
   </g>
   <g id="line2d_29">
    <path d="M 86.4 141.12 
L 489.6 141.12 
" clip-path="url(#pf42a9cf252)" style="fill: none; stroke-dasharray: 5.55,2.4; stroke-dashoffset: 0; stroke: #000000; stroke-width: 1.5"/>
   </g>
   <g id="patch_3">
    <path d="M 82.4 241.92 
L 82.4 40.32 
" style="fill: none; stroke: #000000; stroke-width: 0.8; stroke-linejoin: miter; stroke-linecap: square"/>
   </g>
   <g id="patch_4">
    <path d="M 86.4 245.92 
L 489.6 245.92 
" style="fill: none; stroke: #000000; stroke-width: 0.8; stroke-linejoin: miter; stroke-linecap: square"/>
   </g>
   <g id="text_11">
    <!-- all depths -->
    <g transform="translate(268.328125 34.32) scale(0.08 -0.08)">
     <defs>
      <path id="DejaVuSans-6c" d="M 603 4863 
L 1178 4863 
L 1178 0 
L 603 0 
L 603 4863 
z
" transform="scale(0.015625)"/>
      <path id="DejaVuSans-64" d="M 2906 2969 
L 2906 4863 
L 3481 4863 
L 3481 0 
L 2906 0 
L 2906 525 
Q 2725 213 2448 61 
Q 2172 -91 1784 -91 
Q 1150 -91 751 415 
Q 353 922 353 1747 
Q 353 2572 751 3078 
Q 1150 3584 1784 3584 
Q 2172 3584 2448 3432 
Q 2725 3281 2906 2969 
z
M 947 1747 
Q 947 1113 1208 752 
Q 1469 391 1925 391 
Q 2381 391 2643 752 
Q 2906 1113 2906 1747 
Q 2906 2381 2643 2742 
Q 2381 3103 1925 3103 
Q 1469 3103 1208 2742 
Q 947 2381 947 1747 
z
" transform="scale(0.015625)"/>
      <path id="DejaVuSans-70" d="M 1159 525 
L 1159 -1331 
L 581 -1331 
L 581 3500 
L 1159 3500 
L 1159 2969 
Q 1341 3281 1617 3432 
Q 1894 3584 2278 3584 
Q 2916 3584 3314 3078 
Q 3713 2572 3713 1747 
Q 3713 922 3314 415 
Q 2916 -91 2278 -91 
Q 1894 -91 1617 61 
Q 1341 213 1159 525 
z
M 3116 1747 
Q 3116 2381 2855 2742 
Q 2594 3103 2138 3103 
Q 1681 3103 1420 2742 
Q 1159 2381 1159 1747 
Q 1159 1113 1420 752 
Q 1681 391 2138 391 
Q 2594 391 2855 752 
Q 3116 1113 3116 1747 
z
" transform="scale(0.015625)"/>
      <path id="DejaVuSans-74" d="M 1172 4494 
L 1172 3500 
L 2356 3500 
L 2356 3053 
L 1172 3053 
L 1172 1153 
Q 1172 725 1289 603 
Q 1406 481 1766 481 
L 2356 481 
L 2356 0 
L 1766 0 
Q 1100 0 847 248 
Q 594 497 594 1153 
L 594 3053 
L 172 3053 
L 172 3500 
L 594 3500 
L 594 4494 
L 1172 4494 
z
" transform="scale(0.015625)"/>
      <path id="DejaVuSans-73" d="M 2834 3397 
L 2834 2853 
Q 2591 2978 2328 3040 
Q 2066 3103 1784 3103 
Q 1356 3103 1142 2972 
Q 928 2841 928 2578 
Q 928 2378 1081 2264 
Q 1234 2150 1697 2047 
L 1894 2003 
Q 2506 1872 2764 1633 
Q 3022 1394 3022 966 
Q 3022 478 2636 193 
Q 2250 -91 1575 -91 
Q 1294 -91 989 -36 
Q 684 19 347 128 
L 347 722 
Q 666 556 975 473 
Q 1284 391 1588 391 
Q 1994 391 2212 530 
Q 2431 669 2431 922 
Q 2431 1156 2273 1281 
Q 2116 1406 1581 1522 
L 1381 1569 
Q 847 1681 609 1914 
Q 372 2147 372 2553 
Q 372 3047 722 3315 
Q 1072 3584 1716 3584 
Q 2034 3584 2315 3537 
Q 2597 3491 2834 3397 
z
" transform="scale(0.015625)"/>
     </defs>
     <use xlink:href="#DejaVuSans-61"/>
     <use xlink:href="#DejaVuSans-6c" x="61.279297"/>
     <use xlink:href="#DejaVuSans-6c" x="89.0625"/>
     <use xlink:href="#DejaVuSans-20" x="116.845703"/>
     <use xlink:href="#DejaVuSans-64" x="148.632812"/>
     <use xlink:href="#DejaVuSans-65" x="212.109375"/>
     <use xlink:href="#DejaVuSans-70" x="273.632812"/>
     <use xlink:href="#DejaVuSans-74" x="337.109375"/>
     <use xlink:href="#DejaVuSans-68" x="376.318359"/>
     <use xlink:href="#DejaVuSans-73" x="439.697266"/>
    </g>
   </g>
   <g id="legend_1">
    <g id="patch_5">
     <path d="M 208.413281 236.92 
L 367.586719 236.92 
Q 369.586719 236.92 369.586719 234.92 
L 369.586719 220.96375 
Q 369.586719 218.96375 367.586719 218.96375 
L 208.413281 218.96375 
Q 206.413281 218.96375 206.413281 220.96375 
L 206.413281 234.92 
Q 206.413281 236.92 208.413281 236.92 
z
" style="fill: #ffffff; opacity: 0.8; stroke: #cccccc; stroke-linejoin: miter"/>
    </g>
    <g id="line2d_30">
     <path d="M 210.413281 227.062187 
L 220.413281 227.062187 
L 230.413281 227.062187 
" style="fill: none; stroke: #1a8000; stroke-width: 1.5; stroke-linecap: square"/>
    </g>
    <g id="text_12">
     <!-- fgm_gPPI_superficial_V23 -->
     <g transform="translate(238.413281 230.562187) scale(0.1 -0.1)">
      <defs>
       <path id="DejaVuSans-66" d="M 2375 4863 
L 2375 4384 
L 1825 4384 
Q 1516 4384 1395 4259 
Q 1275 4134 1275 3809 
L 1275 3500 
L 2222 3500 
L 2222 3053 
L 1275 3053 
L 1275 0 
L 697 0 
L 697 3053 
L 147 3053 
L 147 3500 
L 697 3500 
L 697 3744 
Q 697 4328 969 4595 
Q 1241 4863 1831 4863 
L 2375 4863 
z
" transform="scale(0.015625)"/>
       <path id="DejaVuSans-6d" d="M 3328 2828 
Q 3544 3216 3844 3400 
Q 4144 3584 4550 3584 
Q 5097 3584 5394 3201 
Q 5691 2819 5691 2113 
L 5691 0 
L 5113 0 
L 5113 2094 
Q 5113 2597 4934 2840 
Q 4756 3084 4391 3084 
Q 3944 3084 3684 2787 
Q 3425 2491 3425 1978 
L 3425 0 
L 2847 0 
L 2847 2094 
Q 2847 2600 2669 2842 
Q 2491 3084 2119 3084 
Q 1678 3084 1418 2786 
Q 1159 2488 1159 1978 
L 1159 0 
L 581 0 
L 581 3500 
L 1159 3500 
L 1159 2956 
Q 1356 3278 1631 3431 
Q 1906 3584 2284 3584 
Q 2666 3584 2933 3390 
Q 3200 3197 3328 2828 
z
" transform="scale(0.015625)"/>
       <path id="DejaVuSans-5f" d="M 3263 -1063 
L 3263 -1509 
L -63 -1509 
L -63 -1063 
L 3263 -1063 
z
" transform="scale(0.015625)"/>
       <path id="DejaVuSans-50" d="M 1259 4147 
L 1259 2394 
L 2053 2394 
Q 2494 2394 2734 2622 
Q 2975 2850 2975 3272 
Q 2975 3691 2734 3919 
Q 2494 4147 2053 4147 
L 1259 4147 
z
M 628 4666 
L 2053 4666 
Q 2838 4666 3239 4311 
Q 3641 3956 3641 3272 
Q 3641 2581 3239 2228 
Q 2838 1875 2053 1875 
L 1259 1875 
L 1259 0 
L 628 0 
L 628 4666 
z
" transform="scale(0.015625)"/>
       <path id="DejaVuSans-49" d="M 628 4666 
L 1259 4666 
L 1259 0 
L 628 0 
L 628 4666 
z
" transform="scale(0.015625)"/>
       <path id="DejaVuSans-75" d="M 544 1381 
L 544 3500 
L 1119 3500 
L 1119 1403 
Q 1119 906 1312 657 
Q 1506 409 1894 409 
Q 2359 409 2629 706 
Q 2900 1003 2900 1516 
L 2900 3500 
L 3475 3500 
L 3475 0 
L 2900 0 
L 2900 538 
Q 2691 219 2414 64 
Q 2138 -91 1772 -91 
Q 1169 -91 856 284 
Q 544 659 544 1381 
z
M 1991 3584 
L 1991 3584 
z
" transform="scale(0.015625)"/>
       <path id="DejaVuSans-72" d="M 2631 2963 
Q 2534 3019 2420 3045 
Q 2306 3072 2169 3072 
Q 1681 3072 1420 2755 
Q 1159 2438 1159 1844 
L 1159 0 
L 581 0 
L 581 3500 
L 1159 3500 
L 1159 2956 
Q 1341 3275 1631 3429 
Q 1922 3584 2338 3584 
Q 2397 3584 2469 3576 
Q 2541 3569 2628 3553 
L 2631 2963 
z
" transform="scale(0.015625)"/>
       <path id="DejaVuSans-69" d="M 603 3500 
L 1178 3500 
L 1178 0 
L 603 0 
L 603 3500 
z
M 603 4863 
L 1178 4863 
L 1178 4134 
L 603 4134 
L 603 4863 
z
" transform="scale(0.015625)"/>
       <path id="DejaVuSans-56" d="M 1831 0 
L 50 4666 
L 709 4666 
L 2188 738 
L 3669 4666 
L 4325 4666 
L 2547 0 
L 1831 0 
z
" transform="scale(0.015625)"/>
       <path id="DejaVuSans-33" d="M 2597 2516 
Q 3050 2419 3304 2112 
Q 3559 1806 3559 1356 
Q 3559 666 3084 287 
Q 2609 -91 1734 -91 
Q 1441 -91 1130 -33 
Q 819 25 488 141 
L 488 750 
Q 750 597 1062 519 
Q 1375 441 1716 441 
Q 2309 441 2620 675 
Q 2931 909 2931 1356 
Q 2931 1769 2642 2001 
Q 2353 2234 1838 2234 
L 1294 2234 
L 1294 2753 
L 1863 2753 
Q 2328 2753 2575 2939 
Q 2822 3125 2822 3475 
Q 2822 3834 2567 4026 
Q 2313 4219 1838 4219 
Q 1578 4219 1281 4162 
Q 984 4106 628 3988 
L 628 4550 
Q 988 4650 1302 4700 
Q 1616 4750 1894 4750 
Q 2613 4750 3031 4423 
Q 3450 4097 3450 3541 
Q 3450 3153 3228 2886 
Q 3006 2619 2597 2516 
z
" transform="scale(0.015625)"/>
      </defs>
      <use xlink:href="#DejaVuSans-66"/>
      <use xlink:href="#DejaVuSans-67" x="35.205078"/>
      <use xlink:href="#DejaVuSans-6d" x="98.681641"/>
      <use xlink:href="#DejaVuSans-5f" x="196.09375"/>
      <use xlink:href="#DejaVuSans-67" x="246.09375"/>
      <use xlink:href="#DejaVuSans-50" x="309.570312"/>
      <use xlink:href="#DejaVuSans-50" x="369.873047"/>
      <use xlink:href="#DejaVuSans-49" x="430.175781"/>
      <use xlink:href="#DejaVuSans-5f" x="459.667969"/>
      <use xlink:href="#DejaVuSans-73" x="509.667969"/>
      <use xlink:href="#DejaVuSans-75" x="561.767578"/>
      <use xlink:href="#DejaVuSans-70" x="625.146484"/>
      <use xlink:href="#DejaVuSans-65" x="688.623047"/>
      <use xlink:href="#DejaVuSans-72" x="750.146484"/>
      <use xlink:href="#DejaVuSans-66" x="791.259766"/>
      <use xlink:href="#DejaVuSans-69" x="826.464844"/>
      <use xlink:href="#DejaVuSans-63" x="854.248047"/>
      <use xlink:href="#DejaVuSans-69" x="909.228516"/>
      <use xlink:href="#DejaVuSans-61" x="937.011719"/>
      <use xlink:href="#DejaVuSans-6c" x="998.291016"/>
      <use xlink:href="#DejaVuSans-5f" x="1026.074219"/>
      <use xlink:href="#DejaVuSans-56" x="1076.074219"/>
      <use xlink:href="#DejaVuSans-32" x="1144.482422"/>
      <use xlink:href="#DejaVuSans-33" x="1208.105469"/>
     </g>
    </g>
   </g>
  </g>
  <g id="axes_2">
   <g id="patch_6">
    <path d="M 86.4 443.52 
L 489.6 443.52 
L 489.6 292.32 
L 86.4 292.32 
z
" style="fill: #ffffff"/>
   </g>
   <g id="patch_7">
    <path d="M 90.432 367.92 
L 163.008 367.92 
L 163.008 297.32848 
L 90.432 297.32848 
z
" clip-path="url(#p89324d83b0)" style="fill: #1a8000; opacity: 0.6"/>
   </g>
   <g id="patch_8">
    <path d="M 171.072 367.92 
L 243.648 367.92 
L 243.648 319.384125 
L 171.072 319.384125 
z
" clip-path="url(#p89324d83b0)" style="fill: #1a8000; opacity: 0.6"/>
   </g>
   <g id="patch_9">
    <path d="M 251.712 367.92 
L 324.288 367.92 
L 324.288 320.162592 
L 251.712 320.162592 
z
" clip-path="url(#p89324d83b0)" style="fill: #1a8000; opacity: 0.6"/>
   </g>
   <g id="patch_10">
    <path d="M 332.352 367.92 
L 404.928 367.92 
L 404.928 341.364524 
L 332.352 341.364524 
z
" clip-path="url(#p89324d83b0)" style="fill: #1a8000; opacity: 0.6"/>
   </g>
   <g id="patch_11">
    <path d="M 412.992 367.92 
L 485.568 367.92 
L 485.568 352.716379 
L 412.992 352.716379 
z
" clip-path="url(#p89324d83b0)" style="fill: #1a8000; opacity: 0.6"/>
   </g>
   <g id="matplotlib.axis_3">
    <g id="xtick_7">
     <g id="line2d_31">
      <g>
       <use xlink:href="#m5d34f7773c" x="86.4" y="447.52" style="stroke: #000000; stroke-width: 0.8"/>
      </g>
     </g>
     <g id="text_13">
      <!-- 0 -->
      <g transform="translate(83.21875 462.118438) scale(0.1 -0.1)">
       <use xlink:href="#DejaVuSans-30"/>
      </g>
     </g>
    </g>
    <g id="xtick_8">
     <g id="line2d_32">
      <g>
       <use xlink:href="#m5d34f7773c" x="167.04" y="447.52" style="stroke: #000000; stroke-width: 0.8"/>
      </g>
     </g>
     <g id="text_14">
      <!-- 1 -->
      <g transform="translate(163.85875 462.118438) scale(0.1 -0.1)">
       <use xlink:href="#DejaVuSans-31"/>
      </g>
     </g>
    </g>
    <g id="xtick_9">
     <g id="line2d_33">
      <g>
       <use xlink:href="#m5d34f7773c" x="247.68" y="447.52" style="stroke: #000000; stroke-width: 0.8"/>
      </g>
     </g>
     <g id="text_15">
      <!-- 2 -->
      <g transform="translate(244.49875 462.118438) scale(0.1 -0.1)">
       <use xlink:href="#DejaVuSans-32"/>
      </g>
     </g>
    </g>
    <g id="xtick_10">
     <g id="line2d_34">
      <g>
       <use xlink:href="#m5d34f7773c" x="328.32" y="447.52" style="stroke: #000000; stroke-width: 0.8"/>
      </g>
     </g>
     <g id="text_16">
      <!-- 3 -->
      <g transform="translate(325.13875 462.118438) scale(0.1 -0.1)">
       <use xlink:href="#DejaVuSans-33"/>
      </g>
     </g>
    </g>
    <g id="xtick_11">
     <g id="line2d_35">
      <g>
       <use xlink:href="#m5d34f7773c" x="408.96" y="447.52" style="stroke: #000000; stroke-width: 0.8"/>
      </g>
     </g>
     <g id="text_17">
      <!-- 4 -->
      <g transform="translate(405.77875 462.118438) scale(0.1 -0.1)">
       <defs>
        <path id="DejaVuSans-34" d="M 2419 4116 
L 825 1625 
L 2419 1625 
L 2419 4116 
z
M 2253 4666 
L 3047 4666 
L 3047 1625 
L 3713 1625 
L 3713 1100 
L 3047 1100 
L 3047 0 
L 2419 0 
L 2419 1100 
L 313 1100 
L 313 1709 
L 2253 4666 
z
" transform="scale(0.015625)"/>
       </defs>
       <use xlink:href="#DejaVuSans-34"/>
      </g>
     </g>
    </g>
    <g id="xtick_12">
     <g id="line2d_36">
      <g>
       <use xlink:href="#m5d34f7773c" x="489.6" y="447.52" style="stroke: #000000; stroke-width: 0.8"/>
      </g>
     </g>
     <g id="text_18">
      <!-- 5 -->
      <g transform="translate(486.41875 462.118438) scale(0.1 -0.1)">
       <use xlink:href="#DejaVuSans-35"/>
      </g>
     </g>
    </g>
    <g id="text_19">
     <!-- relative distance from ROI center ($\sigma$) -->
     <g transform="translate(214.48 474.276875) scale(0.08 -0.08)">
      <defs>
       <path id="DejaVuSans-76" d="M 191 3500 
L 800 3500 
L 1894 563 
L 2988 3500 
L 3597 3500 
L 2284 0 
L 1503 0 
L 191 3500 
z
" transform="scale(0.015625)"/>
       <path id="DejaVuSans-6f" d="M 1959 3097 
Q 1497 3097 1228 2736 
Q 959 2375 959 1747 
Q 959 1119 1226 758 
Q 1494 397 1959 397 
Q 2419 397 2687 759 
Q 2956 1122 2956 1747 
Q 2956 2369 2687 2733 
Q 2419 3097 1959 3097 
z
M 1959 3584 
Q 2709 3584 3137 3096 
Q 3566 2609 3566 1747 
Q 3566 888 3137 398 
Q 2709 -91 1959 -91 
Q 1206 -91 779 398 
Q 353 888 353 1747 
Q 353 2609 779 3096 
Q 1206 3584 1959 3584 
z
" transform="scale(0.015625)"/>
       <path id="DejaVuSans-52" d="M 2841 2188 
Q 3044 2119 3236 1894 
Q 3428 1669 3622 1275 
L 4263 0 
L 3584 0 
L 2988 1197 
Q 2756 1666 2539 1819 
Q 2322 1972 1947 1972 
L 1259 1972 
L 1259 0 
L 628 0 
L 628 4666 
L 2053 4666 
Q 2853 4666 3247 4331 
Q 3641 3997 3641 3322 
Q 3641 2881 3436 2590 
Q 3231 2300 2841 2188 
z
M 1259 4147 
L 1259 2491 
L 2053 2491 
Q 2509 2491 2742 2702 
Q 2975 2913 2975 3322 
Q 2975 3731 2742 3939 
Q 2509 4147 2053 4147 
L 1259 4147 
z
" transform="scale(0.015625)"/>
       <path id="DejaVuSans-28" d="M 1984 4856 
Q 1566 4138 1362 3434 
Q 1159 2731 1159 2009 
Q 1159 1288 1364 580 
Q 1569 -128 1984 -844 
L 1484 -844 
Q 1016 -109 783 600 
Q 550 1309 550 2009 
Q 550 2706 781 3412 
Q 1013 4119 1484 4856 
L 1984 4856 
z
" transform="scale(0.015625)"/>
       <path id="DejaVuSans-Oblique-3c3" d="M 2219 3044 
Q 1744 3044 1422 2700 
Q 1081 2341 969 1747 
Q 844 1119 1044 756 
Q 1241 397 1706 397 
Q 2166 397 2503 759 
Q 2844 1122 2966 1747 
Q 3075 2319 2881 2700 
Q 2700 3044 2219 3044 
z
M 2309 3503 
L 4219 3500 
L 4106 2925 
L 3463 2925 
Q 3706 2438 3575 1747 
Q 3406 888 2884 400 
Q 2359 -91 1609 -91 
Q 856 -91 525 400 
Q 194 888 363 1747 
Q 528 2609 1050 3097 
Q 1484 3503 2309 3503 
z
" transform="scale(0.015625)"/>
       <path id="DejaVuSans-29" d="M 513 4856 
L 1013 4856 
Q 1481 4119 1714 3412 
Q 1947 2706 1947 2009 
Q 1947 1309 1714 600 
Q 1481 -109 1013 -844 
L 513 -844 
Q 928 -128 1133 580 
Q 1338 1288 1338 2009 
Q 1338 2731 1133 3434 
Q 928 4138 513 4856 
z
" transform="scale(0.015625)"/>
      </defs>
      <use xlink:href="#DejaVuSans-72" transform="translate(0 0.015625)"/>
      <use xlink:href="#DejaVuSans-65" transform="translate(41.113281 0.015625)"/>
      <use xlink:href="#DejaVuSans-6c" transform="translate(102.636719 0.015625)"/>
      <use xlink:href="#DejaVuSans-61" transform="translate(130.419922 0.015625)"/>
      <use xlink:href="#DejaVuSans-74" transform="translate(191.699219 0.015625)"/>
      <use xlink:href="#DejaVuSans-69" transform="translate(230.908203 0.015625)"/>
      <use xlink:href="#DejaVuSans-76" transform="translate(258.691406 0.015625)"/>
      <use xlink:href="#DejaVuSans-65" transform="translate(317.871094 0.015625)"/>
      <use xlink:href="#DejaVuSans-20" transform="translate(379.394531 0.015625)"/>
      <use xlink:href="#DejaVuSans-64" transform="translate(411.181641 0.015625)"/>
      <use xlink:href="#DejaVuSans-69" transform="translate(474.658203 0.015625)"/>
      <use xlink:href="#DejaVuSans-73" transform="translate(502.441406 0.015625)"/>
      <use xlink:href="#DejaVuSans-74" transform="translate(554.541016 0.015625)"/>
      <use xlink:href="#DejaVuSans-61" transform="translate(593.75 0.015625)"/>
      <use xlink:href="#DejaVuSans-6e" transform="translate(655.029297 0.015625)"/>
      <use xlink:href="#DejaVuSans-63" transform="translate(718.408203 0.015625)"/>
      <use xlink:href="#DejaVuSans-65" transform="translate(773.388672 0.015625)"/>
      <use xlink:href="#DejaVuSans-20" transform="translate(834.912109 0.015625)"/>
      <use xlink:href="#DejaVuSans-66" transform="translate(866.699219 0.015625)"/>
      <use xlink:href="#DejaVuSans-72" transform="translate(901.904297 0.015625)"/>
      <use xlink:href="#DejaVuSans-6f" transform="translate(943.017578 0.015625)"/>
      <use xlink:href="#DejaVuSans-6d" transform="translate(1004.199219 0.015625)"/>
      <use xlink:href="#DejaVuSans-20" transform="translate(1101.611328 0.015625)"/>
      <use xlink:href="#DejaVuSans-52" transform="translate(1133.398438 0.015625)"/>
      <use xlink:href="#DejaVuSans-4f" transform="translate(1202.880859 0.015625)"/>
      <use xlink:href="#DejaVuSans-49" transform="translate(1281.591797 0.015625)"/>
      <use xlink:href="#DejaVuSans-20" transform="translate(1311.083984 0.015625)"/>
      <use xlink:href="#DejaVuSans-63" transform="translate(1342.871094 0.015625)"/>
      <use xlink:href="#DejaVuSans-65" transform="translate(1397.851562 0.015625)"/>
      <use xlink:href="#DejaVuSans-6e" transform="translate(1459.375 0.015625)"/>
      <use xlink:href="#DejaVuSans-74" transform="translate(1522.753906 0.015625)"/>
      <use xlink:href="#DejaVuSans-65" transform="translate(1561.962891 0.015625)"/>
      <use xlink:href="#DejaVuSans-72" transform="translate(1623.486328 0.015625)"/>
      <use xlink:href="#DejaVuSans-20" transform="translate(1664.599609 0.015625)"/>
      <use xlink:href="#DejaVuSans-28" transform="translate(1696.386719 0.015625)"/>
      <use xlink:href="#DejaVuSans-Oblique-3c3" transform="translate(1735.400391 0.015625)"/>
      <use xlink:href="#DejaVuSans-29" transform="translate(1798.779297 0.015625)"/>
     </g>
    </g>
   </g>
   <g id="matplotlib.axis_4">
    <g id="ytick_10">
     <g id="line2d_37">
      <g>
       <use xlink:href="#maa7679b59a" x="82.4" y="443.52" style="stroke: #000000; stroke-width: 0.8"/>
      </g>
     </g>
     <g id="text_20">
      <!-- −1.0 -->
      <g transform="translate(51.117187 447.319219) scale(0.1 -0.1)">
       <use xlink:href="#DejaVuSans-2212"/>
       <use xlink:href="#DejaVuSans-31" x="83.789062"/>
       <use xlink:href="#DejaVuSans-2e" x="147.412109"/>
       <use xlink:href="#DejaVuSans-30" x="179.199219"/>
      </g>
     </g>
    </g>
    <g id="ytick_11">
     <g id="line2d_38">
      <g>
       <use xlink:href="#maa7679b59a" x="82.4" y="405.72" style="stroke: #000000; stroke-width: 0.8"/>
      </g>
     </g>
     <g id="text_21">
      <!-- −0.5 -->
      <g transform="translate(51.117187 409.519219) scale(0.1 -0.1)">
       <use xlink:href="#DejaVuSans-2212"/>
       <use xlink:href="#DejaVuSans-30" x="83.789062"/>
       <use xlink:href="#DejaVuSans-2e" x="147.412109"/>
       <use xlink:href="#DejaVuSans-35" x="179.199219"/>
      </g>
     </g>
    </g>
    <g id="ytick_12">
     <g id="line2d_39">
      <g>
       <use xlink:href="#maa7679b59a" x="82.4" y="367.92" style="stroke: #000000; stroke-width: 0.8"/>
      </g>
     </g>
     <g id="text_22">
      <!-- 0.0 -->
      <g transform="translate(59.496875 371.719219) scale(0.1 -0.1)">
       <use xlink:href="#DejaVuSans-30"/>
       <use xlink:href="#DejaVuSans-2e" x="63.623047"/>
       <use xlink:href="#DejaVuSans-30" x="95.410156"/>
      </g>
     </g>
    </g>
    <g id="ytick_13">
     <g id="line2d_40">
      <g>
       <use xlink:href="#maa7679b59a" x="82.4" y="330.12" style="stroke: #000000; stroke-width: 0.8"/>
      </g>
     </g>
     <g id="text_23">
      <!-- 0.5 -->
      <g transform="translate(59.496875 333.919219) scale(0.1 -0.1)">
       <use xlink:href="#DejaVuSans-30"/>
       <use xlink:href="#DejaVuSans-2e" x="63.623047"/>
       <use xlink:href="#DejaVuSans-35" x="95.410156"/>
      </g>
     </g>
    </g>
    <g id="ytick_14">
     <g id="line2d_41">
      <g>
       <use xlink:href="#maa7679b59a" x="82.4" y="292.32" style="stroke: #000000; stroke-width: 0.8"/>
      </g>
     </g>
     <g id="text_24">
      <!-- 1.0 -->
      <g transform="translate(59.496875 296.119219) scale(0.1 -0.1)">
       <use xlink:href="#DejaVuSans-31"/>
       <use xlink:href="#DejaVuSans-2e" x="63.623047"/>
       <use xlink:href="#DejaVuSans-30" x="95.410156"/>
      </g>
     </g>
    </g>
    <g id="text_25">
     <!-- Binned Avg -->
     <g transform="translate(45.453437 390.525625) rotate(-90) scale(0.08 -0.08)">
      <defs>
       <path id="DejaVuSans-41" d="M 2188 4044 
L 1331 1722 
L 3047 1722 
L 2188 4044 
z
M 1831 4666 
L 2547 4666 
L 4325 0 
L 3669 0 
L 3244 1197 
L 1141 1197 
L 716 0 
L 50 0 
L 1831 4666 
z
" transform="scale(0.015625)"/>
      </defs>
      <use xlink:href="#DejaVuSans-42"/>
      <use xlink:href="#DejaVuSans-69" x="68.603516"/>
      <use xlink:href="#DejaVuSans-6e" x="96.386719"/>
      <use xlink:href="#DejaVuSans-6e" x="159.765625"/>
      <use xlink:href="#DejaVuSans-65" x="223.144531"/>
      <use xlink:href="#DejaVuSans-64" x="284.667969"/>
      <use xlink:href="#DejaVuSans-20" x="348.144531"/>
      <use xlink:href="#DejaVuSans-41" x="379.931641"/>
      <use xlink:href="#DejaVuSans-76" x="442.464844"/>
      <use xlink:href="#DejaVuSans-67" x="501.644531"/>
     </g>
    </g>
   </g>
   <g id="LineCollection_1">
    <path d="M 126.72 328.662733 
L 126.72 265.994227 
" clip-path="url(#p89324d83b0)" style="fill: none; stroke: #000000; stroke-width: 1.5"/>
    <path d="M 207.36 336.462376 
L 207.36 302.305874 
" clip-path="url(#p89324d83b0)" style="fill: none; stroke: #000000; stroke-width: 1.5"/>
    <path d="M 288 338.160893 
L 288 302.164292 
" clip-path="url(#p89324d83b0)" style="fill: none; stroke: #000000; stroke-width: 1.5"/>
    <path d="M 368.64 362.023005 
L 368.64 320.706042 
" clip-path="url(#p89324d83b0)" style="fill: none; stroke: #000000; stroke-width: 1.5"/>
    <path d="M 449.28 367.319642 
L 449.28 338.113115 
" clip-path="url(#p89324d83b0)" style="fill: none; stroke: #000000; stroke-width: 1.5"/>
   </g>
   <g id="line2d_42">
    <defs>
     <path id="m24513b49cf" d="M 5 0 
L -5 -0 
" style="stroke: #000000"/>
    </defs>
    <g clip-path="url(#p89324d83b0)">
     <use xlink:href="#m24513b49cf" x="126.72" y="328.662733" style="stroke: #000000"/>
     <use xlink:href="#m24513b49cf" x="207.36" y="336.462376" style="stroke: #000000"/>
     <use xlink:href="#m24513b49cf" x="288" y="338.160893" style="stroke: #000000"/>
     <use xlink:href="#m24513b49cf" x="368.64" y="362.023005" style="stroke: #000000"/>
     <use xlink:href="#m24513b49cf" x="449.28" y="367.319642" style="stroke: #000000"/>
    </g>
   </g>
   <g id="line2d_43">
    <g clip-path="url(#p89324d83b0)">
     <use xlink:href="#m24513b49cf" x="126.72" y="265.994227" style="stroke: #000000"/>
     <use xlink:href="#m24513b49cf" x="207.36" y="302.305874" style="stroke: #000000"/>
     <use xlink:href="#m24513b49cf" x="288" y="302.164292" style="stroke: #000000"/>
     <use xlink:href="#m24513b49cf" x="368.64" y="320.706042" style="stroke: #000000"/>
     <use xlink:href="#m24513b49cf" x="449.28" y="338.113115" style="stroke: #000000"/>
    </g>
   </g>
   <g id="line2d_44">
    <path d="M 86.4 367.92 
L 489.6 367.92 
" clip-path="url(#p89324d83b0)" style="fill: none; stroke-dasharray: 5.55,2.4; stroke-dashoffset: 0; stroke: #000000; stroke-width: 1.5"/>
   </g>
   <g id="patch_12">
    <path d="M 82.4 443.52 
L 82.4 292.32 
" style="fill: none; stroke: #000000; stroke-width: 0.8; stroke-linejoin: miter; stroke-linecap: square"/>
   </g>
   <g id="patch_13">
    <path d="M 86.4 447.52 
L 489.6 447.52 
" style="fill: none; stroke: #000000; stroke-width: 0.8; stroke-linejoin: miter; stroke-linecap: square"/>
   </g>
   <g id="text_26">
    <!-- * -->
    <g transform="translate(204.36 299.810249) scale(0.12 -0.12)">
     <defs>
      <path id="DejaVuSans-2a" d="M 3009 3897 
L 1888 3291 
L 3009 2681 
L 2828 2375 
L 1778 3009 
L 1778 1831 
L 1422 1831 
L 1422 3009 
L 372 2375 
L 191 2681 
L 1313 3291 
L 191 3897 
L 372 4206 
L 1422 3572 
L 1422 4750 
L 1778 4750 
L 1778 3572 
L 2828 4206 
L 3009 3897 
z
" transform="scale(0.015625)"/>
     </defs>
     <use xlink:href="#DejaVuSans-2a"/>
    </g>
   </g>
   <g id="text_27">
    <!-- * -->
    <g transform="translate(285 299.668667) scale(0.12 -0.12)">
     <use xlink:href="#DejaVuSans-2a"/>
    </g>
   </g>
  </g>
 </g>
 <defs>
  <clipPath id="pf42a9cf252">
   <rect x="86.4" y="40.32" width="403.2" height="201.6"/>
  </clipPath>
  <clipPath id="p89324d83b0">
   <rect x="86.4" y="292.32" width="403.2" height="151.2"/>
  </clipPath>
 </defs>
</svg>
