<?xml version="1.0" encoding="utf-8" standalone="no"?>
<!DOCTYPE svg PUBLIC "-//W3C//DTD SVG 1.1//EN"
  "http://www.w3.org/Graphics/SVG/1.1/DTD/svg11.dtd">
<svg xmlns:xlink="http://www.w3.org/1999/xlink" width="576pt" height="504pt" viewBox="0 0 576 504" xmlns="http://www.w3.org/2000/svg" version="1.1">
 <metadata>
  <rdf:RDF xmlns:dc="http://purl.org/dc/elements/1.1/" xmlns:cc="http://creativecommons.org/ns#" xmlns:rdf="http://www.w3.org/1999/02/22-rdf-syntax-ns#">
   <cc:Work>
    <dc:type rdf:resource="http://purl.org/dc/dcmitype/StillImage"/>
    <dc:date>2026-05-26T10:36:36.062427</dc:date>
    <dc:format>image/svg+xml</dc:format>
    <dc:creator>
     <cc:Agent>
      <dc:title>Matplotlib v3.8.0, https://matplotlib.org/</dc:title>
     </cc:Agent>
    </dc:creator>
   </cc:Work>
  </rdf:RDF>
 </metadata>
 <defs>
  <style type="text/css">*{stroke-linejoin: round; stroke-linecap: butt}</style>
 </defs>
 <g id="figure_1">
  <g id="patch_1">
   <path d="M 0 504 
L 576 504 
L 576 0 
L 0 0 
z
" style="fill: #ffffff"/>
  </g>
  <g id="axes_1">
   <g id="patch_2">
    <path d="M 86.4 241.92 
L 489.6 241.92 
L 489.6 40.32 
L 86.4 40.32 
z
" style="fill: #ffffff"/>
   </g>
   <g id="PolyCollection_1">
    <defs>
     <path id="m090c37f8a0" d="M 86.4 -391.789761 
L 86.4 -352.292968 
L 94.628571 -350.854267 
L 102.857143 -349.677666 
L 111.085714 -350.162327 
L 119.314286 -354.217748 
L 127.542857 -358.150403 
L 135.771429 -362.98757 
L 144 -363.539026 
L 152.228571 -363.130499 
L 160.457143 -364.886012 
L 168.685714 -366.443013 
L 176.914286 -366.031138 
L 185.142857 -366.659057 
L 193.371429 -366.145131 
L 201.6 -366.499845 
L 209.828571 -364.404156 
L 218.057143 -361.073797 
L 226.285714 -358.94707 
L 234.514286 -356.405426 
L 242.742857 -353.97836 
L 250.971429 -353.135336 
L 259.2 -352.226332 
L 267.428571 -351.782157 
L 275.657143 -351.472939 
L 283.885714 -352.047736 
L 292.114286 -352.049247 
L 300.342857 -349.216094 
L 308.571429 -347.723822 
L 316.8 -349.08967 
L 325.028571 -349.036783 
L 333.257143 -347.267262 
L 341.485714 -343.417421 
L 349.714286 -340.719527 
L 357.942857 -340.396767 
L 366.171429 -341.146247 
L 374.4 -342.076798 
L 382.628571 -343.928854 
L 390.857143 -344.675921 
L 399.085714 -345.019375 
L 407.314286 -346.134953 
L 415.542857 -347.566568 
L 423.771429 -349.775026 
L 432 -351.097541 
L 440.228571 -351.082913 
L 448.457143 -349.681547 
L 456.685714 -348.702517 
L 464.914286 -347.818332 
L 473.142857 -346.965552 
L 481.371429 -347.724757 
L 489.6 -347.851963 
L 489.6 -374.247517 
L 489.6 -374.247517 
L 481.371429 -371.879867 
L 473.142857 -369.605688 
L 464.914286 -370.400209 
L 456.685714 -371.91296 
L 448.457143 -372.544526 
L 440.228571 -373.879358 
L 432 -374.523161 
L 423.771429 -373.911793 
L 415.542857 -372.960546 
L 407.314286 -372.374931 
L 399.085714 -372.53676 
L 390.857143 -372.902474 
L 382.628571 -372.56739 
L 374.4 -371.070047 
L 366.171429 -370.48441 
L 357.942857 -370.37599 
L 349.714286 -371.046507 
L 341.485714 -373.071646 
L 333.257143 -375.579217 
L 325.028571 -376.514487 
L 316.8 -375.210562 
L 308.571429 -373.771991 
L 300.342857 -374.411882 
L 292.114286 -377.213224 
L 283.885714 -378.276873 
L 275.657143 -379.281063 
L 267.428571 -380.237078 
L 259.2 -380.171339 
L 250.971429 -380.061231 
L 242.742857 -379.848497 
L 234.514286 -381.58322 
L 226.285714 -384.58295 
L 218.057143 -387.474271 
L 209.828571 -390.909915 
L 201.6 -393.735203 
L 193.371429 -394.6291 
L 185.142857 -395.52092 
L 176.914286 -395.669988 
L 168.685714 -397.312224 
L 160.457143 -398.080659 
L 152.228571 -399.29552 
L 144 -399.993916 
L 135.771429 -399.401992 
L 127.542857 -395.829075 
L 119.314286 -393.809898 
L 111.085714 -390.808979 
L 102.857143 -390.352604 
L 94.628571 -390.722445 
L 86.4 -391.789761 
z
" style="stroke: #00ced1; stroke-opacity: 0.4"/>
    </defs>
    <g clip-path="url(#p0909d8a295)">
     <use xlink:href="#m090c37f8a0" x="0" y="504" style="fill: #00ced1; fill-opacity: 0.4; stroke: #00ced1; stroke-opacity: 0.4"/>
    </g>
   </g>
   <g id="matplotlib.axis_1">
    <g id="xtick_1">
     <g id="line2d_1">
      <defs>
       <path id="m2c4936ea50" d="M 0 0 
L 0 3.5 
" style="stroke: #000000; stroke-width: 0.8"/>
      </defs>
      <g>
       <use xlink:href="#m2c4936ea50" x="86.4" y="245.92" style="stroke: #000000; stroke-width: 0.8"/>
      </g>
     </g>
    </g>
    <g id="xtick_2">
     <g id="line2d_2">
      <g>
       <use xlink:href="#m2c4936ea50" x="167.04" y="245.92" style="stroke: #000000; stroke-width: 0.8"/>
      </g>
     </g>
    </g>
    <g id="xtick_3">
     <g id="line2d_3">
      <g>
       <use xlink:href="#m2c4936ea50" x="247.68" y="245.92" style="stroke: #000000; stroke-width: 0.8"/>
      </g>
     </g>
    </g>
    <g id="xtick_4">
     <g id="line2d_4">
      <g>
       <use xlink:href="#m2c4936ea50" x="328.32" y="245.92" style="stroke: #000000; stroke-width: 0.8"/>
      </g>
     </g>
    </g>
    <g id="xtick_5">
     <g id="line2d_5">
      <g>
       <use xlink:href="#m2c4936ea50" x="408.96" y="245.92" style="stroke: #000000; stroke-width: 0.8"/>
      </g>
     </g>
    </g>
    <g id="xtick_6">
     <g id="line2d_6">
      <g>
       <use xlink:href="#m2c4936ea50" x="489.6" y="245.92" style="stroke: #000000; stroke-width: 0.8"/>
      </g>
     </g>
    </g>
   </g>
   <g id="matplotlib.axis_2">
    <g id="ytick_1">
     <g id="line2d_7">
      <defs>
       <path id="me364fa6ea1" d="M 0 0 
L -3.5 0 
" style="stroke: #000000; stroke-width: 0.8"/>
      </defs>
      <g>
       <use xlink:href="#me364fa6ea1" x="82.4" y="241.92" style="stroke: #000000; stroke-width: 0.8"/>
      </g>
     </g>
     <g id="text_1">
      <!-- −2.0 -->
      <g transform="translate(51.117187 245.719219) scale(0.1 -0.1)">
       <defs>
        <path id="DejaVuSans-2212" d="M 678 2272 
L 4684 2272 
L 4684 1741 
L 678 1741 
L 678 2272 
z
" transform="scale(0.015625)"/>
        <path id="DejaVuSans-32" d="M 1228 531 
L 3431 531 
L 3431 0 
L 469 0 
L 469 531 
Q 828 903 1448 1529 
Q 2069 2156 2228 2338 
Q 2531 2678 2651 2914 
Q 2772 3150 2772 3378 
Q 2772 3750 2511 3984 
Q 2250 4219 1831 4219 
Q 1534 4219 1204 4116 
Q 875 4013 500 3803 
L 500 4441 
Q 881 4594 1212 4672 
Q 1544 4750 1819 4750 
Q 2544 4750 2975 4387 
Q 3406 4025 3406 3419 
Q 3406 3131 3298 2873 
Q 3191 2616 2906 2266 
Q 2828 2175 2409 1742 
Q 1991 1309 1228 531 
z
" transform="scale(0.015625)"/>
        <path id="DejaVuSans-2e" d="M 684 794 
L 1344 794 
L 1344 0 
L 684 0 
L 684 794 
z
" transform="scale(0.015625)"/>
        <path id="DejaVuSans-30" d="M 2034 4250 
Q 1547 4250 1301 3770 
Q 1056 3291 1056 2328 
Q 1056 1369 1301 889 
Q 1547 409 2034 409 
Q 2525 409 2770 889 
Q 3016 1369 3016 2328 
Q 3016 3291 2770 3770 
Q 2525 4250 2034 4250 
z
M 2034 4750 
Q 2819 4750 3233 4129 
Q 3647 3509 3647 2328 
Q 3647 1150 3233 529 
Q 2819 -91 2034 -91 
Q 1250 -91 836 529 
Q 422 1150 422 2328 
Q 422 3509 836 4129 
Q 1250 4750 2034 4750 
z
" transform="scale(0.015625)"/>
       </defs>
       <use xlink:href="#DejaVuSans-2212"/>
       <use xlink:href="#DejaVuSans-32" x="83.789062"/>
       <use xlink:href="#DejaVuSans-2e" x="147.412109"/>
       <use xlink:href="#DejaVuSans-30" x="179.199219"/>
      </g>
     </g>
    </g>
    <g id="ytick_2">
     <g id="line2d_8">
      <g>
       <use xlink:href="#me364fa6ea1" x="82.4" y="216.72" style="stroke: #000000; stroke-width: 0.8"/>
      </g>
     </g>
     <g id="text_2">
      <!-- −1.5 -->
      <g transform="translate(51.117187 220.519219) scale(0.1 -0.1)">
       <defs>
        <path id="DejaVuSans-31" d="M 794 531 
L 1825 531 
L 1825 4091 
L 703 3866 
L 703 4441 
L 1819 4666 
L 2450 4666 
L 2450 531 
L 3481 531 
L 3481 0 
L 794 0 
L 794 531 
z
" transform="scale(0.015625)"/>
        <path id="DejaVuSans-35" d="M 691 4666 
L 3169 4666 
L 3169 4134 
L 1269 4134 
L 1269 2991 
Q 1406 3038 1543 3061 
Q 1681 3084 1819 3084 
Q 2600 3084 3056 2656 
Q 3513 2228 3513 1497 
Q 3513 744 3044 326 
Q 2575 -91 1722 -91 
Q 1428 -91 1123 -41 
Q 819 9 494 109 
L 494 744 
Q 775 591 1075 516 
Q 1375 441 1709 441 
Q 2250 441 2565 725 
Q 2881 1009 2881 1497 
Q 2881 1984 2565 2268 
Q 2250 2553 1709 2553 
Q 1456 2553 1204 2497 
Q 953 2441 691 2322 
L 691 4666 
z
" transform="scale(0.015625)"/>
       </defs>
       <use xlink:href="#DejaVuSans-2212"/>
       <use xlink:href="#DejaVuSans-31" x="83.789062"/>
       <use xlink:href="#DejaVuSans-2e" x="147.412109"/>
       <use xlink:href="#DejaVuSans-35" x="179.199219"/>
      </g>
     </g>
    </g>
    <g id="ytick_3">
     <g id="line2d_9">
      <g>
       <use xlink:href="#me364fa6ea1" x="82.4" y="191.52" style="stroke: #000000; stroke-width: 0.8"/>
      </g>
     </g>
     <g id="text_3">
      <!-- −1.0 -->
      <g transform="translate(51.117187 195.319219) scale(0.1 -0.1)">
       <use xlink:href="#DejaVuSans-2212"/>
       <use xlink:href="#DejaVuSans-31" x="83.789062"/>
       <use xlink:href="#DejaVuSans-2e" x="147.412109"/>
       <use xlink:href="#DejaVuSans-30" x="179.199219"/>
      </g>
     </g>
    </g>
    <g id="ytick_4">
     <g id="line2d_10">
      <g>
       <use xlink:href="#me364fa6ea1" x="82.4" y="166.32" style="stroke: #000000; stroke-width: 0.8"/>
      </g>
     </g>
     <g id="text_4">
      <!-- −0.5 -->
      <g transform="translate(51.117187 170.119219) scale(0.1 -0.1)">
       <use xlink:href="#DejaVuSans-2212"/>
       <use xlink:href="#DejaVuSans-30" x="83.789062"/>
       <use xlink:href="#DejaVuSans-2e" x="147.412109"/>
       <use xlink:href="#DejaVuSans-35" x="179.199219"/>
      </g>
     </g>
    </g>
    <g id="ytick_5">
     <g id="line2d_11">
      <g>
       <use xlink:href="#me364fa6ea1" x="82.4" y="141.12" style="stroke: #000000; stroke-width: 0.8"/>
      </g>
     </g>
     <g id="text_5">
      <!-- 0.0 -->
      <g transform="translate(59.496875 144.919219) scale(0.1 -0.1)">
       <use xlink:href="#DejaVuSans-30"/>
       <use xlink:href="#DejaVuSans-2e" x="63.623047"/>
       <use xlink:href="#DejaVuSans-30" x="95.410156"/>
      </g>
     </g>
    </g>
    <g id="ytick_6">
     <g id="line2d_12">
      <g>
       <use xlink:href="#me364fa6ea1" x="82.4" y="115.92" style="stroke: #000000; stroke-width: 0.8"/>
      </g>
     </g>
     <g id="text_6">
      <!-- 0.5 -->
      <g transform="translate(59.496875 119.719219) scale(0.1 -0.1)">
       <use xlink:href="#DejaVuSans-30"/>
       <use xlink:href="#DejaVuSans-2e" x="63.623047"/>
       <use xlink:href="#DejaVuSans-35" x="95.410156"/>
      </g>
     </g>
    </g>
    <g id="ytick_7">
     <g id="line2d_13">
      <g>
       <use xlink:href="#me364fa6ea1" x="82.4" y="90.72" style="stroke: #000000; stroke-width: 0.8"/>
      </g>
     </g>
     <g id="text_7">
      <!-- 1.0 -->
      <g transform="translate(59.496875 94.519219) scale(0.1 -0.1)">
       <use xlink:href="#DejaVuSans-31"/>
       <use xlink:href="#DejaVuSans-2e" x="63.623047"/>
       <use xlink:href="#DejaVuSans-30" x="95.410156"/>
      </g>
     </g>
    </g>
    <g id="ytick_8">
     <g id="line2d_14">
      <g>
       <use xlink:href="#me364fa6ea1" x="82.4" y="65.52" style="stroke: #000000; stroke-width: 0.8"/>
      </g>
     </g>
     <g id="text_8">
      <!-- 1.5 -->
      <g transform="translate(59.496875 69.319219) scale(0.1 -0.1)">
       <use xlink:href="#DejaVuSans-31"/>
       <use xlink:href="#DejaVuSans-2e" x="63.623047"/>
       <use xlink:href="#DejaVuSans-35" x="95.410156"/>
      </g>
     </g>
    </g>
    <g id="ytick_9">
     <g id="line2d_15">
      <g>
       <use xlink:href="#me364fa6ea1" x="82.4" y="40.32" style="stroke: #000000; stroke-width: 0.8"/>
      </g>
     </g>
     <g id="text_9">
      <!-- 2.0 -->
      <g transform="translate(59.496875 44.119219) scale(0.1 -0.1)">
       <use xlink:href="#DejaVuSans-32"/>
       <use xlink:href="#DejaVuSans-2e" x="63.623047"/>
       <use xlink:href="#DejaVuSans-30" x="95.410156"/>
      </g>
     </g>
    </g>
    <g id="text_10">
     <!-- BOLD % change -->
     <g transform="translate(45.453437 173.31625) rotate(-90) scale(0.08 -0.08)">
      <defs>
       <path id="DejaVuSans-42" d="M 1259 2228 
L 1259 519 
L 2272 519 
Q 2781 519 3026 730 
Q 3272 941 3272 1375 
Q 3272 1813 3026 2020 
Q 2781 2228 2272 2228 
L 1259 2228 
z
M 1259 4147 
L 1259 2741 
L 2194 2741 
Q 2656 2741 2882 2914 
Q 3109 3088 3109 3444 
Q 3109 3797 2882 3972 
Q 2656 4147 2194 4147 
L 1259 4147 
z
M 628 4666 
L 2241 4666 
Q 2963 4666 3353 4366 
Q 3744 4066 3744 3513 
Q 3744 3084 3544 2831 
Q 3344 2578 2956 2516 
Q 3422 2416 3680 2098 
Q 3938 1781 3938 1306 
Q 3938 681 3513 340 
Q 3088 0 2303 0 
L 628 0 
L 628 4666 
z
" transform="scale(0.015625)"/>
       <path id="DejaVuSans-4f" d="M 2522 4238 
Q 1834 4238 1429 3725 
Q 1025 3213 1025 2328 
Q 1025 1447 1429 934 
Q 1834 422 2522 422 
Q 3209 422 3611 934 
Q 4013 1447 4013 2328 
Q 4013 3213 3611 3725 
Q 3209 4238 2522 4238 
z
M 2522 4750 
Q 3503 4750 4090 4092 
Q 4678 3434 4678 2328 
Q 4678 1225 4090 567 
Q 3503 -91 2522 -91 
Q 1538 -91 948 565 
Q 359 1222 359 2328 
Q 359 3434 948 4092 
Q 1538 4750 2522 4750 
z
" transform="scale(0.015625)"/>
       <path id="DejaVuSans-4c" d="M 628 4666 
L 1259 4666 
L 1259 531 
L 3531 531 
L 3531 0 
L 628 0 
L 628 4666 
z
" transform="scale(0.015625)"/>
       <path id="DejaVuSans-44" d="M 1259 4147 
L 1259 519 
L 2022 519 
Q 2988 519 3436 956 
Q 3884 1394 3884 2338 
Q 3884 3275 3436 3711 
Q 2988 4147 2022 4147 
L 1259 4147 
z
M 628 4666 
L 1925 4666 
Q 3281 4666 3915 4102 
Q 4550 3538 4550 2338 
Q 4550 1131 3912 565 
Q 3275 0 1925 0 
L 628 0 
L 628 4666 
z
" transform="scale(0.015625)"/>
       <path id="DejaVuSans-20" transform="scale(0.015625)"/>
       <path id="DejaVuSans-25" d="M 4653 2053 
Q 4381 2053 4226 1822 
Q 4072 1591 4072 1178 
Q 4072 772 4226 539 
Q 4381 306 4653 306 
Q 4919 306 5073 539 
Q 5228 772 5228 1178 
Q 5228 1588 5073 1820 
Q 4919 2053 4653 2053 
z
M 4653 2450 
Q 5147 2450 5437 2106 
Q 5728 1763 5728 1178 
Q 5728 594 5436 251 
Q 5144 -91 4653 -91 
Q 4153 -91 3862 251 
Q 3572 594 3572 1178 
Q 3572 1766 3864 2108 
Q 4156 2450 4653 2450 
z
M 1428 4353 
Q 1159 4353 1004 4120 
Q 850 3888 850 3481 
Q 850 3069 1003 2837 
Q 1156 2606 1428 2606 
Q 1700 2606 1854 2837 
Q 2009 3069 2009 3481 
Q 2009 3884 1853 4118 
Q 1697 4353 1428 4353 
z
M 4250 4750 
L 4750 4750 
L 1831 -91 
L 1331 -91 
L 4250 4750 
z
M 1428 4750 
Q 1922 4750 2215 4408 
Q 2509 4066 2509 3481 
Q 2509 2891 2217 2550 
Q 1925 2209 1428 2209 
Q 931 2209 642 2551 
Q 353 2894 353 3481 
Q 353 4063 643 4406 
Q 934 4750 1428 4750 
z
" transform="scale(0.015625)"/>
       <path id="DejaVuSans-63" d="M 3122 3366 
L 3122 2828 
Q 2878 2963 2633 3030 
Q 2388 3097 2138 3097 
Q 1578 3097 1268 2742 
Q 959 2388 959 1747 
Q 959 1106 1268 751 
Q 1578 397 2138 397 
Q 2388 397 2633 464 
Q 2878 531 3122 666 
L 3122 134 
Q 2881 22 2623 -34 
Q 2366 -91 2075 -91 
Q 1284 -91 818 406 
Q 353 903 353 1747 
Q 353 2603 823 3093 
Q 1294 3584 2113 3584 
Q 2378 3584 2631 3529 
Q 2884 3475 3122 3366 
z
" transform="scale(0.015625)"/>
       <path id="DejaVuSans-68" d="M 3513 2113 
L 3513 0 
L 2938 0 
L 2938 2094 
Q 2938 2591 2744 2837 
Q 2550 3084 2163 3084 
Q 1697 3084 1428 2787 
Q 1159 2491 1159 1978 
L 1159 0 
L 581 0 
L 581 4863 
L 1159 4863 
L 1159 2956 
Q 1366 3272 1645 3428 
Q 1925 3584 2291 3584 
Q 2894 3584 3203 3211 
Q 3513 2838 3513 2113 
z
" transform="scale(0.015625)"/>
       <path id="DejaVuSans-61" d="M 2194 1759 
Q 1497 1759 1228 1600 
Q 959 1441 959 1056 
Q 959 750 1161 570 
Q 1363 391 1709 391 
Q 2188 391 2477 730 
Q 2766 1069 2766 1631 
L 2766 1759 
L 2194 1759 
z
M 3341 1997 
L 3341 0 
L 2766 0 
L 2766 531 
Q 2569 213 2275 61 
Q 1981 -91 1556 -91 
Q 1019 -91 701 211 
Q 384 513 384 1019 
Q 384 1609 779 1909 
Q 1175 2209 1959 2209 
L 2766 2209 
L 2766 2266 
Q 2766 2663 2505 2880 
Q 2244 3097 1772 3097 
Q 1472 3097 1187 3025 
Q 903 2953 641 2809 
L 641 3341 
Q 956 3463 1253 3523 
Q 1550 3584 1831 3584 
Q 2591 3584 2966 3190 
Q 3341 2797 3341 1997 
z
" transform="scale(0.015625)"/>
       <path id="DejaVuSans-6e" d="M 3513 2113 
L 3513 0 
L 2938 0 
L 2938 2094 
Q 2938 2591 2744 2837 
Q 2550 3084 2163 3084 
Q 1697 3084 1428 2787 
Q 1159 2491 1159 1978 
L 1159 0 
L 581 0 
L 581 3500 
L 1159 3500 
L 1159 2956 
Q 1366 3272 1645 3428 
Q 1925 3584 2291 3584 
Q 2894 3584 3203 3211 
Q 3513 2838 3513 2113 
z
" transform="scale(0.015625)"/>
       <path id="DejaVuSans-67" d="M 2906 1791 
Q 2906 2416 2648 2759 
Q 2391 3103 1925 3103 
Q 1463 3103 1205 2759 
Q 947 2416 947 1791 
Q 947 1169 1205 825 
Q 1463 481 1925 481 
Q 2391 481 2648 825 
Q 2906 1169 2906 1791 
z
M 3481 434 
Q 3481 -459 3084 -895 
Q 2688 -1331 1869 -1331 
Q 1566 -1331 1297 -1286 
Q 1028 -1241 775 -1147 
L 775 -588 
Q 1028 -725 1275 -790 
Q 1522 -856 1778 -856 
Q 2344 -856 2625 -561 
Q 2906 -266 2906 331 
L 2906 616 
Q 2728 306 2450 153 
Q 2172 0 1784 0 
Q 1141 0 747 490 
Q 353 981 353 1791 
Q 353 2603 747 3093 
Q 1141 3584 1784 3584 
Q 2172 3584 2450 3431 
Q 2728 3278 2906 2969 
L 2906 3500 
L 3481 3500 
L 3481 434 
z
" transform="scale(0.015625)"/>
       <path id="DejaVuSans-65" d="M 3597 1894 
L 3597 1613 
L 953 1613 
Q 991 1019 1311 708 
Q 1631 397 2203 397 
Q 2534 397 2845 478 
Q 3156 559 3463 722 
L 3463 178 
Q 3153 47 2828 -22 
Q 2503 -91 2169 -91 
Q 1331 -91 842 396 
Q 353 884 353 1716 
Q 353 2575 817 3079 
Q 1281 3584 2069 3584 
Q 2775 3584 3186 3129 
Q 3597 2675 3597 1894 
z
M 3022 2063 
Q 3016 2534 2758 2815 
Q 2500 3097 2075 3097 
Q 1594 3097 1305 2825 
Q 1016 2553 972 2059 
L 3022 2063 
z
" transform="scale(0.015625)"/>
      </defs>
      <use xlink:href="#DejaVuSans-42"/>
      <use xlink:href="#DejaVuSans-4f" x="66.853516"/>
      <use xlink:href="#DejaVuSans-4c" x="145.564453"/>
      <use xlink:href="#DejaVuSans-44" x="201.277344"/>
      <use xlink:href="#DejaVuSans-20" x="278.279297"/>
      <use xlink:href="#DejaVuSans-25" x="310.066406"/>
      <use xlink:href="#DejaVuSans-20" x="405.085938"/>
      <use xlink:href="#DejaVuSans-63" x="436.873047"/>
      <use xlink:href="#DejaVuSans-68" x="491.853516"/>
      <use xlink:href="#DejaVuSans-61" x="555.232422"/>
      <use xlink:href="#DejaVuSans-6e" x="616.511719"/>
      <use xlink:href="#DejaVuSans-67" x="679.890625"/>
      <use xlink:href="#DejaVuSans-65" x="743.367188"/>
     </g>
    </g>
   </g>
   <g id="line2d_16">
    <path d="M 86.4 131.958636 
L 94.628571 133.211644 
L 102.857143 133.984865 
L 111.085714 133.514347 
L 119.314286 129.986177 
L 127.542857 127.010261 
L 135.771429 122.805219 
L 144 122.233529 
L 152.228571 122.78699 
L 160.457143 122.516664 
L 168.685714 122.122381 
L 176.914286 123.149437 
L 185.142857 122.910012 
L 193.371429 123.612885 
L 201.6 123.882476 
L 209.828571 126.342965 
L 218.057143 129.725966 
L 226.285714 132.23499 
L 234.514286 135.005677 
L 242.742857 137.086571 
L 250.971429 137.401716 
L 259.2 137.801164 
L 267.428571 137.990382 
L 275.657143 138.622999 
L 283.885714 138.837696 
L 292.114286 139.368765 
L 300.342857 142.186012 
L 308.571429 143.252094 
L 316.8 141.849884 
L 325.028571 141.224365 
L 333.257143 142.57676 
L 341.485714 145.755466 
L 349.714286 148.116983 
L 357.942857 148.613621 
L 366.171429 148.184671 
L 374.4 147.426577 
L 382.628571 145.751878 
L 390.857143 145.210803 
L 399.085714 145.221933 
L 407.314286 144.745058 
L 415.542857 143.736443 
L 423.771429 142.15659 
L 432 141.189649 
L 440.228571 141.518865 
L 448.457143 142.886964 
L 456.685714 143.692262 
L 464.914286 144.890729 
L 473.142857 145.71438 
L 481.371429 144.197688 
L 489.6 142.95026 
" clip-path="url(#p0909d8a295)" style="fill: none; stroke: #00ced1; stroke-width: 1.5; stroke-linecap: square"/>
   </g>
   <g id="line2d_17">
    <path d="M 86.4 109.403999 
L 94.628571 108.627914 
L 102.857143 115.284403 
L 111.085714 118.026594 
L 119.314286 113.641232 
L 127.542857 103.680539 
L 135.771429 93.802297 
L 144 87.534429 
L 152.228571 94.996337 
L 160.457143 103.605965 
L 168.685714 111.85824 
L 176.914286 117.588017 
L 185.142857 116.018447 
L 193.371429 109.861473 
L 201.6 106.893595 
L 209.828571 112.573174 
L 218.057143 117.824105 
L 226.285714 119.755993 
L 234.514286 121.225719 
L 242.742857 127.936641 
L 250.971429 131.39837 
L 259.2 131.338043 
L 267.428571 133.026608 
L 275.657143 135.919976 
L 283.885714 139.217447 
L 292.114286 140.867772 
L 300.342857 144.348849 
L 308.571429 145.53626 
L 316.8 152.75719 
L 325.028571 158.301174 
L 333.257143 155.321075 
L 341.485714 148.888743 
L 349.714286 147.102496 
L 357.942857 143.920587 
L 366.171429 140.085843 
L 374.4 135.664518 
L 382.628571 135.34107 
L 390.857143 139.123804 
L 399.085714 145.2349 
L 407.314286 145.628257 
L 415.542857 133.688577 
L 423.771429 119.814382 
L 432 114.533491 
L 440.228571 113.022424 
L 448.457143 109.98382 
L 456.685714 106.253 
L 464.914286 113.49565 
L 473.142857 116.448869 
L 481.371429 109.217579 
L 489.6 93.398638 
" clip-path="url(#p0909d8a295)" style="fill: none; stroke: #00ced1; stroke-opacity: 0.2; stroke-width: 1.5; stroke-linecap: square"/>
   </g>
   <g id="line2d_18">
    <path d="M 86.4 113.05094 
L 94.628571 113.05094 
L 102.857143 107.960992 
L 111.085714 101.136401 
L 119.314286 101.200042 
L 127.542857 102.871903 
L 135.771429 104.124451 
L 144 104.674871 
L 152.228571 104.805792 
L 160.457143 106.011904 
L 168.685714 106.909703 
L 176.914286 105.229078 
L 185.142857 104.426039 
L 193.371429 107.870029 
L 201.6 108.051082 
L 209.828571 107.211025 
L 218.057143 109.068027 
L 226.285714 111.47739 
L 234.514286 110.65954 
L 242.742857 110.65901 
L 250.971429 108.494156 
L 259.2 110.632553 
L 267.428571 111.810785 
L 275.657143 114.102585 
L 283.885714 117.210092 
L 292.114286 118.821806 
L 300.342857 118.033751 
L 308.571429 119.204327 
L 316.8 118.588539 
L 325.028571 116.233013 
L 333.257143 116.094006 
L 341.485714 115.679138 
L 349.714286 115.754076 
L 357.942857 118.54463 
L 366.171429 122.455281 
L 374.4 124.773112 
L 382.628571 123.75373 
L 390.857143 125.290177 
L 399.085714 127.262115 
L 407.314286 129.76614 
L 415.542857 128.999635 
L 423.771429 125.84068 
L 432 122.945813 
L 440.228571 126.300919 
L 448.457143 132.425998 
L 456.685714 136.87289 
L 464.914286 141.335527 
L 473.142857 141.086105 
L 481.371429 138.498432 
L 489.6 136.824015 
" clip-path="url(#p0909d8a295)" style="fill: none; stroke: #00ced1; stroke-opacity: 0.2; stroke-width: 1.5; stroke-linecap: square"/>
   </g>
   <g id="line2d_19">
    <path d="M 86.4 148.347783 
L 94.628571 145.82671 
L 102.857143 141.754386 
L 111.085714 139.671238 
L 119.314286 135.577754 
L 127.542857 134.528041 
L 135.771429 134.429344 
L 144 136.832684 
L 152.228571 134.124583 
L 160.457143 130.553877 
L 168.685714 127.034043 
L 176.914286 131.145076 
L 185.142857 136.701936 
L 193.371429 137.524799 
L 201.6 140.018831 
L 209.828571 138.806463 
L 218.057143 138.475262 
L 226.285714 139.557193 
L 234.514286 141.922706 
L 242.742857 141.702051 
L 250.971429 140.470878 
L 259.2 144.071695 
L 267.428571 146.367632 
L 275.657143 151.667668 
L 283.885714 160.280413 
L 292.114286 166.057309 
L 300.342857 169.260613 
L 308.571429 166.524466 
L 316.8 165.866519 
L 325.028571 168.919727 
L 333.257143 171.185125 
L 341.485714 175.310224 
L 349.714286 177.507416 
L 357.942857 176.448486 
L 366.171429 173.622922 
L 374.4 170.901661 
L 382.628571 164.172172 
L 390.857143 160.145826 
L 399.085714 153.577572 
L 407.314286 143.154064 
L 415.542857 135.918178 
L 423.771429 135.605318 
L 432 135.265919 
L 440.228571 132.627146 
L 448.457143 135.809439 
L 456.685714 139.955552 
L 464.914286 139.071899 
L 473.142857 131.12815 
L 481.371429 120.294346 
L 489.6 114.374674 
" clip-path="url(#p0909d8a295)" style="fill: none; stroke: #00ced1; stroke-opacity: 0.2; stroke-width: 1.5; stroke-linecap: square"/>
   </g>
   <g id="line2d_20">
    <path d="M 86.4 77.131211 
L 94.628571 77.131211 
L 102.857143 77.697225 
L 111.085714 80.187213 
L 119.314286 83.819627 
L 127.542857 88.32662 
L 135.771429 97.303306 
L 144 105.500682 
L 152.228571 107.547412 
L 160.457143 112.568035 
L 168.685714 115.314234 
L 176.914286 119.827176 
L 185.142857 124.073924 
L 193.371429 123.80898 
L 201.6 120.757678 
L 209.828571 119.602396 
L 218.057143 119.072025 
L 226.285714 120.57279 
L 234.514286 119.823682 
L 242.742857 120.350943 
L 250.971429 121.822807 
L 259.2 121.390071 
L 267.428571 121.717894 
L 275.657143 121.984762 
L 283.885714 119.899321 
L 292.114286 119.178252 
L 300.342857 123.447454 
L 308.571429 131.068156 
L 316.8 136.509872 
L 325.028571 138.652591 
L 333.257143 140.819504 
L 341.485714 143.344882 
L 349.714286 143.608775 
L 357.942857 143.032649 
L 366.171429 143.324819 
L 374.4 143.055692 
L 382.628571 141.626205 
L 390.857143 141.422904 
L 399.085714 142.219887 
L 407.314286 143.709033 
L 415.542857 145.585552 
L 423.771429 149.46074 
L 432 150.7696 
L 440.228571 152.843533 
L 448.457143 155.520392 
L 456.685714 150.4333 
L 464.914286 144.557344 
L 473.142857 141.133833 
L 481.371429 137.781618 
L 489.6 135.043569 
" clip-path="url(#p0909d8a295)" style="fill: none; stroke: #00ced1; stroke-opacity: 0.2; stroke-width: 1.5; stroke-linecap: square"/>
   </g>
   <g id="line2d_21">
    <path d="M 86.4 242.614312 
L 94.628571 242.47045 
L 102.857143 242.956949 
L 111.085714 241.641194 
L 119.314286 222.266498 
L 127.542857 208.536477 
L 135.771429 200.436903 
L 144 207.903105 
L 152.228571 220.719768 
L 160.457143 214.344441 
L 168.685714 198.507206 
L 176.914286 180.001712 
L 185.142857 152.242947 
L 193.371429 139.314587 
L 201.6 142.24768 
L 209.828571 154.504287 
L 218.057143 165.324148 
L 226.285714 161.048102 
L 234.514286 159.093297 
L 242.742857 165.279954 
L 250.971429 169.068604 
L 259.2 172.298498 
L 267.428571 173.81121 
L 275.657143 172.881498 
L 283.885714 166.876531 
L 292.114286 162.678677 
L 300.342857 168.808196 
L 308.571429 173.551312 
L 316.8 172.656364 
L 325.028571 173.499725 
L 333.257143 177.090627 
L 341.485714 188.918843 
L 349.714286 197.130326 
L 357.942857 200.502212 
L 366.171429 198.286477 
L 374.4 194.699028 
L 382.628571 189.774841 
L 390.857143 188.87568 
L 399.085714 194.107231 
L 407.314286 204.772454 
L 415.542857 210.980458 
L 423.771429 208.808323 
L 432 207.086105 
L 440.228571 196.949999 
L 448.457143 187.731807 
L 456.685714 181.586382 
L 464.914286 174.310783 
L 473.142857 162.45242 
L 481.371429 152.435247 
L 489.6 154.969921 
" clip-path="url(#p0909d8a295)" style="fill: none; stroke: #00ced1; stroke-opacity: 0.2; stroke-width: 1.5; stroke-linecap: square"/>
   </g>
   <g id="line2d_22">
    <path d="M 86.4 200.897913 
L 94.628571 206.315182 
L 102.857143 215.189858 
L 111.085714 220.907028 
L 119.314286 225.567443 
L 127.542857 217.540402 
L 135.771429 200.785215 
L 144 190.923916 
L 152.228571 182.658786 
L 160.457143 168.860748 
L 168.685714 164.178913 
L 176.914286 164.906587 
L 185.142857 171.534673 
L 193.371429 183.167606 
L 201.6 171.826821 
L 209.828571 167.903394 
L 218.057143 176.639004 
L 226.285714 182.479899 
L 234.514286 190.63783 
L 242.742857 203.93209 
L 250.971429 212.004994 
L 259.2 225.743405 
L 267.428571 233.87255 
L 275.657143 232.932207 
L 283.885714 223.446363 
L 292.114286 216.541456 
L 300.342857 217.200409 
L 308.571429 221.432088 
L 316.8 213.371654 
L 325.028571 214.666378 
L 333.257143 224.73605 
L 341.485714 233.51589 
L 349.714286 235.618857 
L 357.942857 233.325056 
L 366.171429 232.314815 
L 374.4 232.027207 
L 382.628571 232.415784 
L 390.857143 229.561226 
L 399.085714 224.699036 
L 407.314286 212.079477 
L 415.542857 202.017219 
L 423.771429 189.454343 
L 432 179.913823 
L 440.228571 181.341925 
L 448.457143 185.745607 
L 456.685714 191.999506 
L 464.914286 196.467787 
L 473.142857 208.818193 
L 481.371429 222.249286 
L 489.6 229.584832 
" clip-path="url(#p0909d8a295)" style="fill: none; stroke: #00ced1; stroke-opacity: 0.2; stroke-width: 1.5; stroke-linecap: square"/>
   </g>
   <g id="line2d_23">
    <path d="M 86.4 136.919821 
L 94.628571 136.510992 
L 102.857143 124.188969 
L 111.085714 108.159174 
L 119.314286 94.836825 
L 127.542857 80.207373 
L 135.771429 71.537459 
L 144 67.011143 
L 152.228571 68.140963 
L 160.457143 68.725964 
L 168.685714 69.149929 
L 176.914286 72.755943 
L 185.142857 74.620475 
L 193.371429 74.629714 
L 201.6 77.829612 
L 209.828571 83.05764 
L 218.057143 88.18395 
L 226.285714 94.287454 
L 234.514286 99.820819 
L 242.742857 99.702792 
L 250.971429 97.199745 
L 259.2 97.765518 
L 267.428571 100.153684 
L 275.657143 100.982903 
L 283.885714 102.820972 
L 292.114286 108.106898 
L 300.342857 114.049563 
L 308.571429 114.294615 
L 316.8 112.087545 
L 325.028571 113.514801 
L 333.257143 116.073572 
L 341.485714 115.077228 
L 349.714286 115.089817 
L 357.942857 110.884754 
L 366.171429 111.394838 
L 374.4 112.041051 
L 382.628571 110.516791 
L 390.857143 110.310572 
L 399.085714 110.442689 
L 407.314286 115.487103 
L 415.542857 122.544808 
L 423.771429 127.371841 
L 432 131.620376 
L 440.228571 140.373851 
L 448.457143 145.20392 
L 456.685714 150.78277 
L 464.914286 150.719251 
L 473.142857 149.225103 
L 481.371429 149.41477 
L 489.6 150.365938 
" clip-path="url(#p0909d8a295)" style="fill: none; stroke: #00ced1; stroke-opacity: 0.2; stroke-width: 1.5; stroke-linecap: square"/>
   </g>
   <g id="line2d_24">
    <path d="M 132.7123 -1 
L 135.771429 -0.488431 
L 144 2.176539 
L 152.228571 2.69061 
L 160.457143 9.196754 
L 168.685714 9.067585 
L 176.914286 9.420476 
L 185.142857 10.096754 
L 193.371429 19.935064 
L 201.6 27.106629 
L 209.828571 34.189582 
L 218.057143 40.236631 
L 226.285714 46.03151 
L 234.514286 51.827035 
L 242.742857 52.749023 
L 250.971429 49.834273 
L 259.2 47.153068 
L 267.428571 47.3546 
L 275.657143 49.973865 
L 283.885714 53.746962 
L 292.114286 55.446122 
L 300.342857 56.983373 
L 308.571429 55.423017 
L 316.8 52.003862 
L 325.028571 45.74769 
L 333.257143 46.302001 
L 341.485714 49.67318 
L 349.714286 50.735895 
L 357.942857 52.983478 
L 366.171429 55.703747 
L 374.4 58.117344 
L 382.628571 62.401448 
L 390.857143 64.722678 
L 399.085714 66.016079 
L 407.314286 66.033348 
L 415.542857 66.356506 
L 423.771429 68.207688 
L 432 68.720235 
L 440.228571 68.072676 
L 448.457143 65.519109 
L 456.685714 63.337547 
L 464.914286 64.843959 
L 473.142857 69.319113 
L 481.371429 71.444659 
L 489.6 70.400241 
" clip-path="url(#p0909d8a295)" style="fill: none; stroke: #00ced1; stroke-opacity: 0.2; stroke-width: 1.5; stroke-linecap: square"/>
   </g>
   <g id="line2d_25">
    <path d="M 86.4 185.129126 
L 94.628571 183.545885 
L 102.857143 182.430802 
L 111.085714 179.776031 
L 119.314286 183.388485 
L 127.542857 193.79556 
L 135.771429 199.082675 
L 144 199.772836 
L 152.228571 197.313883 
L 160.457143 192.303783 
L 168.685714 187.141661 
L 176.914286 186.58093 
L 185.142857 185.360664 
L 193.371429 183.017521 
L 201.6 183.696288 
L 209.828571 185.395531 
L 218.057143 186.761954 
L 226.285714 188.465295 
L 234.514286 189.776686 
L 242.742857 188.617974 
L 250.971429 187.037459 
L 259.2 184.128673 
L 267.428571 182.430212 
L 275.657143 182.193865 
L 283.885714 181.712754 
L 292.114286 181.933303 
L 300.342857 182.871661 
L 308.571429 185.241803 
L 316.8 187.860311 
L 325.028571 189.113683 
L 333.257143 186.951531 
L 341.485714 186.376834 
L 349.714286 188.255195 
L 357.942857 189.513396 
L 366.171429 190.951908 
L 374.4 195.514844 
L 382.628571 198.701272 
L 390.857143 199.640446 
L 399.085714 198.161268 
L 407.314286 195.797768 
L 415.542857 195.378209 
L 423.771429 194.591605 
L 432 195.779222 
L 440.228571 198.842203 
L 448.457143 202.853457 
L 456.685714 204.803154 
L 464.914286 207.556045 
L 473.142857 209.169005 
L 481.371429 206.802222 
L 489.6 207.529446 
" clip-path="url(#p0909d8a295)" style="fill: none; stroke: #00ced1; stroke-opacity: 0.2; stroke-width: 1.5; stroke-linecap: square"/>
   </g>
   <g id="line2d_26">
    <path d="M 86.4 150.35845 
L 94.628571 159.02778 
L 102.857143 164.636531 
L 111.085714 172.941777 
L 119.314286 171.209827 
L 127.542857 166.715039 
L 135.771429 159.358415 
L 144 157.587706 
L 152.228571 149.953623 
L 160.457143 146.707957 
L 168.685714 148.892 
L 176.914286 160.56709 
L 185.142857 169.693095 
L 193.371429 178.282496 
L 201.6 182.526883 
L 209.828571 185.39414 
L 218.057143 184.732526 
L 226.285714 186.484248 
L 234.514286 187.724379 
L 242.742857 183.665133 
L 250.971429 180.993857 
L 259.2 169.177467 
L 267.428571 159.294619 
L 275.657143 153.263106 
L 283.885714 154.252289 
L 292.114286 155.82101 
L 300.342857 160.707864 
L 308.571429 160.391454 
L 316.8 152.787547 
L 325.028571 143.894854 
L 333.257143 142.965143 
L 341.485714 157.957354 
L 349.714286 167.535788 
L 357.942857 170.513728 
L 366.171429 167.830268 
L 374.4 162.632589 
L 382.628571 156.333428 
L 390.857143 153.661748 
L 399.085714 149.598774 
L 407.314286 143.973164 
L 415.542857 141.699125 
L 423.771429 142.967729 
L 432 140.818559 
L 440.228571 138.259175 
L 448.457143 139.072958 
L 456.685714 138.24636 
L 464.914286 137.70926 
L 473.142857 144.316941 
L 481.371429 151.828541 
L 489.6 156.523775 
" clip-path="url(#p0909d8a295)" style="fill: none; stroke: #00ced1; stroke-opacity: 0.2; stroke-width: 1.5; stroke-linecap: square"/>
   </g>
   <g id="line2d_27">
    <path d="M 86.4 104.40021 
L 94.628571 110.461915 
L 102.857143 122.009518 
L 111.085714 120.965992 
L 119.314286 111.053205 
L 127.542857 102.775389 
L 135.771429 90.485773 
L 144 84.650907 
L 152.228571 87.705138 
L 160.457143 94.803879 
L 168.685714 105.292682 
L 176.914286 106.621723 
L 185.142857 107.241174 
L 193.371429 102.329461 
L 201.6 101.752137 
L 209.828571 101.134977 
L 218.057143 100.667994 
L 226.285714 104.425018 
L 234.514286 112.550751 
L 242.742857 113.356674 
L 250.971429 113.093734 
L 259.2 112.113816 
L 267.428571 108.05441 
L 275.657143 108.950553 
L 283.885714 107.75151 
L 292.114286 107.603808 
L 300.342857 108.334399 
L 308.571429 103.105532 
L 316.8 95.859321 
L 325.028571 90.924379 
L 333.257143 90.805729 
L 341.485714 88.567814 
L 349.714286 90.948174 
L 357.942857 95.080857 
L 366.171429 94.060467 
L 374.4 92.265305 
L 382.628571 88.233921 
L 390.857143 84.563769 
L 399.085714 86.121711 
L 407.314286 91.794835 
L 415.542857 97.932607 
L 423.771429 101.599843 
L 432 105.632999 
L 440.228571 108.073664 
L 448.457143 111.890092 
L 456.685714 116.344415 
L 464.914286 123.730516 
L 473.142857 129.76045 
L 481.371429 126.207868 
L 489.6 123.437811 
" clip-path="url(#p0909d8a295)" style="fill: none; stroke: #00ced1; stroke-opacity: 0.2; stroke-width: 1.5; stroke-linecap: square"/>
   </g>
   <g id="line2d_28">
    <path d="M 167.04 241.92 
L 167.04 40.32 
" clip-path="url(#p0909d8a295)" style="fill: none; stroke-dasharray: 5.55,2.4; stroke-dashoffset: 0; stroke: #000000; stroke-width: 1.5"/>
   </g>
   <g id="line2d_29">
    <path d="M 86.4 141.12 
L 489.6 141.12 
" clip-path="url(#p0909d8a295)" style="fill: none; stroke-dasharray: 5.55,2.4; stroke-dashoffset: 0; stroke: #000000; stroke-width: 1.5"/>
   </g>
   <g id="patch_3">
    <path d="M 82.4 241.92 
L 82.4 40.32 
" style="fill: none; stroke: #000000; stroke-width: 0.8; stroke-linejoin: miter; stroke-linecap: square"/>
   </g>
   <g id="patch_4">
    <path d="M 86.4 245.92 
L 489.6 245.92 
" style="fill: none; stroke: #000000; stroke-width: 0.8; stroke-linejoin: miter; stroke-linecap: square"/>
   </g>
   <g id="text_11">
    <!-- all depths -->
    <g transform="translate(268.328125 34.32) scale(0.08 -0.08)">
     <defs>
      <path id="DejaVuSans-6c" d="M 603 4863 
L 1178 4863 
L 1178 0 
L 603 0 
L 603 4863 
z
" transform="scale(0.015625)"/>
      <path id="DejaVuSans-64" d="M 2906 2969 
L 2906 4863 
L 3481 4863 
L 3481 0 
L 2906 0 
L 2906 525 
Q 2725 213 2448 61 
Q 2172 -91 1784 -91 
Q 1150 -91 751 415 
Q 353 922 353 1747 
Q 353 2572 751 3078 
Q 1150 3584 1784 3584 
Q 2172 3584 2448 3432 
Q 2725 3281 2906 2969 
z
M 947 1747 
Q 947 1113 1208 752 
Q 1469 391 1925 391 
Q 2381 391 2643 752 
Q 2906 1113 2906 1747 
Q 2906 2381 2643 2742 
Q 2381 3103 1925 3103 
Q 1469 3103 1208 2742 
Q 947 2381 947 1747 
z
" transform="scale(0.015625)"/>
      <path id="DejaVuSans-70" d="M 1159 525 
L 1159 -1331 
L 581 -1331 
L 581 3500 
L 1159 3500 
L 1159 2969 
Q 1341 3281 1617 3432 
Q 1894 3584 2278 3584 
Q 2916 3584 3314 3078 
Q 3713 2572 3713 1747 
Q 3713 922 3314 415 
Q 2916 -91 2278 -91 
Q 1894 -91 1617 61 
Q 1341 213 1159 525 
z
M 3116 1747 
Q 3116 2381 2855 2742 
Q 2594 3103 2138 3103 
Q 1681 3103 1420 2742 
Q 1159 2381 1159 1747 
Q 1159 1113 1420 752 
Q 1681 391 2138 391 
Q 2594 391 2855 752 
Q 3116 1113 3116 1747 
z
" transform="scale(0.015625)"/>
      <path id="DejaVuSans-74" d="M 1172 4494 
L 1172 3500 
L 2356 3500 
L 2356 3053 
L 1172 3053 
L 1172 1153 
Q 1172 725 1289 603 
Q 1406 481 1766 481 
L 2356 481 
L 2356 0 
L 1766 0 
Q 1100 0 847 248 
Q 594 497 594 1153 
L 594 3053 
L 172 3053 
L 172 3500 
L 594 3500 
L 594 4494 
L 1172 4494 
z
" transform="scale(0.015625)"/>
      <path id="DejaVuSans-73" d="M 2834 3397 
L 2834 2853 
Q 2591 2978 2328 3040 
Q 2066 3103 1784 3103 
Q 1356 3103 1142 2972 
Q 928 2841 928 2578 
Q 928 2378 1081 2264 
Q 1234 2150 1697 2047 
L 1894 2003 
Q 2506 1872 2764 1633 
Q 3022 1394 3022 966 
Q 3022 478 2636 193 
Q 2250 -91 1575 -91 
Q 1294 -91 989 -36 
Q 684 19 347 128 
L 347 722 
Q 666 556 975 473 
Q 1284 391 1588 391 
Q 1994 391 2212 530 
Q 2431 669 2431 922 
Q 2431 1156 2273 1281 
Q 2116 1406 1581 1522 
L 1381 1569 
Q 847 1681 609 1914 
Q 372 2147 372 2553 
Q 372 3047 722 3315 
Q 1072 3584 1716 3584 
Q 2034 3584 2315 3537 
Q 2597 3491 2834 3397 
z
" transform="scale(0.015625)"/>
     </defs>
     <use xlink:href="#DejaVuSans-61"/>
     <use xlink:href="#DejaVuSans-6c" x="61.279297"/>
     <use xlink:href="#DejaVuSans-6c" x="89.0625"/>
     <use xlink:href="#DejaVuSans-20" x="116.845703"/>
     <use xlink:href="#DejaVuSans-64" x="148.632812"/>
     <use xlink:href="#DejaVuSans-65" x="212.109375"/>
     <use xlink:href="#DejaVuSans-70" x="273.632812"/>
     <use xlink:href="#DejaVuSans-74" x="337.109375"/>
     <use xlink:href="#DejaVuSans-68" x="376.318359"/>
     <use xlink:href="#DejaVuSans-73" x="439.697266"/>
    </g>
   </g>
   <g id="legend_1">
    <g id="patch_5">
     <path d="M 93.4 63.27625 
L 255.85 63.27625 
Q 257.85 63.27625 257.85 61.27625 
L 257.85 47.32 
Q 257.85 45.32 255.85 45.32 
L 93.4 45.32 
Q 91.4 45.32 91.4 47.32 
L 91.4 61.27625 
Q 91.4 63.27625 93.4 63.27625 
z
" style="fill: #ffffff; opacity: 0.8; stroke: #cccccc; stroke-linejoin: miter"/>
    </g>
    <g id="line2d_30">
     <path d="M 95.4 53.418437 
L 105.4 53.418437 
L 115.4 53.418437 
" style="fill: none; stroke: #00ced1; stroke-width: 1.5; stroke-linecap: square"/>
    </g>
    <g id="text_12">
     <!-- odss_gPPI_superficial_V23 -->
     <g transform="translate(123.4 56.918437) scale(0.1 -0.1)">
      <defs>
       <path id="DejaVuSans-6f" d="M 1959 3097 
Q 1497 3097 1228 2736 
Q 959 2375 959 1747 
Q 959 1119 1226 758 
Q 1494 397 1959 397 
Q 2419 397 2687 759 
Q 2956 1122 2956 1747 
Q 2956 2369 2687 2733 
Q 2419 3097 1959 3097 
z
M 1959 3584 
Q 2709 3584 3137 3096 
Q 3566 2609 3566 1747 
Q 3566 888 3137 398 
Q 2709 -91 1959 -91 
Q 1206 -91 779 398 
Q 353 888 353 1747 
Q 353 2609 779 3096 
Q 1206 3584 1959 3584 
z
" transform="scale(0.015625)"/>
       <path id="DejaVuSans-5f" d="M 3263 -1063 
L 3263 -1509 
L -63 -1509 
L -63 -1063 
L 3263 -1063 
z
" transform="scale(0.015625)"/>
       <path id="DejaVuSans-50" d="M 1259 4147 
L 1259 2394 
L 2053 2394 
Q 2494 2394 2734 2622 
Q 2975 2850 2975 3272 
Q 2975 3691 2734 3919 
Q 2494 4147 2053 4147 
L 1259 4147 
z
M 628 4666 
L 2053 4666 
Q 2838 4666 3239 4311 
Q 3641 3956 3641 3272 
Q 3641 2581 3239 2228 
Q 2838 1875 2053 1875 
L 1259 1875 
L 1259 0 
L 628 0 
L 628 4666 
z
" transform="scale(0.015625)"/>
       <path id="DejaVuSans-49" d="M 628 4666 
L 1259 4666 
L 1259 0 
L 628 0 
L 628 4666 
z
" transform="scale(0.015625)"/>
       <path id="DejaVuSans-75" d="M 544 1381 
L 544 3500 
L 1119 3500 
L 1119 1403 
Q 1119 906 1312 657 
Q 1506 409 1894 409 
Q 2359 409 2629 706 
Q 2900 1003 2900 1516 
L 2900 3500 
L 3475 3500 
L 3475 0 
L 2900 0 
L 2900 538 
Q 2691 219 2414 64 
Q 2138 -91 1772 -91 
Q 1169 -91 856 284 
Q 544 659 544 1381 
z
M 1991 3584 
L 1991 3584 
z
" transform="scale(0.015625)"/>
       <path id="DejaVuSans-72" d="M 2631 2963 
Q 2534 3019 2420 3045 
Q 2306 3072 2169 3072 
Q 1681 3072 1420 2755 
Q 1159 2438 1159 1844 
L 1159 0 
L 581 0 
L 581 3500 
L 1159 3500 
L 1159 2956 
Q 1341 3275 1631 3429 
Q 1922 3584 2338 3584 
Q 2397 3584 2469 3576 
Q 2541 3569 2628 3553 
L 2631 2963 
z
" transform="scale(0.015625)"/>
       <path id="DejaVuSans-66" d="M 2375 4863 
L 2375 4384 
L 1825 4384 
Q 1516 4384 1395 4259 
Q 1275 4134 1275 3809 
L 1275 3500 
L 2222 3500 
L 2222 3053 
L 1275 3053 
L 1275 0 
L 697 0 
L 697 3053 
L 147 3053 
L 147 3500 
L 697 3500 
L 697 3744 
Q 697 4328 969 4595 
Q 1241 4863 1831 4863 
L 2375 4863 
z
" transform="scale(0.015625)"/>
       <path id="DejaVuSans-69" d="M 603 3500 
L 1178 3500 
L 1178 0 
L 603 0 
L 603 3500 
z
M 603 4863 
L 1178 4863 
L 1178 4134 
L 603 4134 
L 603 4863 
z
" transform="scale(0.015625)"/>
       <path id="DejaVuSans-56" d="M 1831 0 
L 50 4666 
L 709 4666 
L 2188 738 
L 3669 4666 
L 4325 4666 
L 2547 0 
L 1831 0 
z
" transform="scale(0.015625)"/>
       <path id="DejaVuSans-33" d="M 2597 2516 
Q 3050 2419 3304 2112 
Q 3559 1806 3559 1356 
Q 3559 666 3084 287 
Q 2609 -91 1734 -91 
Q 1441 -91 1130 -33 
Q 819 25 488 141 
L 488 750 
Q 750 597 1062 519 
Q 1375 441 1716 441 
Q 2309 441 2620 675 
Q 2931 909 2931 1356 
Q 2931 1769 2642 2001 
Q 2353 2234 1838 2234 
L 1294 2234 
L 1294 2753 
L 1863 2753 
Q 2328 2753 2575 2939 
Q 2822 3125 2822 3475 
Q 2822 3834 2567 4026 
Q 2313 4219 1838 4219 
Q 1578 4219 1281 4162 
Q 984 4106 628 3988 
L 628 4550 
Q 988 4650 1302 4700 
Q 1616 4750 1894 4750 
Q 2613 4750 3031 4423 
Q 3450 4097 3450 3541 
Q 3450 3153 3228 2886 
Q 3006 2619 2597 2516 
z
" transform="scale(0.015625)"/>
      </defs>
      <use xlink:href="#DejaVuSans-6f"/>
      <use xlink:href="#DejaVuSans-64" x="61.181641"/>
      <use xlink:href="#DejaVuSans-73" x="124.658203"/>
      <use xlink:href="#DejaVuSans-73" x="176.757812"/>
      <use xlink:href="#DejaVuSans-5f" x="228.857422"/>
      <use xlink:href="#DejaVuSans-67" x="278.857422"/>
      <use xlink:href="#DejaVuSans-50" x="342.333984"/>
      <use xlink:href="#DejaVuSans-50" x="402.636719"/>
      <use xlink:href="#DejaVuSans-49" x="462.939453"/>
      <use xlink:href="#DejaVuSans-5f" x="492.431641"/>
      <use xlink:href="#DejaVuSans-73" x="542.431641"/>
      <use xlink:href="#DejaVuSans-75" x="594.53125"/>
      <use xlink:href="#DejaVuSans-70" x="657.910156"/>
      <use xlink:href="#DejaVuSans-65" x="721.386719"/>
      <use xlink:href="#DejaVuSans-72" x="782.910156"/>
      <use xlink:href="#DejaVuSans-66" x="824.023438"/>
      <use xlink:href="#DejaVuSans-69" x="859.228516"/>
      <use xlink:href="#DejaVuSans-63" x="887.011719"/>
      <use xlink:href="#DejaVuSans-69" x="941.992188"/>
      <use xlink:href="#DejaVuSans-61" x="969.775391"/>
      <use xlink:href="#DejaVuSans-6c" x="1031.054688"/>
      <use xlink:href="#DejaVuSans-5f" x="1058.837891"/>
      <use xlink:href="#DejaVuSans-56" x="1108.837891"/>
      <use xlink:href="#DejaVuSans-32" x="1177.246094"/>
      <use xlink:href="#DejaVuSans-33" x="1240.869141"/>
     </g>
    </g>
   </g>
  </g>
  <g id="axes_2">
   <g id="patch_6">
    <path d="M 86.4 443.52 
L 489.6 443.52 
L 489.6 292.32 
L 86.4 292.32 
z
" style="fill: #ffffff"/>
   </g>
   <g id="patch_7">
    <path d="M 90.432 367.92 
L 163.008 367.92 
L 163.008 370.06678 
L 90.432 370.06678 
z
" clip-path="url(#pc1669df52d)" style="fill: #00ced1; opacity: 0.6"/>
   </g>
   <g id="patch_8">
    <path d="M 171.072 367.92 
L 243.648 367.92 
L 243.648 335.591984 
L 171.072 335.591984 
z
" clip-path="url(#pc1669df52d)" style="fill: #00ced1; opacity: 0.6"/>
   </g>
   <g id="patch_9">
    <path d="M 251.712 367.92 
L 324.288 367.92 
L 324.288 367.634319 
L 251.712 367.634319 
z
" clip-path="url(#pc1669df52d)" style="fill: #00ced1; opacity: 0.6"/>
   </g>
   <g id="patch_10">
    <path d="M 332.352 367.92 
L 404.928 367.92 
L 404.928 372.86702 
L 332.352 372.86702 
z
" clip-path="url(#pc1669df52d)" style="fill: #00ced1; opacity: 0.6"/>
   </g>
   <g id="patch_11">
    <path d="M 412.992 367.92 
L 485.568 367.92 
L 485.568 372.365154 
L 412.992 372.365154 
z
" clip-path="url(#pc1669df52d)" style="fill: #00ced1; opacity: 0.6"/>
   </g>
   <g id="matplotlib.axis_3">
    <g id="xtick_7">
     <g id="line2d_31">
      <g>
       <use xlink:href="#m2c4936ea50" x="86.4" y="447.52" style="stroke: #000000; stroke-width: 0.8"/>
      </g>
     </g>
     <g id="text_13">
      <!-- 0 -->
      <g transform="translate(83.21875 462.118438) scale(0.1 -0.1)">
       <use xlink:href="#DejaVuSans-30"/>
      </g>
     </g>
    </g>
    <g id="xtick_8">
     <g id="line2d_32">
      <g>
       <use xlink:href="#m2c4936ea50" x="167.04" y="447.52" style="stroke: #000000; stroke-width: 0.8"/>
      </g>
     </g>
     <g id="text_14">
      <!-- 1 -->
      <g transform="translate(163.85875 462.118438) scale(0.1 -0.1)">
       <use xlink:href="#DejaVuSans-31"/>
      </g>
     </g>
    </g>
    <g id="xtick_9">
     <g id="line2d_33">
      <g>
       <use xlink:href="#m2c4936ea50" x="247.68" y="447.52" style="stroke: #000000; stroke-width: 0.8"/>
      </g>
     </g>
     <g id="text_15">
      <!-- 2 -->
      <g transform="translate(244.49875 462.118438) scale(0.1 -0.1)">
       <use xlink:href="#DejaVuSans-32"/>
      </g>
     </g>
    </g>
    <g id="xtick_10">
     <g id="line2d_34">
      <g>
       <use xlink:href="#m2c4936ea50" x="328.32" y="447.52" style="stroke: #000000; stroke-width: 0.8"/>
      </g>
     </g>
     <g id="text_16">
      <!-- 3 -->
      <g transform="translate(325.13875 462.118438) scale(0.1 -0.1)">
       <use xlink:href="#DejaVuSans-33"/>
      </g>
     </g>
    </g>
    <g id="xtick_11">
     <g id="line2d_35">
      <g>
       <use xlink:href="#m2c4936ea50" x="408.96" y="447.52" style="stroke: #000000; stroke-width: 0.8"/>
      </g>
     </g>
     <g id="text_17">
      <!-- 4 -->
      <g transform="translate(405.77875 462.118438) scale(0.1 -0.1)">
       <defs>
        <path id="DejaVuSans-34" d="M 2419 4116 
L 825 1625 
L 2419 1625 
L 2419 4116 
z
M 2253 4666 
L 3047 4666 
L 3047 1625 
L 3713 1625 
L 3713 1100 
L 3047 1100 
L 3047 0 
L 2419 0 
L 2419 1100 
L 313 1100 
L 313 1709 
L 2253 4666 
z
" transform="scale(0.015625)"/>
       </defs>
       <use xlink:href="#DejaVuSans-34"/>
      </g>
     </g>
    </g>
    <g id="xtick_12">
     <g id="line2d_36">
      <g>
       <use xlink:href="#m2c4936ea50" x="489.6" y="447.52" style="stroke: #000000; stroke-width: 0.8"/>
      </g>
     </g>
     <g id="text_18">
      <!-- 5 -->
      <g transform="translate(486.41875 462.118438) scale(0.1 -0.1)">
       <use xlink:href="#DejaVuSans-35"/>
      </g>
     </g>
    </g>
    <g id="text_19">
     <!-- relative distance from ROI center ($\sigma$) -->
     <g transform="translate(214.48 474.276875) scale(0.08 -0.08)">
      <defs>
       <path id="DejaVuSans-76" d="M 191 3500 
L 800 3500 
L 1894 563 
L 2988 3500 
L 3597 3500 
L 2284 0 
L 1503 0 
L 191 3500 
z
" transform="scale(0.015625)"/>
       <path id="DejaVuSans-6d" d="M 3328 2828 
Q 3544 3216 3844 3400 
Q 4144 3584 4550 3584 
Q 5097 3584 5394 3201 
Q 5691 2819 5691 2113 
L 5691 0 
L 5113 0 
L 5113 2094 
Q 5113 2597 4934 2840 
Q 4756 3084 4391 3084 
Q 3944 3084 3684 2787 
Q 3425 2491 3425 1978 
L 3425 0 
L 2847 0 
L 2847 2094 
Q 2847 2600 2669 2842 
Q 2491 3084 2119 3084 
Q 1678 3084 1418 2786 
Q 1159 2488 1159 1978 
L 1159 0 
L 581 0 
L 581 3500 
L 1159 3500 
L 1159 2956 
Q 1356 3278 1631 3431 
Q 1906 3584 2284 3584 
Q 2666 3584 2933 3390 
Q 3200 3197 3328 2828 
z
" transform="scale(0.015625)"/>
       <path id="DejaVuSans-52" d="M 2841 2188 
Q 3044 2119 3236 1894 
Q 3428 1669 3622 1275 
L 4263 0 
L 3584 0 
L 2988 1197 
Q 2756 1666 2539 1819 
Q 2322 1972 1947 1972 
L 1259 1972 
L 1259 0 
L 628 0 
L 628 4666 
L 2053 4666 
Q 2853 4666 3247 4331 
Q 3641 3997 3641 3322 
Q 3641 2881 3436 2590 
Q 3231 2300 2841 2188 
z
M 1259 4147 
L 1259 2491 
L 2053 2491 
Q 2509 2491 2742 2702 
Q 2975 2913 2975 3322 
Q 2975 3731 2742 3939 
Q 2509 4147 2053 4147 
L 1259 4147 
z
" transform="scale(0.015625)"/>
       <path id="DejaVuSans-28" d="M 1984 4856 
Q 1566 4138 1362 3434 
Q 1159 2731 1159 2009 
Q 1159 1288 1364 580 
Q 1569 -128 1984 -844 
L 1484 -844 
Q 1016 -109 783 600 
Q 550 1309 550 2009 
Q 550 2706 781 3412 
Q 1013 4119 1484 4856 
L 1984 4856 
z
" transform="scale(0.015625)"/>
       <path id="DejaVuSans-Oblique-3c3" d="M 2219 3044 
Q 1744 3044 1422 2700 
Q 1081 2341 969 1747 
Q 844 1119 1044 756 
Q 1241 397 1706 397 
Q 2166 397 2503 759 
Q 2844 1122 2966 1747 
Q 3075 2319 2881 2700 
Q 2700 3044 2219 3044 
z
M 2309 3503 
L 4219 3500 
L 4106 2925 
L 3463 2925 
Q 3706 2438 3575 1747 
Q 3406 888 2884 400 
Q 2359 -91 1609 -91 
Q 856 -91 525 400 
Q 194 888 363 1747 
Q 528 2609 1050 3097 
Q 1484 3503 2309 3503 
z
" transform="scale(0.015625)"/>
       <path id="DejaVuSans-29" d="M 513 4856 
L 1013 4856 
Q 1481 4119 1714 3412 
Q 1947 2706 1947 2009 
Q 1947 1309 1714 600 
Q 1481 -109 1013 -844 
L 513 -844 
Q 928 -128 1133 580 
Q 1338 1288 1338 2009 
Q 1338 2731 1133 3434 
Q 928 4138 513 4856 
z
" transform="scale(0.015625)"/>
      </defs>
      <use xlink:href="#DejaVuSans-72" transform="translate(0 0.015625)"/>
      <use xlink:href="#DejaVuSans-65" transform="translate(41.113281 0.015625)"/>
      <use xlink:href="#DejaVuSans-6c" transform="translate(102.636719 0.015625)"/>
      <use xlink:href="#DejaVuSans-61" transform="translate(130.419922 0.015625)"/>
      <use xlink:href="#DejaVuSans-74" transform="translate(191.699219 0.015625)"/>
      <use xlink:href="#DejaVuSans-69" transform="translate(230.908203 0.015625)"/>
      <use xlink:href="#DejaVuSans-76" transform="translate(258.691406 0.015625)"/>
      <use xlink:href="#DejaVuSans-65" transform="translate(317.871094 0.015625)"/>
      <use xlink:href="#DejaVuSans-20" transform="translate(379.394531 0.015625)"/>
      <use xlink:href="#DejaVuSans-64" transform="translate(411.181641 0.015625)"/>
      <use xlink:href="#DejaVuSans-69" transform="translate(474.658203 0.015625)"/>
      <use xlink:href="#DejaVuSans-73" transform="translate(502.441406 0.015625)"/>
      <use xlink:href="#DejaVuSans-74" transform="translate(554.541016 0.015625)"/>
      <use xlink:href="#DejaVuSans-61" transform="translate(593.75 0.015625)"/>
      <use xlink:href="#DejaVuSans-6e" transform="translate(655.029297 0.015625)"/>
      <use xlink:href="#DejaVuSans-63" transform="translate(718.408203 0.015625)"/>
      <use xlink:href="#DejaVuSans-65" transform="translate(773.388672 0.015625)"/>
      <use xlink:href="#DejaVuSans-20" transform="translate(834.912109 0.015625)"/>
      <use xlink:href="#DejaVuSans-66" transform="translate(866.699219 0.015625)"/>
      <use xlink:href="#DejaVuSans-72" transform="translate(901.904297 0.015625)"/>
      <use xlink:href="#DejaVuSans-6f" transform="translate(943.017578 0.015625)"/>
      <use xlink:href="#DejaVuSans-6d" transform="translate(1004.199219 0.015625)"/>
      <use xlink:href="#DejaVuSans-20" transform="translate(1101.611328 0.015625)"/>
      <use xlink:href="#DejaVuSans-52" transform="translate(1133.398438 0.015625)"/>
      <use xlink:href="#DejaVuSans-4f" transform="translate(1202.880859 0.015625)"/>
      <use xlink:href="#DejaVuSans-49" transform="translate(1281.591797 0.015625)"/>
      <use xlink:href="#DejaVuSans-20" transform="translate(1311.083984 0.015625)"/>
      <use xlink:href="#DejaVuSans-63" transform="translate(1342.871094 0.015625)"/>
      <use xlink:href="#DejaVuSans-65" transform="translate(1397.851562 0.015625)"/>
      <use xlink:href="#DejaVuSans-6e" transform="translate(1459.375 0.015625)"/>
      <use xlink:href="#DejaVuSans-74" transform="translate(1522.753906 0.015625)"/>
      <use xlink:href="#DejaVuSans-65" transform="translate(1561.962891 0.015625)"/>
      <use xlink:href="#DejaVuSans-72" transform="translate(1623.486328 0.015625)"/>
      <use xlink:href="#DejaVuSans-20" transform="translate(1664.599609 0.015625)"/>
      <use xlink:href="#DejaVuSans-28" transform="translate(1696.386719 0.015625)"/>
      <use xlink:href="#DejaVuSans-Oblique-3c3" transform="translate(1735.400391 0.015625)"/>
      <use xlink:href="#DejaVuSans-29" transform="translate(1798.779297 0.015625)"/>
     </g>
    </g>
   </g>
   <g id="matplotlib.axis_4">
    <g id="ytick_10">
     <g id="line2d_37">
      <g>
       <use xlink:href="#me364fa6ea1" x="82.4" y="443.52" style="stroke: #000000; stroke-width: 0.8"/>
      </g>
     </g>
     <g id="text_20">
      <!-- −1.0 -->
      <g transform="translate(51.117187 447.319219) scale(0.1 -0.1)">
       <use xlink:href="#DejaVuSans-2212"/>
       <use xlink:href="#DejaVuSans-31" x="83.789062"/>
       <use xlink:href="#DejaVuSans-2e" x="147.412109"/>
       <use xlink:href="#DejaVuSans-30" x="179.199219"/>
      </g>
     </g>
    </g>
    <g id="ytick_11">
     <g id="line2d_38">
      <g>
       <use xlink:href="#me364fa6ea1" x="82.4" y="405.72" style="stroke: #000000; stroke-width: 0.8"/>
      </g>
     </g>
     <g id="text_21">
      <!-- −0.5 -->
      <g transform="translate(51.117187 409.519219) scale(0.1 -0.1)">
       <use xlink:href="#DejaVuSans-2212"/>
       <use xlink:href="#DejaVuSans-30" x="83.789062"/>
       <use xlink:href="#DejaVuSans-2e" x="147.412109"/>
       <use xlink:href="#DejaVuSans-35" x="179.199219"/>
      </g>
     </g>
    </g>
    <g id="ytick_12">
     <g id="line2d_39">
      <g>
       <use xlink:href="#me364fa6ea1" x="82.4" y="367.92" style="stroke: #000000; stroke-width: 0.8"/>
      </g>
     </g>
     <g id="text_22">
      <!-- 0.0 -->
      <g transform="translate(59.496875 371.719219) scale(0.1 -0.1)">
       <use xlink:href="#DejaVuSans-30"/>
       <use xlink:href="#DejaVuSans-2e" x="63.623047"/>
       <use xlink:href="#DejaVuSans-30" x="95.410156"/>
      </g>
     </g>
    </g>
    <g id="ytick_13">
     <g id="line2d_40">
      <g>
       <use xlink:href="#me364fa6ea1" x="82.4" y="330.12" style="stroke: #000000; stroke-width: 0.8"/>
      </g>
     </g>
     <g id="text_23">
      <!-- 0.5 -->
      <g transform="translate(59.496875 333.919219) scale(0.1 -0.1)">
       <use xlink:href="#DejaVuSans-30"/>
       <use xlink:href="#DejaVuSans-2e" x="63.623047"/>
       <use xlink:href="#DejaVuSans-35" x="95.410156"/>
      </g>
     </g>
    </g>
    <g id="ytick_14">
     <g id="line2d_41">
      <g>
       <use xlink:href="#me364fa6ea1" x="82.4" y="292.32" style="stroke: #000000; stroke-width: 0.8"/>
      </g>
     </g>
     <g id="text_24">
      <!-- 1.0 -->
      <g transform="translate(59.496875 296.119219) scale(0.1 -0.1)">
       <use xlink:href="#DejaVuSans-31"/>
       <use xlink:href="#DejaVuSans-2e" x="63.623047"/>
       <use xlink:href="#DejaVuSans-30" x="95.410156"/>
      </g>
     </g>
    </g>
    <g id="text_25">
     <!-- Binned Avg -->
     <g transform="translate(45.453437 390.525625) rotate(-90) scale(0.08 -0.08)">
      <defs>
       <path id="DejaVuSans-41" d="M 2188 4044 
L 1331 1722 
L 3047 1722 
L 2188 4044 
z
M 1831 4666 
L 2547 4666 
L 4325 0 
L 3669 0 
L 3244 1197 
L 1141 1197 
L 716 0 
L 50 0 
L 1831 4666 
z
" transform="scale(0.015625)"/>
      </defs>
      <use xlink:href="#DejaVuSans-42"/>
      <use xlink:href="#DejaVuSans-69" x="68.603516"/>
      <use xlink:href="#DejaVuSans-6e" x="96.386719"/>
      <use xlink:href="#DejaVuSans-6e" x="159.765625"/>
      <use xlink:href="#DejaVuSans-65" x="223.144531"/>
      <use xlink:href="#DejaVuSans-64" x="284.667969"/>
      <use xlink:href="#DejaVuSans-20" x="348.144531"/>
      <use xlink:href="#DejaVuSans-41" x="379.931641"/>
      <use xlink:href="#DejaVuSans-76" x="442.464844"/>
      <use xlink:href="#DejaVuSans-67" x="501.644531"/>
     </g>
    </g>
   </g>
   <g id="LineCollection_1">
    <path d="M 126.72 405.23091 
L 126.72 334.90265 
" clip-path="url(#pc1669df52d)" style="fill: none; stroke: #000000; stroke-width: 1.5"/>
    <path d="M 207.36 358.910613 
L 207.36 312.273356 
" clip-path="url(#pc1669df52d)" style="fill: none; stroke: #000000; stroke-width: 1.5"/>
    <path d="M 288 387.813609 
L 288 347.455028 
" clip-path="url(#pc1669df52d)" style="fill: none; stroke: #000000; stroke-width: 1.5"/>
    <path d="M 368.64 395.018232 
L 368.64 350.715808 
" clip-path="url(#pc1669df52d)" style="fill: none; stroke: #000000; stroke-width: 1.5"/>
    <path d="M 449.28 389.221294 
L 449.28 355.509014 
" clip-path="url(#pc1669df52d)" style="fill: none; stroke: #000000; stroke-width: 1.5"/>
   </g>
   <g id="line2d_42">
    <defs>
     <path id="me2f38b474a" d="M 5 0 
L -5 -0 
" style="stroke: #000000"/>
    </defs>
    <g clip-path="url(#pc1669df52d)">
     <use xlink:href="#me2f38b474a" x="126.72" y="405.23091" style="stroke: #000000"/>
     <use xlink:href="#me2f38b474a" x="207.36" y="358.910613" style="stroke: #000000"/>
     <use xlink:href="#me2f38b474a" x="288" y="387.813609" style="stroke: #000000"/>
     <use xlink:href="#me2f38b474a" x="368.64" y="395.018232" style="stroke: #000000"/>
     <use xlink:href="#me2f38b474a" x="449.28" y="389.221294" style="stroke: #000000"/>
    </g>
   </g>
   <g id="line2d_43">
    <g clip-path="url(#pc1669df52d)">
     <use xlink:href="#me2f38b474a" x="126.72" y="334.90265" style="stroke: #000000"/>
     <use xlink:href="#me2f38b474a" x="207.36" y="312.273356" style="stroke: #000000"/>
     <use xlink:href="#me2f38b474a" x="288" y="347.455028" style="stroke: #000000"/>
     <use xlink:href="#me2f38b474a" x="368.64" y="350.715808" style="stroke: #000000"/>
     <use xlink:href="#me2f38b474a" x="449.28" y="355.509014" style="stroke: #000000"/>
    </g>
   </g>
   <g id="line2d_44">
    <path d="M 86.4 367.92 
L 489.6 367.92 
" clip-path="url(#pc1669df52d)" style="fill: none; stroke-dasharray: 5.55,2.4; stroke-dashoffset: 0; stroke: #000000; stroke-width: 1.5"/>
   </g>
   <g id="patch_12">
    <path d="M 82.4 443.52 
L 82.4 292.32 
" style="fill: none; stroke: #000000; stroke-width: 0.8; stroke-linejoin: miter; stroke-linecap: square"/>
   </g>
   <g id="patch_13">
    <path d="M 86.4 447.52 
L 489.6 447.52 
" style="fill: none; stroke: #000000; stroke-width: 0.8; stroke-linejoin: miter; stroke-linecap: square"/>
   </g>
  </g>
 </g>
 <defs>
  <clipPath id="p0909d8a295">
   <rect x="86.4" y="40.32" width="403.2" height="201.6"/>
  </clipPath>
  <clipPath id="pc1669df52d">
   <rect x="86.4" y="292.32" width="403.2" height="151.2"/>
  </clipPath>
 </defs>
</svg>
