<?xml version="1.0" encoding="utf-8" standalone="no"?>
<!DOCTYPE svg PUBLIC "-//W3C//DTD SVG 1.1//EN"
  "http://www.w3.org/Graphics/SVG/1.1/DTD/svg11.dtd">
<svg xmlns:xlink="http://www.w3.org/1999/xlink" width="576pt" height="504pt" viewBox="0 0 576 504" xmlns="http://www.w3.org/2000/svg" version="1.1">
 <metadata>
  <rdf:RDF xmlns:dc="http://purl.org/dc/elements/1.1/" xmlns:cc="http://creativecommons.org/ns#" xmlns:rdf="http://www.w3.org/1999/02/22-rdf-syntax-ns#">
   <cc:Work>
    <dc:type rdf:resource="http://purl.org/dc/dcmitype/StillImage"/>
    <dc:date>2026-05-29T13:08:02.650633</dc:date>
    <dc:format>image/svg+xml</dc:format>
    <dc:creator>
     <cc:Agent>
      <dc:title>Matplotlib v3.8.0, https://matplotlib.org/</dc:title>
     </cc:Agent>
    </dc:creator>
   </cc:Work>
  </rdf:RDF>
 </metadata>
 <defs>
  <style type="text/css">*{stroke-linejoin: round; stroke-linecap: butt}</style>
 </defs>
 <g id="figure_1">
  <g id="patch_1">
   <path d="M 0 504 
L 576 504 
L 576 0 
L 0 0 
z
" style="fill: #ffffff"/>
  </g>
  <g id="axes_1">
   <g id="patch_2">
    <path d="M 86.4 241.92 
L 489.6 241.92 
L 489.6 40.32 
L 86.4 40.32 
z
" style="fill: #ffffff"/>
   </g>
   <g id="PolyCollection_1">
    <defs>
     <path id="m13711ef263" d="M 86.4 -384.820208 
L 86.4 -375.264422 
L 94.628571 -374.729745 
L 102.857143 -374.377436 
L 111.085714 -374.227133 
L 119.314286 -374.221181 
L 127.542857 -374.009274 
L 135.771429 -373.773889 
L 144 -373.226761 
L 152.228571 -372.56356 
L 160.457143 -372.155135 
L 168.685714 -371.843695 
L 176.914286 -371.601488 
L 185.142857 -371.689083 
L 193.371429 -371.837569 
L 201.6 -371.851011 
L 209.828571 -371.611995 
L 218.057143 -371.210386 
L 226.285714 -371.023179 
L 234.514286 -370.940991 
L 242.742857 -370.952816 
L 250.971429 -370.719074 
L 259.2 -370.569576 
L 267.428571 -370.334637 
L 275.657143 -370.086133 
L 283.885714 -369.747885 
L 292.114286 -369.820283 
L 300.342857 -369.610688 
L 308.571429 -369.495834 
L 316.8 -369.427406 
L 325.028571 -369.381944 
L 333.257143 -369.260653 
L 341.485714 -368.933445 
L 349.714286 -368.6358 
L 357.942857 -368.30869 
L 366.171429 -368.087388 
L 374.4 -367.942165 
L 382.628571 -367.910269 
L 390.857143 -367.785074 
L 399.085714 -367.622515 
L 407.314286 -367.767497 
L 415.542857 -367.564715 
L 423.771429 -367.084192 
L 432 -366.782323 
L 440.228571 -366.785975 
L 448.457143 -366.761364 
L 456.685714 -366.542323 
L 464.914286 -366.515506 
L 473.142857 -366.45155 
L 481.371429 -366.158874 
L 489.6 -366.103014 
L 489.6 -375.302875 
L 489.6 -375.302875 
L 481.371429 -375.382356 
L 473.142857 -375.796078 
L 464.914286 -376.096656 
L 456.685714 -376.546525 
L 448.457143 -377.070072 
L 440.228571 -377.551172 
L 432 -377.805876 
L 423.771429 -378.288336 
L 415.542857 -378.684884 
L 407.314286 -378.700655 
L 399.085714 -378.403983 
L 390.857143 -378.639462 
L 382.628571 -379.00945 
L 374.4 -379.304629 
L 366.171429 -379.556404 
L 357.942857 -379.687423 
L 349.714286 -379.96412 
L 341.485714 -380.053993 
L 333.257143 -380.249621 
L 325.028571 -380.198847 
L 316.8 -380.176905 
L 308.571429 -380.194962 
L 300.342857 -380.286291 
L 292.114286 -380.546167 
L 283.885714 -380.661627 
L 275.657143 -380.943392 
L 267.428571 -381.183087 
L 259.2 -381.297327 
L 250.971429 -381.435647 
L 242.742857 -381.555028 
L 234.514286 -381.118494 
L 226.285714 -380.459768 
L 218.057143 -380.150836 
L 209.828571 -380.237366 
L 201.6 -380.359999 
L 193.371429 -380.198531 
L 185.142857 -379.73166 
L 176.914286 -379.50525 
L 168.685714 -379.914709 
L 160.457143 -380.471674 
L 152.228571 -381.166081 
L 144 -382.35433 
L 135.771429 -383.107673 
L 127.542857 -383.867608 
L 119.314286 -384.239209 
L 111.085714 -384.14499 
L 102.857143 -384.241688 
L 94.628571 -384.453571 
L 86.4 -384.820208 
z
" style="stroke: #008000; stroke-opacity: 0.4"/>
    </defs>
    <g clip-path="url(#p15e4890091)">
     <use xlink:href="#m13711ef263" x="0" y="504" style="fill: #008000; fill-opacity: 0.4; stroke: #008000; stroke-opacity: 0.4"/>
    </g>
   </g>
   <g id="matplotlib.axis_1">
    <g id="xtick_1">
     <g id="line2d_1">
      <defs>
       <path id="ma10be9e4ee" d="M 0 0 
L 0 3.5 
" style="stroke: #000000; stroke-width: 0.8"/>
      </defs>
      <g>
       <use xlink:href="#ma10be9e4ee" x="86.4" y="245.92" style="stroke: #000000; stroke-width: 0.8"/>
      </g>
     </g>
    </g>
    <g id="xtick_2">
     <g id="line2d_2">
      <g>
       <use xlink:href="#ma10be9e4ee" x="167.04" y="245.92" style="stroke: #000000; stroke-width: 0.8"/>
      </g>
     </g>
    </g>
    <g id="xtick_3">
     <g id="line2d_3">
      <g>
       <use xlink:href="#ma10be9e4ee" x="247.68" y="245.92" style="stroke: #000000; stroke-width: 0.8"/>
      </g>
     </g>
    </g>
    <g id="xtick_4">
     <g id="line2d_4">
      <g>
       <use xlink:href="#ma10be9e4ee" x="328.32" y="245.92" style="stroke: #000000; stroke-width: 0.8"/>
      </g>
     </g>
    </g>
    <g id="xtick_5">
     <g id="line2d_5">
      <g>
       <use xlink:href="#ma10be9e4ee" x="408.96" y="245.92" style="stroke: #000000; stroke-width: 0.8"/>
      </g>
     </g>
    </g>
    <g id="xtick_6">
     <g id="line2d_6">
      <g>
       <use xlink:href="#ma10be9e4ee" x="489.6" y="245.92" style="stroke: #000000; stroke-width: 0.8"/>
      </g>
     </g>
    </g>
   </g>
   <g id="matplotlib.axis_2">
    <g id="ytick_1">
     <g id="line2d_7">
      <defs>
       <path id="me3d72ebfde" d="M 0 0 
L -3.5 0 
" style="stroke: #000000; stroke-width: 0.8"/>
      </defs>
      <g>
       <use xlink:href="#me3d72ebfde" x="82.4" y="241.92" style="stroke: #000000; stroke-width: 0.8"/>
      </g>
     </g>
     <g id="text_1">
      <!-- −2.0 -->
      <g transform="translate(51.117187 245.719219) scale(0.1 -0.1)">
       <defs>
        <path id="DejaVuSans-2212" d="M 678 2272 
L 4684 2272 
L 4684 1741 
L 678 1741 
L 678 2272 
z
" transform="scale(0.015625)"/>
        <path id="DejaVuSans-32" d="M 1228 531 
L 3431 531 
L 3431 0 
L 469 0 
L 469 531 
Q 828 903 1448 1529 
Q 2069 2156 2228 2338 
Q 2531 2678 2651 2914 
Q 2772 3150 2772 3378 
Q 2772 3750 2511 3984 
Q 2250 4219 1831 4219 
Q 1534 4219 1204 4116 
Q 875 4013 500 3803 
L 500 4441 
Q 881 4594 1212 4672 
Q 1544 4750 1819 4750 
Q 2544 4750 2975 4387 
Q 3406 4025 3406 3419 
Q 3406 3131 3298 2873 
Q 3191 2616 2906 2266 
Q 2828 2175 2409 1742 
Q 1991 1309 1228 531 
z
" transform="scale(0.015625)"/>
        <path id="DejaVuSans-2e" d="M 684 794 
L 1344 794 
L 1344 0 
L 684 0 
L 684 794 
z
" transform="scale(0.015625)"/>
        <path id="DejaVuSans-30" d="M 2034 4250 
Q 1547 4250 1301 3770 
Q 1056 3291 1056 2328 
Q 1056 1369 1301 889 
Q 1547 409 2034 409 
Q 2525 409 2770 889 
Q 3016 1369 3016 2328 
Q 3016 3291 2770 3770 
Q 2525 4250 2034 4250 
z
M 2034 4750 
Q 2819 4750 3233 4129 
Q 3647 3509 3647 2328 
Q 3647 1150 3233 529 
Q 2819 -91 2034 -91 
Q 1250 -91 836 529 
Q 422 1150 422 2328 
Q 422 3509 836 4129 
Q 1250 4750 2034 4750 
z
" transform="scale(0.015625)"/>
       </defs>
       <use xlink:href="#DejaVuSans-2212"/>
       <use xlink:href="#DejaVuSans-32" x="83.789062"/>
       <use xlink:href="#DejaVuSans-2e" x="147.412109"/>
       <use xlink:href="#DejaVuSans-30" x="179.199219"/>
      </g>
     </g>
    </g>
    <g id="ytick_2">
     <g id="line2d_8">
      <g>
       <use xlink:href="#me3d72ebfde" x="82.4" y="216.72" style="stroke: #000000; stroke-width: 0.8"/>
      </g>
     </g>
     <g id="text_2">
      <!-- −1.5 -->
      <g transform="translate(51.117187 220.519219) scale(0.1 -0.1)">
       <defs>
        <path id="DejaVuSans-31" d="M 794 531 
L 1825 531 
L 1825 4091 
L 703 3866 
L 703 4441 
L 1819 4666 
L 2450 4666 
L 2450 531 
L 3481 531 
L 3481 0 
L 794 0 
L 794 531 
z
" transform="scale(0.015625)"/>
        <path id="DejaVuSans-35" d="M 691 4666 
L 3169 4666 
L 3169 4134 
L 1269 4134 
L 1269 2991 
Q 1406 3038 1543 3061 
Q 1681 3084 1819 3084 
Q 2600 3084 3056 2656 
Q 3513 2228 3513 1497 
Q 3513 744 3044 326 
Q 2575 -91 1722 -91 
Q 1428 -91 1123 -41 
Q 819 9 494 109 
L 494 744 
Q 775 591 1075 516 
Q 1375 441 1709 441 
Q 2250 441 2565 725 
Q 2881 1009 2881 1497 
Q 2881 1984 2565 2268 
Q 2250 2553 1709 2553 
Q 1456 2553 1204 2497 
Q 953 2441 691 2322 
L 691 4666 
z
" transform="scale(0.015625)"/>
       </defs>
       <use xlink:href="#DejaVuSans-2212"/>
       <use xlink:href="#DejaVuSans-31" x="83.789062"/>
       <use xlink:href="#DejaVuSans-2e" x="147.412109"/>
       <use xlink:href="#DejaVuSans-35" x="179.199219"/>
      </g>
     </g>
    </g>
    <g id="ytick_3">
     <g id="line2d_9">
      <g>
       <use xlink:href="#me3d72ebfde" x="82.4" y="191.52" style="stroke: #000000; stroke-width: 0.8"/>
      </g>
     </g>
     <g id="text_3">
      <!-- −1.0 -->
      <g transform="translate(51.117187 195.319219) scale(0.1 -0.1)">
       <use xlink:href="#DejaVuSans-2212"/>
       <use xlink:href="#DejaVuSans-31" x="83.789062"/>
       <use xlink:href="#DejaVuSans-2e" x="147.412109"/>
       <use xlink:href="#DejaVuSans-30" x="179.199219"/>
      </g>
     </g>
    </g>
    <g id="ytick_4">
     <g id="line2d_10">
      <g>
       <use xlink:href="#me3d72ebfde" x="82.4" y="166.32" style="stroke: #000000; stroke-width: 0.8"/>
      </g>
     </g>
     <g id="text_4">
      <!-- −0.5 -->
      <g transform="translate(51.117187 170.119219) scale(0.1 -0.1)">
       <use xlink:href="#DejaVuSans-2212"/>
       <use xlink:href="#DejaVuSans-30" x="83.789062"/>
       <use xlink:href="#DejaVuSans-2e" x="147.412109"/>
       <use xlink:href="#DejaVuSans-35" x="179.199219"/>
      </g>
     </g>
    </g>
    <g id="ytick_5">
     <g id="line2d_11">
      <g>
       <use xlink:href="#me3d72ebfde" x="82.4" y="141.12" style="stroke: #000000; stroke-width: 0.8"/>
      </g>
     </g>
     <g id="text_5">
      <!-- 0.0 -->
      <g transform="translate(59.496875 144.919219) scale(0.1 -0.1)">
       <use xlink:href="#DejaVuSans-30"/>
       <use xlink:href="#DejaVuSans-2e" x="63.623047"/>
       <use xlink:href="#DejaVuSans-30" x="95.410156"/>
      </g>
     </g>
    </g>
    <g id="ytick_6">
     <g id="line2d_12">
      <g>
       <use xlink:href="#me3d72ebfde" x="82.4" y="115.92" style="stroke: #000000; stroke-width: 0.8"/>
      </g>
     </g>
     <g id="text_6">
      <!-- 0.5 -->
      <g transform="translate(59.496875 119.719219) scale(0.1 -0.1)">
       <use xlink:href="#DejaVuSans-30"/>
       <use xlink:href="#DejaVuSans-2e" x="63.623047"/>
       <use xlink:href="#DejaVuSans-35" x="95.410156"/>
      </g>
     </g>
    </g>
    <g id="ytick_7">
     <g id="line2d_13">
      <g>
       <use xlink:href="#me3d72ebfde" x="82.4" y="90.72" style="stroke: #000000; stroke-width: 0.8"/>
      </g>
     </g>
     <g id="text_7">
      <!-- 1.0 -->
      <g transform="translate(59.496875 94.519219) scale(0.1 -0.1)">
       <use xlink:href="#DejaVuSans-31"/>
       <use xlink:href="#DejaVuSans-2e" x="63.623047"/>
       <use xlink:href="#DejaVuSans-30" x="95.410156"/>
      </g>
     </g>
    </g>
    <g id="ytick_8">
     <g id="line2d_14">
      <g>
       <use xlink:href="#me3d72ebfde" x="82.4" y="65.52" style="stroke: #000000; stroke-width: 0.8"/>
      </g>
     </g>
     <g id="text_8">
      <!-- 1.5 -->
      <g transform="translate(59.496875 69.319219) scale(0.1 -0.1)">
       <use xlink:href="#DejaVuSans-31"/>
       <use xlink:href="#DejaVuSans-2e" x="63.623047"/>
       <use xlink:href="#DejaVuSans-35" x="95.410156"/>
      </g>
     </g>
    </g>
    <g id="ytick_9">
     <g id="line2d_15">
      <g>
       <use xlink:href="#me3d72ebfde" x="82.4" y="40.32" style="stroke: #000000; stroke-width: 0.8"/>
      </g>
     </g>
     <g id="text_9">
      <!-- 2.0 -->
      <g transform="translate(59.496875 44.119219) scale(0.1 -0.1)">
       <use xlink:href="#DejaVuSans-32"/>
       <use xlink:href="#DejaVuSans-2e" x="63.623047"/>
       <use xlink:href="#DejaVuSans-30" x="95.410156"/>
      </g>
     </g>
    </g>
    <g id="text_10">
     <!-- BOLD % change -->
     <g transform="translate(45.453437 173.31625) rotate(-90) scale(0.08 -0.08)">
      <defs>
       <path id="DejaVuSans-42" d="M 1259 2228 
L 1259 519 
L 2272 519 
Q 2781 519 3026 730 
Q 3272 941 3272 1375 
Q 3272 1813 3026 2020 
Q 2781 2228 2272 2228 
L 1259 2228 
z
M 1259 4147 
L 1259 2741 
L 2194 2741 
Q 2656 2741 2882 2914 
Q 3109 3088 3109 3444 
Q 3109 3797 2882 3972 
Q 2656 4147 2194 4147 
L 1259 4147 
z
M 628 4666 
L 2241 4666 
Q 2963 4666 3353 4366 
Q 3744 4066 3744 3513 
Q 3744 3084 3544 2831 
Q 3344 2578 2956 2516 
Q 3422 2416 3680 2098 
Q 3938 1781 3938 1306 
Q 3938 681 3513 340 
Q 3088 0 2303 0 
L 628 0 
L 628 4666 
z
" transform="scale(0.015625)"/>
       <path id="DejaVuSans-4f" d="M 2522 4238 
Q 1834 4238 1429 3725 
Q 1025 3213 1025 2328 
Q 1025 1447 1429 934 
Q 1834 422 2522 422 
Q 3209 422 3611 934 
Q 4013 1447 4013 2328 
Q 4013 3213 3611 3725 
Q 3209 4238 2522 4238 
z
M 2522 4750 
Q 3503 4750 4090 4092 
Q 4678 3434 4678 2328 
Q 4678 1225 4090 567 
Q 3503 -91 2522 -91 
Q 1538 -91 948 565 
Q 359 1222 359 2328 
Q 359 3434 948 4092 
Q 1538 4750 2522 4750 
z
" transform="scale(0.015625)"/>
       <path id="DejaVuSans-4c" d="M 628 4666 
L 1259 4666 
L 1259 531 
L 3531 531 
L 3531 0 
L 628 0 
L 628 4666 
z
" transform="scale(0.015625)"/>
       <path id="DejaVuSans-44" d="M 1259 4147 
L 1259 519 
L 2022 519 
Q 2988 519 3436 956 
Q 3884 1394 3884 2338 
Q 3884 3275 3436 3711 
Q 2988 4147 2022 4147 
L 1259 4147 
z
M 628 4666 
L 1925 4666 
Q 3281 4666 3915 4102 
Q 4550 3538 4550 2338 
Q 4550 1131 3912 565 
Q 3275 0 1925 0 
L 628 0 
L 628 4666 
z
" transform="scale(0.015625)"/>
       <path id="DejaVuSans-20" transform="scale(0.015625)"/>
       <path id="DejaVuSans-25" d="M 4653 2053 
Q 4381 2053 4226 1822 
Q 4072 1591 4072 1178 
Q 4072 772 4226 539 
Q 4381 306 4653 306 
Q 4919 306 5073 539 
Q 5228 772 5228 1178 
Q 5228 1588 5073 1820 
Q 4919 2053 4653 2053 
z
M 4653 2450 
Q 5147 2450 5437 2106 
Q 5728 1763 5728 1178 
Q 5728 594 5436 251 
Q 5144 -91 4653 -91 
Q 4153 -91 3862 251 
Q 3572 594 3572 1178 
Q 3572 1766 3864 2108 
Q 4156 2450 4653 2450 
z
M 1428 4353 
Q 1159 4353 1004 4120 
Q 850 3888 850 3481 
Q 850 3069 1003 2837 
Q 1156 2606 1428 2606 
Q 1700 2606 1854 2837 
Q 2009 3069 2009 3481 
Q 2009 3884 1853 4118 
Q 1697 4353 1428 4353 
z
M 4250 4750 
L 4750 4750 
L 1831 -91 
L 1331 -91 
L 4250 4750 
z
M 1428 4750 
Q 1922 4750 2215 4408 
Q 2509 4066 2509 3481 
Q 2509 2891 2217 2550 
Q 1925 2209 1428 2209 
Q 931 2209 642 2551 
Q 353 2894 353 3481 
Q 353 4063 643 4406 
Q 934 4750 1428 4750 
z
" transform="scale(0.015625)"/>
       <path id="DejaVuSans-63" d="M 3122 3366 
L 3122 2828 
Q 2878 2963 2633 3030 
Q 2388 3097 2138 3097 
Q 1578 3097 1268 2742 
Q 959 2388 959 1747 
Q 959 1106 1268 751 
Q 1578 397 2138 397 
Q 2388 397 2633 464 
Q 2878 531 3122 666 
L 3122 134 
Q 2881 22 2623 -34 
Q 2366 -91 2075 -91 
Q 1284 -91 818 406 
Q 353 903 353 1747 
Q 353 2603 823 3093 
Q 1294 3584 2113 3584 
Q 2378 3584 2631 3529 
Q 2884 3475 3122 3366 
z
" transform="scale(0.015625)"/>
       <path id="DejaVuSans-68" d="M 3513 2113 
L 3513 0 
L 2938 0 
L 2938 2094 
Q 2938 2591 2744 2837 
Q 2550 3084 2163 3084 
Q 1697 3084 1428 2787 
Q 1159 2491 1159 1978 
L 1159 0 
L 581 0 
L 581 4863 
L 1159 4863 
L 1159 2956 
Q 1366 3272 1645 3428 
Q 1925 3584 2291 3584 
Q 2894 3584 3203 3211 
Q 3513 2838 3513 2113 
z
" transform="scale(0.015625)"/>
       <path id="DejaVuSans-61" d="M 2194 1759 
Q 1497 1759 1228 1600 
Q 959 1441 959 1056 
Q 959 750 1161 570 
Q 1363 391 1709 391 
Q 2188 391 2477 730 
Q 2766 1069 2766 1631 
L 2766 1759 
L 2194 1759 
z
M 3341 1997 
L 3341 0 
L 2766 0 
L 2766 531 
Q 2569 213 2275 61 
Q 1981 -91 1556 -91 
Q 1019 -91 701 211 
Q 384 513 384 1019 
Q 384 1609 779 1909 
Q 1175 2209 1959 2209 
L 2766 2209 
L 2766 2266 
Q 2766 2663 2505 2880 
Q 2244 3097 1772 3097 
Q 1472 3097 1187 3025 
Q 903 2953 641 2809 
L 641 3341 
Q 956 3463 1253 3523 
Q 1550 3584 1831 3584 
Q 2591 3584 2966 3190 
Q 3341 2797 3341 1997 
z
" transform="scale(0.015625)"/>
       <path id="DejaVuSans-6e" d="M 3513 2113 
L 3513 0 
L 2938 0 
L 2938 2094 
Q 2938 2591 2744 2837 
Q 2550 3084 2163 3084 
Q 1697 3084 1428 2787 
Q 1159 2491 1159 1978 
L 1159 0 
L 581 0 
L 581 3500 
L 1159 3500 
L 1159 2956 
Q 1366 3272 1645 3428 
Q 1925 3584 2291 3584 
Q 2894 3584 3203 3211 
Q 3513 2838 3513 2113 
z
" transform="scale(0.015625)"/>
       <path id="DejaVuSans-67" d="M 2906 1791 
Q 2906 2416 2648 2759 
Q 2391 3103 1925 3103 
Q 1463 3103 1205 2759 
Q 947 2416 947 1791 
Q 947 1169 1205 825 
Q 1463 481 1925 481 
Q 2391 481 2648 825 
Q 2906 1169 2906 1791 
z
M 3481 434 
Q 3481 -459 3084 -895 
Q 2688 -1331 1869 -1331 
Q 1566 -1331 1297 -1286 
Q 1028 -1241 775 -1147 
L 775 -588 
Q 1028 -725 1275 -790 
Q 1522 -856 1778 -856 
Q 2344 -856 2625 -561 
Q 2906 -266 2906 331 
L 2906 616 
Q 2728 306 2450 153 
Q 2172 0 1784 0 
Q 1141 0 747 490 
Q 353 981 353 1791 
Q 353 2603 747 3093 
Q 1141 3584 1784 3584 
Q 2172 3584 2450 3431 
Q 2728 3278 2906 2969 
L 2906 3500 
L 3481 3500 
L 3481 434 
z
" transform="scale(0.015625)"/>
       <path id="DejaVuSans-65" d="M 3597 1894 
L 3597 1613 
L 953 1613 
Q 991 1019 1311 708 
Q 1631 397 2203 397 
Q 2534 397 2845 478 
Q 3156 559 3463 722 
L 3463 178 
Q 3153 47 2828 -22 
Q 2503 -91 2169 -91 
Q 1331 -91 842 396 
Q 353 884 353 1716 
Q 353 2575 817 3079 
Q 1281 3584 2069 3584 
Q 2775 3584 3186 3129 
Q 3597 2675 3597 1894 
z
M 3022 2063 
Q 3016 2534 2758 2815 
Q 2500 3097 2075 3097 
Q 1594 3097 1305 2825 
Q 1016 2553 972 2059 
L 3022 2063 
z
" transform="scale(0.015625)"/>
      </defs>
      <use xlink:href="#DejaVuSans-42"/>
      <use xlink:href="#DejaVuSans-4f" x="66.853516"/>
      <use xlink:href="#DejaVuSans-4c" x="145.564453"/>
      <use xlink:href="#DejaVuSans-44" x="201.277344"/>
      <use xlink:href="#DejaVuSans-20" x="278.279297"/>
      <use xlink:href="#DejaVuSans-25" x="310.066406"/>
      <use xlink:href="#DejaVuSans-20" x="405.085938"/>
      <use xlink:href="#DejaVuSans-63" x="436.873047"/>
      <use xlink:href="#DejaVuSans-68" x="491.853516"/>
      <use xlink:href="#DejaVuSans-61" x="555.232422"/>
      <use xlink:href="#DejaVuSans-6e" x="616.511719"/>
      <use xlink:href="#DejaVuSans-67" x="679.890625"/>
      <use xlink:href="#DejaVuSans-65" x="743.367188"/>
     </g>
    </g>
   </g>
   <g id="line2d_16">
    <path d="M 86.4 123.957685 
L 94.628571 124.408342 
L 102.857143 124.690438 
L 111.085714 124.813939 
L 119.314286 124.769805 
L 127.542857 125.061559 
L 135.771429 125.559219 
L 144 126.209455 
L 152.228571 127.13518 
L 160.457143 127.686595 
L 168.685714 128.120798 
L 176.914286 128.446631 
L 185.142857 128.289628 
L 193.371429 127.98195 
L 201.6 127.894495 
L 209.828571 128.075319 
L 218.057143 128.319389 
L 226.285714 128.258527 
L 234.514286 127.970258 
L 242.742857 127.746078 
L 250.971429 127.92264 
L 259.2 128.066549 
L 267.428571 128.241138 
L 275.657143 128.485237 
L 283.885714 128.795244 
L 292.114286 128.816775 
L 300.342857 129.05151 
L 308.571429 129.154602 
L 316.8 129.197845 
L 325.028571 129.209605 
L 333.257143 129.244863 
L 341.485714 129.506281 
L 349.714286 129.70004 
L 357.942857 130.001943 
L 366.171429 130.178104 
L 374.4 130.376603 
L 382.628571 130.54014 
L 390.857143 130.787732 
L 399.085714 130.986751 
L 407.314286 130.765924 
L 415.542857 130.8752 
L 423.771429 131.313736 
L 432 131.7059 
L 440.228571 131.831427 
L 448.457143 132.084282 
L 456.685714 132.455576 
L 464.914286 132.693919 
L 473.142857 132.876186 
L 481.371429 133.229385 
L 489.6 133.297056 
" clip-path="url(#p15e4890091)" style="fill: none; stroke: #008000; stroke-width: 1.5; stroke-linecap: square"/>
   </g>
   <g id="line2d_17">
    <path d="M 86.4 99.882274 
L 94.628571 99.882274 
L 102.857143 99.882274 
L 111.085714 99.643589 
L 119.314286 97.231747 
L 127.542857 95.69368 
L 135.771429 98.064292 
L 144 99.680019 
L 152.228571 104.974633 
L 160.457143 109.609795 
L 168.685714 113.379673 
L 176.914286 115.79088 
L 185.142857 111.686623 
L 193.371429 107.052433 
L 201.6 102.883142 
L 209.828571 100.492562 
L 218.057143 98.184328 
L 226.285714 94.339014 
L 234.514286 88.405183 
L 242.742857 84.345985 
L 250.971429 83.869675 
L 259.2 84.180432 
L 267.428571 83.348833 
L 275.657143 82.666187 
L 283.885714 82.210987 
L 292.114286 83.165345 
L 300.342857 83.437486 
L 308.571429 82.854147 
L 316.8 81.867839 
L 325.028571 80.534635 
L 333.257143 79.130615 
L 341.485714 79.333944 
L 349.714286 78.483847 
L 357.942857 78.551876 
L 366.171429 78.538486 
L 374.4 79.375358 
L 382.628571 81.037473 
L 390.857143 82.903262 
L 399.085714 84.151168 
L 407.314286 83.003417 
L 415.542857 82.228299 
L 423.771429 82.207247 
L 432 84.222809 
L 440.228571 86.389777 
L 448.457143 89.64287 
L 456.685714 92.452767 
L 464.914286 95.286702 
L 473.142857 96.595948 
L 481.371429 97.009536 
L 489.6 96.842479 
" clip-path="url(#p15e4890091)" style="fill: none; stroke: #008000; stroke-opacity: 0.2; stroke-width: 1.5; stroke-linecap: square"/>
   </g>
   <g id="line2d_18">
    <path d="M 86.4 106.843594 
L 94.628571 107.412258 
L 102.857143 107.782402 
L 111.085714 108.251411 
L 119.314286 109.365887 
L 127.542857 111.584656 
L 135.771429 113.335358 
L 144 114.162536 
L 152.228571 113.882998 
L 160.457143 112.958403 
L 168.685714 113.5542 
L 176.914286 114.084898 
L 185.142857 114.884003 
L 193.371429 116.204713 
L 201.6 117.075339 
L 209.828571 117.03262 
L 218.057143 115.977431 
L 226.285714 114.07507 
L 234.514286 113.47584 
L 242.742857 113.289526 
L 250.971429 113.535982 
L 259.2 113.088897 
L 267.428571 113.154472 
L 275.657143 113.313374 
L 283.885714 113.498037 
L 292.114286 113.155705 
L 300.342857 113.960637 
L 308.571429 115.057334 
L 316.8 116.055745 
L 325.028571 116.305131 
L 333.257143 116.379649 
L 341.485714 115.687268 
L 349.714286 115.754224 
L 357.942857 116.689294 
L 366.171429 117.718637 
L 374.4 119.25674 
L 382.628571 119.798059 
L 390.857143 120.27292 
L 399.085714 120.714947 
L 407.314286 120.114259 
L 415.542857 119.690807 
L 423.771429 120.897731 
L 432 121.059902 
L 440.228571 120.806645 
L 448.457143 120.564191 
L 456.685714 120.822005 
L 464.914286 120.548966 
L 473.142857 119.94968 
L 481.371429 119.153076 
L 489.6 118.326017 
" clip-path="url(#p15e4890091)" style="fill: none; stroke: #008000; stroke-opacity: 0.2; stroke-width: 1.5; stroke-linecap: square"/>
   </g>
   <g id="line2d_19">
    <path d="M 86.4 143.525765 
L 94.628571 143.525765 
L 102.857143 143.609327 
L 111.085714 143.096062 
L 119.314286 142.506075 
L 127.542857 141.611642 
L 135.771429 141.473701 
L 144 142.006891 
L 152.228571 142.33092 
L 160.457143 142.36344 
L 168.685714 141.721419 
L 176.914286 141.194375 
L 185.142857 140.935367 
L 193.371429 141.302099 
L 201.6 141.86901 
L 209.828571 142.486467 
L 218.057143 143.07901 
L 226.285714 143.426855 
L 234.514286 143.938347 
L 242.742857 144.511668 
L 250.971429 145.058549 
L 259.2 145.55004 
L 267.428571 145.483664 
L 275.657143 145.127507 
L 283.885714 145.298586 
L 292.114286 145.454789 
L 300.342857 145.759464 
L 308.571429 146.03763 
L 316.8 146.067687 
L 325.028571 146.429082 
L 333.257143 146.19858 
L 341.485714 145.952735 
L 349.714286 145.945336 
L 357.942857 146.176835 
L 366.171429 146.192544 
L 374.4 146.022818 
L 382.628571 145.831806 
L 390.857143 145.94043 
L 399.085714 145.651135 
L 407.314286 145.256955 
L 415.542857 144.716876 
L 423.771429 144.192936 
L 432 143.892605 
L 440.228571 143.826368 
L 448.457143 144.185798 
L 456.685714 144.805037 
L 464.914286 145.276058 
L 473.142857 145.816259 
L 481.371429 146.024348 
L 489.6 145.697444 
" clip-path="url(#p15e4890091)" style="fill: none; stroke: #008000; stroke-opacity: 0.2; stroke-width: 1.5; stroke-linecap: square"/>
   </g>
   <g id="line2d_20">
    <path d="M 86.4 103.464972 
L 94.628571 103.812037 
L 102.857143 103.628753 
L 111.085714 104.533345 
L 119.314286 107.368909 
L 127.542857 109.525277 
L 135.771429 111.399315 
L 144 113.206548 
L 152.228571 114.973921 
L 160.457143 115.928431 
L 168.685714 117.216557 
L 176.914286 119.102365 
L 185.142857 121.075753 
L 193.371429 122.246748 
L 201.6 123.279908 
L 209.828571 124.090558 
L 218.057143 124.765901 
L 226.285714 125.091001 
L 234.514286 125.064895 
L 242.742857 124.794876 
L 250.971429 124.872215 
L 259.2 124.956271 
L 267.428571 125.011256 
L 275.657143 125.495186 
L 283.885714 125.527271 
L 292.114286 125.633951 
L 300.342857 126.153538 
L 308.571429 125.958872 
L 316.8 125.063641 
L 325.028571 124.17078 
L 333.257143 123.570335 
L 341.485714 123.439487 
L 349.714286 123.437957 
L 357.942857 122.654213 
L 366.171429 122.074052 
L 374.4 121.334572 
L 382.628571 121.279559 
L 390.857143 121.369703 
L 399.085714 120.965211 
L 407.314286 120.550063 
L 415.542857 120.426455 
L 423.771429 121.300279 
L 432 121.340883 
L 440.228571 121.533103 
L 448.457143 122.081027 
L 456.685714 122.598059 
L 464.914286 123.439769 
L 473.142857 124.481749 
L 481.371429 128.190275 
L 489.6 130.342722 
" clip-path="url(#p15e4890091)" style="fill: none; stroke: #008000; stroke-opacity: 0.2; stroke-width: 1.5; stroke-linecap: square"/>
   </g>
   <g id="line2d_21">
    <path d="M 86.4 130.918795 
L 94.628571 130.918795 
L 102.857143 130.504541 
L 111.085714 130.202147 
L 119.314286 130.417772 
L 127.542857 130.604354 
L 135.771429 130.972427 
L 144 131.960112 
L 152.228571 132.867252 
L 160.457143 132.950036 
L 168.685714 133.852027 
L 176.914286 134.90063 
L 185.142857 135.724201 
L 193.371429 136.076723 
L 201.6 135.98542 
L 209.828571 136.200823 
L 218.057143 136.113855 
L 226.285714 136.502094 
L 234.514286 137.802632 
L 242.742857 139.007291 
L 250.971429 139.401727 
L 259.2 139.533656 
L 267.428571 139.556424 
L 275.657143 139.384171 
L 283.885714 139.740342 
L 292.114286 140.002322 
L 300.342857 140.071666 
L 308.571429 139.774477 
L 316.8 139.298738 
L 325.028571 138.958719 
L 333.257143 139.128212 
L 341.485714 139.599666 
L 349.714286 140.294831 
L 357.942857 141.05626 
L 366.171429 141.877468 
L 374.4 142.36649 
L 382.628571 142.561632 
L 390.857143 142.913542 
L 399.085714 143.768728 
L 407.314286 143.957428 
L 415.542857 143.80094 
L 423.771429 143.428932 
L 432 142.841434 
L 440.228571 142.015503 
L 448.457143 141.699693 
L 456.685714 141.540083 
L 464.914286 141.175899 
L 473.142857 140.500469 
L 481.371429 139.622539 
L 489.6 138.829897 
" clip-path="url(#p15e4890091)" style="fill: none; stroke: #008000; stroke-opacity: 0.2; stroke-width: 1.5; stroke-linecap: square"/>
   </g>
   <g id="line2d_22">
    <path d="M 86.4 152.695795 
L 94.628571 152.706363 
L 102.857143 151.91325 
L 111.085714 150.288451 
L 119.314286 148.285508 
L 127.542857 146.966885 
L 135.771429 145.882536 
L 144 144.371351 
L 152.228571 143.032911 
L 160.457143 142.215463 
L 168.685714 141.045642 
L 176.914286 139.5479 
L 185.142857 138.534516 
L 193.371429 137.891754 
L 201.6 139.176175 
L 209.828571 141.09962 
L 218.057143 142.855273 
L 226.285714 143.411026 
L 234.514286 143.590624 
L 242.742857 143.519215 
L 250.971429 143.742347 
L 259.2 143.972987 
L 267.428571 144.218403 
L 275.657143 144.123898 
L 283.885714 144.615606 
L 292.114286 144.338649 
L 300.342857 143.956802 
L 308.571429 143.854212 
L 316.8 144.33247 
L 325.028571 144.368498 
L 333.257143 144.215614 
L 341.485714 143.838165 
L 349.714286 143.748493 
L 357.942857 144.413746 
L 366.171429 145.530965 
L 374.4 146.090729 
L 382.628571 146.307055 
L 390.857143 145.945105 
L 399.085714 145.894507 
L 407.314286 145.6647 
L 415.542857 145.060814 
L 423.771429 144.686878 
L 432 144.145874 
L 440.228571 143.730582 
L 448.457143 143.464612 
L 456.685714 143.708973 
L 464.914286 143.033442 
L 473.142857 142.338946 
L 481.371429 142.438322 
L 489.6 143.31507 
" clip-path="url(#p15e4890091)" style="fill: none; stroke: #008000; stroke-opacity: 0.2; stroke-width: 1.5; stroke-linecap: square"/>
   </g>
   <g id="line2d_23">
    <path d="M 86.4 106.561392 
L 94.628571 106.188515 
L 102.857143 105.57766 
L 111.085714 104.883041 
L 119.314286 102.641289 
L 127.542857 104.455535 
L 135.771429 106.194671 
L 144 107.595259 
L 152.228571 110.412213 
L 160.457143 111.550536 
L 168.685714 111.390505 
L 176.914286 111.065663 
L 185.142857 110.568821 
L 193.371429 108.671779 
L 201.6 108.655239 
L 209.828571 109.952874 
L 218.057143 111.653062 
L 226.285714 113.360616 
L 234.514286 113.567115 
L 242.742857 113.487858 
L 250.971429 113.012109 
L 259.2 113.143075 
L 267.428571 113.762326 
L 275.657143 114.869096 
L 283.885714 115.739233 
L 292.114286 115.020075 
L 300.342857 114.358802 
L 308.571429 113.927759 
L 316.8 114.033057 
L 325.028571 115.07352 
L 333.257143 115.529748 
L 341.485714 115.95745 
L 349.714286 116.65033 
L 357.942857 117.683032 
L 366.171429 117.304136 
L 374.4 117.363665 
L 382.628571 117.578381 
L 390.857143 118.035756 
L 399.085714 117.871446 
L 407.314286 117.583483 
L 415.542857 117.818842 
L 423.771429 117.751055 
L 432 117.863831 
L 440.228571 117.492907 
L 448.457143 117.32908 
L 456.685714 116.793463 
L 464.914286 116.792324 
L 473.142857 117.598394 
L 481.371429 118.216724 
L 489.6 118.454887 
" clip-path="url(#p15e4890091)" style="fill: none; stroke: #008000; stroke-opacity: 0.2; stroke-width: 1.5; stroke-linecap: square"/>
   </g>
   <g id="line2d_24">
    <path d="M 86.4 128.130892 
L 94.628571 128.114333 
L 102.857143 128.036176 
L 111.085714 128.002171 
L 119.314286 127.715172 
L 127.542857 127.301501 
L 135.771429 127.902137 
L 144 128.149828 
L 152.228571 128.497209 
L 160.457143 128.918063 
L 168.685714 128.924897 
L 176.914286 128.344263 
L 185.142857 128.18376 
L 193.371429 127.831624 
L 201.6 127.8304 
L 209.828571 128.196663 
L 218.057143 128.987436 
L 226.285714 129.914714 
L 234.514286 130.527457 
L 242.742857 131.001328 
L 250.971429 131.406426 
L 259.2 132.074846 
L 267.428571 133.169723 
L 275.657143 134.342711 
L 283.885714 135.046804 
L 292.114286 135.416023 
L 300.342857 136.095414 
L 308.571429 136.793458 
L 316.8 137.469104 
L 325.028571 138.658285 
L 333.257143 140.104845 
L 341.485714 141.24149 
L 349.714286 141.452114 
L 357.942857 141.476873 
L 366.171429 141.30954 
L 374.4 141.116075 
L 382.628571 140.818284 
L 390.857143 140.567085 
L 399.085714 140.564831 
L 407.314286 140.840622 
L 415.542857 141.646683 
L 423.771429 142.422711 
L 432 143.153703 
L 440.228571 143.264689 
L 448.457143 143.705335 
L 456.685714 144.267865 
L 464.914286 144.439906 
L 473.142857 144.253443 
L 481.371429 144.284826 
L 489.6 143.874743 
" clip-path="url(#p15e4890091)" style="fill: none; stroke: #008000; stroke-opacity: 0.2; stroke-width: 1.5; stroke-linecap: square"/>
   </g>
   <g id="line2d_25">
    <path d="M 86.4 115.223272 
L 94.628571 115.346266 
L 102.857143 115.740926 
L 111.085714 114.979452 
L 119.314286 114.5327 
L 127.542857 114.000262 
L 135.771429 113.568792 
L 144 113.001503 
L 152.228571 112.243847 
L 160.457143 112.107432 
L 168.685714 112.265582 
L 176.914286 112.483666 
L 185.142857 112.788986 
L 193.371429 113.06283 
L 201.6 113.797218 
L 209.828571 114.376179 
L 218.057143 114.507463 
L 226.285714 114.570175 
L 234.514286 114.610962 
L 242.742857 115.017036 
L 250.971429 115.58291 
L 259.2 115.447691 
L 267.428571 115.597559 
L 275.657143 116.240051 
L 283.885714 117.116578 
L 292.114286 118.160129 
L 300.342857 118.960158 
L 308.571429 119.972204 
L 316.8 120.923766 
L 325.028571 121.662719 
L 333.257143 122.118141 
L 341.485714 122.049785 
L 349.714286 121.918518 
L 357.942857 121.399958 
L 366.171429 120.872995 
L 374.4 120.395837 
L 382.628571 120.242795 
L 390.857143 120.072479 
L 399.085714 119.869355 
L 407.314286 120.001237 
L 415.542857 120.020183 
L 423.771429 119.758022 
L 432 119.68384 
L 440.228571 119.455658 
L 448.457143 119.320445 
L 456.685714 119.259005 
L 464.914286 119.834599 
L 473.142857 120.329154 
L 481.371429 120.81152 
L 489.6 121.249996 
" clip-path="url(#p15e4890091)" style="fill: none; stroke: #008000; stroke-opacity: 0.2; stroke-width: 1.5; stroke-linecap: square"/>
   </g>
   <g id="line2d_26">
    <path d="M 86.4 137.289259 
L 94.628571 138.048044 
L 102.857143 139.218401 
L 111.085714 139.92221 
L 119.314286 141.298863 
L 127.542857 141.842977 
L 135.771429 141.492273 
L 144 141.002879 
L 152.228571 140.193895 
L 160.457143 139.133686 
L 168.685714 138.627536 
L 176.914286 138.097064 
L 185.142857 137.580041 
L 193.371429 137.273672 
L 201.6 137.248171 
L 209.828571 136.884583 
L 218.057143 136.851373 
L 226.285714 136.729145 
L 234.514286 136.055945 
L 242.742857 135.316402 
L 250.971429 134.80314 
L 259.2 134.884421 
L 267.428571 135.322377 
L 275.657143 135.74378 
L 283.885714 136.244167 
L 292.114286 136.244126 
L 300.342857 136.521805 
L 308.571429 136.830019 
L 316.8 137.32992 
L 325.028571 137.917909 
L 333.257143 138.484828 
L 341.485714 139.134706 
L 349.714286 139.8476 
L 357.942857 140.510448 
L 366.171429 140.952267 
L 374.4 140.981594 
L 382.628571 140.968222 
L 390.857143 140.833141 
L 399.085714 141.023955 
L 407.314286 141.598995 
L 415.542857 143.133424 
L 423.771429 144.546662 
L 432 145.948602 
L 440.228571 146.037695 
L 448.457143 145.906281 
L 456.685714 146.143862 
L 464.914286 146.413976 
L 473.142857 146.904091 
L 481.371429 147.424263 
L 489.6 147.766639 
" clip-path="url(#p15e4890091)" style="fill: none; stroke: #008000; stroke-opacity: 0.2; stroke-width: 1.5; stroke-linecap: square"/>
   </g>
   <g id="line2d_27">
    <path d="M 86.4 136.496762 
L 94.628571 140.63068 
L 102.857143 143.466888 
L 111.085714 146.500429 
L 119.314286 147.735203 
L 127.542857 149.297541 
L 135.771429 149.086235 
L 144 151.130441 
L 152.228571 152.700093 
L 160.457143 154.373278 
L 168.685714 155.818148 
L 176.914286 157.013147 
L 185.142857 157.576128 
L 193.371429 157.601204 
L 201.6 155.980548 
L 209.828571 155.178271 
L 218.057143 156.002766 
L 226.285714 157.012158 
L 234.514286 157.682394 
L 242.742857 156.686929 
L 250.971429 156.970621 
L 259.2 156.731189 
L 267.428571 157.137186 
L 275.657143 157.087025 
L 283.885714 157.244794 
L 292.114286 155.965398 
L 300.342857 155.901628 
L 308.571429 155.717024 
L 316.8 155.035688 
L 325.028571 153.593732 
L 333.257143 153.190777 
L 341.485714 154.967405 
L 349.714286 156.339619 
L 357.942857 156.768453 
L 366.171429 157.007022 
L 374.4 156.833857 
L 382.628571 156.164741 
L 390.857143 156.4285 
L 399.085714 157.181132 
L 407.314286 156.85542 
L 415.542857 157.814585 
L 423.771429 159.144536 
L 432 159.572788 
L 440.228571 159.414611 
L 448.457143 157.879919 
L 456.685714 157.052054 
L 464.914286 155.773929 
L 473.142857 155.211885 
L 481.371429 155.224037 
L 489.6 154.986048 
" clip-path="url(#p15e4890091)" style="fill: none; stroke: #008000; stroke-opacity: 0.2; stroke-width: 1.5; stroke-linecap: square"/>
   </g>
   <g id="line2d_28">
    <path d="M 86.4 126.45945 
L 94.628571 126.314769 
L 102.857143 126.924658 
L 111.085714 127.464954 
L 119.314286 128.13853 
L 127.542857 127.854393 
L 135.771429 127.338893 
L 144 128.246088 
L 152.228571 129.512267 
L 160.457143 130.130582 
L 168.685714 129.65339 
L 176.914286 129.734717 
L 185.142857 129.937342 
L 193.371429 130.56782 
L 201.6 130.953368 
L 209.828571 130.912612 
L 218.057143 130.85477 
L 226.285714 130.670449 
L 234.514286 130.921699 
L 242.742857 131.974827 
L 250.971429 132.815978 
L 259.2 133.235077 
L 267.428571 133.131434 
L 275.657143 133.429865 
L 283.885714 133.260525 
L 292.114286 133.24479 
L 300.342857 133.440721 
L 308.571429 133.078088 
L 316.8 132.896483 
L 325.028571 132.842244 
L 333.257143 132.887012 
L 341.485714 132.873267 
L 349.714286 132.527611 
L 357.942857 132.64233 
L 366.171429 132.759134 
L 374.4 133.381504 
L 382.628571 133.893677 
L 390.857143 134.170865 
L 399.085714 134.184596 
L 407.314286 133.76451 
L 415.542857 134.144495 
L 423.771429 135.427841 
L 432 136.744532 
L 440.228571 138.009581 
L 448.457143 139.232136 
L 456.685714 140.023735 
L 464.914286 140.311453 
L 473.142857 140.534218 
L 481.371429 140.353154 
L 489.6 139.878725 
" clip-path="url(#p15e4890091)" style="fill: none; stroke: #008000; stroke-opacity: 0.2; stroke-width: 1.5; stroke-linecap: square"/>
   </g>
   <g id="line2d_29">
    <path d="M 167.04 241.92 
L 167.04 40.32 
" clip-path="url(#p15e4890091)" style="fill: none; stroke-dasharray: 5.55,2.4; stroke-dashoffset: 0; stroke: #000000; stroke-width: 1.5"/>
   </g>
   <g id="line2d_30">
    <path d="M 86.4 141.12 
L 489.6 141.12 
" clip-path="url(#p15e4890091)" style="fill: none; stroke-dasharray: 5.55,2.4; stroke-dashoffset: 0; stroke: #000000; stroke-width: 1.5"/>
   </g>
   <g id="patch_3">
    <path d="M 82.4 241.92 
L 82.4 40.32 
" style="fill: none; stroke: #000000; stroke-width: 0.8; stroke-linejoin: miter; stroke-linecap: square"/>
   </g>
   <g id="patch_4">
    <path d="M 86.4 245.92 
L 489.6 245.92 
" style="fill: none; stroke: #000000; stroke-width: 0.8; stroke-linejoin: miter; stroke-linecap: square"/>
   </g>
   <g id="text_11">
    <!-- all depths -->
    <g transform="translate(268.328125 34.32) scale(0.08 -0.08)">
     <defs>
      <path id="DejaVuSans-6c" d="M 603 4863 
L 1178 4863 
L 1178 0 
L 603 0 
L 603 4863 
z
" transform="scale(0.015625)"/>
      <path id="DejaVuSans-64" d="M 2906 2969 
L 2906 4863 
L 3481 4863 
L 3481 0 
L 2906 0 
L 2906 525 
Q 2725 213 2448 61 
Q 2172 -91 1784 -91 
Q 1150 -91 751 415 
Q 353 922 353 1747 
Q 353 2572 751 3078 
Q 1150 3584 1784 3584 
Q 2172 3584 2448 3432 
Q 2725 3281 2906 2969 
z
M 947 1747 
Q 947 1113 1208 752 
Q 1469 391 1925 391 
Q 2381 391 2643 752 
Q 2906 1113 2906 1747 
Q 2906 2381 2643 2742 
Q 2381 3103 1925 3103 
Q 1469 3103 1208 2742 
Q 947 2381 947 1747 
z
" transform="scale(0.015625)"/>
      <path id="DejaVuSans-70" d="M 1159 525 
L 1159 -1331 
L 581 -1331 
L 581 3500 
L 1159 3500 
L 1159 2969 
Q 1341 3281 1617 3432 
Q 1894 3584 2278 3584 
Q 2916 3584 3314 3078 
Q 3713 2572 3713 1747 
Q 3713 922 3314 415 
Q 2916 -91 2278 -91 
Q 1894 -91 1617 61 
Q 1341 213 1159 525 
z
M 3116 1747 
Q 3116 2381 2855 2742 
Q 2594 3103 2138 3103 
Q 1681 3103 1420 2742 
Q 1159 2381 1159 1747 
Q 1159 1113 1420 752 
Q 1681 391 2138 391 
Q 2594 391 2855 752 
Q 3116 1113 3116 1747 
z
" transform="scale(0.015625)"/>
      <path id="DejaVuSans-74" d="M 1172 4494 
L 1172 3500 
L 2356 3500 
L 2356 3053 
L 1172 3053 
L 1172 1153 
Q 1172 725 1289 603 
Q 1406 481 1766 481 
L 2356 481 
L 2356 0 
L 1766 0 
Q 1100 0 847 248 
Q 594 497 594 1153 
L 594 3053 
L 172 3053 
L 172 3500 
L 594 3500 
L 594 4494 
L 1172 4494 
z
" transform="scale(0.015625)"/>
      <path id="DejaVuSans-73" d="M 2834 3397 
L 2834 2853 
Q 2591 2978 2328 3040 
Q 2066 3103 1784 3103 
Q 1356 3103 1142 2972 
Q 928 2841 928 2578 
Q 928 2378 1081 2264 
Q 1234 2150 1697 2047 
L 1894 2003 
Q 2506 1872 2764 1633 
Q 3022 1394 3022 966 
Q 3022 478 2636 193 
Q 2250 -91 1575 -91 
Q 1294 -91 989 -36 
Q 684 19 347 128 
L 347 722 
Q 666 556 975 473 
Q 1284 391 1588 391 
Q 1994 391 2212 530 
Q 2431 669 2431 922 
Q 2431 1156 2273 1281 
Q 2116 1406 1581 1522 
L 1381 1569 
Q 847 1681 609 1914 
Q 372 2147 372 2553 
Q 372 3047 722 3315 
Q 1072 3584 1716 3584 
Q 2034 3584 2315 3537 
Q 2597 3491 2834 3397 
z
" transform="scale(0.015625)"/>
     </defs>
     <use xlink:href="#DejaVuSans-61"/>
     <use xlink:href="#DejaVuSans-6c" x="61.279297"/>
     <use xlink:href="#DejaVuSans-6c" x="89.0625"/>
     <use xlink:href="#DejaVuSans-20" x="116.845703"/>
     <use xlink:href="#DejaVuSans-64" x="148.632812"/>
     <use xlink:href="#DejaVuSans-65" x="212.109375"/>
     <use xlink:href="#DejaVuSans-70" x="273.632812"/>
     <use xlink:href="#DejaVuSans-74" x="337.109375"/>
     <use xlink:href="#DejaVuSans-68" x="376.318359"/>
     <use xlink:href="#DejaVuSans-73" x="439.697266"/>
    </g>
   </g>
   <g id="legend_1">
    <g id="patch_5">
     <path d="M 427.714062 62.998125 
L 482.6 62.998125 
Q 484.6 62.998125 484.6 60.998125 
L 484.6 47.32 
Q 484.6 45.32 482.6 45.32 
L 427.714062 45.32 
Q 425.714062 45.32 425.714062 47.32 
L 425.714062 60.998125 
Q 425.714062 62.998125 427.714062 62.998125 
z
" style="fill: #ffffff; opacity: 0.8; stroke: #cccccc; stroke-linejoin: miter"/>
    </g>
    <g id="line2d_31">
     <path d="M 429.714062 53.418437 
L 439.714062 53.418437 
L 449.714062 53.418437 
" style="fill: none; stroke: #008000; stroke-width: 1.5; stroke-linecap: square"/>
    </g>
    <g id="text_12">
     <!-- odss -->
     <g transform="translate(457.714062 56.918437) scale(0.1 -0.1)">
      <defs>
       <path id="DejaVuSans-6f" d="M 1959 3097 
Q 1497 3097 1228 2736 
Q 959 2375 959 1747 
Q 959 1119 1226 758 
Q 1494 397 1959 397 
Q 2419 397 2687 759 
Q 2956 1122 2956 1747 
Q 2956 2369 2687 2733 
Q 2419 3097 1959 3097 
z
M 1959 3584 
Q 2709 3584 3137 3096 
Q 3566 2609 3566 1747 
Q 3566 888 3137 398 
Q 2709 -91 1959 -91 
Q 1206 -91 779 398 
Q 353 888 353 1747 
Q 353 2609 779 3096 
Q 1206 3584 1959 3584 
z
" transform="scale(0.015625)"/>
      </defs>
      <use xlink:href="#DejaVuSans-6f"/>
      <use xlink:href="#DejaVuSans-64" x="61.181641"/>
      <use xlink:href="#DejaVuSans-73" x="124.658203"/>
      <use xlink:href="#DejaVuSans-73" x="176.757812"/>
     </g>
    </g>
   </g>
  </g>
  <g id="axes_2">
   <g id="patch_6">
    <path d="M 86.4 443.52 
L 489.6 443.52 
L 489.6 292.32 
L 86.4 292.32 
z
" style="fill: #ffffff"/>
   </g>
   <g id="patch_7">
    <path d="M 90.432 367.92 
L 163.008 367.92 
L 163.008 340.699804 
L 90.432 340.699804 
z
" clip-path="url(#p54a5b3ddaa)" style="fill: #008000; opacity: 0.6"/>
   </g>
   <g id="patch_8">
    <path d="M 171.072 367.92 
L 243.648 367.92 
L 243.648 348.270021 
L 171.072 348.270021 
z
" clip-path="url(#p54a5b3ddaa)" style="fill: #008000; opacity: 0.6"/>
   </g>
   <g id="patch_9">
    <path d="M 251.712 367.92 
L 324.288 367.92 
L 324.288 348.763437 
L 251.712 348.763437 
z
" clip-path="url(#p54a5b3ddaa)" style="fill: #008000; opacity: 0.6"/>
   </g>
   <g id="patch_10">
    <path d="M 332.352 367.92 
L 404.928 367.92 
L 404.928 351.447086 
L 332.352 351.447086 
z
" clip-path="url(#p54a5b3ddaa)" style="fill: #008000; opacity: 0.6"/>
   </g>
   <g id="patch_11">
    <path d="M 412.992 367.92 
L 485.568 367.92 
L 485.568 354.269675 
L 412.992 354.269675 
z
" clip-path="url(#p54a5b3ddaa)" style="fill: #008000; opacity: 0.6"/>
   </g>
   <g id="matplotlib.axis_3">
    <g id="xtick_7">
     <g id="line2d_32">
      <g>
       <use xlink:href="#ma10be9e4ee" x="86.4" y="447.52" style="stroke: #000000; stroke-width: 0.8"/>
      </g>
     </g>
     <g id="text_13">
      <!-- 0 -->
      <g transform="translate(83.21875 462.118438) scale(0.1 -0.1)">
       <use xlink:href="#DejaVuSans-30"/>
      </g>
     </g>
    </g>
    <g id="xtick_8">
     <g id="line2d_33">
      <g>
       <use xlink:href="#ma10be9e4ee" x="167.04" y="447.52" style="stroke: #000000; stroke-width: 0.8"/>
      </g>
     </g>
     <g id="text_14">
      <!-- 1 -->
      <g transform="translate(163.85875 462.118438) scale(0.1 -0.1)">
       <use xlink:href="#DejaVuSans-31"/>
      </g>
     </g>
    </g>
    <g id="xtick_9">
     <g id="line2d_34">
      <g>
       <use xlink:href="#ma10be9e4ee" x="247.68" y="447.52" style="stroke: #000000; stroke-width: 0.8"/>
      </g>
     </g>
     <g id="text_15">
      <!-- 2 -->
      <g transform="translate(244.49875 462.118438) scale(0.1 -0.1)">
       <use xlink:href="#DejaVuSans-32"/>
      </g>
     </g>
    </g>
    <g id="xtick_10">
     <g id="line2d_35">
      <g>
       <use xlink:href="#ma10be9e4ee" x="328.32" y="447.52" style="stroke: #000000; stroke-width: 0.8"/>
      </g>
     </g>
     <g id="text_16">
      <!-- 3 -->
      <g transform="translate(325.13875 462.118438) scale(0.1 -0.1)">
       <defs>
        <path id="DejaVuSans-33" d="M 2597 2516 
Q 3050 2419 3304 2112 
Q 3559 1806 3559 1356 
Q 3559 666 3084 287 
Q 2609 -91 1734 -91 
Q 1441 -91 1130 -33 
Q 819 25 488 141 
L 488 750 
Q 750 597 1062 519 
Q 1375 441 1716 441 
Q 2309 441 2620 675 
Q 2931 909 2931 1356 
Q 2931 1769 2642 2001 
Q 2353 2234 1838 2234 
L 1294 2234 
L 1294 2753 
L 1863 2753 
Q 2328 2753 2575 2939 
Q 2822 3125 2822 3475 
Q 2822 3834 2567 4026 
Q 2313 4219 1838 4219 
Q 1578 4219 1281 4162 
Q 984 4106 628 3988 
L 628 4550 
Q 988 4650 1302 4700 
Q 1616 4750 1894 4750 
Q 2613 4750 3031 4423 
Q 3450 4097 3450 3541 
Q 3450 3153 3228 2886 
Q 3006 2619 2597 2516 
z
" transform="scale(0.015625)"/>
       </defs>
       <use xlink:href="#DejaVuSans-33"/>
      </g>
     </g>
    </g>
    <g id="xtick_11">
     <g id="line2d_36">
      <g>
       <use xlink:href="#ma10be9e4ee" x="408.96" y="447.52" style="stroke: #000000; stroke-width: 0.8"/>
      </g>
     </g>
     <g id="text_17">
      <!-- 4 -->
      <g transform="translate(405.77875 462.118438) scale(0.1 -0.1)">
       <defs>
        <path id="DejaVuSans-34" d="M 2419 4116 
L 825 1625 
L 2419 1625 
L 2419 4116 
z
M 2253 4666 
L 3047 4666 
L 3047 1625 
L 3713 1625 
L 3713 1100 
L 3047 1100 
L 3047 0 
L 2419 0 
L 2419 1100 
L 313 1100 
L 313 1709 
L 2253 4666 
z
" transform="scale(0.015625)"/>
       </defs>
       <use xlink:href="#DejaVuSans-34"/>
      </g>
     </g>
    </g>
    <g id="xtick_12">
     <g id="line2d_37">
      <g>
       <use xlink:href="#ma10be9e4ee" x="489.6" y="447.52" style="stroke: #000000; stroke-width: 0.8"/>
      </g>
     </g>
     <g id="text_18">
      <!-- 5 -->
      <g transform="translate(486.41875 462.118438) scale(0.1 -0.1)">
       <use xlink:href="#DejaVuSans-35"/>
      </g>
     </g>
    </g>
    <g id="text_19">
     <!-- relative distance from ROI center ($\sigma$) -->
     <g transform="translate(214.48 474.276875) scale(0.08 -0.08)">
      <defs>
       <path id="DejaVuSans-72" d="M 2631 2963 
Q 2534 3019 2420 3045 
Q 2306 3072 2169 3072 
Q 1681 3072 1420 2755 
Q 1159 2438 1159 1844 
L 1159 0 
L 581 0 
L 581 3500 
L 1159 3500 
L 1159 2956 
Q 1341 3275 1631 3429 
Q 1922 3584 2338 3584 
Q 2397 3584 2469 3576 
Q 2541 3569 2628 3553 
L 2631 2963 
z
" transform="scale(0.015625)"/>
       <path id="DejaVuSans-69" d="M 603 3500 
L 1178 3500 
L 1178 0 
L 603 0 
L 603 3500 
z
M 603 4863 
L 1178 4863 
L 1178 4134 
L 603 4134 
L 603 4863 
z
" transform="scale(0.015625)"/>
       <path id="DejaVuSans-76" d="M 191 3500 
L 800 3500 
L 1894 563 
L 2988 3500 
L 3597 3500 
L 2284 0 
L 1503 0 
L 191 3500 
z
" transform="scale(0.015625)"/>
       <path id="DejaVuSans-66" d="M 2375 4863 
L 2375 4384 
L 1825 4384 
Q 1516 4384 1395 4259 
Q 1275 4134 1275 3809 
L 1275 3500 
L 2222 3500 
L 2222 3053 
L 1275 3053 
L 1275 0 
L 697 0 
L 697 3053 
L 147 3053 
L 147 3500 
L 697 3500 
L 697 3744 
Q 697 4328 969 4595 
Q 1241 4863 1831 4863 
L 2375 4863 
z
" transform="scale(0.015625)"/>
       <path id="DejaVuSans-6d" d="M 3328 2828 
Q 3544 3216 3844 3400 
Q 4144 3584 4550 3584 
Q 5097 3584 5394 3201 
Q 5691 2819 5691 2113 
L 5691 0 
L 5113 0 
L 5113 2094 
Q 5113 2597 4934 2840 
Q 4756 3084 4391 3084 
Q 3944 3084 3684 2787 
Q 3425 2491 3425 1978 
L 3425 0 
L 2847 0 
L 2847 2094 
Q 2847 2600 2669 2842 
Q 2491 3084 2119 3084 
Q 1678 3084 1418 2786 
Q 1159 2488 1159 1978 
L 1159 0 
L 581 0 
L 581 3500 
L 1159 3500 
L 1159 2956 
Q 1356 3278 1631 3431 
Q 1906 3584 2284 3584 
Q 2666 3584 2933 3390 
Q 3200 3197 3328 2828 
z
" transform="scale(0.015625)"/>
       <path id="DejaVuSans-52" d="M 2841 2188 
Q 3044 2119 3236 1894 
Q 3428 1669 3622 1275 
L 4263 0 
L 3584 0 
L 2988 1197 
Q 2756 1666 2539 1819 
Q 2322 1972 1947 1972 
L 1259 1972 
L 1259 0 
L 628 0 
L 628 4666 
L 2053 4666 
Q 2853 4666 3247 4331 
Q 3641 3997 3641 3322 
Q 3641 2881 3436 2590 
Q 3231 2300 2841 2188 
z
M 1259 4147 
L 1259 2491 
L 2053 2491 
Q 2509 2491 2742 2702 
Q 2975 2913 2975 3322 
Q 2975 3731 2742 3939 
Q 2509 4147 2053 4147 
L 1259 4147 
z
" transform="scale(0.015625)"/>
       <path id="DejaVuSans-49" d="M 628 4666 
L 1259 4666 
L 1259 0 
L 628 0 
L 628 4666 
z
" transform="scale(0.015625)"/>
       <path id="DejaVuSans-28" d="M 1984 4856 
Q 1566 4138 1362 3434 
Q 1159 2731 1159 2009 
Q 1159 1288 1364 580 
Q 1569 -128 1984 -844 
L 1484 -844 
Q 1016 -109 783 600 
Q 550 1309 550 2009 
Q 550 2706 781 3412 
Q 1013 4119 1484 4856 
L 1984 4856 
z
" transform="scale(0.015625)"/>
       <path id="DejaVuSans-Oblique-3c3" d="M 2219 3044 
Q 1744 3044 1422 2700 
Q 1081 2341 969 1747 
Q 844 1119 1044 756 
Q 1241 397 1706 397 
Q 2166 397 2503 759 
Q 2844 1122 2966 1747 
Q 3075 2319 2881 2700 
Q 2700 3044 2219 3044 
z
M 2309 3503 
L 4219 3500 
L 4106 2925 
L 3463 2925 
Q 3706 2438 3575 1747 
Q 3406 888 2884 400 
Q 2359 -91 1609 -91 
Q 856 -91 525 400 
Q 194 888 363 1747 
Q 528 2609 1050 3097 
Q 1484 3503 2309 3503 
z
" transform="scale(0.015625)"/>
       <path id="DejaVuSans-29" d="M 513 4856 
L 1013 4856 
Q 1481 4119 1714 3412 
Q 1947 2706 1947 2009 
Q 1947 1309 1714 600 
Q 1481 -109 1013 -844 
L 513 -844 
Q 928 -128 1133 580 
Q 1338 1288 1338 2009 
Q 1338 2731 1133 3434 
Q 928 4138 513 4856 
z
" transform="scale(0.015625)"/>
      </defs>
      <use xlink:href="#DejaVuSans-72" transform="translate(0 0.015625)"/>
      <use xlink:href="#DejaVuSans-65" transform="translate(41.113281 0.015625)"/>
      <use xlink:href="#DejaVuSans-6c" transform="translate(102.636719 0.015625)"/>
      <use xlink:href="#DejaVuSans-61" transform="translate(130.419922 0.015625)"/>
      <use xlink:href="#DejaVuSans-74" transform="translate(191.699219 0.015625)"/>
      <use xlink:href="#DejaVuSans-69" transform="translate(230.908203 0.015625)"/>
      <use xlink:href="#DejaVuSans-76" transform="translate(258.691406 0.015625)"/>
      <use xlink:href="#DejaVuSans-65" transform="translate(317.871094 0.015625)"/>
      <use xlink:href="#DejaVuSans-20" transform="translate(379.394531 0.015625)"/>
      <use xlink:href="#DejaVuSans-64" transform="translate(411.181641 0.015625)"/>
      <use xlink:href="#DejaVuSans-69" transform="translate(474.658203 0.015625)"/>
      <use xlink:href="#DejaVuSans-73" transform="translate(502.441406 0.015625)"/>
      <use xlink:href="#DejaVuSans-74" transform="translate(554.541016 0.015625)"/>
      <use xlink:href="#DejaVuSans-61" transform="translate(593.75 0.015625)"/>
      <use xlink:href="#DejaVuSans-6e" transform="translate(655.029297 0.015625)"/>
      <use xlink:href="#DejaVuSans-63" transform="translate(718.408203 0.015625)"/>
      <use xlink:href="#DejaVuSans-65" transform="translate(773.388672 0.015625)"/>
      <use xlink:href="#DejaVuSans-20" transform="translate(834.912109 0.015625)"/>
      <use xlink:href="#DejaVuSans-66" transform="translate(866.699219 0.015625)"/>
      <use xlink:href="#DejaVuSans-72" transform="translate(901.904297 0.015625)"/>
      <use xlink:href="#DejaVuSans-6f" transform="translate(943.017578 0.015625)"/>
      <use xlink:href="#DejaVuSans-6d" transform="translate(1004.199219 0.015625)"/>
      <use xlink:href="#DejaVuSans-20" transform="translate(1101.611328 0.015625)"/>
      <use xlink:href="#DejaVuSans-52" transform="translate(1133.398438 0.015625)"/>
      <use xlink:href="#DejaVuSans-4f" transform="translate(1202.880859 0.015625)"/>
      <use xlink:href="#DejaVuSans-49" transform="translate(1281.591797 0.015625)"/>
      <use xlink:href="#DejaVuSans-20" transform="translate(1311.083984 0.015625)"/>
      <use xlink:href="#DejaVuSans-63" transform="translate(1342.871094 0.015625)"/>
      <use xlink:href="#DejaVuSans-65" transform="translate(1397.851562 0.015625)"/>
      <use xlink:href="#DejaVuSans-6e" transform="translate(1459.375 0.015625)"/>
      <use xlink:href="#DejaVuSans-74" transform="translate(1522.753906 0.015625)"/>
      <use xlink:href="#DejaVuSans-65" transform="translate(1561.962891 0.015625)"/>
      <use xlink:href="#DejaVuSans-72" transform="translate(1623.486328 0.015625)"/>
      <use xlink:href="#DejaVuSans-20" transform="translate(1664.599609 0.015625)"/>
      <use xlink:href="#DejaVuSans-28" transform="translate(1696.386719 0.015625)"/>
      <use xlink:href="#DejaVuSans-Oblique-3c3" transform="translate(1735.400391 0.015625)"/>
      <use xlink:href="#DejaVuSans-29" transform="translate(1798.779297 0.015625)"/>
     </g>
    </g>
   </g>
   <g id="matplotlib.axis_4">
    <g id="ytick_10">
     <g id="line2d_38">
      <g>
       <use xlink:href="#me3d72ebfde" x="82.4" y="443.52" style="stroke: #000000; stroke-width: 0.8"/>
      </g>
     </g>
     <g id="text_20">
      <!-- −1.0 -->
      <g transform="translate(51.117187 447.319219) scale(0.1 -0.1)">
       <use xlink:href="#DejaVuSans-2212"/>
       <use xlink:href="#DejaVuSans-31" x="83.789062"/>
       <use xlink:href="#DejaVuSans-2e" x="147.412109"/>
       <use xlink:href="#DejaVuSans-30" x="179.199219"/>
      </g>
     </g>
    </g>
    <g id="ytick_11">
     <g id="line2d_39">
      <g>
       <use xlink:href="#me3d72ebfde" x="82.4" y="405.72" style="stroke: #000000; stroke-width: 0.8"/>
      </g>
     </g>
     <g id="text_21">
      <!-- −0.5 -->
      <g transform="translate(51.117187 409.519219) scale(0.1 -0.1)">
       <use xlink:href="#DejaVuSans-2212"/>
       <use xlink:href="#DejaVuSans-30" x="83.789062"/>
       <use xlink:href="#DejaVuSans-2e" x="147.412109"/>
       <use xlink:href="#DejaVuSans-35" x="179.199219"/>
      </g>
     </g>
    </g>
    <g id="ytick_12">
     <g id="line2d_40">
      <g>
       <use xlink:href="#me3d72ebfde" x="82.4" y="367.92" style="stroke: #000000; stroke-width: 0.8"/>
      </g>
     </g>
     <g id="text_22">
      <!-- 0.0 -->
      <g transform="translate(59.496875 371.719219) scale(0.1 -0.1)">
       <use xlink:href="#DejaVuSans-30"/>
       <use xlink:href="#DejaVuSans-2e" x="63.623047"/>
       <use xlink:href="#DejaVuSans-30" x="95.410156"/>
      </g>
     </g>
    </g>
    <g id="ytick_13">
     <g id="line2d_41">
      <g>
       <use xlink:href="#me3d72ebfde" x="82.4" y="330.12" style="stroke: #000000; stroke-width: 0.8"/>
      </g>
     </g>
     <g id="text_23">
      <!-- 0.5 -->
      <g transform="translate(59.496875 333.919219) scale(0.1 -0.1)">
       <use xlink:href="#DejaVuSans-30"/>
       <use xlink:href="#DejaVuSans-2e" x="63.623047"/>
       <use xlink:href="#DejaVuSans-35" x="95.410156"/>
      </g>
     </g>
    </g>
    <g id="ytick_14">
     <g id="line2d_42">
      <g>
       <use xlink:href="#me3d72ebfde" x="82.4" y="292.32" style="stroke: #000000; stroke-width: 0.8"/>
      </g>
     </g>
     <g id="text_24">
      <!-- 1.0 -->
      <g transform="translate(59.496875 296.119219) scale(0.1 -0.1)">
       <use xlink:href="#DejaVuSans-31"/>
       <use xlink:href="#DejaVuSans-2e" x="63.623047"/>
       <use xlink:href="#DejaVuSans-30" x="95.410156"/>
      </g>
     </g>
    </g>
    <g id="text_25">
     <!-- Binned Avg -->
     <g transform="translate(45.453437 390.525625) rotate(-90) scale(0.08 -0.08)">
      <defs>
       <path id="DejaVuSans-41" d="M 2188 4044 
L 1331 1722 
L 3047 1722 
L 2188 4044 
z
M 1831 4666 
L 2547 4666 
L 4325 0 
L 3669 0 
L 3244 1197 
L 1141 1197 
L 716 0 
L 50 0 
L 1831 4666 
z
" transform="scale(0.015625)"/>
      </defs>
      <use xlink:href="#DejaVuSans-42"/>
      <use xlink:href="#DejaVuSans-69" x="68.603516"/>
      <use xlink:href="#DejaVuSans-6e" x="96.386719"/>
      <use xlink:href="#DejaVuSans-6e" x="159.765625"/>
      <use xlink:href="#DejaVuSans-65" x="223.144531"/>
      <use xlink:href="#DejaVuSans-64" x="284.667969"/>
      <use xlink:href="#DejaVuSans-20" x="348.144531"/>
      <use xlink:href="#DejaVuSans-41" x="379.931641"/>
      <use xlink:href="#DejaVuSans-76" x="442.464844"/>
      <use xlink:href="#DejaVuSans-67" x="501.644531"/>
     </g>
    </g>
   </g>
   <g id="LineCollection_1">
    <path d="M 126.72 349.22634 
L 126.72 332.173268 
" clip-path="url(#p54a5b3ddaa)" style="fill: none; stroke: #000000; stroke-width: 1.5"/>
    <path d="M 207.36 354.108138 
L 207.36 342.431904 
" clip-path="url(#p54a5b3ddaa)" style="fill: none; stroke: #000000; stroke-width: 1.5"/>
    <path d="M 288 356.91502 
L 288 340.611853 
" clip-path="url(#p54a5b3ddaa)" style="fill: none; stroke: #000000; stroke-width: 1.5"/>
    <path d="M 368.64 359.667278 
L 368.64 343.226894 
" clip-path="url(#p54a5b3ddaa)" style="fill: none; stroke: #000000; stroke-width: 1.5"/>
    <path d="M 449.28 361.942075 
L 449.28 346.597275 
" clip-path="url(#p54a5b3ddaa)" style="fill: none; stroke: #000000; stroke-width: 1.5"/>
   </g>
   <g id="line2d_43">
    <defs>
     <path id="ma3f344cac4" d="M 5 0 
L -5 -0 
" style="stroke: #000000"/>
    </defs>
    <g clip-path="url(#p54a5b3ddaa)">
     <use xlink:href="#ma3f344cac4" x="126.72" y="349.22634" style="stroke: #000000"/>
     <use xlink:href="#ma3f344cac4" x="207.36" y="354.108138" style="stroke: #000000"/>
     <use xlink:href="#ma3f344cac4" x="288" y="356.91502" style="stroke: #000000"/>
     <use xlink:href="#ma3f344cac4" x="368.64" y="359.667278" style="stroke: #000000"/>
     <use xlink:href="#ma3f344cac4" x="449.28" y="361.942075" style="stroke: #000000"/>
    </g>
   </g>
   <g id="line2d_44">
    <g clip-path="url(#p54a5b3ddaa)">
     <use xlink:href="#ma3f344cac4" x="126.72" y="332.173268" style="stroke: #000000"/>
     <use xlink:href="#ma3f344cac4" x="207.36" y="342.431904" style="stroke: #000000"/>
     <use xlink:href="#ma3f344cac4" x="288" y="340.611853" style="stroke: #000000"/>
     <use xlink:href="#ma3f344cac4" x="368.64" y="343.226894" style="stroke: #000000"/>
     <use xlink:href="#ma3f344cac4" x="449.28" y="346.597275" style="stroke: #000000"/>
    </g>
   </g>
   <g id="line2d_45">
    <path d="M 126.72 294.373268 
L 126.72 286.813268 
L 449.28 286.813268 
L 449.28 294.373268 
" clip-path="url(#p54a5b3ddaa)" style="fill: none; stroke: #000000; stroke-width: 1.5; stroke-linecap: square"/>
   </g>
   <g id="line2d_46">
    <path d="M 86.4 367.92 
L 489.6 367.92 
" clip-path="url(#p54a5b3ddaa)" style="fill: none; stroke-dasharray: 5.55,2.4; stroke-dashoffset: 0; stroke: #000000; stroke-width: 1.5"/>
   </g>
   <g id="patch_12">
    <path d="M 82.4 443.52 
L 82.4 292.32 
" style="fill: none; stroke: #000000; stroke-width: 0.8; stroke-linejoin: miter; stroke-linecap: square"/>
   </g>
   <g id="patch_13">
    <path d="M 86.4 447.52 
L 489.6 447.52 
" style="fill: none; stroke: #000000; stroke-width: 0.8; stroke-linejoin: miter; stroke-linecap: square"/>
   </g>
   <g id="text_26">
    <!-- * -->
    <g transform="translate(285 290.593268) scale(0.12 -0.12)">
     <defs>
      <path id="DejaVuSans-2a" d="M 3009 3897 
L 1888 3291 
L 3009 2681 
L 2828 2375 
L 1778 3009 
L 1778 1831 
L 1422 1831 
L 1422 3009 
L 372 2375 
L 191 2681 
L 1313 3291 
L 191 3897 
L 372 4206 
L 1422 3572 
L 1422 4750 
L 1778 4750 
L 1778 3572 
L 2828 4206 
L 3009 3897 
z
" transform="scale(0.015625)"/>
     </defs>
     <use xlink:href="#DejaVuSans-2a"/>
    </g>
   </g>
   <g id="text_27">
    <!-- * -->
    <g transform="translate(123.72 329.677643) scale(0.12 -0.12)">
     <use xlink:href="#DejaVuSans-2a"/>
    </g>
   </g>
   <g id="text_28">
    <!-- * -->
    <g transform="translate(204.36 339.936279) scale(0.12 -0.12)">
     <use xlink:href="#DejaVuSans-2a"/>
    </g>
   </g>
   <g id="text_29">
    <!-- * -->
    <g transform="translate(285 338.116228) scale(0.12 -0.12)">
     <use xlink:href="#DejaVuSans-2a"/>
    </g>
   </g>
  </g>
 </g>
 <defs>
  <clipPath id="p15e4890091">
   <rect x="86.4" y="40.32" width="403.2" height="201.6"/>
  </clipPath>
  <clipPath id="p54a5b3ddaa">
   <rect x="86.4" y="292.32" width="403.2" height="151.2"/>
  </clipPath>
 </defs>
</svg>
