<?xml version="1.0" encoding="utf-8" standalone="no"?>
<!DOCTYPE svg PUBLIC "-//W3C//DTD SVG 1.1//EN"
  "http://www.w3.org/Graphics/SVG/1.1/DTD/svg11.dtd">
<svg xmlns:xlink="http://www.w3.org/1999/xlink" width="360pt" height="432pt" viewBox="0 0 360 432" xmlns="http://www.w3.org/2000/svg" version="1.1">
 <metadata>
  <rdf:RDF xmlns:dc="http://purl.org/dc/elements/1.1/" xmlns:cc="http://creativecommons.org/ns#" xmlns:rdf="http://www.w3.org/1999/02/22-rdf-syntax-ns#">
   <cc:Work>
    <dc:type rdf:resource="http://purl.org/dc/dcmitype/StillImage"/>
    <dc:date>2026-05-26T10:35:12.547535</dc:date>
    <dc:format>image/svg+xml</dc:format>
    <dc:creator>
     <cc:Agent>
      <dc:title>Matplotlib v3.8.0, https://matplotlib.org/</dc:title>
     </cc:Agent>
    </dc:creator>
   </cc:Work>
  </rdf:RDF>
 </metadata>
 <defs>
  <style type="text/css">*{stroke-linejoin: round; stroke-linecap: butt}</style>
 </defs>
 <g id="figure_1">
  <g id="patch_1">
   <path d="M 0 432 
L 360 432 
L 360 0 
L 0 0 
z
" style="fill: #ffffff"/>
  </g>
  <g id="axes_1">
   <g id="patch_2">
    <path d="M 54 388.8 
L 306 388.8 
L 306 302.4 
L 54 302.4 
z
" style="fill: #ffffff"/>
   </g>
   <g id="PolyCollection_1">
    <defs>
     <path id="me5c506e66c" d="M 65.454545 -87.410176 
L 65.454545 -84.783475 
L 70.12987 -85.180095 
L 74.805195 -85.577758 
L 79.480519 -85.844366 
L 84.155844 -86.107895 
L 88.831169 -86.275643 
L 93.506494 -86.321596 
L 98.181818 -86.172834 
L 102.857143 -85.61818 
L 107.532468 -85.181634 
L 112.207792 -84.97904 
L 116.883117 -85.02568 
L 121.558442 -85.109149 
L 126.233766 -85.185898 
L 130.909091 -85.186469 
L 135.584416 -85.307378 
L 140.25974 -85.492117 
L 144.935065 -85.385934 
L 149.61039 -85.229625 
L 154.285714 -85.110848 
L 158.961039 -85.000657 
L 163.636364 -84.606916 
L 168.311688 -84.182614 
L 172.987013 -83.990455 
L 177.662338 -84.033804 
L 182.337662 -84.134697 
L 187.012987 -84.256794 
L 191.688312 -84.470974 
L 196.363636 -84.439183 
L 201.038961 -84.429389 
L 205.714286 -84.334007 
L 210.38961 -84.282733 
L 215.064935 -84.342023 
L 219.74026 -84.356378 
L 224.415584 -84.276321 
L 229.090909 -84.168635 
L 233.766234 -84.01527 
L 238.441558 -83.874512 
L 243.116883 -83.762553 
L 247.792208 -83.7085 
L 252.467532 -83.683184 
L 257.142857 -83.603633 
L 261.818182 -83.544978 
L 266.493506 -83.621815 
L 271.168831 -83.594097 
L 275.844156 -83.743072 
L 280.519481 -84.015751 
L 285.194805 -84.357723 
L 289.87013 -84.653577 
L 294.545455 -84.925027 
L 294.545455 -87.863007 
L 294.545455 -87.863007 
L 289.87013 -87.822786 
L 285.194805 -87.699802 
L 280.519481 -87.348366 
L 275.844156 -87.036326 
L 271.168831 -86.939156 
L 266.493506 -86.910605 
L 261.818182 -86.809395 
L 257.142857 -86.791607 
L 252.467532 -86.679961 
L 247.792208 -86.569676 
L 243.116883 -86.490418 
L 238.441558 -86.503684 
L 233.766234 -86.615247 
L 229.090909 -86.815901 
L 224.415584 -86.826597 
L 219.74026 -86.818709 
L 215.064935 -86.697296 
L 210.38961 -86.57108 
L 205.714286 -86.580448 
L 201.038961 -86.660259 
L 196.363636 -86.705465 
L 191.688312 -86.660194 
L 187.012987 -86.473627 
L 182.337662 -86.434006 
L 177.662338 -86.345484 
L 172.987013 -86.206728 
L 168.311688 -86.18606 
L 163.636364 -86.280447 
L 158.961039 -86.378072 
L 154.285714 -86.358151 
L 149.61039 -86.421613 
L 144.935065 -86.567104 
L 140.25974 -86.756488 
L 135.584416 -86.77343 
L 130.909091 -86.901613 
L 126.233766 -87.095642 
L 121.558442 -87.126351 
L 116.883117 -87.135923 
L 112.207792 -87.183623 
L 107.532468 -87.326156 
L 102.857143 -87.646514 
L 98.181818 -88.135912 
L 93.506494 -88.280017 
L 88.831169 -88.26526 
L 84.155844 -88.209557 
L 79.480519 -88.071639 
L 74.805195 -87.98094 
L 70.12987 -87.653523 
L 65.454545 -87.410176 
z
" style="stroke: #ff0000; stroke-opacity: 0.4"/>
    </defs>
    <g clip-path="url(#pa6a019d5d5)">
     <use xlink:href="#me5c506e66c" x="0" y="432" style="fill: #ff0000; fill-opacity: 0.4; stroke: #ff0000; stroke-opacity: 0.4"/>
    </g>
   </g>
   <g id="matplotlib.axis_1">
    <g id="xtick_1">
     <g id="line2d_1">
      <defs>
       <path id="m43b4a341ec" d="M 0 0 
L 0 3.5 
" style="stroke: #000000; stroke-width: 0.8"/>
      </defs>
      <g>
       <use xlink:href="#m43b4a341ec" x="65.454545" y="392.8" style="stroke: #000000; stroke-width: 0.8"/>
      </g>
     </g>
     <g id="text_1">
      <!-- 0 -->
      <g transform="translate(62.273295 407.398438) scale(0.1 -0.1)">
       <defs>
        <path id="DejaVuSans-30" d="M 2034 4250 
Q 1547 4250 1301 3770 
Q 1056 3291 1056 2328 
Q 1056 1369 1301 889 
Q 1547 409 2034 409 
Q 2525 409 2770 889 
Q 3016 1369 3016 2328 
Q 3016 3291 2770 3770 
Q 2525 4250 2034 4250 
z
M 2034 4750 
Q 2819 4750 3233 4129 
Q 3647 3509 3647 2328 
Q 3647 1150 3233 529 
Q 2819 -91 2034 -91 
Q 1250 -91 836 529 
Q 422 1150 422 2328 
Q 422 3509 836 4129 
Q 1250 4750 2034 4750 
z
" transform="scale(0.015625)"/>
       </defs>
       <use xlink:href="#DejaVuSans-30"/>
      </g>
     </g>
    </g>
    <g id="xtick_2">
     <g id="line2d_2">
      <g>
       <use xlink:href="#m43b4a341ec" x="111.272727" y="392.8" style="stroke: #000000; stroke-width: 0.8"/>
      </g>
     </g>
     <g id="text_2">
      <!-- 1 -->
      <g transform="translate(108.091477 407.398438) scale(0.1 -0.1)">
       <defs>
        <path id="DejaVuSans-31" d="M 794 531 
L 1825 531 
L 1825 4091 
L 703 3866 
L 703 4441 
L 1819 4666 
L 2450 4666 
L 2450 531 
L 3481 531 
L 3481 0 
L 794 0 
L 794 531 
z
" transform="scale(0.015625)"/>
       </defs>
       <use xlink:href="#DejaVuSans-31"/>
      </g>
     </g>
    </g>
    <g id="xtick_3">
     <g id="line2d_3">
      <g>
       <use xlink:href="#m43b4a341ec" x="157.090909" y="392.8" style="stroke: #000000; stroke-width: 0.8"/>
      </g>
     </g>
     <g id="text_3">
      <!-- 2 -->
      <g transform="translate(153.909659 407.398438) scale(0.1 -0.1)">
       <defs>
        <path id="DejaVuSans-32" d="M 1228 531 
L 3431 531 
L 3431 0 
L 469 0 
L 469 531 
Q 828 903 1448 1529 
Q 2069 2156 2228 2338 
Q 2531 2678 2651 2914 
Q 2772 3150 2772 3378 
Q 2772 3750 2511 3984 
Q 2250 4219 1831 4219 
Q 1534 4219 1204 4116 
Q 875 4013 500 3803 
L 500 4441 
Q 881 4594 1212 4672 
Q 1544 4750 1819 4750 
Q 2544 4750 2975 4387 
Q 3406 4025 3406 3419 
Q 3406 3131 3298 2873 
Q 3191 2616 2906 2266 
Q 2828 2175 2409 1742 
Q 1991 1309 1228 531 
z
" transform="scale(0.015625)"/>
       </defs>
       <use xlink:href="#DejaVuSans-32"/>
      </g>
     </g>
    </g>
    <g id="xtick_4">
     <g id="line2d_4">
      <g>
       <use xlink:href="#m43b4a341ec" x="202.909091" y="392.8" style="stroke: #000000; stroke-width: 0.8"/>
      </g>
     </g>
     <g id="text_4">
      <!-- 3 -->
      <g transform="translate(199.727841 407.398438) scale(0.1 -0.1)">
       <defs>
        <path id="DejaVuSans-33" d="M 2597 2516 
Q 3050 2419 3304 2112 
Q 3559 1806 3559 1356 
Q 3559 666 3084 287 
Q 2609 -91 1734 -91 
Q 1441 -91 1130 -33 
Q 819 25 488 141 
L 488 750 
Q 750 597 1062 519 
Q 1375 441 1716 441 
Q 2309 441 2620 675 
Q 2931 909 2931 1356 
Q 2931 1769 2642 2001 
Q 2353 2234 1838 2234 
L 1294 2234 
L 1294 2753 
L 1863 2753 
Q 2328 2753 2575 2939 
Q 2822 3125 2822 3475 
Q 2822 3834 2567 4026 
Q 2313 4219 1838 4219 
Q 1578 4219 1281 4162 
Q 984 4106 628 3988 
L 628 4550 
Q 988 4650 1302 4700 
Q 1616 4750 1894 4750 
Q 2613 4750 3031 4423 
Q 3450 4097 3450 3541 
Q 3450 3153 3228 2886 
Q 3006 2619 2597 2516 
z
" transform="scale(0.015625)"/>
       </defs>
       <use xlink:href="#DejaVuSans-33"/>
      </g>
     </g>
    </g>
    <g id="xtick_5">
     <g id="line2d_5">
      <g>
       <use xlink:href="#m43b4a341ec" x="248.727273" y="392.8" style="stroke: #000000; stroke-width: 0.8"/>
      </g>
     </g>
     <g id="text_5">
      <!-- 4 -->
      <g transform="translate(245.546023 407.398438) scale(0.1 -0.1)">
       <defs>
        <path id="DejaVuSans-34" d="M 2419 4116 
L 825 1625 
L 2419 1625 
L 2419 4116 
z
M 2253 4666 
L 3047 4666 
L 3047 1625 
L 3713 1625 
L 3713 1100 
L 3047 1100 
L 3047 0 
L 2419 0 
L 2419 1100 
L 313 1100 
L 313 1709 
L 2253 4666 
z
" transform="scale(0.015625)"/>
       </defs>
       <use xlink:href="#DejaVuSans-34"/>
      </g>
     </g>
    </g>
    <g id="xtick_6">
     <g id="line2d_6">
      <g>
       <use xlink:href="#m43b4a341ec" x="294.545455" y="392.8" style="stroke: #000000; stroke-width: 0.8"/>
      </g>
     </g>
     <g id="text_6">
      <!-- 5 -->
      <g transform="translate(291.364205 407.398438) scale(0.1 -0.1)">
       <defs>
        <path id="DejaVuSans-35" d="M 691 4666 
L 3169 4666 
L 3169 4134 
L 1269 4134 
L 1269 2991 
Q 1406 3038 1543 3061 
Q 1681 3084 1819 3084 
Q 2600 3084 3056 2656 
Q 3513 2228 3513 1497 
Q 3513 744 3044 326 
Q 2575 -91 1722 -91 
Q 1428 -91 1123 -41 
Q 819 9 494 109 
L 494 744 
Q 775 591 1075 516 
Q 1375 441 1709 441 
Q 2250 441 2565 725 
Q 2881 1009 2881 1497 
Q 2881 1984 2565 2268 
Q 2250 2553 1709 2553 
Q 1456 2553 1204 2497 
Q 953 2441 691 2322 
L 691 4666 
z
" transform="scale(0.015625)"/>
       </defs>
       <use xlink:href="#DejaVuSans-35"/>
      </g>
     </g>
    </g>
    <g id="text_7">
     <!-- relative distance from ROI center ($\sigma$) -->
     <g transform="translate(106.48 419.556875) scale(0.08 -0.08)">
      <defs>
       <path id="DejaVuSans-72" d="M 2631 2963 
Q 2534 3019 2420 3045 
Q 2306 3072 2169 3072 
Q 1681 3072 1420 2755 
Q 1159 2438 1159 1844 
L 1159 0 
L 581 0 
L 581 3500 
L 1159 3500 
L 1159 2956 
Q 1341 3275 1631 3429 
Q 1922 3584 2338 3584 
Q 2397 3584 2469 3576 
Q 2541 3569 2628 3553 
L 2631 2963 
z
" transform="scale(0.015625)"/>
       <path id="DejaVuSans-65" d="M 3597 1894 
L 3597 1613 
L 953 1613 
Q 991 1019 1311 708 
Q 1631 397 2203 397 
Q 2534 397 2845 478 
Q 3156 559 3463 722 
L 3463 178 
Q 3153 47 2828 -22 
Q 2503 -91 2169 -91 
Q 1331 -91 842 396 
Q 353 884 353 1716 
Q 353 2575 817 3079 
Q 1281 3584 2069 3584 
Q 2775 3584 3186 3129 
Q 3597 2675 3597 1894 
z
M 3022 2063 
Q 3016 2534 2758 2815 
Q 2500 3097 2075 3097 
Q 1594 3097 1305 2825 
Q 1016 2553 972 2059 
L 3022 2063 
z
" transform="scale(0.015625)"/>
       <path id="DejaVuSans-6c" d="M 603 4863 
L 1178 4863 
L 1178 0 
L 603 0 
L 603 4863 
z
" transform="scale(0.015625)"/>
       <path id="DejaVuSans-61" d="M 2194 1759 
Q 1497 1759 1228 1600 
Q 959 1441 959 1056 
Q 959 750 1161 570 
Q 1363 391 1709 391 
Q 2188 391 2477 730 
Q 2766 1069 2766 1631 
L 2766 1759 
L 2194 1759 
z
M 3341 1997 
L 3341 0 
L 2766 0 
L 2766 531 
Q 2569 213 2275 61 
Q 1981 -91 1556 -91 
Q 1019 -91 701 211 
Q 384 513 384 1019 
Q 384 1609 779 1909 
Q 1175 2209 1959 2209 
L 2766 2209 
L 2766 2266 
Q 2766 2663 2505 2880 
Q 2244 3097 1772 3097 
Q 1472 3097 1187 3025 
Q 903 2953 641 2809 
L 641 3341 
Q 956 3463 1253 3523 
Q 1550 3584 1831 3584 
Q 2591 3584 2966 3190 
Q 3341 2797 3341 1997 
z
" transform="scale(0.015625)"/>
       <path id="DejaVuSans-74" d="M 1172 4494 
L 1172 3500 
L 2356 3500 
L 2356 3053 
L 1172 3053 
L 1172 1153 
Q 1172 725 1289 603 
Q 1406 481 1766 481 
L 2356 481 
L 2356 0 
L 1766 0 
Q 1100 0 847 248 
Q 594 497 594 1153 
L 594 3053 
L 172 3053 
L 172 3500 
L 594 3500 
L 594 4494 
L 1172 4494 
z
" transform="scale(0.015625)"/>
       <path id="DejaVuSans-69" d="M 603 3500 
L 1178 3500 
L 1178 0 
L 603 0 
L 603 3500 
z
M 603 4863 
L 1178 4863 
L 1178 4134 
L 603 4134 
L 603 4863 
z
" transform="scale(0.015625)"/>
       <path id="DejaVuSans-76" d="M 191 3500 
L 800 3500 
L 1894 563 
L 2988 3500 
L 3597 3500 
L 2284 0 
L 1503 0 
L 191 3500 
z
" transform="scale(0.015625)"/>
       <path id="DejaVuSans-20" transform="scale(0.015625)"/>
       <path id="DejaVuSans-64" d="M 2906 2969 
L 2906 4863 
L 3481 4863 
L 3481 0 
L 2906 0 
L 2906 525 
Q 2725 213 2448 61 
Q 2172 -91 1784 -91 
Q 1150 -91 751 415 
Q 353 922 353 1747 
Q 353 2572 751 3078 
Q 1150 3584 1784 3584 
Q 2172 3584 2448 3432 
Q 2725 3281 2906 2969 
z
M 947 1747 
Q 947 1113 1208 752 
Q 1469 391 1925 391 
Q 2381 391 2643 752 
Q 2906 1113 2906 1747 
Q 2906 2381 2643 2742 
Q 2381 3103 1925 3103 
Q 1469 3103 1208 2742 
Q 947 2381 947 1747 
z
" transform="scale(0.015625)"/>
       <path id="DejaVuSans-73" d="M 2834 3397 
L 2834 2853 
Q 2591 2978 2328 3040 
Q 2066 3103 1784 3103 
Q 1356 3103 1142 2972 
Q 928 2841 928 2578 
Q 928 2378 1081 2264 
Q 1234 2150 1697 2047 
L 1894 2003 
Q 2506 1872 2764 1633 
Q 3022 1394 3022 966 
Q 3022 478 2636 193 
Q 2250 -91 1575 -91 
Q 1294 -91 989 -36 
Q 684 19 347 128 
L 347 722 
Q 666 556 975 473 
Q 1284 391 1588 391 
Q 1994 391 2212 530 
Q 2431 669 2431 922 
Q 2431 1156 2273 1281 
Q 2116 1406 1581 1522 
L 1381 1569 
Q 847 1681 609 1914 
Q 372 2147 372 2553 
Q 372 3047 722 3315 
Q 1072 3584 1716 3584 
Q 2034 3584 2315 3537 
Q 2597 3491 2834 3397 
z
" transform="scale(0.015625)"/>
       <path id="DejaVuSans-6e" d="M 3513 2113 
L 3513 0 
L 2938 0 
L 2938 2094 
Q 2938 2591 2744 2837 
Q 2550 3084 2163 3084 
Q 1697 3084 1428 2787 
Q 1159 2491 1159 1978 
L 1159 0 
L 581 0 
L 581 3500 
L 1159 3500 
L 1159 2956 
Q 1366 3272 1645 3428 
Q 1925 3584 2291 3584 
Q 2894 3584 3203 3211 
Q 3513 2838 3513 2113 
z
" transform="scale(0.015625)"/>
       <path id="DejaVuSans-63" d="M 3122 3366 
L 3122 2828 
Q 2878 2963 2633 3030 
Q 2388 3097 2138 3097 
Q 1578 3097 1268 2742 
Q 959 2388 959 1747 
Q 959 1106 1268 751 
Q 1578 397 2138 397 
Q 2388 397 2633 464 
Q 2878 531 3122 666 
L 3122 134 
Q 2881 22 2623 -34 
Q 2366 -91 2075 -91 
Q 1284 -91 818 406 
Q 353 903 353 1747 
Q 353 2603 823 3093 
Q 1294 3584 2113 3584 
Q 2378 3584 2631 3529 
Q 2884 3475 3122 3366 
z
" transform="scale(0.015625)"/>
       <path id="DejaVuSans-66" d="M 2375 4863 
L 2375 4384 
L 1825 4384 
Q 1516 4384 1395 4259 
Q 1275 4134 1275 3809 
L 1275 3500 
L 2222 3500 
L 2222 3053 
L 1275 3053 
L 1275 0 
L 697 0 
L 697 3053 
L 147 3053 
L 147 3500 
L 697 3500 
L 697 3744 
Q 697 4328 969 4595 
Q 1241 4863 1831 4863 
L 2375 4863 
z
" transform="scale(0.015625)"/>
       <path id="DejaVuSans-6f" d="M 1959 3097 
Q 1497 3097 1228 2736 
Q 959 2375 959 1747 
Q 959 1119 1226 758 
Q 1494 397 1959 397 
Q 2419 397 2687 759 
Q 2956 1122 2956 1747 
Q 2956 2369 2687 2733 
Q 2419 3097 1959 3097 
z
M 1959 3584 
Q 2709 3584 3137 3096 
Q 3566 2609 3566 1747 
Q 3566 888 3137 398 
Q 2709 -91 1959 -91 
Q 1206 -91 779 398 
Q 353 888 353 1747 
Q 353 2609 779 3096 
Q 1206 3584 1959 3584 
z
" transform="scale(0.015625)"/>
       <path id="DejaVuSans-6d" d="M 3328 2828 
Q 3544 3216 3844 3400 
Q 4144 3584 4550 3584 
Q 5097 3584 5394 3201 
Q 5691 2819 5691 2113 
L 5691 0 
L 5113 0 
L 5113 2094 
Q 5113 2597 4934 2840 
Q 4756 3084 4391 3084 
Q 3944 3084 3684 2787 
Q 3425 2491 3425 1978 
L 3425 0 
L 2847 0 
L 2847 2094 
Q 2847 2600 2669 2842 
Q 2491 3084 2119 3084 
Q 1678 3084 1418 2786 
Q 1159 2488 1159 1978 
L 1159 0 
L 581 0 
L 581 3500 
L 1159 3500 
L 1159 2956 
Q 1356 3278 1631 3431 
Q 1906 3584 2284 3584 
Q 2666 3584 2933 3390 
Q 3200 3197 3328 2828 
z
" transform="scale(0.015625)"/>
       <path id="DejaVuSans-52" d="M 2841 2188 
Q 3044 2119 3236 1894 
Q 3428 1669 3622 1275 
L 4263 0 
L 3584 0 
L 2988 1197 
Q 2756 1666 2539 1819 
Q 2322 1972 1947 1972 
L 1259 1972 
L 1259 0 
L 628 0 
L 628 4666 
L 2053 4666 
Q 2853 4666 3247 4331 
Q 3641 3997 3641 3322 
Q 3641 2881 3436 2590 
Q 3231 2300 2841 2188 
z
M 1259 4147 
L 1259 2491 
L 2053 2491 
Q 2509 2491 2742 2702 
Q 2975 2913 2975 3322 
Q 2975 3731 2742 3939 
Q 2509 4147 2053 4147 
L 1259 4147 
z
" transform="scale(0.015625)"/>
       <path id="DejaVuSans-4f" d="M 2522 4238 
Q 1834 4238 1429 3725 
Q 1025 3213 1025 2328 
Q 1025 1447 1429 934 
Q 1834 422 2522 422 
Q 3209 422 3611 934 
Q 4013 1447 4013 2328 
Q 4013 3213 3611 3725 
Q 3209 4238 2522 4238 
z
M 2522 4750 
Q 3503 4750 4090 4092 
Q 4678 3434 4678 2328 
Q 4678 1225 4090 567 
Q 3503 -91 2522 -91 
Q 1538 -91 948 565 
Q 359 1222 359 2328 
Q 359 3434 948 4092 
Q 1538 4750 2522 4750 
z
" transform="scale(0.015625)"/>
       <path id="DejaVuSans-49" d="M 628 4666 
L 1259 4666 
L 1259 0 
L 628 0 
L 628 4666 
z
" transform="scale(0.015625)"/>
       <path id="DejaVuSans-28" d="M 1984 4856 
Q 1566 4138 1362 3434 
Q 1159 2731 1159 2009 
Q 1159 1288 1364 580 
Q 1569 -128 1984 -844 
L 1484 -844 
Q 1016 -109 783 600 
Q 550 1309 550 2009 
Q 550 2706 781 3412 
Q 1013 4119 1484 4856 
L 1984 4856 
z
" transform="scale(0.015625)"/>
       <path id="DejaVuSans-Oblique-3c3" d="M 2219 3044 
Q 1744 3044 1422 2700 
Q 1081 2341 969 1747 
Q 844 1119 1044 756 
Q 1241 397 1706 397 
Q 2166 397 2503 759 
Q 2844 1122 2966 1747 
Q 3075 2319 2881 2700 
Q 2700 3044 2219 3044 
z
M 2309 3503 
L 4219 3500 
L 4106 2925 
L 3463 2925 
Q 3706 2438 3575 1747 
Q 3406 888 2884 400 
Q 2359 -91 1609 -91 
Q 856 -91 525 400 
Q 194 888 363 1747 
Q 528 2609 1050 3097 
Q 1484 3503 2309 3503 
z
" transform="scale(0.015625)"/>
       <path id="DejaVuSans-29" d="M 513 4856 
L 1013 4856 
Q 1481 4119 1714 3412 
Q 1947 2706 1947 2009 
Q 1947 1309 1714 600 
Q 1481 -109 1013 -844 
L 513 -844 
Q 928 -128 1133 580 
Q 1338 1288 1338 2009 
Q 1338 2731 1133 3434 
Q 928 4138 513 4856 
z
" transform="scale(0.015625)"/>
      </defs>
      <use xlink:href="#DejaVuSans-72" transform="translate(0 0.015625)"/>
      <use xlink:href="#DejaVuSans-65" transform="translate(41.113281 0.015625)"/>
      <use xlink:href="#DejaVuSans-6c" transform="translate(102.636719 0.015625)"/>
      <use xlink:href="#DejaVuSans-61" transform="translate(130.419922 0.015625)"/>
      <use xlink:href="#DejaVuSans-74" transform="translate(191.699219 0.015625)"/>
      <use xlink:href="#DejaVuSans-69" transform="translate(230.908203 0.015625)"/>
      <use xlink:href="#DejaVuSans-76" transform="translate(258.691406 0.015625)"/>
      <use xlink:href="#DejaVuSans-65" transform="translate(317.871094 0.015625)"/>
      <use xlink:href="#DejaVuSans-20" transform="translate(379.394531 0.015625)"/>
      <use xlink:href="#DejaVuSans-64" transform="translate(411.181641 0.015625)"/>
      <use xlink:href="#DejaVuSans-69" transform="translate(474.658203 0.015625)"/>
      <use xlink:href="#DejaVuSans-73" transform="translate(502.441406 0.015625)"/>
      <use xlink:href="#DejaVuSans-74" transform="translate(554.541016 0.015625)"/>
      <use xlink:href="#DejaVuSans-61" transform="translate(593.75 0.015625)"/>
      <use xlink:href="#DejaVuSans-6e" transform="translate(655.029297 0.015625)"/>
      <use xlink:href="#DejaVuSans-63" transform="translate(718.408203 0.015625)"/>
      <use xlink:href="#DejaVuSans-65" transform="translate(773.388672 0.015625)"/>
      <use xlink:href="#DejaVuSans-20" transform="translate(834.912109 0.015625)"/>
      <use xlink:href="#DejaVuSans-66" transform="translate(866.699219 0.015625)"/>
      <use xlink:href="#DejaVuSans-72" transform="translate(901.904297 0.015625)"/>
      <use xlink:href="#DejaVuSans-6f" transform="translate(943.017578 0.015625)"/>
      <use xlink:href="#DejaVuSans-6d" transform="translate(1004.199219 0.015625)"/>
      <use xlink:href="#DejaVuSans-20" transform="translate(1101.611328 0.015625)"/>
      <use xlink:href="#DejaVuSans-52" transform="translate(1133.398438 0.015625)"/>
      <use xlink:href="#DejaVuSans-4f" transform="translate(1202.880859 0.015625)"/>
      <use xlink:href="#DejaVuSans-49" transform="translate(1281.591797 0.015625)"/>
      <use xlink:href="#DejaVuSans-20" transform="translate(1311.083984 0.015625)"/>
      <use xlink:href="#DejaVuSans-63" transform="translate(1342.871094 0.015625)"/>
      <use xlink:href="#DejaVuSans-65" transform="translate(1397.851562 0.015625)"/>
      <use xlink:href="#DejaVuSans-6e" transform="translate(1459.375 0.015625)"/>
      <use xlink:href="#DejaVuSans-74" transform="translate(1522.753906 0.015625)"/>
      <use xlink:href="#DejaVuSans-65" transform="translate(1561.962891 0.015625)"/>
      <use xlink:href="#DejaVuSans-72" transform="translate(1623.486328 0.015625)"/>
      <use xlink:href="#DejaVuSans-20" transform="translate(1664.599609 0.015625)"/>
      <use xlink:href="#DejaVuSans-28" transform="translate(1696.386719 0.015625)"/>
      <use xlink:href="#DejaVuSans-Oblique-3c3" transform="translate(1735.400391 0.015625)"/>
      <use xlink:href="#DejaVuSans-29" transform="translate(1798.779297 0.015625)"/>
     </g>
    </g>
   </g>
   <g id="matplotlib.axis_2">
    <g id="ytick_1">
     <g id="line2d_7">
      <defs>
       <path id="m283cac3ba2" d="M 0 0 
L -3.5 0 
" style="stroke: #000000; stroke-width: 0.8"/>
      </defs>
      <g>
       <use xlink:href="#m283cac3ba2" x="50" y="376.457143" style="stroke: #000000; stroke-width: 0.8"/>
      </g>
     </g>
     <g id="text_8">
      <!-- −5 -->
      <g transform="translate(28.257812 380.256362) scale(0.1 -0.1)">
       <defs>
        <path id="DejaVuSans-2212" d="M 678 2272 
L 4684 2272 
L 4684 1741 
L 678 1741 
L 678 2272 
z
" transform="scale(0.015625)"/>
       </defs>
       <use xlink:href="#DejaVuSans-2212"/>
       <use xlink:href="#DejaVuSans-35" x="83.789062"/>
      </g>
     </g>
    </g>
    <g id="ytick_2">
     <g id="line2d_8">
      <g>
       <use xlink:href="#m283cac3ba2" x="50" y="345.6" style="stroke: #000000; stroke-width: 0.8"/>
      </g>
     </g>
     <g id="text_9">
      <!-- 0 -->
      <g transform="translate(36.6375 349.399219) scale(0.1 -0.1)">
       <use xlink:href="#DejaVuSans-30"/>
      </g>
     </g>
    </g>
    <g id="ytick_3">
     <g id="line2d_9">
      <g>
       <use xlink:href="#m283cac3ba2" x="50" y="314.742857" style="stroke: #000000; stroke-width: 0.8"/>
      </g>
     </g>
     <g id="text_10">
      <!-- 5 -->
      <g transform="translate(36.6375 318.542076) scale(0.1 -0.1)">
       <use xlink:href="#DejaVuSans-35"/>
      </g>
     </g>
    </g>
    <g id="text_11">
     <!-- BOLD % change -->
     <g transform="translate(22.594062 377.79625) rotate(-90) scale(0.08 -0.08)">
      <defs>
       <path id="DejaVuSans-42" d="M 1259 2228 
L 1259 519 
L 2272 519 
Q 2781 519 3026 730 
Q 3272 941 3272 1375 
Q 3272 1813 3026 2020 
Q 2781 2228 2272 2228 
L 1259 2228 
z
M 1259 4147 
L 1259 2741 
L 2194 2741 
Q 2656 2741 2882 2914 
Q 3109 3088 3109 3444 
Q 3109 3797 2882 3972 
Q 2656 4147 2194 4147 
L 1259 4147 
z
M 628 4666 
L 2241 4666 
Q 2963 4666 3353 4366 
Q 3744 4066 3744 3513 
Q 3744 3084 3544 2831 
Q 3344 2578 2956 2516 
Q 3422 2416 3680 2098 
Q 3938 1781 3938 1306 
Q 3938 681 3513 340 
Q 3088 0 2303 0 
L 628 0 
L 628 4666 
z
" transform="scale(0.015625)"/>
       <path id="DejaVuSans-4c" d="M 628 4666 
L 1259 4666 
L 1259 531 
L 3531 531 
L 3531 0 
L 628 0 
L 628 4666 
z
" transform="scale(0.015625)"/>
       <path id="DejaVuSans-44" d="M 1259 4147 
L 1259 519 
L 2022 519 
Q 2988 519 3436 956 
Q 3884 1394 3884 2338 
Q 3884 3275 3436 3711 
Q 2988 4147 2022 4147 
L 1259 4147 
z
M 628 4666 
L 1925 4666 
Q 3281 4666 3915 4102 
Q 4550 3538 4550 2338 
Q 4550 1131 3912 565 
Q 3275 0 1925 0 
L 628 0 
L 628 4666 
z
" transform="scale(0.015625)"/>
       <path id="DejaVuSans-25" d="M 4653 2053 
Q 4381 2053 4226 1822 
Q 4072 1591 4072 1178 
Q 4072 772 4226 539 
Q 4381 306 4653 306 
Q 4919 306 5073 539 
Q 5228 772 5228 1178 
Q 5228 1588 5073 1820 
Q 4919 2053 4653 2053 
z
M 4653 2450 
Q 5147 2450 5437 2106 
Q 5728 1763 5728 1178 
Q 5728 594 5436 251 
Q 5144 -91 4653 -91 
Q 4153 -91 3862 251 
Q 3572 594 3572 1178 
Q 3572 1766 3864 2108 
Q 4156 2450 4653 2450 
z
M 1428 4353 
Q 1159 4353 1004 4120 
Q 850 3888 850 3481 
Q 850 3069 1003 2837 
Q 1156 2606 1428 2606 
Q 1700 2606 1854 2837 
Q 2009 3069 2009 3481 
Q 2009 3884 1853 4118 
Q 1697 4353 1428 4353 
z
M 4250 4750 
L 4750 4750 
L 1831 -91 
L 1331 -91 
L 4250 4750 
z
M 1428 4750 
Q 1922 4750 2215 4408 
Q 2509 4066 2509 3481 
Q 2509 2891 2217 2550 
Q 1925 2209 1428 2209 
Q 931 2209 642 2551 
Q 353 2894 353 3481 
Q 353 4063 643 4406 
Q 934 4750 1428 4750 
z
" transform="scale(0.015625)"/>
       <path id="DejaVuSans-68" d="M 3513 2113 
L 3513 0 
L 2938 0 
L 2938 2094 
Q 2938 2591 2744 2837 
Q 2550 3084 2163 3084 
Q 1697 3084 1428 2787 
Q 1159 2491 1159 1978 
L 1159 0 
L 581 0 
L 581 4863 
L 1159 4863 
L 1159 2956 
Q 1366 3272 1645 3428 
Q 1925 3584 2291 3584 
Q 2894 3584 3203 3211 
Q 3513 2838 3513 2113 
z
" transform="scale(0.015625)"/>
       <path id="DejaVuSans-67" d="M 2906 1791 
Q 2906 2416 2648 2759 
Q 2391 3103 1925 3103 
Q 1463 3103 1205 2759 
Q 947 2416 947 1791 
Q 947 1169 1205 825 
Q 1463 481 1925 481 
Q 2391 481 2648 825 
Q 2906 1169 2906 1791 
z
M 3481 434 
Q 3481 -459 3084 -895 
Q 2688 -1331 1869 -1331 
Q 1566 -1331 1297 -1286 
Q 1028 -1241 775 -1147 
L 775 -588 
Q 1028 -725 1275 -790 
Q 1522 -856 1778 -856 
Q 2344 -856 2625 -561 
Q 2906 -266 2906 331 
L 2906 616 
Q 2728 306 2450 153 
Q 2172 0 1784 0 
Q 1141 0 747 490 
Q 353 981 353 1791 
Q 353 2603 747 3093 
Q 1141 3584 1784 3584 
Q 2172 3584 2450 3431 
Q 2728 3278 2906 2969 
L 2906 3500 
L 3481 3500 
L 3481 434 
z
" transform="scale(0.015625)"/>
      </defs>
      <use xlink:href="#DejaVuSans-42"/>
      <use xlink:href="#DejaVuSans-4f" x="66.853516"/>
      <use xlink:href="#DejaVuSans-4c" x="145.564453"/>
      <use xlink:href="#DejaVuSans-44" x="201.277344"/>
      <use xlink:href="#DejaVuSans-20" x="278.279297"/>
      <use xlink:href="#DejaVuSans-25" x="310.066406"/>
      <use xlink:href="#DejaVuSans-20" x="405.085938"/>
      <use xlink:href="#DejaVuSans-63" x="436.873047"/>
      <use xlink:href="#DejaVuSans-68" x="491.853516"/>
      <use xlink:href="#DejaVuSans-61" x="555.232422"/>
      <use xlink:href="#DejaVuSans-6e" x="616.511719"/>
      <use xlink:href="#DejaVuSans-67" x="679.890625"/>
      <use xlink:href="#DejaVuSans-65" x="743.367188"/>
     </g>
    </g>
   </g>
   <g id="line2d_10">
    <path d="M 65.454545 345.903175 
L 70.12987 345.583191 
L 74.805195 345.220651 
L 79.480519 345.041997 
L 84.155844 344.841274 
L 88.831169 344.729548 
L 93.506494 344.699193 
L 98.181818 344.845627 
L 102.857143 345.367653 
L 107.532468 345.746105 
L 112.207792 345.918669 
L 116.883117 345.919199 
L 121.558442 345.88225 
L 126.233766 345.85923 
L 130.909091 345.955959 
L 135.584416 345.959596 
L 140.25974 345.875697 
L 144.935065 346.023481 
L 149.61039 346.174381 
L 154.285714 346.2655 
L 158.961039 346.310635 
L 163.636364 346.556318 
L 168.311688 346.815663 
L 172.987013 346.901408 
L 177.662338 346.810356 
L 182.337662 346.715649 
L 187.012987 346.634789 
L 191.688312 346.434416 
L 196.363636 346.427676 
L 201.038961 346.455176 
L 205.714286 346.542773 
L 210.38961 346.573093 
L 215.064935 346.48034 
L 219.74026 346.412456 
L 224.415584 346.448541 
L 229.090909 346.507732 
L 233.766234 346.684741 
L 238.441558 346.810902 
L 243.116883 346.873514 
L 247.792208 346.860912 
L 252.467532 346.818427 
L 257.142857 346.80238 
L 261.818182 346.822813 
L 266.493506 346.73379 
L 271.168831 346.733373 
L 275.844156 346.610301 
L 280.519481 346.317941 
L 285.194805 345.971238 
L 289.87013 345.761819 
L 294.545455 345.605983 
" clip-path="url(#pa6a019d5d5)" style="fill: none; stroke: #ff0000; stroke-width: 1.5; stroke-linecap: square"/>
   </g>
   <g id="line2d_11">
    <path d="M 65.454545 337.349111 
L 70.12987 337.58037 
L 74.805195 337.778253 
L 79.480519 338.515023 
L 84.155844 339.020673 
L 88.831169 340.479008 
L 93.506494 341.744279 
L 98.181818 342.421113 
L 102.857143 342.923907 
L 107.532468 342.281066 
L 112.207792 341.7976 
L 116.883117 340.995518 
L 121.558442 340.849171 
L 126.233766 341.652472 
L 130.909091 342.339849 
L 135.584416 342.805679 
L 140.25974 343.094616 
L 144.935065 343.355511 
L 149.61039 343.200466 
L 154.285714 343.171092 
L 158.961039 343.015639 
L 163.636364 342.804009 
L 168.311688 342.823289 
L 172.987013 342.68238 
L 177.662338 342.299909 
L 182.337662 342.544234 
L 187.012987 342.789739 
L 191.688312 341.998769 
L 196.363636 341.16421 
L 201.038961 341.442871 
L 205.714286 342.260383 
L 210.38961 343.700835 
L 215.064935 344.201005 
L 219.74026 343.919615 
L 224.415584 343.668739 
L 229.090909 343.035047 
L 233.766234 343.327054 
L 238.441558 344.0696 
L 243.116883 344.168217 
L 247.792208 343.522291 
L 252.467532 342.532273 
L 257.142857 341.386079 
L 261.818182 340.98601 
L 266.493506 341.179105 
L 271.168831 341.577822 
L 275.844156 341.488629 
L 280.519481 340.853938 
L 285.194805 340.072382 
L 289.87013 340.183509 
L 294.545455 340.934076 
" clip-path="url(#pa6a019d5d5)" style="fill: none; stroke: #ff0000; stroke-opacity: 0.2; stroke-width: 1.5; stroke-linecap: square"/>
   </g>
   <g id="line2d_12">
    <path d="M 65.454545 343.765622 
L 70.12987 343.765622 
L 74.805195 343.903456 
L 79.480519 344.090281 
L 84.155844 344.001154 
L 88.831169 343.557086 
L 93.506494 342.667222 
L 98.181818 341.820818 
L 102.857143 341.554058 
L 107.532468 341.398473 
L 112.207792 341.837262 
L 116.883117 342.168875 
L 121.558442 342.233321 
L 126.233766 342.599741 
L 130.909091 342.671704 
L 135.584416 342.798615 
L 140.25974 343.000007 
L 144.935065 343.231927 
L 149.61039 343.846696 
L 154.285714 344.271008 
L 158.961039 344.480908 
L 163.636364 344.803492 
L 168.311688 344.769027 
L 172.987013 344.613163 
L 177.662338 344.23694 
L 182.337662 343.873432 
L 187.012987 344.064982 
L 191.688312 344.355974 
L 196.363636 344.727743 
L 201.038961 344.620969 
L 205.714286 344.292293 
L 210.38961 343.604692 
L 215.064935 343.336271 
L 219.74026 343.303314 
L 224.415584 343.153627 
L 229.090909 343.127701 
L 233.766234 342.997803 
L 238.441558 342.726877 
L 243.116883 342.453442 
L 247.792208 342.404422 
L 252.467532 342.302427 
L 257.142857 342.028878 
L 261.818182 341.781386 
L 266.493506 341.320969 
L 271.168831 340.676458 
L 275.844156 339.993981 
L 280.519481 339.698569 
L 285.194805 339.585042 
L 289.87013 339.743579 
L 294.545455 339.93808 
" clip-path="url(#pa6a019d5d5)" style="fill: none; stroke: #ff0000; stroke-opacity: 0.2; stroke-width: 1.5; stroke-linecap: square"/>
   </g>
   <g id="line2d_13">
    <path d="M 65.454545 349.140288 
L 70.12987 348.973369 
L 74.805195 348.34009 
L 79.480519 347.920974 
L 84.155844 347.622865 
L 88.831169 347.345336 
L 93.506494 347.052328 
L 98.181818 346.900336 
L 102.857143 346.7693 
L 107.532468 346.841987 
L 112.207792 346.624421 
L 116.883117 346.667624 
L 121.558442 347.170901 
L 126.233766 347.350054 
L 130.909091 347.434567 
L 135.584416 347.511877 
L 140.25974 347.775039 
L 144.935065 347.70289 
L 149.61039 347.371289 
L 154.285714 346.824232 
L 158.961039 346.434676 
L 163.636364 346.230111 
L 168.311688 346.077576 
L 172.987013 345.952656 
L 177.662338 345.759145 
L 182.337662 345.485592 
L 187.012987 345.421448 
L 191.688312 345.529777 
L 196.363636 345.661236 
L 201.038961 345.453426 
L 205.714286 345.071496 
L 210.38961 344.146831 
L 215.064935 343.2186 
L 219.74026 342.898579 
L 224.415584 343.003802 
L 229.090909 343.390732 
L 233.766234 344.33785 
L 238.441558 345.21921 
L 243.116883 345.95332 
L 247.792208 345.840714 
L 252.467532 345.711775 
L 257.142857 345.448481 
L 261.818182 345.831169 
L 266.493506 346.045697 
L 271.168831 346.205503 
L 275.844156 346.077728 
L 280.519481 345.802402 
L 285.194805 345.9067 
L 289.87013 346.514354 
L 294.545455 346.80078 
" clip-path="url(#pa6a019d5d5)" style="fill: none; stroke: #ff0000; stroke-opacity: 0.2; stroke-width: 1.5; stroke-linecap: square"/>
   </g>
   <g id="line2d_14">
    <path d="M 65.454545 347.926392 
L 70.12987 347.926392 
L 74.805195 348.042109 
L 79.480519 348.278238 
L 84.155844 348.411595 
L 88.831169 348.498457 
L 93.506494 348.990061 
L 98.181818 348.921441 
L 102.857143 348.695198 
L 107.532468 348.044488 
L 112.207792 347.046459 
L 116.883117 346.273914 
L 121.558442 345.733972 
L 126.233766 345.226893 
L 130.909091 344.68127 
L 135.584416 344.827405 
L 140.25974 345.210724 
L 144.935065 345.574341 
L 149.61039 345.635314 
L 154.285714 345.664428 
L 158.961039 345.83499 
L 163.636364 346.183727 
L 168.311688 346.524885 
L 172.987013 346.790692 
L 177.662338 346.633654 
L 182.337662 346.601942 
L 187.012987 346.361591 
L 191.688312 346.381787 
L 196.363636 346.468292 
L 201.038961 346.718423 
L 205.714286 347.010047 
L 210.38961 347.07127 
L 215.064935 347.066666 
L 219.74026 346.597325 
L 224.415584 346.341184 
L 229.090909 346.159221 
L 233.766234 346.109791 
L 238.441558 345.994517 
L 243.116883 345.652568 
L 247.792208 345.415242 
L 252.467532 345.20466 
L 257.142857 345.089706 
L 261.818182 345.294702 
L 266.493506 345.025633 
L 271.168831 345.000117 
L 275.844156 345.359868 
L 280.519481 345.430123 
L 285.194805 345.13504 
L 289.87013 344.817488 
L 294.545455 344.366175 
" clip-path="url(#pa6a019d5d5)" style="fill: none; stroke: #ff0000; stroke-opacity: 0.2; stroke-width: 1.5; stroke-linecap: square"/>
   </g>
   <g id="line2d_15">
    <path d="M 65.454545 342.770336 
L 70.12987 342.794231 
L 74.805195 341.980554 
L 79.480519 342.039349 
L 84.155844 343.027656 
L 88.831169 342.202029 
L 93.506494 341.647318 
L 98.181818 341.955663 
L 102.857143 342.657114 
L 107.532468 343.988296 
L 112.207792 345.056208 
L 116.883117 345.167357 
L 121.558442 344.288966 
L 126.233766 343.605514 
L 130.909091 343.561515 
L 135.584416 343.261733 
L 140.25974 342.848837 
L 144.935065 343.059169 
L 149.61039 343.549535 
L 154.285714 343.494242 
L 158.961039 343.113739 
L 163.636364 342.73444 
L 168.311688 342.489133 
L 172.987013 342.27819 
L 177.662338 342.587372 
L 182.337662 342.898971 
L 187.012987 343.115657 
L 191.688312 343.047357 
L 196.363636 343.209293 
L 201.038961 343.359302 
L 205.714286 343.143826 
L 210.38961 342.878933 
L 215.064935 342.824917 
L 219.74026 342.710076 
L 224.415584 342.596231 
L 229.090909 342.642702 
L 233.766234 342.868 
L 238.441558 342.842747 
L 243.116883 342.871596 
L 247.792208 342.731181 
L 252.467532 342.636416 
L 257.142857 342.386898 
L 261.818182 341.977599 
L 266.493506 341.785807 
L 271.168831 341.451718 
L 275.844156 341.57782 
L 280.519481 340.991409 
L 285.194805 340.207282 
L 289.87013 339.53673 
L 294.545455 339.356887 
" clip-path="url(#pa6a019d5d5)" style="fill: none; stroke: #ff0000; stroke-opacity: 0.2; stroke-width: 1.5; stroke-linecap: square"/>
   </g>
   <g id="line2d_16">
    <path d="M 65.454545 344.749587 
L 70.12987 343.650332 
L 74.805195 341.849512 
L 79.480519 340.850616 
L 84.155844 340.272464 
L 88.831169 339.931752 
L 93.506494 340.392462 
L 98.181818 341.004743 
L 102.857143 343.045544 
L 107.532468 344.517095 
L 112.207792 344.392479 
L 116.883117 344.778284 
L 121.558442 344.979613 
L 126.233766 344.911667 
L 130.909091 346.194219 
L 135.584416 346.984806 
L 140.25974 347.161445 
L 144.935065 348.137458 
L 149.61039 348.855872 
L 154.285714 349.143724 
L 158.961039 348.652708 
L 163.636364 349.136988 
L 168.311688 349.868701 
L 172.987013 350.426408 
L 177.662338 350.923678 
L 182.337662 351.389736 
L 187.012987 351.509973 
L 191.688312 351.260488 
L 196.363636 351.582968 
L 201.038961 352.231128 
L 205.714286 352.652282 
L 210.38961 353.11194 
L 215.064935 353.260068 
L 219.74026 353.632341 
L 224.415584 353.820019 
L 229.090909 354.029251 
L 233.766234 353.914321 
L 238.441558 353.401337 
L 243.116883 353.038409 
L 247.792208 352.091258 
L 252.467532 351.80246 
L 257.142857 352.163553 
L 261.818182 352.359983 
L 266.493506 352.801116 
L 271.168831 353.287383 
L 275.844156 353.768839 
L 280.519481 353.850291 
L 285.194805 352.974387 
L 289.87013 351.935729 
L 294.545455 350.527587 
" clip-path="url(#pa6a019d5d5)" style="fill: none; stroke: #ff0000; stroke-opacity: 0.2; stroke-width: 1.5; stroke-linecap: square"/>
   </g>
   <g id="line2d_17">
    <path d="M 65.454545 349.84279 
L 70.12987 349.681408 
L 74.805195 349.533212 
L 79.480519 349.931672 
L 84.155844 349.962994 
L 88.831169 350.311086 
L 93.506494 350.22082 
L 98.181818 349.991691 
L 102.857143 349.590841 
L 107.532468 349.767004 
L 112.207792 349.389823 
L 116.883117 348.563982 
L 121.558442 347.544768 
L 126.233766 347.018619 
L 130.909091 346.867856 
L 135.584416 346.915335 
L 140.25974 347.324497 
L 144.935065 347.734884 
L 149.61039 348.541848 
L 154.285714 349.221258 
L 158.961039 349.594268 
L 163.636364 349.806698 
L 168.311688 350.176134 
L 172.987013 350.236072 
L 177.662338 350.282385 
L 182.337662 350.550917 
L 187.012987 350.424197 
L 191.688312 350.258159 
L 196.363636 350.297848 
L 201.038961 350.293103 
L 205.714286 350.387233 
L 210.38961 350.562427 
L 215.064935 350.293519 
L 219.74026 350.001355 
L 224.415584 350.033482 
L 229.090909 350.298703 
L 233.766234 350.597001 
L 238.441558 351.122228 
L 243.116883 351.855891 
L 247.792208 353.152026 
L 252.467532 354.205895 
L 257.142857 354.736628 
L 261.818182 354.837936 
L 266.493506 354.7451 
L 271.168831 354.320922 
L 275.844156 353.29445 
L 280.519481 352.753093 
L 285.194805 352.571862 
L 289.87013 352.113475 
L 294.545455 352.136114 
" clip-path="url(#pa6a019d5d5)" style="fill: none; stroke: #ff0000; stroke-opacity: 0.2; stroke-width: 1.5; stroke-linecap: square"/>
   </g>
   <g id="line2d_18">
    <path d="M 65.454545 348.955742 
L 70.12987 349.271494 
L 74.805195 349.674667 
L 79.480519 348.787762 
L 84.155844 347.42076 
L 88.831169 345.770603 
L 93.506494 344.350327 
L 98.181818 344.045524 
L 102.857143 344.598294 
L 107.532468 345.230152 
L 112.207792 346.021713 
L 116.883117 346.952279 
L 121.558442 347.918933 
L 126.233766 348.259998 
L 130.909091 348.319002 
L 135.584416 347.91185 
L 140.25974 347.546419 
L 144.935065 347.397875 
L 149.61039 347.545222 
L 154.285714 347.496077 
L 158.961039 347.563262 
L 163.636364 347.872958 
L 168.311688 348.337314 
L 172.987013 348.435016 
L 177.662338 348.626119 
L 182.337662 348.511724 
L 187.012987 348.521607 
L 191.688312 348.680254 
L 196.363636 348.910371 
L 201.038961 348.912912 
L 205.714286 348.985873 
L 210.38961 349.066914 
L 215.064935 348.824446 
L 219.74026 348.984121 
L 224.415584 348.68002 
L 229.090909 348.291264 
L 233.766234 348.032986 
L 238.441558 347.545162 
L 243.116883 347.335839 
L 247.792208 347.370575 
L 252.467532 347.528968 
L 257.142857 347.974361 
L 261.818182 348.106839 
L 266.493506 348.121149 
L 271.168831 348.435362 
L 275.844156 348.680607 
L 280.519481 348.3586 
L 285.194805 348.133919 
L 289.87013 348.092445 
L 294.545455 348.288396 
" clip-path="url(#pa6a019d5d5)" style="fill: none; stroke: #ff0000; stroke-opacity: 0.2; stroke-width: 1.5; stroke-linecap: square"/>
   </g>
   <g id="line2d_19">
    <path d="M 65.454545 347.652885 
L 70.12987 347.918909 
L 74.805195 347.627444 
L 79.480519 347.686357 
L 84.155844 347.576685 
L 88.831169 347.12168 
L 93.506494 346.569593 
L 98.181818 347.004565 
L 102.857143 347.386905 
L 107.532468 347.291545 
L 112.207792 347.241922 
L 116.883117 347.355379 
L 121.558442 347.476786 
L 126.233766 347.636073 
L 130.909091 347.486157 
L 135.584416 347.552817 
L 140.25974 347.424351 
L 144.935065 347.45082 
L 149.61039 347.246004 
L 154.285714 346.77514 
L 158.961039 346.237524 
L 163.636364 345.992772 
L 168.311688 345.725197 
L 172.987013 345.854595 
L 177.662338 345.901221 
L 182.337662 345.679244 
L 187.012987 345.78144 
L 191.688312 345.669447 
L 196.363636 345.948196 
L 201.038961 346.232486 
L 205.714286 346.813727 
L 210.38961 347.325738 
L 215.064935 347.482087 
L 219.74026 347.432521 
L 224.415584 347.456702 
L 229.090909 347.288654 
L 233.766234 347.168138 
L 238.441558 346.677624 
L 243.116883 346.361414 
L 247.792208 346.500691 
L 252.467532 346.511134 
L 257.142857 346.379013 
L 261.818182 346.743583 
L 266.493506 346.78725 
L 271.168831 346.37487 
L 275.844156 345.896971 
L 280.519481 345.927925 
L 285.194805 346.33344 
L 289.87013 346.299981 
L 294.545455 346.128936 
" clip-path="url(#pa6a019d5d5)" style="fill: none; stroke: #ff0000; stroke-opacity: 0.2; stroke-width: 1.5; stroke-linecap: square"/>
   </g>
   <g id="line2d_20">
    <path d="M 65.454545 352.590939 
L 70.12987 350.050008 
L 74.805195 348.366067 
L 79.480519 346.188065 
L 84.155844 344.839235 
L 88.831169 345.45059 
L 93.506494 346.88682 
L 98.181818 348.204144 
L 102.857143 351.158643 
L 107.532468 353.068922 
L 112.207792 354.454624 
L 116.883117 354.187525 
L 121.558442 353.671784 
L 126.233766 353.249871 
L 130.909091 352.371463 
L 135.584416 350.740227 
L 140.25974 348.754474 
L 144.935065 347.720746 
L 149.61039 347.521958 
L 154.285714 348.205399 
L 158.961039 349.807749 
L 163.636364 351.986507 
L 168.311688 353.962535 
L 172.987013 355.003741 
L 177.662338 354.932791 
L 182.337662 354.221206 
L 187.012987 353.388428 
L 191.688312 352.494106 
L 196.363636 352.10595 
L 201.038961 351.188079 
L 205.714286 350.952503 
L 210.38961 350.586033 
L 215.064935 350.81907 
L 219.74026 351.326105 
L 224.415584 352.334993 
L 229.090909 353.329859 
L 233.766234 353.770206 
L 238.441558 354.799742 
L 243.116883 355.51632 
L 247.792208 356.139824 
L 252.467532 356.260666 
L 257.142857 356.716387 
L 261.818182 356.734221 
L 266.493506 356.264478 
L 271.168831 356.588478 
L 275.844156 356.178824 
L 280.519481 355.830697 
L 285.194805 355.349551 
L 289.87013 354.442552 
L 294.545455 353.259765 
" clip-path="url(#pa6a019d5d5)" style="fill: none; stroke: #ff0000; stroke-opacity: 0.2; stroke-width: 1.5; stroke-linecap: square"/>
   </g>
   <g id="line2d_21">
    <path d="M 65.454545 340.191228 
L 70.12987 339.802969 
L 74.805195 340.331796 
L 79.480519 341.173636 
L 84.155844 341.09793 
L 88.831169 341.357406 
L 93.506494 341.169897 
L 98.181818 341.031859 
L 102.857143 340.664377 
L 107.532468 340.778126 
L 112.207792 341.242844 
L 116.883117 342.000448 
L 121.558442 342.836535 
L 126.233766 342.940631 
L 130.909091 343.587946 
L 135.584416 344.24521 
L 140.25974 344.492261 
L 144.935065 344.892667 
L 149.61039 344.603984 
L 154.285714 344.653904 
L 158.961039 344.681526 
L 163.636364 344.567797 
L 168.311688 344.218502 
L 172.987013 343.642577 
L 177.662338 342.730706 
L 182.337662 342.11514 
L 187.012987 341.603621 
L 191.688312 341.102463 
L 196.363636 340.628332 
L 201.038961 340.554234 
L 205.714286 340.400837 
L 210.38961 340.248414 
L 215.064935 339.957094 
L 219.74026 339.731666 
L 224.415584 339.845153 
L 229.090909 339.991915 
L 233.766234 340.409005 
L 238.441558 340.52088 
L 243.116883 340.401642 
L 247.792208 340.301806 
L 252.467532 340.306027 
L 257.142857 340.516196 
L 261.818182 340.397519 
L 266.493506 339.995384 
L 271.168831 340.148473 
L 275.844156 340.395591 
L 280.519481 340.000307 
L 285.194805 339.414009 
L 289.87013 339.700163 
L 294.545455 339.929017 
" clip-path="url(#pa6a019d5d5)" style="fill: none; stroke: #ff0000; stroke-opacity: 0.2; stroke-width: 1.5; stroke-linecap: square"/>
   </g>
   <g id="line2d_22">
    <path d="M 111.272727 382.628571 
L 111.272727 308.571429 
" clip-path="url(#pa6a019d5d5)" style="fill: none; stroke-dasharray: 5.55,2.4; stroke-dashoffset: 0; stroke: #000000; stroke-width: 1.5"/>
   </g>
   <g id="line2d_23">
    <path d="M 65.454545 345.6 
L 294.545455 345.6 
" clip-path="url(#pa6a019d5d5)" style="fill: none; stroke-dasharray: 5.55,2.4; stroke-dashoffset: 0; stroke: #000000; stroke-width: 1.5"/>
   </g>
   <g id="patch_3">
    <path d="M 50 388.8 
L 50 302.4 
" style="fill: none; stroke: #000000; stroke-width: 0.8; stroke-linejoin: miter; stroke-linecap: square"/>
   </g>
   <g id="patch_4">
    <path d="M 54 392.8 
L 306 392.8 
" style="fill: none; stroke: #000000; stroke-width: 0.8; stroke-linejoin: miter; stroke-linecap: square"/>
   </g>
   <g id="text_12">
    <!-- all depths -->
    <g transform="translate(150.492188 296.4) scale(0.12 -0.12)">
     <defs>
      <path id="DejaVuSans-70" d="M 1159 525 
L 1159 -1331 
L 581 -1331 
L 581 3500 
L 1159 3500 
L 1159 2969 
Q 1341 3281 1617 3432 
Q 1894 3584 2278 3584 
Q 2916 3584 3314 3078 
Q 3713 2572 3713 1747 
Q 3713 922 3314 415 
Q 2916 -91 2278 -91 
Q 1894 -91 1617 61 
Q 1341 213 1159 525 
z
M 3116 1747 
Q 3116 2381 2855 2742 
Q 2594 3103 2138 3103 
Q 1681 3103 1420 2742 
Q 1159 2381 1159 1747 
Q 1159 1113 1420 752 
Q 1681 391 2138 391 
Q 2594 391 2855 752 
Q 3116 1113 3116 1747 
z
" transform="scale(0.015625)"/>
     </defs>
     <use xlink:href="#DejaVuSans-61"/>
     <use xlink:href="#DejaVuSans-6c" x="61.279297"/>
     <use xlink:href="#DejaVuSans-6c" x="89.0625"/>
     <use xlink:href="#DejaVuSans-20" x="116.845703"/>
     <use xlink:href="#DejaVuSans-64" x="148.632812"/>
     <use xlink:href="#DejaVuSans-65" x="212.109375"/>
     <use xlink:href="#DejaVuSans-70" x="273.632812"/>
     <use xlink:href="#DejaVuSans-74" x="337.109375"/>
     <use xlink:href="#DejaVuSans-68" x="376.318359"/>
     <use xlink:href="#DejaVuSans-73" x="439.697266"/>
    </g>
   </g>
   <g id="legend_1">
    <g id="patch_5">
     <path d="M 101.307812 325.35625 
L 299 325.35625 
Q 301 325.35625 301 323.35625 
L 301 309.4 
Q 301 307.4 299 307.4 
L 101.307812 307.4 
Q 99.307812 307.4 99.307812 309.4 
L 99.307812 323.35625 
Q 99.307812 325.35625 101.307812 325.35625 
z
" style="fill: #ffffff; opacity: 0.8; stroke: #cccccc; stroke-linejoin: miter"/>
    </g>
    <g id="line2d_24">
     <path d="M 103.307812 315.498437 
L 113.307812 315.498437 
L 123.307812 315.498437 
" style="fill: none; stroke: #ff0000; stroke-width: 1.5; stroke-linecap: square"/>
    </g>
    <g id="text_13">
     <!-- V1_tgt_superficial_deveined_iso0 -->
     <g transform="translate(131.307812 318.998437) scale(0.1 -0.1)">
      <defs>
       <path id="DejaVuSans-56" d="M 1831 0 
L 50 4666 
L 709 4666 
L 2188 738 
L 3669 4666 
L 4325 4666 
L 2547 0 
L 1831 0 
z
" transform="scale(0.015625)"/>
       <path id="DejaVuSans-5f" d="M 3263 -1063 
L 3263 -1509 
L -63 -1509 
L -63 -1063 
L 3263 -1063 
z
" transform="scale(0.015625)"/>
       <path id="DejaVuSans-75" d="M 544 1381 
L 544 3500 
L 1119 3500 
L 1119 1403 
Q 1119 906 1312 657 
Q 1506 409 1894 409 
Q 2359 409 2629 706 
Q 2900 1003 2900 1516 
L 2900 3500 
L 3475 3500 
L 3475 0 
L 2900 0 
L 2900 538 
Q 2691 219 2414 64 
Q 2138 -91 1772 -91 
Q 1169 -91 856 284 
Q 544 659 544 1381 
z
M 1991 3584 
L 1991 3584 
z
" transform="scale(0.015625)"/>
      </defs>
      <use xlink:href="#DejaVuSans-56"/>
      <use xlink:href="#DejaVuSans-31" x="68.408203"/>
      <use xlink:href="#DejaVuSans-5f" x="132.03125"/>
      <use xlink:href="#DejaVuSans-74" x="182.03125"/>
      <use xlink:href="#DejaVuSans-67" x="221.240234"/>
      <use xlink:href="#DejaVuSans-74" x="284.716797"/>
      <use xlink:href="#DejaVuSans-5f" x="323.925781"/>
      <use xlink:href="#DejaVuSans-73" x="373.925781"/>
      <use xlink:href="#DejaVuSans-75" x="426.025391"/>
      <use xlink:href="#DejaVuSans-70" x="489.404297"/>
      <use xlink:href="#DejaVuSans-65" x="552.880859"/>
      <use xlink:href="#DejaVuSans-72" x="614.404297"/>
      <use xlink:href="#DejaVuSans-66" x="655.517578"/>
      <use xlink:href="#DejaVuSans-69" x="690.722656"/>
      <use xlink:href="#DejaVuSans-63" x="718.505859"/>
      <use xlink:href="#DejaVuSans-69" x="773.486328"/>
      <use xlink:href="#DejaVuSans-61" x="801.269531"/>
      <use xlink:href="#DejaVuSans-6c" x="862.548828"/>
      <use xlink:href="#DejaVuSans-5f" x="890.332031"/>
      <use xlink:href="#DejaVuSans-64" x="940.332031"/>
      <use xlink:href="#DejaVuSans-65" x="1003.808594"/>
      <use xlink:href="#DejaVuSans-76" x="1065.332031"/>
      <use xlink:href="#DejaVuSans-65" x="1124.511719"/>
      <use xlink:href="#DejaVuSans-69" x="1186.035156"/>
      <use xlink:href="#DejaVuSans-6e" x="1213.818359"/>
      <use xlink:href="#DejaVuSans-65" x="1277.197266"/>
      <use xlink:href="#DejaVuSans-64" x="1338.720703"/>
      <use xlink:href="#DejaVuSans-5f" x="1402.197266"/>
      <use xlink:href="#DejaVuSans-69" x="1452.197266"/>
      <use xlink:href="#DejaVuSans-73" x="1479.980469"/>
      <use xlink:href="#DejaVuSans-6f" x="1532.080078"/>
      <use xlink:href="#DejaVuSans-30" x="1593.261719"/>
     </g>
    </g>
   </g>
  </g>
 </g>
 <defs>
  <clipPath id="pa6a019d5d5">
   <rect x="54" y="302.4" width="252" height="86.4"/>
  </clipPath>
 </defs>
</svg>
