<?xml version="1.0" encoding="utf-8" standalone="no"?>
<!DOCTYPE svg PUBLIC "-//W3C//DTD SVG 1.1//EN"
  "http://www.w3.org/Graphics/SVG/1.1/DTD/svg11.dtd">
<svg xmlns:xlink="http://www.w3.org/1999/xlink" width="576pt" height="504pt" viewBox="0 0 576 504" xmlns="http://www.w3.org/2000/svg" version="1.1">
 <metadata>
  <rdf:RDF xmlns:dc="http://purl.org/dc/elements/1.1/" xmlns:cc="http://creativecommons.org/ns#" xmlns:rdf="http://www.w3.org/1999/02/22-rdf-syntax-ns#">
   <cc:Work>
    <dc:type rdf:resource="http://purl.org/dc/dcmitype/StillImage"/>
    <dc:date>2026-05-26T10:36:40.134488</dc:date>
    <dc:format>image/svg+xml</dc:format>
    <dc:creator>
     <cc:Agent>
      <dc:title>Matplotlib v3.8.0, https://matplotlib.org/</dc:title>
     </cc:Agent>
    </dc:creator>
   </cc:Work>
  </rdf:RDF>
 </metadata>
 <defs>
  <style type="text/css">*{stroke-linejoin: round; stroke-linecap: butt}</style>
 </defs>
 <g id="figure_1">
  <g id="patch_1">
   <path d="M 0 504 
L 576 504 
L 576 0 
L 0 0 
z
" style="fill: #ffffff"/>
  </g>
  <g id="axes_1">
   <g id="patch_2">
    <path d="M 86.4 241.92 
L 489.6 241.92 
L 489.6 40.32 
L 86.4 40.32 
z
" style="fill: #ffffff"/>
   </g>
   <g id="PolyCollection_1">
    <defs>
     <path id="md3477e458d" d="M 86.4 -416.374756 
L 86.4 -376.101104 
L 94.628571 -377.617365 
L 102.857143 -382.848666 
L 111.085714 -382.75315 
L 119.314286 -380.853586 
L 127.542857 -378.510784 
L 135.771429 -372.642116 
L 144 -366.476453 
L 152.228571 -362.364869 
L 160.457143 -357.027713 
L 168.685714 -354.127382 
L 176.914286 -354.484837 
L 185.142857 -354.881675 
L 193.371429 -353.778662 
L 201.6 -351.700981 
L 209.828571 -349.318802 
L 218.057143 -346.87338 
L 226.285714 -346.466374 
L 234.514286 -347.114348 
L 242.742857 -349.52156 
L 250.971429 -351.362812 
L 259.2 -349.434441 
L 267.428571 -346.247707 
L 275.657143 -343.42039 
L 283.885714 -340.280406 
L 292.114286 -338.151571 
L 300.342857 -337.639871 
L 308.571429 -340.995068 
L 316.8 -343.254182 
L 325.028571 -343.405958 
L 333.257143 -343.543925 
L 341.485714 -344.433272 
L 349.714286 -345.700803 
L 357.942857 -348.309244 
L 366.171429 -349.231835 
L 374.4 -345.614575 
L 382.628571 -342.943942 
L 390.857143 -340.036322 
L 399.085714 -335.846661 
L 407.314286 -331.664664 
L 415.542857 -328.356827 
L 423.771429 -326.172372 
L 432 -327.464008 
L 440.228571 -331.952831 
L 448.457143 -337.436398 
L 456.685714 -340.44725 
L 464.914286 -341.681875 
L 473.142857 -341.154637 
L 481.371429 -342.893056 
L 489.6 -343.912669 
L 489.6 -380.806096 
L 489.6 -380.806096 
L 481.371429 -379.295907 
L 473.142857 -378.87523 
L 464.914286 -378.90098 
L 456.685714 -377.576978 
L 448.457143 -374.993149 
L 440.228571 -370.786606 
L 432 -365.255664 
L 423.771429 -361.581331 
L 415.542857 -361.620215 
L 407.314286 -363.059561 
L 399.085714 -364.953525 
L 390.857143 -367.38307 
L 382.628571 -369.772797 
L 374.4 -371.372073 
L 366.171429 -372.632542 
L 357.942857 -369.542099 
L 349.714286 -366.331738 
L 341.485714 -364.950416 
L 333.257143 -364.833584 
L 325.028571 -364.85392 
L 316.8 -365.739342 
L 308.571429 -364.7472 
L 300.342857 -362.16116 
L 292.114286 -363.632138 
L 283.885714 -365.584638 
L 275.657143 -368.512242 
L 267.428571 -371.434328 
L 259.2 -374.538713 
L 250.971429 -376.463179 
L 242.742857 -373.761014 
L 234.514286 -368.525554 
L 226.285714 -364.73362 
L 218.057143 -363.768594 
L 209.828571 -365.947883 
L 201.6 -369.500703 
L 193.371429 -371.20062 
L 185.142857 -371.951407 
L 176.914286 -373.150545 
L 168.685714 -375.830045 
L 160.457143 -378.980997 
L 152.228571 -384.788965 
L 144 -390.961091 
L 135.771429 -398.004218 
L 127.542857 -405.216994 
L 119.314286 -409.669992 
L 111.085714 -414.124793 
L 102.857143 -418.959719 
L 94.628571 -416.535423 
L 86.4 -416.374756 
z
" style="stroke: #b2b2b2; stroke-opacity: 0.4"/>
    </defs>
    <g clip-path="url(#p7148363499)">
     <use xlink:href="#md3477e458d" x="0" y="504" style="fill: #b2b2b2; fill-opacity: 0.4; stroke: #b2b2b2; stroke-opacity: 0.4"/>
    </g>
   </g>
   <g id="matplotlib.axis_1">
    <g id="xtick_1">
     <g id="line2d_1">
      <defs>
       <path id="m28eaa43513" d="M 0 0 
L 0 3.5 
" style="stroke: #000000; stroke-width: 0.8"/>
      </defs>
      <g>
       <use xlink:href="#m28eaa43513" x="86.4" y="245.92" style="stroke: #000000; stroke-width: 0.8"/>
      </g>
     </g>
    </g>
    <g id="xtick_2">
     <g id="line2d_2">
      <g>
       <use xlink:href="#m28eaa43513" x="167.04" y="245.92" style="stroke: #000000; stroke-width: 0.8"/>
      </g>
     </g>
    </g>
    <g id="xtick_3">
     <g id="line2d_3">
      <g>
       <use xlink:href="#m28eaa43513" x="247.68" y="245.92" style="stroke: #000000; stroke-width: 0.8"/>
      </g>
     </g>
    </g>
    <g id="xtick_4">
     <g id="line2d_4">
      <g>
       <use xlink:href="#m28eaa43513" x="328.32" y="245.92" style="stroke: #000000; stroke-width: 0.8"/>
      </g>
     </g>
    </g>
    <g id="xtick_5">
     <g id="line2d_5">
      <g>
       <use xlink:href="#m28eaa43513" x="408.96" y="245.92" style="stroke: #000000; stroke-width: 0.8"/>
      </g>
     </g>
    </g>
    <g id="xtick_6">
     <g id="line2d_6">
      <g>
       <use xlink:href="#m28eaa43513" x="489.6" y="245.92" style="stroke: #000000; stroke-width: 0.8"/>
      </g>
     </g>
    </g>
   </g>
   <g id="matplotlib.axis_2">
    <g id="ytick_1">
     <g id="line2d_7">
      <defs>
       <path id="mbbfe50bcb4" d="M 0 0 
L -3.5 0 
" style="stroke: #000000; stroke-width: 0.8"/>
      </defs>
      <g>
       <use xlink:href="#mbbfe50bcb4" x="82.4" y="241.92" style="stroke: #000000; stroke-width: 0.8"/>
      </g>
     </g>
     <g id="text_1">
      <!-- −2.0 -->
      <g transform="translate(51.117187 245.719219) scale(0.1 -0.1)">
       <defs>
        <path id="DejaVuSans-2212" d="M 678 2272 
L 4684 2272 
L 4684 1741 
L 678 1741 
L 678 2272 
z
" transform="scale(0.015625)"/>
        <path id="DejaVuSans-32" d="M 1228 531 
L 3431 531 
L 3431 0 
L 469 0 
L 469 531 
Q 828 903 1448 1529 
Q 2069 2156 2228 2338 
Q 2531 2678 2651 2914 
Q 2772 3150 2772 3378 
Q 2772 3750 2511 3984 
Q 2250 4219 1831 4219 
Q 1534 4219 1204 4116 
Q 875 4013 500 3803 
L 500 4441 
Q 881 4594 1212 4672 
Q 1544 4750 1819 4750 
Q 2544 4750 2975 4387 
Q 3406 4025 3406 3419 
Q 3406 3131 3298 2873 
Q 3191 2616 2906 2266 
Q 2828 2175 2409 1742 
Q 1991 1309 1228 531 
z
" transform="scale(0.015625)"/>
        <path id="DejaVuSans-2e" d="M 684 794 
L 1344 794 
L 1344 0 
L 684 0 
L 684 794 
z
" transform="scale(0.015625)"/>
        <path id="DejaVuSans-30" d="M 2034 4250 
Q 1547 4250 1301 3770 
Q 1056 3291 1056 2328 
Q 1056 1369 1301 889 
Q 1547 409 2034 409 
Q 2525 409 2770 889 
Q 3016 1369 3016 2328 
Q 3016 3291 2770 3770 
Q 2525 4250 2034 4250 
z
M 2034 4750 
Q 2819 4750 3233 4129 
Q 3647 3509 3647 2328 
Q 3647 1150 3233 529 
Q 2819 -91 2034 -91 
Q 1250 -91 836 529 
Q 422 1150 422 2328 
Q 422 3509 836 4129 
Q 1250 4750 2034 4750 
z
" transform="scale(0.015625)"/>
       </defs>
       <use xlink:href="#DejaVuSans-2212"/>
       <use xlink:href="#DejaVuSans-32" x="83.789062"/>
       <use xlink:href="#DejaVuSans-2e" x="147.412109"/>
       <use xlink:href="#DejaVuSans-30" x="179.199219"/>
      </g>
     </g>
    </g>
    <g id="ytick_2">
     <g id="line2d_8">
      <g>
       <use xlink:href="#mbbfe50bcb4" x="82.4" y="216.72" style="stroke: #000000; stroke-width: 0.8"/>
      </g>
     </g>
     <g id="text_2">
      <!-- −1.5 -->
      <g transform="translate(51.117187 220.519219) scale(0.1 -0.1)">
       <defs>
        <path id="DejaVuSans-31" d="M 794 531 
L 1825 531 
L 1825 4091 
L 703 3866 
L 703 4441 
L 1819 4666 
L 2450 4666 
L 2450 531 
L 3481 531 
L 3481 0 
L 794 0 
L 794 531 
z
" transform="scale(0.015625)"/>
        <path id="DejaVuSans-35" d="M 691 4666 
L 3169 4666 
L 3169 4134 
L 1269 4134 
L 1269 2991 
Q 1406 3038 1543 3061 
Q 1681 3084 1819 3084 
Q 2600 3084 3056 2656 
Q 3513 2228 3513 1497 
Q 3513 744 3044 326 
Q 2575 -91 1722 -91 
Q 1428 -91 1123 -41 
Q 819 9 494 109 
L 494 744 
Q 775 591 1075 516 
Q 1375 441 1709 441 
Q 2250 441 2565 725 
Q 2881 1009 2881 1497 
Q 2881 1984 2565 2268 
Q 2250 2553 1709 2553 
Q 1456 2553 1204 2497 
Q 953 2441 691 2322 
L 691 4666 
z
" transform="scale(0.015625)"/>
       </defs>
       <use xlink:href="#DejaVuSans-2212"/>
       <use xlink:href="#DejaVuSans-31" x="83.789062"/>
       <use xlink:href="#DejaVuSans-2e" x="147.412109"/>
       <use xlink:href="#DejaVuSans-35" x="179.199219"/>
      </g>
     </g>
    </g>
    <g id="ytick_3">
     <g id="line2d_9">
      <g>
       <use xlink:href="#mbbfe50bcb4" x="82.4" y="191.52" style="stroke: #000000; stroke-width: 0.8"/>
      </g>
     </g>
     <g id="text_3">
      <!-- −1.0 -->
      <g transform="translate(51.117187 195.319219) scale(0.1 -0.1)">
       <use xlink:href="#DejaVuSans-2212"/>
       <use xlink:href="#DejaVuSans-31" x="83.789062"/>
       <use xlink:href="#DejaVuSans-2e" x="147.412109"/>
       <use xlink:href="#DejaVuSans-30" x="179.199219"/>
      </g>
     </g>
    </g>
    <g id="ytick_4">
     <g id="line2d_10">
      <g>
       <use xlink:href="#mbbfe50bcb4" x="82.4" y="166.32" style="stroke: #000000; stroke-width: 0.8"/>
      </g>
     </g>
     <g id="text_4">
      <!-- −0.5 -->
      <g transform="translate(51.117187 170.119219) scale(0.1 -0.1)">
       <use xlink:href="#DejaVuSans-2212"/>
       <use xlink:href="#DejaVuSans-30" x="83.789062"/>
       <use xlink:href="#DejaVuSans-2e" x="147.412109"/>
       <use xlink:href="#DejaVuSans-35" x="179.199219"/>
      </g>
     </g>
    </g>
    <g id="ytick_5">
     <g id="line2d_11">
      <g>
       <use xlink:href="#mbbfe50bcb4" x="82.4" y="141.12" style="stroke: #000000; stroke-width: 0.8"/>
      </g>
     </g>
     <g id="text_5">
      <!-- 0.0 -->
      <g transform="translate(59.496875 144.919219) scale(0.1 -0.1)">
       <use xlink:href="#DejaVuSans-30"/>
       <use xlink:href="#DejaVuSans-2e" x="63.623047"/>
       <use xlink:href="#DejaVuSans-30" x="95.410156"/>
      </g>
     </g>
    </g>
    <g id="ytick_6">
     <g id="line2d_12">
      <g>
       <use xlink:href="#mbbfe50bcb4" x="82.4" y="115.92" style="stroke: #000000; stroke-width: 0.8"/>
      </g>
     </g>
     <g id="text_6">
      <!-- 0.5 -->
      <g transform="translate(59.496875 119.719219) scale(0.1 -0.1)">
       <use xlink:href="#DejaVuSans-30"/>
       <use xlink:href="#DejaVuSans-2e" x="63.623047"/>
       <use xlink:href="#DejaVuSans-35" x="95.410156"/>
      </g>
     </g>
    </g>
    <g id="ytick_7">
     <g id="line2d_13">
      <g>
       <use xlink:href="#mbbfe50bcb4" x="82.4" y="90.72" style="stroke: #000000; stroke-width: 0.8"/>
      </g>
     </g>
     <g id="text_7">
      <!-- 1.0 -->
      <g transform="translate(59.496875 94.519219) scale(0.1 -0.1)">
       <use xlink:href="#DejaVuSans-31"/>
       <use xlink:href="#DejaVuSans-2e" x="63.623047"/>
       <use xlink:href="#DejaVuSans-30" x="95.410156"/>
      </g>
     </g>
    </g>
    <g id="ytick_8">
     <g id="line2d_14">
      <g>
       <use xlink:href="#mbbfe50bcb4" x="82.4" y="65.52" style="stroke: #000000; stroke-width: 0.8"/>
      </g>
     </g>
     <g id="text_8">
      <!-- 1.5 -->
      <g transform="translate(59.496875 69.319219) scale(0.1 -0.1)">
       <use xlink:href="#DejaVuSans-31"/>
       <use xlink:href="#DejaVuSans-2e" x="63.623047"/>
       <use xlink:href="#DejaVuSans-35" x="95.410156"/>
      </g>
     </g>
    </g>
    <g id="ytick_9">
     <g id="line2d_15">
      <g>
       <use xlink:href="#mbbfe50bcb4" x="82.4" y="40.32" style="stroke: #000000; stroke-width: 0.8"/>
      </g>
     </g>
     <g id="text_9">
      <!-- 2.0 -->
      <g transform="translate(59.496875 44.119219) scale(0.1 -0.1)">
       <use xlink:href="#DejaVuSans-32"/>
       <use xlink:href="#DejaVuSans-2e" x="63.623047"/>
       <use xlink:href="#DejaVuSans-30" x="95.410156"/>
      </g>
     </g>
    </g>
    <g id="text_10">
     <!-- BOLD % change -->
     <g transform="translate(45.453437 173.31625) rotate(-90) scale(0.08 -0.08)">
      <defs>
       <path id="DejaVuSans-42" d="M 1259 2228 
L 1259 519 
L 2272 519 
Q 2781 519 3026 730 
Q 3272 941 3272 1375 
Q 3272 1813 3026 2020 
Q 2781 2228 2272 2228 
L 1259 2228 
z
M 1259 4147 
L 1259 2741 
L 2194 2741 
Q 2656 2741 2882 2914 
Q 3109 3088 3109 3444 
Q 3109 3797 2882 3972 
Q 2656 4147 2194 4147 
L 1259 4147 
z
M 628 4666 
L 2241 4666 
Q 2963 4666 3353 4366 
Q 3744 4066 3744 3513 
Q 3744 3084 3544 2831 
Q 3344 2578 2956 2516 
Q 3422 2416 3680 2098 
Q 3938 1781 3938 1306 
Q 3938 681 3513 340 
Q 3088 0 2303 0 
L 628 0 
L 628 4666 
z
" transform="scale(0.015625)"/>
       <path id="DejaVuSans-4f" d="M 2522 4238 
Q 1834 4238 1429 3725 
Q 1025 3213 1025 2328 
Q 1025 1447 1429 934 
Q 1834 422 2522 422 
Q 3209 422 3611 934 
Q 4013 1447 4013 2328 
Q 4013 3213 3611 3725 
Q 3209 4238 2522 4238 
z
M 2522 4750 
Q 3503 4750 4090 4092 
Q 4678 3434 4678 2328 
Q 4678 1225 4090 567 
Q 3503 -91 2522 -91 
Q 1538 -91 948 565 
Q 359 1222 359 2328 
Q 359 3434 948 4092 
Q 1538 4750 2522 4750 
z
" transform="scale(0.015625)"/>
       <path id="DejaVuSans-4c" d="M 628 4666 
L 1259 4666 
L 1259 531 
L 3531 531 
L 3531 0 
L 628 0 
L 628 4666 
z
" transform="scale(0.015625)"/>
       <path id="DejaVuSans-44" d="M 1259 4147 
L 1259 519 
L 2022 519 
Q 2988 519 3436 956 
Q 3884 1394 3884 2338 
Q 3884 3275 3436 3711 
Q 2988 4147 2022 4147 
L 1259 4147 
z
M 628 4666 
L 1925 4666 
Q 3281 4666 3915 4102 
Q 4550 3538 4550 2338 
Q 4550 1131 3912 565 
Q 3275 0 1925 0 
L 628 0 
L 628 4666 
z
" transform="scale(0.015625)"/>
       <path id="DejaVuSans-20" transform="scale(0.015625)"/>
       <path id="DejaVuSans-25" d="M 4653 2053 
Q 4381 2053 4226 1822 
Q 4072 1591 4072 1178 
Q 4072 772 4226 539 
Q 4381 306 4653 306 
Q 4919 306 5073 539 
Q 5228 772 5228 1178 
Q 5228 1588 5073 1820 
Q 4919 2053 4653 2053 
z
M 4653 2450 
Q 5147 2450 5437 2106 
Q 5728 1763 5728 1178 
Q 5728 594 5436 251 
Q 5144 -91 4653 -91 
Q 4153 -91 3862 251 
Q 3572 594 3572 1178 
Q 3572 1766 3864 2108 
Q 4156 2450 4653 2450 
z
M 1428 4353 
Q 1159 4353 1004 4120 
Q 850 3888 850 3481 
Q 850 3069 1003 2837 
Q 1156 2606 1428 2606 
Q 1700 2606 1854 2837 
Q 2009 3069 2009 3481 
Q 2009 3884 1853 4118 
Q 1697 4353 1428 4353 
z
M 4250 4750 
L 4750 4750 
L 1831 -91 
L 1331 -91 
L 4250 4750 
z
M 1428 4750 
Q 1922 4750 2215 4408 
Q 2509 4066 2509 3481 
Q 2509 2891 2217 2550 
Q 1925 2209 1428 2209 
Q 931 2209 642 2551 
Q 353 2894 353 3481 
Q 353 4063 643 4406 
Q 934 4750 1428 4750 
z
" transform="scale(0.015625)"/>
       <path id="DejaVuSans-63" d="M 3122 3366 
L 3122 2828 
Q 2878 2963 2633 3030 
Q 2388 3097 2138 3097 
Q 1578 3097 1268 2742 
Q 959 2388 959 1747 
Q 959 1106 1268 751 
Q 1578 397 2138 397 
Q 2388 397 2633 464 
Q 2878 531 3122 666 
L 3122 134 
Q 2881 22 2623 -34 
Q 2366 -91 2075 -91 
Q 1284 -91 818 406 
Q 353 903 353 1747 
Q 353 2603 823 3093 
Q 1294 3584 2113 3584 
Q 2378 3584 2631 3529 
Q 2884 3475 3122 3366 
z
" transform="scale(0.015625)"/>
       <path id="DejaVuSans-68" d="M 3513 2113 
L 3513 0 
L 2938 0 
L 2938 2094 
Q 2938 2591 2744 2837 
Q 2550 3084 2163 3084 
Q 1697 3084 1428 2787 
Q 1159 2491 1159 1978 
L 1159 0 
L 581 0 
L 581 4863 
L 1159 4863 
L 1159 2956 
Q 1366 3272 1645 3428 
Q 1925 3584 2291 3584 
Q 2894 3584 3203 3211 
Q 3513 2838 3513 2113 
z
" transform="scale(0.015625)"/>
       <path id="DejaVuSans-61" d="M 2194 1759 
Q 1497 1759 1228 1600 
Q 959 1441 959 1056 
Q 959 750 1161 570 
Q 1363 391 1709 391 
Q 2188 391 2477 730 
Q 2766 1069 2766 1631 
L 2766 1759 
L 2194 1759 
z
M 3341 1997 
L 3341 0 
L 2766 0 
L 2766 531 
Q 2569 213 2275 61 
Q 1981 -91 1556 -91 
Q 1019 -91 701 211 
Q 384 513 384 1019 
Q 384 1609 779 1909 
Q 1175 2209 1959 2209 
L 2766 2209 
L 2766 2266 
Q 2766 2663 2505 2880 
Q 2244 3097 1772 3097 
Q 1472 3097 1187 3025 
Q 903 2953 641 2809 
L 641 3341 
Q 956 3463 1253 3523 
Q 1550 3584 1831 3584 
Q 2591 3584 2966 3190 
Q 3341 2797 3341 1997 
z
" transform="scale(0.015625)"/>
       <path id="DejaVuSans-6e" d="M 3513 2113 
L 3513 0 
L 2938 0 
L 2938 2094 
Q 2938 2591 2744 2837 
Q 2550 3084 2163 3084 
Q 1697 3084 1428 2787 
Q 1159 2491 1159 1978 
L 1159 0 
L 581 0 
L 581 3500 
L 1159 3500 
L 1159 2956 
Q 1366 3272 1645 3428 
Q 1925 3584 2291 3584 
Q 2894 3584 3203 3211 
Q 3513 2838 3513 2113 
z
" transform="scale(0.015625)"/>
       <path id="DejaVuSans-67" d="M 2906 1791 
Q 2906 2416 2648 2759 
Q 2391 3103 1925 3103 
Q 1463 3103 1205 2759 
Q 947 2416 947 1791 
Q 947 1169 1205 825 
Q 1463 481 1925 481 
Q 2391 481 2648 825 
Q 2906 1169 2906 1791 
z
M 3481 434 
Q 3481 -459 3084 -895 
Q 2688 -1331 1869 -1331 
Q 1566 -1331 1297 -1286 
Q 1028 -1241 775 -1147 
L 775 -588 
Q 1028 -725 1275 -790 
Q 1522 -856 1778 -856 
Q 2344 -856 2625 -561 
Q 2906 -266 2906 331 
L 2906 616 
Q 2728 306 2450 153 
Q 2172 0 1784 0 
Q 1141 0 747 490 
Q 353 981 353 1791 
Q 353 2603 747 3093 
Q 1141 3584 1784 3584 
Q 2172 3584 2450 3431 
Q 2728 3278 2906 2969 
L 2906 3500 
L 3481 3500 
L 3481 434 
z
" transform="scale(0.015625)"/>
       <path id="DejaVuSans-65" d="M 3597 1894 
L 3597 1613 
L 953 1613 
Q 991 1019 1311 708 
Q 1631 397 2203 397 
Q 2534 397 2845 478 
Q 3156 559 3463 722 
L 3463 178 
Q 3153 47 2828 -22 
Q 2503 -91 2169 -91 
Q 1331 -91 842 396 
Q 353 884 353 1716 
Q 353 2575 817 3079 
Q 1281 3584 2069 3584 
Q 2775 3584 3186 3129 
Q 3597 2675 3597 1894 
z
M 3022 2063 
Q 3016 2534 2758 2815 
Q 2500 3097 2075 3097 
Q 1594 3097 1305 2825 
Q 1016 2553 972 2059 
L 3022 2063 
z
" transform="scale(0.015625)"/>
      </defs>
      <use xlink:href="#DejaVuSans-42"/>
      <use xlink:href="#DejaVuSans-4f" x="66.853516"/>
      <use xlink:href="#DejaVuSans-4c" x="145.564453"/>
      <use xlink:href="#DejaVuSans-44" x="201.277344"/>
      <use xlink:href="#DejaVuSans-20" x="278.279297"/>
      <use xlink:href="#DejaVuSans-25" x="310.066406"/>
      <use xlink:href="#DejaVuSans-20" x="405.085938"/>
      <use xlink:href="#DejaVuSans-63" x="436.873047"/>
      <use xlink:href="#DejaVuSans-68" x="491.853516"/>
      <use xlink:href="#DejaVuSans-61" x="555.232422"/>
      <use xlink:href="#DejaVuSans-6e" x="616.511719"/>
      <use xlink:href="#DejaVuSans-67" x="679.890625"/>
      <use xlink:href="#DejaVuSans-65" x="743.367188"/>
     </g>
    </g>
   </g>
   <g id="line2d_16">
    <path d="M 86.4 107.76207 
L 94.628571 106.923606 
L 102.857143 103.095808 
L 111.085714 105.561029 
L 119.314286 108.738211 
L 127.542857 112.136111 
L 135.771429 118.676833 
L 144 125.281228 
L 152.228571 130.423083 
L 160.457143 135.995645 
L 168.685714 139.021287 
L 176.914286 140.182309 
L 185.142857 140.583459 
L 193.371429 141.510359 
L 201.6 143.399158 
L 209.828571 146.366657 
L 218.057143 148.679013 
L 226.285714 148.400003 
L 234.514286 146.180049 
L 242.742857 142.358713 
L 250.971429 140.087004 
L 259.2 142.013423 
L 267.428571 145.158983 
L 275.657143 148.033684 
L 283.885714 151.067478 
L 292.114286 153.108146 
L 300.342857 154.099485 
L 308.571429 151.128866 
L 316.8 149.503238 
L 325.028571 149.870061 
L 333.257143 149.811246 
L 341.485714 149.308156 
L 349.714286 147.983729 
L 357.942857 145.074329 
L 366.171429 143.067811 
L 374.4 145.506676 
L 382.628571 147.64163 
L 390.857143 150.290304 
L 399.085714 153.599907 
L 407.314286 156.637888 
L 415.542857 159.011479 
L 423.771429 160.123148 
L 432 157.640164 
L 440.228571 152.630282 
L 448.457143 147.785226 
L 456.685714 144.987886 
L 464.914286 143.708572 
L 473.142857 143.985067 
L 481.371429 142.905518 
L 489.6 141.640618 
" clip-path="url(#p7148363499)" style="fill: none; stroke: #b2b2b2; stroke-width: 1.5; stroke-linecap: square"/>
   </g>
   <g id="line2d_17">
    <path d="M 86.4 126.156976 
L 94.628571 121.760509 
L 102.857143 120.127174 
L 111.085714 117.08341 
L 119.314286 115.06789 
L 127.542857 134.984313 
L 135.771429 149.76695 
L 144 165.492938 
L 152.228571 175.147666 
L 160.457143 165.488328 
L 168.685714 159.82167 
L 176.914286 149.898073 
L 185.142857 136.878836 
L 193.371429 132.952006 
L 201.6 138.564692 
L 209.828571 151.696945 
L 218.057143 153.671194 
L 226.285714 146.484409 
L 234.514286 133.173479 
L 242.742857 125.953281 
L 250.971429 113.045657 
L 259.2 108.328076 
L 267.428571 103.138957 
L 275.657143 99.271296 
L 283.885714 97.717992 
L 292.114286 109.023493 
L 300.342857 119.502497 
L 308.571429 123.946132 
L 316.8 125.693007 
L 325.028571 130.494354 
L 333.257143 132.693687 
L 341.485714 146.071288 
L 349.714286 153.259616 
L 357.942857 153.821921 
L 366.171429 152.130746 
L 374.4 149.247459 
L 382.628571 159.108322 
L 390.857143 169.494618 
L 399.085714 172.588464 
L 407.314286 171.470885 
L 415.542857 163.098223 
L 423.771429 144.147593 
L 432 132.049768 
L 440.228571 126.627491 
L 448.457143 124.798015 
L 456.685714 124.74744 
L 464.914286 129.291551 
L 473.142857 133.335099 
L 481.371429 135.777287 
L 489.6 131.780192 
" clip-path="url(#p7148363499)" style="fill: none; stroke: #b2b2b2; stroke-opacity: 0.2; stroke-width: 1.5; stroke-linecap: square"/>
   </g>
   <g id="line2d_18">
    <path d="M 86.4 108.575459 
L 94.628571 108.575459 
L 102.857143 115.923642 
L 111.085714 126.478212 
L 119.314286 131.842882 
L 127.542857 124.932609 
L 135.771429 111.803054 
L 144 97.890793 
L 152.228571 86.166737 
L 160.457143 78.733206 
L 168.685714 81.073479 
L 176.914286 96.534813 
L 185.142857 108.729993 
L 193.371429 113.263815 
L 201.6 115.307975 
L 209.828571 122.814696 
L 218.057143 124.04671 
L 226.285714 128.410184 
L 234.514286 133.03842 
L 242.742857 140.572283 
L 250.971429 145.224286 
L 259.2 148.731193 
L 267.428571 146.712668 
L 275.657143 147.953454 
L 283.885714 146.996454 
L 292.114286 142.878258 
L 300.342857 138.428752 
L 308.571429 135.566222 
L 316.8 135.075602 
L 325.028571 134.325263 
L 333.257143 133.513576 
L 341.485714 133.315414 
L 349.714286 134.447496 
L 357.942857 135.776493 
L 366.171429 137.144486 
L 374.4 138.788303 
L 382.628571 138.725533 
L 390.857143 136.191575 
L 399.085714 136.666477 
L 407.314286 138.545279 
L 415.542857 138.164651 
L 423.771429 134.109007 
L 432 131.194502 
L 440.228571 128.800042 
L 448.457143 122.451101 
L 456.685714 113.516008 
L 464.914286 109.432161 
L 473.142857 107.576252 
L 481.371429 102.386834 
L 489.6 90.89837 
" clip-path="url(#p7148363499)" style="fill: none; stroke: #b2b2b2; stroke-opacity: 0.2; stroke-width: 1.5; stroke-linecap: square"/>
   </g>
   <g id="line2d_19">
    <path d="M 86.4 113.150971 
L 94.628571 110.577018 
L 102.857143 100.068854 
L 111.085714 91.841265 
L 119.314286 101.972268 
L 127.542857 113.530656 
L 135.771429 123.156253 
L 144 132.213947 
L 152.228571 136.099911 
L 160.457143 136.10406 
L 168.685714 131.947012 
L 176.914286 131.252568 
L 185.142857 139.462397 
L 193.371429 143.159856 
L 201.6 145.739772 
L 209.828571 142.704664 
L 218.057143 141.849077 
L 226.285714 142.452685 
L 234.514286 140.514159 
L 242.742857 138.940473 
L 250.971429 137.526655 
L 259.2 137.573436 
L 267.428571 139.259063 
L 275.657143 146.383493 
L 283.885714 151.190235 
L 292.114286 154.794546 
L 300.342857 162.920275 
L 308.571429 162.14612 
L 316.8 155.283629 
L 325.028571 145.387822 
L 333.257143 136.947483 
L 341.485714 125.346098 
L 349.714286 115.557258 
L 357.942857 106.399823 
L 366.171429 100.10503 
L 374.4 93.328822 
L 382.628571 90.375754 
L 390.857143 86.656238 
L 399.085714 94.055168 
L 407.314286 106.182949 
L 415.542857 116.871587 
L 423.771429 121.292349 
L 432 117.566434 
L 440.228571 109.914115 
L 448.457143 97.982076 
L 456.685714 91.503491 
L 464.914286 97.31528 
L 473.142857 114.620905 
L 481.371429 137.245917 
L 489.6 152.699409 
" clip-path="url(#p7148363499)" style="fill: none; stroke: #b2b2b2; stroke-opacity: 0.2; stroke-width: 1.5; stroke-linecap: square"/>
   </g>
   <g id="line2d_20">
    <path d="M 86.4 115.85926 
L 94.628571 115.85926 
L 102.857143 115.89851 
L 111.085714 116.138533 
L 119.314286 113.504435 
L 127.542857 115.134686 
L 135.771429 130.889097 
L 144 140.197164 
L 152.228571 139.819806 
L 160.457143 136.998705 
L 168.685714 130.3116 
L 176.914286 123.850634 
L 185.142857 117.901291 
L 193.371429 113.130749 
L 201.6 110.975343 
L 209.828571 118.444553 
L 218.057143 126.154018 
L 226.285714 135.362699 
L 234.514286 139.517407 
L 242.742857 142.988547 
L 250.971429 151.427609 
L 259.2 157.751757 
L 267.428571 160.131019 
L 275.657143 160.261637 
L 283.885714 159.765309 
L 292.114286 155.42545 
L 300.342857 152.459874 
L 308.571429 152.029106 
L 316.8 152.141733 
L 325.028571 149.605215 
L 333.257143 148.320483 
L 341.485714 145.39686 
L 349.714286 142.719666 
L 357.942857 135.323763 
L 366.171429 132.171974 
L 374.4 131.811063 
L 382.628571 128.503022 
L 390.857143 126.437542 
L 399.085714 117.733683 
L 407.314286 110.618503 
L 415.542857 105.60159 
L 423.771429 104.418789 
L 432 108.283331 
L 440.228571 109.86267 
L 448.457143 117.998287 
L 456.685714 123.966087 
L 464.914286 121.946243 
L 473.142857 122.101695 
L 481.371429 113.976896 
L 489.6 111.119247 
" clip-path="url(#p7148363499)" style="fill: none; stroke: #b2b2b2; stroke-opacity: 0.2; stroke-width: 1.5; stroke-linecap: square"/>
   </g>
   <g id="line2d_21">
    <path d="M 86.4 97.838355 
L 94.628571 97.406647 
L 102.857143 74.104371 
L 111.085714 78.655966 
L 119.314286 80.8378 
L 127.542857 64.701955 
L 135.771429 60.485067 
L 144 67.261269 
L 152.228571 66.527567 
L 160.457143 72.994001 
L 168.685714 86.455228 
L 176.914286 94.409676 
L 185.142857 96.507533 
L 193.371429 101.660584 
L 201.6 112.353534 
L 209.828571 120.105207 
L 218.057143 133.232729 
L 226.285714 146.303524 
L 234.514286 147.667331 
L 242.742857 140.423344 
L 250.971429 134.475565 
L 259.2 130.583463 
L 267.428571 127.716088 
L 275.657143 121.715996 
L 283.885714 122.639859 
L 292.114286 115.319802 
L 300.342857 110.16554 
L 308.571429 103.374767 
L 316.8 106.944015 
L 325.028571 117.798571 
L 333.257143 121.449199 
L 341.485714 119.586215 
L 349.714286 124.089861 
L 357.942857 130.38587 
L 366.171429 131.708298 
L 374.4 140.158947 
L 382.628571 144.345042 
L 390.857143 145.889589 
L 399.085714 144.035071 
L 407.314286 137.988845 
L 415.542857 130.923996 
L 423.771429 128.676767 
L 432 120.861153 
L 440.228571 110.509491 
L 448.457143 101.875779 
L 456.685714 95.417056 
L 464.914286 88.542617 
L 473.142857 83.053897 
L 481.371429 79.47903 
L 489.6 74.452864 
" clip-path="url(#p7148363499)" style="fill: none; stroke: #b2b2b2; stroke-opacity: 0.2; stroke-width: 1.5; stroke-linecap: square"/>
   </g>
   <g id="line2d_22">
    <path d="M 123.425368 -1 
L 127.542857 6.991286 
L 135.771429 24.518415 
L 144 43.138778 
L 152.228571 86.622696 
L 160.457143 129.679392 
L 168.685714 143.292997 
L 176.914286 157.751233 
L 185.142857 166.479916 
L 193.371429 166.418126 
L 201.6 187.121258 
L 209.828571 184.894452 
L 218.057143 176.096391 
L 226.285714 157.567784 
L 234.514286 139.183409 
L 242.742857 116.851446 
L 250.971429 99.921401 
L 259.2 103.401948 
L 267.428571 111.742573 
L 275.657143 117.86053 
L 283.885714 124.057031 
L 292.114286 127.87671 
L 300.342857 129.813457 
L 308.571429 126.105815 
L 316.8 132.676493 
L 325.028571 142.439741 
L 333.257143 144.031762 
L 341.485714 141.185339 
L 349.714286 147.274491 
L 357.942857 160.272182 
L 366.171429 177.175885 
L 374.4 199.457974 
L 382.628571 204.272775 
L 390.857143 203.467705 
L 399.085714 205.418601 
L 407.314286 199.663546 
L 415.542857 195.927284 
L 423.771429 192.852835 
L 432 184.899698 
L 440.228571 176.234033 
L 448.457143 167.139031 
L 456.685714 169.202782 
L 464.914286 176.636151 
L 473.142857 175.619946 
L 481.371429 169.414272 
L 489.6 162.677904 
" clip-path="url(#p7148363499)" style="fill: none; stroke: #b2b2b2; stroke-opacity: 0.2; stroke-width: 1.5; stroke-linecap: square"/>
   </g>
   <g id="line2d_23">
    <path d="M 86.4 152.028563 
L 94.628571 150.374196 
L 102.857143 147.069209 
L 111.085714 144.431059 
L 119.314286 146.918006 
L 127.542857 154.504888 
L 135.771429 169.54588 
L 144 182.58356 
L 152.228571 187.788631 
L 160.457143 195.920972 
L 168.685714 196.308923 
L 176.914286 188.40256 
L 185.142857 184.250299 
L 193.371429 184.98774 
L 201.6 192.323993 
L 209.828571 199.76242 
L 218.057143 214.270259 
L 226.285714 227.506636 
L 234.514286 244.908107 
L 242.742857 253.212515 
L 250.971429 255.537368 
L 259.2 260.145134 
L 267.428571 266.424048 
L 275.657143 267.122045 
L 283.885714 271.077327 
L 292.114286 276.360885 
L 300.342857 271.554112 
L 308.571429 263.735904 
L 316.8 256.747435 
L 325.028571 253.079608 
L 333.257143 249.770373 
L 341.485714 240.352119 
L 349.714286 230.720591 
L 357.942857 213.896862 
L 366.171429 203.369176 
L 374.4 203.045607 
L 382.628571 201.669015 
L 390.857143 207.343376 
L 399.085714 219.596887 
L 407.314286 240.465477 
L 415.542857 259.343457 
L 423.771429 270.343831 
L 432 275.517607 
L 440.228571 269.690018 
L 448.457143 253.051832 
L 456.685714 240.974631 
L 464.914286 231.403907 
L 473.142857 225.513698 
L 481.371429 213.303801 
L 489.6 218.014998 
" clip-path="url(#p7148363499)" style="fill: none; stroke: #b2b2b2; stroke-opacity: 0.2; stroke-width: 1.5; stroke-linecap: square"/>
   </g>
   <g id="line2d_24">
    <path d="M 86.4 159.783477 
L 94.628571 158.288305 
L 102.857143 154.610785 
L 111.085714 147.2677 
L 119.314286 153.624475 
L 127.542857 161.365273 
L 135.771429 166.90537 
L 144 158.627191 
L 152.228571 145.314634 
L 160.457143 141.535367 
L 168.685714 133.848482 
L 176.914286 128.744468 
L 185.142857 130.11908 
L 193.371429 139.609987 
L 201.6 137.552373 
L 209.828571 142.821585 
L 218.057143 154.905072 
L 226.285714 156.950346 
L 234.514286 155.993638 
L 242.742857 156.369421 
L 250.971429 149.994932 
L 259.2 145.005051 
L 267.428571 142.945439 
L 275.657143 142.09148 
L 283.885714 145.233576 
L 292.114286 149.295491 
L 300.342857 152.353995 
L 308.571429 147.712261 
L 316.8 137.841165 
L 325.028571 137.972522 
L 333.257143 144.529692 
L 341.485714 151.089874 
L 349.714286 154.074411 
L 357.942857 156.197983 
L 366.171429 159.015784 
L 374.4 163.779014 
L 382.628571 171.58796 
L 390.857143 178.634367 
L 399.085714 187.03397 
L 407.314286 190.976263 
L 415.542857 193.139802 
L 423.771429 202.0797 
L 432 207.463472 
L 440.228571 208.589428 
L 448.457143 213.940471 
L 456.685714 228.744232 
L 464.914286 237.126819 
L 473.142857 245.906138 
L 481.371429 249.995803 
L 489.6 255.017286 
" clip-path="url(#p7148363499)" style="fill: none; stroke: #b2b2b2; stroke-opacity: 0.2; stroke-width: 1.5; stroke-linecap: square"/>
   </g>
   <g id="line2d_25">
    <path d="M 86.4 170.997366 
L 94.628571 168.440243 
L 102.857143 157.219481 
L 111.085714 162.755218 
L 119.314286 159.790324 
L 127.542857 151.806859 
L 135.771429 148.222554 
L 144 153.66089 
L 152.228571 159.088607 
L 160.457143 166.894839 
L 168.685714 172.819508 
L 176.914286 179.00592 
L 185.142857 185.289873 
L 193.371429 193.773948 
L 201.6 185.17545 
L 209.828571 177.694525 
L 218.057143 170.544733 
L 226.285714 165.41814 
L 234.514286 161.518106 
L 242.742857 152.678457 
L 250.971429 145.324657 
L 259.2 147.023458 
L 267.428571 152.497093 
L 275.657143 160.684033 
L 283.885714 163.326818 
L 292.114286 163.658793 
L 300.342857 165.012056 
L 308.571429 164.62094 
L 316.8 169.255153 
L 325.028571 174.989266 
L 333.257143 182.625494 
L 341.485714 188.199636 
L 349.714286 192.714145 
L 357.942857 198.293036 
L 366.171429 200.746349 
L 374.4 204.684989 
L 382.628571 208.287873 
L 390.857143 205.375063 
L 399.085714 208.810881 
L 407.314286 214.854281 
L 415.542857 219.788812 
L 423.771429 223.423587 
L 432 229.009562 
L 440.228571 224.158426 
L 448.457143 216.765086 
L 456.685714 208.88136 
L 464.914286 203.445248 
L 473.142857 202.906381 
L 481.371429 199.425954 
L 489.6 194.585043 
" clip-path="url(#p7148363499)" style="fill: none; stroke: #b2b2b2; stroke-opacity: 0.2; stroke-width: 1.5; stroke-linecap: square"/>
   </g>
   <g id="line2d_26">
    <path d="M 86.4 19.415613 
L 94.628571 12.051797 
L 102.857143 5.498911 
L 111.085714 38.185958 
L 119.314286 58.136812 
L 127.542857 74.443529 
L 135.771429 103.434838 
L 144 125.252006 
L 152.228571 145.502194 
L 160.457143 166.161061 
L 168.685714 185.289688 
L 176.914286 175.715503 
L 185.142857 158.311288 
L 193.371429 150.420533 
L 201.6 132.07208 
L 209.828571 121.596716 
L 218.057143 116.189885 
L 226.285714 101.43393 
L 234.514286 98.233731 
L 242.742857 83.493891 
L 250.971429 88.486285 
L 259.2 102.290076 
L 267.428571 124.437952 
L 275.657143 137.671993 
L 283.885714 145.14089 
L 292.114286 150.404728 
L 300.342857 153.895504 
L 308.571429 141.467887 
L 316.8 133.685741 
L 325.028571 125.095505 
L 333.257143 124.635762 
L 341.485714 129.817062 
L 349.714286 125.018638 
L 357.942857 111.606852 
L 366.171429 103.499074 
L 374.4 102.818983 
L 382.628571 105.245712 
L 390.857143 126.727355 
L 399.085714 143.604263 
L 407.314286 159.545357 
L 415.542857 172.732587 
L 423.771429 187.790041 
L 432 185.573357 
L 440.228571 185.774298 
L 448.457143 181.432667 
L 456.685714 167.543274 
L 464.914286 158.41777 
L 473.142857 151.620222 
L 481.371429 142.855337 
L 489.6 129.320349 
" clip-path="url(#p7148363499)" style="fill: none; stroke: #b2b2b2; stroke-opacity: 0.2; stroke-width: 1.5; stroke-linecap: square"/>
   </g>
   <g id="line2d_27">
    <path d="M 86.4 178.367653 
L 94.628571 177.806651 
L 102.857143 169.165185 
L 111.085714 154.217573 
L 119.314286 143.404278 
L 127.542857 131.101166 
L 135.771429 116.717684 
L 144 111.774972 
L 152.228571 106.575464 
L 160.457143 105.442162 
L 168.685714 108.065567 
L 176.914286 116.439948 
L 185.142857 122.487544 
L 193.371429 117.236606 
L 201.6 120.204268 
L 209.828571 127.497469 
L 218.057143 124.509078 
L 226.285714 124.509695 
L 234.514286 114.232754 
L 242.742857 114.462184 
L 250.971429 119.992633 
L 259.2 121.314062 
L 267.428571 121.743909 
L 275.657143 127.354569 
L 283.885714 134.596768 
L 292.114286 139.151447 
L 300.342857 138.988272 
L 308.571429 141.712372 
L 316.8 139.191644 
L 325.028571 137.382808 
L 333.257143 129.406194 
L 341.485714 122.02981 
L 349.714286 107.944852 
L 357.942857 93.842829 
L 366.171429 76.679123 
L 374.4 73.452279 
L 382.628571 71.936926 
L 390.857143 66.975914 
L 399.085714 60.05551 
L 407.314286 52.705377 
L 415.542857 53.534279 
L 423.771429 52.220135 
L 432 41.622916 
L 440.228571 28.773087 
L 448.457143 28.203144 
L 456.685714 30.370382 
L 464.914286 27.236551 
L 473.142857 21.581502 
L 481.371429 28.099571 
L 489.6 37.481134 
" clip-path="url(#p7148363499)" style="fill: none; stroke: #b2b2b2; stroke-opacity: 0.2; stroke-width: 1.5; stroke-linecap: square"/>
   </g>
   <g id="line2d_28">
    <path d="M 167.04 241.92 
L 167.04 40.32 
" clip-path="url(#p7148363499)" style="fill: none; stroke-dasharray: 5.55,2.4; stroke-dashoffset: 0; stroke: #000000; stroke-width: 1.5"/>
   </g>
   <g id="line2d_29">
    <path d="M 86.4 141.12 
L 489.6 141.12 
" clip-path="url(#p7148363499)" style="fill: none; stroke-dasharray: 5.55,2.4; stroke-dashoffset: 0; stroke: #000000; stroke-width: 1.5"/>
   </g>
   <g id="patch_3">
    <path d="M 82.4 241.92 
L 82.4 40.32 
" style="fill: none; stroke: #000000; stroke-width: 0.8; stroke-linejoin: miter; stroke-linecap: square"/>
   </g>
   <g id="patch_4">
    <path d="M 86.4 245.92 
L 489.6 245.92 
" style="fill: none; stroke: #000000; stroke-width: 0.8; stroke-linejoin: miter; stroke-linecap: square"/>
   </g>
   <g id="text_11">
    <!-- all depths -->
    <g transform="translate(268.328125 34.32) scale(0.08 -0.08)">
     <defs>
      <path id="DejaVuSans-6c" d="M 603 4863 
L 1178 4863 
L 1178 0 
L 603 0 
L 603 4863 
z
" transform="scale(0.015625)"/>
      <path id="DejaVuSans-64" d="M 2906 2969 
L 2906 4863 
L 3481 4863 
L 3481 0 
L 2906 0 
L 2906 525 
Q 2725 213 2448 61 
Q 2172 -91 1784 -91 
Q 1150 -91 751 415 
Q 353 922 353 1747 
Q 353 2572 751 3078 
Q 1150 3584 1784 3584 
Q 2172 3584 2448 3432 
Q 2725 3281 2906 2969 
z
M 947 1747 
Q 947 1113 1208 752 
Q 1469 391 1925 391 
Q 2381 391 2643 752 
Q 2906 1113 2906 1747 
Q 2906 2381 2643 2742 
Q 2381 3103 1925 3103 
Q 1469 3103 1208 2742 
Q 947 2381 947 1747 
z
" transform="scale(0.015625)"/>
      <path id="DejaVuSans-70" d="M 1159 525 
L 1159 -1331 
L 581 -1331 
L 581 3500 
L 1159 3500 
L 1159 2969 
Q 1341 3281 1617 3432 
Q 1894 3584 2278 3584 
Q 2916 3584 3314 3078 
Q 3713 2572 3713 1747 
Q 3713 922 3314 415 
Q 2916 -91 2278 -91 
Q 1894 -91 1617 61 
Q 1341 213 1159 525 
z
M 3116 1747 
Q 3116 2381 2855 2742 
Q 2594 3103 2138 3103 
Q 1681 3103 1420 2742 
Q 1159 2381 1159 1747 
Q 1159 1113 1420 752 
Q 1681 391 2138 391 
Q 2594 391 2855 752 
Q 3116 1113 3116 1747 
z
" transform="scale(0.015625)"/>
      <path id="DejaVuSans-74" d="M 1172 4494 
L 1172 3500 
L 2356 3500 
L 2356 3053 
L 1172 3053 
L 1172 1153 
Q 1172 725 1289 603 
Q 1406 481 1766 481 
L 2356 481 
L 2356 0 
L 1766 0 
Q 1100 0 847 248 
Q 594 497 594 1153 
L 594 3053 
L 172 3053 
L 172 3500 
L 594 3500 
L 594 4494 
L 1172 4494 
z
" transform="scale(0.015625)"/>
      <path id="DejaVuSans-73" d="M 2834 3397 
L 2834 2853 
Q 2591 2978 2328 3040 
Q 2066 3103 1784 3103 
Q 1356 3103 1142 2972 
Q 928 2841 928 2578 
Q 928 2378 1081 2264 
Q 1234 2150 1697 2047 
L 1894 2003 
Q 2506 1872 2764 1633 
Q 3022 1394 3022 966 
Q 3022 478 2636 193 
Q 2250 -91 1575 -91 
Q 1294 -91 989 -36 
Q 684 19 347 128 
L 347 722 
Q 666 556 975 473 
Q 1284 391 1588 391 
Q 1994 391 2212 530 
Q 2431 669 2431 922 
Q 2431 1156 2273 1281 
Q 2116 1406 1581 1522 
L 1381 1569 
Q 847 1681 609 1914 
Q 372 2147 372 2553 
Q 372 3047 722 3315 
Q 1072 3584 1716 3584 
Q 2034 3584 2315 3537 
Q 2597 3491 2834 3397 
z
" transform="scale(0.015625)"/>
     </defs>
     <use xlink:href="#DejaVuSans-61"/>
     <use xlink:href="#DejaVuSans-6c" x="61.279297"/>
     <use xlink:href="#DejaVuSans-6c" x="89.0625"/>
     <use xlink:href="#DejaVuSans-20" x="116.845703"/>
     <use xlink:href="#DejaVuSans-64" x="148.632812"/>
     <use xlink:href="#DejaVuSans-65" x="212.109375"/>
     <use xlink:href="#DejaVuSans-70" x="273.632812"/>
     <use xlink:href="#DejaVuSans-74" x="337.109375"/>
     <use xlink:href="#DejaVuSans-68" x="376.318359"/>
     <use xlink:href="#DejaVuSans-73" x="439.697266"/>
    </g>
   </g>
   <g id="legend_1">
    <g id="patch_5">
     <path d="M 213.366406 63.27625 
L 362.633594 63.27625 
Q 364.633594 63.27625 364.633594 61.27625 
L 364.633594 47.32 
Q 364.633594 45.32 362.633594 45.32 
L 213.366406 45.32 
Q 211.366406 45.32 211.366406 47.32 
L 211.366406 61.27625 
Q 211.366406 63.27625 213.366406 63.27625 
z
" style="fill: #ffffff; opacity: 0.8; stroke: #cccccc; stroke-linejoin: miter"/>
    </g>
    <g id="line2d_30">
     <path d="M 215.366406 53.418437 
L 225.366406 53.418437 
L 235.366406 53.418437 
" style="fill: none; stroke: #b2b2b2; stroke-width: 1.5; stroke-linecap: square"/>
    </g>
    <g id="text_12">
     <!-- iso-sur_gPPI_middle_V1 -->
     <g transform="translate(243.366406 56.918437) scale(0.1 -0.1)">
      <defs>
       <path id="DejaVuSans-69" d="M 603 3500 
L 1178 3500 
L 1178 0 
L 603 0 
L 603 3500 
z
M 603 4863 
L 1178 4863 
L 1178 4134 
L 603 4134 
L 603 4863 
z
" transform="scale(0.015625)"/>
       <path id="DejaVuSans-6f" d="M 1959 3097 
Q 1497 3097 1228 2736 
Q 959 2375 959 1747 
Q 959 1119 1226 758 
Q 1494 397 1959 397 
Q 2419 397 2687 759 
Q 2956 1122 2956 1747 
Q 2956 2369 2687 2733 
Q 2419 3097 1959 3097 
z
M 1959 3584 
Q 2709 3584 3137 3096 
Q 3566 2609 3566 1747 
Q 3566 888 3137 398 
Q 2709 -91 1959 -91 
Q 1206 -91 779 398 
Q 353 888 353 1747 
Q 353 2609 779 3096 
Q 1206 3584 1959 3584 
z
" transform="scale(0.015625)"/>
       <path id="DejaVuSans-2d" d="M 313 2009 
L 1997 2009 
L 1997 1497 
L 313 1497 
L 313 2009 
z
" transform="scale(0.015625)"/>
       <path id="DejaVuSans-75" d="M 544 1381 
L 544 3500 
L 1119 3500 
L 1119 1403 
Q 1119 906 1312 657 
Q 1506 409 1894 409 
Q 2359 409 2629 706 
Q 2900 1003 2900 1516 
L 2900 3500 
L 3475 3500 
L 3475 0 
L 2900 0 
L 2900 538 
Q 2691 219 2414 64 
Q 2138 -91 1772 -91 
Q 1169 -91 856 284 
Q 544 659 544 1381 
z
M 1991 3584 
L 1991 3584 
z
" transform="scale(0.015625)"/>
       <path id="DejaVuSans-72" d="M 2631 2963 
Q 2534 3019 2420 3045 
Q 2306 3072 2169 3072 
Q 1681 3072 1420 2755 
Q 1159 2438 1159 1844 
L 1159 0 
L 581 0 
L 581 3500 
L 1159 3500 
L 1159 2956 
Q 1341 3275 1631 3429 
Q 1922 3584 2338 3584 
Q 2397 3584 2469 3576 
Q 2541 3569 2628 3553 
L 2631 2963 
z
" transform="scale(0.015625)"/>
       <path id="DejaVuSans-5f" d="M 3263 -1063 
L 3263 -1509 
L -63 -1509 
L -63 -1063 
L 3263 -1063 
z
" transform="scale(0.015625)"/>
       <path id="DejaVuSans-50" d="M 1259 4147 
L 1259 2394 
L 2053 2394 
Q 2494 2394 2734 2622 
Q 2975 2850 2975 3272 
Q 2975 3691 2734 3919 
Q 2494 4147 2053 4147 
L 1259 4147 
z
M 628 4666 
L 2053 4666 
Q 2838 4666 3239 4311 
Q 3641 3956 3641 3272 
Q 3641 2581 3239 2228 
Q 2838 1875 2053 1875 
L 1259 1875 
L 1259 0 
L 628 0 
L 628 4666 
z
" transform="scale(0.015625)"/>
       <path id="DejaVuSans-49" d="M 628 4666 
L 1259 4666 
L 1259 0 
L 628 0 
L 628 4666 
z
" transform="scale(0.015625)"/>
       <path id="DejaVuSans-6d" d="M 3328 2828 
Q 3544 3216 3844 3400 
Q 4144 3584 4550 3584 
Q 5097 3584 5394 3201 
Q 5691 2819 5691 2113 
L 5691 0 
L 5113 0 
L 5113 2094 
Q 5113 2597 4934 2840 
Q 4756 3084 4391 3084 
Q 3944 3084 3684 2787 
Q 3425 2491 3425 1978 
L 3425 0 
L 2847 0 
L 2847 2094 
Q 2847 2600 2669 2842 
Q 2491 3084 2119 3084 
Q 1678 3084 1418 2786 
Q 1159 2488 1159 1978 
L 1159 0 
L 581 0 
L 581 3500 
L 1159 3500 
L 1159 2956 
Q 1356 3278 1631 3431 
Q 1906 3584 2284 3584 
Q 2666 3584 2933 3390 
Q 3200 3197 3328 2828 
z
" transform="scale(0.015625)"/>
       <path id="DejaVuSans-56" d="M 1831 0 
L 50 4666 
L 709 4666 
L 2188 738 
L 3669 4666 
L 4325 4666 
L 2547 0 
L 1831 0 
z
" transform="scale(0.015625)"/>
      </defs>
      <use xlink:href="#DejaVuSans-69"/>
      <use xlink:href="#DejaVuSans-73" x="27.783203"/>
      <use xlink:href="#DejaVuSans-6f" x="79.882812"/>
      <use xlink:href="#DejaVuSans-2d" x="142.939453"/>
      <use xlink:href="#DejaVuSans-73" x="179.023438"/>
      <use xlink:href="#DejaVuSans-75" x="231.123047"/>
      <use xlink:href="#DejaVuSans-72" x="294.501953"/>
      <use xlink:href="#DejaVuSans-5f" x="335.615234"/>
      <use xlink:href="#DejaVuSans-67" x="385.615234"/>
      <use xlink:href="#DejaVuSans-50" x="449.091797"/>
      <use xlink:href="#DejaVuSans-50" x="509.394531"/>
      <use xlink:href="#DejaVuSans-49" x="569.697266"/>
      <use xlink:href="#DejaVuSans-5f" x="599.189453"/>
      <use xlink:href="#DejaVuSans-6d" x="649.189453"/>
      <use xlink:href="#DejaVuSans-69" x="746.601562"/>
      <use xlink:href="#DejaVuSans-64" x="774.384766"/>
      <use xlink:href="#DejaVuSans-64" x="837.861328"/>
      <use xlink:href="#DejaVuSans-6c" x="901.337891"/>
      <use xlink:href="#DejaVuSans-65" x="929.121094"/>
      <use xlink:href="#DejaVuSans-5f" x="990.644531"/>
      <use xlink:href="#DejaVuSans-56" x="1040.644531"/>
      <use xlink:href="#DejaVuSans-31" x="1109.052734"/>
     </g>
    </g>
   </g>
  </g>
  <g id="axes_2">
   <g id="patch_6">
    <path d="M 86.4 443.52 
L 489.6 443.52 
L 489.6 292.32 
L 86.4 292.32 
z
" style="fill: #ffffff"/>
   </g>
   <g id="patch_7">
    <path d="M 90.432 367.92 
L 163.008 367.92 
L 163.008 268.93622 
L 90.432 268.93622 
z
" clip-path="url(#p254052651b)" style="fill: #b2b2b2; opacity: 0.6"/>
   </g>
   <g id="patch_8">
    <path d="M 171.072 367.92 
L 243.648 367.92 
L 243.648 373.90684 
L 171.072 373.90684 
z
" clip-path="url(#p254052651b)" style="fill: #b2b2b2; opacity: 0.6"/>
   </g>
   <g id="patch_9">
    <path d="M 251.712 367.92 
L 324.288 367.92 
L 324.288 376.635235 
L 251.712 376.635235 
z
" clip-path="url(#p254052651b)" style="fill: #b2b2b2; opacity: 0.6"/>
   </g>
   <g id="patch_10">
    <path d="M 332.352 367.92 
L 404.928 367.92 
L 404.928 375.210902 
L 332.352 375.210902 
z
" clip-path="url(#p254052651b)" style="fill: #b2b2b2; opacity: 0.6"/>
   </g>
   <g id="patch_11">
    <path d="M 412.992 367.92 
L 485.568 367.92 
L 485.568 391.746748 
L 412.992 391.746748 
z
" clip-path="url(#p254052651b)" style="fill: #b2b2b2; opacity: 0.6"/>
   </g>
   <g id="matplotlib.axis_3">
    <g id="xtick_7">
     <g id="line2d_31">
      <g>
       <use xlink:href="#m28eaa43513" x="86.4" y="447.52" style="stroke: #000000; stroke-width: 0.8"/>
      </g>
     </g>
     <g id="text_13">
      <!-- 0 -->
      <g transform="translate(83.21875 462.118438) scale(0.1 -0.1)">
       <use xlink:href="#DejaVuSans-30"/>
      </g>
     </g>
    </g>
    <g id="xtick_8">
     <g id="line2d_32">
      <g>
       <use xlink:href="#m28eaa43513" x="167.04" y="447.52" style="stroke: #000000; stroke-width: 0.8"/>
      </g>
     </g>
     <g id="text_14">
      <!-- 1 -->
      <g transform="translate(163.85875 462.118438) scale(0.1 -0.1)">
       <use xlink:href="#DejaVuSans-31"/>
      </g>
     </g>
    </g>
    <g id="xtick_9">
     <g id="line2d_33">
      <g>
       <use xlink:href="#m28eaa43513" x="247.68" y="447.52" style="stroke: #000000; stroke-width: 0.8"/>
      </g>
     </g>
     <g id="text_15">
      <!-- 2 -->
      <g transform="translate(244.49875 462.118438) scale(0.1 -0.1)">
       <use xlink:href="#DejaVuSans-32"/>
      </g>
     </g>
    </g>
    <g id="xtick_10">
     <g id="line2d_34">
      <g>
       <use xlink:href="#m28eaa43513" x="328.32" y="447.52" style="stroke: #000000; stroke-width: 0.8"/>
      </g>
     </g>
     <g id="text_16">
      <!-- 3 -->
      <g transform="translate(325.13875 462.118438) scale(0.1 -0.1)">
       <defs>
        <path id="DejaVuSans-33" d="M 2597 2516 
Q 3050 2419 3304 2112 
Q 3559 1806 3559 1356 
Q 3559 666 3084 287 
Q 2609 -91 1734 -91 
Q 1441 -91 1130 -33 
Q 819 25 488 141 
L 488 750 
Q 750 597 1062 519 
Q 1375 441 1716 441 
Q 2309 441 2620 675 
Q 2931 909 2931 1356 
Q 2931 1769 2642 2001 
Q 2353 2234 1838 2234 
L 1294 2234 
L 1294 2753 
L 1863 2753 
Q 2328 2753 2575 2939 
Q 2822 3125 2822 3475 
Q 2822 3834 2567 4026 
Q 2313 4219 1838 4219 
Q 1578 4219 1281 4162 
Q 984 4106 628 3988 
L 628 4550 
Q 988 4650 1302 4700 
Q 1616 4750 1894 4750 
Q 2613 4750 3031 4423 
Q 3450 4097 3450 3541 
Q 3450 3153 3228 2886 
Q 3006 2619 2597 2516 
z
" transform="scale(0.015625)"/>
       </defs>
       <use xlink:href="#DejaVuSans-33"/>
      </g>
     </g>
    </g>
    <g id="xtick_11">
     <g id="line2d_35">
      <g>
       <use xlink:href="#m28eaa43513" x="408.96" y="447.52" style="stroke: #000000; stroke-width: 0.8"/>
      </g>
     </g>
     <g id="text_17">
      <!-- 4 -->
      <g transform="translate(405.77875 462.118438) scale(0.1 -0.1)">
       <defs>
        <path id="DejaVuSans-34" d="M 2419 4116 
L 825 1625 
L 2419 1625 
L 2419 4116 
z
M 2253 4666 
L 3047 4666 
L 3047 1625 
L 3713 1625 
L 3713 1100 
L 3047 1100 
L 3047 0 
L 2419 0 
L 2419 1100 
L 313 1100 
L 313 1709 
L 2253 4666 
z
" transform="scale(0.015625)"/>
       </defs>
       <use xlink:href="#DejaVuSans-34"/>
      </g>
     </g>
    </g>
    <g id="xtick_12">
     <g id="line2d_36">
      <g>
       <use xlink:href="#m28eaa43513" x="489.6" y="447.52" style="stroke: #000000; stroke-width: 0.8"/>
      </g>
     </g>
     <g id="text_18">
      <!-- 5 -->
      <g transform="translate(486.41875 462.118438) scale(0.1 -0.1)">
       <use xlink:href="#DejaVuSans-35"/>
      </g>
     </g>
    </g>
    <g id="text_19">
     <!-- relative distance from ROI center ($\sigma$) -->
     <g transform="translate(214.48 474.276875) scale(0.08 -0.08)">
      <defs>
       <path id="DejaVuSans-76" d="M 191 3500 
L 800 3500 
L 1894 563 
L 2988 3500 
L 3597 3500 
L 2284 0 
L 1503 0 
L 191 3500 
z
" transform="scale(0.015625)"/>
       <path id="DejaVuSans-66" d="M 2375 4863 
L 2375 4384 
L 1825 4384 
Q 1516 4384 1395 4259 
Q 1275 4134 1275 3809 
L 1275 3500 
L 2222 3500 
L 2222 3053 
L 1275 3053 
L 1275 0 
L 697 0 
L 697 3053 
L 147 3053 
L 147 3500 
L 697 3500 
L 697 3744 
Q 697 4328 969 4595 
Q 1241 4863 1831 4863 
L 2375 4863 
z
" transform="scale(0.015625)"/>
       <path id="DejaVuSans-52" d="M 2841 2188 
Q 3044 2119 3236 1894 
Q 3428 1669 3622 1275 
L 4263 0 
L 3584 0 
L 2988 1197 
Q 2756 1666 2539 1819 
Q 2322 1972 1947 1972 
L 1259 1972 
L 1259 0 
L 628 0 
L 628 4666 
L 2053 4666 
Q 2853 4666 3247 4331 
Q 3641 3997 3641 3322 
Q 3641 2881 3436 2590 
Q 3231 2300 2841 2188 
z
M 1259 4147 
L 1259 2491 
L 2053 2491 
Q 2509 2491 2742 2702 
Q 2975 2913 2975 3322 
Q 2975 3731 2742 3939 
Q 2509 4147 2053 4147 
L 1259 4147 
z
" transform="scale(0.015625)"/>
       <path id="DejaVuSans-28" d="M 1984 4856 
Q 1566 4138 1362 3434 
Q 1159 2731 1159 2009 
Q 1159 1288 1364 580 
Q 1569 -128 1984 -844 
L 1484 -844 
Q 1016 -109 783 600 
Q 550 1309 550 2009 
Q 550 2706 781 3412 
Q 1013 4119 1484 4856 
L 1984 4856 
z
" transform="scale(0.015625)"/>
       <path id="DejaVuSans-Oblique-3c3" d="M 2219 3044 
Q 1744 3044 1422 2700 
Q 1081 2341 969 1747 
Q 844 1119 1044 756 
Q 1241 397 1706 397 
Q 2166 397 2503 759 
Q 2844 1122 2966 1747 
Q 3075 2319 2881 2700 
Q 2700 3044 2219 3044 
z
M 2309 3503 
L 4219 3500 
L 4106 2925 
L 3463 2925 
Q 3706 2438 3575 1747 
Q 3406 888 2884 400 
Q 2359 -91 1609 -91 
Q 856 -91 525 400 
Q 194 888 363 1747 
Q 528 2609 1050 3097 
Q 1484 3503 2309 3503 
z
" transform="scale(0.015625)"/>
       <path id="DejaVuSans-29" d="M 513 4856 
L 1013 4856 
Q 1481 4119 1714 3412 
Q 1947 2706 1947 2009 
Q 1947 1309 1714 600 
Q 1481 -109 1013 -844 
L 513 -844 
Q 928 -128 1133 580 
Q 1338 1288 1338 2009 
Q 1338 2731 1133 3434 
Q 928 4138 513 4856 
z
" transform="scale(0.015625)"/>
      </defs>
      <use xlink:href="#DejaVuSans-72" transform="translate(0 0.015625)"/>
      <use xlink:href="#DejaVuSans-65" transform="translate(41.113281 0.015625)"/>
      <use xlink:href="#DejaVuSans-6c" transform="translate(102.636719 0.015625)"/>
      <use xlink:href="#DejaVuSans-61" transform="translate(130.419922 0.015625)"/>
      <use xlink:href="#DejaVuSans-74" transform="translate(191.699219 0.015625)"/>
      <use xlink:href="#DejaVuSans-69" transform="translate(230.908203 0.015625)"/>
      <use xlink:href="#DejaVuSans-76" transform="translate(258.691406 0.015625)"/>
      <use xlink:href="#DejaVuSans-65" transform="translate(317.871094 0.015625)"/>
      <use xlink:href="#DejaVuSans-20" transform="translate(379.394531 0.015625)"/>
      <use xlink:href="#DejaVuSans-64" transform="translate(411.181641 0.015625)"/>
      <use xlink:href="#DejaVuSans-69" transform="translate(474.658203 0.015625)"/>
      <use xlink:href="#DejaVuSans-73" transform="translate(502.441406 0.015625)"/>
      <use xlink:href="#DejaVuSans-74" transform="translate(554.541016 0.015625)"/>
      <use xlink:href="#DejaVuSans-61" transform="translate(593.75 0.015625)"/>
      <use xlink:href="#DejaVuSans-6e" transform="translate(655.029297 0.015625)"/>
      <use xlink:href="#DejaVuSans-63" transform="translate(718.408203 0.015625)"/>
      <use xlink:href="#DejaVuSans-65" transform="translate(773.388672 0.015625)"/>
      <use xlink:href="#DejaVuSans-20" transform="translate(834.912109 0.015625)"/>
      <use xlink:href="#DejaVuSans-66" transform="translate(866.699219 0.015625)"/>
      <use xlink:href="#DejaVuSans-72" transform="translate(901.904297 0.015625)"/>
      <use xlink:href="#DejaVuSans-6f" transform="translate(943.017578 0.015625)"/>
      <use xlink:href="#DejaVuSans-6d" transform="translate(1004.199219 0.015625)"/>
      <use xlink:href="#DejaVuSans-20" transform="translate(1101.611328 0.015625)"/>
      <use xlink:href="#DejaVuSans-52" transform="translate(1133.398438 0.015625)"/>
      <use xlink:href="#DejaVuSans-4f" transform="translate(1202.880859 0.015625)"/>
      <use xlink:href="#DejaVuSans-49" transform="translate(1281.591797 0.015625)"/>
      <use xlink:href="#DejaVuSans-20" transform="translate(1311.083984 0.015625)"/>
      <use xlink:href="#DejaVuSans-63" transform="translate(1342.871094 0.015625)"/>
      <use xlink:href="#DejaVuSans-65" transform="translate(1397.851562 0.015625)"/>
      <use xlink:href="#DejaVuSans-6e" transform="translate(1459.375 0.015625)"/>
      <use xlink:href="#DejaVuSans-74" transform="translate(1522.753906 0.015625)"/>
      <use xlink:href="#DejaVuSans-65" transform="translate(1561.962891 0.015625)"/>
      <use xlink:href="#DejaVuSans-72" transform="translate(1623.486328 0.015625)"/>
      <use xlink:href="#DejaVuSans-20" transform="translate(1664.599609 0.015625)"/>
      <use xlink:href="#DejaVuSans-28" transform="translate(1696.386719 0.015625)"/>
      <use xlink:href="#DejaVuSans-Oblique-3c3" transform="translate(1735.400391 0.015625)"/>
      <use xlink:href="#DejaVuSans-29" transform="translate(1798.779297 0.015625)"/>
     </g>
    </g>
   </g>
   <g id="matplotlib.axis_4">
    <g id="ytick_10">
     <g id="line2d_37">
      <g>
       <use xlink:href="#mbbfe50bcb4" x="82.4" y="443.52" style="stroke: #000000; stroke-width: 0.8"/>
      </g>
     </g>
     <g id="text_20">
      <!-- −1.0 -->
      <g transform="translate(51.117187 447.319219) scale(0.1 -0.1)">
       <use xlink:href="#DejaVuSans-2212"/>
       <use xlink:href="#DejaVuSans-31" x="83.789062"/>
       <use xlink:href="#DejaVuSans-2e" x="147.412109"/>
       <use xlink:href="#DejaVuSans-30" x="179.199219"/>
      </g>
     </g>
    </g>
    <g id="ytick_11">
     <g id="line2d_38">
      <g>
       <use xlink:href="#mbbfe50bcb4" x="82.4" y="405.72" style="stroke: #000000; stroke-width: 0.8"/>
      </g>
     </g>
     <g id="text_21">
      <!-- −0.5 -->
      <g transform="translate(51.117187 409.519219) scale(0.1 -0.1)">
       <use xlink:href="#DejaVuSans-2212"/>
       <use xlink:href="#DejaVuSans-30" x="83.789062"/>
       <use xlink:href="#DejaVuSans-2e" x="147.412109"/>
       <use xlink:href="#DejaVuSans-35" x="179.199219"/>
      </g>
     </g>
    </g>
    <g id="ytick_12">
     <g id="line2d_39">
      <g>
       <use xlink:href="#mbbfe50bcb4" x="82.4" y="367.92" style="stroke: #000000; stroke-width: 0.8"/>
      </g>
     </g>
     <g id="text_22">
      <!-- 0.0 -->
      <g transform="translate(59.496875 371.719219) scale(0.1 -0.1)">
       <use xlink:href="#DejaVuSans-30"/>
       <use xlink:href="#DejaVuSans-2e" x="63.623047"/>
       <use xlink:href="#DejaVuSans-30" x="95.410156"/>
      </g>
     </g>
    </g>
    <g id="ytick_13">
     <g id="line2d_40">
      <g>
       <use xlink:href="#mbbfe50bcb4" x="82.4" y="330.12" style="stroke: #000000; stroke-width: 0.8"/>
      </g>
     </g>
     <g id="text_23">
      <!-- 0.5 -->
      <g transform="translate(59.496875 333.919219) scale(0.1 -0.1)">
       <use xlink:href="#DejaVuSans-30"/>
       <use xlink:href="#DejaVuSans-2e" x="63.623047"/>
       <use xlink:href="#DejaVuSans-35" x="95.410156"/>
      </g>
     </g>
    </g>
    <g id="ytick_14">
     <g id="line2d_41">
      <g>
       <use xlink:href="#mbbfe50bcb4" x="82.4" y="292.32" style="stroke: #000000; stroke-width: 0.8"/>
      </g>
     </g>
     <g id="text_24">
      <!-- 1.0 -->
      <g transform="translate(59.496875 296.119219) scale(0.1 -0.1)">
       <use xlink:href="#DejaVuSans-31"/>
       <use xlink:href="#DejaVuSans-2e" x="63.623047"/>
       <use xlink:href="#DejaVuSans-30" x="95.410156"/>
      </g>
     </g>
    </g>
    <g id="text_25">
     <!-- Binned Avg -->
     <g transform="translate(45.453437 390.525625) rotate(-90) scale(0.08 -0.08)">
      <defs>
       <path id="DejaVuSans-41" d="M 2188 4044 
L 1331 1722 
L 3047 1722 
L 2188 4044 
z
M 1831 4666 
L 2547 4666 
L 4325 0 
L 3669 0 
L 3244 1197 
L 1141 1197 
L 716 0 
L 50 0 
L 1831 4666 
z
" transform="scale(0.015625)"/>
      </defs>
      <use xlink:href="#DejaVuSans-42"/>
      <use xlink:href="#DejaVuSans-69" x="68.603516"/>
      <use xlink:href="#DejaVuSans-6e" x="96.386719"/>
      <use xlink:href="#DejaVuSans-6e" x="159.765625"/>
      <use xlink:href="#DejaVuSans-65" x="223.144531"/>
      <use xlink:href="#DejaVuSans-64" x="284.667969"/>
      <use xlink:href="#DejaVuSans-20" x="348.144531"/>
      <use xlink:href="#DejaVuSans-41" x="379.931641"/>
      <use xlink:href="#DejaVuSans-76" x="442.464844"/>
      <use xlink:href="#DejaVuSans-67" x="501.644531"/>
     </g>
    </g>
   </g>
   <g id="LineCollection_1">
    <path d="M 126.72 308.302803 
L 126.72 229.569636 
" clip-path="url(#p254052651b)" style="fill: none; stroke: #000000; stroke-width: 1.5"/>
    <path d="M 207.36 389.753734 
L 207.36 358.059946 
" clip-path="url(#p254052651b)" style="fill: none; stroke: #000000; stroke-width: 1.5"/>
    <path d="M 288 396.865708 
L 288 356.404762 
" clip-path="url(#p254052651b)" style="fill: none; stroke: #000000; stroke-width: 1.5"/>
    <path d="M 368.64 390.617218 
L 368.64 359.804586 
" clip-path="url(#p254052651b)" style="fill: none; stroke: #000000; stroke-width: 1.5"/>
    <path d="M 449.28 420.88705 
L 449.28 362.606447 
" clip-path="url(#p254052651b)" style="fill: none; stroke: #000000; stroke-width: 1.5"/>
   </g>
   <g id="line2d_42">
    <defs>
     <path id="mcc1588ba71" d="M 5 0 
L -5 -0 
" style="stroke: #000000"/>
    </defs>
    <g clip-path="url(#p254052651b)">
     <use xlink:href="#mcc1588ba71" x="126.72" y="308.302803" style="stroke: #000000"/>
     <use xlink:href="#mcc1588ba71" x="207.36" y="389.753734" style="stroke: #000000"/>
     <use xlink:href="#mcc1588ba71" x="288" y="396.865708" style="stroke: #000000"/>
     <use xlink:href="#mcc1588ba71" x="368.64" y="390.617218" style="stroke: #000000"/>
     <use xlink:href="#mcc1588ba71" x="449.28" y="420.88705" style="stroke: #000000"/>
    </g>
   </g>
   <g id="line2d_43">
    <g clip-path="url(#p254052651b)">
     <use xlink:href="#mcc1588ba71" x="126.72" y="229.569636" style="stroke: #000000"/>
     <use xlink:href="#mcc1588ba71" x="207.36" y="358.059946" style="stroke: #000000"/>
     <use xlink:href="#mcc1588ba71" x="288" y="356.404762" style="stroke: #000000"/>
     <use xlink:href="#mcc1588ba71" x="368.64" y="359.804586" style="stroke: #000000"/>
     <use xlink:href="#mcc1588ba71" x="449.28" y="362.606447" style="stroke: #000000"/>
    </g>
   </g>
   <g id="line2d_44">
    <path d="M 86.4 367.92 
L 489.6 367.92 
" clip-path="url(#p254052651b)" style="fill: none; stroke-dasharray: 5.55,2.4; stroke-dashoffset: 0; stroke: #000000; stroke-width: 1.5"/>
   </g>
   <g id="patch_12">
    <path d="M 82.4 443.52 
L 82.4 292.32 
" style="fill: none; stroke: #000000; stroke-width: 0.8; stroke-linejoin: miter; stroke-linecap: square"/>
   </g>
   <g id="patch_13">
    <path d="M 86.4 447.52 
L 489.6 447.52 
" style="fill: none; stroke: #000000; stroke-width: 0.8; stroke-linejoin: miter; stroke-linecap: square"/>
   </g>
   <g id="text_26">
    <!-- * -->
    <g transform="translate(123.72 227.074011) scale(0.12 -0.12)">
     <defs>
      <path id="DejaVuSans-2a" d="M 3009 3897 
L 1888 3291 
L 3009 2681 
L 2828 2375 
L 1778 3009 
L 1778 1831 
L 1422 1831 
L 1422 3009 
L 372 2375 
L 191 2681 
L 1313 3291 
L 191 3897 
L 372 4206 
L 1422 3572 
L 1422 4750 
L 1778 4750 
L 1778 3572 
L 2828 4206 
L 3009 3897 
z
" transform="scale(0.015625)"/>
     </defs>
     <use xlink:href="#DejaVuSans-2a"/>
    </g>
   </g>
  </g>
 </g>
 <defs>
  <clipPath id="p7148363499">
   <rect x="86.4" y="40.32" width="403.2" height="201.6"/>
  </clipPath>
  <clipPath id="p254052651b">
   <rect x="86.4" y="292.32" width="403.2" height="151.2"/>
  </clipPath>
 </defs>
</svg>
