<?xml version="1.0" encoding="utf-8" standalone="no"?>
<!DOCTYPE svg PUBLIC "-//W3C//DTD SVG 1.1//EN"
  "http://www.w3.org/Graphics/SVG/1.1/DTD/svg11.dtd">
<svg xmlns:xlink="http://www.w3.org/1999/xlink" width="576pt" height="504pt" viewBox="0 0 576 504" xmlns="http://www.w3.org/2000/svg" version="1.1">
 <metadata>
  <rdf:RDF xmlns:dc="http://purl.org/dc/elements/1.1/" xmlns:cc="http://creativecommons.org/ns#" xmlns:rdf="http://www.w3.org/1999/02/22-rdf-syntax-ns#">
   <cc:Work>
    <dc:type rdf:resource="http://purl.org/dc/dcmitype/StillImage"/>
    <dc:date>2026-05-26T10:36:36.305752</dc:date>
    <dc:format>image/svg+xml</dc:format>
    <dc:creator>
     <cc:Agent>
      <dc:title>Matplotlib v3.8.0, https://matplotlib.org/</dc:title>
     </cc:Agent>
    </dc:creator>
   </cc:Work>
  </rdf:RDF>
 </metadata>
 <defs>
  <style type="text/css">*{stroke-linejoin: round; stroke-linecap: butt}</style>
 </defs>
 <g id="figure_1">
  <g id="patch_1">
   <path d="M 0 504 
L 576 504 
L 576 0 
L 0 0 
z
" style="fill: #ffffff"/>
  </g>
  <g id="axes_1">
   <g id="patch_2">
    <path d="M 86.4 241.92 
L 489.6 241.92 
L 489.6 40.32 
L 86.4 40.32 
z
" style="fill: #ffffff"/>
   </g>
   <g id="PolyCollection_1">
    <defs>
     <path id="m4ede536d5f" d="M 86.4 -417.169956 
L 86.4 -354.333222 
L 94.628571 -350.702448 
L 102.857143 -347.861477 
L 111.085714 -348.735561 
L 119.314286 -347.296599 
L 127.542857 -348.635119 
L 135.771429 -351.689657 
L 144 -352.242631 
L 152.228571 -355.325186 
L 160.457143 -358.917767 
L 168.685714 -361.982248 
L 176.914286 -364.262753 
L 185.142857 -363.44937 
L 193.371429 -362.044319 
L 201.6 -366.077285 
L 209.828571 -368.803418 
L 218.057143 -367.589471 
L 226.285714 -362.972363 
L 234.514286 -359.609442 
L 242.742857 -356.912527 
L 250.971429 -356.979129 
L 259.2 -357.659757 
L 267.428571 -356.246768 
L 275.657143 -354.764256 
L 283.885714 -354.344789 
L 292.114286 -354.163642 
L 300.342857 -350.905714 
L 308.571429 -347.505086 
L 316.8 -349.365276 
L 325.028571 -349.872781 
L 333.257143 -347.26338 
L 341.485714 -341.460908 
L 349.714286 -337.388767 
L 357.942857 -337.247231 
L 366.171429 -340.067583 
L 374.4 -343.387007 
L 382.628571 -345.935541 
L 390.857143 -344.2825 
L 399.085714 -341.80457 
L 407.314286 -343.657061 
L 415.542857 -345.004345 
L 423.771429 -345.648319 
L 432 -345.977163 
L 440.228571 -345.357802 
L 448.457143 -342.819486 
L 456.685714 -337.947037 
L 464.914286 -333.895924 
L 473.142857 -329.958586 
L 481.371429 -329.148184 
L 489.6 -328.695174 
L 489.6 -362.178331 
L 489.6 -362.178331 
L 481.371429 -361.865681 
L 473.142857 -360.677385 
L 464.914286 -363.941986 
L 456.685714 -368.139302 
L 448.457143 -371.682068 
L 440.228571 -372.998947 
L 432 -373.551736 
L 423.771429 -372.769969 
L 415.542857 -371.361689 
L 407.314286 -369.917602 
L 399.085714 -369.774844 
L 390.857143 -373.370235 
L 382.628571 -375.410594 
L 374.4 -373.611567 
L 366.171429 -371.903937 
L 357.942857 -370.214242 
L 349.714286 -370.608197 
L 341.485714 -372.107905 
L 333.257143 -375.114656 
L 325.028571 -376.960777 
L 316.8 -379.072048 
L 308.571429 -381.645796 
L 300.342857 -386.194603 
L 292.114286 -389.494829 
L 283.885714 -390.142326 
L 275.657143 -392.980043 
L 267.428571 -396.548198 
L 259.2 -399.09672 
L 250.971429 -399.566483 
L 242.742857 -399.527389 
L 234.514286 -401.240342 
L 226.285714 -402.682761 
L 218.057143 -406.716219 
L 209.828571 -408.797442 
L 201.6 -410.142394 
L 193.371429 -409.222006 
L 185.142857 -410.660009 
L 176.914286 -411.524631 
L 168.685714 -412.273708 
L 160.457143 -413.160161 
L 152.228571 -415.891598 
L 144 -419.055376 
L 135.771429 -420.292675 
L 127.542857 -420.642584 
L 119.314286 -421.863548 
L 111.085714 -419.582387 
L 102.857143 -416.035303 
L 94.628571 -415.696058 
L 86.4 -417.169956 
z
" style="stroke: #1aff00; stroke-opacity: 0.4"/>
    </defs>
    <g clip-path="url(#p6a975e363a)">
     <use xlink:href="#m4ede536d5f" x="0" y="504" style="fill: #1aff00; fill-opacity: 0.4; stroke: #1aff00; stroke-opacity: 0.4"/>
    </g>
   </g>
   <g id="matplotlib.axis_1">
    <g id="xtick_1">
     <g id="line2d_1">
      <defs>
       <path id="m2bc4b50247" d="M 0 0 
L 0 3.5 
" style="stroke: #000000; stroke-width: 0.8"/>
      </defs>
      <g>
       <use xlink:href="#m2bc4b50247" x="86.4" y="245.92" style="stroke: #000000; stroke-width: 0.8"/>
      </g>
     </g>
    </g>
    <g id="xtick_2">
     <g id="line2d_2">
      <g>
       <use xlink:href="#m2bc4b50247" x="167.04" y="245.92" style="stroke: #000000; stroke-width: 0.8"/>
      </g>
     </g>
    </g>
    <g id="xtick_3">
     <g id="line2d_3">
      <g>
       <use xlink:href="#m2bc4b50247" x="247.68" y="245.92" style="stroke: #000000; stroke-width: 0.8"/>
      </g>
     </g>
    </g>
    <g id="xtick_4">
     <g id="line2d_4">
      <g>
       <use xlink:href="#m2bc4b50247" x="328.32" y="245.92" style="stroke: #000000; stroke-width: 0.8"/>
      </g>
     </g>
    </g>
    <g id="xtick_5">
     <g id="line2d_5">
      <g>
       <use xlink:href="#m2bc4b50247" x="408.96" y="245.92" style="stroke: #000000; stroke-width: 0.8"/>
      </g>
     </g>
    </g>
    <g id="xtick_6">
     <g id="line2d_6">
      <g>
       <use xlink:href="#m2bc4b50247" x="489.6" y="245.92" style="stroke: #000000; stroke-width: 0.8"/>
      </g>
     </g>
    </g>
   </g>
   <g id="matplotlib.axis_2">
    <g id="ytick_1">
     <g id="line2d_7">
      <defs>
       <path id="mb141e6494d" d="M 0 0 
L -3.5 0 
" style="stroke: #000000; stroke-width: 0.8"/>
      </defs>
      <g>
       <use xlink:href="#mb141e6494d" x="82.4" y="241.92" style="stroke: #000000; stroke-width: 0.8"/>
      </g>
     </g>
     <g id="text_1">
      <!-- −2.0 -->
      <g transform="translate(51.117187 245.719219) scale(0.1 -0.1)">
       <defs>
        <path id="DejaVuSans-2212" d="M 678 2272 
L 4684 2272 
L 4684 1741 
L 678 1741 
L 678 2272 
z
" transform="scale(0.015625)"/>
        <path id="DejaVuSans-32" d="M 1228 531 
L 3431 531 
L 3431 0 
L 469 0 
L 469 531 
Q 828 903 1448 1529 
Q 2069 2156 2228 2338 
Q 2531 2678 2651 2914 
Q 2772 3150 2772 3378 
Q 2772 3750 2511 3984 
Q 2250 4219 1831 4219 
Q 1534 4219 1204 4116 
Q 875 4013 500 3803 
L 500 4441 
Q 881 4594 1212 4672 
Q 1544 4750 1819 4750 
Q 2544 4750 2975 4387 
Q 3406 4025 3406 3419 
Q 3406 3131 3298 2873 
Q 3191 2616 2906 2266 
Q 2828 2175 2409 1742 
Q 1991 1309 1228 531 
z
" transform="scale(0.015625)"/>
        <path id="DejaVuSans-2e" d="M 684 794 
L 1344 794 
L 1344 0 
L 684 0 
L 684 794 
z
" transform="scale(0.015625)"/>
        <path id="DejaVuSans-30" d="M 2034 4250 
Q 1547 4250 1301 3770 
Q 1056 3291 1056 2328 
Q 1056 1369 1301 889 
Q 1547 409 2034 409 
Q 2525 409 2770 889 
Q 3016 1369 3016 2328 
Q 3016 3291 2770 3770 
Q 2525 4250 2034 4250 
z
M 2034 4750 
Q 2819 4750 3233 4129 
Q 3647 3509 3647 2328 
Q 3647 1150 3233 529 
Q 2819 -91 2034 -91 
Q 1250 -91 836 529 
Q 422 1150 422 2328 
Q 422 3509 836 4129 
Q 1250 4750 2034 4750 
z
" transform="scale(0.015625)"/>
       </defs>
       <use xlink:href="#DejaVuSans-2212"/>
       <use xlink:href="#DejaVuSans-32" x="83.789062"/>
       <use xlink:href="#DejaVuSans-2e" x="147.412109"/>
       <use xlink:href="#DejaVuSans-30" x="179.199219"/>
      </g>
     </g>
    </g>
    <g id="ytick_2">
     <g id="line2d_8">
      <g>
       <use xlink:href="#mb141e6494d" x="82.4" y="216.72" style="stroke: #000000; stroke-width: 0.8"/>
      </g>
     </g>
     <g id="text_2">
      <!-- −1.5 -->
      <g transform="translate(51.117187 220.519219) scale(0.1 -0.1)">
       <defs>
        <path id="DejaVuSans-31" d="M 794 531 
L 1825 531 
L 1825 4091 
L 703 3866 
L 703 4441 
L 1819 4666 
L 2450 4666 
L 2450 531 
L 3481 531 
L 3481 0 
L 794 0 
L 794 531 
z
" transform="scale(0.015625)"/>
        <path id="DejaVuSans-35" d="M 691 4666 
L 3169 4666 
L 3169 4134 
L 1269 4134 
L 1269 2991 
Q 1406 3038 1543 3061 
Q 1681 3084 1819 3084 
Q 2600 3084 3056 2656 
Q 3513 2228 3513 1497 
Q 3513 744 3044 326 
Q 2575 -91 1722 -91 
Q 1428 -91 1123 -41 
Q 819 9 494 109 
L 494 744 
Q 775 591 1075 516 
Q 1375 441 1709 441 
Q 2250 441 2565 725 
Q 2881 1009 2881 1497 
Q 2881 1984 2565 2268 
Q 2250 2553 1709 2553 
Q 1456 2553 1204 2497 
Q 953 2441 691 2322 
L 691 4666 
z
" transform="scale(0.015625)"/>
       </defs>
       <use xlink:href="#DejaVuSans-2212"/>
       <use xlink:href="#DejaVuSans-31" x="83.789062"/>
       <use xlink:href="#DejaVuSans-2e" x="147.412109"/>
       <use xlink:href="#DejaVuSans-35" x="179.199219"/>
      </g>
     </g>
    </g>
    <g id="ytick_3">
     <g id="line2d_9">
      <g>
       <use xlink:href="#mb141e6494d" x="82.4" y="191.52" style="stroke: #000000; stroke-width: 0.8"/>
      </g>
     </g>
     <g id="text_3">
      <!-- −1.0 -->
      <g transform="translate(51.117187 195.319219) scale(0.1 -0.1)">
       <use xlink:href="#DejaVuSans-2212"/>
       <use xlink:href="#DejaVuSans-31" x="83.789062"/>
       <use xlink:href="#DejaVuSans-2e" x="147.412109"/>
       <use xlink:href="#DejaVuSans-30" x="179.199219"/>
      </g>
     </g>
    </g>
    <g id="ytick_4">
     <g id="line2d_10">
      <g>
       <use xlink:href="#mb141e6494d" x="82.4" y="166.32" style="stroke: #000000; stroke-width: 0.8"/>
      </g>
     </g>
     <g id="text_4">
      <!-- −0.5 -->
      <g transform="translate(51.117187 170.119219) scale(0.1 -0.1)">
       <use xlink:href="#DejaVuSans-2212"/>
       <use xlink:href="#DejaVuSans-30" x="83.789062"/>
       <use xlink:href="#DejaVuSans-2e" x="147.412109"/>
       <use xlink:href="#DejaVuSans-35" x="179.199219"/>
      </g>
     </g>
    </g>
    <g id="ytick_5">
     <g id="line2d_11">
      <g>
       <use xlink:href="#mb141e6494d" x="82.4" y="141.12" style="stroke: #000000; stroke-width: 0.8"/>
      </g>
     </g>
     <g id="text_5">
      <!-- 0.0 -->
      <g transform="translate(59.496875 144.919219) scale(0.1 -0.1)">
       <use xlink:href="#DejaVuSans-30"/>
       <use xlink:href="#DejaVuSans-2e" x="63.623047"/>
       <use xlink:href="#DejaVuSans-30" x="95.410156"/>
      </g>
     </g>
    </g>
    <g id="ytick_6">
     <g id="line2d_12">
      <g>
       <use xlink:href="#mb141e6494d" x="82.4" y="115.92" style="stroke: #000000; stroke-width: 0.8"/>
      </g>
     </g>
     <g id="text_6">
      <!-- 0.5 -->
      <g transform="translate(59.496875 119.719219) scale(0.1 -0.1)">
       <use xlink:href="#DejaVuSans-30"/>
       <use xlink:href="#DejaVuSans-2e" x="63.623047"/>
       <use xlink:href="#DejaVuSans-35" x="95.410156"/>
      </g>
     </g>
    </g>
    <g id="ytick_7">
     <g id="line2d_13">
      <g>
       <use xlink:href="#mb141e6494d" x="82.4" y="90.72" style="stroke: #000000; stroke-width: 0.8"/>
      </g>
     </g>
     <g id="text_7">
      <!-- 1.0 -->
      <g transform="translate(59.496875 94.519219) scale(0.1 -0.1)">
       <use xlink:href="#DejaVuSans-31"/>
       <use xlink:href="#DejaVuSans-2e" x="63.623047"/>
       <use xlink:href="#DejaVuSans-30" x="95.410156"/>
      </g>
     </g>
    </g>
    <g id="ytick_8">
     <g id="line2d_14">
      <g>
       <use xlink:href="#mb141e6494d" x="82.4" y="65.52" style="stroke: #000000; stroke-width: 0.8"/>
      </g>
     </g>
     <g id="text_8">
      <!-- 1.5 -->
      <g transform="translate(59.496875 69.319219) scale(0.1 -0.1)">
       <use xlink:href="#DejaVuSans-31"/>
       <use xlink:href="#DejaVuSans-2e" x="63.623047"/>
       <use xlink:href="#DejaVuSans-35" x="95.410156"/>
      </g>
     </g>
    </g>
    <g id="ytick_9">
     <g id="line2d_15">
      <g>
       <use xlink:href="#mb141e6494d" x="82.4" y="40.32" style="stroke: #000000; stroke-width: 0.8"/>
      </g>
     </g>
     <g id="text_9">
      <!-- 2.0 -->
      <g transform="translate(59.496875 44.119219) scale(0.1 -0.1)">
       <use xlink:href="#DejaVuSans-32"/>
       <use xlink:href="#DejaVuSans-2e" x="63.623047"/>
       <use xlink:href="#DejaVuSans-30" x="95.410156"/>
      </g>
     </g>
    </g>
    <g id="text_10">
     <!-- BOLD % change -->
     <g transform="translate(45.453437 173.31625) rotate(-90) scale(0.08 -0.08)">
      <defs>
       <path id="DejaVuSans-42" d="M 1259 2228 
L 1259 519 
L 2272 519 
Q 2781 519 3026 730 
Q 3272 941 3272 1375 
Q 3272 1813 3026 2020 
Q 2781 2228 2272 2228 
L 1259 2228 
z
M 1259 4147 
L 1259 2741 
L 2194 2741 
Q 2656 2741 2882 2914 
Q 3109 3088 3109 3444 
Q 3109 3797 2882 3972 
Q 2656 4147 2194 4147 
L 1259 4147 
z
M 628 4666 
L 2241 4666 
Q 2963 4666 3353 4366 
Q 3744 4066 3744 3513 
Q 3744 3084 3544 2831 
Q 3344 2578 2956 2516 
Q 3422 2416 3680 2098 
Q 3938 1781 3938 1306 
Q 3938 681 3513 340 
Q 3088 0 2303 0 
L 628 0 
L 628 4666 
z
" transform="scale(0.015625)"/>
       <path id="DejaVuSans-4f" d="M 2522 4238 
Q 1834 4238 1429 3725 
Q 1025 3213 1025 2328 
Q 1025 1447 1429 934 
Q 1834 422 2522 422 
Q 3209 422 3611 934 
Q 4013 1447 4013 2328 
Q 4013 3213 3611 3725 
Q 3209 4238 2522 4238 
z
M 2522 4750 
Q 3503 4750 4090 4092 
Q 4678 3434 4678 2328 
Q 4678 1225 4090 567 
Q 3503 -91 2522 -91 
Q 1538 -91 948 565 
Q 359 1222 359 2328 
Q 359 3434 948 4092 
Q 1538 4750 2522 4750 
z
" transform="scale(0.015625)"/>
       <path id="DejaVuSans-4c" d="M 628 4666 
L 1259 4666 
L 1259 531 
L 3531 531 
L 3531 0 
L 628 0 
L 628 4666 
z
" transform="scale(0.015625)"/>
       <path id="DejaVuSans-44" d="M 1259 4147 
L 1259 519 
L 2022 519 
Q 2988 519 3436 956 
Q 3884 1394 3884 2338 
Q 3884 3275 3436 3711 
Q 2988 4147 2022 4147 
L 1259 4147 
z
M 628 4666 
L 1925 4666 
Q 3281 4666 3915 4102 
Q 4550 3538 4550 2338 
Q 4550 1131 3912 565 
Q 3275 0 1925 0 
L 628 0 
L 628 4666 
z
" transform="scale(0.015625)"/>
       <path id="DejaVuSans-20" transform="scale(0.015625)"/>
       <path id="DejaVuSans-25" d="M 4653 2053 
Q 4381 2053 4226 1822 
Q 4072 1591 4072 1178 
Q 4072 772 4226 539 
Q 4381 306 4653 306 
Q 4919 306 5073 539 
Q 5228 772 5228 1178 
Q 5228 1588 5073 1820 
Q 4919 2053 4653 2053 
z
M 4653 2450 
Q 5147 2450 5437 2106 
Q 5728 1763 5728 1178 
Q 5728 594 5436 251 
Q 5144 -91 4653 -91 
Q 4153 -91 3862 251 
Q 3572 594 3572 1178 
Q 3572 1766 3864 2108 
Q 4156 2450 4653 2450 
z
M 1428 4353 
Q 1159 4353 1004 4120 
Q 850 3888 850 3481 
Q 850 3069 1003 2837 
Q 1156 2606 1428 2606 
Q 1700 2606 1854 2837 
Q 2009 3069 2009 3481 
Q 2009 3884 1853 4118 
Q 1697 4353 1428 4353 
z
M 4250 4750 
L 4750 4750 
L 1831 -91 
L 1331 -91 
L 4250 4750 
z
M 1428 4750 
Q 1922 4750 2215 4408 
Q 2509 4066 2509 3481 
Q 2509 2891 2217 2550 
Q 1925 2209 1428 2209 
Q 931 2209 642 2551 
Q 353 2894 353 3481 
Q 353 4063 643 4406 
Q 934 4750 1428 4750 
z
" transform="scale(0.015625)"/>
       <path id="DejaVuSans-63" d="M 3122 3366 
L 3122 2828 
Q 2878 2963 2633 3030 
Q 2388 3097 2138 3097 
Q 1578 3097 1268 2742 
Q 959 2388 959 1747 
Q 959 1106 1268 751 
Q 1578 397 2138 397 
Q 2388 397 2633 464 
Q 2878 531 3122 666 
L 3122 134 
Q 2881 22 2623 -34 
Q 2366 -91 2075 -91 
Q 1284 -91 818 406 
Q 353 903 353 1747 
Q 353 2603 823 3093 
Q 1294 3584 2113 3584 
Q 2378 3584 2631 3529 
Q 2884 3475 3122 3366 
z
" transform="scale(0.015625)"/>
       <path id="DejaVuSans-68" d="M 3513 2113 
L 3513 0 
L 2938 0 
L 2938 2094 
Q 2938 2591 2744 2837 
Q 2550 3084 2163 3084 
Q 1697 3084 1428 2787 
Q 1159 2491 1159 1978 
L 1159 0 
L 581 0 
L 581 4863 
L 1159 4863 
L 1159 2956 
Q 1366 3272 1645 3428 
Q 1925 3584 2291 3584 
Q 2894 3584 3203 3211 
Q 3513 2838 3513 2113 
z
" transform="scale(0.015625)"/>
       <path id="DejaVuSans-61" d="M 2194 1759 
Q 1497 1759 1228 1600 
Q 959 1441 959 1056 
Q 959 750 1161 570 
Q 1363 391 1709 391 
Q 2188 391 2477 730 
Q 2766 1069 2766 1631 
L 2766 1759 
L 2194 1759 
z
M 3341 1997 
L 3341 0 
L 2766 0 
L 2766 531 
Q 2569 213 2275 61 
Q 1981 -91 1556 -91 
Q 1019 -91 701 211 
Q 384 513 384 1019 
Q 384 1609 779 1909 
Q 1175 2209 1959 2209 
L 2766 2209 
L 2766 2266 
Q 2766 2663 2505 2880 
Q 2244 3097 1772 3097 
Q 1472 3097 1187 3025 
Q 903 2953 641 2809 
L 641 3341 
Q 956 3463 1253 3523 
Q 1550 3584 1831 3584 
Q 2591 3584 2966 3190 
Q 3341 2797 3341 1997 
z
" transform="scale(0.015625)"/>
       <path id="DejaVuSans-6e" d="M 3513 2113 
L 3513 0 
L 2938 0 
L 2938 2094 
Q 2938 2591 2744 2837 
Q 2550 3084 2163 3084 
Q 1697 3084 1428 2787 
Q 1159 2491 1159 1978 
L 1159 0 
L 581 0 
L 581 3500 
L 1159 3500 
L 1159 2956 
Q 1366 3272 1645 3428 
Q 1925 3584 2291 3584 
Q 2894 3584 3203 3211 
Q 3513 2838 3513 2113 
z
" transform="scale(0.015625)"/>
       <path id="DejaVuSans-67" d="M 2906 1791 
Q 2906 2416 2648 2759 
Q 2391 3103 1925 3103 
Q 1463 3103 1205 2759 
Q 947 2416 947 1791 
Q 947 1169 1205 825 
Q 1463 481 1925 481 
Q 2391 481 2648 825 
Q 2906 1169 2906 1791 
z
M 3481 434 
Q 3481 -459 3084 -895 
Q 2688 -1331 1869 -1331 
Q 1566 -1331 1297 -1286 
Q 1028 -1241 775 -1147 
L 775 -588 
Q 1028 -725 1275 -790 
Q 1522 -856 1778 -856 
Q 2344 -856 2625 -561 
Q 2906 -266 2906 331 
L 2906 616 
Q 2728 306 2450 153 
Q 2172 0 1784 0 
Q 1141 0 747 490 
Q 353 981 353 1791 
Q 353 2603 747 3093 
Q 1141 3584 1784 3584 
Q 2172 3584 2450 3431 
Q 2728 3278 2906 2969 
L 2906 3500 
L 3481 3500 
L 3481 434 
z
" transform="scale(0.015625)"/>
       <path id="DejaVuSans-65" d="M 3597 1894 
L 3597 1613 
L 953 1613 
Q 991 1019 1311 708 
Q 1631 397 2203 397 
Q 2534 397 2845 478 
Q 3156 559 3463 722 
L 3463 178 
Q 3153 47 2828 -22 
Q 2503 -91 2169 -91 
Q 1331 -91 842 396 
Q 353 884 353 1716 
Q 353 2575 817 3079 
Q 1281 3584 2069 3584 
Q 2775 3584 3186 3129 
Q 3597 2675 3597 1894 
z
M 3022 2063 
Q 3016 2534 2758 2815 
Q 2500 3097 2075 3097 
Q 1594 3097 1305 2825 
Q 1016 2553 972 2059 
L 3022 2063 
z
" transform="scale(0.015625)"/>
      </defs>
      <use xlink:href="#DejaVuSans-42"/>
      <use xlink:href="#DejaVuSans-4f" x="66.853516"/>
      <use xlink:href="#DejaVuSans-4c" x="145.564453"/>
      <use xlink:href="#DejaVuSans-44" x="201.277344"/>
      <use xlink:href="#DejaVuSans-20" x="278.279297"/>
      <use xlink:href="#DejaVuSans-25" x="310.066406"/>
      <use xlink:href="#DejaVuSans-20" x="405.085938"/>
      <use xlink:href="#DejaVuSans-63" x="436.873047"/>
      <use xlink:href="#DejaVuSans-68" x="491.853516"/>
      <use xlink:href="#DejaVuSans-61" x="555.232422"/>
      <use xlink:href="#DejaVuSans-6e" x="616.511719"/>
      <use xlink:href="#DejaVuSans-67" x="679.890625"/>
      <use xlink:href="#DejaVuSans-65" x="743.367188"/>
     </g>
    </g>
   </g>
   <g id="line2d_16">
    <path d="M 86.4 118.248411 
L 94.628571 120.800747 
L 102.857143 122.05161 
L 111.085714 119.841026 
L 119.314286 119.419926 
L 127.542857 119.361148 
L 135.771429 118.008834 
L 144 118.350997 
L 152.228571 118.391608 
L 160.457143 117.961036 
L 168.685714 116.872022 
L 176.914286 116.106308 
L 185.142857 116.94531 
L 193.371429 118.366837 
L 201.6 115.89016 
L 209.828571 115.19957 
L 218.057143 116.847155 
L 226.285714 121.172438 
L 234.514286 123.575108 
L 242.742857 125.780042 
L 250.971429 125.727194 
L 259.2 125.621761 
L 267.428571 127.602517 
L 275.657143 130.127851 
L 283.885714 131.756443 
L 292.114286 132.170764 
L 300.342857 135.449842 
L 308.571429 139.424559 
L 316.8 139.781338 
L 325.028571 140.583221 
L 333.257143 142.810982 
L 341.485714 147.215593 
L 349.714286 150.001518 
L 357.942857 150.269264 
L 366.171429 148.01424 
L 374.4 145.500713 
L 382.628571 143.326932 
L 390.857143 145.173633 
L 399.085714 148.210293 
L 407.314286 147.212669 
L 415.542857 145.816983 
L 423.771429 144.790856 
L 432 144.235551 
L 440.228571 144.821625 
L 448.457143 146.749223 
L 456.685714 150.956831 
L 464.914286 155.081045 
L 473.142857 158.682014 
L 481.371429 158.493067 
L 489.6 158.563248 
" clip-path="url(#p6a975e363a)" style="fill: none; stroke: #1aff00; stroke-width: 1.5; stroke-linecap: square"/>
   </g>
   <g id="line2d_17">
    <path d="M 86.4 82.807683 
L 94.628571 84.941402 
L 102.857143 87.970366 
L 111.085714 85.296553 
L 119.314286 82.032152 
L 127.542857 75.596747 
L 135.771429 65.743542 
L 144 62.026031 
L 152.228571 80.216476 
L 160.457143 97.046253 
L 168.685714 109.958554 
L 176.914286 118.155963 
L 185.142857 123.062958 
L 193.371429 124.441312 
L 201.6 126.945944 
L 209.828571 136.291857 
L 218.057143 143.28027 
L 226.285714 142.794285 
L 234.514286 138.36188 
L 242.742857 137.713527 
L 250.971429 136.781946 
L 259.2 132.629062 
L 267.428571 133.534748 
L 275.657143 133.397317 
L 283.885714 133.649013 
L 292.114286 130.915963 
L 300.342857 132.37819 
L 308.571429 131.377899 
L 316.8 137.958748 
L 325.028571 146.152395 
L 333.257143 147.532782 
L 341.485714 147.602969 
L 349.714286 148.75646 
L 357.942857 143.07523 
L 366.171429 136.274101 
L 374.4 129.882573 
L 382.628571 132.799575 
L 390.857143 141.047477 
L 399.085714 144.841541 
L 407.314286 137.704796 
L 415.542857 118.902659 
L 423.771429 94.039342 
L 432 83.896976 
L 440.228571 81.897705 
L 448.457143 80.139818 
L 456.685714 79.073885 
L 464.914286 89.719102 
L 473.142857 96.139456 
L 481.371429 94.889483 
L 489.6 87.755224 
" clip-path="url(#p6a975e363a)" style="fill: none; stroke: #1aff00; stroke-opacity: 0.2; stroke-width: 1.5; stroke-linecap: square"/>
   </g>
   <g id="line2d_18">
    <path d="M 86.4 88.275487 
L 94.628571 88.275487 
L 102.857143 84.493072 
L 111.085714 79.664995 
L 119.314286 87.432377 
L 127.542857 97.657362 
L 135.771429 108.794248 
L 144 116.318017 
L 152.228571 119.590475 
L 160.457143 123.948228 
L 168.685714 124.447965 
L 176.914286 118.9675 
L 185.142857 113.940728 
L 193.371429 111.515717 
L 201.6 107.266567 
L 209.828571 104.678053 
L 218.057143 104.862545 
L 226.285714 107.507911 
L 234.514286 107.565718 
L 242.742857 109.640365 
L 250.971429 108.226087 
L 259.2 109.30754 
L 267.428571 110.943688 
L 275.657143 115.495601 
L 283.885714 119.167446 
L 292.114286 122.048236 
L 300.342857 120.714197 
L 308.571429 121.526167 
L 316.8 121.61686 
L 325.028571 120.63686 
L 333.257143 123.34454 
L 341.485714 124.595435 
L 349.714286 127.323967 
L 357.942857 130.132744 
L 366.171429 133.401811 
L 374.4 134.602343 
L 382.628571 131.477079 
L 390.857143 133.462088 
L 399.085714 136.906301 
L 407.314286 138.869011 
L 415.542857 137.993894 
L 423.771429 136.012327 
L 432 133.757665 
L 440.228571 135.323848 
L 448.457143 139.487499 
L 456.685714 141.121608 
L 464.914286 144.839175 
L 473.142857 146.079277 
L 481.371429 148.5317 
L 489.6 149.928595 
" clip-path="url(#p6a975e363a)" style="fill: none; stroke: #1aff00; stroke-opacity: 0.2; stroke-width: 1.5; stroke-linecap: square"/>
   </g>
   <g id="line2d_19">
    <path d="M 129.58029 -1 
L 135.771429 3.96614 
L 144 10.786481 
L 152.228571 7.137442 
L 160.457143 -0.512867 
L 168.685714 0.65669 
L 176.914286 11.515073 
L 185.142857 26.117832 
L 193.371429 35.051891 
L 201.6 30.222884 
L 209.828571 37.792658 
L 218.057143 41.745621 
L 226.285714 51.820678 
L 234.514286 48.119385 
L 242.742857 43.863436 
L 250.971429 41.454881 
L 259.2 46.173118 
L 267.428571 50.011631 
L 275.657143 51.575491 
L 283.885714 45.147143 
L 292.114286 33.56386 
L 300.342857 30.866478 
L 308.571429 46.174859 
L 316.8 67.354268 
L 325.028571 90.270244 
L 333.257143 110.759795 
L 341.485714 132.82954 
L 349.714286 141.836097 
L 357.942857 139.89862 
L 366.171429 132.110934 
L 374.4 127.492628 
L 382.628571 126.304552 
L 390.857143 134.993471 
L 399.085714 147.730111 
L 407.314286 142.663102 
L 415.542857 140.048764 
L 423.771429 146.288128 
L 432 143.888371 
L 440.228571 135.349181 
L 448.457143 125.655026 
L 456.685714 151.190352 
L 464.914286 178.952003 
L 473.142857 184.042697 
L 481.371429 181.981581 
L 489.6 183.6682 
" clip-path="url(#p6a975e363a)" style="fill: none; stroke: #1aff00; stroke-opacity: 0.2; stroke-width: 1.5; stroke-linecap: square"/>
   </g>
   <g id="line2d_20">
    <path d="M 86.4 71.491632 
L 94.628571 71.491632 
L 102.857143 70.000807 
L 111.085714 69.091033 
L 119.314286 74.339073 
L 127.542857 83.251246 
L 135.771429 93.319352 
L 144 100.034468 
L 152.228571 102.476488 
L 160.457143 110.45042 
L 168.685714 114.899443 
L 176.914286 119.164719 
L 185.142857 126.820379 
L 193.371429 128.947827 
L 201.6 127.323658 
L 209.828571 125.270915 
L 218.057143 123.825249 
L 226.285714 127.489399 
L 234.514286 130.032874 
L 242.742857 134.151619 
L 250.971429 139.559474 
L 259.2 143.767112 
L 267.428571 149.787155 
L 275.657143 158.37141 
L 283.885714 166.401004 
L 292.114286 175.411911 
L 300.342857 182.323694 
L 308.571429 192.212921 
L 316.8 197.721074 
L 325.028571 200.493076 
L 333.257143 202.930032 
L 341.485714 206.823463 
L 349.714286 207.876676 
L 357.942857 206.340099 
L 366.171429 204.869009 
L 374.4 205.47703 
L 382.628571 205.74054 
L 390.857143 207.291048 
L 399.085714 212.29244 
L 407.314286 216.857998 
L 415.542857 221.494104 
L 423.771429 225.924479 
L 432 224.759026 
L 440.228571 220.423204 
L 448.457143 219.083889 
L 456.685714 216.456137 
L 464.914286 212.59678 
L 473.142857 208.733976 
L 481.371429 205.505155 
L 489.6 206.674771 
" clip-path="url(#p6a975e363a)" style="fill: none; stroke: #1aff00; stroke-opacity: 0.2; stroke-width: 1.5; stroke-linecap: square"/>
   </g>
   <g id="line2d_21">
    <path d="M 86.4 107.987893 
L 94.628571 108.487537 
L 102.857143 108.898586 
L 111.085714 92.924692 
L 119.314286 68.248954 
L 127.542857 45.965446 
L 135.771429 36.278078 
L 144 38.091123 
L 152.228571 50.599525 
L 160.457143 58.382887 
L 168.685714 53.829649 
L 176.914286 44.626934 
L 185.142857 31.74803 
L 193.371429 32.271207 
L 201.6 43.47084 
L 209.828571 52.994222 
L 218.057143 49.063103 
L 226.285714 40.901642 
L 234.514286 32.819721 
L 242.742857 35.111993 
L 250.971429 35.653957 
L 259.2 32.195216 
L 267.428571 35.631232 
L 275.657143 41.819239 
L 283.885714 51.952999 
L 292.114286 57.53708 
L 300.342857 70.834904 
L 308.571429 79.632446 
L 316.8 88.843225 
L 325.028571 98.073833 
L 333.257143 104.860553 
L 341.485714 107.750317 
L 349.714286 106.838154 
L 357.942857 109.275401 
L 366.171429 104.931476 
L 374.4 103.739736 
L 382.628571 97.473132 
L 390.857143 104.404315 
L 399.085714 120.068177 
L 407.314286 133.043654 
L 415.542857 134.849623 
L 423.771429 137.983496 
L 432 140.185648 
L 440.228571 132.979581 
L 448.457143 125.247063 
L 456.685714 119.146937 
L 464.914286 116.558602 
L 473.142857 115.66225 
L 481.371429 102.913638 
L 489.6 103.940517 
" clip-path="url(#p6a975e363a)" style="fill: none; stroke: #1aff00; stroke-opacity: 0.2; stroke-width: 1.5; stroke-linecap: square"/>
   </g>
   <g id="line2d_22">
    <path d="M 86.4 382.465623 
L 94.628571 391.159957 
L 102.857143 405.403183 
L 111.085714 414.904089 
L 119.314286 440.769426 
L 127.542857 432.800122 
L 135.771429 416.783004 
L 144 410.786195 
L 152.228571 382.162787 
L 160.457143 343.91867 
L 168.685714 311.528039 
L 176.914286 277.342449 
L 185.142857 273.245668 
L 193.371429 274.418408 
L 201.6 240.485475 
L 209.828571 206.204886 
L 218.057143 201.213294 
L 226.285714 207.127631 
L 234.514286 219.058206 
L 242.742857 238.868083 
L 250.971429 238.823461 
L 259.2 245.698407 
L 267.428571 250.299285 
L 275.657143 247.843887 
L 283.885714 235.412935 
L 292.114286 226.09786 
L 300.342857 227.86969 
L 308.571429 234.602497 
L 316.8 216.021427 
L 325.028571 209.786925 
L 333.257143 215.167431 
L 341.485714 219.103938 
L 349.714286 227.596914 
L 357.942857 226.534596 
L 366.171429 219.903206 
L 374.4 210.928706 
L 382.628571 215.364081 
L 390.857143 219.937066 
L 399.085714 217.088659 
L 407.314286 200.364146 
L 415.542857 190.785445 
L 423.771429 173.071262 
L 432 162.453551 
L 440.228571 166.52676 
L 448.457143 177.544056 
L 456.685714 194.760228 
L 464.914286 203.152679 
L 473.142857 221.728535 
L 481.371429 239.122764 
L 489.6 241.147026 
" clip-path="url(#p6a975e363a)" style="fill: none; stroke: #1aff00; stroke-opacity: 0.2; stroke-width: 1.5; stroke-linecap: square"/>
   </g>
   <g id="line2d_23">
    <path d="M 86.4 97.561368 
L 94.628571 96.375203 
L 102.857143 82.101823 
L 111.085714 65.931106 
L 119.314286 55.951611 
L 127.542857 48.251742 
L 135.771429 51.218236 
L 144 56.704698 
L 152.228571 68.075247 
L 160.457143 76.01226 
L 168.685714 78.316433 
L 176.914286 80.184643 
L 185.142857 85.132763 
L 193.371429 84.848217 
L 201.6 81.837467 
L 209.828571 85.318086 
L 218.057143 93.709118 
L 226.285714 105.326349 
L 234.514286 114.162695 
L 242.742857 116.003649 
L 250.971429 115.37371 
L 259.2 117.520712 
L 267.428571 122.403155 
L 275.657143 125.254358 
L 283.885714 125.92614 
L 292.114286 128.00818 
L 300.342857 132.208977 
L 308.571429 135.000408 
L 316.8 135.732013 
L 325.028571 139.743129 
L 333.257143 145.417473 
L 341.485714 143.435894 
L 349.714286 139.641855 
L 357.942857 132.978606 
L 366.171429 132.923005 
L 374.4 137.227891 
L 382.628571 137.191186 
L 390.857143 139.854037 
L 399.085714 142.939781 
L 407.314286 146.059422 
L 415.542857 155.043734 
L 423.771429 165.79557 
L 432 175.131404 
L 440.228571 183.855645 
L 448.457143 193.58491 
L 456.685714 204.640754 
L 464.914286 206.378287 
L 473.142857 202.889078 
L 481.371429 202.123589 
L 489.6 203.412328 
" clip-path="url(#p6a975e363a)" style="fill: none; stroke: #1aff00; stroke-opacity: 0.2; stroke-width: 1.5; stroke-linecap: square"/>
   </g>
   <g id="line2d_24">
    <path d="M 86.4 9.856663 
L 94.628571 9.858343 
L 102.857143 8.735961 
L 111.085714 3.165878 
L 119.314286 2.028678 
L 127.542857 20.592002 
L 135.771429 31.980853 
L 144 32.22755 
L 152.228571 33.627395 
L 160.457143 39.850441 
L 168.685714 36.447822 
L 176.914286 36.772251 
L 185.142857 36.596318 
L 193.371429 43.809016 
L 201.6 41.716855 
L 209.828571 38.166762 
L 218.057143 38.962584 
L 226.285714 41.631347 
L 234.514286 42.554474 
L 242.742857 43.097857 
L 250.971429 40.728311 
L 259.2 40.325944 
L 267.428571 43.652942 
L 275.657143 52.201949 
L 283.885714 65.089209 
L 292.114286 72.110315 
L 300.342857 79.232344 
L 308.571429 85.271622 
L 316.8 84.166128 
L 325.028571 72.148155 
L 333.257143 57.060961 
L 341.485714 50.263211 
L 349.714286 45.468118 
L 357.942857 49.553327 
L 366.171429 51.780713 
L 374.4 50.54457 
L 382.628571 47.943302 
L 390.857143 42.744095 
L 399.085714 41.332879 
L 407.314286 42.077749 
L 415.542857 42.148936 
L 423.771429 45.05622 
L 432 46.4601 
L 440.228571 51.21093 
L 448.457143 55.254319 
L 456.685714 54.975753 
L 464.914286 56.12611 
L 473.142857 57.222809 
L 481.371429 55.683477 
L 489.6 53.483904 
" clip-path="url(#p6a975e363a)" style="fill: none; stroke: #1aff00; stroke-opacity: 0.2; stroke-width: 1.5; stroke-linecap: square"/>
   </g>
   <g id="line2d_25">
    <path d="M 86.4 153.970714 
L 94.628571 150.225608 
L 102.857143 148.817326 
L 111.085714 138.798929 
L 119.314286 138.833991 
L 127.542857 148.15262 
L 135.771429 154.300825 
L 144 149.930199 
L 152.228571 144.756388 
L 160.457143 136.487781 
L 168.685714 131.243573 
L 176.914286 129.511526 
L 185.142857 123.38222 
L 193.371429 119.261814 
L 201.6 121.624431 
L 209.828571 127.308635 
L 218.057143 133.351438 
L 226.285714 138.38283 
L 234.514286 142.685295 
L 242.742857 144.175029 
L 250.971429 145.737679 
L 259.2 146.043504 
L 267.428571 148.000897 
L 275.657143 150.427572 
L 283.885714 150.231357 
L 292.114286 151.375066 
L 300.342857 152.388002 
L 308.571429 151.723495 
L 316.8 148.831701 
L 325.028571 147.423833 
L 333.257143 143.964098 
L 341.485714 142.690152 
L 349.714286 143.690651 
L 357.942857 143.552893 
L 366.171429 144.852245 
L 374.4 145.953996 
L 382.628571 142.088221 
L 390.857143 137.272259 
L 399.085714 131.694132 
L 407.314286 127.219421 
L 415.542857 127.707678 
L 423.771429 127.684588 
L 432 131.128283 
L 440.228571 132.365932 
L 448.457143 132.940722 
L 456.685714 131.011551 
L 464.914286 127.107807 
L 473.142857 128.834237 
L 481.371429 128.774721 
L 489.6 133.672014 
" clip-path="url(#p6a975e363a)" style="fill: none; stroke: #1aff00; stroke-opacity: 0.2; stroke-width: 1.5; stroke-linecap: square"/>
   </g>
   <g id="line2d_26">
    <path d="M 86.4 227.463457 
L 94.628571 243.780294 
L 102.857143 254.054011 
L 111.085714 267.969221 
L 119.314286 265.613639 
L 127.542857 256.632565 
L 135.771429 244.802993 
L 144 239.558773 
L 152.228571 225.16271 
L 160.457143 222.074504 
L 168.685714 228.354314 
L 176.914286 247.3667 
L 185.142857 255.35667 
L 193.371429 262.087384 
L 201.6 266.81602 
L 209.828571 263.404493 
L 218.057143 260.712344 
L 226.285714 266.673624 
L 234.514286 270.995792 
L 242.742857 264.976052 
L 250.971429 261.599988 
L 259.2 244.261716 
L 267.428571 233.897196 
L 275.657143 224.04843 
L 283.885714 220.944057 
L 292.114286 219.651892 
L 300.342857 225.642711 
L 308.571429 226.380018 
L 316.8 216.437918 
L 325.028571 202.669024 
L 333.257143 203.519775 
L 341.485714 230.180655 
L 349.714286 246.189011 
L 357.942857 251.600424 
L 366.171429 245.901577 
L 374.4 233.068456 
L 382.628571 214.719947 
L 390.857143 204.049555 
L 399.085714 194.165145 
L 407.314286 183.781729 
L 415.542857 178.128375 
L 423.771429 179.719149 
L 432 180.760399 
L 440.228571 186.30529 
L 448.457143 194.665387 
L 456.685714 198.299547 
L 464.914286 196.06745 
L 473.142857 200.15615 
L 481.371429 203.964327 
L 489.6 204.31513 
" clip-path="url(#p6a975e363a)" style="fill: none; stroke: #1aff00; stroke-opacity: 0.2; stroke-width: 1.5; stroke-linecap: square"/>
   </g>
   <g id="line2d_27">
    <path d="M 86.4 100.160907 
L 94.628571 107.2217 
L 102.857143 119.252774 
L 111.085714 121.51746 
L 119.314286 114.127787 
L 127.542857 106.707081 
L 135.771429 90.909905 
L 144 85.397428 
L 152.228571 88.502756 
L 160.457143 89.91282 
L 168.685714 95.909758 
L 176.914286 93.561631 
L 185.142857 90.994846 
L 193.371429 85.382419 
L 201.6 87.081624 
L 209.828571 89.764706 
L 218.057143 94.593137 
L 226.285714 103.241121 
L 234.514286 112.970147 
L 242.742857 115.978852 
L 250.971429 119.059642 
L 259.2 123.917046 
L 267.428571 125.465761 
L 275.657143 130.971105 
L 283.885714 135.399566 
L 292.114286 137.158043 
L 300.342857 135.489074 
L 308.571429 129.767817 
L 316.8 122.911356 
L 325.028571 119.017961 
L 333.257143 116.363363 
L 341.485714 114.095951 
L 349.714286 114.798791 
L 357.942857 120.019961 
L 366.171429 121.208563 
L 374.4 121.589912 
L 382.628571 125.494643 
L 390.857143 131.854549 
L 399.085714 141.254058 
L 407.314286 150.698329 
L 415.542857 156.883601 
L 423.771429 161.124854 
L 432 164.169632 
L 440.228571 166.799804 
L 448.457143 170.638764 
L 456.685714 169.848387 
L 464.914286 174.393502 
L 473.142857 184.013693 
L 481.371429 179.933307 
L 489.6 176.198015 
" clip-path="url(#p6a975e363a)" style="fill: none; stroke: #1aff00; stroke-opacity: 0.2; stroke-width: 1.5; stroke-linecap: square"/>
   </g>
   <g id="line2d_28">
    <path d="M 167.04 241.92 
L 167.04 40.32 
" clip-path="url(#p6a975e363a)" style="fill: none; stroke-dasharray: 5.55,2.4; stroke-dashoffset: 0; stroke: #000000; stroke-width: 1.5"/>
   </g>
   <g id="line2d_29">
    <path d="M 86.4 141.12 
L 489.6 141.12 
" clip-path="url(#p6a975e363a)" style="fill: none; stroke-dasharray: 5.55,2.4; stroke-dashoffset: 0; stroke: #000000; stroke-width: 1.5"/>
   </g>
   <g id="patch_3">
    <path d="M 82.4 241.92 
L 82.4 40.32 
" style="fill: none; stroke: #000000; stroke-width: 0.8; stroke-linejoin: miter; stroke-linecap: square"/>
   </g>
   <g id="patch_4">
    <path d="M 86.4 245.92 
L 489.6 245.92 
" style="fill: none; stroke: #000000; stroke-width: 0.8; stroke-linejoin: miter; stroke-linecap: square"/>
   </g>
   <g id="text_11">
    <!-- all depths -->
    <g transform="translate(268.328125 34.32) scale(0.08 -0.08)">
     <defs>
      <path id="DejaVuSans-6c" d="M 603 4863 
L 1178 4863 
L 1178 0 
L 603 0 
L 603 4863 
z
" transform="scale(0.015625)"/>
      <path id="DejaVuSans-64" d="M 2906 2969 
L 2906 4863 
L 3481 4863 
L 3481 0 
L 2906 0 
L 2906 525 
Q 2725 213 2448 61 
Q 2172 -91 1784 -91 
Q 1150 -91 751 415 
Q 353 922 353 1747 
Q 353 2572 751 3078 
Q 1150 3584 1784 3584 
Q 2172 3584 2448 3432 
Q 2725 3281 2906 2969 
z
M 947 1747 
Q 947 1113 1208 752 
Q 1469 391 1925 391 
Q 2381 391 2643 752 
Q 2906 1113 2906 1747 
Q 2906 2381 2643 2742 
Q 2381 3103 1925 3103 
Q 1469 3103 1208 2742 
Q 947 2381 947 1747 
z
" transform="scale(0.015625)"/>
      <path id="DejaVuSans-70" d="M 1159 525 
L 1159 -1331 
L 581 -1331 
L 581 3500 
L 1159 3500 
L 1159 2969 
Q 1341 3281 1617 3432 
Q 1894 3584 2278 3584 
Q 2916 3584 3314 3078 
Q 3713 2572 3713 1747 
Q 3713 922 3314 415 
Q 2916 -91 2278 -91 
Q 1894 -91 1617 61 
Q 1341 213 1159 525 
z
M 3116 1747 
Q 3116 2381 2855 2742 
Q 2594 3103 2138 3103 
Q 1681 3103 1420 2742 
Q 1159 2381 1159 1747 
Q 1159 1113 1420 752 
Q 1681 391 2138 391 
Q 2594 391 2855 752 
Q 3116 1113 3116 1747 
z
" transform="scale(0.015625)"/>
      <path id="DejaVuSans-74" d="M 1172 4494 
L 1172 3500 
L 2356 3500 
L 2356 3053 
L 1172 3053 
L 1172 1153 
Q 1172 725 1289 603 
Q 1406 481 1766 481 
L 2356 481 
L 2356 0 
L 1766 0 
Q 1100 0 847 248 
Q 594 497 594 1153 
L 594 3053 
L 172 3053 
L 172 3500 
L 594 3500 
L 594 4494 
L 1172 4494 
z
" transform="scale(0.015625)"/>
      <path id="DejaVuSans-73" d="M 2834 3397 
L 2834 2853 
Q 2591 2978 2328 3040 
Q 2066 3103 1784 3103 
Q 1356 3103 1142 2972 
Q 928 2841 928 2578 
Q 928 2378 1081 2264 
Q 1234 2150 1697 2047 
L 1894 2003 
Q 2506 1872 2764 1633 
Q 3022 1394 3022 966 
Q 3022 478 2636 193 
Q 2250 -91 1575 -91 
Q 1294 -91 989 -36 
Q 684 19 347 128 
L 347 722 
Q 666 556 975 473 
Q 1284 391 1588 391 
Q 1994 391 2212 530 
Q 2431 669 2431 922 
Q 2431 1156 2273 1281 
Q 2116 1406 1581 1522 
L 1381 1569 
Q 847 1681 609 1914 
Q 372 2147 372 2553 
Q 372 3047 722 3315 
Q 1072 3584 1716 3584 
Q 2034 3584 2315 3537 
Q 2597 3491 2834 3397 
z
" transform="scale(0.015625)"/>
     </defs>
     <use xlink:href="#DejaVuSans-61"/>
     <use xlink:href="#DejaVuSans-6c" x="61.279297"/>
     <use xlink:href="#DejaVuSans-6c" x="89.0625"/>
     <use xlink:href="#DejaVuSans-20" x="116.845703"/>
     <use xlink:href="#DejaVuSans-64" x="148.632812"/>
     <use xlink:href="#DejaVuSans-65" x="212.109375"/>
     <use xlink:href="#DejaVuSans-70" x="273.632812"/>
     <use xlink:href="#DejaVuSans-74" x="337.109375"/>
     <use xlink:href="#DejaVuSans-68" x="376.318359"/>
     <use xlink:href="#DejaVuSans-73" x="439.697266"/>
    </g>
   </g>
   <g id="legend_1">
    <g id="patch_5">
     <path d="M 93.4 236.92 
L 238.35625 236.92 
Q 240.35625 236.92 240.35625 234.92 
L 240.35625 220.96375 
Q 240.35625 218.96375 238.35625 218.96375 
L 93.4 218.96375 
Q 91.4 218.96375 91.4 220.96375 
L 91.4 234.92 
Q 91.4 236.92 93.4 236.92 
z
" style="fill: #ffffff; opacity: 0.8; stroke: #cccccc; stroke-linejoin: miter"/>
    </g>
    <g id="line2d_30">
     <path d="M 95.4 227.062187 
L 105.4 227.062187 
L 115.4 227.062187 
" style="fill: none; stroke: #1aff00; stroke-width: 1.5; stroke-linecap: square"/>
    </g>
    <g id="text_12">
     <!-- odss_gPPI_middle_V23 -->
     <g transform="translate(123.4 230.562187) scale(0.1 -0.1)">
      <defs>
       <path id="DejaVuSans-6f" d="M 1959 3097 
Q 1497 3097 1228 2736 
Q 959 2375 959 1747 
Q 959 1119 1226 758 
Q 1494 397 1959 397 
Q 2419 397 2687 759 
Q 2956 1122 2956 1747 
Q 2956 2369 2687 2733 
Q 2419 3097 1959 3097 
z
M 1959 3584 
Q 2709 3584 3137 3096 
Q 3566 2609 3566 1747 
Q 3566 888 3137 398 
Q 2709 -91 1959 -91 
Q 1206 -91 779 398 
Q 353 888 353 1747 
Q 353 2609 779 3096 
Q 1206 3584 1959 3584 
z
" transform="scale(0.015625)"/>
       <path id="DejaVuSans-5f" d="M 3263 -1063 
L 3263 -1509 
L -63 -1509 
L -63 -1063 
L 3263 -1063 
z
" transform="scale(0.015625)"/>
       <path id="DejaVuSans-50" d="M 1259 4147 
L 1259 2394 
L 2053 2394 
Q 2494 2394 2734 2622 
Q 2975 2850 2975 3272 
Q 2975 3691 2734 3919 
Q 2494 4147 2053 4147 
L 1259 4147 
z
M 628 4666 
L 2053 4666 
Q 2838 4666 3239 4311 
Q 3641 3956 3641 3272 
Q 3641 2581 3239 2228 
Q 2838 1875 2053 1875 
L 1259 1875 
L 1259 0 
L 628 0 
L 628 4666 
z
" transform="scale(0.015625)"/>
       <path id="DejaVuSans-49" d="M 628 4666 
L 1259 4666 
L 1259 0 
L 628 0 
L 628 4666 
z
" transform="scale(0.015625)"/>
       <path id="DejaVuSans-6d" d="M 3328 2828 
Q 3544 3216 3844 3400 
Q 4144 3584 4550 3584 
Q 5097 3584 5394 3201 
Q 5691 2819 5691 2113 
L 5691 0 
L 5113 0 
L 5113 2094 
Q 5113 2597 4934 2840 
Q 4756 3084 4391 3084 
Q 3944 3084 3684 2787 
Q 3425 2491 3425 1978 
L 3425 0 
L 2847 0 
L 2847 2094 
Q 2847 2600 2669 2842 
Q 2491 3084 2119 3084 
Q 1678 3084 1418 2786 
Q 1159 2488 1159 1978 
L 1159 0 
L 581 0 
L 581 3500 
L 1159 3500 
L 1159 2956 
Q 1356 3278 1631 3431 
Q 1906 3584 2284 3584 
Q 2666 3584 2933 3390 
Q 3200 3197 3328 2828 
z
" transform="scale(0.015625)"/>
       <path id="DejaVuSans-69" d="M 603 3500 
L 1178 3500 
L 1178 0 
L 603 0 
L 603 3500 
z
M 603 4863 
L 1178 4863 
L 1178 4134 
L 603 4134 
L 603 4863 
z
" transform="scale(0.015625)"/>
       <path id="DejaVuSans-56" d="M 1831 0 
L 50 4666 
L 709 4666 
L 2188 738 
L 3669 4666 
L 4325 4666 
L 2547 0 
L 1831 0 
z
" transform="scale(0.015625)"/>
       <path id="DejaVuSans-33" d="M 2597 2516 
Q 3050 2419 3304 2112 
Q 3559 1806 3559 1356 
Q 3559 666 3084 287 
Q 2609 -91 1734 -91 
Q 1441 -91 1130 -33 
Q 819 25 488 141 
L 488 750 
Q 750 597 1062 519 
Q 1375 441 1716 441 
Q 2309 441 2620 675 
Q 2931 909 2931 1356 
Q 2931 1769 2642 2001 
Q 2353 2234 1838 2234 
L 1294 2234 
L 1294 2753 
L 1863 2753 
Q 2328 2753 2575 2939 
Q 2822 3125 2822 3475 
Q 2822 3834 2567 4026 
Q 2313 4219 1838 4219 
Q 1578 4219 1281 4162 
Q 984 4106 628 3988 
L 628 4550 
Q 988 4650 1302 4700 
Q 1616 4750 1894 4750 
Q 2613 4750 3031 4423 
Q 3450 4097 3450 3541 
Q 3450 3153 3228 2886 
Q 3006 2619 2597 2516 
z
" transform="scale(0.015625)"/>
      </defs>
      <use xlink:href="#DejaVuSans-6f"/>
      <use xlink:href="#DejaVuSans-64" x="61.181641"/>
      <use xlink:href="#DejaVuSans-73" x="124.658203"/>
      <use xlink:href="#DejaVuSans-73" x="176.757812"/>
      <use xlink:href="#DejaVuSans-5f" x="228.857422"/>
      <use xlink:href="#DejaVuSans-67" x="278.857422"/>
      <use xlink:href="#DejaVuSans-50" x="342.333984"/>
      <use xlink:href="#DejaVuSans-50" x="402.636719"/>
      <use xlink:href="#DejaVuSans-49" x="462.939453"/>
      <use xlink:href="#DejaVuSans-5f" x="492.431641"/>
      <use xlink:href="#DejaVuSans-6d" x="542.431641"/>
      <use xlink:href="#DejaVuSans-69" x="639.84375"/>
      <use xlink:href="#DejaVuSans-64" x="667.626953"/>
      <use xlink:href="#DejaVuSans-64" x="731.103516"/>
      <use xlink:href="#DejaVuSans-6c" x="794.580078"/>
      <use xlink:href="#DejaVuSans-65" x="822.363281"/>
      <use xlink:href="#DejaVuSans-5f" x="883.886719"/>
      <use xlink:href="#DejaVuSans-56" x="933.886719"/>
      <use xlink:href="#DejaVuSans-32" x="1002.294922"/>
      <use xlink:href="#DejaVuSans-33" x="1065.917969"/>
     </g>
    </g>
   </g>
  </g>
  <g id="axes_2">
   <g id="patch_6">
    <path d="M 86.4 443.52 
L 489.6 443.52 
L 489.6 292.32 
L 86.4 292.32 
z
" style="fill: #ffffff"/>
   </g>
   <g id="patch_7">
    <path d="M 90.432 367.92 
L 163.008 367.92 
L 163.008 340.875827 
L 90.432 340.875827 
z
" clip-path="url(#p1f33bae241)" style="fill: #1aff00; opacity: 0.6"/>
   </g>
   <g id="patch_8">
    <path d="M 171.072 367.92 
L 243.648 367.92 
L 243.648 322.102254 
L 171.072 322.102254 
z
" clip-path="url(#p1f33bae241)" style="fill: #1aff00; opacity: 0.6"/>
   </g>
   <g id="patch_9">
    <path d="M 251.712 367.92 
L 324.288 367.92 
L 324.288 355.052365 
L 251.712 355.052365 
z
" clip-path="url(#p1f33bae241)" style="fill: #1aff00; opacity: 0.6"/>
   </g>
   <g id="patch_10">
    <path d="M 332.352 367.92 
L 404.928 367.92 
L 404.928 375.18924 
L 332.352 375.18924 
z
" clip-path="url(#p1f33bae241)" style="fill: #1aff00; opacity: 0.6"/>
   </g>
   <g id="patch_11">
    <path d="M 412.992 367.92 
L 485.568 367.92 
L 485.568 382.826111 
L 412.992 382.826111 
z
" clip-path="url(#p1f33bae241)" style="fill: #1aff00; opacity: 0.6"/>
   </g>
   <g id="matplotlib.axis_3">
    <g id="xtick_7">
     <g id="line2d_31">
      <g>
       <use xlink:href="#m2bc4b50247" x="86.4" y="447.52" style="stroke: #000000; stroke-width: 0.8"/>
      </g>
     </g>
     <g id="text_13">
      <!-- 0 -->
      <g transform="translate(83.21875 462.118438) scale(0.1 -0.1)">
       <use xlink:href="#DejaVuSans-30"/>
      </g>
     </g>
    </g>
    <g id="xtick_8">
     <g id="line2d_32">
      <g>
       <use xlink:href="#m2bc4b50247" x="167.04" y="447.52" style="stroke: #000000; stroke-width: 0.8"/>
      </g>
     </g>
     <g id="text_14">
      <!-- 1 -->
      <g transform="translate(163.85875 462.118438) scale(0.1 -0.1)">
       <use xlink:href="#DejaVuSans-31"/>
      </g>
     </g>
    </g>
    <g id="xtick_9">
     <g id="line2d_33">
      <g>
       <use xlink:href="#m2bc4b50247" x="247.68" y="447.52" style="stroke: #000000; stroke-width: 0.8"/>
      </g>
     </g>
     <g id="text_15">
      <!-- 2 -->
      <g transform="translate(244.49875 462.118438) scale(0.1 -0.1)">
       <use xlink:href="#DejaVuSans-32"/>
      </g>
     </g>
    </g>
    <g id="xtick_10">
     <g id="line2d_34">
      <g>
       <use xlink:href="#m2bc4b50247" x="328.32" y="447.52" style="stroke: #000000; stroke-width: 0.8"/>
      </g>
     </g>
     <g id="text_16">
      <!-- 3 -->
      <g transform="translate(325.13875 462.118438) scale(0.1 -0.1)">
       <use xlink:href="#DejaVuSans-33"/>
      </g>
     </g>
    </g>
    <g id="xtick_11">
     <g id="line2d_35">
      <g>
       <use xlink:href="#m2bc4b50247" x="408.96" y="447.52" style="stroke: #000000; stroke-width: 0.8"/>
      </g>
     </g>
     <g id="text_17">
      <!-- 4 -->
      <g transform="translate(405.77875 462.118438) scale(0.1 -0.1)">
       <defs>
        <path id="DejaVuSans-34" d="M 2419 4116 
L 825 1625 
L 2419 1625 
L 2419 4116 
z
M 2253 4666 
L 3047 4666 
L 3047 1625 
L 3713 1625 
L 3713 1100 
L 3047 1100 
L 3047 0 
L 2419 0 
L 2419 1100 
L 313 1100 
L 313 1709 
L 2253 4666 
z
" transform="scale(0.015625)"/>
       </defs>
       <use xlink:href="#DejaVuSans-34"/>
      </g>
     </g>
    </g>
    <g id="xtick_12">
     <g id="line2d_36">
      <g>
       <use xlink:href="#m2bc4b50247" x="489.6" y="447.52" style="stroke: #000000; stroke-width: 0.8"/>
      </g>
     </g>
     <g id="text_18">
      <!-- 5 -->
      <g transform="translate(486.41875 462.118438) scale(0.1 -0.1)">
       <use xlink:href="#DejaVuSans-35"/>
      </g>
     </g>
    </g>
    <g id="text_19">
     <!-- relative distance from ROI center ($\sigma$) -->
     <g transform="translate(214.48 474.276875) scale(0.08 -0.08)">
      <defs>
       <path id="DejaVuSans-72" d="M 2631 2963 
Q 2534 3019 2420 3045 
Q 2306 3072 2169 3072 
Q 1681 3072 1420 2755 
Q 1159 2438 1159 1844 
L 1159 0 
L 581 0 
L 581 3500 
L 1159 3500 
L 1159 2956 
Q 1341 3275 1631 3429 
Q 1922 3584 2338 3584 
Q 2397 3584 2469 3576 
Q 2541 3569 2628 3553 
L 2631 2963 
z
" transform="scale(0.015625)"/>
       <path id="DejaVuSans-76" d="M 191 3500 
L 800 3500 
L 1894 563 
L 2988 3500 
L 3597 3500 
L 2284 0 
L 1503 0 
L 191 3500 
z
" transform="scale(0.015625)"/>
       <path id="DejaVuSans-66" d="M 2375 4863 
L 2375 4384 
L 1825 4384 
Q 1516 4384 1395 4259 
Q 1275 4134 1275 3809 
L 1275 3500 
L 2222 3500 
L 2222 3053 
L 1275 3053 
L 1275 0 
L 697 0 
L 697 3053 
L 147 3053 
L 147 3500 
L 697 3500 
L 697 3744 
Q 697 4328 969 4595 
Q 1241 4863 1831 4863 
L 2375 4863 
z
" transform="scale(0.015625)"/>
       <path id="DejaVuSans-52" d="M 2841 2188 
Q 3044 2119 3236 1894 
Q 3428 1669 3622 1275 
L 4263 0 
L 3584 0 
L 2988 1197 
Q 2756 1666 2539 1819 
Q 2322 1972 1947 1972 
L 1259 1972 
L 1259 0 
L 628 0 
L 628 4666 
L 2053 4666 
Q 2853 4666 3247 4331 
Q 3641 3997 3641 3322 
Q 3641 2881 3436 2590 
Q 3231 2300 2841 2188 
z
M 1259 4147 
L 1259 2491 
L 2053 2491 
Q 2509 2491 2742 2702 
Q 2975 2913 2975 3322 
Q 2975 3731 2742 3939 
Q 2509 4147 2053 4147 
L 1259 4147 
z
" transform="scale(0.015625)"/>
       <path id="DejaVuSans-28" d="M 1984 4856 
Q 1566 4138 1362 3434 
Q 1159 2731 1159 2009 
Q 1159 1288 1364 580 
Q 1569 -128 1984 -844 
L 1484 -844 
Q 1016 -109 783 600 
Q 550 1309 550 2009 
Q 550 2706 781 3412 
Q 1013 4119 1484 4856 
L 1984 4856 
z
" transform="scale(0.015625)"/>
       <path id="DejaVuSans-Oblique-3c3" d="M 2219 3044 
Q 1744 3044 1422 2700 
Q 1081 2341 969 1747 
Q 844 1119 1044 756 
Q 1241 397 1706 397 
Q 2166 397 2503 759 
Q 2844 1122 2966 1747 
Q 3075 2319 2881 2700 
Q 2700 3044 2219 3044 
z
M 2309 3503 
L 4219 3500 
L 4106 2925 
L 3463 2925 
Q 3706 2438 3575 1747 
Q 3406 888 2884 400 
Q 2359 -91 1609 -91 
Q 856 -91 525 400 
Q 194 888 363 1747 
Q 528 2609 1050 3097 
Q 1484 3503 2309 3503 
z
" transform="scale(0.015625)"/>
       <path id="DejaVuSans-29" d="M 513 4856 
L 1013 4856 
Q 1481 4119 1714 3412 
Q 1947 2706 1947 2009 
Q 1947 1309 1714 600 
Q 1481 -109 1013 -844 
L 513 -844 
Q 928 -128 1133 580 
Q 1338 1288 1338 2009 
Q 1338 2731 1133 3434 
Q 928 4138 513 4856 
z
" transform="scale(0.015625)"/>
      </defs>
      <use xlink:href="#DejaVuSans-72" transform="translate(0 0.015625)"/>
      <use xlink:href="#DejaVuSans-65" transform="translate(41.113281 0.015625)"/>
      <use xlink:href="#DejaVuSans-6c" transform="translate(102.636719 0.015625)"/>
      <use xlink:href="#DejaVuSans-61" transform="translate(130.419922 0.015625)"/>
      <use xlink:href="#DejaVuSans-74" transform="translate(191.699219 0.015625)"/>
      <use xlink:href="#DejaVuSans-69" transform="translate(230.908203 0.015625)"/>
      <use xlink:href="#DejaVuSans-76" transform="translate(258.691406 0.015625)"/>
      <use xlink:href="#DejaVuSans-65" transform="translate(317.871094 0.015625)"/>
      <use xlink:href="#DejaVuSans-20" transform="translate(379.394531 0.015625)"/>
      <use xlink:href="#DejaVuSans-64" transform="translate(411.181641 0.015625)"/>
      <use xlink:href="#DejaVuSans-69" transform="translate(474.658203 0.015625)"/>
      <use xlink:href="#DejaVuSans-73" transform="translate(502.441406 0.015625)"/>
      <use xlink:href="#DejaVuSans-74" transform="translate(554.541016 0.015625)"/>
      <use xlink:href="#DejaVuSans-61" transform="translate(593.75 0.015625)"/>
      <use xlink:href="#DejaVuSans-6e" transform="translate(655.029297 0.015625)"/>
      <use xlink:href="#DejaVuSans-63" transform="translate(718.408203 0.015625)"/>
      <use xlink:href="#DejaVuSans-65" transform="translate(773.388672 0.015625)"/>
      <use xlink:href="#DejaVuSans-20" transform="translate(834.912109 0.015625)"/>
      <use xlink:href="#DejaVuSans-66" transform="translate(866.699219 0.015625)"/>
      <use xlink:href="#DejaVuSans-72" transform="translate(901.904297 0.015625)"/>
      <use xlink:href="#DejaVuSans-6f" transform="translate(943.017578 0.015625)"/>
      <use xlink:href="#DejaVuSans-6d" transform="translate(1004.199219 0.015625)"/>
      <use xlink:href="#DejaVuSans-20" transform="translate(1101.611328 0.015625)"/>
      <use xlink:href="#DejaVuSans-52" transform="translate(1133.398438 0.015625)"/>
      <use xlink:href="#DejaVuSans-4f" transform="translate(1202.880859 0.015625)"/>
      <use xlink:href="#DejaVuSans-49" transform="translate(1281.591797 0.015625)"/>
      <use xlink:href="#DejaVuSans-20" transform="translate(1311.083984 0.015625)"/>
      <use xlink:href="#DejaVuSans-63" transform="translate(1342.871094 0.015625)"/>
      <use xlink:href="#DejaVuSans-65" transform="translate(1397.851562 0.015625)"/>
      <use xlink:href="#DejaVuSans-6e" transform="translate(1459.375 0.015625)"/>
      <use xlink:href="#DejaVuSans-74" transform="translate(1522.753906 0.015625)"/>
      <use xlink:href="#DejaVuSans-65" transform="translate(1561.962891 0.015625)"/>
      <use xlink:href="#DejaVuSans-72" transform="translate(1623.486328 0.015625)"/>
      <use xlink:href="#DejaVuSans-20" transform="translate(1664.599609 0.015625)"/>
      <use xlink:href="#DejaVuSans-28" transform="translate(1696.386719 0.015625)"/>
      <use xlink:href="#DejaVuSans-Oblique-3c3" transform="translate(1735.400391 0.015625)"/>
      <use xlink:href="#DejaVuSans-29" transform="translate(1798.779297 0.015625)"/>
     </g>
    </g>
   </g>
   <g id="matplotlib.axis_4">
    <g id="ytick_10">
     <g id="line2d_37">
      <g>
       <use xlink:href="#mb141e6494d" x="82.4" y="443.52" style="stroke: #000000; stroke-width: 0.8"/>
      </g>
     </g>
     <g id="text_20">
      <!-- −1.0 -->
      <g transform="translate(51.117187 447.319219) scale(0.1 -0.1)">
       <use xlink:href="#DejaVuSans-2212"/>
       <use xlink:href="#DejaVuSans-31" x="83.789062"/>
       <use xlink:href="#DejaVuSans-2e" x="147.412109"/>
       <use xlink:href="#DejaVuSans-30" x="179.199219"/>
      </g>
     </g>
    </g>
    <g id="ytick_11">
     <g id="line2d_38">
      <g>
       <use xlink:href="#mb141e6494d" x="82.4" y="405.72" style="stroke: #000000; stroke-width: 0.8"/>
      </g>
     </g>
     <g id="text_21">
      <!-- −0.5 -->
      <g transform="translate(51.117187 409.519219) scale(0.1 -0.1)">
       <use xlink:href="#DejaVuSans-2212"/>
       <use xlink:href="#DejaVuSans-30" x="83.789062"/>
       <use xlink:href="#DejaVuSans-2e" x="147.412109"/>
       <use xlink:href="#DejaVuSans-35" x="179.199219"/>
      </g>
     </g>
    </g>
    <g id="ytick_12">
     <g id="line2d_39">
      <g>
       <use xlink:href="#mb141e6494d" x="82.4" y="367.92" style="stroke: #000000; stroke-width: 0.8"/>
      </g>
     </g>
     <g id="text_22">
      <!-- 0.0 -->
      <g transform="translate(59.496875 371.719219) scale(0.1 -0.1)">
       <use xlink:href="#DejaVuSans-30"/>
       <use xlink:href="#DejaVuSans-2e" x="63.623047"/>
       <use xlink:href="#DejaVuSans-30" x="95.410156"/>
      </g>
     </g>
    </g>
    <g id="ytick_13">
     <g id="line2d_40">
      <g>
       <use xlink:href="#mb141e6494d" x="82.4" y="330.12" style="stroke: #000000; stroke-width: 0.8"/>
      </g>
     </g>
     <g id="text_23">
      <!-- 0.5 -->
      <g transform="translate(59.496875 333.919219) scale(0.1 -0.1)">
       <use xlink:href="#DejaVuSans-30"/>
       <use xlink:href="#DejaVuSans-2e" x="63.623047"/>
       <use xlink:href="#DejaVuSans-35" x="95.410156"/>
      </g>
     </g>
    </g>
    <g id="ytick_14">
     <g id="line2d_41">
      <g>
       <use xlink:href="#mb141e6494d" x="82.4" y="292.32" style="stroke: #000000; stroke-width: 0.8"/>
      </g>
     </g>
     <g id="text_24">
      <!-- 1.0 -->
      <g transform="translate(59.496875 296.119219) scale(0.1 -0.1)">
       <use xlink:href="#DejaVuSans-31"/>
       <use xlink:href="#DejaVuSans-2e" x="63.623047"/>
       <use xlink:href="#DejaVuSans-30" x="95.410156"/>
      </g>
     </g>
    </g>
    <g id="text_25">
     <!-- Binned Avg -->
     <g transform="translate(45.453437 390.525625) rotate(-90) scale(0.08 -0.08)">
      <defs>
       <path id="DejaVuSans-41" d="M 2188 4044 
L 1331 1722 
L 3047 1722 
L 2188 4044 
z
M 1831 4666 
L 2547 4666 
L 4325 0 
L 3669 0 
L 3244 1197 
L 1141 1197 
L 716 0 
L 50 0 
L 1831 4666 
z
" transform="scale(0.015625)"/>
      </defs>
      <use xlink:href="#DejaVuSans-42"/>
      <use xlink:href="#DejaVuSans-69" x="68.603516"/>
      <use xlink:href="#DejaVuSans-6e" x="96.386719"/>
      <use xlink:href="#DejaVuSans-6e" x="159.765625"/>
      <use xlink:href="#DejaVuSans-65" x="223.144531"/>
      <use xlink:href="#DejaVuSans-64" x="284.667969"/>
      <use xlink:href="#DejaVuSans-20" x="348.144531"/>
      <use xlink:href="#DejaVuSans-41" x="379.931641"/>
      <use xlink:href="#DejaVuSans-76" x="442.464844"/>
      <use xlink:href="#DejaVuSans-67" x="501.644531"/>
     </g>
    </g>
   </g>
   <g id="LineCollection_1">
    <path d="M 126.72 401.314175 
L 126.72 280.437478 
" clip-path="url(#p1f33bae241)" style="fill: none; stroke: #000000; stroke-width: 1.5"/>
    <path d="M 207.36 358.103053 
L 207.36 286.101454 
" clip-path="url(#p1f33bae241)" style="fill: none; stroke: #000000; stroke-width: 1.5"/>
    <path d="M 288 387.586239 
L 288 322.518491 
" clip-path="url(#p1f33bae241)" style="fill: none; stroke: #000000; stroke-width: 1.5"/>
    <path d="M 368.64 397.565481 
L 368.64 352.812999 
" clip-path="url(#p1f33bae241)" style="fill: none; stroke: #000000; stroke-width: 1.5"/>
    <path d="M 449.28 403.70976 
L 449.28 361.942462 
" clip-path="url(#p1f33bae241)" style="fill: none; stroke: #000000; stroke-width: 1.5"/>
   </g>
   <g id="line2d_42">
    <defs>
     <path id="md8ce1bf93a" d="M 5 0 
L -5 -0 
" style="stroke: #000000"/>
    </defs>
    <g clip-path="url(#p1f33bae241)">
     <use xlink:href="#md8ce1bf93a" x="126.72" y="401.314175" style="stroke: #000000"/>
     <use xlink:href="#md8ce1bf93a" x="207.36" y="358.103053" style="stroke: #000000"/>
     <use xlink:href="#md8ce1bf93a" x="288" y="387.586239" style="stroke: #000000"/>
     <use xlink:href="#md8ce1bf93a" x="368.64" y="397.565481" style="stroke: #000000"/>
     <use xlink:href="#md8ce1bf93a" x="449.28" y="403.70976" style="stroke: #000000"/>
    </g>
   </g>
   <g id="line2d_43">
    <g clip-path="url(#p1f33bae241)">
     <use xlink:href="#md8ce1bf93a" x="126.72" y="280.437478" style="stroke: #000000"/>
     <use xlink:href="#md8ce1bf93a" x="207.36" y="286.101454" style="stroke: #000000"/>
     <use xlink:href="#md8ce1bf93a" x="288" y="322.518491" style="stroke: #000000"/>
     <use xlink:href="#md8ce1bf93a" x="368.64" y="352.812999" style="stroke: #000000"/>
     <use xlink:href="#md8ce1bf93a" x="449.28" y="361.942462" style="stroke: #000000"/>
    </g>
   </g>
   <g id="line2d_44">
    <path d="M 86.4 367.92 
L 489.6 367.92 
" clip-path="url(#p1f33bae241)" style="fill: none; stroke-dasharray: 5.55,2.4; stroke-dashoffset: 0; stroke: #000000; stroke-width: 1.5"/>
   </g>
   <g id="patch_12">
    <path d="M 82.4 443.52 
L 82.4 292.32 
" style="fill: none; stroke: #000000; stroke-width: 0.8; stroke-linejoin: miter; stroke-linecap: square"/>
   </g>
   <g id="patch_13">
    <path d="M 86.4 447.52 
L 489.6 447.52 
" style="fill: none; stroke: #000000; stroke-width: 0.8; stroke-linejoin: miter; stroke-linecap: square"/>
   </g>
  </g>
 </g>
 <defs>
  <clipPath id="p6a975e363a">
   <rect x="86.4" y="40.32" width="403.2" height="201.6"/>
  </clipPath>
  <clipPath id="p1f33bae241">
   <rect x="86.4" y="292.32" width="403.2" height="151.2"/>
  </clipPath>
 </defs>
</svg>
