<?xml version="1.0" encoding="utf-8" standalone="no"?>
<!DOCTYPE svg PUBLIC "-//W3C//DTD SVG 1.1//EN"
  "http://www.w3.org/Graphics/SVG/1.1/DTD/svg11.dtd">
<svg xmlns:xlink="http://www.w3.org/1999/xlink" width="576pt" height="504pt" viewBox="0 0 576 504" xmlns="http://www.w3.org/2000/svg" version="1.1">
 <metadata>
  <rdf:RDF xmlns:dc="http://purl.org/dc/elements/1.1/" xmlns:cc="http://creativecommons.org/ns#" xmlns:rdf="http://www.w3.org/1999/02/22-rdf-syntax-ns#">
   <cc:Work>
    <dc:type rdf:resource="http://purl.org/dc/dcmitype/StillImage"/>
    <dc:date>2026-05-26T10:36:39.378759</dc:date>
    <dc:format>image/svg+xml</dc:format>
    <dc:creator>
     <cc:Agent>
      <dc:title>Matplotlib v3.8.0, https://matplotlib.org/</dc:title>
     </cc:Agent>
    </dc:creator>
   </cc:Work>
  </rdf:RDF>
 </metadata>
 <defs>
  <style type="text/css">*{stroke-linejoin: round; stroke-linecap: butt}</style>
 </defs>
 <g id="figure_1">
  <g id="patch_1">
   <path d="M 0 504 
L 576 504 
L 576 0 
L 0 0 
z
" style="fill: #ffffff"/>
  </g>
  <g id="axes_1">
   <g id="patch_2">
    <path d="M 86.4 241.92 
L 489.6 241.92 
L 489.6 40.32 
L 86.4 40.32 
z
" style="fill: #ffffff"/>
   </g>
   <g id="PolyCollection_1">
    <defs>
     <path id="m462f661b4a" d="M 86.4 -375.557352 
L 86.4 -343.549429 
L 94.628571 -344.410178 
L 102.857143 -342.889262 
L 111.085714 -347.033248 
L 119.314286 -347.262807 
L 127.542857 -345.821982 
L 135.771429 -344.834923 
L 144 -347.698908 
L 152.228571 -353.074065 
L 160.457143 -357.826955 
L 168.685714 -358.256779 
L 176.914286 -355.298439 
L 185.142857 -350.505801 
L 193.371429 -349.014097 
L 201.6 -347.487691 
L 209.828571 -345.973574 
L 218.057143 -346.211927 
L 226.285714 -348.766652 
L 234.514286 -349.963665 
L 242.742857 -348.618271 
L 250.971429 -350.973541 
L 259.2 -352.926284 
L 267.428571 -354.851543 
L 275.657143 -356.629935 
L 283.885714 -356.56473 
L 292.114286 -354.958014 
L 300.342857 -353.962582 
L 308.571429 -349.835208 
L 316.8 -345.03236 
L 325.028571 -342.020711 
L 333.257143 -340.051573 
L 341.485714 -338.119802 
L 349.714286 -334.877763 
L 357.942857 -332.897585 
L 366.171429 -334.575505 
L 374.4 -336.934888 
L 382.628571 -337.813959 
L 390.857143 -338.948831 
L 399.085714 -340.99804 
L 407.314286 -342.187216 
L 415.542857 -342.043712 
L 423.771429 -343.5618 
L 432 -342.26247 
L 440.228571 -339.73361 
L 448.457143 -338.212681 
L 456.685714 -336.754603 
L 464.914286 -335.448367 
L 473.142857 -335.669919 
L 481.371429 -332.086731 
L 489.6 -326.847631 
L 489.6 -364.071544 
L 489.6 -364.071544 
L 481.371429 -367.666154 
L 473.142857 -370.339438 
L 464.914286 -369.742372 
L 456.685714 -371.321333 
L 448.457143 -373.959856 
L 440.228571 -377.698775 
L 432 -379.62132 
L 423.771429 -381.072775 
L 415.542857 -381.118478 
L 407.314286 -380.427605 
L 399.085714 -376.364714 
L 390.857143 -370.684796 
L 382.628571 -367.809805 
L 374.4 -365.941922 
L 366.171429 -365.138874 
L 357.942857 -366.411366 
L 349.714286 -369.629752 
L 341.485714 -372.666508 
L 333.257143 -374.983479 
L 325.028571 -376.897023 
L 316.8 -376.84261 
L 308.571429 -378.656952 
L 300.342857 -381.478956 
L 292.114286 -382.910576 
L 283.885714 -384.223816 
L 275.657143 -385.333231 
L 267.428571 -385.272104 
L 259.2 -385.774846 
L 250.971429 -385.546086 
L 242.742857 -384.886648 
L 234.514286 -383.895001 
L 226.285714 -380.953808 
L 218.057143 -376.049629 
L 209.828571 -372.519996 
L 201.6 -372.254444 
L 193.371429 -375.054173 
L 185.142857 -376.748421 
L 176.914286 -382.07956 
L 168.685714 -385.413423 
L 160.457143 -383.681392 
L 152.228571 -380.466195 
L 144 -374.269518 
L 135.771429 -370.309156 
L 127.542857 -369.922846 
L 119.314286 -372.576678 
L 111.085714 -375.424665 
L 102.857143 -374.676238 
L 94.628571 -376.408804 
L 86.4 -375.557352 
z
" style="stroke: #ff00ff; stroke-opacity: 0.4"/>
    </defs>
    <g clip-path="url(#pc599a27dd8)">
     <use xlink:href="#m462f661b4a" x="0" y="504" style="fill: #ff00ff; fill-opacity: 0.4; stroke: #ff00ff; stroke-opacity: 0.4"/>
    </g>
   </g>
   <g id="matplotlib.axis_1">
    <g id="xtick_1">
     <g id="line2d_1">
      <defs>
       <path id="m779396e3bb" d="M 0 0 
L 0 3.5 
" style="stroke: #000000; stroke-width: 0.8"/>
      </defs>
      <g>
       <use xlink:href="#m779396e3bb" x="86.4" y="245.92" style="stroke: #000000; stroke-width: 0.8"/>
      </g>
     </g>
    </g>
    <g id="xtick_2">
     <g id="line2d_2">
      <g>
       <use xlink:href="#m779396e3bb" x="167.04" y="245.92" style="stroke: #000000; stroke-width: 0.8"/>
      </g>
     </g>
    </g>
    <g id="xtick_3">
     <g id="line2d_3">
      <g>
       <use xlink:href="#m779396e3bb" x="247.68" y="245.92" style="stroke: #000000; stroke-width: 0.8"/>
      </g>
     </g>
    </g>
    <g id="xtick_4">
     <g id="line2d_4">
      <g>
       <use xlink:href="#m779396e3bb" x="328.32" y="245.92" style="stroke: #000000; stroke-width: 0.8"/>
      </g>
     </g>
    </g>
    <g id="xtick_5">
     <g id="line2d_5">
      <g>
       <use xlink:href="#m779396e3bb" x="408.96" y="245.92" style="stroke: #000000; stroke-width: 0.8"/>
      </g>
     </g>
    </g>
    <g id="xtick_6">
     <g id="line2d_6">
      <g>
       <use xlink:href="#m779396e3bb" x="489.6" y="245.92" style="stroke: #000000; stroke-width: 0.8"/>
      </g>
     </g>
    </g>
   </g>
   <g id="matplotlib.axis_2">
    <g id="ytick_1">
     <g id="line2d_7">
      <defs>
       <path id="ma8903fe1ab" d="M 0 0 
L -3.5 0 
" style="stroke: #000000; stroke-width: 0.8"/>
      </defs>
      <g>
       <use xlink:href="#ma8903fe1ab" x="82.4" y="241.92" style="stroke: #000000; stroke-width: 0.8"/>
      </g>
     </g>
     <g id="text_1">
      <!-- −2.0 -->
      <g transform="translate(51.117187 245.719219) scale(0.1 -0.1)">
       <defs>
        <path id="DejaVuSans-2212" d="M 678 2272 
L 4684 2272 
L 4684 1741 
L 678 1741 
L 678 2272 
z
" transform="scale(0.015625)"/>
        <path id="DejaVuSans-32" d="M 1228 531 
L 3431 531 
L 3431 0 
L 469 0 
L 469 531 
Q 828 903 1448 1529 
Q 2069 2156 2228 2338 
Q 2531 2678 2651 2914 
Q 2772 3150 2772 3378 
Q 2772 3750 2511 3984 
Q 2250 4219 1831 4219 
Q 1534 4219 1204 4116 
Q 875 4013 500 3803 
L 500 4441 
Q 881 4594 1212 4672 
Q 1544 4750 1819 4750 
Q 2544 4750 2975 4387 
Q 3406 4025 3406 3419 
Q 3406 3131 3298 2873 
Q 3191 2616 2906 2266 
Q 2828 2175 2409 1742 
Q 1991 1309 1228 531 
z
" transform="scale(0.015625)"/>
        <path id="DejaVuSans-2e" d="M 684 794 
L 1344 794 
L 1344 0 
L 684 0 
L 684 794 
z
" transform="scale(0.015625)"/>
        <path id="DejaVuSans-30" d="M 2034 4250 
Q 1547 4250 1301 3770 
Q 1056 3291 1056 2328 
Q 1056 1369 1301 889 
Q 1547 409 2034 409 
Q 2525 409 2770 889 
Q 3016 1369 3016 2328 
Q 3016 3291 2770 3770 
Q 2525 4250 2034 4250 
z
M 2034 4750 
Q 2819 4750 3233 4129 
Q 3647 3509 3647 2328 
Q 3647 1150 3233 529 
Q 2819 -91 2034 -91 
Q 1250 -91 836 529 
Q 422 1150 422 2328 
Q 422 3509 836 4129 
Q 1250 4750 2034 4750 
z
" transform="scale(0.015625)"/>
       </defs>
       <use xlink:href="#DejaVuSans-2212"/>
       <use xlink:href="#DejaVuSans-32" x="83.789062"/>
       <use xlink:href="#DejaVuSans-2e" x="147.412109"/>
       <use xlink:href="#DejaVuSans-30" x="179.199219"/>
      </g>
     </g>
    </g>
    <g id="ytick_2">
     <g id="line2d_8">
      <g>
       <use xlink:href="#ma8903fe1ab" x="82.4" y="216.72" style="stroke: #000000; stroke-width: 0.8"/>
      </g>
     </g>
     <g id="text_2">
      <!-- −1.5 -->
      <g transform="translate(51.117187 220.519219) scale(0.1 -0.1)">
       <defs>
        <path id="DejaVuSans-31" d="M 794 531 
L 1825 531 
L 1825 4091 
L 703 3866 
L 703 4441 
L 1819 4666 
L 2450 4666 
L 2450 531 
L 3481 531 
L 3481 0 
L 794 0 
L 794 531 
z
" transform="scale(0.015625)"/>
        <path id="DejaVuSans-35" d="M 691 4666 
L 3169 4666 
L 3169 4134 
L 1269 4134 
L 1269 2991 
Q 1406 3038 1543 3061 
Q 1681 3084 1819 3084 
Q 2600 3084 3056 2656 
Q 3513 2228 3513 1497 
Q 3513 744 3044 326 
Q 2575 -91 1722 -91 
Q 1428 -91 1123 -41 
Q 819 9 494 109 
L 494 744 
Q 775 591 1075 516 
Q 1375 441 1709 441 
Q 2250 441 2565 725 
Q 2881 1009 2881 1497 
Q 2881 1984 2565 2268 
Q 2250 2553 1709 2553 
Q 1456 2553 1204 2497 
Q 953 2441 691 2322 
L 691 4666 
z
" transform="scale(0.015625)"/>
       </defs>
       <use xlink:href="#DejaVuSans-2212"/>
       <use xlink:href="#DejaVuSans-31" x="83.789062"/>
       <use xlink:href="#DejaVuSans-2e" x="147.412109"/>
       <use xlink:href="#DejaVuSans-35" x="179.199219"/>
      </g>
     </g>
    </g>
    <g id="ytick_3">
     <g id="line2d_9">
      <g>
       <use xlink:href="#ma8903fe1ab" x="82.4" y="191.52" style="stroke: #000000; stroke-width: 0.8"/>
      </g>
     </g>
     <g id="text_3">
      <!-- −1.0 -->
      <g transform="translate(51.117187 195.319219) scale(0.1 -0.1)">
       <use xlink:href="#DejaVuSans-2212"/>
       <use xlink:href="#DejaVuSans-31" x="83.789062"/>
       <use xlink:href="#DejaVuSans-2e" x="147.412109"/>
       <use xlink:href="#DejaVuSans-30" x="179.199219"/>
      </g>
     </g>
    </g>
    <g id="ytick_4">
     <g id="line2d_10">
      <g>
       <use xlink:href="#ma8903fe1ab" x="82.4" y="166.32" style="stroke: #000000; stroke-width: 0.8"/>
      </g>
     </g>
     <g id="text_4">
      <!-- −0.5 -->
      <g transform="translate(51.117187 170.119219) scale(0.1 -0.1)">
       <use xlink:href="#DejaVuSans-2212"/>
       <use xlink:href="#DejaVuSans-30" x="83.789062"/>
       <use xlink:href="#DejaVuSans-2e" x="147.412109"/>
       <use xlink:href="#DejaVuSans-35" x="179.199219"/>
      </g>
     </g>
    </g>
    <g id="ytick_5">
     <g id="line2d_11">
      <g>
       <use xlink:href="#ma8903fe1ab" x="82.4" y="141.12" style="stroke: #000000; stroke-width: 0.8"/>
      </g>
     </g>
     <g id="text_5">
      <!-- 0.0 -->
      <g transform="translate(59.496875 144.919219) scale(0.1 -0.1)">
       <use xlink:href="#DejaVuSans-30"/>
       <use xlink:href="#DejaVuSans-2e" x="63.623047"/>
       <use xlink:href="#DejaVuSans-30" x="95.410156"/>
      </g>
     </g>
    </g>
    <g id="ytick_6">
     <g id="line2d_12">
      <g>
       <use xlink:href="#ma8903fe1ab" x="82.4" y="115.92" style="stroke: #000000; stroke-width: 0.8"/>
      </g>
     </g>
     <g id="text_6">
      <!-- 0.5 -->
      <g transform="translate(59.496875 119.719219) scale(0.1 -0.1)">
       <use xlink:href="#DejaVuSans-30"/>
       <use xlink:href="#DejaVuSans-2e" x="63.623047"/>
       <use xlink:href="#DejaVuSans-35" x="95.410156"/>
      </g>
     </g>
    </g>
    <g id="ytick_7">
     <g id="line2d_13">
      <g>
       <use xlink:href="#ma8903fe1ab" x="82.4" y="90.72" style="stroke: #000000; stroke-width: 0.8"/>
      </g>
     </g>
     <g id="text_7">
      <!-- 1.0 -->
      <g transform="translate(59.496875 94.519219) scale(0.1 -0.1)">
       <use xlink:href="#DejaVuSans-31"/>
       <use xlink:href="#DejaVuSans-2e" x="63.623047"/>
       <use xlink:href="#DejaVuSans-30" x="95.410156"/>
      </g>
     </g>
    </g>
    <g id="ytick_8">
     <g id="line2d_14">
      <g>
       <use xlink:href="#ma8903fe1ab" x="82.4" y="65.52" style="stroke: #000000; stroke-width: 0.8"/>
      </g>
     </g>
     <g id="text_8">
      <!-- 1.5 -->
      <g transform="translate(59.496875 69.319219) scale(0.1 -0.1)">
       <use xlink:href="#DejaVuSans-31"/>
       <use xlink:href="#DejaVuSans-2e" x="63.623047"/>
       <use xlink:href="#DejaVuSans-35" x="95.410156"/>
      </g>
     </g>
    </g>
    <g id="ytick_9">
     <g id="line2d_15">
      <g>
       <use xlink:href="#ma8903fe1ab" x="82.4" y="40.32" style="stroke: #000000; stroke-width: 0.8"/>
      </g>
     </g>
     <g id="text_9">
      <!-- 2.0 -->
      <g transform="translate(59.496875 44.119219) scale(0.1 -0.1)">
       <use xlink:href="#DejaVuSans-32"/>
       <use xlink:href="#DejaVuSans-2e" x="63.623047"/>
       <use xlink:href="#DejaVuSans-30" x="95.410156"/>
      </g>
     </g>
    </g>
    <g id="text_10">
     <!-- BOLD % change -->
     <g transform="translate(45.453437 173.31625) rotate(-90) scale(0.08 -0.08)">
      <defs>
       <path id="DejaVuSans-42" d="M 1259 2228 
L 1259 519 
L 2272 519 
Q 2781 519 3026 730 
Q 3272 941 3272 1375 
Q 3272 1813 3026 2020 
Q 2781 2228 2272 2228 
L 1259 2228 
z
M 1259 4147 
L 1259 2741 
L 2194 2741 
Q 2656 2741 2882 2914 
Q 3109 3088 3109 3444 
Q 3109 3797 2882 3972 
Q 2656 4147 2194 4147 
L 1259 4147 
z
M 628 4666 
L 2241 4666 
Q 2963 4666 3353 4366 
Q 3744 4066 3744 3513 
Q 3744 3084 3544 2831 
Q 3344 2578 2956 2516 
Q 3422 2416 3680 2098 
Q 3938 1781 3938 1306 
Q 3938 681 3513 340 
Q 3088 0 2303 0 
L 628 0 
L 628 4666 
z
" transform="scale(0.015625)"/>
       <path id="DejaVuSans-4f" d="M 2522 4238 
Q 1834 4238 1429 3725 
Q 1025 3213 1025 2328 
Q 1025 1447 1429 934 
Q 1834 422 2522 422 
Q 3209 422 3611 934 
Q 4013 1447 4013 2328 
Q 4013 3213 3611 3725 
Q 3209 4238 2522 4238 
z
M 2522 4750 
Q 3503 4750 4090 4092 
Q 4678 3434 4678 2328 
Q 4678 1225 4090 567 
Q 3503 -91 2522 -91 
Q 1538 -91 948 565 
Q 359 1222 359 2328 
Q 359 3434 948 4092 
Q 1538 4750 2522 4750 
z
" transform="scale(0.015625)"/>
       <path id="DejaVuSans-4c" d="M 628 4666 
L 1259 4666 
L 1259 531 
L 3531 531 
L 3531 0 
L 628 0 
L 628 4666 
z
" transform="scale(0.015625)"/>
       <path id="DejaVuSans-44" d="M 1259 4147 
L 1259 519 
L 2022 519 
Q 2988 519 3436 956 
Q 3884 1394 3884 2338 
Q 3884 3275 3436 3711 
Q 2988 4147 2022 4147 
L 1259 4147 
z
M 628 4666 
L 1925 4666 
Q 3281 4666 3915 4102 
Q 4550 3538 4550 2338 
Q 4550 1131 3912 565 
Q 3275 0 1925 0 
L 628 0 
L 628 4666 
z
" transform="scale(0.015625)"/>
       <path id="DejaVuSans-20" transform="scale(0.015625)"/>
       <path id="DejaVuSans-25" d="M 4653 2053 
Q 4381 2053 4226 1822 
Q 4072 1591 4072 1178 
Q 4072 772 4226 539 
Q 4381 306 4653 306 
Q 4919 306 5073 539 
Q 5228 772 5228 1178 
Q 5228 1588 5073 1820 
Q 4919 2053 4653 2053 
z
M 4653 2450 
Q 5147 2450 5437 2106 
Q 5728 1763 5728 1178 
Q 5728 594 5436 251 
Q 5144 -91 4653 -91 
Q 4153 -91 3862 251 
Q 3572 594 3572 1178 
Q 3572 1766 3864 2108 
Q 4156 2450 4653 2450 
z
M 1428 4353 
Q 1159 4353 1004 4120 
Q 850 3888 850 3481 
Q 850 3069 1003 2837 
Q 1156 2606 1428 2606 
Q 1700 2606 1854 2837 
Q 2009 3069 2009 3481 
Q 2009 3884 1853 4118 
Q 1697 4353 1428 4353 
z
M 4250 4750 
L 4750 4750 
L 1831 -91 
L 1331 -91 
L 4250 4750 
z
M 1428 4750 
Q 1922 4750 2215 4408 
Q 2509 4066 2509 3481 
Q 2509 2891 2217 2550 
Q 1925 2209 1428 2209 
Q 931 2209 642 2551 
Q 353 2894 353 3481 
Q 353 4063 643 4406 
Q 934 4750 1428 4750 
z
" transform="scale(0.015625)"/>
       <path id="DejaVuSans-63" d="M 3122 3366 
L 3122 2828 
Q 2878 2963 2633 3030 
Q 2388 3097 2138 3097 
Q 1578 3097 1268 2742 
Q 959 2388 959 1747 
Q 959 1106 1268 751 
Q 1578 397 2138 397 
Q 2388 397 2633 464 
Q 2878 531 3122 666 
L 3122 134 
Q 2881 22 2623 -34 
Q 2366 -91 2075 -91 
Q 1284 -91 818 406 
Q 353 903 353 1747 
Q 353 2603 823 3093 
Q 1294 3584 2113 3584 
Q 2378 3584 2631 3529 
Q 2884 3475 3122 3366 
z
" transform="scale(0.015625)"/>
       <path id="DejaVuSans-68" d="M 3513 2113 
L 3513 0 
L 2938 0 
L 2938 2094 
Q 2938 2591 2744 2837 
Q 2550 3084 2163 3084 
Q 1697 3084 1428 2787 
Q 1159 2491 1159 1978 
L 1159 0 
L 581 0 
L 581 4863 
L 1159 4863 
L 1159 2956 
Q 1366 3272 1645 3428 
Q 1925 3584 2291 3584 
Q 2894 3584 3203 3211 
Q 3513 2838 3513 2113 
z
" transform="scale(0.015625)"/>
       <path id="DejaVuSans-61" d="M 2194 1759 
Q 1497 1759 1228 1600 
Q 959 1441 959 1056 
Q 959 750 1161 570 
Q 1363 391 1709 391 
Q 2188 391 2477 730 
Q 2766 1069 2766 1631 
L 2766 1759 
L 2194 1759 
z
M 3341 1997 
L 3341 0 
L 2766 0 
L 2766 531 
Q 2569 213 2275 61 
Q 1981 -91 1556 -91 
Q 1019 -91 701 211 
Q 384 513 384 1019 
Q 384 1609 779 1909 
Q 1175 2209 1959 2209 
L 2766 2209 
L 2766 2266 
Q 2766 2663 2505 2880 
Q 2244 3097 1772 3097 
Q 1472 3097 1187 3025 
Q 903 2953 641 2809 
L 641 3341 
Q 956 3463 1253 3523 
Q 1550 3584 1831 3584 
Q 2591 3584 2966 3190 
Q 3341 2797 3341 1997 
z
" transform="scale(0.015625)"/>
       <path id="DejaVuSans-6e" d="M 3513 2113 
L 3513 0 
L 2938 0 
L 2938 2094 
Q 2938 2591 2744 2837 
Q 2550 3084 2163 3084 
Q 1697 3084 1428 2787 
Q 1159 2491 1159 1978 
L 1159 0 
L 581 0 
L 581 3500 
L 1159 3500 
L 1159 2956 
Q 1366 3272 1645 3428 
Q 1925 3584 2291 3584 
Q 2894 3584 3203 3211 
Q 3513 2838 3513 2113 
z
" transform="scale(0.015625)"/>
       <path id="DejaVuSans-67" d="M 2906 1791 
Q 2906 2416 2648 2759 
Q 2391 3103 1925 3103 
Q 1463 3103 1205 2759 
Q 947 2416 947 1791 
Q 947 1169 1205 825 
Q 1463 481 1925 481 
Q 2391 481 2648 825 
Q 2906 1169 2906 1791 
z
M 3481 434 
Q 3481 -459 3084 -895 
Q 2688 -1331 1869 -1331 
Q 1566 -1331 1297 -1286 
Q 1028 -1241 775 -1147 
L 775 -588 
Q 1028 -725 1275 -790 
Q 1522 -856 1778 -856 
Q 2344 -856 2625 -561 
Q 2906 -266 2906 331 
L 2906 616 
Q 2728 306 2450 153 
Q 2172 0 1784 0 
Q 1141 0 747 490 
Q 353 981 353 1791 
Q 353 2603 747 3093 
Q 1141 3584 1784 3584 
Q 2172 3584 2450 3431 
Q 2728 3278 2906 2969 
L 2906 3500 
L 3481 3500 
L 3481 434 
z
" transform="scale(0.015625)"/>
       <path id="DejaVuSans-65" d="M 3597 1894 
L 3597 1613 
L 953 1613 
Q 991 1019 1311 708 
Q 1631 397 2203 397 
Q 2534 397 2845 478 
Q 3156 559 3463 722 
L 3463 178 
Q 3153 47 2828 -22 
Q 2503 -91 2169 -91 
Q 1331 -91 842 396 
Q 353 884 353 1716 
Q 353 2575 817 3079 
Q 1281 3584 2069 3584 
Q 2775 3584 3186 3129 
Q 3597 2675 3597 1894 
z
M 3022 2063 
Q 3016 2534 2758 2815 
Q 2500 3097 2075 3097 
Q 1594 3097 1305 2825 
Q 1016 2553 972 2059 
L 3022 2063 
z
" transform="scale(0.015625)"/>
      </defs>
      <use xlink:href="#DejaVuSans-42"/>
      <use xlink:href="#DejaVuSans-4f" x="66.853516"/>
      <use xlink:href="#DejaVuSans-4c" x="145.564453"/>
      <use xlink:href="#DejaVuSans-44" x="201.277344"/>
      <use xlink:href="#DejaVuSans-20" x="278.279297"/>
      <use xlink:href="#DejaVuSans-25" x="310.066406"/>
      <use xlink:href="#DejaVuSans-20" x="405.085938"/>
      <use xlink:href="#DejaVuSans-63" x="436.873047"/>
      <use xlink:href="#DejaVuSans-68" x="491.853516"/>
      <use xlink:href="#DejaVuSans-61" x="555.232422"/>
      <use xlink:href="#DejaVuSans-6e" x="616.511719"/>
      <use xlink:href="#DejaVuSans-67" x="679.890625"/>
      <use xlink:href="#DejaVuSans-65" x="743.367188"/>
     </g>
    </g>
   </g>
   <g id="line2d_16">
    <path d="M 86.4 144.446609 
L 94.628571 143.590509 
L 102.857143 145.21725 
L 111.085714 142.771044 
L 119.314286 144.080257 
L 127.542857 146.127586 
L 135.771429 146.427961 
L 144 143.015787 
L 152.228571 137.22987 
L 160.457143 133.245827 
L 168.685714 132.164899 
L 176.914286 135.311 
L 185.142857 140.372889 
L 193.371429 141.965865 
L 201.6 144.128932 
L 209.828571 144.753215 
L 218.057143 142.869222 
L 226.285714 139.13977 
L 234.514286 137.070667 
L 242.742857 137.247541 
L 250.971429 135.740187 
L 259.2 134.649435 
L 267.428571 133.938176 
L 275.657143 133.018417 
L 283.885714 133.605727 
L 292.114286 135.065705 
L 300.342857 136.279231 
L 308.571429 139.75392 
L 316.8 143.062515 
L 325.028571 144.541133 
L 333.257143 146.482474 
L 341.485714 148.606845 
L 349.714286 151.746242 
L 357.942857 154.345525 
L 366.171429 154.14281 
L 374.4 152.561595 
L 382.628571 151.188118 
L 390.857143 149.183187 
L 399.085714 145.318623 
L 407.314286 142.692589 
L 415.542857 142.418905 
L 423.771429 141.682713 
L 432 143.058105 
L 440.228571 145.283807 
L 448.457143 147.913731 
L 456.685714 149.962032 
L 464.914286 151.404631 
L 473.142857 150.995322 
L 481.371429 154.123557 
L 489.6 158.540412 
" clip-path="url(#pc599a27dd8)" style="fill: none; stroke: #ff00ff; stroke-width: 1.5; stroke-linecap: square"/>
   </g>
   <g id="line2d_17">
    <path d="M 86.4 91.587781 
L 94.628571 93.232138 
L 102.857143 92.294792 
L 111.085714 92.187727 
L 119.314286 101.070662 
L 127.542857 100.599629 
L 135.771429 96.975468 
L 144 88.884408 
L 152.228571 76.051483 
L 160.457143 72.842626 
L 168.685714 68.35285 
L 176.914286 69.162178 
L 185.142857 70.939525 
L 193.371429 69.37777 
L 201.6 76.313445 
L 209.828571 80.660879 
L 218.057143 83.854881 
L 226.285714 88.080232 
L 234.514286 93.292684 
L 242.742857 97.594643 
L 250.971429 100.330626 
L 259.2 100.057936 
L 267.428571 98.472679 
L 275.657143 100.575767 
L 283.885714 104.771991 
L 292.114286 104.742767 
L 300.342857 107.303268 
L 308.571429 118.55197 
L 316.8 120.705219 
L 325.028571 109.110703 
L 333.257143 99.280605 
L 341.485714 90.214957 
L 349.714286 82.57846 
L 357.942857 80.865878 
L 366.171429 80.110911 
L 374.4 80.581651 
L 382.628571 74.105772 
L 390.857143 62.548733 
L 399.085714 51.790437 
L 407.314286 51.345352 
L 415.542857 58.445569 
L 423.771429 73.076383 
L 432 82.835112 
L 440.228571 91.884207 
L 448.457143 108.623173 
L 456.685714 132.880992 
L 464.914286 151.717456 
L 473.142857 166.618385 
L 481.371429 179.407452 
L 489.6 186.134926 
" clip-path="url(#pc599a27dd8)" style="fill: none; stroke: #ff00ff; stroke-opacity: 0.2; stroke-width: 1.5; stroke-linecap: square"/>
   </g>
   <g id="line2d_18">
    <path d="M 86.4 178.153584 
L 94.628571 178.153584 
L 102.857143 179.742071 
L 111.085714 178.120315 
L 119.314286 168.881852 
L 127.542857 162.66908 
L 135.771429 158.392851 
L 144 156.138582 
L 152.228571 154.632904 
L 160.457143 157.787356 
L 168.685714 158.468256 
L 176.914286 160.341378 
L 185.142857 159.994144 
L 193.371429 153.907248 
L 201.6 148.670128 
L 209.828571 144.537366 
L 218.057143 138.238685 
L 226.285714 131.106121 
L 234.514286 122.43836 
L 242.742857 112.759542 
L 250.971429 103.121787 
L 259.2 92.047024 
L 267.428571 91.055772 
L 275.657143 91.001447 
L 283.885714 93.543228 
L 292.114286 98.912802 
L 300.342857 101.632094 
L 308.571429 101.760966 
L 316.8 101.674404 
L 325.028571 108.143291 
L 333.257143 115.285151 
L 341.485714 123.040288 
L 349.714286 125.39292 
L 357.942857 124.083439 
L 366.171429 120.711781 
L 374.4 120.775084 
L 382.628571 125.250108 
L 390.857143 129.618471 
L 399.085714 132.746253 
L 407.314286 129.704032 
L 415.542857 128.126449 
L 423.771429 134.278015 
L 432 141.785331 
L 440.228571 144.804336 
L 448.457143 144.3665 
L 456.685714 143.360658 
L 464.914286 138.775223 
L 473.142857 138.865118 
L 481.371429 143.045853 
L 489.6 149.349169 
" clip-path="url(#pc599a27dd8)" style="fill: none; stroke: #ff00ff; stroke-opacity: 0.2; stroke-width: 1.5; stroke-linecap: square"/>
   </g>
   <g id="line2d_19">
    <path d="M 86.4 110.583954 
L 94.628571 113.69954 
L 102.857143 124.778936 
L 111.085714 135.843602 
L 119.314286 137.961041 
L 127.542857 131.725644 
L 135.771429 126.754273 
L 144 127.621863 
L 152.228571 123.990167 
L 160.457143 126.202589 
L 168.685714 129.211088 
L 176.914286 134.59743 
L 185.142857 139.101171 
L 193.371429 138.041871 
L 201.6 135.319707 
L 209.828571 135.975461 
L 218.057143 136.206034 
L 226.285714 135.993063 
L 234.514286 140.419072 
L 242.742857 145.423803 
L 250.971429 145.621483 
L 259.2 146.898555 
L 267.428571 145.160071 
L 275.657143 140.379177 
L 283.885714 137.988883 
L 292.114286 135.343285 
L 300.342857 134.908868 
L 308.571429 133.907892 
L 316.8 133.466896 
L 325.028571 137.297037 
L 333.257143 139.110626 
L 341.485714 146.772885 
L 349.714286 152.728846 
L 357.942857 158.146927 
L 366.171429 158.781571 
L 374.4 163.205171 
L 382.628571 164.728315 
L 390.857143 166.723879 
L 399.085714 161.430543 
L 407.314286 156.44398 
L 415.542857 149.919079 
L 423.771429 146.495001 
L 432 145.907772 
L 440.228571 143.52249 
L 448.457143 150.458701 
L 456.685714 149.641953 
L 464.914286 133.998364 
L 473.142857 117.013239 
L 481.371429 107.744113 
L 489.6 104.823582 
" clip-path="url(#pc599a27dd8)" style="fill: none; stroke: #ff00ff; stroke-opacity: 0.2; stroke-width: 1.5; stroke-linecap: square"/>
   </g>
   <g id="line2d_20">
    <path d="M 86.4 150.973141 
L 94.628571 150.973141 
L 102.857143 150.481199 
L 111.085714 147.272504 
L 119.314286 147.564555 
L 127.542857 141.184859 
L 135.771429 123.96744 
L 144 115.291016 
L 152.228571 115.019935 
L 160.457143 116.698206 
L 168.685714 122.349594 
L 176.914286 126.521457 
L 185.142857 132.325925 
L 193.371429 137.540043 
L 201.6 144.420559 
L 209.828571 142.811395 
L 218.057143 141.985855 
L 226.285714 141.819884 
L 234.514286 145.909753 
L 242.742857 149.875304 
L 250.971429 150.564138 
L 259.2 153.893934 
L 267.428571 155.437711 
L 275.657143 154.175276 
L 283.885714 156.428475 
L 292.114286 160.247685 
L 300.342857 162.48771 
L 308.571429 160.10889 
L 316.8 159.832779 
L 325.028571 158.878259 
L 333.257143 155.644378 
L 341.485714 153.681592 
L 349.714286 155.659915 
L 357.942857 165.122248 
L 366.171429 168.932156 
L 374.4 171.655922 
L 382.628571 174.037986 
L 390.857143 179.407244 
L 399.085714 186.402758 
L 407.314286 190.599591 
L 415.542857 194.415257 
L 423.771429 194.175502 
L 432 192.887936 
L 440.228571 195.873472 
L 448.457143 195.007498 
L 456.685714 195.895574 
L 464.914286 197.458638 
L 473.142857 197.658077 
L 481.371429 199.197334 
L 489.6 202.937806 
" clip-path="url(#pc599a27dd8)" style="fill: none; stroke: #ff00ff; stroke-opacity: 0.2; stroke-width: 1.5; stroke-linecap: square"/>
   </g>
   <g id="line2d_21">
    <path d="M 86.4 133.275126 
L 94.628571 131.756798 
L 102.857143 110.647648 
L 111.085714 85.27579 
L 119.314286 84.644156 
L 127.542857 103.07069 
L 135.771429 111.583977 
L 144 105.298207 
L 152.228571 90.07681 
L 160.457143 81.167629 
L 168.685714 77.515452 
L 176.914286 81.513569 
L 185.142857 90.686721 
L 193.371429 90.411206 
L 201.6 85.704294 
L 209.828571 85.312549 
L 218.057143 83.256024 
L 226.285714 78.929001 
L 234.514286 76.826538 
L 242.742857 82.315387 
L 250.971429 89.996791 
L 259.2 101.509074 
L 267.428571 115.107707 
L 275.657143 121.858277 
L 283.885714 128.083774 
L 292.114286 139.431298 
L 300.342857 144.695594 
L 308.571429 147.853585 
L 316.8 145.620075 
L 325.028571 139.442333 
L 333.257143 140.835307 
L 341.485714 144.677236 
L 349.714286 143.964944 
L 357.942857 143.521897 
L 366.171429 145.615846 
L 374.4 137.300551 
L 382.628571 129.677197 
L 390.857143 117.408026 
L 399.085714 105.872429 
L 407.314286 96.476892 
L 415.542857 100.38272 
L 423.771429 105.629675 
L 432 114.198345 
L 440.228571 125.423682 
L 448.457143 138.033683 
L 456.685714 148.963461 
L 464.914286 164.792175 
L 473.142857 178.164713 
L 481.371429 188.689116 
L 489.6 190.2583 
" clip-path="url(#pc599a27dd8)" style="fill: none; stroke: #ff00ff; stroke-opacity: 0.2; stroke-width: 1.5; stroke-linecap: square"/>
   </g>
   <g id="line2d_22">
    <path d="M 86.4 232.282364 
L 94.628571 230.447561 
L 102.857143 227.441752 
L 111.085714 225.728951 
L 119.314286 223.299715 
L 127.542857 234.907623 
L 135.771429 246.05724 
L 144 248.106178 
L 152.228571 244.673251 
L 160.457143 230.369888 
L 168.685714 233.196116 
L 176.914286 235.542125 
L 185.142857 240.690432 
L 193.371429 232.287072 
L 201.6 202.42284 
L 209.828571 193.744542 
L 218.057143 194.9412 
L 226.285714 194.464905 
L 234.514286 188.362959 
L 242.742857 188.894026 
L 250.971429 189.69545 
L 259.2 181.824885 
L 267.428571 170.547451 
L 275.657143 163.674011 
L 283.885714 155.537892 
L 292.114286 156.37179 
L 300.342857 160.094546 
L 308.571429 164.324364 
L 316.8 159.177481 
L 325.028571 153.298351 
L 333.257143 158.240927 
L 341.485714 160.932548 
L 349.714286 162.051323 
L 357.942857 157.001918 
L 366.171429 148.083407 
L 374.4 135.54597 
L 382.628571 122.679213 
L 390.857143 114.693681 
L 399.085714 99.549372 
L 407.314286 98.833786 
L 415.542857 103.696132 
L 423.771429 110.514084 
L 432 122.574632 
L 440.228571 134.306451 
L 448.457143 147.079328 
L 456.685714 146.17463 
L 464.914286 142.73074 
L 473.142857 139.145963 
L 481.371429 145.680628 
L 489.6 151.597698 
" clip-path="url(#pc599a27dd8)" style="fill: none; stroke: #ff00ff; stroke-opacity: 0.2; stroke-width: 1.5; stroke-linecap: square"/>
   </g>
   <g id="line2d_23">
    <path d="M 86.4 51.966944 
L 94.628571 50.459935 
L 102.857143 60.012838 
L 111.085714 74.37469 
L 119.314286 86.045629 
L 127.542857 94.524847 
L 135.771429 98.610722 
L 144 98.793226 
L 152.228571 101.506222 
L 160.457143 99.287612 
L 168.685714 95.731514 
L 176.914286 102.302182 
L 185.142857 109.322691 
L 193.371429 115.449883 
L 201.6 121.060116 
L 209.828571 120.427332 
L 218.057143 107.324032 
L 226.285714 90.849809 
L 234.514286 75.00246 
L 242.742857 67.454033 
L 250.971429 65.04431 
L 259.2 63.409657 
L 267.428571 63.272058 
L 275.657143 68.357159 
L 283.885714 73.112643 
L 292.114286 68.280965 
L 300.342857 66.330929 
L 308.571429 64.98116 
L 316.8 66.614973 
L 325.028571 63.476753 
L 333.257143 62.555864 
L 341.485714 64.665929 
L 349.714286 70.744809 
L 357.942857 81.460699 
L 366.171429 91.298076 
L 374.4 93.868037 
L 382.628571 99.113076 
L 390.857143 96.5969 
L 399.085714 78.124066 
L 407.314286 54.104489 
L 415.542857 36.13599 
L 423.771429 21.515932 
L 432 9.959179 
L 439.768112 -1 
M 457.628869 -1 
L 464.914286 6.303823 
L 473.142857 12.915977 
L 481.371429 19.573148 
L 489.6 22.402301 
" clip-path="url(#pc599a27dd8)" style="fill: none; stroke: #ff00ff; stroke-opacity: 0.2; stroke-width: 1.5; stroke-linecap: square"/>
   </g>
   <g id="line2d_24">
    <path d="M 86.4 130.840375 
L 94.628571 136.723977 
L 102.857143 155.253166 
L 111.085714 163.453638 
L 119.314286 163.179971 
L 127.542857 158.998659 
L 135.771429 165.857578 
L 144 168.40363 
L 152.228571 168.318085 
L 160.457143 161.562935 
L 168.685714 163.404868 
L 176.914286 157.485863 
L 185.142857 146.381707 
L 193.371429 134.674501 
L 201.6 137.566968 
L 209.828571 137.864763 
L 218.057143 122.809847 
L 226.285714 110.065366 
L 234.514286 105.786846 
L 242.742857 104.18293 
L 250.971429 112.754201 
L 259.2 121.732517 
L 267.428571 125.975872 
L 275.657143 128.771403 
L 283.885714 127.752395 
L 292.114286 127.626038 
L 300.342857 130.421351 
L 308.571429 138.949292 
L 316.8 149.770508 
L 325.028571 159.812901 
L 333.257143 168.316526 
L 341.485714 169.910935 
L 349.714286 172.522725 
L 357.942857 169.744343 
L 366.171429 172.649743 
L 374.4 172.795073 
L 382.628571 161.179881 
L 390.857143 153.727952 
L 399.085714 153.856271 
L 407.314286 157.054362 
L 415.542857 157.861135 
L 423.771429 147.113742 
L 432 142.616412 
L 440.228571 141.800663 
L 448.457143 141.828857 
L 456.685714 130.332647 
L 464.914286 119.777212 
L 473.142857 111.3307 
L 481.371429 108.381838 
L 489.6 105.119649 
" clip-path="url(#pc599a27dd8)" style="fill: none; stroke: #ff00ff; stroke-opacity: 0.2; stroke-width: 1.5; stroke-linecap: square"/>
   </g>
   <g id="line2d_25">
    <path d="M 86.4 109.870225 
L 94.628571 107.313645 
L 102.857143 111.868585 
L 111.085714 113.180207 
L 119.314286 119.319804 
L 127.542857 124.737493 
L 135.771429 129.891133 
L 144 126.436466 
L 152.228571 119.16184 
L 160.457143 116.657746 
L 168.685714 116.249212 
L 176.914286 117.510961 
L 185.142857 123.414503 
L 193.371429 127.445091 
L 201.6 134.866305 
L 209.828571 133.277674 
L 218.057143 131.725593 
L 226.285714 130.176382 
L 234.514286 131.428404 
L 242.742857 133.832509 
L 250.971429 137.426655 
L 259.2 137.115836 
L 267.428571 133.129561 
L 275.657143 125.396978 
L 283.885714 120.22159 
L 292.114286 117.573941 
L 300.342857 113.397842 
L 308.571429 114.444674 
L 316.8 112.426339 
L 325.028571 110.591971 
L 333.257143 109.814776 
L 341.485714 109.872655 
L 349.714286 114.063934 
L 357.942857 120.139764 
L 366.171429 124.562406 
L 374.4 130.494555 
L 382.628571 133.960349 
L 390.857143 141.769242 
L 399.085714 146.059997 
L 407.314286 145.025785 
L 415.542857 146.138066 
L 423.771429 152.059383 
L 432 150.352338 
L 440.228571 152.632986 
L 448.457143 158.489153 
L 456.685714 164.966658 
L 464.914286 169.33877 
L 473.142857 164.828273 
L 481.371429 162.023555 
L 489.6 164.060574 
" clip-path="url(#pc599a27dd8)" style="fill: none; stroke: #ff00ff; stroke-opacity: 0.2; stroke-width: 1.5; stroke-linecap: square"/>
   </g>
   <g id="line2d_26">
    <path d="M 86.4 231.274459 
L 94.628571 235.903628 
L 102.857143 243.61684 
L 111.085714 208.528236 
L 119.314286 194.044092 
L 127.542857 178.748394 
L 135.771429 164.332531 
L 144 152.578317 
L 152.228571 138.303732 
L 160.457143 134.244578 
L 168.685714 118.429824 
L 176.914286 126.832374 
L 185.142857 150.376998 
L 193.371429 171.323501 
L 201.6 210.60759 
L 209.828571 242.087579 
L 218.057143 264.314529 
L 226.285714 275.109474 
L 234.514286 283.439629 
L 242.742857 297.489379 
L 250.971429 285.63774 
L 259.2 275.327459 
L 267.428571 264.395964 
L 275.657143 258.597809 
L 283.885714 257.76156 
L 292.114286 258.415365 
L 300.342857 254.277631 
L 308.571429 265.16894 
L 316.8 287.59749 
L 325.028571 305.465806 
L 333.257143 302.572703 
L 341.485714 297.734904 
L 349.714286 295.538425 
L 357.942857 286.420252 
L 366.171429 259.131434 
L 374.4 237.200509 
L 382.628571 243.197056 
L 390.857143 232.570809 
L 399.085714 228.977701 
L 407.314286 235.545059 
L 415.542857 247.202711 
L 423.771429 242.767988 
L 432 241.422246 
L 440.228571 236.12829 
L 448.457143 218.323338 
L 456.685714 207.759396 
L 464.914286 199.365547 
L 473.142857 184.340444 
L 481.371429 182.530022 
L 489.6 198.534674 
" clip-path="url(#pc599a27dd8)" style="fill: none; stroke: #ff00ff; stroke-opacity: 0.2; stroke-width: 1.5; stroke-linecap: square"/>
   </g>
   <g id="line2d_27">
    <path d="M 86.4 168.10475 
L 94.628571 150.831654 
L 102.857143 141.25192 
L 111.085714 146.515822 
L 119.314286 158.871355 
L 127.542857 176.236525 
L 135.771429 188.284354 
L 144 185.621765 
L 152.228571 177.794144 
L 160.457143 168.882932 
L 168.685714 170.905113 
L 176.914286 176.611489 
L 185.142857 180.867958 
L 193.371429 191.166333 
L 201.6 188.466303 
L 209.828571 175.585824 
L 218.057143 166.90476 
L 226.285714 153.943233 
L 234.514286 144.870632 
L 242.742857 129.90139 
L 250.971429 112.948871 
L 259.2 107.326906 
L 267.428571 110.765095 
L 275.657143 110.415286 
L 283.885714 114.460568 
L 292.114286 118.776817 
L 300.342857 123.521709 
L 308.571429 127.241388 
L 316.8 136.801504 
L 325.028571 144.435057 
L 333.257143 159.65035 
L 341.485714 173.171364 
L 349.714286 193.962366 
L 357.942857 211.293403 
L 366.171429 225.693585 
L 374.4 234.755025 
L 382.628571 235.140341 
L 390.857143 245.950116 
L 399.085714 253.695028 
L 407.314286 254.485155 
L 415.542857 244.284848 
L 423.771429 230.884134 
L 432 229.099855 
L 440.228571 233.394917 
L 448.457143 228.933086 
L 456.685714 231.551922 
L 464.914286 241.192991 
L 473.142857 250.067648 
L 481.371429 259.086072 
L 489.6 268.725858 
" clip-path="url(#pc599a27dd8)" style="fill: none; stroke: #ff00ff; stroke-opacity: 0.2; stroke-width: 1.5; stroke-linecap: square"/>
   </g>
   <g id="line2d_28">
    <path d="M 167.04 241.92 
L 167.04 40.32 
" clip-path="url(#pc599a27dd8)" style="fill: none; stroke-dasharray: 5.55,2.4; stroke-dashoffset: 0; stroke: #000000; stroke-width: 1.5"/>
   </g>
   <g id="line2d_29">
    <path d="M 86.4 141.12 
L 489.6 141.12 
" clip-path="url(#pc599a27dd8)" style="fill: none; stroke-dasharray: 5.55,2.4; stroke-dashoffset: 0; stroke: #000000; stroke-width: 1.5"/>
   </g>
   <g id="patch_3">
    <path d="M 82.4 241.92 
L 82.4 40.32 
" style="fill: none; stroke: #000000; stroke-width: 0.8; stroke-linejoin: miter; stroke-linecap: square"/>
   </g>
   <g id="patch_4">
    <path d="M 86.4 245.92 
L 489.6 245.92 
" style="fill: none; stroke: #000000; stroke-width: 0.8; stroke-linejoin: miter; stroke-linecap: square"/>
   </g>
   <g id="text_11">
    <!-- all depths -->
    <g transform="translate(268.328125 34.32) scale(0.08 -0.08)">
     <defs>
      <path id="DejaVuSans-6c" d="M 603 4863 
L 1178 4863 
L 1178 0 
L 603 0 
L 603 4863 
z
" transform="scale(0.015625)"/>
      <path id="DejaVuSans-64" d="M 2906 2969 
L 2906 4863 
L 3481 4863 
L 3481 0 
L 2906 0 
L 2906 525 
Q 2725 213 2448 61 
Q 2172 -91 1784 -91 
Q 1150 -91 751 415 
Q 353 922 353 1747 
Q 353 2572 751 3078 
Q 1150 3584 1784 3584 
Q 2172 3584 2448 3432 
Q 2725 3281 2906 2969 
z
M 947 1747 
Q 947 1113 1208 752 
Q 1469 391 1925 391 
Q 2381 391 2643 752 
Q 2906 1113 2906 1747 
Q 2906 2381 2643 2742 
Q 2381 3103 1925 3103 
Q 1469 3103 1208 2742 
Q 947 2381 947 1747 
z
" transform="scale(0.015625)"/>
      <path id="DejaVuSans-70" d="M 1159 525 
L 1159 -1331 
L 581 -1331 
L 581 3500 
L 1159 3500 
L 1159 2969 
Q 1341 3281 1617 3432 
Q 1894 3584 2278 3584 
Q 2916 3584 3314 3078 
Q 3713 2572 3713 1747 
Q 3713 922 3314 415 
Q 2916 -91 2278 -91 
Q 1894 -91 1617 61 
Q 1341 213 1159 525 
z
M 3116 1747 
Q 3116 2381 2855 2742 
Q 2594 3103 2138 3103 
Q 1681 3103 1420 2742 
Q 1159 2381 1159 1747 
Q 1159 1113 1420 752 
Q 1681 391 2138 391 
Q 2594 391 2855 752 
Q 3116 1113 3116 1747 
z
" transform="scale(0.015625)"/>
      <path id="DejaVuSans-74" d="M 1172 4494 
L 1172 3500 
L 2356 3500 
L 2356 3053 
L 1172 3053 
L 1172 1153 
Q 1172 725 1289 603 
Q 1406 481 1766 481 
L 2356 481 
L 2356 0 
L 1766 0 
Q 1100 0 847 248 
Q 594 497 594 1153 
L 594 3053 
L 172 3053 
L 172 3500 
L 594 3500 
L 594 4494 
L 1172 4494 
z
" transform="scale(0.015625)"/>
      <path id="DejaVuSans-73" d="M 2834 3397 
L 2834 2853 
Q 2591 2978 2328 3040 
Q 2066 3103 1784 3103 
Q 1356 3103 1142 2972 
Q 928 2841 928 2578 
Q 928 2378 1081 2264 
Q 1234 2150 1697 2047 
L 1894 2003 
Q 2506 1872 2764 1633 
Q 3022 1394 3022 966 
Q 3022 478 2636 193 
Q 2250 -91 1575 -91 
Q 1294 -91 989 -36 
Q 684 19 347 128 
L 347 722 
Q 666 556 975 473 
Q 1284 391 1588 391 
Q 1994 391 2212 530 
Q 2431 669 2431 922 
Q 2431 1156 2273 1281 
Q 2116 1406 1581 1522 
L 1381 1569 
Q 847 1681 609 1914 
Q 372 2147 372 2553 
Q 372 3047 722 3315 
Q 1072 3584 1716 3584 
Q 2034 3584 2315 3537 
Q 2597 3491 2834 3397 
z
" transform="scale(0.015625)"/>
     </defs>
     <use xlink:href="#DejaVuSans-61"/>
     <use xlink:href="#DejaVuSans-6c" x="61.279297"/>
     <use xlink:href="#DejaVuSans-6c" x="89.0625"/>
     <use xlink:href="#DejaVuSans-20" x="116.845703"/>
     <use xlink:href="#DejaVuSans-64" x="148.632812"/>
     <use xlink:href="#DejaVuSans-65" x="212.109375"/>
     <use xlink:href="#DejaVuSans-70" x="273.632812"/>
     <use xlink:href="#DejaVuSans-74" x="337.109375"/>
     <use xlink:href="#DejaVuSans-68" x="376.318359"/>
     <use xlink:href="#DejaVuSans-73" x="439.697266"/>
    </g>
   </g>
   <g id="legend_1">
    <g id="patch_5">
     <path d="M 220.341406 236.92 
L 355.658594 236.92 
Q 357.658594 236.92 357.658594 234.92 
L 357.658594 220.96375 
Q 357.658594 218.96375 355.658594 218.96375 
L 220.341406 218.96375 
Q 218.341406 218.96375 218.341406 220.96375 
L 218.341406 234.92 
Q 218.341406 236.92 220.341406 236.92 
z
" style="fill: #ffffff; opacity: 0.8; stroke: #cccccc; stroke-linejoin: miter"/>
    </g>
    <g id="line2d_30">
     <path d="M 222.341406 227.062187 
L 232.341406 227.062187 
L 242.341406 227.062187 
" style="fill: none; stroke: #ff00ff; stroke-width: 1.5; stroke-linecap: square"/>
    </g>
    <g id="text_12">
     <!-- fgm_gPPI_middle_V1 -->
     <g transform="translate(250.341406 230.562187) scale(0.1 -0.1)">
      <defs>
       <path id="DejaVuSans-66" d="M 2375 4863 
L 2375 4384 
L 1825 4384 
Q 1516 4384 1395 4259 
Q 1275 4134 1275 3809 
L 1275 3500 
L 2222 3500 
L 2222 3053 
L 1275 3053 
L 1275 0 
L 697 0 
L 697 3053 
L 147 3053 
L 147 3500 
L 697 3500 
L 697 3744 
Q 697 4328 969 4595 
Q 1241 4863 1831 4863 
L 2375 4863 
z
" transform="scale(0.015625)"/>
       <path id="DejaVuSans-6d" d="M 3328 2828 
Q 3544 3216 3844 3400 
Q 4144 3584 4550 3584 
Q 5097 3584 5394 3201 
Q 5691 2819 5691 2113 
L 5691 0 
L 5113 0 
L 5113 2094 
Q 5113 2597 4934 2840 
Q 4756 3084 4391 3084 
Q 3944 3084 3684 2787 
Q 3425 2491 3425 1978 
L 3425 0 
L 2847 0 
L 2847 2094 
Q 2847 2600 2669 2842 
Q 2491 3084 2119 3084 
Q 1678 3084 1418 2786 
Q 1159 2488 1159 1978 
L 1159 0 
L 581 0 
L 581 3500 
L 1159 3500 
L 1159 2956 
Q 1356 3278 1631 3431 
Q 1906 3584 2284 3584 
Q 2666 3584 2933 3390 
Q 3200 3197 3328 2828 
z
" transform="scale(0.015625)"/>
       <path id="DejaVuSans-5f" d="M 3263 -1063 
L 3263 -1509 
L -63 -1509 
L -63 -1063 
L 3263 -1063 
z
" transform="scale(0.015625)"/>
       <path id="DejaVuSans-50" d="M 1259 4147 
L 1259 2394 
L 2053 2394 
Q 2494 2394 2734 2622 
Q 2975 2850 2975 3272 
Q 2975 3691 2734 3919 
Q 2494 4147 2053 4147 
L 1259 4147 
z
M 628 4666 
L 2053 4666 
Q 2838 4666 3239 4311 
Q 3641 3956 3641 3272 
Q 3641 2581 3239 2228 
Q 2838 1875 2053 1875 
L 1259 1875 
L 1259 0 
L 628 0 
L 628 4666 
z
" transform="scale(0.015625)"/>
       <path id="DejaVuSans-49" d="M 628 4666 
L 1259 4666 
L 1259 0 
L 628 0 
L 628 4666 
z
" transform="scale(0.015625)"/>
       <path id="DejaVuSans-69" d="M 603 3500 
L 1178 3500 
L 1178 0 
L 603 0 
L 603 3500 
z
M 603 4863 
L 1178 4863 
L 1178 4134 
L 603 4134 
L 603 4863 
z
" transform="scale(0.015625)"/>
       <path id="DejaVuSans-56" d="M 1831 0 
L 50 4666 
L 709 4666 
L 2188 738 
L 3669 4666 
L 4325 4666 
L 2547 0 
L 1831 0 
z
" transform="scale(0.015625)"/>
      </defs>
      <use xlink:href="#DejaVuSans-66"/>
      <use xlink:href="#DejaVuSans-67" x="35.205078"/>
      <use xlink:href="#DejaVuSans-6d" x="98.681641"/>
      <use xlink:href="#DejaVuSans-5f" x="196.09375"/>
      <use xlink:href="#DejaVuSans-67" x="246.09375"/>
      <use xlink:href="#DejaVuSans-50" x="309.570312"/>
      <use xlink:href="#DejaVuSans-50" x="369.873047"/>
      <use xlink:href="#DejaVuSans-49" x="430.175781"/>
      <use xlink:href="#DejaVuSans-5f" x="459.667969"/>
      <use xlink:href="#DejaVuSans-6d" x="509.667969"/>
      <use xlink:href="#DejaVuSans-69" x="607.080078"/>
      <use xlink:href="#DejaVuSans-64" x="634.863281"/>
      <use xlink:href="#DejaVuSans-64" x="698.339844"/>
      <use xlink:href="#DejaVuSans-6c" x="761.816406"/>
      <use xlink:href="#DejaVuSans-65" x="789.599609"/>
      <use xlink:href="#DejaVuSans-5f" x="851.123047"/>
      <use xlink:href="#DejaVuSans-56" x="901.123047"/>
      <use xlink:href="#DejaVuSans-31" x="969.53125"/>
     </g>
    </g>
   </g>
  </g>
  <g id="axes_2">
   <g id="patch_6">
    <path d="M 86.4 443.52 
L 489.6 443.52 
L 489.6 292.32 
L 86.4 292.32 
z
" style="fill: #ffffff"/>
   </g>
   <g id="patch_7">
    <path d="M 90.432 367.92 
L 163.008 367.92 
L 163.008 388.456584 
L 90.432 388.456584 
z
" clip-path="url(#p43c6325201)" style="fill: #ff00ff; opacity: 0.6"/>
   </g>
   <g id="patch_8">
    <path d="M 171.072 367.92 
L 243.648 367.92 
L 243.648 372.645574 
L 171.072 372.645574 
z
" clip-path="url(#p43c6325201)" style="fill: #ff00ff; opacity: 0.6"/>
   </g>
   <g id="patch_9">
    <path d="M 251.712 367.92 
L 324.288 367.92 
L 324.288 352.913391 
L 251.712 352.913391 
z
" clip-path="url(#p43c6325201)" style="fill: #ff00ff; opacity: 0.6"/>
   </g>
   <g id="patch_10">
    <path d="M 332.352 367.92 
L 404.928 367.92 
L 404.928 386.771321 
L 332.352 386.771321 
z
" clip-path="url(#p43c6325201)" style="fill: #ff00ff; opacity: 0.6"/>
   </g>
   <g id="patch_11">
    <path d="M 412.992 367.92 
L 485.568 367.92 
L 485.568 364.939496 
L 412.992 364.939496 
z
" clip-path="url(#p43c6325201)" style="fill: #ff00ff; opacity: 0.6"/>
   </g>
   <g id="matplotlib.axis_3">
    <g id="xtick_7">
     <g id="line2d_31">
      <g>
       <use xlink:href="#m779396e3bb" x="86.4" y="447.52" style="stroke: #000000; stroke-width: 0.8"/>
      </g>
     </g>
     <g id="text_13">
      <!-- 0 -->
      <g transform="translate(83.21875 462.118438) scale(0.1 -0.1)">
       <use xlink:href="#DejaVuSans-30"/>
      </g>
     </g>
    </g>
    <g id="xtick_8">
     <g id="line2d_32">
      <g>
       <use xlink:href="#m779396e3bb" x="167.04" y="447.52" style="stroke: #000000; stroke-width: 0.8"/>
      </g>
     </g>
     <g id="text_14">
      <!-- 1 -->
      <g transform="translate(163.85875 462.118438) scale(0.1 -0.1)">
       <use xlink:href="#DejaVuSans-31"/>
      </g>
     </g>
    </g>
    <g id="xtick_9">
     <g id="line2d_33">
      <g>
       <use xlink:href="#m779396e3bb" x="247.68" y="447.52" style="stroke: #000000; stroke-width: 0.8"/>
      </g>
     </g>
     <g id="text_15">
      <!-- 2 -->
      <g transform="translate(244.49875 462.118438) scale(0.1 -0.1)">
       <use xlink:href="#DejaVuSans-32"/>
      </g>
     </g>
    </g>
    <g id="xtick_10">
     <g id="line2d_34">
      <g>
       <use xlink:href="#m779396e3bb" x="328.32" y="447.52" style="stroke: #000000; stroke-width: 0.8"/>
      </g>
     </g>
     <g id="text_16">
      <!-- 3 -->
      <g transform="translate(325.13875 462.118438) scale(0.1 -0.1)">
       <defs>
        <path id="DejaVuSans-33" d="M 2597 2516 
Q 3050 2419 3304 2112 
Q 3559 1806 3559 1356 
Q 3559 666 3084 287 
Q 2609 -91 1734 -91 
Q 1441 -91 1130 -33 
Q 819 25 488 141 
L 488 750 
Q 750 597 1062 519 
Q 1375 441 1716 441 
Q 2309 441 2620 675 
Q 2931 909 2931 1356 
Q 2931 1769 2642 2001 
Q 2353 2234 1838 2234 
L 1294 2234 
L 1294 2753 
L 1863 2753 
Q 2328 2753 2575 2939 
Q 2822 3125 2822 3475 
Q 2822 3834 2567 4026 
Q 2313 4219 1838 4219 
Q 1578 4219 1281 4162 
Q 984 4106 628 3988 
L 628 4550 
Q 988 4650 1302 4700 
Q 1616 4750 1894 4750 
Q 2613 4750 3031 4423 
Q 3450 4097 3450 3541 
Q 3450 3153 3228 2886 
Q 3006 2619 2597 2516 
z
" transform="scale(0.015625)"/>
       </defs>
       <use xlink:href="#DejaVuSans-33"/>
      </g>
     </g>
    </g>
    <g id="xtick_11">
     <g id="line2d_35">
      <g>
       <use xlink:href="#m779396e3bb" x="408.96" y="447.52" style="stroke: #000000; stroke-width: 0.8"/>
      </g>
     </g>
     <g id="text_17">
      <!-- 4 -->
      <g transform="translate(405.77875 462.118438) scale(0.1 -0.1)">
       <defs>
        <path id="DejaVuSans-34" d="M 2419 4116 
L 825 1625 
L 2419 1625 
L 2419 4116 
z
M 2253 4666 
L 3047 4666 
L 3047 1625 
L 3713 1625 
L 3713 1100 
L 3047 1100 
L 3047 0 
L 2419 0 
L 2419 1100 
L 313 1100 
L 313 1709 
L 2253 4666 
z
" transform="scale(0.015625)"/>
       </defs>
       <use xlink:href="#DejaVuSans-34"/>
      </g>
     </g>
    </g>
    <g id="xtick_12">
     <g id="line2d_36">
      <g>
       <use xlink:href="#m779396e3bb" x="489.6" y="447.52" style="stroke: #000000; stroke-width: 0.8"/>
      </g>
     </g>
     <g id="text_18">
      <!-- 5 -->
      <g transform="translate(486.41875 462.118438) scale(0.1 -0.1)">
       <use xlink:href="#DejaVuSans-35"/>
      </g>
     </g>
    </g>
    <g id="text_19">
     <!-- relative distance from ROI center ($\sigma$) -->
     <g transform="translate(214.48 474.276875) scale(0.08 -0.08)">
      <defs>
       <path id="DejaVuSans-72" d="M 2631 2963 
Q 2534 3019 2420 3045 
Q 2306 3072 2169 3072 
Q 1681 3072 1420 2755 
Q 1159 2438 1159 1844 
L 1159 0 
L 581 0 
L 581 3500 
L 1159 3500 
L 1159 2956 
Q 1341 3275 1631 3429 
Q 1922 3584 2338 3584 
Q 2397 3584 2469 3576 
Q 2541 3569 2628 3553 
L 2631 2963 
z
" transform="scale(0.015625)"/>
       <path id="DejaVuSans-76" d="M 191 3500 
L 800 3500 
L 1894 563 
L 2988 3500 
L 3597 3500 
L 2284 0 
L 1503 0 
L 191 3500 
z
" transform="scale(0.015625)"/>
       <path id="DejaVuSans-6f" d="M 1959 3097 
Q 1497 3097 1228 2736 
Q 959 2375 959 1747 
Q 959 1119 1226 758 
Q 1494 397 1959 397 
Q 2419 397 2687 759 
Q 2956 1122 2956 1747 
Q 2956 2369 2687 2733 
Q 2419 3097 1959 3097 
z
M 1959 3584 
Q 2709 3584 3137 3096 
Q 3566 2609 3566 1747 
Q 3566 888 3137 398 
Q 2709 -91 1959 -91 
Q 1206 -91 779 398 
Q 353 888 353 1747 
Q 353 2609 779 3096 
Q 1206 3584 1959 3584 
z
" transform="scale(0.015625)"/>
       <path id="DejaVuSans-52" d="M 2841 2188 
Q 3044 2119 3236 1894 
Q 3428 1669 3622 1275 
L 4263 0 
L 3584 0 
L 2988 1197 
Q 2756 1666 2539 1819 
Q 2322 1972 1947 1972 
L 1259 1972 
L 1259 0 
L 628 0 
L 628 4666 
L 2053 4666 
Q 2853 4666 3247 4331 
Q 3641 3997 3641 3322 
Q 3641 2881 3436 2590 
Q 3231 2300 2841 2188 
z
M 1259 4147 
L 1259 2491 
L 2053 2491 
Q 2509 2491 2742 2702 
Q 2975 2913 2975 3322 
Q 2975 3731 2742 3939 
Q 2509 4147 2053 4147 
L 1259 4147 
z
" transform="scale(0.015625)"/>
       <path id="DejaVuSans-28" d="M 1984 4856 
Q 1566 4138 1362 3434 
Q 1159 2731 1159 2009 
Q 1159 1288 1364 580 
Q 1569 -128 1984 -844 
L 1484 -844 
Q 1016 -109 783 600 
Q 550 1309 550 2009 
Q 550 2706 781 3412 
Q 1013 4119 1484 4856 
L 1984 4856 
z
" transform="scale(0.015625)"/>
       <path id="DejaVuSans-Oblique-3c3" d="M 2219 3044 
Q 1744 3044 1422 2700 
Q 1081 2341 969 1747 
Q 844 1119 1044 756 
Q 1241 397 1706 397 
Q 2166 397 2503 759 
Q 2844 1122 2966 1747 
Q 3075 2319 2881 2700 
Q 2700 3044 2219 3044 
z
M 2309 3503 
L 4219 3500 
L 4106 2925 
L 3463 2925 
Q 3706 2438 3575 1747 
Q 3406 888 2884 400 
Q 2359 -91 1609 -91 
Q 856 -91 525 400 
Q 194 888 363 1747 
Q 528 2609 1050 3097 
Q 1484 3503 2309 3503 
z
" transform="scale(0.015625)"/>
       <path id="DejaVuSans-29" d="M 513 4856 
L 1013 4856 
Q 1481 4119 1714 3412 
Q 1947 2706 1947 2009 
Q 1947 1309 1714 600 
Q 1481 -109 1013 -844 
L 513 -844 
Q 928 -128 1133 580 
Q 1338 1288 1338 2009 
Q 1338 2731 1133 3434 
Q 928 4138 513 4856 
z
" transform="scale(0.015625)"/>
      </defs>
      <use xlink:href="#DejaVuSans-72" transform="translate(0 0.015625)"/>
      <use xlink:href="#DejaVuSans-65" transform="translate(41.113281 0.015625)"/>
      <use xlink:href="#DejaVuSans-6c" transform="translate(102.636719 0.015625)"/>
      <use xlink:href="#DejaVuSans-61" transform="translate(130.419922 0.015625)"/>
      <use xlink:href="#DejaVuSans-74" transform="translate(191.699219 0.015625)"/>
      <use xlink:href="#DejaVuSans-69" transform="translate(230.908203 0.015625)"/>
      <use xlink:href="#DejaVuSans-76" transform="translate(258.691406 0.015625)"/>
      <use xlink:href="#DejaVuSans-65" transform="translate(317.871094 0.015625)"/>
      <use xlink:href="#DejaVuSans-20" transform="translate(379.394531 0.015625)"/>
      <use xlink:href="#DejaVuSans-64" transform="translate(411.181641 0.015625)"/>
      <use xlink:href="#DejaVuSans-69" transform="translate(474.658203 0.015625)"/>
      <use xlink:href="#DejaVuSans-73" transform="translate(502.441406 0.015625)"/>
      <use xlink:href="#DejaVuSans-74" transform="translate(554.541016 0.015625)"/>
      <use xlink:href="#DejaVuSans-61" transform="translate(593.75 0.015625)"/>
      <use xlink:href="#DejaVuSans-6e" transform="translate(655.029297 0.015625)"/>
      <use xlink:href="#DejaVuSans-63" transform="translate(718.408203 0.015625)"/>
      <use xlink:href="#DejaVuSans-65" transform="translate(773.388672 0.015625)"/>
      <use xlink:href="#DejaVuSans-20" transform="translate(834.912109 0.015625)"/>
      <use xlink:href="#DejaVuSans-66" transform="translate(866.699219 0.015625)"/>
      <use xlink:href="#DejaVuSans-72" transform="translate(901.904297 0.015625)"/>
      <use xlink:href="#DejaVuSans-6f" transform="translate(943.017578 0.015625)"/>
      <use xlink:href="#DejaVuSans-6d" transform="translate(1004.199219 0.015625)"/>
      <use xlink:href="#DejaVuSans-20" transform="translate(1101.611328 0.015625)"/>
      <use xlink:href="#DejaVuSans-52" transform="translate(1133.398438 0.015625)"/>
      <use xlink:href="#DejaVuSans-4f" transform="translate(1202.880859 0.015625)"/>
      <use xlink:href="#DejaVuSans-49" transform="translate(1281.591797 0.015625)"/>
      <use xlink:href="#DejaVuSans-20" transform="translate(1311.083984 0.015625)"/>
      <use xlink:href="#DejaVuSans-63" transform="translate(1342.871094 0.015625)"/>
      <use xlink:href="#DejaVuSans-65" transform="translate(1397.851562 0.015625)"/>
      <use xlink:href="#DejaVuSans-6e" transform="translate(1459.375 0.015625)"/>
      <use xlink:href="#DejaVuSans-74" transform="translate(1522.753906 0.015625)"/>
      <use xlink:href="#DejaVuSans-65" transform="translate(1561.962891 0.015625)"/>
      <use xlink:href="#DejaVuSans-72" transform="translate(1623.486328 0.015625)"/>
      <use xlink:href="#DejaVuSans-20" transform="translate(1664.599609 0.015625)"/>
      <use xlink:href="#DejaVuSans-28" transform="translate(1696.386719 0.015625)"/>
      <use xlink:href="#DejaVuSans-Oblique-3c3" transform="translate(1735.400391 0.015625)"/>
      <use xlink:href="#DejaVuSans-29" transform="translate(1798.779297 0.015625)"/>
     </g>
    </g>
   </g>
   <g id="matplotlib.axis_4">
    <g id="ytick_10">
     <g id="line2d_37">
      <g>
       <use xlink:href="#ma8903fe1ab" x="82.4" y="443.52" style="stroke: #000000; stroke-width: 0.8"/>
      </g>
     </g>
     <g id="text_20">
      <!-- −1.0 -->
      <g transform="translate(51.117187 447.319219) scale(0.1 -0.1)">
       <use xlink:href="#DejaVuSans-2212"/>
       <use xlink:href="#DejaVuSans-31" x="83.789062"/>
       <use xlink:href="#DejaVuSans-2e" x="147.412109"/>
       <use xlink:href="#DejaVuSans-30" x="179.199219"/>
      </g>
     </g>
    </g>
    <g id="ytick_11">
     <g id="line2d_38">
      <g>
       <use xlink:href="#ma8903fe1ab" x="82.4" y="405.72" style="stroke: #000000; stroke-width: 0.8"/>
      </g>
     </g>
     <g id="text_21">
      <!-- −0.5 -->
      <g transform="translate(51.117187 409.519219) scale(0.1 -0.1)">
       <use xlink:href="#DejaVuSans-2212"/>
       <use xlink:href="#DejaVuSans-30" x="83.789062"/>
       <use xlink:href="#DejaVuSans-2e" x="147.412109"/>
       <use xlink:href="#DejaVuSans-35" x="179.199219"/>
      </g>
     </g>
    </g>
    <g id="ytick_12">
     <g id="line2d_39">
      <g>
       <use xlink:href="#ma8903fe1ab" x="82.4" y="367.92" style="stroke: #000000; stroke-width: 0.8"/>
      </g>
     </g>
     <g id="text_22">
      <!-- 0.0 -->
      <g transform="translate(59.496875 371.719219) scale(0.1 -0.1)">
       <use xlink:href="#DejaVuSans-30"/>
       <use xlink:href="#DejaVuSans-2e" x="63.623047"/>
       <use xlink:href="#DejaVuSans-30" x="95.410156"/>
      </g>
     </g>
    </g>
    <g id="ytick_13">
     <g id="line2d_40">
      <g>
       <use xlink:href="#ma8903fe1ab" x="82.4" y="330.12" style="stroke: #000000; stroke-width: 0.8"/>
      </g>
     </g>
     <g id="text_23">
      <!-- 0.5 -->
      <g transform="translate(59.496875 333.919219) scale(0.1 -0.1)">
       <use xlink:href="#DejaVuSans-30"/>
       <use xlink:href="#DejaVuSans-2e" x="63.623047"/>
       <use xlink:href="#DejaVuSans-35" x="95.410156"/>
      </g>
     </g>
    </g>
    <g id="ytick_14">
     <g id="line2d_41">
      <g>
       <use xlink:href="#ma8903fe1ab" x="82.4" y="292.32" style="stroke: #000000; stroke-width: 0.8"/>
      </g>
     </g>
     <g id="text_24">
      <!-- 1.0 -->
      <g transform="translate(59.496875 296.119219) scale(0.1 -0.1)">
       <use xlink:href="#DejaVuSans-31"/>
       <use xlink:href="#DejaVuSans-2e" x="63.623047"/>
       <use xlink:href="#DejaVuSans-30" x="95.410156"/>
      </g>
     </g>
    </g>
    <g id="text_25">
     <!-- Binned Avg -->
     <g transform="translate(45.453437 390.525625) rotate(-90) scale(0.08 -0.08)">
      <defs>
       <path id="DejaVuSans-41" d="M 2188 4044 
L 1331 1722 
L 3047 1722 
L 2188 4044 
z
M 1831 4666 
L 2547 4666 
L 4325 0 
L 3669 0 
L 3244 1197 
L 1141 1197 
L 716 0 
L 50 0 
L 1831 4666 
z
" transform="scale(0.015625)"/>
      </defs>
      <use xlink:href="#DejaVuSans-42"/>
      <use xlink:href="#DejaVuSans-69" x="68.603516"/>
      <use xlink:href="#DejaVuSans-6e" x="96.386719"/>
      <use xlink:href="#DejaVuSans-6e" x="159.765625"/>
      <use xlink:href="#DejaVuSans-65" x="223.144531"/>
      <use xlink:href="#DejaVuSans-64" x="284.667969"/>
      <use xlink:href="#DejaVuSans-20" x="348.144531"/>
      <use xlink:href="#DejaVuSans-41" x="379.931641"/>
      <use xlink:href="#DejaVuSans-76" x="442.464844"/>
      <use xlink:href="#DejaVuSans-67" x="501.644531"/>
     </g>
    </g>
   </g>
   <g id="LineCollection_1">
    <path d="M 126.72 413.714423 
L 126.72 363.198745 
" clip-path="url(#p43c6325201)" style="fill: none; stroke: #000000; stroke-width: 1.5"/>
    <path d="M 207.36 391.312119 
L 207.36 353.979029 
" clip-path="url(#p43c6325201)" style="fill: none; stroke: #000000; stroke-width: 1.5"/>
    <path d="M 288 375.697196 
L 288 330.129586 
" clip-path="url(#p43c6325201)" style="fill: none; stroke: #000000; stroke-width: 1.5"/>
    <path d="M 368.64 411.21541 
L 368.64 362.327232 
" clip-path="url(#p43c6325201)" style="fill: none; stroke: #000000; stroke-width: 1.5"/>
    <path d="M 449.28 392.93084 
L 449.28 336.948151 
" clip-path="url(#p43c6325201)" style="fill: none; stroke: #000000; stroke-width: 1.5"/>
   </g>
   <g id="line2d_42">
    <defs>
     <path id="md215278183" d="M 5 0 
L -5 -0 
" style="stroke: #000000"/>
    </defs>
    <g clip-path="url(#p43c6325201)">
     <use xlink:href="#md215278183" x="126.72" y="413.714423" style="stroke: #000000"/>
     <use xlink:href="#md215278183" x="207.36" y="391.312119" style="stroke: #000000"/>
     <use xlink:href="#md215278183" x="288" y="375.697196" style="stroke: #000000"/>
     <use xlink:href="#md215278183" x="368.64" y="411.21541" style="stroke: #000000"/>
     <use xlink:href="#md215278183" x="449.28" y="392.93084" style="stroke: #000000"/>
    </g>
   </g>
   <g id="line2d_43">
    <g clip-path="url(#p43c6325201)">
     <use xlink:href="#md215278183" x="126.72" y="363.198745" style="stroke: #000000"/>
     <use xlink:href="#md215278183" x="207.36" y="353.979029" style="stroke: #000000"/>
     <use xlink:href="#md215278183" x="288" y="330.129586" style="stroke: #000000"/>
     <use xlink:href="#md215278183" x="368.64" y="362.327232" style="stroke: #000000"/>
     <use xlink:href="#md215278183" x="449.28" y="336.948151" style="stroke: #000000"/>
    </g>
   </g>
   <g id="line2d_44">
    <path d="M 86.4 367.92 
L 489.6 367.92 
" clip-path="url(#p43c6325201)" style="fill: none; stroke-dasharray: 5.55,2.4; stroke-dashoffset: 0; stroke: #000000; stroke-width: 1.5"/>
   </g>
   <g id="patch_12">
    <path d="M 82.4 443.52 
L 82.4 292.32 
" style="fill: none; stroke: #000000; stroke-width: 0.8; stroke-linejoin: miter; stroke-linecap: square"/>
   </g>
   <g id="patch_13">
    <path d="M 86.4 447.52 
L 489.6 447.52 
" style="fill: none; stroke: #000000; stroke-width: 0.8; stroke-linejoin: miter; stroke-linecap: square"/>
   </g>
  </g>
 </g>
 <defs>
  <clipPath id="pc599a27dd8">
   <rect x="86.4" y="40.32" width="403.2" height="201.6"/>
  </clipPath>
  <clipPath id="p43c6325201">
   <rect x="86.4" y="292.32" width="403.2" height="151.2"/>
  </clipPath>
 </defs>
</svg>
