<?xml version="1.0" encoding="utf-8" standalone="no"?>
<!DOCTYPE svg PUBLIC "-//W3C//DTD SVG 1.1//EN"
  "http://www.w3.org/Graphics/SVG/1.1/DTD/svg11.dtd">
<svg xmlns:xlink="http://www.w3.org/1999/xlink" width="576pt" height="504pt" viewBox="0 0 576 504" xmlns="http://www.w3.org/2000/svg" version="1.1">
 <metadata>
  <rdf:RDF xmlns:dc="http://purl.org/dc/elements/1.1/" xmlns:cc="http://creativecommons.org/ns#" xmlns:rdf="http://www.w3.org/1999/02/22-rdf-syntax-ns#">
   <cc:Work>
    <dc:type rdf:resource="http://purl.org/dc/dcmitype/StillImage"/>
    <dc:date>2026-05-26T10:36:38.647806</dc:date>
    <dc:format>image/svg+xml</dc:format>
    <dc:creator>
     <cc:Agent>
      <dc:title>Matplotlib v3.8.0, https://matplotlib.org/</dc:title>
     </cc:Agent>
    </dc:creator>
   </cc:Work>
  </rdf:RDF>
 </metadata>
 <defs>
  <style type="text/css">*{stroke-linejoin: round; stroke-linecap: butt}</style>
 </defs>
 <g id="figure_1">
  <g id="patch_1">
   <path d="M 0 504 
L 576 504 
L 576 0 
L 0 0 
z
" style="fill: #ffffff"/>
  </g>
  <g id="axes_1">
   <g id="patch_2">
    <path d="M 86.4 241.92 
L 489.6 241.92 
L 489.6 40.32 
L 86.4 40.32 
z
" style="fill: #ffffff"/>
   </g>
   <g id="PolyCollection_1">
    <defs>
     <path id="m4e3584386f" d="M 86.4 -376.5048 
L 86.4 -344.536841 
L 94.628571 -342.349703 
L 102.857143 -341.845791 
L 111.085714 -340.403254 
L 119.314286 -342.64746 
L 127.542857 -351.681451 
L 135.771429 -363.133319 
L 144 -369.02758 
L 152.228571 -376.471424 
L 160.457143 -376.934069 
L 168.685714 -373.608751 
L 176.914286 -372.747979 
L 185.142857 -374.036633 
L 193.371429 -371.264563 
L 201.6 -372.407605 
L 209.828571 -373.892407 
L 218.057143 -373.896932 
L 226.285714 -370.883824 
L 234.514286 -368.703522 
L 242.742857 -365.885785 
L 250.971429 -362.601758 
L 259.2 -360.202094 
L 267.428571 -358.490633 
L 275.657143 -356.002185 
L 283.885714 -354.582187 
L 292.114286 -352.752246 
L 300.342857 -348.821769 
L 308.571429 -346.472662 
L 316.8 -346.004353 
L 325.028571 -345.123456 
L 333.257143 -344.155877 
L 341.485714 -342.246835 
L 349.714286 -340.671668 
L 357.942857 -340.351602 
L 366.171429 -341.630801 
L 374.4 -342.275491 
L 382.628571 -343.966201 
L 390.857143 -344.037233 
L 399.085714 -341.028805 
L 407.314286 -339.498643 
L 415.542857 -340.388583 
L 423.771429 -341.576289 
L 432 -341.695318 
L 440.228571 -338.537203 
L 448.457143 -334.791352 
L 456.685714 -331.21131 
L 464.914286 -328.28753 
L 473.142857 -324.594904 
L 481.371429 -324.92581 
L 489.6 -323.810217 
L 489.6 -353.669138 
L 489.6 -353.669138 
L 481.371429 -352.31344 
L 473.142857 -351.527529 
L 464.914286 -355.691246 
L 456.685714 -358.692037 
L 448.457143 -361.118579 
L 440.228571 -365.04441 
L 432 -369.399681 
L 423.771429 -369.937249 
L 415.542857 -369.353434 
L 407.314286 -368.531114 
L 399.085714 -368.853728 
L 390.857143 -370.392106 
L 382.628571 -368.816155 
L 374.4 -364.882497 
L 366.171429 -363.170902 
L 357.942857 -361.788207 
L 349.714286 -361.347922 
L 341.485714 -362.563099 
L 333.257143 -365.226821 
L 325.028571 -367.117453 
L 316.8 -368.244406 
L 308.571429 -369.863822 
L 300.342857 -373.020324 
L 292.114286 -377.247863 
L 283.885714 -378.219682 
L 275.657143 -379.315924 
L 267.428571 -380.982952 
L 259.2 -382.210073 
L 250.971429 -383.285064 
L 242.742857 -385.086643 
L 234.514286 -386.912572 
L 226.285714 -388.189364 
L 218.057143 -389.425496 
L 209.828571 -388.192499 
L 201.6 -387.465688 
L 193.371429 -387.404199 
L 185.142857 -391.248196 
L 176.914286 -390.634988 
L 168.685714 -390.830976 
L 160.457143 -394.437092 
L 152.228571 -395.095126 
L 144 -393.295249 
L 135.771429 -390.628904 
L 127.542857 -382.664157 
L 119.314286 -375.343046 
L 111.085714 -372.865001 
L 102.857143 -373.577951 
L 94.628571 -375.389311 
L 86.4 -376.5048 
z
" style="stroke: #1aff00; stroke-opacity: 0.4"/>
    </defs>
    <g clip-path="url(#p382760f353)">
     <use xlink:href="#m4e3584386f" x="0" y="504" style="fill: #1aff00; fill-opacity: 0.4; stroke: #1aff00; stroke-opacity: 0.4"/>
    </g>
   </g>
   <g id="matplotlib.axis_1">
    <g id="xtick_1">
     <g id="line2d_1">
      <defs>
       <path id="mfa47d85c6a" d="M 0 0 
L 0 3.5 
" style="stroke: #000000; stroke-width: 0.8"/>
      </defs>
      <g>
       <use xlink:href="#mfa47d85c6a" x="86.4" y="245.92" style="stroke: #000000; stroke-width: 0.8"/>
      </g>
     </g>
    </g>
    <g id="xtick_2">
     <g id="line2d_2">
      <g>
       <use xlink:href="#mfa47d85c6a" x="167.04" y="245.92" style="stroke: #000000; stroke-width: 0.8"/>
      </g>
     </g>
    </g>
    <g id="xtick_3">
     <g id="line2d_3">
      <g>
       <use xlink:href="#mfa47d85c6a" x="247.68" y="245.92" style="stroke: #000000; stroke-width: 0.8"/>
      </g>
     </g>
    </g>
    <g id="xtick_4">
     <g id="line2d_4">
      <g>
       <use xlink:href="#mfa47d85c6a" x="328.32" y="245.92" style="stroke: #000000; stroke-width: 0.8"/>
      </g>
     </g>
    </g>
    <g id="xtick_5">
     <g id="line2d_5">
      <g>
       <use xlink:href="#mfa47d85c6a" x="408.96" y="245.92" style="stroke: #000000; stroke-width: 0.8"/>
      </g>
     </g>
    </g>
    <g id="xtick_6">
     <g id="line2d_6">
      <g>
       <use xlink:href="#mfa47d85c6a" x="489.6" y="245.92" style="stroke: #000000; stroke-width: 0.8"/>
      </g>
     </g>
    </g>
   </g>
   <g id="matplotlib.axis_2">
    <g id="ytick_1">
     <g id="line2d_7">
      <defs>
       <path id="m29778f698b" d="M 0 0 
L -3.5 0 
" style="stroke: #000000; stroke-width: 0.8"/>
      </defs>
      <g>
       <use xlink:href="#m29778f698b" x="82.4" y="241.92" style="stroke: #000000; stroke-width: 0.8"/>
      </g>
     </g>
     <g id="text_1">
      <!-- −2.0 -->
      <g transform="translate(51.117187 245.719219) scale(0.1 -0.1)">
       <defs>
        <path id="DejaVuSans-2212" d="M 678 2272 
L 4684 2272 
L 4684 1741 
L 678 1741 
L 678 2272 
z
" transform="scale(0.015625)"/>
        <path id="DejaVuSans-32" d="M 1228 531 
L 3431 531 
L 3431 0 
L 469 0 
L 469 531 
Q 828 903 1448 1529 
Q 2069 2156 2228 2338 
Q 2531 2678 2651 2914 
Q 2772 3150 2772 3378 
Q 2772 3750 2511 3984 
Q 2250 4219 1831 4219 
Q 1534 4219 1204 4116 
Q 875 4013 500 3803 
L 500 4441 
Q 881 4594 1212 4672 
Q 1544 4750 1819 4750 
Q 2544 4750 2975 4387 
Q 3406 4025 3406 3419 
Q 3406 3131 3298 2873 
Q 3191 2616 2906 2266 
Q 2828 2175 2409 1742 
Q 1991 1309 1228 531 
z
" transform="scale(0.015625)"/>
        <path id="DejaVuSans-2e" d="M 684 794 
L 1344 794 
L 1344 0 
L 684 0 
L 684 794 
z
" transform="scale(0.015625)"/>
        <path id="DejaVuSans-30" d="M 2034 4250 
Q 1547 4250 1301 3770 
Q 1056 3291 1056 2328 
Q 1056 1369 1301 889 
Q 1547 409 2034 409 
Q 2525 409 2770 889 
Q 3016 1369 3016 2328 
Q 3016 3291 2770 3770 
Q 2525 4250 2034 4250 
z
M 2034 4750 
Q 2819 4750 3233 4129 
Q 3647 3509 3647 2328 
Q 3647 1150 3233 529 
Q 2819 -91 2034 -91 
Q 1250 -91 836 529 
Q 422 1150 422 2328 
Q 422 3509 836 4129 
Q 1250 4750 2034 4750 
z
" transform="scale(0.015625)"/>
       </defs>
       <use xlink:href="#DejaVuSans-2212"/>
       <use xlink:href="#DejaVuSans-32" x="83.789062"/>
       <use xlink:href="#DejaVuSans-2e" x="147.412109"/>
       <use xlink:href="#DejaVuSans-30" x="179.199219"/>
      </g>
     </g>
    </g>
    <g id="ytick_2">
     <g id="line2d_8">
      <g>
       <use xlink:href="#m29778f698b" x="82.4" y="216.72" style="stroke: #000000; stroke-width: 0.8"/>
      </g>
     </g>
     <g id="text_2">
      <!-- −1.5 -->
      <g transform="translate(51.117187 220.519219) scale(0.1 -0.1)">
       <defs>
        <path id="DejaVuSans-31" d="M 794 531 
L 1825 531 
L 1825 4091 
L 703 3866 
L 703 4441 
L 1819 4666 
L 2450 4666 
L 2450 531 
L 3481 531 
L 3481 0 
L 794 0 
L 794 531 
z
" transform="scale(0.015625)"/>
        <path id="DejaVuSans-35" d="M 691 4666 
L 3169 4666 
L 3169 4134 
L 1269 4134 
L 1269 2991 
Q 1406 3038 1543 3061 
Q 1681 3084 1819 3084 
Q 2600 3084 3056 2656 
Q 3513 2228 3513 1497 
Q 3513 744 3044 326 
Q 2575 -91 1722 -91 
Q 1428 -91 1123 -41 
Q 819 9 494 109 
L 494 744 
Q 775 591 1075 516 
Q 1375 441 1709 441 
Q 2250 441 2565 725 
Q 2881 1009 2881 1497 
Q 2881 1984 2565 2268 
Q 2250 2553 1709 2553 
Q 1456 2553 1204 2497 
Q 953 2441 691 2322 
L 691 4666 
z
" transform="scale(0.015625)"/>
       </defs>
       <use xlink:href="#DejaVuSans-2212"/>
       <use xlink:href="#DejaVuSans-31" x="83.789062"/>
       <use xlink:href="#DejaVuSans-2e" x="147.412109"/>
       <use xlink:href="#DejaVuSans-35" x="179.199219"/>
      </g>
     </g>
    </g>
    <g id="ytick_3">
     <g id="line2d_9">
      <g>
       <use xlink:href="#m29778f698b" x="82.4" y="191.52" style="stroke: #000000; stroke-width: 0.8"/>
      </g>
     </g>
     <g id="text_3">
      <!-- −1.0 -->
      <g transform="translate(51.117187 195.319219) scale(0.1 -0.1)">
       <use xlink:href="#DejaVuSans-2212"/>
       <use xlink:href="#DejaVuSans-31" x="83.789062"/>
       <use xlink:href="#DejaVuSans-2e" x="147.412109"/>
       <use xlink:href="#DejaVuSans-30" x="179.199219"/>
      </g>
     </g>
    </g>
    <g id="ytick_4">
     <g id="line2d_10">
      <g>
       <use xlink:href="#m29778f698b" x="82.4" y="166.32" style="stroke: #000000; stroke-width: 0.8"/>
      </g>
     </g>
     <g id="text_4">
      <!-- −0.5 -->
      <g transform="translate(51.117187 170.119219) scale(0.1 -0.1)">
       <use xlink:href="#DejaVuSans-2212"/>
       <use xlink:href="#DejaVuSans-30" x="83.789062"/>
       <use xlink:href="#DejaVuSans-2e" x="147.412109"/>
       <use xlink:href="#DejaVuSans-35" x="179.199219"/>
      </g>
     </g>
    </g>
    <g id="ytick_5">
     <g id="line2d_11">
      <g>
       <use xlink:href="#m29778f698b" x="82.4" y="141.12" style="stroke: #000000; stroke-width: 0.8"/>
      </g>
     </g>
     <g id="text_5">
      <!-- 0.0 -->
      <g transform="translate(59.496875 144.919219) scale(0.1 -0.1)">
       <use xlink:href="#DejaVuSans-30"/>
       <use xlink:href="#DejaVuSans-2e" x="63.623047"/>
       <use xlink:href="#DejaVuSans-30" x="95.410156"/>
      </g>
     </g>
    </g>
    <g id="ytick_6">
     <g id="line2d_12">
      <g>
       <use xlink:href="#m29778f698b" x="82.4" y="115.92" style="stroke: #000000; stroke-width: 0.8"/>
      </g>
     </g>
     <g id="text_6">
      <!-- 0.5 -->
      <g transform="translate(59.496875 119.719219) scale(0.1 -0.1)">
       <use xlink:href="#DejaVuSans-30"/>
       <use xlink:href="#DejaVuSans-2e" x="63.623047"/>
       <use xlink:href="#DejaVuSans-35" x="95.410156"/>
      </g>
     </g>
    </g>
    <g id="ytick_7">
     <g id="line2d_13">
      <g>
       <use xlink:href="#m29778f698b" x="82.4" y="90.72" style="stroke: #000000; stroke-width: 0.8"/>
      </g>
     </g>
     <g id="text_7">
      <!-- 1.0 -->
      <g transform="translate(59.496875 94.519219) scale(0.1 -0.1)">
       <use xlink:href="#DejaVuSans-31"/>
       <use xlink:href="#DejaVuSans-2e" x="63.623047"/>
       <use xlink:href="#DejaVuSans-30" x="95.410156"/>
      </g>
     </g>
    </g>
    <g id="ytick_8">
     <g id="line2d_14">
      <g>
       <use xlink:href="#m29778f698b" x="82.4" y="65.52" style="stroke: #000000; stroke-width: 0.8"/>
      </g>
     </g>
     <g id="text_8">
      <!-- 1.5 -->
      <g transform="translate(59.496875 69.319219) scale(0.1 -0.1)">
       <use xlink:href="#DejaVuSans-31"/>
       <use xlink:href="#DejaVuSans-2e" x="63.623047"/>
       <use xlink:href="#DejaVuSans-35" x="95.410156"/>
      </g>
     </g>
    </g>
    <g id="ytick_9">
     <g id="line2d_15">
      <g>
       <use xlink:href="#m29778f698b" x="82.4" y="40.32" style="stroke: #000000; stroke-width: 0.8"/>
      </g>
     </g>
     <g id="text_9">
      <!-- 2.0 -->
      <g transform="translate(59.496875 44.119219) scale(0.1 -0.1)">
       <use xlink:href="#DejaVuSans-32"/>
       <use xlink:href="#DejaVuSans-2e" x="63.623047"/>
       <use xlink:href="#DejaVuSans-30" x="95.410156"/>
      </g>
     </g>
    </g>
    <g id="text_10">
     <!-- BOLD % change -->
     <g transform="translate(45.453437 173.31625) rotate(-90) scale(0.08 -0.08)">
      <defs>
       <path id="DejaVuSans-42" d="M 1259 2228 
L 1259 519 
L 2272 519 
Q 2781 519 3026 730 
Q 3272 941 3272 1375 
Q 3272 1813 3026 2020 
Q 2781 2228 2272 2228 
L 1259 2228 
z
M 1259 4147 
L 1259 2741 
L 2194 2741 
Q 2656 2741 2882 2914 
Q 3109 3088 3109 3444 
Q 3109 3797 2882 3972 
Q 2656 4147 2194 4147 
L 1259 4147 
z
M 628 4666 
L 2241 4666 
Q 2963 4666 3353 4366 
Q 3744 4066 3744 3513 
Q 3744 3084 3544 2831 
Q 3344 2578 2956 2516 
Q 3422 2416 3680 2098 
Q 3938 1781 3938 1306 
Q 3938 681 3513 340 
Q 3088 0 2303 0 
L 628 0 
L 628 4666 
z
" transform="scale(0.015625)"/>
       <path id="DejaVuSans-4f" d="M 2522 4238 
Q 1834 4238 1429 3725 
Q 1025 3213 1025 2328 
Q 1025 1447 1429 934 
Q 1834 422 2522 422 
Q 3209 422 3611 934 
Q 4013 1447 4013 2328 
Q 4013 3213 3611 3725 
Q 3209 4238 2522 4238 
z
M 2522 4750 
Q 3503 4750 4090 4092 
Q 4678 3434 4678 2328 
Q 4678 1225 4090 567 
Q 3503 -91 2522 -91 
Q 1538 -91 948 565 
Q 359 1222 359 2328 
Q 359 3434 948 4092 
Q 1538 4750 2522 4750 
z
" transform="scale(0.015625)"/>
       <path id="DejaVuSans-4c" d="M 628 4666 
L 1259 4666 
L 1259 531 
L 3531 531 
L 3531 0 
L 628 0 
L 628 4666 
z
" transform="scale(0.015625)"/>
       <path id="DejaVuSans-44" d="M 1259 4147 
L 1259 519 
L 2022 519 
Q 2988 519 3436 956 
Q 3884 1394 3884 2338 
Q 3884 3275 3436 3711 
Q 2988 4147 2022 4147 
L 1259 4147 
z
M 628 4666 
L 1925 4666 
Q 3281 4666 3915 4102 
Q 4550 3538 4550 2338 
Q 4550 1131 3912 565 
Q 3275 0 1925 0 
L 628 0 
L 628 4666 
z
" transform="scale(0.015625)"/>
       <path id="DejaVuSans-20" transform="scale(0.015625)"/>
       <path id="DejaVuSans-25" d="M 4653 2053 
Q 4381 2053 4226 1822 
Q 4072 1591 4072 1178 
Q 4072 772 4226 539 
Q 4381 306 4653 306 
Q 4919 306 5073 539 
Q 5228 772 5228 1178 
Q 5228 1588 5073 1820 
Q 4919 2053 4653 2053 
z
M 4653 2450 
Q 5147 2450 5437 2106 
Q 5728 1763 5728 1178 
Q 5728 594 5436 251 
Q 5144 -91 4653 -91 
Q 4153 -91 3862 251 
Q 3572 594 3572 1178 
Q 3572 1766 3864 2108 
Q 4156 2450 4653 2450 
z
M 1428 4353 
Q 1159 4353 1004 4120 
Q 850 3888 850 3481 
Q 850 3069 1003 2837 
Q 1156 2606 1428 2606 
Q 1700 2606 1854 2837 
Q 2009 3069 2009 3481 
Q 2009 3884 1853 4118 
Q 1697 4353 1428 4353 
z
M 4250 4750 
L 4750 4750 
L 1831 -91 
L 1331 -91 
L 4250 4750 
z
M 1428 4750 
Q 1922 4750 2215 4408 
Q 2509 4066 2509 3481 
Q 2509 2891 2217 2550 
Q 1925 2209 1428 2209 
Q 931 2209 642 2551 
Q 353 2894 353 3481 
Q 353 4063 643 4406 
Q 934 4750 1428 4750 
z
" transform="scale(0.015625)"/>
       <path id="DejaVuSans-63" d="M 3122 3366 
L 3122 2828 
Q 2878 2963 2633 3030 
Q 2388 3097 2138 3097 
Q 1578 3097 1268 2742 
Q 959 2388 959 1747 
Q 959 1106 1268 751 
Q 1578 397 2138 397 
Q 2388 397 2633 464 
Q 2878 531 3122 666 
L 3122 134 
Q 2881 22 2623 -34 
Q 2366 -91 2075 -91 
Q 1284 -91 818 406 
Q 353 903 353 1747 
Q 353 2603 823 3093 
Q 1294 3584 2113 3584 
Q 2378 3584 2631 3529 
Q 2884 3475 3122 3366 
z
" transform="scale(0.015625)"/>
       <path id="DejaVuSans-68" d="M 3513 2113 
L 3513 0 
L 2938 0 
L 2938 2094 
Q 2938 2591 2744 2837 
Q 2550 3084 2163 3084 
Q 1697 3084 1428 2787 
Q 1159 2491 1159 1978 
L 1159 0 
L 581 0 
L 581 4863 
L 1159 4863 
L 1159 2956 
Q 1366 3272 1645 3428 
Q 1925 3584 2291 3584 
Q 2894 3584 3203 3211 
Q 3513 2838 3513 2113 
z
" transform="scale(0.015625)"/>
       <path id="DejaVuSans-61" d="M 2194 1759 
Q 1497 1759 1228 1600 
Q 959 1441 959 1056 
Q 959 750 1161 570 
Q 1363 391 1709 391 
Q 2188 391 2477 730 
Q 2766 1069 2766 1631 
L 2766 1759 
L 2194 1759 
z
M 3341 1997 
L 3341 0 
L 2766 0 
L 2766 531 
Q 2569 213 2275 61 
Q 1981 -91 1556 -91 
Q 1019 -91 701 211 
Q 384 513 384 1019 
Q 384 1609 779 1909 
Q 1175 2209 1959 2209 
L 2766 2209 
L 2766 2266 
Q 2766 2663 2505 2880 
Q 2244 3097 1772 3097 
Q 1472 3097 1187 3025 
Q 903 2953 641 2809 
L 641 3341 
Q 956 3463 1253 3523 
Q 1550 3584 1831 3584 
Q 2591 3584 2966 3190 
Q 3341 2797 3341 1997 
z
" transform="scale(0.015625)"/>
       <path id="DejaVuSans-6e" d="M 3513 2113 
L 3513 0 
L 2938 0 
L 2938 2094 
Q 2938 2591 2744 2837 
Q 2550 3084 2163 3084 
Q 1697 3084 1428 2787 
Q 1159 2491 1159 1978 
L 1159 0 
L 581 0 
L 581 3500 
L 1159 3500 
L 1159 2956 
Q 1366 3272 1645 3428 
Q 1925 3584 2291 3584 
Q 2894 3584 3203 3211 
Q 3513 2838 3513 2113 
z
" transform="scale(0.015625)"/>
       <path id="DejaVuSans-67" d="M 2906 1791 
Q 2906 2416 2648 2759 
Q 2391 3103 1925 3103 
Q 1463 3103 1205 2759 
Q 947 2416 947 1791 
Q 947 1169 1205 825 
Q 1463 481 1925 481 
Q 2391 481 2648 825 
Q 2906 1169 2906 1791 
z
M 3481 434 
Q 3481 -459 3084 -895 
Q 2688 -1331 1869 -1331 
Q 1566 -1331 1297 -1286 
Q 1028 -1241 775 -1147 
L 775 -588 
Q 1028 -725 1275 -790 
Q 1522 -856 1778 -856 
Q 2344 -856 2625 -561 
Q 2906 -266 2906 331 
L 2906 616 
Q 2728 306 2450 153 
Q 2172 0 1784 0 
Q 1141 0 747 490 
Q 353 981 353 1791 
Q 353 2603 747 3093 
Q 1141 3584 1784 3584 
Q 2172 3584 2450 3431 
Q 2728 3278 2906 2969 
L 2906 3500 
L 3481 3500 
L 3481 434 
z
" transform="scale(0.015625)"/>
       <path id="DejaVuSans-65" d="M 3597 1894 
L 3597 1613 
L 953 1613 
Q 991 1019 1311 708 
Q 1631 397 2203 397 
Q 2534 397 2845 478 
Q 3156 559 3463 722 
L 3463 178 
Q 3153 47 2828 -22 
Q 2503 -91 2169 -91 
Q 1331 -91 842 396 
Q 353 884 353 1716 
Q 353 2575 817 3079 
Q 1281 3584 2069 3584 
Q 2775 3584 3186 3129 
Q 3597 2675 3597 1894 
z
M 3022 2063 
Q 3016 2534 2758 2815 
Q 2500 3097 2075 3097 
Q 1594 3097 1305 2825 
Q 1016 2553 972 2059 
L 3022 2063 
z
" transform="scale(0.015625)"/>
      </defs>
      <use xlink:href="#DejaVuSans-42"/>
      <use xlink:href="#DejaVuSans-4f" x="66.853516"/>
      <use xlink:href="#DejaVuSans-4c" x="145.564453"/>
      <use xlink:href="#DejaVuSans-44" x="201.277344"/>
      <use xlink:href="#DejaVuSans-20" x="278.279297"/>
      <use xlink:href="#DejaVuSans-25" x="310.066406"/>
      <use xlink:href="#DejaVuSans-20" x="405.085938"/>
      <use xlink:href="#DejaVuSans-63" x="436.873047"/>
      <use xlink:href="#DejaVuSans-68" x="491.853516"/>
      <use xlink:href="#DejaVuSans-61" x="555.232422"/>
      <use xlink:href="#DejaVuSans-6e" x="616.511719"/>
      <use xlink:href="#DejaVuSans-67" x="679.890625"/>
      <use xlink:href="#DejaVuSans-65" x="743.367188"/>
     </g>
    </g>
   </g>
   <g id="line2d_16">
    <path d="M 86.4 143.47918 
L 94.628571 145.130493 
L 102.857143 146.288129 
L 111.085714 147.365873 
L 119.314286 145.004747 
L 127.542857 136.827196 
L 135.771429 127.118888 
L 144 122.838585 
L 152.228571 118.216725 
L 160.457143 118.31442 
L 168.685714 121.780136 
L 176.914286 122.308516 
L 185.142857 121.357586 
L 193.371429 124.665619 
L 201.6 124.063354 
L 209.828571 122.957547 
L 218.057143 122.338786 
L 226.285714 124.463406 
L 234.514286 126.191953 
L 242.742857 128.513786 
L 250.971429 131.056589 
L 259.2 132.793916 
L 267.428571 134.263207 
L 275.657143 136.340946 
L 283.885714 137.599066 
L 292.114286 138.999945 
L 300.342857 143.078954 
L 308.571429 145.831758 
L 316.8 146.87562 
L 325.028571 147.879545 
L 333.257143 149.308651 
L 341.485714 151.595033 
L 349.714286 152.990205 
L 357.942857 152.930096 
L 366.171429 151.599149 
L 374.4 150.421006 
L 382.628571 147.608822 
L 390.857143 146.785331 
L 399.085714 149.058734 
L 407.314286 149.985122 
L 415.542857 149.128992 
L 423.771429 148.243231 
L 432 148.452501 
L 440.228571 152.209193 
L 448.457143 156.045035 
L 456.685714 159.048326 
L 464.914286 162.010612 
L 473.142857 165.938784 
L 481.371429 165.380375 
L 489.6 165.260323 
" clip-path="url(#p382760f353)" style="fill: none; stroke: #1aff00; stroke-width: 1.5; stroke-linecap: square"/>
   </g>
   <g id="line2d_17">
    <path d="M 86.4 77.011385 
L 94.628571 74.8504 
L 102.857143 80.950212 
L 111.085714 82.315352 
L 119.314286 76.099811 
L 127.542857 64.414927 
L 135.771429 61.989939 
L 144 62.235138 
L 152.228571 77.827022 
L 160.457143 88.115295 
L 168.685714 91.676665 
L 176.914286 100.445864 
L 185.142857 105.791361 
L 193.371429 101.579977 
L 201.6 93.667896 
L 209.828571 92.066996 
L 218.057143 89.488949 
L 226.285714 87.927258 
L 234.514286 87.799552 
L 242.742857 85.489711 
L 250.971429 83.319213 
L 259.2 80.390368 
L 267.428571 82.450359 
L 275.657143 84.56495 
L 283.885714 86.016421 
L 292.114286 87.410147 
L 300.342857 92.051248 
L 308.571429 94.871737 
L 316.8 107.701482 
L 325.028571 120.754316 
L 333.257143 127.452094 
L 341.485714 123.627553 
L 349.714286 122.130557 
L 357.942857 120.299037 
L 366.171429 121.697162 
L 374.4 122.023225 
L 382.628571 121.938345 
L 390.857143 130.52025 
L 399.085714 143.548667 
L 407.314286 142.235175 
L 415.542857 131.554893 
L 423.771429 119.85925 
L 432 113.769459 
L 440.228571 110.190376 
L 448.457143 104.204512 
L 456.685714 94.93958 
L 464.914286 96.097179 
L 473.142857 89.736057 
L 481.371429 76.007825 
L 489.6 64.309115 
" clip-path="url(#p382760f353)" style="fill: none; stroke: #1aff00; stroke-opacity: 0.2; stroke-width: 1.5; stroke-linecap: square"/>
   </g>
   <g id="line2d_18">
    <path d="M 86.4 157.136666 
L 94.628571 157.136666 
L 102.857143 145.150345 
L 111.085714 127.798107 
L 119.314286 125.97285 
L 127.542857 128.274379 
L 135.771429 133.890822 
L 144 142.466682 
L 152.228571 147.975275 
L 160.457143 153.062535 
L 168.685714 154.803174 
L 176.914286 149.496423 
L 185.142857 142.323984 
L 193.371429 141.580936 
L 201.6 141.352654 
L 209.828571 141.118856 
L 218.057143 142.655398 
L 226.285714 149.35986 
L 234.514286 153.155036 
L 242.742857 160.528664 
L 250.971429 164.193961 
L 259.2 172.770863 
L 267.428571 177.212143 
L 275.657143 179.731409 
L 283.885714 181.549667 
L 292.114286 183.114839 
L 300.342857 181.958838 
L 308.571429 182.302684 
L 316.8 178.165634 
L 325.028571 171.429158 
L 333.257143 168.672154 
L 341.485714 164.664157 
L 349.714286 161.63507 
L 357.942857 161.543702 
L 366.171429 163.582579 
L 374.4 164.441369 
L 382.628571 162.35678 
L 390.857143 163.90477 
L 399.085714 165.522594 
L 407.314286 169.604433 
L 415.542857 171.663787 
L 423.771429 166.927712 
L 432 160.690734 
L 440.228571 162.964538 
L 448.457143 167.208709 
L 456.685714 171.441249 
L 464.914286 176.106693 
L 473.142857 176.330329 
L 481.371429 173.031606 
L 489.6 169.851404 
" clip-path="url(#p382760f353)" style="fill: none; stroke: #1aff00; stroke-opacity: 0.2; stroke-width: 1.5; stroke-linecap: square"/>
   </g>
   <g id="line2d_19">
    <path d="M 86.4 80.273301 
L 94.628571 82.366911 
L 102.857143 82.52092 
L 111.085714 84.27481 
L 119.314286 96.019437 
L 127.542857 106.030086 
L 135.771429 111.621194 
L 144 116.714628 
L 152.228571 121.561589 
L 160.457143 127.540791 
L 168.685714 131.531097 
L 176.914286 128.257106 
L 185.142857 118.19215 
L 193.371429 112.010254 
L 201.6 108.445609 
L 209.828571 103.071602 
L 218.057143 96.901598 
L 226.285714 90.126951 
L 234.514286 85.689083 
L 242.742857 83.551152 
L 250.971429 83.541649 
L 259.2 81.478647 
L 267.428571 83.514793 
L 275.657143 85.363678 
L 283.885714 85.698502 
L 292.114286 85.173277 
L 300.342857 80.97762 
L 308.571429 85.498605 
L 316.8 91.200617 
L 325.028571 91.602342 
L 333.257143 94.548349 
L 341.485714 96.18404 
L 349.714286 98.577935 
L 357.942857 96.470275 
L 366.171429 93.5649 
L 374.4 89.520909 
L 382.628571 87.428938 
L 390.857143 84.822549 
L 399.085714 85.36551 
L 407.314286 84.034015 
L 415.542857 81.940389 
L 423.771429 81.275714 
L 432 84.735506 
L 440.228571 98.041097 
L 448.457143 108.833069 
L 456.685714 115.645365 
L 464.914286 124.306937 
L 473.142857 133.557919 
L 481.371429 132.584068 
L 489.6 126.937287 
" clip-path="url(#p382760f353)" style="fill: none; stroke: #1aff00; stroke-opacity: 0.2; stroke-width: 1.5; stroke-linecap: square"/>
   </g>
   <g id="line2d_20">
    <path d="M 86.4 89.985911 
L 94.628571 89.985911 
L 102.857143 91.215141 
L 111.085714 95.777151 
L 119.314286 100.493059 
L 127.542857 108.057336 
L 135.771429 116.795532 
L 144 123.872103 
L 152.228571 125.658892 
L 160.457143 131.677123 
L 168.685714 135.555611 
L 176.914286 140.704799 
L 185.142857 146.065029 
L 193.371429 149.936343 
L 201.6 151.35594 
L 209.828571 153.065874 
L 218.057143 153.57441 
L 226.285714 155.458594 
L 234.514286 152.998841 
L 242.742857 151.311304 
L 250.971429 151.375151 
L 259.2 147.759652 
L 267.428571 148.261448 
L 275.657143 153.130189 
L 283.885714 156.196808 
L 292.114286 160.000243 
L 300.342857 165.548469 
L 308.571429 173.299618 
L 316.8 179.29086 
L 325.028571 181.366618 
L 333.257143 182.941998 
L 341.485714 188.034401 
L 349.714286 191.38556 
L 357.942857 190.98112 
L 366.171429 190.386887 
L 374.4 189.29453 
L 382.628571 186.294517 
L 390.857143 183.34516 
L 399.085714 182.546888 
L 407.314286 184.306833 
L 415.542857 184.461264 
L 423.771429 186.959034 
L 432 187.626479 
L 440.228571 190.245081 
L 448.457143 195.240484 
L 456.685714 191.086997 
L 464.914286 185.102597 
L 473.142857 180.96967 
L 481.371429 178.911402 
L 489.6 177.013221 
" clip-path="url(#p382760f353)" style="fill: none; stroke: #1aff00; stroke-opacity: 0.2; stroke-width: 1.5; stroke-linecap: square"/>
   </g>
   <g id="line2d_21">
    <path d="M 86.4 71.871281 
L 94.628571 73.395355 
L 102.857143 108.106879 
L 111.085714 123.972143 
L 119.314286 103.69854 
L 127.542857 69.703102 
L 135.771429 44.088326 
L 144 40.2472 
L 152.228571 52.35422 
L 160.457143 58.831507 
L 168.685714 61.20402 
L 176.914286 64.118146 
L 185.142857 70.285399 
L 193.371429 94.780127 
L 201.6 109.318461 
L 209.828571 118.173122 
L 218.057143 114.628715 
L 226.285714 108.130651 
L 234.514286 95.076646 
L 242.742857 87.706118 
L 250.971429 79.207955 
L 259.2 82.065759 
L 267.428571 87.790654 
L 275.657143 91.8216 
L 283.885714 93.630872 
L 292.114286 91.658325 
L 300.342857 97.288562 
L 308.571429 101.1691 
L 316.8 111.658723 
L 325.028571 119.529463 
L 333.257143 125.806039 
L 341.485714 127.203358 
L 349.714286 134.683402 
L 357.942857 140.303916 
L 366.171429 136.603548 
L 374.4 138.772503 
L 382.628571 138.213123 
L 390.857143 147.780385 
L 399.085714 161.603518 
L 407.314286 170.43375 
L 415.542857 167.162081 
L 423.771429 164.946707 
L 432 171.48784 
L 440.228571 176.929692 
L 448.457143 185.209894 
L 456.685714 193.642367 
L 464.914286 204.346806 
L 473.142857 209.33825 
L 481.371429 214.531353 
L 489.6 223.784569 
" clip-path="url(#p382760f353)" style="fill: none; stroke: #1aff00; stroke-opacity: 0.2; stroke-width: 1.5; stroke-linecap: square"/>
   </g>
   <g id="line2d_22">
    <path d="M 86.4 218.798363 
L 94.628571 229.300866 
L 102.857143 246.50627 
L 111.085714 257.344339 
L 119.314286 263.319246 
L 127.542857 238.449931 
L 135.771429 195.991065 
L 144 164.834143 
L 152.228571 114.913538 
L 160.457143 97.163059 
L 168.685714 113.168779 
L 176.914286 108.234561 
L 185.142857 106.092763 
L 193.371429 121.32189 
L 201.6 126.011741 
L 209.828571 125.332902 
L 218.057143 115.775969 
L 226.285714 102.561809 
L 234.514286 97.842879 
L 242.742857 107.214889 
L 250.971429 117.428015 
L 259.2 128.96095 
L 267.428571 134.824485 
L 275.657143 131.555887 
L 283.885714 120.648485 
L 292.114286 111.756252 
L 300.342857 117.772907 
L 308.571429 128.347808 
L 316.8 132.144175 
L 325.028571 143.875951 
L 333.257143 153.767751 
L 341.485714 168.994789 
L 349.714286 180.50412 
L 357.942857 184.105524 
L 366.171429 182.165411 
L 374.4 186.62955 
L 382.628571 191.454576 
L 390.857143 192.778819 
L 399.085714 195.206144 
L 407.314286 192.513372 
L 415.542857 183.7454 
L 423.771429 168.972841 
L 432 156.669451 
L 440.228571 157.316295 
L 448.457143 161.017426 
L 456.685714 165.383727 
L 464.914286 171.216587 
L 473.142857 183.434856 
L 481.371429 192.217889 
L 489.6 205.152697 
" clip-path="url(#p382760f353)" style="fill: none; stroke: #1aff00; stroke-opacity: 0.2; stroke-width: 1.5; stroke-linecap: square"/>
   </g>
   <g id="line2d_23">
    <path d="M 86.4 173.023782 
L 94.628571 172.401317 
L 102.857143 165.095631 
L 111.085714 155.997214 
L 119.314286 148.096495 
L 127.542857 125.099944 
L 135.771429 110.846758 
L 144 111.398406 
L 152.228571 113.970382 
L 160.457143 114.367228 
L 168.685714 122.497142 
L 176.914286 126.581098 
L 185.142857 130.012917 
L 193.371429 133.853463 
L 201.6 131.178569 
L 209.828571 130.119739 
L 218.057143 132.356074 
L 226.285714 139.486579 
L 234.514286 146.212792 
L 242.742857 152.313904 
L 250.971429 156.865041 
L 259.2 163.491009 
L 267.428571 168.767561 
L 275.657143 171.86556 
L 283.885714 173.873167 
L 292.114286 180.125147 
L 300.342857 190.229275 
L 308.571429 196.670766 
L 316.8 198.210075 
L 325.028571 200.618623 
L 333.257143 200.713441 
L 341.485714 201.861039 
L 349.714286 203.399236 
L 357.942857 204.418648 
L 366.171429 204.046045 
L 374.4 205.792269 
L 382.628571 204.458679 
L 390.857143 204.190214 
L 399.085714 213.053128 
L 407.314286 217.73207 
L 415.542857 218.782473 
L 423.771429 221.906282 
L 432 225.041261 
L 440.228571 235.459281 
L 448.457143 241.782933 
L 456.685714 249.664943 
L 464.914286 247.872754 
L 473.142857 248.924475 
L 481.371429 243.6248 
L 489.6 245.075027 
" clip-path="url(#p382760f353)" style="fill: none; stroke: #1aff00; stroke-opacity: 0.2; stroke-width: 1.5; stroke-linecap: square"/>
   </g>
   <g id="line2d_24">
    <path d="M 86.4 148.335713 
L 94.628571 141.821169 
L 102.857143 125.465399 
L 111.085714 129.575475 
L 119.314286 131.286113 
L 127.542857 141.701866 
L 135.771429 141.592639 
L 144 140.538395 
L 152.228571 135.195914 
L 160.457143 139.06942 
L 168.685714 141.164634 
L 176.914286 140.209014 
L 185.142857 139.715769 
L 193.371429 154.643264 
L 201.6 157.385203 
L 209.828571 158.535466 
L 218.057143 167.319472 
L 226.285714 176.693749 
L 234.514286 177.05142 
L 242.742857 177.286939 
L 250.971429 179.548073 
L 259.2 175.241534 
L 267.428571 170.160626 
L 275.657143 171.418283 
L 283.885714 176.923451 
L 292.114286 180.945944 
L 300.342857 182.919592 
L 308.571429 181.748352 
L 316.8 181.34738 
L 325.028571 178.218043 
L 333.257143 177.353862 
L 341.485714 178.659285 
L 349.714286 177.824543 
L 357.942857 181.118809 
L 366.171429 180.329955 
L 374.4 178.995959 
L 382.628571 183.655127 
L 390.857143 185.707179 
L 399.085714 182.87014 
L 407.314286 178.764115 
L 415.542857 178.002281 
L 423.771429 180.351567 
L 432 177.045834 
L 440.228571 172.269833 
L 448.457143 169.559185 
L 456.685714 174.599122 
L 464.914286 180.742885 
L 473.142857 185.199518 
L 481.371429 186.173755 
L 489.6 188.568713 
" clip-path="url(#p382760f353)" style="fill: none; stroke: #1aff00; stroke-opacity: 0.2; stroke-width: 1.5; stroke-linecap: square"/>
   </g>
   <g id="line2d_25">
    <path d="M 86.4 221.426808 
L 94.628571 219.216934 
L 102.857143 215.023101 
L 111.085714 207.677305 
L 119.314286 201.16534 
L 127.542857 195.259903 
L 135.771429 186.021086 
L 144 176.504471 
L 152.228571 170.811245 
L 160.457143 166.433766 
L 168.685714 162.346224 
L 176.914286 156.733698 
L 185.142857 145.132231 
L 193.371429 137.937185 
L 201.6 132.005884 
L 209.828571 132.178901 
L 218.057143 138.075078 
L 226.285714 143.306451 
L 234.514286 149.016477 
L 242.742857 154.094005 
L 250.971429 157.348405 
L 259.2 162.666939 
L 267.428571 168.785393 
L 275.657143 175.77414 
L 283.885714 178.89536 
L 292.114286 182.915965 
L 300.342857 187.129289 
L 308.571429 186.341512 
L 316.8 185.974759 
L 325.028571 186.565584 
L 333.257143 183.560535 
L 341.485714 179.331009 
L 349.714286 178.048549 
L 357.942857 174.936314 
L 366.171429 169.970397 
L 374.4 163.452971 
L 382.628571 155.176756 
L 390.857143 148.628624 
L 399.085714 143.756175 
L 407.314286 144.554829 
L 415.542857 143.604175 
L 423.771429 142.041009 
L 432 143.857836 
L 440.228571 143.922593 
L 448.457143 146.832475 
L 456.685714 146.535068 
L 464.914286 142.079075 
L 473.142857 139.601452 
L 481.371429 136.272635 
L 489.6 134.826376 
" clip-path="url(#p382760f353)" style="fill: none; stroke: #1aff00; stroke-opacity: 0.2; stroke-width: 1.5; stroke-linecap: square"/>
   </g>
   <g id="line2d_26">
    <path d="M 86.4 181.419965 
L 94.628571 190.73804 
L 102.857143 190.015079 
L 111.085714 210.194543 
L 119.314286 206.512465 
L 127.542857 196.099853 
L 135.771429 177.764954 
L 144 163.147778 
L 152.228571 135.556925 
L 160.457143 118.574116 
L 168.685714 132.368852 
L 176.914286 153.26267 
L 185.142857 159.108371 
L 193.371429 155.824106 
L 201.6 143.174649 
L 209.828571 122.484591 
L 218.057143 112.799663 
L 226.285714 121.607944 
L 234.514286 130.238095 
L 242.742857 124.595595 
L 250.971429 122.389897 
L 259.2 108.199828 
L 267.428571 95.296723 
L 275.657143 89.975337 
L 283.885714 95.666257 
L 292.114286 103.20837 
L 300.342857 120.085848 
L 308.571429 125.642996 
L 316.8 108.708511 
L 325.028571 93.459242 
L 333.257143 94.420285 
L 341.485714 110.911349 
L 349.714286 112.250332 
L 357.942857 109.67076 
L 366.171429 109.993308 
L 374.4 100.301012 
L 382.628571 75.94931 
L 390.857143 63.307229 
L 399.085714 54.082805 
L 407.314286 45.208044 
L 415.542857 42.272053 
L 423.771429 48.303673 
L 432 54.218755 
L 440.228571 69.018433 
L 448.457143 79.271481 
L 456.685714 82.875922 
L 464.914286 83.610294 
L 473.142857 99.283963 
L 481.371429 112.599539 
L 489.6 117.363843 
" clip-path="url(#p382760f353)" style="fill: none; stroke: #1aff00; stroke-opacity: 0.2; stroke-width: 1.5; stroke-linecap: square"/>
   </g>
   <g id="line2d_27">
    <path d="M 86.4 158.987799 
L 94.628571 165.221852 
L 102.857143 159.12044 
L 111.085714 146.098163 
L 119.314286 142.38886 
L 127.542857 132.007831 
L 135.771429 117.705458 
L 144 109.265493 
L 152.228571 104.558972 
L 160.457143 106.623775 
L 168.685714 93.265304 
L 176.914286 77.350299 
L 185.142857 72.213467 
L 193.371429 67.854266 
L 201.6 70.800284 
L 209.828571 76.38497 
L 218.057143 82.151319 
L 226.285714 94.43762 
L 234.514286 113.030666 
L 242.742857 129.559361 
L 250.971429 146.40512 
L 259.2 157.707531 
L 267.428571 159.831096 
L 275.657143 164.549371 
L 283.885714 164.49073 
L 292.114286 162.690891 
L 300.342857 157.906842 
L 308.571429 148.256161 
L 316.8 141.229611 
L 325.028571 139.255658 
L 333.257143 133.158652 
L 341.485714 128.074386 
L 349.714286 122.452946 
L 357.942857 118.382951 
L 366.171429 115.250443 
L 374.4 115.406764 
L 382.628571 116.770887 
L 390.857143 109.653461 
L 399.085714 112.090499 
L 407.314286 120.449701 
L 415.542857 137.230114 
L 423.771429 149.131749 
L 432 157.834354 
L 440.228571 157.943906 
L 448.457143 157.335211 
L 456.685714 163.717246 
L 464.914286 170.634931 
L 473.142857 178.950131 
L 481.371429 173.229253 
L 489.6 164.981297 
" clip-path="url(#p382760f353)" style="fill: none; stroke: #1aff00; stroke-opacity: 0.2; stroke-width: 1.5; stroke-linecap: square"/>
   </g>
   <g id="line2d_28">
    <path d="M 167.04 241.92 
L 167.04 40.32 
" clip-path="url(#p382760f353)" style="fill: none; stroke-dasharray: 5.55,2.4; stroke-dashoffset: 0; stroke: #000000; stroke-width: 1.5"/>
   </g>
   <g id="line2d_29">
    <path d="M 86.4 141.12 
L 489.6 141.12 
" clip-path="url(#p382760f353)" style="fill: none; stroke-dasharray: 5.55,2.4; stroke-dashoffset: 0; stroke: #000000; stroke-width: 1.5"/>
   </g>
   <g id="patch_3">
    <path d="M 82.4 241.92 
L 82.4 40.32 
" style="fill: none; stroke: #000000; stroke-width: 0.8; stroke-linejoin: miter; stroke-linecap: square"/>
   </g>
   <g id="patch_4">
    <path d="M 86.4 245.92 
L 489.6 245.92 
" style="fill: none; stroke: #000000; stroke-width: 0.8; stroke-linejoin: miter; stroke-linecap: square"/>
   </g>
   <g id="text_11">
    <!-- all depths -->
    <g transform="translate(268.328125 34.32) scale(0.08 -0.08)">
     <defs>
      <path id="DejaVuSans-6c" d="M 603 4863 
L 1178 4863 
L 1178 0 
L 603 0 
L 603 4863 
z
" transform="scale(0.015625)"/>
      <path id="DejaVuSans-64" d="M 2906 2969 
L 2906 4863 
L 3481 4863 
L 3481 0 
L 2906 0 
L 2906 525 
Q 2725 213 2448 61 
Q 2172 -91 1784 -91 
Q 1150 -91 751 415 
Q 353 922 353 1747 
Q 353 2572 751 3078 
Q 1150 3584 1784 3584 
Q 2172 3584 2448 3432 
Q 2725 3281 2906 2969 
z
M 947 1747 
Q 947 1113 1208 752 
Q 1469 391 1925 391 
Q 2381 391 2643 752 
Q 2906 1113 2906 1747 
Q 2906 2381 2643 2742 
Q 2381 3103 1925 3103 
Q 1469 3103 1208 2742 
Q 947 2381 947 1747 
z
" transform="scale(0.015625)"/>
      <path id="DejaVuSans-70" d="M 1159 525 
L 1159 -1331 
L 581 -1331 
L 581 3500 
L 1159 3500 
L 1159 2969 
Q 1341 3281 1617 3432 
Q 1894 3584 2278 3584 
Q 2916 3584 3314 3078 
Q 3713 2572 3713 1747 
Q 3713 922 3314 415 
Q 2916 -91 2278 -91 
Q 1894 -91 1617 61 
Q 1341 213 1159 525 
z
M 3116 1747 
Q 3116 2381 2855 2742 
Q 2594 3103 2138 3103 
Q 1681 3103 1420 2742 
Q 1159 2381 1159 1747 
Q 1159 1113 1420 752 
Q 1681 391 2138 391 
Q 2594 391 2855 752 
Q 3116 1113 3116 1747 
z
" transform="scale(0.015625)"/>
      <path id="DejaVuSans-74" d="M 1172 4494 
L 1172 3500 
L 2356 3500 
L 2356 3053 
L 1172 3053 
L 1172 1153 
Q 1172 725 1289 603 
Q 1406 481 1766 481 
L 2356 481 
L 2356 0 
L 1766 0 
Q 1100 0 847 248 
Q 594 497 594 1153 
L 594 3053 
L 172 3053 
L 172 3500 
L 594 3500 
L 594 4494 
L 1172 4494 
z
" transform="scale(0.015625)"/>
      <path id="DejaVuSans-73" d="M 2834 3397 
L 2834 2853 
Q 2591 2978 2328 3040 
Q 2066 3103 1784 3103 
Q 1356 3103 1142 2972 
Q 928 2841 928 2578 
Q 928 2378 1081 2264 
Q 1234 2150 1697 2047 
L 1894 2003 
Q 2506 1872 2764 1633 
Q 3022 1394 3022 966 
Q 3022 478 2636 193 
Q 2250 -91 1575 -91 
Q 1294 -91 989 -36 
Q 684 19 347 128 
L 347 722 
Q 666 556 975 473 
Q 1284 391 1588 391 
Q 1994 391 2212 530 
Q 2431 669 2431 922 
Q 2431 1156 2273 1281 
Q 2116 1406 1581 1522 
L 1381 1569 
Q 847 1681 609 1914 
Q 372 2147 372 2553 
Q 372 3047 722 3315 
Q 1072 3584 1716 3584 
Q 2034 3584 2315 3537 
Q 2597 3491 2834 3397 
z
" transform="scale(0.015625)"/>
     </defs>
     <use xlink:href="#DejaVuSans-61"/>
     <use xlink:href="#DejaVuSans-6c" x="61.279297"/>
     <use xlink:href="#DejaVuSans-6c" x="89.0625"/>
     <use xlink:href="#DejaVuSans-20" x="116.845703"/>
     <use xlink:href="#DejaVuSans-64" x="148.632812"/>
     <use xlink:href="#DejaVuSans-65" x="212.109375"/>
     <use xlink:href="#DejaVuSans-70" x="273.632812"/>
     <use xlink:href="#DejaVuSans-74" x="337.109375"/>
     <use xlink:href="#DejaVuSans-68" x="376.318359"/>
     <use xlink:href="#DejaVuSans-73" x="439.697266"/>
    </g>
   </g>
   <g id="legend_1">
    <g id="patch_5">
     <path d="M 218.703125 236.92 
L 357.296875 236.92 
Q 359.296875 236.92 359.296875 234.92 
L 359.296875 220.96375 
Q 359.296875 218.96375 357.296875 218.96375 
L 218.703125 218.96375 
Q 216.703125 218.96375 216.703125 220.96375 
L 216.703125 234.92 
Q 216.703125 236.92 218.703125 236.92 
z
" style="fill: #ffffff; opacity: 0.8; stroke: #cccccc; stroke-linejoin: miter"/>
    </g>
    <g id="line2d_30">
     <path d="M 220.703125 227.062187 
L 230.703125 227.062187 
L 240.703125 227.062187 
" style="fill: none; stroke: #1aff00; stroke-width: 1.5; stroke-linecap: square"/>
    </g>
    <g id="text_12">
     <!-- odss_gPPI_middle_V1 -->
     <g transform="translate(248.703125 230.562187) scale(0.1 -0.1)">
      <defs>
       <path id="DejaVuSans-6f" d="M 1959 3097 
Q 1497 3097 1228 2736 
Q 959 2375 959 1747 
Q 959 1119 1226 758 
Q 1494 397 1959 397 
Q 2419 397 2687 759 
Q 2956 1122 2956 1747 
Q 2956 2369 2687 2733 
Q 2419 3097 1959 3097 
z
M 1959 3584 
Q 2709 3584 3137 3096 
Q 3566 2609 3566 1747 
Q 3566 888 3137 398 
Q 2709 -91 1959 -91 
Q 1206 -91 779 398 
Q 353 888 353 1747 
Q 353 2609 779 3096 
Q 1206 3584 1959 3584 
z
" transform="scale(0.015625)"/>
       <path id="DejaVuSans-5f" d="M 3263 -1063 
L 3263 -1509 
L -63 -1509 
L -63 -1063 
L 3263 -1063 
z
" transform="scale(0.015625)"/>
       <path id="DejaVuSans-50" d="M 1259 4147 
L 1259 2394 
L 2053 2394 
Q 2494 2394 2734 2622 
Q 2975 2850 2975 3272 
Q 2975 3691 2734 3919 
Q 2494 4147 2053 4147 
L 1259 4147 
z
M 628 4666 
L 2053 4666 
Q 2838 4666 3239 4311 
Q 3641 3956 3641 3272 
Q 3641 2581 3239 2228 
Q 2838 1875 2053 1875 
L 1259 1875 
L 1259 0 
L 628 0 
L 628 4666 
z
" transform="scale(0.015625)"/>
       <path id="DejaVuSans-49" d="M 628 4666 
L 1259 4666 
L 1259 0 
L 628 0 
L 628 4666 
z
" transform="scale(0.015625)"/>
       <path id="DejaVuSans-6d" d="M 3328 2828 
Q 3544 3216 3844 3400 
Q 4144 3584 4550 3584 
Q 5097 3584 5394 3201 
Q 5691 2819 5691 2113 
L 5691 0 
L 5113 0 
L 5113 2094 
Q 5113 2597 4934 2840 
Q 4756 3084 4391 3084 
Q 3944 3084 3684 2787 
Q 3425 2491 3425 1978 
L 3425 0 
L 2847 0 
L 2847 2094 
Q 2847 2600 2669 2842 
Q 2491 3084 2119 3084 
Q 1678 3084 1418 2786 
Q 1159 2488 1159 1978 
L 1159 0 
L 581 0 
L 581 3500 
L 1159 3500 
L 1159 2956 
Q 1356 3278 1631 3431 
Q 1906 3584 2284 3584 
Q 2666 3584 2933 3390 
Q 3200 3197 3328 2828 
z
" transform="scale(0.015625)"/>
       <path id="DejaVuSans-69" d="M 603 3500 
L 1178 3500 
L 1178 0 
L 603 0 
L 603 3500 
z
M 603 4863 
L 1178 4863 
L 1178 4134 
L 603 4134 
L 603 4863 
z
" transform="scale(0.015625)"/>
       <path id="DejaVuSans-56" d="M 1831 0 
L 50 4666 
L 709 4666 
L 2188 738 
L 3669 4666 
L 4325 4666 
L 2547 0 
L 1831 0 
z
" transform="scale(0.015625)"/>
      </defs>
      <use xlink:href="#DejaVuSans-6f"/>
      <use xlink:href="#DejaVuSans-64" x="61.181641"/>
      <use xlink:href="#DejaVuSans-73" x="124.658203"/>
      <use xlink:href="#DejaVuSans-73" x="176.757812"/>
      <use xlink:href="#DejaVuSans-5f" x="228.857422"/>
      <use xlink:href="#DejaVuSans-67" x="278.857422"/>
      <use xlink:href="#DejaVuSans-50" x="342.333984"/>
      <use xlink:href="#DejaVuSans-50" x="402.636719"/>
      <use xlink:href="#DejaVuSans-49" x="462.939453"/>
      <use xlink:href="#DejaVuSans-5f" x="492.431641"/>
      <use xlink:href="#DejaVuSans-6d" x="542.431641"/>
      <use xlink:href="#DejaVuSans-69" x="639.84375"/>
      <use xlink:href="#DejaVuSans-64" x="667.626953"/>
      <use xlink:href="#DejaVuSans-64" x="731.103516"/>
      <use xlink:href="#DejaVuSans-6c" x="794.580078"/>
      <use xlink:href="#DejaVuSans-65" x="822.363281"/>
      <use xlink:href="#DejaVuSans-5f" x="883.886719"/>
      <use xlink:href="#DejaVuSans-56" x="933.886719"/>
      <use xlink:href="#DejaVuSans-31" x="1002.294922"/>
     </g>
    </g>
   </g>
  </g>
  <g id="axes_2">
   <g id="patch_6">
    <path d="M 86.4 443.52 
L 489.6 443.52 
L 489.6 292.32 
L 86.4 292.32 
z
" style="fill: #ffffff"/>
   </g>
   <g id="patch_7">
    <path d="M 90.432 367.92 
L 163.008 367.92 
L 163.008 413.669952 
L 90.432 413.669952 
z
" clip-path="url(#pb8afa56896)" style="fill: #1aff00; opacity: 0.6"/>
   </g>
   <g id="patch_8">
    <path d="M 171.072 367.92 
L 243.648 367.92 
L 243.648 328.837142 
L 171.072 328.837142 
z
" clip-path="url(#pb8afa56896)" style="fill: #1aff00; opacity: 0.6"/>
   </g>
   <g id="patch_9">
    <path d="M 251.712 367.92 
L 324.288 367.92 
L 324.288 361.038762 
L 251.712 361.038762 
z
" clip-path="url(#pb8afa56896)" style="fill: #1aff00; opacity: 0.6"/>
   </g>
   <g id="patch_10">
    <path d="M 332.352 367.92 
L 404.928 367.92 
L 404.928 380.107669 
L 332.352 380.107669 
z
" clip-path="url(#pb8afa56896)" style="fill: #1aff00; opacity: 0.6"/>
   </g>
   <g id="patch_11">
    <path d="M 412.992 367.92 
L 485.568 367.92 
L 485.568 390.875667 
L 412.992 390.875667 
z
" clip-path="url(#pb8afa56896)" style="fill: #1aff00; opacity: 0.6"/>
   </g>
   <g id="matplotlib.axis_3">
    <g id="xtick_7">
     <g id="line2d_31">
      <g>
       <use xlink:href="#mfa47d85c6a" x="86.4" y="447.52" style="stroke: #000000; stroke-width: 0.8"/>
      </g>
     </g>
     <g id="text_13">
      <!-- 0 -->
      <g transform="translate(83.21875 462.118438) scale(0.1 -0.1)">
       <use xlink:href="#DejaVuSans-30"/>
      </g>
     </g>
    </g>
    <g id="xtick_8">
     <g id="line2d_32">
      <g>
       <use xlink:href="#mfa47d85c6a" x="167.04" y="447.52" style="stroke: #000000; stroke-width: 0.8"/>
      </g>
     </g>
     <g id="text_14">
      <!-- 1 -->
      <g transform="translate(163.85875 462.118438) scale(0.1 -0.1)">
       <use xlink:href="#DejaVuSans-31"/>
      </g>
     </g>
    </g>
    <g id="xtick_9">
     <g id="line2d_33">
      <g>
       <use xlink:href="#mfa47d85c6a" x="247.68" y="447.52" style="stroke: #000000; stroke-width: 0.8"/>
      </g>
     </g>
     <g id="text_15">
      <!-- 2 -->
      <g transform="translate(244.49875 462.118438) scale(0.1 -0.1)">
       <use xlink:href="#DejaVuSans-32"/>
      </g>
     </g>
    </g>
    <g id="xtick_10">
     <g id="line2d_34">
      <g>
       <use xlink:href="#mfa47d85c6a" x="328.32" y="447.52" style="stroke: #000000; stroke-width: 0.8"/>
      </g>
     </g>
     <g id="text_16">
      <!-- 3 -->
      <g transform="translate(325.13875 462.118438) scale(0.1 -0.1)">
       <defs>
        <path id="DejaVuSans-33" d="M 2597 2516 
Q 3050 2419 3304 2112 
Q 3559 1806 3559 1356 
Q 3559 666 3084 287 
Q 2609 -91 1734 -91 
Q 1441 -91 1130 -33 
Q 819 25 488 141 
L 488 750 
Q 750 597 1062 519 
Q 1375 441 1716 441 
Q 2309 441 2620 675 
Q 2931 909 2931 1356 
Q 2931 1769 2642 2001 
Q 2353 2234 1838 2234 
L 1294 2234 
L 1294 2753 
L 1863 2753 
Q 2328 2753 2575 2939 
Q 2822 3125 2822 3475 
Q 2822 3834 2567 4026 
Q 2313 4219 1838 4219 
Q 1578 4219 1281 4162 
Q 984 4106 628 3988 
L 628 4550 
Q 988 4650 1302 4700 
Q 1616 4750 1894 4750 
Q 2613 4750 3031 4423 
Q 3450 4097 3450 3541 
Q 3450 3153 3228 2886 
Q 3006 2619 2597 2516 
z
" transform="scale(0.015625)"/>
       </defs>
       <use xlink:href="#DejaVuSans-33"/>
      </g>
     </g>
    </g>
    <g id="xtick_11">
     <g id="line2d_35">
      <g>
       <use xlink:href="#mfa47d85c6a" x="408.96" y="447.52" style="stroke: #000000; stroke-width: 0.8"/>
      </g>
     </g>
     <g id="text_17">
      <!-- 4 -->
      <g transform="translate(405.77875 462.118438) scale(0.1 -0.1)">
       <defs>
        <path id="DejaVuSans-34" d="M 2419 4116 
L 825 1625 
L 2419 1625 
L 2419 4116 
z
M 2253 4666 
L 3047 4666 
L 3047 1625 
L 3713 1625 
L 3713 1100 
L 3047 1100 
L 3047 0 
L 2419 0 
L 2419 1100 
L 313 1100 
L 313 1709 
L 2253 4666 
z
" transform="scale(0.015625)"/>
       </defs>
       <use xlink:href="#DejaVuSans-34"/>
      </g>
     </g>
    </g>
    <g id="xtick_12">
     <g id="line2d_36">
      <g>
       <use xlink:href="#mfa47d85c6a" x="489.6" y="447.52" style="stroke: #000000; stroke-width: 0.8"/>
      </g>
     </g>
     <g id="text_18">
      <!-- 5 -->
      <g transform="translate(486.41875 462.118438) scale(0.1 -0.1)">
       <use xlink:href="#DejaVuSans-35"/>
      </g>
     </g>
    </g>
    <g id="text_19">
     <!-- relative distance from ROI center ($\sigma$) -->
     <g transform="translate(214.48 474.276875) scale(0.08 -0.08)">
      <defs>
       <path id="DejaVuSans-72" d="M 2631 2963 
Q 2534 3019 2420 3045 
Q 2306 3072 2169 3072 
Q 1681 3072 1420 2755 
Q 1159 2438 1159 1844 
L 1159 0 
L 581 0 
L 581 3500 
L 1159 3500 
L 1159 2956 
Q 1341 3275 1631 3429 
Q 1922 3584 2338 3584 
Q 2397 3584 2469 3576 
Q 2541 3569 2628 3553 
L 2631 2963 
z
" transform="scale(0.015625)"/>
       <path id="DejaVuSans-76" d="M 191 3500 
L 800 3500 
L 1894 563 
L 2988 3500 
L 3597 3500 
L 2284 0 
L 1503 0 
L 191 3500 
z
" transform="scale(0.015625)"/>
       <path id="DejaVuSans-66" d="M 2375 4863 
L 2375 4384 
L 1825 4384 
Q 1516 4384 1395 4259 
Q 1275 4134 1275 3809 
L 1275 3500 
L 2222 3500 
L 2222 3053 
L 1275 3053 
L 1275 0 
L 697 0 
L 697 3053 
L 147 3053 
L 147 3500 
L 697 3500 
L 697 3744 
Q 697 4328 969 4595 
Q 1241 4863 1831 4863 
L 2375 4863 
z
" transform="scale(0.015625)"/>
       <path id="DejaVuSans-52" d="M 2841 2188 
Q 3044 2119 3236 1894 
Q 3428 1669 3622 1275 
L 4263 0 
L 3584 0 
L 2988 1197 
Q 2756 1666 2539 1819 
Q 2322 1972 1947 1972 
L 1259 1972 
L 1259 0 
L 628 0 
L 628 4666 
L 2053 4666 
Q 2853 4666 3247 4331 
Q 3641 3997 3641 3322 
Q 3641 2881 3436 2590 
Q 3231 2300 2841 2188 
z
M 1259 4147 
L 1259 2491 
L 2053 2491 
Q 2509 2491 2742 2702 
Q 2975 2913 2975 3322 
Q 2975 3731 2742 3939 
Q 2509 4147 2053 4147 
L 1259 4147 
z
" transform="scale(0.015625)"/>
       <path id="DejaVuSans-28" d="M 1984 4856 
Q 1566 4138 1362 3434 
Q 1159 2731 1159 2009 
Q 1159 1288 1364 580 
Q 1569 -128 1984 -844 
L 1484 -844 
Q 1016 -109 783 600 
Q 550 1309 550 2009 
Q 550 2706 781 3412 
Q 1013 4119 1484 4856 
L 1984 4856 
z
" transform="scale(0.015625)"/>
       <path id="DejaVuSans-Oblique-3c3" d="M 2219 3044 
Q 1744 3044 1422 2700 
Q 1081 2341 969 1747 
Q 844 1119 1044 756 
Q 1241 397 1706 397 
Q 2166 397 2503 759 
Q 2844 1122 2966 1747 
Q 3075 2319 2881 2700 
Q 2700 3044 2219 3044 
z
M 2309 3503 
L 4219 3500 
L 4106 2925 
L 3463 2925 
Q 3706 2438 3575 1747 
Q 3406 888 2884 400 
Q 2359 -91 1609 -91 
Q 856 -91 525 400 
Q 194 888 363 1747 
Q 528 2609 1050 3097 
Q 1484 3503 2309 3503 
z
" transform="scale(0.015625)"/>
       <path id="DejaVuSans-29" d="M 513 4856 
L 1013 4856 
Q 1481 4119 1714 3412 
Q 1947 2706 1947 2009 
Q 1947 1309 1714 600 
Q 1481 -109 1013 -844 
L 513 -844 
Q 928 -128 1133 580 
Q 1338 1288 1338 2009 
Q 1338 2731 1133 3434 
Q 928 4138 513 4856 
z
" transform="scale(0.015625)"/>
      </defs>
      <use xlink:href="#DejaVuSans-72" transform="translate(0 0.015625)"/>
      <use xlink:href="#DejaVuSans-65" transform="translate(41.113281 0.015625)"/>
      <use xlink:href="#DejaVuSans-6c" transform="translate(102.636719 0.015625)"/>
      <use xlink:href="#DejaVuSans-61" transform="translate(130.419922 0.015625)"/>
      <use xlink:href="#DejaVuSans-74" transform="translate(191.699219 0.015625)"/>
      <use xlink:href="#DejaVuSans-69" transform="translate(230.908203 0.015625)"/>
      <use xlink:href="#DejaVuSans-76" transform="translate(258.691406 0.015625)"/>
      <use xlink:href="#DejaVuSans-65" transform="translate(317.871094 0.015625)"/>
      <use xlink:href="#DejaVuSans-20" transform="translate(379.394531 0.015625)"/>
      <use xlink:href="#DejaVuSans-64" transform="translate(411.181641 0.015625)"/>
      <use xlink:href="#DejaVuSans-69" transform="translate(474.658203 0.015625)"/>
      <use xlink:href="#DejaVuSans-73" transform="translate(502.441406 0.015625)"/>
      <use xlink:href="#DejaVuSans-74" transform="translate(554.541016 0.015625)"/>
      <use xlink:href="#DejaVuSans-61" transform="translate(593.75 0.015625)"/>
      <use xlink:href="#DejaVuSans-6e" transform="translate(655.029297 0.015625)"/>
      <use xlink:href="#DejaVuSans-63" transform="translate(718.408203 0.015625)"/>
      <use xlink:href="#DejaVuSans-65" transform="translate(773.388672 0.015625)"/>
      <use xlink:href="#DejaVuSans-20" transform="translate(834.912109 0.015625)"/>
      <use xlink:href="#DejaVuSans-66" transform="translate(866.699219 0.015625)"/>
      <use xlink:href="#DejaVuSans-72" transform="translate(901.904297 0.015625)"/>
      <use xlink:href="#DejaVuSans-6f" transform="translate(943.017578 0.015625)"/>
      <use xlink:href="#DejaVuSans-6d" transform="translate(1004.199219 0.015625)"/>
      <use xlink:href="#DejaVuSans-20" transform="translate(1101.611328 0.015625)"/>
      <use xlink:href="#DejaVuSans-52" transform="translate(1133.398438 0.015625)"/>
      <use xlink:href="#DejaVuSans-4f" transform="translate(1202.880859 0.015625)"/>
      <use xlink:href="#DejaVuSans-49" transform="translate(1281.591797 0.015625)"/>
      <use xlink:href="#DejaVuSans-20" transform="translate(1311.083984 0.015625)"/>
      <use xlink:href="#DejaVuSans-63" transform="translate(1342.871094 0.015625)"/>
      <use xlink:href="#DejaVuSans-65" transform="translate(1397.851562 0.015625)"/>
      <use xlink:href="#DejaVuSans-6e" transform="translate(1459.375 0.015625)"/>
      <use xlink:href="#DejaVuSans-74" transform="translate(1522.753906 0.015625)"/>
      <use xlink:href="#DejaVuSans-65" transform="translate(1561.962891 0.015625)"/>
      <use xlink:href="#DejaVuSans-72" transform="translate(1623.486328 0.015625)"/>
      <use xlink:href="#DejaVuSans-20" transform="translate(1664.599609 0.015625)"/>
      <use xlink:href="#DejaVuSans-28" transform="translate(1696.386719 0.015625)"/>
      <use xlink:href="#DejaVuSans-Oblique-3c3" transform="translate(1735.400391 0.015625)"/>
      <use xlink:href="#DejaVuSans-29" transform="translate(1798.779297 0.015625)"/>
     </g>
    </g>
   </g>
   <g id="matplotlib.axis_4">
    <g id="ytick_10">
     <g id="line2d_37">
      <g>
       <use xlink:href="#m29778f698b" x="82.4" y="443.52" style="stroke: #000000; stroke-width: 0.8"/>
      </g>
     </g>
     <g id="text_20">
      <!-- −1.0 -->
      <g transform="translate(51.117187 447.319219) scale(0.1 -0.1)">
       <use xlink:href="#DejaVuSans-2212"/>
       <use xlink:href="#DejaVuSans-31" x="83.789062"/>
       <use xlink:href="#DejaVuSans-2e" x="147.412109"/>
       <use xlink:href="#DejaVuSans-30" x="179.199219"/>
      </g>
     </g>
    </g>
    <g id="ytick_11">
     <g id="line2d_38">
      <g>
       <use xlink:href="#m29778f698b" x="82.4" y="405.72" style="stroke: #000000; stroke-width: 0.8"/>
      </g>
     </g>
     <g id="text_21">
      <!-- −0.5 -->
      <g transform="translate(51.117187 409.519219) scale(0.1 -0.1)">
       <use xlink:href="#DejaVuSans-2212"/>
       <use xlink:href="#DejaVuSans-30" x="83.789062"/>
       <use xlink:href="#DejaVuSans-2e" x="147.412109"/>
       <use xlink:href="#DejaVuSans-35" x="179.199219"/>
      </g>
     </g>
    </g>
    <g id="ytick_12">
     <g id="line2d_39">
      <g>
       <use xlink:href="#m29778f698b" x="82.4" y="367.92" style="stroke: #000000; stroke-width: 0.8"/>
      </g>
     </g>
     <g id="text_22">
      <!-- 0.0 -->
      <g transform="translate(59.496875 371.719219) scale(0.1 -0.1)">
       <use xlink:href="#DejaVuSans-30"/>
       <use xlink:href="#DejaVuSans-2e" x="63.623047"/>
       <use xlink:href="#DejaVuSans-30" x="95.410156"/>
      </g>
     </g>
    </g>
    <g id="ytick_13">
     <g id="line2d_40">
      <g>
       <use xlink:href="#m29778f698b" x="82.4" y="330.12" style="stroke: #000000; stroke-width: 0.8"/>
      </g>
     </g>
     <g id="text_23">
      <!-- 0.5 -->
      <g transform="translate(59.496875 333.919219) scale(0.1 -0.1)">
       <use xlink:href="#DejaVuSans-30"/>
       <use xlink:href="#DejaVuSans-2e" x="63.623047"/>
       <use xlink:href="#DejaVuSans-35" x="95.410156"/>
      </g>
     </g>
    </g>
    <g id="ytick_14">
     <g id="line2d_41">
      <g>
       <use xlink:href="#m29778f698b" x="82.4" y="292.32" style="stroke: #000000; stroke-width: 0.8"/>
      </g>
     </g>
     <g id="text_24">
      <!-- 1.0 -->
      <g transform="translate(59.496875 296.119219) scale(0.1 -0.1)">
       <use xlink:href="#DejaVuSans-31"/>
       <use xlink:href="#DejaVuSans-2e" x="63.623047"/>
       <use xlink:href="#DejaVuSans-30" x="95.410156"/>
      </g>
     </g>
    </g>
    <g id="text_25">
     <!-- Binned Avg -->
     <g transform="translate(45.453437 390.525625) rotate(-90) scale(0.08 -0.08)">
      <defs>
       <path id="DejaVuSans-41" d="M 2188 4044 
L 1331 1722 
L 3047 1722 
L 2188 4044 
z
M 1831 4666 
L 2547 4666 
L 4325 0 
L 3669 0 
L 3244 1197 
L 1141 1197 
L 716 0 
L 50 0 
L 1831 4666 
z
" transform="scale(0.015625)"/>
      </defs>
      <use xlink:href="#DejaVuSans-42"/>
      <use xlink:href="#DejaVuSans-69" x="68.603516"/>
      <use xlink:href="#DejaVuSans-6e" x="96.386719"/>
      <use xlink:href="#DejaVuSans-6e" x="159.765625"/>
      <use xlink:href="#DejaVuSans-65" x="223.144531"/>
      <use xlink:href="#DejaVuSans-64" x="284.667969"/>
      <use xlink:href="#DejaVuSans-20" x="348.144531"/>
      <use xlink:href="#DejaVuSans-41" x="379.931641"/>
      <use xlink:href="#DejaVuSans-76" x="442.464844"/>
      <use xlink:href="#DejaVuSans-67" x="501.644531"/>
     </g>
    </g>
   </g>
   <g id="LineCollection_1">
    <path d="M 126.72 460.570779 
L 126.72 366.769124 
" clip-path="url(#pb8afa56896)" style="fill: none; stroke: #000000; stroke-width: 1.5"/>
    <path d="M 207.36 340.847958 
L 207.36 316.826325 
" clip-path="url(#pb8afa56896)" style="fill: none; stroke: #000000; stroke-width: 1.5"/>
    <path d="M 288 379.402184 
L 288 342.67534 
" clip-path="url(#pb8afa56896)" style="fill: none; stroke: #000000; stroke-width: 1.5"/>
    <path d="M 368.64 397.604201 
L 368.64 362.611137 
" clip-path="url(#pb8afa56896)" style="fill: none; stroke: #000000; stroke-width: 1.5"/>
    <path d="M 449.28 411.527171 
L 449.28 370.224163 
" clip-path="url(#pb8afa56896)" style="fill: none; stroke: #000000; stroke-width: 1.5"/>
   </g>
   <g id="line2d_42">
    <defs>
     <path id="mce214edbfd" d="M 5 0 
L -5 -0 
" style="stroke: #000000"/>
    </defs>
    <g clip-path="url(#pb8afa56896)">
     <use xlink:href="#mce214edbfd" x="126.72" y="460.570779" style="stroke: #000000"/>
     <use xlink:href="#mce214edbfd" x="207.36" y="340.847958" style="stroke: #000000"/>
     <use xlink:href="#mce214edbfd" x="288" y="379.402184" style="stroke: #000000"/>
     <use xlink:href="#mce214edbfd" x="368.64" y="397.604201" style="stroke: #000000"/>
     <use xlink:href="#mce214edbfd" x="449.28" y="411.527171" style="stroke: #000000"/>
    </g>
   </g>
   <g id="line2d_43">
    <g clip-path="url(#pb8afa56896)">
     <use xlink:href="#mce214edbfd" x="126.72" y="366.769124" style="stroke: #000000"/>
     <use xlink:href="#mce214edbfd" x="207.36" y="316.826325" style="stroke: #000000"/>
     <use xlink:href="#mce214edbfd" x="288" y="342.67534" style="stroke: #000000"/>
     <use xlink:href="#mce214edbfd" x="368.64" y="362.611137" style="stroke: #000000"/>
     <use xlink:href="#mce214edbfd" x="449.28" y="370.224163" style="stroke: #000000"/>
    </g>
   </g>
   <g id="line2d_44">
    <path d="M 86.4 367.92 
L 489.6 367.92 
" clip-path="url(#pb8afa56896)" style="fill: none; stroke-dasharray: 5.55,2.4; stroke-dashoffset: 0; stroke: #000000; stroke-width: 1.5"/>
   </g>
   <g id="patch_12">
    <path d="M 82.4 443.52 
L 82.4 292.32 
" style="fill: none; stroke: #000000; stroke-width: 0.8; stroke-linejoin: miter; stroke-linecap: square"/>
   </g>
   <g id="patch_13">
    <path d="M 86.4 447.52 
L 489.6 447.52 
" style="fill: none; stroke: #000000; stroke-width: 0.8; stroke-linejoin: miter; stroke-linecap: square"/>
   </g>
   <g id="text_26">
    <!-- * -->
    <g transform="translate(204.36 314.3307) scale(0.12 -0.12)">
     <defs>
      <path id="DejaVuSans-2a" d="M 3009 3897 
L 1888 3291 
L 3009 2681 
L 2828 2375 
L 1778 3009 
L 1778 1831 
L 1422 1831 
L 1422 3009 
L 372 2375 
L 191 2681 
L 1313 3291 
L 191 3897 
L 372 4206 
L 1422 3572 
L 1422 4750 
L 1778 4750 
L 1778 3572 
L 2828 4206 
L 3009 3897 
z
" transform="scale(0.015625)"/>
     </defs>
     <use xlink:href="#DejaVuSans-2a"/>
    </g>
   </g>
  </g>
 </g>
 <defs>
  <clipPath id="p382760f353">
   <rect x="86.4" y="40.32" width="403.2" height="201.6"/>
  </clipPath>
  <clipPath id="pb8afa56896">
   <rect x="86.4" y="292.32" width="403.2" height="151.2"/>
  </clipPath>
 </defs>
</svg>
