<?xml version="1.0" encoding="utf-8" standalone="no"?>
<!DOCTYPE svg PUBLIC "-//W3C//DTD SVG 1.1//EN"
  "http://www.w3.org/Graphics/SVG/1.1/DTD/svg11.dtd">
<svg xmlns:xlink="http://www.w3.org/1999/xlink" width="360pt" height="432pt" viewBox="0 0 360 432" xmlns="http://www.w3.org/2000/svg" version="1.1">
 <metadata>
  <rdf:RDF xmlns:dc="http://purl.org/dc/elements/1.1/" xmlns:cc="http://creativecommons.org/ns#" xmlns:rdf="http://www.w3.org/1999/02/22-rdf-syntax-ns#">
   <cc:Work>
    <dc:type rdf:resource="http://purl.org/dc/dcmitype/StillImage"/>
    <dc:date>2026-05-26T10:35:12.038692</dc:date>
    <dc:format>image/svg+xml</dc:format>
    <dc:creator>
     <cc:Agent>
      <dc:title>Matplotlib v3.8.0, https://matplotlib.org/</dc:title>
     </cc:Agent>
    </dc:creator>
   </cc:Work>
  </rdf:RDF>
 </metadata>
 <defs>
  <style type="text/css">*{stroke-linejoin: round; stroke-linecap: butt}</style>
 </defs>
 <g id="figure_1">
  <g id="patch_1">
   <path d="M 0 432 
L 360 432 
L 360 0 
L 0 0 
z
" style="fill: #ffffff"/>
  </g>
  <g id="axes_1">
   <g id="patch_2">
    <path d="M 54 388.8 
L 306 388.8 
L 306 302.4 
L 54 302.4 
z
" style="fill: #ffffff"/>
   </g>
   <g id="PolyCollection_1">
    <defs>
     <path id="md8116d53a8" d="M 65.454545 -88.58189 
L 65.454545 -86.985991 
L 70.12987 -87.086112 
L 74.805195 -87.235118 
L 79.480519 -87.304372 
L 84.155844 -87.209201 
L 88.831169 -86.979251 
L 93.506494 -86.771388 
L 98.181818 -86.632691 
L 102.857143 -86.496086 
L 107.532468 -86.493519 
L 112.207792 -86.486349 
L 116.883117 -86.367295 
L 121.558442 -86.160609 
L 126.233766 -86.062702 
L 130.909091 -85.977362 
L 135.584416 -86.03609 
L 140.25974 -86.075841 
L 144.935065 -86.171455 
L 149.61039 -86.282811 
L 154.285714 -86.287579 
L 158.961039 -86.433434 
L 163.636364 -86.393587 
L 168.311688 -86.364322 
L 172.987013 -86.237952 
L 177.662338 -86.020165 
L 182.337662 -85.785655 
L 187.012987 -85.643916 
L 191.688312 -85.441137 
L 196.363636 -85.208012 
L 201.038961 -85.006469 
L 205.714286 -84.744653 
L 210.38961 -84.45967 
L 215.064935 -84.181036 
L 219.74026 -83.98336 
L 224.415584 -83.660784 
L 229.090909 -83.433438 
L 233.766234 -83.257932 
L 238.441558 -83.153322 
L 243.116883 -83.428262 
L 247.792208 -83.683546 
L 252.467532 -83.782858 
L 257.142857 -83.906835 
L 261.818182 -83.938912 
L 266.493506 -83.791274 
L 271.168831 -83.647354 
L 275.844156 -83.462407 
L 280.519481 -83.392092 
L 285.194805 -83.554778 
L 289.87013 -83.533877 
L 294.545455 -83.293395 
L 294.545455 -86.135937 
L 294.545455 -86.135937 
L 289.87013 -86.176871 
L 285.194805 -85.861114 
L 280.519481 -85.381033 
L 275.844156 -85.320254 
L 271.168831 -85.389805 
L 266.493506 -85.330195 
L 261.818182 -85.420721 
L 257.142857 -85.428281 
L 252.467532 -85.369562 
L 247.792208 -85.352032 
L 243.116883 -85.226237 
L 238.441558 -85.030059 
L 233.766234 -85.0482 
L 229.090909 -85.268689 
L 224.415584 -85.333702 
L 219.74026 -85.538054 
L 215.064935 -85.560819 
L 210.38961 -85.641228 
L 205.714286 -85.723261 
L 201.038961 -85.94871 
L 196.363636 -86.307524 
L 191.688312 -86.686806 
L 187.012987 -87.010107 
L 182.337662 -87.169583 
L 177.662338 -87.467707 
L 172.987013 -87.716456 
L 168.311688 -87.979096 
L 163.636364 -88.118907 
L 158.961039 -88.249463 
L 154.285714 -88.093621 
L 149.61039 -88.218383 
L 144.935065 -88.166631 
L 140.25974 -88.044723 
L 135.584416 -87.953732 
L 130.909091 -87.933726 
L 126.233766 -88.190294 
L 121.558442 -88.370945 
L 116.883117 -88.71317 
L 112.207792 -88.867965 
L 107.532468 -88.860776 
L 102.857143 -89.000006 
L 98.181818 -89.237372 
L 93.506494 -89.459933 
L 88.831169 -89.945879 
L 84.155844 -90.265953 
L 79.480519 -89.972075 
L 74.805195 -89.198993 
L 70.12987 -88.754038 
L 65.454545 -88.58189 
z
" style="stroke: #9400d3; stroke-opacity: 0.4"/>
    </defs>
    <g clip-path="url(#p4ac89c887f)">
     <use xlink:href="#md8116d53a8" x="0" y="432" style="fill: #9400d3; fill-opacity: 0.4; stroke: #9400d3; stroke-opacity: 0.4"/>
    </g>
   </g>
   <g id="matplotlib.axis_1">
    <g id="xtick_1">
     <g id="line2d_1">
      <defs>
       <path id="m16f86a76b2" d="M 0 0 
L 0 3.5 
" style="stroke: #000000; stroke-width: 0.8"/>
      </defs>
      <g>
       <use xlink:href="#m16f86a76b2" x="65.454545" y="392.8" style="stroke: #000000; stroke-width: 0.8"/>
      </g>
     </g>
     <g id="text_1">
      <!-- 0 -->
      <g transform="translate(62.273295 407.398438) scale(0.1 -0.1)">
       <defs>
        <path id="DejaVuSans-30" d="M 2034 4250 
Q 1547 4250 1301 3770 
Q 1056 3291 1056 2328 
Q 1056 1369 1301 889 
Q 1547 409 2034 409 
Q 2525 409 2770 889 
Q 3016 1369 3016 2328 
Q 3016 3291 2770 3770 
Q 2525 4250 2034 4250 
z
M 2034 4750 
Q 2819 4750 3233 4129 
Q 3647 3509 3647 2328 
Q 3647 1150 3233 529 
Q 2819 -91 2034 -91 
Q 1250 -91 836 529 
Q 422 1150 422 2328 
Q 422 3509 836 4129 
Q 1250 4750 2034 4750 
z
" transform="scale(0.015625)"/>
       </defs>
       <use xlink:href="#DejaVuSans-30"/>
      </g>
     </g>
    </g>
    <g id="xtick_2">
     <g id="line2d_2">
      <g>
       <use xlink:href="#m16f86a76b2" x="111.272727" y="392.8" style="stroke: #000000; stroke-width: 0.8"/>
      </g>
     </g>
     <g id="text_2">
      <!-- 1 -->
      <g transform="translate(108.091477 407.398438) scale(0.1 -0.1)">
       <defs>
        <path id="DejaVuSans-31" d="M 794 531 
L 1825 531 
L 1825 4091 
L 703 3866 
L 703 4441 
L 1819 4666 
L 2450 4666 
L 2450 531 
L 3481 531 
L 3481 0 
L 794 0 
L 794 531 
z
" transform="scale(0.015625)"/>
       </defs>
       <use xlink:href="#DejaVuSans-31"/>
      </g>
     </g>
    </g>
    <g id="xtick_3">
     <g id="line2d_3">
      <g>
       <use xlink:href="#m16f86a76b2" x="157.090909" y="392.8" style="stroke: #000000; stroke-width: 0.8"/>
      </g>
     </g>
     <g id="text_3">
      <!-- 2 -->
      <g transform="translate(153.909659 407.398438) scale(0.1 -0.1)">
       <defs>
        <path id="DejaVuSans-32" d="M 1228 531 
L 3431 531 
L 3431 0 
L 469 0 
L 469 531 
Q 828 903 1448 1529 
Q 2069 2156 2228 2338 
Q 2531 2678 2651 2914 
Q 2772 3150 2772 3378 
Q 2772 3750 2511 3984 
Q 2250 4219 1831 4219 
Q 1534 4219 1204 4116 
Q 875 4013 500 3803 
L 500 4441 
Q 881 4594 1212 4672 
Q 1544 4750 1819 4750 
Q 2544 4750 2975 4387 
Q 3406 4025 3406 3419 
Q 3406 3131 3298 2873 
Q 3191 2616 2906 2266 
Q 2828 2175 2409 1742 
Q 1991 1309 1228 531 
z
" transform="scale(0.015625)"/>
       </defs>
       <use xlink:href="#DejaVuSans-32"/>
      </g>
     </g>
    </g>
    <g id="xtick_4">
     <g id="line2d_4">
      <g>
       <use xlink:href="#m16f86a76b2" x="202.909091" y="392.8" style="stroke: #000000; stroke-width: 0.8"/>
      </g>
     </g>
     <g id="text_4">
      <!-- 3 -->
      <g transform="translate(199.727841 407.398438) scale(0.1 -0.1)">
       <defs>
        <path id="DejaVuSans-33" d="M 2597 2516 
Q 3050 2419 3304 2112 
Q 3559 1806 3559 1356 
Q 3559 666 3084 287 
Q 2609 -91 1734 -91 
Q 1441 -91 1130 -33 
Q 819 25 488 141 
L 488 750 
Q 750 597 1062 519 
Q 1375 441 1716 441 
Q 2309 441 2620 675 
Q 2931 909 2931 1356 
Q 2931 1769 2642 2001 
Q 2353 2234 1838 2234 
L 1294 2234 
L 1294 2753 
L 1863 2753 
Q 2328 2753 2575 2939 
Q 2822 3125 2822 3475 
Q 2822 3834 2567 4026 
Q 2313 4219 1838 4219 
Q 1578 4219 1281 4162 
Q 984 4106 628 3988 
L 628 4550 
Q 988 4650 1302 4700 
Q 1616 4750 1894 4750 
Q 2613 4750 3031 4423 
Q 3450 4097 3450 3541 
Q 3450 3153 3228 2886 
Q 3006 2619 2597 2516 
z
" transform="scale(0.015625)"/>
       </defs>
       <use xlink:href="#DejaVuSans-33"/>
      </g>
     </g>
    </g>
    <g id="xtick_5">
     <g id="line2d_5">
      <g>
       <use xlink:href="#m16f86a76b2" x="248.727273" y="392.8" style="stroke: #000000; stroke-width: 0.8"/>
      </g>
     </g>
     <g id="text_5">
      <!-- 4 -->
      <g transform="translate(245.546023 407.398438) scale(0.1 -0.1)">
       <defs>
        <path id="DejaVuSans-34" d="M 2419 4116 
L 825 1625 
L 2419 1625 
L 2419 4116 
z
M 2253 4666 
L 3047 4666 
L 3047 1625 
L 3713 1625 
L 3713 1100 
L 3047 1100 
L 3047 0 
L 2419 0 
L 2419 1100 
L 313 1100 
L 313 1709 
L 2253 4666 
z
" transform="scale(0.015625)"/>
       </defs>
       <use xlink:href="#DejaVuSans-34"/>
      </g>
     </g>
    </g>
    <g id="xtick_6">
     <g id="line2d_6">
      <g>
       <use xlink:href="#m16f86a76b2" x="294.545455" y="392.8" style="stroke: #000000; stroke-width: 0.8"/>
      </g>
     </g>
     <g id="text_6">
      <!-- 5 -->
      <g transform="translate(291.364205 407.398438) scale(0.1 -0.1)">
       <defs>
        <path id="DejaVuSans-35" d="M 691 4666 
L 3169 4666 
L 3169 4134 
L 1269 4134 
L 1269 2991 
Q 1406 3038 1543 3061 
Q 1681 3084 1819 3084 
Q 2600 3084 3056 2656 
Q 3513 2228 3513 1497 
Q 3513 744 3044 326 
Q 2575 -91 1722 -91 
Q 1428 -91 1123 -41 
Q 819 9 494 109 
L 494 744 
Q 775 591 1075 516 
Q 1375 441 1709 441 
Q 2250 441 2565 725 
Q 2881 1009 2881 1497 
Q 2881 1984 2565 2268 
Q 2250 2553 1709 2553 
Q 1456 2553 1204 2497 
Q 953 2441 691 2322 
L 691 4666 
z
" transform="scale(0.015625)"/>
       </defs>
       <use xlink:href="#DejaVuSans-35"/>
      </g>
     </g>
    </g>
    <g id="text_7">
     <!-- relative distance from ROI center ($\sigma$) -->
     <g transform="translate(106.48 419.556875) scale(0.08 -0.08)">
      <defs>
       <path id="DejaVuSans-72" d="M 2631 2963 
Q 2534 3019 2420 3045 
Q 2306 3072 2169 3072 
Q 1681 3072 1420 2755 
Q 1159 2438 1159 1844 
L 1159 0 
L 581 0 
L 581 3500 
L 1159 3500 
L 1159 2956 
Q 1341 3275 1631 3429 
Q 1922 3584 2338 3584 
Q 2397 3584 2469 3576 
Q 2541 3569 2628 3553 
L 2631 2963 
z
" transform="scale(0.015625)"/>
       <path id="DejaVuSans-65" d="M 3597 1894 
L 3597 1613 
L 953 1613 
Q 991 1019 1311 708 
Q 1631 397 2203 397 
Q 2534 397 2845 478 
Q 3156 559 3463 722 
L 3463 178 
Q 3153 47 2828 -22 
Q 2503 -91 2169 -91 
Q 1331 -91 842 396 
Q 353 884 353 1716 
Q 353 2575 817 3079 
Q 1281 3584 2069 3584 
Q 2775 3584 3186 3129 
Q 3597 2675 3597 1894 
z
M 3022 2063 
Q 3016 2534 2758 2815 
Q 2500 3097 2075 3097 
Q 1594 3097 1305 2825 
Q 1016 2553 972 2059 
L 3022 2063 
z
" transform="scale(0.015625)"/>
       <path id="DejaVuSans-6c" d="M 603 4863 
L 1178 4863 
L 1178 0 
L 603 0 
L 603 4863 
z
" transform="scale(0.015625)"/>
       <path id="DejaVuSans-61" d="M 2194 1759 
Q 1497 1759 1228 1600 
Q 959 1441 959 1056 
Q 959 750 1161 570 
Q 1363 391 1709 391 
Q 2188 391 2477 730 
Q 2766 1069 2766 1631 
L 2766 1759 
L 2194 1759 
z
M 3341 1997 
L 3341 0 
L 2766 0 
L 2766 531 
Q 2569 213 2275 61 
Q 1981 -91 1556 -91 
Q 1019 -91 701 211 
Q 384 513 384 1019 
Q 384 1609 779 1909 
Q 1175 2209 1959 2209 
L 2766 2209 
L 2766 2266 
Q 2766 2663 2505 2880 
Q 2244 3097 1772 3097 
Q 1472 3097 1187 3025 
Q 903 2953 641 2809 
L 641 3341 
Q 956 3463 1253 3523 
Q 1550 3584 1831 3584 
Q 2591 3584 2966 3190 
Q 3341 2797 3341 1997 
z
" transform="scale(0.015625)"/>
       <path id="DejaVuSans-74" d="M 1172 4494 
L 1172 3500 
L 2356 3500 
L 2356 3053 
L 1172 3053 
L 1172 1153 
Q 1172 725 1289 603 
Q 1406 481 1766 481 
L 2356 481 
L 2356 0 
L 1766 0 
Q 1100 0 847 248 
Q 594 497 594 1153 
L 594 3053 
L 172 3053 
L 172 3500 
L 594 3500 
L 594 4494 
L 1172 4494 
z
" transform="scale(0.015625)"/>
       <path id="DejaVuSans-69" d="M 603 3500 
L 1178 3500 
L 1178 0 
L 603 0 
L 603 3500 
z
M 603 4863 
L 1178 4863 
L 1178 4134 
L 603 4134 
L 603 4863 
z
" transform="scale(0.015625)"/>
       <path id="DejaVuSans-76" d="M 191 3500 
L 800 3500 
L 1894 563 
L 2988 3500 
L 3597 3500 
L 2284 0 
L 1503 0 
L 191 3500 
z
" transform="scale(0.015625)"/>
       <path id="DejaVuSans-20" transform="scale(0.015625)"/>
       <path id="DejaVuSans-64" d="M 2906 2969 
L 2906 4863 
L 3481 4863 
L 3481 0 
L 2906 0 
L 2906 525 
Q 2725 213 2448 61 
Q 2172 -91 1784 -91 
Q 1150 -91 751 415 
Q 353 922 353 1747 
Q 353 2572 751 3078 
Q 1150 3584 1784 3584 
Q 2172 3584 2448 3432 
Q 2725 3281 2906 2969 
z
M 947 1747 
Q 947 1113 1208 752 
Q 1469 391 1925 391 
Q 2381 391 2643 752 
Q 2906 1113 2906 1747 
Q 2906 2381 2643 2742 
Q 2381 3103 1925 3103 
Q 1469 3103 1208 2742 
Q 947 2381 947 1747 
z
" transform="scale(0.015625)"/>
       <path id="DejaVuSans-73" d="M 2834 3397 
L 2834 2853 
Q 2591 2978 2328 3040 
Q 2066 3103 1784 3103 
Q 1356 3103 1142 2972 
Q 928 2841 928 2578 
Q 928 2378 1081 2264 
Q 1234 2150 1697 2047 
L 1894 2003 
Q 2506 1872 2764 1633 
Q 3022 1394 3022 966 
Q 3022 478 2636 193 
Q 2250 -91 1575 -91 
Q 1294 -91 989 -36 
Q 684 19 347 128 
L 347 722 
Q 666 556 975 473 
Q 1284 391 1588 391 
Q 1994 391 2212 530 
Q 2431 669 2431 922 
Q 2431 1156 2273 1281 
Q 2116 1406 1581 1522 
L 1381 1569 
Q 847 1681 609 1914 
Q 372 2147 372 2553 
Q 372 3047 722 3315 
Q 1072 3584 1716 3584 
Q 2034 3584 2315 3537 
Q 2597 3491 2834 3397 
z
" transform="scale(0.015625)"/>
       <path id="DejaVuSans-6e" d="M 3513 2113 
L 3513 0 
L 2938 0 
L 2938 2094 
Q 2938 2591 2744 2837 
Q 2550 3084 2163 3084 
Q 1697 3084 1428 2787 
Q 1159 2491 1159 1978 
L 1159 0 
L 581 0 
L 581 3500 
L 1159 3500 
L 1159 2956 
Q 1366 3272 1645 3428 
Q 1925 3584 2291 3584 
Q 2894 3584 3203 3211 
Q 3513 2838 3513 2113 
z
" transform="scale(0.015625)"/>
       <path id="DejaVuSans-63" d="M 3122 3366 
L 3122 2828 
Q 2878 2963 2633 3030 
Q 2388 3097 2138 3097 
Q 1578 3097 1268 2742 
Q 959 2388 959 1747 
Q 959 1106 1268 751 
Q 1578 397 2138 397 
Q 2388 397 2633 464 
Q 2878 531 3122 666 
L 3122 134 
Q 2881 22 2623 -34 
Q 2366 -91 2075 -91 
Q 1284 -91 818 406 
Q 353 903 353 1747 
Q 353 2603 823 3093 
Q 1294 3584 2113 3584 
Q 2378 3584 2631 3529 
Q 2884 3475 3122 3366 
z
" transform="scale(0.015625)"/>
       <path id="DejaVuSans-66" d="M 2375 4863 
L 2375 4384 
L 1825 4384 
Q 1516 4384 1395 4259 
Q 1275 4134 1275 3809 
L 1275 3500 
L 2222 3500 
L 2222 3053 
L 1275 3053 
L 1275 0 
L 697 0 
L 697 3053 
L 147 3053 
L 147 3500 
L 697 3500 
L 697 3744 
Q 697 4328 969 4595 
Q 1241 4863 1831 4863 
L 2375 4863 
z
" transform="scale(0.015625)"/>
       <path id="DejaVuSans-6f" d="M 1959 3097 
Q 1497 3097 1228 2736 
Q 959 2375 959 1747 
Q 959 1119 1226 758 
Q 1494 397 1959 397 
Q 2419 397 2687 759 
Q 2956 1122 2956 1747 
Q 2956 2369 2687 2733 
Q 2419 3097 1959 3097 
z
M 1959 3584 
Q 2709 3584 3137 3096 
Q 3566 2609 3566 1747 
Q 3566 888 3137 398 
Q 2709 -91 1959 -91 
Q 1206 -91 779 398 
Q 353 888 353 1747 
Q 353 2609 779 3096 
Q 1206 3584 1959 3584 
z
" transform="scale(0.015625)"/>
       <path id="DejaVuSans-6d" d="M 3328 2828 
Q 3544 3216 3844 3400 
Q 4144 3584 4550 3584 
Q 5097 3584 5394 3201 
Q 5691 2819 5691 2113 
L 5691 0 
L 5113 0 
L 5113 2094 
Q 5113 2597 4934 2840 
Q 4756 3084 4391 3084 
Q 3944 3084 3684 2787 
Q 3425 2491 3425 1978 
L 3425 0 
L 2847 0 
L 2847 2094 
Q 2847 2600 2669 2842 
Q 2491 3084 2119 3084 
Q 1678 3084 1418 2786 
Q 1159 2488 1159 1978 
L 1159 0 
L 581 0 
L 581 3500 
L 1159 3500 
L 1159 2956 
Q 1356 3278 1631 3431 
Q 1906 3584 2284 3584 
Q 2666 3584 2933 3390 
Q 3200 3197 3328 2828 
z
" transform="scale(0.015625)"/>
       <path id="DejaVuSans-52" d="M 2841 2188 
Q 3044 2119 3236 1894 
Q 3428 1669 3622 1275 
L 4263 0 
L 3584 0 
L 2988 1197 
Q 2756 1666 2539 1819 
Q 2322 1972 1947 1972 
L 1259 1972 
L 1259 0 
L 628 0 
L 628 4666 
L 2053 4666 
Q 2853 4666 3247 4331 
Q 3641 3997 3641 3322 
Q 3641 2881 3436 2590 
Q 3231 2300 2841 2188 
z
M 1259 4147 
L 1259 2491 
L 2053 2491 
Q 2509 2491 2742 2702 
Q 2975 2913 2975 3322 
Q 2975 3731 2742 3939 
Q 2509 4147 2053 4147 
L 1259 4147 
z
" transform="scale(0.015625)"/>
       <path id="DejaVuSans-4f" d="M 2522 4238 
Q 1834 4238 1429 3725 
Q 1025 3213 1025 2328 
Q 1025 1447 1429 934 
Q 1834 422 2522 422 
Q 3209 422 3611 934 
Q 4013 1447 4013 2328 
Q 4013 3213 3611 3725 
Q 3209 4238 2522 4238 
z
M 2522 4750 
Q 3503 4750 4090 4092 
Q 4678 3434 4678 2328 
Q 4678 1225 4090 567 
Q 3503 -91 2522 -91 
Q 1538 -91 948 565 
Q 359 1222 359 2328 
Q 359 3434 948 4092 
Q 1538 4750 2522 4750 
z
" transform="scale(0.015625)"/>
       <path id="DejaVuSans-49" d="M 628 4666 
L 1259 4666 
L 1259 0 
L 628 0 
L 628 4666 
z
" transform="scale(0.015625)"/>
       <path id="DejaVuSans-28" d="M 1984 4856 
Q 1566 4138 1362 3434 
Q 1159 2731 1159 2009 
Q 1159 1288 1364 580 
Q 1569 -128 1984 -844 
L 1484 -844 
Q 1016 -109 783 600 
Q 550 1309 550 2009 
Q 550 2706 781 3412 
Q 1013 4119 1484 4856 
L 1984 4856 
z
" transform="scale(0.015625)"/>
       <path id="DejaVuSans-Oblique-3c3" d="M 2219 3044 
Q 1744 3044 1422 2700 
Q 1081 2341 969 1747 
Q 844 1119 1044 756 
Q 1241 397 1706 397 
Q 2166 397 2503 759 
Q 2844 1122 2966 1747 
Q 3075 2319 2881 2700 
Q 2700 3044 2219 3044 
z
M 2309 3503 
L 4219 3500 
L 4106 2925 
L 3463 2925 
Q 3706 2438 3575 1747 
Q 3406 888 2884 400 
Q 2359 -91 1609 -91 
Q 856 -91 525 400 
Q 194 888 363 1747 
Q 528 2609 1050 3097 
Q 1484 3503 2309 3503 
z
" transform="scale(0.015625)"/>
       <path id="DejaVuSans-29" d="M 513 4856 
L 1013 4856 
Q 1481 4119 1714 3412 
Q 1947 2706 1947 2009 
Q 1947 1309 1714 600 
Q 1481 -109 1013 -844 
L 513 -844 
Q 928 -128 1133 580 
Q 1338 1288 1338 2009 
Q 1338 2731 1133 3434 
Q 928 4138 513 4856 
z
" transform="scale(0.015625)"/>
      </defs>
      <use xlink:href="#DejaVuSans-72" transform="translate(0 0.015625)"/>
      <use xlink:href="#DejaVuSans-65" transform="translate(41.113281 0.015625)"/>
      <use xlink:href="#DejaVuSans-6c" transform="translate(102.636719 0.015625)"/>
      <use xlink:href="#DejaVuSans-61" transform="translate(130.419922 0.015625)"/>
      <use xlink:href="#DejaVuSans-74" transform="translate(191.699219 0.015625)"/>
      <use xlink:href="#DejaVuSans-69" transform="translate(230.908203 0.015625)"/>
      <use xlink:href="#DejaVuSans-76" transform="translate(258.691406 0.015625)"/>
      <use xlink:href="#DejaVuSans-65" transform="translate(317.871094 0.015625)"/>
      <use xlink:href="#DejaVuSans-20" transform="translate(379.394531 0.015625)"/>
      <use xlink:href="#DejaVuSans-64" transform="translate(411.181641 0.015625)"/>
      <use xlink:href="#DejaVuSans-69" transform="translate(474.658203 0.015625)"/>
      <use xlink:href="#DejaVuSans-73" transform="translate(502.441406 0.015625)"/>
      <use xlink:href="#DejaVuSans-74" transform="translate(554.541016 0.015625)"/>
      <use xlink:href="#DejaVuSans-61" transform="translate(593.75 0.015625)"/>
      <use xlink:href="#DejaVuSans-6e" transform="translate(655.029297 0.015625)"/>
      <use xlink:href="#DejaVuSans-63" transform="translate(718.408203 0.015625)"/>
      <use xlink:href="#DejaVuSans-65" transform="translate(773.388672 0.015625)"/>
      <use xlink:href="#DejaVuSans-20" transform="translate(834.912109 0.015625)"/>
      <use xlink:href="#DejaVuSans-66" transform="translate(866.699219 0.015625)"/>
      <use xlink:href="#DejaVuSans-72" transform="translate(901.904297 0.015625)"/>
      <use xlink:href="#DejaVuSans-6f" transform="translate(943.017578 0.015625)"/>
      <use xlink:href="#DejaVuSans-6d" transform="translate(1004.199219 0.015625)"/>
      <use xlink:href="#DejaVuSans-20" transform="translate(1101.611328 0.015625)"/>
      <use xlink:href="#DejaVuSans-52" transform="translate(1133.398438 0.015625)"/>
      <use xlink:href="#DejaVuSans-4f" transform="translate(1202.880859 0.015625)"/>
      <use xlink:href="#DejaVuSans-49" transform="translate(1281.591797 0.015625)"/>
      <use xlink:href="#DejaVuSans-20" transform="translate(1311.083984 0.015625)"/>
      <use xlink:href="#DejaVuSans-63" transform="translate(1342.871094 0.015625)"/>
      <use xlink:href="#DejaVuSans-65" transform="translate(1397.851562 0.015625)"/>
      <use xlink:href="#DejaVuSans-6e" transform="translate(1459.375 0.015625)"/>
      <use xlink:href="#DejaVuSans-74" transform="translate(1522.753906 0.015625)"/>
      <use xlink:href="#DejaVuSans-65" transform="translate(1561.962891 0.015625)"/>
      <use xlink:href="#DejaVuSans-72" transform="translate(1623.486328 0.015625)"/>
      <use xlink:href="#DejaVuSans-20" transform="translate(1664.599609 0.015625)"/>
      <use xlink:href="#DejaVuSans-28" transform="translate(1696.386719 0.015625)"/>
      <use xlink:href="#DejaVuSans-Oblique-3c3" transform="translate(1735.400391 0.015625)"/>
      <use xlink:href="#DejaVuSans-29" transform="translate(1798.779297 0.015625)"/>
     </g>
    </g>
   </g>
   <g id="matplotlib.axis_2">
    <g id="ytick_1">
     <g id="line2d_7">
      <defs>
       <path id="m1846754666" d="M 0 0 
L -3.5 0 
" style="stroke: #000000; stroke-width: 0.8"/>
      </defs>
      <g>
       <use xlink:href="#m1846754666" x="50" y="376.457143" style="stroke: #000000; stroke-width: 0.8"/>
      </g>
     </g>
     <g id="text_8">
      <!-- −5 -->
      <g transform="translate(28.257812 380.256362) scale(0.1 -0.1)">
       <defs>
        <path id="DejaVuSans-2212" d="M 678 2272 
L 4684 2272 
L 4684 1741 
L 678 1741 
L 678 2272 
z
" transform="scale(0.015625)"/>
       </defs>
       <use xlink:href="#DejaVuSans-2212"/>
       <use xlink:href="#DejaVuSans-35" x="83.789062"/>
      </g>
     </g>
    </g>
    <g id="ytick_2">
     <g id="line2d_8">
      <g>
       <use xlink:href="#m1846754666" x="50" y="345.6" style="stroke: #000000; stroke-width: 0.8"/>
      </g>
     </g>
     <g id="text_9">
      <!-- 0 -->
      <g transform="translate(36.6375 349.399219) scale(0.1 -0.1)">
       <use xlink:href="#DejaVuSans-30"/>
      </g>
     </g>
    </g>
    <g id="ytick_3">
     <g id="line2d_9">
      <g>
       <use xlink:href="#m1846754666" x="50" y="314.742857" style="stroke: #000000; stroke-width: 0.8"/>
      </g>
     </g>
     <g id="text_10">
      <!-- 5 -->
      <g transform="translate(36.6375 318.542076) scale(0.1 -0.1)">
       <use xlink:href="#DejaVuSans-35"/>
      </g>
     </g>
    </g>
    <g id="text_11">
     <!-- BOLD % change -->
     <g transform="translate(22.594062 377.79625) rotate(-90) scale(0.08 -0.08)">
      <defs>
       <path id="DejaVuSans-42" d="M 1259 2228 
L 1259 519 
L 2272 519 
Q 2781 519 3026 730 
Q 3272 941 3272 1375 
Q 3272 1813 3026 2020 
Q 2781 2228 2272 2228 
L 1259 2228 
z
M 1259 4147 
L 1259 2741 
L 2194 2741 
Q 2656 2741 2882 2914 
Q 3109 3088 3109 3444 
Q 3109 3797 2882 3972 
Q 2656 4147 2194 4147 
L 1259 4147 
z
M 628 4666 
L 2241 4666 
Q 2963 4666 3353 4366 
Q 3744 4066 3744 3513 
Q 3744 3084 3544 2831 
Q 3344 2578 2956 2516 
Q 3422 2416 3680 2098 
Q 3938 1781 3938 1306 
Q 3938 681 3513 340 
Q 3088 0 2303 0 
L 628 0 
L 628 4666 
z
" transform="scale(0.015625)"/>
       <path id="DejaVuSans-4c" d="M 628 4666 
L 1259 4666 
L 1259 531 
L 3531 531 
L 3531 0 
L 628 0 
L 628 4666 
z
" transform="scale(0.015625)"/>
       <path id="DejaVuSans-44" d="M 1259 4147 
L 1259 519 
L 2022 519 
Q 2988 519 3436 956 
Q 3884 1394 3884 2338 
Q 3884 3275 3436 3711 
Q 2988 4147 2022 4147 
L 1259 4147 
z
M 628 4666 
L 1925 4666 
Q 3281 4666 3915 4102 
Q 4550 3538 4550 2338 
Q 4550 1131 3912 565 
Q 3275 0 1925 0 
L 628 0 
L 628 4666 
z
" transform="scale(0.015625)"/>
       <path id="DejaVuSans-25" d="M 4653 2053 
Q 4381 2053 4226 1822 
Q 4072 1591 4072 1178 
Q 4072 772 4226 539 
Q 4381 306 4653 306 
Q 4919 306 5073 539 
Q 5228 772 5228 1178 
Q 5228 1588 5073 1820 
Q 4919 2053 4653 2053 
z
M 4653 2450 
Q 5147 2450 5437 2106 
Q 5728 1763 5728 1178 
Q 5728 594 5436 251 
Q 5144 -91 4653 -91 
Q 4153 -91 3862 251 
Q 3572 594 3572 1178 
Q 3572 1766 3864 2108 
Q 4156 2450 4653 2450 
z
M 1428 4353 
Q 1159 4353 1004 4120 
Q 850 3888 850 3481 
Q 850 3069 1003 2837 
Q 1156 2606 1428 2606 
Q 1700 2606 1854 2837 
Q 2009 3069 2009 3481 
Q 2009 3884 1853 4118 
Q 1697 4353 1428 4353 
z
M 4250 4750 
L 4750 4750 
L 1831 -91 
L 1331 -91 
L 4250 4750 
z
M 1428 4750 
Q 1922 4750 2215 4408 
Q 2509 4066 2509 3481 
Q 2509 2891 2217 2550 
Q 1925 2209 1428 2209 
Q 931 2209 642 2551 
Q 353 2894 353 3481 
Q 353 4063 643 4406 
Q 934 4750 1428 4750 
z
" transform="scale(0.015625)"/>
       <path id="DejaVuSans-68" d="M 3513 2113 
L 3513 0 
L 2938 0 
L 2938 2094 
Q 2938 2591 2744 2837 
Q 2550 3084 2163 3084 
Q 1697 3084 1428 2787 
Q 1159 2491 1159 1978 
L 1159 0 
L 581 0 
L 581 4863 
L 1159 4863 
L 1159 2956 
Q 1366 3272 1645 3428 
Q 1925 3584 2291 3584 
Q 2894 3584 3203 3211 
Q 3513 2838 3513 2113 
z
" transform="scale(0.015625)"/>
       <path id="DejaVuSans-67" d="M 2906 1791 
Q 2906 2416 2648 2759 
Q 2391 3103 1925 3103 
Q 1463 3103 1205 2759 
Q 947 2416 947 1791 
Q 947 1169 1205 825 
Q 1463 481 1925 481 
Q 2391 481 2648 825 
Q 2906 1169 2906 1791 
z
M 3481 434 
Q 3481 -459 3084 -895 
Q 2688 -1331 1869 -1331 
Q 1566 -1331 1297 -1286 
Q 1028 -1241 775 -1147 
L 775 -588 
Q 1028 -725 1275 -790 
Q 1522 -856 1778 -856 
Q 2344 -856 2625 -561 
Q 2906 -266 2906 331 
L 2906 616 
Q 2728 306 2450 153 
Q 2172 0 1784 0 
Q 1141 0 747 490 
Q 353 981 353 1791 
Q 353 2603 747 3093 
Q 1141 3584 1784 3584 
Q 2172 3584 2450 3431 
Q 2728 3278 2906 2969 
L 2906 3500 
L 3481 3500 
L 3481 434 
z
" transform="scale(0.015625)"/>
      </defs>
      <use xlink:href="#DejaVuSans-42"/>
      <use xlink:href="#DejaVuSans-4f" x="66.853516"/>
      <use xlink:href="#DejaVuSans-4c" x="145.564453"/>
      <use xlink:href="#DejaVuSans-44" x="201.277344"/>
      <use xlink:href="#DejaVuSans-20" x="278.279297"/>
      <use xlink:href="#DejaVuSans-25" x="310.066406"/>
      <use xlink:href="#DejaVuSans-20" x="405.085938"/>
      <use xlink:href="#DejaVuSans-63" x="436.873047"/>
      <use xlink:href="#DejaVuSans-68" x="491.853516"/>
      <use xlink:href="#DejaVuSans-61" x="555.232422"/>
      <use xlink:href="#DejaVuSans-6e" x="616.511719"/>
      <use xlink:href="#DejaVuSans-67" x="679.890625"/>
      <use xlink:href="#DejaVuSans-65" x="743.367188"/>
     </g>
    </g>
   </g>
   <g id="line2d_10">
    <path d="M 65.454545 344.21606 
L 70.12987 344.079925 
L 74.805195 343.782945 
L 79.480519 343.361777 
L 84.155844 343.262423 
L 88.831169 343.537435 
L 93.506494 343.884339 
L 98.181818 344.064968 
L 102.857143 344.251954 
L 107.532468 344.322853 
L 112.207792 344.322843 
L 116.883117 344.459768 
L 121.558442 344.734223 
L 126.233766 344.873502 
L 130.909091 345.044456 
L 135.584416 345.005089 
L 140.25974 344.939718 
L 144.935065 344.830957 
L 149.61039 344.749403 
L 154.285714 344.8094 
L 158.961039 344.658552 
L 163.636364 344.743753 
L 168.311688 344.828291 
L 172.987013 345.022796 
L 177.662338 345.256064 
L 182.337662 345.522381 
L 187.012987 345.672988 
L 191.688312 345.936029 
L 196.363636 346.242232 
L 201.038961 346.522411 
L 205.714286 346.766043 
L 210.38961 346.949551 
L 215.064935 347.129073 
L 219.74026 347.239293 
L 224.415584 347.502757 
L 229.090909 347.648937 
L 233.766234 347.846934 
L 238.441558 347.90831 
L 243.116883 347.67275 
L 247.792208 347.482211 
L 252.467532 347.42379 
L 257.142857 347.332442 
L 261.818182 347.320184 
L 266.493506 347.439265 
L 271.168831 347.48142 
L 275.844156 347.608669 
L 280.519481 347.613437 
L 285.194805 347.292054 
L 289.87013 347.144626 
L 294.545455 347.285334 
" clip-path="url(#p4ac89c887f)" style="fill: none; stroke: #9400d3; stroke-width: 1.5; stroke-linecap: square"/>
   </g>
   <g id="line2d_11">
    <path d="M 65.454545 343.150674 
L 70.12987 343.238453 
L 74.805195 342.8671 
L 79.480519 343.04782 
L 84.155844 344.089106 
L 88.831169 345.478972 
L 93.506494 346.289138 
L 98.181818 347.27376 
L 102.857143 346.960104 
L 107.532468 345.659826 
L 112.207792 344.472142 
L 116.883117 343.271181 
L 121.558442 342.686872 
L 126.233766 342.599598 
L 130.909091 343.585114 
L 135.584416 344.263097 
L 140.25974 344.582802 
L 144.935065 344.688381 
L 149.61039 344.262079 
L 154.285714 344.205953 
L 158.961039 343.747731 
L 163.636364 343.309669 
L 168.311688 342.951376 
L 172.987013 343.005943 
L 177.662338 343.000433 
L 182.337662 343.589428 
L 187.012987 344.208915 
L 191.688312 345.137036 
L 196.363636 344.986562 
L 201.038961 344.662631 
L 205.714286 345.090203 
L 210.38961 345.990892 
L 215.064935 345.777399 
L 219.74026 345.287499 
L 224.415584 345.43843 
L 229.090909 345.521055 
L 233.766234 345.805578 
L 238.441558 345.827403 
L 243.116883 344.922295 
L 247.792208 344.33146 
L 252.467532 344.286794 
L 257.142857 344.503318 
L 261.818182 344.413176 
L 266.493506 345.093429 
L 271.168831 346.278517 
L 275.844156 347.909077 
L 280.519481 348.940158 
L 285.194805 349.45863 
L 289.87013 350.504037 
L 294.545455 351.526918 
" clip-path="url(#p4ac89c887f)" style="fill: none; stroke: #9400d3; stroke-opacity: 0.2; stroke-width: 1.5; stroke-linecap: square"/>
   </g>
   <g id="line2d_12">
    <path d="M 65.454545 348.609884 
L 70.12987 348.609884 
L 74.805195 348.965977 
L 79.480519 349.554348 
L 84.155844 349.740325 
L 88.831169 349.464332 
L 93.506494 348.922305 
L 98.181818 348.221549 
L 102.857143 347.63953 
L 107.532468 347.078868 
L 112.207792 346.25658 
L 116.883117 346.05721 
L 121.558442 345.914166 
L 126.233766 345.598446 
L 130.909091 345.264293 
L 135.584416 345.024991 
L 140.25974 344.788908 
L 144.935065 344.664005 
L 149.61039 344.55669 
L 154.285714 344.357888 
L 158.961039 344.142103 
L 163.636364 343.618643 
L 168.311688 343.282045 
L 172.987013 343.188805 
L 177.662338 343.288835 
L 182.337662 343.619956 
L 187.012987 343.903376 
L 191.688312 344.048832 
L 196.363636 344.300538 
L 201.038961 344.562356 
L 205.714286 344.70088 
L 210.38961 344.94555 
L 215.064935 345.155741 
L 219.74026 345.077466 
L 224.415584 344.712412 
L 229.090909 344.409201 
L 233.766234 344.250399 
L 238.441558 344.155371 
L 243.116883 344.063868 
L 247.792208 343.832822 
L 252.467532 343.758876 
L 257.142857 344.095654 
L 261.818182 344.401601 
L 266.493506 344.180459 
L 271.168831 343.520726 
L 275.844156 342.860016 
L 280.519481 342.336935 
L 285.194805 342.12353 
L 289.87013 342.169809 
L 294.545455 342.321055 
" clip-path="url(#p4ac89c887f)" style="fill: none; stroke: #9400d3; stroke-opacity: 0.2; stroke-width: 1.5; stroke-linecap: square"/>
   </g>
   <g id="line2d_13">
    <path d="M 65.454545 340.261484 
L 70.12987 340.30502 
L 74.805195 340.136459 
L 79.480519 340.238308 
L 84.155844 340.481864 
L 88.831169 340.423044 
L 93.506494 340.811859 
L 98.181818 342.004416 
L 102.857143 342.862028 
L 107.532468 343.84136 
L 112.207792 344.620391 
L 116.883117 345.65383 
L 121.558442 346.701434 
L 126.233766 347.119048 
L 130.909091 347.444151 
L 135.584416 347.504731 
L 140.25974 347.689011 
L 144.935065 347.564508 
L 149.61039 347.632867 
L 154.285714 347.863477 
L 158.961039 347.76121 
L 163.636364 347.764075 
L 168.311688 347.552961 
L 172.987013 347.576325 
L 177.662338 347.726942 
L 182.337662 348.032862 
L 187.012987 348.678284 
L 191.688312 348.609376 
L 196.363636 348.275157 
L 201.038961 347.584813 
L 205.714286 346.823677 
L 210.38961 346.998845 
L 215.064935 347.319793 
L 219.74026 347.308419 
L 224.415584 347.284538 
L 229.090909 347.669641 
L 233.766234 348.118694 
L 238.441558 348.107464 
L 243.116883 347.471118 
L 247.792208 346.527185 
L 252.467532 345.88226 
L 257.142857 345.646902 
L 261.818182 345.298088 
L 266.493506 345.1342 
L 271.168831 345.372998 
L 275.844156 345.15972 
L 280.519481 343.92301 
L 285.194805 341.570873 
L 289.87013 339.340843 
L 294.545455 338.402392 
" clip-path="url(#p4ac89c887f)" style="fill: none; stroke: #9400d3; stroke-opacity: 0.2; stroke-width: 1.5; stroke-linecap: square"/>
   </g>
   <g id="line2d_14">
    <path d="M 65.454545 347.53212 
L 70.12987 347.53212 
L 74.805195 347.473944 
L 79.480519 347.356541 
L 84.155844 347.415461 
L 88.831169 347.161015 
L 93.506494 346.404359 
L 98.181818 345.919813 
L 102.857143 345.896653 
L 107.532468 345.713985 
L 112.207792 345.636734 
L 116.883117 345.497833 
L 121.558442 345.429646 
L 126.233766 345.447016 
L 130.909091 345.613306 
L 135.584416 345.762277 
L 140.25974 346.035519 
L 144.935065 346.400563 
L 149.61039 346.810747 
L 154.285714 347.26597 
L 158.961039 347.62599 
L 163.636364 348.169752 
L 168.311688 348.617322 
L 172.987013 348.855122 
L 177.662338 349.135244 
L 182.337662 349.289158 
L 187.012987 349.226448 
L 191.688312 349.033936 
L 196.363636 348.892402 
L 201.038961 348.844825 
L 205.714286 348.724744 
L 210.38961 348.640022 
L 215.064935 348.727153 
L 219.74026 349.028082 
L 224.415584 349.195481 
L 229.090909 349.325643 
L 233.766234 349.360949 
L 238.441558 349.445474 
L 243.116883 349.560946 
L 247.792208 349.629297 
L 252.467532 349.645564 
L 257.142857 349.405924 
L 261.818182 349.373727 
L 266.493506 349.354463 
L 271.168831 349.396328 
L 275.844156 349.806367 
L 280.519481 350.310626 
L 285.194805 350.534956 
L 289.87013 350.690767 
L 294.545455 350.785689 
" clip-path="url(#p4ac89c887f)" style="fill: none; stroke: #9400d3; stroke-opacity: 0.2; stroke-width: 1.5; stroke-linecap: square"/>
   </g>
   <g id="line2d_15">
    <path d="M 65.454545 342.060891 
L 70.12987 341.898355 
L 74.805195 339.955104 
L 79.480519 338.541379 
L 84.155844 338.469535 
L 88.831169 339.611125 
L 93.506494 340.24131 
L 98.181818 339.687075 
L 102.857143 338.485964 
L 107.532468 339.01085 
L 112.207792 339.555097 
L 116.883117 340.170673 
L 121.558442 341.054269 
L 126.233766 341.913963 
L 130.909091 341.770317 
L 135.584416 341.455123 
L 140.25974 341.072498 
L 144.935065 341.065097 
L 149.61039 341.239107 
L 154.285714 341.360978 
L 158.961039 341.929676 
L 163.636364 342.672548 
L 168.311688 343.239068 
L 172.987013 343.555273 
L 177.662338 344.245615 
L 182.337662 345.316184 
L 187.012987 345.503917 
L 191.688312 345.726047 
L 196.363636 346.167146 
L 201.038961 346.200803 
L 205.714286 346.34642 
L 210.38961 345.966513 
L 215.064935 345.751473 
L 219.74026 346.233467 
L 224.415584 347.249059 
L 229.090909 347.72588 
L 233.766234 348.080818 
L 238.441558 347.378533 
L 243.116883 346.478257 
L 247.792208 345.317553 
L 252.467532 344.809321 
L 257.142857 344.565403 
L 261.818182 345.129609 
L 266.493506 346.187712 
L 271.168831 346.22662 
L 275.844156 346.973751 
L 280.519481 347.690292 
L 285.194805 347.891784 
L 289.87013 348.160355 
L 294.545455 348.595294 
" clip-path="url(#p4ac89c887f)" style="fill: none; stroke: #9400d3; stroke-opacity: 0.2; stroke-width: 1.5; stroke-linecap: square"/>
   </g>
   <g id="line2d_16">
    <path d="M 65.454545 343.657102 
L 70.12987 343.33919 
L 74.805195 342.818382 
L 79.480519 342.394203 
L 84.155844 341.115051 
L 88.831169 341.817191 
L 93.506494 343.899695 
L 98.181818 345.88844 
L 102.857143 348.002578 
L 107.532468 349.06325 
L 112.207792 349.839996 
L 116.883117 349.597364 
L 121.558442 348.92832 
L 126.233766 347.653733 
L 130.909091 347.125771 
L 135.584416 347.377391 
L 140.25974 347.563156 
L 144.935065 347.907405 
L 149.61039 347.722478 
L 154.285714 347.165046 
L 158.961039 346.325247 
L 163.636364 346.120755 
L 168.311688 345.954448 
L 172.987013 345.805351 
L 177.662338 345.695517 
L 182.337662 345.63929 
L 187.012987 345.704649 
L 191.688312 346.096472 
L 196.363636 346.315526 
L 201.038961 347.027214 
L 205.714286 347.980864 
L 210.38961 348.644464 
L 215.064935 349.580591 
L 219.74026 349.859607 
L 224.415584 350.088562 
L 229.090909 349.908214 
L 233.766234 349.409467 
L 238.441558 349.625634 
L 243.116883 349.33064 
L 247.792208 348.964876 
L 252.467532 348.742603 
L 257.142857 348.679837 
L 261.818182 348.947628 
L 266.493506 349.743141 
L 271.168831 350.262885 
L 275.844156 350.187809 
L 280.519481 349.483294 
L 285.194805 348.197964 
L 289.87013 346.598728 
L 294.545455 345.083899 
" clip-path="url(#p4ac89c887f)" style="fill: none; stroke: #9400d3; stroke-opacity: 0.2; stroke-width: 1.5; stroke-linecap: square"/>
   </g>
   <g id="line2d_17">
    <path d="M 65.454545 345.538272 
L 70.12987 345.301392 
L 74.805195 345.926072 
L 79.480519 347.035359 
L 84.155844 347.931411 
L 88.831169 348.509102 
L 93.506494 348.236684 
L 98.181818 347.369635 
L 102.857143 347.016009 
L 107.532468 346.93001 
L 112.207792 346.333922 
L 116.883117 346.228025 
L 121.558442 346.426589 
L 126.233766 346.806676 
L 130.909091 346.98417 
L 135.584416 346.546264 
L 140.25974 346.020262 
L 144.935065 345.502872 
L 149.61039 345.082656 
L 154.285714 345.174131 
L 158.961039 345.359634 
L 163.636364 345.631388 
L 168.311688 346.017246 
L 172.987013 346.746061 
L 177.662338 347.44287 
L 182.337662 347.543346 
L 187.012987 347.388605 
L 191.688312 347.474518 
L 196.363636 347.924492 
L 201.038961 348.196845 
L 205.714286 348.501719 
L 210.38961 348.862048 
L 215.064935 349.034994 
L 219.74026 349.496207 
L 224.415584 350.120006 
L 229.090909 350.384431 
L 233.766234 350.972231 
L 238.441558 351.699363 
L 243.116883 351.356313 
L 247.792208 350.753623 
L 252.467532 350.301946 
L 257.142857 349.609059 
L 261.818182 349.053977 
L 266.493506 348.452339 
L 271.168831 348.1603 
L 275.844156 347.73764 
L 280.519481 347.947083 
L 285.194805 348.630958 
L 289.87013 348.779276 
L 294.545455 349.211199 
" clip-path="url(#p4ac89c887f)" style="fill: none; stroke: #9400d3; stroke-opacity: 0.2; stroke-width: 1.5; stroke-linecap: square"/>
   </g>
   <g id="line2d_18">
    <path d="M 65.454545 343.450787 
L 70.12987 343.561321 
L 74.805195 343.936162 
L 79.480519 344.024298 
L 84.155844 343.653771 
L 88.831169 342.953624 
L 93.506494 343.046862 
L 98.181818 342.816832 
L 102.857143 343.205265 
L 107.532468 343.42812 
L 112.207792 343.932401 
L 116.883117 344.150997 
L 121.558442 344.581106 
L 126.233766 344.801063 
L 130.909091 344.871003 
L 135.584416 344.563304 
L 140.25974 344.476655 
L 144.935065 344.129854 
L 149.61039 344.008793 
L 154.285714 344.302166 
L 158.961039 344.64888 
L 163.636364 344.905467 
L 168.311688 345.307019 
L 172.987013 345.72557 
L 177.662338 345.940083 
L 182.337662 346.050008 
L 187.012987 345.877031 
L 191.688312 345.766282 
L 196.363636 346.119509 
L 201.038961 346.675221 
L 205.714286 347.146848 
L 210.38961 347.435724 
L 215.064935 347.571786 
L 219.74026 347.664934 
L 224.415584 348.022573 
L 229.090909 348.520989 
L 233.766234 348.539869 
L 238.441558 348.5033 
L 243.116883 348.473443 
L 247.792208 348.547932 
L 252.467532 348.650021 
L 257.142857 348.746421 
L 261.818182 348.740488 
L 266.493506 348.859793 
L 271.168831 349.076266 
L 275.844156 349.292648 
L 280.519481 349.178955 
L 285.194805 349.285524 
L 289.87013 349.676873 
L 294.545455 349.951319 
" clip-path="url(#p4ac89c887f)" style="fill: none; stroke: #9400d3; stroke-opacity: 0.2; stroke-width: 1.5; stroke-linecap: square"/>
   </g>
   <g id="line2d_19">
    <path d="M 65.454545 346.479269 
L 70.12987 346.726091 
L 74.805195 346.939219 
L 79.480519 347.240282 
L 84.155844 347.713012 
L 88.831169 347.917884 
L 93.506494 347.850557 
L 98.181818 347.881438 
L 102.857143 347.628518 
L 107.532468 347.300391 
L 112.207792 347.17738 
L 116.883117 347.256947 
L 121.558442 347.749863 
L 126.233766 348.04854 
L 130.909091 348.306574 
L 135.584416 348.137019 
L 140.25974 348.01591 
L 144.935065 347.902413 
L 149.61039 347.889655 
L 154.285714 347.802412 
L 158.961039 347.747716 
L 163.636364 347.677956 
L 168.311688 347.340781 
L 172.987013 347.043238 
L 177.662338 346.894126 
L 182.337662 346.708254 
L 187.012987 346.663312 
L 191.688312 346.984148 
L 196.363636 347.319178 
L 201.038961 347.52001 
L 205.714286 347.948176 
L 210.38961 348.422344 
L 215.064935 348.867214 
L 219.74026 349.176516 
L 224.415584 349.403008 
L 229.090909 349.627865 
L 233.766234 349.753712 
L 238.441558 349.945789 
L 243.116883 349.973838 
L 247.792208 350.013579 
L 252.467532 350.148725 
L 257.142857 350.502356 
L 261.818182 350.659335 
L 266.493506 351.024537 
L 271.168831 351.413152 
L 275.844156 351.847433 
L 280.519481 352.406883 
L 285.194805 352.526059 
L 289.87013 352.474181 
L 294.545455 352.503662 
" clip-path="url(#p4ac89c887f)" style="fill: none; stroke: #9400d3; stroke-opacity: 0.2; stroke-width: 1.5; stroke-linecap: square"/>
   </g>
   <g id="line2d_20">
    <path d="M 65.454545 340.205998 
L 70.12987 339.400147 
L 74.805195 338.17256 
L 79.480519 333.488446 
L 84.155844 331.218942 
L 88.831169 331.633089 
L 93.506494 332.796724 
L 98.181818 333.101549 
L 102.857143 334.326614 
L 107.532468 334.801546 
L 112.207792 334.353596 
L 116.883117 334.49724 
L 121.558442 335.336428 
L 126.233766 335.614079 
L 130.909091 336.669781 
L 135.584416 336.842334 
L 140.25974 336.618128 
L 144.935065 336.353433 
L 149.61039 336.62322 
L 154.285714 337.422123 
L 158.961039 336.923195 
L 163.636364 337.655286 
L 168.311688 338.573056 
L 172.987013 339.957192 
L 177.662338 340.530298 
L 182.337662 340.784954 
L 187.012987 340.761217 
L 191.688312 341.264773 
L 196.363636 342.237522 
L 201.038961 343.571145 
L 205.714286 343.455068 
L 210.38961 342.196243 
L 215.064935 341.578323 
L 219.74026 340.971636 
L 224.415584 340.803879 
L 229.090909 340.149646 
L 233.766234 340.798202 
L 238.441558 340.792075 
L 243.116883 341.557934 
L 247.792208 343.310543 
L 252.467532 344.586255 
L 257.142857 344.478561 
L 261.818182 344.292699 
L 266.493506 343.496209 
L 271.168831 342.051131 
L 275.844156 341.62249 
L 280.519481 341.685033 
L 285.194805 340.448333 
L 289.87013 339.872843 
L 294.545455 340.308177 
" clip-path="url(#p4ac89c887f)" style="fill: none; stroke: #9400d3; stroke-opacity: 0.2; stroke-width: 1.5; stroke-linecap: square"/>
   </g>
   <g id="line2d_21">
    <path d="M 65.454545 345.430178 
L 70.12987 344.967202 
L 74.805195 344.42141 
L 79.480519 344.058558 
L 84.155844 344.058176 
L 88.831169 343.942407 
L 93.506494 344.228238 
L 98.181818 344.550145 
L 102.857143 344.74823 
L 107.532468 344.723172 
L 112.207792 345.373031 
L 116.883117 346.676142 
L 121.558442 347.267758 
L 126.233766 348.006363 
L 130.909091 347.854537 
L 135.584416 347.579447 
L 140.25974 347.474053 
L 144.935065 346.961993 
L 149.61039 346.415143 
L 154.285714 345.983261 
L 158.961039 345.032684 
L 163.636364 344.655743 
L 168.311688 344.275879 
L 172.987013 343.791872 
L 177.662338 343.916741 
L 182.337662 344.172755 
L 187.012987 344.487117 
L 191.688312 345.154895 
L 196.363636 346.126517 
L 201.038961 346.900653 
L 205.714286 347.707872 
L 210.38961 348.342413 
L 215.064935 349.055336 
L 219.74026 349.528389 
L 224.415584 350.212374 
L 229.090909 350.895741 
L 233.766234 351.226357 
L 238.441558 351.510998 
L 243.116883 351.211601 
L 247.792208 351.075452 
L 252.467532 350.849325 
L 257.142857 350.423425 
L 261.818182 350.211688 
L 266.493506 350.305638 
L 271.168831 350.5367 
L 275.844156 350.298413 
L 280.519481 349.845541 
L 285.194805 349.543981 
L 289.87013 350.323177 
L 294.545455 351.449068 
" clip-path="url(#p4ac89c887f)" style="fill: none; stroke: #9400d3; stroke-opacity: 0.2; stroke-width: 1.5; stroke-linecap: square"/>
   </g>
   <g id="line2d_22">
    <path d="M 111.272727 382.628571 
L 111.272727 308.571429 
" clip-path="url(#p4ac89c887f)" style="fill: none; stroke-dasharray: 5.55,2.4; stroke-dashoffset: 0; stroke: #000000; stroke-width: 1.5"/>
   </g>
   <g id="line2d_23">
    <path d="M 65.454545 345.6 
L 294.545455 345.6 
" clip-path="url(#p4ac89c887f)" style="fill: none; stroke-dasharray: 5.55,2.4; stroke-dashoffset: 0; stroke: #000000; stroke-width: 1.5"/>
   </g>
   <g id="patch_3">
    <path d="M 50 388.8 
L 50 302.4 
" style="fill: none; stroke: #000000; stroke-width: 0.8; stroke-linejoin: miter; stroke-linecap: square"/>
   </g>
   <g id="patch_4">
    <path d="M 54 392.8 
L 306 392.8 
" style="fill: none; stroke: #000000; stroke-width: 0.8; stroke-linejoin: miter; stroke-linecap: square"/>
   </g>
   <g id="text_12">
    <!-- all depths -->
    <g transform="translate(150.492188 296.4) scale(0.12 -0.12)">
     <defs>
      <path id="DejaVuSans-70" d="M 1159 525 
L 1159 -1331 
L 581 -1331 
L 581 3500 
L 1159 3500 
L 1159 2969 
Q 1341 3281 1617 3432 
Q 1894 3584 2278 3584 
Q 2916 3584 3314 3078 
Q 3713 2572 3713 1747 
Q 3713 922 3314 415 
Q 2916 -91 2278 -91 
Q 1894 -91 1617 61 
Q 1341 213 1159 525 
z
M 3116 1747 
Q 3116 2381 2855 2742 
Q 2594 3103 2138 3103 
Q 1681 3103 1420 2742 
Q 1159 2381 1159 1747 
Q 1159 1113 1420 752 
Q 1681 391 2138 391 
Q 2594 391 2855 752 
Q 3116 1113 3116 1747 
z
" transform="scale(0.015625)"/>
     </defs>
     <use xlink:href="#DejaVuSans-61"/>
     <use xlink:href="#DejaVuSans-6c" x="61.279297"/>
     <use xlink:href="#DejaVuSans-6c" x="89.0625"/>
     <use xlink:href="#DejaVuSans-20" x="116.845703"/>
     <use xlink:href="#DejaVuSans-64" x="148.632812"/>
     <use xlink:href="#DejaVuSans-65" x="212.109375"/>
     <use xlink:href="#DejaVuSans-70" x="273.632812"/>
     <use xlink:href="#DejaVuSans-74" x="337.109375"/>
     <use xlink:href="#DejaVuSans-68" x="376.318359"/>
     <use xlink:href="#DejaVuSans-73" x="439.697266"/>
    </g>
   </g>
   <g id="legend_1">
    <g id="patch_5">
     <path d="M 94.945312 325.35625 
L 299 325.35625 
Q 301 325.35625 301 323.35625 
L 301 309.4 
Q 301 307.4 299 307.4 
L 94.945312 307.4 
Q 92.945312 307.4 92.945312 309.4 
L 92.945312 323.35625 
Q 92.945312 325.35625 94.945312 325.35625 
z
" style="fill: #ffffff; opacity: 0.8; stroke: #cccccc; stroke-linejoin: miter"/>
    </g>
    <g id="line2d_24">
     <path d="M 96.945312 315.498437 
L 106.945312 315.498437 
L 116.945312 315.498437 
" style="fill: none; stroke: #9400d3; stroke-width: 1.5; stroke-linecap: square"/>
    </g>
    <g id="text_13">
     <!-- V1_tgt_superficial_deveined_iso90 -->
     <g transform="translate(124.945312 318.998437) scale(0.1 -0.1)">
      <defs>
       <path id="DejaVuSans-56" d="M 1831 0 
L 50 4666 
L 709 4666 
L 2188 738 
L 3669 4666 
L 4325 4666 
L 2547 0 
L 1831 0 
z
" transform="scale(0.015625)"/>
       <path id="DejaVuSans-5f" d="M 3263 -1063 
L 3263 -1509 
L -63 -1509 
L -63 -1063 
L 3263 -1063 
z
" transform="scale(0.015625)"/>
       <path id="DejaVuSans-75" d="M 544 1381 
L 544 3500 
L 1119 3500 
L 1119 1403 
Q 1119 906 1312 657 
Q 1506 409 1894 409 
Q 2359 409 2629 706 
Q 2900 1003 2900 1516 
L 2900 3500 
L 3475 3500 
L 3475 0 
L 2900 0 
L 2900 538 
Q 2691 219 2414 64 
Q 2138 -91 1772 -91 
Q 1169 -91 856 284 
Q 544 659 544 1381 
z
M 1991 3584 
L 1991 3584 
z
" transform="scale(0.015625)"/>
       <path id="DejaVuSans-39" d="M 703 97 
L 703 672 
Q 941 559 1184 500 
Q 1428 441 1663 441 
Q 2288 441 2617 861 
Q 2947 1281 2994 2138 
Q 2813 1869 2534 1725 
Q 2256 1581 1919 1581 
Q 1219 1581 811 2004 
Q 403 2428 403 3163 
Q 403 3881 828 4315 
Q 1253 4750 1959 4750 
Q 2769 4750 3195 4129 
Q 3622 3509 3622 2328 
Q 3622 1225 3098 567 
Q 2575 -91 1691 -91 
Q 1453 -91 1209 -44 
Q 966 3 703 97 
z
M 1959 2075 
Q 2384 2075 2632 2365 
Q 2881 2656 2881 3163 
Q 2881 3666 2632 3958 
Q 2384 4250 1959 4250 
Q 1534 4250 1286 3958 
Q 1038 3666 1038 3163 
Q 1038 2656 1286 2365 
Q 1534 2075 1959 2075 
z
" transform="scale(0.015625)"/>
      </defs>
      <use xlink:href="#DejaVuSans-56"/>
      <use xlink:href="#DejaVuSans-31" x="68.408203"/>
      <use xlink:href="#DejaVuSans-5f" x="132.03125"/>
      <use xlink:href="#DejaVuSans-74" x="182.03125"/>
      <use xlink:href="#DejaVuSans-67" x="221.240234"/>
      <use xlink:href="#DejaVuSans-74" x="284.716797"/>
      <use xlink:href="#DejaVuSans-5f" x="323.925781"/>
      <use xlink:href="#DejaVuSans-73" x="373.925781"/>
      <use xlink:href="#DejaVuSans-75" x="426.025391"/>
      <use xlink:href="#DejaVuSans-70" x="489.404297"/>
      <use xlink:href="#DejaVuSans-65" x="552.880859"/>
      <use xlink:href="#DejaVuSans-72" x="614.404297"/>
      <use xlink:href="#DejaVuSans-66" x="655.517578"/>
      <use xlink:href="#DejaVuSans-69" x="690.722656"/>
      <use xlink:href="#DejaVuSans-63" x="718.505859"/>
      <use xlink:href="#DejaVuSans-69" x="773.486328"/>
      <use xlink:href="#DejaVuSans-61" x="801.269531"/>
      <use xlink:href="#DejaVuSans-6c" x="862.548828"/>
      <use xlink:href="#DejaVuSans-5f" x="890.332031"/>
      <use xlink:href="#DejaVuSans-64" x="940.332031"/>
      <use xlink:href="#DejaVuSans-65" x="1003.808594"/>
      <use xlink:href="#DejaVuSans-76" x="1065.332031"/>
      <use xlink:href="#DejaVuSans-65" x="1124.511719"/>
      <use xlink:href="#DejaVuSans-69" x="1186.035156"/>
      <use xlink:href="#DejaVuSans-6e" x="1213.818359"/>
      <use xlink:href="#DejaVuSans-65" x="1277.197266"/>
      <use xlink:href="#DejaVuSans-64" x="1338.720703"/>
      <use xlink:href="#DejaVuSans-5f" x="1402.197266"/>
      <use xlink:href="#DejaVuSans-69" x="1452.197266"/>
      <use xlink:href="#DejaVuSans-73" x="1479.980469"/>
      <use xlink:href="#DejaVuSans-6f" x="1532.080078"/>
      <use xlink:href="#DejaVuSans-39" x="1593.261719"/>
      <use xlink:href="#DejaVuSans-30" x="1656.884766"/>
     </g>
    </g>
   </g>
  </g>
 </g>
 <defs>
  <clipPath id="p4ac89c887f">
   <rect x="54" y="302.4" width="252" height="86.4"/>
  </clipPath>
 </defs>
</svg>
