<?xml version="1.0" encoding="utf-8" standalone="no"?>
<!DOCTYPE svg PUBLIC "-//W3C//DTD SVG 1.1//EN"
  "http://www.w3.org/Graphics/SVG/1.1/DTD/svg11.dtd">
<svg xmlns:xlink="http://www.w3.org/1999/xlink" width="576pt" height="504pt" viewBox="0 0 576 504" xmlns="http://www.w3.org/2000/svg" version="1.1">
 <metadata>
  <rdf:RDF xmlns:dc="http://purl.org/dc/elements/1.1/" xmlns:cc="http://creativecommons.org/ns#" xmlns:rdf="http://www.w3.org/1999/02/22-rdf-syntax-ns#">
   <cc:Work>
    <dc:type rdf:resource="http://purl.org/dc/dcmitype/StillImage"/>
    <dc:date>2026-05-26T10:36:35.007333</dc:date>
    <dc:format>image/svg+xml</dc:format>
    <dc:creator>
     <cc:Agent>
      <dc:title>Matplotlib v3.8.0, https://matplotlib.org/</dc:title>
     </cc:Agent>
    </dc:creator>
   </cc:Work>
  </rdf:RDF>
 </metadata>
 <defs>
  <style type="text/css">*{stroke-linejoin: round; stroke-linecap: butt}</style>
 </defs>
 <g id="figure_1">
  <g id="patch_1">
   <path d="M 0 504 
L 576 504 
L 576 0 
L 0 0 
z
" style="fill: #ffffff"/>
  </g>
  <g id="axes_1">
   <g id="patch_2">
    <path d="M 86.4 241.92 
L 489.6 241.92 
L 489.6 40.32 
L 86.4 40.32 
z
" style="fill: #ffffff"/>
   </g>
   <g id="PolyCollection_1">
    <defs>
     <path id="m937fe750dc" d="M 86.4 -411.458496 
L 86.4 -396.66653 
L 94.628571 -396.213365 
L 102.857143 -395.667272 
L 111.085714 -394.97612 
L 119.314286 -394.556262 
L 127.542857 -394.531743 
L 135.771429 -394.846538 
L 144 -395.102827 
L 152.228571 -395.689498 
L 160.457143 -396.249668 
L 168.685714 -396.977768 
L 176.914286 -397.759522 
L 185.142857 -398.377693 
L 193.371429 -398.947229 
L 201.6 -398.996745 
L 209.828571 -398.841116 
L 218.057143 -399.168335 
L 226.285714 -399.572993 
L 234.514286 -399.836898 
L 242.742857 -400.11122 
L 250.971429 -400.572127 
L 259.2 -400.596016 
L 267.428571 -400.269785 
L 275.657143 -399.601339 
L 283.885714 -398.990141 
L 292.114286 -398.258634 
L 300.342857 -397.244568 
L 308.571429 -396.058561 
L 316.8 -395.010538 
L 325.028571 -393.824393 
L 333.257143 -392.458044 
L 341.485714 -390.992882 
L 349.714286 -389.555874 
L 357.942857 -388.176178 
L 366.171429 -386.943587 
L 374.4 -385.665002 
L 382.628571 -384.388227 
L 390.857143 -383.339963 
L 399.085714 -382.369778 
L 407.314286 -381.493114 
L 415.542857 -380.87533 
L 423.771429 -380.215651 
L 432 -379.439284 
L 440.228571 -378.839107 
L 448.457143 -378.410435 
L 456.685714 -378.019672 
L 464.914286 -377.766443 
L 473.142857 -377.429664 
L 481.371429 -377.001297 
L 489.6 -376.442221 
L 489.6 -388.143793 
L 489.6 -388.143793 
L 481.371429 -388.773447 
L 473.142857 -389.364874 
L 464.914286 -390.125242 
L 456.685714 -390.75661 
L 448.457143 -391.276977 
L 440.228571 -391.435602 
L 432 -391.638097 
L 423.771429 -392.015556 
L 415.542857 -392.335536 
L 407.314286 -392.82086 
L 399.085714 -393.655421 
L 390.857143 -394.670604 
L 382.628571 -395.663711 
L 374.4 -396.91681 
L 366.171429 -398.192585 
L 357.942857 -399.327035 
L 349.714286 -400.505266 
L 341.485714 -401.821365 
L 333.257143 -403.221492 
L 325.028571 -404.548924 
L 316.8 -405.646852 
L 308.571429 -406.536201 
L 300.342857 -407.639497 
L 292.114286 -408.618331 
L 283.885714 -409.474608 
L 275.657143 -410.109971 
L 267.428571 -410.835965 
L 259.2 -411.20004 
L 250.971429 -411.172425 
L 242.742857 -410.784365 
L 234.514286 -410.547567 
L 226.285714 -410.135565 
L 218.057143 -409.645419 
L 209.828571 -409.417483 
L 201.6 -409.89265 
L 193.371429 -410.053761 
L 185.142857 -409.683054 
L 176.914286 -409.095946 
L 168.685714 -408.544815 
L 160.457143 -407.960999 
L 152.228571 -407.510371 
L 144 -406.877183 
L 135.771429 -406.749023 
L 127.542857 -406.765626 
L 119.314286 -407.558392 
L 111.085714 -408.209426 
L 102.857143 -409.235467 
L 94.628571 -410.422904 
L 86.4 -411.458496 
z
" style="stroke: #ff00ff; stroke-opacity: 0.4"/>
    </defs>
    <g clip-path="url(#pa337edc851)">
     <use xlink:href="#m937fe750dc" x="0" y="504" style="fill: #ff00ff; fill-opacity: 0.4; stroke: #ff00ff; stroke-opacity: 0.4"/>
    </g>
   </g>
   <g id="matplotlib.axis_1">
    <g id="xtick_1">
     <g id="line2d_1">
      <defs>
       <path id="m82ac2987f3" d="M 0 0 
L 0 3.5 
" style="stroke: #000000; stroke-width: 0.8"/>
      </defs>
      <g>
       <use xlink:href="#m82ac2987f3" x="86.4" y="245.92" style="stroke: #000000; stroke-width: 0.8"/>
      </g>
     </g>
    </g>
    <g id="xtick_2">
     <g id="line2d_2">
      <g>
       <use xlink:href="#m82ac2987f3" x="167.04" y="245.92" style="stroke: #000000; stroke-width: 0.8"/>
      </g>
     </g>
    </g>
    <g id="xtick_3">
     <g id="line2d_3">
      <g>
       <use xlink:href="#m82ac2987f3" x="247.68" y="245.92" style="stroke: #000000; stroke-width: 0.8"/>
      </g>
     </g>
    </g>
    <g id="xtick_4">
     <g id="line2d_4">
      <g>
       <use xlink:href="#m82ac2987f3" x="328.32" y="245.92" style="stroke: #000000; stroke-width: 0.8"/>
      </g>
     </g>
    </g>
    <g id="xtick_5">
     <g id="line2d_5">
      <g>
       <use xlink:href="#m82ac2987f3" x="408.96" y="245.92" style="stroke: #000000; stroke-width: 0.8"/>
      </g>
     </g>
    </g>
    <g id="xtick_6">
     <g id="line2d_6">
      <g>
       <use xlink:href="#m82ac2987f3" x="489.6" y="245.92" style="stroke: #000000; stroke-width: 0.8"/>
      </g>
     </g>
    </g>
   </g>
   <g id="matplotlib.axis_2">
    <g id="ytick_1">
     <g id="line2d_7">
      <defs>
       <path id="m092a2acb5f" d="M 0 0 
L -3.5 0 
" style="stroke: #000000; stroke-width: 0.8"/>
      </defs>
      <g>
       <use xlink:href="#m092a2acb5f" x="82.4" y="241.92" style="stroke: #000000; stroke-width: 0.8"/>
      </g>
     </g>
     <g id="text_1">
      <!-- −2.0 -->
      <g transform="translate(51.117187 245.719219) scale(0.1 -0.1)">
       <defs>
        <path id="DejaVuSans-2212" d="M 678 2272 
L 4684 2272 
L 4684 1741 
L 678 1741 
L 678 2272 
z
" transform="scale(0.015625)"/>
        <path id="DejaVuSans-32" d="M 1228 531 
L 3431 531 
L 3431 0 
L 469 0 
L 469 531 
Q 828 903 1448 1529 
Q 2069 2156 2228 2338 
Q 2531 2678 2651 2914 
Q 2772 3150 2772 3378 
Q 2772 3750 2511 3984 
Q 2250 4219 1831 4219 
Q 1534 4219 1204 4116 
Q 875 4013 500 3803 
L 500 4441 
Q 881 4594 1212 4672 
Q 1544 4750 1819 4750 
Q 2544 4750 2975 4387 
Q 3406 4025 3406 3419 
Q 3406 3131 3298 2873 
Q 3191 2616 2906 2266 
Q 2828 2175 2409 1742 
Q 1991 1309 1228 531 
z
" transform="scale(0.015625)"/>
        <path id="DejaVuSans-2e" d="M 684 794 
L 1344 794 
L 1344 0 
L 684 0 
L 684 794 
z
" transform="scale(0.015625)"/>
        <path id="DejaVuSans-30" d="M 2034 4250 
Q 1547 4250 1301 3770 
Q 1056 3291 1056 2328 
Q 1056 1369 1301 889 
Q 1547 409 2034 409 
Q 2525 409 2770 889 
Q 3016 1369 3016 2328 
Q 3016 3291 2770 3770 
Q 2525 4250 2034 4250 
z
M 2034 4750 
Q 2819 4750 3233 4129 
Q 3647 3509 3647 2328 
Q 3647 1150 3233 529 
Q 2819 -91 2034 -91 
Q 1250 -91 836 529 
Q 422 1150 422 2328 
Q 422 3509 836 4129 
Q 1250 4750 2034 4750 
z
" transform="scale(0.015625)"/>
       </defs>
       <use xlink:href="#DejaVuSans-2212"/>
       <use xlink:href="#DejaVuSans-32" x="83.789062"/>
       <use xlink:href="#DejaVuSans-2e" x="147.412109"/>
       <use xlink:href="#DejaVuSans-30" x="179.199219"/>
      </g>
     </g>
    </g>
    <g id="ytick_2">
     <g id="line2d_8">
      <g>
       <use xlink:href="#m092a2acb5f" x="82.4" y="216.72" style="stroke: #000000; stroke-width: 0.8"/>
      </g>
     </g>
     <g id="text_2">
      <!-- −1.5 -->
      <g transform="translate(51.117187 220.519219) scale(0.1 -0.1)">
       <defs>
        <path id="DejaVuSans-31" d="M 794 531 
L 1825 531 
L 1825 4091 
L 703 3866 
L 703 4441 
L 1819 4666 
L 2450 4666 
L 2450 531 
L 3481 531 
L 3481 0 
L 794 0 
L 794 531 
z
" transform="scale(0.015625)"/>
        <path id="DejaVuSans-35" d="M 691 4666 
L 3169 4666 
L 3169 4134 
L 1269 4134 
L 1269 2991 
Q 1406 3038 1543 3061 
Q 1681 3084 1819 3084 
Q 2600 3084 3056 2656 
Q 3513 2228 3513 1497 
Q 3513 744 3044 326 
Q 2575 -91 1722 -91 
Q 1428 -91 1123 -41 
Q 819 9 494 109 
L 494 744 
Q 775 591 1075 516 
Q 1375 441 1709 441 
Q 2250 441 2565 725 
Q 2881 1009 2881 1497 
Q 2881 1984 2565 2268 
Q 2250 2553 1709 2553 
Q 1456 2553 1204 2497 
Q 953 2441 691 2322 
L 691 4666 
z
" transform="scale(0.015625)"/>
       </defs>
       <use xlink:href="#DejaVuSans-2212"/>
       <use xlink:href="#DejaVuSans-31" x="83.789062"/>
       <use xlink:href="#DejaVuSans-2e" x="147.412109"/>
       <use xlink:href="#DejaVuSans-35" x="179.199219"/>
      </g>
     </g>
    </g>
    <g id="ytick_3">
     <g id="line2d_9">
      <g>
       <use xlink:href="#m092a2acb5f" x="82.4" y="191.52" style="stroke: #000000; stroke-width: 0.8"/>
      </g>
     </g>
     <g id="text_3">
      <!-- −1.0 -->
      <g transform="translate(51.117187 195.319219) scale(0.1 -0.1)">
       <use xlink:href="#DejaVuSans-2212"/>
       <use xlink:href="#DejaVuSans-31" x="83.789062"/>
       <use xlink:href="#DejaVuSans-2e" x="147.412109"/>
       <use xlink:href="#DejaVuSans-30" x="179.199219"/>
      </g>
     </g>
    </g>
    <g id="ytick_4">
     <g id="line2d_10">
      <g>
       <use xlink:href="#m092a2acb5f" x="82.4" y="166.32" style="stroke: #000000; stroke-width: 0.8"/>
      </g>
     </g>
     <g id="text_4">
      <!-- −0.5 -->
      <g transform="translate(51.117187 170.119219) scale(0.1 -0.1)">
       <use xlink:href="#DejaVuSans-2212"/>
       <use xlink:href="#DejaVuSans-30" x="83.789062"/>
       <use xlink:href="#DejaVuSans-2e" x="147.412109"/>
       <use xlink:href="#DejaVuSans-35" x="179.199219"/>
      </g>
     </g>
    </g>
    <g id="ytick_5">
     <g id="line2d_11">
      <g>
       <use xlink:href="#m092a2acb5f" x="82.4" y="141.12" style="stroke: #000000; stroke-width: 0.8"/>
      </g>
     </g>
     <g id="text_5">
      <!-- 0.0 -->
      <g transform="translate(59.496875 144.919219) scale(0.1 -0.1)">
       <use xlink:href="#DejaVuSans-30"/>
       <use xlink:href="#DejaVuSans-2e" x="63.623047"/>
       <use xlink:href="#DejaVuSans-30" x="95.410156"/>
      </g>
     </g>
    </g>
    <g id="ytick_6">
     <g id="line2d_12">
      <g>
       <use xlink:href="#m092a2acb5f" x="82.4" y="115.92" style="stroke: #000000; stroke-width: 0.8"/>
      </g>
     </g>
     <g id="text_6">
      <!-- 0.5 -->
      <g transform="translate(59.496875 119.719219) scale(0.1 -0.1)">
       <use xlink:href="#DejaVuSans-30"/>
       <use xlink:href="#DejaVuSans-2e" x="63.623047"/>
       <use xlink:href="#DejaVuSans-35" x="95.410156"/>
      </g>
     </g>
    </g>
    <g id="ytick_7">
     <g id="line2d_13">
      <g>
       <use xlink:href="#m092a2acb5f" x="82.4" y="90.72" style="stroke: #000000; stroke-width: 0.8"/>
      </g>
     </g>
     <g id="text_7">
      <!-- 1.0 -->
      <g transform="translate(59.496875 94.519219) scale(0.1 -0.1)">
       <use xlink:href="#DejaVuSans-31"/>
       <use xlink:href="#DejaVuSans-2e" x="63.623047"/>
       <use xlink:href="#DejaVuSans-30" x="95.410156"/>
      </g>
     </g>
    </g>
    <g id="ytick_8">
     <g id="line2d_14">
      <g>
       <use xlink:href="#m092a2acb5f" x="82.4" y="65.52" style="stroke: #000000; stroke-width: 0.8"/>
      </g>
     </g>
     <g id="text_8">
      <!-- 1.5 -->
      <g transform="translate(59.496875 69.319219) scale(0.1 -0.1)">
       <use xlink:href="#DejaVuSans-31"/>
       <use xlink:href="#DejaVuSans-2e" x="63.623047"/>
       <use xlink:href="#DejaVuSans-35" x="95.410156"/>
      </g>
     </g>
    </g>
    <g id="ytick_9">
     <g id="line2d_15">
      <g>
       <use xlink:href="#m092a2acb5f" x="82.4" y="40.32" style="stroke: #000000; stroke-width: 0.8"/>
      </g>
     </g>
     <g id="text_9">
      <!-- 2.0 -->
      <g transform="translate(59.496875 44.119219) scale(0.1 -0.1)">
       <use xlink:href="#DejaVuSans-32"/>
       <use xlink:href="#DejaVuSans-2e" x="63.623047"/>
       <use xlink:href="#DejaVuSans-30" x="95.410156"/>
      </g>
     </g>
    </g>
    <g id="text_10">
     <!-- BOLD % change -->
     <g transform="translate(45.453437 173.31625) rotate(-90) scale(0.08 -0.08)">
      <defs>
       <path id="DejaVuSans-42" d="M 1259 2228 
L 1259 519 
L 2272 519 
Q 2781 519 3026 730 
Q 3272 941 3272 1375 
Q 3272 1813 3026 2020 
Q 2781 2228 2272 2228 
L 1259 2228 
z
M 1259 4147 
L 1259 2741 
L 2194 2741 
Q 2656 2741 2882 2914 
Q 3109 3088 3109 3444 
Q 3109 3797 2882 3972 
Q 2656 4147 2194 4147 
L 1259 4147 
z
M 628 4666 
L 2241 4666 
Q 2963 4666 3353 4366 
Q 3744 4066 3744 3513 
Q 3744 3084 3544 2831 
Q 3344 2578 2956 2516 
Q 3422 2416 3680 2098 
Q 3938 1781 3938 1306 
Q 3938 681 3513 340 
Q 3088 0 2303 0 
L 628 0 
L 628 4666 
z
" transform="scale(0.015625)"/>
       <path id="DejaVuSans-4f" d="M 2522 4238 
Q 1834 4238 1429 3725 
Q 1025 3213 1025 2328 
Q 1025 1447 1429 934 
Q 1834 422 2522 422 
Q 3209 422 3611 934 
Q 4013 1447 4013 2328 
Q 4013 3213 3611 3725 
Q 3209 4238 2522 4238 
z
M 2522 4750 
Q 3503 4750 4090 4092 
Q 4678 3434 4678 2328 
Q 4678 1225 4090 567 
Q 3503 -91 2522 -91 
Q 1538 -91 948 565 
Q 359 1222 359 2328 
Q 359 3434 948 4092 
Q 1538 4750 2522 4750 
z
" transform="scale(0.015625)"/>
       <path id="DejaVuSans-4c" d="M 628 4666 
L 1259 4666 
L 1259 531 
L 3531 531 
L 3531 0 
L 628 0 
L 628 4666 
z
" transform="scale(0.015625)"/>
       <path id="DejaVuSans-44" d="M 1259 4147 
L 1259 519 
L 2022 519 
Q 2988 519 3436 956 
Q 3884 1394 3884 2338 
Q 3884 3275 3436 3711 
Q 2988 4147 2022 4147 
L 1259 4147 
z
M 628 4666 
L 1925 4666 
Q 3281 4666 3915 4102 
Q 4550 3538 4550 2338 
Q 4550 1131 3912 565 
Q 3275 0 1925 0 
L 628 0 
L 628 4666 
z
" transform="scale(0.015625)"/>
       <path id="DejaVuSans-20" transform="scale(0.015625)"/>
       <path id="DejaVuSans-25" d="M 4653 2053 
Q 4381 2053 4226 1822 
Q 4072 1591 4072 1178 
Q 4072 772 4226 539 
Q 4381 306 4653 306 
Q 4919 306 5073 539 
Q 5228 772 5228 1178 
Q 5228 1588 5073 1820 
Q 4919 2053 4653 2053 
z
M 4653 2450 
Q 5147 2450 5437 2106 
Q 5728 1763 5728 1178 
Q 5728 594 5436 251 
Q 5144 -91 4653 -91 
Q 4153 -91 3862 251 
Q 3572 594 3572 1178 
Q 3572 1766 3864 2108 
Q 4156 2450 4653 2450 
z
M 1428 4353 
Q 1159 4353 1004 4120 
Q 850 3888 850 3481 
Q 850 3069 1003 2837 
Q 1156 2606 1428 2606 
Q 1700 2606 1854 2837 
Q 2009 3069 2009 3481 
Q 2009 3884 1853 4118 
Q 1697 4353 1428 4353 
z
M 4250 4750 
L 4750 4750 
L 1831 -91 
L 1331 -91 
L 4250 4750 
z
M 1428 4750 
Q 1922 4750 2215 4408 
Q 2509 4066 2509 3481 
Q 2509 2891 2217 2550 
Q 1925 2209 1428 2209 
Q 931 2209 642 2551 
Q 353 2894 353 3481 
Q 353 4063 643 4406 
Q 934 4750 1428 4750 
z
" transform="scale(0.015625)"/>
       <path id="DejaVuSans-63" d="M 3122 3366 
L 3122 2828 
Q 2878 2963 2633 3030 
Q 2388 3097 2138 3097 
Q 1578 3097 1268 2742 
Q 959 2388 959 1747 
Q 959 1106 1268 751 
Q 1578 397 2138 397 
Q 2388 397 2633 464 
Q 2878 531 3122 666 
L 3122 134 
Q 2881 22 2623 -34 
Q 2366 -91 2075 -91 
Q 1284 -91 818 406 
Q 353 903 353 1747 
Q 353 2603 823 3093 
Q 1294 3584 2113 3584 
Q 2378 3584 2631 3529 
Q 2884 3475 3122 3366 
z
" transform="scale(0.015625)"/>
       <path id="DejaVuSans-68" d="M 3513 2113 
L 3513 0 
L 2938 0 
L 2938 2094 
Q 2938 2591 2744 2837 
Q 2550 3084 2163 3084 
Q 1697 3084 1428 2787 
Q 1159 2491 1159 1978 
L 1159 0 
L 581 0 
L 581 4863 
L 1159 4863 
L 1159 2956 
Q 1366 3272 1645 3428 
Q 1925 3584 2291 3584 
Q 2894 3584 3203 3211 
Q 3513 2838 3513 2113 
z
" transform="scale(0.015625)"/>
       <path id="DejaVuSans-61" d="M 2194 1759 
Q 1497 1759 1228 1600 
Q 959 1441 959 1056 
Q 959 750 1161 570 
Q 1363 391 1709 391 
Q 2188 391 2477 730 
Q 2766 1069 2766 1631 
L 2766 1759 
L 2194 1759 
z
M 3341 1997 
L 3341 0 
L 2766 0 
L 2766 531 
Q 2569 213 2275 61 
Q 1981 -91 1556 -91 
Q 1019 -91 701 211 
Q 384 513 384 1019 
Q 384 1609 779 1909 
Q 1175 2209 1959 2209 
L 2766 2209 
L 2766 2266 
Q 2766 2663 2505 2880 
Q 2244 3097 1772 3097 
Q 1472 3097 1187 3025 
Q 903 2953 641 2809 
L 641 3341 
Q 956 3463 1253 3523 
Q 1550 3584 1831 3584 
Q 2591 3584 2966 3190 
Q 3341 2797 3341 1997 
z
" transform="scale(0.015625)"/>
       <path id="DejaVuSans-6e" d="M 3513 2113 
L 3513 0 
L 2938 0 
L 2938 2094 
Q 2938 2591 2744 2837 
Q 2550 3084 2163 3084 
Q 1697 3084 1428 2787 
Q 1159 2491 1159 1978 
L 1159 0 
L 581 0 
L 581 3500 
L 1159 3500 
L 1159 2956 
Q 1366 3272 1645 3428 
Q 1925 3584 2291 3584 
Q 2894 3584 3203 3211 
Q 3513 2838 3513 2113 
z
" transform="scale(0.015625)"/>
       <path id="DejaVuSans-67" d="M 2906 1791 
Q 2906 2416 2648 2759 
Q 2391 3103 1925 3103 
Q 1463 3103 1205 2759 
Q 947 2416 947 1791 
Q 947 1169 1205 825 
Q 1463 481 1925 481 
Q 2391 481 2648 825 
Q 2906 1169 2906 1791 
z
M 3481 434 
Q 3481 -459 3084 -895 
Q 2688 -1331 1869 -1331 
Q 1566 -1331 1297 -1286 
Q 1028 -1241 775 -1147 
L 775 -588 
Q 1028 -725 1275 -790 
Q 1522 -856 1778 -856 
Q 2344 -856 2625 -561 
Q 2906 -266 2906 331 
L 2906 616 
Q 2728 306 2450 153 
Q 2172 0 1784 0 
Q 1141 0 747 490 
Q 353 981 353 1791 
Q 353 2603 747 3093 
Q 1141 3584 1784 3584 
Q 2172 3584 2450 3431 
Q 2728 3278 2906 2969 
L 2906 3500 
L 3481 3500 
L 3481 434 
z
" transform="scale(0.015625)"/>
       <path id="DejaVuSans-65" d="M 3597 1894 
L 3597 1613 
L 953 1613 
Q 991 1019 1311 708 
Q 1631 397 2203 397 
Q 2534 397 2845 478 
Q 3156 559 3463 722 
L 3463 178 
Q 3153 47 2828 -22 
Q 2503 -91 2169 -91 
Q 1331 -91 842 396 
Q 353 884 353 1716 
Q 353 2575 817 3079 
Q 1281 3584 2069 3584 
Q 2775 3584 3186 3129 
Q 3597 2675 3597 1894 
z
M 3022 2063 
Q 3016 2534 2758 2815 
Q 2500 3097 2075 3097 
Q 1594 3097 1305 2825 
Q 1016 2553 972 2059 
L 3022 2063 
z
" transform="scale(0.015625)"/>
      </defs>
      <use xlink:href="#DejaVuSans-42"/>
      <use xlink:href="#DejaVuSans-4f" x="66.853516"/>
      <use xlink:href="#DejaVuSans-4c" x="145.564453"/>
      <use xlink:href="#DejaVuSans-44" x="201.277344"/>
      <use xlink:href="#DejaVuSans-20" x="278.279297"/>
      <use xlink:href="#DejaVuSans-25" x="310.066406"/>
      <use xlink:href="#DejaVuSans-20" x="405.085938"/>
      <use xlink:href="#DejaVuSans-63" x="436.873047"/>
      <use xlink:href="#DejaVuSans-68" x="491.853516"/>
      <use xlink:href="#DejaVuSans-61" x="555.232422"/>
      <use xlink:href="#DejaVuSans-6e" x="616.511719"/>
      <use xlink:href="#DejaVuSans-67" x="679.890625"/>
      <use xlink:href="#DejaVuSans-65" x="743.367188"/>
     </g>
    </g>
   </g>
   <g id="line2d_16">
    <path d="M 86.4 99.937487 
L 94.628571 100.681866 
L 102.857143 101.54863 
L 111.085714 102.407227 
L 119.314286 102.942673 
L 127.542857 103.351316 
L 135.771429 103.202219 
L 144 103.009995 
L 152.228571 102.400066 
L 160.457143 101.894667 
L 168.685714 101.238709 
L 176.914286 100.572266 
L 185.142857 99.969626 
L 193.371429 99.499505 
L 201.6 99.555303 
L 209.828571 99.8707 
L 218.057143 99.593123 
L 226.285714 99.145721 
L 234.514286 98.807768 
L 242.742857 98.552207 
L 250.971429 98.127724 
L 259.2 98.101972 
L 267.428571 98.447125 
L 275.657143 99.144345 
L 283.885714 99.767626 
L 292.114286 100.561518 
L 300.342857 101.557967 
L 308.571429 102.702619 
L 316.8 103.671305 
L 325.028571 104.813341 
L 333.257143 106.160232 
L 341.485714 107.592876 
L 349.714286 108.96943 
L 357.942857 110.248393 
L 366.171429 111.431914 
L 374.4 112.709094 
L 382.628571 113.974031 
L 390.857143 114.994717 
L 399.085714 115.987401 
L 407.314286 116.843013 
L 415.542857 117.394567 
L 423.771429 117.884396 
L 432 118.461309 
L 440.228571 118.862646 
L 448.457143 119.156294 
L 456.685714 119.611859 
L 464.914286 120.054158 
L 473.142857 120.602731 
L 481.371429 121.112628 
L 489.6 121.706993 
" clip-path="url(#pa337edc851)" style="fill: none; stroke: #ff00ff; stroke-width: 1.5; stroke-linecap: square"/>
   </g>
   <g id="line2d_17">
    <path d="M 86.4 109.237382 
L 94.628571 109.237382 
L 102.857143 109.237382 
L 111.085714 109.542559 
L 119.314286 112.248781 
L 127.542857 113.011967 
L 135.771429 112.367724 
L 144 114.103335 
L 152.228571 113.139729 
L 160.457143 112.625028 
L 168.685714 111.241555 
L 176.914286 107.785761 
L 185.142857 107.527844 
L 193.371429 105.938512 
L 201.6 106.826087 
L 209.828571 107.352755 
L 218.057143 107.40297 
L 226.285714 107.061353 
L 234.514286 108.421573 
L 242.742857 108.048531 
L 250.971429 105.32012 
L 259.2 102.449744 
L 267.428571 99.933158 
L 275.657143 98.171219 
L 283.885714 96.438748 
L 292.114286 94.966074 
L 300.342857 94.098424 
L 308.571429 94.283122 
L 316.8 94.910094 
L 325.028571 94.984293 
L 333.257143 95.043872 
L 341.485714 95.251224 
L 349.714286 96.77476 
L 357.942857 99.205096 
L 366.171429 101.421073 
L 374.4 104.71617 
L 382.628571 107.576968 
L 390.857143 109.751087 
L 399.085714 112.468348 
L 407.314286 114.831808 
L 415.542857 115.185863 
L 423.771429 115.616649 
L 432 116.823889 
L 440.228571 117.894818 
L 448.457143 117.612167 
L 456.685714 116.791831 
L 464.914286 115.006725 
L 473.142857 114.55314 
L 481.371429 114.987707 
L 489.6 115.696053 
" clip-path="url(#pa337edc851)" style="fill: none; stroke: #ff00ff; stroke-opacity: 0.2; stroke-width: 1.5; stroke-linecap: square"/>
   </g>
   <g id="line2d_18">
    <path d="M 86.4 71.081377 
L 94.628571 70.579461 
L 102.857143 70.225191 
L 111.085714 70.377813 
L 119.314286 71.803719 
L 127.542857 72.287493 
L 135.771429 71.113721 
L 144 70.893515 
L 152.228571 70.485522 
L 160.457143 69.200116 
L 168.685714 67.664662 
L 176.914286 66.429392 
L 185.142857 65.085436 
L 193.371429 65.023753 
L 201.6 65.17452 
L 209.828571 66.637946 
L 218.057143 67.537347 
L 226.285714 67.857992 
L 234.514286 67.598156 
L 242.742857 68.890822 
L 250.971429 68.735193 
L 259.2 69.265894 
L 267.428571 69.574601 
L 275.657143 69.592047 
L 283.885714 69.549941 
L 292.114286 69.910514 
L 300.342857 69.824066 
L 308.571429 69.608348 
L 316.8 68.900905 
L 325.028571 69.157569 
L 333.257143 70.059658 
L 341.485714 71.632643 
L 349.714286 71.947533 
L 357.942857 71.648028 
L 366.171429 71.796127 
L 374.4 72.507392 
L 382.628571 72.409731 
L 390.857143 72.464358 
L 399.085714 72.58026 
L 407.314286 71.737846 
L 415.542857 70.16408 
L 423.771429 67.79121 
L 432 65.594233 
L 440.228571 63.102094 
L 448.457143 61.503695 
L 456.685714 62.297586 
L 464.914286 65.028247 
L 473.142857 68.510944 
L 481.371429 70.712869 
L 489.6 71.513677 
" clip-path="url(#pa337edc851)" style="fill: none; stroke: #ff00ff; stroke-opacity: 0.2; stroke-width: 1.5; stroke-linecap: square"/>
   </g>
   <g id="line2d_19">
    <path d="M 86.4 116.539142 
L 94.628571 116.539142 
L 102.857143 116.283212 
L 111.085714 116.65072 
L 119.314286 117.293414 
L 127.542857 118.420793 
L 135.771429 118.81006 
L 144 118.404371 
L 152.228571 117.770807 
L 160.457143 117.715454 
L 168.685714 117.439083 
L 176.914286 117.675128 
L 185.142857 117.704008 
L 193.371429 117.484914 
L 201.6 117.633642 
L 209.828571 117.303522 
L 218.057143 116.599395 
L 226.285714 116.151852 
L 234.514286 115.175303 
L 242.742857 113.925728 
L 250.971429 112.824486 
L 259.2 112.481831 
L 267.428571 112.404575 
L 275.657143 112.589781 
L 283.885714 112.880088 
L 292.114286 113.759708 
L 300.342857 115.169578 
L 308.571429 116.637081 
L 316.8 117.720065 
L 325.028571 118.436342 
L 333.257143 119.60669 
L 341.485714 120.99767 
L 349.714286 121.69833 
L 357.942857 122.27838 
L 366.171429 122.779008 
L 374.4 123.304558 
L 382.628571 123.989592 
L 390.857143 124.772979 
L 399.085714 125.705167 
L 407.314286 126.696214 
L 415.542857 127.957721 
L 423.771429 128.931964 
L 432 129.90965 
L 440.228571 130.581949 
L 448.457143 131.071203 
L 456.685714 131.216088 
L 464.914286 131.037281 
L 473.142857 130.792937 
L 481.371429 130.398136 
L 489.6 130.251903 
" clip-path="url(#pa337edc851)" style="fill: none; stroke: #ff00ff; stroke-opacity: 0.2; stroke-width: 1.5; stroke-linecap: square"/>
   </g>
   <g id="line2d_20">
    <path d="M 86.4 101.814466 
L 94.628571 102.26403 
L 102.857143 102.744193 
L 111.085714 103.772483 
L 119.314286 105.291138 
L 127.542857 105.509419 
L 135.771429 104.941513 
L 144 104.545822 
L 152.228571 103.711336 
L 160.457143 102.983764 
L 168.685714 102.03501 
L 176.914286 101.59396 
L 185.142857 100.230394 
L 193.371429 99.720401 
L 201.6 98.87016 
L 209.828571 99.127453 
L 218.057143 98.739881 
L 226.285714 98.247526 
L 234.514286 97.334549 
L 242.742857 96.86807 
L 250.971429 96.753544 
L 259.2 96.944135 
L 267.428571 97.023404 
L 275.657143 96.644384 
L 283.885714 96.868564 
L 292.114286 97.123767 
L 300.342857 97.487494 
L 308.571429 99.403624 
L 316.8 102.002322 
L 325.028571 104.860471 
L 333.257143 106.903595 
L 341.485714 108.770848 
L 349.714286 110.587138 
L 357.942857 113.054709 
L 366.171429 114.352565 
L 374.4 115.016015 
L 382.628571 114.654573 
L 390.857143 113.046827 
L 399.085714 112.317217 
L 407.314286 112.051388 
L 415.542857 111.845932 
L 423.771429 111.608198 
L 432 111.471766 
L 440.228571 110.489233 
L 448.457143 109.592523 
L 456.685714 109.648415 
L 464.914286 110.111144 
L 473.142857 109.530262 
L 481.371429 107.59315 
L 489.6 107.213481 
" clip-path="url(#pa337edc851)" style="fill: none; stroke: #ff00ff; stroke-opacity: 0.2; stroke-width: 1.5; stroke-linecap: square"/>
   </g>
   <g id="line2d_21">
    <path d="M 86.4 124.460549 
L 94.628571 124.460549 
L 102.857143 124.532758 
L 111.085714 124.699334 
L 119.314286 124.657698 
L 127.542857 125.046436 
L 135.771429 124.810889 
L 144 124.415165 
L 152.228571 123.838937 
L 160.457143 122.585068 
L 168.685714 121.075012 
L 176.914286 118.784485 
L 185.142857 117.392481 
L 193.371429 115.996424 
L 201.6 115.330223 
L 209.828571 114.797844 
L 218.057143 114.605494 
L 226.285714 114.609145 
L 234.514286 114.274648 
L 242.742857 113.644393 
L 250.971429 113.336827 
L 259.2 113.636409 
L 267.428571 114.586392 
L 275.657143 116.18141 
L 283.885714 117.690222 
L 292.114286 119.177193 
L 300.342857 120.899754 
L 308.571429 122.820942 
L 316.8 124.889439 
L 325.028571 126.782533 
L 333.257143 128.334378 
L 341.485714 129.325567 
L 349.714286 130.40859 
L 357.942857 131.453217 
L 366.171429 132.280885 
L 374.4 133.377807 
L 382.628571 134.619078 
L 390.857143 135.355102 
L 399.085714 135.463 
L 407.314286 135.715443 
L 415.542857 136.08536 
L 423.771429 136.244667 
L 432 136.80586 
L 440.228571 137.216972 
L 448.457143 137.986879 
L 456.685714 138.740574 
L 464.914286 138.279876 
L 473.142857 137.807354 
L 481.371429 138.319364 
L 489.6 139.215971 
" clip-path="url(#pa337edc851)" style="fill: none; stroke: #ff00ff; stroke-opacity: 0.2; stroke-width: 1.5; stroke-linecap: square"/>
   </g>
   <g id="line2d_22">
    <path d="M 86.4 120.651669 
L 94.628571 120.738148 
L 102.857143 121.105568 
L 111.085714 121.883896 
L 119.314286 121.844913 
L 127.542857 121.764926 
L 135.771429 122.531888 
L 144 122.43303 
L 152.228571 122.58364 
L 160.457143 121.835297 
L 168.685714 121.369466 
L 176.914286 121.376882 
L 185.142857 121.436904 
L 193.371429 121.641159 
L 201.6 121.242402 
L 209.828571 120.45639 
L 218.057143 118.857113 
L 226.285714 117.81587 
L 234.514286 117.149173 
L 242.742857 116.60258 
L 250.971429 116.197751 
L 259.2 116.736835 
L 267.428571 117.341871 
L 275.657143 118.11804 
L 283.885714 118.486535 
L 292.114286 118.588689 
L 300.342857 119.485691 
L 308.571429 120.035049 
L 316.8 120.462019 
L 325.028571 121.589287 
L 333.257143 122.752543 
L 341.485714 124.084556 
L 349.714286 125.018135 
L 357.942857 126.119353 
L 366.171429 126.994543 
L 374.4 127.819136 
L 382.628571 128.655592 
L 390.857143 130.225606 
L 399.085714 131.180707 
L 407.314286 132.011385 
L 415.542857 132.950383 
L 423.771429 134.283311 
L 432 135.535937 
L 440.228571 136.045002 
L 448.457143 136.384803 
L 456.685714 136.561688 
L 464.914286 137.553757 
L 473.142857 138.338453 
L 481.371429 138.709742 
L 489.6 138.74992 
" clip-path="url(#pa337edc851)" style="fill: none; stroke: #ff00ff; stroke-opacity: 0.2; stroke-width: 1.5; stroke-linecap: square"/>
   </g>
   <g id="line2d_23">
    <path d="M 86.4 47.116472 
L 94.628571 51.186883 
L 102.857143 57.855109 
L 111.085714 61.920932 
L 119.314286 63.708409 
L 127.542857 66.756618 
L 135.771429 68.594993 
L 144 69.905968 
L 152.228571 69.710345 
L 160.457143 70.428905 
L 168.685714 72.158528 
L 176.914286 74.666171 
L 185.142857 76.504377 
L 193.371429 78.890979 
L 201.6 83.006738 
L 209.828571 88.504468 
L 218.057143 90.755624 
L 226.285714 90.500293 
L 234.514286 91.503316 
L 242.742857 91.590373 
L 250.971429 91.000187 
L 259.2 90.233615 
L 267.428571 89.858773 
L 275.657143 91.081026 
L 283.885714 91.589823 
L 292.114286 92.351769 
L 300.342857 93.602157 
L 308.571429 93.819219 
L 316.8 94.469653 
L 325.028571 94.366657 
L 333.257143 95.279845 
L 341.485714 95.730355 
L 349.714286 97.03731 
L 357.942857 97.354973 
L 366.171429 99.032416 
L 374.4 100.566106 
L 382.628571 103.176248 
L 390.857143 105.470347 
L 399.085714 107.381152 
L 407.314286 109.414841 
L 415.542857 110.961215 
L 423.771429 111.744816 
L 432 112.095419 
L 440.228571 113.401207 
L 448.457143 114.056354 
L 456.685714 115.154277 
L 464.914286 115.569513 
L 473.142857 115.592295 
L 481.371429 115.234246 
L 489.6 114.714886 
" clip-path="url(#pa337edc851)" style="fill: none; stroke: #ff00ff; stroke-opacity: 0.2; stroke-width: 1.5; stroke-linecap: square"/>
   </g>
   <g id="line2d_24">
    <path d="M 86.4 88.223991 
L 94.628571 88.277093 
L 102.857143 88.532288 
L 111.085714 89.186905 
L 119.314286 89.715656 
L 127.542857 89.427803 
L 135.771429 88.776929 
L 144 88.468538 
L 152.228571 87.814269 
L 160.457143 86.764244 
L 168.685714 85.84583 
L 176.914286 84.636613 
L 185.142857 82.912182 
L 193.371429 81.557938 
L 201.6 79.951407 
L 209.828571 78.198107 
L 218.057143 76.73266 
L 226.285714 74.854033 
L 234.514286 73.005494 
L 242.742857 72.19824 
L 250.971429 72.217613 
L 259.2 73.050307 
L 267.428571 74.622686 
L 275.657143 75.743989 
L 283.885714 77.265244 
L 292.114286 79.254074 
L 300.342857 81.53803 
L 308.571429 83.928323 
L 316.8 85.558346 
L 325.028571 86.536773 
L 333.257143 87.792449 
L 341.485714 88.859008 
L 349.714286 90.00006 
L 357.942857 91.336417 
L 366.171429 92.567405 
L 374.4 94.167761 
L 382.628571 96.118653 
L 390.857143 97.552955 
L 399.085714 99.713032 
L 407.314286 101.787419 
L 415.542857 103.69657 
L 423.771429 105.394396 
L 432 107.232009 
L 440.228571 109.101864 
L 448.457143 110.824323 
L 456.685714 111.971544 
L 464.914286 112.536991 
L 473.142857 113.403205 
L 481.371429 115.121971 
L 489.6 116.966574 
" clip-path="url(#pa337edc851)" style="fill: none; stroke: #ff00ff; stroke-opacity: 0.2; stroke-width: 1.5; stroke-linecap: square"/>
   </g>
   <g id="line2d_25">
    <path d="M 86.4 135.850335 
L 94.628571 136.315618 
L 102.857143 137.712705 
L 111.085714 138.820699 
L 119.314286 138.214567 
L 127.542857 134.762886 
L 135.771429 132.784881 
L 144 131.316882 
L 152.228571 131.42864 
L 160.457143 131.430762 
L 168.685714 130.816686 
L 176.914286 130.618479 
L 185.142857 129.726568 
L 193.371429 128.807413 
L 201.6 128.726949 
L 209.828571 128.874694 
L 218.057143 128.842638 
L 226.285714 129.035589 
L 234.514286 129.120195 
L 242.742857 129.744509 
L 250.971429 129.919253 
L 259.2 130.901546 
L 267.428571 132.081933 
L 275.657143 133.107636 
L 283.885714 133.920648 
L 292.114286 134.162438 
L 300.342857 135.017284 
L 308.571429 136.284081 
L 316.8 137.129456 
L 325.028571 138.069522 
L 333.257143 139.157211 
L 341.485714 141.060486 
L 349.714286 143.427313 
L 357.942857 145.652457 
L 366.171429 147.641442 
L 374.4 149.426764 
L 382.628571 150.905577 
L 390.857143 152.080762 
L 399.085714 152.758324 
L 407.314286 153.086841 
L 415.542857 153.102677 
L 423.771429 153.925167 
L 432 155.142444 
L 440.228571 156.199281 
L 448.457143 156.982002 
L 456.685714 157.022418 
L 464.914286 156.758589 
L 473.142857 156.813442 
L 481.371429 157.285501 
L 489.6 157.108129 
" clip-path="url(#pa337edc851)" style="fill: none; stroke: #ff00ff; stroke-opacity: 0.2; stroke-width: 1.5; stroke-linecap: square"/>
   </g>
   <g id="line2d_26">
    <path d="M 86.4 107.621773 
L 94.628571 107.555359 
L 102.857143 106.858909 
L 111.085714 105.937314 
L 119.314286 103.779244 
L 127.542857 102.659716 
L 135.771429 102.121852 
L 144 101.809421 
L 152.228571 101.434229 
L 160.457143 100.98793 
L 168.685714 100.011881 
L 176.914286 98.759618 
L 185.142857 98.446507 
L 193.371429 98.414851 
L 201.6 98.592638 
L 209.828571 99.054905 
L 218.057143 99.515797 
L 226.285714 99.883019 
L 234.514286 100.443907 
L 242.742857 100.711994 
L 250.971429 101.251484 
L 259.2 102.014729 
L 267.428571 103.46561 
L 275.657143 104.90777 
L 283.885714 106.379847 
L 292.114286 107.965395 
L 300.342857 109.274805 
L 308.571429 110.477781 
L 316.8 111.689098 
L 325.028571 113.078151 
L 333.257143 115.118124 
L 341.485714 117.252201 
L 349.714286 118.683699 
L 357.942857 119.957928 
L 366.171429 121.220336 
L 374.4 122.877997 
L 382.628571 124.210863 
L 390.857143 125.665929 
L 399.085714 126.938714 
L 407.314286 127.90556 
L 415.542857 128.145627 
L 423.771429 128.551509 
L 432 129.138265 
L 440.228571 129.664677 
L 448.457143 129.665921 
L 456.685714 128.920078 
L 464.914286 128.592417 
L 473.142857 128.306654 
L 481.371429 128.667092 
L 489.6 129.280911 
" clip-path="url(#pa337edc851)" style="fill: none; stroke: #ff00ff; stroke-opacity: 0.2; stroke-width: 1.5; stroke-linecap: square"/>
   </g>
   <g id="line2d_27">
    <path d="M 86.4 64.848287 
L 94.628571 68.830144 
L 102.857143 71.117944 
L 111.085714 72.811263 
L 119.314286 72.793565 
L 127.542857 77.424681 
L 135.771429 79.861856 
L 144 78.7819 
L 152.228571 77.534601 
L 160.457143 78.443394 
L 168.685714 78.120764 
L 176.914286 78.455351 
L 185.142857 77.738636 
L 193.371429 77.081254 
L 201.6 77.687062 
L 209.828571 78.08365 
L 218.057143 76.795484 
L 226.285714 75.984857 
L 234.514286 74.869825 
L 242.742857 73.775334 
L 250.971429 73.457352 
L 259.2 73.26579 
L 267.428571 74.697508 
L 275.657143 77.860372 
L 283.885714 80.193479 
L 292.114286 82.817343 
L 300.342857 85.230069 
L 308.571429 87.528991 
L 316.8 88.842136 
L 325.028571 92.614487 
L 333.257143 96.41199 
L 341.485714 99.415053 
L 349.714286 102.556679 
L 357.942857 105.39998 
L 366.171429 107.370278 
L 374.4 107.716724 
L 382.628571 109.173716 
L 390.857143 109.957083 
L 399.085714 110.934696 
L 407.314286 111.224292 
L 415.542857 111.408858 
L 423.771429 112.255079 
L 432 113.230262 
L 440.228571 113.883085 
L 448.457143 114.584192 
L 456.685714 116.774199 
L 464.914286 119.633847 
L 473.142857 122.470056 
L 481.371429 124.611218 
L 489.6 127.137563 
" clip-path="url(#pa337edc851)" style="fill: none; stroke: #ff00ff; stroke-opacity: 0.2; stroke-width: 1.5; stroke-linecap: square"/>
   </g>
   <g id="line2d_28">
    <path d="M 86.4 111.804401 
L 94.628571 112.198577 
L 102.857143 112.378306 
L 111.085714 113.282805 
L 119.314286 113.960974 
L 127.542857 113.143048 
L 135.771429 111.710327 
L 144 111.041993 
L 152.228571 109.348731 
L 160.457143 107.736038 
L 168.685714 107.086025 
L 176.914286 106.085353 
L 185.142857 104.93018 
L 193.371429 103.436466 
L 201.6 101.621801 
L 209.828571 100.056673 
L 218.057143 98.733071 
L 226.285714 97.747116 
L 234.514286 96.797071 
L 242.742857 96.625913 
L 250.971429 96.518876 
L 259.2 96.242829 
L 267.428571 95.774989 
L 275.657143 95.734469 
L 283.885714 95.948368 
L 292.114286 96.661248 
L 300.342857 97.068257 
L 308.571429 97.604863 
L 316.8 97.482131 
L 325.028571 97.28401 
L 333.257143 97.462429 
L 341.485714 98.734904 
L 349.714286 99.493611 
L 357.942857 99.520182 
L 366.171429 99.726891 
L 374.4 101.012699 
L 382.628571 102.197785 
L 390.857143 103.593565 
L 399.085714 104.408189 
L 407.314286 105.653121 
L 415.542857 107.23052 
L 423.771429 108.26579 
L 432 108.555977 
L 440.228571 108.771563 
L 448.457143 109.611465 
L 456.685714 110.243606 
L 464.914286 110.541506 
L 473.142857 111.114027 
L 481.371429 111.710538 
L 489.6 112.634848 
" clip-path="url(#pa337edc851)" style="fill: none; stroke: #ff00ff; stroke-opacity: 0.2; stroke-width: 1.5; stroke-linecap: square"/>
   </g>
   <g id="line2d_29">
    <path d="M 167.04 241.92 
L 167.04 40.32 
" clip-path="url(#pa337edc851)" style="fill: none; stroke-dasharray: 5.55,2.4; stroke-dashoffset: 0; stroke: #000000; stroke-width: 1.5"/>
   </g>
   <g id="line2d_30">
    <path d="M 86.4 141.12 
L 489.6 141.12 
" clip-path="url(#pa337edc851)" style="fill: none; stroke-dasharray: 5.55,2.4; stroke-dashoffset: 0; stroke: #000000; stroke-width: 1.5"/>
   </g>
   <g id="patch_3">
    <path d="M 82.4 241.92 
L 82.4 40.32 
" style="fill: none; stroke: #000000; stroke-width: 0.8; stroke-linejoin: miter; stroke-linecap: square"/>
   </g>
   <g id="patch_4">
    <path d="M 86.4 245.92 
L 489.6 245.92 
" style="fill: none; stroke: #000000; stroke-width: 0.8; stroke-linejoin: miter; stroke-linecap: square"/>
   </g>
   <g id="text_11">
    <!-- all depths -->
    <g transform="translate(268.328125 34.32) scale(0.08 -0.08)">
     <defs>
      <path id="DejaVuSans-6c" d="M 603 4863 
L 1178 4863 
L 1178 0 
L 603 0 
L 603 4863 
z
" transform="scale(0.015625)"/>
      <path id="DejaVuSans-64" d="M 2906 2969 
L 2906 4863 
L 3481 4863 
L 3481 0 
L 2906 0 
L 2906 525 
Q 2725 213 2448 61 
Q 2172 -91 1784 -91 
Q 1150 -91 751 415 
Q 353 922 353 1747 
Q 353 2572 751 3078 
Q 1150 3584 1784 3584 
Q 2172 3584 2448 3432 
Q 2725 3281 2906 2969 
z
M 947 1747 
Q 947 1113 1208 752 
Q 1469 391 1925 391 
Q 2381 391 2643 752 
Q 2906 1113 2906 1747 
Q 2906 2381 2643 2742 
Q 2381 3103 1925 3103 
Q 1469 3103 1208 2742 
Q 947 2381 947 1747 
z
" transform="scale(0.015625)"/>
      <path id="DejaVuSans-70" d="M 1159 525 
L 1159 -1331 
L 581 -1331 
L 581 3500 
L 1159 3500 
L 1159 2969 
Q 1341 3281 1617 3432 
Q 1894 3584 2278 3584 
Q 2916 3584 3314 3078 
Q 3713 2572 3713 1747 
Q 3713 922 3314 415 
Q 2916 -91 2278 -91 
Q 1894 -91 1617 61 
Q 1341 213 1159 525 
z
M 3116 1747 
Q 3116 2381 2855 2742 
Q 2594 3103 2138 3103 
Q 1681 3103 1420 2742 
Q 1159 2381 1159 1747 
Q 1159 1113 1420 752 
Q 1681 391 2138 391 
Q 2594 391 2855 752 
Q 3116 1113 3116 1747 
z
" transform="scale(0.015625)"/>
      <path id="DejaVuSans-74" d="M 1172 4494 
L 1172 3500 
L 2356 3500 
L 2356 3053 
L 1172 3053 
L 1172 1153 
Q 1172 725 1289 603 
Q 1406 481 1766 481 
L 2356 481 
L 2356 0 
L 1766 0 
Q 1100 0 847 248 
Q 594 497 594 1153 
L 594 3053 
L 172 3053 
L 172 3500 
L 594 3500 
L 594 4494 
L 1172 4494 
z
" transform="scale(0.015625)"/>
      <path id="DejaVuSans-73" d="M 2834 3397 
L 2834 2853 
Q 2591 2978 2328 3040 
Q 2066 3103 1784 3103 
Q 1356 3103 1142 2972 
Q 928 2841 928 2578 
Q 928 2378 1081 2264 
Q 1234 2150 1697 2047 
L 1894 2003 
Q 2506 1872 2764 1633 
Q 3022 1394 3022 966 
Q 3022 478 2636 193 
Q 2250 -91 1575 -91 
Q 1294 -91 989 -36 
Q 684 19 347 128 
L 347 722 
Q 666 556 975 473 
Q 1284 391 1588 391 
Q 1994 391 2212 530 
Q 2431 669 2431 922 
Q 2431 1156 2273 1281 
Q 2116 1406 1581 1522 
L 1381 1569 
Q 847 1681 609 1914 
Q 372 2147 372 2553 
Q 372 3047 722 3315 
Q 1072 3584 1716 3584 
Q 2034 3584 2315 3537 
Q 2597 3491 2834 3397 
z
" transform="scale(0.015625)"/>
     </defs>
     <use xlink:href="#DejaVuSans-61"/>
     <use xlink:href="#DejaVuSans-6c" x="61.279297"/>
     <use xlink:href="#DejaVuSans-6c" x="89.0625"/>
     <use xlink:href="#DejaVuSans-20" x="116.845703"/>
     <use xlink:href="#DejaVuSans-64" x="148.632812"/>
     <use xlink:href="#DejaVuSans-65" x="212.109375"/>
     <use xlink:href="#DejaVuSans-70" x="273.632812"/>
     <use xlink:href="#DejaVuSans-74" x="337.109375"/>
     <use xlink:href="#DejaVuSans-68" x="376.318359"/>
     <use xlink:href="#DejaVuSans-73" x="439.697266"/>
    </g>
   </g>
   <g id="legend_1">
    <g id="patch_5">
     <path d="M 93.4 236.92 
L 145.009375 236.92 
Q 147.009375 236.92 147.009375 234.92 
L 147.009375 221.241875 
Q 147.009375 219.241875 145.009375 219.241875 
L 93.4 219.241875 
Q 91.4 219.241875 91.4 221.241875 
L 91.4 234.92 
Q 91.4 236.92 93.4 236.92 
z
" style="fill: #ffffff; opacity: 0.8; stroke: #cccccc; stroke-linejoin: miter"/>
    </g>
    <g id="line2d_31">
     <path d="M 95.4 227.340313 
L 105.4 227.340313 
L 115.4 227.340313 
" style="fill: none; stroke: #ff00ff; stroke-width: 1.5; stroke-linecap: square"/>
    </g>
    <g id="text_12">
     <!-- fgm -->
     <g transform="translate(123.4 230.840313) scale(0.1 -0.1)">
      <defs>
       <path id="DejaVuSans-66" d="M 2375 4863 
L 2375 4384 
L 1825 4384 
Q 1516 4384 1395 4259 
Q 1275 4134 1275 3809 
L 1275 3500 
L 2222 3500 
L 2222 3053 
L 1275 3053 
L 1275 0 
L 697 0 
L 697 3053 
L 147 3053 
L 147 3500 
L 697 3500 
L 697 3744 
Q 697 4328 969 4595 
Q 1241 4863 1831 4863 
L 2375 4863 
z
" transform="scale(0.015625)"/>
       <path id="DejaVuSans-6d" d="M 3328 2828 
Q 3544 3216 3844 3400 
Q 4144 3584 4550 3584 
Q 5097 3584 5394 3201 
Q 5691 2819 5691 2113 
L 5691 0 
L 5113 0 
L 5113 2094 
Q 5113 2597 4934 2840 
Q 4756 3084 4391 3084 
Q 3944 3084 3684 2787 
Q 3425 2491 3425 1978 
L 3425 0 
L 2847 0 
L 2847 2094 
Q 2847 2600 2669 2842 
Q 2491 3084 2119 3084 
Q 1678 3084 1418 2786 
Q 1159 2488 1159 1978 
L 1159 0 
L 581 0 
L 581 3500 
L 1159 3500 
L 1159 2956 
Q 1356 3278 1631 3431 
Q 1906 3584 2284 3584 
Q 2666 3584 2933 3390 
Q 3200 3197 3328 2828 
z
" transform="scale(0.015625)"/>
      </defs>
      <use xlink:href="#DejaVuSans-66"/>
      <use xlink:href="#DejaVuSans-67" x="35.205078"/>
      <use xlink:href="#DejaVuSans-6d" x="98.681641"/>
     </g>
    </g>
   </g>
  </g>
  <g id="axes_2">
   <g id="patch_6">
    <path d="M 86.4 443.52 
L 489.6 443.52 
L 489.6 292.32 
L 86.4 292.32 
z
" style="fill: #ffffff"/>
   </g>
   <g id="patch_7">
    <path d="M 90.432 367.92 
L 163.008 367.92 
L 163.008 308.848892 
L 90.432 308.848892 
z
" clip-path="url(#pb081cbe16d)" style="fill: #ff00ff; opacity: 0.6"/>
   </g>
   <g id="patch_8">
    <path d="M 171.072 367.92 
L 243.648 367.92 
L 243.648 307.932693 
L 171.072 307.932693 
z
" clip-path="url(#pb081cbe16d)" style="fill: #ff00ff; opacity: 0.6"/>
   </g>
   <g id="patch_9">
    <path d="M 251.712 367.92 
L 324.288 367.92 
L 324.288 304.028274 
L 251.712 304.028274 
z
" clip-path="url(#pb081cbe16d)" style="fill: #ff00ff; opacity: 0.6"/>
   </g>
   <g id="patch_10">
    <path d="M 332.352 367.92 
L 404.928 367.92 
L 404.928 321.193351 
L 332.352 321.193351 
z
" clip-path="url(#pb081cbe16d)" style="fill: #ff00ff; opacity: 0.6"/>
   </g>
   <g id="patch_11">
    <path d="M 412.992 367.92 
L 485.568 367.92 
L 485.568 335.461747 
L 412.992 335.461747 
z
" clip-path="url(#pb081cbe16d)" style="fill: #ff00ff; opacity: 0.6"/>
   </g>
   <g id="matplotlib.axis_3">
    <g id="xtick_7">
     <g id="line2d_32">
      <g>
       <use xlink:href="#m82ac2987f3" x="86.4" y="447.52" style="stroke: #000000; stroke-width: 0.8"/>
      </g>
     </g>
     <g id="text_13">
      <!-- 0 -->
      <g transform="translate(83.21875 462.118438) scale(0.1 -0.1)">
       <use xlink:href="#DejaVuSans-30"/>
      </g>
     </g>
    </g>
    <g id="xtick_8">
     <g id="line2d_33">
      <g>
       <use xlink:href="#m82ac2987f3" x="167.04" y="447.52" style="stroke: #000000; stroke-width: 0.8"/>
      </g>
     </g>
     <g id="text_14">
      <!-- 1 -->
      <g transform="translate(163.85875 462.118438) scale(0.1 -0.1)">
       <use xlink:href="#DejaVuSans-31"/>
      </g>
     </g>
    </g>
    <g id="xtick_9">
     <g id="line2d_34">
      <g>
       <use xlink:href="#m82ac2987f3" x="247.68" y="447.52" style="stroke: #000000; stroke-width: 0.8"/>
      </g>
     </g>
     <g id="text_15">
      <!-- 2 -->
      <g transform="translate(244.49875 462.118438) scale(0.1 -0.1)">
       <use xlink:href="#DejaVuSans-32"/>
      </g>
     </g>
    </g>
    <g id="xtick_10">
     <g id="line2d_35">
      <g>
       <use xlink:href="#m82ac2987f3" x="328.32" y="447.52" style="stroke: #000000; stroke-width: 0.8"/>
      </g>
     </g>
     <g id="text_16">
      <!-- 3 -->
      <g transform="translate(325.13875 462.118438) scale(0.1 -0.1)">
       <defs>
        <path id="DejaVuSans-33" d="M 2597 2516 
Q 3050 2419 3304 2112 
Q 3559 1806 3559 1356 
Q 3559 666 3084 287 
Q 2609 -91 1734 -91 
Q 1441 -91 1130 -33 
Q 819 25 488 141 
L 488 750 
Q 750 597 1062 519 
Q 1375 441 1716 441 
Q 2309 441 2620 675 
Q 2931 909 2931 1356 
Q 2931 1769 2642 2001 
Q 2353 2234 1838 2234 
L 1294 2234 
L 1294 2753 
L 1863 2753 
Q 2328 2753 2575 2939 
Q 2822 3125 2822 3475 
Q 2822 3834 2567 4026 
Q 2313 4219 1838 4219 
Q 1578 4219 1281 4162 
Q 984 4106 628 3988 
L 628 4550 
Q 988 4650 1302 4700 
Q 1616 4750 1894 4750 
Q 2613 4750 3031 4423 
Q 3450 4097 3450 3541 
Q 3450 3153 3228 2886 
Q 3006 2619 2597 2516 
z
" transform="scale(0.015625)"/>
       </defs>
       <use xlink:href="#DejaVuSans-33"/>
      </g>
     </g>
    </g>
    <g id="xtick_11">
     <g id="line2d_36">
      <g>
       <use xlink:href="#m82ac2987f3" x="408.96" y="447.52" style="stroke: #000000; stroke-width: 0.8"/>
      </g>
     </g>
     <g id="text_17">
      <!-- 4 -->
      <g transform="translate(405.77875 462.118438) scale(0.1 -0.1)">
       <defs>
        <path id="DejaVuSans-34" d="M 2419 4116 
L 825 1625 
L 2419 1625 
L 2419 4116 
z
M 2253 4666 
L 3047 4666 
L 3047 1625 
L 3713 1625 
L 3713 1100 
L 3047 1100 
L 3047 0 
L 2419 0 
L 2419 1100 
L 313 1100 
L 313 1709 
L 2253 4666 
z
" transform="scale(0.015625)"/>
       </defs>
       <use xlink:href="#DejaVuSans-34"/>
      </g>
     </g>
    </g>
    <g id="xtick_12">
     <g id="line2d_37">
      <g>
       <use xlink:href="#m82ac2987f3" x="489.6" y="447.52" style="stroke: #000000; stroke-width: 0.8"/>
      </g>
     </g>
     <g id="text_18">
      <!-- 5 -->
      <g transform="translate(486.41875 462.118438) scale(0.1 -0.1)">
       <use xlink:href="#DejaVuSans-35"/>
      </g>
     </g>
    </g>
    <g id="text_19">
     <!-- relative distance from ROI center ($\sigma$) -->
     <g transform="translate(214.48 474.276875) scale(0.08 -0.08)">
      <defs>
       <path id="DejaVuSans-72" d="M 2631 2963 
Q 2534 3019 2420 3045 
Q 2306 3072 2169 3072 
Q 1681 3072 1420 2755 
Q 1159 2438 1159 1844 
L 1159 0 
L 581 0 
L 581 3500 
L 1159 3500 
L 1159 2956 
Q 1341 3275 1631 3429 
Q 1922 3584 2338 3584 
Q 2397 3584 2469 3576 
Q 2541 3569 2628 3553 
L 2631 2963 
z
" transform="scale(0.015625)"/>
       <path id="DejaVuSans-69" d="M 603 3500 
L 1178 3500 
L 1178 0 
L 603 0 
L 603 3500 
z
M 603 4863 
L 1178 4863 
L 1178 4134 
L 603 4134 
L 603 4863 
z
" transform="scale(0.015625)"/>
       <path id="DejaVuSans-76" d="M 191 3500 
L 800 3500 
L 1894 563 
L 2988 3500 
L 3597 3500 
L 2284 0 
L 1503 0 
L 191 3500 
z
" transform="scale(0.015625)"/>
       <path id="DejaVuSans-6f" d="M 1959 3097 
Q 1497 3097 1228 2736 
Q 959 2375 959 1747 
Q 959 1119 1226 758 
Q 1494 397 1959 397 
Q 2419 397 2687 759 
Q 2956 1122 2956 1747 
Q 2956 2369 2687 2733 
Q 2419 3097 1959 3097 
z
M 1959 3584 
Q 2709 3584 3137 3096 
Q 3566 2609 3566 1747 
Q 3566 888 3137 398 
Q 2709 -91 1959 -91 
Q 1206 -91 779 398 
Q 353 888 353 1747 
Q 353 2609 779 3096 
Q 1206 3584 1959 3584 
z
" transform="scale(0.015625)"/>
       <path id="DejaVuSans-52" d="M 2841 2188 
Q 3044 2119 3236 1894 
Q 3428 1669 3622 1275 
L 4263 0 
L 3584 0 
L 2988 1197 
Q 2756 1666 2539 1819 
Q 2322 1972 1947 1972 
L 1259 1972 
L 1259 0 
L 628 0 
L 628 4666 
L 2053 4666 
Q 2853 4666 3247 4331 
Q 3641 3997 3641 3322 
Q 3641 2881 3436 2590 
Q 3231 2300 2841 2188 
z
M 1259 4147 
L 1259 2491 
L 2053 2491 
Q 2509 2491 2742 2702 
Q 2975 2913 2975 3322 
Q 2975 3731 2742 3939 
Q 2509 4147 2053 4147 
L 1259 4147 
z
" transform="scale(0.015625)"/>
       <path id="DejaVuSans-49" d="M 628 4666 
L 1259 4666 
L 1259 0 
L 628 0 
L 628 4666 
z
" transform="scale(0.015625)"/>
       <path id="DejaVuSans-28" d="M 1984 4856 
Q 1566 4138 1362 3434 
Q 1159 2731 1159 2009 
Q 1159 1288 1364 580 
Q 1569 -128 1984 -844 
L 1484 -844 
Q 1016 -109 783 600 
Q 550 1309 550 2009 
Q 550 2706 781 3412 
Q 1013 4119 1484 4856 
L 1984 4856 
z
" transform="scale(0.015625)"/>
       <path id="DejaVuSans-Oblique-3c3" d="M 2219 3044 
Q 1744 3044 1422 2700 
Q 1081 2341 969 1747 
Q 844 1119 1044 756 
Q 1241 397 1706 397 
Q 2166 397 2503 759 
Q 2844 1122 2966 1747 
Q 3075 2319 2881 2700 
Q 2700 3044 2219 3044 
z
M 2309 3503 
L 4219 3500 
L 4106 2925 
L 3463 2925 
Q 3706 2438 3575 1747 
Q 3406 888 2884 400 
Q 2359 -91 1609 -91 
Q 856 -91 525 400 
Q 194 888 363 1747 
Q 528 2609 1050 3097 
Q 1484 3503 2309 3503 
z
" transform="scale(0.015625)"/>
       <path id="DejaVuSans-29" d="M 513 4856 
L 1013 4856 
Q 1481 4119 1714 3412 
Q 1947 2706 1947 2009 
Q 1947 1309 1714 600 
Q 1481 -109 1013 -844 
L 513 -844 
Q 928 -128 1133 580 
Q 1338 1288 1338 2009 
Q 1338 2731 1133 3434 
Q 928 4138 513 4856 
z
" transform="scale(0.015625)"/>
      </defs>
      <use xlink:href="#DejaVuSans-72" transform="translate(0 0.015625)"/>
      <use xlink:href="#DejaVuSans-65" transform="translate(41.113281 0.015625)"/>
      <use xlink:href="#DejaVuSans-6c" transform="translate(102.636719 0.015625)"/>
      <use xlink:href="#DejaVuSans-61" transform="translate(130.419922 0.015625)"/>
      <use xlink:href="#DejaVuSans-74" transform="translate(191.699219 0.015625)"/>
      <use xlink:href="#DejaVuSans-69" transform="translate(230.908203 0.015625)"/>
      <use xlink:href="#DejaVuSans-76" transform="translate(258.691406 0.015625)"/>
      <use xlink:href="#DejaVuSans-65" transform="translate(317.871094 0.015625)"/>
      <use xlink:href="#DejaVuSans-20" transform="translate(379.394531 0.015625)"/>
      <use xlink:href="#DejaVuSans-64" transform="translate(411.181641 0.015625)"/>
      <use xlink:href="#DejaVuSans-69" transform="translate(474.658203 0.015625)"/>
      <use xlink:href="#DejaVuSans-73" transform="translate(502.441406 0.015625)"/>
      <use xlink:href="#DejaVuSans-74" transform="translate(554.541016 0.015625)"/>
      <use xlink:href="#DejaVuSans-61" transform="translate(593.75 0.015625)"/>
      <use xlink:href="#DejaVuSans-6e" transform="translate(655.029297 0.015625)"/>
      <use xlink:href="#DejaVuSans-63" transform="translate(718.408203 0.015625)"/>
      <use xlink:href="#DejaVuSans-65" transform="translate(773.388672 0.015625)"/>
      <use xlink:href="#DejaVuSans-20" transform="translate(834.912109 0.015625)"/>
      <use xlink:href="#DejaVuSans-66" transform="translate(866.699219 0.015625)"/>
      <use xlink:href="#DejaVuSans-72" transform="translate(901.904297 0.015625)"/>
      <use xlink:href="#DejaVuSans-6f" transform="translate(943.017578 0.015625)"/>
      <use xlink:href="#DejaVuSans-6d" transform="translate(1004.199219 0.015625)"/>
      <use xlink:href="#DejaVuSans-20" transform="translate(1101.611328 0.015625)"/>
      <use xlink:href="#DejaVuSans-52" transform="translate(1133.398438 0.015625)"/>
      <use xlink:href="#DejaVuSans-4f" transform="translate(1202.880859 0.015625)"/>
      <use xlink:href="#DejaVuSans-49" transform="translate(1281.591797 0.015625)"/>
      <use xlink:href="#DejaVuSans-20" transform="translate(1311.083984 0.015625)"/>
      <use xlink:href="#DejaVuSans-63" transform="translate(1342.871094 0.015625)"/>
      <use xlink:href="#DejaVuSans-65" transform="translate(1397.851562 0.015625)"/>
      <use xlink:href="#DejaVuSans-6e" transform="translate(1459.375 0.015625)"/>
      <use xlink:href="#DejaVuSans-74" transform="translate(1522.753906 0.015625)"/>
      <use xlink:href="#DejaVuSans-65" transform="translate(1561.962891 0.015625)"/>
      <use xlink:href="#DejaVuSans-72" transform="translate(1623.486328 0.015625)"/>
      <use xlink:href="#DejaVuSans-20" transform="translate(1664.599609 0.015625)"/>
      <use xlink:href="#DejaVuSans-28" transform="translate(1696.386719 0.015625)"/>
      <use xlink:href="#DejaVuSans-Oblique-3c3" transform="translate(1735.400391 0.015625)"/>
      <use xlink:href="#DejaVuSans-29" transform="translate(1798.779297 0.015625)"/>
     </g>
    </g>
   </g>
   <g id="matplotlib.axis_4">
    <g id="ytick_10">
     <g id="line2d_38">
      <g>
       <use xlink:href="#m092a2acb5f" x="82.4" y="443.52" style="stroke: #000000; stroke-width: 0.8"/>
      </g>
     </g>
     <g id="text_20">
      <!-- −1.0 -->
      <g transform="translate(51.117187 447.319219) scale(0.1 -0.1)">
       <use xlink:href="#DejaVuSans-2212"/>
       <use xlink:href="#DejaVuSans-31" x="83.789062"/>
       <use xlink:href="#DejaVuSans-2e" x="147.412109"/>
       <use xlink:href="#DejaVuSans-30" x="179.199219"/>
      </g>
     </g>
    </g>
    <g id="ytick_11">
     <g id="line2d_39">
      <g>
       <use xlink:href="#m092a2acb5f" x="82.4" y="405.72" style="stroke: #000000; stroke-width: 0.8"/>
      </g>
     </g>
     <g id="text_21">
      <!-- −0.5 -->
      <g transform="translate(51.117187 409.519219) scale(0.1 -0.1)">
       <use xlink:href="#DejaVuSans-2212"/>
       <use xlink:href="#DejaVuSans-30" x="83.789062"/>
       <use xlink:href="#DejaVuSans-2e" x="147.412109"/>
       <use xlink:href="#DejaVuSans-35" x="179.199219"/>
      </g>
     </g>
    </g>
    <g id="ytick_12">
     <g id="line2d_40">
      <g>
       <use xlink:href="#m092a2acb5f" x="82.4" y="367.92" style="stroke: #000000; stroke-width: 0.8"/>
      </g>
     </g>
     <g id="text_22">
      <!-- 0.0 -->
      <g transform="translate(59.496875 371.719219) scale(0.1 -0.1)">
       <use xlink:href="#DejaVuSans-30"/>
       <use xlink:href="#DejaVuSans-2e" x="63.623047"/>
       <use xlink:href="#DejaVuSans-30" x="95.410156"/>
      </g>
     </g>
    </g>
    <g id="ytick_13">
     <g id="line2d_41">
      <g>
       <use xlink:href="#m092a2acb5f" x="82.4" y="330.12" style="stroke: #000000; stroke-width: 0.8"/>
      </g>
     </g>
     <g id="text_23">
      <!-- 0.5 -->
      <g transform="translate(59.496875 333.919219) scale(0.1 -0.1)">
       <use xlink:href="#DejaVuSans-30"/>
       <use xlink:href="#DejaVuSans-2e" x="63.623047"/>
       <use xlink:href="#DejaVuSans-35" x="95.410156"/>
      </g>
     </g>
    </g>
    <g id="ytick_14">
     <g id="line2d_42">
      <g>
       <use xlink:href="#m092a2acb5f" x="82.4" y="292.32" style="stroke: #000000; stroke-width: 0.8"/>
      </g>
     </g>
     <g id="text_24">
      <!-- 1.0 -->
      <g transform="translate(59.496875 296.119219) scale(0.1 -0.1)">
       <use xlink:href="#DejaVuSans-31"/>
       <use xlink:href="#DejaVuSans-2e" x="63.623047"/>
       <use xlink:href="#DejaVuSans-30" x="95.410156"/>
      </g>
     </g>
    </g>
    <g id="text_25">
     <!-- Binned Avg -->
     <g transform="translate(45.453437 390.525625) rotate(-90) scale(0.08 -0.08)">
      <defs>
       <path id="DejaVuSans-41" d="M 2188 4044 
L 1331 1722 
L 3047 1722 
L 2188 4044 
z
M 1831 4666 
L 2547 4666 
L 4325 0 
L 3669 0 
L 3244 1197 
L 1141 1197 
L 716 0 
L 50 0 
L 1831 4666 
z
" transform="scale(0.015625)"/>
      </defs>
      <use xlink:href="#DejaVuSans-42"/>
      <use xlink:href="#DejaVuSans-69" x="68.603516"/>
      <use xlink:href="#DejaVuSans-6e" x="96.386719"/>
      <use xlink:href="#DejaVuSans-6e" x="159.765625"/>
      <use xlink:href="#DejaVuSans-65" x="223.144531"/>
      <use xlink:href="#DejaVuSans-64" x="284.667969"/>
      <use xlink:href="#DejaVuSans-20" x="348.144531"/>
      <use xlink:href="#DejaVuSans-41" x="379.931641"/>
      <use xlink:href="#DejaVuSans-76" x="442.464844"/>
      <use xlink:href="#DejaVuSans-67" x="501.644531"/>
     </g>
    </g>
   </g>
   <g id="LineCollection_1">
    <path d="M 126.72 319.913579 
L 126.72 297.784205 
" clip-path="url(#pb081cbe16d)" style="fill: none; stroke: #000000; stroke-width: 1.5"/>
    <path d="M 207.36 316.150977 
L 207.36 299.714409 
" clip-path="url(#pb081cbe16d)" style="fill: none; stroke: #000000; stroke-width: 1.5"/>
    <path d="M 288 311.84254 
L 288 296.214008 
" clip-path="url(#pb081cbe16d)" style="fill: none; stroke: #000000; stroke-width: 1.5"/>
    <path d="M 368.64 329.583362 
L 368.64 312.803341 
" clip-path="url(#pb081cbe16d)" style="fill: none; stroke: #000000; stroke-width: 1.5"/>
    <path d="M 449.28 344.557282 
L 449.28 326.366211 
" clip-path="url(#pb081cbe16d)" style="fill: none; stroke: #000000; stroke-width: 1.5"/>
   </g>
   <g id="line2d_43">
    <defs>
     <path id="mb56853f09f" d="M 5 0 
L -5 -0 
" style="stroke: #000000"/>
    </defs>
    <g clip-path="url(#pb081cbe16d)">
     <use xlink:href="#mb56853f09f" x="126.72" y="319.913579" style="stroke: #000000"/>
     <use xlink:href="#mb56853f09f" x="207.36" y="316.150977" style="stroke: #000000"/>
     <use xlink:href="#mb56853f09f" x="288" y="311.84254" style="stroke: #000000"/>
     <use xlink:href="#mb56853f09f" x="368.64" y="329.583362" style="stroke: #000000"/>
     <use xlink:href="#mb56853f09f" x="449.28" y="344.557282" style="stroke: #000000"/>
    </g>
   </g>
   <g id="line2d_44">
    <g clip-path="url(#pb081cbe16d)">
     <use xlink:href="#mb56853f09f" x="126.72" y="297.784205" style="stroke: #000000"/>
     <use xlink:href="#mb56853f09f" x="207.36" y="299.714409" style="stroke: #000000"/>
     <use xlink:href="#mb56853f09f" x="288" y="296.214008" style="stroke: #000000"/>
     <use xlink:href="#mb56853f09f" x="368.64" y="312.803341" style="stroke: #000000"/>
     <use xlink:href="#mb56853f09f" x="449.28" y="326.366211" style="stroke: #000000"/>
    </g>
   </g>
   <g id="line2d_45">
    <path d="M 126.72 259.984205 
L 126.72 252.424205 
L 449.28 252.424205 
L 449.28 259.984205 
" clip-path="url(#pb081cbe16d)" style="fill: none; stroke: #000000; stroke-width: 1.5; stroke-linecap: square"/>
   </g>
   <g id="line2d_46">
    <path d="M 86.4 367.92 
L 489.6 367.92 
" clip-path="url(#pb081cbe16d)" style="fill: none; stroke-dasharray: 5.55,2.4; stroke-dashoffset: 0; stroke: #000000; stroke-width: 1.5"/>
   </g>
   <g id="patch_12">
    <path d="M 82.4 443.52 
L 82.4 292.32 
" style="fill: none; stroke: #000000; stroke-width: 0.8; stroke-linejoin: miter; stroke-linecap: square"/>
   </g>
   <g id="patch_13">
    <path d="M 86.4 447.52 
L 489.6 447.52 
" style="fill: none; stroke: #000000; stroke-width: 0.8; stroke-linejoin: miter; stroke-linecap: square"/>
   </g>
   <g id="text_26">
    <!-- * -->
    <g transform="translate(285 256.204205) scale(0.12 -0.12)">
     <defs>
      <path id="DejaVuSans-2a" d="M 3009 3897 
L 1888 3291 
L 3009 2681 
L 2828 2375 
L 1778 3009 
L 1778 1831 
L 1422 1831 
L 1422 3009 
L 372 2375 
L 191 2681 
L 1313 3291 
L 191 3897 
L 372 4206 
L 1422 3572 
L 1422 4750 
L 1778 4750 
L 1778 3572 
L 2828 4206 
L 3009 3897 
z
" transform="scale(0.015625)"/>
     </defs>
     <use xlink:href="#DejaVuSans-2a"/>
    </g>
   </g>
   <g id="text_27">
    <!-- * -->
    <g transform="translate(123.72 295.28858) scale(0.12 -0.12)">
     <use xlink:href="#DejaVuSans-2a"/>
    </g>
   </g>
   <g id="text_28">
    <!-- * -->
    <g transform="translate(204.36 297.218784) scale(0.12 -0.12)">
     <use xlink:href="#DejaVuSans-2a"/>
    </g>
   </g>
   <g id="text_29">
    <!-- * -->
    <g transform="translate(285 293.718383) scale(0.12 -0.12)">
     <use xlink:href="#DejaVuSans-2a"/>
    </g>
   </g>
   <g id="text_30">
    <!-- * -->
    <g transform="translate(365.64 310.307716) scale(0.12 -0.12)">
     <use xlink:href="#DejaVuSans-2a"/>
    </g>
   </g>
   <g id="text_31">
    <!-- * -->
    <g transform="translate(446.28 323.870586) scale(0.12 -0.12)">
     <use xlink:href="#DejaVuSans-2a"/>
    </g>
   </g>
  </g>
 </g>
 <defs>
  <clipPath id="pa337edc851">
   <rect x="86.4" y="40.32" width="403.2" height="201.6"/>
  </clipPath>
  <clipPath id="pb081cbe16d">
   <rect x="86.4" y="292.32" width="403.2" height="151.2"/>
  </clipPath>
 </defs>
</svg>
