<?xml version="1.0" encoding="utf-8" standalone="no"?>
<!DOCTYPE svg PUBLIC "-//W3C//DTD SVG 1.1//EN"
  "http://www.w3.org/Graphics/SVG/1.1/DTD/svg11.dtd">
<svg xmlns:xlink="http://www.w3.org/1999/xlink" width="360pt" height="432pt" viewBox="0 0 360 432" xmlns="http://www.w3.org/2000/svg" version="1.1">
 <metadata>
  <rdf:RDF xmlns:dc="http://purl.org/dc/elements/1.1/" xmlns:cc="http://creativecommons.org/ns#" xmlns:rdf="http://www.w3.org/1999/02/22-rdf-syntax-ns#">
   <cc:Work>
    <dc:type rdf:resource="http://purl.org/dc/dcmitype/StillImage"/>
    <dc:date>2026-05-26T10:35:07.723158</dc:date>
    <dc:format>image/svg+xml</dc:format>
    <dc:creator>
     <cc:Agent>
      <dc:title>Matplotlib v3.8.0, https://matplotlib.org/</dc:title>
     </cc:Agent>
    </dc:creator>
   </cc:Work>
  </rdf:RDF>
 </metadata>
 <defs>
  <style type="text/css">*{stroke-linejoin: round; stroke-linecap: butt}</style>
 </defs>
 <g id="figure_1">
  <g id="patch_1">
   <path d="M 0 432 
L 360 432 
L 360 0 
L 0 0 
z
" style="fill: #ffffff"/>
  </g>
  <g id="axes_1">
   <g id="patch_2">
    <path d="M 54 388.8 
L 306 388.8 
L 306 302.4 
L 54 302.4 
z
" style="fill: #ffffff"/>
   </g>
   <g id="PolyCollection_1">
    <defs>
     <path id="m36a9ae5800" d="M 65.454545 -116.295579 
L 65.454545 -111.423942 
L 70.12987 -111.31048 
L 74.805195 -111.120956 
L 79.480519 -110.989958 
L 84.155844 -110.864507 
L 88.831169 -110.712806 
L 93.506494 -110.61356 
L 98.181818 -110.60521 
L 102.857143 -110.764077 
L 107.532468 -110.938232 
L 112.207792 -111.223093 
L 116.883117 -111.459134 
L 121.558442 -111.726649 
L 126.233766 -112.009095 
L 130.909091 -112.137618 
L 135.584416 -112.159225 
L 140.25974 -112.259361 
L 144.935065 -112.377731 
L 149.61039 -112.500236 
L 154.285714 -112.655426 
L 158.961039 -112.816674 
L 163.636364 -112.849262 
L 168.311688 -112.820548 
L 172.987013 -112.759743 
L 177.662338 -112.643976 
L 182.337662 -112.556189 
L 187.012987 -112.43906 
L 191.688312 -112.328206 
L 196.363636 -112.189683 
L 201.038961 -112.007366 
L 205.714286 -111.77971 
L 210.38961 -111.601257 
L 215.064935 -111.450535 
L 219.74026 -111.254608 
L 224.415584 -111.035185 
L 229.090909 -110.779099 
L 233.766234 -110.497191 
L 238.441558 -110.242845 
L 243.116883 -109.992152 
L 247.792208 -109.771541 
L 252.467532 -109.604007 
L 257.142857 -109.387502 
L 261.818182 -109.166448 
L 266.493506 -108.99324 
L 271.168831 -108.822762 
L 275.844156 -108.709869 
L 280.519481 -108.559192 
L 285.194805 -108.385923 
L 289.87013 -108.202596 
L 294.545455 -108.064987 
L 294.545455 -111.080997 
L 294.545455 -111.080997 
L 289.87013 -111.22895 
L 285.194805 -111.436382 
L 280.519481 -111.612092 
L 275.844156 -111.734969 
L 271.168831 -111.882255 
L 266.493506 -112.143366 
L 261.818182 -112.382464 
L 257.142857 -112.671344 
L 252.467532 -112.954017 
L 247.792208 -113.130016 
L 243.116883 -113.410966 
L 238.441558 -113.725757 
L 233.766234 -114.072652 
L 229.090909 -114.473893 
L 224.415584 -114.821515 
L 219.74026 -115.046009 
L 215.064935 -115.283136 
L 210.38961 -115.394865 
L 205.714286 -115.514271 
L 201.038961 -115.671938 
L 196.363636 -115.791363 
L 191.688312 -115.852219 
L 187.012987 -115.873925 
L 182.337662 -115.947827 
L 177.662338 -116.014086 
L 172.987013 -116.060076 
L 168.311688 -116.071707 
L 163.636364 -115.98862 
L 158.961039 -115.884994 
L 154.285714 -115.654289 
L 149.61039 -115.45607 
L 144.935065 -115.328236 
L 140.25974 -115.251859 
L 135.584416 -115.287174 
L 130.909091 -115.478851 
L 126.233766 -115.465058 
L 121.558442 -115.158777 
L 116.883117 -114.927734 
L 112.207792 -114.913912 
L 107.532468 -114.776878 
L 102.857143 -114.780337 
L 98.181818 -114.762129 
L 93.506494 -114.739586 
L 88.831169 -114.894085 
L 84.155844 -115.229124 
L 79.480519 -115.302818 
L 74.805195 -115.579215 
L 70.12987 -116.024065 
L 65.454545 -116.295579 
z
" style="stroke: #9400d3; stroke-opacity: 0.4"/>
    </defs>
    <g clip-path="url(#p8c64c1cd96)">
     <use xlink:href="#m36a9ae5800" x="0" y="432" style="fill: #9400d3; fill-opacity: 0.4; stroke: #9400d3; stroke-opacity: 0.4"/>
    </g>
   </g>
   <g id="matplotlib.axis_1">
    <g id="xtick_1">
     <g id="line2d_1">
      <defs>
       <path id="m50f3c4de71" d="M 0 0 
L 0 3.5 
" style="stroke: #000000; stroke-width: 0.8"/>
      </defs>
      <g>
       <use xlink:href="#m50f3c4de71" x="65.454545" y="392.8" style="stroke: #000000; stroke-width: 0.8"/>
      </g>
     </g>
     <g id="text_1">
      <!-- 0 -->
      <g transform="translate(62.273295 407.398438) scale(0.1 -0.1)">
       <defs>
        <path id="DejaVuSans-30" d="M 2034 4250 
Q 1547 4250 1301 3770 
Q 1056 3291 1056 2328 
Q 1056 1369 1301 889 
Q 1547 409 2034 409 
Q 2525 409 2770 889 
Q 3016 1369 3016 2328 
Q 3016 3291 2770 3770 
Q 2525 4250 2034 4250 
z
M 2034 4750 
Q 2819 4750 3233 4129 
Q 3647 3509 3647 2328 
Q 3647 1150 3233 529 
Q 2819 -91 2034 -91 
Q 1250 -91 836 529 
Q 422 1150 422 2328 
Q 422 3509 836 4129 
Q 1250 4750 2034 4750 
z
" transform="scale(0.015625)"/>
       </defs>
       <use xlink:href="#DejaVuSans-30"/>
      </g>
     </g>
    </g>
    <g id="xtick_2">
     <g id="line2d_2">
      <g>
       <use xlink:href="#m50f3c4de71" x="111.272727" y="392.8" style="stroke: #000000; stroke-width: 0.8"/>
      </g>
     </g>
     <g id="text_2">
      <!-- 1 -->
      <g transform="translate(108.091477 407.398438) scale(0.1 -0.1)">
       <defs>
        <path id="DejaVuSans-31" d="M 794 531 
L 1825 531 
L 1825 4091 
L 703 3866 
L 703 4441 
L 1819 4666 
L 2450 4666 
L 2450 531 
L 3481 531 
L 3481 0 
L 794 0 
L 794 531 
z
" transform="scale(0.015625)"/>
       </defs>
       <use xlink:href="#DejaVuSans-31"/>
      </g>
     </g>
    </g>
    <g id="xtick_3">
     <g id="line2d_3">
      <g>
       <use xlink:href="#m50f3c4de71" x="157.090909" y="392.8" style="stroke: #000000; stroke-width: 0.8"/>
      </g>
     </g>
     <g id="text_3">
      <!-- 2 -->
      <g transform="translate(153.909659 407.398438) scale(0.1 -0.1)">
       <defs>
        <path id="DejaVuSans-32" d="M 1228 531 
L 3431 531 
L 3431 0 
L 469 0 
L 469 531 
Q 828 903 1448 1529 
Q 2069 2156 2228 2338 
Q 2531 2678 2651 2914 
Q 2772 3150 2772 3378 
Q 2772 3750 2511 3984 
Q 2250 4219 1831 4219 
Q 1534 4219 1204 4116 
Q 875 4013 500 3803 
L 500 4441 
Q 881 4594 1212 4672 
Q 1544 4750 1819 4750 
Q 2544 4750 2975 4387 
Q 3406 4025 3406 3419 
Q 3406 3131 3298 2873 
Q 3191 2616 2906 2266 
Q 2828 2175 2409 1742 
Q 1991 1309 1228 531 
z
" transform="scale(0.015625)"/>
       </defs>
       <use xlink:href="#DejaVuSans-32"/>
      </g>
     </g>
    </g>
    <g id="xtick_4">
     <g id="line2d_4">
      <g>
       <use xlink:href="#m50f3c4de71" x="202.909091" y="392.8" style="stroke: #000000; stroke-width: 0.8"/>
      </g>
     </g>
     <g id="text_4">
      <!-- 3 -->
      <g transform="translate(199.727841 407.398438) scale(0.1 -0.1)">
       <defs>
        <path id="DejaVuSans-33" d="M 2597 2516 
Q 3050 2419 3304 2112 
Q 3559 1806 3559 1356 
Q 3559 666 3084 287 
Q 2609 -91 1734 -91 
Q 1441 -91 1130 -33 
Q 819 25 488 141 
L 488 750 
Q 750 597 1062 519 
Q 1375 441 1716 441 
Q 2309 441 2620 675 
Q 2931 909 2931 1356 
Q 2931 1769 2642 2001 
Q 2353 2234 1838 2234 
L 1294 2234 
L 1294 2753 
L 1863 2753 
Q 2328 2753 2575 2939 
Q 2822 3125 2822 3475 
Q 2822 3834 2567 4026 
Q 2313 4219 1838 4219 
Q 1578 4219 1281 4162 
Q 984 4106 628 3988 
L 628 4550 
Q 988 4650 1302 4700 
Q 1616 4750 1894 4750 
Q 2613 4750 3031 4423 
Q 3450 4097 3450 3541 
Q 3450 3153 3228 2886 
Q 3006 2619 2597 2516 
z
" transform="scale(0.015625)"/>
       </defs>
       <use xlink:href="#DejaVuSans-33"/>
      </g>
     </g>
    </g>
    <g id="xtick_5">
     <g id="line2d_5">
      <g>
       <use xlink:href="#m50f3c4de71" x="248.727273" y="392.8" style="stroke: #000000; stroke-width: 0.8"/>
      </g>
     </g>
     <g id="text_5">
      <!-- 4 -->
      <g transform="translate(245.546023 407.398438) scale(0.1 -0.1)">
       <defs>
        <path id="DejaVuSans-34" d="M 2419 4116 
L 825 1625 
L 2419 1625 
L 2419 4116 
z
M 2253 4666 
L 3047 4666 
L 3047 1625 
L 3713 1625 
L 3713 1100 
L 3047 1100 
L 3047 0 
L 2419 0 
L 2419 1100 
L 313 1100 
L 313 1709 
L 2253 4666 
z
" transform="scale(0.015625)"/>
       </defs>
       <use xlink:href="#DejaVuSans-34"/>
      </g>
     </g>
    </g>
    <g id="xtick_6">
     <g id="line2d_6">
      <g>
       <use xlink:href="#m50f3c4de71" x="294.545455" y="392.8" style="stroke: #000000; stroke-width: 0.8"/>
      </g>
     </g>
     <g id="text_6">
      <!-- 5 -->
      <g transform="translate(291.364205 407.398438) scale(0.1 -0.1)">
       <defs>
        <path id="DejaVuSans-35" d="M 691 4666 
L 3169 4666 
L 3169 4134 
L 1269 4134 
L 1269 2991 
Q 1406 3038 1543 3061 
Q 1681 3084 1819 3084 
Q 2600 3084 3056 2656 
Q 3513 2228 3513 1497 
Q 3513 744 3044 326 
Q 2575 -91 1722 -91 
Q 1428 -91 1123 -41 
Q 819 9 494 109 
L 494 744 
Q 775 591 1075 516 
Q 1375 441 1709 441 
Q 2250 441 2565 725 
Q 2881 1009 2881 1497 
Q 2881 1984 2565 2268 
Q 2250 2553 1709 2553 
Q 1456 2553 1204 2497 
Q 953 2441 691 2322 
L 691 4666 
z
" transform="scale(0.015625)"/>
       </defs>
       <use xlink:href="#DejaVuSans-35"/>
      </g>
     </g>
    </g>
    <g id="text_7">
     <!-- relative distance from ROI center ($\sigma$) -->
     <g transform="translate(106.48 419.556875) scale(0.08 -0.08)">
      <defs>
       <path id="DejaVuSans-72" d="M 2631 2963 
Q 2534 3019 2420 3045 
Q 2306 3072 2169 3072 
Q 1681 3072 1420 2755 
Q 1159 2438 1159 1844 
L 1159 0 
L 581 0 
L 581 3500 
L 1159 3500 
L 1159 2956 
Q 1341 3275 1631 3429 
Q 1922 3584 2338 3584 
Q 2397 3584 2469 3576 
Q 2541 3569 2628 3553 
L 2631 2963 
z
" transform="scale(0.015625)"/>
       <path id="DejaVuSans-65" d="M 3597 1894 
L 3597 1613 
L 953 1613 
Q 991 1019 1311 708 
Q 1631 397 2203 397 
Q 2534 397 2845 478 
Q 3156 559 3463 722 
L 3463 178 
Q 3153 47 2828 -22 
Q 2503 -91 2169 -91 
Q 1331 -91 842 396 
Q 353 884 353 1716 
Q 353 2575 817 3079 
Q 1281 3584 2069 3584 
Q 2775 3584 3186 3129 
Q 3597 2675 3597 1894 
z
M 3022 2063 
Q 3016 2534 2758 2815 
Q 2500 3097 2075 3097 
Q 1594 3097 1305 2825 
Q 1016 2553 972 2059 
L 3022 2063 
z
" transform="scale(0.015625)"/>
       <path id="DejaVuSans-6c" d="M 603 4863 
L 1178 4863 
L 1178 0 
L 603 0 
L 603 4863 
z
" transform="scale(0.015625)"/>
       <path id="DejaVuSans-61" d="M 2194 1759 
Q 1497 1759 1228 1600 
Q 959 1441 959 1056 
Q 959 750 1161 570 
Q 1363 391 1709 391 
Q 2188 391 2477 730 
Q 2766 1069 2766 1631 
L 2766 1759 
L 2194 1759 
z
M 3341 1997 
L 3341 0 
L 2766 0 
L 2766 531 
Q 2569 213 2275 61 
Q 1981 -91 1556 -91 
Q 1019 -91 701 211 
Q 384 513 384 1019 
Q 384 1609 779 1909 
Q 1175 2209 1959 2209 
L 2766 2209 
L 2766 2266 
Q 2766 2663 2505 2880 
Q 2244 3097 1772 3097 
Q 1472 3097 1187 3025 
Q 903 2953 641 2809 
L 641 3341 
Q 956 3463 1253 3523 
Q 1550 3584 1831 3584 
Q 2591 3584 2966 3190 
Q 3341 2797 3341 1997 
z
" transform="scale(0.015625)"/>
       <path id="DejaVuSans-74" d="M 1172 4494 
L 1172 3500 
L 2356 3500 
L 2356 3053 
L 1172 3053 
L 1172 1153 
Q 1172 725 1289 603 
Q 1406 481 1766 481 
L 2356 481 
L 2356 0 
L 1766 0 
Q 1100 0 847 248 
Q 594 497 594 1153 
L 594 3053 
L 172 3053 
L 172 3500 
L 594 3500 
L 594 4494 
L 1172 4494 
z
" transform="scale(0.015625)"/>
       <path id="DejaVuSans-69" d="M 603 3500 
L 1178 3500 
L 1178 0 
L 603 0 
L 603 3500 
z
M 603 4863 
L 1178 4863 
L 1178 4134 
L 603 4134 
L 603 4863 
z
" transform="scale(0.015625)"/>
       <path id="DejaVuSans-76" d="M 191 3500 
L 800 3500 
L 1894 563 
L 2988 3500 
L 3597 3500 
L 2284 0 
L 1503 0 
L 191 3500 
z
" transform="scale(0.015625)"/>
       <path id="DejaVuSans-20" transform="scale(0.015625)"/>
       <path id="DejaVuSans-64" d="M 2906 2969 
L 2906 4863 
L 3481 4863 
L 3481 0 
L 2906 0 
L 2906 525 
Q 2725 213 2448 61 
Q 2172 -91 1784 -91 
Q 1150 -91 751 415 
Q 353 922 353 1747 
Q 353 2572 751 3078 
Q 1150 3584 1784 3584 
Q 2172 3584 2448 3432 
Q 2725 3281 2906 2969 
z
M 947 1747 
Q 947 1113 1208 752 
Q 1469 391 1925 391 
Q 2381 391 2643 752 
Q 2906 1113 2906 1747 
Q 2906 2381 2643 2742 
Q 2381 3103 1925 3103 
Q 1469 3103 1208 2742 
Q 947 2381 947 1747 
z
" transform="scale(0.015625)"/>
       <path id="DejaVuSans-73" d="M 2834 3397 
L 2834 2853 
Q 2591 2978 2328 3040 
Q 2066 3103 1784 3103 
Q 1356 3103 1142 2972 
Q 928 2841 928 2578 
Q 928 2378 1081 2264 
Q 1234 2150 1697 2047 
L 1894 2003 
Q 2506 1872 2764 1633 
Q 3022 1394 3022 966 
Q 3022 478 2636 193 
Q 2250 -91 1575 -91 
Q 1294 -91 989 -36 
Q 684 19 347 128 
L 347 722 
Q 666 556 975 473 
Q 1284 391 1588 391 
Q 1994 391 2212 530 
Q 2431 669 2431 922 
Q 2431 1156 2273 1281 
Q 2116 1406 1581 1522 
L 1381 1569 
Q 847 1681 609 1914 
Q 372 2147 372 2553 
Q 372 3047 722 3315 
Q 1072 3584 1716 3584 
Q 2034 3584 2315 3537 
Q 2597 3491 2834 3397 
z
" transform="scale(0.015625)"/>
       <path id="DejaVuSans-6e" d="M 3513 2113 
L 3513 0 
L 2938 0 
L 2938 2094 
Q 2938 2591 2744 2837 
Q 2550 3084 2163 3084 
Q 1697 3084 1428 2787 
Q 1159 2491 1159 1978 
L 1159 0 
L 581 0 
L 581 3500 
L 1159 3500 
L 1159 2956 
Q 1366 3272 1645 3428 
Q 1925 3584 2291 3584 
Q 2894 3584 3203 3211 
Q 3513 2838 3513 2113 
z
" transform="scale(0.015625)"/>
       <path id="DejaVuSans-63" d="M 3122 3366 
L 3122 2828 
Q 2878 2963 2633 3030 
Q 2388 3097 2138 3097 
Q 1578 3097 1268 2742 
Q 959 2388 959 1747 
Q 959 1106 1268 751 
Q 1578 397 2138 397 
Q 2388 397 2633 464 
Q 2878 531 3122 666 
L 3122 134 
Q 2881 22 2623 -34 
Q 2366 -91 2075 -91 
Q 1284 -91 818 406 
Q 353 903 353 1747 
Q 353 2603 823 3093 
Q 1294 3584 2113 3584 
Q 2378 3584 2631 3529 
Q 2884 3475 3122 3366 
z
" transform="scale(0.015625)"/>
       <path id="DejaVuSans-66" d="M 2375 4863 
L 2375 4384 
L 1825 4384 
Q 1516 4384 1395 4259 
Q 1275 4134 1275 3809 
L 1275 3500 
L 2222 3500 
L 2222 3053 
L 1275 3053 
L 1275 0 
L 697 0 
L 697 3053 
L 147 3053 
L 147 3500 
L 697 3500 
L 697 3744 
Q 697 4328 969 4595 
Q 1241 4863 1831 4863 
L 2375 4863 
z
" transform="scale(0.015625)"/>
       <path id="DejaVuSans-6f" d="M 1959 3097 
Q 1497 3097 1228 2736 
Q 959 2375 959 1747 
Q 959 1119 1226 758 
Q 1494 397 1959 397 
Q 2419 397 2687 759 
Q 2956 1122 2956 1747 
Q 2956 2369 2687 2733 
Q 2419 3097 1959 3097 
z
M 1959 3584 
Q 2709 3584 3137 3096 
Q 3566 2609 3566 1747 
Q 3566 888 3137 398 
Q 2709 -91 1959 -91 
Q 1206 -91 779 398 
Q 353 888 353 1747 
Q 353 2609 779 3096 
Q 1206 3584 1959 3584 
z
" transform="scale(0.015625)"/>
       <path id="DejaVuSans-6d" d="M 3328 2828 
Q 3544 3216 3844 3400 
Q 4144 3584 4550 3584 
Q 5097 3584 5394 3201 
Q 5691 2819 5691 2113 
L 5691 0 
L 5113 0 
L 5113 2094 
Q 5113 2597 4934 2840 
Q 4756 3084 4391 3084 
Q 3944 3084 3684 2787 
Q 3425 2491 3425 1978 
L 3425 0 
L 2847 0 
L 2847 2094 
Q 2847 2600 2669 2842 
Q 2491 3084 2119 3084 
Q 1678 3084 1418 2786 
Q 1159 2488 1159 1978 
L 1159 0 
L 581 0 
L 581 3500 
L 1159 3500 
L 1159 2956 
Q 1356 3278 1631 3431 
Q 1906 3584 2284 3584 
Q 2666 3584 2933 3390 
Q 3200 3197 3328 2828 
z
" transform="scale(0.015625)"/>
       <path id="DejaVuSans-52" d="M 2841 2188 
Q 3044 2119 3236 1894 
Q 3428 1669 3622 1275 
L 4263 0 
L 3584 0 
L 2988 1197 
Q 2756 1666 2539 1819 
Q 2322 1972 1947 1972 
L 1259 1972 
L 1259 0 
L 628 0 
L 628 4666 
L 2053 4666 
Q 2853 4666 3247 4331 
Q 3641 3997 3641 3322 
Q 3641 2881 3436 2590 
Q 3231 2300 2841 2188 
z
M 1259 4147 
L 1259 2491 
L 2053 2491 
Q 2509 2491 2742 2702 
Q 2975 2913 2975 3322 
Q 2975 3731 2742 3939 
Q 2509 4147 2053 4147 
L 1259 4147 
z
" transform="scale(0.015625)"/>
       <path id="DejaVuSans-4f" d="M 2522 4238 
Q 1834 4238 1429 3725 
Q 1025 3213 1025 2328 
Q 1025 1447 1429 934 
Q 1834 422 2522 422 
Q 3209 422 3611 934 
Q 4013 1447 4013 2328 
Q 4013 3213 3611 3725 
Q 3209 4238 2522 4238 
z
M 2522 4750 
Q 3503 4750 4090 4092 
Q 4678 3434 4678 2328 
Q 4678 1225 4090 567 
Q 3503 -91 2522 -91 
Q 1538 -91 948 565 
Q 359 1222 359 2328 
Q 359 3434 948 4092 
Q 1538 4750 2522 4750 
z
" transform="scale(0.015625)"/>
       <path id="DejaVuSans-49" d="M 628 4666 
L 1259 4666 
L 1259 0 
L 628 0 
L 628 4666 
z
" transform="scale(0.015625)"/>
       <path id="DejaVuSans-28" d="M 1984 4856 
Q 1566 4138 1362 3434 
Q 1159 2731 1159 2009 
Q 1159 1288 1364 580 
Q 1569 -128 1984 -844 
L 1484 -844 
Q 1016 -109 783 600 
Q 550 1309 550 2009 
Q 550 2706 781 3412 
Q 1013 4119 1484 4856 
L 1984 4856 
z
" transform="scale(0.015625)"/>
       <path id="DejaVuSans-Oblique-3c3" d="M 2219 3044 
Q 1744 3044 1422 2700 
Q 1081 2341 969 1747 
Q 844 1119 1044 756 
Q 1241 397 1706 397 
Q 2166 397 2503 759 
Q 2844 1122 2966 1747 
Q 3075 2319 2881 2700 
Q 2700 3044 2219 3044 
z
M 2309 3503 
L 4219 3500 
L 4106 2925 
L 3463 2925 
Q 3706 2438 3575 1747 
Q 3406 888 2884 400 
Q 2359 -91 1609 -91 
Q 856 -91 525 400 
Q 194 888 363 1747 
Q 528 2609 1050 3097 
Q 1484 3503 2309 3503 
z
" transform="scale(0.015625)"/>
       <path id="DejaVuSans-29" d="M 513 4856 
L 1013 4856 
Q 1481 4119 1714 3412 
Q 1947 2706 1947 2009 
Q 1947 1309 1714 600 
Q 1481 -109 1013 -844 
L 513 -844 
Q 928 -128 1133 580 
Q 1338 1288 1338 2009 
Q 1338 2731 1133 3434 
Q 928 4138 513 4856 
z
" transform="scale(0.015625)"/>
      </defs>
      <use xlink:href="#DejaVuSans-72" transform="translate(0 0.015625)"/>
      <use xlink:href="#DejaVuSans-65" transform="translate(41.113281 0.015625)"/>
      <use xlink:href="#DejaVuSans-6c" transform="translate(102.636719 0.015625)"/>
      <use xlink:href="#DejaVuSans-61" transform="translate(130.419922 0.015625)"/>
      <use xlink:href="#DejaVuSans-74" transform="translate(191.699219 0.015625)"/>
      <use xlink:href="#DejaVuSans-69" transform="translate(230.908203 0.015625)"/>
      <use xlink:href="#DejaVuSans-76" transform="translate(258.691406 0.015625)"/>
      <use xlink:href="#DejaVuSans-65" transform="translate(317.871094 0.015625)"/>
      <use xlink:href="#DejaVuSans-20" transform="translate(379.394531 0.015625)"/>
      <use xlink:href="#DejaVuSans-64" transform="translate(411.181641 0.015625)"/>
      <use xlink:href="#DejaVuSans-69" transform="translate(474.658203 0.015625)"/>
      <use xlink:href="#DejaVuSans-73" transform="translate(502.441406 0.015625)"/>
      <use xlink:href="#DejaVuSans-74" transform="translate(554.541016 0.015625)"/>
      <use xlink:href="#DejaVuSans-61" transform="translate(593.75 0.015625)"/>
      <use xlink:href="#DejaVuSans-6e" transform="translate(655.029297 0.015625)"/>
      <use xlink:href="#DejaVuSans-63" transform="translate(718.408203 0.015625)"/>
      <use xlink:href="#DejaVuSans-65" transform="translate(773.388672 0.015625)"/>
      <use xlink:href="#DejaVuSans-20" transform="translate(834.912109 0.015625)"/>
      <use xlink:href="#DejaVuSans-66" transform="translate(866.699219 0.015625)"/>
      <use xlink:href="#DejaVuSans-72" transform="translate(901.904297 0.015625)"/>
      <use xlink:href="#DejaVuSans-6f" transform="translate(943.017578 0.015625)"/>
      <use xlink:href="#DejaVuSans-6d" transform="translate(1004.199219 0.015625)"/>
      <use xlink:href="#DejaVuSans-20" transform="translate(1101.611328 0.015625)"/>
      <use xlink:href="#DejaVuSans-52" transform="translate(1133.398438 0.015625)"/>
      <use xlink:href="#DejaVuSans-4f" transform="translate(1202.880859 0.015625)"/>
      <use xlink:href="#DejaVuSans-49" transform="translate(1281.591797 0.015625)"/>
      <use xlink:href="#DejaVuSans-20" transform="translate(1311.083984 0.015625)"/>
      <use xlink:href="#DejaVuSans-63" transform="translate(1342.871094 0.015625)"/>
      <use xlink:href="#DejaVuSans-65" transform="translate(1397.851562 0.015625)"/>
      <use xlink:href="#DejaVuSans-6e" transform="translate(1459.375 0.015625)"/>
      <use xlink:href="#DejaVuSans-74" transform="translate(1522.753906 0.015625)"/>
      <use xlink:href="#DejaVuSans-65" transform="translate(1561.962891 0.015625)"/>
      <use xlink:href="#DejaVuSans-72" transform="translate(1623.486328 0.015625)"/>
      <use xlink:href="#DejaVuSans-20" transform="translate(1664.599609 0.015625)"/>
      <use xlink:href="#DejaVuSans-28" transform="translate(1696.386719 0.015625)"/>
      <use xlink:href="#DejaVuSans-Oblique-3c3" transform="translate(1735.400391 0.015625)"/>
      <use xlink:href="#DejaVuSans-29" transform="translate(1798.779297 0.015625)"/>
     </g>
    </g>
   </g>
   <g id="matplotlib.axis_2">
    <g id="ytick_1">
     <g id="line2d_7">
      <defs>
       <path id="mb4e473deed" d="M 0 0 
L -3.5 0 
" style="stroke: #000000; stroke-width: 0.8"/>
      </defs>
      <g>
       <use xlink:href="#mb4e473deed" x="50" y="376.457143" style="stroke: #000000; stroke-width: 0.8"/>
      </g>
     </g>
     <g id="text_8">
      <!-- −5 -->
      <g transform="translate(28.257812 380.256362) scale(0.1 -0.1)">
       <defs>
        <path id="DejaVuSans-2212" d="M 678 2272 
L 4684 2272 
L 4684 1741 
L 678 1741 
L 678 2272 
z
" transform="scale(0.015625)"/>
       </defs>
       <use xlink:href="#DejaVuSans-2212"/>
       <use xlink:href="#DejaVuSans-35" x="83.789062"/>
      </g>
     </g>
    </g>
    <g id="ytick_2">
     <g id="line2d_8">
      <g>
       <use xlink:href="#mb4e473deed" x="50" y="345.6" style="stroke: #000000; stroke-width: 0.8"/>
      </g>
     </g>
     <g id="text_9">
      <!-- 0 -->
      <g transform="translate(36.6375 349.399219) scale(0.1 -0.1)">
       <use xlink:href="#DejaVuSans-30"/>
      </g>
     </g>
    </g>
    <g id="ytick_3">
     <g id="line2d_9">
      <g>
       <use xlink:href="#mb4e473deed" x="50" y="314.742857" style="stroke: #000000; stroke-width: 0.8"/>
      </g>
     </g>
     <g id="text_10">
      <!-- 5 -->
      <g transform="translate(36.6375 318.542076) scale(0.1 -0.1)">
       <use xlink:href="#DejaVuSans-35"/>
      </g>
     </g>
    </g>
    <g id="text_11">
     <!-- BOLD % change -->
     <g transform="translate(22.594062 377.79625) rotate(-90) scale(0.08 -0.08)">
      <defs>
       <path id="DejaVuSans-42" d="M 1259 2228 
L 1259 519 
L 2272 519 
Q 2781 519 3026 730 
Q 3272 941 3272 1375 
Q 3272 1813 3026 2020 
Q 2781 2228 2272 2228 
L 1259 2228 
z
M 1259 4147 
L 1259 2741 
L 2194 2741 
Q 2656 2741 2882 2914 
Q 3109 3088 3109 3444 
Q 3109 3797 2882 3972 
Q 2656 4147 2194 4147 
L 1259 4147 
z
M 628 4666 
L 2241 4666 
Q 2963 4666 3353 4366 
Q 3744 4066 3744 3513 
Q 3744 3084 3544 2831 
Q 3344 2578 2956 2516 
Q 3422 2416 3680 2098 
Q 3938 1781 3938 1306 
Q 3938 681 3513 340 
Q 3088 0 2303 0 
L 628 0 
L 628 4666 
z
" transform="scale(0.015625)"/>
       <path id="DejaVuSans-4c" d="M 628 4666 
L 1259 4666 
L 1259 531 
L 3531 531 
L 3531 0 
L 628 0 
L 628 4666 
z
" transform="scale(0.015625)"/>
       <path id="DejaVuSans-44" d="M 1259 4147 
L 1259 519 
L 2022 519 
Q 2988 519 3436 956 
Q 3884 1394 3884 2338 
Q 3884 3275 3436 3711 
Q 2988 4147 2022 4147 
L 1259 4147 
z
M 628 4666 
L 1925 4666 
Q 3281 4666 3915 4102 
Q 4550 3538 4550 2338 
Q 4550 1131 3912 565 
Q 3275 0 1925 0 
L 628 0 
L 628 4666 
z
" transform="scale(0.015625)"/>
       <path id="DejaVuSans-25" d="M 4653 2053 
Q 4381 2053 4226 1822 
Q 4072 1591 4072 1178 
Q 4072 772 4226 539 
Q 4381 306 4653 306 
Q 4919 306 5073 539 
Q 5228 772 5228 1178 
Q 5228 1588 5073 1820 
Q 4919 2053 4653 2053 
z
M 4653 2450 
Q 5147 2450 5437 2106 
Q 5728 1763 5728 1178 
Q 5728 594 5436 251 
Q 5144 -91 4653 -91 
Q 4153 -91 3862 251 
Q 3572 594 3572 1178 
Q 3572 1766 3864 2108 
Q 4156 2450 4653 2450 
z
M 1428 4353 
Q 1159 4353 1004 4120 
Q 850 3888 850 3481 
Q 850 3069 1003 2837 
Q 1156 2606 1428 2606 
Q 1700 2606 1854 2837 
Q 2009 3069 2009 3481 
Q 2009 3884 1853 4118 
Q 1697 4353 1428 4353 
z
M 4250 4750 
L 4750 4750 
L 1831 -91 
L 1331 -91 
L 4250 4750 
z
M 1428 4750 
Q 1922 4750 2215 4408 
Q 2509 4066 2509 3481 
Q 2509 2891 2217 2550 
Q 1925 2209 1428 2209 
Q 931 2209 642 2551 
Q 353 2894 353 3481 
Q 353 4063 643 4406 
Q 934 4750 1428 4750 
z
" transform="scale(0.015625)"/>
       <path id="DejaVuSans-68" d="M 3513 2113 
L 3513 0 
L 2938 0 
L 2938 2094 
Q 2938 2591 2744 2837 
Q 2550 3084 2163 3084 
Q 1697 3084 1428 2787 
Q 1159 2491 1159 1978 
L 1159 0 
L 581 0 
L 581 4863 
L 1159 4863 
L 1159 2956 
Q 1366 3272 1645 3428 
Q 1925 3584 2291 3584 
Q 2894 3584 3203 3211 
Q 3513 2838 3513 2113 
z
" transform="scale(0.015625)"/>
       <path id="DejaVuSans-67" d="M 2906 1791 
Q 2906 2416 2648 2759 
Q 2391 3103 1925 3103 
Q 1463 3103 1205 2759 
Q 947 2416 947 1791 
Q 947 1169 1205 825 
Q 1463 481 1925 481 
Q 2391 481 2648 825 
Q 2906 1169 2906 1791 
z
M 3481 434 
Q 3481 -459 3084 -895 
Q 2688 -1331 1869 -1331 
Q 1566 -1331 1297 -1286 
Q 1028 -1241 775 -1147 
L 775 -588 
Q 1028 -725 1275 -790 
Q 1522 -856 1778 -856 
Q 2344 -856 2625 -561 
Q 2906 -266 2906 331 
L 2906 616 
Q 2728 306 2450 153 
Q 2172 0 1784 0 
Q 1141 0 747 490 
Q 353 981 353 1791 
Q 353 2603 747 3093 
Q 1141 3584 1784 3584 
Q 2172 3584 2450 3431 
Q 2728 3278 2906 2969 
L 2906 3500 
L 3481 3500 
L 3481 434 
z
" transform="scale(0.015625)"/>
      </defs>
      <use xlink:href="#DejaVuSans-42"/>
      <use xlink:href="#DejaVuSans-4f" x="66.853516"/>
      <use xlink:href="#DejaVuSans-4c" x="145.564453"/>
      <use xlink:href="#DejaVuSans-44" x="201.277344"/>
      <use xlink:href="#DejaVuSans-20" x="278.279297"/>
      <use xlink:href="#DejaVuSans-25" x="310.066406"/>
      <use xlink:href="#DejaVuSans-20" x="405.085938"/>
      <use xlink:href="#DejaVuSans-63" x="436.873047"/>
      <use xlink:href="#DejaVuSans-68" x="491.853516"/>
      <use xlink:href="#DejaVuSans-61" x="555.232422"/>
      <use xlink:href="#DejaVuSans-6e" x="616.511719"/>
      <use xlink:href="#DejaVuSans-67" x="679.890625"/>
      <use xlink:href="#DejaVuSans-65" x="743.367188"/>
     </g>
    </g>
   </g>
   <g id="line2d_10">
    <path d="M 65.454545 318.140239 
L 70.12987 318.332728 
L 74.805195 318.649914 
L 79.480519 318.853612 
L 84.155844 318.953184 
L 88.831169 319.196555 
L 93.506494 319.323427 
L 98.181818 319.31633 
L 102.857143 319.227793 
L 107.532468 319.142445 
L 112.207792 318.931498 
L 116.883117 318.806566 
L 121.558442 318.557287 
L 126.233766 318.262924 
L 130.909091 318.191766 
L 135.584416 318.2768 
L 140.25974 318.24439 
L 144.935065 318.147017 
L 149.61039 318.021847 
L 154.285714 317.845142 
L 158.961039 317.649166 
L 163.636364 317.581059 
L 168.311688 317.553873 
L 172.987013 317.59009 
L 177.662338 317.670969 
L 182.337662 317.747992 
L 187.012987 317.843508 
L 191.688312 317.909788 
L 196.363636 318.009477 
L 201.038961 318.160348 
L 205.714286 318.353009 
L 210.38961 318.501939 
L 215.064935 318.633165 
L 219.74026 318.849691 
L 224.415584 319.07165 
L 229.090909 319.373504 
L 233.766234 319.715078 
L 238.441558 320.015699 
L 243.116883 320.298441 
L 247.792208 320.549222 
L 252.467532 320.720988 
L 257.142857 320.970577 
L 261.818182 321.225544 
L 266.493506 321.431697 
L 271.168831 321.647491 
L 275.844156 321.777581 
L 280.519481 321.914358 
L 285.194805 322.088848 
L 289.87013 322.284227 
L 294.545455 322.427008 
" clip-path="url(#p8c64c1cd96)" style="fill: none; stroke: #9400d3; stroke-width: 1.5; stroke-linecap: square"/>
   </g>
   <g id="line2d_11">
    <path d="M 65.454545 319.187846 
L 70.12987 319.187846 
L 74.805195 319.187846 
L 79.480519 319.346851 
L 84.155844 320.020298 
L 88.831169 319.860946 
L 93.506494 320.001693 
L 98.181818 320.415591 
L 102.857143 319.882025 
L 107.532468 319.792761 
L 112.207792 319.134421 
L 116.883117 318.21944 
L 121.558442 316.810806 
L 126.233766 314.950612 
L 130.909091 314.185422 
L 135.584416 314.094017 
L 140.25974 314.089689 
L 144.935065 313.483109 
L 149.61039 312.813755 
L 154.285714 312.264219 
L 158.961039 311.613305 
L 163.636364 310.926736 
L 168.311688 309.579144 
L 172.987013 308.792141 
L 177.662338 308.478601 
L 182.337662 308.372834 
L 187.012987 308.101606 
L 191.688312 307.418733 
L 196.363636 306.785868 
L 201.038961 306.168442 
L 205.714286 305.568812 
L 210.38961 305.321662 
L 215.064935 305.294199 
L 219.74026 306.263979 
L 224.415584 306.811884 
L 229.090909 307.663657 
L 233.766234 308.568855 
L 238.441558 309.30492 
L 243.116883 310.018604 
L 247.792208 310.538481 
L 252.467532 310.483083 
L 257.142857 310.834524 
L 261.818182 311.529618 
L 266.493506 312.166363 
L 271.168831 313.153687 
L 275.844156 313.459994 
L 280.519481 313.207657 
L 285.194805 313.216396 
L 289.87013 313.390737 
L 294.545455 313.846146 
" clip-path="url(#p8c64c1cd96)" style="fill: none; stroke: #9400d3; stroke-opacity: 0.2; stroke-width: 1.5; stroke-linecap: square"/>
   </g>
   <g id="line2d_12">
    <path d="M 65.454545 324.619255 
L 70.12987 324.67448 
L 74.805195 324.779084 
L 79.480519 324.848902 
L 84.155844 324.971405 
L 88.831169 325.128052 
L 93.506494 325.185349 
L 98.181818 325.096083 
L 102.857143 324.817455 
L 107.532468 324.624241 
L 112.207792 324.384019 
L 116.883117 324.174125 
L 121.558442 324.220827 
L 126.233766 324.524528 
L 130.909091 324.685823 
L 135.584416 324.817517 
L 140.25974 324.763519 
L 144.935065 324.663861 
L 149.61039 324.749726 
L 154.285714 324.910786 
L 158.961039 324.968485 
L 163.636364 325.07715 
L 168.311688 325.173866 
L 172.987013 325.197333 
L 177.662338 325.29664 
L 182.337662 325.410399 
L 187.012987 325.429772 
L 191.688312 325.185186 
L 196.363636 324.911628 
L 201.038961 324.814843 
L 205.714286 324.771608 
L 210.38961 324.893079 
L 215.064935 325.069671 
L 219.74026 325.212948 
L 224.415584 325.458421 
L 229.090909 325.618703 
L 233.766234 325.587787 
L 238.441558 325.666357 
L 243.116883 325.652424 
L 247.792208 325.388425 
L 252.467532 325.078252 
L 257.142857 324.828072 
L 261.818182 324.681241 
L 266.493506 324.358208 
L 271.168831 324.005347 
L 275.844156 323.966395 
L 280.519481 324.191485 
L 285.194805 324.49685 
L 289.87013 324.7113 
L 294.545455 324.859311 
" clip-path="url(#p8c64c1cd96)" style="fill: none; stroke: #9400d3; stroke-opacity: 0.2; stroke-width: 1.5; stroke-linecap: square"/>
   </g>
   <g id="line2d_13">
    <path d="M 65.454545 329.903883 
L 70.12987 329.903883 
L 74.805195 329.816264 
L 79.480519 329.601467 
L 84.155844 329.436727 
L 88.831169 329.339061 
L 93.506494 329.158287 
L 98.181818 328.929398 
L 102.857143 328.563598 
L 107.532468 328.197867 
L 112.207792 327.841234 
L 116.883117 327.58815 
L 121.558442 327.352313 
L 126.233766 327.115417 
L 130.909091 327.128911 
L 135.584416 327.062152 
L 140.25974 326.932287 
L 144.935065 326.94378 
L 149.61039 326.861825 
L 154.285714 326.604761 
L 158.961039 326.300914 
L 163.636364 326.170083 
L 168.311688 326.141194 
L 172.987013 326.344512 
L 177.662338 326.637186 
L 182.337662 326.950159 
L 187.012987 327.255393 
L 191.688312 327.660589 
L 196.363636 328.028198 
L 201.038961 328.368437 
L 205.714286 328.711149 
L 210.38961 328.997698 
L 215.064935 329.128844 
L 219.74026 329.170705 
L 224.415584 329.209311 
L 229.090909 329.198244 
L 233.766234 329.229994 
L 238.441558 329.277603 
L 243.116883 329.443654 
L 247.792208 329.643918 
L 252.467532 329.902494 
L 257.142857 330.212682 
L 261.818182 330.47845 
L 266.493506 330.684244 
L 271.168831 330.871301 
L 275.844156 330.921212 
L 280.519481 330.907672 
L 285.194805 330.928411 
L 289.87013 330.99134 
L 294.545455 331.124822 
" clip-path="url(#p8c64c1cd96)" style="fill: none; stroke: #9400d3; stroke-opacity: 0.2; stroke-width: 1.5; stroke-linecap: square"/>
   </g>
   <g id="line2d_14">
    <path d="M 65.454545 316.319558 
L 70.12987 316.5877 
L 74.805195 316.911681 
L 79.480519 317.561872 
L 84.155844 318.518057 
L 88.831169 318.859694 
L 93.506494 319.018067 
L 98.181818 319.364692 
L 102.857143 319.463493 
L 107.532468 319.244142 
L 112.207792 319.098319 
L 116.883117 319.201548 
L 121.558442 318.990101 
L 126.233766 318.834459 
L 130.909091 318.65987 
L 135.584416 318.755102 
L 140.25974 318.52414 
L 144.935065 318.206546 
L 149.61039 317.842914 
L 154.285714 317.506077 
L 158.961039 317.258874 
L 163.636364 317.029665 
L 168.311688 316.73605 
L 172.987013 316.356115 
L 177.662338 316.132714 
L 182.337662 315.827834 
L 187.012987 315.500178 
L 191.688312 315.707235 
L 196.363636 316.055583 
L 201.038961 316.371183 
L 205.714286 316.750575 
L 210.38961 317.103698 
L 215.064935 317.371607 
L 219.74026 317.81631 
L 224.415584 317.92561 
L 229.090909 317.787797 
L 233.766234 317.836107 
L 238.441558 317.615797 
L 243.116883 317.720743 
L 247.792208 317.708615 
L 252.467532 317.638724 
L 257.142857 318.016531 
L 261.818182 318.204526 
L 266.493506 318.334214 
L 271.168831 318.65177 
L 275.844156 319.152592 
L 280.519481 320.212943 
L 285.194805 320.985938 
L 289.87013 321.230111 
L 294.545455 321.170931 
" clip-path="url(#p8c64c1cd96)" style="fill: none; stroke: #9400d3; stroke-opacity: 0.2; stroke-width: 1.5; stroke-linecap: square"/>
   </g>
   <g id="line2d_15">
    <path d="M 65.454545 318.41529 
L 70.12987 318.41529 
L 74.805195 318.295582 
L 79.480519 317.898429 
L 84.155844 317.457842 
L 88.831169 317.723144 
L 93.506494 318.166868 
L 98.181818 318.473376 
L 102.857143 318.626472 
L 107.532468 318.590419 
L 112.207792 318.638352 
L 116.883117 318.296211 
L 121.558442 317.726185 
L 126.233766 317.133643 
L 130.909091 316.742443 
L 135.584416 316.287984 
L 140.25974 316.281439 
L 144.935065 316.105221 
L 149.61039 315.910805 
L 154.285714 315.523977 
L 158.961039 315.042174 
L 163.636364 314.702039 
L 168.311688 314.484398 
L 172.987013 314.270415 
L 177.662338 314.455516 
L 182.337662 314.794451 
L 187.012987 315.342676 
L 191.688312 315.742623 
L 196.363636 316.217722 
L 201.038961 316.758546 
L 205.714286 317.291681 
L 210.38961 317.480315 
L 215.064935 317.693183 
L 219.74026 317.927883 
L 224.415584 318.184238 
L 229.090909 318.526762 
L 233.766234 318.69562 
L 238.441558 318.678423 
L 243.116883 318.618465 
L 247.792208 318.771013 
L 252.467532 318.785597 
L 257.142857 318.860939 
L 261.818182 318.876668 
L 266.493506 318.669251 
L 271.168831 318.485856 
L 275.844156 318.156235 
L 280.519481 318.000768 
L 285.194805 318.023005 
L 289.87013 318.219928 
L 294.545455 318.385596 
" clip-path="url(#p8c64c1cd96)" style="fill: none; stroke: #9400d3; stroke-opacity: 0.2; stroke-width: 1.5; stroke-linecap: square"/>
   </g>
   <g id="line2d_16">
    <path d="M 65.454545 318.068562 
L 70.12987 318.105525 
L 74.805195 318.654826 
L 79.480519 319.161399 
L 84.155844 319.32363 
L 88.831169 319.227336 
L 93.506494 319.181069 
L 98.181818 319.166236 
L 102.857143 319.279358 
L 107.532468 319.131397 
L 112.207792 318.989815 
L 116.883117 318.961628 
L 121.558442 319.078745 
L 126.233766 318.859482 
L 130.909091 318.475889 
L 135.584416 318.284215 
L 140.25974 317.904685 
L 144.935065 317.91498 
L 149.61039 318.12011 
L 154.285714 318.254906 
L 158.961039 318.494158 
L 163.636364 319.096728 
L 168.311688 319.589569 
L 172.987013 319.491371 
L 177.662338 319.554553 
L 182.337662 319.183073 
L 187.012987 319.187478 
L 191.688312 319.090551 
L 196.363636 319.076453 
L 201.038961 319.219198 
L 205.714286 319.295122 
L 210.38961 319.217004 
L 215.064935 319.101251 
L 219.74026 319.165726 
L 224.415584 319.339254 
L 229.090909 319.585003 
L 233.766234 319.872721 
L 238.441558 320.316891 
L 243.116883 320.836092 
L 247.792208 321.364366 
L 252.467532 321.797791 
L 257.142857 322.049949 
L 261.818182 322.227436 
L 266.493506 322.256871 
L 271.168831 322.269451 
L 275.844156 322.320965 
L 280.519481 322.149641 
L 285.194805 321.972495 
L 289.87013 321.86037 
L 294.545455 321.975145 
" clip-path="url(#p8c64c1cd96)" style="fill: none; stroke: #9400d3; stroke-opacity: 0.2; stroke-width: 1.5; stroke-linecap: square"/>
   </g>
   <g id="line2d_17">
    <path d="M 65.454545 295.983238 
L 70.12987 297.083923 
L 74.805195 298.887087 
L 79.480519 299.822911 
L 84.155844 299.075409 
L 88.831169 299.870247 
L 93.506494 299.843873 
L 98.181818 299.193466 
L 102.857143 299.822729 
L 107.532468 300.755762 
L 112.207792 301.511775 
L 116.883117 302.967323 
L 121.558442 303.285506 
L 126.233766 303.454986 
L 130.909091 305.003635 
L 135.584416 307.542794 
L 140.25974 309.273545 
L 144.935065 310.649746 
L 149.61039 312.001124 
L 154.285714 312.720248 
L 158.961039 312.738111 
L 163.636364 312.862776 
L 168.311688 313.487518 
L 172.987013 314.39447 
L 177.662338 314.968869 
L 182.337662 315.09053 
L 187.012987 315.125329 
L 191.688312 314.745832 
L 196.363636 314.838743 
L 201.038961 314.788875 
L 205.714286 314.984627 
L 210.38961 314.857089 
L 215.064935 315.260748 
L 219.74026 315.568672 
L 224.415584 316.08795 
L 229.090909 316.648425 
L 233.766234 317.639714 
L 238.441558 318.534349 
L 243.116883 319.22651 
L 247.792208 319.817199 
L 252.467532 320.541016 
L 257.142857 320.901873 
L 261.818182 320.991332 
L 266.493506 321.21574 
L 271.168831 321.247885 
L 275.844156 321.095394 
L 280.519481 320.698522 
L 285.194805 320.61148 
L 289.87013 320.409597 
L 294.545455 319.936966 
" clip-path="url(#p8c64c1cd96)" style="fill: none; stroke: #9400d3; stroke-opacity: 0.2; stroke-width: 1.5; stroke-linecap: square"/>
   </g>
   <g id="line2d_18">
    <path d="M 65.454545 320.989639 
L 70.12987 321.003558 
L 74.805195 321.200402 
L 79.480519 321.524268 
L 84.155844 321.85828 
L 88.831169 321.958474 
L 93.506494 321.871126 
L 98.181818 321.651718 
L 102.857143 321.336805 
L 107.532468 320.823177 
L 112.207792 320.28539 
L 116.883117 319.796808 
L 121.558442 319.376366 
L 126.233766 319.017128 
L 130.909091 318.68763 
L 135.584416 318.366868 
L 140.25974 318.025092 
L 144.935065 317.585307 
L 149.61039 317.09341 
L 154.285714 316.770164 
L 158.961039 316.751225 
L 163.636364 317.005439 
L 168.311688 317.449416 
L 172.987013 317.728913 
L 177.662338 318.012421 
L 182.337662 318.294427 
L 187.012987 318.626267 
L 191.688312 318.919368 
L 196.363636 319.087343 
L 201.038961 319.144318 
L 205.714286 319.304422 
L 210.38961 319.447639 
L 215.064935 319.561954 
L 219.74026 319.79467 
L 224.415584 319.958421 
L 229.090909 320.132003 
L 233.766234 320.331668 
L 238.441558 320.39626 
L 243.116883 320.666226 
L 247.792208 320.946007 
L 252.467532 321.232214 
L 257.142857 321.511414 
L 261.818182 321.9597 
L 266.493506 322.462935 
L 271.168831 323.025799 
L 275.844156 323.446042 
L 280.519481 323.812553 
L 285.194805 324.178571 
L 289.87013 324.818228 
L 294.545455 325.467477 
" clip-path="url(#p8c64c1cd96)" style="fill: none; stroke: #9400d3; stroke-opacity: 0.2; stroke-width: 1.5; stroke-linecap: square"/>
   </g>
   <g id="line2d_19">
    <path d="M 65.454545 320.753457 
L 70.12987 320.786921 
L 74.805195 320.78306 
L 79.480519 320.996539 
L 84.155844 321.015451 
L 88.831169 320.886825 
L 93.506494 320.88321 
L 98.181818 320.480805 
L 102.857143 320.466875 
L 107.532468 320.708934 
L 112.207792 320.691843 
L 116.883117 320.642653 
L 121.558442 320.479839 
L 126.233766 320.329137 
L 130.909091 320.600211 
L 135.584416 320.796308 
L 140.25974 320.727195 
L 144.935065 320.719647 
L 149.61039 320.638867 
L 154.285714 320.56419 
L 158.961039 320.504342 
L 163.636364 320.462085 
L 168.311688 320.480484 
L 172.987013 320.571228 
L 177.662338 320.703329 
L 182.337662 320.708274 
L 187.012987 320.681167 
L 191.688312 321.04751 
L 196.363636 321.3756 
L 201.038961 321.669753 
L 205.714286 321.922457 
L 210.38961 322.165683 
L 215.064935 322.350575 
L 219.74026 322.641887 
L 224.415584 323.116332 
L 229.090909 323.477719 
L 233.766234 323.745115 
L 238.441558 323.955868 
L 243.116883 323.983115 
L 247.792208 324.024776 
L 252.467532 324.00488 
L 257.142857 323.99565 
L 261.818182 324.241402 
L 266.493506 324.351497 
L 271.168831 324.329496 
L 275.844156 324.177577 
L 280.519481 324.189379 
L 285.194805 324.112826 
L 289.87013 323.954692 
L 294.545455 323.549239 
" clip-path="url(#p8c64c1cd96)" style="fill: none; stroke: #9400d3; stroke-opacity: 0.2; stroke-width: 1.5; stroke-linecap: square"/>
   </g>
   <g id="line2d_20">
    <path d="M 65.454545 328.231999 
L 70.12987 328.287253 
L 74.805195 328.344087 
L 79.480519 328.178324 
L 84.155844 327.809186 
L 88.831169 327.445159 
L 93.506494 327.226802 
L 98.181818 326.992862 
L 102.857143 326.59185 
L 107.532468 326.133594 
L 112.207792 325.660798 
L 116.883117 325.339428 
L 121.558442 325.279871 
L 126.233766 325.241968 
L 130.909091 325.283615 
L 135.584416 325.348722 
L 140.25974 325.369863 
L 144.935065 325.389253 
L 149.61039 325.329424 
L 154.285714 325.211102 
L 158.961039 325.135968 
L 163.636364 325.142219 
L 168.311688 325.370938 
L 172.987013 325.538217 
L 177.662338 325.689664 
L 182.337662 325.803956 
L 187.012987 325.933908 
L 191.688312 326.119832 
L 196.363636 326.369582 
L 201.038961 326.625702 
L 205.714286 327.029931 
L 210.38961 327.448715 
L 215.064935 327.805807 
L 219.74026 328.12164 
L 224.415584 328.388213 
L 229.090909 328.664765 
L 233.766234 328.841648 
L 238.441558 329.080837 
L 243.116883 329.322916 
L 247.792208 329.508016 
L 252.467532 329.545152 
L 257.142857 329.53941 
L 261.818182 329.592248 
L 266.493506 329.684418 
L 271.168831 329.805202 
L 275.844156 329.876934 
L 280.519481 330.080193 
L 285.194805 330.248139 
L 289.87013 330.396791 
L 294.545455 330.523563 
" clip-path="url(#p8c64c1cd96)" style="fill: none; stroke: #9400d3; stroke-opacity: 0.2; stroke-width: 1.5; stroke-linecap: square"/>
   </g>
   <g id="line2d_21">
    <path d="M 65.454545 313.118817 
L 70.12987 313.609336 
L 74.805195 314.005158 
L 79.480519 314.022489 
L 84.155844 314.274345 
L 88.831169 315.993665 
L 93.506494 316.760848 
L 98.181818 316.981209 
L 102.857143 317.181081 
L 107.532468 317.235433 
L 112.207792 316.796364 
L 116.883117 316.498704 
L 121.558442 316.258339 
L 126.233766 316.133345 
L 130.909091 315.594339 
L 135.584416 315.013024 
L 140.25974 314.229701 
L 144.935065 313.19712 
L 149.61039 312.29338 
L 154.285714 311.33256 
L 158.961039 310.643924 
L 163.636364 310.409214 
L 168.311688 310.458453 
L 172.987013 311.345326 
L 177.662338 311.862398 
L 182.337662 312.575352 
L 187.012987 313.389411 
L 191.688312 314.001936 
L 196.363636 314.170634 
L 201.038961 314.506469 
L 205.714286 314.761874 
L 210.38961 314.916616 
L 215.064935 314.790309 
L 219.74026 314.611255 
L 224.415584 314.691134 
L 229.090909 315.070417 
L 233.766234 315.858424 
L 238.441558 316.537361 
L 243.116883 317.09307 
L 247.792208 317.612848 
L 252.467532 318.208853 
L 257.142857 319.119441 
L 261.818182 319.836288 
L 266.493506 320.553707 
L 271.168831 321.153138 
L 275.844156 321.752497 
L 280.519481 322.448293 
L 285.194805 322.955457 
L 289.87013 323.565328 
L 294.545455 324.158326 
" clip-path="url(#p8c64c1cd96)" style="fill: none; stroke: #9400d3; stroke-opacity: 0.2; stroke-width: 1.5; stroke-linecap: square"/>
   </g>
   <g id="line2d_22">
    <path d="M 65.454545 312.09133 
L 70.12987 312.347016 
L 74.805195 312.933895 
L 79.480519 313.279892 
L 84.155844 313.67758 
L 88.831169 314.066055 
L 93.506494 314.583933 
L 98.181818 315.050527 
L 102.857143 314.701772 
L 107.532468 314.471615 
L 112.207792 314.14564 
L 116.883117 313.99277 
L 121.558442 313.828548 
L 126.233766 313.56038 
L 130.909091 313.253398 
L 135.584416 312.952904 
L 140.25974 312.811522 
L 144.935065 312.90563 
L 149.61039 312.606821 
L 154.285714 312.478718 
L 158.961039 312.338509 
L 163.636364 312.088575 
L 168.311688 311.69544 
L 172.987013 311.051041 
L 177.662338 310.259739 
L 182.337662 309.964613 
L 187.012987 309.548908 
L 191.688312 309.278057 
L 196.363636 309.196365 
L 201.038961 309.488405 
L 205.714286 309.843852 
L 210.38961 310.174069 
L 215.064935 310.169828 
L 219.74026 309.90062 
L 224.415584 309.689032 
L 229.090909 310.108551 
L 233.766234 310.373287 
L 238.441558 310.823723 
L 243.116883 310.999478 
L 247.792208 311.266994 
L 252.467532 311.433797 
L 257.142857 311.776438 
L 261.818182 312.087616 
L 266.493506 312.442915 
L 271.168831 312.770963 
L 275.844156 313.005132 
L 280.519481 313.073193 
L 285.194805 313.336603 
L 289.87013 313.862302 
L 294.545455 314.126574 
" clip-path="url(#p8c64c1cd96)" style="fill: none; stroke: #9400d3; stroke-opacity: 0.2; stroke-width: 1.5; stroke-linecap: square"/>
   </g>
   <g id="line2d_23">
    <path d="M 111.272727 382.628571 
L 111.272727 308.571429 
" clip-path="url(#p8c64c1cd96)" style="fill: none; stroke-dasharray: 5.55,2.4; stroke-dashoffset: 0; stroke: #000000; stroke-width: 1.5"/>
   </g>
   <g id="line2d_24">
    <path d="M 65.454545 345.6 
L 294.545455 345.6 
" clip-path="url(#p8c64c1cd96)" style="fill: none; stroke-dasharray: 5.55,2.4; stroke-dashoffset: 0; stroke: #000000; stroke-width: 1.5"/>
   </g>
   <g id="patch_3">
    <path d="M 50 388.8 
L 50 302.4 
" style="fill: none; stroke: #000000; stroke-width: 0.8; stroke-linejoin: miter; stroke-linecap: square"/>
   </g>
   <g id="patch_4">
    <path d="M 54 392.8 
L 306 392.8 
" style="fill: none; stroke: #000000; stroke-width: 0.8; stroke-linejoin: miter; stroke-linecap: square"/>
   </g>
   <g id="text_12">
    <!-- all depths -->
    <g transform="translate(150.492188 296.4) scale(0.12 -0.12)">
     <defs>
      <path id="DejaVuSans-70" d="M 1159 525 
L 1159 -1331 
L 581 -1331 
L 581 3500 
L 1159 3500 
L 1159 2969 
Q 1341 3281 1617 3432 
Q 1894 3584 2278 3584 
Q 2916 3584 3314 3078 
Q 3713 2572 3713 1747 
Q 3713 922 3314 415 
Q 2916 -91 2278 -91 
Q 1894 -91 1617 61 
Q 1341 213 1159 525 
z
M 3116 1747 
Q 3116 2381 2855 2742 
Q 2594 3103 2138 3103 
Q 1681 3103 1420 2742 
Q 1159 2381 1159 1747 
Q 1159 1113 1420 752 
Q 1681 391 2138 391 
Q 2594 391 2855 752 
Q 3116 1113 3116 1747 
z
" transform="scale(0.015625)"/>
     </defs>
     <use xlink:href="#DejaVuSans-61"/>
     <use xlink:href="#DejaVuSans-6c" x="61.279297"/>
     <use xlink:href="#DejaVuSans-6c" x="89.0625"/>
     <use xlink:href="#DejaVuSans-20" x="116.845703"/>
     <use xlink:href="#DejaVuSans-64" x="148.632812"/>
     <use xlink:href="#DejaVuSans-65" x="212.109375"/>
     <use xlink:href="#DejaVuSans-70" x="273.632812"/>
     <use xlink:href="#DejaVuSans-74" x="337.109375"/>
     <use xlink:href="#DejaVuSans-68" x="376.318359"/>
     <use xlink:href="#DejaVuSans-73" x="439.697266"/>
    </g>
   </g>
   <g id="legend_1">
    <g id="patch_5">
     <path d="M 240.16875 383.8 
L 299 383.8 
Q 301 383.8 301 381.8 
L 301 368.121875 
Q 301 366.121875 299 366.121875 
L 240.16875 366.121875 
Q 238.16875 366.121875 238.16875 368.121875 
L 238.16875 381.8 
Q 238.16875 383.8 240.16875 383.8 
z
" style="fill: #ffffff; opacity: 0.8; stroke: #cccccc; stroke-linejoin: miter"/>
    </g>
    <g id="line2d_25">
     <path d="M 242.16875 374.220312 
L 252.16875 374.220312 
L 262.16875 374.220312 
" style="fill: none; stroke: #9400d3; stroke-width: 1.5; stroke-linecap: square"/>
    </g>
    <g id="text_13">
     <!-- iso90 -->
     <g transform="translate(270.16875 377.720312) scale(0.1 -0.1)">
      <defs>
       <path id="DejaVuSans-39" d="M 703 97 
L 703 672 
Q 941 559 1184 500 
Q 1428 441 1663 441 
Q 2288 441 2617 861 
Q 2947 1281 2994 2138 
Q 2813 1869 2534 1725 
Q 2256 1581 1919 1581 
Q 1219 1581 811 2004 
Q 403 2428 403 3163 
Q 403 3881 828 4315 
Q 1253 4750 1959 4750 
Q 2769 4750 3195 4129 
Q 3622 3509 3622 2328 
Q 3622 1225 3098 567 
Q 2575 -91 1691 -91 
Q 1453 -91 1209 -44 
Q 966 3 703 97 
z
M 1959 2075 
Q 2384 2075 2632 2365 
Q 2881 2656 2881 3163 
Q 2881 3666 2632 3958 
Q 2384 4250 1959 4250 
Q 1534 4250 1286 3958 
Q 1038 3666 1038 3163 
Q 1038 2656 1286 2365 
Q 1534 2075 1959 2075 
z
" transform="scale(0.015625)"/>
      </defs>
      <use xlink:href="#DejaVuSans-69"/>
      <use xlink:href="#DejaVuSans-73" x="27.783203"/>
      <use xlink:href="#DejaVuSans-6f" x="79.882812"/>
      <use xlink:href="#DejaVuSans-39" x="141.064453"/>
      <use xlink:href="#DejaVuSans-30" x="204.6875"/>
     </g>
    </g>
   </g>
  </g>
 </g>
 <defs>
  <clipPath id="p8c64c1cd96">
   <rect x="54" y="302.4" width="252" height="86.4"/>
  </clipPath>
 </defs>
</svg>
