<?xml version="1.0" encoding="utf-8" standalone="no"?>
<!DOCTYPE svg PUBLIC "-//W3C//DTD SVG 1.1//EN"
  "http://www.w3.org/Graphics/SVG/1.1/DTD/svg11.dtd">
<svg xmlns:xlink="http://www.w3.org/1999/xlink" width="360pt" height="432pt" viewBox="0 0 360 432" xmlns="http://www.w3.org/2000/svg" version="1.1">
 <metadata>
  <rdf:RDF xmlns:dc="http://purl.org/dc/elements/1.1/" xmlns:cc="http://creativecommons.org/ns#" xmlns:rdf="http://www.w3.org/1999/02/22-rdf-syntax-ns#">
   <cc:Work>
    <dc:type rdf:resource="http://purl.org/dc/dcmitype/StillImage"/>
    <dc:date>2026-05-26T10:35:09.935530</dc:date>
    <dc:format>image/svg+xml</dc:format>
    <dc:creator>
     <cc:Agent>
      <dc:title>Matplotlib v3.8.0, https://matplotlib.org/</dc:title>
     </cc:Agent>
    </dc:creator>
   </cc:Work>
  </rdf:RDF>
 </metadata>
 <defs>
  <style type="text/css">*{stroke-linejoin: round; stroke-linecap: butt}</style>
 </defs>
 <g id="figure_1">
  <g id="patch_1">
   <path d="M 0 432 
L 360 432 
L 360 0 
L 0 0 
z
" style="fill: #ffffff"/>
  </g>
  <g id="axes_1">
   <g id="patch_2">
    <path d="M 54 388.8 
L 306 388.8 
L 306 302.4 
L 54 302.4 
z
" style="fill: #ffffff"/>
   </g>
   <g id="PolyCollection_1">
    <defs>
     <path id="mad519c2df5" d="M 65.454545 -88.08442 
L 65.454545 -83.199275 
L 70.12987 -83.323626 
L 74.805195 -83.382216 
L 79.480519 -83.55199 
L 84.155844 -83.788276 
L 88.831169 -83.989926 
L 93.506494 -83.967168 
L 98.181818 -84.234402 
L 102.857143 -84.695576 
L 107.532468 -84.852642 
L 112.207792 -84.774185 
L 116.883117 -84.679639 
L 121.558442 -84.579108 
L 126.233766 -84.464945 
L 130.909091 -84.312977 
L 135.584416 -84.384038 
L 140.25974 -84.49052 
L 144.935065 -84.648258 
L 149.61039 -84.61918 
L 154.285714 -84.466624 
L 158.961039 -84.353787 
L 163.636364 -84.328541 
L 168.311688 -84.474718 
L 172.987013 -84.560475 
L 177.662338 -84.455079 
L 182.337662 -84.217 
L 187.012987 -84.165805 
L 191.688312 -84.154064 
L 196.363636 -84.117479 
L 201.038961 -84.299725 
L 205.714286 -84.414685 
L 210.38961 -84.520436 
L 215.064935 -84.541427 
L 219.74026 -84.58768 
L 224.415584 -84.394461 
L 229.090909 -84.130288 
L 233.766234 -83.98504 
L 238.441558 -84.13453 
L 243.116883 -84.385268 
L 247.792208 -84.229946 
L 252.467532 -83.853648 
L 257.142857 -83.477789 
L 261.818182 -83.021437 
L 266.493506 -82.45898 
L 271.168831 -81.999849 
L 275.844156 -81.842925 
L 280.519481 -81.719703 
L 285.194805 -81.834857 
L 289.87013 -81.778225 
L 294.545455 -81.726649 
L 294.545455 -85.466636 
L 294.545455 -85.466636 
L 289.87013 -85.422981 
L 285.194805 -85.280472 
L 280.519481 -85.025761 
L 275.844156 -85.042025 
L 271.168831 -85.046584 
L 266.493506 -85.25278 
L 261.818182 -85.669205 
L 257.142857 -86.053727 
L 252.467532 -86.383155 
L 247.792208 -86.849843 
L 243.116883 -87.231747 
L 238.441558 -87.153732 
L 233.766234 -87.194538 
L 229.090909 -87.527509 
L 224.415584 -87.773591 
L 219.74026 -87.842842 
L 215.064935 -87.608469 
L 210.38961 -87.338881 
L 205.714286 -87.014954 
L 201.038961 -86.977853 
L 196.363636 -87.139657 
L 191.688312 -87.449595 
L 187.012987 -87.573095 
L 182.337662 -87.601159 
L 177.662338 -87.807474 
L 172.987013 -87.978176 
L 168.311688 -88.044803 
L 163.636364 -87.953239 
L 158.961039 -88.103589 
L 154.285714 -88.189433 
L 149.61039 -88.398732 
L 144.935065 -88.348481 
L 140.25974 -88.066364 
L 135.584416 -87.904597 
L 130.909091 -87.860859 
L 126.233766 -88.048811 
L 121.558442 -88.090027 
L 116.883117 -88.272682 
L 112.207792 -88.511396 
L 107.532468 -88.908588 
L 102.857143 -89.085254 
L 98.181818 -89.045662 
L 93.506494 -88.932506 
L 88.831169 -89.180894 
L 84.155844 -89.310703 
L 79.480519 -88.9596 
L 74.805195 -88.519286 
L 70.12987 -88.340252 
L 65.454545 -88.08442 
z
" style="stroke: #9400d3; stroke-opacity: 0.4"/>
    </defs>
    <g clip-path="url(#pa90d9b7ace)">
     <use xlink:href="#mad519c2df5" x="0" y="432" style="fill: #9400d3; fill-opacity: 0.4; stroke: #9400d3; stroke-opacity: 0.4"/>
    </g>
   </g>
   <g id="matplotlib.axis_1">
    <g id="xtick_1">
     <g id="line2d_1">
      <defs>
       <path id="mc684f36733" d="M 0 0 
L 0 3.5 
" style="stroke: #000000; stroke-width: 0.8"/>
      </defs>
      <g>
       <use xlink:href="#mc684f36733" x="65.454545" y="392.8" style="stroke: #000000; stroke-width: 0.8"/>
      </g>
     </g>
     <g id="text_1">
      <!-- 0 -->
      <g transform="translate(62.273295 407.398438) scale(0.1 -0.1)">
       <defs>
        <path id="DejaVuSans-30" d="M 2034 4250 
Q 1547 4250 1301 3770 
Q 1056 3291 1056 2328 
Q 1056 1369 1301 889 
Q 1547 409 2034 409 
Q 2525 409 2770 889 
Q 3016 1369 3016 2328 
Q 3016 3291 2770 3770 
Q 2525 4250 2034 4250 
z
M 2034 4750 
Q 2819 4750 3233 4129 
Q 3647 3509 3647 2328 
Q 3647 1150 3233 529 
Q 2819 -91 2034 -91 
Q 1250 -91 836 529 
Q 422 1150 422 2328 
Q 422 3509 836 4129 
Q 1250 4750 2034 4750 
z
" transform="scale(0.015625)"/>
       </defs>
       <use xlink:href="#DejaVuSans-30"/>
      </g>
     </g>
    </g>
    <g id="xtick_2">
     <g id="line2d_2">
      <g>
       <use xlink:href="#mc684f36733" x="111.272727" y="392.8" style="stroke: #000000; stroke-width: 0.8"/>
      </g>
     </g>
     <g id="text_2">
      <!-- 1 -->
      <g transform="translate(108.091477 407.398438) scale(0.1 -0.1)">
       <defs>
        <path id="DejaVuSans-31" d="M 794 531 
L 1825 531 
L 1825 4091 
L 703 3866 
L 703 4441 
L 1819 4666 
L 2450 4666 
L 2450 531 
L 3481 531 
L 3481 0 
L 794 0 
L 794 531 
z
" transform="scale(0.015625)"/>
       </defs>
       <use xlink:href="#DejaVuSans-31"/>
      </g>
     </g>
    </g>
    <g id="xtick_3">
     <g id="line2d_3">
      <g>
       <use xlink:href="#mc684f36733" x="157.090909" y="392.8" style="stroke: #000000; stroke-width: 0.8"/>
      </g>
     </g>
     <g id="text_3">
      <!-- 2 -->
      <g transform="translate(153.909659 407.398438) scale(0.1 -0.1)">
       <defs>
        <path id="DejaVuSans-32" d="M 1228 531 
L 3431 531 
L 3431 0 
L 469 0 
L 469 531 
Q 828 903 1448 1529 
Q 2069 2156 2228 2338 
Q 2531 2678 2651 2914 
Q 2772 3150 2772 3378 
Q 2772 3750 2511 3984 
Q 2250 4219 1831 4219 
Q 1534 4219 1204 4116 
Q 875 4013 500 3803 
L 500 4441 
Q 881 4594 1212 4672 
Q 1544 4750 1819 4750 
Q 2544 4750 2975 4387 
Q 3406 4025 3406 3419 
Q 3406 3131 3298 2873 
Q 3191 2616 2906 2266 
Q 2828 2175 2409 1742 
Q 1991 1309 1228 531 
z
" transform="scale(0.015625)"/>
       </defs>
       <use xlink:href="#DejaVuSans-32"/>
      </g>
     </g>
    </g>
    <g id="xtick_4">
     <g id="line2d_4">
      <g>
       <use xlink:href="#mc684f36733" x="202.909091" y="392.8" style="stroke: #000000; stroke-width: 0.8"/>
      </g>
     </g>
     <g id="text_4">
      <!-- 3 -->
      <g transform="translate(199.727841 407.398438) scale(0.1 -0.1)">
       <defs>
        <path id="DejaVuSans-33" d="M 2597 2516 
Q 3050 2419 3304 2112 
Q 3559 1806 3559 1356 
Q 3559 666 3084 287 
Q 2609 -91 1734 -91 
Q 1441 -91 1130 -33 
Q 819 25 488 141 
L 488 750 
Q 750 597 1062 519 
Q 1375 441 1716 441 
Q 2309 441 2620 675 
Q 2931 909 2931 1356 
Q 2931 1769 2642 2001 
Q 2353 2234 1838 2234 
L 1294 2234 
L 1294 2753 
L 1863 2753 
Q 2328 2753 2575 2939 
Q 2822 3125 2822 3475 
Q 2822 3834 2567 4026 
Q 2313 4219 1838 4219 
Q 1578 4219 1281 4162 
Q 984 4106 628 3988 
L 628 4550 
Q 988 4650 1302 4700 
Q 1616 4750 1894 4750 
Q 2613 4750 3031 4423 
Q 3450 4097 3450 3541 
Q 3450 3153 3228 2886 
Q 3006 2619 2597 2516 
z
" transform="scale(0.015625)"/>
       </defs>
       <use xlink:href="#DejaVuSans-33"/>
      </g>
     </g>
    </g>
    <g id="xtick_5">
     <g id="line2d_5">
      <g>
       <use xlink:href="#mc684f36733" x="248.727273" y="392.8" style="stroke: #000000; stroke-width: 0.8"/>
      </g>
     </g>
     <g id="text_5">
      <!-- 4 -->
      <g transform="translate(245.546023 407.398438) scale(0.1 -0.1)">
       <defs>
        <path id="DejaVuSans-34" d="M 2419 4116 
L 825 1625 
L 2419 1625 
L 2419 4116 
z
M 2253 4666 
L 3047 4666 
L 3047 1625 
L 3713 1625 
L 3713 1100 
L 3047 1100 
L 3047 0 
L 2419 0 
L 2419 1100 
L 313 1100 
L 313 1709 
L 2253 4666 
z
" transform="scale(0.015625)"/>
       </defs>
       <use xlink:href="#DejaVuSans-34"/>
      </g>
     </g>
    </g>
    <g id="xtick_6">
     <g id="line2d_6">
      <g>
       <use xlink:href="#mc684f36733" x="294.545455" y="392.8" style="stroke: #000000; stroke-width: 0.8"/>
      </g>
     </g>
     <g id="text_6">
      <!-- 5 -->
      <g transform="translate(291.364205 407.398438) scale(0.1 -0.1)">
       <defs>
        <path id="DejaVuSans-35" d="M 691 4666 
L 3169 4666 
L 3169 4134 
L 1269 4134 
L 1269 2991 
Q 1406 3038 1543 3061 
Q 1681 3084 1819 3084 
Q 2600 3084 3056 2656 
Q 3513 2228 3513 1497 
Q 3513 744 3044 326 
Q 2575 -91 1722 -91 
Q 1428 -91 1123 -41 
Q 819 9 494 109 
L 494 744 
Q 775 591 1075 516 
Q 1375 441 1709 441 
Q 2250 441 2565 725 
Q 2881 1009 2881 1497 
Q 2881 1984 2565 2268 
Q 2250 2553 1709 2553 
Q 1456 2553 1204 2497 
Q 953 2441 691 2322 
L 691 4666 
z
" transform="scale(0.015625)"/>
       </defs>
       <use xlink:href="#DejaVuSans-35"/>
      </g>
     </g>
    </g>
    <g id="text_7">
     <!-- relative distance from ROI center ($\sigma$) -->
     <g transform="translate(106.48 419.556875) scale(0.08 -0.08)">
      <defs>
       <path id="DejaVuSans-72" d="M 2631 2963 
Q 2534 3019 2420 3045 
Q 2306 3072 2169 3072 
Q 1681 3072 1420 2755 
Q 1159 2438 1159 1844 
L 1159 0 
L 581 0 
L 581 3500 
L 1159 3500 
L 1159 2956 
Q 1341 3275 1631 3429 
Q 1922 3584 2338 3584 
Q 2397 3584 2469 3576 
Q 2541 3569 2628 3553 
L 2631 2963 
z
" transform="scale(0.015625)"/>
       <path id="DejaVuSans-65" d="M 3597 1894 
L 3597 1613 
L 953 1613 
Q 991 1019 1311 708 
Q 1631 397 2203 397 
Q 2534 397 2845 478 
Q 3156 559 3463 722 
L 3463 178 
Q 3153 47 2828 -22 
Q 2503 -91 2169 -91 
Q 1331 -91 842 396 
Q 353 884 353 1716 
Q 353 2575 817 3079 
Q 1281 3584 2069 3584 
Q 2775 3584 3186 3129 
Q 3597 2675 3597 1894 
z
M 3022 2063 
Q 3016 2534 2758 2815 
Q 2500 3097 2075 3097 
Q 1594 3097 1305 2825 
Q 1016 2553 972 2059 
L 3022 2063 
z
" transform="scale(0.015625)"/>
       <path id="DejaVuSans-6c" d="M 603 4863 
L 1178 4863 
L 1178 0 
L 603 0 
L 603 4863 
z
" transform="scale(0.015625)"/>
       <path id="DejaVuSans-61" d="M 2194 1759 
Q 1497 1759 1228 1600 
Q 959 1441 959 1056 
Q 959 750 1161 570 
Q 1363 391 1709 391 
Q 2188 391 2477 730 
Q 2766 1069 2766 1631 
L 2766 1759 
L 2194 1759 
z
M 3341 1997 
L 3341 0 
L 2766 0 
L 2766 531 
Q 2569 213 2275 61 
Q 1981 -91 1556 -91 
Q 1019 -91 701 211 
Q 384 513 384 1019 
Q 384 1609 779 1909 
Q 1175 2209 1959 2209 
L 2766 2209 
L 2766 2266 
Q 2766 2663 2505 2880 
Q 2244 3097 1772 3097 
Q 1472 3097 1187 3025 
Q 903 2953 641 2809 
L 641 3341 
Q 956 3463 1253 3523 
Q 1550 3584 1831 3584 
Q 2591 3584 2966 3190 
Q 3341 2797 3341 1997 
z
" transform="scale(0.015625)"/>
       <path id="DejaVuSans-74" d="M 1172 4494 
L 1172 3500 
L 2356 3500 
L 2356 3053 
L 1172 3053 
L 1172 1153 
Q 1172 725 1289 603 
Q 1406 481 1766 481 
L 2356 481 
L 2356 0 
L 1766 0 
Q 1100 0 847 248 
Q 594 497 594 1153 
L 594 3053 
L 172 3053 
L 172 3500 
L 594 3500 
L 594 4494 
L 1172 4494 
z
" transform="scale(0.015625)"/>
       <path id="DejaVuSans-69" d="M 603 3500 
L 1178 3500 
L 1178 0 
L 603 0 
L 603 3500 
z
M 603 4863 
L 1178 4863 
L 1178 4134 
L 603 4134 
L 603 4863 
z
" transform="scale(0.015625)"/>
       <path id="DejaVuSans-76" d="M 191 3500 
L 800 3500 
L 1894 563 
L 2988 3500 
L 3597 3500 
L 2284 0 
L 1503 0 
L 191 3500 
z
" transform="scale(0.015625)"/>
       <path id="DejaVuSans-20" transform="scale(0.015625)"/>
       <path id="DejaVuSans-64" d="M 2906 2969 
L 2906 4863 
L 3481 4863 
L 3481 0 
L 2906 0 
L 2906 525 
Q 2725 213 2448 61 
Q 2172 -91 1784 -91 
Q 1150 -91 751 415 
Q 353 922 353 1747 
Q 353 2572 751 3078 
Q 1150 3584 1784 3584 
Q 2172 3584 2448 3432 
Q 2725 3281 2906 2969 
z
M 947 1747 
Q 947 1113 1208 752 
Q 1469 391 1925 391 
Q 2381 391 2643 752 
Q 2906 1113 2906 1747 
Q 2906 2381 2643 2742 
Q 2381 3103 1925 3103 
Q 1469 3103 1208 2742 
Q 947 2381 947 1747 
z
" transform="scale(0.015625)"/>
       <path id="DejaVuSans-73" d="M 2834 3397 
L 2834 2853 
Q 2591 2978 2328 3040 
Q 2066 3103 1784 3103 
Q 1356 3103 1142 2972 
Q 928 2841 928 2578 
Q 928 2378 1081 2264 
Q 1234 2150 1697 2047 
L 1894 2003 
Q 2506 1872 2764 1633 
Q 3022 1394 3022 966 
Q 3022 478 2636 193 
Q 2250 -91 1575 -91 
Q 1294 -91 989 -36 
Q 684 19 347 128 
L 347 722 
Q 666 556 975 473 
Q 1284 391 1588 391 
Q 1994 391 2212 530 
Q 2431 669 2431 922 
Q 2431 1156 2273 1281 
Q 2116 1406 1581 1522 
L 1381 1569 
Q 847 1681 609 1914 
Q 372 2147 372 2553 
Q 372 3047 722 3315 
Q 1072 3584 1716 3584 
Q 2034 3584 2315 3537 
Q 2597 3491 2834 3397 
z
" transform="scale(0.015625)"/>
       <path id="DejaVuSans-6e" d="M 3513 2113 
L 3513 0 
L 2938 0 
L 2938 2094 
Q 2938 2591 2744 2837 
Q 2550 3084 2163 3084 
Q 1697 3084 1428 2787 
Q 1159 2491 1159 1978 
L 1159 0 
L 581 0 
L 581 3500 
L 1159 3500 
L 1159 2956 
Q 1366 3272 1645 3428 
Q 1925 3584 2291 3584 
Q 2894 3584 3203 3211 
Q 3513 2838 3513 2113 
z
" transform="scale(0.015625)"/>
       <path id="DejaVuSans-63" d="M 3122 3366 
L 3122 2828 
Q 2878 2963 2633 3030 
Q 2388 3097 2138 3097 
Q 1578 3097 1268 2742 
Q 959 2388 959 1747 
Q 959 1106 1268 751 
Q 1578 397 2138 397 
Q 2388 397 2633 464 
Q 2878 531 3122 666 
L 3122 134 
Q 2881 22 2623 -34 
Q 2366 -91 2075 -91 
Q 1284 -91 818 406 
Q 353 903 353 1747 
Q 353 2603 823 3093 
Q 1294 3584 2113 3584 
Q 2378 3584 2631 3529 
Q 2884 3475 3122 3366 
z
" transform="scale(0.015625)"/>
       <path id="DejaVuSans-66" d="M 2375 4863 
L 2375 4384 
L 1825 4384 
Q 1516 4384 1395 4259 
Q 1275 4134 1275 3809 
L 1275 3500 
L 2222 3500 
L 2222 3053 
L 1275 3053 
L 1275 0 
L 697 0 
L 697 3053 
L 147 3053 
L 147 3500 
L 697 3500 
L 697 3744 
Q 697 4328 969 4595 
Q 1241 4863 1831 4863 
L 2375 4863 
z
" transform="scale(0.015625)"/>
       <path id="DejaVuSans-6f" d="M 1959 3097 
Q 1497 3097 1228 2736 
Q 959 2375 959 1747 
Q 959 1119 1226 758 
Q 1494 397 1959 397 
Q 2419 397 2687 759 
Q 2956 1122 2956 1747 
Q 2956 2369 2687 2733 
Q 2419 3097 1959 3097 
z
M 1959 3584 
Q 2709 3584 3137 3096 
Q 3566 2609 3566 1747 
Q 3566 888 3137 398 
Q 2709 -91 1959 -91 
Q 1206 -91 779 398 
Q 353 888 353 1747 
Q 353 2609 779 3096 
Q 1206 3584 1959 3584 
z
" transform="scale(0.015625)"/>
       <path id="DejaVuSans-6d" d="M 3328 2828 
Q 3544 3216 3844 3400 
Q 4144 3584 4550 3584 
Q 5097 3584 5394 3201 
Q 5691 2819 5691 2113 
L 5691 0 
L 5113 0 
L 5113 2094 
Q 5113 2597 4934 2840 
Q 4756 3084 4391 3084 
Q 3944 3084 3684 2787 
Q 3425 2491 3425 1978 
L 3425 0 
L 2847 0 
L 2847 2094 
Q 2847 2600 2669 2842 
Q 2491 3084 2119 3084 
Q 1678 3084 1418 2786 
Q 1159 2488 1159 1978 
L 1159 0 
L 581 0 
L 581 3500 
L 1159 3500 
L 1159 2956 
Q 1356 3278 1631 3431 
Q 1906 3584 2284 3584 
Q 2666 3584 2933 3390 
Q 3200 3197 3328 2828 
z
" transform="scale(0.015625)"/>
       <path id="DejaVuSans-52" d="M 2841 2188 
Q 3044 2119 3236 1894 
Q 3428 1669 3622 1275 
L 4263 0 
L 3584 0 
L 2988 1197 
Q 2756 1666 2539 1819 
Q 2322 1972 1947 1972 
L 1259 1972 
L 1259 0 
L 628 0 
L 628 4666 
L 2053 4666 
Q 2853 4666 3247 4331 
Q 3641 3997 3641 3322 
Q 3641 2881 3436 2590 
Q 3231 2300 2841 2188 
z
M 1259 4147 
L 1259 2491 
L 2053 2491 
Q 2509 2491 2742 2702 
Q 2975 2913 2975 3322 
Q 2975 3731 2742 3939 
Q 2509 4147 2053 4147 
L 1259 4147 
z
" transform="scale(0.015625)"/>
       <path id="DejaVuSans-4f" d="M 2522 4238 
Q 1834 4238 1429 3725 
Q 1025 3213 1025 2328 
Q 1025 1447 1429 934 
Q 1834 422 2522 422 
Q 3209 422 3611 934 
Q 4013 1447 4013 2328 
Q 4013 3213 3611 3725 
Q 3209 4238 2522 4238 
z
M 2522 4750 
Q 3503 4750 4090 4092 
Q 4678 3434 4678 2328 
Q 4678 1225 4090 567 
Q 3503 -91 2522 -91 
Q 1538 -91 948 565 
Q 359 1222 359 2328 
Q 359 3434 948 4092 
Q 1538 4750 2522 4750 
z
" transform="scale(0.015625)"/>
       <path id="DejaVuSans-49" d="M 628 4666 
L 1259 4666 
L 1259 0 
L 628 0 
L 628 4666 
z
" transform="scale(0.015625)"/>
       <path id="DejaVuSans-28" d="M 1984 4856 
Q 1566 4138 1362 3434 
Q 1159 2731 1159 2009 
Q 1159 1288 1364 580 
Q 1569 -128 1984 -844 
L 1484 -844 
Q 1016 -109 783 600 
Q 550 1309 550 2009 
Q 550 2706 781 3412 
Q 1013 4119 1484 4856 
L 1984 4856 
z
" transform="scale(0.015625)"/>
       <path id="DejaVuSans-Oblique-3c3" d="M 2219 3044 
Q 1744 3044 1422 2700 
Q 1081 2341 969 1747 
Q 844 1119 1044 756 
Q 1241 397 1706 397 
Q 2166 397 2503 759 
Q 2844 1122 2966 1747 
Q 3075 2319 2881 2700 
Q 2700 3044 2219 3044 
z
M 2309 3503 
L 4219 3500 
L 4106 2925 
L 3463 2925 
Q 3706 2438 3575 1747 
Q 3406 888 2884 400 
Q 2359 -91 1609 -91 
Q 856 -91 525 400 
Q 194 888 363 1747 
Q 528 2609 1050 3097 
Q 1484 3503 2309 3503 
z
" transform="scale(0.015625)"/>
       <path id="DejaVuSans-29" d="M 513 4856 
L 1013 4856 
Q 1481 4119 1714 3412 
Q 1947 2706 1947 2009 
Q 1947 1309 1714 600 
Q 1481 -109 1013 -844 
L 513 -844 
Q 928 -128 1133 580 
Q 1338 1288 1338 2009 
Q 1338 2731 1133 3434 
Q 928 4138 513 4856 
z
" transform="scale(0.015625)"/>
      </defs>
      <use xlink:href="#DejaVuSans-72" transform="translate(0 0.015625)"/>
      <use xlink:href="#DejaVuSans-65" transform="translate(41.113281 0.015625)"/>
      <use xlink:href="#DejaVuSans-6c" transform="translate(102.636719 0.015625)"/>
      <use xlink:href="#DejaVuSans-61" transform="translate(130.419922 0.015625)"/>
      <use xlink:href="#DejaVuSans-74" transform="translate(191.699219 0.015625)"/>
      <use xlink:href="#DejaVuSans-69" transform="translate(230.908203 0.015625)"/>
      <use xlink:href="#DejaVuSans-76" transform="translate(258.691406 0.015625)"/>
      <use xlink:href="#DejaVuSans-65" transform="translate(317.871094 0.015625)"/>
      <use xlink:href="#DejaVuSans-20" transform="translate(379.394531 0.015625)"/>
      <use xlink:href="#DejaVuSans-64" transform="translate(411.181641 0.015625)"/>
      <use xlink:href="#DejaVuSans-69" transform="translate(474.658203 0.015625)"/>
      <use xlink:href="#DejaVuSans-73" transform="translate(502.441406 0.015625)"/>
      <use xlink:href="#DejaVuSans-74" transform="translate(554.541016 0.015625)"/>
      <use xlink:href="#DejaVuSans-61" transform="translate(593.75 0.015625)"/>
      <use xlink:href="#DejaVuSans-6e" transform="translate(655.029297 0.015625)"/>
      <use xlink:href="#DejaVuSans-63" transform="translate(718.408203 0.015625)"/>
      <use xlink:href="#DejaVuSans-65" transform="translate(773.388672 0.015625)"/>
      <use xlink:href="#DejaVuSans-20" transform="translate(834.912109 0.015625)"/>
      <use xlink:href="#DejaVuSans-66" transform="translate(866.699219 0.015625)"/>
      <use xlink:href="#DejaVuSans-72" transform="translate(901.904297 0.015625)"/>
      <use xlink:href="#DejaVuSans-6f" transform="translate(943.017578 0.015625)"/>
      <use xlink:href="#DejaVuSans-6d" transform="translate(1004.199219 0.015625)"/>
      <use xlink:href="#DejaVuSans-20" transform="translate(1101.611328 0.015625)"/>
      <use xlink:href="#DejaVuSans-52" transform="translate(1133.398438 0.015625)"/>
      <use xlink:href="#DejaVuSans-4f" transform="translate(1202.880859 0.015625)"/>
      <use xlink:href="#DejaVuSans-49" transform="translate(1281.591797 0.015625)"/>
      <use xlink:href="#DejaVuSans-20" transform="translate(1311.083984 0.015625)"/>
      <use xlink:href="#DejaVuSans-63" transform="translate(1342.871094 0.015625)"/>
      <use xlink:href="#DejaVuSans-65" transform="translate(1397.851562 0.015625)"/>
      <use xlink:href="#DejaVuSans-6e" transform="translate(1459.375 0.015625)"/>
      <use xlink:href="#DejaVuSans-74" transform="translate(1522.753906 0.015625)"/>
      <use xlink:href="#DejaVuSans-65" transform="translate(1561.962891 0.015625)"/>
      <use xlink:href="#DejaVuSans-72" transform="translate(1623.486328 0.015625)"/>
      <use xlink:href="#DejaVuSans-20" transform="translate(1664.599609 0.015625)"/>
      <use xlink:href="#DejaVuSans-28" transform="translate(1696.386719 0.015625)"/>
      <use xlink:href="#DejaVuSans-Oblique-3c3" transform="translate(1735.400391 0.015625)"/>
      <use xlink:href="#DejaVuSans-29" transform="translate(1798.779297 0.015625)"/>
     </g>
    </g>
   </g>
   <g id="matplotlib.axis_2">
    <g id="ytick_1">
     <g id="line2d_7">
      <defs>
       <path id="m2a648404d6" d="M 0 0 
L -3.5 0 
" style="stroke: #000000; stroke-width: 0.8"/>
      </defs>
      <g>
       <use xlink:href="#m2a648404d6" x="50" y="376.457143" style="stroke: #000000; stroke-width: 0.8"/>
      </g>
     </g>
     <g id="text_8">
      <!-- −5 -->
      <g transform="translate(28.257812 380.256362) scale(0.1 -0.1)">
       <defs>
        <path id="DejaVuSans-2212" d="M 678 2272 
L 4684 2272 
L 4684 1741 
L 678 1741 
L 678 2272 
z
" transform="scale(0.015625)"/>
       </defs>
       <use xlink:href="#DejaVuSans-2212"/>
       <use xlink:href="#DejaVuSans-35" x="83.789062"/>
      </g>
     </g>
    </g>
    <g id="ytick_2">
     <g id="line2d_8">
      <g>
       <use xlink:href="#m2a648404d6" x="50" y="345.6" style="stroke: #000000; stroke-width: 0.8"/>
      </g>
     </g>
     <g id="text_9">
      <!-- 0 -->
      <g transform="translate(36.6375 349.399219) scale(0.1 -0.1)">
       <use xlink:href="#DejaVuSans-30"/>
      </g>
     </g>
    </g>
    <g id="ytick_3">
     <g id="line2d_9">
      <g>
       <use xlink:href="#m2a648404d6" x="50" y="314.742857" style="stroke: #000000; stroke-width: 0.8"/>
      </g>
     </g>
     <g id="text_10">
      <!-- 5 -->
      <g transform="translate(36.6375 318.542076) scale(0.1 -0.1)">
       <use xlink:href="#DejaVuSans-35"/>
      </g>
     </g>
    </g>
    <g id="text_11">
     <!-- BOLD % change -->
     <g transform="translate(22.594062 377.79625) rotate(-90) scale(0.08 -0.08)">
      <defs>
       <path id="DejaVuSans-42" d="M 1259 2228 
L 1259 519 
L 2272 519 
Q 2781 519 3026 730 
Q 3272 941 3272 1375 
Q 3272 1813 3026 2020 
Q 2781 2228 2272 2228 
L 1259 2228 
z
M 1259 4147 
L 1259 2741 
L 2194 2741 
Q 2656 2741 2882 2914 
Q 3109 3088 3109 3444 
Q 3109 3797 2882 3972 
Q 2656 4147 2194 4147 
L 1259 4147 
z
M 628 4666 
L 2241 4666 
Q 2963 4666 3353 4366 
Q 3744 4066 3744 3513 
Q 3744 3084 3544 2831 
Q 3344 2578 2956 2516 
Q 3422 2416 3680 2098 
Q 3938 1781 3938 1306 
Q 3938 681 3513 340 
Q 3088 0 2303 0 
L 628 0 
L 628 4666 
z
" transform="scale(0.015625)"/>
       <path id="DejaVuSans-4c" d="M 628 4666 
L 1259 4666 
L 1259 531 
L 3531 531 
L 3531 0 
L 628 0 
L 628 4666 
z
" transform="scale(0.015625)"/>
       <path id="DejaVuSans-44" d="M 1259 4147 
L 1259 519 
L 2022 519 
Q 2988 519 3436 956 
Q 3884 1394 3884 2338 
Q 3884 3275 3436 3711 
Q 2988 4147 2022 4147 
L 1259 4147 
z
M 628 4666 
L 1925 4666 
Q 3281 4666 3915 4102 
Q 4550 3538 4550 2338 
Q 4550 1131 3912 565 
Q 3275 0 1925 0 
L 628 0 
L 628 4666 
z
" transform="scale(0.015625)"/>
       <path id="DejaVuSans-25" d="M 4653 2053 
Q 4381 2053 4226 1822 
Q 4072 1591 4072 1178 
Q 4072 772 4226 539 
Q 4381 306 4653 306 
Q 4919 306 5073 539 
Q 5228 772 5228 1178 
Q 5228 1588 5073 1820 
Q 4919 2053 4653 2053 
z
M 4653 2450 
Q 5147 2450 5437 2106 
Q 5728 1763 5728 1178 
Q 5728 594 5436 251 
Q 5144 -91 4653 -91 
Q 4153 -91 3862 251 
Q 3572 594 3572 1178 
Q 3572 1766 3864 2108 
Q 4156 2450 4653 2450 
z
M 1428 4353 
Q 1159 4353 1004 4120 
Q 850 3888 850 3481 
Q 850 3069 1003 2837 
Q 1156 2606 1428 2606 
Q 1700 2606 1854 2837 
Q 2009 3069 2009 3481 
Q 2009 3884 1853 4118 
Q 1697 4353 1428 4353 
z
M 4250 4750 
L 4750 4750 
L 1831 -91 
L 1331 -91 
L 4250 4750 
z
M 1428 4750 
Q 1922 4750 2215 4408 
Q 2509 4066 2509 3481 
Q 2509 2891 2217 2550 
Q 1925 2209 1428 2209 
Q 931 2209 642 2551 
Q 353 2894 353 3481 
Q 353 4063 643 4406 
Q 934 4750 1428 4750 
z
" transform="scale(0.015625)"/>
       <path id="DejaVuSans-68" d="M 3513 2113 
L 3513 0 
L 2938 0 
L 2938 2094 
Q 2938 2591 2744 2837 
Q 2550 3084 2163 3084 
Q 1697 3084 1428 2787 
Q 1159 2491 1159 1978 
L 1159 0 
L 581 0 
L 581 4863 
L 1159 4863 
L 1159 2956 
Q 1366 3272 1645 3428 
Q 1925 3584 2291 3584 
Q 2894 3584 3203 3211 
Q 3513 2838 3513 2113 
z
" transform="scale(0.015625)"/>
       <path id="DejaVuSans-67" d="M 2906 1791 
Q 2906 2416 2648 2759 
Q 2391 3103 1925 3103 
Q 1463 3103 1205 2759 
Q 947 2416 947 1791 
Q 947 1169 1205 825 
Q 1463 481 1925 481 
Q 2391 481 2648 825 
Q 2906 1169 2906 1791 
z
M 3481 434 
Q 3481 -459 3084 -895 
Q 2688 -1331 1869 -1331 
Q 1566 -1331 1297 -1286 
Q 1028 -1241 775 -1147 
L 775 -588 
Q 1028 -725 1275 -790 
Q 1522 -856 1778 -856 
Q 2344 -856 2625 -561 
Q 2906 -266 2906 331 
L 2906 616 
Q 2728 306 2450 153 
Q 2172 0 1784 0 
Q 1141 0 747 490 
Q 353 981 353 1791 
Q 353 2603 747 3093 
Q 1141 3584 1784 3584 
Q 2172 3584 2450 3431 
Q 2728 3278 2906 2969 
L 2906 3500 
L 3481 3500 
L 3481 434 
z
" transform="scale(0.015625)"/>
      </defs>
      <use xlink:href="#DejaVuSans-42"/>
      <use xlink:href="#DejaVuSans-4f" x="66.853516"/>
      <use xlink:href="#DejaVuSans-4c" x="145.564453"/>
      <use xlink:href="#DejaVuSans-44" x="201.277344"/>
      <use xlink:href="#DejaVuSans-20" x="278.279297"/>
      <use xlink:href="#DejaVuSans-25" x="310.066406"/>
      <use xlink:href="#DejaVuSans-20" x="405.085938"/>
      <use xlink:href="#DejaVuSans-63" x="436.873047"/>
      <use xlink:href="#DejaVuSans-68" x="491.853516"/>
      <use xlink:href="#DejaVuSans-61" x="555.232422"/>
      <use xlink:href="#DejaVuSans-6e" x="616.511719"/>
      <use xlink:href="#DejaVuSans-67" x="679.890625"/>
      <use xlink:href="#DejaVuSans-65" x="743.367188"/>
     </g>
    </g>
   </g>
   <g id="line2d_10">
    <path d="M 65.454545 346.358153 
L 70.12987 346.168061 
L 74.805195 346.049249 
L 79.480519 345.744205 
L 84.155844 345.450511 
L 88.831169 345.41459 
L 93.506494 345.550163 
L 98.181818 345.359968 
L 102.857143 345.109585 
L 107.532468 345.119385 
L 112.207792 345.35721 
L 116.883117 345.523839 
L 121.558442 345.665432 
L 126.233766 345.743122 
L 130.909091 345.913082 
L 135.584416 345.855683 
L 140.25974 345.721558 
L 144.935065 345.50163 
L 149.61039 345.491044 
L 154.285714 345.671972 
L 158.961039 345.771312 
L 163.636364 345.85911 
L 168.311688 345.74024 
L 172.987013 345.730675 
L 177.662338 345.868723 
L 182.337662 346.09092 
L 187.012987 346.13055 
L 191.688312 346.198171 
L 196.363636 346.371432 
L 201.038961 346.361211 
L 205.714286 346.28518 
L 210.38961 346.070341 
L 215.064935 345.925052 
L 219.74026 345.784739 
L 224.415584 345.915974 
L 229.090909 346.171101 
L 233.766234 346.410211 
L 238.441558 346.355869 
L 243.116883 346.191492 
L 247.792208 346.460105 
L 252.467532 346.881598 
L 257.142857 347.234242 
L 261.818182 347.654679 
L 266.493506 348.14412 
L 271.168831 348.476784 
L 275.844156 348.557525 
L 280.519481 348.627268 
L 285.194805 348.442336 
L 289.87013 348.399397 
L 294.545455 348.403357 
" clip-path="url(#pa90d9b7ace)" style="fill: none; stroke: #9400d3; stroke-width: 1.5; stroke-linecap: square"/>
   </g>
   <g id="line2d_11">
    <path d="M 65.454545 348.758754 
L 70.12987 349.176005 
L 74.805195 349.703993 
L 79.480519 350.694754 
L 84.155844 351.745901 
L 88.831169 353.062034 
L 93.506494 354.27743 
L 98.181818 354.913998 
L 102.857143 353.996236 
L 107.532468 352.621118 
L 112.207792 351.72523 
L 116.883117 350.955271 
L 121.558442 350.483106 
L 126.233766 349.520644 
L 130.909091 348.88691 
L 135.584416 348.707909 
L 140.25974 348.544539 
L 144.935065 348.309126 
L 149.61039 348.16425 
L 154.285714 348.246481 
L 158.961039 347.95003 
L 163.636364 347.468361 
L 168.311688 347.12799 
L 172.987013 347.303935 
L 177.662338 347.479275 
L 182.337662 347.640756 
L 187.012987 348.12671 
L 191.688312 349.346218 
L 196.363636 349.242366 
L 201.038961 348.743048 
L 205.714286 348.717473 
L 210.38961 349.286618 
L 215.064935 349.132 
L 219.74026 349.378418 
L 224.415584 349.802917 
L 229.090909 350.020074 
L 233.766234 349.809937 
L 238.441558 349.100087 
L 243.116883 348.112394 
L 247.792208 347.91531 
L 252.467532 348.746554 
L 257.142857 349.806209 
L 261.818182 350.127102 
L 266.493506 350.818119 
L 271.168831 351.780181 
L 275.844156 352.970172 
L 280.519481 353.623618 
L 285.194805 353.808208 
L 289.87013 354.460485 
L 294.545455 354.950172 
" clip-path="url(#pa90d9b7ace)" style="fill: none; stroke: #9400d3; stroke-opacity: 0.2; stroke-width: 1.5; stroke-linecap: square"/>
   </g>
   <g id="line2d_12">
    <path d="M 65.454545 351.564751 
L 70.12987 351.564751 
L 74.805195 351.293374 
L 79.480519 350.601189 
L 84.155844 349.607669 
L 88.831169 348.202576 
L 93.506494 346.915174 
L 98.181818 346.406326 
L 102.857143 346.065001 
L 107.532468 345.75163 
L 112.207792 345.320876 
L 116.883117 345.548568 
L 121.558442 345.565818 
L 126.233766 344.931306 
L 130.909091 344.562807 
L 135.584416 344.3614 
L 140.25974 343.916487 
L 144.935065 343.469325 
L 149.61039 343.265207 
L 154.285714 343.068313 
L 158.961039 343.076421 
L 163.636364 343.116965 
L 168.311688 343.214176 
L 172.987013 343.176911 
L 177.662338 343.208787 
L 182.337662 343.013777 
L 187.012987 343.137759 
L 191.688312 343.149249 
L 196.363636 343.165779 
L 201.038961 343.33361 
L 205.714286 343.453064 
L 210.38961 343.474958 
L 215.064935 343.134261 
L 219.74026 342.663657 
L 224.415584 342.321914 
L 229.090909 342.098987 
L 233.766234 342.249606 
L 238.441558 342.296321 
L 243.116883 342.242153 
L 247.792208 342.313318 
L 252.467532 342.560996 
L 257.142857 342.64064 
L 261.818182 342.835305 
L 266.493506 342.877265 
L 271.168831 342.899353 
L 275.844156 342.856633 
L 280.519481 342.718267 
L 285.194805 342.538491 
L 289.87013 342.231298 
L 294.545455 341.830376 
" clip-path="url(#pa90d9b7ace)" style="fill: none; stroke: #9400d3; stroke-opacity: 0.2; stroke-width: 1.5; stroke-linecap: square"/>
   </g>
   <g id="line2d_13">
    <path d="M 65.454545 357.893191 
L 70.12987 358.409301 
L 74.805195 359.437945 
L 79.480519 359.048346 
L 84.155844 358.117644 
L 88.831169 357.401491 
L 93.506494 357.40442 
L 98.181818 356.572117 
L 102.857143 355.852142 
L 107.532468 355.960126 
L 112.207792 355.270998 
L 116.883117 354.449794 
L 121.558442 353.493236 
L 126.233766 353.100425 
L 130.909091 353.435059 
L 135.584416 352.420111 
L 140.25974 352.345028 
L 144.935065 352.058902 
L 149.61039 353.206303 
L 154.285714 354.618164 
L 158.961039 356.069551 
L 163.636364 356.650866 
L 168.311688 357.156072 
L 172.987013 357.596637 
L 177.662338 358.34795 
L 182.337662 359.110016 
L 187.012987 358.782744 
L 191.688312 357.233263 
L 196.363636 355.400605 
L 201.038961 353.624756 
L 205.714286 351.791409 
L 210.38961 349.995819 
L 215.064935 349.524989 
L 219.74026 349.724806 
L 224.415584 350.818668 
L 229.090909 351.654476 
L 233.766234 350.717554 
L 238.441558 348.819425 
L 243.116883 346.875907 
L 247.792208 347.262424 
L 252.467532 347.606874 
L 257.142857 347.191418 
L 261.818182 347.768602 
L 266.493506 349.356072 
L 271.168831 350.908514 
L 275.844156 349.614059 
L 280.519481 348.447057 
L 285.194805 347.827248 
L 289.87013 346.983128 
L 294.545455 346.314288 
" clip-path="url(#pa90d9b7ace)" style="fill: none; stroke: #9400d3; stroke-opacity: 0.2; stroke-width: 1.5; stroke-linecap: square"/>
   </g>
   <g id="line2d_14">
    <path d="M 65.454545 347.141897 
L 70.12987 347.141897 
L 74.805195 347.37943 
L 79.480519 347.728589 
L 84.155844 347.421047 
L 88.831169 346.705129 
L 93.506494 345.492825 
L 98.181818 344.956234 
L 102.857143 345.007721 
L 107.532468 344.771807 
L 112.207792 344.989 
L 116.883117 345.189518 
L 121.558442 344.81145 
L 126.233766 344.737309 
L 130.909091 345.086044 
L 135.584416 345.38971 
L 140.25974 345.707525 
L 144.935065 345.834192 
L 149.61039 345.925911 
L 154.285714 345.723134 
L 158.961039 345.573926 
L 163.636364 345.548522 
L 168.311688 345.446799 
L 172.987013 345.277238 
L 177.662338 345.303596 
L 182.337662 345.223693 
L 187.012987 345.273427 
L 191.688312 345.229729 
L 196.363636 345.207663 
L 201.038961 345.27326 
L 205.714286 345.204003 
L 210.38961 344.975753 
L 215.064935 345.123383 
L 219.74026 345.327485 
L 224.415584 345.429006 
L 229.090909 345.53271 
L 233.766234 345.660676 
L 238.441558 345.648135 
L 243.116883 345.47819 
L 247.792208 345.439852 
L 252.467532 345.145796 
L 257.142857 344.653661 
L 261.818182 344.993529 
L 266.493506 345.832869 
L 271.168831 346.543749 
L 275.844156 347.183515 
L 280.519481 347.563549 
L 285.194805 347.602222 
L 289.87013 347.803554 
L 294.545455 347.572391 
" clip-path="url(#pa90d9b7ace)" style="fill: none; stroke: #9400d3; stroke-opacity: 0.2; stroke-width: 1.5; stroke-linecap: square"/>
   </g>
   <g id="line2d_15">
    <path d="M 65.454545 352.27484 
L 70.12987 352.143946 
L 74.805195 351.324745 
L 79.480519 350.410254 
L 84.155844 349.939382 
L 88.831169 349.722301 
L 93.506494 349.912151 
L 98.181818 348.63536 
L 102.857143 346.393685 
L 107.532468 346.59836 
L 112.207792 347.445703 
L 116.883117 348.331045 
L 121.558442 349.664264 
L 126.233766 351.303773 
L 130.909091 351.273121 
L 135.584416 351.202566 
L 140.25974 351.193646 
L 144.935065 351.597048 
L 149.61039 351.560008 
L 154.285714 350.949181 
L 158.961039 350.456301 
L 163.636364 351.056622 
L 168.311688 350.645503 
L 172.987013 350.145463 
L 177.662338 349.825468 
L 182.337662 350.45475 
L 187.012987 350.992908 
L 191.688312 351.259846 
L 196.363636 351.6726 
L 201.038961 351.079245 
L 205.714286 350.833971 
L 210.38961 350.430497 
L 215.064935 350.19619 
L 219.74026 349.763566 
L 224.415584 350.22274 
L 229.090909 350.777556 
L 233.766234 351.87387 
L 238.441558 351.76824 
L 243.116883 351.202345 
L 247.792208 350.867439 
L 252.467532 352.044661 
L 257.142857 353.275197 
L 261.818182 354.753141 
L 266.493506 356.216609 
L 271.168831 357.531544 
L 275.844156 358.195062 
L 280.519481 358.872554 
L 285.194805 359.071091 
L 289.87013 359.494043 
L 294.545455 359.146505 
" clip-path="url(#pa90d9b7ace)" style="fill: none; stroke: #9400d3; stroke-opacity: 0.2; stroke-width: 1.5; stroke-linecap: square"/>
   </g>
   <g id="line2d_16">
    <path d="M 65.454545 326.080039 
L 70.12987 326.171058 
L 74.805195 326.320168 
L 79.480519 326.301173 
L 84.155844 326.067956 
L 88.831169 328.244111 
L 93.506494 330.562196 
L 98.181818 331.666779 
L 102.857143 332.924552 
L 107.532468 334.988133 
L 112.207792 337.72454 
L 116.883117 340.291535 
L 121.558442 341.634791 
L 126.233766 342.528529 
L 130.909091 344.219888 
L 135.584416 344.966493 
L 140.25974 344.66572 
L 144.935065 344.512017 
L 149.61039 344.254364 
L 154.285714 343.997887 
L 158.961039 343.790717 
L 163.636364 342.483691 
L 168.311688 341.067586 
L 172.987013 340.222384 
L 177.662338 340.376042 
L 182.337662 340.558712 
L 187.012987 340.468583 
L 191.688312 340.673395 
L 196.363636 341.706016 
L 201.038961 342.051915 
L 205.714286 341.952184 
L 210.38961 342.269796 
L 215.064935 342.438843 
L 219.74026 342.286739 
L 224.415584 342.308341 
L 229.090909 342.463297 
L 233.766234 342.372185 
L 238.441558 342.168124 
L 243.116883 342.105257 
L 247.792208 342.527554 
L 252.467532 342.980687 
L 257.142857 343.911137 
L 261.818182 344.420641 
L 266.493506 344.84059 
L 271.168831 344.782622 
L 275.844156 344.290707 
L 280.519481 344.222981 
L 285.194805 343.314856 
L 289.87013 341.797031 
L 294.545455 341.25226 
" clip-path="url(#pa90d9b7ace)" style="fill: none; stroke: #9400d3; stroke-opacity: 0.2; stroke-width: 1.5; stroke-linecap: square"/>
   </g>
   <g id="line2d_17">
    <path d="M 65.454545 342.666935 
L 70.12987 342.474107 
L 74.805195 342.822888 
L 79.480519 343.836377 
L 84.155844 344.722433 
L 88.831169 345.265514 
L 93.506494 345.458985 
L 98.181818 345.12609 
L 102.857143 344.385418 
L 107.532468 344.148487 
L 112.207792 343.956426 
L 116.883117 343.40174 
L 121.558442 342.727949 
L 126.233766 342.196961 
L 130.909091 342.043181 
L 135.584416 341.83929 
L 140.25974 341.502308 
L 144.935065 341.046716 
L 149.61039 340.72308 
L 154.285714 341.223 
L 158.961039 341.93245 
L 163.636364 342.394925 
L 168.311688 342.746104 
L 172.987013 343.391263 
L 177.662338 344.01207 
L 182.337662 344.417818 
L 187.012987 344.578968 
L 191.688312 344.76107 
L 196.363636 345.181411 
L 201.038961 345.073454 
L 205.714286 344.887523 
L 210.38961 345.276995 
L 215.064935 345.556307 
L 219.74026 345.983077 
L 224.415584 346.257427 
L 229.090909 346.643854 
L 233.766234 347.288611 
L 238.441558 348.056009 
L 243.116883 348.903916 
L 247.792208 349.192802 
L 252.467532 349.126974 
L 257.142857 349.231425 
L 261.818182 349.50149 
L 266.493506 349.263293 
L 271.168831 349.265435 
L 275.844156 349.657359 
L 280.519481 350.271032 
L 285.194805 350.524789 
L 289.87013 350.434573 
L 294.545455 350.255668 
" clip-path="url(#pa90d9b7ace)" style="fill: none; stroke: #9400d3; stroke-opacity: 0.2; stroke-width: 1.5; stroke-linecap: square"/>
   </g>
   <g id="line2d_18">
    <path d="M 65.454545 345.472751 
L 70.12987 345.58563 
L 74.805195 346.140963 
L 79.480519 346.456813 
L 84.155844 345.985437 
L 88.831169 345.092873 
L 93.506494 344.331993 
L 98.181818 344.484098 
L 102.857143 344.392448 
L 107.532468 344.087635 
L 112.207792 344.715905 
L 116.883117 344.58566 
L 121.558442 344.433926 
L 126.233766 344.328039 
L 130.909091 344.330399 
L 135.584416 344.947068 
L 140.25974 345.13443 
L 144.935065 345.048849 
L 149.61039 345.466762 
L 154.285714 346.337316 
L 158.961039 346.917127 
L 163.636364 346.489079 
L 168.311688 345.961137 
L 172.987013 345.53759 
L 177.662338 345.069695 
L 182.337662 344.629788 
L 187.012987 343.971009 
L 191.688312 343.483576 
L 196.363636 343.823352 
L 201.038961 344.766607 
L 205.714286 346.349029 
L 210.38961 347.35267 
L 215.064935 347.836386 
L 219.74026 347.652201 
L 224.415584 347.596855 
L 229.090909 348.029863 
L 233.766234 348.475258 
L 238.441558 348.982168 
L 243.116883 349.298752 
L 247.792208 349.442086 
L 252.467532 349.837 
L 257.142857 350.100043 
L 261.818182 350.089231 
L 266.493506 349.9943 
L 271.168831 349.579387 
L 275.844156 349.972925 
L 280.519481 349.691809 
L 285.194805 349.879988 
L 289.87013 350.35418 
L 294.545455 351.21928 
" clip-path="url(#pa90d9b7ace)" style="fill: none; stroke: #9400d3; stroke-opacity: 0.2; stroke-width: 1.5; stroke-linecap: square"/>
   </g>
   <g id="line2d_19">
    <path d="M 65.454545 346.139897 
L 70.12987 346.488398 
L 74.805195 346.748605 
L 79.480519 347.34042 
L 84.155844 348.016267 
L 88.831169 347.876899 
L 93.506494 347.67656 
L 98.181818 347.76755 
L 102.857143 347.544296 
L 107.532468 347.520967 
L 112.207792 347.618815 
L 116.883117 347.61244 
L 121.558442 347.99245 
L 126.233766 348.48765 
L 130.909091 348.782403 
L 135.584416 348.633627 
L 140.25974 348.449931 
L 144.935065 348.368338 
L 149.61039 348.329716 
L 154.285714 348.29192 
L 158.961039 348.069053 
L 163.636364 348.019587 
L 168.311688 347.602678 
L 172.987013 347.205349 
L 177.662338 346.960881 
L 182.337662 346.802299 
L 187.012987 346.765926 
L 191.688312 346.893977 
L 196.363636 347.32727 
L 201.038961 347.590802 
L 205.714286 348.096925 
L 210.38961 348.423682 
L 215.064935 348.65134 
L 219.74026 348.711969 
L 224.415584 348.43226 
L 229.090909 348.130993 
L 233.766234 348.154434 
L 238.441558 348.435659 
L 243.116883 348.760722 
L 247.792208 349.308289 
L 252.467532 349.355932 
L 257.142857 349.506438 
L 261.818182 349.471785 
L 266.493506 349.670735 
L 271.168831 349.841046 
L 275.844156 350.136116 
L 280.519481 350.769664 
L 285.194805 350.833784 
L 289.87013 350.560837 
L 294.545455 350.372958 
" clip-path="url(#pa90d9b7ace)" style="fill: none; stroke: #9400d3; stroke-opacity: 0.2; stroke-width: 1.5; stroke-linecap: square"/>
   </g>
   <g id="line2d_20">
    <path d="M 65.454545 339.10307 
L 70.12987 336.730787 
L 74.805195 334.754365 
L 79.480519 330.596859 
L 84.155844 328.700223 
L 88.831169 328.95661 
L 93.506494 329.395694 
L 98.181818 329.174971 
L 102.857143 330.478815 
L 107.532468 331.075195 
L 112.207792 331.20015 
L 116.883117 330.724271 
L 121.558442 330.967108 
L 126.233766 330.761185 
L 130.909091 330.932711 
L 135.584416 330.495992 
L 140.25974 330.122909 
L 144.935065 329.295026 
L 149.61039 329.139238 
L 154.285714 329.893898 
L 158.961039 330.09531 
L 163.636364 331.660717 
L 168.311688 332.567905 
L 172.987013 334.122541 
L 177.662338 335.167254 
L 182.337662 336.074373 
L 187.012987 335.949729 
L 191.688312 335.967017 
L 196.363636 336.54823 
L 201.038961 337.419225 
L 205.714286 336.740043 
L 210.38961 334.221691 
L 215.064935 332.381393 
L 219.74026 331.132188 
L 224.415584 330.872814 
L 229.090909 331.349928 
L 233.766234 332.744067 
L 238.441558 333.612501 
L 243.116883 334.405905 
L 247.792208 336.030746 
L 252.467532 337.395943 
L 257.142857 338.001411 
L 261.818182 338.438023 
L 266.493506 338.436838 
L 271.168831 337.762704 
L 275.844156 337.315912 
L 280.519481 337.275343 
L 285.194805 336.709153 
L 289.87013 336.752882 
L 294.545455 336.897577 
" clip-path="url(#pa90d9b7ace)" style="fill: none; stroke: #9400d3; stroke-opacity: 0.2; stroke-width: 1.5; stroke-linecap: square"/>
   </g>
   <g id="line2d_21">
    <path d="M 65.454545 352.843554 
L 70.12987 351.962793 
L 74.805195 350.615263 
L 79.480519 350.171479 
L 84.155844 349.631657 
L 88.831169 349.03095 
L 93.506494 349.624364 
L 98.181818 349.256122 
L 102.857143 349.165123 
L 107.532468 348.789781 
L 112.207792 348.961664 
L 116.883117 349.672391 
L 121.558442 350.545656 
L 126.233766 351.278521 
L 130.909091 351.491379 
L 135.584416 351.448345 
L 140.25974 351.354615 
L 144.935065 350.978392 
L 149.61039 350.36665 
L 154.285714 350.042395 
L 158.961039 349.553546 
L 163.636364 349.560874 
L 168.311688 349.606685 
L 172.987013 349.058108 
L 177.662338 348.804942 
L 182.337662 349.07414 
L 187.012987 349.388291 
L 191.688312 350.182535 
L 196.363636 350.810462 
L 201.038961 351.017396 
L 205.714286 351.111361 
L 210.38961 351.065271 
L 215.064935 351.200481 
L 219.74026 351.008024 
L 224.415584 351.012773 
L 229.090909 351.180377 
L 233.766234 351.16612 
L 238.441558 351.02789 
L 243.116883 350.720875 
L 247.792208 350.76134 
L 252.467532 350.896168 
L 257.142857 351.259087 
L 261.818182 351.80262 
L 266.493506 352.278629 
L 271.168831 352.350087 
L 275.844156 351.940318 
L 280.519481 351.444077 
L 285.194805 350.755863 
L 289.87013 351.521358 
L 294.545455 352.625456 
" clip-path="url(#pa90d9b7ace)" style="fill: none; stroke: #9400d3; stroke-opacity: 0.2; stroke-width: 1.5; stroke-linecap: square"/>
   </g>
   <g id="line2d_22">
    <path d="M 111.272727 382.628571 
L 111.272727 308.571429 
" clip-path="url(#pa90d9b7ace)" style="fill: none; stroke-dasharray: 5.55,2.4; stroke-dashoffset: 0; stroke: #000000; stroke-width: 1.5"/>
   </g>
   <g id="line2d_23">
    <path d="M 65.454545 345.6 
L 294.545455 345.6 
" clip-path="url(#pa90d9b7ace)" style="fill: none; stroke-dasharray: 5.55,2.4; stroke-dashoffset: 0; stroke: #000000; stroke-width: 1.5"/>
   </g>
   <g id="patch_3">
    <path d="M 50 388.8 
L 50 302.4 
" style="fill: none; stroke: #000000; stroke-width: 0.8; stroke-linejoin: miter; stroke-linecap: square"/>
   </g>
   <g id="patch_4">
    <path d="M 54 392.8 
L 306 392.8 
" style="fill: none; stroke: #000000; stroke-width: 0.8; stroke-linejoin: miter; stroke-linecap: square"/>
   </g>
   <g id="text_12">
    <!-- all depths -->
    <g transform="translate(150.492188 296.4) scale(0.12 -0.12)">
     <defs>
      <path id="DejaVuSans-70" d="M 1159 525 
L 1159 -1331 
L 581 -1331 
L 581 3500 
L 1159 3500 
L 1159 2969 
Q 1341 3281 1617 3432 
Q 1894 3584 2278 3584 
Q 2916 3584 3314 3078 
Q 3713 2572 3713 1747 
Q 3713 922 3314 415 
Q 2916 -91 2278 -91 
Q 1894 -91 1617 61 
Q 1341 213 1159 525 
z
M 3116 1747 
Q 3116 2381 2855 2742 
Q 2594 3103 2138 3103 
Q 1681 3103 1420 2742 
Q 1159 2381 1159 1747 
Q 1159 1113 1420 752 
Q 1681 391 2138 391 
Q 2594 391 2855 752 
Q 3116 1113 3116 1747 
z
" transform="scale(0.015625)"/>
     </defs>
     <use xlink:href="#DejaVuSans-61"/>
     <use xlink:href="#DejaVuSans-6c" x="61.279297"/>
     <use xlink:href="#DejaVuSans-6c" x="89.0625"/>
     <use xlink:href="#DejaVuSans-20" x="116.845703"/>
     <use xlink:href="#DejaVuSans-64" x="148.632812"/>
     <use xlink:href="#DejaVuSans-65" x="212.109375"/>
     <use xlink:href="#DejaVuSans-70" x="273.632812"/>
     <use xlink:href="#DejaVuSans-74" x="337.109375"/>
     <use xlink:href="#DejaVuSans-68" x="376.318359"/>
     <use xlink:href="#DejaVuSans-73" x="439.697266"/>
    </g>
   </g>
   <g id="legend_1">
    <g id="patch_5">
     <path d="M 125.265625 325.35625 
L 299 325.35625 
Q 301 325.35625 301 323.35625 
L 301 309.4 
Q 301 307.4 299 307.4 
L 125.265625 307.4 
Q 123.265625 307.4 123.265625 309.4 
L 123.265625 323.35625 
Q 123.265625 325.35625 125.265625 325.35625 
z
" style="fill: #ffffff; opacity: 0.8; stroke: #cccccc; stroke-linejoin: miter"/>
    </g>
    <g id="line2d_24">
     <path d="M 127.265625 315.498437 
L 137.265625 315.498437 
L 147.265625 315.498437 
" style="fill: none; stroke: #9400d3; stroke-width: 1.5; stroke-linecap: square"/>
    </g>
    <g id="text_13">
     <!-- V23_middle_deveined_iso90 -->
     <g transform="translate(155.265625 318.998437) scale(0.1 -0.1)">
      <defs>
       <path id="DejaVuSans-56" d="M 1831 0 
L 50 4666 
L 709 4666 
L 2188 738 
L 3669 4666 
L 4325 4666 
L 2547 0 
L 1831 0 
z
" transform="scale(0.015625)"/>
       <path id="DejaVuSans-5f" d="M 3263 -1063 
L 3263 -1509 
L -63 -1509 
L -63 -1063 
L 3263 -1063 
z
" transform="scale(0.015625)"/>
       <path id="DejaVuSans-39" d="M 703 97 
L 703 672 
Q 941 559 1184 500 
Q 1428 441 1663 441 
Q 2288 441 2617 861 
Q 2947 1281 2994 2138 
Q 2813 1869 2534 1725 
Q 2256 1581 1919 1581 
Q 1219 1581 811 2004 
Q 403 2428 403 3163 
Q 403 3881 828 4315 
Q 1253 4750 1959 4750 
Q 2769 4750 3195 4129 
Q 3622 3509 3622 2328 
Q 3622 1225 3098 567 
Q 2575 -91 1691 -91 
Q 1453 -91 1209 -44 
Q 966 3 703 97 
z
M 1959 2075 
Q 2384 2075 2632 2365 
Q 2881 2656 2881 3163 
Q 2881 3666 2632 3958 
Q 2384 4250 1959 4250 
Q 1534 4250 1286 3958 
Q 1038 3666 1038 3163 
Q 1038 2656 1286 2365 
Q 1534 2075 1959 2075 
z
" transform="scale(0.015625)"/>
      </defs>
      <use xlink:href="#DejaVuSans-56"/>
      <use xlink:href="#DejaVuSans-32" x="68.408203"/>
      <use xlink:href="#DejaVuSans-33" x="132.03125"/>
      <use xlink:href="#DejaVuSans-5f" x="195.654297"/>
      <use xlink:href="#DejaVuSans-6d" x="245.654297"/>
      <use xlink:href="#DejaVuSans-69" x="343.066406"/>
      <use xlink:href="#DejaVuSans-64" x="370.849609"/>
      <use xlink:href="#DejaVuSans-64" x="434.326172"/>
      <use xlink:href="#DejaVuSans-6c" x="497.802734"/>
      <use xlink:href="#DejaVuSans-65" x="525.585938"/>
      <use xlink:href="#DejaVuSans-5f" x="587.109375"/>
      <use xlink:href="#DejaVuSans-64" x="637.109375"/>
      <use xlink:href="#DejaVuSans-65" x="700.585938"/>
      <use xlink:href="#DejaVuSans-76" x="762.109375"/>
      <use xlink:href="#DejaVuSans-65" x="821.289062"/>
      <use xlink:href="#DejaVuSans-69" x="882.8125"/>
      <use xlink:href="#DejaVuSans-6e" x="910.595703"/>
      <use xlink:href="#DejaVuSans-65" x="973.974609"/>
      <use xlink:href="#DejaVuSans-64" x="1035.498047"/>
      <use xlink:href="#DejaVuSans-5f" x="1098.974609"/>
      <use xlink:href="#DejaVuSans-69" x="1148.974609"/>
      <use xlink:href="#DejaVuSans-73" x="1176.757812"/>
      <use xlink:href="#DejaVuSans-6f" x="1228.857422"/>
      <use xlink:href="#DejaVuSans-39" x="1290.039062"/>
      <use xlink:href="#DejaVuSans-30" x="1353.662109"/>
     </g>
    </g>
   </g>
  </g>
 </g>
 <defs>
  <clipPath id="pa90d9b7ace">
   <rect x="54" y="302.4" width="252" height="86.4"/>
  </clipPath>
 </defs>
</svg>
