<?xml version="1.0" encoding="utf-8" standalone="no"?>
<!DOCTYPE svg PUBLIC "-//W3C//DTD SVG 1.1//EN"
  "http://www.w3.org/Graphics/SVG/1.1/DTD/svg11.dtd">
<svg xmlns:xlink="http://www.w3.org/1999/xlink" width="360pt" height="432pt" viewBox="0 0 360 432" xmlns="http://www.w3.org/2000/svg" version="1.1">
 <metadata>
  <rdf:RDF xmlns:dc="http://purl.org/dc/elements/1.1/" xmlns:cc="http://creativecommons.org/ns#" xmlns:rdf="http://www.w3.org/1999/02/22-rdf-syntax-ns#">
   <cc:Work>
    <dc:type rdf:resource="http://purl.org/dc/dcmitype/StillImage"/>
    <dc:date>2026-05-26T10:35:12.910546</dc:date>
    <dc:format>image/svg+xml</dc:format>
    <dc:creator>
     <cc:Agent>
      <dc:title>Matplotlib v3.8.0, https://matplotlib.org/</dc:title>
     </cc:Agent>
    </dc:creator>
   </cc:Work>
  </rdf:RDF>
 </metadata>
 <defs>
  <style type="text/css">*{stroke-linejoin: round; stroke-linecap: butt}</style>
 </defs>
 <g id="figure_1">
  <g id="patch_1">
   <path d="M 0 432 
L 360 432 
L 360 0 
L 0 0 
z
" style="fill: #ffffff"/>
  </g>
  <g id="axes_1">
   <g id="patch_2">
    <path d="M 54 388.8 
L 306 388.8 
L 306 302.4 
L 54 302.4 
z
" style="fill: #ffffff"/>
   </g>
   <g id="PolyCollection_1">
    <defs>
     <path id="m23e5b744d1" d="M 65.454545 -93.354447 
L 65.454545 -84.884864 
L 70.12987 -84.426265 
L 74.805195 -83.857792 
L 79.480519 -83.802067 
L 84.155844 -84.425299 
L 88.831169 -85.31116 
L 93.506494 -85.396739 
L 98.181818 -84.760328 
L 102.857143 -84.201481 
L 107.532468 -83.870215 
L 112.207792 -83.600865 
L 116.883117 -83.843339 
L 121.558442 -83.774755 
L 126.233766 -83.613949 
L 130.909091 -83.516939 
L 135.584416 -83.357355 
L 140.25974 -83.194023 
L 144.935065 -83.344484 
L 149.61039 -83.581448 
L 154.285714 -83.606535 
L 158.961039 -83.800574 
L 163.636364 -84.125634 
L 168.311688 -84.110655 
L 172.987013 -83.931458 
L 177.662338 -83.929304 
L 182.337662 -84.158843 
L 187.012987 -84.174697 
L 191.688312 -84.153003 
L 196.363636 -84.100009 
L 201.038961 -83.907542 
L 205.714286 -83.602328 
L 210.38961 -83.153739 
L 215.064935 -83.016083 
L 219.74026 -83.119721 
L 224.415584 -83.234789 
L 229.090909 -83.382648 
L 233.766234 -83.415744 
L 238.441558 -83.458923 
L 243.116883 -83.347116 
L 247.792208 -83.281655 
L 252.467532 -83.005628 
L 257.142857 -82.855477 
L 261.818182 -83.061918 
L 266.493506 -83.697949 
L 271.168831 -84.051567 
L 275.844156 -84.151188 
L 280.519481 -84.154226 
L 285.194805 -84.046175 
L 289.87013 -83.988507 
L 294.545455 -83.851672 
L 294.545455 -88.700164 
L 294.545455 -88.700164 
L 289.87013 -88.780344 
L 285.194805 -88.713185 
L 280.519481 -88.605987 
L 275.844156 -88.273604 
L 271.168831 -87.916705 
L 266.493506 -87.493324 
L 261.818182 -86.96322 
L 257.142857 -86.701654 
L 252.467532 -86.77116 
L 247.792208 -87.168788 
L 243.116883 -87.486095 
L 238.441558 -87.958595 
L 233.766234 -88.531148 
L 229.090909 -88.976549 
L 224.415584 -89.062056 
L 219.74026 -89.090485 
L 215.064935 -89.023792 
L 210.38961 -89.13052 
L 205.714286 -89.250821 
L 201.038961 -89.303483 
L 196.363636 -89.407938 
L 191.688312 -89.21988 
L 187.012987 -89.054706 
L 182.337662 -89.195505 
L 177.662338 -89.127895 
L 172.987013 -89.279471 
L 168.311688 -89.687414 
L 163.636364 -89.887245 
L 158.961039 -89.638813 
L 154.285714 -89.407861 
L 149.61039 -89.259003 
L 144.935065 -89.237832 
L 140.25974 -89.309222 
L 135.584416 -89.576053 
L 130.909091 -89.870452 
L 126.233766 -90.093192 
L 121.558442 -90.274075 
L 116.883117 -90.065948 
L 112.207792 -89.755893 
L 107.532468 -90.141315 
L 102.857143 -90.4734 
L 98.181818 -91.023225 
L 93.506494 -91.617455 
L 88.831169 -92.086162 
L 84.155844 -92.048276 
L 79.480519 -91.899213 
L 74.805195 -92.298741 
L 70.12987 -92.730753 
L 65.454545 -93.354447 
z
" style="stroke: #ff0000; stroke-opacity: 0.4"/>
    </defs>
    <g clip-path="url(#pf4b614dc2f)">
     <use xlink:href="#m23e5b744d1" x="0" y="432" style="fill: #ff0000; fill-opacity: 0.4; stroke: #ff0000; stroke-opacity: 0.4"/>
    </g>
   </g>
   <g id="matplotlib.axis_1">
    <g id="xtick_1">
     <g id="line2d_1">
      <defs>
       <path id="mb0811b8344" d="M 0 0 
L 0 3.5 
" style="stroke: #000000; stroke-width: 0.8"/>
      </defs>
      <g>
       <use xlink:href="#mb0811b8344" x="65.454545" y="392.8" style="stroke: #000000; stroke-width: 0.8"/>
      </g>
     </g>
     <g id="text_1">
      <!-- 0 -->
      <g transform="translate(62.273295 407.398438) scale(0.1 -0.1)">
       <defs>
        <path id="DejaVuSans-30" d="M 2034 4250 
Q 1547 4250 1301 3770 
Q 1056 3291 1056 2328 
Q 1056 1369 1301 889 
Q 1547 409 2034 409 
Q 2525 409 2770 889 
Q 3016 1369 3016 2328 
Q 3016 3291 2770 3770 
Q 2525 4250 2034 4250 
z
M 2034 4750 
Q 2819 4750 3233 4129 
Q 3647 3509 3647 2328 
Q 3647 1150 3233 529 
Q 2819 -91 2034 -91 
Q 1250 -91 836 529 
Q 422 1150 422 2328 
Q 422 3509 836 4129 
Q 1250 4750 2034 4750 
z
" transform="scale(0.015625)"/>
       </defs>
       <use xlink:href="#DejaVuSans-30"/>
      </g>
     </g>
    </g>
    <g id="xtick_2">
     <g id="line2d_2">
      <g>
       <use xlink:href="#mb0811b8344" x="111.272727" y="392.8" style="stroke: #000000; stroke-width: 0.8"/>
      </g>
     </g>
     <g id="text_2">
      <!-- 1 -->
      <g transform="translate(108.091477 407.398438) scale(0.1 -0.1)">
       <defs>
        <path id="DejaVuSans-31" d="M 794 531 
L 1825 531 
L 1825 4091 
L 703 3866 
L 703 4441 
L 1819 4666 
L 2450 4666 
L 2450 531 
L 3481 531 
L 3481 0 
L 794 0 
L 794 531 
z
" transform="scale(0.015625)"/>
       </defs>
       <use xlink:href="#DejaVuSans-31"/>
      </g>
     </g>
    </g>
    <g id="xtick_3">
     <g id="line2d_3">
      <g>
       <use xlink:href="#mb0811b8344" x="157.090909" y="392.8" style="stroke: #000000; stroke-width: 0.8"/>
      </g>
     </g>
     <g id="text_3">
      <!-- 2 -->
      <g transform="translate(153.909659 407.398438) scale(0.1 -0.1)">
       <defs>
        <path id="DejaVuSans-32" d="M 1228 531 
L 3431 531 
L 3431 0 
L 469 0 
L 469 531 
Q 828 903 1448 1529 
Q 2069 2156 2228 2338 
Q 2531 2678 2651 2914 
Q 2772 3150 2772 3378 
Q 2772 3750 2511 3984 
Q 2250 4219 1831 4219 
Q 1534 4219 1204 4116 
Q 875 4013 500 3803 
L 500 4441 
Q 881 4594 1212 4672 
Q 1544 4750 1819 4750 
Q 2544 4750 2975 4387 
Q 3406 4025 3406 3419 
Q 3406 3131 3298 2873 
Q 3191 2616 2906 2266 
Q 2828 2175 2409 1742 
Q 1991 1309 1228 531 
z
" transform="scale(0.015625)"/>
       </defs>
       <use xlink:href="#DejaVuSans-32"/>
      </g>
     </g>
    </g>
    <g id="xtick_4">
     <g id="line2d_4">
      <g>
       <use xlink:href="#mb0811b8344" x="202.909091" y="392.8" style="stroke: #000000; stroke-width: 0.8"/>
      </g>
     </g>
     <g id="text_4">
      <!-- 3 -->
      <g transform="translate(199.727841 407.398438) scale(0.1 -0.1)">
       <defs>
        <path id="DejaVuSans-33" d="M 2597 2516 
Q 3050 2419 3304 2112 
Q 3559 1806 3559 1356 
Q 3559 666 3084 287 
Q 2609 -91 1734 -91 
Q 1441 -91 1130 -33 
Q 819 25 488 141 
L 488 750 
Q 750 597 1062 519 
Q 1375 441 1716 441 
Q 2309 441 2620 675 
Q 2931 909 2931 1356 
Q 2931 1769 2642 2001 
Q 2353 2234 1838 2234 
L 1294 2234 
L 1294 2753 
L 1863 2753 
Q 2328 2753 2575 2939 
Q 2822 3125 2822 3475 
Q 2822 3834 2567 4026 
Q 2313 4219 1838 4219 
Q 1578 4219 1281 4162 
Q 984 4106 628 3988 
L 628 4550 
Q 988 4650 1302 4700 
Q 1616 4750 1894 4750 
Q 2613 4750 3031 4423 
Q 3450 4097 3450 3541 
Q 3450 3153 3228 2886 
Q 3006 2619 2597 2516 
z
" transform="scale(0.015625)"/>
       </defs>
       <use xlink:href="#DejaVuSans-33"/>
      </g>
     </g>
    </g>
    <g id="xtick_5">
     <g id="line2d_5">
      <g>
       <use xlink:href="#mb0811b8344" x="248.727273" y="392.8" style="stroke: #000000; stroke-width: 0.8"/>
      </g>
     </g>
     <g id="text_5">
      <!-- 4 -->
      <g transform="translate(245.546023 407.398438) scale(0.1 -0.1)">
       <defs>
        <path id="DejaVuSans-34" d="M 2419 4116 
L 825 1625 
L 2419 1625 
L 2419 4116 
z
M 2253 4666 
L 3047 4666 
L 3047 1625 
L 3713 1625 
L 3713 1100 
L 3047 1100 
L 3047 0 
L 2419 0 
L 2419 1100 
L 313 1100 
L 313 1709 
L 2253 4666 
z
" transform="scale(0.015625)"/>
       </defs>
       <use xlink:href="#DejaVuSans-34"/>
      </g>
     </g>
    </g>
    <g id="xtick_6">
     <g id="line2d_6">
      <g>
       <use xlink:href="#mb0811b8344" x="294.545455" y="392.8" style="stroke: #000000; stroke-width: 0.8"/>
      </g>
     </g>
     <g id="text_6">
      <!-- 5 -->
      <g transform="translate(291.364205 407.398438) scale(0.1 -0.1)">
       <defs>
        <path id="DejaVuSans-35" d="M 691 4666 
L 3169 4666 
L 3169 4134 
L 1269 4134 
L 1269 2991 
Q 1406 3038 1543 3061 
Q 1681 3084 1819 3084 
Q 2600 3084 3056 2656 
Q 3513 2228 3513 1497 
Q 3513 744 3044 326 
Q 2575 -91 1722 -91 
Q 1428 -91 1123 -41 
Q 819 9 494 109 
L 494 744 
Q 775 591 1075 516 
Q 1375 441 1709 441 
Q 2250 441 2565 725 
Q 2881 1009 2881 1497 
Q 2881 1984 2565 2268 
Q 2250 2553 1709 2553 
Q 1456 2553 1204 2497 
Q 953 2441 691 2322 
L 691 4666 
z
" transform="scale(0.015625)"/>
       </defs>
       <use xlink:href="#DejaVuSans-35"/>
      </g>
     </g>
    </g>
    <g id="text_7">
     <!-- relative distance from ROI center ($\sigma$) -->
     <g transform="translate(106.48 419.556875) scale(0.08 -0.08)">
      <defs>
       <path id="DejaVuSans-72" d="M 2631 2963 
Q 2534 3019 2420 3045 
Q 2306 3072 2169 3072 
Q 1681 3072 1420 2755 
Q 1159 2438 1159 1844 
L 1159 0 
L 581 0 
L 581 3500 
L 1159 3500 
L 1159 2956 
Q 1341 3275 1631 3429 
Q 1922 3584 2338 3584 
Q 2397 3584 2469 3576 
Q 2541 3569 2628 3553 
L 2631 2963 
z
" transform="scale(0.015625)"/>
       <path id="DejaVuSans-65" d="M 3597 1894 
L 3597 1613 
L 953 1613 
Q 991 1019 1311 708 
Q 1631 397 2203 397 
Q 2534 397 2845 478 
Q 3156 559 3463 722 
L 3463 178 
Q 3153 47 2828 -22 
Q 2503 -91 2169 -91 
Q 1331 -91 842 396 
Q 353 884 353 1716 
Q 353 2575 817 3079 
Q 1281 3584 2069 3584 
Q 2775 3584 3186 3129 
Q 3597 2675 3597 1894 
z
M 3022 2063 
Q 3016 2534 2758 2815 
Q 2500 3097 2075 3097 
Q 1594 3097 1305 2825 
Q 1016 2553 972 2059 
L 3022 2063 
z
" transform="scale(0.015625)"/>
       <path id="DejaVuSans-6c" d="M 603 4863 
L 1178 4863 
L 1178 0 
L 603 0 
L 603 4863 
z
" transform="scale(0.015625)"/>
       <path id="DejaVuSans-61" d="M 2194 1759 
Q 1497 1759 1228 1600 
Q 959 1441 959 1056 
Q 959 750 1161 570 
Q 1363 391 1709 391 
Q 2188 391 2477 730 
Q 2766 1069 2766 1631 
L 2766 1759 
L 2194 1759 
z
M 3341 1997 
L 3341 0 
L 2766 0 
L 2766 531 
Q 2569 213 2275 61 
Q 1981 -91 1556 -91 
Q 1019 -91 701 211 
Q 384 513 384 1019 
Q 384 1609 779 1909 
Q 1175 2209 1959 2209 
L 2766 2209 
L 2766 2266 
Q 2766 2663 2505 2880 
Q 2244 3097 1772 3097 
Q 1472 3097 1187 3025 
Q 903 2953 641 2809 
L 641 3341 
Q 956 3463 1253 3523 
Q 1550 3584 1831 3584 
Q 2591 3584 2966 3190 
Q 3341 2797 3341 1997 
z
" transform="scale(0.015625)"/>
       <path id="DejaVuSans-74" d="M 1172 4494 
L 1172 3500 
L 2356 3500 
L 2356 3053 
L 1172 3053 
L 1172 1153 
Q 1172 725 1289 603 
Q 1406 481 1766 481 
L 2356 481 
L 2356 0 
L 1766 0 
Q 1100 0 847 248 
Q 594 497 594 1153 
L 594 3053 
L 172 3053 
L 172 3500 
L 594 3500 
L 594 4494 
L 1172 4494 
z
" transform="scale(0.015625)"/>
       <path id="DejaVuSans-69" d="M 603 3500 
L 1178 3500 
L 1178 0 
L 603 0 
L 603 3500 
z
M 603 4863 
L 1178 4863 
L 1178 4134 
L 603 4134 
L 603 4863 
z
" transform="scale(0.015625)"/>
       <path id="DejaVuSans-76" d="M 191 3500 
L 800 3500 
L 1894 563 
L 2988 3500 
L 3597 3500 
L 2284 0 
L 1503 0 
L 191 3500 
z
" transform="scale(0.015625)"/>
       <path id="DejaVuSans-20" transform="scale(0.015625)"/>
       <path id="DejaVuSans-64" d="M 2906 2969 
L 2906 4863 
L 3481 4863 
L 3481 0 
L 2906 0 
L 2906 525 
Q 2725 213 2448 61 
Q 2172 -91 1784 -91 
Q 1150 -91 751 415 
Q 353 922 353 1747 
Q 353 2572 751 3078 
Q 1150 3584 1784 3584 
Q 2172 3584 2448 3432 
Q 2725 3281 2906 2969 
z
M 947 1747 
Q 947 1113 1208 752 
Q 1469 391 1925 391 
Q 2381 391 2643 752 
Q 2906 1113 2906 1747 
Q 2906 2381 2643 2742 
Q 2381 3103 1925 3103 
Q 1469 3103 1208 2742 
Q 947 2381 947 1747 
z
" transform="scale(0.015625)"/>
       <path id="DejaVuSans-73" d="M 2834 3397 
L 2834 2853 
Q 2591 2978 2328 3040 
Q 2066 3103 1784 3103 
Q 1356 3103 1142 2972 
Q 928 2841 928 2578 
Q 928 2378 1081 2264 
Q 1234 2150 1697 2047 
L 1894 2003 
Q 2506 1872 2764 1633 
Q 3022 1394 3022 966 
Q 3022 478 2636 193 
Q 2250 -91 1575 -91 
Q 1294 -91 989 -36 
Q 684 19 347 128 
L 347 722 
Q 666 556 975 473 
Q 1284 391 1588 391 
Q 1994 391 2212 530 
Q 2431 669 2431 922 
Q 2431 1156 2273 1281 
Q 2116 1406 1581 1522 
L 1381 1569 
Q 847 1681 609 1914 
Q 372 2147 372 2553 
Q 372 3047 722 3315 
Q 1072 3584 1716 3584 
Q 2034 3584 2315 3537 
Q 2597 3491 2834 3397 
z
" transform="scale(0.015625)"/>
       <path id="DejaVuSans-6e" d="M 3513 2113 
L 3513 0 
L 2938 0 
L 2938 2094 
Q 2938 2591 2744 2837 
Q 2550 3084 2163 3084 
Q 1697 3084 1428 2787 
Q 1159 2491 1159 1978 
L 1159 0 
L 581 0 
L 581 3500 
L 1159 3500 
L 1159 2956 
Q 1366 3272 1645 3428 
Q 1925 3584 2291 3584 
Q 2894 3584 3203 3211 
Q 3513 2838 3513 2113 
z
" transform="scale(0.015625)"/>
       <path id="DejaVuSans-63" d="M 3122 3366 
L 3122 2828 
Q 2878 2963 2633 3030 
Q 2388 3097 2138 3097 
Q 1578 3097 1268 2742 
Q 959 2388 959 1747 
Q 959 1106 1268 751 
Q 1578 397 2138 397 
Q 2388 397 2633 464 
Q 2878 531 3122 666 
L 3122 134 
Q 2881 22 2623 -34 
Q 2366 -91 2075 -91 
Q 1284 -91 818 406 
Q 353 903 353 1747 
Q 353 2603 823 3093 
Q 1294 3584 2113 3584 
Q 2378 3584 2631 3529 
Q 2884 3475 3122 3366 
z
" transform="scale(0.015625)"/>
       <path id="DejaVuSans-66" d="M 2375 4863 
L 2375 4384 
L 1825 4384 
Q 1516 4384 1395 4259 
Q 1275 4134 1275 3809 
L 1275 3500 
L 2222 3500 
L 2222 3053 
L 1275 3053 
L 1275 0 
L 697 0 
L 697 3053 
L 147 3053 
L 147 3500 
L 697 3500 
L 697 3744 
Q 697 4328 969 4595 
Q 1241 4863 1831 4863 
L 2375 4863 
z
" transform="scale(0.015625)"/>
       <path id="DejaVuSans-6f" d="M 1959 3097 
Q 1497 3097 1228 2736 
Q 959 2375 959 1747 
Q 959 1119 1226 758 
Q 1494 397 1959 397 
Q 2419 397 2687 759 
Q 2956 1122 2956 1747 
Q 2956 2369 2687 2733 
Q 2419 3097 1959 3097 
z
M 1959 3584 
Q 2709 3584 3137 3096 
Q 3566 2609 3566 1747 
Q 3566 888 3137 398 
Q 2709 -91 1959 -91 
Q 1206 -91 779 398 
Q 353 888 353 1747 
Q 353 2609 779 3096 
Q 1206 3584 1959 3584 
z
" transform="scale(0.015625)"/>
       <path id="DejaVuSans-6d" d="M 3328 2828 
Q 3544 3216 3844 3400 
Q 4144 3584 4550 3584 
Q 5097 3584 5394 3201 
Q 5691 2819 5691 2113 
L 5691 0 
L 5113 0 
L 5113 2094 
Q 5113 2597 4934 2840 
Q 4756 3084 4391 3084 
Q 3944 3084 3684 2787 
Q 3425 2491 3425 1978 
L 3425 0 
L 2847 0 
L 2847 2094 
Q 2847 2600 2669 2842 
Q 2491 3084 2119 3084 
Q 1678 3084 1418 2786 
Q 1159 2488 1159 1978 
L 1159 0 
L 581 0 
L 581 3500 
L 1159 3500 
L 1159 2956 
Q 1356 3278 1631 3431 
Q 1906 3584 2284 3584 
Q 2666 3584 2933 3390 
Q 3200 3197 3328 2828 
z
" transform="scale(0.015625)"/>
       <path id="DejaVuSans-52" d="M 2841 2188 
Q 3044 2119 3236 1894 
Q 3428 1669 3622 1275 
L 4263 0 
L 3584 0 
L 2988 1197 
Q 2756 1666 2539 1819 
Q 2322 1972 1947 1972 
L 1259 1972 
L 1259 0 
L 628 0 
L 628 4666 
L 2053 4666 
Q 2853 4666 3247 4331 
Q 3641 3997 3641 3322 
Q 3641 2881 3436 2590 
Q 3231 2300 2841 2188 
z
M 1259 4147 
L 1259 2491 
L 2053 2491 
Q 2509 2491 2742 2702 
Q 2975 2913 2975 3322 
Q 2975 3731 2742 3939 
Q 2509 4147 2053 4147 
L 1259 4147 
z
" transform="scale(0.015625)"/>
       <path id="DejaVuSans-4f" d="M 2522 4238 
Q 1834 4238 1429 3725 
Q 1025 3213 1025 2328 
Q 1025 1447 1429 934 
Q 1834 422 2522 422 
Q 3209 422 3611 934 
Q 4013 1447 4013 2328 
Q 4013 3213 3611 3725 
Q 3209 4238 2522 4238 
z
M 2522 4750 
Q 3503 4750 4090 4092 
Q 4678 3434 4678 2328 
Q 4678 1225 4090 567 
Q 3503 -91 2522 -91 
Q 1538 -91 948 565 
Q 359 1222 359 2328 
Q 359 3434 948 4092 
Q 1538 4750 2522 4750 
z
" transform="scale(0.015625)"/>
       <path id="DejaVuSans-49" d="M 628 4666 
L 1259 4666 
L 1259 0 
L 628 0 
L 628 4666 
z
" transform="scale(0.015625)"/>
       <path id="DejaVuSans-28" d="M 1984 4856 
Q 1566 4138 1362 3434 
Q 1159 2731 1159 2009 
Q 1159 1288 1364 580 
Q 1569 -128 1984 -844 
L 1484 -844 
Q 1016 -109 783 600 
Q 550 1309 550 2009 
Q 550 2706 781 3412 
Q 1013 4119 1484 4856 
L 1984 4856 
z
" transform="scale(0.015625)"/>
       <path id="DejaVuSans-Oblique-3c3" d="M 2219 3044 
Q 1744 3044 1422 2700 
Q 1081 2341 969 1747 
Q 844 1119 1044 756 
Q 1241 397 1706 397 
Q 2166 397 2503 759 
Q 2844 1122 2966 1747 
Q 3075 2319 2881 2700 
Q 2700 3044 2219 3044 
z
M 2309 3503 
L 4219 3500 
L 4106 2925 
L 3463 2925 
Q 3706 2438 3575 1747 
Q 3406 888 2884 400 
Q 2359 -91 1609 -91 
Q 856 -91 525 400 
Q 194 888 363 1747 
Q 528 2609 1050 3097 
Q 1484 3503 2309 3503 
z
" transform="scale(0.015625)"/>
       <path id="DejaVuSans-29" d="M 513 4856 
L 1013 4856 
Q 1481 4119 1714 3412 
Q 1947 2706 1947 2009 
Q 1947 1309 1714 600 
Q 1481 -109 1013 -844 
L 513 -844 
Q 928 -128 1133 580 
Q 1338 1288 1338 2009 
Q 1338 2731 1133 3434 
Q 928 4138 513 4856 
z
" transform="scale(0.015625)"/>
      </defs>
      <use xlink:href="#DejaVuSans-72" transform="translate(0 0.015625)"/>
      <use xlink:href="#DejaVuSans-65" transform="translate(41.113281 0.015625)"/>
      <use xlink:href="#DejaVuSans-6c" transform="translate(102.636719 0.015625)"/>
      <use xlink:href="#DejaVuSans-61" transform="translate(130.419922 0.015625)"/>
      <use xlink:href="#DejaVuSans-74" transform="translate(191.699219 0.015625)"/>
      <use xlink:href="#DejaVuSans-69" transform="translate(230.908203 0.015625)"/>
      <use xlink:href="#DejaVuSans-76" transform="translate(258.691406 0.015625)"/>
      <use xlink:href="#DejaVuSans-65" transform="translate(317.871094 0.015625)"/>
      <use xlink:href="#DejaVuSans-20" transform="translate(379.394531 0.015625)"/>
      <use xlink:href="#DejaVuSans-64" transform="translate(411.181641 0.015625)"/>
      <use xlink:href="#DejaVuSans-69" transform="translate(474.658203 0.015625)"/>
      <use xlink:href="#DejaVuSans-73" transform="translate(502.441406 0.015625)"/>
      <use xlink:href="#DejaVuSans-74" transform="translate(554.541016 0.015625)"/>
      <use xlink:href="#DejaVuSans-61" transform="translate(593.75 0.015625)"/>
      <use xlink:href="#DejaVuSans-6e" transform="translate(655.029297 0.015625)"/>
      <use xlink:href="#DejaVuSans-63" transform="translate(718.408203 0.015625)"/>
      <use xlink:href="#DejaVuSans-65" transform="translate(773.388672 0.015625)"/>
      <use xlink:href="#DejaVuSans-20" transform="translate(834.912109 0.015625)"/>
      <use xlink:href="#DejaVuSans-66" transform="translate(866.699219 0.015625)"/>
      <use xlink:href="#DejaVuSans-72" transform="translate(901.904297 0.015625)"/>
      <use xlink:href="#DejaVuSans-6f" transform="translate(943.017578 0.015625)"/>
      <use xlink:href="#DejaVuSans-6d" transform="translate(1004.199219 0.015625)"/>
      <use xlink:href="#DejaVuSans-20" transform="translate(1101.611328 0.015625)"/>
      <use xlink:href="#DejaVuSans-52" transform="translate(1133.398438 0.015625)"/>
      <use xlink:href="#DejaVuSans-4f" transform="translate(1202.880859 0.015625)"/>
      <use xlink:href="#DejaVuSans-49" transform="translate(1281.591797 0.015625)"/>
      <use xlink:href="#DejaVuSans-20" transform="translate(1311.083984 0.015625)"/>
      <use xlink:href="#DejaVuSans-63" transform="translate(1342.871094 0.015625)"/>
      <use xlink:href="#DejaVuSans-65" transform="translate(1397.851562 0.015625)"/>
      <use xlink:href="#DejaVuSans-6e" transform="translate(1459.375 0.015625)"/>
      <use xlink:href="#DejaVuSans-74" transform="translate(1522.753906 0.015625)"/>
      <use xlink:href="#DejaVuSans-65" transform="translate(1561.962891 0.015625)"/>
      <use xlink:href="#DejaVuSans-72" transform="translate(1623.486328 0.015625)"/>
      <use xlink:href="#DejaVuSans-20" transform="translate(1664.599609 0.015625)"/>
      <use xlink:href="#DejaVuSans-28" transform="translate(1696.386719 0.015625)"/>
      <use xlink:href="#DejaVuSans-Oblique-3c3" transform="translate(1735.400391 0.015625)"/>
      <use xlink:href="#DejaVuSans-29" transform="translate(1798.779297 0.015625)"/>
     </g>
    </g>
   </g>
   <g id="matplotlib.axis_2">
    <g id="ytick_1">
     <g id="line2d_7">
      <defs>
       <path id="m001af0152b" d="M 0 0 
L -3.5 0 
" style="stroke: #000000; stroke-width: 0.8"/>
      </defs>
      <g>
       <use xlink:href="#m001af0152b" x="50" y="376.457143" style="stroke: #000000; stroke-width: 0.8"/>
      </g>
     </g>
     <g id="text_8">
      <!-- −5 -->
      <g transform="translate(28.257812 380.256362) scale(0.1 -0.1)">
       <defs>
        <path id="DejaVuSans-2212" d="M 678 2272 
L 4684 2272 
L 4684 1741 
L 678 1741 
L 678 2272 
z
" transform="scale(0.015625)"/>
       </defs>
       <use xlink:href="#DejaVuSans-2212"/>
       <use xlink:href="#DejaVuSans-35" x="83.789062"/>
      </g>
     </g>
    </g>
    <g id="ytick_2">
     <g id="line2d_8">
      <g>
       <use xlink:href="#m001af0152b" x="50" y="345.6" style="stroke: #000000; stroke-width: 0.8"/>
      </g>
     </g>
     <g id="text_9">
      <!-- 0 -->
      <g transform="translate(36.6375 349.399219) scale(0.1 -0.1)">
       <use xlink:href="#DejaVuSans-30"/>
      </g>
     </g>
    </g>
    <g id="ytick_3">
     <g id="line2d_9">
      <g>
       <use xlink:href="#m001af0152b" x="50" y="314.742857" style="stroke: #000000; stroke-width: 0.8"/>
      </g>
     </g>
     <g id="text_10">
      <!-- 5 -->
      <g transform="translate(36.6375 318.542076) scale(0.1 -0.1)">
       <use xlink:href="#DejaVuSans-35"/>
      </g>
     </g>
    </g>
    <g id="text_11">
     <!-- BOLD % change -->
     <g transform="translate(22.594062 377.79625) rotate(-90) scale(0.08 -0.08)">
      <defs>
       <path id="DejaVuSans-42" d="M 1259 2228 
L 1259 519 
L 2272 519 
Q 2781 519 3026 730 
Q 3272 941 3272 1375 
Q 3272 1813 3026 2020 
Q 2781 2228 2272 2228 
L 1259 2228 
z
M 1259 4147 
L 1259 2741 
L 2194 2741 
Q 2656 2741 2882 2914 
Q 3109 3088 3109 3444 
Q 3109 3797 2882 3972 
Q 2656 4147 2194 4147 
L 1259 4147 
z
M 628 4666 
L 2241 4666 
Q 2963 4666 3353 4366 
Q 3744 4066 3744 3513 
Q 3744 3084 3544 2831 
Q 3344 2578 2956 2516 
Q 3422 2416 3680 2098 
Q 3938 1781 3938 1306 
Q 3938 681 3513 340 
Q 3088 0 2303 0 
L 628 0 
L 628 4666 
z
" transform="scale(0.015625)"/>
       <path id="DejaVuSans-4c" d="M 628 4666 
L 1259 4666 
L 1259 531 
L 3531 531 
L 3531 0 
L 628 0 
L 628 4666 
z
" transform="scale(0.015625)"/>
       <path id="DejaVuSans-44" d="M 1259 4147 
L 1259 519 
L 2022 519 
Q 2988 519 3436 956 
Q 3884 1394 3884 2338 
Q 3884 3275 3436 3711 
Q 2988 4147 2022 4147 
L 1259 4147 
z
M 628 4666 
L 1925 4666 
Q 3281 4666 3915 4102 
Q 4550 3538 4550 2338 
Q 4550 1131 3912 565 
Q 3275 0 1925 0 
L 628 0 
L 628 4666 
z
" transform="scale(0.015625)"/>
       <path id="DejaVuSans-25" d="M 4653 2053 
Q 4381 2053 4226 1822 
Q 4072 1591 4072 1178 
Q 4072 772 4226 539 
Q 4381 306 4653 306 
Q 4919 306 5073 539 
Q 5228 772 5228 1178 
Q 5228 1588 5073 1820 
Q 4919 2053 4653 2053 
z
M 4653 2450 
Q 5147 2450 5437 2106 
Q 5728 1763 5728 1178 
Q 5728 594 5436 251 
Q 5144 -91 4653 -91 
Q 4153 -91 3862 251 
Q 3572 594 3572 1178 
Q 3572 1766 3864 2108 
Q 4156 2450 4653 2450 
z
M 1428 4353 
Q 1159 4353 1004 4120 
Q 850 3888 850 3481 
Q 850 3069 1003 2837 
Q 1156 2606 1428 2606 
Q 1700 2606 1854 2837 
Q 2009 3069 2009 3481 
Q 2009 3884 1853 4118 
Q 1697 4353 1428 4353 
z
M 4250 4750 
L 4750 4750 
L 1831 -91 
L 1331 -91 
L 4250 4750 
z
M 1428 4750 
Q 1922 4750 2215 4408 
Q 2509 4066 2509 3481 
Q 2509 2891 2217 2550 
Q 1925 2209 1428 2209 
Q 931 2209 642 2551 
Q 353 2894 353 3481 
Q 353 4063 643 4406 
Q 934 4750 1428 4750 
z
" transform="scale(0.015625)"/>
       <path id="DejaVuSans-68" d="M 3513 2113 
L 3513 0 
L 2938 0 
L 2938 2094 
Q 2938 2591 2744 2837 
Q 2550 3084 2163 3084 
Q 1697 3084 1428 2787 
Q 1159 2491 1159 1978 
L 1159 0 
L 581 0 
L 581 4863 
L 1159 4863 
L 1159 2956 
Q 1366 3272 1645 3428 
Q 1925 3584 2291 3584 
Q 2894 3584 3203 3211 
Q 3513 2838 3513 2113 
z
" transform="scale(0.015625)"/>
       <path id="DejaVuSans-67" d="M 2906 1791 
Q 2906 2416 2648 2759 
Q 2391 3103 1925 3103 
Q 1463 3103 1205 2759 
Q 947 2416 947 1791 
Q 947 1169 1205 825 
Q 1463 481 1925 481 
Q 2391 481 2648 825 
Q 2906 1169 2906 1791 
z
M 3481 434 
Q 3481 -459 3084 -895 
Q 2688 -1331 1869 -1331 
Q 1566 -1331 1297 -1286 
Q 1028 -1241 775 -1147 
L 775 -588 
Q 1028 -725 1275 -790 
Q 1522 -856 1778 -856 
Q 2344 -856 2625 -561 
Q 2906 -266 2906 331 
L 2906 616 
Q 2728 306 2450 153 
Q 2172 0 1784 0 
Q 1141 0 747 490 
Q 353 981 353 1791 
Q 353 2603 747 3093 
Q 1141 3584 1784 3584 
Q 2172 3584 2450 3431 
Q 2728 3278 2906 2969 
L 2906 3500 
L 3481 3500 
L 3481 434 
z
" transform="scale(0.015625)"/>
      </defs>
      <use xlink:href="#DejaVuSans-42"/>
      <use xlink:href="#DejaVuSans-4f" x="66.853516"/>
      <use xlink:href="#DejaVuSans-4c" x="145.564453"/>
      <use xlink:href="#DejaVuSans-44" x="201.277344"/>
      <use xlink:href="#DejaVuSans-20" x="278.279297"/>
      <use xlink:href="#DejaVuSans-25" x="310.066406"/>
      <use xlink:href="#DejaVuSans-20" x="405.085938"/>
      <use xlink:href="#DejaVuSans-63" x="436.873047"/>
      <use xlink:href="#DejaVuSans-68" x="491.853516"/>
      <use xlink:href="#DejaVuSans-61" x="555.232422"/>
      <use xlink:href="#DejaVuSans-6e" x="616.511719"/>
      <use xlink:href="#DejaVuSans-67" x="679.890625"/>
      <use xlink:href="#DejaVuSans-65" x="743.367188"/>
     </g>
    </g>
   </g>
   <g id="line2d_10">
    <path d="M 65.454545 342.880345 
L 70.12987 343.421491 
L 74.805195 343.921733 
L 79.480519 344.14936 
L 84.155844 343.763212 
L 88.831169 343.301339 
L 93.506494 343.492903 
L 98.181818 344.108223 
L 102.857143 344.66256 
L 107.532468 344.994235 
L 112.207792 345.321621 
L 116.883117 345.045356 
L 121.558442 344.975585 
L 126.233766 345.146429 
L 130.909091 345.306304 
L 135.584416 345.533296 
L 140.25974 345.748377 
L 144.935065 345.708842 
L 149.61039 345.579774 
L 154.285714 345.492802 
L 158.961039 345.280306 
L 163.636364 344.99356 
L 168.311688 345.100965 
L 172.987013 345.394535 
L 177.662338 345.4714 
L 182.337662 345.322826 
L 187.012987 345.385299 
L 191.688312 345.313559 
L 196.363636 345.246027 
L 201.038961 345.394488 
L 205.714286 345.573426 
L 210.38961 345.85787 
L 215.064935 345.980062 
L 219.74026 345.894897 
L 224.415584 345.851578 
L 229.090909 345.820402 
L 233.766234 346.026554 
L 238.441558 346.291241 
L 243.116883 346.583394 
L 247.792208 346.774778 
L 252.467532 347.111606 
L 257.142857 347.221435 
L 261.818182 346.987431 
L 266.493506 346.404363 
L 271.168831 346.015864 
L 275.844156 345.787604 
L 280.519481 345.619894 
L 285.194805 345.62032 
L 289.87013 345.615574 
L 294.545455 345.724082 
" clip-path="url(#pf4b614dc2f)" style="fill: none; stroke: #ff0000; stroke-width: 1.5; stroke-linecap: square"/>
   </g>
   <g id="line2d_11">
    <path d="M 65.454545 340.445948 
L 70.12987 340.961445 
L 74.805195 341.437728 
L 79.480519 342.724393 
L 84.155844 343.875377 
L 88.831169 344.648857 
L 93.506494 345.114656 
L 98.181818 346.524296 
L 102.857143 347.935334 
L 107.532468 346.921703 
L 112.207792 345.412607 
L 116.883117 343.255496 
L 121.558442 342.582521 
L 126.233766 342.714362 
L 130.909091 343.098715 
L 135.584416 344.048075 
L 140.25974 344.205375 
L 144.935065 343.891532 
L 149.61039 343.364481 
L 154.285714 343.680278 
L 158.961039 343.054553 
L 163.636364 343.124844 
L 168.311688 343.305483 
L 172.987013 342.805968 
L 177.662338 341.914452 
L 182.337662 341.792616 
L 187.012987 342.111568 
L 191.688312 342.019722 
L 196.363636 341.126767 
L 201.038961 342.059541 
L 205.714286 343.96133 
L 210.38961 346.257284 
L 215.064935 347.377037 
L 219.74026 347.620037 
L 224.415584 347.454337 
L 229.090909 347.219099 
L 233.766234 348.37169 
L 238.441558 349.815125 
L 243.116883 350.223877 
L 247.792208 348.86688 
L 252.467532 347.081655 
L 257.142857 344.491003 
L 261.818182 341.653916 
L 266.493506 340.309572 
L 271.168831 339.475209 
L 275.844156 338.217418 
L 280.519481 336.734026 
L 285.194805 335.32435 
L 289.87013 334.331276 
L 294.545455 333.921782 
" clip-path="url(#pf4b614dc2f)" style="fill: none; stroke: #ff0000; stroke-opacity: 0.2; stroke-width: 1.5; stroke-linecap: square"/>
   </g>
   <g id="line2d_12">
    <path d="M 65.454545 340.931223 
L 70.12987 340.931223 
L 74.805195 342.388326 
L 79.480519 342.621246 
L 84.155844 342.978688 
L 88.831169 342.93842 
L 93.506494 341.939825 
L 98.181818 342.653269 
L 102.857143 342.851935 
L 107.532468 344.138767 
L 112.207792 345.646461 
L 116.883117 346.434276 
L 121.558442 346.214499 
L 126.233766 346.709508 
L 130.909091 345.369226 
L 135.584416 344.928774 
L 140.25974 346.4119 
L 144.935065 347.430531 
L 149.61039 348.785013 
L 154.285714 350.144978 
L 158.961039 350.676074 
L 163.636364 351.257226 
L 168.311688 351.757503 
L 172.987013 351.766652 
L 177.662338 351.323617 
L 182.337662 349.942401 
L 187.012987 349.120442 
L 191.688312 348.477931 
L 196.363636 347.904022 
L 201.038961 347.670003 
L 205.714286 347.046409 
L 210.38961 346.32537 
L 215.064935 345.987693 
L 219.74026 346.692198 
L 224.415584 347.455432 
L 229.090909 347.571977 
L 233.766234 347.930032 
L 238.441558 348.305657 
L 243.116883 348.271428 
L 247.792208 348.558575 
L 252.467532 348.986398 
L 257.142857 348.437653 
L 261.818182 348.488629 
L 266.493506 348.127664 
L 271.168831 347.419608 
L 275.844156 346.673743 
L 280.519481 345.941108 
L 285.194805 345.091056 
L 289.87013 345.07884 
L 294.545455 344.776301 
" clip-path="url(#pf4b614dc2f)" style="fill: none; stroke: #ff0000; stroke-opacity: 0.2; stroke-width: 1.5; stroke-linecap: square"/>
   </g>
   <g id="line2d_13">
    <path d="M 65.454545 350.905132 
L 70.12987 350.39803 
L 74.805195 348.956088 
L 79.480519 347.582579 
L 84.155844 346.703576 
L 88.831169 346.621338 
L 93.506494 346.802512 
L 98.181818 347.075728 
L 102.857143 347.397755 
L 107.532468 347.999812 
L 112.207792 348.272252 
L 116.883117 348.159979 
L 121.558442 348.129803 
L 126.233766 348.21413 
L 130.909091 348.887802 
L 135.584416 349.023012 
L 140.25974 349.263932 
L 144.935065 349.281739 
L 149.61039 348.896972 
L 154.285714 348.550117 
L 158.961039 348.250176 
L 163.636364 347.841596 
L 168.311688 347.714236 
L 172.987013 348.036883 
L 177.662338 348.150299 
L 182.337662 347.789394 
L 187.012987 347.5869 
L 191.688312 347.52581 
L 196.363636 347.721891 
L 201.038961 348.131116 
L 205.714286 348.312983 
L 210.38961 347.682545 
L 215.064935 347.04462 
L 219.74026 346.565565 
L 224.415584 346.501296 
L 229.090909 346.567851 
L 233.766234 347.109136 
L 238.441558 347.30567 
L 243.116883 347.475341 
L 247.792208 346.938153 
L 252.467532 346.616764 
L 257.142857 346.12986 
L 261.818182 345.779513 
L 266.493506 344.854426 
L 271.168831 343.665238 
L 275.844156 343.361691 
L 280.519481 343.568997 
L 285.194805 344.850408 
L 289.87013 347.114697 
L 294.545455 348.818917 
" clip-path="url(#pf4b614dc2f)" style="fill: none; stroke: #ff0000; stroke-opacity: 0.2; stroke-width: 1.5; stroke-linecap: square"/>
   </g>
   <g id="line2d_14">
    <path d="M 65.454545 351.526655 
L 70.12987 351.526655 
L 74.805195 351.680074 
L 79.480519 352.578866 
L 84.155844 352.705688 
L 88.831169 352.52351 
L 93.506494 353.87069 
L 98.181818 355.348727 
L 102.857143 355.60584 
L 107.532468 355.298392 
L 112.207792 355.064368 
L 116.883117 354.109277 
L 121.558442 353.02972 
L 126.233766 351.561596 
L 130.909091 350.62074 
L 135.584416 350.75093 
L 140.25974 351.249282 
L 144.935065 351.768124 
L 149.61039 351.587692 
L 154.285714 352.074754 
L 158.961039 353.034602 
L 163.636364 353.624155 
L 168.311688 353.865136 
L 172.987013 354.079517 
L 177.662338 353.940783 
L 182.337662 353.050764 
L 187.012987 352.393938 
L 191.688312 352.366229 
L 196.363636 351.817782 
L 201.038961 351.668363 
L 205.714286 351.761977 
L 210.38961 352.070486 
L 215.064935 352.250635 
L 219.74026 351.777034 
L 224.415584 351.350439 
L 229.090909 350.701914 
L 233.766234 349.914647 
L 238.441558 349.238391 
L 243.116883 348.540233 
L 247.792208 347.916191 
L 252.467532 347.577445 
L 257.142857 347.918152 
L 261.818182 348.050088 
L 266.493506 347.385789 
L 271.168831 346.674811 
L 275.844156 346.4884 
L 280.519481 347.075401 
L 285.194805 347.55371 
L 289.87013 347.223575 
L 294.545455 346.90836 
" clip-path="url(#pf4b614dc2f)" style="fill: none; stroke: #ff0000; stroke-opacity: 0.2; stroke-width: 1.5; stroke-linecap: square"/>
   </g>
   <g id="line2d_15">
    <path d="M 65.454545 325.327147 
L 70.12987 325.33443 
L 74.805195 324.810262 
L 79.480519 325.258913 
L 84.155844 326.7521 
L 88.831169 325.70963 
L 93.506494 325.664743 
L 98.181818 324.807874 
L 102.857143 324.200522 
L 107.532468 324.515367 
L 112.207792 325.152629 
L 116.883117 325.021844 
L 121.558442 324.134529 
L 126.233766 324.196689 
L 130.909091 325.422953 
L 135.584416 326.010263 
L 140.25974 326.175906 
L 144.935065 327.713456 
L 149.61039 329.718615 
L 154.285714 330.265882 
L 158.961039 329.533141 
L 163.636364 329.090674 
L 168.311688 329.60613 
L 172.987013 329.821043 
L 177.662338 329.945482 
L 182.337662 329.837253 
L 187.012987 329.751569 
L 191.688312 328.995295 
L 196.363636 328.97613 
L 201.038961 329.459488 
L 205.714286 329.223284 
L 210.38961 328.470043 
L 215.064935 328.117961 
L 219.74026 327.274464 
L 224.415584 326.752689 
L 229.090909 327.197078 
L 233.766234 328.455282 
L 238.441558 329.459877 
L 243.116883 330.244952 
L 247.792208 331.566792 
L 252.467532 332.89796 
L 257.142857 333.255257 
L 261.818182 333.97941 
L 266.493506 335.252219 
L 271.168831 335.95157 
L 275.844156 336.061107 
L 280.519481 334.679787 
L 285.194805 333.649611 
L 289.87013 332.469431 
L 294.545455 331.711605 
" clip-path="url(#pf4b614dc2f)" style="fill: none; stroke: #ff0000; stroke-opacity: 0.2; stroke-width: 1.5; stroke-linecap: square"/>
   </g>
   <g id="line2d_16">
    <path d="M 65.454545 353.261583 
L 70.12987 355.096136 
L 74.805195 358.101536 
L 79.480519 359.358644 
L 84.155844 355.646454 
L 88.831169 352.578556 
L 93.506494 353.038243 
L 98.181818 354.29831 
L 102.857143 354.847393 
L 107.532468 355.014506 
L 112.207792 353.715626 
L 116.883117 351.950666 
L 121.558442 351.995951 
L 126.233766 353.596383 
L 130.909091 354.626006 
L 135.584416 354.363821 
L 140.25974 354.058677 
L 144.935065 353.709825 
L 149.61039 352.789961 
L 154.285714 352.029981 
L 158.961039 352.522466 
L 163.636364 351.489604 
L 168.311688 350.975204 
L 172.987013 350.473539 
L 177.662338 349.211591 
L 182.337662 347.931177 
L 187.012987 347.787923 
L 191.688312 348.055515 
L 196.363636 348.399806 
L 201.038961 348.365988 
L 205.714286 347.663614 
L 210.38961 347.682222 
L 215.064935 348.630333 
L 219.74026 349.904781 
L 224.415584 350.282616 
L 229.090909 349.827878 
L 233.766234 348.881638 
L 238.441558 348.876862 
L 243.116883 348.840619 
L 247.792208 348.675509 
L 252.467532 349.933006 
L 257.142857 351.831549 
L 261.818182 352.938452 
L 266.493506 352.675719 
L 271.168831 352.706641 
L 275.844156 354.045474 
L 280.519481 355.583622 
L 285.194805 355.899623 
L 289.87013 354.839255 
L 294.545455 353.584067 
" clip-path="url(#pf4b614dc2f)" style="fill: none; stroke: #ff0000; stroke-opacity: 0.2; stroke-width: 1.5; stroke-linecap: square"/>
   </g>
   <g id="line2d_17">
    <path d="M 65.454545 346.861502 
L 70.12987 346.090597 
L 74.805195 345.594033 
L 79.480519 345.68825 
L 84.155844 345.611987 
L 88.831169 344.923362 
L 93.506494 343.25964 
L 98.181818 340.911567 
L 102.857143 338.938731 
L 107.532468 337.629558 
L 112.207792 338.643651 
L 116.883117 339.375268 
L 121.558442 340.890078 
L 126.233766 342.591736 
L 130.909091 343.35538 
L 135.584416 343.561887 
L 140.25974 344.05168 
L 144.935065 344.083105 
L 149.61039 344.267569 
L 154.285714 345.594688 
L 158.961039 345.267847 
L 163.636364 344.69104 
L 168.311688 345.358484 
L 172.987013 347.511457 
L 177.662338 349.121771 
L 182.337662 350.178672 
L 187.012987 350.90689 
L 191.688312 351.402463 
L 196.363636 352.078509 
L 201.038961 352.813091 
L 205.714286 353.58661 
L 210.38961 354.359888 
L 215.064935 353.764042 
L 219.74026 352.387077 
L 224.415584 350.052603 
L 229.090909 347.714247 
L 233.766234 345.961629 
L 238.441558 345.843289 
L 243.116883 347.222625 
L 247.792208 349.86473 
L 252.467532 351.471329 
L 257.142857 351.097564 
L 261.818182 349.836776 
L 266.493506 347.772259 
L 271.168831 347.128663 
L 275.844156 346.055538 
L 280.519481 345.326348 
L 285.194805 345.207089 
L 289.87013 344.356238 
L 294.545455 344.730007 
" clip-path="url(#pf4b614dc2f)" style="fill: none; stroke: #ff0000; stroke-opacity: 0.2; stroke-width: 1.5; stroke-linecap: square"/>
   </g>
   <g id="line2d_18">
    <path d="M 65.454545 355.991784 
L 70.12987 356.485505 
L 74.805195 356.734314 
L 79.480519 353.754971 
L 84.155844 350.4151 
L 88.831169 346.475126 
L 93.506494 344.913322 
L 98.181818 343.92216 
L 102.857143 343.662514 
L 107.532468 345.348695 
L 112.207792 348.03059 
L 116.883117 350.596975 
L 121.558442 352.654697 
L 126.233766 353.222194 
L 130.909091 354.38647 
L 135.584416 354.921179 
L 140.25974 355.532155 
L 144.935065 355.453022 
L 149.61039 354.932876 
L 154.285714 353.92823 
L 158.961039 352.792104 
L 163.636364 351.897538 
L 168.311688 351.640464 
L 172.987013 351.040106 
L 177.662338 351.23622 
L 182.337662 352.258454 
L 187.012987 353.030453 
L 191.688312 353.909177 
L 196.363636 354.493933 
L 201.038961 354.354111 
L 205.714286 355.020976 
L 210.38961 356.77457 
L 215.064935 357.209516 
L 219.74026 357.376146 
L 224.415584 358.089734 
L 229.090909 359.64901 
L 233.766234 359.348095 
L 238.441558 357.613829 
L 243.116883 357.433983 
L 247.792208 357.366449 
L 252.467532 357.316518 
L 257.142857 357.914909 
L 261.818182 357.621759 
L 266.493506 356.916113 
L 271.168831 357.561599 
L 275.844156 358.769791 
L 280.519481 359.663217 
L 285.194805 360.375438 
L 289.87013 360.465088 
L 294.545455 360.612458 
" clip-path="url(#pf4b614dc2f)" style="fill: none; stroke: #ff0000; stroke-opacity: 0.2; stroke-width: 1.5; stroke-linecap: square"/>
   </g>
   <g id="line2d_19">
    <path d="M 65.454545 346.365473 
L 70.12987 346.867093 
L 74.805195 346.158004 
L 79.480519 345.832516 
L 84.155844 345.024217 
L 88.831169 344.005301 
L 93.506494 343.139804 
L 98.181818 343.981064 
L 102.857143 344.840835 
L 107.532468 344.759171 
L 112.207792 344.608375 
L 116.883117 344.282887 
L 121.558442 344.331648 
L 126.233766 344.59445 
L 130.909091 344.112624 
L 135.584416 344.038114 
L 140.25974 343.905184 
L 144.935065 344.028959 
L 149.61039 343.692201 
L 154.285714 342.93693 
L 158.961039 342.158645 
L 163.636364 341.788016 
L 168.311688 341.622638 
L 172.987013 342.289756 
L 177.662338 343.087198 
L 182.337662 343.420111 
L 187.012987 343.84131 
L 191.688312 343.648963 
L 196.363636 344.179317 
L 201.038961 344.635178 
L 205.714286 345.619451 
L 210.38961 346.551266 
L 215.064935 346.836045 
L 219.74026 346.594597 
L 224.415584 346.705643 
L 229.090909 346.719372 
L 233.766234 346.991304 
L 238.441558 346.698632 
L 243.116883 346.455272 
L 247.792208 346.574928 
L 252.467532 346.82957 
L 257.142857 346.909659 
L 261.818182 347.463597 
L 266.493506 347.269852 
L 271.168831 346.14935 
L 275.844156 345.101728 
L 280.519481 345.021318 
L 285.194805 345.989082 
L 289.87013 347.368953 
L 294.545455 348.240878 
" clip-path="url(#pf4b614dc2f)" style="fill: none; stroke: #ff0000; stroke-opacity: 0.2; stroke-width: 1.5; stroke-linecap: square"/>
   </g>
   <g id="line2d_20">
    <path d="M 65.454545 306.847443 
L 70.12987 309.122019 
L 74.805195 310.06486 
L 79.480519 312.236334 
L 84.155844 312.784473 
L 88.831169 317.643 
L 93.506494 322.791391 
L 98.181818 326.197121 
L 102.857143 329.833896 
L 107.532468 330.998853 
L 112.207792 331.074483 
L 116.883117 329.427792 
L 121.558442 327.556041 
L 126.233766 326.883944 
L 130.909091 326.880684 
L 135.584416 327.687112 
L 140.25974 327.959829 
L 144.935065 327.086244 
L 149.61039 326.083687 
L 154.285714 324.16893 
L 158.961039 324.369325 
L 163.636364 324.617305 
L 168.311688 325.457617 
L 172.987013 327.007132 
L 177.662338 327.961207 
L 182.337662 328.696 
L 187.012987 329.783496 
L 191.688312 329.260003 
L 196.363636 327.738039 
L 201.038961 326.624174 
L 205.714286 325.116459 
L 210.38961 324.12828 
L 215.064935 324.345727 
L 219.74026 324.900411 
L 224.415584 326.313584 
L 229.090909 328.170484 
L 233.766234 330.875607 
L 238.441558 334.468216 
L 243.116883 337.057593 
L 247.792208 337.885208 
L 252.467532 338.408111 
L 257.142857 339.143986 
L 261.818182 338.568327 
L 266.493506 337.486571 
L 271.168831 337.064774 
L 275.844156 336.890449 
L 280.519481 337.295334 
L 285.194805 337.791858 
L 289.87013 338.121747 
L 294.545455 338.862547 
" clip-path="url(#pf4b614dc2f)" style="fill: none; stroke: #ff0000; stroke-opacity: 0.2; stroke-width: 1.5; stroke-linecap: square"/>
   </g>
   <g id="line2d_21">
    <path d="M 65.454545 353.219899 
L 70.12987 354.823268 
L 74.805195 357.213841 
L 79.480519 358.006248 
L 84.155844 358.897675 
L 88.831169 358.247626 
L 93.506494 357.887106 
L 98.181818 359.470342 
L 102.857143 361.173402 
L 107.532468 362.311755 
L 112.207792 362.916786 
L 116.883117 362.884459 
L 121.558442 363.211948 
L 126.233766 362.325732 
L 130.909091 361.60875 
L 135.584416 361.533087 
L 140.25974 360.418231 
L 144.935065 358.350723 
L 149.61039 357.258451 
L 154.285714 357.04605 
L 158.961039 356.424437 
L 163.636364 355.507167 
L 168.311688 354.807722 
L 172.987013 354.507834 
L 177.662338 354.292781 
L 182.337662 353.654245 
L 187.012987 352.923797 
L 191.688312 352.788038 
L 196.363636 353.270097 
L 201.038961 353.55831 
L 205.714286 353.994588 
L 210.38961 354.13462 
L 215.064935 354.217075 
L 219.74026 353.751556 
L 224.415584 353.40898 
L 229.090909 352.685512 
L 233.766234 352.453035 
L 238.441558 351.578106 
L 243.116883 350.651413 
L 247.792208 350.309149 
L 252.467532 351.108909 
L 257.142857 352.306191 
L 261.818182 352.481274 
L 266.493506 352.397815 
L 271.168831 352.377037 
L 275.844156 351.998303 
L 280.519481 350.929672 
L 285.194805 350.091294 
L 289.87013 350.402218 
L 294.545455 350.797977 
" clip-path="url(#pf4b614dc2f)" style="fill: none; stroke: #ff0000; stroke-opacity: 0.2; stroke-width: 1.5; stroke-linecap: square"/>
   </g>
   <g id="line2d_22">
    <path d="M 111.272727 382.628571 
L 111.272727 308.571429 
" clip-path="url(#pf4b614dc2f)" style="fill: none; stroke-dasharray: 5.55,2.4; stroke-dashoffset: 0; stroke: #000000; stroke-width: 1.5"/>
   </g>
   <g id="line2d_23">
    <path d="M 65.454545 345.6 
L 294.545455 345.6 
" clip-path="url(#pf4b614dc2f)" style="fill: none; stroke-dasharray: 5.55,2.4; stroke-dashoffset: 0; stroke: #000000; stroke-width: 1.5"/>
   </g>
   <g id="patch_3">
    <path d="M 50 388.8 
L 50 302.4 
" style="fill: none; stroke: #000000; stroke-width: 0.8; stroke-linejoin: miter; stroke-linecap: square"/>
   </g>
   <g id="patch_4">
    <path d="M 54 392.8 
L 306 392.8 
" style="fill: none; stroke: #000000; stroke-width: 0.8; stroke-linejoin: miter; stroke-linecap: square"/>
   </g>
   <g id="text_12">
    <!-- all depths -->
    <g transform="translate(150.492188 296.4) scale(0.12 -0.12)">
     <defs>
      <path id="DejaVuSans-70" d="M 1159 525 
L 1159 -1331 
L 581 -1331 
L 581 3500 
L 1159 3500 
L 1159 2969 
Q 1341 3281 1617 3432 
Q 1894 3584 2278 3584 
Q 2916 3584 3314 3078 
Q 3713 2572 3713 1747 
Q 3713 922 3314 415 
Q 2916 -91 2278 -91 
Q 1894 -91 1617 61 
Q 1341 213 1159 525 
z
M 3116 1747 
Q 3116 2381 2855 2742 
Q 2594 3103 2138 3103 
Q 1681 3103 1420 2742 
Q 1159 2381 1159 1747 
Q 1159 1113 1420 752 
Q 1681 391 2138 391 
Q 2594 391 2855 752 
Q 3116 1113 3116 1747 
z
" transform="scale(0.015625)"/>
     </defs>
     <use xlink:href="#DejaVuSans-61"/>
     <use xlink:href="#DejaVuSans-6c" x="61.279297"/>
     <use xlink:href="#DejaVuSans-6c" x="89.0625"/>
     <use xlink:href="#DejaVuSans-20" x="116.845703"/>
     <use xlink:href="#DejaVuSans-64" x="148.632812"/>
     <use xlink:href="#DejaVuSans-65" x="212.109375"/>
     <use xlink:href="#DejaVuSans-70" x="273.632812"/>
     <use xlink:href="#DejaVuSans-74" x="337.109375"/>
     <use xlink:href="#DejaVuSans-68" x="376.318359"/>
     <use xlink:href="#DejaVuSans-73" x="439.697266"/>
    </g>
   </g>
   <g id="legend_1">
    <g id="patch_5">
     <path d="M 127.945312 383.8 
L 299 383.8 
Q 301 383.8 301 381.8 
L 301 367.84375 
Q 301 365.84375 299 365.84375 
L 127.945312 365.84375 
Q 125.945312 365.84375 125.945312 367.84375 
L 125.945312 381.8 
Q 125.945312 383.8 127.945312 383.8 
z
" style="fill: #ffffff; opacity: 0.8; stroke: #cccccc; stroke-linejoin: miter"/>
    </g>
    <g id="line2d_24">
     <path d="M 129.945312 373.942187 
L 139.945312 373.942187 
L 149.945312 373.942187 
" style="fill: none; stroke: #ff0000; stroke-width: 1.5; stroke-linecap: square"/>
    </g>
    <g id="text_13">
     <!-- V1_tgt_deep_deveined_iso0 -->
     <g transform="translate(157.945312 377.442187) scale(0.1 -0.1)">
      <defs>
       <path id="DejaVuSans-56" d="M 1831 0 
L 50 4666 
L 709 4666 
L 2188 738 
L 3669 4666 
L 4325 4666 
L 2547 0 
L 1831 0 
z
" transform="scale(0.015625)"/>
       <path id="DejaVuSans-5f" d="M 3263 -1063 
L 3263 -1509 
L -63 -1509 
L -63 -1063 
L 3263 -1063 
z
" transform="scale(0.015625)"/>
      </defs>
      <use xlink:href="#DejaVuSans-56"/>
      <use xlink:href="#DejaVuSans-31" x="68.408203"/>
      <use xlink:href="#DejaVuSans-5f" x="132.03125"/>
      <use xlink:href="#DejaVuSans-74" x="182.03125"/>
      <use xlink:href="#DejaVuSans-67" x="221.240234"/>
      <use xlink:href="#DejaVuSans-74" x="284.716797"/>
      <use xlink:href="#DejaVuSans-5f" x="323.925781"/>
      <use xlink:href="#DejaVuSans-64" x="373.925781"/>
      <use xlink:href="#DejaVuSans-65" x="437.402344"/>
      <use xlink:href="#DejaVuSans-65" x="498.925781"/>
      <use xlink:href="#DejaVuSans-70" x="560.449219"/>
      <use xlink:href="#DejaVuSans-5f" x="623.925781"/>
      <use xlink:href="#DejaVuSans-64" x="673.925781"/>
      <use xlink:href="#DejaVuSans-65" x="737.402344"/>
      <use xlink:href="#DejaVuSans-76" x="798.925781"/>
      <use xlink:href="#DejaVuSans-65" x="858.105469"/>
      <use xlink:href="#DejaVuSans-69" x="919.628906"/>
      <use xlink:href="#DejaVuSans-6e" x="947.412109"/>
      <use xlink:href="#DejaVuSans-65" x="1010.791016"/>
      <use xlink:href="#DejaVuSans-64" x="1072.314453"/>
      <use xlink:href="#DejaVuSans-5f" x="1135.791016"/>
      <use xlink:href="#DejaVuSans-69" x="1185.791016"/>
      <use xlink:href="#DejaVuSans-73" x="1213.574219"/>
      <use xlink:href="#DejaVuSans-6f" x="1265.673828"/>
      <use xlink:href="#DejaVuSans-30" x="1326.855469"/>
     </g>
    </g>
   </g>
  </g>
 </g>
 <defs>
  <clipPath id="pf4b614dc2f">
   <rect x="54" y="302.4" width="252" height="86.4"/>
  </clipPath>
 </defs>
</svg>
