<?xml version="1.0" encoding="utf-8" standalone="no"?>
<!DOCTYPE svg PUBLIC "-//W3C//DTD SVG 1.1//EN"
  "http://www.w3.org/Graphics/SVG/1.1/DTD/svg11.dtd">
<svg xmlns:xlink="http://www.w3.org/1999/xlink" width="360pt" height="432pt" viewBox="0 0 360 432" xmlns="http://www.w3.org/2000/svg" version="1.1">
 <metadata>
  <rdf:RDF xmlns:dc="http://purl.org/dc/elements/1.1/" xmlns:cc="http://creativecommons.org/ns#" xmlns:rdf="http://www.w3.org/1999/02/22-rdf-syntax-ns#">
   <cc:Work>
    <dc:type rdf:resource="http://purl.org/dc/dcmitype/StillImage"/>
    <dc:date>2026-05-26T10:35:12.381870</dc:date>
    <dc:format>image/svg+xml</dc:format>
    <dc:creator>
     <cc:Agent>
      <dc:title>Matplotlib v3.8.0, https://matplotlib.org/</dc:title>
     </cc:Agent>
    </dc:creator>
   </cc:Work>
  </rdf:RDF>
 </metadata>
 <defs>
  <style type="text/css">*{stroke-linejoin: round; stroke-linecap: butt}</style>
 </defs>
 <g id="figure_1">
  <g id="patch_1">
   <path d="M 0 432 
L 360 432 
L 360 0 
L 0 0 
z
" style="fill: #ffffff"/>
  </g>
  <g id="axes_1">
   <g id="patch_2">
    <path d="M 54 388.8 
L 306 388.8 
L 306 302.4 
L 54 302.4 
z
" style="fill: #ffffff"/>
   </g>
   <g id="PolyCollection_1">
    <defs>
     <path id="m991afb4f29" d="M 65.454545 -91.545618 
L 65.454545 -85.470788 
L 70.12987 -85.898538 
L 74.805195 -86.33707 
L 79.480519 -86.598169 
L 84.155844 -86.956657 
L 88.831169 -86.760043 
L 93.506494 -86.506309 
L 98.181818 -86.495051 
L 102.857143 -86.24971 
L 107.532468 -85.979525 
L 112.207792 -85.78605 
L 116.883117 -85.319503 
L 121.558442 -84.677476 
L 126.233766 -84.55995 
L 130.909091 -84.372462 
L 135.584416 -84.764211 
L 140.25974 -85.286059 
L 144.935065 -85.807157 
L 149.61039 -86.241793 
L 154.285714 -86.473483 
L 158.961039 -86.621614 
L 163.636364 -86.679486 
L 168.311688 -86.521888 
L 172.987013 -86.403052 
L 177.662338 -86.181057 
L 182.337662 -85.969793 
L 187.012987 -85.97695 
L 191.688312 -86.152431 
L 196.363636 -86.050074 
L 201.038961 -85.93909 
L 205.714286 -85.56985 
L 210.38961 -85.056409 
L 215.064935 -84.624996 
L 219.74026 -84.001695 
L 224.415584 -83.479086 
L 229.090909 -82.866164 
L 233.766234 -82.386498 
L 238.441558 -82.18757 
L 243.116883 -82.333018 
L 247.792208 -82.554237 
L 252.467532 -82.274896 
L 257.142857 -82.000957 
L 261.818182 -81.930025 
L 266.493506 -81.862147 
L 271.168831 -81.939536 
L 275.844156 -81.901677 
L 280.519481 -81.756196 
L 285.194805 -81.752656 
L 289.87013 -81.157016 
L 294.545455 -80.245489 
L 294.545455 -84.938112 
L 294.545455 -84.938112 
L 289.87013 -85.710471 
L 285.194805 -86.140729 
L 280.519481 -85.892103 
L 275.844156 -85.764317 
L 271.168831 -85.640676 
L 266.493506 -85.364838 
L 261.818182 -85.226099 
L 257.142857 -85.334253 
L 252.467532 -85.799259 
L 247.792208 -86.397155 
L 243.116883 -86.505869 
L 238.441558 -86.616559 
L 233.766234 -86.958601 
L 229.090909 -87.613032 
L 224.415584 -87.955469 
L 219.74026 -87.94131 
L 215.064935 -88.232614 
L 210.38961 -88.56098 
L 205.714286 -89.149954 
L 201.038961 -89.594759 
L 196.363636 -89.822975 
L 191.688312 -89.988894 
L 187.012987 -89.876622 
L 182.337662 -89.817788 
L 177.662338 -89.965863 
L 172.987013 -90.16188 
L 168.311688 -90.287633 
L 163.636364 -90.268119 
L 158.961039 -90.064932 
L 154.285714 -89.98053 
L 149.61039 -90.163054 
L 144.935065 -90.120859 
L 140.25974 -89.855091 
L 135.584416 -89.697429 
L 130.909091 -89.919352 
L 126.233766 -90.543476 
L 121.558442 -90.954787 
L 116.883117 -91.587562 
L 112.207792 -91.73051 
L 107.532468 -91.67002 
L 102.857143 -92.040817 
L 98.181818 -92.648979 
L 93.506494 -92.916718 
L 88.831169 -93.175881 
L 84.155844 -93.171549 
L 79.480519 -92.392456 
L 74.805195 -91.773525 
L 70.12987 -91.717417 
L 65.454545 -91.545618 
z
" style="stroke: #9400d3; stroke-opacity: 0.4"/>
    </defs>
    <g clip-path="url(#pc21a85f06d)">
     <use xlink:href="#m991afb4f29" x="0" y="432" style="fill: #9400d3; fill-opacity: 0.4; stroke: #9400d3; stroke-opacity: 0.4"/>
    </g>
   </g>
   <g id="matplotlib.axis_1">
    <g id="xtick_1">
     <g id="line2d_1">
      <defs>
       <path id="mdaf09748c8" d="M 0 0 
L 0 3.5 
" style="stroke: #000000; stroke-width: 0.8"/>
      </defs>
      <g>
       <use xlink:href="#mdaf09748c8" x="65.454545" y="392.8" style="stroke: #000000; stroke-width: 0.8"/>
      </g>
     </g>
     <g id="text_1">
      <!-- 0 -->
      <g transform="translate(62.273295 407.398438) scale(0.1 -0.1)">
       <defs>
        <path id="DejaVuSans-30" d="M 2034 4250 
Q 1547 4250 1301 3770 
Q 1056 3291 1056 2328 
Q 1056 1369 1301 889 
Q 1547 409 2034 409 
Q 2525 409 2770 889 
Q 3016 1369 3016 2328 
Q 3016 3291 2770 3770 
Q 2525 4250 2034 4250 
z
M 2034 4750 
Q 2819 4750 3233 4129 
Q 3647 3509 3647 2328 
Q 3647 1150 3233 529 
Q 2819 -91 2034 -91 
Q 1250 -91 836 529 
Q 422 1150 422 2328 
Q 422 3509 836 4129 
Q 1250 4750 2034 4750 
z
" transform="scale(0.015625)"/>
       </defs>
       <use xlink:href="#DejaVuSans-30"/>
      </g>
     </g>
    </g>
    <g id="xtick_2">
     <g id="line2d_2">
      <g>
       <use xlink:href="#mdaf09748c8" x="111.272727" y="392.8" style="stroke: #000000; stroke-width: 0.8"/>
      </g>
     </g>
     <g id="text_2">
      <!-- 1 -->
      <g transform="translate(108.091477 407.398438) scale(0.1 -0.1)">
       <defs>
        <path id="DejaVuSans-31" d="M 794 531 
L 1825 531 
L 1825 4091 
L 703 3866 
L 703 4441 
L 1819 4666 
L 2450 4666 
L 2450 531 
L 3481 531 
L 3481 0 
L 794 0 
L 794 531 
z
" transform="scale(0.015625)"/>
       </defs>
       <use xlink:href="#DejaVuSans-31"/>
      </g>
     </g>
    </g>
    <g id="xtick_3">
     <g id="line2d_3">
      <g>
       <use xlink:href="#mdaf09748c8" x="157.090909" y="392.8" style="stroke: #000000; stroke-width: 0.8"/>
      </g>
     </g>
     <g id="text_3">
      <!-- 2 -->
      <g transform="translate(153.909659 407.398438) scale(0.1 -0.1)">
       <defs>
        <path id="DejaVuSans-32" d="M 1228 531 
L 3431 531 
L 3431 0 
L 469 0 
L 469 531 
Q 828 903 1448 1529 
Q 2069 2156 2228 2338 
Q 2531 2678 2651 2914 
Q 2772 3150 2772 3378 
Q 2772 3750 2511 3984 
Q 2250 4219 1831 4219 
Q 1534 4219 1204 4116 
Q 875 4013 500 3803 
L 500 4441 
Q 881 4594 1212 4672 
Q 1544 4750 1819 4750 
Q 2544 4750 2975 4387 
Q 3406 4025 3406 3419 
Q 3406 3131 3298 2873 
Q 3191 2616 2906 2266 
Q 2828 2175 2409 1742 
Q 1991 1309 1228 531 
z
" transform="scale(0.015625)"/>
       </defs>
       <use xlink:href="#DejaVuSans-32"/>
      </g>
     </g>
    </g>
    <g id="xtick_4">
     <g id="line2d_4">
      <g>
       <use xlink:href="#mdaf09748c8" x="202.909091" y="392.8" style="stroke: #000000; stroke-width: 0.8"/>
      </g>
     </g>
     <g id="text_4">
      <!-- 3 -->
      <g transform="translate(199.727841 407.398438) scale(0.1 -0.1)">
       <defs>
        <path id="DejaVuSans-33" d="M 2597 2516 
Q 3050 2419 3304 2112 
Q 3559 1806 3559 1356 
Q 3559 666 3084 287 
Q 2609 -91 1734 -91 
Q 1441 -91 1130 -33 
Q 819 25 488 141 
L 488 750 
Q 750 597 1062 519 
Q 1375 441 1716 441 
Q 2309 441 2620 675 
Q 2931 909 2931 1356 
Q 2931 1769 2642 2001 
Q 2353 2234 1838 2234 
L 1294 2234 
L 1294 2753 
L 1863 2753 
Q 2328 2753 2575 2939 
Q 2822 3125 2822 3475 
Q 2822 3834 2567 4026 
Q 2313 4219 1838 4219 
Q 1578 4219 1281 4162 
Q 984 4106 628 3988 
L 628 4550 
Q 988 4650 1302 4700 
Q 1616 4750 1894 4750 
Q 2613 4750 3031 4423 
Q 3450 4097 3450 3541 
Q 3450 3153 3228 2886 
Q 3006 2619 2597 2516 
z
" transform="scale(0.015625)"/>
       </defs>
       <use xlink:href="#DejaVuSans-33"/>
      </g>
     </g>
    </g>
    <g id="xtick_5">
     <g id="line2d_5">
      <g>
       <use xlink:href="#mdaf09748c8" x="248.727273" y="392.8" style="stroke: #000000; stroke-width: 0.8"/>
      </g>
     </g>
     <g id="text_5">
      <!-- 4 -->
      <g transform="translate(245.546023 407.398438) scale(0.1 -0.1)">
       <defs>
        <path id="DejaVuSans-34" d="M 2419 4116 
L 825 1625 
L 2419 1625 
L 2419 4116 
z
M 2253 4666 
L 3047 4666 
L 3047 1625 
L 3713 1625 
L 3713 1100 
L 3047 1100 
L 3047 0 
L 2419 0 
L 2419 1100 
L 313 1100 
L 313 1709 
L 2253 4666 
z
" transform="scale(0.015625)"/>
       </defs>
       <use xlink:href="#DejaVuSans-34"/>
      </g>
     </g>
    </g>
    <g id="xtick_6">
     <g id="line2d_6">
      <g>
       <use xlink:href="#mdaf09748c8" x="294.545455" y="392.8" style="stroke: #000000; stroke-width: 0.8"/>
      </g>
     </g>
     <g id="text_6">
      <!-- 5 -->
      <g transform="translate(291.364205 407.398438) scale(0.1 -0.1)">
       <defs>
        <path id="DejaVuSans-35" d="M 691 4666 
L 3169 4666 
L 3169 4134 
L 1269 4134 
L 1269 2991 
Q 1406 3038 1543 3061 
Q 1681 3084 1819 3084 
Q 2600 3084 3056 2656 
Q 3513 2228 3513 1497 
Q 3513 744 3044 326 
Q 2575 -91 1722 -91 
Q 1428 -91 1123 -41 
Q 819 9 494 109 
L 494 744 
Q 775 591 1075 516 
Q 1375 441 1709 441 
Q 2250 441 2565 725 
Q 2881 1009 2881 1497 
Q 2881 1984 2565 2268 
Q 2250 2553 1709 2553 
Q 1456 2553 1204 2497 
Q 953 2441 691 2322 
L 691 4666 
z
" transform="scale(0.015625)"/>
       </defs>
       <use xlink:href="#DejaVuSans-35"/>
      </g>
     </g>
    </g>
    <g id="text_7">
     <!-- relative distance from ROI center ($\sigma$) -->
     <g transform="translate(106.48 419.556875) scale(0.08 -0.08)">
      <defs>
       <path id="DejaVuSans-72" d="M 2631 2963 
Q 2534 3019 2420 3045 
Q 2306 3072 2169 3072 
Q 1681 3072 1420 2755 
Q 1159 2438 1159 1844 
L 1159 0 
L 581 0 
L 581 3500 
L 1159 3500 
L 1159 2956 
Q 1341 3275 1631 3429 
Q 1922 3584 2338 3584 
Q 2397 3584 2469 3576 
Q 2541 3569 2628 3553 
L 2631 2963 
z
" transform="scale(0.015625)"/>
       <path id="DejaVuSans-65" d="M 3597 1894 
L 3597 1613 
L 953 1613 
Q 991 1019 1311 708 
Q 1631 397 2203 397 
Q 2534 397 2845 478 
Q 3156 559 3463 722 
L 3463 178 
Q 3153 47 2828 -22 
Q 2503 -91 2169 -91 
Q 1331 -91 842 396 
Q 353 884 353 1716 
Q 353 2575 817 3079 
Q 1281 3584 2069 3584 
Q 2775 3584 3186 3129 
Q 3597 2675 3597 1894 
z
M 3022 2063 
Q 3016 2534 2758 2815 
Q 2500 3097 2075 3097 
Q 1594 3097 1305 2825 
Q 1016 2553 972 2059 
L 3022 2063 
z
" transform="scale(0.015625)"/>
       <path id="DejaVuSans-6c" d="M 603 4863 
L 1178 4863 
L 1178 0 
L 603 0 
L 603 4863 
z
" transform="scale(0.015625)"/>
       <path id="DejaVuSans-61" d="M 2194 1759 
Q 1497 1759 1228 1600 
Q 959 1441 959 1056 
Q 959 750 1161 570 
Q 1363 391 1709 391 
Q 2188 391 2477 730 
Q 2766 1069 2766 1631 
L 2766 1759 
L 2194 1759 
z
M 3341 1997 
L 3341 0 
L 2766 0 
L 2766 531 
Q 2569 213 2275 61 
Q 1981 -91 1556 -91 
Q 1019 -91 701 211 
Q 384 513 384 1019 
Q 384 1609 779 1909 
Q 1175 2209 1959 2209 
L 2766 2209 
L 2766 2266 
Q 2766 2663 2505 2880 
Q 2244 3097 1772 3097 
Q 1472 3097 1187 3025 
Q 903 2953 641 2809 
L 641 3341 
Q 956 3463 1253 3523 
Q 1550 3584 1831 3584 
Q 2591 3584 2966 3190 
Q 3341 2797 3341 1997 
z
" transform="scale(0.015625)"/>
       <path id="DejaVuSans-74" d="M 1172 4494 
L 1172 3500 
L 2356 3500 
L 2356 3053 
L 1172 3053 
L 1172 1153 
Q 1172 725 1289 603 
Q 1406 481 1766 481 
L 2356 481 
L 2356 0 
L 1766 0 
Q 1100 0 847 248 
Q 594 497 594 1153 
L 594 3053 
L 172 3053 
L 172 3500 
L 594 3500 
L 594 4494 
L 1172 4494 
z
" transform="scale(0.015625)"/>
       <path id="DejaVuSans-69" d="M 603 3500 
L 1178 3500 
L 1178 0 
L 603 0 
L 603 3500 
z
M 603 4863 
L 1178 4863 
L 1178 4134 
L 603 4134 
L 603 4863 
z
" transform="scale(0.015625)"/>
       <path id="DejaVuSans-76" d="M 191 3500 
L 800 3500 
L 1894 563 
L 2988 3500 
L 3597 3500 
L 2284 0 
L 1503 0 
L 191 3500 
z
" transform="scale(0.015625)"/>
       <path id="DejaVuSans-20" transform="scale(0.015625)"/>
       <path id="DejaVuSans-64" d="M 2906 2969 
L 2906 4863 
L 3481 4863 
L 3481 0 
L 2906 0 
L 2906 525 
Q 2725 213 2448 61 
Q 2172 -91 1784 -91 
Q 1150 -91 751 415 
Q 353 922 353 1747 
Q 353 2572 751 3078 
Q 1150 3584 1784 3584 
Q 2172 3584 2448 3432 
Q 2725 3281 2906 2969 
z
M 947 1747 
Q 947 1113 1208 752 
Q 1469 391 1925 391 
Q 2381 391 2643 752 
Q 2906 1113 2906 1747 
Q 2906 2381 2643 2742 
Q 2381 3103 1925 3103 
Q 1469 3103 1208 2742 
Q 947 2381 947 1747 
z
" transform="scale(0.015625)"/>
       <path id="DejaVuSans-73" d="M 2834 3397 
L 2834 2853 
Q 2591 2978 2328 3040 
Q 2066 3103 1784 3103 
Q 1356 3103 1142 2972 
Q 928 2841 928 2578 
Q 928 2378 1081 2264 
Q 1234 2150 1697 2047 
L 1894 2003 
Q 2506 1872 2764 1633 
Q 3022 1394 3022 966 
Q 3022 478 2636 193 
Q 2250 -91 1575 -91 
Q 1294 -91 989 -36 
Q 684 19 347 128 
L 347 722 
Q 666 556 975 473 
Q 1284 391 1588 391 
Q 1994 391 2212 530 
Q 2431 669 2431 922 
Q 2431 1156 2273 1281 
Q 2116 1406 1581 1522 
L 1381 1569 
Q 847 1681 609 1914 
Q 372 2147 372 2553 
Q 372 3047 722 3315 
Q 1072 3584 1716 3584 
Q 2034 3584 2315 3537 
Q 2597 3491 2834 3397 
z
" transform="scale(0.015625)"/>
       <path id="DejaVuSans-6e" d="M 3513 2113 
L 3513 0 
L 2938 0 
L 2938 2094 
Q 2938 2591 2744 2837 
Q 2550 3084 2163 3084 
Q 1697 3084 1428 2787 
Q 1159 2491 1159 1978 
L 1159 0 
L 581 0 
L 581 3500 
L 1159 3500 
L 1159 2956 
Q 1366 3272 1645 3428 
Q 1925 3584 2291 3584 
Q 2894 3584 3203 3211 
Q 3513 2838 3513 2113 
z
" transform="scale(0.015625)"/>
       <path id="DejaVuSans-63" d="M 3122 3366 
L 3122 2828 
Q 2878 2963 2633 3030 
Q 2388 3097 2138 3097 
Q 1578 3097 1268 2742 
Q 959 2388 959 1747 
Q 959 1106 1268 751 
Q 1578 397 2138 397 
Q 2388 397 2633 464 
Q 2878 531 3122 666 
L 3122 134 
Q 2881 22 2623 -34 
Q 2366 -91 2075 -91 
Q 1284 -91 818 406 
Q 353 903 353 1747 
Q 353 2603 823 3093 
Q 1294 3584 2113 3584 
Q 2378 3584 2631 3529 
Q 2884 3475 3122 3366 
z
" transform="scale(0.015625)"/>
       <path id="DejaVuSans-66" d="M 2375 4863 
L 2375 4384 
L 1825 4384 
Q 1516 4384 1395 4259 
Q 1275 4134 1275 3809 
L 1275 3500 
L 2222 3500 
L 2222 3053 
L 1275 3053 
L 1275 0 
L 697 0 
L 697 3053 
L 147 3053 
L 147 3500 
L 697 3500 
L 697 3744 
Q 697 4328 969 4595 
Q 1241 4863 1831 4863 
L 2375 4863 
z
" transform="scale(0.015625)"/>
       <path id="DejaVuSans-6f" d="M 1959 3097 
Q 1497 3097 1228 2736 
Q 959 2375 959 1747 
Q 959 1119 1226 758 
Q 1494 397 1959 397 
Q 2419 397 2687 759 
Q 2956 1122 2956 1747 
Q 2956 2369 2687 2733 
Q 2419 3097 1959 3097 
z
M 1959 3584 
Q 2709 3584 3137 3096 
Q 3566 2609 3566 1747 
Q 3566 888 3137 398 
Q 2709 -91 1959 -91 
Q 1206 -91 779 398 
Q 353 888 353 1747 
Q 353 2609 779 3096 
Q 1206 3584 1959 3584 
z
" transform="scale(0.015625)"/>
       <path id="DejaVuSans-6d" d="M 3328 2828 
Q 3544 3216 3844 3400 
Q 4144 3584 4550 3584 
Q 5097 3584 5394 3201 
Q 5691 2819 5691 2113 
L 5691 0 
L 5113 0 
L 5113 2094 
Q 5113 2597 4934 2840 
Q 4756 3084 4391 3084 
Q 3944 3084 3684 2787 
Q 3425 2491 3425 1978 
L 3425 0 
L 2847 0 
L 2847 2094 
Q 2847 2600 2669 2842 
Q 2491 3084 2119 3084 
Q 1678 3084 1418 2786 
Q 1159 2488 1159 1978 
L 1159 0 
L 581 0 
L 581 3500 
L 1159 3500 
L 1159 2956 
Q 1356 3278 1631 3431 
Q 1906 3584 2284 3584 
Q 2666 3584 2933 3390 
Q 3200 3197 3328 2828 
z
" transform="scale(0.015625)"/>
       <path id="DejaVuSans-52" d="M 2841 2188 
Q 3044 2119 3236 1894 
Q 3428 1669 3622 1275 
L 4263 0 
L 3584 0 
L 2988 1197 
Q 2756 1666 2539 1819 
Q 2322 1972 1947 1972 
L 1259 1972 
L 1259 0 
L 628 0 
L 628 4666 
L 2053 4666 
Q 2853 4666 3247 4331 
Q 3641 3997 3641 3322 
Q 3641 2881 3436 2590 
Q 3231 2300 2841 2188 
z
M 1259 4147 
L 1259 2491 
L 2053 2491 
Q 2509 2491 2742 2702 
Q 2975 2913 2975 3322 
Q 2975 3731 2742 3939 
Q 2509 4147 2053 4147 
L 1259 4147 
z
" transform="scale(0.015625)"/>
       <path id="DejaVuSans-4f" d="M 2522 4238 
Q 1834 4238 1429 3725 
Q 1025 3213 1025 2328 
Q 1025 1447 1429 934 
Q 1834 422 2522 422 
Q 3209 422 3611 934 
Q 4013 1447 4013 2328 
Q 4013 3213 3611 3725 
Q 3209 4238 2522 4238 
z
M 2522 4750 
Q 3503 4750 4090 4092 
Q 4678 3434 4678 2328 
Q 4678 1225 4090 567 
Q 3503 -91 2522 -91 
Q 1538 -91 948 565 
Q 359 1222 359 2328 
Q 359 3434 948 4092 
Q 1538 4750 2522 4750 
z
" transform="scale(0.015625)"/>
       <path id="DejaVuSans-49" d="M 628 4666 
L 1259 4666 
L 1259 0 
L 628 0 
L 628 4666 
z
" transform="scale(0.015625)"/>
       <path id="DejaVuSans-28" d="M 1984 4856 
Q 1566 4138 1362 3434 
Q 1159 2731 1159 2009 
Q 1159 1288 1364 580 
Q 1569 -128 1984 -844 
L 1484 -844 
Q 1016 -109 783 600 
Q 550 1309 550 2009 
Q 550 2706 781 3412 
Q 1013 4119 1484 4856 
L 1984 4856 
z
" transform="scale(0.015625)"/>
       <path id="DejaVuSans-Oblique-3c3" d="M 2219 3044 
Q 1744 3044 1422 2700 
Q 1081 2341 969 1747 
Q 844 1119 1044 756 
Q 1241 397 1706 397 
Q 2166 397 2503 759 
Q 2844 1122 2966 1747 
Q 3075 2319 2881 2700 
Q 2700 3044 2219 3044 
z
M 2309 3503 
L 4219 3500 
L 4106 2925 
L 3463 2925 
Q 3706 2438 3575 1747 
Q 3406 888 2884 400 
Q 2359 -91 1609 -91 
Q 856 -91 525 400 
Q 194 888 363 1747 
Q 528 2609 1050 3097 
Q 1484 3503 2309 3503 
z
" transform="scale(0.015625)"/>
       <path id="DejaVuSans-29" d="M 513 4856 
L 1013 4856 
Q 1481 4119 1714 3412 
Q 1947 2706 1947 2009 
Q 1947 1309 1714 600 
Q 1481 -109 1013 -844 
L 513 -844 
Q 928 -128 1133 580 
Q 1338 1288 1338 2009 
Q 1338 2731 1133 3434 
Q 928 4138 513 4856 
z
" transform="scale(0.015625)"/>
      </defs>
      <use xlink:href="#DejaVuSans-72" transform="translate(0 0.015625)"/>
      <use xlink:href="#DejaVuSans-65" transform="translate(41.113281 0.015625)"/>
      <use xlink:href="#DejaVuSans-6c" transform="translate(102.636719 0.015625)"/>
      <use xlink:href="#DejaVuSans-61" transform="translate(130.419922 0.015625)"/>
      <use xlink:href="#DejaVuSans-74" transform="translate(191.699219 0.015625)"/>
      <use xlink:href="#DejaVuSans-69" transform="translate(230.908203 0.015625)"/>
      <use xlink:href="#DejaVuSans-76" transform="translate(258.691406 0.015625)"/>
      <use xlink:href="#DejaVuSans-65" transform="translate(317.871094 0.015625)"/>
      <use xlink:href="#DejaVuSans-20" transform="translate(379.394531 0.015625)"/>
      <use xlink:href="#DejaVuSans-64" transform="translate(411.181641 0.015625)"/>
      <use xlink:href="#DejaVuSans-69" transform="translate(474.658203 0.015625)"/>
      <use xlink:href="#DejaVuSans-73" transform="translate(502.441406 0.015625)"/>
      <use xlink:href="#DejaVuSans-74" transform="translate(554.541016 0.015625)"/>
      <use xlink:href="#DejaVuSans-61" transform="translate(593.75 0.015625)"/>
      <use xlink:href="#DejaVuSans-6e" transform="translate(655.029297 0.015625)"/>
      <use xlink:href="#DejaVuSans-63" transform="translate(718.408203 0.015625)"/>
      <use xlink:href="#DejaVuSans-65" transform="translate(773.388672 0.015625)"/>
      <use xlink:href="#DejaVuSans-20" transform="translate(834.912109 0.015625)"/>
      <use xlink:href="#DejaVuSans-66" transform="translate(866.699219 0.015625)"/>
      <use xlink:href="#DejaVuSans-72" transform="translate(901.904297 0.015625)"/>
      <use xlink:href="#DejaVuSans-6f" transform="translate(943.017578 0.015625)"/>
      <use xlink:href="#DejaVuSans-6d" transform="translate(1004.199219 0.015625)"/>
      <use xlink:href="#DejaVuSans-20" transform="translate(1101.611328 0.015625)"/>
      <use xlink:href="#DejaVuSans-52" transform="translate(1133.398438 0.015625)"/>
      <use xlink:href="#DejaVuSans-4f" transform="translate(1202.880859 0.015625)"/>
      <use xlink:href="#DejaVuSans-49" transform="translate(1281.591797 0.015625)"/>
      <use xlink:href="#DejaVuSans-20" transform="translate(1311.083984 0.015625)"/>
      <use xlink:href="#DejaVuSans-63" transform="translate(1342.871094 0.015625)"/>
      <use xlink:href="#DejaVuSans-65" transform="translate(1397.851562 0.015625)"/>
      <use xlink:href="#DejaVuSans-6e" transform="translate(1459.375 0.015625)"/>
      <use xlink:href="#DejaVuSans-74" transform="translate(1522.753906 0.015625)"/>
      <use xlink:href="#DejaVuSans-65" transform="translate(1561.962891 0.015625)"/>
      <use xlink:href="#DejaVuSans-72" transform="translate(1623.486328 0.015625)"/>
      <use xlink:href="#DejaVuSans-20" transform="translate(1664.599609 0.015625)"/>
      <use xlink:href="#DejaVuSans-28" transform="translate(1696.386719 0.015625)"/>
      <use xlink:href="#DejaVuSans-Oblique-3c3" transform="translate(1735.400391 0.015625)"/>
      <use xlink:href="#DejaVuSans-29" transform="translate(1798.779297 0.015625)"/>
     </g>
    </g>
   </g>
   <g id="matplotlib.axis_2">
    <g id="ytick_1">
     <g id="line2d_7">
      <defs>
       <path id="m919bd380d7" d="M 0 0 
L -3.5 0 
" style="stroke: #000000; stroke-width: 0.8"/>
      </defs>
      <g>
       <use xlink:href="#m919bd380d7" x="50" y="376.457143" style="stroke: #000000; stroke-width: 0.8"/>
      </g>
     </g>
     <g id="text_8">
      <!-- −5 -->
      <g transform="translate(28.257812 380.256362) scale(0.1 -0.1)">
       <defs>
        <path id="DejaVuSans-2212" d="M 678 2272 
L 4684 2272 
L 4684 1741 
L 678 1741 
L 678 2272 
z
" transform="scale(0.015625)"/>
       </defs>
       <use xlink:href="#DejaVuSans-2212"/>
       <use xlink:href="#DejaVuSans-35" x="83.789062"/>
      </g>
     </g>
    </g>
    <g id="ytick_2">
     <g id="line2d_8">
      <g>
       <use xlink:href="#m919bd380d7" x="50" y="345.6" style="stroke: #000000; stroke-width: 0.8"/>
      </g>
     </g>
     <g id="text_9">
      <!-- 0 -->
      <g transform="translate(36.6375 349.399219) scale(0.1 -0.1)">
       <use xlink:href="#DejaVuSans-30"/>
      </g>
     </g>
    </g>
    <g id="ytick_3">
     <g id="line2d_9">
      <g>
       <use xlink:href="#m919bd380d7" x="50" y="314.742857" style="stroke: #000000; stroke-width: 0.8"/>
      </g>
     </g>
     <g id="text_10">
      <!-- 5 -->
      <g transform="translate(36.6375 318.542076) scale(0.1 -0.1)">
       <use xlink:href="#DejaVuSans-35"/>
      </g>
     </g>
    </g>
    <g id="text_11">
     <!-- BOLD % change -->
     <g transform="translate(22.594062 377.79625) rotate(-90) scale(0.08 -0.08)">
      <defs>
       <path id="DejaVuSans-42" d="M 1259 2228 
L 1259 519 
L 2272 519 
Q 2781 519 3026 730 
Q 3272 941 3272 1375 
Q 3272 1813 3026 2020 
Q 2781 2228 2272 2228 
L 1259 2228 
z
M 1259 4147 
L 1259 2741 
L 2194 2741 
Q 2656 2741 2882 2914 
Q 3109 3088 3109 3444 
Q 3109 3797 2882 3972 
Q 2656 4147 2194 4147 
L 1259 4147 
z
M 628 4666 
L 2241 4666 
Q 2963 4666 3353 4366 
Q 3744 4066 3744 3513 
Q 3744 3084 3544 2831 
Q 3344 2578 2956 2516 
Q 3422 2416 3680 2098 
Q 3938 1781 3938 1306 
Q 3938 681 3513 340 
Q 3088 0 2303 0 
L 628 0 
L 628 4666 
z
" transform="scale(0.015625)"/>
       <path id="DejaVuSans-4c" d="M 628 4666 
L 1259 4666 
L 1259 531 
L 3531 531 
L 3531 0 
L 628 0 
L 628 4666 
z
" transform="scale(0.015625)"/>
       <path id="DejaVuSans-44" d="M 1259 4147 
L 1259 519 
L 2022 519 
Q 2988 519 3436 956 
Q 3884 1394 3884 2338 
Q 3884 3275 3436 3711 
Q 2988 4147 2022 4147 
L 1259 4147 
z
M 628 4666 
L 1925 4666 
Q 3281 4666 3915 4102 
Q 4550 3538 4550 2338 
Q 4550 1131 3912 565 
Q 3275 0 1925 0 
L 628 0 
L 628 4666 
z
" transform="scale(0.015625)"/>
       <path id="DejaVuSans-25" d="M 4653 2053 
Q 4381 2053 4226 1822 
Q 4072 1591 4072 1178 
Q 4072 772 4226 539 
Q 4381 306 4653 306 
Q 4919 306 5073 539 
Q 5228 772 5228 1178 
Q 5228 1588 5073 1820 
Q 4919 2053 4653 2053 
z
M 4653 2450 
Q 5147 2450 5437 2106 
Q 5728 1763 5728 1178 
Q 5728 594 5436 251 
Q 5144 -91 4653 -91 
Q 4153 -91 3862 251 
Q 3572 594 3572 1178 
Q 3572 1766 3864 2108 
Q 4156 2450 4653 2450 
z
M 1428 4353 
Q 1159 4353 1004 4120 
Q 850 3888 850 3481 
Q 850 3069 1003 2837 
Q 1156 2606 1428 2606 
Q 1700 2606 1854 2837 
Q 2009 3069 2009 3481 
Q 2009 3884 1853 4118 
Q 1697 4353 1428 4353 
z
M 4250 4750 
L 4750 4750 
L 1831 -91 
L 1331 -91 
L 4250 4750 
z
M 1428 4750 
Q 1922 4750 2215 4408 
Q 2509 4066 2509 3481 
Q 2509 2891 2217 2550 
Q 1925 2209 1428 2209 
Q 931 2209 642 2551 
Q 353 2894 353 3481 
Q 353 4063 643 4406 
Q 934 4750 1428 4750 
z
" transform="scale(0.015625)"/>
       <path id="DejaVuSans-68" d="M 3513 2113 
L 3513 0 
L 2938 0 
L 2938 2094 
Q 2938 2591 2744 2837 
Q 2550 3084 2163 3084 
Q 1697 3084 1428 2787 
Q 1159 2491 1159 1978 
L 1159 0 
L 581 0 
L 581 4863 
L 1159 4863 
L 1159 2956 
Q 1366 3272 1645 3428 
Q 1925 3584 2291 3584 
Q 2894 3584 3203 3211 
Q 3513 2838 3513 2113 
z
" transform="scale(0.015625)"/>
       <path id="DejaVuSans-67" d="M 2906 1791 
Q 2906 2416 2648 2759 
Q 2391 3103 1925 3103 
Q 1463 3103 1205 2759 
Q 947 2416 947 1791 
Q 947 1169 1205 825 
Q 1463 481 1925 481 
Q 2391 481 2648 825 
Q 2906 1169 2906 1791 
z
M 3481 434 
Q 3481 -459 3084 -895 
Q 2688 -1331 1869 -1331 
Q 1566 -1331 1297 -1286 
Q 1028 -1241 775 -1147 
L 775 -588 
Q 1028 -725 1275 -790 
Q 1522 -856 1778 -856 
Q 2344 -856 2625 -561 
Q 2906 -266 2906 331 
L 2906 616 
Q 2728 306 2450 153 
Q 2172 0 1784 0 
Q 1141 0 747 490 
Q 353 981 353 1791 
Q 353 2603 747 3093 
Q 1141 3584 1784 3584 
Q 2172 3584 2450 3431 
Q 2728 3278 2906 2969 
L 2906 3500 
L 3481 3500 
L 3481 434 
z
" transform="scale(0.015625)"/>
      </defs>
      <use xlink:href="#DejaVuSans-42"/>
      <use xlink:href="#DejaVuSans-4f" x="66.853516"/>
      <use xlink:href="#DejaVuSans-4c" x="145.564453"/>
      <use xlink:href="#DejaVuSans-44" x="201.277344"/>
      <use xlink:href="#DejaVuSans-20" x="278.279297"/>
      <use xlink:href="#DejaVuSans-25" x="310.066406"/>
      <use xlink:href="#DejaVuSans-20" x="405.085938"/>
      <use xlink:href="#DejaVuSans-63" x="436.873047"/>
      <use xlink:href="#DejaVuSans-68" x="491.853516"/>
      <use xlink:href="#DejaVuSans-61" x="555.232422"/>
      <use xlink:href="#DejaVuSans-6e" x="616.511719"/>
      <use xlink:href="#DejaVuSans-67" x="679.890625"/>
      <use xlink:href="#DejaVuSans-65" x="743.367188"/>
     </g>
    </g>
   </g>
   <g id="line2d_10">
    <path d="M 65.454545 343.491797 
L 70.12987 343.192023 
L 74.805195 342.944702 
L 79.480519 342.504687 
L 84.155844 341.935897 
L 88.831169 342.032038 
L 93.506494 342.288486 
L 98.181818 342.427985 
L 102.857143 342.854737 
L 107.532468 343.175228 
L 112.207792 343.24172 
L 116.883117 343.546467 
L 121.558442 344.183868 
L 126.233766 344.448287 
L 130.909091 344.854093 
L 135.584416 344.76918 
L 140.25974 344.429425 
L 144.935065 344.035992 
L 149.61039 343.797576 
L 154.285714 343.772994 
L 158.961039 343.656727 
L 163.636364 343.526197 
L 168.311688 343.595239 
L 172.987013 343.717534 
L 177.662338 343.92654 
L 182.337662 344.10621 
L 187.012987 344.073214 
L 191.688312 343.929338 
L 196.363636 344.063475 
L 201.038961 344.233076 
L 205.714286 344.640098 
L 210.38961 345.191305 
L 215.064935 345.571195 
L 219.74026 346.028498 
L 224.415584 346.282723 
L 229.090909 346.760402 
L 233.766234 347.327451 
L 238.441558 347.597935 
L 243.116883 347.580556 
L 247.792208 347.524304 
L 252.467532 347.962923 
L 257.142857 348.332395 
L 261.818182 348.421938 
L 266.493506 348.386508 
L 271.168831 348.209894 
L 275.844156 348.167003 
L 280.519481 348.175851 
L 285.194805 348.053307 
L 289.87013 348.566256 
L 294.545455 349.4082 
" clip-path="url(#pc21a85f06d)" style="fill: none; stroke: #9400d3; stroke-width: 1.5; stroke-linecap: square"/>
   </g>
   <g id="line2d_11">
    <path d="M 65.454545 344.122502 
L 70.12987 344.445276 
L 74.805195 345.043051 
L 79.480519 346.44228 
L 84.155844 348.216254 
L 88.831169 350.132818 
L 93.506494 351.257007 
L 98.181818 351.59499 
L 102.857143 350.360889 
L 107.532468 348.388815 
L 112.207792 346.256587 
L 116.883117 344.553807 
L 121.558442 344.54001 
L 126.233766 344.296858 
L 130.909091 344.162879 
L 135.584416 344.134864 
L 140.25974 344.346634 
L 144.935065 344.881274 
L 149.61039 345.135526 
L 154.285714 345.449746 
L 158.961039 345.225259 
L 163.636364 344.298506 
L 168.311688 343.463909 
L 172.987013 343.440093 
L 177.662338 343.299232 
L 182.337662 343.323767 
L 187.012987 342.999428 
L 191.688312 343.682103 
L 196.363636 344.117294 
L 201.038961 343.944005 
L 205.714286 344.024044 
L 210.38961 344.491224 
L 215.064935 344.456527 
L 219.74026 344.581483 
L 224.415584 345.449272 
L 229.090909 346.604208 
L 233.766234 346.746064 
L 238.441558 346.523561 
L 243.116883 345.277693 
L 247.792208 344.368872 
L 252.467532 345.097899 
L 257.142857 346.285174 
L 261.818182 347.109724 
L 266.493506 347.9914 
L 271.168831 348.493844 
L 275.844156 350.063192 
L 280.519481 350.701171 
L 285.194805 350.615201 
L 289.87013 351.110124 
L 294.545455 351.706202 
" clip-path="url(#pc21a85f06d)" style="fill: none; stroke: #9400d3; stroke-opacity: 0.2; stroke-width: 1.5; stroke-linecap: square"/>
   </g>
   <g id="line2d_12">
    <path d="M 65.454545 349.967804 
L 70.12987 349.967804 
L 74.805195 349.847723 
L 79.480519 348.74889 
L 84.155844 347.073359 
L 88.831169 345.410953 
L 93.506494 343.79533 
L 98.181818 342.679376 
L 102.857143 341.531846 
L 107.532468 340.978247 
L 112.207792 339.956819 
L 116.883117 340.615205 
L 121.558442 341.180816 
L 126.233766 340.506058 
L 130.909091 340.259711 
L 135.584416 340.173864 
L 140.25974 339.985906 
L 144.935065 339.811114 
L 149.61039 339.404584 
L 154.285714 338.342805 
L 158.961039 337.247917 
L 163.636364 335.793413 
L 168.311688 334.518181 
L 172.987013 334.043143 
L 177.662338 333.687818 
L 182.337662 333.731209 
L 187.012987 333.990684 
L 191.688312 333.796762 
L 196.363636 334.027762 
L 201.038961 334.964882 
L 205.714286 336.029821 
L 210.38961 337.117508 
L 215.064935 337.821739 
L 219.74026 338.268845 
L 224.415584 338.472683 
L 229.090909 338.613154 
L 233.766234 338.719986 
L 238.441558 338.439072 
L 243.116883 338.383113 
L 247.792208 337.877302 
L 252.467532 337.733303 
L 257.142857 337.917801 
L 261.818182 338.28264 
L 266.493506 337.855608 
L 271.168831 337.009048 
L 275.844156 336.134755 
L 280.519481 334.903102 
L 285.194805 334.490767 
L 289.87013 334.762585 
L 294.545455 335.275827 
" clip-path="url(#pc21a85f06d)" style="fill: none; stroke: #9400d3; stroke-opacity: 0.2; stroke-width: 1.5; stroke-linecap: square"/>
   </g>
   <g id="line2d_13">
    <path d="M 65.454545 349.396576 
L 70.12987 349.153967 
L 74.805195 349.235359 
L 79.480519 349.265564 
L 84.155844 348.631366 
L 88.831169 348.275241 
L 93.506494 347.999371 
L 98.181818 347.214854 
L 102.857143 346.620349 
L 107.532468 346.6177 
L 112.207792 346.336392 
L 116.883117 346.033973 
L 121.558442 346.530872 
L 126.233766 346.907997 
L 130.909091 347.784939 
L 135.584416 348.147844 
L 140.25974 348.663172 
L 144.935065 349.447037 
L 149.61039 350.363895 
L 154.285714 351.02483 
L 158.961039 351.51822 
L 163.636364 351.679211 
L 168.311688 351.794999 
L 172.987013 352.010229 
L 177.662338 352.492058 
L 182.337662 352.806976 
L 187.012987 352.804272 
L 191.688312 352.064122 
L 196.363636 351.603867 
L 201.038961 351.44929 
L 205.714286 350.823909 
L 210.38961 349.389277 
L 215.064935 348.795541 
L 219.74026 349.120356 
L 224.415584 349.637311 
L 229.090909 350.812874 
L 233.766234 351.789432 
L 238.441558 352.540718 
L 243.116883 352.620948 
L 247.792208 352.99895 
L 252.467532 353.095502 
L 257.142857 353.143208 
L 261.818182 352.916725 
L 266.493506 352.749006 
L 271.168831 352.569751 
L 275.844156 351.931706 
L 280.519481 351.199353 
L 285.194805 351.423507 
L 289.87013 353.62474 
L 294.545455 355.230094 
" clip-path="url(#pc21a85f06d)" style="fill: none; stroke: #9400d3; stroke-opacity: 0.2; stroke-width: 1.5; stroke-linecap: square"/>
   </g>
   <g id="line2d_14">
    <path d="M 65.454545 343.239855 
L 70.12987 343.239855 
L 74.805195 343.10487 
L 79.480519 342.777068 
L 84.155844 342.555278 
L 88.831169 342.044987 
L 93.506494 341.090471 
L 98.181818 340.556317 
L 102.857143 340.726129 
L 107.532468 340.64941 
L 112.207792 340.701314 
L 116.883117 340.506437 
L 121.558442 340.97834 
L 126.233766 341.121437 
L 130.909091 341.331614 
L 135.584416 341.063377 
L 140.25974 341.226156 
L 144.935065 342.02358 
L 149.61039 343.098261 
L 154.285714 344.245065 
L 158.961039 345.224824 
L 163.636364 346.304643 
L 168.311688 347.045373 
L 172.987013 347.410223 
L 177.662338 347.459565 
L 182.337662 347.642939 
L 187.012987 347.188971 
L 191.688312 346.499675 
L 196.363636 346.216997 
L 201.038961 346.089064 
L 205.714286 346.124236 
L 210.38961 346.391793 
L 215.064935 346.945325 
L 219.74026 347.955929 
L 224.415584 348.666264 
L 229.090909 348.928314 
L 233.766234 348.533202 
L 238.441558 348.479586 
L 243.116883 348.258862 
L 247.792208 348.017452 
L 252.467532 347.851391 
L 257.142857 347.554026 
L 261.818182 347.240134 
L 266.493506 346.583811 
L 271.168831 345.994286 
L 275.844156 346.139013 
L 280.519481 346.979692 
L 285.194805 347.819036 
L 289.87013 347.773668 
L 294.545455 348.183703 
" clip-path="url(#pc21a85f06d)" style="fill: none; stroke: #9400d3; stroke-opacity: 0.2; stroke-width: 1.5; stroke-linecap: square"/>
   </g>
   <g id="line2d_15">
    <path d="M 65.454545 352.333559 
L 70.12987 352.249586 
L 74.805195 350.75265 
L 79.480519 349.465019 
L 84.155844 348.751671 
L 88.831169 350.080875 
L 93.506494 350.136355 
L 98.181818 349.318972 
L 102.857143 347.873862 
L 107.532468 346.351047 
L 112.207792 345.327412 
L 116.883117 345.210968 
L 121.558442 345.040104 
L 126.233766 344.56096 
L 130.909091 344.447663 
L 135.584416 343.829925 
L 140.25974 343.886422 
L 144.935065 344.233074 
L 149.61039 345.227584 
L 154.285714 346.212109 
L 158.961039 347.580634 
L 163.636364 348.98085 
L 168.311688 350.6296 
L 172.987013 351.004933 
L 177.662338 351.595756 
L 182.337662 352.730011 
L 187.012987 353.225425 
L 191.688312 353.063404 
L 196.363636 352.570864 
L 201.038961 352.497313 
L 205.714286 352.923805 
L 210.38961 353.606603 
L 215.064935 353.421375 
L 219.74026 353.840873 
L 224.415584 354.623185 
L 229.090909 354.316556 
L 233.766234 354.412901 
L 238.441558 353.436864 
L 243.116883 352.420892 
L 247.792208 351.664745 
L 252.467532 351.720131 
L 257.142857 351.87104 
L 261.818182 352.51513 
L 266.493506 353.94679 
L 271.168831 354.970631 
L 275.844156 355.932015 
L 280.519481 356.675578 
L 285.194805 356.111651 
L 289.87013 356.450823 
L 294.545455 356.95022 
" clip-path="url(#pc21a85f06d)" style="fill: none; stroke: #9400d3; stroke-opacity: 0.2; stroke-width: 1.5; stroke-linecap: square"/>
   </g>
   <g id="line2d_16">
    <path d="M 65.454545 347.442315 
L 70.12987 346.637548 
L 74.805195 345.319162 
L 79.480519 344.502425 
L 84.155844 343.814602 
L 88.831169 346.428536 
L 93.506494 349.19029 
L 98.181818 351.591494 
L 102.857143 355.445966 
L 107.532468 359.274815 
L 112.207792 362.239458 
L 116.883117 364.177945 
L 121.558442 365.5268 
L 126.233766 364.427596 
L 130.909091 364.013568 
L 135.584416 362.411512 
L 140.25974 359.933828 
L 144.935065 357.633313 
L 149.61039 353.971021 
L 154.285714 350.913571 
L 158.961039 348.889614 
L 163.636364 347.952507 
L 168.311688 348.330242 
L 172.987013 348.851166 
L 177.662338 349.254281 
L 182.337662 349.863102 
L 187.012987 350.152729 
L 191.688312 349.234153 
L 196.363636 348.381881 
L 201.038961 347.701369 
L 205.714286 347.061343 
L 210.38961 347.321891 
L 215.064935 347.361691 
L 219.74026 347.502598 
L 224.415584 347.257418 
L 229.090909 347.048474 
L 233.766234 346.467108 
L 238.441558 346.01103 
L 243.116883 345.398409 
L 247.792208 344.720627 
L 252.467532 345.935697 
L 257.142857 346.963763 
L 261.818182 347.66236 
L 266.493506 347.685349 
L 271.168831 348.244282 
L 275.844156 348.973341 
L 280.519481 349.808722 
L 285.194805 350.140901 
L 289.87013 350.414565 
L 294.545455 349.956304 
" clip-path="url(#pc21a85f06d)" style="fill: none; stroke: #9400d3; stroke-opacity: 0.2; stroke-width: 1.5; stroke-linecap: square"/>
   </g>
   <g id="line2d_17">
    <path d="M 65.454545 350.046615 
L 70.12987 349.244662 
L 74.805195 349.905105 
L 79.480519 351.833867 
L 84.155844 352.958049 
L 88.831169 354.25859 
L 93.506494 353.876757 
L 98.181818 352.414242 
L 102.857143 350.570989 
L 107.532468 349.288764 
L 112.207792 347.605116 
L 116.883117 347.424194 
L 121.558442 347.355677 
L 126.233766 347.461664 
L 130.909091 347.504629 
L 135.584416 347.233735 
L 140.25974 346.380245 
L 144.935065 344.363665 
L 149.61039 342.494847 
L 154.285714 341.874995 
L 158.961039 342.280557 
L 163.636364 342.715662 
L 168.311688 343.325635 
L 172.987013 344.938414 
L 177.662338 346.692133 
L 182.337662 347.309004 
L 187.012987 347.327576 
L 191.688312 346.992403 
L 196.363636 347.656064 
L 201.038961 347.999678 
L 205.714286 348.778537 
L 210.38961 350.22319 
L 215.064935 351.057588 
L 219.74026 352.228354 
L 224.415584 353.526202 
L 229.090909 354.588115 
L 233.766234 355.687119 
L 238.441558 356.598426 
L 243.116883 356.0482 
L 247.792208 354.393592 
L 252.467532 353.47494 
L 257.142857 352.537437 
L 261.818182 351.69284 
L 266.493506 351.336798 
L 271.168831 351.517977 
L 275.844156 352.076173 
L 280.519481 353.445166 
L 285.194805 354.464635 
L 289.87013 354.772525 
L 294.545455 355.749389 
" clip-path="url(#pc21a85f06d)" style="fill: none; stroke: #9400d3; stroke-opacity: 0.2; stroke-width: 1.5; stroke-linecap: square"/>
   </g>
   <g id="line2d_18">
    <path d="M 65.454545 320.105491 
L 70.12987 321.19272 
L 74.805195 323.587217 
L 79.480519 324.899298 
L 84.155844 324.477099 
L 88.831169 321.950001 
L 93.506494 321.968587 
L 98.181818 322.616085 
L 102.857143 323.979956 
L 107.532468 326.079713 
L 112.207792 328.63229 
L 116.883117 329.93688 
L 121.558442 331.909743 
L 126.233766 334.020268 
L 130.909091 336.166387 
L 135.584416 337.444113 
L 140.25974 337.71561 
L 144.935065 337.837315 
L 149.61039 338.787513 
L 154.285714 340.470458 
L 158.961039 341.672808 
L 163.636364 341.347039 
L 168.311688 341.106655 
L 172.987013 340.470863 
L 177.662338 339.9981 
L 182.337662 339.022284 
L 187.012987 338.710606 
L 191.688312 338.272729 
L 196.363636 338.573152 
L 201.038961 338.828727 
L 205.714286 340.410086 
L 210.38961 342.159887 
L 215.064935 343.205665 
L 219.74026 344.216489 
L 224.415584 344.496062 
L 229.090909 345.016714 
L 233.766234 345.354048 
L 238.441558 344.813111 
L 243.116883 344.255981 
L 247.792208 344.178111 
L 252.467532 344.162139 
L 257.142857 344.812322 
L 261.818182 345.024562 
L 266.493506 344.815561 
L 271.168831 344.272177 
L 275.844156 343.10802 
L 280.519481 341.341014 
L 285.194805 339.977049 
L 289.87013 339.386816 
L 294.545455 339.443707 
" clip-path="url(#pc21a85f06d)" style="fill: none; stroke: #9400d3; stroke-opacity: 0.2; stroke-width: 1.5; stroke-linecap: square"/>
   </g>
   <g id="line2d_19">
    <path d="M 65.454545 339.369196 
L 70.12987 339.265405 
L 74.805195 339.572417 
L 79.480519 339.947631 
L 84.155844 340.492686 
L 88.831169 340.549323 
L 93.506494 340.306387 
L 98.181818 340.317789 
L 102.857143 340.140197 
L 107.532468 339.568868 
L 112.207792 339.589872 
L 116.883117 340.080618 
L 121.558442 341.350656 
L 126.233766 341.985406 
L 130.909091 342.604757 
L 135.584416 342.260731 
L 140.25974 342.038628 
L 144.935065 341.931125 
L 149.61039 342.108626 
L 154.285714 342.10698 
L 158.961039 342.256287 
L 163.636364 342.294099 
L 168.311688 342.099487 
L 172.987013 341.810395 
L 177.662338 341.545989 
L 182.337662 341.45474 
L 187.012987 341.265611 
L 191.688312 341.736307 
L 196.363636 342.02389 
L 201.038961 342.191016 
L 205.714286 342.711836 
L 210.38961 343.35825 
L 215.064935 344.021776 
L 219.74026 344.921715 
L 224.415584 345.77083 
L 229.090909 346.764444 
L 233.766234 347.766422 
L 238.441558 348.594349 
L 243.116883 349.125218 
L 247.792208 349.268218 
L 252.467532 349.487496 
L 257.142857 350.008454 
L 261.818182 350.000383 
L 266.493506 350.23787 
L 271.168831 350.49969 
L 275.844156 351.183893 
L 280.519481 352.099216 
L 285.194805 352.511951 
L 289.87013 352.810153 
L 294.545455 353.148868 
" clip-path="url(#pc21a85f06d)" style="fill: none; stroke: #9400d3; stroke-opacity: 0.2; stroke-width: 1.5; stroke-linecap: square"/>
   </g>
   <g id="line2d_20">
    <path d="M 65.454545 328.389951 
L 70.12987 327.835895 
L 74.805195 326.773937 
L 79.480519 321.763541 
L 84.155844 318.234932 
L 88.831169 319.930234 
L 93.506494 320.838627 
L 98.181818 322.548649 
L 102.857143 325.586772 
L 107.532468 327.02797 
L 112.207792 325.470312 
L 116.883117 324.411203 
L 121.558442 324.692211 
L 126.233766 325.798501 
L 130.909091 328.019745 
L 135.584416 330.547133 
L 140.25974 330.462748 
L 144.935065 329.58305 
L 149.61039 329.530072 
L 154.285714 330.674429 
L 158.961039 330.221886 
L 163.636364 329.983427 
L 168.311688 330.326875 
L 172.987013 331.356053 
L 177.662338 332.701214 
L 182.337662 334.109439 
L 187.012987 333.946688 
L 191.688312 333.364515 
L 196.363636 332.937918 
L 201.038961 333.161195 
L 205.714286 332.886954 
L 210.38961 332.959591 
L 215.064935 332.272862 
L 219.74026 330.598972 
L 224.415584 327.631864 
L 229.090909 326.651333 
L 233.766234 329.03061 
L 238.441558 331.188554 
L 243.116883 333.730068 
L 247.792208 336.98515 
L 252.467532 340.397564 
L 257.142857 341.772072 
L 261.818182 341.299905 
L 266.493506 340.066557 
L 271.168831 338.686901 
L 275.844156 337.882686 
L 280.519481 337.639275 
L 285.194805 336.237714 
L 289.87013 336.82588 
L 294.545455 338.564849 
" clip-path="url(#pc21a85f06d)" style="fill: none; stroke: #9400d3; stroke-opacity: 0.2; stroke-width: 1.5; stroke-linecap: square"/>
   </g>
   <g id="line2d_21">
    <path d="M 65.454545 353.995904 
L 70.12987 351.879531 
L 74.805195 349.250235 
L 79.480519 347.905978 
L 84.155844 346.089575 
L 88.831169 343.290862 
L 93.506494 344.714171 
L 98.181818 345.85507 
L 102.857143 348.565148 
L 107.532468 350.702158 
L 112.207792 353.543349 
L 116.883117 356.059912 
L 121.558442 356.917324 
L 126.233766 357.844408 
L 130.909091 357.099127 
L 135.584416 355.213882 
L 140.25974 354.084329 
L 144.935065 352.651363 
L 149.61039 351.651412 
L 154.285714 350.18794 
L 158.961039 348.105997 
L 163.636364 347.438812 
L 168.311688 346.906672 
L 172.987013 345.557362 
L 177.662338 344.465798 
L 182.337662 343.174838 
L 187.012987 343.193366 
L 191.688312 344.516543 
L 196.363636 346.588538 
L 201.038961 347.737294 
L 205.714286 349.266505 
L 210.38961 350.085144 
L 215.064935 351.923053 
L 219.74026 353.07786 
L 224.415584 353.578859 
L 229.090909 355.020232 
L 233.766234 356.095063 
L 238.441558 356.952018 
L 243.116883 357.866735 
L 247.792208 358.29432 
L 252.467532 358.636089 
L 257.142857 358.791047 
L 261.818182 358.896915 
L 266.493506 358.982835 
L 271.168831 358.05025 
L 275.844156 356.412238 
L 280.519481 355.142067 
L 285.194805 354.793966 
L 289.87013 356.296939 
L 294.545455 359.281033 
" clip-path="url(#pc21a85f06d)" style="fill: none; stroke: #9400d3; stroke-opacity: 0.2; stroke-width: 1.5; stroke-linecap: square"/>
   </g>
   <g id="line2d_22">
    <path d="M 111.272727 382.628571 
L 111.272727 308.571429 
" clip-path="url(#pc21a85f06d)" style="fill: none; stroke-dasharray: 5.55,2.4; stroke-dashoffset: 0; stroke: #000000; stroke-width: 1.5"/>
   </g>
   <g id="line2d_23">
    <path d="M 65.454545 345.6 
L 294.545455 345.6 
" clip-path="url(#pc21a85f06d)" style="fill: none; stroke-dasharray: 5.55,2.4; stroke-dashoffset: 0; stroke: #000000; stroke-width: 1.5"/>
   </g>
   <g id="patch_3">
    <path d="M 50 388.8 
L 50 302.4 
" style="fill: none; stroke: #000000; stroke-width: 0.8; stroke-linejoin: miter; stroke-linecap: square"/>
   </g>
   <g id="patch_4">
    <path d="M 54 392.8 
L 306 392.8 
" style="fill: none; stroke: #000000; stroke-width: 0.8; stroke-linejoin: miter; stroke-linecap: square"/>
   </g>
   <g id="text_12">
    <!-- all depths -->
    <g transform="translate(150.492188 296.4) scale(0.12 -0.12)">
     <defs>
      <path id="DejaVuSans-70" d="M 1159 525 
L 1159 -1331 
L 581 -1331 
L 581 3500 
L 1159 3500 
L 1159 2969 
Q 1341 3281 1617 3432 
Q 1894 3584 2278 3584 
Q 2916 3584 3314 3078 
Q 3713 2572 3713 1747 
Q 3713 922 3314 415 
Q 2916 -91 2278 -91 
Q 1894 -91 1617 61 
Q 1341 213 1159 525 
z
M 3116 1747 
Q 3116 2381 2855 2742 
Q 2594 3103 2138 3103 
Q 1681 3103 1420 2742 
Q 1159 2381 1159 1747 
Q 1159 1113 1420 752 
Q 1681 391 2138 391 
Q 2594 391 2855 752 
Q 3116 1113 3116 1747 
z
" transform="scale(0.015625)"/>
     </defs>
     <use xlink:href="#DejaVuSans-61"/>
     <use xlink:href="#DejaVuSans-6c" x="61.279297"/>
     <use xlink:href="#DejaVuSans-6c" x="89.0625"/>
     <use xlink:href="#DejaVuSans-20" x="116.845703"/>
     <use xlink:href="#DejaVuSans-64" x="148.632812"/>
     <use xlink:href="#DejaVuSans-65" x="212.109375"/>
     <use xlink:href="#DejaVuSans-70" x="273.632812"/>
     <use xlink:href="#DejaVuSans-74" x="337.109375"/>
     <use xlink:href="#DejaVuSans-68" x="376.318359"/>
     <use xlink:href="#DejaVuSans-73" x="439.697266"/>
    </g>
   </g>
   <g id="legend_1">
    <g id="patch_5">
     <path d="M 121.582812 383.8 
L 299 383.8 
Q 301 383.8 301 381.8 
L 301 367.84375 
Q 301 365.84375 299 365.84375 
L 121.582812 365.84375 
Q 119.582812 365.84375 119.582812 367.84375 
L 119.582812 381.8 
Q 119.582812 383.8 121.582812 383.8 
z
" style="fill: #ffffff; opacity: 0.8; stroke: #cccccc; stroke-linejoin: miter"/>
    </g>
    <g id="line2d_24">
     <path d="M 123.582812 373.942187 
L 133.582812 373.942187 
L 143.582812 373.942187 
" style="fill: none; stroke: #9400d3; stroke-width: 1.5; stroke-linecap: square"/>
    </g>
    <g id="text_13">
     <!-- V1_tgt_deep_deveined_iso90 -->
     <g transform="translate(151.582812 377.442187) scale(0.1 -0.1)">
      <defs>
       <path id="DejaVuSans-56" d="M 1831 0 
L 50 4666 
L 709 4666 
L 2188 738 
L 3669 4666 
L 4325 4666 
L 2547 0 
L 1831 0 
z
" transform="scale(0.015625)"/>
       <path id="DejaVuSans-5f" d="M 3263 -1063 
L 3263 -1509 
L -63 -1509 
L -63 -1063 
L 3263 -1063 
z
" transform="scale(0.015625)"/>
       <path id="DejaVuSans-39" d="M 703 97 
L 703 672 
Q 941 559 1184 500 
Q 1428 441 1663 441 
Q 2288 441 2617 861 
Q 2947 1281 2994 2138 
Q 2813 1869 2534 1725 
Q 2256 1581 1919 1581 
Q 1219 1581 811 2004 
Q 403 2428 403 3163 
Q 403 3881 828 4315 
Q 1253 4750 1959 4750 
Q 2769 4750 3195 4129 
Q 3622 3509 3622 2328 
Q 3622 1225 3098 567 
Q 2575 -91 1691 -91 
Q 1453 -91 1209 -44 
Q 966 3 703 97 
z
M 1959 2075 
Q 2384 2075 2632 2365 
Q 2881 2656 2881 3163 
Q 2881 3666 2632 3958 
Q 2384 4250 1959 4250 
Q 1534 4250 1286 3958 
Q 1038 3666 1038 3163 
Q 1038 2656 1286 2365 
Q 1534 2075 1959 2075 
z
" transform="scale(0.015625)"/>
      </defs>
      <use xlink:href="#DejaVuSans-56"/>
      <use xlink:href="#DejaVuSans-31" x="68.408203"/>
      <use xlink:href="#DejaVuSans-5f" x="132.03125"/>
      <use xlink:href="#DejaVuSans-74" x="182.03125"/>
      <use xlink:href="#DejaVuSans-67" x="221.240234"/>
      <use xlink:href="#DejaVuSans-74" x="284.716797"/>
      <use xlink:href="#DejaVuSans-5f" x="323.925781"/>
      <use xlink:href="#DejaVuSans-64" x="373.925781"/>
      <use xlink:href="#DejaVuSans-65" x="437.402344"/>
      <use xlink:href="#DejaVuSans-65" x="498.925781"/>
      <use xlink:href="#DejaVuSans-70" x="560.449219"/>
      <use xlink:href="#DejaVuSans-5f" x="623.925781"/>
      <use xlink:href="#DejaVuSans-64" x="673.925781"/>
      <use xlink:href="#DejaVuSans-65" x="737.402344"/>
      <use xlink:href="#DejaVuSans-76" x="798.925781"/>
      <use xlink:href="#DejaVuSans-65" x="858.105469"/>
      <use xlink:href="#DejaVuSans-69" x="919.628906"/>
      <use xlink:href="#DejaVuSans-6e" x="947.412109"/>
      <use xlink:href="#DejaVuSans-65" x="1010.791016"/>
      <use xlink:href="#DejaVuSans-64" x="1072.314453"/>
      <use xlink:href="#DejaVuSans-5f" x="1135.791016"/>
      <use xlink:href="#DejaVuSans-69" x="1185.791016"/>
      <use xlink:href="#DejaVuSans-73" x="1213.574219"/>
      <use xlink:href="#DejaVuSans-6f" x="1265.673828"/>
      <use xlink:href="#DejaVuSans-39" x="1326.855469"/>
      <use xlink:href="#DejaVuSans-30" x="1390.478516"/>
     </g>
    </g>
   </g>
  </g>
 </g>
 <defs>
  <clipPath id="pc21a85f06d">
   <rect x="54" y="302.4" width="252" height="86.4"/>
  </clipPath>
 </defs>
</svg>
