<?xml version="1.0" encoding="utf-8" standalone="no"?>
<!DOCTYPE svg PUBLIC "-//W3C//DTD SVG 1.1//EN"
  "http://www.w3.org/Graphics/SVG/1.1/DTD/svg11.dtd">
<svg xmlns:xlink="http://www.w3.org/1999/xlink" width="576pt" height="504pt" viewBox="0 0 576 504" xmlns="http://www.w3.org/2000/svg" version="1.1">
 <metadata>
  <rdf:RDF xmlns:dc="http://purl.org/dc/elements/1.1/" xmlns:cc="http://creativecommons.org/ns#" xmlns:rdf="http://www.w3.org/1999/02/22-rdf-syntax-ns#">
   <cc:Work>
    <dc:type rdf:resource="http://purl.org/dc/dcmitype/StillImage"/>
    <dc:date>2026-05-29T13:08:03.701867</dc:date>
    <dc:format>image/svg+xml</dc:format>
    <dc:creator>
     <cc:Agent>
      <dc:title>Matplotlib v3.8.0, https://matplotlib.org/</dc:title>
     </cc:Agent>
    </dc:creator>
   </cc:Work>
  </rdf:RDF>
 </metadata>
 <defs>
  <style type="text/css">*{stroke-linejoin: round; stroke-linecap: butt}</style>
 </defs>
 <g id="figure_1">
  <g id="patch_1">
   <path d="M 0 504 
L 576 504 
L 576 0 
L 0 0 
z
" style="fill: #ffffff"/>
  </g>
  <g id="axes_1">
   <g id="patch_2">
    <path d="M 86.4 241.92 
L 489.6 241.92 
L 489.6 40.32 
L 86.4 40.32 
z
" style="fill: #ffffff"/>
   </g>
   <g id="PolyCollection_1">
    <defs>
     <path id="mb85a75b417" d="M 86.4 -466.520546 
L 86.4 -434.202853 
L 94.628571 -431.93655 
L 102.857143 -429.989893 
L 111.085714 -429.384982 
L 119.314286 -433.224029 
L 127.542857 -436.575795 
L 135.771429 -439.047958 
L 144 -440.289239 
L 152.228571 -440.01698 
L 160.457143 -438.948839 
L 168.685714 -438.482124 
L 176.914286 -437.006148 
L 185.142857 -436.034827 
L 193.371429 -433.780593 
L 201.6 -431.111274 
L 209.828571 -430.557333 
L 218.057143 -428.084465 
L 226.285714 -422.922093 
L 234.514286 -415.863625 
L 242.742857 -407.163551 
L 250.971429 -400.31852 
L 259.2 -398.186131 
L 267.428571 -393.207729 
L 275.657143 -385.78413 
L 283.885714 -378.998189 
L 292.114286 -372.628114 
L 300.342857 -366.11136 
L 308.571429 -360.555322 
L 316.8 -355.410993 
L 325.028571 -350.067307 
L 333.257143 -343.944166 
L 341.485714 -336.568204 
L 349.714286 -330.958134 
L 357.942857 -325.750147 
L 366.171429 -320.802746 
L 374.4 -316.184598 
L 382.628571 -310.325377 
L 390.857143 -304.734896 
L 399.085714 -300.60711 
L 407.314286 -295.254593 
L 415.542857 -289.980791 
L 423.771429 -284.392513 
L 432 -279.279776 
L 440.228571 -274.890701 
L 448.457143 -269.823405 
L 456.685714 -263.672982 
L 464.914286 -255.453397 
L 473.142857 -248.868864 
L 481.371429 -248.097921 
L 489.6 -244.889237 
L 489.6 -298.284453 
L 489.6 -298.284453 
L 481.371429 -299.326772 
L 473.142857 -299.72606 
L 464.914286 -302.82875 
L 456.685714 -307.606021 
L 448.457143 -311.991105 
L 440.228571 -315.38459 
L 432 -318.388087 
L 423.771429 -322.802456 
L 415.542857 -327.921333 
L 407.314286 -333.101037 
L 399.085714 -339.617093 
L 390.857143 -344.471765 
L 382.628571 -351.643867 
L 374.4 -359.695779 
L 366.171429 -364.388501 
L 357.942857 -369.018725 
L 349.714286 -373.687297 
L 341.485714 -377.415481 
L 333.257143 -383.181229 
L 325.028571 -387.016779 
L 316.8 -390.678551 
L 308.571429 -393.929633 
L 300.342857 -397.442816 
L 292.114286 -401.918415 
L 283.885714 -406.258534 
L 275.657143 -412.31187 
L 267.428571 -419.573722 
L 259.2 -425.708937 
L 250.971429 -431.348826 
L 242.742857 -437.649928 
L 234.514286 -443.36618 
L 226.285714 -448.845329 
L 218.057143 -452.939748 
L 209.828571 -456.006078 
L 201.6 -457.717922 
L 193.371429 -460.355522 
L 185.142857 -462.327379 
L 176.914286 -462.820343 
L 168.685714 -463.181219 
L 160.457143 -463.858715 
L 152.228571 -465.055223 
L 144 -465.70994 
L 135.771429 -464.072441 
L 127.542857 -460.916196 
L 119.314286 -459.679099 
L 111.085714 -457.388215 
L 102.857143 -459.435774 
L 94.628571 -462.525072 
L 86.4 -466.520546 
z
" style="stroke: #ff8c00; stroke-opacity: 0.4"/>
    </defs>
    <g clip-path="url(#p543858e10d)">
     <use xlink:href="#mb85a75b417" x="0" y="504" style="fill: #ff8c00; fill-opacity: 0.4; stroke: #ff8c00; stroke-opacity: 0.4"/>
    </g>
   </g>
   <g id="matplotlib.axis_1">
    <g id="xtick_1">
     <g id="line2d_1">
      <defs>
       <path id="m1a9aefa6e8" d="M 0 0 
L 0 3.5 
" style="stroke: #000000; stroke-width: 0.8"/>
      </defs>
      <g>
       <use xlink:href="#m1a9aefa6e8" x="86.4" y="245.92" style="stroke: #000000; stroke-width: 0.8"/>
      </g>
     </g>
    </g>
    <g id="xtick_2">
     <g id="line2d_2">
      <g>
       <use xlink:href="#m1a9aefa6e8" x="167.04" y="245.92" style="stroke: #000000; stroke-width: 0.8"/>
      </g>
     </g>
    </g>
    <g id="xtick_3">
     <g id="line2d_3">
      <g>
       <use xlink:href="#m1a9aefa6e8" x="247.68" y="245.92" style="stroke: #000000; stroke-width: 0.8"/>
      </g>
     </g>
    </g>
    <g id="xtick_4">
     <g id="line2d_4">
      <g>
       <use xlink:href="#m1a9aefa6e8" x="328.32" y="245.92" style="stroke: #000000; stroke-width: 0.8"/>
      </g>
     </g>
    </g>
    <g id="xtick_5">
     <g id="line2d_5">
      <g>
       <use xlink:href="#m1a9aefa6e8" x="408.96" y="245.92" style="stroke: #000000; stroke-width: 0.8"/>
      </g>
     </g>
    </g>
    <g id="xtick_6">
     <g id="line2d_6">
      <g>
       <use xlink:href="#m1a9aefa6e8" x="489.6" y="245.92" style="stroke: #000000; stroke-width: 0.8"/>
      </g>
     </g>
    </g>
   </g>
   <g id="matplotlib.axis_2">
    <g id="ytick_1">
     <g id="line2d_7">
      <defs>
       <path id="m12d2e8d44a" d="M 0 0 
L -3.5 0 
" style="stroke: #000000; stroke-width: 0.8"/>
      </defs>
      <g>
       <use xlink:href="#m12d2e8d44a" x="82.4" y="241.92" style="stroke: #000000; stroke-width: 0.8"/>
      </g>
     </g>
     <g id="text_1">
      <!-- −2.0 -->
      <g transform="translate(51.117187 245.719219) scale(0.1 -0.1)">
       <defs>
        <path id="DejaVuSans-2212" d="M 678 2272 
L 4684 2272 
L 4684 1741 
L 678 1741 
L 678 2272 
z
" transform="scale(0.015625)"/>
        <path id="DejaVuSans-32" d="M 1228 531 
L 3431 531 
L 3431 0 
L 469 0 
L 469 531 
Q 828 903 1448 1529 
Q 2069 2156 2228 2338 
Q 2531 2678 2651 2914 
Q 2772 3150 2772 3378 
Q 2772 3750 2511 3984 
Q 2250 4219 1831 4219 
Q 1534 4219 1204 4116 
Q 875 4013 500 3803 
L 500 4441 
Q 881 4594 1212 4672 
Q 1544 4750 1819 4750 
Q 2544 4750 2975 4387 
Q 3406 4025 3406 3419 
Q 3406 3131 3298 2873 
Q 3191 2616 2906 2266 
Q 2828 2175 2409 1742 
Q 1991 1309 1228 531 
z
" transform="scale(0.015625)"/>
        <path id="DejaVuSans-2e" d="M 684 794 
L 1344 794 
L 1344 0 
L 684 0 
L 684 794 
z
" transform="scale(0.015625)"/>
        <path id="DejaVuSans-30" d="M 2034 4250 
Q 1547 4250 1301 3770 
Q 1056 3291 1056 2328 
Q 1056 1369 1301 889 
Q 1547 409 2034 409 
Q 2525 409 2770 889 
Q 3016 1369 3016 2328 
Q 3016 3291 2770 3770 
Q 2525 4250 2034 4250 
z
M 2034 4750 
Q 2819 4750 3233 4129 
Q 3647 3509 3647 2328 
Q 3647 1150 3233 529 
Q 2819 -91 2034 -91 
Q 1250 -91 836 529 
Q 422 1150 422 2328 
Q 422 3509 836 4129 
Q 1250 4750 2034 4750 
z
" transform="scale(0.015625)"/>
       </defs>
       <use xlink:href="#DejaVuSans-2212"/>
       <use xlink:href="#DejaVuSans-32" x="83.789062"/>
       <use xlink:href="#DejaVuSans-2e" x="147.412109"/>
       <use xlink:href="#DejaVuSans-30" x="179.199219"/>
      </g>
     </g>
    </g>
    <g id="ytick_2">
     <g id="line2d_8">
      <g>
       <use xlink:href="#m12d2e8d44a" x="82.4" y="216.72" style="stroke: #000000; stroke-width: 0.8"/>
      </g>
     </g>
     <g id="text_2">
      <!-- −1.5 -->
      <g transform="translate(51.117187 220.519219) scale(0.1 -0.1)">
       <defs>
        <path id="DejaVuSans-31" d="M 794 531 
L 1825 531 
L 1825 4091 
L 703 3866 
L 703 4441 
L 1819 4666 
L 2450 4666 
L 2450 531 
L 3481 531 
L 3481 0 
L 794 0 
L 794 531 
z
" transform="scale(0.015625)"/>
        <path id="DejaVuSans-35" d="M 691 4666 
L 3169 4666 
L 3169 4134 
L 1269 4134 
L 1269 2991 
Q 1406 3038 1543 3061 
Q 1681 3084 1819 3084 
Q 2600 3084 3056 2656 
Q 3513 2228 3513 1497 
Q 3513 744 3044 326 
Q 2575 -91 1722 -91 
Q 1428 -91 1123 -41 
Q 819 9 494 109 
L 494 744 
Q 775 591 1075 516 
Q 1375 441 1709 441 
Q 2250 441 2565 725 
Q 2881 1009 2881 1497 
Q 2881 1984 2565 2268 
Q 2250 2553 1709 2553 
Q 1456 2553 1204 2497 
Q 953 2441 691 2322 
L 691 4666 
z
" transform="scale(0.015625)"/>
       </defs>
       <use xlink:href="#DejaVuSans-2212"/>
       <use xlink:href="#DejaVuSans-31" x="83.789062"/>
       <use xlink:href="#DejaVuSans-2e" x="147.412109"/>
       <use xlink:href="#DejaVuSans-35" x="179.199219"/>
      </g>
     </g>
    </g>
    <g id="ytick_3">
     <g id="line2d_9">
      <g>
       <use xlink:href="#m12d2e8d44a" x="82.4" y="191.52" style="stroke: #000000; stroke-width: 0.8"/>
      </g>
     </g>
     <g id="text_3">
      <!-- −1.0 -->
      <g transform="translate(51.117187 195.319219) scale(0.1 -0.1)">
       <use xlink:href="#DejaVuSans-2212"/>
       <use xlink:href="#DejaVuSans-31" x="83.789062"/>
       <use xlink:href="#DejaVuSans-2e" x="147.412109"/>
       <use xlink:href="#DejaVuSans-30" x="179.199219"/>
      </g>
     </g>
    </g>
    <g id="ytick_4">
     <g id="line2d_10">
      <g>
       <use xlink:href="#m12d2e8d44a" x="82.4" y="166.32" style="stroke: #000000; stroke-width: 0.8"/>
      </g>
     </g>
     <g id="text_4">
      <!-- −0.5 -->
      <g transform="translate(51.117187 170.119219) scale(0.1 -0.1)">
       <use xlink:href="#DejaVuSans-2212"/>
       <use xlink:href="#DejaVuSans-30" x="83.789062"/>
       <use xlink:href="#DejaVuSans-2e" x="147.412109"/>
       <use xlink:href="#DejaVuSans-35" x="179.199219"/>
      </g>
     </g>
    </g>
    <g id="ytick_5">
     <g id="line2d_11">
      <g>
       <use xlink:href="#m12d2e8d44a" x="82.4" y="141.12" style="stroke: #000000; stroke-width: 0.8"/>
      </g>
     </g>
     <g id="text_5">
      <!-- 0.0 -->
      <g transform="translate(59.496875 144.919219) scale(0.1 -0.1)">
       <use xlink:href="#DejaVuSans-30"/>
       <use xlink:href="#DejaVuSans-2e" x="63.623047"/>
       <use xlink:href="#DejaVuSans-30" x="95.410156"/>
      </g>
     </g>
    </g>
    <g id="ytick_6">
     <g id="line2d_12">
      <g>
       <use xlink:href="#m12d2e8d44a" x="82.4" y="115.92" style="stroke: #000000; stroke-width: 0.8"/>
      </g>
     </g>
     <g id="text_6">
      <!-- 0.5 -->
      <g transform="translate(59.496875 119.719219) scale(0.1 -0.1)">
       <use xlink:href="#DejaVuSans-30"/>
       <use xlink:href="#DejaVuSans-2e" x="63.623047"/>
       <use xlink:href="#DejaVuSans-35" x="95.410156"/>
      </g>
     </g>
    </g>
    <g id="ytick_7">
     <g id="line2d_13">
      <g>
       <use xlink:href="#m12d2e8d44a" x="82.4" y="90.72" style="stroke: #000000; stroke-width: 0.8"/>
      </g>
     </g>
     <g id="text_7">
      <!-- 1.0 -->
      <g transform="translate(59.496875 94.519219) scale(0.1 -0.1)">
       <use xlink:href="#DejaVuSans-31"/>
       <use xlink:href="#DejaVuSans-2e" x="63.623047"/>
       <use xlink:href="#DejaVuSans-30" x="95.410156"/>
      </g>
     </g>
    </g>
    <g id="ytick_8">
     <g id="line2d_14">
      <g>
       <use xlink:href="#m12d2e8d44a" x="82.4" y="65.52" style="stroke: #000000; stroke-width: 0.8"/>
      </g>
     </g>
     <g id="text_8">
      <!-- 1.5 -->
      <g transform="translate(59.496875 69.319219) scale(0.1 -0.1)">
       <use xlink:href="#DejaVuSans-31"/>
       <use xlink:href="#DejaVuSans-2e" x="63.623047"/>
       <use xlink:href="#DejaVuSans-35" x="95.410156"/>
      </g>
     </g>
    </g>
    <g id="ytick_9">
     <g id="line2d_15">
      <g>
       <use xlink:href="#m12d2e8d44a" x="82.4" y="40.32" style="stroke: #000000; stroke-width: 0.8"/>
      </g>
     </g>
     <g id="text_9">
      <!-- 2.0 -->
      <g transform="translate(59.496875 44.119219) scale(0.1 -0.1)">
       <use xlink:href="#DejaVuSans-32"/>
       <use xlink:href="#DejaVuSans-2e" x="63.623047"/>
       <use xlink:href="#DejaVuSans-30" x="95.410156"/>
      </g>
     </g>
    </g>
    <g id="text_10">
     <!-- BOLD % change -->
     <g transform="translate(45.453437 173.31625) rotate(-90) scale(0.08 -0.08)">
      <defs>
       <path id="DejaVuSans-42" d="M 1259 2228 
L 1259 519 
L 2272 519 
Q 2781 519 3026 730 
Q 3272 941 3272 1375 
Q 3272 1813 3026 2020 
Q 2781 2228 2272 2228 
L 1259 2228 
z
M 1259 4147 
L 1259 2741 
L 2194 2741 
Q 2656 2741 2882 2914 
Q 3109 3088 3109 3444 
Q 3109 3797 2882 3972 
Q 2656 4147 2194 4147 
L 1259 4147 
z
M 628 4666 
L 2241 4666 
Q 2963 4666 3353 4366 
Q 3744 4066 3744 3513 
Q 3744 3084 3544 2831 
Q 3344 2578 2956 2516 
Q 3422 2416 3680 2098 
Q 3938 1781 3938 1306 
Q 3938 681 3513 340 
Q 3088 0 2303 0 
L 628 0 
L 628 4666 
z
" transform="scale(0.015625)"/>
       <path id="DejaVuSans-4f" d="M 2522 4238 
Q 1834 4238 1429 3725 
Q 1025 3213 1025 2328 
Q 1025 1447 1429 934 
Q 1834 422 2522 422 
Q 3209 422 3611 934 
Q 4013 1447 4013 2328 
Q 4013 3213 3611 3725 
Q 3209 4238 2522 4238 
z
M 2522 4750 
Q 3503 4750 4090 4092 
Q 4678 3434 4678 2328 
Q 4678 1225 4090 567 
Q 3503 -91 2522 -91 
Q 1538 -91 948 565 
Q 359 1222 359 2328 
Q 359 3434 948 4092 
Q 1538 4750 2522 4750 
z
" transform="scale(0.015625)"/>
       <path id="DejaVuSans-4c" d="M 628 4666 
L 1259 4666 
L 1259 531 
L 3531 531 
L 3531 0 
L 628 0 
L 628 4666 
z
" transform="scale(0.015625)"/>
       <path id="DejaVuSans-44" d="M 1259 4147 
L 1259 519 
L 2022 519 
Q 2988 519 3436 956 
Q 3884 1394 3884 2338 
Q 3884 3275 3436 3711 
Q 2988 4147 2022 4147 
L 1259 4147 
z
M 628 4666 
L 1925 4666 
Q 3281 4666 3915 4102 
Q 4550 3538 4550 2338 
Q 4550 1131 3912 565 
Q 3275 0 1925 0 
L 628 0 
L 628 4666 
z
" transform="scale(0.015625)"/>
       <path id="DejaVuSans-20" transform="scale(0.015625)"/>
       <path id="DejaVuSans-25" d="M 4653 2053 
Q 4381 2053 4226 1822 
Q 4072 1591 4072 1178 
Q 4072 772 4226 539 
Q 4381 306 4653 306 
Q 4919 306 5073 539 
Q 5228 772 5228 1178 
Q 5228 1588 5073 1820 
Q 4919 2053 4653 2053 
z
M 4653 2450 
Q 5147 2450 5437 2106 
Q 5728 1763 5728 1178 
Q 5728 594 5436 251 
Q 5144 -91 4653 -91 
Q 4153 -91 3862 251 
Q 3572 594 3572 1178 
Q 3572 1766 3864 2108 
Q 4156 2450 4653 2450 
z
M 1428 4353 
Q 1159 4353 1004 4120 
Q 850 3888 850 3481 
Q 850 3069 1003 2837 
Q 1156 2606 1428 2606 
Q 1700 2606 1854 2837 
Q 2009 3069 2009 3481 
Q 2009 3884 1853 4118 
Q 1697 4353 1428 4353 
z
M 4250 4750 
L 4750 4750 
L 1831 -91 
L 1331 -91 
L 4250 4750 
z
M 1428 4750 
Q 1922 4750 2215 4408 
Q 2509 4066 2509 3481 
Q 2509 2891 2217 2550 
Q 1925 2209 1428 2209 
Q 931 2209 642 2551 
Q 353 2894 353 3481 
Q 353 4063 643 4406 
Q 934 4750 1428 4750 
z
" transform="scale(0.015625)"/>
       <path id="DejaVuSans-63" d="M 3122 3366 
L 3122 2828 
Q 2878 2963 2633 3030 
Q 2388 3097 2138 3097 
Q 1578 3097 1268 2742 
Q 959 2388 959 1747 
Q 959 1106 1268 751 
Q 1578 397 2138 397 
Q 2388 397 2633 464 
Q 2878 531 3122 666 
L 3122 134 
Q 2881 22 2623 -34 
Q 2366 -91 2075 -91 
Q 1284 -91 818 406 
Q 353 903 353 1747 
Q 353 2603 823 3093 
Q 1294 3584 2113 3584 
Q 2378 3584 2631 3529 
Q 2884 3475 3122 3366 
z
" transform="scale(0.015625)"/>
       <path id="DejaVuSans-68" d="M 3513 2113 
L 3513 0 
L 2938 0 
L 2938 2094 
Q 2938 2591 2744 2837 
Q 2550 3084 2163 3084 
Q 1697 3084 1428 2787 
Q 1159 2491 1159 1978 
L 1159 0 
L 581 0 
L 581 4863 
L 1159 4863 
L 1159 2956 
Q 1366 3272 1645 3428 
Q 1925 3584 2291 3584 
Q 2894 3584 3203 3211 
Q 3513 2838 3513 2113 
z
" transform="scale(0.015625)"/>
       <path id="DejaVuSans-61" d="M 2194 1759 
Q 1497 1759 1228 1600 
Q 959 1441 959 1056 
Q 959 750 1161 570 
Q 1363 391 1709 391 
Q 2188 391 2477 730 
Q 2766 1069 2766 1631 
L 2766 1759 
L 2194 1759 
z
M 3341 1997 
L 3341 0 
L 2766 0 
L 2766 531 
Q 2569 213 2275 61 
Q 1981 -91 1556 -91 
Q 1019 -91 701 211 
Q 384 513 384 1019 
Q 384 1609 779 1909 
Q 1175 2209 1959 2209 
L 2766 2209 
L 2766 2266 
Q 2766 2663 2505 2880 
Q 2244 3097 1772 3097 
Q 1472 3097 1187 3025 
Q 903 2953 641 2809 
L 641 3341 
Q 956 3463 1253 3523 
Q 1550 3584 1831 3584 
Q 2591 3584 2966 3190 
Q 3341 2797 3341 1997 
z
" transform="scale(0.015625)"/>
       <path id="DejaVuSans-6e" d="M 3513 2113 
L 3513 0 
L 2938 0 
L 2938 2094 
Q 2938 2591 2744 2837 
Q 2550 3084 2163 3084 
Q 1697 3084 1428 2787 
Q 1159 2491 1159 1978 
L 1159 0 
L 581 0 
L 581 3500 
L 1159 3500 
L 1159 2956 
Q 1366 3272 1645 3428 
Q 1925 3584 2291 3584 
Q 2894 3584 3203 3211 
Q 3513 2838 3513 2113 
z
" transform="scale(0.015625)"/>
       <path id="DejaVuSans-67" d="M 2906 1791 
Q 2906 2416 2648 2759 
Q 2391 3103 1925 3103 
Q 1463 3103 1205 2759 
Q 947 2416 947 1791 
Q 947 1169 1205 825 
Q 1463 481 1925 481 
Q 2391 481 2648 825 
Q 2906 1169 2906 1791 
z
M 3481 434 
Q 3481 -459 3084 -895 
Q 2688 -1331 1869 -1331 
Q 1566 -1331 1297 -1286 
Q 1028 -1241 775 -1147 
L 775 -588 
Q 1028 -725 1275 -790 
Q 1522 -856 1778 -856 
Q 2344 -856 2625 -561 
Q 2906 -266 2906 331 
L 2906 616 
Q 2728 306 2450 153 
Q 2172 0 1784 0 
Q 1141 0 747 490 
Q 353 981 353 1791 
Q 353 2603 747 3093 
Q 1141 3584 1784 3584 
Q 2172 3584 2450 3431 
Q 2728 3278 2906 2969 
L 2906 3500 
L 3481 3500 
L 3481 434 
z
" transform="scale(0.015625)"/>
       <path id="DejaVuSans-65" d="M 3597 1894 
L 3597 1613 
L 953 1613 
Q 991 1019 1311 708 
Q 1631 397 2203 397 
Q 2534 397 2845 478 
Q 3156 559 3463 722 
L 3463 178 
Q 3153 47 2828 -22 
Q 2503 -91 2169 -91 
Q 1331 -91 842 396 
Q 353 884 353 1716 
Q 353 2575 817 3079 
Q 1281 3584 2069 3584 
Q 2775 3584 3186 3129 
Q 3597 2675 3597 1894 
z
M 3022 2063 
Q 3016 2534 2758 2815 
Q 2500 3097 2075 3097 
Q 1594 3097 1305 2825 
Q 1016 2553 972 2059 
L 3022 2063 
z
" transform="scale(0.015625)"/>
      </defs>
      <use xlink:href="#DejaVuSans-42"/>
      <use xlink:href="#DejaVuSans-4f" x="66.853516"/>
      <use xlink:href="#DejaVuSans-4c" x="145.564453"/>
      <use xlink:href="#DejaVuSans-44" x="201.277344"/>
      <use xlink:href="#DejaVuSans-20" x="278.279297"/>
      <use xlink:href="#DejaVuSans-25" x="310.066406"/>
      <use xlink:href="#DejaVuSans-20" x="405.085938"/>
      <use xlink:href="#DejaVuSans-63" x="436.873047"/>
      <use xlink:href="#DejaVuSans-68" x="491.853516"/>
      <use xlink:href="#DejaVuSans-61" x="555.232422"/>
      <use xlink:href="#DejaVuSans-6e" x="616.511719"/>
      <use xlink:href="#DejaVuSans-67" x="679.890625"/>
      <use xlink:href="#DejaVuSans-65" x="743.367188"/>
     </g>
    </g>
   </g>
   <g id="line2d_16">
    <path d="M 86.4 53.6383 
L 94.628571 56.769189 
L 102.857143 59.287167 
L 111.085714 60.613401 
L 119.314286 57.548436 
L 127.542857 55.254004 
L 135.771429 52.4398 
L 144 51.00041 
L 152.228571 51.463899 
L 160.457143 52.596223 
L 168.685714 53.168329 
L 176.914286 54.086755 
L 185.142857 54.818897 
L 193.371429 56.931943 
L 201.6 59.585402 
L 209.828571 60.718294 
L 218.057143 63.487893 
L 226.285714 68.116289 
L 234.514286 74.385098 
L 242.742857 81.593261 
L 250.971429 88.166327 
L 259.2 92.052466 
L 267.428571 97.609274 
L 275.657143 104.952 
L 283.885714 111.371638 
L 292.114286 116.726736 
L 300.342857 122.222912 
L 308.571429 126.757522 
L 316.8 130.955228 
L 325.028571 135.457957 
L 333.257143 140.437302 
L 341.485714 147.008157 
L 349.714286 151.677284 
L 357.942857 156.615564 
L 366.171429 161.404376 
L 374.4 166.059811 
L 382.628571 173.015378 
L 390.857143 179.39667 
L 399.085714 183.887899 
L 407.314286 189.822185 
L 415.542857 195.048938 
L 423.771429 200.402515 
L 432 205.166069 
L 440.228571 208.862355 
L 448.457143 213.092745 
L 456.685714 218.360499 
L 464.914286 224.858927 
L 473.142857 229.702538 
L 481.371429 230.287653 
L 489.6 232.413155 
" clip-path="url(#p543858e10d)" style="fill: none; stroke: #ff8c00; stroke-width: 1.5; stroke-linecap: square"/>
   </g>
   <g id="line2d_17">
    <path d="M 86.4 45.080214 
L 94.628571 45.080214 
L 102.857143 45.080214 
L 111.085714 43.464101 
L 119.314286 37.159567 
L 127.542857 41.013004 
L 135.771429 46.009065 
L 144 43.970401 
L 152.228571 51.070759 
L 160.457143 53.513372 
L 168.685714 64.482394 
L 176.914286 63.666533 
L 185.142857 57.838574 
L 193.371429 59.628735 
L 201.6 61.271033 
L 209.828571 58.038383 
L 218.057143 55.333178 
L 226.285714 54.304585 
L 234.514286 56.153163 
L 242.742857 63.292792 
L 250.971429 74.530997 
L 259.2 77.472667 
L 267.428571 78.521895 
L 275.657143 88.360027 
L 283.885714 90.8548 
L 292.114286 83.311779 
L 300.342857 82.472709 
L 308.571429 72.801443 
L 316.8 54.020142 
L 325.028571 33.799411 
L 333.257143 18.95537 
L 341.485714 10.232396 
L 348.661009 -1 
M 352.09965 -1 
L 357.942857 3.038978 
L 366.171429 12.985111 
L 374.4 23.08175 
L 382.628571 50.884267 
L 390.857143 73.429492 
L 399.085714 83.809287 
L 407.314286 108.368127 
L 415.542857 133.118617 
L 423.771429 153.129162 
L 432 176.2352 
L 440.228571 197.004297 
L 448.457143 208.591631 
L 456.685714 221.738913 
L 464.914286 244.566533 
L 473.142857 266.350258 
L 481.371429 286.001506 
L 489.6 313.017897 
" clip-path="url(#p543858e10d)" style="fill: none; stroke: #ff8c00; stroke-opacity: 0.2; stroke-width: 1.5; stroke-linecap: square"/>
   </g>
   <g id="line2d_18">
    <path d="M 207.79066 -1 
L 209.828571 0.504721 
L 218.057143 7.175336 
L 226.285714 11.678789 
L 234.514286 15.396289 
L 242.742857 13.980724 
L 250.971429 13.609565 
L 259.2 14.199412 
L 267.428571 15.123903 
L 275.657143 12.281009 
L 283.885714 5.029691 
L 288.84877 -1 
M 342.246852 -1 
L 349.714286 4.556857 
L 357.942857 6.749894 
L 366.171429 6.276347 
L 374.4 7.135697 
L 382.628571 11.821064 
L 390.857143 19.088519 
L 399.085714 26.364374 
L 407.314286 29.171141 
L 415.542857 23.950818 
L 423.771429 19.558157 
L 432 13.247082 
L 440.228571 7.314412 
L 448.457143 3.543125 
L 456.685714 1.86148 
L 462.394792 -1 
" clip-path="url(#p543858e10d)" style="fill: none; stroke: #ff8c00; stroke-opacity: 0.2; stroke-width: 1.5; stroke-linecap: square"/>
   </g>
   <g id="line2d_19">
    <path d="M 86.4 71.290505 
L 94.628571 71.290505 
L 102.857143 71.928254 
L 111.085714 74.566635 
L 119.314286 75.277892 
L 127.542857 76.445441 
L 135.771429 80.380211 
L 144 88.643996 
L 152.228571 89.880921 
L 160.457143 91.489705 
L 168.685714 88.381129 
L 176.914286 89.850499 
L 185.142857 90.892706 
L 193.371429 93.645387 
L 201.6 95.867981 
L 209.828571 97.052394 
L 218.057143 97.277872 
L 226.285714 100.5763 
L 234.514286 105.525978 
L 242.742857 109.22838 
L 250.971429 114.751393 
L 259.2 119.787051 
L 267.428571 123.959503 
L 275.657143 129.279394 
L 283.885714 134.063599 
L 292.114286 140.293131 
L 300.342857 149.774681 
L 308.571429 159.849652 
L 316.8 166.995787 
L 325.028571 175.129586 
L 333.257143 180.726274 
L 341.485714 186.675208 
L 349.714286 192.360265 
L 357.942857 194.865627 
L 366.171429 196.966345 
L 374.4 200.526288 
L 382.628571 202.298605 
L 390.857143 205.938885 
L 399.085714 209.094099 
L 407.314286 210.141257 
L 415.542857 211.128501 
L 423.771429 213.172008 
L 432 214.38954 
L 440.228571 215.524107 
L 448.457143 216.036073 
L 456.685714 216.024752 
L 464.914286 215.686118 
L 473.142857 216.094032 
L 481.371429 215.166531 
L 489.6 214.021484 
" clip-path="url(#p543858e10d)" style="fill: none; stroke: #ff8c00; stroke-opacity: 0.2; stroke-width: 1.5; stroke-linecap: square"/>
   </g>
   <g id="line2d_20">
    <path d="M 86.4 127.085366 
L 94.628571 126.836935 
L 102.857143 125.461035 
L 111.085714 123.146838 
L 119.314286 121.542894 
L 127.542857 117.617301 
L 135.771429 109.454432 
L 144 105.998923 
L 152.228571 104.815978 
L 160.457143 106.4998 
L 168.685714 108.777652 
L 176.914286 113.965724 
L 185.142857 121.610747 
L 193.371429 127.788467 
L 201.6 130.790421 
L 209.828571 134.025826 
L 218.057143 144.223883 
L 226.285714 157.721894 
L 234.514286 179.127797 
L 242.742857 209.064173 
L 250.971429 216.847256 
L 259.2 185.667818 
L 267.428571 165.383815 
L 275.657143 154.454743 
L 283.885714 149.145521 
L 292.114286 147.196087 
L 300.342857 145.975898 
L 308.571429 146.905641 
L 316.8 149.550066 
L 325.028571 152.109916 
L 333.257143 156.046106 
L 341.485714 159.565802 
L 349.714286 162.143697 
L 357.942857 164.331429 
L 366.171429 168.453575 
L 374.4 170.042079 
L 382.628571 173.634734 
L 390.857143 174.696944 
L 399.085714 174.237359 
L 407.314286 178.389811 
L 415.542857 184.231643 
L 423.771429 193.776956 
L 432 205.315362 
L 440.228571 216.926791 
L 448.457143 234.285166 
L 456.685714 263.900026 
L 464.914286 310.310378 
L 473.142857 337.383994 
L 481.371429 314.028981 
L 489.6 311.26895 
" clip-path="url(#p543858e10d)" style="fill: none; stroke: #ff8c00; stroke-opacity: 0.2; stroke-width: 1.5; stroke-linecap: square"/>
   </g>
   <g id="line2d_21">
    <path d="M 148.941596 -1 
L 152.228571 1.384731 
L 160.457143 7.345348 
L 168.685714 9.184488 
L 176.914286 7.955441 
L 185.142857 8.969722 
L 193.371429 9.408921 
L 201.6 15.010416 
L 209.828571 19.432444 
L 218.057143 25.325754 
L 226.285714 30.409491 
L 234.514286 37.577141 
L 242.742857 43.362079 
L 250.971429 48.346476 
L 259.2 53.27543 
L 267.428571 58.779501 
L 275.657143 63.804182 
L 283.885714 68.785946 
L 292.114286 74.514406 
L 300.342857 79.258278 
L 308.571429 86.033134 
L 316.8 93.178252 
L 325.028571 99.540282 
L 333.257143 105.773803 
L 341.485714 111.842814 
L 349.714286 117.035503 
L 357.942857 121.628673 
L 366.171429 126.803309 
L 374.4 138.145501 
L 382.628571 150.836333 
L 390.857143 158.456356 
L 399.085714 164.523513 
L 407.314286 168.937094 
L 415.542857 171.767707 
L 423.771429 175.422853 
L 432 178.126227 
L 440.228571 175.449499 
L 448.457143 172.829275 
L 456.685714 172.557433 
L 464.914286 170.929312 
L 473.142857 168.17367 
L 481.371429 165.593801 
L 489.6 161.760599 
" clip-path="url(#p543858e10d)" style="fill: none; stroke: #ff8c00; stroke-opacity: 0.2; stroke-width: 1.5; stroke-linecap: square"/>
   </g>
   <g id="line2d_22">
    <path d="M 86.4 126.828088 
L 94.628571 126.230334 
L 102.857143 123.572813 
L 111.085714 120.230216 
L 119.314286 110.365116 
L 127.542857 105.33337 
L 135.771429 101.240988 
L 144 99.670072 
L 152.228571 92.128787 
L 160.457143 83.378213 
L 168.685714 75.993315 
L 176.914286 69.875453 
L 185.142857 62.874265 
L 193.371429 58.727786 
L 201.6 59.001843 
L 209.828571 53.773882 
L 218.057143 48.080897 
L 226.285714 48.886741 
L 234.514286 58.668864 
L 242.742857 66.675787 
L 250.971429 73.392243 
L 259.2 87.633772 
L 267.428571 99.879689 
L 275.657143 112.0918 
L 283.885714 122.657083 
L 292.114286 132.126658 
L 300.342857 141.611921 
L 308.571429 149.103421 
L 316.8 155.564403 
L 325.028571 158.582424 
L 333.257143 160.039921 
L 341.485714 161.813493 
L 349.714286 166.464192 
L 357.942857 173.396547 
L 366.171429 183.879189 
L 374.4 193.670818 
L 382.628571 204.05269 
L 390.857143 212.661754 
L 399.085714 218.530582 
L 407.314286 220.657704 
L 415.542857 223.378251 
L 423.771429 223.183857 
L 432 222.459035 
L 440.228571 223.280247 
L 448.457143 221.357213 
L 456.685714 217.138801 
L 464.914286 212.782779 
L 473.142857 206.705758 
L 481.371429 198.155377 
L 489.6 182.475628 
" clip-path="url(#p543858e10d)" style="fill: none; stroke: #ff8c00; stroke-opacity: 0.2; stroke-width: 1.5; stroke-linecap: square"/>
   </g>
   <g id="line2d_23">
    <path d="M 86.4 133.930453 
L 94.628571 132.653823 
L 102.857143 130.562423 
L 111.085714 129.20987 
L 119.314286 119.244139 
L 127.542857 113.460056 
L 135.771429 122.235081 
L 144 118.500359 
L 152.228571 119.368865 
L 160.457143 124.81169 
L 168.685714 125.146127 
L 176.914286 136.020086 
L 185.142857 140.886066 
L 193.371429 145.007784 
L 201.6 150.243493 
L 209.828571 143.868048 
L 218.057143 141.030481 
L 226.285714 147.702826 
L 234.514286 151.859421 
L 242.742857 156.874091 
L 250.971429 163.432862 
L 259.2 170.330062 
L 267.428571 183.212715 
L 275.657143 196.222143 
L 283.885714 202.326098 
L 292.114286 209.110981 
L 300.342857 210.537677 
L 308.571429 209.03438 
L 316.8 209.152893 
L 325.028571 209.131894 
L 333.257143 218.638316 
L 341.485714 222.90505 
L 349.714286 222.372925 
L 357.942857 226.708644 
L 366.171429 231.743197 
L 374.4 236.714119 
L 382.628571 239.765702 
L 390.857143 246.665515 
L 399.085714 251.872714 
L 407.314286 257.552265 
L 415.542857 262.042074 
L 423.771429 267.70207 
L 432 268.975664 
L 440.228571 269.072267 
L 448.457143 269.846972 
L 456.685714 276.706953 
L 464.914286 285.234844 
L 473.142857 294.294108 
L 481.371429 306.085848 
L 489.6 319.46155 
" clip-path="url(#p543858e10d)" style="fill: none; stroke: #ff8c00; stroke-opacity: 0.2; stroke-width: 1.5; stroke-linecap: square"/>
   </g>
   <g id="line2d_24">
    <path d="M 86.4 59.790212 
L 94.628571 61.460639 
L 102.857143 65.133437 
L 111.085714 69.559147 
L 119.314286 70.218366 
L 127.542857 65.616226 
L 135.771429 60.246829 
L 144 57.067171 
L 152.228571 52.033504 
L 160.457143 50.902857 
L 168.685714 52.281697 
L 176.914286 51.347122 
L 185.142857 50.570461 
L 193.371429 50.606541 
L 201.6 48.689229 
L 209.828571 46.237745 
L 218.057143 45.018639 
L 226.285714 43.470582 
L 234.514286 44.426454 
L 242.742857 53.808084 
L 250.971429 68.355489 
L 259.2 84.532633 
L 267.428571 100.170453 
L 275.657143 113.426088 
L 283.885714 125.822029 
L 292.114286 138.690068 
L 300.342857 151.4754 
L 308.571429 162.757398 
L 316.8 172.758529 
L 325.028571 182.611895 
L 333.257143 194.317749 
L 341.485714 204.978082 
L 349.714286 213.832569 
L 357.942857 221.380492 
L 366.171429 226.658997 
L 374.4 230.519292 
L 382.628571 235.049391 
L 390.857143 241.887891 
L 399.085714 248.375365 
L 407.314286 255.53663 
L 415.542857 261.892818 
L 423.771429 267.39838 
L 432 273.094166 
L 440.228571 281.515836 
L 448.457143 287.373148 
L 456.685714 289.244433 
L 464.914286 291.301608 
L 473.142857 295.847281 
L 481.371429 300.370225 
L 489.6 303.885552 
" clip-path="url(#p543858e10d)" style="fill: none; stroke: #ff8c00; stroke-opacity: 0.2; stroke-width: 1.5; stroke-linecap: square"/>
   </g>
   <g id="line2d_25">
    <path d="M 86.4 81.090907 
L 94.628571 82.93548 
L 102.857143 88.023462 
L 111.085714 87.630333 
L 119.314286 82.976848 
L 127.542857 69.678838 
L 135.771429 61.188674 
L 144 60.752202 
L 152.228571 66.890095 
L 160.457143 69.120506 
L 168.685714 66.03323 
L 176.914286 66.465464 
L 185.142857 67.098317 
L 193.371429 66.173817 
L 201.6 69.647192 
L 209.828571 75.58892 
L 218.057143 79.002669 
L 226.285714 85.642767 
L 234.514286 92.715052 
L 242.742857 101.865608 
L 250.971429 110.898109 
L 259.2 121.108034 
L 267.428571 132.193628 
L 275.657143 142.026174 
L 283.885714 151.056916 
L 292.114286 158.614976 
L 300.342857 169.04637 
L 308.571429 181.233392 
L 316.8 192.633197 
L 325.028571 203.034813 
L 333.257143 211.712105 
L 341.485714 224.525865 
L 349.714286 235.925361 
L 357.942857 247.24113 
L 366.171429 256.880313 
L 374.4 264.358247 
L 382.628571 268.549403 
L 390.857143 271.401673 
L 399.085714 274.47436 
L 407.314286 277.498085 
L 415.542857 279.992104 
L 423.771429 283.826818 
L 432 287.190838 
L 440.228571 290.906732 
L 448.457143 296.519683 
L 456.685714 299.591991 
L 464.914286 300.111457 
L 473.142857 301.583887 
L 481.371429 305.198714 
L 489.6 305.66079 
" clip-path="url(#p543858e10d)" style="fill: none; stroke: #ff8c00; stroke-opacity: 0.2; stroke-width: 1.5; stroke-linecap: square"/>
   </g>
   <g id="line2d_26">
    <path d="M 86.4 59.931863 
L 94.628571 63.657584 
L 102.857143 65.283811 
L 111.085714 60.678654 
L 119.314286 51.399114 
L 127.542857 45.395284 
L 135.771429 42.98108 
L 144 45.978701 
L 152.228571 48.267973 
L 160.457143 50.439467 
L 168.685714 53.88788 
L 176.914286 54.587176 
L 185.142857 57.349613 
L 193.371429 62.211879 
L 201.6 64.339784 
L 209.828571 66.11907 
L 218.057143 69.06834 
L 226.285714 72.428118 
L 234.514286 74.021471 
L 242.742857 74.618754 
L 250.971429 76.583866 
L 259.2 80.937678 
L 267.428571 88.841233 
L 275.657143 98.702161 
L 283.885714 110.117231 
L 292.114286 123.049369 
L 300.342857 134.446208 
L 308.571429 142.738405 
L 316.8 151.453074 
L 325.028571 159.756991 
L 333.257143 166.808166 
L 341.485714 174.98758 
L 349.714286 176.984874 
L 357.942857 175.320181 
L 366.171429 172.680865 
L 374.4 170.13953 
L 382.628571 170.326315 
L 390.857143 172.65059 
L 399.085714 175.584937 
L 407.314286 178.843517 
L 415.542857 181.065282 
L 423.771429 186.268804 
L 432 190.836504 
L 440.228571 191.119483 
L 448.457143 191.756146 
L 456.685714 191.542247 
L 464.914286 191.221215 
L 473.142857 194.494083 
L 481.371429 198.301643 
L 489.6 201.686826 
" clip-path="url(#p543858e10d)" style="fill: none; stroke: #ff8c00; stroke-opacity: 0.2; stroke-width: 1.5; stroke-linecap: square"/>
   </g>
   <g id="line2d_27">
    <path d="M 91.09622 -1 
L 94.628571 14.851907 
L 102.857143 35.577256 
L 111.085714 43.72177 
L 119.314286 42.300393 
L 127.542857 35.952481 
L 135.771429 21.959727 
L 144 14.666391 
L 152.228571 13.572422 
L 160.457143 13.52853 
L 168.685714 15.351993 
L 176.914286 16.003184 
L 185.142857 14.463896 
L 193.371429 15.427706 
L 201.6 17.122129 
L 209.828571 21.282107 
L 218.057143 31.671274 
L 226.285714 39.616218 
L 234.514286 44.68594 
L 242.742857 44.783835 
L 250.971429 45.980245 
L 259.2 51.725844 
L 267.428571 61.741864 
L 275.657143 74.825793 
L 283.885714 91.276707 
L 292.114286 104.051129 
L 300.342857 114.484589 
L 308.571429 121.378397 
L 316.8 126.037645 
L 325.028571 135.0528 
L 333.257143 137.030564 
L 341.485714 147.56435 
L 349.714286 158.495449 
L 357.942857 163.473984 
L 366.171429 163.348286 
L 374.4 162.762863 
L 382.628571 167.956 
L 390.857143 171.229064 
L 399.085714 173.715364 
L 407.314286 182.400981 
L 415.542857 188.782669 
L 423.771429 195.976064 
L 432 201.593399 
L 440.228571 200.744658 
L 448.457143 201.359935 
L 456.685714 202.443546 
L 464.914286 199.716784 
L 473.142857 200.592814 
L 481.371429 198.85606 
L 489.6 196.623035 
" clip-path="url(#p543858e10d)" style="fill: none; stroke: #ff8c00; stroke-opacity: 0.2; stroke-width: 1.5; stroke-linecap: square"/>
   </g>
   <g id="line2d_28">
    <path d="M 106.986576 -1 
L 111.085714 3.613807 
L 119.314286 7.514282 
L 127.542857 5.203074 
L 132.671442 -1 
M 190.621317 -1 
L 193.371429 1.538467 
L 201.6 8.612266 
L 209.828571 12.695993 
L 218.057143 18.646394 
L 226.285714 24.957156 
L 234.514286 32.463603 
L 242.742857 41.564822 
L 250.971429 51.267427 
L 259.2 57.959191 
L 267.428571 63.503089 
L 275.657143 73.950486 
L 283.885714 85.324038 
L 292.114286 94.729567 
L 300.342857 102.344181 
L 308.571429 110.658552 
L 316.8 120.703657 
L 325.028571 130.643875 
L 333.257143 144.40099 
L 341.485714 160.573646 
L 349.714286 172.604545 
L 357.942857 181.251189 
L 366.171429 190.176981 
L 374.4 195.621552 
L 382.628571 201.010037 
L 390.857143 204.653353 
L 399.085714 206.072832 
L 407.314286 210.369611 
L 415.542857 219.236769 
L 423.771429 225.415055 
L 432 230.529808 
L 440.228571 237.489928 
L 448.457143 253.61457 
L 456.685714 267.57541 
L 464.914286 278.708903 
L 473.142857 283.834774 
L 481.371429 285.40131 
L 489.6 288.837209 
" clip-path="url(#p543858e10d)" style="fill: none; stroke: #ff8c00; stroke-opacity: 0.2; stroke-width: 1.5; stroke-linecap: square"/>
   </g>
   <g id="line2d_29">
    <path d="M 167.04 241.92 
L 167.04 40.32 
" clip-path="url(#p543858e10d)" style="fill: none; stroke-dasharray: 5.55,2.4; stroke-dashoffset: 0; stroke: #000000; stroke-width: 1.5"/>
   </g>
   <g id="line2d_30">
    <path d="M 86.4 141.12 
L 489.6 141.12 
" clip-path="url(#p543858e10d)" style="fill: none; stroke-dasharray: 5.55,2.4; stroke-dashoffset: 0; stroke: #000000; stroke-width: 1.5"/>
   </g>
   <g id="patch_3">
    <path d="M 82.4 241.92 
L 82.4 40.32 
" style="fill: none; stroke: #000000; stroke-width: 0.8; stroke-linejoin: miter; stroke-linecap: square"/>
   </g>
   <g id="patch_4">
    <path d="M 86.4 245.92 
L 489.6 245.92 
" style="fill: none; stroke: #000000; stroke-width: 0.8; stroke-linejoin: miter; stroke-linecap: square"/>
   </g>
   <g id="text_11">
    <!-- all depths -->
    <g transform="translate(268.328125 34.32) scale(0.08 -0.08)">
     <defs>
      <path id="DejaVuSans-6c" d="M 603 4863 
L 1178 4863 
L 1178 0 
L 603 0 
L 603 4863 
z
" transform="scale(0.015625)"/>
      <path id="DejaVuSans-64" d="M 2906 2969 
L 2906 4863 
L 3481 4863 
L 3481 0 
L 2906 0 
L 2906 525 
Q 2725 213 2448 61 
Q 2172 -91 1784 -91 
Q 1150 -91 751 415 
Q 353 922 353 1747 
Q 353 2572 751 3078 
Q 1150 3584 1784 3584 
Q 2172 3584 2448 3432 
Q 2725 3281 2906 2969 
z
M 947 1747 
Q 947 1113 1208 752 
Q 1469 391 1925 391 
Q 2381 391 2643 752 
Q 2906 1113 2906 1747 
Q 2906 2381 2643 2742 
Q 2381 3103 1925 3103 
Q 1469 3103 1208 2742 
Q 947 2381 947 1747 
z
" transform="scale(0.015625)"/>
      <path id="DejaVuSans-70" d="M 1159 525 
L 1159 -1331 
L 581 -1331 
L 581 3500 
L 1159 3500 
L 1159 2969 
Q 1341 3281 1617 3432 
Q 1894 3584 2278 3584 
Q 2916 3584 3314 3078 
Q 3713 2572 3713 1747 
Q 3713 922 3314 415 
Q 2916 -91 2278 -91 
Q 1894 -91 1617 61 
Q 1341 213 1159 525 
z
M 3116 1747 
Q 3116 2381 2855 2742 
Q 2594 3103 2138 3103 
Q 1681 3103 1420 2742 
Q 1159 2381 1159 1747 
Q 1159 1113 1420 752 
Q 1681 391 2138 391 
Q 2594 391 2855 752 
Q 3116 1113 3116 1747 
z
" transform="scale(0.015625)"/>
      <path id="DejaVuSans-74" d="M 1172 4494 
L 1172 3500 
L 2356 3500 
L 2356 3053 
L 1172 3053 
L 1172 1153 
Q 1172 725 1289 603 
Q 1406 481 1766 481 
L 2356 481 
L 2356 0 
L 1766 0 
Q 1100 0 847 248 
Q 594 497 594 1153 
L 594 3053 
L 172 3053 
L 172 3500 
L 594 3500 
L 594 4494 
L 1172 4494 
z
" transform="scale(0.015625)"/>
      <path id="DejaVuSans-73" d="M 2834 3397 
L 2834 2853 
Q 2591 2978 2328 3040 
Q 2066 3103 1784 3103 
Q 1356 3103 1142 2972 
Q 928 2841 928 2578 
Q 928 2378 1081 2264 
Q 1234 2150 1697 2047 
L 1894 2003 
Q 2506 1872 2764 1633 
Q 3022 1394 3022 966 
Q 3022 478 2636 193 
Q 2250 -91 1575 -91 
Q 1294 -91 989 -36 
Q 684 19 347 128 
L 347 722 
Q 666 556 975 473 
Q 1284 391 1588 391 
Q 1994 391 2212 530 
Q 2431 669 2431 922 
Q 2431 1156 2273 1281 
Q 2116 1406 1581 1522 
L 1381 1569 
Q 847 1681 609 1914 
Q 372 2147 372 2553 
Q 372 3047 722 3315 
Q 1072 3584 1716 3584 
Q 2034 3584 2315 3537 
Q 2597 3491 2834 3397 
z
" transform="scale(0.015625)"/>
     </defs>
     <use xlink:href="#DejaVuSans-61"/>
     <use xlink:href="#DejaVuSans-6c" x="61.279297"/>
     <use xlink:href="#DejaVuSans-6c" x="89.0625"/>
     <use xlink:href="#DejaVuSans-20" x="116.845703"/>
     <use xlink:href="#DejaVuSans-64" x="148.632812"/>
     <use xlink:href="#DejaVuSans-65" x="212.109375"/>
     <use xlink:href="#DejaVuSans-70" x="273.632812"/>
     <use xlink:href="#DejaVuSans-74" x="337.109375"/>
     <use xlink:href="#DejaVuSans-68" x="376.318359"/>
     <use xlink:href="#DejaVuSans-73" x="439.697266"/>
    </g>
   </g>
   <g id="legend_1">
    <g id="patch_5">
     <path d="M 413.63125 62.998125 
L 482.6 62.998125 
Q 484.6 62.998125 484.6 60.998125 
L 484.6 47.32 
Q 484.6 45.32 482.6 45.32 
L 413.63125 45.32 
Q 411.63125 45.32 411.63125 47.32 
L 411.63125 60.998125 
Q 411.63125 62.998125 413.63125 62.998125 
z
" style="fill: #ffffff; opacity: 0.8; stroke: #cccccc; stroke-linejoin: miter"/>
    </g>
    <g id="line2d_31">
     <path d="M 415.63125 53.418437 
L 425.63125 53.418437 
L 435.63125 53.418437 
" style="fill: none; stroke: #ff8c00; stroke-width: 1.5; stroke-linecap: square"/>
    </g>
    <g id="text_12">
     <!-- ctr-iso0 -->
     <g transform="translate(443.63125 56.918437) scale(0.1 -0.1)">
      <defs>
       <path id="DejaVuSans-72" d="M 2631 2963 
Q 2534 3019 2420 3045 
Q 2306 3072 2169 3072 
Q 1681 3072 1420 2755 
Q 1159 2438 1159 1844 
L 1159 0 
L 581 0 
L 581 3500 
L 1159 3500 
L 1159 2956 
Q 1341 3275 1631 3429 
Q 1922 3584 2338 3584 
Q 2397 3584 2469 3576 
Q 2541 3569 2628 3553 
L 2631 2963 
z
" transform="scale(0.015625)"/>
       <path id="DejaVuSans-2d" d="M 313 2009 
L 1997 2009 
L 1997 1497 
L 313 1497 
L 313 2009 
z
" transform="scale(0.015625)"/>
       <path id="DejaVuSans-69" d="M 603 3500 
L 1178 3500 
L 1178 0 
L 603 0 
L 603 3500 
z
M 603 4863 
L 1178 4863 
L 1178 4134 
L 603 4134 
L 603 4863 
z
" transform="scale(0.015625)"/>
       <path id="DejaVuSans-6f" d="M 1959 3097 
Q 1497 3097 1228 2736 
Q 959 2375 959 1747 
Q 959 1119 1226 758 
Q 1494 397 1959 397 
Q 2419 397 2687 759 
Q 2956 1122 2956 1747 
Q 2956 2369 2687 2733 
Q 2419 3097 1959 3097 
z
M 1959 3584 
Q 2709 3584 3137 3096 
Q 3566 2609 3566 1747 
Q 3566 888 3137 398 
Q 2709 -91 1959 -91 
Q 1206 -91 779 398 
Q 353 888 353 1747 
Q 353 2609 779 3096 
Q 1206 3584 1959 3584 
z
" transform="scale(0.015625)"/>
      </defs>
      <use xlink:href="#DejaVuSans-63"/>
      <use xlink:href="#DejaVuSans-74" x="54.980469"/>
      <use xlink:href="#DejaVuSans-72" x="94.189453"/>
      <use xlink:href="#DejaVuSans-2d" x="128.927734"/>
      <use xlink:href="#DejaVuSans-69" x="165.011719"/>
      <use xlink:href="#DejaVuSans-73" x="192.794922"/>
      <use xlink:href="#DejaVuSans-6f" x="244.894531"/>
      <use xlink:href="#DejaVuSans-30" x="306.076172"/>
     </g>
    </g>
   </g>
  </g>
  <g id="axes_2">
   <g id="patch_6">
    <path d="M 86.4 443.52 
L 489.6 443.52 
L 489.6 292.32 
L 86.4 292.32 
z
" style="fill: #ffffff"/>
   </g>
   <g id="patch_7">
    <path d="M 90.432 367.92 
L 163.008 367.92 
L 163.008 251.934234 
L 90.432 251.934234 
z
" clip-path="url(#p563a10725d)" style="fill: #ff8c00; opacity: 0.6"/>
   </g>
   <g id="patch_8">
    <path d="M 171.072 367.92 
L 243.648 367.92 
L 243.648 230.959647 
L 171.072 230.959647 
z
" clip-path="url(#p563a10725d)" style="fill: #ff8c00; opacity: 0.6"/>
   </g>
   <g id="patch_9">
    <path d="M 251.712 367.92 
L 324.288 367.92 
L 324.288 303.539529 
L 251.712 303.539529 
z
" clip-path="url(#p563a10725d)" style="fill: #ff8c00; opacity: 0.6"/>
   </g>
   <g id="patch_10">
    <path d="M 332.352 367.92 
L 404.928 367.92 
L 404.928 389.914622 
L 332.352 389.914622 
z
" clip-path="url(#p563a10725d)" style="fill: #ff8c00; opacity: 0.6"/>
   </g>
   <g id="patch_11">
    <path d="M 412.992 367.92 
L 485.568 367.92 
L 485.568 480.019864 
L 412.992 480.019864 
z
" clip-path="url(#p563a10725d)" style="fill: #ff8c00; opacity: 0.6"/>
   </g>
   <g id="matplotlib.axis_3">
    <g id="xtick_7">
     <g id="line2d_32">
      <g>
       <use xlink:href="#m1a9aefa6e8" x="86.4" y="447.52" style="stroke: #000000; stroke-width: 0.8"/>
      </g>
     </g>
     <g id="text_13">
      <!-- 0 -->
      <g transform="translate(83.21875 462.118438) scale(0.1 -0.1)">
       <use xlink:href="#DejaVuSans-30"/>
      </g>
     </g>
    </g>
    <g id="xtick_8">
     <g id="line2d_33">
      <g>
       <use xlink:href="#m1a9aefa6e8" x="167.04" y="447.52" style="stroke: #000000; stroke-width: 0.8"/>
      </g>
     </g>
     <g id="text_14">
      <!-- 1 -->
      <g transform="translate(163.85875 462.118438) scale(0.1 -0.1)">
       <use xlink:href="#DejaVuSans-31"/>
      </g>
     </g>
    </g>
    <g id="xtick_9">
     <g id="line2d_34">
      <g>
       <use xlink:href="#m1a9aefa6e8" x="247.68" y="447.52" style="stroke: #000000; stroke-width: 0.8"/>
      </g>
     </g>
     <g id="text_15">
      <!-- 2 -->
      <g transform="translate(244.49875 462.118438) scale(0.1 -0.1)">
       <use xlink:href="#DejaVuSans-32"/>
      </g>
     </g>
    </g>
    <g id="xtick_10">
     <g id="line2d_35">
      <g>
       <use xlink:href="#m1a9aefa6e8" x="328.32" y="447.52" style="stroke: #000000; stroke-width: 0.8"/>
      </g>
     </g>
     <g id="text_16">
      <!-- 3 -->
      <g transform="translate(325.13875 462.118438) scale(0.1 -0.1)">
       <defs>
        <path id="DejaVuSans-33" d="M 2597 2516 
Q 3050 2419 3304 2112 
Q 3559 1806 3559 1356 
Q 3559 666 3084 287 
Q 2609 -91 1734 -91 
Q 1441 -91 1130 -33 
Q 819 25 488 141 
L 488 750 
Q 750 597 1062 519 
Q 1375 441 1716 441 
Q 2309 441 2620 675 
Q 2931 909 2931 1356 
Q 2931 1769 2642 2001 
Q 2353 2234 1838 2234 
L 1294 2234 
L 1294 2753 
L 1863 2753 
Q 2328 2753 2575 2939 
Q 2822 3125 2822 3475 
Q 2822 3834 2567 4026 
Q 2313 4219 1838 4219 
Q 1578 4219 1281 4162 
Q 984 4106 628 3988 
L 628 4550 
Q 988 4650 1302 4700 
Q 1616 4750 1894 4750 
Q 2613 4750 3031 4423 
Q 3450 4097 3450 3541 
Q 3450 3153 3228 2886 
Q 3006 2619 2597 2516 
z
" transform="scale(0.015625)"/>
       </defs>
       <use xlink:href="#DejaVuSans-33"/>
      </g>
     </g>
    </g>
    <g id="xtick_11">
     <g id="line2d_36">
      <g>
       <use xlink:href="#m1a9aefa6e8" x="408.96" y="447.52" style="stroke: #000000; stroke-width: 0.8"/>
      </g>
     </g>
     <g id="text_17">
      <!-- 4 -->
      <g transform="translate(405.77875 462.118438) scale(0.1 -0.1)">
       <defs>
        <path id="DejaVuSans-34" d="M 2419 4116 
L 825 1625 
L 2419 1625 
L 2419 4116 
z
M 2253 4666 
L 3047 4666 
L 3047 1625 
L 3713 1625 
L 3713 1100 
L 3047 1100 
L 3047 0 
L 2419 0 
L 2419 1100 
L 313 1100 
L 313 1709 
L 2253 4666 
z
" transform="scale(0.015625)"/>
       </defs>
       <use xlink:href="#DejaVuSans-34"/>
      </g>
     </g>
    </g>
    <g id="xtick_12">
     <g id="line2d_37">
      <g>
       <use xlink:href="#m1a9aefa6e8" x="489.6" y="447.52" style="stroke: #000000; stroke-width: 0.8"/>
      </g>
     </g>
     <g id="text_18">
      <!-- 5 -->
      <g transform="translate(486.41875 462.118438) scale(0.1 -0.1)">
       <use xlink:href="#DejaVuSans-35"/>
      </g>
     </g>
    </g>
    <g id="text_19">
     <!-- relative distance from ROI center ($\sigma$) -->
     <g transform="translate(214.48 474.276875) scale(0.08 -0.08)">
      <defs>
       <path id="DejaVuSans-76" d="M 191 3500 
L 800 3500 
L 1894 563 
L 2988 3500 
L 3597 3500 
L 2284 0 
L 1503 0 
L 191 3500 
z
" transform="scale(0.015625)"/>
       <path id="DejaVuSans-66" d="M 2375 4863 
L 2375 4384 
L 1825 4384 
Q 1516 4384 1395 4259 
Q 1275 4134 1275 3809 
L 1275 3500 
L 2222 3500 
L 2222 3053 
L 1275 3053 
L 1275 0 
L 697 0 
L 697 3053 
L 147 3053 
L 147 3500 
L 697 3500 
L 697 3744 
Q 697 4328 969 4595 
Q 1241 4863 1831 4863 
L 2375 4863 
z
" transform="scale(0.015625)"/>
       <path id="DejaVuSans-6d" d="M 3328 2828 
Q 3544 3216 3844 3400 
Q 4144 3584 4550 3584 
Q 5097 3584 5394 3201 
Q 5691 2819 5691 2113 
L 5691 0 
L 5113 0 
L 5113 2094 
Q 5113 2597 4934 2840 
Q 4756 3084 4391 3084 
Q 3944 3084 3684 2787 
Q 3425 2491 3425 1978 
L 3425 0 
L 2847 0 
L 2847 2094 
Q 2847 2600 2669 2842 
Q 2491 3084 2119 3084 
Q 1678 3084 1418 2786 
Q 1159 2488 1159 1978 
L 1159 0 
L 581 0 
L 581 3500 
L 1159 3500 
L 1159 2956 
Q 1356 3278 1631 3431 
Q 1906 3584 2284 3584 
Q 2666 3584 2933 3390 
Q 3200 3197 3328 2828 
z
" transform="scale(0.015625)"/>
       <path id="DejaVuSans-52" d="M 2841 2188 
Q 3044 2119 3236 1894 
Q 3428 1669 3622 1275 
L 4263 0 
L 3584 0 
L 2988 1197 
Q 2756 1666 2539 1819 
Q 2322 1972 1947 1972 
L 1259 1972 
L 1259 0 
L 628 0 
L 628 4666 
L 2053 4666 
Q 2853 4666 3247 4331 
Q 3641 3997 3641 3322 
Q 3641 2881 3436 2590 
Q 3231 2300 2841 2188 
z
M 1259 4147 
L 1259 2491 
L 2053 2491 
Q 2509 2491 2742 2702 
Q 2975 2913 2975 3322 
Q 2975 3731 2742 3939 
Q 2509 4147 2053 4147 
L 1259 4147 
z
" transform="scale(0.015625)"/>
       <path id="DejaVuSans-49" d="M 628 4666 
L 1259 4666 
L 1259 0 
L 628 0 
L 628 4666 
z
" transform="scale(0.015625)"/>
       <path id="DejaVuSans-28" d="M 1984 4856 
Q 1566 4138 1362 3434 
Q 1159 2731 1159 2009 
Q 1159 1288 1364 580 
Q 1569 -128 1984 -844 
L 1484 -844 
Q 1016 -109 783 600 
Q 550 1309 550 2009 
Q 550 2706 781 3412 
Q 1013 4119 1484 4856 
L 1984 4856 
z
" transform="scale(0.015625)"/>
       <path id="DejaVuSans-Oblique-3c3" d="M 2219 3044 
Q 1744 3044 1422 2700 
Q 1081 2341 969 1747 
Q 844 1119 1044 756 
Q 1241 397 1706 397 
Q 2166 397 2503 759 
Q 2844 1122 2966 1747 
Q 3075 2319 2881 2700 
Q 2700 3044 2219 3044 
z
M 2309 3503 
L 4219 3500 
L 4106 2925 
L 3463 2925 
Q 3706 2438 3575 1747 
Q 3406 888 2884 400 
Q 2359 -91 1609 -91 
Q 856 -91 525 400 
Q 194 888 363 1747 
Q 528 2609 1050 3097 
Q 1484 3503 2309 3503 
z
" transform="scale(0.015625)"/>
       <path id="DejaVuSans-29" d="M 513 4856 
L 1013 4856 
Q 1481 4119 1714 3412 
Q 1947 2706 1947 2009 
Q 1947 1309 1714 600 
Q 1481 -109 1013 -844 
L 513 -844 
Q 928 -128 1133 580 
Q 1338 1288 1338 2009 
Q 1338 2731 1133 3434 
Q 928 4138 513 4856 
z
" transform="scale(0.015625)"/>
      </defs>
      <use xlink:href="#DejaVuSans-72" transform="translate(0 0.015625)"/>
      <use xlink:href="#DejaVuSans-65" transform="translate(41.113281 0.015625)"/>
      <use xlink:href="#DejaVuSans-6c" transform="translate(102.636719 0.015625)"/>
      <use xlink:href="#DejaVuSans-61" transform="translate(130.419922 0.015625)"/>
      <use xlink:href="#DejaVuSans-74" transform="translate(191.699219 0.015625)"/>
      <use xlink:href="#DejaVuSans-69" transform="translate(230.908203 0.015625)"/>
      <use xlink:href="#DejaVuSans-76" transform="translate(258.691406 0.015625)"/>
      <use xlink:href="#DejaVuSans-65" transform="translate(317.871094 0.015625)"/>
      <use xlink:href="#DejaVuSans-20" transform="translate(379.394531 0.015625)"/>
      <use xlink:href="#DejaVuSans-64" transform="translate(411.181641 0.015625)"/>
      <use xlink:href="#DejaVuSans-69" transform="translate(474.658203 0.015625)"/>
      <use xlink:href="#DejaVuSans-73" transform="translate(502.441406 0.015625)"/>
      <use xlink:href="#DejaVuSans-74" transform="translate(554.541016 0.015625)"/>
      <use xlink:href="#DejaVuSans-61" transform="translate(593.75 0.015625)"/>
      <use xlink:href="#DejaVuSans-6e" transform="translate(655.029297 0.015625)"/>
      <use xlink:href="#DejaVuSans-63" transform="translate(718.408203 0.015625)"/>
      <use xlink:href="#DejaVuSans-65" transform="translate(773.388672 0.015625)"/>
      <use xlink:href="#DejaVuSans-20" transform="translate(834.912109 0.015625)"/>
      <use xlink:href="#DejaVuSans-66" transform="translate(866.699219 0.015625)"/>
      <use xlink:href="#DejaVuSans-72" transform="translate(901.904297 0.015625)"/>
      <use xlink:href="#DejaVuSans-6f" transform="translate(943.017578 0.015625)"/>
      <use xlink:href="#DejaVuSans-6d" transform="translate(1004.199219 0.015625)"/>
      <use xlink:href="#DejaVuSans-20" transform="translate(1101.611328 0.015625)"/>
      <use xlink:href="#DejaVuSans-52" transform="translate(1133.398438 0.015625)"/>
      <use xlink:href="#DejaVuSans-4f" transform="translate(1202.880859 0.015625)"/>
      <use xlink:href="#DejaVuSans-49" transform="translate(1281.591797 0.015625)"/>
      <use xlink:href="#DejaVuSans-20" transform="translate(1311.083984 0.015625)"/>
      <use xlink:href="#DejaVuSans-63" transform="translate(1342.871094 0.015625)"/>
      <use xlink:href="#DejaVuSans-65" transform="translate(1397.851562 0.015625)"/>
      <use xlink:href="#DejaVuSans-6e" transform="translate(1459.375 0.015625)"/>
      <use xlink:href="#DejaVuSans-74" transform="translate(1522.753906 0.015625)"/>
      <use xlink:href="#DejaVuSans-65" transform="translate(1561.962891 0.015625)"/>
      <use xlink:href="#DejaVuSans-72" transform="translate(1623.486328 0.015625)"/>
      <use xlink:href="#DejaVuSans-20" transform="translate(1664.599609 0.015625)"/>
      <use xlink:href="#DejaVuSans-28" transform="translate(1696.386719 0.015625)"/>
      <use xlink:href="#DejaVuSans-Oblique-3c3" transform="translate(1735.400391 0.015625)"/>
      <use xlink:href="#DejaVuSans-29" transform="translate(1798.779297 0.015625)"/>
     </g>
    </g>
   </g>
   <g id="matplotlib.axis_4">
    <g id="ytick_10">
     <g id="line2d_38">
      <g>
       <use xlink:href="#m12d2e8d44a" x="82.4" y="443.52" style="stroke: #000000; stroke-width: 0.8"/>
      </g>
     </g>
     <g id="text_20">
      <!-- −1.0 -->
      <g transform="translate(51.117187 447.319219) scale(0.1 -0.1)">
       <use xlink:href="#DejaVuSans-2212"/>
       <use xlink:href="#DejaVuSans-31" x="83.789062"/>
       <use xlink:href="#DejaVuSans-2e" x="147.412109"/>
       <use xlink:href="#DejaVuSans-30" x="179.199219"/>
      </g>
     </g>
    </g>
    <g id="ytick_11">
     <g id="line2d_39">
      <g>
       <use xlink:href="#m12d2e8d44a" x="82.4" y="405.72" style="stroke: #000000; stroke-width: 0.8"/>
      </g>
     </g>
     <g id="text_21">
      <!-- −0.5 -->
      <g transform="translate(51.117187 409.519219) scale(0.1 -0.1)">
       <use xlink:href="#DejaVuSans-2212"/>
       <use xlink:href="#DejaVuSans-30" x="83.789062"/>
       <use xlink:href="#DejaVuSans-2e" x="147.412109"/>
       <use xlink:href="#DejaVuSans-35" x="179.199219"/>
      </g>
     </g>
    </g>
    <g id="ytick_12">
     <g id="line2d_40">
      <g>
       <use xlink:href="#m12d2e8d44a" x="82.4" y="367.92" style="stroke: #000000; stroke-width: 0.8"/>
      </g>
     </g>
     <g id="text_22">
      <!-- 0.0 -->
      <g transform="translate(59.496875 371.719219) scale(0.1 -0.1)">
       <use xlink:href="#DejaVuSans-30"/>
       <use xlink:href="#DejaVuSans-2e" x="63.623047"/>
       <use xlink:href="#DejaVuSans-30" x="95.410156"/>
      </g>
     </g>
    </g>
    <g id="ytick_13">
     <g id="line2d_41">
      <g>
       <use xlink:href="#m12d2e8d44a" x="82.4" y="330.12" style="stroke: #000000; stroke-width: 0.8"/>
      </g>
     </g>
     <g id="text_23">
      <!-- 0.5 -->
      <g transform="translate(59.496875 333.919219) scale(0.1 -0.1)">
       <use xlink:href="#DejaVuSans-30"/>
       <use xlink:href="#DejaVuSans-2e" x="63.623047"/>
       <use xlink:href="#DejaVuSans-35" x="95.410156"/>
      </g>
     </g>
    </g>
    <g id="ytick_14">
     <g id="line2d_42">
      <g>
       <use xlink:href="#m12d2e8d44a" x="82.4" y="292.32" style="stroke: #000000; stroke-width: 0.8"/>
      </g>
     </g>
     <g id="text_24">
      <!-- 1.0 -->
      <g transform="translate(59.496875 296.119219) scale(0.1 -0.1)">
       <use xlink:href="#DejaVuSans-31"/>
       <use xlink:href="#DejaVuSans-2e" x="63.623047"/>
       <use xlink:href="#DejaVuSans-30" x="95.410156"/>
      </g>
     </g>
    </g>
    <g id="text_25">
     <!-- Binned Avg -->
     <g transform="translate(45.453437 390.525625) rotate(-90) scale(0.08 -0.08)">
      <defs>
       <path id="DejaVuSans-41" d="M 2188 4044 
L 1331 1722 
L 3047 1722 
L 2188 4044 
z
M 1831 4666 
L 2547 4666 
L 4325 0 
L 3669 0 
L 3244 1197 
L 1141 1197 
L 716 0 
L 50 0 
L 1831 4666 
z
" transform="scale(0.015625)"/>
      </defs>
      <use xlink:href="#DejaVuSans-42"/>
      <use xlink:href="#DejaVuSans-69" x="68.603516"/>
      <use xlink:href="#DejaVuSans-6e" x="96.386719"/>
      <use xlink:href="#DejaVuSans-6e" x="159.765625"/>
      <use xlink:href="#DejaVuSans-65" x="223.144531"/>
      <use xlink:href="#DejaVuSans-64" x="284.667969"/>
      <use xlink:href="#DejaVuSans-20" x="348.144531"/>
      <use xlink:href="#DejaVuSans-41" x="379.931641"/>
      <use xlink:href="#DejaVuSans-76" x="442.464844"/>
      <use xlink:href="#DejaVuSans-67" x="501.644531"/>
     </g>
    </g>
   </g>
   <g id="LineCollection_1">
    <path d="M 126.72 272.345025 
L 126.72 231.523443 
" clip-path="url(#p563a10725d)" style="fill: none; stroke: #000000; stroke-width: 1.5"/>
    <path d="M 207.36 250.287889 
L 207.36 211.631405 
" clip-path="url(#p563a10725d)" style="fill: none; stroke: #000000; stroke-width: 1.5"/>
    <path d="M 288 324.064329 
L 288 283.014729 
" clip-path="url(#p563a10725d)" style="fill: none; stroke: #000000; stroke-width: 1.5"/>
    <path d="M 368.64 422.339266 
L 368.64 357.489978 
" clip-path="url(#p563a10725d)" style="fill: none; stroke: #000000; stroke-width: 1.5"/>
    <path d="M 449.28 505 
L 449.28 449.91794 
" clip-path="url(#p563a10725d)" style="fill: none; stroke: #000000; stroke-width: 1.5"/>
   </g>
   <g id="line2d_43">
    <defs>
     <path id="m5074c1f217" d="M 5 0 
L -5 -0 
" style="stroke: #000000"/>
    </defs>
    <g clip-path="url(#p563a10725d)">
     <use xlink:href="#m5074c1f217" x="126.72" y="272.345025" style="stroke: #000000"/>
     <use xlink:href="#m5074c1f217" x="207.36" y="250.287889" style="stroke: #000000"/>
     <use xlink:href="#m5074c1f217" x="288" y="324.064329" style="stroke: #000000"/>
     <use xlink:href="#m5074c1f217" x="368.64" y="422.339266" style="stroke: #000000"/>
     <use xlink:href="#m5074c1f217" x="449.28" y="510.121787" style="stroke: #000000"/>
    </g>
   </g>
   <g id="line2d_44">
    <g clip-path="url(#p563a10725d)">
     <use xlink:href="#m5074c1f217" x="126.72" y="231.523443" style="stroke: #000000"/>
     <use xlink:href="#m5074c1f217" x="207.36" y="211.631405" style="stroke: #000000"/>
     <use xlink:href="#m5074c1f217" x="288" y="283.014729" style="stroke: #000000"/>
     <use xlink:href="#m5074c1f217" x="368.64" y="357.489978" style="stroke: #000000"/>
     <use xlink:href="#m5074c1f217" x="449.28" y="449.91794" style="stroke: #000000"/>
    </g>
   </g>
   <g id="line2d_45">
    <path d="M 86.4 367.92 
L 489.6 367.92 
" clip-path="url(#p563a10725d)" style="fill: none; stroke-dasharray: 5.55,2.4; stroke-dashoffset: 0; stroke: #000000; stroke-width: 1.5"/>
   </g>
   <g id="patch_12">
    <path d="M 82.4 443.52 
L 82.4 292.32 
" style="fill: none; stroke: #000000; stroke-width: 0.8; stroke-linejoin: miter; stroke-linecap: square"/>
   </g>
   <g id="patch_13">
    <path d="M 86.4 447.52 
L 489.6 447.52 
" style="fill: none; stroke: #000000; stroke-width: 0.8; stroke-linejoin: miter; stroke-linecap: square"/>
   </g>
   <g id="text_26">
    <!-- * -->
    <g transform="translate(123.72 229.027818) scale(0.12 -0.12)">
     <defs>
      <path id="DejaVuSans-2a" d="M 3009 3897 
L 1888 3291 
L 3009 2681 
L 2828 2375 
L 1778 3009 
L 1778 1831 
L 1422 1831 
L 1422 3009 
L 372 2375 
L 191 2681 
L 1313 3291 
L 191 3897 
L 372 4206 
L 1422 3572 
L 1422 4750 
L 1778 4750 
L 1778 3572 
L 2828 4206 
L 3009 3897 
z
" transform="scale(0.015625)"/>
     </defs>
     <use xlink:href="#DejaVuSans-2a"/>
    </g>
   </g>
   <g id="text_27">
    <!-- * -->
    <g transform="translate(204.36 209.13578) scale(0.12 -0.12)">
     <use xlink:href="#DejaVuSans-2a"/>
    </g>
   </g>
   <g id="text_28">
    <!-- * -->
    <g transform="translate(285 280.519104) scale(0.12 -0.12)">
     <use xlink:href="#DejaVuSans-2a"/>
    </g>
   </g>
   <g id="text_29">
    <!-- * -->
    <g transform="translate(446.28 447.422315) scale(0.12 -0.12)">
     <use xlink:href="#DejaVuSans-2a"/>
    </g>
   </g>
  </g>
 </g>
 <defs>
  <clipPath id="p543858e10d">
   <rect x="86.4" y="40.32" width="403.2" height="201.6"/>
  </clipPath>
  <clipPath id="p563a10725d">
   <rect x="86.4" y="292.32" width="403.2" height="151.2"/>
  </clipPath>
 </defs>
</svg>
