<?xml version="1.0" encoding="utf-8" standalone="no"?>
<!DOCTYPE svg PUBLIC "-//W3C//DTD SVG 1.1//EN"
  "http://www.w3.org/Graphics/SVG/1.1/DTD/svg11.dtd">
<svg xmlns:xlink="http://www.w3.org/1999/xlink" width="576pt" height="504pt" viewBox="0 0 576 504" xmlns="http://www.w3.org/2000/svg" version="1.1">
 <metadata>
  <rdf:RDF xmlns:dc="http://purl.org/dc/elements/1.1/" xmlns:cc="http://creativecommons.org/ns#" xmlns:rdf="http://www.w3.org/1999/02/22-rdf-syntax-ns#">
   <cc:Work>
    <dc:type rdf:resource="http://purl.org/dc/dcmitype/StillImage"/>
    <dc:date>2026-05-26T10:36:37.421644</dc:date>
    <dc:format>image/svg+xml</dc:format>
    <dc:creator>
     <cc:Agent>
      <dc:title>Matplotlib v3.8.0, https://matplotlib.org/</dc:title>
     </cc:Agent>
    </dc:creator>
   </cc:Work>
  </rdf:RDF>
 </metadata>
 <defs>
  <style type="text/css">*{stroke-linejoin: round; stroke-linecap: butt}</style>
 </defs>
 <g id="figure_1">
  <g id="patch_1">
   <path d="M 0 504 
L 576 504 
L 576 0 
L 0 0 
z
" style="fill: #ffffff"/>
  </g>
  <g id="axes_1">
   <g id="patch_2">
    <path d="M 86.4 241.92 
L 489.6 241.92 
L 489.6 40.32 
L 86.4 40.32 
z
" style="fill: #ffffff"/>
   </g>
   <g id="PolyCollection_1">
    <defs>
     <path id="m2563eec01b" d="M 86.4 -399.595773 
L 86.4 -312.07946 
L 94.628571 -312.600677 
L 102.857143 -312.034775 
L 111.085714 -313.443451 
L 119.314286 -314.057494 
L 127.542857 -310.132714 
L 135.771429 -305.213981 
L 144 -308.872005 
L 152.228571 -314.094867 
L 160.457143 -318.221008 
L 168.685714 -314.650774 
L 176.914286 -312.331374 
L 185.142857 -310.273071 
L 193.371429 -312.633407 
L 201.6 -319.394627 
L 209.828571 -328.223662 
L 218.057143 -327.626708 
L 226.285714 -325.756293 
L 234.514286 -322.802712 
L 242.742857 -321.241614 
L 250.971429 -319.45684 
L 259.2 -316.766669 
L 267.428571 -319.529178 
L 275.657143 -320.78915 
L 283.885714 -325.524383 
L 292.114286 -331.534701 
L 300.342857 -337.067699 
L 308.571429 -338.904071 
L 316.8 -335.907867 
L 325.028571 -334.771493 
L 333.257143 -334.762628 
L 341.485714 -338.121704 
L 349.714286 -339.70787 
L 357.942857 -336.470513 
L 366.171429 -333.918859 
L 374.4 -333.320067 
L 382.628571 -333.523463 
L 390.857143 -337.15312 
L 399.085714 -340.989671 
L 407.314286 -340.650725 
L 415.542857 -337.590291 
L 423.771429 -332.220015 
L 432 -324.052933 
L 440.228571 -317.854868 
L 448.457143 -314.768103 
L 456.685714 -314.073123 
L 464.914286 -312.359387 
L 473.142857 -313.443656 
L 481.371429 -312.858691 
L 489.6 -308.642532 
L 489.6 -378.831337 
L 489.6 -378.831337 
L 481.371429 -379.509198 
L 473.142857 -375.969057 
L 464.914286 -372.314019 
L 456.685714 -374.604448 
L 448.457143 -375.508076 
L 440.228571 -377.656259 
L 432 -382.025101 
L 423.771429 -388.180835 
L 415.542857 -394.092445 
L 407.314286 -398.599125 
L 399.085714 -402.034073 
L 390.857143 -399.979135 
L 382.628571 -397.665063 
L 374.4 -396.806302 
L 366.171429 -396.089984 
L 357.942857 -398.552608 
L 349.714286 -402.849976 
L 341.485714 -404.063319 
L 333.257143 -404.689925 
L 325.028571 -406.579704 
L 316.8 -407.231733 
L 308.571429 -409.615195 
L 300.342857 -407.937635 
L 292.114286 -402.645262 
L 283.885714 -395.512123 
L 275.657143 -389.885577 
L 267.428571 -386.70707 
L 259.2 -383.002609 
L 250.971429 -384.880979 
L 242.742857 -387.605446 
L 234.514286 -389.15436 
L 226.285714 -390.621142 
L 218.057143 -390.975588 
L 209.828571 -388.865454 
L 201.6 -382.711511 
L 193.371429 -378.750742 
L 185.142857 -377.45276 
L 176.914286 -381.621708 
L 168.685714 -385.76107 
L 160.457143 -391.459283 
L 152.228571 -390.520994 
L 144 -386.77515 
L 135.771429 -385.161486 
L 127.542857 -388.079508 
L 119.314286 -389.4823 
L 111.085714 -389.719311 
L 102.857143 -394.260535 
L 94.628571 -398.844283 
L 86.4 -399.595773 
z
" style="stroke: #b200b2; stroke-opacity: 0.4"/>
    </defs>
    <g clip-path="url(#pbc76c9c6ee)">
     <use xlink:href="#m2563eec01b" x="0" y="504" style="fill: #b200b2; fill-opacity: 0.4; stroke: #b200b2; stroke-opacity: 0.4"/>
    </g>
   </g>
   <g id="matplotlib.axis_1">
    <g id="xtick_1">
     <g id="line2d_1">
      <defs>
       <path id="mea71a1ef9d" d="M 0 0 
L 0 3.5 
" style="stroke: #000000; stroke-width: 0.8"/>
      </defs>
      <g>
       <use xlink:href="#mea71a1ef9d" x="86.4" y="245.92" style="stroke: #000000; stroke-width: 0.8"/>
      </g>
     </g>
    </g>
    <g id="xtick_2">
     <g id="line2d_2">
      <g>
       <use xlink:href="#mea71a1ef9d" x="167.04" y="245.92" style="stroke: #000000; stroke-width: 0.8"/>
      </g>
     </g>
    </g>
    <g id="xtick_3">
     <g id="line2d_3">
      <g>
       <use xlink:href="#mea71a1ef9d" x="247.68" y="245.92" style="stroke: #000000; stroke-width: 0.8"/>
      </g>
     </g>
    </g>
    <g id="xtick_4">
     <g id="line2d_4">
      <g>
       <use xlink:href="#mea71a1ef9d" x="328.32" y="245.92" style="stroke: #000000; stroke-width: 0.8"/>
      </g>
     </g>
    </g>
    <g id="xtick_5">
     <g id="line2d_5">
      <g>
       <use xlink:href="#mea71a1ef9d" x="408.96" y="245.92" style="stroke: #000000; stroke-width: 0.8"/>
      </g>
     </g>
    </g>
    <g id="xtick_6">
     <g id="line2d_6">
      <g>
       <use xlink:href="#mea71a1ef9d" x="489.6" y="245.92" style="stroke: #000000; stroke-width: 0.8"/>
      </g>
     </g>
    </g>
   </g>
   <g id="matplotlib.axis_2">
    <g id="ytick_1">
     <g id="line2d_7">
      <defs>
       <path id="m9e181f5f11" d="M 0 0 
L -3.5 0 
" style="stroke: #000000; stroke-width: 0.8"/>
      </defs>
      <g>
       <use xlink:href="#m9e181f5f11" x="82.4" y="241.92" style="stroke: #000000; stroke-width: 0.8"/>
      </g>
     </g>
     <g id="text_1">
      <!-- −2.0 -->
      <g transform="translate(51.117187 245.719219) scale(0.1 -0.1)">
       <defs>
        <path id="DejaVuSans-2212" d="M 678 2272 
L 4684 2272 
L 4684 1741 
L 678 1741 
L 678 2272 
z
" transform="scale(0.015625)"/>
        <path id="DejaVuSans-32" d="M 1228 531 
L 3431 531 
L 3431 0 
L 469 0 
L 469 531 
Q 828 903 1448 1529 
Q 2069 2156 2228 2338 
Q 2531 2678 2651 2914 
Q 2772 3150 2772 3378 
Q 2772 3750 2511 3984 
Q 2250 4219 1831 4219 
Q 1534 4219 1204 4116 
Q 875 4013 500 3803 
L 500 4441 
Q 881 4594 1212 4672 
Q 1544 4750 1819 4750 
Q 2544 4750 2975 4387 
Q 3406 4025 3406 3419 
Q 3406 3131 3298 2873 
Q 3191 2616 2906 2266 
Q 2828 2175 2409 1742 
Q 1991 1309 1228 531 
z
" transform="scale(0.015625)"/>
        <path id="DejaVuSans-2e" d="M 684 794 
L 1344 794 
L 1344 0 
L 684 0 
L 684 794 
z
" transform="scale(0.015625)"/>
        <path id="DejaVuSans-30" d="M 2034 4250 
Q 1547 4250 1301 3770 
Q 1056 3291 1056 2328 
Q 1056 1369 1301 889 
Q 1547 409 2034 409 
Q 2525 409 2770 889 
Q 3016 1369 3016 2328 
Q 3016 3291 2770 3770 
Q 2525 4250 2034 4250 
z
M 2034 4750 
Q 2819 4750 3233 4129 
Q 3647 3509 3647 2328 
Q 3647 1150 3233 529 
Q 2819 -91 2034 -91 
Q 1250 -91 836 529 
Q 422 1150 422 2328 
Q 422 3509 836 4129 
Q 1250 4750 2034 4750 
z
" transform="scale(0.015625)"/>
       </defs>
       <use xlink:href="#DejaVuSans-2212"/>
       <use xlink:href="#DejaVuSans-32" x="83.789062"/>
       <use xlink:href="#DejaVuSans-2e" x="147.412109"/>
       <use xlink:href="#DejaVuSans-30" x="179.199219"/>
      </g>
     </g>
    </g>
    <g id="ytick_2">
     <g id="line2d_8">
      <g>
       <use xlink:href="#m9e181f5f11" x="82.4" y="216.72" style="stroke: #000000; stroke-width: 0.8"/>
      </g>
     </g>
     <g id="text_2">
      <!-- −1.5 -->
      <g transform="translate(51.117187 220.519219) scale(0.1 -0.1)">
       <defs>
        <path id="DejaVuSans-31" d="M 794 531 
L 1825 531 
L 1825 4091 
L 703 3866 
L 703 4441 
L 1819 4666 
L 2450 4666 
L 2450 531 
L 3481 531 
L 3481 0 
L 794 0 
L 794 531 
z
" transform="scale(0.015625)"/>
        <path id="DejaVuSans-35" d="M 691 4666 
L 3169 4666 
L 3169 4134 
L 1269 4134 
L 1269 2991 
Q 1406 3038 1543 3061 
Q 1681 3084 1819 3084 
Q 2600 3084 3056 2656 
Q 3513 2228 3513 1497 
Q 3513 744 3044 326 
Q 2575 -91 1722 -91 
Q 1428 -91 1123 -41 
Q 819 9 494 109 
L 494 744 
Q 775 591 1075 516 
Q 1375 441 1709 441 
Q 2250 441 2565 725 
Q 2881 1009 2881 1497 
Q 2881 1984 2565 2268 
Q 2250 2553 1709 2553 
Q 1456 2553 1204 2497 
Q 953 2441 691 2322 
L 691 4666 
z
" transform="scale(0.015625)"/>
       </defs>
       <use xlink:href="#DejaVuSans-2212"/>
       <use xlink:href="#DejaVuSans-31" x="83.789062"/>
       <use xlink:href="#DejaVuSans-2e" x="147.412109"/>
       <use xlink:href="#DejaVuSans-35" x="179.199219"/>
      </g>
     </g>
    </g>
    <g id="ytick_3">
     <g id="line2d_9">
      <g>
       <use xlink:href="#m9e181f5f11" x="82.4" y="191.52" style="stroke: #000000; stroke-width: 0.8"/>
      </g>
     </g>
     <g id="text_3">
      <!-- −1.0 -->
      <g transform="translate(51.117187 195.319219) scale(0.1 -0.1)">
       <use xlink:href="#DejaVuSans-2212"/>
       <use xlink:href="#DejaVuSans-31" x="83.789062"/>
       <use xlink:href="#DejaVuSans-2e" x="147.412109"/>
       <use xlink:href="#DejaVuSans-30" x="179.199219"/>
      </g>
     </g>
    </g>
    <g id="ytick_4">
     <g id="line2d_10">
      <g>
       <use xlink:href="#m9e181f5f11" x="82.4" y="166.32" style="stroke: #000000; stroke-width: 0.8"/>
      </g>
     </g>
     <g id="text_4">
      <!-- −0.5 -->
      <g transform="translate(51.117187 170.119219) scale(0.1 -0.1)">
       <use xlink:href="#DejaVuSans-2212"/>
       <use xlink:href="#DejaVuSans-30" x="83.789062"/>
       <use xlink:href="#DejaVuSans-2e" x="147.412109"/>
       <use xlink:href="#DejaVuSans-35" x="179.199219"/>
      </g>
     </g>
    </g>
    <g id="ytick_5">
     <g id="line2d_11">
      <g>
       <use xlink:href="#m9e181f5f11" x="82.4" y="141.12" style="stroke: #000000; stroke-width: 0.8"/>
      </g>
     </g>
     <g id="text_5">
      <!-- 0.0 -->
      <g transform="translate(59.496875 144.919219) scale(0.1 -0.1)">
       <use xlink:href="#DejaVuSans-30"/>
       <use xlink:href="#DejaVuSans-2e" x="63.623047"/>
       <use xlink:href="#DejaVuSans-30" x="95.410156"/>
      </g>
     </g>
    </g>
    <g id="ytick_6">
     <g id="line2d_12">
      <g>
       <use xlink:href="#m9e181f5f11" x="82.4" y="115.92" style="stroke: #000000; stroke-width: 0.8"/>
      </g>
     </g>
     <g id="text_6">
      <!-- 0.5 -->
      <g transform="translate(59.496875 119.719219) scale(0.1 -0.1)">
       <use xlink:href="#DejaVuSans-30"/>
       <use xlink:href="#DejaVuSans-2e" x="63.623047"/>
       <use xlink:href="#DejaVuSans-35" x="95.410156"/>
      </g>
     </g>
    </g>
    <g id="ytick_7">
     <g id="line2d_13">
      <g>
       <use xlink:href="#m9e181f5f11" x="82.4" y="90.72" style="stroke: #000000; stroke-width: 0.8"/>
      </g>
     </g>
     <g id="text_7">
      <!-- 1.0 -->
      <g transform="translate(59.496875 94.519219) scale(0.1 -0.1)">
       <use xlink:href="#DejaVuSans-31"/>
       <use xlink:href="#DejaVuSans-2e" x="63.623047"/>
       <use xlink:href="#DejaVuSans-30" x="95.410156"/>
      </g>
     </g>
    </g>
    <g id="ytick_8">
     <g id="line2d_14">
      <g>
       <use xlink:href="#m9e181f5f11" x="82.4" y="65.52" style="stroke: #000000; stroke-width: 0.8"/>
      </g>
     </g>
     <g id="text_8">
      <!-- 1.5 -->
      <g transform="translate(59.496875 69.319219) scale(0.1 -0.1)">
       <use xlink:href="#DejaVuSans-31"/>
       <use xlink:href="#DejaVuSans-2e" x="63.623047"/>
       <use xlink:href="#DejaVuSans-35" x="95.410156"/>
      </g>
     </g>
    </g>
    <g id="ytick_9">
     <g id="line2d_15">
      <g>
       <use xlink:href="#m9e181f5f11" x="82.4" y="40.32" style="stroke: #000000; stroke-width: 0.8"/>
      </g>
     </g>
     <g id="text_9">
      <!-- 2.0 -->
      <g transform="translate(59.496875 44.119219) scale(0.1 -0.1)">
       <use xlink:href="#DejaVuSans-32"/>
       <use xlink:href="#DejaVuSans-2e" x="63.623047"/>
       <use xlink:href="#DejaVuSans-30" x="95.410156"/>
      </g>
     </g>
    </g>
    <g id="text_10">
     <!-- BOLD % change -->
     <g transform="translate(45.453437 173.31625) rotate(-90) scale(0.08 -0.08)">
      <defs>
       <path id="DejaVuSans-42" d="M 1259 2228 
L 1259 519 
L 2272 519 
Q 2781 519 3026 730 
Q 3272 941 3272 1375 
Q 3272 1813 3026 2020 
Q 2781 2228 2272 2228 
L 1259 2228 
z
M 1259 4147 
L 1259 2741 
L 2194 2741 
Q 2656 2741 2882 2914 
Q 3109 3088 3109 3444 
Q 3109 3797 2882 3972 
Q 2656 4147 2194 4147 
L 1259 4147 
z
M 628 4666 
L 2241 4666 
Q 2963 4666 3353 4366 
Q 3744 4066 3744 3513 
Q 3744 3084 3544 2831 
Q 3344 2578 2956 2516 
Q 3422 2416 3680 2098 
Q 3938 1781 3938 1306 
Q 3938 681 3513 340 
Q 3088 0 2303 0 
L 628 0 
L 628 4666 
z
" transform="scale(0.015625)"/>
       <path id="DejaVuSans-4f" d="M 2522 4238 
Q 1834 4238 1429 3725 
Q 1025 3213 1025 2328 
Q 1025 1447 1429 934 
Q 1834 422 2522 422 
Q 3209 422 3611 934 
Q 4013 1447 4013 2328 
Q 4013 3213 3611 3725 
Q 3209 4238 2522 4238 
z
M 2522 4750 
Q 3503 4750 4090 4092 
Q 4678 3434 4678 2328 
Q 4678 1225 4090 567 
Q 3503 -91 2522 -91 
Q 1538 -91 948 565 
Q 359 1222 359 2328 
Q 359 3434 948 4092 
Q 1538 4750 2522 4750 
z
" transform="scale(0.015625)"/>
       <path id="DejaVuSans-4c" d="M 628 4666 
L 1259 4666 
L 1259 531 
L 3531 531 
L 3531 0 
L 628 0 
L 628 4666 
z
" transform="scale(0.015625)"/>
       <path id="DejaVuSans-44" d="M 1259 4147 
L 1259 519 
L 2022 519 
Q 2988 519 3436 956 
Q 3884 1394 3884 2338 
Q 3884 3275 3436 3711 
Q 2988 4147 2022 4147 
L 1259 4147 
z
M 628 4666 
L 1925 4666 
Q 3281 4666 3915 4102 
Q 4550 3538 4550 2338 
Q 4550 1131 3912 565 
Q 3275 0 1925 0 
L 628 0 
L 628 4666 
z
" transform="scale(0.015625)"/>
       <path id="DejaVuSans-20" transform="scale(0.015625)"/>
       <path id="DejaVuSans-25" d="M 4653 2053 
Q 4381 2053 4226 1822 
Q 4072 1591 4072 1178 
Q 4072 772 4226 539 
Q 4381 306 4653 306 
Q 4919 306 5073 539 
Q 5228 772 5228 1178 
Q 5228 1588 5073 1820 
Q 4919 2053 4653 2053 
z
M 4653 2450 
Q 5147 2450 5437 2106 
Q 5728 1763 5728 1178 
Q 5728 594 5436 251 
Q 5144 -91 4653 -91 
Q 4153 -91 3862 251 
Q 3572 594 3572 1178 
Q 3572 1766 3864 2108 
Q 4156 2450 4653 2450 
z
M 1428 4353 
Q 1159 4353 1004 4120 
Q 850 3888 850 3481 
Q 850 3069 1003 2837 
Q 1156 2606 1428 2606 
Q 1700 2606 1854 2837 
Q 2009 3069 2009 3481 
Q 2009 3884 1853 4118 
Q 1697 4353 1428 4353 
z
M 4250 4750 
L 4750 4750 
L 1831 -91 
L 1331 -91 
L 4250 4750 
z
M 1428 4750 
Q 1922 4750 2215 4408 
Q 2509 4066 2509 3481 
Q 2509 2891 2217 2550 
Q 1925 2209 1428 2209 
Q 931 2209 642 2551 
Q 353 2894 353 3481 
Q 353 4063 643 4406 
Q 934 4750 1428 4750 
z
" transform="scale(0.015625)"/>
       <path id="DejaVuSans-63" d="M 3122 3366 
L 3122 2828 
Q 2878 2963 2633 3030 
Q 2388 3097 2138 3097 
Q 1578 3097 1268 2742 
Q 959 2388 959 1747 
Q 959 1106 1268 751 
Q 1578 397 2138 397 
Q 2388 397 2633 464 
Q 2878 531 3122 666 
L 3122 134 
Q 2881 22 2623 -34 
Q 2366 -91 2075 -91 
Q 1284 -91 818 406 
Q 353 903 353 1747 
Q 353 2603 823 3093 
Q 1294 3584 2113 3584 
Q 2378 3584 2631 3529 
Q 2884 3475 3122 3366 
z
" transform="scale(0.015625)"/>
       <path id="DejaVuSans-68" d="M 3513 2113 
L 3513 0 
L 2938 0 
L 2938 2094 
Q 2938 2591 2744 2837 
Q 2550 3084 2163 3084 
Q 1697 3084 1428 2787 
Q 1159 2491 1159 1978 
L 1159 0 
L 581 0 
L 581 4863 
L 1159 4863 
L 1159 2956 
Q 1366 3272 1645 3428 
Q 1925 3584 2291 3584 
Q 2894 3584 3203 3211 
Q 3513 2838 3513 2113 
z
" transform="scale(0.015625)"/>
       <path id="DejaVuSans-61" d="M 2194 1759 
Q 1497 1759 1228 1600 
Q 959 1441 959 1056 
Q 959 750 1161 570 
Q 1363 391 1709 391 
Q 2188 391 2477 730 
Q 2766 1069 2766 1631 
L 2766 1759 
L 2194 1759 
z
M 3341 1997 
L 3341 0 
L 2766 0 
L 2766 531 
Q 2569 213 2275 61 
Q 1981 -91 1556 -91 
Q 1019 -91 701 211 
Q 384 513 384 1019 
Q 384 1609 779 1909 
Q 1175 2209 1959 2209 
L 2766 2209 
L 2766 2266 
Q 2766 2663 2505 2880 
Q 2244 3097 1772 3097 
Q 1472 3097 1187 3025 
Q 903 2953 641 2809 
L 641 3341 
Q 956 3463 1253 3523 
Q 1550 3584 1831 3584 
Q 2591 3584 2966 3190 
Q 3341 2797 3341 1997 
z
" transform="scale(0.015625)"/>
       <path id="DejaVuSans-6e" d="M 3513 2113 
L 3513 0 
L 2938 0 
L 2938 2094 
Q 2938 2591 2744 2837 
Q 2550 3084 2163 3084 
Q 1697 3084 1428 2787 
Q 1159 2491 1159 1978 
L 1159 0 
L 581 0 
L 581 3500 
L 1159 3500 
L 1159 2956 
Q 1366 3272 1645 3428 
Q 1925 3584 2291 3584 
Q 2894 3584 3203 3211 
Q 3513 2838 3513 2113 
z
" transform="scale(0.015625)"/>
       <path id="DejaVuSans-67" d="M 2906 1791 
Q 2906 2416 2648 2759 
Q 2391 3103 1925 3103 
Q 1463 3103 1205 2759 
Q 947 2416 947 1791 
Q 947 1169 1205 825 
Q 1463 481 1925 481 
Q 2391 481 2648 825 
Q 2906 1169 2906 1791 
z
M 3481 434 
Q 3481 -459 3084 -895 
Q 2688 -1331 1869 -1331 
Q 1566 -1331 1297 -1286 
Q 1028 -1241 775 -1147 
L 775 -588 
Q 1028 -725 1275 -790 
Q 1522 -856 1778 -856 
Q 2344 -856 2625 -561 
Q 2906 -266 2906 331 
L 2906 616 
Q 2728 306 2450 153 
Q 2172 0 1784 0 
Q 1141 0 747 490 
Q 353 981 353 1791 
Q 353 2603 747 3093 
Q 1141 3584 1784 3584 
Q 2172 3584 2450 3431 
Q 2728 3278 2906 2969 
L 2906 3500 
L 3481 3500 
L 3481 434 
z
" transform="scale(0.015625)"/>
       <path id="DejaVuSans-65" d="M 3597 1894 
L 3597 1613 
L 953 1613 
Q 991 1019 1311 708 
Q 1631 397 2203 397 
Q 2534 397 2845 478 
Q 3156 559 3463 722 
L 3463 178 
Q 3153 47 2828 -22 
Q 2503 -91 2169 -91 
Q 1331 -91 842 396 
Q 353 884 353 1716 
Q 353 2575 817 3079 
Q 1281 3584 2069 3584 
Q 2775 3584 3186 3129 
Q 3597 2675 3597 1894 
z
M 3022 2063 
Q 3016 2534 2758 2815 
Q 2500 3097 2075 3097 
Q 1594 3097 1305 2825 
Q 1016 2553 972 2059 
L 3022 2063 
z
" transform="scale(0.015625)"/>
      </defs>
      <use xlink:href="#DejaVuSans-42"/>
      <use xlink:href="#DejaVuSans-4f" x="66.853516"/>
      <use xlink:href="#DejaVuSans-4c" x="145.564453"/>
      <use xlink:href="#DejaVuSans-44" x="201.277344"/>
      <use xlink:href="#DejaVuSans-20" x="278.279297"/>
      <use xlink:href="#DejaVuSans-25" x="310.066406"/>
      <use xlink:href="#DejaVuSans-20" x="405.085938"/>
      <use xlink:href="#DejaVuSans-63" x="436.873047"/>
      <use xlink:href="#DejaVuSans-68" x="491.853516"/>
      <use xlink:href="#DejaVuSans-61" x="555.232422"/>
      <use xlink:href="#DejaVuSans-6e" x="616.511719"/>
      <use xlink:href="#DejaVuSans-67" x="679.890625"/>
      <use xlink:href="#DejaVuSans-65" x="743.367188"/>
     </g>
    </g>
   </g>
   <g id="line2d_16">
    <path d="M 86.4 148.162383 
L 94.628571 148.27752 
L 102.857143 150.852345 
L 111.085714 152.418619 
L 119.314286 152.230103 
L 127.542857 154.893889 
L 135.771429 158.812266 
L 144 156.176422 
L 152.228571 151.69207 
L 160.457143 149.159854 
L 168.685714 153.794078 
L 176.914286 157.023459 
L 185.142857 160.137085 
L 193.371429 158.307926 
L 201.6 152.946931 
L 209.828571 145.455442 
L 218.057143 144.698852 
L 226.285714 145.811282 
L 234.514286 148.021464 
L 242.742857 149.57647 
L 250.971429 151.831091 
L 259.2 154.115361 
L 267.428571 150.881876 
L 275.657143 148.662637 
L 283.885714 143.481747 
L 292.114286 136.910018 
L 300.342857 131.497333 
L 308.571429 129.740367 
L 316.8 132.4302 
L 325.028571 133.324401 
L 333.257143 134.273723 
L 341.485714 132.907488 
L 349.714286 132.721077 
L 357.942857 136.48844 
L 366.171429 138.995578 
L 374.4 138.936816 
L 382.628571 138.405737 
L 390.857143 135.433873 
L 399.085714 132.488128 
L 407.314286 134.375075 
L 415.542857 138.158632 
L 423.771429 143.799575 
L 432 150.960983 
L 440.228571 156.244436 
L 448.457143 158.861911 
L 456.685714 159.661214 
L 464.914286 161.663297 
L 473.142857 159.293643 
L 481.371429 157.816055 
L 489.6 160.263065 
" clip-path="url(#pbc76c9c6ee)" style="fill: none; stroke: #b200b2; stroke-width: 1.5; stroke-linecap: square"/>
   </g>
   <g id="line2d_17">
    <path d="M 86.4 176.409222 
L 94.628571 176.872667 
L 102.857143 188.183279 
L 111.085714 199.836803 
L 119.314286 204.734162 
L 127.542857 207.450942 
L 135.771429 213.706709 
L 144 200.552023 
L 152.228571 183.425569 
L 160.457143 185.925625 
L 168.685714 196.068607 
L 176.914286 208.39991 
L 185.142857 222.173936 
L 193.371429 218.395206 
L 201.6 202.595105 
L 209.828571 191.739532 
L 218.057143 185.589416 
L 226.285714 179.733125 
L 234.514286 181.03314 
L 242.742857 190.59507 
L 250.971429 198.134021 
L 259.2 200.925387 
L 267.428571 202.410202 
L 275.657143 215.857602 
L 283.885714 226.959136 
L 292.114286 223.379367 
L 300.342857 225.421788 
L 308.571429 239.665659 
L 316.8 251.690216 
L 325.028571 242.774463 
L 333.257143 224.653489 
L 341.485714 202.114797 
L 349.714286 194.997547 
L 357.942857 203.438807 
L 366.171429 208.590103 
L 374.4 216.862342 
L 382.628571 206.478542 
L 390.857143 188.523717 
L 399.085714 172.613371 
L 407.314286 173.547787 
L 415.542857 190.117047 
L 423.771429 219.020422 
L 432 239.583357 
L 440.228571 242.155235 
L 448.457143 244.879528 
L 456.685714 253.815897 
L 464.914286 260.704594 
L 473.142857 278.692222 
L 481.371429 308.372743 
L 489.6 329.643228 
" clip-path="url(#pbc76c9c6ee)" style="fill: none; stroke: #b200b2; stroke-opacity: 0.2; stroke-width: 1.5; stroke-linecap: square"/>
   </g>
   <g id="line2d_18">
    <path d="M 86.4 164.094177 
L 94.628571 164.094177 
L 102.857143 160.337455 
L 111.085714 167.072466 
L 119.314286 148.900559 
L 127.542857 114.010059 
L 135.771429 90.231655 
L 144 80.753502 
L 152.228571 79.199368 
L 160.457143 71.146073 
L 168.685714 62.147343 
L 176.914286 59.076782 
L 185.142857 60.608035 
L 193.371429 51.472393 
L 201.6 49.058324 
L 209.828571 46.379643 
L 218.057143 33.271102 
L 226.285714 21.460507 
L 234.514286 13.739786 
L 242.742857 8.036277 
L 250.971429 7.112343 
L 259.2 3.439361 
L 267.428571 1.423454 
L 275.657143 6.432653 
L 283.885714 10.814489 
L 292.114286 12.801505 
L 300.342857 9.606691 
L 308.571429 6.774018 
L 316.8 9.808877 
L 325.028571 16.360318 
L 333.257143 23.256884 
L 341.485714 34.356318 
L 349.714286 44.198479 
L 357.942857 50.00949 
L 366.171429 53.674326 
L 374.4 52.841623 
L 382.628571 50.463568 
L 390.857143 48.723614 
L 399.085714 48.210511 
L 407.314286 45.243796 
L 415.542857 45.25633 
L 423.771429 48.631014 
L 432 51.434042 
L 440.228571 45.550421 
L 448.457143 45.07747 
L 456.685714 42.319124 
L 464.914286 42.3832 
L 473.142857 51.143258 
L 481.371429 58.242835 
L 489.6 60.656131 
" clip-path="url(#pbc76c9c6ee)" style="fill: none; stroke: #b200b2; stroke-opacity: 0.2; stroke-width: 1.5; stroke-linecap: square"/>
   </g>
   <g id="line2d_19">
    <path d="M 86.4 50.338774 
L 94.628571 45.841113 
L 102.857143 31.594947 
L 111.085714 25.666309 
L 119.314286 29.813906 
L 127.542857 35.560591 
L 135.771429 46.883726 
L 144 43.799351 
L 152.228571 33.002577 
L 160.457143 21.550214 
L 168.685714 11.984179 
L 176.914286 13.125364 
L 185.142857 25.514917 
L 193.371429 30.639678 
L 201.6 33.963799 
L 209.828571 28.738286 
L 218.057143 19.402208 
L 226.285714 9.499456 
L 234.514286 4.704297 
L 242.742857 1.431868 
L 250.971429 3.710288 
L 259.2 4.789399 
L 263.620148 -1 
M 398.42317 -1 
L 399.085714 -0.222672 
L 407.314286 23.833757 
L 415.542857 49.597288 
L 423.771429 83.666026 
L 432 109.66308 
L 440.228571 122.219156 
L 448.457143 114.528344 
L 456.685714 92.897813 
L 464.914286 81.884674 
L 473.142857 43.064044 
L 481.371429 7.57615 
L 484.43555 -1 
" clip-path="url(#pbc76c9c6ee)" style="fill: none; stroke: #b200b2; stroke-opacity: 0.2; stroke-width: 1.5; stroke-linecap: square"/>
   </g>
   <g id="line2d_20">
    <path d="M 311.502598 -1 
L 316.8 3.178197 
L 325.028571 15.867758 
L 333.257143 23.540627 
L 341.485714 21.707262 
L 349.714286 24.149291 
L 357.942857 31.633965 
L 366.171429 34.167865 
L 374.4 35.411472 
L 382.628571 34.335478 
L 390.857143 33.695056 
L 399.085714 27.445019 
L 407.314286 24.148531 
L 415.542857 19.660214 
L 423.771429 13.969101 
L 432 18.904915 
L 440.228571 31.54261 
L 448.457143 44.180716 
L 456.685714 53.859974 
L 464.914286 64.800859 
L 473.142857 60.22763 
L 481.371429 56.203683 
L 489.6 60.787222 
" clip-path="url(#pbc76c9c6ee)" style="fill: none; stroke: #b200b2; stroke-opacity: 0.2; stroke-width: 1.5; stroke-linecap: square"/>
   </g>
   <g id="line2d_21">
    <path d="M 86.4 128.157941 
L 94.628571 130.58685 
L 102.857143 173.310645 
L 111.085714 222.049626 
L 119.314286 239.338489 
L 127.542857 258.486057 
L 135.771429 257.166752 
L 144 251.087154 
L 152.228571 241.479733 
L 160.457143 228.431049 
L 168.685714 217.838485 
L 176.914286 208.369825 
L 185.142857 220.5916 
L 193.371429 242.815729 
L 201.6 252.815205 
L 209.828571 258.307004 
L 218.057143 283.697789 
L 226.285714 293.234493 
L 234.514286 309.557825 
L 242.742857 306.574129 
L 250.971429 302.025055 
L 259.2 302.725063 
L 267.428571 300.745991 
L 275.657143 297.414074 
L 283.885714 285.355556 
L 292.114286 286.944173 
L 300.342857 285.684766 
L 308.571429 278.338341 
L 316.8 283.303805 
L 325.028571 291.316407 
L 333.257143 291.938752 
L 341.485714 282.175239 
L 349.714286 275.506643 
L 357.942857 279.140589 
L 366.171429 289.504953 
L 374.4 295.188558 
L 382.628571 298.451984 
L 390.857143 298.314061 
L 399.085714 286.190315 
L 407.314286 274.688022 
L 415.542857 269.534072 
L 423.771429 268.094349 
L 432 275.851699 
L 440.228571 285.364721 
L 448.457143 286.129758 
L 456.685714 285.439141 
L 464.914286 292.909224 
L 473.142857 301.169587 
L 481.371429 307.215825 
L 489.6 313.660372 
" clip-path="url(#pbc76c9c6ee)" style="fill: none; stroke: #b200b2; stroke-opacity: 0.2; stroke-width: 1.5; stroke-linecap: square"/>
   </g>
   <g id="line2d_22">
    <path d="M 86.4 89.697746 
L 94.628571 105.337376 
L 102.857143 130.958521 
L 111.085714 145.226974 
L 119.314286 147.95452 
L 127.542857 160.397169 
L 135.771429 160.928871 
L 144 151.309662 
L 152.228571 137.11877 
L 160.457143 142.006544 
L 168.685714 188.75631 
L 176.914286 218.168431 
L 185.142857 203.235041 
L 193.371429 187.268364 
L 201.6 147.747271 
L 209.828571 113.832926 
L 218.057143 110.171796 
L 226.285714 129.736757 
L 234.514286 152.55397 
L 242.742857 177.167087 
L 250.971429 202.881995 
L 259.2 211.564877 
L 267.428571 190.687168 
L 275.657143 172.649404 
L 283.885714 148.649852 
L 292.114286 127.672406 
L 300.342857 110.806619 
L 308.571429 104.303662 
L 316.8 106.339354 
L 325.028571 93.732711 
L 333.257143 88.754366 
L 341.485714 82.873553 
L 349.714286 64.053373 
L 357.942857 53.62746 
L 366.171429 47.00039 
L 374.4 30.563381 
L 382.628571 22.470393 
L 390.857143 15.988685 
L 399.085714 7.219011 
L 407.314286 19.09011 
L 415.542857 29.079681 
L 423.771429 31.116219 
L 432 27.837116 
L 440.228571 29.926273 
L 448.457143 26.788462 
L 456.685714 28.794389 
L 464.914286 35.283988 
L 473.142857 41.932397 
L 481.371429 51.458005 
L 489.6 71.56476 
" clip-path="url(#pbc76c9c6ee)" style="fill: none; stroke: #b200b2; stroke-opacity: 0.2; stroke-width: 1.5; stroke-linecap: square"/>
   </g>
   <g id="line2d_23">
    <path d="M 86.4 146.437449 
L 94.628571 146.395153 
L 102.857143 145.720402 
L 111.085714 149.017277 
L 119.314286 153.298885 
L 127.542857 154.69778 
L 135.771429 157.944796 
L 144 157.868026 
L 152.228571 153.286837 
L 160.457143 152.670467 
L 168.685714 156.197464 
L 176.914286 152.807428 
L 185.142857 148.683381 
L 193.371429 140.770273 
L 201.6 134.168026 
L 209.828571 127.165932 
L 218.057143 123.699862 
L 226.285714 120.469642 
L 234.514286 109.142489 
L 242.742857 103.54869 
L 250.971429 103.357235 
L 259.2 108.952672 
L 267.428571 113.869258 
L 275.657143 123.756314 
L 283.885714 128.388336 
L 292.114286 127.704547 
L 300.342857 123.913268 
L 308.571429 118.589214 
L 316.8 113.384882 
L 325.028571 111.208671 
L 333.257143 111.02651 
L 341.485714 112.63514 
L 349.714286 115.874982 
L 357.942857 126.356079 
L 366.171429 138.91016 
L 374.4 147.899292 
L 382.628571 156.799608 
L 390.857143 164.563677 
L 399.085714 172.162818 
L 407.314286 170.258278 
L 415.542857 168.465759 
L 423.771429 170.686978 
L 432 171.815721 
L 440.228571 169.691565 
L 448.457143 171.982231 
L 456.685714 181.331318 
L 464.914286 187.922133 
L 473.142857 185.756091 
L 481.371429 183.430554 
L 489.6 186.045247 
" clip-path="url(#pbc76c9c6ee)" style="fill: none; stroke: #b200b2; stroke-opacity: 0.2; stroke-width: 1.5; stroke-linecap: square"/>
   </g>
   <g id="line2d_24">
    <path d="M 86.4 87.865158 
L 94.628571 90.226813 
L 102.857143 96.956977 
L 111.085714 103.839115 
L 119.314286 103.975349 
L 127.542857 94.588977 
L 135.771429 99.686558 
L 144 98.458609 
L 152.228571 97.128787 
L 160.457143 99.802718 
L 168.685714 111.960762 
L 176.914286 116.0788 
L 185.142857 120.526272 
L 193.371429 118.517765 
L 201.6 116.24037 
L 209.828571 124.202541 
L 218.057143 132.530639 
L 226.285714 143.622501 
L 234.514286 151.944121 
L 242.742857 164.716651 
L 250.971429 176.805654 
L 259.2 186.894837 
L 267.428571 193.001439 
L 275.657143 200.946901 
L 283.885714 203.740576 
L 292.114286 196.565682 
L 300.342857 183.158079 
L 308.571429 172.456029 
L 316.8 168.381059 
L 325.028571 163.147177 
L 333.257143 161.306677 
L 341.485714 162.98034 
L 349.714286 165.893327 
L 357.942857 168.8515 
L 366.171429 169.229919 
L 374.4 170.737815 
L 382.628571 167.068226 
L 390.857143 161.699774 
L 399.085714 156.864821 
L 407.314286 151.013159 
L 415.542857 145.133616 
L 423.771429 140.682938 
L 432 140.211902 
L 440.228571 142.022828 
L 448.457143 150.271865 
L 456.685714 157.900482 
L 464.914286 159.311198 
L 473.142857 160.826564 
L 481.371429 167.959672 
L 489.6 173.533993 
" clip-path="url(#pbc76c9c6ee)" style="fill: none; stroke: #b200b2; stroke-opacity: 0.2; stroke-width: 1.5; stroke-linecap: square"/>
   </g>
   <g id="line2d_25">
    <path d="M 86.4 111.443269 
L 94.628571 109.431073 
L 102.857143 104.278584 
L 111.085714 96.886973 
L 119.314286 96.801956 
L 127.542857 96.228692 
L 135.771429 103.67703 
L 144 102.995695 
L 152.228571 100.098051 
L 160.457143 102.075202 
L 168.685714 100.328167 
L 176.914286 97.738586 
L 185.142857 107.443954 
L 193.371429 117.516894 
L 201.6 129.214068 
L 209.828571 129.7549 
L 218.057143 131.206144 
L 226.285714 135.051196 
L 234.514286 137.983528 
L 242.742857 136.950054 
L 250.971429 130.806237 
L 259.2 124.91212 
L 267.428571 111.164659 
L 275.657143 91.676644 
L 283.885714 75.771981 
L 292.114286 60.18787 
L 300.342857 48.912546 
L 308.571429 39.297853 
L 316.8 32.608482 
L 325.028571 33.203316 
L 333.257143 40.756077 
L 341.485714 47.140869 
L 349.714286 56.046987 
L 357.942857 63.189982 
L 366.171429 64.851273 
L 374.4 65.436225 
L 382.628571 64.312409 
L 390.857143 72.231439 
L 399.085714 75.812098 
L 407.314286 81.162972 
L 415.542857 82.577412 
L 423.771429 88.995678 
L 432 88.446828 
L 440.228571 84.753233 
L 448.457143 81.805032 
L 456.685714 85.142149 
L 464.914286 89.128731 
L 473.142857 78.04215 
L 481.371429 59.976224 
L 489.6 45.090751 
" clip-path="url(#pbc76c9c6ee)" style="fill: none; stroke: #b200b2; stroke-opacity: 0.2; stroke-width: 1.5; stroke-linecap: square"/>
   </g>
   <g id="line2d_26">
    <path d="M 86.4 393.332611 
L 94.628571 375.128033 
L 102.857143 358.613306 
L 111.085714 318.682584 
L 119.314286 312.333679 
L 127.542857 343.420815 
L 135.771429 367.647662 
L 144 367.867942 
L 152.228571 349.845083 
L 160.457143 329.725864 
L 168.685714 317.930926 
L 176.914286 304.374938 
L 185.142857 301.228404 
L 193.371429 288.756733 
L 201.6 286.236212 
L 209.828571 271.092185 
L 218.057143 268.941933 
L 226.285714 268.343908 
L 234.514286 268.018408 
L 242.742857 267.271928 
L 250.971429 259.28059 
L 259.2 263.366122 
L 267.428571 258.247968 
L 275.657143 243.018046 
L 283.885714 228.87805 
L 292.114286 217.268526 
L 300.342857 203.408024 
L 308.571429 203.993937 
L 316.8 227.976998 
L 325.028571 259.667889 
L 333.257143 274.837977 
L 341.485714 277.915138 
L 349.714286 282.643702 
L 357.942857 290.099625 
L 366.171429 296.244377 
L 374.4 297.109243 
L 382.628571 299.946029 
L 390.857143 282.894972 
L 399.085714 269.428481 
L 407.314286 258.93298 
L 415.542857 246.491989 
L 423.771429 232.348119 
L 432 237.147744 
L 440.228571 253.423906 
L 448.457143 264.111603 
L 456.685714 265.566652 
L 464.914286 261.44252 
L 473.142857 257.221531 
L 481.371429 248.326532 
L 489.6 250.952837 
" clip-path="url(#pbc76c9c6ee)" style="fill: none; stroke: #b200b2; stroke-opacity: 0.2; stroke-width: 1.5; stroke-linecap: square"/>
   </g>
   <g id="line2d_27">
    <path d="M 86.4 416.731745 
L 94.628571 421.861344 
L 102.857143 398.463213 
L 111.085714 366.928051 
L 119.314286 356.854279 
L 127.542857 353.191637 
L 135.771429 360.034344 
L 144 357.549958 
L 152.228571 374.076978 
L 160.457143 371.528962 
L 168.685714 371.106181 
L 176.914286 372.528058 
L 185.142857 368.443376 
L 193.371429 362.291837 
L 201.6 343.414323 
L 209.828571 320.151788 
L 218.057143 317.107256 
L 226.285714 316.082088 
L 234.514286 310.041575 
L 242.742857 299.028488 
L 250.971429 291.627199 
L 259.2 292.209485 
L 267.428571 299.698587 
L 275.657143 314.491834 
L 283.885714 318.796601 
L 292.114286 319.058848 
L 300.342857 318.966929 
L 308.571429 317.835397 
L 316.8 308.51786 
L 325.028571 296.077638 
L 333.257143 288.701014 
L 341.485714 276.841187 
L 349.714286 262.925233 
L 357.942857 250.889753 
L 366.171429 236.363685 
L 374.4 226.765834 
L 382.628571 229.303606 
L 390.857143 233.014423 
L 399.085714 241.645637 
L 407.314286 256.206431 
L 415.542857 273.831544 
L 423.771429 284.584485 
L 432 299.674413 
L 440.228571 312.038852 
L 448.457143 317.72601 
L 456.685714 309.206418 
L 464.914286 302.525146 
L 473.142857 294.154604 
L 481.371429 287.214386 
L 489.6 286.413922 
" clip-path="url(#pbc76c9c6ee)" style="fill: none; stroke: #b200b2; stroke-opacity: 0.2; stroke-width: 1.5; stroke-linecap: square"/>
   </g>
   <g id="line2d_28">
    <path d="M 167.04 241.92 
L 167.04 40.32 
" clip-path="url(#pbc76c9c6ee)" style="fill: none; stroke-dasharray: 5.55,2.4; stroke-dashoffset: 0; stroke: #000000; stroke-width: 1.5"/>
   </g>
   <g id="line2d_29">
    <path d="M 86.4 141.12 
L 489.6 141.12 
" clip-path="url(#pbc76c9c6ee)" style="fill: none; stroke-dasharray: 5.55,2.4; stroke-dashoffset: 0; stroke: #000000; stroke-width: 1.5"/>
   </g>
   <g id="patch_3">
    <path d="M 82.4 241.92 
L 82.4 40.32 
" style="fill: none; stroke: #000000; stroke-width: 0.8; stroke-linejoin: miter; stroke-linecap: square"/>
   </g>
   <g id="patch_4">
    <path d="M 86.4 245.92 
L 489.6 245.92 
" style="fill: none; stroke: #000000; stroke-width: 0.8; stroke-linejoin: miter; stroke-linecap: square"/>
   </g>
   <g id="text_11">
    <!-- all depths -->
    <g transform="translate(268.328125 34.32) scale(0.08 -0.08)">
     <defs>
      <path id="DejaVuSans-6c" d="M 603 4863 
L 1178 4863 
L 1178 0 
L 603 0 
L 603 4863 
z
" transform="scale(0.015625)"/>
      <path id="DejaVuSans-64" d="M 2906 2969 
L 2906 4863 
L 3481 4863 
L 3481 0 
L 2906 0 
L 2906 525 
Q 2725 213 2448 61 
Q 2172 -91 1784 -91 
Q 1150 -91 751 415 
Q 353 922 353 1747 
Q 353 2572 751 3078 
Q 1150 3584 1784 3584 
Q 2172 3584 2448 3432 
Q 2725 3281 2906 2969 
z
M 947 1747 
Q 947 1113 1208 752 
Q 1469 391 1925 391 
Q 2381 391 2643 752 
Q 2906 1113 2906 1747 
Q 2906 2381 2643 2742 
Q 2381 3103 1925 3103 
Q 1469 3103 1208 2742 
Q 947 2381 947 1747 
z
" transform="scale(0.015625)"/>
      <path id="DejaVuSans-70" d="M 1159 525 
L 1159 -1331 
L 581 -1331 
L 581 3500 
L 1159 3500 
L 1159 2969 
Q 1341 3281 1617 3432 
Q 1894 3584 2278 3584 
Q 2916 3584 3314 3078 
Q 3713 2572 3713 1747 
Q 3713 922 3314 415 
Q 2916 -91 2278 -91 
Q 1894 -91 1617 61 
Q 1341 213 1159 525 
z
M 3116 1747 
Q 3116 2381 2855 2742 
Q 2594 3103 2138 3103 
Q 1681 3103 1420 2742 
Q 1159 2381 1159 1747 
Q 1159 1113 1420 752 
Q 1681 391 2138 391 
Q 2594 391 2855 752 
Q 3116 1113 3116 1747 
z
" transform="scale(0.015625)"/>
      <path id="DejaVuSans-74" d="M 1172 4494 
L 1172 3500 
L 2356 3500 
L 2356 3053 
L 1172 3053 
L 1172 1153 
Q 1172 725 1289 603 
Q 1406 481 1766 481 
L 2356 481 
L 2356 0 
L 1766 0 
Q 1100 0 847 248 
Q 594 497 594 1153 
L 594 3053 
L 172 3053 
L 172 3500 
L 594 3500 
L 594 4494 
L 1172 4494 
z
" transform="scale(0.015625)"/>
      <path id="DejaVuSans-73" d="M 2834 3397 
L 2834 2853 
Q 2591 2978 2328 3040 
Q 2066 3103 1784 3103 
Q 1356 3103 1142 2972 
Q 928 2841 928 2578 
Q 928 2378 1081 2264 
Q 1234 2150 1697 2047 
L 1894 2003 
Q 2506 1872 2764 1633 
Q 3022 1394 3022 966 
Q 3022 478 2636 193 
Q 2250 -91 1575 -91 
Q 1294 -91 989 -36 
Q 684 19 347 128 
L 347 722 
Q 666 556 975 473 
Q 1284 391 1588 391 
Q 1994 391 2212 530 
Q 2431 669 2431 922 
Q 2431 1156 2273 1281 
Q 2116 1406 1581 1522 
L 1381 1569 
Q 847 1681 609 1914 
Q 372 2147 372 2553 
Q 372 3047 722 3315 
Q 1072 3584 1716 3584 
Q 2034 3584 2315 3537 
Q 2597 3491 2834 3397 
z
" transform="scale(0.015625)"/>
     </defs>
     <use xlink:href="#DejaVuSans-61"/>
     <use xlink:href="#DejaVuSans-6c" x="61.279297"/>
     <use xlink:href="#DejaVuSans-6c" x="89.0625"/>
     <use xlink:href="#DejaVuSans-20" x="116.845703"/>
     <use xlink:href="#DejaVuSans-64" x="148.632812"/>
     <use xlink:href="#DejaVuSans-65" x="212.109375"/>
     <use xlink:href="#DejaVuSans-70" x="273.632812"/>
     <use xlink:href="#DejaVuSans-74" x="337.109375"/>
     <use xlink:href="#DejaVuSans-68" x="376.318359"/>
     <use xlink:href="#DejaVuSans-73" x="439.697266"/>
    </g>
   </g>
   <g id="legend_1">
    <g id="patch_5">
     <path d="M 93.4 236.92 
L 225.935937 236.92 
Q 227.935937 236.92 227.935937 234.92 
L 227.935937 220.96375 
Q 227.935937 218.96375 225.935937 218.96375 
L 93.4 218.96375 
Q 91.4 218.96375 91.4 220.96375 
L 91.4 234.92 
Q 91.4 236.92 93.4 236.92 
z
" style="fill: #ffffff; opacity: 0.8; stroke: #cccccc; stroke-linejoin: miter"/>
    </g>
    <g id="line2d_30">
     <path d="M 95.4 227.062187 
L 105.4 227.062187 
L 115.4 227.062187 
" style="fill: none; stroke: #b200b2; stroke-width: 1.5; stroke-linecap: square"/>
    </g>
    <g id="text_12">
     <!-- fgm_gPPI_deep_V23 -->
     <g transform="translate(123.4 230.562187) scale(0.1 -0.1)">
      <defs>
       <path id="DejaVuSans-66" d="M 2375 4863 
L 2375 4384 
L 1825 4384 
Q 1516 4384 1395 4259 
Q 1275 4134 1275 3809 
L 1275 3500 
L 2222 3500 
L 2222 3053 
L 1275 3053 
L 1275 0 
L 697 0 
L 697 3053 
L 147 3053 
L 147 3500 
L 697 3500 
L 697 3744 
Q 697 4328 969 4595 
Q 1241 4863 1831 4863 
L 2375 4863 
z
" transform="scale(0.015625)"/>
       <path id="DejaVuSans-6d" d="M 3328 2828 
Q 3544 3216 3844 3400 
Q 4144 3584 4550 3584 
Q 5097 3584 5394 3201 
Q 5691 2819 5691 2113 
L 5691 0 
L 5113 0 
L 5113 2094 
Q 5113 2597 4934 2840 
Q 4756 3084 4391 3084 
Q 3944 3084 3684 2787 
Q 3425 2491 3425 1978 
L 3425 0 
L 2847 0 
L 2847 2094 
Q 2847 2600 2669 2842 
Q 2491 3084 2119 3084 
Q 1678 3084 1418 2786 
Q 1159 2488 1159 1978 
L 1159 0 
L 581 0 
L 581 3500 
L 1159 3500 
L 1159 2956 
Q 1356 3278 1631 3431 
Q 1906 3584 2284 3584 
Q 2666 3584 2933 3390 
Q 3200 3197 3328 2828 
z
" transform="scale(0.015625)"/>
       <path id="DejaVuSans-5f" d="M 3263 -1063 
L 3263 -1509 
L -63 -1509 
L -63 -1063 
L 3263 -1063 
z
" transform="scale(0.015625)"/>
       <path id="DejaVuSans-50" d="M 1259 4147 
L 1259 2394 
L 2053 2394 
Q 2494 2394 2734 2622 
Q 2975 2850 2975 3272 
Q 2975 3691 2734 3919 
Q 2494 4147 2053 4147 
L 1259 4147 
z
M 628 4666 
L 2053 4666 
Q 2838 4666 3239 4311 
Q 3641 3956 3641 3272 
Q 3641 2581 3239 2228 
Q 2838 1875 2053 1875 
L 1259 1875 
L 1259 0 
L 628 0 
L 628 4666 
z
" transform="scale(0.015625)"/>
       <path id="DejaVuSans-49" d="M 628 4666 
L 1259 4666 
L 1259 0 
L 628 0 
L 628 4666 
z
" transform="scale(0.015625)"/>
       <path id="DejaVuSans-56" d="M 1831 0 
L 50 4666 
L 709 4666 
L 2188 738 
L 3669 4666 
L 4325 4666 
L 2547 0 
L 1831 0 
z
" transform="scale(0.015625)"/>
       <path id="DejaVuSans-33" d="M 2597 2516 
Q 3050 2419 3304 2112 
Q 3559 1806 3559 1356 
Q 3559 666 3084 287 
Q 2609 -91 1734 -91 
Q 1441 -91 1130 -33 
Q 819 25 488 141 
L 488 750 
Q 750 597 1062 519 
Q 1375 441 1716 441 
Q 2309 441 2620 675 
Q 2931 909 2931 1356 
Q 2931 1769 2642 2001 
Q 2353 2234 1838 2234 
L 1294 2234 
L 1294 2753 
L 1863 2753 
Q 2328 2753 2575 2939 
Q 2822 3125 2822 3475 
Q 2822 3834 2567 4026 
Q 2313 4219 1838 4219 
Q 1578 4219 1281 4162 
Q 984 4106 628 3988 
L 628 4550 
Q 988 4650 1302 4700 
Q 1616 4750 1894 4750 
Q 2613 4750 3031 4423 
Q 3450 4097 3450 3541 
Q 3450 3153 3228 2886 
Q 3006 2619 2597 2516 
z
" transform="scale(0.015625)"/>
      </defs>
      <use xlink:href="#DejaVuSans-66"/>
      <use xlink:href="#DejaVuSans-67" x="35.205078"/>
      <use xlink:href="#DejaVuSans-6d" x="98.681641"/>
      <use xlink:href="#DejaVuSans-5f" x="196.09375"/>
      <use xlink:href="#DejaVuSans-67" x="246.09375"/>
      <use xlink:href="#DejaVuSans-50" x="309.570312"/>
      <use xlink:href="#DejaVuSans-50" x="369.873047"/>
      <use xlink:href="#DejaVuSans-49" x="430.175781"/>
      <use xlink:href="#DejaVuSans-5f" x="459.667969"/>
      <use xlink:href="#DejaVuSans-64" x="509.667969"/>
      <use xlink:href="#DejaVuSans-65" x="573.144531"/>
      <use xlink:href="#DejaVuSans-65" x="634.667969"/>
      <use xlink:href="#DejaVuSans-70" x="696.191406"/>
      <use xlink:href="#DejaVuSans-5f" x="759.667969"/>
      <use xlink:href="#DejaVuSans-56" x="809.667969"/>
      <use xlink:href="#DejaVuSans-32" x="878.076172"/>
      <use xlink:href="#DejaVuSans-33" x="941.699219"/>
     </g>
    </g>
   </g>
  </g>
  <g id="axes_2">
   <g id="patch_6">
    <path d="M 86.4 443.52 
L 489.6 443.52 
L 489.6 292.32 
L 86.4 292.32 
z
" style="fill: #ffffff"/>
   </g>
   <g id="patch_7">
    <path d="M 90.432 367.92 
L 163.008 367.92 
L 163.008 393.35266 
L 90.432 393.35266 
z
" clip-path="url(#pafb621f8f4)" style="fill: #b200b2; opacity: 0.6"/>
   </g>
   <g id="patch_8">
    <path d="M 171.072 367.92 
L 243.648 367.92 
L 243.648 381.516699 
L 171.072 381.516699 
z
" clip-path="url(#pafb621f8f4)" style="fill: #b200b2; opacity: 0.6"/>
   </g>
   <g id="patch_9">
    <path d="M 251.712 367.92 
L 324.288 367.92 
L 324.288 369.811019 
L 251.712 369.811019 
z
" clip-path="url(#pafb621f8f4)" style="fill: #b200b2; opacity: 0.6"/>
   </g>
   <g id="patch_10">
    <path d="M 332.352 367.92 
L 404.928 367.92 
L 404.928 362.212483 
L 332.352 362.212483 
z
" clip-path="url(#pafb621f8f4)" style="fill: #b200b2; opacity: 0.6"/>
   </g>
   <g id="patch_11">
    <path d="M 412.992 367.92 
L 485.568 367.92 
L 485.568 383.868883 
L 412.992 383.868883 
z
" clip-path="url(#pafb621f8f4)" style="fill: #b200b2; opacity: 0.6"/>
   </g>
   <g id="matplotlib.axis_3">
    <g id="xtick_7">
     <g id="line2d_31">
      <g>
       <use xlink:href="#mea71a1ef9d" x="86.4" y="447.52" style="stroke: #000000; stroke-width: 0.8"/>
      </g>
     </g>
     <g id="text_13">
      <!-- 0 -->
      <g transform="translate(83.21875 462.118438) scale(0.1 -0.1)">
       <use xlink:href="#DejaVuSans-30"/>
      </g>
     </g>
    </g>
    <g id="xtick_8">
     <g id="line2d_32">
      <g>
       <use xlink:href="#mea71a1ef9d" x="167.04" y="447.52" style="stroke: #000000; stroke-width: 0.8"/>
      </g>
     </g>
     <g id="text_14">
      <!-- 1 -->
      <g transform="translate(163.85875 462.118438) scale(0.1 -0.1)">
       <use xlink:href="#DejaVuSans-31"/>
      </g>
     </g>
    </g>
    <g id="xtick_9">
     <g id="line2d_33">
      <g>
       <use xlink:href="#mea71a1ef9d" x="247.68" y="447.52" style="stroke: #000000; stroke-width: 0.8"/>
      </g>
     </g>
     <g id="text_15">
      <!-- 2 -->
      <g transform="translate(244.49875 462.118438) scale(0.1 -0.1)">
       <use xlink:href="#DejaVuSans-32"/>
      </g>
     </g>
    </g>
    <g id="xtick_10">
     <g id="line2d_34">
      <g>
       <use xlink:href="#mea71a1ef9d" x="328.32" y="447.52" style="stroke: #000000; stroke-width: 0.8"/>
      </g>
     </g>
     <g id="text_16">
      <!-- 3 -->
      <g transform="translate(325.13875 462.118438) scale(0.1 -0.1)">
       <use xlink:href="#DejaVuSans-33"/>
      </g>
     </g>
    </g>
    <g id="xtick_11">
     <g id="line2d_35">
      <g>
       <use xlink:href="#mea71a1ef9d" x="408.96" y="447.52" style="stroke: #000000; stroke-width: 0.8"/>
      </g>
     </g>
     <g id="text_17">
      <!-- 4 -->
      <g transform="translate(405.77875 462.118438) scale(0.1 -0.1)">
       <defs>
        <path id="DejaVuSans-34" d="M 2419 4116 
L 825 1625 
L 2419 1625 
L 2419 4116 
z
M 2253 4666 
L 3047 4666 
L 3047 1625 
L 3713 1625 
L 3713 1100 
L 3047 1100 
L 3047 0 
L 2419 0 
L 2419 1100 
L 313 1100 
L 313 1709 
L 2253 4666 
z
" transform="scale(0.015625)"/>
       </defs>
       <use xlink:href="#DejaVuSans-34"/>
      </g>
     </g>
    </g>
    <g id="xtick_12">
     <g id="line2d_36">
      <g>
       <use xlink:href="#mea71a1ef9d" x="489.6" y="447.52" style="stroke: #000000; stroke-width: 0.8"/>
      </g>
     </g>
     <g id="text_18">
      <!-- 5 -->
      <g transform="translate(486.41875 462.118438) scale(0.1 -0.1)">
       <use xlink:href="#DejaVuSans-35"/>
      </g>
     </g>
    </g>
    <g id="text_19">
     <!-- relative distance from ROI center ($\sigma$) -->
     <g transform="translate(214.48 474.276875) scale(0.08 -0.08)">
      <defs>
       <path id="DejaVuSans-72" d="M 2631 2963 
Q 2534 3019 2420 3045 
Q 2306 3072 2169 3072 
Q 1681 3072 1420 2755 
Q 1159 2438 1159 1844 
L 1159 0 
L 581 0 
L 581 3500 
L 1159 3500 
L 1159 2956 
Q 1341 3275 1631 3429 
Q 1922 3584 2338 3584 
Q 2397 3584 2469 3576 
Q 2541 3569 2628 3553 
L 2631 2963 
z
" transform="scale(0.015625)"/>
       <path id="DejaVuSans-69" d="M 603 3500 
L 1178 3500 
L 1178 0 
L 603 0 
L 603 3500 
z
M 603 4863 
L 1178 4863 
L 1178 4134 
L 603 4134 
L 603 4863 
z
" transform="scale(0.015625)"/>
       <path id="DejaVuSans-76" d="M 191 3500 
L 800 3500 
L 1894 563 
L 2988 3500 
L 3597 3500 
L 2284 0 
L 1503 0 
L 191 3500 
z
" transform="scale(0.015625)"/>
       <path id="DejaVuSans-6f" d="M 1959 3097 
Q 1497 3097 1228 2736 
Q 959 2375 959 1747 
Q 959 1119 1226 758 
Q 1494 397 1959 397 
Q 2419 397 2687 759 
Q 2956 1122 2956 1747 
Q 2956 2369 2687 2733 
Q 2419 3097 1959 3097 
z
M 1959 3584 
Q 2709 3584 3137 3096 
Q 3566 2609 3566 1747 
Q 3566 888 3137 398 
Q 2709 -91 1959 -91 
Q 1206 -91 779 398 
Q 353 888 353 1747 
Q 353 2609 779 3096 
Q 1206 3584 1959 3584 
z
" transform="scale(0.015625)"/>
       <path id="DejaVuSans-52" d="M 2841 2188 
Q 3044 2119 3236 1894 
Q 3428 1669 3622 1275 
L 4263 0 
L 3584 0 
L 2988 1197 
Q 2756 1666 2539 1819 
Q 2322 1972 1947 1972 
L 1259 1972 
L 1259 0 
L 628 0 
L 628 4666 
L 2053 4666 
Q 2853 4666 3247 4331 
Q 3641 3997 3641 3322 
Q 3641 2881 3436 2590 
Q 3231 2300 2841 2188 
z
M 1259 4147 
L 1259 2491 
L 2053 2491 
Q 2509 2491 2742 2702 
Q 2975 2913 2975 3322 
Q 2975 3731 2742 3939 
Q 2509 4147 2053 4147 
L 1259 4147 
z
" transform="scale(0.015625)"/>
       <path id="DejaVuSans-28" d="M 1984 4856 
Q 1566 4138 1362 3434 
Q 1159 2731 1159 2009 
Q 1159 1288 1364 580 
Q 1569 -128 1984 -844 
L 1484 -844 
Q 1016 -109 783 600 
Q 550 1309 550 2009 
Q 550 2706 781 3412 
Q 1013 4119 1484 4856 
L 1984 4856 
z
" transform="scale(0.015625)"/>
       <path id="DejaVuSans-Oblique-3c3" d="M 2219 3044 
Q 1744 3044 1422 2700 
Q 1081 2341 969 1747 
Q 844 1119 1044 756 
Q 1241 397 1706 397 
Q 2166 397 2503 759 
Q 2844 1122 2966 1747 
Q 3075 2319 2881 2700 
Q 2700 3044 2219 3044 
z
M 2309 3503 
L 4219 3500 
L 4106 2925 
L 3463 2925 
Q 3706 2438 3575 1747 
Q 3406 888 2884 400 
Q 2359 -91 1609 -91 
Q 856 -91 525 400 
Q 194 888 363 1747 
Q 528 2609 1050 3097 
Q 1484 3503 2309 3503 
z
" transform="scale(0.015625)"/>
       <path id="DejaVuSans-29" d="M 513 4856 
L 1013 4856 
Q 1481 4119 1714 3412 
Q 1947 2706 1947 2009 
Q 1947 1309 1714 600 
Q 1481 -109 1013 -844 
L 513 -844 
Q 928 -128 1133 580 
Q 1338 1288 1338 2009 
Q 1338 2731 1133 3434 
Q 928 4138 513 4856 
z
" transform="scale(0.015625)"/>
      </defs>
      <use xlink:href="#DejaVuSans-72" transform="translate(0 0.015625)"/>
      <use xlink:href="#DejaVuSans-65" transform="translate(41.113281 0.015625)"/>
      <use xlink:href="#DejaVuSans-6c" transform="translate(102.636719 0.015625)"/>
      <use xlink:href="#DejaVuSans-61" transform="translate(130.419922 0.015625)"/>
      <use xlink:href="#DejaVuSans-74" transform="translate(191.699219 0.015625)"/>
      <use xlink:href="#DejaVuSans-69" transform="translate(230.908203 0.015625)"/>
      <use xlink:href="#DejaVuSans-76" transform="translate(258.691406 0.015625)"/>
      <use xlink:href="#DejaVuSans-65" transform="translate(317.871094 0.015625)"/>
      <use xlink:href="#DejaVuSans-20" transform="translate(379.394531 0.015625)"/>
      <use xlink:href="#DejaVuSans-64" transform="translate(411.181641 0.015625)"/>
      <use xlink:href="#DejaVuSans-69" transform="translate(474.658203 0.015625)"/>
      <use xlink:href="#DejaVuSans-73" transform="translate(502.441406 0.015625)"/>
      <use xlink:href="#DejaVuSans-74" transform="translate(554.541016 0.015625)"/>
      <use xlink:href="#DejaVuSans-61" transform="translate(593.75 0.015625)"/>
      <use xlink:href="#DejaVuSans-6e" transform="translate(655.029297 0.015625)"/>
      <use xlink:href="#DejaVuSans-63" transform="translate(718.408203 0.015625)"/>
      <use xlink:href="#DejaVuSans-65" transform="translate(773.388672 0.015625)"/>
      <use xlink:href="#DejaVuSans-20" transform="translate(834.912109 0.015625)"/>
      <use xlink:href="#DejaVuSans-66" transform="translate(866.699219 0.015625)"/>
      <use xlink:href="#DejaVuSans-72" transform="translate(901.904297 0.015625)"/>
      <use xlink:href="#DejaVuSans-6f" transform="translate(943.017578 0.015625)"/>
      <use xlink:href="#DejaVuSans-6d" transform="translate(1004.199219 0.015625)"/>
      <use xlink:href="#DejaVuSans-20" transform="translate(1101.611328 0.015625)"/>
      <use xlink:href="#DejaVuSans-52" transform="translate(1133.398438 0.015625)"/>
      <use xlink:href="#DejaVuSans-4f" transform="translate(1202.880859 0.015625)"/>
      <use xlink:href="#DejaVuSans-49" transform="translate(1281.591797 0.015625)"/>
      <use xlink:href="#DejaVuSans-20" transform="translate(1311.083984 0.015625)"/>
      <use xlink:href="#DejaVuSans-63" transform="translate(1342.871094 0.015625)"/>
      <use xlink:href="#DejaVuSans-65" transform="translate(1397.851562 0.015625)"/>
      <use xlink:href="#DejaVuSans-6e" transform="translate(1459.375 0.015625)"/>
      <use xlink:href="#DejaVuSans-74" transform="translate(1522.753906 0.015625)"/>
      <use xlink:href="#DejaVuSans-65" transform="translate(1561.962891 0.015625)"/>
      <use xlink:href="#DejaVuSans-72" transform="translate(1623.486328 0.015625)"/>
      <use xlink:href="#DejaVuSans-20" transform="translate(1664.599609 0.015625)"/>
      <use xlink:href="#DejaVuSans-28" transform="translate(1696.386719 0.015625)"/>
      <use xlink:href="#DejaVuSans-Oblique-3c3" transform="translate(1735.400391 0.015625)"/>
      <use xlink:href="#DejaVuSans-29" transform="translate(1798.779297 0.015625)"/>
     </g>
    </g>
   </g>
   <g id="matplotlib.axis_4">
    <g id="ytick_10">
     <g id="line2d_37">
      <g>
       <use xlink:href="#m9e181f5f11" x="82.4" y="443.52" style="stroke: #000000; stroke-width: 0.8"/>
      </g>
     </g>
     <g id="text_20">
      <!-- −1.0 -->
      <g transform="translate(51.117187 447.319219) scale(0.1 -0.1)">
       <use xlink:href="#DejaVuSans-2212"/>
       <use xlink:href="#DejaVuSans-31" x="83.789062"/>
       <use xlink:href="#DejaVuSans-2e" x="147.412109"/>
       <use xlink:href="#DejaVuSans-30" x="179.199219"/>
      </g>
     </g>
    </g>
    <g id="ytick_11">
     <g id="line2d_38">
      <g>
       <use xlink:href="#m9e181f5f11" x="82.4" y="405.72" style="stroke: #000000; stroke-width: 0.8"/>
      </g>
     </g>
     <g id="text_21">
      <!-- −0.5 -->
      <g transform="translate(51.117187 409.519219) scale(0.1 -0.1)">
       <use xlink:href="#DejaVuSans-2212"/>
       <use xlink:href="#DejaVuSans-30" x="83.789062"/>
       <use xlink:href="#DejaVuSans-2e" x="147.412109"/>
       <use xlink:href="#DejaVuSans-35" x="179.199219"/>
      </g>
     </g>
    </g>
    <g id="ytick_12">
     <g id="line2d_39">
      <g>
       <use xlink:href="#m9e181f5f11" x="82.4" y="367.92" style="stroke: #000000; stroke-width: 0.8"/>
      </g>
     </g>
     <g id="text_22">
      <!-- 0.0 -->
      <g transform="translate(59.496875 371.719219) scale(0.1 -0.1)">
       <use xlink:href="#DejaVuSans-30"/>
       <use xlink:href="#DejaVuSans-2e" x="63.623047"/>
       <use xlink:href="#DejaVuSans-30" x="95.410156"/>
      </g>
     </g>
    </g>
    <g id="ytick_13">
     <g id="line2d_40">
      <g>
       <use xlink:href="#m9e181f5f11" x="82.4" y="330.12" style="stroke: #000000; stroke-width: 0.8"/>
      </g>
     </g>
     <g id="text_23">
      <!-- 0.5 -->
      <g transform="translate(59.496875 333.919219) scale(0.1 -0.1)">
       <use xlink:href="#DejaVuSans-30"/>
       <use xlink:href="#DejaVuSans-2e" x="63.623047"/>
       <use xlink:href="#DejaVuSans-35" x="95.410156"/>
      </g>
     </g>
    </g>
    <g id="ytick_14">
     <g id="line2d_41">
      <g>
       <use xlink:href="#m9e181f5f11" x="82.4" y="292.32" style="stroke: #000000; stroke-width: 0.8"/>
      </g>
     </g>
     <g id="text_24">
      <!-- 1.0 -->
      <g transform="translate(59.496875 296.119219) scale(0.1 -0.1)">
       <use xlink:href="#DejaVuSans-31"/>
       <use xlink:href="#DejaVuSans-2e" x="63.623047"/>
       <use xlink:href="#DejaVuSans-30" x="95.410156"/>
      </g>
     </g>
    </g>
    <g id="text_25">
     <!-- Binned Avg -->
     <g transform="translate(45.453437 390.525625) rotate(-90) scale(0.08 -0.08)">
      <defs>
       <path id="DejaVuSans-41" d="M 2188 4044 
L 1331 1722 
L 3047 1722 
L 2188 4044 
z
M 1831 4666 
L 2547 4666 
L 4325 0 
L 3669 0 
L 3244 1197 
L 1141 1197 
L 716 0 
L 50 0 
L 1831 4666 
z
" transform="scale(0.015625)"/>
      </defs>
      <use xlink:href="#DejaVuSans-42"/>
      <use xlink:href="#DejaVuSans-69" x="68.603516"/>
      <use xlink:href="#DejaVuSans-6e" x="96.386719"/>
      <use xlink:href="#DejaVuSans-6e" x="159.765625"/>
      <use xlink:href="#DejaVuSans-65" x="223.144531"/>
      <use xlink:href="#DejaVuSans-64" x="284.667969"/>
      <use xlink:href="#DejaVuSans-20" x="348.144531"/>
      <use xlink:href="#DejaVuSans-41" x="379.931641"/>
      <use xlink:href="#DejaVuSans-76" x="442.464844"/>
      <use xlink:href="#DejaVuSans-67" x="501.644531"/>
     </g>
    </g>
   </g>
   <g id="LineCollection_1">
    <path d="M 126.72 456.065119 
L 126.72 330.640201 
" clip-path="url(#pafb621f8f4)" style="fill: none; stroke: #000000; stroke-width: 1.5"/>
    <path d="M 207.36 432.348054 
L 207.36 330.685344 
" clip-path="url(#pafb621f8f4)" style="fill: none; stroke: #000000; stroke-width: 1.5"/>
    <path d="M 288 420.940996 
L 288 318.681043 
" clip-path="url(#pafb621f8f4)" style="fill: none; stroke: #000000; stroke-width: 1.5"/>
    <path d="M 368.64 414.192995 
L 368.64 310.231971 
" clip-path="url(#pafb621f8f4)" style="fill: none; stroke: #000000; stroke-width: 1.5"/>
    <path d="M 449.28 426.10882 
L 449.28 341.628945 
" clip-path="url(#pafb621f8f4)" style="fill: none; stroke: #000000; stroke-width: 1.5"/>
   </g>
   <g id="line2d_42">
    <defs>
     <path id="m093d0d083f" d="M 5 0 
L -5 -0 
" style="stroke: #000000"/>
    </defs>
    <g clip-path="url(#pafb621f8f4)">
     <use xlink:href="#m093d0d083f" x="126.72" y="456.065119" style="stroke: #000000"/>
     <use xlink:href="#m093d0d083f" x="207.36" y="432.348054" style="stroke: #000000"/>
     <use xlink:href="#m093d0d083f" x="288" y="420.940996" style="stroke: #000000"/>
     <use xlink:href="#m093d0d083f" x="368.64" y="414.192995" style="stroke: #000000"/>
     <use xlink:href="#m093d0d083f" x="449.28" y="426.10882" style="stroke: #000000"/>
    </g>
   </g>
   <g id="line2d_43">
    <g clip-path="url(#pafb621f8f4)">
     <use xlink:href="#m093d0d083f" x="126.72" y="330.640201" style="stroke: #000000"/>
     <use xlink:href="#m093d0d083f" x="207.36" y="330.685344" style="stroke: #000000"/>
     <use xlink:href="#m093d0d083f" x="288" y="318.681043" style="stroke: #000000"/>
     <use xlink:href="#m093d0d083f" x="368.64" y="310.231971" style="stroke: #000000"/>
     <use xlink:href="#m093d0d083f" x="449.28" y="341.628945" style="stroke: #000000"/>
    </g>
   </g>
   <g id="line2d_44">
    <path d="M 86.4 367.92 
L 489.6 367.92 
" clip-path="url(#pafb621f8f4)" style="fill: none; stroke-dasharray: 5.55,2.4; stroke-dashoffset: 0; stroke: #000000; stroke-width: 1.5"/>
   </g>
   <g id="patch_12">
    <path d="M 82.4 443.52 
L 82.4 292.32 
" style="fill: none; stroke: #000000; stroke-width: 0.8; stroke-linejoin: miter; stroke-linecap: square"/>
   </g>
   <g id="patch_13">
    <path d="M 86.4 447.52 
L 489.6 447.52 
" style="fill: none; stroke: #000000; stroke-width: 0.8; stroke-linejoin: miter; stroke-linecap: square"/>
   </g>
  </g>
 </g>
 <defs>
  <clipPath id="pbc76c9c6ee">
   <rect x="86.4" y="40.32" width="403.2" height="201.6"/>
  </clipPath>
  <clipPath id="pafb621f8f4">
   <rect x="86.4" y="292.32" width="403.2" height="151.2"/>
  </clipPath>
 </defs>
</svg>
