<?xml version="1.0" encoding="utf-8" standalone="no"?>
<!DOCTYPE svg PUBLIC "-//W3C//DTD SVG 1.1//EN"
  "http://www.w3.org/Graphics/SVG/1.1/DTD/svg11.dtd">
<svg xmlns:xlink="http://www.w3.org/1999/xlink" width="576pt" height="504pt" viewBox="0 0 576 504" xmlns="http://www.w3.org/2000/svg" version="1.1">
 <metadata>
  <rdf:RDF xmlns:dc="http://purl.org/dc/elements/1.1/" xmlns:cc="http://creativecommons.org/ns#" xmlns:rdf="http://www.w3.org/1999/02/22-rdf-syntax-ns#">
   <cc:Work>
    <dc:type rdf:resource="http://purl.org/dc/dcmitype/StillImage"/>
    <dc:date>2026-05-26T10:36:39.616628</dc:date>
    <dc:format>image/svg+xml</dc:format>
    <dc:creator>
     <cc:Agent>
      <dc:title>Matplotlib v3.8.0, https://matplotlib.org/</dc:title>
     </cc:Agent>
    </dc:creator>
   </cc:Work>
  </rdf:RDF>
 </metadata>
 <defs>
  <style type="text/css">*{stroke-linejoin: round; stroke-linecap: butt}</style>
 </defs>
 <g id="figure_1">
  <g id="patch_1">
   <path d="M 0 504 
L 576 504 
L 576 0 
L 0 0 
z
" style="fill: #ffffff"/>
  </g>
  <g id="axes_1">
   <g id="patch_2">
    <path d="M 86.4 241.92 
L 489.6 241.92 
L 489.6 40.32 
L 86.4 40.32 
z
" style="fill: #ffffff"/>
   </g>
   <g id="PolyCollection_1">
    <defs>
     <path id="mc9f4515e5e" d="M 86.4 -396.726129 
L 86.4 -319.046811 
L 94.628571 -326.668287 
L 102.857143 -333.950467 
L 111.085714 -342.902402 
L 119.314286 -347.457668 
L 127.542857 -342.704527 
L 135.771429 -342.758542 
L 144 -346.720132 
L 152.228571 -349.118121 
L 160.457143 -350.236291 
L 168.685714 -353.342743 
L 176.914286 -347.958723 
L 185.142857 -342.381665 
L 193.371429 -343.971003 
L 201.6 -343.863426 
L 209.828571 -347.306193 
L 218.057143 -352.084057 
L 226.285714 -356.006673 
L 234.514286 -358.046463 
L 242.742857 -357.033731 
L 250.971429 -355.10575 
L 259.2 -352.558345 
L 267.428571 -351.865575 
L 275.657143 -352.947881 
L 283.885714 -351.212262 
L 292.114286 -347.55675 
L 300.342857 -348.328875 
L 308.571429 -348.619091 
L 316.8 -347.485568 
L 325.028571 -348.076661 
L 333.257143 -346.562723 
L 341.485714 -343.863693 
L 349.714286 -342.439333 
L 357.942857 -338.059332 
L 366.171429 -334.902717 
L 374.4 -330.530812 
L 382.628571 -327.857675 
L 390.857143 -328.459761 
L 399.085714 -331.693882 
L 407.314286 -335.10446 
L 415.542857 -335.197717 
L 423.771429 -333.445426 
L 432 -330.812554 
L 440.228571 -326.002637 
L 448.457143 -323.345275 
L 456.685714 -319.710839 
L 464.914286 -315.340709 
L 473.142857 -314.926552 
L 481.371429 -309.568793 
L 489.6 -302.949755 
L 489.6 -362.636319 
L 489.6 -362.636319 
L 481.371429 -367.996735 
L 473.142857 -371.094653 
L 464.914286 -368.671993 
L 456.685714 -367.185642 
L 448.457143 -366.578896 
L 440.228571 -367.382339 
L 432 -371.517167 
L 423.771429 -374.168892 
L 415.542857 -376.657442 
L 407.314286 -378.413293 
L 399.085714 -377.779136 
L 390.857143 -375.957569 
L 382.628571 -376.654351 
L 374.4 -379.875858 
L 366.171429 -383.815247 
L 357.942857 -385.518525 
L 349.714286 -389.998833 
L 341.485714 -392.783539 
L 333.257143 -394.441629 
L 325.028571 -396.653064 
L 316.8 -397.589439 
L 308.571429 -399.74985 
L 300.342857 -398.861842 
L 292.114286 -398.074648 
L 283.885714 -399.780447 
L 275.657143 -400.203141 
L 267.428571 -398.487954 
L 259.2 -397.168589 
L 250.971429 -397.172708 
L 242.742857 -396.816468 
L 234.514286 -396.822772 
L 226.285714 -397.076543 
L 218.057143 -395.21883 
L 209.828571 -390.934363 
L 201.6 -389.2827 
L 193.371429 -393.191994 
L 185.142857 -396.309703 
L 176.914286 -402.283128 
L 168.685714 -406.388969 
L 160.457143 -405.234152 
L 152.228571 -406.169655 
L 144 -406.483758 
L 135.771429 -402.673592 
L 127.542857 -403.787381 
L 119.314286 -408.148476 
L 111.085714 -409.720588 
L 102.857143 -407.767703 
L 94.628571 -402.839697 
L 86.4 -396.726129 
z
" style="stroke: #b200b2; stroke-opacity: 0.4"/>
    </defs>
    <g clip-path="url(#p47e0cdb1fd)">
     <use xlink:href="#mc9f4515e5e" x="0" y="504" style="fill: #b200b2; fill-opacity: 0.4; stroke: #b200b2; stroke-opacity: 0.4"/>
    </g>
   </g>
   <g id="matplotlib.axis_1">
    <g id="xtick_1">
     <g id="line2d_1">
      <defs>
       <path id="m09c8c2cc81" d="M 0 0 
L 0 3.5 
" style="stroke: #000000; stroke-width: 0.8"/>
      </defs>
      <g>
       <use xlink:href="#m09c8c2cc81" x="86.4" y="245.92" style="stroke: #000000; stroke-width: 0.8"/>
      </g>
     </g>
    </g>
    <g id="xtick_2">
     <g id="line2d_2">
      <g>
       <use xlink:href="#m09c8c2cc81" x="167.04" y="245.92" style="stroke: #000000; stroke-width: 0.8"/>
      </g>
     </g>
    </g>
    <g id="xtick_3">
     <g id="line2d_3">
      <g>
       <use xlink:href="#m09c8c2cc81" x="247.68" y="245.92" style="stroke: #000000; stroke-width: 0.8"/>
      </g>
     </g>
    </g>
    <g id="xtick_4">
     <g id="line2d_4">
      <g>
       <use xlink:href="#m09c8c2cc81" x="328.32" y="245.92" style="stroke: #000000; stroke-width: 0.8"/>
      </g>
     </g>
    </g>
    <g id="xtick_5">
     <g id="line2d_5">
      <g>
       <use xlink:href="#m09c8c2cc81" x="408.96" y="245.92" style="stroke: #000000; stroke-width: 0.8"/>
      </g>
     </g>
    </g>
    <g id="xtick_6">
     <g id="line2d_6">
      <g>
       <use xlink:href="#m09c8c2cc81" x="489.6" y="245.92" style="stroke: #000000; stroke-width: 0.8"/>
      </g>
     </g>
    </g>
   </g>
   <g id="matplotlib.axis_2">
    <g id="ytick_1">
     <g id="line2d_7">
      <defs>
       <path id="md636eea1ce" d="M 0 0 
L -3.5 0 
" style="stroke: #000000; stroke-width: 0.8"/>
      </defs>
      <g>
       <use xlink:href="#md636eea1ce" x="82.4" y="241.92" style="stroke: #000000; stroke-width: 0.8"/>
      </g>
     </g>
     <g id="text_1">
      <!-- −2.0 -->
      <g transform="translate(51.117187 245.719219) scale(0.1 -0.1)">
       <defs>
        <path id="DejaVuSans-2212" d="M 678 2272 
L 4684 2272 
L 4684 1741 
L 678 1741 
L 678 2272 
z
" transform="scale(0.015625)"/>
        <path id="DejaVuSans-32" d="M 1228 531 
L 3431 531 
L 3431 0 
L 469 0 
L 469 531 
Q 828 903 1448 1529 
Q 2069 2156 2228 2338 
Q 2531 2678 2651 2914 
Q 2772 3150 2772 3378 
Q 2772 3750 2511 3984 
Q 2250 4219 1831 4219 
Q 1534 4219 1204 4116 
Q 875 4013 500 3803 
L 500 4441 
Q 881 4594 1212 4672 
Q 1544 4750 1819 4750 
Q 2544 4750 2975 4387 
Q 3406 4025 3406 3419 
Q 3406 3131 3298 2873 
Q 3191 2616 2906 2266 
Q 2828 2175 2409 1742 
Q 1991 1309 1228 531 
z
" transform="scale(0.015625)"/>
        <path id="DejaVuSans-2e" d="M 684 794 
L 1344 794 
L 1344 0 
L 684 0 
L 684 794 
z
" transform="scale(0.015625)"/>
        <path id="DejaVuSans-30" d="M 2034 4250 
Q 1547 4250 1301 3770 
Q 1056 3291 1056 2328 
Q 1056 1369 1301 889 
Q 1547 409 2034 409 
Q 2525 409 2770 889 
Q 3016 1369 3016 2328 
Q 3016 3291 2770 3770 
Q 2525 4250 2034 4250 
z
M 2034 4750 
Q 2819 4750 3233 4129 
Q 3647 3509 3647 2328 
Q 3647 1150 3233 529 
Q 2819 -91 2034 -91 
Q 1250 -91 836 529 
Q 422 1150 422 2328 
Q 422 3509 836 4129 
Q 1250 4750 2034 4750 
z
" transform="scale(0.015625)"/>
       </defs>
       <use xlink:href="#DejaVuSans-2212"/>
       <use xlink:href="#DejaVuSans-32" x="83.789062"/>
       <use xlink:href="#DejaVuSans-2e" x="147.412109"/>
       <use xlink:href="#DejaVuSans-30" x="179.199219"/>
      </g>
     </g>
    </g>
    <g id="ytick_2">
     <g id="line2d_8">
      <g>
       <use xlink:href="#md636eea1ce" x="82.4" y="216.72" style="stroke: #000000; stroke-width: 0.8"/>
      </g>
     </g>
     <g id="text_2">
      <!-- −1.5 -->
      <g transform="translate(51.117187 220.519219) scale(0.1 -0.1)">
       <defs>
        <path id="DejaVuSans-31" d="M 794 531 
L 1825 531 
L 1825 4091 
L 703 3866 
L 703 4441 
L 1819 4666 
L 2450 4666 
L 2450 531 
L 3481 531 
L 3481 0 
L 794 0 
L 794 531 
z
" transform="scale(0.015625)"/>
        <path id="DejaVuSans-35" d="M 691 4666 
L 3169 4666 
L 3169 4134 
L 1269 4134 
L 1269 2991 
Q 1406 3038 1543 3061 
Q 1681 3084 1819 3084 
Q 2600 3084 3056 2656 
Q 3513 2228 3513 1497 
Q 3513 744 3044 326 
Q 2575 -91 1722 -91 
Q 1428 -91 1123 -41 
Q 819 9 494 109 
L 494 744 
Q 775 591 1075 516 
Q 1375 441 1709 441 
Q 2250 441 2565 725 
Q 2881 1009 2881 1497 
Q 2881 1984 2565 2268 
Q 2250 2553 1709 2553 
Q 1456 2553 1204 2497 
Q 953 2441 691 2322 
L 691 4666 
z
" transform="scale(0.015625)"/>
       </defs>
       <use xlink:href="#DejaVuSans-2212"/>
       <use xlink:href="#DejaVuSans-31" x="83.789062"/>
       <use xlink:href="#DejaVuSans-2e" x="147.412109"/>
       <use xlink:href="#DejaVuSans-35" x="179.199219"/>
      </g>
     </g>
    </g>
    <g id="ytick_3">
     <g id="line2d_9">
      <g>
       <use xlink:href="#md636eea1ce" x="82.4" y="191.52" style="stroke: #000000; stroke-width: 0.8"/>
      </g>
     </g>
     <g id="text_3">
      <!-- −1.0 -->
      <g transform="translate(51.117187 195.319219) scale(0.1 -0.1)">
       <use xlink:href="#DejaVuSans-2212"/>
       <use xlink:href="#DejaVuSans-31" x="83.789062"/>
       <use xlink:href="#DejaVuSans-2e" x="147.412109"/>
       <use xlink:href="#DejaVuSans-30" x="179.199219"/>
      </g>
     </g>
    </g>
    <g id="ytick_4">
     <g id="line2d_10">
      <g>
       <use xlink:href="#md636eea1ce" x="82.4" y="166.32" style="stroke: #000000; stroke-width: 0.8"/>
      </g>
     </g>
     <g id="text_4">
      <!-- −0.5 -->
      <g transform="translate(51.117187 170.119219) scale(0.1 -0.1)">
       <use xlink:href="#DejaVuSans-2212"/>
       <use xlink:href="#DejaVuSans-30" x="83.789062"/>
       <use xlink:href="#DejaVuSans-2e" x="147.412109"/>
       <use xlink:href="#DejaVuSans-35" x="179.199219"/>
      </g>
     </g>
    </g>
    <g id="ytick_5">
     <g id="line2d_11">
      <g>
       <use xlink:href="#md636eea1ce" x="82.4" y="141.12" style="stroke: #000000; stroke-width: 0.8"/>
      </g>
     </g>
     <g id="text_5">
      <!-- 0.0 -->
      <g transform="translate(59.496875 144.919219) scale(0.1 -0.1)">
       <use xlink:href="#DejaVuSans-30"/>
       <use xlink:href="#DejaVuSans-2e" x="63.623047"/>
       <use xlink:href="#DejaVuSans-30" x="95.410156"/>
      </g>
     </g>
    </g>
    <g id="ytick_6">
     <g id="line2d_12">
      <g>
       <use xlink:href="#md636eea1ce" x="82.4" y="115.92" style="stroke: #000000; stroke-width: 0.8"/>
      </g>
     </g>
     <g id="text_6">
      <!-- 0.5 -->
      <g transform="translate(59.496875 119.719219) scale(0.1 -0.1)">
       <use xlink:href="#DejaVuSans-30"/>
       <use xlink:href="#DejaVuSans-2e" x="63.623047"/>
       <use xlink:href="#DejaVuSans-35" x="95.410156"/>
      </g>
     </g>
    </g>
    <g id="ytick_7">
     <g id="line2d_13">
      <g>
       <use xlink:href="#md636eea1ce" x="82.4" y="90.72" style="stroke: #000000; stroke-width: 0.8"/>
      </g>
     </g>
     <g id="text_7">
      <!-- 1.0 -->
      <g transform="translate(59.496875 94.519219) scale(0.1 -0.1)">
       <use xlink:href="#DejaVuSans-31"/>
       <use xlink:href="#DejaVuSans-2e" x="63.623047"/>
       <use xlink:href="#DejaVuSans-30" x="95.410156"/>
      </g>
     </g>
    </g>
    <g id="ytick_8">
     <g id="line2d_14">
      <g>
       <use xlink:href="#md636eea1ce" x="82.4" y="65.52" style="stroke: #000000; stroke-width: 0.8"/>
      </g>
     </g>
     <g id="text_8">
      <!-- 1.5 -->
      <g transform="translate(59.496875 69.319219) scale(0.1 -0.1)">
       <use xlink:href="#DejaVuSans-31"/>
       <use xlink:href="#DejaVuSans-2e" x="63.623047"/>
       <use xlink:href="#DejaVuSans-35" x="95.410156"/>
      </g>
     </g>
    </g>
    <g id="ytick_9">
     <g id="line2d_15">
      <g>
       <use xlink:href="#md636eea1ce" x="82.4" y="40.32" style="stroke: #000000; stroke-width: 0.8"/>
      </g>
     </g>
     <g id="text_9">
      <!-- 2.0 -->
      <g transform="translate(59.496875 44.119219) scale(0.1 -0.1)">
       <use xlink:href="#DejaVuSans-32"/>
       <use xlink:href="#DejaVuSans-2e" x="63.623047"/>
       <use xlink:href="#DejaVuSans-30" x="95.410156"/>
      </g>
     </g>
    </g>
    <g id="text_10">
     <!-- BOLD % change -->
     <g transform="translate(45.453437 173.31625) rotate(-90) scale(0.08 -0.08)">
      <defs>
       <path id="DejaVuSans-42" d="M 1259 2228 
L 1259 519 
L 2272 519 
Q 2781 519 3026 730 
Q 3272 941 3272 1375 
Q 3272 1813 3026 2020 
Q 2781 2228 2272 2228 
L 1259 2228 
z
M 1259 4147 
L 1259 2741 
L 2194 2741 
Q 2656 2741 2882 2914 
Q 3109 3088 3109 3444 
Q 3109 3797 2882 3972 
Q 2656 4147 2194 4147 
L 1259 4147 
z
M 628 4666 
L 2241 4666 
Q 2963 4666 3353 4366 
Q 3744 4066 3744 3513 
Q 3744 3084 3544 2831 
Q 3344 2578 2956 2516 
Q 3422 2416 3680 2098 
Q 3938 1781 3938 1306 
Q 3938 681 3513 340 
Q 3088 0 2303 0 
L 628 0 
L 628 4666 
z
" transform="scale(0.015625)"/>
       <path id="DejaVuSans-4f" d="M 2522 4238 
Q 1834 4238 1429 3725 
Q 1025 3213 1025 2328 
Q 1025 1447 1429 934 
Q 1834 422 2522 422 
Q 3209 422 3611 934 
Q 4013 1447 4013 2328 
Q 4013 3213 3611 3725 
Q 3209 4238 2522 4238 
z
M 2522 4750 
Q 3503 4750 4090 4092 
Q 4678 3434 4678 2328 
Q 4678 1225 4090 567 
Q 3503 -91 2522 -91 
Q 1538 -91 948 565 
Q 359 1222 359 2328 
Q 359 3434 948 4092 
Q 1538 4750 2522 4750 
z
" transform="scale(0.015625)"/>
       <path id="DejaVuSans-4c" d="M 628 4666 
L 1259 4666 
L 1259 531 
L 3531 531 
L 3531 0 
L 628 0 
L 628 4666 
z
" transform="scale(0.015625)"/>
       <path id="DejaVuSans-44" d="M 1259 4147 
L 1259 519 
L 2022 519 
Q 2988 519 3436 956 
Q 3884 1394 3884 2338 
Q 3884 3275 3436 3711 
Q 2988 4147 2022 4147 
L 1259 4147 
z
M 628 4666 
L 1925 4666 
Q 3281 4666 3915 4102 
Q 4550 3538 4550 2338 
Q 4550 1131 3912 565 
Q 3275 0 1925 0 
L 628 0 
L 628 4666 
z
" transform="scale(0.015625)"/>
       <path id="DejaVuSans-20" transform="scale(0.015625)"/>
       <path id="DejaVuSans-25" d="M 4653 2053 
Q 4381 2053 4226 1822 
Q 4072 1591 4072 1178 
Q 4072 772 4226 539 
Q 4381 306 4653 306 
Q 4919 306 5073 539 
Q 5228 772 5228 1178 
Q 5228 1588 5073 1820 
Q 4919 2053 4653 2053 
z
M 4653 2450 
Q 5147 2450 5437 2106 
Q 5728 1763 5728 1178 
Q 5728 594 5436 251 
Q 5144 -91 4653 -91 
Q 4153 -91 3862 251 
Q 3572 594 3572 1178 
Q 3572 1766 3864 2108 
Q 4156 2450 4653 2450 
z
M 1428 4353 
Q 1159 4353 1004 4120 
Q 850 3888 850 3481 
Q 850 3069 1003 2837 
Q 1156 2606 1428 2606 
Q 1700 2606 1854 2837 
Q 2009 3069 2009 3481 
Q 2009 3884 1853 4118 
Q 1697 4353 1428 4353 
z
M 4250 4750 
L 4750 4750 
L 1831 -91 
L 1331 -91 
L 4250 4750 
z
M 1428 4750 
Q 1922 4750 2215 4408 
Q 2509 4066 2509 3481 
Q 2509 2891 2217 2550 
Q 1925 2209 1428 2209 
Q 931 2209 642 2551 
Q 353 2894 353 3481 
Q 353 4063 643 4406 
Q 934 4750 1428 4750 
z
" transform="scale(0.015625)"/>
       <path id="DejaVuSans-63" d="M 3122 3366 
L 3122 2828 
Q 2878 2963 2633 3030 
Q 2388 3097 2138 3097 
Q 1578 3097 1268 2742 
Q 959 2388 959 1747 
Q 959 1106 1268 751 
Q 1578 397 2138 397 
Q 2388 397 2633 464 
Q 2878 531 3122 666 
L 3122 134 
Q 2881 22 2623 -34 
Q 2366 -91 2075 -91 
Q 1284 -91 818 406 
Q 353 903 353 1747 
Q 353 2603 823 3093 
Q 1294 3584 2113 3584 
Q 2378 3584 2631 3529 
Q 2884 3475 3122 3366 
z
" transform="scale(0.015625)"/>
       <path id="DejaVuSans-68" d="M 3513 2113 
L 3513 0 
L 2938 0 
L 2938 2094 
Q 2938 2591 2744 2837 
Q 2550 3084 2163 3084 
Q 1697 3084 1428 2787 
Q 1159 2491 1159 1978 
L 1159 0 
L 581 0 
L 581 4863 
L 1159 4863 
L 1159 2956 
Q 1366 3272 1645 3428 
Q 1925 3584 2291 3584 
Q 2894 3584 3203 3211 
Q 3513 2838 3513 2113 
z
" transform="scale(0.015625)"/>
       <path id="DejaVuSans-61" d="M 2194 1759 
Q 1497 1759 1228 1600 
Q 959 1441 959 1056 
Q 959 750 1161 570 
Q 1363 391 1709 391 
Q 2188 391 2477 730 
Q 2766 1069 2766 1631 
L 2766 1759 
L 2194 1759 
z
M 3341 1997 
L 3341 0 
L 2766 0 
L 2766 531 
Q 2569 213 2275 61 
Q 1981 -91 1556 -91 
Q 1019 -91 701 211 
Q 384 513 384 1019 
Q 384 1609 779 1909 
Q 1175 2209 1959 2209 
L 2766 2209 
L 2766 2266 
Q 2766 2663 2505 2880 
Q 2244 3097 1772 3097 
Q 1472 3097 1187 3025 
Q 903 2953 641 2809 
L 641 3341 
Q 956 3463 1253 3523 
Q 1550 3584 1831 3584 
Q 2591 3584 2966 3190 
Q 3341 2797 3341 1997 
z
" transform="scale(0.015625)"/>
       <path id="DejaVuSans-6e" d="M 3513 2113 
L 3513 0 
L 2938 0 
L 2938 2094 
Q 2938 2591 2744 2837 
Q 2550 3084 2163 3084 
Q 1697 3084 1428 2787 
Q 1159 2491 1159 1978 
L 1159 0 
L 581 0 
L 581 3500 
L 1159 3500 
L 1159 2956 
Q 1366 3272 1645 3428 
Q 1925 3584 2291 3584 
Q 2894 3584 3203 3211 
Q 3513 2838 3513 2113 
z
" transform="scale(0.015625)"/>
       <path id="DejaVuSans-67" d="M 2906 1791 
Q 2906 2416 2648 2759 
Q 2391 3103 1925 3103 
Q 1463 3103 1205 2759 
Q 947 2416 947 1791 
Q 947 1169 1205 825 
Q 1463 481 1925 481 
Q 2391 481 2648 825 
Q 2906 1169 2906 1791 
z
M 3481 434 
Q 3481 -459 3084 -895 
Q 2688 -1331 1869 -1331 
Q 1566 -1331 1297 -1286 
Q 1028 -1241 775 -1147 
L 775 -588 
Q 1028 -725 1275 -790 
Q 1522 -856 1778 -856 
Q 2344 -856 2625 -561 
Q 2906 -266 2906 331 
L 2906 616 
Q 2728 306 2450 153 
Q 2172 0 1784 0 
Q 1141 0 747 490 
Q 353 981 353 1791 
Q 353 2603 747 3093 
Q 1141 3584 1784 3584 
Q 2172 3584 2450 3431 
Q 2728 3278 2906 2969 
L 2906 3500 
L 3481 3500 
L 3481 434 
z
" transform="scale(0.015625)"/>
       <path id="DejaVuSans-65" d="M 3597 1894 
L 3597 1613 
L 953 1613 
Q 991 1019 1311 708 
Q 1631 397 2203 397 
Q 2534 397 2845 478 
Q 3156 559 3463 722 
L 3463 178 
Q 3153 47 2828 -22 
Q 2503 -91 2169 -91 
Q 1331 -91 842 396 
Q 353 884 353 1716 
Q 353 2575 817 3079 
Q 1281 3584 2069 3584 
Q 2775 3584 3186 3129 
Q 3597 2675 3597 1894 
z
M 3022 2063 
Q 3016 2534 2758 2815 
Q 2500 3097 2075 3097 
Q 1594 3097 1305 2825 
Q 1016 2553 972 2059 
L 3022 2063 
z
" transform="scale(0.015625)"/>
      </defs>
      <use xlink:href="#DejaVuSans-42"/>
      <use xlink:href="#DejaVuSans-4f" x="66.853516"/>
      <use xlink:href="#DejaVuSans-4c" x="145.564453"/>
      <use xlink:href="#DejaVuSans-44" x="201.277344"/>
      <use xlink:href="#DejaVuSans-20" x="278.279297"/>
      <use xlink:href="#DejaVuSans-25" x="310.066406"/>
      <use xlink:href="#DejaVuSans-20" x="405.085938"/>
      <use xlink:href="#DejaVuSans-63" x="436.873047"/>
      <use xlink:href="#DejaVuSans-68" x="491.853516"/>
      <use xlink:href="#DejaVuSans-61" x="555.232422"/>
      <use xlink:href="#DejaVuSans-6e" x="616.511719"/>
      <use xlink:href="#DejaVuSans-67" x="679.890625"/>
      <use xlink:href="#DejaVuSans-65" x="743.367188"/>
     </g>
    </g>
   </g>
   <g id="line2d_16">
    <path d="M 86.4 146.11353 
L 94.628571 139.246008 
L 102.857143 133.140915 
L 111.085714 127.688505 
L 119.314286 126.196928 
L 127.542857 130.754046 
L 135.771429 131.283933 
L 144 127.398055 
L 152.228571 126.356112 
L 160.457143 126.264779 
L 168.685714 124.134144 
L 176.914286 128.879074 
L 185.142857 134.654316 
L 193.371429 135.418502 
L 201.6 137.426937 
L 209.828571 134.879722 
L 218.057143 130.348556 
L 226.285714 127.458392 
L 234.514286 126.565383 
L 242.742857 127.074901 
L 250.971429 127.860771 
L 259.2 129.136533 
L 267.428571 128.823236 
L 275.657143 127.424489 
L 283.885714 128.503646 
L 292.114286 131.184301 
L 300.342857 130.404641 
L 308.571429 129.815529 
L 316.8 131.462497 
L 325.028571 131.635137 
L 333.257143 133.497824 
L 341.485714 135.676384 
L 349.714286 137.780917 
L 357.942857 142.211071 
L 366.171429 144.641018 
L 374.4 148.796665 
L 382.628571 151.743987 
L 390.857143 151.791335 
L 399.085714 149.263491 
L 407.314286 147.241124 
L 415.542857 148.07242 
L 423.771429 150.192841 
L 432 152.83514 
L 440.228571 157.307512 
L 448.457143 159.037914 
L 456.685714 160.55176 
L 464.914286 161.993649 
L 473.142857 160.989397 
L 481.371429 165.217236 
L 489.6 171.206963 
" clip-path="url(#p47e0cdb1fd)" style="fill: none; stroke: #b200b2; stroke-width: 1.5; stroke-linecap: square"/>
   </g>
   <g id="line2d_17">
    <path d="M 86.4 171.145191 
L 94.628571 169.571285 
L 102.857143 170.563476 
L 111.085714 171.482746 
L 119.314286 176.570489 
L 127.542857 185.905678 
L 135.771429 191.282531 
L 144 182.53067 
L 152.228571 160.928699 
L 160.457143 153.101414 
L 168.685714 148.012503 
L 176.914286 151.722871 
L 185.142857 157.106162 
L 193.371429 154.043716 
L 201.6 149.810677 
L 209.828571 141.828772 
L 218.057143 142.273611 
L 226.285714 149.202895 
L 234.514286 155.583537 
L 242.742857 155.570655 
L 250.971429 158.84743 
L 259.2 150.704903 
L 267.428571 142.413813 
L 275.657143 146.298691 
L 283.885714 152.429036 
L 292.114286 153.624405 
L 300.342857 148.370853 
L 308.571429 154.696116 
L 316.8 165.542638 
L 325.028571 156.50979 
L 333.257143 141.632166 
L 341.485714 126.697172 
L 349.714286 117.269169 
L 357.942857 116.305139 
L 366.171429 124.745305 
L 374.4 136.098391 
L 382.628571 127.844057 
L 390.857143 114.238892 
L 399.085714 100.726164 
L 407.314286 104.386273 
L 415.542857 124.919324 
L 423.771429 155.772394 
L 432 185.675761 
L 440.228571 203.854933 
L 448.457143 214.772186 
L 456.685714 237.860484 
L 464.914286 255.185019 
L 473.142857 265.995283 
L 481.371429 278.147257 
L 489.6 286.359434 
" clip-path="url(#p47e0cdb1fd)" style="fill: none; stroke: #b200b2; stroke-opacity: 0.2; stroke-width: 1.5; stroke-linecap: square"/>
   </g>
   <g id="line2d_18">
    <path d="M 86.4 214.91874 
L 94.628571 214.91874 
L 102.857143 202.038408 
L 111.085714 191.162427 
L 119.314286 174.559815 
L 127.542857 161.312353 
L 135.771429 156.273291 
L 144 141.333201 
L 152.228571 130.339272 
L 160.457143 115.309088 
L 168.685714 94.654588 
L 176.914286 93.597584 
L 185.142857 100.011593 
L 193.371429 90.458493 
L 201.6 99.392295 
L 209.828571 102.288236 
L 218.057143 88.641047 
L 226.285714 78.894764 
L 234.514286 64.513161 
L 242.742857 44.735588 
L 250.971429 31.456717 
L 259.2 14.832197 
L 267.428571 0.332202 
L 270.20085 -1 
M 285.233551 -1 
L 292.114286 8.728601 
L 300.342857 17.560309 
L 308.571429 21.223782 
L 316.8 27.797203 
L 325.028571 37.361515 
L 333.257143 51.151198 
L 341.485714 65.922464 
L 349.714286 74.431376 
L 357.942857 72.329283 
L 366.171429 67.760882 
L 374.4 67.956281 
L 382.628571 65.904625 
L 390.857143 60.54289 
L 399.085714 60.365424 
L 407.314286 53.889606 
L 415.542857 49.219722 
L 423.771429 55.207874 
L 432 57.771092 
L 440.228571 57.231547 
L 448.457143 56.100421 
L 456.685714 55.051604 
L 464.914286 50.976281 
L 473.142857 54.550971 
L 481.371429 56.870589 
L 489.6 63.5328 
" clip-path="url(#p47e0cdb1fd)" style="fill: none; stroke: #b200b2; stroke-opacity: 0.2; stroke-width: 1.5; stroke-linecap: square"/>
   </g>
   <g id="line2d_19">
    <path d="M 86.4 128.800126 
L 94.628571 130.960152 
L 102.857143 143.400712 
L 111.085714 154.864379 
L 119.314286 156.863611 
L 127.542857 154.626881 
L 135.771429 150.894349 
L 144 142.256196 
L 152.228571 134.771186 
L 160.457143 129.832754 
L 168.685714 125.310472 
L 176.914286 123.757619 
L 185.142857 128.062063 
L 193.371429 130.453248 
L 201.6 132.113285 
L 209.828571 133.972795 
L 218.057143 136.213788 
L 226.285714 142.469929 
L 234.514286 153.09987 
L 242.742857 161.330155 
L 250.971429 167.809021 
L 259.2 172.460525 
L 267.428571 174.446237 
L 275.657143 173.568987 
L 283.885714 176.577699 
L 292.114286 182.096917 
L 300.342857 183.728533 
L 308.571429 178.18288 
L 316.8 172.82281 
L 325.028571 168.218422 
L 333.257143 161.625895 
L 341.485714 155.058315 
L 349.714286 155.419195 
L 357.942857 161.984121 
L 366.171429 166.73079 
L 374.4 175.787688 
L 382.628571 179.342416 
L 390.857143 183.872895 
L 399.085714 183.142456 
L 407.314286 190.616512 
L 415.542857 194.029692 
L 423.771429 198.395683 
L 432 199.407226 
L 440.228571 205.592401 
L 448.457143 213.840185 
L 456.685714 211.108455 
L 464.914286 203.43457 
L 473.142857 194.800308 
L 481.371429 194.285351 
L 489.6 193.477948 
" clip-path="url(#p47e0cdb1fd)" style="fill: none; stroke: #b200b2; stroke-opacity: 0.2; stroke-width: 1.5; stroke-linecap: square"/>
   </g>
   <g id="line2d_20">
    <path d="M 86.4 73.444469 
L 94.628571 73.444469 
L 102.857143 71.08917 
L 111.085714 61.071987 
L 119.314286 58.224985 
L 127.542857 55.5454 
L 135.771429 36.748207 
L 144 20.315321 
L 152.228571 19.602363 
L 160.457143 21.486646 
L 168.685714 23.821723 
L 176.914286 30.030144 
L 185.142857 42.700403 
L 193.371429 55.858704 
L 201.6 65.258799 
L 209.828571 62.004985 
L 218.057143 59.264474 
L 226.285714 61.53956 
L 234.514286 71.789645 
L 242.742857 77.177539 
L 250.971429 77.340142 
L 259.2 81.343981 
L 267.428571 85.425273 
L 275.657143 86.654097 
L 283.885714 88.190049 
L 292.114286 96.956098 
L 300.342857 98.612768 
L 308.571429 93.209809 
L 316.8 95.380263 
L 325.028571 95.555721 
L 333.257143 95.078451 
L 341.485714 94.744004 
L 349.714286 97.793306 
L 357.942857 109.914306 
L 366.171429 119.199238 
L 374.4 126.6356 
L 382.628571 129.838196 
L 390.857143 134.923091 
L 399.085714 138.822141 
L 407.314286 141.946966 
L 415.542857 143.357228 
L 423.771429 138.146308 
L 432 134.505374 
L 440.228571 134.570513 
L 448.457143 135.562376 
L 456.685714 138.266672 
L 464.914286 140.338381 
L 473.142857 143.286833 
L 481.371429 145.612428 
L 489.6 151.535297 
" clip-path="url(#p47e0cdb1fd)" style="fill: none; stroke: #b200b2; stroke-opacity: 0.2; stroke-width: 1.5; stroke-linecap: square"/>
   </g>
   <g id="line2d_21">
    <path d="M 86.4 361.672359 
L 94.628571 360.927107 
L 102.857143 352.982838 
L 111.085714 338.803196 
L 119.314286 320.783164 
L 127.542857 340.151835 
L 135.771429 340.971495 
L 144 341.293965 
L 152.228571 334.452272 
L 160.457143 319.444715 
L 168.685714 305.880731 
L 176.914286 305.997843 
L 185.142857 311.848859 
L 193.371429 307.428217 
L 201.6 296.488466 
L 209.828571 286.647246 
L 218.057143 285.755885 
L 226.285714 276.030218 
L 234.514286 267.776575 
L 242.742857 271.347524 
L 250.971429 288.507859 
L 259.2 303.556444 
L 267.428571 312.811674 
L 275.657143 314.121768 
L 283.885714 317.930569 
L 292.114286 328.077529 
L 300.342857 332.823151 
L 308.571429 337.676221 
L 316.8 333.810327 
L 325.028571 329.262243 
L 333.257143 334.674251 
L 341.485714 346.401908 
L 349.714286 347.764552 
L 357.942857 358.079007 
L 366.171429 368.729051 
L 374.4 362.595738 
L 382.628571 353.107227 
L 390.857143 336.932062 
L 399.085714 322.223515 
L 407.314286 305.253283 
L 415.542857 294.834395 
L 423.771429 293.148892 
L 432 292.495045 
L 440.228571 293.792333 
L 448.457143 296.442326 
L 456.685714 303.399087 
L 464.914286 320.7523 
L 473.142857 324.559998 
L 481.371429 336.968036 
L 489.6 347.235357 
" clip-path="url(#p47e0cdb1fd)" style="fill: none; stroke: #b200b2; stroke-opacity: 0.2; stroke-width: 1.5; stroke-linecap: square"/>
   </g>
   <g id="line2d_22">
    <path d="M 86.4 93.595977 
L 94.628571 72.041527 
L 102.857143 36.73061 
L 111.085714 19.794209 
L 119.314286 44.493209 
L 127.542857 90.894832 
L 135.771429 109.695046 
L 144 119.014336 
L 152.228571 146.008347 
L 160.457143 175.912523 
L 168.685714 210.731296 
L 176.914286 240.976116 
L 185.142857 251.621931 
L 193.371429 229.574905 
L 201.6 217.78509 
L 209.828571 206.842812 
L 218.057143 189.100398 
L 226.285714 173.161817 
L 234.514286 150.765322 
L 242.742857 132.00265 
L 250.971429 111.451711 
L 259.2 112.233707 
L 267.428571 119.519478 
L 275.657143 127.870621 
L 283.885714 141.468633 
L 292.114286 156.897384 
L 300.342857 160.432577 
L 308.571429 150.745551 
L 316.8 140.973614 
L 325.028571 135.69228 
L 333.257143 136.201458 
L 341.485714 138.177291 
L 349.714286 130.759427 
L 357.942857 121.502173 
L 366.171429 116.41421 
L 374.4 118.421541 
L 382.628571 121.401338 
L 390.857143 117.715708 
L 399.085714 113.008618 
L 407.314286 108.821802 
L 415.542857 108.47531 
L 423.771429 101.366417 
L 432 98.031917 
L 440.228571 100.365312 
L 448.457143 104.677397 
L 456.685714 99.697574 
L 464.914286 93.958315 
L 473.142857 94.090443 
L 481.371429 104.985028 
L 489.6 111.493273 
" clip-path="url(#p47e0cdb1fd)" style="fill: none; stroke: #b200b2; stroke-opacity: 0.2; stroke-width: 1.5; stroke-linecap: square"/>
   </g>
   <g id="line2d_23">
    <path d="M 86.4 167.131757 
L 94.628571 166.8782 
L 102.857143 176.327094 
L 111.085714 191.309199 
L 119.314286 201.112847 
L 127.542857 217.357692 
L 135.771429 227.826454 
L 144 235.058513 
L 152.228571 236.116775 
L 160.457143 236.336846 
L 168.685714 214.305303 
L 176.914286 206.852892 
L 185.142857 193.922399 
L 193.371429 180.89108 
L 201.6 175.005532 
L 209.828571 171.106759 
L 218.057143 160.136613 
L 226.285714 143.411234 
L 234.514286 126.642768 
L 242.742857 110.742508 
L 250.971429 116.723798 
L 259.2 124.987742 
L 267.428571 124.518395 
L 275.657143 120.106818 
L 283.885714 121.277959 
L 292.114286 117.684372 
L 300.342857 111.888933 
L 308.571429 105.104507 
L 316.8 105.003365 
L 325.028571 101.810464 
L 333.257143 101.854071 
L 341.485714 107.336962 
L 349.714286 119.017288 
L 357.942857 139.823762 
L 366.171429 169.487728 
L 374.4 197.256583 
L 382.628571 220.544837 
L 390.857143 228.953619 
L 399.085714 213.195524 
L 407.314286 178.105704 
L 415.542857 157.482818 
L 423.771429 152.878964 
L 432 156.277853 
L 440.228571 170.230399 
L 448.457143 176.966063 
L 456.685714 190.288524 
L 464.914286 207.423683 
L 473.142857 216.723291 
L 481.371429 226.186348 
L 489.6 231.11162 
" clip-path="url(#p47e0cdb1fd)" style="fill: none; stroke: #b200b2; stroke-opacity: 0.2; stroke-width: 1.5; stroke-linecap: square"/>
   </g>
   <g id="line2d_24">
    <path d="M 227.479179 -1 
L 234.514286 9.2662 
L 242.742857 31.214865 
L 250.971429 50.312419 
L 259.2 54.957589 
L 267.428571 55.09389 
L 275.657143 54.804513 
L 283.885714 49.342019 
L 292.114286 33.024611 
L 300.342857 24.174584 
L 308.571429 13.422344 
L 316.8 11.100288 
L 325.028571 14.329363 
L 333.257143 21.797731 
L 341.485714 21.766759 
L 349.714286 26.755215 
L 357.942857 33.649467 
L 366.171429 30.105012 
L 374.4 21.622911 
L 382.628571 26.835279 
L 390.857143 36.580797 
L 399.085714 33.499654 
L 407.314286 33.415245 
L 415.542857 33.692574 
L 423.771429 34.115535 
L 432 38.242891 
L 440.228571 42.29883 
L 448.457143 32.58972 
L 456.685714 13.215542 
L 462.069538 -1 
" clip-path="url(#p47e0cdb1fd)" style="fill: none; stroke: #b200b2; stroke-opacity: 0.2; stroke-width: 1.5; stroke-linecap: square"/>
   </g>
   <g id="line2d_25">
    <path d="M 86.4 83.983737 
L 94.628571 79.039545 
L 102.857143 87.337708 
L 111.085714 93.0601 
L 119.314286 104.112494 
L 127.542857 112.896187 
L 135.771429 117.980432 
L 144 111.203255 
L 152.228571 102.731455 
L 160.457143 98.732528 
L 168.685714 100.135556 
L 176.914286 106.801469 
L 185.142857 116.775236 
L 193.371429 119.81281 
L 201.6 128.805757 
L 209.828571 126.604701 
L 218.057143 125.876455 
L 226.285714 123.98769 
L 234.514286 128.187467 
L 242.742857 134.342075 
L 250.971429 141.917409 
L 259.2 145.253011 
L 267.428571 145.014269 
L 275.657143 137.205216 
L 283.885714 128.533462 
L 292.114286 125.069471 
L 300.342857 120.085128 
L 308.571429 125.499979 
L 316.8 123.517343 
L 325.028571 121.159343 
L 333.257143 117.374482 
L 341.485714 115.043701 
L 349.714286 118.136808 
L 357.942857 127.458132 
L 366.171429 133.485687 
L 374.4 141.488096 
L 382.628571 147.450131 
L 390.857143 156.601686 
L 399.085714 162.924562 
L 407.314286 163.115206 
L 415.542857 162.826398 
L 423.771429 166.426826 
L 432 161.837085 
L 440.228571 165.358811 
L 448.457143 176.647783 
L 456.685714 190.791016 
L 464.914286 198.922832 
L 473.142857 194.390101 
L 481.371429 185.556468 
L 489.6 181.20192 
" clip-path="url(#p47e0cdb1fd)" style="fill: none; stroke: #b200b2; stroke-opacity: 0.2; stroke-width: 1.5; stroke-linecap: square"/>
   </g>
   <g id="line2d_26">
    <path d="M 86.4 317.050488 
L 94.628571 293.949991 
L 102.857143 277.577465 
L 111.085714 218.925519 
L 119.314286 185.63208 
L 127.542857 159.799084 
L 135.771429 125.172427 
L 144 111.32414 
L 152.228571 106.435156 
L 160.457143 108.691119 
L 168.685714 95.352603 
L 176.914286 100.15119 
L 185.142857 117.732055 
L 193.371429 132.255549 
L 201.6 150.422335 
L 209.828571 164.476844 
L 218.057143 161.560499 
L 226.285714 161.510585 
L 234.514286 169.26548 
L 242.742857 194.248244 
L 250.971429 188.915908 
L 259.2 184.943328 
L 267.428571 180.885607 
L 275.657143 176.636187 
L 283.885714 179.830064 
L 292.114286 185.329748 
L 300.342857 175.119406 
L 308.571429 174.64018 
L 316.8 183.58568 
L 325.028571 194.505669 
L 333.257143 204.579042 
L 341.485714 213.242371 
L 349.714286 205.858263 
L 357.942857 187.658248 
L 366.171429 151.88595 
L 374.4 128.713607 
L 382.628571 126.052527 
L 390.857143 114.336098 
L 399.085714 113.945213 
L 407.314286 133.769527 
L 415.542857 157.367195 
L 423.771429 162.582702 
L 432 163.427891 
L 440.228571 162.189886 
L 448.457143 154.367364 
L 456.685714 149.223267 
L 464.914286 143.928854 
L 473.142857 128.427831 
L 481.371429 130.537092 
L 489.6 138.688795 
" clip-path="url(#p47e0cdb1fd)" style="fill: none; stroke: #b200b2; stroke-opacity: 0.2; stroke-width: 1.5; stroke-linecap: square"/>
   </g>
   <g id="line2d_27">
    <path d="M 86.4 147.457375 
L 94.628571 117.079485 
L 102.857143 76.08388 
L 111.085714 58.634462 
L 119.314286 36.52052 
L 127.542857 18.973097 
L 135.771429 33.541027 
L 144 29.928618 
L 152.228571 38.152593 
L 160.457143 46.308289 
L 168.685714 64.570263 
L 176.914286 85.386199 
L 185.142857 89.713897 
L 193.371429 104.522522 
L 201.6 104.291413 
L 209.828571 89.513161 
L 218.057143 89.393132 
L 226.285714 94.575222 
L 234.514286 95.329182 
L 242.742857 85.112108 
L 250.971429 73.186071 
L 259.2 75.228435 
L 267.428571 76.594754 
L 275.657143 68.024474 
L 283.885714 60.866306 
L 292.114286 55.538178 
L 300.342857 61.654813 
L 308.571429 73.569455 
L 316.8 86.553932 
L 325.028571 93.581699 
L 333.257143 102.507317 
L 341.485714 108.049277 
L 349.714286 122.385487 
L 357.942857 135.618147 
L 366.171429 142.507344 
L 374.4 160.186879 
L 382.628571 170.863227 
L 390.857143 185.006943 
L 399.085714 200.045126 
L 407.314286 206.332237 
L 415.542857 202.59197 
L 423.771429 194.079658 
L 432 193.514402 
L 440.228571 194.897663 
L 448.457143 187.451235 
L 456.685714 177.167131 
L 464.914286 175.521227 
L 473.142857 179.525156 
L 481.371429 189.260218 
L 489.6 210.398285 
" clip-path="url(#p47e0cdb1fd)" style="fill: none; stroke: #b200b2; stroke-opacity: 0.2; stroke-width: 1.5; stroke-linecap: square"/>
   </g>
   <g id="line2d_28">
    <path d="M 167.04 241.92 
L 167.04 40.32 
" clip-path="url(#p47e0cdb1fd)" style="fill: none; stroke-dasharray: 5.55,2.4; stroke-dashoffset: 0; stroke: #000000; stroke-width: 1.5"/>
   </g>
   <g id="line2d_29">
    <path d="M 86.4 141.12 
L 489.6 141.12 
" clip-path="url(#p47e0cdb1fd)" style="fill: none; stroke-dasharray: 5.55,2.4; stroke-dashoffset: 0; stroke: #000000; stroke-width: 1.5"/>
   </g>
   <g id="patch_3">
    <path d="M 82.4 241.92 
L 82.4 40.32 
" style="fill: none; stroke: #000000; stroke-width: 0.8; stroke-linejoin: miter; stroke-linecap: square"/>
   </g>
   <g id="patch_4">
    <path d="M 86.4 245.92 
L 489.6 245.92 
" style="fill: none; stroke: #000000; stroke-width: 0.8; stroke-linejoin: miter; stroke-linecap: square"/>
   </g>
   <g id="text_11">
    <!-- all depths -->
    <g transform="translate(268.328125 34.32) scale(0.08 -0.08)">
     <defs>
      <path id="DejaVuSans-6c" d="M 603 4863 
L 1178 4863 
L 1178 0 
L 603 0 
L 603 4863 
z
" transform="scale(0.015625)"/>
      <path id="DejaVuSans-64" d="M 2906 2969 
L 2906 4863 
L 3481 4863 
L 3481 0 
L 2906 0 
L 2906 525 
Q 2725 213 2448 61 
Q 2172 -91 1784 -91 
Q 1150 -91 751 415 
Q 353 922 353 1747 
Q 353 2572 751 3078 
Q 1150 3584 1784 3584 
Q 2172 3584 2448 3432 
Q 2725 3281 2906 2969 
z
M 947 1747 
Q 947 1113 1208 752 
Q 1469 391 1925 391 
Q 2381 391 2643 752 
Q 2906 1113 2906 1747 
Q 2906 2381 2643 2742 
Q 2381 3103 1925 3103 
Q 1469 3103 1208 2742 
Q 947 2381 947 1747 
z
" transform="scale(0.015625)"/>
      <path id="DejaVuSans-70" d="M 1159 525 
L 1159 -1331 
L 581 -1331 
L 581 3500 
L 1159 3500 
L 1159 2969 
Q 1341 3281 1617 3432 
Q 1894 3584 2278 3584 
Q 2916 3584 3314 3078 
Q 3713 2572 3713 1747 
Q 3713 922 3314 415 
Q 2916 -91 2278 -91 
Q 1894 -91 1617 61 
Q 1341 213 1159 525 
z
M 3116 1747 
Q 3116 2381 2855 2742 
Q 2594 3103 2138 3103 
Q 1681 3103 1420 2742 
Q 1159 2381 1159 1747 
Q 1159 1113 1420 752 
Q 1681 391 2138 391 
Q 2594 391 2855 752 
Q 3116 1113 3116 1747 
z
" transform="scale(0.015625)"/>
      <path id="DejaVuSans-74" d="M 1172 4494 
L 1172 3500 
L 2356 3500 
L 2356 3053 
L 1172 3053 
L 1172 1153 
Q 1172 725 1289 603 
Q 1406 481 1766 481 
L 2356 481 
L 2356 0 
L 1766 0 
Q 1100 0 847 248 
Q 594 497 594 1153 
L 594 3053 
L 172 3053 
L 172 3500 
L 594 3500 
L 594 4494 
L 1172 4494 
z
" transform="scale(0.015625)"/>
      <path id="DejaVuSans-73" d="M 2834 3397 
L 2834 2853 
Q 2591 2978 2328 3040 
Q 2066 3103 1784 3103 
Q 1356 3103 1142 2972 
Q 928 2841 928 2578 
Q 928 2378 1081 2264 
Q 1234 2150 1697 2047 
L 1894 2003 
Q 2506 1872 2764 1633 
Q 3022 1394 3022 966 
Q 3022 478 2636 193 
Q 2250 -91 1575 -91 
Q 1294 -91 989 -36 
Q 684 19 347 128 
L 347 722 
Q 666 556 975 473 
Q 1284 391 1588 391 
Q 1994 391 2212 530 
Q 2431 669 2431 922 
Q 2431 1156 2273 1281 
Q 2116 1406 1581 1522 
L 1381 1569 
Q 847 1681 609 1914 
Q 372 2147 372 2553 
Q 372 3047 722 3315 
Q 1072 3584 1716 3584 
Q 2034 3584 2315 3537 
Q 2597 3491 2834 3397 
z
" transform="scale(0.015625)"/>
     </defs>
     <use xlink:href="#DejaVuSans-61"/>
     <use xlink:href="#DejaVuSans-6c" x="61.279297"/>
     <use xlink:href="#DejaVuSans-6c" x="89.0625"/>
     <use xlink:href="#DejaVuSans-20" x="116.845703"/>
     <use xlink:href="#DejaVuSans-64" x="148.632812"/>
     <use xlink:href="#DejaVuSans-65" x="212.109375"/>
     <use xlink:href="#DejaVuSans-70" x="273.632812"/>
     <use xlink:href="#DejaVuSans-74" x="337.109375"/>
     <use xlink:href="#DejaVuSans-68" x="376.318359"/>
     <use xlink:href="#DejaVuSans-73" x="439.697266"/>
    </g>
   </g>
   <g id="legend_1">
    <g id="patch_5">
     <path d="M 224.913281 236.92 
L 351.086719 236.92 
Q 353.086719 236.92 353.086719 234.92 
L 353.086719 220.96375 
Q 353.086719 218.96375 351.086719 218.96375 
L 224.913281 218.96375 
Q 222.913281 218.96375 222.913281 220.96375 
L 222.913281 234.92 
Q 222.913281 236.92 224.913281 236.92 
z
" style="fill: #ffffff; opacity: 0.8; stroke: #cccccc; stroke-linejoin: miter"/>
    </g>
    <g id="line2d_30">
     <path d="M 226.913281 227.062187 
L 236.913281 227.062187 
L 246.913281 227.062187 
" style="fill: none; stroke: #b200b2; stroke-width: 1.5; stroke-linecap: square"/>
    </g>
    <g id="text_12">
     <!-- fgm_gPPI_deep_V1 -->
     <g transform="translate(254.913281 230.562187) scale(0.1 -0.1)">
      <defs>
       <path id="DejaVuSans-66" d="M 2375 4863 
L 2375 4384 
L 1825 4384 
Q 1516 4384 1395 4259 
Q 1275 4134 1275 3809 
L 1275 3500 
L 2222 3500 
L 2222 3053 
L 1275 3053 
L 1275 0 
L 697 0 
L 697 3053 
L 147 3053 
L 147 3500 
L 697 3500 
L 697 3744 
Q 697 4328 969 4595 
Q 1241 4863 1831 4863 
L 2375 4863 
z
" transform="scale(0.015625)"/>
       <path id="DejaVuSans-6d" d="M 3328 2828 
Q 3544 3216 3844 3400 
Q 4144 3584 4550 3584 
Q 5097 3584 5394 3201 
Q 5691 2819 5691 2113 
L 5691 0 
L 5113 0 
L 5113 2094 
Q 5113 2597 4934 2840 
Q 4756 3084 4391 3084 
Q 3944 3084 3684 2787 
Q 3425 2491 3425 1978 
L 3425 0 
L 2847 0 
L 2847 2094 
Q 2847 2600 2669 2842 
Q 2491 3084 2119 3084 
Q 1678 3084 1418 2786 
Q 1159 2488 1159 1978 
L 1159 0 
L 581 0 
L 581 3500 
L 1159 3500 
L 1159 2956 
Q 1356 3278 1631 3431 
Q 1906 3584 2284 3584 
Q 2666 3584 2933 3390 
Q 3200 3197 3328 2828 
z
" transform="scale(0.015625)"/>
       <path id="DejaVuSans-5f" d="M 3263 -1063 
L 3263 -1509 
L -63 -1509 
L -63 -1063 
L 3263 -1063 
z
" transform="scale(0.015625)"/>
       <path id="DejaVuSans-50" d="M 1259 4147 
L 1259 2394 
L 2053 2394 
Q 2494 2394 2734 2622 
Q 2975 2850 2975 3272 
Q 2975 3691 2734 3919 
Q 2494 4147 2053 4147 
L 1259 4147 
z
M 628 4666 
L 2053 4666 
Q 2838 4666 3239 4311 
Q 3641 3956 3641 3272 
Q 3641 2581 3239 2228 
Q 2838 1875 2053 1875 
L 1259 1875 
L 1259 0 
L 628 0 
L 628 4666 
z
" transform="scale(0.015625)"/>
       <path id="DejaVuSans-49" d="M 628 4666 
L 1259 4666 
L 1259 0 
L 628 0 
L 628 4666 
z
" transform="scale(0.015625)"/>
       <path id="DejaVuSans-56" d="M 1831 0 
L 50 4666 
L 709 4666 
L 2188 738 
L 3669 4666 
L 4325 4666 
L 2547 0 
L 1831 0 
z
" transform="scale(0.015625)"/>
      </defs>
      <use xlink:href="#DejaVuSans-66"/>
      <use xlink:href="#DejaVuSans-67" x="35.205078"/>
      <use xlink:href="#DejaVuSans-6d" x="98.681641"/>
      <use xlink:href="#DejaVuSans-5f" x="196.09375"/>
      <use xlink:href="#DejaVuSans-67" x="246.09375"/>
      <use xlink:href="#DejaVuSans-50" x="309.570312"/>
      <use xlink:href="#DejaVuSans-50" x="369.873047"/>
      <use xlink:href="#DejaVuSans-49" x="430.175781"/>
      <use xlink:href="#DejaVuSans-5f" x="459.667969"/>
      <use xlink:href="#DejaVuSans-64" x="509.667969"/>
      <use xlink:href="#DejaVuSans-65" x="573.144531"/>
      <use xlink:href="#DejaVuSans-65" x="634.667969"/>
      <use xlink:href="#DejaVuSans-70" x="696.191406"/>
      <use xlink:href="#DejaVuSans-5f" x="759.667969"/>
      <use xlink:href="#DejaVuSans-56" x="809.667969"/>
      <use xlink:href="#DejaVuSans-31" x="878.076172"/>
     </g>
    </g>
   </g>
  </g>
  <g id="axes_2">
   <g id="patch_6">
    <path d="M 86.4 443.52 
L 489.6 443.52 
L 489.6 292.32 
L 86.4 292.32 
z
" style="fill: #ffffff"/>
   </g>
   <g id="patch_7">
    <path d="M 90.432 367.92 
L 163.008 367.92 
L 163.008 387.033978 
L 90.432 387.033978 
z
" clip-path="url(#p2f4e9ff2fa)" style="fill: #b200b2; opacity: 0.6"/>
   </g>
   <g id="patch_8">
    <path d="M 171.072 367.92 
L 243.648 367.92 
L 243.648 359.000585 
L 171.072 359.000585 
z
" clip-path="url(#p2f4e9ff2fa)" style="fill: #b200b2; opacity: 0.6"/>
   </g>
   <g id="patch_9">
    <path d="M 251.712 367.92 
L 324.288 367.92 
L 324.288 342.806138 
L 251.712 342.806138 
z
" clip-path="url(#p2f4e9ff2fa)" style="fill: #b200b2; opacity: 0.6"/>
   </g>
   <g id="patch_10">
    <path d="M 332.352 367.92 
L 404.928 367.92 
L 404.928 372.679611 
L 332.352 372.679611 
z
" clip-path="url(#p2f4e9ff2fa)" style="fill: #b200b2; opacity: 0.6"/>
   </g>
   <g id="patch_11">
    <path d="M 412.992 367.92 
L 485.568 367.92 
L 485.568 380.564759 
L 412.992 380.564759 
z
" clip-path="url(#p2f4e9ff2fa)" style="fill: #b200b2; opacity: 0.6"/>
   </g>
   <g id="matplotlib.axis_3">
    <g id="xtick_7">
     <g id="line2d_31">
      <g>
       <use xlink:href="#m09c8c2cc81" x="86.4" y="447.52" style="stroke: #000000; stroke-width: 0.8"/>
      </g>
     </g>
     <g id="text_13">
      <!-- 0 -->
      <g transform="translate(83.21875 462.118438) scale(0.1 -0.1)">
       <use xlink:href="#DejaVuSans-30"/>
      </g>
     </g>
    </g>
    <g id="xtick_8">
     <g id="line2d_32">
      <g>
       <use xlink:href="#m09c8c2cc81" x="167.04" y="447.52" style="stroke: #000000; stroke-width: 0.8"/>
      </g>
     </g>
     <g id="text_14">
      <!-- 1 -->
      <g transform="translate(163.85875 462.118438) scale(0.1 -0.1)">
       <use xlink:href="#DejaVuSans-31"/>
      </g>
     </g>
    </g>
    <g id="xtick_9">
     <g id="line2d_33">
      <g>
       <use xlink:href="#m09c8c2cc81" x="247.68" y="447.52" style="stroke: #000000; stroke-width: 0.8"/>
      </g>
     </g>
     <g id="text_15">
      <!-- 2 -->
      <g transform="translate(244.49875 462.118438) scale(0.1 -0.1)">
       <use xlink:href="#DejaVuSans-32"/>
      </g>
     </g>
    </g>
    <g id="xtick_10">
     <g id="line2d_34">
      <g>
       <use xlink:href="#m09c8c2cc81" x="328.32" y="447.52" style="stroke: #000000; stroke-width: 0.8"/>
      </g>
     </g>
     <g id="text_16">
      <!-- 3 -->
      <g transform="translate(325.13875 462.118438) scale(0.1 -0.1)">
       <defs>
        <path id="DejaVuSans-33" d="M 2597 2516 
Q 3050 2419 3304 2112 
Q 3559 1806 3559 1356 
Q 3559 666 3084 287 
Q 2609 -91 1734 -91 
Q 1441 -91 1130 -33 
Q 819 25 488 141 
L 488 750 
Q 750 597 1062 519 
Q 1375 441 1716 441 
Q 2309 441 2620 675 
Q 2931 909 2931 1356 
Q 2931 1769 2642 2001 
Q 2353 2234 1838 2234 
L 1294 2234 
L 1294 2753 
L 1863 2753 
Q 2328 2753 2575 2939 
Q 2822 3125 2822 3475 
Q 2822 3834 2567 4026 
Q 2313 4219 1838 4219 
Q 1578 4219 1281 4162 
Q 984 4106 628 3988 
L 628 4550 
Q 988 4650 1302 4700 
Q 1616 4750 1894 4750 
Q 2613 4750 3031 4423 
Q 3450 4097 3450 3541 
Q 3450 3153 3228 2886 
Q 3006 2619 2597 2516 
z
" transform="scale(0.015625)"/>
       </defs>
       <use xlink:href="#DejaVuSans-33"/>
      </g>
     </g>
    </g>
    <g id="xtick_11">
     <g id="line2d_35">
      <g>
       <use xlink:href="#m09c8c2cc81" x="408.96" y="447.52" style="stroke: #000000; stroke-width: 0.8"/>
      </g>
     </g>
     <g id="text_17">
      <!-- 4 -->
      <g transform="translate(405.77875 462.118438) scale(0.1 -0.1)">
       <defs>
        <path id="DejaVuSans-34" d="M 2419 4116 
L 825 1625 
L 2419 1625 
L 2419 4116 
z
M 2253 4666 
L 3047 4666 
L 3047 1625 
L 3713 1625 
L 3713 1100 
L 3047 1100 
L 3047 0 
L 2419 0 
L 2419 1100 
L 313 1100 
L 313 1709 
L 2253 4666 
z
" transform="scale(0.015625)"/>
       </defs>
       <use xlink:href="#DejaVuSans-34"/>
      </g>
     </g>
    </g>
    <g id="xtick_12">
     <g id="line2d_36">
      <g>
       <use xlink:href="#m09c8c2cc81" x="489.6" y="447.52" style="stroke: #000000; stroke-width: 0.8"/>
      </g>
     </g>
     <g id="text_18">
      <!-- 5 -->
      <g transform="translate(486.41875 462.118438) scale(0.1 -0.1)">
       <use xlink:href="#DejaVuSans-35"/>
      </g>
     </g>
    </g>
    <g id="text_19">
     <!-- relative distance from ROI center ($\sigma$) -->
     <g transform="translate(214.48 474.276875) scale(0.08 -0.08)">
      <defs>
       <path id="DejaVuSans-72" d="M 2631 2963 
Q 2534 3019 2420 3045 
Q 2306 3072 2169 3072 
Q 1681 3072 1420 2755 
Q 1159 2438 1159 1844 
L 1159 0 
L 581 0 
L 581 3500 
L 1159 3500 
L 1159 2956 
Q 1341 3275 1631 3429 
Q 1922 3584 2338 3584 
Q 2397 3584 2469 3576 
Q 2541 3569 2628 3553 
L 2631 2963 
z
" transform="scale(0.015625)"/>
       <path id="DejaVuSans-69" d="M 603 3500 
L 1178 3500 
L 1178 0 
L 603 0 
L 603 3500 
z
M 603 4863 
L 1178 4863 
L 1178 4134 
L 603 4134 
L 603 4863 
z
" transform="scale(0.015625)"/>
       <path id="DejaVuSans-76" d="M 191 3500 
L 800 3500 
L 1894 563 
L 2988 3500 
L 3597 3500 
L 2284 0 
L 1503 0 
L 191 3500 
z
" transform="scale(0.015625)"/>
       <path id="DejaVuSans-6f" d="M 1959 3097 
Q 1497 3097 1228 2736 
Q 959 2375 959 1747 
Q 959 1119 1226 758 
Q 1494 397 1959 397 
Q 2419 397 2687 759 
Q 2956 1122 2956 1747 
Q 2956 2369 2687 2733 
Q 2419 3097 1959 3097 
z
M 1959 3584 
Q 2709 3584 3137 3096 
Q 3566 2609 3566 1747 
Q 3566 888 3137 398 
Q 2709 -91 1959 -91 
Q 1206 -91 779 398 
Q 353 888 353 1747 
Q 353 2609 779 3096 
Q 1206 3584 1959 3584 
z
" transform="scale(0.015625)"/>
       <path id="DejaVuSans-52" d="M 2841 2188 
Q 3044 2119 3236 1894 
Q 3428 1669 3622 1275 
L 4263 0 
L 3584 0 
L 2988 1197 
Q 2756 1666 2539 1819 
Q 2322 1972 1947 1972 
L 1259 1972 
L 1259 0 
L 628 0 
L 628 4666 
L 2053 4666 
Q 2853 4666 3247 4331 
Q 3641 3997 3641 3322 
Q 3641 2881 3436 2590 
Q 3231 2300 2841 2188 
z
M 1259 4147 
L 1259 2491 
L 2053 2491 
Q 2509 2491 2742 2702 
Q 2975 2913 2975 3322 
Q 2975 3731 2742 3939 
Q 2509 4147 2053 4147 
L 1259 4147 
z
" transform="scale(0.015625)"/>
       <path id="DejaVuSans-28" d="M 1984 4856 
Q 1566 4138 1362 3434 
Q 1159 2731 1159 2009 
Q 1159 1288 1364 580 
Q 1569 -128 1984 -844 
L 1484 -844 
Q 1016 -109 783 600 
Q 550 1309 550 2009 
Q 550 2706 781 3412 
Q 1013 4119 1484 4856 
L 1984 4856 
z
" transform="scale(0.015625)"/>
       <path id="DejaVuSans-Oblique-3c3" d="M 2219 3044 
Q 1744 3044 1422 2700 
Q 1081 2341 969 1747 
Q 844 1119 1044 756 
Q 1241 397 1706 397 
Q 2166 397 2503 759 
Q 2844 1122 2966 1747 
Q 3075 2319 2881 2700 
Q 2700 3044 2219 3044 
z
M 2309 3503 
L 4219 3500 
L 4106 2925 
L 3463 2925 
Q 3706 2438 3575 1747 
Q 3406 888 2884 400 
Q 2359 -91 1609 -91 
Q 856 -91 525 400 
Q 194 888 363 1747 
Q 528 2609 1050 3097 
Q 1484 3503 2309 3503 
z
" transform="scale(0.015625)"/>
       <path id="DejaVuSans-29" d="M 513 4856 
L 1013 4856 
Q 1481 4119 1714 3412 
Q 1947 2706 1947 2009 
Q 1947 1309 1714 600 
Q 1481 -109 1013 -844 
L 513 -844 
Q 928 -128 1133 580 
Q 1338 1288 1338 2009 
Q 1338 2731 1133 3434 
Q 928 4138 513 4856 
z
" transform="scale(0.015625)"/>
      </defs>
      <use xlink:href="#DejaVuSans-72" transform="translate(0 0.015625)"/>
      <use xlink:href="#DejaVuSans-65" transform="translate(41.113281 0.015625)"/>
      <use xlink:href="#DejaVuSans-6c" transform="translate(102.636719 0.015625)"/>
      <use xlink:href="#DejaVuSans-61" transform="translate(130.419922 0.015625)"/>
      <use xlink:href="#DejaVuSans-74" transform="translate(191.699219 0.015625)"/>
      <use xlink:href="#DejaVuSans-69" transform="translate(230.908203 0.015625)"/>
      <use xlink:href="#DejaVuSans-76" transform="translate(258.691406 0.015625)"/>
      <use xlink:href="#DejaVuSans-65" transform="translate(317.871094 0.015625)"/>
      <use xlink:href="#DejaVuSans-20" transform="translate(379.394531 0.015625)"/>
      <use xlink:href="#DejaVuSans-64" transform="translate(411.181641 0.015625)"/>
      <use xlink:href="#DejaVuSans-69" transform="translate(474.658203 0.015625)"/>
      <use xlink:href="#DejaVuSans-73" transform="translate(502.441406 0.015625)"/>
      <use xlink:href="#DejaVuSans-74" transform="translate(554.541016 0.015625)"/>
      <use xlink:href="#DejaVuSans-61" transform="translate(593.75 0.015625)"/>
      <use xlink:href="#DejaVuSans-6e" transform="translate(655.029297 0.015625)"/>
      <use xlink:href="#DejaVuSans-63" transform="translate(718.408203 0.015625)"/>
      <use xlink:href="#DejaVuSans-65" transform="translate(773.388672 0.015625)"/>
      <use xlink:href="#DejaVuSans-20" transform="translate(834.912109 0.015625)"/>
      <use xlink:href="#DejaVuSans-66" transform="translate(866.699219 0.015625)"/>
      <use xlink:href="#DejaVuSans-72" transform="translate(901.904297 0.015625)"/>
      <use xlink:href="#DejaVuSans-6f" transform="translate(943.017578 0.015625)"/>
      <use xlink:href="#DejaVuSans-6d" transform="translate(1004.199219 0.015625)"/>
      <use xlink:href="#DejaVuSans-20" transform="translate(1101.611328 0.015625)"/>
      <use xlink:href="#DejaVuSans-52" transform="translate(1133.398438 0.015625)"/>
      <use xlink:href="#DejaVuSans-4f" transform="translate(1202.880859 0.015625)"/>
      <use xlink:href="#DejaVuSans-49" transform="translate(1281.591797 0.015625)"/>
      <use xlink:href="#DejaVuSans-20" transform="translate(1311.083984 0.015625)"/>
      <use xlink:href="#DejaVuSans-63" transform="translate(1342.871094 0.015625)"/>
      <use xlink:href="#DejaVuSans-65" transform="translate(1397.851562 0.015625)"/>
      <use xlink:href="#DejaVuSans-6e" transform="translate(1459.375 0.015625)"/>
      <use xlink:href="#DejaVuSans-74" transform="translate(1522.753906 0.015625)"/>
      <use xlink:href="#DejaVuSans-65" transform="translate(1561.962891 0.015625)"/>
      <use xlink:href="#DejaVuSans-72" transform="translate(1623.486328 0.015625)"/>
      <use xlink:href="#DejaVuSans-20" transform="translate(1664.599609 0.015625)"/>
      <use xlink:href="#DejaVuSans-28" transform="translate(1696.386719 0.015625)"/>
      <use xlink:href="#DejaVuSans-Oblique-3c3" transform="translate(1735.400391 0.015625)"/>
      <use xlink:href="#DejaVuSans-29" transform="translate(1798.779297 0.015625)"/>
     </g>
    </g>
   </g>
   <g id="matplotlib.axis_4">
    <g id="ytick_10">
     <g id="line2d_37">
      <g>
       <use xlink:href="#md636eea1ce" x="82.4" y="443.52" style="stroke: #000000; stroke-width: 0.8"/>
      </g>
     </g>
     <g id="text_20">
      <!-- −1.0 -->
      <g transform="translate(51.117187 447.319219) scale(0.1 -0.1)">
       <use xlink:href="#DejaVuSans-2212"/>
       <use xlink:href="#DejaVuSans-31" x="83.789062"/>
       <use xlink:href="#DejaVuSans-2e" x="147.412109"/>
       <use xlink:href="#DejaVuSans-30" x="179.199219"/>
      </g>
     </g>
    </g>
    <g id="ytick_11">
     <g id="line2d_38">
      <g>
       <use xlink:href="#md636eea1ce" x="82.4" y="405.72" style="stroke: #000000; stroke-width: 0.8"/>
      </g>
     </g>
     <g id="text_21">
      <!-- −0.5 -->
      <g transform="translate(51.117187 409.519219) scale(0.1 -0.1)">
       <use xlink:href="#DejaVuSans-2212"/>
       <use xlink:href="#DejaVuSans-30" x="83.789062"/>
       <use xlink:href="#DejaVuSans-2e" x="147.412109"/>
       <use xlink:href="#DejaVuSans-35" x="179.199219"/>
      </g>
     </g>
    </g>
    <g id="ytick_12">
     <g id="line2d_39">
      <g>
       <use xlink:href="#md636eea1ce" x="82.4" y="367.92" style="stroke: #000000; stroke-width: 0.8"/>
      </g>
     </g>
     <g id="text_22">
      <!-- 0.0 -->
      <g transform="translate(59.496875 371.719219) scale(0.1 -0.1)">
       <use xlink:href="#DejaVuSans-30"/>
       <use xlink:href="#DejaVuSans-2e" x="63.623047"/>
       <use xlink:href="#DejaVuSans-30" x="95.410156"/>
      </g>
     </g>
    </g>
    <g id="ytick_13">
     <g id="line2d_40">
      <g>
       <use xlink:href="#md636eea1ce" x="82.4" y="330.12" style="stroke: #000000; stroke-width: 0.8"/>
      </g>
     </g>
     <g id="text_23">
      <!-- 0.5 -->
      <g transform="translate(59.496875 333.919219) scale(0.1 -0.1)">
       <use xlink:href="#DejaVuSans-30"/>
       <use xlink:href="#DejaVuSans-2e" x="63.623047"/>
       <use xlink:href="#DejaVuSans-35" x="95.410156"/>
      </g>
     </g>
    </g>
    <g id="ytick_14">
     <g id="line2d_41">
      <g>
       <use xlink:href="#md636eea1ce" x="82.4" y="292.32" style="stroke: #000000; stroke-width: 0.8"/>
      </g>
     </g>
     <g id="text_24">
      <!-- 1.0 -->
      <g transform="translate(59.496875 296.119219) scale(0.1 -0.1)">
       <use xlink:href="#DejaVuSans-31"/>
       <use xlink:href="#DejaVuSans-2e" x="63.623047"/>
       <use xlink:href="#DejaVuSans-30" x="95.410156"/>
      </g>
     </g>
    </g>
    <g id="text_25">
     <!-- Binned Avg -->
     <g transform="translate(45.453437 390.525625) rotate(-90) scale(0.08 -0.08)">
      <defs>
       <path id="DejaVuSans-41" d="M 2188 4044 
L 1331 1722 
L 3047 1722 
L 2188 4044 
z
M 1831 4666 
L 2547 4666 
L 4325 0 
L 3669 0 
L 3244 1197 
L 1141 1197 
L 716 0 
L 50 0 
L 1831 4666 
z
" transform="scale(0.015625)"/>
      </defs>
      <use xlink:href="#DejaVuSans-42"/>
      <use xlink:href="#DejaVuSans-69" x="68.603516"/>
      <use xlink:href="#DejaVuSans-6e" x="96.386719"/>
      <use xlink:href="#DejaVuSans-6e" x="159.765625"/>
      <use xlink:href="#DejaVuSans-65" x="223.144531"/>
      <use xlink:href="#DejaVuSans-64" x="284.667969"/>
      <use xlink:href="#DejaVuSans-20" x="348.144531"/>
      <use xlink:href="#DejaVuSans-41" x="379.931641"/>
      <use xlink:href="#DejaVuSans-76" x="442.464844"/>
      <use xlink:href="#DejaVuSans-67" x="501.644531"/>
     </g>
    </g>
   </g>
   <g id="LineCollection_1">
    <path d="M 126.72 452.84539 
L 126.72 321.222566 
" clip-path="url(#p2f4e9ff2fa)" style="fill: none; stroke: #000000; stroke-width: 1.5"/>
    <path d="M 207.36 399.304774 
L 207.36 318.696395 
" clip-path="url(#p2f4e9ff2fa)" style="fill: none; stroke: #000000; stroke-width: 1.5"/>
    <path d="M 288 377.001652 
L 288 308.610625 
" clip-path="url(#p2f4e9ff2fa)" style="fill: none; stroke: #000000; stroke-width: 1.5"/>
    <path d="M 368.64 408.417529 
L 368.64 336.941693 
" clip-path="url(#p2f4e9ff2fa)" style="fill: none; stroke: #000000; stroke-width: 1.5"/>
    <path d="M 449.28 413.503997 
L 449.28 347.625522 
" clip-path="url(#p2f4e9ff2fa)" style="fill: none; stroke: #000000; stroke-width: 1.5"/>
   </g>
   <g id="line2d_42">
    <defs>
     <path id="m498dae49fe" d="M 5 0 
L -5 -0 
" style="stroke: #000000"/>
    </defs>
    <g clip-path="url(#p2f4e9ff2fa)">
     <use xlink:href="#m498dae49fe" x="126.72" y="452.84539" style="stroke: #000000"/>
     <use xlink:href="#m498dae49fe" x="207.36" y="399.304774" style="stroke: #000000"/>
     <use xlink:href="#m498dae49fe" x="288" y="377.001652" style="stroke: #000000"/>
     <use xlink:href="#m498dae49fe" x="368.64" y="408.417529" style="stroke: #000000"/>
     <use xlink:href="#m498dae49fe" x="449.28" y="413.503997" style="stroke: #000000"/>
    </g>
   </g>
   <g id="line2d_43">
    <g clip-path="url(#p2f4e9ff2fa)">
     <use xlink:href="#m498dae49fe" x="126.72" y="321.222566" style="stroke: #000000"/>
     <use xlink:href="#m498dae49fe" x="207.36" y="318.696395" style="stroke: #000000"/>
     <use xlink:href="#m498dae49fe" x="288" y="308.610625" style="stroke: #000000"/>
     <use xlink:href="#m498dae49fe" x="368.64" y="336.941693" style="stroke: #000000"/>
     <use xlink:href="#m498dae49fe" x="449.28" y="347.625522" style="stroke: #000000"/>
    </g>
   </g>
   <g id="line2d_44">
    <path d="M 86.4 367.92 
L 489.6 367.92 
" clip-path="url(#p2f4e9ff2fa)" style="fill: none; stroke-dasharray: 5.55,2.4; stroke-dashoffset: 0; stroke: #000000; stroke-width: 1.5"/>
   </g>
   <g id="patch_12">
    <path d="M 82.4 443.52 
L 82.4 292.32 
" style="fill: none; stroke: #000000; stroke-width: 0.8; stroke-linejoin: miter; stroke-linecap: square"/>
   </g>
   <g id="patch_13">
    <path d="M 86.4 447.52 
L 489.6 447.52 
" style="fill: none; stroke: #000000; stroke-width: 0.8; stroke-linejoin: miter; stroke-linecap: square"/>
   </g>
  </g>
 </g>
 <defs>
  <clipPath id="p47e0cdb1fd">
   <rect x="86.4" y="40.32" width="403.2" height="201.6"/>
  </clipPath>
  <clipPath id="p2f4e9ff2fa">
   <rect x="86.4" y="292.32" width="403.2" height="151.2"/>
  </clipPath>
 </defs>
</svg>
