<?xml version="1.0" encoding="utf-8" standalone="no"?>
<!DOCTYPE svg PUBLIC "-//W3C//DTD SVG 1.1//EN"
  "http://www.w3.org/Graphics/SVG/1.1/DTD/svg11.dtd">
<svg xmlns:xlink="http://www.w3.org/1999/xlink" width="360pt" height="432pt" viewBox="0 0 360 432" xmlns="http://www.w3.org/2000/svg" version="1.1">
 <metadata>
  <rdf:RDF xmlns:dc="http://purl.org/dc/elements/1.1/" xmlns:cc="http://creativecommons.org/ns#" xmlns:rdf="http://www.w3.org/1999/02/22-rdf-syntax-ns#">
   <cc:Work>
    <dc:type rdf:resource="http://purl.org/dc/dcmitype/StillImage"/>
    <dc:date>2026-05-26T10:35:08.500824</dc:date>
    <dc:format>image/svg+xml</dc:format>
    <dc:creator>
     <cc:Agent>
      <dc:title>Matplotlib v3.8.0, https://matplotlib.org/</dc:title>
     </cc:Agent>
    </dc:creator>
   </cc:Work>
  </rdf:RDF>
 </metadata>
 <defs>
  <style type="text/css">*{stroke-linejoin: round; stroke-linecap: butt}</style>
 </defs>
 <g id="figure_1">
  <g id="patch_1">
   <path d="M 0 432 
L 360 432 
L 360 0 
L 0 0 
z
" style="fill: #ffffff"/>
  </g>
  <g id="axes_1">
   <g id="patch_2">
    <path d="M 54 388.8 
L 306 388.8 
L 306 302.4 
L 54 302.4 
z
" style="fill: #ffffff"/>
   </g>
   <g id="PolyCollection_1">
    <defs>
     <path id="meacc1e67d0" d="M 65.454545 -88.273407 
L 65.454545 -84.458587 
L 70.12987 -84.150145 
L 74.805195 -83.921217 
L 79.480519 -83.947689 
L 84.155844 -84.490358 
L 88.831169 -84.793512 
L 93.506494 -85.017191 
L 98.181818 -85.340157 
L 102.857143 -85.37737 
L 107.532468 -85.314462 
L 112.207792 -85.383295 
L 116.883117 -85.535766 
L 121.558442 -85.792632 
L 126.233766 -85.953383 
L 130.909091 -86.10414 
L 135.584416 -86.441082 
L 140.25974 -86.606878 
L 144.935065 -86.583041 
L 149.61039 -86.491864 
L 154.285714 -86.275319 
L 158.961039 -86.245126 
L 163.636364 -86.913395 
L 168.311688 -87.35999 
L 172.987013 -87.601056 
L 177.662338 -87.846992 
L 182.337662 -88.215553 
L 187.012987 -88.603039 
L 191.688312 -88.994457 
L 196.363636 -89.282086 
L 201.038961 -89.480311 
L 205.714286 -89.571375 
L 210.38961 -89.556553 
L 215.064935 -89.657455 
L 219.74026 -89.72647 
L 224.415584 -89.783253 
L 229.090909 -89.850463 
L 233.766234 -89.693979 
L 238.441558 -89.42147 
L 243.116883 -89.30538 
L 247.792208 -89.015927 
L 252.467532 -88.735623 
L 257.142857 -88.404263 
L 261.818182 -88.075586 
L 266.493506 -87.752364 
L 271.168831 -87.38415 
L 275.844156 -86.913526 
L 280.519481 -86.100464 
L 285.194805 -85.453641 
L 289.87013 -85.493736 
L 294.545455 -85.155463 
L 294.545455 -90.209219 
L 294.545455 -90.209219 
L 289.87013 -90.280438 
L 285.194805 -90.285074 
L 280.519481 -90.470957 
L 275.844156 -90.834705 
L 271.168831 -91.153815 
L 266.493506 -91.476852 
L 261.818182 -91.782525 
L 257.142857 -92.140777 
L 252.467532 -92.443914 
L 247.792208 -92.718984 
L 243.116883 -93.085531 
L 238.441558 -93.202602 
L 233.766234 -93.622328 
L 229.090909 -94.138861 
L 224.415584 -94.196529 
L 219.74026 -94.230358 
L 215.064935 -94.226685 
L 210.38961 -93.90263 
L 205.714286 -93.739958 
L 201.038961 -93.339317 
L 196.363636 -92.858117 
L 191.688312 -92.390273 
L 187.012987 -91.900027 
L 182.337662 -91.428144 
L 177.662338 -90.945227 
L 172.987013 -90.646718 
L 168.311688 -90.369582 
L 163.636364 -90.077375 
L 158.961039 -89.86258 
L 154.285714 -89.816228 
L 149.61039 -89.689141 
L 144.935065 -89.602239 
L 140.25974 -89.469392 
L 135.584416 -89.25871 
L 130.909091 -89.031894 
L 126.233766 -88.945256 
L 121.558442 -88.816573 
L 116.883117 -88.589686 
L 112.207792 -88.403792 
L 107.532468 -88.391994 
L 102.857143 -88.499789 
L 98.181818 -88.528152 
L 93.506494 -88.297534 
L 88.831169 -88.067423 
L 84.155844 -87.963392 
L 79.480519 -87.604826 
L 74.805195 -87.700206 
L 70.12987 -87.981173 
L 65.454545 -88.273407 
z
" style="stroke: #800080; stroke-opacity: 0.4"/>
    </defs>
    <g clip-path="url(#p01b110d7aa)">
     <use xlink:href="#meacc1e67d0" x="0" y="432" style="fill: #800080; fill-opacity: 0.4; stroke: #800080; stroke-opacity: 0.4"/>
    </g>
   </g>
   <g id="matplotlib.axis_1">
    <g id="xtick_1">
     <g id="line2d_1">
      <defs>
       <path id="m8ec0d9d53f" d="M 0 0 
L 0 3.5 
" style="stroke: #000000; stroke-width: 0.8"/>
      </defs>
      <g>
       <use xlink:href="#m8ec0d9d53f" x="65.454545" y="392.8" style="stroke: #000000; stroke-width: 0.8"/>
      </g>
     </g>
     <g id="text_1">
      <!-- 0 -->
      <g transform="translate(62.273295 407.398438) scale(0.1 -0.1)">
       <defs>
        <path id="DejaVuSans-30" d="M 2034 4250 
Q 1547 4250 1301 3770 
Q 1056 3291 1056 2328 
Q 1056 1369 1301 889 
Q 1547 409 2034 409 
Q 2525 409 2770 889 
Q 3016 1369 3016 2328 
Q 3016 3291 2770 3770 
Q 2525 4250 2034 4250 
z
M 2034 4750 
Q 2819 4750 3233 4129 
Q 3647 3509 3647 2328 
Q 3647 1150 3233 529 
Q 2819 -91 2034 -91 
Q 1250 -91 836 529 
Q 422 1150 422 2328 
Q 422 3509 836 4129 
Q 1250 4750 2034 4750 
z
" transform="scale(0.015625)"/>
       </defs>
       <use xlink:href="#DejaVuSans-30"/>
      </g>
     </g>
    </g>
    <g id="xtick_2">
     <g id="line2d_2">
      <g>
       <use xlink:href="#m8ec0d9d53f" x="111.272727" y="392.8" style="stroke: #000000; stroke-width: 0.8"/>
      </g>
     </g>
     <g id="text_2">
      <!-- 1 -->
      <g transform="translate(108.091477 407.398438) scale(0.1 -0.1)">
       <defs>
        <path id="DejaVuSans-31" d="M 794 531 
L 1825 531 
L 1825 4091 
L 703 3866 
L 703 4441 
L 1819 4666 
L 2450 4666 
L 2450 531 
L 3481 531 
L 3481 0 
L 794 0 
L 794 531 
z
" transform="scale(0.015625)"/>
       </defs>
       <use xlink:href="#DejaVuSans-31"/>
      </g>
     </g>
    </g>
    <g id="xtick_3">
     <g id="line2d_3">
      <g>
       <use xlink:href="#m8ec0d9d53f" x="157.090909" y="392.8" style="stroke: #000000; stroke-width: 0.8"/>
      </g>
     </g>
     <g id="text_3">
      <!-- 2 -->
      <g transform="translate(153.909659 407.398438) scale(0.1 -0.1)">
       <defs>
        <path id="DejaVuSans-32" d="M 1228 531 
L 3431 531 
L 3431 0 
L 469 0 
L 469 531 
Q 828 903 1448 1529 
Q 2069 2156 2228 2338 
Q 2531 2678 2651 2914 
Q 2772 3150 2772 3378 
Q 2772 3750 2511 3984 
Q 2250 4219 1831 4219 
Q 1534 4219 1204 4116 
Q 875 4013 500 3803 
L 500 4441 
Q 881 4594 1212 4672 
Q 1544 4750 1819 4750 
Q 2544 4750 2975 4387 
Q 3406 4025 3406 3419 
Q 3406 3131 3298 2873 
Q 3191 2616 2906 2266 
Q 2828 2175 2409 1742 
Q 1991 1309 1228 531 
z
" transform="scale(0.015625)"/>
       </defs>
       <use xlink:href="#DejaVuSans-32"/>
      </g>
     </g>
    </g>
    <g id="xtick_4">
     <g id="line2d_4">
      <g>
       <use xlink:href="#m8ec0d9d53f" x="202.909091" y="392.8" style="stroke: #000000; stroke-width: 0.8"/>
      </g>
     </g>
     <g id="text_4">
      <!-- 3 -->
      <g transform="translate(199.727841 407.398438) scale(0.1 -0.1)">
       <defs>
        <path id="DejaVuSans-33" d="M 2597 2516 
Q 3050 2419 3304 2112 
Q 3559 1806 3559 1356 
Q 3559 666 3084 287 
Q 2609 -91 1734 -91 
Q 1441 -91 1130 -33 
Q 819 25 488 141 
L 488 750 
Q 750 597 1062 519 
Q 1375 441 1716 441 
Q 2309 441 2620 675 
Q 2931 909 2931 1356 
Q 2931 1769 2642 2001 
Q 2353 2234 1838 2234 
L 1294 2234 
L 1294 2753 
L 1863 2753 
Q 2328 2753 2575 2939 
Q 2822 3125 2822 3475 
Q 2822 3834 2567 4026 
Q 2313 4219 1838 4219 
Q 1578 4219 1281 4162 
Q 984 4106 628 3988 
L 628 4550 
Q 988 4650 1302 4700 
Q 1616 4750 1894 4750 
Q 2613 4750 3031 4423 
Q 3450 4097 3450 3541 
Q 3450 3153 3228 2886 
Q 3006 2619 2597 2516 
z
" transform="scale(0.015625)"/>
       </defs>
       <use xlink:href="#DejaVuSans-33"/>
      </g>
     </g>
    </g>
    <g id="xtick_5">
     <g id="line2d_5">
      <g>
       <use xlink:href="#m8ec0d9d53f" x="248.727273" y="392.8" style="stroke: #000000; stroke-width: 0.8"/>
      </g>
     </g>
     <g id="text_5">
      <!-- 4 -->
      <g transform="translate(245.546023 407.398438) scale(0.1 -0.1)">
       <defs>
        <path id="DejaVuSans-34" d="M 2419 4116 
L 825 1625 
L 2419 1625 
L 2419 4116 
z
M 2253 4666 
L 3047 4666 
L 3047 1625 
L 3713 1625 
L 3713 1100 
L 3047 1100 
L 3047 0 
L 2419 0 
L 2419 1100 
L 313 1100 
L 313 1709 
L 2253 4666 
z
" transform="scale(0.015625)"/>
       </defs>
       <use xlink:href="#DejaVuSans-34"/>
      </g>
     </g>
    </g>
    <g id="xtick_6">
     <g id="line2d_6">
      <g>
       <use xlink:href="#m8ec0d9d53f" x="294.545455" y="392.8" style="stroke: #000000; stroke-width: 0.8"/>
      </g>
     </g>
     <g id="text_6">
      <!-- 5 -->
      <g transform="translate(291.364205 407.398438) scale(0.1 -0.1)">
       <defs>
        <path id="DejaVuSans-35" d="M 691 4666 
L 3169 4666 
L 3169 4134 
L 1269 4134 
L 1269 2991 
Q 1406 3038 1543 3061 
Q 1681 3084 1819 3084 
Q 2600 3084 3056 2656 
Q 3513 2228 3513 1497 
Q 3513 744 3044 326 
Q 2575 -91 1722 -91 
Q 1428 -91 1123 -41 
Q 819 9 494 109 
L 494 744 
Q 775 591 1075 516 
Q 1375 441 1709 441 
Q 2250 441 2565 725 
Q 2881 1009 2881 1497 
Q 2881 1984 2565 2268 
Q 2250 2553 1709 2553 
Q 1456 2553 1204 2497 
Q 953 2441 691 2322 
L 691 4666 
z
" transform="scale(0.015625)"/>
       </defs>
       <use xlink:href="#DejaVuSans-35"/>
      </g>
     </g>
    </g>
    <g id="text_7">
     <!-- relative distance from ROI center ($\sigma$) -->
     <g transform="translate(106.48 419.556875) scale(0.08 -0.08)">
      <defs>
       <path id="DejaVuSans-72" d="M 2631 2963 
Q 2534 3019 2420 3045 
Q 2306 3072 2169 3072 
Q 1681 3072 1420 2755 
Q 1159 2438 1159 1844 
L 1159 0 
L 581 0 
L 581 3500 
L 1159 3500 
L 1159 2956 
Q 1341 3275 1631 3429 
Q 1922 3584 2338 3584 
Q 2397 3584 2469 3576 
Q 2541 3569 2628 3553 
L 2631 2963 
z
" transform="scale(0.015625)"/>
       <path id="DejaVuSans-65" d="M 3597 1894 
L 3597 1613 
L 953 1613 
Q 991 1019 1311 708 
Q 1631 397 2203 397 
Q 2534 397 2845 478 
Q 3156 559 3463 722 
L 3463 178 
Q 3153 47 2828 -22 
Q 2503 -91 2169 -91 
Q 1331 -91 842 396 
Q 353 884 353 1716 
Q 353 2575 817 3079 
Q 1281 3584 2069 3584 
Q 2775 3584 3186 3129 
Q 3597 2675 3597 1894 
z
M 3022 2063 
Q 3016 2534 2758 2815 
Q 2500 3097 2075 3097 
Q 1594 3097 1305 2825 
Q 1016 2553 972 2059 
L 3022 2063 
z
" transform="scale(0.015625)"/>
       <path id="DejaVuSans-6c" d="M 603 4863 
L 1178 4863 
L 1178 0 
L 603 0 
L 603 4863 
z
" transform="scale(0.015625)"/>
       <path id="DejaVuSans-61" d="M 2194 1759 
Q 1497 1759 1228 1600 
Q 959 1441 959 1056 
Q 959 750 1161 570 
Q 1363 391 1709 391 
Q 2188 391 2477 730 
Q 2766 1069 2766 1631 
L 2766 1759 
L 2194 1759 
z
M 3341 1997 
L 3341 0 
L 2766 0 
L 2766 531 
Q 2569 213 2275 61 
Q 1981 -91 1556 -91 
Q 1019 -91 701 211 
Q 384 513 384 1019 
Q 384 1609 779 1909 
Q 1175 2209 1959 2209 
L 2766 2209 
L 2766 2266 
Q 2766 2663 2505 2880 
Q 2244 3097 1772 3097 
Q 1472 3097 1187 3025 
Q 903 2953 641 2809 
L 641 3341 
Q 956 3463 1253 3523 
Q 1550 3584 1831 3584 
Q 2591 3584 2966 3190 
Q 3341 2797 3341 1997 
z
" transform="scale(0.015625)"/>
       <path id="DejaVuSans-74" d="M 1172 4494 
L 1172 3500 
L 2356 3500 
L 2356 3053 
L 1172 3053 
L 1172 1153 
Q 1172 725 1289 603 
Q 1406 481 1766 481 
L 2356 481 
L 2356 0 
L 1766 0 
Q 1100 0 847 248 
Q 594 497 594 1153 
L 594 3053 
L 172 3053 
L 172 3500 
L 594 3500 
L 594 4494 
L 1172 4494 
z
" transform="scale(0.015625)"/>
       <path id="DejaVuSans-69" d="M 603 3500 
L 1178 3500 
L 1178 0 
L 603 0 
L 603 3500 
z
M 603 4863 
L 1178 4863 
L 1178 4134 
L 603 4134 
L 603 4863 
z
" transform="scale(0.015625)"/>
       <path id="DejaVuSans-76" d="M 191 3500 
L 800 3500 
L 1894 563 
L 2988 3500 
L 3597 3500 
L 2284 0 
L 1503 0 
L 191 3500 
z
" transform="scale(0.015625)"/>
       <path id="DejaVuSans-20" transform="scale(0.015625)"/>
       <path id="DejaVuSans-64" d="M 2906 2969 
L 2906 4863 
L 3481 4863 
L 3481 0 
L 2906 0 
L 2906 525 
Q 2725 213 2448 61 
Q 2172 -91 1784 -91 
Q 1150 -91 751 415 
Q 353 922 353 1747 
Q 353 2572 751 3078 
Q 1150 3584 1784 3584 
Q 2172 3584 2448 3432 
Q 2725 3281 2906 2969 
z
M 947 1747 
Q 947 1113 1208 752 
Q 1469 391 1925 391 
Q 2381 391 2643 752 
Q 2906 1113 2906 1747 
Q 2906 2381 2643 2742 
Q 2381 3103 1925 3103 
Q 1469 3103 1208 2742 
Q 947 2381 947 1747 
z
" transform="scale(0.015625)"/>
       <path id="DejaVuSans-73" d="M 2834 3397 
L 2834 2853 
Q 2591 2978 2328 3040 
Q 2066 3103 1784 3103 
Q 1356 3103 1142 2972 
Q 928 2841 928 2578 
Q 928 2378 1081 2264 
Q 1234 2150 1697 2047 
L 1894 2003 
Q 2506 1872 2764 1633 
Q 3022 1394 3022 966 
Q 3022 478 2636 193 
Q 2250 -91 1575 -91 
Q 1294 -91 989 -36 
Q 684 19 347 128 
L 347 722 
Q 666 556 975 473 
Q 1284 391 1588 391 
Q 1994 391 2212 530 
Q 2431 669 2431 922 
Q 2431 1156 2273 1281 
Q 2116 1406 1581 1522 
L 1381 1569 
Q 847 1681 609 1914 
Q 372 2147 372 2553 
Q 372 3047 722 3315 
Q 1072 3584 1716 3584 
Q 2034 3584 2315 3537 
Q 2597 3491 2834 3397 
z
" transform="scale(0.015625)"/>
       <path id="DejaVuSans-6e" d="M 3513 2113 
L 3513 0 
L 2938 0 
L 2938 2094 
Q 2938 2591 2744 2837 
Q 2550 3084 2163 3084 
Q 1697 3084 1428 2787 
Q 1159 2491 1159 1978 
L 1159 0 
L 581 0 
L 581 3500 
L 1159 3500 
L 1159 2956 
Q 1366 3272 1645 3428 
Q 1925 3584 2291 3584 
Q 2894 3584 3203 3211 
Q 3513 2838 3513 2113 
z
" transform="scale(0.015625)"/>
       <path id="DejaVuSans-63" d="M 3122 3366 
L 3122 2828 
Q 2878 2963 2633 3030 
Q 2388 3097 2138 3097 
Q 1578 3097 1268 2742 
Q 959 2388 959 1747 
Q 959 1106 1268 751 
Q 1578 397 2138 397 
Q 2388 397 2633 464 
Q 2878 531 3122 666 
L 3122 134 
Q 2881 22 2623 -34 
Q 2366 -91 2075 -91 
Q 1284 -91 818 406 
Q 353 903 353 1747 
Q 353 2603 823 3093 
Q 1294 3584 2113 3584 
Q 2378 3584 2631 3529 
Q 2884 3475 3122 3366 
z
" transform="scale(0.015625)"/>
       <path id="DejaVuSans-66" d="M 2375 4863 
L 2375 4384 
L 1825 4384 
Q 1516 4384 1395 4259 
Q 1275 4134 1275 3809 
L 1275 3500 
L 2222 3500 
L 2222 3053 
L 1275 3053 
L 1275 0 
L 697 0 
L 697 3053 
L 147 3053 
L 147 3500 
L 697 3500 
L 697 3744 
Q 697 4328 969 4595 
Q 1241 4863 1831 4863 
L 2375 4863 
z
" transform="scale(0.015625)"/>
       <path id="DejaVuSans-6f" d="M 1959 3097 
Q 1497 3097 1228 2736 
Q 959 2375 959 1747 
Q 959 1119 1226 758 
Q 1494 397 1959 397 
Q 2419 397 2687 759 
Q 2956 1122 2956 1747 
Q 2956 2369 2687 2733 
Q 2419 3097 1959 3097 
z
M 1959 3584 
Q 2709 3584 3137 3096 
Q 3566 2609 3566 1747 
Q 3566 888 3137 398 
Q 2709 -91 1959 -91 
Q 1206 -91 779 398 
Q 353 888 353 1747 
Q 353 2609 779 3096 
Q 1206 3584 1959 3584 
z
" transform="scale(0.015625)"/>
       <path id="DejaVuSans-6d" d="M 3328 2828 
Q 3544 3216 3844 3400 
Q 4144 3584 4550 3584 
Q 5097 3584 5394 3201 
Q 5691 2819 5691 2113 
L 5691 0 
L 5113 0 
L 5113 2094 
Q 5113 2597 4934 2840 
Q 4756 3084 4391 3084 
Q 3944 3084 3684 2787 
Q 3425 2491 3425 1978 
L 3425 0 
L 2847 0 
L 2847 2094 
Q 2847 2600 2669 2842 
Q 2491 3084 2119 3084 
Q 1678 3084 1418 2786 
Q 1159 2488 1159 1978 
L 1159 0 
L 581 0 
L 581 3500 
L 1159 3500 
L 1159 2956 
Q 1356 3278 1631 3431 
Q 1906 3584 2284 3584 
Q 2666 3584 2933 3390 
Q 3200 3197 3328 2828 
z
" transform="scale(0.015625)"/>
       <path id="DejaVuSans-52" d="M 2841 2188 
Q 3044 2119 3236 1894 
Q 3428 1669 3622 1275 
L 4263 0 
L 3584 0 
L 2988 1197 
Q 2756 1666 2539 1819 
Q 2322 1972 1947 1972 
L 1259 1972 
L 1259 0 
L 628 0 
L 628 4666 
L 2053 4666 
Q 2853 4666 3247 4331 
Q 3641 3997 3641 3322 
Q 3641 2881 3436 2590 
Q 3231 2300 2841 2188 
z
M 1259 4147 
L 1259 2491 
L 2053 2491 
Q 2509 2491 2742 2702 
Q 2975 2913 2975 3322 
Q 2975 3731 2742 3939 
Q 2509 4147 2053 4147 
L 1259 4147 
z
" transform="scale(0.015625)"/>
       <path id="DejaVuSans-4f" d="M 2522 4238 
Q 1834 4238 1429 3725 
Q 1025 3213 1025 2328 
Q 1025 1447 1429 934 
Q 1834 422 2522 422 
Q 3209 422 3611 934 
Q 4013 1447 4013 2328 
Q 4013 3213 3611 3725 
Q 3209 4238 2522 4238 
z
M 2522 4750 
Q 3503 4750 4090 4092 
Q 4678 3434 4678 2328 
Q 4678 1225 4090 567 
Q 3503 -91 2522 -91 
Q 1538 -91 948 565 
Q 359 1222 359 2328 
Q 359 3434 948 4092 
Q 1538 4750 2522 4750 
z
" transform="scale(0.015625)"/>
       <path id="DejaVuSans-49" d="M 628 4666 
L 1259 4666 
L 1259 0 
L 628 0 
L 628 4666 
z
" transform="scale(0.015625)"/>
       <path id="DejaVuSans-28" d="M 1984 4856 
Q 1566 4138 1362 3434 
Q 1159 2731 1159 2009 
Q 1159 1288 1364 580 
Q 1569 -128 1984 -844 
L 1484 -844 
Q 1016 -109 783 600 
Q 550 1309 550 2009 
Q 550 2706 781 3412 
Q 1013 4119 1484 4856 
L 1984 4856 
z
" transform="scale(0.015625)"/>
       <path id="DejaVuSans-Oblique-3c3" d="M 2219 3044 
Q 1744 3044 1422 2700 
Q 1081 2341 969 1747 
Q 844 1119 1044 756 
Q 1241 397 1706 397 
Q 2166 397 2503 759 
Q 2844 1122 2966 1747 
Q 3075 2319 2881 2700 
Q 2700 3044 2219 3044 
z
M 2309 3503 
L 4219 3500 
L 4106 2925 
L 3463 2925 
Q 3706 2438 3575 1747 
Q 3406 888 2884 400 
Q 2359 -91 1609 -91 
Q 856 -91 525 400 
Q 194 888 363 1747 
Q 528 2609 1050 3097 
Q 1484 3503 2309 3503 
z
" transform="scale(0.015625)"/>
       <path id="DejaVuSans-29" d="M 513 4856 
L 1013 4856 
Q 1481 4119 1714 3412 
Q 1947 2706 1947 2009 
Q 1947 1309 1714 600 
Q 1481 -109 1013 -844 
L 513 -844 
Q 928 -128 1133 580 
Q 1338 1288 1338 2009 
Q 1338 2731 1133 3434 
Q 928 4138 513 4856 
z
" transform="scale(0.015625)"/>
      </defs>
      <use xlink:href="#DejaVuSans-72" transform="translate(0 0.015625)"/>
      <use xlink:href="#DejaVuSans-65" transform="translate(41.113281 0.015625)"/>
      <use xlink:href="#DejaVuSans-6c" transform="translate(102.636719 0.015625)"/>
      <use xlink:href="#DejaVuSans-61" transform="translate(130.419922 0.015625)"/>
      <use xlink:href="#DejaVuSans-74" transform="translate(191.699219 0.015625)"/>
      <use xlink:href="#DejaVuSans-69" transform="translate(230.908203 0.015625)"/>
      <use xlink:href="#DejaVuSans-76" transform="translate(258.691406 0.015625)"/>
      <use xlink:href="#DejaVuSans-65" transform="translate(317.871094 0.015625)"/>
      <use xlink:href="#DejaVuSans-20" transform="translate(379.394531 0.015625)"/>
      <use xlink:href="#DejaVuSans-64" transform="translate(411.181641 0.015625)"/>
      <use xlink:href="#DejaVuSans-69" transform="translate(474.658203 0.015625)"/>
      <use xlink:href="#DejaVuSans-73" transform="translate(502.441406 0.015625)"/>
      <use xlink:href="#DejaVuSans-74" transform="translate(554.541016 0.015625)"/>
      <use xlink:href="#DejaVuSans-61" transform="translate(593.75 0.015625)"/>
      <use xlink:href="#DejaVuSans-6e" transform="translate(655.029297 0.015625)"/>
      <use xlink:href="#DejaVuSans-63" transform="translate(718.408203 0.015625)"/>
      <use xlink:href="#DejaVuSans-65" transform="translate(773.388672 0.015625)"/>
      <use xlink:href="#DejaVuSans-20" transform="translate(834.912109 0.015625)"/>
      <use xlink:href="#DejaVuSans-66" transform="translate(866.699219 0.015625)"/>
      <use xlink:href="#DejaVuSans-72" transform="translate(901.904297 0.015625)"/>
      <use xlink:href="#DejaVuSans-6f" transform="translate(943.017578 0.015625)"/>
      <use xlink:href="#DejaVuSans-6d" transform="translate(1004.199219 0.015625)"/>
      <use xlink:href="#DejaVuSans-20" transform="translate(1101.611328 0.015625)"/>
      <use xlink:href="#DejaVuSans-52" transform="translate(1133.398438 0.015625)"/>
      <use xlink:href="#DejaVuSans-4f" transform="translate(1202.880859 0.015625)"/>
      <use xlink:href="#DejaVuSans-49" transform="translate(1281.591797 0.015625)"/>
      <use xlink:href="#DejaVuSans-20" transform="translate(1311.083984 0.015625)"/>
      <use xlink:href="#DejaVuSans-63" transform="translate(1342.871094 0.015625)"/>
      <use xlink:href="#DejaVuSans-65" transform="translate(1397.851562 0.015625)"/>
      <use xlink:href="#DejaVuSans-6e" transform="translate(1459.375 0.015625)"/>
      <use xlink:href="#DejaVuSans-74" transform="translate(1522.753906 0.015625)"/>
      <use xlink:href="#DejaVuSans-65" transform="translate(1561.962891 0.015625)"/>
      <use xlink:href="#DejaVuSans-72" transform="translate(1623.486328 0.015625)"/>
      <use xlink:href="#DejaVuSans-20" transform="translate(1664.599609 0.015625)"/>
      <use xlink:href="#DejaVuSans-28" transform="translate(1696.386719 0.015625)"/>
      <use xlink:href="#DejaVuSans-Oblique-3c3" transform="translate(1735.400391 0.015625)"/>
      <use xlink:href="#DejaVuSans-29" transform="translate(1798.779297 0.015625)"/>
     </g>
    </g>
   </g>
   <g id="matplotlib.axis_2">
    <g id="ytick_1">
     <g id="line2d_7">
      <defs>
       <path id="m4d991b1464" d="M 0 0 
L -3.5 0 
" style="stroke: #000000; stroke-width: 0.8"/>
      </defs>
      <g>
       <use xlink:href="#m4d991b1464" x="50" y="376.457143" style="stroke: #000000; stroke-width: 0.8"/>
      </g>
     </g>
     <g id="text_8">
      <!-- −5 -->
      <g transform="translate(28.257812 380.256362) scale(0.1 -0.1)">
       <defs>
        <path id="DejaVuSans-2212" d="M 678 2272 
L 4684 2272 
L 4684 1741 
L 678 1741 
L 678 2272 
z
" transform="scale(0.015625)"/>
       </defs>
       <use xlink:href="#DejaVuSans-2212"/>
       <use xlink:href="#DejaVuSans-35" x="83.789062"/>
      </g>
     </g>
    </g>
    <g id="ytick_2">
     <g id="line2d_8">
      <g>
       <use xlink:href="#m4d991b1464" x="50" y="345.6" style="stroke: #000000; stroke-width: 0.8"/>
      </g>
     </g>
     <g id="text_9">
      <!-- 0 -->
      <g transform="translate(36.6375 349.399219) scale(0.1 -0.1)">
       <use xlink:href="#DejaVuSans-30"/>
      </g>
     </g>
    </g>
    <g id="ytick_3">
     <g id="line2d_9">
      <g>
       <use xlink:href="#m4d991b1464" x="50" y="314.742857" style="stroke: #000000; stroke-width: 0.8"/>
      </g>
     </g>
     <g id="text_10">
      <!-- 5 -->
      <g transform="translate(36.6375 318.542076) scale(0.1 -0.1)">
       <use xlink:href="#DejaVuSans-35"/>
      </g>
     </g>
    </g>
    <g id="text_11">
     <!-- BOLD % change -->
     <g transform="translate(22.594062 377.79625) rotate(-90) scale(0.08 -0.08)">
      <defs>
       <path id="DejaVuSans-42" d="M 1259 2228 
L 1259 519 
L 2272 519 
Q 2781 519 3026 730 
Q 3272 941 3272 1375 
Q 3272 1813 3026 2020 
Q 2781 2228 2272 2228 
L 1259 2228 
z
M 1259 4147 
L 1259 2741 
L 2194 2741 
Q 2656 2741 2882 2914 
Q 3109 3088 3109 3444 
Q 3109 3797 2882 3972 
Q 2656 4147 2194 4147 
L 1259 4147 
z
M 628 4666 
L 2241 4666 
Q 2963 4666 3353 4366 
Q 3744 4066 3744 3513 
Q 3744 3084 3544 2831 
Q 3344 2578 2956 2516 
Q 3422 2416 3680 2098 
Q 3938 1781 3938 1306 
Q 3938 681 3513 340 
Q 3088 0 2303 0 
L 628 0 
L 628 4666 
z
" transform="scale(0.015625)"/>
       <path id="DejaVuSans-4c" d="M 628 4666 
L 1259 4666 
L 1259 531 
L 3531 531 
L 3531 0 
L 628 0 
L 628 4666 
z
" transform="scale(0.015625)"/>
       <path id="DejaVuSans-44" d="M 1259 4147 
L 1259 519 
L 2022 519 
Q 2988 519 3436 956 
Q 3884 1394 3884 2338 
Q 3884 3275 3436 3711 
Q 2988 4147 2022 4147 
L 1259 4147 
z
M 628 4666 
L 1925 4666 
Q 3281 4666 3915 4102 
Q 4550 3538 4550 2338 
Q 4550 1131 3912 565 
Q 3275 0 1925 0 
L 628 0 
L 628 4666 
z
" transform="scale(0.015625)"/>
       <path id="DejaVuSans-25" d="M 4653 2053 
Q 4381 2053 4226 1822 
Q 4072 1591 4072 1178 
Q 4072 772 4226 539 
Q 4381 306 4653 306 
Q 4919 306 5073 539 
Q 5228 772 5228 1178 
Q 5228 1588 5073 1820 
Q 4919 2053 4653 2053 
z
M 4653 2450 
Q 5147 2450 5437 2106 
Q 5728 1763 5728 1178 
Q 5728 594 5436 251 
Q 5144 -91 4653 -91 
Q 4153 -91 3862 251 
Q 3572 594 3572 1178 
Q 3572 1766 3864 2108 
Q 4156 2450 4653 2450 
z
M 1428 4353 
Q 1159 4353 1004 4120 
Q 850 3888 850 3481 
Q 850 3069 1003 2837 
Q 1156 2606 1428 2606 
Q 1700 2606 1854 2837 
Q 2009 3069 2009 3481 
Q 2009 3884 1853 4118 
Q 1697 4353 1428 4353 
z
M 4250 4750 
L 4750 4750 
L 1831 -91 
L 1331 -91 
L 4250 4750 
z
M 1428 4750 
Q 1922 4750 2215 4408 
Q 2509 4066 2509 3481 
Q 2509 2891 2217 2550 
Q 1925 2209 1428 2209 
Q 931 2209 642 2551 
Q 353 2894 353 3481 
Q 353 4063 643 4406 
Q 934 4750 1428 4750 
z
" transform="scale(0.015625)"/>
       <path id="DejaVuSans-68" d="M 3513 2113 
L 3513 0 
L 2938 0 
L 2938 2094 
Q 2938 2591 2744 2837 
Q 2550 3084 2163 3084 
Q 1697 3084 1428 2787 
Q 1159 2491 1159 1978 
L 1159 0 
L 581 0 
L 581 4863 
L 1159 4863 
L 1159 2956 
Q 1366 3272 1645 3428 
Q 1925 3584 2291 3584 
Q 2894 3584 3203 3211 
Q 3513 2838 3513 2113 
z
" transform="scale(0.015625)"/>
       <path id="DejaVuSans-67" d="M 2906 1791 
Q 2906 2416 2648 2759 
Q 2391 3103 1925 3103 
Q 1463 3103 1205 2759 
Q 947 2416 947 1791 
Q 947 1169 1205 825 
Q 1463 481 1925 481 
Q 2391 481 2648 825 
Q 2906 1169 2906 1791 
z
M 3481 434 
Q 3481 -459 3084 -895 
Q 2688 -1331 1869 -1331 
Q 1566 -1331 1297 -1286 
Q 1028 -1241 775 -1147 
L 775 -588 
Q 1028 -725 1275 -790 
Q 1522 -856 1778 -856 
Q 2344 -856 2625 -561 
Q 2906 -266 2906 331 
L 2906 616 
Q 2728 306 2450 153 
Q 2172 0 1784 0 
Q 1141 0 747 490 
Q 353 981 353 1791 
Q 353 2603 747 3093 
Q 1141 3584 1784 3584 
Q 2172 3584 2450 3431 
Q 2728 3278 2906 2969 
L 2906 3500 
L 3481 3500 
L 3481 434 
z
" transform="scale(0.015625)"/>
      </defs>
      <use xlink:href="#DejaVuSans-42"/>
      <use xlink:href="#DejaVuSans-4f" x="66.853516"/>
      <use xlink:href="#DejaVuSans-4c" x="145.564453"/>
      <use xlink:href="#DejaVuSans-44" x="201.277344"/>
      <use xlink:href="#DejaVuSans-20" x="278.279297"/>
      <use xlink:href="#DejaVuSans-25" x="310.066406"/>
      <use xlink:href="#DejaVuSans-20" x="405.085938"/>
      <use xlink:href="#DejaVuSans-63" x="436.873047"/>
      <use xlink:href="#DejaVuSans-68" x="491.853516"/>
      <use xlink:href="#DejaVuSans-61" x="555.232422"/>
      <use xlink:href="#DejaVuSans-6e" x="616.511719"/>
      <use xlink:href="#DejaVuSans-67" x="679.890625"/>
      <use xlink:href="#DejaVuSans-65" x="743.367188"/>
     </g>
    </g>
   </g>
   <g id="line2d_10">
    <path d="M 65.454545 345.634003 
L 70.12987 345.934341 
L 74.805195 346.189289 
L 79.480519 346.223742 
L 84.155844 345.773125 
L 88.831169 345.569532 
L 93.506494 345.342638 
L 98.181818 345.065846 
L 102.857143 345.061421 
L 107.532468 345.146772 
L 112.207792 345.106457 
L 116.883117 344.937274 
L 121.558442 344.695398 
L 126.233766 344.550681 
L 130.909091 344.431983 
L 135.584416 344.150104 
L 140.25974 343.961865 
L 144.935065 343.90736 
L 149.61039 343.909497 
L 154.285714 343.954227 
L 158.961039 343.946147 
L 163.636364 343.504615 
L 168.311688 343.135214 
L 172.987013 342.876113 
L 177.662338 342.603891 
L 182.337662 342.178151 
L 187.012987 341.748467 
L 191.688312 341.307635 
L 196.363636 340.929899 
L 201.038961 340.590186 
L 205.714286 340.344334 
L 210.38961 340.270408 
L 215.064935 340.05793 
L 219.74026 340.021586 
L 224.415584 340.010109 
L 229.090909 340.005338 
L 233.766234 340.341846 
L 238.441558 340.687964 
L 243.116883 340.804544 
L 247.792208 341.132545 
L 252.467532 341.410231 
L 257.142857 341.72748 
L 261.818182 342.070944 
L 266.493506 342.385392 
L 271.168831 342.731018 
L 275.844156 343.125884 
L 280.519481 343.71429 
L 285.194805 344.130643 
L 289.87013 344.112913 
L 294.545455 344.317659 
" clip-path="url(#p01b110d7aa)" style="fill: none; stroke: #800080; stroke-width: 1.5; stroke-linecap: square"/>
   </g>
   <g id="line2d_11">
    <path d="M 65.454545 346.083137 
L 70.12987 346.083137 
L 74.805195 346.083137 
L 79.480519 345.5042 
L 84.155844 344.264792 
L 88.831169 344.457475 
L 93.506494 344.704067 
L 98.181818 343.755722 
L 102.857143 343.927638 
L 107.532468 344.310965 
L 112.207792 345.594878 
L 116.883117 345.491653 
L 121.558442 344.042246 
L 126.233766 343.563823 
L 130.909091 343.180812 
L 135.584416 342.565313 
L 140.25974 341.876375 
L 144.935065 341.295171 
L 149.61039 340.944003 
L 154.285714 341.002274 
L 158.961039 341.621871 
L 163.636364 341.230587 
L 168.311688 340.773601 
L 172.987013 340.951379 
L 177.662338 340.312385 
L 182.337662 338.81807 
L 187.012987 337.854211 
L 191.688312 335.896857 
L 196.363636 332.498203 
L 201.038961 328.853677 
L 205.714286 326.115927 
L 210.38961 324.532632 
L 215.064935 322.46442 
L 219.74026 323.126213 
L 224.415584 324.135569 
L 229.090909 324.886843 
L 233.766234 328.178654 
L 238.441558 330.4261 
L 243.116883 330.965294 
L 247.792208 333.292856 
L 252.467532 335.47779 
L 257.142857 336.794873 
L 261.818182 338.836041 
L 266.493506 340.686151 
L 271.168831 341.907438 
L 275.844156 343.015931 
L 280.519481 344.987956 
L 285.194805 347.060014 
L 289.87013 349.259401 
L 294.545455 352.860868 
" clip-path="url(#p01b110d7aa)" style="fill: none; stroke: #800080; stroke-opacity: 0.2; stroke-width: 1.5; stroke-linecap: square"/>
   </g>
   <g id="line2d_12">
    <path d="M 65.454545 340.457372 
L 70.12987 339.958786 
L 74.805195 339.740648 
L 79.480519 340.299643 
L 84.155844 340.400191 
L 88.831169 340.961028 
L 93.506494 340.66948 
L 98.181818 340.090931 
L 102.857143 339.976005 
L 107.532468 340.477402 
L 112.207792 340.262652 
L 116.883117 339.833354 
L 121.558442 339.410217 
L 126.233766 339.137789 
L 130.909091 338.977378 
L 135.584416 339.364232 
L 140.25974 339.937003 
L 144.935065 340.223774 
L 149.61039 340.346027 
L 154.285714 339.824762 
L 158.961039 339.701128 
L 163.636364 339.756034 
L 168.311688 339.753291 
L 172.987013 339.19988 
L 177.662338 338.273411 
L 182.337662 337.011622 
L 187.012987 335.592215 
L 191.688312 334.558736 
L 196.363636 334.368277 
L 201.038961 334.595665 
L 205.714286 334.300749 
L 210.38961 334.33115 
L 215.064935 334.21542 
L 219.74026 333.933306 
L 224.415584 333.584529 
L 229.090909 333.568865 
L 233.766234 333.920941 
L 238.441558 334.490852 
L 243.116883 335.047045 
L 247.792208 335.213947 
L 252.467532 334.563725 
L 257.142857 334.275285 
L 261.818182 333.899802 
L 266.493506 333.47343 
L 271.168831 333.186416 
L 275.844156 332.848583 
L 280.519481 332.023687 
L 285.194805 330.88731 
L 289.87013 330.623868 
L 294.545455 330.48329 
" clip-path="url(#p01b110d7aa)" style="fill: none; stroke: #800080; stroke-opacity: 0.2; stroke-width: 1.5; stroke-linecap: square"/>
   </g>
   <g id="line2d_13">
    <path d="M 65.454545 343.580833 
L 70.12987 343.580833 
L 74.805195 343.701888 
L 79.480519 343.900371 
L 84.155844 343.819754 
L 88.831169 343.860401 
L 93.506494 344.198052 
L 98.181818 345.045778 
L 102.857143 345.375566 
L 107.532468 345.710376 
L 112.207792 345.47455 
L 116.883117 345.487128 
L 121.558442 345.669678 
L 126.233766 346.026669 
L 130.909091 346.263737 
L 135.584416 346.396428 
L 140.25974 346.335874 
L 144.935065 346.361956 
L 149.61039 346.450796 
L 154.285714 346.345393 
L 158.961039 346.456157 
L 163.636364 346.408037 
L 168.311688 346.080166 
L 172.987013 345.957863 
L 177.662338 345.746281 
L 182.337662 345.606482 
L 187.012987 345.797911 
L 191.688312 346.319077 
L 196.363636 346.732881 
L 201.038961 347.240386 
L 205.714286 347.504958 
L 210.38961 347.733426 
L 215.064935 347.968861 
L 219.74026 347.807978 
L 224.415584 347.702977 
L 229.090909 347.733153 
L 233.766234 347.605059 
L 238.441558 347.742009 
L 243.116883 347.929752 
L 247.792208 347.855336 
L 252.467532 347.818376 
L 257.142857 347.914177 
L 261.818182 347.843169 
L 266.493506 347.878158 
L 271.168831 347.862195 
L 275.844156 347.78814 
L 280.519481 347.771288 
L 285.194805 347.816512 
L 289.87013 347.82866 
L 294.545455 347.756991 
" clip-path="url(#p01b110d7aa)" style="fill: none; stroke: #800080; stroke-opacity: 0.2; stroke-width: 1.5; stroke-linecap: square"/>
   </g>
   <g id="line2d_14">
    <path d="M 65.454545 358.566144 
L 70.12987 358.481085 
L 74.805195 358.36019 
L 79.480519 357.74247 
L 84.155844 356.779496 
L 88.831169 356.01302 
L 93.506494 354.866076 
L 98.181818 353.945743 
L 102.857143 353.362886 
L 107.532468 353.189483 
L 112.207792 352.983709 
L 116.883117 352.798519 
L 121.558442 353.084141 
L 126.233766 353.257323 
L 130.909091 353.107701 
L 135.584416 352.744437 
L 140.25974 353.184316 
L 144.935065 353.973923 
L 149.61039 355.733762 
L 154.285714 358.660109 
L 158.961039 358.736452 
L 163.636364 353.941596 
L 168.311688 350.394666 
L 172.987013 347.955332 
L 177.662338 346.191863 
L 182.337662 344.914225 
L 187.012987 343.674952 
L 191.688312 342.382099 
L 196.363636 341.325808 
L 201.038961 340.332123 
L 205.714286 339.714074 
L 210.38961 339.215881 
L 215.064935 338.733267 
L 219.74026 338.311002 
L 224.415584 338.084693 
L 229.090909 337.778686 
L 233.766234 337.814537 
L 238.441558 337.549587 
L 243.116883 337.158223 
L 247.792208 337.285905 
L 252.467532 337.768844 
L 257.142857 338.720238 
L 261.818182 339.991319 
L 266.493506 341.481496 
L 271.168831 343.799402 
L 275.844156 347.956986 
L 280.519481 354.749333 
L 285.194805 358.663346 
L 289.87013 356.188458 
L 294.545455 355.994502 
" clip-path="url(#p01b110d7aa)" style="fill: none; stroke: #800080; stroke-opacity: 0.2; stroke-width: 1.5; stroke-linecap: square"/>
   </g>
   <g id="line2d_15">
    <path d="M 65.454545 336.293508 
L 70.12987 336.293508 
L 74.805195 336.319398 
L 79.480519 336.338894 
L 84.155844 336.083376 
L 88.831169 336.967306 
L 93.506494 337.217493 
L 98.181818 336.952746 
L 102.857143 337.323542 
L 107.532468 337.850209 
L 112.207792 337.759299 
L 116.883117 337.536201 
L 121.558442 337.282373 
L 126.233766 336.900182 
L 130.909091 337.013774 
L 135.584416 336.851312 
L 140.25974 336.686899 
L 144.935065 336.272495 
L 149.61039 335.867606 
L 154.285714 335.284719 
L 158.961039 334.502898 
L 163.636364 333.844677 
L 168.311688 333.146569 
L 172.987013 332.219643 
L 177.662338 331.608338 
L 182.337662 330.944983 
L 187.012987 330.076125 
L 191.688312 329.474242 
L 196.363636 329.128606 
L 201.038961 328.824781 
L 205.714286 328.631123 
L 210.38961 328.520378 
L 215.064935 328.366229 
L 219.74026 328.465663 
L 224.415584 328.513464 
L 229.090909 329.185476 
L 233.766234 329.969301 
L 238.441558 330.343402 
L 243.116883 330.556578 
L 247.792208 330.690614 
L 252.467532 330.683528 
L 257.142857 330.99617 
L 261.818182 331.11276 
L 266.493506 330.682348 
L 271.168831 329.976442 
L 275.844156 329.336702 
L 280.519481 328.935132 
L 285.194805 328.56597 
L 289.87013 328.104064 
L 294.545455 327.355196 
" clip-path="url(#p01b110d7aa)" style="fill: none; stroke: #800080; stroke-opacity: 0.2; stroke-width: 1.5; stroke-linecap: square"/>
   </g>
   <g id="line2d_16">
    <path d="M 65.454545 345.754876 
L 70.12987 345.669927 
L 74.805195 345.305657 
L 79.480519 345.348576 
L 84.155844 344.829191 
L 88.831169 344.50466 
L 93.506494 344.121786 
L 98.181818 344.150164 
L 102.857143 343.465253 
L 107.532468 342.543662 
L 112.207792 341.589461 
L 116.883117 340.899852 
L 121.558442 340.156868 
L 126.233766 339.719499 
L 130.909091 339.69063 
L 135.584416 339.097825 
L 140.25974 338.198492 
L 144.935065 337.865396 
L 149.61039 338.251954 
L 154.285714 338.517814 
L 158.961039 338.642924 
L 163.636364 339.496643 
L 168.311688 339.773796 
L 172.987013 339.947776 
L 177.662338 339.964206 
L 182.337662 339.829989 
L 187.012987 339.799023 
L 191.688312 339.900309 
L 196.363636 340.06945 
L 201.038961 339.947885 
L 205.714286 339.892456 
L 210.38961 339.538326 
L 215.064935 339.407444 
L 219.74026 339.415937 
L 224.415584 339.662736 
L 229.090909 340.028111 
L 233.766234 340.55402 
L 238.441558 341.012026 
L 243.116883 341.460788 
L 247.792208 341.8974 
L 252.467532 342.446254 
L 257.142857 342.423566 
L 261.818182 342.491344 
L 266.493506 342.883313 
L 271.168831 342.918166 
L 275.844156 342.585194 
L 280.519481 342.028976 
L 285.194805 341.46998 
L 289.87013 340.871293 
L 294.545455 339.354316 
" clip-path="url(#p01b110d7aa)" style="fill: none; stroke: #800080; stroke-opacity: 0.2; stroke-width: 1.5; stroke-linecap: square"/>
   </g>
   <g id="line2d_17">
    <path d="M 65.454545 358.774137 
L 70.12987 358.578474 
L 74.805195 358.257935 
L 79.480519 358.065834 
L 84.155844 356.849005 
L 88.831169 356.452824 
L 93.506494 357.464508 
L 98.181818 356.828783 
L 102.857143 356.814694 
L 107.532468 356.976578 
L 112.207792 356.277724 
L 116.883117 356.2989 
L 121.558442 355.53997 
L 126.233766 354.552276 
L 130.909091 354.117992 
L 135.584416 352.864361 
L 140.25974 351.968638 
L 144.935065 352.112742 
L 149.61039 351.888294 
L 154.285714 351.870505 
L 158.961039 352.39633 
L 163.636364 352.706352 
L 168.311688 353.496216 
L 172.987013 354.255509 
L 177.662338 354.33044 
L 182.337662 354.237305 
L 187.012987 353.33318 
L 191.688312 352.286036 
L 196.363636 351.696821 
L 201.038961 351.127949 
L 205.714286 351.514458 
L 210.38961 351.030351 
L 215.064935 350.172205 
L 219.74026 349.995275 
L 224.415584 350.103136 
L 229.090909 350.175915 
L 233.766234 350.29214 
L 238.441558 350.885917 
L 243.116883 351.380705 
L 247.792208 351.939713 
L 252.467532 352.569846 
L 257.142857 353.21389 
L 261.818182 353.107351 
L 266.493506 352.800229 
L 271.168831 352.459415 
L 275.844156 352.456033 
L 280.519481 352.471956 
L 285.194805 352.826711 
L 289.87013 353.495183 
L 294.545455 354.111918 
" clip-path="url(#p01b110d7aa)" style="fill: none; stroke: #800080; stroke-opacity: 0.2; stroke-width: 1.5; stroke-linecap: square"/>
   </g>
   <g id="line2d_18">
    <path d="M 65.454545 346.209745 
L 70.12987 346.3735 
L 74.805195 346.658427 
L 79.480519 346.836284 
L 84.155844 346.675457 
L 88.831169 346.455889 
L 93.506494 346.189038 
L 98.181818 346.119642 
L 102.857143 345.832124 
L 107.532468 345.992734 
L 112.207792 346.405711 
L 116.883117 346.476551 
L 121.558442 346.417453 
L 126.233766 346.367018 
L 130.909091 345.957683 
L 135.584416 345.31857 
L 140.25974 344.712397 
L 144.935065 343.912225 
L 149.61039 343.266917 
L 154.285714 343.209008 
L 158.961039 343.60708 
L 163.636364 343.986455 
L 168.311688 344.14151 
L 172.987013 344.250409 
L 177.662338 344.346821 
L 182.337662 344.570106 
L 187.012987 344.892141 
L 191.688312 345.16456 
L 196.363636 345.343225 
L 201.038961 345.461659 
L 205.714286 345.779583 
L 210.38961 346.098867 
L 215.064935 346.534091 
L 219.74026 346.963715 
L 224.415584 347.161508 
L 229.090909 347.271886 
L 233.766234 347.503307 
L 238.441558 347.938636 
L 243.116883 348.152122 
L 247.792208 348.444382 
L 252.467532 348.69899 
L 257.142857 348.924582 
L 261.818182 349.143303 
L 266.493506 349.576505 
L 271.168831 349.855117 
L 275.844156 349.872439 
L 280.519481 350.041175 
L 285.194805 350.435657 
L 289.87013 350.892829 
L 294.545455 351.46935 
" clip-path="url(#p01b110d7aa)" style="fill: none; stroke: #800080; stroke-opacity: 0.2; stroke-width: 1.5; stroke-linecap: square"/>
   </g>
   <g id="line2d_19">
    <path d="M 65.454545 343.961951 
L 70.12987 344.146207 
L 74.805195 344.656419 
L 79.480519 344.413419 
L 84.155844 344.247305 
L 88.831169 343.489144 
L 93.506494 342.792454 
L 98.181818 342.940683 
L 102.857143 343.716754 
L 107.532468 343.848453 
L 112.207792 343.435079 
L 116.883117 343.145032 
L 121.558442 343.032577 
L 126.233766 342.641254 
L 130.909091 342.533983 
L 135.584416 342.694972 
L 140.25974 342.44933 
L 144.935065 342.326948 
L 149.61039 342.053196 
L 154.285714 342.052409 
L 158.961039 342.219033 
L 163.636364 342.348127 
L 168.311688 342.37921 
L 172.987013 342.329774 
L 177.662338 342.329193 
L 182.337662 342.07146 
L 187.012987 342.214438 
L 191.688312 342.506097 
L 196.363636 342.814989 
L 201.038961 343.059421 
L 205.714286 343.148637 
L 210.38961 343.639855 
L 215.064935 344.085926 
L 219.74026 344.530544 
L 224.415584 344.766597 
L 229.090909 344.688356 
L 233.766234 344.400157 
L 238.441558 344.071323 
L 243.116883 343.879718 
L 247.792208 343.921614 
L 252.467532 343.993063 
L 257.142857 344.119019 
L 261.818182 344.306333 
L 266.493506 344.489243 
L 271.168831 344.929083 
L 275.844156 345.109305 
L 280.519481 345.140707 
L 285.194805 345.168241 
L 289.87013 345.165969 
L 294.545455 345.014803 
" clip-path="url(#p01b110d7aa)" style="fill: none; stroke: #800080; stroke-opacity: 0.2; stroke-width: 1.5; stroke-linecap: square"/>
   </g>
   <g id="line2d_20">
    <path d="M 65.454545 344.699405 
L 70.12987 345.026742 
L 74.805195 345.035731 
L 79.480519 344.582819 
L 84.155844 343.756803 
L 88.831169 343.238665 
L 93.506494 343.227784 
L 98.181818 343.7681 
L 102.857143 344.157861 
L 107.532468 344.269965 
L 112.207792 344.397435 
L 116.883117 344.049324 
L 121.558442 343.772856 
L 126.233766 343.704927 
L 130.909091 343.418382 
L 135.584416 343.166316 
L 140.25974 342.907625 
L 144.935065 342.675868 
L 149.61039 342.107094 
L 154.285714 341.279034 
L 158.961039 340.533834 
L 163.636364 340.045107 
L 168.311688 339.862789 
L 172.987013 339.78165 
L 177.662338 339.869577 
L 182.337662 340.093339 
L 187.012987 340.243742 
L 191.688312 340.138115 
L 196.363636 340.277406 
L 201.038961 340.424206 
L 205.714286 340.517064 
L 210.38961 340.966811 
L 215.064935 340.813307 
L 219.74026 340.222799 
L 224.415584 339.428251 
L 229.090909 338.641604 
L 233.766234 338.112254 
L 238.441558 337.992966 
L 243.116883 337.957801 
L 247.792208 337.8735 
L 252.467532 337.612348 
L 257.142857 337.682585 
L 261.818182 337.704963 
L 266.493506 337.556497 
L 271.168831 337.50675 
L 275.844156 337.366777 
L 280.519481 337.200534 
L 285.194805 337.618638 
L 289.87013 338.03853 
L 294.545455 338.47954 
" clip-path="url(#p01b110d7aa)" style="fill: none; stroke: #800080; stroke-opacity: 0.2; stroke-width: 1.5; stroke-linecap: square"/>
   </g>
   <g id="line2d_21">
    <path d="M 65.454545 345.434122 
L 70.12987 349.024272 
L 74.805195 350.90552 
L 79.480519 351.412934 
L 84.155844 350.956447 
L 88.831169 350.066202 
L 93.506494 349.070801 
L 98.181818 348.281032 
L 102.857143 348.160493 
L 107.532468 347.9581 
L 112.207792 348.107491 
L 116.883117 347.931903 
L 121.558442 347.757444 
L 126.233766 347.858736 
L 130.909091 347.650921 
L 135.584416 347.700261 
L 140.25974 348.42462 
L 144.935065 348.943919 
L 149.61039 348.901694 
L 154.285714 348.151372 
L 158.961039 347.519907 
L 163.636364 346.920209 
L 168.311688 346.718475 
L 172.987013 346.67867 
L 177.662338 347.148795 
L 182.337662 347.208982 
L 187.012987 347.180408 
L 191.688312 346.991508 
L 196.363636 346.635619 
L 201.038961 346.784877 
L 205.714286 346.274273 
L 210.38961 346.544095 
L 215.064935 346.694977 
L 219.74026 346.439419 
L 224.415584 345.991271 
L 229.090909 345.471607 
L 233.766234 345.616617 
L 238.441558 345.997949 
L 243.116883 346.13416 
L 247.792208 346.750577 
L 252.467532 347.156977 
L 257.142857 347.9084 
L 261.818182 348.734383 
L 266.493506 348.953084 
L 271.168831 349.077656 
L 275.844156 348.971196 
L 280.519481 348.288688 
L 285.194805 347.924386 
L 289.87013 347.424383 
L 294.545455 347.000798 
" clip-path="url(#p01b110d7aa)" style="fill: none; stroke: #800080; stroke-opacity: 0.2; stroke-width: 1.5; stroke-linecap: square"/>
   </g>
   <g id="line2d_22">
    <path d="M 65.454545 337.792809 
L 70.12987 337.995622 
L 74.805195 339.246515 
L 79.480519 340.239464 
L 84.155844 340.615679 
L 88.831169 340.367773 
L 93.506494 339.590112 
L 98.181818 338.910823 
L 102.857143 338.624233 
L 107.532468 338.633341 
L 112.207792 338.989494 
L 116.883117 339.298873 
L 121.558442 340.178951 
L 126.233766 340.878675 
L 130.909091 341.270805 
L 135.584416 341.03722 
L 140.25974 340.860808 
L 144.935065 340.923902 
L 149.61039 341.102627 
L 154.285714 341.253322 
L 158.961039 341.41615 
L 163.636364 341.371554 
L 168.311688 341.102275 
L 172.987013 340.98547 
L 177.662338 341.125381 
L 182.337662 340.831255 
L 187.012987 340.323256 
L 191.688312 340.073987 
L 196.363636 340.2675 
L 201.038961 340.429607 
L 205.714286 340.738704 
L 210.38961 341.093129 
L 215.064935 341.23901 
L 219.74026 341.04718 
L 224.415584 340.986578 
L 229.090909 340.633557 
L 233.766234 340.135168 
L 238.441558 339.804797 
L 243.116883 339.032346 
L 247.792208 338.424691 
L 252.467532 338.133036 
L 257.142857 337.756974 
L 261.818182 337.680566 
L 266.493506 338.164243 
L 271.168831 339.294131 
L 275.844156 340.203326 
L 280.519481 340.932044 
L 285.194805 341.130948 
L 289.87013 341.462319 
L 294.545455 341.930334 
" clip-path="url(#p01b110d7aa)" style="fill: none; stroke: #800080; stroke-opacity: 0.2; stroke-width: 1.5; stroke-linecap: square"/>
   </g>
   <g id="line2d_23">
    <path d="M 111.272727 382.628571 
L 111.272727 308.571429 
" clip-path="url(#p01b110d7aa)" style="fill: none; stroke-dasharray: 5.55,2.4; stroke-dashoffset: 0; stroke: #000000; stroke-width: 1.5"/>
   </g>
   <g id="line2d_24">
    <path d="M 65.454545 345.6 
L 294.545455 345.6 
" clip-path="url(#p01b110d7aa)" style="fill: none; stroke-dasharray: 5.55,2.4; stroke-dashoffset: 0; stroke: #000000; stroke-width: 1.5"/>
   </g>
   <g id="patch_3">
    <path d="M 50 388.8 
L 50 302.4 
" style="fill: none; stroke: #000000; stroke-width: 0.8; stroke-linejoin: miter; stroke-linecap: square"/>
   </g>
   <g id="patch_4">
    <path d="M 54 392.8 
L 306 392.8 
" style="fill: none; stroke: #000000; stroke-width: 0.8; stroke-linejoin: miter; stroke-linecap: square"/>
   </g>
   <g id="text_12">
    <!-- all depths -->
    <g transform="translate(150.492188 296.4) scale(0.12 -0.12)">
     <defs>
      <path id="DejaVuSans-70" d="M 1159 525 
L 1159 -1331 
L 581 -1331 
L 581 3500 
L 1159 3500 
L 1159 2969 
Q 1341 3281 1617 3432 
Q 1894 3584 2278 3584 
Q 2916 3584 3314 3078 
Q 3713 2572 3713 1747 
Q 3713 922 3314 415 
Q 2916 -91 2278 -91 
Q 1894 -91 1617 61 
Q 1341 213 1159 525 
z
M 3116 1747 
Q 3116 2381 2855 2742 
Q 2594 3103 2138 3103 
Q 1681 3103 1420 2742 
Q 1159 2381 1159 1747 
Q 1159 1113 1420 752 
Q 1681 391 2138 391 
Q 2594 391 2855 752 
Q 3116 1113 3116 1747 
z
" transform="scale(0.015625)"/>
     </defs>
     <use xlink:href="#DejaVuSans-61"/>
     <use xlink:href="#DejaVuSans-6c" x="61.279297"/>
     <use xlink:href="#DejaVuSans-6c" x="89.0625"/>
     <use xlink:href="#DejaVuSans-20" x="116.845703"/>
     <use xlink:href="#DejaVuSans-64" x="148.632812"/>
     <use xlink:href="#DejaVuSans-65" x="212.109375"/>
     <use xlink:href="#DejaVuSans-70" x="273.632812"/>
     <use xlink:href="#DejaVuSans-74" x="337.109375"/>
     <use xlink:href="#DejaVuSans-68" x="376.318359"/>
     <use xlink:href="#DejaVuSans-73" x="439.697266"/>
    </g>
   </g>
   <g id="legend_1">
    <g id="patch_5">
     <path d="M 208.901563 383.8 
L 299 383.8 
Q 301 383.8 301 381.8 
L 301 367.84375 
Q 301 365.84375 299 365.84375 
L 208.901563 365.84375 
Q 206.901563 365.84375 206.901563 367.84375 
L 206.901563 381.8 
Q 206.901563 383.8 208.901563 383.8 
z
" style="fill: #ffffff; opacity: 0.8; stroke: #cccccc; stroke-linejoin: miter"/>
    </g>
    <g id="line2d_25">
     <path d="M 210.901563 373.942187 
L 220.901563 373.942187 
L 230.901563 373.942187 
" style="fill: none; stroke: #800080; stroke-width: 1.5; stroke-linecap: square"/>
    </g>
    <g id="text_13">
     <!-- sur_unwarp -->
     <g transform="translate(238.901563 377.442187) scale(0.1 -0.1)">
      <defs>
       <path id="DejaVuSans-75" d="M 544 1381 
L 544 3500 
L 1119 3500 
L 1119 1403 
Q 1119 906 1312 657 
Q 1506 409 1894 409 
Q 2359 409 2629 706 
Q 2900 1003 2900 1516 
L 2900 3500 
L 3475 3500 
L 3475 0 
L 2900 0 
L 2900 538 
Q 2691 219 2414 64 
Q 2138 -91 1772 -91 
Q 1169 -91 856 284 
Q 544 659 544 1381 
z
M 1991 3584 
L 1991 3584 
z
" transform="scale(0.015625)"/>
       <path id="DejaVuSans-5f" d="M 3263 -1063 
L 3263 -1509 
L -63 -1509 
L -63 -1063 
L 3263 -1063 
z
" transform="scale(0.015625)"/>
       <path id="DejaVuSans-77" d="M 269 3500 
L 844 3500 
L 1563 769 
L 2278 3500 
L 2956 3500 
L 3675 769 
L 4391 3500 
L 4966 3500 
L 4050 0 
L 3372 0 
L 2619 2869 
L 1863 0 
L 1184 0 
L 269 3500 
z
" transform="scale(0.015625)"/>
      </defs>
      <use xlink:href="#DejaVuSans-73"/>
      <use xlink:href="#DejaVuSans-75" x="52.099609"/>
      <use xlink:href="#DejaVuSans-72" x="115.478516"/>
      <use xlink:href="#DejaVuSans-5f" x="156.591797"/>
      <use xlink:href="#DejaVuSans-75" x="206.591797"/>
      <use xlink:href="#DejaVuSans-6e" x="269.970703"/>
      <use xlink:href="#DejaVuSans-77" x="333.349609"/>
      <use xlink:href="#DejaVuSans-61" x="415.136719"/>
      <use xlink:href="#DejaVuSans-72" x="476.416016"/>
      <use xlink:href="#DejaVuSans-70" x="517.529297"/>
     </g>
    </g>
   </g>
  </g>
 </g>
 <defs>
  <clipPath id="p01b110d7aa">
   <rect x="54" y="302.4" width="252" height="86.4"/>
  </clipPath>
 </defs>
</svg>
