<?xml version="1.0" encoding="utf-8" standalone="no"?>
<!DOCTYPE svg PUBLIC "-//W3C//DTD SVG 1.1//EN"
  "http://www.w3.org/Graphics/SVG/1.1/DTD/svg11.dtd">
<svg xmlns:xlink="http://www.w3.org/1999/xlink" width="255.11811pt" height="141.732283pt" viewBox="0 0 255.11811 141.732283" xmlns="http://www.w3.org/2000/svg" version="1.1">
 <metadata>
  <rdf:RDF xmlns:dc="http://purl.org/dc/elements/1.1/" xmlns:cc="http://creativecommons.org/ns#" xmlns:rdf="http://www.w3.org/1999/02/22-rdf-syntax-ns#">
   <cc:Work>
    <dc:type rdf:resource="http://purl.org/dc/dcmitype/StillImage"/>
    <dc:date>2026-05-26T10:36:34.515653</dc:date>
    <dc:format>image/svg+xml</dc:format>
    <dc:creator>
     <cc:Agent>
      <dc:title>Matplotlib v3.8.0, https://matplotlib.org/</dc:title>
     </cc:Agent>
    </dc:creator>
   </cc:Work>
  </rdf:RDF>
 </metadata>
 <defs>
  <style type="text/css">*{stroke-linejoin: round; stroke-linecap: butt}</style>
 </defs>
 <g id="figure_1">
  <g id="patch_1">
   <path d="M 0 141.732283 
L 255.11811 141.732283 
L 255.11811 0 
L 0 0 
z
" style="fill: #ffffff"/>
  </g>
  <g id="axes_1">
   <g id="patch_2">
    <path d="M 51.023622 49.606299 
L 229.606299 49.606299 
L 229.606299 7.086614 
L 51.023622 7.086614 
z
" style="fill: #ffffff"/>
   </g>
   <g id="PolyCollection_1">
    <defs>
     <path id="mf5eaabaede" d="M 51.023622 -116.075771 
L 51.023622 -112.078794 
L 54.668166 -112.230993 
L 58.312711 -112.311069 
L 61.957255 -112.322741 
L 65.6018 -112.275255 
L 69.246344 -112.296001 
L 72.890889 -112.153218 
L 76.535433 -112.062929 
L 80.179978 -111.921466 
L 83.824522 -111.79129 
L 87.469066 -111.502493 
L 91.113611 -111.119606 
L 94.758155 -110.72144 
L 98.4027 -110.395365 
L 102.047244 -110.066445 
L 105.691789 -109.80603 
L 109.336333 -109.510443 
L 112.980877 -109.095492 
L 116.625422 -108.654539 
L 120.269966 -108.23976 
L 123.914511 -107.841164 
L 127.559055 -107.563997 
L 131.2036 -107.340668 
L 134.848144 -107.190124 
L 138.492688 -107.027938 
L 142.137233 -106.933982 
L 145.781777 -106.921478 
L 149.426322 -106.911865 
L 153.070866 -106.909708 
L 156.715411 -106.964142 
L 160.359955 -107.015446 
L 164.004499 -107.143573 
L 167.649044 -107.270579 
L 171.293588 -107.399248 
L 174.938133 -107.519703 
L 178.582677 -107.715021 
L 182.227222 -107.855484 
L 185.871766 -107.928612 
L 189.51631 -108.047328 
L 193.160855 -108.130636 
L 196.805399 -108.17565 
L 200.449944 -108.246372 
L 204.094488 -108.340205 
L 207.739033 -108.369392 
L 211.383577 -108.404002 
L 215.028121 -108.527663 
L 218.672666 -108.623755 
L 222.31721 -108.754085 
L 225.961755 -108.863613 
L 229.606299 -108.951661 
L 229.606299 -111.587314 
L 229.606299 -111.587314 
L 225.961755 -111.510713 
L 222.31721 -111.417882 
L 218.672666 -111.320567 
L 215.028121 -111.239451 
L 211.383577 -111.131238 
L 207.739033 -111.067315 
L 204.094488 -111.013164 
L 200.449944 -110.91477 
L 196.805399 -110.845428 
L 193.160855 -110.794706 
L 189.51631 -110.728222 
L 185.871766 -110.631228 
L 182.227222 -110.538118 
L 178.582677 -110.402284 
L 174.938133 -110.229233 
L 171.293588 -110.121782 
L 167.649044 -110.002981 
L 164.004499 -109.878153 
L 160.359955 -109.752245 
L 156.715411 -109.715904 
L 153.070866 -109.706055 
L 149.426322 -109.735394 
L 145.781777 -109.785596 
L 142.137233 -109.838098 
L 138.492688 -109.967322 
L 134.848144 -110.13208 
L 131.2036 -110.31138 
L 127.559055 -110.569205 
L 123.914511 -110.850618 
L 120.269966 -111.25999 
L 116.625422 -111.673501 
L 112.980877 -112.097757 
L 109.336333 -112.514036 
L 105.691789 -112.835503 
L 102.047244 -113.159699 
L 98.4027 -113.524728 
L 94.758155 -113.887644 
L 91.113611 -114.313606 
L 87.469066 -114.785713 
L 83.824522 -115.157108 
L 80.179978 -115.352183 
L 76.535433 -115.543898 
L 72.890889 -115.679802 
L 69.246344 -115.897862 
L 65.6018 -116.01881 
L 61.957255 -116.104813 
L 58.312711 -116.124067 
L 54.668166 -116.101229 
L 51.023622 -116.075771 
z
" style="stroke: #000000; stroke-opacity: 0.4"/>
    </defs>
    <g clip-path="url(#p549ca14eb3)">
     <use xlink:href="#mf5eaabaede" x="0" y="141.732283" style="fill-opacity: 0.4; stroke: #000000; stroke-opacity: 0.4"/>
    </g>
   </g>
   <g id="matplotlib.axis_1">
    <g id="xtick_1">
     <g id="line2d_1">
      <defs>
       <path id="me92020f235" d="M 0 0 
L 0 3.5 
" style="stroke: #000000; stroke-width: 0.8"/>
      </defs>
      <g>
       <use xlink:href="#me92020f235" x="51.023622" y="53.606299" style="stroke: #000000; stroke-width: 0.8"/>
      </g>
     </g>
    </g>
    <g id="xtick_2">
     <g id="line2d_2">
      <g>
       <use xlink:href="#me92020f235" x="86.740157" y="53.606299" style="stroke: #000000; stroke-width: 0.8"/>
      </g>
     </g>
    </g>
    <g id="xtick_3">
     <g id="line2d_3">
      <g>
       <use xlink:href="#me92020f235" x="122.456693" y="53.606299" style="stroke: #000000; stroke-width: 0.8"/>
      </g>
     </g>
    </g>
    <g id="xtick_4">
     <g id="line2d_4">
      <g>
       <use xlink:href="#me92020f235" x="158.173228" y="53.606299" style="stroke: #000000; stroke-width: 0.8"/>
      </g>
     </g>
    </g>
    <g id="xtick_5">
     <g id="line2d_5">
      <g>
       <use xlink:href="#me92020f235" x="193.889764" y="53.606299" style="stroke: #000000; stroke-width: 0.8"/>
      </g>
     </g>
    </g>
    <g id="xtick_6">
     <g id="line2d_6">
      <g>
       <use xlink:href="#me92020f235" x="229.606299" y="53.606299" style="stroke: #000000; stroke-width: 0.8"/>
      </g>
     </g>
    </g>
   </g>
   <g id="matplotlib.axis_2">
    <g id="ytick_1">
     <g id="line2d_7">
      <defs>
       <path id="me2a4eef83d" d="M 0 0 
L -3.5 0 
" style="stroke: #000000; stroke-width: 0.8"/>
      </defs>
      <g>
       <use xlink:href="#me2a4eef83d" x="47.023622" y="49.606299" style="stroke: #000000; stroke-width: 0.8"/>
      </g>
     </g>
     <g id="text_1">
      <!-- −2 -->
      <g transform="translate(25.281435 53.405518) scale(0.1 -0.1)">
       <defs>
        <path id="DejaVuSans-2212" d="M 678 2272 
L 4684 2272 
L 4684 1741 
L 678 1741 
L 678 2272 
z
" transform="scale(0.015625)"/>
        <path id="DejaVuSans-32" d="M 1228 531 
L 3431 531 
L 3431 0 
L 469 0 
L 469 531 
Q 828 903 1448 1529 
Q 2069 2156 2228 2338 
Q 2531 2678 2651 2914 
Q 2772 3150 2772 3378 
Q 2772 3750 2511 3984 
Q 2250 4219 1831 4219 
Q 1534 4219 1204 4116 
Q 875 4013 500 3803 
L 500 4441 
Q 881 4594 1212 4672 
Q 1544 4750 1819 4750 
Q 2544 4750 2975 4387 
Q 3406 4025 3406 3419 
Q 3406 3131 3298 2873 
Q 3191 2616 2906 2266 
Q 2828 2175 2409 1742 
Q 1991 1309 1228 531 
z
" transform="scale(0.015625)"/>
       </defs>
       <use xlink:href="#DejaVuSans-2212"/>
       <use xlink:href="#DejaVuSans-32" x="83.789062"/>
      </g>
     </g>
    </g>
    <g id="ytick_2">
     <g id="line2d_8">
      <g>
       <use xlink:href="#me2a4eef83d" x="47.023622" y="28.346457" style="stroke: #000000; stroke-width: 0.8"/>
      </g>
     </g>
     <g id="text_2">
      <!-- 0 -->
      <g transform="translate(33.661122 32.145675) scale(0.1 -0.1)">
       <defs>
        <path id="DejaVuSans-30" d="M 2034 4250 
Q 1547 4250 1301 3770 
Q 1056 3291 1056 2328 
Q 1056 1369 1301 889 
Q 1547 409 2034 409 
Q 2525 409 2770 889 
Q 3016 1369 3016 2328 
Q 3016 3291 2770 3770 
Q 2525 4250 2034 4250 
z
M 2034 4750 
Q 2819 4750 3233 4129 
Q 3647 3509 3647 2328 
Q 3647 1150 3233 529 
Q 2819 -91 2034 -91 
Q 1250 -91 836 529 
Q 422 1150 422 2328 
Q 422 3509 836 4129 
Q 1250 4750 2034 4750 
z
" transform="scale(0.015625)"/>
       </defs>
       <use xlink:href="#DejaVuSans-30"/>
      </g>
     </g>
    </g>
    <g id="ytick_3">
     <g id="line2d_9">
      <g>
       <use xlink:href="#me2a4eef83d" x="47.023622" y="7.086614" style="stroke: #000000; stroke-width: 0.8"/>
      </g>
     </g>
     <g id="text_3">
      <!-- 2 -->
      <g transform="translate(33.661122 10.885833) scale(0.1 -0.1)">
       <use xlink:href="#DejaVuSans-32"/>
      </g>
     </g>
    </g>
    <g id="text_4">
     <!-- BOLD % change -->
     <g transform="translate(19.617685 60.542707) rotate(-90) scale(0.08 -0.08)">
      <defs>
       <path id="DejaVuSans-42" d="M 1259 2228 
L 1259 519 
L 2272 519 
Q 2781 519 3026 730 
Q 3272 941 3272 1375 
Q 3272 1813 3026 2020 
Q 2781 2228 2272 2228 
L 1259 2228 
z
M 1259 4147 
L 1259 2741 
L 2194 2741 
Q 2656 2741 2882 2914 
Q 3109 3088 3109 3444 
Q 3109 3797 2882 3972 
Q 2656 4147 2194 4147 
L 1259 4147 
z
M 628 4666 
L 2241 4666 
Q 2963 4666 3353 4366 
Q 3744 4066 3744 3513 
Q 3744 3084 3544 2831 
Q 3344 2578 2956 2516 
Q 3422 2416 3680 2098 
Q 3938 1781 3938 1306 
Q 3938 681 3513 340 
Q 3088 0 2303 0 
L 628 0 
L 628 4666 
z
" transform="scale(0.015625)"/>
       <path id="DejaVuSans-4f" d="M 2522 4238 
Q 1834 4238 1429 3725 
Q 1025 3213 1025 2328 
Q 1025 1447 1429 934 
Q 1834 422 2522 422 
Q 3209 422 3611 934 
Q 4013 1447 4013 2328 
Q 4013 3213 3611 3725 
Q 3209 4238 2522 4238 
z
M 2522 4750 
Q 3503 4750 4090 4092 
Q 4678 3434 4678 2328 
Q 4678 1225 4090 567 
Q 3503 -91 2522 -91 
Q 1538 -91 948 565 
Q 359 1222 359 2328 
Q 359 3434 948 4092 
Q 1538 4750 2522 4750 
z
" transform="scale(0.015625)"/>
       <path id="DejaVuSans-4c" d="M 628 4666 
L 1259 4666 
L 1259 531 
L 3531 531 
L 3531 0 
L 628 0 
L 628 4666 
z
" transform="scale(0.015625)"/>
       <path id="DejaVuSans-44" d="M 1259 4147 
L 1259 519 
L 2022 519 
Q 2988 519 3436 956 
Q 3884 1394 3884 2338 
Q 3884 3275 3436 3711 
Q 2988 4147 2022 4147 
L 1259 4147 
z
M 628 4666 
L 1925 4666 
Q 3281 4666 3915 4102 
Q 4550 3538 4550 2338 
Q 4550 1131 3912 565 
Q 3275 0 1925 0 
L 628 0 
L 628 4666 
z
" transform="scale(0.015625)"/>
       <path id="DejaVuSans-20" transform="scale(0.015625)"/>
       <path id="DejaVuSans-25" d="M 4653 2053 
Q 4381 2053 4226 1822 
Q 4072 1591 4072 1178 
Q 4072 772 4226 539 
Q 4381 306 4653 306 
Q 4919 306 5073 539 
Q 5228 772 5228 1178 
Q 5228 1588 5073 1820 
Q 4919 2053 4653 2053 
z
M 4653 2450 
Q 5147 2450 5437 2106 
Q 5728 1763 5728 1178 
Q 5728 594 5436 251 
Q 5144 -91 4653 -91 
Q 4153 -91 3862 251 
Q 3572 594 3572 1178 
Q 3572 1766 3864 2108 
Q 4156 2450 4653 2450 
z
M 1428 4353 
Q 1159 4353 1004 4120 
Q 850 3888 850 3481 
Q 850 3069 1003 2837 
Q 1156 2606 1428 2606 
Q 1700 2606 1854 2837 
Q 2009 3069 2009 3481 
Q 2009 3884 1853 4118 
Q 1697 4353 1428 4353 
z
M 4250 4750 
L 4750 4750 
L 1831 -91 
L 1331 -91 
L 4250 4750 
z
M 1428 4750 
Q 1922 4750 2215 4408 
Q 2509 4066 2509 3481 
Q 2509 2891 2217 2550 
Q 1925 2209 1428 2209 
Q 931 2209 642 2551 
Q 353 2894 353 3481 
Q 353 4063 643 4406 
Q 934 4750 1428 4750 
z
" transform="scale(0.015625)"/>
       <path id="DejaVuSans-63" d="M 3122 3366 
L 3122 2828 
Q 2878 2963 2633 3030 
Q 2388 3097 2138 3097 
Q 1578 3097 1268 2742 
Q 959 2388 959 1747 
Q 959 1106 1268 751 
Q 1578 397 2138 397 
Q 2388 397 2633 464 
Q 2878 531 3122 666 
L 3122 134 
Q 2881 22 2623 -34 
Q 2366 -91 2075 -91 
Q 1284 -91 818 406 
Q 353 903 353 1747 
Q 353 2603 823 3093 
Q 1294 3584 2113 3584 
Q 2378 3584 2631 3529 
Q 2884 3475 3122 3366 
z
" transform="scale(0.015625)"/>
       <path id="DejaVuSans-68" d="M 3513 2113 
L 3513 0 
L 2938 0 
L 2938 2094 
Q 2938 2591 2744 2837 
Q 2550 3084 2163 3084 
Q 1697 3084 1428 2787 
Q 1159 2491 1159 1978 
L 1159 0 
L 581 0 
L 581 4863 
L 1159 4863 
L 1159 2956 
Q 1366 3272 1645 3428 
Q 1925 3584 2291 3584 
Q 2894 3584 3203 3211 
Q 3513 2838 3513 2113 
z
" transform="scale(0.015625)"/>
       <path id="DejaVuSans-61" d="M 2194 1759 
Q 1497 1759 1228 1600 
Q 959 1441 959 1056 
Q 959 750 1161 570 
Q 1363 391 1709 391 
Q 2188 391 2477 730 
Q 2766 1069 2766 1631 
L 2766 1759 
L 2194 1759 
z
M 3341 1997 
L 3341 0 
L 2766 0 
L 2766 531 
Q 2569 213 2275 61 
Q 1981 -91 1556 -91 
Q 1019 -91 701 211 
Q 384 513 384 1019 
Q 384 1609 779 1909 
Q 1175 2209 1959 2209 
L 2766 2209 
L 2766 2266 
Q 2766 2663 2505 2880 
Q 2244 3097 1772 3097 
Q 1472 3097 1187 3025 
Q 903 2953 641 2809 
L 641 3341 
Q 956 3463 1253 3523 
Q 1550 3584 1831 3584 
Q 2591 3584 2966 3190 
Q 3341 2797 3341 1997 
z
" transform="scale(0.015625)"/>
       <path id="DejaVuSans-6e" d="M 3513 2113 
L 3513 0 
L 2938 0 
L 2938 2094 
Q 2938 2591 2744 2837 
Q 2550 3084 2163 3084 
Q 1697 3084 1428 2787 
Q 1159 2491 1159 1978 
L 1159 0 
L 581 0 
L 581 3500 
L 1159 3500 
L 1159 2956 
Q 1366 3272 1645 3428 
Q 1925 3584 2291 3584 
Q 2894 3584 3203 3211 
Q 3513 2838 3513 2113 
z
" transform="scale(0.015625)"/>
       <path id="DejaVuSans-67" d="M 2906 1791 
Q 2906 2416 2648 2759 
Q 2391 3103 1925 3103 
Q 1463 3103 1205 2759 
Q 947 2416 947 1791 
Q 947 1169 1205 825 
Q 1463 481 1925 481 
Q 2391 481 2648 825 
Q 2906 1169 2906 1791 
z
M 3481 434 
Q 3481 -459 3084 -895 
Q 2688 -1331 1869 -1331 
Q 1566 -1331 1297 -1286 
Q 1028 -1241 775 -1147 
L 775 -588 
Q 1028 -725 1275 -790 
Q 1522 -856 1778 -856 
Q 2344 -856 2625 -561 
Q 2906 -266 2906 331 
L 2906 616 
Q 2728 306 2450 153 
Q 2172 0 1784 0 
Q 1141 0 747 490 
Q 353 981 353 1791 
Q 353 2603 747 3093 
Q 1141 3584 1784 3584 
Q 2172 3584 2450 3431 
Q 2728 3278 2906 2969 
L 2906 3500 
L 3481 3500 
L 3481 434 
z
" transform="scale(0.015625)"/>
       <path id="DejaVuSans-65" d="M 3597 1894 
L 3597 1613 
L 953 1613 
Q 991 1019 1311 708 
Q 1631 397 2203 397 
Q 2534 397 2845 478 
Q 3156 559 3463 722 
L 3463 178 
Q 3153 47 2828 -22 
Q 2503 -91 2169 -91 
Q 1331 -91 842 396 
Q 353 884 353 1716 
Q 353 2575 817 3079 
Q 1281 3584 2069 3584 
Q 2775 3584 3186 3129 
Q 3597 2675 3597 1894 
z
M 3022 2063 
Q 3016 2534 2758 2815 
Q 2500 3097 2075 3097 
Q 1594 3097 1305 2825 
Q 1016 2553 972 2059 
L 3022 2063 
z
" transform="scale(0.015625)"/>
      </defs>
      <use xlink:href="#DejaVuSans-42"/>
      <use xlink:href="#DejaVuSans-4f" x="66.853516"/>
      <use xlink:href="#DejaVuSans-4c" x="145.564453"/>
      <use xlink:href="#DejaVuSans-44" x="201.277344"/>
      <use xlink:href="#DejaVuSans-20" x="278.279297"/>
      <use xlink:href="#DejaVuSans-25" x="310.066406"/>
      <use xlink:href="#DejaVuSans-20" x="405.085938"/>
      <use xlink:href="#DejaVuSans-63" x="436.873047"/>
      <use xlink:href="#DejaVuSans-68" x="491.853516"/>
      <use xlink:href="#DejaVuSans-61" x="555.232422"/>
      <use xlink:href="#DejaVuSans-6e" x="616.511719"/>
      <use xlink:href="#DejaVuSans-67" x="679.890625"/>
      <use xlink:href="#DejaVuSans-65" x="743.367188"/>
     </g>
    </g>
   </g>
   <g id="line2d_10">
    <path d="M 51.023622 27.655001 
L 54.668166 27.566173 
L 58.312711 27.514715 
L 61.957255 27.518507 
L 65.6018 27.585251 
L 69.246344 27.635352 
L 72.890889 27.815774 
L 76.535433 27.92887 
L 80.179978 28.095459 
L 83.824522 28.258085 
L 87.469066 28.588181 
L 91.113611 29.015677 
L 94.758155 29.427742 
L 98.4027 29.772237 
L 102.047244 30.119211 
L 105.691789 30.411517 
L 109.336333 30.720044 
L 112.980877 31.135659 
L 116.625422 31.568263 
L 120.269966 31.982408 
L 123.914511 32.386392 
L 127.559055 32.665683 
L 131.2036 32.906259 
L 134.848144 33.071181 
L 138.492688 33.234653 
L 142.137233 33.346243 
L 145.781777 33.378747 
L 149.426322 33.408654 
L 153.070866 33.424402 
L 156.715411 33.39226 
L 160.359955 33.348438 
L 164.004499 33.22142 
L 167.649044 33.095503 
L 171.293588 32.971769 
L 174.938133 32.857816 
L 178.582677 32.673631 
L 182.227222 32.535483 
L 185.871766 32.452364 
L 189.51631 32.344508 
L 193.160855 32.269612 
L 196.805399 32.221745 
L 200.449944 32.151712 
L 204.094488 32.055599 
L 207.739033 32.01393 
L 211.383577 31.964664 
L 215.028121 31.848726 
L 218.672666 31.760122 
L 222.31721 31.6463 
L 225.961755 31.54512 
L 229.606299 31.462796 
" clip-path="url(#p549ca14eb3)" style="fill: none; stroke: #000000; stroke-width: 1.5; stroke-linecap: square"/>
   </g>
   <g id="line2d_11">
    <path d="M 51.023622 23.843859 
L 54.668166 23.843859 
L 58.312711 23.843859 
L 61.957255 24.478158 
L 65.6018 25.116091 
L 69.246344 25.28938 
L 72.890889 25.703638 
L 76.535433 25.898947 
L 80.179978 26.230664 
L 83.824522 26.167647 
L 87.469066 26.987965 
L 91.113611 28.08411 
L 94.758155 29.173617 
L 98.4027 30.208433 
L 102.047244 30.894183 
L 105.691789 31.222539 
L 109.336333 31.16359 
L 112.980877 31.547482 
L 116.625422 32.107595 
L 120.269966 32.567655 
L 123.914511 33.275264 
L 127.559055 33.512244 
L 131.2036 33.896612 
L 134.848144 34.217217 
L 138.492688 34.793933 
L 142.137233 35.626924 
L 145.781777 36.440394 
L 149.426322 37.043578 
L 153.070866 37.380525 
L 156.715411 37.834638 
L 160.359955 38.579988 
L 164.004499 39.253911 
L 167.649044 39.714946 
L 171.293588 39.903072 
L 174.938133 39.938738 
L 178.582677 39.65942 
L 182.227222 39.551834 
L 185.871766 39.414603 
L 189.51631 38.939093 
L 193.160855 38.548478 
L 196.805399 38.577044 
L 200.449944 38.44172 
L 204.094488 37.969448 
L 207.739033 37.684638 
L 211.383577 37.654652 
L 215.028121 37.708039 
L 218.672666 37.944543 
L 222.31721 38.100869 
L 225.961755 38.163789 
L 229.606299 38.174623 
" clip-path="url(#p549ca14eb3)" style="fill: none; stroke: #000000; stroke-opacity: 0.2; stroke-width: 1.5; stroke-linecap: square"/>
   </g>
   <g id="line2d_12">
    <path d="M 51.023622 35.974673 
L 54.668166 36.039647 
L 58.312711 36.227901 
L 61.957255 36.632013 
L 65.6018 36.767672 
L 69.246344 36.946771 
L 72.890889 37.308244 
L 76.535433 37.408214 
L 80.179978 37.475642 
L 83.824522 37.725892 
L 87.469066 37.9843 
L 91.113611 38.345681 
L 94.758155 38.721876 
L 98.4027 38.82523 
L 102.047244 38.985779 
L 105.691789 38.944971 
L 109.336333 38.881929 
L 112.980877 38.971872 
L 116.625422 39.087972 
L 120.269966 38.923917 
L 123.914511 38.819443 
L 127.559055 38.818462 
L 131.2036 38.752442 
L 134.848144 38.836206 
L 138.492688 39.005238 
L 142.137233 39.15128 
L 145.781777 39.334329 
L 149.426322 39.641044 
L 153.070866 39.875339 
L 156.715411 39.87578 
L 160.359955 39.731847 
L 164.004499 39.330854 
L 167.649044 39.040557 
L 171.293588 39.021691 
L 174.938133 39.121003 
L 178.582677 39.018382 
L 182.227222 39.123025 
L 185.871766 39.24745 
L 189.51631 39.374512 
L 193.160855 39.711968 
L 196.805399 40.069643 
L 200.449944 40.361178 
L 204.094488 40.7305 
L 207.739033 41.199175 
L 211.383577 41.606577 
L 215.028121 41.541845 
L 218.672666 41.379741 
L 222.31721 41.10694 
L 225.961755 41.021345 
L 229.606299 41.003921 
" clip-path="url(#p549ca14eb3)" style="fill: none; stroke: #000000; stroke-opacity: 0.2; stroke-width: 1.5; stroke-linecap: square"/>
   </g>
   <g id="line2d_13">
    <path d="M 51.023622 28.206401 
L 54.668166 28.206401 
L 58.312711 28.224548 
L 61.957255 28.138409 
L 65.6018 28.07098 
L 69.246344 27.91906 
L 72.890889 27.691387 
L 76.535433 27.462434 
L 80.179978 27.503715 
L 83.824522 27.564195 
L 87.469066 27.821189 
L 91.113611 28.062037 
L 94.758155 28.382164 
L 98.4027 28.758208 
L 102.047244 28.97339 
L 105.691789 29.36962 
L 109.336333 29.865888 
L 112.980877 30.241128 
L 116.625422 30.627052 
L 120.269966 30.866554 
L 123.914511 31.03665 
L 127.559055 31.171305 
L 131.2036 31.33666 
L 134.848144 31.542711 
L 138.492688 31.693401 
L 142.137233 31.678277 
L 145.781777 31.506113 
L 149.426322 31.436666 
L 153.070866 31.416377 
L 156.715411 31.420123 
L 160.359955 31.355905 
L 164.004499 31.202662 
L 167.649044 31.084072 
L 171.293588 30.903187 
L 174.938133 30.755216 
L 178.582677 30.618163 
L 182.227222 30.401484 
L 185.871766 30.169984 
L 189.51631 29.980773 
L 193.160855 29.794162 
L 196.805399 29.594828 
L 200.449944 29.456208 
L 204.094488 29.30882 
L 207.739033 29.160088 
L 211.383577 29.056782 
L 215.028121 28.984622 
L 218.672666 28.941911 
L 222.31721 28.913342 
L 225.961755 28.989948 
L 229.606299 29.055499 
" clip-path="url(#p549ca14eb3)" style="fill: none; stroke: #000000; stroke-opacity: 0.2; stroke-width: 1.5; stroke-linecap: square"/>
   </g>
   <g id="line2d_14">
    <path d="M 51.023622 24.278543 
L 54.668166 24.300573 
L 58.312711 24.46296 
L 61.957255 24.663945 
L 65.6018 24.918192 
L 69.246344 25.171478 
L 72.890889 25.431853 
L 76.535433 25.762372 
L 80.179978 26.136015 
L 83.824522 26.421448 
L 87.469066 26.762862 
L 91.113611 27.147892 
L 94.758155 27.599545 
L 98.4027 27.901589 
L 102.047244 28.257834 
L 105.691789 28.498248 
L 109.336333 28.734807 
L 112.980877 29.084262 
L 116.625422 29.525614 
L 120.269966 30.007329 
L 123.914511 30.492724 
L 127.559055 30.90093 
L 131.2036 31.285458 
L 134.848144 31.567909 
L 138.492688 31.773114 
L 142.137233 31.940854 
L 145.781777 32.025589 
L 149.426322 31.959448 
L 153.070866 31.758649 
L 156.715411 31.522123 
L 160.359955 31.345109 
L 164.004499 31.094852 
L 167.649044 30.859996 
L 171.293588 30.60313 
L 174.938133 30.496625 
L 178.582677 30.465195 
L 182.227222 30.623449 
L 185.871766 30.973173 
L 189.51631 31.179506 
L 193.160855 31.296391 
L 196.805399 31.486444 
L 200.449944 31.651234 
L 204.094488 31.73136 
L 207.739033 31.883227 
L 211.383577 32.038153 
L 215.028121 31.888739 
L 218.672666 31.690304 
L 222.31721 31.499874 
L 225.961755 31.538087 
L 229.606299 31.65941 
" clip-path="url(#p549ca14eb3)" style="fill: none; stroke: #000000; stroke-opacity: 0.2; stroke-width: 1.5; stroke-linecap: square"/>
   </g>
   <g id="line2d_15">
    <path d="M 51.023622 18.76718 
L 54.668166 18.76718 
L 58.312711 18.718226 
L 61.957255 18.532764 
L 65.6018 18.435685 
L 69.246344 18.457341 
L 72.890889 18.871499 
L 76.535433 19.419498 
L 80.179978 19.789608 
L 83.824522 20.411678 
L 87.469066 21.308758 
L 91.113611 22.291846 
L 94.758155 22.93894 
L 98.4027 23.62542 
L 102.047244 24.406185 
L 105.691789 25.26415 
L 109.336333 26.099272 
L 112.980877 26.837077 
L 116.625422 27.493399 
L 120.269966 28.143166 
L 123.914511 28.755923 
L 127.559055 29.227114 
L 131.2036 29.604195 
L 134.848144 29.790292 
L 138.492688 29.955338 
L 142.137233 30.14008 
L 145.781777 30.211409 
L 149.426322 30.174065 
L 153.070866 30.108966 
L 156.715411 30.041619 
L 160.359955 30.016181 
L 164.004499 29.940961 
L 167.649044 29.713491 
L 171.293588 29.53643 
L 174.938133 29.405481 
L 178.582677 29.233677 
L 182.227222 29.015449 
L 185.871766 28.925227 
L 189.51631 28.921042 
L 193.160855 28.92416 
L 196.805399 28.996005 
L 200.449944 29.141234 
L 204.094488 29.158671 
L 207.739033 29.1911 
L 211.383577 29.015409 
L 215.028121 28.740906 
L 218.672666 28.673639 
L 222.31721 28.712615 
L 225.961755 28.647251 
L 229.606299 28.558196 
" clip-path="url(#p549ca14eb3)" style="fill: none; stroke: #000000; stroke-opacity: 0.2; stroke-width: 1.5; stroke-linecap: square"/>
   </g>
   <g id="line2d_16">
    <path d="M 51.023622 24.810262 
L 54.668166 24.793021 
L 58.312711 24.643426 
L 61.957255 24.526218 
L 65.6018 24.523771 
L 69.246344 24.601292 
L 72.890889 24.65882 
L 76.535433 24.73016 
L 80.179978 24.919567 
L 83.824522 25.256293 
L 87.469066 25.553989 
L 91.113611 25.797217 
L 94.758155 25.942222 
L 98.4027 26.127774 
L 102.047244 26.168032 
L 105.691789 26.254703 
L 109.336333 26.456881 
L 112.980877 26.839394 
L 116.625422 27.163696 
L 120.269966 27.686173 
L 123.914511 28.100784 
L 127.559055 28.398059 
L 131.2036 28.641697 
L 134.848144 28.748414 
L 138.492688 28.904187 
L 142.137233 29.114759 
L 145.781777 29.213443 
L 149.426322 29.375126 
L 153.070866 29.489912 
L 156.715411 29.518348 
L 160.359955 29.477994 
L 164.004499 29.35195 
L 167.649044 29.261001 
L 171.293588 29.080767 
L 174.938133 28.880612 
L 178.582677 28.650122 
L 182.227222 28.518068 
L 185.871766 28.307837 
L 189.51631 28.112376 
L 193.160855 28.002758 
L 196.805399 27.854178 
L 200.449944 27.621613 
L 204.094488 27.339812 
L 207.739033 27.219969 
L 211.383577 27.163677 
L 215.028121 27.153765 
L 218.672666 27.053403 
L 222.31721 26.989734 
L 225.961755 26.994747 
L 229.606299 26.877337 
" clip-path="url(#p549ca14eb3)" style="fill: none; stroke: #000000; stroke-opacity: 0.2; stroke-width: 1.5; stroke-linecap: square"/>
   </g>
   <g id="line2d_17">
    <path d="M 51.023622 26.340588 
L 54.668166 26.300018 
L 58.312711 26.233556 
L 61.957255 26.15386 
L 65.6018 26.090901 
L 69.246344 26.382215 
L 72.890889 26.661743 
L 76.535433 26.509351 
L 80.179978 26.768961 
L 83.824522 26.585583 
L 87.469066 26.444365 
L 91.113611 26.924269 
L 94.758155 27.092613 
L 98.4027 27.048812 
L 102.047244 27.414608 
L 105.691789 27.710062 
L 109.336333 28.007616 
L 112.980877 28.660733 
L 116.625422 29.176958 
L 120.269966 29.655123 
L 123.914511 30.048587 
L 127.559055 30.328179 
L 131.2036 30.664052 
L 134.848144 30.764029 
L 138.492688 30.946985 
L 142.137233 31.042191 
L 145.781777 31.075261 
L 149.426322 31.270728 
L 153.070866 31.416877 
L 156.715411 31.462603 
L 160.359955 31.508333 
L 164.004499 31.349975 
L 167.649044 31.294593 
L 171.293588 31.360692 
L 174.938133 31.31213 
L 178.582677 31.115019 
L 182.227222 30.982469 
L 185.871766 30.883068 
L 189.51631 30.893594 
L 193.160855 30.941625 
L 196.805399 30.972113 
L 200.449944 31.213139 
L 204.094488 31.38644 
L 207.739033 31.331706 
L 211.383577 31.202224 
L 215.028121 30.927787 
L 218.672666 30.81028 
L 222.31721 30.679199 
L 225.961755 30.585768 
L 229.606299 30.618585 
" clip-path="url(#p549ca14eb3)" style="fill: none; stroke: #000000; stroke-opacity: 0.2; stroke-width: 1.5; stroke-linecap: square"/>
   </g>
   <g id="line2d_18">
    <path d="M 51.023622 33.556367 
L 54.668166 33.592783 
L 58.312711 33.622337 
L 61.957255 33.482172 
L 65.6018 33.416959 
L 69.246344 33.384463 
L 72.890889 33.326189 
L 76.535433 33.255929 
L 80.179978 33.279872 
L 83.824522 33.350074 
L 87.469066 33.528237 
L 91.113611 33.819902 
L 94.758155 34.251335 
L 98.4027 34.651097 
L 102.047244 35.119058 
L 105.691789 35.676662 
L 109.336333 36.220004 
L 112.980877 36.886242 
L 116.625422 37.538581 
L 120.269966 38.005899 
L 123.914511 38.377947 
L 127.559055 38.654865 
L 131.2036 38.716074 
L 134.848144 38.816086 
L 138.492688 38.8696 
L 142.137233 38.729774 
L 145.781777 38.43274 
L 149.426322 38.167471 
L 153.070866 37.877618 
L 156.715411 37.697596 
L 160.359955 37.491001 
L 164.004499 37.430453 
L 167.649044 37.376136 
L 171.293588 37.272666 
L 174.938133 37.068418 
L 178.582677 36.831582 
L 182.227222 36.586037 
L 185.871766 36.415464 
L 189.51631 36.169091 
L 193.160855 35.874538 
L 196.805399 35.669546 
L 200.449944 35.503937 
L 204.094488 35.207641 
L 207.739033 34.753735 
L 211.383577 34.39372 
L 215.028121 34.170567 
L 218.672666 34.000835 
L 222.31721 33.768192 
L 225.961755 33.434244 
L 229.606299 33.152973 
" clip-path="url(#p549ca14eb3)" style="fill: none; stroke: #000000; stroke-opacity: 0.2; stroke-width: 1.5; stroke-linecap: square"/>
   </g>
   <g id="line2d_19">
    <path d="M 51.023622 20.248281 
L 54.668166 20.187561 
L 58.312711 19.984494 
L 61.957255 19.985184 
L 65.6018 20.333338 
L 69.246344 21.019678 
L 72.890889 21.390503 
L 76.535433 21.591588 
L 80.179978 21.768535 
L 83.824522 21.964992 
L 87.469066 22.245714 
L 91.113611 22.44167 
L 94.758155 22.546177 
L 98.4027 22.61259 
L 102.047244 22.74407 
L 105.691789 22.93498 
L 109.336333 23.127306 
L 112.980877 23.321673 
L 116.625422 23.555034 
L 120.269966 23.866057 
L 123.914511 24.289193 
L 127.559055 24.52805 
L 131.2036 24.724327 
L 134.848144 24.908017 
L 138.492688 24.971966 
L 142.137233 25.001863 
L 145.781777 24.974909 
L 149.426322 24.957675 
L 153.070866 25.065164 
L 156.715411 25.121942 
L 160.359955 25.164594 
L 164.004499 25.046118 
L 167.649044 24.83413 
L 171.293588 24.700987 
L 174.938133 24.663877 
L 178.582677 24.549278 
L 182.227222 24.390467 
L 185.871766 24.244898 
L 189.51631 24.114579 
L 193.160855 24.072204 
L 196.805399 24.114823 
L 200.449944 24.019258 
L 204.094488 23.921763 
L 207.739033 23.806672 
L 211.383577 23.744072 
L 215.028121 23.749408 
L 218.672666 23.804763 
L 222.31721 23.794486 
L 225.961755 23.721623 
L 229.606299 23.703216 
" clip-path="url(#p549ca14eb3)" style="fill: none; stroke: #000000; stroke-opacity: 0.2; stroke-width: 1.5; stroke-linecap: square"/>
   </g>
   <g id="line2d_20">
    <path d="M 51.023622 23.951395 
L 54.668166 24.040761 
L 58.312711 24.211668 
L 61.957255 24.31765 
L 65.6018 24.521129 
L 69.246344 24.597208 
L 72.890889 24.90564 
L 76.535433 25.28357 
L 80.179978 25.54909 
L 83.824522 25.903661 
L 87.469066 26.29795 
L 91.113611 26.738831 
L 94.758155 27.184618 
L 98.4027 27.468488 
L 102.047244 27.71581 
L 105.691789 27.934415 
L 109.336333 28.171661 
L 112.980877 28.449403 
L 116.625422 28.874734 
L 120.269966 29.351559 
L 123.914511 29.747718 
L 127.559055 30.031573 
L 131.2036 30.219927 
L 134.848144 30.326899 
L 138.492688 30.324802 
L 142.137233 30.323485 
L 145.781777 30.331075 
L 149.426322 30.350836 
L 153.070866 30.289466 
L 156.715411 30.187081 
L 160.359955 29.974758 
L 164.004499 29.784218 
L 167.649044 29.742195 
L 171.293588 29.720978 
L 174.938133 29.655554 
L 178.582677 29.474915 
L 182.227222 29.354254 
L 185.871766 29.14737 
L 189.51631 29.000302 
L 193.160855 28.904902 
L 196.805399 28.750998 
L 200.449944 28.53965 
L 204.094488 28.370917 
L 207.739033 28.446732 
L 211.383577 28.562683 
L 215.028121 28.642866 
L 218.672666 28.602643 
L 222.31721 28.584879 
L 225.961755 28.468727 
L 229.606299 28.438799 
" clip-path="url(#p549ca14eb3)" style="fill: none; stroke: #000000; stroke-opacity: 0.2; stroke-width: 1.5; stroke-linecap: square"/>
   </g>
   <g id="line2d_21">
    <path d="M 51.023622 44.60565 
L 54.668166 43.456618 
L 58.312711 42.744419 
L 61.957255 42.34055 
L 65.6018 42.229929 
L 69.246344 41.290997 
L 72.890889 41.044556 
L 76.535433 41.176302 
L 80.179978 41.187543 
L 83.824522 41.030714 
L 87.469066 41.015341 
L 91.113611 40.914135 
L 94.758155 40.978826 
L 98.4027 41.017395 
L 102.047244 41.053187 
L 105.691789 40.96069 
L 109.336333 41.303213 
L 112.980877 41.788471 
L 116.625422 42.39831 
L 120.269966 43.241205 
L 123.914511 43.904517 
L 127.559055 44.341594 
L 131.2036 44.536233 
L 134.848144 44.492288 
L 138.492688 44.527581 
L 142.137233 44.240648 
L 145.781777 43.721856 
L 149.426322 43.116419 
L 153.070866 42.77027 
L 156.715411 42.110244 
L 160.359955 41.607884 
L 164.004499 41.025222 
L 167.649044 40.360345 
L 171.293588 39.634474 
L 174.938133 39.065149 
L 178.582677 38.73219 
L 182.227222 38.311677 
L 185.871766 38.273522 
L 189.51631 38.043626 
L 193.160855 37.702584 
L 196.805399 37.247145 
L 200.449944 36.58929 
L 204.094488 36.155855 
L 207.739033 36.053627 
L 211.383577 35.796142 
L 215.028121 35.346366 
L 218.672666 34.880473 
L 222.31721 34.411884 
L 225.961755 33.881011 
L 229.606299 33.306965 
" clip-path="url(#p549ca14eb3)" style="fill: none; stroke: #000000; stroke-opacity: 0.2; stroke-width: 1.5; stroke-linecap: square"/>
   </g>
   <g id="line2d_22">
    <path d="M 51.023622 27.276811 
L 54.668166 27.265652 
L 58.312711 27.259191 
L 61.957255 26.971157 
L 65.6018 26.598367 
L 69.246344 26.564343 
L 72.890889 26.795211 
L 76.535433 26.648077 
L 80.179978 26.536295 
L 83.824522 26.714839 
L 87.469066 27.107497 
L 91.113611 27.620538 
L 94.758155 28.320966 
L 98.4027 29.02181 
L 102.047244 29.698398 
L 105.691789 30.167163 
L 109.336333 30.608361 
L 112.980877 31.00017 
L 116.625422 31.270214 
L 120.269966 31.474264 
L 123.914511 31.787957 
L 127.559055 32.075817 
L 131.2036 32.497436 
L 134.848144 32.84411 
L 138.492688 33.049697 
L 142.137233 33.164786 
L 145.781777 33.27784 
L 149.426322 33.410795 
L 153.070866 33.643662 
L 156.715411 33.91503 
L 160.359955 33.927662 
L 164.004499 33.845868 
L 167.649044 33.864578 
L 171.293588 33.923147 
L 174.938133 33.930984 
L 178.582677 33.735627 
L 182.227222 33.56758 
L 185.871766 33.425769 
L 189.51631 33.405608 
L 193.160855 33.461575 
L 196.805399 33.328168 
L 200.449944 33.282088 
L 204.094488 33.385957 
L 207.739033 33.436489 
L 211.383577 33.341877 
L 215.028121 33.329806 
L 218.672666 33.338934 
L 222.31721 33.193588 
L 225.961755 33.094906 
L 229.606299 33.004027 
" clip-path="url(#p549ca14eb3)" style="fill: none; stroke: #000000; stroke-opacity: 0.2; stroke-width: 1.5; stroke-linecap: square"/>
   </g>
   <g id="line2d_23">
    <path d="M 86.740157 49.606299 
L 86.740157 7.086614 
" clip-path="url(#p549ca14eb3)" style="fill: none; stroke-dasharray: 5.55,2.4; stroke-dashoffset: 0; stroke: #000000; stroke-width: 1.5"/>
   </g>
   <g id="line2d_24">
    <path d="M 51.023622 28.346457 
L 229.606299 28.346457 
" clip-path="url(#p549ca14eb3)" style="fill: none; stroke-dasharray: 5.55,2.4; stroke-dashoffset: 0; stroke: #000000; stroke-width: 1.5"/>
   </g>
   <g id="patch_3">
    <path d="M 47.023622 49.606299 
L 47.023622 7.086614 
" style="fill: none; stroke: #000000; stroke-width: 0.8; stroke-linejoin: miter; stroke-linecap: square"/>
   </g>
   <g id="patch_4">
    <path d="M 51.023622 53.606299 
L 229.606299 53.606299 
" style="fill: none; stroke: #000000; stroke-width: 0.8; stroke-linejoin: miter; stroke-linecap: square"/>
   </g>
   <g id="text_5">
    <!-- all depths -->
    <g transform="translate(120.643086 1.086614) scale(0.08 -0.08)">
     <defs>
      <path id="DejaVuSans-6c" d="M 603 4863 
L 1178 4863 
L 1178 0 
L 603 0 
L 603 4863 
z
" transform="scale(0.015625)"/>
      <path id="DejaVuSans-64" d="M 2906 2969 
L 2906 4863 
L 3481 4863 
L 3481 0 
L 2906 0 
L 2906 525 
Q 2725 213 2448 61 
Q 2172 -91 1784 -91 
Q 1150 -91 751 415 
Q 353 922 353 1747 
Q 353 2572 751 3078 
Q 1150 3584 1784 3584 
Q 2172 3584 2448 3432 
Q 2725 3281 2906 2969 
z
M 947 1747 
Q 947 1113 1208 752 
Q 1469 391 1925 391 
Q 2381 391 2643 752 
Q 2906 1113 2906 1747 
Q 2906 2381 2643 2742 
Q 2381 3103 1925 3103 
Q 1469 3103 1208 2742 
Q 947 2381 947 1747 
z
" transform="scale(0.015625)"/>
      <path id="DejaVuSans-70" d="M 1159 525 
L 1159 -1331 
L 581 -1331 
L 581 3500 
L 1159 3500 
L 1159 2969 
Q 1341 3281 1617 3432 
Q 1894 3584 2278 3584 
Q 2916 3584 3314 3078 
Q 3713 2572 3713 1747 
Q 3713 922 3314 415 
Q 2916 -91 2278 -91 
Q 1894 -91 1617 61 
Q 1341 213 1159 525 
z
M 3116 1747 
Q 3116 2381 2855 2742 
Q 2594 3103 2138 3103 
Q 1681 3103 1420 2742 
Q 1159 2381 1159 1747 
Q 1159 1113 1420 752 
Q 1681 391 2138 391 
Q 2594 391 2855 752 
Q 3116 1113 3116 1747 
z
" transform="scale(0.015625)"/>
      <path id="DejaVuSans-74" d="M 1172 4494 
L 1172 3500 
L 2356 3500 
L 2356 3053 
L 1172 3053 
L 1172 1153 
Q 1172 725 1289 603 
Q 1406 481 1766 481 
L 2356 481 
L 2356 0 
L 1766 0 
Q 1100 0 847 248 
Q 594 497 594 1153 
L 594 3053 
L 172 3053 
L 172 3500 
L 594 3500 
L 594 4494 
L 1172 4494 
z
" transform="scale(0.015625)"/>
      <path id="DejaVuSans-73" d="M 2834 3397 
L 2834 2853 
Q 2591 2978 2328 3040 
Q 2066 3103 1784 3103 
Q 1356 3103 1142 2972 
Q 928 2841 928 2578 
Q 928 2378 1081 2264 
Q 1234 2150 1697 2047 
L 1894 2003 
Q 2506 1872 2764 1633 
Q 3022 1394 3022 966 
Q 3022 478 2636 193 
Q 2250 -91 1575 -91 
Q 1294 -91 989 -36 
Q 684 19 347 128 
L 347 722 
Q 666 556 975 473 
Q 1284 391 1588 391 
Q 1994 391 2212 530 
Q 2431 669 2431 922 
Q 2431 1156 2273 1281 
Q 2116 1406 1581 1522 
L 1381 1569 
Q 847 1681 609 1914 
Q 372 2147 372 2553 
Q 372 3047 722 3315 
Q 1072 3584 1716 3584 
Q 2034 3584 2315 3537 
Q 2597 3491 2834 3397 
z
" transform="scale(0.015625)"/>
     </defs>
     <use xlink:href="#DejaVuSans-61"/>
     <use xlink:href="#DejaVuSans-6c" x="61.279297"/>
     <use xlink:href="#DejaVuSans-6c" x="89.0625"/>
     <use xlink:href="#DejaVuSans-20" x="116.845703"/>
     <use xlink:href="#DejaVuSans-64" x="148.632812"/>
     <use xlink:href="#DejaVuSans-65" x="212.109375"/>
     <use xlink:href="#DejaVuSans-70" x="273.632812"/>
     <use xlink:href="#DejaVuSans-74" x="337.109375"/>
     <use xlink:href="#DejaVuSans-68" x="376.318359"/>
     <use xlink:href="#DejaVuSans-73" x="439.697266"/>
    </g>
   </g>
   <g id="legend_1">
    <g id="patch_5">
     <path d="M 107.535273 29.764739 
L 173.094648 29.764739 
Q 175.094648 29.764739 175.094648 27.764739 
L 175.094648 14.086614 
Q 175.094648 12.086614 173.094648 12.086614 
L 107.535273 12.086614 
Q 105.535273 12.086614 105.535273 14.086614 
L 105.535273 27.764739 
Q 105.535273 29.764739 107.535273 29.764739 
z
" style="fill: #ffffff; opacity: 0.8; stroke: #cccccc; stroke-linejoin: miter"/>
    </g>
    <g id="line2d_25">
     <path d="M 109.535273 20.185052 
L 119.535273 20.185052 
L 129.535273 20.185052 
" style="fill: none; stroke: #000000; stroke-width: 1.5; stroke-linecap: square"/>
    </g>
    <g id="text_6">
     <!-- iso-sur -->
     <g transform="translate(137.535273 23.685052) scale(0.1 -0.1)">
      <defs>
       <path id="DejaVuSans-69" d="M 603 3500 
L 1178 3500 
L 1178 0 
L 603 0 
L 603 3500 
z
M 603 4863 
L 1178 4863 
L 1178 4134 
L 603 4134 
L 603 4863 
z
" transform="scale(0.015625)"/>
       <path id="DejaVuSans-6f" d="M 1959 3097 
Q 1497 3097 1228 2736 
Q 959 2375 959 1747 
Q 959 1119 1226 758 
Q 1494 397 1959 397 
Q 2419 397 2687 759 
Q 2956 1122 2956 1747 
Q 2956 2369 2687 2733 
Q 2419 3097 1959 3097 
z
M 1959 3584 
Q 2709 3584 3137 3096 
Q 3566 2609 3566 1747 
Q 3566 888 3137 398 
Q 2709 -91 1959 -91 
Q 1206 -91 779 398 
Q 353 888 353 1747 
Q 353 2609 779 3096 
Q 1206 3584 1959 3584 
z
" transform="scale(0.015625)"/>
       <path id="DejaVuSans-2d" d="M 313 2009 
L 1997 2009 
L 1997 1497 
L 313 1497 
L 313 2009 
z
" transform="scale(0.015625)"/>
       <path id="DejaVuSans-75" d="M 544 1381 
L 544 3500 
L 1119 3500 
L 1119 1403 
Q 1119 906 1312 657 
Q 1506 409 1894 409 
Q 2359 409 2629 706 
Q 2900 1003 2900 1516 
L 2900 3500 
L 3475 3500 
L 3475 0 
L 2900 0 
L 2900 538 
Q 2691 219 2414 64 
Q 2138 -91 1772 -91 
Q 1169 -91 856 284 
Q 544 659 544 1381 
z
M 1991 3584 
L 1991 3584 
z
" transform="scale(0.015625)"/>
       <path id="DejaVuSans-72" d="M 2631 2963 
Q 2534 3019 2420 3045 
Q 2306 3072 2169 3072 
Q 1681 3072 1420 2755 
Q 1159 2438 1159 1844 
L 1159 0 
L 581 0 
L 581 3500 
L 1159 3500 
L 1159 2956 
Q 1341 3275 1631 3429 
Q 1922 3584 2338 3584 
Q 2397 3584 2469 3576 
Q 2541 3569 2628 3553 
L 2631 2963 
z
" transform="scale(0.015625)"/>
      </defs>
      <use xlink:href="#DejaVuSans-69"/>
      <use xlink:href="#DejaVuSans-73" x="27.783203"/>
      <use xlink:href="#DejaVuSans-6f" x="79.882812"/>
      <use xlink:href="#DejaVuSans-2d" x="142.939453"/>
      <use xlink:href="#DejaVuSans-73" x="179.023438"/>
      <use xlink:href="#DejaVuSans-75" x="231.123047"/>
      <use xlink:href="#DejaVuSans-72" x="294.501953"/>
     </g>
    </g>
   </g>
  </g>
  <g id="axes_2">
   <g id="patch_6">
    <path d="M 51.023622 106.299213 
L 229.606299 106.299213 
L 229.606299 63.779528 
L 51.023622 63.779528 
z
" style="fill: #ffffff"/>
   </g>
   <g id="patch_7">
    <path d="M 52.809449 85.03937 
L 84.954331 85.03937 
L 84.954331 82.471285 
L 52.809449 82.471285 
z
" clip-path="url(#pb14f51c24b)" style="opacity: 0.6"/>
   </g>
   <g id="patch_8">
    <path d="M 88.525984 85.03937 
L 120.670866 85.03937 
L 120.670866 86.048842 
L 88.525984 86.048842 
z
" clip-path="url(#pb14f51c24b)" style="opacity: 0.6"/>
   </g>
   <g id="patch_9">
    <path d="M 124.24252 85.03937 
L 156.387402 85.03937 
L 156.387402 94.121719 
L 124.24252 94.121719 
z
" clip-path="url(#pb14f51c24b)" style="opacity: 0.6"/>
   </g>
   <g id="patch_10">
    <path d="M 159.959055 85.03937 
L 192.103937 85.03937 
L 192.103937 94.408243 
L 159.959055 94.408243 
z
" clip-path="url(#pb14f51c24b)" style="opacity: 0.6"/>
   </g>
   <g id="patch_11">
    <path d="M 195.675591 85.03937 
L 227.820472 85.03937 
L 227.820472 92.188052 
L 195.675591 92.188052 
z
" clip-path="url(#pb14f51c24b)" style="opacity: 0.6"/>
   </g>
   <g id="matplotlib.axis_3">
    <g id="xtick_7">
     <g id="line2d_26">
      <g>
       <use xlink:href="#me92020f235" x="51.023622" y="110.299213" style="stroke: #000000; stroke-width: 0.8"/>
      </g>
     </g>
     <g id="text_7">
      <!-- 0 -->
      <g transform="translate(47.842372 124.89765) scale(0.1 -0.1)">
       <use xlink:href="#DejaVuSans-30"/>
      </g>
     </g>
    </g>
    <g id="xtick_8">
     <g id="line2d_27">
      <g>
       <use xlink:href="#me92020f235" x="86.740157" y="110.299213" style="stroke: #000000; stroke-width: 0.8"/>
      </g>
     </g>
     <g id="text_8">
      <!-- 1 -->
      <g transform="translate(83.558907 124.89765) scale(0.1 -0.1)">
       <defs>
        <path id="DejaVuSans-31" d="M 794 531 
L 1825 531 
L 1825 4091 
L 703 3866 
L 703 4441 
L 1819 4666 
L 2450 4666 
L 2450 531 
L 3481 531 
L 3481 0 
L 794 0 
L 794 531 
z
" transform="scale(0.015625)"/>
       </defs>
       <use xlink:href="#DejaVuSans-31"/>
      </g>
     </g>
    </g>
    <g id="xtick_9">
     <g id="line2d_28">
      <g>
       <use xlink:href="#me92020f235" x="122.456693" y="110.299213" style="stroke: #000000; stroke-width: 0.8"/>
      </g>
     </g>
     <g id="text_9">
      <!-- 2 -->
      <g transform="translate(119.275443 124.89765) scale(0.1 -0.1)">
       <use xlink:href="#DejaVuSans-32"/>
      </g>
     </g>
    </g>
    <g id="xtick_10">
     <g id="line2d_29">
      <g>
       <use xlink:href="#me92020f235" x="158.173228" y="110.299213" style="stroke: #000000; stroke-width: 0.8"/>
      </g>
     </g>
     <g id="text_10">
      <!-- 3 -->
      <g transform="translate(154.991978 124.89765) scale(0.1 -0.1)">
       <defs>
        <path id="DejaVuSans-33" d="M 2597 2516 
Q 3050 2419 3304 2112 
Q 3559 1806 3559 1356 
Q 3559 666 3084 287 
Q 2609 -91 1734 -91 
Q 1441 -91 1130 -33 
Q 819 25 488 141 
L 488 750 
Q 750 597 1062 519 
Q 1375 441 1716 441 
Q 2309 441 2620 675 
Q 2931 909 2931 1356 
Q 2931 1769 2642 2001 
Q 2353 2234 1838 2234 
L 1294 2234 
L 1294 2753 
L 1863 2753 
Q 2328 2753 2575 2939 
Q 2822 3125 2822 3475 
Q 2822 3834 2567 4026 
Q 2313 4219 1838 4219 
Q 1578 4219 1281 4162 
Q 984 4106 628 3988 
L 628 4550 
Q 988 4650 1302 4700 
Q 1616 4750 1894 4750 
Q 2613 4750 3031 4423 
Q 3450 4097 3450 3541 
Q 3450 3153 3228 2886 
Q 3006 2619 2597 2516 
z
" transform="scale(0.015625)"/>
       </defs>
       <use xlink:href="#DejaVuSans-33"/>
      </g>
     </g>
    </g>
    <g id="xtick_11">
     <g id="line2d_30">
      <g>
       <use xlink:href="#me92020f235" x="193.889764" y="110.299213" style="stroke: #000000; stroke-width: 0.8"/>
      </g>
     </g>
     <g id="text_11">
      <!-- 4 -->
      <g transform="translate(190.708514 124.89765) scale(0.1 -0.1)">
       <defs>
        <path id="DejaVuSans-34" d="M 2419 4116 
L 825 1625 
L 2419 1625 
L 2419 4116 
z
M 2253 4666 
L 3047 4666 
L 3047 1625 
L 3713 1625 
L 3713 1100 
L 3047 1100 
L 3047 0 
L 2419 0 
L 2419 1100 
L 313 1100 
L 313 1709 
L 2253 4666 
z
" transform="scale(0.015625)"/>
       </defs>
       <use xlink:href="#DejaVuSans-34"/>
      </g>
     </g>
    </g>
    <g id="xtick_12">
     <g id="line2d_31">
      <g>
       <use xlink:href="#me92020f235" x="229.606299" y="110.299213" style="stroke: #000000; stroke-width: 0.8"/>
      </g>
     </g>
     <g id="text_12">
      <!-- 5 -->
      <g transform="translate(226.425049 124.89765) scale(0.1 -0.1)">
       <defs>
        <path id="DejaVuSans-35" d="M 691 4666 
L 3169 4666 
L 3169 4134 
L 1269 4134 
L 1269 2991 
Q 1406 3038 1543 3061 
Q 1681 3084 1819 3084 
Q 2600 3084 3056 2656 
Q 3513 2228 3513 1497 
Q 3513 744 3044 326 
Q 2575 -91 1722 -91 
Q 1428 -91 1123 -41 
Q 819 9 494 109 
L 494 744 
Q 775 591 1075 516 
Q 1375 441 1709 441 
Q 2250 441 2565 725 
Q 2881 1009 2881 1497 
Q 2881 1984 2565 2268 
Q 2250 2553 1709 2553 
Q 1456 2553 1204 2497 
Q 953 2441 691 2322 
L 691 4666 
z
" transform="scale(0.015625)"/>
       </defs>
       <use xlink:href="#DejaVuSans-35"/>
      </g>
     </g>
    </g>
    <g id="text_13">
     <!-- relative distance from ROI center ($\sigma$) -->
     <g transform="translate(66.794961 137.056088) scale(0.08 -0.08)">
      <defs>
       <path id="DejaVuSans-76" d="M 191 3500 
L 800 3500 
L 1894 563 
L 2988 3500 
L 3597 3500 
L 2284 0 
L 1503 0 
L 191 3500 
z
" transform="scale(0.015625)"/>
       <path id="DejaVuSans-66" d="M 2375 4863 
L 2375 4384 
L 1825 4384 
Q 1516 4384 1395 4259 
Q 1275 4134 1275 3809 
L 1275 3500 
L 2222 3500 
L 2222 3053 
L 1275 3053 
L 1275 0 
L 697 0 
L 697 3053 
L 147 3053 
L 147 3500 
L 697 3500 
L 697 3744 
Q 697 4328 969 4595 
Q 1241 4863 1831 4863 
L 2375 4863 
z
" transform="scale(0.015625)"/>
       <path id="DejaVuSans-6d" d="M 3328 2828 
Q 3544 3216 3844 3400 
Q 4144 3584 4550 3584 
Q 5097 3584 5394 3201 
Q 5691 2819 5691 2113 
L 5691 0 
L 5113 0 
L 5113 2094 
Q 5113 2597 4934 2840 
Q 4756 3084 4391 3084 
Q 3944 3084 3684 2787 
Q 3425 2491 3425 1978 
L 3425 0 
L 2847 0 
L 2847 2094 
Q 2847 2600 2669 2842 
Q 2491 3084 2119 3084 
Q 1678 3084 1418 2786 
Q 1159 2488 1159 1978 
L 1159 0 
L 581 0 
L 581 3500 
L 1159 3500 
L 1159 2956 
Q 1356 3278 1631 3431 
Q 1906 3584 2284 3584 
Q 2666 3584 2933 3390 
Q 3200 3197 3328 2828 
z
" transform="scale(0.015625)"/>
       <path id="DejaVuSans-52" d="M 2841 2188 
Q 3044 2119 3236 1894 
Q 3428 1669 3622 1275 
L 4263 0 
L 3584 0 
L 2988 1197 
Q 2756 1666 2539 1819 
Q 2322 1972 1947 1972 
L 1259 1972 
L 1259 0 
L 628 0 
L 628 4666 
L 2053 4666 
Q 2853 4666 3247 4331 
Q 3641 3997 3641 3322 
Q 3641 2881 3436 2590 
Q 3231 2300 2841 2188 
z
M 1259 4147 
L 1259 2491 
L 2053 2491 
Q 2509 2491 2742 2702 
Q 2975 2913 2975 3322 
Q 2975 3731 2742 3939 
Q 2509 4147 2053 4147 
L 1259 4147 
z
" transform="scale(0.015625)"/>
       <path id="DejaVuSans-49" d="M 628 4666 
L 1259 4666 
L 1259 0 
L 628 0 
L 628 4666 
z
" transform="scale(0.015625)"/>
       <path id="DejaVuSans-28" d="M 1984 4856 
Q 1566 4138 1362 3434 
Q 1159 2731 1159 2009 
Q 1159 1288 1364 580 
Q 1569 -128 1984 -844 
L 1484 -844 
Q 1016 -109 783 600 
Q 550 1309 550 2009 
Q 550 2706 781 3412 
Q 1013 4119 1484 4856 
L 1984 4856 
z
" transform="scale(0.015625)"/>
       <path id="DejaVuSans-Oblique-3c3" d="M 2219 3044 
Q 1744 3044 1422 2700 
Q 1081 2341 969 1747 
Q 844 1119 1044 756 
Q 1241 397 1706 397 
Q 2166 397 2503 759 
Q 2844 1122 2966 1747 
Q 3075 2319 2881 2700 
Q 2700 3044 2219 3044 
z
M 2309 3503 
L 4219 3500 
L 4106 2925 
L 3463 2925 
Q 3706 2438 3575 1747 
Q 3406 888 2884 400 
Q 2359 -91 1609 -91 
Q 856 -91 525 400 
Q 194 888 363 1747 
Q 528 2609 1050 3097 
Q 1484 3503 2309 3503 
z
" transform="scale(0.015625)"/>
       <path id="DejaVuSans-29" d="M 513 4856 
L 1013 4856 
Q 1481 4119 1714 3412 
Q 1947 2706 1947 2009 
Q 1947 1309 1714 600 
Q 1481 -109 1013 -844 
L 513 -844 
Q 928 -128 1133 580 
Q 1338 1288 1338 2009 
Q 1338 2731 1133 3434 
Q 928 4138 513 4856 
z
" transform="scale(0.015625)"/>
      </defs>
      <use xlink:href="#DejaVuSans-72" transform="translate(0 0.015625)"/>
      <use xlink:href="#DejaVuSans-65" transform="translate(41.113281 0.015625)"/>
      <use xlink:href="#DejaVuSans-6c" transform="translate(102.636719 0.015625)"/>
      <use xlink:href="#DejaVuSans-61" transform="translate(130.419922 0.015625)"/>
      <use xlink:href="#DejaVuSans-74" transform="translate(191.699219 0.015625)"/>
      <use xlink:href="#DejaVuSans-69" transform="translate(230.908203 0.015625)"/>
      <use xlink:href="#DejaVuSans-76" transform="translate(258.691406 0.015625)"/>
      <use xlink:href="#DejaVuSans-65" transform="translate(317.871094 0.015625)"/>
      <use xlink:href="#DejaVuSans-20" transform="translate(379.394531 0.015625)"/>
      <use xlink:href="#DejaVuSans-64" transform="translate(411.181641 0.015625)"/>
      <use xlink:href="#DejaVuSans-69" transform="translate(474.658203 0.015625)"/>
      <use xlink:href="#DejaVuSans-73" transform="translate(502.441406 0.015625)"/>
      <use xlink:href="#DejaVuSans-74" transform="translate(554.541016 0.015625)"/>
      <use xlink:href="#DejaVuSans-61" transform="translate(593.75 0.015625)"/>
      <use xlink:href="#DejaVuSans-6e" transform="translate(655.029297 0.015625)"/>
      <use xlink:href="#DejaVuSans-63" transform="translate(718.408203 0.015625)"/>
      <use xlink:href="#DejaVuSans-65" transform="translate(773.388672 0.015625)"/>
      <use xlink:href="#DejaVuSans-20" transform="translate(834.912109 0.015625)"/>
      <use xlink:href="#DejaVuSans-66" transform="translate(866.699219 0.015625)"/>
      <use xlink:href="#DejaVuSans-72" transform="translate(901.904297 0.015625)"/>
      <use xlink:href="#DejaVuSans-6f" transform="translate(943.017578 0.015625)"/>
      <use xlink:href="#DejaVuSans-6d" transform="translate(1004.199219 0.015625)"/>
      <use xlink:href="#DejaVuSans-20" transform="translate(1101.611328 0.015625)"/>
      <use xlink:href="#DejaVuSans-52" transform="translate(1133.398438 0.015625)"/>
      <use xlink:href="#DejaVuSans-4f" transform="translate(1202.880859 0.015625)"/>
      <use xlink:href="#DejaVuSans-49" transform="translate(1281.591797 0.015625)"/>
      <use xlink:href="#DejaVuSans-20" transform="translate(1311.083984 0.015625)"/>
      <use xlink:href="#DejaVuSans-63" transform="translate(1342.871094 0.015625)"/>
      <use xlink:href="#DejaVuSans-65" transform="translate(1397.851562 0.015625)"/>
      <use xlink:href="#DejaVuSans-6e" transform="translate(1459.375 0.015625)"/>
      <use xlink:href="#DejaVuSans-74" transform="translate(1522.753906 0.015625)"/>
      <use xlink:href="#DejaVuSans-65" transform="translate(1561.962891 0.015625)"/>
      <use xlink:href="#DejaVuSans-72" transform="translate(1623.486328 0.015625)"/>
      <use xlink:href="#DejaVuSans-20" transform="translate(1664.599609 0.015625)"/>
      <use xlink:href="#DejaVuSans-28" transform="translate(1696.386719 0.015625)"/>
      <use xlink:href="#DejaVuSans-Oblique-3c3" transform="translate(1735.400391 0.015625)"/>
      <use xlink:href="#DejaVuSans-29" transform="translate(1798.779297 0.015625)"/>
     </g>
    </g>
   </g>
   <g id="matplotlib.axis_4">
    <g id="ytick_4">
     <g id="line2d_32">
      <g>
       <use xlink:href="#me2a4eef83d" x="47.023622" y="106.299213" style="stroke: #000000; stroke-width: 0.8"/>
      </g>
     </g>
     <g id="text_14">
      <!-- −1 -->
      <g transform="translate(25.281435 110.098431) scale(0.1 -0.1)">
       <use xlink:href="#DejaVuSans-2212"/>
       <use xlink:href="#DejaVuSans-31" x="83.789062"/>
      </g>
     </g>
    </g>
    <g id="ytick_5">
     <g id="line2d_33">
      <g>
       <use xlink:href="#me2a4eef83d" x="47.023622" y="85.03937" style="stroke: #000000; stroke-width: 0.8"/>
      </g>
     </g>
     <g id="text_15">
      <!-- 0 -->
      <g transform="translate(33.661122 88.838589) scale(0.1 -0.1)">
       <use xlink:href="#DejaVuSans-30"/>
      </g>
     </g>
    </g>
    <g id="ytick_6">
     <g id="line2d_34">
      <g>
       <use xlink:href="#me2a4eef83d" x="47.023622" y="63.779528" style="stroke: #000000; stroke-width: 0.8"/>
      </g>
     </g>
     <g id="text_16">
      <!-- 1 -->
      <g transform="translate(33.661122 67.578746) scale(0.1 -0.1)">
       <use xlink:href="#DejaVuSans-31"/>
      </g>
     </g>
    </g>
    <g id="text_17">
     <!-- Binned Avg -->
     <g transform="translate(19.617685 107.644995) rotate(-90) scale(0.08 -0.08)">
      <defs>
       <path id="DejaVuSans-41" d="M 2188 4044 
L 1331 1722 
L 3047 1722 
L 2188 4044 
z
M 1831 4666 
L 2547 4666 
L 4325 0 
L 3669 0 
L 3244 1197 
L 1141 1197 
L 716 0 
L 50 0 
L 1831 4666 
z
" transform="scale(0.015625)"/>
      </defs>
      <use xlink:href="#DejaVuSans-42"/>
      <use xlink:href="#DejaVuSans-69" x="68.603516"/>
      <use xlink:href="#DejaVuSans-6e" x="96.386719"/>
      <use xlink:href="#DejaVuSans-6e" x="159.765625"/>
      <use xlink:href="#DejaVuSans-65" x="223.144531"/>
      <use xlink:href="#DejaVuSans-64" x="284.667969"/>
      <use xlink:href="#DejaVuSans-20" x="348.144531"/>
      <use xlink:href="#DejaVuSans-41" x="379.931641"/>
      <use xlink:href="#DejaVuSans-76" x="442.464844"/>
      <use xlink:href="#DejaVuSans-67" x="501.644531"/>
     </g>
    </g>
   </g>
   <g id="LineCollection_1">
    <path d="M 68.88189 86.600123 
L 68.88189 78.342447 
" clip-path="url(#pb14f51c24b)" style="fill: none; stroke: #000000; stroke-width: 1.5"/>
    <path d="M 104.598425 89.241425 
L 104.598425 82.856259 
" clip-path="url(#pb14f51c24b)" style="fill: none; stroke: #000000; stroke-width: 1.5"/>
    <path d="M 140.314961 97.074822 
L 140.314961 91.168615 
" clip-path="url(#pb14f51c24b)" style="fill: none; stroke: #000000; stroke-width: 1.5"/>
    <path d="M 176.031496 97.151331 
L 176.031496 91.665155 
" clip-path="url(#pb14f51c24b)" style="fill: none; stroke: #000000; stroke-width: 1.5"/>
    <path d="M 211.748031 94.860222 
L 211.748031 89.515881 
" clip-path="url(#pb14f51c24b)" style="fill: none; stroke: #000000; stroke-width: 1.5"/>
   </g>
   <g id="line2d_35">
    <defs>
     <path id="mae125ea012" d="M 5 0 
L -5 -0 
" style="stroke: #000000"/>
    </defs>
    <g clip-path="url(#pb14f51c24b)">
     <use xlink:href="#mae125ea012" x="68.88189" y="86.600123" style="stroke: #000000"/>
     <use xlink:href="#mae125ea012" x="104.598425" y="89.241425" style="stroke: #000000"/>
     <use xlink:href="#mae125ea012" x="140.314961" y="97.074822" style="stroke: #000000"/>
     <use xlink:href="#mae125ea012" x="176.031496" y="97.151331" style="stroke: #000000"/>
     <use xlink:href="#mae125ea012" x="211.748031" y="94.860222" style="stroke: #000000"/>
    </g>
   </g>
   <g id="line2d_36">
    <g clip-path="url(#pb14f51c24b)">
     <use xlink:href="#mae125ea012" x="68.88189" y="78.342447" style="stroke: #000000"/>
     <use xlink:href="#mae125ea012" x="104.598425" y="82.856259" style="stroke: #000000"/>
     <use xlink:href="#mae125ea012" x="140.314961" y="91.168615" style="stroke: #000000"/>
     <use xlink:href="#mae125ea012" x="176.031496" y="91.665155" style="stroke: #000000"/>
     <use xlink:href="#mae125ea012" x="211.748031" y="89.515881" style="stroke: #000000"/>
    </g>
   </g>
   <g id="line2d_37">
    <path d="M 51.023622 85.03937 
L 229.606299 85.03937 
" clip-path="url(#pb14f51c24b)" style="fill: none; stroke-dasharray: 5.55,2.4; stroke-dashoffset: 0; stroke: #000000; stroke-width: 1.5"/>
   </g>
   <g id="patch_12">
    <path d="M 47.023622 106.299213 
L 47.023622 63.779528 
" style="fill: none; stroke: #000000; stroke-width: 0.8; stroke-linejoin: miter; stroke-linecap: square"/>
   </g>
   <g id="patch_13">
    <path d="M 51.023622 110.299213 
L 229.606299 110.299213 
" style="fill: none; stroke: #000000; stroke-width: 0.8; stroke-linejoin: miter; stroke-linecap: square"/>
   </g>
   <g id="text_18">
    <!-- * -->
    <g transform="translate(137.314961 88.67299) scale(0.12 -0.12)">
     <defs>
      <path id="DejaVuSans-2a" d="M 3009 3897 
L 1888 3291 
L 3009 2681 
L 2828 2375 
L 1778 3009 
L 1778 1831 
L 1422 1831 
L 1422 3009 
L 372 2375 
L 191 2681 
L 1313 3291 
L 191 3897 
L 372 4206 
L 1422 3572 
L 1422 4750 
L 1778 4750 
L 1778 3572 
L 2828 4206 
L 3009 3897 
z
" transform="scale(0.015625)"/>
     </defs>
     <use xlink:href="#DejaVuSans-2a"/>
    </g>
   </g>
   <g id="text_19">
    <!-- * -->
    <g transform="translate(173.031496 89.16953) scale(0.12 -0.12)">
     <use xlink:href="#DejaVuSans-2a"/>
    </g>
   </g>
   <g id="text_20">
    <!-- * -->
    <g transform="translate(208.748031 87.020256) scale(0.12 -0.12)">
     <use xlink:href="#DejaVuSans-2a"/>
    </g>
   </g>
  </g>
 </g>
 <defs>
  <clipPath id="p549ca14eb3">
   <rect x="51.023622" y="7.086614" width="178.582677" height="42.519685"/>
  </clipPath>
  <clipPath id="pb14f51c24b">
   <rect x="51.023622" y="63.779528" width="178.582677" height="42.519685"/>
  </clipPath>
 </defs>
</svg>
