<?xml version="1.0" encoding="utf-8" standalone="no"?>
<!DOCTYPE svg PUBLIC "-//W3C//DTD SVG 1.1//EN"
  "http://www.w3.org/Graphics/SVG/1.1/DTD/svg11.dtd">
<svg xmlns:xlink="http://www.w3.org/1999/xlink" width="576pt" height="504pt" viewBox="0 0 576 504" xmlns="http://www.w3.org/2000/svg" version="1.1">
 <metadata>
  <rdf:RDF xmlns:dc="http://purl.org/dc/elements/1.1/" xmlns:cc="http://creativecommons.org/ns#" xmlns:rdf="http://www.w3.org/1999/02/22-rdf-syntax-ns#">
   <cc:Work>
    <dc:type rdf:resource="http://purl.org/dc/dcmitype/StillImage"/>
    <dc:date>2026-05-26T10:36:38.412922</dc:date>
    <dc:format>image/svg+xml</dc:format>
    <dc:creator>
     <cc:Agent>
      <dc:title>Matplotlib v3.8.0, https://matplotlib.org/</dc:title>
     </cc:Agent>
    </dc:creator>
   </cc:Work>
  </rdf:RDF>
 </metadata>
 <defs>
  <style type="text/css">*{stroke-linejoin: round; stroke-linecap: butt}</style>
 </defs>
 <g id="figure_1">
  <g id="patch_1">
   <path d="M 0 504 
L 576 504 
L 576 0 
L 0 0 
z
" style="fill: #ffffff"/>
  </g>
  <g id="axes_1">
   <g id="patch_2">
    <path d="M 86.4 241.92 
L 489.6 241.92 
L 489.6 40.32 
L 86.4 40.32 
z
" style="fill: #ffffff"/>
   </g>
   <g id="PolyCollection_1">
    <defs>
     <path id="ma4dda775e5" d="M 86.4 -356.553394 
L 86.4 -334.796467 
L 94.628571 -333.582853 
L 102.857143 -331.76658 
L 111.085714 -329.506601 
L 119.314286 -331.021682 
L 127.542857 -338.037643 
L 135.771429 -346.21072 
L 144 -351.533513 
L 152.228571 -356.711721 
L 160.457143 -356.477029 
L 168.685714 -353.916061 
L 176.914286 -351.093079 
L 185.142857 -351.274151 
L 193.371429 -350.774892 
L 201.6 -352.030873 
L 209.828571 -352.530266 
L 218.057143 -352.964541 
L 226.285714 -351.158557 
L 234.514286 -349.014012 
L 242.742857 -348.194525 
L 250.971429 -345.684163 
L 259.2 -345.778714 
L 267.428571 -345.237416 
L 275.657143 -344.300796 
L 283.885714 -344.438392 
L 292.114286 -344.717247 
L 300.342857 -343.593374 
L 308.571429 -344.419432 
L 316.8 -347.080224 
L 325.028571 -348.726027 
L 333.257143 -347.955007 
L 341.485714 -345.415472 
L 349.714286 -344.163067 
L 357.942857 -344.183729 
L 366.171429 -346.692233 
L 374.4 -348.006395 
L 382.628571 -350.788936 
L 390.857143 -351.049901 
L 399.085714 -348.638829 
L 407.314286 -346.924218 
L 415.542857 -345.379071 
L 423.771429 -343.097257 
L 432 -340.899966 
L 440.228571 -339.108434 
L 448.457143 -337.314286 
L 456.685714 -335.985161 
L 464.914286 -334.438462 
L 473.142857 -331.672067 
L 481.371429 -329.787517 
L 489.6 -329.777181 
L 489.6 -355.887334 
L 489.6 -355.887334 
L 481.371429 -355.347857 
L 473.142857 -355.685599 
L 464.914286 -357.894997 
L 456.685714 -358.962932 
L 448.457143 -358.552879 
L 440.228571 -358.938551 
L 432 -358.772303 
L 423.771429 -359.289373 
L 415.542857 -360.23417 
L 407.314286 -361.332203 
L 399.085714 -362.434353 
L 390.857143 -363.63025 
L 382.628571 -362.381543 
L 374.4 -360.087213 
L 366.171429 -359.244557 
L 357.942857 -357.083162 
L 349.714286 -357.006469 
L 341.485714 -356.960913 
L 333.257143 -357.81639 
L 325.028571 -358.474923 
L 316.8 -358.928175 
L 308.571429 -358.436266 
L 300.342857 -358.549738 
L 292.114286 -359.632398 
L 283.885714 -358.997355 
L 275.657143 -358.638517 
L 267.428571 -360.545082 
L 259.2 -362.466517 
L 250.971429 -363.737255 
L 242.742857 -365.939448 
L 234.514286 -367.999788 
L 226.285714 -370.110918 
L 218.057143 -371.769137 
L 209.828571 -372.035794 
L 201.6 -372.718007 
L 193.371429 -371.497022 
L 185.142857 -370.996656 
L 176.914286 -369.088973 
L 168.685714 -368.531607 
L 160.457143 -369.242769 
L 152.228571 -368.843701 
L 144 -366.190148 
L 135.771429 -364.770711 
L 127.542857 -362.163479 
L 119.314286 -358.493995 
L 111.085714 -356.455318 
L 102.857143 -355.685658 
L 94.628571 -355.980645 
L 86.4 -356.553394 
z
" style="stroke: #4c4c4c; stroke-opacity: 0.4"/>
    </defs>
    <g clip-path="url(#p323adc8e61)">
     <use xlink:href="#ma4dda775e5" x="0" y="504" style="fill: #4c4c4c; fill-opacity: 0.4; stroke: #4c4c4c; stroke-opacity: 0.4"/>
    </g>
   </g>
   <g id="matplotlib.axis_1">
    <g id="xtick_1">
     <g id="line2d_1">
      <defs>
       <path id="m50ca4a42b5" d="M 0 0 
L 0 3.5 
" style="stroke: #000000; stroke-width: 0.8"/>
      </defs>
      <g>
       <use xlink:href="#m50ca4a42b5" x="86.4" y="245.92" style="stroke: #000000; stroke-width: 0.8"/>
      </g>
     </g>
    </g>
    <g id="xtick_2">
     <g id="line2d_2">
      <g>
       <use xlink:href="#m50ca4a42b5" x="167.04" y="245.92" style="stroke: #000000; stroke-width: 0.8"/>
      </g>
     </g>
    </g>
    <g id="xtick_3">
     <g id="line2d_3">
      <g>
       <use xlink:href="#m50ca4a42b5" x="247.68" y="245.92" style="stroke: #000000; stroke-width: 0.8"/>
      </g>
     </g>
    </g>
    <g id="xtick_4">
     <g id="line2d_4">
      <g>
       <use xlink:href="#m50ca4a42b5" x="328.32" y="245.92" style="stroke: #000000; stroke-width: 0.8"/>
      </g>
     </g>
    </g>
    <g id="xtick_5">
     <g id="line2d_5">
      <g>
       <use xlink:href="#m50ca4a42b5" x="408.96" y="245.92" style="stroke: #000000; stroke-width: 0.8"/>
      </g>
     </g>
    </g>
    <g id="xtick_6">
     <g id="line2d_6">
      <g>
       <use xlink:href="#m50ca4a42b5" x="489.6" y="245.92" style="stroke: #000000; stroke-width: 0.8"/>
      </g>
     </g>
    </g>
   </g>
   <g id="matplotlib.axis_2">
    <g id="ytick_1">
     <g id="line2d_7">
      <defs>
       <path id="m236bb2e2f5" d="M 0 0 
L -3.5 0 
" style="stroke: #000000; stroke-width: 0.8"/>
      </defs>
      <g>
       <use xlink:href="#m236bb2e2f5" x="82.4" y="241.92" style="stroke: #000000; stroke-width: 0.8"/>
      </g>
     </g>
     <g id="text_1">
      <!-- −2.0 -->
      <g transform="translate(51.117187 245.719219) scale(0.1 -0.1)">
       <defs>
        <path id="DejaVuSans-2212" d="M 678 2272 
L 4684 2272 
L 4684 1741 
L 678 1741 
L 678 2272 
z
" transform="scale(0.015625)"/>
        <path id="DejaVuSans-32" d="M 1228 531 
L 3431 531 
L 3431 0 
L 469 0 
L 469 531 
Q 828 903 1448 1529 
Q 2069 2156 2228 2338 
Q 2531 2678 2651 2914 
Q 2772 3150 2772 3378 
Q 2772 3750 2511 3984 
Q 2250 4219 1831 4219 
Q 1534 4219 1204 4116 
Q 875 4013 500 3803 
L 500 4441 
Q 881 4594 1212 4672 
Q 1544 4750 1819 4750 
Q 2544 4750 2975 4387 
Q 3406 4025 3406 3419 
Q 3406 3131 3298 2873 
Q 3191 2616 2906 2266 
Q 2828 2175 2409 1742 
Q 1991 1309 1228 531 
z
" transform="scale(0.015625)"/>
        <path id="DejaVuSans-2e" d="M 684 794 
L 1344 794 
L 1344 0 
L 684 0 
L 684 794 
z
" transform="scale(0.015625)"/>
        <path id="DejaVuSans-30" d="M 2034 4250 
Q 1547 4250 1301 3770 
Q 1056 3291 1056 2328 
Q 1056 1369 1301 889 
Q 1547 409 2034 409 
Q 2525 409 2770 889 
Q 3016 1369 3016 2328 
Q 3016 3291 2770 3770 
Q 2525 4250 2034 4250 
z
M 2034 4750 
Q 2819 4750 3233 4129 
Q 3647 3509 3647 2328 
Q 3647 1150 3233 529 
Q 2819 -91 2034 -91 
Q 1250 -91 836 529 
Q 422 1150 422 2328 
Q 422 3509 836 4129 
Q 1250 4750 2034 4750 
z
" transform="scale(0.015625)"/>
       </defs>
       <use xlink:href="#DejaVuSans-2212"/>
       <use xlink:href="#DejaVuSans-32" x="83.789062"/>
       <use xlink:href="#DejaVuSans-2e" x="147.412109"/>
       <use xlink:href="#DejaVuSans-30" x="179.199219"/>
      </g>
     </g>
    </g>
    <g id="ytick_2">
     <g id="line2d_8">
      <g>
       <use xlink:href="#m236bb2e2f5" x="82.4" y="216.72" style="stroke: #000000; stroke-width: 0.8"/>
      </g>
     </g>
     <g id="text_2">
      <!-- −1.5 -->
      <g transform="translate(51.117187 220.519219) scale(0.1 -0.1)">
       <defs>
        <path id="DejaVuSans-31" d="M 794 531 
L 1825 531 
L 1825 4091 
L 703 3866 
L 703 4441 
L 1819 4666 
L 2450 4666 
L 2450 531 
L 3481 531 
L 3481 0 
L 794 0 
L 794 531 
z
" transform="scale(0.015625)"/>
        <path id="DejaVuSans-35" d="M 691 4666 
L 3169 4666 
L 3169 4134 
L 1269 4134 
L 1269 2991 
Q 1406 3038 1543 3061 
Q 1681 3084 1819 3084 
Q 2600 3084 3056 2656 
Q 3513 2228 3513 1497 
Q 3513 744 3044 326 
Q 2575 -91 1722 -91 
Q 1428 -91 1123 -41 
Q 819 9 494 109 
L 494 744 
Q 775 591 1075 516 
Q 1375 441 1709 441 
Q 2250 441 2565 725 
Q 2881 1009 2881 1497 
Q 2881 1984 2565 2268 
Q 2250 2553 1709 2553 
Q 1456 2553 1204 2497 
Q 953 2441 691 2322 
L 691 4666 
z
" transform="scale(0.015625)"/>
       </defs>
       <use xlink:href="#DejaVuSans-2212"/>
       <use xlink:href="#DejaVuSans-31" x="83.789062"/>
       <use xlink:href="#DejaVuSans-2e" x="147.412109"/>
       <use xlink:href="#DejaVuSans-35" x="179.199219"/>
      </g>
     </g>
    </g>
    <g id="ytick_3">
     <g id="line2d_9">
      <g>
       <use xlink:href="#m236bb2e2f5" x="82.4" y="191.52" style="stroke: #000000; stroke-width: 0.8"/>
      </g>
     </g>
     <g id="text_3">
      <!-- −1.0 -->
      <g transform="translate(51.117187 195.319219) scale(0.1 -0.1)">
       <use xlink:href="#DejaVuSans-2212"/>
       <use xlink:href="#DejaVuSans-31" x="83.789062"/>
       <use xlink:href="#DejaVuSans-2e" x="147.412109"/>
       <use xlink:href="#DejaVuSans-30" x="179.199219"/>
      </g>
     </g>
    </g>
    <g id="ytick_4">
     <g id="line2d_10">
      <g>
       <use xlink:href="#m236bb2e2f5" x="82.4" y="166.32" style="stroke: #000000; stroke-width: 0.8"/>
      </g>
     </g>
     <g id="text_4">
      <!-- −0.5 -->
      <g transform="translate(51.117187 170.119219) scale(0.1 -0.1)">
       <use xlink:href="#DejaVuSans-2212"/>
       <use xlink:href="#DejaVuSans-30" x="83.789062"/>
       <use xlink:href="#DejaVuSans-2e" x="147.412109"/>
       <use xlink:href="#DejaVuSans-35" x="179.199219"/>
      </g>
     </g>
    </g>
    <g id="ytick_5">
     <g id="line2d_11">
      <g>
       <use xlink:href="#m236bb2e2f5" x="82.4" y="141.12" style="stroke: #000000; stroke-width: 0.8"/>
      </g>
     </g>
     <g id="text_5">
      <!-- 0.0 -->
      <g transform="translate(59.496875 144.919219) scale(0.1 -0.1)">
       <use xlink:href="#DejaVuSans-30"/>
       <use xlink:href="#DejaVuSans-2e" x="63.623047"/>
       <use xlink:href="#DejaVuSans-30" x="95.410156"/>
      </g>
     </g>
    </g>
    <g id="ytick_6">
     <g id="line2d_12">
      <g>
       <use xlink:href="#m236bb2e2f5" x="82.4" y="115.92" style="stroke: #000000; stroke-width: 0.8"/>
      </g>
     </g>
     <g id="text_6">
      <!-- 0.5 -->
      <g transform="translate(59.496875 119.719219) scale(0.1 -0.1)">
       <use xlink:href="#DejaVuSans-30"/>
       <use xlink:href="#DejaVuSans-2e" x="63.623047"/>
       <use xlink:href="#DejaVuSans-35" x="95.410156"/>
      </g>
     </g>
    </g>
    <g id="ytick_7">
     <g id="line2d_13">
      <g>
       <use xlink:href="#m236bb2e2f5" x="82.4" y="90.72" style="stroke: #000000; stroke-width: 0.8"/>
      </g>
     </g>
     <g id="text_7">
      <!-- 1.0 -->
      <g transform="translate(59.496875 94.519219) scale(0.1 -0.1)">
       <use xlink:href="#DejaVuSans-31"/>
       <use xlink:href="#DejaVuSans-2e" x="63.623047"/>
       <use xlink:href="#DejaVuSans-30" x="95.410156"/>
      </g>
     </g>
    </g>
    <g id="ytick_8">
     <g id="line2d_14">
      <g>
       <use xlink:href="#m236bb2e2f5" x="82.4" y="65.52" style="stroke: #000000; stroke-width: 0.8"/>
      </g>
     </g>
     <g id="text_8">
      <!-- 1.5 -->
      <g transform="translate(59.496875 69.319219) scale(0.1 -0.1)">
       <use xlink:href="#DejaVuSans-31"/>
       <use xlink:href="#DejaVuSans-2e" x="63.623047"/>
       <use xlink:href="#DejaVuSans-35" x="95.410156"/>
      </g>
     </g>
    </g>
    <g id="ytick_9">
     <g id="line2d_15">
      <g>
       <use xlink:href="#m236bb2e2f5" x="82.4" y="40.32" style="stroke: #000000; stroke-width: 0.8"/>
      </g>
     </g>
     <g id="text_9">
      <!-- 2.0 -->
      <g transform="translate(59.496875 44.119219) scale(0.1 -0.1)">
       <use xlink:href="#DejaVuSans-32"/>
       <use xlink:href="#DejaVuSans-2e" x="63.623047"/>
       <use xlink:href="#DejaVuSans-30" x="95.410156"/>
      </g>
     </g>
    </g>
    <g id="text_10">
     <!-- BOLD % change -->
     <g transform="translate(45.453437 173.31625) rotate(-90) scale(0.08 -0.08)">
      <defs>
       <path id="DejaVuSans-42" d="M 1259 2228 
L 1259 519 
L 2272 519 
Q 2781 519 3026 730 
Q 3272 941 3272 1375 
Q 3272 1813 3026 2020 
Q 2781 2228 2272 2228 
L 1259 2228 
z
M 1259 4147 
L 1259 2741 
L 2194 2741 
Q 2656 2741 2882 2914 
Q 3109 3088 3109 3444 
Q 3109 3797 2882 3972 
Q 2656 4147 2194 4147 
L 1259 4147 
z
M 628 4666 
L 2241 4666 
Q 2963 4666 3353 4366 
Q 3744 4066 3744 3513 
Q 3744 3084 3544 2831 
Q 3344 2578 2956 2516 
Q 3422 2416 3680 2098 
Q 3938 1781 3938 1306 
Q 3938 681 3513 340 
Q 3088 0 2303 0 
L 628 0 
L 628 4666 
z
" transform="scale(0.015625)"/>
       <path id="DejaVuSans-4f" d="M 2522 4238 
Q 1834 4238 1429 3725 
Q 1025 3213 1025 2328 
Q 1025 1447 1429 934 
Q 1834 422 2522 422 
Q 3209 422 3611 934 
Q 4013 1447 4013 2328 
Q 4013 3213 3611 3725 
Q 3209 4238 2522 4238 
z
M 2522 4750 
Q 3503 4750 4090 4092 
Q 4678 3434 4678 2328 
Q 4678 1225 4090 567 
Q 3503 -91 2522 -91 
Q 1538 -91 948 565 
Q 359 1222 359 2328 
Q 359 3434 948 4092 
Q 1538 4750 2522 4750 
z
" transform="scale(0.015625)"/>
       <path id="DejaVuSans-4c" d="M 628 4666 
L 1259 4666 
L 1259 531 
L 3531 531 
L 3531 0 
L 628 0 
L 628 4666 
z
" transform="scale(0.015625)"/>
       <path id="DejaVuSans-44" d="M 1259 4147 
L 1259 519 
L 2022 519 
Q 2988 519 3436 956 
Q 3884 1394 3884 2338 
Q 3884 3275 3436 3711 
Q 2988 4147 2022 4147 
L 1259 4147 
z
M 628 4666 
L 1925 4666 
Q 3281 4666 3915 4102 
Q 4550 3538 4550 2338 
Q 4550 1131 3912 565 
Q 3275 0 1925 0 
L 628 0 
L 628 4666 
z
" transform="scale(0.015625)"/>
       <path id="DejaVuSans-20" transform="scale(0.015625)"/>
       <path id="DejaVuSans-25" d="M 4653 2053 
Q 4381 2053 4226 1822 
Q 4072 1591 4072 1178 
Q 4072 772 4226 539 
Q 4381 306 4653 306 
Q 4919 306 5073 539 
Q 5228 772 5228 1178 
Q 5228 1588 5073 1820 
Q 4919 2053 4653 2053 
z
M 4653 2450 
Q 5147 2450 5437 2106 
Q 5728 1763 5728 1178 
Q 5728 594 5436 251 
Q 5144 -91 4653 -91 
Q 4153 -91 3862 251 
Q 3572 594 3572 1178 
Q 3572 1766 3864 2108 
Q 4156 2450 4653 2450 
z
M 1428 4353 
Q 1159 4353 1004 4120 
Q 850 3888 850 3481 
Q 850 3069 1003 2837 
Q 1156 2606 1428 2606 
Q 1700 2606 1854 2837 
Q 2009 3069 2009 3481 
Q 2009 3884 1853 4118 
Q 1697 4353 1428 4353 
z
M 4250 4750 
L 4750 4750 
L 1831 -91 
L 1331 -91 
L 4250 4750 
z
M 1428 4750 
Q 1922 4750 2215 4408 
Q 2509 4066 2509 3481 
Q 2509 2891 2217 2550 
Q 1925 2209 1428 2209 
Q 931 2209 642 2551 
Q 353 2894 353 3481 
Q 353 4063 643 4406 
Q 934 4750 1428 4750 
z
" transform="scale(0.015625)"/>
       <path id="DejaVuSans-63" d="M 3122 3366 
L 3122 2828 
Q 2878 2963 2633 3030 
Q 2388 3097 2138 3097 
Q 1578 3097 1268 2742 
Q 959 2388 959 1747 
Q 959 1106 1268 751 
Q 1578 397 2138 397 
Q 2388 397 2633 464 
Q 2878 531 3122 666 
L 3122 134 
Q 2881 22 2623 -34 
Q 2366 -91 2075 -91 
Q 1284 -91 818 406 
Q 353 903 353 1747 
Q 353 2603 823 3093 
Q 1294 3584 2113 3584 
Q 2378 3584 2631 3529 
Q 2884 3475 3122 3366 
z
" transform="scale(0.015625)"/>
       <path id="DejaVuSans-68" d="M 3513 2113 
L 3513 0 
L 2938 0 
L 2938 2094 
Q 2938 2591 2744 2837 
Q 2550 3084 2163 3084 
Q 1697 3084 1428 2787 
Q 1159 2491 1159 1978 
L 1159 0 
L 581 0 
L 581 4863 
L 1159 4863 
L 1159 2956 
Q 1366 3272 1645 3428 
Q 1925 3584 2291 3584 
Q 2894 3584 3203 3211 
Q 3513 2838 3513 2113 
z
" transform="scale(0.015625)"/>
       <path id="DejaVuSans-61" d="M 2194 1759 
Q 1497 1759 1228 1600 
Q 959 1441 959 1056 
Q 959 750 1161 570 
Q 1363 391 1709 391 
Q 2188 391 2477 730 
Q 2766 1069 2766 1631 
L 2766 1759 
L 2194 1759 
z
M 3341 1997 
L 3341 0 
L 2766 0 
L 2766 531 
Q 2569 213 2275 61 
Q 1981 -91 1556 -91 
Q 1019 -91 701 211 
Q 384 513 384 1019 
Q 384 1609 779 1909 
Q 1175 2209 1959 2209 
L 2766 2209 
L 2766 2266 
Q 2766 2663 2505 2880 
Q 2244 3097 1772 3097 
Q 1472 3097 1187 3025 
Q 903 2953 641 2809 
L 641 3341 
Q 956 3463 1253 3523 
Q 1550 3584 1831 3584 
Q 2591 3584 2966 3190 
Q 3341 2797 3341 1997 
z
" transform="scale(0.015625)"/>
       <path id="DejaVuSans-6e" d="M 3513 2113 
L 3513 0 
L 2938 0 
L 2938 2094 
Q 2938 2591 2744 2837 
Q 2550 3084 2163 3084 
Q 1697 3084 1428 2787 
Q 1159 2491 1159 1978 
L 1159 0 
L 581 0 
L 581 3500 
L 1159 3500 
L 1159 2956 
Q 1366 3272 1645 3428 
Q 1925 3584 2291 3584 
Q 2894 3584 3203 3211 
Q 3513 2838 3513 2113 
z
" transform="scale(0.015625)"/>
       <path id="DejaVuSans-67" d="M 2906 1791 
Q 2906 2416 2648 2759 
Q 2391 3103 1925 3103 
Q 1463 3103 1205 2759 
Q 947 2416 947 1791 
Q 947 1169 1205 825 
Q 1463 481 1925 481 
Q 2391 481 2648 825 
Q 2906 1169 2906 1791 
z
M 3481 434 
Q 3481 -459 3084 -895 
Q 2688 -1331 1869 -1331 
Q 1566 -1331 1297 -1286 
Q 1028 -1241 775 -1147 
L 775 -588 
Q 1028 -725 1275 -790 
Q 1522 -856 1778 -856 
Q 2344 -856 2625 -561 
Q 2906 -266 2906 331 
L 2906 616 
Q 2728 306 2450 153 
Q 2172 0 1784 0 
Q 1141 0 747 490 
Q 353 981 353 1791 
Q 353 2603 747 3093 
Q 1141 3584 1784 3584 
Q 2172 3584 2450 3431 
Q 2728 3278 2906 2969 
L 2906 3500 
L 3481 3500 
L 3481 434 
z
" transform="scale(0.015625)"/>
       <path id="DejaVuSans-65" d="M 3597 1894 
L 3597 1613 
L 953 1613 
Q 991 1019 1311 708 
Q 1631 397 2203 397 
Q 2534 397 2845 478 
Q 3156 559 3463 722 
L 3463 178 
Q 3153 47 2828 -22 
Q 2503 -91 2169 -91 
Q 1331 -91 842 396 
Q 353 884 353 1716 
Q 353 2575 817 3079 
Q 1281 3584 2069 3584 
Q 2775 3584 3186 3129 
Q 3597 2675 3597 1894 
z
M 3022 2063 
Q 3016 2534 2758 2815 
Q 2500 3097 2075 3097 
Q 1594 3097 1305 2825 
Q 1016 2553 972 2059 
L 3022 2063 
z
" transform="scale(0.015625)"/>
      </defs>
      <use xlink:href="#DejaVuSans-42"/>
      <use xlink:href="#DejaVuSans-4f" x="66.853516"/>
      <use xlink:href="#DejaVuSans-4c" x="145.564453"/>
      <use xlink:href="#DejaVuSans-44" x="201.277344"/>
      <use xlink:href="#DejaVuSans-20" x="278.279297"/>
      <use xlink:href="#DejaVuSans-25" x="310.066406"/>
      <use xlink:href="#DejaVuSans-20" x="405.085938"/>
      <use xlink:href="#DejaVuSans-63" x="436.873047"/>
      <use xlink:href="#DejaVuSans-68" x="491.853516"/>
      <use xlink:href="#DejaVuSans-61" x="555.232422"/>
      <use xlink:href="#DejaVuSans-6e" x="616.511719"/>
      <use xlink:href="#DejaVuSans-67" x="679.890625"/>
      <use xlink:href="#DejaVuSans-65" x="743.367188"/>
     </g>
    </g>
   </g>
   <g id="line2d_16">
    <path d="M 86.4 158.32507 
L 94.628571 159.218251 
L 102.857143 160.273881 
L 111.085714 161.01904 
L 119.314286 159.242161 
L 127.542857 153.899439 
L 135.771429 148.509284 
L 144 145.138169 
L 152.228571 141.222289 
L 160.457143 141.140101 
L 168.685714 142.776166 
L 176.914286 143.908974 
L 185.142857 142.864596 
L 193.371429 142.864043 
L 201.6 141.62556 
L 209.828571 141.71697 
L 218.057143 141.633161 
L 226.285714 143.365263 
L 234.514286 145.4931 
L 242.742857 146.933013 
L 250.971429 149.289291 
L 259.2 149.877384 
L 267.428571 151.108751 
L 275.657143 152.530343 
L 283.885714 152.282127 
L 292.114286 151.825177 
L 300.342857 152.928444 
L 308.571429 152.572151 
L 316.8 150.995801 
L 325.028571 150.399525 
L 333.257143 151.114302 
L 341.485714 152.811808 
L 349.714286 153.415232 
L 357.942857 153.366555 
L 366.171429 151.031605 
L 374.4 149.953196 
L 382.628571 147.41476 
L 390.857143 146.659925 
L 399.085714 148.463409 
L 407.314286 149.87179 
L 415.542857 151.19338 
L 423.771429 152.806685 
L 432 154.163866 
L 440.228571 154.976508 
L 448.457143 156.066418 
L 456.685714 156.525954 
L 464.914286 157.833271 
L 473.142857 160.321167 
L 481.371429 161.432313 
L 489.6 161.167743 
" clip-path="url(#p323adc8e61)" style="fill: none; stroke: #4c4c4c; stroke-width: 1.5; stroke-linecap: square"/>
   </g>
   <g id="line2d_17">
    <path d="M 86.4 176.810255 
L 94.628571 174.734755 
L 102.857143 179.201196 
L 111.085714 178.033525 
L 119.314286 170.274109 
L 127.542857 159.125054 
L 135.771429 154.504003 
L 144 150.079161 
L 152.228571 155.945372 
L 160.457143 165.977246 
L 168.685714 172.468658 
L 176.914286 182.134512 
L 185.142857 182.26247 
L 193.371429 176.485301 
L 201.6 165.539318 
L 209.828571 163.873809 
L 218.057143 162.853378 
L 226.285714 162.486074 
L 234.514286 164.261669 
L 242.742857 164.784587 
L 250.971429 166.091246 
L 259.2 164.549548 
L 267.428571 164.187022 
L 275.657143 163.433434 
L 283.885714 163.568161 
L 292.114286 159.204773 
L 300.342857 158.172177 
L 308.571429 156.387913 
L 316.8 158.831124 
L 325.028571 161.280958 
L 333.257143 158.460911 
L 341.485714 151.312616 
L 349.714286 153.827336 
L 357.942857 157.414099 
L 366.171429 158.365386 
L 374.4 159.577032 
L 382.628571 159.326716 
L 390.857143 163.218141 
L 399.085714 173.166927 
L 407.314286 176.399132 
L 415.542857 171.798297 
L 423.771429 163.71996 
L 432 161.58641 
L 440.228571 160.17898 
L 448.457143 155.558172 
L 456.685714 146.564319 
L 464.914286 148.561263 
L 473.142857 147.778295 
L 481.371429 138.447714 
L 489.6 123.888293 
" clip-path="url(#p323adc8e61)" style="fill: none; stroke: #4c4c4c; stroke-opacity: 0.2; stroke-width: 1.5; stroke-linecap: square"/>
   </g>
   <g id="line2d_18">
    <path d="M 86.4 149.24341 
L 94.628571 149.24341 
L 102.857143 139.978569 
L 111.085714 126.6587 
L 119.314286 122.387423 
L 127.542857 121.822049 
L 135.771429 126.023658 
L 144 131.713571 
L 152.228571 136.762885 
L 160.457143 145.655597 
L 168.685714 153.582879 
L 176.914286 155.061062 
L 185.142857 154.327849 
L 193.371429 153.407674 
L 201.6 152.239871 
L 209.828571 147.827117 
L 218.057143 144.574039 
L 226.285714 144.435932 
L 234.514286 145.97727 
L 242.742857 152.52658 
L 250.971429 158.584053 
L 259.2 167.051191 
L 267.428571 172.127965 
L 275.657143 174.108364 
L 283.885714 173.435975 
L 292.114286 170.092338 
L 300.342857 165.344685 
L 308.571429 161.955421 
L 316.8 158.103902 
L 325.028571 157.210823 
L 333.257143 158.415427 
L 341.485714 157.287484 
L 349.714286 155.090347 
L 357.942857 154.720888 
L 366.171429 156.990424 
L 374.4 158.982815 
L 382.628571 159.979946 
L 390.857143 160.370383 
L 399.085714 161.975644 
L 407.314286 165.437438 
L 415.542857 165.104165 
L 423.771429 159.94928 
L 432 155.237434 
L 440.228571 157.644432 
L 448.457143 161.998188 
L 456.685714 165.074183 
L 464.914286 167.529164 
L 473.142857 166.538286 
L 481.371429 164.233236 
L 489.6 160.601809 
" clip-path="url(#p323adc8e61)" style="fill: none; stroke: #4c4c4c; stroke-opacity: 0.2; stroke-width: 1.5; stroke-linecap: square"/>
   </g>
   <g id="line2d_19">
    <path d="M 86.4 150.025948 
L 94.628571 151.281924 
L 102.857143 156.242752 
L 111.085714 161.905721 
L 119.314286 166.713561 
L 127.542857 170.85829 
L 135.771429 170.042448 
L 144 162.725168 
L 152.228571 154.937858 
L 160.457143 148.759892 
L 168.685714 143.205107 
L 176.914286 138.313339 
L 185.142857 131.482429 
L 193.371429 127.053659 
L 201.6 122.286835 
L 209.828571 116.326287 
L 218.057143 110.308135 
L 226.285714 108.990225 
L 234.514286 109.698752 
L 242.742857 110.392394 
L 250.971429 114.839658 
L 259.2 118.513239 
L 267.428571 123.447289 
L 275.657143 126.463033 
L 283.885714 125.873566 
L 292.114286 121.697219 
L 300.342857 115.323122 
L 308.571429 118.586125 
L 316.8 126.691087 
L 325.028571 136.595096 
L 333.257143 146.995679 
L 341.485714 147.498114 
L 349.714286 144.896142 
L 357.942857 144.500844 
L 366.171429 142.684369 
L 374.4 137.780883 
L 382.628571 130.513908 
L 390.857143 126.586013 
L 399.085714 129.406502 
L 407.314286 135.567957 
L 415.542857 141.198947 
L 423.771429 148.650238 
L 432 158.94614 
L 440.228571 166.653921 
L 448.457143 171.636599 
L 456.685714 180.539145 
L 464.914286 189.734133 
L 473.142857 202.609346 
L 481.371429 216.884153 
L 489.6 222.525194 
" clip-path="url(#p323adc8e61)" style="fill: none; stroke: #4c4c4c; stroke-opacity: 0.2; stroke-width: 1.5; stroke-linecap: square"/>
   </g>
   <g id="line2d_20">
    <path d="M 86.4 110.353052 
L 94.628571 110.353052 
L 102.857143 111.217137 
L 111.085714 114.956383 
L 119.314286 116.70401 
L 127.542857 118.606872 
L 135.771429 123.048732 
L 144 126.995768 
L 152.228571 127.98707 
L 160.457143 133.140022 
L 168.685714 136.019021 
L 176.914286 139.592631 
L 185.142857 142.818369 
L 193.371429 143.997708 
L 201.6 143.390323 
L 209.828571 143.856159 
L 218.057143 145.02717 
L 226.285714 148.159601 
L 234.514286 149.602923 
L 242.742857 150.31845 
L 250.971429 151.150911 
L 259.2 149.579538 
L 267.428571 149.418968 
L 275.657143 151.662336 
L 283.885714 152.53905 
L 292.114286 154.47156 
L 300.342857 157.945343 
L 308.571429 164.029599 
L 316.8 168.951636 
L 325.028571 171.270457 
L 333.257143 173.512153 
L 341.485714 177.299236 
L 349.714286 180.240155 
L 357.942857 180.456907 
L 366.171429 179.542734 
L 374.4 178.622258 
L 382.628571 177.304679 
L 390.857143 176.191115 
L 399.085714 175.635253 
L 407.314286 176.2321 
L 415.542857 176.785664 
L 423.771429 178.991168 
L 432 179.154741 
L 440.228571 179.91591 
L 448.457143 182.20802 
L 456.685714 179.855619 
L 464.914286 175.807242 
L 473.142857 173.366036 
L 481.371429 171.183708 
L 489.6 169.433102 
" clip-path="url(#p323adc8e61)" style="fill: none; stroke: #4c4c4c; stroke-opacity: 0.2; stroke-width: 1.5; stroke-linecap: square"/>
   </g>
   <g id="line2d_21">
    <path d="M 86.4 137.569548 
L 94.628571 138.541795 
L 102.857143 155.221456 
L 111.085714 167.443893 
L 119.314286 160.545135 
L 127.542857 143.830124 
L 135.771429 135.408044 
L 144 142.191539 
L 152.228571 154.142597 
L 160.457143 153.440721 
L 168.685714 147.878036 
L 176.914286 142.101892 
L 185.142857 134.549289 
L 193.371429 134.968077 
L 201.6 141.347677 
L 209.828571 149.298866 
L 218.057143 152.741098 
L 226.285714 149.733692 
L 234.514286 142.691546 
L 242.742857 133.260464 
L 250.971429 121.856469 
L 259.2 116.477402 
L 267.428571 116.854503 
L 275.657143 121.457843 
L 283.885714 121.265595 
L 292.114286 121.212578 
L 300.342857 130.194402 
L 308.571429 135.117194 
L 316.8 137.980103 
L 325.028571 145.313353 
L 333.257143 150.414006 
L 341.485714 157.523467 
L 349.714286 162.367482 
L 357.942857 161.680173 
L 366.171429 154.085415 
L 374.4 151.103103 
L 382.628571 146.719274 
L 390.857143 148.457067 
L 399.085714 152.550492 
L 407.314286 156.589605 
L 415.542857 158.24245 
L 423.771429 159.482769 
L 432 157.664367 
L 440.228571 148.389508 
L 448.457143 143.643778 
L 456.685714 137.443439 
L 464.914286 134.480287 
L 473.142857 130.533303 
L 481.371429 126.430293 
L 489.6 129.594414 
" clip-path="url(#p323adc8e61)" style="fill: none; stroke: #4c4c4c; stroke-opacity: 0.2; stroke-width: 1.5; stroke-linecap: square"/>
   </g>
   <g id="line2d_22">
    <path d="M 86.4 257.948048 
L 94.628571 260.410233 
L 102.857143 264.443832 
L 111.085714 267.734003 
L 119.314286 265.16793 
L 127.542857 235.225215 
L 135.771429 196.199119 
L 144 162.442305 
L 152.228571 130.77144 
L 160.457143 118.019986 
L 168.685714 126.158191 
L 176.914286 132.314708 
L 185.142857 136.481685 
L 193.371429 147.299265 
L 201.6 144.86888 
L 209.828571 142.315419 
L 218.057143 134.133781 
L 226.285714 126.745489 
L 234.514286 123.158936 
L 242.742857 131.039769 
L 250.971429 139.85263 
L 259.2 143.990576 
L 267.428571 146.215673 
L 275.657143 143.820211 
L 283.885714 136.494115 
L 292.114286 132.204456 
L 300.342857 133.598985 
L 308.571429 131.033685 
L 316.8 127.234939 
L 325.028571 127.066855 
L 333.257143 125.340754 
L 341.485714 130.967412 
L 349.714286 131.718583 
L 357.942857 132.306418 
L 366.171429 128.75479 
L 374.4 134.902398 
L 382.628571 140.480988 
L 390.857143 137.902968 
L 399.085714 137.57057 
L 407.314286 136.663348 
L 415.542857 134.849227 
L 423.771429 127.176636 
L 432 118.076188 
L 440.228571 112.242365 
L 448.457143 113.392435 
L 456.685714 119.041677 
L 464.914286 129.307018 
L 473.142857 145.317607 
L 481.371429 161.110917 
L 489.6 177.86766 
" clip-path="url(#p323adc8e61)" style="fill: none; stroke: #4c4c4c; stroke-opacity: 0.2; stroke-width: 1.5; stroke-linecap: square"/>
   </g>
   <g id="line2d_23">
    <path d="M 86.4 144.395406 
L 94.628571 142.560043 
L 102.857143 125.950166 
L 111.085714 112.347968 
L 119.314286 103.171798 
L 127.542857 93.259788 
L 135.771429 97.749751 
L 144 105.026899 
L 152.228571 113.373919 
L 160.457143 119.011574 
L 168.685714 123.608695 
L 176.914286 121.786363 
L 185.142857 120.775325 
L 193.371429 117.078505 
L 201.6 113.871948 
L 209.828571 119.786922 
L 218.057143 128.233074 
L 226.285714 137.763373 
L 234.514286 146.987771 
L 242.742857 151.847543 
L 250.971429 153.697924 
L 259.2 156.138049 
L 267.428571 160.072524 
L 275.657143 161.13384 
L 283.885714 161.286007 
L 292.114286 165.161001 
L 300.342857 169.382475 
L 308.571429 170.675837 
L 316.8 169.023915 
L 325.028571 168.457064 
L 333.257143 170.543456 
L 341.485714 169.807351 
L 349.714286 168.072601 
L 357.942857 164.495581 
L 366.171429 162.044827 
L 374.4 163.52848 
L 382.628571 162.387 
L 390.857143 163.658203 
L 399.085714 174.298244 
L 407.314286 182.631562 
L 415.542857 190.013386 
L 423.771429 200.643461 
L 432 209.706883 
L 440.228571 217.431125 
L 448.457143 224.015893 
L 456.685714 234.849759 
L 464.914286 236.181909 
L 473.142857 232.42469 
L 481.371429 232.229434 
L 489.6 229.746266 
" clip-path="url(#p323adc8e61)" style="fill: none; stroke: #4c4c4c; stroke-opacity: 0.2; stroke-width: 1.5; stroke-linecap: square"/>
   </g>
   <g id="line2d_24">
    <path d="M 86.4 138.386738 
L 94.628571 137.850158 
L 102.857143 136.181532 
L 111.085714 139.647133 
L 119.314286 143.499903 
L 127.542857 155.188954 
L 135.771429 156.809476 
L 144 159.512085 
L 152.228571 153.073912 
L 160.457143 151.782443 
L 168.685714 146.995764 
L 176.914286 142.167408 
L 185.142857 137.59571 
L 193.371429 142.301998 
L 201.6 144.098679 
L 209.828571 147.687307 
L 218.057143 149.141664 
L 226.285714 153.73925 
L 234.514286 156.153136 
L 242.742857 154.469981 
L 250.971429 153.565393 
L 259.2 152.066069 
L 267.428571 148.447526 
L 275.657143 146.173351 
L 283.885714 146.613722 
L 292.114286 145.767148 
L 300.342857 146.844543 
L 308.571429 146.670637 
L 316.8 144.182146 
L 325.028571 138.688177 
L 333.257143 137.41557 
L 341.485714 138.067656 
L 349.714286 137.761694 
L 357.942857 138.99851 
L 366.171429 138.807923 
L 374.4 136.506973 
L 382.628571 138.309984 
L 390.857143 139.294688 
L 399.085714 139.262777 
L 407.314286 136.662018 
L 415.542857 134.705999 
L 423.771429 134.048088 
L 432 132.329854 
L 440.228571 128.224535 
L 448.457143 123.305153 
L 456.685714 120.076382 
L 464.914286 118.768131 
L 473.142857 117.631043 
L 481.371429 114.883199 
L 489.6 113.047755 
" clip-path="url(#p323adc8e61)" style="fill: none; stroke: #4c4c4c; stroke-opacity: 0.2; stroke-width: 1.5; stroke-linecap: square"/>
   </g>
   <g id="line2d_25">
    <path d="M 86.4 143.72345 
L 94.628571 140.589368 
L 102.857143 138.028157 
L 111.085714 128.922105 
L 119.314286 125.80631 
L 127.542857 123.173941 
L 135.771429 118.743956 
L 144 111.95425 
L 152.228571 106.339237 
L 160.457143 102.544017 
L 168.685714 99.986799 
L 176.914286 96.9554 
L 185.142857 89.275474 
L 193.371429 85.297337 
L 201.6 82.000097 
L 209.828571 83.001401 
L 218.057143 86.911308 
L 226.285714 92.212796 
L 234.514286 97.923423 
L 242.742857 102.114502 
L 250.971429 104.33 
L 259.2 107.58069 
L 267.428571 111.791789 
L 275.657143 115.929919 
L 283.885714 118.155928 
L 292.114286 121.571449 
L 300.342857 124.617674 
L 308.571429 124.113354 
L 316.8 124.26533 
L 325.028571 125.107833 
L 333.257143 123.171257 
L 341.485714 120.516116 
L 349.714286 120.332862 
L 357.942857 118.769232 
L 366.171429 116.638842 
L 374.4 113.756558 
L 382.628571 107.736846 
L 390.857143 101.989427 
L 399.085714 96.950958 
L 407.314286 96.620938 
L 415.542857 95.003241 
L 423.771429 92.636492 
L 432 92.964115 
L 440.228571 91.32891 
L 448.457143 90.747839 
L 456.685714 87.752592 
L 464.914286 84.24752 
L 473.142857 81.992438 
L 481.371429 80.648369 
L 489.6 82.700022 
" clip-path="url(#p323adc8e61)" style="fill: none; stroke: #4c4c4c; stroke-opacity: 0.2; stroke-width: 1.5; stroke-linecap: square"/>
   </g>
   <g id="line2d_26">
    <path d="M 86.4 177.259327 
L 94.628571 184.327857 
L 102.857143 191.223864 
L 111.085714 216.473579 
L 119.314286 220.465114 
L 127.542857 214.461368 
L 135.771429 201.034799 
L 144 194.229575 
L 152.228571 179.213349 
L 160.457143 178.106598 
L 168.685714 194.10978 
L 176.914286 212.7874 
L 185.142857 220.347553 
L 193.371429 225.473775 
L 201.6 226.225836 
L 209.828571 219.466095 
L 218.057143 216.676072 
L 226.285714 221.33374 
L 234.514286 225.023023 
L 242.742857 219.72067 
L 250.971429 222.486584 
L 259.2 211.710112 
L 267.428571 202.201619 
L 275.657143 194.106438 
L 283.885714 195.288356 
L 292.114286 198.260116 
L 300.342857 203.405487 
L 308.571429 201.110336 
L 316.8 187.787382 
L 325.028571 170.515534 
L 333.257143 168.504683 
L 341.485714 187.911641 
L 349.714286 196.127874 
L 357.942857 196.840699 
L 366.171429 190.061455 
L 374.4 182.439348 
L 382.628571 167.409456 
L 390.857143 165.532306 
L 399.085714 158.609579 
L 407.314286 147.002831 
L 415.542857 144.159392 
L 423.771429 152.977343 
L 432 158.023154 
L 440.228571 167.577201 
L 448.457143 178.719141 
L 456.685714 177.686673 
L 464.914286 171.26016 
L 473.142857 179.428968 
L 481.371429 188.712457 
L 489.6 188.903532 
" clip-path="url(#p323adc8e61)" style="fill: none; stroke: #4c4c4c; stroke-opacity: 0.2; stroke-width: 1.5; stroke-linecap: square"/>
   </g>
   <g id="line2d_27">
    <path d="M 86.4 155.860583 
L 94.628571 161.508168 
L 102.857143 165.324025 
L 111.085714 157.086432 
L 119.314286 156.928484 
L 127.542857 157.342178 
L 135.771429 154.038141 
L 144 149.649541 
L 152.228571 140.897542 
L 160.457143 136.103015 
L 168.685714 126.52489 
L 176.914286 119.783998 
L 185.142857 121.594408 
L 193.371429 118.141172 
L 201.6 122.011697 
L 209.828571 125.44729 
L 218.057143 127.365057 
L 226.285714 131.417714 
L 234.514286 138.945648 
L 242.742857 145.788208 
L 250.971429 155.727335 
L 259.2 160.994812 
L 267.428571 167.431381 
L 275.657143 179.545007 
L 283.885714 180.582918 
L 292.114286 180.434314 
L 300.342857 177.383993 
L 308.571429 168.613562 
L 316.8 157.902243 
L 325.028571 152.888627 
L 333.257143 149.483422 
L 341.485714 142.738793 
L 349.714286 137.132474 
L 357.942857 136.848753 
L 366.171429 133.371488 
L 374.4 132.285307 
L 382.628571 131.393567 
L 390.857143 130.058861 
L 399.085714 133.670553 
L 407.314286 138.782758 
L 415.542857 151.26641 
L 423.771429 162.598103 
L 432 172.113235 
L 440.228571 175.154696 
L 448.457143 171.505376 
L 456.685714 172.901703 
L 464.914286 180.289147 
L 473.142857 185.912828 
L 481.371429 180.991963 
L 489.6 174.537124 
" clip-path="url(#p323adc8e61)" style="fill: none; stroke: #4c4c4c; stroke-opacity: 0.2; stroke-width: 1.5; stroke-linecap: square"/>
   </g>
   <g id="line2d_28">
    <path d="M 167.04 241.92 
L 167.04 40.32 
" clip-path="url(#p323adc8e61)" style="fill: none; stroke-dasharray: 5.55,2.4; stroke-dashoffset: 0; stroke: #000000; stroke-width: 1.5"/>
   </g>
   <g id="line2d_29">
    <path d="M 86.4 141.12 
L 489.6 141.12 
" clip-path="url(#p323adc8e61)" style="fill: none; stroke-dasharray: 5.55,2.4; stroke-dashoffset: 0; stroke: #000000; stroke-width: 1.5"/>
   </g>
   <g id="patch_3">
    <path d="M 82.4 241.92 
L 82.4 40.32 
" style="fill: none; stroke: #000000; stroke-width: 0.8; stroke-linejoin: miter; stroke-linecap: square"/>
   </g>
   <g id="patch_4">
    <path d="M 86.4 245.92 
L 489.6 245.92 
" style="fill: none; stroke: #000000; stroke-width: 0.8; stroke-linejoin: miter; stroke-linecap: square"/>
   </g>
   <g id="text_11">
    <!-- all depths -->
    <g transform="translate(268.328125 34.32) scale(0.08 -0.08)">
     <defs>
      <path id="DejaVuSans-6c" d="M 603 4863 
L 1178 4863 
L 1178 0 
L 603 0 
L 603 4863 
z
" transform="scale(0.015625)"/>
      <path id="DejaVuSans-64" d="M 2906 2969 
L 2906 4863 
L 3481 4863 
L 3481 0 
L 2906 0 
L 2906 525 
Q 2725 213 2448 61 
Q 2172 -91 1784 -91 
Q 1150 -91 751 415 
Q 353 922 353 1747 
Q 353 2572 751 3078 
Q 1150 3584 1784 3584 
Q 2172 3584 2448 3432 
Q 2725 3281 2906 2969 
z
M 947 1747 
Q 947 1113 1208 752 
Q 1469 391 1925 391 
Q 2381 391 2643 752 
Q 2906 1113 2906 1747 
Q 2906 2381 2643 2742 
Q 2381 3103 1925 3103 
Q 1469 3103 1208 2742 
Q 947 2381 947 1747 
z
" transform="scale(0.015625)"/>
      <path id="DejaVuSans-70" d="M 1159 525 
L 1159 -1331 
L 581 -1331 
L 581 3500 
L 1159 3500 
L 1159 2969 
Q 1341 3281 1617 3432 
Q 1894 3584 2278 3584 
Q 2916 3584 3314 3078 
Q 3713 2572 3713 1747 
Q 3713 922 3314 415 
Q 2916 -91 2278 -91 
Q 1894 -91 1617 61 
Q 1341 213 1159 525 
z
M 3116 1747 
Q 3116 2381 2855 2742 
Q 2594 3103 2138 3103 
Q 1681 3103 1420 2742 
Q 1159 2381 1159 1747 
Q 1159 1113 1420 752 
Q 1681 391 2138 391 
Q 2594 391 2855 752 
Q 3116 1113 3116 1747 
z
" transform="scale(0.015625)"/>
      <path id="DejaVuSans-74" d="M 1172 4494 
L 1172 3500 
L 2356 3500 
L 2356 3053 
L 1172 3053 
L 1172 1153 
Q 1172 725 1289 603 
Q 1406 481 1766 481 
L 2356 481 
L 2356 0 
L 1766 0 
Q 1100 0 847 248 
Q 594 497 594 1153 
L 594 3053 
L 172 3053 
L 172 3500 
L 594 3500 
L 594 4494 
L 1172 4494 
z
" transform="scale(0.015625)"/>
      <path id="DejaVuSans-73" d="M 2834 3397 
L 2834 2853 
Q 2591 2978 2328 3040 
Q 2066 3103 1784 3103 
Q 1356 3103 1142 2972 
Q 928 2841 928 2578 
Q 928 2378 1081 2264 
Q 1234 2150 1697 2047 
L 1894 2003 
Q 2506 1872 2764 1633 
Q 3022 1394 3022 966 
Q 3022 478 2636 193 
Q 2250 -91 1575 -91 
Q 1294 -91 989 -36 
Q 684 19 347 128 
L 347 722 
Q 666 556 975 473 
Q 1284 391 1588 391 
Q 1994 391 2212 530 
Q 2431 669 2431 922 
Q 2431 1156 2273 1281 
Q 2116 1406 1581 1522 
L 1381 1569 
Q 847 1681 609 1914 
Q 372 2147 372 2553 
Q 372 3047 722 3315 
Q 1072 3584 1716 3584 
Q 2034 3584 2315 3537 
Q 2597 3491 2834 3397 
z
" transform="scale(0.015625)"/>
     </defs>
     <use xlink:href="#DejaVuSans-61"/>
     <use xlink:href="#DejaVuSans-6c" x="61.279297"/>
     <use xlink:href="#DejaVuSans-6c" x="89.0625"/>
     <use xlink:href="#DejaVuSans-20" x="116.845703"/>
     <use xlink:href="#DejaVuSans-64" x="148.632812"/>
     <use xlink:href="#DejaVuSans-65" x="212.109375"/>
     <use xlink:href="#DejaVuSans-70" x="273.632812"/>
     <use xlink:href="#DejaVuSans-74" x="337.109375"/>
     <use xlink:href="#DejaVuSans-68" x="376.318359"/>
     <use xlink:href="#DejaVuSans-73" x="439.697266"/>
    </g>
   </g>
   <g id="legend_1">
    <g id="patch_5">
     <path d="M 326.5125 63.27625 
L 482.6 63.27625 
Q 484.6 63.27625 484.6 61.27625 
L 484.6 47.32 
Q 484.6 45.32 482.6 45.32 
L 326.5125 45.32 
Q 324.5125 45.32 324.5125 47.32 
L 324.5125 61.27625 
Q 324.5125 63.27625 326.5125 63.27625 
z
" style="fill: #ffffff; opacity: 0.8; stroke: #cccccc; stroke-linejoin: miter"/>
    </g>
    <g id="line2d_30">
     <path d="M 328.5125 53.418437 
L 338.5125 53.418437 
L 348.5125 53.418437 
" style="fill: none; stroke: #4c4c4c; stroke-width: 1.5; stroke-linecap: square"/>
    </g>
    <g id="text_12">
     <!-- odss_gPPI_superficial_V1 -->
     <g transform="translate(356.5125 56.918437) scale(0.1 -0.1)">
      <defs>
       <path id="DejaVuSans-6f" d="M 1959 3097 
Q 1497 3097 1228 2736 
Q 959 2375 959 1747 
Q 959 1119 1226 758 
Q 1494 397 1959 397 
Q 2419 397 2687 759 
Q 2956 1122 2956 1747 
Q 2956 2369 2687 2733 
Q 2419 3097 1959 3097 
z
M 1959 3584 
Q 2709 3584 3137 3096 
Q 3566 2609 3566 1747 
Q 3566 888 3137 398 
Q 2709 -91 1959 -91 
Q 1206 -91 779 398 
Q 353 888 353 1747 
Q 353 2609 779 3096 
Q 1206 3584 1959 3584 
z
" transform="scale(0.015625)"/>
       <path id="DejaVuSans-5f" d="M 3263 -1063 
L 3263 -1509 
L -63 -1509 
L -63 -1063 
L 3263 -1063 
z
" transform="scale(0.015625)"/>
       <path id="DejaVuSans-50" d="M 1259 4147 
L 1259 2394 
L 2053 2394 
Q 2494 2394 2734 2622 
Q 2975 2850 2975 3272 
Q 2975 3691 2734 3919 
Q 2494 4147 2053 4147 
L 1259 4147 
z
M 628 4666 
L 2053 4666 
Q 2838 4666 3239 4311 
Q 3641 3956 3641 3272 
Q 3641 2581 3239 2228 
Q 2838 1875 2053 1875 
L 1259 1875 
L 1259 0 
L 628 0 
L 628 4666 
z
" transform="scale(0.015625)"/>
       <path id="DejaVuSans-49" d="M 628 4666 
L 1259 4666 
L 1259 0 
L 628 0 
L 628 4666 
z
" transform="scale(0.015625)"/>
       <path id="DejaVuSans-75" d="M 544 1381 
L 544 3500 
L 1119 3500 
L 1119 1403 
Q 1119 906 1312 657 
Q 1506 409 1894 409 
Q 2359 409 2629 706 
Q 2900 1003 2900 1516 
L 2900 3500 
L 3475 3500 
L 3475 0 
L 2900 0 
L 2900 538 
Q 2691 219 2414 64 
Q 2138 -91 1772 -91 
Q 1169 -91 856 284 
Q 544 659 544 1381 
z
M 1991 3584 
L 1991 3584 
z
" transform="scale(0.015625)"/>
       <path id="DejaVuSans-72" d="M 2631 2963 
Q 2534 3019 2420 3045 
Q 2306 3072 2169 3072 
Q 1681 3072 1420 2755 
Q 1159 2438 1159 1844 
L 1159 0 
L 581 0 
L 581 3500 
L 1159 3500 
L 1159 2956 
Q 1341 3275 1631 3429 
Q 1922 3584 2338 3584 
Q 2397 3584 2469 3576 
Q 2541 3569 2628 3553 
L 2631 2963 
z
" transform="scale(0.015625)"/>
       <path id="DejaVuSans-66" d="M 2375 4863 
L 2375 4384 
L 1825 4384 
Q 1516 4384 1395 4259 
Q 1275 4134 1275 3809 
L 1275 3500 
L 2222 3500 
L 2222 3053 
L 1275 3053 
L 1275 0 
L 697 0 
L 697 3053 
L 147 3053 
L 147 3500 
L 697 3500 
L 697 3744 
Q 697 4328 969 4595 
Q 1241 4863 1831 4863 
L 2375 4863 
z
" transform="scale(0.015625)"/>
       <path id="DejaVuSans-69" d="M 603 3500 
L 1178 3500 
L 1178 0 
L 603 0 
L 603 3500 
z
M 603 4863 
L 1178 4863 
L 1178 4134 
L 603 4134 
L 603 4863 
z
" transform="scale(0.015625)"/>
       <path id="DejaVuSans-56" d="M 1831 0 
L 50 4666 
L 709 4666 
L 2188 738 
L 3669 4666 
L 4325 4666 
L 2547 0 
L 1831 0 
z
" transform="scale(0.015625)"/>
      </defs>
      <use xlink:href="#DejaVuSans-6f"/>
      <use xlink:href="#DejaVuSans-64" x="61.181641"/>
      <use xlink:href="#DejaVuSans-73" x="124.658203"/>
      <use xlink:href="#DejaVuSans-73" x="176.757812"/>
      <use xlink:href="#DejaVuSans-5f" x="228.857422"/>
      <use xlink:href="#DejaVuSans-67" x="278.857422"/>
      <use xlink:href="#DejaVuSans-50" x="342.333984"/>
      <use xlink:href="#DejaVuSans-50" x="402.636719"/>
      <use xlink:href="#DejaVuSans-49" x="462.939453"/>
      <use xlink:href="#DejaVuSans-5f" x="492.431641"/>
      <use xlink:href="#DejaVuSans-73" x="542.431641"/>
      <use xlink:href="#DejaVuSans-75" x="594.53125"/>
      <use xlink:href="#DejaVuSans-70" x="657.910156"/>
      <use xlink:href="#DejaVuSans-65" x="721.386719"/>
      <use xlink:href="#DejaVuSans-72" x="782.910156"/>
      <use xlink:href="#DejaVuSans-66" x="824.023438"/>
      <use xlink:href="#DejaVuSans-69" x="859.228516"/>
      <use xlink:href="#DejaVuSans-63" x="887.011719"/>
      <use xlink:href="#DejaVuSans-69" x="941.992188"/>
      <use xlink:href="#DejaVuSans-61" x="969.775391"/>
      <use xlink:href="#DejaVuSans-6c" x="1031.054688"/>
      <use xlink:href="#DejaVuSans-5f" x="1058.837891"/>
      <use xlink:href="#DejaVuSans-56" x="1108.837891"/>
      <use xlink:href="#DejaVuSans-31" x="1177.246094"/>
     </g>
    </g>
   </g>
  </g>
  <g id="axes_2">
   <g id="patch_6">
    <path d="M 86.4 443.52 
L 489.6 443.52 
L 489.6 292.32 
L 86.4 292.32 
z
" style="fill: #ffffff"/>
   </g>
   <g id="patch_7">
    <path d="M 90.432 367.92 
L 163.008 367.92 
L 163.008 421.977517 
L 90.432 421.977517 
z
" clip-path="url(#p0b1f4278af)" style="fill: #4c4c4c; opacity: 0.6"/>
   </g>
   <g id="patch_8">
    <path d="M 171.072 367.92 
L 243.648 367.92 
L 243.648 362.560297 
L 171.072 362.560297 
z
" clip-path="url(#p0b1f4278af)" style="fill: #4c4c4c; opacity: 0.6"/>
   </g>
   <g id="patch_9">
    <path d="M 251.712 367.92 
L 324.288 367.92 
L 324.288 386.142441 
L 251.712 386.142441 
z
" clip-path="url(#p0b1f4278af)" style="fill: #4c4c4c; opacity: 0.6"/>
   </g>
   <g id="patch_10">
    <path d="M 332.352 367.92 
L 404.928 367.92 
L 404.928 378.683427 
L 332.352 378.683427 
z
" clip-path="url(#p0b1f4278af)" style="fill: #4c4c4c; opacity: 0.6"/>
   </g>
   <g id="patch_11">
    <path d="M 412.992 367.92 
L 485.568 367.92 
L 485.568 392.89235 
L 412.992 392.89235 
z
" clip-path="url(#p0b1f4278af)" style="fill: #4c4c4c; opacity: 0.6"/>
   </g>
   <g id="matplotlib.axis_3">
    <g id="xtick_7">
     <g id="line2d_31">
      <g>
       <use xlink:href="#m50ca4a42b5" x="86.4" y="447.52" style="stroke: #000000; stroke-width: 0.8"/>
      </g>
     </g>
     <g id="text_13">
      <!-- 0 -->
      <g transform="translate(83.21875 462.118438) scale(0.1 -0.1)">
       <use xlink:href="#DejaVuSans-30"/>
      </g>
     </g>
    </g>
    <g id="xtick_8">
     <g id="line2d_32">
      <g>
       <use xlink:href="#m50ca4a42b5" x="167.04" y="447.52" style="stroke: #000000; stroke-width: 0.8"/>
      </g>
     </g>
     <g id="text_14">
      <!-- 1 -->
      <g transform="translate(163.85875 462.118438) scale(0.1 -0.1)">
       <use xlink:href="#DejaVuSans-31"/>
      </g>
     </g>
    </g>
    <g id="xtick_9">
     <g id="line2d_33">
      <g>
       <use xlink:href="#m50ca4a42b5" x="247.68" y="447.52" style="stroke: #000000; stroke-width: 0.8"/>
      </g>
     </g>
     <g id="text_15">
      <!-- 2 -->
      <g transform="translate(244.49875 462.118438) scale(0.1 -0.1)">
       <use xlink:href="#DejaVuSans-32"/>
      </g>
     </g>
    </g>
    <g id="xtick_10">
     <g id="line2d_34">
      <g>
       <use xlink:href="#m50ca4a42b5" x="328.32" y="447.52" style="stroke: #000000; stroke-width: 0.8"/>
      </g>
     </g>
     <g id="text_16">
      <!-- 3 -->
      <g transform="translate(325.13875 462.118438) scale(0.1 -0.1)">
       <defs>
        <path id="DejaVuSans-33" d="M 2597 2516 
Q 3050 2419 3304 2112 
Q 3559 1806 3559 1356 
Q 3559 666 3084 287 
Q 2609 -91 1734 -91 
Q 1441 -91 1130 -33 
Q 819 25 488 141 
L 488 750 
Q 750 597 1062 519 
Q 1375 441 1716 441 
Q 2309 441 2620 675 
Q 2931 909 2931 1356 
Q 2931 1769 2642 2001 
Q 2353 2234 1838 2234 
L 1294 2234 
L 1294 2753 
L 1863 2753 
Q 2328 2753 2575 2939 
Q 2822 3125 2822 3475 
Q 2822 3834 2567 4026 
Q 2313 4219 1838 4219 
Q 1578 4219 1281 4162 
Q 984 4106 628 3988 
L 628 4550 
Q 988 4650 1302 4700 
Q 1616 4750 1894 4750 
Q 2613 4750 3031 4423 
Q 3450 4097 3450 3541 
Q 3450 3153 3228 2886 
Q 3006 2619 2597 2516 
z
" transform="scale(0.015625)"/>
       </defs>
       <use xlink:href="#DejaVuSans-33"/>
      </g>
     </g>
    </g>
    <g id="xtick_11">
     <g id="line2d_35">
      <g>
       <use xlink:href="#m50ca4a42b5" x="408.96" y="447.52" style="stroke: #000000; stroke-width: 0.8"/>
      </g>
     </g>
     <g id="text_17">
      <!-- 4 -->
      <g transform="translate(405.77875 462.118438) scale(0.1 -0.1)">
       <defs>
        <path id="DejaVuSans-34" d="M 2419 4116 
L 825 1625 
L 2419 1625 
L 2419 4116 
z
M 2253 4666 
L 3047 4666 
L 3047 1625 
L 3713 1625 
L 3713 1100 
L 3047 1100 
L 3047 0 
L 2419 0 
L 2419 1100 
L 313 1100 
L 313 1709 
L 2253 4666 
z
" transform="scale(0.015625)"/>
       </defs>
       <use xlink:href="#DejaVuSans-34"/>
      </g>
     </g>
    </g>
    <g id="xtick_12">
     <g id="line2d_36">
      <g>
       <use xlink:href="#m50ca4a42b5" x="489.6" y="447.52" style="stroke: #000000; stroke-width: 0.8"/>
      </g>
     </g>
     <g id="text_18">
      <!-- 5 -->
      <g transform="translate(486.41875 462.118438) scale(0.1 -0.1)">
       <use xlink:href="#DejaVuSans-35"/>
      </g>
     </g>
    </g>
    <g id="text_19">
     <!-- relative distance from ROI center ($\sigma$) -->
     <g transform="translate(214.48 474.276875) scale(0.08 -0.08)">
      <defs>
       <path id="DejaVuSans-76" d="M 191 3500 
L 800 3500 
L 1894 563 
L 2988 3500 
L 3597 3500 
L 2284 0 
L 1503 0 
L 191 3500 
z
" transform="scale(0.015625)"/>
       <path id="DejaVuSans-6d" d="M 3328 2828 
Q 3544 3216 3844 3400 
Q 4144 3584 4550 3584 
Q 5097 3584 5394 3201 
Q 5691 2819 5691 2113 
L 5691 0 
L 5113 0 
L 5113 2094 
Q 5113 2597 4934 2840 
Q 4756 3084 4391 3084 
Q 3944 3084 3684 2787 
Q 3425 2491 3425 1978 
L 3425 0 
L 2847 0 
L 2847 2094 
Q 2847 2600 2669 2842 
Q 2491 3084 2119 3084 
Q 1678 3084 1418 2786 
Q 1159 2488 1159 1978 
L 1159 0 
L 581 0 
L 581 3500 
L 1159 3500 
L 1159 2956 
Q 1356 3278 1631 3431 
Q 1906 3584 2284 3584 
Q 2666 3584 2933 3390 
Q 3200 3197 3328 2828 
z
" transform="scale(0.015625)"/>
       <path id="DejaVuSans-52" d="M 2841 2188 
Q 3044 2119 3236 1894 
Q 3428 1669 3622 1275 
L 4263 0 
L 3584 0 
L 2988 1197 
Q 2756 1666 2539 1819 
Q 2322 1972 1947 1972 
L 1259 1972 
L 1259 0 
L 628 0 
L 628 4666 
L 2053 4666 
Q 2853 4666 3247 4331 
Q 3641 3997 3641 3322 
Q 3641 2881 3436 2590 
Q 3231 2300 2841 2188 
z
M 1259 4147 
L 1259 2491 
L 2053 2491 
Q 2509 2491 2742 2702 
Q 2975 2913 2975 3322 
Q 2975 3731 2742 3939 
Q 2509 4147 2053 4147 
L 1259 4147 
z
" transform="scale(0.015625)"/>
       <path id="DejaVuSans-28" d="M 1984 4856 
Q 1566 4138 1362 3434 
Q 1159 2731 1159 2009 
Q 1159 1288 1364 580 
Q 1569 -128 1984 -844 
L 1484 -844 
Q 1016 -109 783 600 
Q 550 1309 550 2009 
Q 550 2706 781 3412 
Q 1013 4119 1484 4856 
L 1984 4856 
z
" transform="scale(0.015625)"/>
       <path id="DejaVuSans-Oblique-3c3" d="M 2219 3044 
Q 1744 3044 1422 2700 
Q 1081 2341 969 1747 
Q 844 1119 1044 756 
Q 1241 397 1706 397 
Q 2166 397 2503 759 
Q 2844 1122 2966 1747 
Q 3075 2319 2881 2700 
Q 2700 3044 2219 3044 
z
M 2309 3503 
L 4219 3500 
L 4106 2925 
L 3463 2925 
Q 3706 2438 3575 1747 
Q 3406 888 2884 400 
Q 2359 -91 1609 -91 
Q 856 -91 525 400 
Q 194 888 363 1747 
Q 528 2609 1050 3097 
Q 1484 3503 2309 3503 
z
" transform="scale(0.015625)"/>
       <path id="DejaVuSans-29" d="M 513 4856 
L 1013 4856 
Q 1481 4119 1714 3412 
Q 1947 2706 1947 2009 
Q 1947 1309 1714 600 
Q 1481 -109 1013 -844 
L 513 -844 
Q 928 -128 1133 580 
Q 1338 1288 1338 2009 
Q 1338 2731 1133 3434 
Q 928 4138 513 4856 
z
" transform="scale(0.015625)"/>
      </defs>
      <use xlink:href="#DejaVuSans-72" transform="translate(0 0.015625)"/>
      <use xlink:href="#DejaVuSans-65" transform="translate(41.113281 0.015625)"/>
      <use xlink:href="#DejaVuSans-6c" transform="translate(102.636719 0.015625)"/>
      <use xlink:href="#DejaVuSans-61" transform="translate(130.419922 0.015625)"/>
      <use xlink:href="#DejaVuSans-74" transform="translate(191.699219 0.015625)"/>
      <use xlink:href="#DejaVuSans-69" transform="translate(230.908203 0.015625)"/>
      <use xlink:href="#DejaVuSans-76" transform="translate(258.691406 0.015625)"/>
      <use xlink:href="#DejaVuSans-65" transform="translate(317.871094 0.015625)"/>
      <use xlink:href="#DejaVuSans-20" transform="translate(379.394531 0.015625)"/>
      <use xlink:href="#DejaVuSans-64" transform="translate(411.181641 0.015625)"/>
      <use xlink:href="#DejaVuSans-69" transform="translate(474.658203 0.015625)"/>
      <use xlink:href="#DejaVuSans-73" transform="translate(502.441406 0.015625)"/>
      <use xlink:href="#DejaVuSans-74" transform="translate(554.541016 0.015625)"/>
      <use xlink:href="#DejaVuSans-61" transform="translate(593.75 0.015625)"/>
      <use xlink:href="#DejaVuSans-6e" transform="translate(655.029297 0.015625)"/>
      <use xlink:href="#DejaVuSans-63" transform="translate(718.408203 0.015625)"/>
      <use xlink:href="#DejaVuSans-65" transform="translate(773.388672 0.015625)"/>
      <use xlink:href="#DejaVuSans-20" transform="translate(834.912109 0.015625)"/>
      <use xlink:href="#DejaVuSans-66" transform="translate(866.699219 0.015625)"/>
      <use xlink:href="#DejaVuSans-72" transform="translate(901.904297 0.015625)"/>
      <use xlink:href="#DejaVuSans-6f" transform="translate(943.017578 0.015625)"/>
      <use xlink:href="#DejaVuSans-6d" transform="translate(1004.199219 0.015625)"/>
      <use xlink:href="#DejaVuSans-20" transform="translate(1101.611328 0.015625)"/>
      <use xlink:href="#DejaVuSans-52" transform="translate(1133.398438 0.015625)"/>
      <use xlink:href="#DejaVuSans-4f" transform="translate(1202.880859 0.015625)"/>
      <use xlink:href="#DejaVuSans-49" transform="translate(1281.591797 0.015625)"/>
      <use xlink:href="#DejaVuSans-20" transform="translate(1311.083984 0.015625)"/>
      <use xlink:href="#DejaVuSans-63" transform="translate(1342.871094 0.015625)"/>
      <use xlink:href="#DejaVuSans-65" transform="translate(1397.851562 0.015625)"/>
      <use xlink:href="#DejaVuSans-6e" transform="translate(1459.375 0.015625)"/>
      <use xlink:href="#DejaVuSans-74" transform="translate(1522.753906 0.015625)"/>
      <use xlink:href="#DejaVuSans-65" transform="translate(1561.962891 0.015625)"/>
      <use xlink:href="#DejaVuSans-72" transform="translate(1623.486328 0.015625)"/>
      <use xlink:href="#DejaVuSans-20" transform="translate(1664.599609 0.015625)"/>
      <use xlink:href="#DejaVuSans-28" transform="translate(1696.386719 0.015625)"/>
      <use xlink:href="#DejaVuSans-Oblique-3c3" transform="translate(1735.400391 0.015625)"/>
      <use xlink:href="#DejaVuSans-29" transform="translate(1798.779297 0.015625)"/>
     </g>
    </g>
   </g>
   <g id="matplotlib.axis_4">
    <g id="ytick_10">
     <g id="line2d_37">
      <g>
       <use xlink:href="#m236bb2e2f5" x="82.4" y="443.52" style="stroke: #000000; stroke-width: 0.8"/>
      </g>
     </g>
     <g id="text_20">
      <!-- −1.0 -->
      <g transform="translate(51.117187 447.319219) scale(0.1 -0.1)">
       <use xlink:href="#DejaVuSans-2212"/>
       <use xlink:href="#DejaVuSans-31" x="83.789062"/>
       <use xlink:href="#DejaVuSans-2e" x="147.412109"/>
       <use xlink:href="#DejaVuSans-30" x="179.199219"/>
      </g>
     </g>
    </g>
    <g id="ytick_11">
     <g id="line2d_38">
      <g>
       <use xlink:href="#m236bb2e2f5" x="82.4" y="405.72" style="stroke: #000000; stroke-width: 0.8"/>
      </g>
     </g>
     <g id="text_21">
      <!-- −0.5 -->
      <g transform="translate(51.117187 409.519219) scale(0.1 -0.1)">
       <use xlink:href="#DejaVuSans-2212"/>
       <use xlink:href="#DejaVuSans-30" x="83.789062"/>
       <use xlink:href="#DejaVuSans-2e" x="147.412109"/>
       <use xlink:href="#DejaVuSans-35" x="179.199219"/>
      </g>
     </g>
    </g>
    <g id="ytick_12">
     <g id="line2d_39">
      <g>
       <use xlink:href="#m236bb2e2f5" x="82.4" y="367.92" style="stroke: #000000; stroke-width: 0.8"/>
      </g>
     </g>
     <g id="text_22">
      <!-- 0.0 -->
      <g transform="translate(59.496875 371.719219) scale(0.1 -0.1)">
       <use xlink:href="#DejaVuSans-30"/>
       <use xlink:href="#DejaVuSans-2e" x="63.623047"/>
       <use xlink:href="#DejaVuSans-30" x="95.410156"/>
      </g>
     </g>
    </g>
    <g id="ytick_13">
     <g id="line2d_40">
      <g>
       <use xlink:href="#m236bb2e2f5" x="82.4" y="330.12" style="stroke: #000000; stroke-width: 0.8"/>
      </g>
     </g>
     <g id="text_23">
      <!-- 0.5 -->
      <g transform="translate(59.496875 333.919219) scale(0.1 -0.1)">
       <use xlink:href="#DejaVuSans-30"/>
       <use xlink:href="#DejaVuSans-2e" x="63.623047"/>
       <use xlink:href="#DejaVuSans-35" x="95.410156"/>
      </g>
     </g>
    </g>
    <g id="ytick_14">
     <g id="line2d_41">
      <g>
       <use xlink:href="#m236bb2e2f5" x="82.4" y="292.32" style="stroke: #000000; stroke-width: 0.8"/>
      </g>
     </g>
     <g id="text_24">
      <!-- 1.0 -->
      <g transform="translate(59.496875 296.119219) scale(0.1 -0.1)">
       <use xlink:href="#DejaVuSans-31"/>
       <use xlink:href="#DejaVuSans-2e" x="63.623047"/>
       <use xlink:href="#DejaVuSans-30" x="95.410156"/>
      </g>
     </g>
    </g>
    <g id="text_25">
     <!-- Binned Avg -->
     <g transform="translate(45.453437 390.525625) rotate(-90) scale(0.08 -0.08)">
      <defs>
       <path id="DejaVuSans-41" d="M 2188 4044 
L 1331 1722 
L 3047 1722 
L 2188 4044 
z
M 1831 4666 
L 2547 4666 
L 4325 0 
L 3669 0 
L 3244 1197 
L 1141 1197 
L 716 0 
L 50 0 
L 1831 4666 
z
" transform="scale(0.015625)"/>
      </defs>
      <use xlink:href="#DejaVuSans-42"/>
      <use xlink:href="#DejaVuSans-69" x="68.603516"/>
      <use xlink:href="#DejaVuSans-6e" x="96.386719"/>
      <use xlink:href="#DejaVuSans-6e" x="159.765625"/>
      <use xlink:href="#DejaVuSans-65" x="223.144531"/>
      <use xlink:href="#DejaVuSans-64" x="284.667969"/>
      <use xlink:href="#DejaVuSans-20" x="348.144531"/>
      <use xlink:href="#DejaVuSans-41" x="379.931641"/>
      <use xlink:href="#DejaVuSans-76" x="442.464844"/>
      <use xlink:href="#DejaVuSans-67" x="501.644531"/>
     </g>
    </g>
   </g>
   <g id="LineCollection_1">
    <path d="M 126.72 462.188893 
L 126.72 381.76614 
" clip-path="url(#p0b1f4278af)" style="fill: none; stroke: #000000; stroke-width: 1.5"/>
    <path d="M 207.36 375.454572 
L 207.36 349.666022 
" clip-path="url(#p0b1f4278af)" style="fill: none; stroke: #000000; stroke-width: 1.5"/>
    <path d="M 288 399.877645 
L 288 372.407236 
" clip-path="url(#p0b1f4278af)" style="fill: none; stroke: #000000; stroke-width: 1.5"/>
    <path d="M 368.64 386.806886 
L 368.64 370.559968 
" clip-path="url(#p0b1f4278af)" style="fill: none; stroke: #000000; stroke-width: 1.5"/>
    <path d="M 449.28 408.942496 
L 449.28 376.842205 
" clip-path="url(#p0b1f4278af)" style="fill: none; stroke: #000000; stroke-width: 1.5"/>
   </g>
   <g id="line2d_42">
    <defs>
     <path id="mb1ca37854d" d="M 5 0 
L -5 -0 
" style="stroke: #000000"/>
    </defs>
    <g clip-path="url(#p0b1f4278af)">
     <use xlink:href="#mb1ca37854d" x="126.72" y="462.188893" style="stroke: #000000"/>
     <use xlink:href="#mb1ca37854d" x="207.36" y="375.454572" style="stroke: #000000"/>
     <use xlink:href="#mb1ca37854d" x="288" y="399.877645" style="stroke: #000000"/>
     <use xlink:href="#mb1ca37854d" x="368.64" y="386.806886" style="stroke: #000000"/>
     <use xlink:href="#mb1ca37854d" x="449.28" y="408.942496" style="stroke: #000000"/>
    </g>
   </g>
   <g id="line2d_43">
    <g clip-path="url(#p0b1f4278af)">
     <use xlink:href="#mb1ca37854d" x="126.72" y="381.76614" style="stroke: #000000"/>
     <use xlink:href="#mb1ca37854d" x="207.36" y="349.666022" style="stroke: #000000"/>
     <use xlink:href="#mb1ca37854d" x="288" y="372.407236" style="stroke: #000000"/>
     <use xlink:href="#mb1ca37854d" x="368.64" y="370.559968" style="stroke: #000000"/>
     <use xlink:href="#mb1ca37854d" x="449.28" y="376.842205" style="stroke: #000000"/>
    </g>
   </g>
   <g id="line2d_44">
    <path d="M 86.4 367.92 
L 489.6 367.92 
" clip-path="url(#p0b1f4278af)" style="fill: none; stroke-dasharray: 5.55,2.4; stroke-dashoffset: 0; stroke: #000000; stroke-width: 1.5"/>
   </g>
   <g id="patch_12">
    <path d="M 82.4 443.52 
L 82.4 292.32 
" style="fill: none; stroke: #000000; stroke-width: 0.8; stroke-linejoin: miter; stroke-linecap: square"/>
   </g>
   <g id="patch_13">
    <path d="M 86.4 447.52 
L 489.6 447.52 
" style="fill: none; stroke: #000000; stroke-width: 0.8; stroke-linejoin: miter; stroke-linecap: square"/>
   </g>
  </g>
 </g>
 <defs>
  <clipPath id="p323adc8e61">
   <rect x="86.4" y="40.32" width="403.2" height="201.6"/>
  </clipPath>
  <clipPath id="p0b1f4278af">
   <rect x="86.4" y="292.32" width="403.2" height="151.2"/>
  </clipPath>
 </defs>
</svg>
