<?xml version="1.0" encoding="utf-8" standalone="no"?>
<!DOCTYPE svg PUBLIC "-//W3C//DTD SVG 1.1//EN"
  "http://www.w3.org/Graphics/SVG/1.1/DTD/svg11.dtd">
<svg xmlns:xlink="http://www.w3.org/1999/xlink" width="360pt" height="432pt" viewBox="0 0 360 432" xmlns="http://www.w3.org/2000/svg" version="1.1">
 <metadata>
  <rdf:RDF xmlns:dc="http://purl.org/dc/elements/1.1/" xmlns:cc="http://creativecommons.org/ns#" xmlns:rdf="http://www.w3.org/1999/02/22-rdf-syntax-ns#">
   <cc:Work>
    <dc:type rdf:resource="http://purl.org/dc/dcmitype/StillImage"/>
    <dc:date>2026-05-26T10:35:08.840457</dc:date>
    <dc:format>image/svg+xml</dc:format>
    <dc:creator>
     <cc:Agent>
      <dc:title>Matplotlib v3.8.0, https://matplotlib.org/</dc:title>
     </cc:Agent>
    </dc:creator>
   </cc:Work>
  </rdf:RDF>
 </metadata>
 <defs>
  <style type="text/css">*{stroke-linejoin: round; stroke-linecap: butt}</style>
 </defs>
 <g id="figure_1">
  <g id="patch_1">
   <path d="M 0 432 
L 360 432 
L 360 0 
L 0 0 
z
" style="fill: #ffffff"/>
  </g>
  <g id="axes_1">
   <g id="patch_2">
    <path d="M 54 388.8 
L 306 388.8 
L 306 302.4 
L 54 302.4 
z
" style="fill: #ffffff"/>
   </g>
   <g id="PolyCollection_1">
    <defs>
     <path id="mc5a4e5306d" d="M 65.454545 -98.672559 
L 65.454545 -96.422417 
L 70.12987 -96.390384 
L 74.805195 -96.363765 
L 79.480519 -96.278728 
L 84.155844 -96.228002 
L 88.831169 -96.316116 
L 93.506494 -96.374611 
L 98.181818 -96.271898 
L 102.857143 -96.166483 
L 107.532468 -96.052453 
L 112.207792 -95.785154 
L 116.883117 -95.334254 
L 121.558442 -94.826876 
L 126.233766 -94.258275 
L 130.909091 -93.662159 
L 135.584416 -93.138553 
L 140.25974 -92.506636 
L 144.935065 -91.675404 
L 149.61039 -90.665212 
L 154.285714 -89.58402 
L 158.961039 -88.49414 
L 163.636364 -87.354849 
L 168.311688 -86.086224 
L 172.987013 -84.758641 
L 177.662338 -83.527069 
L 182.337662 -82.300383 
L 187.012987 -81.114387 
L 191.688312 -80.042579 
L 196.363636 -79.087089 
L 201.038961 -78.168634 
L 205.714286 -77.308246 
L 210.38961 -76.478667 
L 215.064935 -75.758048 
L 219.74026 -75.186765 
L 224.415584 -74.620807 
L 229.090909 -74.105662 
L 233.766234 -73.628604 
L 238.441558 -73.209251 
L 243.116883 -72.798725 
L 247.792208 -72.406074 
L 252.467532 -72.006796 
L 257.142857 -71.633388 
L 261.818182 -71.389495 
L 266.493506 -71.233028 
L 271.168831 -71.042782 
L 275.844156 -70.816733 
L 280.519481 -70.630642 
L 285.194805 -70.49761 
L 289.87013 -70.459795 
L 294.545455 -70.450243 
L 294.545455 -73.809052 
L 294.545455 -73.809052 
L 289.87013 -73.814949 
L 285.194805 -73.838403 
L 280.519481 -73.926692 
L 275.844156 -74.05236 
L 271.168831 -74.192019 
L 266.493506 -74.289331 
L 261.818182 -74.360798 
L 257.142857 -74.484959 
L 252.467532 -74.706817 
L 247.792208 -74.976606 
L 243.116883 -75.294284 
L 238.441558 -75.625254 
L 233.766234 -75.979918 
L 229.090909 -76.372838 
L 224.415584 -76.793477 
L 219.74026 -77.290927 
L 215.064935 -77.858032 
L 210.38961 -78.559623 
L 205.714286 -79.339598 
L 201.038961 -80.139463 
L 196.363636 -80.96582 
L 191.688312 -81.812098 
L 187.012987 -82.767198 
L 182.337662 -83.824314 
L 177.662338 -84.890131 
L 172.987013 -85.964974 
L 168.311688 -87.145309 
L 163.636364 -88.255681 
L 158.961039 -89.275458 
L 154.285714 -90.280551 
L 149.61039 -91.356047 
L 144.935065 -92.379114 
L 140.25974 -93.272964 
L 135.584416 -94.054038 
L 130.909091 -94.711043 
L 126.233766 -95.405036 
L 121.558442 -96.043358 
L 116.883117 -96.677498 
L 112.207792 -97.286268 
L 107.532468 -97.622996 
L 102.857143 -97.804399 
L 98.181818 -98.014775 
L 93.506494 -98.244463 
L 88.831169 -98.277049 
L 84.155844 -98.268622 
L 79.480519 -98.446027 
L 74.805195 -98.621277 
L 70.12987 -98.641661 
L 65.454545 -98.672559 
z
" style="stroke: #ff7f50; stroke-opacity: 0.4"/>
    </defs>
    <g clip-path="url(#pee7c3134d5)">
     <use xlink:href="#mc5a4e5306d" x="0" y="432" style="fill: #ff7f50; fill-opacity: 0.4; stroke: #ff7f50; stroke-opacity: 0.4"/>
    </g>
   </g>
   <g id="matplotlib.axis_1">
    <g id="xtick_1">
     <g id="line2d_1">
      <defs>
       <path id="md37301853e" d="M 0 0 
L 0 3.5 
" style="stroke: #000000; stroke-width: 0.8"/>
      </defs>
      <g>
       <use xlink:href="#md37301853e" x="65.454545" y="392.8" style="stroke: #000000; stroke-width: 0.8"/>
      </g>
     </g>
     <g id="text_1">
      <!-- 0 -->
      <g transform="translate(62.273295 407.398438) scale(0.1 -0.1)">
       <defs>
        <path id="DejaVuSans-30" d="M 2034 4250 
Q 1547 4250 1301 3770 
Q 1056 3291 1056 2328 
Q 1056 1369 1301 889 
Q 1547 409 2034 409 
Q 2525 409 2770 889 
Q 3016 1369 3016 2328 
Q 3016 3291 2770 3770 
Q 2525 4250 2034 4250 
z
M 2034 4750 
Q 2819 4750 3233 4129 
Q 3647 3509 3647 2328 
Q 3647 1150 3233 529 
Q 2819 -91 2034 -91 
Q 1250 -91 836 529 
Q 422 1150 422 2328 
Q 422 3509 836 4129 
Q 1250 4750 2034 4750 
z
" transform="scale(0.015625)"/>
       </defs>
       <use xlink:href="#DejaVuSans-30"/>
      </g>
     </g>
    </g>
    <g id="xtick_2">
     <g id="line2d_2">
      <g>
       <use xlink:href="#md37301853e" x="111.272727" y="392.8" style="stroke: #000000; stroke-width: 0.8"/>
      </g>
     </g>
     <g id="text_2">
      <!-- 1 -->
      <g transform="translate(108.091477 407.398438) scale(0.1 -0.1)">
       <defs>
        <path id="DejaVuSans-31" d="M 794 531 
L 1825 531 
L 1825 4091 
L 703 3866 
L 703 4441 
L 1819 4666 
L 2450 4666 
L 2450 531 
L 3481 531 
L 3481 0 
L 794 0 
L 794 531 
z
" transform="scale(0.015625)"/>
       </defs>
       <use xlink:href="#DejaVuSans-31"/>
      </g>
     </g>
    </g>
    <g id="xtick_3">
     <g id="line2d_3">
      <g>
       <use xlink:href="#md37301853e" x="157.090909" y="392.8" style="stroke: #000000; stroke-width: 0.8"/>
      </g>
     </g>
     <g id="text_3">
      <!-- 2 -->
      <g transform="translate(153.909659 407.398438) scale(0.1 -0.1)">
       <defs>
        <path id="DejaVuSans-32" d="M 1228 531 
L 3431 531 
L 3431 0 
L 469 0 
L 469 531 
Q 828 903 1448 1529 
Q 2069 2156 2228 2338 
Q 2531 2678 2651 2914 
Q 2772 3150 2772 3378 
Q 2772 3750 2511 3984 
Q 2250 4219 1831 4219 
Q 1534 4219 1204 4116 
Q 875 4013 500 3803 
L 500 4441 
Q 881 4594 1212 4672 
Q 1544 4750 1819 4750 
Q 2544 4750 2975 4387 
Q 3406 4025 3406 3419 
Q 3406 3131 3298 2873 
Q 3191 2616 2906 2266 
Q 2828 2175 2409 1742 
Q 1991 1309 1228 531 
z
" transform="scale(0.015625)"/>
       </defs>
       <use xlink:href="#DejaVuSans-32"/>
      </g>
     </g>
    </g>
    <g id="xtick_4">
     <g id="line2d_4">
      <g>
       <use xlink:href="#md37301853e" x="202.909091" y="392.8" style="stroke: #000000; stroke-width: 0.8"/>
      </g>
     </g>
     <g id="text_4">
      <!-- 3 -->
      <g transform="translate(199.727841 407.398438) scale(0.1 -0.1)">
       <defs>
        <path id="DejaVuSans-33" d="M 2597 2516 
Q 3050 2419 3304 2112 
Q 3559 1806 3559 1356 
Q 3559 666 3084 287 
Q 2609 -91 1734 -91 
Q 1441 -91 1130 -33 
Q 819 25 488 141 
L 488 750 
Q 750 597 1062 519 
Q 1375 441 1716 441 
Q 2309 441 2620 675 
Q 2931 909 2931 1356 
Q 2931 1769 2642 2001 
Q 2353 2234 1838 2234 
L 1294 2234 
L 1294 2753 
L 1863 2753 
Q 2328 2753 2575 2939 
Q 2822 3125 2822 3475 
Q 2822 3834 2567 4026 
Q 2313 4219 1838 4219 
Q 1578 4219 1281 4162 
Q 984 4106 628 3988 
L 628 4550 
Q 988 4650 1302 4700 
Q 1616 4750 1894 4750 
Q 2613 4750 3031 4423 
Q 3450 4097 3450 3541 
Q 3450 3153 3228 2886 
Q 3006 2619 2597 2516 
z
" transform="scale(0.015625)"/>
       </defs>
       <use xlink:href="#DejaVuSans-33"/>
      </g>
     </g>
    </g>
    <g id="xtick_5">
     <g id="line2d_5">
      <g>
       <use xlink:href="#md37301853e" x="248.727273" y="392.8" style="stroke: #000000; stroke-width: 0.8"/>
      </g>
     </g>
     <g id="text_5">
      <!-- 4 -->
      <g transform="translate(245.546023 407.398438) scale(0.1 -0.1)">
       <defs>
        <path id="DejaVuSans-34" d="M 2419 4116 
L 825 1625 
L 2419 1625 
L 2419 4116 
z
M 2253 4666 
L 3047 4666 
L 3047 1625 
L 3713 1625 
L 3713 1100 
L 3047 1100 
L 3047 0 
L 2419 0 
L 2419 1100 
L 313 1100 
L 313 1709 
L 2253 4666 
z
" transform="scale(0.015625)"/>
       </defs>
       <use xlink:href="#DejaVuSans-34"/>
      </g>
     </g>
    </g>
    <g id="xtick_6">
     <g id="line2d_6">
      <g>
       <use xlink:href="#md37301853e" x="294.545455" y="392.8" style="stroke: #000000; stroke-width: 0.8"/>
      </g>
     </g>
     <g id="text_6">
      <!-- 5 -->
      <g transform="translate(291.364205 407.398438) scale(0.1 -0.1)">
       <defs>
        <path id="DejaVuSans-35" d="M 691 4666 
L 3169 4666 
L 3169 4134 
L 1269 4134 
L 1269 2991 
Q 1406 3038 1543 3061 
Q 1681 3084 1819 3084 
Q 2600 3084 3056 2656 
Q 3513 2228 3513 1497 
Q 3513 744 3044 326 
Q 2575 -91 1722 -91 
Q 1428 -91 1123 -41 
Q 819 9 494 109 
L 494 744 
Q 775 591 1075 516 
Q 1375 441 1709 441 
Q 2250 441 2565 725 
Q 2881 1009 2881 1497 
Q 2881 1984 2565 2268 
Q 2250 2553 1709 2553 
Q 1456 2553 1204 2497 
Q 953 2441 691 2322 
L 691 4666 
z
" transform="scale(0.015625)"/>
       </defs>
       <use xlink:href="#DejaVuSans-35"/>
      </g>
     </g>
    </g>
    <g id="text_7">
     <!-- relative distance from ROI center ($\sigma$) -->
     <g transform="translate(106.48 419.556875) scale(0.08 -0.08)">
      <defs>
       <path id="DejaVuSans-72" d="M 2631 2963 
Q 2534 3019 2420 3045 
Q 2306 3072 2169 3072 
Q 1681 3072 1420 2755 
Q 1159 2438 1159 1844 
L 1159 0 
L 581 0 
L 581 3500 
L 1159 3500 
L 1159 2956 
Q 1341 3275 1631 3429 
Q 1922 3584 2338 3584 
Q 2397 3584 2469 3576 
Q 2541 3569 2628 3553 
L 2631 2963 
z
" transform="scale(0.015625)"/>
       <path id="DejaVuSans-65" d="M 3597 1894 
L 3597 1613 
L 953 1613 
Q 991 1019 1311 708 
Q 1631 397 2203 397 
Q 2534 397 2845 478 
Q 3156 559 3463 722 
L 3463 178 
Q 3153 47 2828 -22 
Q 2503 -91 2169 -91 
Q 1331 -91 842 396 
Q 353 884 353 1716 
Q 353 2575 817 3079 
Q 1281 3584 2069 3584 
Q 2775 3584 3186 3129 
Q 3597 2675 3597 1894 
z
M 3022 2063 
Q 3016 2534 2758 2815 
Q 2500 3097 2075 3097 
Q 1594 3097 1305 2825 
Q 1016 2553 972 2059 
L 3022 2063 
z
" transform="scale(0.015625)"/>
       <path id="DejaVuSans-6c" d="M 603 4863 
L 1178 4863 
L 1178 0 
L 603 0 
L 603 4863 
z
" transform="scale(0.015625)"/>
       <path id="DejaVuSans-61" d="M 2194 1759 
Q 1497 1759 1228 1600 
Q 959 1441 959 1056 
Q 959 750 1161 570 
Q 1363 391 1709 391 
Q 2188 391 2477 730 
Q 2766 1069 2766 1631 
L 2766 1759 
L 2194 1759 
z
M 3341 1997 
L 3341 0 
L 2766 0 
L 2766 531 
Q 2569 213 2275 61 
Q 1981 -91 1556 -91 
Q 1019 -91 701 211 
Q 384 513 384 1019 
Q 384 1609 779 1909 
Q 1175 2209 1959 2209 
L 2766 2209 
L 2766 2266 
Q 2766 2663 2505 2880 
Q 2244 3097 1772 3097 
Q 1472 3097 1187 3025 
Q 903 2953 641 2809 
L 641 3341 
Q 956 3463 1253 3523 
Q 1550 3584 1831 3584 
Q 2591 3584 2966 3190 
Q 3341 2797 3341 1997 
z
" transform="scale(0.015625)"/>
       <path id="DejaVuSans-74" d="M 1172 4494 
L 1172 3500 
L 2356 3500 
L 2356 3053 
L 1172 3053 
L 1172 1153 
Q 1172 725 1289 603 
Q 1406 481 1766 481 
L 2356 481 
L 2356 0 
L 1766 0 
Q 1100 0 847 248 
Q 594 497 594 1153 
L 594 3053 
L 172 3053 
L 172 3500 
L 594 3500 
L 594 4494 
L 1172 4494 
z
" transform="scale(0.015625)"/>
       <path id="DejaVuSans-69" d="M 603 3500 
L 1178 3500 
L 1178 0 
L 603 0 
L 603 3500 
z
M 603 4863 
L 1178 4863 
L 1178 4134 
L 603 4134 
L 603 4863 
z
" transform="scale(0.015625)"/>
       <path id="DejaVuSans-76" d="M 191 3500 
L 800 3500 
L 1894 563 
L 2988 3500 
L 3597 3500 
L 2284 0 
L 1503 0 
L 191 3500 
z
" transform="scale(0.015625)"/>
       <path id="DejaVuSans-20" transform="scale(0.015625)"/>
       <path id="DejaVuSans-64" d="M 2906 2969 
L 2906 4863 
L 3481 4863 
L 3481 0 
L 2906 0 
L 2906 525 
Q 2725 213 2448 61 
Q 2172 -91 1784 -91 
Q 1150 -91 751 415 
Q 353 922 353 1747 
Q 353 2572 751 3078 
Q 1150 3584 1784 3584 
Q 2172 3584 2448 3432 
Q 2725 3281 2906 2969 
z
M 947 1747 
Q 947 1113 1208 752 
Q 1469 391 1925 391 
Q 2381 391 2643 752 
Q 2906 1113 2906 1747 
Q 2906 2381 2643 2742 
Q 2381 3103 1925 3103 
Q 1469 3103 1208 2742 
Q 947 2381 947 1747 
z
" transform="scale(0.015625)"/>
       <path id="DejaVuSans-73" d="M 2834 3397 
L 2834 2853 
Q 2591 2978 2328 3040 
Q 2066 3103 1784 3103 
Q 1356 3103 1142 2972 
Q 928 2841 928 2578 
Q 928 2378 1081 2264 
Q 1234 2150 1697 2047 
L 1894 2003 
Q 2506 1872 2764 1633 
Q 3022 1394 3022 966 
Q 3022 478 2636 193 
Q 2250 -91 1575 -91 
Q 1294 -91 989 -36 
Q 684 19 347 128 
L 347 722 
Q 666 556 975 473 
Q 1284 391 1588 391 
Q 1994 391 2212 530 
Q 2431 669 2431 922 
Q 2431 1156 2273 1281 
Q 2116 1406 1581 1522 
L 1381 1569 
Q 847 1681 609 1914 
Q 372 2147 372 2553 
Q 372 3047 722 3315 
Q 1072 3584 1716 3584 
Q 2034 3584 2315 3537 
Q 2597 3491 2834 3397 
z
" transform="scale(0.015625)"/>
       <path id="DejaVuSans-6e" d="M 3513 2113 
L 3513 0 
L 2938 0 
L 2938 2094 
Q 2938 2591 2744 2837 
Q 2550 3084 2163 3084 
Q 1697 3084 1428 2787 
Q 1159 2491 1159 1978 
L 1159 0 
L 581 0 
L 581 3500 
L 1159 3500 
L 1159 2956 
Q 1366 3272 1645 3428 
Q 1925 3584 2291 3584 
Q 2894 3584 3203 3211 
Q 3513 2838 3513 2113 
z
" transform="scale(0.015625)"/>
       <path id="DejaVuSans-63" d="M 3122 3366 
L 3122 2828 
Q 2878 2963 2633 3030 
Q 2388 3097 2138 3097 
Q 1578 3097 1268 2742 
Q 959 2388 959 1747 
Q 959 1106 1268 751 
Q 1578 397 2138 397 
Q 2388 397 2633 464 
Q 2878 531 3122 666 
L 3122 134 
Q 2881 22 2623 -34 
Q 2366 -91 2075 -91 
Q 1284 -91 818 406 
Q 353 903 353 1747 
Q 353 2603 823 3093 
Q 1294 3584 2113 3584 
Q 2378 3584 2631 3529 
Q 2884 3475 3122 3366 
z
" transform="scale(0.015625)"/>
       <path id="DejaVuSans-66" d="M 2375 4863 
L 2375 4384 
L 1825 4384 
Q 1516 4384 1395 4259 
Q 1275 4134 1275 3809 
L 1275 3500 
L 2222 3500 
L 2222 3053 
L 1275 3053 
L 1275 0 
L 697 0 
L 697 3053 
L 147 3053 
L 147 3500 
L 697 3500 
L 697 3744 
Q 697 4328 969 4595 
Q 1241 4863 1831 4863 
L 2375 4863 
z
" transform="scale(0.015625)"/>
       <path id="DejaVuSans-6f" d="M 1959 3097 
Q 1497 3097 1228 2736 
Q 959 2375 959 1747 
Q 959 1119 1226 758 
Q 1494 397 1959 397 
Q 2419 397 2687 759 
Q 2956 1122 2956 1747 
Q 2956 2369 2687 2733 
Q 2419 3097 1959 3097 
z
M 1959 3584 
Q 2709 3584 3137 3096 
Q 3566 2609 3566 1747 
Q 3566 888 3137 398 
Q 2709 -91 1959 -91 
Q 1206 -91 779 398 
Q 353 888 353 1747 
Q 353 2609 779 3096 
Q 1206 3584 1959 3584 
z
" transform="scale(0.015625)"/>
       <path id="DejaVuSans-6d" d="M 3328 2828 
Q 3544 3216 3844 3400 
Q 4144 3584 4550 3584 
Q 5097 3584 5394 3201 
Q 5691 2819 5691 2113 
L 5691 0 
L 5113 0 
L 5113 2094 
Q 5113 2597 4934 2840 
Q 4756 3084 4391 3084 
Q 3944 3084 3684 2787 
Q 3425 2491 3425 1978 
L 3425 0 
L 2847 0 
L 2847 2094 
Q 2847 2600 2669 2842 
Q 2491 3084 2119 3084 
Q 1678 3084 1418 2786 
Q 1159 2488 1159 1978 
L 1159 0 
L 581 0 
L 581 3500 
L 1159 3500 
L 1159 2956 
Q 1356 3278 1631 3431 
Q 1906 3584 2284 3584 
Q 2666 3584 2933 3390 
Q 3200 3197 3328 2828 
z
" transform="scale(0.015625)"/>
       <path id="DejaVuSans-52" d="M 2841 2188 
Q 3044 2119 3236 1894 
Q 3428 1669 3622 1275 
L 4263 0 
L 3584 0 
L 2988 1197 
Q 2756 1666 2539 1819 
Q 2322 1972 1947 1972 
L 1259 1972 
L 1259 0 
L 628 0 
L 628 4666 
L 2053 4666 
Q 2853 4666 3247 4331 
Q 3641 3997 3641 3322 
Q 3641 2881 3436 2590 
Q 3231 2300 2841 2188 
z
M 1259 4147 
L 1259 2491 
L 2053 2491 
Q 2509 2491 2742 2702 
Q 2975 2913 2975 3322 
Q 2975 3731 2742 3939 
Q 2509 4147 2053 4147 
L 1259 4147 
z
" transform="scale(0.015625)"/>
       <path id="DejaVuSans-4f" d="M 2522 4238 
Q 1834 4238 1429 3725 
Q 1025 3213 1025 2328 
Q 1025 1447 1429 934 
Q 1834 422 2522 422 
Q 3209 422 3611 934 
Q 4013 1447 4013 2328 
Q 4013 3213 3611 3725 
Q 3209 4238 2522 4238 
z
M 2522 4750 
Q 3503 4750 4090 4092 
Q 4678 3434 4678 2328 
Q 4678 1225 4090 567 
Q 3503 -91 2522 -91 
Q 1538 -91 948 565 
Q 359 1222 359 2328 
Q 359 3434 948 4092 
Q 1538 4750 2522 4750 
z
" transform="scale(0.015625)"/>
       <path id="DejaVuSans-49" d="M 628 4666 
L 1259 4666 
L 1259 0 
L 628 0 
L 628 4666 
z
" transform="scale(0.015625)"/>
       <path id="DejaVuSans-28" d="M 1984 4856 
Q 1566 4138 1362 3434 
Q 1159 2731 1159 2009 
Q 1159 1288 1364 580 
Q 1569 -128 1984 -844 
L 1484 -844 
Q 1016 -109 783 600 
Q 550 1309 550 2009 
Q 550 2706 781 3412 
Q 1013 4119 1484 4856 
L 1984 4856 
z
" transform="scale(0.015625)"/>
       <path id="DejaVuSans-Oblique-3c3" d="M 2219 3044 
Q 1744 3044 1422 2700 
Q 1081 2341 969 1747 
Q 844 1119 1044 756 
Q 1241 397 1706 397 
Q 2166 397 2503 759 
Q 2844 1122 2966 1747 
Q 3075 2319 2881 2700 
Q 2700 3044 2219 3044 
z
M 2309 3503 
L 4219 3500 
L 4106 2925 
L 3463 2925 
Q 3706 2438 3575 1747 
Q 3406 888 2884 400 
Q 2359 -91 1609 -91 
Q 856 -91 525 400 
Q 194 888 363 1747 
Q 528 2609 1050 3097 
Q 1484 3503 2309 3503 
z
" transform="scale(0.015625)"/>
       <path id="DejaVuSans-29" d="M 513 4856 
L 1013 4856 
Q 1481 4119 1714 3412 
Q 1947 2706 1947 2009 
Q 1947 1309 1714 600 
Q 1481 -109 1013 -844 
L 513 -844 
Q 928 -128 1133 580 
Q 1338 1288 1338 2009 
Q 1338 2731 1133 3434 
Q 928 4138 513 4856 
z
" transform="scale(0.015625)"/>
      </defs>
      <use xlink:href="#DejaVuSans-72" transform="translate(0 0.015625)"/>
      <use xlink:href="#DejaVuSans-65" transform="translate(41.113281 0.015625)"/>
      <use xlink:href="#DejaVuSans-6c" transform="translate(102.636719 0.015625)"/>
      <use xlink:href="#DejaVuSans-61" transform="translate(130.419922 0.015625)"/>
      <use xlink:href="#DejaVuSans-74" transform="translate(191.699219 0.015625)"/>
      <use xlink:href="#DejaVuSans-69" transform="translate(230.908203 0.015625)"/>
      <use xlink:href="#DejaVuSans-76" transform="translate(258.691406 0.015625)"/>
      <use xlink:href="#DejaVuSans-65" transform="translate(317.871094 0.015625)"/>
      <use xlink:href="#DejaVuSans-20" transform="translate(379.394531 0.015625)"/>
      <use xlink:href="#DejaVuSans-64" transform="translate(411.181641 0.015625)"/>
      <use xlink:href="#DejaVuSans-69" transform="translate(474.658203 0.015625)"/>
      <use xlink:href="#DejaVuSans-73" transform="translate(502.441406 0.015625)"/>
      <use xlink:href="#DejaVuSans-74" transform="translate(554.541016 0.015625)"/>
      <use xlink:href="#DejaVuSans-61" transform="translate(593.75 0.015625)"/>
      <use xlink:href="#DejaVuSans-6e" transform="translate(655.029297 0.015625)"/>
      <use xlink:href="#DejaVuSans-63" transform="translate(718.408203 0.015625)"/>
      <use xlink:href="#DejaVuSans-65" transform="translate(773.388672 0.015625)"/>
      <use xlink:href="#DejaVuSans-20" transform="translate(834.912109 0.015625)"/>
      <use xlink:href="#DejaVuSans-66" transform="translate(866.699219 0.015625)"/>
      <use xlink:href="#DejaVuSans-72" transform="translate(901.904297 0.015625)"/>
      <use xlink:href="#DejaVuSans-6f" transform="translate(943.017578 0.015625)"/>
      <use xlink:href="#DejaVuSans-6d" transform="translate(1004.199219 0.015625)"/>
      <use xlink:href="#DejaVuSans-20" transform="translate(1101.611328 0.015625)"/>
      <use xlink:href="#DejaVuSans-52" transform="translate(1133.398438 0.015625)"/>
      <use xlink:href="#DejaVuSans-4f" transform="translate(1202.880859 0.015625)"/>
      <use xlink:href="#DejaVuSans-49" transform="translate(1281.591797 0.015625)"/>
      <use xlink:href="#DejaVuSans-20" transform="translate(1311.083984 0.015625)"/>
      <use xlink:href="#DejaVuSans-63" transform="translate(1342.871094 0.015625)"/>
      <use xlink:href="#DejaVuSans-65" transform="translate(1397.851562 0.015625)"/>
      <use xlink:href="#DejaVuSans-6e" transform="translate(1459.375 0.015625)"/>
      <use xlink:href="#DejaVuSans-74" transform="translate(1522.753906 0.015625)"/>
      <use xlink:href="#DejaVuSans-65" transform="translate(1561.962891 0.015625)"/>
      <use xlink:href="#DejaVuSans-72" transform="translate(1623.486328 0.015625)"/>
      <use xlink:href="#DejaVuSans-20" transform="translate(1664.599609 0.015625)"/>
      <use xlink:href="#DejaVuSans-28" transform="translate(1696.386719 0.015625)"/>
      <use xlink:href="#DejaVuSans-Oblique-3c3" transform="translate(1735.400391 0.015625)"/>
      <use xlink:href="#DejaVuSans-29" transform="translate(1798.779297 0.015625)"/>
     </g>
    </g>
   </g>
   <g id="matplotlib.axis_2">
    <g id="ytick_1">
     <g id="line2d_7">
      <defs>
       <path id="m7370c8f7e1" d="M 0 0 
L -3.5 0 
" style="stroke: #000000; stroke-width: 0.8"/>
      </defs>
      <g>
       <use xlink:href="#m7370c8f7e1" x="50" y="376.457143" style="stroke: #000000; stroke-width: 0.8"/>
      </g>
     </g>
     <g id="text_8">
      <!-- −5 -->
      <g transform="translate(28.257812 380.256362) scale(0.1 -0.1)">
       <defs>
        <path id="DejaVuSans-2212" d="M 678 2272 
L 4684 2272 
L 4684 1741 
L 678 1741 
L 678 2272 
z
" transform="scale(0.015625)"/>
       </defs>
       <use xlink:href="#DejaVuSans-2212"/>
       <use xlink:href="#DejaVuSans-35" x="83.789062"/>
      </g>
     </g>
    </g>
    <g id="ytick_2">
     <g id="line2d_8">
      <g>
       <use xlink:href="#m7370c8f7e1" x="50" y="345.6" style="stroke: #000000; stroke-width: 0.8"/>
      </g>
     </g>
     <g id="text_9">
      <!-- 0 -->
      <g transform="translate(36.6375 349.399219) scale(0.1 -0.1)">
       <use xlink:href="#DejaVuSans-30"/>
      </g>
     </g>
    </g>
    <g id="ytick_3">
     <g id="line2d_9">
      <g>
       <use xlink:href="#m7370c8f7e1" x="50" y="314.742857" style="stroke: #000000; stroke-width: 0.8"/>
      </g>
     </g>
     <g id="text_10">
      <!-- 5 -->
      <g transform="translate(36.6375 318.542076) scale(0.1 -0.1)">
       <use xlink:href="#DejaVuSans-35"/>
      </g>
     </g>
    </g>
    <g id="text_11">
     <!-- BOLD % change -->
     <g transform="translate(22.594062 377.79625) rotate(-90) scale(0.08 -0.08)">
      <defs>
       <path id="DejaVuSans-42" d="M 1259 2228 
L 1259 519 
L 2272 519 
Q 2781 519 3026 730 
Q 3272 941 3272 1375 
Q 3272 1813 3026 2020 
Q 2781 2228 2272 2228 
L 1259 2228 
z
M 1259 4147 
L 1259 2741 
L 2194 2741 
Q 2656 2741 2882 2914 
Q 3109 3088 3109 3444 
Q 3109 3797 2882 3972 
Q 2656 4147 2194 4147 
L 1259 4147 
z
M 628 4666 
L 2241 4666 
Q 2963 4666 3353 4366 
Q 3744 4066 3744 3513 
Q 3744 3084 3544 2831 
Q 3344 2578 2956 2516 
Q 3422 2416 3680 2098 
Q 3938 1781 3938 1306 
Q 3938 681 3513 340 
Q 3088 0 2303 0 
L 628 0 
L 628 4666 
z
" transform="scale(0.015625)"/>
       <path id="DejaVuSans-4c" d="M 628 4666 
L 1259 4666 
L 1259 531 
L 3531 531 
L 3531 0 
L 628 0 
L 628 4666 
z
" transform="scale(0.015625)"/>
       <path id="DejaVuSans-44" d="M 1259 4147 
L 1259 519 
L 2022 519 
Q 2988 519 3436 956 
Q 3884 1394 3884 2338 
Q 3884 3275 3436 3711 
Q 2988 4147 2022 4147 
L 1259 4147 
z
M 628 4666 
L 1925 4666 
Q 3281 4666 3915 4102 
Q 4550 3538 4550 2338 
Q 4550 1131 3912 565 
Q 3275 0 1925 0 
L 628 0 
L 628 4666 
z
" transform="scale(0.015625)"/>
       <path id="DejaVuSans-25" d="M 4653 2053 
Q 4381 2053 4226 1822 
Q 4072 1591 4072 1178 
Q 4072 772 4226 539 
Q 4381 306 4653 306 
Q 4919 306 5073 539 
Q 5228 772 5228 1178 
Q 5228 1588 5073 1820 
Q 4919 2053 4653 2053 
z
M 4653 2450 
Q 5147 2450 5437 2106 
Q 5728 1763 5728 1178 
Q 5728 594 5436 251 
Q 5144 -91 4653 -91 
Q 4153 -91 3862 251 
Q 3572 594 3572 1178 
Q 3572 1766 3864 2108 
Q 4156 2450 4653 2450 
z
M 1428 4353 
Q 1159 4353 1004 4120 
Q 850 3888 850 3481 
Q 850 3069 1003 2837 
Q 1156 2606 1428 2606 
Q 1700 2606 1854 2837 
Q 2009 3069 2009 3481 
Q 2009 3884 1853 4118 
Q 1697 4353 1428 4353 
z
M 4250 4750 
L 4750 4750 
L 1831 -91 
L 1331 -91 
L 4250 4750 
z
M 1428 4750 
Q 1922 4750 2215 4408 
Q 2509 4066 2509 3481 
Q 2509 2891 2217 2550 
Q 1925 2209 1428 2209 
Q 931 2209 642 2551 
Q 353 2894 353 3481 
Q 353 4063 643 4406 
Q 934 4750 1428 4750 
z
" transform="scale(0.015625)"/>
       <path id="DejaVuSans-68" d="M 3513 2113 
L 3513 0 
L 2938 0 
L 2938 2094 
Q 2938 2591 2744 2837 
Q 2550 3084 2163 3084 
Q 1697 3084 1428 2787 
Q 1159 2491 1159 1978 
L 1159 0 
L 581 0 
L 581 4863 
L 1159 4863 
L 1159 2956 
Q 1366 3272 1645 3428 
Q 1925 3584 2291 3584 
Q 2894 3584 3203 3211 
Q 3513 2838 3513 2113 
z
" transform="scale(0.015625)"/>
       <path id="DejaVuSans-67" d="M 2906 1791 
Q 2906 2416 2648 2759 
Q 2391 3103 1925 3103 
Q 1463 3103 1205 2759 
Q 947 2416 947 1791 
Q 947 1169 1205 825 
Q 1463 481 1925 481 
Q 2391 481 2648 825 
Q 2906 1169 2906 1791 
z
M 3481 434 
Q 3481 -459 3084 -895 
Q 2688 -1331 1869 -1331 
Q 1566 -1331 1297 -1286 
Q 1028 -1241 775 -1147 
L 775 -588 
Q 1028 -725 1275 -790 
Q 1522 -856 1778 -856 
Q 2344 -856 2625 -561 
Q 2906 -266 2906 331 
L 2906 616 
Q 2728 306 2450 153 
Q 2172 0 1784 0 
Q 1141 0 747 490 
Q 353 981 353 1791 
Q 353 2603 747 3093 
Q 1141 3584 1784 3584 
Q 2172 3584 2450 3431 
Q 2728 3278 2906 2969 
L 2906 3500 
L 3481 3500 
L 3481 434 
z
" transform="scale(0.015625)"/>
      </defs>
      <use xlink:href="#DejaVuSans-42"/>
      <use xlink:href="#DejaVuSans-4f" x="66.853516"/>
      <use xlink:href="#DejaVuSans-4c" x="145.564453"/>
      <use xlink:href="#DejaVuSans-44" x="201.277344"/>
      <use xlink:href="#DejaVuSans-20" x="278.279297"/>
      <use xlink:href="#DejaVuSans-25" x="310.066406"/>
      <use xlink:href="#DejaVuSans-20" x="405.085938"/>
      <use xlink:href="#DejaVuSans-63" x="436.873047"/>
      <use xlink:href="#DejaVuSans-68" x="491.853516"/>
      <use xlink:href="#DejaVuSans-61" x="555.232422"/>
      <use xlink:href="#DejaVuSans-6e" x="616.511719"/>
      <use xlink:href="#DejaVuSans-67" x="679.890625"/>
      <use xlink:href="#DejaVuSans-65" x="743.367188"/>
     </g>
    </g>
   </g>
   <g id="line2d_10">
    <path d="M 65.454545 334.452512 
L 70.12987 334.483978 
L 74.805195 334.507479 
L 79.480519 334.637623 
L 84.155844 334.751688 
L 88.831169 334.703417 
L 93.506494 334.690463 
L 98.181818 334.856664 
L 102.857143 335.014559 
L 107.532468 335.162275 
L 112.207792 335.464289 
L 116.883117 335.994124 
L 121.558442 336.564883 
L 126.233766 337.168345 
L 130.909091 337.813399 
L 135.584416 338.403704 
L 140.25974 339.1102 
L 144.935065 339.972741 
L 149.61039 340.989371 
L 154.285714 342.067715 
L 158.961039 343.115201 
L 163.636364 344.194735 
L 168.311688 345.384233 
L 172.987013 346.638193 
L 177.662338 347.7914 
L 182.337662 348.937651 
L 187.012987 350.059208 
L 191.688312 351.072661 
L 196.363636 351.973545 
L 201.038961 352.845952 
L 205.714286 353.676078 
L 210.38961 354.480855 
L 215.064935 355.19196 
L 219.74026 355.761154 
L 224.415584 356.292858 
L 229.090909 356.76075 
L 233.766234 357.195739 
L 238.441558 357.582748 
L 243.116883 357.953496 
L 247.792208 358.30866 
L 252.467532 358.643193 
L 257.142857 358.940826 
L 261.818182 359.124853 
L 266.493506 359.238821 
L 271.168831 359.382599 
L 275.844156 359.565454 
L 280.519481 359.721333 
L 285.194805 359.831994 
L 289.87013 359.862628 
L 294.545455 359.870352 
" clip-path="url(#pee7c3134d5)" style="fill: none; stroke: #ff7f50; stroke-width: 1.5; stroke-linecap: square"/>
   </g>
   <g id="line2d_11">
    <path d="M 65.454545 330.742809 
L 70.12987 330.742809 
L 74.805195 330.742809 
L 79.480519 331.49211 
L 84.155844 332.3299 
L 88.831169 332.709674 
L 93.506494 333.315351 
L 98.181818 334.127453 
L 102.857143 335.017555 
L 107.532468 334.896738 
L 112.207792 335.432223 
L 116.883117 336.071939 
L 121.558442 337.440254 
L 126.233766 338.738665 
L 130.909091 339.720901 
L 135.584416 340.131199 
L 140.25974 340.454664 
L 144.935065 341.132794 
L 149.61039 342.035503 
L 154.285714 343.118571 
L 158.961039 344.285898 
L 163.636364 345.17497 
L 168.311688 345.983587 
L 172.987013 347.196612 
L 177.662338 348.475913 
L 182.337662 349.530204 
L 187.012987 350.863597 
L 191.688312 351.986906 
L 196.363636 353.28143 
L 201.038961 354.713593 
L 205.714286 356.066434 
L 210.38961 356.97287 
L 215.064935 357.731454 
L 219.74026 357.875347 
L 224.415584 358.104592 
L 229.090909 358.427477 
L 233.766234 358.477595 
L 238.441558 358.911116 
L 243.116883 359.36685 
L 247.792208 359.819713 
L 252.467532 360.682035 
L 257.142857 361.736658 
L 261.818182 362.250614 
L 266.493506 362.778305 
L 271.168831 362.958467 
L 275.844156 363.49084 
L 280.519481 364.451341 
L 285.194805 365.137437 
L 289.87013 365.380855 
L 294.545455 365.093807 
" clip-path="url(#pee7c3134d5)" style="fill: none; stroke: #ff7f50; stroke-opacity: 0.2; stroke-width: 1.5; stroke-linecap: square"/>
   </g>
   <g id="line2d_12">
    <path d="M 65.454545 336.954982 
L 70.12987 336.972458 
L 74.805195 337.073874 
L 79.480519 337.114849 
L 84.155844 337.264283 
L 88.831169 337.512974 
L 93.506494 337.716567 
L 98.181818 337.859882 
L 102.857143 338.102222 
L 107.532468 338.450066 
L 112.207792 338.788962 
L 116.883117 339.080383 
L 121.558442 339.47173 
L 126.233766 340.010927 
L 130.909091 340.437349 
L 135.584416 340.770765 
L 140.25974 340.978204 
L 144.935065 341.295094 
L 149.61039 341.69545 
L 154.285714 341.948135 
L 158.961039 341.965666 
L 163.636364 341.982417 
L 168.311688 342.060033 
L 172.987013 342.313965 
L 177.662338 342.450654 
L 182.337662 342.573106 
L 187.012987 342.900544 
L 191.688312 343.297736 
L 196.363636 343.724461 
L 201.038961 344.316086 
L 205.714286 345.10254 
L 210.38961 345.774273 
L 215.064935 346.471252 
L 219.74026 347.010948 
L 224.415584 347.359397 
L 229.090909 347.420709 
L 233.766234 347.703103 
L 238.441558 348.095324 
L 243.116883 348.503819 
L 247.792208 348.876521 
L 252.467532 349.095175 
L 257.142857 349.014995 
L 261.818182 348.832111 
L 266.493506 348.804133 
L 271.168831 348.865883 
L 275.844156 348.960218 
L 280.519481 349.185987 
L 285.194805 349.348302 
L 289.87013 349.466056 
L 294.545455 349.592415 
" clip-path="url(#pee7c3134d5)" style="fill: none; stroke: #ff7f50; stroke-opacity: 0.2; stroke-width: 1.5; stroke-linecap: square"/>
   </g>
   <g id="line2d_13">
    <path d="M 65.454545 338.987304 
L 70.12987 338.987304 
L 74.805195 338.954877 
L 79.480519 339.029451 
L 84.155844 339.158014 
L 88.831169 339.172131 
L 93.506494 339.184108 
L 98.181818 339.21535 
L 102.857143 339.060989 
L 107.532468 338.958286 
L 112.207792 338.962674 
L 116.883117 339.269848 
L 121.558442 339.400772 
L 126.233766 339.599164 
L 130.909091 339.759179 
L 135.584416 340.001558 
L 140.25974 340.377841 
L 144.935065 340.973502 
L 149.61039 341.714801 
L 154.285714 342.412607 
L 158.961039 343.076884 
L 163.636364 343.819791 
L 168.311688 344.754575 
L 172.987013 345.647921 
L 177.662338 346.53281 
L 182.337662 347.426629 
L 187.012987 348.296252 
L 191.688312 348.968437 
L 196.363636 349.417891 
L 201.038961 349.908536 
L 205.714286 350.29199 
L 210.38961 350.702994 
L 215.064935 351.094839 
L 219.74026 351.457484 
L 224.415584 351.733808 
L 229.090909 352.059974 
L 233.766234 352.27929 
L 238.441558 352.453685 
L 243.116883 352.542445 
L 247.792208 352.636743 
L 252.467532 352.678862 
L 257.142857 352.752808 
L 261.818182 352.887332 
L 266.493506 352.904921 
L 271.168831 352.923596 
L 275.844156 352.954371 
L 280.519481 352.90496 
L 285.194805 352.893099 
L 289.87013 352.811854 
L 294.545455 352.781371 
" clip-path="url(#pee7c3134d5)" style="fill: none; stroke: #ff7f50; stroke-opacity: 0.2; stroke-width: 1.5; stroke-linecap: square"/>
   </g>
   <g id="line2d_14">
    <path d="M 65.454545 328.553614 
L 70.12987 328.621043 
L 74.805195 328.667739 
L 79.480519 329.118773 
L 84.155844 330.032955 
L 88.831169 330.465797 
L 93.506494 330.764372 
L 98.181818 331.453472 
L 102.857143 332.108404 
L 107.532468 332.653704 
L 112.207792 333.336614 
L 116.883117 334.380615 
L 121.558442 335.293335 
L 126.233766 336.051966 
L 130.909091 336.776001 
L 135.584416 337.675015 
L 140.25974 338.621216 
L 144.935065 339.68731 
L 149.61039 340.804839 
L 154.285714 341.82384 
L 158.961039 342.982334 
L 163.636364 344.196292 
L 168.311688 345.482713 
L 172.987013 346.747777 
L 177.662338 347.980273 
L 182.337662 349.11659 
L 187.012987 350.255647 
L 191.688312 351.623947 
L 196.363636 352.887467 
L 201.038961 354.057282 
L 205.714286 355.054545 
L 210.38961 355.838429 
L 215.064935 356.500353 
L 219.74026 357.041374 
L 224.415584 357.710602 
L 229.090909 358.192873 
L 233.766234 358.688816 
L 238.441558 359.286872 
L 243.116883 359.741752 
L 247.792208 360.190393 
L 252.467532 360.53312 
L 257.142857 360.846212 
L 261.818182 361.034516 
L 266.493506 361.054315 
L 271.168831 360.951871 
L 275.844156 360.33385 
L 280.519481 359.109198 
L 285.194805 358.399763 
L 289.87013 358.037039 
L 294.545455 357.963468 
" clip-path="url(#pee7c3134d5)" style="fill: none; stroke: #ff7f50; stroke-opacity: 0.2; stroke-width: 1.5; stroke-linecap: square"/>
   </g>
   <g id="line2d_15">
    <path d="M 65.454545 329.530936 
L 70.12987 329.530936 
L 74.805195 329.586379 
L 79.480519 329.714456 
L 84.155844 329.870125 
L 88.831169 330.099386 
L 93.506494 330.509668 
L 98.181818 331.223067 
L 102.857143 331.798155 
L 107.532468 332.362516 
L 112.207792 333.199446 
L 116.883117 333.842801 
L 121.558442 334.59651 
L 126.233766 335.431031 
L 130.909091 336.456627 
L 135.584416 337.658671 
L 140.25974 339.029562 
L 144.935065 340.494814 
L 149.61039 342.158416 
L 154.285714 343.826899 
L 158.961039 345.574803 
L 163.636364 347.11013 
L 168.311688 348.701128 
L 172.987013 350.351363 
L 177.662338 351.668501 
L 182.337662 353.140557 
L 187.012987 354.631708 
L 191.688312 356.041485 
L 196.363636 357.224239 
L 201.038961 358.267988 
L 205.714286 359.210165 
L 210.38961 360.020384 
L 215.064935 360.678311 
L 219.74026 361.038508 
L 224.415584 361.548311 
L 229.090909 362.165394 
L 233.766234 362.808852 
L 238.441558 363.315435 
L 243.116883 363.842746 
L 247.792208 364.250959 
L 252.467532 364.646361 
L 257.142857 364.865604 
L 261.818182 365.090163 
L 266.493506 365.21164 
L 271.168831 365.494701 
L 275.844156 365.941785 
L 280.519481 366.104941 
L 285.194805 366.159306 
L 289.87013 366.26736 
L 294.545455 366.495154 
" clip-path="url(#pee7c3134d5)" style="fill: none; stroke: #ff7f50; stroke-opacity: 0.2; stroke-width: 1.5; stroke-linecap: square"/>
   </g>
   <g id="line2d_16">
    <path d="M 65.454545 341.64208 
L 70.12987 341.643825 
L 74.805195 341.595834 
L 79.480519 341.075569 
L 84.155844 340.385563 
L 88.831169 340.138968 
L 93.506494 340.054133 
L 98.181818 339.874817 
L 102.857143 339.746269 
L 107.532468 339.791854 
L 112.207792 340.014616 
L 116.883117 340.09631 
L 121.558442 340.066192 
L 126.233766 340.103555 
L 130.909091 340.189354 
L 135.584416 340.19232 
L 140.25974 340.511931 
L 144.935065 341.165778 
L 149.61039 342.165312 
L 154.285714 343.183226 
L 158.961039 344.121251 
L 163.636364 345.183982 
L 168.311688 346.547778 
L 172.987013 347.931115 
L 177.662338 349.298832 
L 182.337662 350.714839 
L 187.012987 351.96456 
L 191.688312 352.874468 
L 196.363636 353.56311 
L 201.038961 354.070737 
L 205.714286 354.281208 
L 210.38961 354.779332 
L 215.064935 355.426885 
L 219.74026 356.162612 
L 224.415584 357.083198 
L 229.090909 357.782983 
L 233.766234 358.451656 
L 238.441558 358.925767 
L 243.116883 359.082158 
L 247.792208 358.842369 
L 252.467532 358.540381 
L 257.142857 358.404246 
L 261.818182 358.084108 
L 266.493506 357.723119 
L 271.168831 357.42011 
L 275.844156 357.230788 
L 280.519481 357.195348 
L 285.194805 356.973255 
L 289.87013 356.527866 
L 294.545455 356.056709 
" clip-path="url(#pee7c3134d5)" style="fill: none; stroke: #ff7f50; stroke-opacity: 0.2; stroke-width: 1.5; stroke-linecap: square"/>
   </g>
   <g id="line2d_17">
    <path d="M 65.454545 330.38096 
L 70.12987 330.396747 
L 74.805195 330.422611 
L 79.480519 330.402823 
L 84.155844 330.362806 
L 88.831169 330.21986 
L 93.506494 330.444955 
L 98.181818 330.534894 
L 102.857143 330.806053 
L 107.532468 331.204173 
L 112.207792 331.861992 
L 116.883117 333.450939 
L 121.558442 334.903439 
L 126.233766 336.370404 
L 130.909091 337.658165 
L 135.584416 338.302662 
L 140.25974 339.023679 
L 144.935065 340.075778 
L 149.61039 341.108903 
L 154.285714 342.018342 
L 158.961039 342.524065 
L 163.636364 343.220922 
L 168.311688 344.203523 
L 172.987013 345.095265 
L 177.662338 345.873977 
L 182.337662 346.853188 
L 187.012987 347.95121 
L 191.688312 348.927759 
L 196.363636 349.616335 
L 201.038961 350.209183 
L 205.714286 351.013275 
L 210.38961 351.927901 
L 215.064935 352.688736 
L 219.74026 353.434946 
L 224.415584 353.915367 
L 229.090909 354.336836 
L 233.766234 354.517319 
L 238.441558 354.710708 
L 243.116883 354.859647 
L 247.792208 355.02398 
L 252.467532 354.96132 
L 257.142857 355.150269 
L 261.818182 355.513373 
L 266.493506 355.800546 
L 271.168831 356.161048 
L 275.844156 356.845098 
L 280.519481 357.805186 
L 285.194805 358.483625 
L 289.87013 359.204797 
L 294.545455 360.244956 
" clip-path="url(#pee7c3134d5)" style="fill: none; stroke: #ff7f50; stroke-opacity: 0.2; stroke-width: 1.5; stroke-linecap: square"/>
   </g>
   <g id="line2d_18">
    <path d="M 65.454545 338.056231 
L 70.12987 338.11816 
L 74.805195 338.300121 
L 79.480519 338.582812 
L 84.155844 338.786499 
L 88.831169 338.423674 
L 93.506494 337.999215 
L 98.181818 337.638474 
L 102.857143 337.323525 
L 107.532468 337.065226 
L 112.207792 336.924523 
L 116.883117 336.908578 
L 121.558442 337.123052 
L 126.233766 337.409995 
L 130.909091 337.856242 
L 135.584416 338.518902 
L 140.25974 339.291246 
L 144.935065 340.288658 
L 149.61039 341.429742 
L 154.285714 342.907733 
L 158.961039 344.506977 
L 163.636364 346.269248 
L 168.311688 348.064563 
L 172.987013 349.636868 
L 177.662338 351.089394 
L 182.337662 352.360609 
L 187.012987 353.431675 
L 191.688312 354.386718 
L 196.363636 355.264401 
L 201.038961 356.247985 
L 205.714286 357.243489 
L 210.38961 358.194399 
L 215.064935 358.811863 
L 219.74026 359.246403 
L 224.415584 359.576377 
L 229.090909 359.801187 
L 233.766234 359.981916 
L 238.441558 360.284925 
L 243.116883 360.722786 
L 247.792208 361.136407 
L 252.467532 361.541095 
L 257.142857 361.893505 
L 261.818182 362.200206 
L 266.493506 362.534704 
L 271.168831 362.764299 
L 275.844156 362.846558 
L 280.519481 362.83118 
L 285.194805 362.858246 
L 289.87013 362.761023 
L 294.545455 362.451651 
" clip-path="url(#pee7c3134d5)" style="fill: none; stroke: #ff7f50; stroke-opacity: 0.2; stroke-width: 1.5; stroke-linecap: square"/>
   </g>
   <g id="line2d_19">
    <path d="M 65.454545 335.185979 
L 70.12987 335.192336 
L 74.805195 335.187248 
L 79.480519 335.38251 
L 84.155844 335.180937 
L 88.831169 334.709239 
L 93.506494 334.581608 
L 98.181818 334.496678 
L 102.857143 334.574917 
L 107.532468 334.830387 
L 112.207792 335.028706 
L 116.883117 335.485446 
L 121.558442 335.736067 
L 126.233766 336.052743 
L 130.909091 336.661659 
L 135.584416 337.339065 
L 140.25974 338.114377 
L 144.935065 339.162675 
L 149.61039 340.437905 
L 154.285714 341.739739 
L 158.961039 342.924796 
L 163.636364 344.184571 
L 168.311688 345.62486 
L 172.987013 346.984926 
L 177.662338 348.12844 
L 182.337662 349.329007 
L 187.012987 350.447693 
L 191.688312 351.638317 
L 196.363636 352.787725 
L 201.038961 353.849924 
L 205.714286 354.847996 
L 210.38961 355.857026 
L 215.064935 356.683737 
L 219.74026 357.547425 
L 224.415584 358.470135 
L 229.090909 359.397507 
L 233.766234 360.106709 
L 238.441558 360.700287 
L 243.116883 361.19248 
L 247.792208 361.496235 
L 252.467532 361.754919 
L 257.142857 362.043037 
L 261.818182 362.211042 
L 266.493506 362.41632 
L 271.168831 362.627437 
L 275.844156 362.826513 
L 280.519481 362.890857 
L 285.194805 363.037654 
L 289.87013 363.440256 
L 294.545455 363.637316 
" clip-path="url(#pee7c3134d5)" style="fill: none; stroke: #ff7f50; stroke-opacity: 0.2; stroke-width: 1.5; stroke-linecap: square"/>
   </g>
   <g id="line2d_20">
    <path d="M 65.454545 334.007544 
L 70.12987 334.1883 
L 74.805195 334.477665 
L 79.480519 334.42821 
L 84.155844 334.23609 
L 88.831169 334.063235 
L 93.506494 333.957566 
L 98.181818 334.00372 
L 102.857143 334.048432 
L 107.532468 334.408079 
L 112.207792 334.931776 
L 116.883117 335.621478 
L 121.558442 336.495015 
L 126.233766 337.323131 
L 130.909091 338.013824 
L 135.584416 338.610677 
L 140.25974 339.368242 
L 144.935065 340.172649 
L 149.61039 341.183462 
L 154.285714 342.36149 
L 158.961039 343.577314 
L 163.636364 344.76396 
L 168.311688 346.023413 
L 172.987013 347.374117 
L 177.662338 348.682737 
L 182.337662 350.041736 
L 187.012987 351.291272 
L 191.688312 352.423743 
L 196.363636 353.315924 
L 201.038961 354.126488 
L 205.714286 354.773771 
L 210.38961 355.214963 
L 215.064935 355.588636 
L 219.74026 355.962986 
L 224.415584 356.396369 
L 229.090909 356.766959 
L 233.766234 357.249128 
L 238.441558 357.53291 
L 243.116883 357.841999 
L 247.792208 358.269923 
L 252.467532 358.713776 
L 257.142857 359.158002 
L 261.818182 359.596973 
L 266.493506 359.824105 
L 271.168831 360.019129 
L 275.844156 360.179463 
L 280.519481 360.283043 
L 285.194805 360.255385 
L 289.87013 360.234291 
L 294.545455 360.190418 
" clip-path="url(#pee7c3134d5)" style="fill: none; stroke: #ff7f50; stroke-opacity: 0.2; stroke-width: 1.5; stroke-linecap: square"/>
   </g>
   <g id="line2d_21">
    <path d="M 65.454545 335.222449 
L 70.12987 335.486857 
L 74.805195 335.729924 
L 79.480519 335.985323 
L 84.155844 336.20354 
L 88.831169 335.771373 
L 93.506494 334.910299 
L 98.181818 334.883494 
L 102.857143 334.876604 
L 107.532468 334.982572 
L 112.207792 335.047538 
L 116.883117 335.244106 
L 121.558442 335.267638 
L 126.233766 335.306756 
L 130.909091 335.742832 
L 135.584416 336.149175 
L 140.25974 336.895818 
L 144.935065 337.631096 
L 149.61039 338.648158 
L 154.285714 339.899828 
L 158.961039 341.062893 
L 163.636364 342.619887 
L 168.311688 344.161075 
L 172.987013 345.77748 
L 177.662338 347.342244 
L 182.337662 348.679686 
L 187.012987 349.68463 
L 191.688312 350.366171 
L 196.363636 351.091616 
L 201.038961 351.663062 
L 205.714286 352.124185 
L 210.38961 352.805938 
L 215.064935 353.60755 
L 219.74026 354.051304 
L 224.415584 354.153527 
L 229.090909 354.408199 
L 233.766234 354.654945 
L 238.441558 354.652246 
L 243.116883 354.687008 
L 247.792208 354.936138 
L 252.467532 355.046753 
L 257.142857 354.794222 
L 261.818182 354.404437 
L 266.493506 354.022457 
L 271.168831 353.823737 
L 275.844156 353.801757 
L 280.519481 353.879892 
L 285.194805 354.079414 
L 289.87013 354.058543 
L 294.545455 353.875421 
" clip-path="url(#pee7c3134d5)" style="fill: none; stroke: #ff7f50; stroke-opacity: 0.2; stroke-width: 1.5; stroke-linecap: square"/>
   </g>
   <g id="line2d_22">
    <path d="M 65.454545 334.165259 
L 70.12987 333.926955 
L 74.805195 333.350669 
L 79.480519 333.324583 
L 84.155844 333.209546 
L 88.831169 333.154694 
L 93.506494 332.847711 
L 98.181818 332.968664 
L 102.857143 332.711582 
L 107.532468 332.343702 
L 112.207792 332.042395 
L 116.883117 332.477048 
L 121.558442 332.984595 
L 126.233766 333.6218 
L 130.909091 334.488657 
L 135.584416 335.494442 
L 140.25974 336.655621 
L 144.935065 337.592747 
L 149.61039 338.489958 
L 154.285714 339.572164 
L 158.961039 340.779531 
L 163.636364 341.81065 
L 168.311688 343.003553 
L 172.987013 344.600901 
L 177.662338 345.973028 
L 182.337662 347.485668 
L 187.012987 348.991705 
L 191.688312 350.33625 
L 196.363636 351.507946 
L 201.038961 352.720556 
L 205.714286 354.103338 
L 210.38961 355.681751 
L 215.064935 357.019904 
L 219.74026 358.30451 
L 224.415584 359.462616 
L 229.090909 360.368901 
L 233.766234 361.429541 
L 238.441558 362.1237 
L 243.116883 363.05826 
L 247.792208 364.224544 
L 252.467532 365.524522 
L 257.142857 366.630356 
L 261.818182 367.393363 
L 266.493506 367.791284 
L 271.168831 368.580913 
L 275.844156 369.3742 
L 280.519481 370.014066 
L 285.194805 370.358436 
L 289.87013 370.161594 
L 294.545455 370.06154 
" clip-path="url(#pee7c3134d5)" style="fill: none; stroke: #ff7f50; stroke-opacity: 0.2; stroke-width: 1.5; stroke-linecap: square"/>
   </g>
   <g id="line2d_23">
    <path d="M 111.272727 382.628571 
L 111.272727 308.571429 
" clip-path="url(#pee7c3134d5)" style="fill: none; stroke-dasharray: 5.55,2.4; stroke-dashoffset: 0; stroke: #000000; stroke-width: 1.5"/>
   </g>
   <g id="line2d_24">
    <path d="M 65.454545 345.6 
L 294.545455 345.6 
" clip-path="url(#pee7c3134d5)" style="fill: none; stroke-dasharray: 5.55,2.4; stroke-dashoffset: 0; stroke: #000000; stroke-width: 1.5"/>
   </g>
   <g id="patch_3">
    <path d="M 50 388.8 
L 50 302.4 
" style="fill: none; stroke: #000000; stroke-width: 0.8; stroke-linejoin: miter; stroke-linecap: square"/>
   </g>
   <g id="patch_4">
    <path d="M 54 392.8 
L 306 392.8 
" style="fill: none; stroke: #000000; stroke-width: 0.8; stroke-linejoin: miter; stroke-linecap: square"/>
   </g>
   <g id="text_12">
    <!-- all depths -->
    <g transform="translate(150.492188 296.4) scale(0.12 -0.12)">
     <defs>
      <path id="DejaVuSans-70" d="M 1159 525 
L 1159 -1331 
L 581 -1331 
L 581 3500 
L 1159 3500 
L 1159 2969 
Q 1341 3281 1617 3432 
Q 1894 3584 2278 3584 
Q 2916 3584 3314 3078 
Q 3713 2572 3713 1747 
Q 3713 922 3314 415 
Q 2916 -91 2278 -91 
Q 1894 -91 1617 61 
Q 1341 213 1159 525 
z
M 3116 1747 
Q 3116 2381 2855 2742 
Q 2594 3103 2138 3103 
Q 1681 3103 1420 2742 
Q 1159 2381 1159 1747 
Q 1159 1113 1420 752 
Q 1681 391 2138 391 
Q 2594 391 2855 752 
Q 3116 1113 3116 1747 
z
" transform="scale(0.015625)"/>
     </defs>
     <use xlink:href="#DejaVuSans-61"/>
     <use xlink:href="#DejaVuSans-6c" x="61.279297"/>
     <use xlink:href="#DejaVuSans-6c" x="89.0625"/>
     <use xlink:href="#DejaVuSans-20" x="116.845703"/>
     <use xlink:href="#DejaVuSans-64" x="148.632812"/>
     <use xlink:href="#DejaVuSans-65" x="212.109375"/>
     <use xlink:href="#DejaVuSans-70" x="273.632812"/>
     <use xlink:href="#DejaVuSans-74" x="337.109375"/>
     <use xlink:href="#DejaVuSans-68" x="376.318359"/>
     <use xlink:href="#DejaVuSans-73" x="439.697266"/>
    </g>
   </g>
   <g id="legend_1">
    <g id="patch_5">
     <path d="M 192.401563 325.35625 
L 299 325.35625 
Q 301 325.35625 301 323.35625 
L 301 309.4 
Q 301 307.4 299 307.4 
L 192.401563 307.4 
Q 190.401563 307.4 190.401563 309.4 
L 190.401563 323.35625 
Q 190.401563 325.35625 192.401563 325.35625 
z
" style="fill: #ffffff; opacity: 0.8; stroke: #cccccc; stroke-linejoin: miter"/>
    </g>
    <g id="line2d_25">
     <path d="M 194.401563 315.498437 
L 204.401563 315.498437 
L 214.401563 315.498437 
" style="fill: none; stroke: #ff7f50; stroke-width: 1.5; stroke-linecap: square"/>
    </g>
    <g id="text_13">
     <!-- ctr-sur_unwarp -->
     <g transform="translate(222.401563 318.998437) scale(0.1 -0.1)">
      <defs>
       <path id="DejaVuSans-2d" d="M 313 2009 
L 1997 2009 
L 1997 1497 
L 313 1497 
L 313 2009 
z
" transform="scale(0.015625)"/>
       <path id="DejaVuSans-75" d="M 544 1381 
L 544 3500 
L 1119 3500 
L 1119 1403 
Q 1119 906 1312 657 
Q 1506 409 1894 409 
Q 2359 409 2629 706 
Q 2900 1003 2900 1516 
L 2900 3500 
L 3475 3500 
L 3475 0 
L 2900 0 
L 2900 538 
Q 2691 219 2414 64 
Q 2138 -91 1772 -91 
Q 1169 -91 856 284 
Q 544 659 544 1381 
z
M 1991 3584 
L 1991 3584 
z
" transform="scale(0.015625)"/>
       <path id="DejaVuSans-5f" d="M 3263 -1063 
L 3263 -1509 
L -63 -1509 
L -63 -1063 
L 3263 -1063 
z
" transform="scale(0.015625)"/>
       <path id="DejaVuSans-77" d="M 269 3500 
L 844 3500 
L 1563 769 
L 2278 3500 
L 2956 3500 
L 3675 769 
L 4391 3500 
L 4966 3500 
L 4050 0 
L 3372 0 
L 2619 2869 
L 1863 0 
L 1184 0 
L 269 3500 
z
" transform="scale(0.015625)"/>
      </defs>
      <use xlink:href="#DejaVuSans-63"/>
      <use xlink:href="#DejaVuSans-74" x="54.980469"/>
      <use xlink:href="#DejaVuSans-72" x="94.189453"/>
      <use xlink:href="#DejaVuSans-2d" x="128.927734"/>
      <use xlink:href="#DejaVuSans-73" x="165.011719"/>
      <use xlink:href="#DejaVuSans-75" x="217.111328"/>
      <use xlink:href="#DejaVuSans-72" x="280.490234"/>
      <use xlink:href="#DejaVuSans-5f" x="321.603516"/>
      <use xlink:href="#DejaVuSans-75" x="371.603516"/>
      <use xlink:href="#DejaVuSans-6e" x="434.982422"/>
      <use xlink:href="#DejaVuSans-77" x="498.361328"/>
      <use xlink:href="#DejaVuSans-61" x="580.148438"/>
      <use xlink:href="#DejaVuSans-72" x="641.427734"/>
      <use xlink:href="#DejaVuSans-70" x="682.541016"/>
     </g>
    </g>
   </g>
  </g>
 </g>
 <defs>
  <clipPath id="pee7c3134d5">
   <rect x="54" y="302.4" width="252" height="86.4"/>
  </clipPath>
 </defs>
</svg>
