<?xml version="1.0" encoding="utf-8" standalone="no"?>
<!DOCTYPE svg PUBLIC "-//W3C//DTD SVG 1.1//EN"
  "http://www.w3.org/Graphics/SVG/1.1/DTD/svg11.dtd">
<svg xmlns:xlink="http://www.w3.org/1999/xlink" width="432pt" height="288pt" viewBox="0 0 432 288" xmlns="http://www.w3.org/2000/svg" version="1.1">
 <metadata>
  <rdf:RDF xmlns:dc="http://purl.org/dc/elements/1.1/" xmlns:cc="http://creativecommons.org/ns#" xmlns:rdf="http://www.w3.org/1999/02/22-rdf-syntax-ns#">
   <cc:Work>
    <dc:type rdf:resource="http://purl.org/dc/dcmitype/StillImage"/>
    <dc:date>2025-10-31T15:55:07.824570</dc:date>
    <dc:format>image/svg+xml</dc:format>
    <dc:creator>
     <cc:Agent>
      <dc:title>Matplotlib v3.8.0, https://matplotlib.org/</dc:title>
     </cc:Agent>
    </dc:creator>
   </cc:Work>
  </rdf:RDF>
 </metadata>
 <defs>
  <style type="text/css">*{stroke-linejoin: round; stroke-linecap: butt}</style>
 </defs>
 <g id="figure_1">
  <g id="patch_1">
   <path d="M 0 288 
L 432 288 
L 432 0 
L 0 0 
z
" style="fill: #ffffff"/>
  </g>
  <g id="axes_1">
   <g id="patch_2">
    <path d="M 302.4 216 
L 410.4 216 
L 410.4 14.4 
L 302.4 14.4 
z
" style="fill: #ffffff"/>
   </g>
   <g id="PolyCollection_1">
    <defs>
     <path id="m2b1e358270" d="M 333.612764 -75.876923 
L 330.08332 -75.876923 
L 332.192331 -108.184615 
L 334.811802 -140.492308 
L 333.505007 -172.8 
L 330.777696 -205.107692 
L 333.186033 -237.415385 
L 335.419141 -269.723077 
L 338.61997 -269.723077 
L 338.61997 -269.723077 
L 338.544598 -237.415385 
L 335.859773 -205.107692 
L 336.281868 -172.8 
L 338.397708 -140.492308 
L 334.520676 -108.184615 
L 333.612764 -75.876923 
z
"/>
    </defs>
    <g clip-path="url(#p9d6e39636b)">
     <use xlink:href="#m2b1e358270" x="0" y="288" style="fill: #ff00ff; fill-opacity: 0.4"/>
    </g>
   </g>
   <g id="matplotlib.axis_1">
    <g id="xtick_1">
     <g id="line2d_1">
      <defs>
       <path id="m7fe196d5a5" d="M 0 0 
L 0 3.5 
" style="stroke: #000000; stroke-width: 0.8"/>
      </defs>
      <g>
       <use xlink:href="#m7fe196d5a5" x="327.323077" y="220" style="stroke: #000000; stroke-width: 0.8"/>
      </g>
     </g>
     <g id="text_1">
      <!-- 0.0 -->
      <g transform="translate(320.166671 233.838594) scale(0.09 -0.09)">
       <defs>
        <path id="DejaVuSans-30" d="M 2034 4250 
Q 1547 4250 1301 3770 
Q 1056 3291 1056 2328 
Q 1056 1369 1301 889 
Q 1547 409 2034 409 
Q 2525 409 2770 889 
Q 3016 1369 3016 2328 
Q 3016 3291 2770 3770 
Q 2525 4250 2034 4250 
z
M 2034 4750 
Q 2819 4750 3233 4129 
Q 3647 3509 3647 2328 
Q 3647 1150 3233 529 
Q 2819 -91 2034 -91 
Q 1250 -91 836 529 
Q 422 1150 422 2328 
Q 422 3509 836 4129 
Q 1250 4750 2034 4750 
z
" transform="scale(0.015625)"/>
        <path id="DejaVuSans-2e" d="M 684 794 
L 1344 794 
L 1344 0 
L 684 0 
L 684 794 
z
" transform="scale(0.015625)"/>
       </defs>
       <use xlink:href="#DejaVuSans-30"/>
       <use xlink:href="#DejaVuSans-2e" x="63.623047"/>
       <use xlink:href="#DejaVuSans-30" x="95.410156"/>
      </g>
     </g>
    </g>
    <g id="xtick_2">
     <g id="line2d_2">
      <g>
       <use xlink:href="#m7fe196d5a5" x="368.861538" y="220" style="stroke: #000000; stroke-width: 0.8"/>
      </g>
     </g>
     <g id="text_2">
      <!-- 2.5 -->
      <g transform="translate(361.705132 233.838594) scale(0.09 -0.09)">
       <defs>
        <path id="DejaVuSans-32" d="M 1228 531 
L 3431 531 
L 3431 0 
L 469 0 
L 469 531 
Q 828 903 1448 1529 
Q 2069 2156 2228 2338 
Q 2531 2678 2651 2914 
Q 2772 3150 2772 3378 
Q 2772 3750 2511 3984 
Q 2250 4219 1831 4219 
Q 1534 4219 1204 4116 
Q 875 4013 500 3803 
L 500 4441 
Q 881 4594 1212 4672 
Q 1544 4750 1819 4750 
Q 2544 4750 2975 4387 
Q 3406 4025 3406 3419 
Q 3406 3131 3298 2873 
Q 3191 2616 2906 2266 
Q 2828 2175 2409 1742 
Q 1991 1309 1228 531 
z
" transform="scale(0.015625)"/>
        <path id="DejaVuSans-35" d="M 691 4666 
L 3169 4666 
L 3169 4134 
L 1269 4134 
L 1269 2991 
Q 1406 3038 1543 3061 
Q 1681 3084 1819 3084 
Q 2600 3084 3056 2656 
Q 3513 2228 3513 1497 
Q 3513 744 3044 326 
Q 2575 -91 1722 -91 
Q 1428 -91 1123 -41 
Q 819 9 494 109 
L 494 744 
Q 775 591 1075 516 
Q 1375 441 1709 441 
Q 2250 441 2565 725 
Q 2881 1009 2881 1497 
Q 2881 1984 2565 2268 
Q 2250 2553 1709 2553 
Q 1456 2553 1204 2497 
Q 953 2441 691 2322 
L 691 4666 
z
" transform="scale(0.015625)"/>
       </defs>
       <use xlink:href="#DejaVuSans-32"/>
       <use xlink:href="#DejaVuSans-2e" x="63.623047"/>
       <use xlink:href="#DejaVuSans-35" x="95.410156"/>
      </g>
     </g>
    </g>
    <g id="xtick_3">
     <g id="line2d_3">
      <g>
       <use xlink:href="#m7fe196d5a5" x="410.4" y="220" style="stroke: #000000; stroke-width: 0.8"/>
      </g>
     </g>
     <g id="text_3">
      <!-- 5.0 -->
      <g transform="translate(403.243594 233.838594) scale(0.09 -0.09)">
       <use xlink:href="#DejaVuSans-35"/>
       <use xlink:href="#DejaVuSans-2e" x="63.623047"/>
       <use xlink:href="#DejaVuSans-30" x="95.410156"/>
      </g>
     </g>
    </g>
    <g id="text_4">
     <!-- $\Delta$ BOLD % -->
     <g transform="translate(331 247.30875) scale(0.1 -0.1)">
      <defs>
       <path id="DejaVuSans-394" d="M 2188 4044 
L 906 525 
L 3472 525 
L 2188 4044 
z
M 50 0 
L 1831 4666 
L 2547 4666 
L 4325 0 
L 50 0 
z
" transform="scale(0.015625)"/>
       <path id="DejaVuSans-20" transform="scale(0.015625)"/>
       <path id="DejaVuSans-42" d="M 1259 2228 
L 1259 519 
L 2272 519 
Q 2781 519 3026 730 
Q 3272 941 3272 1375 
Q 3272 1813 3026 2020 
Q 2781 2228 2272 2228 
L 1259 2228 
z
M 1259 4147 
L 1259 2741 
L 2194 2741 
Q 2656 2741 2882 2914 
Q 3109 3088 3109 3444 
Q 3109 3797 2882 3972 
Q 2656 4147 2194 4147 
L 1259 4147 
z
M 628 4666 
L 2241 4666 
Q 2963 4666 3353 4366 
Q 3744 4066 3744 3513 
Q 3744 3084 3544 2831 
Q 3344 2578 2956 2516 
Q 3422 2416 3680 2098 
Q 3938 1781 3938 1306 
Q 3938 681 3513 340 
Q 3088 0 2303 0 
L 628 0 
L 628 4666 
z
" transform="scale(0.015625)"/>
       <path id="DejaVuSans-4f" d="M 2522 4238 
Q 1834 4238 1429 3725 
Q 1025 3213 1025 2328 
Q 1025 1447 1429 934 
Q 1834 422 2522 422 
Q 3209 422 3611 934 
Q 4013 1447 4013 2328 
Q 4013 3213 3611 3725 
Q 3209 4238 2522 4238 
z
M 2522 4750 
Q 3503 4750 4090 4092 
Q 4678 3434 4678 2328 
Q 4678 1225 4090 567 
Q 3503 -91 2522 -91 
Q 1538 -91 948 565 
Q 359 1222 359 2328 
Q 359 3434 948 4092 
Q 1538 4750 2522 4750 
z
" transform="scale(0.015625)"/>
       <path id="DejaVuSans-4c" d="M 628 4666 
L 1259 4666 
L 1259 531 
L 3531 531 
L 3531 0 
L 628 0 
L 628 4666 
z
" transform="scale(0.015625)"/>
       <path id="DejaVuSans-44" d="M 1259 4147 
L 1259 519 
L 2022 519 
Q 2988 519 3436 956 
Q 3884 1394 3884 2338 
Q 3884 3275 3436 3711 
Q 2988 4147 2022 4147 
L 1259 4147 
z
M 628 4666 
L 1925 4666 
Q 3281 4666 3915 4102 
Q 4550 3538 4550 2338 
Q 4550 1131 3912 565 
Q 3275 0 1925 0 
L 628 0 
L 628 4666 
z
" transform="scale(0.015625)"/>
       <path id="DejaVuSans-25" d="M 4653 2053 
Q 4381 2053 4226 1822 
Q 4072 1591 4072 1178 
Q 4072 772 4226 539 
Q 4381 306 4653 306 
Q 4919 306 5073 539 
Q 5228 772 5228 1178 
Q 5228 1588 5073 1820 
Q 4919 2053 4653 2053 
z
M 4653 2450 
Q 5147 2450 5437 2106 
Q 5728 1763 5728 1178 
Q 5728 594 5436 251 
Q 5144 -91 4653 -91 
Q 4153 -91 3862 251 
Q 3572 594 3572 1178 
Q 3572 1766 3864 2108 
Q 4156 2450 4653 2450 
z
M 1428 4353 
Q 1159 4353 1004 4120 
Q 850 3888 850 3481 
Q 850 3069 1003 2837 
Q 1156 2606 1428 2606 
Q 1700 2606 1854 2837 
Q 2009 3069 2009 3481 
Q 2009 3884 1853 4118 
Q 1697 4353 1428 4353 
z
M 4250 4750 
L 4750 4750 
L 1831 -91 
L 1331 -91 
L 4250 4750 
z
M 1428 4750 
Q 1922 4750 2215 4408 
Q 2509 4066 2509 3481 
Q 2509 2891 2217 2550 
Q 1925 2209 1428 2209 
Q 931 2209 642 2551 
Q 353 2894 353 3481 
Q 353 4063 643 4406 
Q 934 4750 1428 4750 
z
" transform="scale(0.015625)"/>
      </defs>
      <use xlink:href="#DejaVuSans-394" transform="translate(0 0.78125)"/>
      <use xlink:href="#DejaVuSans-20" transform="translate(68.408203 0.78125)"/>
      <use xlink:href="#DejaVuSans-42" transform="translate(100.195312 0.78125)"/>
      <use xlink:href="#DejaVuSans-4f" transform="translate(168.798828 0.78125)"/>
      <use xlink:href="#DejaVuSans-4c" transform="translate(247.509766 0.78125)"/>
      <use xlink:href="#DejaVuSans-44" transform="translate(303.222656 0.78125)"/>
      <use xlink:href="#DejaVuSans-20" transform="translate(380.224609 0.78125)"/>
      <use xlink:href="#DejaVuSans-25" transform="translate(412.011719 0.78125)"/>
     </g>
    </g>
   </g>
   <g id="matplotlib.axis_2">
    <g id="ytick_1">
     <g id="line2d_4">
      <defs>
       <path id="m1d4e69c338" d="M 0 0 
L -3.5 0 
" style="stroke: #000000; stroke-width: 0.8"/>
      </defs>
      <g>
       <use xlink:href="#m1d4e69c338" x="298.4" y="212.123077" style="stroke: #000000; stroke-width: 0.8"/>
      </g>
     </g>
    </g>
    <g id="ytick_2">
     <g id="line2d_5">
      <g>
       <use xlink:href="#m1d4e69c338" x="298.4" y="173.353846" style="stroke: #000000; stroke-width: 0.8"/>
      </g>
     </g>
    </g>
    <g id="ytick_3">
     <g id="line2d_6">
      <g>
       <use xlink:href="#m1d4e69c338" x="298.4" y="134.584615" style="stroke: #000000; stroke-width: 0.8"/>
      </g>
     </g>
    </g>
    <g id="ytick_4">
     <g id="line2d_7">
      <g>
       <use xlink:href="#m1d4e69c338" x="298.4" y="95.815385" style="stroke: #000000; stroke-width: 0.8"/>
      </g>
     </g>
    </g>
    <g id="ytick_5">
     <g id="line2d_8">
      <g>
       <use xlink:href="#m1d4e69c338" x="298.4" y="57.046154" style="stroke: #000000; stroke-width: 0.8"/>
      </g>
     </g>
    </g>
    <g id="ytick_6">
     <g id="line2d_9">
      <g>
       <use xlink:href="#m1d4e69c338" x="298.4" y="18.276923" style="stroke: #000000; stroke-width: 0.8"/>
      </g>
     </g>
    </g>
   </g>
   <g id="line2d_10">
    <path d="M 327.323077 212.123077 
L 327.323077 18.276923 
" clip-path="url(#p9d6e39636b)" style="fill: none; stroke-dasharray: 5.55,2.4; stroke-dashoffset: 0; stroke: #808080; stroke-width: 1.5"/>
   </g>
   <g id="line2d_11">
    <path d="M 331.848042 212.123077 
L 333.356503 179.815385 
L 336.604755 147.507692 
L 334.893437 115.2 
L 333.318734 82.892308 
L 335.865316 50.584615 
L 337.019555 18.276923 
" clip-path="url(#p9d6e39636b)" style="fill: none; stroke: #ff00ff; stroke-width: 1.5; stroke-linecap: square"/>
   </g>
   <g id="line2d_12">
    <defs>
     <path id="m04471bdd7c" d="M 2.896197 -1.24666 
L 0.591984 -0.001028 
L 2.896197 1.252826 
L 2.524152 1.881809 
L 0.365879 0.578623 
L 0.365879 3 
L -0.365879 3 
L -0.365879 0.578623 
L -2.524152 1.881809 
L -2.896197 1.252826 
L -0.589928 -0.001028 
L -2.896197 -1.24666 
L -2.524152 -1.881809 
L -0.365879 -0.578623 
L -0.365879 -3 
L 0.365879 -3 
L 0.365879 -0.578623 
L 2.524152 -1.881809 
L 2.896197 -1.24666 
z
" style="stroke: #000000"/>
    </defs>
    <g clip-path="url(#p9d6e39636b)">
     <use xlink:href="#m04471bdd7c" x="336.542301" y="179.815385" style="stroke: #000000"/>
     <use xlink:href="#m04471bdd7c" x="340.61382" y="147.507692" style="stroke: #000000"/>
     <use xlink:href="#m04471bdd7c" x="338.372858" y="115.2" style="stroke: #000000"/>
     <use xlink:href="#m04471bdd7c" x="341.034858" y="50.584615" style="stroke: #000000"/>
     <use xlink:href="#m04471bdd7c" x="340.776528" y="18.276923" style="stroke: #000000"/>
    </g>
   </g>
   <g id="line2d_13">
    <path d="M 329.214804 212.123077 
L 341.053938 179.815385 
L 338.766989 147.507692 
L 326.309924 115.2 
L 322.307796 82.892308 
L 319.118834 50.584615 
L 346.744108 18.276923 
" clip-path="url(#p9d6e39636b)" style="fill: none; stroke: #ff00ff; stroke-opacity: 0.3; stroke-width: 1.5; stroke-linecap: square"/>
   </g>
   <g id="line2d_14">
    <path d="M 338.501995 212.123077 
L 339.90691 179.815385 
L 343.401911 147.507692 
L 337.51834 115.2 
L 341.901931 82.892308 
L 348.305844 50.584615 
L 340.241929 18.276923 
" clip-path="url(#p9d6e39636b)" style="fill: none; stroke: #ff00ff; stroke-opacity: 0.3; stroke-width: 1.5; stroke-linecap: square"/>
   </g>
   <g id="line2d_15">
    <path d="M 332.162811 212.123077 
L 331.94832 179.815385 
L 335.830147 147.507692 
L 334.209165 115.2 
L 328.580344 82.892308 
L 327.628426 50.584615 
L 326.881467 18.276923 
" clip-path="url(#p9d6e39636b)" style="fill: none; stroke: #ff00ff; stroke-opacity: 0.3; stroke-width: 1.5; stroke-linecap: square"/>
   </g>
   <g id="line2d_16">
    <path d="M 326.139316 212.123077 
L 331.738438 179.815385 
L 331.840182 147.507692 
L 335.726448 115.2 
L 339.214265 82.892308 
L 336.910466 50.584615 
L 335.690285 18.276923 
" clip-path="url(#p9d6e39636b)" style="fill: none; stroke: #ff00ff; stroke-opacity: 0.3; stroke-width: 1.5; stroke-linecap: square"/>
   </g>
   <g id="line2d_17">
    <path d="M 319.91702 212.123077 
L 328.003751 179.815385 
L 331.829011 147.507692 
L 332.29943 115.2 
L 328.102381 82.892308 
L 335.682184 50.584615 
L 336.198474 18.276923 
" clip-path="url(#p9d6e39636b)" style="fill: none; stroke: #ff00ff; stroke-opacity: 0.3; stroke-width: 1.5; stroke-linecap: square"/>
   </g>
   <g id="line2d_18">
    <path d="M 329.145507 212.123077 
L 332.32535 179.815385 
L 331.721027 147.507692 
L 330.977415 115.2 
L 333.993566 82.892308 
L 328.103057 50.584615 
L 332.25539 18.276923 
" clip-path="url(#p9d6e39636b)" style="fill: none; stroke: #ff00ff; stroke-opacity: 0.3; stroke-width: 1.5; stroke-linecap: square"/>
   </g>
   <g id="line2d_19">
    <path d="M 338.79769 212.123077 
L 334.736258 179.815385 
L 347.811489 147.507692 
L 343.921923 115.2 
L 351.194009 82.892308 
L 352.790297 50.584615 
L 340.417781 18.276923 
" clip-path="url(#p9d6e39636b)" style="fill: none; stroke: #ff00ff; stroke-opacity: 0.3; stroke-width: 1.5; stroke-linecap: square"/>
   </g>
   <g id="line2d_20">
    <path d="M 341.140133 212.123077 
L 331.375012 179.815385 
L 335.053913 147.507692 
L 341.740946 115.2 
L 340.649803 82.892308 
L 333.322289 50.584615 
L 337.562366 18.276923 
" clip-path="url(#p9d6e39636b)" style="fill: none; stroke: #ff00ff; stroke-opacity: 0.3; stroke-width: 1.5; stroke-linecap: square"/>
   </g>
   <g id="line2d_21">
    <path d="M 330.208654 212.123077 
L 328.321415 179.815385 
L 328.255721 147.507692 
L 333.051 115.2 
L 317.033042 82.892308 
L 331.130251 50.584615 
L 330.548598 18.276923 
" clip-path="url(#p9d6e39636b)" style="fill: none; stroke: #ff00ff; stroke-opacity: 0.3; stroke-width: 1.5; stroke-linecap: square"/>
   </g>
   <g id="line2d_22">
    <path d="M 334.13428 212.123077 
L 337.857109 179.815385 
L 330.353783 147.507692 
L 330.283569 115.2 
L 334.628052 82.892308 
L 337.257185 50.584615 
L 334.984556 18.276923 
" clip-path="url(#p9d6e39636b)" style="fill: none; stroke: #ff00ff; stroke-opacity: 0.3; stroke-width: 1.5; stroke-linecap: square"/>
   </g>
   <g id="line2d_23">
    <path d="M 337.40534 212.123077 
L 331.953046 179.815385 
L 346.820656 147.507692 
L 339.219041 115.2 
L 331.243681 82.892308 
L 347.705515 50.584615 
L 345.855648 18.276923 
" clip-path="url(#p9d6e39636b)" style="fill: none; stroke: #ff00ff; stroke-opacity: 0.3; stroke-width: 1.5; stroke-linecap: square"/>
   </g>
   <g id="line2d_24">
    <path d="M 325.408958 212.123077 
L 331.058495 179.815385 
L 337.572237 147.507692 
L 333.464049 115.2 
L 330.975945 82.892308 
L 332.42944 50.584615 
L 336.854062 18.276923 
" clip-path="url(#p9d6e39636b)" style="fill: none; stroke: #ff00ff; stroke-opacity: 0.3; stroke-width: 1.5; stroke-linecap: square"/>
   </g>
   <g id="patch_3">
    <path d="M 298.4 216 
L 298.4 14.4 
" style="fill: none; stroke: #000000; stroke-width: 0.8; stroke-linejoin: miter; stroke-linecap: square"/>
   </g>
   <g id="patch_4">
    <path d="M 302.4 220 
L 410.4 220 
" style="fill: none; stroke: #000000; stroke-width: 0.8; stroke-linejoin: miter; stroke-linecap: square"/>
   </g>
   <g id="text_5">
    <!-- fgm -->
    <g style="fill: #ff00ff" transform="translate(346.430769 202.430769) scale(0.09 -0.09)">
     <defs>
      <path id="DejaVuSans-66" d="M 2375 4863 
L 2375 4384 
L 1825 4384 
Q 1516 4384 1395 4259 
Q 1275 4134 1275 3809 
L 1275 3500 
L 2222 3500 
L 2222 3053 
L 1275 3053 
L 1275 0 
L 697 0 
L 697 3053 
L 147 3053 
L 147 3500 
L 697 3500 
L 697 3744 
Q 697 4328 969 4595 
Q 1241 4863 1831 4863 
L 2375 4863 
z
" transform="scale(0.015625)"/>
      <path id="DejaVuSans-67" d="M 2906 1791 
Q 2906 2416 2648 2759 
Q 2391 3103 1925 3103 
Q 1463 3103 1205 2759 
Q 947 2416 947 1791 
Q 947 1169 1205 825 
Q 1463 481 1925 481 
Q 2391 481 2648 825 
Q 2906 1169 2906 1791 
z
M 3481 434 
Q 3481 -459 3084 -895 
Q 2688 -1331 1869 -1331 
Q 1566 -1331 1297 -1286 
Q 1028 -1241 775 -1147 
L 775 -588 
Q 1028 -725 1275 -790 
Q 1522 -856 1778 -856 
Q 2344 -856 2625 -561 
Q 2906 -266 2906 331 
L 2906 616 
Q 2728 306 2450 153 
Q 2172 0 1784 0 
Q 1141 0 747 490 
Q 353 981 353 1791 
Q 353 2603 747 3093 
Q 1141 3584 1784 3584 
Q 2172 3584 2450 3431 
Q 2728 3278 2906 2969 
L 2906 3500 
L 3481 3500 
L 3481 434 
z
" transform="scale(0.015625)"/>
      <path id="DejaVuSans-6d" d="M 3328 2828 
Q 3544 3216 3844 3400 
Q 4144 3584 4550 3584 
Q 5097 3584 5394 3201 
Q 5691 2819 5691 2113 
L 5691 0 
L 5113 0 
L 5113 2094 
Q 5113 2597 4934 2840 
Q 4756 3084 4391 3084 
Q 3944 3084 3684 2787 
Q 3425 2491 3425 1978 
L 3425 0 
L 2847 0 
L 2847 2094 
Q 2847 2600 2669 2842 
Q 2491 3084 2119 3084 
Q 1678 3084 1418 2786 
Q 1159 2488 1159 1978 
L 1159 0 
L 581 0 
L 581 3500 
L 1159 3500 
L 1159 2956 
Q 1356 3278 1631 3431 
Q 1906 3584 2284 3584 
Q 2666 3584 2933 3390 
Q 3200 3197 3328 2828 
z
" transform="scale(0.015625)"/>
     </defs>
     <use xlink:href="#DejaVuSans-66"/>
     <use xlink:href="#DejaVuSans-67" x="35.205078"/>
     <use xlink:href="#DejaVuSans-6d" x="98.681641"/>
    </g>
   </g>
  </g>
 </g>
 <defs>
  <clipPath id="p9d6e39636b">
   <rect x="302.4" y="14.4" width="108" height="201.6"/>
  </clipPath>
 </defs>
</svg>
