<?xml version="1.0" encoding="utf-8" standalone="no"?>
<!DOCTYPE svg PUBLIC "-//W3C//DTD SVG 1.1//EN"
  "http://www.w3.org/Graphics/SVG/1.1/DTD/svg11.dtd">
<svg xmlns:xlink="http://www.w3.org/1999/xlink" width="460.8pt" height="345.6pt" viewBox="0 0 460.8 345.6" xmlns="http://www.w3.org/2000/svg" version="1.1">
 <metadata>
  <rdf:RDF xmlns:dc="http://purl.org/dc/elements/1.1/" xmlns:cc="http://creativecommons.org/ns#" xmlns:rdf="http://www.w3.org/1999/02/22-rdf-syntax-ns#">
   <cc:Work>
    <dc:type rdf:resource="http://purl.org/dc/dcmitype/StillImage"/>
    <dc:date>2025-01-31T19:00:21.833853</dc:date>
    <dc:format>image/svg+xml</dc:format>
    <dc:creator>
     <cc:Agent>
      <dc:title>Matplotlib v3.8.0, https://matplotlib.org/</dc:title>
     </cc:Agent>
    </dc:creator>
   </cc:Work>
  </rdf:RDF>
 </metadata>
 <defs>
  <style type="text/css">*{stroke-linejoin: round; stroke-linecap: butt}</style>
 </defs>
 <g id="figure_1">
  <g id="patch_1">
   <path d="M 0 345.6 
L 460.8 345.6 
L 460.8 0 
L 0 0 
z
" style="fill: #ffffff"/>
  </g>
  <g id="axes_1">
   <g id="patch_2">
    <path d="M 44.57 95.8 
L 442.0575 95.8 
L 442.0575 49.2 
L 44.57 49.2 
z
" style="fill: #ffffff"/>
   </g>
   <g id="patch_3">
    <path d="M 44.57 95.8 
L 52.68199 95.8 
L 52.68199 95.8 
L 44.57 95.8 
z
" clip-path="url(#pbfe113bdbc)" style="fill: #ff0000"/>
   </g>
   <g id="patch_4">
    <path d="M 52.68199 95.8 
L 60.79398 95.8 
L 60.79398 95.8 
L 52.68199 95.8 
z
" clip-path="url(#pbfe113bdbc)" style="fill: #ff0000"/>
   </g>
   <g id="patch_5">
    <path d="M 60.79398 95.8 
L 68.905969 95.8 
L 68.905969 95.8 
L 60.79398 95.8 
z
" clip-path="url(#pbfe113bdbc)" style="fill: #ff0000"/>
   </g>
   <g id="patch_6">
    <path d="M 68.905969 95.8 
L 77.017959 95.8 
L 77.017959 95.264368 
L 68.905969 95.264368 
z
" clip-path="url(#pbfe113bdbc)" style="fill: #ff0000"/>
   </g>
   <g id="patch_7">
    <path d="M 77.017959 95.8 
L 85.129949 95.8 
L 85.129949 95.264368 
L 77.017959 95.264368 
z
" clip-path="url(#pbfe113bdbc)" style="fill: #ff0000"/>
   </g>
   <g id="patch_8">
    <path d="M 85.129949 95.8 
L 93.241939 95.8 
L 93.241939 95.264368 
L 85.129949 95.264368 
z
" clip-path="url(#pbfe113bdbc)" style="fill: #ff0000"/>
   </g>
   <g id="patch_9">
    <path d="M 93.241939 95.8 
L 101.353929 95.8 
L 101.353929 93.121839 
L 93.241939 93.121839 
z
" clip-path="url(#pbfe113bdbc)" style="fill: #ff0000"/>
   </g>
   <g id="patch_10">
    <path d="M 101.353929 95.8 
L 109.465918 95.8 
L 109.465918 93.121839 
L 101.353929 93.121839 
z
" clip-path="url(#pbfe113bdbc)" style="fill: #ff0000"/>
   </g>
   <g id="patch_11">
    <path d="M 109.465918 95.8 
L 117.577908 95.8 
L 117.577908 92.586207 
L 109.465918 92.586207 
z
" clip-path="url(#pbfe113bdbc)" style="fill: #ff0000"/>
   </g>
   <g id="patch_12">
    <path d="M 117.577908 95.8 
L 125.689898 95.8 
L 125.689898 92.050575 
L 117.577908 92.050575 
z
" clip-path="url(#pbfe113bdbc)" style="fill: #ff0000"/>
   </g>
   <g id="patch_13">
    <path d="M 125.689898 95.8 
L 133.801888 95.8 
L 133.801888 88.836782 
L 125.689898 88.836782 
z
" clip-path="url(#pbfe113bdbc)" style="fill: #ff0000"/>
   </g>
   <g id="patch_14">
    <path d="M 133.801888 95.8 
L 141.913878 95.8 
L 141.913878 87.229885 
L 133.801888 87.229885 
z
" clip-path="url(#pbfe113bdbc)" style="fill: #ff0000"/>
   </g>
   <g id="patch_15">
    <path d="M 141.913878 95.8 
L 150.025867 95.8 
L 150.025867 87.229885 
L 141.913878 87.229885 
z
" clip-path="url(#pbfe113bdbc)" style="fill: #ff0000"/>
   </g>
   <g id="patch_16">
    <path d="M 150.025867 95.8 
L 158.137857 95.8 
L 158.137857 81.873563 
L 150.025867 81.873563 
z
" clip-path="url(#pbfe113bdbc)" style="fill: #ff0000"/>
   </g>
   <g id="patch_17">
    <path d="M 158.137857 95.8 
L 166.249847 95.8 
L 166.249847 80.802299 
L 158.137857 80.802299 
z
" clip-path="url(#pbfe113bdbc)" style="fill: #ff0000"/>
   </g>
   <g id="patch_18">
    <path d="M 166.249847 95.8 
L 174.361837 95.8 
L 174.361837 79.195402 
L 166.249847 79.195402 
z
" clip-path="url(#pbfe113bdbc)" style="fill: #ff0000"/>
   </g>
   <g id="patch_19">
    <path d="M 174.361837 95.8 
L 182.473827 95.8 
L 182.473827 81.337931 
L 174.361837 81.337931 
z
" clip-path="url(#pbfe113bdbc)" style="fill: #ff0000"/>
   </g>
   <g id="patch_20">
    <path d="M 182.473827 95.8 
L 190.585816 95.8 
L 190.585816 79.195402 
L 182.473827 79.195402 
z
" clip-path="url(#pbfe113bdbc)" style="fill: #ff0000"/>
   </g>
   <g id="patch_21">
    <path d="M 190.585816 95.8 
L 198.697806 95.8 
L 198.697806 81.337931 
L 190.585816 81.337931 
z
" clip-path="url(#pbfe113bdbc)" style="fill: #ff0000"/>
   </g>
   <g id="patch_22">
    <path d="M 198.697806 95.8 
L 206.809796 95.8 
L 206.809796 75.981609 
L 198.697806 75.981609 
z
" clip-path="url(#pbfe113bdbc)" style="fill: #ff0000"/>
   </g>
   <g id="patch_23">
    <path d="M 206.809796 95.8 
L 214.921786 95.8 
L 214.921786 85.622989 
L 206.809796 85.622989 
z
" clip-path="url(#pbfe113bdbc)" style="fill: #ff0000"/>
   </g>
   <g id="patch_24">
    <path d="M 214.921786 95.8 
L 223.033776 95.8 
L 223.033776 84.016092 
L 214.921786 84.016092 
z
" clip-path="url(#pbfe113bdbc)" style="fill: #ff0000"/>
   </g>
   <g id="patch_25">
    <path d="M 223.033776 95.8 
L 231.145765 95.8 
L 231.145765 80.266667 
L 223.033776 80.266667 
z
" clip-path="url(#pbfe113bdbc)" style="fill: #ff0000"/>
   </g>
   <g id="patch_26">
    <path d="M 231.145765 95.8 
L 239.257755 95.8 
L 239.257755 85.622989 
L 231.145765 85.622989 
z
" clip-path="url(#pbfe113bdbc)" style="fill: #ff0000"/>
   </g>
   <g id="patch_27">
    <path d="M 239.257755 95.8 
L 247.369745 95.8 
L 247.369745 81.337931 
L 239.257755 81.337931 
z
" clip-path="url(#pbfe113bdbc)" style="fill: #ff0000"/>
   </g>
   <g id="patch_28">
    <path d="M 247.369745 95.8 
L 255.481735 95.8 
L 255.481735 85.087356 
L 247.369745 85.087356 
z
" clip-path="url(#pbfe113bdbc)" style="fill: #ff0000"/>
   </g>
   <g id="patch_29">
    <path d="M 255.481735 95.8 
L 263.593724 95.8 
L 263.593724 86.694253 
L 255.481735 86.694253 
z
" clip-path="url(#pbfe113bdbc)" style="fill: #ff0000"/>
   </g>
   <g id="patch_30">
    <path d="M 263.593724 95.8 
L 271.705714 95.8 
L 271.705714 86.158621 
L 263.593724 86.158621 
z
" clip-path="url(#pbfe113bdbc)" style="fill: #ff0000"/>
   </g>
   <g id="patch_31">
    <path d="M 271.705714 95.8 
L 279.817704 95.8 
L 279.817704 90.97931 
L 271.705714 90.97931 
z
" clip-path="url(#pbfe113bdbc)" style="fill: #ff0000"/>
   </g>
   <g id="patch_32">
    <path d="M 279.817704 95.8 
L 287.929694 95.8 
L 287.929694 87.765517 
L 279.817704 87.765517 
z
" clip-path="url(#pbfe113bdbc)" style="fill: #ff0000"/>
   </g>
   <g id="patch_33">
    <path d="M 287.929694 95.8 
L 296.041684 95.8 
L 296.041684 90.97931 
L 287.929694 90.97931 
z
" clip-path="url(#pbfe113bdbc)" style="fill: #ff0000"/>
   </g>
   <g id="patch_34">
    <path d="M 296.041684 95.8 
L 304.153673 95.8 
L 304.153673 88.301149 
L 296.041684 88.301149 
z
" clip-path="url(#pbfe113bdbc)" style="fill: #ff0000"/>
   </g>
   <g id="patch_35">
    <path d="M 304.153673 95.8 
L 312.265663 95.8 
L 312.265663 90.443678 
L 304.153673 90.443678 
z
" clip-path="url(#pbfe113bdbc)" style="fill: #ff0000"/>
   </g>
   <g id="patch_36">
    <path d="M 312.265663 95.8 
L 320.377653 95.8 
L 320.377653 89.372414 
L 312.265663 89.372414 
z
" clip-path="url(#pbfe113bdbc)" style="fill: #ff0000"/>
   </g>
   <g id="patch_37">
    <path d="M 320.377653 95.8 
L 328.489643 95.8 
L 328.489643 90.443678 
L 320.377653 90.443678 
z
" clip-path="url(#pbfe113bdbc)" style="fill: #ff0000"/>
   </g>
   <g id="patch_38">
    <path d="M 328.489643 95.8 
L 336.601633 95.8 
L 336.601633 87.765517 
L 328.489643 87.765517 
z
" clip-path="url(#pbfe113bdbc)" style="fill: #ff0000"/>
   </g>
   <g id="patch_39">
    <path d="M 336.601633 95.8 
L 344.713622 95.8 
L 344.713622 89.908046 
L 336.601633 89.908046 
z
" clip-path="url(#pbfe113bdbc)" style="fill: #ff0000"/>
   </g>
   <g id="patch_40">
    <path d="M 344.713622 95.8 
L 352.825612 95.8 
L 352.825612 90.97931 
L 344.713622 90.97931 
z
" clip-path="url(#pbfe113bdbc)" style="fill: #ff0000"/>
   </g>
   <g id="patch_41">
    <path d="M 352.825612 95.8 
L 360.937602 95.8 
L 360.937602 92.586207 
L 352.825612 92.586207 
z
" clip-path="url(#pbfe113bdbc)" style="fill: #ff0000"/>
   </g>
   <g id="patch_42">
    <path d="M 360.937602 95.8 
L 369.049592 95.8 
L 369.049592 93.657471 
L 360.937602 93.657471 
z
" clip-path="url(#pbfe113bdbc)" style="fill: #ff0000"/>
   </g>
   <g id="patch_43">
    <path d="M 369.049592 95.8 
L 377.161582 95.8 
L 377.161582 90.97931 
L 369.049592 90.97931 
z
" clip-path="url(#pbfe113bdbc)" style="fill: #ff0000"/>
   </g>
   <g id="patch_44">
    <path d="M 377.161582 95.8 
L 385.273571 95.8 
L 385.273571 90.443678 
L 377.161582 90.443678 
z
" clip-path="url(#pbfe113bdbc)" style="fill: #ff0000"/>
   </g>
   <g id="patch_45">
    <path d="M 385.273571 95.8 
L 393.385561 95.8 
L 393.385561 92.050575 
L 385.273571 92.050575 
z
" clip-path="url(#pbfe113bdbc)" style="fill: #ff0000"/>
   </g>
   <g id="patch_46">
    <path d="M 393.385561 95.8 
L 401.497551 95.8 
L 401.497551 93.657471 
L 393.385561 93.657471 
z
" clip-path="url(#pbfe113bdbc)" style="fill: #ff0000"/>
   </g>
   <g id="patch_47">
    <path d="M 401.497551 95.8 
L 409.609541 95.8 
L 409.609541 90.97931 
L 401.497551 90.97931 
z
" clip-path="url(#pbfe113bdbc)" style="fill: #ff0000"/>
   </g>
   <g id="patch_48">
    <path d="M 409.609541 95.8 
L 417.721531 95.8 
L 417.721531 93.121839 
L 409.609541 93.121839 
z
" clip-path="url(#pbfe113bdbc)" style="fill: #ff0000"/>
   </g>
   <g id="patch_49">
    <path d="M 417.721531 95.8 
L 425.83352 95.8 
L 425.83352 92.050575 
L 417.721531 92.050575 
z
" clip-path="url(#pbfe113bdbc)" style="fill: #ff0000"/>
   </g>
   <g id="patch_50">
    <path d="M 425.83352 95.8 
L 433.94551 95.8 
L 433.94551 90.97931 
L 425.83352 90.97931 
z
" clip-path="url(#pbfe113bdbc)" style="fill: #ff0000"/>
   </g>
   <g id="patch_51">
    <path d="M 433.94551 95.8 
L 442.0575 95.8 
L 442.0575 93.121839 
L 433.94551 93.121839 
z
" clip-path="url(#pbfe113bdbc)" style="fill: #ff0000"/>
   </g>
   <g id="matplotlib.axis_1">
    <g id="xtick_1">
     <g id="line2d_1">
      <defs>
       <path id="m04712d4cee" d="M 0 0 
L 0 3.5 
" style="stroke: #000000; stroke-width: 0.8"/>
      </defs>
      <g>
       <use xlink:href="#m04712d4cee" x="44.57" y="95.8" style="stroke: #000000; stroke-width: 0.8"/>
      </g>
     </g>
     <g id="text_1">
      <!-- 2.0 -->
      <g transform="translate(36.618437 110.398437) scale(0.1 -0.1)">
       <defs>
        <path id="DejaVuSans-32" d="M 1228 531 
L 3431 531 
L 3431 0 
L 469 0 
L 469 531 
Q 828 903 1448 1529 
Q 2069 2156 2228 2338 
Q 2531 2678 2651 2914 
Q 2772 3150 2772 3378 
Q 2772 3750 2511 3984 
Q 2250 4219 1831 4219 
Q 1534 4219 1204 4116 
Q 875 4013 500 3803 
L 500 4441 
Q 881 4594 1212 4672 
Q 1544 4750 1819 4750 
Q 2544 4750 2975 4387 
Q 3406 4025 3406 3419 
Q 3406 3131 3298 2873 
Q 3191 2616 2906 2266 
Q 2828 2175 2409 1742 
Q 1991 1309 1228 531 
z
" transform="scale(0.015625)"/>
        <path id="DejaVuSans-2e" d="M 684 794 
L 1344 794 
L 1344 0 
L 684 0 
L 684 794 
z
" transform="scale(0.015625)"/>
        <path id="DejaVuSans-30" d="M 2034 4250 
Q 1547 4250 1301 3770 
Q 1056 3291 1056 2328 
Q 1056 1369 1301 889 
Q 1547 409 2034 409 
Q 2525 409 2770 889 
Q 3016 1369 3016 2328 
Q 3016 3291 2770 3770 
Q 2525 4250 2034 4250 
z
M 2034 4750 
Q 2819 4750 3233 4129 
Q 3647 3509 3647 2328 
Q 3647 1150 3233 529 
Q 2819 -91 2034 -91 
Q 1250 -91 836 529 
Q 422 1150 422 2328 
Q 422 3509 836 4129 
Q 1250 4750 2034 4750 
z
" transform="scale(0.015625)"/>
       </defs>
       <use xlink:href="#DejaVuSans-32"/>
       <use xlink:href="#DejaVuSans-2e" x="63.623047"/>
       <use xlink:href="#DejaVuSans-30" x="95.410156"/>
      </g>
     </g>
    </g>
    <g id="xtick_2">
     <g id="line2d_2">
      <g>
       <use xlink:href="#m04712d4cee" x="110.817917" y="95.8" style="stroke: #000000; stroke-width: 0.8"/>
      </g>
     </g>
     <g id="text_2">
      <!-- 2.5 -->
      <g transform="translate(102.866354 110.398437) scale(0.1 -0.1)">
       <defs>
        <path id="DejaVuSans-35" d="M 691 4666 
L 3169 4666 
L 3169 4134 
L 1269 4134 
L 1269 2991 
Q 1406 3038 1543 3061 
Q 1681 3084 1819 3084 
Q 2600 3084 3056 2656 
Q 3513 2228 3513 1497 
Q 3513 744 3044 326 
Q 2575 -91 1722 -91 
Q 1428 -91 1123 -41 
Q 819 9 494 109 
L 494 744 
Q 775 591 1075 516 
Q 1375 441 1709 441 
Q 2250 441 2565 725 
Q 2881 1009 2881 1497 
Q 2881 1984 2565 2268 
Q 2250 2553 1709 2553 
Q 1456 2553 1204 2497 
Q 953 2441 691 2322 
L 691 4666 
z
" transform="scale(0.015625)"/>
       </defs>
       <use xlink:href="#DejaVuSans-32"/>
       <use xlink:href="#DejaVuSans-2e" x="63.623047"/>
       <use xlink:href="#DejaVuSans-35" x="95.410156"/>
      </g>
     </g>
    </g>
    <g id="xtick_3">
     <g id="line2d_3">
      <g>
       <use xlink:href="#m04712d4cee" x="177.065833" y="95.8" style="stroke: #000000; stroke-width: 0.8"/>
      </g>
     </g>
     <g id="text_3">
      <!-- 3.0 -->
      <g transform="translate(169.114271 110.398437) scale(0.1 -0.1)">
       <defs>
        <path id="DejaVuSans-33" d="M 2597 2516 
Q 3050 2419 3304 2112 
Q 3559 1806 3559 1356 
Q 3559 666 3084 287 
Q 2609 -91 1734 -91 
Q 1441 -91 1130 -33 
Q 819 25 488 141 
L 488 750 
Q 750 597 1062 519 
Q 1375 441 1716 441 
Q 2309 441 2620 675 
Q 2931 909 2931 1356 
Q 2931 1769 2642 2001 
Q 2353 2234 1838 2234 
L 1294 2234 
L 1294 2753 
L 1863 2753 
Q 2328 2753 2575 2939 
Q 2822 3125 2822 3475 
Q 2822 3834 2567 4026 
Q 2313 4219 1838 4219 
Q 1578 4219 1281 4162 
Q 984 4106 628 3988 
L 628 4550 
Q 988 4650 1302 4700 
Q 1616 4750 1894 4750 
Q 2613 4750 3031 4423 
Q 3450 4097 3450 3541 
Q 3450 3153 3228 2886 
Q 3006 2619 2597 2516 
z
" transform="scale(0.015625)"/>
       </defs>
       <use xlink:href="#DejaVuSans-33"/>
       <use xlink:href="#DejaVuSans-2e" x="63.623047"/>
       <use xlink:href="#DejaVuSans-30" x="95.410156"/>
      </g>
     </g>
    </g>
    <g id="xtick_4">
     <g id="line2d_4">
      <g>
       <use xlink:href="#m04712d4cee" x="243.31375" y="95.8" style="stroke: #000000; stroke-width: 0.8"/>
      </g>
     </g>
     <g id="text_4">
      <!-- 3.5 -->
      <g transform="translate(235.362187 110.398437) scale(0.1 -0.1)">
       <use xlink:href="#DejaVuSans-33"/>
       <use xlink:href="#DejaVuSans-2e" x="63.623047"/>
       <use xlink:href="#DejaVuSans-35" x="95.410156"/>
      </g>
     </g>
    </g>
    <g id="xtick_5">
     <g id="line2d_5">
      <g>
       <use xlink:href="#m04712d4cee" x="309.561667" y="95.8" style="stroke: #000000; stroke-width: 0.8"/>
      </g>
     </g>
     <g id="text_5">
      <!-- 4.0 -->
      <g transform="translate(301.610104 110.398437) scale(0.1 -0.1)">
       <defs>
        <path id="DejaVuSans-34" d="M 2419 4116 
L 825 1625 
L 2419 1625 
L 2419 4116 
z
M 2253 4666 
L 3047 4666 
L 3047 1625 
L 3713 1625 
L 3713 1100 
L 3047 1100 
L 3047 0 
L 2419 0 
L 2419 1100 
L 313 1100 
L 313 1709 
L 2253 4666 
z
" transform="scale(0.015625)"/>
       </defs>
       <use xlink:href="#DejaVuSans-34"/>
       <use xlink:href="#DejaVuSans-2e" x="63.623047"/>
       <use xlink:href="#DejaVuSans-30" x="95.410156"/>
      </g>
     </g>
    </g>
    <g id="xtick_6">
     <g id="line2d_6">
      <g>
       <use xlink:href="#m04712d4cee" x="375.809583" y="95.8" style="stroke: #000000; stroke-width: 0.8"/>
      </g>
     </g>
     <g id="text_6">
      <!-- 4.5 -->
      <g transform="translate(367.858021 110.398437) scale(0.1 -0.1)">
       <use xlink:href="#DejaVuSans-34"/>
       <use xlink:href="#DejaVuSans-2e" x="63.623047"/>
       <use xlink:href="#DejaVuSans-35" x="95.410156"/>
      </g>
     </g>
    </g>
    <g id="xtick_7">
     <g id="line2d_7">
      <g>
       <use xlink:href="#m04712d4cee" x="442.0575" y="95.8" style="stroke: #000000; stroke-width: 0.8"/>
      </g>
     </g>
     <g id="text_7">
      <!-- 5.0 -->
      <g transform="translate(434.105938 110.398437) scale(0.1 -0.1)">
       <use xlink:href="#DejaVuSans-35"/>
       <use xlink:href="#DejaVuSans-2e" x="63.623047"/>
       <use xlink:href="#DejaVuSans-30" x="95.410156"/>
      </g>
     </g>
    </g>
    <g id="text_8">
     <!-- log(MNV) -->
     <g transform="translate(220.314531 124.076562) scale(0.1 -0.1)">
      <defs>
       <path id="DejaVuSans-6c" d="M 603 4863 
L 1178 4863 
L 1178 0 
L 603 0 
L 603 4863 
z
" transform="scale(0.015625)"/>
       <path id="DejaVuSans-6f" d="M 1959 3097 
Q 1497 3097 1228 2736 
Q 959 2375 959 1747 
Q 959 1119 1226 758 
Q 1494 397 1959 397 
Q 2419 397 2687 759 
Q 2956 1122 2956 1747 
Q 2956 2369 2687 2733 
Q 2419 3097 1959 3097 
z
M 1959 3584 
Q 2709 3584 3137 3096 
Q 3566 2609 3566 1747 
Q 3566 888 3137 398 
Q 2709 -91 1959 -91 
Q 1206 -91 779 398 
Q 353 888 353 1747 
Q 353 2609 779 3096 
Q 1206 3584 1959 3584 
z
" transform="scale(0.015625)"/>
       <path id="DejaVuSans-67" d="M 2906 1791 
Q 2906 2416 2648 2759 
Q 2391 3103 1925 3103 
Q 1463 3103 1205 2759 
Q 947 2416 947 1791 
Q 947 1169 1205 825 
Q 1463 481 1925 481 
Q 2391 481 2648 825 
Q 2906 1169 2906 1791 
z
M 3481 434 
Q 3481 -459 3084 -895 
Q 2688 -1331 1869 -1331 
Q 1566 -1331 1297 -1286 
Q 1028 -1241 775 -1147 
L 775 -588 
Q 1028 -725 1275 -790 
Q 1522 -856 1778 -856 
Q 2344 -856 2625 -561 
Q 2906 -266 2906 331 
L 2906 616 
Q 2728 306 2450 153 
Q 2172 0 1784 0 
Q 1141 0 747 490 
Q 353 981 353 1791 
Q 353 2603 747 3093 
Q 1141 3584 1784 3584 
Q 2172 3584 2450 3431 
Q 2728 3278 2906 2969 
L 2906 3500 
L 3481 3500 
L 3481 434 
z
" transform="scale(0.015625)"/>
       <path id="DejaVuSans-28" d="M 1984 4856 
Q 1566 4138 1362 3434 
Q 1159 2731 1159 2009 
Q 1159 1288 1364 580 
Q 1569 -128 1984 -844 
L 1484 -844 
Q 1016 -109 783 600 
Q 550 1309 550 2009 
Q 550 2706 781 3412 
Q 1013 4119 1484 4856 
L 1984 4856 
z
" transform="scale(0.015625)"/>
       <path id="DejaVuSans-4d" d="M 628 4666 
L 1569 4666 
L 2759 1491 
L 3956 4666 
L 4897 4666 
L 4897 0 
L 4281 0 
L 4281 4097 
L 3078 897 
L 2444 897 
L 1241 4097 
L 1241 0 
L 628 0 
L 628 4666 
z
" transform="scale(0.015625)"/>
       <path id="DejaVuSans-4e" d="M 628 4666 
L 1478 4666 
L 3547 763 
L 3547 4666 
L 4159 4666 
L 4159 0 
L 3309 0 
L 1241 3903 
L 1241 0 
L 628 0 
L 628 4666 
z
" transform="scale(0.015625)"/>
       <path id="DejaVuSans-56" d="M 1831 0 
L 50 4666 
L 709 4666 
L 2188 738 
L 3669 4666 
L 4325 4666 
L 2547 0 
L 1831 0 
z
" transform="scale(0.015625)"/>
       <path id="DejaVuSans-29" d="M 513 4856 
L 1013 4856 
Q 1481 4119 1714 3412 
Q 1947 2706 1947 2009 
Q 1947 1309 1714 600 
Q 1481 -109 1013 -844 
L 513 -844 
Q 928 -128 1133 580 
Q 1338 1288 1338 2009 
Q 1338 2731 1133 3434 
Q 928 4138 513 4856 
z
" transform="scale(0.015625)"/>
      </defs>
      <use xlink:href="#DejaVuSans-6c"/>
      <use xlink:href="#DejaVuSans-6f" x="27.783203"/>
      <use xlink:href="#DejaVuSans-67" x="88.964844"/>
      <use xlink:href="#DejaVuSans-28" x="152.441406"/>
      <use xlink:href="#DejaVuSans-4d" x="191.455078"/>
      <use xlink:href="#DejaVuSans-4e" x="277.734375"/>
      <use xlink:href="#DejaVuSans-56" x="352.539062"/>
      <use xlink:href="#DejaVuSans-29" x="420.947266"/>
     </g>
    </g>
   </g>
   <g id="matplotlib.axis_2">
    <g id="ytick_1">
     <g id="line2d_8">
      <defs>
       <path id="mfaf5c699da" d="M 0 0 
L -3.5 0 
" style="stroke: #000000; stroke-width: 0.8"/>
      </defs>
      <g>
       <use xlink:href="#mfaf5c699da" x="44.57" y="95.8" style="stroke: #000000; stroke-width: 0.8"/>
      </g>
     </g>
     <g id="text_9">
      <!-- 0 -->
      <g transform="translate(31.2075 99.599219) scale(0.1 -0.1)">
       <use xlink:href="#DejaVuSans-30"/>
      </g>
     </g>
    </g>
    <g id="ytick_2">
     <g id="line2d_9">
      <g>
       <use xlink:href="#mfaf5c699da" x="44.57" y="69.018391" style="stroke: #000000; stroke-width: 0.8"/>
      </g>
     </g>
     <g id="text_10">
      <!-- 50 -->
      <g transform="translate(24.845 72.81761) scale(0.1 -0.1)">
       <use xlink:href="#DejaVuSans-35"/>
       <use xlink:href="#DejaVuSans-30" x="63.623047"/>
      </g>
     </g>
    </g>
    <g id="text_11">
     <!-- Voxel Count -->
     <g transform="translate(18.765313 102.142188) rotate(-90) scale(0.1 -0.1)">
      <defs>
       <path id="DejaVuSans-78" d="M 3513 3500 
L 2247 1797 
L 3578 0 
L 2900 0 
L 1881 1375 
L 863 0 
L 184 0 
L 1544 1831 
L 300 3500 
L 978 3500 
L 1906 2253 
L 2834 3500 
L 3513 3500 
z
" transform="scale(0.015625)"/>
       <path id="DejaVuSans-65" d="M 3597 1894 
L 3597 1613 
L 953 1613 
Q 991 1019 1311 708 
Q 1631 397 2203 397 
Q 2534 397 2845 478 
Q 3156 559 3463 722 
L 3463 178 
Q 3153 47 2828 -22 
Q 2503 -91 2169 -91 
Q 1331 -91 842 396 
Q 353 884 353 1716 
Q 353 2575 817 3079 
Q 1281 3584 2069 3584 
Q 2775 3584 3186 3129 
Q 3597 2675 3597 1894 
z
M 3022 2063 
Q 3016 2534 2758 2815 
Q 2500 3097 2075 3097 
Q 1594 3097 1305 2825 
Q 1016 2553 972 2059 
L 3022 2063 
z
" transform="scale(0.015625)"/>
       <path id="DejaVuSans-20" transform="scale(0.015625)"/>
       <path id="DejaVuSans-43" d="M 4122 4306 
L 4122 3641 
Q 3803 3938 3442 4084 
Q 3081 4231 2675 4231 
Q 1875 4231 1450 3742 
Q 1025 3253 1025 2328 
Q 1025 1406 1450 917 
Q 1875 428 2675 428 
Q 3081 428 3442 575 
Q 3803 722 4122 1019 
L 4122 359 
Q 3791 134 3420 21 
Q 3050 -91 2638 -91 
Q 1578 -91 968 557 
Q 359 1206 359 2328 
Q 359 3453 968 4101 
Q 1578 4750 2638 4750 
Q 3056 4750 3426 4639 
Q 3797 4528 4122 4306 
z
" transform="scale(0.015625)"/>
       <path id="DejaVuSans-75" d="M 544 1381 
L 544 3500 
L 1119 3500 
L 1119 1403 
Q 1119 906 1312 657 
Q 1506 409 1894 409 
Q 2359 409 2629 706 
Q 2900 1003 2900 1516 
L 2900 3500 
L 3475 3500 
L 3475 0 
L 2900 0 
L 2900 538 
Q 2691 219 2414 64 
Q 2138 -91 1772 -91 
Q 1169 -91 856 284 
Q 544 659 544 1381 
z
M 1991 3584 
L 1991 3584 
z
" transform="scale(0.015625)"/>
       <path id="DejaVuSans-6e" d="M 3513 2113 
L 3513 0 
L 2938 0 
L 2938 2094 
Q 2938 2591 2744 2837 
Q 2550 3084 2163 3084 
Q 1697 3084 1428 2787 
Q 1159 2491 1159 1978 
L 1159 0 
L 581 0 
L 581 3500 
L 1159 3500 
L 1159 2956 
Q 1366 3272 1645 3428 
Q 1925 3584 2291 3584 
Q 2894 3584 3203 3211 
Q 3513 2838 3513 2113 
z
" transform="scale(0.015625)"/>
       <path id="DejaVuSans-74" d="M 1172 4494 
L 1172 3500 
L 2356 3500 
L 2356 3053 
L 1172 3053 
L 1172 1153 
Q 1172 725 1289 603 
Q 1406 481 1766 481 
L 2356 481 
L 2356 0 
L 1766 0 
Q 1100 0 847 248 
Q 594 497 594 1153 
L 594 3053 
L 172 3053 
L 172 3500 
L 594 3500 
L 594 4494 
L 1172 4494 
z
" transform="scale(0.015625)"/>
      </defs>
      <use xlink:href="#DejaVuSans-56"/>
      <use xlink:href="#DejaVuSans-6f" x="60.658203"/>
      <use xlink:href="#DejaVuSans-78" x="118.714844"/>
      <use xlink:href="#DejaVuSans-65" x="174.769531"/>
      <use xlink:href="#DejaVuSans-6c" x="236.292969"/>
      <use xlink:href="#DejaVuSans-20" x="264.076172"/>
      <use xlink:href="#DejaVuSans-43" x="295.863281"/>
      <use xlink:href="#DejaVuSans-6f" x="365.6875"/>
      <use xlink:href="#DejaVuSans-75" x="426.869141"/>
      <use xlink:href="#DejaVuSans-6e" x="490.248047"/>
      <use xlink:href="#DejaVuSans-74" x="553.626953"/>
     </g>
    </g>
   </g>
   <g id="LineCollection_1">
    <path d="M 250.463852 95.8 
L 250.463852 13.312644 
" clip-path="url(#pbfe113bdbc)" style="fill: none; stroke-dasharray: 5.55,2.4; stroke-dashoffset: 0; stroke: #000000; stroke-width: 1.5"/>
   </g>
   <g id="patch_52">
    <path d="M 44.57 95.8 
L 44.57 49.2 
" style="fill: none; stroke: #000000; stroke-width: 0.8; stroke-linejoin: miter; stroke-linecap: square"/>
   </g>
   <g id="patch_53">
    <path d="M 442.0575 95.8 
L 442.0575 49.2 
" style="fill: none; stroke: #000000; stroke-width: 0.8; stroke-linejoin: miter; stroke-linecap: square"/>
   </g>
   <g id="patch_54">
    <path d="M 44.57 95.8 
L 442.0575 95.8 
" style="fill: none; stroke: #000000; stroke-width: 0.8; stroke-linejoin: miter; stroke-linecap: square"/>
   </g>
   <g id="patch_55">
    <path d="M 44.57 49.2 
L 442.0575 49.2 
" style="fill: none; stroke: #000000; stroke-width: 0.8; stroke-linejoin: miter; stroke-linecap: square"/>
   </g>
   <g id="text_12">
    <!-- superficial -->
    <g transform="translate(212.329375 43.2) scale(0.12 -0.12)">
     <defs>
      <path id="DejaVuSans-73" d="M 2834 3397 
L 2834 2853 
Q 2591 2978 2328 3040 
Q 2066 3103 1784 3103 
Q 1356 3103 1142 2972 
Q 928 2841 928 2578 
Q 928 2378 1081 2264 
Q 1234 2150 1697 2047 
L 1894 2003 
Q 2506 1872 2764 1633 
Q 3022 1394 3022 966 
Q 3022 478 2636 193 
Q 2250 -91 1575 -91 
Q 1294 -91 989 -36 
Q 684 19 347 128 
L 347 722 
Q 666 556 975 473 
Q 1284 391 1588 391 
Q 1994 391 2212 530 
Q 2431 669 2431 922 
Q 2431 1156 2273 1281 
Q 2116 1406 1581 1522 
L 1381 1569 
Q 847 1681 609 1914 
Q 372 2147 372 2553 
Q 372 3047 722 3315 
Q 1072 3584 1716 3584 
Q 2034 3584 2315 3537 
Q 2597 3491 2834 3397 
z
" transform="scale(0.015625)"/>
      <path id="DejaVuSans-70" d="M 1159 525 
L 1159 -1331 
L 581 -1331 
L 581 3500 
L 1159 3500 
L 1159 2969 
Q 1341 3281 1617 3432 
Q 1894 3584 2278 3584 
Q 2916 3584 3314 3078 
Q 3713 2572 3713 1747 
Q 3713 922 3314 415 
Q 2916 -91 2278 -91 
Q 1894 -91 1617 61 
Q 1341 213 1159 525 
z
M 3116 1747 
Q 3116 2381 2855 2742 
Q 2594 3103 2138 3103 
Q 1681 3103 1420 2742 
Q 1159 2381 1159 1747 
Q 1159 1113 1420 752 
Q 1681 391 2138 391 
Q 2594 391 2855 752 
Q 3116 1113 3116 1747 
z
" transform="scale(0.015625)"/>
      <path id="DejaVuSans-72" d="M 2631 2963 
Q 2534 3019 2420 3045 
Q 2306 3072 2169 3072 
Q 1681 3072 1420 2755 
Q 1159 2438 1159 1844 
L 1159 0 
L 581 0 
L 581 3500 
L 1159 3500 
L 1159 2956 
Q 1341 3275 1631 3429 
Q 1922 3584 2338 3584 
Q 2397 3584 2469 3576 
Q 2541 3569 2628 3553 
L 2631 2963 
z
" transform="scale(0.015625)"/>
      <path id="DejaVuSans-66" d="M 2375 4863 
L 2375 4384 
L 1825 4384 
Q 1516 4384 1395 4259 
Q 1275 4134 1275 3809 
L 1275 3500 
L 2222 3500 
L 2222 3053 
L 1275 3053 
L 1275 0 
L 697 0 
L 697 3053 
L 147 3053 
L 147 3500 
L 697 3500 
L 697 3744 
Q 697 4328 969 4595 
Q 1241 4863 1831 4863 
L 2375 4863 
z
" transform="scale(0.015625)"/>
      <path id="DejaVuSans-69" d="M 603 3500 
L 1178 3500 
L 1178 0 
L 603 0 
L 603 3500 
z
M 603 4863 
L 1178 4863 
L 1178 4134 
L 603 4134 
L 603 4863 
z
" transform="scale(0.015625)"/>
      <path id="DejaVuSans-63" d="M 3122 3366 
L 3122 2828 
Q 2878 2963 2633 3030 
Q 2388 3097 2138 3097 
Q 1578 3097 1268 2742 
Q 959 2388 959 1747 
Q 959 1106 1268 751 
Q 1578 397 2138 397 
Q 2388 397 2633 464 
Q 2878 531 3122 666 
L 3122 134 
Q 2881 22 2623 -34 
Q 2366 -91 2075 -91 
Q 1284 -91 818 406 
Q 353 903 353 1747 
Q 353 2603 823 3093 
Q 1294 3584 2113 3584 
Q 2378 3584 2631 3529 
Q 2884 3475 3122 3366 
z
" transform="scale(0.015625)"/>
      <path id="DejaVuSans-61" d="M 2194 1759 
Q 1497 1759 1228 1600 
Q 959 1441 959 1056 
Q 959 750 1161 570 
Q 1363 391 1709 391 
Q 2188 391 2477 730 
Q 2766 1069 2766 1631 
L 2766 1759 
L 2194 1759 
z
M 3341 1997 
L 3341 0 
L 2766 0 
L 2766 531 
Q 2569 213 2275 61 
Q 1981 -91 1556 -91 
Q 1019 -91 701 211 
Q 384 513 384 1019 
Q 384 1609 779 1909 
Q 1175 2209 1959 2209 
L 2766 2209 
L 2766 2266 
Q 2766 2663 2505 2880 
Q 2244 3097 1772 3097 
Q 1472 3097 1187 3025 
Q 903 2953 641 2809 
L 641 3341 
Q 956 3463 1253 3523 
Q 1550 3584 1831 3584 
Q 2591 3584 2966 3190 
Q 3341 2797 3341 1997 
z
" transform="scale(0.015625)"/>
     </defs>
     <use xlink:href="#DejaVuSans-73"/>
     <use xlink:href="#DejaVuSans-75" x="52.099609"/>
     <use xlink:href="#DejaVuSans-70" x="115.478516"/>
     <use xlink:href="#DejaVuSans-65" x="178.955078"/>
     <use xlink:href="#DejaVuSans-72" x="240.478516"/>
     <use xlink:href="#DejaVuSans-66" x="281.591797"/>
     <use xlink:href="#DejaVuSans-69" x="316.796875"/>
     <use xlink:href="#DejaVuSans-63" x="344.580078"/>
     <use xlink:href="#DejaVuSans-69" x="399.560547"/>
     <use xlink:href="#DejaVuSans-61" x="427.34375"/>
     <use xlink:href="#DejaVuSans-6c" x="488.623047"/>
    </g>
   </g>
   <g id="legend_1">
    <g id="patch_56">
     <path d="M 353.780938 71.878125 
L 435.0575 71.878125 
Q 437.0575 71.878125 437.0575 69.878125 
L 437.0575 56.2 
Q 437.0575 54.2 435.0575 54.2 
L 353.780938 54.2 
Q 351.780938 54.2 351.780938 56.2 
L 351.780938 69.878125 
Q 351.780938 71.878125 353.780938 71.878125 
z
" style="fill: #ffffff; opacity: 0.8; stroke: #cccccc; stroke-linejoin: miter"/>
    </g>
    <g id="line2d_10">
     <path d="M 355.780938 62.298438 
L 375.780938 62.298438 
" style="fill: none; stroke-dasharray: 5.55,2.4; stroke-dashoffset: 0; stroke: #000000; stroke-width: 1.5"/>
    </g>
    <g id="text_13">
     <!-- Threshold -->
     <g transform="translate(383.780938 65.798438) scale(0.1 -0.1)">
      <defs>
       <path id="DejaVuSans-54" d="M -19 4666 
L 3928 4666 
L 3928 4134 
L 2272 4134 
L 2272 0 
L 1638 0 
L 1638 4134 
L -19 4134 
L -19 4666 
z
" transform="scale(0.015625)"/>
       <path id="DejaVuSans-68" d="M 3513 2113 
L 3513 0 
L 2938 0 
L 2938 2094 
Q 2938 2591 2744 2837 
Q 2550 3084 2163 3084 
Q 1697 3084 1428 2787 
Q 1159 2491 1159 1978 
L 1159 0 
L 581 0 
L 581 4863 
L 1159 4863 
L 1159 2956 
Q 1366 3272 1645 3428 
Q 1925 3584 2291 3584 
Q 2894 3584 3203 3211 
Q 3513 2838 3513 2113 
z
" transform="scale(0.015625)"/>
       <path id="DejaVuSans-64" d="M 2906 2969 
L 2906 4863 
L 3481 4863 
L 3481 0 
L 2906 0 
L 2906 525 
Q 2725 213 2448 61 
Q 2172 -91 1784 -91 
Q 1150 -91 751 415 
Q 353 922 353 1747 
Q 353 2572 751 3078 
Q 1150 3584 1784 3584 
Q 2172 3584 2448 3432 
Q 2725 3281 2906 2969 
z
M 947 1747 
Q 947 1113 1208 752 
Q 1469 391 1925 391 
Q 2381 391 2643 752 
Q 2906 1113 2906 1747 
Q 2906 2381 2643 2742 
Q 2381 3103 1925 3103 
Q 1469 3103 1208 2742 
Q 947 2381 947 1747 
z
" transform="scale(0.015625)"/>
      </defs>
      <use xlink:href="#DejaVuSans-54"/>
      <use xlink:href="#DejaVuSans-68" x="61.083984"/>
      <use xlink:href="#DejaVuSans-72" x="124.462891"/>
      <use xlink:href="#DejaVuSans-65" x="163.326172"/>
      <use xlink:href="#DejaVuSans-73" x="224.849609"/>
      <use xlink:href="#DejaVuSans-68" x="276.949219"/>
      <use xlink:href="#DejaVuSans-6f" x="340.328125"/>
      <use xlink:href="#DejaVuSans-6c" x="401.509766"/>
      <use xlink:href="#DejaVuSans-64" x="429.292969"/>
     </g>
    </g>
   </g>
  </g>
  <g id="axes_2">
   <g id="patch_57">
    <path d="M 44.57 199.72 
L 442.0575 199.72 
L 442.0575 153.12 
L 44.57 153.12 
z
" style="fill: #ffffff"/>
   </g>
   <g id="patch_58">
    <path d="M 44.57 199.72 
L 52.68199 199.72 
L 52.68199 199.72 
L 44.57 199.72 
z
" clip-path="url(#p037956a37b)" style="fill: #ff0000"/>
   </g>
   <g id="patch_59">
    <path d="M 52.68199 199.72 
L 60.79398 199.72 
L 60.79398 199.72 
L 52.68199 199.72 
z
" clip-path="url(#p037956a37b)" style="fill: #ff0000"/>
   </g>
   <g id="patch_60">
    <path d="M 60.79398 199.72 
L 68.905969 199.72 
L 68.905969 199.72 
L 60.79398 199.72 
z
" clip-path="url(#p037956a37b)" style="fill: #ff0000"/>
   </g>
   <g id="patch_61">
    <path d="M 68.905969 199.72 
L 77.017959 199.72 
L 77.017959 199.184368 
L 68.905969 199.184368 
z
" clip-path="url(#p037956a37b)" style="fill: #ff0000"/>
   </g>
   <g id="patch_62">
    <path d="M 77.017959 199.72 
L 85.129949 199.72 
L 85.129949 199.72 
L 77.017959 199.72 
z
" clip-path="url(#p037956a37b)" style="fill: #ff0000"/>
   </g>
   <g id="patch_63">
    <path d="M 85.129949 199.72 
L 93.241939 199.72 
L 93.241939 198.113103 
L 85.129949 198.113103 
z
" clip-path="url(#p037956a37b)" style="fill: #ff0000"/>
   </g>
   <g id="patch_64">
    <path d="M 93.241939 199.72 
L 101.353929 199.72 
L 101.353929 197.041839 
L 93.241939 197.041839 
z
" clip-path="url(#p037956a37b)" style="fill: #ff0000"/>
   </g>
   <g id="patch_65">
    <path d="M 101.353929 199.72 
L 109.465918 199.72 
L 109.465918 194.363678 
L 101.353929 194.363678 
z
" clip-path="url(#p037956a37b)" style="fill: #ff0000"/>
   </g>
   <g id="patch_66">
    <path d="M 109.465918 199.72 
L 117.577908 199.72 
L 117.577908 194.89931 
L 109.465918 194.89931 
z
" clip-path="url(#p037956a37b)" style="fill: #ff0000"/>
   </g>
   <g id="patch_67">
    <path d="M 117.577908 199.72 
L 125.689898 199.72 
L 125.689898 189.007356 
L 117.577908 189.007356 
z
" clip-path="url(#p037956a37b)" style="fill: #ff0000"/>
   </g>
   <g id="patch_68">
    <path d="M 125.689898 199.72 
L 133.801888 199.72 
L 133.801888 189.007356 
L 125.689898 189.007356 
z
" clip-path="url(#p037956a37b)" style="fill: #ff0000"/>
   </g>
   <g id="patch_69">
    <path d="M 133.801888 199.72 
L 141.913878 199.72 
L 141.913878 180.972874 
L 133.801888 180.972874 
z
" clip-path="url(#p037956a37b)" style="fill: #ff0000"/>
   </g>
   <g id="patch_70">
    <path d="M 141.913878 199.72 
L 150.025867 199.72 
L 150.025867 180.437241 
L 141.913878 180.437241 
z
" clip-path="url(#p037956a37b)" style="fill: #ff0000"/>
   </g>
   <g id="patch_71">
    <path d="M 150.025867 199.72 
L 158.137857 199.72 
L 158.137857 175.08092 
L 150.025867 175.08092 
z
" clip-path="url(#p037956a37b)" style="fill: #ff0000"/>
   </g>
   <g id="patch_72">
    <path d="M 158.137857 199.72 
L 166.249847 199.72 
L 166.249847 175.616552 
L 158.137857 175.616552 
z
" clip-path="url(#p037956a37b)" style="fill: #ff0000"/>
   </g>
   <g id="patch_73">
    <path d="M 166.249847 199.72 
L 174.361837 199.72 
L 174.361837 170.26023 
L 166.249847 170.26023 
z
" clip-path="url(#p037956a37b)" style="fill: #ff0000"/>
   </g>
   <g id="patch_74">
    <path d="M 174.361837 199.72 
L 182.473827 199.72 
L 182.473827 172.402759 
L 174.361837 172.402759 
z
" clip-path="url(#p037956a37b)" style="fill: #ff0000"/>
   </g>
   <g id="patch_75">
    <path d="M 182.473827 199.72 
L 190.585816 199.72 
L 190.585816 167.046437 
L 182.473827 167.046437 
z
" clip-path="url(#p037956a37b)" style="fill: #ff0000"/>
   </g>
   <g id="patch_76">
    <path d="M 190.585816 199.72 
L 198.697806 199.72 
L 198.697806 166.510805 
L 190.585816 166.510805 
z
" clip-path="url(#p037956a37b)" style="fill: #ff0000"/>
   </g>
   <g id="patch_77">
    <path d="M 198.697806 199.72 
L 206.809796 199.72 
L 206.809796 171.867126 
L 198.697806 171.867126 
z
" clip-path="url(#p037956a37b)" style="fill: #ff0000"/>
   </g>
   <g id="patch_78">
    <path d="M 206.809796 199.72 
L 214.921786 199.72 
L 214.921786 180.972874 
L 206.809796 180.972874 
z
" clip-path="url(#p037956a37b)" style="fill: #ff0000"/>
   </g>
   <g id="patch_79">
    <path d="M 214.921786 199.72 
L 223.033776 199.72 
L 223.033776 187.936092 
L 214.921786 187.936092 
z
" clip-path="url(#p037956a37b)" style="fill: #ff0000"/>
   </g>
   <g id="patch_80">
    <path d="M 223.033776 199.72 
L 231.145765 199.72 
L 231.145765 181.508506 
L 223.033776 181.508506 
z
" clip-path="url(#p037956a37b)" style="fill: #ff0000"/>
   </g>
   <g id="patch_81">
    <path d="M 231.145765 199.72 
L 239.257755 199.72 
L 239.257755 189.007356 
L 231.145765 189.007356 
z
" clip-path="url(#p037956a37b)" style="fill: #ff0000"/>
   </g>
   <g id="patch_82">
    <path d="M 239.257755 199.72 
L 247.369745 199.72 
L 247.369745 187.936092 
L 239.257755 187.936092 
z
" clip-path="url(#p037956a37b)" style="fill: #ff0000"/>
   </g>
   <g id="patch_83">
    <path d="M 247.369745 199.72 
L 255.481735 199.72 
L 255.481735 189.542989 
L 247.369745 189.542989 
z
" clip-path="url(#p037956a37b)" style="fill: #ff0000"/>
   </g>
   <g id="patch_84">
    <path d="M 255.481735 199.72 
L 263.593724 199.72 
L 263.593724 190.614253 
L 255.481735 190.614253 
z
" clip-path="url(#p037956a37b)" style="fill: #ff0000"/>
   </g>
   <g id="patch_85">
    <path d="M 263.593724 199.72 
L 271.705714 199.72 
L 271.705714 191.685517 
L 263.593724 191.685517 
z
" clip-path="url(#p037956a37b)" style="fill: #ff0000"/>
   </g>
   <g id="patch_86">
    <path d="M 271.705714 199.72 
L 279.817704 199.72 
L 279.817704 194.363678 
L 271.705714 194.363678 
z
" clip-path="url(#p037956a37b)" style="fill: #ff0000"/>
   </g>
   <g id="patch_87">
    <path d="M 279.817704 199.72 
L 287.929694 199.72 
L 287.929694 194.89931 
L 279.817704 194.89931 
z
" clip-path="url(#p037956a37b)" style="fill: #ff0000"/>
   </g>
   <g id="patch_88">
    <path d="M 287.929694 199.72 
L 296.041684 199.72 
L 296.041684 191.685517 
L 287.929694 191.685517 
z
" clip-path="url(#p037956a37b)" style="fill: #ff0000"/>
   </g>
   <g id="patch_89">
    <path d="M 296.041684 199.72 
L 304.153673 199.72 
L 304.153673 194.89931 
L 296.041684 194.89931 
z
" clip-path="url(#p037956a37b)" style="fill: #ff0000"/>
   </g>
   <g id="patch_90">
    <path d="M 304.153673 199.72 
L 312.265663 199.72 
L 312.265663 194.89931 
L 304.153673 194.89931 
z
" clip-path="url(#p037956a37b)" style="fill: #ff0000"/>
   </g>
   <g id="patch_91">
    <path d="M 312.265663 199.72 
L 320.377653 199.72 
L 320.377653 197.577471 
L 312.265663 197.577471 
z
" clip-path="url(#p037956a37b)" style="fill: #ff0000"/>
   </g>
   <g id="patch_92">
    <path d="M 320.377653 199.72 
L 328.489643 199.72 
L 328.489643 195.970575 
L 320.377653 195.970575 
z
" clip-path="url(#p037956a37b)" style="fill: #ff0000"/>
   </g>
   <g id="patch_93">
    <path d="M 328.489643 199.72 
L 336.601633 199.72 
L 336.601633 197.577471 
L 328.489643 197.577471 
z
" clip-path="url(#p037956a37b)" style="fill: #ff0000"/>
   </g>
   <g id="patch_94">
    <path d="M 336.601633 199.72 
L 344.713622 199.72 
L 344.713622 197.041839 
L 336.601633 197.041839 
z
" clip-path="url(#p037956a37b)" style="fill: #ff0000"/>
   </g>
   <g id="patch_95">
    <path d="M 344.713622 199.72 
L 352.825612 199.72 
L 352.825612 198.113103 
L 344.713622 198.113103 
z
" clip-path="url(#p037956a37b)" style="fill: #ff0000"/>
   </g>
   <g id="patch_96">
    <path d="M 352.825612 199.72 
L 360.937602 199.72 
L 360.937602 197.041839 
L 352.825612 197.041839 
z
" clip-path="url(#p037956a37b)" style="fill: #ff0000"/>
   </g>
   <g id="patch_97">
    <path d="M 360.937602 199.72 
L 369.049592 199.72 
L 369.049592 199.72 
L 360.937602 199.72 
z
" clip-path="url(#p037956a37b)" style="fill: #ff0000"/>
   </g>
   <g id="patch_98">
    <path d="M 369.049592 199.72 
L 377.161582 199.72 
L 377.161582 199.72 
L 369.049592 199.72 
z
" clip-path="url(#p037956a37b)" style="fill: #ff0000"/>
   </g>
   <g id="patch_99">
    <path d="M 377.161582 199.72 
L 385.273571 199.72 
L 385.273571 198.648736 
L 377.161582 198.648736 
z
" clip-path="url(#p037956a37b)" style="fill: #ff0000"/>
   </g>
   <g id="patch_100">
    <path d="M 385.273571 199.72 
L 393.385561 199.72 
L 393.385561 199.72 
L 385.273571 199.72 
z
" clip-path="url(#p037956a37b)" style="fill: #ff0000"/>
   </g>
   <g id="patch_101">
    <path d="M 393.385561 199.72 
L 401.497551 199.72 
L 401.497551 199.184368 
L 393.385561 199.184368 
z
" clip-path="url(#p037956a37b)" style="fill: #ff0000"/>
   </g>
   <g id="patch_102">
    <path d="M 401.497551 199.72 
L 409.609541 199.72 
L 409.609541 199.184368 
L 401.497551 199.184368 
z
" clip-path="url(#p037956a37b)" style="fill: #ff0000"/>
   </g>
   <g id="patch_103">
    <path d="M 409.609541 199.72 
L 417.721531 199.72 
L 417.721531 199.72 
L 409.609541 199.72 
z
" clip-path="url(#p037956a37b)" style="fill: #ff0000"/>
   </g>
   <g id="patch_104">
    <path d="M 417.721531 199.72 
L 425.83352 199.72 
L 425.83352 199.72 
L 417.721531 199.72 
z
" clip-path="url(#p037956a37b)" style="fill: #ff0000"/>
   </g>
   <g id="patch_105">
    <path d="M 425.83352 199.72 
L 433.94551 199.72 
L 433.94551 199.72 
L 425.83352 199.72 
z
" clip-path="url(#p037956a37b)" style="fill: #ff0000"/>
   </g>
   <g id="patch_106">
    <path d="M 433.94551 199.72 
L 442.0575 199.72 
L 442.0575 199.72 
L 433.94551 199.72 
z
" clip-path="url(#p037956a37b)" style="fill: #ff0000"/>
   </g>
   <g id="matplotlib.axis_3">
    <g id="xtick_8">
     <g id="line2d_11">
      <g>
       <use xlink:href="#m04712d4cee" x="44.57" y="199.72" style="stroke: #000000; stroke-width: 0.8"/>
      </g>
     </g>
     <g id="text_14">
      <!-- 2.0 -->
      <g transform="translate(36.618437 214.318437) scale(0.1 -0.1)">
       <use xlink:href="#DejaVuSans-32"/>
       <use xlink:href="#DejaVuSans-2e" x="63.623047"/>
       <use xlink:href="#DejaVuSans-30" x="95.410156"/>
      </g>
     </g>
    </g>
    <g id="xtick_9">
     <g id="line2d_12">
      <g>
       <use xlink:href="#m04712d4cee" x="110.817917" y="199.72" style="stroke: #000000; stroke-width: 0.8"/>
      </g>
     </g>
     <g id="text_15">
      <!-- 2.5 -->
      <g transform="translate(102.866354 214.318437) scale(0.1 -0.1)">
       <use xlink:href="#DejaVuSans-32"/>
       <use xlink:href="#DejaVuSans-2e" x="63.623047"/>
       <use xlink:href="#DejaVuSans-35" x="95.410156"/>
      </g>
     </g>
    </g>
    <g id="xtick_10">
     <g id="line2d_13">
      <g>
       <use xlink:href="#m04712d4cee" x="177.065833" y="199.72" style="stroke: #000000; stroke-width: 0.8"/>
      </g>
     </g>
     <g id="text_16">
      <!-- 3.0 -->
      <g transform="translate(169.114271 214.318437) scale(0.1 -0.1)">
       <use xlink:href="#DejaVuSans-33"/>
       <use xlink:href="#DejaVuSans-2e" x="63.623047"/>
       <use xlink:href="#DejaVuSans-30" x="95.410156"/>
      </g>
     </g>
    </g>
    <g id="xtick_11">
     <g id="line2d_14">
      <g>
       <use xlink:href="#m04712d4cee" x="243.31375" y="199.72" style="stroke: #000000; stroke-width: 0.8"/>
      </g>
     </g>
     <g id="text_17">
      <!-- 3.5 -->
      <g transform="translate(235.362187 214.318437) scale(0.1 -0.1)">
       <use xlink:href="#DejaVuSans-33"/>
       <use xlink:href="#DejaVuSans-2e" x="63.623047"/>
       <use xlink:href="#DejaVuSans-35" x="95.410156"/>
      </g>
     </g>
    </g>
    <g id="xtick_12">
     <g id="line2d_15">
      <g>
       <use xlink:href="#m04712d4cee" x="309.561667" y="199.72" style="stroke: #000000; stroke-width: 0.8"/>
      </g>
     </g>
     <g id="text_18">
      <!-- 4.0 -->
      <g transform="translate(301.610104 214.318437) scale(0.1 -0.1)">
       <use xlink:href="#DejaVuSans-34"/>
       <use xlink:href="#DejaVuSans-2e" x="63.623047"/>
       <use xlink:href="#DejaVuSans-30" x="95.410156"/>
      </g>
     </g>
    </g>
    <g id="xtick_13">
     <g id="line2d_16">
      <g>
       <use xlink:href="#m04712d4cee" x="375.809583" y="199.72" style="stroke: #000000; stroke-width: 0.8"/>
      </g>
     </g>
     <g id="text_19">
      <!-- 4.5 -->
      <g transform="translate(367.858021 214.318437) scale(0.1 -0.1)">
       <use xlink:href="#DejaVuSans-34"/>
       <use xlink:href="#DejaVuSans-2e" x="63.623047"/>
       <use xlink:href="#DejaVuSans-35" x="95.410156"/>
      </g>
     </g>
    </g>
    <g id="xtick_14">
     <g id="line2d_17">
      <g>
       <use xlink:href="#m04712d4cee" x="442.0575" y="199.72" style="stroke: #000000; stroke-width: 0.8"/>
      </g>
     </g>
     <g id="text_20">
      <!-- 5.0 -->
      <g transform="translate(434.105938 214.318437) scale(0.1 -0.1)">
       <use xlink:href="#DejaVuSans-35"/>
       <use xlink:href="#DejaVuSans-2e" x="63.623047"/>
       <use xlink:href="#DejaVuSans-30" x="95.410156"/>
      </g>
     </g>
    </g>
    <g id="text_21">
     <!-- log(MNV) -->
     <g transform="translate(220.314531 227.996562) scale(0.1 -0.1)">
      <use xlink:href="#DejaVuSans-6c"/>
      <use xlink:href="#DejaVuSans-6f" x="27.783203"/>
      <use xlink:href="#DejaVuSans-67" x="88.964844"/>
      <use xlink:href="#DejaVuSans-28" x="152.441406"/>
      <use xlink:href="#DejaVuSans-4d" x="191.455078"/>
      <use xlink:href="#DejaVuSans-4e" x="277.734375"/>
      <use xlink:href="#DejaVuSans-56" x="352.539062"/>
      <use xlink:href="#DejaVuSans-29" x="420.947266"/>
     </g>
    </g>
   </g>
   <g id="matplotlib.axis_4">
    <g id="ytick_3">
     <g id="line2d_18">
      <g>
       <use xlink:href="#mfaf5c699da" x="44.57" y="199.72" style="stroke: #000000; stroke-width: 0.8"/>
      </g>
     </g>
     <g id="text_22">
      <!-- 0 -->
      <g transform="translate(31.2075 203.519219) scale(0.1 -0.1)">
       <use xlink:href="#DejaVuSans-30"/>
      </g>
     </g>
    </g>
    <g id="ytick_4">
     <g id="line2d_19">
      <g>
       <use xlink:href="#mfaf5c699da" x="44.57" y="172.938391" style="stroke: #000000; stroke-width: 0.8"/>
      </g>
     </g>
     <g id="text_23">
      <!-- 50 -->
      <g transform="translate(24.845 176.73761) scale(0.1 -0.1)">
       <use xlink:href="#DejaVuSans-35"/>
       <use xlink:href="#DejaVuSans-30" x="63.623047"/>
      </g>
     </g>
    </g>
    <g id="text_24">
     <!-- Voxel Count -->
     <g transform="translate(18.765313 206.062187) rotate(-90) scale(0.1 -0.1)">
      <use xlink:href="#DejaVuSans-56"/>
      <use xlink:href="#DejaVuSans-6f" x="60.658203"/>
      <use xlink:href="#DejaVuSans-78" x="118.714844"/>
      <use xlink:href="#DejaVuSans-65" x="174.769531"/>
      <use xlink:href="#DejaVuSans-6c" x="236.292969"/>
      <use xlink:href="#DejaVuSans-20" x="264.076172"/>
      <use xlink:href="#DejaVuSans-43" x="295.863281"/>
      <use xlink:href="#DejaVuSans-6f" x="365.6875"/>
      <use xlink:href="#DejaVuSans-75" x="426.869141"/>
      <use xlink:href="#DejaVuSans-6e" x="490.248047"/>
      <use xlink:href="#DejaVuSans-74" x="553.626953"/>
     </g>
    </g>
   </g>
   <g id="LineCollection_2">
    <path d="M 250.463852 199.72 
L 250.463852 117.232644 
" clip-path="url(#p037956a37b)" style="fill: none; stroke-dasharray: 5.55,2.4; stroke-dashoffset: 0; stroke: #000000; stroke-width: 1.5"/>
   </g>
   <g id="patch_107">
    <path d="M 44.57 199.72 
L 44.57 153.12 
" style="fill: none; stroke: #000000; stroke-width: 0.8; stroke-linejoin: miter; stroke-linecap: square"/>
   </g>
   <g id="patch_108">
    <path d="M 442.0575 199.72 
L 442.0575 153.12 
" style="fill: none; stroke: #000000; stroke-width: 0.8; stroke-linejoin: miter; stroke-linecap: square"/>
   </g>
   <g id="patch_109">
    <path d="M 44.57 199.72 
L 442.0575 199.72 
" style="fill: none; stroke: #000000; stroke-width: 0.8; stroke-linejoin: miter; stroke-linecap: square"/>
   </g>
   <g id="patch_110">
    <path d="M 44.57 153.12 
L 442.0575 153.12 
" style="fill: none; stroke: #000000; stroke-width: 0.8; stroke-linejoin: miter; stroke-linecap: square"/>
   </g>
   <g id="text_25">
    <!-- middle -->
    <g transform="translate(222.825625 147.12) scale(0.12 -0.12)">
     <defs>
      <path id="DejaVuSans-6d" d="M 3328 2828 
Q 3544 3216 3844 3400 
Q 4144 3584 4550 3584 
Q 5097 3584 5394 3201 
Q 5691 2819 5691 2113 
L 5691 0 
L 5113 0 
L 5113 2094 
Q 5113 2597 4934 2840 
Q 4756 3084 4391 3084 
Q 3944 3084 3684 2787 
Q 3425 2491 3425 1978 
L 3425 0 
L 2847 0 
L 2847 2094 
Q 2847 2600 2669 2842 
Q 2491 3084 2119 3084 
Q 1678 3084 1418 2786 
Q 1159 2488 1159 1978 
L 1159 0 
L 581 0 
L 581 3500 
L 1159 3500 
L 1159 2956 
Q 1356 3278 1631 3431 
Q 1906 3584 2284 3584 
Q 2666 3584 2933 3390 
Q 3200 3197 3328 2828 
z
" transform="scale(0.015625)"/>
     </defs>
     <use xlink:href="#DejaVuSans-6d"/>
     <use xlink:href="#DejaVuSans-69" x="97.412109"/>
     <use xlink:href="#DejaVuSans-64" x="125.195312"/>
     <use xlink:href="#DejaVuSans-64" x="188.671875"/>
     <use xlink:href="#DejaVuSans-6c" x="252.148438"/>
     <use xlink:href="#DejaVuSans-65" x="279.931641"/>
    </g>
   </g>
   <g id="legend_2">
    <g id="patch_111">
     <path d="M 353.780938 175.798125 
L 435.0575 175.798125 
Q 437.0575 175.798125 437.0575 173.798125 
L 437.0575 160.12 
Q 437.0575 158.12 435.0575 158.12 
L 353.780938 158.12 
Q 351.780938 158.12 351.780938 160.12 
L 351.780938 173.798125 
Q 351.780938 175.798125 353.780938 175.798125 
z
" style="fill: #ffffff; opacity: 0.8; stroke: #cccccc; stroke-linejoin: miter"/>
    </g>
    <g id="line2d_20">
     <path d="M 355.780938 166.218437 
L 375.780938 166.218437 
" style="fill: none; stroke-dasharray: 5.55,2.4; stroke-dashoffset: 0; stroke: #000000; stroke-width: 1.5"/>
    </g>
    <g id="text_26">
     <!-- Threshold -->
     <g transform="translate(383.780938 169.718437) scale(0.1 -0.1)">
      <use xlink:href="#DejaVuSans-54"/>
      <use xlink:href="#DejaVuSans-68" x="61.083984"/>
      <use xlink:href="#DejaVuSans-72" x="124.462891"/>
      <use xlink:href="#DejaVuSans-65" x="163.326172"/>
      <use xlink:href="#DejaVuSans-73" x="224.849609"/>
      <use xlink:href="#DejaVuSans-68" x="276.949219"/>
      <use xlink:href="#DejaVuSans-6f" x="340.328125"/>
      <use xlink:href="#DejaVuSans-6c" x="401.509766"/>
      <use xlink:href="#DejaVuSans-64" x="429.292969"/>
     </g>
    </g>
   </g>
  </g>
  <g id="axes_3">
   <g id="patch_112">
    <path d="M 44.57 303.64 
L 442.0575 303.64 
L 442.0575 257.04 
L 44.57 257.04 
z
" style="fill: #ffffff"/>
   </g>
   <g id="patch_113">
    <path d="M 44.57 303.64 
L 52.68199 303.64 
L 52.68199 303.64 
L 44.57 303.64 
z
" clip-path="url(#p46d1a69543)" style="fill: #ff0000"/>
   </g>
   <g id="patch_114">
    <path d="M 52.68199 303.64 
L 60.79398 303.64 
L 60.79398 303.64 
L 52.68199 303.64 
z
" clip-path="url(#p46d1a69543)" style="fill: #ff0000"/>
   </g>
   <g id="patch_115">
    <path d="M 60.79398 303.64 
L 68.905969 303.64 
L 68.905969 303.64 
L 60.79398 303.64 
z
" clip-path="url(#p46d1a69543)" style="fill: #ff0000"/>
   </g>
   <g id="patch_116">
    <path d="M 68.905969 303.64 
L 77.017959 303.64 
L 77.017959 303.64 
L 68.905969 303.64 
z
" clip-path="url(#p46d1a69543)" style="fill: #ff0000"/>
   </g>
   <g id="patch_117">
    <path d="M 77.017959 303.64 
L 85.129949 303.64 
L 85.129949 302.033103 
L 77.017959 302.033103 
z
" clip-path="url(#p46d1a69543)" style="fill: #ff0000"/>
   </g>
   <g id="patch_118">
    <path d="M 85.129949 303.64 
L 93.241939 303.64 
L 93.241939 302.568736 
L 85.129949 302.568736 
z
" clip-path="url(#p46d1a69543)" style="fill: #ff0000"/>
   </g>
   <g id="patch_119">
    <path d="M 93.241939 303.64 
L 101.353929 303.64 
L 101.353929 299.890575 
L 93.241939 299.890575 
z
" clip-path="url(#p46d1a69543)" style="fill: #ff0000"/>
   </g>
   <g id="patch_120">
    <path d="M 101.353929 303.64 
L 109.465918 303.64 
L 109.465918 296.141149 
L 101.353929 296.141149 
z
" clip-path="url(#p46d1a69543)" style="fill: #ff0000"/>
   </g>
   <g id="patch_121">
    <path d="M 109.465918 303.64 
L 117.577908 303.64 
L 117.577908 292.927356 
L 109.465918 292.927356 
z
" clip-path="url(#p46d1a69543)" style="fill: #ff0000"/>
   </g>
   <g id="patch_122">
    <path d="M 117.577908 303.64 
L 125.689898 303.64 
L 125.689898 287.035402 
L 117.577908 287.035402 
z
" clip-path="url(#p46d1a69543)" style="fill: #ff0000"/>
   </g>
   <g id="patch_123">
    <path d="M 125.689898 303.64 
L 133.801888 303.64 
L 133.801888 291.856092 
L 125.689898 291.856092 
z
" clip-path="url(#p46d1a69543)" style="fill: #ff0000"/>
   </g>
   <g id="patch_124">
    <path d="M 133.801888 303.64 
L 141.913878 303.64 
L 141.913878 282.750345 
L 133.801888 282.750345 
z
" clip-path="url(#p46d1a69543)" style="fill: #ff0000"/>
   </g>
   <g id="patch_125">
    <path d="M 141.913878 303.64 
L 150.025867 303.64 
L 150.025867 281.143448 
L 141.913878 281.143448 
z
" clip-path="url(#p46d1a69543)" style="fill: #ff0000"/>
   </g>
   <g id="patch_126">
    <path d="M 150.025867 303.64 
L 158.137857 303.64 
L 158.137857 274.18023 
L 150.025867 274.18023 
z
" clip-path="url(#p46d1a69543)" style="fill: #ff0000"/>
   </g>
   <g id="patch_127">
    <path d="M 158.137857 303.64 
L 166.249847 303.64 
L 166.249847 279.536552 
L 158.137857 279.536552 
z
" clip-path="url(#p46d1a69543)" style="fill: #ff0000"/>
   </g>
   <g id="patch_128">
    <path d="M 166.249847 303.64 
L 174.361837 303.64 
L 174.361837 277.394023 
L 166.249847 277.394023 
z
" clip-path="url(#p46d1a69543)" style="fill: #ff0000"/>
   </g>
   <g id="patch_129">
    <path d="M 174.361837 303.64 
L 182.473827 303.64 
L 182.473827 266.681379 
L 174.361837 266.681379 
z
" clip-path="url(#p46d1a69543)" style="fill: #ff0000"/>
   </g>
   <g id="patch_130">
    <path d="M 182.473827 303.64 
L 190.585816 303.64 
L 190.585816 272.037701 
L 182.473827 272.037701 
z
" clip-path="url(#p46d1a69543)" style="fill: #ff0000"/>
   </g>
   <g id="patch_131">
    <path d="M 190.585816 303.64 
L 198.697806 303.64 
L 198.697806 268.823908 
L 190.585816 268.823908 
z
" clip-path="url(#p46d1a69543)" style="fill: #ff0000"/>
   </g>
   <g id="patch_132">
    <path d="M 198.697806 303.64 
L 206.809796 303.64 
L 206.809796 280.072184 
L 198.697806 280.072184 
z
" clip-path="url(#p46d1a69543)" style="fill: #ff0000"/>
   </g>
   <g id="patch_133">
    <path d="M 206.809796 303.64 
L 214.921786 303.64 
L 214.921786 284.357241 
L 206.809796 284.357241 
z
" clip-path="url(#p46d1a69543)" style="fill: #ff0000"/>
   </g>
   <g id="patch_134">
    <path d="M 214.921786 303.64 
L 223.033776 303.64 
L 223.033776 285.964138 
L 214.921786 285.964138 
z
" clip-path="url(#p46d1a69543)" style="fill: #ff0000"/>
   </g>
   <g id="patch_135">
    <path d="M 223.033776 303.64 
L 231.145765 303.64 
L 231.145765 291.32046 
L 223.033776 291.32046 
z
" clip-path="url(#p46d1a69543)" style="fill: #ff0000"/>
   </g>
   <g id="patch_136">
    <path d="M 231.145765 303.64 
L 239.257755 303.64 
L 239.257755 289.713563 
L 231.145765 289.713563 
z
" clip-path="url(#p46d1a69543)" style="fill: #ff0000"/>
   </g>
   <g id="patch_137">
    <path d="M 239.257755 303.64 
L 247.369745 303.64 
L 247.369745 300.426207 
L 239.257755 300.426207 
z
" clip-path="url(#p46d1a69543)" style="fill: #ff0000"/>
   </g>
   <g id="patch_138">
    <path d="M 247.369745 303.64 
L 255.481735 303.64 
L 255.481735 301.497471 
L 247.369745 301.497471 
z
" clip-path="url(#p46d1a69543)" style="fill: #ff0000"/>
   </g>
   <g id="patch_139">
    <path d="M 255.481735 303.64 
L 263.593724 303.64 
L 263.593724 298.81931 
L 255.481735 298.81931 
z
" clip-path="url(#p46d1a69543)" style="fill: #ff0000"/>
   </g>
   <g id="patch_140">
    <path d="M 263.593724 303.64 
L 271.705714 303.64 
L 271.705714 299.890575 
L 263.593724 299.890575 
z
" clip-path="url(#p46d1a69543)" style="fill: #ff0000"/>
   </g>
   <g id="patch_141">
    <path d="M 271.705714 303.64 
L 279.817704 303.64 
L 279.817704 302.568736 
L 271.705714 302.568736 
z
" clip-path="url(#p46d1a69543)" style="fill: #ff0000"/>
   </g>
   <g id="patch_142">
    <path d="M 279.817704 303.64 
L 287.929694 303.64 
L 287.929694 300.961839 
L 279.817704 300.961839 
z
" clip-path="url(#p46d1a69543)" style="fill: #ff0000"/>
   </g>
   <g id="patch_143">
    <path d="M 287.929694 303.64 
L 296.041684 303.64 
L 296.041684 302.568736 
L 287.929694 302.568736 
z
" clip-path="url(#p46d1a69543)" style="fill: #ff0000"/>
   </g>
   <g id="patch_144">
    <path d="M 296.041684 303.64 
L 304.153673 303.64 
L 304.153673 303.64 
L 296.041684 303.64 
z
" clip-path="url(#p46d1a69543)" style="fill: #ff0000"/>
   </g>
   <g id="patch_145">
    <path d="M 304.153673 303.64 
L 312.265663 303.64 
L 312.265663 303.64 
L 304.153673 303.64 
z
" clip-path="url(#p46d1a69543)" style="fill: #ff0000"/>
   </g>
   <g id="patch_146">
    <path d="M 312.265663 303.64 
L 320.377653 303.64 
L 320.377653 303.64 
L 312.265663 303.64 
z
" clip-path="url(#p46d1a69543)" style="fill: #ff0000"/>
   </g>
   <g id="patch_147">
    <path d="M 320.377653 303.64 
L 328.489643 303.64 
L 328.489643 303.64 
L 320.377653 303.64 
z
" clip-path="url(#p46d1a69543)" style="fill: #ff0000"/>
   </g>
   <g id="patch_148">
    <path d="M 328.489643 303.64 
L 336.601633 303.64 
L 336.601633 303.104368 
L 328.489643 303.104368 
z
" clip-path="url(#p46d1a69543)" style="fill: #ff0000"/>
   </g>
   <g id="patch_149">
    <path d="M 336.601633 303.64 
L 344.713622 303.64 
L 344.713622 303.104368 
L 336.601633 303.104368 
z
" clip-path="url(#p46d1a69543)" style="fill: #ff0000"/>
   </g>
   <g id="patch_150">
    <path d="M 344.713622 303.64 
L 352.825612 303.64 
L 352.825612 303.104368 
L 344.713622 303.104368 
z
" clip-path="url(#p46d1a69543)" style="fill: #ff0000"/>
   </g>
   <g id="patch_151">
    <path d="M 352.825612 303.64 
L 360.937602 303.64 
L 360.937602 303.64 
L 352.825612 303.64 
z
" clip-path="url(#p46d1a69543)" style="fill: #ff0000"/>
   </g>
   <g id="patch_152">
    <path d="M 360.937602 303.64 
L 369.049592 303.64 
L 369.049592 303.104368 
L 360.937602 303.104368 
z
" clip-path="url(#p46d1a69543)" style="fill: #ff0000"/>
   </g>
   <g id="patch_153">
    <path d="M 369.049592 303.64 
L 377.161582 303.64 
L 377.161582 303.64 
L 369.049592 303.64 
z
" clip-path="url(#p46d1a69543)" style="fill: #ff0000"/>
   </g>
   <g id="patch_154">
    <path d="M 377.161582 303.64 
L 385.273571 303.64 
L 385.273571 303.64 
L 377.161582 303.64 
z
" clip-path="url(#p46d1a69543)" style="fill: #ff0000"/>
   </g>
   <g id="patch_155">
    <path d="M 385.273571 303.64 
L 393.385561 303.64 
L 393.385561 303.64 
L 385.273571 303.64 
z
" clip-path="url(#p46d1a69543)" style="fill: #ff0000"/>
   </g>
   <g id="patch_156">
    <path d="M 393.385561 303.64 
L 401.497551 303.64 
L 401.497551 303.64 
L 393.385561 303.64 
z
" clip-path="url(#p46d1a69543)" style="fill: #ff0000"/>
   </g>
   <g id="patch_157">
    <path d="M 401.497551 303.64 
L 409.609541 303.64 
L 409.609541 303.64 
L 401.497551 303.64 
z
" clip-path="url(#p46d1a69543)" style="fill: #ff0000"/>
   </g>
   <g id="patch_158">
    <path d="M 409.609541 303.64 
L 417.721531 303.64 
L 417.721531 303.64 
L 409.609541 303.64 
z
" clip-path="url(#p46d1a69543)" style="fill: #ff0000"/>
   </g>
   <g id="patch_159">
    <path d="M 417.721531 303.64 
L 425.83352 303.64 
L 425.83352 303.64 
L 417.721531 303.64 
z
" clip-path="url(#p46d1a69543)" style="fill: #ff0000"/>
   </g>
   <g id="patch_160">
    <path d="M 425.83352 303.64 
L 433.94551 303.64 
L 433.94551 303.64 
L 425.83352 303.64 
z
" clip-path="url(#p46d1a69543)" style="fill: #ff0000"/>
   </g>
   <g id="patch_161">
    <path d="M 433.94551 303.64 
L 442.0575 303.64 
L 442.0575 303.64 
L 433.94551 303.64 
z
" clip-path="url(#p46d1a69543)" style="fill: #ff0000"/>
   </g>
   <g id="matplotlib.axis_5">
    <g id="xtick_15">
     <g id="line2d_21">
      <g>
       <use xlink:href="#m04712d4cee" x="44.57" y="303.64" style="stroke: #000000; stroke-width: 0.8"/>
      </g>
     </g>
     <g id="text_27">
      <!-- 2.0 -->
      <g transform="translate(36.618437 318.238438) scale(0.1 -0.1)">
       <use xlink:href="#DejaVuSans-32"/>
       <use xlink:href="#DejaVuSans-2e" x="63.623047"/>
       <use xlink:href="#DejaVuSans-30" x="95.410156"/>
      </g>
     </g>
    </g>
    <g id="xtick_16">
     <g id="line2d_22">
      <g>
       <use xlink:href="#m04712d4cee" x="110.817917" y="303.64" style="stroke: #000000; stroke-width: 0.8"/>
      </g>
     </g>
     <g id="text_28">
      <!-- 2.5 -->
      <g transform="translate(102.866354 318.238438) scale(0.1 -0.1)">
       <use xlink:href="#DejaVuSans-32"/>
       <use xlink:href="#DejaVuSans-2e" x="63.623047"/>
       <use xlink:href="#DejaVuSans-35" x="95.410156"/>
      </g>
     </g>
    </g>
    <g id="xtick_17">
     <g id="line2d_23">
      <g>
       <use xlink:href="#m04712d4cee" x="177.065833" y="303.64" style="stroke: #000000; stroke-width: 0.8"/>
      </g>
     </g>
     <g id="text_29">
      <!-- 3.0 -->
      <g transform="translate(169.114271 318.238438) scale(0.1 -0.1)">
       <use xlink:href="#DejaVuSans-33"/>
       <use xlink:href="#DejaVuSans-2e" x="63.623047"/>
       <use xlink:href="#DejaVuSans-30" x="95.410156"/>
      </g>
     </g>
    </g>
    <g id="xtick_18">
     <g id="line2d_24">
      <g>
       <use xlink:href="#m04712d4cee" x="243.31375" y="303.64" style="stroke: #000000; stroke-width: 0.8"/>
      </g>
     </g>
     <g id="text_30">
      <!-- 3.5 -->
      <g transform="translate(235.362187 318.238438) scale(0.1 -0.1)">
       <use xlink:href="#DejaVuSans-33"/>
       <use xlink:href="#DejaVuSans-2e" x="63.623047"/>
       <use xlink:href="#DejaVuSans-35" x="95.410156"/>
      </g>
     </g>
    </g>
    <g id="xtick_19">
     <g id="line2d_25">
      <g>
       <use xlink:href="#m04712d4cee" x="309.561667" y="303.64" style="stroke: #000000; stroke-width: 0.8"/>
      </g>
     </g>
     <g id="text_31">
      <!-- 4.0 -->
      <g transform="translate(301.610104 318.238438) scale(0.1 -0.1)">
       <use xlink:href="#DejaVuSans-34"/>
       <use xlink:href="#DejaVuSans-2e" x="63.623047"/>
       <use xlink:href="#DejaVuSans-30" x="95.410156"/>
      </g>
     </g>
    </g>
    <g id="xtick_20">
     <g id="line2d_26">
      <g>
       <use xlink:href="#m04712d4cee" x="375.809583" y="303.64" style="stroke: #000000; stroke-width: 0.8"/>
      </g>
     </g>
     <g id="text_32">
      <!-- 4.5 -->
      <g transform="translate(367.858021 318.238438) scale(0.1 -0.1)">
       <use xlink:href="#DejaVuSans-34"/>
       <use xlink:href="#DejaVuSans-2e" x="63.623047"/>
       <use xlink:href="#DejaVuSans-35" x="95.410156"/>
      </g>
     </g>
    </g>
    <g id="xtick_21">
     <g id="line2d_27">
      <g>
       <use xlink:href="#m04712d4cee" x="442.0575" y="303.64" style="stroke: #000000; stroke-width: 0.8"/>
      </g>
     </g>
     <g id="text_33">
      <!-- 5.0 -->
      <g transform="translate(434.105938 318.238438) scale(0.1 -0.1)">
       <use xlink:href="#DejaVuSans-35"/>
       <use xlink:href="#DejaVuSans-2e" x="63.623047"/>
       <use xlink:href="#DejaVuSans-30" x="95.410156"/>
      </g>
     </g>
    </g>
    <g id="text_34">
     <!-- log(MNV) -->
     <g transform="translate(220.314531 331.916562) scale(0.1 -0.1)">
      <use xlink:href="#DejaVuSans-6c"/>
      <use xlink:href="#DejaVuSans-6f" x="27.783203"/>
      <use xlink:href="#DejaVuSans-67" x="88.964844"/>
      <use xlink:href="#DejaVuSans-28" x="152.441406"/>
      <use xlink:href="#DejaVuSans-4d" x="191.455078"/>
      <use xlink:href="#DejaVuSans-4e" x="277.734375"/>
      <use xlink:href="#DejaVuSans-56" x="352.539062"/>
      <use xlink:href="#DejaVuSans-29" x="420.947266"/>
     </g>
    </g>
   </g>
   <g id="matplotlib.axis_6">
    <g id="ytick_5">
     <g id="line2d_28">
      <g>
       <use xlink:href="#mfaf5c699da" x="44.57" y="303.64" style="stroke: #000000; stroke-width: 0.8"/>
      </g>
     </g>
     <g id="text_35">
      <!-- 0 -->
      <g transform="translate(31.2075 307.439219) scale(0.1 -0.1)">
       <use xlink:href="#DejaVuSans-30"/>
      </g>
     </g>
    </g>
    <g id="ytick_6">
     <g id="line2d_29">
      <g>
       <use xlink:href="#mfaf5c699da" x="44.57" y="276.858391" style="stroke: #000000; stroke-width: 0.8"/>
      </g>
     </g>
     <g id="text_36">
      <!-- 50 -->
      <g transform="translate(24.845 280.65761) scale(0.1 -0.1)">
       <use xlink:href="#DejaVuSans-35"/>
       <use xlink:href="#DejaVuSans-30" x="63.623047"/>
      </g>
     </g>
    </g>
    <g id="text_37">
     <!-- Voxel Count -->
     <g transform="translate(18.765313 309.982188) rotate(-90) scale(0.1 -0.1)">
      <use xlink:href="#DejaVuSans-56"/>
      <use xlink:href="#DejaVuSans-6f" x="60.658203"/>
      <use xlink:href="#DejaVuSans-78" x="118.714844"/>
      <use xlink:href="#DejaVuSans-65" x="174.769531"/>
      <use xlink:href="#DejaVuSans-6c" x="236.292969"/>
      <use xlink:href="#DejaVuSans-20" x="264.076172"/>
      <use xlink:href="#DejaVuSans-43" x="295.863281"/>
      <use xlink:href="#DejaVuSans-6f" x="365.6875"/>
      <use xlink:href="#DejaVuSans-75" x="426.869141"/>
      <use xlink:href="#DejaVuSans-6e" x="490.248047"/>
      <use xlink:href="#DejaVuSans-74" x="553.626953"/>
     </g>
    </g>
   </g>
   <g id="LineCollection_3">
    <path d="M 250.463852 303.64 
L 250.463852 221.152644 
" clip-path="url(#p46d1a69543)" style="fill: none; stroke-dasharray: 5.55,2.4; stroke-dashoffset: 0; stroke: #000000; stroke-width: 1.5"/>
   </g>
   <g id="patch_162">
    <path d="M 44.57 303.64 
L 44.57 257.04 
" style="fill: none; stroke: #000000; stroke-width: 0.8; stroke-linejoin: miter; stroke-linecap: square"/>
   </g>
   <g id="patch_163">
    <path d="M 442.0575 303.64 
L 442.0575 257.04 
" style="fill: none; stroke: #000000; stroke-width: 0.8; stroke-linejoin: miter; stroke-linecap: square"/>
   </g>
   <g id="patch_164">
    <path d="M 44.57 303.64 
L 442.0575 303.64 
" style="fill: none; stroke: #000000; stroke-width: 0.8; stroke-linejoin: miter; stroke-linecap: square"/>
   </g>
   <g id="patch_165">
    <path d="M 44.57 257.04 
L 442.0575 257.04 
" style="fill: none; stroke: #000000; stroke-width: 0.8; stroke-linejoin: miter; stroke-linecap: square"/>
   </g>
   <g id="text_38">
    <!-- deep -->
    <g transform="translate(228.311875 251.04) scale(0.12 -0.12)">
     <use xlink:href="#DejaVuSans-64"/>
     <use xlink:href="#DejaVuSans-65" x="63.476562"/>
     <use xlink:href="#DejaVuSans-65" x="125"/>
     <use xlink:href="#DejaVuSans-70" x="186.523438"/>
    </g>
   </g>
   <g id="legend_3">
    <g id="patch_166">
     <path d="M 353.780938 279.718125 
L 435.0575 279.718125 
Q 437.0575 279.718125 437.0575 277.718125 
L 437.0575 264.04 
Q 437.0575 262.04 435.0575 262.04 
L 353.780938 262.04 
Q 351.780938 262.04 351.780938 264.04 
L 351.780938 277.718125 
Q 351.780938 279.718125 353.780938 279.718125 
z
" style="fill: #ffffff; opacity: 0.8; stroke: #cccccc; stroke-linejoin: miter"/>
    </g>
    <g id="line2d_30">
     <path d="M 355.780938 270.138438 
L 375.780938 270.138438 
" style="fill: none; stroke-dasharray: 5.55,2.4; stroke-dashoffset: 0; stroke: #000000; stroke-width: 1.5"/>
    </g>
    <g id="text_39">
     <!-- Threshold -->
     <g transform="translate(383.780938 273.638438) scale(0.1 -0.1)">
      <use xlink:href="#DejaVuSans-54"/>
      <use xlink:href="#DejaVuSans-68" x="61.083984"/>
      <use xlink:href="#DejaVuSans-72" x="124.462891"/>
      <use xlink:href="#DejaVuSans-65" x="163.326172"/>
      <use xlink:href="#DejaVuSans-73" x="224.849609"/>
      <use xlink:href="#DejaVuSans-68" x="276.949219"/>
      <use xlink:href="#DejaVuSans-6f" x="340.328125"/>
      <use xlink:href="#DejaVuSans-6c" x="401.509766"/>
      <use xlink:href="#DejaVuSans-64" x="429.292969"/>
     </g>
    </g>
   </g>
  </g>
  <g id="text_40">
   <!-- pnr739_V1_tgt_rh -->
   <g transform="translate(177.27 16.030125) scale(0.12 -0.12)">
    <defs>
     <path id="DejaVuSans-37" d="M 525 4666 
L 3525 4666 
L 3525 4397 
L 1831 0 
L 1172 0 
L 2766 4134 
L 525 4134 
L 525 4666 
z
" transform="scale(0.015625)"/>
     <path id="DejaVuSans-39" d="M 703 97 
L 703 672 
Q 941 559 1184 500 
Q 1428 441 1663 441 
Q 2288 441 2617 861 
Q 2947 1281 2994 2138 
Q 2813 1869 2534 1725 
Q 2256 1581 1919 1581 
Q 1219 1581 811 2004 
Q 403 2428 403 3163 
Q 403 3881 828 4315 
Q 1253 4750 1959 4750 
Q 2769 4750 3195 4129 
Q 3622 3509 3622 2328 
Q 3622 1225 3098 567 
Q 2575 -91 1691 -91 
Q 1453 -91 1209 -44 
Q 966 3 703 97 
z
M 1959 2075 
Q 2384 2075 2632 2365 
Q 2881 2656 2881 3163 
Q 2881 3666 2632 3958 
Q 2384 4250 1959 4250 
Q 1534 4250 1286 3958 
Q 1038 3666 1038 3163 
Q 1038 2656 1286 2365 
Q 1534 2075 1959 2075 
z
" transform="scale(0.015625)"/>
     <path id="DejaVuSans-5f" d="M 3263 -1063 
L 3263 -1509 
L -63 -1509 
L -63 -1063 
L 3263 -1063 
z
" transform="scale(0.015625)"/>
     <path id="DejaVuSans-31" d="M 794 531 
L 1825 531 
L 1825 4091 
L 703 3866 
L 703 4441 
L 1819 4666 
L 2450 4666 
L 2450 531 
L 3481 531 
L 3481 0 
L 794 0 
L 794 531 
z
" transform="scale(0.015625)"/>
    </defs>
    <use xlink:href="#DejaVuSans-70"/>
    <use xlink:href="#DejaVuSans-6e" x="63.476562"/>
    <use xlink:href="#DejaVuSans-72" x="126.855469"/>
    <use xlink:href="#DejaVuSans-37" x="167.96875"/>
    <use xlink:href="#DejaVuSans-33" x="231.591797"/>
    <use xlink:href="#DejaVuSans-39" x="295.214844"/>
    <use xlink:href="#DejaVuSans-5f" x="358.837891"/>
    <use xlink:href="#DejaVuSans-56" x="408.837891"/>
    <use xlink:href="#DejaVuSans-31" x="477.246094"/>
    <use xlink:href="#DejaVuSans-5f" x="540.869141"/>
    <use xlink:href="#DejaVuSans-74" x="590.869141"/>
    <use xlink:href="#DejaVuSans-67" x="630.078125"/>
    <use xlink:href="#DejaVuSans-74" x="693.554688"/>
    <use xlink:href="#DejaVuSans-5f" x="732.763672"/>
    <use xlink:href="#DejaVuSans-72" x="782.763672"/>
    <use xlink:href="#DejaVuSans-68" x="822.126953"/>
   </g>
  </g>
 </g>
 <defs>
  <clipPath id="pbfe113bdbc">
   <rect x="44.57" y="49.2" width="397.4875" height="46.6"/>
  </clipPath>
  <clipPath id="p037956a37b">
   <rect x="44.57" y="153.12" width="397.4875" height="46.6"/>
  </clipPath>
  <clipPath id="p46d1a69543">
   <rect x="44.57" y="257.04" width="397.4875" height="46.6"/>
  </clipPath>
 </defs>
</svg>
