<?xml version="1.0" encoding="utf-8" standalone="no"?>
<!DOCTYPE svg PUBLIC "-//W3C//DTD SVG 1.1//EN"
  "http://www.w3.org/Graphics/SVG/1.1/DTD/svg11.dtd">
<svg xmlns:xlink="http://www.w3.org/1999/xlink" width="576pt" height="504pt" viewBox="0 0 576 504" xmlns="http://www.w3.org/2000/svg" version="1.1">
 <metadata>
  <rdf:RDF xmlns:dc="http://purl.org/dc/elements/1.1/" xmlns:cc="http://creativecommons.org/ns#" xmlns:rdf="http://www.w3.org/1999/02/22-rdf-syntax-ns#">
   <cc:Work>
    <dc:type rdf:resource="http://purl.org/dc/dcmitype/StillImage"/>
    <dc:date>2025-09-22T15:18:50.596548</dc:date>
    <dc:format>image/svg+xml</dc:format>
    <dc:creator>
     <cc:Agent>
      <dc:title>Matplotlib v3.8.0, https://matplotlib.org/</dc:title>
     </cc:Agent>
    </dc:creator>
   </cc:Work>
  </rdf:RDF>
 </metadata>
 <defs>
  <style type="text/css">*{stroke-linejoin: round; stroke-linecap: butt}</style>
 </defs>
 <g id="figure_1">
  <g id="patch_1">
   <path d="M 0 504 
L 576 504 
L 576 0 
L 0 0 
z
" style="fill: #ffffff"/>
  </g>
  <g id="axes_1">
   <g id="patch_2">
    <path d="M 86.4 241.92 
L 489.6 241.92 
L 489.6 40.32 
L 86.4 40.32 
z
" style="fill: #ffffff"/>
   </g>
   <g id="PolyCollection_1">
    <defs>
     <path id="mbb8dd5dd02" d="M 86.4 -447.973614 
L 86.4 -389.901448 
L 94.628571 -390.001924 
L 102.857143 -391.459937 
L 111.085714 -389.993867 
L 119.314286 -391.279545 
L 127.542857 -392.15825 
L 135.771429 -391.14502 
L 144 -393.409512 
L 152.228571 -390.712778 
L 160.457143 -387.4074 
L 168.685714 -385.408358 
L 176.914286 -386.362379 
L 185.142857 -387.155569 
L 193.371429 -386.786192 
L 201.6 -386.335265 
L 209.828571 -385.764699 
L 218.057143 -383.764667 
L 226.285714 -381.212617 
L 234.514286 -379.260312 
L 242.742857 -378.944328 
L 250.971429 -378.006285 
L 259.2 -376.41297 
L 267.428571 -373.639015 
L 275.657143 -372.056135 
L 283.885714 -371.177935 
L 292.114286 -368.420667 
L 300.342857 -365.495023 
L 308.571429 -364.014814 
L 316.8 -361.931937 
L 325.028571 -358.704223 
L 333.257143 -355.750899 
L 341.485714 -353.369084 
L 349.714286 -351.220616 
L 357.942857 -350.805931 
L 366.171429 -349.741146 
L 374.4 -347.571067 
L 382.628571 -345.125843 
L 390.857143 -343.467533 
L 399.085714 -342.72326 
L 407.314286 -340.735086 
L 415.542857 -339.308284 
L 423.771429 -339.838443 
L 432 -342.472751 
L 440.228571 -344.184157 
L 448.457143 -345.885948 
L 456.685714 -346.982532 
L 464.914286 -345.16802 
L 473.142857 -344.932263 
L 481.371429 -345.37064 
L 489.6 -345.131876 
L 489.6 -377.582084 
L 489.6 -377.582084 
L 481.371429 -377.486809 
L 473.142857 -378.558084 
L 464.914286 -379.062879 
L 456.685714 -379.824908 
L 448.457143 -379.34139 
L 440.228571 -378.331785 
L 432 -376.506777 
L 423.771429 -374.032714 
L 415.542857 -373.303396 
L 407.314286 -374.487387 
L 399.085714 -377.193994 
L 390.857143 -378.835732 
L 382.628571 -379.780197 
L 374.4 -381.436231 
L 366.171429 -382.523854 
L 357.942857 -382.930734 
L 349.714286 -383.695908 
L 341.485714 -387.32192 
L 333.257143 -391.158243 
L 325.028571 -394.67309 
L 316.8 -397.526016 
L 308.571429 -399.071753 
L 300.342857 -400.638757 
L 292.114286 -403.726291 
L 283.885714 -405.846841 
L 275.657143 -406.717577 
L 267.428571 -407.019253 
L 259.2 -408.374903 
L 250.971429 -408.857948 
L 242.742857 -408.5691 
L 234.514286 -409.099608 
L 226.285714 -411.097092 
L 218.057143 -413.689311 
L 209.828571 -415.352917 
L 201.6 -416.858022 
L 193.371429 -419.013171 
L 185.142857 -420.206527 
L 176.914286 -421.171553 
L 168.685714 -422.077717 
L 160.457143 -423.725228 
L 152.228571 -425.594653 
L 144 -428.479747 
L 135.771429 -429.415219 
L 127.542857 -431.917611 
L 119.314286 -434.590349 
L 111.085714 -437.601744 
L 102.857143 -442.466866 
L 94.628571 -445.632271 
L 86.4 -447.973614 
z
" style="stroke: #b2b2b2; stroke-opacity: 0.4"/>
    </defs>
    <g clip-path="url(#p8a57bf9d15)">
     <use xlink:href="#mbb8dd5dd02" x="0" y="504" style="fill: #b2b2b2; fill-opacity: 0.4; stroke: #b2b2b2; stroke-opacity: 0.4"/>
    </g>
   </g>
   <g id="matplotlib.axis_1">
    <g id="xtick_1">
     <g id="line2d_1">
      <defs>
       <path id="m72d3924260" d="M 0 0 
L 0 3.5 
" style="stroke: #000000; stroke-width: 0.8"/>
      </defs>
      <g>
       <use xlink:href="#m72d3924260" x="86.4" y="245.92" style="stroke: #000000; stroke-width: 0.8"/>
      </g>
     </g>
    </g>
    <g id="xtick_2">
     <g id="line2d_2">
      <g>
       <use xlink:href="#m72d3924260" x="167.04" y="245.92" style="stroke: #000000; stroke-width: 0.8"/>
      </g>
     </g>
    </g>
    <g id="xtick_3">
     <g id="line2d_3">
      <g>
       <use xlink:href="#m72d3924260" x="247.68" y="245.92" style="stroke: #000000; stroke-width: 0.8"/>
      </g>
     </g>
    </g>
    <g id="xtick_4">
     <g id="line2d_4">
      <g>
       <use xlink:href="#m72d3924260" x="328.32" y="245.92" style="stroke: #000000; stroke-width: 0.8"/>
      </g>
     </g>
    </g>
    <g id="xtick_5">
     <g id="line2d_5">
      <g>
       <use xlink:href="#m72d3924260" x="408.96" y="245.92" style="stroke: #000000; stroke-width: 0.8"/>
      </g>
     </g>
    </g>
    <g id="xtick_6">
     <g id="line2d_6">
      <g>
       <use xlink:href="#m72d3924260" x="489.6" y="245.92" style="stroke: #000000; stroke-width: 0.8"/>
      </g>
     </g>
    </g>
   </g>
   <g id="matplotlib.axis_2">
    <g id="ytick_1">
     <g id="line2d_7">
      <defs>
       <path id="m9b90289ffe" d="M 0 0 
L -3.5 0 
" style="stroke: #000000; stroke-width: 0.8"/>
      </defs>
      <g>
       <use xlink:href="#m9b90289ffe" x="82.4" y="241.92" style="stroke: #000000; stroke-width: 0.8"/>
      </g>
     </g>
     <g id="text_1">
      <!-- −2.0 -->
      <g transform="translate(51.117187 245.719219) scale(0.1 -0.1)">
       <defs>
        <path id="DejaVuSans-2212" d="M 678 2272 
L 4684 2272 
L 4684 1741 
L 678 1741 
L 678 2272 
z
" transform="scale(0.015625)"/>
        <path id="DejaVuSans-32" d="M 1228 531 
L 3431 531 
L 3431 0 
L 469 0 
L 469 531 
Q 828 903 1448 1529 
Q 2069 2156 2228 2338 
Q 2531 2678 2651 2914 
Q 2772 3150 2772 3378 
Q 2772 3750 2511 3984 
Q 2250 4219 1831 4219 
Q 1534 4219 1204 4116 
Q 875 4013 500 3803 
L 500 4441 
Q 881 4594 1212 4672 
Q 1544 4750 1819 4750 
Q 2544 4750 2975 4387 
Q 3406 4025 3406 3419 
Q 3406 3131 3298 2873 
Q 3191 2616 2906 2266 
Q 2828 2175 2409 1742 
Q 1991 1309 1228 531 
z
" transform="scale(0.015625)"/>
        <path id="DejaVuSans-2e" d="M 684 794 
L 1344 794 
L 1344 0 
L 684 0 
L 684 794 
z
" transform="scale(0.015625)"/>
        <path id="DejaVuSans-30" d="M 2034 4250 
Q 1547 4250 1301 3770 
Q 1056 3291 1056 2328 
Q 1056 1369 1301 889 
Q 1547 409 2034 409 
Q 2525 409 2770 889 
Q 3016 1369 3016 2328 
Q 3016 3291 2770 3770 
Q 2525 4250 2034 4250 
z
M 2034 4750 
Q 2819 4750 3233 4129 
Q 3647 3509 3647 2328 
Q 3647 1150 3233 529 
Q 2819 -91 2034 -91 
Q 1250 -91 836 529 
Q 422 1150 422 2328 
Q 422 3509 836 4129 
Q 1250 4750 2034 4750 
z
" transform="scale(0.015625)"/>
       </defs>
       <use xlink:href="#DejaVuSans-2212"/>
       <use xlink:href="#DejaVuSans-32" x="83.789062"/>
       <use xlink:href="#DejaVuSans-2e" x="147.412109"/>
       <use xlink:href="#DejaVuSans-30" x="179.199219"/>
      </g>
     </g>
    </g>
    <g id="ytick_2">
     <g id="line2d_8">
      <g>
       <use xlink:href="#m9b90289ffe" x="82.4" y="216.72" style="stroke: #000000; stroke-width: 0.8"/>
      </g>
     </g>
     <g id="text_2">
      <!-- −1.5 -->
      <g transform="translate(51.117187 220.519219) scale(0.1 -0.1)">
       <defs>
        <path id="DejaVuSans-31" d="M 794 531 
L 1825 531 
L 1825 4091 
L 703 3866 
L 703 4441 
L 1819 4666 
L 2450 4666 
L 2450 531 
L 3481 531 
L 3481 0 
L 794 0 
L 794 531 
z
" transform="scale(0.015625)"/>
        <path id="DejaVuSans-35" d="M 691 4666 
L 3169 4666 
L 3169 4134 
L 1269 4134 
L 1269 2991 
Q 1406 3038 1543 3061 
Q 1681 3084 1819 3084 
Q 2600 3084 3056 2656 
Q 3513 2228 3513 1497 
Q 3513 744 3044 326 
Q 2575 -91 1722 -91 
Q 1428 -91 1123 -41 
Q 819 9 494 109 
L 494 744 
Q 775 591 1075 516 
Q 1375 441 1709 441 
Q 2250 441 2565 725 
Q 2881 1009 2881 1497 
Q 2881 1984 2565 2268 
Q 2250 2553 1709 2553 
Q 1456 2553 1204 2497 
Q 953 2441 691 2322 
L 691 4666 
z
" transform="scale(0.015625)"/>
       </defs>
       <use xlink:href="#DejaVuSans-2212"/>
       <use xlink:href="#DejaVuSans-31" x="83.789062"/>
       <use xlink:href="#DejaVuSans-2e" x="147.412109"/>
       <use xlink:href="#DejaVuSans-35" x="179.199219"/>
      </g>
     </g>
    </g>
    <g id="ytick_3">
     <g id="line2d_9">
      <g>
       <use xlink:href="#m9b90289ffe" x="82.4" y="191.52" style="stroke: #000000; stroke-width: 0.8"/>
      </g>
     </g>
     <g id="text_3">
      <!-- −1.0 -->
      <g transform="translate(51.117187 195.319219) scale(0.1 -0.1)">
       <use xlink:href="#DejaVuSans-2212"/>
       <use xlink:href="#DejaVuSans-31" x="83.789062"/>
       <use xlink:href="#DejaVuSans-2e" x="147.412109"/>
       <use xlink:href="#DejaVuSans-30" x="179.199219"/>
      </g>
     </g>
    </g>
    <g id="ytick_4">
     <g id="line2d_10">
      <g>
       <use xlink:href="#m9b90289ffe" x="82.4" y="166.32" style="stroke: #000000; stroke-width: 0.8"/>
      </g>
     </g>
     <g id="text_4">
      <!-- −0.5 -->
      <g transform="translate(51.117187 170.119219) scale(0.1 -0.1)">
       <use xlink:href="#DejaVuSans-2212"/>
       <use xlink:href="#DejaVuSans-30" x="83.789062"/>
       <use xlink:href="#DejaVuSans-2e" x="147.412109"/>
       <use xlink:href="#DejaVuSans-35" x="179.199219"/>
      </g>
     </g>
    </g>
    <g id="ytick_5">
     <g id="line2d_11">
      <g>
       <use xlink:href="#m9b90289ffe" x="82.4" y="141.12" style="stroke: #000000; stroke-width: 0.8"/>
      </g>
     </g>
     <g id="text_5">
      <!-- 0.0 -->
      <g transform="translate(59.496875 144.919219) scale(0.1 -0.1)">
       <use xlink:href="#DejaVuSans-30"/>
       <use xlink:href="#DejaVuSans-2e" x="63.623047"/>
       <use xlink:href="#DejaVuSans-30" x="95.410156"/>
      </g>
     </g>
    </g>
    <g id="ytick_6">
     <g id="line2d_12">
      <g>
       <use xlink:href="#m9b90289ffe" x="82.4" y="115.92" style="stroke: #000000; stroke-width: 0.8"/>
      </g>
     </g>
     <g id="text_6">
      <!-- 0.5 -->
      <g transform="translate(59.496875 119.719219) scale(0.1 -0.1)">
       <use xlink:href="#DejaVuSans-30"/>
       <use xlink:href="#DejaVuSans-2e" x="63.623047"/>
       <use xlink:href="#DejaVuSans-35" x="95.410156"/>
      </g>
     </g>
    </g>
    <g id="ytick_7">
     <g id="line2d_13">
      <g>
       <use xlink:href="#m9b90289ffe" x="82.4" y="90.72" style="stroke: #000000; stroke-width: 0.8"/>
      </g>
     </g>
     <g id="text_7">
      <!-- 1.0 -->
      <g transform="translate(59.496875 94.519219) scale(0.1 -0.1)">
       <use xlink:href="#DejaVuSans-31"/>
       <use xlink:href="#DejaVuSans-2e" x="63.623047"/>
       <use xlink:href="#DejaVuSans-30" x="95.410156"/>
      </g>
     </g>
    </g>
    <g id="ytick_8">
     <g id="line2d_14">
      <g>
       <use xlink:href="#m9b90289ffe" x="82.4" y="65.52" style="stroke: #000000; stroke-width: 0.8"/>
      </g>
     </g>
     <g id="text_8">
      <!-- 1.5 -->
      <g transform="translate(59.496875 69.319219) scale(0.1 -0.1)">
       <use xlink:href="#DejaVuSans-31"/>
       <use xlink:href="#DejaVuSans-2e" x="63.623047"/>
       <use xlink:href="#DejaVuSans-35" x="95.410156"/>
      </g>
     </g>
    </g>
    <g id="ytick_9">
     <g id="line2d_15">
      <g>
       <use xlink:href="#m9b90289ffe" x="82.4" y="40.32" style="stroke: #000000; stroke-width: 0.8"/>
      </g>
     </g>
     <g id="text_9">
      <!-- 2.0 -->
      <g transform="translate(59.496875 44.119219) scale(0.1 -0.1)">
       <use xlink:href="#DejaVuSans-32"/>
       <use xlink:href="#DejaVuSans-2e" x="63.623047"/>
       <use xlink:href="#DejaVuSans-30" x="95.410156"/>
      </g>
     </g>
    </g>
    <g id="text_10">
     <!-- BOLD % change -->
     <g transform="translate(45.453437 173.31625) rotate(-90) scale(0.08 -0.08)">
      <defs>
       <path id="DejaVuSans-42" d="M 1259 2228 
L 1259 519 
L 2272 519 
Q 2781 519 3026 730 
Q 3272 941 3272 1375 
Q 3272 1813 3026 2020 
Q 2781 2228 2272 2228 
L 1259 2228 
z
M 1259 4147 
L 1259 2741 
L 2194 2741 
Q 2656 2741 2882 2914 
Q 3109 3088 3109 3444 
Q 3109 3797 2882 3972 
Q 2656 4147 2194 4147 
L 1259 4147 
z
M 628 4666 
L 2241 4666 
Q 2963 4666 3353 4366 
Q 3744 4066 3744 3513 
Q 3744 3084 3544 2831 
Q 3344 2578 2956 2516 
Q 3422 2416 3680 2098 
Q 3938 1781 3938 1306 
Q 3938 681 3513 340 
Q 3088 0 2303 0 
L 628 0 
L 628 4666 
z
" transform="scale(0.015625)"/>
       <path id="DejaVuSans-4f" d="M 2522 4238 
Q 1834 4238 1429 3725 
Q 1025 3213 1025 2328 
Q 1025 1447 1429 934 
Q 1834 422 2522 422 
Q 3209 422 3611 934 
Q 4013 1447 4013 2328 
Q 4013 3213 3611 3725 
Q 3209 4238 2522 4238 
z
M 2522 4750 
Q 3503 4750 4090 4092 
Q 4678 3434 4678 2328 
Q 4678 1225 4090 567 
Q 3503 -91 2522 -91 
Q 1538 -91 948 565 
Q 359 1222 359 2328 
Q 359 3434 948 4092 
Q 1538 4750 2522 4750 
z
" transform="scale(0.015625)"/>
       <path id="DejaVuSans-4c" d="M 628 4666 
L 1259 4666 
L 1259 531 
L 3531 531 
L 3531 0 
L 628 0 
L 628 4666 
z
" transform="scale(0.015625)"/>
       <path id="DejaVuSans-44" d="M 1259 4147 
L 1259 519 
L 2022 519 
Q 2988 519 3436 956 
Q 3884 1394 3884 2338 
Q 3884 3275 3436 3711 
Q 2988 4147 2022 4147 
L 1259 4147 
z
M 628 4666 
L 1925 4666 
Q 3281 4666 3915 4102 
Q 4550 3538 4550 2338 
Q 4550 1131 3912 565 
Q 3275 0 1925 0 
L 628 0 
L 628 4666 
z
" transform="scale(0.015625)"/>
       <path id="DejaVuSans-20" transform="scale(0.015625)"/>
       <path id="DejaVuSans-25" d="M 4653 2053 
Q 4381 2053 4226 1822 
Q 4072 1591 4072 1178 
Q 4072 772 4226 539 
Q 4381 306 4653 306 
Q 4919 306 5073 539 
Q 5228 772 5228 1178 
Q 5228 1588 5073 1820 
Q 4919 2053 4653 2053 
z
M 4653 2450 
Q 5147 2450 5437 2106 
Q 5728 1763 5728 1178 
Q 5728 594 5436 251 
Q 5144 -91 4653 -91 
Q 4153 -91 3862 251 
Q 3572 594 3572 1178 
Q 3572 1766 3864 2108 
Q 4156 2450 4653 2450 
z
M 1428 4353 
Q 1159 4353 1004 4120 
Q 850 3888 850 3481 
Q 850 3069 1003 2837 
Q 1156 2606 1428 2606 
Q 1700 2606 1854 2837 
Q 2009 3069 2009 3481 
Q 2009 3884 1853 4118 
Q 1697 4353 1428 4353 
z
M 4250 4750 
L 4750 4750 
L 1831 -91 
L 1331 -91 
L 4250 4750 
z
M 1428 4750 
Q 1922 4750 2215 4408 
Q 2509 4066 2509 3481 
Q 2509 2891 2217 2550 
Q 1925 2209 1428 2209 
Q 931 2209 642 2551 
Q 353 2894 353 3481 
Q 353 4063 643 4406 
Q 934 4750 1428 4750 
z
" transform="scale(0.015625)"/>
       <path id="DejaVuSans-63" d="M 3122 3366 
L 3122 2828 
Q 2878 2963 2633 3030 
Q 2388 3097 2138 3097 
Q 1578 3097 1268 2742 
Q 959 2388 959 1747 
Q 959 1106 1268 751 
Q 1578 397 2138 397 
Q 2388 397 2633 464 
Q 2878 531 3122 666 
L 3122 134 
Q 2881 22 2623 -34 
Q 2366 -91 2075 -91 
Q 1284 -91 818 406 
Q 353 903 353 1747 
Q 353 2603 823 3093 
Q 1294 3584 2113 3584 
Q 2378 3584 2631 3529 
Q 2884 3475 3122 3366 
z
" transform="scale(0.015625)"/>
       <path id="DejaVuSans-68" d="M 3513 2113 
L 3513 0 
L 2938 0 
L 2938 2094 
Q 2938 2591 2744 2837 
Q 2550 3084 2163 3084 
Q 1697 3084 1428 2787 
Q 1159 2491 1159 1978 
L 1159 0 
L 581 0 
L 581 4863 
L 1159 4863 
L 1159 2956 
Q 1366 3272 1645 3428 
Q 1925 3584 2291 3584 
Q 2894 3584 3203 3211 
Q 3513 2838 3513 2113 
z
" transform="scale(0.015625)"/>
       <path id="DejaVuSans-61" d="M 2194 1759 
Q 1497 1759 1228 1600 
Q 959 1441 959 1056 
Q 959 750 1161 570 
Q 1363 391 1709 391 
Q 2188 391 2477 730 
Q 2766 1069 2766 1631 
L 2766 1759 
L 2194 1759 
z
M 3341 1997 
L 3341 0 
L 2766 0 
L 2766 531 
Q 2569 213 2275 61 
Q 1981 -91 1556 -91 
Q 1019 -91 701 211 
Q 384 513 384 1019 
Q 384 1609 779 1909 
Q 1175 2209 1959 2209 
L 2766 2209 
L 2766 2266 
Q 2766 2663 2505 2880 
Q 2244 3097 1772 3097 
Q 1472 3097 1187 3025 
Q 903 2953 641 2809 
L 641 3341 
Q 956 3463 1253 3523 
Q 1550 3584 1831 3584 
Q 2591 3584 2966 3190 
Q 3341 2797 3341 1997 
z
" transform="scale(0.015625)"/>
       <path id="DejaVuSans-6e" d="M 3513 2113 
L 3513 0 
L 2938 0 
L 2938 2094 
Q 2938 2591 2744 2837 
Q 2550 3084 2163 3084 
Q 1697 3084 1428 2787 
Q 1159 2491 1159 1978 
L 1159 0 
L 581 0 
L 581 3500 
L 1159 3500 
L 1159 2956 
Q 1366 3272 1645 3428 
Q 1925 3584 2291 3584 
Q 2894 3584 3203 3211 
Q 3513 2838 3513 2113 
z
" transform="scale(0.015625)"/>
       <path id="DejaVuSans-67" d="M 2906 1791 
Q 2906 2416 2648 2759 
Q 2391 3103 1925 3103 
Q 1463 3103 1205 2759 
Q 947 2416 947 1791 
Q 947 1169 1205 825 
Q 1463 481 1925 481 
Q 2391 481 2648 825 
Q 2906 1169 2906 1791 
z
M 3481 434 
Q 3481 -459 3084 -895 
Q 2688 -1331 1869 -1331 
Q 1566 -1331 1297 -1286 
Q 1028 -1241 775 -1147 
L 775 -588 
Q 1028 -725 1275 -790 
Q 1522 -856 1778 -856 
Q 2344 -856 2625 -561 
Q 2906 -266 2906 331 
L 2906 616 
Q 2728 306 2450 153 
Q 2172 0 1784 0 
Q 1141 0 747 490 
Q 353 981 353 1791 
Q 353 2603 747 3093 
Q 1141 3584 1784 3584 
Q 2172 3584 2450 3431 
Q 2728 3278 2906 2969 
L 2906 3500 
L 3481 3500 
L 3481 434 
z
" transform="scale(0.015625)"/>
       <path id="DejaVuSans-65" d="M 3597 1894 
L 3597 1613 
L 953 1613 
Q 991 1019 1311 708 
Q 1631 397 2203 397 
Q 2534 397 2845 478 
Q 3156 559 3463 722 
L 3463 178 
Q 3153 47 2828 -22 
Q 2503 -91 2169 -91 
Q 1331 -91 842 396 
Q 353 884 353 1716 
Q 353 2575 817 3079 
Q 1281 3584 2069 3584 
Q 2775 3584 3186 3129 
Q 3597 2675 3597 1894 
z
M 3022 2063 
Q 3016 2534 2758 2815 
Q 2500 3097 2075 3097 
Q 1594 3097 1305 2825 
Q 1016 2553 972 2059 
L 3022 2063 
z
" transform="scale(0.015625)"/>
      </defs>
      <use xlink:href="#DejaVuSans-42"/>
      <use xlink:href="#DejaVuSans-4f" x="66.853516"/>
      <use xlink:href="#DejaVuSans-4c" x="145.564453"/>
      <use xlink:href="#DejaVuSans-44" x="201.277344"/>
      <use xlink:href="#DejaVuSans-20" x="278.279297"/>
      <use xlink:href="#DejaVuSans-25" x="310.066406"/>
      <use xlink:href="#DejaVuSans-20" x="405.085938"/>
      <use xlink:href="#DejaVuSans-63" x="436.873047"/>
      <use xlink:href="#DejaVuSans-68" x="491.853516"/>
      <use xlink:href="#DejaVuSans-61" x="555.232422"/>
      <use xlink:href="#DejaVuSans-6e" x="616.511719"/>
      <use xlink:href="#DejaVuSans-67" x="679.890625"/>
      <use xlink:href="#DejaVuSans-65" x="743.367188"/>
     </g>
    </g>
   </g>
   <g id="line2d_16">
    <path d="M 86.4 85.062469 
L 94.628571 86.182903 
L 102.857143 87.036599 
L 111.085714 90.202195 
L 119.314286 91.065053 
L 127.542857 91.962069 
L 135.771429 93.719881 
L 144 93.05537 
L 152.228571 95.846284 
L 160.457143 98.433686 
L 168.685714 100.256962 
L 176.914286 100.233034 
L 185.142857 100.318952 
L 193.371429 101.100319 
L 201.6 102.403356 
L 209.828571 103.441192 
L 218.057143 105.273011 
L 226.285714 107.845146 
L 234.514286 109.82004 
L 242.742857 110.243286 
L 250.971429 110.567884 
L 259.2 111.606064 
L 267.428571 113.670866 
L 275.657143 114.613144 
L 283.885714 115.487612 
L 292.114286 117.926521 
L 300.342857 120.93311 
L 308.571429 122.456716 
L 316.8 124.271023 
L 325.028571 127.311343 
L 333.257143 130.545429 
L 341.485714 133.654498 
L 349.714286 136.541738 
L 357.942857 137.131667 
L 366.171429 137.8675 
L 374.4 139.496351 
L 382.628571 141.54698 
L 390.857143 142.848368 
L 399.085714 144.041373 
L 407.314286 146.388763 
L 415.542857 147.69416 
L 423.771429 147.064422 
L 432 144.510236 
L 440.228571 142.742029 
L 448.457143 141.386331 
L 456.685714 140.59628 
L 464.914286 141.88455 
L 473.142857 142.254827 
L 481.371429 142.571275 
L 489.6 142.64302 
" clip-path="url(#p8a57bf9d15)" style="fill: none; stroke: #b2b2b2; stroke-width: 1.5; stroke-linecap: square"/>
   </g>
   <g id="line2d_17">
    <path d="M 86.4 48.519092 
L 94.628571 48.097611 
L 102.857143 49.189911 
L 111.085714 51.671811 
L 119.314286 52.056439 
L 127.542857 68.335276 
L 135.771429 78.660536 
L 144 86.39246 
L 152.228571 86.077308 
L 160.457143 75.540136 
L 168.685714 70.238942 
L 176.914286 62.958578 
L 185.142857 58.751214 
L 193.371429 63.812741 
L 201.6 79.20298 
L 209.828571 95.343504 
L 218.057143 101.431706 
L 226.285714 105.796061 
L 234.514286 102.270609 
L 242.742857 98.310772 
L 250.971429 92.222888 
L 259.2 87.832358 
L 267.428571 83.707349 
L 275.657143 80.355215 
L 283.885714 80.864202 
L 292.114286 88.521494 
L 300.342857 95.586949 
L 308.571429 94.430358 
L 316.8 91.203005 
L 325.028571 94.654 
L 333.257143 100.302043 
L 341.485714 113.704449 
L 349.714286 118.973943 
L 357.942857 117.442189 
L 366.171429 116.809569 
L 374.4 115.263497 
L 382.628571 127.595339 
L 390.857143 142.976882 
L 399.085714 150.656019 
L 407.314286 150.347057 
L 415.542857 147.689961 
L 423.771429 136.684451 
L 432 127.867293 
L 440.228571 130.581588 
L 448.457143 134.613126 
L 456.685714 128.126519 
L 464.914286 127.921131 
L 473.142857 129.007232 
L 481.371429 136.652357 
L 489.6 142.594847 
" clip-path="url(#p8a57bf9d15)" style="fill: none; stroke: #b2b2b2; stroke-opacity: 0.2; stroke-width: 1.5; stroke-linecap: square"/>
   </g>
   <g id="line2d_18">
    <path d="M 86.4 77.150506 
L 94.628571 77.150506 
L 102.857143 82.276389 
L 111.085714 86.189768 
L 119.314286 95.221286 
L 127.542857 90.374079 
L 135.771429 81.728235 
L 144 64.768466 
L 152.228571 55.546761 
L 160.457143 50.389736 
L 168.685714 51.24053 
L 176.914286 59.882544 
L 185.142857 69.65754 
L 193.371429 67.576894 
L 201.6 71.584021 
L 209.828571 76.092539 
L 218.057143 79.294006 
L 226.285714 84.286527 
L 234.514286 89.250032 
L 242.742857 92.956268 
L 250.971429 96.103192 
L 259.2 99.2608 
L 267.428571 97.106336 
L 275.657143 96.14538 
L 283.885714 95.579946 
L 292.114286 89.472981 
L 300.342857 85.972895 
L 308.571429 89.862 
L 316.8 97.558106 
L 325.028571 103.536149 
L 333.257143 108.463469 
L 341.485714 112.783174 
L 349.714286 114.246645 
L 357.942857 112.304015 
L 366.171429 110.818764 
L 374.4 107.83691 
L 382.628571 103.174917 
L 390.857143 96.790732 
L 399.085714 93.598903 
L 407.314286 96.129889 
L 415.542857 96.93752 
L 423.771429 94.12673 
L 432 89.026515 
L 440.228571 85.670639 
L 448.457143 81.549954 
L 456.685714 78.485886 
L 464.914286 78.669633 
L 473.142857 80.222784 
L 481.371429 82.6845 
L 489.6 79.659046 
" clip-path="url(#p8a57bf9d15)" style="fill: none; stroke: #b2b2b2; stroke-opacity: 0.2; stroke-width: 1.5; stroke-linecap: square"/>
   </g>
   <g id="line2d_19">
    <path d="M 86.4 337.911566 
L 94.628571 334.871147 
L 102.857143 324.200885 
L 111.085714 314.343603 
L 119.314286 293.542454 
L 127.542857 284.806503 
L 135.771429 281.363858 
L 144 263.553606 
L 152.228571 259.25325 
L 160.457143 263.768294 
L 168.685714 261.827634 
L 176.914286 253.882751 
L 185.142857 247.957855 
L 193.371429 241.765012 
L 201.6 234.788605 
L 209.828571 230.476067 
L 218.057143 228.177977 
L 226.285714 228.939095 
L 234.514286 230.502496 
L 242.742857 230.566101 
L 250.971429 237.815109 
L 259.2 241.742878 
L 267.428571 250.471846 
L 275.657143 258.189755 
L 283.885714 261.360275 
L 292.114286 266.779952 
L 300.342857 268.915631 
L 308.571429 268.590661 
L 316.8 272.738136 
L 325.028571 279.13514 
L 333.257143 282.491698 
L 341.485714 282.562179 
L 349.714286 282.237777 
L 357.942857 284.062772 
L 366.171429 287.736335 
L 374.4 290.554626 
L 382.628571 294.511523 
L 390.857143 297.368004 
L 399.085714 291.236082 
L 407.314286 284.783486 
L 415.542857 283.792739 
L 423.771429 282.315551 
L 432 275.243065 
L 440.228571 274.900523 
L 448.457143 269.895504 
L 456.685714 267.893358 
L 464.914286 277.148999 
L 473.142857 272.980306 
L 481.371429 265.278933 
L 489.6 266.509951 
" clip-path="url(#p8a57bf9d15)" style="fill: none; stroke: #b2b2b2; stroke-opacity: 0.2; stroke-width: 1.5; stroke-linecap: square"/>
   </g>
   <g id="line2d_20">
    <path d="M 86.4 103.342582 
L 94.628571 103.342582 
L 102.857143 99.689639 
L 111.085714 99.555258 
L 119.314286 102.351322 
L 127.542857 97.80616 
L 135.771429 99.385751 
L 144 91.957089 
L 152.228571 87.566639 
L 160.457143 81.381908 
L 168.685714 73.952947 
L 176.914286 69.091761 
L 185.142857 68.368574 
L 193.371429 71.902749 
L 201.6 73.717093 
L 209.828571 81.529477 
L 218.057143 95.057772 
L 226.285714 107.330051 
L 234.514286 114.943848 
L 242.742857 118.081837 
L 250.971429 123.089195 
L 259.2 129.150328 
L 267.428571 133.802966 
L 275.657143 138.385558 
L 283.885714 140.122765 
L 292.114286 144.385967 
L 300.342857 146.459691 
L 308.571429 148.979854 
L 316.8 154.282294 
L 325.028571 157.437568 
L 333.257143 159.740018 
L 341.485714 162.187885 
L 349.714286 163.758768 
L 357.942857 158.669588 
L 366.171429 155.393782 
L 374.4 155.412461 
L 382.628571 154.513977 
L 390.857143 155.411321 
L 399.085714 154.19604 
L 407.314286 152.4143 
L 415.542857 151.169796 
L 423.771429 150.423194 
L 432 155.42279 
L 440.228571 154.886878 
L 448.457143 155.831956 
L 456.685714 159.752479 
L 464.914286 155.776565 
L 473.142857 152.467456 
L 481.371429 147.206517 
L 489.6 139.493146 
" clip-path="url(#p8a57bf9d15)" style="fill: none; stroke: #b2b2b2; stroke-opacity: 0.2; stroke-width: 1.5; stroke-linecap: square"/>
   </g>
   <g id="line2d_21">
    <path d="M 86.4 84.846335 
L 94.628571 85.031629 
L 102.857143 75.183929 
L 111.085714 66.413242 
L 119.314286 55.098428 
L 127.542857 34.610845 
L 135.771429 22.692438 
L 144 24.069924 
L 152.228571 27.410645 
L 160.457143 38.859873 
L 168.685714 44.203135 
L 176.914286 49.153525 
L 185.142857 45.188784 
L 193.371429 38.020498 
L 201.6 37.475028 
L 209.828571 32.636244 
L 218.057143 28.441545 
L 226.285714 31.4743 
L 234.514286 31.475297 
L 242.742857 28.365894 
L 250.971429 24.327509 
L 259.2 22.356925 
L 267.428571 25.38489 
L 275.657143 24.532076 
L 283.885714 28.902825 
L 292.114286 30.852437 
L 300.342857 35.88669 
L 308.571429 33.359867 
L 316.8 30.20185 
L 325.028571 29.810924 
L 333.257143 35.086247 
L 341.485714 44.093993 
L 349.714286 55.341932 
L 357.942857 59.811517 
L 366.171429 57.729584 
L 374.4 52.432999 
L 382.628571 48.185103 
L 390.857143 43.836178 
L 399.085714 44.736772 
L 407.314286 42.897503 
L 415.542857 42.019706 
L 423.771429 43.275364 
L 432 40.653422 
L 440.228571 38.955638 
L 448.457143 40.057416 
L 456.685714 44.660613 
L 464.914286 45.388618 
L 473.142857 41.833468 
L 481.371429 43.485905 
L 489.6 46.842271 
" clip-path="url(#p8a57bf9d15)" style="fill: none; stroke: #b2b2b2; stroke-opacity: 0.2; stroke-width: 1.5; stroke-linecap: square"/>
   </g>
   <g id="line2d_22">
    <path d="M 121.554097 -1 
L 127.542857 23.659555 
L 135.771429 55.721946 
L 144 81.576888 
L 152.228571 115.569942 
L 160.457143 145.574383 
L 168.685714 162.458835 
L 176.914286 161.128078 
L 185.142857 154.428771 
L 193.371429 155.711709 
L 201.6 156.125492 
L 209.828571 151.411116 
L 218.057143 154.757793 
L 226.285714 154.487934 
L 234.514286 150.664835 
L 242.742857 140.671014 
L 250.971429 132.218781 
L 259.2 130.900416 
L 267.428571 130.34892 
L 275.657143 129.115835 
L 283.885714 129.000084 
L 292.114286 131.147917 
L 300.342857 137.164162 
L 308.571429 141.313685 
L 316.8 142.085138 
L 325.028571 144.54516 
L 333.257143 143.422884 
L 341.485714 138.955016 
L 349.714286 138.406419 
L 357.942857 144.410346 
L 366.171429 153.320764 
L 374.4 165.523191 
L 382.628571 171.716268 
L 390.857143 167.278669 
L 399.085714 162.647353 
L 407.314286 159.167512 
L 415.542857 154.672709 
L 423.771429 151.839658 
L 432 147.498633 
L 440.228571 142.477866 
L 448.457143 140.775426 
L 456.685714 144.973281 
L 464.914286 146.112203 
L 473.142857 145.271712 
L 481.371429 144.578452 
L 489.6 144.753097 
" clip-path="url(#p8a57bf9d15)" style="fill: none; stroke: #b2b2b2; stroke-opacity: 0.2; stroke-width: 1.5; stroke-linecap: square"/>
   </g>
   <g id="line2d_23">
    <path d="M 86.4 73.776475 
L 94.628571 74.700229 
L 102.857143 73.847997 
L 111.085714 80.123942 
L 119.314286 84.557513 
L 127.542857 84.543532 
L 135.771429 87.14827 
L 144 89.516885 
L 152.228571 93.887496 
L 160.457143 94.962219 
L 168.685714 93.707063 
L 176.914286 90.950604 
L 185.142857 88.648485 
L 193.371429 91.676257 
L 201.6 96.542666 
L 209.828571 99.290704 
L 218.057143 106.292139 
L 226.285714 114.052114 
L 234.514286 124.829656 
L 242.742857 134.315939 
L 250.971429 141.281186 
L 259.2 149.275825 
L 267.428571 155.79913 
L 275.657143 155.60147 
L 283.885714 156.600921 
L 292.114286 160.920979 
L 300.342857 161.518656 
L 308.571429 161.131863 
L 316.8 160.543716 
L 325.028571 159.671515 
L 333.257143 160.293985 
L 341.485714 161.620917 
L 349.714286 161.867573 
L 357.942857 159.753622 
L 366.171429 155.143071 
L 374.4 154.844763 
L 382.628571 155.42046 
L 390.857143 158.096517 
L 399.085714 164.872511 
L 407.314286 175.734378 
L 415.542857 184.146976 
L 423.771429 186.048249 
L 432 187.080318 
L 440.228571 188.181896 
L 448.457143 186.597923 
L 456.685714 183.886812 
L 464.914286 184.990872 
L 473.142857 187.938593 
L 481.371429 187.188971 
L 489.6 196.276758 
" clip-path="url(#p8a57bf9d15)" style="fill: none; stroke: #b2b2b2; stroke-opacity: 0.2; stroke-width: 1.5; stroke-linecap: square"/>
   </g>
   <g id="line2d_24">
    <path d="M 86.4 116.483843 
L 94.628571 114.562951 
L 102.857143 110.641274 
L 111.085714 107.292521 
L 119.314286 107.174002 
L 127.542857 100.549474 
L 135.771429 94.966749 
L 144 83.811445 
L 152.228571 82.422844 
L 160.457143 81.388048 
L 168.685714 85.656594 
L 176.914286 91.154539 
L 185.142857 97.518546 
L 193.371429 101.477259 
L 201.6 101.472256 
L 209.828571 102.694883 
L 218.057143 105.819455 
L 226.285714 110.480898 
L 234.514286 112.8729 
L 242.742857 116.666203 
L 250.971429 113.709666 
L 259.2 104.021032 
L 267.428571 96.351903 
L 275.657143 89.90126 
L 283.885714 84.784643 
L 292.114286 89.836101 
L 300.342857 98.541826 
L 308.571429 105.039936 
L 316.8 107.526469 
L 325.028571 114.455847 
L 333.257143 120.102071 
L 341.485714 122.664325 
L 349.714286 126.70236 
L 357.942857 126.923461 
L 366.171429 134.610076 
L 374.4 141.214555 
L 382.628571 138.832462 
L 390.857143 132.367457 
L 399.085714 131.410447 
L 407.314286 141.102817 
L 415.542857 146.075494 
L 423.771429 148.317014 
L 432 148.803803 
L 440.228571 148.313321 
L 448.457143 148.153517 
L 456.685714 147.277953 
L 464.914286 151.778388 
L 473.142857 156.642868 
L 481.371429 158.324363 
L 489.6 153.065709 
" clip-path="url(#p8a57bf9d15)" style="fill: none; stroke: #b2b2b2; stroke-opacity: 0.2; stroke-width: 1.5; stroke-linecap: square"/>
   </g>
   <g id="line2d_25">
    <path d="M 86.4 93.313933 
L 94.628571 91.203359 
L 102.857143 88.257067 
L 111.085714 97.426786 
L 119.314286 98.44787 
L 127.542857 95.169363 
L 135.771429 87.761758 
L 144 85.646308 
L 152.228571 83.143203 
L 160.457143 82.848557 
L 168.685714 83.485988 
L 176.914286 87.316994 
L 185.142857 91.800303 
L 193.371429 95.054942 
L 201.6 95.118012 
L 209.828571 94.954369 
L 218.057143 95.276431 
L 226.285714 96.422992 
L 234.514286 96.355335 
L 242.742857 94.062525 
L 250.971429 91.945854 
L 259.2 91.043367 
L 267.428571 93.287972 
L 275.657143 97.617653 
L 283.885714 100.32321 
L 292.114286 101.879713 
L 300.342857 102.964501 
L 308.571429 102.749609 
L 316.8 105.933257 
L 325.028571 108.055973 
L 333.257143 110.963818 
L 341.485714 113.695154 
L 349.714286 116.239289 
L 357.942857 118.237946 
L 366.171429 119.243154 
L 374.4 120.056089 
L 382.628571 121.235693 
L 390.857143 120.359803 
L 399.085714 122.708738 
L 407.314286 126.033251 
L 415.542857 129.088831 
L 423.771429 130.069451 
L 432 129.754012 
L 440.228571 128.236722 
L 448.457143 127.872165 
L 456.685714 126.451768 
L 464.914286 126.899734 
L 473.142857 130.741577 
L 481.371429 134.437717 
L 489.6 136.121565 
" clip-path="url(#p8a57bf9d15)" style="fill: none; stroke: #b2b2b2; stroke-opacity: 0.2; stroke-width: 1.5; stroke-linecap: square"/>
   </g>
   <g id="line2d_26">
    <path d="M 86.4 70.66162 
L 94.628571 63.935861 
L 102.857143 60.215046 
L 111.085714 70.129573 
L 119.314286 76.773635 
L 127.542857 82.891157 
L 135.771429 93.839368 
L 144 105.098177 
L 152.228571 117.067032 
L 160.457143 120.83127 
L 168.685714 124.95426 
L 176.914286 121.161632 
L 185.142857 114.935888 
L 193.371429 115.253588 
L 201.6 110.912838 
L 209.828571 110.027886 
L 218.057143 110.247778 
L 226.285714 105.193856 
L 234.514286 105.202233 
L 242.742857 103.273061 
L 250.971429 104.495094 
L 259.2 112.472486 
L 267.428571 123.017593 
L 275.657143 127.150779 
L 283.885714 124.762757 
L 292.114286 125.16949 
L 300.342857 130.116479 
L 308.571429 131.193585 
L 316.8 130.059265 
L 325.028571 128.275411 
L 333.257143 128.420379 
L 341.485714 124.479044 
L 349.714286 121.744964 
L 357.942857 117.430697 
L 366.171429 113.224784 
L 374.4 112.45598 
L 382.628571 119.454049 
L 390.857143 131.588058 
L 399.085714 142.454584 
L 407.314286 156.507737 
L 415.542857 166.134583 
L 423.771429 175.145471 
L 432 172.675991 
L 440.228571 162.944314 
L 448.457143 155.987086 
L 456.685714 149.432709 
L 464.914286 147.260613 
L 473.142857 146.599398 
L 481.371429 145.058792 
L 489.6 138.663804 
" clip-path="url(#p8a57bf9d15)" style="fill: none; stroke: #b2b2b2; stroke-opacity: 0.2; stroke-width: 1.5; stroke-linecap: square"/>
   </g>
   <g id="line2d_27">
    <path d="M 86.4 19.85313 
L 94.628571 26.984285 
L 102.857143 35.783219 
L 111.085714 43.498775 
L 119.314286 46.715369 
L 127.542857 48.83682 
L 135.771429 47.649778 
L 144 47.217824 
L 152.228571 46.364009 
L 160.457143 47.226124 
L 168.685714 51.100659 
L 176.914286 55.882368 
L 185.142857 66.252509 
L 193.371429 69.851854 
L 201.6 69.497929 
L 209.828571 63.396322 
L 218.057143 53.206515 
L 226.285714 47.832772 
L 234.514286 49.653204 
L 242.742857 55.406528 
L 250.971429 59.038245 
L 259.2 59.610286 
L 267.428571 61.100622 
L 275.657143 63.749607 
L 283.885714 68.062107 
L 292.114286 68.224697 
L 300.342857 67.136729 
L 308.571429 70.372464 
L 316.8 74.85002 
L 325.028571 80.84709 
L 333.257143 86.713109 
L 341.485714 93.453343 
L 349.714286 102.439451 
L 357.942857 109.40219 
L 366.171429 112.512616 
L 374.4 118.864792 
L 382.628571 122.376988 
L 390.857143 125.258421 
L 399.085714 125.937652 
L 407.314286 125.158466 
L 415.542857 122.907445 
L 423.771429 119.463506 
L 432 115.586756 
L 440.228571 115.012933 
L 448.457143 113.915571 
L 456.685714 115.617701 
L 464.914286 118.783298 
L 473.142857 121.0977 
L 481.371429 123.387522 
L 489.6 125.093031 
" clip-path="url(#p8a57bf9d15)" style="fill: none; stroke: #b2b2b2; stroke-opacity: 0.2; stroke-width: 1.5; stroke-linecap: square"/>
   </g>
   <g id="line2d_28">
    <path d="M 167.04 241.92 
L 167.04 40.32 
" clip-path="url(#p8a57bf9d15)" style="fill: none; stroke-dasharray: 5.55,2.4; stroke-dashoffset: 0; stroke: #000000; stroke-width: 1.5"/>
   </g>
   <g id="line2d_29">
    <path d="M 86.4 141.12 
L 489.6 141.12 
" clip-path="url(#p8a57bf9d15)" style="fill: none; stroke-dasharray: 5.55,2.4; stroke-dashoffset: 0; stroke: #000000; stroke-width: 1.5"/>
   </g>
   <g id="patch_3">
    <path d="M 82.4 241.92 
L 82.4 40.32 
" style="fill: none; stroke: #000000; stroke-width: 0.8; stroke-linejoin: miter; stroke-linecap: square"/>
   </g>
   <g id="patch_4">
    <path d="M 86.4 245.92 
L 489.6 245.92 
" style="fill: none; stroke: #000000; stroke-width: 0.8; stroke-linejoin: miter; stroke-linecap: square"/>
   </g>
   <g id="text_11">
    <!-- all depths -->
    <g transform="translate(268.328125 34.32) scale(0.08 -0.08)">
     <defs>
      <path id="DejaVuSans-6c" d="M 603 4863 
L 1178 4863 
L 1178 0 
L 603 0 
L 603 4863 
z
" transform="scale(0.015625)"/>
      <path id="DejaVuSans-64" d="M 2906 2969 
L 2906 4863 
L 3481 4863 
L 3481 0 
L 2906 0 
L 2906 525 
Q 2725 213 2448 61 
Q 2172 -91 1784 -91 
Q 1150 -91 751 415 
Q 353 922 353 1747 
Q 353 2572 751 3078 
Q 1150 3584 1784 3584 
Q 2172 3584 2448 3432 
Q 2725 3281 2906 2969 
z
M 947 1747 
Q 947 1113 1208 752 
Q 1469 391 1925 391 
Q 2381 391 2643 752 
Q 2906 1113 2906 1747 
Q 2906 2381 2643 2742 
Q 2381 3103 1925 3103 
Q 1469 3103 1208 2742 
Q 947 2381 947 1747 
z
" transform="scale(0.015625)"/>
      <path id="DejaVuSans-70" d="M 1159 525 
L 1159 -1331 
L 581 -1331 
L 581 3500 
L 1159 3500 
L 1159 2969 
Q 1341 3281 1617 3432 
Q 1894 3584 2278 3584 
Q 2916 3584 3314 3078 
Q 3713 2572 3713 1747 
Q 3713 922 3314 415 
Q 2916 -91 2278 -91 
Q 1894 -91 1617 61 
Q 1341 213 1159 525 
z
M 3116 1747 
Q 3116 2381 2855 2742 
Q 2594 3103 2138 3103 
Q 1681 3103 1420 2742 
Q 1159 2381 1159 1747 
Q 1159 1113 1420 752 
Q 1681 391 2138 391 
Q 2594 391 2855 752 
Q 3116 1113 3116 1747 
z
" transform="scale(0.015625)"/>
      <path id="DejaVuSans-74" d="M 1172 4494 
L 1172 3500 
L 2356 3500 
L 2356 3053 
L 1172 3053 
L 1172 1153 
Q 1172 725 1289 603 
Q 1406 481 1766 481 
L 2356 481 
L 2356 0 
L 1766 0 
Q 1100 0 847 248 
Q 594 497 594 1153 
L 594 3053 
L 172 3053 
L 172 3500 
L 594 3500 
L 594 4494 
L 1172 4494 
z
" transform="scale(0.015625)"/>
      <path id="DejaVuSans-73" d="M 2834 3397 
L 2834 2853 
Q 2591 2978 2328 3040 
Q 2066 3103 1784 3103 
Q 1356 3103 1142 2972 
Q 928 2841 928 2578 
Q 928 2378 1081 2264 
Q 1234 2150 1697 2047 
L 1894 2003 
Q 2506 1872 2764 1633 
Q 3022 1394 3022 966 
Q 3022 478 2636 193 
Q 2250 -91 1575 -91 
Q 1294 -91 989 -36 
Q 684 19 347 128 
L 347 722 
Q 666 556 975 473 
Q 1284 391 1588 391 
Q 1994 391 2212 530 
Q 2431 669 2431 922 
Q 2431 1156 2273 1281 
Q 2116 1406 1581 1522 
L 1381 1569 
Q 847 1681 609 1914 
Q 372 2147 372 2553 
Q 372 3047 722 3315 
Q 1072 3584 1716 3584 
Q 2034 3584 2315 3537 
Q 2597 3491 2834 3397 
z
" transform="scale(0.015625)"/>
     </defs>
     <use xlink:href="#DejaVuSans-61"/>
     <use xlink:href="#DejaVuSans-6c" x="61.279297"/>
     <use xlink:href="#DejaVuSans-6c" x="89.0625"/>
     <use xlink:href="#DejaVuSans-20" x="116.845703"/>
     <use xlink:href="#DejaVuSans-64" x="148.632812"/>
     <use xlink:href="#DejaVuSans-65" x="212.109375"/>
     <use xlink:href="#DejaVuSans-70" x="273.632812"/>
     <use xlink:href="#DejaVuSans-74" x="337.109375"/>
     <use xlink:href="#DejaVuSans-68" x="376.318359"/>
     <use xlink:href="#DejaVuSans-73" x="439.697266"/>
    </g>
   </g>
   <g id="legend_1">
    <g id="patch_5">
     <path d="M 309.476562 236.92 
L 482.6 236.92 
Q 484.6 236.92 484.6 234.92 
L 484.6 220.96375 
Q 484.6 218.96375 482.6 218.96375 
L 309.476562 218.96375 
Q 307.476562 218.96375 307.476562 220.96375 
L 307.476562 234.92 
Q 307.476562 236.92 309.476562 236.92 
z
" style="fill: #ffffff; opacity: 0.8; stroke: #cccccc; stroke-linejoin: miter"/>
    </g>
    <g id="line2d_30">
     <path d="M 311.476562 227.062187 
L 321.476562 227.062187 
L 331.476562 227.062187 
" style="fill: none; stroke: #b2b2b2; stroke-width: 1.5; stroke-linecap: square"/>
    </g>
    <g id="text_12">
     <!-- iso-sur_gPPI_superficial_V23 -->
     <g transform="translate(339.476562 230.562187) scale(0.1 -0.1)">
      <defs>
       <path id="DejaVuSans-69" d="M 603 3500 
L 1178 3500 
L 1178 0 
L 603 0 
L 603 3500 
z
M 603 4863 
L 1178 4863 
L 1178 4134 
L 603 4134 
L 603 4863 
z
" transform="scale(0.015625)"/>
       <path id="DejaVuSans-6f" d="M 1959 3097 
Q 1497 3097 1228 2736 
Q 959 2375 959 1747 
Q 959 1119 1226 758 
Q 1494 397 1959 397 
Q 2419 397 2687 759 
Q 2956 1122 2956 1747 
Q 2956 2369 2687 2733 
Q 2419 3097 1959 3097 
z
M 1959 3584 
Q 2709 3584 3137 3096 
Q 3566 2609 3566 1747 
Q 3566 888 3137 398 
Q 2709 -91 1959 -91 
Q 1206 -91 779 398 
Q 353 888 353 1747 
Q 353 2609 779 3096 
Q 1206 3584 1959 3584 
z
" transform="scale(0.015625)"/>
       <path id="DejaVuSans-2d" d="M 313 2009 
L 1997 2009 
L 1997 1497 
L 313 1497 
L 313 2009 
z
" transform="scale(0.015625)"/>
       <path id="DejaVuSans-75" d="M 544 1381 
L 544 3500 
L 1119 3500 
L 1119 1403 
Q 1119 906 1312 657 
Q 1506 409 1894 409 
Q 2359 409 2629 706 
Q 2900 1003 2900 1516 
L 2900 3500 
L 3475 3500 
L 3475 0 
L 2900 0 
L 2900 538 
Q 2691 219 2414 64 
Q 2138 -91 1772 -91 
Q 1169 -91 856 284 
Q 544 659 544 1381 
z
M 1991 3584 
L 1991 3584 
z
" transform="scale(0.015625)"/>
       <path id="DejaVuSans-72" d="M 2631 2963 
Q 2534 3019 2420 3045 
Q 2306 3072 2169 3072 
Q 1681 3072 1420 2755 
Q 1159 2438 1159 1844 
L 1159 0 
L 581 0 
L 581 3500 
L 1159 3500 
L 1159 2956 
Q 1341 3275 1631 3429 
Q 1922 3584 2338 3584 
Q 2397 3584 2469 3576 
Q 2541 3569 2628 3553 
L 2631 2963 
z
" transform="scale(0.015625)"/>
       <path id="DejaVuSans-5f" d="M 3263 -1063 
L 3263 -1509 
L -63 -1509 
L -63 -1063 
L 3263 -1063 
z
" transform="scale(0.015625)"/>
       <path id="DejaVuSans-50" d="M 1259 4147 
L 1259 2394 
L 2053 2394 
Q 2494 2394 2734 2622 
Q 2975 2850 2975 3272 
Q 2975 3691 2734 3919 
Q 2494 4147 2053 4147 
L 1259 4147 
z
M 628 4666 
L 2053 4666 
Q 2838 4666 3239 4311 
Q 3641 3956 3641 3272 
Q 3641 2581 3239 2228 
Q 2838 1875 2053 1875 
L 1259 1875 
L 1259 0 
L 628 0 
L 628 4666 
z
" transform="scale(0.015625)"/>
       <path id="DejaVuSans-49" d="M 628 4666 
L 1259 4666 
L 1259 0 
L 628 0 
L 628 4666 
z
" transform="scale(0.015625)"/>
       <path id="DejaVuSans-66" d="M 2375 4863 
L 2375 4384 
L 1825 4384 
Q 1516 4384 1395 4259 
Q 1275 4134 1275 3809 
L 1275 3500 
L 2222 3500 
L 2222 3053 
L 1275 3053 
L 1275 0 
L 697 0 
L 697 3053 
L 147 3053 
L 147 3500 
L 697 3500 
L 697 3744 
Q 697 4328 969 4595 
Q 1241 4863 1831 4863 
L 2375 4863 
z
" transform="scale(0.015625)"/>
       <path id="DejaVuSans-56" d="M 1831 0 
L 50 4666 
L 709 4666 
L 2188 738 
L 3669 4666 
L 4325 4666 
L 2547 0 
L 1831 0 
z
" transform="scale(0.015625)"/>
       <path id="DejaVuSans-33" d="M 2597 2516 
Q 3050 2419 3304 2112 
Q 3559 1806 3559 1356 
Q 3559 666 3084 287 
Q 2609 -91 1734 -91 
Q 1441 -91 1130 -33 
Q 819 25 488 141 
L 488 750 
Q 750 597 1062 519 
Q 1375 441 1716 441 
Q 2309 441 2620 675 
Q 2931 909 2931 1356 
Q 2931 1769 2642 2001 
Q 2353 2234 1838 2234 
L 1294 2234 
L 1294 2753 
L 1863 2753 
Q 2328 2753 2575 2939 
Q 2822 3125 2822 3475 
Q 2822 3834 2567 4026 
Q 2313 4219 1838 4219 
Q 1578 4219 1281 4162 
Q 984 4106 628 3988 
L 628 4550 
Q 988 4650 1302 4700 
Q 1616 4750 1894 4750 
Q 2613 4750 3031 4423 
Q 3450 4097 3450 3541 
Q 3450 3153 3228 2886 
Q 3006 2619 2597 2516 
z
" transform="scale(0.015625)"/>
      </defs>
      <use xlink:href="#DejaVuSans-69"/>
      <use xlink:href="#DejaVuSans-73" x="27.783203"/>
      <use xlink:href="#DejaVuSans-6f" x="79.882812"/>
      <use xlink:href="#DejaVuSans-2d" x="142.939453"/>
      <use xlink:href="#DejaVuSans-73" x="179.023438"/>
      <use xlink:href="#DejaVuSans-75" x="231.123047"/>
      <use xlink:href="#DejaVuSans-72" x="294.501953"/>
      <use xlink:href="#DejaVuSans-5f" x="335.615234"/>
      <use xlink:href="#DejaVuSans-67" x="385.615234"/>
      <use xlink:href="#DejaVuSans-50" x="449.091797"/>
      <use xlink:href="#DejaVuSans-50" x="509.394531"/>
      <use xlink:href="#DejaVuSans-49" x="569.697266"/>
      <use xlink:href="#DejaVuSans-5f" x="599.189453"/>
      <use xlink:href="#DejaVuSans-73" x="649.189453"/>
      <use xlink:href="#DejaVuSans-75" x="701.289062"/>
      <use xlink:href="#DejaVuSans-70" x="764.667969"/>
      <use xlink:href="#DejaVuSans-65" x="828.144531"/>
      <use xlink:href="#DejaVuSans-72" x="889.667969"/>
      <use xlink:href="#DejaVuSans-66" x="930.78125"/>
      <use xlink:href="#DejaVuSans-69" x="965.986328"/>
      <use xlink:href="#DejaVuSans-63" x="993.769531"/>
      <use xlink:href="#DejaVuSans-69" x="1048.75"/>
      <use xlink:href="#DejaVuSans-61" x="1076.533203"/>
      <use xlink:href="#DejaVuSans-6c" x="1137.8125"/>
      <use xlink:href="#DejaVuSans-5f" x="1165.595703"/>
      <use xlink:href="#DejaVuSans-56" x="1215.595703"/>
      <use xlink:href="#DejaVuSans-32" x="1284.003906"/>
      <use xlink:href="#DejaVuSans-33" x="1347.626953"/>
     </g>
    </g>
   </g>
  </g>
  <g id="axes_2">
   <g id="patch_6">
    <path d="M 86.4 443.52 
L 489.6 443.52 
L 489.6 292.32 
L 86.4 292.32 
z
" style="fill: #ffffff"/>
   </g>
   <g id="patch_7">
    <path d="M 90.432 367.92 
L 163.008 367.92 
L 163.008 283.652152 
L 90.432 283.652152 
z
" clip-path="url(#pe45afb43d8)" style="fill: #b2b2b2; opacity: 0.6"/>
   </g>
   <g id="patch_8">
    <path d="M 171.072 367.92 
L 243.648 367.92 
L 243.648 303.287735 
L 171.072 303.287735 
z
" clip-path="url(#pe45afb43d8)" style="fill: #b2b2b2; opacity: 0.6"/>
   </g>
   <g id="patch_9">
    <path d="M 251.712 367.92 
L 324.288 367.92 
L 324.288 326.499829 
L 251.712 326.499829 
z
" clip-path="url(#pe45afb43d8)" style="fill: #b2b2b2; opacity: 0.6"/>
   </g>
   <g id="patch_10">
    <path d="M 332.352 367.92 
L 404.928 367.92 
L 404.928 360.00385 
L 332.352 360.00385 
z
" clip-path="url(#pe45afb43d8)" style="fill: #b2b2b2; opacity: 0.6"/>
   </g>
   <g id="patch_11">
    <path d="M 412.992 367.92 
L 485.568 367.92 
L 485.568 375.308458 
L 412.992 375.308458 
z
" clip-path="url(#pe45afb43d8)" style="fill: #b2b2b2; opacity: 0.6"/>
   </g>
   <g id="matplotlib.axis_3">
    <g id="xtick_7">
     <g id="line2d_31">
      <g>
       <use xlink:href="#m72d3924260" x="86.4" y="447.52" style="stroke: #000000; stroke-width: 0.8"/>
      </g>
     </g>
     <g id="text_13">
      <!-- 0 -->
      <g transform="translate(83.21875 462.118438) scale(0.1 -0.1)">
       <use xlink:href="#DejaVuSans-30"/>
      </g>
     </g>
    </g>
    <g id="xtick_8">
     <g id="line2d_32">
      <g>
       <use xlink:href="#m72d3924260" x="167.04" y="447.52" style="stroke: #000000; stroke-width: 0.8"/>
      </g>
     </g>
     <g id="text_14">
      <!-- 1 -->
      <g transform="translate(163.85875 462.118438) scale(0.1 -0.1)">
       <use xlink:href="#DejaVuSans-31"/>
      </g>
     </g>
    </g>
    <g id="xtick_9">
     <g id="line2d_33">
      <g>
       <use xlink:href="#m72d3924260" x="247.68" y="447.52" style="stroke: #000000; stroke-width: 0.8"/>
      </g>
     </g>
     <g id="text_15">
      <!-- 2 -->
      <g transform="translate(244.49875 462.118438) scale(0.1 -0.1)">
       <use xlink:href="#DejaVuSans-32"/>
      </g>
     </g>
    </g>
    <g id="xtick_10">
     <g id="line2d_34">
      <g>
       <use xlink:href="#m72d3924260" x="328.32" y="447.52" style="stroke: #000000; stroke-width: 0.8"/>
      </g>
     </g>
     <g id="text_16">
      <!-- 3 -->
      <g transform="translate(325.13875 462.118438) scale(0.1 -0.1)">
       <use xlink:href="#DejaVuSans-33"/>
      </g>
     </g>
    </g>
    <g id="xtick_11">
     <g id="line2d_35">
      <g>
       <use xlink:href="#m72d3924260" x="408.96" y="447.52" style="stroke: #000000; stroke-width: 0.8"/>
      </g>
     </g>
     <g id="text_17">
      <!-- 4 -->
      <g transform="translate(405.77875 462.118438) scale(0.1 -0.1)">
       <defs>
        <path id="DejaVuSans-34" d="M 2419 4116 
L 825 1625 
L 2419 1625 
L 2419 4116 
z
M 2253 4666 
L 3047 4666 
L 3047 1625 
L 3713 1625 
L 3713 1100 
L 3047 1100 
L 3047 0 
L 2419 0 
L 2419 1100 
L 313 1100 
L 313 1709 
L 2253 4666 
z
" transform="scale(0.015625)"/>
       </defs>
       <use xlink:href="#DejaVuSans-34"/>
      </g>
     </g>
    </g>
    <g id="xtick_12">
     <g id="line2d_36">
      <g>
       <use xlink:href="#m72d3924260" x="489.6" y="447.52" style="stroke: #000000; stroke-width: 0.8"/>
      </g>
     </g>
     <g id="text_18">
      <!-- 5 -->
      <g transform="translate(486.41875 462.118438) scale(0.1 -0.1)">
       <use xlink:href="#DejaVuSans-35"/>
      </g>
     </g>
    </g>
    <g id="text_19">
     <!-- relative distance from ROI center ($\sigma$) -->
     <g transform="translate(214.48 474.276875) scale(0.08 -0.08)">
      <defs>
       <path id="DejaVuSans-76" d="M 191 3500 
L 800 3500 
L 1894 563 
L 2988 3500 
L 3597 3500 
L 2284 0 
L 1503 0 
L 191 3500 
z
" transform="scale(0.015625)"/>
       <path id="DejaVuSans-6d" d="M 3328 2828 
Q 3544 3216 3844 3400 
Q 4144 3584 4550 3584 
Q 5097 3584 5394 3201 
Q 5691 2819 5691 2113 
L 5691 0 
L 5113 0 
L 5113 2094 
Q 5113 2597 4934 2840 
Q 4756 3084 4391 3084 
Q 3944 3084 3684 2787 
Q 3425 2491 3425 1978 
L 3425 0 
L 2847 0 
L 2847 2094 
Q 2847 2600 2669 2842 
Q 2491 3084 2119 3084 
Q 1678 3084 1418 2786 
Q 1159 2488 1159 1978 
L 1159 0 
L 581 0 
L 581 3500 
L 1159 3500 
L 1159 2956 
Q 1356 3278 1631 3431 
Q 1906 3584 2284 3584 
Q 2666 3584 2933 3390 
Q 3200 3197 3328 2828 
z
" transform="scale(0.015625)"/>
       <path id="DejaVuSans-52" d="M 2841 2188 
Q 3044 2119 3236 1894 
Q 3428 1669 3622 1275 
L 4263 0 
L 3584 0 
L 2988 1197 
Q 2756 1666 2539 1819 
Q 2322 1972 1947 1972 
L 1259 1972 
L 1259 0 
L 628 0 
L 628 4666 
L 2053 4666 
Q 2853 4666 3247 4331 
Q 3641 3997 3641 3322 
Q 3641 2881 3436 2590 
Q 3231 2300 2841 2188 
z
M 1259 4147 
L 1259 2491 
L 2053 2491 
Q 2509 2491 2742 2702 
Q 2975 2913 2975 3322 
Q 2975 3731 2742 3939 
Q 2509 4147 2053 4147 
L 1259 4147 
z
" transform="scale(0.015625)"/>
       <path id="DejaVuSans-28" d="M 1984 4856 
Q 1566 4138 1362 3434 
Q 1159 2731 1159 2009 
Q 1159 1288 1364 580 
Q 1569 -128 1984 -844 
L 1484 -844 
Q 1016 -109 783 600 
Q 550 1309 550 2009 
Q 550 2706 781 3412 
Q 1013 4119 1484 4856 
L 1984 4856 
z
" transform="scale(0.015625)"/>
       <path id="DejaVuSans-Oblique-3c3" d="M 2219 3044 
Q 1744 3044 1422 2700 
Q 1081 2341 969 1747 
Q 844 1119 1044 756 
Q 1241 397 1706 397 
Q 2166 397 2503 759 
Q 2844 1122 2966 1747 
Q 3075 2319 2881 2700 
Q 2700 3044 2219 3044 
z
M 2309 3503 
L 4219 3500 
L 4106 2925 
L 3463 2925 
Q 3706 2438 3575 1747 
Q 3406 888 2884 400 
Q 2359 -91 1609 -91 
Q 856 -91 525 400 
Q 194 888 363 1747 
Q 528 2609 1050 3097 
Q 1484 3503 2309 3503 
z
" transform="scale(0.015625)"/>
       <path id="DejaVuSans-29" d="M 513 4856 
L 1013 4856 
Q 1481 4119 1714 3412 
Q 1947 2706 1947 2009 
Q 1947 1309 1714 600 
Q 1481 -109 1013 -844 
L 513 -844 
Q 928 -128 1133 580 
Q 1338 1288 1338 2009 
Q 1338 2731 1133 3434 
Q 928 4138 513 4856 
z
" transform="scale(0.015625)"/>
      </defs>
      <use xlink:href="#DejaVuSans-72" transform="translate(0 0.015625)"/>
      <use xlink:href="#DejaVuSans-65" transform="translate(41.113281 0.015625)"/>
      <use xlink:href="#DejaVuSans-6c" transform="translate(102.636719 0.015625)"/>
      <use xlink:href="#DejaVuSans-61" transform="translate(130.419922 0.015625)"/>
      <use xlink:href="#DejaVuSans-74" transform="translate(191.699219 0.015625)"/>
      <use xlink:href="#DejaVuSans-69" transform="translate(230.908203 0.015625)"/>
      <use xlink:href="#DejaVuSans-76" transform="translate(258.691406 0.015625)"/>
      <use xlink:href="#DejaVuSans-65" transform="translate(317.871094 0.015625)"/>
      <use xlink:href="#DejaVuSans-20" transform="translate(379.394531 0.015625)"/>
      <use xlink:href="#DejaVuSans-64" transform="translate(411.181641 0.015625)"/>
      <use xlink:href="#DejaVuSans-69" transform="translate(474.658203 0.015625)"/>
      <use xlink:href="#DejaVuSans-73" transform="translate(502.441406 0.015625)"/>
      <use xlink:href="#DejaVuSans-74" transform="translate(554.541016 0.015625)"/>
      <use xlink:href="#DejaVuSans-61" transform="translate(593.75 0.015625)"/>
      <use xlink:href="#DejaVuSans-6e" transform="translate(655.029297 0.015625)"/>
      <use xlink:href="#DejaVuSans-63" transform="translate(718.408203 0.015625)"/>
      <use xlink:href="#DejaVuSans-65" transform="translate(773.388672 0.015625)"/>
      <use xlink:href="#DejaVuSans-20" transform="translate(834.912109 0.015625)"/>
      <use xlink:href="#DejaVuSans-66" transform="translate(866.699219 0.015625)"/>
      <use xlink:href="#DejaVuSans-72" transform="translate(901.904297 0.015625)"/>
      <use xlink:href="#DejaVuSans-6f" transform="translate(943.017578 0.015625)"/>
      <use xlink:href="#DejaVuSans-6d" transform="translate(1004.199219 0.015625)"/>
      <use xlink:href="#DejaVuSans-20" transform="translate(1101.611328 0.015625)"/>
      <use xlink:href="#DejaVuSans-52" transform="translate(1133.398438 0.015625)"/>
      <use xlink:href="#DejaVuSans-4f" transform="translate(1202.880859 0.015625)"/>
      <use xlink:href="#DejaVuSans-49" transform="translate(1281.591797 0.015625)"/>
      <use xlink:href="#DejaVuSans-20" transform="translate(1311.083984 0.015625)"/>
      <use xlink:href="#DejaVuSans-63" transform="translate(1342.871094 0.015625)"/>
      <use xlink:href="#DejaVuSans-65" transform="translate(1397.851562 0.015625)"/>
      <use xlink:href="#DejaVuSans-6e" transform="translate(1459.375 0.015625)"/>
      <use xlink:href="#DejaVuSans-74" transform="translate(1522.753906 0.015625)"/>
      <use xlink:href="#DejaVuSans-65" transform="translate(1561.962891 0.015625)"/>
      <use xlink:href="#DejaVuSans-72" transform="translate(1623.486328 0.015625)"/>
      <use xlink:href="#DejaVuSans-20" transform="translate(1664.599609 0.015625)"/>
      <use xlink:href="#DejaVuSans-28" transform="translate(1696.386719 0.015625)"/>
      <use xlink:href="#DejaVuSans-Oblique-3c3" transform="translate(1735.400391 0.015625)"/>
      <use xlink:href="#DejaVuSans-29" transform="translate(1798.779297 0.015625)"/>
     </g>
    </g>
   </g>
   <g id="matplotlib.axis_4">
    <g id="ytick_10">
     <g id="line2d_37">
      <g>
       <use xlink:href="#m9b90289ffe" x="82.4" y="443.52" style="stroke: #000000; stroke-width: 0.8"/>
      </g>
     </g>
     <g id="text_20">
      <!-- −1.0 -->
      <g transform="translate(51.117187 447.319219) scale(0.1 -0.1)">
       <use xlink:href="#DejaVuSans-2212"/>
       <use xlink:href="#DejaVuSans-31" x="83.789062"/>
       <use xlink:href="#DejaVuSans-2e" x="147.412109"/>
       <use xlink:href="#DejaVuSans-30" x="179.199219"/>
      </g>
     </g>
    </g>
    <g id="ytick_11">
     <g id="line2d_38">
      <g>
       <use xlink:href="#m9b90289ffe" x="82.4" y="405.72" style="stroke: #000000; stroke-width: 0.8"/>
      </g>
     </g>
     <g id="text_21">
      <!-- −0.5 -->
      <g transform="translate(51.117187 409.519219) scale(0.1 -0.1)">
       <use xlink:href="#DejaVuSans-2212"/>
       <use xlink:href="#DejaVuSans-30" x="83.789062"/>
       <use xlink:href="#DejaVuSans-2e" x="147.412109"/>
       <use xlink:href="#DejaVuSans-35" x="179.199219"/>
      </g>
     </g>
    </g>
    <g id="ytick_12">
     <g id="line2d_39">
      <g>
       <use xlink:href="#m9b90289ffe" x="82.4" y="367.92" style="stroke: #000000; stroke-width: 0.8"/>
      </g>
     </g>
     <g id="text_22">
      <!-- 0.0 -->
      <g transform="translate(59.496875 371.719219) scale(0.1 -0.1)">
       <use xlink:href="#DejaVuSans-30"/>
       <use xlink:href="#DejaVuSans-2e" x="63.623047"/>
       <use xlink:href="#DejaVuSans-30" x="95.410156"/>
      </g>
     </g>
    </g>
    <g id="ytick_13">
     <g id="line2d_40">
      <g>
       <use xlink:href="#m9b90289ffe" x="82.4" y="330.12" style="stroke: #000000; stroke-width: 0.8"/>
      </g>
     </g>
     <g id="text_23">
      <!-- 0.5 -->
      <g transform="translate(59.496875 333.919219) scale(0.1 -0.1)">
       <use xlink:href="#DejaVuSans-30"/>
       <use xlink:href="#DejaVuSans-2e" x="63.623047"/>
       <use xlink:href="#DejaVuSans-35" x="95.410156"/>
      </g>
     </g>
    </g>
    <g id="ytick_14">
     <g id="line2d_41">
      <g>
       <use xlink:href="#m9b90289ffe" x="82.4" y="292.32" style="stroke: #000000; stroke-width: 0.8"/>
      </g>
     </g>
     <g id="text_24">
      <!-- 1.0 -->
      <g transform="translate(59.496875 296.119219) scale(0.1 -0.1)">
       <use xlink:href="#DejaVuSans-31"/>
       <use xlink:href="#DejaVuSans-2e" x="63.623047"/>
       <use xlink:href="#DejaVuSans-30" x="95.410156"/>
      </g>
     </g>
    </g>
    <g id="text_25">
     <!-- Binned Avg -->
     <g transform="translate(45.453437 390.525625) rotate(-90) scale(0.08 -0.08)">
      <defs>
       <path id="DejaVuSans-41" d="M 2188 4044 
L 1331 1722 
L 3047 1722 
L 2188 4044 
z
M 1831 4666 
L 2547 4666 
L 4325 0 
L 3669 0 
L 3244 1197 
L 1141 1197 
L 716 0 
L 50 0 
L 1831 4666 
z
" transform="scale(0.015625)"/>
      </defs>
      <use xlink:href="#DejaVuSans-42"/>
      <use xlink:href="#DejaVuSans-69" x="68.603516"/>
      <use xlink:href="#DejaVuSans-6e" x="96.386719"/>
      <use xlink:href="#DejaVuSans-6e" x="159.765625"/>
      <use xlink:href="#DejaVuSans-65" x="223.144531"/>
      <use xlink:href="#DejaVuSans-64" x="284.667969"/>
      <use xlink:href="#DejaVuSans-20" x="348.144531"/>
      <use xlink:href="#DejaVuSans-41" x="379.931641"/>
      <use xlink:href="#DejaVuSans-76" x="442.464844"/>
      <use xlink:href="#DejaVuSans-67" x="501.644531"/>
     </g>
    </g>
   </g>
   <g id="LineCollection_1">
    <path d="M 126.72 339.111146 
L 126.72 228.193158 
" clip-path="url(#pe45afb43d8)" style="fill: none; stroke: #000000; stroke-width: 1.5"/>
    <path d="M 207.36 328.40121 
L 207.36 278.174261 
" clip-path="url(#pe45afb43d8)" style="fill: none; stroke: #000000; stroke-width: 1.5"/>
    <path d="M 288 350.36499 
L 288 302.634669 
" clip-path="url(#pe45afb43d8)" style="fill: none; stroke: #000000; stroke-width: 1.5"/>
    <path d="M 368.64 386.74654 
L 368.64 333.261159 
" clip-path="url(#pe45afb43d8)" style="fill: none; stroke: #000000; stroke-width: 1.5"/>
    <path d="M 449.28 399.96222 
L 449.28 350.654696 
" clip-path="url(#pe45afb43d8)" style="fill: none; stroke: #000000; stroke-width: 1.5"/>
   </g>
   <g id="line2d_42">
    <defs>
     <path id="mfc6a7bcc3a" d="M 5 0 
L -5 -0 
" style="stroke: #000000"/>
    </defs>
    <g clip-path="url(#pe45afb43d8)">
     <use xlink:href="#mfc6a7bcc3a" x="126.72" y="339.111146" style="stroke: #000000"/>
     <use xlink:href="#mfc6a7bcc3a" x="207.36" y="328.40121" style="stroke: #000000"/>
     <use xlink:href="#mfc6a7bcc3a" x="288" y="350.36499" style="stroke: #000000"/>
     <use xlink:href="#mfc6a7bcc3a" x="368.64" y="386.74654" style="stroke: #000000"/>
     <use xlink:href="#mfc6a7bcc3a" x="449.28" y="399.96222" style="stroke: #000000"/>
    </g>
   </g>
   <g id="line2d_43">
    <g clip-path="url(#pe45afb43d8)">
     <use xlink:href="#mfc6a7bcc3a" x="126.72" y="228.193158" style="stroke: #000000"/>
     <use xlink:href="#mfc6a7bcc3a" x="207.36" y="278.174261" style="stroke: #000000"/>
     <use xlink:href="#mfc6a7bcc3a" x="288" y="302.634669" style="stroke: #000000"/>
     <use xlink:href="#mfc6a7bcc3a" x="368.64" y="333.261159" style="stroke: #000000"/>
     <use xlink:href="#mfc6a7bcc3a" x="449.28" y="350.654696" style="stroke: #000000"/>
    </g>
   </g>
   <g id="line2d_44">
    <path d="M 86.4 367.92 
L 489.6 367.92 
" clip-path="url(#pe45afb43d8)" style="fill: none; stroke-dasharray: 5.55,2.4; stroke-dashoffset: 0; stroke: #000000; stroke-width: 1.5"/>
   </g>
   <g id="patch_12">
    <path d="M 82.4 443.52 
L 82.4 292.32 
" style="fill: none; stroke: #000000; stroke-width: 0.8; stroke-linejoin: miter; stroke-linecap: square"/>
   </g>
   <g id="patch_13">
    <path d="M 86.4 447.52 
L 489.6 447.52 
" style="fill: none; stroke: #000000; stroke-width: 0.8; stroke-linejoin: miter; stroke-linecap: square"/>
   </g>
   <g id="text_26">
    <!-- * -->
    <g transform="translate(204.36 275.678636) scale(0.12 -0.12)">
     <defs>
      <path id="DejaVuSans-2a" d="M 3009 3897 
L 1888 3291 
L 3009 2681 
L 2828 2375 
L 1778 3009 
L 1778 1831 
L 1422 1831 
L 1422 3009 
L 372 2375 
L 191 2681 
L 1313 3291 
L 191 3897 
L 372 4206 
L 1422 3572 
L 1422 4750 
L 1778 4750 
L 1778 3572 
L 2828 4206 
L 3009 3897 
z
" transform="scale(0.015625)"/>
     </defs>
     <use xlink:href="#DejaVuSans-2a"/>
    </g>
   </g>
  </g>
 </g>
 <defs>
  <clipPath id="p8a57bf9d15">
   <rect x="86.4" y="40.32" width="403.2" height="201.6"/>
  </clipPath>
  <clipPath id="pe45afb43d8">
   <rect x="86.4" y="292.32" width="403.2" height="151.2"/>
  </clipPath>
 </defs>
</svg>
