<?xml version="1.0" encoding="utf-8" standalone="no"?>
<!DOCTYPE svg PUBLIC "-//W3C//DTD SVG 1.1//EN"
  "http://www.w3.org/Graphics/SVG/1.1/DTD/svg11.dtd">
<svg xmlns:xlink="http://www.w3.org/1999/xlink" width="254.88pt" height="141.12pt" viewBox="0 0 254.88 141.12" xmlns="http://www.w3.org/2000/svg" version="1.1">
 <metadata>
  <rdf:RDF xmlns:dc="http://purl.org/dc/elements/1.1/" xmlns:cc="http://creativecommons.org/ns#" xmlns:rdf="http://www.w3.org/1999/02/22-rdf-syntax-ns#">
   <cc:Work>
    <dc:type rdf:resource="http://purl.org/dc/dcmitype/StillImage"/>
    <dc:date>2025-09-22T15:18:48.144616</dc:date>
    <dc:format>image/svg+xml</dc:format>
    <dc:creator>
     <cc:Agent>
      <dc:title>Matplotlib v3.8.0, https://matplotlib.org/</dc:title>
     </cc:Agent>
    </dc:creator>
   </cc:Work>
  </rdf:RDF>
 </metadata>
 <defs>
  <style type="text/css">*{stroke-linejoin: round; stroke-linecap: butt}</style>
 </defs>
 <g id="figure_1">
  <g id="patch_1">
   <path d="M 0 141.12 
L 254.88 141.12 
L 254.88 0 
L 0 0 
z
" style="fill: #ffffff"/>
  </g>
  <g id="axes_1">
   <g id="patch_2">
    <path d="M 50.976 49.392 
L 229.392 49.392 
L 229.392 7.056 
L 50.976 7.056 
z
" style="fill: #ffffff"/>
   </g>
   <g id="PolyCollection_1">
    <defs>
     <path id="mf03bd795dd" d="M 50.976 -115.574324 
L 50.976 -111.594614 
L 54.617143 -111.746155 
L 58.258286 -111.825885 
L 61.899429 -111.837507 
L 65.540571 -111.790225 
L 69.181714 -111.810882 
L 72.822857 -111.668716 
L 76.464 -111.578817 
L 80.105143 -111.437965 
L 83.746286 -111.308351 
L 87.387429 -111.020803 
L 91.028571 -110.639569 
L 94.669714 -110.243124 
L 98.310857 -109.918457 
L 101.952 -109.590958 
L 105.593143 -109.331668 
L 109.234286 -109.037358 
L 112.875429 -108.624199 
L 116.516571 -108.185152 
L 120.157714 -107.772164 
L 123.798857 -107.37529 
L 127.44 -107.09932 
L 131.081143 -106.876956 
L 134.722286 -106.727062 
L 138.363429 -106.565578 
L 142.004571 -106.472028 
L 145.645714 -106.459578 
L 149.286857 -106.450006 
L 152.928 -106.447858 
L 156.569143 -106.502057 
L 160.210286 -106.553139 
L 163.851429 -106.680713 
L 167.492571 -106.80717 
L 171.133714 -106.935283 
L 174.774857 -107.055217 
L 178.416 -107.249692 
L 182.057143 -107.389548 
L 185.698286 -107.46236 
L 189.339429 -107.580564 
L 192.980571 -107.663512 
L 196.621714 -107.708331 
L 200.262857 -107.778748 
L 203.904 -107.872176 
L 207.545143 -107.901236 
L 211.186286 -107.935696 
L 214.827429 -108.058824 
L 218.468571 -108.154501 
L 222.109714 -108.284267 
L 225.750857 -108.393323 
L 229.392 -108.48099 
L 229.392 -111.105257 
L 229.392 -111.105257 
L 225.750857 -111.028986 
L 222.109714 -110.936557 
L 218.468571 -110.839662 
L 214.827429 -110.758897 
L 211.186286 -110.651151 
L 207.545143 -110.587504 
L 203.904 -110.533587 
L 200.262857 -110.435618 
L 196.621714 -110.366576 
L 192.980571 -110.316073 
L 189.339429 -110.249876 
L 185.698286 -110.153301 
L 182.057143 -110.060593 
L 178.416 -109.925347 
L 174.774857 -109.753043 
L 171.133714 -109.646056 
L 167.492571 -109.527769 
L 163.851429 -109.40348 
L 160.210286 -109.278115 
L 156.569143 -109.241931 
L 152.928 -109.232125 
L 149.286857 -109.261337 
L 145.645714 -109.311322 
L 142.004571 -109.363597 
L 138.363429 -109.492263 
L 134.722286 -109.65631 
L 131.081143 -109.834835 
L 127.44 -110.091546 
L 123.798857 -110.371744 
L 120.157714 -110.779347 
L 116.516571 -111.191071 
L 112.875429 -111.613495 
L 109.234286 -112.027975 
L 105.593143 -112.348053 
L 101.952 -112.67085 
L 98.310857 -113.034301 
L 94.669714 -113.395649 
L 91.028571 -113.819772 
L 87.387429 -114.289838 
L 83.746286 -114.65963 
L 80.105143 -114.853862 
L 76.464 -115.044748 
L 72.822857 -115.180065 
L 69.181714 -115.397183 
L 65.540571 -115.517609 
L 61.899429 -115.60324 
L 58.258286 -115.622411 
L 54.617143 -115.599672 
L 50.976 -115.574324 
z
" style="stroke: #000000; stroke-opacity: 0.4"/>
    </defs>
    <g clip-path="url(#p7cc9aafa8c)">
     <use xlink:href="#mf03bd795dd" x="0" y="141.12" style="fill-opacity: 0.4; stroke: #000000; stroke-opacity: 0.4"/>
    </g>
   </g>
   <g id="matplotlib.axis_1">
    <g id="xtick_1">
     <g id="line2d_1">
      <defs>
       <path id="md815d6a8aa" d="M 0 0 
L 0 3.5 
" style="stroke: #000000; stroke-width: 0.8"/>
      </defs>
      <g>
       <use xlink:href="#md815d6a8aa" x="50.976" y="53.392" style="stroke: #000000; stroke-width: 0.8"/>
      </g>
     </g>
    </g>
    <g id="xtick_2">
     <g id="line2d_2">
      <g>
       <use xlink:href="#md815d6a8aa" x="86.6592" y="53.392" style="stroke: #000000; stroke-width: 0.8"/>
      </g>
     </g>
    </g>
    <g id="xtick_3">
     <g id="line2d_3">
      <g>
       <use xlink:href="#md815d6a8aa" x="122.3424" y="53.392" style="stroke: #000000; stroke-width: 0.8"/>
      </g>
     </g>
    </g>
    <g id="xtick_4">
     <g id="line2d_4">
      <g>
       <use xlink:href="#md815d6a8aa" x="158.0256" y="53.392" style="stroke: #000000; stroke-width: 0.8"/>
      </g>
     </g>
    </g>
    <g id="xtick_5">
     <g id="line2d_5">
      <g>
       <use xlink:href="#md815d6a8aa" x="193.7088" y="53.392" style="stroke: #000000; stroke-width: 0.8"/>
      </g>
     </g>
    </g>
    <g id="xtick_6">
     <g id="line2d_6">
      <g>
       <use xlink:href="#md815d6a8aa" x="229.392" y="53.392" style="stroke: #000000; stroke-width: 0.8"/>
      </g>
     </g>
    </g>
   </g>
   <g id="matplotlib.axis_2">
    <g id="ytick_1">
     <g id="line2d_7">
      <defs>
       <path id="m531574ad90" d="M 0 0 
L -3.5 0 
" style="stroke: #000000; stroke-width: 0.8"/>
      </defs>
      <g>
       <use xlink:href="#m531574ad90" x="46.976" y="49.392" style="stroke: #000000; stroke-width: 0.8"/>
      </g>
     </g>
     <g id="text_1">
      <!-- −2 -->
      <g transform="translate(25.233812 53.191219) scale(0.1 -0.1)">
       <defs>
        <path id="DejaVuSans-2212" d="M 678 2272 
L 4684 2272 
L 4684 1741 
L 678 1741 
L 678 2272 
z
" transform="scale(0.015625)"/>
        <path id="DejaVuSans-32" d="M 1228 531 
L 3431 531 
L 3431 0 
L 469 0 
L 469 531 
Q 828 903 1448 1529 
Q 2069 2156 2228 2338 
Q 2531 2678 2651 2914 
Q 2772 3150 2772 3378 
Q 2772 3750 2511 3984 
Q 2250 4219 1831 4219 
Q 1534 4219 1204 4116 
Q 875 4013 500 3803 
L 500 4441 
Q 881 4594 1212 4672 
Q 1544 4750 1819 4750 
Q 2544 4750 2975 4387 
Q 3406 4025 3406 3419 
Q 3406 3131 3298 2873 
Q 3191 2616 2906 2266 
Q 2828 2175 2409 1742 
Q 1991 1309 1228 531 
z
" transform="scale(0.015625)"/>
       </defs>
       <use xlink:href="#DejaVuSans-2212"/>
       <use xlink:href="#DejaVuSans-32" x="83.789062"/>
      </g>
     </g>
    </g>
    <g id="ytick_2">
     <g id="line2d_8">
      <g>
       <use xlink:href="#m531574ad90" x="46.976" y="28.224" style="stroke: #000000; stroke-width: 0.8"/>
      </g>
     </g>
     <g id="text_2">
      <!-- 0 -->
      <g transform="translate(33.6135 32.023219) scale(0.1 -0.1)">
       <defs>
        <path id="DejaVuSans-30" d="M 2034 4250 
Q 1547 4250 1301 3770 
Q 1056 3291 1056 2328 
Q 1056 1369 1301 889 
Q 1547 409 2034 409 
Q 2525 409 2770 889 
Q 3016 1369 3016 2328 
Q 3016 3291 2770 3770 
Q 2525 4250 2034 4250 
z
M 2034 4750 
Q 2819 4750 3233 4129 
Q 3647 3509 3647 2328 
Q 3647 1150 3233 529 
Q 2819 -91 2034 -91 
Q 1250 -91 836 529 
Q 422 1150 422 2328 
Q 422 3509 836 4129 
Q 1250 4750 2034 4750 
z
" transform="scale(0.015625)"/>
       </defs>
       <use xlink:href="#DejaVuSans-30"/>
      </g>
     </g>
    </g>
    <g id="ytick_3">
     <g id="line2d_9">
      <g>
       <use xlink:href="#m531574ad90" x="46.976" y="7.056" style="stroke: #000000; stroke-width: 0.8"/>
      </g>
     </g>
     <g id="text_3">
      <!-- 2 -->
      <g transform="translate(33.6135 10.855219) scale(0.1 -0.1)">
       <use xlink:href="#DejaVuSans-32"/>
      </g>
     </g>
    </g>
    <g id="text_4">
     <!-- BOLD % change -->
     <g transform="translate(19.570062 60.42025) rotate(-90) scale(0.08 -0.08)">
      <defs>
       <path id="DejaVuSans-42" d="M 1259 2228 
L 1259 519 
L 2272 519 
Q 2781 519 3026 730 
Q 3272 941 3272 1375 
Q 3272 1813 3026 2020 
Q 2781 2228 2272 2228 
L 1259 2228 
z
M 1259 4147 
L 1259 2741 
L 2194 2741 
Q 2656 2741 2882 2914 
Q 3109 3088 3109 3444 
Q 3109 3797 2882 3972 
Q 2656 4147 2194 4147 
L 1259 4147 
z
M 628 4666 
L 2241 4666 
Q 2963 4666 3353 4366 
Q 3744 4066 3744 3513 
Q 3744 3084 3544 2831 
Q 3344 2578 2956 2516 
Q 3422 2416 3680 2098 
Q 3938 1781 3938 1306 
Q 3938 681 3513 340 
Q 3088 0 2303 0 
L 628 0 
L 628 4666 
z
" transform="scale(0.015625)"/>
       <path id="DejaVuSans-4f" d="M 2522 4238 
Q 1834 4238 1429 3725 
Q 1025 3213 1025 2328 
Q 1025 1447 1429 934 
Q 1834 422 2522 422 
Q 3209 422 3611 934 
Q 4013 1447 4013 2328 
Q 4013 3213 3611 3725 
Q 3209 4238 2522 4238 
z
M 2522 4750 
Q 3503 4750 4090 4092 
Q 4678 3434 4678 2328 
Q 4678 1225 4090 567 
Q 3503 -91 2522 -91 
Q 1538 -91 948 565 
Q 359 1222 359 2328 
Q 359 3434 948 4092 
Q 1538 4750 2522 4750 
z
" transform="scale(0.015625)"/>
       <path id="DejaVuSans-4c" d="M 628 4666 
L 1259 4666 
L 1259 531 
L 3531 531 
L 3531 0 
L 628 0 
L 628 4666 
z
" transform="scale(0.015625)"/>
       <path id="DejaVuSans-44" d="M 1259 4147 
L 1259 519 
L 2022 519 
Q 2988 519 3436 956 
Q 3884 1394 3884 2338 
Q 3884 3275 3436 3711 
Q 2988 4147 2022 4147 
L 1259 4147 
z
M 628 4666 
L 1925 4666 
Q 3281 4666 3915 4102 
Q 4550 3538 4550 2338 
Q 4550 1131 3912 565 
Q 3275 0 1925 0 
L 628 0 
L 628 4666 
z
" transform="scale(0.015625)"/>
       <path id="DejaVuSans-20" transform="scale(0.015625)"/>
       <path id="DejaVuSans-25" d="M 4653 2053 
Q 4381 2053 4226 1822 
Q 4072 1591 4072 1178 
Q 4072 772 4226 539 
Q 4381 306 4653 306 
Q 4919 306 5073 539 
Q 5228 772 5228 1178 
Q 5228 1588 5073 1820 
Q 4919 2053 4653 2053 
z
M 4653 2450 
Q 5147 2450 5437 2106 
Q 5728 1763 5728 1178 
Q 5728 594 5436 251 
Q 5144 -91 4653 -91 
Q 4153 -91 3862 251 
Q 3572 594 3572 1178 
Q 3572 1766 3864 2108 
Q 4156 2450 4653 2450 
z
M 1428 4353 
Q 1159 4353 1004 4120 
Q 850 3888 850 3481 
Q 850 3069 1003 2837 
Q 1156 2606 1428 2606 
Q 1700 2606 1854 2837 
Q 2009 3069 2009 3481 
Q 2009 3884 1853 4118 
Q 1697 4353 1428 4353 
z
M 4250 4750 
L 4750 4750 
L 1831 -91 
L 1331 -91 
L 4250 4750 
z
M 1428 4750 
Q 1922 4750 2215 4408 
Q 2509 4066 2509 3481 
Q 2509 2891 2217 2550 
Q 1925 2209 1428 2209 
Q 931 2209 642 2551 
Q 353 2894 353 3481 
Q 353 4063 643 4406 
Q 934 4750 1428 4750 
z
" transform="scale(0.015625)"/>
       <path id="DejaVuSans-63" d="M 3122 3366 
L 3122 2828 
Q 2878 2963 2633 3030 
Q 2388 3097 2138 3097 
Q 1578 3097 1268 2742 
Q 959 2388 959 1747 
Q 959 1106 1268 751 
Q 1578 397 2138 397 
Q 2388 397 2633 464 
Q 2878 531 3122 666 
L 3122 134 
Q 2881 22 2623 -34 
Q 2366 -91 2075 -91 
Q 1284 -91 818 406 
Q 353 903 353 1747 
Q 353 2603 823 3093 
Q 1294 3584 2113 3584 
Q 2378 3584 2631 3529 
Q 2884 3475 3122 3366 
z
" transform="scale(0.015625)"/>
       <path id="DejaVuSans-68" d="M 3513 2113 
L 3513 0 
L 2938 0 
L 2938 2094 
Q 2938 2591 2744 2837 
Q 2550 3084 2163 3084 
Q 1697 3084 1428 2787 
Q 1159 2491 1159 1978 
L 1159 0 
L 581 0 
L 581 4863 
L 1159 4863 
L 1159 2956 
Q 1366 3272 1645 3428 
Q 1925 3584 2291 3584 
Q 2894 3584 3203 3211 
Q 3513 2838 3513 2113 
z
" transform="scale(0.015625)"/>
       <path id="DejaVuSans-61" d="M 2194 1759 
Q 1497 1759 1228 1600 
Q 959 1441 959 1056 
Q 959 750 1161 570 
Q 1363 391 1709 391 
Q 2188 391 2477 730 
Q 2766 1069 2766 1631 
L 2766 1759 
L 2194 1759 
z
M 3341 1997 
L 3341 0 
L 2766 0 
L 2766 531 
Q 2569 213 2275 61 
Q 1981 -91 1556 -91 
Q 1019 -91 701 211 
Q 384 513 384 1019 
Q 384 1609 779 1909 
Q 1175 2209 1959 2209 
L 2766 2209 
L 2766 2266 
Q 2766 2663 2505 2880 
Q 2244 3097 1772 3097 
Q 1472 3097 1187 3025 
Q 903 2953 641 2809 
L 641 3341 
Q 956 3463 1253 3523 
Q 1550 3584 1831 3584 
Q 2591 3584 2966 3190 
Q 3341 2797 3341 1997 
z
" transform="scale(0.015625)"/>
       <path id="DejaVuSans-6e" d="M 3513 2113 
L 3513 0 
L 2938 0 
L 2938 2094 
Q 2938 2591 2744 2837 
Q 2550 3084 2163 3084 
Q 1697 3084 1428 2787 
Q 1159 2491 1159 1978 
L 1159 0 
L 581 0 
L 581 3500 
L 1159 3500 
L 1159 2956 
Q 1366 3272 1645 3428 
Q 1925 3584 2291 3584 
Q 2894 3584 3203 3211 
Q 3513 2838 3513 2113 
z
" transform="scale(0.015625)"/>
       <path id="DejaVuSans-67" d="M 2906 1791 
Q 2906 2416 2648 2759 
Q 2391 3103 1925 3103 
Q 1463 3103 1205 2759 
Q 947 2416 947 1791 
Q 947 1169 1205 825 
Q 1463 481 1925 481 
Q 2391 481 2648 825 
Q 2906 1169 2906 1791 
z
M 3481 434 
Q 3481 -459 3084 -895 
Q 2688 -1331 1869 -1331 
Q 1566 -1331 1297 -1286 
Q 1028 -1241 775 -1147 
L 775 -588 
Q 1028 -725 1275 -790 
Q 1522 -856 1778 -856 
Q 2344 -856 2625 -561 
Q 2906 -266 2906 331 
L 2906 616 
Q 2728 306 2450 153 
Q 2172 0 1784 0 
Q 1141 0 747 490 
Q 353 981 353 1791 
Q 353 2603 747 3093 
Q 1141 3584 1784 3584 
Q 2172 3584 2450 3431 
Q 2728 3278 2906 2969 
L 2906 3500 
L 3481 3500 
L 3481 434 
z
" transform="scale(0.015625)"/>
       <path id="DejaVuSans-65" d="M 3597 1894 
L 3597 1613 
L 953 1613 
Q 991 1019 1311 708 
Q 1631 397 2203 397 
Q 2534 397 2845 478 
Q 3156 559 3463 722 
L 3463 178 
Q 3153 47 2828 -22 
Q 2503 -91 2169 -91 
Q 1331 -91 842 396 
Q 353 884 353 1716 
Q 353 2575 817 3079 
Q 1281 3584 2069 3584 
Q 2775 3584 3186 3129 
Q 3597 2675 3597 1894 
z
M 3022 2063 
Q 3016 2534 2758 2815 
Q 2500 3097 2075 3097 
Q 1594 3097 1305 2825 
Q 1016 2553 972 2059 
L 3022 2063 
z
" transform="scale(0.015625)"/>
      </defs>
      <use xlink:href="#DejaVuSans-42"/>
      <use xlink:href="#DejaVuSans-4f" x="66.853516"/>
      <use xlink:href="#DejaVuSans-4c" x="145.564453"/>
      <use xlink:href="#DejaVuSans-44" x="201.277344"/>
      <use xlink:href="#DejaVuSans-20" x="278.279297"/>
      <use xlink:href="#DejaVuSans-25" x="310.066406"/>
      <use xlink:href="#DejaVuSans-20" x="405.085938"/>
      <use xlink:href="#DejaVuSans-63" x="436.873047"/>
      <use xlink:href="#DejaVuSans-68" x="491.853516"/>
      <use xlink:href="#DejaVuSans-61" x="555.232422"/>
      <use xlink:href="#DejaVuSans-6e" x="616.511719"/>
      <use xlink:href="#DejaVuSans-67" x="679.890625"/>
      <use xlink:href="#DejaVuSans-65" x="743.367188"/>
     </g>
    </g>
   </g>
   <g id="line2d_10">
    <path d="M 50.976 27.535531 
L 54.617143 27.447087 
L 58.258286 27.395852 
L 61.899429 27.399627 
L 65.540571 27.466083 
L 69.181714 27.515967 
L 72.822857 27.695609 
L 76.464 27.808218 
L 80.105143 27.974087 
L 83.746286 28.13601 
L 87.387429 28.46468 
L 91.028571 28.89033 
L 94.669714 29.300614 
L 98.310857 29.643621 
L 101.952 29.989096 
L 105.593143 30.280139 
L 109.234286 30.587334 
L 112.875429 31.001153 
L 116.516571 31.431888 
L 120.157714 31.844244 
L 123.798857 32.246483 
L 127.44 32.524567 
L 131.081143 32.764104 
L 134.722286 32.928314 
L 138.363429 33.09108 
L 142.004571 33.202188 
L 145.645714 33.23455 
L 149.286857 33.264329 
L 152.928 33.280009 
L 156.569143 33.248006 
L 160.210286 33.204373 
L 163.851429 33.077904 
L 167.492571 32.952531 
L 171.133714 32.829331 
L 174.774857 32.71587 
L 178.416 32.532481 
L 182.057143 32.394929 
L 185.698286 32.312169 
L 189.339429 32.20478 
L 192.980571 32.130207 
L 196.621714 32.082547 
L 200.262857 32.012817 
L 203.904 31.917119 
L 207.545143 31.87563 
L 211.186286 31.826577 
L 214.827429 31.71114 
L 218.468571 31.622919 
L 222.109714 31.509588 
L 225.750857 31.408846 
L 229.392 31.326877 
" clip-path="url(#p7cc9aafa8c)" style="fill: none; stroke: #000000; stroke-width: 1.5; stroke-linecap: square"/>
   </g>
   <g id="line2d_11">
    <path d="M 50.976 23.740853 
L 54.617143 23.740853 
L 58.258286 23.740853 
L 61.899429 24.372412 
L 65.540571 25.007589 
L 69.181714 25.180129 
L 72.822857 25.592599 
L 76.464 25.787063 
L 80.105143 26.117347 
L 83.746286 26.054602 
L 87.387429 26.871377 
L 91.028571 27.962787 
L 94.669714 29.047587 
L 98.310857 30.077932 
L 101.952 30.76072 
L 105.593143 31.087658 
L 109.234286 31.028964 
L 112.875429 31.411197 
L 116.516571 31.96889 
L 120.157714 32.426963 
L 123.798857 33.131515 
L 127.44 33.367471 
L 131.081143 33.750179 
L 134.722286 34.069398 
L 138.363429 34.643623 
L 142.004571 35.473016 
L 145.645714 36.282971 
L 149.286857 36.88355 
L 152.928 37.219041 
L 156.569143 37.671192 
L 160.210286 38.413322 
L 163.851429 39.084334 
L 167.492571 39.543378 
L 171.133714 39.730691 
L 174.774857 39.766202 
L 178.416 39.488091 
L 182.057143 39.380971 
L 185.698286 39.244332 
L 189.339429 38.770877 
L 192.980571 38.381948 
L 196.621714 38.410392 
L 200.262857 38.275652 
L 203.904 37.80542 
L 207.545143 37.52184 
L 211.186286 37.491984 
L 214.827429 37.545141 
L 218.468571 37.780623 
L 222.109714 37.936274 
L 225.750857 37.998921 
L 229.392 38.009709 
" clip-path="url(#p7cc9aafa8c)" style="fill: none; stroke: #000000; stroke-opacity: 0.2; stroke-width: 1.5; stroke-linecap: square"/>
   </g>
   <g id="line2d_12">
    <path d="M 50.976 35.819263 
L 54.617143 35.883956 
L 58.258286 36.071397 
L 61.899429 36.473763 
L 65.540571 36.608835 
L 69.181714 36.787161 
L 72.822857 37.147073 
L 76.464 37.246611 
L 80.105143 37.313747 
L 83.746286 37.562916 
L 87.387429 37.820208 
L 91.028571 38.180028 
L 94.669714 38.554597 
L 98.310857 38.657505 
L 101.952 38.81736 
L 105.593143 38.776729 
L 109.234286 38.713959 
L 112.875429 38.803513 
L 116.516571 38.919112 
L 120.157714 38.755766 
L 123.798857 38.651743 
L 127.44 38.650766 
L 131.081143 38.585032 
L 134.722286 38.668433 
L 138.363429 38.836735 
L 142.004571 38.982147 
L 145.645714 39.164405 
L 149.286857 39.469795 
L 152.928 39.703078 
L 156.569143 39.703517 
L 160.210286 39.560205 
L 163.851429 39.160944 
L 167.492571 38.871902 
L 171.133714 38.853117 
L 174.774857 38.952001 
L 178.416 38.849823 
L 182.057143 38.954013 
L 185.698286 39.077901 
L 189.339429 39.204414 
L 192.980571 39.540412 
L 196.621714 39.896542 
L 200.262857 40.186817 
L 203.904 40.554544 
L 207.545143 41.021194 
L 211.186286 41.426837 
L 214.827429 41.362384 
L 218.468571 41.200981 
L 222.109714 40.929358 
L 225.750857 40.844133 
L 229.392 40.826784 
" clip-path="url(#p7cc9aafa8c)" style="fill: none; stroke: #000000; stroke-opacity: 0.2; stroke-width: 1.5; stroke-linecap: square"/>
   </g>
   <g id="line2d_13">
    <path d="M 50.976 28.08455 
L 54.617143 28.08455 
L 58.258286 28.102618 
L 61.899429 28.016851 
L 65.540571 27.949714 
L 69.181714 27.79845 
L 72.822857 27.57176 
L 76.464 27.343797 
L 80.105143 27.384899 
L 83.746286 27.445118 
L 87.387429 27.701002 
L 91.028571 27.940809 
L 94.669714 28.259553 
L 98.310857 28.633973 
L 101.952 28.848225 
L 105.593143 29.242743 
L 109.234286 29.736868 
L 112.875429 30.110486 
L 116.516571 30.494743 
L 120.157714 30.733211 
L 123.798857 30.902572 
L 127.44 31.036645 
L 131.081143 31.201286 
L 134.722286 31.406446 
L 138.363429 31.556485 
L 142.004571 31.541427 
L 145.645714 31.370006 
L 149.286857 31.300859 
L 152.928 31.280658 
L 156.569143 31.284388 
L 160.210286 31.220448 
L 163.851429 31.067867 
L 167.492571 30.949789 
L 171.133714 30.769685 
L 174.774857 30.622354 
L 178.416 30.485892 
L 182.057143 30.27015 
L 185.698286 30.039649 
L 189.339429 29.851256 
L 192.980571 29.665451 
L 196.621714 29.466978 
L 200.262857 29.328958 
L 203.904 29.182206 
L 207.545143 29.034117 
L 211.186286 28.931256 
L 214.827429 28.859409 
L 218.468571 28.816882 
L 222.109714 28.788436 
L 225.750857 28.864711 
L 229.392 28.929979 
" clip-path="url(#p7cc9aafa8c)" style="fill: none; stroke: #000000; stroke-opacity: 0.2; stroke-width: 1.5; stroke-linecap: square"/>
   </g>
   <g id="line2d_14">
    <path d="M 50.976 24.173659 
L 54.617143 24.195594 
L 58.258286 24.35728 
L 61.899429 24.557397 
L 65.540571 24.810545 
L 69.181714 25.062738 
L 72.822857 25.321987 
L 76.464 25.651079 
L 80.105143 26.023107 
L 83.746286 26.307307 
L 87.387429 26.647246 
L 91.028571 27.030613 
L 94.669714 27.480315 
L 98.310857 27.781054 
L 101.952 28.13576 
L 105.593143 28.375135 
L 109.234286 28.610673 
L 112.875429 28.958618 
L 116.516571 29.398063 
L 120.157714 29.877697 
L 123.798857 30.360995 
L 127.44 30.767438 
L 131.081143 31.150305 
L 134.722286 31.431536 
L 138.363429 31.635854 
L 142.004571 31.802869 
L 145.645714 31.887239 
L 149.286857 31.821383 
L 152.928 31.621452 
L 156.569143 31.385947 
L 160.210286 31.209698 
L 163.851429 30.960523 
L 167.492571 30.726681 
L 171.133714 30.470925 
L 174.774857 30.364879 
L 178.416 30.333586 
L 182.057143 30.491155 
L 185.698286 30.839368 
L 189.339429 31.044811 
L 192.980571 31.16119 
L 196.621714 31.350423 
L 200.262857 31.514501 
L 203.904 31.594281 
L 207.545143 31.745491 
L 211.186286 31.899748 
L 214.827429 31.75098 
L 218.468571 31.553402 
L 222.109714 31.363795 
L 225.750857 31.401843 
L 229.392 31.522641 
" clip-path="url(#p7cc9aafa8c)" style="fill: none; stroke: #000000; stroke-opacity: 0.2; stroke-width: 1.5; stroke-linecap: square"/>
   </g>
   <g id="line2d_15">
    <path d="M 50.976 18.686106 
L 54.617143 18.686106 
L 58.258286 18.637363 
L 61.899429 18.452702 
L 65.540571 18.356042 
L 69.181714 18.377605 
L 72.822857 18.789974 
L 76.464 19.335605 
L 80.105143 19.704117 
L 83.746286 20.323499 
L 87.387429 21.216705 
L 91.028571 22.195546 
L 94.669714 22.839844 
L 98.310857 23.523358 
L 101.952 24.30075 
L 105.593143 25.155009 
L 109.234286 25.986523 
L 112.875429 26.721141 
L 116.516571 27.374627 
L 120.157714 28.021588 
L 123.798857 28.631697 
L 127.44 29.100853 
L 131.081143 29.476305 
L 134.722286 29.661598 
L 138.363429 29.825931 
L 142.004571 30.009875 
L 145.645714 30.080895 
L 149.286857 30.043713 
L 152.928 29.978895 
L 156.569143 29.911839 
L 160.210286 29.886511 
L 163.851429 29.811616 
L 167.492571 29.585129 
L 171.133714 29.408833 
L 174.774857 29.278449 
L 178.416 29.107387 
L 182.057143 28.890102 
L 185.698286 28.80027 
L 189.339429 28.796103 
L 192.980571 28.799208 
L 196.621714 28.870742 
L 200.262857 29.015344 
L 203.904 29.032705 
L 207.545143 29.064995 
L 211.186286 28.890062 
L 214.827429 28.616745 
L 218.468571 28.549769 
L 222.109714 28.588576 
L 225.750857 28.523495 
L 229.392 28.434824 
" clip-path="url(#p7cc9aafa8c)" style="fill: none; stroke: #000000; stroke-opacity: 0.2; stroke-width: 1.5; stroke-linecap: square"/>
   </g>
   <g id="line2d_16">
    <path d="M 50.976 24.703081 
L 54.617143 24.685915 
L 58.258286 24.536966 
L 61.899429 24.420264 
L 65.540571 24.417828 
L 69.181714 24.495014 
L 72.822857 24.552294 
L 76.464 24.623326 
L 80.105143 24.811915 
L 83.746286 25.147185 
L 87.387429 25.443596 
L 91.028571 25.685773 
L 94.669714 25.830152 
L 98.310857 26.014902 
L 101.952 26.054986 
L 105.593143 26.141283 
L 109.234286 26.342588 
L 112.875429 26.723447 
L 116.516571 27.046349 
L 120.157714 27.566569 
L 123.798857 27.979389 
L 127.44 28.275379 
L 131.081143 28.517965 
L 134.722286 28.624221 
L 138.363429 28.779321 
L 142.004571 28.988983 
L 145.645714 29.087241 
L 149.286857 29.248226 
L 152.928 29.362516 
L 156.569143 29.390828 
L 160.210286 29.350649 
L 163.851429 29.22515 
L 167.492571 29.134594 
L 171.133714 28.955138 
L 174.774857 28.755848 
L 178.416 28.526354 
L 182.057143 28.39487 
L 185.698286 28.185547 
L 189.339429 27.99093 
L 192.980571 27.881786 
L 196.621714 27.733848 
L 200.262857 27.502288 
L 203.904 27.221704 
L 207.545143 27.102379 
L 211.186286 27.04633 
L 214.827429 27.03646 
L 218.468571 26.936532 
L 222.109714 26.873138 
L 225.750857 26.878129 
L 229.392 26.761227 
" clip-path="url(#p7cc9aafa8c)" style="fill: none; stroke: #000000; stroke-opacity: 0.2; stroke-width: 1.5; stroke-linecap: square"/>
   </g>
   <g id="line2d_17">
    <path d="M 50.976 26.226797 
L 54.617143 26.186402 
L 58.258286 26.120227 
L 61.899429 26.040876 
L 65.540571 25.978188 
L 69.181714 26.268243 
L 72.822857 26.546564 
L 76.464 26.394831 
L 80.105143 26.653319 
L 83.746286 26.470733 
L 87.387429 26.330125 
L 91.028571 26.807957 
L 94.669714 26.975573 
L 98.310857 26.931961 
L 101.952 27.296177 
L 105.593143 27.590354 
L 109.234286 27.886624 
L 112.875429 28.536919 
L 116.516571 29.050914 
L 120.157714 29.527013 
L 123.798857 29.918777 
L 127.44 30.197161 
L 131.081143 30.531583 
L 134.722286 30.631128 
L 138.363429 30.813294 
L 142.004571 30.908089 
L 145.645714 30.941016 
L 149.286857 31.135638 
L 152.928 31.281156 
L 156.569143 31.326685 
L 160.210286 31.372217 
L 163.851429 31.214543 
L 167.492571 31.1594 
L 171.133714 31.225214 
L 174.774857 31.176862 
L 178.416 30.980602 
L 182.057143 30.848625 
L 185.698286 30.749653 
L 189.339429 30.760134 
L 192.980571 30.807957 
L 196.621714 30.838313 
L 200.262857 31.078299 
L 203.904 31.250851 
L 207.545143 31.196353 
L 211.186286 31.06743 
L 214.827429 30.794179 
L 218.468571 30.67718 
L 222.109714 30.546665 
L 225.750857 30.453637 
L 229.392 30.486313 
" clip-path="url(#p7cc9aafa8c)" style="fill: none; stroke: #000000; stroke-opacity: 0.2; stroke-width: 1.5; stroke-linecap: square"/>
   </g>
   <g id="line2d_18">
    <path d="M 50.976 33.411404 
L 54.617143 33.447662 
L 58.258286 33.477088 
L 61.899429 33.337529 
L 65.540571 33.272598 
L 69.181714 33.240242 
L 72.822857 33.18222 
L 76.464 33.112264 
L 80.105143 33.136103 
L 83.746286 33.206001 
L 87.387429 33.383395 
L 91.028571 33.6738 
L 94.669714 34.103369 
L 98.310857 34.501404 
L 101.952 34.967344 
L 105.593143 35.522539 
L 109.234286 36.063533 
L 112.875429 36.726894 
L 116.516571 37.376415 
L 120.157714 37.841713 
L 123.798857 38.212155 
L 127.44 38.487876 
L 131.081143 38.548821 
L 134.722286 38.648401 
L 138.363429 38.701683 
L 142.004571 38.562461 
L 145.645714 38.266711 
L 149.286857 38.002588 
L 152.928 37.713987 
L 156.569143 37.534742 
L 160.210286 37.32904 
L 163.851429 37.268753 
L 167.492571 37.214671 
L 171.133714 37.111648 
L 174.774857 36.908282 
L 178.416 36.67247 
L 182.057143 36.427985 
L 185.698286 36.258149 
L 189.339429 36.01284 
L 192.980571 35.71956 
L 196.621714 35.515454 
L 200.262857 35.35056 
L 203.904 35.055544 
L 207.545143 34.603599 
L 211.186286 34.245139 
L 214.827429 34.02295 
L 218.468571 33.853951 
L 222.109714 33.622314 
L 225.750857 33.289808 
L 229.392 33.009752 
" clip-path="url(#p7cc9aafa8c)" style="fill: none; stroke: #000000; stroke-opacity: 0.2; stroke-width: 1.5; stroke-linecap: square"/>
   </g>
   <g id="line2d_19">
    <path d="M 50.976 20.160809 
L 54.617143 20.10035 
L 58.258286 19.898161 
L 61.899429 19.898848 
L 65.540571 20.245498 
L 69.181714 20.928873 
L 72.822857 21.298096 
L 76.464 21.498313 
L 80.105143 21.674495 
L 83.746286 21.870103 
L 87.387429 22.149612 
L 91.028571 22.344722 
L 94.669714 22.448778 
L 98.310857 22.514904 
L 101.952 22.645816 
L 105.593143 22.835901 
L 109.234286 23.027396 
L 112.875429 23.220923 
L 116.516571 23.453276 
L 120.157714 23.762956 
L 123.798857 24.184264 
L 127.44 24.422089 
L 131.081143 24.617518 
L 134.722286 24.800414 
L 138.363429 24.864087 
L 142.004571 24.893855 
L 145.645714 24.867017 
L 149.286857 24.849857 
L 152.928 24.956883 
L 156.569143 25.013415 
L 160.210286 25.055883 
L 163.851429 24.937919 
L 167.492571 24.726847 
L 171.133714 24.594279 
L 174.774857 24.55733 
L 178.416 24.443225 
L 182.057143 24.2851 
L 185.698286 24.14016 
L 189.339429 24.010404 
L 192.980571 23.968212 
L 196.621714 24.010647 
L 200.262857 23.915494 
L 203.904 23.818421 
L 207.545143 23.703827 
L 211.186286 23.641497 
L 214.827429 23.646811 
L 218.468571 23.701926 
L 222.109714 23.691694 
L 225.750857 23.619145 
L 229.392 23.600818 
" clip-path="url(#p7cc9aafa8c)" style="fill: none; stroke: #000000; stroke-opacity: 0.2; stroke-width: 1.5; stroke-linecap: square"/>
   </g>
   <g id="line2d_20">
    <path d="M 50.976 23.847925 
L 54.617143 23.936905 
L 58.258286 24.107074 
L 61.899429 24.212598 
L 65.540571 24.415198 
L 69.181714 24.490948 
L 72.822857 24.798048 
L 76.464 25.174345 
L 80.105143 25.438718 
L 83.746286 25.791757 
L 87.387429 26.184343 
L 91.028571 26.62332 
L 94.669714 27.067181 
L 98.310857 27.349824 
L 101.952 27.596078 
L 105.593143 27.813738 
L 109.234286 28.04996 
L 112.875429 28.326501 
L 116.516571 28.749995 
L 120.157714 29.22476 
L 123.798857 29.619208 
L 127.44 29.901837 
L 131.081143 30.089377 
L 134.722286 30.195887 
L 138.363429 30.193799 
L 142.004571 30.192487 
L 145.645714 30.200045 
L 149.286857 30.21972 
L 152.928 30.158616 
L 156.569143 30.056673 
L 160.210286 29.845267 
L 163.851429 29.65555 
L 167.492571 29.613709 
L 171.133714 29.592584 
L 174.774857 29.527442 
L 178.416 29.347583 
L 182.057143 29.227444 
L 185.698286 29.021454 
L 189.339429 28.87502 
L 192.980571 28.780032 
L 196.621714 28.626794 
L 200.262857 28.416359 
L 203.904 28.248354 
L 207.545143 28.323842 
L 211.186286 28.439292 
L 214.827429 28.519129 
L 218.468571 28.47908 
L 222.109714 28.461393 
L 225.750857 28.345742 
L 229.392 28.315944 
" clip-path="url(#p7cc9aafa8c)" style="fill: none; stroke: #000000; stroke-opacity: 0.2; stroke-width: 1.5; stroke-linecap: square"/>
   </g>
   <g id="line2d_21">
    <path d="M 50.976 44.412954 
L 54.617143 43.268885 
L 58.258286 42.559763 
L 61.899429 42.157639 
L 65.540571 42.047496 
L 69.181714 41.11262 
L 72.822857 40.867244 
L 76.464 40.998421 
L 80.105143 41.009613 
L 83.746286 40.853461 
L 87.387429 40.838155 
L 91.028571 40.737386 
L 94.669714 40.801797 
L 98.310857 40.8402 
L 101.952 40.875838 
L 105.593143 40.78374 
L 109.234286 41.124783 
L 112.875429 41.607945 
L 116.516571 42.215149 
L 120.157714 43.054403 
L 123.798857 43.71485 
L 127.44 44.150038 
L 131.081143 44.343836 
L 134.722286 44.300082 
L 138.363429 44.335222 
L 142.004571 44.049528 
L 145.645714 43.532977 
L 149.286857 42.930156 
L 152.928 42.585502 
L 156.569143 41.928327 
L 160.210286 41.428138 
L 163.851429 40.847993 
L 167.492571 40.185988 
L 171.133714 39.463253 
L 174.774857 38.896388 
L 178.416 38.564867 
L 182.057143 38.14617 
L 185.698286 38.10818 
L 189.339429 37.879277 
L 192.980571 37.539709 
L 196.621714 37.086238 
L 200.262857 36.431224 
L 203.904 35.999662 
L 207.545143 35.897876 
L 211.186286 35.641502 
L 214.827429 35.193669 
L 218.468571 34.72979 
L 222.109714 34.263225 
L 225.750857 33.734645 
L 229.392 33.163079 
" clip-path="url(#p7cc9aafa8c)" style="fill: none; stroke: #000000; stroke-opacity: 0.2; stroke-width: 1.5; stroke-linecap: square"/>
   </g>
   <g id="line2d_22">
    <path d="M 50.976 27.158975 
L 54.617143 27.147864 
L 58.258286 27.141431 
L 61.899429 26.854642 
L 65.540571 26.483462 
L 69.181714 26.449585 
L 72.822857 26.679455 
L 76.464 26.532957 
L 80.105143 26.421659 
L 83.746286 26.59943 
L 87.387429 26.990392 
L 91.028571 27.501217 
L 94.669714 28.198619 
L 98.310857 28.896436 
L 101.952 29.570101 
L 105.593143 30.036841 
L 109.234286 30.476133 
L 112.875429 30.86625 
L 116.516571 31.135127 
L 120.157714 31.338296 
L 123.798857 31.650633 
L 127.44 31.937249 
L 131.081143 32.357047 
L 134.722286 32.702224 
L 138.363429 32.906923 
L 142.004571 33.021514 
L 145.645714 33.13408 
L 149.286857 33.26646 
L 152.928 33.498322 
L 156.569143 33.768517 
L 160.210286 33.781095 
L 163.851429 33.699654 
L 167.492571 33.718283 
L 171.133714 33.776599 
L 174.774857 33.784402 
L 178.416 33.589889 
L 182.057143 33.422568 
L 185.698286 33.281369 
L 189.339429 33.261295 
L 192.980571 33.317021 
L 196.621714 33.18419 
L 200.262857 33.138309 
L 203.904 33.241729 
L 207.545143 33.292044 
L 211.186286 33.19784 
L 214.827429 33.185821 
L 218.468571 33.194909 
L 222.109714 33.050191 
L 225.750857 32.951936 
L 229.392 32.86145 
" clip-path="url(#p7cc9aafa8c)" style="fill: none; stroke: #000000; stroke-opacity: 0.2; stroke-width: 1.5; stroke-linecap: square"/>
   </g>
   <g id="line2d_23">
    <path d="M 86.6592 49.392 
L 86.6592 7.056 
" clip-path="url(#p7cc9aafa8c)" style="fill: none; stroke-dasharray: 5.55,2.4; stroke-dashoffset: 0; stroke: #000000; stroke-width: 1.5"/>
   </g>
   <g id="line2d_24">
    <path d="M 50.976 28.224 
L 229.392 28.224 
" clip-path="url(#p7cc9aafa8c)" style="fill: none; stroke-dasharray: 5.55,2.4; stroke-dashoffset: 0; stroke: #000000; stroke-width: 1.5"/>
   </g>
   <g id="patch_3">
    <path d="M 46.976 49.392 
L 46.976 7.056 
" style="fill: none; stroke: #000000; stroke-width: 0.8; stroke-linejoin: miter; stroke-linecap: square"/>
   </g>
   <g id="patch_4">
    <path d="M 50.976 53.392 
L 229.392 53.392 
" style="fill: none; stroke: #000000; stroke-width: 0.8; stroke-linejoin: miter; stroke-linecap: square"/>
   </g>
   <g id="text_5">
    <!-- all depths -->
    <g transform="translate(120.512125 1.056) scale(0.08 -0.08)">
     <defs>
      <path id="DejaVuSans-6c" d="M 603 4863 
L 1178 4863 
L 1178 0 
L 603 0 
L 603 4863 
z
" transform="scale(0.015625)"/>
      <path id="DejaVuSans-64" d="M 2906 2969 
L 2906 4863 
L 3481 4863 
L 3481 0 
L 2906 0 
L 2906 525 
Q 2725 213 2448 61 
Q 2172 -91 1784 -91 
Q 1150 -91 751 415 
Q 353 922 353 1747 
Q 353 2572 751 3078 
Q 1150 3584 1784 3584 
Q 2172 3584 2448 3432 
Q 2725 3281 2906 2969 
z
M 947 1747 
Q 947 1113 1208 752 
Q 1469 391 1925 391 
Q 2381 391 2643 752 
Q 2906 1113 2906 1747 
Q 2906 2381 2643 2742 
Q 2381 3103 1925 3103 
Q 1469 3103 1208 2742 
Q 947 2381 947 1747 
z
" transform="scale(0.015625)"/>
      <path id="DejaVuSans-70" d="M 1159 525 
L 1159 -1331 
L 581 -1331 
L 581 3500 
L 1159 3500 
L 1159 2969 
Q 1341 3281 1617 3432 
Q 1894 3584 2278 3584 
Q 2916 3584 3314 3078 
Q 3713 2572 3713 1747 
Q 3713 922 3314 415 
Q 2916 -91 2278 -91 
Q 1894 -91 1617 61 
Q 1341 213 1159 525 
z
M 3116 1747 
Q 3116 2381 2855 2742 
Q 2594 3103 2138 3103 
Q 1681 3103 1420 2742 
Q 1159 2381 1159 1747 
Q 1159 1113 1420 752 
Q 1681 391 2138 391 
Q 2594 391 2855 752 
Q 3116 1113 3116 1747 
z
" transform="scale(0.015625)"/>
      <path id="DejaVuSans-74" d="M 1172 4494 
L 1172 3500 
L 2356 3500 
L 2356 3053 
L 1172 3053 
L 1172 1153 
Q 1172 725 1289 603 
Q 1406 481 1766 481 
L 2356 481 
L 2356 0 
L 1766 0 
Q 1100 0 847 248 
Q 594 497 594 1153 
L 594 3053 
L 172 3053 
L 172 3500 
L 594 3500 
L 594 4494 
L 1172 4494 
z
" transform="scale(0.015625)"/>
      <path id="DejaVuSans-73" d="M 2834 3397 
L 2834 2853 
Q 2591 2978 2328 3040 
Q 2066 3103 1784 3103 
Q 1356 3103 1142 2972 
Q 928 2841 928 2578 
Q 928 2378 1081 2264 
Q 1234 2150 1697 2047 
L 1894 2003 
Q 2506 1872 2764 1633 
Q 3022 1394 3022 966 
Q 3022 478 2636 193 
Q 2250 -91 1575 -91 
Q 1294 -91 989 -36 
Q 684 19 347 128 
L 347 722 
Q 666 556 975 473 
Q 1284 391 1588 391 
Q 1994 391 2212 530 
Q 2431 669 2431 922 
Q 2431 1156 2273 1281 
Q 2116 1406 1581 1522 
L 1381 1569 
Q 847 1681 609 1914 
Q 372 2147 372 2553 
Q 372 3047 722 3315 
Q 1072 3584 1716 3584 
Q 2034 3584 2315 3537 
Q 2597 3491 2834 3397 
z
" transform="scale(0.015625)"/>
     </defs>
     <use xlink:href="#DejaVuSans-61"/>
     <use xlink:href="#DejaVuSans-6c" x="61.279297"/>
     <use xlink:href="#DejaVuSans-6c" x="89.0625"/>
     <use xlink:href="#DejaVuSans-20" x="116.845703"/>
     <use xlink:href="#DejaVuSans-64" x="148.632812"/>
     <use xlink:href="#DejaVuSans-65" x="212.109375"/>
     <use xlink:href="#DejaVuSans-70" x="273.632812"/>
     <use xlink:href="#DejaVuSans-74" x="337.109375"/>
     <use xlink:href="#DejaVuSans-68" x="376.318359"/>
     <use xlink:href="#DejaVuSans-73" x="439.697266"/>
    </g>
   </g>
   <g id="legend_1">
    <g id="patch_5">
     <path d="M 107.404312 29.734125 
L 172.963687 29.734125 
Q 174.963687 29.734125 174.963687 27.734125 
L 174.963687 14.056 
Q 174.963687 12.056 172.963687 12.056 
L 107.404312 12.056 
Q 105.404312 12.056 105.404312 14.056 
L 105.404312 27.734125 
Q 105.404312 29.734125 107.404312 29.734125 
z
" style="fill: #ffffff; opacity: 0.8; stroke: #cccccc; stroke-linejoin: miter"/>
    </g>
    <g id="line2d_25">
     <path d="M 109.404312 20.154438 
L 119.404312 20.154438 
L 129.404312 20.154438 
" style="fill: none; stroke: #000000; stroke-width: 1.5; stroke-linecap: square"/>
    </g>
    <g id="text_6">
     <!-- iso-sur -->
     <g transform="translate(137.404312 23.654438) scale(0.1 -0.1)">
      <defs>
       <path id="DejaVuSans-69" d="M 603 3500 
L 1178 3500 
L 1178 0 
L 603 0 
L 603 3500 
z
M 603 4863 
L 1178 4863 
L 1178 4134 
L 603 4134 
L 603 4863 
z
" transform="scale(0.015625)"/>
       <path id="DejaVuSans-6f" d="M 1959 3097 
Q 1497 3097 1228 2736 
Q 959 2375 959 1747 
Q 959 1119 1226 758 
Q 1494 397 1959 397 
Q 2419 397 2687 759 
Q 2956 1122 2956 1747 
Q 2956 2369 2687 2733 
Q 2419 3097 1959 3097 
z
M 1959 3584 
Q 2709 3584 3137 3096 
Q 3566 2609 3566 1747 
Q 3566 888 3137 398 
Q 2709 -91 1959 -91 
Q 1206 -91 779 398 
Q 353 888 353 1747 
Q 353 2609 779 3096 
Q 1206 3584 1959 3584 
z
" transform="scale(0.015625)"/>
       <path id="DejaVuSans-2d" d="M 313 2009 
L 1997 2009 
L 1997 1497 
L 313 1497 
L 313 2009 
z
" transform="scale(0.015625)"/>
       <path id="DejaVuSans-75" d="M 544 1381 
L 544 3500 
L 1119 3500 
L 1119 1403 
Q 1119 906 1312 657 
Q 1506 409 1894 409 
Q 2359 409 2629 706 
Q 2900 1003 2900 1516 
L 2900 3500 
L 3475 3500 
L 3475 0 
L 2900 0 
L 2900 538 
Q 2691 219 2414 64 
Q 2138 -91 1772 -91 
Q 1169 -91 856 284 
Q 544 659 544 1381 
z
M 1991 3584 
L 1991 3584 
z
" transform="scale(0.015625)"/>
       <path id="DejaVuSans-72" d="M 2631 2963 
Q 2534 3019 2420 3045 
Q 2306 3072 2169 3072 
Q 1681 3072 1420 2755 
Q 1159 2438 1159 1844 
L 1159 0 
L 581 0 
L 581 3500 
L 1159 3500 
L 1159 2956 
Q 1341 3275 1631 3429 
Q 1922 3584 2338 3584 
Q 2397 3584 2469 3576 
Q 2541 3569 2628 3553 
L 2631 2963 
z
" transform="scale(0.015625)"/>
      </defs>
      <use xlink:href="#DejaVuSans-69"/>
      <use xlink:href="#DejaVuSans-73" x="27.783203"/>
      <use xlink:href="#DejaVuSans-6f" x="79.882812"/>
      <use xlink:href="#DejaVuSans-2d" x="142.939453"/>
      <use xlink:href="#DejaVuSans-73" x="179.023438"/>
      <use xlink:href="#DejaVuSans-75" x="231.123047"/>
      <use xlink:href="#DejaVuSans-72" x="294.501953"/>
     </g>
    </g>
   </g>
  </g>
  <g id="axes_2">
   <g id="patch_6">
    <path d="M 50.976 105.84 
L 229.392 105.84 
L 229.392 63.504 
L 50.976 63.504 
z
" style="fill: #ffffff"/>
   </g>
   <g id="patch_7">
    <path d="M 52.76016 84.672 
L 84.87504 84.672 
L 84.87504 82.115009 
L 52.76016 82.115009 
z
" clip-path="url(#p8d74b06be0)" style="opacity: 0.6"/>
   </g>
   <g id="patch_8">
    <path d="M 88.44336 84.672 
L 120.55824 84.672 
L 120.55824 85.677111 
L 88.44336 85.677111 
z
" clip-path="url(#p8d74b06be0)" style="opacity: 0.6"/>
   </g>
   <g id="patch_9">
    <path d="M 124.12656 84.672 
L 156.24144 84.672 
L 156.24144 93.715113 
L 124.12656 93.715113 
z
" clip-path="url(#p8d74b06be0)" style="opacity: 0.6"/>
   </g>
   <g id="patch_10">
    <path d="M 159.80976 84.672 
L 191.92464 84.672 
L 191.92464 94.000399 
L 159.80976 94.000399 
z
" clip-path="url(#p8d74b06be0)" style="opacity: 0.6"/>
   </g>
   <g id="patch_11">
    <path d="M 195.49296 84.672 
L 227.60784 84.672 
L 227.60784 91.789799 
L 195.49296 91.789799 
z
" clip-path="url(#p8d74b06be0)" style="opacity: 0.6"/>
   </g>
   <g id="matplotlib.axis_3">
    <g id="xtick_7">
     <g id="line2d_26">
      <g>
       <use xlink:href="#md815d6a8aa" x="50.976" y="109.84" style="stroke: #000000; stroke-width: 0.8"/>
      </g>
     </g>
     <g id="text_7">
      <!-- 0 -->
      <g transform="translate(47.79475 124.438438) scale(0.1 -0.1)">
       <use xlink:href="#DejaVuSans-30"/>
      </g>
     </g>
    </g>
    <g id="xtick_8">
     <g id="line2d_27">
      <g>
       <use xlink:href="#md815d6a8aa" x="86.6592" y="109.84" style="stroke: #000000; stroke-width: 0.8"/>
      </g>
     </g>
     <g id="text_8">
      <!-- 1 -->
      <g transform="translate(83.47795 124.438438) scale(0.1 -0.1)">
       <defs>
        <path id="DejaVuSans-31" d="M 794 531 
L 1825 531 
L 1825 4091 
L 703 3866 
L 703 4441 
L 1819 4666 
L 2450 4666 
L 2450 531 
L 3481 531 
L 3481 0 
L 794 0 
L 794 531 
z
" transform="scale(0.015625)"/>
       </defs>
       <use xlink:href="#DejaVuSans-31"/>
      </g>
     </g>
    </g>
    <g id="xtick_9">
     <g id="line2d_28">
      <g>
       <use xlink:href="#md815d6a8aa" x="122.3424" y="109.84" style="stroke: #000000; stroke-width: 0.8"/>
      </g>
     </g>
     <g id="text_9">
      <!-- 2 -->
      <g transform="translate(119.16115 124.438438) scale(0.1 -0.1)">
       <use xlink:href="#DejaVuSans-32"/>
      </g>
     </g>
    </g>
    <g id="xtick_10">
     <g id="line2d_29">
      <g>
       <use xlink:href="#md815d6a8aa" x="158.0256" y="109.84" style="stroke: #000000; stroke-width: 0.8"/>
      </g>
     </g>
     <g id="text_10">
      <!-- 3 -->
      <g transform="translate(154.84435 124.438438) scale(0.1 -0.1)">
       <defs>
        <path id="DejaVuSans-33" d="M 2597 2516 
Q 3050 2419 3304 2112 
Q 3559 1806 3559 1356 
Q 3559 666 3084 287 
Q 2609 -91 1734 -91 
Q 1441 -91 1130 -33 
Q 819 25 488 141 
L 488 750 
Q 750 597 1062 519 
Q 1375 441 1716 441 
Q 2309 441 2620 675 
Q 2931 909 2931 1356 
Q 2931 1769 2642 2001 
Q 2353 2234 1838 2234 
L 1294 2234 
L 1294 2753 
L 1863 2753 
Q 2328 2753 2575 2939 
Q 2822 3125 2822 3475 
Q 2822 3834 2567 4026 
Q 2313 4219 1838 4219 
Q 1578 4219 1281 4162 
Q 984 4106 628 3988 
L 628 4550 
Q 988 4650 1302 4700 
Q 1616 4750 1894 4750 
Q 2613 4750 3031 4423 
Q 3450 4097 3450 3541 
Q 3450 3153 3228 2886 
Q 3006 2619 2597 2516 
z
" transform="scale(0.015625)"/>
       </defs>
       <use xlink:href="#DejaVuSans-33"/>
      </g>
     </g>
    </g>
    <g id="xtick_11">
     <g id="line2d_30">
      <g>
       <use xlink:href="#md815d6a8aa" x="193.7088" y="109.84" style="stroke: #000000; stroke-width: 0.8"/>
      </g>
     </g>
     <g id="text_11">
      <!-- 4 -->
      <g transform="translate(190.52755 124.438438) scale(0.1 -0.1)">
       <defs>
        <path id="DejaVuSans-34" d="M 2419 4116 
L 825 1625 
L 2419 1625 
L 2419 4116 
z
M 2253 4666 
L 3047 4666 
L 3047 1625 
L 3713 1625 
L 3713 1100 
L 3047 1100 
L 3047 0 
L 2419 0 
L 2419 1100 
L 313 1100 
L 313 1709 
L 2253 4666 
z
" transform="scale(0.015625)"/>
       </defs>
       <use xlink:href="#DejaVuSans-34"/>
      </g>
     </g>
    </g>
    <g id="xtick_12">
     <g id="line2d_31">
      <g>
       <use xlink:href="#md815d6a8aa" x="229.392" y="109.84" style="stroke: #000000; stroke-width: 0.8"/>
      </g>
     </g>
     <g id="text_12">
      <!-- 5 -->
      <g transform="translate(226.21075 124.438438) scale(0.1 -0.1)">
       <defs>
        <path id="DejaVuSans-35" d="M 691 4666 
L 3169 4666 
L 3169 4134 
L 1269 4134 
L 1269 2991 
Q 1406 3038 1543 3061 
Q 1681 3084 1819 3084 
Q 2600 3084 3056 2656 
Q 3513 2228 3513 1497 
Q 3513 744 3044 326 
Q 2575 -91 1722 -91 
Q 1428 -91 1123 -41 
Q 819 9 494 109 
L 494 744 
Q 775 591 1075 516 
Q 1375 441 1709 441 
Q 2250 441 2565 725 
Q 2881 1009 2881 1497 
Q 2881 1984 2565 2268 
Q 2250 2553 1709 2553 
Q 1456 2553 1204 2497 
Q 953 2441 691 2322 
L 691 4666 
z
" transform="scale(0.015625)"/>
       </defs>
       <use xlink:href="#DejaVuSans-35"/>
      </g>
     </g>
    </g>
    <g id="text_13">
     <!-- relative distance from ROI center ($\sigma$) -->
     <g transform="translate(66.664 136.596875) scale(0.08 -0.08)">
      <defs>
       <path id="DejaVuSans-76" d="M 191 3500 
L 800 3500 
L 1894 563 
L 2988 3500 
L 3597 3500 
L 2284 0 
L 1503 0 
L 191 3500 
z
" transform="scale(0.015625)"/>
       <path id="DejaVuSans-66" d="M 2375 4863 
L 2375 4384 
L 1825 4384 
Q 1516 4384 1395 4259 
Q 1275 4134 1275 3809 
L 1275 3500 
L 2222 3500 
L 2222 3053 
L 1275 3053 
L 1275 0 
L 697 0 
L 697 3053 
L 147 3053 
L 147 3500 
L 697 3500 
L 697 3744 
Q 697 4328 969 4595 
Q 1241 4863 1831 4863 
L 2375 4863 
z
" transform="scale(0.015625)"/>
       <path id="DejaVuSans-6d" d="M 3328 2828 
Q 3544 3216 3844 3400 
Q 4144 3584 4550 3584 
Q 5097 3584 5394 3201 
Q 5691 2819 5691 2113 
L 5691 0 
L 5113 0 
L 5113 2094 
Q 5113 2597 4934 2840 
Q 4756 3084 4391 3084 
Q 3944 3084 3684 2787 
Q 3425 2491 3425 1978 
L 3425 0 
L 2847 0 
L 2847 2094 
Q 2847 2600 2669 2842 
Q 2491 3084 2119 3084 
Q 1678 3084 1418 2786 
Q 1159 2488 1159 1978 
L 1159 0 
L 581 0 
L 581 3500 
L 1159 3500 
L 1159 2956 
Q 1356 3278 1631 3431 
Q 1906 3584 2284 3584 
Q 2666 3584 2933 3390 
Q 3200 3197 3328 2828 
z
" transform="scale(0.015625)"/>
       <path id="DejaVuSans-52" d="M 2841 2188 
Q 3044 2119 3236 1894 
Q 3428 1669 3622 1275 
L 4263 0 
L 3584 0 
L 2988 1197 
Q 2756 1666 2539 1819 
Q 2322 1972 1947 1972 
L 1259 1972 
L 1259 0 
L 628 0 
L 628 4666 
L 2053 4666 
Q 2853 4666 3247 4331 
Q 3641 3997 3641 3322 
Q 3641 2881 3436 2590 
Q 3231 2300 2841 2188 
z
M 1259 4147 
L 1259 2491 
L 2053 2491 
Q 2509 2491 2742 2702 
Q 2975 2913 2975 3322 
Q 2975 3731 2742 3939 
Q 2509 4147 2053 4147 
L 1259 4147 
z
" transform="scale(0.015625)"/>
       <path id="DejaVuSans-49" d="M 628 4666 
L 1259 4666 
L 1259 0 
L 628 0 
L 628 4666 
z
" transform="scale(0.015625)"/>
       <path id="DejaVuSans-28" d="M 1984 4856 
Q 1566 4138 1362 3434 
Q 1159 2731 1159 2009 
Q 1159 1288 1364 580 
Q 1569 -128 1984 -844 
L 1484 -844 
Q 1016 -109 783 600 
Q 550 1309 550 2009 
Q 550 2706 781 3412 
Q 1013 4119 1484 4856 
L 1984 4856 
z
" transform="scale(0.015625)"/>
       <path id="DejaVuSans-Oblique-3c3" d="M 2219 3044 
Q 1744 3044 1422 2700 
Q 1081 2341 969 1747 
Q 844 1119 1044 756 
Q 1241 397 1706 397 
Q 2166 397 2503 759 
Q 2844 1122 2966 1747 
Q 3075 2319 2881 2700 
Q 2700 3044 2219 3044 
z
M 2309 3503 
L 4219 3500 
L 4106 2925 
L 3463 2925 
Q 3706 2438 3575 1747 
Q 3406 888 2884 400 
Q 2359 -91 1609 -91 
Q 856 -91 525 400 
Q 194 888 363 1747 
Q 528 2609 1050 3097 
Q 1484 3503 2309 3503 
z
" transform="scale(0.015625)"/>
       <path id="DejaVuSans-29" d="M 513 4856 
L 1013 4856 
Q 1481 4119 1714 3412 
Q 1947 2706 1947 2009 
Q 1947 1309 1714 600 
Q 1481 -109 1013 -844 
L 513 -844 
Q 928 -128 1133 580 
Q 1338 1288 1338 2009 
Q 1338 2731 1133 3434 
Q 928 4138 513 4856 
z
" transform="scale(0.015625)"/>
      </defs>
      <use xlink:href="#DejaVuSans-72" transform="translate(0 0.015625)"/>
      <use xlink:href="#DejaVuSans-65" transform="translate(41.113281 0.015625)"/>
      <use xlink:href="#DejaVuSans-6c" transform="translate(102.636719 0.015625)"/>
      <use xlink:href="#DejaVuSans-61" transform="translate(130.419922 0.015625)"/>
      <use xlink:href="#DejaVuSans-74" transform="translate(191.699219 0.015625)"/>
      <use xlink:href="#DejaVuSans-69" transform="translate(230.908203 0.015625)"/>
      <use xlink:href="#DejaVuSans-76" transform="translate(258.691406 0.015625)"/>
      <use xlink:href="#DejaVuSans-65" transform="translate(317.871094 0.015625)"/>
      <use xlink:href="#DejaVuSans-20" transform="translate(379.394531 0.015625)"/>
      <use xlink:href="#DejaVuSans-64" transform="translate(411.181641 0.015625)"/>
      <use xlink:href="#DejaVuSans-69" transform="translate(474.658203 0.015625)"/>
      <use xlink:href="#DejaVuSans-73" transform="translate(502.441406 0.015625)"/>
      <use xlink:href="#DejaVuSans-74" transform="translate(554.541016 0.015625)"/>
      <use xlink:href="#DejaVuSans-61" transform="translate(593.75 0.015625)"/>
      <use xlink:href="#DejaVuSans-6e" transform="translate(655.029297 0.015625)"/>
      <use xlink:href="#DejaVuSans-63" transform="translate(718.408203 0.015625)"/>
      <use xlink:href="#DejaVuSans-65" transform="translate(773.388672 0.015625)"/>
      <use xlink:href="#DejaVuSans-20" transform="translate(834.912109 0.015625)"/>
      <use xlink:href="#DejaVuSans-66" transform="translate(866.699219 0.015625)"/>
      <use xlink:href="#DejaVuSans-72" transform="translate(901.904297 0.015625)"/>
      <use xlink:href="#DejaVuSans-6f" transform="translate(943.017578 0.015625)"/>
      <use xlink:href="#DejaVuSans-6d" transform="translate(1004.199219 0.015625)"/>
      <use xlink:href="#DejaVuSans-20" transform="translate(1101.611328 0.015625)"/>
      <use xlink:href="#DejaVuSans-52" transform="translate(1133.398438 0.015625)"/>
      <use xlink:href="#DejaVuSans-4f" transform="translate(1202.880859 0.015625)"/>
      <use xlink:href="#DejaVuSans-49" transform="translate(1281.591797 0.015625)"/>
      <use xlink:href="#DejaVuSans-20" transform="translate(1311.083984 0.015625)"/>
      <use xlink:href="#DejaVuSans-63" transform="translate(1342.871094 0.015625)"/>
      <use xlink:href="#DejaVuSans-65" transform="translate(1397.851562 0.015625)"/>
      <use xlink:href="#DejaVuSans-6e" transform="translate(1459.375 0.015625)"/>
      <use xlink:href="#DejaVuSans-74" transform="translate(1522.753906 0.015625)"/>
      <use xlink:href="#DejaVuSans-65" transform="translate(1561.962891 0.015625)"/>
      <use xlink:href="#DejaVuSans-72" transform="translate(1623.486328 0.015625)"/>
      <use xlink:href="#DejaVuSans-20" transform="translate(1664.599609 0.015625)"/>
      <use xlink:href="#DejaVuSans-28" transform="translate(1696.386719 0.015625)"/>
      <use xlink:href="#DejaVuSans-Oblique-3c3" transform="translate(1735.400391 0.015625)"/>
      <use xlink:href="#DejaVuSans-29" transform="translate(1798.779297 0.015625)"/>
     </g>
    </g>
   </g>
   <g id="matplotlib.axis_4">
    <g id="ytick_4">
     <g id="line2d_32">
      <g>
       <use xlink:href="#m531574ad90" x="46.976" y="105.84" style="stroke: #000000; stroke-width: 0.8"/>
      </g>
     </g>
     <g id="text_14">
      <!-- −1 -->
      <g transform="translate(25.233812 109.639219) scale(0.1 -0.1)">
       <use xlink:href="#DejaVuSans-2212"/>
       <use xlink:href="#DejaVuSans-31" x="83.789062"/>
      </g>
     </g>
    </g>
    <g id="ytick_5">
     <g id="line2d_33">
      <g>
       <use xlink:href="#m531574ad90" x="46.976" y="84.672" style="stroke: #000000; stroke-width: 0.8"/>
      </g>
     </g>
     <g id="text_15">
      <!-- 0 -->
      <g transform="translate(33.6135 88.471219) scale(0.1 -0.1)">
       <use xlink:href="#DejaVuSans-30"/>
      </g>
     </g>
    </g>
    <g id="ytick_6">
     <g id="line2d_34">
      <g>
       <use xlink:href="#m531574ad90" x="46.976" y="63.504" style="stroke: #000000; stroke-width: 0.8"/>
      </g>
     </g>
     <g id="text_16">
      <!-- 1 -->
      <g transform="translate(33.6135 67.303219) scale(0.1 -0.1)">
       <use xlink:href="#DejaVuSans-31"/>
      </g>
     </g>
    </g>
    <g id="text_17">
     <!-- Binned Avg -->
     <g transform="translate(19.570062 107.277625) rotate(-90) scale(0.08 -0.08)">
      <defs>
       <path id="DejaVuSans-41" d="M 2188 4044 
L 1331 1722 
L 3047 1722 
L 2188 4044 
z
M 1831 4666 
L 2547 4666 
L 4325 0 
L 3669 0 
L 3244 1197 
L 1141 1197 
L 716 0 
L 50 0 
L 1831 4666 
z
" transform="scale(0.015625)"/>
      </defs>
      <use xlink:href="#DejaVuSans-42"/>
      <use xlink:href="#DejaVuSans-69" x="68.603516"/>
      <use xlink:href="#DejaVuSans-6e" x="96.386719"/>
      <use xlink:href="#DejaVuSans-6e" x="159.765625"/>
      <use xlink:href="#DejaVuSans-65" x="223.144531"/>
      <use xlink:href="#DejaVuSans-64" x="284.667969"/>
      <use xlink:href="#DejaVuSans-20" x="348.144531"/>
      <use xlink:href="#DejaVuSans-41" x="379.931641"/>
      <use xlink:href="#DejaVuSans-76" x="442.464844"/>
      <use xlink:href="#DejaVuSans-67" x="501.644531"/>
     </g>
    </g>
   </g>
   <g id="LineCollection_1">
    <path d="M 68.8176 86.22601 
L 68.8176 78.004008 
" clip-path="url(#p8d74b06be0)" style="fill: none; stroke: #000000; stroke-width: 1.5"/>
    <path d="M 104.5008 88.855902 
L 104.5008 82.49832 
" clip-path="url(#p8d74b06be0)" style="fill: none; stroke: #000000; stroke-width: 1.5"/>
    <path d="M 140.184 96.655459 
L 140.184 90.774767 
" clip-path="url(#p8d74b06be0)" style="fill: none; stroke: #000000; stroke-width: 1.5"/>
    <path d="M 175.8672 96.731637 
L 175.8672 91.269161 
" clip-path="url(#p8d74b06be0)" style="fill: none; stroke: #000000; stroke-width: 1.5"/>
    <path d="M 211.5504 94.450426 
L 211.5504 89.129173 
" clip-path="url(#p8d74b06be0)" style="fill: none; stroke: #000000; stroke-width: 1.5"/>
   </g>
   <g id="line2d_35">
    <defs>
     <path id="m0a85c2e97c" d="M 5 0 
L -5 -0 
" style="stroke: #000000"/>
    </defs>
    <g clip-path="url(#p8d74b06be0)">
     <use xlink:href="#m0a85c2e97c" x="68.8176" y="86.22601" style="stroke: #000000"/>
     <use xlink:href="#m0a85c2e97c" x="104.5008" y="88.855902" style="stroke: #000000"/>
     <use xlink:href="#m0a85c2e97c" x="140.184" y="96.655459" style="stroke: #000000"/>
     <use xlink:href="#m0a85c2e97c" x="175.8672" y="96.731637" style="stroke: #000000"/>
     <use xlink:href="#m0a85c2e97c" x="211.5504" y="94.450426" style="stroke: #000000"/>
    </g>
   </g>
   <g id="line2d_36">
    <g clip-path="url(#p8d74b06be0)">
     <use xlink:href="#m0a85c2e97c" x="68.8176" y="78.004008" style="stroke: #000000"/>
     <use xlink:href="#m0a85c2e97c" x="104.5008" y="82.49832" style="stroke: #000000"/>
     <use xlink:href="#m0a85c2e97c" x="140.184" y="90.774767" style="stroke: #000000"/>
     <use xlink:href="#m0a85c2e97c" x="175.8672" y="91.269161" style="stroke: #000000"/>
     <use xlink:href="#m0a85c2e97c" x="211.5504" y="89.129173" style="stroke: #000000"/>
    </g>
   </g>
   <g id="line2d_37">
    <path d="M 50.976 84.672 
L 229.392 84.672 
" clip-path="url(#p8d74b06be0)" style="fill: none; stroke-dasharray: 5.55,2.4; stroke-dashoffset: 0; stroke: #000000; stroke-width: 1.5"/>
   </g>
   <g id="patch_12">
    <path d="M 46.976 105.84 
L 46.976 63.504 
" style="fill: none; stroke: #000000; stroke-width: 0.8; stroke-linejoin: miter; stroke-linecap: square"/>
   </g>
   <g id="patch_13">
    <path d="M 50.976 109.84 
L 229.392 109.84 
" style="fill: none; stroke: #000000; stroke-width: 0.8; stroke-linejoin: miter; stroke-linecap: square"/>
   </g>
   <g id="text_18">
    <!-- * -->
    <g transform="translate(137.184 88.279142) scale(0.12 -0.12)">
     <defs>
      <path id="DejaVuSans-2a" d="M 3009 3897 
L 1888 3291 
L 3009 2681 
L 2828 2375 
L 1778 3009 
L 1778 1831 
L 1422 1831 
L 1422 3009 
L 372 2375 
L 191 2681 
L 1313 3291 
L 191 3897 
L 372 4206 
L 1422 3572 
L 1422 4750 
L 1778 4750 
L 1778 3572 
L 2828 4206 
L 3009 3897 
z
" transform="scale(0.015625)"/>
     </defs>
     <use xlink:href="#DejaVuSans-2a"/>
    </g>
   </g>
   <g id="text_19">
    <!-- * -->
    <g transform="translate(172.8672 88.773536) scale(0.12 -0.12)">
     <use xlink:href="#DejaVuSans-2a"/>
    </g>
   </g>
   <g id="text_20">
    <!-- * -->
    <g transform="translate(208.5504 86.633548) scale(0.12 -0.12)">
     <use xlink:href="#DejaVuSans-2a"/>
    </g>
   </g>
  </g>
 </g>
 <defs>
  <clipPath id="p7cc9aafa8c">
   <rect x="50.976" y="7.056" width="178.416" height="42.336"/>
  </clipPath>
  <clipPath id="p8d74b06be0">
   <rect x="50.976" y="63.504" width="178.416" height="42.336"/>
  </clipPath>
 </defs>
</svg>
