<?xml version="1.0" encoding="utf-8" standalone="no"?>
<!DOCTYPE svg PUBLIC "-//W3C//DTD SVG 1.1//EN"
  "http://www.w3.org/Graphics/SVG/1.1/DTD/svg11.dtd">
<svg xmlns:xlink="http://www.w3.org/1999/xlink" width="360pt" height="432pt" viewBox="0 0 360 432" xmlns="http://www.w3.org/2000/svg" version="1.1">
 <metadata>
  <rdf:RDF xmlns:dc="http://purl.org/dc/elements/1.1/" xmlns:cc="http://creativecommons.org/ns#" xmlns:rdf="http://www.w3.org/1999/02/22-rdf-syntax-ns#">
   <cc:Work>
    <dc:type rdf:resource="http://purl.org/dc/dcmitype/StillImage"/>
    <dc:date>2025-10-31T15:45:46.754732</dc:date>
    <dc:format>image/svg+xml</dc:format>
    <dc:creator>
     <cc:Agent>
      <dc:title>Matplotlib v3.8.0, https://matplotlib.org/</dc:title>
     </cc:Agent>
    </dc:creator>
   </cc:Work>
  </rdf:RDF>
 </metadata>
 <defs>
  <style type="text/css">*{stroke-linejoin: round; stroke-linecap: butt}</style>
 </defs>
 <g id="figure_1">
  <g id="patch_1">
   <path d="M 0 432 
L 360 432 
L 360 0 
L 0 0 
z
" style="fill: #ffffff"/>
  </g>
  <g id="axes_1">
   <g id="patch_2">
    <path d="M 54 388.8 
L 306 388.8 
L 306 302.4 
L 54 302.4 
z
" style="fill: #ffffff"/>
   </g>
   <g id="PolyCollection_1">
    <defs>
     <path id="m62f50fba4f" d="M 65.454545 -92.210667 
L 65.454545 -88.467854 
L 70.12987 -88.447446 
L 74.805195 -88.302036 
L 79.480519 -88.236743 
L 84.155844 -88.290236 
L 88.831169 -88.300248 
L 93.506494 -88.358309 
L 98.181818 -88.39917 
L 102.857143 -88.647299 
L 107.532468 -88.944846 
L 112.207792 -88.884301 
L 116.883117 -88.691496 
L 121.558442 -88.47361 
L 126.233766 -88.19773 
L 130.909091 -88.274598 
L 135.584416 -88.191006 
L 140.25974 -88.010129 
L 144.935065 -87.88915 
L 149.61039 -87.751257 
L 154.285714 -87.587287 
L 158.961039 -87.645073 
L 163.636364 -87.607636 
L 168.311688 -87.586485 
L 172.987013 -87.490835 
L 177.662338 -87.379834 
L 182.337662 -87.191455 
L 187.012987 -86.790269 
L 191.688312 -86.366834 
L 196.363636 -86.199241 
L 201.038961 -86.016656 
L 205.714286 -85.770539 
L 210.38961 -85.417765 
L 215.064935 -85.092797 
L 219.74026 -84.929099 
L 224.415584 -84.870428 
L 229.090909 -84.805677 
L 233.766234 -84.888402 
L 238.441558 -84.952718 
L 243.116883 -84.998048 
L 247.792208 -85.072558 
L 252.467532 -84.982618 
L 257.142857 -84.945524 
L 261.818182 -84.828967 
L 266.493506 -84.567169 
L 271.168831 -84.256653 
L 275.844156 -84.006652 
L 280.519481 -83.661136 
L 285.194805 -83.451324 
L 289.87013 -83.442878 
L 294.545455 -83.361901 
L 294.545455 -85.933319 
L 294.545455 -85.933319 
L 289.87013 -86.032058 
L 285.194805 -86.068172 
L 280.519481 -86.276007 
L 275.844156 -86.632504 
L 271.168831 -86.827766 
L 266.493506 -87.005544 
L 261.818182 -87.203331 
L 257.142857 -87.345898 
L 252.467532 -87.460092 
L 247.792208 -87.634326 
L 243.116883 -87.756984 
L 238.441558 -87.818576 
L 233.766234 -87.814982 
L 229.090909 -87.744641 
L 224.415584 -87.813881 
L 219.74026 -87.919418 
L 215.064935 -88.078871 
L 210.38961 -88.360296 
L 205.714286 -88.650829 
L 201.038961 -88.864072 
L 196.363636 -89.008737 
L 191.688312 -89.24318 
L 187.012987 -89.623481 
L 182.337662 -90.048513 
L 177.662338 -90.336173 
L 172.987013 -90.643462 
L 168.311688 -90.960817 
L 163.636364 -91.073283 
L 158.961039 -91.12511 
L 154.285714 -91.092306 
L 149.61039 -91.204826 
L 144.935065 -91.365702 
L 140.25974 -91.560511 
L 135.584416 -91.847376 
L 130.909091 -92.089919 
L 126.233766 -92.169028 
L 121.558442 -92.313944 
L 116.883117 -92.413823 
L 112.207792 -92.603904 
L 107.532468 -92.735324 
L 102.857143 -92.678901 
L 98.181818 -92.526446 
L 93.506494 -92.391504 
L 88.831169 -92.245362 
L 84.155844 -92.135796 
L 79.480519 -91.927653 
L 74.805195 -92.02938 
L 70.12987 -92.188485 
L 65.454545 -92.210667 
z
" style="stroke: #ffa500; stroke-opacity: 0.4"/>
    </defs>
    <g clip-path="url(#p8d3805e71d)">
     <use xlink:href="#m62f50fba4f" x="0" y="432" style="fill: #ffa500; fill-opacity: 0.4; stroke: #ffa500; stroke-opacity: 0.4"/>
    </g>
   </g>
   <g id="matplotlib.axis_1">
    <g id="xtick_1">
     <g id="line2d_1">
      <defs>
       <path id="me7ce2cd32b" d="M 0 0 
L 0 3.5 
" style="stroke: #000000; stroke-width: 0.8"/>
      </defs>
      <g>
       <use xlink:href="#me7ce2cd32b" x="65.454545" y="392.8" style="stroke: #000000; stroke-width: 0.8"/>
      </g>
     </g>
     <g id="text_1">
      <!-- 0 -->
      <g transform="translate(62.273295 407.398438) scale(0.1 -0.1)">
       <defs>
        <path id="DejaVuSans-30" d="M 2034 4250 
Q 1547 4250 1301 3770 
Q 1056 3291 1056 2328 
Q 1056 1369 1301 889 
Q 1547 409 2034 409 
Q 2525 409 2770 889 
Q 3016 1369 3016 2328 
Q 3016 3291 2770 3770 
Q 2525 4250 2034 4250 
z
M 2034 4750 
Q 2819 4750 3233 4129 
Q 3647 3509 3647 2328 
Q 3647 1150 3233 529 
Q 2819 -91 2034 -91 
Q 1250 -91 836 529 
Q 422 1150 422 2328 
Q 422 3509 836 4129 
Q 1250 4750 2034 4750 
z
" transform="scale(0.015625)"/>
       </defs>
       <use xlink:href="#DejaVuSans-30"/>
      </g>
     </g>
    </g>
    <g id="xtick_2">
     <g id="line2d_2">
      <g>
       <use xlink:href="#me7ce2cd32b" x="111.272727" y="392.8" style="stroke: #000000; stroke-width: 0.8"/>
      </g>
     </g>
     <g id="text_2">
      <!-- 1 -->
      <g transform="translate(108.091477 407.398438) scale(0.1 -0.1)">
       <defs>
        <path id="DejaVuSans-31" d="M 794 531 
L 1825 531 
L 1825 4091 
L 703 3866 
L 703 4441 
L 1819 4666 
L 2450 4666 
L 2450 531 
L 3481 531 
L 3481 0 
L 794 0 
L 794 531 
z
" transform="scale(0.015625)"/>
       </defs>
       <use xlink:href="#DejaVuSans-31"/>
      </g>
     </g>
    </g>
    <g id="xtick_3">
     <g id="line2d_3">
      <g>
       <use xlink:href="#me7ce2cd32b" x="157.090909" y="392.8" style="stroke: #000000; stroke-width: 0.8"/>
      </g>
     </g>
     <g id="text_3">
      <!-- 2 -->
      <g transform="translate(153.909659 407.398438) scale(0.1 -0.1)">
       <defs>
        <path id="DejaVuSans-32" d="M 1228 531 
L 3431 531 
L 3431 0 
L 469 0 
L 469 531 
Q 828 903 1448 1529 
Q 2069 2156 2228 2338 
Q 2531 2678 2651 2914 
Q 2772 3150 2772 3378 
Q 2772 3750 2511 3984 
Q 2250 4219 1831 4219 
Q 1534 4219 1204 4116 
Q 875 4013 500 3803 
L 500 4441 
Q 881 4594 1212 4672 
Q 1544 4750 1819 4750 
Q 2544 4750 2975 4387 
Q 3406 4025 3406 3419 
Q 3406 3131 3298 2873 
Q 3191 2616 2906 2266 
Q 2828 2175 2409 1742 
Q 1991 1309 1228 531 
z
" transform="scale(0.015625)"/>
       </defs>
       <use xlink:href="#DejaVuSans-32"/>
      </g>
     </g>
    </g>
    <g id="xtick_4">
     <g id="line2d_4">
      <g>
       <use xlink:href="#me7ce2cd32b" x="202.909091" y="392.8" style="stroke: #000000; stroke-width: 0.8"/>
      </g>
     </g>
     <g id="text_4">
      <!-- 3 -->
      <g transform="translate(199.727841 407.398438) scale(0.1 -0.1)">
       <defs>
        <path id="DejaVuSans-33" d="M 2597 2516 
Q 3050 2419 3304 2112 
Q 3559 1806 3559 1356 
Q 3559 666 3084 287 
Q 2609 -91 1734 -91 
Q 1441 -91 1130 -33 
Q 819 25 488 141 
L 488 750 
Q 750 597 1062 519 
Q 1375 441 1716 441 
Q 2309 441 2620 675 
Q 2931 909 2931 1356 
Q 2931 1769 2642 2001 
Q 2353 2234 1838 2234 
L 1294 2234 
L 1294 2753 
L 1863 2753 
Q 2328 2753 2575 2939 
Q 2822 3125 2822 3475 
Q 2822 3834 2567 4026 
Q 2313 4219 1838 4219 
Q 1578 4219 1281 4162 
Q 984 4106 628 3988 
L 628 4550 
Q 988 4650 1302 4700 
Q 1616 4750 1894 4750 
Q 2613 4750 3031 4423 
Q 3450 4097 3450 3541 
Q 3450 3153 3228 2886 
Q 3006 2619 2597 2516 
z
" transform="scale(0.015625)"/>
       </defs>
       <use xlink:href="#DejaVuSans-33"/>
      </g>
     </g>
    </g>
    <g id="xtick_5">
     <g id="line2d_5">
      <g>
       <use xlink:href="#me7ce2cd32b" x="248.727273" y="392.8" style="stroke: #000000; stroke-width: 0.8"/>
      </g>
     </g>
     <g id="text_5">
      <!-- 4 -->
      <g transform="translate(245.546023 407.398438) scale(0.1 -0.1)">
       <defs>
        <path id="DejaVuSans-34" d="M 2419 4116 
L 825 1625 
L 2419 1625 
L 2419 4116 
z
M 2253 4666 
L 3047 4666 
L 3047 1625 
L 3713 1625 
L 3713 1100 
L 3047 1100 
L 3047 0 
L 2419 0 
L 2419 1100 
L 313 1100 
L 313 1709 
L 2253 4666 
z
" transform="scale(0.015625)"/>
       </defs>
       <use xlink:href="#DejaVuSans-34"/>
      </g>
     </g>
    </g>
    <g id="xtick_6">
     <g id="line2d_6">
      <g>
       <use xlink:href="#me7ce2cd32b" x="294.545455" y="392.8" style="stroke: #000000; stroke-width: 0.8"/>
      </g>
     </g>
     <g id="text_6">
      <!-- 5 -->
      <g transform="translate(291.364205 407.398438) scale(0.1 -0.1)">
       <defs>
        <path id="DejaVuSans-35" d="M 691 4666 
L 3169 4666 
L 3169 4134 
L 1269 4134 
L 1269 2991 
Q 1406 3038 1543 3061 
Q 1681 3084 1819 3084 
Q 2600 3084 3056 2656 
Q 3513 2228 3513 1497 
Q 3513 744 3044 326 
Q 2575 -91 1722 -91 
Q 1428 -91 1123 -41 
Q 819 9 494 109 
L 494 744 
Q 775 591 1075 516 
Q 1375 441 1709 441 
Q 2250 441 2565 725 
Q 2881 1009 2881 1497 
Q 2881 1984 2565 2268 
Q 2250 2553 1709 2553 
Q 1456 2553 1204 2497 
Q 953 2441 691 2322 
L 691 4666 
z
" transform="scale(0.015625)"/>
       </defs>
       <use xlink:href="#DejaVuSans-35"/>
      </g>
     </g>
    </g>
    <g id="text_7">
     <!-- relative distance from ROI center ($\sigma$) -->
     <g transform="translate(106.48 419.556875) scale(0.08 -0.08)">
      <defs>
       <path id="DejaVuSans-72" d="M 2631 2963 
Q 2534 3019 2420 3045 
Q 2306 3072 2169 3072 
Q 1681 3072 1420 2755 
Q 1159 2438 1159 1844 
L 1159 0 
L 581 0 
L 581 3500 
L 1159 3500 
L 1159 2956 
Q 1341 3275 1631 3429 
Q 1922 3584 2338 3584 
Q 2397 3584 2469 3576 
Q 2541 3569 2628 3553 
L 2631 2963 
z
" transform="scale(0.015625)"/>
       <path id="DejaVuSans-65" d="M 3597 1894 
L 3597 1613 
L 953 1613 
Q 991 1019 1311 708 
Q 1631 397 2203 397 
Q 2534 397 2845 478 
Q 3156 559 3463 722 
L 3463 178 
Q 3153 47 2828 -22 
Q 2503 -91 2169 -91 
Q 1331 -91 842 396 
Q 353 884 353 1716 
Q 353 2575 817 3079 
Q 1281 3584 2069 3584 
Q 2775 3584 3186 3129 
Q 3597 2675 3597 1894 
z
M 3022 2063 
Q 3016 2534 2758 2815 
Q 2500 3097 2075 3097 
Q 1594 3097 1305 2825 
Q 1016 2553 972 2059 
L 3022 2063 
z
" transform="scale(0.015625)"/>
       <path id="DejaVuSans-6c" d="M 603 4863 
L 1178 4863 
L 1178 0 
L 603 0 
L 603 4863 
z
" transform="scale(0.015625)"/>
       <path id="DejaVuSans-61" d="M 2194 1759 
Q 1497 1759 1228 1600 
Q 959 1441 959 1056 
Q 959 750 1161 570 
Q 1363 391 1709 391 
Q 2188 391 2477 730 
Q 2766 1069 2766 1631 
L 2766 1759 
L 2194 1759 
z
M 3341 1997 
L 3341 0 
L 2766 0 
L 2766 531 
Q 2569 213 2275 61 
Q 1981 -91 1556 -91 
Q 1019 -91 701 211 
Q 384 513 384 1019 
Q 384 1609 779 1909 
Q 1175 2209 1959 2209 
L 2766 2209 
L 2766 2266 
Q 2766 2663 2505 2880 
Q 2244 3097 1772 3097 
Q 1472 3097 1187 3025 
Q 903 2953 641 2809 
L 641 3341 
Q 956 3463 1253 3523 
Q 1550 3584 1831 3584 
Q 2591 3584 2966 3190 
Q 3341 2797 3341 1997 
z
" transform="scale(0.015625)"/>
       <path id="DejaVuSans-74" d="M 1172 4494 
L 1172 3500 
L 2356 3500 
L 2356 3053 
L 1172 3053 
L 1172 1153 
Q 1172 725 1289 603 
Q 1406 481 1766 481 
L 2356 481 
L 2356 0 
L 1766 0 
Q 1100 0 847 248 
Q 594 497 594 1153 
L 594 3053 
L 172 3053 
L 172 3500 
L 594 3500 
L 594 4494 
L 1172 4494 
z
" transform="scale(0.015625)"/>
       <path id="DejaVuSans-69" d="M 603 3500 
L 1178 3500 
L 1178 0 
L 603 0 
L 603 3500 
z
M 603 4863 
L 1178 4863 
L 1178 4134 
L 603 4134 
L 603 4863 
z
" transform="scale(0.015625)"/>
       <path id="DejaVuSans-76" d="M 191 3500 
L 800 3500 
L 1894 563 
L 2988 3500 
L 3597 3500 
L 2284 0 
L 1503 0 
L 191 3500 
z
" transform="scale(0.015625)"/>
       <path id="DejaVuSans-20" transform="scale(0.015625)"/>
       <path id="DejaVuSans-64" d="M 2906 2969 
L 2906 4863 
L 3481 4863 
L 3481 0 
L 2906 0 
L 2906 525 
Q 2725 213 2448 61 
Q 2172 -91 1784 -91 
Q 1150 -91 751 415 
Q 353 922 353 1747 
Q 353 2572 751 3078 
Q 1150 3584 1784 3584 
Q 2172 3584 2448 3432 
Q 2725 3281 2906 2969 
z
M 947 1747 
Q 947 1113 1208 752 
Q 1469 391 1925 391 
Q 2381 391 2643 752 
Q 2906 1113 2906 1747 
Q 2906 2381 2643 2742 
Q 2381 3103 1925 3103 
Q 1469 3103 1208 2742 
Q 947 2381 947 1747 
z
" transform="scale(0.015625)"/>
       <path id="DejaVuSans-73" d="M 2834 3397 
L 2834 2853 
Q 2591 2978 2328 3040 
Q 2066 3103 1784 3103 
Q 1356 3103 1142 2972 
Q 928 2841 928 2578 
Q 928 2378 1081 2264 
Q 1234 2150 1697 2047 
L 1894 2003 
Q 2506 1872 2764 1633 
Q 3022 1394 3022 966 
Q 3022 478 2636 193 
Q 2250 -91 1575 -91 
Q 1294 -91 989 -36 
Q 684 19 347 128 
L 347 722 
Q 666 556 975 473 
Q 1284 391 1588 391 
Q 1994 391 2212 530 
Q 2431 669 2431 922 
Q 2431 1156 2273 1281 
Q 2116 1406 1581 1522 
L 1381 1569 
Q 847 1681 609 1914 
Q 372 2147 372 2553 
Q 372 3047 722 3315 
Q 1072 3584 1716 3584 
Q 2034 3584 2315 3537 
Q 2597 3491 2834 3397 
z
" transform="scale(0.015625)"/>
       <path id="DejaVuSans-6e" d="M 3513 2113 
L 3513 0 
L 2938 0 
L 2938 2094 
Q 2938 2591 2744 2837 
Q 2550 3084 2163 3084 
Q 1697 3084 1428 2787 
Q 1159 2491 1159 1978 
L 1159 0 
L 581 0 
L 581 3500 
L 1159 3500 
L 1159 2956 
Q 1366 3272 1645 3428 
Q 1925 3584 2291 3584 
Q 2894 3584 3203 3211 
Q 3513 2838 3513 2113 
z
" transform="scale(0.015625)"/>
       <path id="DejaVuSans-63" d="M 3122 3366 
L 3122 2828 
Q 2878 2963 2633 3030 
Q 2388 3097 2138 3097 
Q 1578 3097 1268 2742 
Q 959 2388 959 1747 
Q 959 1106 1268 751 
Q 1578 397 2138 397 
Q 2388 397 2633 464 
Q 2878 531 3122 666 
L 3122 134 
Q 2881 22 2623 -34 
Q 2366 -91 2075 -91 
Q 1284 -91 818 406 
Q 353 903 353 1747 
Q 353 2603 823 3093 
Q 1294 3584 2113 3584 
Q 2378 3584 2631 3529 
Q 2884 3475 3122 3366 
z
" transform="scale(0.015625)"/>
       <path id="DejaVuSans-66" d="M 2375 4863 
L 2375 4384 
L 1825 4384 
Q 1516 4384 1395 4259 
Q 1275 4134 1275 3809 
L 1275 3500 
L 2222 3500 
L 2222 3053 
L 1275 3053 
L 1275 0 
L 697 0 
L 697 3053 
L 147 3053 
L 147 3500 
L 697 3500 
L 697 3744 
Q 697 4328 969 4595 
Q 1241 4863 1831 4863 
L 2375 4863 
z
" transform="scale(0.015625)"/>
       <path id="DejaVuSans-6f" d="M 1959 3097 
Q 1497 3097 1228 2736 
Q 959 2375 959 1747 
Q 959 1119 1226 758 
Q 1494 397 1959 397 
Q 2419 397 2687 759 
Q 2956 1122 2956 1747 
Q 2956 2369 2687 2733 
Q 2419 3097 1959 3097 
z
M 1959 3584 
Q 2709 3584 3137 3096 
Q 3566 2609 3566 1747 
Q 3566 888 3137 398 
Q 2709 -91 1959 -91 
Q 1206 -91 779 398 
Q 353 888 353 1747 
Q 353 2609 779 3096 
Q 1206 3584 1959 3584 
z
" transform="scale(0.015625)"/>
       <path id="DejaVuSans-6d" d="M 3328 2828 
Q 3544 3216 3844 3400 
Q 4144 3584 4550 3584 
Q 5097 3584 5394 3201 
Q 5691 2819 5691 2113 
L 5691 0 
L 5113 0 
L 5113 2094 
Q 5113 2597 4934 2840 
Q 4756 3084 4391 3084 
Q 3944 3084 3684 2787 
Q 3425 2491 3425 1978 
L 3425 0 
L 2847 0 
L 2847 2094 
Q 2847 2600 2669 2842 
Q 2491 3084 2119 3084 
Q 1678 3084 1418 2786 
Q 1159 2488 1159 1978 
L 1159 0 
L 581 0 
L 581 3500 
L 1159 3500 
L 1159 2956 
Q 1356 3278 1631 3431 
Q 1906 3584 2284 3584 
Q 2666 3584 2933 3390 
Q 3200 3197 3328 2828 
z
" transform="scale(0.015625)"/>
       <path id="DejaVuSans-52" d="M 2841 2188 
Q 3044 2119 3236 1894 
Q 3428 1669 3622 1275 
L 4263 0 
L 3584 0 
L 2988 1197 
Q 2756 1666 2539 1819 
Q 2322 1972 1947 1972 
L 1259 1972 
L 1259 0 
L 628 0 
L 628 4666 
L 2053 4666 
Q 2853 4666 3247 4331 
Q 3641 3997 3641 3322 
Q 3641 2881 3436 2590 
Q 3231 2300 2841 2188 
z
M 1259 4147 
L 1259 2491 
L 2053 2491 
Q 2509 2491 2742 2702 
Q 2975 2913 2975 3322 
Q 2975 3731 2742 3939 
Q 2509 4147 2053 4147 
L 1259 4147 
z
" transform="scale(0.015625)"/>
       <path id="DejaVuSans-4f" d="M 2522 4238 
Q 1834 4238 1429 3725 
Q 1025 3213 1025 2328 
Q 1025 1447 1429 934 
Q 1834 422 2522 422 
Q 3209 422 3611 934 
Q 4013 1447 4013 2328 
Q 4013 3213 3611 3725 
Q 3209 4238 2522 4238 
z
M 2522 4750 
Q 3503 4750 4090 4092 
Q 4678 3434 4678 2328 
Q 4678 1225 4090 567 
Q 3503 -91 2522 -91 
Q 1538 -91 948 565 
Q 359 1222 359 2328 
Q 359 3434 948 4092 
Q 1538 4750 2522 4750 
z
" transform="scale(0.015625)"/>
       <path id="DejaVuSans-49" d="M 628 4666 
L 1259 4666 
L 1259 0 
L 628 0 
L 628 4666 
z
" transform="scale(0.015625)"/>
       <path id="DejaVuSans-28" d="M 1984 4856 
Q 1566 4138 1362 3434 
Q 1159 2731 1159 2009 
Q 1159 1288 1364 580 
Q 1569 -128 1984 -844 
L 1484 -844 
Q 1016 -109 783 600 
Q 550 1309 550 2009 
Q 550 2706 781 3412 
Q 1013 4119 1484 4856 
L 1984 4856 
z
" transform="scale(0.015625)"/>
       <path id="DejaVuSans-Oblique-3c3" d="M 2219 3044 
Q 1744 3044 1422 2700 
Q 1081 2341 969 1747 
Q 844 1119 1044 756 
Q 1241 397 1706 397 
Q 2166 397 2503 759 
Q 2844 1122 2966 1747 
Q 3075 2319 2881 2700 
Q 2700 3044 2219 3044 
z
M 2309 3503 
L 4219 3500 
L 4106 2925 
L 3463 2925 
Q 3706 2438 3575 1747 
Q 3406 888 2884 400 
Q 2359 -91 1609 -91 
Q 856 -91 525 400 
Q 194 888 363 1747 
Q 528 2609 1050 3097 
Q 1484 3503 2309 3503 
z
" transform="scale(0.015625)"/>
       <path id="DejaVuSans-29" d="M 513 4856 
L 1013 4856 
Q 1481 4119 1714 3412 
Q 1947 2706 1947 2009 
Q 1947 1309 1714 600 
Q 1481 -109 1013 -844 
L 513 -844 
Q 928 -128 1133 580 
Q 1338 1288 1338 2009 
Q 1338 2731 1133 3434 
Q 928 4138 513 4856 
z
" transform="scale(0.015625)"/>
      </defs>
      <use xlink:href="#DejaVuSans-72" transform="translate(0 0.015625)"/>
      <use xlink:href="#DejaVuSans-65" transform="translate(41.113281 0.015625)"/>
      <use xlink:href="#DejaVuSans-6c" transform="translate(102.636719 0.015625)"/>
      <use xlink:href="#DejaVuSans-61" transform="translate(130.419922 0.015625)"/>
      <use xlink:href="#DejaVuSans-74" transform="translate(191.699219 0.015625)"/>
      <use xlink:href="#DejaVuSans-69" transform="translate(230.908203 0.015625)"/>
      <use xlink:href="#DejaVuSans-76" transform="translate(258.691406 0.015625)"/>
      <use xlink:href="#DejaVuSans-65" transform="translate(317.871094 0.015625)"/>
      <use xlink:href="#DejaVuSans-20" transform="translate(379.394531 0.015625)"/>
      <use xlink:href="#DejaVuSans-64" transform="translate(411.181641 0.015625)"/>
      <use xlink:href="#DejaVuSans-69" transform="translate(474.658203 0.015625)"/>
      <use xlink:href="#DejaVuSans-73" transform="translate(502.441406 0.015625)"/>
      <use xlink:href="#DejaVuSans-74" transform="translate(554.541016 0.015625)"/>
      <use xlink:href="#DejaVuSans-61" transform="translate(593.75 0.015625)"/>
      <use xlink:href="#DejaVuSans-6e" transform="translate(655.029297 0.015625)"/>
      <use xlink:href="#DejaVuSans-63" transform="translate(718.408203 0.015625)"/>
      <use xlink:href="#DejaVuSans-65" transform="translate(773.388672 0.015625)"/>
      <use xlink:href="#DejaVuSans-20" transform="translate(834.912109 0.015625)"/>
      <use xlink:href="#DejaVuSans-66" transform="translate(866.699219 0.015625)"/>
      <use xlink:href="#DejaVuSans-72" transform="translate(901.904297 0.015625)"/>
      <use xlink:href="#DejaVuSans-6f" transform="translate(943.017578 0.015625)"/>
      <use xlink:href="#DejaVuSans-6d" transform="translate(1004.199219 0.015625)"/>
      <use xlink:href="#DejaVuSans-20" transform="translate(1101.611328 0.015625)"/>
      <use xlink:href="#DejaVuSans-52" transform="translate(1133.398438 0.015625)"/>
      <use xlink:href="#DejaVuSans-4f" transform="translate(1202.880859 0.015625)"/>
      <use xlink:href="#DejaVuSans-49" transform="translate(1281.591797 0.015625)"/>
      <use xlink:href="#DejaVuSans-20" transform="translate(1311.083984 0.015625)"/>
      <use xlink:href="#DejaVuSans-63" transform="translate(1342.871094 0.015625)"/>
      <use xlink:href="#DejaVuSans-65" transform="translate(1397.851562 0.015625)"/>
      <use xlink:href="#DejaVuSans-6e" transform="translate(1459.375 0.015625)"/>
      <use xlink:href="#DejaVuSans-74" transform="translate(1522.753906 0.015625)"/>
      <use xlink:href="#DejaVuSans-65" transform="translate(1561.962891 0.015625)"/>
      <use xlink:href="#DejaVuSans-72" transform="translate(1623.486328 0.015625)"/>
      <use xlink:href="#DejaVuSans-20" transform="translate(1664.599609 0.015625)"/>
      <use xlink:href="#DejaVuSans-28" transform="translate(1696.386719 0.015625)"/>
      <use xlink:href="#DejaVuSans-Oblique-3c3" transform="translate(1735.400391 0.015625)"/>
      <use xlink:href="#DejaVuSans-29" transform="translate(1798.779297 0.015625)"/>
     </g>
    </g>
   </g>
   <g id="matplotlib.axis_2">
    <g id="ytick_1">
     <g id="line2d_7">
      <defs>
       <path id="mc5f2f75e1a" d="M 0 0 
L -3.5 0 
" style="stroke: #000000; stroke-width: 0.8"/>
      </defs>
      <g>
       <use xlink:href="#mc5f2f75e1a" x="50" y="376.457143" style="stroke: #000000; stroke-width: 0.8"/>
      </g>
     </g>
     <g id="text_8">
      <!-- −5 -->
      <g transform="translate(28.257812 380.256362) scale(0.1 -0.1)">
       <defs>
        <path id="DejaVuSans-2212" d="M 678 2272 
L 4684 2272 
L 4684 1741 
L 678 1741 
L 678 2272 
z
" transform="scale(0.015625)"/>
       </defs>
       <use xlink:href="#DejaVuSans-2212"/>
       <use xlink:href="#DejaVuSans-35" x="83.789062"/>
      </g>
     </g>
    </g>
    <g id="ytick_2">
     <g id="line2d_8">
      <g>
       <use xlink:href="#mc5f2f75e1a" x="50" y="345.6" style="stroke: #000000; stroke-width: 0.8"/>
      </g>
     </g>
     <g id="text_9">
      <!-- 0 -->
      <g transform="translate(36.6375 349.399219) scale(0.1 -0.1)">
       <use xlink:href="#DejaVuSans-30"/>
      </g>
     </g>
    </g>
    <g id="ytick_3">
     <g id="line2d_9">
      <g>
       <use xlink:href="#mc5f2f75e1a" x="50" y="314.742857" style="stroke: #000000; stroke-width: 0.8"/>
      </g>
     </g>
     <g id="text_10">
      <!-- 5 -->
      <g transform="translate(36.6375 318.542076) scale(0.1 -0.1)">
       <use xlink:href="#DejaVuSans-35"/>
      </g>
     </g>
    </g>
    <g id="text_11">
     <!-- BOLD % change -->
     <g transform="translate(22.594062 377.79625) rotate(-90) scale(0.08 -0.08)">
      <defs>
       <path id="DejaVuSans-42" d="M 1259 2228 
L 1259 519 
L 2272 519 
Q 2781 519 3026 730 
Q 3272 941 3272 1375 
Q 3272 1813 3026 2020 
Q 2781 2228 2272 2228 
L 1259 2228 
z
M 1259 4147 
L 1259 2741 
L 2194 2741 
Q 2656 2741 2882 2914 
Q 3109 3088 3109 3444 
Q 3109 3797 2882 3972 
Q 2656 4147 2194 4147 
L 1259 4147 
z
M 628 4666 
L 2241 4666 
Q 2963 4666 3353 4366 
Q 3744 4066 3744 3513 
Q 3744 3084 3544 2831 
Q 3344 2578 2956 2516 
Q 3422 2416 3680 2098 
Q 3938 1781 3938 1306 
Q 3938 681 3513 340 
Q 3088 0 2303 0 
L 628 0 
L 628 4666 
z
" transform="scale(0.015625)"/>
       <path id="DejaVuSans-4c" d="M 628 4666 
L 1259 4666 
L 1259 531 
L 3531 531 
L 3531 0 
L 628 0 
L 628 4666 
z
" transform="scale(0.015625)"/>
       <path id="DejaVuSans-44" d="M 1259 4147 
L 1259 519 
L 2022 519 
Q 2988 519 3436 956 
Q 3884 1394 3884 2338 
Q 3884 3275 3436 3711 
Q 2988 4147 2022 4147 
L 1259 4147 
z
M 628 4666 
L 1925 4666 
Q 3281 4666 3915 4102 
Q 4550 3538 4550 2338 
Q 4550 1131 3912 565 
Q 3275 0 1925 0 
L 628 0 
L 628 4666 
z
" transform="scale(0.015625)"/>
       <path id="DejaVuSans-25" d="M 4653 2053 
Q 4381 2053 4226 1822 
Q 4072 1591 4072 1178 
Q 4072 772 4226 539 
Q 4381 306 4653 306 
Q 4919 306 5073 539 
Q 5228 772 5228 1178 
Q 5228 1588 5073 1820 
Q 4919 2053 4653 2053 
z
M 4653 2450 
Q 5147 2450 5437 2106 
Q 5728 1763 5728 1178 
Q 5728 594 5436 251 
Q 5144 -91 4653 -91 
Q 4153 -91 3862 251 
Q 3572 594 3572 1178 
Q 3572 1766 3864 2108 
Q 4156 2450 4653 2450 
z
M 1428 4353 
Q 1159 4353 1004 4120 
Q 850 3888 850 3481 
Q 850 3069 1003 2837 
Q 1156 2606 1428 2606 
Q 1700 2606 1854 2837 
Q 2009 3069 2009 3481 
Q 2009 3884 1853 4118 
Q 1697 4353 1428 4353 
z
M 4250 4750 
L 4750 4750 
L 1831 -91 
L 1331 -91 
L 4250 4750 
z
M 1428 4750 
Q 1922 4750 2215 4408 
Q 2509 4066 2509 3481 
Q 2509 2891 2217 2550 
Q 1925 2209 1428 2209 
Q 931 2209 642 2551 
Q 353 2894 353 3481 
Q 353 4063 643 4406 
Q 934 4750 1428 4750 
z
" transform="scale(0.015625)"/>
       <path id="DejaVuSans-68" d="M 3513 2113 
L 3513 0 
L 2938 0 
L 2938 2094 
Q 2938 2591 2744 2837 
Q 2550 3084 2163 3084 
Q 1697 3084 1428 2787 
Q 1159 2491 1159 1978 
L 1159 0 
L 581 0 
L 581 4863 
L 1159 4863 
L 1159 2956 
Q 1366 3272 1645 3428 
Q 1925 3584 2291 3584 
Q 2894 3584 3203 3211 
Q 3513 2838 3513 2113 
z
" transform="scale(0.015625)"/>
       <path id="DejaVuSans-67" d="M 2906 1791 
Q 2906 2416 2648 2759 
Q 2391 3103 1925 3103 
Q 1463 3103 1205 2759 
Q 947 2416 947 1791 
Q 947 1169 1205 825 
Q 1463 481 1925 481 
Q 2391 481 2648 825 
Q 2906 1169 2906 1791 
z
M 3481 434 
Q 3481 -459 3084 -895 
Q 2688 -1331 1869 -1331 
Q 1566 -1331 1297 -1286 
Q 1028 -1241 775 -1147 
L 775 -588 
Q 1028 -725 1275 -790 
Q 1522 -856 1778 -856 
Q 2344 -856 2625 -561 
Q 2906 -266 2906 331 
L 2906 616 
Q 2728 306 2450 153 
Q 2172 0 1784 0 
Q 1141 0 747 490 
Q 353 981 353 1791 
Q 353 2603 747 3093 
Q 1141 3584 1784 3584 
Q 2172 3584 2450 3431 
Q 2728 3278 2906 2969 
L 2906 3500 
L 3481 3500 
L 3481 434 
z
" transform="scale(0.015625)"/>
      </defs>
      <use xlink:href="#DejaVuSans-42"/>
      <use xlink:href="#DejaVuSans-4f" x="66.853516"/>
      <use xlink:href="#DejaVuSans-4c" x="145.564453"/>
      <use xlink:href="#DejaVuSans-44" x="201.277344"/>
      <use xlink:href="#DejaVuSans-20" x="278.279297"/>
      <use xlink:href="#DejaVuSans-25" x="310.066406"/>
      <use xlink:href="#DejaVuSans-20" x="405.085938"/>
      <use xlink:href="#DejaVuSans-63" x="436.873047"/>
      <use xlink:href="#DejaVuSans-68" x="491.853516"/>
      <use xlink:href="#DejaVuSans-61" x="555.232422"/>
      <use xlink:href="#DejaVuSans-6e" x="616.511719"/>
      <use xlink:href="#DejaVuSans-67" x="679.890625"/>
      <use xlink:href="#DejaVuSans-65" x="743.367188"/>
     </g>
    </g>
   </g>
   <g id="line2d_10">
    <path d="M 65.454545 341.660739 
L 70.12987 341.682034 
L 74.805195 341.834292 
L 79.480519 341.917802 
L 84.155844 341.786984 
L 88.831169 341.727195 
L 93.506494 341.625094 
L 98.181818 341.537192 
L 102.857143 341.3369 
L 107.532468 341.159915 
L 112.207792 341.255898 
L 116.883117 341.44734 
L 121.558442 341.606223 
L 126.233766 341.816621 
L 130.909091 341.817741 
L 135.584416 341.980809 
L 140.25974 342.21468 
L 144.935065 342.372574 
L 149.61039 342.521958 
L 154.285714 342.660203 
L 158.961039 342.614909 
L 163.636364 342.659541 
L 168.311688 342.726349 
L 172.987013 342.932851 
L 177.662338 343.141997 
L 182.337662 343.380016 
L 187.012987 343.793125 
L 191.688312 344.194993 
L 196.363636 344.396011 
L 201.038961 344.559636 
L 205.714286 344.789316 
L 210.38961 345.11097 
L 215.064935 345.414166 
L 219.74026 345.575741 
L 224.415584 345.657846 
L 229.090909 345.724841 
L 233.766234 345.648308 
L 238.441558 345.614353 
L 243.116883 345.622484 
L 247.792208 345.646558 
L 252.467532 345.778645 
L 257.142857 345.854289 
L 261.818182 345.983851 
L 266.493506 346.213643 
L 271.168831 346.457791 
L 275.844156 346.680422 
L 280.519481 347.031429 
L 285.194805 347.240252 
L 289.87013 347.262532 
L 294.545455 347.35239 
" clip-path="url(#p8d3805e71d)" style="fill: none; stroke: #ffa500; stroke-width: 1.5; stroke-linecap: square"/>
   </g>
   <g id="line2d_11">
    <path d="M 65.454545 338.292822 
L 70.12987 338.485558 
L 74.805195 339.499195 
L 79.480519 340.317323 
L 84.155844 340.894456 
L 88.831169 340.55472 
L 93.506494 340.268556 
L 98.181818 339.706975 
L 102.857143 339.497971 
L 107.532468 339.314023 
L 112.207792 339.482236 
L 116.883117 339.66099 
L 121.558442 339.430739 
L 126.233766 338.566804 
L 130.909091 338.423604 
L 135.584416 339.429147 
L 140.25974 340.113967 
L 144.935065 340.207862 
L 149.61039 340.067904 
L 154.285714 341.089865 
L 158.961039 341.220576 
L 163.636364 340.768696 
L 168.311688 340.532768 
L 172.987013 341.147749 
L 177.662338 341.814253 
L 182.337662 342.316156 
L 187.012987 343.149421 
L 191.688312 344.455475 
L 196.363636 345.311722 
L 201.038961 345.715663 
L 205.714286 345.338442 
L 210.38961 344.839177 
L 215.064935 344.483592 
L 219.74026 344.234819 
L 224.415584 344.070314 
L 229.090909 343.77377 
L 233.766234 343.739503 
L 238.441558 343.925181 
L 243.116883 343.90449 
L 247.792208 343.43798 
L 252.467532 342.67552 
L 257.142857 341.866759 
L 261.818182 341.529939 
L 266.493506 341.637109 
L 271.168831 341.753776 
L 275.844156 342.519269 
L 280.519481 344.45439 
L 285.194805 345.537038 
L 289.87013 345.729172 
L 294.545455 345.034955 
" clip-path="url(#p8d3805e71d)" style="fill: none; stroke: #ffa500; stroke-opacity: 0.2; stroke-width: 1.5; stroke-linecap: square"/>
   </g>
   <g id="line2d_12">
    <path d="M 65.454545 347.504964 
L 70.12987 347.504964 
L 74.805195 346.960539 
L 79.480519 346.164221 
L 84.155844 345.43016 
L 88.831169 344.48033 
L 93.506494 343.523772 
L 98.181818 343.068928 
L 102.857143 342.882495 
L 107.532468 342.942631 
L 112.207792 342.801322 
L 116.883117 342.612719 
L 121.558442 342.335244 
L 126.233766 341.987104 
L 130.909091 341.499392 
L 135.584416 341.128445 
L 140.25974 341.178268 
L 144.935065 341.422224 
L 149.61039 341.441121 
L 154.285714 341.286162 
L 158.961039 340.925667 
L 163.636364 341.055314 
L 168.311688 341.226532 
L 172.987013 341.479362 
L 177.662338 341.838282 
L 182.337662 341.99588 
L 187.012987 341.858989 
L 191.688312 341.841771 
L 196.363636 341.928992 
L 201.038961 342.107511 
L 205.714286 342.506504 
L 210.38961 342.837999 
L 215.064935 343.039078 
L 219.74026 343.265417 
L 224.415584 343.553497 
L 229.090909 343.721808 
L 233.766234 343.594739 
L 238.441558 343.681525 
L 243.116883 343.75224 
L 247.792208 343.821609 
L 252.467532 343.765259 
L 257.142857 343.506174 
L 261.818182 343.36163 
L 266.493506 343.539945 
L 271.168831 343.830835 
L 275.844156 343.771596 
L 280.519481 343.72803 
L 285.194805 343.472803 
L 289.87013 343.311879 
L 294.545455 343.259095 
" clip-path="url(#p8d3805e71d)" style="fill: none; stroke: #ffa500; stroke-opacity: 0.2; stroke-width: 1.5; stroke-linecap: square"/>
   </g>
   <g id="line2d_13">
    <path d="M 65.454545 339.818327 
L 70.12987 339.805148 
L 74.805195 340.180075 
L 79.480519 341.267023 
L 84.155844 341.555365 
L 88.831169 342.034934 
L 93.506494 342.718824 
L 98.181818 343.238305 
L 102.857143 342.882016 
L 107.532468 342.499789 
L 112.207792 341.999232 
L 116.883117 341.947111 
L 121.558442 342.096896 
L 126.233766 342.163245 
L 130.909091 342.085517 
L 135.584416 341.717289 
L 140.25974 341.470097 
L 144.935065 341.252641 
L 149.61039 341.260131 
L 154.285714 341.26098 
L 158.961039 341.187498 
L 163.636364 341.244613 
L 168.311688 341.603242 
L 172.987013 342.323965 
L 177.662338 343.262987 
L 182.337662 343.982918 
L 187.012987 344.422303 
L 191.688312 344.41897 
L 196.363636 344.573061 
L 201.038961 344.634773 
L 205.714286 344.751525 
L 210.38961 344.735086 
L 215.064935 344.617626 
L 219.74026 344.398345 
L 224.415584 344.08489 
L 229.090909 343.897882 
L 233.766234 343.678215 
L 238.441558 343.397069 
L 243.116883 343.446887 
L 247.792208 343.752244 
L 252.467532 343.984951 
L 257.142857 344.505075 
L 261.818182 344.940712 
L 266.493506 345.164421 
L 271.168831 345.681578 
L 275.844156 346.311004 
L 280.519481 347.102635 
L 285.194805 347.422922 
L 289.87013 347.237665 
L 294.545455 347.024845 
" clip-path="url(#p8d3805e71d)" style="fill: none; stroke: #ffa500; stroke-opacity: 0.2; stroke-width: 1.5; stroke-linecap: square"/>
   </g>
   <g id="line2d_14">
    <path d="M 65.454545 340.317663 
L 70.12987 340.317663 
L 74.805195 340.360299 
L 79.480519 340.640604 
L 84.155844 341.01624 
L 88.831169 341.154013 
L 93.506494 341.138445 
L 98.181818 341.47169 
L 102.857143 341.671313 
L 107.532468 342.038987 
L 112.207792 342.344936 
L 116.883117 342.784021 
L 121.558442 343.038998 
L 126.233766 343.05967 
L 130.909091 343.0289 
L 135.584416 343.033052 
L 140.25974 343.150296 
L 144.935065 343.533178 
L 149.61039 343.669391 
L 154.285714 343.833 
L 158.961039 344.179643 
L 163.636364 344.503069 
L 168.311688 344.850108 
L 172.987013 345.137912 
L 177.662338 345.43529 
L 182.337662 345.823458 
L 187.012987 346.543387 
L 191.688312 347.331923 
L 196.363636 347.871617 
L 201.038961 348.128803 
L 205.714286 348.255407 
L 210.38961 348.555202 
L 215.064935 348.951761 
L 219.74026 349.334068 
L 224.415584 349.542727 
L 229.090909 349.737437 
L 233.766234 349.647002 
L 238.441558 349.572474 
L 243.116883 349.674551 
L 247.792208 349.859893 
L 252.467532 349.990254 
L 257.142857 350.162242 
L 261.818182 350.341969 
L 266.493506 350.780608 
L 271.168831 351.357182 
L 275.844156 351.419265 
L 280.519481 351.449059 
L 285.194805 351.40025 
L 289.87013 351.347796 
L 294.545455 351.250807 
" clip-path="url(#p8d3805e71d)" style="fill: none; stroke: #ffa500; stroke-opacity: 0.2; stroke-width: 1.5; stroke-linecap: square"/>
   </g>
   <g id="line2d_15">
    <path d="M 65.454545 346.42542 
L 70.12987 346.45063 
L 74.805195 347.003843 
L 79.480519 347.382294 
L 84.155844 346.255433 
L 88.831169 345.185424 
L 93.506494 345.076796 
L 98.181818 345.77288 
L 102.857143 346.052547 
L 107.532468 345.081715 
L 112.207792 343.796462 
L 116.883117 342.62056 
L 121.558442 341.181515 
L 126.233766 341.078608 
L 130.909091 341.051666 
L 135.584416 342.634546 
L 140.25974 344.037674 
L 144.935065 343.677695 
L 149.61039 343.133206 
L 154.285714 342.585972 
L 158.961039 342.314529 
L 163.636364 342.449648 
L 168.311688 342.353583 
L 172.987013 342.043594 
L 177.662338 341.368725 
L 182.337662 341.156605 
L 187.012987 342.09581 
L 191.688312 343.112122 
L 196.363636 344.076641 
L 201.038961 345.084264 
L 205.714286 345.644295 
L 210.38961 346.297689 
L 215.064935 347.024746 
L 219.74026 347.577792 
L 224.415584 347.774524 
L 229.090909 347.823191 
L 233.766234 347.197173 
L 238.441558 346.806887 
L 243.116883 346.536763 
L 247.792208 346.630595 
L 252.467532 347.094016 
L 257.142857 347.295144 
L 261.818182 347.446781 
L 266.493506 347.129362 
L 271.168831 346.492078 
L 275.844156 346.433921 
L 280.519481 346.405093 
L 285.194805 346.197024 
L 289.87013 345.370071 
L 294.545455 345.436488 
" clip-path="url(#p8d3805e71d)" style="fill: none; stroke: #ffa500; stroke-opacity: 0.2; stroke-width: 1.5; stroke-linecap: square"/>
   </g>
   <g id="line2d_16">
    <path d="M 65.454545 351.291262 
L 70.12987 351.332128 
L 74.805195 351.399076 
L 79.480519 351.512474 
L 84.155844 352.304216 
L 88.831169 353.095768 
L 93.506494 352.90793 
L 98.181818 353.007966 
L 102.857143 352.177197 
L 107.532468 351.238567 
L 112.207792 352.254551 
L 116.883117 353.213452 
L 121.558442 354.841878 
L 126.233766 356.558324 
L 130.909091 355.49373 
L 135.584416 354.783631 
L 140.25974 354.448958 
L 144.935065 354.359608 
L 149.61039 354.700752 
L 154.285714 355.507209 
L 158.961039 355.38556 
L 163.636364 355.633687 
L 168.311688 355.491405 
L 172.987013 354.74096 
L 177.662338 354.03851 
L 182.337662 353.804166 
L 187.012987 354.108406 
L 191.688312 354.576221 
L 196.363636 353.787364 
L 201.038961 353.817317 
L 205.714286 354.702451 
L 210.38961 355.855045 
L 215.064935 356.666359 
L 219.74026 356.896495 
L 224.415584 356.837594 
L 229.090909 356.837739 
L 233.766234 356.669995 
L 238.441558 356.095992 
L 243.116883 355.358876 
L 247.792208 353.915805 
L 252.467532 353.362007 
L 257.142857 352.610105 
L 261.818182 352.207729 
L 266.493506 352.704279 
L 271.168831 353.595672 
L 275.844156 354.165287 
L 280.519481 354.584292 
L 285.194805 355.223232 
L 289.87013 355.703799 
L 294.545455 355.67654 
" clip-path="url(#p8d3805e71d)" style="fill: none; stroke: #ffa500; stroke-opacity: 0.2; stroke-width: 1.5; stroke-linecap: square"/>
   </g>
   <g id="line2d_17">
    <path d="M 65.454545 337.202591 
L 70.12987 336.903678 
L 74.805195 336.179842 
L 79.480519 335.738942 
L 84.155844 335.340109 
L 88.831169 334.597045 
L 93.506494 334.083185 
L 98.181818 333.402037 
L 102.857143 333.204832 
L 107.532468 333.165951 
L 112.207792 332.931829 
L 116.883117 332.600202 
L 121.558442 332.3102 
L 126.233766 332.169537 
L 130.909091 332.231615 
L 135.584416 332.525895 
L 140.25974 333.059603 
L 144.935065 333.666089 
L 149.61039 334.238903 
L 154.285714 334.501867 
L 158.961039 334.662197 
L 163.636364 335.167116 
L 168.311688 335.95537 
L 172.987013 336.880518 
L 177.662338 337.620275 
L 182.337662 338.308256 
L 187.012987 339.020262 
L 191.688312 339.60514 
L 196.363636 340.18027 
L 201.038961 340.5884 
L 205.714286 341.057981 
L 210.38961 341.458241 
L 215.064935 341.669342 
L 219.74026 341.708813 
L 224.415584 342.240604 
L 229.090909 342.714927 
L 233.766234 343.050408 
L 238.441558 343.669972 
L 243.116883 344.180396 
L 247.792208 344.618915 
L 252.467532 345.331334 
L 257.142857 345.785317 
L 261.818182 346.3335 
L 266.493506 346.898513 
L 271.168831 347.563501 
L 275.844156 348.326914 
L 280.519481 348.631385 
L 285.194805 348.503745 
L 289.87013 348.465898 
L 294.545455 349.134375 
" clip-path="url(#p8d3805e71d)" style="fill: none; stroke: #ffa500; stroke-opacity: 0.2; stroke-width: 1.5; stroke-linecap: square"/>
   </g>
   <g id="line2d_18">
    <path d="M 65.454545 329.843665 
L 70.12987 329.883255 
L 74.805195 329.990645 
L 79.480519 330.592834 
L 84.155844 330.428485 
L 88.831169 331.140132 
L 93.506494 331.457449 
L 98.181818 331.490286 
L 102.857143 331.332678 
L 107.532468 331.826872 
L 112.207792 332.030638 
L 116.883117 332.325212 
L 121.558442 332.692329 
L 126.233766 333.920218 
L 130.909091 334.558434 
L 135.584416 335.105433 
L 140.25974 335.598588 
L 144.935065 336.060741 
L 149.61039 336.447752 
L 154.285714 336.625653 
L 158.961039 336.830407 
L 163.636364 336.869619 
L 168.311688 336.982356 
L 172.987013 337.40766 
L 177.662338 337.926971 
L 182.337662 338.099839 
L 187.012987 338.262612 
L 191.688312 338.348288 
L 196.363636 338.670182 
L 201.038961 338.786854 
L 205.714286 339.376548 
L 210.38961 340.091708 
L 215.064935 340.480616 
L 219.74026 340.78884 
L 224.415584 341.523332 
L 229.090909 342.21402 
L 233.766234 342.623051 
L 238.441558 342.803636 
L 243.116883 342.854615 
L 247.792208 342.736547 
L 252.467532 342.662079 
L 257.142857 342.817508 
L 261.818182 342.807088 
L 266.493506 342.542317 
L 271.168831 342.112758 
L 275.844156 341.810227 
L 280.519481 341.724905 
L 285.194805 342.076036 
L 289.87013 342.462926 
L 294.545455 342.665585 
" clip-path="url(#p8d3805e71d)" style="fill: none; stroke: #ffa500; stroke-opacity: 0.2; stroke-width: 1.5; stroke-linecap: square"/>
   </g>
   <g id="line2d_19">
    <path d="M 65.454545 349.661164 
L 70.12987 349.618967 
L 74.805195 349.945039 
L 79.480519 350.227637 
L 84.155844 351.161406 
L 88.831169 352.164158 
L 93.506494 353.026554 
L 98.181818 352.821207 
L 102.857143 352.213853 
L 107.532468 351.473017 
L 112.207792 351.052682 
L 116.883117 350.853256 
L 121.558442 350.642024 
L 126.233766 350.553915 
L 130.909091 350.838249 
L 135.584416 350.965797 
L 140.25974 351.084479 
L 144.935065 351.445392 
L 149.61039 351.693783 
L 154.285714 351.680468 
L 158.961039 351.613313 
L 163.636364 351.439197 
L 168.311688 351.160818 
L 172.987013 350.914315 
L 177.662338 350.64507 
L 182.337662 350.494858 
L 187.012987 350.55062 
L 191.688312 350.729376 
L 196.363636 351.041405 
L 201.038961 351.216803 
L 205.714286 351.16447 
L 210.38961 351.092765 
L 215.064935 351.197197 
L 219.74026 351.25026 
L 224.415584 351.118006 
L 229.090909 351.220608 
L 233.766234 351.421966 
L 238.441558 351.673402 
L 243.116883 351.781219 
L 247.792208 351.978101 
L 252.467532 352.131325 
L 257.142857 352.291229 
L 261.818182 352.510007 
L 266.493506 352.898254 
L 271.168831 353.234818 
L 275.844156 353.351235 
L 280.519481 353.630808 
L 285.194805 353.656267 
L 289.87013 353.301361 
L 294.545455 353.42335 
" clip-path="url(#p8d3805e71d)" style="fill: none; stroke: #ffa500; stroke-opacity: 0.2; stroke-width: 1.5; stroke-linecap: square"/>
   </g>
   <g id="line2d_20">
    <path d="M 65.454545 342.073681 
L 70.12987 342.23208 
L 74.805195 342.053111 
L 79.480519 340.903065 
L 84.155844 339.771277 
L 88.831169 339.430163 
L 93.506494 339.058773 
L 98.181818 338.837291 
L 102.857143 338.664967 
L 107.532468 338.75094 
L 112.207792 339.312653 
L 116.883117 340.541512 
L 121.558442 341.450671 
L 126.233766 342.003179 
L 130.909091 342.575318 
L 135.584416 342.251826 
L 140.25974 341.879957 
L 144.935065 341.809183 
L 149.61039 342.052656 
L 154.285714 341.984819 
L 158.961039 341.764632 
L 163.636364 341.320056 
L 168.311688 341.088304 
L 172.987013 341.298185 
L 177.662338 341.665644 
L 182.337662 342.05579 
L 187.012987 342.459095 
L 191.688312 342.547344 
L 196.363636 342.144489 
L 201.038961 341.599711 
L 205.714286 341.280113 
L 210.38961 341.938343 
L 215.064935 342.270452 
L 219.74026 342.083148 
L 224.415584 341.536629 
L 229.090909 340.88559 
L 233.766234 340.428117 
L 238.441558 340.176378 
L 243.116883 339.980882 
L 247.792208 340.096615 
L 252.467532 340.534216 
L 257.142857 341.10639 
L 261.818182 341.466823 
L 266.493506 341.808827 
L 271.168831 341.927331 
L 275.844156 341.877333 
L 280.519481 341.690744 
L 285.194805 341.69863 
L 289.87013 342.115019 
L 294.545455 342.411739 
" clip-path="url(#p8d3805e71d)" style="fill: none; stroke: #ffa500; stroke-opacity: 0.2; stroke-width: 1.5; stroke-linecap: square"/>
   </g>
   <g id="line2d_21">
    <path d="M 65.454545 335.836575 
L 70.12987 335.968307 
L 74.805195 336.605546 
L 79.480519 336.349404 
L 84.155844 335.499675 
L 88.831169 335.16246 
L 93.506494 334.615749 
L 98.181818 334.091545 
L 102.857143 334.126032 
L 107.532468 334.426569 
L 112.207792 335.808333 
L 116.883117 336.761709 
L 121.558442 337.647957 
L 126.233766 337.922228 
L 130.909091 338.20873 
L 135.584416 338.213838 
L 140.25974 338.339592 
L 144.935065 338.663701 
L 149.61039 339.035942 
L 154.285714 338.906243 
L 158.961039 338.679973 
L 163.636364 338.80393 
L 168.311688 338.745356 
L 172.987013 338.887144 
L 177.662338 338.945956 
L 182.337662 339.14225 
L 187.012987 339.25347 
L 191.688312 339.178294 
L 196.363636 338.770379 
L 201.038961 338.475899 
L 205.714286 338.604743 
L 210.38961 338.51941 
L 215.064935 339.155053 
L 219.74026 339.795159 
L 224.415584 339.954184 
L 229.090909 340.146282 
L 233.766234 340.081223 
L 238.441558 339.955369 
L 243.116883 340.376404 
L 247.792208 341.263835 
L 252.467532 342.034135 
L 257.142857 342.451231 
L 261.818182 342.87618 
L 266.493506 343.246441 
L 271.168831 343.486167 
L 275.844156 343.49859 
L 280.519481 343.944371 
L 285.194805 344.454827 
L 289.87013 344.842269 
L 294.545455 345.558514 
" clip-path="url(#p8d3805e71d)" style="fill: none; stroke: #ffa500; stroke-opacity: 0.2; stroke-width: 1.5; stroke-linecap: square"/>
   </g>
   <g id="line2d_22">
    <path d="M 111.272727 382.628571 
L 111.272727 308.571429 
" clip-path="url(#p8d3805e71d)" style="fill: none; stroke-dasharray: 5.55,2.4; stroke-dashoffset: 0; stroke: #000000; stroke-width: 1.5"/>
   </g>
   <g id="line2d_23">
    <path d="M 65.454545 345.6 
L 294.545455 345.6 
" clip-path="url(#p8d3805e71d)" style="fill: none; stroke-dasharray: 5.55,2.4; stroke-dashoffset: 0; stroke: #000000; stroke-width: 1.5"/>
   </g>
   <g id="patch_3">
    <path d="M 50 388.8 
L 50 302.4 
" style="fill: none; stroke: #000000; stroke-width: 0.8; stroke-linejoin: miter; stroke-linecap: square"/>
   </g>
   <g id="patch_4">
    <path d="M 54 392.8 
L 306 392.8 
" style="fill: none; stroke: #000000; stroke-width: 0.8; stroke-linejoin: miter; stroke-linecap: square"/>
   </g>
   <g id="text_12">
    <!-- all depths -->
    <g transform="translate(150.492188 296.4) scale(0.12 -0.12)">
     <defs>
      <path id="DejaVuSans-70" d="M 1159 525 
L 1159 -1331 
L 581 -1331 
L 581 3500 
L 1159 3500 
L 1159 2969 
Q 1341 3281 1617 3432 
Q 1894 3584 2278 3584 
Q 2916 3584 3314 3078 
Q 3713 2572 3713 1747 
Q 3713 922 3314 415 
Q 2916 -91 2278 -91 
Q 1894 -91 1617 61 
Q 1341 213 1159 525 
z
M 3116 1747 
Q 3116 2381 2855 2742 
Q 2594 3103 2138 3103 
Q 1681 3103 1420 2742 
Q 1159 2381 1159 1747 
Q 1159 1113 1420 752 
Q 1681 391 2138 391 
Q 2594 391 2855 752 
Q 3116 1113 3116 1747 
z
" transform="scale(0.015625)"/>
     </defs>
     <use xlink:href="#DejaVuSans-61"/>
     <use xlink:href="#DejaVuSans-6c" x="61.279297"/>
     <use xlink:href="#DejaVuSans-6c" x="89.0625"/>
     <use xlink:href="#DejaVuSans-20" x="116.845703"/>
     <use xlink:href="#DejaVuSans-64" x="148.632812"/>
     <use xlink:href="#DejaVuSans-65" x="212.109375"/>
     <use xlink:href="#DejaVuSans-70" x="273.632812"/>
     <use xlink:href="#DejaVuSans-74" x="337.109375"/>
     <use xlink:href="#DejaVuSans-68" x="376.318359"/>
     <use xlink:href="#DejaVuSans-73" x="439.697266"/>
    </g>
   </g>
   <g id="legend_1">
    <g id="patch_5">
     <path d="M 114.115625 325.35625 
L 299 325.35625 
Q 301 325.35625 301 323.35625 
L 301 309.4 
Q 301 307.4 299 307.4 
L 114.115625 307.4 
Q 112.115625 307.4 112.115625 309.4 
L 112.115625 323.35625 
Q 112.115625 325.35625 114.115625 325.35625 
z
" style="fill: #ffffff; opacity: 0.8; stroke: #cccccc; stroke-linejoin: miter"/>
    </g>
    <g id="line2d_24">
     <path d="M 116.115625 315.498437 
L 126.115625 315.498437 
L 136.115625 315.498437 
" style="fill: none; stroke: #ffa500; stroke-width: 1.5; stroke-linecap: square"/>
    </g>
    <g id="text_13">
     <!-- V23_superficial_deveined_orth -->
     <g transform="translate(144.115625 318.998437) scale(0.1 -0.1)">
      <defs>
       <path id="DejaVuSans-56" d="M 1831 0 
L 50 4666 
L 709 4666 
L 2188 738 
L 3669 4666 
L 4325 4666 
L 2547 0 
L 1831 0 
z
" transform="scale(0.015625)"/>
       <path id="DejaVuSans-5f" d="M 3263 -1063 
L 3263 -1509 
L -63 -1509 
L -63 -1063 
L 3263 -1063 
z
" transform="scale(0.015625)"/>
       <path id="DejaVuSans-75" d="M 544 1381 
L 544 3500 
L 1119 3500 
L 1119 1403 
Q 1119 906 1312 657 
Q 1506 409 1894 409 
Q 2359 409 2629 706 
Q 2900 1003 2900 1516 
L 2900 3500 
L 3475 3500 
L 3475 0 
L 2900 0 
L 2900 538 
Q 2691 219 2414 64 
Q 2138 -91 1772 -91 
Q 1169 -91 856 284 
Q 544 659 544 1381 
z
M 1991 3584 
L 1991 3584 
z
" transform="scale(0.015625)"/>
      </defs>
      <use xlink:href="#DejaVuSans-56"/>
      <use xlink:href="#DejaVuSans-32" x="68.408203"/>
      <use xlink:href="#DejaVuSans-33" x="132.03125"/>
      <use xlink:href="#DejaVuSans-5f" x="195.654297"/>
      <use xlink:href="#DejaVuSans-73" x="245.654297"/>
      <use xlink:href="#DejaVuSans-75" x="297.753906"/>
      <use xlink:href="#DejaVuSans-70" x="361.132812"/>
      <use xlink:href="#DejaVuSans-65" x="424.609375"/>
      <use xlink:href="#DejaVuSans-72" x="486.132812"/>
      <use xlink:href="#DejaVuSans-66" x="527.246094"/>
      <use xlink:href="#DejaVuSans-69" x="562.451172"/>
      <use xlink:href="#DejaVuSans-63" x="590.234375"/>
      <use xlink:href="#DejaVuSans-69" x="645.214844"/>
      <use xlink:href="#DejaVuSans-61" x="672.998047"/>
      <use xlink:href="#DejaVuSans-6c" x="734.277344"/>
      <use xlink:href="#DejaVuSans-5f" x="762.060547"/>
      <use xlink:href="#DejaVuSans-64" x="812.060547"/>
      <use xlink:href="#DejaVuSans-65" x="875.537109"/>
      <use xlink:href="#DejaVuSans-76" x="937.060547"/>
      <use xlink:href="#DejaVuSans-65" x="996.240234"/>
      <use xlink:href="#DejaVuSans-69" x="1057.763672"/>
      <use xlink:href="#DejaVuSans-6e" x="1085.546875"/>
      <use xlink:href="#DejaVuSans-65" x="1148.925781"/>
      <use xlink:href="#DejaVuSans-64" x="1210.449219"/>
      <use xlink:href="#DejaVuSans-5f" x="1273.925781"/>
      <use xlink:href="#DejaVuSans-6f" x="1323.925781"/>
      <use xlink:href="#DejaVuSans-72" x="1385.107422"/>
      <use xlink:href="#DejaVuSans-74" x="1426.220703"/>
      <use xlink:href="#DejaVuSans-68" x="1465.429688"/>
     </g>
    </g>
   </g>
  </g>
 </g>
 <defs>
  <clipPath id="p8d3805e71d">
   <rect x="54" y="302.4" width="252" height="86.4"/>
  </clipPath>
 </defs>
</svg>
