<?xml version="1.0" encoding="utf-8" standalone="no"?>
<!DOCTYPE svg PUBLIC "-//W3C//DTD SVG 1.1//EN"
  "http://www.w3.org/Graphics/SVG/1.1/DTD/svg11.dtd">
<svg xmlns:xlink="http://www.w3.org/1999/xlink" width="576pt" height="504pt" viewBox="0 0 576 504" xmlns="http://www.w3.org/2000/svg" version="1.1">
 <metadata>
  <rdf:RDF xmlns:dc="http://purl.org/dc/elements/1.1/" xmlns:cc="http://creativecommons.org/ns#" xmlns:rdf="http://www.w3.org/1999/02/22-rdf-syntax-ns#">
   <cc:Work>
    <dc:type rdf:resource="http://purl.org/dc/dcmitype/StillImage"/>
    <dc:date>2025-09-22T15:18:50.150885</dc:date>
    <dc:format>image/svg+xml</dc:format>
    <dc:creator>
     <cc:Agent>
      <dc:title>Matplotlib v3.8.0, https://matplotlib.org/</dc:title>
     </cc:Agent>
    </dc:creator>
   </cc:Work>
  </rdf:RDF>
 </metadata>
 <defs>
  <style type="text/css">*{stroke-linejoin: round; stroke-linecap: butt}</style>
 </defs>
 <g id="figure_1">
  <g id="patch_1">
   <path d="M 0 504 
L 576 504 
L 576 0 
L 0 0 
z
" style="fill: #ffffff"/>
  </g>
  <g id="axes_1">
   <g id="patch_2">
    <path d="M 86.4 241.92 
L 489.6 241.92 
L 489.6 40.32 
L 86.4 40.32 
z
" style="fill: #ffffff"/>
   </g>
   <g id="PolyCollection_1">
    <defs>
     <path id="md12bbeb5c7" d="M 86.4 -434.220076 
L 86.4 -375.037835 
L 94.628571 -375.56123 
L 102.857143 -374.898506 
L 111.085714 -375.484458 
L 119.314286 -377.295027 
L 127.542857 -377.130338 
L 135.771429 -373.124549 
L 144 -373.482189 
L 152.228571 -375.280639 
L 160.457143 -374.69237 
L 168.685714 -372.750689 
L 176.914286 -370.032841 
L 185.142857 -365.711354 
L 193.371429 -360.681937 
L 201.6 -358.382896 
L 209.828571 -357.337653 
L 218.057143 -356.555581 
L 226.285714 -357.615076 
L 234.514286 -358.082226 
L 242.742857 -356.719253 
L 250.971429 -355.040035 
L 259.2 -352.986694 
L 267.428571 -353.262152 
L 275.657143 -354.667816 
L 283.885714 -355.647461 
L 292.114286 -355.620496 
L 300.342857 -356.629996 
L 308.571429 -356.059439 
L 316.8 -354.133693 
L 325.028571 -354.898467 
L 333.257143 -357.896485 
L 341.485714 -361.674679 
L 349.714286 -362.000287 
L 357.942857 -361.387448 
L 366.171429 -358.758987 
L 374.4 -354.533457 
L 382.628571 -351.245319 
L 390.857143 -350.58111 
L 399.085714 -351.203627 
L 407.314286 -349.269017 
L 415.542857 -345.184513 
L 423.771429 -341.97879 
L 432 -338.875903 
L 440.228571 -336.079959 
L 448.457143 -334.071329 
L 456.685714 -334.8119 
L 464.914286 -335.245498 
L 473.142857 -335.681951 
L 481.371429 -332.455687 
L 489.6 -328.978503 
L 489.6 -386.356416 
L 489.6 -386.356416 
L 481.371429 -388.850746 
L 473.142857 -389.386195 
L 464.914286 -388.548074 
L 456.685714 -389.955018 
L 448.457143 -390.698501 
L 440.228571 -392.993161 
L 432 -395.198314 
L 423.771429 -397.541038 
L 415.542857 -399.538751 
L 407.314286 -402.969325 
L 399.085714 -405.4264 
L 390.857143 -404.571883 
L 382.628571 -405.395613 
L 374.4 -408.103097 
L 366.171429 -410.564793 
L 357.942857 -411.774395 
L 349.714286 -413.242962 
L 341.485714 -415.181372 
L 333.257143 -412.286102 
L 325.028571 -408.463549 
L 316.8 -407.221671 
L 308.571429 -408.775095 
L 300.342857 -410.506162 
L 292.114286 -410.655229 
L 283.885714 -410.777569 
L 275.657143 -410.850448 
L 267.428571 -408.681208 
L 259.2 -405.497256 
L 250.971429 -405.000128 
L 242.742857 -406.235615 
L 234.514286 -406.676691 
L 226.285714 -405.929129 
L 218.057143 -404.392472 
L 209.828571 -401.702274 
L 201.6 -401.685845 
L 193.371429 -403.501862 
L 185.142857 -406.92865 
L 176.914286 -413.783323 
L 168.685714 -422.576352 
L 160.457143 -431.43226 
L 152.228571 -434.242911 
L 144 -430.224916 
L 135.771429 -426.167752 
L 127.542857 -425.645805 
L 119.314286 -426.206179 
L 111.085714 -424.250632 
L 102.857143 -426.208209 
L 94.628571 -431.556757 
L 86.4 -434.220076 
z
" style="stroke: #b200b2; stroke-opacity: 0.4"/>
    </defs>
    <g clip-path="url(#p4ca60a37d3)">
     <use xlink:href="#md12bbeb5c7" x="0" y="504" style="fill: #b200b2; fill-opacity: 0.4; stroke: #b200b2; stroke-opacity: 0.4"/>
    </g>
   </g>
   <g id="matplotlib.axis_1">
    <g id="xtick_1">
     <g id="line2d_1">
      <defs>
       <path id="mb1256c6697" d="M 0 0 
L 0 3.5 
" style="stroke: #000000; stroke-width: 0.8"/>
      </defs>
      <g>
       <use xlink:href="#mb1256c6697" x="86.4" y="245.92" style="stroke: #000000; stroke-width: 0.8"/>
      </g>
     </g>
    </g>
    <g id="xtick_2">
     <g id="line2d_2">
      <g>
       <use xlink:href="#mb1256c6697" x="167.04" y="245.92" style="stroke: #000000; stroke-width: 0.8"/>
      </g>
     </g>
    </g>
    <g id="xtick_3">
     <g id="line2d_3">
      <g>
       <use xlink:href="#mb1256c6697" x="247.68" y="245.92" style="stroke: #000000; stroke-width: 0.8"/>
      </g>
     </g>
    </g>
    <g id="xtick_4">
     <g id="line2d_4">
      <g>
       <use xlink:href="#mb1256c6697" x="328.32" y="245.92" style="stroke: #000000; stroke-width: 0.8"/>
      </g>
     </g>
    </g>
    <g id="xtick_5">
     <g id="line2d_5">
      <g>
       <use xlink:href="#mb1256c6697" x="408.96" y="245.92" style="stroke: #000000; stroke-width: 0.8"/>
      </g>
     </g>
    </g>
    <g id="xtick_6">
     <g id="line2d_6">
      <g>
       <use xlink:href="#mb1256c6697" x="489.6" y="245.92" style="stroke: #000000; stroke-width: 0.8"/>
      </g>
     </g>
    </g>
   </g>
   <g id="matplotlib.axis_2">
    <g id="ytick_1">
     <g id="line2d_7">
      <defs>
       <path id="m3de83b6b16" d="M 0 0 
L -3.5 0 
" style="stroke: #000000; stroke-width: 0.8"/>
      </defs>
      <g>
       <use xlink:href="#m3de83b6b16" x="82.4" y="241.92" style="stroke: #000000; stroke-width: 0.8"/>
      </g>
     </g>
     <g id="text_1">
      <!-- −2.0 -->
      <g transform="translate(51.117187 245.719219) scale(0.1 -0.1)">
       <defs>
        <path id="DejaVuSans-2212" d="M 678 2272 
L 4684 2272 
L 4684 1741 
L 678 1741 
L 678 2272 
z
" transform="scale(0.015625)"/>
        <path id="DejaVuSans-32" d="M 1228 531 
L 3431 531 
L 3431 0 
L 469 0 
L 469 531 
Q 828 903 1448 1529 
Q 2069 2156 2228 2338 
Q 2531 2678 2651 2914 
Q 2772 3150 2772 3378 
Q 2772 3750 2511 3984 
Q 2250 4219 1831 4219 
Q 1534 4219 1204 4116 
Q 875 4013 500 3803 
L 500 4441 
Q 881 4594 1212 4672 
Q 1544 4750 1819 4750 
Q 2544 4750 2975 4387 
Q 3406 4025 3406 3419 
Q 3406 3131 3298 2873 
Q 3191 2616 2906 2266 
Q 2828 2175 2409 1742 
Q 1991 1309 1228 531 
z
" transform="scale(0.015625)"/>
        <path id="DejaVuSans-2e" d="M 684 794 
L 1344 794 
L 1344 0 
L 684 0 
L 684 794 
z
" transform="scale(0.015625)"/>
        <path id="DejaVuSans-30" d="M 2034 4250 
Q 1547 4250 1301 3770 
Q 1056 3291 1056 2328 
Q 1056 1369 1301 889 
Q 1547 409 2034 409 
Q 2525 409 2770 889 
Q 3016 1369 3016 2328 
Q 3016 3291 2770 3770 
Q 2525 4250 2034 4250 
z
M 2034 4750 
Q 2819 4750 3233 4129 
Q 3647 3509 3647 2328 
Q 3647 1150 3233 529 
Q 2819 -91 2034 -91 
Q 1250 -91 836 529 
Q 422 1150 422 2328 
Q 422 3509 836 4129 
Q 1250 4750 2034 4750 
z
" transform="scale(0.015625)"/>
       </defs>
       <use xlink:href="#DejaVuSans-2212"/>
       <use xlink:href="#DejaVuSans-32" x="83.789062"/>
       <use xlink:href="#DejaVuSans-2e" x="147.412109"/>
       <use xlink:href="#DejaVuSans-30" x="179.199219"/>
      </g>
     </g>
    </g>
    <g id="ytick_2">
     <g id="line2d_8">
      <g>
       <use xlink:href="#m3de83b6b16" x="82.4" y="216.72" style="stroke: #000000; stroke-width: 0.8"/>
      </g>
     </g>
     <g id="text_2">
      <!-- −1.5 -->
      <g transform="translate(51.117187 220.519219) scale(0.1 -0.1)">
       <defs>
        <path id="DejaVuSans-31" d="M 794 531 
L 1825 531 
L 1825 4091 
L 703 3866 
L 703 4441 
L 1819 4666 
L 2450 4666 
L 2450 531 
L 3481 531 
L 3481 0 
L 794 0 
L 794 531 
z
" transform="scale(0.015625)"/>
        <path id="DejaVuSans-35" d="M 691 4666 
L 3169 4666 
L 3169 4134 
L 1269 4134 
L 1269 2991 
Q 1406 3038 1543 3061 
Q 1681 3084 1819 3084 
Q 2600 3084 3056 2656 
Q 3513 2228 3513 1497 
Q 3513 744 3044 326 
Q 2575 -91 1722 -91 
Q 1428 -91 1123 -41 
Q 819 9 494 109 
L 494 744 
Q 775 591 1075 516 
Q 1375 441 1709 441 
Q 2250 441 2565 725 
Q 2881 1009 2881 1497 
Q 2881 1984 2565 2268 
Q 2250 2553 1709 2553 
Q 1456 2553 1204 2497 
Q 953 2441 691 2322 
L 691 4666 
z
" transform="scale(0.015625)"/>
       </defs>
       <use xlink:href="#DejaVuSans-2212"/>
       <use xlink:href="#DejaVuSans-31" x="83.789062"/>
       <use xlink:href="#DejaVuSans-2e" x="147.412109"/>
       <use xlink:href="#DejaVuSans-35" x="179.199219"/>
      </g>
     </g>
    </g>
    <g id="ytick_3">
     <g id="line2d_9">
      <g>
       <use xlink:href="#m3de83b6b16" x="82.4" y="191.52" style="stroke: #000000; stroke-width: 0.8"/>
      </g>
     </g>
     <g id="text_3">
      <!-- −1.0 -->
      <g transform="translate(51.117187 195.319219) scale(0.1 -0.1)">
       <use xlink:href="#DejaVuSans-2212"/>
       <use xlink:href="#DejaVuSans-31" x="83.789062"/>
       <use xlink:href="#DejaVuSans-2e" x="147.412109"/>
       <use xlink:href="#DejaVuSans-30" x="179.199219"/>
      </g>
     </g>
    </g>
    <g id="ytick_4">
     <g id="line2d_10">
      <g>
       <use xlink:href="#m3de83b6b16" x="82.4" y="166.32" style="stroke: #000000; stroke-width: 0.8"/>
      </g>
     </g>
     <g id="text_4">
      <!-- −0.5 -->
      <g transform="translate(51.117187 170.119219) scale(0.1 -0.1)">
       <use xlink:href="#DejaVuSans-2212"/>
       <use xlink:href="#DejaVuSans-30" x="83.789062"/>
       <use xlink:href="#DejaVuSans-2e" x="147.412109"/>
       <use xlink:href="#DejaVuSans-35" x="179.199219"/>
      </g>
     </g>
    </g>
    <g id="ytick_5">
     <g id="line2d_11">
      <g>
       <use xlink:href="#m3de83b6b16" x="82.4" y="141.12" style="stroke: #000000; stroke-width: 0.8"/>
      </g>
     </g>
     <g id="text_5">
      <!-- 0.0 -->
      <g transform="translate(59.496875 144.919219) scale(0.1 -0.1)">
       <use xlink:href="#DejaVuSans-30"/>
       <use xlink:href="#DejaVuSans-2e" x="63.623047"/>
       <use xlink:href="#DejaVuSans-30" x="95.410156"/>
      </g>
     </g>
    </g>
    <g id="ytick_6">
     <g id="line2d_12">
      <g>
       <use xlink:href="#m3de83b6b16" x="82.4" y="115.92" style="stroke: #000000; stroke-width: 0.8"/>
      </g>
     </g>
     <g id="text_6">
      <!-- 0.5 -->
      <g transform="translate(59.496875 119.719219) scale(0.1 -0.1)">
       <use xlink:href="#DejaVuSans-30"/>
       <use xlink:href="#DejaVuSans-2e" x="63.623047"/>
       <use xlink:href="#DejaVuSans-35" x="95.410156"/>
      </g>
     </g>
    </g>
    <g id="ytick_7">
     <g id="line2d_13">
      <g>
       <use xlink:href="#m3de83b6b16" x="82.4" y="90.72" style="stroke: #000000; stroke-width: 0.8"/>
      </g>
     </g>
     <g id="text_7">
      <!-- 1.0 -->
      <g transform="translate(59.496875 94.519219) scale(0.1 -0.1)">
       <use xlink:href="#DejaVuSans-31"/>
       <use xlink:href="#DejaVuSans-2e" x="63.623047"/>
       <use xlink:href="#DejaVuSans-30" x="95.410156"/>
      </g>
     </g>
    </g>
    <g id="ytick_8">
     <g id="line2d_14">
      <g>
       <use xlink:href="#m3de83b6b16" x="82.4" y="65.52" style="stroke: #000000; stroke-width: 0.8"/>
      </g>
     </g>
     <g id="text_8">
      <!-- 1.5 -->
      <g transform="translate(59.496875 69.319219) scale(0.1 -0.1)">
       <use xlink:href="#DejaVuSans-31"/>
       <use xlink:href="#DejaVuSans-2e" x="63.623047"/>
       <use xlink:href="#DejaVuSans-35" x="95.410156"/>
      </g>
     </g>
    </g>
    <g id="ytick_9">
     <g id="line2d_15">
      <g>
       <use xlink:href="#m3de83b6b16" x="82.4" y="40.32" style="stroke: #000000; stroke-width: 0.8"/>
      </g>
     </g>
     <g id="text_9">
      <!-- 2.0 -->
      <g transform="translate(59.496875 44.119219) scale(0.1 -0.1)">
       <use xlink:href="#DejaVuSans-32"/>
       <use xlink:href="#DejaVuSans-2e" x="63.623047"/>
       <use xlink:href="#DejaVuSans-30" x="95.410156"/>
      </g>
     </g>
    </g>
    <g id="text_10">
     <!-- BOLD % change -->
     <g transform="translate(45.453437 173.31625) rotate(-90) scale(0.08 -0.08)">
      <defs>
       <path id="DejaVuSans-42" d="M 1259 2228 
L 1259 519 
L 2272 519 
Q 2781 519 3026 730 
Q 3272 941 3272 1375 
Q 3272 1813 3026 2020 
Q 2781 2228 2272 2228 
L 1259 2228 
z
M 1259 4147 
L 1259 2741 
L 2194 2741 
Q 2656 2741 2882 2914 
Q 3109 3088 3109 3444 
Q 3109 3797 2882 3972 
Q 2656 4147 2194 4147 
L 1259 4147 
z
M 628 4666 
L 2241 4666 
Q 2963 4666 3353 4366 
Q 3744 4066 3744 3513 
Q 3744 3084 3544 2831 
Q 3344 2578 2956 2516 
Q 3422 2416 3680 2098 
Q 3938 1781 3938 1306 
Q 3938 681 3513 340 
Q 3088 0 2303 0 
L 628 0 
L 628 4666 
z
" transform="scale(0.015625)"/>
       <path id="DejaVuSans-4f" d="M 2522 4238 
Q 1834 4238 1429 3725 
Q 1025 3213 1025 2328 
Q 1025 1447 1429 934 
Q 1834 422 2522 422 
Q 3209 422 3611 934 
Q 4013 1447 4013 2328 
Q 4013 3213 3611 3725 
Q 3209 4238 2522 4238 
z
M 2522 4750 
Q 3503 4750 4090 4092 
Q 4678 3434 4678 2328 
Q 4678 1225 4090 567 
Q 3503 -91 2522 -91 
Q 1538 -91 948 565 
Q 359 1222 359 2328 
Q 359 3434 948 4092 
Q 1538 4750 2522 4750 
z
" transform="scale(0.015625)"/>
       <path id="DejaVuSans-4c" d="M 628 4666 
L 1259 4666 
L 1259 531 
L 3531 531 
L 3531 0 
L 628 0 
L 628 4666 
z
" transform="scale(0.015625)"/>
       <path id="DejaVuSans-44" d="M 1259 4147 
L 1259 519 
L 2022 519 
Q 2988 519 3436 956 
Q 3884 1394 3884 2338 
Q 3884 3275 3436 3711 
Q 2988 4147 2022 4147 
L 1259 4147 
z
M 628 4666 
L 1925 4666 
Q 3281 4666 3915 4102 
Q 4550 3538 4550 2338 
Q 4550 1131 3912 565 
Q 3275 0 1925 0 
L 628 0 
L 628 4666 
z
" transform="scale(0.015625)"/>
       <path id="DejaVuSans-20" transform="scale(0.015625)"/>
       <path id="DejaVuSans-25" d="M 4653 2053 
Q 4381 2053 4226 1822 
Q 4072 1591 4072 1178 
Q 4072 772 4226 539 
Q 4381 306 4653 306 
Q 4919 306 5073 539 
Q 5228 772 5228 1178 
Q 5228 1588 5073 1820 
Q 4919 2053 4653 2053 
z
M 4653 2450 
Q 5147 2450 5437 2106 
Q 5728 1763 5728 1178 
Q 5728 594 5436 251 
Q 5144 -91 4653 -91 
Q 4153 -91 3862 251 
Q 3572 594 3572 1178 
Q 3572 1766 3864 2108 
Q 4156 2450 4653 2450 
z
M 1428 4353 
Q 1159 4353 1004 4120 
Q 850 3888 850 3481 
Q 850 3069 1003 2837 
Q 1156 2606 1428 2606 
Q 1700 2606 1854 2837 
Q 2009 3069 2009 3481 
Q 2009 3884 1853 4118 
Q 1697 4353 1428 4353 
z
M 4250 4750 
L 4750 4750 
L 1831 -91 
L 1331 -91 
L 4250 4750 
z
M 1428 4750 
Q 1922 4750 2215 4408 
Q 2509 4066 2509 3481 
Q 2509 2891 2217 2550 
Q 1925 2209 1428 2209 
Q 931 2209 642 2551 
Q 353 2894 353 3481 
Q 353 4063 643 4406 
Q 934 4750 1428 4750 
z
" transform="scale(0.015625)"/>
       <path id="DejaVuSans-63" d="M 3122 3366 
L 3122 2828 
Q 2878 2963 2633 3030 
Q 2388 3097 2138 3097 
Q 1578 3097 1268 2742 
Q 959 2388 959 1747 
Q 959 1106 1268 751 
Q 1578 397 2138 397 
Q 2388 397 2633 464 
Q 2878 531 3122 666 
L 3122 134 
Q 2881 22 2623 -34 
Q 2366 -91 2075 -91 
Q 1284 -91 818 406 
Q 353 903 353 1747 
Q 353 2603 823 3093 
Q 1294 3584 2113 3584 
Q 2378 3584 2631 3529 
Q 2884 3475 3122 3366 
z
" transform="scale(0.015625)"/>
       <path id="DejaVuSans-68" d="M 3513 2113 
L 3513 0 
L 2938 0 
L 2938 2094 
Q 2938 2591 2744 2837 
Q 2550 3084 2163 3084 
Q 1697 3084 1428 2787 
Q 1159 2491 1159 1978 
L 1159 0 
L 581 0 
L 581 4863 
L 1159 4863 
L 1159 2956 
Q 1366 3272 1645 3428 
Q 1925 3584 2291 3584 
Q 2894 3584 3203 3211 
Q 3513 2838 3513 2113 
z
" transform="scale(0.015625)"/>
       <path id="DejaVuSans-61" d="M 2194 1759 
Q 1497 1759 1228 1600 
Q 959 1441 959 1056 
Q 959 750 1161 570 
Q 1363 391 1709 391 
Q 2188 391 2477 730 
Q 2766 1069 2766 1631 
L 2766 1759 
L 2194 1759 
z
M 3341 1997 
L 3341 0 
L 2766 0 
L 2766 531 
Q 2569 213 2275 61 
Q 1981 -91 1556 -91 
Q 1019 -91 701 211 
Q 384 513 384 1019 
Q 384 1609 779 1909 
Q 1175 2209 1959 2209 
L 2766 2209 
L 2766 2266 
Q 2766 2663 2505 2880 
Q 2244 3097 1772 3097 
Q 1472 3097 1187 3025 
Q 903 2953 641 2809 
L 641 3341 
Q 956 3463 1253 3523 
Q 1550 3584 1831 3584 
Q 2591 3584 2966 3190 
Q 3341 2797 3341 1997 
z
" transform="scale(0.015625)"/>
       <path id="DejaVuSans-6e" d="M 3513 2113 
L 3513 0 
L 2938 0 
L 2938 2094 
Q 2938 2591 2744 2837 
Q 2550 3084 2163 3084 
Q 1697 3084 1428 2787 
Q 1159 2491 1159 1978 
L 1159 0 
L 581 0 
L 581 3500 
L 1159 3500 
L 1159 2956 
Q 1366 3272 1645 3428 
Q 1925 3584 2291 3584 
Q 2894 3584 3203 3211 
Q 3513 2838 3513 2113 
z
" transform="scale(0.015625)"/>
       <path id="DejaVuSans-67" d="M 2906 1791 
Q 2906 2416 2648 2759 
Q 2391 3103 1925 3103 
Q 1463 3103 1205 2759 
Q 947 2416 947 1791 
Q 947 1169 1205 825 
Q 1463 481 1925 481 
Q 2391 481 2648 825 
Q 2906 1169 2906 1791 
z
M 3481 434 
Q 3481 -459 3084 -895 
Q 2688 -1331 1869 -1331 
Q 1566 -1331 1297 -1286 
Q 1028 -1241 775 -1147 
L 775 -588 
Q 1028 -725 1275 -790 
Q 1522 -856 1778 -856 
Q 2344 -856 2625 -561 
Q 2906 -266 2906 331 
L 2906 616 
Q 2728 306 2450 153 
Q 2172 0 1784 0 
Q 1141 0 747 490 
Q 353 981 353 1791 
Q 353 2603 747 3093 
Q 1141 3584 1784 3584 
Q 2172 3584 2450 3431 
Q 2728 3278 2906 2969 
L 2906 3500 
L 3481 3500 
L 3481 434 
z
" transform="scale(0.015625)"/>
       <path id="DejaVuSans-65" d="M 3597 1894 
L 3597 1613 
L 953 1613 
Q 991 1019 1311 708 
Q 1631 397 2203 397 
Q 2534 397 2845 478 
Q 3156 559 3463 722 
L 3463 178 
Q 3153 47 2828 -22 
Q 2503 -91 2169 -91 
Q 1331 -91 842 396 
Q 353 884 353 1716 
Q 353 2575 817 3079 
Q 1281 3584 2069 3584 
Q 2775 3584 3186 3129 
Q 3597 2675 3597 1894 
z
M 3022 2063 
Q 3016 2534 2758 2815 
Q 2500 3097 2075 3097 
Q 1594 3097 1305 2825 
Q 1016 2553 972 2059 
L 3022 2063 
z
" transform="scale(0.015625)"/>
      </defs>
      <use xlink:href="#DejaVuSans-42"/>
      <use xlink:href="#DejaVuSans-4f" x="66.853516"/>
      <use xlink:href="#DejaVuSans-4c" x="145.564453"/>
      <use xlink:href="#DejaVuSans-44" x="201.277344"/>
      <use xlink:href="#DejaVuSans-20" x="278.279297"/>
      <use xlink:href="#DejaVuSans-25" x="310.066406"/>
      <use xlink:href="#DejaVuSans-20" x="405.085938"/>
      <use xlink:href="#DejaVuSans-63" x="436.873047"/>
      <use xlink:href="#DejaVuSans-68" x="491.853516"/>
      <use xlink:href="#DejaVuSans-61" x="555.232422"/>
      <use xlink:href="#DejaVuSans-6e" x="616.511719"/>
      <use xlink:href="#DejaVuSans-67" x="679.890625"/>
      <use xlink:href="#DejaVuSans-65" x="743.367188"/>
     </g>
    </g>
   </g>
   <g id="line2d_16">
    <path d="M 86.4 99.371044 
L 94.628571 100.441007 
L 102.857143 103.446643 
L 111.085714 104.132455 
L 119.314286 102.249397 
L 127.542857 102.611928 
L 135.771429 104.353849 
L 144 102.146447 
L 152.228571 99.238225 
L 160.457143 100.937685 
L 168.685714 106.336479 
L 176.914286 112.091918 
L 185.142857 117.679998 
L 193.371429 121.9081 
L 201.6 123.965629 
L 209.828571 124.480037 
L 218.057143 123.525973 
L 226.285714 122.227897 
L 234.514286 121.620542 
L 242.742857 122.522566 
L 250.971429 123.979918 
L 259.2 124.758025 
L 267.428571 123.02832 
L 275.657143 121.240868 
L 283.885714 120.787485 
L 292.114286 120.862137 
L 300.342857 120.431921 
L 308.571429 121.582733 
L 316.8 123.322318 
L 325.028571 122.318992 
L 333.257143 118.908707 
L 341.485714 115.571975 
L 349.714286 116.378376 
L 357.942857 117.419079 
L 366.171429 119.33811 
L 374.4 122.681723 
L 382.628571 125.679534 
L 390.857143 126.423504 
L 399.085714 125.684986 
L 407.314286 127.880829 
L 415.542857 131.638368 
L 423.771429 134.240086 
L 432 136.962892 
L 440.228571 139.46344 
L 448.457143 141.615085 
L 456.685714 141.616541 
L 464.914286 142.103214 
L 473.142857 141.465927 
L 481.371429 143.346783 
L 489.6 146.332541 
" clip-path="url(#p4ca60a37d3)" style="fill: none; stroke: #b200b2; stroke-width: 1.5; stroke-linecap: square"/>
   </g>
   <g id="line2d_17">
    <path d="M 86.4 44.974437 
L 94.628571 47.578469 
L 102.857143 53.218798 
L 111.085714 62.263 
L 119.314286 70.503707 
L 127.542857 75.389266 
L 135.771429 82.773995 
L 144 83.692035 
L 152.228571 72.686916 
L 160.457143 71.225823 
L 168.685714 73.375088 
L 176.914286 77.108931 
L 185.142857 82.36412 
L 193.371429 79.823572 
L 201.6 76.92476 
L 209.828571 75.92566 
L 218.057143 73.679933 
L 226.285714 69.649707 
L 234.514286 69.708367 
L 242.742857 71.895145 
L 250.971429 74.365465 
L 259.2 75.405489 
L 267.428571 77.307971 
L 275.657143 82.541911 
L 283.885714 84.647251 
L 292.114286 83.464054 
L 300.342857 86.75075 
L 308.571429 98.362116 
L 316.8 100.024154 
L 325.028571 90.907642 
L 333.257143 79.229637 
L 341.485714 70.795629 
L 349.714286 67.826727 
L 357.942857 73.005722 
L 366.171429 79.284616 
L 374.4 85.632567 
L 382.628571 81.986686 
L 390.857143 75.490032 
L 399.085714 71.773403 
L 407.314286 80.718531 
L 415.542857 91.51055 
L 423.771429 102.754991 
L 432 104.821845 
L 440.228571 109.167505 
L 448.457143 116.617231 
L 456.685714 124.237057 
L 464.914286 131.124146 
L 473.142857 142.385007 
L 481.371429 160.560724 
L 489.6 170.986911 
" clip-path="url(#p4ca60a37d3)" style="fill: none; stroke: #b200b2; stroke-opacity: 0.2; stroke-width: 1.5; stroke-linecap: square"/>
   </g>
   <g id="line2d_18">
    <path d="M 86.4 190.972163 
L 94.628571 190.972163 
L 102.857143 190.845891 
L 111.085714 193.496718 
L 119.314286 192.238329 
L 127.542857 189.092177 
L 135.771429 195.831368 
L 144 212.466314 
L 152.228571 223.244018 
L 160.457143 233.856829 
L 168.685714 235.490481 
L 176.914286 238.999281 
L 185.142857 237.360302 
L 193.371429 233.151468 
L 201.6 222.275508 
L 209.828571 217.424549 
L 218.057143 218.703214 
L 226.285714 216.91544 
L 234.514286 211.672241 
L 242.742857 213.100595 
L 250.971429 213.674728 
L 259.2 216.052791 
L 267.428571 222.876021 
L 275.657143 225.739312 
L 283.885714 225.491094 
L 292.114286 224.348348 
L 300.342857 225.80715 
L 308.571429 225.44604 
L 316.8 225.116878 
L 325.028571 225.683314 
L 333.257143 227.358128 
L 341.485714 226.657635 
L 349.714286 220.145209 
L 357.942857 214.138235 
L 366.171429 212.004174 
L 374.4 214.131432 
L 382.628571 220.446254 
L 390.857143 227.529881 
L 399.085714 230.041147 
L 407.314286 232.540539 
L 415.542857 235.626046 
L 423.771429 237.443356 
L 432 242.021667 
L 440.228571 243.067959 
L 448.457143 245.538984 
L 456.685714 247.25613 
L 464.914286 242.231512 
L 473.142857 239.781727 
L 481.371429 237.069737 
L 489.6 235.974489 
" clip-path="url(#p4ca60a37d3)" style="fill: none; stroke: #b200b2; stroke-opacity: 0.2; stroke-width: 1.5; stroke-linecap: square"/>
   </g>
   <g id="line2d_19">
    <path d="M 86.4 159.13722 
L 94.628571 160.848038 
L 102.857143 169.869797 
L 111.085714 177.377602 
L 119.314286 174.612606 
L 127.542857 180.036462 
L 135.771429 190.406571 
L 144 182.025927 
L 152.228571 178.91317 
L 160.457143 174.915783 
L 168.685714 166.507501 
L 176.914286 158.937435 
L 185.142857 152.310351 
L 193.371429 151.135373 
L 201.6 155.075683 
L 209.828571 144.710997 
L 218.057143 132.729537 
L 226.285714 125.121971 
L 234.514286 135.086289 
L 242.742857 150.967436 
L 250.971429 171.114347 
L 259.2 179.600454 
L 267.428571 179.126952 
L 275.657143 171.571954 
L 283.885714 167.127418 
L 292.114286 166.032453 
L 300.342857 157.520565 
L 308.571429 141.814657 
L 316.8 132.081635 
L 325.028571 125.118694 
L 333.257143 118.281307 
L 341.485714 115.417714 
L 349.714286 128.138715 
L 357.942857 144.191394 
L 366.171429 160.451578 
L 374.4 173.673008 
L 382.628571 166.214834 
L 390.857143 151.80642 
L 399.085714 138.187329 
L 407.314286 145.356167 
L 415.542857 157.747706 
L 423.771429 167.414424 
L 432 160.309812 
L 440.228571 165.776056 
L 448.457143 168.616873 
L 456.685714 152.448593 
L 464.914286 138.066472 
L 473.142857 119.819073 
L 481.371429 98.93478 
L 489.6 85.78234 
" clip-path="url(#p4ca60a37d3)" style="fill: none; stroke: #b200b2; stroke-opacity: 0.2; stroke-width: 1.5; stroke-linecap: square"/>
   </g>
   <g id="line2d_20">
    <path d="M 86.4 13.572761 
L 94.628571 13.572761 
L 102.857143 12.695299 
L 111.085714 11.551826 
L 119.314286 9.158022 
L 127.542857 10.685229 
L 135.771429 8.986835 
L 144 10.106237 
L 152.228571 11.413563 
L 160.457143 19.454827 
L 168.685714 27.526137 
L 176.914286 32.020048 
L 185.142857 29.052284 
L 193.371429 27.982979 
L 201.6 28.346618 
L 209.828571 25.272625 
L 218.057143 20.844138 
L 226.285714 18.714515 
L 234.514286 21.68781 
L 242.742857 19.477482 
L 250.971429 13.58312 
L 259.2 8.044432 
L 267.428571 2.72515 
L 271.817758 -1 
M 471.214784 -1 
L 473.142857 0.270913 
L 481.371429 4.086063 
L 489.6 8.502845 
" clip-path="url(#p4ca60a37d3)" style="fill: none; stroke: #b200b2; stroke-opacity: 0.2; stroke-width: 1.5; stroke-linecap: square"/>
   </g>
   <g id="line2d_21">
    <path d="M 86.4 166.372771 
L 94.628571 166.146781 
L 102.857143 174.232187 
L 111.085714 178.532768 
L 119.314286 172.178677 
L 127.542857 184.222641 
L 135.771429 198.78257 
L 144 189.277431 
L 152.228571 173.355958 
L 160.457143 168.760301 
L 168.685714 172.143328 
L 176.914286 175.690882 
L 185.142857 199.255124 
L 193.371429 231.089007 
L 201.6 240.389459 
L 209.828571 248.47224 
L 218.057143 258.950597 
L 226.285714 256.362542 
L 234.514286 248.776333 
L 242.742857 237.761949 
L 250.971429 235.818515 
L 259.2 247.001762 
L 267.428571 253.806022 
L 275.657143 255.081905 
L 283.885714 251.924094 
L 292.114286 253.701844 
L 300.342857 249.217602 
L 308.571429 250.089945 
L 316.8 257.744297 
L 325.028571 256.196116 
L 333.257143 248.824504 
L 341.485714 237.139651 
L 349.714286 228.455584 
L 357.942857 229.110556 
L 366.171429 239.389255 
L 374.4 254.624 
L 382.628571 267.188464 
L 390.857143 271.949544 
L 399.085714 269.681297 
L 407.314286 265.952504 
L 415.542857 268.693339 
L 423.771429 276.477926 
L 432 286.91567 
L 440.228571 293.676823 
L 448.457143 299.144323 
L 456.685714 293.90644 
L 464.914286 294.418989 
L 473.142857 304.475658 
L 481.371429 320.768085 
L 489.6 327.94638 
" clip-path="url(#p4ca60a37d3)" style="fill: none; stroke: #b200b2; stroke-opacity: 0.2; stroke-width: 1.5; stroke-linecap: square"/>
   </g>
   <g id="line2d_22">
    <path d="M 180.546983 -1 
L 185.142857 19.938715 
L 193.371429 35.283182 
L 201.6 33.455839 
L 209.828571 31.503853 
L 218.057143 14.913046 
L 226.285714 16.11404 
L 234.514286 10.209607 
L 242.742857 1.377408 
L 250.971429 5.059499 
L 255.038793 -1 
M 312.287994 -1 
L 316.8 3.913813 
L 325.028571 0.555443 
L 325.887464 -1 
M 398.84197 -1 
L 399.085714 -0.905848 
L 407.314286 9.982628 
L 415.542857 20.297464 
L 423.771429 25.371108 
L 432 36.887111 
L 440.228571 41.330184 
L 448.457143 40.372079 
L 456.685714 29.777272 
L 464.914286 32.265904 
L 473.142857 34.124851 
L 481.371429 27.596346 
L 489.6 31.639658 
" clip-path="url(#p4ca60a37d3)" style="fill: none; stroke: #b200b2; stroke-opacity: 0.2; stroke-width: 1.5; stroke-linecap: square"/>
   </g>
   <g id="line2d_23">
    <path d="M 86.4 58.554422 
L 94.628571 59.24945 
L 102.857143 62.945069 
L 111.085714 69.645655 
L 119.314286 75.056494 
L 127.542857 76.093349 
L 135.771429 76.544859 
L 144 75.003789 
L 152.228571 72.3378 
L 160.457143 73.104694 
L 168.685714 75.464941 
L 176.914286 73.420749 
L 185.142857 71.258499 
L 193.371429 66.439904 
L 201.6 63.006809 
L 209.828571 55.803107 
L 218.057143 48.255446 
L 226.285714 40.431355 
L 234.514286 26.122026 
L 242.742857 18.938326 
L 250.971429 17.890435 
L 259.2 21.799648 
L 267.428571 24.701688 
L 275.657143 34.448571 
L 283.885714 41.272828 
L 292.114286 41.320032 
L 300.342857 39.690593 
L 308.571429 36.41949 
L 316.8 33.630429 
L 325.028571 29.347299 
L 333.257143 26.223618 
L 341.485714 27.424725 
L 349.714286 31.534712 
L 357.942857 39.850573 
L 366.171429 48.514811 
L 374.4 55.284174 
L 382.628571 62.564013 
L 390.857143 67.671737 
L 399.085714 70.780674 
L 407.314286 66.423132 
L 415.542857 61.687831 
L 423.771429 62.76255 
L 432 64.500316 
L 440.228571 61.905537 
L 448.457143 62.765771 
L 456.685714 71.885232 
L 464.914286 76.935814 
L 473.142857 74.827258 
L 481.371429 73.150253 
L 489.6 71.637676 
" clip-path="url(#p4ca60a37d3)" style="fill: none; stroke: #b200b2; stroke-opacity: 0.2; stroke-width: 1.5; stroke-linecap: square"/>
   </g>
   <g id="line2d_24">
    <path d="M 86.4 136.32749 
L 94.628571 136.095506 
L 102.857143 134.491234 
L 111.085714 133.184794 
L 119.314286 138.606722 
L 127.542857 139.992857 
L 135.771429 137.745388 
L 144 140.769306 
L 152.228571 139.147252 
L 160.457143 131.48094 
L 168.685714 131.957571 
L 176.914286 127.170677 
L 185.142857 119.549662 
L 193.371429 114.978609 
L 201.6 116.612607 
L 209.828571 129.255026 
L 218.057143 133.392546 
L 226.285714 133.360868 
L 234.514286 134.492051 
L 242.742857 141.101633 
L 250.971429 147.900536 
L 259.2 148.174491 
L 267.428571 145.907519 
L 275.657143 142.793338 
L 283.885714 134.842334 
L 292.114286 129.352617 
L 300.342857 123.57174 
L 308.571429 119.048826 
L 316.8 121.434647 
L 325.028571 125.61043 
L 333.257143 135.890652 
L 341.485714 142.149946 
L 349.714286 146.692381 
L 357.942857 144.881842 
L 366.171429 146.053992 
L 374.4 149.711813 
L 382.628571 155.887533 
L 390.857143 160.497254 
L 399.085714 165.381305 
L 407.314286 166.509993 
L 415.542857 168.870476 
L 423.771429 167.764311 
L 432 171.12418 
L 440.228571 175.965241 
L 448.457143 179.627187 
L 456.685714 187.290167 
L 464.914286 189.462072 
L 473.142857 195.80374 
L 481.371429 205.381173 
L 489.6 212.38182 
" clip-path="url(#p4ca60a37d3)" style="fill: none; stroke: #b200b2; stroke-opacity: 0.2; stroke-width: 1.5; stroke-linecap: square"/>
   </g>
   <g id="line2d_25">
    <path d="M 86.4 82.506926 
L 94.628571 85.297576 
L 102.857143 89.198831 
L 111.085714 92.919691 
L 119.314286 100.436989 
L 127.542857 100.936157 
L 135.771429 103.653122 
L 144 100.38229 
L 152.228571 97.481544 
L 160.457143 98.954532 
L 168.685714 99.593231 
L 176.914286 97.475915 
L 185.142857 97.878112 
L 193.371429 100.841554 
L 201.6 106.792392 
L 209.828571 106.155117 
L 218.057143 106.352914 
L 226.285714 108.304716 
L 234.514286 111.062347 
L 242.742857 112.276205 
L 250.971429 110.61518 
L 259.2 109.107066 
L 267.428571 104.855745 
L 275.657143 96.049968 
L 283.885714 90.171435 
L 292.114286 85.993927 
L 300.342857 82.541836 
L 308.571429 80.686962 
L 316.8 79.860281 
L 325.028571 80.554029 
L 333.257143 83.591777 
L 341.485714 85.563368 
L 349.714286 90.510802 
L 357.942857 93.593784 
L 366.171429 92.794963 
L 374.4 91.130906 
L 382.628571 89.922575 
L 390.857143 94.470889 
L 399.085714 98.371531 
L 407.314286 102.336535 
L 415.542857 103.261419 
L 423.771429 106.501032 
L 432 105.730348 
L 440.228571 106.978471 
L 448.457143 110.774166 
L 456.685714 117.453999 
L 464.914286 121.846041 
L 473.142857 117.336779 
L 481.371429 110.343698 
L 489.6 106.51866 
" clip-path="url(#p4ca60a37d3)" style="fill: none; stroke: #b200b2; stroke-opacity: 0.2; stroke-width: 1.5; stroke-linecap: square"/>
   </g>
   <g id="line2d_26">
    <path d="M 86.4 159.61531 
L 94.628571 153.631819 
L 102.857143 145.211497 
L 111.085714 122.31143 
L 119.314286 110.863467 
L 127.542857 93.578808 
L 135.771429 81.344568 
L 144 74.075267 
L 152.228571 68.662013 
L 160.457143 69.268618 
L 168.685714 62.917557 
L 176.914286 71.070902 
L 185.142857 84.66215 
L 193.371429 90.733165 
L 201.6 104.369218 
L 209.828571 114.858642 
L 218.057143 123.241702 
L 226.285714 128.407126 
L 234.514286 136.681454 
L 242.742857 147.903871 
L 250.971429 142.044274 
L 259.2 139.910322 
L 267.428571 138.303214 
L 275.657143 141.51802 
L 283.885714 150.452215 
L 292.114286 157.030323 
L 300.342857 157.318288 
L 308.571429 160.070654 
L 316.8 166.719768 
L 325.028571 171.902836 
L 333.257143 164.235948 
L 341.485714 149.901192 
L 349.714286 141.696553 
L 357.942857 137.814161 
L 366.171429 133.821223 
L 374.4 130.783202 
L 382.628571 139.34983 
L 390.857143 138.204467 
L 399.085714 139.738805 
L 407.314286 143.180133 
L 415.542857 147.136959 
L 423.771429 143.493972 
L 432 143.271851 
L 440.228571 139.964595 
L 448.457143 122.656203 
L 456.685714 108.621211 
L 464.914286 99.318399 
L 473.142857 92.516866 
L 481.371429 99.980246 
L 489.6 114.08674 
" clip-path="url(#p4ca60a37d3)" style="fill: none; stroke: #b200b2; stroke-opacity: 0.2; stroke-width: 1.5; stroke-linecap: square"/>
   </g>
   <g id="line2d_27">
    <path d="M 86.4 221.228087 
L 94.628571 213.557788 
L 102.857143 197.683394 
L 111.085714 184.035961 
L 119.314286 172.291847 
L 127.542857 165.223268 
L 135.771429 175.68516 
L 144 183.468495 
L 152.228571 194.3597 
L 160.457143 193.739326 
L 168.685714 196.081877 
L 176.914286 198.666777 
L 185.142857 200.850654 
L 193.371429 209.530288 
L 201.6 216.373028 
L 209.828571 219.898588 
L 218.057143 227.722633 
L 226.285714 231.12459 
L 234.514286 232.327432 
L 242.742857 232.948178 
L 250.971429 231.713004 
L 259.2 234.441126 
L 267.428571 233.135047 
L 275.657143 228.898237 
L 283.885714 225.926855 
L 292.114286 227.347325 
L 300.342857 230.362573 
L 308.571429 236.264728 
L 316.8 240.623694 
L 325.028571 241.257363 
L 333.257143 240.461067 
L 341.485714 237.865472 
L 349.714286 236.361655 
L 357.942857 231.312137 
L 366.171429 230.035589 
L 374.4 229.547495 
L 382.628571 227.956628 
L 390.857143 225.401005 
L 399.085714 224.933097 
L 407.314286 224.717806 
L 415.542857 229.454134 
L 423.771429 231.394525 
L 432 236.876909 
L 440.228571 240.272747 
L 448.457143 244.113597 
L 456.685714 243.566743 
L 464.914286 242.619056 
L 473.142857 234.783328 
L 481.371429 238.943513 
L 489.6 244.200429 
" clip-path="url(#p4ca60a37d3)" style="fill: none; stroke: #b200b2; stroke-opacity: 0.2; stroke-width: 1.5; stroke-linecap: square"/>
   </g>
   <g id="line2d_28">
    <path d="M 167.04 241.92 
L 167.04 40.32 
" clip-path="url(#p4ca60a37d3)" style="fill: none; stroke-dasharray: 5.55,2.4; stroke-dashoffset: 0; stroke: #000000; stroke-width: 1.5"/>
   </g>
   <g id="line2d_29">
    <path d="M 86.4 141.12 
L 489.6 141.12 
" clip-path="url(#p4ca60a37d3)" style="fill: none; stroke-dasharray: 5.55,2.4; stroke-dashoffset: 0; stroke: #000000; stroke-width: 1.5"/>
   </g>
   <g id="patch_3">
    <path d="M 82.4 241.92 
L 82.4 40.32 
" style="fill: none; stroke: #000000; stroke-width: 0.8; stroke-linejoin: miter; stroke-linecap: square"/>
   </g>
   <g id="patch_4">
    <path d="M 86.4 245.92 
L 489.6 245.92 
" style="fill: none; stroke: #000000; stroke-width: 0.8; stroke-linejoin: miter; stroke-linecap: square"/>
   </g>
   <g id="text_11">
    <!-- all depths -->
    <g transform="translate(268.328125 34.32) scale(0.08 -0.08)">
     <defs>
      <path id="DejaVuSans-6c" d="M 603 4863 
L 1178 4863 
L 1178 0 
L 603 0 
L 603 4863 
z
" transform="scale(0.015625)"/>
      <path id="DejaVuSans-64" d="M 2906 2969 
L 2906 4863 
L 3481 4863 
L 3481 0 
L 2906 0 
L 2906 525 
Q 2725 213 2448 61 
Q 2172 -91 1784 -91 
Q 1150 -91 751 415 
Q 353 922 353 1747 
Q 353 2572 751 3078 
Q 1150 3584 1784 3584 
Q 2172 3584 2448 3432 
Q 2725 3281 2906 2969 
z
M 947 1747 
Q 947 1113 1208 752 
Q 1469 391 1925 391 
Q 2381 391 2643 752 
Q 2906 1113 2906 1747 
Q 2906 2381 2643 2742 
Q 2381 3103 1925 3103 
Q 1469 3103 1208 2742 
Q 947 2381 947 1747 
z
" transform="scale(0.015625)"/>
      <path id="DejaVuSans-70" d="M 1159 525 
L 1159 -1331 
L 581 -1331 
L 581 3500 
L 1159 3500 
L 1159 2969 
Q 1341 3281 1617 3432 
Q 1894 3584 2278 3584 
Q 2916 3584 3314 3078 
Q 3713 2572 3713 1747 
Q 3713 922 3314 415 
Q 2916 -91 2278 -91 
Q 1894 -91 1617 61 
Q 1341 213 1159 525 
z
M 3116 1747 
Q 3116 2381 2855 2742 
Q 2594 3103 2138 3103 
Q 1681 3103 1420 2742 
Q 1159 2381 1159 1747 
Q 1159 1113 1420 752 
Q 1681 391 2138 391 
Q 2594 391 2855 752 
Q 3116 1113 3116 1747 
z
" transform="scale(0.015625)"/>
      <path id="DejaVuSans-74" d="M 1172 4494 
L 1172 3500 
L 2356 3500 
L 2356 3053 
L 1172 3053 
L 1172 1153 
Q 1172 725 1289 603 
Q 1406 481 1766 481 
L 2356 481 
L 2356 0 
L 1766 0 
Q 1100 0 847 248 
Q 594 497 594 1153 
L 594 3053 
L 172 3053 
L 172 3500 
L 594 3500 
L 594 4494 
L 1172 4494 
z
" transform="scale(0.015625)"/>
      <path id="DejaVuSans-73" d="M 2834 3397 
L 2834 2853 
Q 2591 2978 2328 3040 
Q 2066 3103 1784 3103 
Q 1356 3103 1142 2972 
Q 928 2841 928 2578 
Q 928 2378 1081 2264 
Q 1234 2150 1697 2047 
L 1894 2003 
Q 2506 1872 2764 1633 
Q 3022 1394 3022 966 
Q 3022 478 2636 193 
Q 2250 -91 1575 -91 
Q 1294 -91 989 -36 
Q 684 19 347 128 
L 347 722 
Q 666 556 975 473 
Q 1284 391 1588 391 
Q 1994 391 2212 530 
Q 2431 669 2431 922 
Q 2431 1156 2273 1281 
Q 2116 1406 1581 1522 
L 1381 1569 
Q 847 1681 609 1914 
Q 372 2147 372 2553 
Q 372 3047 722 3315 
Q 1072 3584 1716 3584 
Q 2034 3584 2315 3537 
Q 2597 3491 2834 3397 
z
" transform="scale(0.015625)"/>
     </defs>
     <use xlink:href="#DejaVuSans-61"/>
     <use xlink:href="#DejaVuSans-6c" x="61.279297"/>
     <use xlink:href="#DejaVuSans-6c" x="89.0625"/>
     <use xlink:href="#DejaVuSans-20" x="116.845703"/>
     <use xlink:href="#DejaVuSans-64" x="148.632812"/>
     <use xlink:href="#DejaVuSans-65" x="212.109375"/>
     <use xlink:href="#DejaVuSans-70" x="273.632812"/>
     <use xlink:href="#DejaVuSans-74" x="337.109375"/>
     <use xlink:href="#DejaVuSans-68" x="376.318359"/>
     <use xlink:href="#DejaVuSans-73" x="439.697266"/>
    </g>
   </g>
   <g id="legend_1">
    <g id="patch_5">
     <path d="M 217.160156 63.27625 
L 358.839844 63.27625 
Q 360.839844 63.27625 360.839844 61.27625 
L 360.839844 47.32 
Q 360.839844 45.32 358.839844 45.32 
L 217.160156 45.32 
Q 215.160156 45.32 215.160156 47.32 
L 215.160156 61.27625 
Q 215.160156 63.27625 217.160156 63.27625 
z
" style="fill: #ffffff; opacity: 0.8; stroke: #cccccc; stroke-linejoin: miter"/>
    </g>
    <g id="line2d_30">
     <path d="M 219.160156 53.418437 
L 229.160156 53.418437 
L 239.160156 53.418437 
" style="fill: none; stroke: #b200b2; stroke-width: 1.5; stroke-linecap: square"/>
    </g>
    <g id="text_12">
     <!-- fgm_gPPI_middle_V23 -->
     <g transform="translate(247.160156 56.918437) scale(0.1 -0.1)">
      <defs>
       <path id="DejaVuSans-66" d="M 2375 4863 
L 2375 4384 
L 1825 4384 
Q 1516 4384 1395 4259 
Q 1275 4134 1275 3809 
L 1275 3500 
L 2222 3500 
L 2222 3053 
L 1275 3053 
L 1275 0 
L 697 0 
L 697 3053 
L 147 3053 
L 147 3500 
L 697 3500 
L 697 3744 
Q 697 4328 969 4595 
Q 1241 4863 1831 4863 
L 2375 4863 
z
" transform="scale(0.015625)"/>
       <path id="DejaVuSans-6d" d="M 3328 2828 
Q 3544 3216 3844 3400 
Q 4144 3584 4550 3584 
Q 5097 3584 5394 3201 
Q 5691 2819 5691 2113 
L 5691 0 
L 5113 0 
L 5113 2094 
Q 5113 2597 4934 2840 
Q 4756 3084 4391 3084 
Q 3944 3084 3684 2787 
Q 3425 2491 3425 1978 
L 3425 0 
L 2847 0 
L 2847 2094 
Q 2847 2600 2669 2842 
Q 2491 3084 2119 3084 
Q 1678 3084 1418 2786 
Q 1159 2488 1159 1978 
L 1159 0 
L 581 0 
L 581 3500 
L 1159 3500 
L 1159 2956 
Q 1356 3278 1631 3431 
Q 1906 3584 2284 3584 
Q 2666 3584 2933 3390 
Q 3200 3197 3328 2828 
z
" transform="scale(0.015625)"/>
       <path id="DejaVuSans-5f" d="M 3263 -1063 
L 3263 -1509 
L -63 -1509 
L -63 -1063 
L 3263 -1063 
z
" transform="scale(0.015625)"/>
       <path id="DejaVuSans-50" d="M 1259 4147 
L 1259 2394 
L 2053 2394 
Q 2494 2394 2734 2622 
Q 2975 2850 2975 3272 
Q 2975 3691 2734 3919 
Q 2494 4147 2053 4147 
L 1259 4147 
z
M 628 4666 
L 2053 4666 
Q 2838 4666 3239 4311 
Q 3641 3956 3641 3272 
Q 3641 2581 3239 2228 
Q 2838 1875 2053 1875 
L 1259 1875 
L 1259 0 
L 628 0 
L 628 4666 
z
" transform="scale(0.015625)"/>
       <path id="DejaVuSans-49" d="M 628 4666 
L 1259 4666 
L 1259 0 
L 628 0 
L 628 4666 
z
" transform="scale(0.015625)"/>
       <path id="DejaVuSans-69" d="M 603 3500 
L 1178 3500 
L 1178 0 
L 603 0 
L 603 3500 
z
M 603 4863 
L 1178 4863 
L 1178 4134 
L 603 4134 
L 603 4863 
z
" transform="scale(0.015625)"/>
       <path id="DejaVuSans-56" d="M 1831 0 
L 50 4666 
L 709 4666 
L 2188 738 
L 3669 4666 
L 4325 4666 
L 2547 0 
L 1831 0 
z
" transform="scale(0.015625)"/>
       <path id="DejaVuSans-33" d="M 2597 2516 
Q 3050 2419 3304 2112 
Q 3559 1806 3559 1356 
Q 3559 666 3084 287 
Q 2609 -91 1734 -91 
Q 1441 -91 1130 -33 
Q 819 25 488 141 
L 488 750 
Q 750 597 1062 519 
Q 1375 441 1716 441 
Q 2309 441 2620 675 
Q 2931 909 2931 1356 
Q 2931 1769 2642 2001 
Q 2353 2234 1838 2234 
L 1294 2234 
L 1294 2753 
L 1863 2753 
Q 2328 2753 2575 2939 
Q 2822 3125 2822 3475 
Q 2822 3834 2567 4026 
Q 2313 4219 1838 4219 
Q 1578 4219 1281 4162 
Q 984 4106 628 3988 
L 628 4550 
Q 988 4650 1302 4700 
Q 1616 4750 1894 4750 
Q 2613 4750 3031 4423 
Q 3450 4097 3450 3541 
Q 3450 3153 3228 2886 
Q 3006 2619 2597 2516 
z
" transform="scale(0.015625)"/>
      </defs>
      <use xlink:href="#DejaVuSans-66"/>
      <use xlink:href="#DejaVuSans-67" x="35.205078"/>
      <use xlink:href="#DejaVuSans-6d" x="98.681641"/>
      <use xlink:href="#DejaVuSans-5f" x="196.09375"/>
      <use xlink:href="#DejaVuSans-67" x="246.09375"/>
      <use xlink:href="#DejaVuSans-50" x="309.570312"/>
      <use xlink:href="#DejaVuSans-50" x="369.873047"/>
      <use xlink:href="#DejaVuSans-49" x="430.175781"/>
      <use xlink:href="#DejaVuSans-5f" x="459.667969"/>
      <use xlink:href="#DejaVuSans-6d" x="509.667969"/>
      <use xlink:href="#DejaVuSans-69" x="607.080078"/>
      <use xlink:href="#DejaVuSans-64" x="634.863281"/>
      <use xlink:href="#DejaVuSans-64" x="698.339844"/>
      <use xlink:href="#DejaVuSans-6c" x="761.816406"/>
      <use xlink:href="#DejaVuSans-65" x="789.599609"/>
      <use xlink:href="#DejaVuSans-5f" x="851.123047"/>
      <use xlink:href="#DejaVuSans-56" x="901.123047"/>
      <use xlink:href="#DejaVuSans-32" x="969.53125"/>
      <use xlink:href="#DejaVuSans-33" x="1033.154297"/>
     </g>
    </g>
   </g>
  </g>
  <g id="axes_2">
   <g id="patch_6">
    <path d="M 86.4 443.52 
L 489.6 443.52 
L 489.6 292.32 
L 86.4 292.32 
z
" style="fill: #ffffff"/>
   </g>
   <g id="patch_7">
    <path d="M 90.432 367.92 
L 163.008 367.92 
L 163.008 333.86507 
L 90.432 333.86507 
z
" clip-path="url(#p836fc71222)" style="fill: #b200b2; opacity: 0.6"/>
   </g>
   <g id="patch_8">
    <path d="M 171.072 367.92 
L 243.648 367.92 
L 243.648 325.818599 
L 171.072 325.818599 
z
" clip-path="url(#p836fc71222)" style="fill: #b200b2; opacity: 0.6"/>
   </g>
   <g id="patch_9">
    <path d="M 251.712 367.92 
L 324.288 367.92 
L 324.288 335.532588 
L 251.712 335.532588 
z
" clip-path="url(#p836fc71222)" style="fill: #b200b2; opacity: 0.6"/>
   </g>
   <g id="patch_10">
    <path d="M 332.352 367.92 
L 404.928 367.92 
L 404.928 337.775675 
L 332.352 337.775675 
z
" clip-path="url(#p836fc71222)" style="fill: #b200b2; opacity: 0.6"/>
   </g>
   <g id="patch_11">
    <path d="M 412.992 367.92 
L 485.568 367.92 
L 485.568 358.757484 
L 412.992 358.757484 
z
" clip-path="url(#p836fc71222)" style="fill: #b200b2; opacity: 0.6"/>
   </g>
   <g id="matplotlib.axis_3">
    <g id="xtick_7">
     <g id="line2d_31">
      <g>
       <use xlink:href="#mb1256c6697" x="86.4" y="447.52" style="stroke: #000000; stroke-width: 0.8"/>
      </g>
     </g>
     <g id="text_13">
      <!-- 0 -->
      <g transform="translate(83.21875 462.118438) scale(0.1 -0.1)">
       <use xlink:href="#DejaVuSans-30"/>
      </g>
     </g>
    </g>
    <g id="xtick_8">
     <g id="line2d_32">
      <g>
       <use xlink:href="#mb1256c6697" x="167.04" y="447.52" style="stroke: #000000; stroke-width: 0.8"/>
      </g>
     </g>
     <g id="text_14">
      <!-- 1 -->
      <g transform="translate(163.85875 462.118438) scale(0.1 -0.1)">
       <use xlink:href="#DejaVuSans-31"/>
      </g>
     </g>
    </g>
    <g id="xtick_9">
     <g id="line2d_33">
      <g>
       <use xlink:href="#mb1256c6697" x="247.68" y="447.52" style="stroke: #000000; stroke-width: 0.8"/>
      </g>
     </g>
     <g id="text_15">
      <!-- 2 -->
      <g transform="translate(244.49875 462.118438) scale(0.1 -0.1)">
       <use xlink:href="#DejaVuSans-32"/>
      </g>
     </g>
    </g>
    <g id="xtick_10">
     <g id="line2d_34">
      <g>
       <use xlink:href="#mb1256c6697" x="328.32" y="447.52" style="stroke: #000000; stroke-width: 0.8"/>
      </g>
     </g>
     <g id="text_16">
      <!-- 3 -->
      <g transform="translate(325.13875 462.118438) scale(0.1 -0.1)">
       <use xlink:href="#DejaVuSans-33"/>
      </g>
     </g>
    </g>
    <g id="xtick_11">
     <g id="line2d_35">
      <g>
       <use xlink:href="#mb1256c6697" x="408.96" y="447.52" style="stroke: #000000; stroke-width: 0.8"/>
      </g>
     </g>
     <g id="text_17">
      <!-- 4 -->
      <g transform="translate(405.77875 462.118438) scale(0.1 -0.1)">
       <defs>
        <path id="DejaVuSans-34" d="M 2419 4116 
L 825 1625 
L 2419 1625 
L 2419 4116 
z
M 2253 4666 
L 3047 4666 
L 3047 1625 
L 3713 1625 
L 3713 1100 
L 3047 1100 
L 3047 0 
L 2419 0 
L 2419 1100 
L 313 1100 
L 313 1709 
L 2253 4666 
z
" transform="scale(0.015625)"/>
       </defs>
       <use xlink:href="#DejaVuSans-34"/>
      </g>
     </g>
    </g>
    <g id="xtick_12">
     <g id="line2d_36">
      <g>
       <use xlink:href="#mb1256c6697" x="489.6" y="447.52" style="stroke: #000000; stroke-width: 0.8"/>
      </g>
     </g>
     <g id="text_18">
      <!-- 5 -->
      <g transform="translate(486.41875 462.118438) scale(0.1 -0.1)">
       <use xlink:href="#DejaVuSans-35"/>
      </g>
     </g>
    </g>
    <g id="text_19">
     <!-- relative distance from ROI center ($\sigma$) -->
     <g transform="translate(214.48 474.276875) scale(0.08 -0.08)">
      <defs>
       <path id="DejaVuSans-72" d="M 2631 2963 
Q 2534 3019 2420 3045 
Q 2306 3072 2169 3072 
Q 1681 3072 1420 2755 
Q 1159 2438 1159 1844 
L 1159 0 
L 581 0 
L 581 3500 
L 1159 3500 
L 1159 2956 
Q 1341 3275 1631 3429 
Q 1922 3584 2338 3584 
Q 2397 3584 2469 3576 
Q 2541 3569 2628 3553 
L 2631 2963 
z
" transform="scale(0.015625)"/>
       <path id="DejaVuSans-76" d="M 191 3500 
L 800 3500 
L 1894 563 
L 2988 3500 
L 3597 3500 
L 2284 0 
L 1503 0 
L 191 3500 
z
" transform="scale(0.015625)"/>
       <path id="DejaVuSans-6f" d="M 1959 3097 
Q 1497 3097 1228 2736 
Q 959 2375 959 1747 
Q 959 1119 1226 758 
Q 1494 397 1959 397 
Q 2419 397 2687 759 
Q 2956 1122 2956 1747 
Q 2956 2369 2687 2733 
Q 2419 3097 1959 3097 
z
M 1959 3584 
Q 2709 3584 3137 3096 
Q 3566 2609 3566 1747 
Q 3566 888 3137 398 
Q 2709 -91 1959 -91 
Q 1206 -91 779 398 
Q 353 888 353 1747 
Q 353 2609 779 3096 
Q 1206 3584 1959 3584 
z
" transform="scale(0.015625)"/>
       <path id="DejaVuSans-52" d="M 2841 2188 
Q 3044 2119 3236 1894 
Q 3428 1669 3622 1275 
L 4263 0 
L 3584 0 
L 2988 1197 
Q 2756 1666 2539 1819 
Q 2322 1972 1947 1972 
L 1259 1972 
L 1259 0 
L 628 0 
L 628 4666 
L 2053 4666 
Q 2853 4666 3247 4331 
Q 3641 3997 3641 3322 
Q 3641 2881 3436 2590 
Q 3231 2300 2841 2188 
z
M 1259 4147 
L 1259 2491 
L 2053 2491 
Q 2509 2491 2742 2702 
Q 2975 2913 2975 3322 
Q 2975 3731 2742 3939 
Q 2509 4147 2053 4147 
L 1259 4147 
z
" transform="scale(0.015625)"/>
       <path id="DejaVuSans-28" d="M 1984 4856 
Q 1566 4138 1362 3434 
Q 1159 2731 1159 2009 
Q 1159 1288 1364 580 
Q 1569 -128 1984 -844 
L 1484 -844 
Q 1016 -109 783 600 
Q 550 1309 550 2009 
Q 550 2706 781 3412 
Q 1013 4119 1484 4856 
L 1984 4856 
z
" transform="scale(0.015625)"/>
       <path id="DejaVuSans-Oblique-3c3" d="M 2219 3044 
Q 1744 3044 1422 2700 
Q 1081 2341 969 1747 
Q 844 1119 1044 756 
Q 1241 397 1706 397 
Q 2166 397 2503 759 
Q 2844 1122 2966 1747 
Q 3075 2319 2881 2700 
Q 2700 3044 2219 3044 
z
M 2309 3503 
L 4219 3500 
L 4106 2925 
L 3463 2925 
Q 3706 2438 3575 1747 
Q 3406 888 2884 400 
Q 2359 -91 1609 -91 
Q 856 -91 525 400 
Q 194 888 363 1747 
Q 528 2609 1050 3097 
Q 1484 3503 2309 3503 
z
" transform="scale(0.015625)"/>
       <path id="DejaVuSans-29" d="M 513 4856 
L 1013 4856 
Q 1481 4119 1714 3412 
Q 1947 2706 1947 2009 
Q 1947 1309 1714 600 
Q 1481 -109 1013 -844 
L 513 -844 
Q 928 -128 1133 580 
Q 1338 1288 1338 2009 
Q 1338 2731 1133 3434 
Q 928 4138 513 4856 
z
" transform="scale(0.015625)"/>
      </defs>
      <use xlink:href="#DejaVuSans-72" transform="translate(0 0.015625)"/>
      <use xlink:href="#DejaVuSans-65" transform="translate(41.113281 0.015625)"/>
      <use xlink:href="#DejaVuSans-6c" transform="translate(102.636719 0.015625)"/>
      <use xlink:href="#DejaVuSans-61" transform="translate(130.419922 0.015625)"/>
      <use xlink:href="#DejaVuSans-74" transform="translate(191.699219 0.015625)"/>
      <use xlink:href="#DejaVuSans-69" transform="translate(230.908203 0.015625)"/>
      <use xlink:href="#DejaVuSans-76" transform="translate(258.691406 0.015625)"/>
      <use xlink:href="#DejaVuSans-65" transform="translate(317.871094 0.015625)"/>
      <use xlink:href="#DejaVuSans-20" transform="translate(379.394531 0.015625)"/>
      <use xlink:href="#DejaVuSans-64" transform="translate(411.181641 0.015625)"/>
      <use xlink:href="#DejaVuSans-69" transform="translate(474.658203 0.015625)"/>
      <use xlink:href="#DejaVuSans-73" transform="translate(502.441406 0.015625)"/>
      <use xlink:href="#DejaVuSans-74" transform="translate(554.541016 0.015625)"/>
      <use xlink:href="#DejaVuSans-61" transform="translate(593.75 0.015625)"/>
      <use xlink:href="#DejaVuSans-6e" transform="translate(655.029297 0.015625)"/>
      <use xlink:href="#DejaVuSans-63" transform="translate(718.408203 0.015625)"/>
      <use xlink:href="#DejaVuSans-65" transform="translate(773.388672 0.015625)"/>
      <use xlink:href="#DejaVuSans-20" transform="translate(834.912109 0.015625)"/>
      <use xlink:href="#DejaVuSans-66" transform="translate(866.699219 0.015625)"/>
      <use xlink:href="#DejaVuSans-72" transform="translate(901.904297 0.015625)"/>
      <use xlink:href="#DejaVuSans-6f" transform="translate(943.017578 0.015625)"/>
      <use xlink:href="#DejaVuSans-6d" transform="translate(1004.199219 0.015625)"/>
      <use xlink:href="#DejaVuSans-20" transform="translate(1101.611328 0.015625)"/>
      <use xlink:href="#DejaVuSans-52" transform="translate(1133.398438 0.015625)"/>
      <use xlink:href="#DejaVuSans-4f" transform="translate(1202.880859 0.015625)"/>
      <use xlink:href="#DejaVuSans-49" transform="translate(1281.591797 0.015625)"/>
      <use xlink:href="#DejaVuSans-20" transform="translate(1311.083984 0.015625)"/>
      <use xlink:href="#DejaVuSans-63" transform="translate(1342.871094 0.015625)"/>
      <use xlink:href="#DejaVuSans-65" transform="translate(1397.851562 0.015625)"/>
      <use xlink:href="#DejaVuSans-6e" transform="translate(1459.375 0.015625)"/>
      <use xlink:href="#DejaVuSans-74" transform="translate(1522.753906 0.015625)"/>
      <use xlink:href="#DejaVuSans-65" transform="translate(1561.962891 0.015625)"/>
      <use xlink:href="#DejaVuSans-72" transform="translate(1623.486328 0.015625)"/>
      <use xlink:href="#DejaVuSans-20" transform="translate(1664.599609 0.015625)"/>
      <use xlink:href="#DejaVuSans-28" transform="translate(1696.386719 0.015625)"/>
      <use xlink:href="#DejaVuSans-Oblique-3c3" transform="translate(1735.400391 0.015625)"/>
      <use xlink:href="#DejaVuSans-29" transform="translate(1798.779297 0.015625)"/>
     </g>
    </g>
   </g>
   <g id="matplotlib.axis_4">
    <g id="ytick_10">
     <g id="line2d_37">
      <g>
       <use xlink:href="#m3de83b6b16" x="82.4" y="443.52" style="stroke: #000000; stroke-width: 0.8"/>
      </g>
     </g>
     <g id="text_20">
      <!-- −1.0 -->
      <g transform="translate(51.117187 447.319219) scale(0.1 -0.1)">
       <use xlink:href="#DejaVuSans-2212"/>
       <use xlink:href="#DejaVuSans-31" x="83.789062"/>
       <use xlink:href="#DejaVuSans-2e" x="147.412109"/>
       <use xlink:href="#DejaVuSans-30" x="179.199219"/>
      </g>
     </g>
    </g>
    <g id="ytick_11">
     <g id="line2d_38">
      <g>
       <use xlink:href="#m3de83b6b16" x="82.4" y="405.72" style="stroke: #000000; stroke-width: 0.8"/>
      </g>
     </g>
     <g id="text_21">
      <!-- −0.5 -->
      <g transform="translate(51.117187 409.519219) scale(0.1 -0.1)">
       <use xlink:href="#DejaVuSans-2212"/>
       <use xlink:href="#DejaVuSans-30" x="83.789062"/>
       <use xlink:href="#DejaVuSans-2e" x="147.412109"/>
       <use xlink:href="#DejaVuSans-35" x="179.199219"/>
      </g>
     </g>
    </g>
    <g id="ytick_12">
     <g id="line2d_39">
      <g>
       <use xlink:href="#m3de83b6b16" x="82.4" y="367.92" style="stroke: #000000; stroke-width: 0.8"/>
      </g>
     </g>
     <g id="text_22">
      <!-- 0.0 -->
      <g transform="translate(59.496875 371.719219) scale(0.1 -0.1)">
       <use xlink:href="#DejaVuSans-30"/>
       <use xlink:href="#DejaVuSans-2e" x="63.623047"/>
       <use xlink:href="#DejaVuSans-30" x="95.410156"/>
      </g>
     </g>
    </g>
    <g id="ytick_13">
     <g id="line2d_40">
      <g>
       <use xlink:href="#m3de83b6b16" x="82.4" y="330.12" style="stroke: #000000; stroke-width: 0.8"/>
      </g>
     </g>
     <g id="text_23">
      <!-- 0.5 -->
      <g transform="translate(59.496875 333.919219) scale(0.1 -0.1)">
       <use xlink:href="#DejaVuSans-30"/>
       <use xlink:href="#DejaVuSans-2e" x="63.623047"/>
       <use xlink:href="#DejaVuSans-35" x="95.410156"/>
      </g>
     </g>
    </g>
    <g id="ytick_14">
     <g id="line2d_41">
      <g>
       <use xlink:href="#m3de83b6b16" x="82.4" y="292.32" style="stroke: #000000; stroke-width: 0.8"/>
      </g>
     </g>
     <g id="text_24">
      <!-- 1.0 -->
      <g transform="translate(59.496875 296.119219) scale(0.1 -0.1)">
       <use xlink:href="#DejaVuSans-31"/>
       <use xlink:href="#DejaVuSans-2e" x="63.623047"/>
       <use xlink:href="#DejaVuSans-30" x="95.410156"/>
      </g>
     </g>
    </g>
    <g id="text_25">
     <!-- Binned Avg -->
     <g transform="translate(45.453437 390.525625) rotate(-90) scale(0.08 -0.08)">
      <defs>
       <path id="DejaVuSans-41" d="M 2188 4044 
L 1331 1722 
L 3047 1722 
L 2188 4044 
z
M 1831 4666 
L 2547 4666 
L 4325 0 
L 3669 0 
L 3244 1197 
L 1141 1197 
L 716 0 
L 50 0 
L 1831 4666 
z
" transform="scale(0.015625)"/>
      </defs>
      <use xlink:href="#DejaVuSans-42"/>
      <use xlink:href="#DejaVuSans-69" x="68.603516"/>
      <use xlink:href="#DejaVuSans-6e" x="96.386719"/>
      <use xlink:href="#DejaVuSans-6e" x="159.765625"/>
      <use xlink:href="#DejaVuSans-65" x="223.144531"/>
      <use xlink:href="#DejaVuSans-64" x="284.667969"/>
      <use xlink:href="#DejaVuSans-20" x="348.144531"/>
      <use xlink:href="#DejaVuSans-41" x="379.931641"/>
      <use xlink:href="#DejaVuSans-76" x="442.464844"/>
      <use xlink:href="#DejaVuSans-67" x="501.644531"/>
     </g>
    </g>
   </g>
   <g id="LineCollection_1">
    <path d="M 126.72 359.11933 
L 126.72 308.610809 
" clip-path="url(#p836fc71222)" style="fill: none; stroke: #000000; stroke-width: 1.5"/>
    <path d="M 207.36 363.795101 
L 207.36 287.842096 
" clip-path="url(#p836fc71222)" style="fill: none; stroke: #000000; stroke-width: 1.5"/>
    <path d="M 288 374.762235 
L 288 296.30294 
" clip-path="url(#p836fc71222)" style="fill: none; stroke: #000000; stroke-width: 1.5"/>
    <path d="M 368.64 378.298928 
L 368.64 297.252422 
" clip-path="url(#p836fc71222)" style="fill: none; stroke: #000000; stroke-width: 1.5"/>
    <path d="M 449.28 400.158203 
L 449.28 317.356766 
" clip-path="url(#p836fc71222)" style="fill: none; stroke: #000000; stroke-width: 1.5"/>
   </g>
   <g id="line2d_42">
    <defs>
     <path id="maf78ee5c1d" d="M 5 0 
L -5 -0 
" style="stroke: #000000"/>
    </defs>
    <g clip-path="url(#p836fc71222)">
     <use xlink:href="#maf78ee5c1d" x="126.72" y="359.11933" style="stroke: #000000"/>
     <use xlink:href="#maf78ee5c1d" x="207.36" y="363.795101" style="stroke: #000000"/>
     <use xlink:href="#maf78ee5c1d" x="288" y="374.762235" style="stroke: #000000"/>
     <use xlink:href="#maf78ee5c1d" x="368.64" y="378.298928" style="stroke: #000000"/>
     <use xlink:href="#maf78ee5c1d" x="449.28" y="400.158203" style="stroke: #000000"/>
    </g>
   </g>
   <g id="line2d_43">
    <g clip-path="url(#p836fc71222)">
     <use xlink:href="#maf78ee5c1d" x="126.72" y="308.610809" style="stroke: #000000"/>
     <use xlink:href="#maf78ee5c1d" x="207.36" y="287.842096" style="stroke: #000000"/>
     <use xlink:href="#maf78ee5c1d" x="288" y="296.30294" style="stroke: #000000"/>
     <use xlink:href="#maf78ee5c1d" x="368.64" y="297.252422" style="stroke: #000000"/>
     <use xlink:href="#maf78ee5c1d" x="449.28" y="317.356766" style="stroke: #000000"/>
    </g>
   </g>
   <g id="line2d_44">
    <path d="M 86.4 367.92 
L 489.6 367.92 
" clip-path="url(#p836fc71222)" style="fill: none; stroke-dasharray: 5.55,2.4; stroke-dashoffset: 0; stroke: #000000; stroke-width: 1.5"/>
   </g>
   <g id="patch_12">
    <path d="M 82.4 443.52 
L 82.4 292.32 
" style="fill: none; stroke: #000000; stroke-width: 0.8; stroke-linejoin: miter; stroke-linecap: square"/>
   </g>
   <g id="patch_13">
    <path d="M 86.4 447.52 
L 489.6 447.52 
" style="fill: none; stroke: #000000; stroke-width: 0.8; stroke-linejoin: miter; stroke-linecap: square"/>
   </g>
  </g>
 </g>
 <defs>
  <clipPath id="p4ca60a37d3">
   <rect x="86.4" y="40.32" width="403.2" height="201.6"/>
  </clipPath>
  <clipPath id="p836fc71222">
   <rect x="86.4" y="292.32" width="403.2" height="151.2"/>
  </clipPath>
 </defs>
</svg>
