<?xml version="1.0" encoding="utf-8" standalone="no"?>
<!DOCTYPE svg PUBLIC "-//W3C//DTD SVG 1.1//EN"
  "http://www.w3.org/Graphics/SVG/1.1/DTD/svg11.dtd">
<svg xmlns:xlink="http://www.w3.org/1999/xlink" width="360pt" height="432pt" viewBox="0 0 360 432" xmlns="http://www.w3.org/2000/svg" version="1.1">
 <metadata>
  <rdf:RDF xmlns:dc="http://purl.org/dc/elements/1.1/" xmlns:cc="http://creativecommons.org/ns#" xmlns:rdf="http://www.w3.org/1999/02/22-rdf-syntax-ns#">
   <cc:Work>
    <dc:type rdf:resource="http://purl.org/dc/dcmitype/StillImage"/>
    <dc:date>2025-10-31T15:45:49.880303</dc:date>
    <dc:format>image/svg+xml</dc:format>
    <dc:creator>
     <cc:Agent>
      <dc:title>Matplotlib v3.8.0, https://matplotlib.org/</dc:title>
     </cc:Agent>
    </dc:creator>
   </cc:Work>
  </rdf:RDF>
 </metadata>
 <defs>
  <style type="text/css">*{stroke-linejoin: round; stroke-linecap: butt}</style>
 </defs>
 <g id="figure_1">
  <g id="patch_1">
   <path d="M 0 432 
L 360 432 
L 360 0 
L 0 0 
z
" style="fill: #ffffff"/>
  </g>
  <g id="axes_1">
   <g id="patch_2">
    <path d="M 54 388.8 
L 306 388.8 
L 306 302.4 
L 54 302.4 
z
" style="fill: #ffffff"/>
   </g>
   <g id="PolyCollection_1">
    <defs>
     <path id="m5ce39dce36" d="M 65.454545 -89.176447 
L 65.454545 -84.966519 
L 70.12987 -85.009531 
L 74.805195 -85.130084 
L 79.480519 -85.52807 
L 84.155844 -85.974618 
L 88.831169 -86.603212 
L 93.506494 -87.396822 
L 98.181818 -87.94068 
L 102.857143 -88.498786 
L 107.532468 -88.522556 
L 112.207792 -88.01539 
L 116.883117 -87.726386 
L 121.558442 -87.431061 
L 126.233766 -87.14622 
L 130.909091 -86.925203 
L 135.584416 -87.039075 
L 140.25974 -87.409231 
L 144.935065 -87.519549 
L 149.61039 -87.447622 
L 154.285714 -87.065017 
L 158.961039 -86.846917 
L 163.636364 -86.494494 
L 168.311688 -86.112176 
L 172.987013 -85.644547 
L 177.662338 -85.189195 
L 182.337662 -84.825172 
L 187.012987 -84.371753 
L 191.688312 -84.025679 
L 196.363636 -83.845497 
L 201.038961 -83.702379 
L 205.714286 -83.414133 
L 210.38961 -82.846348 
L 215.064935 -82.309704 
L 219.74026 -82.050511 
L 224.415584 -82.098239 
L 229.090909 -82.096679 
L 233.766234 -82.185665 
L 238.441558 -82.2236 
L 243.116883 -82.228893 
L 247.792208 -82.346892 
L 252.467532 -82.384876 
L 257.142857 -82.478089 
L 261.818182 -82.478603 
L 266.493506 -82.194932 
L 271.168831 -81.774542 
L 275.844156 -81.388429 
L 280.519481 -81.0385 
L 285.194805 -80.702551 
L 289.87013 -80.525341 
L 294.545455 -80.080511 
L 294.545455 -83.69346 
L 294.545455 -83.69346 
L 289.87013 -83.945377 
L 285.194805 -84.051966 
L 280.519481 -84.224078 
L 275.844156 -84.535134 
L 271.168831 -84.887866 
L 266.493506 -85.429959 
L 261.818182 -85.838891 
L 257.142857 -85.807755 
L 252.467532 -85.650258 
L 247.792208 -85.456049 
L 243.116883 -85.23574 
L 238.441558 -85.276003 
L 233.766234 -85.300377 
L 229.090909 -85.146024 
L 224.415584 -84.996816 
L 219.74026 -84.873524 
L 215.064935 -84.953026 
L 210.38961 -85.254646 
L 205.714286 -85.653823 
L 201.038961 -85.994333 
L 196.363636 -86.257943 
L 191.688312 -86.632623 
L 187.012987 -87.10357 
L 182.337662 -87.612804 
L 177.662338 -87.93181 
L 172.987013 -88.313783 
L 168.311688 -88.729413 
L 163.636364 -89.180816 
L 158.961039 -89.485729 
L 154.285714 -89.41358 
L 149.61039 -89.502573 
L 144.935065 -89.232547 
L 140.25974 -89.041937 
L 135.584416 -88.787405 
L 130.909091 -88.92528 
L 126.233766 -89.288707 
L 121.558442 -89.885916 
L 116.883117 -90.322096 
L 112.207792 -90.76035 
L 107.532468 -91.168066 
L 102.857143 -91.308928 
L 98.181818 -91.057551 
L 93.506494 -90.713839 
L 88.831169 -90.219419 
L 84.155844 -89.741789 
L 79.480519 -89.334824 
L 74.805195 -89.071199 
L 70.12987 -89.185713 
L 65.454545 -89.176447 
z
" style="stroke: #ffa500; stroke-opacity: 0.4"/>
    </defs>
    <g clip-path="url(#pbbf929f3a5)">
     <use xlink:href="#m5ce39dce36" x="0" y="432" style="fill: #ffa500; fill-opacity: 0.4; stroke: #ffa500; stroke-opacity: 0.4"/>
    </g>
   </g>
   <g id="matplotlib.axis_1">
    <g id="xtick_1">
     <g id="line2d_1">
      <defs>
       <path id="me457362b79" d="M 0 0 
L 0 3.5 
" style="stroke: #000000; stroke-width: 0.8"/>
      </defs>
      <g>
       <use xlink:href="#me457362b79" x="65.454545" y="392.8" style="stroke: #000000; stroke-width: 0.8"/>
      </g>
     </g>
     <g id="text_1">
      <!-- 0 -->
      <g transform="translate(62.273295 407.398438) scale(0.1 -0.1)">
       <defs>
        <path id="DejaVuSans-30" d="M 2034 4250 
Q 1547 4250 1301 3770 
Q 1056 3291 1056 2328 
Q 1056 1369 1301 889 
Q 1547 409 2034 409 
Q 2525 409 2770 889 
Q 3016 1369 3016 2328 
Q 3016 3291 2770 3770 
Q 2525 4250 2034 4250 
z
M 2034 4750 
Q 2819 4750 3233 4129 
Q 3647 3509 3647 2328 
Q 3647 1150 3233 529 
Q 2819 -91 2034 -91 
Q 1250 -91 836 529 
Q 422 1150 422 2328 
Q 422 3509 836 4129 
Q 1250 4750 2034 4750 
z
" transform="scale(0.015625)"/>
       </defs>
       <use xlink:href="#DejaVuSans-30"/>
      </g>
     </g>
    </g>
    <g id="xtick_2">
     <g id="line2d_2">
      <g>
       <use xlink:href="#me457362b79" x="111.272727" y="392.8" style="stroke: #000000; stroke-width: 0.8"/>
      </g>
     </g>
     <g id="text_2">
      <!-- 1 -->
      <g transform="translate(108.091477 407.398438) scale(0.1 -0.1)">
       <defs>
        <path id="DejaVuSans-31" d="M 794 531 
L 1825 531 
L 1825 4091 
L 703 3866 
L 703 4441 
L 1819 4666 
L 2450 4666 
L 2450 531 
L 3481 531 
L 3481 0 
L 794 0 
L 794 531 
z
" transform="scale(0.015625)"/>
       </defs>
       <use xlink:href="#DejaVuSans-31"/>
      </g>
     </g>
    </g>
    <g id="xtick_3">
     <g id="line2d_3">
      <g>
       <use xlink:href="#me457362b79" x="157.090909" y="392.8" style="stroke: #000000; stroke-width: 0.8"/>
      </g>
     </g>
     <g id="text_3">
      <!-- 2 -->
      <g transform="translate(153.909659 407.398438) scale(0.1 -0.1)">
       <defs>
        <path id="DejaVuSans-32" d="M 1228 531 
L 3431 531 
L 3431 0 
L 469 0 
L 469 531 
Q 828 903 1448 1529 
Q 2069 2156 2228 2338 
Q 2531 2678 2651 2914 
Q 2772 3150 2772 3378 
Q 2772 3750 2511 3984 
Q 2250 4219 1831 4219 
Q 1534 4219 1204 4116 
Q 875 4013 500 3803 
L 500 4441 
Q 881 4594 1212 4672 
Q 1544 4750 1819 4750 
Q 2544 4750 2975 4387 
Q 3406 4025 3406 3419 
Q 3406 3131 3298 2873 
Q 3191 2616 2906 2266 
Q 2828 2175 2409 1742 
Q 1991 1309 1228 531 
z
" transform="scale(0.015625)"/>
       </defs>
       <use xlink:href="#DejaVuSans-32"/>
      </g>
     </g>
    </g>
    <g id="xtick_4">
     <g id="line2d_4">
      <g>
       <use xlink:href="#me457362b79" x="202.909091" y="392.8" style="stroke: #000000; stroke-width: 0.8"/>
      </g>
     </g>
     <g id="text_4">
      <!-- 3 -->
      <g transform="translate(199.727841 407.398438) scale(0.1 -0.1)">
       <defs>
        <path id="DejaVuSans-33" d="M 2597 2516 
Q 3050 2419 3304 2112 
Q 3559 1806 3559 1356 
Q 3559 666 3084 287 
Q 2609 -91 1734 -91 
Q 1441 -91 1130 -33 
Q 819 25 488 141 
L 488 750 
Q 750 597 1062 519 
Q 1375 441 1716 441 
Q 2309 441 2620 675 
Q 2931 909 2931 1356 
Q 2931 1769 2642 2001 
Q 2353 2234 1838 2234 
L 1294 2234 
L 1294 2753 
L 1863 2753 
Q 2328 2753 2575 2939 
Q 2822 3125 2822 3475 
Q 2822 3834 2567 4026 
Q 2313 4219 1838 4219 
Q 1578 4219 1281 4162 
Q 984 4106 628 3988 
L 628 4550 
Q 988 4650 1302 4700 
Q 1616 4750 1894 4750 
Q 2613 4750 3031 4423 
Q 3450 4097 3450 3541 
Q 3450 3153 3228 2886 
Q 3006 2619 2597 2516 
z
" transform="scale(0.015625)"/>
       </defs>
       <use xlink:href="#DejaVuSans-33"/>
      </g>
     </g>
    </g>
    <g id="xtick_5">
     <g id="line2d_5">
      <g>
       <use xlink:href="#me457362b79" x="248.727273" y="392.8" style="stroke: #000000; stroke-width: 0.8"/>
      </g>
     </g>
     <g id="text_5">
      <!-- 4 -->
      <g transform="translate(245.546023 407.398438) scale(0.1 -0.1)">
       <defs>
        <path id="DejaVuSans-34" d="M 2419 4116 
L 825 1625 
L 2419 1625 
L 2419 4116 
z
M 2253 4666 
L 3047 4666 
L 3047 1625 
L 3713 1625 
L 3713 1100 
L 3047 1100 
L 3047 0 
L 2419 0 
L 2419 1100 
L 313 1100 
L 313 1709 
L 2253 4666 
z
" transform="scale(0.015625)"/>
       </defs>
       <use xlink:href="#DejaVuSans-34"/>
      </g>
     </g>
    </g>
    <g id="xtick_6">
     <g id="line2d_6">
      <g>
       <use xlink:href="#me457362b79" x="294.545455" y="392.8" style="stroke: #000000; stroke-width: 0.8"/>
      </g>
     </g>
     <g id="text_6">
      <!-- 5 -->
      <g transform="translate(291.364205 407.398438) scale(0.1 -0.1)">
       <defs>
        <path id="DejaVuSans-35" d="M 691 4666 
L 3169 4666 
L 3169 4134 
L 1269 4134 
L 1269 2991 
Q 1406 3038 1543 3061 
Q 1681 3084 1819 3084 
Q 2600 3084 3056 2656 
Q 3513 2228 3513 1497 
Q 3513 744 3044 326 
Q 2575 -91 1722 -91 
Q 1428 -91 1123 -41 
Q 819 9 494 109 
L 494 744 
Q 775 591 1075 516 
Q 1375 441 1709 441 
Q 2250 441 2565 725 
Q 2881 1009 2881 1497 
Q 2881 1984 2565 2268 
Q 2250 2553 1709 2553 
Q 1456 2553 1204 2497 
Q 953 2441 691 2322 
L 691 4666 
z
" transform="scale(0.015625)"/>
       </defs>
       <use xlink:href="#DejaVuSans-35"/>
      </g>
     </g>
    </g>
    <g id="text_7">
     <!-- relative distance from ROI center ($\sigma$) -->
     <g transform="translate(106.48 419.556875) scale(0.08 -0.08)">
      <defs>
       <path id="DejaVuSans-72" d="M 2631 2963 
Q 2534 3019 2420 3045 
Q 2306 3072 2169 3072 
Q 1681 3072 1420 2755 
Q 1159 2438 1159 1844 
L 1159 0 
L 581 0 
L 581 3500 
L 1159 3500 
L 1159 2956 
Q 1341 3275 1631 3429 
Q 1922 3584 2338 3584 
Q 2397 3584 2469 3576 
Q 2541 3569 2628 3553 
L 2631 2963 
z
" transform="scale(0.015625)"/>
       <path id="DejaVuSans-65" d="M 3597 1894 
L 3597 1613 
L 953 1613 
Q 991 1019 1311 708 
Q 1631 397 2203 397 
Q 2534 397 2845 478 
Q 3156 559 3463 722 
L 3463 178 
Q 3153 47 2828 -22 
Q 2503 -91 2169 -91 
Q 1331 -91 842 396 
Q 353 884 353 1716 
Q 353 2575 817 3079 
Q 1281 3584 2069 3584 
Q 2775 3584 3186 3129 
Q 3597 2675 3597 1894 
z
M 3022 2063 
Q 3016 2534 2758 2815 
Q 2500 3097 2075 3097 
Q 1594 3097 1305 2825 
Q 1016 2553 972 2059 
L 3022 2063 
z
" transform="scale(0.015625)"/>
       <path id="DejaVuSans-6c" d="M 603 4863 
L 1178 4863 
L 1178 0 
L 603 0 
L 603 4863 
z
" transform="scale(0.015625)"/>
       <path id="DejaVuSans-61" d="M 2194 1759 
Q 1497 1759 1228 1600 
Q 959 1441 959 1056 
Q 959 750 1161 570 
Q 1363 391 1709 391 
Q 2188 391 2477 730 
Q 2766 1069 2766 1631 
L 2766 1759 
L 2194 1759 
z
M 3341 1997 
L 3341 0 
L 2766 0 
L 2766 531 
Q 2569 213 2275 61 
Q 1981 -91 1556 -91 
Q 1019 -91 701 211 
Q 384 513 384 1019 
Q 384 1609 779 1909 
Q 1175 2209 1959 2209 
L 2766 2209 
L 2766 2266 
Q 2766 2663 2505 2880 
Q 2244 3097 1772 3097 
Q 1472 3097 1187 3025 
Q 903 2953 641 2809 
L 641 3341 
Q 956 3463 1253 3523 
Q 1550 3584 1831 3584 
Q 2591 3584 2966 3190 
Q 3341 2797 3341 1997 
z
" transform="scale(0.015625)"/>
       <path id="DejaVuSans-74" d="M 1172 4494 
L 1172 3500 
L 2356 3500 
L 2356 3053 
L 1172 3053 
L 1172 1153 
Q 1172 725 1289 603 
Q 1406 481 1766 481 
L 2356 481 
L 2356 0 
L 1766 0 
Q 1100 0 847 248 
Q 594 497 594 1153 
L 594 3053 
L 172 3053 
L 172 3500 
L 594 3500 
L 594 4494 
L 1172 4494 
z
" transform="scale(0.015625)"/>
       <path id="DejaVuSans-69" d="M 603 3500 
L 1178 3500 
L 1178 0 
L 603 0 
L 603 3500 
z
M 603 4863 
L 1178 4863 
L 1178 4134 
L 603 4134 
L 603 4863 
z
" transform="scale(0.015625)"/>
       <path id="DejaVuSans-76" d="M 191 3500 
L 800 3500 
L 1894 563 
L 2988 3500 
L 3597 3500 
L 2284 0 
L 1503 0 
L 191 3500 
z
" transform="scale(0.015625)"/>
       <path id="DejaVuSans-20" transform="scale(0.015625)"/>
       <path id="DejaVuSans-64" d="M 2906 2969 
L 2906 4863 
L 3481 4863 
L 3481 0 
L 2906 0 
L 2906 525 
Q 2725 213 2448 61 
Q 2172 -91 1784 -91 
Q 1150 -91 751 415 
Q 353 922 353 1747 
Q 353 2572 751 3078 
Q 1150 3584 1784 3584 
Q 2172 3584 2448 3432 
Q 2725 3281 2906 2969 
z
M 947 1747 
Q 947 1113 1208 752 
Q 1469 391 1925 391 
Q 2381 391 2643 752 
Q 2906 1113 2906 1747 
Q 2906 2381 2643 2742 
Q 2381 3103 1925 3103 
Q 1469 3103 1208 2742 
Q 947 2381 947 1747 
z
" transform="scale(0.015625)"/>
       <path id="DejaVuSans-73" d="M 2834 3397 
L 2834 2853 
Q 2591 2978 2328 3040 
Q 2066 3103 1784 3103 
Q 1356 3103 1142 2972 
Q 928 2841 928 2578 
Q 928 2378 1081 2264 
Q 1234 2150 1697 2047 
L 1894 2003 
Q 2506 1872 2764 1633 
Q 3022 1394 3022 966 
Q 3022 478 2636 193 
Q 2250 -91 1575 -91 
Q 1294 -91 989 -36 
Q 684 19 347 128 
L 347 722 
Q 666 556 975 473 
Q 1284 391 1588 391 
Q 1994 391 2212 530 
Q 2431 669 2431 922 
Q 2431 1156 2273 1281 
Q 2116 1406 1581 1522 
L 1381 1569 
Q 847 1681 609 1914 
Q 372 2147 372 2553 
Q 372 3047 722 3315 
Q 1072 3584 1716 3584 
Q 2034 3584 2315 3537 
Q 2597 3491 2834 3397 
z
" transform="scale(0.015625)"/>
       <path id="DejaVuSans-6e" d="M 3513 2113 
L 3513 0 
L 2938 0 
L 2938 2094 
Q 2938 2591 2744 2837 
Q 2550 3084 2163 3084 
Q 1697 3084 1428 2787 
Q 1159 2491 1159 1978 
L 1159 0 
L 581 0 
L 581 3500 
L 1159 3500 
L 1159 2956 
Q 1366 3272 1645 3428 
Q 1925 3584 2291 3584 
Q 2894 3584 3203 3211 
Q 3513 2838 3513 2113 
z
" transform="scale(0.015625)"/>
       <path id="DejaVuSans-63" d="M 3122 3366 
L 3122 2828 
Q 2878 2963 2633 3030 
Q 2388 3097 2138 3097 
Q 1578 3097 1268 2742 
Q 959 2388 959 1747 
Q 959 1106 1268 751 
Q 1578 397 2138 397 
Q 2388 397 2633 464 
Q 2878 531 3122 666 
L 3122 134 
Q 2881 22 2623 -34 
Q 2366 -91 2075 -91 
Q 1284 -91 818 406 
Q 353 903 353 1747 
Q 353 2603 823 3093 
Q 1294 3584 2113 3584 
Q 2378 3584 2631 3529 
Q 2884 3475 3122 3366 
z
" transform="scale(0.015625)"/>
       <path id="DejaVuSans-66" d="M 2375 4863 
L 2375 4384 
L 1825 4384 
Q 1516 4384 1395 4259 
Q 1275 4134 1275 3809 
L 1275 3500 
L 2222 3500 
L 2222 3053 
L 1275 3053 
L 1275 0 
L 697 0 
L 697 3053 
L 147 3053 
L 147 3500 
L 697 3500 
L 697 3744 
Q 697 4328 969 4595 
Q 1241 4863 1831 4863 
L 2375 4863 
z
" transform="scale(0.015625)"/>
       <path id="DejaVuSans-6f" d="M 1959 3097 
Q 1497 3097 1228 2736 
Q 959 2375 959 1747 
Q 959 1119 1226 758 
Q 1494 397 1959 397 
Q 2419 397 2687 759 
Q 2956 1122 2956 1747 
Q 2956 2369 2687 2733 
Q 2419 3097 1959 3097 
z
M 1959 3584 
Q 2709 3584 3137 3096 
Q 3566 2609 3566 1747 
Q 3566 888 3137 398 
Q 2709 -91 1959 -91 
Q 1206 -91 779 398 
Q 353 888 353 1747 
Q 353 2609 779 3096 
Q 1206 3584 1959 3584 
z
" transform="scale(0.015625)"/>
       <path id="DejaVuSans-6d" d="M 3328 2828 
Q 3544 3216 3844 3400 
Q 4144 3584 4550 3584 
Q 5097 3584 5394 3201 
Q 5691 2819 5691 2113 
L 5691 0 
L 5113 0 
L 5113 2094 
Q 5113 2597 4934 2840 
Q 4756 3084 4391 3084 
Q 3944 3084 3684 2787 
Q 3425 2491 3425 1978 
L 3425 0 
L 2847 0 
L 2847 2094 
Q 2847 2600 2669 2842 
Q 2491 3084 2119 3084 
Q 1678 3084 1418 2786 
Q 1159 2488 1159 1978 
L 1159 0 
L 581 0 
L 581 3500 
L 1159 3500 
L 1159 2956 
Q 1356 3278 1631 3431 
Q 1906 3584 2284 3584 
Q 2666 3584 2933 3390 
Q 3200 3197 3328 2828 
z
" transform="scale(0.015625)"/>
       <path id="DejaVuSans-52" d="M 2841 2188 
Q 3044 2119 3236 1894 
Q 3428 1669 3622 1275 
L 4263 0 
L 3584 0 
L 2988 1197 
Q 2756 1666 2539 1819 
Q 2322 1972 1947 1972 
L 1259 1972 
L 1259 0 
L 628 0 
L 628 4666 
L 2053 4666 
Q 2853 4666 3247 4331 
Q 3641 3997 3641 3322 
Q 3641 2881 3436 2590 
Q 3231 2300 2841 2188 
z
M 1259 4147 
L 1259 2491 
L 2053 2491 
Q 2509 2491 2742 2702 
Q 2975 2913 2975 3322 
Q 2975 3731 2742 3939 
Q 2509 4147 2053 4147 
L 1259 4147 
z
" transform="scale(0.015625)"/>
       <path id="DejaVuSans-4f" d="M 2522 4238 
Q 1834 4238 1429 3725 
Q 1025 3213 1025 2328 
Q 1025 1447 1429 934 
Q 1834 422 2522 422 
Q 3209 422 3611 934 
Q 4013 1447 4013 2328 
Q 4013 3213 3611 3725 
Q 3209 4238 2522 4238 
z
M 2522 4750 
Q 3503 4750 4090 4092 
Q 4678 3434 4678 2328 
Q 4678 1225 4090 567 
Q 3503 -91 2522 -91 
Q 1538 -91 948 565 
Q 359 1222 359 2328 
Q 359 3434 948 4092 
Q 1538 4750 2522 4750 
z
" transform="scale(0.015625)"/>
       <path id="DejaVuSans-49" d="M 628 4666 
L 1259 4666 
L 1259 0 
L 628 0 
L 628 4666 
z
" transform="scale(0.015625)"/>
       <path id="DejaVuSans-28" d="M 1984 4856 
Q 1566 4138 1362 3434 
Q 1159 2731 1159 2009 
Q 1159 1288 1364 580 
Q 1569 -128 1984 -844 
L 1484 -844 
Q 1016 -109 783 600 
Q 550 1309 550 2009 
Q 550 2706 781 3412 
Q 1013 4119 1484 4856 
L 1984 4856 
z
" transform="scale(0.015625)"/>
       <path id="DejaVuSans-Oblique-3c3" d="M 2219 3044 
Q 1744 3044 1422 2700 
Q 1081 2341 969 1747 
Q 844 1119 1044 756 
Q 1241 397 1706 397 
Q 2166 397 2503 759 
Q 2844 1122 2966 1747 
Q 3075 2319 2881 2700 
Q 2700 3044 2219 3044 
z
M 2309 3503 
L 4219 3500 
L 4106 2925 
L 3463 2925 
Q 3706 2438 3575 1747 
Q 3406 888 2884 400 
Q 2359 -91 1609 -91 
Q 856 -91 525 400 
Q 194 888 363 1747 
Q 528 2609 1050 3097 
Q 1484 3503 2309 3503 
z
" transform="scale(0.015625)"/>
       <path id="DejaVuSans-29" d="M 513 4856 
L 1013 4856 
Q 1481 4119 1714 3412 
Q 1947 2706 1947 2009 
Q 1947 1309 1714 600 
Q 1481 -109 1013 -844 
L 513 -844 
Q 928 -128 1133 580 
Q 1338 1288 1338 2009 
Q 1338 2731 1133 3434 
Q 928 4138 513 4856 
z
" transform="scale(0.015625)"/>
      </defs>
      <use xlink:href="#DejaVuSans-72" transform="translate(0 0.015625)"/>
      <use xlink:href="#DejaVuSans-65" transform="translate(41.113281 0.015625)"/>
      <use xlink:href="#DejaVuSans-6c" transform="translate(102.636719 0.015625)"/>
      <use xlink:href="#DejaVuSans-61" transform="translate(130.419922 0.015625)"/>
      <use xlink:href="#DejaVuSans-74" transform="translate(191.699219 0.015625)"/>
      <use xlink:href="#DejaVuSans-69" transform="translate(230.908203 0.015625)"/>
      <use xlink:href="#DejaVuSans-76" transform="translate(258.691406 0.015625)"/>
      <use xlink:href="#DejaVuSans-65" transform="translate(317.871094 0.015625)"/>
      <use xlink:href="#DejaVuSans-20" transform="translate(379.394531 0.015625)"/>
      <use xlink:href="#DejaVuSans-64" transform="translate(411.181641 0.015625)"/>
      <use xlink:href="#DejaVuSans-69" transform="translate(474.658203 0.015625)"/>
      <use xlink:href="#DejaVuSans-73" transform="translate(502.441406 0.015625)"/>
      <use xlink:href="#DejaVuSans-74" transform="translate(554.541016 0.015625)"/>
      <use xlink:href="#DejaVuSans-61" transform="translate(593.75 0.015625)"/>
      <use xlink:href="#DejaVuSans-6e" transform="translate(655.029297 0.015625)"/>
      <use xlink:href="#DejaVuSans-63" transform="translate(718.408203 0.015625)"/>
      <use xlink:href="#DejaVuSans-65" transform="translate(773.388672 0.015625)"/>
      <use xlink:href="#DejaVuSans-20" transform="translate(834.912109 0.015625)"/>
      <use xlink:href="#DejaVuSans-66" transform="translate(866.699219 0.015625)"/>
      <use xlink:href="#DejaVuSans-72" transform="translate(901.904297 0.015625)"/>
      <use xlink:href="#DejaVuSans-6f" transform="translate(943.017578 0.015625)"/>
      <use xlink:href="#DejaVuSans-6d" transform="translate(1004.199219 0.015625)"/>
      <use xlink:href="#DejaVuSans-20" transform="translate(1101.611328 0.015625)"/>
      <use xlink:href="#DejaVuSans-52" transform="translate(1133.398438 0.015625)"/>
      <use xlink:href="#DejaVuSans-4f" transform="translate(1202.880859 0.015625)"/>
      <use xlink:href="#DejaVuSans-49" transform="translate(1281.591797 0.015625)"/>
      <use xlink:href="#DejaVuSans-20" transform="translate(1311.083984 0.015625)"/>
      <use xlink:href="#DejaVuSans-63" transform="translate(1342.871094 0.015625)"/>
      <use xlink:href="#DejaVuSans-65" transform="translate(1397.851562 0.015625)"/>
      <use xlink:href="#DejaVuSans-6e" transform="translate(1459.375 0.015625)"/>
      <use xlink:href="#DejaVuSans-74" transform="translate(1522.753906 0.015625)"/>
      <use xlink:href="#DejaVuSans-65" transform="translate(1561.962891 0.015625)"/>
      <use xlink:href="#DejaVuSans-72" transform="translate(1623.486328 0.015625)"/>
      <use xlink:href="#DejaVuSans-20" transform="translate(1664.599609 0.015625)"/>
      <use xlink:href="#DejaVuSans-28" transform="translate(1696.386719 0.015625)"/>
      <use xlink:href="#DejaVuSans-Oblique-3c3" transform="translate(1735.400391 0.015625)"/>
      <use xlink:href="#DejaVuSans-29" transform="translate(1798.779297 0.015625)"/>
     </g>
    </g>
   </g>
   <g id="matplotlib.axis_2">
    <g id="ytick_1">
     <g id="line2d_7">
      <defs>
       <path id="mfa06e19591" d="M 0 0 
L -3.5 0 
" style="stroke: #000000; stroke-width: 0.8"/>
      </defs>
      <g>
       <use xlink:href="#mfa06e19591" x="50" y="376.457143" style="stroke: #000000; stroke-width: 0.8"/>
      </g>
     </g>
     <g id="text_8">
      <!-- −5 -->
      <g transform="translate(28.257812 380.256362) scale(0.1 -0.1)">
       <defs>
        <path id="DejaVuSans-2212" d="M 678 2272 
L 4684 2272 
L 4684 1741 
L 678 1741 
L 678 2272 
z
" transform="scale(0.015625)"/>
       </defs>
       <use xlink:href="#DejaVuSans-2212"/>
       <use xlink:href="#DejaVuSans-35" x="83.789062"/>
      </g>
     </g>
    </g>
    <g id="ytick_2">
     <g id="line2d_8">
      <g>
       <use xlink:href="#mfa06e19591" x="50" y="345.6" style="stroke: #000000; stroke-width: 0.8"/>
      </g>
     </g>
     <g id="text_9">
      <!-- 0 -->
      <g transform="translate(36.6375 349.399219) scale(0.1 -0.1)">
       <use xlink:href="#DejaVuSans-30"/>
      </g>
     </g>
    </g>
    <g id="ytick_3">
     <g id="line2d_9">
      <g>
       <use xlink:href="#mfa06e19591" x="50" y="314.742857" style="stroke: #000000; stroke-width: 0.8"/>
      </g>
     </g>
     <g id="text_10">
      <!-- 5 -->
      <g transform="translate(36.6375 318.542076) scale(0.1 -0.1)">
       <use xlink:href="#DejaVuSans-35"/>
      </g>
     </g>
    </g>
    <g id="text_11">
     <!-- BOLD % change -->
     <g transform="translate(22.594062 377.79625) rotate(-90) scale(0.08 -0.08)">
      <defs>
       <path id="DejaVuSans-42" d="M 1259 2228 
L 1259 519 
L 2272 519 
Q 2781 519 3026 730 
Q 3272 941 3272 1375 
Q 3272 1813 3026 2020 
Q 2781 2228 2272 2228 
L 1259 2228 
z
M 1259 4147 
L 1259 2741 
L 2194 2741 
Q 2656 2741 2882 2914 
Q 3109 3088 3109 3444 
Q 3109 3797 2882 3972 
Q 2656 4147 2194 4147 
L 1259 4147 
z
M 628 4666 
L 2241 4666 
Q 2963 4666 3353 4366 
Q 3744 4066 3744 3513 
Q 3744 3084 3544 2831 
Q 3344 2578 2956 2516 
Q 3422 2416 3680 2098 
Q 3938 1781 3938 1306 
Q 3938 681 3513 340 
Q 3088 0 2303 0 
L 628 0 
L 628 4666 
z
" transform="scale(0.015625)"/>
       <path id="DejaVuSans-4c" d="M 628 4666 
L 1259 4666 
L 1259 531 
L 3531 531 
L 3531 0 
L 628 0 
L 628 4666 
z
" transform="scale(0.015625)"/>
       <path id="DejaVuSans-44" d="M 1259 4147 
L 1259 519 
L 2022 519 
Q 2988 519 3436 956 
Q 3884 1394 3884 2338 
Q 3884 3275 3436 3711 
Q 2988 4147 2022 4147 
L 1259 4147 
z
M 628 4666 
L 1925 4666 
Q 3281 4666 3915 4102 
Q 4550 3538 4550 2338 
Q 4550 1131 3912 565 
Q 3275 0 1925 0 
L 628 0 
L 628 4666 
z
" transform="scale(0.015625)"/>
       <path id="DejaVuSans-25" d="M 4653 2053 
Q 4381 2053 4226 1822 
Q 4072 1591 4072 1178 
Q 4072 772 4226 539 
Q 4381 306 4653 306 
Q 4919 306 5073 539 
Q 5228 772 5228 1178 
Q 5228 1588 5073 1820 
Q 4919 2053 4653 2053 
z
M 4653 2450 
Q 5147 2450 5437 2106 
Q 5728 1763 5728 1178 
Q 5728 594 5436 251 
Q 5144 -91 4653 -91 
Q 4153 -91 3862 251 
Q 3572 594 3572 1178 
Q 3572 1766 3864 2108 
Q 4156 2450 4653 2450 
z
M 1428 4353 
Q 1159 4353 1004 4120 
Q 850 3888 850 3481 
Q 850 3069 1003 2837 
Q 1156 2606 1428 2606 
Q 1700 2606 1854 2837 
Q 2009 3069 2009 3481 
Q 2009 3884 1853 4118 
Q 1697 4353 1428 4353 
z
M 4250 4750 
L 4750 4750 
L 1831 -91 
L 1331 -91 
L 4250 4750 
z
M 1428 4750 
Q 1922 4750 2215 4408 
Q 2509 4066 2509 3481 
Q 2509 2891 2217 2550 
Q 1925 2209 1428 2209 
Q 931 2209 642 2551 
Q 353 2894 353 3481 
Q 353 4063 643 4406 
Q 934 4750 1428 4750 
z
" transform="scale(0.015625)"/>
       <path id="DejaVuSans-68" d="M 3513 2113 
L 3513 0 
L 2938 0 
L 2938 2094 
Q 2938 2591 2744 2837 
Q 2550 3084 2163 3084 
Q 1697 3084 1428 2787 
Q 1159 2491 1159 1978 
L 1159 0 
L 581 0 
L 581 4863 
L 1159 4863 
L 1159 2956 
Q 1366 3272 1645 3428 
Q 1925 3584 2291 3584 
Q 2894 3584 3203 3211 
Q 3513 2838 3513 2113 
z
" transform="scale(0.015625)"/>
       <path id="DejaVuSans-67" d="M 2906 1791 
Q 2906 2416 2648 2759 
Q 2391 3103 1925 3103 
Q 1463 3103 1205 2759 
Q 947 2416 947 1791 
Q 947 1169 1205 825 
Q 1463 481 1925 481 
Q 2391 481 2648 825 
Q 2906 1169 2906 1791 
z
M 3481 434 
Q 3481 -459 3084 -895 
Q 2688 -1331 1869 -1331 
Q 1566 -1331 1297 -1286 
Q 1028 -1241 775 -1147 
L 775 -588 
Q 1028 -725 1275 -790 
Q 1522 -856 1778 -856 
Q 2344 -856 2625 -561 
Q 2906 -266 2906 331 
L 2906 616 
Q 2728 306 2450 153 
Q 2172 0 1784 0 
Q 1141 0 747 490 
Q 353 981 353 1791 
Q 353 2603 747 3093 
Q 1141 3584 1784 3584 
Q 2172 3584 2450 3431 
Q 2728 3278 2906 2969 
L 2906 3500 
L 3481 3500 
L 3481 434 
z
" transform="scale(0.015625)"/>
      </defs>
      <use xlink:href="#DejaVuSans-42"/>
      <use xlink:href="#DejaVuSans-4f" x="66.853516"/>
      <use xlink:href="#DejaVuSans-4c" x="145.564453"/>
      <use xlink:href="#DejaVuSans-44" x="201.277344"/>
      <use xlink:href="#DejaVuSans-20" x="278.279297"/>
      <use xlink:href="#DejaVuSans-25" x="310.066406"/>
      <use xlink:href="#DejaVuSans-20" x="405.085938"/>
      <use xlink:href="#DejaVuSans-63" x="436.873047"/>
      <use xlink:href="#DejaVuSans-68" x="491.853516"/>
      <use xlink:href="#DejaVuSans-61" x="555.232422"/>
      <use xlink:href="#DejaVuSans-6e" x="616.511719"/>
      <use xlink:href="#DejaVuSans-67" x="679.890625"/>
      <use xlink:href="#DejaVuSans-65" x="743.367188"/>
     </g>
    </g>
   </g>
   <g id="line2d_10">
    <path d="M 65.454545 344.928517 
L 70.12987 344.902378 
L 74.805195 344.899359 
L 79.480519 344.568553 
L 84.155844 344.141796 
L 88.831169 343.588684 
L 93.506494 342.944669 
L 98.181818 342.500884 
L 102.857143 342.096143 
L 107.532468 342.154689 
L 112.207792 342.61213 
L 116.883117 342.975759 
L 121.558442 343.341511 
L 126.233766 343.782537 
L 130.909091 344.074758 
L 135.584416 344.08676 
L 140.25974 343.774416 
L 144.935065 343.623952 
L 149.61039 343.524902 
L 154.285714 343.760702 
L 158.961039 343.833677 
L 163.636364 344.162345 
L 168.311688 344.579206 
L 172.987013 345.020835 
L 177.662338 345.439497 
L 182.337662 345.781012 
L 187.012987 346.262339 
L 191.688312 346.670849 
L 196.363636 346.94828 
L 201.038961 347.151644 
L 205.714286 347.466022 
L 210.38961 347.949503 
L 215.064935 348.368635 
L 219.74026 348.537982 
L 224.415584 348.452473 
L 229.090909 348.378648 
L 233.766234 348.256979 
L 238.441558 348.250198 
L 243.116883 348.267684 
L 247.792208 348.09853 
L 252.467532 347.982433 
L 257.142857 347.857078 
L 261.818182 347.841253 
L 266.493506 348.187554 
L 271.168831 348.668796 
L 275.844156 349.038219 
L 280.519481 349.368711 
L 285.194805 349.622741 
L 289.87013 349.764641 
L 294.545455 350.113014 
" clip-path="url(#pbbf929f3a5)" style="fill: none; stroke: #ffa500; stroke-width: 1.5; stroke-linecap: square"/>
   </g>
   <g id="line2d_11">
    <path d="M 65.454545 337.147849 
L 70.12987 337.338242 
L 74.805195 338.330841 
L 79.480519 339.021587 
L 84.155844 339.645856 
L 88.831169 339.639973 
L 93.506494 340.033341 
L 98.181818 340.275908 
L 102.857143 341.323644 
L 107.532468 340.965495 
L 112.207792 340.187203 
L 116.883117 340.105635 
L 121.558442 340.001373 
L 126.233766 339.012821 
L 130.909091 338.507136 
L 135.584416 338.657109 
L 140.25974 338.267059 
L 144.935065 337.939266 
L 149.61039 337.568451 
L 154.285714 337.334288 
L 158.961039 336.424163 
L 163.636364 335.494329 
L 168.311688 335.338418 
L 172.987013 335.683483 
L 177.662338 336.043697 
L 182.337662 336.591096 
L 187.012987 337.478114 
L 191.688312 338.582911 
L 196.363636 339.554098 
L 201.038961 340.083954 
L 205.714286 340.413047 
L 210.38961 340.307318 
L 215.064935 339.83905 
L 219.74026 339.196497 
L 224.415584 339.286768 
L 229.090909 339.171756 
L 233.766234 339.210423 
L 238.441558 339.830122 
L 243.116883 340.368615 
L 247.792208 339.478423 
L 252.467532 338.341199 
L 257.142857 337.385987 
L 261.818182 336.709263 
L 266.493506 337.02242 
L 271.168831 337.911366 
L 275.844156 339.042924 
L 280.519481 340.881511 
L 285.194805 341.231579 
L 289.87013 341.143512 
L 294.545455 341.139862 
" clip-path="url(#pbbf929f3a5)" style="fill: none; stroke: #ffa500; stroke-opacity: 0.2; stroke-width: 1.5; stroke-linecap: square"/>
   </g>
   <g id="line2d_12">
    <path d="M 65.454545 349.841081 
L 70.12987 349.841081 
L 74.805195 348.824069 
L 79.480519 346.82036 
L 84.155844 345.694405 
L 88.831169 344.864964 
L 93.506494 344.180876 
L 98.181818 343.833463 
L 102.857143 343.728651 
L 107.532468 343.840363 
L 112.207792 343.709466 
L 116.883117 343.823657 
L 121.558442 343.645921 
L 126.233766 343.190027 
L 130.909091 342.815754 
L 135.584416 342.678076 
L 140.25974 342.529839 
L 144.935065 342.857159 
L 149.61039 343.011913 
L 154.285714 343.497169 
L 158.961039 343.505843 
L 163.636364 343.687414 
L 168.311688 343.740718 
L 172.987013 343.938629 
L 177.662338 344.252455 
L 182.337662 344.511515 
L 187.012987 344.404215 
L 191.688312 344.343011 
L 196.363636 344.040143 
L 201.038961 343.837023 
L 205.714286 344.04619 
L 210.38961 344.305463 
L 215.064935 344.514281 
L 219.74026 344.566986 
L 224.415584 344.490946 
L 229.090909 344.250367 
L 233.766234 343.800723 
L 238.441558 343.737727 
L 243.116883 343.896793 
L 247.792208 343.996045 
L 252.467532 343.943186 
L 257.142857 343.549312 
L 261.818182 343.13621 
L 266.493506 343.083292 
L 271.168831 343.06023 
L 275.844156 342.656699 
L 280.519481 342.401994 
L 285.194805 342.177726 
L 289.87013 341.888039 
L 294.545455 341.719369 
" clip-path="url(#pbbf929f3a5)" style="fill: none; stroke: #ffa500; stroke-opacity: 0.2; stroke-width: 1.5; stroke-linecap: square"/>
   </g>
   <g id="line2d_13">
    <path d="M 65.454545 338.737318 
L 70.12987 338.908563 
L 74.805195 338.746507 
L 79.480519 338.881492 
L 84.155844 340.107068 
L 88.831169 340.876509 
L 93.506494 341.524643 
L 98.181818 342.313773 
L 102.857143 342.627368 
L 107.532468 343.630008 
L 112.207792 344.26831 
L 116.883117 344.521617 
L 121.558442 344.330714 
L 126.233766 343.879874 
L 130.909091 343.761656 
L 135.584416 343.317115 
L 140.25974 342.792112 
L 144.935065 342.285109 
L 149.61039 342.286551 
L 154.285714 342.483477 
L 158.961039 342.576217 
L 163.636364 342.553716 
L 168.311688 342.559076 
L 172.987013 342.525362 
L 177.662338 342.489264 
L 182.337662 342.441188 
L 187.012987 342.356113 
L 191.688312 342.681614 
L 196.363636 343.064938 
L 201.038961 343.001071 
L 205.714286 342.971833 
L 210.38961 342.964318 
L 215.064935 343.000311 
L 219.74026 342.949988 
L 224.415584 342.573798 
L 229.090909 342.374026 
L 233.766234 342.485238 
L 238.441558 342.540279 
L 243.116883 342.262331 
L 247.792208 341.545374 
L 252.467532 340.986844 
L 257.142857 341.126653 
L 261.818182 341.470669 
L 266.493506 342.481749 
L 271.168831 343.490358 
L 275.844156 343.629838 
L 280.519481 343.112701 
L 285.194805 342.856761 
L 289.87013 342.8613 
L 294.545455 342.38874 
" clip-path="url(#pbbf929f3a5)" style="fill: none; stroke: #ffa500; stroke-opacity: 0.2; stroke-width: 1.5; stroke-linecap: square"/>
   </g>
   <g id="line2d_14">
    <path d="M 65.454545 341.682191 
L 70.12987 341.682191 
L 74.805195 341.764316 
L 79.480519 342.099279 
L 84.155844 342.622135 
L 88.831169 342.788036 
L 93.506494 342.491235 
L 98.181818 342.561477 
L 102.857143 342.688556 
L 107.532468 343.129669 
L 112.207792 343.504757 
L 116.883117 343.788068 
L 121.558442 344.142006 
L 126.233766 344.29725 
L 130.909091 344.551779 
L 135.584416 344.781288 
L 140.25974 345.283938 
L 144.935065 346.016898 
L 149.61039 346.355701 
L 154.285714 346.82 
L 158.961039 347.361379 
L 163.636364 347.7255 
L 168.311688 348.407953 
L 172.987013 349.306199 
L 177.662338 349.992466 
L 182.337662 350.648776 
L 187.012987 351.085188 
L 191.688312 351.608864 
L 196.363636 351.983973 
L 201.038961 351.997744 
L 205.714286 351.989814 
L 210.38961 352.570111 
L 215.064935 353.237928 
L 219.74026 353.769297 
L 224.415584 354.053582 
L 229.090909 354.275288 
L 233.766234 354.121991 
L 238.441558 353.957557 
L 243.116883 353.925582 
L 247.792208 354.158272 
L 252.467532 354.072744 
L 257.142857 354.012198 
L 261.818182 354.051686 
L 266.493506 354.344052 
L 271.168831 354.876929 
L 275.844156 355.067554 
L 280.519481 355.204977 
L 285.194805 355.023254 
L 289.87013 354.883375 
L 294.545455 354.886622 
" clip-path="url(#pbbf929f3a5)" style="fill: none; stroke: #ffa500; stroke-opacity: 0.2; stroke-width: 1.5; stroke-linecap: square"/>
   </g>
   <g id="line2d_15">
    <path d="M 65.454545 334.223432 
L 70.12987 334.207553 
L 74.805195 335.765993 
L 79.480519 336.182755 
L 84.155844 334.499785 
L 88.831169 332.691351 
L 93.506494 331.613671 
L 98.181818 330.852773 
L 102.857143 330.733821 
L 107.532468 331.229234 
L 112.207792 331.948807 
L 116.883117 332.8946 
L 121.558442 334.369193 
L 126.233766 337.567593 
L 130.909091 339.549352 
L 135.584416 340.922727 
L 140.25974 340.164322 
L 144.935065 339.200641 
L 149.61039 337.180687 
L 154.285714 335.683387 
L 158.961039 334.431003 
L 163.636364 335.347906 
L 168.311688 337.022589 
L 172.987013 337.761614 
L 177.662338 338.789594 
L 182.337662 339.742301 
L 187.012987 340.843977 
L 191.688312 341.496606 
L 196.363636 343.153889 
L 201.038961 344.299477 
L 205.714286 345.080462 
L 210.38961 344.912938 
L 215.064935 345.199145 
L 219.74026 345.718816 
L 224.415584 345.486461 
L 229.090909 345.692753 
L 233.766234 345.795944 
L 238.441558 346.114644 
L 243.116883 346.586745 
L 247.792208 346.360974 
L 252.467532 346.148943 
L 257.142857 346.165922 
L 261.818182 347.426395 
L 266.493506 348.856456 
L 271.168831 350.739231 
L 275.844156 352.45028 
L 280.519481 354.193792 
L 285.194805 355.030015 
L 289.87013 355.758031 
L 294.545455 356.731373 
" clip-path="url(#pbbf929f3a5)" style="fill: none; stroke: #ffa500; stroke-opacity: 0.2; stroke-width: 1.5; stroke-linecap: square"/>
   </g>
   <g id="line2d_16">
    <path d="M 65.454545 358.250385 
L 70.12987 358.281011 
L 74.805195 358.331183 
L 79.480519 358.344313 
L 84.155844 357.080744 
L 88.831169 355.337836 
L 93.506494 352.954809 
L 98.181818 351.081464 
L 102.857143 348.441052 
L 107.532468 348.251942 
L 112.207792 351.316708 
L 116.883117 351.460214 
L 121.558442 351.703374 
L 126.233766 351.680271 
L 130.909091 350.795987 
L 135.584416 349.821089 
L 140.25974 347.711095 
L 144.935065 345.493156 
L 149.61039 343.463088 
L 154.285714 343.782798 
L 158.961039 344.289755 
L 163.636364 345.614564 
L 168.311688 346.261524 
L 172.987013 345.658358 
L 177.662338 344.050896 
L 182.337662 342.942383 
L 187.012987 343.60847 
L 191.688312 344.680285 
L 196.363636 344.900695 
L 201.038961 346.267925 
L 205.714286 347.954199 
L 210.38961 350.262908 
L 215.064935 352.602753 
L 219.74026 353.644088 
L 224.415584 353.439925 
L 229.090909 353.681958 
L 233.766234 353.109312 
L 238.441558 352.499861 
L 243.116883 351.491649 
L 247.792208 350.312502 
L 252.467532 349.430832 
L 257.142857 348.067067 
L 261.818182 347.209444 
L 266.493506 348.314444 
L 271.168831 349.996289 
L 275.844156 350.990509 
L 280.519481 351.736472 
L 285.194805 352.629863 
L 289.87013 353.082079 
L 294.545455 353.769228 
" clip-path="url(#pbbf929f3a5)" style="fill: none; stroke: #ffa500; stroke-opacity: 0.2; stroke-width: 1.5; stroke-linecap: square"/>
   </g>
   <g id="line2d_17">
    <path d="M 65.454545 346.984748 
L 70.12987 346.494617 
L 74.805195 346.382415 
L 79.480519 346.859709 
L 84.155844 347.181089 
L 88.831169 345.747456 
L 93.506494 344.181121 
L 98.181818 343.575153 
L 102.857143 343.13926 
L 107.532468 342.674324 
L 112.207792 342.767034 
L 116.883117 343.003551 
L 121.558442 343.360904 
L 126.233766 344.041826 
L 130.909091 344.162395 
L 135.584416 343.789786 
L 140.25974 343.317628 
L 144.935065 343.105403 
L 149.61039 342.97028 
L 154.285714 343.596148 
L 158.961039 344.275683 
L 163.636364 345.301156 
L 168.311688 346.467982 
L 172.987013 347.817093 
L 177.662338 349.191354 
L 182.337662 350.043206 
L 187.012987 350.882048 
L 191.688312 351.413365 
L 196.363636 351.771911 
L 201.038961 352.024179 
L 205.714286 352.267834 
L 210.38961 352.907998 
L 215.064935 353.339792 
L 219.74026 353.988522 
L 224.415584 354.684994 
L 229.090909 355.117395 
L 233.766234 355.572968 
L 238.441558 356.071244 
L 243.116883 356.438671 
L 247.792208 356.106451 
L 252.467532 355.489058 
L 257.142857 354.86999 
L 261.818182 354.226132 
L 266.493506 354.344564 
L 271.168831 354.62149 
L 275.844156 355.093365 
L 280.519481 355.213449 
L 285.194805 355.745134 
L 289.87013 355.201623 
L 294.545455 355.878745 
" clip-path="url(#pbbf929f3a5)" style="fill: none; stroke: #ffa500; stroke-opacity: 0.2; stroke-width: 1.5; stroke-linecap: square"/>
   </g>
   <g id="line2d_18">
    <path d="M 65.454545 342.970408 
L 70.12987 343.060944 
L 74.805195 343.287732 
L 79.480519 344.036627 
L 84.155844 343.415555 
L 88.831169 342.984759 
L 93.506494 342.766159 
L 98.181818 342.22302 
L 102.857143 341.345171 
L 107.532468 341.57226 
L 112.207792 341.831005 
L 116.883117 341.36254 
L 121.558442 341.04064 
L 126.233766 342.816827 
L 130.909091 344.05686 
L 135.584416 344.957835 
L 140.25974 345.707425 
L 144.935065 345.91881 
L 149.61039 346.029919 
L 154.285714 346.468638 
L 158.961039 346.917132 
L 163.636364 346.862774 
L 168.311688 346.770359 
L 172.987013 346.950109 
L 177.662338 347.644446 
L 182.337662 347.863192 
L 187.012987 348.255153 
L 191.688312 348.197492 
L 196.363636 347.795482 
L 201.038961 347.260216 
L 205.714286 347.686437 
L 210.38961 348.21775 
L 215.064935 348.137161 
L 219.74026 348.513606 
L 224.415584 348.957334 
L 229.090909 349.224736 
L 233.766234 349.723497 
L 238.441558 349.793005 
L 243.116883 349.641434 
L 247.792208 349.293436 
L 252.467532 348.856293 
L 257.142857 348.871831 
L 261.818182 348.595107 
L 266.493506 347.98927 
L 271.168831 347.541631 
L 275.844156 347.806984 
L 280.519481 348.012457 
L 285.194805 348.437762 
L 289.87013 348.547965 
L 294.545455 348.638461 
" clip-path="url(#pbbf929f3a5)" style="fill: none; stroke: #ffa500; stroke-opacity: 0.2; stroke-width: 1.5; stroke-linecap: square"/>
   </g>
   <g id="line2d_19">
    <path d="M 65.454545 354.4724 
L 70.12987 354.307199 
L 74.805195 354.03421 
L 79.480519 353.202641 
L 84.155844 352.73775 
L 88.831169 352.199658 
L 93.506494 350.969113 
L 98.181818 349.92064 
L 102.857143 348.866792 
L 107.532468 347.902834 
L 112.207792 347.211391 
L 116.883117 346.716122 
L 121.558442 346.041179 
L 126.233766 345.569662 
L 130.909091 345.171026 
L 135.584416 344.966141 
L 140.25974 345.438439 
L 144.935065 345.865035 
L 149.61039 346.406622 
L 154.285714 346.778448 
L 158.961039 346.954686 
L 163.636364 347.338823 
L 168.311688 347.484334 
L 172.987013 347.761679 
L 177.662338 347.846631 
L 182.337662 348.115637 
L 187.012987 348.561641 
L 191.688312 348.867735 
L 196.363636 349.301069 
L 201.038961 349.693133 
L 205.714286 349.919338 
L 210.38961 349.98108 
L 215.064935 350.244643 
L 219.74026 350.188288 
L 224.415584 349.920924 
L 229.090909 349.613445 
L 233.766234 349.017466 
L 238.441558 348.618162 
L 243.116883 348.184254 
L 247.792208 348.31807 
L 252.467532 348.357285 
L 257.142857 348.670837 
L 261.818182 349.170744 
L 266.493506 349.612491 
L 271.168831 350.289438 
L 275.844156 350.593367 
L 280.519481 350.77431 
L 285.194805 350.689234 
L 289.87013 350.319716 
L 294.545455 350.392708 
" clip-path="url(#pbbf929f3a5)" style="fill: none; stroke: #ffa500; stroke-opacity: 0.2; stroke-width: 1.5; stroke-linecap: square"/>
   </g>
   <g id="line2d_20">
    <path d="M 65.454545 342.567207 
L 70.12987 342.46017 
L 74.805195 341.910374 
L 79.480519 339.707322 
L 84.155844 337.562703 
L 88.831169 337.802365 
L 93.506494 337.907224 
L 98.181818 337.887091 
L 102.857143 337.843809 
L 107.532468 338.395144 
L 112.207792 340.359509 
L 116.883117 343.303485 
L 121.558442 345.701903 
L 126.233766 346.814569 
L 130.909091 348.534849 
L 135.584416 347.901686 
L 140.25974 346.951615 
L 144.935065 347.459992 
L 149.61039 348.553696 
L 154.285714 349.102974 
L 158.961039 349.017192 
L 163.636364 348.554317 
L 168.311688 348.189346 
L 172.987013 348.670778 
L 177.662338 349.565066 
L 182.337662 350.325542 
L 187.012987 350.963919 
L 191.688312 351.35738 
L 196.363636 350.64767 
L 201.038961 349.501608 
L 205.714286 348.725955 
L 210.38961 349.759188 
L 215.064935 350.124369 
L 219.74026 349.325645 
L 224.415584 347.97459 
L 229.090909 345.943563 
L 233.766234 344.68671 
L 238.441558 344.406786 
L 243.116883 344.560997 
L 247.792208 345.142165 
L 252.467532 346.335261 
L 257.142857 347.480301 
L 261.818182 347.891619 
L 266.493506 348.416571 
L 271.168831 348.236164 
L 275.844156 347.223963 
L 280.519481 346.154472 
L 285.194805 345.704136 
L 289.87013 346.546587 
L 294.545455 347.662276 
" clip-path="url(#pbbf929f3a5)" style="fill: none; stroke: #ffa500; stroke-opacity: 0.2; stroke-width: 1.5; stroke-linecap: square"/>
   </g>
   <g id="line2d_21">
    <path d="M 65.454545 347.336665 
L 70.12987 347.344588 
L 74.805195 346.515304 
L 79.480519 345.098 
L 84.155844 345.012668 
L 88.831169 344.542621 
L 93.506494 343.769171 
L 98.181818 342.984967 
L 102.857143 342.319447 
L 107.532468 342.110307 
L 112.207792 341.629239 
L 116.883117 341.753862 
L 121.558442 342.419419 
L 126.233766 342.737184 
L 130.909091 342.915548 
L 135.584416 343.161508 
L 140.25974 343.355099 
L 144.935065 343.722007 
L 149.61039 344.94702 
L 154.285714 345.820389 
L 158.961039 346.417396 
L 163.636364 347.305296 
L 168.311688 348.128963 
L 172.987013 349.155878 
L 177.662338 349.968601 
L 182.337662 350.366296 
L 187.012987 350.446888 
L 191.688312 350.150078 
L 196.363636 350.217211 
L 201.038961 350.701754 
L 205.714286 351.071132 
L 210.38961 351.25546 
L 215.064935 351.815549 
L 219.74026 352.056072 
L 224.415584 352.10788 
L 229.090909 352.819845 
L 233.766234 353.302495 
L 238.441558 353.182796 
L 243.116883 353.587448 
L 247.792208 354.372117 
L 252.467532 355.845119 
L 257.142857 356.227758 
L 261.818182 356.366514 
L 266.493506 355.597788 
L 271.168831 354.593631 
L 275.844156 354.864923 
L 280.519481 355.369685 
L 285.194805 356.32469 
L 289.87013 357.178827 
L 294.545455 358.035771 
" clip-path="url(#pbbf929f3a5)" style="fill: none; stroke: #ffa500; stroke-opacity: 0.2; stroke-width: 1.5; stroke-linecap: square"/>
   </g>
   <g id="line2d_22">
    <path d="M 111.272727 382.628571 
L 111.272727 308.571429 
" clip-path="url(#pbbf929f3a5)" style="fill: none; stroke-dasharray: 5.55,2.4; stroke-dashoffset: 0; stroke: #000000; stroke-width: 1.5"/>
   </g>
   <g id="line2d_23">
    <path d="M 65.454545 345.6 
L 294.545455 345.6 
" clip-path="url(#pbbf929f3a5)" style="fill: none; stroke-dasharray: 5.55,2.4; stroke-dashoffset: 0; stroke: #000000; stroke-width: 1.5"/>
   </g>
   <g id="patch_3">
    <path d="M 50 388.8 
L 50 302.4 
" style="fill: none; stroke: #000000; stroke-width: 0.8; stroke-linejoin: miter; stroke-linecap: square"/>
   </g>
   <g id="patch_4">
    <path d="M 54 392.8 
L 306 392.8 
" style="fill: none; stroke: #000000; stroke-width: 0.8; stroke-linejoin: miter; stroke-linecap: square"/>
   </g>
   <g id="text_12">
    <!-- all depths -->
    <g transform="translate(150.492188 296.4) scale(0.12 -0.12)">
     <defs>
      <path id="DejaVuSans-70" d="M 1159 525 
L 1159 -1331 
L 581 -1331 
L 581 3500 
L 1159 3500 
L 1159 2969 
Q 1341 3281 1617 3432 
Q 1894 3584 2278 3584 
Q 2916 3584 3314 3078 
Q 3713 2572 3713 1747 
Q 3713 922 3314 415 
Q 2916 -91 2278 -91 
Q 1894 -91 1617 61 
Q 1341 213 1159 525 
z
M 3116 1747 
Q 3116 2381 2855 2742 
Q 2594 3103 2138 3103 
Q 1681 3103 1420 2742 
Q 1159 2381 1159 1747 
Q 1159 1113 1420 752 
Q 1681 391 2138 391 
Q 2594 391 2855 752 
Q 3116 1113 3116 1747 
z
" transform="scale(0.015625)"/>
     </defs>
     <use xlink:href="#DejaVuSans-61"/>
     <use xlink:href="#DejaVuSans-6c" x="61.279297"/>
     <use xlink:href="#DejaVuSans-6c" x="89.0625"/>
     <use xlink:href="#DejaVuSans-20" x="116.845703"/>
     <use xlink:href="#DejaVuSans-64" x="148.632812"/>
     <use xlink:href="#DejaVuSans-65" x="212.109375"/>
     <use xlink:href="#DejaVuSans-70" x="273.632812"/>
     <use xlink:href="#DejaVuSans-74" x="337.109375"/>
     <use xlink:href="#DejaVuSans-68" x="376.318359"/>
     <use xlink:href="#DejaVuSans-73" x="439.697266"/>
    </g>
   </g>
   <g id="legend_1">
    <g id="patch_5">
     <path d="M 118.782813 325.35625 
L 299 325.35625 
Q 301 325.35625 301 323.35625 
L 301 309.4 
Q 301 307.4 299 307.4 
L 118.782813 307.4 
Q 116.782813 307.4 116.782813 309.4 
L 116.782813 323.35625 
Q 116.782813 325.35625 118.782813 325.35625 
z
" style="fill: #ffffff; opacity: 0.8; stroke: #cccccc; stroke-linejoin: miter"/>
    </g>
    <g id="line2d_24">
     <path d="M 120.782813 315.498437 
L 130.782813 315.498437 
L 140.782813 315.498437 
" style="fill: none; stroke: #ffa500; stroke-width: 1.5; stroke-linecap: square"/>
    </g>
    <g id="text_13">
     <!-- V1_tgt_middle_deveined_orth -->
     <g transform="translate(148.782813 318.998437) scale(0.1 -0.1)">
      <defs>
       <path id="DejaVuSans-56" d="M 1831 0 
L 50 4666 
L 709 4666 
L 2188 738 
L 3669 4666 
L 4325 4666 
L 2547 0 
L 1831 0 
z
" transform="scale(0.015625)"/>
       <path id="DejaVuSans-5f" d="M 3263 -1063 
L 3263 -1509 
L -63 -1509 
L -63 -1063 
L 3263 -1063 
z
" transform="scale(0.015625)"/>
      </defs>
      <use xlink:href="#DejaVuSans-56"/>
      <use xlink:href="#DejaVuSans-31" x="68.408203"/>
      <use xlink:href="#DejaVuSans-5f" x="132.03125"/>
      <use xlink:href="#DejaVuSans-74" x="182.03125"/>
      <use xlink:href="#DejaVuSans-67" x="221.240234"/>
      <use xlink:href="#DejaVuSans-74" x="284.716797"/>
      <use xlink:href="#DejaVuSans-5f" x="323.925781"/>
      <use xlink:href="#DejaVuSans-6d" x="373.925781"/>
      <use xlink:href="#DejaVuSans-69" x="471.337891"/>
      <use xlink:href="#DejaVuSans-64" x="499.121094"/>
      <use xlink:href="#DejaVuSans-64" x="562.597656"/>
      <use xlink:href="#DejaVuSans-6c" x="626.074219"/>
      <use xlink:href="#DejaVuSans-65" x="653.857422"/>
      <use xlink:href="#DejaVuSans-5f" x="715.380859"/>
      <use xlink:href="#DejaVuSans-64" x="765.380859"/>
      <use xlink:href="#DejaVuSans-65" x="828.857422"/>
      <use xlink:href="#DejaVuSans-76" x="890.380859"/>
      <use xlink:href="#DejaVuSans-65" x="949.560547"/>
      <use xlink:href="#DejaVuSans-69" x="1011.083984"/>
      <use xlink:href="#DejaVuSans-6e" x="1038.867188"/>
      <use xlink:href="#DejaVuSans-65" x="1102.246094"/>
      <use xlink:href="#DejaVuSans-64" x="1163.769531"/>
      <use xlink:href="#DejaVuSans-5f" x="1227.246094"/>
      <use xlink:href="#DejaVuSans-6f" x="1277.246094"/>
      <use xlink:href="#DejaVuSans-72" x="1338.427734"/>
      <use xlink:href="#DejaVuSans-74" x="1379.541016"/>
      <use xlink:href="#DejaVuSans-68" x="1418.75"/>
     </g>
    </g>
   </g>
  </g>
 </g>
 <defs>
  <clipPath id="pbbf929f3a5">
   <rect x="54" y="302.4" width="252" height="86.4"/>
  </clipPath>
 </defs>
</svg>
