<?xml version="1.0" encoding="utf-8" standalone="no"?>
<!DOCTYPE svg PUBLIC "-//W3C//DTD SVG 1.1//EN"
  "http://www.w3.org/Graphics/SVG/1.1/DTD/svg11.dtd">
<svg xmlns:xlink="http://www.w3.org/1999/xlink" width="360pt" height="432pt" viewBox="0 0 360 432" xmlns="http://www.w3.org/2000/svg" version="1.1">
 <metadata>
  <rdf:RDF xmlns:dc="http://purl.org/dc/elements/1.1/" xmlns:cc="http://creativecommons.org/ns#" xmlns:rdf="http://www.w3.org/1999/02/22-rdf-syntax-ns#">
   <cc:Work>
    <dc:type rdf:resource="http://purl.org/dc/dcmitype/StillImage"/>
    <dc:date>2025-10-31T15:45:49.522614</dc:date>
    <dc:format>image/svg+xml</dc:format>
    <dc:creator>
     <cc:Agent>
      <dc:title>Matplotlib v3.8.0, https://matplotlib.org/</dc:title>
     </cc:Agent>
    </dc:creator>
   </cc:Work>
  </rdf:RDF>
 </metadata>
 <defs>
  <style type="text/css">*{stroke-linejoin: round; stroke-linecap: butt}</style>
 </defs>
 <g id="figure_1">
  <g id="patch_1">
   <path d="M 0 432 
L 360 432 
L 360 0 
L 0 0 
z
" style="fill: #ffffff"/>
  </g>
  <g id="axes_1">
   <g id="patch_2">
    <path d="M 54 388.8 
L 306 388.8 
L 306 302.4 
L 54 302.4 
z
" style="fill: #ffffff"/>
   </g>
   <g id="PolyCollection_1">
    <defs>
     <path id="m88df55f448" d="M 65.454545 -71.162292 
L 65.454545 -65.010533 
L 70.12987 -65.232304 
L 74.805195 -65.808825 
L 79.480519 -66.798916 
L 84.155844 -66.909341 
L 88.831169 -67.103176 
L 93.506494 -67.309682 
L 98.181818 -67.167911 
L 102.857143 -67.142738 
L 107.532468 -67.37896 
L 112.207792 -67.587525 
L 116.883117 -67.87654 
L 121.558442 -68.345721 
L 126.233766 -68.771537 
L 130.909091 -69.140358 
L 135.584416 -69.552018 
L 140.25974 -69.981648 
L 144.935065 -70.442914 
L 149.61039 -70.599654 
L 154.285714 -70.44027 
L 158.961039 -70.566834 
L 163.636364 -70.849502 
L 168.311688 -71.566734 
L 172.987013 -71.984897 
L 177.662338 -72.281689 
L 182.337662 -72.569976 
L 187.012987 -72.909283 
L 191.688312 -73.088024 
L 196.363636 -73.333944 
L 201.038961 -73.549011 
L 205.714286 -73.770299 
L 210.38961 -74.136575 
L 215.064935 -74.473659 
L 219.74026 -74.642449 
L 224.415584 -74.33856 
L 229.090909 -74.094272 
L 233.766234 -73.823329 
L 238.441558 -74.040174 
L 243.116883 -74.37407 
L 247.792208 -75.073788 
L 252.467532 -75.744661 
L 257.142857 -76.549678 
L 261.818182 -76.880875 
L 266.493506 -77.106394 
L 271.168831 -77.342296 
L 275.844156 -77.34407 
L 280.519481 -77.159946 
L 285.194805 -76.746709 
L 289.87013 -76.571783 
L 294.545455 -76.934598 
L 294.545455 -81.927071 
L 294.545455 -81.927071 
L 289.87013 -81.445836 
L 285.194805 -81.599953 
L 280.519481 -82.083235 
L 275.844156 -82.364784 
L 271.168831 -82.557159 
L 266.493506 -82.435616 
L 261.818182 -82.326073 
L 257.142857 -82.064014 
L 252.467532 -81.372315 
L 247.792208 -80.932407 
L 243.116883 -80.599546 
L 238.441558 -80.404755 
L 233.766234 -80.159266 
L 229.090909 -80.188035 
L 224.415584 -80.165119 
L 219.74026 -80.401404 
L 215.064935 -80.370555 
L 210.38961 -80.097698 
L 205.714286 -79.694812 
L 201.038961 -79.410012 
L 196.363636 -79.145654 
L 191.688312 -78.780375 
L 187.012987 -78.661863 
L 182.337662 -78.333341 
L 177.662338 -78.049718 
L 172.987013 -77.722329 
L 168.311688 -77.182172 
L 163.636364 -76.550897 
L 158.961039 -76.294188 
L 154.285714 -76.2429 
L 149.61039 -76.58023 
L 144.935065 -76.629845 
L 140.25974 -76.324901 
L 135.584416 -75.70456 
L 130.909091 -75.348296 
L 126.233766 -75.133904 
L 121.558442 -74.838138 
L 116.883117 -74.818761 
L 112.207792 -74.765982 
L 107.532468 -74.719093 
L 102.857143 -74.384992 
L 98.181818 -74.072379 
L 93.506494 -74.112692 
L 88.831169 -74.094398 
L 84.155844 -74.094168 
L 79.480519 -73.82435 
L 74.805195 -72.461394 
L 70.12987 -71.550052 
L 65.454545 -71.162292 
z
" style="stroke: #808080; stroke-opacity: 0.4"/>
    </defs>
    <g clip-path="url(#p8ef40c57b6)">
     <use xlink:href="#m88df55f448" x="0" y="432" style="fill: #808080; fill-opacity: 0.4; stroke: #808080; stroke-opacity: 0.4"/>
    </g>
   </g>
   <g id="matplotlib.axis_1">
    <g id="xtick_1">
     <g id="line2d_1">
      <defs>
       <path id="m1600aa7131" d="M 0 0 
L 0 3.5 
" style="stroke: #000000; stroke-width: 0.8"/>
      </defs>
      <g>
       <use xlink:href="#m1600aa7131" x="65.454545" y="392.8" style="stroke: #000000; stroke-width: 0.8"/>
      </g>
     </g>
     <g id="text_1">
      <!-- 0 -->
      <g transform="translate(62.273295 407.398438) scale(0.1 -0.1)">
       <defs>
        <path id="DejaVuSans-30" d="M 2034 4250 
Q 1547 4250 1301 3770 
Q 1056 3291 1056 2328 
Q 1056 1369 1301 889 
Q 1547 409 2034 409 
Q 2525 409 2770 889 
Q 3016 1369 3016 2328 
Q 3016 3291 2770 3770 
Q 2525 4250 2034 4250 
z
M 2034 4750 
Q 2819 4750 3233 4129 
Q 3647 3509 3647 2328 
Q 3647 1150 3233 529 
Q 2819 -91 2034 -91 
Q 1250 -91 836 529 
Q 422 1150 422 2328 
Q 422 3509 836 4129 
Q 1250 4750 2034 4750 
z
" transform="scale(0.015625)"/>
       </defs>
       <use xlink:href="#DejaVuSans-30"/>
      </g>
     </g>
    </g>
    <g id="xtick_2">
     <g id="line2d_2">
      <g>
       <use xlink:href="#m1600aa7131" x="111.272727" y="392.8" style="stroke: #000000; stroke-width: 0.8"/>
      </g>
     </g>
     <g id="text_2">
      <!-- 1 -->
      <g transform="translate(108.091477 407.398438) scale(0.1 -0.1)">
       <defs>
        <path id="DejaVuSans-31" d="M 794 531 
L 1825 531 
L 1825 4091 
L 703 3866 
L 703 4441 
L 1819 4666 
L 2450 4666 
L 2450 531 
L 3481 531 
L 3481 0 
L 794 0 
L 794 531 
z
" transform="scale(0.015625)"/>
       </defs>
       <use xlink:href="#DejaVuSans-31"/>
      </g>
     </g>
    </g>
    <g id="xtick_3">
     <g id="line2d_3">
      <g>
       <use xlink:href="#m1600aa7131" x="157.090909" y="392.8" style="stroke: #000000; stroke-width: 0.8"/>
      </g>
     </g>
     <g id="text_3">
      <!-- 2 -->
      <g transform="translate(153.909659 407.398438) scale(0.1 -0.1)">
       <defs>
        <path id="DejaVuSans-32" d="M 1228 531 
L 3431 531 
L 3431 0 
L 469 0 
L 469 531 
Q 828 903 1448 1529 
Q 2069 2156 2228 2338 
Q 2531 2678 2651 2914 
Q 2772 3150 2772 3378 
Q 2772 3750 2511 3984 
Q 2250 4219 1831 4219 
Q 1534 4219 1204 4116 
Q 875 4013 500 3803 
L 500 4441 
Q 881 4594 1212 4672 
Q 1544 4750 1819 4750 
Q 2544 4750 2975 4387 
Q 3406 4025 3406 3419 
Q 3406 3131 3298 2873 
Q 3191 2616 2906 2266 
Q 2828 2175 2409 1742 
Q 1991 1309 1228 531 
z
" transform="scale(0.015625)"/>
       </defs>
       <use xlink:href="#DejaVuSans-32"/>
      </g>
     </g>
    </g>
    <g id="xtick_4">
     <g id="line2d_4">
      <g>
       <use xlink:href="#m1600aa7131" x="202.909091" y="392.8" style="stroke: #000000; stroke-width: 0.8"/>
      </g>
     </g>
     <g id="text_4">
      <!-- 3 -->
      <g transform="translate(199.727841 407.398438) scale(0.1 -0.1)">
       <defs>
        <path id="DejaVuSans-33" d="M 2597 2516 
Q 3050 2419 3304 2112 
Q 3559 1806 3559 1356 
Q 3559 666 3084 287 
Q 2609 -91 1734 -91 
Q 1441 -91 1130 -33 
Q 819 25 488 141 
L 488 750 
Q 750 597 1062 519 
Q 1375 441 1716 441 
Q 2309 441 2620 675 
Q 2931 909 2931 1356 
Q 2931 1769 2642 2001 
Q 2353 2234 1838 2234 
L 1294 2234 
L 1294 2753 
L 1863 2753 
Q 2328 2753 2575 2939 
Q 2822 3125 2822 3475 
Q 2822 3834 2567 4026 
Q 2313 4219 1838 4219 
Q 1578 4219 1281 4162 
Q 984 4106 628 3988 
L 628 4550 
Q 988 4650 1302 4700 
Q 1616 4750 1894 4750 
Q 2613 4750 3031 4423 
Q 3450 4097 3450 3541 
Q 3450 3153 3228 2886 
Q 3006 2619 2597 2516 
z
" transform="scale(0.015625)"/>
       </defs>
       <use xlink:href="#DejaVuSans-33"/>
      </g>
     </g>
    </g>
    <g id="xtick_5">
     <g id="line2d_5">
      <g>
       <use xlink:href="#m1600aa7131" x="248.727273" y="392.8" style="stroke: #000000; stroke-width: 0.8"/>
      </g>
     </g>
     <g id="text_5">
      <!-- 4 -->
      <g transform="translate(245.546023 407.398438) scale(0.1 -0.1)">
       <defs>
        <path id="DejaVuSans-34" d="M 2419 4116 
L 825 1625 
L 2419 1625 
L 2419 4116 
z
M 2253 4666 
L 3047 4666 
L 3047 1625 
L 3713 1625 
L 3713 1100 
L 3047 1100 
L 3047 0 
L 2419 0 
L 2419 1100 
L 313 1100 
L 313 1709 
L 2253 4666 
z
" transform="scale(0.015625)"/>
       </defs>
       <use xlink:href="#DejaVuSans-34"/>
      </g>
     </g>
    </g>
    <g id="xtick_6">
     <g id="line2d_6">
      <g>
       <use xlink:href="#m1600aa7131" x="294.545455" y="392.8" style="stroke: #000000; stroke-width: 0.8"/>
      </g>
     </g>
     <g id="text_6">
      <!-- 5 -->
      <g transform="translate(291.364205 407.398438) scale(0.1 -0.1)">
       <defs>
        <path id="DejaVuSans-35" d="M 691 4666 
L 3169 4666 
L 3169 4134 
L 1269 4134 
L 1269 2991 
Q 1406 3038 1543 3061 
Q 1681 3084 1819 3084 
Q 2600 3084 3056 2656 
Q 3513 2228 3513 1497 
Q 3513 744 3044 326 
Q 2575 -91 1722 -91 
Q 1428 -91 1123 -41 
Q 819 9 494 109 
L 494 744 
Q 775 591 1075 516 
Q 1375 441 1709 441 
Q 2250 441 2565 725 
Q 2881 1009 2881 1497 
Q 2881 1984 2565 2268 
Q 2250 2553 1709 2553 
Q 1456 2553 1204 2497 
Q 953 2441 691 2322 
L 691 4666 
z
" transform="scale(0.015625)"/>
       </defs>
       <use xlink:href="#DejaVuSans-35"/>
      </g>
     </g>
    </g>
    <g id="text_7">
     <!-- relative distance from ROI center ($\sigma$) -->
     <g transform="translate(106.48 419.556875) scale(0.08 -0.08)">
      <defs>
       <path id="DejaVuSans-72" d="M 2631 2963 
Q 2534 3019 2420 3045 
Q 2306 3072 2169 3072 
Q 1681 3072 1420 2755 
Q 1159 2438 1159 1844 
L 1159 0 
L 581 0 
L 581 3500 
L 1159 3500 
L 1159 2956 
Q 1341 3275 1631 3429 
Q 1922 3584 2338 3584 
Q 2397 3584 2469 3576 
Q 2541 3569 2628 3553 
L 2631 2963 
z
" transform="scale(0.015625)"/>
       <path id="DejaVuSans-65" d="M 3597 1894 
L 3597 1613 
L 953 1613 
Q 991 1019 1311 708 
Q 1631 397 2203 397 
Q 2534 397 2845 478 
Q 3156 559 3463 722 
L 3463 178 
Q 3153 47 2828 -22 
Q 2503 -91 2169 -91 
Q 1331 -91 842 396 
Q 353 884 353 1716 
Q 353 2575 817 3079 
Q 1281 3584 2069 3584 
Q 2775 3584 3186 3129 
Q 3597 2675 3597 1894 
z
M 3022 2063 
Q 3016 2534 2758 2815 
Q 2500 3097 2075 3097 
Q 1594 3097 1305 2825 
Q 1016 2553 972 2059 
L 3022 2063 
z
" transform="scale(0.015625)"/>
       <path id="DejaVuSans-6c" d="M 603 4863 
L 1178 4863 
L 1178 0 
L 603 0 
L 603 4863 
z
" transform="scale(0.015625)"/>
       <path id="DejaVuSans-61" d="M 2194 1759 
Q 1497 1759 1228 1600 
Q 959 1441 959 1056 
Q 959 750 1161 570 
Q 1363 391 1709 391 
Q 2188 391 2477 730 
Q 2766 1069 2766 1631 
L 2766 1759 
L 2194 1759 
z
M 3341 1997 
L 3341 0 
L 2766 0 
L 2766 531 
Q 2569 213 2275 61 
Q 1981 -91 1556 -91 
Q 1019 -91 701 211 
Q 384 513 384 1019 
Q 384 1609 779 1909 
Q 1175 2209 1959 2209 
L 2766 2209 
L 2766 2266 
Q 2766 2663 2505 2880 
Q 2244 3097 1772 3097 
Q 1472 3097 1187 3025 
Q 903 2953 641 2809 
L 641 3341 
Q 956 3463 1253 3523 
Q 1550 3584 1831 3584 
Q 2591 3584 2966 3190 
Q 3341 2797 3341 1997 
z
" transform="scale(0.015625)"/>
       <path id="DejaVuSans-74" d="M 1172 4494 
L 1172 3500 
L 2356 3500 
L 2356 3053 
L 1172 3053 
L 1172 1153 
Q 1172 725 1289 603 
Q 1406 481 1766 481 
L 2356 481 
L 2356 0 
L 1766 0 
Q 1100 0 847 248 
Q 594 497 594 1153 
L 594 3053 
L 172 3053 
L 172 3500 
L 594 3500 
L 594 4494 
L 1172 4494 
z
" transform="scale(0.015625)"/>
       <path id="DejaVuSans-69" d="M 603 3500 
L 1178 3500 
L 1178 0 
L 603 0 
L 603 3500 
z
M 603 4863 
L 1178 4863 
L 1178 4134 
L 603 4134 
L 603 4863 
z
" transform="scale(0.015625)"/>
       <path id="DejaVuSans-76" d="M 191 3500 
L 800 3500 
L 1894 563 
L 2988 3500 
L 3597 3500 
L 2284 0 
L 1503 0 
L 191 3500 
z
" transform="scale(0.015625)"/>
       <path id="DejaVuSans-20" transform="scale(0.015625)"/>
       <path id="DejaVuSans-64" d="M 2906 2969 
L 2906 4863 
L 3481 4863 
L 3481 0 
L 2906 0 
L 2906 525 
Q 2725 213 2448 61 
Q 2172 -91 1784 -91 
Q 1150 -91 751 415 
Q 353 922 353 1747 
Q 353 2572 751 3078 
Q 1150 3584 1784 3584 
Q 2172 3584 2448 3432 
Q 2725 3281 2906 2969 
z
M 947 1747 
Q 947 1113 1208 752 
Q 1469 391 1925 391 
Q 2381 391 2643 752 
Q 2906 1113 2906 1747 
Q 2906 2381 2643 2742 
Q 2381 3103 1925 3103 
Q 1469 3103 1208 2742 
Q 947 2381 947 1747 
z
" transform="scale(0.015625)"/>
       <path id="DejaVuSans-73" d="M 2834 3397 
L 2834 2853 
Q 2591 2978 2328 3040 
Q 2066 3103 1784 3103 
Q 1356 3103 1142 2972 
Q 928 2841 928 2578 
Q 928 2378 1081 2264 
Q 1234 2150 1697 2047 
L 1894 2003 
Q 2506 1872 2764 1633 
Q 3022 1394 3022 966 
Q 3022 478 2636 193 
Q 2250 -91 1575 -91 
Q 1294 -91 989 -36 
Q 684 19 347 128 
L 347 722 
Q 666 556 975 473 
Q 1284 391 1588 391 
Q 1994 391 2212 530 
Q 2431 669 2431 922 
Q 2431 1156 2273 1281 
Q 2116 1406 1581 1522 
L 1381 1569 
Q 847 1681 609 1914 
Q 372 2147 372 2553 
Q 372 3047 722 3315 
Q 1072 3584 1716 3584 
Q 2034 3584 2315 3537 
Q 2597 3491 2834 3397 
z
" transform="scale(0.015625)"/>
       <path id="DejaVuSans-6e" d="M 3513 2113 
L 3513 0 
L 2938 0 
L 2938 2094 
Q 2938 2591 2744 2837 
Q 2550 3084 2163 3084 
Q 1697 3084 1428 2787 
Q 1159 2491 1159 1978 
L 1159 0 
L 581 0 
L 581 3500 
L 1159 3500 
L 1159 2956 
Q 1366 3272 1645 3428 
Q 1925 3584 2291 3584 
Q 2894 3584 3203 3211 
Q 3513 2838 3513 2113 
z
" transform="scale(0.015625)"/>
       <path id="DejaVuSans-63" d="M 3122 3366 
L 3122 2828 
Q 2878 2963 2633 3030 
Q 2388 3097 2138 3097 
Q 1578 3097 1268 2742 
Q 959 2388 959 1747 
Q 959 1106 1268 751 
Q 1578 397 2138 397 
Q 2388 397 2633 464 
Q 2878 531 3122 666 
L 3122 134 
Q 2881 22 2623 -34 
Q 2366 -91 2075 -91 
Q 1284 -91 818 406 
Q 353 903 353 1747 
Q 353 2603 823 3093 
Q 1294 3584 2113 3584 
Q 2378 3584 2631 3529 
Q 2884 3475 3122 3366 
z
" transform="scale(0.015625)"/>
       <path id="DejaVuSans-66" d="M 2375 4863 
L 2375 4384 
L 1825 4384 
Q 1516 4384 1395 4259 
Q 1275 4134 1275 3809 
L 1275 3500 
L 2222 3500 
L 2222 3053 
L 1275 3053 
L 1275 0 
L 697 0 
L 697 3053 
L 147 3053 
L 147 3500 
L 697 3500 
L 697 3744 
Q 697 4328 969 4595 
Q 1241 4863 1831 4863 
L 2375 4863 
z
" transform="scale(0.015625)"/>
       <path id="DejaVuSans-6f" d="M 1959 3097 
Q 1497 3097 1228 2736 
Q 959 2375 959 1747 
Q 959 1119 1226 758 
Q 1494 397 1959 397 
Q 2419 397 2687 759 
Q 2956 1122 2956 1747 
Q 2956 2369 2687 2733 
Q 2419 3097 1959 3097 
z
M 1959 3584 
Q 2709 3584 3137 3096 
Q 3566 2609 3566 1747 
Q 3566 888 3137 398 
Q 2709 -91 1959 -91 
Q 1206 -91 779 398 
Q 353 888 353 1747 
Q 353 2609 779 3096 
Q 1206 3584 1959 3584 
z
" transform="scale(0.015625)"/>
       <path id="DejaVuSans-6d" d="M 3328 2828 
Q 3544 3216 3844 3400 
Q 4144 3584 4550 3584 
Q 5097 3584 5394 3201 
Q 5691 2819 5691 2113 
L 5691 0 
L 5113 0 
L 5113 2094 
Q 5113 2597 4934 2840 
Q 4756 3084 4391 3084 
Q 3944 3084 3684 2787 
Q 3425 2491 3425 1978 
L 3425 0 
L 2847 0 
L 2847 2094 
Q 2847 2600 2669 2842 
Q 2491 3084 2119 3084 
Q 1678 3084 1418 2786 
Q 1159 2488 1159 1978 
L 1159 0 
L 581 0 
L 581 3500 
L 1159 3500 
L 1159 2956 
Q 1356 3278 1631 3431 
Q 1906 3584 2284 3584 
Q 2666 3584 2933 3390 
Q 3200 3197 3328 2828 
z
" transform="scale(0.015625)"/>
       <path id="DejaVuSans-52" d="M 2841 2188 
Q 3044 2119 3236 1894 
Q 3428 1669 3622 1275 
L 4263 0 
L 3584 0 
L 2988 1197 
Q 2756 1666 2539 1819 
Q 2322 1972 1947 1972 
L 1259 1972 
L 1259 0 
L 628 0 
L 628 4666 
L 2053 4666 
Q 2853 4666 3247 4331 
Q 3641 3997 3641 3322 
Q 3641 2881 3436 2590 
Q 3231 2300 2841 2188 
z
M 1259 4147 
L 1259 2491 
L 2053 2491 
Q 2509 2491 2742 2702 
Q 2975 2913 2975 3322 
Q 2975 3731 2742 3939 
Q 2509 4147 2053 4147 
L 1259 4147 
z
" transform="scale(0.015625)"/>
       <path id="DejaVuSans-4f" d="M 2522 4238 
Q 1834 4238 1429 3725 
Q 1025 3213 1025 2328 
Q 1025 1447 1429 934 
Q 1834 422 2522 422 
Q 3209 422 3611 934 
Q 4013 1447 4013 2328 
Q 4013 3213 3611 3725 
Q 3209 4238 2522 4238 
z
M 2522 4750 
Q 3503 4750 4090 4092 
Q 4678 3434 4678 2328 
Q 4678 1225 4090 567 
Q 3503 -91 2522 -91 
Q 1538 -91 948 565 
Q 359 1222 359 2328 
Q 359 3434 948 4092 
Q 1538 4750 2522 4750 
z
" transform="scale(0.015625)"/>
       <path id="DejaVuSans-49" d="M 628 4666 
L 1259 4666 
L 1259 0 
L 628 0 
L 628 4666 
z
" transform="scale(0.015625)"/>
       <path id="DejaVuSans-28" d="M 1984 4856 
Q 1566 4138 1362 3434 
Q 1159 2731 1159 2009 
Q 1159 1288 1364 580 
Q 1569 -128 1984 -844 
L 1484 -844 
Q 1016 -109 783 600 
Q 550 1309 550 2009 
Q 550 2706 781 3412 
Q 1013 4119 1484 4856 
L 1984 4856 
z
" transform="scale(0.015625)"/>
       <path id="DejaVuSans-Oblique-3c3" d="M 2219 3044 
Q 1744 3044 1422 2700 
Q 1081 2341 969 1747 
Q 844 1119 1044 756 
Q 1241 397 1706 397 
Q 2166 397 2503 759 
Q 2844 1122 2966 1747 
Q 3075 2319 2881 2700 
Q 2700 3044 2219 3044 
z
M 2309 3503 
L 4219 3500 
L 4106 2925 
L 3463 2925 
Q 3706 2438 3575 1747 
Q 3406 888 2884 400 
Q 2359 -91 1609 -91 
Q 856 -91 525 400 
Q 194 888 363 1747 
Q 528 2609 1050 3097 
Q 1484 3503 2309 3503 
z
" transform="scale(0.015625)"/>
       <path id="DejaVuSans-29" d="M 513 4856 
L 1013 4856 
Q 1481 4119 1714 3412 
Q 1947 2706 1947 2009 
Q 1947 1309 1714 600 
Q 1481 -109 1013 -844 
L 513 -844 
Q 928 -128 1133 580 
Q 1338 1288 1338 2009 
Q 1338 2731 1133 3434 
Q 928 4138 513 4856 
z
" transform="scale(0.015625)"/>
      </defs>
      <use xlink:href="#DejaVuSans-72" transform="translate(0 0.015625)"/>
      <use xlink:href="#DejaVuSans-65" transform="translate(41.113281 0.015625)"/>
      <use xlink:href="#DejaVuSans-6c" transform="translate(102.636719 0.015625)"/>
      <use xlink:href="#DejaVuSans-61" transform="translate(130.419922 0.015625)"/>
      <use xlink:href="#DejaVuSans-74" transform="translate(191.699219 0.015625)"/>
      <use xlink:href="#DejaVuSans-69" transform="translate(230.908203 0.015625)"/>
      <use xlink:href="#DejaVuSans-76" transform="translate(258.691406 0.015625)"/>
      <use xlink:href="#DejaVuSans-65" transform="translate(317.871094 0.015625)"/>
      <use xlink:href="#DejaVuSans-20" transform="translate(379.394531 0.015625)"/>
      <use xlink:href="#DejaVuSans-64" transform="translate(411.181641 0.015625)"/>
      <use xlink:href="#DejaVuSans-69" transform="translate(474.658203 0.015625)"/>
      <use xlink:href="#DejaVuSans-73" transform="translate(502.441406 0.015625)"/>
      <use xlink:href="#DejaVuSans-74" transform="translate(554.541016 0.015625)"/>
      <use xlink:href="#DejaVuSans-61" transform="translate(593.75 0.015625)"/>
      <use xlink:href="#DejaVuSans-6e" transform="translate(655.029297 0.015625)"/>
      <use xlink:href="#DejaVuSans-63" transform="translate(718.408203 0.015625)"/>
      <use xlink:href="#DejaVuSans-65" transform="translate(773.388672 0.015625)"/>
      <use xlink:href="#DejaVuSans-20" transform="translate(834.912109 0.015625)"/>
      <use xlink:href="#DejaVuSans-66" transform="translate(866.699219 0.015625)"/>
      <use xlink:href="#DejaVuSans-72" transform="translate(901.904297 0.015625)"/>
      <use xlink:href="#DejaVuSans-6f" transform="translate(943.017578 0.015625)"/>
      <use xlink:href="#DejaVuSans-6d" transform="translate(1004.199219 0.015625)"/>
      <use xlink:href="#DejaVuSans-20" transform="translate(1101.611328 0.015625)"/>
      <use xlink:href="#DejaVuSans-52" transform="translate(1133.398438 0.015625)"/>
      <use xlink:href="#DejaVuSans-4f" transform="translate(1202.880859 0.015625)"/>
      <use xlink:href="#DejaVuSans-49" transform="translate(1281.591797 0.015625)"/>
      <use xlink:href="#DejaVuSans-20" transform="translate(1311.083984 0.015625)"/>
      <use xlink:href="#DejaVuSans-63" transform="translate(1342.871094 0.015625)"/>
      <use xlink:href="#DejaVuSans-65" transform="translate(1397.851562 0.015625)"/>
      <use xlink:href="#DejaVuSans-6e" transform="translate(1459.375 0.015625)"/>
      <use xlink:href="#DejaVuSans-74" transform="translate(1522.753906 0.015625)"/>
      <use xlink:href="#DejaVuSans-65" transform="translate(1561.962891 0.015625)"/>
      <use xlink:href="#DejaVuSans-72" transform="translate(1623.486328 0.015625)"/>
      <use xlink:href="#DejaVuSans-20" transform="translate(1664.599609 0.015625)"/>
      <use xlink:href="#DejaVuSans-28" transform="translate(1696.386719 0.015625)"/>
      <use xlink:href="#DejaVuSans-Oblique-3c3" transform="translate(1735.400391 0.015625)"/>
      <use xlink:href="#DejaVuSans-29" transform="translate(1798.779297 0.015625)"/>
     </g>
    </g>
   </g>
   <g id="matplotlib.axis_2">
    <g id="ytick_1">
     <g id="line2d_7">
      <defs>
       <path id="mb96cbff9ff" d="M 0 0 
L -3.5 0 
" style="stroke: #000000; stroke-width: 0.8"/>
      </defs>
      <g>
       <use xlink:href="#mb96cbff9ff" x="50" y="376.457143" style="stroke: #000000; stroke-width: 0.8"/>
      </g>
     </g>
     <g id="text_8">
      <!-- −5 -->
      <g transform="translate(28.257812 380.256362) scale(0.1 -0.1)">
       <defs>
        <path id="DejaVuSans-2212" d="M 678 2272 
L 4684 2272 
L 4684 1741 
L 678 1741 
L 678 2272 
z
" transform="scale(0.015625)"/>
       </defs>
       <use xlink:href="#DejaVuSans-2212"/>
       <use xlink:href="#DejaVuSans-35" x="83.789062"/>
      </g>
     </g>
    </g>
    <g id="ytick_2">
     <g id="line2d_8">
      <g>
       <use xlink:href="#mb96cbff9ff" x="50" y="345.6" style="stroke: #000000; stroke-width: 0.8"/>
      </g>
     </g>
     <g id="text_9">
      <!-- 0 -->
      <g transform="translate(36.6375 349.399219) scale(0.1 -0.1)">
       <use xlink:href="#DejaVuSans-30"/>
      </g>
     </g>
    </g>
    <g id="ytick_3">
     <g id="line2d_9">
      <g>
       <use xlink:href="#mb96cbff9ff" x="50" y="314.742857" style="stroke: #000000; stroke-width: 0.8"/>
      </g>
     </g>
     <g id="text_10">
      <!-- 5 -->
      <g transform="translate(36.6375 318.542076) scale(0.1 -0.1)">
       <use xlink:href="#DejaVuSans-35"/>
      </g>
     </g>
    </g>
    <g id="text_11">
     <!-- BOLD % change -->
     <g transform="translate(22.594062 377.79625) rotate(-90) scale(0.08 -0.08)">
      <defs>
       <path id="DejaVuSans-42" d="M 1259 2228 
L 1259 519 
L 2272 519 
Q 2781 519 3026 730 
Q 3272 941 3272 1375 
Q 3272 1813 3026 2020 
Q 2781 2228 2272 2228 
L 1259 2228 
z
M 1259 4147 
L 1259 2741 
L 2194 2741 
Q 2656 2741 2882 2914 
Q 3109 3088 3109 3444 
Q 3109 3797 2882 3972 
Q 2656 4147 2194 4147 
L 1259 4147 
z
M 628 4666 
L 2241 4666 
Q 2963 4666 3353 4366 
Q 3744 4066 3744 3513 
Q 3744 3084 3544 2831 
Q 3344 2578 2956 2516 
Q 3422 2416 3680 2098 
Q 3938 1781 3938 1306 
Q 3938 681 3513 340 
Q 3088 0 2303 0 
L 628 0 
L 628 4666 
z
" transform="scale(0.015625)"/>
       <path id="DejaVuSans-4c" d="M 628 4666 
L 1259 4666 
L 1259 531 
L 3531 531 
L 3531 0 
L 628 0 
L 628 4666 
z
" transform="scale(0.015625)"/>
       <path id="DejaVuSans-44" d="M 1259 4147 
L 1259 519 
L 2022 519 
Q 2988 519 3436 956 
Q 3884 1394 3884 2338 
Q 3884 3275 3436 3711 
Q 2988 4147 2022 4147 
L 1259 4147 
z
M 628 4666 
L 1925 4666 
Q 3281 4666 3915 4102 
Q 4550 3538 4550 2338 
Q 4550 1131 3912 565 
Q 3275 0 1925 0 
L 628 0 
L 628 4666 
z
" transform="scale(0.015625)"/>
       <path id="DejaVuSans-25" d="M 4653 2053 
Q 4381 2053 4226 1822 
Q 4072 1591 4072 1178 
Q 4072 772 4226 539 
Q 4381 306 4653 306 
Q 4919 306 5073 539 
Q 5228 772 5228 1178 
Q 5228 1588 5073 1820 
Q 4919 2053 4653 2053 
z
M 4653 2450 
Q 5147 2450 5437 2106 
Q 5728 1763 5728 1178 
Q 5728 594 5436 251 
Q 5144 -91 4653 -91 
Q 4153 -91 3862 251 
Q 3572 594 3572 1178 
Q 3572 1766 3864 2108 
Q 4156 2450 4653 2450 
z
M 1428 4353 
Q 1159 4353 1004 4120 
Q 850 3888 850 3481 
Q 850 3069 1003 2837 
Q 1156 2606 1428 2606 
Q 1700 2606 1854 2837 
Q 2009 3069 2009 3481 
Q 2009 3884 1853 4118 
Q 1697 4353 1428 4353 
z
M 4250 4750 
L 4750 4750 
L 1831 -91 
L 1331 -91 
L 4250 4750 
z
M 1428 4750 
Q 1922 4750 2215 4408 
Q 2509 4066 2509 3481 
Q 2509 2891 2217 2550 
Q 1925 2209 1428 2209 
Q 931 2209 642 2551 
Q 353 2894 353 3481 
Q 353 4063 643 4406 
Q 934 4750 1428 4750 
z
" transform="scale(0.015625)"/>
       <path id="DejaVuSans-68" d="M 3513 2113 
L 3513 0 
L 2938 0 
L 2938 2094 
Q 2938 2591 2744 2837 
Q 2550 3084 2163 3084 
Q 1697 3084 1428 2787 
Q 1159 2491 1159 1978 
L 1159 0 
L 581 0 
L 581 4863 
L 1159 4863 
L 1159 2956 
Q 1366 3272 1645 3428 
Q 1925 3584 2291 3584 
Q 2894 3584 3203 3211 
Q 3513 2838 3513 2113 
z
" transform="scale(0.015625)"/>
       <path id="DejaVuSans-67" d="M 2906 1791 
Q 2906 2416 2648 2759 
Q 2391 3103 1925 3103 
Q 1463 3103 1205 2759 
Q 947 2416 947 1791 
Q 947 1169 1205 825 
Q 1463 481 1925 481 
Q 2391 481 2648 825 
Q 2906 1169 2906 1791 
z
M 3481 434 
Q 3481 -459 3084 -895 
Q 2688 -1331 1869 -1331 
Q 1566 -1331 1297 -1286 
Q 1028 -1241 775 -1147 
L 775 -588 
Q 1028 -725 1275 -790 
Q 1522 -856 1778 -856 
Q 2344 -856 2625 -561 
Q 2906 -266 2906 331 
L 2906 616 
Q 2728 306 2450 153 
Q 2172 0 1784 0 
Q 1141 0 747 490 
Q 353 981 353 1791 
Q 353 2603 747 3093 
Q 1141 3584 1784 3584 
Q 2172 3584 2450 3431 
Q 2728 3278 2906 2969 
L 2906 3500 
L 3481 3500 
L 3481 434 
z
" transform="scale(0.015625)"/>
      </defs>
      <use xlink:href="#DejaVuSans-42"/>
      <use xlink:href="#DejaVuSans-4f" x="66.853516"/>
      <use xlink:href="#DejaVuSans-4c" x="145.564453"/>
      <use xlink:href="#DejaVuSans-44" x="201.277344"/>
      <use xlink:href="#DejaVuSans-20" x="278.279297"/>
      <use xlink:href="#DejaVuSans-25" x="310.066406"/>
      <use xlink:href="#DejaVuSans-20" x="405.085938"/>
      <use xlink:href="#DejaVuSans-63" x="436.873047"/>
      <use xlink:href="#DejaVuSans-68" x="491.853516"/>
      <use xlink:href="#DejaVuSans-61" x="555.232422"/>
      <use xlink:href="#DejaVuSans-6e" x="616.511719"/>
      <use xlink:href="#DejaVuSans-67" x="679.890625"/>
      <use xlink:href="#DejaVuSans-65" x="743.367188"/>
     </g>
    </g>
   </g>
   <g id="line2d_10">
    <path d="M 65.454545 363.913588 
L 70.12987 363.608822 
L 74.805195 362.86489 
L 79.480519 361.688367 
L 84.155844 361.498246 
L 88.831169 361.401213 
L 93.506494 361.288813 
L 98.181818 361.379855 
L 102.857143 361.236135 
L 107.532468 360.950974 
L 112.207792 360.823247 
L 116.883117 360.652349 
L 121.558442 360.408071 
L 126.233766 360.04728 
L 130.909091 359.755673 
L 135.584416 359.371711 
L 140.25974 358.846726 
L 144.935065 358.46362 
L 149.61039 358.410058 
L 154.285714 358.658415 
L 158.961039 358.569489 
L 163.636364 358.299801 
L 168.311688 357.625547 
L 172.987013 357.146387 
L 177.662338 356.834296 
L 182.337662 356.548342 
L 187.012987 356.214427 
L 191.688312 356.0658 
L 196.363636 355.760201 
L 201.038961 355.520489 
L 205.714286 355.267445 
L 210.38961 354.882863 
L 215.064935 354.577893 
L 219.74026 354.478074 
L 224.415584 354.74816 
L 229.090909 354.858847 
L 233.766234 355.008702 
L 238.441558 354.777536 
L 243.116883 354.513192 
L 247.792208 353.996902 
L 252.467532 353.441512 
L 257.142857 352.693154 
L 261.818182 352.396526 
L 266.493506 352.228995 
L 271.168831 352.050273 
L 275.844156 352.145573 
L 280.519481 352.378409 
L 285.194805 352.826669 
L 289.87013 352.99119 
L 294.545455 352.569166 
" clip-path="url(#p8ef40c57b6)" style="fill: none; stroke: #808080; stroke-width: 1.5; stroke-linecap: square"/>
   </g>
   <g id="line2d_11">
    <path d="M 65.454545 371.537984 
L 70.12987 371.721089 
L 74.805195 370.958512 
L 79.480519 369.768954 
L 84.155844 369.727088 
L 88.831169 369.107973 
L 93.506494 369.067921 
L 98.181818 370.78633 
L 102.857143 372.126218 
L 107.532468 372.846525 
L 112.207792 372.523453 
L 116.883117 372.409652 
L 121.558442 370.992348 
L 126.233766 370.158785 
L 130.909091 368.770708 
L 135.584416 367.288648 
L 140.25974 366.298392 
L 144.935065 364.710336 
L 149.61039 364.299275 
L 154.285714 364.259982 
L 158.961039 363.966029 
L 163.636364 364.248197 
L 168.311688 364.472398 
L 172.987013 364.831538 
L 177.662338 365.499586 
L 182.337662 365.459014 
L 187.012987 364.853111 
L 191.688312 363.883221 
L 196.363636 363.084216 
L 201.038961 362.89938 
L 205.714286 362.883617 
L 210.38961 362.632989 
L 215.064935 361.762406 
L 219.74026 359.916362 
L 224.415584 358.519391 
L 229.090909 357.637437 
L 233.766234 357.799138 
L 238.441558 357.293666 
L 243.116883 356.577693 
L 247.792208 355.748303 
L 252.467532 354.670577 
L 257.142857 353.447937 
L 261.818182 352.45548 
L 266.493506 351.794902 
L 271.168831 350.251241 
L 275.844156 350.177689 
L 280.519481 350.552221 
L 285.194805 350.346922 
L 289.87013 348.809265 
L 294.545455 347.40975 
" clip-path="url(#p8ef40c57b6)" style="fill: none; stroke: #808080; stroke-opacity: 0.2; stroke-width: 1.5; stroke-linecap: square"/>
   </g>
   <g id="line2d_12">
    <path d="M 65.454545 369.154828 
L 70.12987 369.154828 
L 74.805195 368.19149 
L 79.480519 366.897349 
L 84.155844 365.704944 
L 88.831169 365.103556 
L 93.506494 364.51153 
L 98.181818 363.391416 
L 102.857143 362.579347 
L 107.532468 361.526008 
L 112.207792 360.62659 
L 116.883117 359.634622 
L 121.558442 359.694076 
L 126.233766 360.323038 
L 130.909091 360.507049 
L 135.584416 360.567501 
L 140.25974 360.589598 
L 144.935065 360.464054 
L 149.61039 360.350784 
L 154.285714 360.467459 
L 158.961039 360.534308 
L 163.636364 360.13594 
L 168.311688 359.775494 
L 172.987013 359.193357 
L 177.662338 358.24312 
L 182.337662 357.21062 
L 187.012987 356.238966 
L 191.688312 355.573699 
L 196.363636 354.88359 
L 201.038961 354.131256 
L 205.714286 353.93069 
L 210.38961 353.803494 
L 215.064935 353.596959 
L 219.74026 353.883842 
L 224.415584 353.983311 
L 229.090909 354.028409 
L 233.766234 353.660912 
L 238.441558 353.688366 
L 243.116883 353.697419 
L 247.792208 353.11791 
L 252.467532 352.505566 
L 257.142857 352.126645 
L 261.818182 351.707213 
L 266.493506 351.311872 
L 271.168831 351.483387 
L 275.844156 351.675266 
L 280.519481 352.192084 
L 285.194805 352.613795 
L 289.87013 353.429009 
L 294.545455 354.007308 
" clip-path="url(#p8ef40c57b6)" style="fill: none; stroke: #808080; stroke-opacity: 0.2; stroke-width: 1.5; stroke-linecap: square"/>
   </g>
   <g id="line2d_13">
    <path d="M 65.454545 347.888235 
L 70.12987 347.720615 
L 74.805195 348.407453 
L 79.480519 348.586872 
L 84.155844 350.246707 
L 88.831169 350.108163 
L 93.506494 349.629856 
L 98.181818 350.4707 
L 102.857143 351.139656 
L 107.532468 352.263742 
L 112.207792 355.172363 
L 116.883117 357.925412 
L 121.558442 360.281119 
L 126.233766 361.667838 
L 130.909091 362.250381 
L 135.584416 362.56796 
L 140.25974 363.338129 
L 144.935065 363.41352 
L 149.61039 364.475133 
L 154.285714 365.305953 
L 158.961039 365.019101 
L 163.636364 364.834153 
L 168.311688 363.65898 
L 172.987013 362.227042 
L 177.662338 361.248389 
L 182.337662 359.589847 
L 187.012987 358.1318 
L 191.688312 356.845076 
L 196.363636 355.498786 
L 201.038961 355.050756 
L 205.714286 354.954024 
L 210.38961 354.132935 
L 215.064935 352.332609 
L 219.74026 352.122007 
L 224.415584 351.803751 
L 229.090909 352.411971 
L 233.766234 351.55367 
L 238.441558 349.498399 
L 243.116883 347.869565 
L 247.792208 347.567622 
L 252.467532 347.870644 
L 257.142857 347.323817 
L 261.818182 347.030065 
L 266.493506 346.732387 
L 271.168831 346.746033 
L 275.844156 348.467869 
L 280.519481 349.289149 
L 285.194805 352.446496 
L 289.87013 353.83295 
L 294.545455 352.222088 
" clip-path="url(#p8ef40c57b6)" style="fill: none; stroke: #808080; stroke-opacity: 0.2; stroke-width: 1.5; stroke-linecap: square"/>
   </g>
   <g id="line2d_14">
    <path d="M 65.454545 360.278473 
L 70.12987 360.278473 
L 74.805195 360.118441 
L 79.480519 359.291508 
L 84.155844 358.810935 
L 88.831169 358.588158 
L 93.506494 358.286952 
L 98.181818 359.152485 
L 102.857143 359.53637 
L 107.532468 358.879075 
L 112.207792 358.442074 
L 116.883117 358.413404 
L 121.558442 358.271744 
L 126.233766 357.189437 
L 130.909091 356.368833 
L 135.584416 355.199069 
L 140.25974 353.892411 
L 144.935065 352.848117 
L 149.61039 351.616556 
L 154.285714 350.586405 
L 158.961039 349.999776 
L 163.636364 349.557232 
L 168.311688 349.465019 
L 172.987013 349.142299 
L 177.662338 348.563671 
L 182.337662 347.958722 
L 187.012987 347.344295 
L 191.688312 346.714275 
L 196.363636 345.377284 
L 201.038961 344.448137 
L 205.714286 343.699579 
L 210.38961 343.209849 
L 215.064935 343.199558 
L 219.74026 343.382041 
L 224.415584 343.685482 
L 229.090909 343.214185 
L 233.766234 342.918038 
L 238.441558 342.461742 
L 243.116883 342.297414 
L 247.792208 342.985315 
L 252.467532 343.36737 
L 257.142857 343.231828 
L 261.818182 343.653228 
L 266.493506 343.882845 
L 271.168831 343.470175 
L 275.844156 343.301996 
L 280.519481 343.715212 
L 285.194805 344.227919 
L 289.87013 344.886405 
L 294.545455 345.451055 
" clip-path="url(#p8ef40c57b6)" style="fill: none; stroke: #808080; stroke-opacity: 0.2; stroke-width: 1.5; stroke-linecap: square"/>
   </g>
   <g id="line2d_15">
    <path d="M 65.454545 355.764893 
L 70.12987 355.534037 
L 74.805195 353.17751 
L 79.480519 351.357383 
L 84.155844 351.598314 
L 88.831169 353.007488 
L 93.506494 353.263992 
L 98.181818 352.785757 
L 102.857143 351.444729 
L 107.532468 350.083154 
L 112.207792 350.687848 
L 116.883117 351.964921 
L 121.558442 352.523627 
L 126.233766 353.456232 
L 130.909091 354.518997 
L 135.584416 356.538666 
L 140.25974 357.878933 
L 144.935065 358.205612 
L 149.61039 359.850464 
L 154.285714 361.796086 
L 158.961039 362.470752 
L 163.636364 362.155932 
L 168.311688 360.286442 
L 172.987013 359.448821 
L 177.662338 358.82051 
L 182.337662 359.161361 
L 187.012987 359.317398 
L 191.688312 359.691871 
L 196.363636 359.717266 
L 201.038961 359.619313 
L 205.714286 359.592309 
L 210.38961 359.723699 
L 215.064935 359.281841 
L 219.74026 358.268613 
L 224.415584 358.353964 
L 229.090909 358.520707 
L 233.766234 359.029132 
L 238.441558 358.974813 
L 243.116883 358.742533 
L 247.792208 358.233582 
L 252.467532 357.751818 
L 257.142857 356.734646 
L 261.818182 356.181329 
L 266.493506 356.222012 
L 271.168831 355.632751 
L 275.844156 354.897127 
L 280.519481 354.696609 
L 285.194805 354.529478 
L 289.87013 353.821922 
L 294.545455 352.196478 
" clip-path="url(#p8ef40c57b6)" style="fill: none; stroke: #808080; stroke-opacity: 0.2; stroke-width: 1.5; stroke-linecap: square"/>
   </g>
   <g id="line2d_16">
    <path d="M 65.454545 364.674662 
L 70.12987 362.685421 
L 74.805195 359.426607 
L 79.480519 358.081096 
L 84.155844 357.840872 
L 88.831169 354.254276 
L 93.506494 352.810979 
L 98.181818 350.159855 
L 102.857143 346.621409 
L 107.532468 344.396992 
L 112.207792 342.343467 
L 116.883117 341.236711 
L 121.558442 341.794988 
L 126.233766 341.431773 
L 130.909091 341.04986 
L 135.584416 340.626924 
L 140.25974 339.415709 
L 144.935065 340.284351 
L 149.61039 341.94119 
L 154.285714 343.644825 
L 158.961039 343.953881 
L 163.636364 344.210094 
L 168.311688 344.123549 
L 172.987013 343.166985 
L 177.662338 343.70564 
L 182.337662 343.790522 
L 187.012987 343.664553 
L 191.688312 343.87562 
L 196.363636 342.958124 
L 201.038961 341.974816 
L 205.714286 340.726531 
L 210.38961 339.618609 
L 215.064935 338.907955 
L 219.74026 338.901086 
L 224.415584 339.276408 
L 229.090909 337.95213 
L 233.766234 337.824318 
L 238.441558 338.238082 
L 243.116883 339.227713 
L 247.792208 340.030553 
L 252.467532 340.33539 
L 257.142857 340.58272 
L 261.818182 341.372856 
L 266.493506 342.046387 
L 271.168831 342.591495 
L 275.844156 342.413972 
L 280.519481 341.737197 
L 285.194805 341.626012 
L 289.87013 341.381101 
L 294.545455 340.930699 
" clip-path="url(#p8ef40c57b6)" style="fill: none; stroke: #808080; stroke-opacity: 0.2; stroke-width: 1.5; stroke-linecap: square"/>
   </g>
   <g id="line2d_17">
    <path d="M 65.454545 352.090997 
L 70.12987 351.690563 
L 74.805195 350.247216 
L 79.480519 348.636014 
L 84.155844 347.686584 
L 88.831169 347.530369 
L 93.506494 347.389348 
L 98.181818 347.226767 
L 102.857143 346.310702 
L 107.532468 346.171589 
L 112.207792 345.985806 
L 116.883117 345.880496 
L 121.558442 345.533928 
L 126.233766 344.66235 
L 130.909091 344.466813 
L 135.584416 344.395061 
L 140.25974 344.027559 
L 144.935065 343.82176 
L 149.61039 344.128782 
L 154.285714 344.304524 
L 158.961039 344.133312 
L 163.636364 343.279489 
L 168.311688 342.57741 
L 172.987013 341.987409 
L 177.662338 341.770375 
L 182.337662 342.144045 
L 187.012987 342.79292 
L 191.688312 343.524348 
L 196.363636 343.941995 
L 201.038961 343.940628 
L 205.714286 343.851234 
L 210.38961 343.64193 
L 215.064935 343.38095 
L 219.74026 343.234185 
L 224.415584 343.030607 
L 229.090909 342.945427 
L 233.766234 343.051572 
L 238.441558 343.201648 
L 243.116883 343.260982 
L 247.792208 343.050386 
L 252.467532 343.176707 
L 257.142857 343.214528 
L 261.818182 343.125067 
L 266.493506 343.355293 
L 271.168831 343.035608 
L 275.844156 343.115771 
L 280.519481 343.339101 
L 285.194805 343.569999 
L 289.87013 343.856889 
L 294.545455 342.648723 
" clip-path="url(#p8ef40c57b6)" style="fill: none; stroke: #808080; stroke-opacity: 0.2; stroke-width: 1.5; stroke-linecap: square"/>
   </g>
   <g id="line2d_18">
    <path d="M 65.454545 370.079066 
L 70.12987 369.819991 
L 74.805195 369.264002 
L 79.480519 368.835973 
L 84.155844 369.980107 
L 88.831169 371.631501 
L 93.506494 372.549172 
L 98.181818 373.767246 
L 102.857143 373.854902 
L 107.532468 372.496017 
L 112.207792 371.262374 
L 116.883117 370.398102 
L 121.558442 369.179103 
L 126.233766 368.487158 
L 130.909091 367.547521 
L 135.584416 365.394382 
L 140.25974 362.910349 
L 144.935065 361.110128 
L 149.61039 359.172402 
L 154.285714 357.841804 
L 158.961039 357.111037 
L 163.636364 357.20635 
L 168.311688 357.388271 
L 172.987013 358.062672 
L 177.662338 357.797778 
L 182.337662 357.447352 
L 187.012987 357.071731 
L 191.688312 357.164196 
L 196.363636 357.556881 
L 201.038961 358.085972 
L 205.714286 358.244786 
L 210.38961 358.393006 
L 215.064935 358.118213 
L 219.74026 357.526948 
L 224.415584 357.414172 
L 229.090909 357.724865 
L 233.766234 357.458331 
L 238.441558 357.07256 
L 243.116883 357.415629 
L 247.792208 357.504391 
L 252.467532 357.854227 
L 257.142857 357.552628 
L 261.818182 357.34976 
L 266.493506 357.104475 
L 271.168831 356.919819 
L 275.844156 356.479795 
L 280.519481 357.135922 
L 285.194805 358.00925 
L 289.87013 358.872867 
L 294.545455 359.198519 
" clip-path="url(#p8ef40c57b6)" style="fill: none; stroke: #808080; stroke-opacity: 0.2; stroke-width: 1.5; stroke-linecap: square"/>
   </g>
   <g id="line2d_19">
    <path d="M 65.454545 373.325234 
L 70.12987 374.09683 
L 74.805195 374.86381 
L 79.480519 374.201118 
L 84.155844 373.6357 
L 88.831169 373.335825 
L 93.506494 373.647736 
L 98.181818 374.530023 
L 102.857143 375.691367 
L 107.532468 376.343258 
L 112.207792 375.102881 
L 116.883117 373.034122 
L 121.558442 371.238459 
L 126.233766 369.627163 
L 130.909091 368.671732 
L 135.584416 368.094323 
L 140.25974 367.493162 
L 144.935065 366.828036 
L 149.61039 365.853321 
L 154.285714 365.041752 
L 158.961039 364.450736 
L 163.636364 363.599966 
L 168.311688 362.134518 
L 172.987013 361.372584 
L 177.662338 360.922407 
L 182.337662 360.654566 
L 187.012987 360.37751 
L 191.688312 360.261781 
L 196.363636 360.284009 
L 201.038961 359.987615 
L 205.714286 359.87317 
L 210.38961 360.078403 
L 215.064935 359.686234 
L 219.74026 359.004173 
L 224.415584 358.93066 
L 229.090909 359.001982 
L 233.766234 359.310878 
L 238.441558 359.657239 
L 243.116883 359.520866 
L 247.792208 359.47044 
L 252.467532 359.274973 
L 257.142857 358.534557 
L 261.818182 358.111398 
L 266.493506 358.210796 
L 271.168831 357.916429 
L 275.844156 357.423789 
L 280.519481 357.746782 
L 285.194805 357.825072 
L 289.87013 357.703223 
L 294.545455 357.109378 
" clip-path="url(#p8ef40c57b6)" style="fill: none; stroke: #808080; stroke-opacity: 0.2; stroke-width: 1.5; stroke-linecap: square"/>
   </g>
   <g id="line2d_20">
    <path d="M 65.454545 354.959976 
L 70.12987 353.617643 
L 74.805195 352.357632 
L 79.480519 348.019368 
L 84.155844 345.789575 
L 88.831169 348.213695 
L 93.506494 350.37538 
L 98.181818 351.493195 
L 102.857143 353.16222 
L 107.532468 354.773755 
L 112.207792 356.401995 
L 116.883117 356.410548 
L 121.558442 356.682586 
L 126.233766 355.99602 
L 130.909091 356.04884 
L 135.584416 354.722967 
L 140.25974 352.8973 
L 144.935065 352.822489 
L 149.61039 352.579741 
L 154.285714 354.07782 
L 158.961039 355.123734 
L 163.636364 355.138939 
L 168.311688 353.720906 
L 172.987013 352.700857 
L 177.662338 351.872411 
L 182.337662 351.525806 
L 187.012987 351.082557 
L 191.688312 351.41467 
L 196.363636 351.90246 
L 201.038961 352.884416 
L 205.714286 353.16754 
L 210.38961 352.411843 
L 215.064935 354.70072 
L 219.74026 358.086106 
L 224.415584 362.205945 
L 229.090909 365.109531 
L 233.766234 366.747161 
L 238.441558 366.624988 
L 243.116883 365.50948 
L 247.792208 361.152325 
L 252.467532 355.987902 
L 257.142857 352.054932 
L 261.818182 350.432519 
L 266.493506 349.436718 
L 271.168831 350.689125 
L 275.844156 352.621444 
L 280.519481 353.579718 
L 285.194805 353.965458 
L 289.87013 354.429987 
L 294.545455 355.325724 
" clip-path="url(#p8ef40c57b6)" style="fill: none; stroke: #808080; stroke-opacity: 0.2; stroke-width: 1.5; stroke-linecap: square"/>
   </g>
   <g id="line2d_21">
    <path d="M 65.454545 383.295117 
L 70.12987 383.377551 
L 74.805195 384.501121 
L 79.480519 384.896405 
L 84.155844 385.459875 
L 88.831169 384.532339 
L 93.506494 382.644078 
L 98.181818 381.414627 
L 102.857143 381.130565 
L 107.532468 380.680595 
L 112.207792 380.506863 
L 116.883117 379.867851 
L 121.558442 378.296798 
L 126.233766 377.520282 
L 130.909091 377.111671 
L 135.584416 377.693323 
L 140.25974 378.572442 
L 144.935065 378.591416 
L 149.61039 378.24299 
L 154.285714 377.915958 
L 158.961039 377.501712 
L 163.636364 376.931516 
L 168.311688 376.27803 
L 172.987013 376.476692 
L 177.662338 376.73337 
L 182.337662 377.089903 
L 187.012987 377.483853 
L 191.688312 377.775044 
L 196.363636 378.157598 
L 201.038961 377.703086 
L 205.714286 377.018412 
L 210.38961 376.06474 
L 215.064935 375.389375 
L 219.74026 374.933446 
L 224.415584 375.026073 
L 229.090909 374.900669 
L 233.766234 375.742577 
L 238.441558 375.841386 
L 243.116883 375.525819 
L 247.792208 375.105098 
L 252.467532 375.061458 
L 257.142857 374.820456 
L 261.818182 374.942871 
L 266.493506 374.421261 
L 271.168831 373.816936 
L 275.844156 373.026585 
L 280.519481 372.178504 
L 285.194805 371.932956 
L 289.87013 371.879474 
L 294.545455 371.761102 
" clip-path="url(#p8ef40c57b6)" style="fill: none; stroke: #808080; stroke-opacity: 0.2; stroke-width: 1.5; stroke-linecap: square"/>
   </g>
   <g id="line2d_22">
    <path d="M 111.272727 382.628571 
L 111.272727 308.571429 
" clip-path="url(#p8ef40c57b6)" style="fill: none; stroke-dasharray: 5.55,2.4; stroke-dashoffset: 0; stroke: #000000; stroke-width: 1.5"/>
   </g>
   <g id="line2d_23">
    <path d="M 65.454545 345.6 
L 294.545455 345.6 
" clip-path="url(#p8ef40c57b6)" style="fill: none; stroke-dasharray: 5.55,2.4; stroke-dashoffset: 0; stroke: #000000; stroke-width: 1.5"/>
   </g>
   <g id="patch_3">
    <path d="M 50 388.8 
L 50 302.4 
" style="fill: none; stroke: #000000; stroke-width: 0.8; stroke-linejoin: miter; stroke-linecap: square"/>
   </g>
   <g id="patch_4">
    <path d="M 54 392.8 
L 306 392.8 
" style="fill: none; stroke: #000000; stroke-width: 0.8; stroke-linejoin: miter; stroke-linecap: square"/>
   </g>
   <g id="text_12">
    <!-- all depths -->
    <g transform="translate(150.492188 296.4) scale(0.12 -0.12)">
     <defs>
      <path id="DejaVuSans-70" d="M 1159 525 
L 1159 -1331 
L 581 -1331 
L 581 3500 
L 1159 3500 
L 1159 2969 
Q 1341 3281 1617 3432 
Q 1894 3584 2278 3584 
Q 2916 3584 3314 3078 
Q 3713 2572 3713 1747 
Q 3713 922 3314 415 
Q 2916 -91 2278 -91 
Q 1894 -91 1617 61 
Q 1341 213 1159 525 
z
M 3116 1747 
Q 3116 2381 2855 2742 
Q 2594 3103 2138 3103 
Q 1681 3103 1420 2742 
Q 1159 2381 1159 1747 
Q 1159 1113 1420 752 
Q 1681 391 2138 391 
Q 2594 391 2855 752 
Q 3116 1113 3116 1747 
z
" transform="scale(0.015625)"/>
     </defs>
     <use xlink:href="#DejaVuSans-61"/>
     <use xlink:href="#DejaVuSans-6c" x="61.279297"/>
     <use xlink:href="#DejaVuSans-6c" x="89.0625"/>
     <use xlink:href="#DejaVuSans-20" x="116.845703"/>
     <use xlink:href="#DejaVuSans-64" x="148.632812"/>
     <use xlink:href="#DejaVuSans-65" x="212.109375"/>
     <use xlink:href="#DejaVuSans-70" x="273.632812"/>
     <use xlink:href="#DejaVuSans-74" x="337.109375"/>
     <use xlink:href="#DejaVuSans-68" x="376.318359"/>
     <use xlink:href="#DejaVuSans-73" x="439.697266"/>
    </g>
   </g>
   <g id="legend_1">
    <g id="patch_5">
     <path d="M 145.582812 325.35625 
L 299 325.35625 
Q 301 325.35625 301 323.35625 
L 301 309.4 
Q 301 307.4 299 307.4 
L 145.582812 307.4 
Q 143.582812 307.4 143.582812 309.4 
L 143.582812 323.35625 
Q 143.582812 325.35625 145.582812 325.35625 
z
" style="fill: #ffffff; opacity: 0.8; stroke: #cccccc; stroke-linejoin: miter"/>
    </g>
    <g id="line2d_24">
     <path d="M 147.582812 315.498437 
L 157.582812 315.498437 
L 167.582812 315.498437 
" style="fill: none; stroke: #808080; stroke-width: 1.5; stroke-linecap: square"/>
    </g>
    <g id="text_13">
     <!-- V23_deep_deveined_sur -->
     <g transform="translate(175.582812 318.998437) scale(0.1 -0.1)">
      <defs>
       <path id="DejaVuSans-56" d="M 1831 0 
L 50 4666 
L 709 4666 
L 2188 738 
L 3669 4666 
L 4325 4666 
L 2547 0 
L 1831 0 
z
" transform="scale(0.015625)"/>
       <path id="DejaVuSans-5f" d="M 3263 -1063 
L 3263 -1509 
L -63 -1509 
L -63 -1063 
L 3263 -1063 
z
" transform="scale(0.015625)"/>
       <path id="DejaVuSans-75" d="M 544 1381 
L 544 3500 
L 1119 3500 
L 1119 1403 
Q 1119 906 1312 657 
Q 1506 409 1894 409 
Q 2359 409 2629 706 
Q 2900 1003 2900 1516 
L 2900 3500 
L 3475 3500 
L 3475 0 
L 2900 0 
L 2900 538 
Q 2691 219 2414 64 
Q 2138 -91 1772 -91 
Q 1169 -91 856 284 
Q 544 659 544 1381 
z
M 1991 3584 
L 1991 3584 
z
" transform="scale(0.015625)"/>
      </defs>
      <use xlink:href="#DejaVuSans-56"/>
      <use xlink:href="#DejaVuSans-32" x="68.408203"/>
      <use xlink:href="#DejaVuSans-33" x="132.03125"/>
      <use xlink:href="#DejaVuSans-5f" x="195.654297"/>
      <use xlink:href="#DejaVuSans-64" x="245.654297"/>
      <use xlink:href="#DejaVuSans-65" x="309.130859"/>
      <use xlink:href="#DejaVuSans-65" x="370.654297"/>
      <use xlink:href="#DejaVuSans-70" x="432.177734"/>
      <use xlink:href="#DejaVuSans-5f" x="495.654297"/>
      <use xlink:href="#DejaVuSans-64" x="545.654297"/>
      <use xlink:href="#DejaVuSans-65" x="609.130859"/>
      <use xlink:href="#DejaVuSans-76" x="670.654297"/>
      <use xlink:href="#DejaVuSans-65" x="729.833984"/>
      <use xlink:href="#DejaVuSans-69" x="791.357422"/>
      <use xlink:href="#DejaVuSans-6e" x="819.140625"/>
      <use xlink:href="#DejaVuSans-65" x="882.519531"/>
      <use xlink:href="#DejaVuSans-64" x="944.042969"/>
      <use xlink:href="#DejaVuSans-5f" x="1007.519531"/>
      <use xlink:href="#DejaVuSans-73" x="1057.519531"/>
      <use xlink:href="#DejaVuSans-75" x="1109.619141"/>
      <use xlink:href="#DejaVuSans-72" x="1172.998047"/>
     </g>
    </g>
   </g>
  </g>
 </g>
 <defs>
  <clipPath id="p8ef40c57b6">
   <rect x="54" y="302.4" width="252" height="86.4"/>
  </clipPath>
 </defs>
</svg>
