<?xml version="1.0" encoding="utf-8" standalone="no"?>
<!DOCTYPE svg PUBLIC "-//W3C//DTD SVG 1.1//EN"
  "http://www.w3.org/Graphics/SVG/1.1/DTD/svg11.dtd">
<svg xmlns:xlink="http://www.w3.org/1999/xlink" width="360pt" height="432pt" viewBox="0 0 360 432" xmlns="http://www.w3.org/2000/svg" version="1.1">
 <metadata>
  <rdf:RDF xmlns:dc="http://purl.org/dc/elements/1.1/" xmlns:cc="http://creativecommons.org/ns#" xmlns:rdf="http://www.w3.org/1999/02/22-rdf-syntax-ns#">
   <cc:Work>
    <dc:type rdf:resource="http://purl.org/dc/dcmitype/StillImage"/>
    <dc:date>2025-10-31T15:45:45.063083</dc:date>
    <dc:format>image/svg+xml</dc:format>
    <dc:creator>
     <cc:Agent>
      <dc:title>Matplotlib v3.8.0, https://matplotlib.org/</dc:title>
     </cc:Agent>
    </dc:creator>
   </cc:Work>
  </rdf:RDF>
 </metadata>
 <defs>
  <style type="text/css">*{stroke-linejoin: round; stroke-linecap: butt}</style>
 </defs>
 <g id="figure_1">
  <g id="patch_1">
   <path d="M 0 432 
L 360 432 
L 360 0 
L 0 0 
z
" style="fill: #ffffff"/>
  </g>
  <g id="axes_1">
   <g id="patch_2">
    <path d="M 54 388.8 
L 306 388.8 
L 306 302.4 
L 54 302.4 
z
" style="fill: #ffffff"/>
   </g>
   <g id="PolyCollection_1">
    <defs>
     <path id="mbea9828166" d="M 65.454545 -110.538506 
L 65.454545 -106.292623 
L 70.12987 -106.196564 
L 74.805195 -106.039333 
L 79.480519 -105.994083 
L 84.155844 -105.993632 
L 88.831169 -105.922727 
L 93.506494 -105.902765 
L 98.181818 -105.949876 
L 102.857143 -106.132587 
L 107.532468 -106.343027 
L 112.207792 -106.724222 
L 116.883117 -107.083993 
L 121.558442 -107.499351 
L 126.233766 -107.905118 
L 130.909091 -108.175003 
L 135.584416 -108.341299 
L 140.25974 -108.551395 
L 144.935065 -108.814656 
L 149.61039 -109.102519 
L 154.285714 -109.433082 
L 158.961039 -109.752838 
L 163.636364 -109.947524 
L 168.311688 -110.096002 
L 172.987013 -110.220168 
L 177.662338 -110.275308 
L 182.337662 -110.353805 
L 187.012987 -110.387287 
L 191.688312 -110.44404 
L 196.363636 -110.428857 
L 201.038961 -110.360148 
L 205.714286 -110.253738 
L 210.38961 -110.162198 
L 215.064935 -110.080221 
L 219.74026 -109.953662 
L 224.415584 -109.807105 
L 229.090909 -109.597409 
L 233.766234 -109.381982 
L 238.441558 -109.195435 
L 243.116883 -109.006667 
L 247.792208 -108.850524 
L 252.467532 -108.720281 
L 257.142857 -108.526477 
L 261.818182 -108.333372 
L 266.493506 -108.196689 
L 271.168831 -108.050491 
L 275.844156 -107.930915 
L 280.519481 -107.784718 
L 285.194805 -107.610723 
L 289.87013 -107.432429 
L 294.545455 -107.329419 
L 294.545455 -110.680874 
L 294.545455 -110.680874 
L 289.87013 -110.813457 
L 285.194805 -111.018534 
L 280.519481 -111.191338 
L 275.844156 -111.313259 
L 271.168831 -111.476915 
L 266.493506 -111.747597 
L 261.818182 -111.973318 
L 257.142857 -112.260463 
L 252.467532 -112.527196 
L 247.792208 -112.660992 
L 243.116883 -112.883837 
L 238.441558 -113.142682 
L 233.766234 -113.403926 
L 229.090909 -113.722277 
L 224.415584 -114.017376 
L 219.74026 -114.157209 
L 215.064935 -114.294162 
L 210.38961 -114.283729 
L 205.714286 -114.286682 
L 201.038961 -114.28663 
L 196.363636 -114.277301 
L 191.688312 -114.205981 
L 187.012987 -114.080244 
L 182.337662 -114.022988 
L 177.662338 -113.931536 
L 172.987013 -113.80598 
L 168.311688 -113.640335 
L 163.636364 -113.370569 
L 158.961039 -113.111052 
L 154.285714 -112.673727 
L 149.61039 -112.232586 
L 144.935065 -111.850557 
L 140.25974 -111.546053 
L 135.584416 -111.401061 
L 130.909091 -111.320777 
L 126.233766 -111.031795 
L 121.558442 -110.563958 
L 116.883117 -110.149879 
L 112.207792 -109.926612 
L 107.532468 -109.663265 
L 102.857143 -109.63795 
L 98.181818 -109.599524 
L 93.506494 -109.548195 
L 88.831169 -109.608995 
L 84.155844 -109.866582 
L 79.480519 -109.856646 
L 74.805195 -110.00412 
L 70.12987 -110.328743 
L 65.454545 -110.538506 
z
" style="stroke: #b2b2b2; stroke-opacity: 0.4"/>
    </defs>
    <g clip-path="url(#p99fc1f8575)">
     <use xlink:href="#mbea9828166" x="0" y="432" style="fill: #b2b2b2; fill-opacity: 0.4; stroke: #b2b2b2; stroke-opacity: 0.4"/>
    </g>
   </g>
   <g id="matplotlib.axis_1">
    <g id="xtick_1">
     <g id="line2d_1">
      <defs>
       <path id="m34728e35e0" d="M 0 0 
L 0 3.5 
" style="stroke: #000000; stroke-width: 0.8"/>
      </defs>
      <g>
       <use xlink:href="#m34728e35e0" x="65.454545" y="392.8" style="stroke: #000000; stroke-width: 0.8"/>
      </g>
     </g>
     <g id="text_1">
      <!-- 0 -->
      <g transform="translate(62.273295 407.398438) scale(0.1 -0.1)">
       <defs>
        <path id="DejaVuSans-30" d="M 2034 4250 
Q 1547 4250 1301 3770 
Q 1056 3291 1056 2328 
Q 1056 1369 1301 889 
Q 1547 409 2034 409 
Q 2525 409 2770 889 
Q 3016 1369 3016 2328 
Q 3016 3291 2770 3770 
Q 2525 4250 2034 4250 
z
M 2034 4750 
Q 2819 4750 3233 4129 
Q 3647 3509 3647 2328 
Q 3647 1150 3233 529 
Q 2819 -91 2034 -91 
Q 1250 -91 836 529 
Q 422 1150 422 2328 
Q 422 3509 836 4129 
Q 1250 4750 2034 4750 
z
" transform="scale(0.015625)"/>
       </defs>
       <use xlink:href="#DejaVuSans-30"/>
      </g>
     </g>
    </g>
    <g id="xtick_2">
     <g id="line2d_2">
      <g>
       <use xlink:href="#m34728e35e0" x="111.272727" y="392.8" style="stroke: #000000; stroke-width: 0.8"/>
      </g>
     </g>
     <g id="text_2">
      <!-- 1 -->
      <g transform="translate(108.091477 407.398438) scale(0.1 -0.1)">
       <defs>
        <path id="DejaVuSans-31" d="M 794 531 
L 1825 531 
L 1825 4091 
L 703 3866 
L 703 4441 
L 1819 4666 
L 2450 4666 
L 2450 531 
L 3481 531 
L 3481 0 
L 794 0 
L 794 531 
z
" transform="scale(0.015625)"/>
       </defs>
       <use xlink:href="#DejaVuSans-31"/>
      </g>
     </g>
    </g>
    <g id="xtick_3">
     <g id="line2d_3">
      <g>
       <use xlink:href="#m34728e35e0" x="157.090909" y="392.8" style="stroke: #000000; stroke-width: 0.8"/>
      </g>
     </g>
     <g id="text_3">
      <!-- 2 -->
      <g transform="translate(153.909659 407.398438) scale(0.1 -0.1)">
       <defs>
        <path id="DejaVuSans-32" d="M 1228 531 
L 3431 531 
L 3431 0 
L 469 0 
L 469 531 
Q 828 903 1448 1529 
Q 2069 2156 2228 2338 
Q 2531 2678 2651 2914 
Q 2772 3150 2772 3378 
Q 2772 3750 2511 3984 
Q 2250 4219 1831 4219 
Q 1534 4219 1204 4116 
Q 875 4013 500 3803 
L 500 4441 
Q 881 4594 1212 4672 
Q 1544 4750 1819 4750 
Q 2544 4750 2975 4387 
Q 3406 4025 3406 3419 
Q 3406 3131 3298 2873 
Q 3191 2616 2906 2266 
Q 2828 2175 2409 1742 
Q 1991 1309 1228 531 
z
" transform="scale(0.015625)"/>
       </defs>
       <use xlink:href="#DejaVuSans-32"/>
      </g>
     </g>
    </g>
    <g id="xtick_4">
     <g id="line2d_4">
      <g>
       <use xlink:href="#m34728e35e0" x="202.909091" y="392.8" style="stroke: #000000; stroke-width: 0.8"/>
      </g>
     </g>
     <g id="text_4">
      <!-- 3 -->
      <g transform="translate(199.727841 407.398438) scale(0.1 -0.1)">
       <defs>
        <path id="DejaVuSans-33" d="M 2597 2516 
Q 3050 2419 3304 2112 
Q 3559 1806 3559 1356 
Q 3559 666 3084 287 
Q 2609 -91 1734 -91 
Q 1441 -91 1130 -33 
Q 819 25 488 141 
L 488 750 
Q 750 597 1062 519 
Q 1375 441 1716 441 
Q 2309 441 2620 675 
Q 2931 909 2931 1356 
Q 2931 1769 2642 2001 
Q 2353 2234 1838 2234 
L 1294 2234 
L 1294 2753 
L 1863 2753 
Q 2328 2753 2575 2939 
Q 2822 3125 2822 3475 
Q 2822 3834 2567 4026 
Q 2313 4219 1838 4219 
Q 1578 4219 1281 4162 
Q 984 4106 628 3988 
L 628 4550 
Q 988 4650 1302 4700 
Q 1616 4750 1894 4750 
Q 2613 4750 3031 4423 
Q 3450 4097 3450 3541 
Q 3450 3153 3228 2886 
Q 3006 2619 2597 2516 
z
" transform="scale(0.015625)"/>
       </defs>
       <use xlink:href="#DejaVuSans-33"/>
      </g>
     </g>
    </g>
    <g id="xtick_5">
     <g id="line2d_5">
      <g>
       <use xlink:href="#m34728e35e0" x="248.727273" y="392.8" style="stroke: #000000; stroke-width: 0.8"/>
      </g>
     </g>
     <g id="text_5">
      <!-- 4 -->
      <g transform="translate(245.546023 407.398438) scale(0.1 -0.1)">
       <defs>
        <path id="DejaVuSans-34" d="M 2419 4116 
L 825 1625 
L 2419 1625 
L 2419 4116 
z
M 2253 4666 
L 3047 4666 
L 3047 1625 
L 3713 1625 
L 3713 1100 
L 3047 1100 
L 3047 0 
L 2419 0 
L 2419 1100 
L 313 1100 
L 313 1709 
L 2253 4666 
z
" transform="scale(0.015625)"/>
       </defs>
       <use xlink:href="#DejaVuSans-34"/>
      </g>
     </g>
    </g>
    <g id="xtick_6">
     <g id="line2d_6">
      <g>
       <use xlink:href="#m34728e35e0" x="294.545455" y="392.8" style="stroke: #000000; stroke-width: 0.8"/>
      </g>
     </g>
     <g id="text_6">
      <!-- 5 -->
      <g transform="translate(291.364205 407.398438) scale(0.1 -0.1)">
       <defs>
        <path id="DejaVuSans-35" d="M 691 4666 
L 3169 4666 
L 3169 4134 
L 1269 4134 
L 1269 2991 
Q 1406 3038 1543 3061 
Q 1681 3084 1819 3084 
Q 2600 3084 3056 2656 
Q 3513 2228 3513 1497 
Q 3513 744 3044 326 
Q 2575 -91 1722 -91 
Q 1428 -91 1123 -41 
Q 819 9 494 109 
L 494 744 
Q 775 591 1075 516 
Q 1375 441 1709 441 
Q 2250 441 2565 725 
Q 2881 1009 2881 1497 
Q 2881 1984 2565 2268 
Q 2250 2553 1709 2553 
Q 1456 2553 1204 2497 
Q 953 2441 691 2322 
L 691 4666 
z
" transform="scale(0.015625)"/>
       </defs>
       <use xlink:href="#DejaVuSans-35"/>
      </g>
     </g>
    </g>
    <g id="text_7">
     <!-- relative distance from ROI center ($\sigma$) -->
     <g transform="translate(106.48 419.556875) scale(0.08 -0.08)">
      <defs>
       <path id="DejaVuSans-72" d="M 2631 2963 
Q 2534 3019 2420 3045 
Q 2306 3072 2169 3072 
Q 1681 3072 1420 2755 
Q 1159 2438 1159 1844 
L 1159 0 
L 581 0 
L 581 3500 
L 1159 3500 
L 1159 2956 
Q 1341 3275 1631 3429 
Q 1922 3584 2338 3584 
Q 2397 3584 2469 3576 
Q 2541 3569 2628 3553 
L 2631 2963 
z
" transform="scale(0.015625)"/>
       <path id="DejaVuSans-65" d="M 3597 1894 
L 3597 1613 
L 953 1613 
Q 991 1019 1311 708 
Q 1631 397 2203 397 
Q 2534 397 2845 478 
Q 3156 559 3463 722 
L 3463 178 
Q 3153 47 2828 -22 
Q 2503 -91 2169 -91 
Q 1331 -91 842 396 
Q 353 884 353 1716 
Q 353 2575 817 3079 
Q 1281 3584 2069 3584 
Q 2775 3584 3186 3129 
Q 3597 2675 3597 1894 
z
M 3022 2063 
Q 3016 2534 2758 2815 
Q 2500 3097 2075 3097 
Q 1594 3097 1305 2825 
Q 1016 2553 972 2059 
L 3022 2063 
z
" transform="scale(0.015625)"/>
       <path id="DejaVuSans-6c" d="M 603 4863 
L 1178 4863 
L 1178 0 
L 603 0 
L 603 4863 
z
" transform="scale(0.015625)"/>
       <path id="DejaVuSans-61" d="M 2194 1759 
Q 1497 1759 1228 1600 
Q 959 1441 959 1056 
Q 959 750 1161 570 
Q 1363 391 1709 391 
Q 2188 391 2477 730 
Q 2766 1069 2766 1631 
L 2766 1759 
L 2194 1759 
z
M 3341 1997 
L 3341 0 
L 2766 0 
L 2766 531 
Q 2569 213 2275 61 
Q 1981 -91 1556 -91 
Q 1019 -91 701 211 
Q 384 513 384 1019 
Q 384 1609 779 1909 
Q 1175 2209 1959 2209 
L 2766 2209 
L 2766 2266 
Q 2766 2663 2505 2880 
Q 2244 3097 1772 3097 
Q 1472 3097 1187 3025 
Q 903 2953 641 2809 
L 641 3341 
Q 956 3463 1253 3523 
Q 1550 3584 1831 3584 
Q 2591 3584 2966 3190 
Q 3341 2797 3341 1997 
z
" transform="scale(0.015625)"/>
       <path id="DejaVuSans-74" d="M 1172 4494 
L 1172 3500 
L 2356 3500 
L 2356 3053 
L 1172 3053 
L 1172 1153 
Q 1172 725 1289 603 
Q 1406 481 1766 481 
L 2356 481 
L 2356 0 
L 1766 0 
Q 1100 0 847 248 
Q 594 497 594 1153 
L 594 3053 
L 172 3053 
L 172 3500 
L 594 3500 
L 594 4494 
L 1172 4494 
z
" transform="scale(0.015625)"/>
       <path id="DejaVuSans-69" d="M 603 3500 
L 1178 3500 
L 1178 0 
L 603 0 
L 603 3500 
z
M 603 4863 
L 1178 4863 
L 1178 4134 
L 603 4134 
L 603 4863 
z
" transform="scale(0.015625)"/>
       <path id="DejaVuSans-76" d="M 191 3500 
L 800 3500 
L 1894 563 
L 2988 3500 
L 3597 3500 
L 2284 0 
L 1503 0 
L 191 3500 
z
" transform="scale(0.015625)"/>
       <path id="DejaVuSans-20" transform="scale(0.015625)"/>
       <path id="DejaVuSans-64" d="M 2906 2969 
L 2906 4863 
L 3481 4863 
L 3481 0 
L 2906 0 
L 2906 525 
Q 2725 213 2448 61 
Q 2172 -91 1784 -91 
Q 1150 -91 751 415 
Q 353 922 353 1747 
Q 353 2572 751 3078 
Q 1150 3584 1784 3584 
Q 2172 3584 2448 3432 
Q 2725 3281 2906 2969 
z
M 947 1747 
Q 947 1113 1208 752 
Q 1469 391 1925 391 
Q 2381 391 2643 752 
Q 2906 1113 2906 1747 
Q 2906 2381 2643 2742 
Q 2381 3103 1925 3103 
Q 1469 3103 1208 2742 
Q 947 2381 947 1747 
z
" transform="scale(0.015625)"/>
       <path id="DejaVuSans-73" d="M 2834 3397 
L 2834 2853 
Q 2591 2978 2328 3040 
Q 2066 3103 1784 3103 
Q 1356 3103 1142 2972 
Q 928 2841 928 2578 
Q 928 2378 1081 2264 
Q 1234 2150 1697 2047 
L 1894 2003 
Q 2506 1872 2764 1633 
Q 3022 1394 3022 966 
Q 3022 478 2636 193 
Q 2250 -91 1575 -91 
Q 1294 -91 989 -36 
Q 684 19 347 128 
L 347 722 
Q 666 556 975 473 
Q 1284 391 1588 391 
Q 1994 391 2212 530 
Q 2431 669 2431 922 
Q 2431 1156 2273 1281 
Q 2116 1406 1581 1522 
L 1381 1569 
Q 847 1681 609 1914 
Q 372 2147 372 2553 
Q 372 3047 722 3315 
Q 1072 3584 1716 3584 
Q 2034 3584 2315 3537 
Q 2597 3491 2834 3397 
z
" transform="scale(0.015625)"/>
       <path id="DejaVuSans-6e" d="M 3513 2113 
L 3513 0 
L 2938 0 
L 2938 2094 
Q 2938 2591 2744 2837 
Q 2550 3084 2163 3084 
Q 1697 3084 1428 2787 
Q 1159 2491 1159 1978 
L 1159 0 
L 581 0 
L 581 3500 
L 1159 3500 
L 1159 2956 
Q 1366 3272 1645 3428 
Q 1925 3584 2291 3584 
Q 2894 3584 3203 3211 
Q 3513 2838 3513 2113 
z
" transform="scale(0.015625)"/>
       <path id="DejaVuSans-63" d="M 3122 3366 
L 3122 2828 
Q 2878 2963 2633 3030 
Q 2388 3097 2138 3097 
Q 1578 3097 1268 2742 
Q 959 2388 959 1747 
Q 959 1106 1268 751 
Q 1578 397 2138 397 
Q 2388 397 2633 464 
Q 2878 531 3122 666 
L 3122 134 
Q 2881 22 2623 -34 
Q 2366 -91 2075 -91 
Q 1284 -91 818 406 
Q 353 903 353 1747 
Q 353 2603 823 3093 
Q 1294 3584 2113 3584 
Q 2378 3584 2631 3529 
Q 2884 3475 3122 3366 
z
" transform="scale(0.015625)"/>
       <path id="DejaVuSans-66" d="M 2375 4863 
L 2375 4384 
L 1825 4384 
Q 1516 4384 1395 4259 
Q 1275 4134 1275 3809 
L 1275 3500 
L 2222 3500 
L 2222 3053 
L 1275 3053 
L 1275 0 
L 697 0 
L 697 3053 
L 147 3053 
L 147 3500 
L 697 3500 
L 697 3744 
Q 697 4328 969 4595 
Q 1241 4863 1831 4863 
L 2375 4863 
z
" transform="scale(0.015625)"/>
       <path id="DejaVuSans-6f" d="M 1959 3097 
Q 1497 3097 1228 2736 
Q 959 2375 959 1747 
Q 959 1119 1226 758 
Q 1494 397 1959 397 
Q 2419 397 2687 759 
Q 2956 1122 2956 1747 
Q 2956 2369 2687 2733 
Q 2419 3097 1959 3097 
z
M 1959 3584 
Q 2709 3584 3137 3096 
Q 3566 2609 3566 1747 
Q 3566 888 3137 398 
Q 2709 -91 1959 -91 
Q 1206 -91 779 398 
Q 353 888 353 1747 
Q 353 2609 779 3096 
Q 1206 3584 1959 3584 
z
" transform="scale(0.015625)"/>
       <path id="DejaVuSans-6d" d="M 3328 2828 
Q 3544 3216 3844 3400 
Q 4144 3584 4550 3584 
Q 5097 3584 5394 3201 
Q 5691 2819 5691 2113 
L 5691 0 
L 5113 0 
L 5113 2094 
Q 5113 2597 4934 2840 
Q 4756 3084 4391 3084 
Q 3944 3084 3684 2787 
Q 3425 2491 3425 1978 
L 3425 0 
L 2847 0 
L 2847 2094 
Q 2847 2600 2669 2842 
Q 2491 3084 2119 3084 
Q 1678 3084 1418 2786 
Q 1159 2488 1159 1978 
L 1159 0 
L 581 0 
L 581 3500 
L 1159 3500 
L 1159 2956 
Q 1356 3278 1631 3431 
Q 1906 3584 2284 3584 
Q 2666 3584 2933 3390 
Q 3200 3197 3328 2828 
z
" transform="scale(0.015625)"/>
       <path id="DejaVuSans-52" d="M 2841 2188 
Q 3044 2119 3236 1894 
Q 3428 1669 3622 1275 
L 4263 0 
L 3584 0 
L 2988 1197 
Q 2756 1666 2539 1819 
Q 2322 1972 1947 1972 
L 1259 1972 
L 1259 0 
L 628 0 
L 628 4666 
L 2053 4666 
Q 2853 4666 3247 4331 
Q 3641 3997 3641 3322 
Q 3641 2881 3436 2590 
Q 3231 2300 2841 2188 
z
M 1259 4147 
L 1259 2491 
L 2053 2491 
Q 2509 2491 2742 2702 
Q 2975 2913 2975 3322 
Q 2975 3731 2742 3939 
Q 2509 4147 2053 4147 
L 1259 4147 
z
" transform="scale(0.015625)"/>
       <path id="DejaVuSans-4f" d="M 2522 4238 
Q 1834 4238 1429 3725 
Q 1025 3213 1025 2328 
Q 1025 1447 1429 934 
Q 1834 422 2522 422 
Q 3209 422 3611 934 
Q 4013 1447 4013 2328 
Q 4013 3213 3611 3725 
Q 3209 4238 2522 4238 
z
M 2522 4750 
Q 3503 4750 4090 4092 
Q 4678 3434 4678 2328 
Q 4678 1225 4090 567 
Q 3503 -91 2522 -91 
Q 1538 -91 948 565 
Q 359 1222 359 2328 
Q 359 3434 948 4092 
Q 1538 4750 2522 4750 
z
" transform="scale(0.015625)"/>
       <path id="DejaVuSans-49" d="M 628 4666 
L 1259 4666 
L 1259 0 
L 628 0 
L 628 4666 
z
" transform="scale(0.015625)"/>
       <path id="DejaVuSans-28" d="M 1984 4856 
Q 1566 4138 1362 3434 
Q 1159 2731 1159 2009 
Q 1159 1288 1364 580 
Q 1569 -128 1984 -844 
L 1484 -844 
Q 1016 -109 783 600 
Q 550 1309 550 2009 
Q 550 2706 781 3412 
Q 1013 4119 1484 4856 
L 1984 4856 
z
" transform="scale(0.015625)"/>
       <path id="DejaVuSans-Oblique-3c3" d="M 2219 3044 
Q 1744 3044 1422 2700 
Q 1081 2341 969 1747 
Q 844 1119 1044 756 
Q 1241 397 1706 397 
Q 2166 397 2503 759 
Q 2844 1122 2966 1747 
Q 3075 2319 2881 2700 
Q 2700 3044 2219 3044 
z
M 2309 3503 
L 4219 3500 
L 4106 2925 
L 3463 2925 
Q 3706 2438 3575 1747 
Q 3406 888 2884 400 
Q 2359 -91 1609 -91 
Q 856 -91 525 400 
Q 194 888 363 1747 
Q 528 2609 1050 3097 
Q 1484 3503 2309 3503 
z
" transform="scale(0.015625)"/>
       <path id="DejaVuSans-29" d="M 513 4856 
L 1013 4856 
Q 1481 4119 1714 3412 
Q 1947 2706 1947 2009 
Q 1947 1309 1714 600 
Q 1481 -109 1013 -844 
L 513 -844 
Q 928 -128 1133 580 
Q 1338 1288 1338 2009 
Q 1338 2731 1133 3434 
Q 928 4138 513 4856 
z
" transform="scale(0.015625)"/>
      </defs>
      <use xlink:href="#DejaVuSans-72" transform="translate(0 0.015625)"/>
      <use xlink:href="#DejaVuSans-65" transform="translate(41.113281 0.015625)"/>
      <use xlink:href="#DejaVuSans-6c" transform="translate(102.636719 0.015625)"/>
      <use xlink:href="#DejaVuSans-61" transform="translate(130.419922 0.015625)"/>
      <use xlink:href="#DejaVuSans-74" transform="translate(191.699219 0.015625)"/>
      <use xlink:href="#DejaVuSans-69" transform="translate(230.908203 0.015625)"/>
      <use xlink:href="#DejaVuSans-76" transform="translate(258.691406 0.015625)"/>
      <use xlink:href="#DejaVuSans-65" transform="translate(317.871094 0.015625)"/>
      <use xlink:href="#DejaVuSans-20" transform="translate(379.394531 0.015625)"/>
      <use xlink:href="#DejaVuSans-64" transform="translate(411.181641 0.015625)"/>
      <use xlink:href="#DejaVuSans-69" transform="translate(474.658203 0.015625)"/>
      <use xlink:href="#DejaVuSans-73" transform="translate(502.441406 0.015625)"/>
      <use xlink:href="#DejaVuSans-74" transform="translate(554.541016 0.015625)"/>
      <use xlink:href="#DejaVuSans-61" transform="translate(593.75 0.015625)"/>
      <use xlink:href="#DejaVuSans-6e" transform="translate(655.029297 0.015625)"/>
      <use xlink:href="#DejaVuSans-63" transform="translate(718.408203 0.015625)"/>
      <use xlink:href="#DejaVuSans-65" transform="translate(773.388672 0.015625)"/>
      <use xlink:href="#DejaVuSans-20" transform="translate(834.912109 0.015625)"/>
      <use xlink:href="#DejaVuSans-66" transform="translate(866.699219 0.015625)"/>
      <use xlink:href="#DejaVuSans-72" transform="translate(901.904297 0.015625)"/>
      <use xlink:href="#DejaVuSans-6f" transform="translate(943.017578 0.015625)"/>
      <use xlink:href="#DejaVuSans-6d" transform="translate(1004.199219 0.015625)"/>
      <use xlink:href="#DejaVuSans-20" transform="translate(1101.611328 0.015625)"/>
      <use xlink:href="#DejaVuSans-52" transform="translate(1133.398438 0.015625)"/>
      <use xlink:href="#DejaVuSans-4f" transform="translate(1202.880859 0.015625)"/>
      <use xlink:href="#DejaVuSans-49" transform="translate(1281.591797 0.015625)"/>
      <use xlink:href="#DejaVuSans-20" transform="translate(1311.083984 0.015625)"/>
      <use xlink:href="#DejaVuSans-63" transform="translate(1342.871094 0.015625)"/>
      <use xlink:href="#DejaVuSans-65" transform="translate(1397.851562 0.015625)"/>
      <use xlink:href="#DejaVuSans-6e" transform="translate(1459.375 0.015625)"/>
      <use xlink:href="#DejaVuSans-74" transform="translate(1522.753906 0.015625)"/>
      <use xlink:href="#DejaVuSans-65" transform="translate(1561.962891 0.015625)"/>
      <use xlink:href="#DejaVuSans-72" transform="translate(1623.486328 0.015625)"/>
      <use xlink:href="#DejaVuSans-20" transform="translate(1664.599609 0.015625)"/>
      <use xlink:href="#DejaVuSans-28" transform="translate(1696.386719 0.015625)"/>
      <use xlink:href="#DejaVuSans-Oblique-3c3" transform="translate(1735.400391 0.015625)"/>
      <use xlink:href="#DejaVuSans-29" transform="translate(1798.779297 0.015625)"/>
     </g>
    </g>
   </g>
   <g id="matplotlib.axis_2">
    <g id="ytick_1">
     <g id="line2d_7">
      <defs>
       <path id="m91aa2bf042" d="M 0 0 
L -3.5 0 
" style="stroke: #000000; stroke-width: 0.8"/>
      </defs>
      <g>
       <use xlink:href="#m91aa2bf042" x="50" y="376.457143" style="stroke: #000000; stroke-width: 0.8"/>
      </g>
     </g>
     <g id="text_8">
      <!-- −5 -->
      <g transform="translate(28.257812 380.256362) scale(0.1 -0.1)">
       <defs>
        <path id="DejaVuSans-2212" d="M 678 2272 
L 4684 2272 
L 4684 1741 
L 678 1741 
L 678 2272 
z
" transform="scale(0.015625)"/>
       </defs>
       <use xlink:href="#DejaVuSans-2212"/>
       <use xlink:href="#DejaVuSans-35" x="83.789062"/>
      </g>
     </g>
    </g>
    <g id="ytick_2">
     <g id="line2d_8">
      <g>
       <use xlink:href="#m91aa2bf042" x="50" y="345.6" style="stroke: #000000; stroke-width: 0.8"/>
      </g>
     </g>
     <g id="text_9">
      <!-- 0 -->
      <g transform="translate(36.6375 349.399219) scale(0.1 -0.1)">
       <use xlink:href="#DejaVuSans-30"/>
      </g>
     </g>
    </g>
    <g id="ytick_3">
     <g id="line2d_9">
      <g>
       <use xlink:href="#m91aa2bf042" x="50" y="314.742857" style="stroke: #000000; stroke-width: 0.8"/>
      </g>
     </g>
     <g id="text_10">
      <!-- 5 -->
      <g transform="translate(36.6375 318.542076) scale(0.1 -0.1)">
       <use xlink:href="#DejaVuSans-35"/>
      </g>
     </g>
    </g>
    <g id="text_11">
     <!-- BOLD % change -->
     <g transform="translate(22.594062 377.79625) rotate(-90) scale(0.08 -0.08)">
      <defs>
       <path id="DejaVuSans-42" d="M 1259 2228 
L 1259 519 
L 2272 519 
Q 2781 519 3026 730 
Q 3272 941 3272 1375 
Q 3272 1813 3026 2020 
Q 2781 2228 2272 2228 
L 1259 2228 
z
M 1259 4147 
L 1259 2741 
L 2194 2741 
Q 2656 2741 2882 2914 
Q 3109 3088 3109 3444 
Q 3109 3797 2882 3972 
Q 2656 4147 2194 4147 
L 1259 4147 
z
M 628 4666 
L 2241 4666 
Q 2963 4666 3353 4366 
Q 3744 4066 3744 3513 
Q 3744 3084 3544 2831 
Q 3344 2578 2956 2516 
Q 3422 2416 3680 2098 
Q 3938 1781 3938 1306 
Q 3938 681 3513 340 
Q 3088 0 2303 0 
L 628 0 
L 628 4666 
z
" transform="scale(0.015625)"/>
       <path id="DejaVuSans-4c" d="M 628 4666 
L 1259 4666 
L 1259 531 
L 3531 531 
L 3531 0 
L 628 0 
L 628 4666 
z
" transform="scale(0.015625)"/>
       <path id="DejaVuSans-44" d="M 1259 4147 
L 1259 519 
L 2022 519 
Q 2988 519 3436 956 
Q 3884 1394 3884 2338 
Q 3884 3275 3436 3711 
Q 2988 4147 2022 4147 
L 1259 4147 
z
M 628 4666 
L 1925 4666 
Q 3281 4666 3915 4102 
Q 4550 3538 4550 2338 
Q 4550 1131 3912 565 
Q 3275 0 1925 0 
L 628 0 
L 628 4666 
z
" transform="scale(0.015625)"/>
       <path id="DejaVuSans-25" d="M 4653 2053 
Q 4381 2053 4226 1822 
Q 4072 1591 4072 1178 
Q 4072 772 4226 539 
Q 4381 306 4653 306 
Q 4919 306 5073 539 
Q 5228 772 5228 1178 
Q 5228 1588 5073 1820 
Q 4919 2053 4653 2053 
z
M 4653 2450 
Q 5147 2450 5437 2106 
Q 5728 1763 5728 1178 
Q 5728 594 5436 251 
Q 5144 -91 4653 -91 
Q 4153 -91 3862 251 
Q 3572 594 3572 1178 
Q 3572 1766 3864 2108 
Q 4156 2450 4653 2450 
z
M 1428 4353 
Q 1159 4353 1004 4120 
Q 850 3888 850 3481 
Q 850 3069 1003 2837 
Q 1156 2606 1428 2606 
Q 1700 2606 1854 2837 
Q 2009 3069 2009 3481 
Q 2009 3884 1853 4118 
Q 1697 4353 1428 4353 
z
M 4250 4750 
L 4750 4750 
L 1831 -91 
L 1331 -91 
L 4250 4750 
z
M 1428 4750 
Q 1922 4750 2215 4408 
Q 2509 4066 2509 3481 
Q 2509 2891 2217 2550 
Q 1925 2209 1428 2209 
Q 931 2209 642 2551 
Q 353 2894 353 3481 
Q 353 4063 643 4406 
Q 934 4750 1428 4750 
z
" transform="scale(0.015625)"/>
       <path id="DejaVuSans-68" d="M 3513 2113 
L 3513 0 
L 2938 0 
L 2938 2094 
Q 2938 2591 2744 2837 
Q 2550 3084 2163 3084 
Q 1697 3084 1428 2787 
Q 1159 2491 1159 1978 
L 1159 0 
L 581 0 
L 581 4863 
L 1159 4863 
L 1159 2956 
Q 1366 3272 1645 3428 
Q 1925 3584 2291 3584 
Q 2894 3584 3203 3211 
Q 3513 2838 3513 2113 
z
" transform="scale(0.015625)"/>
       <path id="DejaVuSans-67" d="M 2906 1791 
Q 2906 2416 2648 2759 
Q 2391 3103 1925 3103 
Q 1463 3103 1205 2759 
Q 947 2416 947 1791 
Q 947 1169 1205 825 
Q 1463 481 1925 481 
Q 2391 481 2648 825 
Q 2906 1169 2906 1791 
z
M 3481 434 
Q 3481 -459 3084 -895 
Q 2688 -1331 1869 -1331 
Q 1566 -1331 1297 -1286 
Q 1028 -1241 775 -1147 
L 775 -588 
Q 1028 -725 1275 -790 
Q 1522 -856 1778 -856 
Q 2344 -856 2625 -561 
Q 2906 -266 2906 331 
L 2906 616 
Q 2728 306 2450 153 
Q 2172 0 1784 0 
Q 1141 0 747 490 
Q 353 981 353 1791 
Q 353 2603 747 3093 
Q 1141 3584 1784 3584 
Q 2172 3584 2450 3431 
Q 2728 3278 2906 2969 
L 2906 3500 
L 3481 3500 
L 3481 434 
z
" transform="scale(0.015625)"/>
      </defs>
      <use xlink:href="#DejaVuSans-42"/>
      <use xlink:href="#DejaVuSans-4f" x="66.853516"/>
      <use xlink:href="#DejaVuSans-4c" x="145.564453"/>
      <use xlink:href="#DejaVuSans-44" x="201.277344"/>
      <use xlink:href="#DejaVuSans-20" x="278.279297"/>
      <use xlink:href="#DejaVuSans-25" x="310.066406"/>
      <use xlink:href="#DejaVuSans-20" x="405.085938"/>
      <use xlink:href="#DejaVuSans-63" x="436.873047"/>
      <use xlink:href="#DejaVuSans-68" x="491.853516"/>
      <use xlink:href="#DejaVuSans-61" x="555.232422"/>
      <use xlink:href="#DejaVuSans-6e" x="616.511719"/>
      <use xlink:href="#DejaVuSans-67" x="679.890625"/>
      <use xlink:href="#DejaVuSans-65" x="743.367188"/>
     </g>
    </g>
   </g>
   <g id="line2d_10">
    <path d="M 65.454545 323.584436 
L 70.12987 323.737346 
L 74.805195 323.978273 
L 79.480519 324.074635 
L 84.155844 324.069893 
L 88.831169 324.234139 
L 93.506494 324.27452 
L 98.181818 324.2253 
L 102.857143 324.114731 
L 107.532468 323.996854 
L 112.207792 323.674583 
L 116.883117 323.383064 
L 121.558442 322.968345 
L 126.233766 322.531543 
L 130.909091 322.25211 
L 135.584416 322.12882 
L 140.25974 321.951276 
L 144.935065 321.667393 
L 149.61039 321.332448 
L 154.285714 320.946596 
L 158.961039 320.568055 
L 163.636364 320.340954 
L 168.311688 320.131831 
L 172.987013 319.986926 
L 177.662338 319.896578 
L 182.337662 319.811603 
L 187.012987 319.766235 
L 191.688312 319.674989 
L 196.363636 319.646921 
L 201.038961 319.676611 
L 205.714286 319.72979 
L 210.38961 319.777037 
L 215.064935 319.812808 
L 219.74026 319.944564 
L 224.415584 320.08776 
L 229.090909 320.340157 
L 233.766234 320.607046 
L 238.441558 320.830941 
L 243.116883 321.054748 
L 247.792208 321.244242 
L 252.467532 321.376261 
L 257.142857 321.60653 
L 261.818182 321.846655 
L 266.493506 322.027857 
L 271.168831 322.236297 
L 275.844156 322.377913 
L 280.519481 322.511972 
L 285.194805 322.685371 
L 289.87013 322.877057 
L 294.545455 322.994853 
" clip-path="url(#p99fc1f8575)" style="fill: none; stroke: #b2b2b2; stroke-width: 1.5; stroke-linecap: square"/>
   </g>
   <g id="line2d_11">
    <path d="M 65.454545 325.705919 
L 70.12987 325.705919 
L 74.805195 325.705919 
L 79.480519 325.4593 
L 84.155844 325.431007 
L 88.831169 325.077598 
L 93.506494 325.056724 
L 98.181818 325.144708 
L 102.857143 324.536549 
L 107.532468 324.546896 
L 112.207792 323.581708 
L 116.883117 322.453494 
L 121.558442 320.443906 
L 126.233766 318.177539 
L 130.909091 316.90554 
L 135.584416 316.559011 
L 140.25974 316.582757 
L 144.935065 315.795131 
L 149.61039 314.634034 
L 154.285714 313.86308 
L 158.961039 313.135439 
L 163.636364 312.662762 
L 168.311688 311.40017 
L 172.987013 310.64278 
L 177.662338 310.206554 
L 182.337662 309.797504 
L 187.012987 309.160242 
L 191.688312 308.10456 
L 196.363636 307.199302 
L 201.038961 306.309145 
L 205.714286 305.269491 
L 210.38961 304.605691 
L 215.064935 304.124009 
L 219.74026 304.686975 
L 224.415584 304.942829 
L 229.090909 305.553285 
L 233.766234 306.170643 
L 238.441558 306.720162 
L 243.116883 307.377188 
L 247.792208 307.834441 
L 252.467532 307.719105 
L 257.142857 308.096362 
L 261.818182 308.917818 
L 266.493506 309.588781 
L 271.168831 310.628125 
L 275.844156 311.003886 
L 280.519481 310.832826 
L 285.194805 310.806347 
L 289.87013 310.890947 
L 294.545455 311.253329 
" clip-path="url(#p99fc1f8575)" style="fill: none; stroke: #b2b2b2; stroke-opacity: 0.2; stroke-width: 1.5; stroke-linecap: square"/>
   </g>
   <g id="line2d_12">
    <path d="M 65.454545 328.766688 
L 70.12987 328.845651 
L 74.805195 328.884339 
L 79.480519 328.700853 
L 84.155844 328.569996 
L 88.831169 328.563425 
L 93.506494 328.554588 
L 98.181818 328.434247 
L 102.857143 328.166431 
L 107.532468 327.985325 
L 112.207792 327.783094 
L 116.883117 327.51465 
L 121.558442 327.50751 
L 126.233766 327.758759 
L 130.909091 327.808383 
L 135.584416 327.784574 
L 140.25974 327.657045 
L 144.935065 327.465907 
L 149.61039 327.516184 
L 154.285714 327.614204 
L 158.961039 327.751614 
L 163.636364 327.795865 
L 168.311688 327.89311 
L 172.987013 327.865809 
L 177.662338 327.872137 
L 182.337662 327.856956 
L 187.012987 327.780642 
L 191.688312 327.3844 
L 196.363636 327.061443 
L 201.038961 326.932974 
L 205.714286 326.862843 
L 210.38961 327.024508 
L 215.064935 327.33108 
L 219.74026 327.521984 
L 224.415584 327.691665 
L 229.090909 327.824432 
L 233.766234 327.744722 
L 238.441558 327.744365 
L 243.116883 327.642471 
L 247.792208 327.285708 
L 252.467532 326.960585 
L 257.142857 326.831704 
L 261.818182 326.739472 
L 266.493506 326.4495 
L 271.168831 326.055835 
L 275.844156 325.957254 
L 280.519481 325.94209 
L 285.194805 325.979383 
L 289.87013 325.973903 
L 294.545455 326.033972 
" clip-path="url(#p99fc1f8575)" style="fill: none; stroke: #b2b2b2; stroke-opacity: 0.2; stroke-width: 1.5; stroke-linecap: square"/>
   </g>
   <g id="line2d_13">
    <path d="M 65.454545 332.995096 
L 70.12987 332.995096 
L 74.805195 332.92828 
L 79.480519 332.718492 
L 84.155844 332.514202 
L 88.831169 332.36669 
L 93.506494 332.270431 
L 98.181818 332.224142 
L 102.857143 331.911954 
L 107.532468 331.517888 
L 112.207792 331.045893 
L 116.883117 330.624076 
L 121.558442 330.198846 
L 126.233766 329.770458 
L 130.909091 329.640812 
L 135.584416 329.384436 
L 140.25974 329.052671 
L 144.935065 328.901112 
L 149.61039 328.714678 
L 154.285714 328.471576 
L 158.961039 328.203821 
L 163.636364 328.036771 
L 168.311688 327.921342 
L 172.987013 327.982355 
L 177.662338 328.151994 
L 182.337662 328.366039 
L 187.012987 328.59859 
L 191.688312 328.86441 
L 196.363636 329.111188 
L 201.038961 329.361545 
L 205.714286 329.598232 
L 210.38961 329.803425 
L 215.064935 329.917626 
L 219.74026 329.993477 
L 224.415584 330.056689 
L 229.090909 330.060839 
L 233.766234 330.134505 
L 238.441558 330.220591 
L 243.116883 330.382347 
L 247.792208 330.5696 
L 252.467532 330.789433 
L 257.142857 331.060804 
L 261.818182 331.292426 
L 266.493506 331.502246 
L 271.168831 331.689372 
L 275.844156 331.763435 
L 280.519481 331.796587 
L 285.194805 331.863832 
L 289.87013 331.930629 
L 294.545455 332.04396 
" clip-path="url(#p99fc1f8575)" style="fill: none; stroke: #b2b2b2; stroke-opacity: 0.2; stroke-width: 1.5; stroke-linecap: square"/>
   </g>
   <g id="line2d_14">
    <path d="M 65.454545 323.494195 
L 70.12987 323.694499 
L 74.805195 323.865406 
L 79.480519 324.272998 
L 84.155844 324.895617 
L 88.831169 325.063475 
L 93.506494 325.140222 
L 98.181818 325.343409 
L 102.857143 325.327465 
L 107.532468 325.03149 
L 112.207792 324.803626 
L 116.883117 324.737324 
L 121.558442 324.430628 
L 126.233766 324.162075 
L 130.909091 323.884772 
L 135.584416 323.808921 
L 140.25974 323.488077 
L 144.935065 323.027888 
L 149.61039 322.519812 
L 154.285714 321.960426 
L 158.961039 321.44544 
L 163.636364 320.955901 
L 168.311688 320.429333 
L 172.987013 319.931826 
L 177.662338 319.561838 
L 182.337662 319.128323 
L 187.012987 318.706935 
L 191.688312 318.717763 
L 196.363636 318.864481 
L 201.038961 318.967424 
L 205.714286 319.199407 
L 210.38961 319.469179 
L 215.064935 319.651035 
L 219.74026 319.942716 
L 224.415584 319.954928 
L 229.090909 319.754124 
L 233.766234 319.754815 
L 238.441558 319.528333 
L 243.116883 319.602826 
L 247.792208 319.555389 
L 252.467532 319.400317 
L 257.142857 319.711561 
L 261.818182 319.869744 
L 266.493506 320.031572 
L 271.168831 320.368984 
L 275.844156 320.949708 
L 280.519481 322.068603 
L 285.194805 323.023285 
L 289.87013 323.48247 
L 294.545455 323.399344 
" clip-path="url(#p99fc1f8575)" style="fill: none; stroke: #b2b2b2; stroke-opacity: 0.2; stroke-width: 1.5; stroke-linecap: square"/>
   </g>
   <g id="line2d_15">
    <path d="M 65.454545 326.016677 
L 70.12987 326.016677 
L 74.805195 325.916548 
L 79.480519 325.606672 
L 84.155844 325.227546 
L 88.831169 325.432673 
L 93.506494 325.664792 
L 98.181818 325.701603 
L 102.857143 325.710382 
L 107.532468 325.466709 
L 112.207792 325.178727 
L 116.883117 324.546306 
L 121.558442 323.771045 
L 126.233766 322.950898 
L 130.909091 322.187984 
L 135.584416 321.300604 
L 140.25974 320.832765 
L 144.935065 320.227751 
L 149.61039 319.693252 
L 154.285714 319.006362 
L 158.961039 318.206471 
L 163.636364 317.556092 
L 168.311688 317.003204 
L 172.987013 316.48587 
L 177.662338 316.390398 
L 182.337662 316.439999 
L 187.012987 316.735887 
L 191.688312 316.922266 
L 196.363636 317.181875 
L 201.038961 317.529991 
L 205.714286 317.887873 
L 210.38961 317.998808 
L 215.064935 318.211123 
L 219.74026 318.420706 
L 224.415584 318.651739 
L 229.090909 318.959691 
L 233.766234 319.103253 
L 238.441558 319.048311 
L 243.116883 318.977571 
L 247.792208 319.097397 
L 252.467532 319.024974 
L 257.142857 318.996493 
L 261.818182 318.933381 
L 266.493506 318.656797 
L 271.168831 318.481129 
L 275.844156 318.218587 
L 280.519481 318.158586 
L 285.194805 318.216054 
L 289.87013 318.388231 
L 294.545455 318.495813 
" clip-path="url(#p99fc1f8575)" style="fill: none; stroke: #b2b2b2; stroke-opacity: 0.2; stroke-width: 1.5; stroke-linecap: square"/>
   </g>
   <g id="line2d_16">
    <path d="M 65.454545 322.627902 
L 70.12987 322.664285 
L 74.805195 323.255447 
L 79.480519 323.734762 
L 84.155844 323.903187 
L 88.831169 323.77168 
L 93.506494 323.598101 
L 98.181818 323.553955 
L 102.857143 323.53867 
L 107.532468 323.286851 
L 112.207792 323.029475 
L 116.883117 322.859168 
L 121.558442 322.884749 
L 126.233766 322.53275 
L 130.909091 322.174612 
L 135.584416 322.028865 
L 140.25974 321.727786 
L 144.935065 321.643504 
L 149.61039 321.74199 
L 154.285714 321.640381 
L 158.961039 321.688492 
L 163.636364 322.052463 
L 168.311688 322.329769 
L 172.987013 322.074573 
L 177.662338 322.002195 
L 182.337662 321.495955 
L 187.012987 321.333229 
L 191.688312 321.075166 
L 196.363636 320.942145 
L 201.038961 320.930347 
L 205.714286 320.887261 
L 210.38961 320.719216 
L 215.064935 320.541949 
L 219.74026 320.576221 
L 224.415584 320.758786 
L 229.090909 321.037381 
L 233.766234 321.299343 
L 238.441558 321.67332 
L 243.116883 322.189049 
L 247.792208 322.679249 
L 252.467532 323.083955 
L 257.142857 323.307918 
L 261.818182 323.495628 
L 266.493506 323.532306 
L 271.168831 323.535959 
L 275.844156 323.571568 
L 280.519481 323.337034 
L 285.194805 323.100768 
L 289.87013 322.940268 
L 294.545455 323.118287 
" clip-path="url(#p99fc1f8575)" style="fill: none; stroke: #b2b2b2; stroke-opacity: 0.2; stroke-width: 1.5; stroke-linecap: square"/>
   </g>
   <g id="line2d_17">
    <path d="M 65.454545 308.658424 
L 70.12987 309.284245 
L 74.805195 310.309478 
L 79.480519 310.793715 
L 84.155844 309.863891 
L 88.831169 310.11635 
L 93.506494 309.702582 
L 98.181818 308.980123 
L 102.857143 309.482617 
L 107.532468 310.434128 
L 112.207792 311.060337 
L 116.883117 311.930208 
L 121.558442 311.925569 
L 126.233766 311.828241 
L 130.909091 312.66055 
L 135.584416 314.354985 
L 140.25974 315.637333 
L 144.935065 316.665617 
L 149.61039 317.594471 
L 154.285714 318.025327 
L 158.961039 317.887023 
L 163.636364 317.94323 
L 168.311688 318.418874 
L 172.987013 319.118118 
L 177.662338 319.523996 
L 182.337662 319.497084 
L 187.012987 319.359574 
L 191.688312 318.840016 
L 196.363636 318.768432 
L 201.038961 318.704628 
L 205.714286 318.762012 
L 210.38961 318.671248 
L 215.064935 318.947025 
L 219.74026 319.177676 
L 224.415584 319.519746 
L 229.090909 320.006859 
L 233.766234 320.755495 
L 238.441558 321.426928 
L 243.116883 321.879002 
L 247.792208 322.192783 
L 252.467532 322.709548 
L 257.142857 322.83452 
L 261.818182 322.780435 
L 266.493506 322.876727 
L 271.168831 322.903824 
L 275.844156 322.776224 
L 280.519481 322.396727 
L 285.194805 322.382998 
L 289.87013 322.279202 
L 294.545455 321.851112 
" clip-path="url(#p99fc1f8575)" style="fill: none; stroke: #b2b2b2; stroke-opacity: 0.2; stroke-width: 1.5; stroke-linecap: square"/>
   </g>
   <g id="line2d_18">
    <path d="M 65.454545 324.441976 
L 70.12987 324.428251 
L 74.805195 324.576689 
L 79.480519 324.901773 
L 84.155844 325.208901 
L 88.831169 325.363209 
L 93.506494 325.389392 
L 98.181818 325.248536 
L 102.857143 324.999838 
L 107.532468 324.574027 
L 112.207792 324.045262 
L 116.883117 323.535415 
L 121.558442 323.075651 
L 126.233766 322.650147 
L 130.909091 322.245683 
L 135.584416 321.815882 
L 140.25974 321.338099 
L 144.935065 320.741552 
L 149.61039 320.097277 
L 154.285714 319.601568 
L 158.961039 319.364256 
L 163.636364 319.355736 
L 168.311688 319.57164 
L 172.987013 319.655772 
L 177.662338 319.721935 
L 182.337662 319.841589 
L 187.012987 320.06621 
L 191.688312 320.22063 
L 196.363636 320.357291 
L 201.038961 320.398974 
L 205.714286 320.525265 
L 210.38961 320.573036 
L 215.064935 320.579165 
L 219.74026 320.708317 
L 224.415584 320.839915 
L 229.090909 320.955036 
L 233.766234 321.058373 
L 238.441558 321.046365 
L 243.116883 321.194869 
L 247.792208 321.391652 
L 252.467532 321.563099 
L 257.142857 321.73055 
L 261.818182 322.125842 
L 266.493506 322.663641 
L 271.168831 323.224606 
L 275.844156 323.633928 
L 280.519481 324.029743 
L 285.194805 324.424759 
L 289.87013 325.047836 
L 294.545455 325.634513 
" clip-path="url(#p99fc1f8575)" style="fill: none; stroke: #b2b2b2; stroke-opacity: 0.2; stroke-width: 1.5; stroke-linecap: square"/>
   </g>
   <g id="line2d_19">
    <path d="M 65.454545 326.100291 
L 70.12987 326.112035 
L 74.805195 326.054997 
L 79.480519 326.132402 
L 84.155844 326.023407 
L 88.831169 325.918965 
L 93.506494 325.942265 
L 98.181818 325.60287 
L 102.857143 325.472526 
L 107.532468 325.600268 
L 112.207792 325.49539 
L 116.883117 325.356704 
L 121.558442 325.24243 
L 126.233766 325.16572 
L 130.909091 325.370313 
L 135.584416 325.437481 
L 140.25974 325.260635 
L 144.935065 325.116617 
L 149.61039 324.889994 
L 154.285714 324.558299 
L 158.961039 324.231393 
L 163.636364 323.930182 
L 168.311688 323.690091 
L 172.987013 323.548593 
L 177.662338 323.544016 
L 182.337662 323.501996 
L 187.012987 323.385863 
L 191.688312 323.607093 
L 196.363636 323.769262 
L 201.038961 323.915342 
L 205.714286 324.010097 
L 210.38961 324.089053 
L 215.064935 324.107204 
L 219.74026 324.203347 
L 224.415584 324.455789 
L 229.090909 324.665098 
L 233.766234 324.843616 
L 238.441558 324.994982 
L 243.116883 325.014922 
L 247.792208 325.040957 
L 252.467532 324.99438 
L 257.142857 324.939918 
L 261.818182 325.093219 
L 266.493506 325.140724 
L 271.168831 325.059223 
L 275.844156 324.899257 
L 280.519481 324.911228 
L 285.194805 324.833924 
L 289.87013 324.66029 
L 294.545455 324.287242 
" clip-path="url(#p99fc1f8575)" style="fill: none; stroke: #b2b2b2; stroke-opacity: 0.2; stroke-width: 1.5; stroke-linecap: square"/>
   </g>
   <g id="line2d_20">
    <path d="M 65.454545 334.88547 
L 70.12987 334.896973 
L 74.805195 334.939862 
L 79.480519 334.825418 
L 84.155844 334.602399 
L 88.831169 334.331289 
L 93.506494 333.999725 
L 98.181818 333.584627 
L 102.857143 333.075403 
L 107.532468 332.465943 
L 112.207792 331.883749 
L 116.883117 331.459755 
L 121.558442 331.179727 
L 126.233766 330.980893 
L 130.909091 330.857182 
L 135.584416 330.73877 
L 140.25974 330.565736 
L 144.935065 330.378912 
L 149.61039 330.003467 
L 154.285714 329.575487 
L 158.961039 329.204295 
L 163.636364 328.952289 
L 168.311688 328.893996 
L 172.987013 328.82258 
L 177.662338 328.794989 
L 182.337662 328.715898 
L 187.012987 328.681107 
L 191.688312 328.708255 
L 196.363636 328.845311 
L 201.038961 328.990784 
L 205.714286 329.268489 
L 210.38961 329.53658 
L 215.064935 329.742783 
L 219.74026 329.914907 
L 224.415584 330.064882 
L 229.090909 330.24333 
L 233.766234 330.327056 
L 238.441558 330.508184 
L 243.116883 330.679797 
L 247.792208 330.801894 
L 252.467532 330.898986 
L 257.142857 330.966247 
L 261.818182 331.045198 
L 266.493506 331.028894 
L 271.168831 331.082208 
L 275.844156 331.198715 
L 280.519481 331.465448 
L 285.194805 331.678699 
L 289.87013 331.85065 
L 294.545455 331.919636 
" clip-path="url(#p99fc1f8575)" style="fill: none; stroke: #b2b2b2; stroke-opacity: 0.2; stroke-width: 1.5; stroke-linecap: square"/>
   </g>
   <g id="line2d_21">
    <path d="M 65.454545 313.018588 
L 70.12987 313.688627 
L 74.805195 314.217793 
L 79.480519 314.262253 
L 84.155844 314.5805 
L 88.831169 316.277861 
L 93.506494 316.889692 
L 98.181818 317.165804 
L 102.857143 317.51188 
L 107.532468 317.546002 
L 112.207792 317.155364 
L 116.883117 316.875491 
L 121.558442 316.68533 
L 126.233766 316.618439 
L 130.909091 315.984473 
L 135.584416 315.408297 
L 140.25974 314.58385 
L 144.935065 313.368802 
L 149.61039 312.247542 
L 154.285714 310.931381 
L 158.961039 309.896581 
L 163.636364 309.431573 
L 168.311688 309.192498 
L 172.987013 309.717594 
L 177.662338 309.92849 
L 182.337662 310.48674 
L 187.012987 311.306559 
L 191.688312 311.989083 
L 196.363636 312.197951 
L 201.038961 312.455058 
L 205.714286 312.537118 
L 210.38961 312.662415 
L 215.064935 312.537428 
L 219.74026 312.431634 
L 224.415584 312.600787 
L 229.090909 313.130954 
L 233.766234 313.984692 
L 238.441558 314.589858 
L 243.116883 315.15933 
L 247.792208 315.841647 
L 252.467532 316.679466 
L 257.142857 317.868368 
L 261.818182 318.717444 
L 266.493506 319.414277 
L 271.168831 320.077347 
L 275.844156 320.669669 
L 280.519481 321.285787 
L 285.194805 321.717709 
L 289.87013 322.373607 
L 294.545455 322.990532 
" clip-path="url(#p99fc1f8575)" style="fill: none; stroke: #b2b2b2; stroke-opacity: 0.2; stroke-width: 1.5; stroke-linecap: square"/>
   </g>
   <g id="line2d_22">
    <path d="M 65.454545 316.302001 
L 70.12987 316.515899 
L 74.805195 317.084522 
L 79.480519 317.486987 
L 84.155844 318.018066 
L 88.831169 318.526448 
L 93.506494 319.085726 
L 98.181818 319.719579 
L 102.857143 319.643059 
L 107.532468 319.506718 
L 112.207792 319.03237 
L 116.883117 318.704175 
L 121.558442 318.274754 
L 126.233766 317.782599 
L 130.909091 317.305013 
L 135.584416 316.924016 
L 140.25974 316.688562 
L 144.935065 316.675925 
L 149.61039 316.336668 
L 154.285714 316.111058 
L 158.961039 315.801835 
L 163.636364 315.418579 
L 168.311688 314.83795 
L 172.987013 313.997243 
L 177.662338 313.060392 
L 182.337662 312.611158 
L 187.012987 312.079979 
L 191.688312 311.666231 
L 196.363636 311.464371 
L 201.038961 311.623123 
L 205.714286 311.949388 
L 210.38961 312.17128 
L 215.064935 312.063274 
L 219.74026 311.756809 
L 224.415584 311.515359 
L 229.090909 311.890851 
L 233.766234 312.108037 
L 238.441558 312.469894 
L 243.116883 312.557603 
L 247.792208 312.640186 
L 252.467532 312.69129 
L 257.142857 312.933916 
L 261.818182 313.149258 
L 266.493506 313.44882 
L 271.168831 313.728953 
L 275.844156 313.892725 
L 280.519481 313.919009 
L 285.194805 314.196698 
L 289.87013 314.706646 
L 294.545455 314.910499 
" clip-path="url(#p99fc1f8575)" style="fill: none; stroke: #b2b2b2; stroke-opacity: 0.2; stroke-width: 1.5; stroke-linecap: square"/>
   </g>
   <g id="line2d_23">
    <path d="M 111.272727 382.628571 
L 111.272727 308.571429 
" clip-path="url(#p99fc1f8575)" style="fill: none; stroke-dasharray: 5.55,2.4; stroke-dashoffset: 0; stroke: #000000; stroke-width: 1.5"/>
   </g>
   <g id="line2d_24">
    <path d="M 65.454545 345.6 
L 294.545455 345.6 
" clip-path="url(#p99fc1f8575)" style="fill: none; stroke-dasharray: 5.55,2.4; stroke-dashoffset: 0; stroke: #000000; stroke-width: 1.5"/>
   </g>
   <g id="patch_3">
    <path d="M 50 388.8 
L 50 302.4 
" style="fill: none; stroke: #000000; stroke-width: 0.8; stroke-linejoin: miter; stroke-linecap: square"/>
   </g>
   <g id="patch_4">
    <path d="M 54 392.8 
L 306 392.8 
" style="fill: none; stroke: #000000; stroke-width: 0.8; stroke-linejoin: miter; stroke-linecap: square"/>
   </g>
   <g id="text_12">
    <!-- all depths -->
    <g transform="translate(150.492188 296.4) scale(0.12 -0.12)">
     <defs>
      <path id="DejaVuSans-70" d="M 1159 525 
L 1159 -1331 
L 581 -1331 
L 581 3500 
L 1159 3500 
L 1159 2969 
Q 1341 3281 1617 3432 
Q 1894 3584 2278 3584 
Q 2916 3584 3314 3078 
Q 3713 2572 3713 1747 
Q 3713 922 3314 415 
Q 2916 -91 2278 -91 
Q 1894 -91 1617 61 
Q 1341 213 1159 525 
z
M 3116 1747 
Q 3116 2381 2855 2742 
Q 2594 3103 2138 3103 
Q 1681 3103 1420 2742 
Q 1159 2381 1159 1747 
Q 1159 1113 1420 752 
Q 1681 391 2138 391 
Q 2594 391 2855 752 
Q 3116 1113 3116 1747 
z
" transform="scale(0.015625)"/>
     </defs>
     <use xlink:href="#DejaVuSans-61"/>
     <use xlink:href="#DejaVuSans-6c" x="61.279297"/>
     <use xlink:href="#DejaVuSans-6c" x="89.0625"/>
     <use xlink:href="#DejaVuSans-20" x="116.845703"/>
     <use xlink:href="#DejaVuSans-64" x="148.632812"/>
     <use xlink:href="#DejaVuSans-65" x="212.109375"/>
     <use xlink:href="#DejaVuSans-70" x="273.632812"/>
     <use xlink:href="#DejaVuSans-74" x="337.109375"/>
     <use xlink:href="#DejaVuSans-68" x="376.318359"/>
     <use xlink:href="#DejaVuSans-73" x="439.697266"/>
    </g>
   </g>
   <g id="legend_1">
    <g id="patch_5">
     <path d="M 61 383.8 
L 108.657813 383.8 
Q 110.657813 383.8 110.657813 381.8 
L 110.657813 368.121875 
Q 110.657813 366.121875 108.657813 366.121875 
L 61 366.121875 
Q 59 366.121875 59 368.121875 
L 59 381.8 
Q 59 383.8 61 383.8 
z
" style="fill: #ffffff; opacity: 0.8; stroke: #cccccc; stroke-linejoin: miter"/>
    </g>
    <g id="line2d_25">
     <path d="M 63 374.220312 
L 73 374.220312 
L 83 374.220312 
" style="fill: none; stroke: #b2b2b2; stroke-width: 1.5; stroke-linecap: square"/>
    </g>
    <g id="text_13">
     <!-- sur -->
     <g transform="translate(91 377.720312) scale(0.1 -0.1)">
      <defs>
       <path id="DejaVuSans-75" d="M 544 1381 
L 544 3500 
L 1119 3500 
L 1119 1403 
Q 1119 906 1312 657 
Q 1506 409 1894 409 
Q 2359 409 2629 706 
Q 2900 1003 2900 1516 
L 2900 3500 
L 3475 3500 
L 3475 0 
L 2900 0 
L 2900 538 
Q 2691 219 2414 64 
Q 2138 -91 1772 -91 
Q 1169 -91 856 284 
Q 544 659 544 1381 
z
M 1991 3584 
L 1991 3584 
z
" transform="scale(0.015625)"/>
      </defs>
      <use xlink:href="#DejaVuSans-73"/>
      <use xlink:href="#DejaVuSans-75" x="52.099609"/>
      <use xlink:href="#DejaVuSans-72" x="115.478516"/>
     </g>
    </g>
   </g>
  </g>
 </g>
 <defs>
  <clipPath id="p99fc1f8575">
   <rect x="54" y="302.4" width="252" height="86.4"/>
  </clipPath>
 </defs>
</svg>
