<?xml version="1.0" encoding="utf-8" standalone="no"?>
<!DOCTYPE svg PUBLIC "-//W3C//DTD SVG 1.1//EN"
  "http://www.w3.org/Graphics/SVG/1.1/DTD/svg11.dtd">
<svg xmlns:xlink="http://www.w3.org/1999/xlink" width="360pt" height="432pt" viewBox="0 0 360 432" xmlns="http://www.w3.org/2000/svg" version="1.1">
 <metadata>
  <rdf:RDF xmlns:dc="http://purl.org/dc/elements/1.1/" xmlns:cc="http://creativecommons.org/ns#" xmlns:rdf="http://www.w3.org/1999/02/22-rdf-syntax-ns#">
   <cc:Work>
    <dc:type rdf:resource="http://purl.org/dc/dcmitype/StillImage"/>
    <dc:date>2025-10-31T15:45:48.770776</dc:date>
    <dc:format>image/svg+xml</dc:format>
    <dc:creator>
     <cc:Agent>
      <dc:title>Matplotlib v3.8.0, https://matplotlib.org/</dc:title>
     </cc:Agent>
    </dc:creator>
   </cc:Work>
  </rdf:RDF>
 </metadata>
 <defs>
  <style type="text/css">*{stroke-linejoin: round; stroke-linecap: butt}</style>
 </defs>
 <g id="figure_1">
  <g id="patch_1">
   <path d="M 0 432 
L 360 432 
L 360 0 
L 0 0 
z
" style="fill: #ffffff"/>
  </g>
  <g id="axes_1">
   <g id="patch_2">
    <path d="M 54 388.8 
L 306 388.8 
L 306 302.4 
L 54 302.4 
z
" style="fill: #ffffff"/>
   </g>
   <g id="PolyCollection_1">
    <defs>
     <path id="m21ee9b92a2" d="M 65.454545 -82.883444 
L 65.454545 -78.176017 
L 70.12987 -78.466708 
L 74.805195 -78.969423 
L 79.480519 -79.29261 
L 84.155844 -79.307888 
L 88.831169 -79.454397 
L 93.506494 -79.427385 
L 98.181818 -79.102202 
L 102.857143 -78.832017 
L 107.532468 -79.064545 
L 112.207792 -79.733979 
L 116.883117 -80.448939 
L 121.558442 -81.08172 
L 126.233766 -81.466821 
L 130.909091 -81.440418 
L 135.584416 -81.397418 
L 140.25974 -81.154966 
L 144.935065 -81.123364 
L 149.61039 -81.008054 
L 154.285714 -80.859979 
L 158.961039 -80.976092 
L 163.636364 -81.013359 
L 168.311688 -80.844779 
L 172.987013 -80.592645 
L 177.662338 -80.38768 
L 182.337662 -80.170348 
L 187.012987 -80.116749 
L 191.688312 -80.222833 
L 196.363636 -80.243071 
L 201.038961 -80.123017 
L 205.714286 -79.750412 
L 210.38961 -79.519701 
L 215.064935 -79.824037 
L 219.74026 -80.077126 
L 224.415584 -80.141036 
L 229.090909 -80.270214 
L 233.766234 -80.396383 
L 238.441558 -80.556923 
L 243.116883 -80.606929 
L 247.792208 -80.64003 
L 252.467532 -80.711567 
L 257.142857 -80.674533 
L 261.818182 -80.591928 
L 266.493506 -80.402123 
L 271.168831 -80.400368 
L 275.844156 -80.40838 
L 280.519481 -80.512944 
L 285.194805 -80.651052 
L 289.87013 -80.883743 
L 294.545455 -81.221317 
L 294.545455 -87.248508 
L 294.545455 -87.248508 
L 289.87013 -86.862797 
L 285.194805 -86.548993 
L 280.519481 -86.473306 
L 275.844156 -86.598171 
L 271.168831 -86.76731 
L 266.493506 -86.903949 
L 261.818182 -87.080646 
L 257.142857 -87.172106 
L 252.467532 -87.203204 
L 247.792208 -87.197514 
L 243.116883 -87.230083 
L 238.441558 -87.132197 
L 233.766234 -87.001857 
L 229.090909 -86.872086 
L 224.415584 -86.692676 
L 219.74026 -86.549088 
L 215.064935 -86.266685 
L 210.38961 -86.082958 
L 205.714286 -86.239727 
L 201.038961 -86.550232 
L 196.363636 -86.655449 
L 191.688312 -86.596189 
L 187.012987 -86.555683 
L 182.337662 -86.686702 
L 177.662338 -86.895481 
L 172.987013 -87.077647 
L 168.311688 -87.244127 
L 163.636364 -87.261407 
L 158.961039 -87.283713 
L 154.285714 -87.241604 
L 149.61039 -87.234479 
L 144.935065 -87.246739 
L 140.25974 -87.093177 
L 135.584416 -86.816123 
L 130.909091 -86.532347 
L 126.233766 -86.341981 
L 121.558442 -85.847007 
L 116.883117 -85.394464 
L 112.207792 -85.033188 
L 107.532468 -84.856118 
L 102.857143 -84.692051 
L 98.181818 -84.633319 
L 93.506494 -84.468333 
L 88.831169 -84.285875 
L 84.155844 -84.271759 
L 79.480519 -84.160806 
L 74.805195 -83.705951 
L 70.12987 -83.234967 
L 65.454545 -82.883444 
z
" style="stroke: #ff0000; stroke-opacity: 0.4"/>
    </defs>
    <g clip-path="url(#pd1e04dfdc1)">
     <use xlink:href="#m21ee9b92a2" x="0" y="432" style="fill: #ff0000; fill-opacity: 0.4; stroke: #ff0000; stroke-opacity: 0.4"/>
    </g>
   </g>
   <g id="matplotlib.axis_1">
    <g id="xtick_1">
     <g id="line2d_1">
      <defs>
       <path id="m3913e23891" d="M 0 0 
L 0 3.5 
" style="stroke: #000000; stroke-width: 0.8"/>
      </defs>
      <g>
       <use xlink:href="#m3913e23891" x="65.454545" y="392.8" style="stroke: #000000; stroke-width: 0.8"/>
      </g>
     </g>
     <g id="text_1">
      <!-- 0 -->
      <g transform="translate(62.273295 407.398438) scale(0.1 -0.1)">
       <defs>
        <path id="DejaVuSans-30" d="M 2034 4250 
Q 1547 4250 1301 3770 
Q 1056 3291 1056 2328 
Q 1056 1369 1301 889 
Q 1547 409 2034 409 
Q 2525 409 2770 889 
Q 3016 1369 3016 2328 
Q 3016 3291 2770 3770 
Q 2525 4250 2034 4250 
z
M 2034 4750 
Q 2819 4750 3233 4129 
Q 3647 3509 3647 2328 
Q 3647 1150 3233 529 
Q 2819 -91 2034 -91 
Q 1250 -91 836 529 
Q 422 1150 422 2328 
Q 422 3509 836 4129 
Q 1250 4750 2034 4750 
z
" transform="scale(0.015625)"/>
       </defs>
       <use xlink:href="#DejaVuSans-30"/>
      </g>
     </g>
    </g>
    <g id="xtick_2">
     <g id="line2d_2">
      <g>
       <use xlink:href="#m3913e23891" x="111.272727" y="392.8" style="stroke: #000000; stroke-width: 0.8"/>
      </g>
     </g>
     <g id="text_2">
      <!-- 1 -->
      <g transform="translate(108.091477 407.398438) scale(0.1 -0.1)">
       <defs>
        <path id="DejaVuSans-31" d="M 794 531 
L 1825 531 
L 1825 4091 
L 703 3866 
L 703 4441 
L 1819 4666 
L 2450 4666 
L 2450 531 
L 3481 531 
L 3481 0 
L 794 0 
L 794 531 
z
" transform="scale(0.015625)"/>
       </defs>
       <use xlink:href="#DejaVuSans-31"/>
      </g>
     </g>
    </g>
    <g id="xtick_3">
     <g id="line2d_3">
      <g>
       <use xlink:href="#m3913e23891" x="157.090909" y="392.8" style="stroke: #000000; stroke-width: 0.8"/>
      </g>
     </g>
     <g id="text_3">
      <!-- 2 -->
      <g transform="translate(153.909659 407.398438) scale(0.1 -0.1)">
       <defs>
        <path id="DejaVuSans-32" d="M 1228 531 
L 3431 531 
L 3431 0 
L 469 0 
L 469 531 
Q 828 903 1448 1529 
Q 2069 2156 2228 2338 
Q 2531 2678 2651 2914 
Q 2772 3150 2772 3378 
Q 2772 3750 2511 3984 
Q 2250 4219 1831 4219 
Q 1534 4219 1204 4116 
Q 875 4013 500 3803 
L 500 4441 
Q 881 4594 1212 4672 
Q 1544 4750 1819 4750 
Q 2544 4750 2975 4387 
Q 3406 4025 3406 3419 
Q 3406 3131 3298 2873 
Q 3191 2616 2906 2266 
Q 2828 2175 2409 1742 
Q 1991 1309 1228 531 
z
" transform="scale(0.015625)"/>
       </defs>
       <use xlink:href="#DejaVuSans-32"/>
      </g>
     </g>
    </g>
    <g id="xtick_4">
     <g id="line2d_4">
      <g>
       <use xlink:href="#m3913e23891" x="202.909091" y="392.8" style="stroke: #000000; stroke-width: 0.8"/>
      </g>
     </g>
     <g id="text_4">
      <!-- 3 -->
      <g transform="translate(199.727841 407.398438) scale(0.1 -0.1)">
       <defs>
        <path id="DejaVuSans-33" d="M 2597 2516 
Q 3050 2419 3304 2112 
Q 3559 1806 3559 1356 
Q 3559 666 3084 287 
Q 2609 -91 1734 -91 
Q 1441 -91 1130 -33 
Q 819 25 488 141 
L 488 750 
Q 750 597 1062 519 
Q 1375 441 1716 441 
Q 2309 441 2620 675 
Q 2931 909 2931 1356 
Q 2931 1769 2642 2001 
Q 2353 2234 1838 2234 
L 1294 2234 
L 1294 2753 
L 1863 2753 
Q 2328 2753 2575 2939 
Q 2822 3125 2822 3475 
Q 2822 3834 2567 4026 
Q 2313 4219 1838 4219 
Q 1578 4219 1281 4162 
Q 984 4106 628 3988 
L 628 4550 
Q 988 4650 1302 4700 
Q 1616 4750 1894 4750 
Q 2613 4750 3031 4423 
Q 3450 4097 3450 3541 
Q 3450 3153 3228 2886 
Q 3006 2619 2597 2516 
z
" transform="scale(0.015625)"/>
       </defs>
       <use xlink:href="#DejaVuSans-33"/>
      </g>
     </g>
    </g>
    <g id="xtick_5">
     <g id="line2d_5">
      <g>
       <use xlink:href="#m3913e23891" x="248.727273" y="392.8" style="stroke: #000000; stroke-width: 0.8"/>
      </g>
     </g>
     <g id="text_5">
      <!-- 4 -->
      <g transform="translate(245.546023 407.398438) scale(0.1 -0.1)">
       <defs>
        <path id="DejaVuSans-34" d="M 2419 4116 
L 825 1625 
L 2419 1625 
L 2419 4116 
z
M 2253 4666 
L 3047 4666 
L 3047 1625 
L 3713 1625 
L 3713 1100 
L 3047 1100 
L 3047 0 
L 2419 0 
L 2419 1100 
L 313 1100 
L 313 1709 
L 2253 4666 
z
" transform="scale(0.015625)"/>
       </defs>
       <use xlink:href="#DejaVuSans-34"/>
      </g>
     </g>
    </g>
    <g id="xtick_6">
     <g id="line2d_6">
      <g>
       <use xlink:href="#m3913e23891" x="294.545455" y="392.8" style="stroke: #000000; stroke-width: 0.8"/>
      </g>
     </g>
     <g id="text_6">
      <!-- 5 -->
      <g transform="translate(291.364205 407.398438) scale(0.1 -0.1)">
       <defs>
        <path id="DejaVuSans-35" d="M 691 4666 
L 3169 4666 
L 3169 4134 
L 1269 4134 
L 1269 2991 
Q 1406 3038 1543 3061 
Q 1681 3084 1819 3084 
Q 2600 3084 3056 2656 
Q 3513 2228 3513 1497 
Q 3513 744 3044 326 
Q 2575 -91 1722 -91 
Q 1428 -91 1123 -41 
Q 819 9 494 109 
L 494 744 
Q 775 591 1075 516 
Q 1375 441 1709 441 
Q 2250 441 2565 725 
Q 2881 1009 2881 1497 
Q 2881 1984 2565 2268 
Q 2250 2553 1709 2553 
Q 1456 2553 1204 2497 
Q 953 2441 691 2322 
L 691 4666 
z
" transform="scale(0.015625)"/>
       </defs>
       <use xlink:href="#DejaVuSans-35"/>
      </g>
     </g>
    </g>
    <g id="text_7">
     <!-- relative distance from ROI center ($\sigma$) -->
     <g transform="translate(106.48 419.556875) scale(0.08 -0.08)">
      <defs>
       <path id="DejaVuSans-72" d="M 2631 2963 
Q 2534 3019 2420 3045 
Q 2306 3072 2169 3072 
Q 1681 3072 1420 2755 
Q 1159 2438 1159 1844 
L 1159 0 
L 581 0 
L 581 3500 
L 1159 3500 
L 1159 2956 
Q 1341 3275 1631 3429 
Q 1922 3584 2338 3584 
Q 2397 3584 2469 3576 
Q 2541 3569 2628 3553 
L 2631 2963 
z
" transform="scale(0.015625)"/>
       <path id="DejaVuSans-65" d="M 3597 1894 
L 3597 1613 
L 953 1613 
Q 991 1019 1311 708 
Q 1631 397 2203 397 
Q 2534 397 2845 478 
Q 3156 559 3463 722 
L 3463 178 
Q 3153 47 2828 -22 
Q 2503 -91 2169 -91 
Q 1331 -91 842 396 
Q 353 884 353 1716 
Q 353 2575 817 3079 
Q 1281 3584 2069 3584 
Q 2775 3584 3186 3129 
Q 3597 2675 3597 1894 
z
M 3022 2063 
Q 3016 2534 2758 2815 
Q 2500 3097 2075 3097 
Q 1594 3097 1305 2825 
Q 1016 2553 972 2059 
L 3022 2063 
z
" transform="scale(0.015625)"/>
       <path id="DejaVuSans-6c" d="M 603 4863 
L 1178 4863 
L 1178 0 
L 603 0 
L 603 4863 
z
" transform="scale(0.015625)"/>
       <path id="DejaVuSans-61" d="M 2194 1759 
Q 1497 1759 1228 1600 
Q 959 1441 959 1056 
Q 959 750 1161 570 
Q 1363 391 1709 391 
Q 2188 391 2477 730 
Q 2766 1069 2766 1631 
L 2766 1759 
L 2194 1759 
z
M 3341 1997 
L 3341 0 
L 2766 0 
L 2766 531 
Q 2569 213 2275 61 
Q 1981 -91 1556 -91 
Q 1019 -91 701 211 
Q 384 513 384 1019 
Q 384 1609 779 1909 
Q 1175 2209 1959 2209 
L 2766 2209 
L 2766 2266 
Q 2766 2663 2505 2880 
Q 2244 3097 1772 3097 
Q 1472 3097 1187 3025 
Q 903 2953 641 2809 
L 641 3341 
Q 956 3463 1253 3523 
Q 1550 3584 1831 3584 
Q 2591 3584 2966 3190 
Q 3341 2797 3341 1997 
z
" transform="scale(0.015625)"/>
       <path id="DejaVuSans-74" d="M 1172 4494 
L 1172 3500 
L 2356 3500 
L 2356 3053 
L 1172 3053 
L 1172 1153 
Q 1172 725 1289 603 
Q 1406 481 1766 481 
L 2356 481 
L 2356 0 
L 1766 0 
Q 1100 0 847 248 
Q 594 497 594 1153 
L 594 3053 
L 172 3053 
L 172 3500 
L 594 3500 
L 594 4494 
L 1172 4494 
z
" transform="scale(0.015625)"/>
       <path id="DejaVuSans-69" d="M 603 3500 
L 1178 3500 
L 1178 0 
L 603 0 
L 603 3500 
z
M 603 4863 
L 1178 4863 
L 1178 4134 
L 603 4134 
L 603 4863 
z
" transform="scale(0.015625)"/>
       <path id="DejaVuSans-76" d="M 191 3500 
L 800 3500 
L 1894 563 
L 2988 3500 
L 3597 3500 
L 2284 0 
L 1503 0 
L 191 3500 
z
" transform="scale(0.015625)"/>
       <path id="DejaVuSans-20" transform="scale(0.015625)"/>
       <path id="DejaVuSans-64" d="M 2906 2969 
L 2906 4863 
L 3481 4863 
L 3481 0 
L 2906 0 
L 2906 525 
Q 2725 213 2448 61 
Q 2172 -91 1784 -91 
Q 1150 -91 751 415 
Q 353 922 353 1747 
Q 353 2572 751 3078 
Q 1150 3584 1784 3584 
Q 2172 3584 2448 3432 
Q 2725 3281 2906 2969 
z
M 947 1747 
Q 947 1113 1208 752 
Q 1469 391 1925 391 
Q 2381 391 2643 752 
Q 2906 1113 2906 1747 
Q 2906 2381 2643 2742 
Q 2381 3103 1925 3103 
Q 1469 3103 1208 2742 
Q 947 2381 947 1747 
z
" transform="scale(0.015625)"/>
       <path id="DejaVuSans-73" d="M 2834 3397 
L 2834 2853 
Q 2591 2978 2328 3040 
Q 2066 3103 1784 3103 
Q 1356 3103 1142 2972 
Q 928 2841 928 2578 
Q 928 2378 1081 2264 
Q 1234 2150 1697 2047 
L 1894 2003 
Q 2506 1872 2764 1633 
Q 3022 1394 3022 966 
Q 3022 478 2636 193 
Q 2250 -91 1575 -91 
Q 1294 -91 989 -36 
Q 684 19 347 128 
L 347 722 
Q 666 556 975 473 
Q 1284 391 1588 391 
Q 1994 391 2212 530 
Q 2431 669 2431 922 
Q 2431 1156 2273 1281 
Q 2116 1406 1581 1522 
L 1381 1569 
Q 847 1681 609 1914 
Q 372 2147 372 2553 
Q 372 3047 722 3315 
Q 1072 3584 1716 3584 
Q 2034 3584 2315 3537 
Q 2597 3491 2834 3397 
z
" transform="scale(0.015625)"/>
       <path id="DejaVuSans-6e" d="M 3513 2113 
L 3513 0 
L 2938 0 
L 2938 2094 
Q 2938 2591 2744 2837 
Q 2550 3084 2163 3084 
Q 1697 3084 1428 2787 
Q 1159 2491 1159 1978 
L 1159 0 
L 581 0 
L 581 3500 
L 1159 3500 
L 1159 2956 
Q 1366 3272 1645 3428 
Q 1925 3584 2291 3584 
Q 2894 3584 3203 3211 
Q 3513 2838 3513 2113 
z
" transform="scale(0.015625)"/>
       <path id="DejaVuSans-63" d="M 3122 3366 
L 3122 2828 
Q 2878 2963 2633 3030 
Q 2388 3097 2138 3097 
Q 1578 3097 1268 2742 
Q 959 2388 959 1747 
Q 959 1106 1268 751 
Q 1578 397 2138 397 
Q 2388 397 2633 464 
Q 2878 531 3122 666 
L 3122 134 
Q 2881 22 2623 -34 
Q 2366 -91 2075 -91 
Q 1284 -91 818 406 
Q 353 903 353 1747 
Q 353 2603 823 3093 
Q 1294 3584 2113 3584 
Q 2378 3584 2631 3529 
Q 2884 3475 3122 3366 
z
" transform="scale(0.015625)"/>
       <path id="DejaVuSans-66" d="M 2375 4863 
L 2375 4384 
L 1825 4384 
Q 1516 4384 1395 4259 
Q 1275 4134 1275 3809 
L 1275 3500 
L 2222 3500 
L 2222 3053 
L 1275 3053 
L 1275 0 
L 697 0 
L 697 3053 
L 147 3053 
L 147 3500 
L 697 3500 
L 697 3744 
Q 697 4328 969 4595 
Q 1241 4863 1831 4863 
L 2375 4863 
z
" transform="scale(0.015625)"/>
       <path id="DejaVuSans-6f" d="M 1959 3097 
Q 1497 3097 1228 2736 
Q 959 2375 959 1747 
Q 959 1119 1226 758 
Q 1494 397 1959 397 
Q 2419 397 2687 759 
Q 2956 1122 2956 1747 
Q 2956 2369 2687 2733 
Q 2419 3097 1959 3097 
z
M 1959 3584 
Q 2709 3584 3137 3096 
Q 3566 2609 3566 1747 
Q 3566 888 3137 398 
Q 2709 -91 1959 -91 
Q 1206 -91 779 398 
Q 353 888 353 1747 
Q 353 2609 779 3096 
Q 1206 3584 1959 3584 
z
" transform="scale(0.015625)"/>
       <path id="DejaVuSans-6d" d="M 3328 2828 
Q 3544 3216 3844 3400 
Q 4144 3584 4550 3584 
Q 5097 3584 5394 3201 
Q 5691 2819 5691 2113 
L 5691 0 
L 5113 0 
L 5113 2094 
Q 5113 2597 4934 2840 
Q 4756 3084 4391 3084 
Q 3944 3084 3684 2787 
Q 3425 2491 3425 1978 
L 3425 0 
L 2847 0 
L 2847 2094 
Q 2847 2600 2669 2842 
Q 2491 3084 2119 3084 
Q 1678 3084 1418 2786 
Q 1159 2488 1159 1978 
L 1159 0 
L 581 0 
L 581 3500 
L 1159 3500 
L 1159 2956 
Q 1356 3278 1631 3431 
Q 1906 3584 2284 3584 
Q 2666 3584 2933 3390 
Q 3200 3197 3328 2828 
z
" transform="scale(0.015625)"/>
       <path id="DejaVuSans-52" d="M 2841 2188 
Q 3044 2119 3236 1894 
Q 3428 1669 3622 1275 
L 4263 0 
L 3584 0 
L 2988 1197 
Q 2756 1666 2539 1819 
Q 2322 1972 1947 1972 
L 1259 1972 
L 1259 0 
L 628 0 
L 628 4666 
L 2053 4666 
Q 2853 4666 3247 4331 
Q 3641 3997 3641 3322 
Q 3641 2881 3436 2590 
Q 3231 2300 2841 2188 
z
M 1259 4147 
L 1259 2491 
L 2053 2491 
Q 2509 2491 2742 2702 
Q 2975 2913 2975 3322 
Q 2975 3731 2742 3939 
Q 2509 4147 2053 4147 
L 1259 4147 
z
" transform="scale(0.015625)"/>
       <path id="DejaVuSans-4f" d="M 2522 4238 
Q 1834 4238 1429 3725 
Q 1025 3213 1025 2328 
Q 1025 1447 1429 934 
Q 1834 422 2522 422 
Q 3209 422 3611 934 
Q 4013 1447 4013 2328 
Q 4013 3213 3611 3725 
Q 3209 4238 2522 4238 
z
M 2522 4750 
Q 3503 4750 4090 4092 
Q 4678 3434 4678 2328 
Q 4678 1225 4090 567 
Q 3503 -91 2522 -91 
Q 1538 -91 948 565 
Q 359 1222 359 2328 
Q 359 3434 948 4092 
Q 1538 4750 2522 4750 
z
" transform="scale(0.015625)"/>
       <path id="DejaVuSans-49" d="M 628 4666 
L 1259 4666 
L 1259 0 
L 628 0 
L 628 4666 
z
" transform="scale(0.015625)"/>
       <path id="DejaVuSans-28" d="M 1984 4856 
Q 1566 4138 1362 3434 
Q 1159 2731 1159 2009 
Q 1159 1288 1364 580 
Q 1569 -128 1984 -844 
L 1484 -844 
Q 1016 -109 783 600 
Q 550 1309 550 2009 
Q 550 2706 781 3412 
Q 1013 4119 1484 4856 
L 1984 4856 
z
" transform="scale(0.015625)"/>
       <path id="DejaVuSans-Oblique-3c3" d="M 2219 3044 
Q 1744 3044 1422 2700 
Q 1081 2341 969 1747 
Q 844 1119 1044 756 
Q 1241 397 1706 397 
Q 2166 397 2503 759 
Q 2844 1122 2966 1747 
Q 3075 2319 2881 2700 
Q 2700 3044 2219 3044 
z
M 2309 3503 
L 4219 3500 
L 4106 2925 
L 3463 2925 
Q 3706 2438 3575 1747 
Q 3406 888 2884 400 
Q 2359 -91 1609 -91 
Q 856 -91 525 400 
Q 194 888 363 1747 
Q 528 2609 1050 3097 
Q 1484 3503 2309 3503 
z
" transform="scale(0.015625)"/>
       <path id="DejaVuSans-29" d="M 513 4856 
L 1013 4856 
Q 1481 4119 1714 3412 
Q 1947 2706 1947 2009 
Q 1947 1309 1714 600 
Q 1481 -109 1013 -844 
L 513 -844 
Q 928 -128 1133 580 
Q 1338 1288 1338 2009 
Q 1338 2731 1133 3434 
Q 928 4138 513 4856 
z
" transform="scale(0.015625)"/>
      </defs>
      <use xlink:href="#DejaVuSans-72" transform="translate(0 0.015625)"/>
      <use xlink:href="#DejaVuSans-65" transform="translate(41.113281 0.015625)"/>
      <use xlink:href="#DejaVuSans-6c" transform="translate(102.636719 0.015625)"/>
      <use xlink:href="#DejaVuSans-61" transform="translate(130.419922 0.015625)"/>
      <use xlink:href="#DejaVuSans-74" transform="translate(191.699219 0.015625)"/>
      <use xlink:href="#DejaVuSans-69" transform="translate(230.908203 0.015625)"/>
      <use xlink:href="#DejaVuSans-76" transform="translate(258.691406 0.015625)"/>
      <use xlink:href="#DejaVuSans-65" transform="translate(317.871094 0.015625)"/>
      <use xlink:href="#DejaVuSans-20" transform="translate(379.394531 0.015625)"/>
      <use xlink:href="#DejaVuSans-64" transform="translate(411.181641 0.015625)"/>
      <use xlink:href="#DejaVuSans-69" transform="translate(474.658203 0.015625)"/>
      <use xlink:href="#DejaVuSans-73" transform="translate(502.441406 0.015625)"/>
      <use xlink:href="#DejaVuSans-74" transform="translate(554.541016 0.015625)"/>
      <use xlink:href="#DejaVuSans-61" transform="translate(593.75 0.015625)"/>
      <use xlink:href="#DejaVuSans-6e" transform="translate(655.029297 0.015625)"/>
      <use xlink:href="#DejaVuSans-63" transform="translate(718.408203 0.015625)"/>
      <use xlink:href="#DejaVuSans-65" transform="translate(773.388672 0.015625)"/>
      <use xlink:href="#DejaVuSans-20" transform="translate(834.912109 0.015625)"/>
      <use xlink:href="#DejaVuSans-66" transform="translate(866.699219 0.015625)"/>
      <use xlink:href="#DejaVuSans-72" transform="translate(901.904297 0.015625)"/>
      <use xlink:href="#DejaVuSans-6f" transform="translate(943.017578 0.015625)"/>
      <use xlink:href="#DejaVuSans-6d" transform="translate(1004.199219 0.015625)"/>
      <use xlink:href="#DejaVuSans-20" transform="translate(1101.611328 0.015625)"/>
      <use xlink:href="#DejaVuSans-52" transform="translate(1133.398438 0.015625)"/>
      <use xlink:href="#DejaVuSans-4f" transform="translate(1202.880859 0.015625)"/>
      <use xlink:href="#DejaVuSans-49" transform="translate(1281.591797 0.015625)"/>
      <use xlink:href="#DejaVuSans-20" transform="translate(1311.083984 0.015625)"/>
      <use xlink:href="#DejaVuSans-63" transform="translate(1342.871094 0.015625)"/>
      <use xlink:href="#DejaVuSans-65" transform="translate(1397.851562 0.015625)"/>
      <use xlink:href="#DejaVuSans-6e" transform="translate(1459.375 0.015625)"/>
      <use xlink:href="#DejaVuSans-74" transform="translate(1522.753906 0.015625)"/>
      <use xlink:href="#DejaVuSans-65" transform="translate(1561.962891 0.015625)"/>
      <use xlink:href="#DejaVuSans-72" transform="translate(1623.486328 0.015625)"/>
      <use xlink:href="#DejaVuSans-20" transform="translate(1664.599609 0.015625)"/>
      <use xlink:href="#DejaVuSans-28" transform="translate(1696.386719 0.015625)"/>
      <use xlink:href="#DejaVuSans-Oblique-3c3" transform="translate(1735.400391 0.015625)"/>
      <use xlink:href="#DejaVuSans-29" transform="translate(1798.779297 0.015625)"/>
     </g>
    </g>
   </g>
   <g id="matplotlib.axis_2">
    <g id="ytick_1">
     <g id="line2d_7">
      <defs>
       <path id="ma7665d536c" d="M 0 0 
L -3.5 0 
" style="stroke: #000000; stroke-width: 0.8"/>
      </defs>
      <g>
       <use xlink:href="#ma7665d536c" x="50" y="376.457143" style="stroke: #000000; stroke-width: 0.8"/>
      </g>
     </g>
     <g id="text_8">
      <!-- −5 -->
      <g transform="translate(28.257812 380.256362) scale(0.1 -0.1)">
       <defs>
        <path id="DejaVuSans-2212" d="M 678 2272 
L 4684 2272 
L 4684 1741 
L 678 1741 
L 678 2272 
z
" transform="scale(0.015625)"/>
       </defs>
       <use xlink:href="#DejaVuSans-2212"/>
       <use xlink:href="#DejaVuSans-35" x="83.789062"/>
      </g>
     </g>
    </g>
    <g id="ytick_2">
     <g id="line2d_8">
      <g>
       <use xlink:href="#ma7665d536c" x="50" y="345.6" style="stroke: #000000; stroke-width: 0.8"/>
      </g>
     </g>
     <g id="text_9">
      <!-- 0 -->
      <g transform="translate(36.6375 349.399219) scale(0.1 -0.1)">
       <use xlink:href="#DejaVuSans-30"/>
      </g>
     </g>
    </g>
    <g id="ytick_3">
     <g id="line2d_9">
      <g>
       <use xlink:href="#ma7665d536c" x="50" y="314.742857" style="stroke: #000000; stroke-width: 0.8"/>
      </g>
     </g>
     <g id="text_10">
      <!-- 5 -->
      <g transform="translate(36.6375 318.542076) scale(0.1 -0.1)">
       <use xlink:href="#DejaVuSans-35"/>
      </g>
     </g>
    </g>
    <g id="text_11">
     <!-- BOLD % change -->
     <g transform="translate(22.594062 377.79625) rotate(-90) scale(0.08 -0.08)">
      <defs>
       <path id="DejaVuSans-42" d="M 1259 2228 
L 1259 519 
L 2272 519 
Q 2781 519 3026 730 
Q 3272 941 3272 1375 
Q 3272 1813 3026 2020 
Q 2781 2228 2272 2228 
L 1259 2228 
z
M 1259 4147 
L 1259 2741 
L 2194 2741 
Q 2656 2741 2882 2914 
Q 3109 3088 3109 3444 
Q 3109 3797 2882 3972 
Q 2656 4147 2194 4147 
L 1259 4147 
z
M 628 4666 
L 2241 4666 
Q 2963 4666 3353 4366 
Q 3744 4066 3744 3513 
Q 3744 3084 3544 2831 
Q 3344 2578 2956 2516 
Q 3422 2416 3680 2098 
Q 3938 1781 3938 1306 
Q 3938 681 3513 340 
Q 3088 0 2303 0 
L 628 0 
L 628 4666 
z
" transform="scale(0.015625)"/>
       <path id="DejaVuSans-4c" d="M 628 4666 
L 1259 4666 
L 1259 531 
L 3531 531 
L 3531 0 
L 628 0 
L 628 4666 
z
" transform="scale(0.015625)"/>
       <path id="DejaVuSans-44" d="M 1259 4147 
L 1259 519 
L 2022 519 
Q 2988 519 3436 956 
Q 3884 1394 3884 2338 
Q 3884 3275 3436 3711 
Q 2988 4147 2022 4147 
L 1259 4147 
z
M 628 4666 
L 1925 4666 
Q 3281 4666 3915 4102 
Q 4550 3538 4550 2338 
Q 4550 1131 3912 565 
Q 3275 0 1925 0 
L 628 0 
L 628 4666 
z
" transform="scale(0.015625)"/>
       <path id="DejaVuSans-25" d="M 4653 2053 
Q 4381 2053 4226 1822 
Q 4072 1591 4072 1178 
Q 4072 772 4226 539 
Q 4381 306 4653 306 
Q 4919 306 5073 539 
Q 5228 772 5228 1178 
Q 5228 1588 5073 1820 
Q 4919 2053 4653 2053 
z
M 4653 2450 
Q 5147 2450 5437 2106 
Q 5728 1763 5728 1178 
Q 5728 594 5436 251 
Q 5144 -91 4653 -91 
Q 4153 -91 3862 251 
Q 3572 594 3572 1178 
Q 3572 1766 3864 2108 
Q 4156 2450 4653 2450 
z
M 1428 4353 
Q 1159 4353 1004 4120 
Q 850 3888 850 3481 
Q 850 3069 1003 2837 
Q 1156 2606 1428 2606 
Q 1700 2606 1854 2837 
Q 2009 3069 2009 3481 
Q 2009 3884 1853 4118 
Q 1697 4353 1428 4353 
z
M 4250 4750 
L 4750 4750 
L 1831 -91 
L 1331 -91 
L 4250 4750 
z
M 1428 4750 
Q 1922 4750 2215 4408 
Q 2509 4066 2509 3481 
Q 2509 2891 2217 2550 
Q 1925 2209 1428 2209 
Q 931 2209 642 2551 
Q 353 2894 353 3481 
Q 353 4063 643 4406 
Q 934 4750 1428 4750 
z
" transform="scale(0.015625)"/>
       <path id="DejaVuSans-68" d="M 3513 2113 
L 3513 0 
L 2938 0 
L 2938 2094 
Q 2938 2591 2744 2837 
Q 2550 3084 2163 3084 
Q 1697 3084 1428 2787 
Q 1159 2491 1159 1978 
L 1159 0 
L 581 0 
L 581 4863 
L 1159 4863 
L 1159 2956 
Q 1366 3272 1645 3428 
Q 1925 3584 2291 3584 
Q 2894 3584 3203 3211 
Q 3513 2838 3513 2113 
z
" transform="scale(0.015625)"/>
       <path id="DejaVuSans-67" d="M 2906 1791 
Q 2906 2416 2648 2759 
Q 2391 3103 1925 3103 
Q 1463 3103 1205 2759 
Q 947 2416 947 1791 
Q 947 1169 1205 825 
Q 1463 481 1925 481 
Q 2391 481 2648 825 
Q 2906 1169 2906 1791 
z
M 3481 434 
Q 3481 -459 3084 -895 
Q 2688 -1331 1869 -1331 
Q 1566 -1331 1297 -1286 
Q 1028 -1241 775 -1147 
L 775 -588 
Q 1028 -725 1275 -790 
Q 1522 -856 1778 -856 
Q 2344 -856 2625 -561 
Q 2906 -266 2906 331 
L 2906 616 
Q 2728 306 2450 153 
Q 2172 0 1784 0 
Q 1141 0 747 490 
Q 353 981 353 1791 
Q 353 2603 747 3093 
Q 1141 3584 1784 3584 
Q 2172 3584 2450 3431 
Q 2728 3278 2906 2969 
L 2906 3500 
L 3481 3500 
L 3481 434 
z
" transform="scale(0.015625)"/>
      </defs>
      <use xlink:href="#DejaVuSans-42"/>
      <use xlink:href="#DejaVuSans-4f" x="66.853516"/>
      <use xlink:href="#DejaVuSans-4c" x="145.564453"/>
      <use xlink:href="#DejaVuSans-44" x="201.277344"/>
      <use xlink:href="#DejaVuSans-20" x="278.279297"/>
      <use xlink:href="#DejaVuSans-25" x="310.066406"/>
      <use xlink:href="#DejaVuSans-20" x="405.085938"/>
      <use xlink:href="#DejaVuSans-63" x="436.873047"/>
      <use xlink:href="#DejaVuSans-68" x="491.853516"/>
      <use xlink:href="#DejaVuSans-61" x="555.232422"/>
      <use xlink:href="#DejaVuSans-6e" x="616.511719"/>
      <use xlink:href="#DejaVuSans-67" x="679.890625"/>
      <use xlink:href="#DejaVuSans-65" x="743.367188"/>
     </g>
    </g>
   </g>
   <g id="line2d_10">
    <path d="M 65.454545 351.47027 
L 70.12987 351.149162 
L 74.805195 350.662313 
L 79.480519 350.273292 
L 84.155844 350.210176 
L 88.831169 350.129864 
L 93.506494 350.052141 
L 98.181818 350.13224 
L 102.857143 350.237966 
L 107.532468 350.039669 
L 112.207792 349.616416 
L 116.883117 349.078298 
L 121.558442 348.535636 
L 126.233766 348.095599 
L 130.909091 348.013617 
L 135.584416 347.893229 
L 140.25974 347.875929 
L 144.935065 347.814949 
L 149.61039 347.878733 
L 154.285714 347.949209 
L 158.961039 347.870097 
L 163.636364 347.862617 
L 168.311688 347.955547 
L 172.987013 348.164854 
L 177.662338 348.358419 
L 182.337662 348.571475 
L 187.012987 348.663784 
L 191.688312 348.590489 
L 196.363636 348.55074 
L 201.038961 348.663375 
L 205.714286 349.004931 
L 210.38961 349.198671 
L 215.064935 348.954639 
L 219.74026 348.686893 
L 224.415584 348.583144 
L 229.090909 348.42885 
L 233.766234 348.30088 
L 238.441558 348.15544 
L 243.116883 348.081494 
L 247.792208 348.081228 
L 252.467532 348.042615 
L 257.142857 348.076681 
L 261.818182 348.163713 
L 266.493506 348.346964 
L 271.168831 348.416161 
L 275.844156 348.496724 
L 280.519481 348.506875 
L 285.194805 348.399977 
L 289.87013 348.12673 
L 294.545455 347.765087 
" clip-path="url(#pd1e04dfdc1)" style="fill: none; stroke: #ff0000; stroke-width: 1.5; stroke-linecap: square"/>
   </g>
   <g id="line2d_11">
    <path d="M 65.454545 360.53168 
L 70.12987 360.63007 
L 74.805195 360.467406 
L 79.480519 360.350713 
L 84.155844 360.392794 
L 88.831169 361.110695 
L 93.506494 361.421839 
L 98.181818 361.945994 
L 102.857143 362.375798 
L 107.532468 361.179588 
L 112.207792 360.020525 
L 116.883117 358.793361 
L 121.558442 357.677704 
L 126.233766 357.026329 
L 130.909091 356.747552 
L 135.584416 356.690889 
L 140.25974 356.802507 
L 144.935065 357.06059 
L 149.61039 356.908531 
L 154.285714 356.722993 
L 158.961039 356.124055 
L 163.636364 355.515036 
L 168.311688 354.941708 
L 172.987013 354.476762 
L 177.662338 354.394305 
L 182.337662 354.700668 
L 187.012987 354.784169 
L 191.688312 354.581878 
L 196.363636 354.27451 
L 201.038961 354.8915 
L 205.714286 356.295885 
L 210.38961 357.897766 
L 215.064935 358.106686 
L 219.74026 357.718942 
L 224.415584 357.374597 
L 229.090909 356.814454 
L 233.766234 357.050751 
L 238.441558 357.13641 
L 243.116883 356.603814 
L 247.792208 355.311408 
L 252.467532 354.82118 
L 257.142857 354.503965 
L 261.818182 354.571774 
L 266.493506 354.730669 
L 271.168831 354.78052 
L 275.844156 355.037471 
L 280.519481 354.8476 
L 285.194805 353.653309 
L 289.87013 352.079988 
L 294.545455 351.293 
" clip-path="url(#pd1e04dfdc1)" style="fill: none; stroke: #ff0000; stroke-opacity: 0.2; stroke-width: 1.5; stroke-linecap: square"/>
   </g>
   <g id="line2d_12">
    <path d="M 65.454545 345.460405 
L 70.12987 345.460405 
L 74.805195 345.204489 
L 79.480519 344.187713 
L 84.155844 343.348281 
L 88.831169 342.328432 
L 93.506494 340.215823 
L 98.181818 337.670042 
L 102.857143 336.008999 
L 107.532468 334.3961 
L 112.207792 333.765307 
L 116.883117 333.56335 
L 121.558442 333.781291 
L 126.233766 333.662146 
L 130.909091 334.625397 
L 135.584416 335.017986 
L 140.25974 334.416502 
L 144.935065 334.188251 
L 149.61039 334.626157 
L 154.285714 334.254362 
L 158.961039 334.192168 
L 163.636364 333.941521 
L 168.311688 333.203235 
L 172.987013 332.815363 
L 177.662338 332.877632 
L 182.337662 332.822551 
L 187.012987 332.767904 
L 191.688312 332.823611 
L 196.363636 332.880447 
L 201.038961 332.978918 
L 205.714286 332.893293 
L 210.38961 333.000962 
L 215.064935 333.457705 
L 219.74026 333.722649 
L 224.415584 333.642219 
L 229.090909 333.158811 
L 233.766234 332.536187 
L 238.441558 331.715519 
L 243.116883 331.353849 
L 247.792208 331.118966 
L 252.467532 330.988827 
L 257.142857 330.845944 
L 261.818182 330.479999 
L 266.493506 330.393841 
L 271.168831 330.113355 
L 275.844156 329.860373 
L 280.519481 330.337266 
L 285.194805 330.457463 
L 289.87013 330.482351 
L 294.545455 330.215541 
" clip-path="url(#pd1e04dfdc1)" style="fill: none; stroke: #ff0000; stroke-opacity: 0.2; stroke-width: 1.5; stroke-linecap: square"/>
   </g>
   <g id="line2d_13">
    <path d="M 65.454545 355.687001 
L 70.12987 355.993623 
L 74.805195 355.917561 
L 79.480519 354.608639 
L 84.155844 354.016509 
L 88.831169 352.63621 
L 93.506494 351.369329 
L 98.181818 351.563228 
L 102.857143 351.224407 
L 107.532468 351.821867 
L 112.207792 352.162325 
L 116.883117 352.268068 
L 121.558442 352.122989 
L 126.233766 351.874053 
L 130.909091 351.7262 
L 135.584416 351.980397 
L 140.25974 353.372432 
L 144.935065 354.017845 
L 149.61039 353.945124 
L 154.285714 353.412356 
L 158.961039 352.396774 
L 163.636364 351.938974 
L 168.311688 352.50216 
L 172.987013 353.867827 
L 177.662338 355.163368 
L 182.337662 356.059512 
L 187.012987 356.774511 
L 191.688312 357.148203 
L 196.363636 356.507344 
L 201.038961 355.584099 
L 205.714286 354.587984 
L 210.38961 353.143038 
L 215.064935 351.114534 
L 219.74026 349.348717 
L 224.415584 348.451536 
L 229.090909 347.668393 
L 233.766234 347.644717 
L 238.441558 347.510884 
L 243.116883 347.23501 
L 247.792208 346.743709 
L 252.467532 345.570828 
L 257.142857 343.971693 
L 261.818182 345.418829 
L 266.493506 346.336963 
L 271.168831 347.54155 
L 275.844156 348.226884 
L 280.519481 348.820959 
L 285.194805 350.435525 
L 289.87013 352.148665 
L 294.545455 353.090328 
" clip-path="url(#pd1e04dfdc1)" style="fill: none; stroke: #ff0000; stroke-opacity: 0.2; stroke-width: 1.5; stroke-linecap: square"/>
   </g>
   <g id="line2d_14">
    <path d="M 65.454545 362.759927 
L 70.12987 362.759927 
L 74.805195 363.104903 
L 79.480519 363.594079 
L 84.155844 363.579657 
L 88.831169 362.676733 
L 93.506494 361.672397 
L 98.181818 360.998736 
L 102.857143 360.890141 
L 107.532468 359.669583 
L 112.207792 358.898453 
L 116.883117 358.548696 
L 121.558442 358.534028 
L 126.233766 358.590822 
L 130.909091 358.895029 
L 135.584416 359.575103 
L 140.25974 360.435181 
L 144.935065 360.822619 
L 149.61039 360.550261 
L 154.285714 360.618136 
L 158.961039 361.190687 
L 163.636364 361.84349 
L 168.311688 362.393107 
L 172.987013 363.07869 
L 177.662338 363.521818 
L 182.337662 363.903905 
L 187.012987 363.700161 
L 191.688312 363.213298 
L 196.363636 363.05143 
L 201.038961 362.752148 
L 205.714286 362.698838 
L 210.38961 363.152824 
L 215.064935 363.525218 
L 219.74026 364.015846 
L 224.415584 364.540192 
L 229.090909 364.826143 
L 233.766234 364.971417 
L 238.441558 365.1663 
L 243.116883 365.874258 
L 247.792208 366.519303 
L 252.467532 366.86627 
L 257.142857 367.411692 
L 261.818182 367.890006 
L 266.493506 368.501515 
L 271.168831 367.798502 
L 275.844156 366.748523 
L 280.519481 365.474534 
L 285.194805 364.849049 
L 289.87013 364.58322 
L 294.545455 363.811226 
" clip-path="url(#pd1e04dfdc1)" style="fill: none; stroke: #ff0000; stroke-opacity: 0.2; stroke-width: 1.5; stroke-linecap: square"/>
   </g>
   <g id="line2d_15">
    <path d="M 65.454545 349.182664 
L 70.12987 349.079442 
L 74.805195 347.270191 
L 79.480519 345.829099 
L 84.155844 346.136279 
L 88.831169 344.444426 
L 93.506494 342.851428 
L 98.181818 342.738532 
L 102.857143 342.446425 
L 107.532468 343.213833 
L 112.207792 343.646928 
L 116.883117 344.097876 
L 121.558442 342.545677 
L 126.233766 340.28716 
L 130.909091 339.117677 
L 135.584416 338.057394 
L 140.25974 336.76541 
L 144.935065 337.485717 
L 149.61039 338.3776 
L 154.285714 339.115473 
L 158.961039 338.860565 
L 163.636364 338.091508 
L 168.311688 336.847214 
L 172.987013 336.190944 
L 177.662338 336.257619 
L 182.337662 336.669218 
L 187.012987 337.756466 
L 191.688312 337.916588 
L 196.363636 337.392073 
L 201.038961 336.988292 
L 205.714286 337.645664 
L 210.38961 338.672989 
L 215.064935 339.502037 
L 219.74026 338.989212 
L 224.415584 338.18977 
L 229.090909 336.879107 
L 233.766234 336.436916 
L 238.441558 335.748296 
L 243.116883 335.460145 
L 247.792208 335.581826 
L 252.467532 336.423436 
L 257.142857 336.700757 
L 261.818182 336.90061 
L 266.493506 337.536182 
L 271.168831 338.181627 
L 275.844156 339.486519 
L 280.519481 340.101249 
L 285.194805 339.068357 
L 289.87013 337.496318 
L 294.545455 336.269805 
" clip-path="url(#pd1e04dfdc1)" style="fill: none; stroke: #ff0000; stroke-opacity: 0.2; stroke-width: 1.5; stroke-linecap: square"/>
   </g>
   <g id="line2d_16">
    <path d="M 65.454545 360.524949 
L 70.12987 358.401991 
L 74.805195 354.924119 
L 79.480519 353.360248 
L 84.155844 354.51573 
L 88.831169 356.118275 
L 93.506494 360.560003 
L 98.181818 364.578146 
L 102.857143 367.345139 
L 107.532468 367.506558 
L 112.207792 363.742063 
L 116.883117 359.720576 
L 121.558442 356.473316 
L 126.233766 355.488139 
L 130.909091 357.403255 
L 135.584416 358.388878 
L 140.25974 360.119633 
L 144.935065 359.81887 
L 149.61039 360.284208 
L 154.285714 361.109225 
L 158.961039 360.451186 
L 163.636364 360.645239 
L 168.311688 361.951725 
L 172.987013 362.490361 
L 177.662338 362.006782 
L 182.337662 361.227164 
L 187.012987 360.03409 
L 191.688312 358.571461 
L 196.363636 358.506774 
L 201.038961 359.263902 
L 205.714286 360.988884 
L 210.38961 361.300514 
L 215.064935 359.968462 
L 219.74026 360.152894 
L 224.415584 361.385439 
L 229.090909 362.017984 
L 233.766234 361.177601 
L 238.441558 359.948247 
L 243.116883 359.496177 
L 247.792208 358.585192 
L 252.467532 357.775283 
L 257.142857 358.084471 
L 261.818182 357.183852 
L 266.493506 357.059751 
L 271.168831 357.119102 
L 275.844156 357.92451 
L 280.519481 357.552054 
L 285.194805 356.416303 
L 289.87013 355.697887 
L 294.545455 354.658016 
" clip-path="url(#pd1e04dfdc1)" style="fill: none; stroke: #ff0000; stroke-opacity: 0.2; stroke-width: 1.5; stroke-linecap: square"/>
   </g>
   <g id="line2d_17">
    <path d="M 65.454545 352.777006 
L 70.12987 352.499072 
L 74.805195 352.395328 
L 79.480519 352.588337 
L 84.155844 352.811841 
L 88.831169 353.227961 
L 93.506494 353.366145 
L 98.181818 353.221952 
L 102.857143 352.807728 
L 107.532468 352.476891 
L 112.207792 351.995821 
L 116.883117 351.691445 
L 121.558442 351.282419 
L 126.233766 351.341462 
L 130.909091 351.608062 
L 135.584416 352.286257 
L 140.25974 352.873478 
L 144.935065 353.375938 
L 149.61039 354.804465 
L 154.285714 356.184022 
L 158.961039 357.021784 
L 163.636364 357.00558 
L 168.311688 357.001408 
L 172.987013 356.45307 
L 177.662338 356.238254 
L 182.337662 356.638222 
L 187.012987 356.998895 
L 191.688312 357.581541 
L 196.363636 358.343399 
L 201.038961 358.759908 
L 205.714286 358.956467 
L 210.38961 359.198865 
L 215.064935 358.974913 
L 219.74026 358.383415 
L 224.415584 357.596838 
L 229.090909 357.154364 
L 233.766234 356.907711 
L 238.441558 357.049674 
L 243.116883 357.516895 
L 247.792208 358.339357 
L 252.467532 358.853362 
L 257.142857 358.826214 
L 261.818182 358.883493 
L 266.493506 358.963023 
L 271.168831 358.85983 
L 275.844156 358.135086 
L 280.519481 358.13032 
L 285.194805 358.642268 
L 289.87013 358.757399 
L 294.545455 358.763708 
" clip-path="url(#pd1e04dfdc1)" style="fill: none; stroke: #ff0000; stroke-opacity: 0.2; stroke-width: 1.5; stroke-linecap: square"/>
   </g>
   <g id="line2d_18">
    <path d="M 65.454545 346.059589 
L 70.12987 346.200874 
L 74.805195 346.952648 
L 79.480519 347.428471 
L 84.155844 346.293186 
L 88.831169 345.23089 
L 93.506494 344.745211 
L 98.181818 344.52704 
L 102.857143 344.634009 
L 107.532468 345.267928 
L 112.207792 345.837835 
L 116.883117 346.29374 
L 121.558442 347.075192 
L 126.233766 347.529026 
L 130.909091 347.331304 
L 135.584416 346.399922 
L 140.25974 346.080649 
L 144.935065 345.998946 
L 149.61039 346.278348 
L 154.285714 346.339565 
L 158.961039 346.086858 
L 163.636364 345.625264 
L 168.311688 345.37491 
L 172.987013 345.332692 
L 177.662338 345.838389 
L 182.337662 346.070693 
L 187.012987 346.119775 
L 191.688312 346.186169 
L 196.363636 346.233804 
L 201.038961 346.665738 
L 205.714286 346.989357 
L 210.38961 347.226554 
L 215.064935 347.154054 
L 219.74026 347.191567 
L 224.415584 346.992692 
L 229.090909 346.977804 
L 233.766234 346.666989 
L 238.441558 346.609443 
L 243.116883 346.32798 
L 247.792208 346.333107 
L 252.467532 346.438982 
L 257.142857 346.837474 
L 261.818182 346.41525 
L 266.493506 345.727536 
L 271.168831 344.864221 
L 275.844156 344.319435 
L 280.519481 343.772372 
L 285.194805 343.18402 
L 289.87013 342.485464 
L 294.545455 342.493343 
" clip-path="url(#pd1e04dfdc1)" style="fill: none; stroke: #ff0000; stroke-opacity: 0.2; stroke-width: 1.5; stroke-linecap: square"/>
   </g>
   <g id="line2d_19">
    <path d="M 65.454545 353.317008 
L 70.12987 353.323797 
L 74.805195 353.106299 
L 79.480519 353.242498 
L 84.155844 352.99786 
L 88.831169 352.797369 
L 93.506494 352.264341 
L 98.181818 352.755841 
L 102.857143 352.88778 
L 107.532468 352.684085 
L 112.207792 352.703725 
L 116.883117 352.956613 
L 121.558442 353.287375 
L 126.233766 353.419705 
L 130.909091 352.985783 
L 135.584416 352.915042 
L 140.25974 352.707125 
L 144.935065 352.386536 
L 149.61039 352.010244 
L 154.285714 351.823813 
L 158.961039 351.804337 
L 163.636364 351.939538 
L 168.311688 352.043199 
L 172.987013 352.724129 
L 177.662338 353.199481 
L 182.337662 353.55243 
L 187.012987 353.938762 
L 191.688312 354.293941 
L 196.363636 354.82846 
L 201.038961 355.007044 
L 205.714286 355.141197 
L 210.38961 355.226535 
L 215.064935 354.848385 
L 219.74026 354.531506 
L 224.415584 354.349611 
L 229.090909 354.252106 
L 233.766234 354.423507 
L 238.441558 354.147795 
L 243.116883 353.995229 
L 247.792208 354.057285 
L 252.467532 353.991676 
L 257.142857 353.745495 
L 261.818182 353.805211 
L 266.493506 353.851331 
L 271.168831 353.556863 
L 275.844156 353.033994 
L 280.519481 353.12974 
L 285.194805 353.746015 
L 289.87013 354.329364 
L 294.545455 354.609857 
" clip-path="url(#pd1e04dfdc1)" style="fill: none; stroke: #ff0000; stroke-opacity: 0.2; stroke-width: 1.5; stroke-linecap: square"/>
   </g>
   <g id="line2d_20">
    <path d="M 65.454545 336.838338 
L 70.12987 335.198728 
L 74.805195 334.253365 
L 79.480519 332.899949 
L 84.155844 332.405105 
L 88.831169 334.77798 
L 93.506494 336.715135 
L 98.181818 337.38453 
L 102.857143 339.351221 
L 107.532468 339.873324 
L 112.207792 340.77596 
L 116.883117 339.301712 
L 121.558442 337.880314 
L 126.233766 336.931001 
L 130.909091 335.432807 
L 135.584416 333.711668 
L 140.25974 332.312088 
L 144.935065 330.851704 
L 149.61039 329.682734 
L 154.285714 329.06322 
L 158.961039 329.982133 
L 163.636364 331.80884 
L 168.311688 332.912817 
L 172.987013 334.073804 
L 177.662338 334.024534 
L 182.337662 334.12617 
L 187.012987 333.966265 
L 191.688312 333.646529 
L 196.363636 333.413565 
L 201.038961 333.649898 
L 205.714286 333.909519 
L 210.38961 333.146443 
L 215.064935 332.310794 
L 219.74026 331.536984 
L 224.415584 331.766542 
L 229.090909 332.615659 
L 233.766234 332.960822 
L 238.441558 333.969505 
L 243.116883 334.575031 
L 247.792208 335.778485 
L 252.467532 336.659172 
L 257.142857 337.71072 
L 261.818182 338.174531 
L 266.493506 338.578316 
L 271.168831 340.023577 
L 275.844156 341.295356 
L 280.519481 342.393907 
L 285.194805 342.660557 
L 289.87013 341.790403 
L 294.545455 340.207772 
" clip-path="url(#pd1e04dfdc1)" style="fill: none; stroke: #ff0000; stroke-opacity: 0.2; stroke-width: 1.5; stroke-linecap: square"/>
   </g>
   <g id="line2d_21">
    <path d="M 65.454545 343.034401 
L 70.12987 343.09286 
L 74.805195 343.689133 
L 79.480519 344.916463 
L 84.155844 345.814696 
L 88.831169 346.07953 
L 93.506494 345.391896 
L 98.181818 344.070592 
L 102.857143 342.645977 
L 107.532468 342.346599 
L 112.207792 342.231639 
L 116.883117 342.625846 
L 121.558442 343.231698 
L 126.233766 342.901751 
L 130.909091 342.276723 
L 135.584416 341.801987 
L 140.25974 340.75021 
L 144.935065 339.957422 
L 149.61039 339.198393 
L 154.285714 338.798128 
L 158.961039 338.460525 
L 163.636364 338.133797 
L 168.311688 338.339537 
L 172.987013 338.309753 
L 177.662338 338.420429 
L 182.337662 338.515692 
L 187.012987 338.460629 
L 191.688312 338.53216 
L 196.363636 338.626336 
L 201.038961 338.755678 
L 205.714286 338.947149 
L 210.38961 339.218887 
L 215.064935 339.538238 
L 219.74026 339.964089 
L 224.415584 340.12515 
L 229.090909 340.352521 
L 233.766234 340.533064 
L 238.441558 340.707767 
L 243.116883 340.458047 
L 247.792208 340.524874 
L 252.467532 340.079743 
L 257.142857 340.205064 
L 261.818182 340.077284 
L 266.493506 340.137477 
L 271.168831 339.738627 
L 275.844156 339.395818 
L 280.519481 339.015621 
L 285.194805 339.286884 
L 289.87013 339.542969 
L 294.545455 340.003363 
" clip-path="url(#pd1e04dfdc1)" style="fill: none; stroke: #ff0000; stroke-opacity: 0.2; stroke-width: 1.5; stroke-linecap: square"/>
   </g>
   <g id="line2d_22">
    <path d="M 111.272727 382.628571 
L 111.272727 308.571429 
" clip-path="url(#pd1e04dfdc1)" style="fill: none; stroke-dasharray: 5.55,2.4; stroke-dashoffset: 0; stroke: #000000; stroke-width: 1.5"/>
   </g>
   <g id="line2d_23">
    <path d="M 65.454545 345.6 
L 294.545455 345.6 
" clip-path="url(#pd1e04dfdc1)" style="fill: none; stroke-dasharray: 5.55,2.4; stroke-dashoffset: 0; stroke: #000000; stroke-width: 1.5"/>
   </g>
   <g id="patch_3">
    <path d="M 50 388.8 
L 50 302.4 
" style="fill: none; stroke: #000000; stroke-width: 0.8; stroke-linejoin: miter; stroke-linecap: square"/>
   </g>
   <g id="patch_4">
    <path d="M 54 392.8 
L 306 392.8 
" style="fill: none; stroke: #000000; stroke-width: 0.8; stroke-linejoin: miter; stroke-linecap: square"/>
   </g>
   <g id="text_12">
    <!-- all depths -->
    <g transform="translate(150.492188 296.4) scale(0.12 -0.12)">
     <defs>
      <path id="DejaVuSans-70" d="M 1159 525 
L 1159 -1331 
L 581 -1331 
L 581 3500 
L 1159 3500 
L 1159 2969 
Q 1341 3281 1617 3432 
Q 1894 3584 2278 3584 
Q 2916 3584 3314 3078 
Q 3713 2572 3713 1747 
Q 3713 922 3314 415 
Q 2916 -91 2278 -91 
Q 1894 -91 1617 61 
Q 1341 213 1159 525 
z
M 3116 1747 
Q 3116 2381 2855 2742 
Q 2594 3103 2138 3103 
Q 1681 3103 1420 2742 
Q 1159 2381 1159 1747 
Q 1159 1113 1420 752 
Q 1681 391 2138 391 
Q 2594 391 2855 752 
Q 3116 1113 3116 1747 
z
" transform="scale(0.015625)"/>
     </defs>
     <use xlink:href="#DejaVuSans-61"/>
     <use xlink:href="#DejaVuSans-6c" x="61.279297"/>
     <use xlink:href="#DejaVuSans-6c" x="89.0625"/>
     <use xlink:href="#DejaVuSans-20" x="116.845703"/>
     <use xlink:href="#DejaVuSans-64" x="148.632812"/>
     <use xlink:href="#DejaVuSans-65" x="212.109375"/>
     <use xlink:href="#DejaVuSans-70" x="273.632812"/>
     <use xlink:href="#DejaVuSans-74" x="337.109375"/>
     <use xlink:href="#DejaVuSans-68" x="376.318359"/>
     <use xlink:href="#DejaVuSans-73" x="439.697266"/>
    </g>
   </g>
   <g id="legend_1">
    <g id="patch_5">
     <path d="M 131.628125 325.35625 
L 299 325.35625 
Q 301 325.35625 301 323.35625 
L 301 309.4 
Q 301 307.4 299 307.4 
L 131.628125 307.4 
Q 129.628125 307.4 129.628125 309.4 
L 129.628125 323.35625 
Q 129.628125 325.35625 131.628125 325.35625 
z
" style="fill: #ffffff; opacity: 0.8; stroke: #cccccc; stroke-linejoin: miter"/>
    </g>
    <g id="line2d_24">
     <path d="M 133.628125 315.498437 
L 143.628125 315.498437 
L 153.628125 315.498437 
" style="fill: none; stroke: #ff0000; stroke-width: 1.5; stroke-linecap: square"/>
    </g>
    <g id="text_13">
     <!-- V23_middle_deveined_iso0 -->
     <g transform="translate(161.628125 318.998437) scale(0.1 -0.1)">
      <defs>
       <path id="DejaVuSans-56" d="M 1831 0 
L 50 4666 
L 709 4666 
L 2188 738 
L 3669 4666 
L 4325 4666 
L 2547 0 
L 1831 0 
z
" transform="scale(0.015625)"/>
       <path id="DejaVuSans-5f" d="M 3263 -1063 
L 3263 -1509 
L -63 -1509 
L -63 -1063 
L 3263 -1063 
z
" transform="scale(0.015625)"/>
      </defs>
      <use xlink:href="#DejaVuSans-56"/>
      <use xlink:href="#DejaVuSans-32" x="68.408203"/>
      <use xlink:href="#DejaVuSans-33" x="132.03125"/>
      <use xlink:href="#DejaVuSans-5f" x="195.654297"/>
      <use xlink:href="#DejaVuSans-6d" x="245.654297"/>
      <use xlink:href="#DejaVuSans-69" x="343.066406"/>
      <use xlink:href="#DejaVuSans-64" x="370.849609"/>
      <use xlink:href="#DejaVuSans-64" x="434.326172"/>
      <use xlink:href="#DejaVuSans-6c" x="497.802734"/>
      <use xlink:href="#DejaVuSans-65" x="525.585938"/>
      <use xlink:href="#DejaVuSans-5f" x="587.109375"/>
      <use xlink:href="#DejaVuSans-64" x="637.109375"/>
      <use xlink:href="#DejaVuSans-65" x="700.585938"/>
      <use xlink:href="#DejaVuSans-76" x="762.109375"/>
      <use xlink:href="#DejaVuSans-65" x="821.289062"/>
      <use xlink:href="#DejaVuSans-69" x="882.8125"/>
      <use xlink:href="#DejaVuSans-6e" x="910.595703"/>
      <use xlink:href="#DejaVuSans-65" x="973.974609"/>
      <use xlink:href="#DejaVuSans-64" x="1035.498047"/>
      <use xlink:href="#DejaVuSans-5f" x="1098.974609"/>
      <use xlink:href="#DejaVuSans-69" x="1148.974609"/>
      <use xlink:href="#DejaVuSans-73" x="1176.757812"/>
      <use xlink:href="#DejaVuSans-6f" x="1228.857422"/>
      <use xlink:href="#DejaVuSans-30" x="1290.039062"/>
     </g>
    </g>
   </g>
  </g>
 </g>
 <defs>
  <clipPath id="pd1e04dfdc1">
   <rect x="54" y="302.4" width="252" height="86.4"/>
  </clipPath>
 </defs>
</svg>
