<?xml version="1.0" encoding="utf-8" standalone="no"?>
<!DOCTYPE svg PUBLIC "-//W3C//DTD SVG 1.1//EN"
  "http://www.w3.org/Graphics/SVG/1.1/DTD/svg11.dtd">
<svg xmlns:xlink="http://www.w3.org/1999/xlink" width="360pt" height="432pt" viewBox="0 0 360 432" xmlns="http://www.w3.org/2000/svg" version="1.1">
 <metadata>
  <rdf:RDF xmlns:dc="http://purl.org/dc/elements/1.1/" xmlns:cc="http://creativecommons.org/ns#" xmlns:rdf="http://www.w3.org/1999/02/22-rdf-syntax-ns#">
   <cc:Work>
    <dc:type rdf:resource="http://purl.org/dc/dcmitype/StillImage"/>
    <dc:date>2025-10-31T15:45:47.405399</dc:date>
    <dc:format>image/svg+xml</dc:format>
    <dc:creator>
     <cc:Agent>
      <dc:title>Matplotlib v3.8.0, https://matplotlib.org/</dc:title>
     </cc:Agent>
    </dc:creator>
   </cc:Work>
  </rdf:RDF>
 </metadata>
 <defs>
  <style type="text/css">*{stroke-linejoin: round; stroke-linecap: butt}</style>
 </defs>
 <g id="figure_1">
  <g id="patch_1">
   <path d="M 0 432 
L 360 432 
L 360 0 
L 0 0 
z
" style="fill: #ffffff"/>
  </g>
  <g id="axes_1">
   <g id="patch_2">
    <path d="M 54 388.8 
L 306 388.8 
L 306 302.4 
L 54 302.4 
z
" style="fill: #ffffff"/>
   </g>
   <g id="PolyCollection_1">
    <defs>
     <path id="mb1b2860e08" d="M 65.454545 -90.703636 
L 65.454545 -87.731286 
L 70.12987 -87.841178 
L 74.805195 -87.789707 
L 79.480519 -87.650895 
L 84.155844 -87.43832 
L 88.831169 -87.278826 
L 93.506494 -86.989158 
L 98.181818 -87.014481 
L 102.857143 -87.274315 
L 107.532468 -87.419512 
L 112.207792 -87.257124 
L 116.883117 -87.189147 
L 121.558442 -87.01713 
L 126.233766 -86.906934 
L 130.909091 -86.916529 
L 135.584416 -87.039583 
L 140.25974 -87.282103 
L 144.935065 -87.448606 
L 149.61039 -87.656691 
L 154.285714 -87.80112 
L 158.961039 -87.888708 
L 163.636364 -87.937298 
L 168.311688 -87.932586 
L 172.987013 -87.840089 
L 177.662338 -87.653664 
L 182.337662 -87.486358 
L 187.012987 -87.417171 
L 191.688312 -87.187224 
L 196.363636 -86.859016 
L 201.038961 -86.610367 
L 205.714286 -86.508272 
L 210.38961 -86.470626 
L 215.064935 -86.368745 
L 219.74026 -86.22577 
L 224.415584 -86.068892 
L 229.090909 -85.893347 
L 233.766234 -85.792428 
L 238.441558 -85.755499 
L 243.116883 -85.741608 
L 247.792208 -85.670637 
L 252.467532 -85.459699 
L 257.142857 -85.256542 
L 261.818182 -85.054066 
L 266.493506 -84.946921 
L 271.168831 -84.889676 
L 275.844156 -84.775762 
L 280.519481 -84.558174 
L 285.194805 -84.416901 
L 289.87013 -84.131673 
L 294.545455 -83.790795 
L 294.545455 -85.952652 
L 294.545455 -85.952652 
L 289.87013 -86.096982 
L 285.194805 -86.227748 
L 280.519481 -86.302413 
L 275.844156 -86.493336 
L 271.168831 -86.627469 
L 266.493506 -86.723474 
L 261.818182 -86.99529 
L 257.142857 -87.28874 
L 252.467532 -87.623772 
L 247.792208 -87.924016 
L 243.116883 -88.017979 
L 238.441558 -88.017624 
L 233.766234 -88.045292 
L 229.090909 -88.201439 
L 224.415584 -88.345541 
L 219.74026 -88.45792 
L 215.064935 -88.516471 
L 210.38961 -88.442651 
L 205.714286 -88.269853 
L 201.038961 -88.29592 
L 196.363636 -88.527709 
L 191.688312 -88.944935 
L 187.012987 -89.257643 
L 182.337662 -89.324736 
L 177.662338 -89.503411 
L 172.987013 -89.682697 
L 168.311688 -89.848279 
L 163.636364 -89.930845 
L 158.961039 -89.970874 
L 154.285714 -89.890695 
L 149.61039 -89.802007 
L 144.935065 -89.630325 
L 140.25974 -89.498161 
L 135.584416 -89.379933 
L 130.909091 -89.226554 
L 126.233766 -89.172367 
L 121.558442 -89.310835 
L 116.883117 -89.515218 
L 112.207792 -89.578603 
L 107.532468 -89.70474 
L 102.857143 -89.562168 
L 98.181818 -89.285877 
L 93.506494 -89.275402 
L 88.831169 -89.811338 
L 84.155844 -90.261062 
L 79.480519 -90.650893 
L 74.805195 -90.794329 
L 70.12987 -90.858013 
L 65.454545 -90.703636 
z
" style="stroke: #9400d3; stroke-opacity: 0.4"/>
    </defs>
    <g clip-path="url(#p00556f231f)">
     <use xlink:href="#mb1b2860e08" x="0" y="432" style="fill: #9400d3; fill-opacity: 0.4; stroke: #9400d3; stroke-opacity: 0.4"/>
    </g>
   </g>
   <g id="matplotlib.axis_1">
    <g id="xtick_1">
     <g id="line2d_1">
      <defs>
       <path id="m4c96e0557b" d="M 0 0 
L 0 3.5 
" style="stroke: #000000; stroke-width: 0.8"/>
      </defs>
      <g>
       <use xlink:href="#m4c96e0557b" x="65.454545" y="392.8" style="stroke: #000000; stroke-width: 0.8"/>
      </g>
     </g>
     <g id="text_1">
      <!-- 0 -->
      <g transform="translate(62.273295 407.398438) scale(0.1 -0.1)">
       <defs>
        <path id="DejaVuSans-30" d="M 2034 4250 
Q 1547 4250 1301 3770 
Q 1056 3291 1056 2328 
Q 1056 1369 1301 889 
Q 1547 409 2034 409 
Q 2525 409 2770 889 
Q 3016 1369 3016 2328 
Q 3016 3291 2770 3770 
Q 2525 4250 2034 4250 
z
M 2034 4750 
Q 2819 4750 3233 4129 
Q 3647 3509 3647 2328 
Q 3647 1150 3233 529 
Q 2819 -91 2034 -91 
Q 1250 -91 836 529 
Q 422 1150 422 2328 
Q 422 3509 836 4129 
Q 1250 4750 2034 4750 
z
" transform="scale(0.015625)"/>
       </defs>
       <use xlink:href="#DejaVuSans-30"/>
      </g>
     </g>
    </g>
    <g id="xtick_2">
     <g id="line2d_2">
      <g>
       <use xlink:href="#m4c96e0557b" x="111.272727" y="392.8" style="stroke: #000000; stroke-width: 0.8"/>
      </g>
     </g>
     <g id="text_2">
      <!-- 1 -->
      <g transform="translate(108.091477 407.398438) scale(0.1 -0.1)">
       <defs>
        <path id="DejaVuSans-31" d="M 794 531 
L 1825 531 
L 1825 4091 
L 703 3866 
L 703 4441 
L 1819 4666 
L 2450 4666 
L 2450 531 
L 3481 531 
L 3481 0 
L 794 0 
L 794 531 
z
" transform="scale(0.015625)"/>
       </defs>
       <use xlink:href="#DejaVuSans-31"/>
      </g>
     </g>
    </g>
    <g id="xtick_3">
     <g id="line2d_3">
      <g>
       <use xlink:href="#m4c96e0557b" x="157.090909" y="392.8" style="stroke: #000000; stroke-width: 0.8"/>
      </g>
     </g>
     <g id="text_3">
      <!-- 2 -->
      <g transform="translate(153.909659 407.398438) scale(0.1 -0.1)">
       <defs>
        <path id="DejaVuSans-32" d="M 1228 531 
L 3431 531 
L 3431 0 
L 469 0 
L 469 531 
Q 828 903 1448 1529 
Q 2069 2156 2228 2338 
Q 2531 2678 2651 2914 
Q 2772 3150 2772 3378 
Q 2772 3750 2511 3984 
Q 2250 4219 1831 4219 
Q 1534 4219 1204 4116 
Q 875 4013 500 3803 
L 500 4441 
Q 881 4594 1212 4672 
Q 1544 4750 1819 4750 
Q 2544 4750 2975 4387 
Q 3406 4025 3406 3419 
Q 3406 3131 3298 2873 
Q 3191 2616 2906 2266 
Q 2828 2175 2409 1742 
Q 1991 1309 1228 531 
z
" transform="scale(0.015625)"/>
       </defs>
       <use xlink:href="#DejaVuSans-32"/>
      </g>
     </g>
    </g>
    <g id="xtick_4">
     <g id="line2d_4">
      <g>
       <use xlink:href="#m4c96e0557b" x="202.909091" y="392.8" style="stroke: #000000; stroke-width: 0.8"/>
      </g>
     </g>
     <g id="text_4">
      <!-- 3 -->
      <g transform="translate(199.727841 407.398438) scale(0.1 -0.1)">
       <defs>
        <path id="DejaVuSans-33" d="M 2597 2516 
Q 3050 2419 3304 2112 
Q 3559 1806 3559 1356 
Q 3559 666 3084 287 
Q 2609 -91 1734 -91 
Q 1441 -91 1130 -33 
Q 819 25 488 141 
L 488 750 
Q 750 597 1062 519 
Q 1375 441 1716 441 
Q 2309 441 2620 675 
Q 2931 909 2931 1356 
Q 2931 1769 2642 2001 
Q 2353 2234 1838 2234 
L 1294 2234 
L 1294 2753 
L 1863 2753 
Q 2328 2753 2575 2939 
Q 2822 3125 2822 3475 
Q 2822 3834 2567 4026 
Q 2313 4219 1838 4219 
Q 1578 4219 1281 4162 
Q 984 4106 628 3988 
L 628 4550 
Q 988 4650 1302 4700 
Q 1616 4750 1894 4750 
Q 2613 4750 3031 4423 
Q 3450 4097 3450 3541 
Q 3450 3153 3228 2886 
Q 3006 2619 2597 2516 
z
" transform="scale(0.015625)"/>
       </defs>
       <use xlink:href="#DejaVuSans-33"/>
      </g>
     </g>
    </g>
    <g id="xtick_5">
     <g id="line2d_5">
      <g>
       <use xlink:href="#m4c96e0557b" x="248.727273" y="392.8" style="stroke: #000000; stroke-width: 0.8"/>
      </g>
     </g>
     <g id="text_5">
      <!-- 4 -->
      <g transform="translate(245.546023 407.398438) scale(0.1 -0.1)">
       <defs>
        <path id="DejaVuSans-34" d="M 2419 4116 
L 825 1625 
L 2419 1625 
L 2419 4116 
z
M 2253 4666 
L 3047 4666 
L 3047 1625 
L 3713 1625 
L 3713 1100 
L 3047 1100 
L 3047 0 
L 2419 0 
L 2419 1100 
L 313 1100 
L 313 1709 
L 2253 4666 
z
" transform="scale(0.015625)"/>
       </defs>
       <use xlink:href="#DejaVuSans-34"/>
      </g>
     </g>
    </g>
    <g id="xtick_6">
     <g id="line2d_6">
      <g>
       <use xlink:href="#m4c96e0557b" x="294.545455" y="392.8" style="stroke: #000000; stroke-width: 0.8"/>
      </g>
     </g>
     <g id="text_6">
      <!-- 5 -->
      <g transform="translate(291.364205 407.398438) scale(0.1 -0.1)">
       <defs>
        <path id="DejaVuSans-35" d="M 691 4666 
L 3169 4666 
L 3169 4134 
L 1269 4134 
L 1269 2991 
Q 1406 3038 1543 3061 
Q 1681 3084 1819 3084 
Q 2600 3084 3056 2656 
Q 3513 2228 3513 1497 
Q 3513 744 3044 326 
Q 2575 -91 1722 -91 
Q 1428 -91 1123 -41 
Q 819 9 494 109 
L 494 744 
Q 775 591 1075 516 
Q 1375 441 1709 441 
Q 2250 441 2565 725 
Q 2881 1009 2881 1497 
Q 2881 1984 2565 2268 
Q 2250 2553 1709 2553 
Q 1456 2553 1204 2497 
Q 953 2441 691 2322 
L 691 4666 
z
" transform="scale(0.015625)"/>
       </defs>
       <use xlink:href="#DejaVuSans-35"/>
      </g>
     </g>
    </g>
    <g id="text_7">
     <!-- relative distance from ROI center ($\sigma$) -->
     <g transform="translate(106.48 419.556875) scale(0.08 -0.08)">
      <defs>
       <path id="DejaVuSans-72" d="M 2631 2963 
Q 2534 3019 2420 3045 
Q 2306 3072 2169 3072 
Q 1681 3072 1420 2755 
Q 1159 2438 1159 1844 
L 1159 0 
L 581 0 
L 581 3500 
L 1159 3500 
L 1159 2956 
Q 1341 3275 1631 3429 
Q 1922 3584 2338 3584 
Q 2397 3584 2469 3576 
Q 2541 3569 2628 3553 
L 2631 2963 
z
" transform="scale(0.015625)"/>
       <path id="DejaVuSans-65" d="M 3597 1894 
L 3597 1613 
L 953 1613 
Q 991 1019 1311 708 
Q 1631 397 2203 397 
Q 2534 397 2845 478 
Q 3156 559 3463 722 
L 3463 178 
Q 3153 47 2828 -22 
Q 2503 -91 2169 -91 
Q 1331 -91 842 396 
Q 353 884 353 1716 
Q 353 2575 817 3079 
Q 1281 3584 2069 3584 
Q 2775 3584 3186 3129 
Q 3597 2675 3597 1894 
z
M 3022 2063 
Q 3016 2534 2758 2815 
Q 2500 3097 2075 3097 
Q 1594 3097 1305 2825 
Q 1016 2553 972 2059 
L 3022 2063 
z
" transform="scale(0.015625)"/>
       <path id="DejaVuSans-6c" d="M 603 4863 
L 1178 4863 
L 1178 0 
L 603 0 
L 603 4863 
z
" transform="scale(0.015625)"/>
       <path id="DejaVuSans-61" d="M 2194 1759 
Q 1497 1759 1228 1600 
Q 959 1441 959 1056 
Q 959 750 1161 570 
Q 1363 391 1709 391 
Q 2188 391 2477 730 
Q 2766 1069 2766 1631 
L 2766 1759 
L 2194 1759 
z
M 3341 1997 
L 3341 0 
L 2766 0 
L 2766 531 
Q 2569 213 2275 61 
Q 1981 -91 1556 -91 
Q 1019 -91 701 211 
Q 384 513 384 1019 
Q 384 1609 779 1909 
Q 1175 2209 1959 2209 
L 2766 2209 
L 2766 2266 
Q 2766 2663 2505 2880 
Q 2244 3097 1772 3097 
Q 1472 3097 1187 3025 
Q 903 2953 641 2809 
L 641 3341 
Q 956 3463 1253 3523 
Q 1550 3584 1831 3584 
Q 2591 3584 2966 3190 
Q 3341 2797 3341 1997 
z
" transform="scale(0.015625)"/>
       <path id="DejaVuSans-74" d="M 1172 4494 
L 1172 3500 
L 2356 3500 
L 2356 3053 
L 1172 3053 
L 1172 1153 
Q 1172 725 1289 603 
Q 1406 481 1766 481 
L 2356 481 
L 2356 0 
L 1766 0 
Q 1100 0 847 248 
Q 594 497 594 1153 
L 594 3053 
L 172 3053 
L 172 3500 
L 594 3500 
L 594 4494 
L 1172 4494 
z
" transform="scale(0.015625)"/>
       <path id="DejaVuSans-69" d="M 603 3500 
L 1178 3500 
L 1178 0 
L 603 0 
L 603 3500 
z
M 603 4863 
L 1178 4863 
L 1178 4134 
L 603 4134 
L 603 4863 
z
" transform="scale(0.015625)"/>
       <path id="DejaVuSans-76" d="M 191 3500 
L 800 3500 
L 1894 563 
L 2988 3500 
L 3597 3500 
L 2284 0 
L 1503 0 
L 191 3500 
z
" transform="scale(0.015625)"/>
       <path id="DejaVuSans-20" transform="scale(0.015625)"/>
       <path id="DejaVuSans-64" d="M 2906 2969 
L 2906 4863 
L 3481 4863 
L 3481 0 
L 2906 0 
L 2906 525 
Q 2725 213 2448 61 
Q 2172 -91 1784 -91 
Q 1150 -91 751 415 
Q 353 922 353 1747 
Q 353 2572 751 3078 
Q 1150 3584 1784 3584 
Q 2172 3584 2448 3432 
Q 2725 3281 2906 2969 
z
M 947 1747 
Q 947 1113 1208 752 
Q 1469 391 1925 391 
Q 2381 391 2643 752 
Q 2906 1113 2906 1747 
Q 2906 2381 2643 2742 
Q 2381 3103 1925 3103 
Q 1469 3103 1208 2742 
Q 947 2381 947 1747 
z
" transform="scale(0.015625)"/>
       <path id="DejaVuSans-73" d="M 2834 3397 
L 2834 2853 
Q 2591 2978 2328 3040 
Q 2066 3103 1784 3103 
Q 1356 3103 1142 2972 
Q 928 2841 928 2578 
Q 928 2378 1081 2264 
Q 1234 2150 1697 2047 
L 1894 2003 
Q 2506 1872 2764 1633 
Q 3022 1394 3022 966 
Q 3022 478 2636 193 
Q 2250 -91 1575 -91 
Q 1294 -91 989 -36 
Q 684 19 347 128 
L 347 722 
Q 666 556 975 473 
Q 1284 391 1588 391 
Q 1994 391 2212 530 
Q 2431 669 2431 922 
Q 2431 1156 2273 1281 
Q 2116 1406 1581 1522 
L 1381 1569 
Q 847 1681 609 1914 
Q 372 2147 372 2553 
Q 372 3047 722 3315 
Q 1072 3584 1716 3584 
Q 2034 3584 2315 3537 
Q 2597 3491 2834 3397 
z
" transform="scale(0.015625)"/>
       <path id="DejaVuSans-6e" d="M 3513 2113 
L 3513 0 
L 2938 0 
L 2938 2094 
Q 2938 2591 2744 2837 
Q 2550 3084 2163 3084 
Q 1697 3084 1428 2787 
Q 1159 2491 1159 1978 
L 1159 0 
L 581 0 
L 581 3500 
L 1159 3500 
L 1159 2956 
Q 1366 3272 1645 3428 
Q 1925 3584 2291 3584 
Q 2894 3584 3203 3211 
Q 3513 2838 3513 2113 
z
" transform="scale(0.015625)"/>
       <path id="DejaVuSans-63" d="M 3122 3366 
L 3122 2828 
Q 2878 2963 2633 3030 
Q 2388 3097 2138 3097 
Q 1578 3097 1268 2742 
Q 959 2388 959 1747 
Q 959 1106 1268 751 
Q 1578 397 2138 397 
Q 2388 397 2633 464 
Q 2878 531 3122 666 
L 3122 134 
Q 2881 22 2623 -34 
Q 2366 -91 2075 -91 
Q 1284 -91 818 406 
Q 353 903 353 1747 
Q 353 2603 823 3093 
Q 1294 3584 2113 3584 
Q 2378 3584 2631 3529 
Q 2884 3475 3122 3366 
z
" transform="scale(0.015625)"/>
       <path id="DejaVuSans-66" d="M 2375 4863 
L 2375 4384 
L 1825 4384 
Q 1516 4384 1395 4259 
Q 1275 4134 1275 3809 
L 1275 3500 
L 2222 3500 
L 2222 3053 
L 1275 3053 
L 1275 0 
L 697 0 
L 697 3053 
L 147 3053 
L 147 3500 
L 697 3500 
L 697 3744 
Q 697 4328 969 4595 
Q 1241 4863 1831 4863 
L 2375 4863 
z
" transform="scale(0.015625)"/>
       <path id="DejaVuSans-6f" d="M 1959 3097 
Q 1497 3097 1228 2736 
Q 959 2375 959 1747 
Q 959 1119 1226 758 
Q 1494 397 1959 397 
Q 2419 397 2687 759 
Q 2956 1122 2956 1747 
Q 2956 2369 2687 2733 
Q 2419 3097 1959 3097 
z
M 1959 3584 
Q 2709 3584 3137 3096 
Q 3566 2609 3566 1747 
Q 3566 888 3137 398 
Q 2709 -91 1959 -91 
Q 1206 -91 779 398 
Q 353 888 353 1747 
Q 353 2609 779 3096 
Q 1206 3584 1959 3584 
z
" transform="scale(0.015625)"/>
       <path id="DejaVuSans-6d" d="M 3328 2828 
Q 3544 3216 3844 3400 
Q 4144 3584 4550 3584 
Q 5097 3584 5394 3201 
Q 5691 2819 5691 2113 
L 5691 0 
L 5113 0 
L 5113 2094 
Q 5113 2597 4934 2840 
Q 4756 3084 4391 3084 
Q 3944 3084 3684 2787 
Q 3425 2491 3425 1978 
L 3425 0 
L 2847 0 
L 2847 2094 
Q 2847 2600 2669 2842 
Q 2491 3084 2119 3084 
Q 1678 3084 1418 2786 
Q 1159 2488 1159 1978 
L 1159 0 
L 581 0 
L 581 3500 
L 1159 3500 
L 1159 2956 
Q 1356 3278 1631 3431 
Q 1906 3584 2284 3584 
Q 2666 3584 2933 3390 
Q 3200 3197 3328 2828 
z
" transform="scale(0.015625)"/>
       <path id="DejaVuSans-52" d="M 2841 2188 
Q 3044 2119 3236 1894 
Q 3428 1669 3622 1275 
L 4263 0 
L 3584 0 
L 2988 1197 
Q 2756 1666 2539 1819 
Q 2322 1972 1947 1972 
L 1259 1972 
L 1259 0 
L 628 0 
L 628 4666 
L 2053 4666 
Q 2853 4666 3247 4331 
Q 3641 3997 3641 3322 
Q 3641 2881 3436 2590 
Q 3231 2300 2841 2188 
z
M 1259 4147 
L 1259 2491 
L 2053 2491 
Q 2509 2491 2742 2702 
Q 2975 2913 2975 3322 
Q 2975 3731 2742 3939 
Q 2509 4147 2053 4147 
L 1259 4147 
z
" transform="scale(0.015625)"/>
       <path id="DejaVuSans-4f" d="M 2522 4238 
Q 1834 4238 1429 3725 
Q 1025 3213 1025 2328 
Q 1025 1447 1429 934 
Q 1834 422 2522 422 
Q 3209 422 3611 934 
Q 4013 1447 4013 2328 
Q 4013 3213 3611 3725 
Q 3209 4238 2522 4238 
z
M 2522 4750 
Q 3503 4750 4090 4092 
Q 4678 3434 4678 2328 
Q 4678 1225 4090 567 
Q 3503 -91 2522 -91 
Q 1538 -91 948 565 
Q 359 1222 359 2328 
Q 359 3434 948 4092 
Q 1538 4750 2522 4750 
z
" transform="scale(0.015625)"/>
       <path id="DejaVuSans-49" d="M 628 4666 
L 1259 4666 
L 1259 0 
L 628 0 
L 628 4666 
z
" transform="scale(0.015625)"/>
       <path id="DejaVuSans-28" d="M 1984 4856 
Q 1566 4138 1362 3434 
Q 1159 2731 1159 2009 
Q 1159 1288 1364 580 
Q 1569 -128 1984 -844 
L 1484 -844 
Q 1016 -109 783 600 
Q 550 1309 550 2009 
Q 550 2706 781 3412 
Q 1013 4119 1484 4856 
L 1984 4856 
z
" transform="scale(0.015625)"/>
       <path id="DejaVuSans-Oblique-3c3" d="M 2219 3044 
Q 1744 3044 1422 2700 
Q 1081 2341 969 1747 
Q 844 1119 1044 756 
Q 1241 397 1706 397 
Q 2166 397 2503 759 
Q 2844 1122 2966 1747 
Q 3075 2319 2881 2700 
Q 2700 3044 2219 3044 
z
M 2309 3503 
L 4219 3500 
L 4106 2925 
L 3463 2925 
Q 3706 2438 3575 1747 
Q 3406 888 2884 400 
Q 2359 -91 1609 -91 
Q 856 -91 525 400 
Q 194 888 363 1747 
Q 528 2609 1050 3097 
Q 1484 3503 2309 3503 
z
" transform="scale(0.015625)"/>
       <path id="DejaVuSans-29" d="M 513 4856 
L 1013 4856 
Q 1481 4119 1714 3412 
Q 1947 2706 1947 2009 
Q 1947 1309 1714 600 
Q 1481 -109 1013 -844 
L 513 -844 
Q 928 -128 1133 580 
Q 1338 1288 1338 2009 
Q 1338 2731 1133 3434 
Q 928 4138 513 4856 
z
" transform="scale(0.015625)"/>
      </defs>
      <use xlink:href="#DejaVuSans-72" transform="translate(0 0.015625)"/>
      <use xlink:href="#DejaVuSans-65" transform="translate(41.113281 0.015625)"/>
      <use xlink:href="#DejaVuSans-6c" transform="translate(102.636719 0.015625)"/>
      <use xlink:href="#DejaVuSans-61" transform="translate(130.419922 0.015625)"/>
      <use xlink:href="#DejaVuSans-74" transform="translate(191.699219 0.015625)"/>
      <use xlink:href="#DejaVuSans-69" transform="translate(230.908203 0.015625)"/>
      <use xlink:href="#DejaVuSans-76" transform="translate(258.691406 0.015625)"/>
      <use xlink:href="#DejaVuSans-65" transform="translate(317.871094 0.015625)"/>
      <use xlink:href="#DejaVuSans-20" transform="translate(379.394531 0.015625)"/>
      <use xlink:href="#DejaVuSans-64" transform="translate(411.181641 0.015625)"/>
      <use xlink:href="#DejaVuSans-69" transform="translate(474.658203 0.015625)"/>
      <use xlink:href="#DejaVuSans-73" transform="translate(502.441406 0.015625)"/>
      <use xlink:href="#DejaVuSans-74" transform="translate(554.541016 0.015625)"/>
      <use xlink:href="#DejaVuSans-61" transform="translate(593.75 0.015625)"/>
      <use xlink:href="#DejaVuSans-6e" transform="translate(655.029297 0.015625)"/>
      <use xlink:href="#DejaVuSans-63" transform="translate(718.408203 0.015625)"/>
      <use xlink:href="#DejaVuSans-65" transform="translate(773.388672 0.015625)"/>
      <use xlink:href="#DejaVuSans-20" transform="translate(834.912109 0.015625)"/>
      <use xlink:href="#DejaVuSans-66" transform="translate(866.699219 0.015625)"/>
      <use xlink:href="#DejaVuSans-72" transform="translate(901.904297 0.015625)"/>
      <use xlink:href="#DejaVuSans-6f" transform="translate(943.017578 0.015625)"/>
      <use xlink:href="#DejaVuSans-6d" transform="translate(1004.199219 0.015625)"/>
      <use xlink:href="#DejaVuSans-20" transform="translate(1101.611328 0.015625)"/>
      <use xlink:href="#DejaVuSans-52" transform="translate(1133.398438 0.015625)"/>
      <use xlink:href="#DejaVuSans-4f" transform="translate(1202.880859 0.015625)"/>
      <use xlink:href="#DejaVuSans-49" transform="translate(1281.591797 0.015625)"/>
      <use xlink:href="#DejaVuSans-20" transform="translate(1311.083984 0.015625)"/>
      <use xlink:href="#DejaVuSans-63" transform="translate(1342.871094 0.015625)"/>
      <use xlink:href="#DejaVuSans-65" transform="translate(1397.851562 0.015625)"/>
      <use xlink:href="#DejaVuSans-6e" transform="translate(1459.375 0.015625)"/>
      <use xlink:href="#DejaVuSans-74" transform="translate(1522.753906 0.015625)"/>
      <use xlink:href="#DejaVuSans-65" transform="translate(1561.962891 0.015625)"/>
      <use xlink:href="#DejaVuSans-72" transform="translate(1623.486328 0.015625)"/>
      <use xlink:href="#DejaVuSans-20" transform="translate(1664.599609 0.015625)"/>
      <use xlink:href="#DejaVuSans-28" transform="translate(1696.386719 0.015625)"/>
      <use xlink:href="#DejaVuSans-Oblique-3c3" transform="translate(1735.400391 0.015625)"/>
      <use xlink:href="#DejaVuSans-29" transform="translate(1798.779297 0.015625)"/>
     </g>
    </g>
   </g>
   <g id="matplotlib.axis_2">
    <g id="ytick_1">
     <g id="line2d_7">
      <defs>
       <path id="ma06dda1413" d="M 0 0 
L -3.5 0 
" style="stroke: #000000; stroke-width: 0.8"/>
      </defs>
      <g>
       <use xlink:href="#ma06dda1413" x="50" y="376.457143" style="stroke: #000000; stroke-width: 0.8"/>
      </g>
     </g>
     <g id="text_8">
      <!-- −5 -->
      <g transform="translate(28.257812 380.256362) scale(0.1 -0.1)">
       <defs>
        <path id="DejaVuSans-2212" d="M 678 2272 
L 4684 2272 
L 4684 1741 
L 678 1741 
L 678 2272 
z
" transform="scale(0.015625)"/>
       </defs>
       <use xlink:href="#DejaVuSans-2212"/>
       <use xlink:href="#DejaVuSans-35" x="83.789062"/>
      </g>
     </g>
    </g>
    <g id="ytick_2">
     <g id="line2d_8">
      <g>
       <use xlink:href="#ma06dda1413" x="50" y="345.6" style="stroke: #000000; stroke-width: 0.8"/>
      </g>
     </g>
     <g id="text_9">
      <!-- 0 -->
      <g transform="translate(36.6375 349.399219) scale(0.1 -0.1)">
       <use xlink:href="#DejaVuSans-30"/>
      </g>
     </g>
    </g>
    <g id="ytick_3">
     <g id="line2d_9">
      <g>
       <use xlink:href="#ma06dda1413" x="50" y="314.742857" style="stroke: #000000; stroke-width: 0.8"/>
      </g>
     </g>
     <g id="text_10">
      <!-- 5 -->
      <g transform="translate(36.6375 318.542076) scale(0.1 -0.1)">
       <use xlink:href="#DejaVuSans-35"/>
      </g>
     </g>
    </g>
    <g id="text_11">
     <!-- BOLD % change -->
     <g transform="translate(22.594062 377.79625) rotate(-90) scale(0.08 -0.08)">
      <defs>
       <path id="DejaVuSans-42" d="M 1259 2228 
L 1259 519 
L 2272 519 
Q 2781 519 3026 730 
Q 3272 941 3272 1375 
Q 3272 1813 3026 2020 
Q 2781 2228 2272 2228 
L 1259 2228 
z
M 1259 4147 
L 1259 2741 
L 2194 2741 
Q 2656 2741 2882 2914 
Q 3109 3088 3109 3444 
Q 3109 3797 2882 3972 
Q 2656 4147 2194 4147 
L 1259 4147 
z
M 628 4666 
L 2241 4666 
Q 2963 4666 3353 4366 
Q 3744 4066 3744 3513 
Q 3744 3084 3544 2831 
Q 3344 2578 2956 2516 
Q 3422 2416 3680 2098 
Q 3938 1781 3938 1306 
Q 3938 681 3513 340 
Q 3088 0 2303 0 
L 628 0 
L 628 4666 
z
" transform="scale(0.015625)"/>
       <path id="DejaVuSans-4c" d="M 628 4666 
L 1259 4666 
L 1259 531 
L 3531 531 
L 3531 0 
L 628 0 
L 628 4666 
z
" transform="scale(0.015625)"/>
       <path id="DejaVuSans-44" d="M 1259 4147 
L 1259 519 
L 2022 519 
Q 2988 519 3436 956 
Q 3884 1394 3884 2338 
Q 3884 3275 3436 3711 
Q 2988 4147 2022 4147 
L 1259 4147 
z
M 628 4666 
L 1925 4666 
Q 3281 4666 3915 4102 
Q 4550 3538 4550 2338 
Q 4550 1131 3912 565 
Q 3275 0 1925 0 
L 628 0 
L 628 4666 
z
" transform="scale(0.015625)"/>
       <path id="DejaVuSans-25" d="M 4653 2053 
Q 4381 2053 4226 1822 
Q 4072 1591 4072 1178 
Q 4072 772 4226 539 
Q 4381 306 4653 306 
Q 4919 306 5073 539 
Q 5228 772 5228 1178 
Q 5228 1588 5073 1820 
Q 4919 2053 4653 2053 
z
M 4653 2450 
Q 5147 2450 5437 2106 
Q 5728 1763 5728 1178 
Q 5728 594 5436 251 
Q 5144 -91 4653 -91 
Q 4153 -91 3862 251 
Q 3572 594 3572 1178 
Q 3572 1766 3864 2108 
Q 4156 2450 4653 2450 
z
M 1428 4353 
Q 1159 4353 1004 4120 
Q 850 3888 850 3481 
Q 850 3069 1003 2837 
Q 1156 2606 1428 2606 
Q 1700 2606 1854 2837 
Q 2009 3069 2009 3481 
Q 2009 3884 1853 4118 
Q 1697 4353 1428 4353 
z
M 4250 4750 
L 4750 4750 
L 1831 -91 
L 1331 -91 
L 4250 4750 
z
M 1428 4750 
Q 1922 4750 2215 4408 
Q 2509 4066 2509 3481 
Q 2509 2891 2217 2550 
Q 1925 2209 1428 2209 
Q 931 2209 642 2551 
Q 353 2894 353 3481 
Q 353 4063 643 4406 
Q 934 4750 1428 4750 
z
" transform="scale(0.015625)"/>
       <path id="DejaVuSans-68" d="M 3513 2113 
L 3513 0 
L 2938 0 
L 2938 2094 
Q 2938 2591 2744 2837 
Q 2550 3084 2163 3084 
Q 1697 3084 1428 2787 
Q 1159 2491 1159 1978 
L 1159 0 
L 581 0 
L 581 4863 
L 1159 4863 
L 1159 2956 
Q 1366 3272 1645 3428 
Q 1925 3584 2291 3584 
Q 2894 3584 3203 3211 
Q 3513 2838 3513 2113 
z
" transform="scale(0.015625)"/>
       <path id="DejaVuSans-67" d="M 2906 1791 
Q 2906 2416 2648 2759 
Q 2391 3103 1925 3103 
Q 1463 3103 1205 2759 
Q 947 2416 947 1791 
Q 947 1169 1205 825 
Q 1463 481 1925 481 
Q 2391 481 2648 825 
Q 2906 1169 2906 1791 
z
M 3481 434 
Q 3481 -459 3084 -895 
Q 2688 -1331 1869 -1331 
Q 1566 -1331 1297 -1286 
Q 1028 -1241 775 -1147 
L 775 -588 
Q 1028 -725 1275 -790 
Q 1522 -856 1778 -856 
Q 2344 -856 2625 -561 
Q 2906 -266 2906 331 
L 2906 616 
Q 2728 306 2450 153 
Q 2172 0 1784 0 
Q 1141 0 747 490 
Q 353 981 353 1791 
Q 353 2603 747 3093 
Q 1141 3584 1784 3584 
Q 2172 3584 2450 3431 
Q 2728 3278 2906 2969 
L 2906 3500 
L 3481 3500 
L 3481 434 
z
" transform="scale(0.015625)"/>
      </defs>
      <use xlink:href="#DejaVuSans-42"/>
      <use xlink:href="#DejaVuSans-4f" x="66.853516"/>
      <use xlink:href="#DejaVuSans-4c" x="145.564453"/>
      <use xlink:href="#DejaVuSans-44" x="201.277344"/>
      <use xlink:href="#DejaVuSans-20" x="278.279297"/>
      <use xlink:href="#DejaVuSans-25" x="310.066406"/>
      <use xlink:href="#DejaVuSans-20" x="405.085938"/>
      <use xlink:href="#DejaVuSans-63" x="436.873047"/>
      <use xlink:href="#DejaVuSans-68" x="491.853516"/>
      <use xlink:href="#DejaVuSans-61" x="555.232422"/>
      <use xlink:href="#DejaVuSans-6e" x="616.511719"/>
      <use xlink:href="#DejaVuSans-67" x="679.890625"/>
      <use xlink:href="#DejaVuSans-65" x="743.367188"/>
     </g>
    </g>
   </g>
   <g id="line2d_10">
    <path d="M 65.454545 342.782539 
L 70.12987 342.650405 
L 74.805195 342.707982 
L 79.480519 342.849106 
L 84.155844 343.150309 
L 88.831169 343.454918 
L 93.506494 343.86772 
L 98.181818 343.849821 
L 102.857143 343.581758 
L 107.532468 343.437874 
L 112.207792 343.582137 
L 116.883117 343.647817 
L 121.558442 343.836017 
L 126.233766 343.960349 
L 130.909091 343.928459 
L 135.584416 343.790242 
L 140.25974 343.609868 
L 144.935065 343.460534 
L 149.61039 343.270651 
L 154.285714 343.154093 
L 158.961039 343.070209 
L 163.636364 343.065929 
L 168.311688 343.109568 
L 172.987013 343.238607 
L 177.662338 343.421462 
L 182.337662 343.594453 
L 187.012987 343.662593 
L 191.688312 343.933921 
L 196.363636 344.306638 
L 201.038961 344.546857 
L 205.714286 344.610937 
L 210.38961 344.543361 
L 215.064935 344.557392 
L 219.74026 344.658155 
L 224.415584 344.792784 
L 229.090909 344.952607 
L 233.766234 345.08114 
L 238.441558 345.113439 
L 243.116883 345.120207 
L 247.792208 345.202673 
L 252.467532 345.458264 
L 257.142857 345.727359 
L 261.818182 345.975322 
L 266.493506 346.164803 
L 271.168831 346.241428 
L 275.844156 346.365451 
L 280.519481 346.569707 
L 285.194805 346.677675 
L 289.87013 346.885673 
L 294.545455 347.128277 
" clip-path="url(#p00556f231f)" style="fill: none; stroke: #9400d3; stroke-width: 1.5; stroke-linecap: square"/>
   </g>
   <g id="line2d_11">
    <path d="M 65.454545 342.176414 
L 70.12987 342.464181 
L 74.805195 342.662737 
L 79.480519 343.145087 
L 84.155844 344.259203 
L 88.831169 345.139144 
L 93.506494 346.06256 
L 98.181818 346.268474 
L 102.857143 345.145766 
L 107.532468 343.907579 
L 112.207792 343.065309 
L 116.883117 342.542458 
L 121.558442 342.504398 
L 126.233766 342.394379 
L 130.909091 342.614593 
L 135.584416 342.924676 
L 140.25974 342.966525 
L 144.935065 342.823863 
L 149.61039 342.503939 
L 154.285714 342.704154 
L 158.961039 342.41098 
L 163.636364 341.966487 
L 168.311688 341.523796 
L 172.987013 341.784487 
L 177.662338 342.047219 
L 182.337662 342.347041 
L 187.012987 342.754052 
L 191.688312 343.914709 
L 196.363636 343.88676 
L 201.038961 343.611845 
L 205.714286 343.599535 
L 210.38961 343.887903 
L 215.064935 343.751042 
L 219.74026 343.89189 
L 224.415584 344.196945 
L 229.090909 344.441788 
L 233.766234 344.447127 
L 238.441558 344.169613 
L 243.116883 343.400625 
L 247.792208 342.885949 
L 252.467532 343.58549 
L 257.142857 344.475611 
L 261.818182 344.78543 
L 266.493506 345.077629 
L 271.168831 345.566369 
L 275.844156 346.788697 
L 280.519481 347.836964 
L 285.194805 348.557993 
L 289.87013 349.635591 
L 294.545455 350.878387 
" clip-path="url(#p00556f231f)" style="fill: none; stroke: #9400d3; stroke-opacity: 0.2; stroke-width: 1.5; stroke-linecap: square"/>
   </g>
   <g id="line2d_12">
    <path d="M 65.454545 350.941992 
L 70.12987 350.941992 
L 74.805195 351.020825 
L 79.480519 351.060172 
L 84.155844 350.318318 
L 88.831169 349.16377 
L 93.506494 348.053839 
L 98.181818 347.531597 
L 102.857143 347.329133 
L 107.532468 347.241582 
L 112.207792 346.990338 
L 116.883117 347.007526 
L 121.558442 346.828382 
L 126.233766 346.058529 
L 130.909091 345.548647 
L 135.584416 345.280564 
L 140.25974 345.103 
L 144.935065 345.051932 
L 149.61039 345.170973 
L 154.285714 345.016079 
L 158.961039 344.920668 
L 163.636364 344.788471 
L 168.311688 344.815415 
L 172.987013 344.787617 
L 177.662338 344.766026 
L 182.337662 344.726271 
L 187.012987 344.685877 
L 191.688312 344.525323 
L 196.363636 344.687947 
L 201.038961 345.154897 
L 205.714286 345.570912 
L 210.38961 345.953206 
L 215.064935 346.14511 
L 219.74026 346.029748 
L 224.415584 345.838973 
L 229.090909 345.723467 
L 233.766234 345.721221 
L 238.441558 345.619871 
L 243.116883 345.449124 
L 247.792208 345.211878 
L 252.467532 345.249385 
L 257.142857 345.377112 
L 261.818182 345.587041 
L 266.493506 345.354527 
L 271.168831 344.895407 
L 275.844156 344.29165 
L 280.519481 343.701639 
L 285.194805 343.476953 
L 289.87013 343.632888 
L 294.545455 343.785134 
" clip-path="url(#p00556f231f)" style="fill: none; stroke: #9400d3; stroke-opacity: 0.2; stroke-width: 1.5; stroke-linecap: square"/>
   </g>
   <g id="line2d_13">
    <path d="M 65.454545 338.933292 
L 70.12987 339.228816 
L 74.805195 340.102395 
L 79.480519 341.444423 
L 84.155844 342.234007 
L 88.831169 342.842113 
L 93.506494 343.538088 
L 98.181818 343.763283 
L 102.857143 343.738598 
L 107.532468 343.7936 
L 112.207792 343.724043 
L 116.883117 343.16853 
L 121.558442 342.637883 
L 126.233766 342.603474 
L 130.909091 342.220354 
L 135.584416 342.000579 
L 140.25974 341.793943 
L 144.935065 341.444006 
L 149.61039 341.161841 
L 154.285714 341.189709 
L 158.961039 341.266982 
L 163.636364 340.883181 
L 168.311688 340.960675 
L 172.987013 341.032414 
L 177.662338 340.916814 
L 182.337662 340.92937 
L 187.012987 340.976514 
L 191.688312 341.308219 
L 196.363636 341.542875 
L 201.038961 341.230725 
L 205.714286 341.070082 
L 210.38961 340.548528 
L 215.064935 340.162024 
L 219.74026 340.072408 
L 224.415584 340.10494 
L 229.090909 340.251148 
L 233.766234 340.8555 
L 238.441558 341.067376 
L 243.116883 341.92147 
L 247.792208 343.503175 
L 252.467532 344.621909 
L 257.142857 345.180343 
L 261.818182 345.657538 
L 266.493506 346.204362 
L 271.168831 346.331851 
L 275.844156 346.45359 
L 280.519481 347.353423 
L 285.194805 348.646414 
L 289.87013 349.787745 
L 294.545455 350.299783 
" clip-path="url(#p00556f231f)" style="fill: none; stroke: #9400d3; stroke-opacity: 0.2; stroke-width: 1.5; stroke-linecap: square"/>
   </g>
   <g id="line2d_14">
    <path d="M 65.454545 348.153025 
L 70.12987 348.153025 
L 74.805195 348.126353 
L 79.480519 348.101762 
L 84.155844 348.032612 
L 88.831169 347.618508 
L 93.506494 346.503754 
L 98.181818 345.833239 
L 102.857143 345.782242 
L 107.532468 345.535146 
L 112.207792 345.504826 
L 116.883117 345.391305 
L 121.558442 345.126273 
L 126.233766 345.179386 
L 130.909091 345.522246 
L 135.584416 345.667861 
L 140.25974 345.850048 
L 144.935065 346.049163 
L 149.61039 346.277103 
L 154.285714 346.37615 
L 158.961039 346.542565 
L 163.636364 346.918979 
L 168.311688 347.225876 
L 172.987013 347.481003 
L 177.662338 348.03374 
L 182.337662 348.510203 
L 187.012987 348.707373 
L 191.688312 348.562761 
L 196.363636 348.436122 
L 201.038961 348.430935 
L 205.714286 348.292203 
L 210.38961 348.282767 
L 215.064935 348.647013 
L 219.74026 349.099866 
L 224.415584 349.272749 
L 229.090909 349.500414 
L 233.766234 349.585018 
L 238.441558 349.535384 
L 243.116883 349.539871 
L 247.792208 349.542869 
L 252.467532 349.443452 
L 257.142857 349.140927 
L 261.818182 349.160386 
L 266.493506 349.345074 
L 271.168831 349.593869 
L 275.844156 350.278861 
L 280.519481 351.02816 
L 285.194805 351.398556 
L 289.87013 351.756577 
L 294.545455 351.99486 
" clip-path="url(#p00556f231f)" style="fill: none; stroke: #9400d3; stroke-opacity: 0.2; stroke-width: 1.5; stroke-linecap: square"/>
   </g>
   <g id="line2d_15">
    <path d="M 65.454545 333.997545 
L 70.12987 334.040371 
L 74.805195 334.534013 
L 79.480519 335.073577 
L 84.155844 336.319127 
L 88.831169 336.930345 
L 93.506494 337.813502 
L 98.181818 337.595357 
L 102.857143 336.305637 
L 107.532468 336.115457 
L 112.207792 336.769457 
L 116.883117 337.859534 
L 121.558442 339.819522 
L 126.233766 341.299679 
L 130.909091 340.913582 
L 135.584416 340.995654 
L 140.25974 341.073901 
L 144.935065 341.237519 
L 149.61039 340.932394 
L 154.285714 339.627611 
L 158.961039 338.892251 
L 163.636364 338.631873 
L 168.311688 338.350578 
L 172.987013 338.154431 
L 177.662338 338.214864 
L 182.337662 338.516767 
L 187.012987 338.705419 
L 191.688312 339.140941 
L 196.363636 340.215045 
L 201.038961 341.1194 
L 205.714286 341.239728 
L 210.38961 340.444769 
L 215.064935 340.166339 
L 219.74026 340.306501 
L 224.415584 340.774548 
L 229.090909 341.262494 
L 233.766234 341.239437 
L 238.441558 340.959253 
L 243.116883 340.048531 
L 247.792208 338.836417 
L 252.467532 338.539674 
L 257.142857 339.006778 
L 261.818182 339.369299 
L 266.493506 340.293036 
L 271.168831 340.78451 
L 275.844156 341.478853 
L 280.519481 342.340916 
L 285.194805 343.584891 
L 289.87013 343.98453 
L 294.545455 343.740579 
" clip-path="url(#p00556f231f)" style="fill: none; stroke: #9400d3; stroke-opacity: 0.2; stroke-width: 1.5; stroke-linecap: square"/>
   </g>
   <g id="line2d_16">
    <path d="M 65.454545 343.971518 
L 70.12987 343.349045 
L 74.805195 342.329297 
L 79.480519 341.742633 
L 84.155844 341.963713 
L 88.831169 343.738168 
L 93.506494 345.601985 
L 98.181818 346.909528 
L 102.857143 347.090815 
L 107.532468 347.841741 
L 112.207792 349.43101 
L 116.883117 350.300809 
L 121.558442 351.117632 
L 126.233766 351.409638 
L 130.909091 351.733711 
L 135.584416 351.504031 
L 140.25974 350.099692 
L 144.935065 349.29513 
L 149.61039 348.637344 
L 154.285714 347.815933 
L 158.961039 346.705765 
L 163.636364 345.271637 
L 168.311688 344.13395 
L 172.987013 343.498649 
L 177.662338 343.957731 
L 182.337662 344.568886 
L 187.012987 344.792437 
L 191.688312 344.742088 
L 196.363636 344.940223 
L 201.038961 344.811638 
L 205.714286 344.463751 
L 210.38961 344.541262 
L 215.064935 345.09507 
L 219.74026 345.60608 
L 224.415584 345.670882 
L 229.090909 345.706244 
L 233.766234 345.49092 
L 238.441558 345.266454 
L 243.116883 345.124708 
L 247.792208 345.226889 
L 252.467532 345.905205 
L 257.142857 346.691614 
L 261.818182 347.457465 
L 266.493506 347.779145 
L 271.168831 348.131312 
L 275.844156 347.935143 
L 280.519481 347.807012 
L 285.194805 346.933657 
L 289.87013 345.7696 
L 294.545455 344.844112 
" clip-path="url(#p00556f231f)" style="fill: none; stroke: #9400d3; stroke-opacity: 0.2; stroke-width: 1.5; stroke-linecap: square"/>
   </g>
   <g id="line2d_17">
    <path d="M 65.454545 337.716898 
L 70.12987 337.468046 
L 74.805195 338.25303 
L 79.480519 339.774961 
L 84.155844 341.007437 
L 88.831169 342.055734 
L 93.506494 342.603496 
L 98.181818 342.476591 
L 102.857143 342.141041 
L 107.532468 342.030527 
L 112.207792 341.744491 
L 116.883117 340.971311 
L 121.558442 340.452999 
L 126.233766 340.311204 
L 130.909091 339.981458 
L 135.584416 339.635572 
L 140.25974 339.541569 
L 144.935065 339.400686 
L 149.61039 339.295945 
L 154.285714 339.573362 
L 158.961039 340.040188 
L 163.636364 340.475828 
L 168.311688 340.971653 
L 172.987013 341.795265 
L 177.662338 342.309952 
L 182.337662 342.350677 
L 187.012987 342.33501 
L 191.688312 342.889881 
L 196.363636 343.735264 
L 201.038961 343.968629 
L 205.714286 344.124891 
L 210.38961 344.647152 
L 215.064935 344.856712 
L 219.74026 345.411088 
L 224.415584 345.88042 
L 229.090909 346.275614 
L 233.766234 346.79774 
L 238.441558 347.442555 
L 243.116883 347.936802 
L 247.792208 347.757637 
L 252.467532 347.605847 
L 257.142857 347.468765 
L 261.818182 347.49672 
L 266.493506 346.989879 
L 271.168831 347.063429 
L 275.844156 347.143718 
L 280.519481 347.455966 
L 285.194805 347.511284 
L 289.87013 347.450212 
L 294.545455 348.002219 
" clip-path="url(#p00556f231f)" style="fill: none; stroke: #9400d3; stroke-opacity: 0.2; stroke-width: 1.5; stroke-linecap: square"/>
   </g>
   <g id="line2d_18">
    <path d="M 65.454545 349.169637 
L 70.12987 349.323365 
L 74.805195 349.753435 
L 79.480519 349.679547 
L 84.155844 349.265178 
L 88.831169 348.648434 
L 93.506494 348.797257 
L 98.181818 348.503771 
L 102.857143 348.283215 
L 107.532468 347.980739 
L 112.207792 348.200322 
L 116.883117 348.451684 
L 121.558442 348.735992 
L 126.233766 348.75919 
L 130.909091 348.519255 
L 135.584416 348.198954 
L 140.25974 347.951654 
L 144.935065 347.70423 
L 149.61039 347.381584 
L 154.285714 347.446589 
L 158.961039 348.008251 
L 163.636364 348.375774 
L 168.311688 348.463834 
L 172.987013 348.568411 
L 177.662338 348.62571 
L 182.337662 348.590518 
L 187.012987 348.565056 
L 191.688312 348.841796 
L 196.363636 349.582362 
L 201.038961 350.465096 
L 205.714286 350.986915 
L 210.38961 351.289278 
L 215.064935 351.548057 
L 219.74026 351.581067 
L 224.415584 351.982465 
L 229.090909 352.37761 
L 233.766234 352.262057 
L 238.441558 352.15841 
L 243.116883 352.051014 
L 247.792208 351.930831 
L 252.467532 351.816793 
L 257.142857 351.745547 
L 261.818182 351.672365 
L 266.493506 351.486887 
L 271.168831 351.37001 
L 275.844156 351.334609 
L 280.519481 351.064828 
L 285.194805 350.867982 
L 289.87013 350.9946 
L 294.545455 351.325148 
" clip-path="url(#p00556f231f)" style="fill: none; stroke: #9400d3; stroke-opacity: 0.2; stroke-width: 1.5; stroke-linecap: square"/>
   </g>
   <g id="line2d_19">
    <path d="M 65.454545 344.272291 
L 70.12987 344.423961 
L 74.805195 344.886573 
L 79.480519 345.494245 
L 84.155844 345.985673 
L 88.831169 345.714089 
L 93.506494 345.929084 
L 98.181818 345.639227 
L 102.857143 345.332969 
L 107.532468 345.205615 
L 112.207792 345.417376 
L 116.883117 345.286612 
L 121.558442 345.2248 
L 126.233766 345.423606 
L 130.909091 345.624826 
L 135.584416 345.544303 
L 140.25974 345.495668 
L 144.935065 345.648009 
L 149.61039 345.735821 
L 154.285714 345.86439 
L 158.961039 345.990767 
L 163.636364 346.172829 
L 168.311688 346.102424 
L 172.987013 345.884862 
L 177.662338 345.674529 
L 182.337662 345.49731 
L 187.012987 345.438172 
L 191.688312 345.326706 
L 196.363636 345.318101 
L 201.038961 345.340025 
L 205.714286 345.552445 
L 210.38961 345.551112 
L 215.064935 345.42554 
L 219.74026 345.324538 
L 224.415584 345.01614 
L 229.090909 344.560015 
L 233.766234 344.371198 
L 238.441558 344.507633 
L 243.116883 344.796574 
L 247.792208 345.282864 
L 252.467532 345.487463 
L 257.142857 345.743686 
L 261.818182 345.817041 
L 266.493506 345.830229 
L 271.168831 345.67562 
L 275.844156 345.553297 
L 280.519481 345.495782 
L 285.194805 345.323736 
L 289.87013 345.25864 
L 294.545455 345.291581 
" clip-path="url(#p00556f231f)" style="fill: none; stroke: #9400d3; stroke-opacity: 0.2; stroke-width: 1.5; stroke-linecap: square"/>
   </g>
   <g id="line2d_20">
    <path d="M 65.454545 340.942443 
L 70.12987 340.039291 
L 74.805195 339.173536 
L 79.480519 337.006521 
L 84.155844 336.086808 
L 88.831169 336.296077 
L 93.506494 336.825497 
L 98.181818 336.820837 
L 102.857143 337.583299 
L 107.532468 338.0667 
L 112.207792 338.360979 
L 116.883117 338.160236 
L 121.558442 337.951925 
L 126.233766 337.452669 
L 130.909091 337.505087 
L 135.584416 336.830503 
L 140.25974 336.539648 
L 144.935065 336.254378 
L 149.61039 336.345998 
L 154.285714 336.775211 
L 158.961039 336.882119 
L 163.636364 337.884447 
L 168.311688 338.86284 
L 172.987013 339.811274 
L 177.662338 340.057608 
L 182.337662 340.255666 
L 187.012987 340.060581 
L 191.688312 340.187574 
L 196.363636 340.71581 
L 201.038961 341.259933 
L 205.714286 341.054177 
L 210.38961 339.876626 
L 215.064935 339.035866 
L 219.74026 338.483916 
L 224.415584 338.265984 
L 229.090909 338.251396 
L 233.766234 338.565248 
L 238.441558 338.640654 
L 243.116883 338.942664 
L 247.792208 339.747248 
L 252.467532 340.463303 
L 257.142857 340.880137 
L 261.818182 341.503734 
L 266.493506 342.159133 
L 271.168831 342.177989 
L 275.844156 342.229207 
L 280.519481 342.108386 
L 285.194805 341.307168 
L 289.87013 340.803769 
L 294.545455 340.525562 
" clip-path="url(#p00556f231f)" style="fill: none; stroke: #9400d3; stroke-opacity: 0.2; stroke-width: 1.5; stroke-linecap: square"/>
   </g>
   <g id="line2d_21">
    <path d="M 65.454545 340.332876 
L 70.12987 339.722359 
L 74.805195 338.945605 
L 79.480519 338.817242 
L 84.155844 339.181324 
L 88.831169 339.857718 
L 93.506494 340.815858 
L 98.181818 341.006128 
L 102.857143 340.666627 
L 107.532468 340.09793 
L 112.207792 340.195351 
L 116.883117 340.985988 
L 121.558442 341.796385 
L 126.233766 342.67209 
L 130.909091 343.029285 
L 135.584416 343.109964 
L 140.25974 343.292898 
L 144.935065 343.156964 
L 149.61039 342.534217 
L 154.285714 342.305834 
L 158.961039 342.111761 
L 163.636364 342.355707 
L 168.311688 342.794204 
L 172.987013 342.82626 
L 177.662338 343.031893 
L 182.337662 343.246273 
L 187.012987 343.268033 
L 191.688312 343.833127 
L 196.363636 344.312503 
L 201.038961 344.622301 
L 205.714286 344.765674 
L 210.38961 344.954372 
L 215.064935 345.298542 
L 219.74026 345.432605 
L 224.415584 345.716576 
L 229.090909 346.12849 
L 233.766234 346.557069 
L 238.441558 346.880622 
L 243.116883 347.110889 
L 247.792208 347.303651 
L 252.467532 347.322387 
L 257.142857 347.290434 
L 261.818182 347.221527 
L 266.493506 347.292931 
L 271.168831 347.065339 
L 275.844156 346.532335 
L 280.519481 346.073696 
L 285.194805 345.845792 
L 289.87013 346.668244 
L 294.545455 347.72368 
" clip-path="url(#p00556f231f)" style="fill: none; stroke: #9400d3; stroke-opacity: 0.2; stroke-width: 1.5; stroke-linecap: square"/>
   </g>
   <g id="line2d_22">
    <path d="M 111.272727 382.628571 
L 111.272727 308.571429 
" clip-path="url(#p00556f231f)" style="fill: none; stroke-dasharray: 5.55,2.4; stroke-dashoffset: 0; stroke: #000000; stroke-width: 1.5"/>
   </g>
   <g id="line2d_23">
    <path d="M 65.454545 345.6 
L 294.545455 345.6 
" clip-path="url(#p00556f231f)" style="fill: none; stroke-dasharray: 5.55,2.4; stroke-dashoffset: 0; stroke: #000000; stroke-width: 1.5"/>
   </g>
   <g id="patch_3">
    <path d="M 50 388.8 
L 50 302.4 
" style="fill: none; stroke: #000000; stroke-width: 0.8; stroke-linejoin: miter; stroke-linecap: square"/>
   </g>
   <g id="patch_4">
    <path d="M 54 392.8 
L 306 392.8 
" style="fill: none; stroke: #000000; stroke-width: 0.8; stroke-linejoin: miter; stroke-linecap: square"/>
   </g>
   <g id="text_12">
    <!-- all depths -->
    <g transform="translate(150.492188 296.4) scale(0.12 -0.12)">
     <defs>
      <path id="DejaVuSans-70" d="M 1159 525 
L 1159 -1331 
L 581 -1331 
L 581 3500 
L 1159 3500 
L 1159 2969 
Q 1341 3281 1617 3432 
Q 1894 3584 2278 3584 
Q 2916 3584 3314 3078 
Q 3713 2572 3713 1747 
Q 3713 922 3314 415 
Q 2916 -91 2278 -91 
Q 1894 -91 1617 61 
Q 1341 213 1159 525 
z
M 3116 1747 
Q 3116 2381 2855 2742 
Q 2594 3103 2138 3103 
Q 1681 3103 1420 2742 
Q 1159 2381 1159 1747 
Q 1159 1113 1420 752 
Q 1681 391 2138 391 
Q 2594 391 2855 752 
Q 3116 1113 3116 1747 
z
" transform="scale(0.015625)"/>
     </defs>
     <use xlink:href="#DejaVuSans-61"/>
     <use xlink:href="#DejaVuSans-6c" x="61.279297"/>
     <use xlink:href="#DejaVuSans-6c" x="89.0625"/>
     <use xlink:href="#DejaVuSans-20" x="116.845703"/>
     <use xlink:href="#DejaVuSans-64" x="148.632812"/>
     <use xlink:href="#DejaVuSans-65" x="212.109375"/>
     <use xlink:href="#DejaVuSans-70" x="273.632812"/>
     <use xlink:href="#DejaVuSans-74" x="337.109375"/>
     <use xlink:href="#DejaVuSans-68" x="376.318359"/>
     <use xlink:href="#DejaVuSans-73" x="439.697266"/>
    </g>
   </g>
   <g id="legend_1">
    <g id="patch_5">
     <path d="M 107.771875 325.35625 
L 299 325.35625 
Q 301 325.35625 301 323.35625 
L 301 309.4 
Q 301 307.4 299 307.4 
L 107.771875 307.4 
Q 105.771875 307.4 105.771875 309.4 
L 105.771875 323.35625 
Q 105.771875 325.35625 107.771875 325.35625 
z
" style="fill: #ffffff; opacity: 0.8; stroke: #cccccc; stroke-linejoin: miter"/>
    </g>
    <g id="line2d_24">
     <path d="M 109.771875 315.498437 
L 119.771875 315.498437 
L 129.771875 315.498437 
" style="fill: none; stroke: #9400d3; stroke-width: 1.5; stroke-linecap: square"/>
    </g>
    <g id="text_13">
     <!-- V23_superficial_deveined_iso90 -->
     <g transform="translate(137.771875 318.998437) scale(0.1 -0.1)">
      <defs>
       <path id="DejaVuSans-56" d="M 1831 0 
L 50 4666 
L 709 4666 
L 2188 738 
L 3669 4666 
L 4325 4666 
L 2547 0 
L 1831 0 
z
" transform="scale(0.015625)"/>
       <path id="DejaVuSans-5f" d="M 3263 -1063 
L 3263 -1509 
L -63 -1509 
L -63 -1063 
L 3263 -1063 
z
" transform="scale(0.015625)"/>
       <path id="DejaVuSans-75" d="M 544 1381 
L 544 3500 
L 1119 3500 
L 1119 1403 
Q 1119 906 1312 657 
Q 1506 409 1894 409 
Q 2359 409 2629 706 
Q 2900 1003 2900 1516 
L 2900 3500 
L 3475 3500 
L 3475 0 
L 2900 0 
L 2900 538 
Q 2691 219 2414 64 
Q 2138 -91 1772 -91 
Q 1169 -91 856 284 
Q 544 659 544 1381 
z
M 1991 3584 
L 1991 3584 
z
" transform="scale(0.015625)"/>
       <path id="DejaVuSans-39" d="M 703 97 
L 703 672 
Q 941 559 1184 500 
Q 1428 441 1663 441 
Q 2288 441 2617 861 
Q 2947 1281 2994 2138 
Q 2813 1869 2534 1725 
Q 2256 1581 1919 1581 
Q 1219 1581 811 2004 
Q 403 2428 403 3163 
Q 403 3881 828 4315 
Q 1253 4750 1959 4750 
Q 2769 4750 3195 4129 
Q 3622 3509 3622 2328 
Q 3622 1225 3098 567 
Q 2575 -91 1691 -91 
Q 1453 -91 1209 -44 
Q 966 3 703 97 
z
M 1959 2075 
Q 2384 2075 2632 2365 
Q 2881 2656 2881 3163 
Q 2881 3666 2632 3958 
Q 2384 4250 1959 4250 
Q 1534 4250 1286 3958 
Q 1038 3666 1038 3163 
Q 1038 2656 1286 2365 
Q 1534 2075 1959 2075 
z
" transform="scale(0.015625)"/>
      </defs>
      <use xlink:href="#DejaVuSans-56"/>
      <use xlink:href="#DejaVuSans-32" x="68.408203"/>
      <use xlink:href="#DejaVuSans-33" x="132.03125"/>
      <use xlink:href="#DejaVuSans-5f" x="195.654297"/>
      <use xlink:href="#DejaVuSans-73" x="245.654297"/>
      <use xlink:href="#DejaVuSans-75" x="297.753906"/>
      <use xlink:href="#DejaVuSans-70" x="361.132812"/>
      <use xlink:href="#DejaVuSans-65" x="424.609375"/>
      <use xlink:href="#DejaVuSans-72" x="486.132812"/>
      <use xlink:href="#DejaVuSans-66" x="527.246094"/>
      <use xlink:href="#DejaVuSans-69" x="562.451172"/>
      <use xlink:href="#DejaVuSans-63" x="590.234375"/>
      <use xlink:href="#DejaVuSans-69" x="645.214844"/>
      <use xlink:href="#DejaVuSans-61" x="672.998047"/>
      <use xlink:href="#DejaVuSans-6c" x="734.277344"/>
      <use xlink:href="#DejaVuSans-5f" x="762.060547"/>
      <use xlink:href="#DejaVuSans-64" x="812.060547"/>
      <use xlink:href="#DejaVuSans-65" x="875.537109"/>
      <use xlink:href="#DejaVuSans-76" x="937.060547"/>
      <use xlink:href="#DejaVuSans-65" x="996.240234"/>
      <use xlink:href="#DejaVuSans-69" x="1057.763672"/>
      <use xlink:href="#DejaVuSans-6e" x="1085.546875"/>
      <use xlink:href="#DejaVuSans-65" x="1148.925781"/>
      <use xlink:href="#DejaVuSans-64" x="1210.449219"/>
      <use xlink:href="#DejaVuSans-5f" x="1273.925781"/>
      <use xlink:href="#DejaVuSans-69" x="1323.925781"/>
      <use xlink:href="#DejaVuSans-73" x="1351.708984"/>
      <use xlink:href="#DejaVuSans-6f" x="1403.808594"/>
      <use xlink:href="#DejaVuSans-39" x="1464.990234"/>
      <use xlink:href="#DejaVuSans-30" x="1528.613281"/>
     </g>
    </g>
   </g>
  </g>
 </g>
 <defs>
  <clipPath id="p00556f231f">
   <rect x="54" y="302.4" width="252" height="86.4"/>
  </clipPath>
 </defs>
</svg>
