<?xml version="1.0" encoding="utf-8" standalone="no"?>
<!DOCTYPE svg PUBLIC "-//W3C//DTD SVG 1.1//EN"
  "http://www.w3.org/Graphics/SVG/1.1/DTD/svg11.dtd">
<svg xmlns:xlink="http://www.w3.org/1999/xlink" width="360pt" height="432pt" viewBox="0 0 360 432" xmlns="http://www.w3.org/2000/svg" version="1.1">
 <metadata>
  <rdf:RDF xmlns:dc="http://purl.org/dc/elements/1.1/" xmlns:cc="http://creativecommons.org/ns#" xmlns:rdf="http://www.w3.org/1999/02/22-rdf-syntax-ns#">
   <cc:Work>
    <dc:type rdf:resource="http://purl.org/dc/dcmitype/StillImage"/>
    <dc:date>2025-10-31T15:45:50.427704</dc:date>
    <dc:format>image/svg+xml</dc:format>
    <dc:creator>
     <cc:Agent>
      <dc:title>Matplotlib v3.8.0, https://matplotlib.org/</dc:title>
     </cc:Agent>
    </dc:creator>
   </cc:Work>
  </rdf:RDF>
 </metadata>
 <defs>
  <style type="text/css">*{stroke-linejoin: round; stroke-linecap: butt}</style>
 </defs>
 <g id="figure_1">
  <g id="patch_1">
   <path d="M 0 432 
L 360 432 
L 360 0 
L 0 0 
z
" style="fill: #ffffff"/>
  </g>
  <g id="axes_1">
   <g id="patch_2">
    <path d="M 54 388.8 
L 306 388.8 
L 306 302.4 
L 54 302.4 
z
" style="fill: #ffffff"/>
   </g>
   <g id="PolyCollection_1">
    <defs>
     <path id="m7636212761" d="M 65.454545 -88.282128 
L 65.454545 -86.438597 
L 70.12987 -86.63006 
L 74.805195 -86.708048 
L 79.480519 -86.785338 
L 84.155844 -86.799692 
L 88.831169 -86.492674 
L 93.506494 -86.13607 
L 98.181818 -86.142475 
L 102.857143 -86.051712 
L 107.532468 -86.019202 
L 112.207792 -85.921744 
L 116.883117 -85.545436 
L 121.558442 -85.022359 
L 126.233766 -85.075937 
L 130.909091 -84.817556 
L 135.584416 -84.712996 
L 140.25974 -84.970438 
L 144.935065 -85.396379 
L 149.61039 -85.734081 
L 154.285714 -85.737987 
L 158.961039 -85.970093 
L 163.636364 -85.752615 
L 168.311688 -85.444978 
L 172.987013 -85.196555 
L 177.662338 -84.933409 
L 182.337662 -84.771904 
L 187.012987 -84.864895 
L 191.688312 -84.818377 
L 196.363636 -84.579998 
L 201.038961 -84.443377 
L 205.714286 -84.356823 
L 210.38961 -84.236383 
L 215.064935 -83.932355 
L 219.74026 -83.722265 
L 224.415584 -83.675112 
L 229.090909 -83.575631 
L 233.766234 -83.272606 
L 238.441558 -83.039203 
L 243.116883 -83.175949 
L 247.792208 -83.321923 
L 252.467532 -83.278265 
L 257.142857 -83.339047 
L 261.818182 -83.451093 
L 266.493506 -83.678824 
L 271.168831 -83.801611 
L 275.844156 -83.863949 
L 280.519481 -83.889958 
L 285.194805 -84.164704 
L 289.87013 -83.908 
L 294.545455 -83.435694 
L 294.545455 -86.250193 
L 294.545455 -86.250193 
L 289.87013 -86.504034 
L 285.194805 -86.667883 
L 280.519481 -86.488689 
L 275.844156 -86.450224 
L 271.168831 -86.515907 
L 266.493506 -86.661788 
L 261.818182 -86.662116 
L 257.142857 -86.691262 
L 252.467532 -86.718255 
L 247.792208 -86.652067 
L 243.116883 -86.232864 
L 238.441558 -85.847828 
L 233.766234 -85.802535 
L 229.090909 -85.94487 
L 224.415584 -85.986264 
L 219.74026 -86.094039 
L 215.064935 -86.237364 
L 210.38961 -86.429926 
L 205.714286 -86.716517 
L 201.038961 -86.908735 
L 196.363636 -86.932982 
L 191.688312 -86.993825 
L 187.012987 -87.090171 
L 182.337662 -87.146874 
L 177.662338 -87.325327 
L 172.987013 -87.591395 
L 168.311688 -87.717396 
L 163.636364 -87.883654 
L 158.961039 -87.898044 
L 154.285714 -87.653374 
L 149.61039 -87.560266 
L 144.935065 -87.276551 
L 140.25974 -86.88125 
L 135.584416 -86.665536 
L 130.909091 -86.855789 
L 126.233766 -87.329345 
L 121.558442 -87.454843 
L 116.883117 -87.896152 
L 112.207792 -88.117703 
L 107.532468 -88.08638 
L 102.857143 -88.147038 
L 98.181818 -88.378675 
L 93.506494 -88.545748 
L 88.831169 -89.278658 
L 84.155844 -89.868082 
L 79.480519 -89.607157 
L 74.805195 -88.758899 
L 70.12987 -88.547345 
L 65.454545 -88.282128 
z
" style="stroke: #9400d3; stroke-opacity: 0.4"/>
    </defs>
    <g clip-path="url(#p53c293c581)">
     <use xlink:href="#m7636212761" x="0" y="432" style="fill: #9400d3; fill-opacity: 0.4; stroke: #9400d3; stroke-opacity: 0.4"/>
    </g>
   </g>
   <g id="matplotlib.axis_1">
    <g id="xtick_1">
     <g id="line2d_1">
      <defs>
       <path id="m4ed8c6d3ee" d="M 0 0 
L 0 3.5 
" style="stroke: #000000; stroke-width: 0.8"/>
      </defs>
      <g>
       <use xlink:href="#m4ed8c6d3ee" x="65.454545" y="392.8" style="stroke: #000000; stroke-width: 0.8"/>
      </g>
     </g>
     <g id="text_1">
      <!-- 0 -->
      <g transform="translate(62.273295 407.398438) scale(0.1 -0.1)">
       <defs>
        <path id="DejaVuSans-30" d="M 2034 4250 
Q 1547 4250 1301 3770 
Q 1056 3291 1056 2328 
Q 1056 1369 1301 889 
Q 1547 409 2034 409 
Q 2525 409 2770 889 
Q 3016 1369 3016 2328 
Q 3016 3291 2770 3770 
Q 2525 4250 2034 4250 
z
M 2034 4750 
Q 2819 4750 3233 4129 
Q 3647 3509 3647 2328 
Q 3647 1150 3233 529 
Q 2819 -91 2034 -91 
Q 1250 -91 836 529 
Q 422 1150 422 2328 
Q 422 3509 836 4129 
Q 1250 4750 2034 4750 
z
" transform="scale(0.015625)"/>
       </defs>
       <use xlink:href="#DejaVuSans-30"/>
      </g>
     </g>
    </g>
    <g id="xtick_2">
     <g id="line2d_2">
      <g>
       <use xlink:href="#m4ed8c6d3ee" x="111.272727" y="392.8" style="stroke: #000000; stroke-width: 0.8"/>
      </g>
     </g>
     <g id="text_2">
      <!-- 1 -->
      <g transform="translate(108.091477 407.398438) scale(0.1 -0.1)">
       <defs>
        <path id="DejaVuSans-31" d="M 794 531 
L 1825 531 
L 1825 4091 
L 703 3866 
L 703 4441 
L 1819 4666 
L 2450 4666 
L 2450 531 
L 3481 531 
L 3481 0 
L 794 0 
L 794 531 
z
" transform="scale(0.015625)"/>
       </defs>
       <use xlink:href="#DejaVuSans-31"/>
      </g>
     </g>
    </g>
    <g id="xtick_3">
     <g id="line2d_3">
      <g>
       <use xlink:href="#m4ed8c6d3ee" x="157.090909" y="392.8" style="stroke: #000000; stroke-width: 0.8"/>
      </g>
     </g>
     <g id="text_3">
      <!-- 2 -->
      <g transform="translate(153.909659 407.398438) scale(0.1 -0.1)">
       <defs>
        <path id="DejaVuSans-32" d="M 1228 531 
L 3431 531 
L 3431 0 
L 469 0 
L 469 531 
Q 828 903 1448 1529 
Q 2069 2156 2228 2338 
Q 2531 2678 2651 2914 
Q 2772 3150 2772 3378 
Q 2772 3750 2511 3984 
Q 2250 4219 1831 4219 
Q 1534 4219 1204 4116 
Q 875 4013 500 3803 
L 500 4441 
Q 881 4594 1212 4672 
Q 1544 4750 1819 4750 
Q 2544 4750 2975 4387 
Q 3406 4025 3406 3419 
Q 3406 3131 3298 2873 
Q 3191 2616 2906 2266 
Q 2828 2175 2409 1742 
Q 1991 1309 1228 531 
z
" transform="scale(0.015625)"/>
       </defs>
       <use xlink:href="#DejaVuSans-32"/>
      </g>
     </g>
    </g>
    <g id="xtick_4">
     <g id="line2d_4">
      <g>
       <use xlink:href="#m4ed8c6d3ee" x="202.909091" y="392.8" style="stroke: #000000; stroke-width: 0.8"/>
      </g>
     </g>
     <g id="text_4">
      <!-- 3 -->
      <g transform="translate(199.727841 407.398438) scale(0.1 -0.1)">
       <defs>
        <path id="DejaVuSans-33" d="M 2597 2516 
Q 3050 2419 3304 2112 
Q 3559 1806 3559 1356 
Q 3559 666 3084 287 
Q 2609 -91 1734 -91 
Q 1441 -91 1130 -33 
Q 819 25 488 141 
L 488 750 
Q 750 597 1062 519 
Q 1375 441 1716 441 
Q 2309 441 2620 675 
Q 2931 909 2931 1356 
Q 2931 1769 2642 2001 
Q 2353 2234 1838 2234 
L 1294 2234 
L 1294 2753 
L 1863 2753 
Q 2328 2753 2575 2939 
Q 2822 3125 2822 3475 
Q 2822 3834 2567 4026 
Q 2313 4219 1838 4219 
Q 1578 4219 1281 4162 
Q 984 4106 628 3988 
L 628 4550 
Q 988 4650 1302 4700 
Q 1616 4750 1894 4750 
Q 2613 4750 3031 4423 
Q 3450 4097 3450 3541 
Q 3450 3153 3228 2886 
Q 3006 2619 2597 2516 
z
" transform="scale(0.015625)"/>
       </defs>
       <use xlink:href="#DejaVuSans-33"/>
      </g>
     </g>
    </g>
    <g id="xtick_5">
     <g id="line2d_5">
      <g>
       <use xlink:href="#m4ed8c6d3ee" x="248.727273" y="392.8" style="stroke: #000000; stroke-width: 0.8"/>
      </g>
     </g>
     <g id="text_5">
      <!-- 4 -->
      <g transform="translate(245.546023 407.398438) scale(0.1 -0.1)">
       <defs>
        <path id="DejaVuSans-34" d="M 2419 4116 
L 825 1625 
L 2419 1625 
L 2419 4116 
z
M 2253 4666 
L 3047 4666 
L 3047 1625 
L 3713 1625 
L 3713 1100 
L 3047 1100 
L 3047 0 
L 2419 0 
L 2419 1100 
L 313 1100 
L 313 1709 
L 2253 4666 
z
" transform="scale(0.015625)"/>
       </defs>
       <use xlink:href="#DejaVuSans-34"/>
      </g>
     </g>
    </g>
    <g id="xtick_6">
     <g id="line2d_6">
      <g>
       <use xlink:href="#m4ed8c6d3ee" x="294.545455" y="392.8" style="stroke: #000000; stroke-width: 0.8"/>
      </g>
     </g>
     <g id="text_6">
      <!-- 5 -->
      <g transform="translate(291.364205 407.398438) scale(0.1 -0.1)">
       <defs>
        <path id="DejaVuSans-35" d="M 691 4666 
L 3169 4666 
L 3169 4134 
L 1269 4134 
L 1269 2991 
Q 1406 3038 1543 3061 
Q 1681 3084 1819 3084 
Q 2600 3084 3056 2656 
Q 3513 2228 3513 1497 
Q 3513 744 3044 326 
Q 2575 -91 1722 -91 
Q 1428 -91 1123 -41 
Q 819 9 494 109 
L 494 744 
Q 775 591 1075 516 
Q 1375 441 1709 441 
Q 2250 441 2565 725 
Q 2881 1009 2881 1497 
Q 2881 1984 2565 2268 
Q 2250 2553 1709 2553 
Q 1456 2553 1204 2497 
Q 953 2441 691 2322 
L 691 4666 
z
" transform="scale(0.015625)"/>
       </defs>
       <use xlink:href="#DejaVuSans-35"/>
      </g>
     </g>
    </g>
    <g id="text_7">
     <!-- relative distance from ROI center ($\sigma$) -->
     <g transform="translate(106.48 419.556875) scale(0.08 -0.08)">
      <defs>
       <path id="DejaVuSans-72" d="M 2631 2963 
Q 2534 3019 2420 3045 
Q 2306 3072 2169 3072 
Q 1681 3072 1420 2755 
Q 1159 2438 1159 1844 
L 1159 0 
L 581 0 
L 581 3500 
L 1159 3500 
L 1159 2956 
Q 1341 3275 1631 3429 
Q 1922 3584 2338 3584 
Q 2397 3584 2469 3576 
Q 2541 3569 2628 3553 
L 2631 2963 
z
" transform="scale(0.015625)"/>
       <path id="DejaVuSans-65" d="M 3597 1894 
L 3597 1613 
L 953 1613 
Q 991 1019 1311 708 
Q 1631 397 2203 397 
Q 2534 397 2845 478 
Q 3156 559 3463 722 
L 3463 178 
Q 3153 47 2828 -22 
Q 2503 -91 2169 -91 
Q 1331 -91 842 396 
Q 353 884 353 1716 
Q 353 2575 817 3079 
Q 1281 3584 2069 3584 
Q 2775 3584 3186 3129 
Q 3597 2675 3597 1894 
z
M 3022 2063 
Q 3016 2534 2758 2815 
Q 2500 3097 2075 3097 
Q 1594 3097 1305 2825 
Q 1016 2553 972 2059 
L 3022 2063 
z
" transform="scale(0.015625)"/>
       <path id="DejaVuSans-6c" d="M 603 4863 
L 1178 4863 
L 1178 0 
L 603 0 
L 603 4863 
z
" transform="scale(0.015625)"/>
       <path id="DejaVuSans-61" d="M 2194 1759 
Q 1497 1759 1228 1600 
Q 959 1441 959 1056 
Q 959 750 1161 570 
Q 1363 391 1709 391 
Q 2188 391 2477 730 
Q 2766 1069 2766 1631 
L 2766 1759 
L 2194 1759 
z
M 3341 1997 
L 3341 0 
L 2766 0 
L 2766 531 
Q 2569 213 2275 61 
Q 1981 -91 1556 -91 
Q 1019 -91 701 211 
Q 384 513 384 1019 
Q 384 1609 779 1909 
Q 1175 2209 1959 2209 
L 2766 2209 
L 2766 2266 
Q 2766 2663 2505 2880 
Q 2244 3097 1772 3097 
Q 1472 3097 1187 3025 
Q 903 2953 641 2809 
L 641 3341 
Q 956 3463 1253 3523 
Q 1550 3584 1831 3584 
Q 2591 3584 2966 3190 
Q 3341 2797 3341 1997 
z
" transform="scale(0.015625)"/>
       <path id="DejaVuSans-74" d="M 1172 4494 
L 1172 3500 
L 2356 3500 
L 2356 3053 
L 1172 3053 
L 1172 1153 
Q 1172 725 1289 603 
Q 1406 481 1766 481 
L 2356 481 
L 2356 0 
L 1766 0 
Q 1100 0 847 248 
Q 594 497 594 1153 
L 594 3053 
L 172 3053 
L 172 3500 
L 594 3500 
L 594 4494 
L 1172 4494 
z
" transform="scale(0.015625)"/>
       <path id="DejaVuSans-69" d="M 603 3500 
L 1178 3500 
L 1178 0 
L 603 0 
L 603 3500 
z
M 603 4863 
L 1178 4863 
L 1178 4134 
L 603 4134 
L 603 4863 
z
" transform="scale(0.015625)"/>
       <path id="DejaVuSans-76" d="M 191 3500 
L 800 3500 
L 1894 563 
L 2988 3500 
L 3597 3500 
L 2284 0 
L 1503 0 
L 191 3500 
z
" transform="scale(0.015625)"/>
       <path id="DejaVuSans-20" transform="scale(0.015625)"/>
       <path id="DejaVuSans-64" d="M 2906 2969 
L 2906 4863 
L 3481 4863 
L 3481 0 
L 2906 0 
L 2906 525 
Q 2725 213 2448 61 
Q 2172 -91 1784 -91 
Q 1150 -91 751 415 
Q 353 922 353 1747 
Q 353 2572 751 3078 
Q 1150 3584 1784 3584 
Q 2172 3584 2448 3432 
Q 2725 3281 2906 2969 
z
M 947 1747 
Q 947 1113 1208 752 
Q 1469 391 1925 391 
Q 2381 391 2643 752 
Q 2906 1113 2906 1747 
Q 2906 2381 2643 2742 
Q 2381 3103 1925 3103 
Q 1469 3103 1208 2742 
Q 947 2381 947 1747 
z
" transform="scale(0.015625)"/>
       <path id="DejaVuSans-73" d="M 2834 3397 
L 2834 2853 
Q 2591 2978 2328 3040 
Q 2066 3103 1784 3103 
Q 1356 3103 1142 2972 
Q 928 2841 928 2578 
Q 928 2378 1081 2264 
Q 1234 2150 1697 2047 
L 1894 2003 
Q 2506 1872 2764 1633 
Q 3022 1394 3022 966 
Q 3022 478 2636 193 
Q 2250 -91 1575 -91 
Q 1294 -91 989 -36 
Q 684 19 347 128 
L 347 722 
Q 666 556 975 473 
Q 1284 391 1588 391 
Q 1994 391 2212 530 
Q 2431 669 2431 922 
Q 2431 1156 2273 1281 
Q 2116 1406 1581 1522 
L 1381 1569 
Q 847 1681 609 1914 
Q 372 2147 372 2553 
Q 372 3047 722 3315 
Q 1072 3584 1716 3584 
Q 2034 3584 2315 3537 
Q 2597 3491 2834 3397 
z
" transform="scale(0.015625)"/>
       <path id="DejaVuSans-6e" d="M 3513 2113 
L 3513 0 
L 2938 0 
L 2938 2094 
Q 2938 2591 2744 2837 
Q 2550 3084 2163 3084 
Q 1697 3084 1428 2787 
Q 1159 2491 1159 1978 
L 1159 0 
L 581 0 
L 581 3500 
L 1159 3500 
L 1159 2956 
Q 1366 3272 1645 3428 
Q 1925 3584 2291 3584 
Q 2894 3584 3203 3211 
Q 3513 2838 3513 2113 
z
" transform="scale(0.015625)"/>
       <path id="DejaVuSans-63" d="M 3122 3366 
L 3122 2828 
Q 2878 2963 2633 3030 
Q 2388 3097 2138 3097 
Q 1578 3097 1268 2742 
Q 959 2388 959 1747 
Q 959 1106 1268 751 
Q 1578 397 2138 397 
Q 2388 397 2633 464 
Q 2878 531 3122 666 
L 3122 134 
Q 2881 22 2623 -34 
Q 2366 -91 2075 -91 
Q 1284 -91 818 406 
Q 353 903 353 1747 
Q 353 2603 823 3093 
Q 1294 3584 2113 3584 
Q 2378 3584 2631 3529 
Q 2884 3475 3122 3366 
z
" transform="scale(0.015625)"/>
       <path id="DejaVuSans-66" d="M 2375 4863 
L 2375 4384 
L 1825 4384 
Q 1516 4384 1395 4259 
Q 1275 4134 1275 3809 
L 1275 3500 
L 2222 3500 
L 2222 3053 
L 1275 3053 
L 1275 0 
L 697 0 
L 697 3053 
L 147 3053 
L 147 3500 
L 697 3500 
L 697 3744 
Q 697 4328 969 4595 
Q 1241 4863 1831 4863 
L 2375 4863 
z
" transform="scale(0.015625)"/>
       <path id="DejaVuSans-6f" d="M 1959 3097 
Q 1497 3097 1228 2736 
Q 959 2375 959 1747 
Q 959 1119 1226 758 
Q 1494 397 1959 397 
Q 2419 397 2687 759 
Q 2956 1122 2956 1747 
Q 2956 2369 2687 2733 
Q 2419 3097 1959 3097 
z
M 1959 3584 
Q 2709 3584 3137 3096 
Q 3566 2609 3566 1747 
Q 3566 888 3137 398 
Q 2709 -91 1959 -91 
Q 1206 -91 779 398 
Q 353 888 353 1747 
Q 353 2609 779 3096 
Q 1206 3584 1959 3584 
z
" transform="scale(0.015625)"/>
       <path id="DejaVuSans-6d" d="M 3328 2828 
Q 3544 3216 3844 3400 
Q 4144 3584 4550 3584 
Q 5097 3584 5394 3201 
Q 5691 2819 5691 2113 
L 5691 0 
L 5113 0 
L 5113 2094 
Q 5113 2597 4934 2840 
Q 4756 3084 4391 3084 
Q 3944 3084 3684 2787 
Q 3425 2491 3425 1978 
L 3425 0 
L 2847 0 
L 2847 2094 
Q 2847 2600 2669 2842 
Q 2491 3084 2119 3084 
Q 1678 3084 1418 2786 
Q 1159 2488 1159 1978 
L 1159 0 
L 581 0 
L 581 3500 
L 1159 3500 
L 1159 2956 
Q 1356 3278 1631 3431 
Q 1906 3584 2284 3584 
Q 2666 3584 2933 3390 
Q 3200 3197 3328 2828 
z
" transform="scale(0.015625)"/>
       <path id="DejaVuSans-52" d="M 2841 2188 
Q 3044 2119 3236 1894 
Q 3428 1669 3622 1275 
L 4263 0 
L 3584 0 
L 2988 1197 
Q 2756 1666 2539 1819 
Q 2322 1972 1947 1972 
L 1259 1972 
L 1259 0 
L 628 0 
L 628 4666 
L 2053 4666 
Q 2853 4666 3247 4331 
Q 3641 3997 3641 3322 
Q 3641 2881 3436 2590 
Q 3231 2300 2841 2188 
z
M 1259 4147 
L 1259 2491 
L 2053 2491 
Q 2509 2491 2742 2702 
Q 2975 2913 2975 3322 
Q 2975 3731 2742 3939 
Q 2509 4147 2053 4147 
L 1259 4147 
z
" transform="scale(0.015625)"/>
       <path id="DejaVuSans-4f" d="M 2522 4238 
Q 1834 4238 1429 3725 
Q 1025 3213 1025 2328 
Q 1025 1447 1429 934 
Q 1834 422 2522 422 
Q 3209 422 3611 934 
Q 4013 1447 4013 2328 
Q 4013 3213 3611 3725 
Q 3209 4238 2522 4238 
z
M 2522 4750 
Q 3503 4750 4090 4092 
Q 4678 3434 4678 2328 
Q 4678 1225 4090 567 
Q 3503 -91 2522 -91 
Q 1538 -91 948 565 
Q 359 1222 359 2328 
Q 359 3434 948 4092 
Q 1538 4750 2522 4750 
z
" transform="scale(0.015625)"/>
       <path id="DejaVuSans-49" d="M 628 4666 
L 1259 4666 
L 1259 0 
L 628 0 
L 628 4666 
z
" transform="scale(0.015625)"/>
       <path id="DejaVuSans-28" d="M 1984 4856 
Q 1566 4138 1362 3434 
Q 1159 2731 1159 2009 
Q 1159 1288 1364 580 
Q 1569 -128 1984 -844 
L 1484 -844 
Q 1016 -109 783 600 
Q 550 1309 550 2009 
Q 550 2706 781 3412 
Q 1013 4119 1484 4856 
L 1984 4856 
z
" transform="scale(0.015625)"/>
       <path id="DejaVuSans-Oblique-3c3" d="M 2219 3044 
Q 1744 3044 1422 2700 
Q 1081 2341 969 1747 
Q 844 1119 1044 756 
Q 1241 397 1706 397 
Q 2166 397 2503 759 
Q 2844 1122 2966 1747 
Q 3075 2319 2881 2700 
Q 2700 3044 2219 3044 
z
M 2309 3503 
L 4219 3500 
L 4106 2925 
L 3463 2925 
Q 3706 2438 3575 1747 
Q 3406 888 2884 400 
Q 2359 -91 1609 -91 
Q 856 -91 525 400 
Q 194 888 363 1747 
Q 528 2609 1050 3097 
Q 1484 3503 2309 3503 
z
" transform="scale(0.015625)"/>
       <path id="DejaVuSans-29" d="M 513 4856 
L 1013 4856 
Q 1481 4119 1714 3412 
Q 1947 2706 1947 2009 
Q 1947 1309 1714 600 
Q 1481 -109 1013 -844 
L 513 -844 
Q 928 -128 1133 580 
Q 1338 1288 1338 2009 
Q 1338 2731 1133 3434 
Q 928 4138 513 4856 
z
" transform="scale(0.015625)"/>
      </defs>
      <use xlink:href="#DejaVuSans-72" transform="translate(0 0.015625)"/>
      <use xlink:href="#DejaVuSans-65" transform="translate(41.113281 0.015625)"/>
      <use xlink:href="#DejaVuSans-6c" transform="translate(102.636719 0.015625)"/>
      <use xlink:href="#DejaVuSans-61" transform="translate(130.419922 0.015625)"/>
      <use xlink:href="#DejaVuSans-74" transform="translate(191.699219 0.015625)"/>
      <use xlink:href="#DejaVuSans-69" transform="translate(230.908203 0.015625)"/>
      <use xlink:href="#DejaVuSans-76" transform="translate(258.691406 0.015625)"/>
      <use xlink:href="#DejaVuSans-65" transform="translate(317.871094 0.015625)"/>
      <use xlink:href="#DejaVuSans-20" transform="translate(379.394531 0.015625)"/>
      <use xlink:href="#DejaVuSans-64" transform="translate(411.181641 0.015625)"/>
      <use xlink:href="#DejaVuSans-69" transform="translate(474.658203 0.015625)"/>
      <use xlink:href="#DejaVuSans-73" transform="translate(502.441406 0.015625)"/>
      <use xlink:href="#DejaVuSans-74" transform="translate(554.541016 0.015625)"/>
      <use xlink:href="#DejaVuSans-61" transform="translate(593.75 0.015625)"/>
      <use xlink:href="#DejaVuSans-6e" transform="translate(655.029297 0.015625)"/>
      <use xlink:href="#DejaVuSans-63" transform="translate(718.408203 0.015625)"/>
      <use xlink:href="#DejaVuSans-65" transform="translate(773.388672 0.015625)"/>
      <use xlink:href="#DejaVuSans-20" transform="translate(834.912109 0.015625)"/>
      <use xlink:href="#DejaVuSans-66" transform="translate(866.699219 0.015625)"/>
      <use xlink:href="#DejaVuSans-72" transform="translate(901.904297 0.015625)"/>
      <use xlink:href="#DejaVuSans-6f" transform="translate(943.017578 0.015625)"/>
      <use xlink:href="#DejaVuSans-6d" transform="translate(1004.199219 0.015625)"/>
      <use xlink:href="#DejaVuSans-20" transform="translate(1101.611328 0.015625)"/>
      <use xlink:href="#DejaVuSans-52" transform="translate(1133.398438 0.015625)"/>
      <use xlink:href="#DejaVuSans-4f" transform="translate(1202.880859 0.015625)"/>
      <use xlink:href="#DejaVuSans-49" transform="translate(1281.591797 0.015625)"/>
      <use xlink:href="#DejaVuSans-20" transform="translate(1311.083984 0.015625)"/>
      <use xlink:href="#DejaVuSans-63" transform="translate(1342.871094 0.015625)"/>
      <use xlink:href="#DejaVuSans-65" transform="translate(1397.851562 0.015625)"/>
      <use xlink:href="#DejaVuSans-6e" transform="translate(1459.375 0.015625)"/>
      <use xlink:href="#DejaVuSans-74" transform="translate(1522.753906 0.015625)"/>
      <use xlink:href="#DejaVuSans-65" transform="translate(1561.962891 0.015625)"/>
      <use xlink:href="#DejaVuSans-72" transform="translate(1623.486328 0.015625)"/>
      <use xlink:href="#DejaVuSans-20" transform="translate(1664.599609 0.015625)"/>
      <use xlink:href="#DejaVuSans-28" transform="translate(1696.386719 0.015625)"/>
      <use xlink:href="#DejaVuSans-Oblique-3c3" transform="translate(1735.400391 0.015625)"/>
      <use xlink:href="#DejaVuSans-29" transform="translate(1798.779297 0.015625)"/>
     </g>
    </g>
   </g>
   <g id="matplotlib.axis_2">
    <g id="ytick_1">
     <g id="line2d_7">
      <defs>
       <path id="mc16abd3f4f" d="M 0 0 
L -3.5 0 
" style="stroke: #000000; stroke-width: 0.8"/>
      </defs>
      <g>
       <use xlink:href="#mc16abd3f4f" x="50" y="376.457143" style="stroke: #000000; stroke-width: 0.8"/>
      </g>
     </g>
     <g id="text_8">
      <!-- −5 -->
      <g transform="translate(28.257812 380.256362) scale(0.1 -0.1)">
       <defs>
        <path id="DejaVuSans-2212" d="M 678 2272 
L 4684 2272 
L 4684 1741 
L 678 1741 
L 678 2272 
z
" transform="scale(0.015625)"/>
       </defs>
       <use xlink:href="#DejaVuSans-2212"/>
       <use xlink:href="#DejaVuSans-35" x="83.789062"/>
      </g>
     </g>
    </g>
    <g id="ytick_2">
     <g id="line2d_8">
      <g>
       <use xlink:href="#mc16abd3f4f" x="50" y="345.6" style="stroke: #000000; stroke-width: 0.8"/>
      </g>
     </g>
     <g id="text_9">
      <!-- 0 -->
      <g transform="translate(36.6375 349.399219) scale(0.1 -0.1)">
       <use xlink:href="#DejaVuSans-30"/>
      </g>
     </g>
    </g>
    <g id="ytick_3">
     <g id="line2d_9">
      <g>
       <use xlink:href="#mc16abd3f4f" x="50" y="314.742857" style="stroke: #000000; stroke-width: 0.8"/>
      </g>
     </g>
     <g id="text_10">
      <!-- 5 -->
      <g transform="translate(36.6375 318.542076) scale(0.1 -0.1)">
       <use xlink:href="#DejaVuSans-35"/>
      </g>
     </g>
    </g>
    <g id="text_11">
     <!-- BOLD % change -->
     <g transform="translate(22.594062 377.79625) rotate(-90) scale(0.08 -0.08)">
      <defs>
       <path id="DejaVuSans-42" d="M 1259 2228 
L 1259 519 
L 2272 519 
Q 2781 519 3026 730 
Q 3272 941 3272 1375 
Q 3272 1813 3026 2020 
Q 2781 2228 2272 2228 
L 1259 2228 
z
M 1259 4147 
L 1259 2741 
L 2194 2741 
Q 2656 2741 2882 2914 
Q 3109 3088 3109 3444 
Q 3109 3797 2882 3972 
Q 2656 4147 2194 4147 
L 1259 4147 
z
M 628 4666 
L 2241 4666 
Q 2963 4666 3353 4366 
Q 3744 4066 3744 3513 
Q 3744 3084 3544 2831 
Q 3344 2578 2956 2516 
Q 3422 2416 3680 2098 
Q 3938 1781 3938 1306 
Q 3938 681 3513 340 
Q 3088 0 2303 0 
L 628 0 
L 628 4666 
z
" transform="scale(0.015625)"/>
       <path id="DejaVuSans-4c" d="M 628 4666 
L 1259 4666 
L 1259 531 
L 3531 531 
L 3531 0 
L 628 0 
L 628 4666 
z
" transform="scale(0.015625)"/>
       <path id="DejaVuSans-44" d="M 1259 4147 
L 1259 519 
L 2022 519 
Q 2988 519 3436 956 
Q 3884 1394 3884 2338 
Q 3884 3275 3436 3711 
Q 2988 4147 2022 4147 
L 1259 4147 
z
M 628 4666 
L 1925 4666 
Q 3281 4666 3915 4102 
Q 4550 3538 4550 2338 
Q 4550 1131 3912 565 
Q 3275 0 1925 0 
L 628 0 
L 628 4666 
z
" transform="scale(0.015625)"/>
       <path id="DejaVuSans-25" d="M 4653 2053 
Q 4381 2053 4226 1822 
Q 4072 1591 4072 1178 
Q 4072 772 4226 539 
Q 4381 306 4653 306 
Q 4919 306 5073 539 
Q 5228 772 5228 1178 
Q 5228 1588 5073 1820 
Q 4919 2053 4653 2053 
z
M 4653 2450 
Q 5147 2450 5437 2106 
Q 5728 1763 5728 1178 
Q 5728 594 5436 251 
Q 5144 -91 4653 -91 
Q 4153 -91 3862 251 
Q 3572 594 3572 1178 
Q 3572 1766 3864 2108 
Q 4156 2450 4653 2450 
z
M 1428 4353 
Q 1159 4353 1004 4120 
Q 850 3888 850 3481 
Q 850 3069 1003 2837 
Q 1156 2606 1428 2606 
Q 1700 2606 1854 2837 
Q 2009 3069 2009 3481 
Q 2009 3884 1853 4118 
Q 1697 4353 1428 4353 
z
M 4250 4750 
L 4750 4750 
L 1831 -91 
L 1331 -91 
L 4250 4750 
z
M 1428 4750 
Q 1922 4750 2215 4408 
Q 2509 4066 2509 3481 
Q 2509 2891 2217 2550 
Q 1925 2209 1428 2209 
Q 931 2209 642 2551 
Q 353 2894 353 3481 
Q 353 4063 643 4406 
Q 934 4750 1428 4750 
z
" transform="scale(0.015625)"/>
       <path id="DejaVuSans-68" d="M 3513 2113 
L 3513 0 
L 2938 0 
L 2938 2094 
Q 2938 2591 2744 2837 
Q 2550 3084 2163 3084 
Q 1697 3084 1428 2787 
Q 1159 2491 1159 1978 
L 1159 0 
L 581 0 
L 581 4863 
L 1159 4863 
L 1159 2956 
Q 1366 3272 1645 3428 
Q 1925 3584 2291 3584 
Q 2894 3584 3203 3211 
Q 3513 2838 3513 2113 
z
" transform="scale(0.015625)"/>
       <path id="DejaVuSans-67" d="M 2906 1791 
Q 2906 2416 2648 2759 
Q 2391 3103 1925 3103 
Q 1463 3103 1205 2759 
Q 947 2416 947 1791 
Q 947 1169 1205 825 
Q 1463 481 1925 481 
Q 2391 481 2648 825 
Q 2906 1169 2906 1791 
z
M 3481 434 
Q 3481 -459 3084 -895 
Q 2688 -1331 1869 -1331 
Q 1566 -1331 1297 -1286 
Q 1028 -1241 775 -1147 
L 775 -588 
Q 1028 -725 1275 -790 
Q 1522 -856 1778 -856 
Q 2344 -856 2625 -561 
Q 2906 -266 2906 331 
L 2906 616 
Q 2728 306 2450 153 
Q 2172 0 1784 0 
Q 1141 0 747 490 
Q 353 981 353 1791 
Q 353 2603 747 3093 
Q 1141 3584 1784 3584 
Q 2172 3584 2450 3431 
Q 2728 3278 2906 2969 
L 2906 3500 
L 3481 3500 
L 3481 434 
z
" transform="scale(0.015625)"/>
      </defs>
      <use xlink:href="#DejaVuSans-42"/>
      <use xlink:href="#DejaVuSans-4f" x="66.853516"/>
      <use xlink:href="#DejaVuSans-4c" x="145.564453"/>
      <use xlink:href="#DejaVuSans-44" x="201.277344"/>
      <use xlink:href="#DejaVuSans-20" x="278.279297"/>
      <use xlink:href="#DejaVuSans-25" x="310.066406"/>
      <use xlink:href="#DejaVuSans-20" x="405.085938"/>
      <use xlink:href="#DejaVuSans-63" x="436.873047"/>
      <use xlink:href="#DejaVuSans-68" x="491.853516"/>
      <use xlink:href="#DejaVuSans-61" x="555.232422"/>
      <use xlink:href="#DejaVuSans-6e" x="616.511719"/>
      <use xlink:href="#DejaVuSans-67" x="679.890625"/>
      <use xlink:href="#DejaVuSans-65" x="743.367188"/>
     </g>
    </g>
   </g>
   <g id="line2d_10">
    <path d="M 65.454545 344.639638 
L 70.12987 344.411297 
L 74.805195 344.266527 
L 79.480519 343.803752 
L 84.155844 343.666113 
L 88.831169 344.114334 
L 93.506494 344.659091 
L 98.181818 344.739425 
L 102.857143 344.900625 
L 107.532468 344.947209 
L 112.207792 344.980277 
L 116.883117 345.279206 
L 121.558442 345.761399 
L 126.233766 345.797359 
L 130.909091 346.163327 
L 135.584416 346.310734 
L 140.25974 346.074156 
L 144.935065 345.663535 
L 149.61039 345.352827 
L 154.285714 345.30432 
L 158.961039 345.065932 
L 163.636364 345.181866 
L 168.311688 345.418813 
L 172.987013 345.606025 
L 177.662338 345.870632 
L 182.337662 346.040611 
L 187.012987 346.022467 
L 191.688312 346.093899 
L 196.363636 346.24351 
L 201.038961 346.323944 
L 205.714286 346.46333 
L 210.38961 346.666846 
L 215.064935 346.91514 
L 219.74026 347.091848 
L 224.415584 347.169312 
L 229.090909 347.23975 
L 233.766234 347.462429 
L 238.441558 347.556484 
L 243.116883 347.295594 
L 247.792208 347.013005 
L 252.467532 347.00174 
L 257.142857 346.984846 
L 261.818182 346.943396 
L 266.493506 346.829694 
L 271.168831 346.841241 
L 275.844156 346.842913 
L 280.519481 346.810677 
L 285.194805 346.583707 
L 289.87013 346.793983 
L 294.545455 347.157056 
" clip-path="url(#p53c293c581)" style="fill: none; stroke: #9400d3; stroke-width: 1.5; stroke-linecap: square"/>
   </g>
   <g id="line2d_11">
    <path d="M 65.454545 344.997883 
L 70.12987 345.452887 
L 74.805195 345.698571 
L 79.480519 346.222156 
L 84.155844 347.607512 
L 88.831169 349.032431 
L 93.506494 349.722737 
L 98.181818 349.935278 
L 102.857143 349.073804 
L 107.532468 347.455867 
L 112.207792 346.241489 
L 116.883117 345.086141 
L 121.558442 344.327329 
L 126.233766 343.854456 
L 130.909091 344.317597 
L 135.584416 344.663599 
L 140.25974 344.589228 
L 144.935065 344.452663 
L 149.61039 344.097486 
L 154.285714 344.146161 
L 158.961039 343.501811 
L 163.636364 342.930611 
L 168.311688 342.522456 
L 172.987013 342.608591 
L 177.662338 342.791074 
L 182.337662 343.167813 
L 187.012987 343.486532 
L 191.688312 344.245963 
L 196.363636 343.646161 
L 201.038961 342.577712 
L 205.714286 342.086668 
L 210.38961 342.44925 
L 215.064935 342.164288 
L 219.74026 341.746002 
L 224.415584 341.665075 
L 229.090909 341.510137 
L 233.766234 341.559197 
L 238.441558 341.128051 
L 243.116883 340.071228 
L 247.792208 339.341871 
L 252.467532 339.512437 
L 257.142857 339.989344 
L 261.818182 340.058309 
L 266.493506 340.809721 
L 271.168831 342.43163 
L 275.844156 344.697669 
L 280.519481 346.39451 
L 285.194805 347.523491 
L 289.87013 349.116432 
L 294.545455 350.545277 
" clip-path="url(#p53c293c581)" style="fill: none; stroke: #9400d3; stroke-opacity: 0.2; stroke-width: 1.5; stroke-linecap: square"/>
   </g>
   <g id="line2d_12">
    <path d="M 65.454545 347.879857 
L 70.12987 347.879857 
L 74.805195 348.330557 
L 79.480519 348.451612 
L 84.155844 347.549158 
L 88.831169 346.437897 
L 93.506494 345.066081 
L 98.181818 343.668563 
L 102.857143 342.88923 
L 107.532468 342.378012 
L 112.207792 342.033976 
L 116.883117 342.797973 
L 121.558442 343.498494 
L 126.233766 343.133585 
L 130.909091 342.787266 
L 135.584416 342.678216 
L 140.25974 342.341832 
L 144.935065 341.848196 
L 149.61039 341.538235 
L 154.285714 341.120598 
L 158.961039 340.68046 
L 163.636364 339.811798 
L 168.311688 339.321272 
L 172.987013 339.210702 
L 177.662338 339.301883 
L 182.337662 339.369289 
L 187.012987 339.403541 
L 191.688312 339.300233 
L 196.363636 339.503943 
L 201.038961 340.125698 
L 205.714286 340.672457 
L 210.38961 341.422505 
L 215.064935 342.002232 
L 219.74026 342.066125 
L 224.415584 341.740426 
L 229.090909 341.394689 
L 233.766234 341.200301 
L 238.441558 340.947755 
L 243.116883 340.908721 
L 247.792208 340.508155 
L 252.467532 340.203131 
L 257.142857 340.389184 
L 261.818182 340.739793 
L 266.493506 340.408451 
L 271.168831 339.865694 
L 275.844156 338.943893 
L 280.519481 338.117909 
L 285.194805 337.866257 
L 289.87013 337.980495 
L 294.545455 338.201238 
" clip-path="url(#p53c293c581)" style="fill: none; stroke: #9400d3; stroke-opacity: 0.2; stroke-width: 1.5; stroke-linecap: square"/>
   </g>
   <g id="line2d_13">
    <path d="M 65.454545 346.187934 
L 70.12987 346.102819 
L 74.805195 345.921904 
L 79.480519 345.842127 
L 84.155844 345.629585 
L 88.831169 345.173233 
L 93.506494 345.136742 
L 98.181818 345.302186 
L 102.857143 345.022275 
L 107.532468 345.292768 
L 112.207792 345.442461 
L 116.883117 346.096665 
L 121.558442 347.138205 
L 126.233766 347.444333 
L 130.909091 347.762602 
L 135.584416 347.976103 
L 140.25974 348.206611 
L 144.935065 348.529156 
L 149.61039 349.07401 
L 154.285714 349.532723 
L 158.961039 349.626627 
L 163.636364 349.856739 
L 168.311688 349.612775 
L 172.987013 349.352666 
L 177.662338 349.27557 
L 182.337662 349.291807 
L 187.012987 349.720486 
L 191.688312 349.492397 
L 196.363636 349.177516 
L 201.038961 349.064457 
L 205.714286 348.674484 
L 210.38961 348.46668 
L 215.064935 348.209544 
L 219.74026 348.417302 
L 224.415584 348.396871 
L 229.090909 348.692282 
L 233.766234 349.059654 
L 238.441558 349.433845 
L 243.116883 349.089412 
L 247.792208 348.535494 
L 252.467532 348.233327 
L 257.142857 348.454525 
L 261.818182 348.374893 
L 266.493506 347.756717 
L 271.168831 347.44386 
L 275.844156 346.749181 
L 280.519481 345.171444 
L 285.194805 343.78273 
L 289.87013 343.906517 
L 294.545455 344.125399 
" clip-path="url(#p53c293c581)" style="fill: none; stroke: #9400d3; stroke-opacity: 0.2; stroke-width: 1.5; stroke-linecap: square"/>
   </g>
   <g id="line2d_14">
    <path d="M 65.454545 347.943508 
L 70.12987 347.943508 
L 74.805195 347.875115 
L 79.480519 347.651464 
L 84.155844 347.596863 
L 88.831169 346.836525 
L 93.506494 345.469742 
L 98.181818 344.673465 
L 102.857143 344.581753 
L 107.532468 344.285939 
L 112.207792 344.186111 
L 116.883117 343.838909 
L 121.558442 343.536493 
L 126.233766 343.217697 
L 130.909091 343.298399 
L 135.584416 343.318527 
L 140.25974 343.758909 
L 144.935065 344.261151 
L 149.61039 344.901149 
L 154.285714 345.572086 
L 158.961039 346.105647 
L 163.636364 346.912481 
L 168.311688 347.53349 
L 172.987013 347.835564 
L 177.662338 348.146327 
L 182.337662 348.336909 
L 187.012987 348.093947 
L 191.688312 347.668502 
L 196.363636 347.30999 
L 201.038961 347.069586 
L 205.714286 346.868753 
L 210.38961 346.82549 
L 215.064935 347.082962 
L 219.74026 347.663854 
L 224.415584 348.020902 
L 229.090909 348.376366 
L 233.766234 348.590418 
L 238.441558 348.787129 
L 243.116883 348.852902 
L 247.792208 348.870088 
L 252.467532 348.76565 
L 257.142857 348.399255 
L 261.818182 348.357015 
L 266.493506 348.328736 
L 271.168831 348.249931 
L 275.844156 348.949147 
L 280.519481 349.819353 
L 285.194805 350.143703 
L 289.87013 350.255856 
L 294.545455 350.491534 
" clip-path="url(#p53c293c581)" style="fill: none; stroke: #9400d3; stroke-opacity: 0.2; stroke-width: 1.5; stroke-linecap: square"/>
   </g>
   <g id="line2d_15">
    <path d="M 65.454545 342.702867 
L 70.12987 342.500367 
L 74.805195 339.808416 
L 79.480519 338.282492 
L 84.155844 339.082005 
L 88.831169 341.436277 
L 93.506494 343.495101 
L 98.181818 343.204544 
L 102.857143 341.6031 
L 107.532468 341.305376 
L 112.207792 341.734438 
L 116.883117 342.323399 
L 121.558442 343.042818 
L 126.233766 343.241863 
L 130.909091 343.443418 
L 135.584416 343.732549 
L 140.25974 343.408153 
L 144.935065 343.240153 
L 149.61039 342.818649 
L 154.285714 342.223862 
L 158.961039 342.01207 
L 163.636364 342.579038 
L 168.311688 343.552713 
L 172.987013 343.798153 
L 177.662338 344.604589 
L 182.337662 345.798833 
L 187.012987 346.211092 
L 191.688312 346.388553 
L 196.363636 346.761392 
L 201.038961 346.943216 
L 205.714286 346.955641 
L 210.38961 346.617017 
L 215.064935 345.9873 
L 219.74026 345.818745 
L 224.415584 346.039496 
L 229.090909 345.980201 
L 233.766234 346.151889 
L 238.441558 345.299087 
L 243.116883 344.078559 
L 247.792208 342.771535 
L 252.467532 342.960116 
L 257.142857 343.248366 
L 261.818182 343.707884 
L 266.493506 344.471596 
L 271.168831 345.340468 
L 275.844156 346.01897 
L 280.519481 346.451734 
L 285.194805 346.676759 
L 289.87013 346.768886 
L 294.545455 346.609181 
" clip-path="url(#p53c293c581)" style="fill: none; stroke: #9400d3; stroke-opacity: 0.2; stroke-width: 1.5; stroke-linecap: square"/>
   </g>
   <g id="line2d_16">
    <path d="M 65.454545 348.738749 
L 70.12987 347.483354 
L 74.805195 345.426742 
L 79.480519 344.112762 
L 84.155844 342.117571 
L 88.831169 343.419885 
L 93.506494 346.235903 
L 98.181818 348.177691 
L 102.857143 351.650007 
L 107.532468 353.634424 
L 112.207792 354.739306 
L 116.883117 355.487003 
L 121.558442 355.992424 
L 126.233766 354.10453 
L 130.909091 352.645978 
L 135.584416 351.754203 
L 140.25974 350.814446 
L 144.935065 350.214568 
L 149.61039 348.762327 
L 154.285714 347.934444 
L 158.961039 347.190814 
L 163.636364 347.103427 
L 168.311688 347.032403 
L 172.987013 346.829474 
L 177.662338 346.557612 
L 182.337662 346.537944 
L 187.012987 346.467298 
L 191.688312 346.244227 
L 196.363636 345.999776 
L 201.038961 345.930462 
L 205.714286 346.405495 
L 210.38961 346.849669 
L 215.064935 347.780208 
L 219.74026 348.380554 
L 224.415584 348.413956 
L 229.090909 348.10936 
L 233.766234 346.945895 
L 238.441558 346.174291 
L 243.116883 344.868856 
L 247.792208 344.019436 
L 252.467532 344.211395 
L 257.142857 344.656515 
L 261.818182 345.305429 
L 266.493506 346.331224 
L 271.168831 347.55987 
L 275.844156 348.01944 
L 280.519481 348.051176 
L 285.194805 347.448452 
L 289.87013 346.825194 
L 294.545455 345.92849 
" clip-path="url(#p53c293c581)" style="fill: none; stroke: #9400d3; stroke-opacity: 0.2; stroke-width: 1.5; stroke-linecap: square"/>
   </g>
   <g id="line2d_17">
    <path d="M 65.454545 343.078162 
L 70.12987 342.664251 
L 74.805195 343.446623 
L 79.480519 345.038009 
L 84.155844 346.326825 
L 88.831169 347.709096 
L 93.506494 347.888048 
L 98.181818 347.214532 
L 102.857143 346.463703 
L 107.532468 345.950173 
L 112.207792 345.047384 
L 116.883117 344.783824 
L 121.558442 344.720955 
L 126.233766 344.931606 
L 130.909091 345.379713 
L 135.584416 345.136757 
L 140.25974 344.390762 
L 144.935065 343.305414 
L 149.61039 342.346672 
L 154.285714 342.225466 
L 158.961039 342.347719 
L 163.636364 342.561849 
L 168.311688 343.082566 
L 172.987013 344.05233 
L 177.662338 345.180762 
L 182.337662 345.267065 
L 187.012987 344.868667 
L 191.688312 344.61123 
L 196.363636 344.78129 
L 201.038961 344.738633 
L 205.714286 344.970678 
L 210.38961 345.47032 
L 215.064935 345.713763 
L 219.74026 346.237667 
L 224.415584 346.979764 
L 229.090909 347.198341 
L 233.766234 347.817212 
L 238.441558 348.348361 
L 243.116883 347.630532 
L 247.792208 346.725381 
L 252.467532 345.979368 
L 257.142857 344.977792 
L 261.818182 343.950059 
L 266.493506 342.792815 
L 271.168831 342.295417 
L 275.844156 341.802147 
L 280.519481 342.141683 
L 285.194805 342.544586 
L 289.87013 342.650015 
L 294.545455 343.149558 
" clip-path="url(#p53c293c581)" style="fill: none; stroke: #9400d3; stroke-opacity: 0.2; stroke-width: 1.5; stroke-linecap: square"/>
   </g>
   <g id="line2d_18">
    <path d="M 65.454545 342.086851 
L 70.12987 342.975087 
L 74.805195 345.204622 
L 79.480519 345.450242 
L 84.155844 344.619704 
L 88.831169 342.91351 
L 93.506494 342.708285 
L 98.181818 342.294237 
L 102.857143 342.070569 
L 107.532468 341.823352 
L 112.207792 341.82554 
L 116.883117 341.47409 
L 121.558442 341.212586 
L 126.233766 341.160917 
L 130.909091 342.065202 
L 135.584416 342.825329 
L 140.25974 342.499326 
L 144.935065 341.562841 
L 149.61039 341.630153 
L 154.285714 342.040033 
L 158.961039 342.211653 
L 163.636364 342.684627 
L 168.311688 343.214364 
L 172.987013 343.240115 
L 177.662338 343.26035 
L 182.337662 342.986546 
L 187.012987 343.136836 
L 191.688312 343.222592 
L 196.363636 342.869681 
L 201.038961 342.717598 
L 205.714286 343.249638 
L 210.38961 343.621103 
L 215.064935 343.642728 
L 219.74026 343.615792 
L 224.415584 344.156115 
L 229.090909 344.586863 
L 233.766234 344.515114 
L 238.441558 344.33335 
L 243.116883 344.529172 
L 247.792208 344.683952 
L 252.467532 344.340095 
L 257.142857 344.067966 
L 261.818182 344.196026 
L 266.493506 344.175005 
L 271.168831 344.059282 
L 275.844156 343.707499 
L 280.519481 343.160675 
L 285.194805 343.04027 
L 289.87013 343.031179 
L 294.545455 342.828415 
" clip-path="url(#p53c293c581)" style="fill: none; stroke: #9400d3; stroke-opacity: 0.2; stroke-width: 1.5; stroke-linecap: square"/>
   </g>
   <g id="line2d_19">
    <path d="M 65.454545 344.638913 
L 70.12987 344.744309 
L 74.805195 344.984851 
L 79.480519 345.052767 
L 84.155844 345.385259 
L 88.831169 345.570282 
L 93.506494 345.471021 
L 98.181818 345.587848 
L 102.857143 345.231129 
L 107.532468 344.803189 
L 112.207792 344.612261 
L 116.883117 344.804241 
L 121.558442 345.549886 
L 126.233766 345.959395 
L 130.909091 346.28704 
L 135.584416 346.060969 
L 140.25974 345.811287 
L 144.935065 345.597306 
L 149.61039 345.439707 
L 154.285714 345.189795 
L 158.961039 344.967535 
L 163.636364 344.700423 
L 168.311688 344.096735 
L 172.987013 343.518315 
L 177.662338 343.221076 
L 182.337662 342.997764 
L 187.012987 342.927851 
L 191.688312 343.330407 
L 196.363636 343.80865 
L 201.038961 344.128368 
L 205.714286 344.722538 
L 210.38961 345.302181 
L 215.064935 345.72278 
L 219.74026 346.047515 
L 224.415584 346.388222 
L 229.090909 346.878796 
L 233.766234 347.296231 
L 238.441558 347.698738 
L 243.116883 347.861457 
L 247.792208 347.897479 
L 252.467532 348.053101 
L 257.142857 348.55806 
L 261.818182 348.835499 
L 266.493506 349.269316 
L 271.168831 349.589952 
L 275.844156 349.930298 
L 280.519481 350.656872 
L 285.194805 350.875179 
L 289.87013 350.913271 
L 294.545455 351.163356 
" clip-path="url(#p53c293c581)" style="fill: none; stroke: #9400d3; stroke-opacity: 0.2; stroke-width: 1.5; stroke-linecap: square"/>
   </g>
   <g id="line2d_20">
    <path d="M 65.454545 337.632517 
L 70.12987 336.384491 
L 74.805195 335.923222 
L 79.480519 331.249215 
L 84.155844 329.555463 
L 88.831169 331.070139 
L 93.506494 333.420087 
L 98.181818 335.189813 
L 102.857143 338.525002 
L 107.532468 341.155864 
L 112.207792 341.431078 
L 116.883117 341.816628 
L 121.558442 343.499245 
L 126.233766 345.014067 
L 130.909091 348.28326 
L 135.584416 350.183573 
L 140.25974 350.419412 
L 144.935065 349.849223 
L 149.61039 349.886174 
L 154.285714 351.126371 
L 158.961039 351.310674 
L 163.636364 352.585359 
L 168.311688 353.80036 
L 172.987013 354.93339 
L 177.662338 355.13083 
L 182.337662 354.967782 
L 187.012987 353.53953 
L 191.688312 353.252524 
L 196.363636 354.616424 
L 201.038961 355.337619 
L 205.714286 354.444287 
L 210.38961 353.458206 
L 215.064935 353.65943 
L 219.74026 353.176573 
L 224.415584 351.786022 
L 229.090909 350.941807 
L 233.766234 352.666795 
L 238.441558 353.93488 
L 243.116883 355.218612 
L 247.792208 356.886486 
L 252.467532 358.439091 
L 257.142857 358.845566 
L 261.818182 358.532588 
L 266.493506 357.245334 
L 271.168831 355.809452 
L 275.844156 354.355891 
L 280.519481 353.196477 
L 285.194805 350.826916 
L 289.87013 350.038888 
L 294.545455 350.571193 
" clip-path="url(#p53c293c581)" style="fill: none; stroke: #9400d3; stroke-opacity: 0.2; stroke-width: 1.5; stroke-linecap: square"/>
   </g>
   <g id="line2d_21">
    <path d="M 65.454545 345.148771 
L 70.12987 344.393341 
L 74.805195 344.311169 
L 79.480519 344.488429 
L 84.155844 344.857297 
L 88.831169 345.658397 
L 93.506494 346.636258 
L 98.181818 346.885519 
L 102.857143 346.796307 
L 107.532468 346.334334 
L 112.207792 347.488997 
L 116.883117 349.562396 
L 121.558442 350.856954 
L 126.233766 351.708499 
L 130.909091 351.526125 
L 135.584416 351.088246 
L 140.25974 350.575754 
L 144.935065 349.438217 
L 149.61039 348.38653 
L 154.285714 347.235977 
L 158.961039 345.770239 
L 163.636364 345.27417 
L 168.311688 345.837809 
L 172.987013 346.286976 
L 177.662338 347.106879 
L 182.337662 347.724963 
L 187.012987 348.391356 
L 191.688312 349.276262 
L 196.363636 350.203789 
L 201.038961 350.930041 
L 205.714286 352.045991 
L 210.38961 352.852882 
L 215.064935 354.101311 
L 219.74026 354.840201 
L 224.415584 355.275581 
L 229.090909 355.968405 
L 233.766234 356.284019 
L 238.441558 357.035841 
L 243.116883 357.142081 
L 247.792208 356.903174 
L 252.467532 356.321431 
L 257.142857 355.246728 
L 261.818182 354.319859 
L 266.493506 353.537718 
L 271.168831 352.608095 
L 275.844156 352.097913 
L 280.519481 351.755612 
L 285.194805 351.692429 
L 289.87013 353.247082 
L 294.545455 355.113979 
" clip-path="url(#p53c293c581)" style="fill: none; stroke: #9400d3; stroke-opacity: 0.2; stroke-width: 1.5; stroke-linecap: square"/>
   </g>
   <g id="line2d_22">
    <path d="M 111.272727 382.628571 
L 111.272727 308.571429 
" clip-path="url(#p53c293c581)" style="fill: none; stroke-dasharray: 5.55,2.4; stroke-dashoffset: 0; stroke: #000000; stroke-width: 1.5"/>
   </g>
   <g id="line2d_23">
    <path d="M 65.454545 345.6 
L 294.545455 345.6 
" clip-path="url(#p53c293c581)" style="fill: none; stroke-dasharray: 5.55,2.4; stroke-dashoffset: 0; stroke: #000000; stroke-width: 1.5"/>
   </g>
   <g id="patch_3">
    <path d="M 50 388.8 
L 50 302.4 
" style="fill: none; stroke: #000000; stroke-width: 0.8; stroke-linejoin: miter; stroke-linecap: square"/>
   </g>
   <g id="patch_4">
    <path d="M 54 392.8 
L 306 392.8 
" style="fill: none; stroke: #000000; stroke-width: 0.8; stroke-linejoin: miter; stroke-linecap: square"/>
   </g>
   <g id="text_12">
    <!-- all depths -->
    <g transform="translate(150.492188 296.4) scale(0.12 -0.12)">
     <defs>
      <path id="DejaVuSans-70" d="M 1159 525 
L 1159 -1331 
L 581 -1331 
L 581 3500 
L 1159 3500 
L 1159 2969 
Q 1341 3281 1617 3432 
Q 1894 3584 2278 3584 
Q 2916 3584 3314 3078 
Q 3713 2572 3713 1747 
Q 3713 922 3314 415 
Q 2916 -91 2278 -91 
Q 1894 -91 1617 61 
Q 1341 213 1159 525 
z
M 3116 1747 
Q 3116 2381 2855 2742 
Q 2594 3103 2138 3103 
Q 1681 3103 1420 2742 
Q 1159 2381 1159 1747 
Q 1159 1113 1420 752 
Q 1681 391 2138 391 
Q 2594 391 2855 752 
Q 3116 1113 3116 1747 
z
" transform="scale(0.015625)"/>
     </defs>
     <use xlink:href="#DejaVuSans-61"/>
     <use xlink:href="#DejaVuSans-6c" x="61.279297"/>
     <use xlink:href="#DejaVuSans-6c" x="89.0625"/>
     <use xlink:href="#DejaVuSans-20" x="116.845703"/>
     <use xlink:href="#DejaVuSans-64" x="148.632812"/>
     <use xlink:href="#DejaVuSans-65" x="212.109375"/>
     <use xlink:href="#DejaVuSans-70" x="273.632812"/>
     <use xlink:href="#DejaVuSans-74" x="337.109375"/>
     <use xlink:href="#DejaVuSans-68" x="376.318359"/>
     <use xlink:href="#DejaVuSans-73" x="439.697266"/>
    </g>
   </g>
   <g id="legend_1">
    <g id="patch_5">
     <path d="M 112.439062 325.35625 
L 299 325.35625 
Q 301 325.35625 301 323.35625 
L 301 309.4 
Q 301 307.4 299 307.4 
L 112.439062 307.4 
Q 110.439062 307.4 110.439062 309.4 
L 110.439062 323.35625 
Q 110.439062 325.35625 112.439062 325.35625 
z
" style="fill: #ffffff; opacity: 0.8; stroke: #cccccc; stroke-linejoin: miter"/>
    </g>
    <g id="line2d_24">
     <path d="M 114.439062 315.498437 
L 124.439062 315.498437 
L 134.439062 315.498437 
" style="fill: none; stroke: #9400d3; stroke-width: 1.5; stroke-linecap: square"/>
    </g>
    <g id="text_13">
     <!-- V1_tgt_middle_deveined_iso90 -->
     <g transform="translate(142.439062 318.998437) scale(0.1 -0.1)">
      <defs>
       <path id="DejaVuSans-56" d="M 1831 0 
L 50 4666 
L 709 4666 
L 2188 738 
L 3669 4666 
L 4325 4666 
L 2547 0 
L 1831 0 
z
" transform="scale(0.015625)"/>
       <path id="DejaVuSans-5f" d="M 3263 -1063 
L 3263 -1509 
L -63 -1509 
L -63 -1063 
L 3263 -1063 
z
" transform="scale(0.015625)"/>
       <path id="DejaVuSans-39" d="M 703 97 
L 703 672 
Q 941 559 1184 500 
Q 1428 441 1663 441 
Q 2288 441 2617 861 
Q 2947 1281 2994 2138 
Q 2813 1869 2534 1725 
Q 2256 1581 1919 1581 
Q 1219 1581 811 2004 
Q 403 2428 403 3163 
Q 403 3881 828 4315 
Q 1253 4750 1959 4750 
Q 2769 4750 3195 4129 
Q 3622 3509 3622 2328 
Q 3622 1225 3098 567 
Q 2575 -91 1691 -91 
Q 1453 -91 1209 -44 
Q 966 3 703 97 
z
M 1959 2075 
Q 2384 2075 2632 2365 
Q 2881 2656 2881 3163 
Q 2881 3666 2632 3958 
Q 2384 4250 1959 4250 
Q 1534 4250 1286 3958 
Q 1038 3666 1038 3163 
Q 1038 2656 1286 2365 
Q 1534 2075 1959 2075 
z
" transform="scale(0.015625)"/>
      </defs>
      <use xlink:href="#DejaVuSans-56"/>
      <use xlink:href="#DejaVuSans-31" x="68.408203"/>
      <use xlink:href="#DejaVuSans-5f" x="132.03125"/>
      <use xlink:href="#DejaVuSans-74" x="182.03125"/>
      <use xlink:href="#DejaVuSans-67" x="221.240234"/>
      <use xlink:href="#DejaVuSans-74" x="284.716797"/>
      <use xlink:href="#DejaVuSans-5f" x="323.925781"/>
      <use xlink:href="#DejaVuSans-6d" x="373.925781"/>
      <use xlink:href="#DejaVuSans-69" x="471.337891"/>
      <use xlink:href="#DejaVuSans-64" x="499.121094"/>
      <use xlink:href="#DejaVuSans-64" x="562.597656"/>
      <use xlink:href="#DejaVuSans-6c" x="626.074219"/>
      <use xlink:href="#DejaVuSans-65" x="653.857422"/>
      <use xlink:href="#DejaVuSans-5f" x="715.380859"/>
      <use xlink:href="#DejaVuSans-64" x="765.380859"/>
      <use xlink:href="#DejaVuSans-65" x="828.857422"/>
      <use xlink:href="#DejaVuSans-76" x="890.380859"/>
      <use xlink:href="#DejaVuSans-65" x="949.560547"/>
      <use xlink:href="#DejaVuSans-69" x="1011.083984"/>
      <use xlink:href="#DejaVuSans-6e" x="1038.867188"/>
      <use xlink:href="#DejaVuSans-65" x="1102.246094"/>
      <use xlink:href="#DejaVuSans-64" x="1163.769531"/>
      <use xlink:href="#DejaVuSans-5f" x="1227.246094"/>
      <use xlink:href="#DejaVuSans-69" x="1277.246094"/>
      <use xlink:href="#DejaVuSans-73" x="1305.029297"/>
      <use xlink:href="#DejaVuSans-6f" x="1357.128906"/>
      <use xlink:href="#DejaVuSans-39" x="1418.310547"/>
      <use xlink:href="#DejaVuSans-30" x="1481.933594"/>
     </g>
    </g>
   </g>
  </g>
 </g>
 <defs>
  <clipPath id="p53c293c581">
   <rect x="54" y="302.4" width="252" height="86.4"/>
  </clipPath>
 </defs>
</svg>
