<?xml version="1.0" encoding="utf-8" standalone="no"?>
<!DOCTYPE svg PUBLIC "-//W3C//DTD SVG 1.1//EN"
  "http://www.w3.org/Graphics/SVG/1.1/DTD/svg11.dtd">
<svg xmlns:xlink="http://www.w3.org/1999/xlink" width="360pt" height="432pt" viewBox="0 0 360 432" xmlns="http://www.w3.org/2000/svg" version="1.1">
 <metadata>
  <rdf:RDF xmlns:dc="http://purl.org/dc/elements/1.1/" xmlns:cc="http://creativecommons.org/ns#" xmlns:rdf="http://www.w3.org/1999/02/22-rdf-syntax-ns#">
   <cc:Work>
    <dc:type rdf:resource="http://purl.org/dc/dcmitype/StillImage"/>
    <dc:date>2025-10-31T15:45:50.988622</dc:date>
    <dc:format>image/svg+xml</dc:format>
    <dc:creator>
     <cc:Agent>
      <dc:title>Matplotlib v3.8.0, https://matplotlib.org/</dc:title>
     </cc:Agent>
    </dc:creator>
   </cc:Work>
  </rdf:RDF>
 </metadata>
 <defs>
  <style type="text/css">*{stroke-linejoin: round; stroke-linecap: butt}</style>
 </defs>
 <g id="figure_1">
  <g id="patch_1">
   <path d="M 0 432 
L 360 432 
L 360 0 
L 0 0 
z
" style="fill: #ffffff"/>
  </g>
  <g id="axes_1">
   <g id="patch_2">
    <path d="M 54 388.8 
L 306 388.8 
L 306 302.4 
L 54 302.4 
z
" style="fill: #ffffff"/>
   </g>
   <g id="PolyCollection_1">
    <defs>
     <path id="m821580198f" d="M 65.454545 -89.922137 
L 65.454545 -85.613267 
L 70.12987 -85.597858 
L 74.805195 -85.830304 
L 79.480519 -85.934921 
L 84.155844 -86.176363 
L 88.831169 -86.115673 
L 93.506494 -85.824508 
L 98.181818 -85.483984 
L 102.857143 -84.930214 
L 107.532468 -84.656739 
L 112.207792 -84.574356 
L 116.883117 -84.802897 
L 121.558442 -85.062442 
L 126.233766 -85.237254 
L 130.909091 -85.107792 
L 135.584416 -84.961951 
L 140.25974 -84.843191 
L 144.935065 -84.657675 
L 149.61039 -84.654025 
L 154.285714 -84.691904 
L 158.961039 -84.865581 
L 163.636364 -84.811537 
L 168.311688 -84.66279 
L 172.987013 -84.443852 
L 177.662338 -84.240001 
L 182.337662 -84.166918 
L 187.012987 -84.26051 
L 191.688312 -84.493373 
L 196.363636 -84.656237 
L 201.038961 -84.628237 
L 205.714286 -84.675441 
L 210.38961 -84.710254 
L 215.064935 -84.914809 
L 219.74026 -85.168719 
L 224.415584 -85.204419 
L 229.090909 -85.037106 
L 233.766234 -84.691792 
L 238.441558 -84.354757 
L 243.116883 -84.028484 
L 247.792208 -83.876329 
L 252.467532 -83.759622 
L 257.142857 -83.66208 
L 261.818182 -83.838641 
L 266.493506 -84.147972 
L 271.168831 -84.457796 
L 275.844156 -84.733772 
L 280.519481 -84.930359 
L 285.194805 -85.053619 
L 289.87013 -85.239834 
L 294.545455 -85.382544 
L 294.545455 -88.569567 
L 294.545455 -88.569567 
L 289.87013 -88.356745 
L 285.194805 -88.197414 
L 280.519481 -87.966973 
L 275.844156 -87.745797 
L 271.168831 -87.523493 
L 266.493506 -87.212348 
L 261.818182 -86.749206 
L 257.142857 -86.506036 
L 252.467532 -86.554996 
L 247.792208 -86.482786 
L 243.116883 -86.408563 
L 238.441558 -86.506933 
L 233.766234 -86.849011 
L 229.090909 -87.285418 
L 224.415584 -87.646217 
L 219.74026 -87.886488 
L 215.064935 -87.857255 
L 210.38961 -87.789567 
L 205.714286 -87.711158 
L 201.038961 -87.561703 
L 196.363636 -87.33246 
L 191.688312 -86.984278 
L 187.012987 -86.509062 
L 182.337662 -86.269176 
L 177.662338 -86.178504 
L 172.987013 -86.360036 
L 168.311688 -86.74077 
L 163.636364 -87.240103 
L 158.961039 -87.68505 
L 154.285714 -87.751099 
L 149.61039 -87.648648 
L 144.935065 -87.5303 
L 140.25974 -87.436877 
L 135.584416 -87.306349 
L 130.909091 -87.302435 
L 126.233766 -87.375179 
L 121.558442 -87.231794 
L 116.883117 -87.216079 
L 112.207792 -87.272005 
L 107.532468 -87.520474 
L 102.857143 -88.315851 
L 98.181818 -89.50144 
L 93.506494 -90.157218 
L 88.831169 -90.882007 
L 84.155844 -91.216372 
L 79.480519 -90.861912 
L 74.805195 -90.640051 
L 70.12987 -90.18457 
L 65.454545 -89.922137 
z
" style="stroke: #ff0000; stroke-opacity: 0.4"/>
    </defs>
    <g clip-path="url(#pc27b22fe05)">
     <use xlink:href="#m821580198f" x="0" y="432" style="fill: #ff0000; fill-opacity: 0.4; stroke: #ff0000; stroke-opacity: 0.4"/>
    </g>
   </g>
   <g id="matplotlib.axis_1">
    <g id="xtick_1">
     <g id="line2d_1">
      <defs>
       <path id="ma4dbbfa83e" d="M 0 0 
L 0 3.5 
" style="stroke: #000000; stroke-width: 0.8"/>
      </defs>
      <g>
       <use xlink:href="#ma4dbbfa83e" x="65.454545" y="392.8" style="stroke: #000000; stroke-width: 0.8"/>
      </g>
     </g>
     <g id="text_1">
      <!-- 0 -->
      <g transform="translate(62.273295 407.398438) scale(0.1 -0.1)">
       <defs>
        <path id="DejaVuSans-30" d="M 2034 4250 
Q 1547 4250 1301 3770 
Q 1056 3291 1056 2328 
Q 1056 1369 1301 889 
Q 1547 409 2034 409 
Q 2525 409 2770 889 
Q 3016 1369 3016 2328 
Q 3016 3291 2770 3770 
Q 2525 4250 2034 4250 
z
M 2034 4750 
Q 2819 4750 3233 4129 
Q 3647 3509 3647 2328 
Q 3647 1150 3233 529 
Q 2819 -91 2034 -91 
Q 1250 -91 836 529 
Q 422 1150 422 2328 
Q 422 3509 836 4129 
Q 1250 4750 2034 4750 
z
" transform="scale(0.015625)"/>
       </defs>
       <use xlink:href="#DejaVuSans-30"/>
      </g>
     </g>
    </g>
    <g id="xtick_2">
     <g id="line2d_2">
      <g>
       <use xlink:href="#ma4dbbfa83e" x="111.272727" y="392.8" style="stroke: #000000; stroke-width: 0.8"/>
      </g>
     </g>
     <g id="text_2">
      <!-- 1 -->
      <g transform="translate(108.091477 407.398438) scale(0.1 -0.1)">
       <defs>
        <path id="DejaVuSans-31" d="M 794 531 
L 1825 531 
L 1825 4091 
L 703 3866 
L 703 4441 
L 1819 4666 
L 2450 4666 
L 2450 531 
L 3481 531 
L 3481 0 
L 794 0 
L 794 531 
z
" transform="scale(0.015625)"/>
       </defs>
       <use xlink:href="#DejaVuSans-31"/>
      </g>
     </g>
    </g>
    <g id="xtick_3">
     <g id="line2d_3">
      <g>
       <use xlink:href="#ma4dbbfa83e" x="157.090909" y="392.8" style="stroke: #000000; stroke-width: 0.8"/>
      </g>
     </g>
     <g id="text_3">
      <!-- 2 -->
      <g transform="translate(153.909659 407.398438) scale(0.1 -0.1)">
       <defs>
        <path id="DejaVuSans-32" d="M 1228 531 
L 3431 531 
L 3431 0 
L 469 0 
L 469 531 
Q 828 903 1448 1529 
Q 2069 2156 2228 2338 
Q 2531 2678 2651 2914 
Q 2772 3150 2772 3378 
Q 2772 3750 2511 3984 
Q 2250 4219 1831 4219 
Q 1534 4219 1204 4116 
Q 875 4013 500 3803 
L 500 4441 
Q 881 4594 1212 4672 
Q 1544 4750 1819 4750 
Q 2544 4750 2975 4387 
Q 3406 4025 3406 3419 
Q 3406 3131 3298 2873 
Q 3191 2616 2906 2266 
Q 2828 2175 2409 1742 
Q 1991 1309 1228 531 
z
" transform="scale(0.015625)"/>
       </defs>
       <use xlink:href="#DejaVuSans-32"/>
      </g>
     </g>
    </g>
    <g id="xtick_4">
     <g id="line2d_4">
      <g>
       <use xlink:href="#ma4dbbfa83e" x="202.909091" y="392.8" style="stroke: #000000; stroke-width: 0.8"/>
      </g>
     </g>
     <g id="text_4">
      <!-- 3 -->
      <g transform="translate(199.727841 407.398438) scale(0.1 -0.1)">
       <defs>
        <path id="DejaVuSans-33" d="M 2597 2516 
Q 3050 2419 3304 2112 
Q 3559 1806 3559 1356 
Q 3559 666 3084 287 
Q 2609 -91 1734 -91 
Q 1441 -91 1130 -33 
Q 819 25 488 141 
L 488 750 
Q 750 597 1062 519 
Q 1375 441 1716 441 
Q 2309 441 2620 675 
Q 2931 909 2931 1356 
Q 2931 1769 2642 2001 
Q 2353 2234 1838 2234 
L 1294 2234 
L 1294 2753 
L 1863 2753 
Q 2328 2753 2575 2939 
Q 2822 3125 2822 3475 
Q 2822 3834 2567 4026 
Q 2313 4219 1838 4219 
Q 1578 4219 1281 4162 
Q 984 4106 628 3988 
L 628 4550 
Q 988 4650 1302 4700 
Q 1616 4750 1894 4750 
Q 2613 4750 3031 4423 
Q 3450 4097 3450 3541 
Q 3450 3153 3228 2886 
Q 3006 2619 2597 2516 
z
" transform="scale(0.015625)"/>
       </defs>
       <use xlink:href="#DejaVuSans-33"/>
      </g>
     </g>
    </g>
    <g id="xtick_5">
     <g id="line2d_5">
      <g>
       <use xlink:href="#ma4dbbfa83e" x="248.727273" y="392.8" style="stroke: #000000; stroke-width: 0.8"/>
      </g>
     </g>
     <g id="text_5">
      <!-- 4 -->
      <g transform="translate(245.546023 407.398438) scale(0.1 -0.1)">
       <defs>
        <path id="DejaVuSans-34" d="M 2419 4116 
L 825 1625 
L 2419 1625 
L 2419 4116 
z
M 2253 4666 
L 3047 4666 
L 3047 1625 
L 3713 1625 
L 3713 1100 
L 3047 1100 
L 3047 0 
L 2419 0 
L 2419 1100 
L 313 1100 
L 313 1709 
L 2253 4666 
z
" transform="scale(0.015625)"/>
       </defs>
       <use xlink:href="#DejaVuSans-34"/>
      </g>
     </g>
    </g>
    <g id="xtick_6">
     <g id="line2d_6">
      <g>
       <use xlink:href="#ma4dbbfa83e" x="294.545455" y="392.8" style="stroke: #000000; stroke-width: 0.8"/>
      </g>
     </g>
     <g id="text_6">
      <!-- 5 -->
      <g transform="translate(291.364205 407.398438) scale(0.1 -0.1)">
       <defs>
        <path id="DejaVuSans-35" d="M 691 4666 
L 3169 4666 
L 3169 4134 
L 1269 4134 
L 1269 2991 
Q 1406 3038 1543 3061 
Q 1681 3084 1819 3084 
Q 2600 3084 3056 2656 
Q 3513 2228 3513 1497 
Q 3513 744 3044 326 
Q 2575 -91 1722 -91 
Q 1428 -91 1123 -41 
Q 819 9 494 109 
L 494 744 
Q 775 591 1075 516 
Q 1375 441 1709 441 
Q 2250 441 2565 725 
Q 2881 1009 2881 1497 
Q 2881 1984 2565 2268 
Q 2250 2553 1709 2553 
Q 1456 2553 1204 2497 
Q 953 2441 691 2322 
L 691 4666 
z
" transform="scale(0.015625)"/>
       </defs>
       <use xlink:href="#DejaVuSans-35"/>
      </g>
     </g>
    </g>
    <g id="text_7">
     <!-- relative distance from ROI center ($\sigma$) -->
     <g transform="translate(106.48 419.556875) scale(0.08 -0.08)">
      <defs>
       <path id="DejaVuSans-72" d="M 2631 2963 
Q 2534 3019 2420 3045 
Q 2306 3072 2169 3072 
Q 1681 3072 1420 2755 
Q 1159 2438 1159 1844 
L 1159 0 
L 581 0 
L 581 3500 
L 1159 3500 
L 1159 2956 
Q 1341 3275 1631 3429 
Q 1922 3584 2338 3584 
Q 2397 3584 2469 3576 
Q 2541 3569 2628 3553 
L 2631 2963 
z
" transform="scale(0.015625)"/>
       <path id="DejaVuSans-65" d="M 3597 1894 
L 3597 1613 
L 953 1613 
Q 991 1019 1311 708 
Q 1631 397 2203 397 
Q 2534 397 2845 478 
Q 3156 559 3463 722 
L 3463 178 
Q 3153 47 2828 -22 
Q 2503 -91 2169 -91 
Q 1331 -91 842 396 
Q 353 884 353 1716 
Q 353 2575 817 3079 
Q 1281 3584 2069 3584 
Q 2775 3584 3186 3129 
Q 3597 2675 3597 1894 
z
M 3022 2063 
Q 3016 2534 2758 2815 
Q 2500 3097 2075 3097 
Q 1594 3097 1305 2825 
Q 1016 2553 972 2059 
L 3022 2063 
z
" transform="scale(0.015625)"/>
       <path id="DejaVuSans-6c" d="M 603 4863 
L 1178 4863 
L 1178 0 
L 603 0 
L 603 4863 
z
" transform="scale(0.015625)"/>
       <path id="DejaVuSans-61" d="M 2194 1759 
Q 1497 1759 1228 1600 
Q 959 1441 959 1056 
Q 959 750 1161 570 
Q 1363 391 1709 391 
Q 2188 391 2477 730 
Q 2766 1069 2766 1631 
L 2766 1759 
L 2194 1759 
z
M 3341 1997 
L 3341 0 
L 2766 0 
L 2766 531 
Q 2569 213 2275 61 
Q 1981 -91 1556 -91 
Q 1019 -91 701 211 
Q 384 513 384 1019 
Q 384 1609 779 1909 
Q 1175 2209 1959 2209 
L 2766 2209 
L 2766 2266 
Q 2766 2663 2505 2880 
Q 2244 3097 1772 3097 
Q 1472 3097 1187 3025 
Q 903 2953 641 2809 
L 641 3341 
Q 956 3463 1253 3523 
Q 1550 3584 1831 3584 
Q 2591 3584 2966 3190 
Q 3341 2797 3341 1997 
z
" transform="scale(0.015625)"/>
       <path id="DejaVuSans-74" d="M 1172 4494 
L 1172 3500 
L 2356 3500 
L 2356 3053 
L 1172 3053 
L 1172 1153 
Q 1172 725 1289 603 
Q 1406 481 1766 481 
L 2356 481 
L 2356 0 
L 1766 0 
Q 1100 0 847 248 
Q 594 497 594 1153 
L 594 3053 
L 172 3053 
L 172 3500 
L 594 3500 
L 594 4494 
L 1172 4494 
z
" transform="scale(0.015625)"/>
       <path id="DejaVuSans-69" d="M 603 3500 
L 1178 3500 
L 1178 0 
L 603 0 
L 603 3500 
z
M 603 4863 
L 1178 4863 
L 1178 4134 
L 603 4134 
L 603 4863 
z
" transform="scale(0.015625)"/>
       <path id="DejaVuSans-76" d="M 191 3500 
L 800 3500 
L 1894 563 
L 2988 3500 
L 3597 3500 
L 2284 0 
L 1503 0 
L 191 3500 
z
" transform="scale(0.015625)"/>
       <path id="DejaVuSans-20" transform="scale(0.015625)"/>
       <path id="DejaVuSans-64" d="M 2906 2969 
L 2906 4863 
L 3481 4863 
L 3481 0 
L 2906 0 
L 2906 525 
Q 2725 213 2448 61 
Q 2172 -91 1784 -91 
Q 1150 -91 751 415 
Q 353 922 353 1747 
Q 353 2572 751 3078 
Q 1150 3584 1784 3584 
Q 2172 3584 2448 3432 
Q 2725 3281 2906 2969 
z
M 947 1747 
Q 947 1113 1208 752 
Q 1469 391 1925 391 
Q 2381 391 2643 752 
Q 2906 1113 2906 1747 
Q 2906 2381 2643 2742 
Q 2381 3103 1925 3103 
Q 1469 3103 1208 2742 
Q 947 2381 947 1747 
z
" transform="scale(0.015625)"/>
       <path id="DejaVuSans-73" d="M 2834 3397 
L 2834 2853 
Q 2591 2978 2328 3040 
Q 2066 3103 1784 3103 
Q 1356 3103 1142 2972 
Q 928 2841 928 2578 
Q 928 2378 1081 2264 
Q 1234 2150 1697 2047 
L 1894 2003 
Q 2506 1872 2764 1633 
Q 3022 1394 3022 966 
Q 3022 478 2636 193 
Q 2250 -91 1575 -91 
Q 1294 -91 989 -36 
Q 684 19 347 128 
L 347 722 
Q 666 556 975 473 
Q 1284 391 1588 391 
Q 1994 391 2212 530 
Q 2431 669 2431 922 
Q 2431 1156 2273 1281 
Q 2116 1406 1581 1522 
L 1381 1569 
Q 847 1681 609 1914 
Q 372 2147 372 2553 
Q 372 3047 722 3315 
Q 1072 3584 1716 3584 
Q 2034 3584 2315 3537 
Q 2597 3491 2834 3397 
z
" transform="scale(0.015625)"/>
       <path id="DejaVuSans-6e" d="M 3513 2113 
L 3513 0 
L 2938 0 
L 2938 2094 
Q 2938 2591 2744 2837 
Q 2550 3084 2163 3084 
Q 1697 3084 1428 2787 
Q 1159 2491 1159 1978 
L 1159 0 
L 581 0 
L 581 3500 
L 1159 3500 
L 1159 2956 
Q 1366 3272 1645 3428 
Q 1925 3584 2291 3584 
Q 2894 3584 3203 3211 
Q 3513 2838 3513 2113 
z
" transform="scale(0.015625)"/>
       <path id="DejaVuSans-63" d="M 3122 3366 
L 3122 2828 
Q 2878 2963 2633 3030 
Q 2388 3097 2138 3097 
Q 1578 3097 1268 2742 
Q 959 2388 959 1747 
Q 959 1106 1268 751 
Q 1578 397 2138 397 
Q 2388 397 2633 464 
Q 2878 531 3122 666 
L 3122 134 
Q 2881 22 2623 -34 
Q 2366 -91 2075 -91 
Q 1284 -91 818 406 
Q 353 903 353 1747 
Q 353 2603 823 3093 
Q 1294 3584 2113 3584 
Q 2378 3584 2631 3529 
Q 2884 3475 3122 3366 
z
" transform="scale(0.015625)"/>
       <path id="DejaVuSans-66" d="M 2375 4863 
L 2375 4384 
L 1825 4384 
Q 1516 4384 1395 4259 
Q 1275 4134 1275 3809 
L 1275 3500 
L 2222 3500 
L 2222 3053 
L 1275 3053 
L 1275 0 
L 697 0 
L 697 3053 
L 147 3053 
L 147 3500 
L 697 3500 
L 697 3744 
Q 697 4328 969 4595 
Q 1241 4863 1831 4863 
L 2375 4863 
z
" transform="scale(0.015625)"/>
       <path id="DejaVuSans-6f" d="M 1959 3097 
Q 1497 3097 1228 2736 
Q 959 2375 959 1747 
Q 959 1119 1226 758 
Q 1494 397 1959 397 
Q 2419 397 2687 759 
Q 2956 1122 2956 1747 
Q 2956 2369 2687 2733 
Q 2419 3097 1959 3097 
z
M 1959 3584 
Q 2709 3584 3137 3096 
Q 3566 2609 3566 1747 
Q 3566 888 3137 398 
Q 2709 -91 1959 -91 
Q 1206 -91 779 398 
Q 353 888 353 1747 
Q 353 2609 779 3096 
Q 1206 3584 1959 3584 
z
" transform="scale(0.015625)"/>
       <path id="DejaVuSans-6d" d="M 3328 2828 
Q 3544 3216 3844 3400 
Q 4144 3584 4550 3584 
Q 5097 3584 5394 3201 
Q 5691 2819 5691 2113 
L 5691 0 
L 5113 0 
L 5113 2094 
Q 5113 2597 4934 2840 
Q 4756 3084 4391 3084 
Q 3944 3084 3684 2787 
Q 3425 2491 3425 1978 
L 3425 0 
L 2847 0 
L 2847 2094 
Q 2847 2600 2669 2842 
Q 2491 3084 2119 3084 
Q 1678 3084 1418 2786 
Q 1159 2488 1159 1978 
L 1159 0 
L 581 0 
L 581 3500 
L 1159 3500 
L 1159 2956 
Q 1356 3278 1631 3431 
Q 1906 3584 2284 3584 
Q 2666 3584 2933 3390 
Q 3200 3197 3328 2828 
z
" transform="scale(0.015625)"/>
       <path id="DejaVuSans-52" d="M 2841 2188 
Q 3044 2119 3236 1894 
Q 3428 1669 3622 1275 
L 4263 0 
L 3584 0 
L 2988 1197 
Q 2756 1666 2539 1819 
Q 2322 1972 1947 1972 
L 1259 1972 
L 1259 0 
L 628 0 
L 628 4666 
L 2053 4666 
Q 2853 4666 3247 4331 
Q 3641 3997 3641 3322 
Q 3641 2881 3436 2590 
Q 3231 2300 2841 2188 
z
M 1259 4147 
L 1259 2491 
L 2053 2491 
Q 2509 2491 2742 2702 
Q 2975 2913 2975 3322 
Q 2975 3731 2742 3939 
Q 2509 4147 2053 4147 
L 1259 4147 
z
" transform="scale(0.015625)"/>
       <path id="DejaVuSans-4f" d="M 2522 4238 
Q 1834 4238 1429 3725 
Q 1025 3213 1025 2328 
Q 1025 1447 1429 934 
Q 1834 422 2522 422 
Q 3209 422 3611 934 
Q 4013 1447 4013 2328 
Q 4013 3213 3611 3725 
Q 3209 4238 2522 4238 
z
M 2522 4750 
Q 3503 4750 4090 4092 
Q 4678 3434 4678 2328 
Q 4678 1225 4090 567 
Q 3503 -91 2522 -91 
Q 1538 -91 948 565 
Q 359 1222 359 2328 
Q 359 3434 948 4092 
Q 1538 4750 2522 4750 
z
" transform="scale(0.015625)"/>
       <path id="DejaVuSans-49" d="M 628 4666 
L 1259 4666 
L 1259 0 
L 628 0 
L 628 4666 
z
" transform="scale(0.015625)"/>
       <path id="DejaVuSans-28" d="M 1984 4856 
Q 1566 4138 1362 3434 
Q 1159 2731 1159 2009 
Q 1159 1288 1364 580 
Q 1569 -128 1984 -844 
L 1484 -844 
Q 1016 -109 783 600 
Q 550 1309 550 2009 
Q 550 2706 781 3412 
Q 1013 4119 1484 4856 
L 1984 4856 
z
" transform="scale(0.015625)"/>
       <path id="DejaVuSans-Oblique-3c3" d="M 2219 3044 
Q 1744 3044 1422 2700 
Q 1081 2341 969 1747 
Q 844 1119 1044 756 
Q 1241 397 1706 397 
Q 2166 397 2503 759 
Q 2844 1122 2966 1747 
Q 3075 2319 2881 2700 
Q 2700 3044 2219 3044 
z
M 2309 3503 
L 4219 3500 
L 4106 2925 
L 3463 2925 
Q 3706 2438 3575 1747 
Q 3406 888 2884 400 
Q 2359 -91 1609 -91 
Q 856 -91 525 400 
Q 194 888 363 1747 
Q 528 2609 1050 3097 
Q 1484 3503 2309 3503 
z
" transform="scale(0.015625)"/>
       <path id="DejaVuSans-29" d="M 513 4856 
L 1013 4856 
Q 1481 4119 1714 3412 
Q 1947 2706 1947 2009 
Q 1947 1309 1714 600 
Q 1481 -109 1013 -844 
L 513 -844 
Q 928 -128 1133 580 
Q 1338 1288 1338 2009 
Q 1338 2731 1133 3434 
Q 928 4138 513 4856 
z
" transform="scale(0.015625)"/>
      </defs>
      <use xlink:href="#DejaVuSans-72" transform="translate(0 0.015625)"/>
      <use xlink:href="#DejaVuSans-65" transform="translate(41.113281 0.015625)"/>
      <use xlink:href="#DejaVuSans-6c" transform="translate(102.636719 0.015625)"/>
      <use xlink:href="#DejaVuSans-61" transform="translate(130.419922 0.015625)"/>
      <use xlink:href="#DejaVuSans-74" transform="translate(191.699219 0.015625)"/>
      <use xlink:href="#DejaVuSans-69" transform="translate(230.908203 0.015625)"/>
      <use xlink:href="#DejaVuSans-76" transform="translate(258.691406 0.015625)"/>
      <use xlink:href="#DejaVuSans-65" transform="translate(317.871094 0.015625)"/>
      <use xlink:href="#DejaVuSans-20" transform="translate(379.394531 0.015625)"/>
      <use xlink:href="#DejaVuSans-64" transform="translate(411.181641 0.015625)"/>
      <use xlink:href="#DejaVuSans-69" transform="translate(474.658203 0.015625)"/>
      <use xlink:href="#DejaVuSans-73" transform="translate(502.441406 0.015625)"/>
      <use xlink:href="#DejaVuSans-74" transform="translate(554.541016 0.015625)"/>
      <use xlink:href="#DejaVuSans-61" transform="translate(593.75 0.015625)"/>
      <use xlink:href="#DejaVuSans-6e" transform="translate(655.029297 0.015625)"/>
      <use xlink:href="#DejaVuSans-63" transform="translate(718.408203 0.015625)"/>
      <use xlink:href="#DejaVuSans-65" transform="translate(773.388672 0.015625)"/>
      <use xlink:href="#DejaVuSans-20" transform="translate(834.912109 0.015625)"/>
      <use xlink:href="#DejaVuSans-66" transform="translate(866.699219 0.015625)"/>
      <use xlink:href="#DejaVuSans-72" transform="translate(901.904297 0.015625)"/>
      <use xlink:href="#DejaVuSans-6f" transform="translate(943.017578 0.015625)"/>
      <use xlink:href="#DejaVuSans-6d" transform="translate(1004.199219 0.015625)"/>
      <use xlink:href="#DejaVuSans-20" transform="translate(1101.611328 0.015625)"/>
      <use xlink:href="#DejaVuSans-52" transform="translate(1133.398438 0.015625)"/>
      <use xlink:href="#DejaVuSans-4f" transform="translate(1202.880859 0.015625)"/>
      <use xlink:href="#DejaVuSans-49" transform="translate(1281.591797 0.015625)"/>
      <use xlink:href="#DejaVuSans-20" transform="translate(1311.083984 0.015625)"/>
      <use xlink:href="#DejaVuSans-63" transform="translate(1342.871094 0.015625)"/>
      <use xlink:href="#DejaVuSans-65" transform="translate(1397.851562 0.015625)"/>
      <use xlink:href="#DejaVuSans-6e" transform="translate(1459.375 0.015625)"/>
      <use xlink:href="#DejaVuSans-74" transform="translate(1522.753906 0.015625)"/>
      <use xlink:href="#DejaVuSans-65" transform="translate(1561.962891 0.015625)"/>
      <use xlink:href="#DejaVuSans-72" transform="translate(1623.486328 0.015625)"/>
      <use xlink:href="#DejaVuSans-20" transform="translate(1664.599609 0.015625)"/>
      <use xlink:href="#DejaVuSans-28" transform="translate(1696.386719 0.015625)"/>
      <use xlink:href="#DejaVuSans-Oblique-3c3" transform="translate(1735.400391 0.015625)"/>
      <use xlink:href="#DejaVuSans-29" transform="translate(1798.779297 0.015625)"/>
     </g>
    </g>
   </g>
   <g id="matplotlib.axis_2">
    <g id="ytick_1">
     <g id="line2d_7">
      <defs>
       <path id="me21c626b30" d="M 0 0 
L -3.5 0 
" style="stroke: #000000; stroke-width: 0.8"/>
      </defs>
      <g>
       <use xlink:href="#me21c626b30" x="50" y="376.457143" style="stroke: #000000; stroke-width: 0.8"/>
      </g>
     </g>
     <g id="text_8">
      <!-- −5 -->
      <g transform="translate(28.257812 380.256362) scale(0.1 -0.1)">
       <defs>
        <path id="DejaVuSans-2212" d="M 678 2272 
L 4684 2272 
L 4684 1741 
L 678 1741 
L 678 2272 
z
" transform="scale(0.015625)"/>
       </defs>
       <use xlink:href="#DejaVuSans-2212"/>
       <use xlink:href="#DejaVuSans-35" x="83.789062"/>
      </g>
     </g>
    </g>
    <g id="ytick_2">
     <g id="line2d_8">
      <g>
       <use xlink:href="#me21c626b30" x="50" y="345.6" style="stroke: #000000; stroke-width: 0.8"/>
      </g>
     </g>
     <g id="text_9">
      <!-- 0 -->
      <g transform="translate(36.6375 349.399219) scale(0.1 -0.1)">
       <use xlink:href="#DejaVuSans-30"/>
      </g>
     </g>
    </g>
    <g id="ytick_3">
     <g id="line2d_9">
      <g>
       <use xlink:href="#me21c626b30" x="50" y="314.742857" style="stroke: #000000; stroke-width: 0.8"/>
      </g>
     </g>
     <g id="text_10">
      <!-- 5 -->
      <g transform="translate(36.6375 318.542076) scale(0.1 -0.1)">
       <use xlink:href="#DejaVuSans-35"/>
      </g>
     </g>
    </g>
    <g id="text_11">
     <!-- BOLD % change -->
     <g transform="translate(22.594062 377.79625) rotate(-90) scale(0.08 -0.08)">
      <defs>
       <path id="DejaVuSans-42" d="M 1259 2228 
L 1259 519 
L 2272 519 
Q 2781 519 3026 730 
Q 3272 941 3272 1375 
Q 3272 1813 3026 2020 
Q 2781 2228 2272 2228 
L 1259 2228 
z
M 1259 4147 
L 1259 2741 
L 2194 2741 
Q 2656 2741 2882 2914 
Q 3109 3088 3109 3444 
Q 3109 3797 2882 3972 
Q 2656 4147 2194 4147 
L 1259 4147 
z
M 628 4666 
L 2241 4666 
Q 2963 4666 3353 4366 
Q 3744 4066 3744 3513 
Q 3744 3084 3544 2831 
Q 3344 2578 2956 2516 
Q 3422 2416 3680 2098 
Q 3938 1781 3938 1306 
Q 3938 681 3513 340 
Q 3088 0 2303 0 
L 628 0 
L 628 4666 
z
" transform="scale(0.015625)"/>
       <path id="DejaVuSans-4c" d="M 628 4666 
L 1259 4666 
L 1259 531 
L 3531 531 
L 3531 0 
L 628 0 
L 628 4666 
z
" transform="scale(0.015625)"/>
       <path id="DejaVuSans-44" d="M 1259 4147 
L 1259 519 
L 2022 519 
Q 2988 519 3436 956 
Q 3884 1394 3884 2338 
Q 3884 3275 3436 3711 
Q 2988 4147 2022 4147 
L 1259 4147 
z
M 628 4666 
L 1925 4666 
Q 3281 4666 3915 4102 
Q 4550 3538 4550 2338 
Q 4550 1131 3912 565 
Q 3275 0 1925 0 
L 628 0 
L 628 4666 
z
" transform="scale(0.015625)"/>
       <path id="DejaVuSans-25" d="M 4653 2053 
Q 4381 2053 4226 1822 
Q 4072 1591 4072 1178 
Q 4072 772 4226 539 
Q 4381 306 4653 306 
Q 4919 306 5073 539 
Q 5228 772 5228 1178 
Q 5228 1588 5073 1820 
Q 4919 2053 4653 2053 
z
M 4653 2450 
Q 5147 2450 5437 2106 
Q 5728 1763 5728 1178 
Q 5728 594 5436 251 
Q 5144 -91 4653 -91 
Q 4153 -91 3862 251 
Q 3572 594 3572 1178 
Q 3572 1766 3864 2108 
Q 4156 2450 4653 2450 
z
M 1428 4353 
Q 1159 4353 1004 4120 
Q 850 3888 850 3481 
Q 850 3069 1003 2837 
Q 1156 2606 1428 2606 
Q 1700 2606 1854 2837 
Q 2009 3069 2009 3481 
Q 2009 3884 1853 4118 
Q 1697 4353 1428 4353 
z
M 4250 4750 
L 4750 4750 
L 1831 -91 
L 1331 -91 
L 4250 4750 
z
M 1428 4750 
Q 1922 4750 2215 4408 
Q 2509 4066 2509 3481 
Q 2509 2891 2217 2550 
Q 1925 2209 1428 2209 
Q 931 2209 642 2551 
Q 353 2894 353 3481 
Q 353 4063 643 4406 
Q 934 4750 1428 4750 
z
" transform="scale(0.015625)"/>
       <path id="DejaVuSans-68" d="M 3513 2113 
L 3513 0 
L 2938 0 
L 2938 2094 
Q 2938 2591 2744 2837 
Q 2550 3084 2163 3084 
Q 1697 3084 1428 2787 
Q 1159 2491 1159 1978 
L 1159 0 
L 581 0 
L 581 4863 
L 1159 4863 
L 1159 2956 
Q 1366 3272 1645 3428 
Q 1925 3584 2291 3584 
Q 2894 3584 3203 3211 
Q 3513 2838 3513 2113 
z
" transform="scale(0.015625)"/>
       <path id="DejaVuSans-67" d="M 2906 1791 
Q 2906 2416 2648 2759 
Q 2391 3103 1925 3103 
Q 1463 3103 1205 2759 
Q 947 2416 947 1791 
Q 947 1169 1205 825 
Q 1463 481 1925 481 
Q 2391 481 2648 825 
Q 2906 1169 2906 1791 
z
M 3481 434 
Q 3481 -459 3084 -895 
Q 2688 -1331 1869 -1331 
Q 1566 -1331 1297 -1286 
Q 1028 -1241 775 -1147 
L 775 -588 
Q 1028 -725 1275 -790 
Q 1522 -856 1778 -856 
Q 2344 -856 2625 -561 
Q 2906 -266 2906 331 
L 2906 616 
Q 2728 306 2450 153 
Q 2172 0 1784 0 
Q 1141 0 747 490 
Q 353 981 353 1791 
Q 353 2603 747 3093 
Q 1141 3584 1784 3584 
Q 2172 3584 2450 3431 
Q 2728 3278 2906 2969 
L 2906 3500 
L 3481 3500 
L 3481 434 
z
" transform="scale(0.015625)"/>
      </defs>
      <use xlink:href="#DejaVuSans-42"/>
      <use xlink:href="#DejaVuSans-4f" x="66.853516"/>
      <use xlink:href="#DejaVuSans-4c" x="145.564453"/>
      <use xlink:href="#DejaVuSans-44" x="201.277344"/>
      <use xlink:href="#DejaVuSans-20" x="278.279297"/>
      <use xlink:href="#DejaVuSans-25" x="310.066406"/>
      <use xlink:href="#DejaVuSans-20" x="405.085938"/>
      <use xlink:href="#DejaVuSans-63" x="436.873047"/>
      <use xlink:href="#DejaVuSans-68" x="491.853516"/>
      <use xlink:href="#DejaVuSans-61" x="555.232422"/>
      <use xlink:href="#DejaVuSans-6e" x="616.511719"/>
      <use xlink:href="#DejaVuSans-67" x="679.890625"/>
      <use xlink:href="#DejaVuSans-65" x="743.367188"/>
     </g>
    </g>
   </g>
   <g id="line2d_10">
    <path d="M 65.454545 344.232298 
L 70.12987 344.108786 
L 74.805195 343.764823 
L 79.480519 343.601584 
L 84.155844 343.303632 
L 88.831169 343.50116 
L 93.506494 344.009137 
L 98.181818 344.507288 
L 102.857143 345.376968 
L 107.532468 345.911393 
L 112.207792 346.07682 
L 116.883117 345.990512 
L 121.558442 345.852882 
L 126.233766 345.693783 
L 130.909091 345.794887 
L 135.584416 345.86585 
L 140.25974 345.859966 
L 144.935065 345.906012 
L 149.61039 345.848663 
L 154.285714 345.778498 
L 158.961039 345.724684 
L 163.636364 345.97418 
L 168.311688 346.29822 
L 172.987013 346.598056 
L 177.662338 346.790747 
L 182.337662 346.781953 
L 187.012987 346.615214 
L 191.688312 346.261174 
L 196.363636 346.005651 
L 201.038961 345.90503 
L 205.714286 345.8067 
L 210.38961 345.750089 
L 215.064935 345.613968 
L 219.74026 345.472396 
L 224.415584 345.574682 
L 229.090909 345.838738 
L 233.766234 346.229599 
L 238.441558 346.569155 
L 243.116883 346.781477 
L 247.792208 346.820443 
L 252.467532 346.842691 
L 257.142857 346.915942 
L 261.818182 346.706077 
L 266.493506 346.31984 
L 271.168831 346.009356 
L 275.844156 345.760216 
L 280.519481 345.551334 
L 285.194805 345.374483 
L 289.87013 345.201711 
L 294.545455 345.023945 
" clip-path="url(#pc27b22fe05)" style="fill: none; stroke: #ff0000; stroke-width: 1.5; stroke-linecap: square"/>
   </g>
   <g id="line2d_11">
    <path d="M 65.454545 351.063053 
L 70.12987 351.316706 
L 74.805195 351.677168 
L 79.480519 352.213863 
L 84.155844 352.511512 
L 88.831169 353.994109 
L 93.506494 355.128189 
L 98.181818 356.331473 
L 102.857143 357.041378 
L 107.532468 355.816361 
L 112.207792 355.151752 
L 116.883117 353.897303 
L 121.558442 352.920857 
L 126.233766 352.639219 
L 130.909091 352.253094 
L 135.584416 352.066757 
L 140.25974 351.601284 
L 144.935065 350.947329 
L 149.61039 349.953892 
L 154.285714 349.475796 
L 158.961039 348.496428 
L 163.636364 347.958619 
L 168.311688 347.744577 
L 172.987013 347.573191 
L 177.662338 347.241851 
L 182.337662 347.622168 
L 187.012987 347.627357 
L 191.688312 347.009396 
L 196.363636 346.14593 
L 201.038961 346.497217 
L 205.714286 347.209859 
L 210.38961 348.682521 
L 215.064935 349.33264 
L 219.74026 349.124058 
L 224.415584 349.135576 
L 229.090909 348.922996 
L 233.766234 349.765021 
L 238.441558 350.749022 
L 243.116883 351.009541 
L 247.792208 350.334685 
L 252.467532 349.635837 
L 257.142857 348.321216 
L 261.818182 347.195234 
L 266.493506 346.838594 
L 271.168831 346.410834 
L 275.844156 345.706527 
L 280.519481 345.096862 
L 285.194805 344.40124 
L 289.87013 344.428172 
L 294.545455 345.033245 
" clip-path="url(#pc27b22fe05)" style="fill: none; stroke: #ff0000; stroke-opacity: 0.2; stroke-width: 1.5; stroke-linecap: square"/>
   </g>
   <g id="line2d_12">
    <path d="M 65.454545 343.345132 
L 70.12987 343.345132 
L 74.805195 343.601324 
L 79.480519 343.920961 
L 84.155844 344.149748 
L 88.831169 343.799234 
L 93.506494 342.951038 
L 98.181818 341.829553 
L 102.857143 341.234588 
L 107.532468 340.337111 
L 112.207792 339.9097 
L 116.883117 340.444334 
L 121.558442 341.187375 
L 126.233766 341.5678 
L 130.909091 341.862761 
L 135.584416 342.259763 
L 140.25974 342.694646 
L 144.935065 343.074386 
L 149.61039 343.825783 
L 154.285714 344.593307 
L 158.961039 345.333302 
L 163.636364 345.820734 
L 168.311688 345.451586 
L 172.987013 345.347668 
L 177.662338 345.127611 
L 182.337662 344.537518 
L 187.012987 344.238795 
L 191.688312 344.119707 
L 196.363636 344.334016 
L 201.038961 344.163662 
L 205.714286 343.835908 
L 210.38961 343.636348 
L 215.064935 343.927996 
L 219.74026 344.152234 
L 224.415584 344.239392 
L 229.090909 343.885903 
L 233.766234 343.143553 
L 238.441558 342.356106 
L 243.116883 341.934077 
L 247.792208 341.906028 
L 252.467532 341.794178 
L 257.142857 341.226978 
L 261.818182 340.658324 
L 266.493506 339.957308 
L 271.168831 339.468163 
L 275.844156 338.669526 
L 280.519481 338.405025 
L 285.194805 338.142365 
L 289.87013 337.744676 
L 294.545455 337.193584 
" clip-path="url(#pc27b22fe05)" style="fill: none; stroke: #ff0000; stroke-opacity: 0.2; stroke-width: 1.5; stroke-linecap: square"/>
   </g>
   <g id="line2d_13">
    <path d="M 65.454545 349.927042 
L 70.12987 349.460426 
L 74.805195 347.922851 
L 79.480519 346.488217 
L 84.155844 346.016397 
L 88.831169 346.323562 
L 93.506494 346.895811 
L 98.181818 346.955019 
L 102.857143 347.119806 
L 107.532468 347.11939 
L 112.207792 346.900695 
L 116.883117 346.895347 
L 121.558442 347.385409 
L 126.233766 347.821247 
L 130.909091 348.472841 
L 135.584416 348.606046 
L 140.25974 348.808321 
L 144.935065 349.156944 
L 149.61039 349.159838 
L 154.285714 349.005727 
L 158.961039 349.075425 
L 163.636364 349.149161 
L 168.311688 349.118072 
L 172.987013 349.443379 
L 177.662338 349.658972 
L 182.337662 349.99916 
L 187.012987 350.481032 
L 191.688312 350.375512 
L 196.363636 350.11463 
L 201.038961 349.532575 
L 205.714286 348.92053 
L 210.38961 347.77449 
L 215.064935 346.788052 
L 219.74026 346.332372 
L 224.415584 346.23423 
L 229.090909 345.987975 
L 233.766234 346.16884 
L 238.441558 346.298676 
L 243.116883 346.602406 
L 247.792208 346.659089 
L 252.467532 347.155889 
L 257.142857 347.796362 
L 261.818182 347.788635 
L 266.493506 347.462534 
L 271.168831 346.300345 
L 275.844156 345.705677 
L 280.519481 346.043481 
L 285.194805 346.734578 
L 289.87013 347.99336 
L 294.545455 348.569858 
" clip-path="url(#pc27b22fe05)" style="fill: none; stroke: #ff0000; stroke-opacity: 0.2; stroke-width: 1.5; stroke-linecap: square"/>
   </g>
   <g id="line2d_14">
    <path d="M 65.454545 346.737001 
L 70.12987 346.737001 
L 74.805195 346.728846 
L 79.480519 346.898096 
L 84.155844 346.807734 
L 88.831169 346.828583 
L 93.506494 347.570055 
L 98.181818 347.836198 
L 102.857143 347.777679 
L 107.532468 347.276363 
L 112.207792 346.484528 
L 116.883117 345.626486 
L 121.558442 344.613318 
L 126.233766 343.656059 
L 130.909091 342.894248 
L 135.584416 343.111418 
L 140.25974 343.652886 
L 144.935065 344.175451 
L 149.61039 344.314648 
L 154.285714 344.500008 
L 158.961039 344.949222 
L 163.636364 345.348326 
L 168.311688 345.780301 
L 172.987013 346.236958 
L 177.662338 346.271819 
L 182.337662 345.994744 
L 187.012987 345.477493 
L 191.688312 345.343332 
L 196.363636 345.018629 
L 201.038961 344.895106 
L 205.714286 345.090258 
L 210.38961 345.287336 
L 215.064935 345.302564 
L 219.74026 344.724803 
L 224.415584 344.615332 
L 229.090909 344.637273 
L 233.766234 344.559644 
L 238.441558 344.098895 
L 243.116883 343.308075 
L 247.792208 342.811362 
L 252.467532 342.2397 
L 257.142857 341.902663 
L 261.818182 342.018084 
L 266.493506 341.624229 
L 271.168831 341.651462 
L 275.844156 342.241933 
L 280.519481 342.920744 
L 285.194805 343.220673 
L 289.87013 343.144346 
L 294.545455 342.922007 
" clip-path="url(#pc27b22fe05)" style="fill: none; stroke: #ff0000; stroke-opacity: 0.2; stroke-width: 1.5; stroke-linecap: square"/>
   </g>
   <g id="line2d_15">
    <path d="M 65.454545 343.663464 
L 70.12987 343.646881 
L 74.805195 343.539725 
L 79.480519 345.120559 
L 84.155844 345.997414 
L 88.831169 346.095376 
L 93.506494 347.111756 
L 98.181818 347.590886 
L 102.857143 347.853286 
L 107.532468 348.646483 
L 112.207792 349.52275 
L 116.883117 349.622146 
L 121.558442 349.218321 
L 126.233766 349.451103 
L 130.909091 350.229015 
L 135.584416 350.566114 
L 140.25974 350.493537 
L 144.935065 350.855378 
L 149.61039 350.691317 
L 154.285714 349.424427 
L 158.961039 348.272055 
L 163.636364 347.429355 
L 168.311688 346.737891 
L 172.987013 346.156731 
L 177.662338 346.200862 
L 182.337662 346.005613 
L 187.012987 345.773264 
L 191.688312 345.564032 
L 196.363636 346.210363 
L 201.038961 347.148645 
L 205.714286 346.990501 
L 210.38961 346.181437 
L 215.064935 345.638939 
L 219.74026 345.524635 
L 224.415584 345.488985 
L 229.090909 346.447889 
L 233.766234 347.553048 
L 238.441558 348.202594 
L 243.116883 348.394588 
L 247.792208 348.238038 
L 252.467532 347.948355 
L 257.142857 347.59412 
L 261.818182 347.004413 
L 266.493506 346.393594 
L 271.168831 345.718385 
L 275.844156 345.058546 
L 280.519481 343.5531 
L 285.194805 342.140672 
L 289.87013 340.944096 
L 294.545455 340.592246 
" clip-path="url(#pc27b22fe05)" style="fill: none; stroke: #ff0000; stroke-opacity: 0.2; stroke-width: 1.5; stroke-linecap: square"/>
   </g>
   <g id="line2d_16">
    <path d="M 65.454545 337.576011 
L 70.12987 336.545285 
L 74.805195 334.856731 
L 79.480519 333.752482 
L 84.155844 332.054749 
L 88.831169 331.935686 
L 93.506494 333.386446 
L 98.181818 335.077343 
L 102.857143 338.970017 
L 107.532468 342.705867 
L 112.207792 343.46468 
L 116.883117 343.92511 
L 121.558442 343.800126 
L 126.233766 342.941215 
L 130.909091 345.139508 
L 135.584416 345.310382 
L 140.25974 344.224095 
L 144.935065 343.682538 
L 149.61039 342.977475 
L 154.285714 342.084564 
L 158.961039 341.2428 
L 163.636364 342.119155 
L 168.311688 343.429042 
L 172.987013 344.067759 
L 177.662338 344.792156 
L 182.337662 344.670378 
L 187.012987 344.143884 
L 191.688312 343.402876 
L 196.363636 343.788656 
L 201.038961 344.439235 
L 205.714286 344.309055 
L 210.38961 344.423643 
L 215.064935 345.217189 
L 219.74026 346.435829 
L 224.415584 347.561294 
L 229.090909 348.791894 
L 233.766234 349.203951 
L 238.441558 349.410167 
L 243.116883 349.959137 
L 247.792208 349.19734 
L 252.467532 348.79391 
L 257.142857 348.404178 
L 261.818182 347.576291 
L 266.493506 347.165537 
L 271.168831 346.830156 
L 275.844156 347.400506 
L 280.519481 347.853942 
L 285.194805 347.690171 
L 289.87013 346.26675 
L 294.545455 344.645506 
" clip-path="url(#pc27b22fe05)" style="fill: none; stroke: #ff0000; stroke-opacity: 0.2; stroke-width: 1.5; stroke-linecap: square"/>
   </g>
   <g id="line2d_17">
    <path d="M 65.454545 353.994863 
L 70.12987 353.765484 
L 74.805195 353.378113 
L 79.480519 353.210904 
L 84.155844 353.070625 
L 88.831169 353.414625 
L 93.506494 353.093266 
L 98.181818 352.397402 
L 102.857143 351.31437 
L 107.532468 351.072507 
L 112.207792 350.605158 
L 116.883117 349.537027 
L 121.558442 348.614503 
L 126.233766 348.074885 
L 130.909091 347.836026 
L 135.584416 347.670553 
L 140.25974 348.529043 
L 144.935065 349.460947 
L 149.61039 350.442698 
L 154.285714 351.245789 
L 158.961039 351.663109 
L 163.636364 352.077401 
L 168.311688 352.614967 
L 172.987013 352.962066 
L 177.662338 353.508193 
L 182.337662 354.186131 
L 187.012987 354.026512 
L 191.688312 353.934354 
L 196.363636 353.904354 
L 201.038961 354.245969 
L 205.714286 354.590776 
L 210.38961 354.832043 
L 215.064935 354.331133 
L 219.74026 353.542888 
L 224.415584 353.080408 
L 229.090909 352.984296 
L 233.766234 352.960917 
L 238.441558 353.800169 
L 243.116883 355.34432 
L 247.792208 357.380342 
L 252.467532 358.834553 
L 257.142857 359.623188 
L 261.818182 360.010568 
L 266.493506 360.274809 
L 271.168831 360.076512 
L 275.844156 359.320376 
L 280.519481 358.649786 
L 285.194805 358.243037 
L 289.87013 357.533303 
L 294.545455 357.686419 
" clip-path="url(#pc27b22fe05)" style="fill: none; stroke: #ff0000; stroke-opacity: 0.2; stroke-width: 1.5; stroke-linecap: square"/>
   </g>
   <g id="line2d_18">
    <path d="M 65.454545 343.345581 
L 70.12987 343.513376 
L 74.805195 343.47403 
L 79.480519 342.715511 
L 84.155844 341.918483 
L 88.831169 340.724287 
L 93.506494 339.679194 
L 98.181818 338.953385 
L 102.857143 338.740191 
L 107.532468 339.320135 
L 112.207792 339.096781 
L 116.883117 339.470106 
L 121.558442 340.568296 
L 126.233766 341.950162 
L 130.909091 342.500267 
L 135.584416 343.22393 
L 140.25974 344.741386 
L 144.935065 345.365449 
L 149.61039 345.956662 
L 154.285714 346.56294 
L 158.961039 345.685016 
L 163.636364 345.058604 
L 168.311688 345.068747 
L 172.987013 344.752188 
L 177.662338 344.8972 
L 182.337662 344.638868 
L 187.012987 344.446874 
L 191.688312 343.488393 
L 196.363636 341.810435 
L 201.038961 340.428671 
L 205.714286 339.919451 
L 210.38961 340.095682 
L 215.064935 339.797496 
L 219.74026 340.110771 
L 224.415584 340.29533 
L 229.090909 340.708283 
L 233.766234 342.058802 
L 238.441558 342.78952 
L 243.116883 342.969628 
L 247.792208 342.732806 
L 252.467532 342.29016 
L 257.142857 343.334038 
L 261.818182 344.012792 
L 266.493506 344.091659 
L 271.168831 343.972483 
L 275.844156 345.0284 
L 280.519481 345.774078 
L 285.194805 346.68794 
L 289.87013 347.039933 
L 294.545455 347.236621 
" clip-path="url(#pc27b22fe05)" style="fill: none; stroke: #ff0000; stroke-opacity: 0.2; stroke-width: 1.5; stroke-linecap: square"/>
   </g>
   <g id="line2d_19">
    <path d="M 65.454545 348.465416 
L 70.12987 348.883863 
L 74.805195 348.566657 
L 79.480519 348.473966 
L 84.155844 348.054671 
L 88.831169 347.576304 
L 93.506494 346.845985 
L 98.181818 347.385832 
L 102.857143 347.919884 
L 107.532468 347.798567 
L 112.207792 347.657664 
L 116.883117 347.695144 
L 121.558442 347.717906 
L 126.233766 347.633874 
L 130.909091 347.052799 
L 135.584416 347.021254 
L 140.25974 346.961623 
L 144.935065 346.937341 
L 149.61039 346.626433 
L 154.285714 346.08214 
L 158.961039 345.419781 
L 163.636364 345.190729 
L 168.311688 345.075156 
L 172.987013 345.443583 
L 177.662338 345.780065 
L 182.337662 345.880955 
L 187.012987 346.322401 
L 191.688312 346.596773 
L 196.363636 347.322159 
L 201.038961 347.866494 
L 205.714286 348.55583 
L 210.38961 349.128387 
L 215.064935 349.035768 
L 219.74026 348.616524 
L 224.415584 348.415682 
L 229.090909 348.179871 
L 233.766234 348.172923 
L 238.441558 347.619239 
L 243.116883 347.256559 
L 247.792208 347.419219 
L 252.467532 347.438644 
L 257.142857 347.218544 
L 261.818182 347.705008 
L 266.493506 347.859563 
L 271.168831 347.463117 
L 275.844156 347.010299 
L 280.519481 347.201513 
L 285.194805 347.972125 
L 289.87013 348.353652 
L 294.545455 348.354306 
" clip-path="url(#pc27b22fe05)" style="fill: none; stroke: #ff0000; stroke-opacity: 0.2; stroke-width: 1.5; stroke-linecap: square"/>
   </g>
   <g id="line2d_20">
    <path d="M 65.454545 326.593196 
L 70.12987 324.778333 
L 74.805195 323.372588 
L 79.480519 322.995145 
L 84.155844 323.074962 
L 88.831169 326.46258 
L 93.506494 330.577736 
L 98.181818 333.786753 
L 102.857143 338.869851 
L 107.532468 341.997753 
L 112.207792 344.209467 
L 116.883117 343.566133 
L 121.558442 342.365735 
L 126.233766 341.315679 
L 130.909091 339.774575 
L 135.584416 337.820196 
L 140.25974 335.334367 
L 144.935065 333.442349 
L 149.61039 332.459281 
L 154.285714 331.9791 
L 158.961039 333.614625 
L 163.636364 336.151792 
L 168.311688 338.705344 
L 172.987013 340.548352 
L 177.662338 340.84819 
L 182.337662 340.605084 
L 187.012987 339.683493 
L 191.688312 338.062857 
L 196.363636 336.680405 
L 201.038961 335.213642 
L 205.714286 334.674568 
L 210.38961 334.280871 
L 215.064935 334.751052 
L 219.74026 335.384705 
L 224.415584 337.335642 
L 229.090909 339.176847 
L 233.766234 340.167563 
L 238.441558 342.736822 
L 243.116883 344.460527 
L 247.792208 345.324234 
L 252.467532 345.449372 
L 257.142857 346.398874 
L 261.818182 346.25068 
L 266.493506 345.611666 
L 271.168831 346.355982 
L 275.844156 346.195965 
L 280.519481 346.064369 
L 285.194805 345.534617 
L 289.87013 344.968273 
L 294.545455 343.540825 
" clip-path="url(#pc27b22fe05)" style="fill: none; stroke: #ff0000; stroke-opacity: 0.2; stroke-width: 1.5; stroke-linecap: square"/>
   </g>
   <g id="line2d_21">
    <path d="M 65.454545 341.844516 
L 70.12987 343.204159 
L 74.805195 344.295015 
L 79.480519 343.827716 
L 84.155844 342.683662 
L 88.831169 341.358415 
L 93.506494 340.861031 
L 98.181818 341.436323 
L 102.857143 342.305596 
L 107.532468 342.934792 
L 112.207792 343.841841 
L 116.883117 345.2165 
L 121.558442 345.989857 
L 126.233766 345.580376 
L 130.909091 345.728619 
L 135.584416 346.867941 
L 140.25974 347.418437 
L 144.935065 347.868025 
L 149.61039 347.927269 
L 154.285714 348.609685 
L 158.961039 349.219765 
L 163.636364 349.4121 
L 168.311688 349.554736 
L 172.987013 350.046737 
L 177.662338 350.371299 
L 182.337662 350.460863 
L 187.012987 350.546249 
L 191.688312 350.975684 
L 196.363636 350.732585 
L 201.038961 350.524115 
L 205.714286 349.776968 
L 210.38961 348.928226 
L 215.064935 347.630817 
L 219.74026 346.247539 
L 224.415584 344.919631 
L 229.090909 344.502891 
L 233.766234 344.771324 
L 238.441558 344.1995 
L 243.116883 343.357384 
L 247.792208 343.021726 
L 252.467532 343.689001 
L 257.142857 344.255201 
L 261.818182 343.546815 
L 266.493506 342.238748 
L 271.168831 341.855473 
L 275.844156 341.024616 
L 280.519481 339.501776 
L 285.194805 338.351901 
L 289.87013 338.802257 
L 294.545455 339.488772 
" clip-path="url(#pc27b22fe05)" style="fill: none; stroke: #ff0000; stroke-opacity: 0.2; stroke-width: 1.5; stroke-linecap: square"/>
   </g>
   <g id="line2d_22">
    <path d="M 111.272727 382.628571 
L 111.272727 308.571429 
" clip-path="url(#pc27b22fe05)" style="fill: none; stroke-dasharray: 5.55,2.4; stroke-dashoffset: 0; stroke: #000000; stroke-width: 1.5"/>
   </g>
   <g id="line2d_23">
    <path d="M 65.454545 345.6 
L 294.545455 345.6 
" clip-path="url(#pc27b22fe05)" style="fill: none; stroke-dasharray: 5.55,2.4; stroke-dashoffset: 0; stroke: #000000; stroke-width: 1.5"/>
   </g>
   <g id="patch_3">
    <path d="M 50 388.8 
L 50 302.4 
" style="fill: none; stroke: #000000; stroke-width: 0.8; stroke-linejoin: miter; stroke-linecap: square"/>
   </g>
   <g id="patch_4">
    <path d="M 54 392.8 
L 306 392.8 
" style="fill: none; stroke: #000000; stroke-width: 0.8; stroke-linejoin: miter; stroke-linecap: square"/>
   </g>
   <g id="text_12">
    <!-- all depths -->
    <g transform="translate(150.492188 296.4) scale(0.12 -0.12)">
     <defs>
      <path id="DejaVuSans-70" d="M 1159 525 
L 1159 -1331 
L 581 -1331 
L 581 3500 
L 1159 3500 
L 1159 2969 
Q 1341 3281 1617 3432 
Q 1894 3584 2278 3584 
Q 2916 3584 3314 3078 
Q 3713 2572 3713 1747 
Q 3713 922 3314 415 
Q 2916 -91 2278 -91 
Q 1894 -91 1617 61 
Q 1341 213 1159 525 
z
M 3116 1747 
Q 3116 2381 2855 2742 
Q 2594 3103 2138 3103 
Q 1681 3103 1420 2742 
Q 1159 2381 1159 1747 
Q 1159 1113 1420 752 
Q 1681 391 2138 391 
Q 2594 391 2855 752 
Q 3116 1113 3116 1747 
z
" transform="scale(0.015625)"/>
     </defs>
     <use xlink:href="#DejaVuSans-61"/>
     <use xlink:href="#DejaVuSans-6c" x="61.279297"/>
     <use xlink:href="#DejaVuSans-6c" x="89.0625"/>
     <use xlink:href="#DejaVuSans-20" x="116.845703"/>
     <use xlink:href="#DejaVuSans-64" x="148.632812"/>
     <use xlink:href="#DejaVuSans-65" x="212.109375"/>
     <use xlink:href="#DejaVuSans-70" x="273.632812"/>
     <use xlink:href="#DejaVuSans-74" x="337.109375"/>
     <use xlink:href="#DejaVuSans-68" x="376.318359"/>
     <use xlink:href="#DejaVuSans-73" x="439.697266"/>
    </g>
   </g>
   <g id="legend_1">
    <g id="patch_5">
     <path d="M 118.801562 325.35625 
L 299 325.35625 
Q 301 325.35625 301 323.35625 
L 301 309.4 
Q 301 307.4 299 307.4 
L 118.801562 307.4 
Q 116.801562 307.4 116.801562 309.4 
L 116.801562 323.35625 
Q 116.801562 325.35625 118.801562 325.35625 
z
" style="fill: #ffffff; opacity: 0.8; stroke: #cccccc; stroke-linejoin: miter"/>
    </g>
    <g id="line2d_24">
     <path d="M 120.801562 315.498437 
L 130.801562 315.498437 
L 140.801562 315.498437 
" style="fill: none; stroke: #ff0000; stroke-width: 1.5; stroke-linecap: square"/>
    </g>
    <g id="text_13">
     <!-- V1_tgt_middle_deveined_iso0 -->
     <g transform="translate(148.801562 318.998437) scale(0.1 -0.1)">
      <defs>
       <path id="DejaVuSans-56" d="M 1831 0 
L 50 4666 
L 709 4666 
L 2188 738 
L 3669 4666 
L 4325 4666 
L 2547 0 
L 1831 0 
z
" transform="scale(0.015625)"/>
       <path id="DejaVuSans-5f" d="M 3263 -1063 
L 3263 -1509 
L -63 -1509 
L -63 -1063 
L 3263 -1063 
z
" transform="scale(0.015625)"/>
      </defs>
      <use xlink:href="#DejaVuSans-56"/>
      <use xlink:href="#DejaVuSans-31" x="68.408203"/>
      <use xlink:href="#DejaVuSans-5f" x="132.03125"/>
      <use xlink:href="#DejaVuSans-74" x="182.03125"/>
      <use xlink:href="#DejaVuSans-67" x="221.240234"/>
      <use xlink:href="#DejaVuSans-74" x="284.716797"/>
      <use xlink:href="#DejaVuSans-5f" x="323.925781"/>
      <use xlink:href="#DejaVuSans-6d" x="373.925781"/>
      <use xlink:href="#DejaVuSans-69" x="471.337891"/>
      <use xlink:href="#DejaVuSans-64" x="499.121094"/>
      <use xlink:href="#DejaVuSans-64" x="562.597656"/>
      <use xlink:href="#DejaVuSans-6c" x="626.074219"/>
      <use xlink:href="#DejaVuSans-65" x="653.857422"/>
      <use xlink:href="#DejaVuSans-5f" x="715.380859"/>
      <use xlink:href="#DejaVuSans-64" x="765.380859"/>
      <use xlink:href="#DejaVuSans-65" x="828.857422"/>
      <use xlink:href="#DejaVuSans-76" x="890.380859"/>
      <use xlink:href="#DejaVuSans-65" x="949.560547"/>
      <use xlink:href="#DejaVuSans-69" x="1011.083984"/>
      <use xlink:href="#DejaVuSans-6e" x="1038.867188"/>
      <use xlink:href="#DejaVuSans-65" x="1102.246094"/>
      <use xlink:href="#DejaVuSans-64" x="1163.769531"/>
      <use xlink:href="#DejaVuSans-5f" x="1227.246094"/>
      <use xlink:href="#DejaVuSans-69" x="1277.246094"/>
      <use xlink:href="#DejaVuSans-73" x="1305.029297"/>
      <use xlink:href="#DejaVuSans-6f" x="1357.128906"/>
      <use xlink:href="#DejaVuSans-30" x="1418.310547"/>
     </g>
    </g>
   </g>
  </g>
 </g>
 <defs>
  <clipPath id="pc27b22fe05">
   <rect x="54" y="302.4" width="252" height="86.4"/>
  </clipPath>
 </defs>
</svg>
