<?xml version="1.0" encoding="utf-8" standalone="no"?>
<!DOCTYPE svg PUBLIC "-//W3C//DTD SVG 1.1//EN"
  "http://www.w3.org/Graphics/SVG/1.1/DTD/svg11.dtd">
<svg xmlns:xlink="http://www.w3.org/1999/xlink" width="360pt" height="432pt" viewBox="0 0 360 432" xmlns="http://www.w3.org/2000/svg" version="1.1">
 <metadata>
  <rdf:RDF xmlns:dc="http://purl.org/dc/elements/1.1/" xmlns:cc="http://creativecommons.org/ns#" xmlns:rdf="http://www.w3.org/1999/02/22-rdf-syntax-ns#">
   <cc:Work>
    <dc:type rdf:resource="http://purl.org/dc/dcmitype/StillImage"/>
    <dc:date>2025-10-31T15:45:49.138002</dc:date>
    <dc:format>image/svg+xml</dc:format>
    <dc:creator>
     <cc:Agent>
      <dc:title>Matplotlib v3.8.0, https://matplotlib.org/</dc:title>
     </cc:Agent>
    </dc:creator>
   </cc:Work>
  </rdf:RDF>
 </metadata>
 <defs>
  <style type="text/css">*{stroke-linejoin: round; stroke-linecap: butt}</style>
 </defs>
 <g id="figure_1">
  <g id="patch_1">
   <path d="M 0 432 
L 360 432 
L 360 0 
L 0 0 
z
" style="fill: #ffffff"/>
  </g>
  <g id="axes_1">
   <g id="patch_2">
    <path d="M 54 388.8 
L 306 388.8 
L 306 302.4 
L 54 302.4 
z
" style="fill: #ffffff"/>
   </g>
   <g id="PolyCollection_1">
    <defs>
     <path id="m233571a0fe" d="M 65.454545 -80.021334 
L 65.454545 -73.36358 
L 70.12987 -73.60137 
L 74.805195 -73.925267 
L 79.480519 -74.413975 
L 84.155844 -74.652804 
L 88.831169 -74.888389 
L 93.506494 -75.189392 
L 98.181818 -75.303771 
L 102.857143 -75.393886 
L 107.532468 -75.620191 
L 112.207792 -75.91506 
L 116.883117 -76.20521 
L 121.558442 -76.548569 
L 126.233766 -77.015283 
L 130.909091 -77.543553 
L 135.584416 -78.025048 
L 140.25974 -78.386004 
L 144.935065 -78.760898 
L 149.61039 -79.031805 
L 154.285714 -79.129212 
L 158.961039 -79.181081 
L 163.636364 -79.41 
L 168.311688 -79.719879 
L 172.987013 -79.906441 
L 177.662338 -80.159439 
L 182.337662 -80.480856 
L 187.012987 -80.849228 
L 191.688312 -81.06581 
L 196.363636 -81.229966 
L 201.038961 -81.470773 
L 205.714286 -81.59728 
L 210.38961 -81.800365 
L 215.064935 -82.09085 
L 219.74026 -82.323092 
L 224.415584 -82.360416 
L 229.090909 -82.565402 
L 233.766234 -82.830037 
L 238.441558 -83.107131 
L 243.116883 -83.313229 
L 247.792208 -83.522251 
L 252.467532 -83.652154 
L 257.142857 -83.657439 
L 261.818182 -83.578779 
L 266.493506 -83.587877 
L 271.168831 -83.618865 
L 275.844156 -83.491502 
L 280.519481 -83.425572 
L 285.194805 -83.391544 
L 289.87013 -83.566507 
L 294.545455 -83.67691 
L 294.545455 -86.880291 
L 294.545455 -86.880291 
L 289.87013 -86.673121 
L 285.194805 -86.579446 
L 280.519481 -86.751732 
L 275.844156 -86.764191 
L 271.168831 -86.840644 
L 266.493506 -86.926384 
L 261.818182 -86.934017 
L 257.142857 -86.989413 
L 252.467532 -87.009376 
L 247.792208 -86.911958 
L 243.116883 -86.798687 
L 238.441558 -86.703248 
L 233.766234 -86.445181 
L 229.090909 -86.167727 
L 224.415584 -86.012736 
L 219.74026 -86.002852 
L 215.064935 -85.804082 
L 210.38961 -85.57627 
L 205.714286 -85.394277 
L 201.038961 -85.214703 
L 196.363636 -84.950759 
L 191.688312 -84.773735 
L 187.012987 -84.569373 
L 182.337662 -84.298036 
L 177.662338 -84.05319 
L 172.987013 -83.880974 
L 168.311688 -83.681216 
L 163.636364 -83.320481 
L 158.961039 -83.09381 
L 154.285714 -83.042005 
L 149.61039 -82.982426 
L 144.935065 -82.728762 
L 140.25974 -82.443022 
L 135.584416 -82.117208 
L 130.909091 -81.812042 
L 126.233766 -81.579674 
L 121.558442 -81.328141 
L 116.883117 -81.198031 
L 112.207792 -81.092833 
L 107.532468 -80.953022 
L 102.857143 -80.701318 
L 98.181818 -80.66711 
L 93.506494 -80.741829 
L 88.831169 -80.679418 
L 84.155844 -80.836435 
L 79.480519 -80.805096 
L 74.805195 -80.306068 
L 70.12987 -80.138156 
L 65.454545 -80.021334 
z
" style="stroke: #808080; stroke-opacity: 0.4"/>
    </defs>
    <g clip-path="url(#p793d4278f7)">
     <use xlink:href="#m233571a0fe" x="0" y="432" style="fill: #808080; fill-opacity: 0.4; stroke: #808080; stroke-opacity: 0.4"/>
    </g>
   </g>
   <g id="matplotlib.axis_1">
    <g id="xtick_1">
     <g id="line2d_1">
      <defs>
       <path id="m30c6c25c7d" d="M 0 0 
L 0 3.5 
" style="stroke: #000000; stroke-width: 0.8"/>
      </defs>
      <g>
       <use xlink:href="#m30c6c25c7d" x="65.454545" y="392.8" style="stroke: #000000; stroke-width: 0.8"/>
      </g>
     </g>
     <g id="text_1">
      <!-- 0 -->
      <g transform="translate(62.273295 407.398438) scale(0.1 -0.1)">
       <defs>
        <path id="DejaVuSans-30" d="M 2034 4250 
Q 1547 4250 1301 3770 
Q 1056 3291 1056 2328 
Q 1056 1369 1301 889 
Q 1547 409 2034 409 
Q 2525 409 2770 889 
Q 3016 1369 3016 2328 
Q 3016 3291 2770 3770 
Q 2525 4250 2034 4250 
z
M 2034 4750 
Q 2819 4750 3233 4129 
Q 3647 3509 3647 2328 
Q 3647 1150 3233 529 
Q 2819 -91 2034 -91 
Q 1250 -91 836 529 
Q 422 1150 422 2328 
Q 422 3509 836 4129 
Q 1250 4750 2034 4750 
z
" transform="scale(0.015625)"/>
       </defs>
       <use xlink:href="#DejaVuSans-30"/>
      </g>
     </g>
    </g>
    <g id="xtick_2">
     <g id="line2d_2">
      <g>
       <use xlink:href="#m30c6c25c7d" x="111.272727" y="392.8" style="stroke: #000000; stroke-width: 0.8"/>
      </g>
     </g>
     <g id="text_2">
      <!-- 1 -->
      <g transform="translate(108.091477 407.398438) scale(0.1 -0.1)">
       <defs>
        <path id="DejaVuSans-31" d="M 794 531 
L 1825 531 
L 1825 4091 
L 703 3866 
L 703 4441 
L 1819 4666 
L 2450 4666 
L 2450 531 
L 3481 531 
L 3481 0 
L 794 0 
L 794 531 
z
" transform="scale(0.015625)"/>
       </defs>
       <use xlink:href="#DejaVuSans-31"/>
      </g>
     </g>
    </g>
    <g id="xtick_3">
     <g id="line2d_3">
      <g>
       <use xlink:href="#m30c6c25c7d" x="157.090909" y="392.8" style="stroke: #000000; stroke-width: 0.8"/>
      </g>
     </g>
     <g id="text_3">
      <!-- 2 -->
      <g transform="translate(153.909659 407.398438) scale(0.1 -0.1)">
       <defs>
        <path id="DejaVuSans-32" d="M 1228 531 
L 3431 531 
L 3431 0 
L 469 0 
L 469 531 
Q 828 903 1448 1529 
Q 2069 2156 2228 2338 
Q 2531 2678 2651 2914 
Q 2772 3150 2772 3378 
Q 2772 3750 2511 3984 
Q 2250 4219 1831 4219 
Q 1534 4219 1204 4116 
Q 875 4013 500 3803 
L 500 4441 
Q 881 4594 1212 4672 
Q 1544 4750 1819 4750 
Q 2544 4750 2975 4387 
Q 3406 4025 3406 3419 
Q 3406 3131 3298 2873 
Q 3191 2616 2906 2266 
Q 2828 2175 2409 1742 
Q 1991 1309 1228 531 
z
" transform="scale(0.015625)"/>
       </defs>
       <use xlink:href="#DejaVuSans-32"/>
      </g>
     </g>
    </g>
    <g id="xtick_4">
     <g id="line2d_4">
      <g>
       <use xlink:href="#m30c6c25c7d" x="202.909091" y="392.8" style="stroke: #000000; stroke-width: 0.8"/>
      </g>
     </g>
     <g id="text_4">
      <!-- 3 -->
      <g transform="translate(199.727841 407.398438) scale(0.1 -0.1)">
       <defs>
        <path id="DejaVuSans-33" d="M 2597 2516 
Q 3050 2419 3304 2112 
Q 3559 1806 3559 1356 
Q 3559 666 3084 287 
Q 2609 -91 1734 -91 
Q 1441 -91 1130 -33 
Q 819 25 488 141 
L 488 750 
Q 750 597 1062 519 
Q 1375 441 1716 441 
Q 2309 441 2620 675 
Q 2931 909 2931 1356 
Q 2931 1769 2642 2001 
Q 2353 2234 1838 2234 
L 1294 2234 
L 1294 2753 
L 1863 2753 
Q 2328 2753 2575 2939 
Q 2822 3125 2822 3475 
Q 2822 3834 2567 4026 
Q 2313 4219 1838 4219 
Q 1578 4219 1281 4162 
Q 984 4106 628 3988 
L 628 4550 
Q 988 4650 1302 4700 
Q 1616 4750 1894 4750 
Q 2613 4750 3031 4423 
Q 3450 4097 3450 3541 
Q 3450 3153 3228 2886 
Q 3006 2619 2597 2516 
z
" transform="scale(0.015625)"/>
       </defs>
       <use xlink:href="#DejaVuSans-33"/>
      </g>
     </g>
    </g>
    <g id="xtick_5">
     <g id="line2d_5">
      <g>
       <use xlink:href="#m30c6c25c7d" x="248.727273" y="392.8" style="stroke: #000000; stroke-width: 0.8"/>
      </g>
     </g>
     <g id="text_5">
      <!-- 4 -->
      <g transform="translate(245.546023 407.398438) scale(0.1 -0.1)">
       <defs>
        <path id="DejaVuSans-34" d="M 2419 4116 
L 825 1625 
L 2419 1625 
L 2419 4116 
z
M 2253 4666 
L 3047 4666 
L 3047 1625 
L 3713 1625 
L 3713 1100 
L 3047 1100 
L 3047 0 
L 2419 0 
L 2419 1100 
L 313 1100 
L 313 1709 
L 2253 4666 
z
" transform="scale(0.015625)"/>
       </defs>
       <use xlink:href="#DejaVuSans-34"/>
      </g>
     </g>
    </g>
    <g id="xtick_6">
     <g id="line2d_6">
      <g>
       <use xlink:href="#m30c6c25c7d" x="294.545455" y="392.8" style="stroke: #000000; stroke-width: 0.8"/>
      </g>
     </g>
     <g id="text_6">
      <!-- 5 -->
      <g transform="translate(291.364205 407.398438) scale(0.1 -0.1)">
       <defs>
        <path id="DejaVuSans-35" d="M 691 4666 
L 3169 4666 
L 3169 4134 
L 1269 4134 
L 1269 2991 
Q 1406 3038 1543 3061 
Q 1681 3084 1819 3084 
Q 2600 3084 3056 2656 
Q 3513 2228 3513 1497 
Q 3513 744 3044 326 
Q 2575 -91 1722 -91 
Q 1428 -91 1123 -41 
Q 819 9 494 109 
L 494 744 
Q 775 591 1075 516 
Q 1375 441 1709 441 
Q 2250 441 2565 725 
Q 2881 1009 2881 1497 
Q 2881 1984 2565 2268 
Q 2250 2553 1709 2553 
Q 1456 2553 1204 2497 
Q 953 2441 691 2322 
L 691 4666 
z
" transform="scale(0.015625)"/>
       </defs>
       <use xlink:href="#DejaVuSans-35"/>
      </g>
     </g>
    </g>
    <g id="text_7">
     <!-- relative distance from ROI center ($\sigma$) -->
     <g transform="translate(106.48 419.556875) scale(0.08 -0.08)">
      <defs>
       <path id="DejaVuSans-72" d="M 2631 2963 
Q 2534 3019 2420 3045 
Q 2306 3072 2169 3072 
Q 1681 3072 1420 2755 
Q 1159 2438 1159 1844 
L 1159 0 
L 581 0 
L 581 3500 
L 1159 3500 
L 1159 2956 
Q 1341 3275 1631 3429 
Q 1922 3584 2338 3584 
Q 2397 3584 2469 3576 
Q 2541 3569 2628 3553 
L 2631 2963 
z
" transform="scale(0.015625)"/>
       <path id="DejaVuSans-65" d="M 3597 1894 
L 3597 1613 
L 953 1613 
Q 991 1019 1311 708 
Q 1631 397 2203 397 
Q 2534 397 2845 478 
Q 3156 559 3463 722 
L 3463 178 
Q 3153 47 2828 -22 
Q 2503 -91 2169 -91 
Q 1331 -91 842 396 
Q 353 884 353 1716 
Q 353 2575 817 3079 
Q 1281 3584 2069 3584 
Q 2775 3584 3186 3129 
Q 3597 2675 3597 1894 
z
M 3022 2063 
Q 3016 2534 2758 2815 
Q 2500 3097 2075 3097 
Q 1594 3097 1305 2825 
Q 1016 2553 972 2059 
L 3022 2063 
z
" transform="scale(0.015625)"/>
       <path id="DejaVuSans-6c" d="M 603 4863 
L 1178 4863 
L 1178 0 
L 603 0 
L 603 4863 
z
" transform="scale(0.015625)"/>
       <path id="DejaVuSans-61" d="M 2194 1759 
Q 1497 1759 1228 1600 
Q 959 1441 959 1056 
Q 959 750 1161 570 
Q 1363 391 1709 391 
Q 2188 391 2477 730 
Q 2766 1069 2766 1631 
L 2766 1759 
L 2194 1759 
z
M 3341 1997 
L 3341 0 
L 2766 0 
L 2766 531 
Q 2569 213 2275 61 
Q 1981 -91 1556 -91 
Q 1019 -91 701 211 
Q 384 513 384 1019 
Q 384 1609 779 1909 
Q 1175 2209 1959 2209 
L 2766 2209 
L 2766 2266 
Q 2766 2663 2505 2880 
Q 2244 3097 1772 3097 
Q 1472 3097 1187 3025 
Q 903 2953 641 2809 
L 641 3341 
Q 956 3463 1253 3523 
Q 1550 3584 1831 3584 
Q 2591 3584 2966 3190 
Q 3341 2797 3341 1997 
z
" transform="scale(0.015625)"/>
       <path id="DejaVuSans-74" d="M 1172 4494 
L 1172 3500 
L 2356 3500 
L 2356 3053 
L 1172 3053 
L 1172 1153 
Q 1172 725 1289 603 
Q 1406 481 1766 481 
L 2356 481 
L 2356 0 
L 1766 0 
Q 1100 0 847 248 
Q 594 497 594 1153 
L 594 3053 
L 172 3053 
L 172 3500 
L 594 3500 
L 594 4494 
L 1172 4494 
z
" transform="scale(0.015625)"/>
       <path id="DejaVuSans-69" d="M 603 3500 
L 1178 3500 
L 1178 0 
L 603 0 
L 603 3500 
z
M 603 4863 
L 1178 4863 
L 1178 4134 
L 603 4134 
L 603 4863 
z
" transform="scale(0.015625)"/>
       <path id="DejaVuSans-76" d="M 191 3500 
L 800 3500 
L 1894 563 
L 2988 3500 
L 3597 3500 
L 2284 0 
L 1503 0 
L 191 3500 
z
" transform="scale(0.015625)"/>
       <path id="DejaVuSans-20" transform="scale(0.015625)"/>
       <path id="DejaVuSans-64" d="M 2906 2969 
L 2906 4863 
L 3481 4863 
L 3481 0 
L 2906 0 
L 2906 525 
Q 2725 213 2448 61 
Q 2172 -91 1784 -91 
Q 1150 -91 751 415 
Q 353 922 353 1747 
Q 353 2572 751 3078 
Q 1150 3584 1784 3584 
Q 2172 3584 2448 3432 
Q 2725 3281 2906 2969 
z
M 947 1747 
Q 947 1113 1208 752 
Q 1469 391 1925 391 
Q 2381 391 2643 752 
Q 2906 1113 2906 1747 
Q 2906 2381 2643 2742 
Q 2381 3103 1925 3103 
Q 1469 3103 1208 2742 
Q 947 2381 947 1747 
z
" transform="scale(0.015625)"/>
       <path id="DejaVuSans-73" d="M 2834 3397 
L 2834 2853 
Q 2591 2978 2328 3040 
Q 2066 3103 1784 3103 
Q 1356 3103 1142 2972 
Q 928 2841 928 2578 
Q 928 2378 1081 2264 
Q 1234 2150 1697 2047 
L 1894 2003 
Q 2506 1872 2764 1633 
Q 3022 1394 3022 966 
Q 3022 478 2636 193 
Q 2250 -91 1575 -91 
Q 1294 -91 989 -36 
Q 684 19 347 128 
L 347 722 
Q 666 556 975 473 
Q 1284 391 1588 391 
Q 1994 391 2212 530 
Q 2431 669 2431 922 
Q 2431 1156 2273 1281 
Q 2116 1406 1581 1522 
L 1381 1569 
Q 847 1681 609 1914 
Q 372 2147 372 2553 
Q 372 3047 722 3315 
Q 1072 3584 1716 3584 
Q 2034 3584 2315 3537 
Q 2597 3491 2834 3397 
z
" transform="scale(0.015625)"/>
       <path id="DejaVuSans-6e" d="M 3513 2113 
L 3513 0 
L 2938 0 
L 2938 2094 
Q 2938 2591 2744 2837 
Q 2550 3084 2163 3084 
Q 1697 3084 1428 2787 
Q 1159 2491 1159 1978 
L 1159 0 
L 581 0 
L 581 3500 
L 1159 3500 
L 1159 2956 
Q 1366 3272 1645 3428 
Q 1925 3584 2291 3584 
Q 2894 3584 3203 3211 
Q 3513 2838 3513 2113 
z
" transform="scale(0.015625)"/>
       <path id="DejaVuSans-63" d="M 3122 3366 
L 3122 2828 
Q 2878 2963 2633 3030 
Q 2388 3097 2138 3097 
Q 1578 3097 1268 2742 
Q 959 2388 959 1747 
Q 959 1106 1268 751 
Q 1578 397 2138 397 
Q 2388 397 2633 464 
Q 2878 531 3122 666 
L 3122 134 
Q 2881 22 2623 -34 
Q 2366 -91 2075 -91 
Q 1284 -91 818 406 
Q 353 903 353 1747 
Q 353 2603 823 3093 
Q 1294 3584 2113 3584 
Q 2378 3584 2631 3529 
Q 2884 3475 3122 3366 
z
" transform="scale(0.015625)"/>
       <path id="DejaVuSans-66" d="M 2375 4863 
L 2375 4384 
L 1825 4384 
Q 1516 4384 1395 4259 
Q 1275 4134 1275 3809 
L 1275 3500 
L 2222 3500 
L 2222 3053 
L 1275 3053 
L 1275 0 
L 697 0 
L 697 3053 
L 147 3053 
L 147 3500 
L 697 3500 
L 697 3744 
Q 697 4328 969 4595 
Q 1241 4863 1831 4863 
L 2375 4863 
z
" transform="scale(0.015625)"/>
       <path id="DejaVuSans-6f" d="M 1959 3097 
Q 1497 3097 1228 2736 
Q 959 2375 959 1747 
Q 959 1119 1226 758 
Q 1494 397 1959 397 
Q 2419 397 2687 759 
Q 2956 1122 2956 1747 
Q 2956 2369 2687 2733 
Q 2419 3097 1959 3097 
z
M 1959 3584 
Q 2709 3584 3137 3096 
Q 3566 2609 3566 1747 
Q 3566 888 3137 398 
Q 2709 -91 1959 -91 
Q 1206 -91 779 398 
Q 353 888 353 1747 
Q 353 2609 779 3096 
Q 1206 3584 1959 3584 
z
" transform="scale(0.015625)"/>
       <path id="DejaVuSans-6d" d="M 3328 2828 
Q 3544 3216 3844 3400 
Q 4144 3584 4550 3584 
Q 5097 3584 5394 3201 
Q 5691 2819 5691 2113 
L 5691 0 
L 5113 0 
L 5113 2094 
Q 5113 2597 4934 2840 
Q 4756 3084 4391 3084 
Q 3944 3084 3684 2787 
Q 3425 2491 3425 1978 
L 3425 0 
L 2847 0 
L 2847 2094 
Q 2847 2600 2669 2842 
Q 2491 3084 2119 3084 
Q 1678 3084 1418 2786 
Q 1159 2488 1159 1978 
L 1159 0 
L 581 0 
L 581 3500 
L 1159 3500 
L 1159 2956 
Q 1356 3278 1631 3431 
Q 1906 3584 2284 3584 
Q 2666 3584 2933 3390 
Q 3200 3197 3328 2828 
z
" transform="scale(0.015625)"/>
       <path id="DejaVuSans-52" d="M 2841 2188 
Q 3044 2119 3236 1894 
Q 3428 1669 3622 1275 
L 4263 0 
L 3584 0 
L 2988 1197 
Q 2756 1666 2539 1819 
Q 2322 1972 1947 1972 
L 1259 1972 
L 1259 0 
L 628 0 
L 628 4666 
L 2053 4666 
Q 2853 4666 3247 4331 
Q 3641 3997 3641 3322 
Q 3641 2881 3436 2590 
Q 3231 2300 2841 2188 
z
M 1259 4147 
L 1259 2491 
L 2053 2491 
Q 2509 2491 2742 2702 
Q 2975 2913 2975 3322 
Q 2975 3731 2742 3939 
Q 2509 4147 2053 4147 
L 1259 4147 
z
" transform="scale(0.015625)"/>
       <path id="DejaVuSans-4f" d="M 2522 4238 
Q 1834 4238 1429 3725 
Q 1025 3213 1025 2328 
Q 1025 1447 1429 934 
Q 1834 422 2522 422 
Q 3209 422 3611 934 
Q 4013 1447 4013 2328 
Q 4013 3213 3611 3725 
Q 3209 4238 2522 4238 
z
M 2522 4750 
Q 3503 4750 4090 4092 
Q 4678 3434 4678 2328 
Q 4678 1225 4090 567 
Q 3503 -91 2522 -91 
Q 1538 -91 948 565 
Q 359 1222 359 2328 
Q 359 3434 948 4092 
Q 1538 4750 2522 4750 
z
" transform="scale(0.015625)"/>
       <path id="DejaVuSans-49" d="M 628 4666 
L 1259 4666 
L 1259 0 
L 628 0 
L 628 4666 
z
" transform="scale(0.015625)"/>
       <path id="DejaVuSans-28" d="M 1984 4856 
Q 1566 4138 1362 3434 
Q 1159 2731 1159 2009 
Q 1159 1288 1364 580 
Q 1569 -128 1984 -844 
L 1484 -844 
Q 1016 -109 783 600 
Q 550 1309 550 2009 
Q 550 2706 781 3412 
Q 1013 4119 1484 4856 
L 1984 4856 
z
" transform="scale(0.015625)"/>
       <path id="DejaVuSans-Oblique-3c3" d="M 2219 3044 
Q 1744 3044 1422 2700 
Q 1081 2341 969 1747 
Q 844 1119 1044 756 
Q 1241 397 1706 397 
Q 2166 397 2503 759 
Q 2844 1122 2966 1747 
Q 3075 2319 2881 2700 
Q 2700 3044 2219 3044 
z
M 2309 3503 
L 4219 3500 
L 4106 2925 
L 3463 2925 
Q 3706 2438 3575 1747 
Q 3406 888 2884 400 
Q 2359 -91 1609 -91 
Q 856 -91 525 400 
Q 194 888 363 1747 
Q 528 2609 1050 3097 
Q 1484 3503 2309 3503 
z
" transform="scale(0.015625)"/>
       <path id="DejaVuSans-29" d="M 513 4856 
L 1013 4856 
Q 1481 4119 1714 3412 
Q 1947 2706 1947 2009 
Q 1947 1309 1714 600 
Q 1481 -109 1013 -844 
L 513 -844 
Q 928 -128 1133 580 
Q 1338 1288 1338 2009 
Q 1338 2731 1133 3434 
Q 928 4138 513 4856 
z
" transform="scale(0.015625)"/>
      </defs>
      <use xlink:href="#DejaVuSans-72" transform="translate(0 0.015625)"/>
      <use xlink:href="#DejaVuSans-65" transform="translate(41.113281 0.015625)"/>
      <use xlink:href="#DejaVuSans-6c" transform="translate(102.636719 0.015625)"/>
      <use xlink:href="#DejaVuSans-61" transform="translate(130.419922 0.015625)"/>
      <use xlink:href="#DejaVuSans-74" transform="translate(191.699219 0.015625)"/>
      <use xlink:href="#DejaVuSans-69" transform="translate(230.908203 0.015625)"/>
      <use xlink:href="#DejaVuSans-76" transform="translate(258.691406 0.015625)"/>
      <use xlink:href="#DejaVuSans-65" transform="translate(317.871094 0.015625)"/>
      <use xlink:href="#DejaVuSans-20" transform="translate(379.394531 0.015625)"/>
      <use xlink:href="#DejaVuSans-64" transform="translate(411.181641 0.015625)"/>
      <use xlink:href="#DejaVuSans-69" transform="translate(474.658203 0.015625)"/>
      <use xlink:href="#DejaVuSans-73" transform="translate(502.441406 0.015625)"/>
      <use xlink:href="#DejaVuSans-74" transform="translate(554.541016 0.015625)"/>
      <use xlink:href="#DejaVuSans-61" transform="translate(593.75 0.015625)"/>
      <use xlink:href="#DejaVuSans-6e" transform="translate(655.029297 0.015625)"/>
      <use xlink:href="#DejaVuSans-63" transform="translate(718.408203 0.015625)"/>
      <use xlink:href="#DejaVuSans-65" transform="translate(773.388672 0.015625)"/>
      <use xlink:href="#DejaVuSans-20" transform="translate(834.912109 0.015625)"/>
      <use xlink:href="#DejaVuSans-66" transform="translate(866.699219 0.015625)"/>
      <use xlink:href="#DejaVuSans-72" transform="translate(901.904297 0.015625)"/>
      <use xlink:href="#DejaVuSans-6f" transform="translate(943.017578 0.015625)"/>
      <use xlink:href="#DejaVuSans-6d" transform="translate(1004.199219 0.015625)"/>
      <use xlink:href="#DejaVuSans-20" transform="translate(1101.611328 0.015625)"/>
      <use xlink:href="#DejaVuSans-52" transform="translate(1133.398438 0.015625)"/>
      <use xlink:href="#DejaVuSans-4f" transform="translate(1202.880859 0.015625)"/>
      <use xlink:href="#DejaVuSans-49" transform="translate(1281.591797 0.015625)"/>
      <use xlink:href="#DejaVuSans-20" transform="translate(1311.083984 0.015625)"/>
      <use xlink:href="#DejaVuSans-63" transform="translate(1342.871094 0.015625)"/>
      <use xlink:href="#DejaVuSans-65" transform="translate(1397.851562 0.015625)"/>
      <use xlink:href="#DejaVuSans-6e" transform="translate(1459.375 0.015625)"/>
      <use xlink:href="#DejaVuSans-74" transform="translate(1522.753906 0.015625)"/>
      <use xlink:href="#DejaVuSans-65" transform="translate(1561.962891 0.015625)"/>
      <use xlink:href="#DejaVuSans-72" transform="translate(1623.486328 0.015625)"/>
      <use xlink:href="#DejaVuSans-20" transform="translate(1664.599609 0.015625)"/>
      <use xlink:href="#DejaVuSans-28" transform="translate(1696.386719 0.015625)"/>
      <use xlink:href="#DejaVuSans-Oblique-3c3" transform="translate(1735.400391 0.015625)"/>
      <use xlink:href="#DejaVuSans-29" transform="translate(1798.779297 0.015625)"/>
     </g>
    </g>
   </g>
   <g id="matplotlib.axis_2">
    <g id="ytick_1">
     <g id="line2d_7">
      <defs>
       <path id="mb9b26c4e2e" d="M 0 0 
L -3.5 0 
" style="stroke: #000000; stroke-width: 0.8"/>
      </defs>
      <g>
       <use xlink:href="#mb9b26c4e2e" x="50" y="376.457143" style="stroke: #000000; stroke-width: 0.8"/>
      </g>
     </g>
     <g id="text_8">
      <!-- −5 -->
      <g transform="translate(28.257812 380.256362) scale(0.1 -0.1)">
       <defs>
        <path id="DejaVuSans-2212" d="M 678 2272 
L 4684 2272 
L 4684 1741 
L 678 1741 
L 678 2272 
z
" transform="scale(0.015625)"/>
       </defs>
       <use xlink:href="#DejaVuSans-2212"/>
       <use xlink:href="#DejaVuSans-35" x="83.789062"/>
      </g>
     </g>
    </g>
    <g id="ytick_2">
     <g id="line2d_8">
      <g>
       <use xlink:href="#mb9b26c4e2e" x="50" y="345.6" style="stroke: #000000; stroke-width: 0.8"/>
      </g>
     </g>
     <g id="text_9">
      <!-- 0 -->
      <g transform="translate(36.6375 349.399219) scale(0.1 -0.1)">
       <use xlink:href="#DejaVuSans-30"/>
      </g>
     </g>
    </g>
    <g id="ytick_3">
     <g id="line2d_9">
      <g>
       <use xlink:href="#mb9b26c4e2e" x="50" y="314.742857" style="stroke: #000000; stroke-width: 0.8"/>
      </g>
     </g>
     <g id="text_10">
      <!-- 5 -->
      <g transform="translate(36.6375 318.542076) scale(0.1 -0.1)">
       <use xlink:href="#DejaVuSans-35"/>
      </g>
     </g>
    </g>
    <g id="text_11">
     <!-- BOLD % change -->
     <g transform="translate(22.594062 377.79625) rotate(-90) scale(0.08 -0.08)">
      <defs>
       <path id="DejaVuSans-42" d="M 1259 2228 
L 1259 519 
L 2272 519 
Q 2781 519 3026 730 
Q 3272 941 3272 1375 
Q 3272 1813 3026 2020 
Q 2781 2228 2272 2228 
L 1259 2228 
z
M 1259 4147 
L 1259 2741 
L 2194 2741 
Q 2656 2741 2882 2914 
Q 3109 3088 3109 3444 
Q 3109 3797 2882 3972 
Q 2656 4147 2194 4147 
L 1259 4147 
z
M 628 4666 
L 2241 4666 
Q 2963 4666 3353 4366 
Q 3744 4066 3744 3513 
Q 3744 3084 3544 2831 
Q 3344 2578 2956 2516 
Q 3422 2416 3680 2098 
Q 3938 1781 3938 1306 
Q 3938 681 3513 340 
Q 3088 0 2303 0 
L 628 0 
L 628 4666 
z
" transform="scale(0.015625)"/>
       <path id="DejaVuSans-4c" d="M 628 4666 
L 1259 4666 
L 1259 531 
L 3531 531 
L 3531 0 
L 628 0 
L 628 4666 
z
" transform="scale(0.015625)"/>
       <path id="DejaVuSans-44" d="M 1259 4147 
L 1259 519 
L 2022 519 
Q 2988 519 3436 956 
Q 3884 1394 3884 2338 
Q 3884 3275 3436 3711 
Q 2988 4147 2022 4147 
L 1259 4147 
z
M 628 4666 
L 1925 4666 
Q 3281 4666 3915 4102 
Q 4550 3538 4550 2338 
Q 4550 1131 3912 565 
Q 3275 0 1925 0 
L 628 0 
L 628 4666 
z
" transform="scale(0.015625)"/>
       <path id="DejaVuSans-25" d="M 4653 2053 
Q 4381 2053 4226 1822 
Q 4072 1591 4072 1178 
Q 4072 772 4226 539 
Q 4381 306 4653 306 
Q 4919 306 5073 539 
Q 5228 772 5228 1178 
Q 5228 1588 5073 1820 
Q 4919 2053 4653 2053 
z
M 4653 2450 
Q 5147 2450 5437 2106 
Q 5728 1763 5728 1178 
Q 5728 594 5436 251 
Q 5144 -91 4653 -91 
Q 4153 -91 3862 251 
Q 3572 594 3572 1178 
Q 3572 1766 3864 2108 
Q 4156 2450 4653 2450 
z
M 1428 4353 
Q 1159 4353 1004 4120 
Q 850 3888 850 3481 
Q 850 3069 1003 2837 
Q 1156 2606 1428 2606 
Q 1700 2606 1854 2837 
Q 2009 3069 2009 3481 
Q 2009 3884 1853 4118 
Q 1697 4353 1428 4353 
z
M 4250 4750 
L 4750 4750 
L 1831 -91 
L 1331 -91 
L 4250 4750 
z
M 1428 4750 
Q 1922 4750 2215 4408 
Q 2509 4066 2509 3481 
Q 2509 2891 2217 2550 
Q 1925 2209 1428 2209 
Q 931 2209 642 2551 
Q 353 2894 353 3481 
Q 353 4063 643 4406 
Q 934 4750 1428 4750 
z
" transform="scale(0.015625)"/>
       <path id="DejaVuSans-68" d="M 3513 2113 
L 3513 0 
L 2938 0 
L 2938 2094 
Q 2938 2591 2744 2837 
Q 2550 3084 2163 3084 
Q 1697 3084 1428 2787 
Q 1159 2491 1159 1978 
L 1159 0 
L 581 0 
L 581 4863 
L 1159 4863 
L 1159 2956 
Q 1366 3272 1645 3428 
Q 1925 3584 2291 3584 
Q 2894 3584 3203 3211 
Q 3513 2838 3513 2113 
z
" transform="scale(0.015625)"/>
       <path id="DejaVuSans-67" d="M 2906 1791 
Q 2906 2416 2648 2759 
Q 2391 3103 1925 3103 
Q 1463 3103 1205 2759 
Q 947 2416 947 1791 
Q 947 1169 1205 825 
Q 1463 481 1925 481 
Q 2391 481 2648 825 
Q 2906 1169 2906 1791 
z
M 3481 434 
Q 3481 -459 3084 -895 
Q 2688 -1331 1869 -1331 
Q 1566 -1331 1297 -1286 
Q 1028 -1241 775 -1147 
L 775 -588 
Q 1028 -725 1275 -790 
Q 1522 -856 1778 -856 
Q 2344 -856 2625 -561 
Q 2906 -266 2906 331 
L 2906 616 
Q 2728 306 2450 153 
Q 2172 0 1784 0 
Q 1141 0 747 490 
Q 353 981 353 1791 
Q 353 2603 747 3093 
Q 1141 3584 1784 3584 
Q 2172 3584 2450 3431 
Q 2728 3278 2906 2969 
L 2906 3500 
L 3481 3500 
L 3481 434 
z
" transform="scale(0.015625)"/>
      </defs>
      <use xlink:href="#DejaVuSans-42"/>
      <use xlink:href="#DejaVuSans-4f" x="66.853516"/>
      <use xlink:href="#DejaVuSans-4c" x="145.564453"/>
      <use xlink:href="#DejaVuSans-44" x="201.277344"/>
      <use xlink:href="#DejaVuSans-20" x="278.279297"/>
      <use xlink:href="#DejaVuSans-25" x="310.066406"/>
      <use xlink:href="#DejaVuSans-20" x="405.085938"/>
      <use xlink:href="#DejaVuSans-63" x="436.873047"/>
      <use xlink:href="#DejaVuSans-68" x="491.853516"/>
      <use xlink:href="#DejaVuSans-61" x="555.232422"/>
      <use xlink:href="#DejaVuSans-6e" x="616.511719"/>
      <use xlink:href="#DejaVuSans-67" x="679.890625"/>
      <use xlink:href="#DejaVuSans-65" x="743.367188"/>
     </g>
    </g>
   </g>
   <g id="line2d_10">
    <path d="M 65.454545 355.307543 
L 70.12987 355.130237 
L 74.805195 354.884333 
L 79.480519 354.390465 
L 84.155844 354.255381 
L 88.831169 354.216096 
L 93.506494 354.03439 
L 98.181818 354.01456 
L 102.857143 353.952398 
L 107.532468 353.713394 
L 112.207792 353.496054 
L 116.883117 353.298379 
L 121.558442 353.061645 
L 126.233766 352.702522 
L 130.909091 352.322202 
L 135.584416 351.928872 
L 140.25974 351.585487 
L 144.935065 351.25517 
L 149.61039 350.992885 
L 154.285714 350.914392 
L 158.961039 350.862555 
L 163.636364 350.634759 
L 168.311688 350.299452 
L 172.987013 350.106292 
L 177.662338 349.893685 
L 182.337662 349.610554 
L 187.012987 349.2907 
L 191.688312 349.080227 
L 196.363636 348.909638 
L 201.038961 348.657262 
L 205.714286 348.504222 
L 210.38961 348.311682 
L 215.064935 348.052534 
L 219.74026 347.837028 
L 224.415584 347.813424 
L 229.090909 347.633436 
L 233.766234 347.362391 
L 238.441558 347.09481 
L 243.116883 346.944042 
L 247.792208 346.782895 
L 252.467532 346.669235 
L 257.142857 346.676574 
L 261.818182 346.743602 
L 266.493506 346.74287 
L 271.168831 346.770245 
L 275.844156 346.872154 
L 280.519481 346.911348 
L 285.194805 347.014505 
L 289.87013 346.880186 
L 294.545455 346.7214 
" clip-path="url(#p793d4278f7)" style="fill: none; stroke: #808080; stroke-width: 1.5; stroke-linecap: square"/>
   </g>
   <g id="line2d_11">
    <path d="M 65.454545 365.531217 
L 70.12987 365.865127 
L 74.805195 365.780977 
L 79.480519 365.634958 
L 84.155844 365.424258 
L 88.831169 363.862949 
L 93.506494 363.063756 
L 98.181818 362.576002 
L 102.857143 362.923377 
L 107.532468 363.348454 
L 112.207792 363.111817 
L 116.883117 363.097014 
L 121.558442 363.039957 
L 126.233766 362.184259 
L 130.909091 360.284975 
L 135.584416 358.608764 
L 140.25974 358.255801 
L 144.935065 358.278082 
L 149.61039 358.828241 
L 154.285714 359.252597 
L 158.961039 359.593298 
L 163.636364 359.522099 
L 168.311688 359.631949 
L 172.987013 359.86694 
L 177.662338 359.686504 
L 182.337662 358.980314 
L 187.012987 358.122902 
L 191.688312 357.824464 
L 196.363636 357.758747 
L 201.038961 357.892631 
L 205.714286 358.48674 
L 210.38961 358.216625 
L 215.064935 357.835553 
L 219.74026 357.597283 
L 224.415584 357.485313 
L 229.090909 357.309605 
L 233.766234 356.405335 
L 238.441558 355.241562 
L 243.116883 354.320697 
L 247.792208 353.408291 
L 252.467532 353.105626 
L 257.142857 353.677758 
L 261.818182 354.714707 
L 266.493506 354.827689 
L 271.168831 354.607748 
L 275.844156 355.348565 
L 280.519481 355.095011 
L 285.194805 354.017902 
L 289.87013 352.07424 
L 294.545455 351.075088 
" clip-path="url(#p793d4278f7)" style="fill: none; stroke: #808080; stroke-opacity: 0.2; stroke-width: 1.5; stroke-linecap: square"/>
   </g>
   <g id="line2d_12">
    <path d="M 65.454545 348.99057 
L 70.12987 348.99057 
L 74.805195 348.768079 
L 79.480519 348.789605 
L 84.155844 348.756585 
L 88.831169 349.391555 
L 93.506494 349.824784 
L 98.181818 349.987153 
L 102.857143 350.130632 
L 107.532468 350.1733 
L 112.207792 350.151436 
L 116.883117 349.361192 
L 121.558442 348.803166 
L 126.233766 348.483109 
L 130.909091 348.31638 
L 135.584416 347.985541 
L 140.25974 347.910966 
L 144.935065 347.659689 
L 149.61039 347.358282 
L 154.285714 346.917119 
L 158.961039 346.650192 
L 163.636364 346.403776 
L 168.311688 346.313962 
L 172.987013 346.165371 
L 177.662338 346.124997 
L 182.337662 346.011555 
L 187.012987 345.820384 
L 191.688312 345.551164 
L 196.363636 345.373476 
L 201.038961 345.005419 
L 205.714286 344.6629 
L 210.38961 344.305966 
L 215.064935 344.331216 
L 219.74026 344.399999 
L 224.415584 344.366816 
L 229.090909 344.2549 
L 233.766234 343.988857 
L 238.441558 343.863667 
L 243.116883 343.721885 
L 247.792208 343.099312 
L 252.467532 342.70261 
L 257.142857 342.589242 
L 261.818182 342.505451 
L 266.493506 342.28312 
L 271.168831 342.506301 
L 275.844156 342.84065 
L 280.519481 343.148964 
L 285.194805 343.581877 
L 289.87013 344.251379 
L 294.545455 345.154788 
" clip-path="url(#p793d4278f7)" style="fill: none; stroke: #808080; stroke-opacity: 0.2; stroke-width: 1.5; stroke-linecap: square"/>
   </g>
   <g id="line2d_13">
    <path d="M 65.454545 328.681653 
L 70.12987 328.852793 
L 74.805195 329.131678 
L 79.480519 329.222972 
L 84.155844 330.840132 
L 88.831169 331.879549 
L 93.506494 332.576155 
L 98.181818 333.88512 
L 102.857143 333.931473 
L 107.532468 333.068237 
L 112.207792 333.154512 
L 116.883117 334.036783 
L 121.558442 335.044776 
L 126.233766 336.245574 
L 130.909091 337.539834 
L 135.584416 338.481216 
L 140.25974 339.163891 
L 144.935065 339.646312 
L 149.61039 339.994881 
L 154.285714 340.643317 
L 158.961039 340.493602 
L 163.636364 340.531565 
L 168.311688 339.997219 
L 172.987013 339.537295 
L 177.662338 339.763169 
L 182.337662 339.817059 
L 187.012987 339.944591 
L 191.688312 339.73732 
L 196.363636 339.115132 
L 201.038961 338.416769 
L 205.714286 337.806132 
L 210.38961 337.090361 
L 215.064935 336.64033 
L 219.74026 336.024943 
L 224.415584 335.45831 
L 229.090909 334.991973 
L 233.766234 334.343102 
L 238.441558 333.679218 
L 243.116883 334.241908 
L 247.792208 335.332059 
L 252.467532 336.05057 
L 257.142857 336.828772 
L 261.818182 337.198461 
L 266.493506 336.732111 
L 271.168831 336.479138 
L 275.844156 335.897419 
L 280.519481 335.193296 
L 285.194805 335.70389 
L 289.87013 335.235774 
L 294.545455 334.166638 
" clip-path="url(#p793d4278f7)" style="fill: none; stroke: #808080; stroke-opacity: 0.2; stroke-width: 1.5; stroke-linecap: square"/>
   </g>
   <g id="line2d_14">
    <path d="M 65.454545 365.066157 
L 70.12987 365.066157 
L 74.805195 365.218444 
L 79.480519 365.44608 
L 84.155844 365.415078 
L 88.831169 365.199421 
L 93.506494 364.436242 
L 98.181818 364.180371 
L 102.857143 363.985711 
L 107.532468 363.547789 
L 112.207792 362.63174 
L 116.883117 361.831582 
L 121.558442 361.25222 
L 126.233766 360.594078 
L 130.909091 360.059006 
L 135.584416 359.290193 
L 140.25974 358.227102 
L 144.935065 357.153756 
L 149.61039 356.199406 
L 154.285714 355.582888 
L 158.961039 355.037336 
L 163.636364 354.598025 
L 168.311688 354.434208 
L 172.987013 354.164926 
L 177.662338 353.624363 
L 182.337662 353.096897 
L 187.012987 352.519364 
L 191.688312 351.876048 
L 196.363636 351.015042 
L 201.038961 350.40793 
L 205.714286 350.000248 
L 210.38961 349.92712 
L 215.064935 349.980493 
L 219.74026 350.173995 
L 224.415584 350.346126 
L 229.090909 350.2168 
L 233.766234 350.371642 
L 238.441558 350.044974 
L 243.116883 350.004626 
L 247.792208 350.078666 
L 252.467532 350.001803 
L 257.142857 349.844667 
L 261.818182 349.501274 
L 266.493506 349.388065 
L 271.168831 349.154569 
L 275.844156 349.264865 
L 280.519481 349.896846 
L 285.194805 350.431141 
L 289.87013 351.172513 
L 294.545455 351.440176 
" clip-path="url(#p793d4278f7)" style="fill: none; stroke: #808080; stroke-opacity: 0.2; stroke-width: 1.5; stroke-linecap: square"/>
   </g>
   <g id="line2d_15">
    <path d="M 65.454545 352.062284 
L 70.12987 351.984991 
L 74.805195 351.774341 
L 79.480519 351.543479 
L 84.155844 352.274949 
L 88.831169 353.858049 
L 93.506494 354.315888 
L 98.181818 354.447586 
L 102.857143 354.746396 
L 107.532468 354.427801 
L 112.207792 354.201571 
L 116.883117 354.113114 
L 121.558442 353.781823 
L 126.233766 353.363117 
L 130.909091 353.123084 
L 135.584416 353.609649 
L 140.25974 353.829021 
L 144.935065 353.663533 
L 149.61039 354.117291 
L 154.285714 354.743501 
L 158.961039 354.961091 
L 163.636364 354.584023 
L 168.311688 353.780081 
L 172.987013 353.673511 
L 177.662338 353.326703 
L 182.337662 353.347964 
L 187.012987 353.194744 
L 191.688312 353.511178 
L 196.363636 353.505052 
L 201.038961 353.237509 
L 205.714286 352.919716 
L 210.38961 352.459473 
L 215.064935 351.849072 
L 219.74026 351.297179 
L 224.415584 351.234415 
L 229.090909 351.206189 
L 233.766234 351.221823 
L 238.441558 351.24429 
L 243.116883 351.072136 
L 247.792208 351.033932 
L 252.467532 350.995684 
L 257.142857 350.641047 
L 261.818182 350.629644 
L 266.493506 350.798436 
L 271.168831 350.793259 
L 275.844156 350.726662 
L 280.519481 350.883736 
L 285.194805 350.866425 
L 289.87013 350.407122 
L 294.545455 350.040434 
" clip-path="url(#p793d4278f7)" style="fill: none; stroke: #808080; stroke-opacity: 0.2; stroke-width: 1.5; stroke-linecap: square"/>
   </g>
   <g id="line2d_16">
    <path d="M 65.454545 370.111319 
L 70.12987 368.659268 
L 74.805195 366.280491 
L 79.480519 364.90239 
L 84.155844 363.719899 
L 88.831169 361.088735 
L 93.506494 359.515888 
L 98.181818 358.943546 
L 102.857143 357.695935 
L 107.532468 356.385543 
L 112.207792 355.476148 
L 116.883117 354.656725 
L 121.558442 354.080918 
L 126.233766 353.686243 
L 130.909091 353.388366 
L 135.584416 352.682299 
L 140.25974 352.085652 
L 144.935065 351.667308 
L 149.61039 351.445259 
L 154.285714 351.876434 
L 158.961039 352.256118 
L 163.636364 351.98125 
L 168.311688 351.850716 
L 172.987013 351.473475 
L 177.662338 351.08624 
L 182.337662 350.463053 
L 187.012987 349.835589 
L 191.688312 349.339198 
L 196.363636 349.061195 
L 201.038961 348.852646 
L 205.714286 348.848048 
L 210.38961 348.808409 
L 215.064935 348.327666 
L 219.74026 347.756825 
L 224.415584 347.340221 
L 229.090909 346.388612 
L 233.766234 346.0477 
L 238.441558 346.637945 
L 243.116883 347.429426 
L 247.792208 348.031882 
L 252.467532 347.731068 
L 257.142857 346.950294 
L 261.818182 346.148843 
L 266.493506 345.95149 
L 271.168831 345.523035 
L 275.844156 345.527451 
L 280.519481 345.524028 
L 285.194805 345.682294 
L 289.87013 345.793088 
L 294.545455 346.300997 
" clip-path="url(#p793d4278f7)" style="fill: none; stroke: #808080; stroke-opacity: 0.2; stroke-width: 1.5; stroke-linecap: square"/>
   </g>
   <g id="line2d_17">
    <path d="M 65.454545 352.511243 
L 70.12987 352.337252 
L 74.805195 352.192748 
L 79.480519 351.388655 
L 84.155844 350.731845 
L 88.831169 350.879491 
L 93.506494 350.539513 
L 98.181818 350.1991 
L 102.857143 349.451324 
L 107.532468 349.306503 
L 112.207792 349.24435 
L 116.883117 349.245222 
L 121.558442 348.795554 
L 126.233766 347.828393 
L 130.909091 346.994177 
L 135.584416 346.505264 
L 140.25974 345.693431 
L 144.935065 344.803122 
L 149.61039 344.102762 
L 154.285714 343.45554 
L 158.961039 342.95288 
L 163.636364 341.904056 
L 168.311688 341.156943 
L 172.987013 340.839416 
L 177.662338 340.418117 
L 182.337662 340.15745 
L 187.012987 340.455446 
L 191.688312 340.917387 
L 196.363636 341.367661 
L 201.038961 341.497757 
L 205.714286 341.514437 
L 210.38961 341.67057 
L 215.064935 341.592448 
L 219.74026 341.703815 
L 224.415584 342.111121 
L 229.090909 342.374982 
L 233.766234 342.473737 
L 238.441558 342.508701 
L 243.116883 342.348769 
L 247.792208 341.820832 
L 252.467532 341.562048 
L 257.142857 341.659714 
L 261.818182 341.598112 
L 266.493506 341.561449 
L 271.168831 341.908108 
L 275.844156 341.937697 
L 280.519481 341.735628 
L 285.194805 341.822975 
L 289.87013 342.047065 
L 294.545455 341.41958 
" clip-path="url(#p793d4278f7)" style="fill: none; stroke: #808080; stroke-opacity: 0.2; stroke-width: 1.5; stroke-linecap: square"/>
   </g>
   <g id="line2d_18">
    <path d="M 65.454545 355.489372 
L 70.12987 355.490074 
L 74.805195 355.449878 
L 79.480519 354.763745 
L 84.155844 354.539467 
L 88.831169 355.669547 
L 93.506494 356.330613 
L 98.181818 357.557118 
L 102.857143 357.884117 
L 107.532468 357.629756 
L 112.207792 357.45772 
L 116.883117 357.466135 
L 121.558442 357.597894 
L 126.233766 357.610013 
L 130.909091 356.966696 
L 135.584416 355.695004 
L 140.25974 354.74922 
L 144.935065 353.892773 
L 149.61039 353.073157 
L 154.285714 352.530483 
L 158.961039 352.273491 
L 163.636364 352.451586 
L 168.311688 352.18774 
L 172.987013 352.045919 
L 177.662338 351.938851 
L 182.337662 351.451991 
L 187.012987 350.940973 
L 191.688312 350.589426 
L 196.363636 350.708887 
L 201.038961 350.510712 
L 205.714286 350.407841 
L 210.38961 350.397197 
L 215.064935 350.290526 
L 219.74026 350.16777 
L 224.415584 349.85623 
L 229.090909 349.647477 
L 233.766234 349.601632 
L 238.441558 349.409824 
L 243.116883 349.087031 
L 247.792208 348.491298 
L 252.467532 348.221728 
L 257.142857 348.053841 
L 261.818182 347.760198 
L 266.493506 347.504838 
L 271.168831 347.405516 
L 275.844156 347.322583 
L 280.519481 347.370643 
L 285.194805 347.506767 
L 289.87013 347.496964 
L 294.545455 347.622246 
" clip-path="url(#p793d4278f7)" style="fill: none; stroke: #808080; stroke-opacity: 0.2; stroke-width: 1.5; stroke-linecap: square"/>
   </g>
   <g id="line2d_19">
    <path d="M 65.454545 354.762852 
L 70.12987 355.011025 
L 74.805195 355.284354 
L 79.480519 354.78293 
L 84.155844 354.918873 
L 88.831169 355.283145 
L 93.506494 355.900485 
L 98.181818 356.434769 
L 102.857143 356.986097 
L 107.532468 357.011174 
L 112.207792 356.894154 
L 116.883117 356.446402 
L 121.558442 355.931513 
L 126.233766 355.435195 
L 130.909091 355.129489 
L 135.584416 354.97831 
L 140.25974 354.730067 
L 144.935065 354.452723 
L 149.61039 354.158825 
L 154.285714 354.007363 
L 158.961039 354.058459 
L 163.636364 353.985529 
L 168.311688 353.54249 
L 172.987013 353.280676 
L 177.662338 353.106066 
L 182.337662 352.923714 
L 187.012987 352.759107 
L 191.688312 352.780557 
L 196.363636 352.749799 
L 201.038961 352.578954 
L 205.714286 352.395883 
L 210.38961 352.34725 
L 215.064935 352.062346 
L 219.74026 351.70431 
L 224.415584 351.540099 
L 229.090909 351.335866 
L 233.766234 351.268079 
L 238.441558 351.19954 
L 243.116883 350.922548 
L 247.792208 350.669166 
L 252.467532 350.565071 
L 257.142857 350.487292 
L 261.818182 350.549175 
L 266.493506 350.629482 
L 271.168831 350.460352 
L 275.844156 350.324479 
L 280.519481 350.589987 
L 285.194805 350.881708 
L 289.87013 350.995712 
L 294.545455 351.090363 
" clip-path="url(#p793d4278f7)" style="fill: none; stroke: #808080; stroke-opacity: 0.2; stroke-width: 1.5; stroke-linecap: square"/>
   </g>
   <g id="line2d_20">
    <path d="M 65.454545 349.102249 
L 70.12987 348.665234 
L 74.805195 348.266123 
L 79.480519 346.172648 
L 84.155844 344.581138 
L 88.831169 344.228471 
L 93.506494 343.603661 
L 98.181818 342.667244 
L 102.857143 343.031656 
L 107.532468 343.550983 
L 112.207792 344.122652 
L 116.883117 344.285842 
L 121.558442 344.527238 
L 126.233766 344.022425 
L 130.909091 343.707137 
L 135.584416 342.888519 
L 140.25974 341.870639 
L 144.935065 341.81683 
L 149.61039 341.398243 
L 154.285714 341.396884 
L 158.961039 341.929483 
L 163.636364 342.152099 
L 168.311688 341.945023 
L 172.987013 342.168852 
L 177.662338 342.311895 
L 182.337662 342.199715 
L 187.012987 341.477159 
L 191.688312 340.831402 
L 196.363636 340.566941 
L 201.038961 340.469777 
L 205.714286 340.582218 
L 210.38961 340.811364 
L 215.064935 340.899639 
L 219.74026 341.075642 
L 224.415584 341.925662 
L 229.090909 342.606229 
L 233.766234 342.033284 
L 238.441558 341.404162 
L 243.116883 340.578114 
L 247.792208 339.787548 
L 252.467532 339.284884 
L 257.142857 339.091516 
L 261.818182 339.614797 
L 266.493506 340.744647 
L 271.168831 342.107809 
L 275.844156 343.051459 
L 280.519481 343.536428 
L 285.194805 343.601873 
L 289.87013 343.269585 
L 294.545455 342.937368 
" clip-path="url(#p793d4278f7)" style="fill: none; stroke: #808080; stroke-opacity: 0.2; stroke-width: 1.5; stroke-linecap: square"/>
   </g>
   <g id="line2d_21">
    <path d="M 65.454545 366.074054 
L 70.12987 365.510117 
L 74.805195 365.580547 
L 79.480519 365.647651 
L 84.155844 365.606963 
L 88.831169 365.036148 
L 93.506494 364.271299 
L 98.181818 363.282145 
L 102.857143 362.709658 
L 107.532468 362.397791 
L 112.207792 362.01049 
L 116.883117 361.742159 
L 121.558442 360.823033 
L 126.233766 360.275335 
L 130.909091 360.03508 
L 135.584416 360.492833 
L 140.25974 360.924566 
L 144.935065 360.772744 
L 149.61039 360.245384 
L 154.285714 359.652185 
L 158.961039 359.282151 
L 163.636364 358.868344 
L 168.311688 358.453642 
L 172.987013 357.952833 
L 177.662338 357.443631 
L 182.337662 357.266378 
L 187.012987 357.127438 
L 191.688312 356.924357 
L 196.363636 356.784082 
L 201.038961 356.359777 
L 205.714286 355.922275 
L 210.38961 355.394171 
L 215.064935 354.768585 
L 219.74026 354.30555 
L 224.415584 354.283351 
L 229.090909 353.635159 
L 233.766234 353.23111 
L 238.441558 352.80903 
L 243.116883 352.657325 
L 247.792208 352.858864 
L 252.467532 353.140498 
L 257.142857 353.618168 
L 261.818182 353.95896 
L 266.493506 353.750239 
L 271.168831 353.526861 
L 275.844156 353.35186 
L 280.519481 353.050263 
L 285.194805 353.0627 
L 289.87013 352.938604 
L 294.545455 352.687718 
" clip-path="url(#p793d4278f7)" style="fill: none; stroke: #808080; stroke-opacity: 0.2; stroke-width: 1.5; stroke-linecap: square"/>
   </g>
   <g id="line2d_22">
    <path d="M 111.272727 382.628571 
L 111.272727 308.571429 
" clip-path="url(#p793d4278f7)" style="fill: none; stroke-dasharray: 5.55,2.4; stroke-dashoffset: 0; stroke: #000000; stroke-width: 1.5"/>
   </g>
   <g id="line2d_23">
    <path d="M 65.454545 345.6 
L 294.545455 345.6 
" clip-path="url(#p793d4278f7)" style="fill: none; stroke-dasharray: 5.55,2.4; stroke-dashoffset: 0; stroke: #000000; stroke-width: 1.5"/>
   </g>
   <g id="patch_3">
    <path d="M 50 388.8 
L 50 302.4 
" style="fill: none; stroke: #000000; stroke-width: 0.8; stroke-linejoin: miter; stroke-linecap: square"/>
   </g>
   <g id="patch_4">
    <path d="M 54 392.8 
L 306 392.8 
" style="fill: none; stroke: #000000; stroke-width: 0.8; stroke-linejoin: miter; stroke-linecap: square"/>
   </g>
   <g id="text_12">
    <!-- all depths -->
    <g transform="translate(150.492188 296.4) scale(0.12 -0.12)">
     <defs>
      <path id="DejaVuSans-70" d="M 1159 525 
L 1159 -1331 
L 581 -1331 
L 581 3500 
L 1159 3500 
L 1159 2969 
Q 1341 3281 1617 3432 
Q 1894 3584 2278 3584 
Q 2916 3584 3314 3078 
Q 3713 2572 3713 1747 
Q 3713 922 3314 415 
Q 2916 -91 2278 -91 
Q 1894 -91 1617 61 
Q 1341 213 1159 525 
z
M 3116 1747 
Q 3116 2381 2855 2742 
Q 2594 3103 2138 3103 
Q 1681 3103 1420 2742 
Q 1159 2381 1159 1747 
Q 1159 1113 1420 752 
Q 1681 391 2138 391 
Q 2594 391 2855 752 
Q 3116 1113 3116 1747 
z
" transform="scale(0.015625)"/>
     </defs>
     <use xlink:href="#DejaVuSans-61"/>
     <use xlink:href="#DejaVuSans-6c" x="61.279297"/>
     <use xlink:href="#DejaVuSans-6c" x="89.0625"/>
     <use xlink:href="#DejaVuSans-20" x="116.845703"/>
     <use xlink:href="#DejaVuSans-64" x="148.632812"/>
     <use xlink:href="#DejaVuSans-65" x="212.109375"/>
     <use xlink:href="#DejaVuSans-70" x="273.632812"/>
     <use xlink:href="#DejaVuSans-74" x="337.109375"/>
     <use xlink:href="#DejaVuSans-68" x="376.318359"/>
     <use xlink:href="#DejaVuSans-73" x="439.697266"/>
    </g>
   </g>
   <g id="legend_1">
    <g id="patch_5">
     <path d="M 118.945312 325.35625 
L 299 325.35625 
Q 301 325.35625 301 323.35625 
L 301 309.4 
Q 301 307.4 299 307.4 
L 118.945312 307.4 
Q 116.945312 307.4 116.945312 309.4 
L 116.945312 323.35625 
Q 116.945312 325.35625 118.945312 325.35625 
z
" style="fill: #ffffff; opacity: 0.8; stroke: #cccccc; stroke-linejoin: miter"/>
    </g>
    <g id="line2d_24">
     <path d="M 120.945312 315.498437 
L 130.945312 315.498437 
L 140.945312 315.498437 
" style="fill: none; stroke: #808080; stroke-width: 1.5; stroke-linecap: square"/>
    </g>
    <g id="text_13">
     <!-- V23_superficial_deveined_sur -->
     <g transform="translate(148.945312 318.998437) scale(0.1 -0.1)">
      <defs>
       <path id="DejaVuSans-56" d="M 1831 0 
L 50 4666 
L 709 4666 
L 2188 738 
L 3669 4666 
L 4325 4666 
L 2547 0 
L 1831 0 
z
" transform="scale(0.015625)"/>
       <path id="DejaVuSans-5f" d="M 3263 -1063 
L 3263 -1509 
L -63 -1509 
L -63 -1063 
L 3263 -1063 
z
" transform="scale(0.015625)"/>
       <path id="DejaVuSans-75" d="M 544 1381 
L 544 3500 
L 1119 3500 
L 1119 1403 
Q 1119 906 1312 657 
Q 1506 409 1894 409 
Q 2359 409 2629 706 
Q 2900 1003 2900 1516 
L 2900 3500 
L 3475 3500 
L 3475 0 
L 2900 0 
L 2900 538 
Q 2691 219 2414 64 
Q 2138 -91 1772 -91 
Q 1169 -91 856 284 
Q 544 659 544 1381 
z
M 1991 3584 
L 1991 3584 
z
" transform="scale(0.015625)"/>
      </defs>
      <use xlink:href="#DejaVuSans-56"/>
      <use xlink:href="#DejaVuSans-32" x="68.408203"/>
      <use xlink:href="#DejaVuSans-33" x="132.03125"/>
      <use xlink:href="#DejaVuSans-5f" x="195.654297"/>
      <use xlink:href="#DejaVuSans-73" x="245.654297"/>
      <use xlink:href="#DejaVuSans-75" x="297.753906"/>
      <use xlink:href="#DejaVuSans-70" x="361.132812"/>
      <use xlink:href="#DejaVuSans-65" x="424.609375"/>
      <use xlink:href="#DejaVuSans-72" x="486.132812"/>
      <use xlink:href="#DejaVuSans-66" x="527.246094"/>
      <use xlink:href="#DejaVuSans-69" x="562.451172"/>
      <use xlink:href="#DejaVuSans-63" x="590.234375"/>
      <use xlink:href="#DejaVuSans-69" x="645.214844"/>
      <use xlink:href="#DejaVuSans-61" x="672.998047"/>
      <use xlink:href="#DejaVuSans-6c" x="734.277344"/>
      <use xlink:href="#DejaVuSans-5f" x="762.060547"/>
      <use xlink:href="#DejaVuSans-64" x="812.060547"/>
      <use xlink:href="#DejaVuSans-65" x="875.537109"/>
      <use xlink:href="#DejaVuSans-76" x="937.060547"/>
      <use xlink:href="#DejaVuSans-65" x="996.240234"/>
      <use xlink:href="#DejaVuSans-69" x="1057.763672"/>
      <use xlink:href="#DejaVuSans-6e" x="1085.546875"/>
      <use xlink:href="#DejaVuSans-65" x="1148.925781"/>
      <use xlink:href="#DejaVuSans-64" x="1210.449219"/>
      <use xlink:href="#DejaVuSans-5f" x="1273.925781"/>
      <use xlink:href="#DejaVuSans-73" x="1323.925781"/>
      <use xlink:href="#DejaVuSans-75" x="1376.025391"/>
      <use xlink:href="#DejaVuSans-72" x="1439.404297"/>
     </g>
    </g>
   </g>
  </g>
 </g>
 <defs>
  <clipPath id="p793d4278f7">
   <rect x="54" y="302.4" width="252" height="86.4"/>
  </clipPath>
 </defs>
</svg>
