<?xml version="1.0" encoding="utf-8" standalone="no"?>
<!DOCTYPE svg PUBLIC "-//W3C//DTD SVG 1.1//EN"
  "http://www.w3.org/Graphics/SVG/1.1/DTD/svg11.dtd">
<svg xmlns:xlink="http://www.w3.org/1999/xlink" width="576pt" height="504pt" viewBox="0 0 576 504" xmlns="http://www.w3.org/2000/svg" version="1.1">
 <metadata>
  <rdf:RDF xmlns:dc="http://purl.org/dc/elements/1.1/" xmlns:cc="http://creativecommons.org/ns#" xmlns:rdf="http://www.w3.org/1999/02/22-rdf-syntax-ns#">
   <cc:Work>
    <dc:type rdf:resource="http://purl.org/dc/dcmitype/StillImage"/>
    <dc:date>2025-09-22T15:18:48.797102</dc:date>
    <dc:format>image/svg+xml</dc:format>
    <dc:creator>
     <cc:Agent>
      <dc:title>Matplotlib v3.8.0, https://matplotlib.org/</dc:title>
     </cc:Agent>
    </dc:creator>
   </cc:Work>
  </rdf:RDF>
 </metadata>
 <defs>
  <style type="text/css">*{stroke-linejoin: round; stroke-linecap: butt}</style>
 </defs>
 <g id="figure_1">
  <g id="patch_1">
   <path d="M 0 504 
L 576 504 
L 576 0 
L 0 0 
z
" style="fill: #ffffff"/>
  </g>
  <g id="axes_1">
   <g id="patch_2">
    <path d="M 86.4 241.92 
L 489.6 241.92 
L 489.6 40.32 
L 86.4 40.32 
z
" style="fill: #ffffff"/>
   </g>
   <g id="PolyCollection_1">
    <defs>
     <path id="m7e2eb614e2" d="M 86.4 -431.192059 
L 86.4 -411.257597 
L 94.628571 -410.33804 
L 102.857143 -409.510811 
L 111.085714 -408.793284 
L 119.314286 -408.525263 
L 127.542857 -408.306887 
L 135.771429 -408.259813 
L 144 -408.087042 
L 152.228571 -407.986938 
L 160.457143 -408.060671 
L 168.685714 -408.430044 
L 176.914286 -408.909453 
L 185.142857 -409.713262 
L 193.371429 -410.527608 
L 201.6 -410.648447 
L 209.828571 -410.336901 
L 218.057143 -410.416934 
L 226.285714 -410.769638 
L 234.514286 -411.235709 
L 242.742857 -411.638184 
L 250.971429 -411.773322 
L 259.2 -411.52176 
L 267.428571 -410.844738 
L 275.657143 -409.772064 
L 283.885714 -408.650854 
L 292.114286 -407.725025 
L 300.342857 -406.368628 
L 308.571429 -404.990284 
L 316.8 -403.857479 
L 325.028571 -402.526335 
L 333.257143 -400.971612 
L 341.485714 -399.148235 
L 349.714286 -397.456953 
L 357.942857 -395.841111 
L 366.171429 -394.476022 
L 374.4 -393.198884 
L 382.628571 -391.932768 
L 390.857143 -390.784512 
L 399.085714 -389.697434 
L 407.314286 -389.01245 
L 415.542857 -388.207489 
L 423.771429 -387.166842 
L 432 -386.125649 
L 440.228571 -385.54601 
L 448.457143 -384.986449 
L 456.685714 -384.249272 
L 464.914286 -383.735337 
L 473.142857 -383.167333 
L 481.371429 -382.356681 
L 489.6 -381.642186 
L 489.6 -398.589717 
L 489.6 -398.589717 
L 481.371429 -399.199293 
L 473.142857 -400.114834 
L 464.914286 -401.00851 
L 456.685714 -401.855859 
L 448.457143 -402.772399 
L 440.228571 -403.305846 
L 432 -403.779932 
L 423.771429 -404.676894 
L 415.542857 -405.492977 
L 407.314286 -406.009675 
L 399.085714 -406.594263 
L 390.857143 -407.89059 
L 382.628571 -409.278889 
L 374.4 -410.869721 
L 366.171429 -412.543942 
L 357.942857 -413.898217 
L 349.714286 -415.444107 
L 341.485714 -416.893451 
L 333.257143 -418.458198 
L 325.028571 -419.667774 
L 316.8 -420.644221 
L 308.571429 -421.535275 
L 300.342857 -422.652417 
L 292.114286 -423.758389 
L 283.885714 -424.463407 
L 275.657143 -425.208771 
L 267.428571 -426.018736 
L 259.2 -426.381199 
L 250.971429 -426.365951 
L 242.742857 -426.005244 
L 234.514286 -425.448241 
L 226.285714 -424.661867 
L 218.057143 -423.998043 
L 209.828571 -424.011059 
L 201.6 -424.691958 
L 193.371429 -424.749481 
L 185.142857 -424.008228 
L 176.914286 -423.292754 
L 168.685714 -423.090943 
L 160.457143 -423.016805 
L 152.228571 -423.182571 
L 144 -423.714058 
L 135.771429 -424.45731 
L 127.542857 -425.107365 
L 119.314286 -426.289781 
L 111.085714 -427.004385 
L 102.857143 -428.251052 
L 94.628571 -429.721546 
L 86.4 -431.192059 
z
" style="stroke: #00ffff; stroke-opacity: 0.4"/>
    </defs>
    <g clip-path="url(#pae89c8cc63)">
     <use xlink:href="#m7e2eb614e2" x="0" y="504" style="fill: #00ffff; fill-opacity: 0.4; stroke: #00ffff; stroke-opacity: 0.4"/>
    </g>
   </g>
   <g id="matplotlib.axis_1">
    <g id="xtick_1">
     <g id="line2d_1">
      <defs>
       <path id="m8d50ad3ab4" d="M 0 0 
L 0 3.5 
" style="stroke: #000000; stroke-width: 0.8"/>
      </defs>
      <g>
       <use xlink:href="#m8d50ad3ab4" x="86.4" y="245.92" style="stroke: #000000; stroke-width: 0.8"/>
      </g>
     </g>
    </g>
    <g id="xtick_2">
     <g id="line2d_2">
      <g>
       <use xlink:href="#m8d50ad3ab4" x="167.04" y="245.92" style="stroke: #000000; stroke-width: 0.8"/>
      </g>
     </g>
    </g>
    <g id="xtick_3">
     <g id="line2d_3">
      <g>
       <use xlink:href="#m8d50ad3ab4" x="247.68" y="245.92" style="stroke: #000000; stroke-width: 0.8"/>
      </g>
     </g>
    </g>
    <g id="xtick_4">
     <g id="line2d_4">
      <g>
       <use xlink:href="#m8d50ad3ab4" x="328.32" y="245.92" style="stroke: #000000; stroke-width: 0.8"/>
      </g>
     </g>
    </g>
    <g id="xtick_5">
     <g id="line2d_5">
      <g>
       <use xlink:href="#m8d50ad3ab4" x="408.96" y="245.92" style="stroke: #000000; stroke-width: 0.8"/>
      </g>
     </g>
    </g>
    <g id="xtick_6">
     <g id="line2d_6">
      <g>
       <use xlink:href="#m8d50ad3ab4" x="489.6" y="245.92" style="stroke: #000000; stroke-width: 0.8"/>
      </g>
     </g>
    </g>
   </g>
   <g id="matplotlib.axis_2">
    <g id="ytick_1">
     <g id="line2d_7">
      <defs>
       <path id="ma15549277b" d="M 0 0 
L -3.5 0 
" style="stroke: #000000; stroke-width: 0.8"/>
      </defs>
      <g>
       <use xlink:href="#ma15549277b" x="82.4" y="241.92" style="stroke: #000000; stroke-width: 0.8"/>
      </g>
     </g>
     <g id="text_1">
      <!-- −2.0 -->
      <g transform="translate(51.117187 245.719219) scale(0.1 -0.1)">
       <defs>
        <path id="DejaVuSans-2212" d="M 678 2272 
L 4684 2272 
L 4684 1741 
L 678 1741 
L 678 2272 
z
" transform="scale(0.015625)"/>
        <path id="DejaVuSans-32" d="M 1228 531 
L 3431 531 
L 3431 0 
L 469 0 
L 469 531 
Q 828 903 1448 1529 
Q 2069 2156 2228 2338 
Q 2531 2678 2651 2914 
Q 2772 3150 2772 3378 
Q 2772 3750 2511 3984 
Q 2250 4219 1831 4219 
Q 1534 4219 1204 4116 
Q 875 4013 500 3803 
L 500 4441 
Q 881 4594 1212 4672 
Q 1544 4750 1819 4750 
Q 2544 4750 2975 4387 
Q 3406 4025 3406 3419 
Q 3406 3131 3298 2873 
Q 3191 2616 2906 2266 
Q 2828 2175 2409 1742 
Q 1991 1309 1228 531 
z
" transform="scale(0.015625)"/>
        <path id="DejaVuSans-2e" d="M 684 794 
L 1344 794 
L 1344 0 
L 684 0 
L 684 794 
z
" transform="scale(0.015625)"/>
        <path id="DejaVuSans-30" d="M 2034 4250 
Q 1547 4250 1301 3770 
Q 1056 3291 1056 2328 
Q 1056 1369 1301 889 
Q 1547 409 2034 409 
Q 2525 409 2770 889 
Q 3016 1369 3016 2328 
Q 3016 3291 2770 3770 
Q 2525 4250 2034 4250 
z
M 2034 4750 
Q 2819 4750 3233 4129 
Q 3647 3509 3647 2328 
Q 3647 1150 3233 529 
Q 2819 -91 2034 -91 
Q 1250 -91 836 529 
Q 422 1150 422 2328 
Q 422 3509 836 4129 
Q 1250 4750 2034 4750 
z
" transform="scale(0.015625)"/>
       </defs>
       <use xlink:href="#DejaVuSans-2212"/>
       <use xlink:href="#DejaVuSans-32" x="83.789062"/>
       <use xlink:href="#DejaVuSans-2e" x="147.412109"/>
       <use xlink:href="#DejaVuSans-30" x="179.199219"/>
      </g>
     </g>
    </g>
    <g id="ytick_2">
     <g id="line2d_8">
      <g>
       <use xlink:href="#ma15549277b" x="82.4" y="216.72" style="stroke: #000000; stroke-width: 0.8"/>
      </g>
     </g>
     <g id="text_2">
      <!-- −1.5 -->
      <g transform="translate(51.117187 220.519219) scale(0.1 -0.1)">
       <defs>
        <path id="DejaVuSans-31" d="M 794 531 
L 1825 531 
L 1825 4091 
L 703 3866 
L 703 4441 
L 1819 4666 
L 2450 4666 
L 2450 531 
L 3481 531 
L 3481 0 
L 794 0 
L 794 531 
z
" transform="scale(0.015625)"/>
        <path id="DejaVuSans-35" d="M 691 4666 
L 3169 4666 
L 3169 4134 
L 1269 4134 
L 1269 2991 
Q 1406 3038 1543 3061 
Q 1681 3084 1819 3084 
Q 2600 3084 3056 2656 
Q 3513 2228 3513 1497 
Q 3513 744 3044 326 
Q 2575 -91 1722 -91 
Q 1428 -91 1123 -41 
Q 819 9 494 109 
L 494 744 
Q 775 591 1075 516 
Q 1375 441 1709 441 
Q 2250 441 2565 725 
Q 2881 1009 2881 1497 
Q 2881 1984 2565 2268 
Q 2250 2553 1709 2553 
Q 1456 2553 1204 2497 
Q 953 2441 691 2322 
L 691 4666 
z
" transform="scale(0.015625)"/>
       </defs>
       <use xlink:href="#DejaVuSans-2212"/>
       <use xlink:href="#DejaVuSans-31" x="83.789062"/>
       <use xlink:href="#DejaVuSans-2e" x="147.412109"/>
       <use xlink:href="#DejaVuSans-35" x="179.199219"/>
      </g>
     </g>
    </g>
    <g id="ytick_3">
     <g id="line2d_9">
      <g>
       <use xlink:href="#ma15549277b" x="82.4" y="191.52" style="stroke: #000000; stroke-width: 0.8"/>
      </g>
     </g>
     <g id="text_3">
      <!-- −1.0 -->
      <g transform="translate(51.117187 195.319219) scale(0.1 -0.1)">
       <use xlink:href="#DejaVuSans-2212"/>
       <use xlink:href="#DejaVuSans-31" x="83.789062"/>
       <use xlink:href="#DejaVuSans-2e" x="147.412109"/>
       <use xlink:href="#DejaVuSans-30" x="179.199219"/>
      </g>
     </g>
    </g>
    <g id="ytick_4">
     <g id="line2d_10">
      <g>
       <use xlink:href="#ma15549277b" x="82.4" y="166.32" style="stroke: #000000; stroke-width: 0.8"/>
      </g>
     </g>
     <g id="text_4">
      <!-- −0.5 -->
      <g transform="translate(51.117187 170.119219) scale(0.1 -0.1)">
       <use xlink:href="#DejaVuSans-2212"/>
       <use xlink:href="#DejaVuSans-30" x="83.789062"/>
       <use xlink:href="#DejaVuSans-2e" x="147.412109"/>
       <use xlink:href="#DejaVuSans-35" x="179.199219"/>
      </g>
     </g>
    </g>
    <g id="ytick_5">
     <g id="line2d_11">
      <g>
       <use xlink:href="#ma15549277b" x="82.4" y="141.12" style="stroke: #000000; stroke-width: 0.8"/>
      </g>
     </g>
     <g id="text_5">
      <!-- 0.0 -->
      <g transform="translate(59.496875 144.919219) scale(0.1 -0.1)">
       <use xlink:href="#DejaVuSans-30"/>
       <use xlink:href="#DejaVuSans-2e" x="63.623047"/>
       <use xlink:href="#DejaVuSans-30" x="95.410156"/>
      </g>
     </g>
    </g>
    <g id="ytick_6">
     <g id="line2d_12">
      <g>
       <use xlink:href="#ma15549277b" x="82.4" y="115.92" style="stroke: #000000; stroke-width: 0.8"/>
      </g>
     </g>
     <g id="text_6">
      <!-- 0.5 -->
      <g transform="translate(59.496875 119.719219) scale(0.1 -0.1)">
       <use xlink:href="#DejaVuSans-30"/>
       <use xlink:href="#DejaVuSans-2e" x="63.623047"/>
       <use xlink:href="#DejaVuSans-35" x="95.410156"/>
      </g>
     </g>
    </g>
    <g id="ytick_7">
     <g id="line2d_13">
      <g>
       <use xlink:href="#ma15549277b" x="82.4" y="90.72" style="stroke: #000000; stroke-width: 0.8"/>
      </g>
     </g>
     <g id="text_7">
      <!-- 1.0 -->
      <g transform="translate(59.496875 94.519219) scale(0.1 -0.1)">
       <use xlink:href="#DejaVuSans-31"/>
       <use xlink:href="#DejaVuSans-2e" x="63.623047"/>
       <use xlink:href="#DejaVuSans-30" x="95.410156"/>
      </g>
     </g>
    </g>
    <g id="ytick_8">
     <g id="line2d_14">
      <g>
       <use xlink:href="#ma15549277b" x="82.4" y="65.52" style="stroke: #000000; stroke-width: 0.8"/>
      </g>
     </g>
     <g id="text_8">
      <!-- 1.5 -->
      <g transform="translate(59.496875 69.319219) scale(0.1 -0.1)">
       <use xlink:href="#DejaVuSans-31"/>
       <use xlink:href="#DejaVuSans-2e" x="63.623047"/>
       <use xlink:href="#DejaVuSans-35" x="95.410156"/>
      </g>
     </g>
    </g>
    <g id="ytick_9">
     <g id="line2d_15">
      <g>
       <use xlink:href="#ma15549277b" x="82.4" y="40.32" style="stroke: #000000; stroke-width: 0.8"/>
      </g>
     </g>
     <g id="text_9">
      <!-- 2.0 -->
      <g transform="translate(59.496875 44.119219) scale(0.1 -0.1)">
       <use xlink:href="#DejaVuSans-32"/>
       <use xlink:href="#DejaVuSans-2e" x="63.623047"/>
       <use xlink:href="#DejaVuSans-30" x="95.410156"/>
      </g>
     </g>
    </g>
    <g id="text_10">
     <!-- BOLD % change -->
     <g transform="translate(45.453437 173.31625) rotate(-90) scale(0.08 -0.08)">
      <defs>
       <path id="DejaVuSans-42" d="M 1259 2228 
L 1259 519 
L 2272 519 
Q 2781 519 3026 730 
Q 3272 941 3272 1375 
Q 3272 1813 3026 2020 
Q 2781 2228 2272 2228 
L 1259 2228 
z
M 1259 4147 
L 1259 2741 
L 2194 2741 
Q 2656 2741 2882 2914 
Q 3109 3088 3109 3444 
Q 3109 3797 2882 3972 
Q 2656 4147 2194 4147 
L 1259 4147 
z
M 628 4666 
L 2241 4666 
Q 2963 4666 3353 4366 
Q 3744 4066 3744 3513 
Q 3744 3084 3544 2831 
Q 3344 2578 2956 2516 
Q 3422 2416 3680 2098 
Q 3938 1781 3938 1306 
Q 3938 681 3513 340 
Q 3088 0 2303 0 
L 628 0 
L 628 4666 
z
" transform="scale(0.015625)"/>
       <path id="DejaVuSans-4f" d="M 2522 4238 
Q 1834 4238 1429 3725 
Q 1025 3213 1025 2328 
Q 1025 1447 1429 934 
Q 1834 422 2522 422 
Q 3209 422 3611 934 
Q 4013 1447 4013 2328 
Q 4013 3213 3611 3725 
Q 3209 4238 2522 4238 
z
M 2522 4750 
Q 3503 4750 4090 4092 
Q 4678 3434 4678 2328 
Q 4678 1225 4090 567 
Q 3503 -91 2522 -91 
Q 1538 -91 948 565 
Q 359 1222 359 2328 
Q 359 3434 948 4092 
Q 1538 4750 2522 4750 
z
" transform="scale(0.015625)"/>
       <path id="DejaVuSans-4c" d="M 628 4666 
L 1259 4666 
L 1259 531 
L 3531 531 
L 3531 0 
L 628 0 
L 628 4666 
z
" transform="scale(0.015625)"/>
       <path id="DejaVuSans-44" d="M 1259 4147 
L 1259 519 
L 2022 519 
Q 2988 519 3436 956 
Q 3884 1394 3884 2338 
Q 3884 3275 3436 3711 
Q 2988 4147 2022 4147 
L 1259 4147 
z
M 628 4666 
L 1925 4666 
Q 3281 4666 3915 4102 
Q 4550 3538 4550 2338 
Q 4550 1131 3912 565 
Q 3275 0 1925 0 
L 628 0 
L 628 4666 
z
" transform="scale(0.015625)"/>
       <path id="DejaVuSans-20" transform="scale(0.015625)"/>
       <path id="DejaVuSans-25" d="M 4653 2053 
Q 4381 2053 4226 1822 
Q 4072 1591 4072 1178 
Q 4072 772 4226 539 
Q 4381 306 4653 306 
Q 4919 306 5073 539 
Q 5228 772 5228 1178 
Q 5228 1588 5073 1820 
Q 4919 2053 4653 2053 
z
M 4653 2450 
Q 5147 2450 5437 2106 
Q 5728 1763 5728 1178 
Q 5728 594 5436 251 
Q 5144 -91 4653 -91 
Q 4153 -91 3862 251 
Q 3572 594 3572 1178 
Q 3572 1766 3864 2108 
Q 4156 2450 4653 2450 
z
M 1428 4353 
Q 1159 4353 1004 4120 
Q 850 3888 850 3481 
Q 850 3069 1003 2837 
Q 1156 2606 1428 2606 
Q 1700 2606 1854 2837 
Q 2009 3069 2009 3481 
Q 2009 3884 1853 4118 
Q 1697 4353 1428 4353 
z
M 4250 4750 
L 4750 4750 
L 1831 -91 
L 1331 -91 
L 4250 4750 
z
M 1428 4750 
Q 1922 4750 2215 4408 
Q 2509 4066 2509 3481 
Q 2509 2891 2217 2550 
Q 1925 2209 1428 2209 
Q 931 2209 642 2551 
Q 353 2894 353 3481 
Q 353 4063 643 4406 
Q 934 4750 1428 4750 
z
" transform="scale(0.015625)"/>
       <path id="DejaVuSans-63" d="M 3122 3366 
L 3122 2828 
Q 2878 2963 2633 3030 
Q 2388 3097 2138 3097 
Q 1578 3097 1268 2742 
Q 959 2388 959 1747 
Q 959 1106 1268 751 
Q 1578 397 2138 397 
Q 2388 397 2633 464 
Q 2878 531 3122 666 
L 3122 134 
Q 2881 22 2623 -34 
Q 2366 -91 2075 -91 
Q 1284 -91 818 406 
Q 353 903 353 1747 
Q 353 2603 823 3093 
Q 1294 3584 2113 3584 
Q 2378 3584 2631 3529 
Q 2884 3475 3122 3366 
z
" transform="scale(0.015625)"/>
       <path id="DejaVuSans-68" d="M 3513 2113 
L 3513 0 
L 2938 0 
L 2938 2094 
Q 2938 2591 2744 2837 
Q 2550 3084 2163 3084 
Q 1697 3084 1428 2787 
Q 1159 2491 1159 1978 
L 1159 0 
L 581 0 
L 581 4863 
L 1159 4863 
L 1159 2956 
Q 1366 3272 1645 3428 
Q 1925 3584 2291 3584 
Q 2894 3584 3203 3211 
Q 3513 2838 3513 2113 
z
" transform="scale(0.015625)"/>
       <path id="DejaVuSans-61" d="M 2194 1759 
Q 1497 1759 1228 1600 
Q 959 1441 959 1056 
Q 959 750 1161 570 
Q 1363 391 1709 391 
Q 2188 391 2477 730 
Q 2766 1069 2766 1631 
L 2766 1759 
L 2194 1759 
z
M 3341 1997 
L 3341 0 
L 2766 0 
L 2766 531 
Q 2569 213 2275 61 
Q 1981 -91 1556 -91 
Q 1019 -91 701 211 
Q 384 513 384 1019 
Q 384 1609 779 1909 
Q 1175 2209 1959 2209 
L 2766 2209 
L 2766 2266 
Q 2766 2663 2505 2880 
Q 2244 3097 1772 3097 
Q 1472 3097 1187 3025 
Q 903 2953 641 2809 
L 641 3341 
Q 956 3463 1253 3523 
Q 1550 3584 1831 3584 
Q 2591 3584 2966 3190 
Q 3341 2797 3341 1997 
z
" transform="scale(0.015625)"/>
       <path id="DejaVuSans-6e" d="M 3513 2113 
L 3513 0 
L 2938 0 
L 2938 2094 
Q 2938 2591 2744 2837 
Q 2550 3084 2163 3084 
Q 1697 3084 1428 2787 
Q 1159 2491 1159 1978 
L 1159 0 
L 581 0 
L 581 3500 
L 1159 3500 
L 1159 2956 
Q 1366 3272 1645 3428 
Q 1925 3584 2291 3584 
Q 2894 3584 3203 3211 
Q 3513 2838 3513 2113 
z
" transform="scale(0.015625)"/>
       <path id="DejaVuSans-67" d="M 2906 1791 
Q 2906 2416 2648 2759 
Q 2391 3103 1925 3103 
Q 1463 3103 1205 2759 
Q 947 2416 947 1791 
Q 947 1169 1205 825 
Q 1463 481 1925 481 
Q 2391 481 2648 825 
Q 2906 1169 2906 1791 
z
M 3481 434 
Q 3481 -459 3084 -895 
Q 2688 -1331 1869 -1331 
Q 1566 -1331 1297 -1286 
Q 1028 -1241 775 -1147 
L 775 -588 
Q 1028 -725 1275 -790 
Q 1522 -856 1778 -856 
Q 2344 -856 2625 -561 
Q 2906 -266 2906 331 
L 2906 616 
Q 2728 306 2450 153 
Q 2172 0 1784 0 
Q 1141 0 747 490 
Q 353 981 353 1791 
Q 353 2603 747 3093 
Q 1141 3584 1784 3584 
Q 2172 3584 2450 3431 
Q 2728 3278 2906 2969 
L 2906 3500 
L 3481 3500 
L 3481 434 
z
" transform="scale(0.015625)"/>
       <path id="DejaVuSans-65" d="M 3597 1894 
L 3597 1613 
L 953 1613 
Q 991 1019 1311 708 
Q 1631 397 2203 397 
Q 2534 397 2845 478 
Q 3156 559 3463 722 
L 3463 178 
Q 3153 47 2828 -22 
Q 2503 -91 2169 -91 
Q 1331 -91 842 396 
Q 353 884 353 1716 
Q 353 2575 817 3079 
Q 1281 3584 2069 3584 
Q 2775 3584 3186 3129 
Q 3597 2675 3597 1894 
z
M 3022 2063 
Q 3016 2534 2758 2815 
Q 2500 3097 2075 3097 
Q 1594 3097 1305 2825 
Q 1016 2553 972 2059 
L 3022 2063 
z
" transform="scale(0.015625)"/>
      </defs>
      <use xlink:href="#DejaVuSans-42"/>
      <use xlink:href="#DejaVuSans-4f" x="66.853516"/>
      <use xlink:href="#DejaVuSans-4c" x="145.564453"/>
      <use xlink:href="#DejaVuSans-44" x="201.277344"/>
      <use xlink:href="#DejaVuSans-20" x="278.279297"/>
      <use xlink:href="#DejaVuSans-25" x="310.066406"/>
      <use xlink:href="#DejaVuSans-20" x="405.085938"/>
      <use xlink:href="#DejaVuSans-63" x="436.873047"/>
      <use xlink:href="#DejaVuSans-68" x="491.853516"/>
      <use xlink:href="#DejaVuSans-61" x="555.232422"/>
      <use xlink:href="#DejaVuSans-6e" x="616.511719"/>
      <use xlink:href="#DejaVuSans-67" x="679.890625"/>
      <use xlink:href="#DejaVuSans-65" x="743.367188"/>
     </g>
    </g>
   </g>
   <g id="line2d_16">
    <path d="M 86.4 82.775172 
L 94.628571 83.970207 
L 102.857143 85.119068 
L 111.085714 86.101165 
L 119.314286 86.592478 
L 127.542857 87.292874 
L 135.771429 87.641438 
L 144 88.09945 
L 152.228571 88.415245 
L 160.457143 88.461262 
L 168.685714 88.239507 
L 176.914286 87.898897 
L 185.142857 87.139255 
L 193.371429 86.361455 
L 201.6 86.329797 
L 209.828571 86.82602 
L 218.057143 86.792512 
L 226.285714 86.284247 
L 234.514286 85.658025 
L 242.742857 85.178286 
L 250.971429 84.930364 
L 259.2 85.04852 
L 267.428571 85.568263 
L 275.657143 86.509583 
L 283.885714 87.44287 
L 292.114286 88.258293 
L 300.342857 89.489478 
L 308.571429 90.737221 
L 316.8 91.74915 
L 325.028571 92.902946 
L 333.257143 94.285095 
L 341.485714 95.979157 
L 349.714286 97.54947 
L 357.942857 99.130336 
L 366.171429 100.490018 
L 374.4 101.965697 
L 382.628571 103.394172 
L 390.857143 104.662449 
L 399.085714 105.854151 
L 407.314286 106.488937 
L 415.542857 107.149767 
L 423.771429 108.078132 
L 432 109.04721 
L 440.228571 109.574072 
L 448.457143 110.120576 
L 456.685714 110.947434 
L 464.914286 111.628076 
L 473.142857 112.358917 
L 481.371429 113.222013 
L 489.6 113.884049 
" clip-path="url(#pae89c8cc63)" style="fill: none; stroke: #00ffff; stroke-width: 1.5; stroke-linecap: square"/>
   </g>
   <g id="line2d_17">
    <path d="M 86.4 67.999656 
L 94.628571 67.999656 
L 102.857143 67.999656 
L 111.085714 68.066148 
L 119.314286 68.360528 
L 127.542857 67.585647 
L 135.771429 69.312015 
L 144 72.663355 
L 152.228571 76.994361 
L 160.457143 81.114823 
L 168.685714 83.501228 
L 176.914286 82.456641 
L 185.142857 78.094466 
L 193.371429 71.870945 
L 201.6 68.589229 
L 209.828571 66.725317 
L 218.057143 64.467298 
L 226.285714 60.280367 
L 234.514286 55.706756 
L 242.742857 51.274516 
L 250.971429 48.069795 
L 259.2 45.510176 
L 267.428571 42.161992 
L 275.657143 39.717406 
L 283.885714 37.529735 
L 292.114286 37.011419 
L 300.342857 36.41591 
L 308.571429 36.017269 
L 316.8 35.657933 
L 325.028571 34.398928 
L 333.257143 33.054487 
L 341.485714 33.465168 
L 349.714286 34.138606 
L 357.942857 36.636972 
L 366.171429 38.83956 
L 374.4 42.971528 
L 382.628571 47.494441 
L 390.857143 51.534348 
L 399.085714 55.499516 
L 407.314286 56.715226 
L 415.542857 56.294162 
L 423.771429 56.703896 
L 432 59.926698 
L 440.228571 63.164595 
L 448.457143 66.135037 
L 456.685714 68.124597 
L 464.914286 69.173426 
L 473.142857 70.029088 
L 481.371429 70.877243 
L 489.6 71.418531 
" clip-path="url(#pae89c8cc63)" style="fill: none; stroke: #00ffff; stroke-opacity: 0.2; stroke-width: 1.5; stroke-linecap: square"/>
   </g>
   <g id="line2d_18">
    <path d="M 86.4 36.804971 
L 94.628571 36.871719 
L 102.857143 36.887593 
L 111.085714 37.509224 
L 119.314286 40.049606 
L 127.542857 42.752149 
L 135.771429 43.329079 
L 144 43.936051 
L 152.228571 43.24852 
L 160.457143 41.038519 
L 168.685714 40.098862 
L 176.914286 39.394291 
L 185.142857 38.849439 
L 193.371429 40.108466 
L 201.6 41.12986 
L 209.828571 42.550567 
L 218.057143 42.394778 
L 226.285714 40.813062 
L 234.514286 39.953995 
L 242.742857 41.060348 
L 250.971429 41.151175 
L 259.2 41.234791 
L 267.428571 41.609073 
L 275.657143 41.785421 
L 283.885714 41.927978 
L 292.114286 41.946219 
L 300.342857 42.664703 
L 308.571429 43.545682 
L 316.8 43.83665 
L 325.028571 44.3427 
L 333.257143 45.319307 
L 341.485714 46.199911 
L 349.714286 46.581757 
L 357.942857 47.217322 
L 366.171429 48.394764 
L 374.4 50.644132 
L 382.628571 51.087791 
L 390.857143 51.617278 
L 399.085714 52.175207 
L 407.314286 50.732105 
L 415.542857 48.734886 
L 423.771429 47.568941 
L 432 45.534136 
L 440.228571 42.788739 
L 448.457143 40.947886 
L 456.685714 41.999591 
L 464.914286 44.457213 
L 473.142857 47.340624 
L 481.371429 48.745945 
L 489.6 48.719693 
" clip-path="url(#pae89c8cc63)" style="fill: none; stroke: #00ffff; stroke-opacity: 0.2; stroke-width: 1.5; stroke-linecap: square"/>
   </g>
   <g id="line2d_19">
    <path d="M 86.4 118.944908 
L 94.628571 118.944908 
L 102.857143 118.772539 
L 111.085714 118.626782 
L 119.314286 118.679489 
L 127.542857 118.912435 
L 135.771429 119.16376 
L 144 119.291261 
L 152.228571 118.981728 
L 160.457143 118.958895 
L 168.685714 118.040502 
L 176.914286 117.749502 
L 185.142857 117.519375 
L 193.371429 117.667013 
L 201.6 118.382652 
L 209.828571 118.669989 
L 218.057143 118.558405 
L 226.285714 118.458708 
L 234.514286 117.99365 
L 242.742857 117.317396 
L 250.971429 116.763035 
L 259.2 116.911871 
L 267.428571 116.76824 
L 275.657143 116.597288 
L 283.885714 117.058674 
L 292.114286 118.094497 
L 300.342857 119.809042 
L 308.571429 121.554711 
L 316.8 122.667752 
L 325.028571 123.745424 
L 333.257143 124.68527 
L 341.485714 125.830406 
L 349.714286 126.523666 
L 357.942857 127.335214 
L 366.171429 127.851552 
L 374.4 128.207376 
L 382.628571 128.701397 
L 390.857143 129.593409 
L 399.085714 130.236302 
L 407.314286 130.833169 
L 415.542857 131.554597 
L 423.771429 132.0049 
L 432 132.682255 
L 440.228571 133.288317 
L 448.457143 134.137001 
L 456.685714 134.901124 
L 464.914286 135.193338 
L 473.142857 135.489195 
L 481.371429 135.302485 
L 489.6 134.829347 
" clip-path="url(#pae89c8cc63)" style="fill: none; stroke: #00ffff; stroke-opacity: 0.2; stroke-width: 1.5; stroke-linecap: square"/>
   </g>
   <g id="line2d_20">
    <path d="M 86.4 64.159438 
L 94.628571 64.956066 
L 102.857143 65.252946 
L 111.085714 67.185829 
L 119.314286 71.540047 
L 127.542857 73.914696 
L 135.771429 75.220828 
L 144 76.63237 
L 152.228571 77.565257 
L 160.457143 77.792195 
L 168.685714 78.131568 
L 176.914286 79.576325 
L 185.142857 80.186147 
L 193.371429 80.84715 
L 201.6 81.030068 
L 209.828571 82.09801 
L 218.057143 82.385782 
L 226.285714 82.218527 
L 234.514286 81.279444 
L 242.742857 80.542946 
L 250.971429 80.505759 
L 259.2 80.780407 
L 267.428571 80.91466 
L 275.657143 81.019571 
L 283.885714 81.275836 
L 292.114286 81.637718 
L 300.342857 82.521032 
L 308.571429 84.242496 
L 316.8 85.945963 
L 325.028571 87.911252 
L 333.257143 89.35393 
L 341.485714 91.090335 
L 349.714286 92.905095 
L 357.942857 94.588922 
L 366.171429 95.306617 
L 374.4 95.230587 
L 382.628571 94.814132 
L 390.857143 93.29653 
L 399.085714 92.162429 
L 407.314286 91.481451 
L 415.542857 91.152387 
L 423.771429 91.788476 
L 432 91.69265 
L 440.228571 90.902336 
L 448.457143 90.55355 
L 456.685714 91.126474 
L 464.914286 92.430913 
L 473.142857 92.892011 
L 481.371429 94.663425 
L 489.6 96.436203 
" clip-path="url(#pae89c8cc63)" style="fill: none; stroke: #00ffff; stroke-opacity: 0.2; stroke-width: 1.5; stroke-linecap: square"/>
   </g>
   <g id="line2d_21">
    <path d="M 86.4 114.259345 
L 94.628571 114.259345 
L 102.857143 113.917299 
L 111.085714 113.781481 
L 119.314286 113.95547 
L 127.542857 114.53079 
L 135.771429 114.663316 
L 144 115.255277 
L 152.228571 115.586188 
L 160.457143 114.415103 
L 168.685714 113.807039 
L 176.914286 112.565115 
L 185.142857 111.996682 
L 193.371429 110.953146 
L 201.6 110.195643 
L 209.828571 109.878667 
L 218.057143 109.599349 
L 226.285714 109.99124 
L 234.514286 110.95728 
L 242.742857 111.531684 
L 250.971429 111.618555 
L 259.2 112.050065 
L 267.428571 113.022816 
L 275.657143 114.445581 
L 283.885714 116.310565 
L 292.114286 118.059515 
L 300.342857 119.85142 
L 308.571429 121.475419 
L 316.8 123.068176 
L 325.028571 124.621252 
L 333.257143 126.342589 
L 341.485714 127.805233 
L 349.714286 129.583421 
L 357.942857 131.389476 
L 366.171429 133.038352 
L 374.4 134.624297 
L 382.628571 136.06071 
L 390.857143 137.148644 
L 399.085714 138.111728 
L 407.314286 138.55287 
L 415.542857 138.7663 
L 423.771429 138.553599 
L 432 138.527294 
L 440.228571 138.112476 
L 448.457143 138.566573 
L 456.685714 139.160657 
L 464.914286 138.335776 
L 473.142857 137.187823 
L 481.371429 136.821903 
L 489.6 136.925868 
" clip-path="url(#pae89c8cc63)" style="fill: none; stroke: #00ffff; stroke-opacity: 0.2; stroke-width: 1.5; stroke-linecap: square"/>
   </g>
   <g id="line2d_22">
    <path d="M 86.4 132.227464 
L 94.628571 132.324511 
L 102.857143 131.898818 
L 111.085714 131.052347 
L 119.314286 129.010421 
L 127.542857 127.611811 
L 135.771429 127.294424 
L 144 125.684381 
L 152.228571 124.496551 
L 160.457143 122.93076 
L 168.685714 121.295108 
L 176.914286 119.804782 
L 185.142857 118.851421 
L 193.371429 118.412913 
L 201.6 119.298578 
L 209.828571 120.43601 
L 218.057143 120.592385 
L 226.285714 120.106897 
L 234.514286 119.619797 
L 242.742857 119.001795 
L 250.971429 118.820098 
L 259.2 119.589822 
L 267.428571 120.440274 
L 275.657143 121.121938 
L 283.885714 121.982141 
L 292.114286 121.807338 
L 300.342857 122.322493 
L 308.571429 122.769261 
L 316.8 123.674488 
L 325.028571 124.837785 
L 333.257143 125.848157 
L 341.485714 126.802721 
L 349.714286 127.646628 
L 357.942857 129.4131 
L 366.171429 131.405508 
L 374.4 132.789864 
L 382.628571 133.842647 
L 390.857143 135.050711 
L 399.085714 135.955214 
L 407.314286 136.556085 
L 415.542857 136.891197 
L 423.771429 137.850189 
L 432 138.561811 
L 440.228571 138.655584 
L 448.457143 138.729415 
L 456.685714 139.150661 
L 464.914286 139.467199 
L 473.142857 139.557399 
L 481.371429 140.028064 
L 489.6 140.944989 
" clip-path="url(#pae89c8cc63)" style="fill: none; stroke: #00ffff; stroke-opacity: 0.2; stroke-width: 1.5; stroke-linecap: square"/>
   </g>
   <g id="line2d_23">
    <path d="M 86.4 12.557864 
L 94.628571 16.255398 
L 102.857143 22.31277 
L 111.085714 25.683973 
L 119.314286 25.229698 
L 127.542857 30.092153 
L 135.771429 33.669664 
L 144 36.381227 
L 152.228571 39.002558 
L 160.457143 40.859441 
L 168.685714 42.429033 
L 176.914286 44.611834 
L 185.142857 45.953198 
L 193.371429 46.442758 
L 201.6 50.541977 
L 209.828571 57.337342 
L 218.057143 61.288686 
L 226.285714 62.740909 
L 234.514286 63.950431 
L 242.742857 63.958232 
L 250.971429 62.892295 
L 259.2 62.25669 
L 267.428571 62.501099 
L 275.657143 64.830122 
L 283.885714 66.209056 
L 292.114286 66.251844 
L 300.342857 66.840959 
L 308.571429 66.626978 
L 316.8 67.38271 
L 325.028571 68.320177 
L 333.257143 69.689594 
L 341.485714 70.567805 
L 349.714286 72.56764 
L 357.942857 73.918005 
L 366.171429 75.216552 
L 374.4 76.80977 
L 382.628571 79.634629 
L 390.857143 82.386103 
L 399.085714 84.132598 
L 407.314286 85.878324 
L 415.542857 87.660056 
L 423.771429 88.375871 
L 432 88.83925 
L 440.228571 89.774114 
L 448.457143 90.265434 
L 456.685714 90.827741 
L 464.914286 91.241837 
L 473.142857 92.070689 
L 481.371429 92.33097 
L 489.6 92.049773 
" clip-path="url(#pae89c8cc63)" style="fill: none; stroke: #00ffff; stroke-opacity: 0.2; stroke-width: 1.5; stroke-linecap: square"/>
   </g>
   <g id="line2d_24">
    <path d="M 86.4 75.234883 
L 94.628571 75.271426 
L 102.857143 75.448464 
L 111.085714 76.069076 
L 119.314286 76.310828 
L 127.542857 75.609304 
L 135.771429 75.559066 
L 144 75.498366 
L 152.228571 75.191478 
L 160.457143 74.562307 
L 168.685714 73.650726 
L 176.914286 71.860876 
L 185.142857 69.975942 
L 193.371429 68.269562 
L 201.6 66.661807 
L 209.828571 65.27477 
L 218.057143 64.600096 
L 226.285714 63.648747 
L 234.514286 62.412952 
L 242.742857 62.079568 
L 250.971429 62.504039 
L 259.2 64.005153 
L 267.428571 66.672408 
L 275.657143 68.966699 
L 283.885714 71.192048 
L 292.114286 73.550097 
L 300.342857 76.513443 
L 308.571429 79.601781 
L 316.8 81.907449 
L 325.028571 84.075058 
L 333.257143 86.777294 
L 341.485714 88.980498 
L 349.714286 90.332174 
L 357.942857 91.69329 
L 366.171429 92.756946 
L 374.4 94.163836 
L 382.628571 95.816936 
L 390.857143 97.000039 
L 399.085714 99.157863 
L 407.314286 101.508041 
L 415.542857 104.223253 
L 423.771429 106.697107 
L 432 109.265712 
L 440.228571 111.246553 
L 448.457143 113.409658 
L 456.685714 115.119408 
L 464.914286 115.856897 
L 473.142857 116.536648 
L 481.371429 118.286796 
L 489.6 119.721317 
" clip-path="url(#pae89c8cc63)" style="fill: none; stroke: #00ffff; stroke-opacity: 0.2; stroke-width: 1.5; stroke-linecap: square"/>
   </g>
   <g id="line2d_25">
    <path d="M 86.4 109.953606 
L 94.628571 110.541884 
L 102.857143 112.333631 
L 111.085714 112.680151 
L 119.314286 111.627267 
L 127.542857 107.643148 
L 135.771429 105.233672 
L 144 103.198385 
L 152.228571 102.552488 
L 160.457143 102.418194 
L 168.685714 101.962268 
L 176.914286 101.982145 
L 185.142857 101.395555 
L 193.371429 100.750243 
L 201.6 101.404167 
L 209.828571 102.130873 
L 218.057143 102.230101 
L 226.285714 102.485764 
L 234.514286 102.611157 
L 242.742857 103.641545 
L 250.971429 104.382163 
L 259.2 105.229237 
L 267.428571 106.559491 
L 275.657143 108.227687 
L 283.885714 109.917225 
L 292.114286 111.202567 
L 300.342857 112.857443 
L 308.571429 115.136285 
L 316.8 116.933222 
L 325.028571 118.612241 
L 333.257143 120.155352 
L 341.485714 121.990272 
L 349.714286 124.225832 
L 357.942857 125.932415 
L 366.171429 127.394436 
L 374.4 128.702601 
L 382.628571 130.028372 
L 390.857143 131.033241 
L 399.085714 131.507679 
L 407.314286 131.968077 
L 415.542857 132.002859 
L 423.771429 132.563189 
L 432 133.706285 
L 440.228571 134.534939 
L 448.457143 135.182447 
L 456.685714 135.161423 
L 464.914286 135.473188 
L 473.142857 136.022596 
L 481.371429 136.97702 
L 489.6 137.238125 
" clip-path="url(#pae89c8cc63)" style="fill: none; stroke: #00ffff; stroke-opacity: 0.2; stroke-width: 1.5; stroke-linecap: square"/>
   </g>
   <g id="line2d_26">
    <path d="M 86.4 103.791032 
L 94.628571 104.483403 
L 102.857143 104.957311 
L 111.085714 104.739524 
L 119.314286 103.958108 
L 127.542857 103.382693 
L 135.771429 102.494124 
L 144 101.6923 
L 152.228571 100.508124 
L 160.457143 99.001616 
L 168.685714 97.519417 
L 176.914286 95.736682 
L 185.142857 94.906548 
L 193.371429 94.568523 
L 201.6 94.720809 
L 209.828571 94.819488 
L 218.057143 95.24717 
L 226.285714 95.492164 
L 234.514286 95.379852 
L 242.742857 94.908397 
L 250.971429 94.934624 
L 259.2 95.779149 
L 267.428571 97.667987 
L 275.657143 99.53155 
L 283.885714 101.504014 
L 292.114286 103.089521 
L 300.342857 104.67661 
L 308.571429 106.1878 
L 316.8 107.899018 
L 325.028571 109.876061 
L 333.257143 112.482952 
L 341.485714 115.266907 
L 349.714286 117.411299 
L 357.942857 119.348376 
L 366.171429 121.052604 
L 374.4 122.739591 
L 382.628571 124.059085 
L 390.857143 125.37907 
L 399.085714 126.842668 
L 407.314286 128.384556 
L 415.542857 130.159051 
L 423.771429 131.978171 
L 432 133.966867 
L 440.228571 134.582372 
L 448.457143 134.452202 
L 456.685714 133.94394 
L 464.914286 133.886393 
L 473.142857 134.090745 
L 481.371429 134.971355 
L 489.6 135.92755 
" clip-path="url(#pae89c8cc63)" style="fill: none; stroke: #00ffff; stroke-opacity: 0.2; stroke-width: 1.5; stroke-linecap: square"/>
   </g>
   <g id="line2d_27">
    <path d="M 86.4 60.225049 
L 94.628571 68.340824 
L 102.857143 73.464832 
L 111.085714 78.191693 
L 119.314286 79.408768 
L 127.542857 85.602222 
L 135.771429 87.828092 
L 144 88.792341 
L 152.228571 89.114694 
L 160.457143 91.696672 
L 168.685714 92.818912 
L 176.914286 94.348498 
L 185.142857 94.194764 
L 193.371429 93.562458 
L 201.6 92.54761 
L 209.828571 92.14192 
L 218.057143 91.67825 
L 226.285714 91.877015 
L 234.514286 91.432219 
L 242.742857 89.342263 
L 250.971429 89.307973 
L 259.2 88.876979 
L 267.428571 90.714694 
L 275.657143 93.827397 
L 283.885714 96.318273 
L 292.114286 97.662741 
L 300.342857 100.011697 
L 308.571429 102.126015 
L 316.8 102.757824 
L 325.028571 105.088219 
L 333.257143 108.482767 
L 341.485714 113.262459 
L 349.714286 117.776298 
L 357.942857 121.048433 
L 366.171429 123.2573 
L 374.4 123.430581 
L 382.628571 124.218457 
L 390.857143 125.265583 
L 399.085714 126.995828 
L 407.314286 126.959712 
L 415.542857 128.103442 
L 423.771429 130.279615 
L 432 131.68305 
L 440.228571 132.177697 
L 448.457143 131.344111 
L 456.685714 132.706253 
L 464.914286 134.287776 
L 473.142857 136.561941 
L 481.371429 138.715255 
L 489.6 141.003612 
" clip-path="url(#pae89c8cc63)" style="fill: none; stroke: #00ffff; stroke-opacity: 0.2; stroke-width: 1.5; stroke-linecap: square"/>
   </g>
   <g id="line2d_28">
    <path d="M 86.4 97.143851 
L 94.628571 97.393346 
L 102.857143 98.182964 
L 111.085714 99.627759 
L 119.314286 100.979504 
L 127.542857 99.877441 
L 135.771429 97.92922 
L 144 98.168082 
L 152.228571 97.740999 
L 160.457143 96.74662 
L 168.685714 95.619415 
L 176.914286 94.70007 
L 185.142857 93.747523 
L 193.371429 92.884287 
L 201.6 91.455169 
L 209.828571 89.849285 
L 218.057143 88.467841 
L 226.285714 87.297566 
L 234.514286 86.59877 
L 242.742857 87.480739 
L 250.971429 88.214854 
L 259.2 88.357906 
L 267.428571 87.786423 
L 275.657143 88.044334 
L 283.885714 88.088893 
L 292.114286 88.786038 
L 300.342857 89.388978 
L 308.571429 89.562952 
L 316.8 89.258613 
L 325.028571 89.006255 
L 333.257143 89.229442 
L 341.485714 90.488171 
L 349.714286 90.901222 
L 357.942857 91.042512 
L 366.171429 91.366025 
L 374.4 93.274203 
L 382.628571 94.971462 
L 390.857143 96.64443 
L 399.085714 97.472785 
L 407.314286 98.297631 
L 415.542857 100.255015 
L 423.771429 102.573632 
L 432 104.180509 
L 440.228571 105.661144 
L 448.457143 107.723601 
L 456.685714 109.147341 
L 464.914286 109.732959 
L 473.142857 110.528245 
L 481.371429 110.943692 
L 489.6 111.393573 
" clip-path="url(#pae89c8cc63)" style="fill: none; stroke: #00ffff; stroke-opacity: 0.2; stroke-width: 1.5; stroke-linecap: square"/>
   </g>
   <g id="line2d_29">
    <path d="M 167.04 241.92 
L 167.04 40.32 
" clip-path="url(#pae89c8cc63)" style="fill: none; stroke-dasharray: 5.55,2.4; stroke-dashoffset: 0; stroke: #000000; stroke-width: 1.5"/>
   </g>
   <g id="line2d_30">
    <path d="M 86.4 141.12 
L 489.6 141.12 
" clip-path="url(#pae89c8cc63)" style="fill: none; stroke-dasharray: 5.55,2.4; stroke-dashoffset: 0; stroke: #000000; stroke-width: 1.5"/>
   </g>
   <g id="patch_3">
    <path d="M 82.4 241.92 
L 82.4 40.32 
" style="fill: none; stroke: #000000; stroke-width: 0.8; stroke-linejoin: miter; stroke-linecap: square"/>
   </g>
   <g id="patch_4">
    <path d="M 86.4 245.92 
L 489.6 245.92 
" style="fill: none; stroke: #000000; stroke-width: 0.8; stroke-linejoin: miter; stroke-linecap: square"/>
   </g>
   <g id="text_11">
    <!-- all depths -->
    <g transform="translate(268.328125 34.32) scale(0.08 -0.08)">
     <defs>
      <path id="DejaVuSans-6c" d="M 603 4863 
L 1178 4863 
L 1178 0 
L 603 0 
L 603 4863 
z
" transform="scale(0.015625)"/>
      <path id="DejaVuSans-64" d="M 2906 2969 
L 2906 4863 
L 3481 4863 
L 3481 0 
L 2906 0 
L 2906 525 
Q 2725 213 2448 61 
Q 2172 -91 1784 -91 
Q 1150 -91 751 415 
Q 353 922 353 1747 
Q 353 2572 751 3078 
Q 1150 3584 1784 3584 
Q 2172 3584 2448 3432 
Q 2725 3281 2906 2969 
z
M 947 1747 
Q 947 1113 1208 752 
Q 1469 391 1925 391 
Q 2381 391 2643 752 
Q 2906 1113 2906 1747 
Q 2906 2381 2643 2742 
Q 2381 3103 1925 3103 
Q 1469 3103 1208 2742 
Q 947 2381 947 1747 
z
" transform="scale(0.015625)"/>
      <path id="DejaVuSans-70" d="M 1159 525 
L 1159 -1331 
L 581 -1331 
L 581 3500 
L 1159 3500 
L 1159 2969 
Q 1341 3281 1617 3432 
Q 1894 3584 2278 3584 
Q 2916 3584 3314 3078 
Q 3713 2572 3713 1747 
Q 3713 922 3314 415 
Q 2916 -91 2278 -91 
Q 1894 -91 1617 61 
Q 1341 213 1159 525 
z
M 3116 1747 
Q 3116 2381 2855 2742 
Q 2594 3103 2138 3103 
Q 1681 3103 1420 2742 
Q 1159 2381 1159 1747 
Q 1159 1113 1420 752 
Q 1681 391 2138 391 
Q 2594 391 2855 752 
Q 3116 1113 3116 1747 
z
" transform="scale(0.015625)"/>
      <path id="DejaVuSans-74" d="M 1172 4494 
L 1172 3500 
L 2356 3500 
L 2356 3053 
L 1172 3053 
L 1172 1153 
Q 1172 725 1289 603 
Q 1406 481 1766 481 
L 2356 481 
L 2356 0 
L 1766 0 
Q 1100 0 847 248 
Q 594 497 594 1153 
L 594 3053 
L 172 3053 
L 172 3500 
L 594 3500 
L 594 4494 
L 1172 4494 
z
" transform="scale(0.015625)"/>
      <path id="DejaVuSans-73" d="M 2834 3397 
L 2834 2853 
Q 2591 2978 2328 3040 
Q 2066 3103 1784 3103 
Q 1356 3103 1142 2972 
Q 928 2841 928 2578 
Q 928 2378 1081 2264 
Q 1234 2150 1697 2047 
L 1894 2003 
Q 2506 1872 2764 1633 
Q 3022 1394 3022 966 
Q 3022 478 2636 193 
Q 2250 -91 1575 -91 
Q 1294 -91 989 -36 
Q 684 19 347 128 
L 347 722 
Q 666 556 975 473 
Q 1284 391 1588 391 
Q 1994 391 2212 530 
Q 2431 669 2431 922 
Q 2431 1156 2273 1281 
Q 2116 1406 1581 1522 
L 1381 1569 
Q 847 1681 609 1914 
Q 372 2147 372 2553 
Q 372 3047 722 3315 
Q 1072 3584 1716 3584 
Q 2034 3584 2315 3537 
Q 2597 3491 2834 3397 
z
" transform="scale(0.015625)"/>
     </defs>
     <use xlink:href="#DejaVuSans-61"/>
     <use xlink:href="#DejaVuSans-6c" x="61.279297"/>
     <use xlink:href="#DejaVuSans-6c" x="89.0625"/>
     <use xlink:href="#DejaVuSans-20" x="116.845703"/>
     <use xlink:href="#DejaVuSans-64" x="148.632812"/>
     <use xlink:href="#DejaVuSans-65" x="212.109375"/>
     <use xlink:href="#DejaVuSans-70" x="273.632812"/>
     <use xlink:href="#DejaVuSans-74" x="337.109375"/>
     <use xlink:href="#DejaVuSans-68" x="376.318359"/>
     <use xlink:href="#DejaVuSans-73" x="439.697266"/>
    </g>
   </g>
   <g id="legend_1">
    <g id="patch_5">
     <path d="M 93.4 62.998125 
L 139.735937 62.998125 
Q 141.735937 62.998125 141.735937 60.998125 
L 141.735937 47.32 
Q 141.735937 45.32 139.735937 45.32 
L 93.4 45.32 
Q 91.4 45.32 91.4 47.32 
L 91.4 60.998125 
Q 91.4 62.998125 93.4 62.998125 
z
" style="fill: #ffffff; opacity: 0.8; stroke: #cccccc; stroke-linejoin: miter"/>
    </g>
    <g id="line2d_31">
     <path d="M 95.4 53.418437 
L 105.4 53.418437 
L 115.4 53.418437 
" style="fill: none; stroke: #00ffff; stroke-width: 1.5; stroke-linecap: square"/>
    </g>
    <g id="text_12">
     <!-- dsi -->
     <g transform="translate(123.4 56.918437) scale(0.1 -0.1)">
      <defs>
       <path id="DejaVuSans-69" d="M 603 3500 
L 1178 3500 
L 1178 0 
L 603 0 
L 603 3500 
z
M 603 4863 
L 1178 4863 
L 1178 4134 
L 603 4134 
L 603 4863 
z
" transform="scale(0.015625)"/>
      </defs>
      <use xlink:href="#DejaVuSans-64"/>
      <use xlink:href="#DejaVuSans-73" x="63.476562"/>
      <use xlink:href="#DejaVuSans-69" x="115.576172"/>
     </g>
    </g>
   </g>
  </g>
  <g id="axes_2">
   <g id="patch_6">
    <path d="M 86.4 443.52 
L 489.6 443.52 
L 489.6 292.32 
L 86.4 292.32 
z
" style="fill: #ffffff"/>
   </g>
   <g id="patch_7">
    <path d="M 90.432 367.92 
L 163.008 367.92 
L 163.008 281.628696 
L 90.432 281.628696 
z
" clip-path="url(#p16add1f81b)" style="fill: #00ffff; opacity: 0.6"/>
   </g>
   <g id="patch_8">
    <path d="M 171.072 367.92 
L 243.648 367.92 
L 243.648 288.282713 
L 171.072 288.282713 
z
" clip-path="url(#p16add1f81b)" style="fill: #00ffff; opacity: 0.6"/>
   </g>
   <g id="patch_9">
    <path d="M 251.712 367.92 
L 324.288 367.92 
L 324.288 284.871711 
L 251.712 284.871711 
z
" clip-path="url(#p16add1f81b)" style="fill: #00ffff; opacity: 0.6"/>
   </g>
   <g id="patch_10">
    <path d="M 332.352 367.92 
L 404.928 367.92 
L 404.928 304.720437 
L 332.352 304.720437 
z
" clip-path="url(#p16add1f81b)" style="fill: #00ffff; opacity: 0.6"/>
   </g>
   <g id="patch_11">
    <path d="M 412.992 367.92 
L 485.568 367.92 
L 485.568 321.811421 
L 412.992 321.811421 
z
" clip-path="url(#p16add1f81b)" style="fill: #00ffff; opacity: 0.6"/>
   </g>
   <g id="matplotlib.axis_3">
    <g id="xtick_7">
     <g id="line2d_32">
      <g>
       <use xlink:href="#m8d50ad3ab4" x="86.4" y="447.52" style="stroke: #000000; stroke-width: 0.8"/>
      </g>
     </g>
     <g id="text_13">
      <!-- 0 -->
      <g transform="translate(83.21875 462.118438) scale(0.1 -0.1)">
       <use xlink:href="#DejaVuSans-30"/>
      </g>
     </g>
    </g>
    <g id="xtick_8">
     <g id="line2d_33">
      <g>
       <use xlink:href="#m8d50ad3ab4" x="167.04" y="447.52" style="stroke: #000000; stroke-width: 0.8"/>
      </g>
     </g>
     <g id="text_14">
      <!-- 1 -->
      <g transform="translate(163.85875 462.118438) scale(0.1 -0.1)">
       <use xlink:href="#DejaVuSans-31"/>
      </g>
     </g>
    </g>
    <g id="xtick_9">
     <g id="line2d_34">
      <g>
       <use xlink:href="#m8d50ad3ab4" x="247.68" y="447.52" style="stroke: #000000; stroke-width: 0.8"/>
      </g>
     </g>
     <g id="text_15">
      <!-- 2 -->
      <g transform="translate(244.49875 462.118438) scale(0.1 -0.1)">
       <use xlink:href="#DejaVuSans-32"/>
      </g>
     </g>
    </g>
    <g id="xtick_10">
     <g id="line2d_35">
      <g>
       <use xlink:href="#m8d50ad3ab4" x="328.32" y="447.52" style="stroke: #000000; stroke-width: 0.8"/>
      </g>
     </g>
     <g id="text_16">
      <!-- 3 -->
      <g transform="translate(325.13875 462.118438) scale(0.1 -0.1)">
       <defs>
        <path id="DejaVuSans-33" d="M 2597 2516 
Q 3050 2419 3304 2112 
Q 3559 1806 3559 1356 
Q 3559 666 3084 287 
Q 2609 -91 1734 -91 
Q 1441 -91 1130 -33 
Q 819 25 488 141 
L 488 750 
Q 750 597 1062 519 
Q 1375 441 1716 441 
Q 2309 441 2620 675 
Q 2931 909 2931 1356 
Q 2931 1769 2642 2001 
Q 2353 2234 1838 2234 
L 1294 2234 
L 1294 2753 
L 1863 2753 
Q 2328 2753 2575 2939 
Q 2822 3125 2822 3475 
Q 2822 3834 2567 4026 
Q 2313 4219 1838 4219 
Q 1578 4219 1281 4162 
Q 984 4106 628 3988 
L 628 4550 
Q 988 4650 1302 4700 
Q 1616 4750 1894 4750 
Q 2613 4750 3031 4423 
Q 3450 4097 3450 3541 
Q 3450 3153 3228 2886 
Q 3006 2619 2597 2516 
z
" transform="scale(0.015625)"/>
       </defs>
       <use xlink:href="#DejaVuSans-33"/>
      </g>
     </g>
    </g>
    <g id="xtick_11">
     <g id="line2d_36">
      <g>
       <use xlink:href="#m8d50ad3ab4" x="408.96" y="447.52" style="stroke: #000000; stroke-width: 0.8"/>
      </g>
     </g>
     <g id="text_17">
      <!-- 4 -->
      <g transform="translate(405.77875 462.118438) scale(0.1 -0.1)">
       <defs>
        <path id="DejaVuSans-34" d="M 2419 4116 
L 825 1625 
L 2419 1625 
L 2419 4116 
z
M 2253 4666 
L 3047 4666 
L 3047 1625 
L 3713 1625 
L 3713 1100 
L 3047 1100 
L 3047 0 
L 2419 0 
L 2419 1100 
L 313 1100 
L 313 1709 
L 2253 4666 
z
" transform="scale(0.015625)"/>
       </defs>
       <use xlink:href="#DejaVuSans-34"/>
      </g>
     </g>
    </g>
    <g id="xtick_12">
     <g id="line2d_37">
      <g>
       <use xlink:href="#m8d50ad3ab4" x="489.6" y="447.52" style="stroke: #000000; stroke-width: 0.8"/>
      </g>
     </g>
     <g id="text_18">
      <!-- 5 -->
      <g transform="translate(486.41875 462.118438) scale(0.1 -0.1)">
       <use xlink:href="#DejaVuSans-35"/>
      </g>
     </g>
    </g>
    <g id="text_19">
     <!-- relative distance from ROI center ($\sigma$) -->
     <g transform="translate(214.48 474.276875) scale(0.08 -0.08)">
      <defs>
       <path id="DejaVuSans-72" d="M 2631 2963 
Q 2534 3019 2420 3045 
Q 2306 3072 2169 3072 
Q 1681 3072 1420 2755 
Q 1159 2438 1159 1844 
L 1159 0 
L 581 0 
L 581 3500 
L 1159 3500 
L 1159 2956 
Q 1341 3275 1631 3429 
Q 1922 3584 2338 3584 
Q 2397 3584 2469 3576 
Q 2541 3569 2628 3553 
L 2631 2963 
z
" transform="scale(0.015625)"/>
       <path id="DejaVuSans-76" d="M 191 3500 
L 800 3500 
L 1894 563 
L 2988 3500 
L 3597 3500 
L 2284 0 
L 1503 0 
L 191 3500 
z
" transform="scale(0.015625)"/>
       <path id="DejaVuSans-66" d="M 2375 4863 
L 2375 4384 
L 1825 4384 
Q 1516 4384 1395 4259 
Q 1275 4134 1275 3809 
L 1275 3500 
L 2222 3500 
L 2222 3053 
L 1275 3053 
L 1275 0 
L 697 0 
L 697 3053 
L 147 3053 
L 147 3500 
L 697 3500 
L 697 3744 
Q 697 4328 969 4595 
Q 1241 4863 1831 4863 
L 2375 4863 
z
" transform="scale(0.015625)"/>
       <path id="DejaVuSans-6f" d="M 1959 3097 
Q 1497 3097 1228 2736 
Q 959 2375 959 1747 
Q 959 1119 1226 758 
Q 1494 397 1959 397 
Q 2419 397 2687 759 
Q 2956 1122 2956 1747 
Q 2956 2369 2687 2733 
Q 2419 3097 1959 3097 
z
M 1959 3584 
Q 2709 3584 3137 3096 
Q 3566 2609 3566 1747 
Q 3566 888 3137 398 
Q 2709 -91 1959 -91 
Q 1206 -91 779 398 
Q 353 888 353 1747 
Q 353 2609 779 3096 
Q 1206 3584 1959 3584 
z
" transform="scale(0.015625)"/>
       <path id="DejaVuSans-6d" d="M 3328 2828 
Q 3544 3216 3844 3400 
Q 4144 3584 4550 3584 
Q 5097 3584 5394 3201 
Q 5691 2819 5691 2113 
L 5691 0 
L 5113 0 
L 5113 2094 
Q 5113 2597 4934 2840 
Q 4756 3084 4391 3084 
Q 3944 3084 3684 2787 
Q 3425 2491 3425 1978 
L 3425 0 
L 2847 0 
L 2847 2094 
Q 2847 2600 2669 2842 
Q 2491 3084 2119 3084 
Q 1678 3084 1418 2786 
Q 1159 2488 1159 1978 
L 1159 0 
L 581 0 
L 581 3500 
L 1159 3500 
L 1159 2956 
Q 1356 3278 1631 3431 
Q 1906 3584 2284 3584 
Q 2666 3584 2933 3390 
Q 3200 3197 3328 2828 
z
" transform="scale(0.015625)"/>
       <path id="DejaVuSans-52" d="M 2841 2188 
Q 3044 2119 3236 1894 
Q 3428 1669 3622 1275 
L 4263 0 
L 3584 0 
L 2988 1197 
Q 2756 1666 2539 1819 
Q 2322 1972 1947 1972 
L 1259 1972 
L 1259 0 
L 628 0 
L 628 4666 
L 2053 4666 
Q 2853 4666 3247 4331 
Q 3641 3997 3641 3322 
Q 3641 2881 3436 2590 
Q 3231 2300 2841 2188 
z
M 1259 4147 
L 1259 2491 
L 2053 2491 
Q 2509 2491 2742 2702 
Q 2975 2913 2975 3322 
Q 2975 3731 2742 3939 
Q 2509 4147 2053 4147 
L 1259 4147 
z
" transform="scale(0.015625)"/>
       <path id="DejaVuSans-49" d="M 628 4666 
L 1259 4666 
L 1259 0 
L 628 0 
L 628 4666 
z
" transform="scale(0.015625)"/>
       <path id="DejaVuSans-28" d="M 1984 4856 
Q 1566 4138 1362 3434 
Q 1159 2731 1159 2009 
Q 1159 1288 1364 580 
Q 1569 -128 1984 -844 
L 1484 -844 
Q 1016 -109 783 600 
Q 550 1309 550 2009 
Q 550 2706 781 3412 
Q 1013 4119 1484 4856 
L 1984 4856 
z
" transform="scale(0.015625)"/>
       <path id="DejaVuSans-Oblique-3c3" d="M 2219 3044 
Q 1744 3044 1422 2700 
Q 1081 2341 969 1747 
Q 844 1119 1044 756 
Q 1241 397 1706 397 
Q 2166 397 2503 759 
Q 2844 1122 2966 1747 
Q 3075 2319 2881 2700 
Q 2700 3044 2219 3044 
z
M 2309 3503 
L 4219 3500 
L 4106 2925 
L 3463 2925 
Q 3706 2438 3575 1747 
Q 3406 888 2884 400 
Q 2359 -91 1609 -91 
Q 856 -91 525 400 
Q 194 888 363 1747 
Q 528 2609 1050 3097 
Q 1484 3503 2309 3503 
z
" transform="scale(0.015625)"/>
       <path id="DejaVuSans-29" d="M 513 4856 
L 1013 4856 
Q 1481 4119 1714 3412 
Q 1947 2706 1947 2009 
Q 1947 1309 1714 600 
Q 1481 -109 1013 -844 
L 513 -844 
Q 928 -128 1133 580 
Q 1338 1288 1338 2009 
Q 1338 2731 1133 3434 
Q 928 4138 513 4856 
z
" transform="scale(0.015625)"/>
      </defs>
      <use xlink:href="#DejaVuSans-72" transform="translate(0 0.015625)"/>
      <use xlink:href="#DejaVuSans-65" transform="translate(41.113281 0.015625)"/>
      <use xlink:href="#DejaVuSans-6c" transform="translate(102.636719 0.015625)"/>
      <use xlink:href="#DejaVuSans-61" transform="translate(130.419922 0.015625)"/>
      <use xlink:href="#DejaVuSans-74" transform="translate(191.699219 0.015625)"/>
      <use xlink:href="#DejaVuSans-69" transform="translate(230.908203 0.015625)"/>
      <use xlink:href="#DejaVuSans-76" transform="translate(258.691406 0.015625)"/>
      <use xlink:href="#DejaVuSans-65" transform="translate(317.871094 0.015625)"/>
      <use xlink:href="#DejaVuSans-20" transform="translate(379.394531 0.015625)"/>
      <use xlink:href="#DejaVuSans-64" transform="translate(411.181641 0.015625)"/>
      <use xlink:href="#DejaVuSans-69" transform="translate(474.658203 0.015625)"/>
      <use xlink:href="#DejaVuSans-73" transform="translate(502.441406 0.015625)"/>
      <use xlink:href="#DejaVuSans-74" transform="translate(554.541016 0.015625)"/>
      <use xlink:href="#DejaVuSans-61" transform="translate(593.75 0.015625)"/>
      <use xlink:href="#DejaVuSans-6e" transform="translate(655.029297 0.015625)"/>
      <use xlink:href="#DejaVuSans-63" transform="translate(718.408203 0.015625)"/>
      <use xlink:href="#DejaVuSans-65" transform="translate(773.388672 0.015625)"/>
      <use xlink:href="#DejaVuSans-20" transform="translate(834.912109 0.015625)"/>
      <use xlink:href="#DejaVuSans-66" transform="translate(866.699219 0.015625)"/>
      <use xlink:href="#DejaVuSans-72" transform="translate(901.904297 0.015625)"/>
      <use xlink:href="#DejaVuSans-6f" transform="translate(943.017578 0.015625)"/>
      <use xlink:href="#DejaVuSans-6d" transform="translate(1004.199219 0.015625)"/>
      <use xlink:href="#DejaVuSans-20" transform="translate(1101.611328 0.015625)"/>
      <use xlink:href="#DejaVuSans-52" transform="translate(1133.398438 0.015625)"/>
      <use xlink:href="#DejaVuSans-4f" transform="translate(1202.880859 0.015625)"/>
      <use xlink:href="#DejaVuSans-49" transform="translate(1281.591797 0.015625)"/>
      <use xlink:href="#DejaVuSans-20" transform="translate(1311.083984 0.015625)"/>
      <use xlink:href="#DejaVuSans-63" transform="translate(1342.871094 0.015625)"/>
      <use xlink:href="#DejaVuSans-65" transform="translate(1397.851562 0.015625)"/>
      <use xlink:href="#DejaVuSans-6e" transform="translate(1459.375 0.015625)"/>
      <use xlink:href="#DejaVuSans-74" transform="translate(1522.753906 0.015625)"/>
      <use xlink:href="#DejaVuSans-65" transform="translate(1561.962891 0.015625)"/>
      <use xlink:href="#DejaVuSans-72" transform="translate(1623.486328 0.015625)"/>
      <use xlink:href="#DejaVuSans-20" transform="translate(1664.599609 0.015625)"/>
      <use xlink:href="#DejaVuSans-28" transform="translate(1696.386719 0.015625)"/>
      <use xlink:href="#DejaVuSans-Oblique-3c3" transform="translate(1735.400391 0.015625)"/>
      <use xlink:href="#DejaVuSans-29" transform="translate(1798.779297 0.015625)"/>
     </g>
    </g>
   </g>
   <g id="matplotlib.axis_4">
    <g id="ytick_10">
     <g id="line2d_38">
      <g>
       <use xlink:href="#ma15549277b" x="82.4" y="443.52" style="stroke: #000000; stroke-width: 0.8"/>
      </g>
     </g>
     <g id="text_20">
      <!-- −1.0 -->
      <g transform="translate(51.117187 447.319219) scale(0.1 -0.1)">
       <use xlink:href="#DejaVuSans-2212"/>
       <use xlink:href="#DejaVuSans-31" x="83.789062"/>
       <use xlink:href="#DejaVuSans-2e" x="147.412109"/>
       <use xlink:href="#DejaVuSans-30" x="179.199219"/>
      </g>
     </g>
    </g>
    <g id="ytick_11">
     <g id="line2d_39">
      <g>
       <use xlink:href="#ma15549277b" x="82.4" y="405.72" style="stroke: #000000; stroke-width: 0.8"/>
      </g>
     </g>
     <g id="text_21">
      <!-- −0.5 -->
      <g transform="translate(51.117187 409.519219) scale(0.1 -0.1)">
       <use xlink:href="#DejaVuSans-2212"/>
       <use xlink:href="#DejaVuSans-30" x="83.789062"/>
       <use xlink:href="#DejaVuSans-2e" x="147.412109"/>
       <use xlink:href="#DejaVuSans-35" x="179.199219"/>
      </g>
     </g>
    </g>
    <g id="ytick_12">
     <g id="line2d_40">
      <g>
       <use xlink:href="#ma15549277b" x="82.4" y="367.92" style="stroke: #000000; stroke-width: 0.8"/>
      </g>
     </g>
     <g id="text_22">
      <!-- 0.0 -->
      <g transform="translate(59.496875 371.719219) scale(0.1 -0.1)">
       <use xlink:href="#DejaVuSans-30"/>
       <use xlink:href="#DejaVuSans-2e" x="63.623047"/>
       <use xlink:href="#DejaVuSans-30" x="95.410156"/>
      </g>
     </g>
    </g>
    <g id="ytick_13">
     <g id="line2d_41">
      <g>
       <use xlink:href="#ma15549277b" x="82.4" y="330.12" style="stroke: #000000; stroke-width: 0.8"/>
      </g>
     </g>
     <g id="text_23">
      <!-- 0.5 -->
      <g transform="translate(59.496875 333.919219) scale(0.1 -0.1)">
       <use xlink:href="#DejaVuSans-30"/>
       <use xlink:href="#DejaVuSans-2e" x="63.623047"/>
       <use xlink:href="#DejaVuSans-35" x="95.410156"/>
      </g>
     </g>
    </g>
    <g id="ytick_14">
     <g id="line2d_42">
      <g>
       <use xlink:href="#ma15549277b" x="82.4" y="292.32" style="stroke: #000000; stroke-width: 0.8"/>
      </g>
     </g>
     <g id="text_24">
      <!-- 1.0 -->
      <g transform="translate(59.496875 296.119219) scale(0.1 -0.1)">
       <use xlink:href="#DejaVuSans-31"/>
       <use xlink:href="#DejaVuSans-2e" x="63.623047"/>
       <use xlink:href="#DejaVuSans-30" x="95.410156"/>
      </g>
     </g>
    </g>
    <g id="text_25">
     <!-- Binned Avg -->
     <g transform="translate(45.453437 390.525625) rotate(-90) scale(0.08 -0.08)">
      <defs>
       <path id="DejaVuSans-41" d="M 2188 4044 
L 1331 1722 
L 3047 1722 
L 2188 4044 
z
M 1831 4666 
L 2547 4666 
L 4325 0 
L 3669 0 
L 3244 1197 
L 1141 1197 
L 716 0 
L 50 0 
L 1831 4666 
z
" transform="scale(0.015625)"/>
      </defs>
      <use xlink:href="#DejaVuSans-42"/>
      <use xlink:href="#DejaVuSans-69" x="68.603516"/>
      <use xlink:href="#DejaVuSans-6e" x="96.386719"/>
      <use xlink:href="#DejaVuSans-6e" x="159.765625"/>
      <use xlink:href="#DejaVuSans-65" x="223.144531"/>
      <use xlink:href="#DejaVuSans-64" x="284.667969"/>
      <use xlink:href="#DejaVuSans-20" x="348.144531"/>
      <use xlink:href="#DejaVuSans-41" x="379.931641"/>
      <use xlink:href="#DejaVuSans-76" x="442.464844"/>
      <use xlink:href="#DejaVuSans-67" x="501.644531"/>
     </g>
    </g>
   </g>
   <g id="LineCollection_1">
    <path d="M 126.72 296.880013 
L 126.72 266.377379 
" clip-path="url(#p16add1f81b)" style="fill: none; stroke: #000000; stroke-width: 1.5"/>
    <path d="M 207.36 298.909403 
L 207.36 277.656024 
" clip-path="url(#p16add1f81b)" style="fill: none; stroke: #000000; stroke-width: 1.5"/>
    <path d="M 288 296.287082 
L 288 273.45634 
" clip-path="url(#p16add1f81b)" style="fill: none; stroke: #000000; stroke-width: 1.5"/>
    <path d="M 368.64 317.893797 
L 368.64 291.547077 
" clip-path="url(#p16add1f81b)" style="fill: none; stroke: #000000; stroke-width: 1.5"/>
    <path d="M 449.28 334.782964 
L 449.28 308.839879 
" clip-path="url(#p16add1f81b)" style="fill: none; stroke: #000000; stroke-width: 1.5"/>
   </g>
   <g id="line2d_43">
    <defs>
     <path id="mb0050ea16b" d="M 5 0 
L -5 -0 
" style="stroke: #000000"/>
    </defs>
    <g clip-path="url(#p16add1f81b)">
     <use xlink:href="#mb0050ea16b" x="126.72" y="296.880013" style="stroke: #000000"/>
     <use xlink:href="#mb0050ea16b" x="207.36" y="298.909403" style="stroke: #000000"/>
     <use xlink:href="#mb0050ea16b" x="288" y="296.287082" style="stroke: #000000"/>
     <use xlink:href="#mb0050ea16b" x="368.64" y="317.893797" style="stroke: #000000"/>
     <use xlink:href="#mb0050ea16b" x="449.28" y="334.782964" style="stroke: #000000"/>
    </g>
   </g>
   <g id="line2d_44">
    <g clip-path="url(#p16add1f81b)">
     <use xlink:href="#mb0050ea16b" x="126.72" y="266.377379" style="stroke: #000000"/>
     <use xlink:href="#mb0050ea16b" x="207.36" y="277.656024" style="stroke: #000000"/>
     <use xlink:href="#mb0050ea16b" x="288" y="273.45634" style="stroke: #000000"/>
     <use xlink:href="#mb0050ea16b" x="368.64" y="291.547077" style="stroke: #000000"/>
     <use xlink:href="#mb0050ea16b" x="449.28" y="308.839879" style="stroke: #000000"/>
    </g>
   </g>
   <g id="line2d_45">
    <path d="M 86.4 367.92 
L 489.6 367.92 
" clip-path="url(#p16add1f81b)" style="fill: none; stroke-dasharray: 5.55,2.4; stroke-dashoffset: 0; stroke: #000000; stroke-width: 1.5"/>
   </g>
   <g id="patch_12">
    <path d="M 82.4 443.52 
L 82.4 292.32 
" style="fill: none; stroke: #000000; stroke-width: 0.8; stroke-linejoin: miter; stroke-linecap: square"/>
   </g>
   <g id="patch_13">
    <path d="M 86.4 447.52 
L 489.6 447.52 
" style="fill: none; stroke: #000000; stroke-width: 0.8; stroke-linejoin: miter; stroke-linecap: square"/>
   </g>
   <g id="text_26">
    <!-- * -->
    <g transform="translate(123.72 263.881754) scale(0.12 -0.12)">
     <defs>
      <path id="DejaVuSans-2a" d="M 3009 3897 
L 1888 3291 
L 3009 2681 
L 2828 2375 
L 1778 3009 
L 1778 1831 
L 1422 1831 
L 1422 3009 
L 372 2375 
L 191 2681 
L 1313 3291 
L 191 3897 
L 372 4206 
L 1422 3572 
L 1422 4750 
L 1778 4750 
L 1778 3572 
L 2828 4206 
L 3009 3897 
z
" transform="scale(0.015625)"/>
     </defs>
     <use xlink:href="#DejaVuSans-2a"/>
    </g>
   </g>
   <g id="text_27">
    <!-- * -->
    <g transform="translate(204.36 275.160399) scale(0.12 -0.12)">
     <use xlink:href="#DejaVuSans-2a"/>
    </g>
   </g>
   <g id="text_28">
    <!-- * -->
    <g transform="translate(285 270.960715) scale(0.12 -0.12)">
     <use xlink:href="#DejaVuSans-2a"/>
    </g>
   </g>
   <g id="text_29">
    <!-- * -->
    <g transform="translate(365.64 289.051452) scale(0.12 -0.12)">
     <use xlink:href="#DejaVuSans-2a"/>
    </g>
   </g>
   <g id="text_30">
    <!-- * -->
    <g transform="translate(446.28 306.344254) scale(0.12 -0.12)">
     <use xlink:href="#DejaVuSans-2a"/>
    </g>
   </g>
  </g>
 </g>
 <defs>
  <clipPath id="pae89c8cc63">
   <rect x="86.4" y="40.32" width="403.2" height="201.6"/>
  </clipPath>
  <clipPath id="p16add1f81b">
   <rect x="86.4" y="292.32" width="403.2" height="151.2"/>
  </clipPath>
 </defs>
</svg>
