<?xml version="1.0" encoding="utf-8" standalone="no"?>
<!DOCTYPE svg PUBLIC "-//W3C//DTD SVG 1.1//EN"
  "http://www.w3.org/Graphics/SVG/1.1/DTD/svg11.dtd">
<svg xmlns:xlink="http://www.w3.org/1999/xlink" width="360pt" height="432pt" viewBox="0 0 360 432" xmlns="http://www.w3.org/2000/svg" version="1.1">
 <metadata>
  <rdf:RDF xmlns:dc="http://purl.org/dc/elements/1.1/" xmlns:cc="http://creativecommons.org/ns#" xmlns:rdf="http://www.w3.org/1999/02/22-rdf-syntax-ns#">
   <cc:Work>
    <dc:type rdf:resource="http://purl.org/dc/dcmitype/StillImage"/>
    <dc:date>2025-10-31T15:45:46.947369</dc:date>
    <dc:format>image/svg+xml</dc:format>
    <dc:creator>
     <cc:Agent>
      <dc:title>Matplotlib v3.8.0, https://matplotlib.org/</dc:title>
     </cc:Agent>
    </dc:creator>
   </cc:Work>
  </rdf:RDF>
 </metadata>
 <defs>
  <style type="text/css">*{stroke-linejoin: round; stroke-linecap: butt}</style>
 </defs>
 <g id="figure_1">
  <g id="patch_1">
   <path d="M 0 432 
L 360 432 
L 360 0 
L 0 0 
z
" style="fill: #ffffff"/>
  </g>
  <g id="axes_1">
   <g id="patch_2">
    <path d="M 54 388.8 
L 306 388.8 
L 306 302.4 
L 54 302.4 
z
" style="fill: #ffffff"/>
   </g>
   <g id="PolyCollection_1">
    <defs>
     <path id="mf54837deb2" d="M 65.454545 -90.557012 
L 65.454545 -86.327888 
L 70.12987 -86.169427 
L 74.805195 -86.057643 
L 79.480519 -86.603768 
L 84.155844 -86.742798 
L 88.831169 -86.729822 
L 93.506494 -86.759868 
L 98.181818 -86.884626 
L 102.857143 -87.284739 
L 107.532468 -87.573134 
L 112.207792 -87.559864 
L 116.883117 -87.574782 
L 121.558442 -87.264521 
L 126.233766 -87.018906 
L 130.909091 -87.274749 
L 135.584416 -87.606391 
L 140.25974 -87.584017 
L 144.935065 -87.274024 
L 149.61039 -86.950089 
L 154.285714 -86.437827 
L 158.961039 -86.380632 
L 163.636364 -86.335838 
L 168.311688 -86.266516 
L 172.987013 -86.072599 
L 177.662338 -85.88896 
L 182.337662 -85.704022 
L 187.012987 -85.294002 
L 191.688312 -84.694251 
L 196.363636 -84.523395 
L 201.038961 -84.391218 
L 205.714286 -84.160637 
L 210.38961 -83.808921 
L 215.064935 -83.54167 
L 219.74026 -83.666355 
L 224.415584 -83.846012 
L 229.090909 -83.918636 
L 233.766234 -83.919568 
L 238.441558 -83.711374 
L 243.116883 -83.477346 
L 247.792208 -83.329409 
L 252.467532 -83.050863 
L 257.142857 -82.752818 
L 261.818182 -82.271671 
L 266.493506 -81.691264 
L 271.168831 -81.087652 
L 275.844156 -80.477391 
L 280.519481 -79.868024 
L 285.194805 -79.629415 
L 289.87013 -79.760189 
L 294.545455 -79.769217 
L 294.545455 -83.152253 
L 294.545455 -83.152253 
L 289.87013 -83.186388 
L 285.194805 -83.185012 
L 280.519481 -83.458408 
L 275.844156 -83.998539 
L 271.168831 -84.580195 
L 266.493506 -85.113976 
L 261.818182 -85.655979 
L 257.142857 -85.879712 
L 252.467532 -86.035659 
L 247.792208 -86.258298 
L 243.116883 -86.403271 
L 238.441558 -86.584162 
L 233.766234 -86.719537 
L 229.090909 -86.666334 
L 224.415584 -86.633655 
L 219.74026 -86.523531 
L 215.064935 -86.433161 
L 210.38961 -86.557598 
L 205.714286 -86.854884 
L 201.038961 -87.017816 
L 196.363636 -87.061576 
L 191.688312 -87.324618 
L 187.012987 -87.833508 
L 182.337662 -88.305787 
L 177.662338 -88.666709 
L 172.987013 -89.158007 
L 168.311688 -89.563409 
L 163.636364 -89.741429 
L 158.961039 -89.84641 
L 154.285714 -89.974954 
L 149.61039 -90.364531 
L 144.935065 -90.607833 
L 140.25974 -90.917237 
L 135.584416 -91.030103 
L 130.909091 -91.077823 
L 126.233766 -91.067053 
L 121.558442 -91.324947 
L 116.883117 -91.503341 
L 112.207792 -91.663997 
L 107.532468 -91.859678 
L 102.857143 -92.062227 
L 98.181818 -91.971521 
L 93.506494 -91.799683 
L 88.831169 -91.769697 
L 84.155844 -91.670485 
L 79.480519 -91.119 
L 74.805195 -90.513669 
L 70.12987 -90.470594 
L 65.454545 -90.557012 
z
" style="stroke: #ffa500; stroke-opacity: 0.4"/>
    </defs>
    <g clip-path="url(#pa132cb816b)">
     <use xlink:href="#mf54837deb2" x="0" y="432" style="fill: #ffa500; fill-opacity: 0.4; stroke: #ffa500; stroke-opacity: 0.4"/>
    </g>
   </g>
   <g id="matplotlib.axis_1">
    <g id="xtick_1">
     <g id="line2d_1">
      <defs>
       <path id="m8010c9339f" d="M 0 0 
L 0 3.5 
" style="stroke: #000000; stroke-width: 0.8"/>
      </defs>
      <g>
       <use xlink:href="#m8010c9339f" x="65.454545" y="392.8" style="stroke: #000000; stroke-width: 0.8"/>
      </g>
     </g>
     <g id="text_1">
      <!-- 0 -->
      <g transform="translate(62.273295 407.398438) scale(0.1 -0.1)">
       <defs>
        <path id="DejaVuSans-30" d="M 2034 4250 
Q 1547 4250 1301 3770 
Q 1056 3291 1056 2328 
Q 1056 1369 1301 889 
Q 1547 409 2034 409 
Q 2525 409 2770 889 
Q 3016 1369 3016 2328 
Q 3016 3291 2770 3770 
Q 2525 4250 2034 4250 
z
M 2034 4750 
Q 2819 4750 3233 4129 
Q 3647 3509 3647 2328 
Q 3647 1150 3233 529 
Q 2819 -91 2034 -91 
Q 1250 -91 836 529 
Q 422 1150 422 2328 
Q 422 3509 836 4129 
Q 1250 4750 2034 4750 
z
" transform="scale(0.015625)"/>
       </defs>
       <use xlink:href="#DejaVuSans-30"/>
      </g>
     </g>
    </g>
    <g id="xtick_2">
     <g id="line2d_2">
      <g>
       <use xlink:href="#m8010c9339f" x="111.272727" y="392.8" style="stroke: #000000; stroke-width: 0.8"/>
      </g>
     </g>
     <g id="text_2">
      <!-- 1 -->
      <g transform="translate(108.091477 407.398438) scale(0.1 -0.1)">
       <defs>
        <path id="DejaVuSans-31" d="M 794 531 
L 1825 531 
L 1825 4091 
L 703 3866 
L 703 4441 
L 1819 4666 
L 2450 4666 
L 2450 531 
L 3481 531 
L 3481 0 
L 794 0 
L 794 531 
z
" transform="scale(0.015625)"/>
       </defs>
       <use xlink:href="#DejaVuSans-31"/>
      </g>
     </g>
    </g>
    <g id="xtick_3">
     <g id="line2d_3">
      <g>
       <use xlink:href="#m8010c9339f" x="157.090909" y="392.8" style="stroke: #000000; stroke-width: 0.8"/>
      </g>
     </g>
     <g id="text_3">
      <!-- 2 -->
      <g transform="translate(153.909659 407.398438) scale(0.1 -0.1)">
       <defs>
        <path id="DejaVuSans-32" d="M 1228 531 
L 3431 531 
L 3431 0 
L 469 0 
L 469 531 
Q 828 903 1448 1529 
Q 2069 2156 2228 2338 
Q 2531 2678 2651 2914 
Q 2772 3150 2772 3378 
Q 2772 3750 2511 3984 
Q 2250 4219 1831 4219 
Q 1534 4219 1204 4116 
Q 875 4013 500 3803 
L 500 4441 
Q 881 4594 1212 4672 
Q 1544 4750 1819 4750 
Q 2544 4750 2975 4387 
Q 3406 4025 3406 3419 
Q 3406 3131 3298 2873 
Q 3191 2616 2906 2266 
Q 2828 2175 2409 1742 
Q 1991 1309 1228 531 
z
" transform="scale(0.015625)"/>
       </defs>
       <use xlink:href="#DejaVuSans-32"/>
      </g>
     </g>
    </g>
    <g id="xtick_4">
     <g id="line2d_4">
      <g>
       <use xlink:href="#m8010c9339f" x="202.909091" y="392.8" style="stroke: #000000; stroke-width: 0.8"/>
      </g>
     </g>
     <g id="text_4">
      <!-- 3 -->
      <g transform="translate(199.727841 407.398438) scale(0.1 -0.1)">
       <defs>
        <path id="DejaVuSans-33" d="M 2597 2516 
Q 3050 2419 3304 2112 
Q 3559 1806 3559 1356 
Q 3559 666 3084 287 
Q 2609 -91 1734 -91 
Q 1441 -91 1130 -33 
Q 819 25 488 141 
L 488 750 
Q 750 597 1062 519 
Q 1375 441 1716 441 
Q 2309 441 2620 675 
Q 2931 909 2931 1356 
Q 2931 1769 2642 2001 
Q 2353 2234 1838 2234 
L 1294 2234 
L 1294 2753 
L 1863 2753 
Q 2328 2753 2575 2939 
Q 2822 3125 2822 3475 
Q 2822 3834 2567 4026 
Q 2313 4219 1838 4219 
Q 1578 4219 1281 4162 
Q 984 4106 628 3988 
L 628 4550 
Q 988 4650 1302 4700 
Q 1616 4750 1894 4750 
Q 2613 4750 3031 4423 
Q 3450 4097 3450 3541 
Q 3450 3153 3228 2886 
Q 3006 2619 2597 2516 
z
" transform="scale(0.015625)"/>
       </defs>
       <use xlink:href="#DejaVuSans-33"/>
      </g>
     </g>
    </g>
    <g id="xtick_5">
     <g id="line2d_5">
      <g>
       <use xlink:href="#m8010c9339f" x="248.727273" y="392.8" style="stroke: #000000; stroke-width: 0.8"/>
      </g>
     </g>
     <g id="text_5">
      <!-- 4 -->
      <g transform="translate(245.546023 407.398438) scale(0.1 -0.1)">
       <defs>
        <path id="DejaVuSans-34" d="M 2419 4116 
L 825 1625 
L 2419 1625 
L 2419 4116 
z
M 2253 4666 
L 3047 4666 
L 3047 1625 
L 3713 1625 
L 3713 1100 
L 3047 1100 
L 3047 0 
L 2419 0 
L 2419 1100 
L 313 1100 
L 313 1709 
L 2253 4666 
z
" transform="scale(0.015625)"/>
       </defs>
       <use xlink:href="#DejaVuSans-34"/>
      </g>
     </g>
    </g>
    <g id="xtick_6">
     <g id="line2d_6">
      <g>
       <use xlink:href="#m8010c9339f" x="294.545455" y="392.8" style="stroke: #000000; stroke-width: 0.8"/>
      </g>
     </g>
     <g id="text_6">
      <!-- 5 -->
      <g transform="translate(291.364205 407.398438) scale(0.1 -0.1)">
       <defs>
        <path id="DejaVuSans-35" d="M 691 4666 
L 3169 4666 
L 3169 4134 
L 1269 4134 
L 1269 2991 
Q 1406 3038 1543 3061 
Q 1681 3084 1819 3084 
Q 2600 3084 3056 2656 
Q 3513 2228 3513 1497 
Q 3513 744 3044 326 
Q 2575 -91 1722 -91 
Q 1428 -91 1123 -41 
Q 819 9 494 109 
L 494 744 
Q 775 591 1075 516 
Q 1375 441 1709 441 
Q 2250 441 2565 725 
Q 2881 1009 2881 1497 
Q 2881 1984 2565 2268 
Q 2250 2553 1709 2553 
Q 1456 2553 1204 2497 
Q 953 2441 691 2322 
L 691 4666 
z
" transform="scale(0.015625)"/>
       </defs>
       <use xlink:href="#DejaVuSans-35"/>
      </g>
     </g>
    </g>
    <g id="text_7">
     <!-- relative distance from ROI center ($\sigma$) -->
     <g transform="translate(106.48 419.556875) scale(0.08 -0.08)">
      <defs>
       <path id="DejaVuSans-72" d="M 2631 2963 
Q 2534 3019 2420 3045 
Q 2306 3072 2169 3072 
Q 1681 3072 1420 2755 
Q 1159 2438 1159 1844 
L 1159 0 
L 581 0 
L 581 3500 
L 1159 3500 
L 1159 2956 
Q 1341 3275 1631 3429 
Q 1922 3584 2338 3584 
Q 2397 3584 2469 3576 
Q 2541 3569 2628 3553 
L 2631 2963 
z
" transform="scale(0.015625)"/>
       <path id="DejaVuSans-65" d="M 3597 1894 
L 3597 1613 
L 953 1613 
Q 991 1019 1311 708 
Q 1631 397 2203 397 
Q 2534 397 2845 478 
Q 3156 559 3463 722 
L 3463 178 
Q 3153 47 2828 -22 
Q 2503 -91 2169 -91 
Q 1331 -91 842 396 
Q 353 884 353 1716 
Q 353 2575 817 3079 
Q 1281 3584 2069 3584 
Q 2775 3584 3186 3129 
Q 3597 2675 3597 1894 
z
M 3022 2063 
Q 3016 2534 2758 2815 
Q 2500 3097 2075 3097 
Q 1594 3097 1305 2825 
Q 1016 2553 972 2059 
L 3022 2063 
z
" transform="scale(0.015625)"/>
       <path id="DejaVuSans-6c" d="M 603 4863 
L 1178 4863 
L 1178 0 
L 603 0 
L 603 4863 
z
" transform="scale(0.015625)"/>
       <path id="DejaVuSans-61" d="M 2194 1759 
Q 1497 1759 1228 1600 
Q 959 1441 959 1056 
Q 959 750 1161 570 
Q 1363 391 1709 391 
Q 2188 391 2477 730 
Q 2766 1069 2766 1631 
L 2766 1759 
L 2194 1759 
z
M 3341 1997 
L 3341 0 
L 2766 0 
L 2766 531 
Q 2569 213 2275 61 
Q 1981 -91 1556 -91 
Q 1019 -91 701 211 
Q 384 513 384 1019 
Q 384 1609 779 1909 
Q 1175 2209 1959 2209 
L 2766 2209 
L 2766 2266 
Q 2766 2663 2505 2880 
Q 2244 3097 1772 3097 
Q 1472 3097 1187 3025 
Q 903 2953 641 2809 
L 641 3341 
Q 956 3463 1253 3523 
Q 1550 3584 1831 3584 
Q 2591 3584 2966 3190 
Q 3341 2797 3341 1997 
z
" transform="scale(0.015625)"/>
       <path id="DejaVuSans-74" d="M 1172 4494 
L 1172 3500 
L 2356 3500 
L 2356 3053 
L 1172 3053 
L 1172 1153 
Q 1172 725 1289 603 
Q 1406 481 1766 481 
L 2356 481 
L 2356 0 
L 1766 0 
Q 1100 0 847 248 
Q 594 497 594 1153 
L 594 3053 
L 172 3053 
L 172 3500 
L 594 3500 
L 594 4494 
L 1172 4494 
z
" transform="scale(0.015625)"/>
       <path id="DejaVuSans-69" d="M 603 3500 
L 1178 3500 
L 1178 0 
L 603 0 
L 603 3500 
z
M 603 4863 
L 1178 4863 
L 1178 4134 
L 603 4134 
L 603 4863 
z
" transform="scale(0.015625)"/>
       <path id="DejaVuSans-76" d="M 191 3500 
L 800 3500 
L 1894 563 
L 2988 3500 
L 3597 3500 
L 2284 0 
L 1503 0 
L 191 3500 
z
" transform="scale(0.015625)"/>
       <path id="DejaVuSans-20" transform="scale(0.015625)"/>
       <path id="DejaVuSans-64" d="M 2906 2969 
L 2906 4863 
L 3481 4863 
L 3481 0 
L 2906 0 
L 2906 525 
Q 2725 213 2448 61 
Q 2172 -91 1784 -91 
Q 1150 -91 751 415 
Q 353 922 353 1747 
Q 353 2572 751 3078 
Q 1150 3584 1784 3584 
Q 2172 3584 2448 3432 
Q 2725 3281 2906 2969 
z
M 947 1747 
Q 947 1113 1208 752 
Q 1469 391 1925 391 
Q 2381 391 2643 752 
Q 2906 1113 2906 1747 
Q 2906 2381 2643 2742 
Q 2381 3103 1925 3103 
Q 1469 3103 1208 2742 
Q 947 2381 947 1747 
z
" transform="scale(0.015625)"/>
       <path id="DejaVuSans-73" d="M 2834 3397 
L 2834 2853 
Q 2591 2978 2328 3040 
Q 2066 3103 1784 3103 
Q 1356 3103 1142 2972 
Q 928 2841 928 2578 
Q 928 2378 1081 2264 
Q 1234 2150 1697 2047 
L 1894 2003 
Q 2506 1872 2764 1633 
Q 3022 1394 3022 966 
Q 3022 478 2636 193 
Q 2250 -91 1575 -91 
Q 1294 -91 989 -36 
Q 684 19 347 128 
L 347 722 
Q 666 556 975 473 
Q 1284 391 1588 391 
Q 1994 391 2212 530 
Q 2431 669 2431 922 
Q 2431 1156 2273 1281 
Q 2116 1406 1581 1522 
L 1381 1569 
Q 847 1681 609 1914 
Q 372 2147 372 2553 
Q 372 3047 722 3315 
Q 1072 3584 1716 3584 
Q 2034 3584 2315 3537 
Q 2597 3491 2834 3397 
z
" transform="scale(0.015625)"/>
       <path id="DejaVuSans-6e" d="M 3513 2113 
L 3513 0 
L 2938 0 
L 2938 2094 
Q 2938 2591 2744 2837 
Q 2550 3084 2163 3084 
Q 1697 3084 1428 2787 
Q 1159 2491 1159 1978 
L 1159 0 
L 581 0 
L 581 3500 
L 1159 3500 
L 1159 2956 
Q 1366 3272 1645 3428 
Q 1925 3584 2291 3584 
Q 2894 3584 3203 3211 
Q 3513 2838 3513 2113 
z
" transform="scale(0.015625)"/>
       <path id="DejaVuSans-63" d="M 3122 3366 
L 3122 2828 
Q 2878 2963 2633 3030 
Q 2388 3097 2138 3097 
Q 1578 3097 1268 2742 
Q 959 2388 959 1747 
Q 959 1106 1268 751 
Q 1578 397 2138 397 
Q 2388 397 2633 464 
Q 2878 531 3122 666 
L 3122 134 
Q 2881 22 2623 -34 
Q 2366 -91 2075 -91 
Q 1284 -91 818 406 
Q 353 903 353 1747 
Q 353 2603 823 3093 
Q 1294 3584 2113 3584 
Q 2378 3584 2631 3529 
Q 2884 3475 3122 3366 
z
" transform="scale(0.015625)"/>
       <path id="DejaVuSans-66" d="M 2375 4863 
L 2375 4384 
L 1825 4384 
Q 1516 4384 1395 4259 
Q 1275 4134 1275 3809 
L 1275 3500 
L 2222 3500 
L 2222 3053 
L 1275 3053 
L 1275 0 
L 697 0 
L 697 3053 
L 147 3053 
L 147 3500 
L 697 3500 
L 697 3744 
Q 697 4328 969 4595 
Q 1241 4863 1831 4863 
L 2375 4863 
z
" transform="scale(0.015625)"/>
       <path id="DejaVuSans-6f" d="M 1959 3097 
Q 1497 3097 1228 2736 
Q 959 2375 959 1747 
Q 959 1119 1226 758 
Q 1494 397 1959 397 
Q 2419 397 2687 759 
Q 2956 1122 2956 1747 
Q 2956 2369 2687 2733 
Q 2419 3097 1959 3097 
z
M 1959 3584 
Q 2709 3584 3137 3096 
Q 3566 2609 3566 1747 
Q 3566 888 3137 398 
Q 2709 -91 1959 -91 
Q 1206 -91 779 398 
Q 353 888 353 1747 
Q 353 2609 779 3096 
Q 1206 3584 1959 3584 
z
" transform="scale(0.015625)"/>
       <path id="DejaVuSans-6d" d="M 3328 2828 
Q 3544 3216 3844 3400 
Q 4144 3584 4550 3584 
Q 5097 3584 5394 3201 
Q 5691 2819 5691 2113 
L 5691 0 
L 5113 0 
L 5113 2094 
Q 5113 2597 4934 2840 
Q 4756 3084 4391 3084 
Q 3944 3084 3684 2787 
Q 3425 2491 3425 1978 
L 3425 0 
L 2847 0 
L 2847 2094 
Q 2847 2600 2669 2842 
Q 2491 3084 2119 3084 
Q 1678 3084 1418 2786 
Q 1159 2488 1159 1978 
L 1159 0 
L 581 0 
L 581 3500 
L 1159 3500 
L 1159 2956 
Q 1356 3278 1631 3431 
Q 1906 3584 2284 3584 
Q 2666 3584 2933 3390 
Q 3200 3197 3328 2828 
z
" transform="scale(0.015625)"/>
       <path id="DejaVuSans-52" d="M 2841 2188 
Q 3044 2119 3236 1894 
Q 3428 1669 3622 1275 
L 4263 0 
L 3584 0 
L 2988 1197 
Q 2756 1666 2539 1819 
Q 2322 1972 1947 1972 
L 1259 1972 
L 1259 0 
L 628 0 
L 628 4666 
L 2053 4666 
Q 2853 4666 3247 4331 
Q 3641 3997 3641 3322 
Q 3641 2881 3436 2590 
Q 3231 2300 2841 2188 
z
M 1259 4147 
L 1259 2491 
L 2053 2491 
Q 2509 2491 2742 2702 
Q 2975 2913 2975 3322 
Q 2975 3731 2742 3939 
Q 2509 4147 2053 4147 
L 1259 4147 
z
" transform="scale(0.015625)"/>
       <path id="DejaVuSans-4f" d="M 2522 4238 
Q 1834 4238 1429 3725 
Q 1025 3213 1025 2328 
Q 1025 1447 1429 934 
Q 1834 422 2522 422 
Q 3209 422 3611 934 
Q 4013 1447 4013 2328 
Q 4013 3213 3611 3725 
Q 3209 4238 2522 4238 
z
M 2522 4750 
Q 3503 4750 4090 4092 
Q 4678 3434 4678 2328 
Q 4678 1225 4090 567 
Q 3503 -91 2522 -91 
Q 1538 -91 948 565 
Q 359 1222 359 2328 
Q 359 3434 948 4092 
Q 1538 4750 2522 4750 
z
" transform="scale(0.015625)"/>
       <path id="DejaVuSans-49" d="M 628 4666 
L 1259 4666 
L 1259 0 
L 628 0 
L 628 4666 
z
" transform="scale(0.015625)"/>
       <path id="DejaVuSans-28" d="M 1984 4856 
Q 1566 4138 1362 3434 
Q 1159 2731 1159 2009 
Q 1159 1288 1364 580 
Q 1569 -128 1984 -844 
L 1484 -844 
Q 1016 -109 783 600 
Q 550 1309 550 2009 
Q 550 2706 781 3412 
Q 1013 4119 1484 4856 
L 1984 4856 
z
" transform="scale(0.015625)"/>
       <path id="DejaVuSans-Oblique-3c3" d="M 2219 3044 
Q 1744 3044 1422 2700 
Q 1081 2341 969 1747 
Q 844 1119 1044 756 
Q 1241 397 1706 397 
Q 2166 397 2503 759 
Q 2844 1122 2966 1747 
Q 3075 2319 2881 2700 
Q 2700 3044 2219 3044 
z
M 2309 3503 
L 4219 3500 
L 4106 2925 
L 3463 2925 
Q 3706 2438 3575 1747 
Q 3406 888 2884 400 
Q 2359 -91 1609 -91 
Q 856 -91 525 400 
Q 194 888 363 1747 
Q 528 2609 1050 3097 
Q 1484 3503 2309 3503 
z
" transform="scale(0.015625)"/>
       <path id="DejaVuSans-29" d="M 513 4856 
L 1013 4856 
Q 1481 4119 1714 3412 
Q 1947 2706 1947 2009 
Q 1947 1309 1714 600 
Q 1481 -109 1013 -844 
L 513 -844 
Q 928 -128 1133 580 
Q 1338 1288 1338 2009 
Q 1338 2731 1133 3434 
Q 928 4138 513 4856 
z
" transform="scale(0.015625)"/>
      </defs>
      <use xlink:href="#DejaVuSans-72" transform="translate(0 0.015625)"/>
      <use xlink:href="#DejaVuSans-65" transform="translate(41.113281 0.015625)"/>
      <use xlink:href="#DejaVuSans-6c" transform="translate(102.636719 0.015625)"/>
      <use xlink:href="#DejaVuSans-61" transform="translate(130.419922 0.015625)"/>
      <use xlink:href="#DejaVuSans-74" transform="translate(191.699219 0.015625)"/>
      <use xlink:href="#DejaVuSans-69" transform="translate(230.908203 0.015625)"/>
      <use xlink:href="#DejaVuSans-76" transform="translate(258.691406 0.015625)"/>
      <use xlink:href="#DejaVuSans-65" transform="translate(317.871094 0.015625)"/>
      <use xlink:href="#DejaVuSans-20" transform="translate(379.394531 0.015625)"/>
      <use xlink:href="#DejaVuSans-64" transform="translate(411.181641 0.015625)"/>
      <use xlink:href="#DejaVuSans-69" transform="translate(474.658203 0.015625)"/>
      <use xlink:href="#DejaVuSans-73" transform="translate(502.441406 0.015625)"/>
      <use xlink:href="#DejaVuSans-74" transform="translate(554.541016 0.015625)"/>
      <use xlink:href="#DejaVuSans-61" transform="translate(593.75 0.015625)"/>
      <use xlink:href="#DejaVuSans-6e" transform="translate(655.029297 0.015625)"/>
      <use xlink:href="#DejaVuSans-63" transform="translate(718.408203 0.015625)"/>
      <use xlink:href="#DejaVuSans-65" transform="translate(773.388672 0.015625)"/>
      <use xlink:href="#DejaVuSans-20" transform="translate(834.912109 0.015625)"/>
      <use xlink:href="#DejaVuSans-66" transform="translate(866.699219 0.015625)"/>
      <use xlink:href="#DejaVuSans-72" transform="translate(901.904297 0.015625)"/>
      <use xlink:href="#DejaVuSans-6f" transform="translate(943.017578 0.015625)"/>
      <use xlink:href="#DejaVuSans-6d" transform="translate(1004.199219 0.015625)"/>
      <use xlink:href="#DejaVuSans-20" transform="translate(1101.611328 0.015625)"/>
      <use xlink:href="#DejaVuSans-52" transform="translate(1133.398438 0.015625)"/>
      <use xlink:href="#DejaVuSans-4f" transform="translate(1202.880859 0.015625)"/>
      <use xlink:href="#DejaVuSans-49" transform="translate(1281.591797 0.015625)"/>
      <use xlink:href="#DejaVuSans-20" transform="translate(1311.083984 0.015625)"/>
      <use xlink:href="#DejaVuSans-63" transform="translate(1342.871094 0.015625)"/>
      <use xlink:href="#DejaVuSans-65" transform="translate(1397.851562 0.015625)"/>
      <use xlink:href="#DejaVuSans-6e" transform="translate(1459.375 0.015625)"/>
      <use xlink:href="#DejaVuSans-74" transform="translate(1522.753906 0.015625)"/>
      <use xlink:href="#DejaVuSans-65" transform="translate(1561.962891 0.015625)"/>
      <use xlink:href="#DejaVuSans-72" transform="translate(1623.486328 0.015625)"/>
      <use xlink:href="#DejaVuSans-20" transform="translate(1664.599609 0.015625)"/>
      <use xlink:href="#DejaVuSans-28" transform="translate(1696.386719 0.015625)"/>
      <use xlink:href="#DejaVuSans-Oblique-3c3" transform="translate(1735.400391 0.015625)"/>
      <use xlink:href="#DejaVuSans-29" transform="translate(1798.779297 0.015625)"/>
     </g>
    </g>
   </g>
   <g id="matplotlib.axis_2">
    <g id="ytick_1">
     <g id="line2d_7">
      <defs>
       <path id="mea261a97f9" d="M 0 0 
L -3.5 0 
" style="stroke: #000000; stroke-width: 0.8"/>
      </defs>
      <g>
       <use xlink:href="#mea261a97f9" x="50" y="376.457143" style="stroke: #000000; stroke-width: 0.8"/>
      </g>
     </g>
     <g id="text_8">
      <!-- −5 -->
      <g transform="translate(28.257812 380.256362) scale(0.1 -0.1)">
       <defs>
        <path id="DejaVuSans-2212" d="M 678 2272 
L 4684 2272 
L 4684 1741 
L 678 1741 
L 678 2272 
z
" transform="scale(0.015625)"/>
       </defs>
       <use xlink:href="#DejaVuSans-2212"/>
       <use xlink:href="#DejaVuSans-35" x="83.789062"/>
      </g>
     </g>
    </g>
    <g id="ytick_2">
     <g id="line2d_8">
      <g>
       <use xlink:href="#mea261a97f9" x="50" y="345.6" style="stroke: #000000; stroke-width: 0.8"/>
      </g>
     </g>
     <g id="text_9">
      <!-- 0 -->
      <g transform="translate(36.6375 349.399219) scale(0.1 -0.1)">
       <use xlink:href="#DejaVuSans-30"/>
      </g>
     </g>
    </g>
    <g id="ytick_3">
     <g id="line2d_9">
      <g>
       <use xlink:href="#mea261a97f9" x="50" y="314.742857" style="stroke: #000000; stroke-width: 0.8"/>
      </g>
     </g>
     <g id="text_10">
      <!-- 5 -->
      <g transform="translate(36.6375 318.542076) scale(0.1 -0.1)">
       <use xlink:href="#DejaVuSans-35"/>
      </g>
     </g>
    </g>
    <g id="text_11">
     <!-- BOLD % change -->
     <g transform="translate(22.594062 377.79625) rotate(-90) scale(0.08 -0.08)">
      <defs>
       <path id="DejaVuSans-42" d="M 1259 2228 
L 1259 519 
L 2272 519 
Q 2781 519 3026 730 
Q 3272 941 3272 1375 
Q 3272 1813 3026 2020 
Q 2781 2228 2272 2228 
L 1259 2228 
z
M 1259 4147 
L 1259 2741 
L 2194 2741 
Q 2656 2741 2882 2914 
Q 3109 3088 3109 3444 
Q 3109 3797 2882 3972 
Q 2656 4147 2194 4147 
L 1259 4147 
z
M 628 4666 
L 2241 4666 
Q 2963 4666 3353 4366 
Q 3744 4066 3744 3513 
Q 3744 3084 3544 2831 
Q 3344 2578 2956 2516 
Q 3422 2416 3680 2098 
Q 3938 1781 3938 1306 
Q 3938 681 3513 340 
Q 3088 0 2303 0 
L 628 0 
L 628 4666 
z
" transform="scale(0.015625)"/>
       <path id="DejaVuSans-4c" d="M 628 4666 
L 1259 4666 
L 1259 531 
L 3531 531 
L 3531 0 
L 628 0 
L 628 4666 
z
" transform="scale(0.015625)"/>
       <path id="DejaVuSans-44" d="M 1259 4147 
L 1259 519 
L 2022 519 
Q 2988 519 3436 956 
Q 3884 1394 3884 2338 
Q 3884 3275 3436 3711 
Q 2988 4147 2022 4147 
L 1259 4147 
z
M 628 4666 
L 1925 4666 
Q 3281 4666 3915 4102 
Q 4550 3538 4550 2338 
Q 4550 1131 3912 565 
Q 3275 0 1925 0 
L 628 0 
L 628 4666 
z
" transform="scale(0.015625)"/>
       <path id="DejaVuSans-25" d="M 4653 2053 
Q 4381 2053 4226 1822 
Q 4072 1591 4072 1178 
Q 4072 772 4226 539 
Q 4381 306 4653 306 
Q 4919 306 5073 539 
Q 5228 772 5228 1178 
Q 5228 1588 5073 1820 
Q 4919 2053 4653 2053 
z
M 4653 2450 
Q 5147 2450 5437 2106 
Q 5728 1763 5728 1178 
Q 5728 594 5436 251 
Q 5144 -91 4653 -91 
Q 4153 -91 3862 251 
Q 3572 594 3572 1178 
Q 3572 1766 3864 2108 
Q 4156 2450 4653 2450 
z
M 1428 4353 
Q 1159 4353 1004 4120 
Q 850 3888 850 3481 
Q 850 3069 1003 2837 
Q 1156 2606 1428 2606 
Q 1700 2606 1854 2837 
Q 2009 3069 2009 3481 
Q 2009 3884 1853 4118 
Q 1697 4353 1428 4353 
z
M 4250 4750 
L 4750 4750 
L 1831 -91 
L 1331 -91 
L 4250 4750 
z
M 1428 4750 
Q 1922 4750 2215 4408 
Q 2509 4066 2509 3481 
Q 2509 2891 2217 2550 
Q 1925 2209 1428 2209 
Q 931 2209 642 2551 
Q 353 2894 353 3481 
Q 353 4063 643 4406 
Q 934 4750 1428 4750 
z
" transform="scale(0.015625)"/>
       <path id="DejaVuSans-68" d="M 3513 2113 
L 3513 0 
L 2938 0 
L 2938 2094 
Q 2938 2591 2744 2837 
Q 2550 3084 2163 3084 
Q 1697 3084 1428 2787 
Q 1159 2491 1159 1978 
L 1159 0 
L 581 0 
L 581 4863 
L 1159 4863 
L 1159 2956 
Q 1366 3272 1645 3428 
Q 1925 3584 2291 3584 
Q 2894 3584 3203 3211 
Q 3513 2838 3513 2113 
z
" transform="scale(0.015625)"/>
       <path id="DejaVuSans-67" d="M 2906 1791 
Q 2906 2416 2648 2759 
Q 2391 3103 1925 3103 
Q 1463 3103 1205 2759 
Q 947 2416 947 1791 
Q 947 1169 1205 825 
Q 1463 481 1925 481 
Q 2391 481 2648 825 
Q 2906 1169 2906 1791 
z
M 3481 434 
Q 3481 -459 3084 -895 
Q 2688 -1331 1869 -1331 
Q 1566 -1331 1297 -1286 
Q 1028 -1241 775 -1147 
L 775 -588 
Q 1028 -725 1275 -790 
Q 1522 -856 1778 -856 
Q 2344 -856 2625 -561 
Q 2906 -266 2906 331 
L 2906 616 
Q 2728 306 2450 153 
Q 2172 0 1784 0 
Q 1141 0 747 490 
Q 353 981 353 1791 
Q 353 2603 747 3093 
Q 1141 3584 1784 3584 
Q 2172 3584 2450 3431 
Q 2728 3278 2906 2969 
L 2906 3500 
L 3481 3500 
L 3481 434 
z
" transform="scale(0.015625)"/>
      </defs>
      <use xlink:href="#DejaVuSans-42"/>
      <use xlink:href="#DejaVuSans-4f" x="66.853516"/>
      <use xlink:href="#DejaVuSans-4c" x="145.564453"/>
      <use xlink:href="#DejaVuSans-44" x="201.277344"/>
      <use xlink:href="#DejaVuSans-20" x="278.279297"/>
      <use xlink:href="#DejaVuSans-25" x="310.066406"/>
      <use xlink:href="#DejaVuSans-20" x="405.085938"/>
      <use xlink:href="#DejaVuSans-63" x="436.873047"/>
      <use xlink:href="#DejaVuSans-68" x="491.853516"/>
      <use xlink:href="#DejaVuSans-61" x="555.232422"/>
      <use xlink:href="#DejaVuSans-6e" x="616.511719"/>
      <use xlink:href="#DejaVuSans-67" x="679.890625"/>
      <use xlink:href="#DejaVuSans-65" x="743.367188"/>
     </g>
    </g>
   </g>
   <g id="line2d_10">
    <path d="M 65.454545 343.55755 
L 70.12987 343.679989 
L 74.805195 343.714344 
L 79.480519 343.138616 
L 84.155844 342.793359 
L 88.831169 342.750241 
L 93.506494 342.720224 
L 98.181818 342.571927 
L 102.857143 342.326517 
L 107.532468 342.283594 
L 112.207792 342.38807 
L 116.883117 342.460938 
L 121.558442 342.705266 
L 126.233766 342.95702 
L 130.909091 342.823714 
L 135.584416 342.681753 
L 140.25974 342.749373 
L 144.935065 343.059072 
L 149.61039 343.34269 
L 154.285714 343.79361 
L 158.961039 343.886479 
L 163.636364 343.961366 
L 168.311688 344.085038 
L 172.987013 344.384697 
L 177.662338 344.722165 
L 182.337662 344.995095 
L 187.012987 345.436245 
L 191.688312 345.990565 
L 196.363636 346.207514 
L 201.038961 346.295483 
L 205.714286 346.492239 
L 210.38961 346.81674 
L 215.064935 347.012585 
L 219.74026 346.905057 
L 224.415584 346.760167 
L 229.090909 346.707515 
L 233.766234 346.680447 
L 238.441558 346.852232 
L 243.116883 347.059692 
L 247.792208 347.206146 
L 252.467532 347.456739 
L 257.142857 347.683735 
L 261.818182 348.036175 
L 266.493506 348.59738 
L 271.168831 349.166076 
L 275.844156 349.762035 
L 280.519481 350.336784 
L 285.194805 350.592786 
L 289.87013 350.526712 
L 294.545455 350.539265 
" clip-path="url(#pa132cb816b)" style="fill: none; stroke: #ffa500; stroke-width: 1.5; stroke-linecap: square"/>
   </g>
   <g id="line2d_11">
    <path d="M 65.454545 341.61847 
L 70.12987 342.296992 
L 74.805195 343.195875 
L 79.480519 343.85923 
L 84.155844 344.510655 
L 88.831169 345.038778 
L 93.506494 345.04766 
L 98.181818 345.229022 
L 102.857143 346.538662 
L 107.532468 347.224332 
L 112.207792 347.909542 
L 116.883117 348.143348 
L 121.558442 348.27204 
L 126.233766 347.478356 
L 130.909091 347.151311 
L 135.584416 348.116708 
L 140.25974 348.809062 
L 144.935065 348.514141 
L 149.61039 347.826521 
L 154.285714 347.829361 
L 158.961039 347.41884 
L 163.636364 346.428654 
L 168.311688 346.199184 
L 172.987013 346.3583 
L 177.662338 346.56446 
L 182.337662 346.391282 
L 187.012987 347.056284 
L 191.688312 348.153308 
L 196.363636 348.855274 
L 201.038961 349.35926 
L 205.714286 349.502712 
L 210.38961 350.080451 
L 215.064935 350.067077 
L 219.74026 349.617834 
L 224.415584 349.209542 
L 229.090909 348.644063 
L 233.766234 348.79111 
L 238.441558 349.091207 
L 243.116883 348.568092 
L 247.792208 347.497122 
L 252.467532 346.026063 
L 257.142857 344.04123 
L 261.818182 343.120201 
L 266.493506 343.566409 
L 271.168831 344.31322 
L 275.844156 345.372689 
L 280.519481 347.329631 
L 285.194805 348.300386 
L 289.87013 348.799605 
L 294.545455 348.41571 
" clip-path="url(#pa132cb816b)" style="fill: none; stroke: #ffa500; stroke-opacity: 0.2; stroke-width: 1.5; stroke-linecap: square"/>
   </g>
   <g id="line2d_12">
    <path d="M 65.454545 345.093994 
L 70.12987 345.093994 
L 74.805195 344.359464 
L 79.480519 343.076086 
L 84.155844 343.033674 
L 88.831169 342.880621 
L 93.506494 342.956919 
L 98.181818 343.369348 
L 102.857143 343.428733 
L 107.532468 343.648964 
L 112.207792 343.279402 
L 116.883117 342.836017 
L 121.558442 342.237744 
L 126.233766 341.306291 
L 130.909091 340.417488 
L 135.584416 339.899121 
L 140.25974 339.476799 
L 144.935065 339.353559 
L 149.61039 339.156519 
L 154.285714 339.213664 
L 158.961039 339.048595 
L 163.636364 339.221562 
L 168.311688 339.519118 
L 172.987013 340.03923 
L 177.662338 340.520719 
L 182.337662 340.678459 
L 187.012987 340.639089 
L 191.688312 340.750004 
L 196.363636 340.777639 
L 201.038961 340.82547 
L 205.714286 341.276477 
L 210.38961 341.451542 
L 215.064935 341.444951 
L 219.74026 341.318279 
L 224.415584 341.37683 
L 229.090909 341.300906 
L 233.766234 341.06884 
L 238.441558 341.358617 
L 243.116883 341.72619 
L 247.792208 342.037686 
L 252.467532 342.178208 
L 257.142857 342.015211 
L 261.818182 341.933795 
L 266.493506 342.167532 
L 271.168831 342.699455 
L 275.844156 342.85683 
L 280.519481 343.173676 
L 285.194805 343.145749 
L 289.87013 343.138854 
L 294.545455 342.90898 
" clip-path="url(#pa132cb816b)" style="fill: none; stroke: #ffa500; stroke-opacity: 0.2; stroke-width: 1.5; stroke-linecap: square"/>
   </g>
   <g id="line2d_13">
    <path d="M 65.454545 338.003937 
L 70.12987 338.311879 
L 74.805195 338.832205 
L 79.480519 339.195366 
L 84.155844 338.908032 
L 88.831169 339.798924 
L 93.506494 340.610069 
L 98.181818 340.612911 
L 102.857143 339.446114 
L 107.532468 338.617326 
L 112.207792 338.071409 
L 116.883117 338.579803 
L 121.558442 339.411338 
L 126.233766 340.112494 
L 130.909091 339.85582 
L 135.584416 339.767783 
L 140.25974 340.176737 
L 144.935065 341.124292 
L 149.61039 341.818472 
L 154.285714 342.709197 
L 158.961039 343.865659 
L 163.636364 345.024717 
L 168.311688 345.999945 
L 172.987013 346.632004 
L 177.662338 346.596171 
L 182.337662 345.939877 
L 187.012987 345.282313 
L 191.688312 345.607327 
L 196.363636 346.368067 
L 201.038961 347.398255 
L 205.714286 348.073833 
L 210.38961 348.980661 
L 215.064935 349.612674 
L 219.74026 349.575249 
L 224.415584 349.715517 
L 229.090909 349.985818 
L 233.766234 348.903418 
L 238.441558 348.069238 
L 243.116883 347.685308 
L 247.792208 347.451375 
L 252.467532 347.475702 
L 257.142857 347.82425 
L 261.818182 348.107586 
L 266.493506 348.649441 
L 271.168831 349.014843 
L 275.844156 350.847163 
L 280.519481 353.079547 
L 285.194805 353.083089 
L 289.87013 351.986587 
L 294.545455 351.524272 
" clip-path="url(#pa132cb816b)" style="fill: none; stroke: #ffa500; stroke-opacity: 0.2; stroke-width: 1.5; stroke-linecap: square"/>
   </g>
   <g id="line2d_14">
    <path d="M 65.454545 338.615975 
L 70.12987 338.615975 
L 74.805195 338.670957 
L 79.480519 338.908715 
L 84.155844 339.243791 
L 88.831169 339.619159 
L 93.506494 339.639685 
L 98.181818 339.925353 
L 102.857143 340.275862 
L 107.532468 341.016348 
L 112.207792 341.77832 
L 116.883117 342.501116 
L 121.558442 343.060476 
L 126.233766 343.246839 
L 130.909091 343.396696 
L 135.584416 343.449006 
L 140.25974 343.5898 
L 144.935065 344.165139 
L 149.61039 344.568304 
L 154.285714 344.869863 
L 158.961039 345.382842 
L 163.636364 345.872659 
L 168.311688 346.508083 
L 172.987013 347.389655 
L 177.662338 348.399229 
L 182.337662 349.422703 
L 187.012987 350.318777 
L 191.688312 351.486005 
L 196.363636 352.138406 
L 201.038961 352.543432 
L 205.714286 352.772579 
L 210.38961 353.021076 
L 215.064935 353.29767 
L 219.74026 353.31362 
L 224.415584 353.235007 
L 229.090909 353.413163 
L 233.766234 353.573396 
L 238.441558 353.750712 
L 243.116883 354.193183 
L 247.792208 354.713892 
L 252.467532 354.987523 
L 257.142857 355.037883 
L 261.818182 355.235042 
L 266.493506 355.543466 
L 271.168831 356.090348 
L 275.844156 356.408349 
L 280.519481 356.315807 
L 285.194805 355.881484 
L 289.87013 355.687451 
L 294.545455 355.599505 
" clip-path="url(#pa132cb816b)" style="fill: none; stroke: #ffa500; stroke-opacity: 0.2; stroke-width: 1.5; stroke-linecap: square"/>
   </g>
   <g id="line2d_15">
    <path d="M 65.454545 348.217848 
L 70.12987 348.148134 
L 74.805195 347.379266 
L 79.480519 344.508788 
L 84.155844 341.016397 
L 88.831169 338.070723 
L 93.506494 337.074364 
L 98.181818 336.019579 
L 102.857143 335.309546 
L 107.532468 336.467285 
L 112.207792 336.757089 
L 116.883117 336.515568 
L 121.558442 336.271778 
L 126.233766 337.975349 
L 130.909091 339.316081 
L 135.584416 340.411655 
L 140.25974 339.921373 
L 144.935065 339.325413 
L 149.61039 338.298749 
L 154.285714 337.968609 
L 158.961039 337.542092 
L 163.636364 337.718893 
L 168.311688 337.728511 
L 172.987013 337.986186 
L 177.662338 338.907059 
L 182.337662 340.220106 
L 187.012987 342.386569 
L 191.688312 343.730758 
L 196.363636 345.271362 
L 201.038961 345.808286 
L 205.714286 346.394039 
L 210.38961 346.344414 
L 215.064935 345.998413 
L 219.74026 345.864227 
L 224.415584 345.791493 
L 229.090909 346.200381 
L 233.766234 346.529356 
L 238.441558 347.272442 
L 243.116883 348.624571 
L 247.792208 349.878498 
L 252.467532 351.27686 
L 257.142857 352.891135 
L 261.818182 354.638731 
L 266.493506 355.219823 
L 271.168831 355.587919 
L 275.844156 355.504483 
L 280.519481 355.865035 
L 285.194805 355.953815 
L 289.87013 354.815713 
L 294.545455 354.593915 
" clip-path="url(#pa132cb816b)" style="fill: none; stroke: #ffa500; stroke-opacity: 0.2; stroke-width: 1.5; stroke-linecap: square"/>
   </g>
   <g id="line2d_16">
    <path d="M 65.454545 355.632564 
L 70.12987 356.788196 
L 74.805195 358.681374 
L 79.480519 359.825755 
L 84.155844 362.759722 
L 88.831169 363.960045 
L 93.506494 364.31685 
L 98.181818 364.687129 
L 102.857143 362.439995 
L 107.532468 359.820623 
L 112.207792 358.59083 
L 116.883117 356.971835 
L 121.558442 357.813444 
L 126.233766 358.850783 
L 130.909091 356.387089 
L 135.584416 352.936071 
L 140.25974 352.024083 
L 144.935065 352.594584 
L 149.61039 353.797818 
L 154.285714 355.96704 
L 158.961039 355.754406 
L 163.636364 355.289211 
L 168.311688 354.436478 
L 172.987013 353.290615 
L 177.662338 351.922116 
L 182.337662 350.964165 
L 187.012987 351.090994 
L 191.688312 352.120232 
L 196.363636 350.87762 
L 201.038961 350.46011 
L 205.714286 351.019216 
L 210.38961 351.81885 
L 215.064935 353.027853 
L 219.74026 352.745669 
L 224.415584 351.955264 
L 229.090909 351.011302 
L 233.766234 351.463297 
L 238.441558 351.819194 
L 243.116883 351.407542 
L 247.792208 349.78194 
L 252.467532 349.06217 
L 257.142857 347.823537 
L 261.818182 347.032913 
L 266.493506 347.951622 
L 271.168831 349.242711 
L 275.844156 350.858898 
L 280.519481 351.81882 
L 285.194805 353.185289 
L 289.87013 353.79737 
L 294.545455 353.500467 
" clip-path="url(#pa132cb816b)" style="fill: none; stroke: #ffa500; stroke-opacity: 0.2; stroke-width: 1.5; stroke-linecap: square"/>
   </g>
   <g id="line2d_17">
    <path d="M 65.454545 337.333225 
L 70.12987 336.995152 
L 74.805195 335.596172 
L 79.480519 334.629573 
L 84.155844 334.29365 
L 88.831169 333.893891 
L 93.506494 334.450605 
L 98.181818 334.789522 
L 102.857143 335.441162 
L 107.532468 336.17611 
L 112.207792 336.266193 
L 116.883117 335.940268 
L 121.558442 335.872369 
L 126.233766 335.306538 
L 130.909091 334.784095 
L 135.584416 335.006403 
L 140.25974 335.696893 
L 144.935065 336.66382 
L 149.61039 337.422186 
L 154.285714 338.147529 
L 158.961039 338.779843 
L 163.636364 339.505216 
L 168.311688 340.454246 
L 172.987013 341.448531 
L 177.662338 342.151597 
L 182.337662 342.812289 
L 187.012987 343.487822 
L 191.688312 344.011732 
L 196.363636 344.521657 
L 201.038961 344.904858 
L 205.714286 345.413744 
L 210.38961 345.560574 
L 215.064935 345.375309 
L 219.74026 344.986172 
L 224.415584 345.253713 
L 229.090909 346.16727 
L 233.766234 346.807532 
L 238.441558 347.900993 
L 243.116883 349.126747 
L 247.792208 349.797629 
L 252.467532 350.831921 
L 257.142857 352.252923 
L 261.818182 353.666152 
L 266.493506 354.496229 
L 271.168831 355.689709 
L 275.844156 357.435411 
L 280.519481 358.261843 
L 285.194805 358.08835 
L 289.87013 357.9044 
L 294.545455 357.8833 
" clip-path="url(#pa132cb816b)" style="fill: none; stroke: #ffa500; stroke-opacity: 0.2; stroke-width: 1.5; stroke-linecap: square"/>
   </g>
   <g id="line2d_18">
    <path d="M 65.454545 329.399689 
L 70.12987 329.512774 
L 74.805195 329.930672 
L 79.480519 329.564471 
L 84.155844 328.953847 
L 88.831169 330.334343 
L 93.506494 330.968016 
L 98.181818 331.150329 
L 102.857143 331.230088 
L 107.532468 331.68728 
L 112.207792 331.898903 
L 116.883117 331.808384 
L 121.558442 331.635108 
L 126.233766 332.412409 
L 130.909091 332.158585 
L 135.584416 332.340549 
L 140.25974 332.625359 
L 144.935065 332.866565 
L 149.61039 333.397514 
L 154.285714 334.334605 
L 158.961039 334.624267 
L 163.636364 334.14695 
L 168.311688 334.026395 
L 172.987013 334.649666 
L 177.662338 335.759802 
L 182.337662 336.179623 
L 187.012987 336.392928 
L 191.688312 336.644999 
L 196.363636 336.849409 
L 201.038961 336.321075 
L 205.714286 336.056085 
L 210.38961 336.227349 
L 215.064935 336.123911 
L 219.74026 336.439955 
L 224.415584 336.65735 
L 229.090909 336.938994 
L 233.766234 337.065867 
L 238.441558 336.936139 
L 243.116883 337.079921 
L 247.792208 337.314463 
L 252.467532 337.718094 
L 257.142857 338.337131 
L 261.818182 338.498223 
L 266.493506 338.985026 
L 271.168831 339.065222 
L 275.844156 339.42465 
L 280.519481 339.284394 
L 285.194805 339.606863 
L 289.87013 339.892564 
L 294.545455 340.488329 
" clip-path="url(#pa132cb816b)" style="fill: none; stroke: #ffa500; stroke-opacity: 0.2; stroke-width: 1.5; stroke-linecap: square"/>
   </g>
   <g id="line2d_19">
    <path d="M 65.454545 347.713454 
L 70.12987 347.603371 
L 74.805195 347.691134 
L 79.480519 347.056207 
L 84.155844 347.736347 
L 88.831169 348.738036 
L 93.506494 349.290538 
L 98.181818 348.84635 
L 102.857143 347.989568 
L 107.532468 346.953756 
L 112.207792 346.409456 
L 116.883117 346.190994 
L 121.558442 345.820477 
L 126.233766 345.811137 
L 130.909091 346.39519 
L 135.584416 346.94244 
L 140.25974 347.498678 
L 144.935065 348.033174 
L 149.61039 348.521384 
L 154.285714 348.666005 
L 158.961039 348.634483 
L 163.636364 348.622465 
L 168.311688 348.445237 
L 172.987013 348.345052 
L 177.662338 348.076557 
L 182.337662 348.058021 
L 187.012987 348.145681 
L 191.688312 348.192365 
L 196.363636 348.27156 
L 201.038961 348.3627 
L 205.714286 348.445182 
L 210.38961 348.615946 
L 215.064935 348.966114 
L 219.74026 349.009874 
L 224.415584 348.889269 
L 229.090909 348.72291 
L 233.766234 348.272992 
L 238.441558 347.964507 
L 243.116883 347.606534 
L 247.792208 347.606178 
L 252.467532 347.713606 
L 257.142857 347.861285 
L 261.818182 348.248309 
L 266.493506 348.598809 
L 271.168831 348.839502 
L 275.844156 348.898347 
L 280.519481 349.053885 
L 285.194805 349.329405 
L 289.87013 349.04917 
L 294.545455 349.46096 
" clip-path="url(#pa132cb816b)" style="fill: none; stroke: #ffa500; stroke-opacity: 0.2; stroke-width: 1.5; stroke-linecap: square"/>
   </g>
   <g id="line2d_20">
    <path d="M 65.454545 349.675738 
L 70.12987 349.301436 
L 74.805195 348.583019 
L 79.480519 346.129417 
L 84.155844 343.944342 
L 88.831169 343.101006 
L 93.506494 342.091571 
L 98.181818 341.228698 
L 102.857143 340.769759 
L 107.532468 340.987992 
L 112.207792 341.881903 
L 116.883117 343.734071 
L 121.558442 344.955272 
L 126.233766 345.573517 
L 130.909091 346.324061 
L 135.584416 345.469603 
L 140.25974 344.766869 
L 144.935065 344.668939 
L 149.61039 345.042396 
L 154.285714 345.059945 
L 158.961039 344.847961 
L 163.636364 344.290314 
L 168.311688 343.928378 
L 172.987013 344.277043 
L 177.662338 344.941628 
L 182.337662 345.690523 
L 187.012987 346.299448 
L 191.688312 346.407019 
L 196.363636 345.770833 
L 201.038961 344.955841 
L 205.714286 344.380832 
L 210.38961 345.127078 
L 215.064935 345.246986 
L 219.74026 344.660403 
L 224.415584 343.703211 
L 229.090909 342.608923 
L 233.766234 341.756305 
L 238.441558 341.318161 
L 243.116883 340.901229 
L 247.792208 341.254631 
L 252.467532 341.927581 
L 257.142857 342.727837 
L 261.818182 343.29195 
L 266.493506 343.969731 
L 271.168831 344.319282 
L 275.844156 344.317489 
L 280.519481 344.003603 
L 285.194805 343.938069 
L 289.87013 344.448106 
L 294.545455 344.635756 
" clip-path="url(#pa132cb816b)" style="fill: none; stroke: #ffa500; stroke-opacity: 0.2; stroke-width: 1.5; stroke-linecap: square"/>
   </g>
   <g id="line2d_21">
    <path d="M 65.454545 347.828155 
L 70.12987 347.811981 
L 74.805195 347.937644 
L 79.480519 347.771168 
L 84.155844 346.326488 
L 88.831169 344.817124 
L 93.506494 343.476189 
L 98.181818 342.43295 
L 102.857143 342.722196 
L 107.532468 342.519515 
L 112.207792 343.425716 
L 116.883117 343.848917 
L 121.558442 344.407882 
L 126.233766 344.453511 
L 130.909091 344.874435 
L 135.584416 345.159941 
L 140.25974 345.657448 
L 144.935065 346.340162 
L 149.61039 346.919729 
L 154.285714 346.963887 
L 158.961039 346.852278 
L 163.636364 347.45439 
L 168.311688 347.68984 
L 172.987013 347.815387 
L 177.662338 348.10448 
L 182.337662 348.589002 
L 187.012987 348.698789 
L 191.688312 348.792471 
L 196.363636 348.580832 
L 201.038961 348.311024 
L 205.714286 348.079936 
L 210.38961 347.756204 
L 215.064935 347.977476 
L 219.74026 348.424346 
L 224.415584 348.574638 
L 229.090909 348.788938 
L 233.766234 349.252811 
L 238.441558 349.893345 
L 243.116883 350.73729 
L 247.792208 351.934197 
L 252.467532 352.826405 
L 257.142857 353.708661 
L 261.818182 354.625024 
L 266.493506 355.423095 
L 271.168831 355.96463 
L 275.844156 355.458079 
L 280.519481 355.518383 
L 285.194805 356.008152 
L 289.87013 356.274008 
L 294.545455 356.920723 
" clip-path="url(#pa132cb816b)" style="fill: none; stroke: #ffa500; stroke-opacity: 0.2; stroke-width: 1.5; stroke-linecap: square"/>
   </g>
   <g id="line2d_22">
    <path d="M 111.272727 382.628571 
L 111.272727 308.571429 
" clip-path="url(#pa132cb816b)" style="fill: none; stroke-dasharray: 5.55,2.4; stroke-dashoffset: 0; stroke: #000000; stroke-width: 1.5"/>
   </g>
   <g id="line2d_23">
    <path d="M 65.454545 345.6 
L 294.545455 345.6 
" clip-path="url(#pa132cb816b)" style="fill: none; stroke-dasharray: 5.55,2.4; stroke-dashoffset: 0; stroke: #000000; stroke-width: 1.5"/>
   </g>
   <g id="patch_3">
    <path d="M 50 388.8 
L 50 302.4 
" style="fill: none; stroke: #000000; stroke-width: 0.8; stroke-linejoin: miter; stroke-linecap: square"/>
   </g>
   <g id="patch_4">
    <path d="M 54 392.8 
L 306 392.8 
" style="fill: none; stroke: #000000; stroke-width: 0.8; stroke-linejoin: miter; stroke-linecap: square"/>
   </g>
   <g id="text_12">
    <!-- all depths -->
    <g transform="translate(150.492188 296.4) scale(0.12 -0.12)">
     <defs>
      <path id="DejaVuSans-70" d="M 1159 525 
L 1159 -1331 
L 581 -1331 
L 581 3500 
L 1159 3500 
L 1159 2969 
Q 1341 3281 1617 3432 
Q 1894 3584 2278 3584 
Q 2916 3584 3314 3078 
Q 3713 2572 3713 1747 
Q 3713 922 3314 415 
Q 2916 -91 2278 -91 
Q 1894 -91 1617 61 
Q 1341 213 1159 525 
z
M 3116 1747 
Q 3116 2381 2855 2742 
Q 2594 3103 2138 3103 
Q 1681 3103 1420 2742 
Q 1159 2381 1159 1747 
Q 1159 1113 1420 752 
Q 1681 391 2138 391 
Q 2594 391 2855 752 
Q 3116 1113 3116 1747 
z
" transform="scale(0.015625)"/>
     </defs>
     <use xlink:href="#DejaVuSans-61"/>
     <use xlink:href="#DejaVuSans-6c" x="61.279297"/>
     <use xlink:href="#DejaVuSans-6c" x="89.0625"/>
     <use xlink:href="#DejaVuSans-20" x="116.845703"/>
     <use xlink:href="#DejaVuSans-64" x="148.632812"/>
     <use xlink:href="#DejaVuSans-65" x="212.109375"/>
     <use xlink:href="#DejaVuSans-70" x="273.632812"/>
     <use xlink:href="#DejaVuSans-74" x="337.109375"/>
     <use xlink:href="#DejaVuSans-68" x="376.318359"/>
     <use xlink:href="#DejaVuSans-73" x="439.697266"/>
    </g>
   </g>
   <g id="legend_1">
    <g id="patch_5">
     <path d="M 131.609375 325.35625 
L 299 325.35625 
Q 301 325.35625 301 323.35625 
L 301 309.4 
Q 301 307.4 299 307.4 
L 131.609375 307.4 
Q 129.609375 307.4 129.609375 309.4 
L 129.609375 323.35625 
Q 129.609375 325.35625 131.609375 325.35625 
z
" style="fill: #ffffff; opacity: 0.8; stroke: #cccccc; stroke-linejoin: miter"/>
    </g>
    <g id="line2d_24">
     <path d="M 133.609375 315.498437 
L 143.609375 315.498437 
L 153.609375 315.498437 
" style="fill: none; stroke: #ffa500; stroke-width: 1.5; stroke-linecap: square"/>
    </g>
    <g id="text_13">
     <!-- V23_middle_deveined_orth -->
     <g transform="translate(161.609375 318.998437) scale(0.1 -0.1)">
      <defs>
       <path id="DejaVuSans-56" d="M 1831 0 
L 50 4666 
L 709 4666 
L 2188 738 
L 3669 4666 
L 4325 4666 
L 2547 0 
L 1831 0 
z
" transform="scale(0.015625)"/>
       <path id="DejaVuSans-5f" d="M 3263 -1063 
L 3263 -1509 
L -63 -1509 
L -63 -1063 
L 3263 -1063 
z
" transform="scale(0.015625)"/>
      </defs>
      <use xlink:href="#DejaVuSans-56"/>
      <use xlink:href="#DejaVuSans-32" x="68.408203"/>
      <use xlink:href="#DejaVuSans-33" x="132.03125"/>
      <use xlink:href="#DejaVuSans-5f" x="195.654297"/>
      <use xlink:href="#DejaVuSans-6d" x="245.654297"/>
      <use xlink:href="#DejaVuSans-69" x="343.066406"/>
      <use xlink:href="#DejaVuSans-64" x="370.849609"/>
      <use xlink:href="#DejaVuSans-64" x="434.326172"/>
      <use xlink:href="#DejaVuSans-6c" x="497.802734"/>
      <use xlink:href="#DejaVuSans-65" x="525.585938"/>
      <use xlink:href="#DejaVuSans-5f" x="587.109375"/>
      <use xlink:href="#DejaVuSans-64" x="637.109375"/>
      <use xlink:href="#DejaVuSans-65" x="700.585938"/>
      <use xlink:href="#DejaVuSans-76" x="762.109375"/>
      <use xlink:href="#DejaVuSans-65" x="821.289062"/>
      <use xlink:href="#DejaVuSans-69" x="882.8125"/>
      <use xlink:href="#DejaVuSans-6e" x="910.595703"/>
      <use xlink:href="#DejaVuSans-65" x="973.974609"/>
      <use xlink:href="#DejaVuSans-64" x="1035.498047"/>
      <use xlink:href="#DejaVuSans-5f" x="1098.974609"/>
      <use xlink:href="#DejaVuSans-6f" x="1148.974609"/>
      <use xlink:href="#DejaVuSans-72" x="1210.15625"/>
      <use xlink:href="#DejaVuSans-74" x="1251.269531"/>
      <use xlink:href="#DejaVuSans-68" x="1290.478516"/>
     </g>
    </g>
   </g>
  </g>
 </g>
 <defs>
  <clipPath id="pa132cb816b">
   <rect x="54" y="302.4" width="252" height="86.4"/>
  </clipPath>
 </defs>
</svg>
