<?xml version="1.0" encoding="utf-8" standalone="no"?>
<!DOCTYPE svg PUBLIC "-//W3C//DTD SVG 1.1//EN"
  "http://www.w3.org/Graphics/SVG/1.1/DTD/svg11.dtd">
<svg xmlns:xlink="http://www.w3.org/1999/xlink" width="360pt" height="432pt" viewBox="0 0 360 432" xmlns="http://www.w3.org/2000/svg" version="1.1">
 <metadata>
  <rdf:RDF xmlns:dc="http://purl.org/dc/elements/1.1/" xmlns:cc="http://creativecommons.org/ns#" xmlns:rdf="http://www.w3.org/1999/02/22-rdf-syntax-ns#">
   <cc:Work>
    <dc:type rdf:resource="http://purl.org/dc/dcmitype/StillImage"/>
    <dc:date>2025-10-31T15:45:48.103866</dc:date>
    <dc:format>image/svg+xml</dc:format>
    <dc:creator>
     <cc:Agent>
      <dc:title>Matplotlib v3.8.0, https://matplotlib.org/</dc:title>
     </cc:Agent>
    </dc:creator>
   </cc:Work>
  </rdf:RDF>
 </metadata>
 <defs>
  <style type="text/css">*{stroke-linejoin: round; stroke-linecap: butt}</style>
 </defs>
 <g id="figure_1">
  <g id="patch_1">
   <path d="M 0 432 
L 360 432 
L 360 0 
L 0 0 
z
" style="fill: #ffffff"/>
  </g>
  <g id="axes_1">
   <g id="patch_2">
    <path d="M 54 388.8 
L 306 388.8 
L 306 302.4 
L 54 302.4 
z
" style="fill: #ffffff"/>
   </g>
   <g id="PolyCollection_1">
    <defs>
     <path id="mfaec4b10d3" d="M 65.454545 -85.395114 
L 65.454545 -81.718175 
L 70.12987 -81.726533 
L 74.805195 -81.864893 
L 79.480519 -81.916638 
L 84.155844 -81.911058 
L 88.831169 -81.882755 
L 93.506494 -81.871056 
L 98.181818 -81.983761 
L 102.857143 -81.727387 
L 107.532468 -81.695889 
L 112.207792 -81.767032 
L 116.883117 -82.068296 
L 121.558442 -82.326169 
L 126.233766 -82.500601 
L 130.909091 -82.723075 
L 135.584416 -83.012138 
L 140.25974 -83.091456 
L 144.935065 -83.0887 
L 149.61039 -83.148356 
L 154.285714 -83.200905 
L 158.961039 -83.264849 
L 163.636364 -83.418796 
L 168.311688 -83.509691 
L 172.987013 -83.573299 
L 177.662338 -83.661873 
L 182.337662 -83.601148 
L 187.012987 -83.547077 
L 191.688312 -83.603238 
L 196.363636 -83.578147 
L 201.038961 -83.429912 
L 205.714286 -83.184634 
L 210.38961 -82.99082 
L 215.064935 -82.911632 
L 219.74026 -83.065923 
L 224.415584 -82.997188 
L 229.090909 -82.974582 
L 233.766234 -82.937672 
L 238.441558 -83.020421 
L 243.116883 -83.031815 
L 247.792208 -82.938613 
L 252.467532 -82.908237 
L 257.142857 -82.982294 
L 261.818182 -83.197605 
L 266.493506 -83.388561 
L 271.168831 -83.548404 
L 275.844156 -83.580299 
L 280.519481 -83.403523 
L 285.194805 -83.276688 
L 289.87013 -83.447397 
L 294.545455 -83.645279 
L 294.545455 -86.538937 
L 294.545455 -86.538937 
L 289.87013 -86.436817 
L 285.194805 -86.416386 
L 280.519481 -86.586544 
L 275.844156 -86.803651 
L 271.168831 -86.845882 
L 266.493506 -86.728469 
L 261.818182 -86.484929 
L 257.142857 -86.208781 
L 252.467532 -86.143293 
L 247.792208 -86.205286 
L 243.116883 -86.364662 
L 238.441558 -86.366685 
L 233.766234 -86.23298 
L 229.090909 -86.156175 
L 224.415584 -86.172495 
L 219.74026 -86.236755 
L 215.064935 -86.104507 
L 210.38961 -86.214101 
L 205.714286 -86.396613 
L 201.038961 -86.637276 
L 196.363636 -86.728858 
L 191.688312 -86.806907 
L 187.012987 -86.815251 
L 182.337662 -86.85778 
L 177.662338 -86.828076 
L 172.987013 -86.705592 
L 168.311688 -86.613642 
L 163.636364 -86.539588 
L 158.961039 -86.492193 
L 154.285714 -86.531956 
L 149.61039 -86.53117 
L 144.935065 -86.549903 
L 140.25974 -86.516425 
L 135.584416 -86.357581 
L 130.909091 -86.114148 
L 126.233766 -85.895094 
L 121.558442 -85.542634 
L 116.883117 -85.34808 
L 112.207792 -85.248135 
L 107.532468 -85.331115 
L 102.857143 -85.455258 
L 98.181818 -85.75805 
L 93.506494 -85.668357 
L 88.831169 -85.723729 
L 84.155844 -85.836534 
L 79.480519 -85.772099 
L 74.805195 -85.611356 
L 70.12987 -85.466976 
L 65.454545 -85.395114 
z
" style="stroke: #ff0000; stroke-opacity: 0.4"/>
    </defs>
    <g clip-path="url(#p76474cae05)">
     <use xlink:href="#mfaec4b10d3" x="0" y="432" style="fill: #ff0000; fill-opacity: 0.4; stroke: #ff0000; stroke-opacity: 0.4"/>
    </g>
   </g>
   <g id="matplotlib.axis_1">
    <g id="xtick_1">
     <g id="line2d_1">
      <defs>
       <path id="m6dba65e875" d="M 0 0 
L 0 3.5 
" style="stroke: #000000; stroke-width: 0.8"/>
      </defs>
      <g>
       <use xlink:href="#m6dba65e875" x="65.454545" y="392.8" style="stroke: #000000; stroke-width: 0.8"/>
      </g>
     </g>
     <g id="text_1">
      <!-- 0 -->
      <g transform="translate(62.273295 407.398438) scale(0.1 -0.1)">
       <defs>
        <path id="DejaVuSans-30" d="M 2034 4250 
Q 1547 4250 1301 3770 
Q 1056 3291 1056 2328 
Q 1056 1369 1301 889 
Q 1547 409 2034 409 
Q 2525 409 2770 889 
Q 3016 1369 3016 2328 
Q 3016 3291 2770 3770 
Q 2525 4250 2034 4250 
z
M 2034 4750 
Q 2819 4750 3233 4129 
Q 3647 3509 3647 2328 
Q 3647 1150 3233 529 
Q 2819 -91 2034 -91 
Q 1250 -91 836 529 
Q 422 1150 422 2328 
Q 422 3509 836 4129 
Q 1250 4750 2034 4750 
z
" transform="scale(0.015625)"/>
       </defs>
       <use xlink:href="#DejaVuSans-30"/>
      </g>
     </g>
    </g>
    <g id="xtick_2">
     <g id="line2d_2">
      <g>
       <use xlink:href="#m6dba65e875" x="111.272727" y="392.8" style="stroke: #000000; stroke-width: 0.8"/>
      </g>
     </g>
     <g id="text_2">
      <!-- 1 -->
      <g transform="translate(108.091477 407.398438) scale(0.1 -0.1)">
       <defs>
        <path id="DejaVuSans-31" d="M 794 531 
L 1825 531 
L 1825 4091 
L 703 3866 
L 703 4441 
L 1819 4666 
L 2450 4666 
L 2450 531 
L 3481 531 
L 3481 0 
L 794 0 
L 794 531 
z
" transform="scale(0.015625)"/>
       </defs>
       <use xlink:href="#DejaVuSans-31"/>
      </g>
     </g>
    </g>
    <g id="xtick_3">
     <g id="line2d_3">
      <g>
       <use xlink:href="#m6dba65e875" x="157.090909" y="392.8" style="stroke: #000000; stroke-width: 0.8"/>
      </g>
     </g>
     <g id="text_3">
      <!-- 2 -->
      <g transform="translate(153.909659 407.398438) scale(0.1 -0.1)">
       <defs>
        <path id="DejaVuSans-32" d="M 1228 531 
L 3431 531 
L 3431 0 
L 469 0 
L 469 531 
Q 828 903 1448 1529 
Q 2069 2156 2228 2338 
Q 2531 2678 2651 2914 
Q 2772 3150 2772 3378 
Q 2772 3750 2511 3984 
Q 2250 4219 1831 4219 
Q 1534 4219 1204 4116 
Q 875 4013 500 3803 
L 500 4441 
Q 881 4594 1212 4672 
Q 1544 4750 1819 4750 
Q 2544 4750 2975 4387 
Q 3406 4025 3406 3419 
Q 3406 3131 3298 2873 
Q 3191 2616 2906 2266 
Q 2828 2175 2409 1742 
Q 1991 1309 1228 531 
z
" transform="scale(0.015625)"/>
       </defs>
       <use xlink:href="#DejaVuSans-32"/>
      </g>
     </g>
    </g>
    <g id="xtick_4">
     <g id="line2d_4">
      <g>
       <use xlink:href="#m6dba65e875" x="202.909091" y="392.8" style="stroke: #000000; stroke-width: 0.8"/>
      </g>
     </g>
     <g id="text_4">
      <!-- 3 -->
      <g transform="translate(199.727841 407.398438) scale(0.1 -0.1)">
       <defs>
        <path id="DejaVuSans-33" d="M 2597 2516 
Q 3050 2419 3304 2112 
Q 3559 1806 3559 1356 
Q 3559 666 3084 287 
Q 2609 -91 1734 -91 
Q 1441 -91 1130 -33 
Q 819 25 488 141 
L 488 750 
Q 750 597 1062 519 
Q 1375 441 1716 441 
Q 2309 441 2620 675 
Q 2931 909 2931 1356 
Q 2931 1769 2642 2001 
Q 2353 2234 1838 2234 
L 1294 2234 
L 1294 2753 
L 1863 2753 
Q 2328 2753 2575 2939 
Q 2822 3125 2822 3475 
Q 2822 3834 2567 4026 
Q 2313 4219 1838 4219 
Q 1578 4219 1281 4162 
Q 984 4106 628 3988 
L 628 4550 
Q 988 4650 1302 4700 
Q 1616 4750 1894 4750 
Q 2613 4750 3031 4423 
Q 3450 4097 3450 3541 
Q 3450 3153 3228 2886 
Q 3006 2619 2597 2516 
z
" transform="scale(0.015625)"/>
       </defs>
       <use xlink:href="#DejaVuSans-33"/>
      </g>
     </g>
    </g>
    <g id="xtick_5">
     <g id="line2d_5">
      <g>
       <use xlink:href="#m6dba65e875" x="248.727273" y="392.8" style="stroke: #000000; stroke-width: 0.8"/>
      </g>
     </g>
     <g id="text_5">
      <!-- 4 -->
      <g transform="translate(245.546023 407.398438) scale(0.1 -0.1)">
       <defs>
        <path id="DejaVuSans-34" d="M 2419 4116 
L 825 1625 
L 2419 1625 
L 2419 4116 
z
M 2253 4666 
L 3047 4666 
L 3047 1625 
L 3713 1625 
L 3713 1100 
L 3047 1100 
L 3047 0 
L 2419 0 
L 2419 1100 
L 313 1100 
L 313 1709 
L 2253 4666 
z
" transform="scale(0.015625)"/>
       </defs>
       <use xlink:href="#DejaVuSans-34"/>
      </g>
     </g>
    </g>
    <g id="xtick_6">
     <g id="line2d_6">
      <g>
       <use xlink:href="#m6dba65e875" x="294.545455" y="392.8" style="stroke: #000000; stroke-width: 0.8"/>
      </g>
     </g>
     <g id="text_6">
      <!-- 5 -->
      <g transform="translate(291.364205 407.398438) scale(0.1 -0.1)">
       <defs>
        <path id="DejaVuSans-35" d="M 691 4666 
L 3169 4666 
L 3169 4134 
L 1269 4134 
L 1269 2991 
Q 1406 3038 1543 3061 
Q 1681 3084 1819 3084 
Q 2600 3084 3056 2656 
Q 3513 2228 3513 1497 
Q 3513 744 3044 326 
Q 2575 -91 1722 -91 
Q 1428 -91 1123 -41 
Q 819 9 494 109 
L 494 744 
Q 775 591 1075 516 
Q 1375 441 1709 441 
Q 2250 441 2565 725 
Q 2881 1009 2881 1497 
Q 2881 1984 2565 2268 
Q 2250 2553 1709 2553 
Q 1456 2553 1204 2497 
Q 953 2441 691 2322 
L 691 4666 
z
" transform="scale(0.015625)"/>
       </defs>
       <use xlink:href="#DejaVuSans-35"/>
      </g>
     </g>
    </g>
    <g id="text_7">
     <!-- relative distance from ROI center ($\sigma$) -->
     <g transform="translate(106.48 419.556875) scale(0.08 -0.08)">
      <defs>
       <path id="DejaVuSans-72" d="M 2631 2963 
Q 2534 3019 2420 3045 
Q 2306 3072 2169 3072 
Q 1681 3072 1420 2755 
Q 1159 2438 1159 1844 
L 1159 0 
L 581 0 
L 581 3500 
L 1159 3500 
L 1159 2956 
Q 1341 3275 1631 3429 
Q 1922 3584 2338 3584 
Q 2397 3584 2469 3576 
Q 2541 3569 2628 3553 
L 2631 2963 
z
" transform="scale(0.015625)"/>
       <path id="DejaVuSans-65" d="M 3597 1894 
L 3597 1613 
L 953 1613 
Q 991 1019 1311 708 
Q 1631 397 2203 397 
Q 2534 397 2845 478 
Q 3156 559 3463 722 
L 3463 178 
Q 3153 47 2828 -22 
Q 2503 -91 2169 -91 
Q 1331 -91 842 396 
Q 353 884 353 1716 
Q 353 2575 817 3079 
Q 1281 3584 2069 3584 
Q 2775 3584 3186 3129 
Q 3597 2675 3597 1894 
z
M 3022 2063 
Q 3016 2534 2758 2815 
Q 2500 3097 2075 3097 
Q 1594 3097 1305 2825 
Q 1016 2553 972 2059 
L 3022 2063 
z
" transform="scale(0.015625)"/>
       <path id="DejaVuSans-6c" d="M 603 4863 
L 1178 4863 
L 1178 0 
L 603 0 
L 603 4863 
z
" transform="scale(0.015625)"/>
       <path id="DejaVuSans-61" d="M 2194 1759 
Q 1497 1759 1228 1600 
Q 959 1441 959 1056 
Q 959 750 1161 570 
Q 1363 391 1709 391 
Q 2188 391 2477 730 
Q 2766 1069 2766 1631 
L 2766 1759 
L 2194 1759 
z
M 3341 1997 
L 3341 0 
L 2766 0 
L 2766 531 
Q 2569 213 2275 61 
Q 1981 -91 1556 -91 
Q 1019 -91 701 211 
Q 384 513 384 1019 
Q 384 1609 779 1909 
Q 1175 2209 1959 2209 
L 2766 2209 
L 2766 2266 
Q 2766 2663 2505 2880 
Q 2244 3097 1772 3097 
Q 1472 3097 1187 3025 
Q 903 2953 641 2809 
L 641 3341 
Q 956 3463 1253 3523 
Q 1550 3584 1831 3584 
Q 2591 3584 2966 3190 
Q 3341 2797 3341 1997 
z
" transform="scale(0.015625)"/>
       <path id="DejaVuSans-74" d="M 1172 4494 
L 1172 3500 
L 2356 3500 
L 2356 3053 
L 1172 3053 
L 1172 1153 
Q 1172 725 1289 603 
Q 1406 481 1766 481 
L 2356 481 
L 2356 0 
L 1766 0 
Q 1100 0 847 248 
Q 594 497 594 1153 
L 594 3053 
L 172 3053 
L 172 3500 
L 594 3500 
L 594 4494 
L 1172 4494 
z
" transform="scale(0.015625)"/>
       <path id="DejaVuSans-69" d="M 603 3500 
L 1178 3500 
L 1178 0 
L 603 0 
L 603 3500 
z
M 603 4863 
L 1178 4863 
L 1178 4134 
L 603 4134 
L 603 4863 
z
" transform="scale(0.015625)"/>
       <path id="DejaVuSans-76" d="M 191 3500 
L 800 3500 
L 1894 563 
L 2988 3500 
L 3597 3500 
L 2284 0 
L 1503 0 
L 191 3500 
z
" transform="scale(0.015625)"/>
       <path id="DejaVuSans-20" transform="scale(0.015625)"/>
       <path id="DejaVuSans-64" d="M 2906 2969 
L 2906 4863 
L 3481 4863 
L 3481 0 
L 2906 0 
L 2906 525 
Q 2725 213 2448 61 
Q 2172 -91 1784 -91 
Q 1150 -91 751 415 
Q 353 922 353 1747 
Q 353 2572 751 3078 
Q 1150 3584 1784 3584 
Q 2172 3584 2448 3432 
Q 2725 3281 2906 2969 
z
M 947 1747 
Q 947 1113 1208 752 
Q 1469 391 1925 391 
Q 2381 391 2643 752 
Q 2906 1113 2906 1747 
Q 2906 2381 2643 2742 
Q 2381 3103 1925 3103 
Q 1469 3103 1208 2742 
Q 947 2381 947 1747 
z
" transform="scale(0.015625)"/>
       <path id="DejaVuSans-73" d="M 2834 3397 
L 2834 2853 
Q 2591 2978 2328 3040 
Q 2066 3103 1784 3103 
Q 1356 3103 1142 2972 
Q 928 2841 928 2578 
Q 928 2378 1081 2264 
Q 1234 2150 1697 2047 
L 1894 2003 
Q 2506 1872 2764 1633 
Q 3022 1394 3022 966 
Q 3022 478 2636 193 
Q 2250 -91 1575 -91 
Q 1294 -91 989 -36 
Q 684 19 347 128 
L 347 722 
Q 666 556 975 473 
Q 1284 391 1588 391 
Q 1994 391 2212 530 
Q 2431 669 2431 922 
Q 2431 1156 2273 1281 
Q 2116 1406 1581 1522 
L 1381 1569 
Q 847 1681 609 1914 
Q 372 2147 372 2553 
Q 372 3047 722 3315 
Q 1072 3584 1716 3584 
Q 2034 3584 2315 3537 
Q 2597 3491 2834 3397 
z
" transform="scale(0.015625)"/>
       <path id="DejaVuSans-6e" d="M 3513 2113 
L 3513 0 
L 2938 0 
L 2938 2094 
Q 2938 2591 2744 2837 
Q 2550 3084 2163 3084 
Q 1697 3084 1428 2787 
Q 1159 2491 1159 1978 
L 1159 0 
L 581 0 
L 581 3500 
L 1159 3500 
L 1159 2956 
Q 1366 3272 1645 3428 
Q 1925 3584 2291 3584 
Q 2894 3584 3203 3211 
Q 3513 2838 3513 2113 
z
" transform="scale(0.015625)"/>
       <path id="DejaVuSans-63" d="M 3122 3366 
L 3122 2828 
Q 2878 2963 2633 3030 
Q 2388 3097 2138 3097 
Q 1578 3097 1268 2742 
Q 959 2388 959 1747 
Q 959 1106 1268 751 
Q 1578 397 2138 397 
Q 2388 397 2633 464 
Q 2878 531 3122 666 
L 3122 134 
Q 2881 22 2623 -34 
Q 2366 -91 2075 -91 
Q 1284 -91 818 406 
Q 353 903 353 1747 
Q 353 2603 823 3093 
Q 1294 3584 2113 3584 
Q 2378 3584 2631 3529 
Q 2884 3475 3122 3366 
z
" transform="scale(0.015625)"/>
       <path id="DejaVuSans-66" d="M 2375 4863 
L 2375 4384 
L 1825 4384 
Q 1516 4384 1395 4259 
Q 1275 4134 1275 3809 
L 1275 3500 
L 2222 3500 
L 2222 3053 
L 1275 3053 
L 1275 0 
L 697 0 
L 697 3053 
L 147 3053 
L 147 3500 
L 697 3500 
L 697 3744 
Q 697 4328 969 4595 
Q 1241 4863 1831 4863 
L 2375 4863 
z
" transform="scale(0.015625)"/>
       <path id="DejaVuSans-6f" d="M 1959 3097 
Q 1497 3097 1228 2736 
Q 959 2375 959 1747 
Q 959 1119 1226 758 
Q 1494 397 1959 397 
Q 2419 397 2687 759 
Q 2956 1122 2956 1747 
Q 2956 2369 2687 2733 
Q 2419 3097 1959 3097 
z
M 1959 3584 
Q 2709 3584 3137 3096 
Q 3566 2609 3566 1747 
Q 3566 888 3137 398 
Q 2709 -91 1959 -91 
Q 1206 -91 779 398 
Q 353 888 353 1747 
Q 353 2609 779 3096 
Q 1206 3584 1959 3584 
z
" transform="scale(0.015625)"/>
       <path id="DejaVuSans-6d" d="M 3328 2828 
Q 3544 3216 3844 3400 
Q 4144 3584 4550 3584 
Q 5097 3584 5394 3201 
Q 5691 2819 5691 2113 
L 5691 0 
L 5113 0 
L 5113 2094 
Q 5113 2597 4934 2840 
Q 4756 3084 4391 3084 
Q 3944 3084 3684 2787 
Q 3425 2491 3425 1978 
L 3425 0 
L 2847 0 
L 2847 2094 
Q 2847 2600 2669 2842 
Q 2491 3084 2119 3084 
Q 1678 3084 1418 2786 
Q 1159 2488 1159 1978 
L 1159 0 
L 581 0 
L 581 3500 
L 1159 3500 
L 1159 2956 
Q 1356 3278 1631 3431 
Q 1906 3584 2284 3584 
Q 2666 3584 2933 3390 
Q 3200 3197 3328 2828 
z
" transform="scale(0.015625)"/>
       <path id="DejaVuSans-52" d="M 2841 2188 
Q 3044 2119 3236 1894 
Q 3428 1669 3622 1275 
L 4263 0 
L 3584 0 
L 2988 1197 
Q 2756 1666 2539 1819 
Q 2322 1972 1947 1972 
L 1259 1972 
L 1259 0 
L 628 0 
L 628 4666 
L 2053 4666 
Q 2853 4666 3247 4331 
Q 3641 3997 3641 3322 
Q 3641 2881 3436 2590 
Q 3231 2300 2841 2188 
z
M 1259 4147 
L 1259 2491 
L 2053 2491 
Q 2509 2491 2742 2702 
Q 2975 2913 2975 3322 
Q 2975 3731 2742 3939 
Q 2509 4147 2053 4147 
L 1259 4147 
z
" transform="scale(0.015625)"/>
       <path id="DejaVuSans-4f" d="M 2522 4238 
Q 1834 4238 1429 3725 
Q 1025 3213 1025 2328 
Q 1025 1447 1429 934 
Q 1834 422 2522 422 
Q 3209 422 3611 934 
Q 4013 1447 4013 2328 
Q 4013 3213 3611 3725 
Q 3209 4238 2522 4238 
z
M 2522 4750 
Q 3503 4750 4090 4092 
Q 4678 3434 4678 2328 
Q 4678 1225 4090 567 
Q 3503 -91 2522 -91 
Q 1538 -91 948 565 
Q 359 1222 359 2328 
Q 359 3434 948 4092 
Q 1538 4750 2522 4750 
z
" transform="scale(0.015625)"/>
       <path id="DejaVuSans-49" d="M 628 4666 
L 1259 4666 
L 1259 0 
L 628 0 
L 628 4666 
z
" transform="scale(0.015625)"/>
       <path id="DejaVuSans-28" d="M 1984 4856 
Q 1566 4138 1362 3434 
Q 1159 2731 1159 2009 
Q 1159 1288 1364 580 
Q 1569 -128 1984 -844 
L 1484 -844 
Q 1016 -109 783 600 
Q 550 1309 550 2009 
Q 550 2706 781 3412 
Q 1013 4119 1484 4856 
L 1984 4856 
z
" transform="scale(0.015625)"/>
       <path id="DejaVuSans-Oblique-3c3" d="M 2219 3044 
Q 1744 3044 1422 2700 
Q 1081 2341 969 1747 
Q 844 1119 1044 756 
Q 1241 397 1706 397 
Q 2166 397 2503 759 
Q 2844 1122 2966 1747 
Q 3075 2319 2881 2700 
Q 2700 3044 2219 3044 
z
M 2309 3503 
L 4219 3500 
L 4106 2925 
L 3463 2925 
Q 3706 2438 3575 1747 
Q 3406 888 2884 400 
Q 2359 -91 1609 -91 
Q 856 -91 525 400 
Q 194 888 363 1747 
Q 528 2609 1050 3097 
Q 1484 3503 2309 3503 
z
" transform="scale(0.015625)"/>
       <path id="DejaVuSans-29" d="M 513 4856 
L 1013 4856 
Q 1481 4119 1714 3412 
Q 1947 2706 1947 2009 
Q 1947 1309 1714 600 
Q 1481 -109 1013 -844 
L 513 -844 
Q 928 -128 1133 580 
Q 1338 1288 1338 2009 
Q 1338 2731 1133 3434 
Q 928 4138 513 4856 
z
" transform="scale(0.015625)"/>
      </defs>
      <use xlink:href="#DejaVuSans-72" transform="translate(0 0.015625)"/>
      <use xlink:href="#DejaVuSans-65" transform="translate(41.113281 0.015625)"/>
      <use xlink:href="#DejaVuSans-6c" transform="translate(102.636719 0.015625)"/>
      <use xlink:href="#DejaVuSans-61" transform="translate(130.419922 0.015625)"/>
      <use xlink:href="#DejaVuSans-74" transform="translate(191.699219 0.015625)"/>
      <use xlink:href="#DejaVuSans-69" transform="translate(230.908203 0.015625)"/>
      <use xlink:href="#DejaVuSans-76" transform="translate(258.691406 0.015625)"/>
      <use xlink:href="#DejaVuSans-65" transform="translate(317.871094 0.015625)"/>
      <use xlink:href="#DejaVuSans-20" transform="translate(379.394531 0.015625)"/>
      <use xlink:href="#DejaVuSans-64" transform="translate(411.181641 0.015625)"/>
      <use xlink:href="#DejaVuSans-69" transform="translate(474.658203 0.015625)"/>
      <use xlink:href="#DejaVuSans-73" transform="translate(502.441406 0.015625)"/>
      <use xlink:href="#DejaVuSans-74" transform="translate(554.541016 0.015625)"/>
      <use xlink:href="#DejaVuSans-61" transform="translate(593.75 0.015625)"/>
      <use xlink:href="#DejaVuSans-6e" transform="translate(655.029297 0.015625)"/>
      <use xlink:href="#DejaVuSans-63" transform="translate(718.408203 0.015625)"/>
      <use xlink:href="#DejaVuSans-65" transform="translate(773.388672 0.015625)"/>
      <use xlink:href="#DejaVuSans-20" transform="translate(834.912109 0.015625)"/>
      <use xlink:href="#DejaVuSans-66" transform="translate(866.699219 0.015625)"/>
      <use xlink:href="#DejaVuSans-72" transform="translate(901.904297 0.015625)"/>
      <use xlink:href="#DejaVuSans-6f" transform="translate(943.017578 0.015625)"/>
      <use xlink:href="#DejaVuSans-6d" transform="translate(1004.199219 0.015625)"/>
      <use xlink:href="#DejaVuSans-20" transform="translate(1101.611328 0.015625)"/>
      <use xlink:href="#DejaVuSans-52" transform="translate(1133.398438 0.015625)"/>
      <use xlink:href="#DejaVuSans-4f" transform="translate(1202.880859 0.015625)"/>
      <use xlink:href="#DejaVuSans-49" transform="translate(1281.591797 0.015625)"/>
      <use xlink:href="#DejaVuSans-20" transform="translate(1311.083984 0.015625)"/>
      <use xlink:href="#DejaVuSans-63" transform="translate(1342.871094 0.015625)"/>
      <use xlink:href="#DejaVuSans-65" transform="translate(1397.851562 0.015625)"/>
      <use xlink:href="#DejaVuSans-6e" transform="translate(1459.375 0.015625)"/>
      <use xlink:href="#DejaVuSans-74" transform="translate(1522.753906 0.015625)"/>
      <use xlink:href="#DejaVuSans-65" transform="translate(1561.962891 0.015625)"/>
      <use xlink:href="#DejaVuSans-72" transform="translate(1623.486328 0.015625)"/>
      <use xlink:href="#DejaVuSans-20" transform="translate(1664.599609 0.015625)"/>
      <use xlink:href="#DejaVuSans-28" transform="translate(1696.386719 0.015625)"/>
      <use xlink:href="#DejaVuSans-Oblique-3c3" transform="translate(1735.400391 0.015625)"/>
      <use xlink:href="#DejaVuSans-29" transform="translate(1798.779297 0.015625)"/>
     </g>
    </g>
   </g>
   <g id="matplotlib.axis_2">
    <g id="ytick_1">
     <g id="line2d_7">
      <defs>
       <path id="mb35bd3fab7" d="M 0 0 
L -3.5 0 
" style="stroke: #000000; stroke-width: 0.8"/>
      </defs>
      <g>
       <use xlink:href="#mb35bd3fab7" x="50" y="376.457143" style="stroke: #000000; stroke-width: 0.8"/>
      </g>
     </g>
     <g id="text_8">
      <!-- −5 -->
      <g transform="translate(28.257812 380.256362) scale(0.1 -0.1)">
       <defs>
        <path id="DejaVuSans-2212" d="M 678 2272 
L 4684 2272 
L 4684 1741 
L 678 1741 
L 678 2272 
z
" transform="scale(0.015625)"/>
       </defs>
       <use xlink:href="#DejaVuSans-2212"/>
       <use xlink:href="#DejaVuSans-35" x="83.789062"/>
      </g>
     </g>
    </g>
    <g id="ytick_2">
     <g id="line2d_8">
      <g>
       <use xlink:href="#mb35bd3fab7" x="50" y="345.6" style="stroke: #000000; stroke-width: 0.8"/>
      </g>
     </g>
     <g id="text_9">
      <!-- 0 -->
      <g transform="translate(36.6375 349.399219) scale(0.1 -0.1)">
       <use xlink:href="#DejaVuSans-30"/>
      </g>
     </g>
    </g>
    <g id="ytick_3">
     <g id="line2d_9">
      <g>
       <use xlink:href="#mb35bd3fab7" x="50" y="314.742857" style="stroke: #000000; stroke-width: 0.8"/>
      </g>
     </g>
     <g id="text_10">
      <!-- 5 -->
      <g transform="translate(36.6375 318.542076) scale(0.1 -0.1)">
       <use xlink:href="#DejaVuSans-35"/>
      </g>
     </g>
    </g>
    <g id="text_11">
     <!-- BOLD % change -->
     <g transform="translate(22.594062 377.79625) rotate(-90) scale(0.08 -0.08)">
      <defs>
       <path id="DejaVuSans-42" d="M 1259 2228 
L 1259 519 
L 2272 519 
Q 2781 519 3026 730 
Q 3272 941 3272 1375 
Q 3272 1813 3026 2020 
Q 2781 2228 2272 2228 
L 1259 2228 
z
M 1259 4147 
L 1259 2741 
L 2194 2741 
Q 2656 2741 2882 2914 
Q 3109 3088 3109 3444 
Q 3109 3797 2882 3972 
Q 2656 4147 2194 4147 
L 1259 4147 
z
M 628 4666 
L 2241 4666 
Q 2963 4666 3353 4366 
Q 3744 4066 3744 3513 
Q 3744 3084 3544 2831 
Q 3344 2578 2956 2516 
Q 3422 2416 3680 2098 
Q 3938 1781 3938 1306 
Q 3938 681 3513 340 
Q 3088 0 2303 0 
L 628 0 
L 628 4666 
z
" transform="scale(0.015625)"/>
       <path id="DejaVuSans-4c" d="M 628 4666 
L 1259 4666 
L 1259 531 
L 3531 531 
L 3531 0 
L 628 0 
L 628 4666 
z
" transform="scale(0.015625)"/>
       <path id="DejaVuSans-44" d="M 1259 4147 
L 1259 519 
L 2022 519 
Q 2988 519 3436 956 
Q 3884 1394 3884 2338 
Q 3884 3275 3436 3711 
Q 2988 4147 2022 4147 
L 1259 4147 
z
M 628 4666 
L 1925 4666 
Q 3281 4666 3915 4102 
Q 4550 3538 4550 2338 
Q 4550 1131 3912 565 
Q 3275 0 1925 0 
L 628 0 
L 628 4666 
z
" transform="scale(0.015625)"/>
       <path id="DejaVuSans-25" d="M 4653 2053 
Q 4381 2053 4226 1822 
Q 4072 1591 4072 1178 
Q 4072 772 4226 539 
Q 4381 306 4653 306 
Q 4919 306 5073 539 
Q 5228 772 5228 1178 
Q 5228 1588 5073 1820 
Q 4919 2053 4653 2053 
z
M 4653 2450 
Q 5147 2450 5437 2106 
Q 5728 1763 5728 1178 
Q 5728 594 5436 251 
Q 5144 -91 4653 -91 
Q 4153 -91 3862 251 
Q 3572 594 3572 1178 
Q 3572 1766 3864 2108 
Q 4156 2450 4653 2450 
z
M 1428 4353 
Q 1159 4353 1004 4120 
Q 850 3888 850 3481 
Q 850 3069 1003 2837 
Q 1156 2606 1428 2606 
Q 1700 2606 1854 2837 
Q 2009 3069 2009 3481 
Q 2009 3884 1853 4118 
Q 1697 4353 1428 4353 
z
M 4250 4750 
L 4750 4750 
L 1831 -91 
L 1331 -91 
L 4250 4750 
z
M 1428 4750 
Q 1922 4750 2215 4408 
Q 2509 4066 2509 3481 
Q 2509 2891 2217 2550 
Q 1925 2209 1428 2209 
Q 931 2209 642 2551 
Q 353 2894 353 3481 
Q 353 4063 643 4406 
Q 934 4750 1428 4750 
z
" transform="scale(0.015625)"/>
       <path id="DejaVuSans-68" d="M 3513 2113 
L 3513 0 
L 2938 0 
L 2938 2094 
Q 2938 2591 2744 2837 
Q 2550 3084 2163 3084 
Q 1697 3084 1428 2787 
Q 1159 2491 1159 1978 
L 1159 0 
L 581 0 
L 581 4863 
L 1159 4863 
L 1159 2956 
Q 1366 3272 1645 3428 
Q 1925 3584 2291 3584 
Q 2894 3584 3203 3211 
Q 3513 2838 3513 2113 
z
" transform="scale(0.015625)"/>
       <path id="DejaVuSans-67" d="M 2906 1791 
Q 2906 2416 2648 2759 
Q 2391 3103 1925 3103 
Q 1463 3103 1205 2759 
Q 947 2416 947 1791 
Q 947 1169 1205 825 
Q 1463 481 1925 481 
Q 2391 481 2648 825 
Q 2906 1169 2906 1791 
z
M 3481 434 
Q 3481 -459 3084 -895 
Q 2688 -1331 1869 -1331 
Q 1566 -1331 1297 -1286 
Q 1028 -1241 775 -1147 
L 775 -588 
Q 1028 -725 1275 -790 
Q 1522 -856 1778 -856 
Q 2344 -856 2625 -561 
Q 2906 -266 2906 331 
L 2906 616 
Q 2728 306 2450 153 
Q 2172 0 1784 0 
Q 1141 0 747 490 
Q 353 981 353 1791 
Q 353 2603 747 3093 
Q 1141 3584 1784 3584 
Q 2172 3584 2450 3431 
Q 2728 3278 2906 2969 
L 2906 3500 
L 3481 3500 
L 3481 434 
z
" transform="scale(0.015625)"/>
      </defs>
      <use xlink:href="#DejaVuSans-42"/>
      <use xlink:href="#DejaVuSans-4f" x="66.853516"/>
      <use xlink:href="#DejaVuSans-4c" x="145.564453"/>
      <use xlink:href="#DejaVuSans-44" x="201.277344"/>
      <use xlink:href="#DejaVuSans-20" x="278.279297"/>
      <use xlink:href="#DejaVuSans-25" x="310.066406"/>
      <use xlink:href="#DejaVuSans-20" x="405.085938"/>
      <use xlink:href="#DejaVuSans-63" x="436.873047"/>
      <use xlink:href="#DejaVuSans-68" x="491.853516"/>
      <use xlink:href="#DejaVuSans-61" x="555.232422"/>
      <use xlink:href="#DejaVuSans-6e" x="616.511719"/>
      <use xlink:href="#DejaVuSans-67" x="679.890625"/>
      <use xlink:href="#DejaVuSans-65" x="743.367188"/>
     </g>
    </g>
   </g>
   <g id="line2d_10">
    <path d="M 65.454545 348.443355 
L 70.12987 348.403245 
L 74.805195 348.261875 
L 79.480519 348.155631 
L 84.155844 348.126204 
L 88.831169 348.196758 
L 93.506494 348.230293 
L 98.181818 348.129095 
L 102.857143 348.408678 
L 107.532468 348.486498 
L 112.207792 348.492416 
L 116.883117 348.291812 
L 121.558442 348.065598 
L 126.233766 347.802153 
L 130.909091 347.581389 
L 135.584416 347.315141 
L 140.25974 347.19606 
L 144.935065 347.180698 
L 149.61039 347.160237 
L 154.285714 347.13357 
L 158.961039 347.121479 
L 163.636364 347.020808 
L 168.311688 346.938334 
L 172.987013 346.860555 
L 177.662338 346.755025 
L 182.337662 346.770536 
L 187.012987 346.818836 
L 191.688312 346.794927 
L 196.363636 346.846498 
L 201.038961 346.966406 
L 205.714286 347.209376 
L 210.38961 347.397539 
L 215.064935 347.49193 
L 219.74026 347.348661 
L 224.415584 347.415159 
L 229.090909 347.434622 
L 233.766234 347.414674 
L 238.441558 347.306447 
L 243.116883 347.301761 
L 247.792208 347.42805 
L 252.467532 347.474235 
L 257.142857 347.404462 
L 261.818182 347.158733 
L 266.493506 346.941485 
L 271.168831 346.802857 
L 275.844156 346.808025 
L 280.519481 347.004967 
L 285.194805 347.153463 
L 289.87013 347.057893 
L 294.545455 346.907892 
" clip-path="url(#p76474cae05)" style="fill: none; stroke: #ff0000; stroke-width: 1.5; stroke-linecap: square"/>
   </g>
   <g id="line2d_11">
    <path d="M 65.454545 354.19233 
L 70.12987 354.47463 
L 74.805195 354.524231 
L 79.480519 354.682119 
L 84.155844 354.518516 
L 88.831169 354.950534 
L 93.506494 355.415658 
L 98.181818 355.87467 
L 102.857143 356.183456 
L 107.532468 355.318267 
L 112.207792 354.432504 
L 116.883117 353.526228 
L 121.558442 352.953983 
L 126.233766 352.718064 
L 130.909091 352.7033 
L 135.584416 353.003479 
L 140.25974 353.39601 
L 144.935065 353.952702 
L 149.61039 354.071172 
L 154.285714 354.01065 
L 158.961039 353.605896 
L 163.636364 352.997082 
L 168.311688 352.601829 
L 172.987013 352.426355 
L 177.662338 352.308243 
L 182.337662 352.53968 
L 187.012987 352.547427 
L 191.688312 352.107365 
L 196.363636 351.646462 
L 201.038961 352.202917 
L 205.714286 353.488622 
L 210.38961 354.859619 
L 215.064935 355.123791 
L 219.74026 354.697959 
L 224.415584 354.508526 
L 229.090909 354.143503 
L 233.766234 354.749254 
L 238.441558 355.468935 
L 243.116883 355.488373 
L 247.792208 354.538135 
L 252.467532 353.910111 
L 257.142857 353.13463 
L 261.818182 353.091926 
L 266.493506 353.537271 
L 271.168831 353.810988 
L 275.844156 353.757526 
L 280.519481 353.478823 
L 285.194805 352.534706 
L 289.87013 351.527181 
L 294.545455 351.255682 
" clip-path="url(#p76474cae05)" style="fill: none; stroke: #ff0000; stroke-opacity: 0.2; stroke-width: 1.5; stroke-linecap: square"/>
   </g>
   <g id="line2d_12">
    <path d="M 65.454545 341.15757 
L 70.12987 341.15757 
L 74.805195 341.562739 
L 79.480519 342.063454 
L 84.155844 343.136335 
L 88.831169 343.177769 
L 93.506494 342.552323 
L 98.181818 340.637985 
L 102.857143 339.652276 
L 107.532468 339.063472 
L 112.207792 339.145787 
L 116.883117 339.413748 
L 121.558442 340.052661 
L 126.233766 339.47783 
L 130.909091 339.80177 
L 135.584416 340.022995 
L 140.25974 340.340436 
L 144.935065 340.700489 
L 149.61039 341.006857 
L 154.285714 341.019519 
L 158.961039 341.13793 
L 163.636364 341.27816 
L 168.311688 340.924534 
L 172.987013 340.658274 
L 177.662338 340.548664 
L 182.337662 339.687431 
L 187.012987 339.067677 
L 191.688312 339.274674 
L 196.363636 340.039367 
L 201.038961 340.403315 
L 205.714286 340.664141 
L 210.38961 340.83615 
L 215.064935 341.040601 
L 219.74026 340.871511 
L 224.415584 340.65646 
L 229.090909 340.17942 
L 233.766234 339.34252 
L 238.441558 338.435594 
L 243.116883 337.902976 
L 247.792208 337.590319 
L 252.467532 337.292511 
L 257.142857 336.834964 
L 261.818182 336.126657 
L 266.493506 335.493402 
L 271.168831 335.212009 
L 275.844156 335.171167 
L 280.519481 335.50198 
L 285.194805 336.125075 
L 289.87013 337.096011 
L 294.545455 337.628957 
" clip-path="url(#p76474cae05)" style="fill: none; stroke: #ff0000; stroke-opacity: 0.2; stroke-width: 1.5; stroke-linecap: square"/>
   </g>
   <g id="line2d_13">
    <path d="M 65.454545 352.77858 
L 70.12987 352.577423 
L 74.805195 351.549746 
L 79.480519 350.434025 
L 84.155844 349.504106 
L 88.831169 349.473815 
L 93.506494 349.748873 
L 98.181818 348.87699 
L 102.857143 348.396769 
L 107.532468 348.086395 
L 112.207792 347.935039 
L 116.883117 347.844467 
L 121.558442 348.126963 
L 126.233766 348.569453 
L 130.909091 349.009459 
L 135.584416 349.422776 
L 140.25974 349.824051 
L 144.935065 350.399671 
L 149.61039 350.939677 
L 154.285714 351.595901 
L 158.961039 352.33382 
L 163.636364 352.852733 
L 168.311688 353.387241 
L 172.987013 353.872367 
L 177.662338 354.486468 
L 182.337662 355.203992 
L 187.012987 355.593035 
L 191.688312 355.345972 
L 196.363636 355.231638 
L 201.038961 355.316582 
L 205.714286 355.116952 
L 210.38961 354.409812 
L 215.064935 353.920058 
L 219.74026 353.528139 
L 224.415584 353.41133 
L 229.090909 353.290091 
L 233.766234 353.125737 
L 238.441558 352.811627 
L 243.116883 352.623469 
L 247.792208 352.923506 
L 252.467532 353.520702 
L 257.142857 354.118023 
L 261.818182 353.621694 
L 266.493506 353.113399 
L 271.168831 352.247567 
L 275.844156 351.420687 
L 280.519481 351.849908 
L 285.194805 351.85005 
L 289.87013 350.438909 
L 294.545455 349.520509 
" clip-path="url(#p76474cae05)" style="fill: none; stroke: #ff0000; stroke-opacity: 0.2; stroke-width: 1.5; stroke-linecap: square"/>
   </g>
   <g id="line2d_14">
    <path d="M 65.454545 360.44035 
L 70.12987 360.44035 
L 74.805195 360.145338 
L 79.480519 360.35652 
L 84.155844 360.667893 
L 88.831169 359.895685 
L 93.506494 359.325926 
L 98.181818 358.160423 
L 102.857143 357.428156 
L 107.532468 356.23292 
L 112.207792 354.407203 
L 116.883117 353.011798 
L 121.558442 352.343882 
L 126.233766 352.118497 
L 130.909091 351.805589 
L 135.584416 351.993394 
L 140.25974 352.586829 
L 144.935065 353.016211 
L 149.61039 352.994163 
L 154.285714 352.761888 
L 158.961039 352.829483 
L 163.636364 353.132351 
L 168.311688 353.538245 
L 172.987013 353.830096 
L 177.662338 353.502253 
L 182.337662 353.496811 
L 187.012987 353.173204 
L 191.688312 352.838479 
L 196.363636 352.626751 
L 201.038961 352.406 
L 205.714286 352.280251 
L 210.38961 352.506861 
L 215.064935 352.752587 
L 219.74026 352.322924 
L 224.415584 352.093936 
L 229.090909 351.966897 
L 233.766234 352.011721 
L 238.441558 351.794932 
L 243.116883 351.605774 
L 247.792208 351.461641 
L 252.467532 351.23239 
L 257.142857 350.983834 
L 261.818182 351.252636 
L 266.493506 351.073805 
L 271.168831 350.956033 
L 275.844156 351.546393 
L 280.519481 351.691527 
L 285.194805 351.820626 
L 289.87013 351.917801 
L 294.545455 351.24097 
" clip-path="url(#p76474cae05)" style="fill: none; stroke: #ff0000; stroke-opacity: 0.2; stroke-width: 1.5; stroke-linecap: square"/>
   </g>
   <g id="line2d_15">
    <path d="M 65.454545 345.171631 
L 70.12987 345.117027 
L 74.805195 343.700536 
L 79.480519 342.395712 
L 84.155844 341.741696 
L 88.831169 340.816112 
L 93.506494 339.814554 
L 98.181818 340.114924 
L 102.857143 340.822801 
L 107.532468 341.906153 
L 112.207792 342.3342 
L 116.883117 342.851913 
L 121.558442 342.035144 
L 126.233766 340.738688 
L 130.909091 340.431863 
L 135.584416 340.325924 
L 140.25974 340.031659 
L 144.935065 340.237529 
L 149.61039 340.691409 
L 154.285714 340.936876 
L 158.961039 340.659969 
L 163.636364 340.041606 
L 168.311688 339.608435 
L 172.987013 339.397439 
L 177.662338 339.585825 
L 182.337662 339.845814 
L 187.012987 340.309033 
L 191.688312 340.31606 
L 196.363636 339.923238 
L 201.038961 339.607826 
L 205.714286 339.935992 
L 210.38961 340.578738 
L 215.064935 341.345635 
L 219.74026 341.341039 
L 224.415584 341.023344 
L 229.090909 340.346556 
L 233.766234 339.84204 
L 238.441558 339.331985 
L 243.116883 339.270108 
L 247.792208 339.006688 
L 252.467532 338.860954 
L 257.142857 338.660071 
L 261.818182 338.327615 
L 266.493506 338.288514 
L 271.168831 338.418249 
L 275.844156 338.915309 
L 280.519481 339.161526 
L 285.194805 338.70889 
L 289.87013 338.451927 
L 294.545455 338.496222 
" clip-path="url(#p76474cae05)" style="fill: none; stroke: #ff0000; stroke-opacity: 0.2; stroke-width: 1.5; stroke-linecap: square"/>
   </g>
   <g id="line2d_16">
    <path d="M 65.454545 341.789859 
L 70.12987 342.579077 
L 74.805195 343.871988 
L 79.480519 344.632047 
L 84.155844 345.188136 
L 88.831169 346.705824 
L 93.506494 349.058983 
L 98.181818 351.652553 
L 102.857143 354.567357 
L 107.532468 356.930978 
L 112.207792 358.089067 
L 116.883117 357.106694 
L 121.558442 355.710563 
L 126.233766 355.472983 
L 130.909091 355.225774 
L 135.584416 353.942436 
L 140.25974 353.755586 
L 144.935065 353.304198 
L 149.61039 352.614015 
L 154.285714 351.821456 
L 158.961039 351.166173 
L 163.636364 350.729872 
L 168.311688 350.531808 
L 172.987013 350.003577 
L 177.662338 349.602169 
L 182.337662 349.241982 
L 187.012987 349.351201 
L 191.688312 349.362915 
L 196.363636 349.179376 
L 201.038961 349.272053 
L 205.714286 349.130034 
L 210.38961 348.543309 
L 215.064935 347.995391 
L 219.74026 348.159725 
L 224.415584 348.834192 
L 229.090909 349.376757 
L 233.766234 349.794182 
L 238.441558 349.841048 
L 243.116883 350.065428 
L 247.792208 350.241781 
L 252.467532 349.390583 
L 257.142857 348.262905 
L 261.818182 346.9299 
L 266.493506 346.117759 
L 271.168831 345.480842 
L 275.844156 345.999282 
L 280.519481 346.135318 
L 285.194805 346.190667 
L 289.87013 346.216572 
L 294.545455 346.745866 
" clip-path="url(#p76474cae05)" style="fill: none; stroke: #ff0000; stroke-opacity: 0.2; stroke-width: 1.5; stroke-linecap: square"/>
   </g>
   <g id="line2d_17">
    <path d="M 65.454545 344.265097 
L 70.12987 344.204218 
L 74.805195 343.95536 
L 79.480519 343.91975 
L 84.155844 343.805826 
L 88.831169 343.95176 
L 93.506494 343.93073 
L 98.181818 343.880351 
L 102.857143 343.667752 
L 107.532468 343.65453 
L 112.207792 343.438685 
L 116.883117 343.102031 
L 121.558442 342.370471 
L 126.233766 341.774057 
L 130.909091 341.535728 
L 135.584416 341.383309 
L 140.25974 341.428795 
L 144.935065 341.488687 
L 149.61039 342.108025 
L 154.285714 342.62239 
L 158.961039 342.972617 
L 163.636364 342.902729 
L 168.311688 342.954388 
L 172.987013 342.612657 
L 177.662338 342.31374 
L 182.337662 342.582059 
L 187.012987 342.95324 
L 191.688312 343.367819 
L 196.363636 343.746075 
L 201.038961 343.769371 
L 205.714286 343.862272 
L 210.38961 344.180886 
L 215.064935 344.132967 
L 219.74026 343.985483 
L 224.415584 343.828232 
L 229.090909 344.055565 
L 233.766234 344.224814 
L 238.441558 344.587458 
L 243.116883 345.257239 
L 247.792208 346.059328 
L 252.467532 346.830658 
L 257.142857 347.161133 
L 261.818182 347.225906 
L 266.493506 347.32413 
L 271.168831 347.476833 
L 275.844156 347.17445 
L 280.519481 347.107572 
L 285.194805 347.555864 
L 289.87013 347.688164 
L 294.545455 348.173469 
" clip-path="url(#p76474cae05)" style="fill: none; stroke: #ff0000; stroke-opacity: 0.2; stroke-width: 1.5; stroke-linecap: square"/>
   </g>
   <g id="line2d_18">
    <path d="M 65.454545 352.4727 
L 70.12987 352.23819 
L 74.805195 351.717789 
L 79.480519 350.621605 
L 84.155844 350.382814 
L 88.831169 350.701727 
L 93.506494 350.679195 
L 98.181818 350.539744 
L 102.857143 350.69671 
L 107.532468 350.315639 
L 112.207792 350.666283 
L 116.883117 351.347916 
L 121.558442 352.258941 
L 126.233766 352.755799 
L 130.909091 352.111871 
L 135.584416 350.989888 
L 140.25974 350.426704 
L 144.935065 350.141046 
L 149.61039 349.614328 
L 154.285714 349.53614 
L 158.961039 348.917124 
L 163.636364 347.908855 
L 168.311688 346.705933 
L 172.987013 345.774236 
L 177.662338 345.040644 
L 182.337662 345.17233 
L 187.012987 345.727319 
L 191.688312 346.171458 
L 196.363636 346.595394 
L 201.038961 347.245713 
L 205.714286 347.834217 
L 210.38961 348.137319 
L 215.064935 348.5251 
L 219.74026 348.429418 
L 224.415584 349.059096 
L 229.090909 349.659055 
L 233.766234 349.321526 
L 238.441558 348.338084 
L 243.116883 347.898107 
L 247.792208 348.489193 
L 252.467532 348.828523 
L 257.142857 348.935108 
L 261.818182 348.701072 
L 266.493506 348.385653 
L 271.168831 348.266763 
L 275.844156 348.076618 
L 280.519481 348.675752 
L 285.194805 349.407526 
L 289.87013 349.60362 
L 294.545455 349.084986 
" clip-path="url(#p76474cae05)" style="fill: none; stroke: #ff0000; stroke-opacity: 0.2; stroke-width: 1.5; stroke-linecap: square"/>
   </g>
   <g id="line2d_19">
    <path d="M 65.454545 348.909047 
L 70.12987 348.898783 
L 74.805195 348.811341 
L 79.480519 349.432741 
L 84.155844 349.693714 
L 88.831169 349.656536 
L 93.506494 349.366823 
L 98.181818 349.642072 
L 102.857143 349.886898 
L 107.532468 349.875895 
L 112.207792 349.836928 
L 116.883117 349.858278 
L 121.558442 349.892366 
L 126.233766 349.794575 
L 130.909091 349.496592 
L 135.584416 349.325376 
L 140.25974 349.116569 
L 144.935065 348.97962 
L 149.61039 348.677437 
L 154.285714 348.245223 
L 158.961039 348.037135 
L 163.636364 347.853696 
L 168.311688 347.685507 
L 172.987013 347.953858 
L 177.662338 348.110541 
L 182.337662 348.118781 
L 187.012987 348.087005 
L 191.688312 348.082142 
L 196.363636 348.441218 
L 201.038961 348.530298 
L 205.714286 348.703289 
L 210.38961 348.989106 
L 215.064935 349.015728 
L 219.74026 348.902426 
L 224.415584 348.861302 
L 229.090909 348.756611 
L 233.766234 348.833266 
L 238.441558 348.657475 
L 243.116883 348.668108 
L 247.792208 348.821809 
L 252.467532 349.091866 
L 257.142857 349.134164 
L 261.818182 349.157422 
L 266.493506 349.051938 
L 271.168831 348.838168 
L 275.844156 348.528369 
L 280.519481 348.84873 
L 285.194805 349.61088 
L 289.87013 350.177473 
L 294.545455 350.47831 
" clip-path="url(#p76474cae05)" style="fill: none; stroke: #ff0000; stroke-opacity: 0.2; stroke-width: 1.5; stroke-linecap: square"/>
   </g>
   <g id="line2d_20">
    <path d="M 65.454545 340.474693 
L 70.12987 339.214115 
L 74.805195 338.359394 
L 79.480519 337.479942 
L 84.155844 336.701991 
L 88.831169 337.098409 
L 93.506494 337.814196 
L 98.181818 338.256409 
L 102.857143 340.086395 
L 107.532468 341.066649 
L 112.207792 342.143173 
L 116.883117 341.84196 
L 121.558442 341.32102 
L 126.233766 340.85511 
L 130.909091 340.008301 
L 135.584416 339.081322 
L 140.25974 338.090367 
L 144.935065 337.41771 
L 149.61039 337.000149 
L 154.285714 336.762565 
L 158.961039 337.444801 
L 163.636364 338.64424 
L 168.311688 339.728402 
L 172.987013 340.458335 
L 177.662338 340.308967 
L 182.337662 340.246591 
L 187.012987 340.129789 
L 191.688312 339.615923 
L 196.363636 339.212565 
L 201.038961 338.89697 
L 205.714286 339.027162 
L 210.38961 338.773696 
L 215.064935 338.527186 
L 219.74026 338.174911 
L 224.415584 338.509921 
L 229.090909 339.096349 
L 233.766234 339.38031 
L 238.441558 340.236985 
L 243.116883 340.741532 
L 247.792208 341.671761 
L 252.467532 342.347894 
L 257.142857 343.2579 
L 261.818182 343.478796 
L 266.493506 343.417012 
L 271.168831 343.928268 
L 275.844156 344.069342 
L 280.519481 344.288339 
L 285.194805 344.272819 
L 289.87013 343.751886 
L 294.545455 342.636609 
" clip-path="url(#p76474cae05)" style="fill: none; stroke: #ff0000; stroke-opacity: 0.2; stroke-width: 1.5; stroke-linecap: square"/>
   </g>
   <g id="line2d_21">
    <path d="M 65.454545 351.225049 
L 70.12987 351.534316 
L 74.805195 352.682165 
L 79.480519 353.694032 
L 84.155844 354.047213 
L 88.831169 353.736167 
L 93.506494 352.825966 
L 98.181818 351.78392 
L 102.857143 351.106884 
L 107.532468 350.900582 
L 112.207792 350.987713 
L 116.883117 351.304898 
L 121.558442 351.655585 
L 126.233766 351.548624 
L 130.909091 351.26503 
L 135.584416 350.975648 
L 140.25974 350.15965 
L 144.935065 349.349818 
L 149.61039 349.045368 
L 154.285714 349.156658 
L 158.961039 349.231324 
L 163.636364 348.887563 
L 168.311688 348.655351 
L 172.987013 348.478907 
L 177.662338 348.497767 
L 182.337662 348.340422 
L 187.012987 348.068262 
L 191.688312 348.261393 
L 196.363636 348.669391 
L 201.038961 348.979421 
L 205.714286 349.260206 
L 210.38961 349.557438 
L 215.064935 350.032192 
L 219.74026 350.421737 
L 224.415584 350.780406 
L 229.090909 350.910032 
L 233.766234 350.936047 
L 238.441558 350.866796 
L 243.116883 350.798262 
L 247.792208 350.90439 
L 252.467532 350.91039 
L 257.142857 350.966352 
L 261.818182 350.83244 
L 266.493506 350.553455 
L 271.168831 350.195706 
L 275.844156 350.22913 
L 280.519481 350.315157 
L 285.194805 350.61099 
L 289.87013 350.76728 
L 294.545455 350.725232 
" clip-path="url(#p76474cae05)" style="fill: none; stroke: #ff0000; stroke-opacity: 0.2; stroke-width: 1.5; stroke-linecap: square"/>
   </g>
   <g id="line2d_22">
    <path d="M 111.272727 382.628571 
L 111.272727 308.571429 
" clip-path="url(#p76474cae05)" style="fill: none; stroke-dasharray: 5.55,2.4; stroke-dashoffset: 0; stroke: #000000; stroke-width: 1.5"/>
   </g>
   <g id="line2d_23">
    <path d="M 65.454545 345.6 
L 294.545455 345.6 
" clip-path="url(#p76474cae05)" style="fill: none; stroke-dasharray: 5.55,2.4; stroke-dashoffset: 0; stroke: #000000; stroke-width: 1.5"/>
   </g>
   <g id="patch_3">
    <path d="M 50 388.8 
L 50 302.4 
" style="fill: none; stroke: #000000; stroke-width: 0.8; stroke-linejoin: miter; stroke-linecap: square"/>
   </g>
   <g id="patch_4">
    <path d="M 54 392.8 
L 306 392.8 
" style="fill: none; stroke: #000000; stroke-width: 0.8; stroke-linejoin: miter; stroke-linecap: square"/>
   </g>
   <g id="text_12">
    <!-- all depths -->
    <g transform="translate(150.492188 296.4) scale(0.12 -0.12)">
     <defs>
      <path id="DejaVuSans-70" d="M 1159 525 
L 1159 -1331 
L 581 -1331 
L 581 3500 
L 1159 3500 
L 1159 2969 
Q 1341 3281 1617 3432 
Q 1894 3584 2278 3584 
Q 2916 3584 3314 3078 
Q 3713 2572 3713 1747 
Q 3713 922 3314 415 
Q 2916 -91 2278 -91 
Q 1894 -91 1617 61 
Q 1341 213 1159 525 
z
M 3116 1747 
Q 3116 2381 2855 2742 
Q 2594 3103 2138 3103 
Q 1681 3103 1420 2742 
Q 1159 2381 1159 1747 
Q 1159 1113 1420 752 
Q 1681 391 2138 391 
Q 2594 391 2855 752 
Q 3116 1113 3116 1747 
z
" transform="scale(0.015625)"/>
     </defs>
     <use xlink:href="#DejaVuSans-61"/>
     <use xlink:href="#DejaVuSans-6c" x="61.279297"/>
     <use xlink:href="#DejaVuSans-6c" x="89.0625"/>
     <use xlink:href="#DejaVuSans-20" x="116.845703"/>
     <use xlink:href="#DejaVuSans-64" x="148.632812"/>
     <use xlink:href="#DejaVuSans-65" x="212.109375"/>
     <use xlink:href="#DejaVuSans-70" x="273.632812"/>
     <use xlink:href="#DejaVuSans-74" x="337.109375"/>
     <use xlink:href="#DejaVuSans-68" x="376.318359"/>
     <use xlink:href="#DejaVuSans-73" x="439.697266"/>
    </g>
   </g>
   <g id="legend_1">
    <g id="patch_5">
     <path d="M 114.134375 325.35625 
L 299 325.35625 
Q 301 325.35625 301 323.35625 
L 301 309.4 
Q 301 307.4 299 307.4 
L 114.134375 307.4 
Q 112.134375 307.4 112.134375 309.4 
L 112.134375 323.35625 
Q 112.134375 325.35625 114.134375 325.35625 
z
" style="fill: #ffffff; opacity: 0.8; stroke: #cccccc; stroke-linejoin: miter"/>
    </g>
    <g id="line2d_24">
     <path d="M 116.134375 315.498437 
L 126.134375 315.498437 
L 136.134375 315.498437 
" style="fill: none; stroke: #ff0000; stroke-width: 1.5; stroke-linecap: square"/>
    </g>
    <g id="text_13">
     <!-- V23_superficial_deveined_iso0 -->
     <g transform="translate(144.134375 318.998437) scale(0.1 -0.1)">
      <defs>
       <path id="DejaVuSans-56" d="M 1831 0 
L 50 4666 
L 709 4666 
L 2188 738 
L 3669 4666 
L 4325 4666 
L 2547 0 
L 1831 0 
z
" transform="scale(0.015625)"/>
       <path id="DejaVuSans-5f" d="M 3263 -1063 
L 3263 -1509 
L -63 -1509 
L -63 -1063 
L 3263 -1063 
z
" transform="scale(0.015625)"/>
       <path id="DejaVuSans-75" d="M 544 1381 
L 544 3500 
L 1119 3500 
L 1119 1403 
Q 1119 906 1312 657 
Q 1506 409 1894 409 
Q 2359 409 2629 706 
Q 2900 1003 2900 1516 
L 2900 3500 
L 3475 3500 
L 3475 0 
L 2900 0 
L 2900 538 
Q 2691 219 2414 64 
Q 2138 -91 1772 -91 
Q 1169 -91 856 284 
Q 544 659 544 1381 
z
M 1991 3584 
L 1991 3584 
z
" transform="scale(0.015625)"/>
      </defs>
      <use xlink:href="#DejaVuSans-56"/>
      <use xlink:href="#DejaVuSans-32" x="68.408203"/>
      <use xlink:href="#DejaVuSans-33" x="132.03125"/>
      <use xlink:href="#DejaVuSans-5f" x="195.654297"/>
      <use xlink:href="#DejaVuSans-73" x="245.654297"/>
      <use xlink:href="#DejaVuSans-75" x="297.753906"/>
      <use xlink:href="#DejaVuSans-70" x="361.132812"/>
      <use xlink:href="#DejaVuSans-65" x="424.609375"/>
      <use xlink:href="#DejaVuSans-72" x="486.132812"/>
      <use xlink:href="#DejaVuSans-66" x="527.246094"/>
      <use xlink:href="#DejaVuSans-69" x="562.451172"/>
      <use xlink:href="#DejaVuSans-63" x="590.234375"/>
      <use xlink:href="#DejaVuSans-69" x="645.214844"/>
      <use xlink:href="#DejaVuSans-61" x="672.998047"/>
      <use xlink:href="#DejaVuSans-6c" x="734.277344"/>
      <use xlink:href="#DejaVuSans-5f" x="762.060547"/>
      <use xlink:href="#DejaVuSans-64" x="812.060547"/>
      <use xlink:href="#DejaVuSans-65" x="875.537109"/>
      <use xlink:href="#DejaVuSans-76" x="937.060547"/>
      <use xlink:href="#DejaVuSans-65" x="996.240234"/>
      <use xlink:href="#DejaVuSans-69" x="1057.763672"/>
      <use xlink:href="#DejaVuSans-6e" x="1085.546875"/>
      <use xlink:href="#DejaVuSans-65" x="1148.925781"/>
      <use xlink:href="#DejaVuSans-64" x="1210.449219"/>
      <use xlink:href="#DejaVuSans-5f" x="1273.925781"/>
      <use xlink:href="#DejaVuSans-69" x="1323.925781"/>
      <use xlink:href="#DejaVuSans-73" x="1351.708984"/>
      <use xlink:href="#DejaVuSans-6f" x="1403.808594"/>
      <use xlink:href="#DejaVuSans-30" x="1464.990234"/>
     </g>
    </g>
   </g>
  </g>
 </g>
 <defs>
  <clipPath id="p76474cae05">
   <rect x="54" y="302.4" width="252" height="86.4"/>
  </clipPath>
 </defs>
</svg>
