<?xml version="1.0" encoding="utf-8" standalone="no"?>
<!DOCTYPE svg PUBLIC "-//W3C//DTD SVG 1.1//EN"
  "http://www.w3.org/Graphics/SVG/1.1/DTD/svg11.dtd">
<svg xmlns:xlink="http://www.w3.org/1999/xlink" width="576pt" height="504pt" viewBox="0 0 576 504" xmlns="http://www.w3.org/2000/svg" version="1.1">
 <metadata>
  <rdf:RDF xmlns:dc="http://purl.org/dc/elements/1.1/" xmlns:cc="http://creativecommons.org/ns#" xmlns:rdf="http://www.w3.org/1999/02/22-rdf-syntax-ns#">
   <cc:Work>
    <dc:type rdf:resource="http://purl.org/dc/dcmitype/StillImage"/>
    <dc:date>2025-09-22T15:18:49.685215</dc:date>
    <dc:format>image/svg+xml</dc:format>
    <dc:creator>
     <cc:Agent>
      <dc:title>Matplotlib v3.8.0, https://matplotlib.org/</dc:title>
     </cc:Agent>
    </dc:creator>
   </cc:Work>
  </rdf:RDF>
 </metadata>
 <defs>
  <style type="text/css">*{stroke-linejoin: round; stroke-linecap: butt}</style>
 </defs>
 <g id="figure_1">
  <g id="patch_1">
   <path d="M 0 504 
L 576 504 
L 576 0 
L 0 0 
z
" style="fill: #ffffff"/>
  </g>
  <g id="axes_1">
   <g id="patch_2">
    <path d="M 86.4 241.92 
L 489.6 241.92 
L 489.6 40.32 
L 86.4 40.32 
z
" style="fill: #ffffff"/>
   </g>
   <g id="PolyCollection_1">
    <defs>
     <path id="ma5862d80a6" d="M 86.4 -466.412553 
L 86.4 -394.804005 
L 94.628571 -395.400475 
L 102.857143 -397.012883 
L 111.085714 -401.24769 
L 119.314286 -398.358856 
L 127.542857 -396.510792 
L 135.771429 -394.771594 
L 144 -386.949382 
L 152.228571 -380.971112 
L 160.457143 -375.815032 
L 168.685714 -376.834304 
L 176.914286 -373.273394 
L 185.142857 -371.184072 
L 193.371429 -370.321198 
L 201.6 -368.298799 
L 209.828571 -367.484656 
L 218.057143 -367.159648 
L 226.285714 -365.038235 
L 234.514286 -363.939183 
L 242.742857 -360.610268 
L 250.971429 -361.605129 
L 259.2 -364.74061 
L 267.428571 -364.66269 
L 275.657143 -360.909953 
L 283.885714 -353.433121 
L 292.114286 -346.871996 
L 300.342857 -338.464493 
L 308.571429 -330.376671 
L 316.8 -333.220298 
L 325.028571 -336.460539 
L 333.257143 -338.846899 
L 341.485714 -335.475558 
L 349.714286 -331.520269 
L 357.942857 -332.756318 
L 366.171429 -340.850182 
L 374.4 -349.575163 
L 382.628571 -359.073229 
L 390.857143 -361.97834 
L 399.085714 -359.918488 
L 407.314286 -359.916091 
L 415.542857 -360.382999 
L 423.771429 -362.412976 
L 432 -364.21467 
L 440.228571 -365.82139 
L 448.457143 -365.0864 
L 456.685714 -360.407621 
L 464.914286 -359.064272 
L 473.142857 -354.081067 
L 481.371429 -348.471134 
L 489.6 -344.609247 
L 489.6 -375.388272 
L 489.6 -375.388272 
L 481.371429 -376.48611 
L 473.142857 -380.268542 
L 464.914286 -386.022306 
L 456.685714 -390.995956 
L 448.457143 -397.344743 
L 440.228571 -399.101114 
L 432 -397.296935 
L 423.771429 -392.301357 
L 415.542857 -385.944088 
L 407.314286 -382.73863 
L 399.085714 -381.746136 
L 390.857143 -382.92852 
L 382.628571 -382.016989 
L 374.4 -377.017205 
L 366.171429 -371.848526 
L 357.942857 -367.353944 
L 349.714286 -365.157911 
L 341.485714 -366.817308 
L 333.257143 -368.137042 
L 325.028571 -368.463888 
L 316.8 -370.066051 
L 308.571429 -371.021858 
L 300.342857 -377.676201 
L 292.114286 -385.141847 
L 283.885714 -389.921622 
L 275.657143 -394.342624 
L 267.428571 -397.891741 
L 259.2 -402.151446 
L 250.971429 -404.877466 
L 242.742857 -405.423013 
L 234.514286 -406.728067 
L 226.285714 -407.623137 
L 218.057143 -411.581945 
L 209.828571 -415.504938 
L 201.6 -419.752815 
L 193.371429 -422.206081 
L 185.142857 -421.883003 
L 176.914286 -422.106192 
L 168.685714 -426.075031 
L 160.457143 -430.420141 
L 152.228571 -438.698206 
L 144 -445.896307 
L 135.771429 -452.411804 
L 127.542857 -453.361487 
L 119.314286 -454.937875 
L 111.085714 -459.139789 
L 102.857143 -457.740136 
L 94.628571 -462.290302 
L 86.4 -466.412553 
z
" style="stroke: #1a8000; stroke-opacity: 0.4"/>
    </defs>
    <g clip-path="url(#p2d678dd39d)">
     <use xlink:href="#ma5862d80a6" x="0" y="504" style="fill: #1a8000; fill-opacity: 0.4; stroke: #1a8000; stroke-opacity: 0.4"/>
    </g>
   </g>
   <g id="matplotlib.axis_1">
    <g id="xtick_1">
     <g id="line2d_1">
      <defs>
       <path id="m68d2d718bf" d="M 0 0 
L 0 3.5 
" style="stroke: #000000; stroke-width: 0.8"/>
      </defs>
      <g>
       <use xlink:href="#m68d2d718bf" x="86.4" y="245.92" style="stroke: #000000; stroke-width: 0.8"/>
      </g>
     </g>
    </g>
    <g id="xtick_2">
     <g id="line2d_2">
      <g>
       <use xlink:href="#m68d2d718bf" x="167.04" y="245.92" style="stroke: #000000; stroke-width: 0.8"/>
      </g>
     </g>
    </g>
    <g id="xtick_3">
     <g id="line2d_3">
      <g>
       <use xlink:href="#m68d2d718bf" x="247.68" y="245.92" style="stroke: #000000; stroke-width: 0.8"/>
      </g>
     </g>
    </g>
    <g id="xtick_4">
     <g id="line2d_4">
      <g>
       <use xlink:href="#m68d2d718bf" x="328.32" y="245.92" style="stroke: #000000; stroke-width: 0.8"/>
      </g>
     </g>
    </g>
    <g id="xtick_5">
     <g id="line2d_5">
      <g>
       <use xlink:href="#m68d2d718bf" x="408.96" y="245.92" style="stroke: #000000; stroke-width: 0.8"/>
      </g>
     </g>
    </g>
    <g id="xtick_6">
     <g id="line2d_6">
      <g>
       <use xlink:href="#m68d2d718bf" x="489.6" y="245.92" style="stroke: #000000; stroke-width: 0.8"/>
      </g>
     </g>
    </g>
   </g>
   <g id="matplotlib.axis_2">
    <g id="ytick_1">
     <g id="line2d_7">
      <defs>
       <path id="m8a5d03cdf2" d="M 0 0 
L -3.5 0 
" style="stroke: #000000; stroke-width: 0.8"/>
      </defs>
      <g>
       <use xlink:href="#m8a5d03cdf2" x="82.4" y="241.92" style="stroke: #000000; stroke-width: 0.8"/>
      </g>
     </g>
     <g id="text_1">
      <!-- −2.0 -->
      <g transform="translate(51.117187 245.719219) scale(0.1 -0.1)">
       <defs>
        <path id="DejaVuSans-2212" d="M 678 2272 
L 4684 2272 
L 4684 1741 
L 678 1741 
L 678 2272 
z
" transform="scale(0.015625)"/>
        <path id="DejaVuSans-32" d="M 1228 531 
L 3431 531 
L 3431 0 
L 469 0 
L 469 531 
Q 828 903 1448 1529 
Q 2069 2156 2228 2338 
Q 2531 2678 2651 2914 
Q 2772 3150 2772 3378 
Q 2772 3750 2511 3984 
Q 2250 4219 1831 4219 
Q 1534 4219 1204 4116 
Q 875 4013 500 3803 
L 500 4441 
Q 881 4594 1212 4672 
Q 1544 4750 1819 4750 
Q 2544 4750 2975 4387 
Q 3406 4025 3406 3419 
Q 3406 3131 3298 2873 
Q 3191 2616 2906 2266 
Q 2828 2175 2409 1742 
Q 1991 1309 1228 531 
z
" transform="scale(0.015625)"/>
        <path id="DejaVuSans-2e" d="M 684 794 
L 1344 794 
L 1344 0 
L 684 0 
L 684 794 
z
" transform="scale(0.015625)"/>
        <path id="DejaVuSans-30" d="M 2034 4250 
Q 1547 4250 1301 3770 
Q 1056 3291 1056 2328 
Q 1056 1369 1301 889 
Q 1547 409 2034 409 
Q 2525 409 2770 889 
Q 3016 1369 3016 2328 
Q 3016 3291 2770 3770 
Q 2525 4250 2034 4250 
z
M 2034 4750 
Q 2819 4750 3233 4129 
Q 3647 3509 3647 2328 
Q 3647 1150 3233 529 
Q 2819 -91 2034 -91 
Q 1250 -91 836 529 
Q 422 1150 422 2328 
Q 422 3509 836 4129 
Q 1250 4750 2034 4750 
z
" transform="scale(0.015625)"/>
       </defs>
       <use xlink:href="#DejaVuSans-2212"/>
       <use xlink:href="#DejaVuSans-32" x="83.789062"/>
       <use xlink:href="#DejaVuSans-2e" x="147.412109"/>
       <use xlink:href="#DejaVuSans-30" x="179.199219"/>
      </g>
     </g>
    </g>
    <g id="ytick_2">
     <g id="line2d_8">
      <g>
       <use xlink:href="#m8a5d03cdf2" x="82.4" y="216.72" style="stroke: #000000; stroke-width: 0.8"/>
      </g>
     </g>
     <g id="text_2">
      <!-- −1.5 -->
      <g transform="translate(51.117187 220.519219) scale(0.1 -0.1)">
       <defs>
        <path id="DejaVuSans-31" d="M 794 531 
L 1825 531 
L 1825 4091 
L 703 3866 
L 703 4441 
L 1819 4666 
L 2450 4666 
L 2450 531 
L 3481 531 
L 3481 0 
L 794 0 
L 794 531 
z
" transform="scale(0.015625)"/>
        <path id="DejaVuSans-35" d="M 691 4666 
L 3169 4666 
L 3169 4134 
L 1269 4134 
L 1269 2991 
Q 1406 3038 1543 3061 
Q 1681 3084 1819 3084 
Q 2600 3084 3056 2656 
Q 3513 2228 3513 1497 
Q 3513 744 3044 326 
Q 2575 -91 1722 -91 
Q 1428 -91 1123 -41 
Q 819 9 494 109 
L 494 744 
Q 775 591 1075 516 
Q 1375 441 1709 441 
Q 2250 441 2565 725 
Q 2881 1009 2881 1497 
Q 2881 1984 2565 2268 
Q 2250 2553 1709 2553 
Q 1456 2553 1204 2497 
Q 953 2441 691 2322 
L 691 4666 
z
" transform="scale(0.015625)"/>
       </defs>
       <use xlink:href="#DejaVuSans-2212"/>
       <use xlink:href="#DejaVuSans-31" x="83.789062"/>
       <use xlink:href="#DejaVuSans-2e" x="147.412109"/>
       <use xlink:href="#DejaVuSans-35" x="179.199219"/>
      </g>
     </g>
    </g>
    <g id="ytick_3">
     <g id="line2d_9">
      <g>
       <use xlink:href="#m8a5d03cdf2" x="82.4" y="191.52" style="stroke: #000000; stroke-width: 0.8"/>
      </g>
     </g>
     <g id="text_3">
      <!-- −1.0 -->
      <g transform="translate(51.117187 195.319219) scale(0.1 -0.1)">
       <use xlink:href="#DejaVuSans-2212"/>
       <use xlink:href="#DejaVuSans-31" x="83.789062"/>
       <use xlink:href="#DejaVuSans-2e" x="147.412109"/>
       <use xlink:href="#DejaVuSans-30" x="179.199219"/>
      </g>
     </g>
    </g>
    <g id="ytick_4">
     <g id="line2d_10">
      <g>
       <use xlink:href="#m8a5d03cdf2" x="82.4" y="166.32" style="stroke: #000000; stroke-width: 0.8"/>
      </g>
     </g>
     <g id="text_4">
      <!-- −0.5 -->
      <g transform="translate(51.117187 170.119219) scale(0.1 -0.1)">
       <use xlink:href="#DejaVuSans-2212"/>
       <use xlink:href="#DejaVuSans-30" x="83.789062"/>
       <use xlink:href="#DejaVuSans-2e" x="147.412109"/>
       <use xlink:href="#DejaVuSans-35" x="179.199219"/>
      </g>
     </g>
    </g>
    <g id="ytick_5">
     <g id="line2d_11">
      <g>
       <use xlink:href="#m8a5d03cdf2" x="82.4" y="141.12" style="stroke: #000000; stroke-width: 0.8"/>
      </g>
     </g>
     <g id="text_5">
      <!-- 0.0 -->
      <g transform="translate(59.496875 144.919219) scale(0.1 -0.1)">
       <use xlink:href="#DejaVuSans-30"/>
       <use xlink:href="#DejaVuSans-2e" x="63.623047"/>
       <use xlink:href="#DejaVuSans-30" x="95.410156"/>
      </g>
     </g>
    </g>
    <g id="ytick_6">
     <g id="line2d_12">
      <g>
       <use xlink:href="#m8a5d03cdf2" x="82.4" y="115.92" style="stroke: #000000; stroke-width: 0.8"/>
      </g>
     </g>
     <g id="text_6">
      <!-- 0.5 -->
      <g transform="translate(59.496875 119.719219) scale(0.1 -0.1)">
       <use xlink:href="#DejaVuSans-30"/>
       <use xlink:href="#DejaVuSans-2e" x="63.623047"/>
       <use xlink:href="#DejaVuSans-35" x="95.410156"/>
      </g>
     </g>
    </g>
    <g id="ytick_7">
     <g id="line2d_13">
      <g>
       <use xlink:href="#m8a5d03cdf2" x="82.4" y="90.72" style="stroke: #000000; stroke-width: 0.8"/>
      </g>
     </g>
     <g id="text_7">
      <!-- 1.0 -->
      <g transform="translate(59.496875 94.519219) scale(0.1 -0.1)">
       <use xlink:href="#DejaVuSans-31"/>
       <use xlink:href="#DejaVuSans-2e" x="63.623047"/>
       <use xlink:href="#DejaVuSans-30" x="95.410156"/>
      </g>
     </g>
    </g>
    <g id="ytick_8">
     <g id="line2d_14">
      <g>
       <use xlink:href="#m8a5d03cdf2" x="82.4" y="65.52" style="stroke: #000000; stroke-width: 0.8"/>
      </g>
     </g>
     <g id="text_8">
      <!-- 1.5 -->
      <g transform="translate(59.496875 69.319219) scale(0.1 -0.1)">
       <use xlink:href="#DejaVuSans-31"/>
       <use xlink:href="#DejaVuSans-2e" x="63.623047"/>
       <use xlink:href="#DejaVuSans-35" x="95.410156"/>
      </g>
     </g>
    </g>
    <g id="ytick_9">
     <g id="line2d_15">
      <g>
       <use xlink:href="#m8a5d03cdf2" x="82.4" y="40.32" style="stroke: #000000; stroke-width: 0.8"/>
      </g>
     </g>
     <g id="text_9">
      <!-- 2.0 -->
      <g transform="translate(59.496875 44.119219) scale(0.1 -0.1)">
       <use xlink:href="#DejaVuSans-32"/>
       <use xlink:href="#DejaVuSans-2e" x="63.623047"/>
       <use xlink:href="#DejaVuSans-30" x="95.410156"/>
      </g>
     </g>
    </g>
    <g id="text_10">
     <!-- BOLD % change -->
     <g transform="translate(45.453437 173.31625) rotate(-90) scale(0.08 -0.08)">
      <defs>
       <path id="DejaVuSans-42" d="M 1259 2228 
L 1259 519 
L 2272 519 
Q 2781 519 3026 730 
Q 3272 941 3272 1375 
Q 3272 1813 3026 2020 
Q 2781 2228 2272 2228 
L 1259 2228 
z
M 1259 4147 
L 1259 2741 
L 2194 2741 
Q 2656 2741 2882 2914 
Q 3109 3088 3109 3444 
Q 3109 3797 2882 3972 
Q 2656 4147 2194 4147 
L 1259 4147 
z
M 628 4666 
L 2241 4666 
Q 2963 4666 3353 4366 
Q 3744 4066 3744 3513 
Q 3744 3084 3544 2831 
Q 3344 2578 2956 2516 
Q 3422 2416 3680 2098 
Q 3938 1781 3938 1306 
Q 3938 681 3513 340 
Q 3088 0 2303 0 
L 628 0 
L 628 4666 
z
" transform="scale(0.015625)"/>
       <path id="DejaVuSans-4f" d="M 2522 4238 
Q 1834 4238 1429 3725 
Q 1025 3213 1025 2328 
Q 1025 1447 1429 934 
Q 1834 422 2522 422 
Q 3209 422 3611 934 
Q 4013 1447 4013 2328 
Q 4013 3213 3611 3725 
Q 3209 4238 2522 4238 
z
M 2522 4750 
Q 3503 4750 4090 4092 
Q 4678 3434 4678 2328 
Q 4678 1225 4090 567 
Q 3503 -91 2522 -91 
Q 1538 -91 948 565 
Q 359 1222 359 2328 
Q 359 3434 948 4092 
Q 1538 4750 2522 4750 
z
" transform="scale(0.015625)"/>
       <path id="DejaVuSans-4c" d="M 628 4666 
L 1259 4666 
L 1259 531 
L 3531 531 
L 3531 0 
L 628 0 
L 628 4666 
z
" transform="scale(0.015625)"/>
       <path id="DejaVuSans-44" d="M 1259 4147 
L 1259 519 
L 2022 519 
Q 2988 519 3436 956 
Q 3884 1394 3884 2338 
Q 3884 3275 3436 3711 
Q 2988 4147 2022 4147 
L 1259 4147 
z
M 628 4666 
L 1925 4666 
Q 3281 4666 3915 4102 
Q 4550 3538 4550 2338 
Q 4550 1131 3912 565 
Q 3275 0 1925 0 
L 628 0 
L 628 4666 
z
" transform="scale(0.015625)"/>
       <path id="DejaVuSans-20" transform="scale(0.015625)"/>
       <path id="DejaVuSans-25" d="M 4653 2053 
Q 4381 2053 4226 1822 
Q 4072 1591 4072 1178 
Q 4072 772 4226 539 
Q 4381 306 4653 306 
Q 4919 306 5073 539 
Q 5228 772 5228 1178 
Q 5228 1588 5073 1820 
Q 4919 2053 4653 2053 
z
M 4653 2450 
Q 5147 2450 5437 2106 
Q 5728 1763 5728 1178 
Q 5728 594 5436 251 
Q 5144 -91 4653 -91 
Q 4153 -91 3862 251 
Q 3572 594 3572 1178 
Q 3572 1766 3864 2108 
Q 4156 2450 4653 2450 
z
M 1428 4353 
Q 1159 4353 1004 4120 
Q 850 3888 850 3481 
Q 850 3069 1003 2837 
Q 1156 2606 1428 2606 
Q 1700 2606 1854 2837 
Q 2009 3069 2009 3481 
Q 2009 3884 1853 4118 
Q 1697 4353 1428 4353 
z
M 4250 4750 
L 4750 4750 
L 1831 -91 
L 1331 -91 
L 4250 4750 
z
M 1428 4750 
Q 1922 4750 2215 4408 
Q 2509 4066 2509 3481 
Q 2509 2891 2217 2550 
Q 1925 2209 1428 2209 
Q 931 2209 642 2551 
Q 353 2894 353 3481 
Q 353 4063 643 4406 
Q 934 4750 1428 4750 
z
" transform="scale(0.015625)"/>
       <path id="DejaVuSans-63" d="M 3122 3366 
L 3122 2828 
Q 2878 2963 2633 3030 
Q 2388 3097 2138 3097 
Q 1578 3097 1268 2742 
Q 959 2388 959 1747 
Q 959 1106 1268 751 
Q 1578 397 2138 397 
Q 2388 397 2633 464 
Q 2878 531 3122 666 
L 3122 134 
Q 2881 22 2623 -34 
Q 2366 -91 2075 -91 
Q 1284 -91 818 406 
Q 353 903 353 1747 
Q 353 2603 823 3093 
Q 1294 3584 2113 3584 
Q 2378 3584 2631 3529 
Q 2884 3475 3122 3366 
z
" transform="scale(0.015625)"/>
       <path id="DejaVuSans-68" d="M 3513 2113 
L 3513 0 
L 2938 0 
L 2938 2094 
Q 2938 2591 2744 2837 
Q 2550 3084 2163 3084 
Q 1697 3084 1428 2787 
Q 1159 2491 1159 1978 
L 1159 0 
L 581 0 
L 581 4863 
L 1159 4863 
L 1159 2956 
Q 1366 3272 1645 3428 
Q 1925 3584 2291 3584 
Q 2894 3584 3203 3211 
Q 3513 2838 3513 2113 
z
" transform="scale(0.015625)"/>
       <path id="DejaVuSans-61" d="M 2194 1759 
Q 1497 1759 1228 1600 
Q 959 1441 959 1056 
Q 959 750 1161 570 
Q 1363 391 1709 391 
Q 2188 391 2477 730 
Q 2766 1069 2766 1631 
L 2766 1759 
L 2194 1759 
z
M 3341 1997 
L 3341 0 
L 2766 0 
L 2766 531 
Q 2569 213 2275 61 
Q 1981 -91 1556 -91 
Q 1019 -91 701 211 
Q 384 513 384 1019 
Q 384 1609 779 1909 
Q 1175 2209 1959 2209 
L 2766 2209 
L 2766 2266 
Q 2766 2663 2505 2880 
Q 2244 3097 1772 3097 
Q 1472 3097 1187 3025 
Q 903 2953 641 2809 
L 641 3341 
Q 956 3463 1253 3523 
Q 1550 3584 1831 3584 
Q 2591 3584 2966 3190 
Q 3341 2797 3341 1997 
z
" transform="scale(0.015625)"/>
       <path id="DejaVuSans-6e" d="M 3513 2113 
L 3513 0 
L 2938 0 
L 2938 2094 
Q 2938 2591 2744 2837 
Q 2550 3084 2163 3084 
Q 1697 3084 1428 2787 
Q 1159 2491 1159 1978 
L 1159 0 
L 581 0 
L 581 3500 
L 1159 3500 
L 1159 2956 
Q 1366 3272 1645 3428 
Q 1925 3584 2291 3584 
Q 2894 3584 3203 3211 
Q 3513 2838 3513 2113 
z
" transform="scale(0.015625)"/>
       <path id="DejaVuSans-67" d="M 2906 1791 
Q 2906 2416 2648 2759 
Q 2391 3103 1925 3103 
Q 1463 3103 1205 2759 
Q 947 2416 947 1791 
Q 947 1169 1205 825 
Q 1463 481 1925 481 
Q 2391 481 2648 825 
Q 2906 1169 2906 1791 
z
M 3481 434 
Q 3481 -459 3084 -895 
Q 2688 -1331 1869 -1331 
Q 1566 -1331 1297 -1286 
Q 1028 -1241 775 -1147 
L 775 -588 
Q 1028 -725 1275 -790 
Q 1522 -856 1778 -856 
Q 2344 -856 2625 -561 
Q 2906 -266 2906 331 
L 2906 616 
Q 2728 306 2450 153 
Q 2172 0 1784 0 
Q 1141 0 747 490 
Q 353 981 353 1791 
Q 353 2603 747 3093 
Q 1141 3584 1784 3584 
Q 2172 3584 2450 3431 
Q 2728 3278 2906 2969 
L 2906 3500 
L 3481 3500 
L 3481 434 
z
" transform="scale(0.015625)"/>
       <path id="DejaVuSans-65" d="M 3597 1894 
L 3597 1613 
L 953 1613 
Q 991 1019 1311 708 
Q 1631 397 2203 397 
Q 2534 397 2845 478 
Q 3156 559 3463 722 
L 3463 178 
Q 3153 47 2828 -22 
Q 2503 -91 2169 -91 
Q 1331 -91 842 396 
Q 353 884 353 1716 
Q 353 2575 817 3079 
Q 1281 3584 2069 3584 
Q 2775 3584 3186 3129 
Q 3597 2675 3597 1894 
z
M 3022 2063 
Q 3016 2534 2758 2815 
Q 2500 3097 2075 3097 
Q 1594 3097 1305 2825 
Q 1016 2553 972 2059 
L 3022 2063 
z
" transform="scale(0.015625)"/>
      </defs>
      <use xlink:href="#DejaVuSans-42"/>
      <use xlink:href="#DejaVuSans-4f" x="66.853516"/>
      <use xlink:href="#DejaVuSans-4c" x="145.564453"/>
      <use xlink:href="#DejaVuSans-44" x="201.277344"/>
      <use xlink:href="#DejaVuSans-20" x="278.279297"/>
      <use xlink:href="#DejaVuSans-25" x="310.066406"/>
      <use xlink:href="#DejaVuSans-20" x="405.085938"/>
      <use xlink:href="#DejaVuSans-63" x="436.873047"/>
      <use xlink:href="#DejaVuSans-68" x="491.853516"/>
      <use xlink:href="#DejaVuSans-61" x="555.232422"/>
      <use xlink:href="#DejaVuSans-6e" x="616.511719"/>
      <use xlink:href="#DejaVuSans-67" x="679.890625"/>
      <use xlink:href="#DejaVuSans-65" x="743.367188"/>
     </g>
    </g>
   </g>
   <g id="line2d_16">
    <path d="M 86.4 73.391721 
L 94.628571 75.154611 
L 102.857143 76.62349 
L 111.085714 73.80626 
L 119.314286 77.351635 
L 127.542857 79.06386 
L 135.771429 80.408301 
L 144 87.577156 
L 152.228571 94.165341 
L 160.457143 100.882413 
L 168.685714 102.545332 
L 176.914286 106.310207 
L 185.142857 107.466463 
L 193.371429 107.73636 
L 201.6 109.974193 
L 209.828571 112.505203 
L 218.057143 114.629203 
L 226.285714 117.669314 
L 234.514286 118.666375 
L 242.742857 120.98336 
L 250.971429 120.758702 
L 259.2 120.553972 
L 267.428571 122.722785 
L 275.657143 126.373712 
L 283.885714 132.322629 
L 292.114286 137.993079 
L 300.342857 145.929653 
L 308.571429 153.300736 
L 316.8 152.356825 
L 325.028571 151.537787 
L 333.257143 150.50803 
L 341.485714 152.853567 
L 349.714286 155.66091 
L 357.942857 153.944869 
L 366.171429 147.650646 
L 374.4 140.703816 
L 382.628571 133.454891 
L 390.857143 131.54657 
L 399.085714 133.167688 
L 407.314286 132.67264 
L 415.542857 130.836456 
L 423.771429 126.642833 
L 432 123.244197 
L 440.228571 121.538748 
L 448.457143 122.784429 
L 456.685714 128.298211 
L 464.914286 131.456711 
L 473.142857 136.825196 
L 481.371429 141.521378 
L 489.6 144.001241 
" clip-path="url(#p2d678dd39d)" style="fill: none; stroke: #1a8000; stroke-width: 1.5; stroke-linecap: square"/>
   </g>
   <g id="line2d_17">
    <path d="M 144.967965 -1 
L 152.228571 24.576158 
L 160.457143 44.920123 
L 168.685714 59.796345 
L 176.914286 63.819216 
L 185.142857 63.38538 
L 193.371429 69.431069 
L 201.6 85.902481 
L 209.828571 100.522602 
L 218.057143 102.842788 
L 226.285714 95.443735 
L 234.514286 80.676653 
L 242.742857 72.459387 
L 250.971429 71.71948 
L 259.2 78.579907 
L 267.428571 86.103226 
L 275.657143 85.331401 
L 283.885714 88.436647 
L 292.114286 90.929184 
L 300.342857 95.498658 
L 308.571429 90.298226 
L 316.8 88.354019 
L 325.028571 90.966275 
L 333.257143 91.458118 
L 341.485714 97.772242 
L 349.714286 104.021368 
L 357.942857 101.811775 
L 366.171429 98.26114 
L 374.4 89.051859 
L 382.628571 95.515903 
L 390.857143 106.885927 
L 399.085714 113.005891 
L 407.314286 105.489993 
L 415.542857 78.506686 
L 423.771429 38.660644 
L 432 13.496728 
L 440.228571 6.678295 
L 448.457143 5.784779 
L 456.685714 4.442333 
L 464.914286 15.92753 
L 473.142857 23.646996 
L 481.371429 22.691145 
L 489.6 7.825896 
" clip-path="url(#p2d678dd39d)" style="fill: none; stroke: #1a8000; stroke-opacity: 0.2; stroke-width: 1.5; stroke-linecap: square"/>
   </g>
   <g id="line2d_18">
    <path d="M 86.4 84.159792 
L 94.628571 84.159792 
L 102.857143 78.895092 
L 111.085714 77.496621 
L 119.314286 97.314953 
L 127.542857 114.881327 
L 135.771429 128.786044 
L 144 136.6549 
L 152.228571 146.810376 
L 160.457143 162.06699 
L 168.685714 173.050711 
L 176.914286 174.192231 
L 185.142857 172.772109 
L 193.371429 173.139853 
L 201.6 168.186069 
L 209.828571 162.375294 
L 218.057143 158.09943 
L 226.285714 155.034527 
L 234.514286 145.142605 
L 242.742857 145.638485 
L 250.971429 147.543593 
L 259.2 155.469434 
L 267.428571 159.78475 
L 275.657143 163.036878 
L 283.885714 170.550472 
L 292.114286 176.721953 
L 300.342857 180.282121 
L 308.571429 181.424856 
L 316.8 176.375842 
L 325.028571 171.132236 
L 333.257143 167.607549 
L 341.485714 162.288543 
L 349.714286 153.382374 
L 357.942857 146.281885 
L 366.171429 141.142461 
L 374.4 133.68479 
L 382.628571 125.912308 
L 390.857143 125.597081 
L 399.085714 126.340469 
L 407.314286 128.009373 
L 415.542857 122.696278 
L 423.771429 114.066018 
L 432 105.239263 
L 440.228571 105.405069 
L 448.457143 108.628239 
L 456.685714 114.61922 
L 464.914286 126.730797 
L 473.142857 131.179856 
L 481.371429 135.125399 
L 489.6 138.329612 
" clip-path="url(#p2d678dd39d)" style="fill: none; stroke: #1a8000; stroke-opacity: 0.2; stroke-width: 1.5; stroke-linecap: square"/>
   </g>
   <g id="line2d_19">
    <path d="M 86.4 132.271358 
L 94.628571 131.047937 
L 102.857143 136.050726 
L 111.085714 147.989773 
L 119.314286 157.236104 
L 127.542857 170.158346 
L 135.771429 175.745562 
L 144 174.363548 
L 152.228571 183.64821 
L 160.457143 192.269771 
L 168.685714 197.06063 
L 176.914286 204.025954 
L 185.142857 207.546864 
L 193.371429 203.42751 
L 201.6 193.018715 
L 209.828571 182.344968 
L 218.057143 173.513803 
L 226.285714 171.028899 
L 234.514286 163.373674 
L 242.742857 153.55429 
L 250.971429 148.987012 
L 259.2 143.822241 
L 267.428571 146.554001 
L 275.657143 156.31711 
L 283.885714 163.549446 
L 292.114286 169.125941 
L 300.342857 170.191562 
L 308.571429 174.913179 
L 316.8 182.737151 
L 325.028571 192.996993 
L 333.257143 194.516211 
L 341.485714 183.457758 
L 349.714286 175.252147 
L 357.942857 163.445193 
L 366.171429 147.825717 
L 374.4 139.021574 
L 382.628571 121.217038 
L 390.857143 110.068785 
L 399.085714 100.579712 
L 407.314286 89.586888 
L 415.542857 72.492166 
L 423.771429 55.545379 
L 432 38.287477 
L 440.228571 28.12556 
L 448.457143 31.565007 
L 456.685714 58.042681 
L 464.914286 84.006078 
L 473.142857 116.381385 
L 481.371429 152.651464 
L 489.6 172.215608 
" clip-path="url(#p2d678dd39d)" style="fill: none; stroke: #1a8000; stroke-opacity: 0.2; stroke-width: 1.5; stroke-linecap: square"/>
   </g>
   <g id="line2d_20">
    <path d="M 146.254232 -1 
L 152.228571 1.570045 
L 160.457143 13.698515 
L 168.685714 22.21924 
L 176.914286 32.290128 
L 185.142857 41.929092 
L 193.371429 44.074274 
L 201.6 44.592577 
L 209.828571 47.118969 
L 218.057143 49.21895 
L 226.285714 58.791403 
L 234.514286 63.494884 
L 242.742857 72.859994 
L 250.971429 84.086529 
L 259.2 93.554606 
L 267.428571 105.734225 
L 275.657143 116.074353 
L 283.885714 127.715779 
L 292.114286 141.470941 
L 300.342857 153.88467 
L 308.571429 166.137393 
L 316.8 169.651688 
L 325.028571 170.599628 
L 333.257143 171.576353 
L 341.485714 173.696743 
L 349.714286 175.161975 
L 357.942857 170.824937 
L 366.171429 166.421136 
L 374.4 162.716996 
L 382.628571 159.553961 
L 390.857143 162.277293 
L 399.085714 173.372411 
L 407.314286 185.172522 
L 415.542857 193.612981 
L 423.771429 198.645799 
L 432 193.631745 
L 440.228571 187.893375 
L 448.457143 186.99281 
L 456.685714 182.138948 
L 464.914286 172.861544 
L 473.142857 168.047787 
L 481.371429 162.91733 
L 489.6 158.231599 
" clip-path="url(#p2d678dd39d)" style="fill: none; stroke: #1a8000; stroke-opacity: 0.2; stroke-width: 1.5; stroke-linecap: square"/>
   </g>
   <g id="line2d_21">
    <path d="M 86.4 191.06383 
L 94.628571 188.509674 
L 102.857143 153.279031 
L 111.085714 124.638671 
L 119.314286 99.230052 
L 127.542857 71.676886 
L 135.771429 57.926384 
L 144 61.054456 
L 152.228571 67.519801 
L 160.457143 78.514951 
L 168.685714 83.983535 
L 176.914286 79.147246 
L 185.142857 64.44067 
L 193.371429 60.659651 
L 201.6 69.434704 
L 209.828571 92.220188 
L 218.057143 108.354792 
L 226.285714 117.101696 
L 234.514286 107.358903 
L 242.742857 95.847208 
L 250.971429 85.588822 
L 259.2 83.141213 
L 267.428571 82.742838 
L 275.657143 81.648917 
L 283.885714 75.3338 
L 292.114286 72.106292 
L 300.342857 87.994591 
L 308.571429 106.974184 
L 316.8 117.014024 
L 325.028571 138.738613 
L 333.257143 153.81808 
L 341.485714 169.697116 
L 349.714286 173.841302 
L 357.942857 177.95406 
L 366.171429 175.921103 
L 374.4 180.583404 
L 382.628571 177.750414 
L 390.857143 173.755031 
L 399.085714 179.61492 
L 407.314286 187.007804 
L 415.542857 190.141609 
L 423.771429 185.915985 
L 432 180.482563 
L 440.228571 165.654471 
L 448.457143 151.577908 
L 456.685714 146.481356 
L 464.914286 131.968374 
L 473.142857 115.802772 
L 481.371429 100.838737 
L 489.6 103.187346 
" clip-path="url(#p2d678dd39d)" style="fill: none; stroke: #1a8000; stroke-opacity: 0.2; stroke-width: 1.5; stroke-linecap: square"/>
   </g>
   <g id="line2d_22">
    <path d="M 105.764279 -1 
L 111.085714 23.738031 
L 119.314286 93.258678 
L 127.542857 144.023648 
L 135.771429 201.467126 
L 144 255.162808 
L 152.228571 270.788073 
L 160.457143 259.878573 
L 168.685714 213.389321 
L 176.914286 178.889127 
L 185.142857 178.775092 
L 193.371429 176.033677 
L 201.6 163.833593 
L 209.828571 142.760096 
L 218.057143 141.177332 
L 226.285714 138.215866 
L 234.514286 155.029386 
L 242.742857 172.545023 
L 250.971429 164.793791 
L 259.2 162.479897 
L 267.428571 168.678371 
L 275.657143 173.55742 
L 283.885714 180.667204 
L 292.114286 177.814238 
L 300.342857 188.044603 
L 308.571429 204.060904 
L 316.8 190.797057 
L 325.028571 178.880145 
L 333.257143 180.441045 
L 341.485714 182.782024 
L 349.714286 189.492657 
L 357.942857 180.461328 
L 366.171429 167.523231 
L 374.4 152.290588 
L 382.628571 155.863878 
L 390.857143 170.268561 
L 399.085714 181.107771 
L 407.314286 173.819371 
L 415.542857 172.705416 
L 423.771429 168.118317 
L 432 163.626753 
L 440.228571 161.399547 
L 448.457143 166.566182 
L 456.685714 181.881989 
L 464.914286 189.099351 
L 473.142857 204.732312 
L 481.371429 210.507884 
L 489.6 200.477758 
" clip-path="url(#p2d678dd39d)" style="fill: none; stroke: #1a8000; stroke-opacity: 0.2; stroke-width: 1.5; stroke-linecap: square"/>
   </g>
   <g id="line2d_23">
    <path d="M 247.077589 -1 
L 250.971429 -0.073427 
L 259.2 6.856574 
L 267.428571 15.685539 
L 275.657143 23.153662 
L 283.885714 30.064466 
L 292.114286 35.612884 
L 300.342857 42.580349 
L 308.571429 49.615795 
L 316.8 53.814544 
L 325.028571 56.750114 
L 333.257143 60.383525 
L 341.485714 57.468967 
L 349.714286 56.157699 
L 357.942857 50.171776 
L 366.171429 47.658682 
L 374.4 50.294386 
L 382.628571 49.83622 
L 390.857143 52.740476 
L 399.085714 56.459508 
L 407.314286 62.000748 
L 415.542857 71.705257 
L 423.771429 82.315065 
L 432 93.305474 
L 440.228571 103.294316 
L 448.457143 115.38005 
L 456.685714 131.792401 
L 464.914286 136.172204 
L 473.142857 138.452531 
L 481.371429 142.974435 
L 489.6 147.615217 
" clip-path="url(#p2d678dd39d)" style="fill: none; stroke: #1a8000; stroke-opacity: 0.2; stroke-width: 1.5; stroke-linecap: square"/>
   </g>
   <g id="line2d_24">
    <path d="M 86.4 262.676751 
L 94.628571 262.819521 
L 102.857143 264.139528 
L 111.085714 250.598855 
L 119.314286 246.844225 
L 127.542857 245.916554 
L 135.771429 229.125381 
L 144 219.841549 
L 152.228571 212.634426 
L 160.457143 203.472799 
L 168.685714 185.808122 
L 176.914286 176.167278 
L 185.142857 165.418118 
L 193.371429 159.430611 
L 201.6 156.830554 
L 209.828571 159.161122 
L 218.057143 156.427554 
L 226.285714 152.358913 
L 234.514286 143.871606 
L 242.742857 134.482228 
L 250.971429 125.69008 
L 259.2 120.054267 
L 267.428571 115.659812 
L 275.657143 111.442809 
L 283.885714 111.351288 
L 292.114286 117.612767 
L 300.342857 126.650273 
L 308.571429 135.834865 
L 316.8 138.298771 
L 325.028571 137.438892 
L 333.257143 132.583866 
L 341.485714 131.852069 
L 349.714286 132.273481 
L 357.942857 131.509579 
L 366.171429 126.561049 
L 374.4 119.19226 
L 382.628571 115.17101 
L 390.857143 116.568873 
L 399.085714 122.721272 
L 407.314286 128.579068 
L 415.542857 135.945422 
L 423.771429 141.396121 
L 432 141.958843 
L 440.228571 140.466157 
L 448.457143 138.962844 
L 456.685714 139.121322 
L 464.914286 138.459468 
L 473.142857 137.349142 
L 481.371429 136.572241 
L 489.6 136.621347 
" clip-path="url(#p2d678dd39d)" style="fill: none; stroke: #1a8000; stroke-opacity: 0.2; stroke-width: 1.5; stroke-linecap: square"/>
   </g>
   <g id="line2d_25">
    <path d="M 86.4 109.183297 
L 94.628571 100.116831 
L 102.857143 97.520369 
L 111.085714 88.372104 
L 119.314286 84.890733 
L 127.542857 92.344681 
L 135.771429 95.218449 
L 144 86.353091 
L 152.228571 76.273363 
L 160.457143 60.467947 
L 168.685714 51.017328 
L 176.914286 47.931589 
L 185.142857 33.745976 
L 193.371429 24.934951 
L 201.6 21.550119 
L 209.828571 28.297154 
L 218.057143 42.364693 
L 226.285714 56.294303 
L 234.514286 68.049977 
L 242.742857 75.871806 
L 250.971429 85.444757 
L 259.2 92.862813 
L 267.428571 103.854813 
L 275.657143 115.409282 
L 283.885714 123.59998 
L 292.114286 135.418036 
L 300.342857 144.519252 
L 308.571429 150.893256 
L 316.8 155.616919 
L 325.028571 158.138485 
L 333.257143 153.137218 
L 341.485714 146.698125 
L 349.714286 144.643992 
L 357.942857 144.010971 
L 366.171429 145.507462 
L 374.4 144.153438 
L 382.628571 133.541891 
L 390.857143 123.426238 
L 399.085714 116.652945 
L 407.314286 112.045727 
L 415.542857 113.50266 
L 423.771429 114.877024 
L 432 123.754014 
L 440.228571 133.489726 
L 448.457143 143.525491 
L 456.685714 144.253363 
L 464.914286 139.139418 
L 473.142857 142.896737 
L 481.371429 140.385281 
L 489.6 145.089999 
" clip-path="url(#p2d678dd39d)" style="fill: none; stroke: #1a8000; stroke-opacity: 0.2; stroke-width: 1.5; stroke-linecap: square"/>
   </g>
   <g id="line2d_26">
    <path d="M 86.4 238.095535 
L 94.628571 224.406648 
L 102.857143 213.367134 
L 111.085714 204.713059 
L 119.314286 191.047692 
L 127.542857 152.472916 
L 135.771429 110.505258 
L 144 98.445459 
L 152.228571 88.877552 
L 160.457143 110.743638 
L 168.685714 139.714598 
L 176.914286 201.903708 
L 185.142857 234.51586 
L 193.371429 253.606384 
L 201.6 272.091408 
L 209.828571 269.869689 
L 218.057143 261.915705 
L 226.285714 269.988073 
L 234.514286 285.399482 
L 242.742857 304.090517 
L 250.971429 300.44493 
L 259.2 266.252261 
L 267.428571 242.124439 
L 275.657143 246.692313 
L 283.885714 270.171113 
L 292.114286 287.009926 
L 300.342857 303.439178 
L 308.571429 317.123489 
L 316.8 295.628661 
L 325.028571 264.324521 
L 333.257143 242.972305 
L 341.485714 265.35015 
L 349.714286 287.895869 
L 357.942857 295.07769 
L 366.171429 268.147855 
L 374.4 236.631649 
L 382.628571 194.925027 
L 390.857143 169.298794 
L 399.085714 156.121923 
L 407.314286 148.908748 
L 415.542857 153.377541 
L 423.771429 162.890989 
L 432 171.889034 
L 440.228571 170.485112 
L 448.457143 157.155245 
L 456.685714 156.27054 
L 464.914286 153.932001 
L 473.142857 160.403654 
L 481.371429 185.352256 
L 489.6 201.784156 
" clip-path="url(#p2d678dd39d)" style="fill: none; stroke: #1a8000; stroke-opacity: 0.2; stroke-width: 1.5; stroke-linecap: square"/>
   </g>
   <g id="line2d_27">
    <path d="M 102.339136 -1 
L 102.857143 -0.283778 
L 111.085714 6.195649 
L 117.327734 -1 
M 134.411641 -1 
L 135.771429 -0.321799 
L 144 14.380279 
L 152.228571 31.370302 
L 160.457143 44.522218 
L 168.685714 59.844291 
L 176.914286 64.458263 
L 185.142857 65.867662 
L 193.371429 63.839176 
L 201.6 75.748472 
L 209.828571 88.89336 
L 218.057143 94.122537 
L 226.285714 94.875484 
L 234.514286 98.063495 
L 242.742857 105.499504 
L 250.971429 114.12016 
L 259.2 123.020476 
L 267.428571 123.028616 
L 275.657143 117.446683 
L 283.885714 114.108719 
L 292.114286 114.101703 
L 300.342857 112.140931 
L 308.571429 109.031947 
L 316.8 107.636402 
L 325.028571 106.949754 
L 333.257143 107.094055 
L 341.485714 110.325497 
L 349.714286 120.147143 
L 357.942857 131.844366 
L 366.171429 139.187272 
L 374.4 140.121033 
L 382.628571 138.716153 
L 390.857143 136.125209 
L 399.085714 138.867747 
L 407.314286 138.778794 
L 415.542857 134.515003 
L 423.771429 130.639825 
L 432 130.014277 
L 440.228571 134.034598 
L 448.457143 144.490158 
L 456.685714 152.236173 
L 464.914286 157.727059 
L 473.142857 166.183981 
L 481.371429 166.718988 
L 489.6 172.635109 
" clip-path="url(#p2d678dd39d)" style="fill: none; stroke: #1a8000; stroke-opacity: 0.2; stroke-width: 1.5; stroke-linecap: square"/>
   </g>
   <g id="line2d_28">
    <path d="M 167.04 241.92 
L 167.04 40.32 
" clip-path="url(#p2d678dd39d)" style="fill: none; stroke-dasharray: 5.55,2.4; stroke-dashoffset: 0; stroke: #000000; stroke-width: 1.5"/>
   </g>
   <g id="line2d_29">
    <path d="M 86.4 141.12 
L 489.6 141.12 
" clip-path="url(#p2d678dd39d)" style="fill: none; stroke-dasharray: 5.55,2.4; stroke-dashoffset: 0; stroke: #000000; stroke-width: 1.5"/>
   </g>
   <g id="patch_3">
    <path d="M 82.4 241.92 
L 82.4 40.32 
" style="fill: none; stroke: #000000; stroke-width: 0.8; stroke-linejoin: miter; stroke-linecap: square"/>
   </g>
   <g id="patch_4">
    <path d="M 86.4 245.92 
L 489.6 245.92 
" style="fill: none; stroke: #000000; stroke-width: 0.8; stroke-linejoin: miter; stroke-linecap: square"/>
   </g>
   <g id="text_11">
    <!-- all depths -->
    <g transform="translate(268.328125 34.32) scale(0.08 -0.08)">
     <defs>
      <path id="DejaVuSans-6c" d="M 603 4863 
L 1178 4863 
L 1178 0 
L 603 0 
L 603 4863 
z
" transform="scale(0.015625)"/>
      <path id="DejaVuSans-64" d="M 2906 2969 
L 2906 4863 
L 3481 4863 
L 3481 0 
L 2906 0 
L 2906 525 
Q 2725 213 2448 61 
Q 2172 -91 1784 -91 
Q 1150 -91 751 415 
Q 353 922 353 1747 
Q 353 2572 751 3078 
Q 1150 3584 1784 3584 
Q 2172 3584 2448 3432 
Q 2725 3281 2906 2969 
z
M 947 1747 
Q 947 1113 1208 752 
Q 1469 391 1925 391 
Q 2381 391 2643 752 
Q 2906 1113 2906 1747 
Q 2906 2381 2643 2742 
Q 2381 3103 1925 3103 
Q 1469 3103 1208 2742 
Q 947 2381 947 1747 
z
" transform="scale(0.015625)"/>
      <path id="DejaVuSans-70" d="M 1159 525 
L 1159 -1331 
L 581 -1331 
L 581 3500 
L 1159 3500 
L 1159 2969 
Q 1341 3281 1617 3432 
Q 1894 3584 2278 3584 
Q 2916 3584 3314 3078 
Q 3713 2572 3713 1747 
Q 3713 922 3314 415 
Q 2916 -91 2278 -91 
Q 1894 -91 1617 61 
Q 1341 213 1159 525 
z
M 3116 1747 
Q 3116 2381 2855 2742 
Q 2594 3103 2138 3103 
Q 1681 3103 1420 2742 
Q 1159 2381 1159 1747 
Q 1159 1113 1420 752 
Q 1681 391 2138 391 
Q 2594 391 2855 752 
Q 3116 1113 3116 1747 
z
" transform="scale(0.015625)"/>
      <path id="DejaVuSans-74" d="M 1172 4494 
L 1172 3500 
L 2356 3500 
L 2356 3053 
L 1172 3053 
L 1172 1153 
Q 1172 725 1289 603 
Q 1406 481 1766 481 
L 2356 481 
L 2356 0 
L 1766 0 
Q 1100 0 847 248 
Q 594 497 594 1153 
L 594 3053 
L 172 3053 
L 172 3500 
L 594 3500 
L 594 4494 
L 1172 4494 
z
" transform="scale(0.015625)"/>
      <path id="DejaVuSans-73" d="M 2834 3397 
L 2834 2853 
Q 2591 2978 2328 3040 
Q 2066 3103 1784 3103 
Q 1356 3103 1142 2972 
Q 928 2841 928 2578 
Q 928 2378 1081 2264 
Q 1234 2150 1697 2047 
L 1894 2003 
Q 2506 1872 2764 1633 
Q 3022 1394 3022 966 
Q 3022 478 2636 193 
Q 2250 -91 1575 -91 
Q 1294 -91 989 -36 
Q 684 19 347 128 
L 347 722 
Q 666 556 975 473 
Q 1284 391 1588 391 
Q 1994 391 2212 530 
Q 2431 669 2431 922 
Q 2431 1156 2273 1281 
Q 2116 1406 1581 1522 
L 1381 1569 
Q 847 1681 609 1914 
Q 372 2147 372 2553 
Q 372 3047 722 3315 
Q 1072 3584 1716 3584 
Q 2034 3584 2315 3537 
Q 2597 3491 2834 3397 
z
" transform="scale(0.015625)"/>
     </defs>
     <use xlink:href="#DejaVuSans-61"/>
     <use xlink:href="#DejaVuSans-6c" x="61.279297"/>
     <use xlink:href="#DejaVuSans-6c" x="89.0625"/>
     <use xlink:href="#DejaVuSans-20" x="116.845703"/>
     <use xlink:href="#DejaVuSans-64" x="148.632812"/>
     <use xlink:href="#DejaVuSans-65" x="212.109375"/>
     <use xlink:href="#DejaVuSans-70" x="273.632812"/>
     <use xlink:href="#DejaVuSans-74" x="337.109375"/>
     <use xlink:href="#DejaVuSans-68" x="376.318359"/>
     <use xlink:href="#DejaVuSans-73" x="439.697266"/>
    </g>
   </g>
   <g id="legend_1">
    <g id="patch_5">
     <path d="M 220.09375 236.92 
L 355.90625 236.92 
Q 357.90625 236.92 357.90625 234.92 
L 357.90625 220.96375 
Q 357.90625 218.96375 355.90625 218.96375 
L 220.09375 218.96375 
Q 218.09375 218.96375 218.09375 220.96375 
L 218.09375 234.92 
Q 218.09375 236.92 220.09375 236.92 
z
" style="fill: #ffffff; opacity: 0.8; stroke: #cccccc; stroke-linejoin: miter"/>
    </g>
    <g id="line2d_30">
     <path d="M 222.09375 227.062187 
L 232.09375 227.062187 
L 242.09375 227.062187 
" style="fill: none; stroke: #1a8000; stroke-width: 1.5; stroke-linecap: square"/>
    </g>
    <g id="text_12">
     <!-- odss_gPPI_deep_V23 -->
     <g transform="translate(250.09375 230.562187) scale(0.1 -0.1)">
      <defs>
       <path id="DejaVuSans-6f" d="M 1959 3097 
Q 1497 3097 1228 2736 
Q 959 2375 959 1747 
Q 959 1119 1226 758 
Q 1494 397 1959 397 
Q 2419 397 2687 759 
Q 2956 1122 2956 1747 
Q 2956 2369 2687 2733 
Q 2419 3097 1959 3097 
z
M 1959 3584 
Q 2709 3584 3137 3096 
Q 3566 2609 3566 1747 
Q 3566 888 3137 398 
Q 2709 -91 1959 -91 
Q 1206 -91 779 398 
Q 353 888 353 1747 
Q 353 2609 779 3096 
Q 1206 3584 1959 3584 
z
" transform="scale(0.015625)"/>
       <path id="DejaVuSans-5f" d="M 3263 -1063 
L 3263 -1509 
L -63 -1509 
L -63 -1063 
L 3263 -1063 
z
" transform="scale(0.015625)"/>
       <path id="DejaVuSans-50" d="M 1259 4147 
L 1259 2394 
L 2053 2394 
Q 2494 2394 2734 2622 
Q 2975 2850 2975 3272 
Q 2975 3691 2734 3919 
Q 2494 4147 2053 4147 
L 1259 4147 
z
M 628 4666 
L 2053 4666 
Q 2838 4666 3239 4311 
Q 3641 3956 3641 3272 
Q 3641 2581 3239 2228 
Q 2838 1875 2053 1875 
L 1259 1875 
L 1259 0 
L 628 0 
L 628 4666 
z
" transform="scale(0.015625)"/>
       <path id="DejaVuSans-49" d="M 628 4666 
L 1259 4666 
L 1259 0 
L 628 0 
L 628 4666 
z
" transform="scale(0.015625)"/>
       <path id="DejaVuSans-56" d="M 1831 0 
L 50 4666 
L 709 4666 
L 2188 738 
L 3669 4666 
L 4325 4666 
L 2547 0 
L 1831 0 
z
" transform="scale(0.015625)"/>
       <path id="DejaVuSans-33" d="M 2597 2516 
Q 3050 2419 3304 2112 
Q 3559 1806 3559 1356 
Q 3559 666 3084 287 
Q 2609 -91 1734 -91 
Q 1441 -91 1130 -33 
Q 819 25 488 141 
L 488 750 
Q 750 597 1062 519 
Q 1375 441 1716 441 
Q 2309 441 2620 675 
Q 2931 909 2931 1356 
Q 2931 1769 2642 2001 
Q 2353 2234 1838 2234 
L 1294 2234 
L 1294 2753 
L 1863 2753 
Q 2328 2753 2575 2939 
Q 2822 3125 2822 3475 
Q 2822 3834 2567 4026 
Q 2313 4219 1838 4219 
Q 1578 4219 1281 4162 
Q 984 4106 628 3988 
L 628 4550 
Q 988 4650 1302 4700 
Q 1616 4750 1894 4750 
Q 2613 4750 3031 4423 
Q 3450 4097 3450 3541 
Q 3450 3153 3228 2886 
Q 3006 2619 2597 2516 
z
" transform="scale(0.015625)"/>
      </defs>
      <use xlink:href="#DejaVuSans-6f"/>
      <use xlink:href="#DejaVuSans-64" x="61.181641"/>
      <use xlink:href="#DejaVuSans-73" x="124.658203"/>
      <use xlink:href="#DejaVuSans-73" x="176.757812"/>
      <use xlink:href="#DejaVuSans-5f" x="228.857422"/>
      <use xlink:href="#DejaVuSans-67" x="278.857422"/>
      <use xlink:href="#DejaVuSans-50" x="342.333984"/>
      <use xlink:href="#DejaVuSans-50" x="402.636719"/>
      <use xlink:href="#DejaVuSans-49" x="462.939453"/>
      <use xlink:href="#DejaVuSans-5f" x="492.431641"/>
      <use xlink:href="#DejaVuSans-64" x="542.431641"/>
      <use xlink:href="#DejaVuSans-65" x="605.908203"/>
      <use xlink:href="#DejaVuSans-65" x="667.431641"/>
      <use xlink:href="#DejaVuSans-70" x="728.955078"/>
      <use xlink:href="#DejaVuSans-5f" x="792.431641"/>
      <use xlink:href="#DejaVuSans-56" x="842.431641"/>
      <use xlink:href="#DejaVuSans-32" x="910.839844"/>
      <use xlink:href="#DejaVuSans-33" x="974.462891"/>
     </g>
    </g>
   </g>
  </g>
  <g id="axes_2">
   <g id="patch_6">
    <path d="M 86.4 443.52 
L 489.6 443.52 
L 489.6 292.32 
L 86.4 292.32 
z
" style="fill: #ffffff"/>
   </g>
   <g id="patch_7">
    <path d="M 90.432 367.92 
L 163.008 367.92 
L 163.008 255.397948 
L 90.432 255.397948 
z
" clip-path="url(#pc31be78f14)" style="fill: #1a8000; opacity: 0.6"/>
   </g>
   <g id="patch_8">
    <path d="M 171.072 367.92 
L 243.648 367.92 
L 243.648 308.592602 
L 171.072 308.592602 
z
" clip-path="url(#pc31be78f14)" style="fill: #1a8000; opacity: 0.6"/>
   </g>
   <g id="patch_9">
    <path d="M 251.712 367.92 
L 324.288 367.92 
L 324.288 355.088674 
L 251.712 355.088674 
z
" clip-path="url(#pc31be78f14)" style="fill: #1a8000; opacity: 0.6"/>
   </g>
   <g id="patch_10">
    <path d="M 332.352 367.92 
L 404.928 367.92 
L 404.928 372.854554 
L 332.352 372.854554 
z
" clip-path="url(#pc31be78f14)" style="fill: #1a8000; opacity: 0.6"/>
   </g>
   <g id="patch_11">
    <path d="M 412.992 367.92 
L 485.568 367.92 
L 485.568 350.789029 
L 412.992 350.789029 
z
" clip-path="url(#pc31be78f14)" style="fill: #1a8000; opacity: 0.6"/>
   </g>
   <g id="matplotlib.axis_3">
    <g id="xtick_7">
     <g id="line2d_31">
      <g>
       <use xlink:href="#m68d2d718bf" x="86.4" y="447.52" style="stroke: #000000; stroke-width: 0.8"/>
      </g>
     </g>
     <g id="text_13">
      <!-- 0 -->
      <g transform="translate(83.21875 462.118438) scale(0.1 -0.1)">
       <use xlink:href="#DejaVuSans-30"/>
      </g>
     </g>
    </g>
    <g id="xtick_8">
     <g id="line2d_32">
      <g>
       <use xlink:href="#m68d2d718bf" x="167.04" y="447.52" style="stroke: #000000; stroke-width: 0.8"/>
      </g>
     </g>
     <g id="text_14">
      <!-- 1 -->
      <g transform="translate(163.85875 462.118438) scale(0.1 -0.1)">
       <use xlink:href="#DejaVuSans-31"/>
      </g>
     </g>
    </g>
    <g id="xtick_9">
     <g id="line2d_33">
      <g>
       <use xlink:href="#m68d2d718bf" x="247.68" y="447.52" style="stroke: #000000; stroke-width: 0.8"/>
      </g>
     </g>
     <g id="text_15">
      <!-- 2 -->
      <g transform="translate(244.49875 462.118438) scale(0.1 -0.1)">
       <use xlink:href="#DejaVuSans-32"/>
      </g>
     </g>
    </g>
    <g id="xtick_10">
     <g id="line2d_34">
      <g>
       <use xlink:href="#m68d2d718bf" x="328.32" y="447.52" style="stroke: #000000; stroke-width: 0.8"/>
      </g>
     </g>
     <g id="text_16">
      <!-- 3 -->
      <g transform="translate(325.13875 462.118438) scale(0.1 -0.1)">
       <use xlink:href="#DejaVuSans-33"/>
      </g>
     </g>
    </g>
    <g id="xtick_11">
     <g id="line2d_35">
      <g>
       <use xlink:href="#m68d2d718bf" x="408.96" y="447.52" style="stroke: #000000; stroke-width: 0.8"/>
      </g>
     </g>
     <g id="text_17">
      <!-- 4 -->
      <g transform="translate(405.77875 462.118438) scale(0.1 -0.1)">
       <defs>
        <path id="DejaVuSans-34" d="M 2419 4116 
L 825 1625 
L 2419 1625 
L 2419 4116 
z
M 2253 4666 
L 3047 4666 
L 3047 1625 
L 3713 1625 
L 3713 1100 
L 3047 1100 
L 3047 0 
L 2419 0 
L 2419 1100 
L 313 1100 
L 313 1709 
L 2253 4666 
z
" transform="scale(0.015625)"/>
       </defs>
       <use xlink:href="#DejaVuSans-34"/>
      </g>
     </g>
    </g>
    <g id="xtick_12">
     <g id="line2d_36">
      <g>
       <use xlink:href="#m68d2d718bf" x="489.6" y="447.52" style="stroke: #000000; stroke-width: 0.8"/>
      </g>
     </g>
     <g id="text_18">
      <!-- 5 -->
      <g transform="translate(486.41875 462.118438) scale(0.1 -0.1)">
       <use xlink:href="#DejaVuSans-35"/>
      </g>
     </g>
    </g>
    <g id="text_19">
     <!-- relative distance from ROI center ($\sigma$) -->
     <g transform="translate(214.48 474.276875) scale(0.08 -0.08)">
      <defs>
       <path id="DejaVuSans-72" d="M 2631 2963 
Q 2534 3019 2420 3045 
Q 2306 3072 2169 3072 
Q 1681 3072 1420 2755 
Q 1159 2438 1159 1844 
L 1159 0 
L 581 0 
L 581 3500 
L 1159 3500 
L 1159 2956 
Q 1341 3275 1631 3429 
Q 1922 3584 2338 3584 
Q 2397 3584 2469 3576 
Q 2541 3569 2628 3553 
L 2631 2963 
z
" transform="scale(0.015625)"/>
       <path id="DejaVuSans-69" d="M 603 3500 
L 1178 3500 
L 1178 0 
L 603 0 
L 603 3500 
z
M 603 4863 
L 1178 4863 
L 1178 4134 
L 603 4134 
L 603 4863 
z
" transform="scale(0.015625)"/>
       <path id="DejaVuSans-76" d="M 191 3500 
L 800 3500 
L 1894 563 
L 2988 3500 
L 3597 3500 
L 2284 0 
L 1503 0 
L 191 3500 
z
" transform="scale(0.015625)"/>
       <path id="DejaVuSans-66" d="M 2375 4863 
L 2375 4384 
L 1825 4384 
Q 1516 4384 1395 4259 
Q 1275 4134 1275 3809 
L 1275 3500 
L 2222 3500 
L 2222 3053 
L 1275 3053 
L 1275 0 
L 697 0 
L 697 3053 
L 147 3053 
L 147 3500 
L 697 3500 
L 697 3744 
Q 697 4328 969 4595 
Q 1241 4863 1831 4863 
L 2375 4863 
z
" transform="scale(0.015625)"/>
       <path id="DejaVuSans-6d" d="M 3328 2828 
Q 3544 3216 3844 3400 
Q 4144 3584 4550 3584 
Q 5097 3584 5394 3201 
Q 5691 2819 5691 2113 
L 5691 0 
L 5113 0 
L 5113 2094 
Q 5113 2597 4934 2840 
Q 4756 3084 4391 3084 
Q 3944 3084 3684 2787 
Q 3425 2491 3425 1978 
L 3425 0 
L 2847 0 
L 2847 2094 
Q 2847 2600 2669 2842 
Q 2491 3084 2119 3084 
Q 1678 3084 1418 2786 
Q 1159 2488 1159 1978 
L 1159 0 
L 581 0 
L 581 3500 
L 1159 3500 
L 1159 2956 
Q 1356 3278 1631 3431 
Q 1906 3584 2284 3584 
Q 2666 3584 2933 3390 
Q 3200 3197 3328 2828 
z
" transform="scale(0.015625)"/>
       <path id="DejaVuSans-52" d="M 2841 2188 
Q 3044 2119 3236 1894 
Q 3428 1669 3622 1275 
L 4263 0 
L 3584 0 
L 2988 1197 
Q 2756 1666 2539 1819 
Q 2322 1972 1947 1972 
L 1259 1972 
L 1259 0 
L 628 0 
L 628 4666 
L 2053 4666 
Q 2853 4666 3247 4331 
Q 3641 3997 3641 3322 
Q 3641 2881 3436 2590 
Q 3231 2300 2841 2188 
z
M 1259 4147 
L 1259 2491 
L 2053 2491 
Q 2509 2491 2742 2702 
Q 2975 2913 2975 3322 
Q 2975 3731 2742 3939 
Q 2509 4147 2053 4147 
L 1259 4147 
z
" transform="scale(0.015625)"/>
       <path id="DejaVuSans-28" d="M 1984 4856 
Q 1566 4138 1362 3434 
Q 1159 2731 1159 2009 
Q 1159 1288 1364 580 
Q 1569 -128 1984 -844 
L 1484 -844 
Q 1016 -109 783 600 
Q 550 1309 550 2009 
Q 550 2706 781 3412 
Q 1013 4119 1484 4856 
L 1984 4856 
z
" transform="scale(0.015625)"/>
       <path id="DejaVuSans-Oblique-3c3" d="M 2219 3044 
Q 1744 3044 1422 2700 
Q 1081 2341 969 1747 
Q 844 1119 1044 756 
Q 1241 397 1706 397 
Q 2166 397 2503 759 
Q 2844 1122 2966 1747 
Q 3075 2319 2881 2700 
Q 2700 3044 2219 3044 
z
M 2309 3503 
L 4219 3500 
L 4106 2925 
L 3463 2925 
Q 3706 2438 3575 1747 
Q 3406 888 2884 400 
Q 2359 -91 1609 -91 
Q 856 -91 525 400 
Q 194 888 363 1747 
Q 528 2609 1050 3097 
Q 1484 3503 2309 3503 
z
" transform="scale(0.015625)"/>
       <path id="DejaVuSans-29" d="M 513 4856 
L 1013 4856 
Q 1481 4119 1714 3412 
Q 1947 2706 1947 2009 
Q 1947 1309 1714 600 
Q 1481 -109 1013 -844 
L 513 -844 
Q 928 -128 1133 580 
Q 1338 1288 1338 2009 
Q 1338 2731 1133 3434 
Q 928 4138 513 4856 
z
" transform="scale(0.015625)"/>
      </defs>
      <use xlink:href="#DejaVuSans-72" transform="translate(0 0.015625)"/>
      <use xlink:href="#DejaVuSans-65" transform="translate(41.113281 0.015625)"/>
      <use xlink:href="#DejaVuSans-6c" transform="translate(102.636719 0.015625)"/>
      <use xlink:href="#DejaVuSans-61" transform="translate(130.419922 0.015625)"/>
      <use xlink:href="#DejaVuSans-74" transform="translate(191.699219 0.015625)"/>
      <use xlink:href="#DejaVuSans-69" transform="translate(230.908203 0.015625)"/>
      <use xlink:href="#DejaVuSans-76" transform="translate(258.691406 0.015625)"/>
      <use xlink:href="#DejaVuSans-65" transform="translate(317.871094 0.015625)"/>
      <use xlink:href="#DejaVuSans-20" transform="translate(379.394531 0.015625)"/>
      <use xlink:href="#DejaVuSans-64" transform="translate(411.181641 0.015625)"/>
      <use xlink:href="#DejaVuSans-69" transform="translate(474.658203 0.015625)"/>
      <use xlink:href="#DejaVuSans-73" transform="translate(502.441406 0.015625)"/>
      <use xlink:href="#DejaVuSans-74" transform="translate(554.541016 0.015625)"/>
      <use xlink:href="#DejaVuSans-61" transform="translate(593.75 0.015625)"/>
      <use xlink:href="#DejaVuSans-6e" transform="translate(655.029297 0.015625)"/>
      <use xlink:href="#DejaVuSans-63" transform="translate(718.408203 0.015625)"/>
      <use xlink:href="#DejaVuSans-65" transform="translate(773.388672 0.015625)"/>
      <use xlink:href="#DejaVuSans-20" transform="translate(834.912109 0.015625)"/>
      <use xlink:href="#DejaVuSans-66" transform="translate(866.699219 0.015625)"/>
      <use xlink:href="#DejaVuSans-72" transform="translate(901.904297 0.015625)"/>
      <use xlink:href="#DejaVuSans-6f" transform="translate(943.017578 0.015625)"/>
      <use xlink:href="#DejaVuSans-6d" transform="translate(1004.199219 0.015625)"/>
      <use xlink:href="#DejaVuSans-20" transform="translate(1101.611328 0.015625)"/>
      <use xlink:href="#DejaVuSans-52" transform="translate(1133.398438 0.015625)"/>
      <use xlink:href="#DejaVuSans-4f" transform="translate(1202.880859 0.015625)"/>
      <use xlink:href="#DejaVuSans-49" transform="translate(1281.591797 0.015625)"/>
      <use xlink:href="#DejaVuSans-20" transform="translate(1311.083984 0.015625)"/>
      <use xlink:href="#DejaVuSans-63" transform="translate(1342.871094 0.015625)"/>
      <use xlink:href="#DejaVuSans-65" transform="translate(1397.851562 0.015625)"/>
      <use xlink:href="#DejaVuSans-6e" transform="translate(1459.375 0.015625)"/>
      <use xlink:href="#DejaVuSans-74" transform="translate(1522.753906 0.015625)"/>
      <use xlink:href="#DejaVuSans-65" transform="translate(1561.962891 0.015625)"/>
      <use xlink:href="#DejaVuSans-72" transform="translate(1623.486328 0.015625)"/>
      <use xlink:href="#DejaVuSans-20" transform="translate(1664.599609 0.015625)"/>
      <use xlink:href="#DejaVuSans-28" transform="translate(1696.386719 0.015625)"/>
      <use xlink:href="#DejaVuSans-Oblique-3c3" transform="translate(1735.400391 0.015625)"/>
      <use xlink:href="#DejaVuSans-29" transform="translate(1798.779297 0.015625)"/>
     </g>
    </g>
   </g>
   <g id="matplotlib.axis_4">
    <g id="ytick_10">
     <g id="line2d_37">
      <g>
       <use xlink:href="#m8a5d03cdf2" x="82.4" y="443.52" style="stroke: #000000; stroke-width: 0.8"/>
      </g>
     </g>
     <g id="text_20">
      <!-- −1.0 -->
      <g transform="translate(51.117187 447.319219) scale(0.1 -0.1)">
       <use xlink:href="#DejaVuSans-2212"/>
       <use xlink:href="#DejaVuSans-31" x="83.789062"/>
       <use xlink:href="#DejaVuSans-2e" x="147.412109"/>
       <use xlink:href="#DejaVuSans-30" x="179.199219"/>
      </g>
     </g>
    </g>
    <g id="ytick_11">
     <g id="line2d_38">
      <g>
       <use xlink:href="#m8a5d03cdf2" x="82.4" y="405.72" style="stroke: #000000; stroke-width: 0.8"/>
      </g>
     </g>
     <g id="text_21">
      <!-- −0.5 -->
      <g transform="translate(51.117187 409.519219) scale(0.1 -0.1)">
       <use xlink:href="#DejaVuSans-2212"/>
       <use xlink:href="#DejaVuSans-30" x="83.789062"/>
       <use xlink:href="#DejaVuSans-2e" x="147.412109"/>
       <use xlink:href="#DejaVuSans-35" x="179.199219"/>
      </g>
     </g>
    </g>
    <g id="ytick_12">
     <g id="line2d_39">
      <g>
       <use xlink:href="#m8a5d03cdf2" x="82.4" y="367.92" style="stroke: #000000; stroke-width: 0.8"/>
      </g>
     </g>
     <g id="text_22">
      <!-- 0.0 -->
      <g transform="translate(59.496875 371.719219) scale(0.1 -0.1)">
       <use xlink:href="#DejaVuSans-30"/>
       <use xlink:href="#DejaVuSans-2e" x="63.623047"/>
       <use xlink:href="#DejaVuSans-30" x="95.410156"/>
      </g>
     </g>
    </g>
    <g id="ytick_13">
     <g id="line2d_40">
      <g>
       <use xlink:href="#m8a5d03cdf2" x="82.4" y="330.12" style="stroke: #000000; stroke-width: 0.8"/>
      </g>
     </g>
     <g id="text_23">
      <!-- 0.5 -->
      <g transform="translate(59.496875 333.919219) scale(0.1 -0.1)">
       <use xlink:href="#DejaVuSans-30"/>
       <use xlink:href="#DejaVuSans-2e" x="63.623047"/>
       <use xlink:href="#DejaVuSans-35" x="95.410156"/>
      </g>
     </g>
    </g>
    <g id="ytick_14">
     <g id="line2d_41">
      <g>
       <use xlink:href="#m8a5d03cdf2" x="82.4" y="292.32" style="stroke: #000000; stroke-width: 0.8"/>
      </g>
     </g>
     <g id="text_24">
      <!-- 1.0 -->
      <g transform="translate(59.496875 296.119219) scale(0.1 -0.1)">
       <use xlink:href="#DejaVuSans-31"/>
       <use xlink:href="#DejaVuSans-2e" x="63.623047"/>
       <use xlink:href="#DejaVuSans-30" x="95.410156"/>
      </g>
     </g>
    </g>
    <g id="text_25">
     <!-- Binned Avg -->
     <g transform="translate(45.453437 390.525625) rotate(-90) scale(0.08 -0.08)">
      <defs>
       <path id="DejaVuSans-41" d="M 2188 4044 
L 1331 1722 
L 3047 1722 
L 2188 4044 
z
M 1831 4666 
L 2547 4666 
L 4325 0 
L 3669 0 
L 3244 1197 
L 1141 1197 
L 716 0 
L 50 0 
L 1831 4666 
z
" transform="scale(0.015625)"/>
      </defs>
      <use xlink:href="#DejaVuSans-42"/>
      <use xlink:href="#DejaVuSans-69" x="68.603516"/>
      <use xlink:href="#DejaVuSans-6e" x="96.386719"/>
      <use xlink:href="#DejaVuSans-6e" x="159.765625"/>
      <use xlink:href="#DejaVuSans-65" x="223.144531"/>
      <use xlink:href="#DejaVuSans-64" x="284.667969"/>
      <use xlink:href="#DejaVuSans-20" x="348.144531"/>
      <use xlink:href="#DejaVuSans-41" x="379.931641"/>
      <use xlink:href="#DejaVuSans-76" x="442.464844"/>
      <use xlink:href="#DejaVuSans-67" x="501.644531"/>
     </g>
    </g>
   </g>
   <g id="LineCollection_1">
    <path d="M 126.72 334.456719 
L 126.72 176.339177 
" clip-path="url(#pc31be78f14)" style="fill: none; stroke: #000000; stroke-width: 1.5"/>
    <path d="M 207.36 348.281369 
L 207.36 268.903835 
" clip-path="url(#pc31be78f14)" style="fill: none; stroke: #000000; stroke-width: 1.5"/>
    <path d="M 288 387.292405 
L 288 322.884944 
" clip-path="url(#pc31be78f14)" style="fill: none; stroke: #000000; stroke-width: 1.5"/>
    <path d="M 368.64 391.565824 
L 368.64 354.143285 
" clip-path="url(#pc31be78f14)" style="fill: none; stroke: #000000; stroke-width: 1.5"/>
    <path d="M 449.28 371.305259 
L 449.28 330.272799 
" clip-path="url(#pc31be78f14)" style="fill: none; stroke: #000000; stroke-width: 1.5"/>
   </g>
   <g id="line2d_42">
    <defs>
     <path id="me4dde03889" d="M 5 0 
L -5 -0 
" style="stroke: #000000"/>
    </defs>
    <g clip-path="url(#pc31be78f14)">
     <use xlink:href="#me4dde03889" x="126.72" y="334.456719" style="stroke: #000000"/>
     <use xlink:href="#me4dde03889" x="207.36" y="348.281369" style="stroke: #000000"/>
     <use xlink:href="#me4dde03889" x="288" y="387.292405" style="stroke: #000000"/>
     <use xlink:href="#me4dde03889" x="368.64" y="391.565824" style="stroke: #000000"/>
     <use xlink:href="#me4dde03889" x="449.28" y="371.305259" style="stroke: #000000"/>
    </g>
   </g>
   <g id="line2d_43">
    <g clip-path="url(#pc31be78f14)">
     <use xlink:href="#me4dde03889" x="126.72" y="176.339177" style="stroke: #000000"/>
     <use xlink:href="#me4dde03889" x="207.36" y="268.903835" style="stroke: #000000"/>
     <use xlink:href="#me4dde03889" x="288" y="322.884944" style="stroke: #000000"/>
     <use xlink:href="#me4dde03889" x="368.64" y="354.143285" style="stroke: #000000"/>
     <use xlink:href="#me4dde03889" x="449.28" y="330.272799" style="stroke: #000000"/>
    </g>
   </g>
   <g id="line2d_44">
    <path d="M 86.4 367.92 
L 489.6 367.92 
" clip-path="url(#pc31be78f14)" style="fill: none; stroke-dasharray: 5.55,2.4; stroke-dashoffset: 0; stroke: #000000; stroke-width: 1.5"/>
   </g>
   <g id="patch_12">
    <path d="M 82.4 443.52 
L 82.4 292.32 
" style="fill: none; stroke: #000000; stroke-width: 0.8; stroke-linejoin: miter; stroke-linecap: square"/>
   </g>
   <g id="patch_13">
    <path d="M 86.4 447.52 
L 489.6 447.52 
" style="fill: none; stroke: #000000; stroke-width: 0.8; stroke-linejoin: miter; stroke-linecap: square"/>
   </g>
  </g>
 </g>
 <defs>
  <clipPath id="p2d678dd39d">
   <rect x="86.4" y="40.32" width="403.2" height="201.6"/>
  </clipPath>
  <clipPath id="pc31be78f14">
   <rect x="86.4" y="292.32" width="403.2" height="151.2"/>
  </clipPath>
 </defs>
</svg>
