<?xml version="1.0" encoding="utf-8" standalone="no"?>
<!DOCTYPE svg PUBLIC "-//W3C//DTD SVG 1.1//EN"
  "http://www.w3.org/Graphics/SVG/1.1/DTD/svg11.dtd">
<svg xmlns:xlink="http://www.w3.org/1999/xlink" width="360pt" height="432pt" viewBox="0 0 360 432" xmlns="http://www.w3.org/2000/svg" version="1.1">
 <metadata>
  <rdf:RDF xmlns:dc="http://purl.org/dc/elements/1.1/" xmlns:cc="http://creativecommons.org/ns#" xmlns:rdf="http://www.w3.org/1999/02/22-rdf-syntax-ns#">
   <cc:Work>
    <dc:type rdf:resource="http://purl.org/dc/dcmitype/StillImage"/>
    <dc:date>2025-10-31T15:45:48.971539</dc:date>
    <dc:format>image/svg+xml</dc:format>
    <dc:creator>
     <cc:Agent>
      <dc:title>Matplotlib v3.8.0, https://matplotlib.org/</dc:title>
     </cc:Agent>
    </dc:creator>
   </cc:Work>
  </rdf:RDF>
 </metadata>
 <defs>
  <style type="text/css">*{stroke-linejoin: round; stroke-linecap: butt}</style>
 </defs>
 <g id="figure_1">
  <g id="patch_1">
   <path d="M 0 432 
L 360 432 
L 360 0 
L 0 0 
z
" style="fill: #ffffff"/>
  </g>
  <g id="axes_1">
   <g id="patch_2">
    <path d="M 54 388.8 
L 306 388.8 
L 306 302.4 
L 54 302.4 
z
" style="fill: #ffffff"/>
   </g>
   <g id="PolyCollection_1">
    <defs>
     <path id="md3b8361a26" d="M 65.454545 -83.987686 
L 65.454545 -74.534104 
L 70.12987 -74.988744 
L 74.805195 -75.614628 
L 79.480519 -76.046877 
L 84.155844 -76.654729 
L 88.831169 -77.01764 
L 93.506494 -77.457011 
L 98.181818 -77.602355 
L 102.857143 -77.6567 
L 107.532468 -77.850644 
L 112.207792 -78.30232 
L 116.883117 -78.695767 
L 121.558442 -79.072429 
L 126.233766 -79.197383 
L 130.909091 -79.132395 
L 135.584416 -78.862906 
L 140.25974 -78.840557 
L 144.935065 -78.816569 
L 149.61039 -78.751447 
L 154.285714 -78.782418 
L 158.961039 -79.07655 
L 163.636364 -79.290067 
L 168.311688 -79.179299 
L 172.987013 -79.033289 
L 177.662338 -78.739993 
L 182.337662 -78.246654 
L 187.012987 -77.991055 
L 191.688312 -78.04683 
L 196.363636 -78.167114 
L 201.038961 -77.991109 
L 205.714286 -77.727827 
L 210.38961 -77.22293 
L 215.064935 -77.007273 
L 219.74026 -77.130585 
L 224.415584 -76.988285 
L 229.090909 -76.633328 
L 233.766234 -76.26759 
L 238.441558 -76.024987 
L 243.116883 -76.132624 
L 247.792208 -76.605333 
L 252.467532 -77.063097 
L 257.142857 -77.542995 
L 261.818182 -77.788951 
L 266.493506 -77.718241 
L 271.168831 -77.568827 
L 275.844156 -77.605071 
L 280.519481 -77.957354 
L 285.194805 -78.012083 
L 289.87013 -78.142823 
L 294.545455 -78.636829 
L 294.545455 -84.521951 
L 294.545455 -84.521951 
L 289.87013 -83.816963 
L 285.194805 -83.575789 
L 280.519481 -83.474127 
L 275.844156 -83.35776 
L 271.168831 -83.268316 
L 266.493506 -83.312404 
L 261.818182 -83.237889 
L 257.142857 -82.957629 
L 252.467532 -82.778712 
L 247.792208 -82.514509 
L 243.116883 -82.397459 
L 238.441558 -82.473377 
L 233.766234 -82.730316 
L 229.090909 -83.050736 
L 224.415584 -83.425375 
L 219.74026 -83.697963 
L 215.064935 -83.732192 
L 210.38961 -84.279718 
L 205.714286 -84.969327 
L 201.038961 -85.386622 
L 196.363636 -85.483555 
L 191.688312 -85.294652 
L 187.012987 -85.235901 
L 182.337662 -85.560036 
L 177.662338 -86.045989 
L 172.987013 -86.325962 
L 168.311688 -86.440045 
L 163.636364 -86.61921 
L 158.961039 -86.483232 
L 154.285714 -86.245515 
L 149.61039 -85.977624 
L 144.935065 -85.700374 
L 140.25974 -85.404704 
L 135.584416 -84.946898 
L 130.909091 -85.220601 
L 126.233766 -85.486043 
L 121.558442 -85.607653 
L 116.883117 -85.807283 
L 112.207792 -85.719698 
L 107.532468 -85.516211 
L 102.857143 -85.845486 
L 98.181818 -86.400317 
L 93.506494 -86.536047 
L 88.831169 -86.340216 
L 84.155844 -86.125919 
L 79.480519 -85.634683 
L 74.805195 -85.382964 
L 70.12987 -84.664123 
L 65.454545 -83.987686 
z
" style="stroke: #ff0000; stroke-opacity: 0.4"/>
    </defs>
    <g clip-path="url(#p0161dca085)">
     <use xlink:href="#md3b8361a26" x="0" y="432" style="fill: #ff0000; fill-opacity: 0.4; stroke: #ff0000; stroke-opacity: 0.4"/>
    </g>
   </g>
   <g id="matplotlib.axis_1">
    <g id="xtick_1">
     <g id="line2d_1">
      <defs>
       <path id="m5ddbb99536" d="M 0 0 
L 0 3.5 
" style="stroke: #000000; stroke-width: 0.8"/>
      </defs>
      <g>
       <use xlink:href="#m5ddbb99536" x="65.454545" y="392.8" style="stroke: #000000; stroke-width: 0.8"/>
      </g>
     </g>
     <g id="text_1">
      <!-- 0 -->
      <g transform="translate(62.273295 407.398438) scale(0.1 -0.1)">
       <defs>
        <path id="DejaVuSans-30" d="M 2034 4250 
Q 1547 4250 1301 3770 
Q 1056 3291 1056 2328 
Q 1056 1369 1301 889 
Q 1547 409 2034 409 
Q 2525 409 2770 889 
Q 3016 1369 3016 2328 
Q 3016 3291 2770 3770 
Q 2525 4250 2034 4250 
z
M 2034 4750 
Q 2819 4750 3233 4129 
Q 3647 3509 3647 2328 
Q 3647 1150 3233 529 
Q 2819 -91 2034 -91 
Q 1250 -91 836 529 
Q 422 1150 422 2328 
Q 422 3509 836 4129 
Q 1250 4750 2034 4750 
z
" transform="scale(0.015625)"/>
       </defs>
       <use xlink:href="#DejaVuSans-30"/>
      </g>
     </g>
    </g>
    <g id="xtick_2">
     <g id="line2d_2">
      <g>
       <use xlink:href="#m5ddbb99536" x="111.272727" y="392.8" style="stroke: #000000; stroke-width: 0.8"/>
      </g>
     </g>
     <g id="text_2">
      <!-- 1 -->
      <g transform="translate(108.091477 407.398438) scale(0.1 -0.1)">
       <defs>
        <path id="DejaVuSans-31" d="M 794 531 
L 1825 531 
L 1825 4091 
L 703 3866 
L 703 4441 
L 1819 4666 
L 2450 4666 
L 2450 531 
L 3481 531 
L 3481 0 
L 794 0 
L 794 531 
z
" transform="scale(0.015625)"/>
       </defs>
       <use xlink:href="#DejaVuSans-31"/>
      </g>
     </g>
    </g>
    <g id="xtick_3">
     <g id="line2d_3">
      <g>
       <use xlink:href="#m5ddbb99536" x="157.090909" y="392.8" style="stroke: #000000; stroke-width: 0.8"/>
      </g>
     </g>
     <g id="text_3">
      <!-- 2 -->
      <g transform="translate(153.909659 407.398438) scale(0.1 -0.1)">
       <defs>
        <path id="DejaVuSans-32" d="M 1228 531 
L 3431 531 
L 3431 0 
L 469 0 
L 469 531 
Q 828 903 1448 1529 
Q 2069 2156 2228 2338 
Q 2531 2678 2651 2914 
Q 2772 3150 2772 3378 
Q 2772 3750 2511 3984 
Q 2250 4219 1831 4219 
Q 1534 4219 1204 4116 
Q 875 4013 500 3803 
L 500 4441 
Q 881 4594 1212 4672 
Q 1544 4750 1819 4750 
Q 2544 4750 2975 4387 
Q 3406 4025 3406 3419 
Q 3406 3131 3298 2873 
Q 3191 2616 2906 2266 
Q 2828 2175 2409 1742 
Q 1991 1309 1228 531 
z
" transform="scale(0.015625)"/>
       </defs>
       <use xlink:href="#DejaVuSans-32"/>
      </g>
     </g>
    </g>
    <g id="xtick_4">
     <g id="line2d_4">
      <g>
       <use xlink:href="#m5ddbb99536" x="202.909091" y="392.8" style="stroke: #000000; stroke-width: 0.8"/>
      </g>
     </g>
     <g id="text_4">
      <!-- 3 -->
      <g transform="translate(199.727841 407.398438) scale(0.1 -0.1)">
       <defs>
        <path id="DejaVuSans-33" d="M 2597 2516 
Q 3050 2419 3304 2112 
Q 3559 1806 3559 1356 
Q 3559 666 3084 287 
Q 2609 -91 1734 -91 
Q 1441 -91 1130 -33 
Q 819 25 488 141 
L 488 750 
Q 750 597 1062 519 
Q 1375 441 1716 441 
Q 2309 441 2620 675 
Q 2931 909 2931 1356 
Q 2931 1769 2642 2001 
Q 2353 2234 1838 2234 
L 1294 2234 
L 1294 2753 
L 1863 2753 
Q 2328 2753 2575 2939 
Q 2822 3125 2822 3475 
Q 2822 3834 2567 4026 
Q 2313 4219 1838 4219 
Q 1578 4219 1281 4162 
Q 984 4106 628 3988 
L 628 4550 
Q 988 4650 1302 4700 
Q 1616 4750 1894 4750 
Q 2613 4750 3031 4423 
Q 3450 4097 3450 3541 
Q 3450 3153 3228 2886 
Q 3006 2619 2597 2516 
z
" transform="scale(0.015625)"/>
       </defs>
       <use xlink:href="#DejaVuSans-33"/>
      </g>
     </g>
    </g>
    <g id="xtick_5">
     <g id="line2d_5">
      <g>
       <use xlink:href="#m5ddbb99536" x="248.727273" y="392.8" style="stroke: #000000; stroke-width: 0.8"/>
      </g>
     </g>
     <g id="text_5">
      <!-- 4 -->
      <g transform="translate(245.546023 407.398438) scale(0.1 -0.1)">
       <defs>
        <path id="DejaVuSans-34" d="M 2419 4116 
L 825 1625 
L 2419 1625 
L 2419 4116 
z
M 2253 4666 
L 3047 4666 
L 3047 1625 
L 3713 1625 
L 3713 1100 
L 3047 1100 
L 3047 0 
L 2419 0 
L 2419 1100 
L 313 1100 
L 313 1709 
L 2253 4666 
z
" transform="scale(0.015625)"/>
       </defs>
       <use xlink:href="#DejaVuSans-34"/>
      </g>
     </g>
    </g>
    <g id="xtick_6">
     <g id="line2d_6">
      <g>
       <use xlink:href="#m5ddbb99536" x="294.545455" y="392.8" style="stroke: #000000; stroke-width: 0.8"/>
      </g>
     </g>
     <g id="text_6">
      <!-- 5 -->
      <g transform="translate(291.364205 407.398438) scale(0.1 -0.1)">
       <defs>
        <path id="DejaVuSans-35" d="M 691 4666 
L 3169 4666 
L 3169 4134 
L 1269 4134 
L 1269 2991 
Q 1406 3038 1543 3061 
Q 1681 3084 1819 3084 
Q 2600 3084 3056 2656 
Q 3513 2228 3513 1497 
Q 3513 744 3044 326 
Q 2575 -91 1722 -91 
Q 1428 -91 1123 -41 
Q 819 9 494 109 
L 494 744 
Q 775 591 1075 516 
Q 1375 441 1709 441 
Q 2250 441 2565 725 
Q 2881 1009 2881 1497 
Q 2881 1984 2565 2268 
Q 2250 2553 1709 2553 
Q 1456 2553 1204 2497 
Q 953 2441 691 2322 
L 691 4666 
z
" transform="scale(0.015625)"/>
       </defs>
       <use xlink:href="#DejaVuSans-35"/>
      </g>
     </g>
    </g>
    <g id="text_7">
     <!-- relative distance from ROI center ($\sigma$) -->
     <g transform="translate(106.48 419.556875) scale(0.08 -0.08)">
      <defs>
       <path id="DejaVuSans-72" d="M 2631 2963 
Q 2534 3019 2420 3045 
Q 2306 3072 2169 3072 
Q 1681 3072 1420 2755 
Q 1159 2438 1159 1844 
L 1159 0 
L 581 0 
L 581 3500 
L 1159 3500 
L 1159 2956 
Q 1341 3275 1631 3429 
Q 1922 3584 2338 3584 
Q 2397 3584 2469 3576 
Q 2541 3569 2628 3553 
L 2631 2963 
z
" transform="scale(0.015625)"/>
       <path id="DejaVuSans-65" d="M 3597 1894 
L 3597 1613 
L 953 1613 
Q 991 1019 1311 708 
Q 1631 397 2203 397 
Q 2534 397 2845 478 
Q 3156 559 3463 722 
L 3463 178 
Q 3153 47 2828 -22 
Q 2503 -91 2169 -91 
Q 1331 -91 842 396 
Q 353 884 353 1716 
Q 353 2575 817 3079 
Q 1281 3584 2069 3584 
Q 2775 3584 3186 3129 
Q 3597 2675 3597 1894 
z
M 3022 2063 
Q 3016 2534 2758 2815 
Q 2500 3097 2075 3097 
Q 1594 3097 1305 2825 
Q 1016 2553 972 2059 
L 3022 2063 
z
" transform="scale(0.015625)"/>
       <path id="DejaVuSans-6c" d="M 603 4863 
L 1178 4863 
L 1178 0 
L 603 0 
L 603 4863 
z
" transform="scale(0.015625)"/>
       <path id="DejaVuSans-61" d="M 2194 1759 
Q 1497 1759 1228 1600 
Q 959 1441 959 1056 
Q 959 750 1161 570 
Q 1363 391 1709 391 
Q 2188 391 2477 730 
Q 2766 1069 2766 1631 
L 2766 1759 
L 2194 1759 
z
M 3341 1997 
L 3341 0 
L 2766 0 
L 2766 531 
Q 2569 213 2275 61 
Q 1981 -91 1556 -91 
Q 1019 -91 701 211 
Q 384 513 384 1019 
Q 384 1609 779 1909 
Q 1175 2209 1959 2209 
L 2766 2209 
L 2766 2266 
Q 2766 2663 2505 2880 
Q 2244 3097 1772 3097 
Q 1472 3097 1187 3025 
Q 903 2953 641 2809 
L 641 3341 
Q 956 3463 1253 3523 
Q 1550 3584 1831 3584 
Q 2591 3584 2966 3190 
Q 3341 2797 3341 1997 
z
" transform="scale(0.015625)"/>
       <path id="DejaVuSans-74" d="M 1172 4494 
L 1172 3500 
L 2356 3500 
L 2356 3053 
L 1172 3053 
L 1172 1153 
Q 1172 725 1289 603 
Q 1406 481 1766 481 
L 2356 481 
L 2356 0 
L 1766 0 
Q 1100 0 847 248 
Q 594 497 594 1153 
L 594 3053 
L 172 3053 
L 172 3500 
L 594 3500 
L 594 4494 
L 1172 4494 
z
" transform="scale(0.015625)"/>
       <path id="DejaVuSans-69" d="M 603 3500 
L 1178 3500 
L 1178 0 
L 603 0 
L 603 3500 
z
M 603 4863 
L 1178 4863 
L 1178 4134 
L 603 4134 
L 603 4863 
z
" transform="scale(0.015625)"/>
       <path id="DejaVuSans-76" d="M 191 3500 
L 800 3500 
L 1894 563 
L 2988 3500 
L 3597 3500 
L 2284 0 
L 1503 0 
L 191 3500 
z
" transform="scale(0.015625)"/>
       <path id="DejaVuSans-20" transform="scale(0.015625)"/>
       <path id="DejaVuSans-64" d="M 2906 2969 
L 2906 4863 
L 3481 4863 
L 3481 0 
L 2906 0 
L 2906 525 
Q 2725 213 2448 61 
Q 2172 -91 1784 -91 
Q 1150 -91 751 415 
Q 353 922 353 1747 
Q 353 2572 751 3078 
Q 1150 3584 1784 3584 
Q 2172 3584 2448 3432 
Q 2725 3281 2906 2969 
z
M 947 1747 
Q 947 1113 1208 752 
Q 1469 391 1925 391 
Q 2381 391 2643 752 
Q 2906 1113 2906 1747 
Q 2906 2381 2643 2742 
Q 2381 3103 1925 3103 
Q 1469 3103 1208 2742 
Q 947 2381 947 1747 
z
" transform="scale(0.015625)"/>
       <path id="DejaVuSans-73" d="M 2834 3397 
L 2834 2853 
Q 2591 2978 2328 3040 
Q 2066 3103 1784 3103 
Q 1356 3103 1142 2972 
Q 928 2841 928 2578 
Q 928 2378 1081 2264 
Q 1234 2150 1697 2047 
L 1894 2003 
Q 2506 1872 2764 1633 
Q 3022 1394 3022 966 
Q 3022 478 2636 193 
Q 2250 -91 1575 -91 
Q 1294 -91 989 -36 
Q 684 19 347 128 
L 347 722 
Q 666 556 975 473 
Q 1284 391 1588 391 
Q 1994 391 2212 530 
Q 2431 669 2431 922 
Q 2431 1156 2273 1281 
Q 2116 1406 1581 1522 
L 1381 1569 
Q 847 1681 609 1914 
Q 372 2147 372 2553 
Q 372 3047 722 3315 
Q 1072 3584 1716 3584 
Q 2034 3584 2315 3537 
Q 2597 3491 2834 3397 
z
" transform="scale(0.015625)"/>
       <path id="DejaVuSans-6e" d="M 3513 2113 
L 3513 0 
L 2938 0 
L 2938 2094 
Q 2938 2591 2744 2837 
Q 2550 3084 2163 3084 
Q 1697 3084 1428 2787 
Q 1159 2491 1159 1978 
L 1159 0 
L 581 0 
L 581 3500 
L 1159 3500 
L 1159 2956 
Q 1366 3272 1645 3428 
Q 1925 3584 2291 3584 
Q 2894 3584 3203 3211 
Q 3513 2838 3513 2113 
z
" transform="scale(0.015625)"/>
       <path id="DejaVuSans-63" d="M 3122 3366 
L 3122 2828 
Q 2878 2963 2633 3030 
Q 2388 3097 2138 3097 
Q 1578 3097 1268 2742 
Q 959 2388 959 1747 
Q 959 1106 1268 751 
Q 1578 397 2138 397 
Q 2388 397 2633 464 
Q 2878 531 3122 666 
L 3122 134 
Q 2881 22 2623 -34 
Q 2366 -91 2075 -91 
Q 1284 -91 818 406 
Q 353 903 353 1747 
Q 353 2603 823 3093 
Q 1294 3584 2113 3584 
Q 2378 3584 2631 3529 
Q 2884 3475 3122 3366 
z
" transform="scale(0.015625)"/>
       <path id="DejaVuSans-66" d="M 2375 4863 
L 2375 4384 
L 1825 4384 
Q 1516 4384 1395 4259 
Q 1275 4134 1275 3809 
L 1275 3500 
L 2222 3500 
L 2222 3053 
L 1275 3053 
L 1275 0 
L 697 0 
L 697 3053 
L 147 3053 
L 147 3500 
L 697 3500 
L 697 3744 
Q 697 4328 969 4595 
Q 1241 4863 1831 4863 
L 2375 4863 
z
" transform="scale(0.015625)"/>
       <path id="DejaVuSans-6f" d="M 1959 3097 
Q 1497 3097 1228 2736 
Q 959 2375 959 1747 
Q 959 1119 1226 758 
Q 1494 397 1959 397 
Q 2419 397 2687 759 
Q 2956 1122 2956 1747 
Q 2956 2369 2687 2733 
Q 2419 3097 1959 3097 
z
M 1959 3584 
Q 2709 3584 3137 3096 
Q 3566 2609 3566 1747 
Q 3566 888 3137 398 
Q 2709 -91 1959 -91 
Q 1206 -91 779 398 
Q 353 888 353 1747 
Q 353 2609 779 3096 
Q 1206 3584 1959 3584 
z
" transform="scale(0.015625)"/>
       <path id="DejaVuSans-6d" d="M 3328 2828 
Q 3544 3216 3844 3400 
Q 4144 3584 4550 3584 
Q 5097 3584 5394 3201 
Q 5691 2819 5691 2113 
L 5691 0 
L 5113 0 
L 5113 2094 
Q 5113 2597 4934 2840 
Q 4756 3084 4391 3084 
Q 3944 3084 3684 2787 
Q 3425 2491 3425 1978 
L 3425 0 
L 2847 0 
L 2847 2094 
Q 2847 2600 2669 2842 
Q 2491 3084 2119 3084 
Q 1678 3084 1418 2786 
Q 1159 2488 1159 1978 
L 1159 0 
L 581 0 
L 581 3500 
L 1159 3500 
L 1159 2956 
Q 1356 3278 1631 3431 
Q 1906 3584 2284 3584 
Q 2666 3584 2933 3390 
Q 3200 3197 3328 2828 
z
" transform="scale(0.015625)"/>
       <path id="DejaVuSans-52" d="M 2841 2188 
Q 3044 2119 3236 1894 
Q 3428 1669 3622 1275 
L 4263 0 
L 3584 0 
L 2988 1197 
Q 2756 1666 2539 1819 
Q 2322 1972 1947 1972 
L 1259 1972 
L 1259 0 
L 628 0 
L 628 4666 
L 2053 4666 
Q 2853 4666 3247 4331 
Q 3641 3997 3641 3322 
Q 3641 2881 3436 2590 
Q 3231 2300 2841 2188 
z
M 1259 4147 
L 1259 2491 
L 2053 2491 
Q 2509 2491 2742 2702 
Q 2975 2913 2975 3322 
Q 2975 3731 2742 3939 
Q 2509 4147 2053 4147 
L 1259 4147 
z
" transform="scale(0.015625)"/>
       <path id="DejaVuSans-4f" d="M 2522 4238 
Q 1834 4238 1429 3725 
Q 1025 3213 1025 2328 
Q 1025 1447 1429 934 
Q 1834 422 2522 422 
Q 3209 422 3611 934 
Q 4013 1447 4013 2328 
Q 4013 3213 3611 3725 
Q 3209 4238 2522 4238 
z
M 2522 4750 
Q 3503 4750 4090 4092 
Q 4678 3434 4678 2328 
Q 4678 1225 4090 567 
Q 3503 -91 2522 -91 
Q 1538 -91 948 565 
Q 359 1222 359 2328 
Q 359 3434 948 4092 
Q 1538 4750 2522 4750 
z
" transform="scale(0.015625)"/>
       <path id="DejaVuSans-49" d="M 628 4666 
L 1259 4666 
L 1259 0 
L 628 0 
L 628 4666 
z
" transform="scale(0.015625)"/>
       <path id="DejaVuSans-28" d="M 1984 4856 
Q 1566 4138 1362 3434 
Q 1159 2731 1159 2009 
Q 1159 1288 1364 580 
Q 1569 -128 1984 -844 
L 1484 -844 
Q 1016 -109 783 600 
Q 550 1309 550 2009 
Q 550 2706 781 3412 
Q 1013 4119 1484 4856 
L 1984 4856 
z
" transform="scale(0.015625)"/>
       <path id="DejaVuSans-Oblique-3c3" d="M 2219 3044 
Q 1744 3044 1422 2700 
Q 1081 2341 969 1747 
Q 844 1119 1044 756 
Q 1241 397 1706 397 
Q 2166 397 2503 759 
Q 2844 1122 2966 1747 
Q 3075 2319 2881 2700 
Q 2700 3044 2219 3044 
z
M 2309 3503 
L 4219 3500 
L 4106 2925 
L 3463 2925 
Q 3706 2438 3575 1747 
Q 3406 888 2884 400 
Q 2359 -91 1609 -91 
Q 856 -91 525 400 
Q 194 888 363 1747 
Q 528 2609 1050 3097 
Q 1484 3503 2309 3503 
z
" transform="scale(0.015625)"/>
       <path id="DejaVuSans-29" d="M 513 4856 
L 1013 4856 
Q 1481 4119 1714 3412 
Q 1947 2706 1947 2009 
Q 1947 1309 1714 600 
Q 1481 -109 1013 -844 
L 513 -844 
Q 928 -128 1133 580 
Q 1338 1288 1338 2009 
Q 1338 2731 1133 3434 
Q 928 4138 513 4856 
z
" transform="scale(0.015625)"/>
      </defs>
      <use xlink:href="#DejaVuSans-72" transform="translate(0 0.015625)"/>
      <use xlink:href="#DejaVuSans-65" transform="translate(41.113281 0.015625)"/>
      <use xlink:href="#DejaVuSans-6c" transform="translate(102.636719 0.015625)"/>
      <use xlink:href="#DejaVuSans-61" transform="translate(130.419922 0.015625)"/>
      <use xlink:href="#DejaVuSans-74" transform="translate(191.699219 0.015625)"/>
      <use xlink:href="#DejaVuSans-69" transform="translate(230.908203 0.015625)"/>
      <use xlink:href="#DejaVuSans-76" transform="translate(258.691406 0.015625)"/>
      <use xlink:href="#DejaVuSans-65" transform="translate(317.871094 0.015625)"/>
      <use xlink:href="#DejaVuSans-20" transform="translate(379.394531 0.015625)"/>
      <use xlink:href="#DejaVuSans-64" transform="translate(411.181641 0.015625)"/>
      <use xlink:href="#DejaVuSans-69" transform="translate(474.658203 0.015625)"/>
      <use xlink:href="#DejaVuSans-73" transform="translate(502.441406 0.015625)"/>
      <use xlink:href="#DejaVuSans-74" transform="translate(554.541016 0.015625)"/>
      <use xlink:href="#DejaVuSans-61" transform="translate(593.75 0.015625)"/>
      <use xlink:href="#DejaVuSans-6e" transform="translate(655.029297 0.015625)"/>
      <use xlink:href="#DejaVuSans-63" transform="translate(718.408203 0.015625)"/>
      <use xlink:href="#DejaVuSans-65" transform="translate(773.388672 0.015625)"/>
      <use xlink:href="#DejaVuSans-20" transform="translate(834.912109 0.015625)"/>
      <use xlink:href="#DejaVuSans-66" transform="translate(866.699219 0.015625)"/>
      <use xlink:href="#DejaVuSans-72" transform="translate(901.904297 0.015625)"/>
      <use xlink:href="#DejaVuSans-6f" transform="translate(943.017578 0.015625)"/>
      <use xlink:href="#DejaVuSans-6d" transform="translate(1004.199219 0.015625)"/>
      <use xlink:href="#DejaVuSans-20" transform="translate(1101.611328 0.015625)"/>
      <use xlink:href="#DejaVuSans-52" transform="translate(1133.398438 0.015625)"/>
      <use xlink:href="#DejaVuSans-4f" transform="translate(1202.880859 0.015625)"/>
      <use xlink:href="#DejaVuSans-49" transform="translate(1281.591797 0.015625)"/>
      <use xlink:href="#DejaVuSans-20" transform="translate(1311.083984 0.015625)"/>
      <use xlink:href="#DejaVuSans-63" transform="translate(1342.871094 0.015625)"/>
      <use xlink:href="#DejaVuSans-65" transform="translate(1397.851562 0.015625)"/>
      <use xlink:href="#DejaVuSans-6e" transform="translate(1459.375 0.015625)"/>
      <use xlink:href="#DejaVuSans-74" transform="translate(1522.753906 0.015625)"/>
      <use xlink:href="#DejaVuSans-65" transform="translate(1561.962891 0.015625)"/>
      <use xlink:href="#DejaVuSans-72" transform="translate(1623.486328 0.015625)"/>
      <use xlink:href="#DejaVuSans-20" transform="translate(1664.599609 0.015625)"/>
      <use xlink:href="#DejaVuSans-28" transform="translate(1696.386719 0.015625)"/>
      <use xlink:href="#DejaVuSans-Oblique-3c3" transform="translate(1735.400391 0.015625)"/>
      <use xlink:href="#DejaVuSans-29" transform="translate(1798.779297 0.015625)"/>
     </g>
    </g>
   </g>
   <g id="matplotlib.axis_2">
    <g id="ytick_1">
     <g id="line2d_7">
      <defs>
       <path id="m033f732246" d="M 0 0 
L -3.5 0 
" style="stroke: #000000; stroke-width: 0.8"/>
      </defs>
      <g>
       <use xlink:href="#m033f732246" x="50" y="376.457143" style="stroke: #000000; stroke-width: 0.8"/>
      </g>
     </g>
     <g id="text_8">
      <!-- −5 -->
      <g transform="translate(28.257812 380.256362) scale(0.1 -0.1)">
       <defs>
        <path id="DejaVuSans-2212" d="M 678 2272 
L 4684 2272 
L 4684 1741 
L 678 1741 
L 678 2272 
z
" transform="scale(0.015625)"/>
       </defs>
       <use xlink:href="#DejaVuSans-2212"/>
       <use xlink:href="#DejaVuSans-35" x="83.789062"/>
      </g>
     </g>
    </g>
    <g id="ytick_2">
     <g id="line2d_8">
      <g>
       <use xlink:href="#m033f732246" x="50" y="345.6" style="stroke: #000000; stroke-width: 0.8"/>
      </g>
     </g>
     <g id="text_9">
      <!-- 0 -->
      <g transform="translate(36.6375 349.399219) scale(0.1 -0.1)">
       <use xlink:href="#DejaVuSans-30"/>
      </g>
     </g>
    </g>
    <g id="ytick_3">
     <g id="line2d_9">
      <g>
       <use xlink:href="#m033f732246" x="50" y="314.742857" style="stroke: #000000; stroke-width: 0.8"/>
      </g>
     </g>
     <g id="text_10">
      <!-- 5 -->
      <g transform="translate(36.6375 318.542076) scale(0.1 -0.1)">
       <use xlink:href="#DejaVuSans-35"/>
      </g>
     </g>
    </g>
    <g id="text_11">
     <!-- BOLD % change -->
     <g transform="translate(22.594062 377.79625) rotate(-90) scale(0.08 -0.08)">
      <defs>
       <path id="DejaVuSans-42" d="M 1259 2228 
L 1259 519 
L 2272 519 
Q 2781 519 3026 730 
Q 3272 941 3272 1375 
Q 3272 1813 3026 2020 
Q 2781 2228 2272 2228 
L 1259 2228 
z
M 1259 4147 
L 1259 2741 
L 2194 2741 
Q 2656 2741 2882 2914 
Q 3109 3088 3109 3444 
Q 3109 3797 2882 3972 
Q 2656 4147 2194 4147 
L 1259 4147 
z
M 628 4666 
L 2241 4666 
Q 2963 4666 3353 4366 
Q 3744 4066 3744 3513 
Q 3744 3084 3544 2831 
Q 3344 2578 2956 2516 
Q 3422 2416 3680 2098 
Q 3938 1781 3938 1306 
Q 3938 681 3513 340 
Q 3088 0 2303 0 
L 628 0 
L 628 4666 
z
" transform="scale(0.015625)"/>
       <path id="DejaVuSans-4c" d="M 628 4666 
L 1259 4666 
L 1259 531 
L 3531 531 
L 3531 0 
L 628 0 
L 628 4666 
z
" transform="scale(0.015625)"/>
       <path id="DejaVuSans-44" d="M 1259 4147 
L 1259 519 
L 2022 519 
Q 2988 519 3436 956 
Q 3884 1394 3884 2338 
Q 3884 3275 3436 3711 
Q 2988 4147 2022 4147 
L 1259 4147 
z
M 628 4666 
L 1925 4666 
Q 3281 4666 3915 4102 
Q 4550 3538 4550 2338 
Q 4550 1131 3912 565 
Q 3275 0 1925 0 
L 628 0 
L 628 4666 
z
" transform="scale(0.015625)"/>
       <path id="DejaVuSans-25" d="M 4653 2053 
Q 4381 2053 4226 1822 
Q 4072 1591 4072 1178 
Q 4072 772 4226 539 
Q 4381 306 4653 306 
Q 4919 306 5073 539 
Q 5228 772 5228 1178 
Q 5228 1588 5073 1820 
Q 4919 2053 4653 2053 
z
M 4653 2450 
Q 5147 2450 5437 2106 
Q 5728 1763 5728 1178 
Q 5728 594 5436 251 
Q 5144 -91 4653 -91 
Q 4153 -91 3862 251 
Q 3572 594 3572 1178 
Q 3572 1766 3864 2108 
Q 4156 2450 4653 2450 
z
M 1428 4353 
Q 1159 4353 1004 4120 
Q 850 3888 850 3481 
Q 850 3069 1003 2837 
Q 1156 2606 1428 2606 
Q 1700 2606 1854 2837 
Q 2009 3069 2009 3481 
Q 2009 3884 1853 4118 
Q 1697 4353 1428 4353 
z
M 4250 4750 
L 4750 4750 
L 1831 -91 
L 1331 -91 
L 4250 4750 
z
M 1428 4750 
Q 1922 4750 2215 4408 
Q 2509 4066 2509 3481 
Q 2509 2891 2217 2550 
Q 1925 2209 1428 2209 
Q 931 2209 642 2551 
Q 353 2894 353 3481 
Q 353 4063 643 4406 
Q 934 4750 1428 4750 
z
" transform="scale(0.015625)"/>
       <path id="DejaVuSans-68" d="M 3513 2113 
L 3513 0 
L 2938 0 
L 2938 2094 
Q 2938 2591 2744 2837 
Q 2550 3084 2163 3084 
Q 1697 3084 1428 2787 
Q 1159 2491 1159 1978 
L 1159 0 
L 581 0 
L 581 4863 
L 1159 4863 
L 1159 2956 
Q 1366 3272 1645 3428 
Q 1925 3584 2291 3584 
Q 2894 3584 3203 3211 
Q 3513 2838 3513 2113 
z
" transform="scale(0.015625)"/>
       <path id="DejaVuSans-67" d="M 2906 1791 
Q 2906 2416 2648 2759 
Q 2391 3103 1925 3103 
Q 1463 3103 1205 2759 
Q 947 2416 947 1791 
Q 947 1169 1205 825 
Q 1463 481 1925 481 
Q 2391 481 2648 825 
Q 2906 1169 2906 1791 
z
M 3481 434 
Q 3481 -459 3084 -895 
Q 2688 -1331 1869 -1331 
Q 1566 -1331 1297 -1286 
Q 1028 -1241 775 -1147 
L 775 -588 
Q 1028 -725 1275 -790 
Q 1522 -856 1778 -856 
Q 2344 -856 2625 -561 
Q 2906 -266 2906 331 
L 2906 616 
Q 2728 306 2450 153 
Q 2172 0 1784 0 
Q 1141 0 747 490 
Q 353 981 353 1791 
Q 353 2603 747 3093 
Q 1141 3584 1784 3584 
Q 2172 3584 2450 3431 
Q 2728 3278 2906 2969 
L 2906 3500 
L 3481 3500 
L 3481 434 
z
" transform="scale(0.015625)"/>
      </defs>
      <use xlink:href="#DejaVuSans-42"/>
      <use xlink:href="#DejaVuSans-4f" x="66.853516"/>
      <use xlink:href="#DejaVuSans-4c" x="145.564453"/>
      <use xlink:href="#DejaVuSans-44" x="201.277344"/>
      <use xlink:href="#DejaVuSans-20" x="278.279297"/>
      <use xlink:href="#DejaVuSans-25" x="310.066406"/>
      <use xlink:href="#DejaVuSans-20" x="405.085938"/>
      <use xlink:href="#DejaVuSans-63" x="436.873047"/>
      <use xlink:href="#DejaVuSans-68" x="491.853516"/>
      <use xlink:href="#DejaVuSans-61" x="555.232422"/>
      <use xlink:href="#DejaVuSans-6e" x="616.511719"/>
      <use xlink:href="#DejaVuSans-67" x="679.890625"/>
      <use xlink:href="#DejaVuSans-65" x="743.367188"/>
     </g>
    </g>
   </g>
   <g id="line2d_10">
    <path d="M 65.454545 352.739105 
L 70.12987 352.173567 
L 74.805195 351.501204 
L 79.480519 351.15922 
L 84.155844 350.609676 
L 88.831169 350.321072 
L 93.506494 350.003471 
L 98.181818 349.998664 
L 102.857143 350.248907 
L 107.532468 350.316573 
L 112.207792 349.988991 
L 116.883117 349.748475 
L 121.558442 349.659959 
L 126.233766 349.658287 
L 130.909091 349.823502 
L 135.584416 350.095098 
L 140.25974 349.87737 
L 144.935065 349.741529 
L 149.61039 349.635464 
L 154.285714 349.486034 
L 158.961039 349.220109 
L 163.636364 349.045362 
L 168.311688 349.190328 
L 172.987013 349.320374 
L 177.662338 349.607009 
L 182.337662 350.096655 
L 187.012987 350.386522 
L 191.688312 350.329259 
L 196.363636 350.174666 
L 201.038961 350.311134 
L 205.714286 350.651423 
L 210.38961 351.248676 
L 215.064935 351.630268 
L 219.74026 351.585726 
L 224.415584 351.79317 
L 229.090909 352.157968 
L 233.766234 352.501047 
L 238.441558 352.750818 
L 243.116883 352.734958 
L 247.792208 352.440079 
L 252.467532 352.079095 
L 257.142857 351.749688 
L 261.818182 351.48658 
L 266.493506 351.484677 
L 271.168831 351.581428 
L 275.844156 351.518585 
L 280.519481 351.284259 
L 285.194805 351.206064 
L 289.87013 351.020107 
L 294.545455 350.42061 
" clip-path="url(#p0161dca085)" style="fill: none; stroke: #ff0000; stroke-width: 1.5; stroke-linecap: square"/>
   </g>
   <g id="line2d_11">
    <path d="M 65.454545 353.556803 
L 70.12987 353.8382 
L 74.805195 353.373972 
L 79.480519 353.261417 
L 84.155844 353.64781 
L 88.831169 354.4567 
L 93.506494 355.047628 
L 98.181818 356.885185 
L 102.857143 357.584345 
L 107.532468 356.543727 
L 112.207792 354.92117 
L 116.883117 353.509063 
L 121.558442 352.418915 
L 126.233766 352.136758 
L 130.909091 352.479585 
L 135.584416 353.139682 
L 140.25974 353.818589 
L 144.935065 354.762843 
L 149.61039 355.15977 
L 154.285714 354.564404 
L 158.961039 353.325842 
L 163.636364 352.114723 
L 168.311688 351.207783 
L 172.987013 350.110731 
L 177.662338 349.058516 
L 182.337662 349.22718 
L 187.012987 348.969231 
L 191.688312 348.360929 
L 196.363636 346.791721 
L 201.038961 347.362843 
L 205.714286 349.451699 
L 210.38961 352.431343 
L 215.064935 353.298877 
L 219.74026 352.631988 
L 224.415584 352.407764 
L 229.090909 351.73307 
L 233.766234 352.692079 
L 238.441558 354.102084 
L 243.116883 354.517114 
L 247.792208 353.287253 
L 252.467532 352.191134 
L 257.142857 350.158524 
L 261.818182 349.033146 
L 266.493506 349.711373 
L 271.168831 350.408382 
L 275.844156 350.770322 
L 280.519481 350.772971 
L 285.194805 349.159222 
L 289.87013 346.73052 
L 294.545455 345.163773 
" clip-path="url(#p0161dca085)" style="fill: none; stroke: #ff0000; stroke-opacity: 0.2; stroke-width: 1.5; stroke-linecap: square"/>
   </g>
   <g id="line2d_12">
    <path d="M 65.454545 346.570599 
L 70.12987 346.570599 
L 74.805195 346.614259 
L 79.480519 344.864424 
L 84.155844 344.685496 
L 88.831169 346.038462 
L 93.506494 346.803352 
L 98.181818 347.166015 
L 102.857143 346.62321 
L 107.532468 347.261669 
L 112.207792 347.981593 
L 116.883117 348.626714 
L 121.558442 348.647692 
L 126.233766 349.154364 
L 130.909091 349.398743 
L 135.584416 349.906897 
L 140.25974 351.275292 
L 144.935065 352.59478 
L 149.61039 354.021418 
L 154.285714 354.893395 
L 158.961039 355.088389 
L 163.636364 355.316886 
L 168.311688 355.418406 
L 172.987013 354.905232 
L 177.662338 354.091388 
L 182.337662 353.455423 
L 187.012987 353.390891 
L 191.688312 353.477434 
L 196.363636 353.349351 
L 201.038961 353.532364 
L 205.714286 353.503257 
L 210.38961 353.170359 
L 215.064935 352.65706 
L 219.74026 352.257726 
L 224.415584 351.951309 
L 229.090909 352.091973 
L 233.766234 352.447444 
L 238.441558 352.308781 
L 243.116883 352.064753 
L 247.792208 352.162673 
L 252.467532 352.351718 
L 257.142857 352.431728 
L 261.818182 352.784461 
L 266.493506 353.529448 
L 271.168831 353.437738 
L 275.844156 353.131979 
L 280.519481 352.42886 
L 285.194805 351.524068 
L 289.87013 350.8569 
L 294.545455 350.388337 
" clip-path="url(#p0161dca085)" style="fill: none; stroke: #ff0000; stroke-opacity: 0.2; stroke-width: 1.5; stroke-linecap: square"/>
   </g>
   <g id="line2d_13">
    <path d="M 65.454545 371.294565 
L 70.12987 371.782006 
L 74.805195 372.985859 
L 79.480519 372.648187 
L 84.155844 370.872508 
L 88.831169 369.322591 
L 93.506494 368.163903 
L 98.181818 367.832379 
L 102.857143 367.269163 
L 107.532468 367.559541 
L 112.207792 367.696481 
L 116.883117 366.817849 
L 121.558442 365.00743 
L 126.233766 364.247494 
L 130.909091 364.25884 
L 135.584416 365.082892 
L 140.25974 366.465942 
L 144.935065 367.668375 
L 149.61039 368.801394 
L 154.285714 369.751307 
L 158.961039 369.697516 
L 163.636364 369.727067 
L 168.311688 370.72129 
L 172.987013 371.731203 
L 177.662338 373.201278 
L 182.337662 374.063308 
L 187.012987 374.085589 
L 191.688312 373.450386 
L 196.363636 372.917503 
L 201.038961 373.851332 
L 205.714286 374.100096 
L 210.38961 373.98398 
L 215.064935 373.242437 
L 219.74026 372.636497 
L 224.415584 372.801032 
L 229.090909 373.598644 
L 233.766234 374.182587 
L 238.441558 375.011785 
L 243.116883 374.064387 
L 247.792208 371.936038 
L 252.467532 369.976665 
L 257.142857 367.289522 
L 261.818182 365.922905 
L 266.493506 365.393919 
L 271.168831 366.06907 
L 275.844156 367.118285 
L 280.519481 365.954119 
L 285.194805 366.755794 
L 289.87013 366.915805 
L 294.545455 367.003679 
" clip-path="url(#p0161dca085)" style="fill: none; stroke: #ff0000; stroke-opacity: 0.2; stroke-width: 1.5; stroke-linecap: square"/>
   </g>
   <g id="line2d_14">
    <path d="M 65.454545 383.112919 
L 70.12987 383.112919 
L 74.805195 382.778978 
L 79.480519 382.398618 
L 84.155844 381.991871 
L 88.831169 380.761879 
L 93.506494 379.391131 
L 98.181818 376.766377 
L 102.857143 375.099665 
L 107.532468 372.513514 
L 112.207792 370.104557 
L 116.883117 367.710336 
L 121.558442 366.607889 
L 126.233766 366.302913 
L 130.909091 365.911338 
L 135.584416 365.650363 
L 140.25974 366.045326 
L 144.935065 366.086684 
L 149.61039 366.199465 
L 154.285714 365.950521 
L 158.961039 365.214506 
L 163.636364 365.048425 
L 168.311688 364.961928 
L 172.987013 365.541665 
L 177.662338 365.734045 
L 182.337662 366.36624 
L 187.012987 366.018796 
L 191.688312 365.429366 
L 196.363636 365.137616 
L 201.038961 364.069785 
L 205.714286 363.336521 
L 210.38961 363.591856 
L 215.064935 363.597543 
L 219.74026 363.48334 
L 224.415584 363.703239 
L 229.090909 364.067706 
L 233.766234 364.603581 
L 238.441558 364.609091 
L 243.116883 364.618381 
L 247.792208 364.50589 
L 252.467532 364.47983 
L 257.142857 364.618714 
L 261.818182 364.758183 
L 266.493506 364.483679 
L 271.168831 363.840164 
L 275.844156 363.504409 
L 280.519481 362.824656 
L 285.194805 363.164736 
L 289.87013 363.661605 
L 294.545455 363.158589 
" clip-path="url(#p0161dca085)" style="fill: none; stroke: #ff0000; stroke-opacity: 0.2; stroke-width: 1.5; stroke-linecap: square"/>
   </g>
   <g id="line2d_15">
    <path d="M 65.454545 354.535893 
L 70.12987 354.401168 
L 74.805195 352.291456 
L 79.480519 349.382991 
L 84.155844 347.19846 
L 88.831169 344.58434 
L 93.506494 343.979811 
L 98.181818 344.238885 
L 102.857143 344.542521 
L 107.532468 345.477827 
L 112.207792 346.508185 
L 116.883117 348.084283 
L 121.558442 346.809126 
L 126.233766 344.410692 
L 130.909091 342.147346 
L 135.584416 340.252722 
L 140.25974 337.067323 
L 144.935065 335.936552 
L 149.61039 334.463036 
L 154.285714 334.440036 
L 158.961039 334.476579 
L 163.636364 334.456678 
L 168.311688 334.732919 
L 172.987013 335.699682 
L 177.662338 337.349746 
L 182.337662 338.368622 
L 187.012987 338.791719 
L 191.688312 338.868599 
L 196.363636 338.198048 
L 201.038961 336.952313 
L 205.714286 336.891169 
L 210.38961 337.75531 
L 215.064935 338.722045 
L 219.74026 338.303647 
L 224.415584 337.851793 
L 229.090909 337.36689 
L 233.766234 337.213629 
L 238.441558 336.8921 
L 243.116883 337.487513 
L 247.792208 338.00003 
L 252.467532 338.532006 
L 257.142857 339.281595 
L 261.818182 339.539655 
L 266.493506 339.842227 
L 271.168831 340.795721 
L 275.844156 341.287045 
L 280.519481 341.784003 
L 285.194805 342.134296 
L 289.87013 342.291288 
L 294.545455 341.381826 
" clip-path="url(#p0161dca085)" style="fill: none; stroke: #ff0000; stroke-opacity: 0.2; stroke-width: 1.5; stroke-linecap: square"/>
   </g>
   <g id="line2d_16">
    <path d="M 65.454545 358.209703 
L 70.12987 353.776036 
L 74.805195 346.512717 
L 79.480519 342.0056 
L 84.155844 337.642862 
L 88.831169 334.568882 
L 93.506494 332.920155 
L 98.181818 331.573267 
L 102.857143 333.403743 
L 107.532468 334.363838 
L 112.207792 331.976078 
L 116.883117 331.788272 
L 121.558442 335.595901 
L 126.233766 337.696089 
L 130.909091 342.647168 
L 135.584416 345.946135 
L 140.25974 345.682563 
L 144.935065 344.506145 
L 149.61039 341.831004 
L 154.285714 339.522193 
L 158.961039 337.199678 
L 163.636364 336.393455 
L 168.311688 337.18462 
L 172.987013 337.552479 
L 177.662338 339.228327 
L 182.337662 341.435107 
L 187.012987 343.64849 
L 191.688312 344.264872 
L 196.363636 344.488783 
L 201.038961 345.807045 
L 205.714286 346.663328 
L 210.38961 348.055838 
L 215.064935 350.885989 
L 219.74026 352.7286 
L 224.415584 353.898142 
L 229.090909 355.468644 
L 233.766234 355.720689 
L 238.441558 355.884595 
L 243.116883 356.22351 
L 247.792208 355.114826 
L 252.467532 354.458839 
L 257.142857 354.865902 
L 261.818182 355.582189 
L 266.493506 356.530142 
L 271.168831 357.885855 
L 275.844156 358.073117 
L 280.519481 357.228108 
L 285.194805 355.518236 
L 289.87013 353.935635 
L 294.545455 351.594625 
" clip-path="url(#p0161dca085)" style="fill: none; stroke: #ff0000; stroke-opacity: 0.2; stroke-width: 1.5; stroke-linecap: square"/>
   </g>
   <g id="line2d_17">
    <path d="M 65.454545 349.414993 
L 70.12987 349.036179 
L 74.805195 349.024711 
L 79.480519 349.467569 
L 84.155844 349.942574 
L 88.831169 350.759261 
L 93.506494 351.117732 
L 98.181818 351.207137 
L 102.857143 351.078532 
L 107.532468 350.836034 
L 112.207792 350.173599 
L 116.883117 349.920427 
L 121.558442 349.62552 
L 126.233766 350.023844 
L 130.909091 350.463559 
L 135.584416 351.165239 
L 140.25974 351.332223 
L 144.935065 351.34337 
L 149.61039 352.416922 
L 154.285714 353.478691 
L 158.961039 353.929353 
L 163.636364 353.312822 
L 168.311688 352.704051 
L 172.987013 351.64393 
L 177.662338 351.050461 
L 182.337662 351.146714 
L 187.012987 351.375642 
L 191.688312 351.794763 
L 196.363636 352.570855 
L 201.038961 352.878741 
L 205.714286 352.97501 
L 210.38961 353.295823 
L 215.064935 353.291122 
L 219.74026 352.788627 
L 224.415584 352.045008 
L 229.090909 351.444676 
L 233.766234 350.895099 
L 238.441558 350.39401 
L 243.116883 350.002158 
L 247.792208 350.420944 
L 252.467532 350.597529 
L 257.142857 350.466882 
L 261.818182 350.545644 
L 266.493506 350.758524 
L 271.168831 350.428574 
L 275.844156 349.234928 
L 280.519481 348.7474 
L 285.194805 348.912104 
L 289.87013 348.894186 
L 294.545455 348.538274 
" clip-path="url(#p0161dca085)" style="fill: none; stroke: #ff0000; stroke-opacity: 0.2; stroke-width: 1.5; stroke-linecap: square"/>
   </g>
   <g id="line2d_18">
    <path d="M 65.454545 344.988983 
L 70.12987 344.862242 
L 74.805195 344.687775 
L 79.480519 344.88729 
L 84.155844 344.922139 
L 88.831169 346.386291 
L 93.506494 347.240001 
L 98.181818 348.3728 
L 102.857143 349.504879 
L 107.532468 350.274395 
L 112.207792 350.164521 
L 116.883117 350.015206 
L 121.558442 350.052448 
L 126.233766 350.778509 
L 130.909091 350.81498 
L 135.584416 349.662808 
L 140.25974 349.053086 
L 144.935065 348.221544 
L 149.61039 348.073414 
L 154.285714 347.451667 
L 158.961039 346.87407 
L 163.636364 346.234046 
L 168.311688 346.013587 
L 172.987013 345.802892 
L 177.662338 345.997536 
L 182.337662 346.447057 
L 187.012987 347.103301 
L 191.688312 347.335053 
L 196.363636 347.388168 
L 201.038961 347.753767 
L 205.714286 348.05367 
L 210.38961 348.02047 
L 215.064935 347.628349 
L 219.74026 347.27477 
L 224.415584 347.206775 
L 229.090909 347.422746 
L 233.766234 347.656925 
L 238.441558 347.777466 
L 243.116883 347.622383 
L 247.792208 347.747913 
L 252.467532 347.956984 
L 257.142857 348.21719 
L 261.818182 348.158189 
L 266.493506 348.204952 
L 271.168831 347.497893 
L 275.844156 346.759462 
L 280.519481 346.479055 
L 285.194805 346.342599 
L 289.87013 345.416224 
L 294.545455 344.875318 
" clip-path="url(#p0161dca085)" style="fill: none; stroke: #ff0000; stroke-opacity: 0.2; stroke-width: 1.5; stroke-linecap: square"/>
   </g>
   <g id="line2d_19">
    <path d="M 65.454545 359.824865 
L 70.12987 360.258397 
L 74.805195 360.6005 
L 79.480519 361.257029 
L 84.155844 361.317929 
L 88.831169 361.458636 
L 93.506494 360.553115 
L 98.181818 361.064997 
L 102.857143 361.148902 
L 107.532468 360.863501 
L 112.207792 360.818176 
L 116.883117 361.120447 
L 121.558442 361.199825 
L 126.233766 360.66962 
L 130.909091 359.671378 
L 135.584416 359.34494 
L 140.25974 358.775735 
L 144.935065 358.034251 
L 149.61039 357.296115 
L 154.285714 357.04597 
L 158.961039 357.120037 
L 163.636364 357.341621 
L 168.311688 357.611636 
L 172.987013 358.59862 
L 177.662338 359.352841 
L 182.337662 360.026222 
L 187.012987 360.752974 
L 191.688312 361.718301 
L 196.363636 362.679923 
L 201.038961 362.819058 
L 205.714286 362.561466 
L 210.38961 362.332076 
L 215.064935 361.514776 
L 219.74026 360.824282 
L 224.415584 360.451312 
L 229.090909 360.339163 
L 233.766234 360.782713 
L 238.441558 360.3824 
L 243.116883 360.303986 
L 247.792208 360.159958 
L 252.467532 360.051683 
L 257.142857 359.722349 
L 261.818182 359.735201 
L 266.493506 360.220998 
L 271.168831 360.374874 
L 275.844156 360.066464 
L 280.519481 360.356285 
L 285.194805 361.426558 
L 289.87013 363.136697 
L 294.545455 364.384979 
" clip-path="url(#p0161dca085)" style="fill: none; stroke: #ff0000; stroke-opacity: 0.2; stroke-width: 1.5; stroke-linecap: square"/>
   </g>
   <g id="line2d_20">
    <path d="M 65.454545 320.778979 
L 70.12987 319.078527 
L 74.805195 318.107317 
L 79.480519 319.493067 
L 84.155844 320.584131 
L 88.831169 321.264338 
L 93.506494 322.484858 
L 98.181818 324.206172 
L 102.857143 328.804743 
L 107.532468 331.59436 
L 112.207792 334.312655 
L 116.883117 334.812402 
L 121.558442 334.973297 
L 126.233766 334.79936 
L 130.909091 333.345144 
L 135.584416 332.830196 
L 140.25974 331.661746 
L 144.935065 330.507755 
L 149.61039 329.948186 
L 154.285714 329.042951 
L 158.961039 330.201574 
L 163.636364 331.835645 
L 168.311688 333.623417 
L 172.987013 335.509624 
L 177.662338 335.769986 
L 182.337662 336.031155 
L 187.012987 335.976986 
L 191.688312 334.715917 
L 196.363636 333.658475 
L 201.038961 332.722054 
L 205.714286 333.215244 
L 210.38961 333.382323 
L 215.064935 333.785001 
L 219.74026 333.741001 
L 224.415584 334.681485 
L 229.090909 335.992844 
L 233.766234 336.940345 
L 238.441558 338.772928 
L 243.116883 340.26585 
L 247.792208 341.819633 
L 252.467532 342.282332 
L 257.142857 342.964478 
L 261.818182 342.290941 
L 266.493506 340.816542 
L 271.168831 341.065603 
L 275.844156 341.298065 
L 280.519481 341.965943 
L 285.194805 342.557682 
L 289.87013 342.765183 
L 294.545455 341.588585 
" clip-path="url(#p0161dca085)" style="fill: none; stroke: #ff0000; stroke-opacity: 0.2; stroke-width: 1.5; stroke-linecap: square"/>
   </g>
   <g id="line2d_21">
    <path d="M 65.454545 337.841853 
L 70.12987 337.192962 
L 74.805195 339.535702 
L 79.480519 343.085227 
L 84.155844 343.900656 
L 88.831169 343.930412 
L 93.506494 342.3365 
L 98.181818 340.672089 
L 102.857143 337.678279 
L 107.532468 336.193895 
L 112.207792 335.22189 
L 116.883117 334.828229 
L 121.558442 335.321502 
L 126.233766 336.021512 
L 130.909091 336.92044 
L 135.584416 338.064204 
L 140.25974 337.473239 
L 144.935065 337.494517 
L 149.61039 337.779385 
L 154.285714 338.205237 
L 158.961039 338.293658 
L 163.636364 337.717612 
L 168.311688 336.913973 
L 172.987013 335.428061 
L 177.662338 334.842974 
L 182.337662 334.496175 
L 187.012987 334.138122 
L 191.688312 334.206229 
L 196.363636 334.740878 
L 201.038961 335.673175 
L 205.714286 336.414194 
L 210.38961 337.71606 
L 215.064935 339.309746 
L 219.74026 340.772513 
L 224.415584 342.727011 
L 229.090909 344.211291 
L 233.766234 344.376424 
L 238.441558 344.123759 
L 243.116883 342.914509 
L 247.792208 341.685709 
L 252.467532 339.991331 
L 257.142857 339.229683 
L 261.818182 338.001863 
L 266.493506 336.839647 
L 271.168831 335.591839 
L 275.844156 335.460353 
L 280.519481 335.585452 
L 285.194805 335.771413 
L 289.87013 336.617133 
L 294.545455 336.548727 
" clip-path="url(#p0161dca085)" style="fill: none; stroke: #ff0000; stroke-opacity: 0.2; stroke-width: 1.5; stroke-linecap: square"/>
   </g>
   <g id="line2d_22">
    <path d="M 111.272727 382.628571 
L 111.272727 308.571429 
" clip-path="url(#p0161dca085)" style="fill: none; stroke-dasharray: 5.55,2.4; stroke-dashoffset: 0; stroke: #000000; stroke-width: 1.5"/>
   </g>
   <g id="line2d_23">
    <path d="M 65.454545 345.6 
L 294.545455 345.6 
" clip-path="url(#p0161dca085)" style="fill: none; stroke-dasharray: 5.55,2.4; stroke-dashoffset: 0; stroke: #000000; stroke-width: 1.5"/>
   </g>
   <g id="patch_3">
    <path d="M 50 388.8 
L 50 302.4 
" style="fill: none; stroke: #000000; stroke-width: 0.8; stroke-linejoin: miter; stroke-linecap: square"/>
   </g>
   <g id="patch_4">
    <path d="M 54 392.8 
L 306 392.8 
" style="fill: none; stroke: #000000; stroke-width: 0.8; stroke-linejoin: miter; stroke-linecap: square"/>
   </g>
   <g id="text_12">
    <!-- all depths -->
    <g transform="translate(150.492188 296.4) scale(0.12 -0.12)">
     <defs>
      <path id="DejaVuSans-70" d="M 1159 525 
L 1159 -1331 
L 581 -1331 
L 581 3500 
L 1159 3500 
L 1159 2969 
Q 1341 3281 1617 3432 
Q 1894 3584 2278 3584 
Q 2916 3584 3314 3078 
Q 3713 2572 3713 1747 
Q 3713 922 3314 415 
Q 2916 -91 2278 -91 
Q 1894 -91 1617 61 
Q 1341 213 1159 525 
z
M 3116 1747 
Q 3116 2381 2855 2742 
Q 2594 3103 2138 3103 
Q 1681 3103 1420 2742 
Q 1159 2381 1159 1747 
Q 1159 1113 1420 752 
Q 1681 391 2138 391 
Q 2594 391 2855 752 
Q 3116 1113 3116 1747 
z
" transform="scale(0.015625)"/>
     </defs>
     <use xlink:href="#DejaVuSans-61"/>
     <use xlink:href="#DejaVuSans-6c" x="61.279297"/>
     <use xlink:href="#DejaVuSans-6c" x="89.0625"/>
     <use xlink:href="#DejaVuSans-20" x="116.845703"/>
     <use xlink:href="#DejaVuSans-64" x="148.632812"/>
     <use xlink:href="#DejaVuSans-65" x="212.109375"/>
     <use xlink:href="#DejaVuSans-70" x="273.632812"/>
     <use xlink:href="#DejaVuSans-74" x="337.109375"/>
     <use xlink:href="#DejaVuSans-68" x="376.318359"/>
     <use xlink:href="#DejaVuSans-73" x="439.697266"/>
    </g>
   </g>
   <g id="legend_1">
    <g id="patch_5">
     <path d="M 140.771875 325.35625 
L 299 325.35625 
Q 301 325.35625 301 323.35625 
L 301 309.4 
Q 301 307.4 299 307.4 
L 140.771875 307.4 
Q 138.771875 307.4 138.771875 309.4 
L 138.771875 323.35625 
Q 138.771875 325.35625 140.771875 325.35625 
z
" style="fill: #ffffff; opacity: 0.8; stroke: #cccccc; stroke-linejoin: miter"/>
    </g>
    <g id="line2d_24">
     <path d="M 142.771875 315.498437 
L 152.771875 315.498437 
L 162.771875 315.498437 
" style="fill: none; stroke: #ff0000; stroke-width: 1.5; stroke-linecap: square"/>
    </g>
    <g id="text_13">
     <!-- V23_deep_deveined_iso0 -->
     <g transform="translate(170.771875 318.998437) scale(0.1 -0.1)">
      <defs>
       <path id="DejaVuSans-56" d="M 1831 0 
L 50 4666 
L 709 4666 
L 2188 738 
L 3669 4666 
L 4325 4666 
L 2547 0 
L 1831 0 
z
" transform="scale(0.015625)"/>
       <path id="DejaVuSans-5f" d="M 3263 -1063 
L 3263 -1509 
L -63 -1509 
L -63 -1063 
L 3263 -1063 
z
" transform="scale(0.015625)"/>
      </defs>
      <use xlink:href="#DejaVuSans-56"/>
      <use xlink:href="#DejaVuSans-32" x="68.408203"/>
      <use xlink:href="#DejaVuSans-33" x="132.03125"/>
      <use xlink:href="#DejaVuSans-5f" x="195.654297"/>
      <use xlink:href="#DejaVuSans-64" x="245.654297"/>
      <use xlink:href="#DejaVuSans-65" x="309.130859"/>
      <use xlink:href="#DejaVuSans-65" x="370.654297"/>
      <use xlink:href="#DejaVuSans-70" x="432.177734"/>
      <use xlink:href="#DejaVuSans-5f" x="495.654297"/>
      <use xlink:href="#DejaVuSans-64" x="545.654297"/>
      <use xlink:href="#DejaVuSans-65" x="609.130859"/>
      <use xlink:href="#DejaVuSans-76" x="670.654297"/>
      <use xlink:href="#DejaVuSans-65" x="729.833984"/>
      <use xlink:href="#DejaVuSans-69" x="791.357422"/>
      <use xlink:href="#DejaVuSans-6e" x="819.140625"/>
      <use xlink:href="#DejaVuSans-65" x="882.519531"/>
      <use xlink:href="#DejaVuSans-64" x="944.042969"/>
      <use xlink:href="#DejaVuSans-5f" x="1007.519531"/>
      <use xlink:href="#DejaVuSans-69" x="1057.519531"/>
      <use xlink:href="#DejaVuSans-73" x="1085.302734"/>
      <use xlink:href="#DejaVuSans-6f" x="1137.402344"/>
      <use xlink:href="#DejaVuSans-30" x="1198.583984"/>
     </g>
    </g>
   </g>
  </g>
 </g>
 <defs>
  <clipPath id="p0161dca085">
   <rect x="54" y="302.4" width="252" height="86.4"/>
  </clipPath>
 </defs>
</svg>
