<?xml version="1.0" encoding="utf-8" standalone="no"?>
<!DOCTYPE svg PUBLIC "-//W3C//DTD SVG 1.1//EN"
  "http://www.w3.org/Graphics/SVG/1.1/DTD/svg11.dtd">
<svg xmlns:xlink="http://www.w3.org/1999/xlink" width="576pt" height="504pt" viewBox="0 0 576 504" xmlns="http://www.w3.org/2000/svg" version="1.1">
 <metadata>
  <rdf:RDF xmlns:dc="http://purl.org/dc/elements/1.1/" xmlns:cc="http://creativecommons.org/ns#" xmlns:rdf="http://www.w3.org/1999/02/22-rdf-syntax-ns#">
   <cc:Work>
    <dc:type rdf:resource="http://purl.org/dc/dcmitype/StillImage"/>
    <dc:date>2025-09-22T15:18:51.912114</dc:date>
    <dc:format>image/svg+xml</dc:format>
    <dc:creator>
     <cc:Agent>
      <dc:title>Matplotlib v3.8.0, https://matplotlib.org/</dc:title>
     </cc:Agent>
    </dc:creator>
   </cc:Work>
  </rdf:RDF>
 </metadata>
 <defs>
  <style type="text/css">*{stroke-linejoin: round; stroke-linecap: butt}</style>
 </defs>
 <g id="figure_1">
  <g id="patch_1">
   <path d="M 0 504 
L 576 504 
L 576 0 
L 0 0 
z
" style="fill: #ffffff"/>
  </g>
  <g id="axes_1">
   <g id="patch_2">
    <path d="M 86.4 241.92 
L 489.6 241.92 
L 489.6 40.32 
L 86.4 40.32 
z
" style="fill: #ffffff"/>
   </g>
   <g id="PolyCollection_1">
    <defs>
     <path id="m79af92e859" d="M 86.4 -390.298211 
L 86.4 -363.017996 
L 94.628571 -362.294932 
L 102.857143 -362.455926 
L 111.085714 -363.856294 
L 119.314286 -362.549396 
L 127.542857 -359.46694 
L 135.771429 -356.09808 
L 144 -354.985932 
L 152.228571 -356.897777 
L 160.457143 -358.897571 
L 168.685714 -359.320947 
L 176.914286 -358.710645 
L 185.142857 -357.461298 
L 193.371429 -356.872096 
L 201.6 -357.86979 
L 209.828571 -359.730746 
L 218.057143 -360.916988 
L 226.285714 -363.763259 
L 234.514286 -365.912972 
L 242.742857 -366.127778 
L 250.971429 -366.48758 
L 259.2 -366.786675 
L 267.428571 -367.43858 
L 275.657143 -366.707222 
L 283.885714 -364.068659 
L 292.114286 -361.146332 
L 300.342857 -359.357635 
L 308.571429 -355.986908 
L 316.8 -353.724828 
L 325.028571 -352.826325 
L 333.257143 -351.562186 
L 341.485714 -349.619879 
L 349.714286 -346.668447 
L 357.942857 -344.20866 
L 366.171429 -341.41024 
L 374.4 -339.419033 
L 382.628571 -339.35012 
L 390.857143 -339.523749 
L 399.085714 -342.134846 
L 407.314286 -344.252334 
L 415.542857 -344.818468 
L 423.771429 -344.89667 
L 432 -344.835907 
L 440.228571 -342.386581 
L 448.457143 -340.865105 
L 456.685714 -338.500998 
L 464.914286 -335.567388 
L 473.142857 -334.135754 
L 481.371429 -332.556604 
L 489.6 -330.005546 
L 489.6 -368.325058 
L 489.6 -368.325058 
L 481.371429 -370.617538 
L 473.142857 -370.050914 
L 464.914286 -369.032846 
L 456.685714 -370.952312 
L 448.457143 -372.676789 
L 440.228571 -371.850652 
L 432 -372.800377 
L 423.771429 -372.205652 
L 415.542857 -371.053941 
L 407.314286 -371.359778 
L 399.085714 -370.570966 
L 390.857143 -368.31193 
L 382.628571 -367.427397 
L 374.4 -367.701285 
L 366.171429 -367.130908 
L 357.942857 -368.046343 
L 349.714286 -368.495588 
L 341.485714 -369.991319 
L 333.257143 -370.55107 
L 325.028571 -371.835506 
L 316.8 -375.064098 
L 308.571429 -377.913425 
L 300.342857 -382.111782 
L 292.114286 -384.103704 
L 283.885714 -387.078117 
L 275.657143 -389.736778 
L 267.428571 -390.781831 
L 259.2 -388.578555 
L 250.971429 -386.256456 
L 242.742857 -383.415187 
L 234.514286 -383.12166 
L 226.285714 -381.474637 
L 218.057143 -380.130668 
L 209.828571 -381.619536 
L 201.6 -382.77809 
L 193.371429 -384.988133 
L 185.142857 -387.049813 
L 176.914286 -390.88673 
L 168.685714 -392.504208 
L 160.457143 -390.108883 
L 152.228571 -387.085308 
L 144 -383.524824 
L 135.771429 -382.971202 
L 127.542857 -385.764242 
L 119.314286 -388.998496 
L 111.085714 -389.347314 
L 102.857143 -386.786613 
L 94.628571 -388.018417 
L 86.4 -390.298211 
z
" style="stroke: #ff00ff; stroke-opacity: 0.4"/>
    </defs>
    <g clip-path="url(#p913df4263d)">
     <use xlink:href="#m79af92e859" x="0" y="504" style="fill: #ff00ff; fill-opacity: 0.4; stroke: #ff00ff; stroke-opacity: 0.4"/>
    </g>
   </g>
   <g id="matplotlib.axis_1">
    <g id="xtick_1">
     <g id="line2d_1">
      <defs>
       <path id="m53912dc6d2" d="M 0 0 
L 0 3.5 
" style="stroke: #000000; stroke-width: 0.8"/>
      </defs>
      <g>
       <use xlink:href="#m53912dc6d2" x="86.4" y="245.92" style="stroke: #000000; stroke-width: 0.8"/>
      </g>
     </g>
    </g>
    <g id="xtick_2">
     <g id="line2d_2">
      <g>
       <use xlink:href="#m53912dc6d2" x="167.04" y="245.92" style="stroke: #000000; stroke-width: 0.8"/>
      </g>
     </g>
    </g>
    <g id="xtick_3">
     <g id="line2d_3">
      <g>
       <use xlink:href="#m53912dc6d2" x="247.68" y="245.92" style="stroke: #000000; stroke-width: 0.8"/>
      </g>
     </g>
    </g>
    <g id="xtick_4">
     <g id="line2d_4">
      <g>
       <use xlink:href="#m53912dc6d2" x="328.32" y="245.92" style="stroke: #000000; stroke-width: 0.8"/>
      </g>
     </g>
    </g>
    <g id="xtick_5">
     <g id="line2d_5">
      <g>
       <use xlink:href="#m53912dc6d2" x="408.96" y="245.92" style="stroke: #000000; stroke-width: 0.8"/>
      </g>
     </g>
    </g>
    <g id="xtick_6">
     <g id="line2d_6">
      <g>
       <use xlink:href="#m53912dc6d2" x="489.6" y="245.92" style="stroke: #000000; stroke-width: 0.8"/>
      </g>
     </g>
    </g>
   </g>
   <g id="matplotlib.axis_2">
    <g id="ytick_1">
     <g id="line2d_7">
      <defs>
       <path id="m99852aef2d" d="M 0 0 
L -3.5 0 
" style="stroke: #000000; stroke-width: 0.8"/>
      </defs>
      <g>
       <use xlink:href="#m99852aef2d" x="82.4" y="241.92" style="stroke: #000000; stroke-width: 0.8"/>
      </g>
     </g>
     <g id="text_1">
      <!-- −2.0 -->
      <g transform="translate(51.117187 245.719219) scale(0.1 -0.1)">
       <defs>
        <path id="DejaVuSans-2212" d="M 678 2272 
L 4684 2272 
L 4684 1741 
L 678 1741 
L 678 2272 
z
" transform="scale(0.015625)"/>
        <path id="DejaVuSans-32" d="M 1228 531 
L 3431 531 
L 3431 0 
L 469 0 
L 469 531 
Q 828 903 1448 1529 
Q 2069 2156 2228 2338 
Q 2531 2678 2651 2914 
Q 2772 3150 2772 3378 
Q 2772 3750 2511 3984 
Q 2250 4219 1831 4219 
Q 1534 4219 1204 4116 
Q 875 4013 500 3803 
L 500 4441 
Q 881 4594 1212 4672 
Q 1544 4750 1819 4750 
Q 2544 4750 2975 4387 
Q 3406 4025 3406 3419 
Q 3406 3131 3298 2873 
Q 3191 2616 2906 2266 
Q 2828 2175 2409 1742 
Q 1991 1309 1228 531 
z
" transform="scale(0.015625)"/>
        <path id="DejaVuSans-2e" d="M 684 794 
L 1344 794 
L 1344 0 
L 684 0 
L 684 794 
z
" transform="scale(0.015625)"/>
        <path id="DejaVuSans-30" d="M 2034 4250 
Q 1547 4250 1301 3770 
Q 1056 3291 1056 2328 
Q 1056 1369 1301 889 
Q 1547 409 2034 409 
Q 2525 409 2770 889 
Q 3016 1369 3016 2328 
Q 3016 3291 2770 3770 
Q 2525 4250 2034 4250 
z
M 2034 4750 
Q 2819 4750 3233 4129 
Q 3647 3509 3647 2328 
Q 3647 1150 3233 529 
Q 2819 -91 2034 -91 
Q 1250 -91 836 529 
Q 422 1150 422 2328 
Q 422 3509 836 4129 
Q 1250 4750 2034 4750 
z
" transform="scale(0.015625)"/>
       </defs>
       <use xlink:href="#DejaVuSans-2212"/>
       <use xlink:href="#DejaVuSans-32" x="83.789062"/>
       <use xlink:href="#DejaVuSans-2e" x="147.412109"/>
       <use xlink:href="#DejaVuSans-30" x="179.199219"/>
      </g>
     </g>
    </g>
    <g id="ytick_2">
     <g id="line2d_8">
      <g>
       <use xlink:href="#m99852aef2d" x="82.4" y="216.72" style="stroke: #000000; stroke-width: 0.8"/>
      </g>
     </g>
     <g id="text_2">
      <!-- −1.5 -->
      <g transform="translate(51.117187 220.519219) scale(0.1 -0.1)">
       <defs>
        <path id="DejaVuSans-31" d="M 794 531 
L 1825 531 
L 1825 4091 
L 703 3866 
L 703 4441 
L 1819 4666 
L 2450 4666 
L 2450 531 
L 3481 531 
L 3481 0 
L 794 0 
L 794 531 
z
" transform="scale(0.015625)"/>
        <path id="DejaVuSans-35" d="M 691 4666 
L 3169 4666 
L 3169 4134 
L 1269 4134 
L 1269 2991 
Q 1406 3038 1543 3061 
Q 1681 3084 1819 3084 
Q 2600 3084 3056 2656 
Q 3513 2228 3513 1497 
Q 3513 744 3044 326 
Q 2575 -91 1722 -91 
Q 1428 -91 1123 -41 
Q 819 9 494 109 
L 494 744 
Q 775 591 1075 516 
Q 1375 441 1709 441 
Q 2250 441 2565 725 
Q 2881 1009 2881 1497 
Q 2881 1984 2565 2268 
Q 2250 2553 1709 2553 
Q 1456 2553 1204 2497 
Q 953 2441 691 2322 
L 691 4666 
z
" transform="scale(0.015625)"/>
       </defs>
       <use xlink:href="#DejaVuSans-2212"/>
       <use xlink:href="#DejaVuSans-31" x="83.789062"/>
       <use xlink:href="#DejaVuSans-2e" x="147.412109"/>
       <use xlink:href="#DejaVuSans-35" x="179.199219"/>
      </g>
     </g>
    </g>
    <g id="ytick_3">
     <g id="line2d_9">
      <g>
       <use xlink:href="#m99852aef2d" x="82.4" y="191.52" style="stroke: #000000; stroke-width: 0.8"/>
      </g>
     </g>
     <g id="text_3">
      <!-- −1.0 -->
      <g transform="translate(51.117187 195.319219) scale(0.1 -0.1)">
       <use xlink:href="#DejaVuSans-2212"/>
       <use xlink:href="#DejaVuSans-31" x="83.789062"/>
       <use xlink:href="#DejaVuSans-2e" x="147.412109"/>
       <use xlink:href="#DejaVuSans-30" x="179.199219"/>
      </g>
     </g>
    </g>
    <g id="ytick_4">
     <g id="line2d_10">
      <g>
       <use xlink:href="#m99852aef2d" x="82.4" y="166.32" style="stroke: #000000; stroke-width: 0.8"/>
      </g>
     </g>
     <g id="text_4">
      <!-- −0.5 -->
      <g transform="translate(51.117187 170.119219) scale(0.1 -0.1)">
       <use xlink:href="#DejaVuSans-2212"/>
       <use xlink:href="#DejaVuSans-30" x="83.789062"/>
       <use xlink:href="#DejaVuSans-2e" x="147.412109"/>
       <use xlink:href="#DejaVuSans-35" x="179.199219"/>
      </g>
     </g>
    </g>
    <g id="ytick_5">
     <g id="line2d_11">
      <g>
       <use xlink:href="#m99852aef2d" x="82.4" y="141.12" style="stroke: #000000; stroke-width: 0.8"/>
      </g>
     </g>
     <g id="text_5">
      <!-- 0.0 -->
      <g transform="translate(59.496875 144.919219) scale(0.1 -0.1)">
       <use xlink:href="#DejaVuSans-30"/>
       <use xlink:href="#DejaVuSans-2e" x="63.623047"/>
       <use xlink:href="#DejaVuSans-30" x="95.410156"/>
      </g>
     </g>
    </g>
    <g id="ytick_6">
     <g id="line2d_12">
      <g>
       <use xlink:href="#m99852aef2d" x="82.4" y="115.92" style="stroke: #000000; stroke-width: 0.8"/>
      </g>
     </g>
     <g id="text_6">
      <!-- 0.5 -->
      <g transform="translate(59.496875 119.719219) scale(0.1 -0.1)">
       <use xlink:href="#DejaVuSans-30"/>
       <use xlink:href="#DejaVuSans-2e" x="63.623047"/>
       <use xlink:href="#DejaVuSans-35" x="95.410156"/>
      </g>
     </g>
    </g>
    <g id="ytick_7">
     <g id="line2d_13">
      <g>
       <use xlink:href="#m99852aef2d" x="82.4" y="90.72" style="stroke: #000000; stroke-width: 0.8"/>
      </g>
     </g>
     <g id="text_7">
      <!-- 1.0 -->
      <g transform="translate(59.496875 94.519219) scale(0.1 -0.1)">
       <use xlink:href="#DejaVuSans-31"/>
       <use xlink:href="#DejaVuSans-2e" x="63.623047"/>
       <use xlink:href="#DejaVuSans-30" x="95.410156"/>
      </g>
     </g>
    </g>
    <g id="ytick_8">
     <g id="line2d_14">
      <g>
       <use xlink:href="#m99852aef2d" x="82.4" y="65.52" style="stroke: #000000; stroke-width: 0.8"/>
      </g>
     </g>
     <g id="text_8">
      <!-- 1.5 -->
      <g transform="translate(59.496875 69.319219) scale(0.1 -0.1)">
       <use xlink:href="#DejaVuSans-31"/>
       <use xlink:href="#DejaVuSans-2e" x="63.623047"/>
       <use xlink:href="#DejaVuSans-35" x="95.410156"/>
      </g>
     </g>
    </g>
    <g id="ytick_9">
     <g id="line2d_15">
      <g>
       <use xlink:href="#m99852aef2d" x="82.4" y="40.32" style="stroke: #000000; stroke-width: 0.8"/>
      </g>
     </g>
     <g id="text_9">
      <!-- 2.0 -->
      <g transform="translate(59.496875 44.119219) scale(0.1 -0.1)">
       <use xlink:href="#DejaVuSans-32"/>
       <use xlink:href="#DejaVuSans-2e" x="63.623047"/>
       <use xlink:href="#DejaVuSans-30" x="95.410156"/>
      </g>
     </g>
    </g>
    <g id="text_10">
     <!-- BOLD % change -->
     <g transform="translate(45.453437 173.31625) rotate(-90) scale(0.08 -0.08)">
      <defs>
       <path id="DejaVuSans-42" d="M 1259 2228 
L 1259 519 
L 2272 519 
Q 2781 519 3026 730 
Q 3272 941 3272 1375 
Q 3272 1813 3026 2020 
Q 2781 2228 2272 2228 
L 1259 2228 
z
M 1259 4147 
L 1259 2741 
L 2194 2741 
Q 2656 2741 2882 2914 
Q 3109 3088 3109 3444 
Q 3109 3797 2882 3972 
Q 2656 4147 2194 4147 
L 1259 4147 
z
M 628 4666 
L 2241 4666 
Q 2963 4666 3353 4366 
Q 3744 4066 3744 3513 
Q 3744 3084 3544 2831 
Q 3344 2578 2956 2516 
Q 3422 2416 3680 2098 
Q 3938 1781 3938 1306 
Q 3938 681 3513 340 
Q 3088 0 2303 0 
L 628 0 
L 628 4666 
z
" transform="scale(0.015625)"/>
       <path id="DejaVuSans-4f" d="M 2522 4238 
Q 1834 4238 1429 3725 
Q 1025 3213 1025 2328 
Q 1025 1447 1429 934 
Q 1834 422 2522 422 
Q 3209 422 3611 934 
Q 4013 1447 4013 2328 
Q 4013 3213 3611 3725 
Q 3209 4238 2522 4238 
z
M 2522 4750 
Q 3503 4750 4090 4092 
Q 4678 3434 4678 2328 
Q 4678 1225 4090 567 
Q 3503 -91 2522 -91 
Q 1538 -91 948 565 
Q 359 1222 359 2328 
Q 359 3434 948 4092 
Q 1538 4750 2522 4750 
z
" transform="scale(0.015625)"/>
       <path id="DejaVuSans-4c" d="M 628 4666 
L 1259 4666 
L 1259 531 
L 3531 531 
L 3531 0 
L 628 0 
L 628 4666 
z
" transform="scale(0.015625)"/>
       <path id="DejaVuSans-44" d="M 1259 4147 
L 1259 519 
L 2022 519 
Q 2988 519 3436 956 
Q 3884 1394 3884 2338 
Q 3884 3275 3436 3711 
Q 2988 4147 2022 4147 
L 1259 4147 
z
M 628 4666 
L 1925 4666 
Q 3281 4666 3915 4102 
Q 4550 3538 4550 2338 
Q 4550 1131 3912 565 
Q 3275 0 1925 0 
L 628 0 
L 628 4666 
z
" transform="scale(0.015625)"/>
       <path id="DejaVuSans-20" transform="scale(0.015625)"/>
       <path id="DejaVuSans-25" d="M 4653 2053 
Q 4381 2053 4226 1822 
Q 4072 1591 4072 1178 
Q 4072 772 4226 539 
Q 4381 306 4653 306 
Q 4919 306 5073 539 
Q 5228 772 5228 1178 
Q 5228 1588 5073 1820 
Q 4919 2053 4653 2053 
z
M 4653 2450 
Q 5147 2450 5437 2106 
Q 5728 1763 5728 1178 
Q 5728 594 5436 251 
Q 5144 -91 4653 -91 
Q 4153 -91 3862 251 
Q 3572 594 3572 1178 
Q 3572 1766 3864 2108 
Q 4156 2450 4653 2450 
z
M 1428 4353 
Q 1159 4353 1004 4120 
Q 850 3888 850 3481 
Q 850 3069 1003 2837 
Q 1156 2606 1428 2606 
Q 1700 2606 1854 2837 
Q 2009 3069 2009 3481 
Q 2009 3884 1853 4118 
Q 1697 4353 1428 4353 
z
M 4250 4750 
L 4750 4750 
L 1831 -91 
L 1331 -91 
L 4250 4750 
z
M 1428 4750 
Q 1922 4750 2215 4408 
Q 2509 4066 2509 3481 
Q 2509 2891 2217 2550 
Q 1925 2209 1428 2209 
Q 931 2209 642 2551 
Q 353 2894 353 3481 
Q 353 4063 643 4406 
Q 934 4750 1428 4750 
z
" transform="scale(0.015625)"/>
       <path id="DejaVuSans-63" d="M 3122 3366 
L 3122 2828 
Q 2878 2963 2633 3030 
Q 2388 3097 2138 3097 
Q 1578 3097 1268 2742 
Q 959 2388 959 1747 
Q 959 1106 1268 751 
Q 1578 397 2138 397 
Q 2388 397 2633 464 
Q 2878 531 3122 666 
L 3122 134 
Q 2881 22 2623 -34 
Q 2366 -91 2075 -91 
Q 1284 -91 818 406 
Q 353 903 353 1747 
Q 353 2603 823 3093 
Q 1294 3584 2113 3584 
Q 2378 3584 2631 3529 
Q 2884 3475 3122 3366 
z
" transform="scale(0.015625)"/>
       <path id="DejaVuSans-68" d="M 3513 2113 
L 3513 0 
L 2938 0 
L 2938 2094 
Q 2938 2591 2744 2837 
Q 2550 3084 2163 3084 
Q 1697 3084 1428 2787 
Q 1159 2491 1159 1978 
L 1159 0 
L 581 0 
L 581 4863 
L 1159 4863 
L 1159 2956 
Q 1366 3272 1645 3428 
Q 1925 3584 2291 3584 
Q 2894 3584 3203 3211 
Q 3513 2838 3513 2113 
z
" transform="scale(0.015625)"/>
       <path id="DejaVuSans-61" d="M 2194 1759 
Q 1497 1759 1228 1600 
Q 959 1441 959 1056 
Q 959 750 1161 570 
Q 1363 391 1709 391 
Q 2188 391 2477 730 
Q 2766 1069 2766 1631 
L 2766 1759 
L 2194 1759 
z
M 3341 1997 
L 3341 0 
L 2766 0 
L 2766 531 
Q 2569 213 2275 61 
Q 1981 -91 1556 -91 
Q 1019 -91 701 211 
Q 384 513 384 1019 
Q 384 1609 779 1909 
Q 1175 2209 1959 2209 
L 2766 2209 
L 2766 2266 
Q 2766 2663 2505 2880 
Q 2244 3097 1772 3097 
Q 1472 3097 1187 3025 
Q 903 2953 641 2809 
L 641 3341 
Q 956 3463 1253 3523 
Q 1550 3584 1831 3584 
Q 2591 3584 2966 3190 
Q 3341 2797 3341 1997 
z
" transform="scale(0.015625)"/>
       <path id="DejaVuSans-6e" d="M 3513 2113 
L 3513 0 
L 2938 0 
L 2938 2094 
Q 2938 2591 2744 2837 
Q 2550 3084 2163 3084 
Q 1697 3084 1428 2787 
Q 1159 2491 1159 1978 
L 1159 0 
L 581 0 
L 581 3500 
L 1159 3500 
L 1159 2956 
Q 1366 3272 1645 3428 
Q 1925 3584 2291 3584 
Q 2894 3584 3203 3211 
Q 3513 2838 3513 2113 
z
" transform="scale(0.015625)"/>
       <path id="DejaVuSans-67" d="M 2906 1791 
Q 2906 2416 2648 2759 
Q 2391 3103 1925 3103 
Q 1463 3103 1205 2759 
Q 947 2416 947 1791 
Q 947 1169 1205 825 
Q 1463 481 1925 481 
Q 2391 481 2648 825 
Q 2906 1169 2906 1791 
z
M 3481 434 
Q 3481 -459 3084 -895 
Q 2688 -1331 1869 -1331 
Q 1566 -1331 1297 -1286 
Q 1028 -1241 775 -1147 
L 775 -588 
Q 1028 -725 1275 -790 
Q 1522 -856 1778 -856 
Q 2344 -856 2625 -561 
Q 2906 -266 2906 331 
L 2906 616 
Q 2728 306 2450 153 
Q 2172 0 1784 0 
Q 1141 0 747 490 
Q 353 981 353 1791 
Q 353 2603 747 3093 
Q 1141 3584 1784 3584 
Q 2172 3584 2450 3431 
Q 2728 3278 2906 2969 
L 2906 3500 
L 3481 3500 
L 3481 434 
z
" transform="scale(0.015625)"/>
       <path id="DejaVuSans-65" d="M 3597 1894 
L 3597 1613 
L 953 1613 
Q 991 1019 1311 708 
Q 1631 397 2203 397 
Q 2534 397 2845 478 
Q 3156 559 3463 722 
L 3463 178 
Q 3153 47 2828 -22 
Q 2503 -91 2169 -91 
Q 1331 -91 842 396 
Q 353 884 353 1716 
Q 353 2575 817 3079 
Q 1281 3584 2069 3584 
Q 2775 3584 3186 3129 
Q 3597 2675 3597 1894 
z
M 3022 2063 
Q 3016 2534 2758 2815 
Q 2500 3097 2075 3097 
Q 1594 3097 1305 2825 
Q 1016 2553 972 2059 
L 3022 2063 
z
" transform="scale(0.015625)"/>
      </defs>
      <use xlink:href="#DejaVuSans-42"/>
      <use xlink:href="#DejaVuSans-4f" x="66.853516"/>
      <use xlink:href="#DejaVuSans-4c" x="145.564453"/>
      <use xlink:href="#DejaVuSans-44" x="201.277344"/>
      <use xlink:href="#DejaVuSans-20" x="278.279297"/>
      <use xlink:href="#DejaVuSans-25" x="310.066406"/>
      <use xlink:href="#DejaVuSans-20" x="405.085938"/>
      <use xlink:href="#DejaVuSans-63" x="436.873047"/>
      <use xlink:href="#DejaVuSans-68" x="491.853516"/>
      <use xlink:href="#DejaVuSans-61" x="555.232422"/>
      <use xlink:href="#DejaVuSans-6e" x="616.511719"/>
      <use xlink:href="#DejaVuSans-67" x="679.890625"/>
      <use xlink:href="#DejaVuSans-65" x="743.367188"/>
     </g>
    </g>
   </g>
   <g id="line2d_16">
    <path d="M 86.4 127.341897 
L 94.628571 128.843325 
L 102.857143 129.37873 
L 111.085714 127.398196 
L 119.314286 128.226054 
L 127.542857 131.384409 
L 135.771429 134.465359 
L 144 134.744622 
L 152.228571 132.008458 
L 160.457143 129.496773 
L 168.685714 128.087422 
L 176.914286 129.201313 
L 185.142857 131.744444 
L 193.371429 133.069886 
L 201.6 133.67606 
L 209.828571 133.324859 
L 218.057143 133.476172 
L 226.285714 131.381052 
L 234.514286 129.482684 
L 242.742857 129.228517 
L 250.971429 127.627982 
L 259.2 126.317385 
L 267.428571 124.889794 
L 275.657143 125.778 
L 283.885714 128.426612 
L 292.114286 131.374982 
L 300.342857 133.265291 
L 308.571429 137.049833 
L 316.8 139.605537 
L 325.028571 141.669084 
L 333.257143 142.943372 
L 341.485714 144.194401 
L 349.714286 146.417983 
L 357.942857 147.872498 
L 366.171429 149.729426 
L 374.4 150.439841 
L 382.628571 150.611241 
L 390.857143 150.082161 
L 399.085714 147.647094 
L 407.314286 146.193944 
L 415.542857 146.063795 
L 423.771429 145.448839 
L 432 145.181858 
L 440.228571 146.881384 
L 448.457143 147.229053 
L 456.685714 149.273345 
L 464.914286 151.699883 
L 473.142857 151.906666 
L 481.371429 152.412929 
L 489.6 154.834698 
" clip-path="url(#p913df4263d)" style="fill: none; stroke: #ff00ff; stroke-width: 1.5; stroke-linecap: square"/>
   </g>
   <g id="line2d_17">
    <path d="M 86.4 188.499428 
L 94.628571 187.327675 
L 102.857143 182.678916 
L 111.085714 178.137843 
L 119.314286 182.512204 
L 127.542857 181.953042 
L 135.771429 178.236352 
L 144 180.74995 
L 152.228571 174.082276 
L 160.457143 168.71321 
L 168.685714 162.962094 
L 176.914286 159.704584 
L 185.142857 156.127889 
L 193.371429 148.854866 
L 201.6 151.289667 
L 209.828571 153.022244 
L 218.057143 153.273514 
L 226.285714 152.005101 
L 234.514286 149.789842 
L 242.742857 149.571365 
L 250.971429 147.098751 
L 259.2 145.249554 
L 267.428571 142.16604 
L 275.657143 143.762437 
L 283.885714 146.840947 
L 292.114286 149.655751 
L 300.342857 152.709943 
L 308.571429 166.749177 
L 316.8 172.33587 
L 325.028571 167.414711 
L 333.257143 164.2302 
L 341.485714 159.822125 
L 349.714286 153.993879 
L 357.942857 152.291055 
L 366.171429 155.572476 
L 374.4 161.422395 
L 382.628571 161.361281 
L 390.857143 155.475398 
L 399.085714 147.278308 
L 407.314286 147.728213 
L 415.542857 155.448582 
L 423.771429 166.577455 
L 432 169.108523 
L 440.228571 173.08698 
L 448.457143 179.509014 
L 456.685714 193.553657 
L 464.914286 207.157468 
L 473.142857 217.774356 
L 481.371429 225.404312 
L 489.6 227.628206 
" clip-path="url(#p913df4263d)" style="fill: none; stroke: #ff00ff; stroke-opacity: 0.2; stroke-width: 1.5; stroke-linecap: square"/>
   </g>
   <g id="line2d_18">
    <path d="M 86.4 180.681476 
L 94.628571 180.681476 
L 102.857143 182.46392 
L 111.085714 185.743218 
L 119.314286 187.989897 
L 127.542857 189.362511 
L 135.771429 192.20318 
L 144 193.392635 
L 152.228571 190.818024 
L 160.457143 187.509891 
L 168.685714 177.211102 
L 176.914286 172.874729 
L 185.142857 171.180234 
L 193.371429 165.609422 
L 201.6 162.292806 
L 209.828571 159.302075 
L 218.057143 155.729358 
L 226.285714 152.815298 
L 234.514286 146.918285 
L 242.742857 141.829524 
L 250.971429 138.353094 
L 259.2 131.443736 
L 267.428571 128.976312 
L 275.657143 129.487747 
L 283.885714 133.377141 
L 292.114286 139.049945 
L 300.342857 139.800214 
L 308.571429 138.611676 
L 316.8 137.631155 
L 325.028571 140.641327 
L 333.257143 144.456795 
L 341.485714 152.07034 
L 349.714286 155.979004 
L 357.942857 155.608902 
L 366.171429 153.850076 
L 374.4 151.585582 
L 382.628571 151.349533 
L 390.857143 152.786037 
L 399.085714 154.271815 
L 407.314286 152.785265 
L 415.542857 153.014332 
L 423.771429 157.998666 
L 432 162.518427 
L 440.228571 164.472495 
L 448.457143 164.348196 
L 456.685714 164.525955 
L 464.914286 162.666658 
L 473.142857 161.850991 
L 481.371429 160.934215 
L 489.6 160.580956 
" clip-path="url(#p913df4263d)" style="fill: none; stroke: #ff00ff; stroke-opacity: 0.2; stroke-width: 1.5; stroke-linecap: square"/>
   </g>
   <g id="line2d_19">
    <path d="M 86.4 68.609766 
L 94.628571 70.328482 
L 102.857143 74.123674 
L 111.085714 78.378224 
L 119.314286 82.801827 
L 127.542857 84.587952 
L 135.771429 90.156175 
L 144 101.136655 
L 152.228571 109.210613 
L 160.457143 116.614881 
L 168.685714 124.753759 
L 176.914286 132.840684 
L 185.142857 137.286017 
L 193.371429 139.233447 
L 201.6 141.198269 
L 209.828571 141.061639 
L 218.057143 140.417438 
L 226.285714 139.989885 
L 234.514286 143.25622 
L 242.742857 149.607162 
L 250.971429 151.953364 
L 259.2 153.647375 
L 267.428571 153.168976 
L 275.657143 154.379968 
L 283.885714 157.190335 
L 292.114286 161.922706 
L 300.342857 167.717497 
L 308.571429 166.270058 
L 316.8 162.467022 
L 325.028571 158.526328 
L 333.257143 155.429474 
L 341.485714 164.411447 
L 349.714286 174.613073 
L 357.942857 177.133692 
L 366.171429 176.079346 
L 374.4 176.064425 
L 382.628571 171.996896 
L 390.857143 164.70741 
L 399.085714 153.515352 
L 407.314286 146.726181 
L 415.542857 142.512294 
L 423.771429 142.740438 
L 432 136.766509 
L 440.228571 133.676108 
L 448.457143 134.321211 
L 456.685714 133.622933 
L 464.914286 125.771636 
L 473.142857 105.710746 
L 481.371429 82.536325 
L 489.6 72.53317 
" clip-path="url(#p913df4263d)" style="fill: none; stroke: #ff00ff; stroke-opacity: 0.2; stroke-width: 1.5; stroke-linecap: square"/>
   </g>
   <g id="line2d_20">
    <path d="M 86.4 137.900112 
L 94.628571 137.900112 
L 102.857143 136.479984 
L 111.085714 133.592812 
L 119.314286 132.984909 
L 127.542857 130.197559 
L 135.771429 120.003432 
L 144 116.606709 
L 152.228571 118.265216 
L 160.457143 122.087562 
L 168.685714 129.607242 
L 176.914286 134.782006 
L 185.142857 138.634671 
L 193.371429 142.917665 
L 201.6 148.731624 
L 209.828571 148.754785 
L 218.057143 147.855827 
L 226.285714 147.867485 
L 234.514286 150.719376 
L 242.742857 154.199257 
L 250.971429 155.746497 
L 259.2 157.33921 
L 267.428571 158.208236 
L 275.657143 157.979518 
L 283.885714 161.549652 
L 292.114286 163.0656 
L 300.342857 164.516334 
L 308.571429 162.779215 
L 316.8 160.916904 
L 325.028571 158.485613 
L 333.257143 155.123357 
L 341.485714 153.931471 
L 349.714286 154.680649 
L 357.942857 160.971181 
L 366.171429 164.430093 
L 374.4 166.979111 
L 382.628571 167.671124 
L 390.857143 169.30282 
L 399.085714 173.038416 
L 407.314286 175.53478 
L 415.542857 177.387383 
L 423.771429 176.369116 
L 432 174.432042 
L 440.228571 176.472111 
L 448.457143 177.022393 
L 456.685714 177.433077 
L 464.914286 180.977437 
L 473.142857 185.219307 
L 481.371429 189.085111 
L 489.6 193.546031 
" clip-path="url(#p913df4263d)" style="fill: none; stroke: #ff00ff; stroke-opacity: 0.2; stroke-width: 1.5; stroke-linecap: square"/>
   </g>
   <g id="line2d_21">
    <path d="M 86.4 135.3262 
L 94.628571 133.803678 
L 102.857143 124.578826 
L 111.085714 112.553247 
L 119.314286 103.895343 
L 127.542857 119.960958 
L 135.771429 129.637602 
L 144 122.593199 
L 152.228571 107.055606 
L 160.457143 100.470862 
L 168.685714 96.194258 
L 176.914286 100.313748 
L 185.142857 114.703304 
L 193.371429 127.305663 
L 201.6 126.491885 
L 209.828571 126.36602 
L 218.057143 126.613229 
L 226.285714 124.835079 
L 234.514286 122.251507 
L 242.742857 123.698348 
L 250.971429 131.450154 
L 259.2 140.614549 
L 267.428571 147.244472 
L 275.657143 151.549512 
L 283.885714 154.662316 
L 292.114286 160.860571 
L 300.342857 160.624119 
L 308.571429 162.995973 
L 316.8 165.2758 
L 325.028571 164.325592 
L 333.257143 167.274515 
L 341.485714 166.335236 
L 349.714286 165.020208 
L 357.942857 169.894364 
L 366.171429 179.118094 
L 374.4 182.632617 
L 382.628571 183.691348 
L 390.857143 178.162253 
L 399.085714 170.574398 
L 407.314286 162.242041 
L 415.542857 158.865397 
L 423.771429 158.911121 
L 432 166.861419 
L 440.228571 177.068894 
L 448.457143 180.115039 
L 456.685714 185.186768 
L 464.914286 195.827543 
L 473.142857 203.876763 
L 481.371429 211.546271 
L 489.6 216.566989 
" clip-path="url(#p913df4263d)" style="fill: none; stroke: #ff00ff; stroke-opacity: 0.2; stroke-width: 1.5; stroke-linecap: square"/>
   </g>
   <g id="line2d_22">
    <path d="M 86.4 132.198041 
L 94.628571 138.57901 
L 102.857143 149.032438 
L 111.085714 153.725966 
L 119.314286 148.001128 
L 127.542857 156.517749 
L 135.771429 169.762405 
L 144 181.003523 
L 152.228571 181.602447 
L 160.457143 178.246938 
L 168.685714 185.608053 
L 176.914286 180.475821 
L 185.142857 173.367772 
L 193.371429 163.51354 
L 201.6 148.727677 
L 209.828571 144.326108 
L 218.057143 144.400638 
L 226.285714 139.241228 
L 234.514286 131.863952 
L 242.742857 124.960797 
L 250.971429 122.112401 
L 259.2 116.487428 
L 267.428571 109.153599 
L 275.657143 103.381373 
L 283.885714 98.423351 
L 292.114286 94.15802 
L 300.342857 93.709852 
L 308.571429 98.947202 
L 316.8 98.102556 
L 325.028571 98.62137 
L 333.257143 102.970087 
L 341.485714 104.635613 
L 349.714286 111.070934 
L 357.942857 110.309334 
L 366.171429 110.646432 
L 374.4 107.46487 
L 382.628571 104.330357 
L 390.857143 110.285092 
L 399.085714 110.839887 
L 407.314286 115.587881 
L 415.542857 116.131175 
L 423.771429 112.669658 
L 432 113.252442 
L 440.228571 116.146539 
L 448.457143 116.419933 
L 456.685714 111.874927 
L 464.914286 105.456185 
L 473.142857 102.112548 
L 481.371429 97.534489 
L 489.6 96.663215 
" clip-path="url(#p913df4263d)" style="fill: none; stroke: #ff00ff; stroke-opacity: 0.2; stroke-width: 1.5; stroke-linecap: square"/>
   </g>
   <g id="line2d_23">
    <path d="M 86.4 105.966438 
L 94.628571 105.349872 
L 102.857143 111.661696 
L 111.085714 117.466774 
L 119.314286 124.52874 
L 127.542857 126.403796 
L 135.771429 124.916218 
L 144 119.706543 
L 152.228571 120.092198 
L 160.457143 117.951214 
L 168.685714 116.163472 
L 176.914286 122.04302 
L 185.142857 131.988203 
L 193.371429 139.389125 
L 201.6 142.069894 
L 209.828571 138.105921 
L 218.057143 130.468749 
L 226.285714 122.891899 
L 234.514286 112.869927 
L 242.742857 108.068462 
L 250.971429 106.53716 
L 259.2 107.021636 
L 267.428571 107.155746 
L 275.657143 112.618244 
L 283.885714 117.930628 
L 292.114286 116.558176 
L 300.342857 116.329334 
L 308.571429 118.386933 
L 316.8 121.737595 
L 325.028571 124.000562 
L 333.257143 125.721632 
L 341.485714 127.233573 
L 349.714286 130.842047 
L 357.942857 136.994622 
L 366.171429 141.826614 
L 374.4 141.82011 
L 382.628571 144.184378 
L 390.857143 145.833263 
L 399.085714 137.040117 
L 407.314286 121.533044 
L 415.542857 109.237751 
L 423.771429 99.244858 
L 432 93.884337 
L 440.228571 89.729122 
L 448.457143 90.808258 
L 456.685714 95.739381 
L 464.914286 101.870914 
L 473.142857 108.935954 
L 481.371429 113.890708 
L 489.6 117.233197 
" clip-path="url(#p913df4263d)" style="fill: none; stroke: #ff00ff; stroke-opacity: 0.2; stroke-width: 1.5; stroke-linecap: square"/>
   </g>
   <g id="line2d_24">
    <path d="M 86.4 96.16286 
L 94.628571 94.486914 
L 102.857143 94.255541 
L 111.085714 102.218379 
L 119.314286 110.356257 
L 127.542857 118.114673 
L 135.771429 130.475042 
L 144 131.085688 
L 152.228571 129.743592 
L 160.457143 126.403408 
L 168.685714 124.057284 
L 176.914286 118.242869 
L 185.142857 113.861084 
L 193.371429 112.872026 
L 201.6 112.961345 
L 209.828571 113.773541 
L 218.057143 116.050261 
L 226.285714 114.431161 
L 234.514286 112.239161 
L 242.742857 115.036394 
L 250.971429 117.319216 
L 259.2 116.885492 
L 267.428571 116.372592 
L 275.657143 118.992855 
L 283.885714 119.184038 
L 292.114286 121.015991 
L 300.342857 119.522629 
L 308.571429 117.322562 
L 316.8 118.327967 
L 325.028571 122.845529 
L 333.257143 126.1013 
L 341.485714 127.798614 
L 349.714286 130.889944 
L 357.942857 130.346635 
L 366.171429 135.750855 
L 374.4 142.99609 
L 382.628571 145.25954 
L 390.857143 148.944793 
L 399.085714 150.410431 
L 407.314286 150.735087 
L 415.542857 150.275267 
L 423.771429 147.425164 
L 432 146.294803 
L 440.228571 147.152258 
L 448.457143 146.354052 
L 456.685714 146.11834 
L 464.914286 147.819562 
L 473.142857 150.524776 
L 481.371429 154.059499 
L 489.6 154.700538 
" clip-path="url(#p913df4263d)" style="fill: none; stroke: #ff00ff; stroke-opacity: 0.2; stroke-width: 1.5; stroke-linecap: square"/>
   </g>
   <g id="line2d_25">
    <path d="M 86.4 131.535469 
L 94.628571 131.378654 
L 102.857143 135.499494 
L 111.085714 137.477062 
L 119.314286 142.23334 
L 127.542857 147.622331 
L 135.771429 151.581208 
L 144 148.281132 
L 152.228571 143.093173 
L 160.457143 141.192236 
L 168.685714 140.592911 
L 176.914286 140.31614 
L 185.142857 143.350134 
L 193.371429 144.48848 
L 201.6 147.820067 
L 209.828571 145.890982 
L 218.057143 145.951071 
L 226.285714 144.808008 
L 234.514286 146.376481 
L 242.742857 149.509385 
L 250.971429 153.453239 
L 259.2 154.882341 
L 267.428571 154.313935 
L 275.657143 150.827249 
L 283.885714 149.228731 
L 292.114286 149.523576 
L 300.342857 148.321957 
L 308.571429 151.85673 
L 316.8 152.316357 
L 325.028571 151.634778 
L 333.257143 150.384669 
L 341.485714 150.075613 
L 349.714286 152.431865 
L 357.942857 155.362624 
L 366.171429 157.014833 
L 374.4 160.223551 
L 382.628571 162.235525 
L 390.857143 167.810012 
L 399.085714 170.621458 
L 407.314286 169.808581 
L 415.542857 170.826992 
L 423.771429 174.793965 
L 432 173.098645 
L 440.228571 175.724506 
L 448.457143 182.265972 
L 456.685714 189.715439 
L 464.914286 194.03149 
L 473.142857 191.693052 
L 481.371429 191.542636 
L 489.6 193.180262 
" clip-path="url(#p913df4263d)" style="fill: none; stroke: #ff00ff; stroke-opacity: 0.2; stroke-width: 1.5; stroke-linecap: square"/>
   </g>
   <g id="line2d_26">
    <path d="M 86.4 39.976316 
L 94.628571 54.146138 
L 102.857143 57.873028 
L 111.085714 37.406443 
L 119.314286 29.887603 
L 127.542857 28.277082 
L 135.771429 26.050882 
L 144 17.782142 
L 152.228571 3.658428 
L 155.498679 -1 
M 194.364175 -1 
L 201.6 12.889597 
L 209.828571 27.620536 
L 218.057143 42.006505 
L 226.285714 48.286939 
L 234.514286 52.113641 
L 242.742857 53.05658 
L 250.971429 35.89614 
L 259.2 24.081689 
L 267.428571 15.439253 
L 275.657143 18.239851 
L 283.885714 23.499641 
L 292.114286 31.39061 
L 300.342857 37.997776 
L 308.571429 49.413777 
L 316.8 60.527838 
L 325.028571 78.915034 
L 333.257143 79.890948 
L 341.485714 72.603379 
L 349.714286 65.653901 
L 357.942857 56.558502 
L 366.171429 46.949233 
L 374.4 33.481594 
L 382.628571 35.18197 
L 390.857143 26.72406 
L 399.085714 27.126519 
L 407.314286 36.347545 
L 415.542857 45.778976 
L 423.771429 41.177752 
L 432 39.514241 
L 440.228571 36.845803 
L 448.457143 22.398328 
L 456.685714 22.243273 
L 464.914286 25.59708 
L 473.142857 19.426726 
L 481.371429 22.134042 
L 489.6 35.348693 
" clip-path="url(#p913df4263d)" style="fill: none; stroke: #ff00ff; stroke-opacity: 0.2; stroke-width: 1.5; stroke-linecap: square"/>
   </g>
   <g id="line2d_27">
    <path d="M 86.4 183.904757 
L 94.628571 183.294567 
L 102.857143 174.518516 
L 111.085714 164.680193 
L 119.314286 165.295346 
L 127.542857 162.230844 
L 135.771429 166.096449 
L 144 169.852668 
L 152.228571 174.471463 
L 160.457143 173.337872 
L 168.685714 174.849862 
L 176.914286 179.304833 
L 185.142857 177.308322 
L 193.371429 182.490144 
L 201.6 175.963824 
L 209.828571 168.349599 
L 218.057143 165.471302 
L 226.285714 158.019493 
L 234.514286 155.91113 
L 242.742857 151.976415 
L 250.971429 143.987785 
L 259.2 141.838226 
L 267.428571 141.588579 
L 275.657143 142.339245 
L 283.885714 150.805948 
L 292.114286 157.923856 
L 300.342857 164.66855 
L 308.571429 174.214864 
L 316.8 186.021842 
L 325.028571 192.949081 
L 333.257143 200.794116 
L 341.485714 207.220995 
L 349.714286 215.422307 
L 357.942857 221.126571 
L 366.171429 225.785635 
L 374.4 230.167909 
L 382.628571 229.461703 
L 390.857143 230.872628 
L 399.085714 229.401333 
L 407.314286 229.104769 
L 415.542857 227.2236 
L 423.771429 222.029034 
L 432 221.269051 
L 440.228571 225.320407 
L 448.457143 225.957188 
L 456.685714 221.993044 
L 464.914286 221.52274 
L 473.142857 223.848107 
L 481.371429 227.874611 
L 489.6 235.20042 
" clip-path="url(#p913df4263d)" style="fill: none; stroke: #ff00ff; stroke-opacity: 0.2; stroke-width: 1.5; stroke-linecap: square"/>
   </g>
   <g id="line2d_28">
    <path d="M 167.04 241.92 
L 167.04 40.32 
" clip-path="url(#p913df4263d)" style="fill: none; stroke-dasharray: 5.55,2.4; stroke-dashoffset: 0; stroke: #000000; stroke-width: 1.5"/>
   </g>
   <g id="line2d_29">
    <path d="M 86.4 141.12 
L 489.6 141.12 
" clip-path="url(#p913df4263d)" style="fill: none; stroke-dasharray: 5.55,2.4; stroke-dashoffset: 0; stroke: #000000; stroke-width: 1.5"/>
   </g>
   <g id="patch_3">
    <path d="M 82.4 241.92 
L 82.4 40.32 
" style="fill: none; stroke: #000000; stroke-width: 0.8; stroke-linejoin: miter; stroke-linecap: square"/>
   </g>
   <g id="patch_4">
    <path d="M 86.4 245.92 
L 489.6 245.92 
" style="fill: none; stroke: #000000; stroke-width: 0.8; stroke-linejoin: miter; stroke-linecap: square"/>
   </g>
   <g id="text_11">
    <!-- all depths -->
    <g transform="translate(268.328125 34.32) scale(0.08 -0.08)">
     <defs>
      <path id="DejaVuSans-6c" d="M 603 4863 
L 1178 4863 
L 1178 0 
L 603 0 
L 603 4863 
z
" transform="scale(0.015625)"/>
      <path id="DejaVuSans-64" d="M 2906 2969 
L 2906 4863 
L 3481 4863 
L 3481 0 
L 2906 0 
L 2906 525 
Q 2725 213 2448 61 
Q 2172 -91 1784 -91 
Q 1150 -91 751 415 
Q 353 922 353 1747 
Q 353 2572 751 3078 
Q 1150 3584 1784 3584 
Q 2172 3584 2448 3432 
Q 2725 3281 2906 2969 
z
M 947 1747 
Q 947 1113 1208 752 
Q 1469 391 1925 391 
Q 2381 391 2643 752 
Q 2906 1113 2906 1747 
Q 2906 2381 2643 2742 
Q 2381 3103 1925 3103 
Q 1469 3103 1208 2742 
Q 947 2381 947 1747 
z
" transform="scale(0.015625)"/>
      <path id="DejaVuSans-70" d="M 1159 525 
L 1159 -1331 
L 581 -1331 
L 581 3500 
L 1159 3500 
L 1159 2969 
Q 1341 3281 1617 3432 
Q 1894 3584 2278 3584 
Q 2916 3584 3314 3078 
Q 3713 2572 3713 1747 
Q 3713 922 3314 415 
Q 2916 -91 2278 -91 
Q 1894 -91 1617 61 
Q 1341 213 1159 525 
z
M 3116 1747 
Q 3116 2381 2855 2742 
Q 2594 3103 2138 3103 
Q 1681 3103 1420 2742 
Q 1159 2381 1159 1747 
Q 1159 1113 1420 752 
Q 1681 391 2138 391 
Q 2594 391 2855 752 
Q 3116 1113 3116 1747 
z
" transform="scale(0.015625)"/>
      <path id="DejaVuSans-74" d="M 1172 4494 
L 1172 3500 
L 2356 3500 
L 2356 3053 
L 1172 3053 
L 1172 1153 
Q 1172 725 1289 603 
Q 1406 481 1766 481 
L 2356 481 
L 2356 0 
L 1766 0 
Q 1100 0 847 248 
Q 594 497 594 1153 
L 594 3053 
L 172 3053 
L 172 3500 
L 594 3500 
L 594 4494 
L 1172 4494 
z
" transform="scale(0.015625)"/>
      <path id="DejaVuSans-73" d="M 2834 3397 
L 2834 2853 
Q 2591 2978 2328 3040 
Q 2066 3103 1784 3103 
Q 1356 3103 1142 2972 
Q 928 2841 928 2578 
Q 928 2378 1081 2264 
Q 1234 2150 1697 2047 
L 1894 2003 
Q 2506 1872 2764 1633 
Q 3022 1394 3022 966 
Q 3022 478 2636 193 
Q 2250 -91 1575 -91 
Q 1294 -91 989 -36 
Q 684 19 347 128 
L 347 722 
Q 666 556 975 473 
Q 1284 391 1588 391 
Q 1994 391 2212 530 
Q 2431 669 2431 922 
Q 2431 1156 2273 1281 
Q 2116 1406 1581 1522 
L 1381 1569 
Q 847 1681 609 1914 
Q 372 2147 372 2553 
Q 372 3047 722 3315 
Q 1072 3584 1716 3584 
Q 2034 3584 2315 3537 
Q 2597 3491 2834 3397 
z
" transform="scale(0.015625)"/>
     </defs>
     <use xlink:href="#DejaVuSans-61"/>
     <use xlink:href="#DejaVuSans-6c" x="61.279297"/>
     <use xlink:href="#DejaVuSans-6c" x="89.0625"/>
     <use xlink:href="#DejaVuSans-20" x="116.845703"/>
     <use xlink:href="#DejaVuSans-64" x="148.632812"/>
     <use xlink:href="#DejaVuSans-65" x="212.109375"/>
     <use xlink:href="#DejaVuSans-70" x="273.632812"/>
     <use xlink:href="#DejaVuSans-74" x="337.109375"/>
     <use xlink:href="#DejaVuSans-68" x="376.318359"/>
     <use xlink:href="#DejaVuSans-73" x="439.697266"/>
    </g>
   </g>
   <g id="legend_1">
    <g id="patch_5">
     <path d="M 93.4 236.92 
L 246.210938 236.92 
Q 248.210938 236.92 248.210938 234.92 
L 248.210938 220.96375 
Q 248.210938 218.96375 246.210938 218.96375 
L 93.4 218.96375 
Q 91.4 218.96375 91.4 220.96375 
L 91.4 234.92 
Q 91.4 236.92 93.4 236.92 
z
" style="fill: #ffffff; opacity: 0.8; stroke: #cccccc; stroke-linejoin: miter"/>
    </g>
    <g id="line2d_30">
     <path d="M 95.4 227.062187 
L 105.4 227.062187 
L 115.4 227.062187 
" style="fill: none; stroke: #ff00ff; stroke-width: 1.5; stroke-linecap: square"/>
    </g>
    <g id="text_12">
     <!-- fgm_gPPI_superficial_V1 -->
     <g transform="translate(123.4 230.562187) scale(0.1 -0.1)">
      <defs>
       <path id="DejaVuSans-66" d="M 2375 4863 
L 2375 4384 
L 1825 4384 
Q 1516 4384 1395 4259 
Q 1275 4134 1275 3809 
L 1275 3500 
L 2222 3500 
L 2222 3053 
L 1275 3053 
L 1275 0 
L 697 0 
L 697 3053 
L 147 3053 
L 147 3500 
L 697 3500 
L 697 3744 
Q 697 4328 969 4595 
Q 1241 4863 1831 4863 
L 2375 4863 
z
" transform="scale(0.015625)"/>
       <path id="DejaVuSans-6d" d="M 3328 2828 
Q 3544 3216 3844 3400 
Q 4144 3584 4550 3584 
Q 5097 3584 5394 3201 
Q 5691 2819 5691 2113 
L 5691 0 
L 5113 0 
L 5113 2094 
Q 5113 2597 4934 2840 
Q 4756 3084 4391 3084 
Q 3944 3084 3684 2787 
Q 3425 2491 3425 1978 
L 3425 0 
L 2847 0 
L 2847 2094 
Q 2847 2600 2669 2842 
Q 2491 3084 2119 3084 
Q 1678 3084 1418 2786 
Q 1159 2488 1159 1978 
L 1159 0 
L 581 0 
L 581 3500 
L 1159 3500 
L 1159 2956 
Q 1356 3278 1631 3431 
Q 1906 3584 2284 3584 
Q 2666 3584 2933 3390 
Q 3200 3197 3328 2828 
z
" transform="scale(0.015625)"/>
       <path id="DejaVuSans-5f" d="M 3263 -1063 
L 3263 -1509 
L -63 -1509 
L -63 -1063 
L 3263 -1063 
z
" transform="scale(0.015625)"/>
       <path id="DejaVuSans-50" d="M 1259 4147 
L 1259 2394 
L 2053 2394 
Q 2494 2394 2734 2622 
Q 2975 2850 2975 3272 
Q 2975 3691 2734 3919 
Q 2494 4147 2053 4147 
L 1259 4147 
z
M 628 4666 
L 2053 4666 
Q 2838 4666 3239 4311 
Q 3641 3956 3641 3272 
Q 3641 2581 3239 2228 
Q 2838 1875 2053 1875 
L 1259 1875 
L 1259 0 
L 628 0 
L 628 4666 
z
" transform="scale(0.015625)"/>
       <path id="DejaVuSans-49" d="M 628 4666 
L 1259 4666 
L 1259 0 
L 628 0 
L 628 4666 
z
" transform="scale(0.015625)"/>
       <path id="DejaVuSans-75" d="M 544 1381 
L 544 3500 
L 1119 3500 
L 1119 1403 
Q 1119 906 1312 657 
Q 1506 409 1894 409 
Q 2359 409 2629 706 
Q 2900 1003 2900 1516 
L 2900 3500 
L 3475 3500 
L 3475 0 
L 2900 0 
L 2900 538 
Q 2691 219 2414 64 
Q 2138 -91 1772 -91 
Q 1169 -91 856 284 
Q 544 659 544 1381 
z
M 1991 3584 
L 1991 3584 
z
" transform="scale(0.015625)"/>
       <path id="DejaVuSans-72" d="M 2631 2963 
Q 2534 3019 2420 3045 
Q 2306 3072 2169 3072 
Q 1681 3072 1420 2755 
Q 1159 2438 1159 1844 
L 1159 0 
L 581 0 
L 581 3500 
L 1159 3500 
L 1159 2956 
Q 1341 3275 1631 3429 
Q 1922 3584 2338 3584 
Q 2397 3584 2469 3576 
Q 2541 3569 2628 3553 
L 2631 2963 
z
" transform="scale(0.015625)"/>
       <path id="DejaVuSans-69" d="M 603 3500 
L 1178 3500 
L 1178 0 
L 603 0 
L 603 3500 
z
M 603 4863 
L 1178 4863 
L 1178 4134 
L 603 4134 
L 603 4863 
z
" transform="scale(0.015625)"/>
       <path id="DejaVuSans-56" d="M 1831 0 
L 50 4666 
L 709 4666 
L 2188 738 
L 3669 4666 
L 4325 4666 
L 2547 0 
L 1831 0 
z
" transform="scale(0.015625)"/>
      </defs>
      <use xlink:href="#DejaVuSans-66"/>
      <use xlink:href="#DejaVuSans-67" x="35.205078"/>
      <use xlink:href="#DejaVuSans-6d" x="98.681641"/>
      <use xlink:href="#DejaVuSans-5f" x="196.09375"/>
      <use xlink:href="#DejaVuSans-67" x="246.09375"/>
      <use xlink:href="#DejaVuSans-50" x="309.570312"/>
      <use xlink:href="#DejaVuSans-50" x="369.873047"/>
      <use xlink:href="#DejaVuSans-49" x="430.175781"/>
      <use xlink:href="#DejaVuSans-5f" x="459.667969"/>
      <use xlink:href="#DejaVuSans-73" x="509.667969"/>
      <use xlink:href="#DejaVuSans-75" x="561.767578"/>
      <use xlink:href="#DejaVuSans-70" x="625.146484"/>
      <use xlink:href="#DejaVuSans-65" x="688.623047"/>
      <use xlink:href="#DejaVuSans-72" x="750.146484"/>
      <use xlink:href="#DejaVuSans-66" x="791.259766"/>
      <use xlink:href="#DejaVuSans-69" x="826.464844"/>
      <use xlink:href="#DejaVuSans-63" x="854.248047"/>
      <use xlink:href="#DejaVuSans-69" x="909.228516"/>
      <use xlink:href="#DejaVuSans-61" x="937.011719"/>
      <use xlink:href="#DejaVuSans-6c" x="998.291016"/>
      <use xlink:href="#DejaVuSans-5f" x="1026.074219"/>
      <use xlink:href="#DejaVuSans-56" x="1076.074219"/>
      <use xlink:href="#DejaVuSans-31" x="1144.482422"/>
     </g>
    </g>
   </g>
  </g>
  <g id="axes_2">
   <g id="patch_6">
    <path d="M 86.4 443.52 
L 489.6 443.52 
L 489.6 292.32 
L 86.4 292.32 
z
" style="fill: #ffffff"/>
   </g>
   <g id="patch_7">
    <path d="M 90.432 367.92 
L 163.008 367.92 
L 163.008 346.330894 
L 90.432 346.330894 
z
" clip-path="url(#p6e4e8324bb)" style="fill: #ff00ff; opacity: 0.6"/>
   </g>
   <g id="patch_8">
    <path d="M 171.072 367.92 
L 243.648 367.92 
L 243.648 359.080957 
L 171.072 359.080957 
z
" clip-path="url(#p6e4e8324bb)" style="fill: #ff00ff; opacity: 0.6"/>
   </g>
   <g id="patch_9">
    <path d="M 251.712 367.92 
L 324.288 367.92 
L 324.288 344.978792 
L 251.712 344.978792 
z
" clip-path="url(#p6e4e8324bb)" style="fill: #ff00ff; opacity: 0.6"/>
   </g>
   <g id="patch_10">
    <path d="M 332.352 367.92 
L 404.928 367.92 
L 404.928 381.089393 
L 332.352 381.089393 
z
" clip-path="url(#p6e4e8324bb)" style="fill: #ff00ff; opacity: 0.6"/>
   </g>
   <g id="patch_11">
    <path d="M 412.992 367.92 
L 485.568 367.92 
L 485.568 370.275954 
L 412.992 370.275954 
z
" clip-path="url(#p6e4e8324bb)" style="fill: #ff00ff; opacity: 0.6"/>
   </g>
   <g id="matplotlib.axis_3">
    <g id="xtick_7">
     <g id="line2d_31">
      <g>
       <use xlink:href="#m53912dc6d2" x="86.4" y="447.52" style="stroke: #000000; stroke-width: 0.8"/>
      </g>
     </g>
     <g id="text_13">
      <!-- 0 -->
      <g transform="translate(83.21875 462.118438) scale(0.1 -0.1)">
       <use xlink:href="#DejaVuSans-30"/>
      </g>
     </g>
    </g>
    <g id="xtick_8">
     <g id="line2d_32">
      <g>
       <use xlink:href="#m53912dc6d2" x="167.04" y="447.52" style="stroke: #000000; stroke-width: 0.8"/>
      </g>
     </g>
     <g id="text_14">
      <!-- 1 -->
      <g transform="translate(163.85875 462.118438) scale(0.1 -0.1)">
       <use xlink:href="#DejaVuSans-31"/>
      </g>
     </g>
    </g>
    <g id="xtick_9">
     <g id="line2d_33">
      <g>
       <use xlink:href="#m53912dc6d2" x="247.68" y="447.52" style="stroke: #000000; stroke-width: 0.8"/>
      </g>
     </g>
     <g id="text_15">
      <!-- 2 -->
      <g transform="translate(244.49875 462.118438) scale(0.1 -0.1)">
       <use xlink:href="#DejaVuSans-32"/>
      </g>
     </g>
    </g>
    <g id="xtick_10">
     <g id="line2d_34">
      <g>
       <use xlink:href="#m53912dc6d2" x="328.32" y="447.52" style="stroke: #000000; stroke-width: 0.8"/>
      </g>
     </g>
     <g id="text_16">
      <!-- 3 -->
      <g transform="translate(325.13875 462.118438) scale(0.1 -0.1)">
       <defs>
        <path id="DejaVuSans-33" d="M 2597 2516 
Q 3050 2419 3304 2112 
Q 3559 1806 3559 1356 
Q 3559 666 3084 287 
Q 2609 -91 1734 -91 
Q 1441 -91 1130 -33 
Q 819 25 488 141 
L 488 750 
Q 750 597 1062 519 
Q 1375 441 1716 441 
Q 2309 441 2620 675 
Q 2931 909 2931 1356 
Q 2931 1769 2642 2001 
Q 2353 2234 1838 2234 
L 1294 2234 
L 1294 2753 
L 1863 2753 
Q 2328 2753 2575 2939 
Q 2822 3125 2822 3475 
Q 2822 3834 2567 4026 
Q 2313 4219 1838 4219 
Q 1578 4219 1281 4162 
Q 984 4106 628 3988 
L 628 4550 
Q 988 4650 1302 4700 
Q 1616 4750 1894 4750 
Q 2613 4750 3031 4423 
Q 3450 4097 3450 3541 
Q 3450 3153 3228 2886 
Q 3006 2619 2597 2516 
z
" transform="scale(0.015625)"/>
       </defs>
       <use xlink:href="#DejaVuSans-33"/>
      </g>
     </g>
    </g>
    <g id="xtick_11">
     <g id="line2d_35">
      <g>
       <use xlink:href="#m53912dc6d2" x="408.96" y="447.52" style="stroke: #000000; stroke-width: 0.8"/>
      </g>
     </g>
     <g id="text_17">
      <!-- 4 -->
      <g transform="translate(405.77875 462.118438) scale(0.1 -0.1)">
       <defs>
        <path id="DejaVuSans-34" d="M 2419 4116 
L 825 1625 
L 2419 1625 
L 2419 4116 
z
M 2253 4666 
L 3047 4666 
L 3047 1625 
L 3713 1625 
L 3713 1100 
L 3047 1100 
L 3047 0 
L 2419 0 
L 2419 1100 
L 313 1100 
L 313 1709 
L 2253 4666 
z
" transform="scale(0.015625)"/>
       </defs>
       <use xlink:href="#DejaVuSans-34"/>
      </g>
     </g>
    </g>
    <g id="xtick_12">
     <g id="line2d_36">
      <g>
       <use xlink:href="#m53912dc6d2" x="489.6" y="447.52" style="stroke: #000000; stroke-width: 0.8"/>
      </g>
     </g>
     <g id="text_18">
      <!-- 5 -->
      <g transform="translate(486.41875 462.118438) scale(0.1 -0.1)">
       <use xlink:href="#DejaVuSans-35"/>
      </g>
     </g>
    </g>
    <g id="text_19">
     <!-- relative distance from ROI center ($\sigma$) -->
     <g transform="translate(214.48 474.276875) scale(0.08 -0.08)">
      <defs>
       <path id="DejaVuSans-76" d="M 191 3500 
L 800 3500 
L 1894 563 
L 2988 3500 
L 3597 3500 
L 2284 0 
L 1503 0 
L 191 3500 
z
" transform="scale(0.015625)"/>
       <path id="DejaVuSans-6f" d="M 1959 3097 
Q 1497 3097 1228 2736 
Q 959 2375 959 1747 
Q 959 1119 1226 758 
Q 1494 397 1959 397 
Q 2419 397 2687 759 
Q 2956 1122 2956 1747 
Q 2956 2369 2687 2733 
Q 2419 3097 1959 3097 
z
M 1959 3584 
Q 2709 3584 3137 3096 
Q 3566 2609 3566 1747 
Q 3566 888 3137 398 
Q 2709 -91 1959 -91 
Q 1206 -91 779 398 
Q 353 888 353 1747 
Q 353 2609 779 3096 
Q 1206 3584 1959 3584 
z
" transform="scale(0.015625)"/>
       <path id="DejaVuSans-52" d="M 2841 2188 
Q 3044 2119 3236 1894 
Q 3428 1669 3622 1275 
L 4263 0 
L 3584 0 
L 2988 1197 
Q 2756 1666 2539 1819 
Q 2322 1972 1947 1972 
L 1259 1972 
L 1259 0 
L 628 0 
L 628 4666 
L 2053 4666 
Q 2853 4666 3247 4331 
Q 3641 3997 3641 3322 
Q 3641 2881 3436 2590 
Q 3231 2300 2841 2188 
z
M 1259 4147 
L 1259 2491 
L 2053 2491 
Q 2509 2491 2742 2702 
Q 2975 2913 2975 3322 
Q 2975 3731 2742 3939 
Q 2509 4147 2053 4147 
L 1259 4147 
z
" transform="scale(0.015625)"/>
       <path id="DejaVuSans-28" d="M 1984 4856 
Q 1566 4138 1362 3434 
Q 1159 2731 1159 2009 
Q 1159 1288 1364 580 
Q 1569 -128 1984 -844 
L 1484 -844 
Q 1016 -109 783 600 
Q 550 1309 550 2009 
Q 550 2706 781 3412 
Q 1013 4119 1484 4856 
L 1984 4856 
z
" transform="scale(0.015625)"/>
       <path id="DejaVuSans-Oblique-3c3" d="M 2219 3044 
Q 1744 3044 1422 2700 
Q 1081 2341 969 1747 
Q 844 1119 1044 756 
Q 1241 397 1706 397 
Q 2166 397 2503 759 
Q 2844 1122 2966 1747 
Q 3075 2319 2881 2700 
Q 2700 3044 2219 3044 
z
M 2309 3503 
L 4219 3500 
L 4106 2925 
L 3463 2925 
Q 3706 2438 3575 1747 
Q 3406 888 2884 400 
Q 2359 -91 1609 -91 
Q 856 -91 525 400 
Q 194 888 363 1747 
Q 528 2609 1050 3097 
Q 1484 3503 2309 3503 
z
" transform="scale(0.015625)"/>
       <path id="DejaVuSans-29" d="M 513 4856 
L 1013 4856 
Q 1481 4119 1714 3412 
Q 1947 2706 1947 2009 
Q 1947 1309 1714 600 
Q 1481 -109 1013 -844 
L 513 -844 
Q 928 -128 1133 580 
Q 1338 1288 1338 2009 
Q 1338 2731 1133 3434 
Q 928 4138 513 4856 
z
" transform="scale(0.015625)"/>
      </defs>
      <use xlink:href="#DejaVuSans-72" transform="translate(0 0.015625)"/>
      <use xlink:href="#DejaVuSans-65" transform="translate(41.113281 0.015625)"/>
      <use xlink:href="#DejaVuSans-6c" transform="translate(102.636719 0.015625)"/>
      <use xlink:href="#DejaVuSans-61" transform="translate(130.419922 0.015625)"/>
      <use xlink:href="#DejaVuSans-74" transform="translate(191.699219 0.015625)"/>
      <use xlink:href="#DejaVuSans-69" transform="translate(230.908203 0.015625)"/>
      <use xlink:href="#DejaVuSans-76" transform="translate(258.691406 0.015625)"/>
      <use xlink:href="#DejaVuSans-65" transform="translate(317.871094 0.015625)"/>
      <use xlink:href="#DejaVuSans-20" transform="translate(379.394531 0.015625)"/>
      <use xlink:href="#DejaVuSans-64" transform="translate(411.181641 0.015625)"/>
      <use xlink:href="#DejaVuSans-69" transform="translate(474.658203 0.015625)"/>
      <use xlink:href="#DejaVuSans-73" transform="translate(502.441406 0.015625)"/>
      <use xlink:href="#DejaVuSans-74" transform="translate(554.541016 0.015625)"/>
      <use xlink:href="#DejaVuSans-61" transform="translate(593.75 0.015625)"/>
      <use xlink:href="#DejaVuSans-6e" transform="translate(655.029297 0.015625)"/>
      <use xlink:href="#DejaVuSans-63" transform="translate(718.408203 0.015625)"/>
      <use xlink:href="#DejaVuSans-65" transform="translate(773.388672 0.015625)"/>
      <use xlink:href="#DejaVuSans-20" transform="translate(834.912109 0.015625)"/>
      <use xlink:href="#DejaVuSans-66" transform="translate(866.699219 0.015625)"/>
      <use xlink:href="#DejaVuSans-72" transform="translate(901.904297 0.015625)"/>
      <use xlink:href="#DejaVuSans-6f" transform="translate(943.017578 0.015625)"/>
      <use xlink:href="#DejaVuSans-6d" transform="translate(1004.199219 0.015625)"/>
      <use xlink:href="#DejaVuSans-20" transform="translate(1101.611328 0.015625)"/>
      <use xlink:href="#DejaVuSans-52" transform="translate(1133.398438 0.015625)"/>
      <use xlink:href="#DejaVuSans-4f" transform="translate(1202.880859 0.015625)"/>
      <use xlink:href="#DejaVuSans-49" transform="translate(1281.591797 0.015625)"/>
      <use xlink:href="#DejaVuSans-20" transform="translate(1311.083984 0.015625)"/>
      <use xlink:href="#DejaVuSans-63" transform="translate(1342.871094 0.015625)"/>
      <use xlink:href="#DejaVuSans-65" transform="translate(1397.851562 0.015625)"/>
      <use xlink:href="#DejaVuSans-6e" transform="translate(1459.375 0.015625)"/>
      <use xlink:href="#DejaVuSans-74" transform="translate(1522.753906 0.015625)"/>
      <use xlink:href="#DejaVuSans-65" transform="translate(1561.962891 0.015625)"/>
      <use xlink:href="#DejaVuSans-72" transform="translate(1623.486328 0.015625)"/>
      <use xlink:href="#DejaVuSans-20" transform="translate(1664.599609 0.015625)"/>
      <use xlink:href="#DejaVuSans-28" transform="translate(1696.386719 0.015625)"/>
      <use xlink:href="#DejaVuSans-Oblique-3c3" transform="translate(1735.400391 0.015625)"/>
      <use xlink:href="#DejaVuSans-29" transform="translate(1798.779297 0.015625)"/>
     </g>
    </g>
   </g>
   <g id="matplotlib.axis_4">
    <g id="ytick_10">
     <g id="line2d_37">
      <g>
       <use xlink:href="#m99852aef2d" x="82.4" y="443.52" style="stroke: #000000; stroke-width: 0.8"/>
      </g>
     </g>
     <g id="text_20">
      <!-- −1.0 -->
      <g transform="translate(51.117187 447.319219) scale(0.1 -0.1)">
       <use xlink:href="#DejaVuSans-2212"/>
       <use xlink:href="#DejaVuSans-31" x="83.789062"/>
       <use xlink:href="#DejaVuSans-2e" x="147.412109"/>
       <use xlink:href="#DejaVuSans-30" x="179.199219"/>
      </g>
     </g>
    </g>
    <g id="ytick_11">
     <g id="line2d_38">
      <g>
       <use xlink:href="#m99852aef2d" x="82.4" y="405.72" style="stroke: #000000; stroke-width: 0.8"/>
      </g>
     </g>
     <g id="text_21">
      <!-- −0.5 -->
      <g transform="translate(51.117187 409.519219) scale(0.1 -0.1)">
       <use xlink:href="#DejaVuSans-2212"/>
       <use xlink:href="#DejaVuSans-30" x="83.789062"/>
       <use xlink:href="#DejaVuSans-2e" x="147.412109"/>
       <use xlink:href="#DejaVuSans-35" x="179.199219"/>
      </g>
     </g>
    </g>
    <g id="ytick_12">
     <g id="line2d_39">
      <g>
       <use xlink:href="#m99852aef2d" x="82.4" y="367.92" style="stroke: #000000; stroke-width: 0.8"/>
      </g>
     </g>
     <g id="text_22">
      <!-- 0.0 -->
      <g transform="translate(59.496875 371.719219) scale(0.1 -0.1)">
       <use xlink:href="#DejaVuSans-30"/>
       <use xlink:href="#DejaVuSans-2e" x="63.623047"/>
       <use xlink:href="#DejaVuSans-30" x="95.410156"/>
      </g>
     </g>
    </g>
    <g id="ytick_13">
     <g id="line2d_40">
      <g>
       <use xlink:href="#m99852aef2d" x="82.4" y="330.12" style="stroke: #000000; stroke-width: 0.8"/>
      </g>
     </g>
     <g id="text_23">
      <!-- 0.5 -->
      <g transform="translate(59.496875 333.919219) scale(0.1 -0.1)">
       <use xlink:href="#DejaVuSans-30"/>
       <use xlink:href="#DejaVuSans-2e" x="63.623047"/>
       <use xlink:href="#DejaVuSans-35" x="95.410156"/>
      </g>
     </g>
    </g>
    <g id="ytick_14">
     <g id="line2d_41">
      <g>
       <use xlink:href="#m99852aef2d" x="82.4" y="292.32" style="stroke: #000000; stroke-width: 0.8"/>
      </g>
     </g>
     <g id="text_24">
      <!-- 1.0 -->
      <g transform="translate(59.496875 296.119219) scale(0.1 -0.1)">
       <use xlink:href="#DejaVuSans-31"/>
       <use xlink:href="#DejaVuSans-2e" x="63.623047"/>
       <use xlink:href="#DejaVuSans-30" x="95.410156"/>
      </g>
     </g>
    </g>
    <g id="text_25">
     <!-- Binned Avg -->
     <g transform="translate(45.453437 390.525625) rotate(-90) scale(0.08 -0.08)">
      <defs>
       <path id="DejaVuSans-41" d="M 2188 4044 
L 1331 1722 
L 3047 1722 
L 2188 4044 
z
M 1831 4666 
L 2547 4666 
L 4325 0 
L 3669 0 
L 3244 1197 
L 1141 1197 
L 716 0 
L 50 0 
L 1831 4666 
z
" transform="scale(0.015625)"/>
      </defs>
      <use xlink:href="#DejaVuSans-42"/>
      <use xlink:href="#DejaVuSans-69" x="68.603516"/>
      <use xlink:href="#DejaVuSans-6e" x="96.386719"/>
      <use xlink:href="#DejaVuSans-6e" x="159.765625"/>
      <use xlink:href="#DejaVuSans-65" x="223.144531"/>
      <use xlink:href="#DejaVuSans-64" x="284.667969"/>
      <use xlink:href="#DejaVuSans-20" x="348.144531"/>
      <use xlink:href="#DejaVuSans-41" x="379.931641"/>
      <use xlink:href="#DejaVuSans-76" x="442.464844"/>
      <use xlink:href="#DejaVuSans-67" x="501.644531"/>
     </g>
    </g>
   </g>
   <g id="LineCollection_1">
    <path d="M 126.72 371.144056 
L 126.72 321.517731 
" clip-path="url(#p6e4e8324bb)" style="fill: none; stroke: #000000; stroke-width: 1.5"/>
    <path d="M 207.36 380.42477 
L 207.36 337.737144 
" clip-path="url(#p6e4e8324bb)" style="fill: none; stroke: #000000; stroke-width: 1.5"/>
    <path d="M 288 361.182424 
L 288 328.77516 
" clip-path="url(#p6e4e8324bb)" style="fill: none; stroke: #000000; stroke-width: 1.5"/>
    <path d="M 368.64 399.201877 
L 368.64 362.97691 
" clip-path="url(#p6e4e8324bb)" style="fill: none; stroke: #000000; stroke-width: 1.5"/>
    <path d="M 449.28 393.805453 
L 449.28 346.746455 
" clip-path="url(#p6e4e8324bb)" style="fill: none; stroke: #000000; stroke-width: 1.5"/>
   </g>
   <g id="line2d_42">
    <defs>
     <path id="mb0c4c8df83" d="M 5 0 
L -5 -0 
" style="stroke: #000000"/>
    </defs>
    <g clip-path="url(#p6e4e8324bb)">
     <use xlink:href="#mb0c4c8df83" x="126.72" y="371.144056" style="stroke: #000000"/>
     <use xlink:href="#mb0c4c8df83" x="207.36" y="380.42477" style="stroke: #000000"/>
     <use xlink:href="#mb0c4c8df83" x="288" y="361.182424" style="stroke: #000000"/>
     <use xlink:href="#mb0c4c8df83" x="368.64" y="399.201877" style="stroke: #000000"/>
     <use xlink:href="#mb0c4c8df83" x="449.28" y="393.805453" style="stroke: #000000"/>
    </g>
   </g>
   <g id="line2d_43">
    <g clip-path="url(#p6e4e8324bb)">
     <use xlink:href="#mb0c4c8df83" x="126.72" y="321.517731" style="stroke: #000000"/>
     <use xlink:href="#mb0c4c8df83" x="207.36" y="337.737144" style="stroke: #000000"/>
     <use xlink:href="#mb0c4c8df83" x="288" y="328.77516" style="stroke: #000000"/>
     <use xlink:href="#mb0c4c8df83" x="368.64" y="362.97691" style="stroke: #000000"/>
     <use xlink:href="#mb0c4c8df83" x="449.28" y="346.746455" style="stroke: #000000"/>
    </g>
   </g>
   <g id="line2d_44">
    <path d="M 86.4 367.92 
L 489.6 367.92 
" clip-path="url(#p6e4e8324bb)" style="fill: none; stroke-dasharray: 5.55,2.4; stroke-dashoffset: 0; stroke: #000000; stroke-width: 1.5"/>
   </g>
   <g id="patch_12">
    <path d="M 82.4 443.52 
L 82.4 292.32 
" style="fill: none; stroke: #000000; stroke-width: 0.8; stroke-linejoin: miter; stroke-linecap: square"/>
   </g>
   <g id="patch_13">
    <path d="M 86.4 447.52 
L 489.6 447.52 
" style="fill: none; stroke: #000000; stroke-width: 0.8; stroke-linejoin: miter; stroke-linecap: square"/>
   </g>
  </g>
 </g>
 <defs>
  <clipPath id="p913df4263d">
   <rect x="86.4" y="40.32" width="403.2" height="201.6"/>
  </clipPath>
  <clipPath id="p6e4e8324bb">
   <rect x="86.4" y="292.32" width="403.2" height="151.2"/>
  </clipPath>
 </defs>
</svg>
