<?xml version="1.0" encoding="utf-8" standalone="no"?>
<!DOCTYPE svg PUBLIC "-//W3C//DTD SVG 1.1//EN"
  "http://www.w3.org/Graphics/SVG/1.1/DTD/svg11.dtd">
<svg xmlns:xlink="http://www.w3.org/1999/xlink" width="360pt" height="432pt" viewBox="0 0 360 432" xmlns="http://www.w3.org/2000/svg" version="1.1">
 <metadata>
  <rdf:RDF xmlns:dc="http://purl.org/dc/elements/1.1/" xmlns:cc="http://creativecommons.org/ns#" xmlns:rdf="http://www.w3.org/1999/02/22-rdf-syntax-ns#">
   <cc:Work>
    <dc:type rdf:resource="http://purl.org/dc/dcmitype/StillImage"/>
    <dc:date>2025-10-31T15:45:47.220800</dc:date>
    <dc:format>image/svg+xml</dc:format>
    <dc:creator>
     <cc:Agent>
      <dc:title>Matplotlib v3.8.0, https://matplotlib.org/</dc:title>
     </cc:Agent>
    </dc:creator>
   </cc:Work>
  </rdf:RDF>
 </metadata>
 <defs>
  <style type="text/css">*{stroke-linejoin: round; stroke-linecap: butt}</style>
 </defs>
 <g id="figure_1">
  <g id="patch_1">
   <path d="M 0 432 
L 360 432 
L 360 0 
L 0 0 
z
" style="fill: #ffffff"/>
  </g>
  <g id="axes_1">
   <g id="patch_2">
    <path d="M 54 388.8 
L 306 388.8 
L 306 302.4 
L 54 302.4 
z
" style="fill: #ffffff"/>
   </g>
   <g id="PolyCollection_1">
    <defs>
     <path id="m9038fc64d5" d="M 65.454545 -90.862142 
L 65.454545 -82.5215 
L 70.12987 -83.155019 
L 74.805195 -83.5686 
L 79.480519 -84.197926 
L 84.155844 -84.650695 
L 88.831169 -84.560161 
L 93.506494 -84.346001 
L 98.181818 -83.909992 
L 102.857143 -83.443153 
L 107.532468 -82.918868 
L 112.207792 -82.449139 
L 116.883117 -81.642421 
L 121.558442 -81.065776 
L 126.233766 -81.225084 
L 130.909091 -81.423384 
L 135.584416 -81.906773 
L 140.25974 -82.115365 
L 144.935065 -81.871994 
L 149.61039 -81.653018 
L 154.285714 -81.38573 
L 158.961039 -81.503287 
L 163.636364 -81.628431 
L 168.311688 -81.795788 
L 172.987013 -81.549541 
L 177.662338 -81.16772 
L 182.337662 -80.792862 
L 187.012987 -80.249378 
L 191.688312 -79.636538 
L 196.363636 -79.606798 
L 201.038961 -79.4432 
L 205.714286 -79.105613 
L 210.38961 -78.209797 
L 215.064935 -77.299439 
L 219.74026 -76.954864 
L 224.415584 -77.268569 
L 229.090909 -77.812322 
L 233.766234 -78.572344 
L 238.441558 -79.119704 
L 243.116883 -79.408647 
L 247.792208 -79.562693 
L 252.467532 -79.71461 
L 257.142857 -79.837759 
L 261.818182 -79.528927 
L 266.493506 -79.093466 
L 271.168831 -78.582373 
L 275.844156 -77.952781 
L 280.519481 -77.676733 
L 285.194805 -77.463459 
L 289.87013 -77.261238 
L 294.545455 -77.192615 
L 294.545455 -80.572457 
L 294.545455 -80.572457 
L 289.87013 -80.511421 
L 285.194805 -80.725513 
L 280.519481 -81.090257 
L 275.844156 -81.609374 
L 271.168831 -82.400156 
L 266.493506 -83.028644 
L 261.818182 -83.465624 
L 257.142857 -83.552071 
L 252.467532 -83.370851 
L 247.792208 -83.277709 
L 243.116883 -83.182869 
L 238.441558 -83.115694 
L 233.766234 -82.96745 
L 229.090909 -82.508322 
L 224.415584 -82.066016 
L 219.74026 -81.867158 
L 215.064935 -81.935866 
L 210.38961 -82.430551 
L 205.714286 -82.96907 
L 201.038961 -83.292363 
L 196.363636 -83.42011 
L 191.688312 -83.508755 
L 187.012987 -84.156276 
L 182.337662 -84.810621 
L 177.662338 -85.194333 
L 172.987013 -85.57387 
L 168.311688 -85.938333 
L 163.636364 -86.134887 
L 158.961039 -86.41981 
L 154.285714 -86.502652 
L 149.61039 -86.884746 
L 144.935065 -87.239089 
L 140.25974 -87.740984 
L 135.584416 -87.848996 
L 130.909091 -87.660765 
L 126.233766 -87.424639 
L 121.558442 -87.198744 
L 116.883117 -87.490752 
L 112.207792 -87.91588 
L 107.532468 -88.333145 
L 102.857143 -88.969054 
L 98.181818 -89.517926 
L 93.506494 -90.182428 
L 88.831169 -90.621919 
L 84.155844 -91.025854 
L 79.480519 -91.201623 
L 74.805195 -90.840624 
L 70.12987 -90.899775 
L 65.454545 -90.862142 
z
" style="stroke: #ffa500; stroke-opacity: 0.4"/>
    </defs>
    <g clip-path="url(#p9203e8f2ad)">
     <use xlink:href="#m9038fc64d5" x="0" y="432" style="fill: #ffa500; fill-opacity: 0.4; stroke: #ffa500; stroke-opacity: 0.4"/>
    </g>
   </g>
   <g id="matplotlib.axis_1">
    <g id="xtick_1">
     <g id="line2d_1">
      <defs>
       <path id="mca4605b220" d="M 0 0 
L 0 3.5 
" style="stroke: #000000; stroke-width: 0.8"/>
      </defs>
      <g>
       <use xlink:href="#mca4605b220" x="65.454545" y="392.8" style="stroke: #000000; stroke-width: 0.8"/>
      </g>
     </g>
     <g id="text_1">
      <!-- 0 -->
      <g transform="translate(62.273295 407.398438) scale(0.1 -0.1)">
       <defs>
        <path id="DejaVuSans-30" d="M 2034 4250 
Q 1547 4250 1301 3770 
Q 1056 3291 1056 2328 
Q 1056 1369 1301 889 
Q 1547 409 2034 409 
Q 2525 409 2770 889 
Q 3016 1369 3016 2328 
Q 3016 3291 2770 3770 
Q 2525 4250 2034 4250 
z
M 2034 4750 
Q 2819 4750 3233 4129 
Q 3647 3509 3647 2328 
Q 3647 1150 3233 529 
Q 2819 -91 2034 -91 
Q 1250 -91 836 529 
Q 422 1150 422 2328 
Q 422 3509 836 4129 
Q 1250 4750 2034 4750 
z
" transform="scale(0.015625)"/>
       </defs>
       <use xlink:href="#DejaVuSans-30"/>
      </g>
     </g>
    </g>
    <g id="xtick_2">
     <g id="line2d_2">
      <g>
       <use xlink:href="#mca4605b220" x="111.272727" y="392.8" style="stroke: #000000; stroke-width: 0.8"/>
      </g>
     </g>
     <g id="text_2">
      <!-- 1 -->
      <g transform="translate(108.091477 407.398438) scale(0.1 -0.1)">
       <defs>
        <path id="DejaVuSans-31" d="M 794 531 
L 1825 531 
L 1825 4091 
L 703 3866 
L 703 4441 
L 1819 4666 
L 2450 4666 
L 2450 531 
L 3481 531 
L 3481 0 
L 794 0 
L 794 531 
z
" transform="scale(0.015625)"/>
       </defs>
       <use xlink:href="#DejaVuSans-31"/>
      </g>
     </g>
    </g>
    <g id="xtick_3">
     <g id="line2d_3">
      <g>
       <use xlink:href="#mca4605b220" x="157.090909" y="392.8" style="stroke: #000000; stroke-width: 0.8"/>
      </g>
     </g>
     <g id="text_3">
      <!-- 2 -->
      <g transform="translate(153.909659 407.398438) scale(0.1 -0.1)">
       <defs>
        <path id="DejaVuSans-32" d="M 1228 531 
L 3431 531 
L 3431 0 
L 469 0 
L 469 531 
Q 828 903 1448 1529 
Q 2069 2156 2228 2338 
Q 2531 2678 2651 2914 
Q 2772 3150 2772 3378 
Q 2772 3750 2511 3984 
Q 2250 4219 1831 4219 
Q 1534 4219 1204 4116 
Q 875 4013 500 3803 
L 500 4441 
Q 881 4594 1212 4672 
Q 1544 4750 1819 4750 
Q 2544 4750 2975 4387 
Q 3406 4025 3406 3419 
Q 3406 3131 3298 2873 
Q 3191 2616 2906 2266 
Q 2828 2175 2409 1742 
Q 1991 1309 1228 531 
z
" transform="scale(0.015625)"/>
       </defs>
       <use xlink:href="#DejaVuSans-32"/>
      </g>
     </g>
    </g>
    <g id="xtick_4">
     <g id="line2d_4">
      <g>
       <use xlink:href="#mca4605b220" x="202.909091" y="392.8" style="stroke: #000000; stroke-width: 0.8"/>
      </g>
     </g>
     <g id="text_4">
      <!-- 3 -->
      <g transform="translate(199.727841 407.398438) scale(0.1 -0.1)">
       <defs>
        <path id="DejaVuSans-33" d="M 2597 2516 
Q 3050 2419 3304 2112 
Q 3559 1806 3559 1356 
Q 3559 666 3084 287 
Q 2609 -91 1734 -91 
Q 1441 -91 1130 -33 
Q 819 25 488 141 
L 488 750 
Q 750 597 1062 519 
Q 1375 441 1716 441 
Q 2309 441 2620 675 
Q 2931 909 2931 1356 
Q 2931 1769 2642 2001 
Q 2353 2234 1838 2234 
L 1294 2234 
L 1294 2753 
L 1863 2753 
Q 2328 2753 2575 2939 
Q 2822 3125 2822 3475 
Q 2822 3834 2567 4026 
Q 2313 4219 1838 4219 
Q 1578 4219 1281 4162 
Q 984 4106 628 3988 
L 628 4550 
Q 988 4650 1302 4700 
Q 1616 4750 1894 4750 
Q 2613 4750 3031 4423 
Q 3450 4097 3450 3541 
Q 3450 3153 3228 2886 
Q 3006 2619 2597 2516 
z
" transform="scale(0.015625)"/>
       </defs>
       <use xlink:href="#DejaVuSans-33"/>
      </g>
     </g>
    </g>
    <g id="xtick_5">
     <g id="line2d_5">
      <g>
       <use xlink:href="#mca4605b220" x="248.727273" y="392.8" style="stroke: #000000; stroke-width: 0.8"/>
      </g>
     </g>
     <g id="text_5">
      <!-- 4 -->
      <g transform="translate(245.546023 407.398438) scale(0.1 -0.1)">
       <defs>
        <path id="DejaVuSans-34" d="M 2419 4116 
L 825 1625 
L 2419 1625 
L 2419 4116 
z
M 2253 4666 
L 3047 4666 
L 3047 1625 
L 3713 1625 
L 3713 1100 
L 3047 1100 
L 3047 0 
L 2419 0 
L 2419 1100 
L 313 1100 
L 313 1709 
L 2253 4666 
z
" transform="scale(0.015625)"/>
       </defs>
       <use xlink:href="#DejaVuSans-34"/>
      </g>
     </g>
    </g>
    <g id="xtick_6">
     <g id="line2d_6">
      <g>
       <use xlink:href="#mca4605b220" x="294.545455" y="392.8" style="stroke: #000000; stroke-width: 0.8"/>
      </g>
     </g>
     <g id="text_6">
      <!-- 5 -->
      <g transform="translate(291.364205 407.398438) scale(0.1 -0.1)">
       <defs>
        <path id="DejaVuSans-35" d="M 691 4666 
L 3169 4666 
L 3169 4134 
L 1269 4134 
L 1269 2991 
Q 1406 3038 1543 3061 
Q 1681 3084 1819 3084 
Q 2600 3084 3056 2656 
Q 3513 2228 3513 1497 
Q 3513 744 3044 326 
Q 2575 -91 1722 -91 
Q 1428 -91 1123 -41 
Q 819 9 494 109 
L 494 744 
Q 775 591 1075 516 
Q 1375 441 1709 441 
Q 2250 441 2565 725 
Q 2881 1009 2881 1497 
Q 2881 1984 2565 2268 
Q 2250 2553 1709 2553 
Q 1456 2553 1204 2497 
Q 953 2441 691 2322 
L 691 4666 
z
" transform="scale(0.015625)"/>
       </defs>
       <use xlink:href="#DejaVuSans-35"/>
      </g>
     </g>
    </g>
    <g id="text_7">
     <!-- relative distance from ROI center ($\sigma$) -->
     <g transform="translate(106.48 419.556875) scale(0.08 -0.08)">
      <defs>
       <path id="DejaVuSans-72" d="M 2631 2963 
Q 2534 3019 2420 3045 
Q 2306 3072 2169 3072 
Q 1681 3072 1420 2755 
Q 1159 2438 1159 1844 
L 1159 0 
L 581 0 
L 581 3500 
L 1159 3500 
L 1159 2956 
Q 1341 3275 1631 3429 
Q 1922 3584 2338 3584 
Q 2397 3584 2469 3576 
Q 2541 3569 2628 3553 
L 2631 2963 
z
" transform="scale(0.015625)"/>
       <path id="DejaVuSans-65" d="M 3597 1894 
L 3597 1613 
L 953 1613 
Q 991 1019 1311 708 
Q 1631 397 2203 397 
Q 2534 397 2845 478 
Q 3156 559 3463 722 
L 3463 178 
Q 3153 47 2828 -22 
Q 2503 -91 2169 -91 
Q 1331 -91 842 396 
Q 353 884 353 1716 
Q 353 2575 817 3079 
Q 1281 3584 2069 3584 
Q 2775 3584 3186 3129 
Q 3597 2675 3597 1894 
z
M 3022 2063 
Q 3016 2534 2758 2815 
Q 2500 3097 2075 3097 
Q 1594 3097 1305 2825 
Q 1016 2553 972 2059 
L 3022 2063 
z
" transform="scale(0.015625)"/>
       <path id="DejaVuSans-6c" d="M 603 4863 
L 1178 4863 
L 1178 0 
L 603 0 
L 603 4863 
z
" transform="scale(0.015625)"/>
       <path id="DejaVuSans-61" d="M 2194 1759 
Q 1497 1759 1228 1600 
Q 959 1441 959 1056 
Q 959 750 1161 570 
Q 1363 391 1709 391 
Q 2188 391 2477 730 
Q 2766 1069 2766 1631 
L 2766 1759 
L 2194 1759 
z
M 3341 1997 
L 3341 0 
L 2766 0 
L 2766 531 
Q 2569 213 2275 61 
Q 1981 -91 1556 -91 
Q 1019 -91 701 211 
Q 384 513 384 1019 
Q 384 1609 779 1909 
Q 1175 2209 1959 2209 
L 2766 2209 
L 2766 2266 
Q 2766 2663 2505 2880 
Q 2244 3097 1772 3097 
Q 1472 3097 1187 3025 
Q 903 2953 641 2809 
L 641 3341 
Q 956 3463 1253 3523 
Q 1550 3584 1831 3584 
Q 2591 3584 2966 3190 
Q 3341 2797 3341 1997 
z
" transform="scale(0.015625)"/>
       <path id="DejaVuSans-74" d="M 1172 4494 
L 1172 3500 
L 2356 3500 
L 2356 3053 
L 1172 3053 
L 1172 1153 
Q 1172 725 1289 603 
Q 1406 481 1766 481 
L 2356 481 
L 2356 0 
L 1766 0 
Q 1100 0 847 248 
Q 594 497 594 1153 
L 594 3053 
L 172 3053 
L 172 3500 
L 594 3500 
L 594 4494 
L 1172 4494 
z
" transform="scale(0.015625)"/>
       <path id="DejaVuSans-69" d="M 603 3500 
L 1178 3500 
L 1178 0 
L 603 0 
L 603 3500 
z
M 603 4863 
L 1178 4863 
L 1178 4134 
L 603 4134 
L 603 4863 
z
" transform="scale(0.015625)"/>
       <path id="DejaVuSans-76" d="M 191 3500 
L 800 3500 
L 1894 563 
L 2988 3500 
L 3597 3500 
L 2284 0 
L 1503 0 
L 191 3500 
z
" transform="scale(0.015625)"/>
       <path id="DejaVuSans-20" transform="scale(0.015625)"/>
       <path id="DejaVuSans-64" d="M 2906 2969 
L 2906 4863 
L 3481 4863 
L 3481 0 
L 2906 0 
L 2906 525 
Q 2725 213 2448 61 
Q 2172 -91 1784 -91 
Q 1150 -91 751 415 
Q 353 922 353 1747 
Q 353 2572 751 3078 
Q 1150 3584 1784 3584 
Q 2172 3584 2448 3432 
Q 2725 3281 2906 2969 
z
M 947 1747 
Q 947 1113 1208 752 
Q 1469 391 1925 391 
Q 2381 391 2643 752 
Q 2906 1113 2906 1747 
Q 2906 2381 2643 2742 
Q 2381 3103 1925 3103 
Q 1469 3103 1208 2742 
Q 947 2381 947 1747 
z
" transform="scale(0.015625)"/>
       <path id="DejaVuSans-73" d="M 2834 3397 
L 2834 2853 
Q 2591 2978 2328 3040 
Q 2066 3103 1784 3103 
Q 1356 3103 1142 2972 
Q 928 2841 928 2578 
Q 928 2378 1081 2264 
Q 1234 2150 1697 2047 
L 1894 2003 
Q 2506 1872 2764 1633 
Q 3022 1394 3022 966 
Q 3022 478 2636 193 
Q 2250 -91 1575 -91 
Q 1294 -91 989 -36 
Q 684 19 347 128 
L 347 722 
Q 666 556 975 473 
Q 1284 391 1588 391 
Q 1994 391 2212 530 
Q 2431 669 2431 922 
Q 2431 1156 2273 1281 
Q 2116 1406 1581 1522 
L 1381 1569 
Q 847 1681 609 1914 
Q 372 2147 372 2553 
Q 372 3047 722 3315 
Q 1072 3584 1716 3584 
Q 2034 3584 2315 3537 
Q 2597 3491 2834 3397 
z
" transform="scale(0.015625)"/>
       <path id="DejaVuSans-6e" d="M 3513 2113 
L 3513 0 
L 2938 0 
L 2938 2094 
Q 2938 2591 2744 2837 
Q 2550 3084 2163 3084 
Q 1697 3084 1428 2787 
Q 1159 2491 1159 1978 
L 1159 0 
L 581 0 
L 581 3500 
L 1159 3500 
L 1159 2956 
Q 1366 3272 1645 3428 
Q 1925 3584 2291 3584 
Q 2894 3584 3203 3211 
Q 3513 2838 3513 2113 
z
" transform="scale(0.015625)"/>
       <path id="DejaVuSans-63" d="M 3122 3366 
L 3122 2828 
Q 2878 2963 2633 3030 
Q 2388 3097 2138 3097 
Q 1578 3097 1268 2742 
Q 959 2388 959 1747 
Q 959 1106 1268 751 
Q 1578 397 2138 397 
Q 2388 397 2633 464 
Q 2878 531 3122 666 
L 3122 134 
Q 2881 22 2623 -34 
Q 2366 -91 2075 -91 
Q 1284 -91 818 406 
Q 353 903 353 1747 
Q 353 2603 823 3093 
Q 1294 3584 2113 3584 
Q 2378 3584 2631 3529 
Q 2884 3475 3122 3366 
z
" transform="scale(0.015625)"/>
       <path id="DejaVuSans-66" d="M 2375 4863 
L 2375 4384 
L 1825 4384 
Q 1516 4384 1395 4259 
Q 1275 4134 1275 3809 
L 1275 3500 
L 2222 3500 
L 2222 3053 
L 1275 3053 
L 1275 0 
L 697 0 
L 697 3053 
L 147 3053 
L 147 3500 
L 697 3500 
L 697 3744 
Q 697 4328 969 4595 
Q 1241 4863 1831 4863 
L 2375 4863 
z
" transform="scale(0.015625)"/>
       <path id="DejaVuSans-6f" d="M 1959 3097 
Q 1497 3097 1228 2736 
Q 959 2375 959 1747 
Q 959 1119 1226 758 
Q 1494 397 1959 397 
Q 2419 397 2687 759 
Q 2956 1122 2956 1747 
Q 2956 2369 2687 2733 
Q 2419 3097 1959 3097 
z
M 1959 3584 
Q 2709 3584 3137 3096 
Q 3566 2609 3566 1747 
Q 3566 888 3137 398 
Q 2709 -91 1959 -91 
Q 1206 -91 779 398 
Q 353 888 353 1747 
Q 353 2609 779 3096 
Q 1206 3584 1959 3584 
z
" transform="scale(0.015625)"/>
       <path id="DejaVuSans-6d" d="M 3328 2828 
Q 3544 3216 3844 3400 
Q 4144 3584 4550 3584 
Q 5097 3584 5394 3201 
Q 5691 2819 5691 2113 
L 5691 0 
L 5113 0 
L 5113 2094 
Q 5113 2597 4934 2840 
Q 4756 3084 4391 3084 
Q 3944 3084 3684 2787 
Q 3425 2491 3425 1978 
L 3425 0 
L 2847 0 
L 2847 2094 
Q 2847 2600 2669 2842 
Q 2491 3084 2119 3084 
Q 1678 3084 1418 2786 
Q 1159 2488 1159 1978 
L 1159 0 
L 581 0 
L 581 3500 
L 1159 3500 
L 1159 2956 
Q 1356 3278 1631 3431 
Q 1906 3584 2284 3584 
Q 2666 3584 2933 3390 
Q 3200 3197 3328 2828 
z
" transform="scale(0.015625)"/>
       <path id="DejaVuSans-52" d="M 2841 2188 
Q 3044 2119 3236 1894 
Q 3428 1669 3622 1275 
L 4263 0 
L 3584 0 
L 2988 1197 
Q 2756 1666 2539 1819 
Q 2322 1972 1947 1972 
L 1259 1972 
L 1259 0 
L 628 0 
L 628 4666 
L 2053 4666 
Q 2853 4666 3247 4331 
Q 3641 3997 3641 3322 
Q 3641 2881 3436 2590 
Q 3231 2300 2841 2188 
z
M 1259 4147 
L 1259 2491 
L 2053 2491 
Q 2509 2491 2742 2702 
Q 2975 2913 2975 3322 
Q 2975 3731 2742 3939 
Q 2509 4147 2053 4147 
L 1259 4147 
z
" transform="scale(0.015625)"/>
       <path id="DejaVuSans-4f" d="M 2522 4238 
Q 1834 4238 1429 3725 
Q 1025 3213 1025 2328 
Q 1025 1447 1429 934 
Q 1834 422 2522 422 
Q 3209 422 3611 934 
Q 4013 1447 4013 2328 
Q 4013 3213 3611 3725 
Q 3209 4238 2522 4238 
z
M 2522 4750 
Q 3503 4750 4090 4092 
Q 4678 3434 4678 2328 
Q 4678 1225 4090 567 
Q 3503 -91 2522 -91 
Q 1538 -91 948 565 
Q 359 1222 359 2328 
Q 359 3434 948 4092 
Q 1538 4750 2522 4750 
z
" transform="scale(0.015625)"/>
       <path id="DejaVuSans-49" d="M 628 4666 
L 1259 4666 
L 1259 0 
L 628 0 
L 628 4666 
z
" transform="scale(0.015625)"/>
       <path id="DejaVuSans-28" d="M 1984 4856 
Q 1566 4138 1362 3434 
Q 1159 2731 1159 2009 
Q 1159 1288 1364 580 
Q 1569 -128 1984 -844 
L 1484 -844 
Q 1016 -109 783 600 
Q 550 1309 550 2009 
Q 550 2706 781 3412 
Q 1013 4119 1484 4856 
L 1984 4856 
z
" transform="scale(0.015625)"/>
       <path id="DejaVuSans-Oblique-3c3" d="M 2219 3044 
Q 1744 3044 1422 2700 
Q 1081 2341 969 1747 
Q 844 1119 1044 756 
Q 1241 397 1706 397 
Q 2166 397 2503 759 
Q 2844 1122 2966 1747 
Q 3075 2319 2881 2700 
Q 2700 3044 2219 3044 
z
M 2309 3503 
L 4219 3500 
L 4106 2925 
L 3463 2925 
Q 3706 2438 3575 1747 
Q 3406 888 2884 400 
Q 2359 -91 1609 -91 
Q 856 -91 525 400 
Q 194 888 363 1747 
Q 528 2609 1050 3097 
Q 1484 3503 2309 3503 
z
" transform="scale(0.015625)"/>
       <path id="DejaVuSans-29" d="M 513 4856 
L 1013 4856 
Q 1481 4119 1714 3412 
Q 1947 2706 1947 2009 
Q 1947 1309 1714 600 
Q 1481 -109 1013 -844 
L 513 -844 
Q 928 -128 1133 580 
Q 1338 1288 1338 2009 
Q 1338 2731 1133 3434 
Q 928 4138 513 4856 
z
" transform="scale(0.015625)"/>
      </defs>
      <use xlink:href="#DejaVuSans-72" transform="translate(0 0.015625)"/>
      <use xlink:href="#DejaVuSans-65" transform="translate(41.113281 0.015625)"/>
      <use xlink:href="#DejaVuSans-6c" transform="translate(102.636719 0.015625)"/>
      <use xlink:href="#DejaVuSans-61" transform="translate(130.419922 0.015625)"/>
      <use xlink:href="#DejaVuSans-74" transform="translate(191.699219 0.015625)"/>
      <use xlink:href="#DejaVuSans-69" transform="translate(230.908203 0.015625)"/>
      <use xlink:href="#DejaVuSans-76" transform="translate(258.691406 0.015625)"/>
      <use xlink:href="#DejaVuSans-65" transform="translate(317.871094 0.015625)"/>
      <use xlink:href="#DejaVuSans-20" transform="translate(379.394531 0.015625)"/>
      <use xlink:href="#DejaVuSans-64" transform="translate(411.181641 0.015625)"/>
      <use xlink:href="#DejaVuSans-69" transform="translate(474.658203 0.015625)"/>
      <use xlink:href="#DejaVuSans-73" transform="translate(502.441406 0.015625)"/>
      <use xlink:href="#DejaVuSans-74" transform="translate(554.541016 0.015625)"/>
      <use xlink:href="#DejaVuSans-61" transform="translate(593.75 0.015625)"/>
      <use xlink:href="#DejaVuSans-6e" transform="translate(655.029297 0.015625)"/>
      <use xlink:href="#DejaVuSans-63" transform="translate(718.408203 0.015625)"/>
      <use xlink:href="#DejaVuSans-65" transform="translate(773.388672 0.015625)"/>
      <use xlink:href="#DejaVuSans-20" transform="translate(834.912109 0.015625)"/>
      <use xlink:href="#DejaVuSans-66" transform="translate(866.699219 0.015625)"/>
      <use xlink:href="#DejaVuSans-72" transform="translate(901.904297 0.015625)"/>
      <use xlink:href="#DejaVuSans-6f" transform="translate(943.017578 0.015625)"/>
      <use xlink:href="#DejaVuSans-6d" transform="translate(1004.199219 0.015625)"/>
      <use xlink:href="#DejaVuSans-20" transform="translate(1101.611328 0.015625)"/>
      <use xlink:href="#DejaVuSans-52" transform="translate(1133.398438 0.015625)"/>
      <use xlink:href="#DejaVuSans-4f" transform="translate(1202.880859 0.015625)"/>
      <use xlink:href="#DejaVuSans-49" transform="translate(1281.591797 0.015625)"/>
      <use xlink:href="#DejaVuSans-20" transform="translate(1311.083984 0.015625)"/>
      <use xlink:href="#DejaVuSans-63" transform="translate(1342.871094 0.015625)"/>
      <use xlink:href="#DejaVuSans-65" transform="translate(1397.851562 0.015625)"/>
      <use xlink:href="#DejaVuSans-6e" transform="translate(1459.375 0.015625)"/>
      <use xlink:href="#DejaVuSans-74" transform="translate(1522.753906 0.015625)"/>
      <use xlink:href="#DejaVuSans-65" transform="translate(1561.962891 0.015625)"/>
      <use xlink:href="#DejaVuSans-72" transform="translate(1623.486328 0.015625)"/>
      <use xlink:href="#DejaVuSans-20" transform="translate(1664.599609 0.015625)"/>
      <use xlink:href="#DejaVuSans-28" transform="translate(1696.386719 0.015625)"/>
      <use xlink:href="#DejaVuSans-Oblique-3c3" transform="translate(1735.400391 0.015625)"/>
      <use xlink:href="#DejaVuSans-29" transform="translate(1798.779297 0.015625)"/>
     </g>
    </g>
   </g>
   <g id="matplotlib.axis_2">
    <g id="ytick_1">
     <g id="line2d_7">
      <defs>
       <path id="m49fa74ddd1" d="M 0 0 
L -3.5 0 
" style="stroke: #000000; stroke-width: 0.8"/>
      </defs>
      <g>
       <use xlink:href="#m49fa74ddd1" x="50" y="376.457143" style="stroke: #000000; stroke-width: 0.8"/>
      </g>
     </g>
     <g id="text_8">
      <!-- −5 -->
      <g transform="translate(28.257812 380.256362) scale(0.1 -0.1)">
       <defs>
        <path id="DejaVuSans-2212" d="M 678 2272 
L 4684 2272 
L 4684 1741 
L 678 1741 
L 678 2272 
z
" transform="scale(0.015625)"/>
       </defs>
       <use xlink:href="#DejaVuSans-2212"/>
       <use xlink:href="#DejaVuSans-35" x="83.789062"/>
      </g>
     </g>
    </g>
    <g id="ytick_2">
     <g id="line2d_8">
      <g>
       <use xlink:href="#m49fa74ddd1" x="50" y="345.6" style="stroke: #000000; stroke-width: 0.8"/>
      </g>
     </g>
     <g id="text_9">
      <!-- 0 -->
      <g transform="translate(36.6375 349.399219) scale(0.1 -0.1)">
       <use xlink:href="#DejaVuSans-30"/>
      </g>
     </g>
    </g>
    <g id="ytick_3">
     <g id="line2d_9">
      <g>
       <use xlink:href="#m49fa74ddd1" x="50" y="314.742857" style="stroke: #000000; stroke-width: 0.8"/>
      </g>
     </g>
     <g id="text_10">
      <!-- 5 -->
      <g transform="translate(36.6375 318.542076) scale(0.1 -0.1)">
       <use xlink:href="#DejaVuSans-35"/>
      </g>
     </g>
    </g>
    <g id="text_11">
     <!-- BOLD % change -->
     <g transform="translate(22.594062 377.79625) rotate(-90) scale(0.08 -0.08)">
      <defs>
       <path id="DejaVuSans-42" d="M 1259 2228 
L 1259 519 
L 2272 519 
Q 2781 519 3026 730 
Q 3272 941 3272 1375 
Q 3272 1813 3026 2020 
Q 2781 2228 2272 2228 
L 1259 2228 
z
M 1259 4147 
L 1259 2741 
L 2194 2741 
Q 2656 2741 2882 2914 
Q 3109 3088 3109 3444 
Q 3109 3797 2882 3972 
Q 2656 4147 2194 4147 
L 1259 4147 
z
M 628 4666 
L 2241 4666 
Q 2963 4666 3353 4366 
Q 3744 4066 3744 3513 
Q 3744 3084 3544 2831 
Q 3344 2578 2956 2516 
Q 3422 2416 3680 2098 
Q 3938 1781 3938 1306 
Q 3938 681 3513 340 
Q 3088 0 2303 0 
L 628 0 
L 628 4666 
z
" transform="scale(0.015625)"/>
       <path id="DejaVuSans-4c" d="M 628 4666 
L 1259 4666 
L 1259 531 
L 3531 531 
L 3531 0 
L 628 0 
L 628 4666 
z
" transform="scale(0.015625)"/>
       <path id="DejaVuSans-44" d="M 1259 4147 
L 1259 519 
L 2022 519 
Q 2988 519 3436 956 
Q 3884 1394 3884 2338 
Q 3884 3275 3436 3711 
Q 2988 4147 2022 4147 
L 1259 4147 
z
M 628 4666 
L 1925 4666 
Q 3281 4666 3915 4102 
Q 4550 3538 4550 2338 
Q 4550 1131 3912 565 
Q 3275 0 1925 0 
L 628 0 
L 628 4666 
z
" transform="scale(0.015625)"/>
       <path id="DejaVuSans-25" d="M 4653 2053 
Q 4381 2053 4226 1822 
Q 4072 1591 4072 1178 
Q 4072 772 4226 539 
Q 4381 306 4653 306 
Q 4919 306 5073 539 
Q 5228 772 5228 1178 
Q 5228 1588 5073 1820 
Q 4919 2053 4653 2053 
z
M 4653 2450 
Q 5147 2450 5437 2106 
Q 5728 1763 5728 1178 
Q 5728 594 5436 251 
Q 5144 -91 4653 -91 
Q 4153 -91 3862 251 
Q 3572 594 3572 1178 
Q 3572 1766 3864 2108 
Q 4156 2450 4653 2450 
z
M 1428 4353 
Q 1159 4353 1004 4120 
Q 850 3888 850 3481 
Q 850 3069 1003 2837 
Q 1156 2606 1428 2606 
Q 1700 2606 1854 2837 
Q 2009 3069 2009 3481 
Q 2009 3884 1853 4118 
Q 1697 4353 1428 4353 
z
M 4250 4750 
L 4750 4750 
L 1831 -91 
L 1331 -91 
L 4250 4750 
z
M 1428 4750 
Q 1922 4750 2215 4408 
Q 2509 4066 2509 3481 
Q 2509 2891 2217 2550 
Q 1925 2209 1428 2209 
Q 931 2209 642 2551 
Q 353 2894 353 3481 
Q 353 4063 643 4406 
Q 934 4750 1428 4750 
z
" transform="scale(0.015625)"/>
       <path id="DejaVuSans-68" d="M 3513 2113 
L 3513 0 
L 2938 0 
L 2938 2094 
Q 2938 2591 2744 2837 
Q 2550 3084 2163 3084 
Q 1697 3084 1428 2787 
Q 1159 2491 1159 1978 
L 1159 0 
L 581 0 
L 581 4863 
L 1159 4863 
L 1159 2956 
Q 1366 3272 1645 3428 
Q 1925 3584 2291 3584 
Q 2894 3584 3203 3211 
Q 3513 2838 3513 2113 
z
" transform="scale(0.015625)"/>
       <path id="DejaVuSans-67" d="M 2906 1791 
Q 2906 2416 2648 2759 
Q 2391 3103 1925 3103 
Q 1463 3103 1205 2759 
Q 947 2416 947 1791 
Q 947 1169 1205 825 
Q 1463 481 1925 481 
Q 2391 481 2648 825 
Q 2906 1169 2906 1791 
z
M 3481 434 
Q 3481 -459 3084 -895 
Q 2688 -1331 1869 -1331 
Q 1566 -1331 1297 -1286 
Q 1028 -1241 775 -1147 
L 775 -588 
Q 1028 -725 1275 -790 
Q 1522 -856 1778 -856 
Q 2344 -856 2625 -561 
Q 2906 -266 2906 331 
L 2906 616 
Q 2728 306 2450 153 
Q 2172 0 1784 0 
Q 1141 0 747 490 
Q 353 981 353 1791 
Q 353 2603 747 3093 
Q 1141 3584 1784 3584 
Q 2172 3584 2450 3431 
Q 2728 3278 2906 2969 
L 2906 3500 
L 3481 3500 
L 3481 434 
z
" transform="scale(0.015625)"/>
      </defs>
      <use xlink:href="#DejaVuSans-42"/>
      <use xlink:href="#DejaVuSans-4f" x="66.853516"/>
      <use xlink:href="#DejaVuSans-4c" x="145.564453"/>
      <use xlink:href="#DejaVuSans-44" x="201.277344"/>
      <use xlink:href="#DejaVuSans-20" x="278.279297"/>
      <use xlink:href="#DejaVuSans-25" x="310.066406"/>
      <use xlink:href="#DejaVuSans-20" x="405.085938"/>
      <use xlink:href="#DejaVuSans-63" x="436.873047"/>
      <use xlink:href="#DejaVuSans-68" x="491.853516"/>
      <use xlink:href="#DejaVuSans-61" x="555.232422"/>
      <use xlink:href="#DejaVuSans-6e" x="616.511719"/>
      <use xlink:href="#DejaVuSans-67" x="679.890625"/>
      <use xlink:href="#DejaVuSans-65" x="743.367188"/>
     </g>
    </g>
   </g>
   <g id="line2d_10">
    <path d="M 65.454545 345.308179 
L 70.12987 344.972603 
L 74.805195 344.795388 
L 79.480519 344.300226 
L 84.155844 344.161725 
L 88.831169 344.40896 
L 93.506494 344.735786 
L 98.181818 345.286041 
L 102.857143 345.793896 
L 107.532468 346.373993 
L 112.207792 346.817491 
L 116.883117 347.433414 
L 121.558442 347.86774 
L 126.233766 347.675138 
L 130.909091 347.457925 
L 135.584416 347.122116 
L 140.25974 347.071825 
L 144.935065 347.444459 
L 149.61039 347.731118 
L 154.285714 348.055809 
L 158.961039 348.038451 
L 163.636364 348.118341 
L 168.311688 348.13294 
L 172.987013 348.438295 
L 177.662338 348.818973 
L 182.337662 349.198259 
L 187.012987 349.797173 
L 191.688312 350.427353 
L 196.363636 350.486546 
L 201.038961 350.632219 
L 205.714286 350.962658 
L 210.38961 351.679826 
L 215.064935 352.382348 
L 219.74026 352.588989 
L 224.415584 352.332708 
L 229.090909 351.839678 
L 233.766234 351.230103 
L 238.441558 350.882301 
L 243.116883 350.704242 
L 247.792208 350.579799 
L 252.467532 350.45727 
L 257.142857 350.305085 
L 261.818182 350.502724 
L 266.493506 350.938945 
L 271.168831 351.508735 
L 275.844156 352.218922 
L 280.519481 352.616505 
L 285.194805 352.905514 
L 289.87013 353.11367 
L 294.545455 353.117464 
" clip-path="url(#p9203e8f2ad)" style="fill: none; stroke: #ffa500; stroke-width: 1.5; stroke-linecap: square"/>
   </g>
   <g id="line2d_11">
    <path d="M 65.454545 338.274854 
L 70.12987 339.133434 
L 74.805195 340.251355 
L 79.480519 340.939589 
L 84.155844 342.094783 
L 88.831169 343.330064 
L 93.506494 344.073298 
L 98.181818 346.342607 
L 102.857143 348.493945 
L 107.532468 350.250553 
L 112.207792 351.691573 
L 116.883117 352.282017 
L 121.558442 352.825362 
L 126.233766 352.820792 
L 130.909091 353.24582 
L 135.584416 354.366882 
L 140.25974 354.576819 
L 144.935065 353.897969 
L 149.61039 352.645867 
L 154.285714 352.215153 
L 158.961039 351.809128 
L 163.636364 351.779861 
L 168.311688 351.975958 
L 172.987013 352.431017 
L 177.662338 353.118408 
L 182.337662 353.153941 
L 187.012987 353.705612 
L 191.688312 354.20467 
L 196.363636 353.869791 
L 201.038961 353.669056 
L 205.714286 353.599243 
L 210.38961 354.592205 
L 215.064935 355.353438 
L 219.74026 355.44961 
L 224.415584 355.421386 
L 229.090909 354.631952 
L 233.766234 355.11099 
L 238.441558 355.714693 
L 243.116883 354.930902 
L 247.792208 352.895144 
L 252.467532 350.523836 
L 257.142857 347.151307 
L 261.818182 345.462544 
L 266.493506 345.620785 
L 271.168831 346.541971 
L 275.844156 347.833779 
L 280.519481 350.086292 
L 285.194805 351.62035 
L 289.87013 352.708956 
L 294.545455 351.926523 
" clip-path="url(#p9203e8f2ad)" style="fill: none; stroke: #ffa500; stroke-opacity: 0.2; stroke-width: 1.5; stroke-linecap: square"/>
   </g>
   <g id="line2d_12">
    <path d="M 65.454545 342.409044 
L 70.12987 342.409044 
L 74.805195 341.34804 
L 79.480519 340.25166 
L 84.155844 340.274335 
L 88.831169 339.505979 
L 93.506494 339.061845 
L 98.181818 339.227452 
L 102.857143 339.737872 
L 107.532468 341.258371 
L 112.207792 342.221355 
L 116.883117 342.630267 
L 121.558442 342.664853 
L 126.233766 342.097905 
L 130.909091 341.440097 
L 135.584416 340.908726 
L 140.25974 340.148419 
L 144.935065 339.646417 
L 149.61039 338.916405 
L 154.285714 339.150713 
L 158.961039 339.465851 
L 163.636364 340.215106 
L 168.311688 340.598186 
L 172.987013 341.096603 
L 177.662338 341.739342 
L 182.337662 342.102377 
L 187.012987 342.082582 
L 191.688312 341.962194 
L 196.363636 341.58748 
L 201.038961 341.930636 
L 205.714286 342.314412 
L 210.38961 342.689322 
L 215.064935 342.290634 
L 219.74026 341.733405 
L 224.415584 341.246426 
L 229.090909 340.371942 
L 233.766234 339.48449 
L 238.441558 339.094173 
L 243.116883 338.878342 
L 247.792208 338.817347 
L 252.467532 338.357343 
L 257.142857 337.793814 
L 261.818182 337.408947 
L 266.493506 337.453794 
L 271.168831 337.698845 
L 275.844156 337.788919 
L 280.519481 338.576696 
L 285.194805 339.289347 
L 289.87013 339.974643 
L 294.545455 340.193938 
" clip-path="url(#p9203e8f2ad)" style="fill: none; stroke: #ffa500; stroke-opacity: 0.2; stroke-width: 1.5; stroke-linecap: square"/>
   </g>
   <g id="line2d_13">
    <path d="M 65.454545 359.09499 
L 70.12987 358.881889 
L 74.805195 358.953901 
L 79.480519 359.352197 
L 84.155844 359.21659 
L 88.831169 359.952665 
L 93.506494 360.864632 
L 98.181818 359.986203 
L 102.857143 359.23783 
L 107.532468 359.18158 
L 112.207792 358.733804 
L 116.883117 358.847806 
L 121.558442 358.985607 
L 126.233766 358.348782 
L 130.909091 357.492617 
L 135.584416 356.369821 
L 140.25974 355.528311 
L 144.935065 355.213888 
L 149.61039 354.82237 
L 154.285714 354.169204 
L 158.961039 353.835144 
L 163.636364 353.364411 
L 168.311688 353.373432 
L 172.987013 353.601223 
L 177.662338 353.683459 
L 182.337662 353.85721 
L 187.012987 353.858281 
L 191.688312 354.08814 
L 196.363636 354.799905 
L 201.038961 355.969992 
L 205.714286 357.020276 
L 210.38961 357.142383 
L 215.064935 356.914408 
L 219.74026 356.147613 
L 224.415584 355.168383 
L 229.090909 354.774656 
L 233.766234 353.58793 
L 238.441558 352.72019 
L 243.116883 351.793004 
L 247.792208 351.264281 
L 252.467532 350.366394 
L 257.142857 349.775817 
L 261.818182 349.4793 
L 266.493506 349.243476 
L 271.168831 349.398052 
L 275.844156 351.040795 
L 280.519481 351.707273 
L 285.194805 351.719725 
L 289.87013 351.975513 
L 294.545455 351.638887 
" clip-path="url(#p9203e8f2ad)" style="fill: none; stroke: #ffa500; stroke-opacity: 0.2; stroke-width: 1.5; stroke-linecap: square"/>
   </g>
   <g id="line2d_14">
    <path d="M 65.454545 327.225768 
L 70.12987 327.225768 
L 74.805195 327.136617 
L 79.480519 327.138391 
L 84.155844 327.616604 
L 88.831169 328.530547 
L 93.506494 329.097324 
L 98.181818 330.418091 
L 102.857143 330.929999 
L 107.532468 331.781375 
L 112.207792 333.050966 
L 116.883117 334.237689 
L 121.558442 335.107657 
L 126.233766 335.051066 
L 130.909091 335.215352 
L 135.584416 335.469639 
L 140.25974 335.806328 
L 144.935065 337.095888 
L 149.61039 338.130712 
L 154.285714 339.090226 
L 158.961039 340.265271 
L 163.636364 341.391803 
L 168.311688 342.66817 
L 172.987013 344.115359 
L 177.662338 345.790214 
L 182.337662 347.455296 
L 187.012987 349.044658 
L 191.688312 350.807183 
L 196.363636 351.740459 
L 201.038961 352.342526 
L 205.714286 352.668396 
L 210.38961 352.958877 
L 215.064935 353.443004 
L 219.74026 353.714225 
L 224.415584 353.705158 
L 229.090909 353.768335 
L 233.766234 353.785145 
L 238.441558 354.045706 
L 243.116883 354.648271 
L 247.792208 355.577039 
L 252.467532 356.034915 
L 257.142857 356.093191 
L 261.818182 356.22308 
L 266.493506 356.793391 
L 271.168831 357.587126 
L 275.844156 357.842236 
L 280.519481 357.366175 
L 285.194805 356.556828 
L 289.87013 355.932749 
L 294.545455 355.41722 
" clip-path="url(#p9203e8f2ad)" style="fill: none; stroke: #ffa500; stroke-opacity: 0.2; stroke-width: 1.5; stroke-linecap: square"/>
   </g>
   <g id="line2d_15">
    <path d="M 65.454545 359.064273 
L 70.12987 358.914212 
L 74.805195 357.722029 
L 79.480519 357.274619 
L 84.155844 354.095832 
L 88.831169 350.452456 
L 93.506494 348.002643 
L 98.181818 347.900307 
L 102.857143 347.819199 
L 107.532468 348.503051 
L 112.207792 348.905983 
L 116.883117 348.730455 
L 121.558442 347.151036 
L 126.233766 347.010942 
L 130.909091 347.046518 
L 135.584416 348.614419 
L 140.25974 350.513762 
L 144.935065 351.621799 
L 149.61039 350.954064 
L 154.285714 349.156118 
L 158.961039 347.379503 
L 163.636364 347.14561 
L 168.311688 347.130735 
L 172.987013 347.555558 
L 177.662338 346.95579 
L 182.337662 347.773985 
L 187.012987 349.988375 
L 191.688312 351.489724 
L 196.363636 352.656557 
L 201.038961 355.052112 
L 205.714286 356.913638 
L 210.38961 358.526618 
L 215.064935 359.184242 
L 219.74026 359.71442 
L 224.415584 360.282738 
L 229.090909 361.064681 
L 233.766234 360.964127 
L 238.441558 360.136478 
L 243.116883 359.964889 
L 247.792208 359.974212 
L 252.467532 360.258824 
L 257.142857 360.314697 
L 261.818182 360.857319 
L 266.493506 360.509066 
L 271.168831 359.832578 
L 275.844156 359.615269 
L 280.519481 359.249831 
L 285.194805 358.632136 
L 289.87013 357.697152 
L 294.545455 357.864404 
" clip-path="url(#p9203e8f2ad)" style="fill: none; stroke: #ffa500; stroke-opacity: 0.2; stroke-width: 1.5; stroke-linecap: square"/>
   </g>
   <g id="line2d_16">
    <path d="M 65.454545 320.665675 
L 70.12987 322.767656 
L 74.805195 326.211163 
L 79.480519 328.135192 
L 84.155844 332.619171 
L 88.831169 337.2849 
L 93.506494 342.735175 
L 98.181818 346.785407 
L 102.857143 348.791519 
L 107.532468 349.01426 
L 112.207792 346.658401 
L 116.883117 345.847565 
L 121.558442 347.812652 
L 126.233766 347.622053 
L 130.909091 346.239927 
L 135.584416 342.805689 
L 140.25974 341.900008 
L 144.935065 342.756671 
L 149.61039 344.934272 
L 154.285714 347.784084 
L 158.961039 347.661203 
L 163.636364 347.634856 
L 168.311688 346.628563 
L 172.987013 345.385151 
L 177.662338 344.992864 
L 182.337662 344.281635 
L 187.012987 345.682517 
L 191.688312 347.463798 
L 196.363636 346.312833 
L 201.038961 344.628211 
L 205.714286 345.066032 
L 210.38961 346.025092 
L 215.064935 347.372441 
L 219.74026 346.832533 
L 224.415584 345.606341 
L 229.090909 343.298926 
L 233.766234 342.997538 
L 238.441558 344.131605 
L 243.116883 344.723932 
L 247.792208 344.176395 
L 252.467532 344.607219 
L 257.142857 344.701968 
L 261.818182 344.466745 
L 266.493506 345.397794 
L 271.168831 347.001933 
L 275.844156 349.310225 
L 280.519481 350.143618 
L 285.194805 351.162078 
L 289.87013 351.453091 
L 294.545455 350.345954 
" clip-path="url(#p9203e8f2ad)" style="fill: none; stroke: #ffa500; stroke-opacity: 0.2; stroke-width: 1.5; stroke-linecap: square"/>
   </g>
   <g id="line2d_17">
    <path d="M 65.454545 329.96637 
L 70.12987 329.684393 
L 74.805195 328.71381 
L 79.480519 327.864989 
L 84.155844 327.239111 
L 88.831169 326.429399 
L 93.506494 326.671246 
L 98.181818 326.607152 
L 102.857143 326.93126 
L 107.532468 327.519482 
L 112.207792 327.651802 
L 116.883117 327.531239 
L 121.558442 327.606456 
L 126.233766 327.377282 
L 130.909091 327.254023 
L 135.584416 327.767654 
L 140.25974 328.598776 
L 144.935065 329.726129 
L 149.61039 330.59308 
L 154.285714 331.349369 
L 158.961039 332.01635 
L 163.636364 332.933546 
L 168.311688 334.007904 
L 172.987013 335.072907 
L 177.662338 335.892845 
L 182.337662 336.584767 
L 187.012987 337.202615 
L 191.688312 337.831295 
L 196.363636 338.484254 
L 201.038961 338.885122 
L 205.714286 339.403994 
L 210.38961 339.564897 
L 215.064935 339.796348 
L 219.74026 339.844283 
L 224.415584 340.330172 
L 229.090909 341.153289 
L 233.766234 341.637445 
L 238.441558 342.442681 
L 243.116883 343.436728 
L 247.792208 344.300825 
L 252.467532 345.446225 
L 257.142857 346.886724 
L 261.818182 348.449464 
L 266.493506 349.625367 
L 271.168831 351.055792 
L 275.844156 353.016607 
L 280.519481 353.872421 
L 285.194805 354.051119 
L 289.87013 354.302144 
L 294.545455 354.834657 
" clip-path="url(#p9203e8f2ad)" style="fill: none; stroke: #ffa500; stroke-opacity: 0.2; stroke-width: 1.5; stroke-linecap: square"/>
   </g>
   <g id="line2d_18">
    <path d="M 65.454545 353.352482 
L 70.12987 353.532405 
L 74.805195 354.343674 
L 79.480519 353.727858 
L 84.155844 353.319638 
L 88.831169 353.520846 
L 93.506494 352.942687 
L 98.181818 352.788329 
L 102.857143 352.875068 
L 107.532468 352.850173 
L 112.207792 352.066017 
L 116.883117 351.24044 
L 121.558442 350.506046 
L 126.233766 350.253004 
L 130.909091 349.692236 
L 135.584416 349.800399 
L 140.25974 349.875722 
L 144.935065 349.904166 
L 149.61039 349.735748 
L 154.285714 349.528264 
L 158.961039 349.354364 
L 163.636364 349.25965 
L 168.311688 349.248843 
L 172.987013 349.494693 
L 177.662338 350.020213 
L 182.337662 350.357888 
L 187.012987 350.479018 
L 191.688312 350.524958 
L 196.363636 350.380801 
L 201.038961 350.000224 
L 205.714286 349.480268 
L 210.38961 349.562398 
L 215.064935 349.578571 
L 219.74026 349.493678 
L 224.415584 348.866077 
L 229.090909 348.364388 
L 233.766234 347.656832 
L 238.441558 347.291178 
L 243.116883 347.297414 
L 247.792208 347.423696 
L 252.467532 347.814825 
L 257.142857 348.197482 
L 261.818182 348.149708 
L 266.493506 348.23544 
L 271.168831 348.354388 
L 275.844156 348.569479 
L 280.519481 348.380769 
L 285.194805 348.29391 
L 289.87013 348.145846 
L 294.545455 348.293522 
" clip-path="url(#p9203e8f2ad)" style="fill: none; stroke: #ffa500; stroke-opacity: 0.2; stroke-width: 1.5; stroke-linecap: square"/>
   </g>
   <g id="line2d_19">
    <path d="M 65.454545 352.280363 
L 70.12987 351.357324 
L 74.805195 350.750576 
L 79.480519 349.381814 
L 84.155844 349.006013 
L 88.831169 349.989253 
L 93.506494 350.347663 
L 98.181818 349.690562 
L 102.857143 348.185402 
L 107.532468 346.206743 
L 112.207792 344.790277 
L 116.883117 344.397611 
L 121.558442 343.928388 
L 126.233766 343.552703 
L 130.909091 343.572299 
L 135.584416 344.138253 
L 140.25974 345.469307 
L 144.935065 346.904312 
L 149.61039 347.964707 
L 154.285714 348.54579 
L 158.961039 349.03975 
L 163.636364 349.447939 
L 168.311688 349.380551 
L 172.987013 349.39608 
L 177.662338 349.205734 
L 182.337662 349.417965 
L 187.012987 349.8785 
L 191.688312 350.447009 
L 196.363636 351.167931 
L 201.038961 351.688667 
L 205.714286 351.743502 
L 210.38961 351.507463 
L 215.064935 351.529181 
L 219.74026 351.635828 
L 224.415584 351.649525 
L 229.090909 351.443204 
L 233.766234 350.44977 
L 238.441558 349.780483 
L 243.116883 349.311134 
L 247.792208 349.258166 
L 252.467532 349.501488 
L 257.142857 350.126353 
L 261.818182 351.158977 
L 266.493506 352.384626 
L 271.168831 353.406366 
L 275.844156 353.59571 
L 280.519481 353.747487 
L 285.194805 353.920299 
L 289.87013 353.110759 
L 294.545455 353.112418 
" clip-path="url(#p9203e8f2ad)" style="fill: none; stroke: #ffa500; stroke-opacity: 0.2; stroke-width: 1.5; stroke-linecap: square"/>
   </g>
   <g id="line2d_20">
    <path d="M 65.454545 363.536711 
L 70.12987 357.930937 
L 74.805195 353.585739 
L 79.480519 349.022329 
L 84.155844 347.662666 
L 88.831169 347.42602 
L 93.506494 346.474195 
L 98.181818 346.745772 
L 102.857143 347.965882 
L 107.532468 350.969401 
L 112.207792 355.790882 
L 116.883117 362.245705 
L 121.558442 366.014635 
L 126.233766 366.651171 
L 130.909091 367.151791 
L 135.584416 364.510426 
L 140.25974 362.104722 
L 144.935065 361.865956 
L 149.61039 363.153642 
L 154.285714 364.4457 
L 158.961039 364.179392 
L 163.636364 362.126875 
L 168.311688 360.333508 
L 172.987013 360.914158 
L 177.662338 362.318047 
L 182.337662 363.219536 
L 187.012987 363.479909 
L 191.688312 363.966214 
L 196.363636 363.213454 
L 201.038961 362.32439 
L 205.714286 362.060585 
L 210.38961 365.344603 
L 215.064935 369.08699 
L 219.74026 370.835366 
L 224.415584 369.230738 
L 229.090909 366.788872 
L 233.766234 362.976801 
L 238.441558 359.583593 
L 243.116883 357.814063 
L 247.792208 357.199437 
L 252.467532 356.685948 
L 257.142857 356.801104 
L 261.818182 357.817077 
L 266.493506 358.163769 
L 271.168831 358.089299 
L 275.844156 358.391599 
L 280.519481 358.26813 
L 285.194805 359.13546 
L 289.87013 361.308708 
L 294.545455 362.465768 
" clip-path="url(#p9203e8f2ad)" style="fill: none; stroke: #ffa500; stroke-opacity: 0.2; stroke-width: 1.5; stroke-linecap: square"/>
   </g>
   <g id="line2d_21">
    <path d="M 65.454545 352.519439 
L 70.12987 352.861575 
L 74.805195 353.732367 
L 79.480519 354.213843 
L 84.155844 352.634235 
L 88.831169 352.076427 
L 93.506494 351.822934 
L 98.181818 351.654567 
L 102.857143 352.764885 
L 107.532468 352.578938 
L 112.207792 353.431336 
L 116.883117 353.776758 
L 121.558442 353.942446 
L 126.233766 353.64082 
L 130.909091 353.686497 
L 135.584416 353.591365 
L 140.25974 353.267907 
L 144.935065 353.255853 
L 149.61039 353.191434 
L 154.285714 353.179277 
L 158.961039 353.417009 
L 163.636364 354.002097 
L 168.311688 354.116488 
L 172.987013 353.758491 
L 177.662338 353.291789 
L 182.337662 352.976243 
L 187.012987 352.36684 
L 191.688312 351.915699 
L 196.363636 351.138543 
L 201.038961 350.463468 
L 205.714286 350.318896 
L 210.38961 350.564225 
L 215.064935 351.656568 
L 219.74026 353.077916 
L 224.415584 354.152843 
L 229.090909 354.576214 
L 233.766234 354.880068 
L 238.441558 354.764531 
L 243.116883 354.947984 
L 247.792208 355.491247 
L 252.467532 355.432949 
L 257.142857 355.513476 
L 261.818182 356.056805 
L 266.493506 356.900885 
L 271.168831 357.629737 
L 275.844156 357.403527 
L 280.519481 357.382865 
L 285.194805 357.579403 
L 289.87013 357.640812 
L 294.545455 358.198813 
" clip-path="url(#p9203e8f2ad)" style="fill: none; stroke: #ffa500; stroke-opacity: 0.2; stroke-width: 1.5; stroke-linecap: square"/>
   </g>
   <g id="line2d_22">
    <path d="M 111.272727 382.628571 
L 111.272727 308.571429 
" clip-path="url(#p9203e8f2ad)" style="fill: none; stroke-dasharray: 5.55,2.4; stroke-dashoffset: 0; stroke: #000000; stroke-width: 1.5"/>
   </g>
   <g id="line2d_23">
    <path d="M 65.454545 345.6 
L 294.545455 345.6 
" clip-path="url(#p9203e8f2ad)" style="fill: none; stroke-dasharray: 5.55,2.4; stroke-dashoffset: 0; stroke: #000000; stroke-width: 1.5"/>
   </g>
   <g id="patch_3">
    <path d="M 50 388.8 
L 50 302.4 
" style="fill: none; stroke: #000000; stroke-width: 0.8; stroke-linejoin: miter; stroke-linecap: square"/>
   </g>
   <g id="patch_4">
    <path d="M 54 392.8 
L 306 392.8 
" style="fill: none; stroke: #000000; stroke-width: 0.8; stroke-linejoin: miter; stroke-linecap: square"/>
   </g>
   <g id="text_12">
    <!-- all depths -->
    <g transform="translate(150.492188 296.4) scale(0.12 -0.12)">
     <defs>
      <path id="DejaVuSans-70" d="M 1159 525 
L 1159 -1331 
L 581 -1331 
L 581 3500 
L 1159 3500 
L 1159 2969 
Q 1341 3281 1617 3432 
Q 1894 3584 2278 3584 
Q 2916 3584 3314 3078 
Q 3713 2572 3713 1747 
Q 3713 922 3314 415 
Q 2916 -91 2278 -91 
Q 1894 -91 1617 61 
Q 1341 213 1159 525 
z
M 3116 1747 
Q 3116 2381 2855 2742 
Q 2594 3103 2138 3103 
Q 1681 3103 1420 2742 
Q 1159 2381 1159 1747 
Q 1159 1113 1420 752 
Q 1681 391 2138 391 
Q 2594 391 2855 752 
Q 3116 1113 3116 1747 
z
" transform="scale(0.015625)"/>
     </defs>
     <use xlink:href="#DejaVuSans-61"/>
     <use xlink:href="#DejaVuSans-6c" x="61.279297"/>
     <use xlink:href="#DejaVuSans-6c" x="89.0625"/>
     <use xlink:href="#DejaVuSans-20" x="116.845703"/>
     <use xlink:href="#DejaVuSans-64" x="148.632812"/>
     <use xlink:href="#DejaVuSans-65" x="212.109375"/>
     <use xlink:href="#DejaVuSans-70" x="273.632812"/>
     <use xlink:href="#DejaVuSans-74" x="337.109375"/>
     <use xlink:href="#DejaVuSans-68" x="376.318359"/>
     <use xlink:href="#DejaVuSans-73" x="439.697266"/>
    </g>
   </g>
   <g id="legend_1">
    <g id="patch_5">
     <path d="M 140.753125 325.35625 
L 299 325.35625 
Q 301 325.35625 301 323.35625 
L 301 309.4 
Q 301 307.4 299 307.4 
L 140.753125 307.4 
Q 138.753125 307.4 138.753125 309.4 
L 138.753125 323.35625 
Q 138.753125 325.35625 140.753125 325.35625 
z
" style="fill: #ffffff; opacity: 0.8; stroke: #cccccc; stroke-linejoin: miter"/>
    </g>
    <g id="line2d_24">
     <path d="M 142.753125 315.498437 
L 152.753125 315.498437 
L 162.753125 315.498437 
" style="fill: none; stroke: #ffa500; stroke-width: 1.5; stroke-linecap: square"/>
    </g>
    <g id="text_13">
     <!-- V23_deep_deveined_orth -->
     <g transform="translate(170.753125 318.998437) scale(0.1 -0.1)">
      <defs>
       <path id="DejaVuSans-56" d="M 1831 0 
L 50 4666 
L 709 4666 
L 2188 738 
L 3669 4666 
L 4325 4666 
L 2547 0 
L 1831 0 
z
" transform="scale(0.015625)"/>
       <path id="DejaVuSans-5f" d="M 3263 -1063 
L 3263 -1509 
L -63 -1509 
L -63 -1063 
L 3263 -1063 
z
" transform="scale(0.015625)"/>
      </defs>
      <use xlink:href="#DejaVuSans-56"/>
      <use xlink:href="#DejaVuSans-32" x="68.408203"/>
      <use xlink:href="#DejaVuSans-33" x="132.03125"/>
      <use xlink:href="#DejaVuSans-5f" x="195.654297"/>
      <use xlink:href="#DejaVuSans-64" x="245.654297"/>
      <use xlink:href="#DejaVuSans-65" x="309.130859"/>
      <use xlink:href="#DejaVuSans-65" x="370.654297"/>
      <use xlink:href="#DejaVuSans-70" x="432.177734"/>
      <use xlink:href="#DejaVuSans-5f" x="495.654297"/>
      <use xlink:href="#DejaVuSans-64" x="545.654297"/>
      <use xlink:href="#DejaVuSans-65" x="609.130859"/>
      <use xlink:href="#DejaVuSans-76" x="670.654297"/>
      <use xlink:href="#DejaVuSans-65" x="729.833984"/>
      <use xlink:href="#DejaVuSans-69" x="791.357422"/>
      <use xlink:href="#DejaVuSans-6e" x="819.140625"/>
      <use xlink:href="#DejaVuSans-65" x="882.519531"/>
      <use xlink:href="#DejaVuSans-64" x="944.042969"/>
      <use xlink:href="#DejaVuSans-5f" x="1007.519531"/>
      <use xlink:href="#DejaVuSans-6f" x="1057.519531"/>
      <use xlink:href="#DejaVuSans-72" x="1118.701172"/>
      <use xlink:href="#DejaVuSans-74" x="1159.814453"/>
      <use xlink:href="#DejaVuSans-68" x="1199.023438"/>
     </g>
    </g>
   </g>
  </g>
 </g>
 <defs>
  <clipPath id="p9203e8f2ad">
   <rect x="54" y="302.4" width="252" height="86.4"/>
  </clipPath>
 </defs>
</svg>
