<?xml version="1.0" encoding="utf-8" standalone="no"?>
<!DOCTYPE svg PUBLIC "-//W3C//DTD SVG 1.1//EN"
  "http://www.w3.org/Graphics/SVG/1.1/DTD/svg11.dtd">
<svg xmlns:xlink="http://www.w3.org/1999/xlink" width="360pt" height="432pt" viewBox="0 0 360 432" xmlns="http://www.w3.org/2000/svg" version="1.1">
 <metadata>
  <rdf:RDF xmlns:dc="http://purl.org/dc/elements/1.1/" xmlns:cc="http://creativecommons.org/ns#" xmlns:rdf="http://www.w3.org/1999/02/22-rdf-syntax-ns#">
   <cc:Work>
    <dc:type rdf:resource="http://purl.org/dc/dcmitype/StillImage"/>
    <dc:date>2025-10-31T15:45:45.941609</dc:date>
    <dc:format>image/svg+xml</dc:format>
    <dc:creator>
     <cc:Agent>
      <dc:title>Matplotlib v3.8.0, https://matplotlib.org/</dc:title>
     </cc:Agent>
    </dc:creator>
   </cc:Work>
  </rdf:RDF>
 </metadata>
 <defs>
  <style type="text/css">*{stroke-linejoin: round; stroke-linecap: butt}</style>
 </defs>
 <g id="figure_1">
  <g id="patch_1">
   <path d="M 0 432 
L 360 432 
L 360 0 
L 0 0 
z
" style="fill: #ffffff"/>
  </g>
  <g id="axes_1">
   <g id="patch_2">
    <path d="M 54 388.8 
L 306 388.8 
L 306 302.4 
L 54 302.4 
z
" style="fill: #ffffff"/>
   </g>
   <g id="PolyCollection_1">
    <defs>
     <path id="m9e666a792d" d="M 65.454545 -99.375279 
L 65.454545 -95.651689 
L 70.12987 -95.288266 
L 74.805195 -95.009978 
L 79.480519 -94.881773 
L 84.155844 -95.270271 
L 88.831169 -95.651323 
L 93.506494 -95.930358 
L 98.181818 -96.079391 
L 102.857143 -95.984117 
L 107.532468 -95.782535 
L 112.207792 -95.556034 
L 116.883117 -95.15725 
L 121.558442 -94.836578 
L 126.233766 -94.380237 
L 130.909091 -93.886681 
L 135.584416 -93.655238 
L 140.25974 -93.147745 
L 144.935065 -92.273307 
L 149.61039 -91.176983 
L 154.285714 -89.894007 
L 158.961039 -88.831108 
L 163.636364 -88.421852 
L 168.311688 -87.668701 
L 172.987013 -86.657747 
L 177.662338 -85.717361 
L 182.337662 -84.886644 
L 187.012987 -84.101168 
L 191.688312 -83.450391 
L 196.363636 -82.855305 
L 201.038961 -82.239953 
L 205.714286 -81.542577 
L 210.38961 -80.72317 
L 215.064935 -80.116882 
L 219.74026 -79.562097 
L 224.415584 -79.04308 
L 229.090909 -78.598825 
L 233.766234 -77.967673 
L 238.441558 -77.327226 
L 243.116883 -76.882036 
L 247.792208 -76.251348 
L 252.467532 -75.62086 
L 257.142857 -74.96681 
L 261.818182 -74.385388 
L 266.493506 -73.870526 
L 271.168831 -73.276519 
L 275.844156 -72.559528 
L 280.519481 -71.549079 
L 285.194805 -70.768218 
L 289.87013 -70.708517 
L 294.545455 -70.31183 
L 294.545455 -76.512147 
L 294.545455 -76.512147 
L 289.87013 -76.540401 
L 285.194805 -76.50651 
L 280.519481 -76.779675 
L 275.844156 -77.257797 
L 271.168831 -77.696248 
L 266.493506 -78.081049 
L 261.818182 -78.423017 
L 257.142857 -78.896577 
L 252.467532 -79.472291 
L 247.792208 -80.066243 
L 243.116883 -80.801883 
L 238.441558 -81.331351 
L 233.766234 -82.157156 
L 229.090909 -83.068998 
L 224.415584 -83.550986 
L 219.74026 -84.072423 
L 215.064935 -84.583339 
L 210.38961 -84.974303 
L 205.714286 -85.6166 
L 201.038961 -86.087771 
L 196.363636 -86.537807 
L 191.688312 -86.989016 
L 187.012987 -87.483483 
L 182.337662 -88.08175 
L 177.662338 -88.692058 
L 172.987013 -89.513642 
L 168.311688 -90.492405 
L 163.636364 -91.379448 
L 158.961039 -92.246196 
L 154.285714 -93.26211 
L 149.61039 -94.225281 
L 144.935065 -95.166491 
L 140.25974 -95.908126 
L 135.584416 -96.437146 
L 130.909091 -96.822554 
L 126.233766 -97.381711 
L 121.558442 -97.84286 
L 116.883117 -98.179953 
L 112.207792 -98.502475 
L 107.532468 -98.79937 
L 102.857143 -99.063924 
L 98.181818 -99.27559 
L 93.506494 -99.203441 
L 88.831169 -99.002778 
L 84.155844 -98.880103 
L 79.480519 -98.595497 
L 74.805195 -98.796486 
L 70.12987 -99.075097 
L 65.454545 -99.375279 
z
" style="stroke: #ffd700; stroke-opacity: 0.4"/>
    </defs>
    <g clip-path="url(#p8aa768e987)">
     <use xlink:href="#m9e666a792d" x="0" y="432" style="fill: #ffd700; fill-opacity: 0.4; stroke: #ffd700; stroke-opacity: 0.4"/>
    </g>
   </g>
   <g id="matplotlib.axis_1">
    <g id="xtick_1">
     <g id="line2d_1">
      <defs>
       <path id="md22809d1e0" d="M 0 0 
L 0 3.5 
" style="stroke: #000000; stroke-width: 0.8"/>
      </defs>
      <g>
       <use xlink:href="#md22809d1e0" x="65.454545" y="392.8" style="stroke: #000000; stroke-width: 0.8"/>
      </g>
     </g>
     <g id="text_1">
      <!-- 0 -->
      <g transform="translate(62.273295 407.398438) scale(0.1 -0.1)">
       <defs>
        <path id="DejaVuSans-30" d="M 2034 4250 
Q 1547 4250 1301 3770 
Q 1056 3291 1056 2328 
Q 1056 1369 1301 889 
Q 1547 409 2034 409 
Q 2525 409 2770 889 
Q 3016 1369 3016 2328 
Q 3016 3291 2770 3770 
Q 2525 4250 2034 4250 
z
M 2034 4750 
Q 2819 4750 3233 4129 
Q 3647 3509 3647 2328 
Q 3647 1150 3233 529 
Q 2819 -91 2034 -91 
Q 1250 -91 836 529 
Q 422 1150 422 2328 
Q 422 3509 836 4129 
Q 1250 4750 2034 4750 
z
" transform="scale(0.015625)"/>
       </defs>
       <use xlink:href="#DejaVuSans-30"/>
      </g>
     </g>
    </g>
    <g id="xtick_2">
     <g id="line2d_2">
      <g>
       <use xlink:href="#md22809d1e0" x="111.272727" y="392.8" style="stroke: #000000; stroke-width: 0.8"/>
      </g>
     </g>
     <g id="text_2">
      <!-- 1 -->
      <g transform="translate(108.091477 407.398438) scale(0.1 -0.1)">
       <defs>
        <path id="DejaVuSans-31" d="M 794 531 
L 1825 531 
L 1825 4091 
L 703 3866 
L 703 4441 
L 1819 4666 
L 2450 4666 
L 2450 531 
L 3481 531 
L 3481 0 
L 794 0 
L 794 531 
z
" transform="scale(0.015625)"/>
       </defs>
       <use xlink:href="#DejaVuSans-31"/>
      </g>
     </g>
    </g>
    <g id="xtick_3">
     <g id="line2d_3">
      <g>
       <use xlink:href="#md22809d1e0" x="157.090909" y="392.8" style="stroke: #000000; stroke-width: 0.8"/>
      </g>
     </g>
     <g id="text_3">
      <!-- 2 -->
      <g transform="translate(153.909659 407.398438) scale(0.1 -0.1)">
       <defs>
        <path id="DejaVuSans-32" d="M 1228 531 
L 3431 531 
L 3431 0 
L 469 0 
L 469 531 
Q 828 903 1448 1529 
Q 2069 2156 2228 2338 
Q 2531 2678 2651 2914 
Q 2772 3150 2772 3378 
Q 2772 3750 2511 3984 
Q 2250 4219 1831 4219 
Q 1534 4219 1204 4116 
Q 875 4013 500 3803 
L 500 4441 
Q 881 4594 1212 4672 
Q 1544 4750 1819 4750 
Q 2544 4750 2975 4387 
Q 3406 4025 3406 3419 
Q 3406 3131 3298 2873 
Q 3191 2616 2906 2266 
Q 2828 2175 2409 1742 
Q 1991 1309 1228 531 
z
" transform="scale(0.015625)"/>
       </defs>
       <use xlink:href="#DejaVuSans-32"/>
      </g>
     </g>
    </g>
    <g id="xtick_4">
     <g id="line2d_4">
      <g>
       <use xlink:href="#md22809d1e0" x="202.909091" y="392.8" style="stroke: #000000; stroke-width: 0.8"/>
      </g>
     </g>
     <g id="text_4">
      <!-- 3 -->
      <g transform="translate(199.727841 407.398438) scale(0.1 -0.1)">
       <defs>
        <path id="DejaVuSans-33" d="M 2597 2516 
Q 3050 2419 3304 2112 
Q 3559 1806 3559 1356 
Q 3559 666 3084 287 
Q 2609 -91 1734 -91 
Q 1441 -91 1130 -33 
Q 819 25 488 141 
L 488 750 
Q 750 597 1062 519 
Q 1375 441 1716 441 
Q 2309 441 2620 675 
Q 2931 909 2931 1356 
Q 2931 1769 2642 2001 
Q 2353 2234 1838 2234 
L 1294 2234 
L 1294 2753 
L 1863 2753 
Q 2328 2753 2575 2939 
Q 2822 3125 2822 3475 
Q 2822 3834 2567 4026 
Q 2313 4219 1838 4219 
Q 1578 4219 1281 4162 
Q 984 4106 628 3988 
L 628 4550 
Q 988 4650 1302 4700 
Q 1616 4750 1894 4750 
Q 2613 4750 3031 4423 
Q 3450 4097 3450 3541 
Q 3450 3153 3228 2886 
Q 3006 2619 2597 2516 
z
" transform="scale(0.015625)"/>
       </defs>
       <use xlink:href="#DejaVuSans-33"/>
      </g>
     </g>
    </g>
    <g id="xtick_5">
     <g id="line2d_5">
      <g>
       <use xlink:href="#md22809d1e0" x="248.727273" y="392.8" style="stroke: #000000; stroke-width: 0.8"/>
      </g>
     </g>
     <g id="text_5">
      <!-- 4 -->
      <g transform="translate(245.546023 407.398438) scale(0.1 -0.1)">
       <defs>
        <path id="DejaVuSans-34" d="M 2419 4116 
L 825 1625 
L 2419 1625 
L 2419 4116 
z
M 2253 4666 
L 3047 4666 
L 3047 1625 
L 3713 1625 
L 3713 1100 
L 3047 1100 
L 3047 0 
L 2419 0 
L 2419 1100 
L 313 1100 
L 313 1709 
L 2253 4666 
z
" transform="scale(0.015625)"/>
       </defs>
       <use xlink:href="#DejaVuSans-34"/>
      </g>
     </g>
    </g>
    <g id="xtick_6">
     <g id="line2d_6">
      <g>
       <use xlink:href="#md22809d1e0" x="294.545455" y="392.8" style="stroke: #000000; stroke-width: 0.8"/>
      </g>
     </g>
     <g id="text_6">
      <!-- 5 -->
      <g transform="translate(291.364205 407.398438) scale(0.1 -0.1)">
       <defs>
        <path id="DejaVuSans-35" d="M 691 4666 
L 3169 4666 
L 3169 4134 
L 1269 4134 
L 1269 2991 
Q 1406 3038 1543 3061 
Q 1681 3084 1819 3084 
Q 2600 3084 3056 2656 
Q 3513 2228 3513 1497 
Q 3513 744 3044 326 
Q 2575 -91 1722 -91 
Q 1428 -91 1123 -41 
Q 819 9 494 109 
L 494 744 
Q 775 591 1075 516 
Q 1375 441 1709 441 
Q 2250 441 2565 725 
Q 2881 1009 2881 1497 
Q 2881 1984 2565 2268 
Q 2250 2553 1709 2553 
Q 1456 2553 1204 2497 
Q 953 2441 691 2322 
L 691 4666 
z
" transform="scale(0.015625)"/>
       </defs>
       <use xlink:href="#DejaVuSans-35"/>
      </g>
     </g>
    </g>
    <g id="text_7">
     <!-- relative distance from ROI center ($\sigma$) -->
     <g transform="translate(106.48 419.556875) scale(0.08 -0.08)">
      <defs>
       <path id="DejaVuSans-72" d="M 2631 2963 
Q 2534 3019 2420 3045 
Q 2306 3072 2169 3072 
Q 1681 3072 1420 2755 
Q 1159 2438 1159 1844 
L 1159 0 
L 581 0 
L 581 3500 
L 1159 3500 
L 1159 2956 
Q 1341 3275 1631 3429 
Q 1922 3584 2338 3584 
Q 2397 3584 2469 3576 
Q 2541 3569 2628 3553 
L 2631 2963 
z
" transform="scale(0.015625)"/>
       <path id="DejaVuSans-65" d="M 3597 1894 
L 3597 1613 
L 953 1613 
Q 991 1019 1311 708 
Q 1631 397 2203 397 
Q 2534 397 2845 478 
Q 3156 559 3463 722 
L 3463 178 
Q 3153 47 2828 -22 
Q 2503 -91 2169 -91 
Q 1331 -91 842 396 
Q 353 884 353 1716 
Q 353 2575 817 3079 
Q 1281 3584 2069 3584 
Q 2775 3584 3186 3129 
Q 3597 2675 3597 1894 
z
M 3022 2063 
Q 3016 2534 2758 2815 
Q 2500 3097 2075 3097 
Q 1594 3097 1305 2825 
Q 1016 2553 972 2059 
L 3022 2063 
z
" transform="scale(0.015625)"/>
       <path id="DejaVuSans-6c" d="M 603 4863 
L 1178 4863 
L 1178 0 
L 603 0 
L 603 4863 
z
" transform="scale(0.015625)"/>
       <path id="DejaVuSans-61" d="M 2194 1759 
Q 1497 1759 1228 1600 
Q 959 1441 959 1056 
Q 959 750 1161 570 
Q 1363 391 1709 391 
Q 2188 391 2477 730 
Q 2766 1069 2766 1631 
L 2766 1759 
L 2194 1759 
z
M 3341 1997 
L 3341 0 
L 2766 0 
L 2766 531 
Q 2569 213 2275 61 
Q 1981 -91 1556 -91 
Q 1019 -91 701 211 
Q 384 513 384 1019 
Q 384 1609 779 1909 
Q 1175 2209 1959 2209 
L 2766 2209 
L 2766 2266 
Q 2766 2663 2505 2880 
Q 2244 3097 1772 3097 
Q 1472 3097 1187 3025 
Q 903 2953 641 2809 
L 641 3341 
Q 956 3463 1253 3523 
Q 1550 3584 1831 3584 
Q 2591 3584 2966 3190 
Q 3341 2797 3341 1997 
z
" transform="scale(0.015625)"/>
       <path id="DejaVuSans-74" d="M 1172 4494 
L 1172 3500 
L 2356 3500 
L 2356 3053 
L 1172 3053 
L 1172 1153 
Q 1172 725 1289 603 
Q 1406 481 1766 481 
L 2356 481 
L 2356 0 
L 1766 0 
Q 1100 0 847 248 
Q 594 497 594 1153 
L 594 3053 
L 172 3053 
L 172 3500 
L 594 3500 
L 594 4494 
L 1172 4494 
z
" transform="scale(0.015625)"/>
       <path id="DejaVuSans-69" d="M 603 3500 
L 1178 3500 
L 1178 0 
L 603 0 
L 603 3500 
z
M 603 4863 
L 1178 4863 
L 1178 4134 
L 603 4134 
L 603 4863 
z
" transform="scale(0.015625)"/>
       <path id="DejaVuSans-76" d="M 191 3500 
L 800 3500 
L 1894 563 
L 2988 3500 
L 3597 3500 
L 2284 0 
L 1503 0 
L 191 3500 
z
" transform="scale(0.015625)"/>
       <path id="DejaVuSans-20" transform="scale(0.015625)"/>
       <path id="DejaVuSans-64" d="M 2906 2969 
L 2906 4863 
L 3481 4863 
L 3481 0 
L 2906 0 
L 2906 525 
Q 2725 213 2448 61 
Q 2172 -91 1784 -91 
Q 1150 -91 751 415 
Q 353 922 353 1747 
Q 353 2572 751 3078 
Q 1150 3584 1784 3584 
Q 2172 3584 2448 3432 
Q 2725 3281 2906 2969 
z
M 947 1747 
Q 947 1113 1208 752 
Q 1469 391 1925 391 
Q 2381 391 2643 752 
Q 2906 1113 2906 1747 
Q 2906 2381 2643 2742 
Q 2381 3103 1925 3103 
Q 1469 3103 1208 2742 
Q 947 2381 947 1747 
z
" transform="scale(0.015625)"/>
       <path id="DejaVuSans-73" d="M 2834 3397 
L 2834 2853 
Q 2591 2978 2328 3040 
Q 2066 3103 1784 3103 
Q 1356 3103 1142 2972 
Q 928 2841 928 2578 
Q 928 2378 1081 2264 
Q 1234 2150 1697 2047 
L 1894 2003 
Q 2506 1872 2764 1633 
Q 3022 1394 3022 966 
Q 3022 478 2636 193 
Q 2250 -91 1575 -91 
Q 1294 -91 989 -36 
Q 684 19 347 128 
L 347 722 
Q 666 556 975 473 
Q 1284 391 1588 391 
Q 1994 391 2212 530 
Q 2431 669 2431 922 
Q 2431 1156 2273 1281 
Q 2116 1406 1581 1522 
L 1381 1569 
Q 847 1681 609 1914 
Q 372 2147 372 2553 
Q 372 3047 722 3315 
Q 1072 3584 1716 3584 
Q 2034 3584 2315 3537 
Q 2597 3491 2834 3397 
z
" transform="scale(0.015625)"/>
       <path id="DejaVuSans-6e" d="M 3513 2113 
L 3513 0 
L 2938 0 
L 2938 2094 
Q 2938 2591 2744 2837 
Q 2550 3084 2163 3084 
Q 1697 3084 1428 2787 
Q 1159 2491 1159 1978 
L 1159 0 
L 581 0 
L 581 3500 
L 1159 3500 
L 1159 2956 
Q 1366 3272 1645 3428 
Q 1925 3584 2291 3584 
Q 2894 3584 3203 3211 
Q 3513 2838 3513 2113 
z
" transform="scale(0.015625)"/>
       <path id="DejaVuSans-63" d="M 3122 3366 
L 3122 2828 
Q 2878 2963 2633 3030 
Q 2388 3097 2138 3097 
Q 1578 3097 1268 2742 
Q 959 2388 959 1747 
Q 959 1106 1268 751 
Q 1578 397 2138 397 
Q 2388 397 2633 464 
Q 2878 531 3122 666 
L 3122 134 
Q 2881 22 2623 -34 
Q 2366 -91 2075 -91 
Q 1284 -91 818 406 
Q 353 903 353 1747 
Q 353 2603 823 3093 
Q 1294 3584 2113 3584 
Q 2378 3584 2631 3529 
Q 2884 3475 3122 3366 
z
" transform="scale(0.015625)"/>
       <path id="DejaVuSans-66" d="M 2375 4863 
L 2375 4384 
L 1825 4384 
Q 1516 4384 1395 4259 
Q 1275 4134 1275 3809 
L 1275 3500 
L 2222 3500 
L 2222 3053 
L 1275 3053 
L 1275 0 
L 697 0 
L 697 3053 
L 147 3053 
L 147 3500 
L 697 3500 
L 697 3744 
Q 697 4328 969 4595 
Q 1241 4863 1831 4863 
L 2375 4863 
z
" transform="scale(0.015625)"/>
       <path id="DejaVuSans-6f" d="M 1959 3097 
Q 1497 3097 1228 2736 
Q 959 2375 959 1747 
Q 959 1119 1226 758 
Q 1494 397 1959 397 
Q 2419 397 2687 759 
Q 2956 1122 2956 1747 
Q 2956 2369 2687 2733 
Q 2419 3097 1959 3097 
z
M 1959 3584 
Q 2709 3584 3137 3096 
Q 3566 2609 3566 1747 
Q 3566 888 3137 398 
Q 2709 -91 1959 -91 
Q 1206 -91 779 398 
Q 353 888 353 1747 
Q 353 2609 779 3096 
Q 1206 3584 1959 3584 
z
" transform="scale(0.015625)"/>
       <path id="DejaVuSans-6d" d="M 3328 2828 
Q 3544 3216 3844 3400 
Q 4144 3584 4550 3584 
Q 5097 3584 5394 3201 
Q 5691 2819 5691 2113 
L 5691 0 
L 5113 0 
L 5113 2094 
Q 5113 2597 4934 2840 
Q 4756 3084 4391 3084 
Q 3944 3084 3684 2787 
Q 3425 2491 3425 1978 
L 3425 0 
L 2847 0 
L 2847 2094 
Q 2847 2600 2669 2842 
Q 2491 3084 2119 3084 
Q 1678 3084 1418 2786 
Q 1159 2488 1159 1978 
L 1159 0 
L 581 0 
L 581 3500 
L 1159 3500 
L 1159 2956 
Q 1356 3278 1631 3431 
Q 1906 3584 2284 3584 
Q 2666 3584 2933 3390 
Q 3200 3197 3328 2828 
z
" transform="scale(0.015625)"/>
       <path id="DejaVuSans-52" d="M 2841 2188 
Q 3044 2119 3236 1894 
Q 3428 1669 3622 1275 
L 4263 0 
L 3584 0 
L 2988 1197 
Q 2756 1666 2539 1819 
Q 2322 1972 1947 1972 
L 1259 1972 
L 1259 0 
L 628 0 
L 628 4666 
L 2053 4666 
Q 2853 4666 3247 4331 
Q 3641 3997 3641 3322 
Q 3641 2881 3436 2590 
Q 3231 2300 2841 2188 
z
M 1259 4147 
L 1259 2491 
L 2053 2491 
Q 2509 2491 2742 2702 
Q 2975 2913 2975 3322 
Q 2975 3731 2742 3939 
Q 2509 4147 2053 4147 
L 1259 4147 
z
" transform="scale(0.015625)"/>
       <path id="DejaVuSans-4f" d="M 2522 4238 
Q 1834 4238 1429 3725 
Q 1025 3213 1025 2328 
Q 1025 1447 1429 934 
Q 1834 422 2522 422 
Q 3209 422 3611 934 
Q 4013 1447 4013 2328 
Q 4013 3213 3611 3725 
Q 3209 4238 2522 4238 
z
M 2522 4750 
Q 3503 4750 4090 4092 
Q 4678 3434 4678 2328 
Q 4678 1225 4090 567 
Q 3503 -91 2522 -91 
Q 1538 -91 948 565 
Q 359 1222 359 2328 
Q 359 3434 948 4092 
Q 1538 4750 2522 4750 
z
" transform="scale(0.015625)"/>
       <path id="DejaVuSans-49" d="M 628 4666 
L 1259 4666 
L 1259 0 
L 628 0 
L 628 4666 
z
" transform="scale(0.015625)"/>
       <path id="DejaVuSans-28" d="M 1984 4856 
Q 1566 4138 1362 3434 
Q 1159 2731 1159 2009 
Q 1159 1288 1364 580 
Q 1569 -128 1984 -844 
L 1484 -844 
Q 1016 -109 783 600 
Q 550 1309 550 2009 
Q 550 2706 781 3412 
Q 1013 4119 1484 4856 
L 1984 4856 
z
" transform="scale(0.015625)"/>
       <path id="DejaVuSans-Oblique-3c3" d="M 2219 3044 
Q 1744 3044 1422 2700 
Q 1081 2341 969 1747 
Q 844 1119 1044 756 
Q 1241 397 1706 397 
Q 2166 397 2503 759 
Q 2844 1122 2966 1747 
Q 3075 2319 2881 2700 
Q 2700 3044 2219 3044 
z
M 2309 3503 
L 4219 3500 
L 4106 2925 
L 3463 2925 
Q 3706 2438 3575 1747 
Q 3406 888 2884 400 
Q 2359 -91 1609 -91 
Q 856 -91 525 400 
Q 194 888 363 1747 
Q 528 2609 1050 3097 
Q 1484 3503 2309 3503 
z
" transform="scale(0.015625)"/>
       <path id="DejaVuSans-29" d="M 513 4856 
L 1013 4856 
Q 1481 4119 1714 3412 
Q 1947 2706 1947 2009 
Q 1947 1309 1714 600 
Q 1481 -109 1013 -844 
L 513 -844 
Q 928 -128 1133 580 
Q 1338 1288 1338 2009 
Q 1338 2731 1133 3434 
Q 928 4138 513 4856 
z
" transform="scale(0.015625)"/>
      </defs>
      <use xlink:href="#DejaVuSans-72" transform="translate(0 0.015625)"/>
      <use xlink:href="#DejaVuSans-65" transform="translate(41.113281 0.015625)"/>
      <use xlink:href="#DejaVuSans-6c" transform="translate(102.636719 0.015625)"/>
      <use xlink:href="#DejaVuSans-61" transform="translate(130.419922 0.015625)"/>
      <use xlink:href="#DejaVuSans-74" transform="translate(191.699219 0.015625)"/>
      <use xlink:href="#DejaVuSans-69" transform="translate(230.908203 0.015625)"/>
      <use xlink:href="#DejaVuSans-76" transform="translate(258.691406 0.015625)"/>
      <use xlink:href="#DejaVuSans-65" transform="translate(317.871094 0.015625)"/>
      <use xlink:href="#DejaVuSans-20" transform="translate(379.394531 0.015625)"/>
      <use xlink:href="#DejaVuSans-64" transform="translate(411.181641 0.015625)"/>
      <use xlink:href="#DejaVuSans-69" transform="translate(474.658203 0.015625)"/>
      <use xlink:href="#DejaVuSans-73" transform="translate(502.441406 0.015625)"/>
      <use xlink:href="#DejaVuSans-74" transform="translate(554.541016 0.015625)"/>
      <use xlink:href="#DejaVuSans-61" transform="translate(593.75 0.015625)"/>
      <use xlink:href="#DejaVuSans-6e" transform="translate(655.029297 0.015625)"/>
      <use xlink:href="#DejaVuSans-63" transform="translate(718.408203 0.015625)"/>
      <use xlink:href="#DejaVuSans-65" transform="translate(773.388672 0.015625)"/>
      <use xlink:href="#DejaVuSans-20" transform="translate(834.912109 0.015625)"/>
      <use xlink:href="#DejaVuSans-66" transform="translate(866.699219 0.015625)"/>
      <use xlink:href="#DejaVuSans-72" transform="translate(901.904297 0.015625)"/>
      <use xlink:href="#DejaVuSans-6f" transform="translate(943.017578 0.015625)"/>
      <use xlink:href="#DejaVuSans-6d" transform="translate(1004.199219 0.015625)"/>
      <use xlink:href="#DejaVuSans-20" transform="translate(1101.611328 0.015625)"/>
      <use xlink:href="#DejaVuSans-52" transform="translate(1133.398438 0.015625)"/>
      <use xlink:href="#DejaVuSans-4f" transform="translate(1202.880859 0.015625)"/>
      <use xlink:href="#DejaVuSans-49" transform="translate(1281.591797 0.015625)"/>
      <use xlink:href="#DejaVuSans-20" transform="translate(1311.083984 0.015625)"/>
      <use xlink:href="#DejaVuSans-63" transform="translate(1342.871094 0.015625)"/>
      <use xlink:href="#DejaVuSans-65" transform="translate(1397.851562 0.015625)"/>
      <use xlink:href="#DejaVuSans-6e" transform="translate(1459.375 0.015625)"/>
      <use xlink:href="#DejaVuSans-74" transform="translate(1522.753906 0.015625)"/>
      <use xlink:href="#DejaVuSans-65" transform="translate(1561.962891 0.015625)"/>
      <use xlink:href="#DejaVuSans-72" transform="translate(1623.486328 0.015625)"/>
      <use xlink:href="#DejaVuSans-20" transform="translate(1664.599609 0.015625)"/>
      <use xlink:href="#DejaVuSans-28" transform="translate(1696.386719 0.015625)"/>
      <use xlink:href="#DejaVuSans-Oblique-3c3" transform="translate(1735.400391 0.015625)"/>
      <use xlink:href="#DejaVuSans-29" transform="translate(1798.779297 0.015625)"/>
     </g>
    </g>
   </g>
   <g id="matplotlib.axis_2">
    <g id="ytick_1">
     <g id="line2d_7">
      <defs>
       <path id="m4e03585fcd" d="M 0 0 
L -3.5 0 
" style="stroke: #000000; stroke-width: 0.8"/>
      </defs>
      <g>
       <use xlink:href="#m4e03585fcd" x="50" y="376.457143" style="stroke: #000000; stroke-width: 0.8"/>
      </g>
     </g>
     <g id="text_8">
      <!-- −5 -->
      <g transform="translate(28.257812 380.256362) scale(0.1 -0.1)">
       <defs>
        <path id="DejaVuSans-2212" d="M 678 2272 
L 4684 2272 
L 4684 1741 
L 678 1741 
L 678 2272 
z
" transform="scale(0.015625)"/>
       </defs>
       <use xlink:href="#DejaVuSans-2212"/>
       <use xlink:href="#DejaVuSans-35" x="83.789062"/>
      </g>
     </g>
    </g>
    <g id="ytick_2">
     <g id="line2d_8">
      <g>
       <use xlink:href="#m4e03585fcd" x="50" y="345.6" style="stroke: #000000; stroke-width: 0.8"/>
      </g>
     </g>
     <g id="text_9">
      <!-- 0 -->
      <g transform="translate(36.6375 349.399219) scale(0.1 -0.1)">
       <use xlink:href="#DejaVuSans-30"/>
      </g>
     </g>
    </g>
    <g id="ytick_3">
     <g id="line2d_9">
      <g>
       <use xlink:href="#m4e03585fcd" x="50" y="314.742857" style="stroke: #000000; stroke-width: 0.8"/>
      </g>
     </g>
     <g id="text_10">
      <!-- 5 -->
      <g transform="translate(36.6375 318.542076) scale(0.1 -0.1)">
       <use xlink:href="#DejaVuSans-35"/>
      </g>
     </g>
    </g>
    <g id="text_11">
     <!-- BOLD % change -->
     <g transform="translate(22.594062 377.79625) rotate(-90) scale(0.08 -0.08)">
      <defs>
       <path id="DejaVuSans-42" d="M 1259 2228 
L 1259 519 
L 2272 519 
Q 2781 519 3026 730 
Q 3272 941 3272 1375 
Q 3272 1813 3026 2020 
Q 2781 2228 2272 2228 
L 1259 2228 
z
M 1259 4147 
L 1259 2741 
L 2194 2741 
Q 2656 2741 2882 2914 
Q 3109 3088 3109 3444 
Q 3109 3797 2882 3972 
Q 2656 4147 2194 4147 
L 1259 4147 
z
M 628 4666 
L 2241 4666 
Q 2963 4666 3353 4366 
Q 3744 4066 3744 3513 
Q 3744 3084 3544 2831 
Q 3344 2578 2956 2516 
Q 3422 2416 3680 2098 
Q 3938 1781 3938 1306 
Q 3938 681 3513 340 
Q 3088 0 2303 0 
L 628 0 
L 628 4666 
z
" transform="scale(0.015625)"/>
       <path id="DejaVuSans-4c" d="M 628 4666 
L 1259 4666 
L 1259 531 
L 3531 531 
L 3531 0 
L 628 0 
L 628 4666 
z
" transform="scale(0.015625)"/>
       <path id="DejaVuSans-44" d="M 1259 4147 
L 1259 519 
L 2022 519 
Q 2988 519 3436 956 
Q 3884 1394 3884 2338 
Q 3884 3275 3436 3711 
Q 2988 4147 2022 4147 
L 1259 4147 
z
M 628 4666 
L 1925 4666 
Q 3281 4666 3915 4102 
Q 4550 3538 4550 2338 
Q 4550 1131 3912 565 
Q 3275 0 1925 0 
L 628 0 
L 628 4666 
z
" transform="scale(0.015625)"/>
       <path id="DejaVuSans-25" d="M 4653 2053 
Q 4381 2053 4226 1822 
Q 4072 1591 4072 1178 
Q 4072 772 4226 539 
Q 4381 306 4653 306 
Q 4919 306 5073 539 
Q 5228 772 5228 1178 
Q 5228 1588 5073 1820 
Q 4919 2053 4653 2053 
z
M 4653 2450 
Q 5147 2450 5437 2106 
Q 5728 1763 5728 1178 
Q 5728 594 5436 251 
Q 5144 -91 4653 -91 
Q 4153 -91 3862 251 
Q 3572 594 3572 1178 
Q 3572 1766 3864 2108 
Q 4156 2450 4653 2450 
z
M 1428 4353 
Q 1159 4353 1004 4120 
Q 850 3888 850 3481 
Q 850 3069 1003 2837 
Q 1156 2606 1428 2606 
Q 1700 2606 1854 2837 
Q 2009 3069 2009 3481 
Q 2009 3884 1853 4118 
Q 1697 4353 1428 4353 
z
M 4250 4750 
L 4750 4750 
L 1831 -91 
L 1331 -91 
L 4250 4750 
z
M 1428 4750 
Q 1922 4750 2215 4408 
Q 2509 4066 2509 3481 
Q 2509 2891 2217 2550 
Q 1925 2209 1428 2209 
Q 931 2209 642 2551 
Q 353 2894 353 3481 
Q 353 4063 643 4406 
Q 934 4750 1428 4750 
z
" transform="scale(0.015625)"/>
       <path id="DejaVuSans-68" d="M 3513 2113 
L 3513 0 
L 2938 0 
L 2938 2094 
Q 2938 2591 2744 2837 
Q 2550 3084 2163 3084 
Q 1697 3084 1428 2787 
Q 1159 2491 1159 1978 
L 1159 0 
L 581 0 
L 581 4863 
L 1159 4863 
L 1159 2956 
Q 1366 3272 1645 3428 
Q 1925 3584 2291 3584 
Q 2894 3584 3203 3211 
Q 3513 2838 3513 2113 
z
" transform="scale(0.015625)"/>
       <path id="DejaVuSans-67" d="M 2906 1791 
Q 2906 2416 2648 2759 
Q 2391 3103 1925 3103 
Q 1463 3103 1205 2759 
Q 947 2416 947 1791 
Q 947 1169 1205 825 
Q 1463 481 1925 481 
Q 2391 481 2648 825 
Q 2906 1169 2906 1791 
z
M 3481 434 
Q 3481 -459 3084 -895 
Q 2688 -1331 1869 -1331 
Q 1566 -1331 1297 -1286 
Q 1028 -1241 775 -1147 
L 775 -588 
Q 1028 -725 1275 -790 
Q 1522 -856 1778 -856 
Q 2344 -856 2625 -561 
Q 2906 -266 2906 331 
L 2906 616 
Q 2728 306 2450 153 
Q 2172 0 1784 0 
Q 1141 0 747 490 
Q 353 981 353 1791 
Q 353 2603 747 3093 
Q 1141 3584 1784 3584 
Q 2172 3584 2450 3431 
Q 2728 3278 2906 2969 
L 2906 3500 
L 3481 3500 
L 3481 434 
z
" transform="scale(0.015625)"/>
      </defs>
      <use xlink:href="#DejaVuSans-42"/>
      <use xlink:href="#DejaVuSans-4f" x="66.853516"/>
      <use xlink:href="#DejaVuSans-4c" x="145.564453"/>
      <use xlink:href="#DejaVuSans-44" x="201.277344"/>
      <use xlink:href="#DejaVuSans-20" x="278.279297"/>
      <use xlink:href="#DejaVuSans-25" x="310.066406"/>
      <use xlink:href="#DejaVuSans-20" x="405.085938"/>
      <use xlink:href="#DejaVuSans-63" x="436.873047"/>
      <use xlink:href="#DejaVuSans-68" x="491.853516"/>
      <use xlink:href="#DejaVuSans-61" x="555.232422"/>
      <use xlink:href="#DejaVuSans-6e" x="616.511719"/>
      <use xlink:href="#DejaVuSans-67" x="679.890625"/>
      <use xlink:href="#DejaVuSans-65" x="743.367188"/>
     </g>
    </g>
   </g>
   <g id="line2d_10">
    <path d="M 65.454545 334.486516 
L 70.12987 334.818319 
L 74.805195 335.096768 
L 79.480519 335.261365 
L 84.155844 334.924813 
L 88.831169 334.672949 
L 93.506494 334.433101 
L 98.181818 334.322509 
L 102.857143 334.47598 
L 107.532468 334.709047 
L 112.207792 334.970746 
L 116.883117 335.331398 
L 121.558442 335.660281 
L 126.233766 336.119026 
L 130.909091 336.645382 
L 135.584416 336.953808 
L 140.25974 337.472065 
L 144.935065 338.280101 
L 149.61039 339.298868 
L 154.285714 340.421941 
L 158.961039 341.461348 
L 163.636364 342.09935 
L 168.311688 342.919447 
L 172.987013 343.914306 
L 177.662338 344.795291 
L 182.337662 345.515803 
L 187.012987 346.207675 
L 191.688312 346.780297 
L 196.363636 347.303444 
L 201.038961 347.836138 
L 205.714286 348.420412 
L 210.38961 349.151263 
L 215.064935 349.64989 
L 219.74026 350.18274 
L 224.415584 350.702967 
L 229.090909 351.166088 
L 233.766234 351.937585 
L 238.441558 352.670711 
L 243.116883 353.15804 
L 247.792208 353.841205 
L 252.467532 354.453425 
L 257.142857 355.068306 
L 261.818182 355.595798 
L 266.493506 356.024212 
L 271.168831 356.513617 
L 275.844156 357.091338 
L 280.519481 357.835623 
L 285.194805 358.362636 
L 289.87013 358.375541 
L 294.545455 358.588011 
" clip-path="url(#p8aa768e987)" style="fill: none; stroke: #ffd700; stroke-width: 1.5; stroke-linecap: square"/>
   </g>
   <g id="line2d_11">
    <path d="M 65.454545 331.225946 
L 70.12987 331.225946 
L 74.805195 331.225946 
L 79.480519 331.396311 
L 84.155844 330.994693 
L 88.831169 331.567149 
L 93.506494 332.419418 
L 98.181818 332.283176 
L 102.857143 333.345193 
L 107.532468 333.607703 
L 112.207792 335.427102 
L 116.883117 335.963591 
L 121.558442 335.8825 
L 126.233766 336.702488 
L 130.909091 337.301713 
L 135.584416 337.096512 
L 140.25974 336.731039 
L 144.935065 336.827965 
L 149.61039 337.379507 
L 154.285714 338.520845 
L 158.961039 340.307769 
L 163.636364 340.805557 
L 168.311688 341.157188 
L 172.987013 342.547991 
L 177.662338 343.188298 
L 182.337662 342.748274 
L 187.012987 343.117808 
L 191.688312 342.283763 
L 196.363636 340.179633 
L 201.038961 337.96727 
L 205.714286 336.582362 
L 210.38961 335.905503 
L 215.064935 334.595874 
L 219.74026 335.401561 
L 224.415584 336.640161 
L 229.090909 337.71432 
L 233.766234 341.056249 
L 238.441558 343.737216 
L 243.116883 344.732144 
L 247.792208 347.512569 
L 252.467532 350.559826 
L 257.142857 352.931531 
L 261.818182 355.486655 
L 266.493506 357.864456 
L 271.168831 359.265905 
L 275.844156 360.906771 
L 280.519481 363.839297 
L 285.194805 366.597451 
L 289.87013 369.040255 
L 294.545455 372.354675 
" clip-path="url(#p8aa768e987)" style="fill: none; stroke: #ffd700; stroke-opacity: 0.2; stroke-width: 1.5; stroke-linecap: square"/>
   </g>
   <g id="line2d_12">
    <path d="M 65.454545 331.812354 
L 70.12987 331.331244 
L 74.805195 331.214522 
L 79.480519 331.814492 
L 84.155844 332.064474 
L 88.831169 332.874003 
L 93.506494 332.786048 
L 98.181818 332.350813 
L 102.857143 332.478228 
L 107.532468 333.327467 
L 112.207792 333.451614 
L 116.883117 333.313737 
L 121.558442 333.281947 
L 126.233766 333.548716 
L 130.909091 333.814728 
L 135.584416 334.534997 
L 140.25974 335.315207 
L 144.935065 335.918868 
L 149.61039 336.441477 
L 154.285714 336.172897 
L 158.961039 336.066794 
L 163.636364 336.138451 
L 168.311688 336.213324 
L 172.987013 335.913845 
L 177.662338 335.124064 
L 182.337662 333.984728 
L 187.012987 332.892759 
L 191.688312 332.256472 
L 196.363636 332.492739 
L 201.038961 333.311751 
L 205.714286 333.803289 
L 210.38961 334.505423 
L 215.064935 335.086672 
L 219.74026 335.344254 
L 224.415584 335.343926 
L 229.090909 335.389574 
L 233.766234 336.024045 
L 238.441558 336.986175 
L 243.116883 337.950865 
L 247.792208 338.490467 
L 252.467532 338.0589 
L 257.142857 337.69028 
L 261.818182 337.131913 
L 266.493506 336.677563 
L 271.168831 336.452299 
L 275.844156 336.208802 
L 280.519481 335.609674 
L 285.194805 334.635612 
L 289.87013 334.489924 
L 294.545455 334.475705 
" clip-path="url(#p8aa768e987)" style="fill: none; stroke: #ffd700; stroke-opacity: 0.2; stroke-width: 1.5; stroke-linecap: square"/>
   </g>
   <g id="line2d_13">
    <path d="M 65.454545 336.968138 
L 70.12987 336.968138 
L 74.805195 337.056764 
L 79.480519 337.329822 
L 84.155844 337.377767 
L 88.831169 337.432532 
L 93.506494 337.78216 
L 98.181818 338.661129 
L 102.857143 338.836555 
L 107.532468 339.068662 
L 112.207792 338.837224 
L 116.883117 339.156976 
L 121.558442 339.47045 
L 126.233766 340.025833 
L 130.909091 340.422916 
L 135.584416 340.797986 
L 140.25974 341.113715 
L 144.935065 341.735457 
L 149.61039 342.565597 
L 154.285714 343.158 
L 158.961039 343.93304 
L 163.636364 344.627828 
L 168.311688 345.234741 
L 172.987013 346.005784 
L 177.662338 346.679091 
L 182.337662 347.43311 
L 187.012987 348.494163 
L 191.688312 349.687514 
L 196.363636 350.550771 
L 201.038961 351.548922 
L 205.714286 352.196948 
L 210.38961 352.83642 
L 215.064935 353.4637 
L 219.74026 353.665462 
L 224.415584 353.836785 
L 229.090909 354.193127 
L 233.766234 354.284348 
L 238.441558 354.595694 
L 243.116883 354.872197 
L 247.792208 354.892079 
L 252.467532 354.897238 
L 257.142857 355.066985 
L 261.818182 355.130501 
L 266.493506 355.183078 
L 271.168831 355.185791 
L 275.844156 355.142511 
L 280.519481 355.076249 
L 285.194805 355.109611 
L 289.87013 355.040515 
L 294.545455 354.938362 
" clip-path="url(#p8aa768e987)" style="fill: none; stroke: #ffd700; stroke-opacity: 0.2; stroke-width: 1.5; stroke-linecap: square"/>
   </g>
   <g id="line2d_14">
    <path d="M 65.454545 341.519759 
L 70.12987 341.502129 
L 74.805195 341.427928 
L 79.480519 341.261244 
L 84.155844 341.212451 
L 88.831169 340.878817 
L 93.506494 340.030448 
L 98.181818 339.799214 
L 102.857143 339.87129 
L 107.532468 340.243187 
L 112.207792 340.720322 
L 116.883117 341.579134 
L 121.558442 342.777476 
L 126.233766 343.70929 
L 130.909091 344.283702 
L 135.584416 344.819451 
L 140.25974 346.205533 
L 144.935065 348.061234 
L 149.61039 350.938601 
L 154.285714 354.88395 
L 158.961039 356.118787 
L 163.636364 352.537889 
L 168.311688 350.277379 
L 172.987013 349.103109 
L 177.662338 348.572136 
L 182.337662 348.430815 
L 187.012987 348.330599 
L 191.688312 348.406045 
L 196.363636 348.613275 
L 201.038961 348.789405 
L 205.714286 349.168619 
L 210.38961 349.45431 
L 215.064935 349.633619 
L 219.74026 349.752376 
L 224.415584 350.195295 
L 229.090909 350.371558 
L 233.766234 350.903353 
L 238.441558 351.236459 
L 243.116883 351.299974 
L 247.792208 351.876298 
L 252.467532 352.701964 
L 257.142857 353.96645 
L 261.818182 355.425835 
L 266.493506 356.935812 
L 271.168831 359.151273 
L 275.844156 362.690837 
L 280.519481 368.258531 
L 285.194805 371.46311 
L 289.87013 368.625498 
L 294.545455 368.357971 
" clip-path="url(#p8aa768e987)" style="fill: none; stroke: #ffd700; stroke-opacity: 0.2; stroke-width: 1.5; stroke-linecap: square"/>
   </g>
   <g id="line2d_15">
    <path d="M 65.454545 320.224444 
L 70.12987 320.224444 
L 74.805195 320.305777 
L 79.480519 320.45335 
L 84.155844 320.353501 
L 88.831169 321.466692 
L 93.506494 322.127161 
L 98.181818 322.575813 
L 102.857143 323.521697 
L 107.532468 324.612724 
L 112.207792 325.358745 
L 116.883117 325.779002 
L 121.558442 326.278884 
L 126.233766 326.731214 
L 130.909091 327.870401 
L 135.584416 328.909984 
L 140.25974 330.116461 
L 144.935065 331.167309 
L 149.61039 332.426022 
L 154.285714 333.511618 
L 158.961039 334.477701 
L 163.636364 335.354807 
L 168.311688 336.247697 
L 172.987013 336.971007 
L 177.662338 337.67684 
L 182.337662 338.485539 
L 187.012987 339.107833 
L 191.688312 339.915727 
L 196.363636 340.752844 
L 201.038961 341.492769 
L 205.714286 342.241289 
L 210.38961 342.940762 
L 215.064935 343.444539 
L 219.74026 343.904172 
L 224.415584 344.461775 
L 229.090909 345.75087 
L 233.766234 347.178153 
L 238.441558 348.058836 
L 243.116883 348.799324 
L 247.792208 349.341573 
L 252.467532 349.729889 
L 257.142857 350.261775 
L 261.818182 350.602923 
L 266.493506 350.293988 
L 271.168831 349.871143 
L 275.844156 349.678488 
L 280.519481 349.440073 
L 285.194805 349.125275 
L 289.87013 348.771425 
L 294.545455 348.25035 
" clip-path="url(#p8aa768e987)" style="fill: none; stroke: #ffd700; stroke-opacity: 0.2; stroke-width: 1.5; stroke-linecap: square"/>
   </g>
   <g id="line2d_16">
    <path d="M 65.454545 341.796956 
L 70.12987 341.713752 
L 74.805195 341.301491 
L 79.480519 340.824146 
L 84.155844 339.614754 
L 88.831169 339.043628 
L 93.506494 338.575919 
L 98.181818 338.42498 
L 102.857143 337.611522 
L 107.532468 336.735516 
L 112.207792 336.004077 
L 116.883117 335.396162 
L 121.558442 334.62306 
L 126.233766 334.223054 
L 130.909091 334.279984 
L 135.584416 333.690145 
L 140.25974 333.110423 
L 144.935065 333.431174 
L 149.61039 334.817266 
L 154.285714 336.10104 
L 158.961039 337.164175 
L 163.636364 339.080625 
L 168.311688 340.721574 
L 172.987013 342.278891 
L 177.662338 343.663037 
L 182.337662 344.944829 
L 187.012987 346.163583 
L 191.688312 347.174778 
L 196.363636 348.03256 
L 201.038961 348.418622 
L 205.714286 348.573663 
L 210.38961 348.717658 
L 215.064935 349.234329 
L 219.74026 349.97855 
L 224.415584 351.145934 
L 229.090909 352.211094 
L 233.766234 353.405676 
L 238.441558 354.337793 
L 243.116883 354.942946 
L 247.792208 355.139769 
L 252.467532 355.386636 
L 257.142857 355.227812 
L 261.818182 354.975453 
L 266.493506 355.006432 
L 271.168831 354.738277 
L 275.844156 354.215982 
L 280.519481 353.624324 
L 285.194805 352.843235 
L 289.87013 351.799159 
L 294.545455 349.811026 
" clip-path="url(#p8aa768e987)" style="fill: none; stroke: #ffd700; stroke-opacity: 0.2; stroke-width: 1.5; stroke-linecap: square"/>
   </g>
   <g id="line2d_17">
    <path d="M 65.454545 343.555097 
L 70.12987 343.375222 
L 74.805195 343.080546 
L 79.480519 342.868658 
L 84.155844 341.611812 
L 88.831169 341.072685 
L 93.506494 342.309464 
L 98.181818 341.763677 
L 102.857143 342.020747 
L 107.532468 342.580751 
L 112.207792 342.539715 
L 116.883117 344.149839 
L 121.558442 344.843409 
L 126.233766 345.322679 
L 130.909091 346.176158 
L 135.584416 345.567023 
L 140.25974 345.392318 
L 144.935065 346.58852 
L 149.61039 347.397197 
L 154.285714 348.288847 
L 158.961039 349.320395 
L 163.636364 350.327274 
L 168.311688 352.099739 
L 172.987013 353.750774 
L 177.662338 354.604416 
L 182.337662 355.490493 
L 187.012987 355.684389 
L 191.688312 355.613795 
L 196.363636 355.713157 
L 201.038961 355.737133 
L 205.714286 356.927734 
L 210.38961 357.358253 
L 215.064935 357.260941 
L 219.74026 357.830221 
L 224.415584 358.418503 
L 229.090909 358.912751 
L 233.766234 359.209459 
L 238.441558 359.996625 
L 243.116883 360.640352 
L 247.792208 361.363693 
L 252.467532 361.931165 
L 257.142857 362.764159 
L 261.818182 363.020723 
L 266.493506 363.000775 
L 271.168831 363.020463 
L 275.844156 363.701131 
L 280.519481 364.677141 
L 285.194805 365.710337 
L 289.87013 367.09998 
L 294.545455 368.756874 
" clip-path="url(#p8aa768e987)" style="fill: none; stroke: #ffd700; stroke-opacity: 0.2; stroke-width: 1.5; stroke-linecap: square"/>
   </g>
   <g id="line2d_18">
    <path d="M 65.454545 338.665976 
L 70.12987 338.89166 
L 74.805195 339.358548 
L 79.480519 339.819096 
L 84.155844 339.861956 
L 88.831169 339.279562 
L 93.506494 338.588253 
L 98.181818 338.158116 
L 102.857143 337.555649 
L 107.532468 337.45796 
L 112.207792 337.730234 
L 116.883117 337.785129 
L 121.558442 337.940505 
L 126.233766 338.177014 
L 130.909091 338.213925 
L 135.584416 338.237472 
L 140.25974 338.403643 
L 144.935065 338.600884 
L 149.61039 339.096659 
L 154.285714 340.516741 
L 158.961039 342.514057 
L 163.636364 344.655702 
L 168.311688 346.606074 
L 172.987013 348.287276 
L 177.662338 349.836215 
L 182.337662 351.330715 
L 187.012987 352.723816 
L 191.688312 353.951278 
L 196.363636 355.007626 
L 201.038961 356.109644 
L 205.714286 357.423071 
L 210.38961 358.693266 
L 215.064935 359.745953 
L 219.74026 360.610118 
L 224.415584 361.137884 
L 229.090909 361.473074 
L 233.766234 361.885223 
L 238.441558 362.62356 
L 243.116883 363.274908 
L 247.792208 363.980789 
L 252.467532 364.640085 
L 257.142857 365.218087 
L 261.818182 365.74351 
L 266.493506 366.511209 
L 271.168831 367.019417 
L 275.844156 367.118998 
L 280.519481 367.272355 
L 285.194805 367.693903 
L 289.87013 368.053852 
L 294.545455 368.321002 
" clip-path="url(#p8aa768e987)" style="fill: none; stroke: #ffd700; stroke-opacity: 0.2; stroke-width: 1.5; stroke-linecap: square"/>
   </g>
   <g id="line2d_19">
    <path d="M 65.454545 333.54793 
L 70.12987 333.738543 
L 74.805195 334.243666 
L 79.480519 334.195929 
L 84.155844 333.828243 
L 88.831169 332.598384 
L 93.506494 331.774063 
L 98.181818 331.837362 
L 102.857143 332.69167 
L 107.532468 333.078839 
L 112.207792 332.863785 
L 116.883117 333.030478 
L 121.558442 333.168644 
L 126.233766 333.093997 
L 130.909091 333.595642 
L 135.584416 334.434038 
L 140.25974 334.963707 
L 144.935065 335.889623 
L 149.61039 336.8911 
L 154.285714 338.192148 
L 158.961039 339.543829 
L 163.636364 340.932697 
L 168.311688 342.40407 
L 172.987013 343.7147 
L 177.662338 344.857632 
L 182.337662 345.800467 
L 187.012987 347.062131 
L 191.688312 348.544414 
L 196.363636 350.002714 
L 201.038961 351.309344 
L 205.714286 352.396633 
L 210.38961 353.896881 
L 215.064935 355.169663 
L 219.74026 356.477969 
L 224.415584 357.636732 
L 229.090909 358.485864 
L 233.766234 358.906866 
L 238.441558 359.17161 
L 243.116883 359.472198 
L 247.792208 359.817849 
L 252.467532 360.147982 
L 257.142857 360.562056 
L 261.818182 360.917375 
L 266.493506 361.305563 
L 271.168831 361.956519 
L 275.844156 362.335819 
L 280.519481 362.431564 
L 285.194805 362.605895 
L 289.87013 363.006225 
L 294.545455 363.052119 
" clip-path="url(#p8aa768e987)" style="fill: none; stroke: #ffd700; stroke-opacity: 0.2; stroke-width: 1.5; stroke-linecap: square"/>
   </g>
   <g id="line2d_20">
    <path d="M 65.454545 333.106948 
L 70.12987 333.615042 
L 74.805195 333.913396 
L 79.480519 333.411029 
L 84.155844 332.392893 
L 88.831169 331.701899 
L 93.506494 331.58535 
L 98.181818 332.17182 
L 102.857143 332.606293 
L 107.532468 333.078044 
L 112.207792 333.729212 
L 116.883117 334.070803 
L 121.558442 334.667871 
L 126.233766 335.428058 
L 130.909091 335.832206 
L 135.584416 336.176993 
L 140.25974 336.675866 
L 144.935065 337.248517 
L 149.61039 337.690556 
L 154.285714 338.040524 
L 158.961039 338.511149 
L 163.636364 339.209067 
L 168.311688 340.286202 
L 172.987013 341.555767 
L 177.662338 342.952313 
L 182.337662 344.535076 
L 187.012987 345.935014 
L 191.688312 346.961857 
L 196.363636 347.99333 
L 201.038961 348.950695 
L 205.714286 349.690835 
L 210.38961 350.581774 
L 215.064935 350.801943 
L 219.74026 350.585785 
L 224.415584 350.22462 
L 229.090909 349.808562 
L 233.766234 349.761382 
L 238.441558 349.925876 
L 243.116883 350.1998 
L 247.792208 350.543423 
L 252.467532 350.726124 
L 257.142857 351.240587 
L 261.818182 351.701936 
L 266.493506 351.780603 
L 271.168831 351.925879 
L 275.844156 351.94624 
L 280.519481 351.883577 
L 285.194805 352.274023 
L 289.87013 352.67282 
L 294.545455 353.069958 
" clip-path="url(#p8aa768e987)" style="fill: none; stroke: #ffd700; stroke-opacity: 0.2; stroke-width: 1.5; stroke-linecap: square"/>
   </g>
   <g id="line2d_21">
    <path d="M 65.454545 335.056571 
L 70.12987 338.911129 
L 74.805195 341.035444 
L 79.480519 341.798257 
L 84.155844 341.559987 
L 88.831169 340.237575 
L 93.506494 338.3811 
L 98.181818 337.564526 
L 102.857143 337.437097 
L 107.532468 337.340672 
L 112.207792 337.555028 
L 116.883117 337.576008 
L 121.558442 337.425082 
L 126.233766 337.565492 
L 130.909091 337.793752 
L 135.584416 338.249436 
L 140.25974 339.720438 
L 144.935065 340.975015 
L 149.61039 341.949852 
L 154.285714 342.4512 
L 158.961039 342.9828 
L 163.636364 343.940097 
L 168.311688 345.27955 
L 172.987013 346.85615 
L 177.662338 348.891038 
L 182.337662 350.288668 
L 187.012987 351.265039 
L 191.688312 351.757679 
L 196.363636 352.127235 
L 201.038961 352.847939 
L 205.714286 352.798458 
L 210.38961 353.750033 
L 215.064935 354.702526 
L 219.74026 354.890723 
L 224.415584 354.544798 
L 229.090909 354.279807 
L 233.766234 354.671563 
L 238.441558 355.050195 
L 243.116883 355.221168 
L 247.792208 356.086714 
L 252.467532 356.603731 
L 257.142857 357.102622 
L 261.818182 357.538819 
L 266.493506 357.375542 
L 271.168831 357.301393 
L 275.844156 357.172953 
L 280.519481 356.56858 
L 285.194805 356.403799 
L 289.87013 355.882926 
L 294.545455 355.276219 
" clip-path="url(#p8aa768e987)" style="fill: none; stroke: #ffd700; stroke-opacity: 0.2; stroke-width: 1.5; stroke-linecap: square"/>
   </g>
   <g id="line2d_22">
    <path d="M 65.454545 326.358068 
L 70.12987 326.322577 
L 74.805195 326.997184 
L 79.480519 327.964048 
L 84.155844 328.225225 
L 88.831169 327.922467 
L 93.506494 326.837824 
L 98.181818 326.279487 
L 102.857143 325.735815 
L 107.532468 325.377043 
L 112.207792 325.43189 
L 116.883117 326.175921 
L 121.558442 327.563546 
L 126.233766 328.900474 
L 130.909091 330.159462 
L 135.584416 330.931662 
L 140.25974 331.916429 
L 144.935065 332.916649 
L 149.61039 333.992585 
L 154.285714 335.225486 
L 158.961039 336.595681 
L 163.636364 337.582204 
L 168.311688 338.505828 
L 172.987013 339.986371 
L 177.662338 341.498409 
L 182.337662 342.716923 
L 187.012987 343.714961 
L 191.688312 344.810237 
L 196.363636 346.175446 
L 201.038961 347.550164 
L 205.714286 349.242043 
L 210.38961 351.17488 
L 215.064935 352.658914 
L 219.74026 353.75169 
L 224.415584 354.849194 
L 229.090909 355.402458 
L 233.766234 355.964709 
L 238.441558 356.328498 
L 243.116883 356.490606 
L 247.792208 357.049236 
L 252.467532 358.057558 
L 257.142857 358.78733 
L 261.818182 359.473929 
L 266.493506 360.355527 
L 271.168831 362.275044 
L 275.844156 363.977526 
L 280.519481 365.34611 
L 285.194805 365.889384 
L 289.87013 366.023913 
L 294.545455 366.391874 
" clip-path="url(#p8aa768e987)" style="fill: none; stroke: #ffd700; stroke-opacity: 0.2; stroke-width: 1.5; stroke-linecap: square"/>
   </g>
   <g id="line2d_23">
    <path d="M 111.272727 382.628571 
L 111.272727 308.571429 
" clip-path="url(#p8aa768e987)" style="fill: none; stroke-dasharray: 5.55,2.4; stroke-dashoffset: 0; stroke: #000000; stroke-width: 1.5"/>
   </g>
   <g id="line2d_24">
    <path d="M 65.454545 345.6 
L 294.545455 345.6 
" clip-path="url(#p8aa768e987)" style="fill: none; stroke-dasharray: 5.55,2.4; stroke-dashoffset: 0; stroke: #000000; stroke-width: 1.5"/>
   </g>
   <g id="patch_3">
    <path d="M 50 388.8 
L 50 302.4 
" style="fill: none; stroke: #000000; stroke-width: 0.8; stroke-linejoin: miter; stroke-linecap: square"/>
   </g>
   <g id="patch_4">
    <path d="M 54 392.8 
L 306 392.8 
" style="fill: none; stroke: #000000; stroke-width: 0.8; stroke-linejoin: miter; stroke-linecap: square"/>
   </g>
   <g id="text_12">
    <!-- all depths -->
    <g transform="translate(150.492188 296.4) scale(0.12 -0.12)">
     <defs>
      <path id="DejaVuSans-70" d="M 1159 525 
L 1159 -1331 
L 581 -1331 
L 581 3500 
L 1159 3500 
L 1159 2969 
Q 1341 3281 1617 3432 
Q 1894 3584 2278 3584 
Q 2916 3584 3314 3078 
Q 3713 2572 3713 1747 
Q 3713 922 3314 415 
Q 2916 -91 2278 -91 
Q 1894 -91 1617 61 
Q 1341 213 1159 525 
z
M 3116 1747 
Q 3116 2381 2855 2742 
Q 2594 3103 2138 3103 
Q 1681 3103 1420 2742 
Q 1159 2381 1159 1747 
Q 1159 1113 1420 752 
Q 1681 391 2138 391 
Q 2594 391 2855 752 
Q 3116 1113 3116 1747 
z
" transform="scale(0.015625)"/>
     </defs>
     <use xlink:href="#DejaVuSans-61"/>
     <use xlink:href="#DejaVuSans-6c" x="61.279297"/>
     <use xlink:href="#DejaVuSans-6c" x="89.0625"/>
     <use xlink:href="#DejaVuSans-20" x="116.845703"/>
     <use xlink:href="#DejaVuSans-64" x="148.632812"/>
     <use xlink:href="#DejaVuSans-65" x="212.109375"/>
     <use xlink:href="#DejaVuSans-70" x="273.632812"/>
     <use xlink:href="#DejaVuSans-74" x="337.109375"/>
     <use xlink:href="#DejaVuSans-68" x="376.318359"/>
     <use xlink:href="#DejaVuSans-73" x="439.697266"/>
    </g>
   </g>
   <g id="legend_1">
    <g id="patch_5">
     <path d="M 211.029687 325.35625 
L 299 325.35625 
Q 301 325.35625 301 323.35625 
L 301 309.4 
Q 301 307.4 299 307.4 
L 211.029687 307.4 
Q 209.029687 307.4 209.029687 309.4 
L 209.029687 323.35625 
Q 209.029687 325.35625 211.029687 325.35625 
z
" style="fill: #ffffff; opacity: 0.8; stroke: #cccccc; stroke-linejoin: miter"/>
    </g>
    <g id="line2d_25">
     <path d="M 213.029687 315.498437 
L 223.029687 315.498437 
L 233.029687 315.498437 
" style="fill: none; stroke: #ffd700; stroke-width: 1.5; stroke-linecap: square"/>
    </g>
    <g id="text_13">
     <!-- ctr_unwarp -->
     <g transform="translate(241.029687 318.998437) scale(0.1 -0.1)">
      <defs>
       <path id="DejaVuSans-5f" d="M 3263 -1063 
L 3263 -1509 
L -63 -1509 
L -63 -1063 
L 3263 -1063 
z
" transform="scale(0.015625)"/>
       <path id="DejaVuSans-75" d="M 544 1381 
L 544 3500 
L 1119 3500 
L 1119 1403 
Q 1119 906 1312 657 
Q 1506 409 1894 409 
Q 2359 409 2629 706 
Q 2900 1003 2900 1516 
L 2900 3500 
L 3475 3500 
L 3475 0 
L 2900 0 
L 2900 538 
Q 2691 219 2414 64 
Q 2138 -91 1772 -91 
Q 1169 -91 856 284 
Q 544 659 544 1381 
z
M 1991 3584 
L 1991 3584 
z
" transform="scale(0.015625)"/>
       <path id="DejaVuSans-77" d="M 269 3500 
L 844 3500 
L 1563 769 
L 2278 3500 
L 2956 3500 
L 3675 769 
L 4391 3500 
L 4966 3500 
L 4050 0 
L 3372 0 
L 2619 2869 
L 1863 0 
L 1184 0 
L 269 3500 
z
" transform="scale(0.015625)"/>
      </defs>
      <use xlink:href="#DejaVuSans-63"/>
      <use xlink:href="#DejaVuSans-74" x="54.980469"/>
      <use xlink:href="#DejaVuSans-72" x="94.189453"/>
      <use xlink:href="#DejaVuSans-5f" x="135.302734"/>
      <use xlink:href="#DejaVuSans-75" x="185.302734"/>
      <use xlink:href="#DejaVuSans-6e" x="248.681641"/>
      <use xlink:href="#DejaVuSans-77" x="312.060547"/>
      <use xlink:href="#DejaVuSans-61" x="393.847656"/>
      <use xlink:href="#DejaVuSans-72" x="455.126953"/>
      <use xlink:href="#DejaVuSans-70" x="496.240234"/>
     </g>
    </g>
   </g>
  </g>
 </g>
 <defs>
  <clipPath id="p8aa768e987">
   <rect x="54" y="302.4" width="252" height="86.4"/>
  </clipPath>
 </defs>
</svg>
