<?xml version="1.0" encoding="utf-8" standalone="no"?>
<!DOCTYPE svg PUBLIC "-//W3C//DTD SVG 1.1//EN"
  "http://www.w3.org/Graphics/SVG/1.1/DTD/svg11.dtd">
<svg xmlns:xlink="http://www.w3.org/1999/xlink" width="576pt" height="504pt" viewBox="0 0 576 504" xmlns="http://www.w3.org/2000/svg" version="1.1">
 <metadata>
  <rdf:RDF xmlns:dc="http://purl.org/dc/elements/1.1/" xmlns:cc="http://creativecommons.org/ns#" xmlns:rdf="http://www.w3.org/1999/02/22-rdf-syntax-ns#">
   <cc:Work>
    <dc:type rdf:resource="http://purl.org/dc/dcmitype/StillImage"/>
    <dc:date>2025-09-22T15:18:53.046646</dc:date>
    <dc:format>image/svg+xml</dc:format>
    <dc:creator>
     <cc:Agent>
      <dc:title>Matplotlib v3.8.0, https://matplotlib.org/</dc:title>
     </cc:Agent>
    </dc:creator>
   </cc:Work>
  </rdf:RDF>
 </metadata>
 <defs>
  <style type="text/css">*{stroke-linejoin: round; stroke-linecap: butt}</style>
 </defs>
 <g id="figure_1">
  <g id="patch_1">
   <path d="M 0 504 
L 576 504 
L 576 0 
L 0 0 
z
" style="fill: #ffffff"/>
  </g>
  <g id="axes_1">
   <g id="patch_2">
    <path d="M 86.4 241.92 
L 489.6 241.92 
L 489.6 40.32 
L 86.4 40.32 
z
" style="fill: #ffffff"/>
   </g>
   <g id="PolyCollection_1">
    <defs>
     <path id="m864035898f" d="M 86.4 -447.372911 
L 86.4 -369.021917 
L 94.628571 -366.604808 
L 102.857143 -363.936561 
L 111.085714 -361.249591 
L 119.314286 -363.098754 
L 127.542857 -369.589095 
L 135.771429 -368.325507 
L 144 -361.728242 
L 152.228571 -355.818998 
L 160.457143 -351.986276 
L 168.685714 -349.993454 
L 176.914286 -352.884423 
L 185.142857 -351.650095 
L 193.371429 -347.314586 
L 201.6 -344.861288 
L 209.828571 -340.065959 
L 218.057143 -337.440144 
L 226.285714 -341.069698 
L 234.514286 -345.803797 
L 242.742857 -349.34387 
L 250.971429 -353.631373 
L 259.2 -355.568255 
L 267.428571 -353.328331 
L 275.657143 -350.225379 
L 283.885714 -349.131397 
L 292.114286 -349.683197 
L 300.342857 -346.63623 
L 308.571429 -344.711507 
L 316.8 -343.81293 
L 325.028571 -340.981395 
L 333.257143 -337.92996 
L 341.485714 -333.49288 
L 349.714286 -331.808605 
L 357.942857 -332.205087 
L 366.171429 -334.51847 
L 374.4 -334.896258 
L 382.628571 -333.623026 
L 390.857143 -331.317021 
L 399.085714 -328.339647 
L 407.314286 -324.885479 
L 415.542857 -321.863672 
L 423.771429 -321.10616 
L 432 -323.724154 
L 440.228571 -328.267382 
L 448.457143 -332.088695 
L 456.685714 -334.995705 
L 464.914286 -334.828238 
L 473.142857 -332.031602 
L 481.371429 -330.95268 
L 489.6 -332.401858 
L 489.6 -384.131945 
L 489.6 -384.131945 
L 481.371429 -384.731227 
L 473.142857 -384.878062 
L 464.914286 -387.219824 
L 456.685714 -385.395497 
L 448.457143 -382.256591 
L 440.228571 -379.044721 
L 432 -376.177229 
L 423.771429 -375.485949 
L 415.542857 -379.209387 
L 407.314286 -384.350493 
L 399.085714 -388.402233 
L 390.857143 -392.919562 
L 382.628571 -398.589546 
L 374.4 -402.893541 
L 366.171429 -404.159307 
L 357.942857 -401.515638 
L 349.714286 -400.295305 
L 341.485714 -401.927259 
L 333.257143 -404.162293 
L 325.028571 -404.990376 
L 316.8 -406.302744 
L 308.571429 -405.96385 
L 300.342857 -404.469216 
L 292.114286 -408.23707 
L 283.885714 -409.203384 
L 275.657143 -411.901149 
L 267.428571 -416.729914 
L 259.2 -420.44893 
L 250.971429 -417.846116 
L 242.742857 -412.973985 
L 234.514286 -407.277704 
L 226.285714 -406.188406 
L 218.057143 -406.366723 
L 209.828571 -412.351711 
L 201.6 -418.801087 
L 193.371429 -421.600055 
L 185.142857 -424.81222 
L 176.914286 -423.415765 
L 168.685714 -418.655658 
L 160.457143 -420.508904 
L 152.228571 -422.504565 
L 144 -425.76062 
L 135.771429 -432.157569 
L 127.542857 -437.347699 
L 119.314286 -434.996379 
L 111.085714 -433.747222 
L 102.857143 -437.910106 
L 94.628571 -441.469153 
L 86.4 -447.372911 
z
" style="stroke: #4c4c4c; stroke-opacity: 0.4"/>
    </defs>
    <g clip-path="url(#p59c1fd9513)">
     <use xlink:href="#m864035898f" x="0" y="504" style="fill: #4c4c4c; fill-opacity: 0.4; stroke: #4c4c4c; stroke-opacity: 0.4"/>
    </g>
   </g>
   <g id="matplotlib.axis_1">
    <g id="xtick_1">
     <g id="line2d_1">
      <defs>
       <path id="m8c7cdeb347" d="M 0 0 
L 0 3.5 
" style="stroke: #000000; stroke-width: 0.8"/>
      </defs>
      <g>
       <use xlink:href="#m8c7cdeb347" x="86.4" y="245.92" style="stroke: #000000; stroke-width: 0.8"/>
      </g>
     </g>
    </g>
    <g id="xtick_2">
     <g id="line2d_2">
      <g>
       <use xlink:href="#m8c7cdeb347" x="167.04" y="245.92" style="stroke: #000000; stroke-width: 0.8"/>
      </g>
     </g>
    </g>
    <g id="xtick_3">
     <g id="line2d_3">
      <g>
       <use xlink:href="#m8c7cdeb347" x="247.68" y="245.92" style="stroke: #000000; stroke-width: 0.8"/>
      </g>
     </g>
    </g>
    <g id="xtick_4">
     <g id="line2d_4">
      <g>
       <use xlink:href="#m8c7cdeb347" x="328.32" y="245.92" style="stroke: #000000; stroke-width: 0.8"/>
      </g>
     </g>
    </g>
    <g id="xtick_5">
     <g id="line2d_5">
      <g>
       <use xlink:href="#m8c7cdeb347" x="408.96" y="245.92" style="stroke: #000000; stroke-width: 0.8"/>
      </g>
     </g>
    </g>
    <g id="xtick_6">
     <g id="line2d_6">
      <g>
       <use xlink:href="#m8c7cdeb347" x="489.6" y="245.92" style="stroke: #000000; stroke-width: 0.8"/>
      </g>
     </g>
    </g>
   </g>
   <g id="matplotlib.axis_2">
    <g id="ytick_1">
     <g id="line2d_7">
      <defs>
       <path id="mcc7c8ba522" d="M 0 0 
L -3.5 0 
" style="stroke: #000000; stroke-width: 0.8"/>
      </defs>
      <g>
       <use xlink:href="#mcc7c8ba522" x="82.4" y="241.92" style="stroke: #000000; stroke-width: 0.8"/>
      </g>
     </g>
     <g id="text_1">
      <!-- −2.0 -->
      <g transform="translate(51.117187 245.719219) scale(0.1 -0.1)">
       <defs>
        <path id="DejaVuSans-2212" d="M 678 2272 
L 4684 2272 
L 4684 1741 
L 678 1741 
L 678 2272 
z
" transform="scale(0.015625)"/>
        <path id="DejaVuSans-32" d="M 1228 531 
L 3431 531 
L 3431 0 
L 469 0 
L 469 531 
Q 828 903 1448 1529 
Q 2069 2156 2228 2338 
Q 2531 2678 2651 2914 
Q 2772 3150 2772 3378 
Q 2772 3750 2511 3984 
Q 2250 4219 1831 4219 
Q 1534 4219 1204 4116 
Q 875 4013 500 3803 
L 500 4441 
Q 881 4594 1212 4672 
Q 1544 4750 1819 4750 
Q 2544 4750 2975 4387 
Q 3406 4025 3406 3419 
Q 3406 3131 3298 2873 
Q 3191 2616 2906 2266 
Q 2828 2175 2409 1742 
Q 1991 1309 1228 531 
z
" transform="scale(0.015625)"/>
        <path id="DejaVuSans-2e" d="M 684 794 
L 1344 794 
L 1344 0 
L 684 0 
L 684 794 
z
" transform="scale(0.015625)"/>
        <path id="DejaVuSans-30" d="M 2034 4250 
Q 1547 4250 1301 3770 
Q 1056 3291 1056 2328 
Q 1056 1369 1301 889 
Q 1547 409 2034 409 
Q 2525 409 2770 889 
Q 3016 1369 3016 2328 
Q 3016 3291 2770 3770 
Q 2525 4250 2034 4250 
z
M 2034 4750 
Q 2819 4750 3233 4129 
Q 3647 3509 3647 2328 
Q 3647 1150 3233 529 
Q 2819 -91 2034 -91 
Q 1250 -91 836 529 
Q 422 1150 422 2328 
Q 422 3509 836 4129 
Q 1250 4750 2034 4750 
z
" transform="scale(0.015625)"/>
       </defs>
       <use xlink:href="#DejaVuSans-2212"/>
       <use xlink:href="#DejaVuSans-32" x="83.789062"/>
       <use xlink:href="#DejaVuSans-2e" x="147.412109"/>
       <use xlink:href="#DejaVuSans-30" x="179.199219"/>
      </g>
     </g>
    </g>
    <g id="ytick_2">
     <g id="line2d_8">
      <g>
       <use xlink:href="#mcc7c8ba522" x="82.4" y="216.72" style="stroke: #000000; stroke-width: 0.8"/>
      </g>
     </g>
     <g id="text_2">
      <!-- −1.5 -->
      <g transform="translate(51.117187 220.519219) scale(0.1 -0.1)">
       <defs>
        <path id="DejaVuSans-31" d="M 794 531 
L 1825 531 
L 1825 4091 
L 703 3866 
L 703 4441 
L 1819 4666 
L 2450 4666 
L 2450 531 
L 3481 531 
L 3481 0 
L 794 0 
L 794 531 
z
" transform="scale(0.015625)"/>
        <path id="DejaVuSans-35" d="M 691 4666 
L 3169 4666 
L 3169 4134 
L 1269 4134 
L 1269 2991 
Q 1406 3038 1543 3061 
Q 1681 3084 1819 3084 
Q 2600 3084 3056 2656 
Q 3513 2228 3513 1497 
Q 3513 744 3044 326 
Q 2575 -91 1722 -91 
Q 1428 -91 1123 -41 
Q 819 9 494 109 
L 494 744 
Q 775 591 1075 516 
Q 1375 441 1709 441 
Q 2250 441 2565 725 
Q 2881 1009 2881 1497 
Q 2881 1984 2565 2268 
Q 2250 2553 1709 2553 
Q 1456 2553 1204 2497 
Q 953 2441 691 2322 
L 691 4666 
z
" transform="scale(0.015625)"/>
       </defs>
       <use xlink:href="#DejaVuSans-2212"/>
       <use xlink:href="#DejaVuSans-31" x="83.789062"/>
       <use xlink:href="#DejaVuSans-2e" x="147.412109"/>
       <use xlink:href="#DejaVuSans-35" x="179.199219"/>
      </g>
     </g>
    </g>
    <g id="ytick_3">
     <g id="line2d_9">
      <g>
       <use xlink:href="#mcc7c8ba522" x="82.4" y="191.52" style="stroke: #000000; stroke-width: 0.8"/>
      </g>
     </g>
     <g id="text_3">
      <!-- −1.0 -->
      <g transform="translate(51.117187 195.319219) scale(0.1 -0.1)">
       <use xlink:href="#DejaVuSans-2212"/>
       <use xlink:href="#DejaVuSans-31" x="83.789062"/>
       <use xlink:href="#DejaVuSans-2e" x="147.412109"/>
       <use xlink:href="#DejaVuSans-30" x="179.199219"/>
      </g>
     </g>
    </g>
    <g id="ytick_4">
     <g id="line2d_10">
      <g>
       <use xlink:href="#mcc7c8ba522" x="82.4" y="166.32" style="stroke: #000000; stroke-width: 0.8"/>
      </g>
     </g>
     <g id="text_4">
      <!-- −0.5 -->
      <g transform="translate(51.117187 170.119219) scale(0.1 -0.1)">
       <use xlink:href="#DejaVuSans-2212"/>
       <use xlink:href="#DejaVuSans-30" x="83.789062"/>
       <use xlink:href="#DejaVuSans-2e" x="147.412109"/>
       <use xlink:href="#DejaVuSans-35" x="179.199219"/>
      </g>
     </g>
    </g>
    <g id="ytick_5">
     <g id="line2d_11">
      <g>
       <use xlink:href="#mcc7c8ba522" x="82.4" y="141.12" style="stroke: #000000; stroke-width: 0.8"/>
      </g>
     </g>
     <g id="text_5">
      <!-- 0.0 -->
      <g transform="translate(59.496875 144.919219) scale(0.1 -0.1)">
       <use xlink:href="#DejaVuSans-30"/>
       <use xlink:href="#DejaVuSans-2e" x="63.623047"/>
       <use xlink:href="#DejaVuSans-30" x="95.410156"/>
      </g>
     </g>
    </g>
    <g id="ytick_6">
     <g id="line2d_12">
      <g>
       <use xlink:href="#mcc7c8ba522" x="82.4" y="115.92" style="stroke: #000000; stroke-width: 0.8"/>
      </g>
     </g>
     <g id="text_6">
      <!-- 0.5 -->
      <g transform="translate(59.496875 119.719219) scale(0.1 -0.1)">
       <use xlink:href="#DejaVuSans-30"/>
       <use xlink:href="#DejaVuSans-2e" x="63.623047"/>
       <use xlink:href="#DejaVuSans-35" x="95.410156"/>
      </g>
     </g>
    </g>
    <g id="ytick_7">
     <g id="line2d_13">
      <g>
       <use xlink:href="#mcc7c8ba522" x="82.4" y="90.72" style="stroke: #000000; stroke-width: 0.8"/>
      </g>
     </g>
     <g id="text_7">
      <!-- 1.0 -->
      <g transform="translate(59.496875 94.519219) scale(0.1 -0.1)">
       <use xlink:href="#DejaVuSans-31"/>
       <use xlink:href="#DejaVuSans-2e" x="63.623047"/>
       <use xlink:href="#DejaVuSans-30" x="95.410156"/>
      </g>
     </g>
    </g>
    <g id="ytick_8">
     <g id="line2d_14">
      <g>
       <use xlink:href="#mcc7c8ba522" x="82.4" y="65.52" style="stroke: #000000; stroke-width: 0.8"/>
      </g>
     </g>
     <g id="text_8">
      <!-- 1.5 -->
      <g transform="translate(59.496875 69.319219) scale(0.1 -0.1)">
       <use xlink:href="#DejaVuSans-31"/>
       <use xlink:href="#DejaVuSans-2e" x="63.623047"/>
       <use xlink:href="#DejaVuSans-35" x="95.410156"/>
      </g>
     </g>
    </g>
    <g id="ytick_9">
     <g id="line2d_15">
      <g>
       <use xlink:href="#mcc7c8ba522" x="82.4" y="40.32" style="stroke: #000000; stroke-width: 0.8"/>
      </g>
     </g>
     <g id="text_9">
      <!-- 2.0 -->
      <g transform="translate(59.496875 44.119219) scale(0.1 -0.1)">
       <use xlink:href="#DejaVuSans-32"/>
       <use xlink:href="#DejaVuSans-2e" x="63.623047"/>
       <use xlink:href="#DejaVuSans-30" x="95.410156"/>
      </g>
     </g>
    </g>
    <g id="text_10">
     <!-- BOLD % change -->
     <g transform="translate(45.453437 173.31625) rotate(-90) scale(0.08 -0.08)">
      <defs>
       <path id="DejaVuSans-42" d="M 1259 2228 
L 1259 519 
L 2272 519 
Q 2781 519 3026 730 
Q 3272 941 3272 1375 
Q 3272 1813 3026 2020 
Q 2781 2228 2272 2228 
L 1259 2228 
z
M 1259 4147 
L 1259 2741 
L 2194 2741 
Q 2656 2741 2882 2914 
Q 3109 3088 3109 3444 
Q 3109 3797 2882 3972 
Q 2656 4147 2194 4147 
L 1259 4147 
z
M 628 4666 
L 2241 4666 
Q 2963 4666 3353 4366 
Q 3744 4066 3744 3513 
Q 3744 3084 3544 2831 
Q 3344 2578 2956 2516 
Q 3422 2416 3680 2098 
Q 3938 1781 3938 1306 
Q 3938 681 3513 340 
Q 3088 0 2303 0 
L 628 0 
L 628 4666 
z
" transform="scale(0.015625)"/>
       <path id="DejaVuSans-4f" d="M 2522 4238 
Q 1834 4238 1429 3725 
Q 1025 3213 1025 2328 
Q 1025 1447 1429 934 
Q 1834 422 2522 422 
Q 3209 422 3611 934 
Q 4013 1447 4013 2328 
Q 4013 3213 3611 3725 
Q 3209 4238 2522 4238 
z
M 2522 4750 
Q 3503 4750 4090 4092 
Q 4678 3434 4678 2328 
Q 4678 1225 4090 567 
Q 3503 -91 2522 -91 
Q 1538 -91 948 565 
Q 359 1222 359 2328 
Q 359 3434 948 4092 
Q 1538 4750 2522 4750 
z
" transform="scale(0.015625)"/>
       <path id="DejaVuSans-4c" d="M 628 4666 
L 1259 4666 
L 1259 531 
L 3531 531 
L 3531 0 
L 628 0 
L 628 4666 
z
" transform="scale(0.015625)"/>
       <path id="DejaVuSans-44" d="M 1259 4147 
L 1259 519 
L 2022 519 
Q 2988 519 3436 956 
Q 3884 1394 3884 2338 
Q 3884 3275 3436 3711 
Q 2988 4147 2022 4147 
L 1259 4147 
z
M 628 4666 
L 1925 4666 
Q 3281 4666 3915 4102 
Q 4550 3538 4550 2338 
Q 4550 1131 3912 565 
Q 3275 0 1925 0 
L 628 0 
L 628 4666 
z
" transform="scale(0.015625)"/>
       <path id="DejaVuSans-20" transform="scale(0.015625)"/>
       <path id="DejaVuSans-25" d="M 4653 2053 
Q 4381 2053 4226 1822 
Q 4072 1591 4072 1178 
Q 4072 772 4226 539 
Q 4381 306 4653 306 
Q 4919 306 5073 539 
Q 5228 772 5228 1178 
Q 5228 1588 5073 1820 
Q 4919 2053 4653 2053 
z
M 4653 2450 
Q 5147 2450 5437 2106 
Q 5728 1763 5728 1178 
Q 5728 594 5436 251 
Q 5144 -91 4653 -91 
Q 4153 -91 3862 251 
Q 3572 594 3572 1178 
Q 3572 1766 3864 2108 
Q 4156 2450 4653 2450 
z
M 1428 4353 
Q 1159 4353 1004 4120 
Q 850 3888 850 3481 
Q 850 3069 1003 2837 
Q 1156 2606 1428 2606 
Q 1700 2606 1854 2837 
Q 2009 3069 2009 3481 
Q 2009 3884 1853 4118 
Q 1697 4353 1428 4353 
z
M 4250 4750 
L 4750 4750 
L 1831 -91 
L 1331 -91 
L 4250 4750 
z
M 1428 4750 
Q 1922 4750 2215 4408 
Q 2509 4066 2509 3481 
Q 2509 2891 2217 2550 
Q 1925 2209 1428 2209 
Q 931 2209 642 2551 
Q 353 2894 353 3481 
Q 353 4063 643 4406 
Q 934 4750 1428 4750 
z
" transform="scale(0.015625)"/>
       <path id="DejaVuSans-63" d="M 3122 3366 
L 3122 2828 
Q 2878 2963 2633 3030 
Q 2388 3097 2138 3097 
Q 1578 3097 1268 2742 
Q 959 2388 959 1747 
Q 959 1106 1268 751 
Q 1578 397 2138 397 
Q 2388 397 2633 464 
Q 2878 531 3122 666 
L 3122 134 
Q 2881 22 2623 -34 
Q 2366 -91 2075 -91 
Q 1284 -91 818 406 
Q 353 903 353 1747 
Q 353 2603 823 3093 
Q 1294 3584 2113 3584 
Q 2378 3584 2631 3529 
Q 2884 3475 3122 3366 
z
" transform="scale(0.015625)"/>
       <path id="DejaVuSans-68" d="M 3513 2113 
L 3513 0 
L 2938 0 
L 2938 2094 
Q 2938 2591 2744 2837 
Q 2550 3084 2163 3084 
Q 1697 3084 1428 2787 
Q 1159 2491 1159 1978 
L 1159 0 
L 581 0 
L 581 4863 
L 1159 4863 
L 1159 2956 
Q 1366 3272 1645 3428 
Q 1925 3584 2291 3584 
Q 2894 3584 3203 3211 
Q 3513 2838 3513 2113 
z
" transform="scale(0.015625)"/>
       <path id="DejaVuSans-61" d="M 2194 1759 
Q 1497 1759 1228 1600 
Q 959 1441 959 1056 
Q 959 750 1161 570 
Q 1363 391 1709 391 
Q 2188 391 2477 730 
Q 2766 1069 2766 1631 
L 2766 1759 
L 2194 1759 
z
M 3341 1997 
L 3341 0 
L 2766 0 
L 2766 531 
Q 2569 213 2275 61 
Q 1981 -91 1556 -91 
Q 1019 -91 701 211 
Q 384 513 384 1019 
Q 384 1609 779 1909 
Q 1175 2209 1959 2209 
L 2766 2209 
L 2766 2266 
Q 2766 2663 2505 2880 
Q 2244 3097 1772 3097 
Q 1472 3097 1187 3025 
Q 903 2953 641 2809 
L 641 3341 
Q 956 3463 1253 3523 
Q 1550 3584 1831 3584 
Q 2591 3584 2966 3190 
Q 3341 2797 3341 1997 
z
" transform="scale(0.015625)"/>
       <path id="DejaVuSans-6e" d="M 3513 2113 
L 3513 0 
L 2938 0 
L 2938 2094 
Q 2938 2591 2744 2837 
Q 2550 3084 2163 3084 
Q 1697 3084 1428 2787 
Q 1159 2491 1159 1978 
L 1159 0 
L 581 0 
L 581 3500 
L 1159 3500 
L 1159 2956 
Q 1366 3272 1645 3428 
Q 1925 3584 2291 3584 
Q 2894 3584 3203 3211 
Q 3513 2838 3513 2113 
z
" transform="scale(0.015625)"/>
       <path id="DejaVuSans-67" d="M 2906 1791 
Q 2906 2416 2648 2759 
Q 2391 3103 1925 3103 
Q 1463 3103 1205 2759 
Q 947 2416 947 1791 
Q 947 1169 1205 825 
Q 1463 481 1925 481 
Q 2391 481 2648 825 
Q 2906 1169 2906 1791 
z
M 3481 434 
Q 3481 -459 3084 -895 
Q 2688 -1331 1869 -1331 
Q 1566 -1331 1297 -1286 
Q 1028 -1241 775 -1147 
L 775 -588 
Q 1028 -725 1275 -790 
Q 1522 -856 1778 -856 
Q 2344 -856 2625 -561 
Q 2906 -266 2906 331 
L 2906 616 
Q 2728 306 2450 153 
Q 2172 0 1784 0 
Q 1141 0 747 490 
Q 353 981 353 1791 
Q 353 2603 747 3093 
Q 1141 3584 1784 3584 
Q 2172 3584 2450 3431 
Q 2728 3278 2906 2969 
L 2906 3500 
L 3481 3500 
L 3481 434 
z
" transform="scale(0.015625)"/>
       <path id="DejaVuSans-65" d="M 3597 1894 
L 3597 1613 
L 953 1613 
Q 991 1019 1311 708 
Q 1631 397 2203 397 
Q 2534 397 2845 478 
Q 3156 559 3463 722 
L 3463 178 
Q 3153 47 2828 -22 
Q 2503 -91 2169 -91 
Q 1331 -91 842 396 
Q 353 884 353 1716 
Q 353 2575 817 3079 
Q 1281 3584 2069 3584 
Q 2775 3584 3186 3129 
Q 3597 2675 3597 1894 
z
M 3022 2063 
Q 3016 2534 2758 2815 
Q 2500 3097 2075 3097 
Q 1594 3097 1305 2825 
Q 1016 2553 972 2059 
L 3022 2063 
z
" transform="scale(0.015625)"/>
      </defs>
      <use xlink:href="#DejaVuSans-42"/>
      <use xlink:href="#DejaVuSans-4f" x="66.853516"/>
      <use xlink:href="#DejaVuSans-4c" x="145.564453"/>
      <use xlink:href="#DejaVuSans-44" x="201.277344"/>
      <use xlink:href="#DejaVuSans-20" x="278.279297"/>
      <use xlink:href="#DejaVuSans-25" x="310.066406"/>
      <use xlink:href="#DejaVuSans-20" x="405.085938"/>
      <use xlink:href="#DejaVuSans-63" x="436.873047"/>
      <use xlink:href="#DejaVuSans-68" x="491.853516"/>
      <use xlink:href="#DejaVuSans-61" x="555.232422"/>
      <use xlink:href="#DejaVuSans-6e" x="616.511719"/>
      <use xlink:href="#DejaVuSans-67" x="679.890625"/>
      <use xlink:href="#DejaVuSans-65" x="743.367188"/>
     </g>
    </g>
   </g>
   <g id="line2d_16">
    <path d="M 86.4 95.802586 
L 94.628571 99.96302 
L 102.857143 103.076667 
L 111.085714 106.501594 
L 119.314286 104.952434 
L 127.542857 100.531603 
L 135.771429 103.758462 
L 144 110.255569 
L 152.228571 114.838218 
L 160.457143 117.75241 
L 168.685714 119.675444 
L 176.914286 115.849906 
L 185.142857 115.768842 
L 193.371429 119.542679 
L 201.6 122.168812 
L 209.828571 127.791165 
L 218.057143 132.096567 
L 226.285714 130.370948 
L 234.514286 127.459249 
L 242.742857 122.841072 
L 250.971429 118.261255 
L 259.2 115.991407 
L 267.428571 118.970877 
L 275.657143 122.936736 
L 283.885714 124.83261 
L 292.114286 125.039866 
L 300.342857 128.447277 
L 308.571429 128.662322 
L 316.8 128.942163 
L 325.028571 131.014114 
L 333.257143 132.953874 
L 341.485714 136.28993 
L 349.714286 137.948045 
L 357.942857 137.139637 
L 366.171429 134.661112 
L 374.4 135.105101 
L 382.628571 137.893714 
L 390.857143 141.881708 
L 399.085714 145.62906 
L 407.314286 149.382014 
L 415.542857 153.46347 
L 423.771429 155.703945 
L 432 154.049308 
L 440.228571 150.343948 
L 448.457143 146.827357 
L 456.685714 143.804399 
L 464.914286 142.975969 
L 473.142857 145.545168 
L 481.371429 146.158047 
L 489.6 145.733098 
" clip-path="url(#p59c1fd9513)" style="fill: none; stroke: #4c4c4c; stroke-width: 1.5; stroke-linecap: square"/>
   </g>
   <g id="line2d_17">
    <path d="M 86.4 106.707293 
L 94.628571 105.692228 
L 102.857143 104.466031 
L 111.085714 104.004414 
L 119.314286 110.147704 
L 127.542857 132.199937 
L 135.771429 151.305574 
L 144 179.184008 
L 152.228571 208.604677 
L 160.457143 213.275084 
L 168.685714 205.742826 
L 176.914286 189.991187 
L 185.142857 183.311235 
L 193.371429 186.907849 
L 201.6 204.82419 
L 209.828571 232.194251 
L 218.057143 238.449012 
L 226.285714 229.678199 
L 234.514286 215.956082 
L 242.742857 211.266703 
L 250.971429 197.029955 
L 259.2 201.129752 
L 267.428571 194.868725 
L 275.657143 179.334028 
L 283.885714 168.907715 
L 292.114286 179.262045 
L 300.342857 195.364018 
L 308.571429 205.582468 
L 316.8 204.324389 
L 325.028571 218.351983 
L 333.257143 238.911446 
L 341.485714 267.586171 
L 349.714286 274.225956 
L 357.942857 273.098674 
L 366.171429 264.174404 
L 374.4 254.509757 
L 382.628571 271.819926 
L 390.857143 294.322208 
L 399.085714 301.84703 
L 407.314286 300.922652 
L 415.542857 285.802175 
L 423.771429 254.727733 
L 432 222.292181 
L 440.228571 214.126792 
L 448.457143 214.988414 
L 456.685714 200.673533 
L 464.914286 200.495345 
L 473.142857 195.224157 
L 481.371429 183.438963 
L 489.6 168.526318 
" clip-path="url(#p59c1fd9513)" style="fill: none; stroke: #4c4c4c; stroke-opacity: 0.2; stroke-width: 1.5; stroke-linecap: square"/>
   </g>
   <g id="line2d_18">
    <path d="M 86.4 112.782569 
L 94.628571 112.782569 
L 102.857143 133.949872 
L 111.085714 151.514058 
L 119.314286 159.732489 
L 127.542857 156.257272 
L 135.771429 140.362659 
L 144 136.667956 
L 152.228571 125.345497 
L 160.457143 134.841334 
L 168.685714 155.504162 
L 176.914286 173.503677 
L 185.142857 175.838023 
L 193.371429 176.051919 
L 201.6 161.514823 
L 209.828571 159.579511 
L 218.057143 165.058233 
L 226.285714 170.619185 
L 234.514286 175.76406 
L 242.742857 186.736803 
L 250.971429 187.863075 
L 259.2 190.131919 
L 267.428571 195.534491 
L 275.657143 198.916087 
L 283.885714 196.11223 
L 292.114286 184.494013 
L 300.342857 172.879728 
L 308.571429 163.485731 
L 316.8 156.31342 
L 325.028571 154.619439 
L 333.257143 150.596301 
L 341.485714 143.599957 
L 349.714286 136.985107 
L 357.942857 142.834377 
L 366.171429 150.36939 
L 374.4 157.237791 
L 382.628571 166.480195 
L 390.857143 173.35458 
L 399.085714 178.314167 
L 407.314286 179.75271 
L 415.542857 181.097513 
L 423.771429 174.996188 
L 432 175.561057 
L 440.228571 173.882983 
L 448.457143 164.464885 
L 456.685714 155.554343 
L 464.914286 149.038526 
L 473.142857 147.970485 
L 481.371429 150.486938 
L 489.6 138.969661 
" clip-path="url(#p59c1fd9513)" style="fill: none; stroke: #4c4c4c; stroke-opacity: 0.2; stroke-width: 1.5; stroke-linecap: square"/>
   </g>
   <g id="line2d_19">
    <path d="M 86.4 118.17013 
L 94.628571 109.678725 
L 102.857143 89.001901 
L 111.085714 79.70913 
L 119.314286 94.899759 
L 127.542857 106.247946 
L 135.771429 116.638773 
L 144 136.831694 
L 152.228571 152.495854 
L 160.457143 161.942586 
L 168.685714 160.169674 
L 176.914286 158.501408 
L 185.142857 155.730942 
L 193.371429 156.59263 
L 201.6 159.342682 
L 209.828571 156.040764 
L 218.057143 163.227489 
L 226.285714 167.578863 
L 234.514286 171.054254 
L 242.742857 179.189495 
L 250.971429 182.935189 
L 259.2 187.889893 
L 267.428571 196.769821 
L 275.657143 204.924451 
L 283.885714 212.398668 
L 292.114286 215.558855 
L 300.342857 223.500212 
L 308.571429 226.556063 
L 316.8 222.375561 
L 325.028571 222.262306 
L 333.257143 221.255634 
L 341.485714 216.571451 
L 349.714286 208.198741 
L 357.942857 201.458812 
L 366.171429 195.91603 
L 374.4 187.928293 
L 382.628571 178.706314 
L 390.857143 170.794606 
L 399.085714 171.002697 
L 407.314286 179.878323 
L 415.542857 194.770378 
L 423.771429 202.307063 
L 432 204.215268 
L 440.228571 202.702872 
L 448.457143 192.663748 
L 456.685714 185.167432 
L 464.914286 191.940165 
L 473.142857 221.396283 
L 481.371429 247.44846 
L 489.6 254.746727 
" clip-path="url(#p59c1fd9513)" style="fill: none; stroke: #4c4c4c; stroke-opacity: 0.2; stroke-width: 1.5; stroke-linecap: square"/>
   </g>
   <g id="line2d_20">
    <path d="M 86.4 236.474698 
L 94.628571 236.474698 
L 102.857143 231.458239 
L 111.085714 228.151672 
L 119.314286 226.20793 
L 127.542857 222.440024 
L 135.771429 242.414482 
L 144 260.311348 
L 152.228571 265.868139 
L 160.457143 265.866289 
L 168.685714 264.576642 
L 176.914286 253.841605 
L 185.142857 241.43533 
L 193.371429 226.472262 
L 201.6 218.468482 
L 209.828571 220.866028 
L 218.057143 221.629386 
L 226.285714 223.717248 
L 234.514286 220.051012 
L 242.742857 216.554847 
L 250.971429 219.356023 
L 259.2 222.399761 
L 267.428571 221.774789 
L 275.657143 221.165113 
L 283.885714 219.321272 
L 292.114286 210.309119 
L 300.342857 206.871852 
L 308.571429 213.05879 
L 316.8 217.627178 
L 325.028571 218.179778 
L 333.257143 217.542501 
L 341.485714 218.165104 
L 349.714286 221.256774 
L 357.942857 215.486038 
L 366.171429 206.361321 
L 374.4 194.529606 
L 382.628571 183.241926 
L 390.857143 178.837119 
L 399.085714 173.313046 
L 407.314286 172.278742 
L 415.542857 173.646695 
L 423.771429 176.359902 
L 432 180.825575 
L 440.228571 181.548682 
L 448.457143 182.343419 
L 456.685714 178.045491 
L 464.914286 170.69191 
L 473.142857 167.104517 
L 481.371429 153.381671 
L 489.6 145.15872 
" clip-path="url(#p59c1fd9513)" style="fill: none; stroke: #4c4c4c; stroke-opacity: 0.2; stroke-width: 1.5; stroke-linecap: square"/>
   </g>
   <g id="line2d_21">
    <path d="M 428.015143 -1 
L 432 3.194094 
L 440.228571 7.997827 
L 448.457143 9.999143 
L 456.685714 15.121805 
L 464.914286 8.556177 
L 473.142857 5.642148 
L 481.371429 3.001526 
L 489.6 0.220505 
" clip-path="url(#p59c1fd9513)" style="fill: none; stroke: #4c4c4c; stroke-opacity: 0.2; stroke-width: 1.5; stroke-linecap: square"/>
   </g>
   <g id="line2d_22">
    <path d="M 88.58726 -1 
L 94.628571 28.228317 
L 102.857143 93.446556 
L 111.085714 126.961409 
L 119.314286 119.06663 
L 127.542857 123.691155 
L 135.771429 143.839484 
L 144 169.279176 
L 152.228571 199.294701 
L 160.457143 223.677323 
L 168.685714 228.085912 
L 176.914286 223.566615 
L 185.142857 230.711826 
L 193.371429 247.904674 
L 201.6 255.915948 
L 209.828571 252.269669 
L 218.057143 252.022371 
L 226.285714 228.521123 
L 234.514286 202.624228 
L 242.742857 173.521743 
L 250.971429 162.235703 
L 259.2 148.375733 
L 267.428571 146.928969 
L 275.657143 150.057463 
L 283.885714 141.09509 
L 292.114286 136.988271 
L 300.342857 145.036418 
L 308.571429 150.903244 
L 316.8 160.789528 
L 325.028571 163.924475 
L 333.257143 162.583219 
L 341.485714 160.727938 
L 349.714286 169.557322 
L 357.942857 180.875583 
L 366.171429 189.092682 
L 374.4 201.803807 
L 382.628571 199.386668 
L 390.857143 201.623904 
L 399.085714 198.52817 
L 407.314286 196.826651 
L 415.542857 205.359435 
L 423.771429 223.801511 
L 432 231.688939 
L 440.228571 228.015586 
L 448.457143 222.758382 
L 456.685714 231.777536 
L 464.914286 248.841841 
L 473.142857 250.176258 
L 481.371429 241.325 
L 489.6 228.894796 
" clip-path="url(#p59c1fd9513)" style="fill: none; stroke: #4c4c4c; stroke-opacity: 0.2; stroke-width: 1.5; stroke-linecap: square"/>
   </g>
   <g id="line2d_23">
    <path d="M 86.4 120.462631 
L 94.628571 114.920406 
L 102.857143 121.744423 
L 111.085714 131.980726 
L 119.314286 146.351482 
L 127.542857 147.146148 
L 135.771429 141.254575 
L 144 124.982372 
L 152.228571 110.026696 
L 160.457143 90.191366 
L 168.685714 90.362915 
L 176.914286 90.50145 
L 185.142857 104.293601 
L 193.371429 126.174927 
L 201.6 135.71845 
L 209.828571 136.524117 
L 218.057143 131.52088 
L 226.285714 123.859966 
L 234.514286 119.831996 
L 242.742857 124.044604 
L 250.971429 122.514665 
L 259.2 125.542285 
L 267.428571 141.179239 
L 275.657143 161.58073 
L 283.885714 170.248645 
L 292.114286 168.732926 
L 300.342857 163.818395 
L 308.571429 155.65484 
L 316.8 151.546016 
L 325.028571 154.029993 
L 333.257143 157.323999 
L 341.485714 160.727505 
L 349.714286 155.984666 
L 357.942857 138.692637 
L 366.171429 121.404762 
L 374.4 104.518857 
L 382.628571 88.270446 
L 390.857143 82.965415 
L 399.085714 90.963474 
L 407.314286 114.367412 
L 415.542857 130.903932 
L 423.771429 135.924828 
L 432 129.997135 
L 440.228571 108.84683 
L 448.457143 99.368699 
L 456.685714 81.179799 
L 464.914286 67.655147 
L 473.142857 61.574549 
L 481.371429 50.250124 
L 489.6 62.05538 
" clip-path="url(#p59c1fd9513)" style="fill: none; stroke: #4c4c4c; stroke-opacity: 0.2; stroke-width: 1.5; stroke-linecap: square"/>
   </g>
   <g id="line2d_24">
    <path d="M 86.4 207.0579 
L 94.628571 213.654775 
L 102.857143 225.245445 
L 111.085714 212.99477 
L 119.314286 178.658807 
L 127.542857 115.471082 
L 135.771429 76.740024 
L 144 35.559595 
L 152.228571 11.235043 
L 160.457143 7.370569 
L 168.685714 16.507096 
L 176.914286 32.561929 
L 185.142857 44.787575 
L 193.371429 54.325031 
L 201.6 74.479455 
L 209.828571 100.656613 
L 218.057143 123.473402 
L 226.285714 131.81256 
L 234.514286 134.79394 
L 242.742857 134.207923 
L 250.971429 129.0448 
L 259.2 118.4889 
L 267.428571 119.311383 
L 275.657143 119.621756 
L 283.885714 131.202323 
L 292.114286 148.005483 
L 300.342857 165.759253 
L 308.571429 180.434999 
L 316.8 183.733639 
L 325.028571 182.387178 
L 333.257143 184.591316 
L 341.485714 194.310028 
L 349.714286 199.928395 
L 357.942857 205.355693 
L 366.171429 211.556472 
L 374.4 225.007236 
L 382.628571 226.532659 
L 390.857143 219.702523 
L 399.085714 227.029165 
L 407.314286 239.26406 
L 415.542857 241.497102 
L 423.771429 246.352126 
L 432 246.190037 
L 440.228571 242.507249 
L 448.457143 246.632725 
L 456.685714 257.988913 
L 464.914286 260.832972 
L 473.142857 261.895336 
L 481.371429 263.268773 
L 489.6 263.497151 
" clip-path="url(#p59c1fd9513)" style="fill: none; stroke: #4c4c4c; stroke-opacity: 0.2; stroke-width: 1.5; stroke-linecap: square"/>
   </g>
   <g id="line2d_25">
    <path d="M 86.4 131.42875 
L 94.628571 127.608412 
L 102.857143 107.695254 
L 111.085714 119.508135 
L 119.314286 108.541876 
L 127.542857 90.391686 
L 135.771429 86.660677 
L 144 96.539389 
L 152.228571 103.307926 
L 160.457143 109.564248 
L 168.685714 112.556399 
L 176.914286 112.424898 
L 185.142857 118.699433 
L 193.371429 134.309014 
L 201.6 125.578169 
L 209.828571 117.945582 
L 218.057143 108.502263 
L 226.285714 100.123325 
L 234.514286 88.869683 
L 242.742857 72.924794 
L 250.971429 61.536424 
L 259.2 62.002545 
L 267.428571 68.600784 
L 275.657143 79.345807 
L 283.885714 83.203979 
L 292.114286 82.953537 
L 300.342857 84.753892 
L 308.571429 81.032922 
L 316.8 90.021291 
L 325.028571 101.903607 
L 333.257143 114.721192 
L 341.485714 125.194149 
L 349.714286 133.512439 
L 357.942857 141.863994 
L 366.171429 145.0622 
L 374.4 150.756114 
L 382.628571 160.795639 
L 390.857143 165.025292 
L 399.085714 174.118656 
L 407.314286 179.033683 
L 415.542857 184.627104 
L 423.771429 185.884729 
L 432 189.946677 
L 440.228571 182.061365 
L 448.457143 168.817339 
L 456.685714 153.130533 
L 464.914286 143.642464 
L 473.142857 144.973617 
L 481.371429 151.837918 
L 489.6 154.65034 
" clip-path="url(#p59c1fd9513)" style="fill: none; stroke: #4c4c4c; stroke-opacity: 0.2; stroke-width: 1.5; stroke-linecap: square"/>
   </g>
   <g id="line2d_26">
    <path d="M 483.528395 -1 
L 489.6 9.702002 
" clip-path="url(#p59c1fd9513)" style="fill: none; stroke: #4c4c4c; stroke-opacity: 0.2; stroke-width: 1.5; stroke-linecap: square"/>
   </g>
   <g id="line2d_27">
    <path d="M 86.4 268.279122 
L 94.628571 269.489237 
L 102.857143 257.557223 
L 111.085714 246.759159 
L 119.314286 245.673915 
L 127.542857 239.15139 
L 135.771429 231.366298 
L 144 230.74518 
L 152.228571 229.880251 
L 160.457143 229.314962 
L 168.685714 230.725578 
L 176.914286 229.042503 
L 185.142857 239.892149 
L 193.371429 238.006184 
L 201.6 236.368791 
L 209.828571 236.923368 
L 218.057143 225.649614 
L 226.285714 212.107858 
L 234.514286 205.901966 
L 242.742857 205.352508 
L 250.971429 202.193489 
L 259.2 191.501647 
L 267.428571 182.040689 
L 275.657143 183.215197 
L 283.885714 186.643405 
L 292.114286 180.836375 
L 300.342857 176.888929 
L 308.571429 181.567412 
L 316.8 185.659878 
L 325.028571 187.514969 
L 333.257143 189.137358 
L 341.485714 192.775901 
L 349.714286 194.743789 
L 357.942857 194.85099 
L 366.171429 192.036879 
L 374.4 189.902827 
L 382.628571 185.444169 
L 390.857143 174.205055 
L 399.085714 165.861945 
L 407.314286 153.953445 
L 415.542857 149.100728 
L 423.771429 153.305176 
L 432 145.41358 
L 440.228571 140.769253 
L 448.457143 141.158958 
L 456.685714 150.274237 
L 464.914286 154.072184 
L 473.142857 156.22716 
L 481.371429 168.101077 
L 489.6 176.642479 
" clip-path="url(#p59c1fd9513)" style="fill: none; stroke: #4c4c4c; stroke-opacity: 0.2; stroke-width: 1.5; stroke-linecap: square"/>
   </g>
   <g id="line2d_28">
    <path d="M 167.04 241.92 
L 167.04 40.32 
" clip-path="url(#p59c1fd9513)" style="fill: none; stroke-dasharray: 5.55,2.4; stroke-dashoffset: 0; stroke: #000000; stroke-width: 1.5"/>
   </g>
   <g id="line2d_29">
    <path d="M 86.4 141.12 
L 489.6 141.12 
" clip-path="url(#p59c1fd9513)" style="fill: none; stroke-dasharray: 5.55,2.4; stroke-dashoffset: 0; stroke: #000000; stroke-width: 1.5"/>
   </g>
   <g id="patch_3">
    <path d="M 82.4 241.92 
L 82.4 40.32 
" style="fill: none; stroke: #000000; stroke-width: 0.8; stroke-linejoin: miter; stroke-linecap: square"/>
   </g>
   <g id="patch_4">
    <path d="M 86.4 245.92 
L 489.6 245.92 
" style="fill: none; stroke: #000000; stroke-width: 0.8; stroke-linejoin: miter; stroke-linecap: square"/>
   </g>
   <g id="text_11">
    <!-- all depths -->
    <g transform="translate(268.328125 34.32) scale(0.08 -0.08)">
     <defs>
      <path id="DejaVuSans-6c" d="M 603 4863 
L 1178 4863 
L 1178 0 
L 603 0 
L 603 4863 
z
" transform="scale(0.015625)"/>
      <path id="DejaVuSans-64" d="M 2906 2969 
L 2906 4863 
L 3481 4863 
L 3481 0 
L 2906 0 
L 2906 525 
Q 2725 213 2448 61 
Q 2172 -91 1784 -91 
Q 1150 -91 751 415 
Q 353 922 353 1747 
Q 353 2572 751 3078 
Q 1150 3584 1784 3584 
Q 2172 3584 2448 3432 
Q 2725 3281 2906 2969 
z
M 947 1747 
Q 947 1113 1208 752 
Q 1469 391 1925 391 
Q 2381 391 2643 752 
Q 2906 1113 2906 1747 
Q 2906 2381 2643 2742 
Q 2381 3103 1925 3103 
Q 1469 3103 1208 2742 
Q 947 2381 947 1747 
z
" transform="scale(0.015625)"/>
      <path id="DejaVuSans-70" d="M 1159 525 
L 1159 -1331 
L 581 -1331 
L 581 3500 
L 1159 3500 
L 1159 2969 
Q 1341 3281 1617 3432 
Q 1894 3584 2278 3584 
Q 2916 3584 3314 3078 
Q 3713 2572 3713 1747 
Q 3713 922 3314 415 
Q 2916 -91 2278 -91 
Q 1894 -91 1617 61 
Q 1341 213 1159 525 
z
M 3116 1747 
Q 3116 2381 2855 2742 
Q 2594 3103 2138 3103 
Q 1681 3103 1420 2742 
Q 1159 2381 1159 1747 
Q 1159 1113 1420 752 
Q 1681 391 2138 391 
Q 2594 391 2855 752 
Q 3116 1113 3116 1747 
z
" transform="scale(0.015625)"/>
      <path id="DejaVuSans-74" d="M 1172 4494 
L 1172 3500 
L 2356 3500 
L 2356 3053 
L 1172 3053 
L 1172 1153 
Q 1172 725 1289 603 
Q 1406 481 1766 481 
L 2356 481 
L 2356 0 
L 1766 0 
Q 1100 0 847 248 
Q 594 497 594 1153 
L 594 3053 
L 172 3053 
L 172 3500 
L 594 3500 
L 594 4494 
L 1172 4494 
z
" transform="scale(0.015625)"/>
      <path id="DejaVuSans-73" d="M 2834 3397 
L 2834 2853 
Q 2591 2978 2328 3040 
Q 2066 3103 1784 3103 
Q 1356 3103 1142 2972 
Q 928 2841 928 2578 
Q 928 2378 1081 2264 
Q 1234 2150 1697 2047 
L 1894 2003 
Q 2506 1872 2764 1633 
Q 3022 1394 3022 966 
Q 3022 478 2636 193 
Q 2250 -91 1575 -91 
Q 1294 -91 989 -36 
Q 684 19 347 128 
L 347 722 
Q 666 556 975 473 
Q 1284 391 1588 391 
Q 1994 391 2212 530 
Q 2431 669 2431 922 
Q 2431 1156 2273 1281 
Q 2116 1406 1581 1522 
L 1381 1569 
Q 847 1681 609 1914 
Q 372 2147 372 2553 
Q 372 3047 722 3315 
Q 1072 3584 1716 3584 
Q 2034 3584 2315 3537 
Q 2597 3491 2834 3397 
z
" transform="scale(0.015625)"/>
     </defs>
     <use xlink:href="#DejaVuSans-61"/>
     <use xlink:href="#DejaVuSans-6c" x="61.279297"/>
     <use xlink:href="#DejaVuSans-6c" x="89.0625"/>
     <use xlink:href="#DejaVuSans-20" x="116.845703"/>
     <use xlink:href="#DejaVuSans-64" x="148.632812"/>
     <use xlink:href="#DejaVuSans-65" x="212.109375"/>
     <use xlink:href="#DejaVuSans-70" x="273.632812"/>
     <use xlink:href="#DejaVuSans-74" x="337.109375"/>
     <use xlink:href="#DejaVuSans-68" x="376.318359"/>
     <use xlink:href="#DejaVuSans-73" x="439.697266"/>
    </g>
   </g>
   <g id="legend_1">
    <g id="patch_5">
     <path d="M 342.476562 63.27625 
L 482.6 63.27625 
Q 484.6 63.27625 484.6 61.27625 
L 484.6 47.32 
Q 484.6 45.32 482.6 45.32 
L 342.476562 45.32 
Q 340.476562 45.32 340.476562 47.32 
L 340.476562 61.27625 
Q 340.476562 63.27625 342.476562 63.27625 
z
" style="fill: #ffffff; opacity: 0.8; stroke: #cccccc; stroke-linejoin: miter"/>
    </g>
    <g id="line2d_30">
     <path d="M 344.476562 53.418437 
L 354.476562 53.418437 
L 364.476562 53.418437 
" style="fill: none; stroke: #4c4c4c; stroke-width: 1.5; stroke-linecap: square"/>
    </g>
    <g id="text_12">
     <!-- iso-sur_gPPI_deep_V1 -->
     <g transform="translate(372.476562 56.918437) scale(0.1 -0.1)">
      <defs>
       <path id="DejaVuSans-69" d="M 603 3500 
L 1178 3500 
L 1178 0 
L 603 0 
L 603 3500 
z
M 603 4863 
L 1178 4863 
L 1178 4134 
L 603 4134 
L 603 4863 
z
" transform="scale(0.015625)"/>
       <path id="DejaVuSans-6f" d="M 1959 3097 
Q 1497 3097 1228 2736 
Q 959 2375 959 1747 
Q 959 1119 1226 758 
Q 1494 397 1959 397 
Q 2419 397 2687 759 
Q 2956 1122 2956 1747 
Q 2956 2369 2687 2733 
Q 2419 3097 1959 3097 
z
M 1959 3584 
Q 2709 3584 3137 3096 
Q 3566 2609 3566 1747 
Q 3566 888 3137 398 
Q 2709 -91 1959 -91 
Q 1206 -91 779 398 
Q 353 888 353 1747 
Q 353 2609 779 3096 
Q 1206 3584 1959 3584 
z
" transform="scale(0.015625)"/>
       <path id="DejaVuSans-2d" d="M 313 2009 
L 1997 2009 
L 1997 1497 
L 313 1497 
L 313 2009 
z
" transform="scale(0.015625)"/>
       <path id="DejaVuSans-75" d="M 544 1381 
L 544 3500 
L 1119 3500 
L 1119 1403 
Q 1119 906 1312 657 
Q 1506 409 1894 409 
Q 2359 409 2629 706 
Q 2900 1003 2900 1516 
L 2900 3500 
L 3475 3500 
L 3475 0 
L 2900 0 
L 2900 538 
Q 2691 219 2414 64 
Q 2138 -91 1772 -91 
Q 1169 -91 856 284 
Q 544 659 544 1381 
z
M 1991 3584 
L 1991 3584 
z
" transform="scale(0.015625)"/>
       <path id="DejaVuSans-72" d="M 2631 2963 
Q 2534 3019 2420 3045 
Q 2306 3072 2169 3072 
Q 1681 3072 1420 2755 
Q 1159 2438 1159 1844 
L 1159 0 
L 581 0 
L 581 3500 
L 1159 3500 
L 1159 2956 
Q 1341 3275 1631 3429 
Q 1922 3584 2338 3584 
Q 2397 3584 2469 3576 
Q 2541 3569 2628 3553 
L 2631 2963 
z
" transform="scale(0.015625)"/>
       <path id="DejaVuSans-5f" d="M 3263 -1063 
L 3263 -1509 
L -63 -1509 
L -63 -1063 
L 3263 -1063 
z
" transform="scale(0.015625)"/>
       <path id="DejaVuSans-50" d="M 1259 4147 
L 1259 2394 
L 2053 2394 
Q 2494 2394 2734 2622 
Q 2975 2850 2975 3272 
Q 2975 3691 2734 3919 
Q 2494 4147 2053 4147 
L 1259 4147 
z
M 628 4666 
L 2053 4666 
Q 2838 4666 3239 4311 
Q 3641 3956 3641 3272 
Q 3641 2581 3239 2228 
Q 2838 1875 2053 1875 
L 1259 1875 
L 1259 0 
L 628 0 
L 628 4666 
z
" transform="scale(0.015625)"/>
       <path id="DejaVuSans-49" d="M 628 4666 
L 1259 4666 
L 1259 0 
L 628 0 
L 628 4666 
z
" transform="scale(0.015625)"/>
       <path id="DejaVuSans-56" d="M 1831 0 
L 50 4666 
L 709 4666 
L 2188 738 
L 3669 4666 
L 4325 4666 
L 2547 0 
L 1831 0 
z
" transform="scale(0.015625)"/>
      </defs>
      <use xlink:href="#DejaVuSans-69"/>
      <use xlink:href="#DejaVuSans-73" x="27.783203"/>
      <use xlink:href="#DejaVuSans-6f" x="79.882812"/>
      <use xlink:href="#DejaVuSans-2d" x="142.939453"/>
      <use xlink:href="#DejaVuSans-73" x="179.023438"/>
      <use xlink:href="#DejaVuSans-75" x="231.123047"/>
      <use xlink:href="#DejaVuSans-72" x="294.501953"/>
      <use xlink:href="#DejaVuSans-5f" x="335.615234"/>
      <use xlink:href="#DejaVuSans-67" x="385.615234"/>
      <use xlink:href="#DejaVuSans-50" x="449.091797"/>
      <use xlink:href="#DejaVuSans-50" x="509.394531"/>
      <use xlink:href="#DejaVuSans-49" x="569.697266"/>
      <use xlink:href="#DejaVuSans-5f" x="599.189453"/>
      <use xlink:href="#DejaVuSans-64" x="649.189453"/>
      <use xlink:href="#DejaVuSans-65" x="712.666016"/>
      <use xlink:href="#DejaVuSans-65" x="774.189453"/>
      <use xlink:href="#DejaVuSans-70" x="835.712891"/>
      <use xlink:href="#DejaVuSans-5f" x="899.189453"/>
      <use xlink:href="#DejaVuSans-56" x="949.189453"/>
      <use xlink:href="#DejaVuSans-31" x="1017.597656"/>
     </g>
    </g>
   </g>
  </g>
  <g id="axes_2">
   <g id="patch_6">
    <path d="M 86.4 443.52 
L 489.6 443.52 
L 489.6 292.32 
L 86.4 292.32 
z
" style="fill: #ffffff"/>
   </g>
   <g id="patch_7">
    <path d="M 90.432 367.92 
L 163.008 367.92 
L 163.008 264.085303 
L 90.432 264.085303 
z
" clip-path="url(#p55bf4cb24c)" style="fill: #4c4c4c; opacity: 0.6"/>
   </g>
   <g id="patch_8">
    <path d="M 171.072 367.92 
L 243.648 367.92 
L 243.648 341.807931 
L 171.072 341.807931 
z
" clip-path="url(#p55bf4cb24c)" style="fill: #4c4c4c; opacity: 0.6"/>
   </g>
   <g id="patch_9">
    <path d="M 251.712 367.92 
L 324.288 367.92 
L 324.288 339.895639 
L 251.712 339.895639 
z
" clip-path="url(#p55bf4cb24c)" style="fill: #4c4c4c; opacity: 0.6"/>
   </g>
   <g id="patch_10">
    <path d="M 332.352 367.92 
L 404.928 367.92 
L 404.928 358.777812 
L 332.352 358.777812 
z
" clip-path="url(#p55bf4cb24c)" style="fill: #4c4c4c; opacity: 0.6"/>
   </g>
   <g id="patch_11">
    <path d="M 412.992 367.92 
L 485.568 367.92 
L 485.568 388.534814 
L 412.992 388.534814 
z
" clip-path="url(#p55bf4cb24c)" style="fill: #4c4c4c; opacity: 0.6"/>
   </g>
   <g id="matplotlib.axis_3">
    <g id="xtick_7">
     <g id="line2d_31">
      <g>
       <use xlink:href="#m8c7cdeb347" x="86.4" y="447.52" style="stroke: #000000; stroke-width: 0.8"/>
      </g>
     </g>
     <g id="text_13">
      <!-- 0 -->
      <g transform="translate(83.21875 462.118438) scale(0.1 -0.1)">
       <use xlink:href="#DejaVuSans-30"/>
      </g>
     </g>
    </g>
    <g id="xtick_8">
     <g id="line2d_32">
      <g>
       <use xlink:href="#m8c7cdeb347" x="167.04" y="447.52" style="stroke: #000000; stroke-width: 0.8"/>
      </g>
     </g>
     <g id="text_14">
      <!-- 1 -->
      <g transform="translate(163.85875 462.118438) scale(0.1 -0.1)">
       <use xlink:href="#DejaVuSans-31"/>
      </g>
     </g>
    </g>
    <g id="xtick_9">
     <g id="line2d_33">
      <g>
       <use xlink:href="#m8c7cdeb347" x="247.68" y="447.52" style="stroke: #000000; stroke-width: 0.8"/>
      </g>
     </g>
     <g id="text_15">
      <!-- 2 -->
      <g transform="translate(244.49875 462.118438) scale(0.1 -0.1)">
       <use xlink:href="#DejaVuSans-32"/>
      </g>
     </g>
    </g>
    <g id="xtick_10">
     <g id="line2d_34">
      <g>
       <use xlink:href="#m8c7cdeb347" x="328.32" y="447.52" style="stroke: #000000; stroke-width: 0.8"/>
      </g>
     </g>
     <g id="text_16">
      <!-- 3 -->
      <g transform="translate(325.13875 462.118438) scale(0.1 -0.1)">
       <defs>
        <path id="DejaVuSans-33" d="M 2597 2516 
Q 3050 2419 3304 2112 
Q 3559 1806 3559 1356 
Q 3559 666 3084 287 
Q 2609 -91 1734 -91 
Q 1441 -91 1130 -33 
Q 819 25 488 141 
L 488 750 
Q 750 597 1062 519 
Q 1375 441 1716 441 
Q 2309 441 2620 675 
Q 2931 909 2931 1356 
Q 2931 1769 2642 2001 
Q 2353 2234 1838 2234 
L 1294 2234 
L 1294 2753 
L 1863 2753 
Q 2328 2753 2575 2939 
Q 2822 3125 2822 3475 
Q 2822 3834 2567 4026 
Q 2313 4219 1838 4219 
Q 1578 4219 1281 4162 
Q 984 4106 628 3988 
L 628 4550 
Q 988 4650 1302 4700 
Q 1616 4750 1894 4750 
Q 2613 4750 3031 4423 
Q 3450 4097 3450 3541 
Q 3450 3153 3228 2886 
Q 3006 2619 2597 2516 
z
" transform="scale(0.015625)"/>
       </defs>
       <use xlink:href="#DejaVuSans-33"/>
      </g>
     </g>
    </g>
    <g id="xtick_11">
     <g id="line2d_35">
      <g>
       <use xlink:href="#m8c7cdeb347" x="408.96" y="447.52" style="stroke: #000000; stroke-width: 0.8"/>
      </g>
     </g>
     <g id="text_17">
      <!-- 4 -->
      <g transform="translate(405.77875 462.118438) scale(0.1 -0.1)">
       <defs>
        <path id="DejaVuSans-34" d="M 2419 4116 
L 825 1625 
L 2419 1625 
L 2419 4116 
z
M 2253 4666 
L 3047 4666 
L 3047 1625 
L 3713 1625 
L 3713 1100 
L 3047 1100 
L 3047 0 
L 2419 0 
L 2419 1100 
L 313 1100 
L 313 1709 
L 2253 4666 
z
" transform="scale(0.015625)"/>
       </defs>
       <use xlink:href="#DejaVuSans-34"/>
      </g>
     </g>
    </g>
    <g id="xtick_12">
     <g id="line2d_36">
      <g>
       <use xlink:href="#m8c7cdeb347" x="489.6" y="447.52" style="stroke: #000000; stroke-width: 0.8"/>
      </g>
     </g>
     <g id="text_18">
      <!-- 5 -->
      <g transform="translate(486.41875 462.118438) scale(0.1 -0.1)">
       <use xlink:href="#DejaVuSans-35"/>
      </g>
     </g>
    </g>
    <g id="text_19">
     <!-- relative distance from ROI center ($\sigma$) -->
     <g transform="translate(214.48 474.276875) scale(0.08 -0.08)">
      <defs>
       <path id="DejaVuSans-76" d="M 191 3500 
L 800 3500 
L 1894 563 
L 2988 3500 
L 3597 3500 
L 2284 0 
L 1503 0 
L 191 3500 
z
" transform="scale(0.015625)"/>
       <path id="DejaVuSans-66" d="M 2375 4863 
L 2375 4384 
L 1825 4384 
Q 1516 4384 1395 4259 
Q 1275 4134 1275 3809 
L 1275 3500 
L 2222 3500 
L 2222 3053 
L 1275 3053 
L 1275 0 
L 697 0 
L 697 3053 
L 147 3053 
L 147 3500 
L 697 3500 
L 697 3744 
Q 697 4328 969 4595 
Q 1241 4863 1831 4863 
L 2375 4863 
z
" transform="scale(0.015625)"/>
       <path id="DejaVuSans-6d" d="M 3328 2828 
Q 3544 3216 3844 3400 
Q 4144 3584 4550 3584 
Q 5097 3584 5394 3201 
Q 5691 2819 5691 2113 
L 5691 0 
L 5113 0 
L 5113 2094 
Q 5113 2597 4934 2840 
Q 4756 3084 4391 3084 
Q 3944 3084 3684 2787 
Q 3425 2491 3425 1978 
L 3425 0 
L 2847 0 
L 2847 2094 
Q 2847 2600 2669 2842 
Q 2491 3084 2119 3084 
Q 1678 3084 1418 2786 
Q 1159 2488 1159 1978 
L 1159 0 
L 581 0 
L 581 3500 
L 1159 3500 
L 1159 2956 
Q 1356 3278 1631 3431 
Q 1906 3584 2284 3584 
Q 2666 3584 2933 3390 
Q 3200 3197 3328 2828 
z
" transform="scale(0.015625)"/>
       <path id="DejaVuSans-52" d="M 2841 2188 
Q 3044 2119 3236 1894 
Q 3428 1669 3622 1275 
L 4263 0 
L 3584 0 
L 2988 1197 
Q 2756 1666 2539 1819 
Q 2322 1972 1947 1972 
L 1259 1972 
L 1259 0 
L 628 0 
L 628 4666 
L 2053 4666 
Q 2853 4666 3247 4331 
Q 3641 3997 3641 3322 
Q 3641 2881 3436 2590 
Q 3231 2300 2841 2188 
z
M 1259 4147 
L 1259 2491 
L 2053 2491 
Q 2509 2491 2742 2702 
Q 2975 2913 2975 3322 
Q 2975 3731 2742 3939 
Q 2509 4147 2053 4147 
L 1259 4147 
z
" transform="scale(0.015625)"/>
       <path id="DejaVuSans-28" d="M 1984 4856 
Q 1566 4138 1362 3434 
Q 1159 2731 1159 2009 
Q 1159 1288 1364 580 
Q 1569 -128 1984 -844 
L 1484 -844 
Q 1016 -109 783 600 
Q 550 1309 550 2009 
Q 550 2706 781 3412 
Q 1013 4119 1484 4856 
L 1984 4856 
z
" transform="scale(0.015625)"/>
       <path id="DejaVuSans-Oblique-3c3" d="M 2219 3044 
Q 1744 3044 1422 2700 
Q 1081 2341 969 1747 
Q 844 1119 1044 756 
Q 1241 397 1706 397 
Q 2166 397 2503 759 
Q 2844 1122 2966 1747 
Q 3075 2319 2881 2700 
Q 2700 3044 2219 3044 
z
M 2309 3503 
L 4219 3500 
L 4106 2925 
L 3463 2925 
Q 3706 2438 3575 1747 
Q 3406 888 2884 400 
Q 2359 -91 1609 -91 
Q 856 -91 525 400 
Q 194 888 363 1747 
Q 528 2609 1050 3097 
Q 1484 3503 2309 3503 
z
" transform="scale(0.015625)"/>
       <path id="DejaVuSans-29" d="M 513 4856 
L 1013 4856 
Q 1481 4119 1714 3412 
Q 1947 2706 1947 2009 
Q 1947 1309 1714 600 
Q 1481 -109 1013 -844 
L 513 -844 
Q 928 -128 1133 580 
Q 1338 1288 1338 2009 
Q 1338 2731 1133 3434 
Q 928 4138 513 4856 
z
" transform="scale(0.015625)"/>
      </defs>
      <use xlink:href="#DejaVuSans-72" transform="translate(0 0.015625)"/>
      <use xlink:href="#DejaVuSans-65" transform="translate(41.113281 0.015625)"/>
      <use xlink:href="#DejaVuSans-6c" transform="translate(102.636719 0.015625)"/>
      <use xlink:href="#DejaVuSans-61" transform="translate(130.419922 0.015625)"/>
      <use xlink:href="#DejaVuSans-74" transform="translate(191.699219 0.015625)"/>
      <use xlink:href="#DejaVuSans-69" transform="translate(230.908203 0.015625)"/>
      <use xlink:href="#DejaVuSans-76" transform="translate(258.691406 0.015625)"/>
      <use xlink:href="#DejaVuSans-65" transform="translate(317.871094 0.015625)"/>
      <use xlink:href="#DejaVuSans-20" transform="translate(379.394531 0.015625)"/>
      <use xlink:href="#DejaVuSans-64" transform="translate(411.181641 0.015625)"/>
      <use xlink:href="#DejaVuSans-69" transform="translate(474.658203 0.015625)"/>
      <use xlink:href="#DejaVuSans-73" transform="translate(502.441406 0.015625)"/>
      <use xlink:href="#DejaVuSans-74" transform="translate(554.541016 0.015625)"/>
      <use xlink:href="#DejaVuSans-61" transform="translate(593.75 0.015625)"/>
      <use xlink:href="#DejaVuSans-6e" transform="translate(655.029297 0.015625)"/>
      <use xlink:href="#DejaVuSans-63" transform="translate(718.408203 0.015625)"/>
      <use xlink:href="#DejaVuSans-65" transform="translate(773.388672 0.015625)"/>
      <use xlink:href="#DejaVuSans-20" transform="translate(834.912109 0.015625)"/>
      <use xlink:href="#DejaVuSans-66" transform="translate(866.699219 0.015625)"/>
      <use xlink:href="#DejaVuSans-72" transform="translate(901.904297 0.015625)"/>
      <use xlink:href="#DejaVuSans-6f" transform="translate(943.017578 0.015625)"/>
      <use xlink:href="#DejaVuSans-6d" transform="translate(1004.199219 0.015625)"/>
      <use xlink:href="#DejaVuSans-20" transform="translate(1101.611328 0.015625)"/>
      <use xlink:href="#DejaVuSans-52" transform="translate(1133.398438 0.015625)"/>
      <use xlink:href="#DejaVuSans-4f" transform="translate(1202.880859 0.015625)"/>
      <use xlink:href="#DejaVuSans-49" transform="translate(1281.591797 0.015625)"/>
      <use xlink:href="#DejaVuSans-20" transform="translate(1311.083984 0.015625)"/>
      <use xlink:href="#DejaVuSans-63" transform="translate(1342.871094 0.015625)"/>
      <use xlink:href="#DejaVuSans-65" transform="translate(1397.851562 0.015625)"/>
      <use xlink:href="#DejaVuSans-6e" transform="translate(1459.375 0.015625)"/>
      <use xlink:href="#DejaVuSans-74" transform="translate(1522.753906 0.015625)"/>
      <use xlink:href="#DejaVuSans-65" transform="translate(1561.962891 0.015625)"/>
      <use xlink:href="#DejaVuSans-72" transform="translate(1623.486328 0.015625)"/>
      <use xlink:href="#DejaVuSans-20" transform="translate(1664.599609 0.015625)"/>
      <use xlink:href="#DejaVuSans-28" transform="translate(1696.386719 0.015625)"/>
      <use xlink:href="#DejaVuSans-Oblique-3c3" transform="translate(1735.400391 0.015625)"/>
      <use xlink:href="#DejaVuSans-29" transform="translate(1798.779297 0.015625)"/>
     </g>
    </g>
   </g>
   <g id="matplotlib.axis_4">
    <g id="ytick_10">
     <g id="line2d_37">
      <g>
       <use xlink:href="#mcc7c8ba522" x="82.4" y="443.52" style="stroke: #000000; stroke-width: 0.8"/>
      </g>
     </g>
     <g id="text_20">
      <!-- −1.0 -->
      <g transform="translate(51.117187 447.319219) scale(0.1 -0.1)">
       <use xlink:href="#DejaVuSans-2212"/>
       <use xlink:href="#DejaVuSans-31" x="83.789062"/>
       <use xlink:href="#DejaVuSans-2e" x="147.412109"/>
       <use xlink:href="#DejaVuSans-30" x="179.199219"/>
      </g>
     </g>
    </g>
    <g id="ytick_11">
     <g id="line2d_38">
      <g>
       <use xlink:href="#mcc7c8ba522" x="82.4" y="405.72" style="stroke: #000000; stroke-width: 0.8"/>
      </g>
     </g>
     <g id="text_21">
      <!-- −0.5 -->
      <g transform="translate(51.117187 409.519219) scale(0.1 -0.1)">
       <use xlink:href="#DejaVuSans-2212"/>
       <use xlink:href="#DejaVuSans-30" x="83.789062"/>
       <use xlink:href="#DejaVuSans-2e" x="147.412109"/>
       <use xlink:href="#DejaVuSans-35" x="179.199219"/>
      </g>
     </g>
    </g>
    <g id="ytick_12">
     <g id="line2d_39">
      <g>
       <use xlink:href="#mcc7c8ba522" x="82.4" y="367.92" style="stroke: #000000; stroke-width: 0.8"/>
      </g>
     </g>
     <g id="text_22">
      <!-- 0.0 -->
      <g transform="translate(59.496875 371.719219) scale(0.1 -0.1)">
       <use xlink:href="#DejaVuSans-30"/>
       <use xlink:href="#DejaVuSans-2e" x="63.623047"/>
       <use xlink:href="#DejaVuSans-30" x="95.410156"/>
      </g>
     </g>
    </g>
    <g id="ytick_13">
     <g id="line2d_40">
      <g>
       <use xlink:href="#mcc7c8ba522" x="82.4" y="330.12" style="stroke: #000000; stroke-width: 0.8"/>
      </g>
     </g>
     <g id="text_23">
      <!-- 0.5 -->
      <g transform="translate(59.496875 333.919219) scale(0.1 -0.1)">
       <use xlink:href="#DejaVuSans-30"/>
       <use xlink:href="#DejaVuSans-2e" x="63.623047"/>
       <use xlink:href="#DejaVuSans-35" x="95.410156"/>
      </g>
     </g>
    </g>
    <g id="ytick_14">
     <g id="line2d_41">
      <g>
       <use xlink:href="#mcc7c8ba522" x="82.4" y="292.32" style="stroke: #000000; stroke-width: 0.8"/>
      </g>
     </g>
     <g id="text_24">
      <!-- 1.0 -->
      <g transform="translate(59.496875 296.119219) scale(0.1 -0.1)">
       <use xlink:href="#DejaVuSans-31"/>
       <use xlink:href="#DejaVuSans-2e" x="63.623047"/>
       <use xlink:href="#DejaVuSans-30" x="95.410156"/>
      </g>
     </g>
    </g>
    <g id="text_25">
     <!-- Binned Avg -->
     <g transform="translate(45.453437 390.525625) rotate(-90) scale(0.08 -0.08)">
      <defs>
       <path id="DejaVuSans-41" d="M 2188 4044 
L 1331 1722 
L 3047 1722 
L 2188 4044 
z
M 1831 4666 
L 2547 4666 
L 4325 0 
L 3669 0 
L 3244 1197 
L 1141 1197 
L 716 0 
L 50 0 
L 1831 4666 
z
" transform="scale(0.015625)"/>
      </defs>
      <use xlink:href="#DejaVuSans-42"/>
      <use xlink:href="#DejaVuSans-69" x="68.603516"/>
      <use xlink:href="#DejaVuSans-6e" x="96.386719"/>
      <use xlink:href="#DejaVuSans-6e" x="159.765625"/>
      <use xlink:href="#DejaVuSans-65" x="223.144531"/>
      <use xlink:href="#DejaVuSans-64" x="284.667969"/>
      <use xlink:href="#DejaVuSans-20" x="348.144531"/>
      <use xlink:href="#DejaVuSans-41" x="379.931641"/>
      <use xlink:href="#DejaVuSans-76" x="442.464844"/>
      <use xlink:href="#DejaVuSans-67" x="501.644531"/>
     </g>
    </g>
   </g>
   <g id="LineCollection_1">
    <path d="M 126.72 345.020534 
L 126.72 183.150071 
" clip-path="url(#p55bf4cb24c)" style="fill: none; stroke: #000000; stroke-width: 1.5"/>
    <path d="M 207.36 397.864472 
L 207.36 285.751391 
" clip-path="url(#p55bf4cb24c)" style="fill: none; stroke: #000000; stroke-width: 1.5"/>
    <path d="M 288 384.942748 
L 288 294.84853 
" clip-path="url(#p55bf4cb24c)" style="fill: none; stroke: #000000; stroke-width: 1.5"/>
    <path d="M 368.64 408.218511 
L 368.64 309.337113 
" clip-path="url(#p55bf4cb24c)" style="fill: none; stroke: #000000; stroke-width: 1.5"/>
    <path d="M 449.28 430.330046 
L 449.28 346.739581 
" clip-path="url(#p55bf4cb24c)" style="fill: none; stroke: #000000; stroke-width: 1.5"/>
   </g>
   <g id="line2d_42">
    <defs>
     <path id="mc937879c47" d="M 5 0 
L -5 -0 
" style="stroke: #000000"/>
    </defs>
    <g clip-path="url(#p55bf4cb24c)">
     <use xlink:href="#mc937879c47" x="126.72" y="345.020534" style="stroke: #000000"/>
     <use xlink:href="#mc937879c47" x="207.36" y="397.864472" style="stroke: #000000"/>
     <use xlink:href="#mc937879c47" x="288" y="384.942748" style="stroke: #000000"/>
     <use xlink:href="#mc937879c47" x="368.64" y="408.218511" style="stroke: #000000"/>
     <use xlink:href="#mc937879c47" x="449.28" y="430.330046" style="stroke: #000000"/>
    </g>
   </g>
   <g id="line2d_43">
    <g clip-path="url(#p55bf4cb24c)">
     <use xlink:href="#mc937879c47" x="126.72" y="183.150071" style="stroke: #000000"/>
     <use xlink:href="#mc937879c47" x="207.36" y="285.751391" style="stroke: #000000"/>
     <use xlink:href="#mc937879c47" x="288" y="294.84853" style="stroke: #000000"/>
     <use xlink:href="#mc937879c47" x="368.64" y="309.337113" style="stroke: #000000"/>
     <use xlink:href="#mc937879c47" x="449.28" y="346.739581" style="stroke: #000000"/>
    </g>
   </g>
   <g id="line2d_44">
    <path d="M 86.4 367.92 
L 489.6 367.92 
" clip-path="url(#p55bf4cb24c)" style="fill: none; stroke-dasharray: 5.55,2.4; stroke-dashoffset: 0; stroke: #000000; stroke-width: 1.5"/>
   </g>
   <g id="patch_12">
    <path d="M 82.4 443.52 
L 82.4 292.32 
" style="fill: none; stroke: #000000; stroke-width: 0.8; stroke-linejoin: miter; stroke-linecap: square"/>
   </g>
   <g id="patch_13">
    <path d="M 86.4 447.52 
L 489.6 447.52 
" style="fill: none; stroke: #000000; stroke-width: 0.8; stroke-linejoin: miter; stroke-linecap: square"/>
   </g>
  </g>
 </g>
 <defs>
  <clipPath id="p59c1fd9513">
   <rect x="86.4" y="40.32" width="403.2" height="201.6"/>
  </clipPath>
  <clipPath id="p55bf4cb24c">
   <rect x="86.4" y="292.32" width="403.2" height="151.2"/>
  </clipPath>
 </defs>
</svg>
