<?xml version="1.0" encoding="utf-8" standalone="no"?>
<!DOCTYPE svg PUBLIC "-//W3C//DTD SVG 1.1//EN"
  "http://www.w3.org/Graphics/SVG/1.1/DTD/svg11.dtd">
<svg xmlns:xlink="http://www.w3.org/1999/xlink" width="360pt" height="432pt" viewBox="0 0 360 432" xmlns="http://www.w3.org/2000/svg" version="1.1">
 <metadata>
  <rdf:RDF xmlns:dc="http://purl.org/dc/elements/1.1/" xmlns:cc="http://creativecommons.org/ns#" xmlns:rdf="http://www.w3.org/1999/02/22-rdf-syntax-ns#">
   <cc:Work>
    <dc:type rdf:resource="http://purl.org/dc/dcmitype/StillImage"/>
    <dc:date>2025-10-31T15:45:50.046149</dc:date>
    <dc:format>image/svg+xml</dc:format>
    <dc:creator>
     <cc:Agent>
      <dc:title>Matplotlib v3.8.0, https://matplotlib.org/</dc:title>
     </cc:Agent>
    </dc:creator>
   </cc:Work>
  </rdf:RDF>
 </metadata>
 <defs>
  <style type="text/css">*{stroke-linejoin: round; stroke-linecap: butt}</style>
 </defs>
 <g id="figure_1">
  <g id="patch_1">
   <path d="M 0 432 
L 360 432 
L 360 0 
L 0 0 
z
" style="fill: #ffffff"/>
  </g>
  <g id="axes_1">
   <g id="patch_2">
    <path d="M 54 388.8 
L 306 388.8 
L 306 302.4 
L 54 302.4 
z
" style="fill: #ffffff"/>
   </g>
   <g id="PolyCollection_1">
    <defs>
     <path id="m9211a56618" d="M 65.454545 -97.116505 
L 65.454545 -87.072938 
L 70.12987 -87.271456 
L 74.805195 -87.436806 
L 79.480519 -87.525891 
L 84.155844 -87.635787 
L 88.831169 -87.760377 
L 93.506494 -88.260004 
L 98.181818 -88.624615 
L 102.857143 -88.936108 
L 107.532468 -88.791189 
L 112.207792 -88.524628 
L 116.883117 -88.546339 
L 121.558442 -88.484517 
L 126.233766 -88.160628 
L 130.909091 -88.207881 
L 135.584416 -88.020531 
L 140.25974 -87.767327 
L 144.935065 -87.607338 
L 149.61039 -87.631483 
L 154.285714 -87.572302 
L 158.961039 -87.650327 
L 163.636364 -87.606072 
L 168.311688 -87.556703 
L 172.987013 -87.220535 
L 177.662338 -86.873268 
L 182.337662 -86.552202 
L 187.012987 -85.977373 
L 191.688312 -85.299189 
L 196.363636 -84.768687 
L 201.038961 -84.402602 
L 205.714286 -84.069558 
L 210.38961 -83.775057 
L 215.064935 -83.075793 
L 219.74026 -82.432498 
L 224.415584 -82.182247 
L 229.090909 -82.147163 
L 233.766234 -82.387337 
L 238.441558 -82.607155 
L 243.116883 -82.666115 
L 247.792208 -82.724665 
L 252.467532 -82.507127 
L 257.142857 -82.451538 
L 261.818182 -82.158824 
L 266.493506 -81.683027 
L 271.168831 -81.352153 
L 275.844156 -81.336652 
L 280.519481 -81.218089 
L 285.194805 -80.953918 
L 289.87013 -80.803974 
L 294.545455 -80.357685 
L 294.545455 -85.294695 
L 294.545455 -85.294695 
L 289.87013 -85.828636 
L 285.194805 -85.96106 
L 280.519481 -86.23386 
L 275.844156 -86.353711 
L 271.168831 -86.426536 
L 266.493506 -86.71504 
L 261.818182 -87.175608 
L 257.142857 -87.457516 
L 252.467532 -87.471662 
L 247.792208 -87.555852 
L 243.116883 -87.687897 
L 238.441558 -88.073595 
L 233.766234 -88.152804 
L 229.090909 -88.193591 
L 224.415584 -88.480624 
L 219.74026 -88.897084 
L 215.064935 -89.629592 
L 210.38961 -90.41687 
L 205.714286 -90.859175 
L 201.038961 -91.392638 
L 196.363636 -91.948076 
L 191.688312 -92.438404 
L 187.012987 -93.14252 
L 182.337662 -93.916143 
L 177.662338 -94.523457 
L 172.987013 -95.224029 
L 168.311688 -95.911682 
L 163.636364 -96.155181 
L 158.961039 -96.336127 
L 154.285714 -96.121986 
L 149.61039 -96.124444 
L 144.935065 -96.030791 
L 140.25974 -96.09333 
L 135.584416 -96.169848 
L 130.909091 -96.294467 
L 126.233766 -96.070621 
L 121.558442 -96.259947 
L 116.883117 -96.119759 
L 112.207792 -95.91272 
L 107.532468 -96.119457 
L 102.857143 -96.187765 
L 98.181818 -96.009689 
L 93.506494 -96.016451 
L 88.831169 -95.997473 
L 84.155844 -96.22504 
L 79.480519 -96.699316 
L 74.805195 -97.292374 
L 70.12987 -97.320496 
L 65.454545 -97.116505 
z
" style="stroke: #ffa500; stroke-opacity: 0.4"/>
    </defs>
    <g clip-path="url(#p6482ae8211)">
     <use xlink:href="#m9211a56618" x="0" y="432" style="fill: #ffa500; fill-opacity: 0.4; stroke: #ffa500; stroke-opacity: 0.4"/>
    </g>
   </g>
   <g id="matplotlib.axis_1">
    <g id="xtick_1">
     <g id="line2d_1">
      <defs>
       <path id="m70fb4c9766" d="M 0 0 
L 0 3.5 
" style="stroke: #000000; stroke-width: 0.8"/>
      </defs>
      <g>
       <use xlink:href="#m70fb4c9766" x="65.454545" y="392.8" style="stroke: #000000; stroke-width: 0.8"/>
      </g>
     </g>
     <g id="text_1">
      <!-- 0 -->
      <g transform="translate(62.273295 407.398438) scale(0.1 -0.1)">
       <defs>
        <path id="DejaVuSans-30" d="M 2034 4250 
Q 1547 4250 1301 3770 
Q 1056 3291 1056 2328 
Q 1056 1369 1301 889 
Q 1547 409 2034 409 
Q 2525 409 2770 889 
Q 3016 1369 3016 2328 
Q 3016 3291 2770 3770 
Q 2525 4250 2034 4250 
z
M 2034 4750 
Q 2819 4750 3233 4129 
Q 3647 3509 3647 2328 
Q 3647 1150 3233 529 
Q 2819 -91 2034 -91 
Q 1250 -91 836 529 
Q 422 1150 422 2328 
Q 422 3509 836 4129 
Q 1250 4750 2034 4750 
z
" transform="scale(0.015625)"/>
       </defs>
       <use xlink:href="#DejaVuSans-30"/>
      </g>
     </g>
    </g>
    <g id="xtick_2">
     <g id="line2d_2">
      <g>
       <use xlink:href="#m70fb4c9766" x="111.272727" y="392.8" style="stroke: #000000; stroke-width: 0.8"/>
      </g>
     </g>
     <g id="text_2">
      <!-- 1 -->
      <g transform="translate(108.091477 407.398438) scale(0.1 -0.1)">
       <defs>
        <path id="DejaVuSans-31" d="M 794 531 
L 1825 531 
L 1825 4091 
L 703 3866 
L 703 4441 
L 1819 4666 
L 2450 4666 
L 2450 531 
L 3481 531 
L 3481 0 
L 794 0 
L 794 531 
z
" transform="scale(0.015625)"/>
       </defs>
       <use xlink:href="#DejaVuSans-31"/>
      </g>
     </g>
    </g>
    <g id="xtick_3">
     <g id="line2d_3">
      <g>
       <use xlink:href="#m70fb4c9766" x="157.090909" y="392.8" style="stroke: #000000; stroke-width: 0.8"/>
      </g>
     </g>
     <g id="text_3">
      <!-- 2 -->
      <g transform="translate(153.909659 407.398438) scale(0.1 -0.1)">
       <defs>
        <path id="DejaVuSans-32" d="M 1228 531 
L 3431 531 
L 3431 0 
L 469 0 
L 469 531 
Q 828 903 1448 1529 
Q 2069 2156 2228 2338 
Q 2531 2678 2651 2914 
Q 2772 3150 2772 3378 
Q 2772 3750 2511 3984 
Q 2250 4219 1831 4219 
Q 1534 4219 1204 4116 
Q 875 4013 500 3803 
L 500 4441 
Q 881 4594 1212 4672 
Q 1544 4750 1819 4750 
Q 2544 4750 2975 4387 
Q 3406 4025 3406 3419 
Q 3406 3131 3298 2873 
Q 3191 2616 2906 2266 
Q 2828 2175 2409 1742 
Q 1991 1309 1228 531 
z
" transform="scale(0.015625)"/>
       </defs>
       <use xlink:href="#DejaVuSans-32"/>
      </g>
     </g>
    </g>
    <g id="xtick_4">
     <g id="line2d_4">
      <g>
       <use xlink:href="#m70fb4c9766" x="202.909091" y="392.8" style="stroke: #000000; stroke-width: 0.8"/>
      </g>
     </g>
     <g id="text_4">
      <!-- 3 -->
      <g transform="translate(199.727841 407.398438) scale(0.1 -0.1)">
       <defs>
        <path id="DejaVuSans-33" d="M 2597 2516 
Q 3050 2419 3304 2112 
Q 3559 1806 3559 1356 
Q 3559 666 3084 287 
Q 2609 -91 1734 -91 
Q 1441 -91 1130 -33 
Q 819 25 488 141 
L 488 750 
Q 750 597 1062 519 
Q 1375 441 1716 441 
Q 2309 441 2620 675 
Q 2931 909 2931 1356 
Q 2931 1769 2642 2001 
Q 2353 2234 1838 2234 
L 1294 2234 
L 1294 2753 
L 1863 2753 
Q 2328 2753 2575 2939 
Q 2822 3125 2822 3475 
Q 2822 3834 2567 4026 
Q 2313 4219 1838 4219 
Q 1578 4219 1281 4162 
Q 984 4106 628 3988 
L 628 4550 
Q 988 4650 1302 4700 
Q 1616 4750 1894 4750 
Q 2613 4750 3031 4423 
Q 3450 4097 3450 3541 
Q 3450 3153 3228 2886 
Q 3006 2619 2597 2516 
z
" transform="scale(0.015625)"/>
       </defs>
       <use xlink:href="#DejaVuSans-33"/>
      </g>
     </g>
    </g>
    <g id="xtick_5">
     <g id="line2d_5">
      <g>
       <use xlink:href="#m70fb4c9766" x="248.727273" y="392.8" style="stroke: #000000; stroke-width: 0.8"/>
      </g>
     </g>
     <g id="text_5">
      <!-- 4 -->
      <g transform="translate(245.546023 407.398438) scale(0.1 -0.1)">
       <defs>
        <path id="DejaVuSans-34" d="M 2419 4116 
L 825 1625 
L 2419 1625 
L 2419 4116 
z
M 2253 4666 
L 3047 4666 
L 3047 1625 
L 3713 1625 
L 3713 1100 
L 3047 1100 
L 3047 0 
L 2419 0 
L 2419 1100 
L 313 1100 
L 313 1709 
L 2253 4666 
z
" transform="scale(0.015625)"/>
       </defs>
       <use xlink:href="#DejaVuSans-34"/>
      </g>
     </g>
    </g>
    <g id="xtick_6">
     <g id="line2d_6">
      <g>
       <use xlink:href="#m70fb4c9766" x="294.545455" y="392.8" style="stroke: #000000; stroke-width: 0.8"/>
      </g>
     </g>
     <g id="text_6">
      <!-- 5 -->
      <g transform="translate(291.364205 407.398438) scale(0.1 -0.1)">
       <defs>
        <path id="DejaVuSans-35" d="M 691 4666 
L 3169 4666 
L 3169 4134 
L 1269 4134 
L 1269 2991 
Q 1406 3038 1543 3061 
Q 1681 3084 1819 3084 
Q 2600 3084 3056 2656 
Q 3513 2228 3513 1497 
Q 3513 744 3044 326 
Q 2575 -91 1722 -91 
Q 1428 -91 1123 -41 
Q 819 9 494 109 
L 494 744 
Q 775 591 1075 516 
Q 1375 441 1709 441 
Q 2250 441 2565 725 
Q 2881 1009 2881 1497 
Q 2881 1984 2565 2268 
Q 2250 2553 1709 2553 
Q 1456 2553 1204 2497 
Q 953 2441 691 2322 
L 691 4666 
z
" transform="scale(0.015625)"/>
       </defs>
       <use xlink:href="#DejaVuSans-35"/>
      </g>
     </g>
    </g>
    <g id="text_7">
     <!-- relative distance from ROI center ($\sigma$) -->
     <g transform="translate(106.48 419.556875) scale(0.08 -0.08)">
      <defs>
       <path id="DejaVuSans-72" d="M 2631 2963 
Q 2534 3019 2420 3045 
Q 2306 3072 2169 3072 
Q 1681 3072 1420 2755 
Q 1159 2438 1159 1844 
L 1159 0 
L 581 0 
L 581 3500 
L 1159 3500 
L 1159 2956 
Q 1341 3275 1631 3429 
Q 1922 3584 2338 3584 
Q 2397 3584 2469 3576 
Q 2541 3569 2628 3553 
L 2631 2963 
z
" transform="scale(0.015625)"/>
       <path id="DejaVuSans-65" d="M 3597 1894 
L 3597 1613 
L 953 1613 
Q 991 1019 1311 708 
Q 1631 397 2203 397 
Q 2534 397 2845 478 
Q 3156 559 3463 722 
L 3463 178 
Q 3153 47 2828 -22 
Q 2503 -91 2169 -91 
Q 1331 -91 842 396 
Q 353 884 353 1716 
Q 353 2575 817 3079 
Q 1281 3584 2069 3584 
Q 2775 3584 3186 3129 
Q 3597 2675 3597 1894 
z
M 3022 2063 
Q 3016 2534 2758 2815 
Q 2500 3097 2075 3097 
Q 1594 3097 1305 2825 
Q 1016 2553 972 2059 
L 3022 2063 
z
" transform="scale(0.015625)"/>
       <path id="DejaVuSans-6c" d="M 603 4863 
L 1178 4863 
L 1178 0 
L 603 0 
L 603 4863 
z
" transform="scale(0.015625)"/>
       <path id="DejaVuSans-61" d="M 2194 1759 
Q 1497 1759 1228 1600 
Q 959 1441 959 1056 
Q 959 750 1161 570 
Q 1363 391 1709 391 
Q 2188 391 2477 730 
Q 2766 1069 2766 1631 
L 2766 1759 
L 2194 1759 
z
M 3341 1997 
L 3341 0 
L 2766 0 
L 2766 531 
Q 2569 213 2275 61 
Q 1981 -91 1556 -91 
Q 1019 -91 701 211 
Q 384 513 384 1019 
Q 384 1609 779 1909 
Q 1175 2209 1959 2209 
L 2766 2209 
L 2766 2266 
Q 2766 2663 2505 2880 
Q 2244 3097 1772 3097 
Q 1472 3097 1187 3025 
Q 903 2953 641 2809 
L 641 3341 
Q 956 3463 1253 3523 
Q 1550 3584 1831 3584 
Q 2591 3584 2966 3190 
Q 3341 2797 3341 1997 
z
" transform="scale(0.015625)"/>
       <path id="DejaVuSans-74" d="M 1172 4494 
L 1172 3500 
L 2356 3500 
L 2356 3053 
L 1172 3053 
L 1172 1153 
Q 1172 725 1289 603 
Q 1406 481 1766 481 
L 2356 481 
L 2356 0 
L 1766 0 
Q 1100 0 847 248 
Q 594 497 594 1153 
L 594 3053 
L 172 3053 
L 172 3500 
L 594 3500 
L 594 4494 
L 1172 4494 
z
" transform="scale(0.015625)"/>
       <path id="DejaVuSans-69" d="M 603 3500 
L 1178 3500 
L 1178 0 
L 603 0 
L 603 3500 
z
M 603 4863 
L 1178 4863 
L 1178 4134 
L 603 4134 
L 603 4863 
z
" transform="scale(0.015625)"/>
       <path id="DejaVuSans-76" d="M 191 3500 
L 800 3500 
L 1894 563 
L 2988 3500 
L 3597 3500 
L 2284 0 
L 1503 0 
L 191 3500 
z
" transform="scale(0.015625)"/>
       <path id="DejaVuSans-20" transform="scale(0.015625)"/>
       <path id="DejaVuSans-64" d="M 2906 2969 
L 2906 4863 
L 3481 4863 
L 3481 0 
L 2906 0 
L 2906 525 
Q 2725 213 2448 61 
Q 2172 -91 1784 -91 
Q 1150 -91 751 415 
Q 353 922 353 1747 
Q 353 2572 751 3078 
Q 1150 3584 1784 3584 
Q 2172 3584 2448 3432 
Q 2725 3281 2906 2969 
z
M 947 1747 
Q 947 1113 1208 752 
Q 1469 391 1925 391 
Q 2381 391 2643 752 
Q 2906 1113 2906 1747 
Q 2906 2381 2643 2742 
Q 2381 3103 1925 3103 
Q 1469 3103 1208 2742 
Q 947 2381 947 1747 
z
" transform="scale(0.015625)"/>
       <path id="DejaVuSans-73" d="M 2834 3397 
L 2834 2853 
Q 2591 2978 2328 3040 
Q 2066 3103 1784 3103 
Q 1356 3103 1142 2972 
Q 928 2841 928 2578 
Q 928 2378 1081 2264 
Q 1234 2150 1697 2047 
L 1894 2003 
Q 2506 1872 2764 1633 
Q 3022 1394 3022 966 
Q 3022 478 2636 193 
Q 2250 -91 1575 -91 
Q 1294 -91 989 -36 
Q 684 19 347 128 
L 347 722 
Q 666 556 975 473 
Q 1284 391 1588 391 
Q 1994 391 2212 530 
Q 2431 669 2431 922 
Q 2431 1156 2273 1281 
Q 2116 1406 1581 1522 
L 1381 1569 
Q 847 1681 609 1914 
Q 372 2147 372 2553 
Q 372 3047 722 3315 
Q 1072 3584 1716 3584 
Q 2034 3584 2315 3537 
Q 2597 3491 2834 3397 
z
" transform="scale(0.015625)"/>
       <path id="DejaVuSans-6e" d="M 3513 2113 
L 3513 0 
L 2938 0 
L 2938 2094 
Q 2938 2591 2744 2837 
Q 2550 3084 2163 3084 
Q 1697 3084 1428 2787 
Q 1159 2491 1159 1978 
L 1159 0 
L 581 0 
L 581 3500 
L 1159 3500 
L 1159 2956 
Q 1366 3272 1645 3428 
Q 1925 3584 2291 3584 
Q 2894 3584 3203 3211 
Q 3513 2838 3513 2113 
z
" transform="scale(0.015625)"/>
       <path id="DejaVuSans-63" d="M 3122 3366 
L 3122 2828 
Q 2878 2963 2633 3030 
Q 2388 3097 2138 3097 
Q 1578 3097 1268 2742 
Q 959 2388 959 1747 
Q 959 1106 1268 751 
Q 1578 397 2138 397 
Q 2388 397 2633 464 
Q 2878 531 3122 666 
L 3122 134 
Q 2881 22 2623 -34 
Q 2366 -91 2075 -91 
Q 1284 -91 818 406 
Q 353 903 353 1747 
Q 353 2603 823 3093 
Q 1294 3584 2113 3584 
Q 2378 3584 2631 3529 
Q 2884 3475 3122 3366 
z
" transform="scale(0.015625)"/>
       <path id="DejaVuSans-66" d="M 2375 4863 
L 2375 4384 
L 1825 4384 
Q 1516 4384 1395 4259 
Q 1275 4134 1275 3809 
L 1275 3500 
L 2222 3500 
L 2222 3053 
L 1275 3053 
L 1275 0 
L 697 0 
L 697 3053 
L 147 3053 
L 147 3500 
L 697 3500 
L 697 3744 
Q 697 4328 969 4595 
Q 1241 4863 1831 4863 
L 2375 4863 
z
" transform="scale(0.015625)"/>
       <path id="DejaVuSans-6f" d="M 1959 3097 
Q 1497 3097 1228 2736 
Q 959 2375 959 1747 
Q 959 1119 1226 758 
Q 1494 397 1959 397 
Q 2419 397 2687 759 
Q 2956 1122 2956 1747 
Q 2956 2369 2687 2733 
Q 2419 3097 1959 3097 
z
M 1959 3584 
Q 2709 3584 3137 3096 
Q 3566 2609 3566 1747 
Q 3566 888 3137 398 
Q 2709 -91 1959 -91 
Q 1206 -91 779 398 
Q 353 888 353 1747 
Q 353 2609 779 3096 
Q 1206 3584 1959 3584 
z
" transform="scale(0.015625)"/>
       <path id="DejaVuSans-6d" d="M 3328 2828 
Q 3544 3216 3844 3400 
Q 4144 3584 4550 3584 
Q 5097 3584 5394 3201 
Q 5691 2819 5691 2113 
L 5691 0 
L 5113 0 
L 5113 2094 
Q 5113 2597 4934 2840 
Q 4756 3084 4391 3084 
Q 3944 3084 3684 2787 
Q 3425 2491 3425 1978 
L 3425 0 
L 2847 0 
L 2847 2094 
Q 2847 2600 2669 2842 
Q 2491 3084 2119 3084 
Q 1678 3084 1418 2786 
Q 1159 2488 1159 1978 
L 1159 0 
L 581 0 
L 581 3500 
L 1159 3500 
L 1159 2956 
Q 1356 3278 1631 3431 
Q 1906 3584 2284 3584 
Q 2666 3584 2933 3390 
Q 3200 3197 3328 2828 
z
" transform="scale(0.015625)"/>
       <path id="DejaVuSans-52" d="M 2841 2188 
Q 3044 2119 3236 1894 
Q 3428 1669 3622 1275 
L 4263 0 
L 3584 0 
L 2988 1197 
Q 2756 1666 2539 1819 
Q 2322 1972 1947 1972 
L 1259 1972 
L 1259 0 
L 628 0 
L 628 4666 
L 2053 4666 
Q 2853 4666 3247 4331 
Q 3641 3997 3641 3322 
Q 3641 2881 3436 2590 
Q 3231 2300 2841 2188 
z
M 1259 4147 
L 1259 2491 
L 2053 2491 
Q 2509 2491 2742 2702 
Q 2975 2913 2975 3322 
Q 2975 3731 2742 3939 
Q 2509 4147 2053 4147 
L 1259 4147 
z
" transform="scale(0.015625)"/>
       <path id="DejaVuSans-4f" d="M 2522 4238 
Q 1834 4238 1429 3725 
Q 1025 3213 1025 2328 
Q 1025 1447 1429 934 
Q 1834 422 2522 422 
Q 3209 422 3611 934 
Q 4013 1447 4013 2328 
Q 4013 3213 3611 3725 
Q 3209 4238 2522 4238 
z
M 2522 4750 
Q 3503 4750 4090 4092 
Q 4678 3434 4678 2328 
Q 4678 1225 4090 567 
Q 3503 -91 2522 -91 
Q 1538 -91 948 565 
Q 359 1222 359 2328 
Q 359 3434 948 4092 
Q 1538 4750 2522 4750 
z
" transform="scale(0.015625)"/>
       <path id="DejaVuSans-49" d="M 628 4666 
L 1259 4666 
L 1259 0 
L 628 0 
L 628 4666 
z
" transform="scale(0.015625)"/>
       <path id="DejaVuSans-28" d="M 1984 4856 
Q 1566 4138 1362 3434 
Q 1159 2731 1159 2009 
Q 1159 1288 1364 580 
Q 1569 -128 1984 -844 
L 1484 -844 
Q 1016 -109 783 600 
Q 550 1309 550 2009 
Q 550 2706 781 3412 
Q 1013 4119 1484 4856 
L 1984 4856 
z
" transform="scale(0.015625)"/>
       <path id="DejaVuSans-Oblique-3c3" d="M 2219 3044 
Q 1744 3044 1422 2700 
Q 1081 2341 969 1747 
Q 844 1119 1044 756 
Q 1241 397 1706 397 
Q 2166 397 2503 759 
Q 2844 1122 2966 1747 
Q 3075 2319 2881 2700 
Q 2700 3044 2219 3044 
z
M 2309 3503 
L 4219 3500 
L 4106 2925 
L 3463 2925 
Q 3706 2438 3575 1747 
Q 3406 888 2884 400 
Q 2359 -91 1609 -91 
Q 856 -91 525 400 
Q 194 888 363 1747 
Q 528 2609 1050 3097 
Q 1484 3503 2309 3503 
z
" transform="scale(0.015625)"/>
       <path id="DejaVuSans-29" d="M 513 4856 
L 1013 4856 
Q 1481 4119 1714 3412 
Q 1947 2706 1947 2009 
Q 1947 1309 1714 600 
Q 1481 -109 1013 -844 
L 513 -844 
Q 928 -128 1133 580 
Q 1338 1288 1338 2009 
Q 1338 2731 1133 3434 
Q 928 4138 513 4856 
z
" transform="scale(0.015625)"/>
      </defs>
      <use xlink:href="#DejaVuSans-72" transform="translate(0 0.015625)"/>
      <use xlink:href="#DejaVuSans-65" transform="translate(41.113281 0.015625)"/>
      <use xlink:href="#DejaVuSans-6c" transform="translate(102.636719 0.015625)"/>
      <use xlink:href="#DejaVuSans-61" transform="translate(130.419922 0.015625)"/>
      <use xlink:href="#DejaVuSans-74" transform="translate(191.699219 0.015625)"/>
      <use xlink:href="#DejaVuSans-69" transform="translate(230.908203 0.015625)"/>
      <use xlink:href="#DejaVuSans-76" transform="translate(258.691406 0.015625)"/>
      <use xlink:href="#DejaVuSans-65" transform="translate(317.871094 0.015625)"/>
      <use xlink:href="#DejaVuSans-20" transform="translate(379.394531 0.015625)"/>
      <use xlink:href="#DejaVuSans-64" transform="translate(411.181641 0.015625)"/>
      <use xlink:href="#DejaVuSans-69" transform="translate(474.658203 0.015625)"/>
      <use xlink:href="#DejaVuSans-73" transform="translate(502.441406 0.015625)"/>
      <use xlink:href="#DejaVuSans-74" transform="translate(554.541016 0.015625)"/>
      <use xlink:href="#DejaVuSans-61" transform="translate(593.75 0.015625)"/>
      <use xlink:href="#DejaVuSans-6e" transform="translate(655.029297 0.015625)"/>
      <use xlink:href="#DejaVuSans-63" transform="translate(718.408203 0.015625)"/>
      <use xlink:href="#DejaVuSans-65" transform="translate(773.388672 0.015625)"/>
      <use xlink:href="#DejaVuSans-20" transform="translate(834.912109 0.015625)"/>
      <use xlink:href="#DejaVuSans-66" transform="translate(866.699219 0.015625)"/>
      <use xlink:href="#DejaVuSans-72" transform="translate(901.904297 0.015625)"/>
      <use xlink:href="#DejaVuSans-6f" transform="translate(943.017578 0.015625)"/>
      <use xlink:href="#DejaVuSans-6d" transform="translate(1004.199219 0.015625)"/>
      <use xlink:href="#DejaVuSans-20" transform="translate(1101.611328 0.015625)"/>
      <use xlink:href="#DejaVuSans-52" transform="translate(1133.398438 0.015625)"/>
      <use xlink:href="#DejaVuSans-4f" transform="translate(1202.880859 0.015625)"/>
      <use xlink:href="#DejaVuSans-49" transform="translate(1281.591797 0.015625)"/>
      <use xlink:href="#DejaVuSans-20" transform="translate(1311.083984 0.015625)"/>
      <use xlink:href="#DejaVuSans-63" transform="translate(1342.871094 0.015625)"/>
      <use xlink:href="#DejaVuSans-65" transform="translate(1397.851562 0.015625)"/>
      <use xlink:href="#DejaVuSans-6e" transform="translate(1459.375 0.015625)"/>
      <use xlink:href="#DejaVuSans-74" transform="translate(1522.753906 0.015625)"/>
      <use xlink:href="#DejaVuSans-65" transform="translate(1561.962891 0.015625)"/>
      <use xlink:href="#DejaVuSans-72" transform="translate(1623.486328 0.015625)"/>
      <use xlink:href="#DejaVuSans-20" transform="translate(1664.599609 0.015625)"/>
      <use xlink:href="#DejaVuSans-28" transform="translate(1696.386719 0.015625)"/>
      <use xlink:href="#DejaVuSans-Oblique-3c3" transform="translate(1735.400391 0.015625)"/>
      <use xlink:href="#DejaVuSans-29" transform="translate(1798.779297 0.015625)"/>
     </g>
    </g>
   </g>
   <g id="matplotlib.axis_2">
    <g id="ytick_1">
     <g id="line2d_7">
      <defs>
       <path id="m6ff9b55912" d="M 0 0 
L -3.5 0 
" style="stroke: #000000; stroke-width: 0.8"/>
      </defs>
      <g>
       <use xlink:href="#m6ff9b55912" x="50" y="376.457143" style="stroke: #000000; stroke-width: 0.8"/>
      </g>
     </g>
     <g id="text_8">
      <!-- −5 -->
      <g transform="translate(28.257812 380.256362) scale(0.1 -0.1)">
       <defs>
        <path id="DejaVuSans-2212" d="M 678 2272 
L 4684 2272 
L 4684 1741 
L 678 1741 
L 678 2272 
z
" transform="scale(0.015625)"/>
       </defs>
       <use xlink:href="#DejaVuSans-2212"/>
       <use xlink:href="#DejaVuSans-35" x="83.789062"/>
      </g>
     </g>
    </g>
    <g id="ytick_2">
     <g id="line2d_8">
      <g>
       <use xlink:href="#m6ff9b55912" x="50" y="345.6" style="stroke: #000000; stroke-width: 0.8"/>
      </g>
     </g>
     <g id="text_9">
      <!-- 0 -->
      <g transform="translate(36.6375 349.399219) scale(0.1 -0.1)">
       <use xlink:href="#DejaVuSans-30"/>
      </g>
     </g>
    </g>
    <g id="ytick_3">
     <g id="line2d_9">
      <g>
       <use xlink:href="#m6ff9b55912" x="50" y="314.742857" style="stroke: #000000; stroke-width: 0.8"/>
      </g>
     </g>
     <g id="text_10">
      <!-- 5 -->
      <g transform="translate(36.6375 318.542076) scale(0.1 -0.1)">
       <use xlink:href="#DejaVuSans-35"/>
      </g>
     </g>
    </g>
    <g id="text_11">
     <!-- BOLD % change -->
     <g transform="translate(22.594062 377.79625) rotate(-90) scale(0.08 -0.08)">
      <defs>
       <path id="DejaVuSans-42" d="M 1259 2228 
L 1259 519 
L 2272 519 
Q 2781 519 3026 730 
Q 3272 941 3272 1375 
Q 3272 1813 3026 2020 
Q 2781 2228 2272 2228 
L 1259 2228 
z
M 1259 4147 
L 1259 2741 
L 2194 2741 
Q 2656 2741 2882 2914 
Q 3109 3088 3109 3444 
Q 3109 3797 2882 3972 
Q 2656 4147 2194 4147 
L 1259 4147 
z
M 628 4666 
L 2241 4666 
Q 2963 4666 3353 4366 
Q 3744 4066 3744 3513 
Q 3744 3084 3544 2831 
Q 3344 2578 2956 2516 
Q 3422 2416 3680 2098 
Q 3938 1781 3938 1306 
Q 3938 681 3513 340 
Q 3088 0 2303 0 
L 628 0 
L 628 4666 
z
" transform="scale(0.015625)"/>
       <path id="DejaVuSans-4c" d="M 628 4666 
L 1259 4666 
L 1259 531 
L 3531 531 
L 3531 0 
L 628 0 
L 628 4666 
z
" transform="scale(0.015625)"/>
       <path id="DejaVuSans-44" d="M 1259 4147 
L 1259 519 
L 2022 519 
Q 2988 519 3436 956 
Q 3884 1394 3884 2338 
Q 3884 3275 3436 3711 
Q 2988 4147 2022 4147 
L 1259 4147 
z
M 628 4666 
L 1925 4666 
Q 3281 4666 3915 4102 
Q 4550 3538 4550 2338 
Q 4550 1131 3912 565 
Q 3275 0 1925 0 
L 628 0 
L 628 4666 
z
" transform="scale(0.015625)"/>
       <path id="DejaVuSans-25" d="M 4653 2053 
Q 4381 2053 4226 1822 
Q 4072 1591 4072 1178 
Q 4072 772 4226 539 
Q 4381 306 4653 306 
Q 4919 306 5073 539 
Q 5228 772 5228 1178 
Q 5228 1588 5073 1820 
Q 4919 2053 4653 2053 
z
M 4653 2450 
Q 5147 2450 5437 2106 
Q 5728 1763 5728 1178 
Q 5728 594 5436 251 
Q 5144 -91 4653 -91 
Q 4153 -91 3862 251 
Q 3572 594 3572 1178 
Q 3572 1766 3864 2108 
Q 4156 2450 4653 2450 
z
M 1428 4353 
Q 1159 4353 1004 4120 
Q 850 3888 850 3481 
Q 850 3069 1003 2837 
Q 1156 2606 1428 2606 
Q 1700 2606 1854 2837 
Q 2009 3069 2009 3481 
Q 2009 3884 1853 4118 
Q 1697 4353 1428 4353 
z
M 4250 4750 
L 4750 4750 
L 1831 -91 
L 1331 -91 
L 4250 4750 
z
M 1428 4750 
Q 1922 4750 2215 4408 
Q 2509 4066 2509 3481 
Q 2509 2891 2217 2550 
Q 1925 2209 1428 2209 
Q 931 2209 642 2551 
Q 353 2894 353 3481 
Q 353 4063 643 4406 
Q 934 4750 1428 4750 
z
" transform="scale(0.015625)"/>
       <path id="DejaVuSans-68" d="M 3513 2113 
L 3513 0 
L 2938 0 
L 2938 2094 
Q 2938 2591 2744 2837 
Q 2550 3084 2163 3084 
Q 1697 3084 1428 2787 
Q 1159 2491 1159 1978 
L 1159 0 
L 581 0 
L 581 4863 
L 1159 4863 
L 1159 2956 
Q 1366 3272 1645 3428 
Q 1925 3584 2291 3584 
Q 2894 3584 3203 3211 
Q 3513 2838 3513 2113 
z
" transform="scale(0.015625)"/>
       <path id="DejaVuSans-67" d="M 2906 1791 
Q 2906 2416 2648 2759 
Q 2391 3103 1925 3103 
Q 1463 3103 1205 2759 
Q 947 2416 947 1791 
Q 947 1169 1205 825 
Q 1463 481 1925 481 
Q 2391 481 2648 825 
Q 2906 1169 2906 1791 
z
M 3481 434 
Q 3481 -459 3084 -895 
Q 2688 -1331 1869 -1331 
Q 1566 -1331 1297 -1286 
Q 1028 -1241 775 -1147 
L 775 -588 
Q 1028 -725 1275 -790 
Q 1522 -856 1778 -856 
Q 2344 -856 2625 -561 
Q 2906 -266 2906 331 
L 2906 616 
Q 2728 306 2450 153 
Q 2172 0 1784 0 
Q 1141 0 747 490 
Q 353 981 353 1791 
Q 353 2603 747 3093 
Q 1141 3584 1784 3584 
Q 2172 3584 2450 3431 
Q 2728 3278 2906 2969 
L 2906 3500 
L 3481 3500 
L 3481 434 
z
" transform="scale(0.015625)"/>
      </defs>
      <use xlink:href="#DejaVuSans-42"/>
      <use xlink:href="#DejaVuSans-4f" x="66.853516"/>
      <use xlink:href="#DejaVuSans-4c" x="145.564453"/>
      <use xlink:href="#DejaVuSans-44" x="201.277344"/>
      <use xlink:href="#DejaVuSans-20" x="278.279297"/>
      <use xlink:href="#DejaVuSans-25" x="310.066406"/>
      <use xlink:href="#DejaVuSans-20" x="405.085938"/>
      <use xlink:href="#DejaVuSans-63" x="436.873047"/>
      <use xlink:href="#DejaVuSans-68" x="491.853516"/>
      <use xlink:href="#DejaVuSans-61" x="555.232422"/>
      <use xlink:href="#DejaVuSans-6e" x="616.511719"/>
      <use xlink:href="#DejaVuSans-67" x="679.890625"/>
      <use xlink:href="#DejaVuSans-65" x="743.367188"/>
     </g>
    </g>
   </g>
   <g id="line2d_10">
    <path d="M 65.454545 339.905279 
L 70.12987 339.704024 
L 74.805195 339.63541 
L 79.480519 339.887397 
L 84.155844 340.069586 
L 88.831169 340.121075 
L 93.506494 339.861773 
L 98.181818 339.682848 
L 102.857143 339.438063 
L 107.532468 339.544677 
L 112.207792 339.781326 
L 116.883117 339.666951 
L 121.558442 339.627768 
L 126.233766 339.884376 
L 130.909091 339.748826 
L 135.584416 339.904811 
L 140.25974 340.069672 
L 144.935065 340.180936 
L 149.61039 340.122037 
L 154.285714 340.152856 
L 158.961039 340.006773 
L 163.636364 340.119373 
L 168.311688 340.265807 
L 172.987013 340.777718 
L 177.662338 341.301638 
L 182.337662 341.765828 
L 187.012987 342.440054 
L 191.688312 343.131203 
L 196.363636 343.641619 
L 201.038961 344.10238 
L 205.714286 344.535634 
L 210.38961 344.904037 
L 215.064935 345.647307 
L 219.74026 346.335209 
L 224.415584 346.668564 
L 229.090909 346.829623 
L 233.766234 346.72993 
L 238.441558 346.659625 
L 243.116883 346.822994 
L 247.792208 346.859742 
L 252.467532 347.010606 
L 257.142857 347.045473 
L 261.818182 347.332784 
L 266.493506 347.800966 
L 271.168831 348.110655 
L 275.844156 348.154818 
L 280.519481 348.274025 
L 285.194805 348.542511 
L 289.87013 348.683695 
L 294.545455 349.17381 
" clip-path="url(#p6482ae8211)" style="fill: none; stroke: #ffa500; stroke-width: 1.5; stroke-linecap: square"/>
   </g>
   <g id="line2d_11">
    <path d="M 65.454545 339.136475 
L 70.12987 339.092642 
L 74.805195 339.632805 
L 79.480519 340.345844 
L 84.155844 341.812699 
L 88.831169 343.425304 
L 93.506494 345.24821 
L 98.181818 346.433904 
L 102.857143 347.277162 
L 107.532468 347.2543 
L 112.207792 346.88002 
L 116.883117 346.629493 
L 121.558442 345.820137 
L 126.233766 344.784215 
L 130.909091 344.462153 
L 135.584416 345.538754 
L 140.25974 346.148416 
L 144.935065 346.823735 
L 149.61039 347.10453 
L 154.285714 347.079478 
L 158.961039 346.520548 
L 163.636364 345.601292 
L 168.311688 345.200213 
L 172.987013 345.181512 
L 177.662338 345.564854 
L 182.337662 345.876018 
L 187.012987 347.002677 
L 191.688312 347.989111 
L 196.363636 348.665928 
L 201.038961 348.673025 
L 205.714286 348.385702 
L 210.38961 348.038001 
L 215.064935 347.816277 
L 219.74026 347.916374 
L 224.415584 348.490893 
L 229.090909 348.263066 
L 233.766234 347.83103 
L 238.441558 348.348119 
L 243.116883 348.40801 
L 247.792208 348.03493 
L 252.467532 347.3345 
L 257.142857 346.754821 
L 261.818182 347.155537 
L 266.493506 348.212509 
L 271.168831 349.242478 
L 275.844156 350.197166 
L 280.519481 351.73953 
L 285.194805 351.796717 
L 289.87013 351.592399 
L 294.545455 350.412414 
" clip-path="url(#p6482ae8211)" style="fill: none; stroke: #ffa500; stroke-opacity: 0.2; stroke-width: 1.5; stroke-linecap: square"/>
   </g>
   <g id="line2d_12">
    <path d="M 65.454545 346.27587 
L 70.12987 346.27587 
L 74.805195 345.253477 
L 79.480519 343.126099 
L 84.155844 341.910239 
L 88.831169 340.965963 
L 93.506494 340.733703 
L 98.181818 340.448118 
L 102.857143 340.184055 
L 107.532468 340.272722 
L 112.207792 340.145351 
L 116.883117 340.556214 
L 121.558442 340.549292 
L 126.233766 340.29611 
L 130.909091 339.903592 
L 135.584416 339.62629 
L 140.25974 339.630778 
L 144.935065 339.875061 
L 149.61039 339.827487 
L 154.285714 340.322542 
L 158.961039 340.315636 
L 163.636364 340.264592 
L 168.311688 339.821121 
L 172.987013 339.579285 
L 177.662338 339.457268 
L 182.337662 339.181215 
L 187.012987 338.90685 
L 191.688312 338.628187 
L 196.363636 338.317762 
L 201.038961 338.742327 
L 205.714286 339.388608 
L 210.38961 339.732644 
L 215.064935 340.068969 
L 219.74026 340.373939 
L 224.415584 340.602881 
L 229.090909 340.40698 
L 233.766234 340.017586 
L 238.441558 339.802331 
L 243.116883 339.840565 
L 247.792208 339.9077 
L 252.467532 339.887802 
L 257.142857 339.690145 
L 261.818182 339.539427 
L 266.493506 339.808901 
L 271.168831 339.886739 
L 275.844156 339.438944 
L 280.519481 339.203482 
L 285.194805 339.228447 
L 289.87013 338.98639 
L 294.545455 338.604047 
" clip-path="url(#p6482ae8211)" style="fill: none; stroke: #ffa500; stroke-opacity: 0.2; stroke-width: 1.5; stroke-linecap: square"/>
   </g>
   <g id="line2d_13">
    <path d="M 65.454545 346.555347 
L 70.12987 346.27115 
L 74.805195 345.7436 
L 79.480519 345.685189 
L 84.155844 346.183262 
L 88.831169 346.715478 
L 93.506494 347.216566 
L 98.181818 347.599456 
L 102.857143 347.414243 
L 107.532468 347.715404 
L 112.207792 348.08765 
L 116.883117 348.328105 
L 121.558442 348.340413 
L 126.233766 347.996367 
L 130.909091 348.371968 
L 135.584416 348.493811 
L 140.25974 348.140566 
L 144.935065 347.666504 
L 149.61039 347.599878 
L 154.285714 347.488287 
L 158.961039 347.289916 
L 163.636364 346.812177 
L 168.311688 346.597502 
L 172.987013 346.462744 
L 177.662338 346.698327 
L 182.337662 347.331044 
L 187.012987 347.864629 
L 191.688312 347.94128 
L 196.363636 347.851871 
L 201.038961 347.491118 
L 205.714286 347.025238 
L 210.38961 346.402713 
L 215.064935 346.033166 
L 219.74026 345.69313 
L 224.415584 345.209511 
L 229.090909 344.908606 
L 233.766234 344.951598 
L 238.441558 344.821463 
L 243.116883 344.263606 
L 247.792208 343.459546 
L 252.467532 342.863206 
L 257.142857 342.783649 
L 261.818182 343.149985 
L 266.493506 343.825708 
L 271.168831 344.987313 
L 275.844156 345.62838 
L 280.519481 345.80481 
L 285.194805 346.782003 
L 289.87013 348.2357 
L 294.545455 348.63178 
" clip-path="url(#p6482ae8211)" style="fill: none; stroke: #ffa500; stroke-opacity: 0.2; stroke-width: 1.5; stroke-linecap: square"/>
   </g>
   <g id="line2d_14">
    <path d="M 65.454545 342.176452 
L 70.12987 342.176452 
L 74.805195 342.411152 
L 79.480519 342.939327 
L 84.155844 343.544216 
L 88.831169 343.517773 
L 93.506494 343.358799 
L 98.181818 343.270053 
L 102.857143 342.84053 
L 107.532468 342.909204 
L 112.207792 342.948182 
L 116.883117 343.044418 
L 121.558442 343.45438 
L 126.233766 343.77668 
L 130.909091 344.001497 
L 135.584416 344.253962 
L 140.25974 344.828514 
L 144.935065 345.680591 
L 149.61039 346.414003 
L 154.285714 347.443497 
L 158.961039 348.200857 
L 163.636364 348.673222 
L 168.311688 349.329111 
L 172.987013 350.140742 
L 177.662338 350.668021 
L 182.337662 351.1427 
L 187.012987 351.435999 
L 191.688312 351.828117 
L 196.363636 352.290878 
L 201.038961 352.367783 
L 205.714286 352.26958 
L 210.38961 352.817669 
L 215.064935 353.541089 
L 219.74026 354.439666 
L 224.415584 354.875834 
L 229.090909 354.766742 
L 233.766234 354.097886 
L 238.441558 353.552713 
L 243.116883 353.104119 
L 247.792208 353.009742 
L 252.467532 353.009988 
L 257.142857 352.801434 
L 261.818182 352.550454 
L 266.493506 352.391221 
L 271.168831 352.554861 
L 275.844156 352.094954 
L 280.519481 351.966023 
L 285.194805 352.176922 
L 289.87013 352.05445 
L 294.545455 352.376033 
" clip-path="url(#p6482ae8211)" style="fill: none; stroke: #ffa500; stroke-opacity: 0.2; stroke-width: 1.5; stroke-linecap: square"/>
   </g>
   <g id="line2d_15">
    <path d="M 65.454545 336.513823 
L 70.12987 336.556815 
L 74.805195 338.053267 
L 79.480519 339.115519 
L 84.155844 337.45774 
L 88.831169 335.000774 
L 93.506494 333.663974 
L 98.181818 334.180909 
L 102.857143 335.844991 
L 107.532468 336.26673 
L 112.207792 335.267052 
L 116.883117 335.394647 
L 121.558442 335.524187 
L 126.233766 337.096564 
L 130.909091 338.589221 
L 135.584416 340.207416 
L 140.25974 340.988446 
L 144.935065 340.172325 
L 149.61039 339.437903 
L 154.285714 337.750031 
L 158.961039 335.841739 
L 163.636364 335.045712 
L 168.311688 334.747131 
L 172.987013 334.241183 
L 177.662338 333.899691 
L 182.337662 333.336646 
L 187.012987 334.192111 
L 191.688312 334.558839 
L 196.363636 334.685923 
L 201.038961 334.638102 
L 205.714286 335.175619 
L 210.38961 335.67591 
L 215.064935 337.046941 
L 219.74026 337.727203 
L 224.415584 337.727579 
L 229.090909 337.40669 
L 233.766234 336.883086 
L 238.441558 337.117808 
L 243.116883 338.528913 
L 247.792208 340.099217 
L 252.467532 341.160808 
L 257.142857 341.682956 
L 261.818182 342.798124 
L 266.493506 343.496726 
L 271.168831 343.667773 
L 275.844156 344.243626 
L 280.519481 345.0341 
L 285.194805 344.884562 
L 289.87013 344.509181 
L 294.545455 345.363885 
" clip-path="url(#p6482ae8211)" style="fill: none; stroke: #ffa500; stroke-opacity: 0.2; stroke-width: 1.5; stroke-linecap: square"/>
   </g>
   <g id="line2d_16">
    <path d="M 65.454545 352.274297 
L 70.12987 352.236658 
L 74.805195 352.174998 
L 79.480519 351.888014 
L 84.155844 351.568441 
L 88.831169 351.950197 
L 93.506494 348.601566 
L 98.181818 346.831715 
L 102.857143 345.776513 
L 107.532468 347.060603 
L 112.207792 350.849354 
L 116.883117 352.513298 
L 121.558442 354.429474 
L 126.233766 356.063221 
L 130.909091 355.83954 
L 135.584416 355.037069 
L 140.25974 355.181616 
L 144.935065 354.854045 
L 149.61039 353.427439 
L 154.285714 352.632419 
L 158.961039 352.510765 
L 163.636364 353.322549 
L 168.311688 353.320495 
L 172.987013 352.58584 
L 177.662338 350.811605 
L 182.337662 350.069789 
L 187.012987 351.14606 
L 191.688312 354.102412 
L 196.363636 355.012538 
L 201.038961 355.530933 
L 205.714286 357.106039 
L 210.38961 358.449051 
L 215.064935 360.633509 
L 219.74026 362.47915 
L 224.415584 362.863116 
L 229.090909 362.510763 
L 233.766234 361.268643 
L 238.441558 358.417632 
L 243.116883 355.136472 
L 247.792208 352.765586 
L 252.467532 352.126908 
L 257.142857 352.579702 
L 261.818182 353.63315 
L 266.493506 355.184418 
L 271.168831 356.41411 
L 275.844156 355.905731 
L 280.519481 355.752127 
L 285.194805 355.578858 
L 289.87013 355.47502 
L 294.545455 355.921599 
" clip-path="url(#p6482ae8211)" style="fill: none; stroke: #ffa500; stroke-opacity: 0.2; stroke-width: 1.5; stroke-linecap: square"/>
   </g>
   <g id="line2d_17">
    <path d="M 65.454545 315.983765 
L 70.12987 315.648645 
L 74.805195 315.385922 
L 79.480519 316.53844 
L 84.155844 316.934742 
L 88.831169 313.952327 
L 93.506494 311.455706 
L 98.181818 310.354314 
L 102.857143 309.206921 
L 107.532468 307.908964 
L 112.207792 307.960963 
L 116.883117 307.245006 
L 121.558442 306.825375 
L 126.233766 306.719439 
L 130.909091 306.1623 
L 135.584416 305.398308 
L 140.25974 305.070958 
L 144.935065 304.809703 
L 149.61039 304.442991 
L 154.285714 304.856016 
L 158.961039 305.592486 
L 163.636364 307.919735 
L 168.311688 310.686735 
L 172.987013 313.84879 
L 177.662338 317.107503 
L 182.337662 319.727072 
L 187.012987 321.823162 
L 191.688312 322.99785 
L 196.363636 323.026051 
L 201.038961 323.12466 
L 205.714286 323.662204 
L 210.38961 324.88231 
L 215.064935 326.166266 
L 219.74026 327.681779 
L 224.415584 328.608707 
L 229.090909 330.248146 
L 233.766234 331.497006 
L 238.441558 332.482216 
L 243.116883 334.327016 
L 247.792208 335.464092 
L 252.467532 336.246162 
L 257.142857 336.787529 
L 261.818182 337.657231 
L 266.493506 338.936621 
L 271.168831 340.109724 
L 275.844156 341.614756 
L 280.519481 342.423468 
L 285.194805 343.798995 
L 289.87013 344.486161 
L 294.545455 346.421985 
" clip-path="url(#p6482ae8211)" style="fill: none; stroke: #ffa500; stroke-opacity: 0.2; stroke-width: 1.5; stroke-linecap: square"/>
   </g>
   <g id="line2d_18">
    <path d="M 65.454545 342.986235 
L 70.12987 342.891617 
L 74.805195 342.375044 
L 79.480519 342.609828 
L 84.155844 342.947056 
L 88.831169 344.690883 
L 93.506494 345.426564 
L 98.181818 345.09605 
L 102.857143 344.12718 
L 107.532468 344.31155 
L 112.207792 344.153314 
L 116.883117 343.173437 
L 121.558442 342.040825 
L 126.233766 343.622319 
L 130.909091 343.441352 
L 135.584416 342.937586 
L 140.25974 342.37385 
L 144.935065 342.021737 
L 149.61039 341.357443 
L 154.285714 341.930539 
L 158.961039 342.340625 
L 163.636364 342.084063 
L 168.311688 342.041309 
L 172.987013 342.67976 
L 177.662338 343.641366 
L 182.337662 343.7759 
L 187.012987 343.465927 
L 191.688312 342.955403 
L 196.363636 342.64851 
L 201.038961 342.109724 
L 205.714286 342.163884 
L 210.38961 342.48177 
L 215.064935 342.572325 
L 219.74026 343.118906 
L 224.415584 343.741489 
L 229.090909 344.028942 
L 233.766234 344.117733 
L 238.441558 343.674196 
L 243.116883 343.34042 
L 247.792208 342.935253 
L 252.467532 343.0099 
L 257.142857 343.230976 
L 261.818182 342.744656 
L 266.493506 342.65594 
L 271.168831 342.674316 
L 275.844156 343.2191 
L 280.519481 342.531599 
L 285.194805 342.311833 
L 289.87013 342.135729 
L 294.545455 342.575457 
" clip-path="url(#p6482ae8211)" style="fill: none; stroke: #ffa500; stroke-opacity: 0.2; stroke-width: 1.5; stroke-linecap: square"/>
   </g>
   <g id="line2d_19">
    <path d="M 65.454545 358.494262 
L 70.12987 357.166703 
L 74.805195 356.172802 
L 79.480519 354.69484 
L 84.155844 353.614675 
L 88.831169 352.766352 
L 93.506494 351.768331 
L 98.181818 350.188894 
L 102.857143 348.47965 
L 107.532468 346.784207 
L 112.207792 345.608161 
L 116.883117 345.026038 
L 121.558442 344.192055 
L 126.233766 343.571613 
L 130.909091 343.126638 
L 135.584416 342.915761 
L 140.25974 343.705789 
L 144.935065 344.612476 
L 149.61039 345.329483 
L 154.285714 346.043994 
L 158.961039 346.538909 
L 163.636364 346.746962 
L 168.311688 346.413792 
L 172.987013 346.586822 
L 177.662338 346.620466 
L 182.337662 347.212134 
L 187.012987 348.389195 
L 191.688312 349.46003 
L 196.363636 350.625025 
L 201.038961 351.40424 
L 205.714286 351.548825 
L 210.38961 351.389075 
L 215.064935 351.488033 
L 219.74026 351.683352 
L 224.415584 351.768247 
L 229.090909 351.697045 
L 233.766234 351.28783 
L 238.441558 351.165752 
L 243.116883 350.930921 
L 247.792208 350.809532 
L 252.467532 350.398401 
L 257.142857 350.392979 
L 261.818182 350.929407 
L 266.493506 351.794635 
L 271.168831 353.176019 
L 275.844156 353.756495 
L 280.519481 353.964989 
L 285.194805 353.994472 
L 289.87013 353.283691 
L 294.545455 352.959692 
" clip-path="url(#p6482ae8211)" style="fill: none; stroke: #ffa500; stroke-opacity: 0.2; stroke-width: 1.5; stroke-linecap: square"/>
   </g>
   <g id="line2d_20">
    <path d="M 65.454545 300.616142 
L 70.12987 300.221507 
L 74.805195 300.905556 
L 79.480519 304.316961 
L 84.155844 307.982588 
L 88.831169 313.157748 
L 93.506494 318.307296 
L 98.181818 321.553035 
L 102.857143 322.851921 
L 107.532468 324.354267 
L 112.207792 325.48498 
L 116.883117 324.726396 
L 121.558442 324.130979 
L 126.233766 323.649348 
L 130.909091 321.987268 
L 135.584416 322.565923 
L 140.25974 321.782612 
L 144.935065 321.698378 
L 149.61039 321.601346 
L 154.285714 320.71401 
L 158.961039 318.748818 
L 163.636364 317.881316 
L 168.311688 316.993647 
L 172.987013 318.094724 
L 177.662338 319.142002 
L 182.337662 320.429142 
L 187.012987 321.288634 
L 191.688312 322.532659 
L 196.363636 324.378024 
L 201.038961 327.815591 
L 205.714286 330.111265 
L 210.38961 331.124122 
L 215.064935 333.137329 
L 219.74026 334.77836 
L 224.415584 336.155724 
L 229.090909 337.626073 
L 233.766234 338.858294 
L 238.441558 339.937844 
L 243.116883 342.382944 
L 247.792208 343.323554 
L 252.467532 343.450435 
L 257.142857 342.695949 
L 261.818182 342.163534 
L 266.493506 341.070287 
L 271.168831 338.765402 
L 275.844156 336.654569 
L 280.519481 336.086426 
L 285.194805 336.364782 
L 289.87013 336.935503 
L 294.545455 338.909418 
" clip-path="url(#p6482ae8211)" style="fill: none; stroke: #ffa500; stroke-opacity: 0.2; stroke-width: 1.5; stroke-linecap: square"/>
   </g>
   <g id="line2d_21">
    <path d="M 65.454545 357.9454 
L 70.12987 358.206207 
L 74.805195 357.880891 
L 79.480519 357.501303 
L 84.155844 356.809793 
L 88.831169 355.189025 
L 93.506494 352.698786 
L 98.181818 350.55488 
L 102.857143 349.815529 
L 107.532468 350.153496 
L 112.207792 350.209555 
L 116.883117 349.699408 
L 121.558442 350.598328 
L 126.233766 351.152257 
L 130.909091 351.35156 
L 135.584416 351.978041 
L 140.25974 352.914844 
L 144.935065 353.775741 
L 149.61039 354.799899 
L 154.285714 355.420599 
L 158.961039 356.174206 
L 163.636364 356.961488 
L 168.311688 357.772824 
L 172.987013 359.153493 
L 177.662338 360.706911 
L 182.337662 361.342443 
L 187.012987 361.325346 
L 191.688312 361.44935 
L 196.363636 362.555296 
L 201.038961 363.22868 
L 205.714286 363.055009 
L 210.38961 362.951136 
L 215.064935 363.616475 
L 219.74026 363.795436 
L 224.415584 363.310225 
L 229.090909 363.262795 
L 233.766234 363.218535 
L 238.441558 363.935805 
L 243.116883 364.789947 
L 247.792208 365.648006 
L 252.467532 367.62855 
L 257.142857 368.10006 
L 261.818182 368.339119 
L 266.493506 368.433661 
L 271.168831 367.738472 
L 275.844156 366.949281 
L 280.519481 366.50772 
L 285.194805 367.050028 
L 289.87013 367.826419 
L 294.545455 368.735601 
" clip-path="url(#p6482ae8211)" style="fill: none; stroke: #ffa500; stroke-opacity: 0.2; stroke-width: 1.5; stroke-linecap: square"/>
   </g>
   <g id="line2d_22">
    <path d="M 111.272727 382.628571 
L 111.272727 308.571429 
" clip-path="url(#p6482ae8211)" style="fill: none; stroke-dasharray: 5.55,2.4; stroke-dashoffset: 0; stroke: #000000; stroke-width: 1.5"/>
   </g>
   <g id="line2d_23">
    <path d="M 65.454545 345.6 
L 294.545455 345.6 
" clip-path="url(#p6482ae8211)" style="fill: none; stroke-dasharray: 5.55,2.4; stroke-dashoffset: 0; stroke: #000000; stroke-width: 1.5"/>
   </g>
   <g id="patch_3">
    <path d="M 50 388.8 
L 50 302.4 
" style="fill: none; stroke: #000000; stroke-width: 0.8; stroke-linejoin: miter; stroke-linecap: square"/>
   </g>
   <g id="patch_4">
    <path d="M 54 392.8 
L 306 392.8 
" style="fill: none; stroke: #000000; stroke-width: 0.8; stroke-linejoin: miter; stroke-linecap: square"/>
   </g>
   <g id="text_12">
    <!-- all depths -->
    <g transform="translate(150.492188 296.4) scale(0.12 -0.12)">
     <defs>
      <path id="DejaVuSans-70" d="M 1159 525 
L 1159 -1331 
L 581 -1331 
L 581 3500 
L 1159 3500 
L 1159 2969 
Q 1341 3281 1617 3432 
Q 1894 3584 2278 3584 
Q 2916 3584 3314 3078 
Q 3713 2572 3713 1747 
Q 3713 922 3314 415 
Q 2916 -91 2278 -91 
Q 1894 -91 1617 61 
Q 1341 213 1159 525 
z
M 3116 1747 
Q 3116 2381 2855 2742 
Q 2594 3103 2138 3103 
Q 1681 3103 1420 2742 
Q 1159 2381 1159 1747 
Q 1159 1113 1420 752 
Q 1681 391 2138 391 
Q 2594 391 2855 752 
Q 3116 1113 3116 1747 
z
" transform="scale(0.015625)"/>
     </defs>
     <use xlink:href="#DejaVuSans-61"/>
     <use xlink:href="#DejaVuSans-6c" x="61.279297"/>
     <use xlink:href="#DejaVuSans-6c" x="89.0625"/>
     <use xlink:href="#DejaVuSans-20" x="116.845703"/>
     <use xlink:href="#DejaVuSans-64" x="148.632812"/>
     <use xlink:href="#DejaVuSans-65" x="212.109375"/>
     <use xlink:href="#DejaVuSans-70" x="273.632812"/>
     <use xlink:href="#DejaVuSans-74" x="337.109375"/>
     <use xlink:href="#DejaVuSans-68" x="376.318359"/>
     <use xlink:href="#DejaVuSans-73" x="439.697266"/>
    </g>
   </g>
   <g id="legend_1">
    <g id="patch_5">
     <path d="M 61 383.8 
L 232.073438 383.8 
Q 234.073438 383.8 234.073438 381.8 
L 234.073438 367.84375 
Q 234.073438 365.84375 232.073438 365.84375 
L 61 365.84375 
Q 59 365.84375 59 367.84375 
L 59 381.8 
Q 59 383.8 61 383.8 
z
" style="fill: #ffffff; opacity: 0.8; stroke: #cccccc; stroke-linejoin: miter"/>
    </g>
    <g id="line2d_24">
     <path d="M 63 373.942187 
L 73 373.942187 
L 83 373.942187 
" style="fill: none; stroke: #ffa500; stroke-width: 1.5; stroke-linecap: square"/>
    </g>
    <g id="text_13">
     <!-- V1_tgt_deep_deveined_orth -->
     <g transform="translate(91 377.442187) scale(0.1 -0.1)">
      <defs>
       <path id="DejaVuSans-56" d="M 1831 0 
L 50 4666 
L 709 4666 
L 2188 738 
L 3669 4666 
L 4325 4666 
L 2547 0 
L 1831 0 
z
" transform="scale(0.015625)"/>
       <path id="DejaVuSans-5f" d="M 3263 -1063 
L 3263 -1509 
L -63 -1509 
L -63 -1063 
L 3263 -1063 
z
" transform="scale(0.015625)"/>
      </defs>
      <use xlink:href="#DejaVuSans-56"/>
      <use xlink:href="#DejaVuSans-31" x="68.408203"/>
      <use xlink:href="#DejaVuSans-5f" x="132.03125"/>
      <use xlink:href="#DejaVuSans-74" x="182.03125"/>
      <use xlink:href="#DejaVuSans-67" x="221.240234"/>
      <use xlink:href="#DejaVuSans-74" x="284.716797"/>
      <use xlink:href="#DejaVuSans-5f" x="323.925781"/>
      <use xlink:href="#DejaVuSans-64" x="373.925781"/>
      <use xlink:href="#DejaVuSans-65" x="437.402344"/>
      <use xlink:href="#DejaVuSans-65" x="498.925781"/>
      <use xlink:href="#DejaVuSans-70" x="560.449219"/>
      <use xlink:href="#DejaVuSans-5f" x="623.925781"/>
      <use xlink:href="#DejaVuSans-64" x="673.925781"/>
      <use xlink:href="#DejaVuSans-65" x="737.402344"/>
      <use xlink:href="#DejaVuSans-76" x="798.925781"/>
      <use xlink:href="#DejaVuSans-65" x="858.105469"/>
      <use xlink:href="#DejaVuSans-69" x="919.628906"/>
      <use xlink:href="#DejaVuSans-6e" x="947.412109"/>
      <use xlink:href="#DejaVuSans-65" x="1010.791016"/>
      <use xlink:href="#DejaVuSans-64" x="1072.314453"/>
      <use xlink:href="#DejaVuSans-5f" x="1135.791016"/>
      <use xlink:href="#DejaVuSans-6f" x="1185.791016"/>
      <use xlink:href="#DejaVuSans-72" x="1246.972656"/>
      <use xlink:href="#DejaVuSans-74" x="1288.085938"/>
      <use xlink:href="#DejaVuSans-68" x="1327.294922"/>
     </g>
    </g>
   </g>
  </g>
 </g>
 <defs>
  <clipPath id="p6482ae8211">
   <rect x="54" y="302.4" width="252" height="86.4"/>
  </clipPath>
 </defs>
</svg>
