<?xml version="1.0" encoding="utf-8" standalone="no"?>
<!DOCTYPE svg PUBLIC "-//W3C//DTD SVG 1.1//EN"
  "http://www.w3.org/Graphics/SVG/1.1/DTD/svg11.dtd">
<svg xmlns:xlink="http://www.w3.org/1999/xlink" width="360pt" height="432pt" viewBox="0 0 360 432" xmlns="http://www.w3.org/2000/svg" version="1.1">
 <metadata>
  <rdf:RDF xmlns:dc="http://purl.org/dc/elements/1.1/" xmlns:cc="http://creativecommons.org/ns#" xmlns:rdf="http://www.w3.org/1999/02/22-rdf-syntax-ns#">
   <cc:Work>
    <dc:type rdf:resource="http://purl.org/dc/dcmitype/StillImage"/>
    <dc:date>2025-10-31T15:45:49.688712</dc:date>
    <dc:format>image/svg+xml</dc:format>
    <dc:creator>
     <cc:Agent>
      <dc:title>Matplotlib v3.8.0, https://matplotlib.org/</dc:title>
     </cc:Agent>
    </dc:creator>
   </cc:Work>
  </rdf:RDF>
 </metadata>
 <defs>
  <style type="text/css">*{stroke-linejoin: round; stroke-linecap: butt}</style>
 </defs>
 <g id="figure_1">
  <g id="patch_1">
   <path d="M 0 432 
L 360 432 
L 360 0 
L 0 0 
z
" style="fill: #ffffff"/>
  </g>
  <g id="axes_1">
   <g id="patch_2">
    <path d="M 54 388.8 
L 306 388.8 
L 306 302.4 
L 54 302.4 
z
" style="fill: #ffffff"/>
   </g>
   <g id="PolyCollection_1">
    <defs>
     <path id="m01aa548093" d="M 65.454545 -87.011273 
L 65.454545 -84.343121 
L 70.12987 -84.375574 
L 74.805195 -84.561545 
L 79.480519 -84.915509 
L 84.155844 -85.298676 
L 88.831169 -85.84491 
L 93.506494 -86.28483 
L 98.181818 -86.592605 
L 102.857143 -86.914734 
L 107.532468 -86.877736 
L 112.207792 -86.687834 
L 116.883117 -86.446801 
L 121.558442 -86.329667 
L 126.233766 -86.258679 
L 130.909091 -86.285611 
L 135.584416 -86.355701 
L 140.25974 -86.477144 
L 144.935065 -86.365825 
L 149.61039 -86.153492 
L 154.285714 -85.836264 
L 158.961039 -85.631215 
L 163.636364 -85.471259 
L 168.311688 -85.239902 
L 172.987013 -84.867816 
L 177.662338 -84.647234 
L 182.337662 -84.431388 
L 187.012987 -84.176542 
L 191.688312 -83.965596 
L 196.363636 -83.855439 
L 201.038961 -83.673206 
L 205.714286 -83.342905 
L 210.38961 -82.969716 
L 215.064935 -82.71723 
L 219.74026 -82.590986 
L 224.415584 -82.579044 
L 229.090909 -82.485957 
L 233.766234 -82.511446 
L 238.441558 -82.466863 
L 243.116883 -82.400047 
L 247.792208 -82.386771 
L 252.467532 -82.2454 
L 257.142857 -82.092004 
L 261.818182 -81.880071 
L 266.493506 -81.643696 
L 271.168831 -81.445795 
L 275.844156 -81.198613 
L 280.519481 -80.988459 
L 285.194805 -80.96074 
L 289.87013 -80.96032 
L 294.545455 -80.86043 
L 294.545455 -83.659251 
L 294.545455 -83.659251 
L 289.87013 -83.775983 
L 285.194805 -83.752826 
L 280.519481 -83.691621 
L 275.844156 -83.811162 
L 271.168831 -83.931017 
L 266.493506 -84.084342 
L 261.818182 -84.285146 
L 257.142857 -84.381067 
L 252.467532 -84.44007 
L 247.792208 -84.505512 
L 243.116883 -84.456067 
L 238.441558 -84.359801 
L 233.766234 -84.253112 
L 229.090909 -84.052937 
L 224.415584 -83.98811 
L 219.74026 -83.931272 
L 215.064935 -84.013547 
L 210.38961 -84.267883 
L 205.714286 -84.677425 
L 201.038961 -85.009436 
L 196.363636 -85.241534 
L 191.688312 -85.357739 
L 187.012987 -85.585618 
L 182.337662 -85.902173 
L 177.662338 -86.107057 
L 172.987013 -86.292223 
L 168.311688 -86.657291 
L 163.636364 -86.89657 
L 158.961039 -87.051039 
L 154.285714 -87.12134 
L 149.61039 -87.276738 
L 144.935065 -87.422401 
L 140.25974 -87.517747 
L 135.584416 -87.487925 
L 130.909091 -87.501666 
L 126.233766 -87.567205 
L 121.558442 -87.774639 
L 116.883117 -87.950649 
L 112.207792 -88.260889 
L 107.532468 -88.471636 
L 102.857143 -88.556308 
L 98.181818 -88.293416 
L 93.506494 -88.136871 
L 88.831169 -87.950561 
L 84.155844 -87.738398 
L 79.480519 -87.487703 
L 74.805195 -87.181819 
L 70.12987 -87.032351 
L 65.454545 -87.011273 
z
" style="stroke: #ffa500; stroke-opacity: 0.4"/>
    </defs>
    <g clip-path="url(#pc209cf9e9f)">
     <use xlink:href="#m01aa548093" x="0" y="432" style="fill: #ffa500; fill-opacity: 0.4; stroke: #ffa500; stroke-opacity: 0.4"/>
    </g>
   </g>
   <g id="matplotlib.axis_1">
    <g id="xtick_1">
     <g id="line2d_1">
      <defs>
       <path id="m7efb4cb2d6" d="M 0 0 
L 0 3.5 
" style="stroke: #000000; stroke-width: 0.8"/>
      </defs>
      <g>
       <use xlink:href="#m7efb4cb2d6" x="65.454545" y="392.8" style="stroke: #000000; stroke-width: 0.8"/>
      </g>
     </g>
     <g id="text_1">
      <!-- 0 -->
      <g transform="translate(62.273295 407.398438) scale(0.1 -0.1)">
       <defs>
        <path id="DejaVuSans-30" d="M 2034 4250 
Q 1547 4250 1301 3770 
Q 1056 3291 1056 2328 
Q 1056 1369 1301 889 
Q 1547 409 2034 409 
Q 2525 409 2770 889 
Q 3016 1369 3016 2328 
Q 3016 3291 2770 3770 
Q 2525 4250 2034 4250 
z
M 2034 4750 
Q 2819 4750 3233 4129 
Q 3647 3509 3647 2328 
Q 3647 1150 3233 529 
Q 2819 -91 2034 -91 
Q 1250 -91 836 529 
Q 422 1150 422 2328 
Q 422 3509 836 4129 
Q 1250 4750 2034 4750 
z
" transform="scale(0.015625)"/>
       </defs>
       <use xlink:href="#DejaVuSans-30"/>
      </g>
     </g>
    </g>
    <g id="xtick_2">
     <g id="line2d_2">
      <g>
       <use xlink:href="#m7efb4cb2d6" x="111.272727" y="392.8" style="stroke: #000000; stroke-width: 0.8"/>
      </g>
     </g>
     <g id="text_2">
      <!-- 1 -->
      <g transform="translate(108.091477 407.398438) scale(0.1 -0.1)">
       <defs>
        <path id="DejaVuSans-31" d="M 794 531 
L 1825 531 
L 1825 4091 
L 703 3866 
L 703 4441 
L 1819 4666 
L 2450 4666 
L 2450 531 
L 3481 531 
L 3481 0 
L 794 0 
L 794 531 
z
" transform="scale(0.015625)"/>
       </defs>
       <use xlink:href="#DejaVuSans-31"/>
      </g>
     </g>
    </g>
    <g id="xtick_3">
     <g id="line2d_3">
      <g>
       <use xlink:href="#m7efb4cb2d6" x="157.090909" y="392.8" style="stroke: #000000; stroke-width: 0.8"/>
      </g>
     </g>
     <g id="text_3">
      <!-- 2 -->
      <g transform="translate(153.909659 407.398438) scale(0.1 -0.1)">
       <defs>
        <path id="DejaVuSans-32" d="M 1228 531 
L 3431 531 
L 3431 0 
L 469 0 
L 469 531 
Q 828 903 1448 1529 
Q 2069 2156 2228 2338 
Q 2531 2678 2651 2914 
Q 2772 3150 2772 3378 
Q 2772 3750 2511 3984 
Q 2250 4219 1831 4219 
Q 1534 4219 1204 4116 
Q 875 4013 500 3803 
L 500 4441 
Q 881 4594 1212 4672 
Q 1544 4750 1819 4750 
Q 2544 4750 2975 4387 
Q 3406 4025 3406 3419 
Q 3406 3131 3298 2873 
Q 3191 2616 2906 2266 
Q 2828 2175 2409 1742 
Q 1991 1309 1228 531 
z
" transform="scale(0.015625)"/>
       </defs>
       <use xlink:href="#DejaVuSans-32"/>
      </g>
     </g>
    </g>
    <g id="xtick_4">
     <g id="line2d_4">
      <g>
       <use xlink:href="#m7efb4cb2d6" x="202.909091" y="392.8" style="stroke: #000000; stroke-width: 0.8"/>
      </g>
     </g>
     <g id="text_4">
      <!-- 3 -->
      <g transform="translate(199.727841 407.398438) scale(0.1 -0.1)">
       <defs>
        <path id="DejaVuSans-33" d="M 2597 2516 
Q 3050 2419 3304 2112 
Q 3559 1806 3559 1356 
Q 3559 666 3084 287 
Q 2609 -91 1734 -91 
Q 1441 -91 1130 -33 
Q 819 25 488 141 
L 488 750 
Q 750 597 1062 519 
Q 1375 441 1716 441 
Q 2309 441 2620 675 
Q 2931 909 2931 1356 
Q 2931 1769 2642 2001 
Q 2353 2234 1838 2234 
L 1294 2234 
L 1294 2753 
L 1863 2753 
Q 2328 2753 2575 2939 
Q 2822 3125 2822 3475 
Q 2822 3834 2567 4026 
Q 2313 4219 1838 4219 
Q 1578 4219 1281 4162 
Q 984 4106 628 3988 
L 628 4550 
Q 988 4650 1302 4700 
Q 1616 4750 1894 4750 
Q 2613 4750 3031 4423 
Q 3450 4097 3450 3541 
Q 3450 3153 3228 2886 
Q 3006 2619 2597 2516 
z
" transform="scale(0.015625)"/>
       </defs>
       <use xlink:href="#DejaVuSans-33"/>
      </g>
     </g>
    </g>
    <g id="xtick_5">
     <g id="line2d_5">
      <g>
       <use xlink:href="#m7efb4cb2d6" x="248.727273" y="392.8" style="stroke: #000000; stroke-width: 0.8"/>
      </g>
     </g>
     <g id="text_5">
      <!-- 4 -->
      <g transform="translate(245.546023 407.398438) scale(0.1 -0.1)">
       <defs>
        <path id="DejaVuSans-34" d="M 2419 4116 
L 825 1625 
L 2419 1625 
L 2419 4116 
z
M 2253 4666 
L 3047 4666 
L 3047 1625 
L 3713 1625 
L 3713 1100 
L 3047 1100 
L 3047 0 
L 2419 0 
L 2419 1100 
L 313 1100 
L 313 1709 
L 2253 4666 
z
" transform="scale(0.015625)"/>
       </defs>
       <use xlink:href="#DejaVuSans-34"/>
      </g>
     </g>
    </g>
    <g id="xtick_6">
     <g id="line2d_6">
      <g>
       <use xlink:href="#m7efb4cb2d6" x="294.545455" y="392.8" style="stroke: #000000; stroke-width: 0.8"/>
      </g>
     </g>
     <g id="text_6">
      <!-- 5 -->
      <g transform="translate(291.364205 407.398438) scale(0.1 -0.1)">
       <defs>
        <path id="DejaVuSans-35" d="M 691 4666 
L 3169 4666 
L 3169 4134 
L 1269 4134 
L 1269 2991 
Q 1406 3038 1543 3061 
Q 1681 3084 1819 3084 
Q 2600 3084 3056 2656 
Q 3513 2228 3513 1497 
Q 3513 744 3044 326 
Q 2575 -91 1722 -91 
Q 1428 -91 1123 -41 
Q 819 9 494 109 
L 494 744 
Q 775 591 1075 516 
Q 1375 441 1709 441 
Q 2250 441 2565 725 
Q 2881 1009 2881 1497 
Q 2881 1984 2565 2268 
Q 2250 2553 1709 2553 
Q 1456 2553 1204 2497 
Q 953 2441 691 2322 
L 691 4666 
z
" transform="scale(0.015625)"/>
       </defs>
       <use xlink:href="#DejaVuSans-35"/>
      </g>
     </g>
    </g>
    <g id="text_7">
     <!-- relative distance from ROI center ($\sigma$) -->
     <g transform="translate(106.48 419.556875) scale(0.08 -0.08)">
      <defs>
       <path id="DejaVuSans-72" d="M 2631 2963 
Q 2534 3019 2420 3045 
Q 2306 3072 2169 3072 
Q 1681 3072 1420 2755 
Q 1159 2438 1159 1844 
L 1159 0 
L 581 0 
L 581 3500 
L 1159 3500 
L 1159 2956 
Q 1341 3275 1631 3429 
Q 1922 3584 2338 3584 
Q 2397 3584 2469 3576 
Q 2541 3569 2628 3553 
L 2631 2963 
z
" transform="scale(0.015625)"/>
       <path id="DejaVuSans-65" d="M 3597 1894 
L 3597 1613 
L 953 1613 
Q 991 1019 1311 708 
Q 1631 397 2203 397 
Q 2534 397 2845 478 
Q 3156 559 3463 722 
L 3463 178 
Q 3153 47 2828 -22 
Q 2503 -91 2169 -91 
Q 1331 -91 842 396 
Q 353 884 353 1716 
Q 353 2575 817 3079 
Q 1281 3584 2069 3584 
Q 2775 3584 3186 3129 
Q 3597 2675 3597 1894 
z
M 3022 2063 
Q 3016 2534 2758 2815 
Q 2500 3097 2075 3097 
Q 1594 3097 1305 2825 
Q 1016 2553 972 2059 
L 3022 2063 
z
" transform="scale(0.015625)"/>
       <path id="DejaVuSans-6c" d="M 603 4863 
L 1178 4863 
L 1178 0 
L 603 0 
L 603 4863 
z
" transform="scale(0.015625)"/>
       <path id="DejaVuSans-61" d="M 2194 1759 
Q 1497 1759 1228 1600 
Q 959 1441 959 1056 
Q 959 750 1161 570 
Q 1363 391 1709 391 
Q 2188 391 2477 730 
Q 2766 1069 2766 1631 
L 2766 1759 
L 2194 1759 
z
M 3341 1997 
L 3341 0 
L 2766 0 
L 2766 531 
Q 2569 213 2275 61 
Q 1981 -91 1556 -91 
Q 1019 -91 701 211 
Q 384 513 384 1019 
Q 384 1609 779 1909 
Q 1175 2209 1959 2209 
L 2766 2209 
L 2766 2266 
Q 2766 2663 2505 2880 
Q 2244 3097 1772 3097 
Q 1472 3097 1187 3025 
Q 903 2953 641 2809 
L 641 3341 
Q 956 3463 1253 3523 
Q 1550 3584 1831 3584 
Q 2591 3584 2966 3190 
Q 3341 2797 3341 1997 
z
" transform="scale(0.015625)"/>
       <path id="DejaVuSans-74" d="M 1172 4494 
L 1172 3500 
L 2356 3500 
L 2356 3053 
L 1172 3053 
L 1172 1153 
Q 1172 725 1289 603 
Q 1406 481 1766 481 
L 2356 481 
L 2356 0 
L 1766 0 
Q 1100 0 847 248 
Q 594 497 594 1153 
L 594 3053 
L 172 3053 
L 172 3500 
L 594 3500 
L 594 4494 
L 1172 4494 
z
" transform="scale(0.015625)"/>
       <path id="DejaVuSans-69" d="M 603 3500 
L 1178 3500 
L 1178 0 
L 603 0 
L 603 3500 
z
M 603 4863 
L 1178 4863 
L 1178 4134 
L 603 4134 
L 603 4863 
z
" transform="scale(0.015625)"/>
       <path id="DejaVuSans-76" d="M 191 3500 
L 800 3500 
L 1894 563 
L 2988 3500 
L 3597 3500 
L 2284 0 
L 1503 0 
L 191 3500 
z
" transform="scale(0.015625)"/>
       <path id="DejaVuSans-20" transform="scale(0.015625)"/>
       <path id="DejaVuSans-64" d="M 2906 2969 
L 2906 4863 
L 3481 4863 
L 3481 0 
L 2906 0 
L 2906 525 
Q 2725 213 2448 61 
Q 2172 -91 1784 -91 
Q 1150 -91 751 415 
Q 353 922 353 1747 
Q 353 2572 751 3078 
Q 1150 3584 1784 3584 
Q 2172 3584 2448 3432 
Q 2725 3281 2906 2969 
z
M 947 1747 
Q 947 1113 1208 752 
Q 1469 391 1925 391 
Q 2381 391 2643 752 
Q 2906 1113 2906 1747 
Q 2906 2381 2643 2742 
Q 2381 3103 1925 3103 
Q 1469 3103 1208 2742 
Q 947 2381 947 1747 
z
" transform="scale(0.015625)"/>
       <path id="DejaVuSans-73" d="M 2834 3397 
L 2834 2853 
Q 2591 2978 2328 3040 
Q 2066 3103 1784 3103 
Q 1356 3103 1142 2972 
Q 928 2841 928 2578 
Q 928 2378 1081 2264 
Q 1234 2150 1697 2047 
L 1894 2003 
Q 2506 1872 2764 1633 
Q 3022 1394 3022 966 
Q 3022 478 2636 193 
Q 2250 -91 1575 -91 
Q 1294 -91 989 -36 
Q 684 19 347 128 
L 347 722 
Q 666 556 975 473 
Q 1284 391 1588 391 
Q 1994 391 2212 530 
Q 2431 669 2431 922 
Q 2431 1156 2273 1281 
Q 2116 1406 1581 1522 
L 1381 1569 
Q 847 1681 609 1914 
Q 372 2147 372 2553 
Q 372 3047 722 3315 
Q 1072 3584 1716 3584 
Q 2034 3584 2315 3537 
Q 2597 3491 2834 3397 
z
" transform="scale(0.015625)"/>
       <path id="DejaVuSans-6e" d="M 3513 2113 
L 3513 0 
L 2938 0 
L 2938 2094 
Q 2938 2591 2744 2837 
Q 2550 3084 2163 3084 
Q 1697 3084 1428 2787 
Q 1159 2491 1159 1978 
L 1159 0 
L 581 0 
L 581 3500 
L 1159 3500 
L 1159 2956 
Q 1366 3272 1645 3428 
Q 1925 3584 2291 3584 
Q 2894 3584 3203 3211 
Q 3513 2838 3513 2113 
z
" transform="scale(0.015625)"/>
       <path id="DejaVuSans-63" d="M 3122 3366 
L 3122 2828 
Q 2878 2963 2633 3030 
Q 2388 3097 2138 3097 
Q 1578 3097 1268 2742 
Q 959 2388 959 1747 
Q 959 1106 1268 751 
Q 1578 397 2138 397 
Q 2388 397 2633 464 
Q 2878 531 3122 666 
L 3122 134 
Q 2881 22 2623 -34 
Q 2366 -91 2075 -91 
Q 1284 -91 818 406 
Q 353 903 353 1747 
Q 353 2603 823 3093 
Q 1294 3584 2113 3584 
Q 2378 3584 2631 3529 
Q 2884 3475 3122 3366 
z
" transform="scale(0.015625)"/>
       <path id="DejaVuSans-66" d="M 2375 4863 
L 2375 4384 
L 1825 4384 
Q 1516 4384 1395 4259 
Q 1275 4134 1275 3809 
L 1275 3500 
L 2222 3500 
L 2222 3053 
L 1275 3053 
L 1275 0 
L 697 0 
L 697 3053 
L 147 3053 
L 147 3500 
L 697 3500 
L 697 3744 
Q 697 4328 969 4595 
Q 1241 4863 1831 4863 
L 2375 4863 
z
" transform="scale(0.015625)"/>
       <path id="DejaVuSans-6f" d="M 1959 3097 
Q 1497 3097 1228 2736 
Q 959 2375 959 1747 
Q 959 1119 1226 758 
Q 1494 397 1959 397 
Q 2419 397 2687 759 
Q 2956 1122 2956 1747 
Q 2956 2369 2687 2733 
Q 2419 3097 1959 3097 
z
M 1959 3584 
Q 2709 3584 3137 3096 
Q 3566 2609 3566 1747 
Q 3566 888 3137 398 
Q 2709 -91 1959 -91 
Q 1206 -91 779 398 
Q 353 888 353 1747 
Q 353 2609 779 3096 
Q 1206 3584 1959 3584 
z
" transform="scale(0.015625)"/>
       <path id="DejaVuSans-6d" d="M 3328 2828 
Q 3544 3216 3844 3400 
Q 4144 3584 4550 3584 
Q 5097 3584 5394 3201 
Q 5691 2819 5691 2113 
L 5691 0 
L 5113 0 
L 5113 2094 
Q 5113 2597 4934 2840 
Q 4756 3084 4391 3084 
Q 3944 3084 3684 2787 
Q 3425 2491 3425 1978 
L 3425 0 
L 2847 0 
L 2847 2094 
Q 2847 2600 2669 2842 
Q 2491 3084 2119 3084 
Q 1678 3084 1418 2786 
Q 1159 2488 1159 1978 
L 1159 0 
L 581 0 
L 581 3500 
L 1159 3500 
L 1159 2956 
Q 1356 3278 1631 3431 
Q 1906 3584 2284 3584 
Q 2666 3584 2933 3390 
Q 3200 3197 3328 2828 
z
" transform="scale(0.015625)"/>
       <path id="DejaVuSans-52" d="M 2841 2188 
Q 3044 2119 3236 1894 
Q 3428 1669 3622 1275 
L 4263 0 
L 3584 0 
L 2988 1197 
Q 2756 1666 2539 1819 
Q 2322 1972 1947 1972 
L 1259 1972 
L 1259 0 
L 628 0 
L 628 4666 
L 2053 4666 
Q 2853 4666 3247 4331 
Q 3641 3997 3641 3322 
Q 3641 2881 3436 2590 
Q 3231 2300 2841 2188 
z
M 1259 4147 
L 1259 2491 
L 2053 2491 
Q 2509 2491 2742 2702 
Q 2975 2913 2975 3322 
Q 2975 3731 2742 3939 
Q 2509 4147 2053 4147 
L 1259 4147 
z
" transform="scale(0.015625)"/>
       <path id="DejaVuSans-4f" d="M 2522 4238 
Q 1834 4238 1429 3725 
Q 1025 3213 1025 2328 
Q 1025 1447 1429 934 
Q 1834 422 2522 422 
Q 3209 422 3611 934 
Q 4013 1447 4013 2328 
Q 4013 3213 3611 3725 
Q 3209 4238 2522 4238 
z
M 2522 4750 
Q 3503 4750 4090 4092 
Q 4678 3434 4678 2328 
Q 4678 1225 4090 567 
Q 3503 -91 2522 -91 
Q 1538 -91 948 565 
Q 359 1222 359 2328 
Q 359 3434 948 4092 
Q 1538 4750 2522 4750 
z
" transform="scale(0.015625)"/>
       <path id="DejaVuSans-49" d="M 628 4666 
L 1259 4666 
L 1259 0 
L 628 0 
L 628 4666 
z
" transform="scale(0.015625)"/>
       <path id="DejaVuSans-28" d="M 1984 4856 
Q 1566 4138 1362 3434 
Q 1159 2731 1159 2009 
Q 1159 1288 1364 580 
Q 1569 -128 1984 -844 
L 1484 -844 
Q 1016 -109 783 600 
Q 550 1309 550 2009 
Q 550 2706 781 3412 
Q 1013 4119 1484 4856 
L 1984 4856 
z
" transform="scale(0.015625)"/>
       <path id="DejaVuSans-Oblique-3c3" d="M 2219 3044 
Q 1744 3044 1422 2700 
Q 1081 2341 969 1747 
Q 844 1119 1044 756 
Q 1241 397 1706 397 
Q 2166 397 2503 759 
Q 2844 1122 2966 1747 
Q 3075 2319 2881 2700 
Q 2700 3044 2219 3044 
z
M 2309 3503 
L 4219 3500 
L 4106 2925 
L 3463 2925 
Q 3706 2438 3575 1747 
Q 3406 888 2884 400 
Q 2359 -91 1609 -91 
Q 856 -91 525 400 
Q 194 888 363 1747 
Q 528 2609 1050 3097 
Q 1484 3503 2309 3503 
z
" transform="scale(0.015625)"/>
       <path id="DejaVuSans-29" d="M 513 4856 
L 1013 4856 
Q 1481 4119 1714 3412 
Q 1947 2706 1947 2009 
Q 1947 1309 1714 600 
Q 1481 -109 1013 -844 
L 513 -844 
Q 928 -128 1133 580 
Q 1338 1288 1338 2009 
Q 1338 2731 1133 3434 
Q 928 4138 513 4856 
z
" transform="scale(0.015625)"/>
      </defs>
      <use xlink:href="#DejaVuSans-72" transform="translate(0 0.015625)"/>
      <use xlink:href="#DejaVuSans-65" transform="translate(41.113281 0.015625)"/>
      <use xlink:href="#DejaVuSans-6c" transform="translate(102.636719 0.015625)"/>
      <use xlink:href="#DejaVuSans-61" transform="translate(130.419922 0.015625)"/>
      <use xlink:href="#DejaVuSans-74" transform="translate(191.699219 0.015625)"/>
      <use xlink:href="#DejaVuSans-69" transform="translate(230.908203 0.015625)"/>
      <use xlink:href="#DejaVuSans-76" transform="translate(258.691406 0.015625)"/>
      <use xlink:href="#DejaVuSans-65" transform="translate(317.871094 0.015625)"/>
      <use xlink:href="#DejaVuSans-20" transform="translate(379.394531 0.015625)"/>
      <use xlink:href="#DejaVuSans-64" transform="translate(411.181641 0.015625)"/>
      <use xlink:href="#DejaVuSans-69" transform="translate(474.658203 0.015625)"/>
      <use xlink:href="#DejaVuSans-73" transform="translate(502.441406 0.015625)"/>
      <use xlink:href="#DejaVuSans-74" transform="translate(554.541016 0.015625)"/>
      <use xlink:href="#DejaVuSans-61" transform="translate(593.75 0.015625)"/>
      <use xlink:href="#DejaVuSans-6e" transform="translate(655.029297 0.015625)"/>
      <use xlink:href="#DejaVuSans-63" transform="translate(718.408203 0.015625)"/>
      <use xlink:href="#DejaVuSans-65" transform="translate(773.388672 0.015625)"/>
      <use xlink:href="#DejaVuSans-20" transform="translate(834.912109 0.015625)"/>
      <use xlink:href="#DejaVuSans-66" transform="translate(866.699219 0.015625)"/>
      <use xlink:href="#DejaVuSans-72" transform="translate(901.904297 0.015625)"/>
      <use xlink:href="#DejaVuSans-6f" transform="translate(943.017578 0.015625)"/>
      <use xlink:href="#DejaVuSans-6d" transform="translate(1004.199219 0.015625)"/>
      <use xlink:href="#DejaVuSans-20" transform="translate(1101.611328 0.015625)"/>
      <use xlink:href="#DejaVuSans-52" transform="translate(1133.398438 0.015625)"/>
      <use xlink:href="#DejaVuSans-4f" transform="translate(1202.880859 0.015625)"/>
      <use xlink:href="#DejaVuSans-49" transform="translate(1281.591797 0.015625)"/>
      <use xlink:href="#DejaVuSans-20" transform="translate(1311.083984 0.015625)"/>
      <use xlink:href="#DejaVuSans-63" transform="translate(1342.871094 0.015625)"/>
      <use xlink:href="#DejaVuSans-65" transform="translate(1397.851562 0.015625)"/>
      <use xlink:href="#DejaVuSans-6e" transform="translate(1459.375 0.015625)"/>
      <use xlink:href="#DejaVuSans-74" transform="translate(1522.753906 0.015625)"/>
      <use xlink:href="#DejaVuSans-65" transform="translate(1561.962891 0.015625)"/>
      <use xlink:href="#DejaVuSans-72" transform="translate(1623.486328 0.015625)"/>
      <use xlink:href="#DejaVuSans-20" transform="translate(1664.599609 0.015625)"/>
      <use xlink:href="#DejaVuSans-28" transform="translate(1696.386719 0.015625)"/>
      <use xlink:href="#DejaVuSans-Oblique-3c3" transform="translate(1735.400391 0.015625)"/>
      <use xlink:href="#DejaVuSans-29" transform="translate(1798.779297 0.015625)"/>
     </g>
    </g>
   </g>
   <g id="matplotlib.axis_2">
    <g id="ytick_1">
     <g id="line2d_7">
      <defs>
       <path id="mdabb6c9770" d="M 0 0 
L -3.5 0 
" style="stroke: #000000; stroke-width: 0.8"/>
      </defs>
      <g>
       <use xlink:href="#mdabb6c9770" x="50" y="376.457143" style="stroke: #000000; stroke-width: 0.8"/>
      </g>
     </g>
     <g id="text_8">
      <!-- −5 -->
      <g transform="translate(28.257812 380.256362) scale(0.1 -0.1)">
       <defs>
        <path id="DejaVuSans-2212" d="M 678 2272 
L 4684 2272 
L 4684 1741 
L 678 1741 
L 678 2272 
z
" transform="scale(0.015625)"/>
       </defs>
       <use xlink:href="#DejaVuSans-2212"/>
       <use xlink:href="#DejaVuSans-35" x="83.789062"/>
      </g>
     </g>
    </g>
    <g id="ytick_2">
     <g id="line2d_8">
      <g>
       <use xlink:href="#mdabb6c9770" x="50" y="345.6" style="stroke: #000000; stroke-width: 0.8"/>
      </g>
     </g>
     <g id="text_9">
      <!-- 0 -->
      <g transform="translate(36.6375 349.399219) scale(0.1 -0.1)">
       <use xlink:href="#DejaVuSans-30"/>
      </g>
     </g>
    </g>
    <g id="ytick_3">
     <g id="line2d_9">
      <g>
       <use xlink:href="#mdabb6c9770" x="50" y="314.742857" style="stroke: #000000; stroke-width: 0.8"/>
      </g>
     </g>
     <g id="text_10">
      <!-- 5 -->
      <g transform="translate(36.6375 318.542076) scale(0.1 -0.1)">
       <use xlink:href="#DejaVuSans-35"/>
      </g>
     </g>
    </g>
    <g id="text_11">
     <!-- BOLD % change -->
     <g transform="translate(22.594062 377.79625) rotate(-90) scale(0.08 -0.08)">
      <defs>
       <path id="DejaVuSans-42" d="M 1259 2228 
L 1259 519 
L 2272 519 
Q 2781 519 3026 730 
Q 3272 941 3272 1375 
Q 3272 1813 3026 2020 
Q 2781 2228 2272 2228 
L 1259 2228 
z
M 1259 4147 
L 1259 2741 
L 2194 2741 
Q 2656 2741 2882 2914 
Q 3109 3088 3109 3444 
Q 3109 3797 2882 3972 
Q 2656 4147 2194 4147 
L 1259 4147 
z
M 628 4666 
L 2241 4666 
Q 2963 4666 3353 4366 
Q 3744 4066 3744 3513 
Q 3744 3084 3544 2831 
Q 3344 2578 2956 2516 
Q 3422 2416 3680 2098 
Q 3938 1781 3938 1306 
Q 3938 681 3513 340 
Q 3088 0 2303 0 
L 628 0 
L 628 4666 
z
" transform="scale(0.015625)"/>
       <path id="DejaVuSans-4c" d="M 628 4666 
L 1259 4666 
L 1259 531 
L 3531 531 
L 3531 0 
L 628 0 
L 628 4666 
z
" transform="scale(0.015625)"/>
       <path id="DejaVuSans-44" d="M 1259 4147 
L 1259 519 
L 2022 519 
Q 2988 519 3436 956 
Q 3884 1394 3884 2338 
Q 3884 3275 3436 3711 
Q 2988 4147 2022 4147 
L 1259 4147 
z
M 628 4666 
L 1925 4666 
Q 3281 4666 3915 4102 
Q 4550 3538 4550 2338 
Q 4550 1131 3912 565 
Q 3275 0 1925 0 
L 628 0 
L 628 4666 
z
" transform="scale(0.015625)"/>
       <path id="DejaVuSans-25" d="M 4653 2053 
Q 4381 2053 4226 1822 
Q 4072 1591 4072 1178 
Q 4072 772 4226 539 
Q 4381 306 4653 306 
Q 4919 306 5073 539 
Q 5228 772 5228 1178 
Q 5228 1588 5073 1820 
Q 4919 2053 4653 2053 
z
M 4653 2450 
Q 5147 2450 5437 2106 
Q 5728 1763 5728 1178 
Q 5728 594 5436 251 
Q 5144 -91 4653 -91 
Q 4153 -91 3862 251 
Q 3572 594 3572 1178 
Q 3572 1766 3864 2108 
Q 4156 2450 4653 2450 
z
M 1428 4353 
Q 1159 4353 1004 4120 
Q 850 3888 850 3481 
Q 850 3069 1003 2837 
Q 1156 2606 1428 2606 
Q 1700 2606 1854 2837 
Q 2009 3069 2009 3481 
Q 2009 3884 1853 4118 
Q 1697 4353 1428 4353 
z
M 4250 4750 
L 4750 4750 
L 1831 -91 
L 1331 -91 
L 4250 4750 
z
M 1428 4750 
Q 1922 4750 2215 4408 
Q 2509 4066 2509 3481 
Q 2509 2891 2217 2550 
Q 1925 2209 1428 2209 
Q 931 2209 642 2551 
Q 353 2894 353 3481 
Q 353 4063 643 4406 
Q 934 4750 1428 4750 
z
" transform="scale(0.015625)"/>
       <path id="DejaVuSans-68" d="M 3513 2113 
L 3513 0 
L 2938 0 
L 2938 2094 
Q 2938 2591 2744 2837 
Q 2550 3084 2163 3084 
Q 1697 3084 1428 2787 
Q 1159 2491 1159 1978 
L 1159 0 
L 581 0 
L 581 4863 
L 1159 4863 
L 1159 2956 
Q 1366 3272 1645 3428 
Q 1925 3584 2291 3584 
Q 2894 3584 3203 3211 
Q 3513 2838 3513 2113 
z
" transform="scale(0.015625)"/>
       <path id="DejaVuSans-67" d="M 2906 1791 
Q 2906 2416 2648 2759 
Q 2391 3103 1925 3103 
Q 1463 3103 1205 2759 
Q 947 2416 947 1791 
Q 947 1169 1205 825 
Q 1463 481 1925 481 
Q 2391 481 2648 825 
Q 2906 1169 2906 1791 
z
M 3481 434 
Q 3481 -459 3084 -895 
Q 2688 -1331 1869 -1331 
Q 1566 -1331 1297 -1286 
Q 1028 -1241 775 -1147 
L 775 -588 
Q 1028 -725 1275 -790 
Q 1522 -856 1778 -856 
Q 2344 -856 2625 -561 
Q 2906 -266 2906 331 
L 2906 616 
Q 2728 306 2450 153 
Q 2172 0 1784 0 
Q 1141 0 747 490 
Q 353 981 353 1791 
Q 353 2603 747 3093 
Q 1141 3584 1784 3584 
Q 2172 3584 2450 3431 
Q 2728 3278 2906 2969 
L 2906 3500 
L 3481 3500 
L 3481 434 
z
" transform="scale(0.015625)"/>
      </defs>
      <use xlink:href="#DejaVuSans-42"/>
      <use xlink:href="#DejaVuSans-4f" x="66.853516"/>
      <use xlink:href="#DejaVuSans-4c" x="145.564453"/>
      <use xlink:href="#DejaVuSans-44" x="201.277344"/>
      <use xlink:href="#DejaVuSans-20" x="278.279297"/>
      <use xlink:href="#DejaVuSans-25" x="310.066406"/>
      <use xlink:href="#DejaVuSans-20" x="405.085938"/>
      <use xlink:href="#DejaVuSans-63" x="436.873047"/>
      <use xlink:href="#DejaVuSans-68" x="491.853516"/>
      <use xlink:href="#DejaVuSans-61" x="555.232422"/>
      <use xlink:href="#DejaVuSans-6e" x="616.511719"/>
      <use xlink:href="#DejaVuSans-67" x="679.890625"/>
      <use xlink:href="#DejaVuSans-65" x="743.367188"/>
     </g>
    </g>
   </g>
   <g id="line2d_10">
    <path d="M 65.454545 346.322803 
L 70.12987 346.296037 
L 74.805195 346.128318 
L 79.480519 345.798394 
L 84.155844 345.481463 
L 88.831169 345.102264 
L 93.506494 344.78915 
L 98.181818 344.556989 
L 102.857143 344.264479 
L 107.532468 344.325314 
L 112.207792 344.525638 
L 116.883117 344.801275 
L 121.558442 344.947847 
L 126.233766 345.087058 
L 130.909091 345.106361 
L 135.584416 345.078187 
L 140.25974 345.002554 
L 144.935065 345.105887 
L 149.61039 345.284885 
L 154.285714 345.521198 
L 158.961039 345.658873 
L 163.636364 345.816086 
L 168.311688 346.051403 
L 172.987013 346.419981 
L 177.662338 346.622855 
L 182.337662 346.833219 
L 187.012987 347.11892 
L 191.688312 347.338333 
L 196.363636 347.451514 
L 201.038961 347.658679 
L 205.714286 347.989835 
L 210.38961 348.381201 
L 215.064935 348.634611 
L 219.74026 348.738871 
L 224.415584 348.716423 
L 229.090909 348.730553 
L 233.766234 348.617721 
L 238.441558 348.586668 
L 243.116883 348.571943 
L 247.792208 348.553859 
L 252.467532 348.657265 
L 257.142857 348.763465 
L 261.818182 348.917392 
L 266.493506 349.135981 
L 271.168831 349.311594 
L 275.844156 349.495113 
L 280.519481 349.65996 
L 285.194805 349.643217 
L 289.87013 349.631848 
L 294.545455 349.740159 
" clip-path="url(#pc209cf9e9f)" style="fill: none; stroke: #ffa500; stroke-width: 1.5; stroke-linecap: square"/>
   </g>
   <g id="line2d_11">
    <path d="M 65.454545 347.520909 
L 70.12987 347.354545 
L 74.805195 347.530104 
L 79.480519 347.567844 
L 84.155844 347.658997 
L 88.831169 347.683673 
L 93.506494 347.927996 
L 98.181818 348.3708 
L 102.857143 348.775456 
L 107.532468 348.70357 
L 112.207792 348.310753 
L 116.883117 348.293367 
L 121.558442 347.724725 
L 126.233766 346.930043 
L 130.909091 346.575235 
L 135.584416 347.049277 
L 140.25974 347.244032 
L 144.935065 347.304635 
L 149.61039 347.095753 
L 154.285714 347.103658 
L 158.961039 346.805435 
L 163.636364 346.178593 
L 168.311688 345.775909 
L 172.987013 345.738201 
L 177.662338 345.749188 
L 182.337662 345.80389 
L 187.012987 346.296937 
L 191.688312 347.006576 
L 196.363636 347.155271 
L 201.038961 347.13132 
L 205.714286 347.21358 
L 210.38961 347.238967 
L 215.064935 347.333399 
L 219.74026 347.282695 
L 224.415584 347.55011 
L 229.090909 347.781099 
L 233.766234 348.034972 
L 238.441558 348.533298 
L 243.116883 348.846409 
L 247.792208 348.651354 
L 252.467532 348.04332 
L 257.142857 347.270661 
L 261.818182 346.919267 
L 266.493506 347.427181 
L 271.168831 348.046457 
L 275.844156 348.575728 
L 280.519481 349.851333 
L 285.194805 350.273932 
L 289.87013 350.176818 
L 294.545455 349.416913 
" clip-path="url(#pc209cf9e9f)" style="fill: none; stroke: #ffa500; stroke-opacity: 0.2; stroke-width: 1.5; stroke-linecap: square"/>
   </g>
   <g id="line2d_12">
    <path d="M 65.454545 349.604588 
L 70.12987 349.604588 
L 74.805195 348.82621 
L 79.480519 347.783577 
L 84.155844 347.446541 
L 88.831169 347.101317 
L 93.506494 347.073773 
L 98.181818 347.069741 
L 102.857143 347.106006 
L 107.532468 347.634247 
L 112.207792 347.782647 
L 116.883117 347.764278 
L 121.558442 347.531453 
L 126.233766 347.103059 
L 130.909091 346.62591 
L 135.584416 345.846271 
L 140.25974 345.211852 
L 144.935065 345.070037 
L 149.61039 345.151458 
L 154.285714 345.754612 
L 158.961039 346.280559 
L 163.636364 346.793891 
L 168.311688 347.078938 
L 172.987013 347.228197 
L 177.662338 347.245893 
L 182.337662 347.167589 
L 187.012987 346.869664 
L 191.688312 346.600108 
L 196.363636 346.380199 
L 201.038961 346.532661 
L 205.714286 346.818688 
L 210.38961 346.925242 
L 215.064935 346.866395 
L 219.74026 346.742881 
L 224.415584 346.655729 
L 229.090909 346.596484 
L 233.766234 346.55978 
L 238.441558 346.512561 
L 243.116883 346.617621 
L 247.792208 346.810468 
L 252.467532 346.695713 
L 257.142857 346.40128 
L 261.818182 346.130267 
L 266.493506 346.203858 
L 271.168831 346.077239 
L 275.844156 345.793181 
L 280.519481 345.57071 
L 285.194805 345.235974 
L 289.87013 345.000001 
L 294.545455 344.706582 
" clip-path="url(#pc209cf9e9f)" style="fill: none; stroke: #ffa500; stroke-opacity: 0.2; stroke-width: 1.5; stroke-linecap: square"/>
   </g>
   <g id="line2d_13">
    <path d="M 65.454545 341.352008 
L 70.12987 341.549337 
L 74.805195 341.988224 
L 79.480519 342.783498 
L 84.155844 343.615769 
L 88.831169 344.064468 
L 93.506494 344.353384 
L 98.181818 344.649947 
L 102.857143 344.554011 
L 107.532468 344.776857 
L 112.207792 344.87571 
L 116.883117 345.310157 
L 121.558442 345.521323 
L 126.233766 345.396639 
L 130.909091 345.138049 
L 135.584416 344.468766 
L 140.25974 343.91613 
L 144.935065 343.63025 
L 149.61039 343.785368 
L 154.285714 344.100913 
L 158.961039 344.543209 
L 163.636364 344.995901 
L 168.311688 345.388956 
L 172.987013 345.781595 
L 177.662338 345.860031 
L 182.337662 345.654562 
L 187.012987 345.519483 
L 191.688312 345.850126 
L 196.363636 346.508352 
L 201.038961 347.030743 
L 205.714286 347.543148 
L 210.38961 347.779838 
L 215.064935 347.782178 
L 219.74026 347.7224 
L 224.415584 347.476093 
L 229.090909 347.26077 
L 233.766234 346.819989 
L 238.441558 346.327792 
L 243.116883 346.036812 
L 247.792208 345.847343 
L 252.467532 345.891927 
L 257.142857 346.568972 
L 261.818182 347.480881 
L 266.493506 348.260802 
L 271.168831 349.109724 
L 275.844156 349.986554 
L 280.519481 349.875761 
L 285.194805 349.100181 
L 289.87013 348.618086 
L 294.545455 348.370375 
" clip-path="url(#pc209cf9e9f)" style="fill: none; stroke: #ffa500; stroke-opacity: 0.2; stroke-width: 1.5; stroke-linecap: square"/>
   </g>
   <g id="line2d_14">
    <path d="M 65.454545 343.764739 
L 70.12987 343.764739 
L 74.805195 343.812369 
L 79.480519 344.152833 
L 84.155844 344.425748 
L 88.831169 344.404306 
L 93.506494 344.19155 
L 98.181818 344.190315 
L 102.857143 344.288539 
L 107.532468 344.736845 
L 112.207792 345.012124 
L 116.883117 345.310808 
L 121.558442 345.637609 
L 126.233766 345.799388 
L 130.909091 345.891304 
L 135.584416 346.097316 
L 140.25974 346.513948 
L 144.935065 347.262555 
L 149.61039 347.849473 
L 154.285714 348.39231 
L 158.961039 348.854265 
L 163.636364 349.205614 
L 168.311688 349.633522 
L 172.987013 350.146021 
L 177.662338 350.533495 
L 182.337662 350.924043 
L 187.012987 351.286694 
L 191.688312 351.839193 
L 196.363636 352.300358 
L 201.038961 352.536718 
L 205.714286 352.69113 
L 210.38961 353.070133 
L 215.064935 353.517376 
L 219.74026 353.844846 
L 224.415584 353.900306 
L 229.090909 353.917756 
L 233.766234 353.791726 
L 238.441558 353.739897 
L 243.116883 353.787303 
L 247.792208 353.928738 
L 252.467532 354.012788 
L 257.142857 354.04321 
L 261.818182 354.031043 
L 266.493506 354.104982 
L 271.168831 354.427514 
L 275.844156 354.549504 
L 280.519481 354.558043 
L 285.194805 354.48345 
L 289.87013 354.372038 
L 294.545455 354.252599 
" clip-path="url(#pc209cf9e9f)" style="fill: none; stroke: #ffa500; stroke-opacity: 0.2; stroke-width: 1.5; stroke-linecap: square"/>
   </g>
   <g id="line2d_15">
    <path d="M 65.454545 341.626142 
L 70.12987 341.582656 
L 74.805195 341.681813 
L 79.480519 341.764713 
L 84.155844 340.848123 
L 88.831169 339.942977 
L 93.506494 339.541887 
L 98.181818 339.818284 
L 102.857143 340.080568 
L 107.532468 340.51951 
L 112.207792 340.382611 
L 116.883117 340.290905 
L 121.558442 340.249692 
L 126.233766 341.160666 
L 130.909091 341.798196 
L 135.584416 342.456617 
L 140.25974 342.495489 
L 144.935065 342.119835 
L 149.61039 341.431541 
L 154.285714 340.398586 
L 158.961039 339.570876 
L 163.636364 339.655087 
L 168.311688 340.267783 
L 172.987013 341.147662 
L 177.662338 341.814463 
L 182.337662 342.87854 
L 187.012987 344.166089 
L 191.688312 344.99101 
L 196.363636 345.782669 
L 201.038961 346.714275 
L 205.714286 347.484461 
L 210.38961 347.975101 
L 215.064935 348.353205 
L 219.74026 348.751039 
L 224.415584 348.836661 
L 229.090909 348.948301 
L 233.766234 348.766443 
L 238.441558 348.276949 
L 243.116883 347.877909 
L 247.792208 347.211791 
L 252.467532 346.905948 
L 257.142857 346.813905 
L 261.818182 347.15545 
L 266.493506 347.077856 
L 271.168831 346.535654 
L 275.844156 346.523559 
L 280.519481 346.877266 
L 285.194805 346.595453 
L 289.87013 346.361615 
L 294.545455 347.183997 
" clip-path="url(#pc209cf9e9f)" style="fill: none; stroke: #ffa500; stroke-opacity: 0.2; stroke-width: 1.5; stroke-linecap: square"/>
   </g>
   <g id="line2d_16">
    <path d="M 65.454545 357.962577 
L 70.12987 357.946158 
L 74.805195 357.919259 
L 79.480519 357.897959 
L 84.155844 356.304593 
L 88.831169 353.340278 
L 93.506494 350.644077 
L 98.181818 348.499334 
L 102.857143 346.735408 
L 107.532468 346.234677 
L 112.207792 348.007937 
L 116.883117 348.519165 
L 121.558442 348.360363 
L 126.233766 348.410377 
L 130.909091 347.584818 
L 135.584416 347.523768 
L 140.25974 346.707701 
L 144.935065 346.147261 
L 149.61039 345.523164 
L 154.285714 345.930732 
L 158.961039 346.170059 
L 163.636364 346.472254 
L 168.311688 346.578408 
L 172.987013 346.135989 
L 177.662338 345.129082 
L 182.337662 344.54759 
L 187.012987 344.783709 
L 191.688312 344.861413 
L 196.363636 344.615315 
L 201.038961 345.306421 
L 205.714286 346.048712 
L 210.38961 347.40129 
L 215.064935 348.429397 
L 219.74026 348.780393 
L 224.415584 348.574455 
L 229.090909 349.146875 
L 233.766234 349.331221 
L 238.441558 349.231712 
L 243.116883 348.896016 
L 247.792208 348.419164 
L 252.467532 347.974754 
L 257.142857 346.972486 
L 261.818182 346.125937 
L 266.493506 346.207104 
L 271.168831 346.867673 
L 275.844156 347.484341 
L 280.519481 348.036806 
L 285.194805 348.711957 
L 289.87013 349.046595 
L 294.545455 349.583613 
" clip-path="url(#pc209cf9e9f)" style="fill: none; stroke: #ffa500; stroke-opacity: 0.2; stroke-width: 1.5; stroke-linecap: square"/>
   </g>
   <g id="line2d_17">
    <path d="M 65.454545 345.939342 
L 70.12987 345.477724 
L 74.805195 344.068542 
L 79.480519 343.512253 
L 84.155844 343.284692 
L 88.831169 342.648668 
L 93.506494 342.926041 
L 98.181818 342.950072 
L 102.857143 343.618529 
L 107.532468 344.222856 
L 112.207792 344.18968 
L 116.883117 343.860641 
L 121.558442 343.935404 
L 126.233766 343.862819 
L 130.909091 343.647674 
L 135.584416 343.934051 
L 140.25974 344.442271 
L 144.935065 345.091856 
L 149.61039 345.801158 
L 154.285714 346.487708 
L 158.961039 346.899788 
L 163.636364 347.470333 
L 168.311688 348.337963 
L 172.987013 349.196735 
L 177.662338 349.912177 
L 182.337662 350.487142 
L 187.012987 350.849316 
L 191.688312 351.0936 
L 196.363636 351.341298 
L 201.038961 351.544241 
L 205.714286 352.104591 
L 210.38961 352.374785 
L 215.064935 352.335313 
L 219.74026 352.358523 
L 224.415584 352.68223 
L 229.090909 353.128326 
L 233.766234 353.576353 
L 238.441558 354.459143 
L 243.116883 355.418956 
L 247.792208 355.836671 
L 252.467532 356.288891 
L 257.142857 356.897647 
L 261.818182 357.452371 
L 266.493506 357.796559 
L 271.168831 358.310818 
L 275.844156 359.214753 
L 280.519481 359.587316 
L 285.194805 359.811124 
L 289.87013 359.935533 
L 294.545455 360.063395 
" clip-path="url(#pc209cf9e9f)" style="fill: none; stroke: #ffa500; stroke-opacity: 0.2; stroke-width: 1.5; stroke-linecap: square"/>
   </g>
   <g id="line2d_18">
    <path d="M 65.454545 343.116101 
L 70.12987 343.160932 
L 74.805195 343.331451 
L 79.480519 343.843947 
L 84.155844 343.945187 
L 88.831169 344.676353 
L 93.506494 344.968023 
L 98.181818 345.068924 
L 102.857143 344.669009 
L 107.532468 344.733725 
L 112.207792 344.651883 
L 116.883117 344.279251 
L 121.558442 344.149561 
L 126.233766 344.945797 
L 130.909091 345.235739 
L 135.584416 345.367464 
L 140.25974 345.4589 
L 144.935065 345.675068 
L 149.61039 345.849585 
L 154.285714 345.936857 
L 158.961039 346.172806 
L 163.636364 346.245802 
L 168.311688 346.204267 
L 172.987013 346.344347 
L 177.662338 346.612784 
L 182.337662 346.619047 
L 187.012987 346.577996 
L 191.688312 346.445952 
L 196.363636 346.494466 
L 201.038961 346.377447 
L 205.714286 346.693245 
L 210.38961 347.061967 
L 215.064935 347.160565 
L 219.74026 347.405159 
L 224.415584 347.739462 
L 229.090909 347.956128 
L 233.766234 348.195785 
L 238.441558 348.279793 
L 243.116883 348.246028 
L 247.792208 348.002057 
L 252.467532 347.864633 
L 257.142857 347.880473 
L 261.818182 347.664144 
L 266.493506 347.280756 
L 271.168831 346.894856 
L 275.844156 346.715879 
L 280.519481 346.441991 
L 285.194805 346.409325 
L 289.87013 346.464204 
L 294.545455 346.513901 
" clip-path="url(#pc209cf9e9f)" style="fill: none; stroke: #ffa500; stroke-opacity: 0.2; stroke-width: 1.5; stroke-linecap: square"/>
   </g>
   <g id="line2d_19">
    <path d="M 65.454545 346.798059 
L 70.12987 346.661116 
L 74.805195 346.560626 
L 79.480519 345.746663 
L 84.155844 345.837866 
L 88.831169 345.720408 
L 93.506494 345.110633 
L 98.181818 344.310122 
L 102.857143 343.369649 
L 107.532468 342.576801 
L 112.207792 342.140662 
L 116.883117 341.849037 
L 121.558442 341.401554 
L 126.233766 341.213112 
L 130.909091 341.067402 
L 135.584416 341.020456 
L 140.25974 341.378111 
L 144.935065 341.913776 
L 149.61039 342.600278 
L 154.285714 343.026228 
L 158.961039 343.242818 
L 163.636364 343.571102 
L 168.311688 343.749571 
L 172.987013 343.958738 
L 177.662338 344.082199 
L 182.337662 344.314553 
L 187.012987 344.642619 
L 191.688312 344.901702 
L 196.363636 345.255341 
L 201.038961 345.559337 
L 205.714286 345.750371 
L 210.38961 345.899419 
L 215.064935 346.32185 
L 219.74026 346.439687 
L 224.415584 346.405316 
L 229.090909 346.277239 
L 233.766234 345.665979 
L 238.441558 345.15429 
L 243.116883 344.565384 
L 247.792208 344.564714 
L 252.467532 344.501775 
L 257.142857 344.5656 
L 261.818182 344.762696 
L 266.493506 344.927669 
L 271.168831 345.245133 
L 275.844156 345.312648 
L 280.519481 345.442906 
L 285.194805 345.285949 
L 289.87013 345.069491 
L 294.545455 345.350195 
" clip-path="url(#pc209cf9e9f)" style="fill: none; stroke: #ffa500; stroke-opacity: 0.2; stroke-width: 1.5; stroke-linecap: square"/>
   </g>
   <g id="line2d_20">
    <path d="M 65.454545 344.631222 
L 70.12987 344.690905 
L 74.805195 344.307727 
L 79.480519 342.715414 
L 84.155844 340.93467 
L 88.831169 340.613665 
L 93.506494 340.13323 
L 98.181818 339.604763 
L 102.857143 338.991106 
L 107.532468 339.330517 
L 112.207792 340.84214 
L 116.883117 343.272841 
L 121.558442 345.037761 
L 126.233766 345.943113 
L 130.909091 347.090903 
L 135.584416 346.435733 
L 140.25974 345.869892 
L 144.935065 346.175523 
L 149.61039 346.89706 
L 154.285714 347.046695 
L 158.961039 346.88645 
L 163.636364 346.298973 
L 168.311688 346.052438 
L 172.987013 346.445327 
L 177.662338 347.163158 
L 182.337662 347.781703 
L 187.012987 348.388012 
L 191.688312 348.610528 
L 196.363636 347.951895 
L 201.038961 347.170598 
L 205.714286 346.808294 
L 210.38961 347.925831 
L 215.064935 348.313981 
L 219.74026 347.794579 
L 224.415584 346.79671 
L 229.090909 345.209158 
L 233.766234 344.017319 
L 238.441558 343.781337 
L 243.116883 343.699515 
L 247.792208 344.03089 
L 252.467532 344.958426 
L 257.142857 345.930481 
L 261.818182 346.362473 
L 266.493506 346.735866 
L 271.168831 346.655107 
L 275.844156 346.100042 
L 280.519481 345.375665 
L 285.194805 345.139227 
L 289.87013 345.70049 
L 294.545455 346.159221 
" clip-path="url(#pc209cf9e9f)" style="fill: none; stroke: #ffa500; stroke-opacity: 0.2; stroke-width: 1.5; stroke-linecap: square"/>
   </g>
   <g id="line2d_21">
    <path d="M 65.454545 347.235147 
L 70.12987 347.463712 
L 74.805195 347.385169 
L 79.480519 346.013631 
L 84.155844 345.993909 
L 88.831169 345.928796 
L 93.506494 345.810051 
L 98.181818 345.594579 
L 102.857143 344.72099 
L 107.532468 344.108847 
L 112.207792 343.585875 
L 116.883117 344.06357 
L 121.558442 344.876869 
L 126.233766 345.192629 
L 130.909091 345.514745 
L 135.584416 345.660339 
L 140.25974 345.789774 
L 144.935065 345.773958 
L 149.61039 346.148896 
L 154.285714 346.554878 
L 158.961039 346.821337 
L 163.636364 347.089394 
L 168.311688 347.497681 
L 172.987013 348.496975 
L 177.662338 348.748935 
L 182.337662 348.986753 
L 187.012987 348.927606 
L 191.688312 348.521454 
L 196.363636 348.181486 
L 201.038961 348.341709 
L 205.714286 348.731964 
L 210.38961 348.540633 
L 215.064935 348.567068 
L 219.74026 349.005379 
L 224.415584 349.263577 
L 229.090909 349.813942 
L 233.766234 350.035365 
L 238.441558 350.156573 
L 243.116883 350.299424 
L 247.792208 350.789259 
L 252.467532 352.091743 
L 257.142857 353.053397 
L 261.818182 354.006778 
L 266.493506 354.473152 
L 271.168831 354.257358 
L 275.844156 354.19005 
L 280.519481 354.641763 
L 285.194805 355.028818 
L 289.87013 355.205458 
L 294.545455 355.540961 
" clip-path="url(#pc209cf9e9f)" style="fill: none; stroke: #ffa500; stroke-opacity: 0.2; stroke-width: 1.5; stroke-linecap: square"/>
   </g>
   <g id="line2d_22">
    <path d="M 111.272727 382.628571 
L 111.272727 308.571429 
" clip-path="url(#pc209cf9e9f)" style="fill: none; stroke-dasharray: 5.55,2.4; stroke-dashoffset: 0; stroke: #000000; stroke-width: 1.5"/>
   </g>
   <g id="line2d_23">
    <path d="M 65.454545 345.6 
L 294.545455 345.6 
" clip-path="url(#pc209cf9e9f)" style="fill: none; stroke-dasharray: 5.55,2.4; stroke-dashoffset: 0; stroke: #000000; stroke-width: 1.5"/>
   </g>
   <g id="patch_3">
    <path d="M 50 388.8 
L 50 302.4 
" style="fill: none; stroke: #000000; stroke-width: 0.8; stroke-linejoin: miter; stroke-linecap: square"/>
   </g>
   <g id="patch_4">
    <path d="M 54 392.8 
L 306 392.8 
" style="fill: none; stroke: #000000; stroke-width: 0.8; stroke-linejoin: miter; stroke-linecap: square"/>
   </g>
   <g id="text_12">
    <!-- all depths -->
    <g transform="translate(150.492188 296.4) scale(0.12 -0.12)">
     <defs>
      <path id="DejaVuSans-70" d="M 1159 525 
L 1159 -1331 
L 581 -1331 
L 581 3500 
L 1159 3500 
L 1159 2969 
Q 1341 3281 1617 3432 
Q 1894 3584 2278 3584 
Q 2916 3584 3314 3078 
Q 3713 2572 3713 1747 
Q 3713 922 3314 415 
Q 2916 -91 2278 -91 
Q 1894 -91 1617 61 
Q 1341 213 1159 525 
z
M 3116 1747 
Q 3116 2381 2855 2742 
Q 2594 3103 2138 3103 
Q 1681 3103 1420 2742 
Q 1159 2381 1159 1747 
Q 1159 1113 1420 752 
Q 1681 391 2138 391 
Q 2594 391 2855 752 
Q 3116 1113 3116 1747 
z
" transform="scale(0.015625)"/>
     </defs>
     <use xlink:href="#DejaVuSans-61"/>
     <use xlink:href="#DejaVuSans-6c" x="61.279297"/>
     <use xlink:href="#DejaVuSans-6c" x="89.0625"/>
     <use xlink:href="#DejaVuSans-20" x="116.845703"/>
     <use xlink:href="#DejaVuSans-64" x="148.632812"/>
     <use xlink:href="#DejaVuSans-65" x="212.109375"/>
     <use xlink:href="#DejaVuSans-70" x="273.632812"/>
     <use xlink:href="#DejaVuSans-74" x="337.109375"/>
     <use xlink:href="#DejaVuSans-68" x="376.318359"/>
     <use xlink:href="#DejaVuSans-73" x="439.697266"/>
    </g>
   </g>
   <g id="legend_1">
    <g id="patch_5">
     <path d="M 101.289062 325.35625 
L 299 325.35625 
Q 301 325.35625 301 323.35625 
L 301 309.4 
Q 301 307.4 299 307.4 
L 101.289062 307.4 
Q 99.289062 307.4 99.289062 309.4 
L 99.289062 323.35625 
Q 99.289062 325.35625 101.289062 325.35625 
z
" style="fill: #ffffff; opacity: 0.8; stroke: #cccccc; stroke-linejoin: miter"/>
    </g>
    <g id="line2d_24">
     <path d="M 103.289062 315.498437 
L 113.289062 315.498437 
L 123.289062 315.498437 
" style="fill: none; stroke: #ffa500; stroke-width: 1.5; stroke-linecap: square"/>
    </g>
    <g id="text_13">
     <!-- V1_tgt_superficial_deveined_orth -->
     <g transform="translate(131.289062 318.998437) scale(0.1 -0.1)">
      <defs>
       <path id="DejaVuSans-56" d="M 1831 0 
L 50 4666 
L 709 4666 
L 2188 738 
L 3669 4666 
L 4325 4666 
L 2547 0 
L 1831 0 
z
" transform="scale(0.015625)"/>
       <path id="DejaVuSans-5f" d="M 3263 -1063 
L 3263 -1509 
L -63 -1509 
L -63 -1063 
L 3263 -1063 
z
" transform="scale(0.015625)"/>
       <path id="DejaVuSans-75" d="M 544 1381 
L 544 3500 
L 1119 3500 
L 1119 1403 
Q 1119 906 1312 657 
Q 1506 409 1894 409 
Q 2359 409 2629 706 
Q 2900 1003 2900 1516 
L 2900 3500 
L 3475 3500 
L 3475 0 
L 2900 0 
L 2900 538 
Q 2691 219 2414 64 
Q 2138 -91 1772 -91 
Q 1169 -91 856 284 
Q 544 659 544 1381 
z
M 1991 3584 
L 1991 3584 
z
" transform="scale(0.015625)"/>
      </defs>
      <use xlink:href="#DejaVuSans-56"/>
      <use xlink:href="#DejaVuSans-31" x="68.408203"/>
      <use xlink:href="#DejaVuSans-5f" x="132.03125"/>
      <use xlink:href="#DejaVuSans-74" x="182.03125"/>
      <use xlink:href="#DejaVuSans-67" x="221.240234"/>
      <use xlink:href="#DejaVuSans-74" x="284.716797"/>
      <use xlink:href="#DejaVuSans-5f" x="323.925781"/>
      <use xlink:href="#DejaVuSans-73" x="373.925781"/>
      <use xlink:href="#DejaVuSans-75" x="426.025391"/>
      <use xlink:href="#DejaVuSans-70" x="489.404297"/>
      <use xlink:href="#DejaVuSans-65" x="552.880859"/>
      <use xlink:href="#DejaVuSans-72" x="614.404297"/>
      <use xlink:href="#DejaVuSans-66" x="655.517578"/>
      <use xlink:href="#DejaVuSans-69" x="690.722656"/>
      <use xlink:href="#DejaVuSans-63" x="718.505859"/>
      <use xlink:href="#DejaVuSans-69" x="773.486328"/>
      <use xlink:href="#DejaVuSans-61" x="801.269531"/>
      <use xlink:href="#DejaVuSans-6c" x="862.548828"/>
      <use xlink:href="#DejaVuSans-5f" x="890.332031"/>
      <use xlink:href="#DejaVuSans-64" x="940.332031"/>
      <use xlink:href="#DejaVuSans-65" x="1003.808594"/>
      <use xlink:href="#DejaVuSans-76" x="1065.332031"/>
      <use xlink:href="#DejaVuSans-65" x="1124.511719"/>
      <use xlink:href="#DejaVuSans-69" x="1186.035156"/>
      <use xlink:href="#DejaVuSans-6e" x="1213.818359"/>
      <use xlink:href="#DejaVuSans-65" x="1277.197266"/>
      <use xlink:href="#DejaVuSans-64" x="1338.720703"/>
      <use xlink:href="#DejaVuSans-5f" x="1402.197266"/>
      <use xlink:href="#DejaVuSans-6f" x="1452.197266"/>
      <use xlink:href="#DejaVuSans-72" x="1513.378906"/>
      <use xlink:href="#DejaVuSans-74" x="1554.492188"/>
      <use xlink:href="#DejaVuSans-68" x="1593.701172"/>
     </g>
    </g>
   </g>
  </g>
 </g>
 <defs>
  <clipPath id="pc209cf9e9f">
   <rect x="54" y="302.4" width="252" height="86.4"/>
  </clipPath>
 </defs>
</svg>
