<?xml version="1.0" encoding="utf-8" standalone="no"?>
<!DOCTYPE svg PUBLIC "-//W3C//DTD SVG 1.1//EN"
  "http://www.w3.org/Graphics/SVG/1.1/DTD/svg11.dtd">
<svg xmlns:xlink="http://www.w3.org/1999/xlink" width="360pt" height="360pt" viewBox="0 0 360 360" xmlns="http://www.w3.org/2000/svg" version="1.1">
 <metadata>
  <rdf:RDF xmlns:dc="http://purl.org/dc/elements/1.1/" xmlns:cc="http://creativecommons.org/ns#" xmlns:rdf="http://www.w3.org/1999/02/22-rdf-syntax-ns#">
   <cc:Work>
    <dc:type rdf:resource="http://purl.org/dc/dcmitype/StillImage"/>
    <dc:date>2026-05-29T13:02:47.740564</dc:date>
    <dc:format>image/svg+xml</dc:format>
    <dc:creator>
     <cc:Agent>
      <dc:title>Matplotlib v3.8.0, https://matplotlib.org/</dc:title>
     </cc:Agent>
    </dc:creator>
   </cc:Work>
  </rdf:RDF>
 </metadata>
 <defs>
  <style type="text/css">*{stroke-linejoin: round; stroke-linecap: butt}</style>
 </defs>
 <g id="figure_1">
  <g id="patch_1">
   <path d="M 0 360 
L 360 360 
L 360 0 
L 0 0 
z
" style="fill: #ffffff"/>
  </g>
  <g id="axes_1">
   <g id="patch_2">
    <path d="M 46.64 316.10776 
L 349.2 316.10776 
L 349.2 47.04 
L 46.64 47.04 
z
" style="fill: #ffffff"/>
   </g>
   <g id="PolyCollection_1">
    <defs>
     <path id="md949d40f6c" d="M 89.511983 -58.648076 
L 89.179692 -58.648076 
L 89.116843 -60.375881 
L 89.03894 -62.103686 
L 88.945895 -63.831491 
L 88.83903 -65.559296 
L 88.721327 -67.2871 
L 88.597492 -69.014905 
L 88.473762 -70.74271 
L 88.357429 -72.470515 
L 88.256114 -74.19832 
L 88.176868 -75.926124 
L 88.125224 -77.653929 
L 88.104364 -79.381734 
L 88.114538 -81.109539 
L 88.152852 -82.837344 
L 88.213472 -84.565149 
L 88.288221 -86.292953 
L 88.367494 -88.020758 
L 88.441349 -89.748563 
L 88.500641 -91.476368 
L 88.538042 -93.204173 
L 88.54882 -94.931978 
L 88.531304 -96.659782 
L 88.486955 -98.387587 
L 88.420026 -100.115392 
L 88.336816 -101.843197 
L 88.244566 -103.571002 
L 88.150068 -105.298807 
L 88.058123 -107.026611 
L 87.969983 -108.754416 
L 87.881986 -110.482221 
L 87.784524 -112.210026 
L 87.661541 -113.937831 
L 87.490648 -115.665635 
L 87.243938 -117.39344 
L 86.889504 -119.121245 
L 86.393606 -120.84905 
L 85.72339 -122.576855 
L 84.850002 -124.30466 
L 83.751873 -126.032464 
L 82.41791 -127.760269 
L 80.850246 -129.488074 
L 79.066194 -131.215879 
L 77.099021 -132.943684 
L 74.997241 -134.671489 
L 72.822281 -136.399293 
L 70.644554 -138.127098 
L 68.538283 -139.854903 
L 66.575615 -141.582708 
L 64.820814 -143.310513 
L 63.325344 -145.038318 
L 62.124575 -146.766122 
L 61.236582 -148.493927 
L 60.66316 -150.221732 
L 60.392727 -151.949537 
L 60.404477 -153.677342 
L 60.672915 -155.405146 
L 61.171893 -157.132951 
L 61.877456 -158.860756 
L 62.76909 -160.588561 
L 63.829404 -162.316366 
L 65.042545 -164.044171 
L 66.391959 -165.771975 
L 67.85813 -167.49978 
L 69.416906 -169.227585 
L 71.038801 -170.95539 
L 72.689457 -172.683195 
L 74.331174 -174.411 
L 75.92524 -176.138804 
L 77.434686 -177.866609 
L 78.827038 -179.594414 
L 80.076699 -181.322219 
L 81.166676 -183.050024 
L 82.089487 -184.777829 
L 82.84719 -186.505633 
L 83.450596 -188.233438 
L 83.917793 -189.961243 
L 84.272168 -191.689048 
L 84.540152 -193.416853 
L 84.748913 -195.144657 
L 84.924212 -196.872462 
L 85.088617 -198.600267 
L 85.260193 -200.328072 
L 85.451757 -202.055877 
L 85.670692 -203.783682 
L 85.919264 -205.511486 
L 86.195336 -207.239291 
L 86.493342 -208.967096 
L 86.805387 -210.694901 
L 87.122357 -212.422706 
L 87.434928 -214.150511 
L 87.734417 -215.878315 
L 88.013443 -217.60612 
L 88.266357 -219.333925 
L 88.48946 -221.06173 
L 88.681022 -222.789535 
L 88.84112 -224.51734 
L 88.971344 -226.245144 
L 89.074417 -227.972949 
L 89.153788 -229.700754 
L 89.537886 -229.700754 
L 89.537886 -229.700754 
L 89.617258 -227.972949 
L 89.720331 -226.245144 
L 89.850554 -224.51734 
L 90.010653 -222.789535 
L 90.202215 -221.06173 
L 90.425318 -219.333925 
L 90.678231 -217.60612 
L 90.957257 -215.878315 
L 91.256747 -214.150511 
L 91.569317 -212.422706 
L 91.886288 -210.694901 
L 92.198333 -208.967096 
L 92.496338 -207.239291 
L 92.77241 -205.511486 
L 93.020983 -203.783682 
L 93.239918 -202.055877 
L 93.431482 -200.328072 
L 93.603058 -198.600267 
L 93.767463 -196.872462 
L 93.942762 -195.144657 
L 94.151522 -193.416853 
L 94.419506 -191.689048 
L 94.773881 -189.961243 
L 95.241078 -188.233438 
L 95.844485 -186.505633 
L 96.602188 -184.777829 
L 97.524998 -183.050024 
L 98.614976 -181.322219 
L 99.864637 -179.594414 
L 101.256989 -177.866609 
L 102.766435 -176.138804 
L 104.360501 -174.411 
L 106.002217 -172.683195 
L 107.652874 -170.95539 
L 109.274769 -169.227585 
L 110.833544 -167.49978 
L 112.299716 -165.771975 
L 113.64913 -164.044171 
L 114.862271 -162.316366 
L 115.922584 -160.588561 
L 116.814219 -158.860756 
L 117.519781 -157.132951 
L 118.01876 -155.405146 
L 118.287197 -153.677342 
L 118.298947 -151.949537 
L 118.028515 -150.221732 
L 117.455093 -148.493927 
L 116.5671 -146.766122 
L 115.36633 -145.038318 
L 113.870861 -143.310513 
L 112.11606 -141.582708 
L 110.153392 -139.854903 
L 108.04712 -138.127098 
L 105.869394 -136.399293 
L 103.694433 -134.671489 
L 101.592654 -132.943684 
L 99.62548 -131.215879 
L 97.841429 -129.488074 
L 96.273765 -127.760269 
L 94.939801 -126.032464 
L 93.841673 -124.30466 
L 92.968285 -122.576855 
L 92.298069 -120.84905 
L 91.80217 -119.121245 
L 91.447736 -117.39344 
L 91.201027 -115.665635 
L 91.030134 -113.937831 
L 90.907151 -112.210026 
L 90.809689 -110.482221 
L 90.721691 -108.754416 
L 90.633552 -107.026611 
L 90.541606 -105.298807 
L 90.447109 -103.571002 
L 90.354859 -101.843197 
L 90.271649 -100.115392 
L 90.204719 -98.387587 
L 90.160371 -96.659782 
L 90.142855 -94.931978 
L 90.153633 -93.204173 
L 90.191033 -91.476368 
L 90.250326 -89.748563 
L 90.324181 -88.020758 
L 90.403453 -86.292953 
L 90.478203 -84.565149 
L 90.538822 -82.837344 
L 90.577137 -81.109539 
L 90.587311 -79.381734 
L 90.566451 -77.653929 
L 90.514807 -75.926124 
L 90.435561 -74.19832 
L 90.334246 -72.470515 
L 90.217913 -70.74271 
L 90.094183 -69.014905 
L 89.970348 -67.2871 
L 89.852645 -65.559296 
L 89.745779 -63.831491 
L 89.652734 -62.103686 
L 89.574831 -60.375881 
L 89.511983 -58.648076 
z
" style="stroke: #3f3f3f; stroke-width: 1.25"/>
    </defs>
    <g clip-path="url(#pb62f441a52)">
     <use xlink:href="#md949d40f6c" x="0" y="360" style="fill: #b2b2b2; stroke: #3f3f3f; stroke-width: 1.25"/>
    </g>
   </g>
   <g id="PolyCollection_2">
    <defs>
     <path id="m818b9ca2e0" d="M 161.920148 -80.664085 
L 161.537077 -80.664085 
L 161.471442 -82.437441 
L 161.389956 -84.210797 
L 161.291201 -85.984152 
L 161.174441 -87.757508 
L 161.039872 -89.530864 
L 160.888828 -91.30422 
L 160.72392 -93.077576 
L 160.549052 -94.850932 
L 160.369294 -96.624288 
L 160.190594 -98.397644 
L 160.019317 -100.171 
L 159.86164 -101.944356 
L 159.72285 -103.717712 
L 159.606589 -105.491068 
L 159.514127 -107.264423 
L 159.443733 -109.037779 
L 159.39021 -110.811135 
L 159.344645 -112.584491 
L 159.29441 -114.357847 
L 159.223411 -116.131203 
L 159.112598 -117.904559 
L 158.940678 -119.677915 
L 158.685029 -121.451271 
L 158.322748 -123.224627 
L 157.831808 -124.997983 
L 157.192285 -126.771339 
L 156.38762 -128.544694 
L 155.405869 -130.31805 
L 154.24091 -132.091406 
L 152.893539 -133.864762 
L 151.372389 -135.638118 
L 149.694591 -137.411474 
L 147.886094 -139.18483 
L 145.981549 -140.958186 
L 144.023699 -142.731542 
L 142.06223 -144.504898 
L 140.152078 -146.278254 
L 138.351221 -148.05161 
L 136.718071 -149.824965 
L 135.308568 -151.598321 
L 134.173175 -153.371677 
L 133.353975 -155.145033 
L 132.882068 -156.918389 
L 132.775502 -158.691745 
L 133.037913 -160.465101 
L 133.658002 -162.238457 
L 134.609954 -164.011813 
L 135.854775 -165.785169 
L 137.342487 -167.558525 
L 139.015023 -169.331881 
L 140.8096 -171.105236 
L 142.662311 -172.878592 
L 144.511647 -174.651948 
L 146.301695 -176.425304 
L 147.984755 -178.19866 
L 149.52324 -179.972016 
L 150.890745 -181.745372 
L 152.072286 -183.518728 
L 153.063769 -185.292084 
L 153.870808 -187.06544 
L 154.507051 -188.838796 
L 154.992195 -190.612152 
L 155.349857 -192.385507 
L 155.605474 -194.158863 
L 155.784364 -195.932219 
L 155.910064 -197.705575 
L 156.003041 -199.478931 
L 156.079819 -201.252287 
L 156.152555 -203.025643 
L 156.229074 -204.798999 
L 156.313298 -206.572355 
L 156.406024 -208.345711 
L 156.505925 -210.119067 
L 156.610653 -211.892423 
L 156.717905 -213.665778 
L 156.826309 -215.439134 
L 156.936026 -217.21249 
L 157.048989 -218.985846 
L 157.168773 -220.759202 
L 157.300127 -222.532558 
L 157.44826 -224.305914 
L 157.618003 -226.07927 
L 157.812997 -227.852626 
L 158.035028 -229.625982 
L 158.283611 -231.399338 
L 158.555881 -233.172693 
L 158.846802 -234.946049 
L 159.149627 -236.719405 
L 159.456561 -238.492761 
L 159.759496 -240.266117 
L 160.050725 -242.039473 
L 160.323562 -243.812829 
L 160.572774 -245.586185 
L 160.794825 -247.359541 
L 160.987918 -249.132897 
L 161.151866 -250.906253 
L 161.28784 -252.679609 
L 161.398036 -254.452964 
L 161.485332 -256.22632 
L 161.971893 -256.22632 
L 161.971893 -256.22632 
L 162.059188 -254.452964 
L 162.169385 -252.679609 
L 162.305358 -250.906253 
L 162.469307 -249.132897 
L 162.6624 -247.359541 
L 162.884451 -245.586185 
L 163.133663 -243.812829 
L 163.406499 -242.039473 
L 163.697729 -240.266117 
L 164.000663 -238.492761 
L 164.307598 -236.719405 
L 164.610423 -234.946049 
L 164.901344 -233.172693 
L 165.173614 -231.399338 
L 165.422197 -229.625982 
L 165.644228 -227.852626 
L 165.839222 -226.07927 
L 166.008965 -224.305914 
L 166.157098 -222.532558 
L 166.288452 -220.759202 
L 166.408236 -218.985846 
L 166.521199 -217.21249 
L 166.630915 -215.439134 
L 166.73932 -213.665778 
L 166.846572 -211.892423 
L 166.9513 -210.119067 
L 167.051201 -208.345711 
L 167.143927 -206.572355 
L 167.228151 -204.798999 
L 167.30467 -203.025643 
L 167.377406 -201.252287 
L 167.454184 -199.478931 
L 167.547161 -197.705575 
L 167.672861 -195.932219 
L 167.851751 -194.158863 
L 168.107368 -192.385507 
L 168.46503 -190.612152 
L 168.950174 -188.838796 
L 169.586417 -187.06544 
L 170.393456 -185.292084 
L 171.384938 -183.518728 
L 172.56648 -181.745372 
L 173.933985 -179.972016 
L 175.47247 -178.19866 
L 177.15553 -176.425304 
L 178.945578 -174.651948 
L 180.794914 -172.878592 
L 182.647625 -171.105236 
L 184.442202 -169.331881 
L 186.114738 -167.558525 
L 187.60245 -165.785169 
L 188.847271 -164.011813 
L 189.799223 -162.238457 
L 190.419312 -160.465101 
L 190.681722 -158.691745 
L 190.575157 -156.918389 
L 190.10325 -155.145033 
L 189.28405 -153.371677 
L 188.148657 -151.598321 
L 186.739154 -149.824965 
L 185.106004 -148.05161 
L 183.305147 -146.278254 
L 181.394994 -144.504898 
L 179.433526 -142.731542 
L 177.475676 -140.958186 
L 175.57113 -139.18483 
L 173.762634 -137.411474 
L 172.084836 -135.638118 
L 170.563686 -133.864762 
L 169.216314 -132.091406 
L 168.051355 -130.31805 
L 167.069605 -128.544694 
L 166.26494 -126.771339 
L 165.625417 -124.997983 
L 165.134477 -123.224627 
L 164.772196 -121.451271 
L 164.516547 -119.677915 
L 164.344627 -117.904559 
L 164.233814 -116.131203 
L 164.162815 -114.357847 
L 164.11258 -112.584491 
L 164.067015 -110.811135 
L 164.013492 -109.037779 
L 163.943098 -107.264423 
L 163.850636 -105.491068 
L 163.734375 -103.717712 
L 163.595585 -101.944356 
L 163.437908 -100.171 
L 163.26663 -98.397644 
L 163.08793 -96.624288 
L 162.908173 -94.850932 
L 162.733305 -93.077576 
L 162.568397 -91.30422 
L 162.417353 -89.530864 
L 162.282784 -87.757508 
L 162.166024 -85.984152 
L 162.067269 -84.210797 
L 161.985783 -82.437441 
L 161.920148 -80.664085 
z
" style="stroke: #3f3f3f; stroke-width: 1.25"/>
    </defs>
    <g clip-path="url(#pb62f441a52)">
     <use xlink:href="#m818b9ca2e0" x="0" y="360" style="fill: #891ab9; stroke: #3f3f3f; stroke-width: 1.25"/>
    </g>
   </g>
   <g id="PolyCollection_3">
    <defs>
     <path id="me6b6fe88c6" d="M 234.268786 -56.122593 
L 233.95399 -56.122593 
L 233.895581 -58.593371 
L 233.822731 -61.06415 
L 233.734606 -63.534928 
L 233.631252 -66.005706 
L 233.513788 -68.476485 
L 233.38448 -70.947263 
L 233.246687 -73.418041 
L 233.104652 -75.88882 
L 232.963172 -78.359598 
L 232.827176 -80.830376 
L 232.701301 -83.301155 
L 232.589507 -85.771933 
L 232.494811 -88.242711 
L 232.419124 -90.71349 
L 232.363196 -93.184268 
L 232.326584 -95.655046 
L 232.307558 -98.125824 
L 232.302884 -100.596603 
L 232.307405 -103.067381 
L 232.313448 -105.538159 
L 232.310118 -108.008938 
L 232.282609 -110.479716 
L 232.211716 -112.950494 
L 232.073744 -115.421273 
L 231.840986 -117.892051 
L 231.482903 -120.362829 
L 230.968052 -122.833608 
L 230.266693 -125.304386 
L 229.353875 -127.775164 
L 228.212719 -130.245943 
L 226.837479 -132.716721 
L 225.23594 -135.187499 
L 223.430736 -137.658278 
L 221.459283 -140.129056 
L 219.372176 -142.599834 
L 217.230146 -145.070613 
L 215.099917 -147.541391 
L 213.04947 -150.012169 
L 211.143348 -152.482948 
L 209.438614 -154.953726 
L 207.981952 -157.424504 
L 206.808155 -159.895283 
L 205.940003 -162.366061 
L 205.389247 -164.836839 
L 205.158278 -167.307618 
L 205.241952 -169.778396 
L 205.629158 -172.249174 
L 206.303804 -174.719953 
L 207.245183 -177.190731 
L 208.427837 -179.661509 
L 209.821225 -182.132288 
L 211.38954 -184.603066 
L 213.091996 -187.073844 
L 214.883786 -189.544623 
L 216.717712 -192.015401 
L 218.546379 -194.486179 
L 220.324648 -196.956958 
L 222.012062 -199.427736 
L 223.574916 -201.898514 
L 224.987762 -204.369293 
L 226.234215 -206.840071 
L 227.307058 -209.310849 
L 228.20769 -211.781628 
L 228.945059 -214.252406 
L 229.534181 -216.723184 
L 229.994402 -219.193963 
L 230.34751 -221.664741 
L 230.615845 -224.135519 
L 230.820534 -226.606297 
L 230.980005 -229.077076 
L 231.10891 -231.547854 
L 231.217585 -234.018632 
L 231.31209 -236.489411 
L 231.394812 -238.960189 
L 231.46553 -241.430967 
L 231.522754 -243.901746 
L 231.565109 -246.372524 
L 231.59253 -248.843302 
L 231.607064 -251.314081 
L 231.613158 -253.784859 
L 231.617398 -256.255637 
L 231.627786 -258.726416 
L 231.652681 -261.197194 
L 231.699643 -263.667972 
L 231.774353 -266.138751 
L 231.879825 -268.609529 
L 232.016006 -271.080307 
L 232.179818 -273.551086 
L 232.365613 -276.021864 
L 232.565919 -278.492642 
L 232.772365 -280.963421 
L 232.97662 -283.434199 
L 233.171212 -285.904977 
L 233.350139 -288.375756 
L 233.509213 -290.846534 
L 233.646142 -293.317312 
L 233.760388 -295.788091 
L 233.852858 -298.258869 
L 233.925515 -300.729647 
L 234.29726 -300.729647 
L 234.29726 -300.729647 
L 234.369917 -298.258869 
L 234.462387 -295.788091 
L 234.576633 -293.317312 
L 234.713562 -290.846534 
L 234.872636 -288.375756 
L 235.051563 -285.904977 
L 235.246155 -283.434199 
L 235.45041 -280.963421 
L 235.656856 -278.492642 
L 235.857162 -276.021864 
L 236.042957 -273.551086 
L 236.20677 -271.080307 
L 236.34295 -268.609529 
L 236.448422 -266.138751 
L 236.523132 -263.667972 
L 236.570094 -261.197194 
L 236.59499 -258.726416 
L 236.605377 -256.255637 
L 236.609617 -253.784859 
L 236.615711 -251.314081 
L 236.630245 -248.843302 
L 236.657666 -246.372524 
L 236.700021 -243.901746 
L 236.757245 -241.430967 
L 236.827963 -238.960189 
L 236.910685 -236.489411 
L 237.00519 -234.018632 
L 237.113865 -231.547854 
L 237.24277 -229.077076 
L 237.402241 -226.606297 
L 237.60693 -224.135519 
L 237.875265 -221.664741 
L 238.228373 -219.193963 
L 238.688594 -216.723184 
L 239.277717 -214.252406 
L 240.015085 -211.781628 
L 240.915718 -209.310849 
L 241.98856 -206.840071 
L 243.235013 -204.369293 
L 244.647859 -201.898514 
L 246.210713 -199.427736 
L 247.898127 -196.956958 
L 249.676396 -194.486179 
L 251.505063 -192.015401 
L 253.33899 -189.544623 
L 255.130779 -187.073844 
L 256.833235 -184.603066 
L 258.40155 -182.132288 
L 259.794938 -179.661509 
L 260.977592 -177.190731 
L 261.918971 -174.719953 
L 262.593617 -172.249174 
L 262.980823 -169.778396 
L 263.064498 -167.307618 
L 262.833528 -164.836839 
L 262.282772 -162.366061 
L 261.41462 -159.895283 
L 260.240823 -157.424504 
L 258.784161 -154.953726 
L 257.079427 -152.482948 
L 255.173305 -150.012169 
L 253.122858 -147.541391 
L 250.992629 -145.070613 
L 248.850599 -142.599834 
L 246.763492 -140.129056 
L 244.792039 -137.658278 
L 242.986836 -135.187499 
L 241.385296 -132.716721 
L 240.010056 -130.245943 
L 238.868901 -127.775164 
L 237.956082 -125.304386 
L 237.254723 -122.833608 
L 236.739873 -120.362829 
L 236.381789 -117.892051 
L 236.149031 -115.421273 
L 236.011059 -112.950494 
L 235.940166 -110.479716 
L 235.912657 -108.008938 
L 235.909327 -105.538159 
L 235.91537 -103.067381 
L 235.919891 -100.596603 
L 235.915217 -98.125824 
L 235.896191 -95.655046 
L 235.859579 -93.184268 
L 235.803651 -90.71349 
L 235.727964 -88.242711 
L 235.633268 -85.771933 
L 235.521474 -83.301155 
L 235.395599 -80.830376 
L 235.259603 -78.359598 
L 235.118123 -75.88882 
L 234.976088 -73.418041 
L 234.838295 -70.947263 
L 234.708987 -68.476485 
L 234.591523 -66.005706 
L 234.48817 -63.534928 
L 234.400044 -61.06415 
L 234.327194 -58.593371 
L 234.268786 -56.122593 
z
" style="stroke: #3f3f3f; stroke-width: 1.25"/>
    </defs>
    <g clip-path="url(#pb62f441a52)">
     <use xlink:href="#me6b6fe88c6" x="0" y="360" style="fill: #df9c20; stroke: #3f3f3f; stroke-width: 1.25"/>
    </g>
   </g>
   <g id="PolyCollection_4">
    <defs>
     <path id="m4b0b3752de" d="M 306.713103 -84.120067 
L 306.275223 -84.120067 
L 306.19861 -85.655139 
L 306.10319 -87.190211 
L 305.987309 -88.725283 
L 305.850193 -90.260355 
L 305.692264 -91.795427 
L 305.51541 -93.330499 
L 305.323154 -94.865571 
L 305.12068 -96.400643 
L 304.914663 -97.935715 
L 304.712903 -99.470787 
L 304.523748 -101.005858 
L 304.355345 -102.54093 
L 304.214789 -104.076002 
L 304.107225 -105.611074 
L 304.035021 -107.146146 
L 303.997088 -108.681218 
L 303.988415 -110.21629 
L 303.999899 -111.751362 
L 304.018463 -113.286434 
L 304.027484 -114.821506 
L 304.007476 -116.356578 
L 303.937004 -117.89165 
L 303.793735 -119.426722 
L 303.555598 -120.961794 
L 303.201951 -122.496866 
L 302.714736 -124.031938 
L 302.079527 -125.56701 
L 301.286462 -127.102082 
L 300.330974 -128.637154 
L 299.214308 -130.172225 
L 297.943774 -131.707297 
L 296.532711 -133.242369 
L 295.000176 -134.777441 
L 293.370347 -136.312513 
L 291.671701 -137.847585 
L 289.936006 -139.382657 
L 288.197203 -140.917729 
L 286.49025 -142.452801 
L 284.849979 -143.987873 
L 283.310041 -145.522945 
L 281.901956 -147.058017 
L 280.654295 -148.593089 
L 279.592003 -150.128161 
L 278.735844 -151.663233 
L 278.101982 -153.198305 
L 277.70167 -154.733377 
L 277.541053 -156.268449 
L 277.621076 -157.80352 
L 277.937509 -159.338592 
L 278.481061 -160.873664 
L 279.23762 -162.408736 
L 280.188576 -163.943808 
L 281.311256 -165.47888 
L 282.57946 -167.013952 
L 283.964108 -168.549024 
L 285.433999 -170.084096 
L 286.956699 -171.619168 
L 288.499536 -173.15424 
L 290.030695 -174.689312 
L 291.520336 -176.224384 
L 292.941699 -177.759456 
L 294.272061 -179.294528 
L 295.493492 -180.8296 
L 296.593303 -182.364672 
L 297.564143 -183.899744 
L 298.403757 -185.434815 
L 299.114441 -186.969887 
L 299.70228 -188.504959 
L 300.176301 -190.040031 
L 300.547643 -191.575103 
L 300.828843 -193.110175 
L 301.033292 -194.645247 
L 301.17488 -196.180319 
L 301.26776 -197.715391 
L 301.326199 -199.250463 
L 301.364403 -200.785535 
L 301.396269 -202.320607 
L 301.435005 -203.855679 
L 301.492638 -205.390751 
L 301.579437 -206.925823 
L 301.703327 -208.460895 
L 301.869394 -209.995967 
L 302.079549 -211.531039 
L 302.332438 -213.066111 
L 302.623621 -214.601182 
L 302.946009 -216.136254 
L 303.290529 -217.671326 
L 303.646928 -219.206398 
L 304.004633 -220.74147 
L 304.353571 -222.276542 
L 304.684865 -223.811614 
L 304.991344 -225.346686 
L 305.26785 -226.881758 
L 305.511312 -228.41683 
L 305.720646 -229.951902 
L 305.896492 -231.486974 
L 306.040864 -233.022046 
L 306.156748 -234.557118 
L 306.247709 -236.09219 
L 306.740616 -236.09219 
L 306.740616 -236.09219 
L 306.831578 -234.557118 
L 306.947461 -233.022046 
L 307.091833 -231.486974 
L 307.26768 -229.951902 
L 307.477014 -228.41683 
L 307.720476 -226.881758 
L 307.996981 -225.346686 
L 308.303461 -223.811614 
L 308.634754 -222.276542 
L 308.983692 -220.74147 
L 309.341397 -219.206398 
L 309.697796 -217.671326 
L 310.042316 -216.136254 
L 310.364704 -214.601182 
L 310.655887 -213.066111 
L 310.908777 -211.531039 
L 311.118931 -209.995967 
L 311.284998 -208.460895 
L 311.408888 -206.925823 
L 311.495687 -205.390751 
L 311.55332 -203.855679 
L 311.592056 -202.320607 
L 311.623922 -200.785535 
L 311.662127 -199.250463 
L 311.720565 -197.715391 
L 311.813446 -196.180319 
L 311.955033 -194.645247 
L 312.159483 -193.110175 
L 312.440682 -191.575103 
L 312.812024 -190.040031 
L 313.286045 -188.504959 
L 313.873884 -186.969887 
L 314.584568 -185.434815 
L 315.424183 -183.899744 
L 316.395022 -182.364672 
L 317.494833 -180.8296 
L 318.716265 -179.294528 
L 320.046627 -177.759456 
L 321.467989 -176.224384 
L 322.957631 -174.689312 
L 324.488789 -173.15424 
L 326.031627 -171.619168 
L 327.554326 -170.084096 
L 329.024217 -168.549024 
L 330.408865 -167.013952 
L 331.67707 -165.47888 
L 332.79975 -163.943808 
L 333.750705 -162.408736 
L 334.507264 -160.873664 
L 335.050817 -159.338592 
L 335.367249 -157.80352 
L 335.447273 -156.268449 
L 335.286655 -154.733377 
L 334.886343 -153.198305 
L 334.252482 -151.663233 
L 333.396323 -150.128161 
L 332.33403 -148.593089 
L 331.086369 -147.058017 
L 329.678284 -145.522945 
L 328.138347 -143.987873 
L 326.498076 -142.452801 
L 324.791122 -140.917729 
L 323.05232 -139.382657 
L 321.316624 -137.847585 
L 319.617978 -136.312513 
L 317.988149 -134.777441 
L 316.455614 -133.242369 
L 315.044552 -131.707297 
L 313.774017 -130.172225 
L 312.657352 -128.637154 
L 311.701864 -127.102082 
L 310.908798 -125.56701 
L 310.27359 -124.031938 
L 309.786374 -122.496866 
L 309.432728 -120.961794 
L 309.19459 -119.426722 
L 309.051322 -117.89165 
L 308.980849 -116.356578 
L 308.960842 -114.821506 
L 308.969862 -113.286434 
L 308.988426 -111.751362 
L 308.99991 -110.21629 
L 308.991238 -108.681218 
L 308.953304 -107.146146 
L 308.881101 -105.611074 
L 308.773536 -104.076002 
L 308.63298 -102.54093 
L 308.464578 -101.005858 
L 308.275422 -99.470787 
L 308.073662 -97.935715 
L 307.867645 -96.400643 
L 307.665171 -94.865571 
L 307.472915 -93.330499 
L 307.296061 -91.795427 
L 307.138133 -90.260355 
L 307.001017 -88.725283 
L 306.885136 -87.190211 
L 306.789715 -85.655139 
L 306.713103 -84.120067 
z
" style="stroke: #3f3f3f; stroke-width: 1.25"/>
    </defs>
    <g clip-path="url(#pb62f441a52)">
     <use xlink:href="#m4b0b3752de" x="0" y="360" style="fill: #df2020; stroke: #3f3f3f; stroke-width: 1.25"/>
    </g>
   </g>
   <g id="matplotlib.axis_1">
    <g id="xtick_1">
     <g id="line2d_1">
      <defs>
       <path id="maca825ec12" d="M 0 0 
L 0 3.5 
" style="stroke: #000000; stroke-width: 0.8"/>
      </defs>
      <g>
       <use xlink:href="#maca825ec12" x="89.345837" y="316.10776" style="stroke: #000000; stroke-width: 0.8"/>
      </g>
     </g>
     <g id="text_1">
      <!-- sur -->
      <g transform="translate(76.803531 339.552412) rotate(-45) scale(0.1 -0.1)">
       <defs>
        <path id="DejaVuSans-73" d="M 2834 3397 
L 2834 2853 
Q 2591 2978 2328 3040 
Q 2066 3103 1784 3103 
Q 1356 3103 1142 2972 
Q 928 2841 928 2578 
Q 928 2378 1081 2264 
Q 1234 2150 1697 2047 
L 1894 2003 
Q 2506 1872 2764 1633 
Q 3022 1394 3022 966 
Q 3022 478 2636 193 
Q 2250 -91 1575 -91 
Q 1294 -91 989 -36 
Q 684 19 347 128 
L 347 722 
Q 666 556 975 473 
Q 1284 391 1588 391 
Q 1994 391 2212 530 
Q 2431 669 2431 922 
Q 2431 1156 2273 1281 
Q 2116 1406 1581 1522 
L 1381 1569 
Q 847 1681 609 1914 
Q 372 2147 372 2553 
Q 372 3047 722 3315 
Q 1072 3584 1716 3584 
Q 2034 3584 2315 3537 
Q 2597 3491 2834 3397 
z
" transform="scale(0.015625)"/>
        <path id="DejaVuSans-75" d="M 544 1381 
L 544 3500 
L 1119 3500 
L 1119 1403 
Q 1119 906 1312 657 
Q 1506 409 1894 409 
Q 2359 409 2629 706 
Q 2900 1003 2900 1516 
L 2900 3500 
L 3475 3500 
L 3475 0 
L 2900 0 
L 2900 538 
Q 2691 219 2414 64 
Q 2138 -91 1772 -91 
Q 1169 -91 856 284 
Q 544 659 544 1381 
z
M 1991 3584 
L 1991 3584 
z
" transform="scale(0.015625)"/>
        <path id="DejaVuSans-72" d="M 2631 2963 
Q 2534 3019 2420 3045 
Q 2306 3072 2169 3072 
Q 1681 3072 1420 2755 
Q 1159 2438 1159 1844 
L 1159 0 
L 581 0 
L 581 3500 
L 1159 3500 
L 1159 2956 
Q 1341 3275 1631 3429 
Q 1922 3584 2338 3584 
Q 2397 3584 2469 3576 
Q 2541 3569 2628 3553 
L 2631 2963 
z
" transform="scale(0.015625)"/>
       </defs>
       <use xlink:href="#DejaVuSans-73"/>
       <use xlink:href="#DejaVuSans-75" x="52.099609"/>
       <use xlink:href="#DejaVuSans-72" x="115.478516"/>
      </g>
     </g>
    </g>
    <g id="xtick_2">
     <g id="line2d_2">
      <g>
       <use xlink:href="#maca825ec12" x="161.728612" y="316.10776" style="stroke: #000000; stroke-width: 0.8"/>
      </g>
     </g>
     <g id="text_2">
      <!-- iso90 -->
      <g transform="translate(141.285492 347.453225) rotate(-45) scale(0.1 -0.1)">
       <defs>
        <path id="DejaVuSans-69" d="M 603 3500 
L 1178 3500 
L 1178 0 
L 603 0 
L 603 3500 
z
M 603 4863 
L 1178 4863 
L 1178 4134 
L 603 4134 
L 603 4863 
z
" transform="scale(0.015625)"/>
        <path id="DejaVuSans-6f" d="M 1959 3097 
Q 1497 3097 1228 2736 
Q 959 2375 959 1747 
Q 959 1119 1226 758 
Q 1494 397 1959 397 
Q 2419 397 2687 759 
Q 2956 1122 2956 1747 
Q 2956 2369 2687 2733 
Q 2419 3097 1959 3097 
z
M 1959 3584 
Q 2709 3584 3137 3096 
Q 3566 2609 3566 1747 
Q 3566 888 3137 398 
Q 2709 -91 1959 -91 
Q 1206 -91 779 398 
Q 353 888 353 1747 
Q 353 2609 779 3096 
Q 1206 3584 1959 3584 
z
" transform="scale(0.015625)"/>
        <path id="DejaVuSans-39" d="M 703 97 
L 703 672 
Q 941 559 1184 500 
Q 1428 441 1663 441 
Q 2288 441 2617 861 
Q 2947 1281 2994 2138 
Q 2813 1869 2534 1725 
Q 2256 1581 1919 1581 
Q 1219 1581 811 2004 
Q 403 2428 403 3163 
Q 403 3881 828 4315 
Q 1253 4750 1959 4750 
Q 2769 4750 3195 4129 
Q 3622 3509 3622 2328 
Q 3622 1225 3098 567 
Q 2575 -91 1691 -91 
Q 1453 -91 1209 -44 
Q 966 3 703 97 
z
M 1959 2075 
Q 2384 2075 2632 2365 
Q 2881 2656 2881 3163 
Q 2881 3666 2632 3958 
Q 2384 4250 1959 4250 
Q 1534 4250 1286 3958 
Q 1038 3666 1038 3163 
Q 1038 2656 1286 2365 
Q 1534 2075 1959 2075 
z
" transform="scale(0.015625)"/>
        <path id="DejaVuSans-30" d="M 2034 4250 
Q 1547 4250 1301 3770 
Q 1056 3291 1056 2328 
Q 1056 1369 1301 889 
Q 1547 409 2034 409 
Q 2525 409 2770 889 
Q 3016 1369 3016 2328 
Q 3016 3291 2770 3770 
Q 2525 4250 2034 4250 
z
M 2034 4750 
Q 2819 4750 3233 4129 
Q 3647 3509 3647 2328 
Q 3647 1150 3233 529 
Q 2819 -91 2034 -91 
Q 1250 -91 836 529 
Q 422 1150 422 2328 
Q 422 3509 836 4129 
Q 1250 4750 2034 4750 
z
" transform="scale(0.015625)"/>
       </defs>
       <use xlink:href="#DejaVuSans-69"/>
       <use xlink:href="#DejaVuSans-73" x="27.783203"/>
       <use xlink:href="#DejaVuSans-6f" x="79.882812"/>
       <use xlink:href="#DejaVuSans-39" x="141.064453"/>
       <use xlink:href="#DejaVuSans-30" x="204.6875"/>
      </g>
     </g>
    </g>
    <g id="xtick_3">
     <g id="line2d_3">
      <g>
       <use xlink:href="#maca825ec12" x="234.111388" y="316.10776" style="stroke: #000000; stroke-width: 0.8"/>
      </g>
     </g>
     <g id="text_3">
      <!-- orth -->
      <g transform="translate(218.153976 342.967517) rotate(-45) scale(0.1 -0.1)">
       <defs>
        <path id="DejaVuSans-74" d="M 1172 4494 
L 1172 3500 
L 2356 3500 
L 2356 3053 
L 1172 3053 
L 1172 1153 
Q 1172 725 1289 603 
Q 1406 481 1766 481 
L 2356 481 
L 2356 0 
L 1766 0 
Q 1100 0 847 248 
Q 594 497 594 1153 
L 594 3053 
L 172 3053 
L 172 3500 
L 594 3500 
L 594 4494 
L 1172 4494 
z
" transform="scale(0.015625)"/>
        <path id="DejaVuSans-68" d="M 3513 2113 
L 3513 0 
L 2938 0 
L 2938 2094 
Q 2938 2591 2744 2837 
Q 2550 3084 2163 3084 
Q 1697 3084 1428 2787 
Q 1159 2491 1159 1978 
L 1159 0 
L 581 0 
L 581 4863 
L 1159 4863 
L 1159 2956 
Q 1366 3272 1645 3428 
Q 1925 3584 2291 3584 
Q 2894 3584 3203 3211 
Q 3513 2838 3513 2113 
z
" transform="scale(0.015625)"/>
       </defs>
       <use xlink:href="#DejaVuSans-6f"/>
       <use xlink:href="#DejaVuSans-72" x="61.181641"/>
       <use xlink:href="#DejaVuSans-74" x="102.294922"/>
       <use xlink:href="#DejaVuSans-68" x="141.503906"/>
      </g>
     </g>
    </g>
    <g id="xtick_4">
     <g id="line2d_4">
      <g>
       <use xlink:href="#maca825ec12" x="306.494163" y="316.10776" style="stroke: #000000; stroke-width: 0.8"/>
      </g>
     </g>
     <g id="text_4">
      <!-- iso0 -->
      <g transform="translate(290.55001 342.954258) rotate(-45) scale(0.1 -0.1)">
       <use xlink:href="#DejaVuSans-69"/>
       <use xlink:href="#DejaVuSans-73" x="27.783203"/>
       <use xlink:href="#DejaVuSans-6f" x="79.882812"/>
       <use xlink:href="#DejaVuSans-30" x="141.064453"/>
      </g>
     </g>
    </g>
   </g>
   <g id="matplotlib.axis_2">
    <g id="ytick_1">
     <g id="line2d_5">
      <defs>
       <path id="m9cbfd86025" d="M 0 0 
L -3.5 0 
" style="stroke: #000000; stroke-width: 0.8"/>
      </defs>
      <g>
       <use xlink:href="#m9cbfd86025" x="46.64" y="280.935188" style="stroke: #000000; stroke-width: 0.8"/>
      </g>
     </g>
     <g id="text_5">
      <!-- −5 -->
      <g transform="translate(24.897813 284.734407) scale(0.1 -0.1)">
       <defs>
        <path id="DejaVuSans-2212" d="M 678 2272 
L 4684 2272 
L 4684 1741 
L 678 1741 
L 678 2272 
z
" transform="scale(0.015625)"/>
        <path id="DejaVuSans-35" d="M 691 4666 
L 3169 4666 
L 3169 4134 
L 1269 4134 
L 1269 2991 
Q 1406 3038 1543 3061 
Q 1681 3084 1819 3084 
Q 2600 3084 3056 2656 
Q 3513 2228 3513 1497 
Q 3513 744 3044 326 
Q 2575 -91 1722 -91 
Q 1428 -91 1123 -41 
Q 819 9 494 109 
L 494 744 
Q 775 591 1075 516 
Q 1375 441 1709 441 
Q 2250 441 2565 725 
Q 2881 1009 2881 1497 
Q 2881 1984 2565 2268 
Q 2250 2553 1709 2553 
Q 1456 2553 1204 2497 
Q 953 2441 691 2322 
L 691 4666 
z
" transform="scale(0.015625)"/>
       </defs>
       <use xlink:href="#DejaVuSans-2212"/>
       <use xlink:href="#DejaVuSans-35" x="83.789062"/>
      </g>
     </g>
    </g>
    <g id="ytick_2">
     <g id="line2d_6">
      <g>
       <use xlink:href="#m9cbfd86025" x="46.64" y="232.412658" style="stroke: #000000; stroke-width: 0.8"/>
      </g>
     </g>
     <g id="text_6">
      <!-- 0 -->
      <g transform="translate(33.2775 236.211876) scale(0.1 -0.1)">
       <use xlink:href="#DejaVuSans-30"/>
      </g>
     </g>
    </g>
    <g id="ytick_3">
     <g id="line2d_7">
      <g>
       <use xlink:href="#m9cbfd86025" x="46.64" y="183.890127" style="stroke: #000000; stroke-width: 0.8"/>
      </g>
     </g>
     <g id="text_7">
      <!-- 5 -->
      <g transform="translate(33.2775 187.689346) scale(0.1 -0.1)">
       <use xlink:href="#DejaVuSans-35"/>
      </g>
     </g>
    </g>
    <g id="ytick_4">
     <g id="line2d_8">
      <g>
       <use xlink:href="#m9cbfd86025" x="46.64" y="135.367597" style="stroke: #000000; stroke-width: 0.8"/>
      </g>
     </g>
     <g id="text_8">
      <!-- 10 -->
      <g transform="translate(26.915 139.166815) scale(0.1 -0.1)">
       <defs>
        <path id="DejaVuSans-31" d="M 794 531 
L 1825 531 
L 1825 4091 
L 703 3866 
L 703 4441 
L 1819 4666 
L 2450 4666 
L 2450 531 
L 3481 531 
L 3481 0 
L 794 0 
L 794 531 
z
" transform="scale(0.015625)"/>
       </defs>
       <use xlink:href="#DejaVuSans-31"/>
       <use xlink:href="#DejaVuSans-30" x="63.623047"/>
      </g>
     </g>
    </g>
    <g id="ytick_5">
     <g id="line2d_9">
      <g>
       <use xlink:href="#m9cbfd86025" x="46.64" y="86.845066" style="stroke: #000000; stroke-width: 0.8"/>
      </g>
     </g>
     <g id="text_9">
      <!-- 15 -->
      <g transform="translate(26.915 90.644285) scale(0.1 -0.1)">
       <use xlink:href="#DejaVuSans-31"/>
       <use xlink:href="#DejaVuSans-35" x="63.623047"/>
      </g>
     </g>
    </g>
    <g id="text_10">
     <!-- Average BOLD Response -->
     <g transform="translate(18.818125 243.213724) rotate(-90) scale(0.1 -0.1)">
      <defs>
       <path id="DejaVuSans-41" d="M 2188 4044 
L 1331 1722 
L 3047 1722 
L 2188 4044 
z
M 1831 4666 
L 2547 4666 
L 4325 0 
L 3669 0 
L 3244 1197 
L 1141 1197 
L 716 0 
L 50 0 
L 1831 4666 
z
" transform="scale(0.015625)"/>
       <path id="DejaVuSans-76" d="M 191 3500 
L 800 3500 
L 1894 563 
L 2988 3500 
L 3597 3500 
L 2284 0 
L 1503 0 
L 191 3500 
z
" transform="scale(0.015625)"/>
       <path id="DejaVuSans-65" d="M 3597 1894 
L 3597 1613 
L 953 1613 
Q 991 1019 1311 708 
Q 1631 397 2203 397 
Q 2534 397 2845 478 
Q 3156 559 3463 722 
L 3463 178 
Q 3153 47 2828 -22 
Q 2503 -91 2169 -91 
Q 1331 -91 842 396 
Q 353 884 353 1716 
Q 353 2575 817 3079 
Q 1281 3584 2069 3584 
Q 2775 3584 3186 3129 
Q 3597 2675 3597 1894 
z
M 3022 2063 
Q 3016 2534 2758 2815 
Q 2500 3097 2075 3097 
Q 1594 3097 1305 2825 
Q 1016 2553 972 2059 
L 3022 2063 
z
" transform="scale(0.015625)"/>
       <path id="DejaVuSans-61" d="M 2194 1759 
Q 1497 1759 1228 1600 
Q 959 1441 959 1056 
Q 959 750 1161 570 
Q 1363 391 1709 391 
Q 2188 391 2477 730 
Q 2766 1069 2766 1631 
L 2766 1759 
L 2194 1759 
z
M 3341 1997 
L 3341 0 
L 2766 0 
L 2766 531 
Q 2569 213 2275 61 
Q 1981 -91 1556 -91 
Q 1019 -91 701 211 
Q 384 513 384 1019 
Q 384 1609 779 1909 
Q 1175 2209 1959 2209 
L 2766 2209 
L 2766 2266 
Q 2766 2663 2505 2880 
Q 2244 3097 1772 3097 
Q 1472 3097 1187 3025 
Q 903 2953 641 2809 
L 641 3341 
Q 956 3463 1253 3523 
Q 1550 3584 1831 3584 
Q 2591 3584 2966 3190 
Q 3341 2797 3341 1997 
z
" transform="scale(0.015625)"/>
       <path id="DejaVuSans-67" d="M 2906 1791 
Q 2906 2416 2648 2759 
Q 2391 3103 1925 3103 
Q 1463 3103 1205 2759 
Q 947 2416 947 1791 
Q 947 1169 1205 825 
Q 1463 481 1925 481 
Q 2391 481 2648 825 
Q 2906 1169 2906 1791 
z
M 3481 434 
Q 3481 -459 3084 -895 
Q 2688 -1331 1869 -1331 
Q 1566 -1331 1297 -1286 
Q 1028 -1241 775 -1147 
L 775 -588 
Q 1028 -725 1275 -790 
Q 1522 -856 1778 -856 
Q 2344 -856 2625 -561 
Q 2906 -266 2906 331 
L 2906 616 
Q 2728 306 2450 153 
Q 2172 0 1784 0 
Q 1141 0 747 490 
Q 353 981 353 1791 
Q 353 2603 747 3093 
Q 1141 3584 1784 3584 
Q 2172 3584 2450 3431 
Q 2728 3278 2906 2969 
L 2906 3500 
L 3481 3500 
L 3481 434 
z
" transform="scale(0.015625)"/>
       <path id="DejaVuSans-20" transform="scale(0.015625)"/>
       <path id="DejaVuSans-42" d="M 1259 2228 
L 1259 519 
L 2272 519 
Q 2781 519 3026 730 
Q 3272 941 3272 1375 
Q 3272 1813 3026 2020 
Q 2781 2228 2272 2228 
L 1259 2228 
z
M 1259 4147 
L 1259 2741 
L 2194 2741 
Q 2656 2741 2882 2914 
Q 3109 3088 3109 3444 
Q 3109 3797 2882 3972 
Q 2656 4147 2194 4147 
L 1259 4147 
z
M 628 4666 
L 2241 4666 
Q 2963 4666 3353 4366 
Q 3744 4066 3744 3513 
Q 3744 3084 3544 2831 
Q 3344 2578 2956 2516 
Q 3422 2416 3680 2098 
Q 3938 1781 3938 1306 
Q 3938 681 3513 340 
Q 3088 0 2303 0 
L 628 0 
L 628 4666 
z
" transform="scale(0.015625)"/>
       <path id="DejaVuSans-4f" d="M 2522 4238 
Q 1834 4238 1429 3725 
Q 1025 3213 1025 2328 
Q 1025 1447 1429 934 
Q 1834 422 2522 422 
Q 3209 422 3611 934 
Q 4013 1447 4013 2328 
Q 4013 3213 3611 3725 
Q 3209 4238 2522 4238 
z
M 2522 4750 
Q 3503 4750 4090 4092 
Q 4678 3434 4678 2328 
Q 4678 1225 4090 567 
Q 3503 -91 2522 -91 
Q 1538 -91 948 565 
Q 359 1222 359 2328 
Q 359 3434 948 4092 
Q 1538 4750 2522 4750 
z
" transform="scale(0.015625)"/>
       <path id="DejaVuSans-4c" d="M 628 4666 
L 1259 4666 
L 1259 531 
L 3531 531 
L 3531 0 
L 628 0 
L 628 4666 
z
" transform="scale(0.015625)"/>
       <path id="DejaVuSans-44" d="M 1259 4147 
L 1259 519 
L 2022 519 
Q 2988 519 3436 956 
Q 3884 1394 3884 2338 
Q 3884 3275 3436 3711 
Q 2988 4147 2022 4147 
L 1259 4147 
z
M 628 4666 
L 1925 4666 
Q 3281 4666 3915 4102 
Q 4550 3538 4550 2338 
Q 4550 1131 3912 565 
Q 3275 0 1925 0 
L 628 0 
L 628 4666 
z
" transform="scale(0.015625)"/>
       <path id="DejaVuSans-52" d="M 2841 2188 
Q 3044 2119 3236 1894 
Q 3428 1669 3622 1275 
L 4263 0 
L 3584 0 
L 2988 1197 
Q 2756 1666 2539 1819 
Q 2322 1972 1947 1972 
L 1259 1972 
L 1259 0 
L 628 0 
L 628 4666 
L 2053 4666 
Q 2853 4666 3247 4331 
Q 3641 3997 3641 3322 
Q 3641 2881 3436 2590 
Q 3231 2300 2841 2188 
z
M 1259 4147 
L 1259 2491 
L 2053 2491 
Q 2509 2491 2742 2702 
Q 2975 2913 2975 3322 
Q 2975 3731 2742 3939 
Q 2509 4147 2053 4147 
L 1259 4147 
z
" transform="scale(0.015625)"/>
       <path id="DejaVuSans-70" d="M 1159 525 
L 1159 -1331 
L 581 -1331 
L 581 3500 
L 1159 3500 
L 1159 2969 
Q 1341 3281 1617 3432 
Q 1894 3584 2278 3584 
Q 2916 3584 3314 3078 
Q 3713 2572 3713 1747 
Q 3713 922 3314 415 
Q 2916 -91 2278 -91 
Q 1894 -91 1617 61 
Q 1341 213 1159 525 
z
M 3116 1747 
Q 3116 2381 2855 2742 
Q 2594 3103 2138 3103 
Q 1681 3103 1420 2742 
Q 1159 2381 1159 1747 
Q 1159 1113 1420 752 
Q 1681 391 2138 391 
Q 2594 391 2855 752 
Q 3116 1113 3116 1747 
z
" transform="scale(0.015625)"/>
       <path id="DejaVuSans-6e" d="M 3513 2113 
L 3513 0 
L 2938 0 
L 2938 2094 
Q 2938 2591 2744 2837 
Q 2550 3084 2163 3084 
Q 1697 3084 1428 2787 
Q 1159 2491 1159 1978 
L 1159 0 
L 581 0 
L 581 3500 
L 1159 3500 
L 1159 2956 
Q 1366 3272 1645 3428 
Q 1925 3584 2291 3584 
Q 2894 3584 3203 3211 
Q 3513 2838 3513 2113 
z
" transform="scale(0.015625)"/>
      </defs>
      <use xlink:href="#DejaVuSans-41"/>
      <use xlink:href="#DejaVuSans-76" x="62.533203"/>
      <use xlink:href="#DejaVuSans-65" x="121.712891"/>
      <use xlink:href="#DejaVuSans-72" x="183.236328"/>
      <use xlink:href="#DejaVuSans-61" x="224.349609"/>
      <use xlink:href="#DejaVuSans-67" x="285.628906"/>
      <use xlink:href="#DejaVuSans-65" x="349.105469"/>
      <use xlink:href="#DejaVuSans-20" x="410.628906"/>
      <use xlink:href="#DejaVuSans-42" x="442.416016"/>
      <use xlink:href="#DejaVuSans-4f" x="509.269531"/>
      <use xlink:href="#DejaVuSans-4c" x="587.980469"/>
      <use xlink:href="#DejaVuSans-44" x="643.693359"/>
      <use xlink:href="#DejaVuSans-20" x="720.695312"/>
      <use xlink:href="#DejaVuSans-52" x="752.482422"/>
      <use xlink:href="#DejaVuSans-65" x="817.464844"/>
      <use xlink:href="#DejaVuSans-73" x="878.988281"/>
      <use xlink:href="#DejaVuSans-70" x="931.087891"/>
      <use xlink:href="#DejaVuSans-6f" x="994.564453"/>
      <use xlink:href="#DejaVuSans-6e" x="1055.746094"/>
      <use xlink:href="#DejaVuSans-73" x="1119.125"/>
      <use xlink:href="#DejaVuSans-65" x="1171.224609"/>
     </g>
    </g>
   </g>
   <g id="line2d_10">
    <path d="M 74.869282 203.954337 
L 103.822392 203.954337 
" clip-path="url(#pb62f441a52)" style="fill: none; stroke: #b2b2b2; stroke-width: 2; stroke-linecap: square"/>
   </g>
   <g id="line2d_11">
    <path d="M 147.252057 194.516719 
L 176.205167 194.516719 
" clip-path="url(#pb62f441a52)" style="fill: none; stroke: #9400d3; stroke-width: 2; stroke-linecap: square"/>
   </g>
   <g id="line2d_12">
    <path d="M 219.634833 186.216084 
L 248.587943 186.216084 
" clip-path="url(#pb62f441a52)" style="fill: none; stroke: #ffa500; stroke-width: 2; stroke-linecap: square"/>
   </g>
   <g id="line2d_13">
    <path d="M 292.017608 199.517667 
L 320.970718 199.517667 
" clip-path="url(#pb62f441a52)" style="fill: none; stroke: #ff0000; stroke-width: 2; stroke-linecap: square"/>
   </g>
   <g id="patch_3">
    <path d="M 46.64 316.10776 
L 46.64 47.04 
" style="fill: none; stroke: #000000; stroke-width: 0.8; stroke-linejoin: miter; stroke-linecap: square"/>
   </g>
   <g id="patch_4">
    <path d="M 349.2 316.10776 
L 349.2 47.04 
" style="fill: none; stroke: #000000; stroke-width: 0.8; stroke-linejoin: miter; stroke-linecap: square"/>
   </g>
   <g id="patch_5">
    <path d="M 46.64 316.10776 
L 349.2 316.10776 
" style="fill: none; stroke: #000000; stroke-width: 0.8; stroke-linejoin: miter; stroke-linecap: square"/>
   </g>
   <g id="patch_6">
    <path d="M 46.64 47.04 
L 349.2 47.04 
" style="fill: none; stroke: #000000; stroke-width: 0.8; stroke-linejoin: miter; stroke-linecap: square"/>
   </g>
   <g id="PathCollection_1">
    <defs>
     <path id="m10af25b71b" d="M 0 2.5 
C 0.663008 2.5 1.29895 2.236584 1.767767 1.767767 
C 2.236584 1.29895 2.5 0.663008 2.5 0 
C 2.5 -0.663008 2.236584 -1.29895 1.767767 -1.767767 
C 1.29895 -2.236584 0.663008 -2.5 0 -2.5 
C -0.663008 -2.5 -1.29895 -2.236584 -1.767767 -1.767767 
C -2.236584 -1.29895 -2.5 -0.663008 -2.5 0 
C -2.5 0.663008 -2.236584 1.29895 -1.767767 1.767767 
C -1.29895 2.236584 -0.663008 2.5 0 2.5 
z
"/>
    </defs>
    <g clip-path="url(#pb62f441a52)">
     <use xlink:href="#m10af25b71b" x="84.124304" y="161.219235" style="fill-opacity: 0.7"/>
     <use xlink:href="#m10af25b71b" x="94.10593" y="207.635326" style="fill-opacity: 0.7"/>
     <use xlink:href="#m10af25b71b" x="108.1893" y="212.253822" style="fill-opacity: 0.7"/>
     <use xlink:href="#m10af25b71b" x="89.345837" y="209.744376" style="fill-opacity: 0.7"/>
     <use xlink:href="#m10af25b71b" x="99.161935" y="200.213943" style="fill-opacity: 0.7"/>
     <use xlink:href="#m10af25b71b" x="85.421192" y="195.165819" style="fill-opacity: 0.7"/>
     <use xlink:href="#m10af25b71b" x="80.341501" y="193.902615" style="fill-opacity: 0.7"/>
     <use xlink:href="#m10af25b71b" x="79.15279" y="201.303423" style="fill-opacity: 0.7"/>
     <use xlink:href="#m10af25b71b" x="94.861785" y="191.187535" style="fill-opacity: 0.7"/>
     <use xlink:href="#m10af25b71b" x="89.345837" y="150.940363" style="fill-opacity: 0.7"/>
     <use xlink:href="#m10af25b71b" x="76.485777" y="190.509157" style="fill-opacity: 0.7"/>
     <use xlink:href="#m10af25b71b" x="89.345837" y="186.815479" style="fill-opacity: 0.7"/>
     <use xlink:href="#m10af25b71b" x="99.627967" y="217.755692" style="fill-opacity: 0.7"/>
     <use xlink:href="#m10af25b71b" x="84.258873" y="223.952815" style="fill-opacity: 0.7"/>
     <use xlink:href="#m10af25b71b" x="89.345837" y="172.909411" style="fill-opacity: 0.7"/>
     <use xlink:href="#m10af25b71b" x="89.345837" y="161.739215" style="fill-opacity: 0.7"/>
     <use xlink:href="#m10af25b71b" x="83.451189" y="211.064565" style="fill-opacity: 0.7"/>
     <use xlink:href="#m10af25b71b" x="89.345837" y="280.710807" style="fill-opacity: 0.7"/>
     <use xlink:href="#m10af25b71b" x="89.345837" y="198.486838" style="fill-opacity: 0.7"/>
     <use xlink:href="#m10af25b71b" x="91.636754" y="182.31663" style="fill-opacity: 0.7"/>
     <use xlink:href="#m10af25b71b" x="99.773377" y="209.343988" style="fill-opacity: 0.7"/>
     <use xlink:href="#m10af25b71b" x="103.37945" y="214.257863" style="fill-opacity: 0.7"/>
     <use xlink:href="#m10af25b71b" x="94.481175" y="202.478324" style="fill-opacity: 0.7"/>
     <use xlink:href="#m10af25b71b" x="94.30075" y="196.834151" style="fill-opacity: 0.7"/>
     <use xlink:href="#m10af25b71b" x="74.848797" y="198.440232" style="fill-opacity: 0.7"/>
     <use xlink:href="#m10af25b71b" x="84.141131" y="202.862232" style="fill-opacity: 0.7"/>
     <use xlink:href="#m10af25b71b" x="84.479232" y="184.939831" style="fill-opacity: 0.7"/>
     <use xlink:href="#m10af25b71b" x="78.962717" y="215.758011" style="fill-opacity: 0.7"/>
     <use xlink:href="#m10af25b71b" x="89.345837" y="225.189185" style="fill-opacity: 0.7"/>
     <use xlink:href="#m10af25b71b" x="89.345837" y="219.338669" style="fill-opacity: 0.7"/>
     <use xlink:href="#m10af25b71b" x="96.72211" y="213.412814" style="fill-opacity: 0.7"/>
     <use xlink:href="#m10af25b71b" x="89.753579" y="192.341737" style="fill-opacity: 0.7"/>
     <use xlink:href="#m10af25b71b" x="86.464038" y="215.159276" style="fill-opacity: 0.7"/>
     <use xlink:href="#m10af25b71b" x="94.59291" y="219.171734" style="fill-opacity: 0.7"/>
     <use xlink:href="#m10af25b71b" x="100.111091" y="191.106258" style="fill-opacity: 0.7"/>
     <use xlink:href="#m10af25b71b" x="104.346349" y="199.426077" style="fill-opacity: 0.7"/>
     <use xlink:href="#m10af25b71b" x="69.902088" y="210.99717" style="fill-opacity: 0.7"/>
     <use xlink:href="#m10af25b71b" x="89.345837" y="203.517602" style="fill-opacity: 0.7"/>
     <use xlink:href="#m10af25b71b" x="82.82733" y="219.142284" style="fill-opacity: 0.7"/>
     <use xlink:href="#m10af25b71b" x="78.720699" y="209.245113" style="fill-opacity: 0.7"/>
     <use xlink:href="#m10af25b71b" x="74.862185" y="212.635692" style="fill-opacity: 0.7"/>
     <use xlink:href="#m10af25b71b" x="91.706411" y="214.889854" style="fill-opacity: 0.7"/>
     <use xlink:href="#m10af25b71b" x="89.345837" y="249.721338" style="fill-opacity: 0.7"/>
    </g>
   </g>
   <g id="PathCollection_2">
    <g clip-path="url(#pb62f441a52)">
     <use xlink:href="#m10af25b71b" x="161.728612" y="128.511557" style="fill-opacity: 0.7"/>
     <use xlink:href="#m10af25b71b" x="146.152346" y="194.889772" style="fill-opacity: 0.7"/>
     <use xlink:href="#m10af25b71b" x="166.826096" y="191.477599" style="fill-opacity: 0.7"/>
     <use xlink:href="#m10af25b71b" x="157.15122" y="151.131154" style="fill-opacity: 0.7"/>
     <use xlink:href="#m10af25b71b" x="144.330784" y="202.914731" style="fill-opacity: 0.7"/>
     <use xlink:href="#m10af25b71b" x="161.728612" y="192.674026" style="fill-opacity: 0.7"/>
     <use xlink:href="#m10af25b71b" x="161.728612" y="205.286519" style="fill-opacity: 0.7"/>
     <use xlink:href="#m10af25b71b" x="167.868743" y="196.378516" style="fill-opacity: 0.7"/>
     <use xlink:href="#m10af25b71b" x="156.467714" y="196.663575" style="fill-opacity: 0.7"/>
     <use xlink:href="#m10af25b71b" x="161.728612" y="135.112836" style="fill-opacity: 0.7"/>
     <use xlink:href="#m10af25b71b" x="156.494384" y="160.754494" style="fill-opacity: 0.7"/>
     <use xlink:href="#m10af25b71b" x="161.728612" y="161.141771" style="fill-opacity: 0.7"/>
     <use xlink:href="#m10af25b71b" x="171.363378" y="201.712153" style="fill-opacity: 0.7"/>
     <use xlink:href="#m10af25b71b" x="171.364727" y="213.166344" style="fill-opacity: 0.7"/>
     <use xlink:href="#m10af25b71b" x="161.728612" y="153.579714" style="fill-opacity: 0.7"/>
     <use xlink:href="#m10af25b71b" x="156.521858" y="134.472394" style="fill-opacity: 0.7"/>
     <use xlink:href="#m10af25b71b" x="156.508347" y="209.811215" style="fill-opacity: 0.7"/>
     <use xlink:href="#m10af25b71b" x="161.728612" y="254.598038" style="fill-opacity: 0.7"/>
     <use xlink:href="#m10af25b71b" x="176.145062" y="203.776426" style="fill-opacity: 0.7"/>
     <use xlink:href="#m10af25b71b" x="161.728612" y="180.74647" style="fill-opacity: 0.7"/>
     <use xlink:href="#m10af25b71b" x="167.507725" y="208.992382" style="fill-opacity: 0.7"/>
     <use xlink:href="#m10af25b71b" x="161.728612" y="216.505373" style="fill-opacity: 0.7"/>
     <use xlink:href="#m10af25b71b" x="166.799352" y="203.991106" style="fill-opacity: 0.7"/>
     <use xlink:href="#m10af25b71b" x="173.0992" y="195.947495" style="fill-opacity: 0.7"/>
     <use xlink:href="#m10af25b71b" x="154.930645" y="191.882669" style="fill-opacity: 0.7"/>
     <use xlink:href="#m10af25b71b" x="139.601477" y="200.743772" style="fill-opacity: 0.7"/>
     <use xlink:href="#m10af25b71b" x="178.103682" y="194.436342" style="fill-opacity: 0.7"/>
     <use xlink:href="#m10af25b71b" x="166.160471" y="213.824944" style="fill-opacity: 0.7"/>
     <use xlink:href="#m10af25b71b" x="151.262968" y="209.601463" style="fill-opacity: 0.7"/>
     <use xlink:href="#m10af25b71b" x="172.462919" y="207.340459" style="fill-opacity: 0.7"/>
     <use xlink:href="#m10af25b71b" x="154.552217" y="205.171247" style="fill-opacity: 0.7"/>
     <use xlink:href="#m10af25b71b" x="162.962074" y="198.156973" style="fill-opacity: 0.7"/>
     <use xlink:href="#m10af25b71b" x="180.506697" y="200.993477" style="fill-opacity: 0.7"/>
     <use xlink:href="#m10af25b71b" x="149.396544" y="204.227699" style="fill-opacity: 0.7"/>
     <use xlink:href="#m10af25b71b" x="161.728612" y="170.815051" style="fill-opacity: 0.7"/>
     <use xlink:href="#m10af25b71b" x="171.77009" y="189.795514" style="fill-opacity: 0.7"/>
     <use xlink:href="#m10af25b71b" x="151.255677" y="196.063372" style="fill-opacity: 0.7"/>
     <use xlink:href="#m10af25b71b" x="150.936405" y="188.637781" style="fill-opacity: 0.7"/>
     <use xlink:href="#m10af25b71b" x="161.728612" y="223.23235" style="fill-opacity: 0.7"/>
     <use xlink:href="#m10af25b71b" x="158.764302" y="201.1598" style="fill-opacity: 0.7"/>
     <use xlink:href="#m10af25b71b" x="161.728612" y="210.34261" style="fill-opacity: 0.7"/>
     <use xlink:href="#m10af25b71b" x="156.56273" y="215.613911" style="fill-opacity: 0.7"/>
     <use xlink:href="#m10af25b71b" x="161.728612" y="247.943807" style="fill-opacity: 0.7"/>
    </g>
   </g>
   <g id="PathCollection_3">
    <g clip-path="url(#pb62f441a52)">
     <use xlink:href="#m10af25b71b" x="234.111388" y="133.168151" style="fill-opacity: 0.7"/>
     <use xlink:href="#m10af25b71b" x="225.552089" y="185.587376" style="fill-opacity: 0.7"/>
     <use xlink:href="#m10af25b71b" x="234.111388" y="182.820664" style="fill-opacity: 0.7"/>
     <use xlink:href="#m10af25b71b" x="234.111388" y="195.698142" style="fill-opacity: 0.7"/>
     <use xlink:href="#m10af25b71b" x="234.111388" y="124.633099" style="fill-opacity: 0.7"/>
     <use xlink:href="#m10af25b71b" x="238.485358" y="186.393657" style="fill-opacity: 0.7"/>
     <use xlink:href="#m10af25b71b" x="238.970091" y="193.804005" style="fill-opacity: 0.7"/>
     <use xlink:href="#m10af25b71b" x="229.046207" y="181.505671" style="fill-opacity: 0.7"/>
     <use xlink:href="#m10af25b71b" x="235.828809" y="173.782036" style="fill-opacity: 0.7"/>
     <use xlink:href="#m10af25b71b" x="234.111388" y="159.724845" style="fill-opacity: 0.7"/>
     <use xlink:href="#m10af25b71b" x="238.237911" y="169.339536" style="fill-opacity: 0.7"/>
     <use xlink:href="#m10af25b71b" x="234.111388" y="154.076417" style="fill-opacity: 0.7"/>
     <use xlink:href="#m10af25b71b" x="230.182081" y="192.382125" style="fill-opacity: 0.7"/>
     <use xlink:href="#m10af25b71b" x="243.702377" y="197.209647" style="fill-opacity: 0.7"/>
     <use xlink:href="#m10af25b71b" x="234.111388" y="89.850506" style="fill-opacity: 0.7"/>
     <use xlink:href="#m10af25b71b" x="234.111388" y="100.186273" style="fill-opacity: 0.7"/>
     <use xlink:href="#m10af25b71b" x="232.92783" y="177.949378" style="fill-opacity: 0.7"/>
     <use xlink:href="#m10af25b71b" x="234.111388" y="273.297254" style="fill-opacity: 0.7"/>
     <use xlink:href="#m10af25b71b" x="243.515328" y="184.961312" style="fill-opacity: 0.7"/>
     <use xlink:href="#m10af25b71b" x="247.363621" y="175.872787" style="fill-opacity: 0.7"/>
     <use xlink:href="#m10af25b71b" x="234.111388" y="201.261903" style="fill-opacity: 0.7"/>
     <use xlink:href="#m10af25b71b" x="224.17038" y="210.045587" style="fill-opacity: 0.7"/>
     <use xlink:href="#m10af25b71b" x="243.795354" y="202.557712" style="fill-opacity: 0.7"/>
     <use xlink:href="#m10af25b71b" x="225.445968" y="177.866532" style="fill-opacity: 0.7"/>
     <use xlink:href="#m10af25b71b" x="238.264333" y="179.761823" style="fill-opacity: 0.7"/>
     <use xlink:href="#m10af25b71b" x="234.735085" y="189.892663" style="fill-opacity: 0.7"/>
     <use xlink:href="#m10af25b71b" x="227.024615" y="169.039015" style="fill-opacity: 0.7"/>
     <use xlink:href="#m10af25b71b" x="229.727532" y="198.510806" style="fill-opacity: 0.7"/>
     <use xlink:href="#m10af25b71b" x="238.72202" y="210.413302" style="fill-opacity: 0.7"/>
     <use xlink:href="#m10af25b71b" x="234.111388" y="212.804625" style="fill-opacity: 0.7"/>
     <use xlink:href="#m10af25b71b" x="243.959721" y="210.071255" style="fill-opacity: 0.7"/>
     <use xlink:href="#m10af25b71b" x="224.938691" y="192.131312" style="fill-opacity: 0.7"/>
     <use xlink:href="#m10af25b71b" x="248.966772" y="208.567837" style="fill-opacity: 0.7"/>
     <use xlink:href="#m10af25b71b" x="242.141896" y="176.391013" style="fill-opacity: 0.7"/>
     <use xlink:href="#m10af25b71b" x="230.733301" y="172.577997" style="fill-opacity: 0.7"/>
     <use xlink:href="#m10af25b71b" x="224.524818" y="197.841245" style="fill-opacity: 0.7"/>
     <use xlink:href="#m10af25b71b" x="238.987736" y="199.409351" style="fill-opacity: 0.7"/>
     <use xlink:href="#m10af25b71b" x="230.660877" y="186.739241" style="fill-opacity: 0.7"/>
     <use xlink:href="#m10af25b71b" x="234.111388" y="206.375472" style="fill-opacity: 0.7"/>
     <use xlink:href="#m10af25b71b" x="239.074553" y="204.745399" style="fill-opacity: 0.7"/>
     <use xlink:href="#m10af25b71b" x="228.417129" y="205.714428" style="fill-opacity: 0.7"/>
     <use xlink:href="#m10af25b71b" x="229.384542" y="210.628807" style="fill-opacity: 0.7"/>
     <use xlink:href="#m10af25b71b" x="234.111388" y="251.701411" style="fill-opacity: 0.7"/>
    </g>
   </g>
   <g id="PathCollection_4">
    <g clip-path="url(#pb62f441a52)">
     <use xlink:href="#m10af25b71b" x="301.373509" y="151.100538" style="fill-opacity: 0.7"/>
     <use xlink:href="#m10af25b71b" x="305.974463" y="203.902992" style="fill-opacity: 0.7"/>
     <use xlink:href="#m10af25b71b" x="310.52183" y="206.401781" style="fill-opacity: 0.7"/>
     <use xlink:href="#m10af25b71b" x="306.494163" y="172.013547" style="fill-opacity: 0.7"/>
     <use xlink:href="#m10af25b71b" x="298.931167" y="186.194505" style="fill-opacity: 0.7"/>
     <use xlink:href="#m10af25b71b" x="306.494163" y="191.202995" style="fill-opacity: 0.7"/>
     <use xlink:href="#m10af25b71b" x="312.317961" y="201.7035" style="fill-opacity: 0.7"/>
     <use xlink:href="#m10af25b71b" x="296.309792" y="199.994407" style="fill-opacity: 0.7"/>
     <use xlink:href="#m10af25b71b" x="311.664402" y="190.334748" style="fill-opacity: 0.7"/>
     <use xlink:href="#m10af25b71b" x="306.494163" y="160.313265" style="fill-opacity: 0.7"/>
     <use xlink:href="#m10af25b71b" x="304.812126" y="186.466563" style="fill-opacity: 0.7"/>
     <use xlink:href="#m10af25b71b" x="301.386675" y="170.856467" style="fill-opacity: 0.7"/>
     <use xlink:href="#m10af25b71b" x="324.221279" y="205.682575" style="fill-opacity: 0.7"/>
     <use xlink:href="#m10af25b71b" x="305.230744" y="220.421934" style="fill-opacity: 0.7"/>
     <use xlink:href="#m10af25b71b" x="306.494163" y="152.203579" style="fill-opacity: 0.7"/>
     <use xlink:href="#m10af25b71b" x="306.494163" y="144.918841" style="fill-opacity: 0.7"/>
     <use xlink:href="#m10af25b71b" x="291.796167" y="197.440731" style="fill-opacity: 0.7"/>
     <use xlink:href="#m10af25b71b" x="306.494163" y="254.868902" style="fill-opacity: 0.7"/>
     <use xlink:href="#m10af25b71b" x="301.148918" y="201.933469" style="fill-opacity: 0.7"/>
     <use xlink:href="#m10af25b71b" x="314.133579" y="185.922266" style="fill-opacity: 0.7"/>
     <use xlink:href="#m10af25b71b" x="315.993229" y="211.16008" style="fill-opacity: 0.7"/>
     <use xlink:href="#m10af25b71b" x="300.276786" y="218.766653" style="fill-opacity: 0.7"/>
     <use xlink:href="#m10af25b71b" x="321.258095" y="196.553208" style="fill-opacity: 0.7"/>
     <use xlink:href="#m10af25b71b" x="286.806258" y="195.88648" style="fill-opacity: 0.7"/>
     <use xlink:href="#m10af25b71b" x="317.05692" y="199.551715" style="fill-opacity: 0.7"/>
     <use xlink:href="#m10af25b71b" x="306.494163" y="214.604443" style="fill-opacity: 0.7"/>
     <use xlink:href="#m10af25b71b" x="301.274196" y="190.668944" style="fill-opacity: 0.7"/>
     <use xlink:href="#m10af25b71b" x="301.571306" y="212.867038" style="fill-opacity: 0.7"/>
     <use xlink:href="#m10af25b71b" x="310.401741" y="219.557793" style="fill-opacity: 0.7"/>
     <use xlink:href="#m10af25b71b" x="294.664244" y="208.05596" style="fill-opacity: 0.7"/>
     <use xlink:href="#m10af25b71b" x="289.834195" y="206.096477" style="fill-opacity: 0.7"/>
     <use xlink:href="#m10af25b71b" x="311.474697" y="196.76842" style="fill-opacity: 0.7"/>
     <use xlink:href="#m10af25b71b" x="306.205572" y="209.248177" style="fill-opacity: 0.7"/>
     <use xlink:href="#m10af25b71b" x="301.548739" y="196.644314" style="fill-opacity: 0.7"/>
     <use xlink:href="#m10af25b71b" x="293.782165" y="185.218475" style="fill-opacity: 0.7"/>
     <use xlink:href="#m10af25b71b" x="319.225697" y="207.220209" style="fill-opacity: 0.7"/>
     <use xlink:href="#m10af25b71b" x="310.775085" y="211.71005" style="fill-opacity: 0.7"/>
     <use xlink:href="#m10af25b71b" x="306.494163" y="198.322581" style="fill-opacity: 0.7"/>
     <use xlink:href="#m10af25b71b" x="306.494163" y="225.274992" style="fill-opacity: 0.7"/>
     <use xlink:href="#m10af25b71b" x="315.094353" y="217.31577" style="fill-opacity: 0.7"/>
     <use xlink:href="#m10af25b71b" x="299.913775" y="208.122776" style="fill-opacity: 0.7"/>
     <use xlink:href="#m10af25b71b" x="295.682282" y="216.347335" style="fill-opacity: 0.7"/>
     <use xlink:href="#m10af25b71b" x="306.494163" y="249.420174" style="fill-opacity: 0.7"/>
    </g>
   </g>
   <g id="text_11">
    <!-- V1 tgt -->
    <g transform="translate(179.577813 41.04) scale(0.12 -0.12)">
     <defs>
      <path id="DejaVuSans-56" d="M 1831 0 
L 50 4666 
L 709 4666 
L 2188 738 
L 3669 4666 
L 4325 4666 
L 2547 0 
L 1831 0 
z
" transform="scale(0.015625)"/>
     </defs>
     <use xlink:href="#DejaVuSans-56"/>
     <use xlink:href="#DejaVuSans-31" x="68.408203"/>
     <use xlink:href="#DejaVuSans-20" x="132.03125"/>
     <use xlink:href="#DejaVuSans-74" x="163.818359"/>
     <use xlink:href="#DejaVuSans-67" x="203.027344"/>
     <use xlink:href="#DejaVuSans-74" x="266.503906"/>
    </g>
   </g>
  </g>
  <g id="text_12">
   <!-- pnr143 -->
   <g transform="translate(158.469375 16.318125) scale(0.12 -0.12)">
    <defs>
     <path id="DejaVuSans-34" d="M 2419 4116 
L 825 1625 
L 2419 1625 
L 2419 4116 
z
M 2253 4666 
L 3047 4666 
L 3047 1625 
L 3713 1625 
L 3713 1100 
L 3047 1100 
L 3047 0 
L 2419 0 
L 2419 1100 
L 313 1100 
L 313 1709 
L 2253 4666 
z
" transform="scale(0.015625)"/>
     <path id="DejaVuSans-33" d="M 2597 2516 
Q 3050 2419 3304 2112 
Q 3559 1806 3559 1356 
Q 3559 666 3084 287 
Q 2609 -91 1734 -91 
Q 1441 -91 1130 -33 
Q 819 25 488 141 
L 488 750 
Q 750 597 1062 519 
Q 1375 441 1716 441 
Q 2309 441 2620 675 
Q 2931 909 2931 1356 
Q 2931 1769 2642 2001 
Q 2353 2234 1838 2234 
L 1294 2234 
L 1294 2753 
L 1863 2753 
Q 2328 2753 2575 2939 
Q 2822 3125 2822 3475 
Q 2822 3834 2567 4026 
Q 2313 4219 1838 4219 
Q 1578 4219 1281 4162 
Q 984 4106 628 3988 
L 628 4550 
Q 988 4650 1302 4700 
Q 1616 4750 1894 4750 
Q 2613 4750 3031 4423 
Q 3450 4097 3450 3541 
Q 3450 3153 3228 2886 
Q 3006 2619 2597 2516 
z
" transform="scale(0.015625)"/>
    </defs>
    <use xlink:href="#DejaVuSans-70"/>
    <use xlink:href="#DejaVuSans-6e" x="63.476562"/>
    <use xlink:href="#DejaVuSans-72" x="126.855469"/>
    <use xlink:href="#DejaVuSans-31" x="167.96875"/>
    <use xlink:href="#DejaVuSans-34" x="231.591797"/>
    <use xlink:href="#DejaVuSans-33" x="295.214844"/>
   </g>
  </g>
 </g>
 <defs>
  <clipPath id="pb62f441a52">
   <rect x="46.64" y="47.04" width="302.56" height="269.06776"/>
  </clipPath>
 </defs>
</svg>
