<?xml version="1.0" encoding="utf-8" standalone="no"?>
<!DOCTYPE svg PUBLIC "-//W3C//DTD SVG 1.1//EN"
  "http://www.w3.org/Graphics/SVG/1.1/DTD/svg11.dtd">
<svg xmlns:xlink="http://www.w3.org/1999/xlink" width="360pt" height="360pt" viewBox="0 0 360 360" xmlns="http://www.w3.org/2000/svg" version="1.1">
 <metadata>
  <rdf:RDF xmlns:dc="http://purl.org/dc/elements/1.1/" xmlns:cc="http://creativecommons.org/ns#" xmlns:rdf="http://www.w3.org/1999/02/22-rdf-syntax-ns#">
   <cc:Work>
    <dc:type rdf:resource="http://purl.org/dc/dcmitype/StillImage"/>
    <dc:date>2026-05-29T13:02:57.145319</dc:date>
    <dc:format>image/svg+xml</dc:format>
    <dc:creator>
     <cc:Agent>
      <dc:title>Matplotlib v3.8.0, https://matplotlib.org/</dc:title>
     </cc:Agent>
    </dc:creator>
   </cc:Work>
  </rdf:RDF>
 </metadata>
 <defs>
  <style type="text/css">*{stroke-linejoin: round; stroke-linecap: butt}</style>
 </defs>
 <g id="figure_1">
  <g id="patch_1">
   <path d="M 0 360 
L 360 360 
L 360 0 
L 0 0 
z
" style="fill: #ffffff"/>
  </g>
  <g id="axes_1">
   <g id="patch_2">
    <path d="M 53.03 316.10776 
L 349.2 316.10776 
L 349.2 47.04 
L 53.03 47.04 
z
" style="fill: #ffffff"/>
   </g>
   <g id="PolyCollection_1">
    <defs>
     <path id="m12c0e28b4c" d="M 94.890882 -59.360731 
L 94.776917 -59.360731 
L 94.743774 -61.798801 
L 94.699597 -64.236871 
L 94.645332 -66.674941 
L 94.584422 -69.11301 
L 94.522835 -71.55108 
L 94.468234 -73.98915 
L 94.428304 -76.42722 
L 94.408621 -78.86529 
L 94.410675 -81.30336 
L 94.430689 -83.74143 
L 94.459605 -86.179499 
L 94.484274 -88.617569 
L 94.489529 -91.055639 
L 94.460784 -93.493709 
L 94.386802 -95.931779 
L 94.262398 -98.369849 
L 94.09069 -100.807919 
L 93.884326 -103.245988 
L 93.664927 -105.684058 
L 93.460107 -108.122128 
L 93.298046 -110.560198 
L 93.200439 -112.998268 
L 93.175363 -115.436338 
L 93.211817 -117.874408 
L 93.277208 -120.312477 
L 93.318128 -122.750547 
L 93.263952 -125.188617 
L 93.032412 -127.626687 
L 92.536617 -130.064757 
L 91.693442 -132.502827 
L 90.433523 -134.940897 
L 88.71275 -137.378967 
L 86.524293 -139.817036 
L 83.909184 -142.255106 
L 80.962768 -144.693176 
L 77.83435 -147.131246 
L 74.718136 -149.569316 
L 71.835063 -152.007386 
L 69.407167 -154.445456 
L 67.628221 -156.883525 
L 66.63604 -159.321595 
L 66.492273 -161.759665 
L 67.174354 -164.197735 
L 68.581607 -166.635805 
L 70.554037 -169.073875 
L 72.89926 -171.511945 
L 75.421234 -173.950014 
L 77.944654 -176.388084 
L 80.330767 -178.826154 
L 82.483361 -181.264224 
L 84.346543 -183.702294 
L 85.897757 -186.140364 
L 87.139709 -188.578434 
L 88.093704 -191.016503 
L 88.795104 -193.454573 
L 89.290075 -195.892643 
L 89.632214 -198.330713 
L 89.878007 -200.768783 
L 90.081018 -203.206853 
L 90.28564 -205.644923 
L 90.521759 -208.082993 
L 90.801699 -210.521062 
L 91.120345 -212.959132 
L 91.458692 -215.397202 
L 91.790253 -217.835272 
L 92.088999 -220.273342 
L 92.33693 -222.711412 
L 92.529239 -225.149482 
L 92.6755 -227.587551 
L 92.79646 -230.025621 
L 92.91743 -232.463691 
L 93.060481 -234.901761 
L 93.238076 -237.339831 
L 93.450153 -239.777901 
L 93.685331 -242.215971 
L 93.925331 -244.65404 
L 94.150672 -247.09211 
L 94.345563 -249.53018 
L 94.500604 -251.96825 
L 94.612993 -254.40632 
L 94.684907 -256.84439 
L 94.721189 -259.28246 
L 94.727396 -261.720529 
L 94.708827 -264.158599 
L 94.670584 -266.596669 
L 94.618281 -269.034739 
L 94.558766 -271.472809 
L 94.500262 -273.910879 
L 94.451629 -276.348949 
L 94.420856 -278.787019 
L 94.413293 -281.225088 
L 94.430329 -283.663158 
L 94.469062 -286.101228 
L 94.523155 -288.539298 
L 94.584538 -290.977368 
L 94.645372 -293.415438 
L 94.69961 -295.853508 
L 94.743778 -298.291577 
L 94.776918 -300.729647 
L 94.890881 -300.729647 
L 94.890881 -300.729647 
L 94.924021 -298.291577 
L 94.968189 -295.853508 
L 95.022427 -293.415438 
L 95.083261 -290.977368 
L 95.144644 -288.539298 
L 95.198737 -286.101228 
L 95.23747 -283.663158 
L 95.254506 -281.225088 
L 95.246943 -278.787019 
L 95.21617 -276.348949 
L 95.167537 -273.910879 
L 95.109033 -271.472809 
L 95.049518 -269.034739 
L 94.997216 -266.596669 
L 94.958972 -264.158599 
L 94.940403 -261.720529 
L 94.94661 -259.28246 
L 94.982892 -256.84439 
L 95.054806 -254.40632 
L 95.167195 -251.96825 
L 95.322236 -249.53018 
L 95.517128 -247.09211 
L 95.742468 -244.65404 
L 95.982468 -242.215971 
L 96.217647 -239.777901 
L 96.429723 -237.339831 
L 96.607318 -234.901761 
L 96.750369 -232.463691 
L 96.871339 -230.025621 
L 96.992299 -227.587551 
L 97.13856 -225.149482 
L 97.330869 -222.711412 
L 97.5788 -220.273342 
L 97.877546 -217.835272 
L 98.209107 -215.397202 
L 98.547454 -212.959132 
L 98.8661 -210.521062 
L 99.14604 -208.082993 
L 99.382159 -205.644923 
L 99.586781 -203.206853 
L 99.789793 -200.768783 
L 100.035585 -198.330713 
L 100.377724 -195.892643 
L 100.872695 -193.454573 
L 101.574095 -191.016503 
L 102.52809 -188.578434 
L 103.770042 -186.140364 
L 105.321256 -183.702294 
L 107.184438 -181.264224 
L 109.337032 -178.826154 
L 111.723145 -176.388084 
L 114.246565 -173.950014 
L 116.768539 -171.511945 
L 119.113762 -169.073875 
L 121.086192 -166.635805 
L 122.493445 -164.197735 
L 123.175526 -161.759665 
L 123.031759 -159.321595 
L 122.039578 -156.883525 
L 120.260632 -154.445456 
L 117.832736 -152.007386 
L 114.949663 -149.569316 
L 111.833449 -147.131246 
L 108.705031 -144.693176 
L 105.758615 -142.255106 
L 103.143506 -139.817036 
L 100.955049 -137.378967 
L 99.234276 -134.940897 
L 97.974357 -132.502827 
L 97.131182 -130.064757 
L 96.635387 -127.626687 
L 96.403847 -125.188617 
L 96.349671 -122.750547 
L 96.390591 -120.312477 
L 96.455982 -117.874408 
L 96.492436 -115.436338 
L 96.46736 -112.998268 
L 96.369753 -110.560198 
L 96.207693 -108.122128 
L 96.002872 -105.684058 
L 95.783473 -103.245988 
L 95.577109 -100.807919 
L 95.405401 -98.369849 
L 95.280997 -95.931779 
L 95.207015 -93.493709 
L 95.17827 -91.055639 
L 95.183525 -88.617569 
L 95.208194 -86.179499 
L 95.23711 -83.74143 
L 95.257124 -81.30336 
L 95.259178 -78.86529 
L 95.239495 -76.42722 
L 95.199565 -73.98915 
L 95.144964 -71.55108 
L 95.083377 -69.11301 
L 95.022467 -66.674941 
L 94.968202 -64.236871 
L 94.924025 -61.798801 
L 94.890882 -59.360731 
z
" style="stroke: #3f3f3f; stroke-width: 1.25"/>
    </defs>
    <g clip-path="url(#p8f557f01e0)">
     <use xlink:href="#m12c0e28b4c" x="0" y="360" style="fill: #b2b2b2; stroke: #3f3f3f; stroke-width: 1.25"/>
    </g>
   </g>
   <g id="PolyCollection_2">
    <defs>
     <path id="m6a629e316b" d="M 165.746631 -56.122593 
L 165.629302 -56.122593 
L 165.592437 -58.580164 
L 165.542637 -61.037734 
L 165.481412 -63.495305 
L 165.413698 -65.952875 
L 165.347732 -68.410446 
L 165.293652 -70.868017 
L 165.261018 -73.325587 
L 165.256062 -75.783158 
L 165.279719 -78.240729 
L 165.327287 -80.698299 
L 165.389817 -83.15587 
L 165.456586 -85.613441 
L 165.517559 -88.071011 
L 165.56488 -90.528582 
L 165.593004 -92.986152 
L 165.597737 -95.443723 
L 165.574927 -97.901294 
L 165.519641 -100.358864 
L 165.426464 -102.816435 
L 165.291104 -105.274006 
L 165.112955 -107.731576 
L 164.897709 -110.189147 
L 164.658764 -112.646717 
L 164.416131 -115.104288 
L 164.192058 -117.561859 
L 164.003534 -120.019429 
L 163.85295 -122.477 
L 163.719078 -124.934571 
L 163.550774 -127.392141 
L 163.265559 -129.849712 
L 162.754632 -132.307283 
L 161.895378 -134.764853 
L 160.571661 -137.222424 
L 158.700653 -139.679994 
L 156.262097 -142.137565 
L 153.322372 -144.595136 
L 150.043734 -147.052706 
L 146.670939 -149.510277 
L 143.494202 -151.967848 
L 140.796864 -154.425418 
L 138.803434 -156.882989 
L 137.644302 -159.340559 
L 137.34634 -161.79813 
L 137.847487 -164.255701 
L 139.0247 -166.713271 
L 140.722816 -169.170842 
L 142.776743 -171.628413 
L 145.026328 -174.085983 
L 147.327333 -176.543554 
L 149.56126 -179.001125 
L 151.643504 -181.458695 
L 153.526993 -183.916266 
L 155.199057 -186.373836 
L 156.671928 -188.831407 
L 157.969943 -191.288978 
L 159.117549 -193.746548 
L 160.131402 -196.204119 
L 161.018025 -198.66169 
L 161.776442 -201.11926 
L 162.403702 -203.576831 
L 162.900583 -206.034401 
L 163.275224 -208.491972 
L 163.543685 -210.949543 
L 163.727823 -213.407113 
L 163.851716 -215.864684 
L 163.937945 -218.322255 
L 164.004678 -220.779825 
L 164.064025 -223.237396 
L 164.121922 -225.694967 
L 164.179586 -228.152537 
L 164.236222 -230.610108 
L 164.292104 -233.067678 
L 164.350752 -235.525249 
L 164.419089 -237.98282 
L 164.505323 -240.44039 
L 164.615419 -242.897961 
L 164.749894 -245.355532 
L 164.902496 -247.813102 
L 165.061428 -250.270673 
L 165.212467 -252.728243 
L 165.342518 -255.185814 
L 165.442183 -257.643385 
L 165.506696 -260.100955 
L 165.535492 -262.558526 
L 165.531275 -265.016097 
L 165.499345 -267.473667 
L 165.44741 -269.931238 
L 165.385515 -272.388809 
L 165.325408 -274.846379 
L 165.278954 -277.30395 
L 165.255771 -279.76152 
L 165.260915 -282.219091 
L 165.293617 -284.676662 
L 165.347722 -287.134232 
L 165.413695 -289.591803 
L 165.481411 -292.049374 
L 165.542636 -294.506944 
L 165.592437 -296.964515 
L 165.629302 -299.422085 
L 165.746631 -299.422085 
L 165.746631 -299.422085 
L 165.783496 -296.964515 
L 165.833297 -294.506944 
L 165.894522 -292.049374 
L 165.962238 -289.591803 
L 166.028211 -287.134232 
L 166.082316 -284.676662 
L 166.115018 -282.219091 
L 166.120162 -279.76152 
L 166.096979 -277.30395 
L 166.050525 -274.846379 
L 165.990418 -272.388809 
L 165.928523 -269.931238 
L 165.876588 -267.473667 
L 165.844658 -265.016097 
L 165.840441 -262.558526 
L 165.869237 -260.100955 
L 165.93375 -257.643385 
L 166.033416 -255.185814 
L 166.163466 -252.728243 
L 166.314505 -250.270673 
L 166.473437 -247.813102 
L 166.626039 -245.355532 
L 166.760514 -242.897961 
L 166.87061 -240.44039 
L 166.956844 -237.98282 
L 167.025181 -235.525249 
L 167.083829 -233.067678 
L 167.139711 -230.610108 
L 167.196347 -228.152537 
L 167.254011 -225.694967 
L 167.311908 -223.237396 
L 167.371255 -220.779825 
L 167.437988 -218.322255 
L 167.524217 -215.864684 
L 167.64811 -213.407113 
L 167.832249 -210.949543 
L 168.100709 -208.491972 
L 168.47535 -206.034401 
L 168.972231 -203.576831 
L 169.599491 -201.11926 
L 170.357908 -198.66169 
L 171.244531 -196.204119 
L 172.258384 -193.746548 
L 173.40599 -191.288978 
L 174.704005 -188.831407 
L 176.176876 -186.373836 
L 177.84894 -183.916266 
L 179.732429 -181.458695 
L 181.814673 -179.001125 
L 184.0486 -176.543554 
L 186.349605 -174.085983 
L 188.59919 -171.628413 
L 190.653117 -169.170842 
L 192.351233 -166.713271 
L 193.528446 -164.255701 
L 194.029593 -161.79813 
L 193.731631 -159.340559 
L 192.572499 -156.882989 
L 190.579069 -154.425418 
L 187.881731 -151.967848 
L 184.704994 -149.510277 
L 181.332199 -147.052706 
L 178.053561 -144.595136 
L 175.113836 -142.137565 
L 172.67528 -139.679994 
L 170.804272 -137.222424 
L 169.480555 -134.764853 
L 168.621301 -132.307283 
L 168.110374 -129.849712 
L 167.825159 -127.392141 
L 167.656855 -124.934571 
L 167.522983 -122.477 
L 167.372399 -120.019429 
L 167.183875 -117.561859 
L 166.959802 -115.104288 
L 166.717169 -112.646717 
L 166.478224 -110.189147 
L 166.262978 -107.731576 
L 166.084829 -105.274006 
L 165.949469 -102.816435 
L 165.856292 -100.358864 
L 165.801006 -97.901294 
L 165.778196 -95.443723 
L 165.782929 -92.986152 
L 165.811053 -90.528582 
L 165.858374 -88.071011 
L 165.919347 -85.613441 
L 165.986117 -83.15587 
L 166.048646 -80.698299 
L 166.096214 -78.240729 
L 166.119871 -75.783158 
L 166.114915 -73.325587 
L 166.082281 -70.868017 
L 166.028201 -68.410446 
L 165.962235 -65.952875 
L 165.894521 -63.495305 
L 165.833296 -61.037734 
L 165.783496 -58.580164 
L 165.746631 -56.122593 
z
" style="stroke: #3f3f3f; stroke-width: 1.25"/>
    </defs>
    <g clip-path="url(#p8f557f01e0)">
     <use xlink:href="#m6a629e316b" x="0" y="360" style="fill: #891ab9; stroke: #3f3f3f; stroke-width: 1.25"/>
    </g>
   </g>
   <g id="PolyCollection_3">
    <defs>
     <path id="m44b7512310" d="M 236.602413 -74.794058 
L 236.481654 -74.794058 
L 236.451684 -76.810968 
L 236.4128 -78.827878 
L 236.365312 -80.844788 
L 236.310957 -82.861698 
L 236.253003 -84.878608 
L 236.195981 -86.895518 
L 236.144961 -88.912428 
L 236.104472 -90.929338 
L 236.077265 -92.946249 
L 236.06325 -94.963159 
L 236.058908 -96.980069 
L 236.057434 -98.996979 
L 236.049692 -101.013889 
L 236.025834 -103.030799 
L 235.977308 -105.047709 
L 235.898807 -107.064619 
L 235.789667 -109.081529 
L 235.654266 -111.098439 
L 235.501098 -113.11535 
L 235.340462 -115.13226 
L 235.181009 -117.14917 
L 235.025715 -119.16608 
L 234.86809 -121.18299 
L 234.689454 -123.1999 
L 234.457966 -125.21681 
L 234.129709 -127.23372 
L 233.651797 -129.25063 
L 232.967163 -131.267541 
L 232.02062 -133.284451 
L 230.76581 -135.301361 
L 229.172695 -137.318271 
L 227.235152 -139.335181 
L 224.977836 -141.352091 
L 222.461046 -143.369001 
L 219.781983 -145.385911 
L 217.070847 -147.402821 
L 214.480966 -149.419732 
L 212.173348 -151.436642 
L 210.297566 -153.453552 
L 208.97217 -155.470462 
L 208.268364 -157.487372 
L 208.200407 -159.504282 
L 208.724886 -161.521192 
L 209.749179 -163.538102 
L 211.147406 -165.555012 
L 212.780591 -167.571922 
L 214.516904 -169.588833 
L 216.248061 -171.605743 
L 217.899083 -173.622653 
L 219.430333 -175.639563 
L 220.832699 -177.656473 
L 222.11827 -179.673383 
L 223.309573 -181.690293 
L 224.430229 -183.707203 
L 225.498819 -185.724113 
L 226.526426 -187.741024 
L 227.517083 -189.757934 
L 228.469719 -191.774844 
L 229.380239 -193.791754 
L 230.242923 -195.808664 
L 231.051015 -197.825574 
L 231.796961 -199.842484 
L 232.472858 -201.859394 
L 233.071501 -203.876304 
L 233.58798 -205.893214 
L 234.021351 -207.910125 
L 234.375729 -209.927035 
L 234.66024 -211.943945 
L 234.887608 -213.960855 
L 235.071643 -215.977765 
L 235.22428 -217.994675 
L 235.353028 -220.011585 
L 235.459605 -222.028495 
L 235.540176 -224.045405 
L 235.587168 -226.062316 
L 235.592182 -228.079226 
L 235.549253 -230.096136 
L 235.457638 -232.113046 
L 235.323456 -234.129956 
L 235.159781 -236.146866 
L 234.985194 -238.163776 
L 234.821087 -240.180686 
L 234.688354 -242.197596 
L 234.604175 -244.214506 
L 234.579568 -246.231417 
L 234.618159 -248.248327 
L 234.716298 -250.265237 
L 234.864348 -252.282147 
L 235.048706 -254.299057 
L 235.254077 -256.315967 
L 235.465552 -258.332877 
L 235.670202 -260.349787 
L 235.858065 -262.366697 
L 236.022549 -264.383608 
L 236.16034 -266.400518 
L 236.270973 -268.417428 
L 236.356172 -270.434338 
L 236.419111 -272.451248 
L 236.463701 -274.468158 
L 236.620366 -274.468158 
L 236.620366 -274.468158 
L 236.664956 -272.451248 
L 236.727895 -270.434338 
L 236.813094 -268.417428 
L 236.923727 -266.400518 
L 237.061518 -264.383608 
L 237.226001 -262.366697 
L 237.413865 -260.349787 
L 237.618515 -258.332877 
L 237.82999 -256.315967 
L 238.035361 -254.299057 
L 238.219719 -252.282147 
L 238.367769 -250.265237 
L 238.465908 -248.248327 
L 238.504499 -246.231417 
L 238.479892 -244.214506 
L 238.395713 -242.197596 
L 238.26298 -240.180686 
L 238.098873 -238.163776 
L 237.924286 -236.146866 
L 237.760611 -234.129956 
L 237.626429 -232.113046 
L 237.534814 -230.096136 
L 237.491885 -228.079226 
L 237.496899 -226.062316 
L 237.543891 -224.045405 
L 237.624462 -222.028495 
L 237.731038 -220.011585 
L 237.859787 -217.994675 
L 238.012424 -215.977765 
L 238.196459 -213.960855 
L 238.423827 -211.943945 
L 238.708338 -209.927035 
L 239.062716 -207.910125 
L 239.496087 -205.893214 
L 240.012566 -203.876304 
L 240.611209 -201.859394 
L 241.287106 -199.842484 
L 242.033052 -197.825574 
L 242.841144 -195.808664 
L 243.703828 -193.791754 
L 244.614348 -191.774844 
L 245.566984 -189.757934 
L 246.557641 -187.741024 
L 247.585248 -185.724113 
L 248.653838 -183.707203 
L 249.774494 -181.690293 
L 250.965797 -179.673383 
L 252.251368 -177.656473 
L 253.653734 -175.639563 
L 255.184984 -173.622653 
L 256.836006 -171.605743 
L 258.567163 -169.588833 
L 260.303476 -167.571922 
L 261.936661 -165.555012 
L 263.334888 -163.538102 
L 264.35918 -161.521192 
L 264.88366 -159.504282 
L 264.815703 -157.487372 
L 264.111897 -155.470462 
L 262.786501 -153.453552 
L 260.910719 -151.436642 
L 258.603101 -149.419732 
L 256.01322 -147.402821 
L 253.302084 -145.385911 
L 250.623021 -143.369001 
L 248.106231 -141.352091 
L 245.848915 -139.335181 
L 243.911372 -137.318271 
L 242.318257 -135.301361 
L 241.063447 -133.284451 
L 240.116904 -131.267541 
L 239.43227 -129.25063 
L 238.954358 -127.23372 
L 238.626101 -125.21681 
L 238.394613 -123.1999 
L 238.215977 -121.18299 
L 238.058352 -119.16608 
L 237.903058 -117.14917 
L 237.743605 -115.13226 
L 237.582969 -113.11535 
L 237.429801 -111.098439 
L 237.2944 -109.081529 
L 237.18526 -107.064619 
L 237.106759 -105.047709 
L 237.058233 -103.030799 
L 237.034375 -101.013889 
L 237.026633 -98.996979 
L 237.025159 -96.980069 
L 237.020817 -94.963159 
L 237.006802 -92.946249 
L 236.979595 -90.929338 
L 236.939106 -88.912428 
L 236.888086 -86.895518 
L 236.831064 -84.878608 
L 236.77311 -82.861698 
L 236.718755 -80.844788 
L 236.671267 -78.827878 
L 236.632383 -76.810968 
L 236.602413 -74.794058 
z
" style="stroke: #3f3f3f; stroke-width: 1.25"/>
    </defs>
    <g clip-path="url(#p8f557f01e0)">
     <use xlink:href="#m44b7512310" x="0" y="360" style="fill: #df9c20; stroke: #3f3f3f; stroke-width: 1.25"/>
    </g>
   </g>
   <g id="PolyCollection_4">
    <defs>
     <path id="ma991dd1fd3" d="M 307.455528 -75.306365 
L 307.336673 -75.306365 
L 307.300567 -77.221856 
L 307.252046 -79.137348 
L 307.19231 -81.05284 
L 307.125536 -82.968332 
L 307.058746 -84.883824 
L 307.000525 -86.799316 
L 306.958688 -88.714808 
L 306.937515 -90.6303 
L 306.935527 -92.545792 
L 306.944723 -94.461283 
L 306.951775 -96.376775 
L 306.941015 -98.292267 
L 306.898502 -100.207759 
L 306.816099 -102.123251 
L 306.694467 -104.038743 
L 306.544091 -105.954235 
L 306.383793 -107.869727 
L 306.23681 -109.785219 
L 306.125204 -111.70071 
L 306.064047 -113.616202 
L 306.057068 -115.531694 
L 306.094981 -117.447186 
L 306.156644 -119.362678 
L 306.211854 -121.27817 
L 306.223853 -123.193662 
L 306.149929 -125.109154 
L 305.939827 -127.024646 
L 305.533556 -128.940137 
L 304.861424 -130.855629 
L 303.849143 -132.771121 
L 302.42933 -134.686613 
L 300.558191 -136.602105 
L 298.233567 -138.517597 
L 295.508991 -140.433089 
L 292.498751 -142.348581 
L 289.371298 -144.264073 
L 286.331779 -146.179565 
L 283.597621 -148.095056 
L 281.3723 -150.010548 
L 279.821582 -151.92604 
L 279.054474 -153.841532 
L 279.109726 -155.757024 
L 279.948951 -157.672516 
L 281.458643 -159.588008 
L 283.463765 -161.5035 
L 285.75357 -163.418992 
L 288.11608 -165.334483 
L 290.373222 -167.249975 
L 292.406766 -169.165467 
L 294.167475 -171.080959 
L 295.665704 -172.996451 
L 296.948495 -174.911943 
L 298.072707 -176.827435 
L 299.083924 -178.742927 
L 300.006975 -180.658419 
L 300.848044 -182.57391 
L 301.603719 -184.489402 
L 302.270775 -186.404894 
L 302.852199 -188.320386 
L 303.35819 -190.235878 
L 303.803573 -192.15137 
L 304.204082 -194.066862 
L 304.57335 -195.982354 
L 304.921286 -197.897846 
L 305.253603 -199.813337 
L 305.572047 -201.728829 
L 305.87498 -203.644321 
L 306.158212 -205.559813 
L 306.416003 -207.475305 
L 306.642166 -209.390797 
L 306.831107 -211.306289 
L 306.978686 -213.221781 
L 307.082829 -215.137273 
L 307.14392 -217.052764 
L 307.165061 -218.968256 
L 307.152248 -220.883748 
L 307.114328 -222.79924 
L 307.062504 -224.714732 
L 307.009072 -226.630224 
L 306.965389 -228.545716 
L 306.939458 -230.461208 
L 306.933944 -232.3767 
L 306.945508 -234.292191 
L 306.965972 -236.207683 
L 306.985137 -238.123175 
L 306.994361 -240.038667 
L 306.989639 -241.954159 
L 306.973045 -243.869651 
L 306.952013 -245.785143 
L 306.936743 -247.700635 
L 306.936714 -249.616127 
L 306.957609 -251.531618 
L 306.999718 -253.44711 
L 307.058264 -255.362602 
L 307.125287 -257.278094 
L 307.192195 -259.193586 
L 307.251997 -261.109078 
L 307.300549 -263.02457 
L 307.336666 -264.940062 
L 307.455535 -264.940062 
L 307.455535 -264.940062 
L 307.491652 -263.02457 
L 307.540204 -261.109078 
L 307.600006 -259.193586 
L 307.666914 -257.278094 
L 307.733937 -255.362602 
L 307.792483 -253.44711 
L 307.834592 -251.531618 
L 307.855487 -249.616127 
L 307.855458 -247.700635 
L 307.840188 -245.785143 
L 307.819156 -243.869651 
L 307.802562 -241.954159 
L 307.79784 -240.038667 
L 307.807064 -238.123175 
L 307.826229 -236.207683 
L 307.846693 -234.292191 
L 307.858257 -232.3767 
L 307.852743 -230.461208 
L 307.826812 -228.545716 
L 307.783129 -226.630224 
L 307.729697 -224.714732 
L 307.677873 -222.79924 
L 307.639953 -220.883748 
L 307.62714 -218.968256 
L 307.648281 -217.052764 
L 307.709372 -215.137273 
L 307.813515 -213.221781 
L 307.961094 -211.306289 
L 308.150035 -209.390797 
L 308.376198 -207.475305 
L 308.633989 -205.559813 
L 308.91722 -203.644321 
L 309.220154 -201.728829 
L 309.538598 -199.813337 
L 309.870915 -197.897846 
L 310.218851 -195.982354 
L 310.588119 -194.066862 
L 310.988628 -192.15137 
L 311.434011 -190.235878 
L 311.940002 -188.320386 
L 312.521426 -186.404894 
L 313.188482 -184.489402 
L 313.944157 -182.57391 
L 314.785226 -180.658419 
L 315.708277 -178.742927 
L 316.719494 -176.827435 
L 317.843706 -174.911943 
L 319.126497 -172.996451 
L 320.624726 -171.080959 
L 322.385435 -169.165467 
L 324.418979 -167.249975 
L 326.676121 -165.334483 
L 329.038631 -163.418992 
L 331.328436 -161.5035 
L 333.333558 -159.588008 
L 334.84325 -157.672516 
L 335.682475 -155.757024 
L 335.737727 -153.841532 
L 334.970619 -151.92604 
L 333.419901 -150.010548 
L 331.19458 -148.095056 
L 328.460422 -146.179565 
L 325.420903 -144.264073 
L 322.29345 -142.348581 
L 319.28321 -140.433089 
L 316.558634 -138.517597 
L 314.23401 -136.602105 
L 312.362871 -134.686613 
L 310.943058 -132.771121 
L 309.930777 -130.855629 
L 309.258645 -128.940137 
L 308.852374 -127.024646 
L 308.642272 -125.109154 
L 308.568348 -123.193662 
L 308.580347 -121.27817 
L 308.635557 -119.362678 
L 308.69722 -117.447186 
L 308.735133 -115.531694 
L 308.728154 -113.616202 
L 308.666997 -111.70071 
L 308.555391 -109.785219 
L 308.408408 -107.869727 
L 308.24811 -105.954235 
L 308.097734 -104.038743 
L 307.976102 -102.123251 
L 307.893699 -100.207759 
L 307.851186 -98.292267 
L 307.840426 -96.376775 
L 307.847478 -94.461283 
L 307.856674 -92.545792 
L 307.854686 -90.6303 
L 307.833513 -88.714808 
L 307.791676 -86.799316 
L 307.733455 -84.883824 
L 307.666665 -82.968332 
L 307.599891 -81.05284 
L 307.540155 -79.137348 
L 307.491634 -77.221856 
L 307.455528 -75.306365 
z
" style="stroke: #3f3f3f; stroke-width: 1.25"/>
    </defs>
    <g clip-path="url(#p8f557f01e0)">
     <use xlink:href="#ma991dd1fd3" x="0" y="360" style="fill: #df2020; stroke: #3f3f3f; stroke-width: 1.25"/>
    </g>
   </g>
   <g id="matplotlib.axis_1">
    <g id="xtick_1">
     <g id="line2d_1">
      <defs>
       <path id="m95f9bea286" d="M 0 0 
L 0 3.5 
" style="stroke: #000000; stroke-width: 0.8"/>
      </defs>
      <g>
       <use xlink:href="#m95f9bea286" x="94.8339" y="316.10776" style="stroke: #000000; stroke-width: 0.8"/>
      </g>
     </g>
     <g id="text_1">
      <!-- sur -->
      <g transform="translate(82.291593 339.552412) rotate(-45) scale(0.1 -0.1)">
       <defs>
        <path id="DejaVuSans-73" d="M 2834 3397 
L 2834 2853 
Q 2591 2978 2328 3040 
Q 2066 3103 1784 3103 
Q 1356 3103 1142 2972 
Q 928 2841 928 2578 
Q 928 2378 1081 2264 
Q 1234 2150 1697 2047 
L 1894 2003 
Q 2506 1872 2764 1633 
Q 3022 1394 3022 966 
Q 3022 478 2636 193 
Q 2250 -91 1575 -91 
Q 1294 -91 989 -36 
Q 684 19 347 128 
L 347 722 
Q 666 556 975 473 
Q 1284 391 1588 391 
Q 1994 391 2212 530 
Q 2431 669 2431 922 
Q 2431 1156 2273 1281 
Q 2116 1406 1581 1522 
L 1381 1569 
Q 847 1681 609 1914 
Q 372 2147 372 2553 
Q 372 3047 722 3315 
Q 1072 3584 1716 3584 
Q 2034 3584 2315 3537 
Q 2597 3491 2834 3397 
z
" transform="scale(0.015625)"/>
        <path id="DejaVuSans-75" d="M 544 1381 
L 544 3500 
L 1119 3500 
L 1119 1403 
Q 1119 906 1312 657 
Q 1506 409 1894 409 
Q 2359 409 2629 706 
Q 2900 1003 2900 1516 
L 2900 3500 
L 3475 3500 
L 3475 0 
L 2900 0 
L 2900 538 
Q 2691 219 2414 64 
Q 2138 -91 1772 -91 
Q 1169 -91 856 284 
Q 544 659 544 1381 
z
M 1991 3584 
L 1991 3584 
z
" transform="scale(0.015625)"/>
        <path id="DejaVuSans-72" d="M 2631 2963 
Q 2534 3019 2420 3045 
Q 2306 3072 2169 3072 
Q 1681 3072 1420 2755 
Q 1159 2438 1159 1844 
L 1159 0 
L 581 0 
L 581 3500 
L 1159 3500 
L 1159 2956 
Q 1341 3275 1631 3429 
Q 1922 3584 2338 3584 
Q 2397 3584 2469 3576 
Q 2541 3569 2628 3553 
L 2631 2963 
z
" transform="scale(0.015625)"/>
       </defs>
       <use xlink:href="#DejaVuSans-73"/>
       <use xlink:href="#DejaVuSans-75" x="52.099609"/>
       <use xlink:href="#DejaVuSans-72" x="115.478516"/>
      </g>
     </g>
    </g>
    <g id="xtick_2">
     <g id="line2d_2">
      <g>
       <use xlink:href="#m95f9bea286" x="165.687967" y="316.10776" style="stroke: #000000; stroke-width: 0.8"/>
      </g>
     </g>
     <g id="text_2">
      <!-- iso90 -->
      <g transform="translate(145.244847 347.453225) rotate(-45) scale(0.1 -0.1)">
       <defs>
        <path id="DejaVuSans-69" d="M 603 3500 
L 1178 3500 
L 1178 0 
L 603 0 
L 603 3500 
z
M 603 4863 
L 1178 4863 
L 1178 4134 
L 603 4134 
L 603 4863 
z
" transform="scale(0.015625)"/>
        <path id="DejaVuSans-6f" d="M 1959 3097 
Q 1497 3097 1228 2736 
Q 959 2375 959 1747 
Q 959 1119 1226 758 
Q 1494 397 1959 397 
Q 2419 397 2687 759 
Q 2956 1122 2956 1747 
Q 2956 2369 2687 2733 
Q 2419 3097 1959 3097 
z
M 1959 3584 
Q 2709 3584 3137 3096 
Q 3566 2609 3566 1747 
Q 3566 888 3137 398 
Q 2709 -91 1959 -91 
Q 1206 -91 779 398 
Q 353 888 353 1747 
Q 353 2609 779 3096 
Q 1206 3584 1959 3584 
z
" transform="scale(0.015625)"/>
        <path id="DejaVuSans-39" d="M 703 97 
L 703 672 
Q 941 559 1184 500 
Q 1428 441 1663 441 
Q 2288 441 2617 861 
Q 2947 1281 2994 2138 
Q 2813 1869 2534 1725 
Q 2256 1581 1919 1581 
Q 1219 1581 811 2004 
Q 403 2428 403 3163 
Q 403 3881 828 4315 
Q 1253 4750 1959 4750 
Q 2769 4750 3195 4129 
Q 3622 3509 3622 2328 
Q 3622 1225 3098 567 
Q 2575 -91 1691 -91 
Q 1453 -91 1209 -44 
Q 966 3 703 97 
z
M 1959 2075 
Q 2384 2075 2632 2365 
Q 2881 2656 2881 3163 
Q 2881 3666 2632 3958 
Q 2384 4250 1959 4250 
Q 1534 4250 1286 3958 
Q 1038 3666 1038 3163 
Q 1038 2656 1286 2365 
Q 1534 2075 1959 2075 
z
" transform="scale(0.015625)"/>
        <path id="DejaVuSans-30" d="M 2034 4250 
Q 1547 4250 1301 3770 
Q 1056 3291 1056 2328 
Q 1056 1369 1301 889 
Q 1547 409 2034 409 
Q 2525 409 2770 889 
Q 3016 1369 3016 2328 
Q 3016 3291 2770 3770 
Q 2525 4250 2034 4250 
z
M 2034 4750 
Q 2819 4750 3233 4129 
Q 3647 3509 3647 2328 
Q 3647 1150 3233 529 
Q 2819 -91 2034 -91 
Q 1250 -91 836 529 
Q 422 1150 422 2328 
Q 422 3509 836 4129 
Q 1250 4750 2034 4750 
z
" transform="scale(0.015625)"/>
       </defs>
       <use xlink:href="#DejaVuSans-69"/>
       <use xlink:href="#DejaVuSans-73" x="27.783203"/>
       <use xlink:href="#DejaVuSans-6f" x="79.882812"/>
       <use xlink:href="#DejaVuSans-39" x="141.064453"/>
       <use xlink:href="#DejaVuSans-30" x="204.6875"/>
      </g>
     </g>
    </g>
    <g id="xtick_3">
     <g id="line2d_3">
      <g>
       <use xlink:href="#m95f9bea286" x="236.542033" y="316.10776" style="stroke: #000000; stroke-width: 0.8"/>
      </g>
     </g>
     <g id="text_3">
      <!-- orth -->
      <g transform="translate(220.584622 342.967517) rotate(-45) scale(0.1 -0.1)">
       <defs>
        <path id="DejaVuSans-74" d="M 1172 4494 
L 1172 3500 
L 2356 3500 
L 2356 3053 
L 1172 3053 
L 1172 1153 
Q 1172 725 1289 603 
Q 1406 481 1766 481 
L 2356 481 
L 2356 0 
L 1766 0 
Q 1100 0 847 248 
Q 594 497 594 1153 
L 594 3053 
L 172 3053 
L 172 3500 
L 594 3500 
L 594 4494 
L 1172 4494 
z
" transform="scale(0.015625)"/>
        <path id="DejaVuSans-68" d="M 3513 2113 
L 3513 0 
L 2938 0 
L 2938 2094 
Q 2938 2591 2744 2837 
Q 2550 3084 2163 3084 
Q 1697 3084 1428 2787 
Q 1159 2491 1159 1978 
L 1159 0 
L 581 0 
L 581 4863 
L 1159 4863 
L 1159 2956 
Q 1366 3272 1645 3428 
Q 1925 3584 2291 3584 
Q 2894 3584 3203 3211 
Q 3513 2838 3513 2113 
z
" transform="scale(0.015625)"/>
       </defs>
       <use xlink:href="#DejaVuSans-6f"/>
       <use xlink:href="#DejaVuSans-72" x="61.181641"/>
       <use xlink:href="#DejaVuSans-74" x="102.294922"/>
       <use xlink:href="#DejaVuSans-68" x="141.503906"/>
      </g>
     </g>
    </g>
    <g id="xtick_4">
     <g id="line2d_4">
      <g>
       <use xlink:href="#m95f9bea286" x="307.3961" y="316.10776" style="stroke: #000000; stroke-width: 0.8"/>
      </g>
     </g>
     <g id="text_4">
      <!-- iso0 -->
      <g transform="translate(291.451947 342.954258) rotate(-45) scale(0.1 -0.1)">
       <use xlink:href="#DejaVuSans-69"/>
       <use xlink:href="#DejaVuSans-73" x="27.783203"/>
       <use xlink:href="#DejaVuSans-6f" x="79.882812"/>
       <use xlink:href="#DejaVuSans-30" x="141.064453"/>
      </g>
     </g>
    </g>
   </g>
   <g id="matplotlib.axis_2">
    <g id="ytick_1">
     <g id="line2d_5">
      <defs>
       <path id="mf1eec811ef" d="M 0 0 
L -3.5 0 
" style="stroke: #000000; stroke-width: 0.8"/>
      </defs>
      <g>
       <use xlink:href="#mf1eec811ef" x="53.03" y="288.283025" style="stroke: #000000; stroke-width: 0.8"/>
      </g>
     </g>
     <g id="text_5">
      <!-- −10 -->
      <g transform="translate(24.925313 292.082243) scale(0.1 -0.1)">
       <defs>
        <path id="DejaVuSans-2212" d="M 678 2272 
L 4684 2272 
L 4684 1741 
L 678 1741 
L 678 2272 
z
" transform="scale(0.015625)"/>
        <path id="DejaVuSans-31" d="M 794 531 
L 1825 531 
L 1825 4091 
L 703 3866 
L 703 4441 
L 1819 4666 
L 2450 4666 
L 2450 531 
L 3481 531 
L 3481 0 
L 794 0 
L 794 531 
z
" transform="scale(0.015625)"/>
       </defs>
       <use xlink:href="#DejaVuSans-2212"/>
       <use xlink:href="#DejaVuSans-31" x="83.789062"/>
       <use xlink:href="#DejaVuSans-30" x="147.412109"/>
      </g>
     </g>
    </g>
    <g id="ytick_2">
     <g id="line2d_6">
      <g>
       <use xlink:href="#mf1eec811ef" x="53.03" y="255.512008" style="stroke: #000000; stroke-width: 0.8"/>
      </g>
     </g>
     <g id="text_6">
      <!-- −5 -->
      <g transform="translate(31.287813 259.311226) scale(0.1 -0.1)">
       <defs>
        <path id="DejaVuSans-35" d="M 691 4666 
L 3169 4666 
L 3169 4134 
L 1269 4134 
L 1269 2991 
Q 1406 3038 1543 3061 
Q 1681 3084 1819 3084 
Q 2600 3084 3056 2656 
Q 3513 2228 3513 1497 
Q 3513 744 3044 326 
Q 2575 -91 1722 -91 
Q 1428 -91 1123 -41 
Q 819 9 494 109 
L 494 744 
Q 775 591 1075 516 
Q 1375 441 1709 441 
Q 2250 441 2565 725 
Q 2881 1009 2881 1497 
Q 2881 1984 2565 2268 
Q 2250 2553 1709 2553 
Q 1456 2553 1204 2497 
Q 953 2441 691 2322 
L 691 4666 
z
" transform="scale(0.015625)"/>
       </defs>
       <use xlink:href="#DejaVuSans-2212"/>
       <use xlink:href="#DejaVuSans-35" x="83.789062"/>
      </g>
     </g>
    </g>
    <g id="ytick_3">
     <g id="line2d_7">
      <g>
       <use xlink:href="#mf1eec811ef" x="53.03" y="222.740991" style="stroke: #000000; stroke-width: 0.8"/>
      </g>
     </g>
     <g id="text_7">
      <!-- 0 -->
      <g transform="translate(39.6675 226.540209) scale(0.1 -0.1)">
       <use xlink:href="#DejaVuSans-30"/>
      </g>
     </g>
    </g>
    <g id="ytick_4">
     <g id="line2d_8">
      <g>
       <use xlink:href="#mf1eec811ef" x="53.03" y="189.969974" style="stroke: #000000; stroke-width: 0.8"/>
      </g>
     </g>
     <g id="text_8">
      <!-- 5 -->
      <g transform="translate(39.6675 193.769192) scale(0.1 -0.1)">
       <use xlink:href="#DejaVuSans-35"/>
      </g>
     </g>
    </g>
    <g id="ytick_5">
     <g id="line2d_9">
      <g>
       <use xlink:href="#mf1eec811ef" x="53.03" y="157.198957" style="stroke: #000000; stroke-width: 0.8"/>
      </g>
     </g>
     <g id="text_9">
      <!-- 10 -->
      <g transform="translate(33.305 160.998175) scale(0.1 -0.1)">
       <use xlink:href="#DejaVuSans-31"/>
       <use xlink:href="#DejaVuSans-30" x="63.623047"/>
      </g>
     </g>
    </g>
    <g id="ytick_6">
     <g id="line2d_10">
      <g>
       <use xlink:href="#mf1eec811ef" x="53.03" y="124.427939" style="stroke: #000000; stroke-width: 0.8"/>
      </g>
     </g>
     <g id="text_10">
      <!-- 15 -->
      <g transform="translate(33.305 128.227158) scale(0.1 -0.1)">
       <use xlink:href="#DejaVuSans-31"/>
       <use xlink:href="#DejaVuSans-35" x="63.623047"/>
      </g>
     </g>
    </g>
    <g id="ytick_7">
     <g id="line2d_11">
      <g>
       <use xlink:href="#mf1eec811ef" x="53.03" y="91.656922" style="stroke: #000000; stroke-width: 0.8"/>
      </g>
     </g>
     <g id="text_11">
      <!-- 20 -->
      <g transform="translate(33.305 95.456141) scale(0.1 -0.1)">
       <defs>
        <path id="DejaVuSans-32" d="M 1228 531 
L 3431 531 
L 3431 0 
L 469 0 
L 469 531 
Q 828 903 1448 1529 
Q 2069 2156 2228 2338 
Q 2531 2678 2651 2914 
Q 2772 3150 2772 3378 
Q 2772 3750 2511 3984 
Q 2250 4219 1831 4219 
Q 1534 4219 1204 4116 
Q 875 4013 500 3803 
L 500 4441 
Q 881 4594 1212 4672 
Q 1544 4750 1819 4750 
Q 2544 4750 2975 4387 
Q 3406 4025 3406 3419 
Q 3406 3131 3298 2873 
Q 3191 2616 2906 2266 
Q 2828 2175 2409 1742 
Q 1991 1309 1228 531 
z
" transform="scale(0.015625)"/>
       </defs>
       <use xlink:href="#DejaVuSans-32"/>
       <use xlink:href="#DejaVuSans-30" x="63.623047"/>
      </g>
     </g>
    </g>
    <g id="ytick_8">
     <g id="line2d_12">
      <g>
       <use xlink:href="#mf1eec811ef" x="53.03" y="58.885905" style="stroke: #000000; stroke-width: 0.8"/>
      </g>
     </g>
     <g id="text_12">
      <!-- 25 -->
      <g transform="translate(33.305 62.685124) scale(0.1 -0.1)">
       <use xlink:href="#DejaVuSans-32"/>
       <use xlink:href="#DejaVuSans-35" x="63.623047"/>
      </g>
     </g>
    </g>
    <g id="text_13">
     <!-- Average BOLD Response -->
     <g transform="translate(18.845625 243.213724) rotate(-90) scale(0.1 -0.1)">
      <defs>
       <path id="DejaVuSans-41" d="M 2188 4044 
L 1331 1722 
L 3047 1722 
L 2188 4044 
z
M 1831 4666 
L 2547 4666 
L 4325 0 
L 3669 0 
L 3244 1197 
L 1141 1197 
L 716 0 
L 50 0 
L 1831 4666 
z
" transform="scale(0.015625)"/>
       <path id="DejaVuSans-76" d="M 191 3500 
L 800 3500 
L 1894 563 
L 2988 3500 
L 3597 3500 
L 2284 0 
L 1503 0 
L 191 3500 
z
" transform="scale(0.015625)"/>
       <path id="DejaVuSans-65" d="M 3597 1894 
L 3597 1613 
L 953 1613 
Q 991 1019 1311 708 
Q 1631 397 2203 397 
Q 2534 397 2845 478 
Q 3156 559 3463 722 
L 3463 178 
Q 3153 47 2828 -22 
Q 2503 -91 2169 -91 
Q 1331 -91 842 396 
Q 353 884 353 1716 
Q 353 2575 817 3079 
Q 1281 3584 2069 3584 
Q 2775 3584 3186 3129 
Q 3597 2675 3597 1894 
z
M 3022 2063 
Q 3016 2534 2758 2815 
Q 2500 3097 2075 3097 
Q 1594 3097 1305 2825 
Q 1016 2553 972 2059 
L 3022 2063 
z
" transform="scale(0.015625)"/>
       <path id="DejaVuSans-61" d="M 2194 1759 
Q 1497 1759 1228 1600 
Q 959 1441 959 1056 
Q 959 750 1161 570 
Q 1363 391 1709 391 
Q 2188 391 2477 730 
Q 2766 1069 2766 1631 
L 2766 1759 
L 2194 1759 
z
M 3341 1997 
L 3341 0 
L 2766 0 
L 2766 531 
Q 2569 213 2275 61 
Q 1981 -91 1556 -91 
Q 1019 -91 701 211 
Q 384 513 384 1019 
Q 384 1609 779 1909 
Q 1175 2209 1959 2209 
L 2766 2209 
L 2766 2266 
Q 2766 2663 2505 2880 
Q 2244 3097 1772 3097 
Q 1472 3097 1187 3025 
Q 903 2953 641 2809 
L 641 3341 
Q 956 3463 1253 3523 
Q 1550 3584 1831 3584 
Q 2591 3584 2966 3190 
Q 3341 2797 3341 1997 
z
" transform="scale(0.015625)"/>
       <path id="DejaVuSans-67" d="M 2906 1791 
Q 2906 2416 2648 2759 
Q 2391 3103 1925 3103 
Q 1463 3103 1205 2759 
Q 947 2416 947 1791 
Q 947 1169 1205 825 
Q 1463 481 1925 481 
Q 2391 481 2648 825 
Q 2906 1169 2906 1791 
z
M 3481 434 
Q 3481 -459 3084 -895 
Q 2688 -1331 1869 -1331 
Q 1566 -1331 1297 -1286 
Q 1028 -1241 775 -1147 
L 775 -588 
Q 1028 -725 1275 -790 
Q 1522 -856 1778 -856 
Q 2344 -856 2625 -561 
Q 2906 -266 2906 331 
L 2906 616 
Q 2728 306 2450 153 
Q 2172 0 1784 0 
Q 1141 0 747 490 
Q 353 981 353 1791 
Q 353 2603 747 3093 
Q 1141 3584 1784 3584 
Q 2172 3584 2450 3431 
Q 2728 3278 2906 2969 
L 2906 3500 
L 3481 3500 
L 3481 434 
z
" transform="scale(0.015625)"/>
       <path id="DejaVuSans-20" transform="scale(0.015625)"/>
       <path id="DejaVuSans-42" d="M 1259 2228 
L 1259 519 
L 2272 519 
Q 2781 519 3026 730 
Q 3272 941 3272 1375 
Q 3272 1813 3026 2020 
Q 2781 2228 2272 2228 
L 1259 2228 
z
M 1259 4147 
L 1259 2741 
L 2194 2741 
Q 2656 2741 2882 2914 
Q 3109 3088 3109 3444 
Q 3109 3797 2882 3972 
Q 2656 4147 2194 4147 
L 1259 4147 
z
M 628 4666 
L 2241 4666 
Q 2963 4666 3353 4366 
Q 3744 4066 3744 3513 
Q 3744 3084 3544 2831 
Q 3344 2578 2956 2516 
Q 3422 2416 3680 2098 
Q 3938 1781 3938 1306 
Q 3938 681 3513 340 
Q 3088 0 2303 0 
L 628 0 
L 628 4666 
z
" transform="scale(0.015625)"/>
       <path id="DejaVuSans-4f" d="M 2522 4238 
Q 1834 4238 1429 3725 
Q 1025 3213 1025 2328 
Q 1025 1447 1429 934 
Q 1834 422 2522 422 
Q 3209 422 3611 934 
Q 4013 1447 4013 2328 
Q 4013 3213 3611 3725 
Q 3209 4238 2522 4238 
z
M 2522 4750 
Q 3503 4750 4090 4092 
Q 4678 3434 4678 2328 
Q 4678 1225 4090 567 
Q 3503 -91 2522 -91 
Q 1538 -91 948 565 
Q 359 1222 359 2328 
Q 359 3434 948 4092 
Q 1538 4750 2522 4750 
z
" transform="scale(0.015625)"/>
       <path id="DejaVuSans-4c" d="M 628 4666 
L 1259 4666 
L 1259 531 
L 3531 531 
L 3531 0 
L 628 0 
L 628 4666 
z
" transform="scale(0.015625)"/>
       <path id="DejaVuSans-44" d="M 1259 4147 
L 1259 519 
L 2022 519 
Q 2988 519 3436 956 
Q 3884 1394 3884 2338 
Q 3884 3275 3436 3711 
Q 2988 4147 2022 4147 
L 1259 4147 
z
M 628 4666 
L 1925 4666 
Q 3281 4666 3915 4102 
Q 4550 3538 4550 2338 
Q 4550 1131 3912 565 
Q 3275 0 1925 0 
L 628 0 
L 628 4666 
z
" transform="scale(0.015625)"/>
       <path id="DejaVuSans-52" d="M 2841 2188 
Q 3044 2119 3236 1894 
Q 3428 1669 3622 1275 
L 4263 0 
L 3584 0 
L 2988 1197 
Q 2756 1666 2539 1819 
Q 2322 1972 1947 1972 
L 1259 1972 
L 1259 0 
L 628 0 
L 628 4666 
L 2053 4666 
Q 2853 4666 3247 4331 
Q 3641 3997 3641 3322 
Q 3641 2881 3436 2590 
Q 3231 2300 2841 2188 
z
M 1259 4147 
L 1259 2491 
L 2053 2491 
Q 2509 2491 2742 2702 
Q 2975 2913 2975 3322 
Q 2975 3731 2742 3939 
Q 2509 4147 2053 4147 
L 1259 4147 
z
" transform="scale(0.015625)"/>
       <path id="DejaVuSans-70" d="M 1159 525 
L 1159 -1331 
L 581 -1331 
L 581 3500 
L 1159 3500 
L 1159 2969 
Q 1341 3281 1617 3432 
Q 1894 3584 2278 3584 
Q 2916 3584 3314 3078 
Q 3713 2572 3713 1747 
Q 3713 922 3314 415 
Q 2916 -91 2278 -91 
Q 1894 -91 1617 61 
Q 1341 213 1159 525 
z
M 3116 1747 
Q 3116 2381 2855 2742 
Q 2594 3103 2138 3103 
Q 1681 3103 1420 2742 
Q 1159 2381 1159 1747 
Q 1159 1113 1420 752 
Q 1681 391 2138 391 
Q 2594 391 2855 752 
Q 3116 1113 3116 1747 
z
" transform="scale(0.015625)"/>
       <path id="DejaVuSans-6e" d="M 3513 2113 
L 3513 0 
L 2938 0 
L 2938 2094 
Q 2938 2591 2744 2837 
Q 2550 3084 2163 3084 
Q 1697 3084 1428 2787 
Q 1159 2491 1159 1978 
L 1159 0 
L 581 0 
L 581 3500 
L 1159 3500 
L 1159 2956 
Q 1366 3272 1645 3428 
Q 1925 3584 2291 3584 
Q 2894 3584 3203 3211 
Q 3513 2838 3513 2113 
z
" transform="scale(0.015625)"/>
      </defs>
      <use xlink:href="#DejaVuSans-41"/>
      <use xlink:href="#DejaVuSans-76" x="62.533203"/>
      <use xlink:href="#DejaVuSans-65" x="121.712891"/>
      <use xlink:href="#DejaVuSans-72" x="183.236328"/>
      <use xlink:href="#DejaVuSans-61" x="224.349609"/>
      <use xlink:href="#DejaVuSans-67" x="285.628906"/>
      <use xlink:href="#DejaVuSans-65" x="349.105469"/>
      <use xlink:href="#DejaVuSans-20" x="410.628906"/>
      <use xlink:href="#DejaVuSans-42" x="442.416016"/>
      <use xlink:href="#DejaVuSans-4f" x="509.269531"/>
      <use xlink:href="#DejaVuSans-4c" x="587.980469"/>
      <use xlink:href="#DejaVuSans-44" x="643.693359"/>
      <use xlink:href="#DejaVuSans-20" x="720.695312"/>
      <use xlink:href="#DejaVuSans-52" x="752.482422"/>
      <use xlink:href="#DejaVuSans-65" x="817.464844"/>
      <use xlink:href="#DejaVuSans-73" x="878.988281"/>
      <use xlink:href="#DejaVuSans-70" x="931.087891"/>
      <use xlink:href="#DejaVuSans-6f" x="994.564453"/>
      <use xlink:href="#DejaVuSans-6e" x="1055.746094"/>
      <use xlink:href="#DejaVuSans-73" x="1119.125"/>
      <use xlink:href="#DejaVuSans-65" x="1171.224609"/>
     </g>
    </g>
   </g>
   <g id="line2d_13">
    <path d="M 80.663086 192.018342 
L 109.004713 192.018342 
" clip-path="url(#p8f557f01e0)" style="fill: none; stroke: #b2b2b2; stroke-width: 2; stroke-linecap: square"/>
   </g>
   <g id="line2d_14">
    <path d="M 151.517153 192.116469 
L 179.85878 192.116469 
" clip-path="url(#p8f557f01e0)" style="fill: none; stroke: #9400d3; stroke-width: 2; stroke-linecap: square"/>
   </g>
   <g id="line2d_15">
    <path d="M 222.37122 192.676651 
L 250.712847 192.676651 
" clip-path="url(#p8f557f01e0)" style="fill: none; stroke: #ffa500; stroke-width: 2; stroke-linecap: square"/>
   </g>
   <g id="line2d_16">
    <path d="M 293.225287 200.589895 
L 321.566914 200.589895 
" clip-path="url(#p8f557f01e0)" style="fill: none; stroke: #ff0000; stroke-width: 2; stroke-linecap: square"/>
   </g>
   <g id="patch_3">
    <path d="M 53.03 316.10776 
L 53.03 47.04 
" style="fill: none; stroke: #000000; stroke-width: 0.8; stroke-linejoin: miter; stroke-linecap: square"/>
   </g>
   <g id="patch_4">
    <path d="M 349.2 316.10776 
L 349.2 47.04 
" style="fill: none; stroke: #000000; stroke-width: 0.8; stroke-linejoin: miter; stroke-linecap: square"/>
   </g>
   <g id="patch_5">
    <path d="M 53.03 316.10776 
L 349.2 316.10776 
" style="fill: none; stroke: #000000; stroke-width: 0.8; stroke-linejoin: miter; stroke-linecap: square"/>
   </g>
   <g id="patch_6">
    <path d="M 53.03 47.04 
L 349.2 47.04 
" style="fill: none; stroke: #000000; stroke-width: 0.8; stroke-linejoin: miter; stroke-linecap: square"/>
   </g>
   <g id="PathCollection_1">
    <defs>
     <path id="m112d43e4d0" d="M 0 2.5 
C 0.663008 2.5 1.29895 2.236584 1.767767 1.767767 
C 2.236584 1.29895 2.5 0.663008 2.5 0 
C 2.5 -0.663008 2.236584 -1.29895 1.767767 -1.767767 
C 1.29895 -2.236584 0.663008 -2.5 0 -2.5 
C -0.663008 -2.5 -1.29895 -2.236584 -1.767767 -1.767767 
C -2.236584 -1.29895 -2.5 -0.663008 -2.5 0 
C -2.5 0.663008 -2.236584 1.29895 -1.767767 1.767767 
C -1.29895 2.236584 -0.663008 2.5 0 2.5 
z
"/>
    </defs>
    <g clip-path="url(#p8f557f01e0)">
     <use xlink:href="#m112d43e4d0" x="66.492273" y="198.343058" style="fill-opacity: 0.7"/>
     <use xlink:href="#m112d43e4d0" x="99.90529" y="124.137019" style="fill-opacity: 0.7"/>
     <use xlink:href="#m112d43e4d0" x="110.983293" y="191.662664" style="fill-opacity: 0.7"/>
     <use xlink:href="#m112d43e4d0" x="66.492273" y="194.268813" style="fill-opacity: 0.7"/>
     <use xlink:href="#m112d43e4d0" x="85.660992" y="196.15183" style="fill-opacity: 0.7"/>
     <use xlink:href="#m112d43e4d0" x="117.844378" y="200.471934" style="fill-opacity: 0.7"/>
     <use xlink:href="#m112d43e4d0" x="123.175526" y="199.674237" style="fill-opacity: 0.7"/>
     <use xlink:href="#m112d43e4d0" x="99.124898" y="179.598422" style="fill-opacity: 0.7"/>
     <use xlink:href="#m112d43e4d0" x="96.588095" y="196.538964" style="fill-opacity: 0.7"/>
     <use xlink:href="#m112d43e4d0" x="80.822177" y="182.405149" style="fill-opacity: 0.7"/>
     <use xlink:href="#m112d43e4d0" x="123.175526" y="193.964494" style="fill-opacity: 0.7"/>
     <use xlink:href="#m112d43e4d0" x="66.492273" y="194.018534" style="fill-opacity: 0.7"/>
     <use xlink:href="#m112d43e4d0" x="123.175526" y="202.892168" style="fill-opacity: 0.7"/>
     <use xlink:href="#m112d43e4d0" x="89.046768" y="209.948977" style="fill-opacity: 0.7"/>
     <use xlink:href="#m112d43e4d0" x="81.496084" y="193.107778" style="fill-opacity: 0.7"/>
     <use xlink:href="#m112d43e4d0" x="94.8339" y="210.775509" style="fill-opacity: 0.7"/>
     <use xlink:href="#m112d43e4d0" x="102.015428" y="144.493849" style="fill-opacity: 0.7"/>
     <use xlink:href="#m112d43e4d0" x="94.8339" y="79.245392" style="fill-opacity: 0.7"/>
     <use xlink:href="#m112d43e4d0" x="123.175526" y="203.946763" style="fill-opacity: 0.7"/>
     <use xlink:href="#m112d43e4d0" x="97.868197" y="186.620121" style="fill-opacity: 0.7"/>
     <use xlink:href="#m112d43e4d0" x="96.087509" y="163.130759" style="fill-opacity: 0.7"/>
     <use xlink:href="#m112d43e4d0" x="109.349232" y="196.602069" style="fill-opacity: 0.7"/>
     <use xlink:href="#m112d43e4d0" x="93.043204" y="206.075347" style="fill-opacity: 0.7"/>
     <use xlink:href="#m112d43e4d0" x="72.184666" y="206.398416" style="fill-opacity: 0.7"/>
     <use xlink:href="#m112d43e4d0" x="94.8339" y="125.430119" style="fill-opacity: 0.7"/>
     <use xlink:href="#m112d43e4d0" x="108.048829" y="184.189129" style="fill-opacity: 0.7"/>
     <use xlink:href="#m112d43e4d0" x="108.260725" y="203.47245" style="fill-opacity: 0.7"/>
     <use xlink:href="#m112d43e4d0" x="91.589695" y="178.548138" style="fill-opacity: 0.7"/>
     <use xlink:href="#m112d43e4d0" x="90.350733" y="185.780975" style="fill-opacity: 0.7"/>
     <use xlink:href="#m112d43e4d0" x="123.175526" y="203.01449" style="fill-opacity: 0.7"/>
     <use xlink:href="#m112d43e4d0" x="114.572204" y="196.095369" style="fill-opacity: 0.7"/>
     <use xlink:href="#m112d43e4d0" x="94.8339" y="174.704812" style="fill-opacity: 0.7"/>
     <use xlink:href="#m112d43e4d0" x="89.603256" y="125.001161" style="fill-opacity: 0.7"/>
     <use xlink:href="#m112d43e4d0" x="115.933738" y="189.997876" style="fill-opacity: 0.7"/>
     <use xlink:href="#m112d43e4d0" x="123.037564" y="199.738342" style="fill-opacity: 0.7"/>
     <use xlink:href="#m112d43e4d0" x="97.292692" y="170.287074" style="fill-opacity: 0.7"/>
     <use xlink:href="#m112d43e4d0" x="123.175526" y="188.562363" style="fill-opacity: 0.7"/>
     <use xlink:href="#m112d43e4d0" x="85.128787" y="185.264768" style="fill-opacity: 0.7"/>
     <use xlink:href="#m112d43e4d0" x="94.8339" y="132.912214" style="fill-opacity: 0.7"/>
     <use xlink:href="#m112d43e4d0" x="123.175526" y="201.553826" style="fill-opacity: 0.7"/>
     <use xlink:href="#m112d43e4d0" x="101.904988" y="195.430948" style="fill-opacity: 0.7"/>
     <use xlink:href="#m112d43e4d0" x="105.224178" y="154.084076" style="fill-opacity: 0.7"/>
     <use xlink:href="#m112d43e4d0" x="96.847949" y="145.376874" style="fill-opacity: 0.7"/>
     <use xlink:href="#m112d43e4d0" x="123.175526" y="194.062407" style="fill-opacity: 0.7"/>
     <use xlink:href="#m112d43e4d0" x="81.23602" y="177.108311" style="fill-opacity: 0.7"/>
     <use xlink:href="#m112d43e4d0" x="77.210774" y="190.219281" style="fill-opacity: 0.7"/>
     <use xlink:href="#m112d43e4d0" x="94.8339" y="149.994312" style="fill-opacity: 0.7"/>
     <use xlink:href="#m112d43e4d0" x="80.780851" y="198.694655" style="fill-opacity: 0.7"/>
     <use xlink:href="#m112d43e4d0" x="93.118587" y="167.25447" style="fill-opacity: 0.7"/>
     <use xlink:href="#m112d43e4d0" x="94.8339" y="280.66423" style="fill-opacity: 0.7"/>
     <use xlink:href="#m112d43e4d0" x="99.620717" y="242.270264" style="fill-opacity: 0.7"/>
     <use xlink:href="#m112d43e4d0" x="66.492273" y="197.632399" style="fill-opacity: 0.7"/>
     <use xlink:href="#m112d43e4d0" x="100.003819" y="154.614637" style="fill-opacity: 0.7"/>
     <use xlink:href="#m112d43e4d0" x="94.8339" y="155.484611" style="fill-opacity: 0.7"/>
     <use xlink:href="#m112d43e4d0" x="91.767025" y="194.559527" style="fill-opacity: 0.7"/>
     <use xlink:href="#m112d43e4d0" x="93.685878" y="189.642443" style="fill-opacity: 0.7"/>
     <use xlink:href="#m112d43e4d0" x="76.632683" y="202.278169" style="fill-opacity: 0.7"/>
     <use xlink:href="#m112d43e4d0" x="90.412081" y="172.009386" style="fill-opacity: 0.7"/>
     <use xlink:href="#m112d43e4d0" x="123.175526" y="197.939201" style="fill-opacity: 0.7"/>
     <use xlink:href="#m112d43e4d0" x="94.8339" y="249.52645" style="fill-opacity: 0.7"/>
     <use xlink:href="#m112d43e4d0" x="67.314073" y="204.53218" style="fill-opacity: 0.7"/>
     <use xlink:href="#m112d43e4d0" x="66.492273" y="199.691726" style="fill-opacity: 0.7"/>
     <use xlink:href="#m112d43e4d0" x="71.463243" y="201.405615" style="fill-opacity: 0.7"/>
     <use xlink:href="#m112d43e4d0" x="119.7987" y="195.622775" style="fill-opacity: 0.7"/>
     <use xlink:href="#m112d43e4d0" x="94.8339" y="244.323717" style="fill-opacity: 0.7"/>
     <use xlink:href="#m112d43e4d0" x="89.629844" y="154.824575" style="fill-opacity: 0.7"/>
     <use xlink:href="#m112d43e4d0" x="90.987821" y="161.942881" style="fill-opacity: 0.7"/>
     <use xlink:href="#m112d43e4d0" x="104.131107" y="178.092464" style="fill-opacity: 0.7"/>
     <use xlink:href="#m112d43e4d0" x="100.564108" y="160.518637" style="fill-opacity: 0.7"/>
     <use xlink:href="#m112d43e4d0" x="66.492273" y="189.584363" style="fill-opacity: 0.7"/>
     <use xlink:href="#m112d43e4d0" x="85.206088" y="213.884434" style="fill-opacity: 0.7"/>
     <use xlink:href="#m112d43e4d0" x="90.340042" y="246.941347" style="fill-opacity: 0.7"/>
     <use xlink:href="#m112d43e4d0" x="97.991429" y="204.681447" style="fill-opacity: 0.7"/>
     <use xlink:href="#m112d43e4d0" x="98.774786" y="214.115432" style="fill-opacity: 0.7"/>
     <use xlink:href="#m112d43e4d0" x="66.492273" y="202.894463" style="fill-opacity: 0.7"/>
     <use xlink:href="#m112d43e4d0" x="88.011685" y="204.985586" style="fill-opacity: 0.7"/>
     <use xlink:href="#m112d43e4d0" x="91.240627" y="146.348933" style="fill-opacity: 0.7"/>
     <use xlink:href="#m112d43e4d0" x="87.838744" y="191.242409" style="fill-opacity: 0.7"/>
     <use xlink:href="#m112d43e4d0" x="66.492273" y="188.701444" style="fill-opacity: 0.7"/>
     <use xlink:href="#m112d43e4d0" x="84.087784" y="208.307402" style="fill-opacity: 0.7"/>
     <use xlink:href="#m112d43e4d0" x="123.175526" y="195.415544" style="fill-opacity: 0.7"/>
     <use xlink:href="#m112d43e4d0" x="75.78569" y="197.15578" style="fill-opacity: 0.7"/>
     <use xlink:href="#m112d43e4d0" x="115.198106" y="205.795682" style="fill-opacity: 0.7"/>
     <use xlink:href="#m112d43e4d0" x="120.355896" y="204.862687" style="fill-opacity: 0.7"/>
     <use xlink:href="#m112d43e4d0" x="71.967697" y="189.962592" style="fill-opacity: 0.7"/>
     <use xlink:href="#m112d43e4d0" x="123.175526" y="197.066694" style="fill-opacity: 0.7"/>
     <use xlink:href="#m112d43e4d0" x="100.081403" y="200.119627" style="fill-opacity: 0.7"/>
     <use xlink:href="#m112d43e4d0" x="104.024748" y="214.096278" style="fill-opacity: 0.7"/>
     <use xlink:href="#m112d43e4d0" x="94.8339" y="182.47925" style="fill-opacity: 0.7"/>
     <use xlink:href="#m112d43e4d0" x="112.648667" y="200.727267" style="fill-opacity: 0.7"/>
     <use xlink:href="#m112d43e4d0" x="98.39868" y="191.845718" style="fill-opacity: 0.7"/>
     <use xlink:href="#m112d43e4d0" x="83.119566" y="203.171141" style="fill-opacity: 0.7"/>
     <use xlink:href="#m112d43e4d0" x="123.175526" y="188.908945" style="fill-opacity: 0.7"/>
     <use xlink:href="#m112d43e4d0" x="89.295963" y="199.759517" style="fill-opacity: 0.7"/>
     <use xlink:href="#m112d43e4d0" x="102.994842" y="185.542622" style="fill-opacity: 0.7"/>
     <use xlink:href="#m112d43e4d0" x="79.123864" y="206.679418" style="fill-opacity: 0.7"/>
     <use xlink:href="#m112d43e4d0" x="105.071503" y="199.50074" style="fill-opacity: 0.7"/>
     <use xlink:href="#m112d43e4d0" x="94.8339" y="217.418961" style="fill-opacity: 0.7"/>
     <use xlink:href="#m112d43e4d0" x="70.739287" y="195.776858" style="fill-opacity: 0.7"/>
     <use xlink:href="#m112d43e4d0" x="66.492273" y="196.999636" style="fill-opacity: 0.7"/>
     <use xlink:href="#m112d43e4d0" x="109.381092" y="178.080441" style="fill-opacity: 0.7"/>
     <use xlink:href="#m112d43e4d0" x="118.969741" y="209.894434" style="fill-opacity: 0.7"/>
     <use xlink:href="#m112d43e4d0" x="94.363083" y="201.067716" style="fill-opacity: 0.7"/>
     <use xlink:href="#m112d43e4d0" x="90.369724" y="214.787624" style="fill-opacity: 0.7"/>
     <use xlink:href="#m112d43e4d0" x="109.251768" y="213.628974" style="fill-opacity: 0.7"/>
     <use xlink:href="#m112d43e4d0" x="80.181616" y="212.434694" style="fill-opacity: 0.7"/>
     <use xlink:href="#m112d43e4d0" x="105.746974" y="192.023388" style="fill-opacity: 0.7"/>
     <use xlink:href="#m112d43e4d0" x="110.486326" y="208.000938" style="fill-opacity: 0.7"/>
     <use xlink:href="#m112d43e4d0" x="123.175526" y="204.190562" style="fill-opacity: 0.7"/>
     <use xlink:href="#m112d43e4d0" x="75.414376" y="210.340338" style="fill-opacity: 0.7"/>
     <use xlink:href="#m112d43e4d0" x="66.492273" y="201.933937" style="fill-opacity: 0.7"/>
     <use xlink:href="#m112d43e4d0" x="66.492273" y="204.113216" style="fill-opacity: 0.7"/>
     <use xlink:href="#m112d43e4d0" x="100.074423" y="209.271057" style="fill-opacity: 0.7"/>
     <use xlink:href="#m112d43e4d0" x="121.165896" y="189.586013" style="fill-opacity: 0.7"/>
     <use xlink:href="#m112d43e4d0" x="66.492273" y="203.761628" style="fill-opacity: 0.7"/>
     <use xlink:href="#m112d43e4d0" x="114.234107" y="212.052848" style="fill-opacity: 0.7"/>
     <use xlink:href="#m112d43e4d0" x="103.085263" y="204.220323" style="fill-opacity: 0.7"/>
     <use xlink:href="#m112d43e4d0" x="105.29641" y="208.75523" style="fill-opacity: 0.7"/>
     <use xlink:href="#m112d43e4d0" x="86.349637" y="178.240572" style="fill-opacity: 0.7"/>
    </g>
   </g>
   <g id="PathCollection_2">
    <g clip-path="url(#p8f557f01e0)">
     <use xlink:href="#m112d43e4d0" x="172.668601" y="176.78791" style="fill-opacity: 0.7"/>
     <use xlink:href="#m112d43e4d0" x="165.687967" y="119.969617" style="fill-opacity: 0.7"/>
     <use xlink:href="#m112d43e4d0" x="137.34634" y="205.002661" style="fill-opacity: 0.7"/>
     <use xlink:href="#m112d43e4d0" x="192.015333" y="191.263699" style="fill-opacity: 0.7"/>
     <use xlink:href="#m112d43e4d0" x="138.625124" y="186.814514" style="fill-opacity: 0.7"/>
     <use xlink:href="#m112d43e4d0" x="176.585361" y="204.275809" style="fill-opacity: 0.7"/>
     <use xlink:href="#m112d43e4d0" x="160.506219" y="176.895517" style="fill-opacity: 0.7"/>
     <use xlink:href="#m112d43e4d0" x="160.645963" y="167.803064" style="fill-opacity: 0.7"/>
     <use xlink:href="#m112d43e4d0" x="148.687255" y="198.684312" style="fill-opacity: 0.7"/>
     <use xlink:href="#m112d43e4d0" x="149.466082" y="188.587859" style="fill-opacity: 0.7"/>
     <use xlink:href="#m112d43e4d0" x="194.029593" y="198.05171" style="fill-opacity: 0.7"/>
     <use xlink:href="#m112d43e4d0" x="176.556232" y="193.954869" style="fill-opacity: 0.7"/>
     <use xlink:href="#m112d43e4d0" x="188.293635" y="187.737127" style="fill-opacity: 0.7"/>
     <use xlink:href="#m112d43e4d0" x="161.429547" y="195.414984" style="fill-opacity: 0.7"/>
     <use xlink:href="#m112d43e4d0" x="137.34634" y="197.877462" style="fill-opacity: 0.7"/>
     <use xlink:href="#m112d43e4d0" x="194.029593" y="205.99499" style="fill-opacity: 0.7"/>
     <use xlink:href="#m112d43e4d0" x="165.687967" y="153.06867" style="fill-opacity: 0.7"/>
     <use xlink:href="#m112d43e4d0" x="165.687967" y="79.424359" style="fill-opacity: 0.7"/>
     <use xlink:href="#m112d43e4d0" x="194.029593" y="197.51988" style="fill-opacity: 0.7"/>
     <use xlink:href="#m112d43e4d0" x="194.029593" y="190.131576" style="fill-opacity: 0.7"/>
     <use xlink:href="#m112d43e4d0" x="186.94764" y="192.569882" style="fill-opacity: 0.7"/>
     <use xlink:href="#m112d43e4d0" x="171.481437" y="195.235796" style="fill-opacity: 0.7"/>
     <use xlink:href="#m112d43e4d0" x="147.013531" y="208.658741" style="fill-opacity: 0.7"/>
     <use xlink:href="#m112d43e4d0" x="175.016081" y="211.460665" style="fill-opacity: 0.7"/>
     <use xlink:href="#m112d43e4d0" x="161.97834" y="116.431528" style="fill-opacity: 0.7"/>
     <use xlink:href="#m112d43e4d0" x="154.572544" y="189.749038" style="fill-opacity: 0.7"/>
     <use xlink:href="#m112d43e4d0" x="194.029593" y="203.679309" style="fill-opacity: 0.7"/>
     <use xlink:href="#m112d43e4d0" x="147.060161" y="176.120023" style="fill-opacity: 0.7"/>
     <use xlink:href="#m112d43e4d0" x="176.597891" y="180.37469" style="fill-opacity: 0.7"/>
     <use xlink:href="#m112d43e4d0" x="145.933412" y="192.749473" style="fill-opacity: 0.7"/>
     <use xlink:href="#m112d43e4d0" x="143.136532" y="198.302827" style="fill-opacity: 0.7"/>
     <use xlink:href="#m112d43e4d0" x="180.923003" y="188.416415" style="fill-opacity: 0.7"/>
     <use xlink:href="#m112d43e4d0" x="163.676842" y="136.680624" style="fill-opacity: 0.7"/>
     <use xlink:href="#m112d43e4d0" x="137.34634" y="189.615144" style="fill-opacity: 0.7"/>
     <use xlink:href="#m112d43e4d0" x="186.941999" y="202.948886" style="fill-opacity: 0.7"/>
     <use xlink:href="#m112d43e4d0" x="164.547967" y="164.315805" style="fill-opacity: 0.7"/>
     <use xlink:href="#m112d43e4d0" x="156.246867" y="194.616842" style="fill-opacity: 0.7"/>
     <use xlink:href="#m112d43e4d0" x="176.956837" y="173.903354" style="fill-opacity: 0.7"/>
     <use xlink:href="#m112d43e4d0" x="165.687967" y="130.480422" style="fill-opacity: 0.7"/>
     <use xlink:href="#m112d43e4d0" x="137.34634" y="190.14724" style="fill-opacity: 0.7"/>
     <use xlink:href="#m112d43e4d0" x="184.800741" y="208.392656" style="fill-opacity: 0.7"/>
     <use xlink:href="#m112d43e4d0" x="168.233901" y="160.755328" style="fill-opacity: 0.7"/>
     <use xlink:href="#m112d43e4d0" x="165.687967" y="141.299218" style="fill-opacity: 0.7"/>
     <use xlink:href="#m112d43e4d0" x="175.677525" y="188.623906" style="fill-opacity: 0.7"/>
     <use xlink:href="#m112d43e4d0" x="181.460979" y="178.490789" style="fill-opacity: 0.7"/>
     <use xlink:href="#m112d43e4d0" x="194.029593" y="202.364821" style="fill-opacity: 0.7"/>
     <use xlink:href="#m112d43e4d0" x="163.479422" y="187.184536" style="fill-opacity: 0.7"/>
     <use xlink:href="#m112d43e4d0" x="160.555236" y="213.576877" style="fill-opacity: 0.7"/>
     <use xlink:href="#m112d43e4d0" x="156.249453" y="180.898251" style="fill-opacity: 0.7"/>
     <use xlink:href="#m112d43e4d0" x="165.687967" y="285.030963" style="fill-opacity: 0.7"/>
     <use xlink:href="#m112d43e4d0" x="160.439647" y="237.029217" style="fill-opacity: 0.7"/>
     <use xlink:href="#m112d43e4d0" x="137.34634" y="203.543865" style="fill-opacity: 0.7"/>
     <use xlink:href="#m112d43e4d0" x="170.517787" y="167.236512" style="fill-opacity: 0.7"/>
     <use xlink:href="#m112d43e4d0" x="162.932471" y="148.812716" style="fill-opacity: 0.7"/>
     <use xlink:href="#m112d43e4d0" x="180.073121" y="198.691584" style="fill-opacity: 0.7"/>
     <use xlink:href="#m112d43e4d0" x="151.10838" y="193.591779" style="fill-opacity: 0.7"/>
     <use xlink:href="#m112d43e4d0" x="137.34634" y="187.795189" style="fill-opacity: 0.7"/>
     <use xlink:href="#m112d43e4d0" x="156.15102" y="174.103441" style="fill-opacity: 0.7"/>
     <use xlink:href="#m112d43e4d0" x="188.862123" y="198.295296" style="fill-opacity: 0.7"/>
     <use xlink:href="#m112d43e4d0" x="165.687967" y="237.155715" style="fill-opacity: 0.7"/>
     <use xlink:href="#m112d43e4d0" x="179.590538" y="209.007136" style="fill-opacity: 0.7"/>
     <use xlink:href="#m112d43e4d0" x="161.077706" y="205.899985" style="fill-opacity: 0.7"/>
     <use xlink:href="#m112d43e4d0" x="150.028788" y="204.239554" style="fill-opacity: 0.7"/>
     <use xlink:href="#m112d43e4d0" x="194.029593" y="198.265903" style="fill-opacity: 0.7"/>
     <use xlink:href="#m112d43e4d0" x="165.687967" y="243.447428" style="fill-opacity: 0.7"/>
     <use xlink:href="#m112d43e4d0" x="165.687967" y="177.699131" style="fill-opacity: 0.7"/>
     <use xlink:href="#m112d43e4d0" x="175.756419" y="166.907644" style="fill-opacity: 0.7"/>
     <use xlink:href="#m112d43e4d0" x="193.268619" y="186.140068" style="fill-opacity: 0.7"/>
     <use xlink:href="#m112d43e4d0" x="157.028177" y="164.179743" style="fill-opacity: 0.7"/>
     <use xlink:href="#m112d43e4d0" x="151.46384" y="178.842252" style="fill-opacity: 0.7"/>
     <use xlink:href="#m112d43e4d0" x="181.831953" y="204.095676" style="fill-opacity: 0.7"/>
     <use xlink:href="#m112d43e4d0" x="168.731586" y="233.081697" style="fill-opacity: 0.7"/>
     <use xlink:href="#m112d43e4d0" x="194.029593" y="203.391045" style="fill-opacity: 0.7"/>
     <use xlink:href="#m112d43e4d0" x="194.029593" y="202.863079" style="fill-opacity: 0.7"/>
     <use xlink:href="#m112d43e4d0" x="155.215068" y="205.016203" style="fill-opacity: 0.7"/>
     <use xlink:href="#m112d43e4d0" x="144.943384" y="202.997378" style="fill-opacity: 0.7"/>
     <use xlink:href="#m112d43e4d0" x="165.687967" y="169.196505" style="fill-opacity: 0.7"/>
     <use xlink:href="#m112d43e4d0" x="194.029593" y="189.492126" style="fill-opacity: 0.7"/>
     <use xlink:href="#m112d43e4d0" x="166.483834" y="196.76746" style="fill-opacity: 0.7"/>
     <use xlink:href="#m112d43e4d0" x="194.029593" y="206.828226" style="fill-opacity: 0.7"/>
     <use xlink:href="#m112d43e4d0" x="139.740658" y="202.773768" style="fill-opacity: 0.7"/>
     <use xlink:href="#m112d43e4d0" x="194.029593" y="187.64365" style="fill-opacity: 0.7"/>
     <use xlink:href="#m112d43e4d0" x="137.34634" y="206.873591" style="fill-opacity: 0.7"/>
     <use xlink:href="#m112d43e4d0" x="165.687967" y="221.734074" style="fill-opacity: 0.7"/>
     <use xlink:href="#m112d43e4d0" x="192.11737" y="202.72845" style="fill-opacity: 0.7"/>
     <use xlink:href="#m112d43e4d0" x="194.029593" y="203.880593" style="fill-opacity: 0.7"/>
     <use xlink:href="#m112d43e4d0" x="153.731601" y="200.070041" style="fill-opacity: 0.7"/>
     <use xlink:href="#m112d43e4d0" x="165.687967" y="214.627771" style="fill-opacity: 0.7"/>
     <use xlink:href="#m112d43e4d0" x="161.381764" y="181.951004" style="fill-opacity: 0.7"/>
     <use xlink:href="#m112d43e4d0" x="164.131549" y="201.237492" style="fill-opacity: 0.7"/>
     <use xlink:href="#m112d43e4d0" x="144.504128" y="187.681435" style="fill-opacity: 0.7"/>
     <use xlink:href="#m112d43e4d0" x="137.34634" y="206.191689" style="fill-opacity: 0.7"/>
     <use xlink:href="#m112d43e4d0" x="140.902697" y="191.319504" style="fill-opacity: 0.7"/>
     <use xlink:href="#m112d43e4d0" x="181.779117" y="193.447353" style="fill-opacity: 0.7"/>
     <use xlink:href="#m112d43e4d0" x="137.34634" y="191.189939" style="fill-opacity: 0.7"/>
     <use xlink:href="#m112d43e4d0" x="169.766116" y="211.478975" style="fill-opacity: 0.7"/>
     <use xlink:href="#m112d43e4d0" x="137.34634" y="197.43833" style="fill-opacity: 0.7"/>
     <use xlink:href="#m112d43e4d0" x="152.228643" y="209.234205" style="fill-opacity: 0.7"/>
     <use xlink:href="#m112d43e4d0" x="194.029593" y="190.826777" style="fill-opacity: 0.7"/>
     <use xlink:href="#m112d43e4d0" x="159.729889" y="190.684261" style="fill-opacity: 0.7"/>
     <use xlink:href="#m112d43e4d0" x="171.526612" y="181.668187" style="fill-opacity: 0.7"/>
     <use xlink:href="#m112d43e4d0" x="166.883873" y="205.495308" style="fill-opacity: 0.7"/>
     <use xlink:href="#m112d43e4d0" x="170.704654" y="190.226922" style="fill-opacity: 0.7"/>
     <use xlink:href="#m112d43e4d0" x="137.34634" y="202.631799" style="fill-opacity: 0.7"/>
     <use xlink:href="#m112d43e4d0" x="158.886678" y="201.016539" style="fill-opacity: 0.7"/>
     <use xlink:href="#m112d43e4d0" x="137.34634" y="203.806166" style="fill-opacity: 0.7"/>
     <use xlink:href="#m112d43e4d0" x="165.687967" y="191.700914" style="fill-opacity: 0.7"/>
     <use xlink:href="#m112d43e4d0" x="172.225783" y="207.061678" style="fill-opacity: 0.7"/>
     <use xlink:href="#m112d43e4d0" x="137.34634" y="200.567346" style="fill-opacity: 0.7"/>
     <use xlink:href="#m112d43e4d0" x="189.916143" y="207.267732" style="fill-opacity: 0.7"/>
     <use xlink:href="#m112d43e4d0" x="174.870145" y="199.359299" style="fill-opacity: 0.7"/>
     <use xlink:href="#m112d43e4d0" x="194.029593" y="196.728172" style="fill-opacity: 0.7"/>
     <use xlink:href="#m112d43e4d0" x="137.34634" y="203.341514" style="fill-opacity: 0.7"/>
     <use xlink:href="#m112d43e4d0" x="166.493562" y="183.090687" style="fill-opacity: 0.7"/>
     <use xlink:href="#m112d43e4d0" x="170.177848" y="201.601918" style="fill-opacity: 0.7"/>
     <use xlink:href="#m112d43e4d0" x="157.469335" y="209.531812" style="fill-opacity: 0.7"/>
     <use xlink:href="#m112d43e4d0" x="141.96852" y="207.275209" style="fill-opacity: 0.7"/>
     <use xlink:href="#m112d43e4d0" x="164.248098" y="209.819494" style="fill-opacity: 0.7"/>
     <use xlink:href="#m112d43e4d0" x="182.991499" y="173.707976" style="fill-opacity: 0.7"/>
    </g>
   </g>
   <g id="PathCollection_3">
    <g clip-path="url(#p8f557f01e0)">
     <use xlink:href="#m112d43e4d0" x="246.521854" y="165.530886" style="fill-opacity: 0.7"/>
     <use xlink:href="#m112d43e4d0" x="236.542033" y="104.493504" style="fill-opacity: 0.7"/>
     <use xlink:href="#m112d43e4d0" x="247.561275" y="205.910422" style="fill-opacity: 0.7"/>
     <use xlink:href="#m112d43e4d0" x="208.200407" y="201.407916" style="fill-opacity: 0.7"/>
     <use xlink:href="#m112d43e4d0" x="254.278314" y="189.238844" style="fill-opacity: 0.7"/>
     <use xlink:href="#m112d43e4d0" x="261.804123" y="209.036188" style="fill-opacity: 0.7"/>
     <use xlink:href="#m112d43e4d0" x="236.542033" y="176.445472" style="fill-opacity: 0.7"/>
     <use xlink:href="#m112d43e4d0" x="236.542033" y="142.79368" style="fill-opacity: 0.7"/>
     <use xlink:href="#m112d43e4d0" x="252.600415" y="204.507618" style="fill-opacity: 0.7"/>
     <use xlink:href="#m112d43e4d0" x="229.426044" y="188.373645" style="fill-opacity: 0.7"/>
     <use xlink:href="#m112d43e4d0" x="257.849394" y="204.409017" style="fill-opacity: 0.7"/>
     <use xlink:href="#m112d43e4d0" x="237.375759" y="186.90787" style="fill-opacity: 0.7"/>
     <use xlink:href="#m112d43e4d0" x="218.957056" y="200.604757" style="fill-opacity: 0.7"/>
     <use xlink:href="#m112d43e4d0" x="260.789264" y="194.012471" style="fill-opacity: 0.7"/>
     <use xlink:href="#m112d43e4d0" x="264.88366" y="201.27615" style="fill-opacity: 0.7"/>
     <use xlink:href="#m112d43e4d0" x="227.219951" y="217.444992" style="fill-opacity: 0.7"/>
     <use xlink:href="#m112d43e4d0" x="235.809928" y="171.494326" style="fill-opacity: 0.7"/>
     <use xlink:href="#m112d43e4d0" x="239.949532" y="111.5101" style="fill-opacity: 0.7"/>
     <use xlink:href="#m112d43e4d0" x="223.947447" y="202.157605" style="fill-opacity: 0.7"/>
     <use xlink:href="#m112d43e4d0" x="208.200407" y="192.258887" style="fill-opacity: 0.7"/>
     <use xlink:href="#m112d43e4d0" x="241.172582" y="174.089312" style="fill-opacity: 0.7"/>
     <use xlink:href="#m112d43e4d0" x="243.288926" y="202.80827" style="fill-opacity: 0.7"/>
     <use xlink:href="#m112d43e4d0" x="211.383681" y="209.049108" style="fill-opacity: 0.7"/>
     <use xlink:href="#m112d43e4d0" x="241.515841" y="213.428817" style="fill-opacity: 0.7"/>
     <use xlink:href="#m112d43e4d0" x="235.302956" y="113.837464" style="fill-opacity: 0.7"/>
     <use xlink:href="#m112d43e4d0" x="260.135731" y="199.672245" style="fill-opacity: 0.7"/>
     <use xlink:href="#m112d43e4d0" x="236.542033" y="221.582173" style="fill-opacity: 0.7"/>
     <use xlink:href="#m112d43e4d0" x="217.262875" y="181.382983" style="fill-opacity: 0.7"/>
     <use xlink:href="#m112d43e4d0" x="228.141177" y="166.230988" style="fill-opacity: 0.7"/>
     <use xlink:href="#m112d43e4d0" x="225.903527" y="192.351171" style="fill-opacity: 0.7"/>
     <use xlink:href="#m112d43e4d0" x="241.965019" y="180.019758" style="fill-opacity: 0.7"/>
     <use xlink:href="#m112d43e4d0" x="248.892956" y="178.632808" style="fill-opacity: 0.7"/>
     <use xlink:href="#m112d43e4d0" x="231.337119" y="142.139814" style="fill-opacity: 0.7"/>
     <use xlink:href="#m112d43e4d0" x="254.89785" y="200.011786" style="fill-opacity: 0.7"/>
     <use xlink:href="#m112d43e4d0" x="208.200407" y="203.222572" style="fill-opacity: 0.7"/>
     <use xlink:href="#m112d43e4d0" x="256.086651" y="179.181346" style="fill-opacity: 0.7"/>
     <use xlink:href="#m112d43e4d0" x="221.745278" y="196.122324" style="fill-opacity: 0.7"/>
     <use xlink:href="#m112d43e4d0" x="249.125088" y="190.194441" style="fill-opacity: 0.7"/>
     <use xlink:href="#m112d43e4d0" x="231.378351" y="117.793266" style="fill-opacity: 0.7"/>
     <use xlink:href="#m112d43e4d0" x="208.200407" y="198.540341" style="fill-opacity: 0.7"/>
     <use xlink:href="#m112d43e4d0" x="226.600458" y="212.479923" style="fill-opacity: 0.7"/>
     <use xlink:href="#m112d43e4d0" x="223.144977" y="164.695178" style="fill-opacity: 0.7"/>
     <use xlink:href="#m112d43e4d0" x="236.542033" y="118.696212" style="fill-opacity: 0.7"/>
     <use xlink:href="#m112d43e4d0" x="230.6392" y="170.628718" style="fill-opacity: 0.7"/>
     <use xlink:href="#m112d43e4d0" x="222.295689" y="182.806236" style="fill-opacity: 0.7"/>
     <use xlink:href="#m112d43e4d0" x="236.967701" y="181.495259" style="fill-opacity: 0.7"/>
     <use xlink:href="#m112d43e4d0" x="230.920012" y="179.824227" style="fill-opacity: 0.7"/>
     <use xlink:href="#m112d43e4d0" x="256.564725" y="209.353788" style="fill-opacity: 0.7"/>
     <use xlink:href="#m112d43e4d0" x="225.809276" y="178.680231" style="fill-opacity: 0.7"/>
     <use xlink:href="#m112d43e4d0" x="236.542033" y="266.24428" style="fill-opacity: 0.7"/>
     <use xlink:href="#m112d43e4d0" x="232.171489" y="238.864805" style="fill-opacity: 0.7"/>
     <use xlink:href="#m112d43e4d0" x="238.910037" y="205.566533" style="fill-opacity: 0.7"/>
     <use xlink:href="#m112d43e4d0" x="243.443983" y="169.581497" style="fill-opacity: 0.7"/>
     <use xlink:href="#m112d43e4d0" x="238.21061" y="158.411843" style="fill-opacity: 0.7"/>
     <use xlink:href="#m112d43e4d0" x="251.394325" y="210.221167" style="fill-opacity: 0.7"/>
     <use xlink:href="#m112d43e4d0" x="230.576076" y="194.630884" style="fill-opacity: 0.7"/>
     <use xlink:href="#m112d43e4d0" x="248.123547" y="200.859042" style="fill-opacity: 0.7"/>
     <use xlink:href="#m112d43e4d0" x="237.571861" y="166.784314" style="fill-opacity: 0.7"/>
     <use xlink:href="#m112d43e4d0" x="233.975063" y="203.860595" style="fill-opacity: 0.7"/>
     <use xlink:href="#m112d43e4d0" x="236.542033" y="241.635046" style="fill-opacity: 0.7"/>
     <use xlink:href="#m112d43e4d0" x="243.19926" y="208.69283" style="fill-opacity: 0.7"/>
     <use xlink:href="#m112d43e4d0" x="264.88366" y="203.547016" style="fill-opacity: 0.7"/>
     <use xlink:href="#m112d43e4d0" x="221.7894" y="189.245116" style="fill-opacity: 0.7"/>
     <use xlink:href="#m112d43e4d0" x="216.03975" y="196.447767" style="fill-opacity: 0.7"/>
     <use xlink:href="#m112d43e4d0" x="237.78737" y="236.77775" style="fill-opacity: 0.7"/>
     <use xlink:href="#m112d43e4d0" x="260.191219" y="176.06384" style="fill-opacity: 0.7"/>
     <use xlink:href="#m112d43e4d0" x="233.365447" y="156.486503" style="fill-opacity: 0.7"/>
     <use xlink:href="#m112d43e4d0" x="247.18984" y="183.362403" style="fill-opacity: 0.7"/>
     <use xlink:href="#m112d43e4d0" x="215.711137" y="176.319548" style="fill-opacity: 0.7"/>
     <use xlink:href="#m112d43e4d0" x="232.773284" y="184.502336" style="fill-opacity: 0.7"/>
     <use xlink:href="#m112d43e4d0" x="236.542033" y="195.159536" style="fill-opacity: 0.7"/>
     <use xlink:href="#m112d43e4d0" x="241.044369" y="219.010485" style="fill-opacity: 0.7"/>
     <use xlink:href="#m112d43e4d0" x="208.200407" y="201.75443" style="fill-opacity: 0.7"/>
     <use xlink:href="#m112d43e4d0" x="208.200407" y="208.956206" style="fill-opacity: 0.7"/>
     <use xlink:href="#m112d43e4d0" x="231.434077" y="220.426969" style="fill-opacity: 0.7"/>
     <use xlink:href="#m112d43e4d0" x="264.88366" y="201.943238" style="fill-opacity: 0.7"/>
     <use xlink:href="#m112d43e4d0" x="235.045727" y="162.401173" style="fill-opacity: 0.7"/>
     <use xlink:href="#m112d43e4d0" x="245.911406" y="194.148227" style="fill-opacity: 0.7"/>
     <use xlink:href="#m112d43e4d0" x="262.969256" y="204.160875" style="fill-opacity: 0.7"/>
     <use xlink:href="#m112d43e4d0" x="236.542033" y="215.029195" style="fill-opacity: 0.7"/>
     <use xlink:href="#m112d43e4d0" x="264.88366" y="193.254635" style="fill-opacity: 0.7"/>
     <use xlink:href="#m112d43e4d0" x="255.590682" y="194.710541" style="fill-opacity: 0.7"/>
     <use xlink:href="#m112d43e4d0" x="264.88366" y="207.539436" style="fill-opacity: 0.7"/>
     <use xlink:href="#m112d43e4d0" x="208.200407" y="207.483706" style="fill-opacity: 0.7"/>
     <use xlink:href="#m112d43e4d0" x="264.88366" y="196.928145" style="fill-opacity: 0.7"/>
     <use xlink:href="#m112d43e4d0" x="226.637389" y="197.936791" style="fill-opacity: 0.7"/>
     <use xlink:href="#m112d43e4d0" x="264.88366" y="208.462398" style="fill-opacity: 0.7"/>
     <use xlink:href="#m112d43e4d0" x="220.392681" y="205.895423" style="fill-opacity: 0.7"/>
     <use xlink:href="#m112d43e4d0" x="227.453314" y="183.740056" style="fill-opacity: 0.7"/>
     <use xlink:href="#m112d43e4d0" x="233.152026" y="198.922418" style="fill-opacity: 0.7"/>
     <use xlink:href="#m112d43e4d0" x="234.036171" y="190.765853" style="fill-opacity: 0.7"/>
     <use xlink:href="#m112d43e4d0" x="237.967237" y="200.613402" style="fill-opacity: 0.7"/>
     <use xlink:href="#m112d43e4d0" x="220.768629" y="177.661112" style="fill-opacity: 0.7"/>
     <use xlink:href="#m112d43e4d0" x="250.686563" y="196.495365" style="fill-opacity: 0.7"/>
     <use xlink:href="#m112d43e4d0" x="212.683766" y="200.344022" style="fill-opacity: 0.7"/>
     <use xlink:href="#m112d43e4d0" x="231.974224" y="212.564457" style="fill-opacity: 0.7"/>
     <use xlink:href="#m112d43e4d0" x="209.557944" y="204.361189" style="fill-opacity: 0.7"/>
     <use xlink:href="#m112d43e4d0" x="221.650129" y="210.814824" style="fill-opacity: 0.7"/>
     <use xlink:href="#m112d43e4d0" x="264.88366" y="199.049155" style="fill-opacity: 0.7"/>
     <use xlink:href="#m112d43e4d0" x="211.989248" y="193.266768" style="fill-opacity: 0.7"/>
     <use xlink:href="#m112d43e4d0" x="242.234225" y="185.01318" style="fill-opacity: 0.7"/>
     <use xlink:href="#m112d43e4d0" x="225.367352" y="206.971264" style="fill-opacity: 0.7"/>
     <use xlink:href="#m112d43e4d0" x="208.200407" y="195.971026" style="fill-opacity: 0.7"/>
     <use xlink:href="#m112d43e4d0" x="230.553099" y="207.751125" style="fill-opacity: 0.7"/>
     <use xlink:href="#m112d43e4d0" x="264.88366" y="202.401082" style="fill-opacity: 0.7"/>
     <use xlink:href="#m112d43e4d0" x="208.200407" y="199.976045" style="fill-opacity: 0.7"/>
     <use xlink:href="#m112d43e4d0" x="208.200407" y="199.560246" style="fill-opacity: 0.7"/>
     <use xlink:href="#m112d43e4d0" x="246.640598" y="212.343198" style="fill-opacity: 0.7"/>
     <use xlink:href="#m112d43e4d0" x="264.88366" y="201.463993" style="fill-opacity: 0.7"/>
     <use xlink:href="#m112d43e4d0" x="236.542033" y="210.02903" style="fill-opacity: 0.7"/>
     <use xlink:href="#m112d43e4d0" x="208.200407" y="203.449066" style="fill-opacity: 0.7"/>
     <use xlink:href="#m112d43e4d0" x="241.605317" y="197.008559" style="fill-opacity: 0.7"/>
     <use xlink:href="#m112d43e4d0" x="216.622518" y="209.374987" style="fill-opacity: 0.7"/>
     <use xlink:href="#m112d43e4d0" x="240.295684" y="191.663817" style="fill-opacity: 0.7"/>
     <use xlink:href="#m112d43e4d0" x="208.200407" y="208.297566" style="fill-opacity: 0.7"/>
     <use xlink:href="#m112d43e4d0" x="264.88366" y="206.913641" style="fill-opacity: 0.7"/>
     <use xlink:href="#m112d43e4d0" x="215.477404" y="204.495373" style="fill-opacity: 0.7"/>
     <use xlink:href="#m112d43e4d0" x="228.945239" y="202.427783" style="fill-opacity: 0.7"/>
     <use xlink:href="#m112d43e4d0" x="252.399038" y="182.740245" style="fill-opacity: 0.7"/>
    </g>
   </g>
   <g id="PathCollection_4">
    <g clip-path="url(#p8f557f01e0)">
     <use xlink:href="#m112d43e4d0" x="281.874122" y="206.422655" style="fill-opacity: 0.7"/>
     <use xlink:href="#m112d43e4d0" x="307.3961" y="154.798704" style="fill-opacity: 0.7"/>
     <use xlink:href="#m112d43e4d0" x="279.054474" y="204.869834" style="fill-opacity: 0.7"/>
     <use xlink:href="#m112d43e4d0" x="299.168197" y="199.178121" style="fill-opacity: 0.7"/>
     <use xlink:href="#m112d43e4d0" x="307.3961" y="187.874443" style="fill-opacity: 0.7"/>
     <use xlink:href="#m112d43e4d0" x="320.512414" y="198.014553" style="fill-opacity: 0.7"/>
     <use xlink:href="#m112d43e4d0" x="297.403088" y="208.195969" style="fill-opacity: 0.7"/>
     <use xlink:href="#m112d43e4d0" x="307.3961" y="165.834208" style="fill-opacity: 0.7"/>
     <use xlink:href="#m112d43e4d0" x="292.157958" y="207.980665" style="fill-opacity: 0.7"/>
     <use xlink:href="#m112d43e4d0" x="335.737727" y="200.298809" style="fill-opacity: 0.7"/>
     <use xlink:href="#m112d43e4d0" x="335.737727" y="199.934119" style="fill-opacity: 0.7"/>
     <use xlink:href="#m112d43e4d0" x="279.054474" y="204.99216" style="fill-opacity: 0.7"/>
     <use xlink:href="#m112d43e4d0" x="309.91473" y="199.625364" style="fill-opacity: 0.7"/>
     <use xlink:href="#m112d43e4d0" x="315.928597" y="200.452187" style="fill-opacity: 0.7"/>
     <use xlink:href="#m112d43e4d0" x="335.737727" y="204.555118" style="fill-opacity: 0.7"/>
     <use xlink:href="#m112d43e4d0" x="279.054474" y="210.287459" style="fill-opacity: 0.7"/>
     <use xlink:href="#m112d43e4d0" x="303.381007" y="162.612749" style="fill-opacity: 0.7"/>
     <use xlink:href="#m112d43e4d0" x="307.3961" y="110.183603" style="fill-opacity: 0.7"/>
     <use xlink:href="#m112d43e4d0" x="279.054474" y="212.575723" style="fill-opacity: 0.7"/>
     <use xlink:href="#m112d43e4d0" x="297.187498" y="192.604657" style="fill-opacity: 0.7"/>
     <use xlink:href="#m112d43e4d0" x="295.80128" y="179.971409" style="fill-opacity: 0.7"/>
     <use xlink:href="#m112d43e4d0" x="335.737727" y="211.442666" style="fill-opacity: 0.7"/>
     <use xlink:href="#m112d43e4d0" x="284.993956" y="201.857965" style="fill-opacity: 0.7"/>
     <use xlink:href="#m112d43e4d0" x="283.943634" y="213.30845" style="fill-opacity: 0.7"/>
     <use xlink:href="#m112d43e4d0" x="310.227169" y="161.623483" style="fill-opacity: 0.7"/>
     <use xlink:href="#m112d43e4d0" x="302.180518" y="187.302853" style="fill-opacity: 0.7"/>
     <use xlink:href="#m112d43e4d0" x="279.974812" y="201.278876" style="fill-opacity: 0.7"/>
     <use xlink:href="#m112d43e4d0" x="305.441172" y="183.234016" style="fill-opacity: 0.7"/>
     <use xlink:href="#m112d43e4d0" x="279.054474" y="205.220606" style="fill-opacity: 0.7"/>
     <use xlink:href="#m112d43e4d0" x="279.054474" y="211.157073" style="fill-opacity: 0.7"/>
     <use xlink:href="#m112d43e4d0" x="310.931021" y="214.440348" style="fill-opacity: 0.7"/>
     <use xlink:href="#m112d43e4d0" x="286.837965" y="184.656775" style="fill-opacity: 0.7"/>
     <use xlink:href="#m112d43e4d0" x="307.3961" y="129.102689" style="fill-opacity: 0.7"/>
     <use xlink:href="#m112d43e4d0" x="279.054474" y="200.723559" style="fill-opacity: 0.7"/>
     <use xlink:href="#m112d43e4d0" x="294.436862" y="213.638903" style="fill-opacity: 0.7"/>
     <use xlink:href="#m112d43e4d0" x="327.884993" y="184.005318" style="fill-opacity: 0.7"/>
     <use xlink:href="#m112d43e4d0" x="279.054474" y="201.137835" style="fill-opacity: 0.7"/>
     <use xlink:href="#m112d43e4d0" x="317.807974" y="186.808136" style="fill-opacity: 0.7"/>
     <use xlink:href="#m112d43e4d0" x="316.265261" y="171.255391" style="fill-opacity: 0.7"/>
     <use xlink:href="#m112d43e4d0" x="335.737727" y="203.981024" style="fill-opacity: 0.7"/>
     <use xlink:href="#m112d43e4d0" x="279.054474" y="212.800979" style="fill-opacity: 0.7"/>
     <use xlink:href="#m112d43e4d0" x="311.184562" y="172.51491" style="fill-opacity: 0.7"/>
     <use xlink:href="#m112d43e4d0" x="288.859482" y="197.432176" style="fill-opacity: 0.7"/>
     <use xlink:href="#m112d43e4d0" x="294.08275" y="197.936104" style="fill-opacity: 0.7"/>
     <use xlink:href="#m112d43e4d0" x="310.493991" y="181.876572" style="fill-opacity: 0.7"/>
     <use xlink:href="#m112d43e4d0" x="279.054474" y="210.64187" style="fill-opacity: 0.7"/>
     <use xlink:href="#m112d43e4d0" x="292.07876" y="184.952718" style="fill-opacity: 0.7"/>
     <use xlink:href="#m112d43e4d0" x="335.000987" y="198.822282" style="fill-opacity: 0.7"/>
     <use xlink:href="#m112d43e4d0" x="307.3961" y="175.976401" style="fill-opacity: 0.7"/>
     <use xlink:href="#m112d43e4d0" x="307.3961" y="269.569971" style="fill-opacity: 0.7"/>
     <use xlink:href="#m112d43e4d0" x="307.3961" y="231.847885" style="fill-opacity: 0.7"/>
     <use xlink:href="#m112d43e4d0" x="332.684836" y="206.889006" style="fill-opacity: 0.7"/>
     <use xlink:href="#m112d43e4d0" x="315.582463" y="180.645843" style="fill-opacity: 0.7"/>
     <use xlink:href="#m112d43e4d0" x="302.81221" y="173.538892" style="fill-opacity: 0.7"/>
     <use xlink:href="#m112d43e4d0" x="286.910171" y="207.835492" style="fill-opacity: 0.7"/>
     <use xlink:href="#m112d43e4d0" x="335.737727" y="205.2375" style="fill-opacity: 0.7"/>
     <use xlink:href="#m112d43e4d0" x="300.580323" y="203.993855" style="fill-opacity: 0.7"/>
     <use xlink:href="#m112d43e4d0" x="279.054474" y="196.266522" style="fill-opacity: 0.7"/>
     <use xlink:href="#m112d43e4d0" x="335.737727" y="205.142517" style="fill-opacity: 0.7"/>
     <use xlink:href="#m112d43e4d0" x="309.280441" y="244.056766" style="fill-opacity: 0.7"/>
     <use xlink:href="#m112d43e4d0" x="325.590508" y="202.56183" style="fill-opacity: 0.7"/>
     <use xlink:href="#m112d43e4d0" x="312.417505" y="219.235741" style="fill-opacity: 0.7"/>
     <use xlink:href="#m112d43e4d0" x="279.054474" y="204.743767" style="fill-opacity: 0.7"/>
     <use xlink:href="#m112d43e4d0" x="330.692209" y="201.381821" style="fill-opacity: 0.7"/>
     <use xlink:href="#m112d43e4d0" x="307.3961" y="249.694581" style="fill-opacity: 0.7"/>
     <use xlink:href="#m112d43e4d0" x="322.81753" y="185.312307" style="fill-opacity: 0.7"/>
     <use xlink:href="#m112d43e4d0" x="317.709338" y="193.028565" style="fill-opacity: 0.7"/>
     <use xlink:href="#m112d43e4d0" x="302.225842" y="194.010055" style="fill-opacity: 0.7"/>
     <use xlink:href="#m112d43e4d0" x="298.271346" y="171.029399" style="fill-opacity: 0.7"/>
     <use xlink:href="#m112d43e4d0" x="283.688804" y="196.5663" style="fill-opacity: 0.7"/>
     <use xlink:href="#m112d43e4d0" x="305.971971" y="215.882563" style="fill-opacity: 0.7"/>
     <use xlink:href="#m112d43e4d0" x="304.305166" y="245.653003" style="fill-opacity: 0.7"/>
     <use xlink:href="#m112d43e4d0" x="289.18781" y="213.543895" style="fill-opacity: 0.7"/>
     <use xlink:href="#m112d43e4d0" x="297.57155" y="217.649798" style="fill-opacity: 0.7"/>
     <use xlink:href="#m112d43e4d0" x="279.054474" y="196.541138" style="fill-opacity: 0.7"/>
     <use xlink:href="#m112d43e4d0" x="279.054474" y="205.241228" style="fill-opacity: 0.7"/>
     <use xlink:href="#m112d43e4d0" x="300.225487" y="182.663279" style="fill-opacity: 0.7"/>
     <use xlink:href="#m112d43e4d0" x="335.737727" y="211.137314" style="fill-opacity: 0.7"/>
     <use xlink:href="#m112d43e4d0" x="327.561221" y="207.979502" style="fill-opacity: 0.7"/>
     <use xlink:href="#m112d43e4d0" x="307.3961" y="220.69509" style="fill-opacity: 0.7"/>
     <use xlink:href="#m112d43e4d0" x="279.054474" y="204.505581" style="fill-opacity: 0.7"/>
     <use xlink:href="#m112d43e4d0" x="307.3961" y="205.37337" style="fill-opacity: 0.7"/>
     <use xlink:href="#m112d43e4d0" x="318.655015" y="211.583878" style="fill-opacity: 0.7"/>
     <use xlink:href="#m112d43e4d0" x="279.054474" y="211.467955" style="fill-opacity: 0.7"/>
     <use xlink:href="#m112d43e4d0" x="335.737727" y="199.904762" style="fill-opacity: 0.7"/>
     <use xlink:href="#m112d43e4d0" x="307.3961" y="210.704293" style="fill-opacity: 0.7"/>
     <use xlink:href="#m112d43e4d0" x="316.532354" y="216.130552" style="fill-opacity: 0.7"/>
     <use xlink:href="#m112d43e4d0" x="302.194168" y="220.020041" style="fill-opacity: 0.7"/>
     <use xlink:href="#m112d43e4d0" x="304.864906" y="200.992877" style="fill-opacity: 0.7"/>
     <use xlink:href="#m112d43e4d0" x="335.737727" y="212.578656" style="fill-opacity: 0.7"/>
     <use xlink:href="#m112d43e4d0" x="335.737727" y="204.870034" style="fill-opacity: 0.7"/>
     <use xlink:href="#m112d43e4d0" x="335.737727" y="212.104587" style="fill-opacity: 0.7"/>
     <use xlink:href="#m112d43e4d0" x="279.054474" y="199.909143" style="fill-opacity: 0.7"/>
     <use xlink:href="#m112d43e4d0" x="316.783808" y="206.912249" style="fill-opacity: 0.7"/>
     <use xlink:href="#m112d43e4d0" x="295.367407" y="203.400615" style="fill-opacity: 0.7"/>
     <use xlink:href="#m112d43e4d0" x="312.51288" y="209.585065" style="fill-opacity: 0.7"/>
     <use xlink:href="#m112d43e4d0" x="335.737727" y="204.830564" style="fill-opacity: 0.7"/>
     <use xlink:href="#m112d43e4d0" x="301.193395" y="213.811772" style="fill-opacity: 0.7"/>
     <use xlink:href="#m112d43e4d0" x="292.203663" y="191.032828" style="fill-opacity: 0.7"/>
     <use xlink:href="#m112d43e4d0" x="322.717755" y="191.529283" style="fill-opacity: 0.7"/>
     <use xlink:href="#m112d43e4d0" x="312.521295" y="193.794457" style="fill-opacity: 0.7"/>
     <use xlink:href="#m112d43e4d0" x="326.462575" y="213.406211" style="fill-opacity: 0.7"/>
     <use xlink:href="#m112d43e4d0" x="279.054474" y="200.212296" style="fill-opacity: 0.7"/>
     <use xlink:href="#m112d43e4d0" x="322.311249" y="207.995732" style="fill-opacity: 0.7"/>
     <use xlink:href="#m112d43e4d0" x="302.636388" y="208.594466" style="fill-opacity: 0.7"/>
     <use xlink:href="#m112d43e4d0" x="335.737727" y="200.747972" style="fill-opacity: 0.7"/>
     <use xlink:href="#m112d43e4d0" x="307.3961" y="194.878197" style="fill-opacity: 0.7"/>
     <use xlink:href="#m112d43e4d0" x="279.054474" y="211.908686" style="fill-opacity: 0.7"/>
     <use xlink:href="#m112d43e4d0" x="335.737727" y="205.294192" style="fill-opacity: 0.7"/>
     <use xlink:href="#m112d43e4d0" x="335.737727" y="210.342872" style="fill-opacity: 0.7"/>
     <use xlink:href="#m112d43e4d0" x="325.737756" y="197.530515" style="fill-opacity: 0.7"/>
     <use xlink:href="#m112d43e4d0" x="290.190975" y="202.566505" style="fill-opacity: 0.7"/>
     <use xlink:href="#m112d43e4d0" x="320.404039" y="203.337328" style="fill-opacity: 0.7"/>
     <use xlink:href="#m112d43e4d0" x="312.560998" y="186.97782" style="fill-opacity: 0.7"/>
     <use xlink:href="#m112d43e4d0" x="321.754835" y="215.619279" style="fill-opacity: 0.7"/>
     <use xlink:href="#m112d43e4d0" x="331.704196" y="213.12384" style="fill-opacity: 0.7"/>
     <use xlink:href="#m112d43e4d0" x="312.402885" y="204.156919" style="fill-opacity: 0.7"/>
     <use xlink:href="#m112d43e4d0" x="335.737727" y="211.693634" style="fill-opacity: 0.7"/>
     <use xlink:href="#m112d43e4d0" x="296.957076" y="186.800566" style="fill-opacity: 0.7"/>
    </g>
   </g>
   <g id="text_14">
    <!-- V1 tgt -->
    <g transform="translate(182.772812 41.04) scale(0.12 -0.12)">
     <defs>
      <path id="DejaVuSans-56" d="M 1831 0 
L 50 4666 
L 709 4666 
L 2188 738 
L 3669 4666 
L 4325 4666 
L 2547 0 
L 1831 0 
z
" transform="scale(0.015625)"/>
     </defs>
     <use xlink:href="#DejaVuSans-56"/>
     <use xlink:href="#DejaVuSans-31" x="68.408203"/>
     <use xlink:href="#DejaVuSans-20" x="132.03125"/>
     <use xlink:href="#DejaVuSans-74" x="163.818359"/>
     <use xlink:href="#DejaVuSans-67" x="203.027344"/>
     <use xlink:href="#DejaVuSans-74" x="266.503906"/>
    </g>
   </g>
  </g>
  <g id="text_15">
   <!-- pnr756 -->
   <g transform="translate(158.469375 16.318125) scale(0.12 -0.12)">
    <defs>
     <path id="DejaVuSans-37" d="M 525 4666 
L 3525 4666 
L 3525 4397 
L 1831 0 
L 1172 0 
L 2766 4134 
L 525 4134 
L 525 4666 
z
" transform="scale(0.015625)"/>
     <path id="DejaVuSans-36" d="M 2113 2584 
Q 1688 2584 1439 2293 
Q 1191 2003 1191 1497 
Q 1191 994 1439 701 
Q 1688 409 2113 409 
Q 2538 409 2786 701 
Q 3034 994 3034 1497 
Q 3034 2003 2786 2293 
Q 2538 2584 2113 2584 
z
M 3366 4563 
L 3366 3988 
Q 3128 4100 2886 4159 
Q 2644 4219 2406 4219 
Q 1781 4219 1451 3797 
Q 1122 3375 1075 2522 
Q 1259 2794 1537 2939 
Q 1816 3084 2150 3084 
Q 2853 3084 3261 2657 
Q 3669 2231 3669 1497 
Q 3669 778 3244 343 
Q 2819 -91 2113 -91 
Q 1303 -91 875 529 
Q 447 1150 447 2328 
Q 447 3434 972 4092 
Q 1497 4750 2381 4750 
Q 2619 4750 2861 4703 
Q 3103 4656 3366 4563 
z
" transform="scale(0.015625)"/>
    </defs>
    <use xlink:href="#DejaVuSans-70"/>
    <use xlink:href="#DejaVuSans-6e" x="63.476562"/>
    <use xlink:href="#DejaVuSans-72" x="126.855469"/>
    <use xlink:href="#DejaVuSans-37" x="167.96875"/>
    <use xlink:href="#DejaVuSans-35" x="231.591797"/>
    <use xlink:href="#DejaVuSans-36" x="295.214844"/>
   </g>
  </g>
 </g>
 <defs>
  <clipPath id="p8f557f01e0">
   <rect x="53.03" y="47.04" width="296.17" height="269.06776"/>
  </clipPath>
 </defs>
</svg>
