<?xml version="1.0" encoding="utf-8" standalone="no"?>
<!DOCTYPE svg PUBLIC "-//W3C//DTD SVG 1.1//EN"
  "http://www.w3.org/Graphics/SVG/1.1/DTD/svg11.dtd">
<svg xmlns:xlink="http://www.w3.org/1999/xlink" width="360pt" height="360pt" viewBox="0 0 360 360" xmlns="http://www.w3.org/2000/svg" version="1.1">
 <metadata>
  <rdf:RDF xmlns:dc="http://purl.org/dc/elements/1.1/" xmlns:cc="http://creativecommons.org/ns#" xmlns:rdf="http://www.w3.org/1999/02/22-rdf-syntax-ns#">
   <cc:Work>
    <dc:type rdf:resource="http://purl.org/dc/dcmitype/StillImage"/>
    <dc:date>2026-05-29T13:02:48.701421</dc:date>
    <dc:format>image/svg+xml</dc:format>
    <dc:creator>
     <cc:Agent>
      <dc:title>Matplotlib v3.8.0, https://matplotlib.org/</dc:title>
     </cc:Agent>
    </dc:creator>
   </cc:Work>
  </rdf:RDF>
 </metadata>
 <defs>
  <style type="text/css">*{stroke-linejoin: round; stroke-linecap: butt}</style>
 </defs>
 <g id="figure_1">
  <g id="patch_1">
   <path d="M 0 360 
L 360 360 
L 360 0 
L 0 0 
z
" style="fill: #ffffff"/>
  </g>
  <g id="axes_1">
   <g id="patch_2">
    <path d="M 46.64 316.10776 
L 349.2 316.10776 
L 349.2 47.04 
L 46.64 47.04 
z
" style="fill: #ffffff"/>
   </g>
   <g id="PolyCollection_1">
    <defs>
     <path id="mb822360715" d="M 89.429344 -69.58521 
L 89.262331 -69.58521 
L 89.21691 -71.537495 
L 89.157076 -73.489781 
L 89.083763 -75.442066 
L 89.000782 -77.394352 
L 88.914987 -79.346637 
L 88.835594 -81.298922 
L 88.772593 -83.251208 
L 88.734563 -85.203493 
L 88.726428 -87.155779 
L 88.747787 -89.108064 
L 88.792253 -91.060349 
L 88.84787 -93.012635 
L 88.898275 -94.96492 
L 88.92407 -96.917206 
L 88.903915 -98.869491 
L 88.815123 -100.821776 
L 88.633859 -102.774062 
L 88.335255 -104.726347 
L 87.893802 -106.678633 
L 87.284245 -108.630918 
L 86.48313 -110.583203 
L 85.471021 -112.535489 
L 84.235387 -114.487774 
L 82.773972 -116.44006 
L 81.09816 -118.392345 
L 79.235406 -120.34463 
L 77.229555 -122.296916 
L 75.138088 -124.249201 
L 73.02618 -126.201487 
L 70.958671 -128.153772 
L 68.992133 -130.106057 
L 67.169573 -132.058343 
L 65.519603 -134.010628 
L 64.060399 -135.962914 
L 62.806971 -137.915199 
L 61.779006 -139.867484 
L 61.006205 -141.81977 
L 60.528832 -143.772055 
L 60.392727 -145.724341 
L 60.639795 -147.676626 
L 61.296433 -149.628911 
L 62.363062 -151.581197 
L 63.807703 -153.533482 
L 65.565551 -155.485768 
L 67.545007 -157.438053 
L 69.639024 -159.390338 
L 71.739392 -161.342624 
L 73.750863 -163.294909 
L 75.602119 -165.247195 
L 77.251453 -167.19948 
L 78.68641 -169.151765 
L 79.918282 -171.104051 
L 80.973524 -173.056336 
L 81.884676 -175.008622 
L 82.682988 -176.960907 
L 83.393951 -178.913192 
L 84.035769 -180.865478 
L 84.619932 -182.817763 
L 85.152713 -184.770049 
L 85.63664 -186.722334 
L 86.071509 -188.674619 
L 86.455105 -190.626905 
L 86.784098 -192.57919 
L 87.055532 -194.531476 
L 87.268928 -196.483761 
L 87.428466 -198.436046 
L 87.54435 -200.388332 
L 87.632483 -202.340617 
L 87.712116 -204.292903 
L 87.801946 -206.245188 
L 87.915856 -208.197473 
L 88.059771 -210.149759 
L 88.230714 -212.102044 
L 88.418311 -214.05433 
L 88.608099 -216.006615 
L 88.78536 -217.9589 
L 88.938255 -219.911186 
L 89.059439 -221.863471 
L 89.146059 -223.815757 
L 89.198616 -225.768042 
L 89.219448 -227.720327 
L 89.211538 -229.672613 
L 89.178056 -231.624898 
L 89.122669 -233.577184 
L 89.050314 -235.529469 
L 88.967916 -237.481754 
L 88.88454 -239.43404 
L 88.810664 -241.386325 
L 88.756592 -243.338611 
L 88.730437 -245.290896 
L 88.736299 -247.243181 
L 88.773308 -249.195467 
L 88.835874 -251.147752 
L 88.915092 -253.100038 
L 89.000819 -255.052323 
L 89.083776 -257.004608 
L 89.15708 -258.956894 
L 89.216911 -260.909179 
L 89.262331 -262.861465 
L 89.429344 -262.861465 
L 89.429344 -262.861465 
L 89.474764 -260.909179 
L 89.534594 -258.956894 
L 89.607899 -257.004608 
L 89.690856 -255.052323 
L 89.776583 -253.100038 
L 89.855801 -251.147752 
L 89.918367 -249.195467 
L 89.955375 -247.243181 
L 89.961237 -245.290896 
L 89.935082 -243.338611 
L 89.881011 -241.386325 
L 89.807135 -239.43404 
L 89.723759 -237.481754 
L 89.641361 -235.529469 
L 89.569006 -233.577184 
L 89.513619 -231.624898 
L 89.480136 -229.672613 
L 89.472227 -227.720327 
L 89.493059 -225.768042 
L 89.545616 -223.815757 
L 89.632235 -221.863471 
L 89.753419 -219.911186 
L 89.906315 -217.9589 
L 90.083576 -216.006615 
L 90.273363 -214.05433 
L 90.460961 -212.102044 
L 90.631903 -210.149759 
L 90.775819 -208.197473 
L 90.889729 -206.245188 
L 90.979559 -204.292903 
L 91.059192 -202.340617 
L 91.147325 -200.388332 
L 91.263209 -198.436046 
L 91.422747 -196.483761 
L 91.636143 -194.531476 
L 91.907577 -192.57919 
L 92.23657 -190.626905 
L 92.620166 -188.674619 
L 93.055035 -186.722334 
L 93.538961 -184.770049 
L 94.071743 -182.817763 
L 94.655905 -180.865478 
L 95.297724 -178.913192 
L 96.008687 -176.960907 
L 96.806999 -175.008622 
L 97.71815 -173.056336 
L 98.773392 -171.104051 
L 100.005265 -169.151765 
L 101.440222 -167.19948 
L 103.089555 -165.247195 
L 104.940812 -163.294909 
L 106.952282 -161.342624 
L 109.05265 -159.390338 
L 111.146667 -157.438053 
L 113.126123 -155.485768 
L 114.883972 -153.533482 
L 116.328612 -151.581197 
L 117.395241 -149.628911 
L 118.05188 -147.676626 
L 118.298947 -145.724341 
L 118.162843 -143.772055 
L 117.68547 -141.81977 
L 116.912669 -139.867484 
L 115.884704 -137.915199 
L 114.631276 -135.962914 
L 113.172071 -134.010628 
L 111.522102 -132.058343 
L 109.699542 -130.106057 
L 107.733004 -128.153772 
L 105.665495 -126.201487 
L 103.553587 -124.249201 
L 101.462119 -122.296916 
L 99.456268 -120.34463 
L 97.593515 -118.392345 
L 95.917702 -116.44006 
L 94.456287 -114.487774 
L 93.220653 -112.535489 
L 92.208545 -110.583203 
L 91.40743 -108.630918 
L 90.797873 -106.678633 
L 90.356419 -104.726347 
L 90.057816 -102.774062 
L 89.876552 -100.821776 
L 89.787759 -98.869491 
L 89.767604 -96.917206 
L 89.7934 -94.96492 
L 89.843805 -93.012635 
L 89.899422 -91.060349 
L 89.943888 -89.108064 
L 89.965246 -87.155779 
L 89.957112 -85.203493 
L 89.919082 -83.251208 
L 89.856081 -81.298922 
L 89.776687 -79.346637 
L 89.690893 -77.394352 
L 89.607911 -75.442066 
L 89.534598 -73.489781 
L 89.474765 -71.537495 
L 89.429344 -69.58521 
z
" style="stroke: #3f3f3f; stroke-width: 1.25"/>
    </defs>
    <g clip-path="url(#p1f3404704c)">
     <use xlink:href="#mb822360715" x="0" y="360" style="fill: #b2b2b2; stroke: #3f3f3f; stroke-width: 1.25"/>
    </g>
   </g>
   <g id="PolyCollection_2">
    <defs>
     <path id="mf7e3aeb48f" d="M 161.80708 -67.127378 
L 161.650145 -67.127378 
L 161.607142 -69.434648 
L 161.55042 -71.741918 
L 161.480902 -74.049188 
L 161.402297 -76.356457 
L 161.321257 -78.663727 
L 161.24671 -80.970997 
L 161.188333 -83.278267 
L 161.154489 -85.585537 
L 161.150166 -87.892807 
L 161.175581 -90.200077 
L 161.225824 -92.507346 
L 161.291581 -94.814616 
L 161.360486 -97.121886 
L 161.418431 -99.429156 
L 161.450194 -101.736426 
L 161.439011 -104.043696 
L 161.365218 -106.350965 
L 161.204465 -108.658235 
L 160.926294 -110.965505 
L 160.49398 -113.272775 
L 159.866312 -115.580045 
L 159.001656 -117.887315 
L 157.864038 -120.194584 
L 156.430353 -122.501854 
L 154.697226 -124.809124 
L 152.68583 -127.116394 
L 150.443166 -129.423664 
L 148.039113 -131.730934 
L 145.559644 -134.038204 
L 143.097735 -136.345473 
L 140.744249 -138.652743 
L 138.581161 -140.960013 
L 136.678698 -143.267283 
L 135.096501 -145.574553 
L 133.887153 -147.881823 
L 133.099061 -150.189092 
L 132.775502 -152.496362 
L 132.948001 -154.803632 
L 133.624852 -157.110902 
L 134.778537 -159.418172 
L 136.337525 -161.725442 
L 138.187541 -164.032711 
L 140.184532 -166.339981 
L 142.177431 -168.647251 
L 144.034924 -170.954521 
L 145.668594 -173.261791 
L 147.045727 -175.569061 
L 148.188373 -177.876331 
L 149.159678 -180.1836 
L 150.04224 -182.49087 
L 150.915102 -184.79814 
L 151.835525 -187.10541 
L 152.829325 -189.41268 
L 153.890509 -191.71995 
L 154.988243 -194.027219 
L 156.077685 -196.334489 
L 157.111098 -198.641759 
L 158.046566 -200.949029 
L 158.853124 -203.256299 
L 159.512463 -205.563569 
L 160.018251 -207.870839 
L 160.37437 -210.178108 
L 160.593058 -212.485378 
L 160.693363 -214.792648 
L 160.699759 -217.099918 
L 160.640483 -219.407188 
L 160.54524 -221.714458 
L 160.442319 -224.021727 
L 160.355592 -226.328997 
L 160.302164 -228.636267 
L 160.291305 -230.943537 
L 160.324902 -233.250807 
L 160.399082 -235.558077 
L 160.506344 -237.865346 
L 160.637451 -240.172616 
L 160.782679 -242.479886 
L 160.932414 -244.787156 
L 161.077385 -247.094426 
L 161.208875 -249.401696 
L 161.319108 -251.708966 
L 161.401803 -254.016235 
L 161.452778 -256.323505 
L 161.470501 -258.630775 
L 161.4565 -260.938045 
L 161.415588 -263.245315 
L 161.355766 -265.552585 
L 161.28764 -267.859854 
L 161.223205 -270.167124 
L 161.17406 -272.474394 
L 161.149367 -274.781664 
L 161.154102 -277.088934 
L 161.18816 -279.396204 
L 161.246637 -281.703473 
L 161.321228 -284.010743 
L 161.402286 -286.318013 
L 161.480898 -288.625283 
L 161.550419 -290.932553 
L 161.607142 -293.239823 
L 161.650145 -295.547093 
L 161.80708 -295.547093 
L 161.80708 -295.547093 
L 161.850083 -293.239823 
L 161.906806 -290.932553 
L 161.976327 -288.625283 
L 162.054939 -286.318013 
L 162.135996 -284.010743 
L 162.210588 -281.703473 
L 162.269065 -279.396204 
L 162.303122 -277.088934 
L 162.307857 -274.781664 
L 162.283165 -272.474394 
L 162.23402 -270.167124 
L 162.169585 -267.859854 
L 162.101459 -265.552585 
L 162.041637 -263.245315 
L 162.000725 -260.938045 
L 161.986724 -258.630775 
L 162.004447 -256.323505 
L 162.055422 -254.016235 
L 162.138117 -251.708966 
L 162.24835 -249.401696 
L 162.37984 -247.094426 
L 162.524811 -244.787156 
L 162.674546 -242.479886 
L 162.819774 -240.172616 
L 162.950881 -237.865346 
L 163.058143 -235.558077 
L 163.132323 -233.250807 
L 163.16592 -230.943537 
L 163.155061 -228.636267 
L 163.101633 -226.328997 
L 163.014906 -224.021727 
L 162.911984 -221.714458 
L 162.816742 -219.407188 
L 162.757466 -217.099918 
L 162.763862 -214.792648 
L 162.864167 -212.485378 
L 163.082855 -210.178108 
L 163.438974 -207.870839 
L 163.944762 -205.563569 
L 164.604101 -203.256299 
L 165.410659 -200.949029 
L 166.346127 -198.641759 
L 167.37954 -196.334489 
L 168.468982 -194.027219 
L 169.566715 -191.71995 
L 170.6279 -189.41268 
L 171.6217 -187.10541 
L 172.542122 -184.79814 
L 173.414985 -182.49087 
L 174.297546 -180.1836 
L 175.268852 -177.876331 
L 176.411498 -175.569061 
L 177.788631 -173.261791 
L 179.422301 -170.954521 
L 181.279794 -168.647251 
L 183.272693 -166.339981 
L 185.269684 -164.032711 
L 187.1197 -161.725442 
L 188.678688 -159.418172 
L 189.832373 -157.110902 
L 190.509224 -154.803632 
L 190.681722 -152.496362 
L 190.358164 -150.189092 
L 189.570072 -147.881823 
L 188.360724 -145.574553 
L 186.778527 -143.267283 
L 184.876064 -140.960013 
L 182.712976 -138.652743 
L 180.35949 -136.345473 
L 177.897581 -134.038204 
L 175.418112 -131.730934 
L 173.014059 -129.423664 
L 170.771394 -127.116394 
L 168.759999 -124.809124 
L 167.026872 -122.501854 
L 165.593186 -120.194584 
L 164.455569 -117.887315 
L 163.590913 -115.580045 
L 162.963245 -113.272775 
L 162.530931 -110.965505 
L 162.25276 -108.658235 
L 162.092006 -106.350965 
L 162.018214 -104.043696 
L 162.007031 -101.736426 
L 162.038793 -99.429156 
L 162.096739 -97.121886 
L 162.165644 -94.814616 
L 162.231401 -92.507346 
L 162.281644 -90.200077 
L 162.307059 -87.892807 
L 162.302736 -85.585537 
L 162.268892 -83.278267 
L 162.210515 -80.970997 
L 162.135968 -78.663727 
L 162.054928 -76.356457 
L 161.976323 -74.049188 
L 161.906805 -71.741918 
L 161.850083 -69.434648 
L 161.80708 -67.127378 
z
" style="stroke: #3f3f3f; stroke-width: 1.25"/>
    </defs>
    <g clip-path="url(#p1f3404704c)">
     <use xlink:href="#mf7e3aeb48f" x="0" y="360" style="fill: #891ab9; stroke: #3f3f3f; stroke-width: 1.25"/>
    </g>
   </g>
   <g id="PolyCollection_3">
    <defs>
     <path id="m4008d94a18" d="M 234.189318 -56.122593 
L 234.033457 -56.122593 
L 233.988379 -58.593371 
L 233.928356 -61.06415 
L 233.854659 -63.534928 
L 233.771932 -66.005706 
L 233.688281 -68.476485 
L 233.614249 -70.947263 
L 233.560751 -73.418041 
L 233.536459 -75.88882 
L 233.5455 -78.359598 
L 233.586303 -80.830376 
L 233.652009 -83.301155 
L 233.732283 -85.771933 
L 233.815786 -88.242711 
L 233.892369 -90.71349 
L 233.954187 -93.184268 
L 233.995365 -95.655046 
L 234.010257 -98.125824 
L 233.990682 -100.596603 
L 233.922684 -103.067381 
L 233.783495 -105.538159 
L 233.539539 -108.008938 
L 233.146474 -110.479716 
L 232.552213 -112.950494 
L 231.703442 -115.421273 
L 230.555168 -117.892051 
L 229.081567 -120.362829 
L 227.2853 -122.833608 
L 225.202161 -125.304386 
L 222.898948 -127.775164 
L 220.464464 -130.245943 
L 217.996056 -132.716721 
L 215.585839 -135.187499 
L 213.310907 -137.658278 
L 211.230251 -140.129056 
L 209.388419 -142.599834 
L 207.823235 -145.070613 
L 206.573491 -147.541391 
L 205.682763 -150.012169 
L 205.197288 -152.482948 
L 205.158278 -154.953726 
L 205.591134 -157.424504 
L 206.49515 -159.895283 
L 207.837205 -162.366061 
L 209.551829 -164.836839 
L 211.548182 -167.307618 
L 213.722378 -169.778396 
L 215.971727 -172.249174 
L 218.206669 -174.719953 
L 220.356961 -177.190731 
L 222.371031 -179.661509 
L 224.210422 -182.132288 
L 225.843475 -184.603066 
L 227.242512 -187.073844 
L 228.38665 -189.544623 
L 229.268964 -192.015401 
L 229.903961 -194.486179 
L 230.330634 -196.956958 
L 230.608224 -199.427736 
L 230.80511 -201.898514 
L 230.984351 -204.369293 
L 231.190822 -206.840071 
L 231.44406 -209.310849 
L 231.738571 -211.781628 
L 232.050592 -214.252406 
L 232.348392 -216.723184 
L 232.60265 -219.193963 
L 232.794175 -221.664741 
L 232.917563 -224.135519 
L 232.980801 -226.606297 
L 233.001789 -229.077076 
L 233.003248 -231.547854 
L 233.007462 -234.018632 
L 233.031984 -236.489411 
L 233.086991 -238.960189 
L 233.174492 -241.430967 
L 233.289216 -243.901746 
L 233.42071 -246.372524 
L 233.556035 -248.843302 
L 233.682364 -251.314081 
L 233.788953 -253.784859 
L 233.868179 -256.255637 
L 233.915734 -258.726416 
L 233.930312 -261.197194 
L 233.913271 -263.667972 
L 233.868559 -266.138751 
L 233.802878 -268.609529 
L 233.725737 -271.080307 
L 233.648896 -273.551086 
L 233.584912 -276.021864 
L 233.544916 -278.492642 
L 233.536227 -280.963421 
L 233.560665 -283.434199 
L 233.614219 -285.904977 
L 233.688271 -288.375756 
L 233.771929 -290.846534 
L 233.854658 -293.317312 
L 233.928356 -295.788091 
L 233.988379 -298.258869 
L 234.033457 -300.729647 
L 234.189318 -300.729647 
L 234.189318 -300.729647 
L 234.234396 -298.258869 
L 234.294419 -295.788091 
L 234.368117 -293.317312 
L 234.450846 -290.846534 
L 234.534505 -288.375756 
L 234.608557 -285.904977 
L 234.66211 -283.434199 
L 234.686548 -280.963421 
L 234.677859 -278.492642 
L 234.637863 -276.021864 
L 234.57388 -273.551086 
L 234.497038 -271.080307 
L 234.419897 -268.609529 
L 234.354216 -266.138751 
L 234.309504 -263.667972 
L 234.292463 -261.197194 
L 234.307041 -258.726416 
L 234.354596 -256.255637 
L 234.433823 -253.784859 
L 234.540411 -251.314081 
L 234.666741 -248.843302 
L 234.802065 -246.372524 
L 234.93356 -243.901746 
L 235.048283 -241.430967 
L 235.135784 -238.960189 
L 235.190792 -236.489411 
L 235.215314 -234.018632 
L 235.219527 -231.547854 
L 235.220986 -229.077076 
L 235.241974 -226.606297 
L 235.305212 -224.135519 
L 235.4286 -221.664741 
L 235.620125 -219.193963 
L 235.874383 -216.723184 
L 236.172183 -214.252406 
L 236.484204 -211.781628 
L 236.778715 -209.310849 
L 237.031953 -206.840071 
L 237.238424 -204.369293 
L 237.417665 -201.898514 
L 237.614551 -199.427736 
L 237.892141 -196.956958 
L 238.318814 -194.486179 
L 238.953811 -192.015401 
L 239.836125 -189.544623 
L 240.980263 -187.073844 
L 242.3793 -184.603066 
L 244.012353 -182.132288 
L 245.851744 -179.661509 
L 247.865814 -177.190731 
L 250.016106 -174.719953 
L 252.251048 -172.249174 
L 254.500397 -169.778396 
L 256.674594 -167.307618 
L 258.670946 -164.836839 
L 260.38557 -162.366061 
L 261.727625 -159.895283 
L 262.631641 -157.424504 
L 263.064498 -154.953726 
L 263.025488 -152.482948 
L 262.540013 -150.012169 
L 261.649284 -147.541391 
L 260.39954 -145.070613 
L 258.834356 -142.599834 
L 256.992524 -140.129056 
L 254.911868 -137.658278 
L 252.636936 -135.187499 
L 250.226719 -132.716721 
L 247.758312 -130.245943 
L 245.323827 -127.775164 
L 243.020614 -125.304386 
L 240.937476 -122.833608 
L 239.141208 -120.362829 
L 237.667607 -117.892051 
L 236.519333 -115.421273 
L 235.670562 -112.950494 
L 235.076301 -110.479716 
L 234.683236 -108.008938 
L 234.43928 -105.538159 
L 234.300091 -103.067381 
L 234.232093 -100.596603 
L 234.212518 -98.125824 
L 234.22741 -95.655046 
L 234.268588 -93.184268 
L 234.330406 -90.71349 
L 234.406989 -88.242711 
L 234.490493 -85.771933 
L 234.570766 -83.301155 
L 234.636472 -80.830376 
L 234.677275 -78.359598 
L 234.686317 -75.88882 
L 234.662024 -73.418041 
L 234.608526 -70.947263 
L 234.534495 -68.476485 
L 234.450843 -66.005706 
L 234.368116 -63.534928 
L 234.294419 -61.06415 
L 234.234396 -58.593371 
L 234.189318 -56.122593 
z
" style="stroke: #3f3f3f; stroke-width: 1.25"/>
    </defs>
    <g clip-path="url(#p1f3404704c)">
     <use xlink:href="#m4008d94a18" x="0" y="360" style="fill: #df9c20; stroke: #3f3f3f; stroke-width: 1.25"/>
    </g>
   </g>
   <g id="PolyCollection_4">
    <defs>
     <path id="m2108d68326" d="M 306.572433 -74.78782 
L 306.415892 -74.78782 
L 306.371775 -76.860053 
L 306.313285 -78.932286 
L 306.241487 -81.004519 
L 306.160488 -83.076751 
L 306.077516 -85.148984 
L 306.001996 -87.221217 
L 305.943604 -89.29345 
L 305.909672 -91.365683 
L 305.902622 -93.437915 
L 305.918151 -95.510148 
L 305.944623 -97.582381 
L 305.963671 -99.654614 
L 305.951558 -101.726847 
L 305.88066 -103.79908 
L 305.720521 -105.871312 
L 305.438324 -107.943545 
L 304.999014 -110.015778 
L 304.365662 -112.088011 
L 303.500788 -114.160244 
L 302.369229 -116.232476 
L 300.942837 -118.304709 
L 299.20672 -120.376942 
L 297.166165 -122.449175 
L 294.852761 -124.521408 
L 292.327931 -126.59364 
L 289.6823 -128.665873 
L 287.030078 -130.738106 
L 284.498999 -132.810339 
L 282.217584 -134.882572 
L 280.302329 -136.954805 
L 278.847151 -139.027037 
L 277.916366 -141.09927 
L 277.541053 -143.171503 
L 277.717848 -145.243736 
L 278.409389 -147.315969 
L 279.546613 -149.388201 
L 281.034034 -151.460434 
L 282.759021 -153.532667 
L 284.604725 -155.6049 
L 286.464315 -157.677133 
L 288.252964 -159.749365 
L 289.914492 -161.821598 
L 291.421674 -163.893831 
L 292.771708 -165.966064 
L 293.979682 -168.038297 
L 295.072376 -170.110529 
L 296.082924 -172.182762 
L 297.045373 -174.254995 
L 297.98808 -176.327228 
L 298.926478 -178.399461 
L 299.857588 -180.471694 
L 300.759361 -182.543926 
L 301.596545 -184.616159 
L 302.331961 -186.688392 
L 302.939299 -188.760625 
L 303.412495 -190.832858 
L 303.767977 -192.90509 
L 304.039057 -194.977323 
L 304.264917 -197.049556 
L 304.478653 -199.121789 
L 304.698779 -201.194022 
L 304.926808 -203.266254 
L 305.150918 -205.338487 
L 305.353473 -207.41072 
L 305.519173 -209.482953 
L 305.640926 -211.555186 
L 305.721885 -213.627419 
L 305.773666 -215.699651 
L 305.81203 -217.771884 
L 305.851919 -219.844117 
L 305.90352 -221.91635 
L 305.970439 -223.988583 
L 306.050113 -226.060815 
L 306.135874 -228.133048 
L 306.219645 -230.205281 
L 306.294288 -232.277514 
L 306.354963 -234.349747 
L 306.399349 -236.421979 
L 306.427004 -238.494212 
L 306.43834 -240.566445 
L 306.433712 -242.638678 
L 306.412977 -244.710911 
L 306.375701 -246.783144 
L 306.321938 -248.855376 
L 306.25333 -250.927609 
L 306.174102 -252.999842 
L 306.091459 -255.072075 
L 306.015032 -257.144308 
L 305.955299 -259.21654 
L 305.921356 -261.288773 
L 305.918687 -263.361006 
L 305.947737 -265.433239 
L 306.0038 -267.505472 
L 306.078264 -269.577704 
L 306.160783 -271.649937 
L 306.241597 -273.72217 
L 306.313324 -275.794403 
L 306.371788 -277.866636 
L 306.415897 -279.938868 
L 306.572429 -279.938868 
L 306.572429 -279.938868 
L 306.616537 -277.866636 
L 306.675001 -275.794403 
L 306.746728 -273.72217 
L 306.827543 -271.649937 
L 306.910061 -269.577704 
L 306.984526 -267.505472 
L 307.040588 -265.433239 
L 307.069638 -263.361006 
L 307.066969 -261.288773 
L 307.033026 -259.21654 
L 306.973294 -257.144308 
L 306.896866 -255.072075 
L 306.814224 -252.999842 
L 306.734996 -250.927609 
L 306.666388 -248.855376 
L 306.612624 -246.783144 
L 306.575348 -244.710911 
L 306.554614 -242.638678 
L 306.549985 -240.566445 
L 306.561321 -238.494212 
L 306.588976 -236.421979 
L 306.633362 -234.349747 
L 306.694037 -232.277514 
L 306.768681 -230.205281 
L 306.852452 -228.133048 
L 306.938212 -226.060815 
L 307.017886 -223.988583 
L 307.084806 -221.91635 
L 307.136407 -219.844117 
L 307.176295 -217.771884 
L 307.21466 -215.699651 
L 307.26644 -213.627419 
L 307.3474 -211.555186 
L 307.469153 -209.482953 
L 307.634852 -207.41072 
L 307.837408 -205.338487 
L 308.061517 -203.266254 
L 308.289546 -201.194022 
L 308.509672 -199.121789 
L 308.723408 -197.049556 
L 308.949268 -194.977323 
L 309.220348 -192.90509 
L 309.575831 -190.832858 
L 310.049026 -188.760625 
L 310.656364 -186.688392 
L 311.39178 -184.616159 
L 312.228964 -182.543926 
L 313.130737 -180.471694 
L 314.061847 -178.399461 
L 315.000245 -176.327228 
L 315.942952 -174.254995 
L 316.905401 -172.182762 
L 317.91595 -170.110529 
L 319.008643 -168.038297 
L 320.216618 -165.966064 
L 321.566652 -163.893831 
L 323.073834 -161.821598 
L 324.735361 -159.749365 
L 326.52401 -157.677133 
L 328.383601 -155.6049 
L 330.229305 -153.532667 
L 331.954292 -151.460434 
L 333.441712 -149.388201 
L 334.578936 -147.315969 
L 335.270478 -145.243736 
L 335.447273 -143.171503 
L 335.071959 -141.09927 
L 334.141174 -139.027037 
L 332.685996 -136.954805 
L 330.770741 -134.882572 
L 328.489326 -132.810339 
L 325.958247 -130.738106 
L 323.306026 -128.665873 
L 320.660394 -126.59364 
L 318.135565 -124.521408 
L 315.82216 -122.449175 
L 313.781606 -120.376942 
L 312.045488 -118.304709 
L 310.619096 -116.232476 
L 309.487538 -114.160244 
L 308.622663 -112.088011 
L 307.989311 -110.015778 
L 307.550001 -107.943545 
L 307.267805 -105.871312 
L 307.107665 -103.79908 
L 307.036767 -101.726847 
L 307.024655 -99.654614 
L 307.043703 -97.582381 
L 307.070175 -95.510148 
L 307.085703 -93.437915 
L 307.078653 -91.365683 
L 307.044721 -89.29345 
L 306.986329 -87.221217 
L 306.910809 -85.148984 
L 306.827837 -83.076751 
L 306.746838 -81.004519 
L 306.67504 -78.932286 
L 306.61655 -76.860053 
L 306.572433 -74.78782 
z
" style="stroke: #3f3f3f; stroke-width: 1.25"/>
    </defs>
    <g clip-path="url(#p1f3404704c)">
     <use xlink:href="#m2108d68326" x="0" y="360" style="fill: #df2020; stroke: #3f3f3f; stroke-width: 1.25"/>
    </g>
   </g>
   <g id="matplotlib.axis_1">
    <g id="xtick_1">
     <g id="line2d_1">
      <defs>
       <path id="m45d0b27465" d="M 0 0 
L 0 3.5 
" style="stroke: #000000; stroke-width: 0.8"/>
      </defs>
      <g>
       <use xlink:href="#m45d0b27465" x="89.345837" y="316.10776" style="stroke: #000000; stroke-width: 0.8"/>
      </g>
     </g>
     <g id="text_1">
      <!-- sur -->
      <g transform="translate(76.803531 339.552412) rotate(-45) scale(0.1 -0.1)">
       <defs>
        <path id="DejaVuSans-73" d="M 2834 3397 
L 2834 2853 
Q 2591 2978 2328 3040 
Q 2066 3103 1784 3103 
Q 1356 3103 1142 2972 
Q 928 2841 928 2578 
Q 928 2378 1081 2264 
Q 1234 2150 1697 2047 
L 1894 2003 
Q 2506 1872 2764 1633 
Q 3022 1394 3022 966 
Q 3022 478 2636 193 
Q 2250 -91 1575 -91 
Q 1294 -91 989 -36 
Q 684 19 347 128 
L 347 722 
Q 666 556 975 473 
Q 1284 391 1588 391 
Q 1994 391 2212 530 
Q 2431 669 2431 922 
Q 2431 1156 2273 1281 
Q 2116 1406 1581 1522 
L 1381 1569 
Q 847 1681 609 1914 
Q 372 2147 372 2553 
Q 372 3047 722 3315 
Q 1072 3584 1716 3584 
Q 2034 3584 2315 3537 
Q 2597 3491 2834 3397 
z
" transform="scale(0.015625)"/>
        <path id="DejaVuSans-75" d="M 544 1381 
L 544 3500 
L 1119 3500 
L 1119 1403 
Q 1119 906 1312 657 
Q 1506 409 1894 409 
Q 2359 409 2629 706 
Q 2900 1003 2900 1516 
L 2900 3500 
L 3475 3500 
L 3475 0 
L 2900 0 
L 2900 538 
Q 2691 219 2414 64 
Q 2138 -91 1772 -91 
Q 1169 -91 856 284 
Q 544 659 544 1381 
z
M 1991 3584 
L 1991 3584 
z
" transform="scale(0.015625)"/>
        <path id="DejaVuSans-72" d="M 2631 2963 
Q 2534 3019 2420 3045 
Q 2306 3072 2169 3072 
Q 1681 3072 1420 2755 
Q 1159 2438 1159 1844 
L 1159 0 
L 581 0 
L 581 3500 
L 1159 3500 
L 1159 2956 
Q 1341 3275 1631 3429 
Q 1922 3584 2338 3584 
Q 2397 3584 2469 3576 
Q 2541 3569 2628 3553 
L 2631 2963 
z
" transform="scale(0.015625)"/>
       </defs>
       <use xlink:href="#DejaVuSans-73"/>
       <use xlink:href="#DejaVuSans-75" x="52.099609"/>
       <use xlink:href="#DejaVuSans-72" x="115.478516"/>
      </g>
     </g>
    </g>
    <g id="xtick_2">
     <g id="line2d_2">
      <g>
       <use xlink:href="#m45d0b27465" x="161.728612" y="316.10776" style="stroke: #000000; stroke-width: 0.8"/>
      </g>
     </g>
     <g id="text_2">
      <!-- iso90 -->
      <g transform="translate(141.285492 347.453225) rotate(-45) scale(0.1 -0.1)">
       <defs>
        <path id="DejaVuSans-69" d="M 603 3500 
L 1178 3500 
L 1178 0 
L 603 0 
L 603 3500 
z
M 603 4863 
L 1178 4863 
L 1178 4134 
L 603 4134 
L 603 4863 
z
" transform="scale(0.015625)"/>
        <path id="DejaVuSans-6f" d="M 1959 3097 
Q 1497 3097 1228 2736 
Q 959 2375 959 1747 
Q 959 1119 1226 758 
Q 1494 397 1959 397 
Q 2419 397 2687 759 
Q 2956 1122 2956 1747 
Q 2956 2369 2687 2733 
Q 2419 3097 1959 3097 
z
M 1959 3584 
Q 2709 3584 3137 3096 
Q 3566 2609 3566 1747 
Q 3566 888 3137 398 
Q 2709 -91 1959 -91 
Q 1206 -91 779 398 
Q 353 888 353 1747 
Q 353 2609 779 3096 
Q 1206 3584 1959 3584 
z
" transform="scale(0.015625)"/>
        <path id="DejaVuSans-39" d="M 703 97 
L 703 672 
Q 941 559 1184 500 
Q 1428 441 1663 441 
Q 2288 441 2617 861 
Q 2947 1281 2994 2138 
Q 2813 1869 2534 1725 
Q 2256 1581 1919 1581 
Q 1219 1581 811 2004 
Q 403 2428 403 3163 
Q 403 3881 828 4315 
Q 1253 4750 1959 4750 
Q 2769 4750 3195 4129 
Q 3622 3509 3622 2328 
Q 3622 1225 3098 567 
Q 2575 -91 1691 -91 
Q 1453 -91 1209 -44 
Q 966 3 703 97 
z
M 1959 2075 
Q 2384 2075 2632 2365 
Q 2881 2656 2881 3163 
Q 2881 3666 2632 3958 
Q 2384 4250 1959 4250 
Q 1534 4250 1286 3958 
Q 1038 3666 1038 3163 
Q 1038 2656 1286 2365 
Q 1534 2075 1959 2075 
z
" transform="scale(0.015625)"/>
        <path id="DejaVuSans-30" d="M 2034 4250 
Q 1547 4250 1301 3770 
Q 1056 3291 1056 2328 
Q 1056 1369 1301 889 
Q 1547 409 2034 409 
Q 2525 409 2770 889 
Q 3016 1369 3016 2328 
Q 3016 3291 2770 3770 
Q 2525 4250 2034 4250 
z
M 2034 4750 
Q 2819 4750 3233 4129 
Q 3647 3509 3647 2328 
Q 3647 1150 3233 529 
Q 2819 -91 2034 -91 
Q 1250 -91 836 529 
Q 422 1150 422 2328 
Q 422 3509 836 4129 
Q 1250 4750 2034 4750 
z
" transform="scale(0.015625)"/>
       </defs>
       <use xlink:href="#DejaVuSans-69"/>
       <use xlink:href="#DejaVuSans-73" x="27.783203"/>
       <use xlink:href="#DejaVuSans-6f" x="79.882812"/>
       <use xlink:href="#DejaVuSans-39" x="141.064453"/>
       <use xlink:href="#DejaVuSans-30" x="204.6875"/>
      </g>
     </g>
    </g>
    <g id="xtick_3">
     <g id="line2d_3">
      <g>
       <use xlink:href="#m45d0b27465" x="234.111388" y="316.10776" style="stroke: #000000; stroke-width: 0.8"/>
      </g>
     </g>
     <g id="text_3">
      <!-- orth -->
      <g transform="translate(218.153976 342.967517) rotate(-45) scale(0.1 -0.1)">
       <defs>
        <path id="DejaVuSans-74" d="M 1172 4494 
L 1172 3500 
L 2356 3500 
L 2356 3053 
L 1172 3053 
L 1172 1153 
Q 1172 725 1289 603 
Q 1406 481 1766 481 
L 2356 481 
L 2356 0 
L 1766 0 
Q 1100 0 847 248 
Q 594 497 594 1153 
L 594 3053 
L 172 3053 
L 172 3500 
L 594 3500 
L 594 4494 
L 1172 4494 
z
" transform="scale(0.015625)"/>
        <path id="DejaVuSans-68" d="M 3513 2113 
L 3513 0 
L 2938 0 
L 2938 2094 
Q 2938 2591 2744 2837 
Q 2550 3084 2163 3084 
Q 1697 3084 1428 2787 
Q 1159 2491 1159 1978 
L 1159 0 
L 581 0 
L 581 4863 
L 1159 4863 
L 1159 2956 
Q 1366 3272 1645 3428 
Q 1925 3584 2291 3584 
Q 2894 3584 3203 3211 
Q 3513 2838 3513 2113 
z
" transform="scale(0.015625)"/>
       </defs>
       <use xlink:href="#DejaVuSans-6f"/>
       <use xlink:href="#DejaVuSans-72" x="61.181641"/>
       <use xlink:href="#DejaVuSans-74" x="102.294922"/>
       <use xlink:href="#DejaVuSans-68" x="141.503906"/>
      </g>
     </g>
    </g>
    <g id="xtick_4">
     <g id="line2d_4">
      <g>
       <use xlink:href="#m45d0b27465" x="306.494163" y="316.10776" style="stroke: #000000; stroke-width: 0.8"/>
      </g>
     </g>
     <g id="text_4">
      <!-- iso0 -->
      <g transform="translate(290.55001 342.954258) rotate(-45) scale(0.1 -0.1)">
       <use xlink:href="#DejaVuSans-69"/>
       <use xlink:href="#DejaVuSans-73" x="27.783203"/>
       <use xlink:href="#DejaVuSans-6f" x="79.882812"/>
       <use xlink:href="#DejaVuSans-30" x="141.064453"/>
      </g>
     </g>
    </g>
   </g>
   <g id="matplotlib.axis_2">
    <g id="ytick_1">
     <g id="line2d_5">
      <defs>
       <path id="m5cc2212ec3" d="M 0 0 
L -3.5 0 
" style="stroke: #000000; stroke-width: 0.8"/>
      </defs>
      <g>
       <use xlink:href="#m5cc2212ec3" x="46.64" y="290.101698" style="stroke: #000000; stroke-width: 0.8"/>
      </g>
     </g>
     <g id="text_5">
      <!-- −2 -->
      <g transform="translate(24.897813 293.900916) scale(0.1 -0.1)">
       <defs>
        <path id="DejaVuSans-2212" d="M 678 2272 
L 4684 2272 
L 4684 1741 
L 678 1741 
L 678 2272 
z
" transform="scale(0.015625)"/>
        <path id="DejaVuSans-32" d="M 1228 531 
L 3431 531 
L 3431 0 
L 469 0 
L 469 531 
Q 828 903 1448 1529 
Q 2069 2156 2228 2338 
Q 2531 2678 2651 2914 
Q 2772 3150 2772 3378 
Q 2772 3750 2511 3984 
Q 2250 4219 1831 4219 
Q 1534 4219 1204 4116 
Q 875 4013 500 3803 
L 500 4441 
Q 881 4594 1212 4672 
Q 1544 4750 1819 4750 
Q 2544 4750 2975 4387 
Q 3406 4025 3406 3419 
Q 3406 3131 3298 2873 
Q 3191 2616 2906 2266 
Q 2828 2175 2409 1742 
Q 1991 1309 1228 531 
z
" transform="scale(0.015625)"/>
       </defs>
       <use xlink:href="#DejaVuSans-2212"/>
       <use xlink:href="#DejaVuSans-32" x="83.789062"/>
      </g>
     </g>
    </g>
    <g id="ytick_2">
     <g id="line2d_6">
      <g>
       <use xlink:href="#m5cc2212ec3" x="46.64" y="250.372601" style="stroke: #000000; stroke-width: 0.8"/>
      </g>
     </g>
     <g id="text_6">
      <!-- 0 -->
      <g transform="translate(33.2775 254.17182) scale(0.1 -0.1)">
       <use xlink:href="#DejaVuSans-30"/>
      </g>
     </g>
    </g>
    <g id="ytick_3">
     <g id="line2d_7">
      <g>
       <use xlink:href="#m5cc2212ec3" x="46.64" y="210.643504" style="stroke: #000000; stroke-width: 0.8"/>
      </g>
     </g>
     <g id="text_7">
      <!-- 2 -->
      <g transform="translate(33.2775 214.442723) scale(0.1 -0.1)">
       <use xlink:href="#DejaVuSans-32"/>
      </g>
     </g>
    </g>
    <g id="ytick_4">
     <g id="line2d_8">
      <g>
       <use xlink:href="#m5cc2212ec3" x="46.64" y="170.914407" style="stroke: #000000; stroke-width: 0.8"/>
      </g>
     </g>
     <g id="text_8">
      <!-- 4 -->
      <g transform="translate(33.2775 174.713626) scale(0.1 -0.1)">
       <defs>
        <path id="DejaVuSans-34" d="M 2419 4116 
L 825 1625 
L 2419 1625 
L 2419 4116 
z
M 2253 4666 
L 3047 4666 
L 3047 1625 
L 3713 1625 
L 3713 1100 
L 3047 1100 
L 3047 0 
L 2419 0 
L 2419 1100 
L 313 1100 
L 313 1709 
L 2253 4666 
z
" transform="scale(0.015625)"/>
       </defs>
       <use xlink:href="#DejaVuSans-34"/>
      </g>
     </g>
    </g>
    <g id="ytick_5">
     <g id="line2d_9">
      <g>
       <use xlink:href="#m5cc2212ec3" x="46.64" y="131.18531" style="stroke: #000000; stroke-width: 0.8"/>
      </g>
     </g>
     <g id="text_9">
      <!-- 6 -->
      <g transform="translate(33.2775 134.984529) scale(0.1 -0.1)">
       <defs>
        <path id="DejaVuSans-36" d="M 2113 2584 
Q 1688 2584 1439 2293 
Q 1191 2003 1191 1497 
Q 1191 994 1439 701 
Q 1688 409 2113 409 
Q 2538 409 2786 701 
Q 3034 994 3034 1497 
Q 3034 2003 2786 2293 
Q 2538 2584 2113 2584 
z
M 3366 4563 
L 3366 3988 
Q 3128 4100 2886 4159 
Q 2644 4219 2406 4219 
Q 1781 4219 1451 3797 
Q 1122 3375 1075 2522 
Q 1259 2794 1537 2939 
Q 1816 3084 2150 3084 
Q 2853 3084 3261 2657 
Q 3669 2231 3669 1497 
Q 3669 778 3244 343 
Q 2819 -91 2113 -91 
Q 1303 -91 875 529 
Q 447 1150 447 2328 
Q 447 3434 972 4092 
Q 1497 4750 2381 4750 
Q 2619 4750 2861 4703 
Q 3103 4656 3366 4563 
z
" transform="scale(0.015625)"/>
       </defs>
       <use xlink:href="#DejaVuSans-36"/>
      </g>
     </g>
    </g>
    <g id="ytick_6">
     <g id="line2d_10">
      <g>
       <use xlink:href="#m5cc2212ec3" x="46.64" y="91.456213" style="stroke: #000000; stroke-width: 0.8"/>
      </g>
     </g>
     <g id="text_10">
      <!-- 8 -->
      <g transform="translate(33.2775 95.255432) scale(0.1 -0.1)">
       <defs>
        <path id="DejaVuSans-38" d="M 2034 2216 
Q 1584 2216 1326 1975 
Q 1069 1734 1069 1313 
Q 1069 891 1326 650 
Q 1584 409 2034 409 
Q 2484 409 2743 651 
Q 3003 894 3003 1313 
Q 3003 1734 2745 1975 
Q 2488 2216 2034 2216 
z
M 1403 2484 
Q 997 2584 770 2862 
Q 544 3141 544 3541 
Q 544 4100 942 4425 
Q 1341 4750 2034 4750 
Q 2731 4750 3128 4425 
Q 3525 4100 3525 3541 
Q 3525 3141 3298 2862 
Q 3072 2584 2669 2484 
Q 3125 2378 3379 2068 
Q 3634 1759 3634 1313 
Q 3634 634 3220 271 
Q 2806 -91 2034 -91 
Q 1263 -91 848 271 
Q 434 634 434 1313 
Q 434 1759 690 2068 
Q 947 2378 1403 2484 
z
M 1172 3481 
Q 1172 3119 1398 2916 
Q 1625 2713 2034 2713 
Q 2441 2713 2670 2916 
Q 2900 3119 2900 3481 
Q 2900 3844 2670 4047 
Q 2441 4250 2034 4250 
Q 1625 4250 1398 4047 
Q 1172 3844 1172 3481 
z
" transform="scale(0.015625)"/>
       </defs>
       <use xlink:href="#DejaVuSans-38"/>
      </g>
     </g>
    </g>
    <g id="ytick_7">
     <g id="line2d_11">
      <g>
       <use xlink:href="#m5cc2212ec3" x="46.64" y="51.727117" style="stroke: #000000; stroke-width: 0.8"/>
      </g>
     </g>
     <g id="text_11">
      <!-- 10 -->
      <g transform="translate(26.915 55.526335) scale(0.1 -0.1)">
       <defs>
        <path id="DejaVuSans-31" d="M 794 531 
L 1825 531 
L 1825 4091 
L 703 3866 
L 703 4441 
L 1819 4666 
L 2450 4666 
L 2450 531 
L 3481 531 
L 3481 0 
L 794 0 
L 794 531 
z
" transform="scale(0.015625)"/>
       </defs>
       <use xlink:href="#DejaVuSans-31"/>
       <use xlink:href="#DejaVuSans-30" x="63.623047"/>
      </g>
     </g>
    </g>
    <g id="text_12">
     <!-- Average BOLD Response -->
     <g transform="translate(18.818125 243.213724) rotate(-90) scale(0.1 -0.1)">
      <defs>
       <path id="DejaVuSans-41" d="M 2188 4044 
L 1331 1722 
L 3047 1722 
L 2188 4044 
z
M 1831 4666 
L 2547 4666 
L 4325 0 
L 3669 0 
L 3244 1197 
L 1141 1197 
L 716 0 
L 50 0 
L 1831 4666 
z
" transform="scale(0.015625)"/>
       <path id="DejaVuSans-76" d="M 191 3500 
L 800 3500 
L 1894 563 
L 2988 3500 
L 3597 3500 
L 2284 0 
L 1503 0 
L 191 3500 
z
" transform="scale(0.015625)"/>
       <path id="DejaVuSans-65" d="M 3597 1894 
L 3597 1613 
L 953 1613 
Q 991 1019 1311 708 
Q 1631 397 2203 397 
Q 2534 397 2845 478 
Q 3156 559 3463 722 
L 3463 178 
Q 3153 47 2828 -22 
Q 2503 -91 2169 -91 
Q 1331 -91 842 396 
Q 353 884 353 1716 
Q 353 2575 817 3079 
Q 1281 3584 2069 3584 
Q 2775 3584 3186 3129 
Q 3597 2675 3597 1894 
z
M 3022 2063 
Q 3016 2534 2758 2815 
Q 2500 3097 2075 3097 
Q 1594 3097 1305 2825 
Q 1016 2553 972 2059 
L 3022 2063 
z
" transform="scale(0.015625)"/>
       <path id="DejaVuSans-61" d="M 2194 1759 
Q 1497 1759 1228 1600 
Q 959 1441 959 1056 
Q 959 750 1161 570 
Q 1363 391 1709 391 
Q 2188 391 2477 730 
Q 2766 1069 2766 1631 
L 2766 1759 
L 2194 1759 
z
M 3341 1997 
L 3341 0 
L 2766 0 
L 2766 531 
Q 2569 213 2275 61 
Q 1981 -91 1556 -91 
Q 1019 -91 701 211 
Q 384 513 384 1019 
Q 384 1609 779 1909 
Q 1175 2209 1959 2209 
L 2766 2209 
L 2766 2266 
Q 2766 2663 2505 2880 
Q 2244 3097 1772 3097 
Q 1472 3097 1187 3025 
Q 903 2953 641 2809 
L 641 3341 
Q 956 3463 1253 3523 
Q 1550 3584 1831 3584 
Q 2591 3584 2966 3190 
Q 3341 2797 3341 1997 
z
" transform="scale(0.015625)"/>
       <path id="DejaVuSans-67" d="M 2906 1791 
Q 2906 2416 2648 2759 
Q 2391 3103 1925 3103 
Q 1463 3103 1205 2759 
Q 947 2416 947 1791 
Q 947 1169 1205 825 
Q 1463 481 1925 481 
Q 2391 481 2648 825 
Q 2906 1169 2906 1791 
z
M 3481 434 
Q 3481 -459 3084 -895 
Q 2688 -1331 1869 -1331 
Q 1566 -1331 1297 -1286 
Q 1028 -1241 775 -1147 
L 775 -588 
Q 1028 -725 1275 -790 
Q 1522 -856 1778 -856 
Q 2344 -856 2625 -561 
Q 2906 -266 2906 331 
L 2906 616 
Q 2728 306 2450 153 
Q 2172 0 1784 0 
Q 1141 0 747 490 
Q 353 981 353 1791 
Q 353 2603 747 3093 
Q 1141 3584 1784 3584 
Q 2172 3584 2450 3431 
Q 2728 3278 2906 2969 
L 2906 3500 
L 3481 3500 
L 3481 434 
z
" transform="scale(0.015625)"/>
       <path id="DejaVuSans-20" transform="scale(0.015625)"/>
       <path id="DejaVuSans-42" d="M 1259 2228 
L 1259 519 
L 2272 519 
Q 2781 519 3026 730 
Q 3272 941 3272 1375 
Q 3272 1813 3026 2020 
Q 2781 2228 2272 2228 
L 1259 2228 
z
M 1259 4147 
L 1259 2741 
L 2194 2741 
Q 2656 2741 2882 2914 
Q 3109 3088 3109 3444 
Q 3109 3797 2882 3972 
Q 2656 4147 2194 4147 
L 1259 4147 
z
M 628 4666 
L 2241 4666 
Q 2963 4666 3353 4366 
Q 3744 4066 3744 3513 
Q 3744 3084 3544 2831 
Q 3344 2578 2956 2516 
Q 3422 2416 3680 2098 
Q 3938 1781 3938 1306 
Q 3938 681 3513 340 
Q 3088 0 2303 0 
L 628 0 
L 628 4666 
z
" transform="scale(0.015625)"/>
       <path id="DejaVuSans-4f" d="M 2522 4238 
Q 1834 4238 1429 3725 
Q 1025 3213 1025 2328 
Q 1025 1447 1429 934 
Q 1834 422 2522 422 
Q 3209 422 3611 934 
Q 4013 1447 4013 2328 
Q 4013 3213 3611 3725 
Q 3209 4238 2522 4238 
z
M 2522 4750 
Q 3503 4750 4090 4092 
Q 4678 3434 4678 2328 
Q 4678 1225 4090 567 
Q 3503 -91 2522 -91 
Q 1538 -91 948 565 
Q 359 1222 359 2328 
Q 359 3434 948 4092 
Q 1538 4750 2522 4750 
z
" transform="scale(0.015625)"/>
       <path id="DejaVuSans-4c" d="M 628 4666 
L 1259 4666 
L 1259 531 
L 3531 531 
L 3531 0 
L 628 0 
L 628 4666 
z
" transform="scale(0.015625)"/>
       <path id="DejaVuSans-44" d="M 1259 4147 
L 1259 519 
L 2022 519 
Q 2988 519 3436 956 
Q 3884 1394 3884 2338 
Q 3884 3275 3436 3711 
Q 2988 4147 2022 4147 
L 1259 4147 
z
M 628 4666 
L 1925 4666 
Q 3281 4666 3915 4102 
Q 4550 3538 4550 2338 
Q 4550 1131 3912 565 
Q 3275 0 1925 0 
L 628 0 
L 628 4666 
z
" transform="scale(0.015625)"/>
       <path id="DejaVuSans-52" d="M 2841 2188 
Q 3044 2119 3236 1894 
Q 3428 1669 3622 1275 
L 4263 0 
L 3584 0 
L 2988 1197 
Q 2756 1666 2539 1819 
Q 2322 1972 1947 1972 
L 1259 1972 
L 1259 0 
L 628 0 
L 628 4666 
L 2053 4666 
Q 2853 4666 3247 4331 
Q 3641 3997 3641 3322 
Q 3641 2881 3436 2590 
Q 3231 2300 2841 2188 
z
M 1259 4147 
L 1259 2491 
L 2053 2491 
Q 2509 2491 2742 2702 
Q 2975 2913 2975 3322 
Q 2975 3731 2742 3939 
Q 2509 4147 2053 4147 
L 1259 4147 
z
" transform="scale(0.015625)"/>
       <path id="DejaVuSans-70" d="M 1159 525 
L 1159 -1331 
L 581 -1331 
L 581 3500 
L 1159 3500 
L 1159 2969 
Q 1341 3281 1617 3432 
Q 1894 3584 2278 3584 
Q 2916 3584 3314 3078 
Q 3713 2572 3713 1747 
Q 3713 922 3314 415 
Q 2916 -91 2278 -91 
Q 1894 -91 1617 61 
Q 1341 213 1159 525 
z
M 3116 1747 
Q 3116 2381 2855 2742 
Q 2594 3103 2138 3103 
Q 1681 3103 1420 2742 
Q 1159 2381 1159 1747 
Q 1159 1113 1420 752 
Q 1681 391 2138 391 
Q 2594 391 2855 752 
Q 3116 1113 3116 1747 
z
" transform="scale(0.015625)"/>
       <path id="DejaVuSans-6e" d="M 3513 2113 
L 3513 0 
L 2938 0 
L 2938 2094 
Q 2938 2591 2744 2837 
Q 2550 3084 2163 3084 
Q 1697 3084 1428 2787 
Q 1159 2491 1159 1978 
L 1159 0 
L 581 0 
L 581 3500 
L 1159 3500 
L 1159 2956 
Q 1366 3272 1645 3428 
Q 1925 3584 2291 3584 
Q 2894 3584 3203 3211 
Q 3513 2838 3513 2113 
z
" transform="scale(0.015625)"/>
      </defs>
      <use xlink:href="#DejaVuSans-41"/>
      <use xlink:href="#DejaVuSans-76" x="62.533203"/>
      <use xlink:href="#DejaVuSans-65" x="121.712891"/>
      <use xlink:href="#DejaVuSans-72" x="183.236328"/>
      <use xlink:href="#DejaVuSans-61" x="224.349609"/>
      <use xlink:href="#DejaVuSans-67" x="285.628906"/>
      <use xlink:href="#DejaVuSans-65" x="349.105469"/>
      <use xlink:href="#DejaVuSans-20" x="410.628906"/>
      <use xlink:href="#DejaVuSans-42" x="442.416016"/>
      <use xlink:href="#DejaVuSans-4f" x="509.269531"/>
      <use xlink:href="#DejaVuSans-4c" x="587.980469"/>
      <use xlink:href="#DejaVuSans-44" x="643.693359"/>
      <use xlink:href="#DejaVuSans-20" x="720.695312"/>
      <use xlink:href="#DejaVuSans-52" x="752.482422"/>
      <use xlink:href="#DejaVuSans-65" x="817.464844"/>
      <use xlink:href="#DejaVuSans-73" x="878.988281"/>
      <use xlink:href="#DejaVuSans-70" x="931.087891"/>
      <use xlink:href="#DejaVuSans-6f" x="994.564453"/>
      <use xlink:href="#DejaVuSans-6e" x="1055.746094"/>
      <use xlink:href="#DejaVuSans-73" x="1119.125"/>
      <use xlink:href="#DejaVuSans-65" x="1171.224609"/>
     </g>
    </g>
   </g>
   <g id="line2d_12">
    <path d="M 74.869282 211.298719 
L 103.822392 211.298719 
" clip-path="url(#p1f3404704c)" style="fill: none; stroke: #b2b2b2; stroke-width: 2; stroke-linecap: square"/>
   </g>
   <g id="line2d_13">
    <path d="M 147.252057 199.833737 
L 176.205167 199.833737 
" clip-path="url(#p1f3404704c)" style="fill: none; stroke: #9400d3; stroke-width: 2; stroke-linecap: square"/>
   </g>
   <g id="line2d_14">
    <path d="M 219.634833 201.102889 
L 248.587943 201.102889 
" clip-path="url(#p1f3404704c)" style="fill: none; stroke: #ffa500; stroke-width: 2; stroke-linecap: square"/>
   </g>
   <g id="line2d_15">
    <path d="M 292.017608 209.110961 
L 320.970718 209.110961 
" clip-path="url(#p1f3404704c)" style="fill: none; stroke: #ff0000; stroke-width: 2; stroke-linecap: square"/>
   </g>
   <g id="patch_3">
    <path d="M 46.64 316.10776 
L 46.64 47.04 
" style="fill: none; stroke: #000000; stroke-width: 0.8; stroke-linejoin: miter; stroke-linecap: square"/>
   </g>
   <g id="patch_4">
    <path d="M 349.2 316.10776 
L 349.2 47.04 
" style="fill: none; stroke: #000000; stroke-width: 0.8; stroke-linejoin: miter; stroke-linecap: square"/>
   </g>
   <g id="patch_5">
    <path d="M 46.64 316.10776 
L 349.2 316.10776 
" style="fill: none; stroke: #000000; stroke-width: 0.8; stroke-linejoin: miter; stroke-linecap: square"/>
   </g>
   <g id="patch_6">
    <path d="M 46.64 47.04 
L 349.2 47.04 
" style="fill: none; stroke: #000000; stroke-width: 0.8; stroke-linejoin: miter; stroke-linecap: square"/>
   </g>
   <g id="PathCollection_1">
    <defs>
     <path id="mafacc745ac" d="M 0 2.5 
C 0.663008 2.5 1.29895 2.236584 1.767767 1.767767 
C 2.236584 1.29895 2.5 0.663008 2.5 0 
C 2.5 -0.663008 2.236584 -1.29895 1.767767 -1.767767 
C 1.29895 -2.236584 0.663008 -2.5 0 -2.5 
C -0.663008 -2.5 -1.29895 -2.236584 -1.767767 -1.767767 
C -2.236584 -1.29895 -2.5 -0.663008 -2.5 0 
C -2.5 0.663008 -2.236584 1.29895 -1.767767 1.767767 
C -1.29895 2.236584 -0.663008 2.5 0 2.5 
z
"/>
    </defs>
    <g clip-path="url(#p1f3404704c)">
     <use xlink:href="#mafacc745ac" x="60.392727" y="220.694935" style="fill-opacity: 0.7"/>
     <use xlink:href="#mafacc745ac" x="65.541185" y="200.992458" style="fill-opacity: 0.7"/>
     <use xlink:href="#mafacc745ac" x="109.717056" y="211.087544" style="fill-opacity: 0.7"/>
     <use xlink:href="#mafacc745ac" x="114.610565" y="221.186765" style="fill-opacity: 0.7"/>
     <use xlink:href="#mafacc745ac" x="74.123909" y="211.504828" style="fill-opacity: 0.7"/>
     <use xlink:href="#mafacc745ac" x="93.848452" y="192.036588" style="fill-opacity: 0.7"/>
     <use xlink:href="#mafacc745ac" x="89.345837" y="194.607832" style="fill-opacity: 0.7"/>
     <use xlink:href="#mafacc745ac" x="101.784629" y="201.715179" style="fill-opacity: 0.7"/>
     <use xlink:href="#mafacc745ac" x="70.769622" y="201.445161" style="fill-opacity: 0.7"/>
     <use xlink:href="#mafacc745ac" x="90.479592" y="221.874984" style="fill-opacity: 0.7"/>
     <use xlink:href="#mafacc745ac" x="99.159493" y="223.238898" style="fill-opacity: 0.7"/>
     <use xlink:href="#mafacc745ac" x="71.234136" y="229.112525" style="fill-opacity: 0.7"/>
     <use xlink:href="#mafacc745ac" x="89.345837" y="237.226851" style="fill-opacity: 0.7"/>
     <use xlink:href="#mafacc745ac" x="89.345837" y="244.189019" style="fill-opacity: 0.7"/>
     <use xlink:href="#mafacc745ac" x="84.671488" y="186.719403" style="fill-opacity: 0.7"/>
     <use xlink:href="#mafacc745ac" x="74.265859" y="233.19458" style="fill-opacity: 0.7"/>
     <use xlink:href="#mafacc745ac" x="84.056626" y="202.478255" style="fill-opacity: 0.7"/>
     <use xlink:href="#mafacc745ac" x="89.345837" y="214.873749" style="fill-opacity: 0.7"/>
     <use xlink:href="#mafacc745ac" x="94.321209" y="207.601138" style="fill-opacity: 0.7"/>
     <use xlink:href="#mafacc745ac" x="60.885156" y="213.644725" style="fill-opacity: 0.7"/>
     <use xlink:href="#mafacc745ac" x="92.309849" y="199.836808" style="fill-opacity: 0.7"/>
     <use xlink:href="#mafacc745ac" x="91.258428" y="184.339363" style="fill-opacity: 0.7"/>
     <use xlink:href="#mafacc745ac" x="118.238867" y="228.048373" style="fill-opacity: 0.7"/>
     <use xlink:href="#mafacc745ac" x="87.689288" y="232.482278" style="fill-opacity: 0.7"/>
     <use xlink:href="#mafacc745ac" x="84.420441" y="207.466235" style="fill-opacity: 0.7"/>
     <use xlink:href="#mafacc745ac" x="84.197325" y="193.629463" style="fill-opacity: 0.7"/>
     <use xlink:href="#mafacc745ac" x="114.378816" y="208.787885" style="fill-opacity: 0.7"/>
     <use xlink:href="#mafacc745ac" x="60.392727" y="210.020208" style="fill-opacity: 0.7"/>
     <use xlink:href="#mafacc745ac" x="107.780442" y="228.910988" style="fill-opacity: 0.7"/>
     <use xlink:href="#mafacc745ac" x="89.345837" y="188.995765" style="fill-opacity: 0.7"/>
     <use xlink:href="#mafacc745ac" x="83.008921" y="230.21716" style="fill-opacity: 0.7"/>
     <use xlink:href="#mafacc745ac" x="84.193673" y="236.266077" style="fill-opacity: 0.7"/>
     <use xlink:href="#mafacc745ac" x="86.839984" y="181.638923" style="fill-opacity: 0.7"/>
     <use xlink:href="#mafacc745ac" x="112.240245" y="201.057494" style="fill-opacity: 0.7"/>
     <use xlink:href="#mafacc745ac" x="81.351976" y="217.168796" style="fill-opacity: 0.7"/>
     <use xlink:href="#mafacc745ac" x="114.099511" y="214.379615" style="fill-opacity: 0.7"/>
     <use xlink:href="#mafacc745ac" x="60.392727" y="210.291997" style="fill-opacity: 0.7"/>
     <use xlink:href="#mafacc745ac" x="118.298947" y="207.389066" style="fill-opacity: 0.7"/>
     <use xlink:href="#mafacc745ac" x="100.916241" y="207.41196" style="fill-opacity: 0.7"/>
     <use xlink:href="#mafacc745ac" x="84.162628" y="152.473041" style="fill-opacity: 0.7"/>
     <use xlink:href="#mafacc745ac" x="93.093318" y="240.6873" style="fill-opacity: 0.7"/>
     <use xlink:href="#mafacc745ac" x="96.763392" y="203.175051" style="fill-opacity: 0.7"/>
     <use xlink:href="#mafacc745ac" x="60.392727" y="206.12413" style="fill-opacity: 0.7"/>
     <use xlink:href="#mafacc745ac" x="79.339575" y="212.075729" style="fill-opacity: 0.7"/>
     <use xlink:href="#mafacc745ac" x="72.403761" y="206.196777" style="fill-opacity: 0.7"/>
     <use xlink:href="#mafacc745ac" x="78.807941" y="202.366356" style="fill-opacity: 0.7"/>
     <use xlink:href="#mafacc745ac" x="97.719717" y="229.66024" style="fill-opacity: 0.7"/>
     <use xlink:href="#mafacc745ac" x="99.446387" y="234.737753" style="fill-opacity: 0.7"/>
     <use xlink:href="#mafacc745ac" x="104.401758" y="222.967582" style="fill-opacity: 0.7"/>
     <use xlink:href="#mafacc745ac" x="79.699634" y="191.050413" style="fill-opacity: 0.7"/>
     <use xlink:href="#mafacc745ac" x="90.627519" y="178.176514" style="fill-opacity: 0.7"/>
     <use xlink:href="#mafacc745ac" x="107.03462" y="201.706213" style="fill-opacity: 0.7"/>
     <use xlink:href="#mafacc745ac" x="77.81934" y="229.460782" style="fill-opacity: 0.7"/>
     <use xlink:href="#mafacc745ac" x="69.291828" y="221.253838" style="fill-opacity: 0.7"/>
     <use xlink:href="#mafacc745ac" x="94.057784" y="212.668816" style="fill-opacity: 0.7"/>
     <use xlink:href="#mafacc745ac" x="60.749478" y="198.949376" style="fill-opacity: 0.7"/>
     <use xlink:href="#mafacc745ac" x="99.054189" y="191.388683" style="fill-opacity: 0.7"/>
     <use xlink:href="#mafacc745ac" x="65.700496" y="215.636774" style="fill-opacity: 0.7"/>
     <use xlink:href="#mafacc745ac" x="77.501509" y="207.392182" style="fill-opacity: 0.7"/>
     <use xlink:href="#mafacc745ac" x="93.548893" y="217.818479" style="fill-opacity: 0.7"/>
     <use xlink:href="#mafacc745ac" x="118.298947" y="210.224375" style="fill-opacity: 0.7"/>
     <use xlink:href="#mafacc745ac" x="118.298947" y="220.922357" style="fill-opacity: 0.7"/>
     <use xlink:href="#mafacc745ac" x="84.214602" y="243.131523" style="fill-opacity: 0.7"/>
     <use xlink:href="#mafacc745ac" x="74.248072" y="222.902899" style="fill-opacity: 0.7"/>
     <use xlink:href="#mafacc745ac" x="68.882216" y="211.223671" style="fill-opacity: 0.7"/>
     <use xlink:href="#mafacc745ac" x="64.50033" y="208.46973" style="fill-opacity: 0.7"/>
     <use xlink:href="#mafacc745ac" x="70.895499" y="216.358602" style="fill-opacity: 0.7"/>
     <use xlink:href="#mafacc745ac" x="84.468156" y="213.14484" style="fill-opacity: 0.7"/>
     <use xlink:href="#mafacc745ac" x="103.984788" y="216.757709" style="fill-opacity: 0.7"/>
     <use xlink:href="#mafacc745ac" x="64.042762" y="221.159556" style="fill-opacity: 0.7"/>
     <use xlink:href="#mafacc745ac" x="117.202536" y="199.425011" style="fill-opacity: 0.7"/>
     <use xlink:href="#mafacc745ac" x="94.248006" y="235.437175" style="fill-opacity: 0.7"/>
     <use xlink:href="#mafacc745ac" x="98.749934" y="217.13723" style="fill-opacity: 0.7"/>
     <use xlink:href="#mafacc745ac" x="79.405046" y="234.216453" style="fill-opacity: 0.7"/>
     <use xlink:href="#mafacc745ac" x="109.198736" y="216.172751" style="fill-opacity: 0.7"/>
     <use xlink:href="#mafacc745ac" x="84.583928" y="224.648014" style="fill-opacity: 0.7"/>
     <use xlink:href="#mafacc745ac" x="76.10614" y="216.9697" style="fill-opacity: 0.7"/>
     <use xlink:href="#mafacc745ac" x="104.50748" y="211.70682" style="fill-opacity: 0.7"/>
     <use xlink:href="#mafacc745ac" x="66.002912" y="228.690033" style="fill-opacity: 0.7"/>
     <use xlink:href="#mafacc745ac" x="89.345837" y="171.315742" style="fill-opacity: 0.7"/>
     <use xlink:href="#mafacc745ac" x="118.298947" y="213.390772" style="fill-opacity: 0.7"/>
     <use xlink:href="#mafacc745ac" x="89.345837" y="209.197101" style="fill-opacity: 0.7"/>
     <use xlink:href="#mafacc745ac" x="86.293535" y="218.857359" style="fill-opacity: 0.7"/>
     <use xlink:href="#mafacc745ac" x="99.279349" y="212.162717" style="fill-opacity: 0.7"/>
     <use xlink:href="#mafacc745ac" x="103.070859" y="231.120497" style="fill-opacity: 0.7"/>
     <use xlink:href="#mafacc745ac" x="118.298947" y="220.480005" style="fill-opacity: 0.7"/>
     <use xlink:href="#mafacc745ac" x="79.394178" y="223.892685" style="fill-opacity: 0.7"/>
     <use xlink:href="#mafacc745ac" x="89.345837" y="153.268057" style="fill-opacity: 0.7"/>
     <use xlink:href="#mafacc745ac" x="86.301801" y="175.343175" style="fill-opacity: 0.7"/>
     <use xlink:href="#mafacc745ac" x="106.112446" y="206.698025" style="fill-opacity: 0.7"/>
     <use xlink:href="#mafacc745ac" x="89.345837" y="226.75334" style="fill-opacity: 0.7"/>
     <use xlink:href="#mafacc745ac" x="89.345837" y="203.963721" style="fill-opacity: 0.7"/>
     <use xlink:href="#mafacc745ac" x="94.352966" y="225.250159" style="fill-opacity: 0.7"/>
     <use xlink:href="#mafacc745ac" x="89.345837" y="273.470389" style="fill-opacity: 0.7"/>
     <use xlink:href="#mafacc745ac" x="60.756018" y="228.518088" style="fill-opacity: 0.7"/>
     <use xlink:href="#mafacc745ac" x="89.345837" y="114.082937" style="fill-opacity: 0.7"/>
     <use xlink:href="#mafacc745ac" x="89.345837" y="166.277352" style="fill-opacity: 0.7"/>
     <use xlink:href="#mafacc745ac" x="92.573113" y="230.647677" style="fill-opacity: 0.7"/>
     <use xlink:href="#mafacc745ac" x="109.362767" y="221.331566" style="fill-opacity: 0.7"/>
     <use xlink:href="#mafacc745ac" x="96.504006" y="184.134182" style="fill-opacity: 0.7"/>
     <use xlink:href="#mafacc745ac" x="113.019393" y="228.586775" style="fill-opacity: 0.7"/>
    </g>
   </g>
   <g id="PathCollection_2">
    <g clip-path="url(#p1f3404704c)">
     <use xlink:href="#mafacc745ac" x="162.019072" y="219.95086" style="fill-opacity: 0.7"/>
     <use xlink:href="#mafacc745ac" x="146.345248" y="201.4066" style="fill-opacity: 0.7"/>
     <use xlink:href="#mafacc745ac" x="171.722476" y="216.255159" style="fill-opacity: 0.7"/>
     <use xlink:href="#mafacc745ac" x="170.104609" y="199.445362" style="fill-opacity: 0.7"/>
     <use xlink:href="#mafacc745ac" x="161.127622" y="178.006285" style="fill-opacity: 0.7"/>
     <use xlink:href="#mafacc745ac" x="165.769915" y="180.341389" style="fill-opacity: 0.7"/>
     <use xlink:href="#mafacc745ac" x="171.831779" y="170.385103" style="fill-opacity: 0.7"/>
     <use xlink:href="#mafacc745ac" x="156.905672" y="196.586087" style="fill-opacity: 0.7"/>
     <use xlink:href="#mafacc745ac" x="161.728612" y="191.864654" style="fill-opacity: 0.7"/>
     <use xlink:href="#mafacc745ac" x="165.930809" y="227.848219" style="fill-opacity: 0.7"/>
     <use xlink:href="#mafacc745ac" x="157.129115" y="227.558293" style="fill-opacity: 0.7"/>
     <use xlink:href="#mafacc745ac" x="172.344575" y="204.153117" style="fill-opacity: 0.7"/>
     <use xlink:href="#mafacc745ac" x="176.419705" y="207.54269" style="fill-opacity: 0.7"/>
     <use xlink:href="#mafacc745ac" x="190.681722" y="197.797917" style="fill-opacity: 0.7"/>
     <use xlink:href="#mafacc745ac" x="176.104702" y="178.952217" style="fill-opacity: 0.7"/>
     <use xlink:href="#mafacc745ac" x="176.024043" y="213.388662" style="fill-opacity: 0.7"/>
     <use xlink:href="#mafacc745ac" x="172.840599" y="221.245197" style="fill-opacity: 0.7"/>
     <use xlink:href="#mafacc745ac" x="160.859552" y="204.178105" style="fill-opacity: 0.7"/>
     <use xlink:href="#mafacc745ac" x="158.272201" y="210.846232" style="fill-opacity: 0.7"/>
     <use xlink:href="#mafacc745ac" x="175.105611" y="197.923792" style="fill-opacity: 0.7"/>
     <use xlink:href="#mafacc745ac" x="157.03119" y="181.300118" style="fill-opacity: 0.7"/>
     <use xlink:href="#mafacc745ac" x="143.78715" y="197.099009" style="fill-opacity: 0.7"/>
     <use xlink:href="#mafacc745ac" x="190.681722" y="203.311862" style="fill-opacity: 0.7"/>
     <use xlink:href="#mafacc745ac" x="166.681823" y="217.653024" style="fill-opacity: 0.7"/>
     <use xlink:href="#mafacc745ac" x="163.029319" y="208.731104" style="fill-opacity: 0.7"/>
     <use xlink:href="#mafacc745ac" x="182.385346" y="201.244796" style="fill-opacity: 0.7"/>
     <use xlink:href="#mafacc745ac" x="171.022268" y="194.006843" style="fill-opacity: 0.7"/>
     <use xlink:href="#mafacc745ac" x="140.461893" y="200.968204" style="fill-opacity: 0.7"/>
     <use xlink:href="#mafacc745ac" x="187.413378" y="216.224263" style="fill-opacity: 0.7"/>
     <use xlink:href="#mafacc745ac" x="161.728612" y="172.434702" style="fill-opacity: 0.7"/>
     <use xlink:href="#mafacc745ac" x="142.570402" y="217.556202" style="fill-opacity: 0.7"/>
     <use xlink:href="#mafacc745ac" x="153.105969" y="214.826417" style="fill-opacity: 0.7"/>
     <use xlink:href="#mafacc745ac" x="156.247573" y="176.162592" style="fill-opacity: 0.7"/>
     <use xlink:href="#mafacc745ac" x="147.2249" y="177.88103" style="fill-opacity: 0.7"/>
     <use xlink:href="#mafacc745ac" x="171.153593" y="227.339761" style="fill-opacity: 0.7"/>
     <use xlink:href="#mafacc745ac" x="149.043623" y="196.412501" style="fill-opacity: 0.7"/>
     <use xlink:href="#mafacc745ac" x="177.457411" y="218.864711" style="fill-opacity: 0.7"/>
     <use xlink:href="#mafacc745ac" x="151.939884" y="180.080067" style="fill-opacity: 0.7"/>
     <use xlink:href="#mafacc745ac" x="171.017425" y="180.187419" style="fill-opacity: 0.7"/>
     <use xlink:href="#mafacc745ac" x="161.728612" y="119.288833" style="fill-opacity: 0.7"/>
     <use xlink:href="#mafacc745ac" x="156.462074" y="201.570274" style="fill-opacity: 0.7"/>
     <use xlink:href="#mafacc745ac" x="166.73064" y="190.346144" style="fill-opacity: 0.7"/>
     <use xlink:href="#mafacc745ac" x="171.962111" y="210.184128" style="fill-opacity: 0.7"/>
     <use xlink:href="#mafacc745ac" x="136.157694" y="198.105293" style="fill-opacity: 0.7"/>
     <use xlink:href="#mafacc745ac" x="152.108613" y="188.522878" style="fill-opacity: 0.7"/>
     <use xlink:href="#mafacc745ac" x="161.728612" y="183.532984" style="fill-opacity: 0.7"/>
     <use xlink:href="#mafacc745ac" x="132.775502" y="203.372346" style="fill-opacity: 0.7"/>
     <use xlink:href="#mafacc745ac" x="187.444544" y="199.90908" style="fill-opacity: 0.7"/>
     <use xlink:href="#mafacc745ac" x="151.424825" y="200.868624" style="fill-opacity: 0.7"/>
     <use xlink:href="#mafacc745ac" x="180.056169" y="196.259312" style="fill-opacity: 0.7"/>
     <use xlink:href="#mafacc745ac" x="158.193921" y="130.802124" style="fill-opacity: 0.7"/>
     <use xlink:href="#mafacc745ac" x="180.793547" y="176.703059" style="fill-opacity: 0.7"/>
     <use xlink:href="#mafacc745ac" x="132.775502" y="204.997612" style="fill-opacity: 0.7"/>
     <use xlink:href="#mafacc745ac" x="137.437232" y="216.507256" style="fill-opacity: 0.7"/>
     <use xlink:href="#mafacc745ac" x="157.035925" y="164.860024" style="fill-opacity: 0.7"/>
     <use xlink:href="#mafacc745ac" x="190.681722" y="195.740556" style="fill-opacity: 0.7"/>
     <use xlink:href="#mafacc745ac" x="161.728612" y="167.101903" style="fill-opacity: 0.7"/>
     <use xlink:href="#mafacc745ac" x="147.478903" y="219.330064" style="fill-opacity: 0.7"/>
     <use xlink:href="#mafacc745ac" x="167.826385" y="206.69946" style="fill-opacity: 0.7"/>
     <use xlink:href="#mafacc745ac" x="132.775502" y="195.848202" style="fill-opacity: 0.7"/>
     <use xlink:href="#mafacc745ac" x="155.656416" y="206.511049" style="fill-opacity: 0.7"/>
     <use xlink:href="#mafacc745ac" x="190.681722" y="203.702981" style="fill-opacity: 0.7"/>
     <use xlink:href="#mafacc745ac" x="132.775502" y="213.362924" style="fill-opacity: 0.7"/>
     <use xlink:href="#mafacc745ac" x="190.681722" y="213.378148" style="fill-opacity: 0.7"/>
     <use xlink:href="#mafacc745ac" x="186.401518" y="205.299238" style="fill-opacity: 0.7"/>
     <use xlink:href="#mafacc745ac" x="157.914469" y="216.833396" style="fill-opacity: 0.7"/>
     <use xlink:href="#mafacc745ac" x="182.186538" y="216.693395" style="fill-opacity: 0.7"/>
     <use xlink:href="#mafacc745ac" x="146.071154" y="209.25787" style="fill-opacity: 0.7"/>
     <use xlink:href="#mafacc745ac" x="149.391908" y="205.478556" style="fill-opacity: 0.7"/>
     <use xlink:href="#mafacc745ac" x="151.408575" y="210.094957" style="fill-opacity: 0.7"/>
     <use xlink:href="#mafacc745ac" x="142.53566" y="205.561603" style="fill-opacity: 0.7"/>
     <use xlink:href="#mafacc745ac" x="181.096956" y="224.128021" style="fill-opacity: 0.7"/>
     <use xlink:href="#mafacc745ac" x="137.285804" y="205.52459" style="fill-opacity: 0.7"/>
     <use xlink:href="#mafacc745ac" x="132.775502" y="215.3155" style="fill-opacity: 0.7"/>
     <use xlink:href="#mafacc745ac" x="147.941037" y="213.929979" style="fill-opacity: 0.7"/>
     <use xlink:href="#mafacc745ac" x="165.550763" y="201.933427" style="fill-opacity: 0.7"/>
     <use xlink:href="#mafacc745ac" x="152.702099" y="219.83467" style="fill-opacity: 0.7"/>
     <use xlink:href="#mafacc745ac" x="166.145767" y="195.859033" style="fill-opacity: 0.7"/>
     <use xlink:href="#mafacc745ac" x="168.055813" y="223.302939" style="fill-opacity: 0.7"/>
     <use xlink:href="#mafacc745ac" x="161.728612" y="158.411901" style="fill-opacity: 0.7"/>
     <use xlink:href="#mafacc745ac" x="177.317233" y="202.5495" style="fill-opacity: 0.7"/>
     <use xlink:href="#mafacc745ac" x="157.316512" y="189.154822" style="fill-opacity: 0.7"/>
     <use xlink:href="#mafacc745ac" x="157.215492" y="222.388718" style="fill-opacity: 0.7"/>
     <use xlink:href="#mafacc745ac" x="167.08898" y="212.044343" style="fill-opacity: 0.7"/>
     <use xlink:href="#mafacc745ac" x="176.1119" y="225.696335" style="fill-opacity: 0.7"/>
     <use xlink:href="#mafacc745ac" x="161.728612" y="235.41612" style="fill-opacity: 0.7"/>
     <use xlink:href="#mafacc745ac" x="190.681722" y="212.861693" style="fill-opacity: 0.7"/>
     <use xlink:href="#mafacc745ac" x="161.728612" y="134.499087" style="fill-opacity: 0.7"/>
     <use xlink:href="#mafacc745ac" x="148.617237" y="169.963043" style="fill-opacity: 0.7"/>
     <use xlink:href="#mafacc745ac" x="161.728612" y="198.561387" style="fill-opacity: 0.7"/>
     <use xlink:href="#mafacc745ac" x="161.43115" y="230.424153" style="fill-opacity: 0.7"/>
     <use xlink:href="#mafacc745ac" x="171.359399" y="187.986796" style="fill-opacity: 0.7"/>
     <use xlink:href="#mafacc745ac" x="147.074874" y="224.681457" style="fill-opacity: 0.7"/>
     <use xlink:href="#mafacc745ac" x="161.728612" y="272.977619" style="fill-opacity: 0.7"/>
     <use xlink:href="#mafacc745ac" x="152.129949" y="226.031261" style="fill-opacity: 0.7"/>
     <use xlink:href="#mafacc745ac" x="161.728612" y="84.347911" style="fill-opacity: 0.7"/>
     <use xlink:href="#mafacc745ac" x="166.976314" y="172.286757" style="fill-opacity: 0.7"/>
     <use xlink:href="#mafacc745ac" x="161.728612" y="224.943202" style="fill-opacity: 0.7"/>
     <use xlink:href="#mafacc745ac" x="181.669053" y="207.463948" style="fill-opacity: 0.7"/>
     <use xlink:href="#mafacc745ac" x="153.440691" y="171.937206" style="fill-opacity: 0.7"/>
     <use xlink:href="#mafacc745ac" x="162.287789" y="214.067131" style="fill-opacity: 0.7"/>
    </g>
   </g>
   <g id="PathCollection_3">
    <g clip-path="url(#p1f3404704c)">
     <use xlink:href="#mafacc745ac" x="249.610197" y="210.324913" style="fill-opacity: 0.7"/>
     <use xlink:href="#mafacc745ac" x="225.880256" y="179.333983" style="fill-opacity: 0.7"/>
     <use xlink:href="#mafacc745ac" x="208.276882" y="201.44895" style="fill-opacity: 0.7"/>
     <use xlink:href="#mafacc745ac" x="243.169733" y="208.526307" style="fill-opacity: 0.7"/>
     <use xlink:href="#mafacc745ac" x="237.815225" y="192.975326" style="fill-opacity: 0.7"/>
     <use xlink:href="#mafacc745ac" x="220.88307" y="177.801085" style="fill-opacity: 0.7"/>
     <use xlink:href="#mafacc745ac" x="239.361362" y="185.423721" style="fill-opacity: 0.7"/>
     <use xlink:href="#mafacc745ac" x="239.012318" y="198.338422" style="fill-opacity: 0.7"/>
     <use xlink:href="#mafacc745ac" x="261.660021" y="200.119632" style="fill-opacity: 0.7"/>
     <use xlink:href="#mafacc745ac" x="216.218431" y="219.405936" style="fill-opacity: 0.7"/>
     <use xlink:href="#mafacc745ac" x="211.009155" y="218.784371" style="fill-opacity: 0.7"/>
     <use xlink:href="#mafacc745ac" x="232.590154" y="208.797817" style="fill-opacity: 0.7"/>
     <use xlink:href="#mafacc745ac" x="244.576364" y="228.304351" style="fill-opacity: 0.7"/>
     <use xlink:href="#mafacc745ac" x="263.064498" y="216.758516" style="fill-opacity: 0.7"/>
     <use xlink:href="#mafacc745ac" x="250.529277" y="190.725623" style="fill-opacity: 0.7"/>
     <use xlink:href="#mafacc745ac" x="259.864049" y="208.426556" style="fill-opacity: 0.7"/>
     <use xlink:href="#mafacc745ac" x="237.063864" y="206.18121" style="fill-opacity: 0.7"/>
     <use xlink:href="#mafacc745ac" x="231.120571" y="219.522065" style="fill-opacity: 0.7"/>
     <use xlink:href="#mafacc745ac" x="222.554874" y="199.720423" style="fill-opacity: 0.7"/>
     <use xlink:href="#mafacc745ac" x="241.566831" y="203.610524" style="fill-opacity: 0.7"/>
     <use xlink:href="#mafacc745ac" x="234.111388" y="174.405905" style="fill-opacity: 0.7"/>
     <use xlink:href="#mafacc745ac" x="217.520744" y="189.734541" style="fill-opacity: 0.7"/>
     <use xlink:href="#mafacc745ac" x="220.201669" y="227.794825" style="fill-opacity: 0.7"/>
     <use xlink:href="#mafacc745ac" x="225.37513" y="228.645488" style="fill-opacity: 0.7"/>
     <use xlink:href="#mafacc745ac" x="234.111388" y="196.518911" style="fill-opacity: 0.7"/>
     <use xlink:href="#mafacc745ac" x="254.862608" y="195.916041" style="fill-opacity: 0.7"/>
     <use xlink:href="#mafacc745ac" x="245.76388" y="200.60678" style="fill-opacity: 0.7"/>
     <use xlink:href="#mafacc745ac" x="234.958229" y="201.515274" style="fill-opacity: 0.7"/>
     <use xlink:href="#mafacc745ac" x="254.138199" y="224.920565" style="fill-opacity: 0.7"/>
     <use xlink:href="#mafacc745ac" x="240.508441" y="180.114891" style="fill-opacity: 0.7"/>
     <use xlink:href="#mafacc745ac" x="229.684655" y="231.501122" style="fill-opacity: 0.7"/>
     <use xlink:href="#mafacc745ac" x="244.208357" y="220.779941" style="fill-opacity: 0.7"/>
     <use xlink:href="#mafacc745ac" x="212.296178" y="189.242975" style="fill-opacity: 0.7"/>
     <use xlink:href="#mafacc745ac" x="263.064498" y="207.148222" style="fill-opacity: 0.7"/>
     <use xlink:href="#mafacc745ac" x="225.474419" y="195.509411" style="fill-opacity: 0.7"/>
     <use xlink:href="#mafacc745ac" x="251.546326" y="202.756874" style="fill-opacity: 0.7"/>
     <use xlink:href="#mafacc745ac" x="205.158278" y="199.464893" style="fill-opacity: 0.7"/>
     <use xlink:href="#mafacc745ac" x="263.064498" y="199.206616" style="fill-opacity: 0.7"/>
     <use xlink:href="#mafacc745ac" x="229.077362" y="213.211772" style="fill-opacity: 0.7"/>
     <use xlink:href="#mafacc745ac" x="234.111388" y="128.72236" style="fill-opacity: 0.7"/>
     <use xlink:href="#mafacc745ac" x="245.31133" y="191.27729" style="fill-opacity: 0.7"/>
     <use xlink:href="#mafacc745ac" x="234.111388" y="185.439393" style="fill-opacity: 0.7"/>
     <use xlink:href="#mafacc745ac" x="256.674919" y="201.687814" style="fill-opacity: 0.7"/>
     <use xlink:href="#mafacc745ac" x="217.607236" y="198.048086" style="fill-opacity: 0.7"/>
     <use xlink:href="#mafacc745ac" x="255.640489" y="189.583555" style="fill-opacity: 0.7"/>
     <use xlink:href="#mafacc745ac" x="230.359555" y="181.941904" style="fill-opacity: 0.7"/>
     <use xlink:href="#mafacc745ac" x="218.643733" y="211.710753" style="fill-opacity: 0.7"/>
     <use xlink:href="#mafacc745ac" x="228.527893" y="199.576736" style="fill-opacity: 0.7"/>
     <use xlink:href="#mafacc745ac" x="205.158278" y="208.214687" style="fill-opacity: 0.7"/>
     <use xlink:href="#mafacc745ac" x="245.488762" y="178.532994" style="fill-opacity: 0.7"/>
     <use xlink:href="#mafacc745ac" x="234.111388" y="147.63042" style="fill-opacity: 0.7"/>
     <use xlink:href="#mafacc745ac" x="250.629134" y="177.516542" style="fill-opacity: 0.7"/>
     <use xlink:href="#mafacc745ac" x="234.111388" y="213.583315" style="fill-opacity: 0.7"/>
     <use xlink:href="#mafacc745ac" x="245.271611" y="213.14035" style="fill-opacity: 0.7"/>
     <use xlink:href="#mafacc745ac" x="226.257521" y="190.287583" style="fill-opacity: 0.7"/>
     <use xlink:href="#mafacc745ac" x="213.137128" y="195.4259" style="fill-opacity: 0.7"/>
     <use xlink:href="#mafacc745ac" x="239.324327" y="157.196236" style="fill-opacity: 0.7"/>
     <use xlink:href="#mafacc745ac" x="226.785956" y="208.71315" style="fill-opacity: 0.7"/>
     <use xlink:href="#mafacc745ac" x="230.528805" y="204.199351" style="fill-opacity: 0.7"/>
     <use xlink:href="#mafacc745ac" x="205.158278" y="207.369856" style="fill-opacity: 0.7"/>
     <use xlink:href="#mafacc745ac" x="221.719167" y="207.40379" style="fill-opacity: 0.7"/>
     <use xlink:href="#mafacc745ac" x="221.337851" y="220.514155" style="fill-opacity: 0.7"/>
     <use xlink:href="#mafacc745ac" x="247.379592" y="205.798658" style="fill-opacity: 0.7"/>
     <use xlink:href="#mafacc745ac" x="239.692636" y="223.330255" style="fill-opacity: 0.7"/>
     <use xlink:href="#mafacc745ac" x="249.442729" y="220.394438" style="fill-opacity: 0.7"/>
     <use xlink:href="#mafacc745ac" x="238.651197" y="211.072093" style="fill-opacity: 0.7"/>
     <use xlink:href="#mafacc745ac" x="249.790843" y="227.723705" style="fill-opacity: 0.7"/>
     <use xlink:href="#mafacc745ac" x="218.574467" y="203.40001" style="fill-opacity: 0.7"/>
     <use xlink:href="#mafacc745ac" x="226.331505" y="217.473373" style="fill-opacity: 0.7"/>
     <use xlink:href="#mafacc745ac" x="225.485333" y="203.869014" style="fill-opacity: 0.7"/>
     <use xlink:href="#mafacc745ac" x="249.887137" y="197.511725" style="fill-opacity: 0.7"/>
     <use xlink:href="#mafacc745ac" x="254.415462" y="218.791032" style="fill-opacity: 0.7"/>
     <use xlink:href="#mafacc745ac" x="263.064498" y="208.155732" style="fill-opacity: 0.7"/>
     <use xlink:href="#mafacc745ac" x="206.065917" y="217.100272" style="fill-opacity: 0.7"/>
     <use xlink:href="#mafacc745ac" x="223.666647" y="213.165385" style="fill-opacity: 0.7"/>
     <use xlink:href="#mafacc745ac" x="208.395149" y="209.734542" style="fill-opacity: 0.7"/>
     <use xlink:href="#mafacc745ac" x="236.659952" y="218.86106" style="fill-opacity: 0.7"/>
     <use xlink:href="#mafacc745ac" x="243.663153" y="196.024507" style="fill-opacity: 0.7"/>
     <use xlink:href="#mafacc745ac" x="226.076387" y="222.666785" style="fill-opacity: 0.7"/>
     <use xlink:href="#mafacc745ac" x="224.760935" y="154.17171" style="fill-opacity: 0.7"/>
     <use xlink:href="#mafacc745ac" x="213.436766" y="202.371381" style="fill-opacity: 0.7"/>
     <use xlink:href="#mafacc745ac" x="259.922664" y="194.583276" style="fill-opacity: 0.7"/>
     <use xlink:href="#mafacc745ac" x="240.93966" y="215.965039" style="fill-opacity: 0.7"/>
     <use xlink:href="#mafacc745ac" x="230.952359" y="192.525374" style="fill-opacity: 0.7"/>
     <use xlink:href="#mafacc745ac" x="234.443055" y="223.39342" style="fill-opacity: 0.7"/>
     <use xlink:href="#mafacc745ac" x="213.614134" y="210.27723" style="fill-opacity: 0.7"/>
     <use xlink:href="#mafacc745ac" x="234.111388" y="234.189223" style="fill-opacity: 0.7"/>
     <use xlink:href="#mafacc745ac" x="234.111388" y="119.231782" style="fill-opacity: 0.7"/>
     <use xlink:href="#mafacc745ac" x="234.111388" y="157.789287" style="fill-opacity: 0.7"/>
     <use xlink:href="#mafacc745ac" x="220.52841" y="193.832707" style="fill-opacity: 0.7"/>
     <use xlink:href="#mafacc745ac" x="239.352358" y="228.801288" style="fill-opacity: 0.7"/>
     <use xlink:href="#mafacc745ac" x="260.874118" y="189.189007" style="fill-opacity: 0.7"/>
     <use xlink:href="#mafacc745ac" x="229.973739" y="226.01683" style="fill-opacity: 0.7"/>
     <use xlink:href="#mafacc745ac" x="234.111388" y="283.540151" style="fill-opacity: 0.7"/>
     <use xlink:href="#mafacc745ac" x="215.314864" y="225.967435" style="fill-opacity: 0.7"/>
     <use xlink:href="#mafacc745ac" x="234.111388" y="79.607609" style="fill-opacity: 0.7"/>
     <use xlink:href="#mafacc745ac" x="228.891059" y="157.258449" style="fill-opacity: 0.7"/>
     <use xlink:href="#mafacc745ac" x="234.111388" y="229.094416" style="fill-opacity: 0.7"/>
     <use xlink:href="#mafacc745ac" x="259.411399" y="217.254445" style="fill-opacity: 0.7"/>
     <use xlink:href="#mafacc745ac" x="235.258531" y="180.144316" style="fill-opacity: 0.7"/>
     <use xlink:href="#mafacc745ac" x="254.838786" y="209.873811" style="fill-opacity: 0.7"/>
    </g>
   </g>
   <g id="PathCollection_4">
    <g clip-path="url(#p1f3404704c)">
     <use xlink:href="#mafacc745ac" x="334.751848" y="208.802216" style="fill-opacity: 0.7"/>
     <use xlink:href="#mafacc745ac" x="288.175436" y="209.828903" style="fill-opacity: 0.7"/>
     <use xlink:href="#mafacc745ac" x="292.366214" y="229.155147" style="fill-opacity: 0.7"/>
     <use xlink:href="#mafacc745ac" x="317.57775" y="212.247694" style="fill-opacity: 0.7"/>
     <use xlink:href="#mafacc745ac" x="315.11935" y="194.240668" style="fill-opacity: 0.7"/>
     <use xlink:href="#mafacc745ac" x="310.195636" y="183.589524" style="fill-opacity: 0.7"/>
     <use xlink:href="#mafacc745ac" x="293.187616" y="181.256887" style="fill-opacity: 0.7"/>
     <use xlink:href="#mafacc745ac" x="299.225769" y="194.588798" style="fill-opacity: 0.7"/>
     <use xlink:href="#mafacc745ac" x="290.724619" y="196.33086" style="fill-opacity: 0.7"/>
     <use xlink:href="#mafacc745ac" x="322.068935" y="209.929824" style="fill-opacity: 0.7"/>
     <use xlink:href="#mafacc745ac" x="288.109153" y="226.229006" style="fill-opacity: 0.7"/>
     <use xlink:href="#mafacc745ac" x="334.885662" y="217.303842" style="fill-opacity: 0.7"/>
     <use xlink:href="#mafacc745ac" x="306.494163" y="230.20981" style="fill-opacity: 0.7"/>
     <use xlink:href="#mafacc745ac" x="325.9867" y="213.258205" style="fill-opacity: 0.7"/>
     <use xlink:href="#mafacc745ac" x="305.351222" y="181.662475" style="fill-opacity: 0.7"/>
     <use xlink:href="#mafacc745ac" x="298.097199" y="203.04936" style="fill-opacity: 0.7"/>
     <use xlink:href="#mafacc745ac" x="303.083654" y="211.45738" style="fill-opacity: 0.7"/>
     <use xlink:href="#mafacc745ac" x="311.138716" y="227.878786" style="fill-opacity: 0.7"/>
     <use xlink:href="#mafacc745ac" x="277.541053" y="217.301896" style="fill-opacity: 0.7"/>
     <use xlink:href="#mafacc745ac" x="307.277974" y="214.464578" style="fill-opacity: 0.7"/>
     <use xlink:href="#mafacc745ac" x="309.919077" y="194.307385" style="fill-opacity: 0.7"/>
     <use xlink:href="#mafacc745ac" x="304.690612" y="194.759804" style="fill-opacity: 0.7"/>
     <use xlink:href="#mafacc745ac" x="335.447273" y="223.443909" style="fill-opacity: 0.7"/>
     <use xlink:href="#mafacc745ac" x="329.691567" y="218.031576" style="fill-opacity: 0.7"/>
     <use xlink:href="#mafacc745ac" x="284.043457" y="218.185018" style="fill-opacity: 0.7"/>
     <use xlink:href="#mafacc745ac" x="313.59346" y="207.837241" style="fill-opacity: 0.7"/>
     <use xlink:href="#mafacc745ac" x="293.31971" y="210.118443" style="fill-opacity: 0.7"/>
     <use xlink:href="#mafacc745ac" x="299.637618" y="207.829289" style="fill-opacity: 0.7"/>
     <use xlink:href="#mafacc745ac" x="306.494163" y="242.629548" style="fill-opacity: 0.7"/>
     <use xlink:href="#mafacc745ac" x="316.978374" y="198.916706" style="fill-opacity: 0.7"/>
     <use xlink:href="#mafacc745ac" x="314.508526" y="221.90206" style="fill-opacity: 0.7"/>
     <use xlink:href="#mafacc745ac" x="309.299575" y="222.526088" style="fill-opacity: 0.7"/>
     <use xlink:href="#mafacc745ac" x="306.494163" y="187.135349" style="fill-opacity: 0.7"/>
     <use xlink:href="#mafacc745ac" x="301.380894" y="199.148101" style="fill-opacity: 0.7"/>
     <use xlink:href="#mafacc745ac" x="283.027955" y="224.971313" style="fill-opacity: 0.7"/>
     <use xlink:href="#mafacc745ac" x="293.194554" y="216.131239" style="fill-opacity: 0.7"/>
     <use xlink:href="#mafacc745ac" x="305.013025" y="225.412916" style="fill-opacity: 0.7"/>
     <use xlink:href="#mafacc745ac" x="322.100671" y="197.820612" style="fill-opacity: 0.7"/>
     <use xlink:href="#mafacc745ac" x="279.700231" y="209.212299" style="fill-opacity: 0.7"/>
     <use xlink:href="#mafacc745ac" x="306.494163" y="140.496884" style="fill-opacity: 0.7"/>
     <use xlink:href="#mafacc745ac" x="301.111856" y="216.510268" style="fill-opacity: 0.7"/>
     <use xlink:href="#mafacc745ac" x="312.170021" y="212.649953" style="fill-opacity: 0.7"/>
     <use xlink:href="#mafacc745ac" x="277.541053" y="208.414606" style="fill-opacity: 0.7"/>
     <use xlink:href="#mafacc745ac" x="307.818575" y="209.297549" style="fill-opacity: 0.7"/>
     <use xlink:href="#mafacc745ac" x="306.494163" y="199.455506" style="fill-opacity: 0.7"/>
     <use xlink:href="#mafacc745ac" x="296.24987" y="190.469652" style="fill-opacity: 0.7"/>
     <use xlink:href="#mafacc745ac" x="292.70072" y="223.804637" style="fill-opacity: 0.7"/>
     <use xlink:href="#mafacc745ac" x="316.338167" y="217.106324" style="fill-opacity: 0.7"/>
     <use xlink:href="#mafacc745ac" x="335.447273" y="214.379639" style="fill-opacity: 0.7"/>
     <use xlink:href="#mafacc745ac" x="325.468836" y="193.037771" style="fill-opacity: 0.7"/>
     <use xlink:href="#mafacc745ac" x="306.494163" y="163.067911" style="fill-opacity: 0.7"/>
     <use xlink:href="#mafacc745ac" x="301.548046" y="185.458934" style="fill-opacity: 0.7"/>
     <use xlink:href="#mafacc745ac" x="321.338384" y="215.582416" style="fill-opacity: 0.7"/>
     <use xlink:href="#mafacc745ac" x="329.569736" y="209.603698" style="fill-opacity: 0.7"/>
     <use xlink:href="#mafacc745ac" x="320.218858" y="193.052093" style="fill-opacity: 0.7"/>
     <use xlink:href="#mafacc745ac" x="335.447273" y="224.307298" style="fill-opacity: 0.7"/>
     <use xlink:href="#mafacc745ac" x="298.43435" y="181.433235" style="fill-opacity: 0.7"/>
     <use xlink:href="#mafacc745ac" x="277.796234" y="224.554446" style="fill-opacity: 0.7"/>
     <use xlink:href="#mafacc745ac" x="335.447273" y="207.625547" style="fill-opacity: 0.7"/>
     <use xlink:href="#mafacc745ac" x="296.943442" y="226.706308" style="fill-opacity: 0.7"/>
     <use xlink:href="#mafacc745ac" x="283.703058" y="212.447575" style="fill-opacity: 0.7"/>
     <use xlink:href="#mafacc745ac" x="288.568144" y="220.720875" style="fill-opacity: 0.7"/>
     <use xlink:href="#mafacc745ac" x="304.35714" y="205.639099" style="fill-opacity: 0.7"/>
     <use xlink:href="#mafacc745ac" x="278.79635" y="218.019049" style="fill-opacity: 0.7"/>
     <use xlink:href="#mafacc745ac" x="301.20502" y="221.970932" style="fill-opacity: 0.7"/>
     <use xlink:href="#mafacc745ac" x="301.346513" y="229.227329" style="fill-opacity: 0.7"/>
     <use xlink:href="#mafacc745ac" x="324.723466" y="219.647952" style="fill-opacity: 0.7"/>
     <use xlink:href="#mafacc745ac" x="296.314519" y="220.152534" style="fill-opacity: 0.7"/>
     <use xlink:href="#mafacc745ac" x="277.541053" y="224.16375" style="fill-opacity: 0.7"/>
     <use xlink:href="#mafacc745ac" x="277.541053" y="221.772106" style="fill-opacity: 0.7"/>
     <use xlink:href="#mafacc745ac" x="297.907159" y="212.549872" style="fill-opacity: 0.7"/>
     <use xlink:href="#mafacc745ac" x="305.555756" y="219.172552" style="fill-opacity: 0.7"/>
     <use xlink:href="#mafacc745ac" x="335.447273" y="215.447939" style="fill-opacity: 0.7"/>
     <use xlink:href="#mafacc745ac" x="321.462325" y="226.299266" style="fill-opacity: 0.7"/>
     <use xlink:href="#mafacc745ac" x="277.541053" y="214.750588" style="fill-opacity: 0.7"/>
     <use xlink:href="#mafacc745ac" x="311.145849" y="217.84547" style="fill-opacity: 0.7"/>
     <use xlink:href="#mafacc745ac" x="296.076496" y="232.692612" style="fill-opacity: 0.7"/>
     <use xlink:href="#mafacc745ac" x="318.547653" y="206.182597" style="fill-opacity: 0.7"/>
     <use xlink:href="#mafacc745ac" x="313.815473" y="233.088948" style="fill-opacity: 0.7"/>
     <use xlink:href="#mafacc745ac" x="319.918186" y="180.216703" style="fill-opacity: 0.7"/>
     <use xlink:href="#mafacc745ac" x="326.535881" y="225.013895" style="fill-opacity: 0.7"/>
     <use xlink:href="#mafacc745ac" x="277.541053" y="207.193788" style="fill-opacity: 0.7"/>
     <use xlink:href="#mafacc745ac" x="319.678142" y="221.030449" style="fill-opacity: 0.7"/>
     <use xlink:href="#mafacc745ac" x="295.266765" y="198.838249" style="fill-opacity: 0.7"/>
     <use xlink:href="#mafacc745ac" x="300.984344" y="234.468113" style="fill-opacity: 0.7"/>
     <use xlink:href="#mafacc745ac" x="308.844687" y="234.697822" style="fill-opacity: 0.7"/>
     <use xlink:href="#mafacc745ac" x="319.03913" y="232.588695" style="fill-opacity: 0.7"/>
     <use xlink:href="#mafacc745ac" x="311.586812" y="161.852955" style="fill-opacity: 0.7"/>
     <use xlink:href="#mafacc745ac" x="315.362077" y="182.701007" style="fill-opacity: 0.7"/>
     <use xlink:href="#mafacc745ac" x="335.447273" y="206.507393" style="fill-opacity: 0.7"/>
     <use xlink:href="#mafacc745ac" x="316.376693" y="227.540599" style="fill-opacity: 0.7"/>
     <use xlink:href="#mafacc745ac" x="311.733409" y="199.135646" style="fill-opacity: 0.7"/>
     <use xlink:href="#mafacc745ac" x="304.80782" y="237.894505" style="fill-opacity: 0.7"/>
     <use xlink:href="#mafacc745ac" x="306.494163" y="267.769108" style="fill-opacity: 0.7"/>
     <use xlink:href="#mafacc745ac" x="331.784313" y="224.89169" style="fill-opacity: 0.7"/>
     <use xlink:href="#mafacc745ac" x="306.494163" y="97.504203" style="fill-opacity: 0.7"/>
     <use xlink:href="#mafacc745ac" x="301.250639" y="162.819627" style="fill-opacity: 0.7"/>
     <use xlink:href="#mafacc745ac" x="284.191323" y="206.622839" style="fill-opacity: 0.7"/>
     <use xlink:href="#mafacc745ac" x="288.162976" y="215.085452" style="fill-opacity: 0.7"/>
     <use xlink:href="#mafacc745ac" x="288.160691" y="179.814879" style="fill-opacity: 0.7"/>
     <use xlink:href="#mafacc745ac" x="309.355272" y="204.109001" style="fill-opacity: 0.7"/>
    </g>
   </g>
   <g id="text_13">
    <!-- V1 tgt -->
    <g transform="translate(179.577813 41.04) scale(0.12 -0.12)">
     <defs>
      <path id="DejaVuSans-56" d="M 1831 0 
L 50 4666 
L 709 4666 
L 2188 738 
L 3669 4666 
L 4325 4666 
L 2547 0 
L 1831 0 
z
" transform="scale(0.015625)"/>
     </defs>
     <use xlink:href="#DejaVuSans-56"/>
     <use xlink:href="#DejaVuSans-31" x="68.408203"/>
     <use xlink:href="#DejaVuSans-20" x="132.03125"/>
     <use xlink:href="#DejaVuSans-74" x="163.818359"/>
     <use xlink:href="#DejaVuSans-67" x="203.027344"/>
     <use xlink:href="#DejaVuSans-74" x="266.503906"/>
    </g>
   </g>
  </g>
  <g id="text_14">
   <!-- pnr328 -->
   <g transform="translate(158.469375 16.318125) scale(0.12 -0.12)">
    <defs>
     <path id="DejaVuSans-33" d="M 2597 2516 
Q 3050 2419 3304 2112 
Q 3559 1806 3559 1356 
Q 3559 666 3084 287 
Q 2609 -91 1734 -91 
Q 1441 -91 1130 -33 
Q 819 25 488 141 
L 488 750 
Q 750 597 1062 519 
Q 1375 441 1716 441 
Q 2309 441 2620 675 
Q 2931 909 2931 1356 
Q 2931 1769 2642 2001 
Q 2353 2234 1838 2234 
L 1294 2234 
L 1294 2753 
L 1863 2753 
Q 2328 2753 2575 2939 
Q 2822 3125 2822 3475 
Q 2822 3834 2567 4026 
Q 2313 4219 1838 4219 
Q 1578 4219 1281 4162 
Q 984 4106 628 3988 
L 628 4550 
Q 988 4650 1302 4700 
Q 1616 4750 1894 4750 
Q 2613 4750 3031 4423 
Q 3450 4097 3450 3541 
Q 3450 3153 3228 2886 
Q 3006 2619 2597 2516 
z
" transform="scale(0.015625)"/>
    </defs>
    <use xlink:href="#DejaVuSans-70"/>
    <use xlink:href="#DejaVuSans-6e" x="63.476562"/>
    <use xlink:href="#DejaVuSans-72" x="126.855469"/>
    <use xlink:href="#DejaVuSans-33" x="167.96875"/>
    <use xlink:href="#DejaVuSans-32" x="231.591797"/>
    <use xlink:href="#DejaVuSans-38" x="295.214844"/>
   </g>
  </g>
 </g>
 <defs>
  <clipPath id="p1f3404704c">
   <rect x="46.64" y="47.04" width="302.56" height="269.06776"/>
  </clipPath>
 </defs>
</svg>
