<?xml version="1.0" encoding="utf-8" standalone="no"?>
<!DOCTYPE svg PUBLIC "-//W3C//DTD SVG 1.1//EN"
  "http://www.w3.org/Graphics/SVG/1.1/DTD/svg11.dtd">
<svg xmlns:xlink="http://www.w3.org/1999/xlink" width="360pt" height="360pt" viewBox="0 0 360 360" xmlns="http://www.w3.org/2000/svg" version="1.1">
 <metadata>
  <rdf:RDF xmlns:dc="http://purl.org/dc/elements/1.1/" xmlns:cc="http://creativecommons.org/ns#" xmlns:rdf="http://www.w3.org/1999/02/22-rdf-syntax-ns#">
   <cc:Work>
    <dc:type rdf:resource="http://purl.org/dc/dcmitype/StillImage"/>
    <dc:date>2026-05-29T13:02:52.772320</dc:date>
    <dc:format>image/svg+xml</dc:format>
    <dc:creator>
     <cc:Agent>
      <dc:title>Matplotlib v3.8.0, https://matplotlib.org/</dc:title>
     </cc:Agent>
    </dc:creator>
   </cc:Work>
  </rdf:RDF>
 </metadata>
 <defs>
  <style type="text/css">*{stroke-linejoin: round; stroke-linecap: butt}</style>
 </defs>
 <g id="figure_1">
  <g id="patch_1">
   <path d="M 0 360 
L 360 360 
L 360 0 
L 0 0 
z
" style="fill: #ffffff"/>
  </g>
  <g id="axes_1">
   <g id="patch_2">
    <path d="M 46.64 316.10776 
L 349.2 316.10776 
L 349.2 47.04 
L 46.64 47.04 
z
" style="fill: #ffffff"/>
   </g>
   <g id="PolyCollection_1">
    <defs>
     <path id="m8457b6bd1d" d="M 89.467379 -58.222065 
L 89.224296 -58.222065 
L 89.154758 -60.280669 
L 89.060003 -62.339273 
L 88.93898 -64.397877 
L 88.794756 -66.456481 
L 88.635518 -68.515086 
L 88.47451 -70.57369 
L 88.328562 -72.632294 
L 88.21527 -74.690898 
L 88.149389 -76.749502 
L 88.139375 -78.808106 
L 88.185086 -80.86671 
L 88.277318 -82.925314 
L 88.399289 -84.983918 
L 88.529532 -87.042522 
L 88.645283 -89.101126 
L 88.725351 -91.15973 
L 88.751787 -93.218334 
L 88.710075 -95.276938 
L 88.588032 -97.335542 
L 88.373888 -99.394146 
L 88.054154 -101.45275 
L 87.611839 -103.511354 
L 87.025505 -105.569958 
L 86.269475 -107.628562 
L 85.315415 -109.687166 
L 84.135384 -111.74577 
L 82.706293 -113.804374 
L 81.015513 -115.862978 
L 79.066979 -117.921582 
L 76.886641 -119.980186 
L 74.525791 -122.03879 
L 72.060834 -124.097394 
L 69.58883 -126.155998 
L 67.219295 -128.214602 
L 65.063964 -130.273206 
L 63.226753 -132.33181 
L 61.795665 -134.390414 
L 60.837221 -136.449018 
L 60.392727 -138.507622 
L 60.475289 -140.566226 
L 61.067116 -142.62483 
L 62.117945 -144.683434 
L 63.546396 -146.742038 
L 65.24603 -148.800642 
L 67.096541 -150.859246 
L 68.97857 -152.91785 
L 70.789035 -154.976454 
L 72.453358 -157.035058 
L 73.931848 -159.093662 
L 75.219146 -161.152266 
L 76.337551 -163.21087 
L 77.326367 -165.269474 
L 78.230061 -167.328078 
L 79.087863 -169.386682 
L 79.926797 -171.445286 
L 80.759065 -173.50389 
L 81.583589 -175.562494 
L 82.390445 -177.621098 
L 83.166315 -179.679702 
L 83.899089 -181.738306 
L 84.580377 -183.79691 
L 85.205748 -185.855514 
L 85.77343 -187.914118 
L 86.282715 -189.972722 
L 86.733103 -192.031326 
L 87.124602 -194.089931 
L 87.458826 -196.148535 
L 87.740098 -198.207139 
L 87.975748 -200.265743 
L 88.175273 -202.324347 
L 88.348596 -204.382951 
L 88.50408 -206.441555 
L 88.647055 -208.500159 
L 88.779346 -210.558763 
L 88.899835 -212.617367 
L 89.005689 -214.675971 
L 89.093705 -216.734575 
L 89.161293 -218.793179 
L 89.206891 -220.851783 
L 89.229887 -222.910387 
L 89.230335 -224.968991 
L 89.208805 -227.027595 
L 89.166566 -229.086199 
L 89.106119 -231.144803 
L 89.031838 -233.203407 
L 88.950379 -235.262011 
L 88.87048 -237.320615 
L 88.801998 -239.379219 
L 88.75428 -241.437823 
L 88.734292 -243.496427 
L 88.745074 -245.555031 
L 88.785051 -247.613635 
L 88.848441 -249.672239 
L 88.926644 -251.730843 
L 89.010151 -253.789447 
L 89.090416 -255.848051 
L 89.161171 -257.906655 
L 89.218978 -259.965259 
L 89.263031 -262.023863 
L 89.428644 -262.023863 
L 89.428644 -262.023863 
L 89.472697 -259.965259 
L 89.530503 -257.906655 
L 89.601259 -255.848051 
L 89.681523 -253.789447 
L 89.765031 -251.730843 
L 89.843233 -249.672239 
L 89.906624 -247.613635 
L 89.9466 -245.555031 
L 89.957382 -243.496427 
L 89.937394 -241.437823 
L 89.889677 -239.379219 
L 89.821195 -237.320615 
L 89.741296 -235.262011 
L 89.659836 -233.203407 
L 89.585556 -231.144803 
L 89.525108 -229.086199 
L 89.48287 -227.027595 
L 89.461339 -224.968991 
L 89.461788 -222.910387 
L 89.484784 -220.851783 
L 89.530382 -218.793179 
L 89.59797 -216.734575 
L 89.685985 -214.675971 
L 89.791839 -212.617367 
L 89.912328 -210.558763 
L 90.04462 -208.500159 
L 90.187594 -206.441555 
L 90.343078 -204.382951 
L 90.516402 -202.324347 
L 90.715927 -200.265743 
L 90.951576 -198.207139 
L 91.232848 -196.148535 
L 91.567073 -194.089931 
L 91.958571 -192.031326 
L 92.408959 -189.972722 
L 92.918244 -187.914118 
L 93.485927 -185.855514 
L 94.111297 -183.79691 
L 94.792586 -181.738306 
L 95.52536 -179.679702 
L 96.30123 -177.621098 
L 97.108086 -175.562494 
L 97.93261 -173.50389 
L 98.764878 -171.445286 
L 99.603812 -169.386682 
L 100.461614 -167.328078 
L 101.365308 -165.269474 
L 102.354124 -163.21087 
L 103.472529 -161.152266 
L 104.759827 -159.093662 
L 106.238316 -157.035058 
L 107.90264 -154.976454 
L 109.713105 -152.91785 
L 111.595134 -150.859246 
L 113.445644 -148.800642 
L 115.145278 -146.742038 
L 116.573729 -144.683434 
L 117.624558 -142.62483 
L 118.216386 -140.566226 
L 118.298947 -138.507622 
L 117.854453 -136.449018 
L 116.896009 -134.390414 
L 115.464922 -132.33181 
L 113.62771 -130.273206 
L 111.47238 -128.214602 
L 109.102845 -126.155998 
L 106.630841 -124.097394 
L 104.165884 -122.03879 
L 101.805033 -119.980186 
L 99.624696 -117.921582 
L 97.676162 -115.862978 
L 95.985382 -113.804374 
L 94.55629 -111.74577 
L 93.376259 -109.687166 
L 92.4222 -107.628562 
L 91.666169 -105.569958 
L 91.079835 -103.511354 
L 90.637521 -101.45275 
L 90.317786 -99.394146 
L 90.103642 -97.335542 
L 89.981599 -95.276938 
L 89.939888 -93.218334 
L 89.966324 -91.15973 
L 90.046392 -89.101126 
L 90.162142 -87.042522 
L 90.292386 -84.983918 
L 90.414356 -82.925314 
L 90.506589 -80.86671 
L 90.5523 -78.808106 
L 90.542286 -76.749502 
L 90.476405 -74.690898 
L 90.363113 -72.632294 
L 90.217165 -70.57369 
L 90.056157 -68.515086 
L 89.896919 -66.456481 
L 89.752695 -64.397877 
L 89.631671 -62.339273 
L 89.536917 -60.280669 
L 89.467379 -58.222065 
z
" style="stroke: #3f3f3f; stroke-width: 1.25"/>
    </defs>
    <g clip-path="url(#p76699f6303)">
     <use xlink:href="#m8457b6bd1d" x="0" y="360" style="fill: #b2b2b2; stroke: #3f3f3f; stroke-width: 1.25"/>
    </g>
   </g>
   <g id="PolyCollection_2">
    <defs>
     <path id="mc2be03516a" d="M 161.893759 -56.122593 
L 161.563466 -56.122593 
L 161.472218 -58.477494 
L 161.350931 -60.832395 
L 161.200752 -63.187297 
L 161.028625 -65.542198 
L 160.847889 -67.897099 
L 160.677208 -70.252 
L 160.537681 -72.606902 
L 160.448627 -74.961803 
L 160.423153 -77.316704 
L 160.464865 -79.671605 
L 160.56676 -82.026506 
L 160.712606 -84.381408 
L 160.880195 -86.736309 
L 161.045224 -89.09121 
L 161.18443 -91.446111 
L 161.277004 -93.801013 
L 161.304046 -96.155914 
L 161.246546 -98.510815 
L 161.082786 -100.865716 
L 160.786183 -103.220618 
L 160.32436 -105.575519 
L 159.659913 -107.93042 
L 158.753049 -110.285321 
L 157.566003 -112.640223 
L 156.069003 -114.995124 
L 154.247315 -117.350025 
L 152.108603 -119.704926 
L 149.689425 -122.059827 
L 147.059283 -124.414729 
L 144.320501 -126.76963 
L 141.602542 -129.124531 
L 139.050318 -131.479432 
L 136.807526 -133.834334 
L 134.997704 -136.189235 
L 133.706822 -138.544136 
L 132.971458 -140.899037 
L 132.775502 -143.253939 
L 133.056255 -145.60884 
L 133.718385 -147.963741 
L 134.652249 -150.318642 
L 135.752232 -152.673543 
L 136.931215 -155.028445 
L 138.12872 -157.383346 
L 139.312216 -159.738247 
L 140.472835 -162.093148 
L 141.61779 -164.44805 
L 142.762 -166.802951 
L 143.920872 -169.157852 
L 145.105242 -171.512753 
L 146.318634 -173.867655 
L 147.556466 -176.222556 
L 148.80674 -178.577457 
L 150.051807 -180.932358 
L 151.270836 -183.287259 
L 152.442545 -185.642161 
L 153.547674 -187.997062 
L 154.570735 -190.351963 
L 155.500915 -192.706864 
L 156.332344 -195.061766 
L 157.064133 -197.416667 
L 157.700418 -199.771568 
L 158.250233 -202.126469 
L 158.726759 -204.481371 
L 159.145556 -206.836272 
L 159.52187 -209.191173 
L 159.867719 -211.546074 
L 160.189779 -213.900975 
L 160.488884 -216.255877 
L 160.761302 -218.610778 
L 161.001241 -220.965679 
L 161.20358 -223.32058 
L 161.365888 -225.675482 
L 161.489217 -228.030383 
L 161.57768 -230.385284 
L 161.637259 -232.740185 
L 161.674363 -235.095087 
L 161.69461 -237.449988 
L 161.702022 -239.804889 
L 161.698699 -242.15979 
L 161.684895 -244.514691 
L 161.659444 -246.869593 
L 161.620483 -249.224494 
L 161.566437 -251.579395 
L 161.497156 -253.934296 
L 161.414965 -256.289198 
L 161.325289 -258.644099 
L 161.236528 -260.999 
L 161.158998 -263.353901 
L 161.103046 -265.708803 
L 161.07681 -268.063704 
L 161.084283 -270.418605 
L 161.124317 -272.773506 
L 161.190912 -275.128408 
L 161.27469 -277.483309 
L 161.365056 -279.83821 
L 161.452357 -282.193111 
L 161.529453 -284.548012 
L 161.592393 -286.902914 
L 161.640217 -289.257815 
L 161.817007 -289.257815 
L 161.817007 -289.257815 
L 161.864832 -286.902914 
L 161.927772 -284.548012 
L 162.004868 -282.193111 
L 162.092169 -279.83821 
L 162.182535 -277.483309 
L 162.266313 -275.128408 
L 162.332908 -272.773506 
L 162.372942 -270.418605 
L 162.380415 -268.063704 
L 162.354179 -265.708803 
L 162.298227 -263.353901 
L 162.220697 -260.999 
L 162.131936 -258.644099 
L 162.04226 -256.289198 
L 161.960069 -253.934296 
L 161.890788 -251.579395 
L 161.836742 -249.224494 
L 161.79778 -246.869593 
L 161.772329 -244.514691 
L 161.758526 -242.15979 
L 161.755202 -239.804889 
L 161.762614 -237.449988 
L 161.782861 -235.095087 
L 161.819966 -232.740185 
L 161.879545 -230.385284 
L 161.968008 -228.030383 
L 162.091337 -225.675482 
L 162.253645 -223.32058 
L 162.455984 -220.965679 
L 162.695923 -218.610778 
L 162.968341 -216.255877 
L 163.267445 -213.900975 
L 163.589505 -211.546074 
L 163.935354 -209.191173 
L 164.311669 -206.836272 
L 164.730466 -204.481371 
L 165.206992 -202.126469 
L 165.756806 -199.771568 
L 166.393091 -197.416667 
L 167.124881 -195.061766 
L 167.95631 -192.706864 
L 168.88649 -190.351963 
L 169.909551 -187.997062 
L 171.01468 -185.642161 
L 172.186389 -183.287259 
L 173.405418 -180.932358 
L 174.650485 -178.577457 
L 175.900759 -176.222556 
L 177.138591 -173.867655 
L 178.351983 -171.512753 
L 179.536353 -169.157852 
L 180.695225 -166.802951 
L 181.839435 -164.44805 
L 182.98439 -162.093148 
L 184.145009 -159.738247 
L 185.328505 -157.383346 
L 186.52601 -155.028445 
L 187.704993 -152.673543 
L 188.804976 -150.318642 
L 189.73884 -147.963741 
L 190.40097 -145.60884 
L 190.681722 -143.253939 
L 190.485767 -140.899037 
L 189.750403 -138.544136 
L 188.459521 -136.189235 
L 186.649699 -133.834334 
L 184.406907 -131.479432 
L 181.854682 -129.124531 
L 179.136724 -126.76963 
L 176.397942 -124.414729 
L 173.7678 -122.059827 
L 171.348622 -119.704926 
L 169.20991 -117.350025 
L 167.388222 -114.995124 
L 165.891222 -112.640223 
L 164.704176 -110.285321 
L 163.797312 -107.93042 
L 163.132865 -105.575519 
L 162.671041 -103.220618 
L 162.374439 -100.865716 
L 162.210679 -98.510815 
L 162.153179 -96.155914 
L 162.180221 -93.801013 
L 162.272795 -91.446111 
L 162.412001 -89.09121 
L 162.57703 -86.736309 
L 162.744618 -84.381408 
L 162.890464 -82.026506 
L 162.99236 -79.671605 
L 163.034072 -77.316704 
L 163.008598 -74.961803 
L 162.919544 -72.606902 
L 162.780017 -70.252 
L 162.609336 -67.897099 
L 162.428599 -65.542198 
L 162.256473 -63.187297 
L 162.106294 -60.832395 
L 161.985007 -58.477494 
L 161.893759 -56.122593 
z
" style="stroke: #3f3f3f; stroke-width: 1.25"/>
    </defs>
    <g clip-path="url(#p76699f6303)">
     <use xlink:href="#mc2be03516a" x="0" y="360" style="fill: #891ab9; stroke: #3f3f3f; stroke-width: 1.25"/>
    </g>
   </g>
   <g id="PolyCollection_3">
    <defs>
     <path id="mfe2bf0e876" d="M 234.205431 -61.639982 
L 234.017344 -61.639982 
L 233.963249 -64.055029 
L 233.889109 -66.470076 
L 233.793395 -68.885123 
L 233.677188 -71.30017 
L 233.544836 -73.715217 
L 233.40398 -76.130264 
L 233.26477 -78.545312 
L 233.13827 -80.960359 
L 233.034221 -83.375406 
L 232.95849 -85.790453 
L 232.91056 -88.2055 
L 232.881423 -90.620547 
L 232.852225 -93.035594 
L 232.793986 -95.450641 
L 232.668691 -97.865689 
L 232.431839 -100.280736 
L 232.036317 -102.695783 
L 231.437103 -105.11083 
L 230.596073 -107.525877 
L 229.486158 -109.940924 
L 228.094324 -112.355971 
L 226.423292 -114.771018 
L 224.492304 -117.186066 
L 222.337466 -119.601113 
L 220.011951 -122.01616 
L 217.585825 -124.431207 
L 215.144624 -126.846254 
L 212.785566 -129.261301 
L 210.610628 -131.676348 
L 208.716783 -134.091395 
L 207.185008 -136.506443 
L 206.070628 -138.92149 
L 205.397592 -141.336537 
L 205.158278 -143.751584 
L 205.318736 -146.166631 
L 205.827698 -148.581678 
L 206.626826 -150.996725 
L 207.659797 -153.411773 
L 208.878587 -155.82682 
L 210.246315 -158.241867 
L 211.736674 -160.656914 
L 213.330445 -163.071961 
L 215.009927 -165.487008 
L 216.752608 -167.902055 
L 218.525948 -170.317102 
L 220.285335 -172.73215 
L 221.976698 -175.147197 
L 223.543843 -177.562244 
L 224.938768 -179.977291 
L 226.131733 -182.392338 
L 227.117602 -184.807385 
L 227.916082 -187.222432 
L 228.565585 -189.637479 
L 229.112721 -192.052527 
L 229.600855 -194.467574 
L 230.061225 -196.882621 
L 230.508889 -199.297668 
L 230.943878 -201.712715 
L 231.356194 -204.127762 
L 231.732353 -206.542809 
L 232.061245 -208.957856 
L 232.337851 -211.372904 
L 232.564354 -213.787951 
L 232.74903 -216.202998 
L 232.903724 -218.618045 
L 233.040819 -221.033092 
L 233.17051 -223.448139 
L 233.298989 -225.863186 
L 233.427867 -228.278233 
L 233.554817 -230.693281 
L 233.675107 -233.108328 
L 233.783462 -235.523375 
L 233.875667 -237.938422 
L 233.949498 -240.353469 
L 234.00487 -242.768516 
L 234.043322 -245.183563 
L 234.067154 -247.59861 
L 234.078525 -250.013658 
L 234.078757 -252.428705 
L 234.067977 -254.843752 
L 234.045178 -257.258799 
L 234.008695 -259.673846 
L 233.957055 -262.088893 
L 233.890069 -264.50394 
L 233.8099 -266.918987 
L 233.721759 -269.334035 
L 233.633856 -271.749082 
L 233.556407 -274.164129 
L 233.499791 -276.579176 
L 233.472301 -278.994223 
L 233.478158 -281.40927 
L 233.516453 -283.824317 
L 233.581378 -286.239365 
L 233.66367 -288.654412 
L 233.75277 -291.069459 
L 233.839014 -293.484506 
L 233.91523 -295.899553 
L 233.977435 -298.3146 
L 234.024651 -300.729647 
L 234.198124 -300.729647 
L 234.198124 -300.729647 
L 234.24534 -298.3146 
L 234.307545 -295.899553 
L 234.383761 -293.484506 
L 234.470005 -291.069459 
L 234.559105 -288.654412 
L 234.641397 -286.239365 
L 234.706322 -283.824317 
L 234.744617 -281.40927 
L 234.750474 -278.994223 
L 234.722984 -276.579176 
L 234.666368 -274.164129 
L 234.588919 -271.749082 
L 234.501016 -269.334035 
L 234.412876 -266.918987 
L 234.332706 -264.50394 
L 234.26572 -262.088893 
L 234.21408 -259.673846 
L 234.177597 -257.258799 
L 234.154798 -254.843752 
L 234.144018 -252.428705 
L 234.14425 -250.013658 
L 234.155621 -247.59861 
L 234.179453 -245.183563 
L 234.217905 -242.768516 
L 234.273277 -240.353469 
L 234.347109 -237.938422 
L 234.439313 -235.523375 
L 234.547668 -233.108328 
L 234.667958 -230.693281 
L 234.794908 -228.278233 
L 234.923786 -225.863186 
L 235.052265 -223.448139 
L 235.181956 -221.033092 
L 235.319051 -218.618045 
L 235.473745 -216.202998 
L 235.658421 -213.787951 
L 235.884924 -211.372904 
L 236.16153 -208.957856 
L 236.490423 -206.542809 
L 236.866581 -204.127762 
L 237.278897 -201.712715 
L 237.713886 -199.297668 
L 238.16155 -196.882621 
L 238.62192 -194.467574 
L 239.110055 -192.052527 
L 239.65719 -189.637479 
L 240.306693 -187.222432 
L 241.105173 -184.807385 
L 242.091043 -182.392338 
L 243.284007 -179.977291 
L 244.678932 -177.562244 
L 246.246078 -175.147197 
L 247.93744 -172.73215 
L 249.696827 -170.317102 
L 251.470168 -167.902055 
L 253.212848 -165.487008 
L 254.89233 -163.071961 
L 256.486101 -160.656914 
L 257.97646 -158.241867 
L 259.344188 -155.82682 
L 260.562978 -153.411773 
L 261.595949 -150.996725 
L 262.395077 -148.581678 
L 262.904039 -146.166631 
L 263.064498 -143.751584 
L 262.825183 -141.336537 
L 262.152147 -138.92149 
L 261.037767 -136.506443 
L 259.505992 -134.091395 
L 257.612147 -131.676348 
L 255.437209 -129.261301 
L 253.078151 -126.846254 
L 250.63695 -124.431207 
L 248.210824 -122.01616 
L 245.885309 -119.601113 
L 243.730471 -117.186066 
L 241.799483 -114.771018 
L 240.128451 -112.355971 
L 238.736618 -109.940924 
L 237.626702 -107.525877 
L 236.785673 -105.11083 
L 236.186459 -102.695783 
L 235.790937 -100.280736 
L 235.554084 -97.865689 
L 235.428789 -95.450641 
L 235.370551 -93.035594 
L 235.341352 -90.620547 
L 235.312215 -88.2055 
L 235.264285 -85.790453 
L 235.188554 -83.375406 
L 235.084505 -80.960359 
L 234.958005 -78.545312 
L 234.818795 -76.130264 
L 234.677939 -73.715217 
L 234.545587 -71.30017 
L 234.42938 -68.885123 
L 234.333666 -66.470076 
L 234.259526 -64.055029 
L 234.205431 -61.639982 
z
" style="stroke: #3f3f3f; stroke-width: 1.25"/>
    </defs>
    <g clip-path="url(#p76699f6303)">
     <use xlink:href="#mfe2bf0e876" x="0" y="360" style="fill: #df9c20; stroke: #3f3f3f; stroke-width: 1.25"/>
    </g>
   </g>
   <g id="PolyCollection_4">
    <defs>
     <path id="mf2917937d6" d="M 306.607312 -61.871022 
L 306.381013 -61.871022 
L 306.315649 -64.026414 
L 306.225739 -66.181807 
L 306.109387 -68.3372 
L 305.968228 -70.492592 
L 305.808527 -72.647985 
L 305.641474 -74.803377 
L 305.48229 -76.95877 
L 305.34805 -79.114163 
L 305.254551 -81.269555 
L 305.21285 -83.424948 
L 305.226312 -85.58034 
L 305.288831 -87.735733 
L 305.384523 -89.891126 
L 305.488711 -92.046518 
L 305.569688 -94.201911 
L 305.590653 -96.357303 
L 305.511533 -98.512696 
L 305.290798 -100.668089 
L 304.887832 -102.823481 
L 304.266486 -104.978874 
L 303.400048 -107.134266 
L 302.27708 -109.289659 
L 300.906615 -111.445052 
L 299.320576 -113.600444 
L 297.571422 -115.755837 
L 295.724228 -117.911229 
L 293.844393 -120.066622 
L 291.984396 -122.222015 
L 290.174275 -124.377407 
L 288.419983 -126.5328 
L 286.711244 -128.688192 
L 285.036725 -130.843585 
L 283.400987 -132.998978 
L 281.836352 -135.15437 
L 280.404496 -137.309763 
L 279.186598 -139.465155 
L 278.265446 -141.620548 
L 277.705993 -143.775941 
L 277.541053 -145.931333 
L 277.766347 -148.086726 
L 278.345322 -150.242119 
L 279.220822 -152.397511 
L 280.329064 -154.552904 
L 281.611677 -156.708296 
L 283.023094 -158.863689 
L 284.532476 -161.019082 
L 286.120876 -163.174474 
L 287.775258 -165.329867 
L 289.481464 -167.485259 
L 291.218236 -169.640652 
L 292.954086 -171.796045 
L 294.648018 -173.951437 
L 296.254008 -176.10683 
L 297.727958 -178.262222 
L 299.035047 -180.417615 
L 300.155254 -182.573008 
L 301.08553 -184.7284 
L 301.838241 -186.883793 
L 302.436746 -189.039185 
L 302.909804 -191.194578 
L 303.286544 -193.349971 
L 303.593195 -195.505363 
L 303.851827 -197.660756 
L 304.080506 -199.816148 
L 304.293881 -201.971541 
L 304.503392 -204.126934 
L 304.716834 -206.282326 
L 304.937624 -208.437719 
L 305.164398 -210.593111 
L 305.391487 -212.748504 
L 305.610385 -214.903897 
L 305.811853 -217.059289 
L 305.988031 -219.214682 
L 306.133928 -221.370074 
L 306.247949 -223.525467 
L 306.33148 -225.68086 
L 306.38781 -227.836252 
L 306.420834 -229.991645 
L 306.433919 -232.147037 
L 306.429214 -234.30243 
L 306.407534 -236.457823 
L 306.368806 -238.613215 
L 306.312986 -240.768608 
L 306.241209 -242.924 
L 306.156845 -245.079393 
L 306.066093 -247.234786 
L 305.977789 -249.390178 
L 305.902284 -251.545571 
L 305.849593 -253.700963 
L 305.827264 -255.856356 
L 305.838623 -258.011749 
L 305.881976 -260.167141 
L 305.951018 -262.322534 
L 306.036344 -264.477926 
L 306.127542 -266.633319 
L 306.215238 -268.788712 
L 306.292557 -270.944104 
L 306.355722 -273.099497 
L 306.403845 -275.25489 
L 306.58448 -275.25489 
L 306.58448 -275.25489 
L 306.632603 -273.099497 
L 306.695768 -270.944104 
L 306.773087 -268.788712 
L 306.860783 -266.633319 
L 306.951981 -264.477926 
L 307.037307 -262.322534 
L 307.10635 -260.167141 
L 307.149702 -258.011749 
L 307.161062 -255.856356 
L 307.138732 -253.700963 
L 307.086041 -251.545571 
L 307.010536 -249.390178 
L 306.922232 -247.234786 
L 306.831481 -245.079393 
L 306.747116 -242.924 
L 306.675339 -240.768608 
L 306.619519 -238.613215 
L 306.580791 -236.457823 
L 306.559111 -234.30243 
L 306.554407 -232.147037 
L 306.567491 -229.991645 
L 306.600515 -227.836252 
L 306.656845 -225.68086 
L 306.740376 -223.525467 
L 306.854398 -221.370074 
L 307.000294 -219.214682 
L 307.176472 -217.059289 
L 307.377941 -214.903897 
L 307.596838 -212.748504 
L 307.823927 -210.593111 
L 308.050701 -208.437719 
L 308.271491 -206.282326 
L 308.484933 -204.126934 
L 308.694444 -201.971541 
L 308.907819 -199.816148 
L 309.136499 -197.660756 
L 309.39513 -195.505363 
L 309.701781 -193.349971 
L 310.078521 -191.194578 
L 310.55158 -189.039185 
L 311.150085 -186.883793 
L 311.902795 -184.7284 
L 312.833072 -182.573008 
L 313.953279 -180.417615 
L 315.260367 -178.262222 
L 316.734317 -176.10683 
L 318.340307 -173.951437 
L 320.03424 -171.796045 
L 321.77009 -169.640652 
L 323.506862 -167.485259 
L 325.213067 -165.329867 
L 326.867449 -163.174474 
L 328.455849 -161.019082 
L 329.965231 -158.863689 
L 331.376648 -156.708296 
L 332.659261 -154.552904 
L 333.767504 -152.397511 
L 334.643004 -150.242119 
L 335.221979 -148.086726 
L 335.447273 -145.931333 
L 335.282333 -143.775941 
L 334.72288 -141.620548 
L 333.801727 -139.465155 
L 332.583829 -137.309763 
L 331.151974 -135.15437 
L 329.587339 -132.998978 
L 327.951601 -130.843585 
L 326.277082 -128.688192 
L 324.568342 -126.5328 
L 322.81405 -124.377407 
L 321.003929 -122.222015 
L 319.143932 -120.066622 
L 317.264097 -117.911229 
L 315.416903 -115.755837 
L 313.66775 -113.600444 
L 312.08171 -111.445052 
L 310.711245 -109.289659 
L 309.588278 -107.134266 
L 308.72184 -104.978874 
L 308.100494 -102.823481 
L 307.697528 -100.668089 
L 307.476792 -98.512696 
L 307.397672 -96.357303 
L 307.418638 -94.201911 
L 307.499614 -92.046518 
L 307.603802 -89.891126 
L 307.699494 -87.735733 
L 307.762014 -85.58034 
L 307.775476 -83.424948 
L 307.733774 -81.269555 
L 307.640275 -79.114163 
L 307.506036 -76.95877 
L 307.346851 -74.803377 
L 307.179798 -72.647985 
L 307.020097 -70.492592 
L 306.878938 -68.3372 
L 306.762586 -66.181807 
L 306.672676 -64.026414 
L 306.607312 -61.871022 
z
" style="stroke: #3f3f3f; stroke-width: 1.25"/>
    </defs>
    <g clip-path="url(#p76699f6303)">
     <use xlink:href="#mf2917937d6" x="0" y="360" style="fill: #df2020; stroke: #3f3f3f; stroke-width: 1.25"/>
    </g>
   </g>
   <g id="matplotlib.axis_1">
    <g id="xtick_1">
     <g id="line2d_1">
      <defs>
       <path id="m3a14a209da" d="M 0 0 
L 0 3.5 
" style="stroke: #000000; stroke-width: 0.8"/>
      </defs>
      <g>
       <use xlink:href="#m3a14a209da" x="89.345837" y="316.10776" style="stroke: #000000; stroke-width: 0.8"/>
      </g>
     </g>
     <g id="text_1">
      <!-- sur -->
      <g transform="translate(76.803531 339.552412) rotate(-45) scale(0.1 -0.1)">
       <defs>
        <path id="DejaVuSans-73" d="M 2834 3397 
L 2834 2853 
Q 2591 2978 2328 3040 
Q 2066 3103 1784 3103 
Q 1356 3103 1142 2972 
Q 928 2841 928 2578 
Q 928 2378 1081 2264 
Q 1234 2150 1697 2047 
L 1894 2003 
Q 2506 1872 2764 1633 
Q 3022 1394 3022 966 
Q 3022 478 2636 193 
Q 2250 -91 1575 -91 
Q 1294 -91 989 -36 
Q 684 19 347 128 
L 347 722 
Q 666 556 975 473 
Q 1284 391 1588 391 
Q 1994 391 2212 530 
Q 2431 669 2431 922 
Q 2431 1156 2273 1281 
Q 2116 1406 1581 1522 
L 1381 1569 
Q 847 1681 609 1914 
Q 372 2147 372 2553 
Q 372 3047 722 3315 
Q 1072 3584 1716 3584 
Q 2034 3584 2315 3537 
Q 2597 3491 2834 3397 
z
" transform="scale(0.015625)"/>
        <path id="DejaVuSans-75" d="M 544 1381 
L 544 3500 
L 1119 3500 
L 1119 1403 
Q 1119 906 1312 657 
Q 1506 409 1894 409 
Q 2359 409 2629 706 
Q 2900 1003 2900 1516 
L 2900 3500 
L 3475 3500 
L 3475 0 
L 2900 0 
L 2900 538 
Q 2691 219 2414 64 
Q 2138 -91 1772 -91 
Q 1169 -91 856 284 
Q 544 659 544 1381 
z
M 1991 3584 
L 1991 3584 
z
" transform="scale(0.015625)"/>
        <path id="DejaVuSans-72" d="M 2631 2963 
Q 2534 3019 2420 3045 
Q 2306 3072 2169 3072 
Q 1681 3072 1420 2755 
Q 1159 2438 1159 1844 
L 1159 0 
L 581 0 
L 581 3500 
L 1159 3500 
L 1159 2956 
Q 1341 3275 1631 3429 
Q 1922 3584 2338 3584 
Q 2397 3584 2469 3576 
Q 2541 3569 2628 3553 
L 2631 2963 
z
" transform="scale(0.015625)"/>
       </defs>
       <use xlink:href="#DejaVuSans-73"/>
       <use xlink:href="#DejaVuSans-75" x="52.099609"/>
       <use xlink:href="#DejaVuSans-72" x="115.478516"/>
      </g>
     </g>
    </g>
    <g id="xtick_2">
     <g id="line2d_2">
      <g>
       <use xlink:href="#m3a14a209da" x="161.728612" y="316.10776" style="stroke: #000000; stroke-width: 0.8"/>
      </g>
     </g>
     <g id="text_2">
      <!-- iso90 -->
      <g transform="translate(141.285492 347.453225) rotate(-45) scale(0.1 -0.1)">
       <defs>
        <path id="DejaVuSans-69" d="M 603 3500 
L 1178 3500 
L 1178 0 
L 603 0 
L 603 3500 
z
M 603 4863 
L 1178 4863 
L 1178 4134 
L 603 4134 
L 603 4863 
z
" transform="scale(0.015625)"/>
        <path id="DejaVuSans-6f" d="M 1959 3097 
Q 1497 3097 1228 2736 
Q 959 2375 959 1747 
Q 959 1119 1226 758 
Q 1494 397 1959 397 
Q 2419 397 2687 759 
Q 2956 1122 2956 1747 
Q 2956 2369 2687 2733 
Q 2419 3097 1959 3097 
z
M 1959 3584 
Q 2709 3584 3137 3096 
Q 3566 2609 3566 1747 
Q 3566 888 3137 398 
Q 2709 -91 1959 -91 
Q 1206 -91 779 398 
Q 353 888 353 1747 
Q 353 2609 779 3096 
Q 1206 3584 1959 3584 
z
" transform="scale(0.015625)"/>
        <path id="DejaVuSans-39" d="M 703 97 
L 703 672 
Q 941 559 1184 500 
Q 1428 441 1663 441 
Q 2288 441 2617 861 
Q 2947 1281 2994 2138 
Q 2813 1869 2534 1725 
Q 2256 1581 1919 1581 
Q 1219 1581 811 2004 
Q 403 2428 403 3163 
Q 403 3881 828 4315 
Q 1253 4750 1959 4750 
Q 2769 4750 3195 4129 
Q 3622 3509 3622 2328 
Q 3622 1225 3098 567 
Q 2575 -91 1691 -91 
Q 1453 -91 1209 -44 
Q 966 3 703 97 
z
M 1959 2075 
Q 2384 2075 2632 2365 
Q 2881 2656 2881 3163 
Q 2881 3666 2632 3958 
Q 2384 4250 1959 4250 
Q 1534 4250 1286 3958 
Q 1038 3666 1038 3163 
Q 1038 2656 1286 2365 
Q 1534 2075 1959 2075 
z
" transform="scale(0.015625)"/>
        <path id="DejaVuSans-30" d="M 2034 4250 
Q 1547 4250 1301 3770 
Q 1056 3291 1056 2328 
Q 1056 1369 1301 889 
Q 1547 409 2034 409 
Q 2525 409 2770 889 
Q 3016 1369 3016 2328 
Q 3016 3291 2770 3770 
Q 2525 4250 2034 4250 
z
M 2034 4750 
Q 2819 4750 3233 4129 
Q 3647 3509 3647 2328 
Q 3647 1150 3233 529 
Q 2819 -91 2034 -91 
Q 1250 -91 836 529 
Q 422 1150 422 2328 
Q 422 3509 836 4129 
Q 1250 4750 2034 4750 
z
" transform="scale(0.015625)"/>
       </defs>
       <use xlink:href="#DejaVuSans-69"/>
       <use xlink:href="#DejaVuSans-73" x="27.783203"/>
       <use xlink:href="#DejaVuSans-6f" x="79.882812"/>
       <use xlink:href="#DejaVuSans-39" x="141.064453"/>
       <use xlink:href="#DejaVuSans-30" x="204.6875"/>
      </g>
     </g>
    </g>
    <g id="xtick_3">
     <g id="line2d_3">
      <g>
       <use xlink:href="#m3a14a209da" x="234.111388" y="316.10776" style="stroke: #000000; stroke-width: 0.8"/>
      </g>
     </g>
     <g id="text_3">
      <!-- orth -->
      <g transform="translate(218.153976 342.967517) rotate(-45) scale(0.1 -0.1)">
       <defs>
        <path id="DejaVuSans-74" d="M 1172 4494 
L 1172 3500 
L 2356 3500 
L 2356 3053 
L 1172 3053 
L 1172 1153 
Q 1172 725 1289 603 
Q 1406 481 1766 481 
L 2356 481 
L 2356 0 
L 1766 0 
Q 1100 0 847 248 
Q 594 497 594 1153 
L 594 3053 
L 172 3053 
L 172 3500 
L 594 3500 
L 594 4494 
L 1172 4494 
z
" transform="scale(0.015625)"/>
        <path id="DejaVuSans-68" d="M 3513 2113 
L 3513 0 
L 2938 0 
L 2938 2094 
Q 2938 2591 2744 2837 
Q 2550 3084 2163 3084 
Q 1697 3084 1428 2787 
Q 1159 2491 1159 1978 
L 1159 0 
L 581 0 
L 581 4863 
L 1159 4863 
L 1159 2956 
Q 1366 3272 1645 3428 
Q 1925 3584 2291 3584 
Q 2894 3584 3203 3211 
Q 3513 2838 3513 2113 
z
" transform="scale(0.015625)"/>
       </defs>
       <use xlink:href="#DejaVuSans-6f"/>
       <use xlink:href="#DejaVuSans-72" x="61.181641"/>
       <use xlink:href="#DejaVuSans-74" x="102.294922"/>
       <use xlink:href="#DejaVuSans-68" x="141.503906"/>
      </g>
     </g>
    </g>
    <g id="xtick_4">
     <g id="line2d_4">
      <g>
       <use xlink:href="#m3a14a209da" x="306.494163" y="316.10776" style="stroke: #000000; stroke-width: 0.8"/>
      </g>
     </g>
     <g id="text_4">
      <!-- iso0 -->
      <g transform="translate(290.55001 342.954258) rotate(-45) scale(0.1 -0.1)">
       <use xlink:href="#DejaVuSans-69"/>
       <use xlink:href="#DejaVuSans-73" x="27.783203"/>
       <use xlink:href="#DejaVuSans-6f" x="79.882812"/>
       <use xlink:href="#DejaVuSans-30" x="141.064453"/>
      </g>
     </g>
    </g>
   </g>
   <g id="matplotlib.axis_2">
    <g id="ytick_1">
     <g id="line2d_5">
      <defs>
       <path id="m8c633f2266" d="M 0 0 
L -3.5 0 
" style="stroke: #000000; stroke-width: 0.8"/>
      </defs>
      <g>
       <use xlink:href="#m8c633f2266" x="46.64" y="300.634392" style="stroke: #000000; stroke-width: 0.8"/>
      </g>
     </g>
     <g id="text_5">
      <!-- −5 -->
      <g transform="translate(24.897813 304.433611) scale(0.1 -0.1)">
       <defs>
        <path id="DejaVuSans-2212" d="M 678 2272 
L 4684 2272 
L 4684 1741 
L 678 1741 
L 678 2272 
z
" transform="scale(0.015625)"/>
        <path id="DejaVuSans-35" d="M 691 4666 
L 3169 4666 
L 3169 4134 
L 1269 4134 
L 1269 2991 
Q 1406 3038 1543 3061 
Q 1681 3084 1819 3084 
Q 2600 3084 3056 2656 
Q 3513 2228 3513 1497 
Q 3513 744 3044 326 
Q 2575 -91 1722 -91 
Q 1428 -91 1123 -41 
Q 819 9 494 109 
L 494 744 
Q 775 591 1075 516 
Q 1375 441 1709 441 
Q 2250 441 2565 725 
Q 2881 1009 2881 1497 
Q 2881 1984 2565 2268 
Q 2250 2553 1709 2553 
Q 1456 2553 1204 2497 
Q 953 2441 691 2322 
L 691 4666 
z
" transform="scale(0.015625)"/>
       </defs>
       <use xlink:href="#DejaVuSans-2212"/>
       <use xlink:href="#DejaVuSans-35" x="83.789062"/>
      </g>
     </g>
    </g>
    <g id="ytick_2">
     <g id="line2d_6">
      <g>
       <use xlink:href="#m8c633f2266" x="46.64" y="250.26073" style="stroke: #000000; stroke-width: 0.8"/>
      </g>
     </g>
     <g id="text_6">
      <!-- 0 -->
      <g transform="translate(33.2775 254.059949) scale(0.1 -0.1)">
       <use xlink:href="#DejaVuSans-30"/>
      </g>
     </g>
    </g>
    <g id="ytick_3">
     <g id="line2d_7">
      <g>
       <use xlink:href="#m8c633f2266" x="46.64" y="199.887068" style="stroke: #000000; stroke-width: 0.8"/>
      </g>
     </g>
     <g id="text_7">
      <!-- 5 -->
      <g transform="translate(33.2775 203.686286) scale(0.1 -0.1)">
       <use xlink:href="#DejaVuSans-35"/>
      </g>
     </g>
    </g>
    <g id="ytick_4">
     <g id="line2d_8">
      <g>
       <use xlink:href="#m8c633f2266" x="46.64" y="149.513406" style="stroke: #000000; stroke-width: 0.8"/>
      </g>
     </g>
     <g id="text_8">
      <!-- 10 -->
      <g transform="translate(26.915 153.312624) scale(0.1 -0.1)">
       <defs>
        <path id="DejaVuSans-31" d="M 794 531 
L 1825 531 
L 1825 4091 
L 703 3866 
L 703 4441 
L 1819 4666 
L 2450 4666 
L 2450 531 
L 3481 531 
L 3481 0 
L 794 0 
L 794 531 
z
" transform="scale(0.015625)"/>
       </defs>
       <use xlink:href="#DejaVuSans-31"/>
       <use xlink:href="#DejaVuSans-30" x="63.623047"/>
      </g>
     </g>
    </g>
    <g id="ytick_5">
     <g id="line2d_9">
      <g>
       <use xlink:href="#m8c633f2266" x="46.64" y="99.139743" style="stroke: #000000; stroke-width: 0.8"/>
      </g>
     </g>
     <g id="text_9">
      <!-- 15 -->
      <g transform="translate(26.915 102.938962) scale(0.1 -0.1)">
       <use xlink:href="#DejaVuSans-31"/>
       <use xlink:href="#DejaVuSans-35" x="63.623047"/>
      </g>
     </g>
    </g>
    <g id="ytick_6">
     <g id="line2d_10">
      <g>
       <use xlink:href="#m8c633f2266" x="46.64" y="48.766081" style="stroke: #000000; stroke-width: 0.8"/>
      </g>
     </g>
     <g id="text_10">
      <!-- 20 -->
      <g transform="translate(26.915 52.5653) scale(0.1 -0.1)">
       <defs>
        <path id="DejaVuSans-32" d="M 1228 531 
L 3431 531 
L 3431 0 
L 469 0 
L 469 531 
Q 828 903 1448 1529 
Q 2069 2156 2228 2338 
Q 2531 2678 2651 2914 
Q 2772 3150 2772 3378 
Q 2772 3750 2511 3984 
Q 2250 4219 1831 4219 
Q 1534 4219 1204 4116 
Q 875 4013 500 3803 
L 500 4441 
Q 881 4594 1212 4672 
Q 1544 4750 1819 4750 
Q 2544 4750 2975 4387 
Q 3406 4025 3406 3419 
Q 3406 3131 3298 2873 
Q 3191 2616 2906 2266 
Q 2828 2175 2409 1742 
Q 1991 1309 1228 531 
z
" transform="scale(0.015625)"/>
       </defs>
       <use xlink:href="#DejaVuSans-32"/>
       <use xlink:href="#DejaVuSans-30" x="63.623047"/>
      </g>
     </g>
    </g>
    <g id="text_11">
     <!-- Average BOLD Response -->
     <g transform="translate(18.818125 243.213724) rotate(-90) scale(0.1 -0.1)">
      <defs>
       <path id="DejaVuSans-41" d="M 2188 4044 
L 1331 1722 
L 3047 1722 
L 2188 4044 
z
M 1831 4666 
L 2547 4666 
L 4325 0 
L 3669 0 
L 3244 1197 
L 1141 1197 
L 716 0 
L 50 0 
L 1831 4666 
z
" transform="scale(0.015625)"/>
       <path id="DejaVuSans-76" d="M 191 3500 
L 800 3500 
L 1894 563 
L 2988 3500 
L 3597 3500 
L 2284 0 
L 1503 0 
L 191 3500 
z
" transform="scale(0.015625)"/>
       <path id="DejaVuSans-65" d="M 3597 1894 
L 3597 1613 
L 953 1613 
Q 991 1019 1311 708 
Q 1631 397 2203 397 
Q 2534 397 2845 478 
Q 3156 559 3463 722 
L 3463 178 
Q 3153 47 2828 -22 
Q 2503 -91 2169 -91 
Q 1331 -91 842 396 
Q 353 884 353 1716 
Q 353 2575 817 3079 
Q 1281 3584 2069 3584 
Q 2775 3584 3186 3129 
Q 3597 2675 3597 1894 
z
M 3022 2063 
Q 3016 2534 2758 2815 
Q 2500 3097 2075 3097 
Q 1594 3097 1305 2825 
Q 1016 2553 972 2059 
L 3022 2063 
z
" transform="scale(0.015625)"/>
       <path id="DejaVuSans-61" d="M 2194 1759 
Q 1497 1759 1228 1600 
Q 959 1441 959 1056 
Q 959 750 1161 570 
Q 1363 391 1709 391 
Q 2188 391 2477 730 
Q 2766 1069 2766 1631 
L 2766 1759 
L 2194 1759 
z
M 3341 1997 
L 3341 0 
L 2766 0 
L 2766 531 
Q 2569 213 2275 61 
Q 1981 -91 1556 -91 
Q 1019 -91 701 211 
Q 384 513 384 1019 
Q 384 1609 779 1909 
Q 1175 2209 1959 2209 
L 2766 2209 
L 2766 2266 
Q 2766 2663 2505 2880 
Q 2244 3097 1772 3097 
Q 1472 3097 1187 3025 
Q 903 2953 641 2809 
L 641 3341 
Q 956 3463 1253 3523 
Q 1550 3584 1831 3584 
Q 2591 3584 2966 3190 
Q 3341 2797 3341 1997 
z
" transform="scale(0.015625)"/>
       <path id="DejaVuSans-67" d="M 2906 1791 
Q 2906 2416 2648 2759 
Q 2391 3103 1925 3103 
Q 1463 3103 1205 2759 
Q 947 2416 947 1791 
Q 947 1169 1205 825 
Q 1463 481 1925 481 
Q 2391 481 2648 825 
Q 2906 1169 2906 1791 
z
M 3481 434 
Q 3481 -459 3084 -895 
Q 2688 -1331 1869 -1331 
Q 1566 -1331 1297 -1286 
Q 1028 -1241 775 -1147 
L 775 -588 
Q 1028 -725 1275 -790 
Q 1522 -856 1778 -856 
Q 2344 -856 2625 -561 
Q 2906 -266 2906 331 
L 2906 616 
Q 2728 306 2450 153 
Q 2172 0 1784 0 
Q 1141 0 747 490 
Q 353 981 353 1791 
Q 353 2603 747 3093 
Q 1141 3584 1784 3584 
Q 2172 3584 2450 3431 
Q 2728 3278 2906 2969 
L 2906 3500 
L 3481 3500 
L 3481 434 
z
" transform="scale(0.015625)"/>
       <path id="DejaVuSans-20" transform="scale(0.015625)"/>
       <path id="DejaVuSans-42" d="M 1259 2228 
L 1259 519 
L 2272 519 
Q 2781 519 3026 730 
Q 3272 941 3272 1375 
Q 3272 1813 3026 2020 
Q 2781 2228 2272 2228 
L 1259 2228 
z
M 1259 4147 
L 1259 2741 
L 2194 2741 
Q 2656 2741 2882 2914 
Q 3109 3088 3109 3444 
Q 3109 3797 2882 3972 
Q 2656 4147 2194 4147 
L 1259 4147 
z
M 628 4666 
L 2241 4666 
Q 2963 4666 3353 4366 
Q 3744 4066 3744 3513 
Q 3744 3084 3544 2831 
Q 3344 2578 2956 2516 
Q 3422 2416 3680 2098 
Q 3938 1781 3938 1306 
Q 3938 681 3513 340 
Q 3088 0 2303 0 
L 628 0 
L 628 4666 
z
" transform="scale(0.015625)"/>
       <path id="DejaVuSans-4f" d="M 2522 4238 
Q 1834 4238 1429 3725 
Q 1025 3213 1025 2328 
Q 1025 1447 1429 934 
Q 1834 422 2522 422 
Q 3209 422 3611 934 
Q 4013 1447 4013 2328 
Q 4013 3213 3611 3725 
Q 3209 4238 2522 4238 
z
M 2522 4750 
Q 3503 4750 4090 4092 
Q 4678 3434 4678 2328 
Q 4678 1225 4090 567 
Q 3503 -91 2522 -91 
Q 1538 -91 948 565 
Q 359 1222 359 2328 
Q 359 3434 948 4092 
Q 1538 4750 2522 4750 
z
" transform="scale(0.015625)"/>
       <path id="DejaVuSans-4c" d="M 628 4666 
L 1259 4666 
L 1259 531 
L 3531 531 
L 3531 0 
L 628 0 
L 628 4666 
z
" transform="scale(0.015625)"/>
       <path id="DejaVuSans-44" d="M 1259 4147 
L 1259 519 
L 2022 519 
Q 2988 519 3436 956 
Q 3884 1394 3884 2338 
Q 3884 3275 3436 3711 
Q 2988 4147 2022 4147 
L 1259 4147 
z
M 628 4666 
L 1925 4666 
Q 3281 4666 3915 4102 
Q 4550 3538 4550 2338 
Q 4550 1131 3912 565 
Q 3275 0 1925 0 
L 628 0 
L 628 4666 
z
" transform="scale(0.015625)"/>
       <path id="DejaVuSans-52" d="M 2841 2188 
Q 3044 2119 3236 1894 
Q 3428 1669 3622 1275 
L 4263 0 
L 3584 0 
L 2988 1197 
Q 2756 1666 2539 1819 
Q 2322 1972 1947 1972 
L 1259 1972 
L 1259 0 
L 628 0 
L 628 4666 
L 2053 4666 
Q 2853 4666 3247 4331 
Q 3641 3997 3641 3322 
Q 3641 2881 3436 2590 
Q 3231 2300 2841 2188 
z
M 1259 4147 
L 1259 2491 
L 2053 2491 
Q 2509 2491 2742 2702 
Q 2975 2913 2975 3322 
Q 2975 3731 2742 3939 
Q 2509 4147 2053 4147 
L 1259 4147 
z
" transform="scale(0.015625)"/>
       <path id="DejaVuSans-70" d="M 1159 525 
L 1159 -1331 
L 581 -1331 
L 581 3500 
L 1159 3500 
L 1159 2969 
Q 1341 3281 1617 3432 
Q 1894 3584 2278 3584 
Q 2916 3584 3314 3078 
Q 3713 2572 3713 1747 
Q 3713 922 3314 415 
Q 2916 -91 2278 -91 
Q 1894 -91 1617 61 
Q 1341 213 1159 525 
z
M 3116 1747 
Q 3116 2381 2855 2742 
Q 2594 3103 2138 3103 
Q 1681 3103 1420 2742 
Q 1159 2381 1159 1747 
Q 1159 1113 1420 752 
Q 1681 391 2138 391 
Q 2594 391 2855 752 
Q 3116 1113 3116 1747 
z
" transform="scale(0.015625)"/>
       <path id="DejaVuSans-6e" d="M 3513 2113 
L 3513 0 
L 2938 0 
L 2938 2094 
Q 2938 2591 2744 2837 
Q 2550 3084 2163 3084 
Q 1697 3084 1428 2787 
Q 1159 2491 1159 1978 
L 1159 0 
L 581 0 
L 581 3500 
L 1159 3500 
L 1159 2956 
Q 1366 3272 1645 3428 
Q 1925 3584 2291 3584 
Q 2894 3584 3203 3211 
Q 3513 2838 3513 2113 
z
" transform="scale(0.015625)"/>
      </defs>
      <use xlink:href="#DejaVuSans-41"/>
      <use xlink:href="#DejaVuSans-76" x="62.533203"/>
      <use xlink:href="#DejaVuSans-65" x="121.712891"/>
      <use xlink:href="#DejaVuSans-72" x="183.236328"/>
      <use xlink:href="#DejaVuSans-61" x="224.349609"/>
      <use xlink:href="#DejaVuSans-67" x="285.628906"/>
      <use xlink:href="#DejaVuSans-65" x="349.105469"/>
      <use xlink:href="#DejaVuSans-20" x="410.628906"/>
      <use xlink:href="#DejaVuSans-42" x="442.416016"/>
      <use xlink:href="#DejaVuSans-4f" x="509.269531"/>
      <use xlink:href="#DejaVuSans-4c" x="587.980469"/>
      <use xlink:href="#DejaVuSans-44" x="643.693359"/>
      <use xlink:href="#DejaVuSans-20" x="720.695312"/>
      <use xlink:href="#DejaVuSans-52" x="752.482422"/>
      <use xlink:href="#DejaVuSans-65" x="817.464844"/>
      <use xlink:href="#DejaVuSans-73" x="878.988281"/>
      <use xlink:href="#DejaVuSans-70" x="931.087891"/>
      <use xlink:href="#DejaVuSans-6f" x="994.564453"/>
      <use xlink:href="#DejaVuSans-6e" x="1055.746094"/>
      <use xlink:href="#DejaVuSans-73" x="1119.125"/>
      <use xlink:href="#DejaVuSans-65" x="1171.224609"/>
     </g>
    </g>
   </g>
   <g id="line2d_11">
    <path d="M 74.869282 215.005389 
L 103.822392 215.005389 
" clip-path="url(#p76699f6303)" style="fill: none; stroke: #b2b2b2; stroke-width: 2; stroke-linecap: square"/>
   </g>
   <g id="line2d_12">
    <path d="M 147.252057 207.314414 
L 176.205167 207.314414 
" clip-path="url(#p76699f6303)" style="fill: none; stroke: #9400d3; stroke-width: 2; stroke-linecap: square"/>
   </g>
   <g id="line2d_13">
    <path d="M 219.634833 209.024615 
L 248.587943 209.024615 
" clip-path="url(#p76699f6303)" style="fill: none; stroke: #ffa500; stroke-width: 2; stroke-linecap: square"/>
   </g>
   <g id="line2d_14">
    <path d="M 292.017608 211.225425 
L 320.970718 211.225425 
" clip-path="url(#p76699f6303)" style="fill: none; stroke: #ff0000; stroke-width: 2; stroke-linecap: square"/>
   </g>
   <g id="patch_3">
    <path d="M 46.64 316.10776 
L 46.64 47.04 
" style="fill: none; stroke: #000000; stroke-width: 0.8; stroke-linejoin: miter; stroke-linecap: square"/>
   </g>
   <g id="patch_4">
    <path d="M 349.2 316.10776 
L 349.2 47.04 
" style="fill: none; stroke: #000000; stroke-width: 0.8; stroke-linejoin: miter; stroke-linecap: square"/>
   </g>
   <g id="patch_5">
    <path d="M 46.64 316.10776 
L 349.2 316.10776 
" style="fill: none; stroke: #000000; stroke-width: 0.8; stroke-linejoin: miter; stroke-linecap: square"/>
   </g>
   <g id="patch_6">
    <path d="M 46.64 47.04 
L 349.2 47.04 
" style="fill: none; stroke: #000000; stroke-width: 0.8; stroke-linejoin: miter; stroke-linecap: square"/>
   </g>
   <g id="PathCollection_1">
    <defs>
     <path id="m1128d98cd8" d="M 0 2.5 
C 0.663008 2.5 1.29895 2.236584 1.767767 1.767767 
C 2.236584 1.29895 2.5 0.663008 2.5 0 
C 2.5 -0.663008 2.236584 -1.29895 1.767767 -1.767767 
C 1.29895 -2.236584 0.663008 -2.5 0 -2.5 
C -0.663008 -2.5 -1.29895 -2.236584 -1.767767 -1.767767 
C -2.236584 -1.29895 -2.5 -0.663008 -2.5 0 
C -2.5 0.663008 -2.236584 1.29895 -1.767767 1.767767 
C -1.29895 2.236584 -0.663008 2.5 0 2.5 
z
"/>
    </defs>
    <g clip-path="url(#p76699f6303)">
     <use xlink:href="#m1128d98cd8" x="79.740868" y="240.102202" style="fill-opacity: 0.7"/>
     <use xlink:href="#m1128d98cd8" x="89.345837" y="283.565312" style="fill-opacity: 0.7"/>
     <use xlink:href="#m1128d98cd8" x="89.345837" y="190.374332" style="fill-opacity: 0.7"/>
     <use xlink:href="#m1128d98cd8" x="89.345837" y="156.035488" style="fill-opacity: 0.7"/>
     <use xlink:href="#m1128d98cd8" x="99.178538" y="206.945585" style="fill-opacity: 0.7"/>
     <use xlink:href="#m1128d98cd8" x="94.578373" y="195.473377" style="fill-opacity: 0.7"/>
     <use xlink:href="#m1128d98cd8" x="84.661064" y="188.117491" style="fill-opacity: 0.7"/>
     <use xlink:href="#m1128d98cd8" x="79.624648" y="186.705839" style="fill-opacity: 0.7"/>
     <use xlink:href="#m1128d98cd8" x="79.059761" y="222.262383" style="fill-opacity: 0.7"/>
     <use xlink:href="#m1128d98cd8" x="89.345837" y="168.578568" style="fill-opacity: 0.7"/>
     <use xlink:href="#m1128d98cd8" x="71.088131" y="215.150365" style="fill-opacity: 0.7"/>
     <use xlink:href="#m1128d98cd8" x="118.298947" y="215.904587" style="fill-opacity: 0.7"/>
     <use xlink:href="#m1128d98cd8" x="90.79814" y="215.405826" style="fill-opacity: 0.7"/>
     <use xlink:href="#m1128d98cd8" x="93.781628" y="241.180282" style="fill-opacity: 0.7"/>
     <use xlink:href="#m1128d98cd8" x="94.489552" y="233.804963" style="fill-opacity: 0.7"/>
     <use xlink:href="#m1128d98cd8" x="94.446005" y="224.664662" style="fill-opacity: 0.7"/>
     <use xlink:href="#m1128d98cd8" x="82.227562" y="228.394957" style="fill-opacity: 0.7"/>
     <use xlink:href="#m1128d98cd8" x="87.084305" y="230.293647" style="fill-opacity: 0.7"/>
     <use xlink:href="#m1128d98cd8" x="99.739232" y="233.74975" style="fill-opacity: 0.7"/>
     <use xlink:href="#m1128d98cd8" x="85.295736" y="280.383849" style="fill-opacity: 0.7"/>
     <use xlink:href="#m1128d98cd8" x="79.311933" y="232.624427" style="fill-opacity: 0.7"/>
     <use xlink:href="#m1128d98cd8" x="89.345837" y="116.18876" style="fill-opacity: 0.7"/>
     <use xlink:href="#m1128d98cd8" x="89.345837" y="203.739737" style="fill-opacity: 0.7"/>
     <use xlink:href="#m1128d98cd8" x="99.80528" y="195.004919" style="fill-opacity: 0.7"/>
     <use xlink:href="#m1128d98cd8" x="89.345837" y="195.880867" style="fill-opacity: 0.7"/>
     <use xlink:href="#m1128d98cd8" x="89.345837" y="234.80596" style="fill-opacity: 0.7"/>
     <use xlink:href="#m1128d98cd8" x="74.118598" y="231.891793" style="fill-opacity: 0.7"/>
     <use xlink:href="#m1128d98cd8" x="107.545809" y="226.729982" style="fill-opacity: 0.7"/>
     <use xlink:href="#m1128d98cd8" x="63.630592" y="231.414138" style="fill-opacity: 0.7"/>
     <use xlink:href="#m1128d98cd8" x="89.345837" y="177.274219" style="fill-opacity: 0.7"/>
     <use xlink:href="#m1128d98cd8" x="81.107334" y="217.658338" style="fill-opacity: 0.7"/>
     <use xlink:href="#m1128d98cd8" x="68.960567" y="219.974585" style="fill-opacity: 0.7"/>
     <use xlink:href="#m1128d98cd8" x="84.469596" y="175.421409" style="fill-opacity: 0.7"/>
     <use xlink:href="#m1128d98cd8" x="60.392727" y="214.663249" style="fill-opacity: 0.7"/>
     <use xlink:href="#m1128d98cd8" x="94.575438" y="189.933992" style="fill-opacity: 0.7"/>
     <use xlink:href="#m1128d98cd8" x="84.683895" y="201.440414" style="fill-opacity: 0.7"/>
     <use xlink:href="#m1128d98cd8" x="102.141372" y="212.72101" style="fill-opacity: 0.7"/>
     <use xlink:href="#m1128d98cd8" x="64.822943" y="216.89697" style="fill-opacity: 0.7"/>
     <use xlink:href="#m1128d98cd8" x="78.601091" y="212.843013" style="fill-opacity: 0.7"/>
     <use xlink:href="#m1128d98cd8" x="90.448196" y="220.513037" style="fill-opacity: 0.7"/>
     <use xlink:href="#m1128d98cd8" x="68.874252" y="231.659804" style="fill-opacity: 0.7"/>
     <use xlink:href="#m1128d98cd8" x="118.298947" y="221.554767" style="fill-opacity: 0.7"/>
     <use xlink:href="#m1128d98cd8" x="95.670892" y="214.043378" style="fill-opacity: 0.7"/>
     <use xlink:href="#m1128d98cd8" x="84.245162" y="242.670779" style="fill-opacity: 0.7"/>
     <use xlink:href="#m1128d98cd8" x="114.755523" y="229.719892" style="fill-opacity: 0.7"/>
     <use xlink:href="#m1128d98cd8" x="100.443496" y="217.452313" style="fill-opacity: 0.7"/>
     <use xlink:href="#m1128d98cd8" x="105.60862" y="216.590422" style="fill-opacity: 0.7"/>
     <use xlink:href="#m1128d98cd8" x="89.345837" y="184.741144" style="fill-opacity: 0.7"/>
     <use xlink:href="#m1128d98cd8" x="94.211243" y="175.395751" style="fill-opacity: 0.7"/>
     <use xlink:href="#m1128d98cd8" x="94.594272" y="184.619069" style="fill-opacity: 0.7"/>
     <use xlink:href="#m1128d98cd8" x="79.437402" y="201.257689" style="fill-opacity: 0.7"/>
     <use xlink:href="#m1128d98cd8" x="99.216573" y="222.577192" style="fill-opacity: 0.7"/>
     <use xlink:href="#m1128d98cd8" x="74.784721" y="198.941413" style="fill-opacity: 0.7"/>
     <use xlink:href="#m1128d98cd8" x="66.869378" y="225.929159" style="fill-opacity: 0.7"/>
     <use xlink:href="#m1128d98cd8" x="83.839346" y="213.177273" style="fill-opacity: 0.7"/>
     <use xlink:href="#m1128d98cd8" x="117.775086" y="225.62967" style="fill-opacity: 0.7"/>
     <use xlink:href="#m1128d98cd8" x="67.689207" y="211.339673" style="fill-opacity: 0.7"/>
     <use xlink:href="#m1128d98cd8" x="102.324872" y="227.255367" style="fill-opacity: 0.7"/>
     <use xlink:href="#m1128d98cd8" x="84.115921" y="195.443943" style="fill-opacity: 0.7"/>
     <use xlink:href="#m1128d98cd8" x="118.298947" y="213.486747" style="fill-opacity: 0.7"/>
     <use xlink:href="#m1128d98cd8" x="94.049186" y="201.518215" style="fill-opacity: 0.7"/>
     <use xlink:href="#m1128d98cd8" x="80.270113" y="192.040294" style="fill-opacity: 0.7"/>
     <use xlink:href="#m1128d98cd8" x="104.399461" y="206.42007" style="fill-opacity: 0.7"/>
     <use xlink:href="#m1128d98cd8" x="99.812435" y="189.582305" style="fill-opacity: 0.7"/>
     <use xlink:href="#m1128d98cd8" x="60.392727" y="228.977507" style="fill-opacity: 0.7"/>
     <use xlink:href="#m1128d98cd8" x="75.880139" y="217.192808" style="fill-opacity: 0.7"/>
     <use xlink:href="#m1128d98cd8" x="84.255834" y="222.97719" style="fill-opacity: 0.7"/>
     <use xlink:href="#m1128d98cd8" x="61.94715" y="224.190139" style="fill-opacity: 0.7"/>
     <use xlink:href="#m1128d98cd8" x="109.818837" y="231.421335" style="fill-opacity: 0.7"/>
     <use xlink:href="#m1128d98cd8" x="99.031606" y="241.165567" style="fill-opacity: 0.7"/>
     <use xlink:href="#m1128d98cd8" x="104.432875" y="222.011594" style="fill-opacity: 0.7"/>
     <use xlink:href="#m1128d98cd8" x="89.345837" y="253.101578" style="fill-opacity: 0.7"/>
     <use xlink:href="#m1128d98cd8" x="110.527363" y="214.842481" style="fill-opacity: 0.7"/>
     <use xlink:href="#m1128d98cd8" x="109.302607" y="220.143321" style="fill-opacity: 0.7"/>
     <use xlink:href="#m1128d98cd8" x="112.245569" y="224.501583" style="fill-opacity: 0.7"/>
     <use xlink:href="#m1128d98cd8" x="73.827745" y="221.848885" style="fill-opacity: 0.7"/>
     <use xlink:href="#m1128d98cd8" x="97.453332" y="229.119358" style="fill-opacity: 0.7"/>
     <use xlink:href="#m1128d98cd8" x="118.298947" y="216.281882" style="fill-opacity: 0.7"/>
     <use xlink:href="#m1128d98cd8" x="92.203794" y="229.185713" style="fill-opacity: 0.7"/>
     <use xlink:href="#m1128d98cd8" x="74.420573" y="206.609559" style="fill-opacity: 0.7"/>
     <use xlink:href="#m1128d98cd8" x="79.657709" y="206.959358" style="fill-opacity: 0.7"/>
     <use xlink:href="#m1128d98cd8" x="94.248703" y="208.664949" style="fill-opacity: 0.7"/>
     <use xlink:href="#m1128d98cd8" x="104.586295" y="231.828753" style="fill-opacity: 0.7"/>
     <use xlink:href="#m1128d98cd8" x="77.176532" y="227.82751" style="fill-opacity: 0.7"/>
     <use xlink:href="#m1128d98cd8" x="88.90865" y="225.293221" style="fill-opacity: 0.7"/>
     <use xlink:href="#m1128d98cd8" x="89.345837" y="210.452892" style="fill-opacity: 0.7"/>
     <use xlink:href="#m1128d98cd8" x="84.80506" y="207.943257" style="fill-opacity: 0.7"/>
     <use xlink:href="#m1128d98cd8" x="89.345837" y="243.854804" style="fill-opacity: 0.7"/>
     <use xlink:href="#m1128d98cd8" x="86.122465" y="217.679716" style="fill-opacity: 0.7"/>
     <use xlink:href="#m1128d98cd8" x="60.392727" y="216.177301" style="fill-opacity: 0.7"/>
     <use xlink:href="#m1128d98cd8" x="84.097489" y="234.680545" style="fill-opacity: 0.7"/>
     <use xlink:href="#m1128d98cd8" x="114.254109" y="218.481389" style="fill-opacity: 0.7"/>
     <use xlink:href="#m1128d98cd8" x="115.271893" y="212.701862" style="fill-opacity: 0.7"/>
     <use xlink:href="#m1128d98cd8" x="72.041813" y="226.785463" style="fill-opacity: 0.7"/>
     <use xlink:href="#m1128d98cd8" x="95.465041" y="219.039533" style="fill-opacity: 0.7"/>
     <use xlink:href="#m1128d98cd8" x="99.247104" y="200.815682" style="fill-opacity: 0.7"/>
    </g>
   </g>
   <g id="PathCollection_2">
    <g clip-path="url(#p76699f6303)">
     <use xlink:href="#m1128d98cd8" x="161.728612" y="242.188599" style="fill-opacity: 0.7"/>
     <use xlink:href="#m1128d98cd8" x="156.532211" y="282.632008" style="fill-opacity: 0.7"/>
     <use xlink:href="#m1128d98cd8" x="166.082776" y="176.466896" style="fill-opacity: 0.7"/>
     <use xlink:href="#m1128d98cd8" x="156.659723" y="150.49227" style="fill-opacity: 0.7"/>
     <use xlink:href="#m1128d98cd8" x="163.938775" y="201.64691" style="fill-opacity: 0.7"/>
     <use xlink:href="#m1128d98cd8" x="160.31663" y="187.754986" style="fill-opacity: 0.7"/>
     <use xlink:href="#m1128d98cd8" x="161.728612" y="179.260435" style="fill-opacity: 0.7"/>
     <use xlink:href="#m1128d98cd8" x="151.745859" y="176.281903" style="fill-opacity: 0.7"/>
     <use xlink:href="#m1128d98cd8" x="174.562083" y="216.740958" style="fill-opacity: 0.7"/>
     <use xlink:href="#m1128d98cd8" x="161.728612" y="151.794233" style="fill-opacity: 0.7"/>
     <use xlink:href="#m1128d98cd8" x="168.720192" y="189.792389" style="fill-opacity: 0.7"/>
     <use xlink:href="#m1128d98cd8" x="133.776901" y="213.068145" style="fill-opacity: 0.7"/>
     <use xlink:href="#m1128d98cd8" x="180.696428" y="200.539106" style="fill-opacity: 0.7"/>
     <use xlink:href="#m1128d98cd8" x="189.158083" y="223.203204" style="fill-opacity: 0.7"/>
     <use xlink:href="#m1128d98cd8" x="156.488773" y="234.612282" style="fill-opacity: 0.7"/>
     <use xlink:href="#m1128d98cd8" x="170.954789" y="212.050419" style="fill-opacity: 0.7"/>
     <use xlink:href="#m1128d98cd8" x="161.553004" y="224.802934" style="fill-opacity: 0.7"/>
     <use xlink:href="#m1128d98cd8" x="167.045499" y="215.387825" style="fill-opacity: 0.7"/>
     <use xlink:href="#m1128d98cd8" x="190.681722" y="220.593355" style="fill-opacity: 0.7"/>
     <use xlink:href="#m1128d98cd8" x="161.728612" y="283.344652" style="fill-opacity: 0.7"/>
     <use xlink:href="#m1128d98cd8" x="156.73415" y="226.149739" style="fill-opacity: 0.7"/>
     <use xlink:href="#m1128d98cd8" x="161.728612" y="91.27494" style="fill-opacity: 0.7"/>
     <use xlink:href="#m1128d98cd8" x="177.566448" y="194.450445" style="fill-opacity: 0.7"/>
     <use xlink:href="#m1128d98cd8" x="152.694329" y="181.19963" style="fill-opacity: 0.7"/>
     <use xlink:href="#m1128d98cd8" x="173.555625" y="180.611264" style="fill-opacity: 0.7"/>
     <use xlink:href="#m1128d98cd8" x="146.734667" y="231.004219" style="fill-opacity: 0.7"/>
     <use xlink:href="#m1128d98cd8" x="148.354552" y="218.479501" style="fill-opacity: 0.7"/>
     <use xlink:href="#m1128d98cd8" x="190.681722" y="222.31571" style="fill-opacity: 0.7"/>
     <use xlink:href="#m1128d98cd8" x="184.570147" y="214.121092" style="fill-opacity: 0.7"/>
     <use xlink:href="#m1128d98cd8" x="156.713372" y="167.663962" style="fill-opacity: 0.7"/>
     <use xlink:href="#m1128d98cd8" x="156.80062" y="204.447574" style="fill-opacity: 0.7"/>
     <use xlink:href="#m1128d98cd8" x="153.353629" y="220.006798" style="fill-opacity: 0.7"/>
     <use xlink:href="#m1128d98cd8" x="161.728612" y="169.142414" style="fill-opacity: 0.7"/>
     <use xlink:href="#m1128d98cd8" x="161.728612" y="206.171722" style="fill-opacity: 0.7"/>
     <use xlink:href="#m1128d98cd8" x="156.699312" y="177.825959" style="fill-opacity: 0.7"/>
     <use xlink:href="#m1128d98cd8" x="157.237593" y="183.705179" style="fill-opacity: 0.7"/>
     <use xlink:href="#m1128d98cd8" x="171.947392" y="204.376239" style="fill-opacity: 0.7"/>
     <use xlink:href="#m1128d98cd8" x="149.495642" y="189.641188" style="fill-opacity: 0.7"/>
     <use xlink:href="#m1128d98cd8" x="160.200895" y="212.317615" style="fill-opacity: 0.7"/>
     <use xlink:href="#m1128d98cd8" x="142.773893" y="209.484383" style="fill-opacity: 0.7"/>
     <use xlink:href="#m1128d98cd8" x="173.433121" y="223.935325" style="fill-opacity: 0.7"/>
     <use xlink:href="#m1128d98cd8" x="162.758489" y="196.408789" style="fill-opacity: 0.7"/>
     <use xlink:href="#m1128d98cd8" x="168.055296" y="198.543733" style="fill-opacity: 0.7"/>
     <use xlink:href="#m1128d98cd8" x="141.550547" y="230.214604" style="fill-opacity: 0.7"/>
     <use xlink:href="#m1128d98cd8" x="162.072065" y="216.989257" style="fill-opacity: 0.7"/>
     <use xlink:href="#m1128d98cd8" x="180.665584" y="208.748707" style="fill-opacity: 0.7"/>
     <use xlink:href="#m1128d98cd8" x="178.66376" y="223.506308" style="fill-opacity: 0.7"/>
     <use xlink:href="#m1128d98cd8" x="164.233622" y="184.42578" style="fill-opacity: 0.7"/>
     <use xlink:href="#m1128d98cd8" x="161.728612" y="163.991097" style="fill-opacity: 0.7"/>
     <use xlink:href="#m1128d98cd8" x="166.476835" y="167.009233" style="fill-opacity: 0.7"/>
     <use xlink:href="#m1128d98cd8" x="154.734762" y="189.962922" style="fill-opacity: 0.7"/>
     <use xlink:href="#m1128d98cd8" x="143.693829" y="216.177938" style="fill-opacity: 0.7"/>
     <use xlink:href="#m1128d98cd8" x="158.666474" y="193.276351" style="fill-opacity: 0.7"/>
     <use xlink:href="#m1128d98cd8" x="146.505878" y="223.914699" style="fill-opacity: 0.7"/>
     <use xlink:href="#m1128d98cd8" x="154.531566" y="197.311116" style="fill-opacity: 0.7"/>
     <use xlink:href="#m1128d98cd8" x="183.912948" y="223.418404" style="fill-opacity: 0.7"/>
     <use xlink:href="#m1128d98cd8" x="172.574709" y="195.999358" style="fill-opacity: 0.7"/>
     <use xlink:href="#m1128d98cd8" x="132.775502" y="221.599386" style="fill-opacity: 0.7"/>
     <use xlink:href="#m1128d98cd8" x="145.095327" y="186.91403" style="fill-opacity: 0.7"/>
     <use xlink:href="#m1128d98cd8" x="147.123515" y="200.569727" style="fill-opacity: 0.7"/>
     <use xlink:href="#m1128d98cd8" x="143.659528" y="196.812551" style="fill-opacity: 0.7"/>
     <use xlink:href="#m1128d98cd8" x="173.95715" y="189.440169" style="fill-opacity: 0.7"/>
     <use xlink:href="#m1128d98cd8" x="163.788106" y="191.505887" style="fill-opacity: 0.7"/>
     <use xlink:href="#m1128d98cd8" x="169.428217" y="183.701298" style="fill-opacity: 0.7"/>
     <use xlink:href="#m1128d98cd8" x="158.552974" y="220.699695" style="fill-opacity: 0.7"/>
     <use xlink:href="#m1128d98cd8" x="138.561061" y="215.127208" style="fill-opacity: 0.7"/>
     <use xlink:href="#m1128d98cd8" x="165.37409" y="221.374124" style="fill-opacity: 0.7"/>
     <use xlink:href="#m1128d98cd8" x="147.536187" y="211.58892" style="fill-opacity: 0.7"/>
     <use xlink:href="#m1128d98cd8" x="159.5236" y="230.385584" style="fill-opacity: 0.7"/>
     <use xlink:href="#m1128d98cd8" x="166.788641" y="233.590336" style="fill-opacity: 0.7"/>
     <use xlink:href="#m1128d98cd8" x="179.776539" y="216.160127" style="fill-opacity: 0.7"/>
     <use xlink:href="#m1128d98cd8" x="161.728612" y="234.923198" style="fill-opacity: 0.7"/>
     <use xlink:href="#m1128d98cd8" x="151.704117" y="214.629217" style="fill-opacity: 0.7"/>
     <use xlink:href="#m1128d98cd8" x="132.775502" y="223.143416" style="fill-opacity: 0.7"/>
     <use xlink:href="#m1128d98cd8" x="132.775502" y="219.553218" style="fill-opacity: 0.7"/>
     <use xlink:href="#m1128d98cd8" x="171.821719" y="232.167929" style="fill-opacity: 0.7"/>
     <use xlink:href="#m1128d98cd8" x="151.580479" y="225.196324" style="fill-opacity: 0.7"/>
     <use xlink:href="#m1128d98cd8" x="137.584454" y="208.727122" style="fill-opacity: 0.7"/>
     <use xlink:href="#m1128d98cd8" x="141.280662" y="223.429435" style="fill-opacity: 0.7"/>
     <use xlink:href="#m1128d98cd8" x="165.074041" y="210.457434" style="fill-opacity: 0.7"/>
     <use xlink:href="#m1128d98cd8" x="151.014327" y="207.483644" style="fill-opacity: 0.7"/>
     <use xlink:href="#m1128d98cd8" x="149.480028" y="195.949358" style="fill-opacity: 0.7"/>
     <use xlink:href="#m1128d98cd8" x="164.541089" y="228.914071" style="fill-opacity: 0.7"/>
     <use xlink:href="#m1128d98cd8" x="176.664081" y="230.236208" style="fill-opacity: 0.7"/>
     <use xlink:href="#m1128d98cd8" x="168.489689" y="225.618906" style="fill-opacity: 0.7"/>
     <use xlink:href="#m1128d98cd8" x="151.992465" y="202.439845" style="fill-opacity: 0.7"/>
     <use xlink:href="#m1128d98cd8" x="166.906011" y="205.771721" style="fill-opacity: 0.7"/>
     <use xlink:href="#m1128d98cd8" x="151.454431" y="233.193935" style="fill-opacity: 0.7"/>
     <use xlink:href="#m1128d98cd8" x="175.447713" y="200.649733" style="fill-opacity: 0.7"/>
     <use xlink:href="#m1128d98cd8" x="156.75204" y="216.003081" style="fill-opacity: 0.7"/>
     <use xlink:href="#m1128d98cd8" x="136.033953" y="223.252407" style="fill-opacity: 0.7"/>
     <use xlink:href="#m1128d98cd8" x="175.476846" y="209.51031" style="fill-opacity: 0.7"/>
     <use xlink:href="#m1128d98cd8" x="155.681959" y="209.772474" style="fill-opacity: 0.7"/>
     <use xlink:href="#m1128d98cd8" x="156.577107" y="241.224627" style="fill-opacity: 0.7"/>
     <use xlink:href="#m1128d98cd8" x="170.312284" y="219.676657" style="fill-opacity: 0.7"/>
     <use xlink:href="#m1128d98cd8" x="159.014291" y="199.913692" style="fill-opacity: 0.7"/>
    </g>
   </g>
   <g id="PathCollection_3">
    <g clip-path="url(#p76699f6303)">
     <use xlink:href="#m1128d98cd8" x="234.86677" y="235.232534" style="fill-opacity: 0.7"/>
     <use xlink:href="#m1128d98cd8" x="234.111388" y="277.413995" style="fill-opacity: 0.7"/>
     <use xlink:href="#m1128d98cd8" x="230.372572" y="182.981201" style="fill-opacity: 0.7"/>
     <use xlink:href="#m1128d98cd8" x="234.111388" y="137.309691" style="fill-opacity: 0.7"/>
     <use xlink:href="#m1128d98cd8" x="234.111388" y="210.68886" style="fill-opacity: 0.7"/>
     <use xlink:href="#m1128d98cd8" x="228.113052" y="189.454115" style="fill-opacity: 0.7"/>
     <use xlink:href="#m1128d98cd8" x="234.111388" y="176.336227" style="fill-opacity: 0.7"/>
     <use xlink:href="#m1128d98cd8" x="229.338193" y="168.755691" style="fill-opacity: 0.7"/>
     <use xlink:href="#m1128d98cd8" x="239.329176" y="218.400273" style="fill-opacity: 0.7"/>
     <use xlink:href="#m1128d98cd8" x="234.111388" y="151.366465" style="fill-opacity: 0.7"/>
     <use xlink:href="#m1128d98cd8" x="251.21762" y="205.133687" style="fill-opacity: 0.7"/>
     <use xlink:href="#m1128d98cd8" x="245.910589" y="202.463754" style="fill-opacity: 0.7"/>
     <use xlink:href="#m1128d98cd8" x="250.500703" y="200.03689" style="fill-opacity: 0.7"/>
     <use xlink:href="#m1128d98cd8" x="241.709275" y="223.073993" style="fill-opacity: 0.7"/>
     <use xlink:href="#m1128d98cd8" x="229.246385" y="243.521128" style="fill-opacity: 0.7"/>
     <use xlink:href="#m1128d98cd8" x="243.310659" y="215.141197" style="fill-opacity: 0.7"/>
     <use xlink:href="#m1128d98cd8" x="218.051404" y="225.046209" style="fill-opacity: 0.7"/>
     <use xlink:href="#m1128d98cd8" x="225.41486" y="216.826798" style="fill-opacity: 0.7"/>
     <use xlink:href="#m1128d98cd8" x="226.417056" y="237.195741" style="fill-opacity: 0.7"/>
     <use xlink:href="#m1128d98cd8" x="234.111388" y="267.030026" style="fill-opacity: 0.7"/>
     <use xlink:href="#m1128d98cd8" x="227.859079" y="228.546067" style="fill-opacity: 0.7"/>
     <use xlink:href="#m1128d98cd8" x="234.111388" y="80.216376" style="fill-opacity: 0.7"/>
     <use xlink:href="#m1128d98cd8" x="250.954119" y="191.831392" style="fill-opacity: 0.7"/>
     <use xlink:href="#m1128d98cd8" x="237.586143" y="190.178506" style="fill-opacity: 0.7"/>
     <use xlink:href="#m1128d98cd8" x="216.154804" y="191.167339" style="fill-opacity: 0.7"/>
     <use xlink:href="#m1128d98cd8" x="251.81849" y="224.887376" style="fill-opacity: 0.7"/>
     <use xlink:href="#m1128d98cd8" x="247.54466" y="231.846376" style="fill-opacity: 0.7"/>
     <use xlink:href="#m1128d98cd8" x="229.468552" y="213.428693" style="fill-opacity: 0.7"/>
     <use xlink:href="#m1128d98cd8" x="222.216048" y="212.86209" style="fill-opacity: 0.7"/>
     <use xlink:href="#m1128d98cd8" x="238.196043" y="167.696571" style="fill-opacity: 0.7"/>
     <use xlink:href="#m1128d98cd8" x="241.595264" y="208.996469" style="fill-opacity: 0.7"/>
     <use xlink:href="#m1128d98cd8" x="230.019883" y="219.227905" style="fill-opacity: 0.7"/>
     <use xlink:href="#m1128d98cd8" x="229.06106" y="162.672349" style="fill-opacity: 0.7"/>
     <use xlink:href="#m1128d98cd8" x="256.277021" y="218.177144" style="fill-opacity: 0.7"/>
     <use xlink:href="#m1128d98cd8" x="242.338951" y="188.054607" style="fill-opacity: 0.7"/>
     <use xlink:href="#m1128d98cd8" x="226.067095" y="194.442893" style="fill-opacity: 0.7"/>
     <use xlink:href="#m1128d98cd8" x="226.707863" y="204.078549" style="fill-opacity: 0.7"/>
     <use xlink:href="#m1128d98cd8" x="221.043872" y="192.98923" style="fill-opacity: 0.7"/>
     <use xlink:href="#m1128d98cd8" x="211.726617" y="212.418252" style="fill-opacity: 0.7"/>
     <use xlink:href="#m1128d98cd8" x="238.521315" y="213.04978" style="fill-opacity: 0.7"/>
     <use xlink:href="#m1128d98cd8" x="205.158278" y="221.598949" style="fill-opacity: 0.7"/>
     <use xlink:href="#m1128d98cd8" x="217.256868" y="205.324392" style="fill-opacity: 0.7"/>
     <use xlink:href="#m1128d98cd8" x="235.835864" y="195.924757" style="fill-opacity: 0.7"/>
     <use xlink:href="#m1128d98cd8" x="229.984305" y="233.394651" style="fill-opacity: 0.7"/>
     <use xlink:href="#m1128d98cd8" x="246.093309" y="220.323154" style="fill-opacity: 0.7"/>
     <use xlink:href="#m1128d98cd8" x="258.323967" y="211.887991" style="fill-opacity: 0.7"/>
     <use xlink:href="#m1128d98cd8" x="213.01904" y="223.621513" style="fill-opacity: 0.7"/>
     <use xlink:href="#m1128d98cd8" x="237.982654" y="184.173277" style="fill-opacity: 0.7"/>
     <use xlink:href="#m1128d98cd8" x="234.111388" y="170.837709" style="fill-opacity: 0.7"/>
     <use xlink:href="#m1128d98cd8" x="234.111388" y="164.038176" style="fill-opacity: 0.7"/>
     <use xlink:href="#m1128d98cd8" x="260.201617" y="199.984113" style="fill-opacity: 0.7"/>
     <use xlink:href="#m1128d98cd8" x="226.860315" y="209.089388" style="fill-opacity: 0.7"/>
     <use xlink:href="#m1128d98cd8" x="230.67453" y="196.8398" style="fill-opacity: 0.7"/>
     <use xlink:href="#m1128d98cd8" x="233.107947" y="228.649922" style="fill-opacity: 0.7"/>
     <use xlink:href="#m1128d98cd8" x="236.564926" y="206.150801" style="fill-opacity: 0.7"/>
     <use xlink:href="#m1128d98cd8" x="247.869654" y="212.6617" style="fill-opacity: 0.7"/>
     <use xlink:href="#m1128d98cd8" x="240.69921" y="203.069117" style="fill-opacity: 0.7"/>
     <use xlink:href="#m1128d98cd8" x="256.8307" y="223.399635" style="fill-opacity: 0.7"/>
     <use xlink:href="#m1128d98cd8" x="224.308996" y="186.008172" style="fill-opacity: 0.7"/>
     <use xlink:href="#m1128d98cd8" x="231.324887" y="206.458661" style="fill-opacity: 0.7"/>
     <use xlink:href="#m1128d98cd8" x="246.026082" y="193.555425" style="fill-opacity: 0.7"/>
     <use xlink:href="#m1128d98cd8" x="232.67094" y="191.935456" style="fill-opacity: 0.7"/>
     <use xlink:href="#m1128d98cd8" x="208.133645" y="200.552908" style="fill-opacity: 0.7"/>
     <use xlink:href="#m1128d98cd8" x="233.599409" y="186.925257" style="fill-opacity: 0.7"/>
     <use xlink:href="#m1128d98cd8" x="207.910232" y="222.469728" style="fill-opacity: 0.7"/>
     <use xlink:href="#m1128d98cd8" x="222.824549" y="227.12833" style="fill-opacity: 0.7"/>
     <use xlink:href="#m1128d98cd8" x="237.385773" y="225.910399" style="fill-opacity: 0.7"/>
     <use xlink:href="#m1128d98cd8" x="216.097948" y="219.184838" style="fill-opacity: 0.7"/>
     <use xlink:href="#m1128d98cd8" x="242.545712" y="233.374056" style="fill-opacity: 0.7"/>
     <use xlink:href="#m1128d98cd8" x="231.339" y="238.935489" style="fill-opacity: 0.7"/>
     <use xlink:href="#m1128d98cd8" x="251.315893" y="219.812829" style="fill-opacity: 0.7"/>
     <use xlink:href="#m1128d98cd8" x="240.493417" y="237.976194" style="fill-opacity: 0.7"/>
     <use xlink:href="#m1128d98cd8" x="221.731792" y="202.709667" style="fill-opacity: 0.7"/>
     <use xlink:href="#m1128d98cd8" x="216.972846" y="212.607722" style="fill-opacity: 0.7"/>
     <use xlink:href="#m1128d98cd8" x="211.001342" y="217.985025" style="fill-opacity: 0.7"/>
     <use xlink:href="#m1128d98cd8" x="218.601537" y="231.258768" style="fill-opacity: 0.7"/>
     <use xlink:href="#m1128d98cd8" x="237.721418" y="231.036274" style="fill-opacity: 0.7"/>
     <use xlink:href="#m1128d98cd8" x="246.62005" y="207.547715" style="fill-opacity: 0.7"/>
     <use xlink:href="#m1128d98cd8" x="261.987579" y="222.462083" style="fill-opacity: 0.7"/>
     <use xlink:href="#m1128d98cd8" x="234.111388" y="215.762819" style="fill-opacity: 0.7"/>
     <use xlink:href="#m1128d98cd8" x="255.568027" y="202.334844" style="fill-opacity: 0.7"/>
     <use xlink:href="#m1128d98cd8" x="240.875311" y="194.522952" style="fill-opacity: 0.7"/>
     <use xlink:href="#m1128d98cd8" x="246.659325" y="225.813449" style="fill-opacity: 0.7"/>
     <use xlink:href="#m1128d98cd8" x="230.759562" y="224.178031" style="fill-opacity: 0.7"/>
     <use xlink:href="#m1128d98cd8" x="234.111388" y="245.400543" style="fill-opacity: 0.7"/>
     <use xlink:href="#m1128d98cd8" x="206.515629" y="211.809844" style="fill-opacity: 0.7"/>
     <use xlink:href="#m1128d98cd8" x="221.769138" y="207.880238" style="fill-opacity: 0.7"/>
     <use xlink:href="#m1128d98cd8" x="236.158057" y="240.796134" style="fill-opacity: 0.7"/>
     <use xlink:href="#m1128d98cd8" x="213.028408" y="202.360877" style="fill-opacity: 0.7"/>
     <use xlink:href="#m1128d98cd8" x="235.069432" y="221.32287" style="fill-opacity: 0.7"/>
     <use xlink:href="#m1128d98cd8" x="242.04957" y="228.206308" style="fill-opacity: 0.7"/>
     <use xlink:href="#m1128d98cd8" x="225.742845" y="222.70413" style="fill-opacity: 0.7"/>
     <use xlink:href="#m1128d98cd8" x="253.117934" y="212.533731" style="fill-opacity: 0.7"/>
     <use xlink:href="#m1128d98cd8" x="223.510258" y="233.03208" style="fill-opacity: 0.7"/>
     <use xlink:href="#m1128d98cd8" x="221.25844" y="220.10418" style="fill-opacity: 0.7"/>
     <use xlink:href="#m1128d98cd8" x="234.111388" y="200.619506" style="fill-opacity: 0.7"/>
    </g>
   </g>
   <g id="PathCollection_4">
    <g clip-path="url(#p76699f6303)">
     <use xlink:href="#m1128d98cd8" x="309.592964" y="240.766245" style="fill-opacity: 0.7"/>
     <use xlink:href="#m1128d98cd8" x="306.494163" y="279.085575" style="fill-opacity: 0.7"/>
     <use xlink:href="#m1128d98cd8" x="294.635363" y="189.446217" style="fill-opacity: 0.7"/>
     <use xlink:href="#m1128d98cd8" x="306.494163" y="151.956262" style="fill-opacity: 0.7"/>
     <use xlink:href="#m1128d98cd8" x="320.777504" y="209.271056" style="fill-opacity: 0.7"/>
     <use xlink:href="#m1128d98cd8" x="292.483521" y="196.87753" style="fill-opacity: 0.7"/>
     <use xlink:href="#m1128d98cd8" x="306.494163" y="189.918004" style="fill-opacity: 0.7"/>
     <use xlink:href="#m1128d98cd8" x="310.006239" y="179.785129" style="fill-opacity: 0.7"/>
     <use xlink:href="#m1128d98cd8" x="305.315077" y="220.999325" style="fill-opacity: 0.7"/>
     <use xlink:href="#m1128d98cd8" x="306.494163" y="157.29017" style="fill-opacity: 0.7"/>
     <use xlink:href="#m1128d98cd8" x="315.525872" y="197.161683" style="fill-opacity: 0.7"/>
     <use xlink:href="#m1128d98cd8" x="331.253274" y="210.947097" style="fill-opacity: 0.7"/>
     <use xlink:href="#m1128d98cd8" x="295.558526" y="217.326395" style="fill-opacity: 0.7"/>
     <use xlink:href="#m1128d98cd8" x="328.406997" y="234.624911" style="fill-opacity: 0.7"/>
     <use xlink:href="#m1128d98cd8" x="301.536327" y="243.157638" style="fill-opacity: 0.7"/>
     <use xlink:href="#m1128d98cd8" x="297.321636" y="212.175825" style="fill-opacity: 0.7"/>
     <use xlink:href="#m1128d98cd8" x="291.529537" y="221.277441" style="fill-opacity: 0.7"/>
     <use xlink:href="#m1128d98cd8" x="322.421409" y="214.932093" style="fill-opacity: 0.7"/>
     <use xlink:href="#m1128d98cd8" x="294.86077" y="235.904431" style="fill-opacity: 0.7"/>
     <use xlink:href="#m1128d98cd8" x="306.494163" y="273.390281" style="fill-opacity: 0.7"/>
     <use xlink:href="#m1128d98cd8" x="299.967234" y="237.065604" style="fill-opacity: 0.7"/>
     <use xlink:href="#m1128d98cd8" x="306.494163" y="103.788513" style="fill-opacity: 0.7"/>
     <use xlink:href="#m1128d98cd8" x="323.758272" y="192.758147" style="fill-opacity: 0.7"/>
     <use xlink:href="#m1128d98cd8" x="302.749983" y="193.751534" style="fill-opacity: 0.7"/>
     <use xlink:href="#m1128d98cd8" x="287.235665" y="196.734621" style="fill-opacity: 0.7"/>
     <use xlink:href="#m1128d98cd8" x="311.178496" y="235.999715" style="fill-opacity: 0.7"/>
     <use xlink:href="#m1128d98cd8" x="306.494163" y="232.540098" style="fill-opacity: 0.7"/>
     <use xlink:href="#m1128d98cd8" x="335.447273" y="219.484982" style="fill-opacity: 0.7"/>
     <use xlink:href="#m1128d98cd8" x="277.541053" y="218.797868" style="fill-opacity: 0.7"/>
     <use xlink:href="#m1128d98cd8" x="305.804444" y="182.782848" style="fill-opacity: 0.7"/>
     <use xlink:href="#m1128d98cd8" x="310.758648" y="206.513061" style="fill-opacity: 0.7"/>
     <use xlink:href="#m1128d98cd8" x="326.357881" y="220.977032" style="fill-opacity: 0.7"/>
     <use xlink:href="#m1128d98cd8" x="306.494163" y="168.636321" style="fill-opacity: 0.7"/>
     <use xlink:href="#m1128d98cd8" x="290.88894" y="215.041182" style="fill-opacity: 0.7"/>
     <use xlink:href="#m1128d98cd8" x="289.823396" y="187.44679" style="fill-opacity: 0.7"/>
     <use xlink:href="#m1128d98cd8" x="301.388792" y="188.75248" style="fill-opacity: 0.7"/>
     <use xlink:href="#m1128d98cd8" x="287.579874" y="209.116665" style="fill-opacity: 0.7"/>
     <use xlink:href="#m1128d98cd8" x="320.925745" y="204.173568" style="fill-opacity: 0.7"/>
     <use xlink:href="#m1128d98cd8" x="302.571387" y="212.224475" style="fill-opacity: 0.7"/>
     <use xlink:href="#m1128d98cd8" x="315.950197" y="205.769031" style="fill-opacity: 0.7"/>
     <use xlink:href="#m1128d98cd8" x="301.458712" y="224.456824" style="fill-opacity: 0.7"/>
     <use xlink:href="#m1128d98cd8" x="280.402333" y="214.564248" style="fill-opacity: 0.7"/>
     <use xlink:href="#m1128d98cd8" x="296.819985" y="199.695931" style="fill-opacity: 0.7"/>
     <use xlink:href="#m1128d98cd8" x="314.754434" y="239.851894" style="fill-opacity: 0.7"/>
     <use xlink:href="#m1128d98cd8" x="281.248021" y="219.493492" style="fill-opacity: 0.7"/>
     <use xlink:href="#m1128d98cd8" x="326.021287" y="209.027805" style="fill-opacity: 0.7"/>
     <use xlink:href="#m1128d98cd8" x="306.494163" y="215.547498" style="fill-opacity: 0.7"/>
     <use xlink:href="#m1128d98cd8" x="318.600208" y="189.403068" style="fill-opacity: 0.7"/>
     <use xlink:href="#m1128d98cd8" x="301.288387" y="167.988703" style="fill-opacity: 0.7"/>
     <use xlink:href="#m1128d98cd8" x="306.494163" y="174.763184" style="fill-opacity: 0.7"/>
     <use xlink:href="#m1128d98cd8" x="301.766779" y="201.370531" style="fill-opacity: 0.7"/>
     <use xlink:href="#m1128d98cd8" x="311.169242" y="213.272496" style="fill-opacity: 0.7"/>
     <use xlink:href="#m1128d98cd8" x="305.76441" y="197.845192" style="fill-opacity: 0.7"/>
     <use xlink:href="#m1128d98cd8" x="297.130885" y="228.855346" style="fill-opacity: 0.7"/>
     <use xlink:href="#m1128d98cd8" x="311.197534" y="199.991392" style="fill-opacity: 0.7"/>
     <use xlink:href="#m1128d98cd8" x="321.324307" y="222.397846" style="fill-opacity: 0.7"/>
     <use xlink:href="#m1128d98cd8" x="279.995682" y="202.736194" style="fill-opacity: 0.7"/>
     <use xlink:href="#m1128d98cd8" x="286.29775" y="220.861323" style="fill-opacity: 0.7"/>
     <use xlink:href="#m1128d98cd8" x="313.788213" y="191.402433" style="fill-opacity: 0.7"/>
     <use xlink:href="#m1128d98cd8" x="303.412877" y="206.552368" style="fill-opacity: 0.7"/>
     <use xlink:href="#m1128d98cd8" x="306.814792" y="202.744097" style="fill-opacity: 0.7"/>
     <use xlink:href="#m1128d98cd8" x="297.501398" y="193.635431" style="fill-opacity: 0.7"/>
     <use xlink:href="#m1128d98cd8" x="320.766747" y="196.867014" style="fill-opacity: 0.7"/>
     <use xlink:href="#m1128d98cd8" x="309.796037" y="186.030688" style="fill-opacity: 0.7"/>
     <use xlink:href="#m1128d98cd8" x="316.102002" y="222.910748" style="fill-opacity: 0.7"/>
     <use xlink:href="#m1128d98cd8" x="335.447273" y="217.224555" style="fill-opacity: 0.7"/>
     <use xlink:href="#m1128d98cd8" x="306.494163" y="225.871595" style="fill-opacity: 0.7"/>
     <use xlink:href="#m1128d98cd8" x="335.447273" y="218.027233" style="fill-opacity: 0.7"/>
     <use xlink:href="#m1128d98cd8" x="333.584084" y="233.794495" style="fill-opacity: 0.7"/>
     <use xlink:href="#m1128d98cd8" x="306.494163" y="244.802356" style="fill-opacity: 0.7"/>
     <use xlink:href="#m1128d98cd8" x="318.332667" y="218.068406" style="fill-opacity: 0.7"/>
     <use xlink:href="#m1128d98cd8" x="289.784218" y="234.629833" style="fill-opacity: 0.7"/>
     <use xlink:href="#m1128d98cd8" x="292.801921" y="209.631938" style="fill-opacity: 0.7"/>
     <use xlink:href="#m1128d98cd8" x="310.8553" y="223.087939" style="fill-opacity: 0.7"/>
     <use xlink:href="#m1128d98cd8" x="277.541053" y="217.942185" style="fill-opacity: 0.7"/>
     <use xlink:href="#m1128d98cd8" x="318.081534" y="235.984137" style="fill-opacity: 0.7"/>
     <use xlink:href="#m1128d98cd8" x="312.024635" y="231.065081" style="fill-opacity: 0.7"/>
     <use xlink:href="#m1128d98cd8" x="331.52174" y="220.075001" style="fill-opacity: 0.7"/>
     <use xlink:href="#m1128d98cd8" x="313.10939" y="218.57225" style="fill-opacity: 0.7"/>
     <use xlink:href="#m1128d98cd8" x="298.16507" y="206.407863" style="fill-opacity: 0.7"/>
     <use xlink:href="#m1128d98cd8" x="331.404319" y="203.537474" style="fill-opacity: 0.7"/>
     <use xlink:href="#m1128d98cd8" x="326.163175" y="203.827775" style="fill-opacity: 0.7"/>
     <use xlink:href="#m1128d98cd8" x="301.285779" y="231.911785" style="fill-opacity: 0.7"/>
     <use xlink:href="#m1128d98cd8" x="296.608685" y="222.542624" style="fill-opacity: 0.7"/>
     <use xlink:href="#m1128d98cd8" x="316.345043" y="228.224402" style="fill-opacity: 0.7"/>
     <use xlink:href="#m1128d98cd8" x="307.106839" y="210.105291" style="fill-opacity: 0.7"/>
     <use xlink:href="#m1128d98cd8" x="315.867637" y="211.041489" style="fill-opacity: 0.7"/>
     <use xlink:href="#m1128d98cd8" x="305.075845" y="238.218179" style="fill-opacity: 0.7"/>
     <use xlink:href="#m1128d98cd8" x="309.880619" y="194.74164" style="fill-opacity: 0.7"/>
     <use xlink:href="#m1128d98cd8" x="327.659235" y="214.591791" style="fill-opacity: 0.7"/>
     <use xlink:href="#m1128d98cd8" x="284.536162" y="234.49378" style="fill-opacity: 0.7"/>
     <use xlink:href="#m1128d98cd8" x="300.516182" y="218.971602" style="fill-opacity: 0.7"/>
     <use xlink:href="#m1128d98cd8" x="290.878409" y="204.979618" style="fill-opacity: 0.7"/>
     <use xlink:href="#m1128d98cd8" x="323.157726" y="234.70824" style="fill-opacity: 0.7"/>
     <use xlink:href="#m1128d98cd8" x="285.649787" y="214.719948" style="fill-opacity: 0.7"/>
     <use xlink:href="#m1128d98cd8" x="284.715038" y="204.926706" style="fill-opacity: 0.7"/>
    </g>
   </g>
   <g id="text_12">
    <!-- V1 tgt -->
    <g transform="translate(179.577813 41.04) scale(0.12 -0.12)">
     <defs>
      <path id="DejaVuSans-56" d="M 1831 0 
L 50 4666 
L 709 4666 
L 2188 738 
L 3669 4666 
L 4325 4666 
L 2547 0 
L 1831 0 
z
" transform="scale(0.015625)"/>
     </defs>
     <use xlink:href="#DejaVuSans-56"/>
     <use xlink:href="#DejaVuSans-31" x="68.408203"/>
     <use xlink:href="#DejaVuSans-20" x="132.03125"/>
     <use xlink:href="#DejaVuSans-74" x="163.818359"/>
     <use xlink:href="#DejaVuSans-67" x="203.027344"/>
     <use xlink:href="#DejaVuSans-74" x="266.503906"/>
    </g>
   </g>
  </g>
  <g id="text_13">
   <!-- pnr579 -->
   <g transform="translate(158.469375 16.318125) scale(0.12 -0.12)">
    <defs>
     <path id="DejaVuSans-37" d="M 525 4666 
L 3525 4666 
L 3525 4397 
L 1831 0 
L 1172 0 
L 2766 4134 
L 525 4134 
L 525 4666 
z
" transform="scale(0.015625)"/>
    </defs>
    <use xlink:href="#DejaVuSans-70"/>
    <use xlink:href="#DejaVuSans-6e" x="63.476562"/>
    <use xlink:href="#DejaVuSans-72" x="126.855469"/>
    <use xlink:href="#DejaVuSans-35" x="167.96875"/>
    <use xlink:href="#DejaVuSans-37" x="231.591797"/>
    <use xlink:href="#DejaVuSans-39" x="295.214844"/>
   </g>
  </g>
 </g>
 <defs>
  <clipPath id="p76699f6303">
   <rect x="46.64" y="47.04" width="302.56" height="269.06776"/>
  </clipPath>
 </defs>
</svg>
