<?xml version="1.0" encoding="utf-8" standalone="no"?>
<!DOCTYPE svg PUBLIC "-//W3C//DTD SVG 1.1//EN"
  "http://www.w3.org/Graphics/SVG/1.1/DTD/svg11.dtd">
<svg xmlns:xlink="http://www.w3.org/1999/xlink" width="360pt" height="360pt" viewBox="0 0 360 360" xmlns="http://www.w3.org/2000/svg" version="1.1">
 <metadata>
  <rdf:RDF xmlns:dc="http://purl.org/dc/elements/1.1/" xmlns:cc="http://creativecommons.org/ns#" xmlns:rdf="http://www.w3.org/1999/02/22-rdf-syntax-ns#">
   <cc:Work>
    <dc:type rdf:resource="http://purl.org/dc/dcmitype/StillImage"/>
    <dc:date>2026-05-29T13:02:48.161509</dc:date>
    <dc:format>image/svg+xml</dc:format>
    <dc:creator>
     <cc:Agent>
      <dc:title>Matplotlib v3.8.0, https://matplotlib.org/</dc:title>
     </cc:Agent>
    </dc:creator>
   </cc:Work>
  </rdf:RDF>
 </metadata>
 <defs>
  <style type="text/css">*{stroke-linejoin: round; stroke-linecap: butt}</style>
 </defs>
 <g id="figure_1">
  <g id="patch_1">
   <path d="M 0 360 
L 360 360 
L 360 0 
L 0 0 
z
" style="fill: #ffffff"/>
  </g>
  <g id="axes_1">
   <g id="patch_2">
    <path d="M 44.66 316.10776 
L 349.2 316.10776 
L 349.2 47.04 
L 44.66 47.04 
z
" style="fill: #ffffff"/>
   </g>
   <g id="PolyCollection_1">
    <defs>
     <path id="mf059144619" d="M 88.098667 -74.400563 
L 87.191955 -74.400563 
L 86.984787 -76.020622 
L 86.703972 -77.640682 
L 86.332474 -79.260741 
L 85.852652 -80.880801 
L 85.247374 -82.50086 
L 84.501348 -84.12092 
L 83.60256 -85.740979 
L 82.543682 -87.361039 
L 81.323314 -88.981098 
L 79.946896 -90.601158 
L 78.427218 -92.221217 
L 76.784421 -93.841277 
L 75.045484 -95.461336 
L 73.243206 -97.081396 
L 71.414724 -98.701455 
L 69.599641 -100.321515 
L 67.837889 -101.941574 
L 66.16746 -103.561634 
L 64.622195 -105.181694 
L 63.229861 -106.801753 
L 62.010735 -108.421813 
L 60.976914 -110.041872 
L 60.132457 -111.661932 
L 59.474393 -113.281991 
L 58.994402 -114.902051 
L 58.680902 -116.52211 
L 58.521117 -118.14217 
L 58.502727 -119.762229 
L 58.614772 -121.382289 
L 58.847665 -123.002348 
L 59.192418 -124.622408 
L 59.639382 -126.242467 
L 60.176971 -127.862527 
L 60.790848 -129.482586 
L 61.463945 -131.102646 
L 62.177437 -132.722705 
L 62.912546 -134.342765 
L 63.652751 -135.962824 
L 64.385886 -137.582884 
L 65.105564 -139.202943 
L 65.811539 -140.823003 
L 66.508868 -142.443062 
L 67.206058 -144.063122 
L 67.912586 -145.683181 
L 68.636383 -147.303241 
L 69.381817 -148.9233 
L 70.148606 -150.54336 
L 70.931822 -152.163419 
L 71.722901 -153.783479 
L 72.511347 -155.403538 
L 73.286678 -157.023598 
L 74.040165 -158.643657 
L 74.765988 -160.263717 
L 75.461635 -161.883776 
L 76.127547 -163.503836 
L 76.76619 -165.123895 
L 77.38085 -166.743955 
L 77.974475 -168.364014 
L 78.548831 -169.984074 
L 79.104133 -171.604133 
L 79.639192 -173.224193 
L 80.151963 -174.844252 
L 80.640323 -176.464312 
L 81.102838 -178.084371 
L 81.539343 -179.704431 
L 81.951176 -181.32449 
L 82.341037 -182.94455 
L 82.71252 -184.564609 
L 83.069432 -186.184669 
L 83.415068 -187.804728 
L 83.751593 -189.424788 
L 84.07964 -191.044847 
L 84.398206 -192.664907 
L 84.704826 -194.284966 
L 84.995998 -195.905026 
L 85.267748 -197.525085 
L 85.516267 -199.145145 
L 85.7385 -200.765204 
L 85.932636 -202.385264 
L 86.098421 -204.005323 
L 86.237272 -205.625383 
L 86.352181 -207.245442 
L 86.447415 -208.865502 
L 86.528055 -210.485561 
L 86.59944 -212.105621 
L 86.66658 -213.72568 
L 86.73363 -215.34574 
L 86.803501 -216.965799 
L 86.87766 -218.585859 
L 86.956141 -220.205918 
L 87.037749 -221.825978 
L 87.120407 -223.446037 
L 87.201588 -225.066097 
L 87.278731 -226.686156 
L 87.349609 -228.306216 
L 87.41257 -229.926275 
L 87.466663 -231.546335 
L 87.511631 -233.166394 
L 87.547823 -234.786454 
L 87.742799 -234.786454 
L 87.742799 -234.786454 
L 87.778991 -233.166394 
L 87.823959 -231.546335 
L 87.878052 -229.926275 
L 87.941013 -228.306216 
L 88.011891 -226.686156 
L 88.089034 -225.066097 
L 88.170215 -223.446037 
L 88.252873 -221.825978 
L 88.334481 -220.205918 
L 88.412962 -218.585859 
L 88.487121 -216.965799 
L 88.556992 -215.34574 
L 88.624042 -213.72568 
L 88.691182 -212.105621 
L 88.762567 -210.485561 
L 88.843207 -208.865502 
L 88.938441 -207.245442 
L 89.05335 -205.625383 
L 89.192201 -204.005323 
L 89.357986 -202.385264 
L 89.552122 -200.765204 
L 89.774355 -199.145145 
L 90.022874 -197.525085 
L 90.294624 -195.905026 
L 90.585796 -194.284966 
L 90.892416 -192.664907 
L 91.210982 -191.044847 
L 91.539029 -189.424788 
L 91.875554 -187.804728 
L 92.22119 -186.184669 
L 92.578102 -184.564609 
L 92.949585 -182.94455 
L 93.339446 -181.32449 
L 93.751279 -179.704431 
L 94.187784 -178.084371 
L 94.650299 -176.464312 
L 95.138659 -174.844252 
L 95.65143 -173.224193 
L 96.186489 -171.604133 
L 96.741791 -169.984074 
L 97.316147 -168.364014 
L 97.909772 -166.743955 
L 98.524432 -165.123895 
L 99.163075 -163.503836 
L 99.828987 -161.883776 
L 100.524634 -160.263717 
L 101.250457 -158.643657 
L 102.003944 -157.023598 
L 102.779275 -155.403538 
L 103.567721 -153.783479 
L 104.3588 -152.163419 
L 105.142016 -150.54336 
L 105.908805 -148.9233 
L 106.654239 -147.303241 
L 107.378036 -145.683181 
L 108.084564 -144.063122 
L 108.781754 -142.443062 
L 109.479083 -140.823003 
L 110.185058 -139.202943 
L 110.904736 -137.582884 
L 111.637871 -135.962824 
L 112.378076 -134.342765 
L 113.113185 -132.722705 
L 113.826677 -131.102646 
L 114.499774 -129.482586 
L 115.113651 -127.862527 
L 115.65124 -126.242467 
L 116.098204 -124.622408 
L 116.442957 -123.002348 
L 116.67585 -121.382289 
L 116.787895 -119.762229 
L 116.769505 -118.14217 
L 116.60972 -116.52211 
L 116.29622 -114.902051 
L 115.816229 -113.281991 
L 115.158165 -111.661932 
L 114.313708 -110.041872 
L 113.279887 -108.421813 
L 112.060761 -106.801753 
L 110.668427 -105.181694 
L 109.123162 -103.561634 
L 107.452733 -101.941574 
L 105.690981 -100.321515 
L 103.875898 -98.701455 
L 102.047416 -97.081396 
L 100.245139 -95.461336 
L 98.506201 -93.841277 
L 96.863404 -92.221217 
L 95.343726 -90.601158 
L 93.967308 -88.981098 
L 92.74694 -87.361039 
L 91.688062 -85.740979 
L 90.789274 -84.12092 
L 90.043248 -82.50086 
L 89.43797 -80.880801 
L 88.958148 -79.260741 
L 88.58665 -77.640682 
L 88.305835 -76.020622 
L 88.098667 -74.400563 
z
" style="stroke: #3f3f3f; stroke-width: 1.25"/>
    </defs>
    <g clip-path="url(#pa2b7645bd8)">
     <use xlink:href="#mf059144619" x="0" y="360" style="fill: #b2b2b2; stroke: #3f3f3f; stroke-width: 1.25"/>
    </g>
   </g>
   <g id="PolyCollection_2">
    <defs>
     <path id="m89c9bd2879" d="M 160.703711 -69.945787 
L 160.299829 -69.945787 
L 160.211659 -71.758951 
L 160.09395 -73.572116 
L 159.940534 -75.38528 
L 159.745212 -77.198444 
L 159.502107 -79.011609 
L 159.206006 -80.824773 
L 158.852601 -82.637937 
L 158.438583 -84.451102 
L 157.961517 -86.264266 
L 157.419516 -88.07743 
L 156.810748 -89.890594 
L 156.132885 -91.703759 
L 155.382649 -93.516923 
L 154.555616 -95.330087 
L 153.646423 -97.143252 
L 152.649452 -98.956416 
L 151.559969 -100.76958 
L 150.37558 -102.582745 
L 149.097771 -104.395909 
L 147.733225 -106.209073 
L 146.29464 -108.022237 
L 144.800802 -109.835402 
L 143.275831 -111.648566 
L 141.747666 -113.46173 
L 140.246 -115.274895 
L 138.800035 -117.088059 
L 137.436433 -118.901223 
L 136.177833 -120.714388 
L 135.042162 -122.527552 
L 134.042812 -124.340716 
L 133.189544 -126.153881 
L 132.489817 -127.967045 
L 131.950155 -129.780209 
L 131.577158 -131.593373 
L 131.377843 -133.406538 
L 131.359187 -135.219702 
L 131.526916 -137.032866 
L 131.883787 -138.846031 
L 132.427693 -140.659195 
L 133.150009 -142.472359 
L 134.034518 -144.285524 
L 135.057157 -146.098688 
L 136.186696 -147.911852 
L 137.386308 -149.725017 
L 138.615869 -151.538181 
L 139.834769 -153.351345 
L 141.004923 -155.164509 
L 142.093706 -156.977674 
L 143.076491 -158.790838 
L 143.938519 -160.604002 
L 144.675854 -162.417167 
L 145.295277 -164.230331 
L 145.813066 -166.043495 
L 146.252759 -167.85666 
L 146.642145 -169.669824 
L 147.009874 -171.482988 
L 147.38211 -173.296152 
L 147.779707 -175.109317 
L 148.216256 -176.922481 
L 148.697238 -178.735645 
L 149.220306 -180.54881 
L 149.776565 -182.361974 
L 150.352556 -184.175138 
L 150.932578 -185.988303 
L 151.500994 -187.801467 
L 152.044205 -189.614631 
L 152.552082 -191.427796 
L 153.01877 -193.24096 
L 153.442844 -195.054124 
L 153.826921 -196.867288 
L 154.176842 -198.680453 
L 154.500581 -200.493617 
L 154.807047 -202.306781 
L 155.104909 -204.119946 
L 155.401589 -205.93311 
L 155.702513 -207.746274 
L 156.01069 -209.559439 
L 156.326644 -211.372603 
L 156.648671 -213.185767 
L 156.973358 -214.998932 
L 157.296255 -216.812096 
L 157.612586 -218.62526 
L 157.917881 -220.438424 
L 158.208442 -222.251589 
L 158.481594 -224.064753 
L 158.735717 -225.877917 
L 158.970113 -227.691082 
L 159.184758 -229.504246 
L 159.380031 -231.31741 
L 159.556485 -233.130575 
L 159.714687 -234.943739 
L 159.855169 -236.756903 
L 159.978444 -238.570067 
L 160.085087 -240.383232 
L 160.175817 -242.196396 
L 160.251569 -244.00956 
L 160.313519 -245.822725 
L 160.363065 -247.635889 
L 160.40177 -249.449053 
L 160.60177 -249.449053 
L 160.60177 -249.449053 
L 160.640476 -247.635889 
L 160.690022 -245.822725 
L 160.751972 -244.00956 
L 160.827724 -242.196396 
L 160.918454 -240.383232 
L 161.025096 -238.570067 
L 161.148372 -236.756903 
L 161.288853 -234.943739 
L 161.447056 -233.130575 
L 161.623509 -231.31741 
L 161.818783 -229.504246 
L 162.033428 -227.691082 
L 162.267823 -225.877917 
L 162.521947 -224.064753 
L 162.795098 -222.251589 
L 163.08566 -220.438424 
L 163.390955 -218.62526 
L 163.707286 -216.812096 
L 164.030183 -214.998932 
L 164.35487 -213.185767 
L 164.676897 -211.372603 
L 164.992851 -209.559439 
L 165.301028 -207.746274 
L 165.601951 -205.93311 
L 165.898632 -204.119946 
L 166.196494 -202.306781 
L 166.50296 -200.493617 
L 166.826699 -198.680453 
L 167.176619 -196.867288 
L 167.560697 -195.054124 
L 167.984771 -193.24096 
L 168.451459 -191.427796 
L 168.959336 -189.614631 
L 169.502546 -187.801467 
L 170.070962 -185.988303 
L 170.650985 -184.175138 
L 171.226976 -182.361974 
L 171.783235 -180.54881 
L 172.306303 -178.735645 
L 172.787284 -176.922481 
L 173.223834 -175.109317 
L 173.621431 -173.296152 
L 173.993667 -171.482988 
L 174.361396 -169.669824 
L 174.750782 -167.85666 
L 175.190474 -166.043495 
L 175.708264 -164.230331 
L 176.327687 -162.417167 
L 177.065022 -160.604002 
L 177.92705 -158.790838 
L 178.909835 -156.977674 
L 179.998618 -155.164509 
L 181.168772 -153.351345 
L 182.387671 -151.538181 
L 183.617233 -149.725017 
L 184.816844 -147.911852 
L 185.946383 -146.098688 
L 186.969022 -144.285524 
L 187.853531 -142.472359 
L 188.575848 -140.659195 
L 189.119753 -138.846031 
L 189.476624 -137.032866 
L 189.644354 -135.219702 
L 189.625698 -133.406538 
L 189.426383 -131.593373 
L 189.053386 -129.780209 
L 188.513724 -127.967045 
L 187.813997 -126.153881 
L 186.960729 -124.340716 
L 185.961379 -122.527552 
L 184.825708 -120.714388 
L 183.567107 -118.901223 
L 182.203506 -117.088059 
L 180.757541 -115.274895 
L 179.255875 -113.46173 
L 177.727709 -111.648566 
L 176.202739 -109.835402 
L 174.7089 -108.022237 
L 173.270315 -106.209073 
L 171.90577 -104.395909 
L 170.62796 -102.582745 
L 169.443572 -100.76958 
L 168.354088 -98.956416 
L 167.357117 -97.143252 
L 166.447924 -95.330087 
L 165.620891 -93.516923 
L 164.870656 -91.703759 
L 164.192793 -89.890594 
L 163.584025 -88.07743 
L 163.042024 -86.264266 
L 162.564958 -84.451102 
L 162.150939 -82.637937 
L 161.797535 -80.824773 
L 161.501433 -79.011609 
L 161.258329 -77.198444 
L 161.063006 -75.38528 
L 160.909591 -73.572116 
L 160.791882 -71.758951 
L 160.703711 -69.945787 
z
" style="stroke: #3f3f3f; stroke-width: 1.25"/>
    </defs>
    <g clip-path="url(#pa2b7645bd8)">
     <use xlink:href="#m89c9bd2879" x="0" y="360" style="fill: #891ab9; stroke: #3f3f3f; stroke-width: 1.25"/>
    </g>
   </g>
   <g id="PolyCollection_3">
    <defs>
     <path id="ma603f050dc" d="M 233.586362 -60.25841 
L 233.130098 -60.25841 
L 233.02886 -62.687412 
L 232.891996 -65.116415 
L 232.710876 -67.545417 
L 232.476154 -69.97442 
L 232.178126 -72.403422 
L 231.807191 -74.832424 
L 231.354378 -77.261427 
L 230.811895 -79.690429 
L 230.173651 -82.119432 
L 229.435695 -84.548434 
L 228.596536 -86.977436 
L 227.657306 -89.406439 
L 226.621772 -91.835441 
L 225.496194 -94.264444 
L 224.289068 -96.693446 
L 223.010802 -99.122448 
L 221.673342 -101.551451 
L 220.289818 -103.980453 
L 218.874213 -106.409456 
L 217.441106 -108.838458 
L 216.005472 -111.26746 
L 214.582571 -113.696463 
L 213.187913 -116.125465 
L 211.837282 -118.554468 
L 210.546779 -120.98347 
L 209.332847 -123.412472 
L 208.212183 -125.841475 
L 207.201481 -128.270477 
L 206.316942 -130.699479 
L 205.573544 -133.128482 
L 204.984121 -135.557484 
L 204.558358 -137.986487 
L 204.301887 -140.415489 
L 204.215646 -142.844491 
L 204.29566 -145.273494 
L 204.533328 -147.702496 
L 204.916174 -150.131499 
L 205.428949 -152.560501 
L 206.054865 -154.989503 
L 206.776736 -157.418506 
L 207.577814 -159.847508 
L 208.442223 -162.276511 
L 209.354971 -164.705513 
L 210.301658 -167.134515 
L 211.26807 -169.563518 
L 212.239875 -171.99252 
L 213.202598 -174.421523 
L 214.141972 -176.850525 
L 215.044677 -179.279527 
L 215.899312 -181.70853 
L 216.69745 -184.137532 
L 217.434497 -186.566535 
L 218.110198 -188.995537 
L 218.728605 -191.424539 
L 219.297509 -193.853542 
L 219.827382 -196.282544 
L 220.330006 -198.711547 
L 220.817011 -201.140549 
L 221.29855 -203.569551 
L 221.78231 -205.998554 
L 222.272975 -208.427556 
L 222.772175 -210.856559 
L 223.278849 -213.285561 
L 223.789903 -215.714563 
L 224.30099 -218.143566 
L 224.80727 -220.572568 
L 225.30402 -223.001571 
L 225.787055 -225.430573 
L 226.252944 -227.859575 
L 226.699071 -230.288578 
L 227.123619 -232.71758 
L 227.525514 -235.146583 
L 227.904396 -237.575585 
L 228.260599 -240.004587 
L 228.595144 -242.43359 
L 228.909707 -244.862592 
L 229.206529 -247.291595 
L 229.488255 -249.720597 
L 229.75772 -252.149599 
L 230.017683 -254.578602 
L 230.270569 -257.007604 
L 230.518245 -259.436607 
L 230.761857 -261.865609 
L 231.001757 -264.294611 
L 231.237507 -266.723614 
L 231.467966 -269.152616 
L 231.691437 -271.581619 
L 231.90585 -274.010621 
L 232.10897 -276.439623 
L 232.29861 -278.868626 
L 232.472832 -281.297628 
L 232.630106 -283.726631 
L 232.769447 -286.155633 
L 232.890475 -288.584635 
L 232.993437 -291.013638 
L 233.079156 -293.44264 
L 233.148944 -295.871642 
L 233.204471 -298.300645 
L 233.247624 -300.729647 
L 233.468835 -300.729647 
L 233.468835 -300.729647 
L 233.511988 -298.300645 
L 233.567515 -295.871642 
L 233.637303 -293.44264 
L 233.723023 -291.013638 
L 233.825984 -288.584635 
L 233.947013 -286.155633 
L 234.086353 -283.726631 
L 234.243628 -281.297628 
L 234.417849 -278.868626 
L 234.60749 -276.439623 
L 234.81061 -274.010621 
L 235.025022 -271.581619 
L 235.248493 -269.152616 
L 235.478952 -266.723614 
L 235.714702 -264.294611 
L 235.954602 -261.865609 
L 236.198214 -259.436607 
L 236.44589 -257.007604 
L 236.698777 -254.578602 
L 236.958739 -252.149599 
L 237.228204 -249.720597 
L 237.509931 -247.291595 
L 237.806752 -244.862592 
L 238.121315 -242.43359 
L 238.455861 -240.004587 
L 238.812063 -237.575585 
L 239.190945 -235.146583 
L 239.592841 -232.71758 
L 240.017388 -230.288578 
L 240.463516 -227.859575 
L 240.929404 -225.430573 
L 241.412439 -223.001571 
L 241.90919 -220.572568 
L 242.415469 -218.143566 
L 242.926556 -215.714563 
L 243.43761 -213.285561 
L 243.944285 -210.856559 
L 244.443485 -208.427556 
L 244.93415 -205.998554 
L 245.417909 -203.569551 
L 245.899448 -201.140549 
L 246.386453 -198.711547 
L 246.889077 -196.282544 
L 247.41895 -193.853542 
L 247.987854 -191.424539 
L 248.606262 -188.995537 
L 249.281962 -186.566535 
L 250.01901 -184.137532 
L 250.817147 -181.70853 
L 251.671783 -179.279527 
L 252.574487 -176.850525 
L 253.513862 -174.421523 
L 254.476584 -171.99252 
L 255.44839 -169.563518 
L 256.414802 -167.134515 
L 257.361488 -164.705513 
L 258.274236 -162.276511 
L 259.138646 -159.847508 
L 259.939724 -157.418506 
L 260.661594 -154.989503 
L 261.28751 -152.560501 
L 261.800285 -150.131499 
L 262.183131 -147.702496 
L 262.420799 -145.273494 
L 262.500813 -142.844491 
L 262.414572 -140.415489 
L 262.158101 -137.986487 
L 261.732338 -135.557484 
L 261.142915 -133.128482 
L 260.399518 -130.699479 
L 259.514979 -128.270477 
L 258.504276 -125.841475 
L 257.383612 -123.412472 
L 256.16968 -120.98347 
L 254.879178 -118.554468 
L 253.528546 -116.125465 
L 252.133889 -113.696463 
L 250.710988 -111.26746 
L 249.275353 -108.838458 
L 247.842246 -106.409456 
L 246.426642 -103.980453 
L 245.043117 -101.551451 
L 243.705657 -99.122448 
L 242.427391 -96.693446 
L 241.220266 -94.264444 
L 240.094687 -91.835441 
L 239.059153 -89.406439 
L 238.119924 -86.977436 
L 237.280765 -84.548434 
L 236.542809 -82.119432 
L 235.904564 -79.690429 
L 235.362081 -77.261427 
L 234.909268 -74.832424 
L 234.538333 -72.403422 
L 234.240305 -69.97442 
L 234.005583 -67.545417 
L 233.824464 -65.116415 
L 233.6876 -62.687412 
L 233.586362 -60.25841 
z
" style="stroke: #3f3f3f; stroke-width: 1.25"/>
    </defs>
    <g clip-path="url(#pa2b7645bd8)">
     <use xlink:href="#ma603f050dc" x="0" y="360" style="fill: #df9c20; stroke: #3f3f3f; stroke-width: 1.25"/>
    </g>
   </g>
   <g id="PolyCollection_4">
    <defs>
     <path id="m977174ba9a" d="M 306.415024 -56.122593 
L 306.014354 -56.122593 
L 305.92897 -57.477782 
L 305.815883 -58.832972 
L 305.669654 -60.188161 
L 305.484958 -61.54335 
L 305.256952 -62.898539 
L 304.98163 -64.253729 
L 304.656119 -65.608918 
L 304.278864 -66.964107 
L 303.849657 -68.319297 
L 303.369508 -69.674486 
L 302.840378 -71.029675 
L 302.264821 -72.384864 
L 301.645603 -73.740054 
L 300.985388 -75.095243 
L 300.28651 -76.450432 
L 299.550878 -77.805622 
L 298.779991 -79.160811 
L 297.974993 -80.516 
L 297.136739 -81.871189 
L 296.26578 -83.226379 
L 295.362291 -84.581568 
L 294.425923 -85.936757 
L 293.455682 -87.291947 
L 292.449907 -88.647136 
L 291.406464 -90.002325 
L 290.323218 -91.357514 
L 289.198823 -92.712704 
L 288.033793 -94.067893 
L 286.831751 -95.423082 
L 285.600709 -96.778272 
L 284.354159 -98.133461 
L 283.111773 -99.48865 
L 281.899485 -100.84384 
L 280.7488 -102.199029 
L 279.695253 -103.554218 
L 278.776043 -104.909407 
L 278.027044 -106.264597 
L 277.479504 -107.619786 
L 277.156855 -108.974975 
L 277.072105 -110.330165 
L 277.226243 -111.685354 
L 277.607931 -113.040543 
L 278.194598 -114.395732 
L 278.954769 -115.750922 
L 279.851288 -117.106111 
L 280.844933 -118.4613 
L 281.897873 -119.81649 
L 282.976502 -121.171679 
L 284.053316 -122.526868 
L 285.107731 -123.882057 
L 286.125931 -125.237247 
L 287.099991 -126.592436 
L 288.026619 -127.947625 
L 288.905827 -129.302815 
L 289.739802 -130.658004 
L 290.532091 -132.013193 
L 291.287108 -133.368382 
L 292.009876 -134.723572 
L 292.705851 -136.078761 
L 293.380692 -137.43395 
L 294.039878 -138.78914 
L 294.688173 -140.144329 
L 295.328994 -141.499518 
L 295.963809 -142.854708 
L 296.591715 -144.209897 
L 297.209319 -145.565086 
L 297.810987 -146.920275 
L 298.389466 -148.275465 
L 298.936787 -149.630654 
L 299.445309 -150.985843 
L 299.908752 -152.341033 
L 300.323036 -153.696222 
L 300.686828 -155.051411 
L 301.001728 -156.4066 
L 301.272086 -157.76179 
L 301.504533 -159.116979 
L 301.707297 -160.472168 
L 301.889435 -161.827358 
L 302.060077 -163.182547 
L 302.22775 -164.537736 
L 302.399844 -165.892925 
L 302.58222 -167.248115 
L 302.778966 -168.603304 
L 302.992263 -169.958493 
L 303.22238 -171.313683 
L 303.467752 -172.668872 
L 303.725179 -174.024061 
L 303.990112 -175.37925 
L 304.257047 -176.73444 
L 304.519989 -178.089629 
L 304.772954 -179.444818 
L 305.010465 -180.800008 
L 305.227974 -182.155197 
L 305.422172 -183.510386 
L 305.591151 -184.865575 
L 305.734411 -186.220765 
L 305.852724 -187.575954 
L 305.947892 -188.931143 
L 306.022441 -190.286333 
L 306.406937 -190.286333 
L 306.406937 -190.286333 
L 306.481486 -188.931143 
L 306.576654 -187.575954 
L 306.694967 -186.220765 
L 306.838227 -184.865575 
L 307.007206 -183.510386 
L 307.201404 -182.155197 
L 307.418913 -180.800008 
L 307.656424 -179.444818 
L 307.909389 -178.089629 
L 308.172331 -176.73444 
L 308.439266 -175.37925 
L 308.704199 -174.024061 
L 308.961626 -172.668872 
L 309.206998 -171.313683 
L 309.437115 -169.958493 
L 309.650412 -168.603304 
L 309.847158 -167.248115 
L 310.029534 -165.892925 
L 310.201628 -164.537736 
L 310.369301 -163.182547 
L 310.539943 -161.827358 
L 310.722081 -160.472168 
L 310.924845 -159.116979 
L 311.157292 -157.76179 
L 311.42765 -156.4066 
L 311.74255 -155.051411 
L 312.106342 -153.696222 
L 312.520626 -152.341033 
L 312.984069 -150.985843 
L 313.492591 -149.630654 
L 314.039912 -148.275465 
L 314.618391 -146.920275 
L 315.220059 -145.565086 
L 315.837663 -144.209897 
L 316.465569 -142.854708 
L 317.100384 -141.499518 
L 317.741205 -140.144329 
L 318.3895 -138.78914 
L 319.048686 -137.43395 
L 319.723527 -136.078761 
L 320.419502 -134.723572 
L 321.14227 -133.368382 
L 321.897287 -132.013193 
L 322.689576 -130.658004 
L 323.523551 -129.302815 
L 324.402759 -127.947625 
L 325.329387 -126.592436 
L 326.303447 -125.237247 
L 327.321647 -123.882057 
L 328.376062 -122.526868 
L 329.452876 -121.171679 
L 330.531505 -119.81649 
L 331.584445 -118.4613 
L 332.57809 -117.106111 
L 333.474609 -115.750922 
L 334.23478 -114.395732 
L 334.821447 -113.040543 
L 335.203135 -111.685354 
L 335.357273 -110.330165 
L 335.272523 -108.974975 
L 334.949874 -107.619786 
L 334.402334 -106.264597 
L 333.653335 -104.909407 
L 332.734125 -103.554218 
L 331.680578 -102.199029 
L 330.529893 -100.84384 
L 329.317605 -99.48865 
L 328.075218 -98.133461 
L 326.828669 -96.778272 
L 325.597627 -95.423082 
L 324.395585 -94.067893 
L 323.230555 -92.712704 
L 322.10616 -91.357514 
L 321.022913 -90.002325 
L 319.979471 -88.647136 
L 318.973696 -87.291947 
L 318.003455 -85.936757 
L 317.067087 -84.581568 
L 316.163598 -83.226379 
L 315.292639 -81.871189 
L 314.454385 -80.516 
L 313.649387 -79.160811 
L 312.8785 -77.805622 
L 312.142868 -76.450432 
L 311.44399 -75.095243 
L 310.783775 -73.740054 
L 310.164557 -72.384864 
L 309.589 -71.029675 
L 309.05987 -69.674486 
L 308.579721 -68.319297 
L 308.150514 -66.964107 
L 307.773259 -65.608918 
L 307.447748 -64.253729 
L 307.172426 -62.898539 
L 306.94442 -61.54335 
L 306.759724 -60.188161 
L 306.613495 -58.832972 
L 306.500408 -57.477782 
L 306.415024 -56.122593 
z
" style="stroke: #3f3f3f; stroke-width: 1.25"/>
    </defs>
    <g clip-path="url(#pa2b7645bd8)">
     <use xlink:href="#m977174ba9a" x="0" y="360" style="fill: #df2020; stroke: #3f3f3f; stroke-width: 1.25"/>
    </g>
   </g>
   <g id="matplotlib.axis_1">
    <g id="xtick_1">
     <g id="line2d_1">
      <defs>
       <path id="m57839e9157" d="M 0 0 
L 0 3.5 
" style="stroke: #000000; stroke-width: 0.8"/>
      </defs>
      <g>
       <use xlink:href="#m57839e9157" x="87.645311" y="316.10776" style="stroke: #000000; stroke-width: 0.8"/>
      </g>
     </g>
     <g id="text_1">
      <!-- sur -->
      <g transform="translate(75.103004 339.552412) rotate(-45) scale(0.1 -0.1)">
       <defs>
        <path id="DejaVuSans-73" d="M 2834 3397 
L 2834 2853 
Q 2591 2978 2328 3040 
Q 2066 3103 1784 3103 
Q 1356 3103 1142 2972 
Q 928 2841 928 2578 
Q 928 2378 1081 2264 
Q 1234 2150 1697 2047 
L 1894 2003 
Q 2506 1872 2764 1633 
Q 3022 1394 3022 966 
Q 3022 478 2636 193 
Q 2250 -91 1575 -91 
Q 1294 -91 989 -36 
Q 684 19 347 128 
L 347 722 
Q 666 556 975 473 
Q 1284 391 1588 391 
Q 1994 391 2212 530 
Q 2431 669 2431 922 
Q 2431 1156 2273 1281 
Q 2116 1406 1581 1522 
L 1381 1569 
Q 847 1681 609 1914 
Q 372 2147 372 2553 
Q 372 3047 722 3315 
Q 1072 3584 1716 3584 
Q 2034 3584 2315 3537 
Q 2597 3491 2834 3397 
z
" transform="scale(0.015625)"/>
        <path id="DejaVuSans-75" d="M 544 1381 
L 544 3500 
L 1119 3500 
L 1119 1403 
Q 1119 906 1312 657 
Q 1506 409 1894 409 
Q 2359 409 2629 706 
Q 2900 1003 2900 1516 
L 2900 3500 
L 3475 3500 
L 3475 0 
L 2900 0 
L 2900 538 
Q 2691 219 2414 64 
Q 2138 -91 1772 -91 
Q 1169 -91 856 284 
Q 544 659 544 1381 
z
M 1991 3584 
L 1991 3584 
z
" transform="scale(0.015625)"/>
        <path id="DejaVuSans-72" d="M 2631 2963 
Q 2534 3019 2420 3045 
Q 2306 3072 2169 3072 
Q 1681 3072 1420 2755 
Q 1159 2438 1159 1844 
L 1159 0 
L 581 0 
L 581 3500 
L 1159 3500 
L 1159 2956 
Q 1341 3275 1631 3429 
Q 1922 3584 2338 3584 
Q 2397 3584 2469 3576 
Q 2541 3569 2628 3553 
L 2631 2963 
z
" transform="scale(0.015625)"/>
       </defs>
       <use xlink:href="#DejaVuSans-73"/>
       <use xlink:href="#DejaVuSans-75" x="52.099609"/>
       <use xlink:href="#DejaVuSans-72" x="115.478516"/>
      </g>
     </g>
    </g>
    <g id="xtick_2">
     <g id="line2d_2">
      <g>
       <use xlink:href="#m57839e9157" x="160.50177" y="316.10776" style="stroke: #000000; stroke-width: 0.8"/>
      </g>
     </g>
     <g id="text_2">
      <!-- iso90 -->
      <g transform="translate(140.05865 347.453225) rotate(-45) scale(0.1 -0.1)">
       <defs>
        <path id="DejaVuSans-69" d="M 603 3500 
L 1178 3500 
L 1178 0 
L 603 0 
L 603 3500 
z
M 603 4863 
L 1178 4863 
L 1178 4134 
L 603 4134 
L 603 4863 
z
" transform="scale(0.015625)"/>
        <path id="DejaVuSans-6f" d="M 1959 3097 
Q 1497 3097 1228 2736 
Q 959 2375 959 1747 
Q 959 1119 1226 758 
Q 1494 397 1959 397 
Q 2419 397 2687 759 
Q 2956 1122 2956 1747 
Q 2956 2369 2687 2733 
Q 2419 3097 1959 3097 
z
M 1959 3584 
Q 2709 3584 3137 3096 
Q 3566 2609 3566 1747 
Q 3566 888 3137 398 
Q 2709 -91 1959 -91 
Q 1206 -91 779 398 
Q 353 888 353 1747 
Q 353 2609 779 3096 
Q 1206 3584 1959 3584 
z
" transform="scale(0.015625)"/>
        <path id="DejaVuSans-39" d="M 703 97 
L 703 672 
Q 941 559 1184 500 
Q 1428 441 1663 441 
Q 2288 441 2617 861 
Q 2947 1281 2994 2138 
Q 2813 1869 2534 1725 
Q 2256 1581 1919 1581 
Q 1219 1581 811 2004 
Q 403 2428 403 3163 
Q 403 3881 828 4315 
Q 1253 4750 1959 4750 
Q 2769 4750 3195 4129 
Q 3622 3509 3622 2328 
Q 3622 1225 3098 567 
Q 2575 -91 1691 -91 
Q 1453 -91 1209 -44 
Q 966 3 703 97 
z
M 1959 2075 
Q 2384 2075 2632 2365 
Q 2881 2656 2881 3163 
Q 2881 3666 2632 3958 
Q 2384 4250 1959 4250 
Q 1534 4250 1286 3958 
Q 1038 3666 1038 3163 
Q 1038 2656 1286 2365 
Q 1534 2075 1959 2075 
z
" transform="scale(0.015625)"/>
        <path id="DejaVuSans-30" d="M 2034 4250 
Q 1547 4250 1301 3770 
Q 1056 3291 1056 2328 
Q 1056 1369 1301 889 
Q 1547 409 2034 409 
Q 2525 409 2770 889 
Q 3016 1369 3016 2328 
Q 3016 3291 2770 3770 
Q 2525 4250 2034 4250 
z
M 2034 4750 
Q 2819 4750 3233 4129 
Q 3647 3509 3647 2328 
Q 3647 1150 3233 529 
Q 2819 -91 2034 -91 
Q 1250 -91 836 529 
Q 422 1150 422 2328 
Q 422 3509 836 4129 
Q 1250 4750 2034 4750 
z
" transform="scale(0.015625)"/>
       </defs>
       <use xlink:href="#DejaVuSans-69"/>
       <use xlink:href="#DejaVuSans-73" x="27.783203"/>
       <use xlink:href="#DejaVuSans-6f" x="79.882812"/>
       <use xlink:href="#DejaVuSans-39" x="141.064453"/>
       <use xlink:href="#DejaVuSans-30" x="204.6875"/>
      </g>
     </g>
    </g>
    <g id="xtick_3">
     <g id="line2d_3">
      <g>
       <use xlink:href="#m57839e9157" x="233.35823" y="316.10776" style="stroke: #000000; stroke-width: 0.8"/>
      </g>
     </g>
     <g id="text_3">
      <!-- orth -->
      <g transform="translate(217.400818 342.967517) rotate(-45) scale(0.1 -0.1)">
       <defs>
        <path id="DejaVuSans-74" d="M 1172 4494 
L 1172 3500 
L 2356 3500 
L 2356 3053 
L 1172 3053 
L 1172 1153 
Q 1172 725 1289 603 
Q 1406 481 1766 481 
L 2356 481 
L 2356 0 
L 1766 0 
Q 1100 0 847 248 
Q 594 497 594 1153 
L 594 3053 
L 172 3053 
L 172 3500 
L 594 3500 
L 594 4494 
L 1172 4494 
z
" transform="scale(0.015625)"/>
        <path id="DejaVuSans-68" d="M 3513 2113 
L 3513 0 
L 2938 0 
L 2938 2094 
Q 2938 2591 2744 2837 
Q 2550 3084 2163 3084 
Q 1697 3084 1428 2787 
Q 1159 2491 1159 1978 
L 1159 0 
L 581 0 
L 581 4863 
L 1159 4863 
L 1159 2956 
Q 1366 3272 1645 3428 
Q 1925 3584 2291 3584 
Q 2894 3584 3203 3211 
Q 3513 2838 3513 2113 
z
" transform="scale(0.015625)"/>
       </defs>
       <use xlink:href="#DejaVuSans-6f"/>
       <use xlink:href="#DejaVuSans-72" x="61.181641"/>
       <use xlink:href="#DejaVuSans-74" x="102.294922"/>
       <use xlink:href="#DejaVuSans-68" x="141.503906"/>
      </g>
     </g>
    </g>
    <g id="xtick_4">
     <g id="line2d_4">
      <g>
       <use xlink:href="#m57839e9157" x="306.214689" y="316.10776" style="stroke: #000000; stroke-width: 0.8"/>
      </g>
     </g>
     <g id="text_4">
      <!-- iso0 -->
      <g transform="translate(290.270536 342.954258) rotate(-45) scale(0.1 -0.1)">
       <use xlink:href="#DejaVuSans-69"/>
       <use xlink:href="#DejaVuSans-73" x="27.783203"/>
       <use xlink:href="#DejaVuSans-6f" x="79.882812"/>
       <use xlink:href="#DejaVuSans-30" x="141.064453"/>
      </g>
     </g>
    </g>
   </g>
   <g id="matplotlib.axis_2">
    <g id="ytick_1">
     <g id="line2d_5">
      <defs>
       <path id="m5dc800b3c1" d="M 0 0 
L -3.5 0 
" style="stroke: #000000; stroke-width: 0.8"/>
      </defs>
      <g>
       <use xlink:href="#m5dc800b3c1" x="44.66" y="287.955986" style="stroke: #000000; stroke-width: 0.8"/>
      </g>
     </g>
     <g id="text_5">
      <!-- 0 -->
      <g transform="translate(31.2975 291.755205) scale(0.1 -0.1)">
       <use xlink:href="#DejaVuSans-30"/>
      </g>
     </g>
    </g>
    <g id="ytick_2">
     <g id="line2d_6">
      <g>
       <use xlink:href="#m5dc800b3c1" x="44.66" y="243.317034" style="stroke: #000000; stroke-width: 0.8"/>
      </g>
     </g>
     <g id="text_6">
      <!-- 2 -->
      <g transform="translate(31.2975 247.116252) scale(0.1 -0.1)">
       <defs>
        <path id="DejaVuSans-32" d="M 1228 531 
L 3431 531 
L 3431 0 
L 469 0 
L 469 531 
Q 828 903 1448 1529 
Q 2069 2156 2228 2338 
Q 2531 2678 2651 2914 
Q 2772 3150 2772 3378 
Q 2772 3750 2511 3984 
Q 2250 4219 1831 4219 
Q 1534 4219 1204 4116 
Q 875 4013 500 3803 
L 500 4441 
Q 881 4594 1212 4672 
Q 1544 4750 1819 4750 
Q 2544 4750 2975 4387 
Q 3406 4025 3406 3419 
Q 3406 3131 3298 2873 
Q 3191 2616 2906 2266 
Q 2828 2175 2409 1742 
Q 1991 1309 1228 531 
z
" transform="scale(0.015625)"/>
       </defs>
       <use xlink:href="#DejaVuSans-32"/>
      </g>
     </g>
    </g>
    <g id="ytick_3">
     <g id="line2d_7">
      <g>
       <use xlink:href="#m5dc800b3c1" x="44.66" y="198.678081" style="stroke: #000000; stroke-width: 0.8"/>
      </g>
     </g>
     <g id="text_7">
      <!-- 4 -->
      <g transform="translate(31.2975 202.4773) scale(0.1 -0.1)">
       <defs>
        <path id="DejaVuSans-34" d="M 2419 4116 
L 825 1625 
L 2419 1625 
L 2419 4116 
z
M 2253 4666 
L 3047 4666 
L 3047 1625 
L 3713 1625 
L 3713 1100 
L 3047 1100 
L 3047 0 
L 2419 0 
L 2419 1100 
L 313 1100 
L 313 1709 
L 2253 4666 
z
" transform="scale(0.015625)"/>
       </defs>
       <use xlink:href="#DejaVuSans-34"/>
      </g>
     </g>
    </g>
    <g id="ytick_4">
     <g id="line2d_8">
      <g>
       <use xlink:href="#m5dc800b3c1" x="44.66" y="154.039128" style="stroke: #000000; stroke-width: 0.8"/>
      </g>
     </g>
     <g id="text_8">
      <!-- 6 -->
      <g transform="translate(31.2975 157.838347) scale(0.1 -0.1)">
       <defs>
        <path id="DejaVuSans-36" d="M 2113 2584 
Q 1688 2584 1439 2293 
Q 1191 2003 1191 1497 
Q 1191 994 1439 701 
Q 1688 409 2113 409 
Q 2538 409 2786 701 
Q 3034 994 3034 1497 
Q 3034 2003 2786 2293 
Q 2538 2584 2113 2584 
z
M 3366 4563 
L 3366 3988 
Q 3128 4100 2886 4159 
Q 2644 4219 2406 4219 
Q 1781 4219 1451 3797 
Q 1122 3375 1075 2522 
Q 1259 2794 1537 2939 
Q 1816 3084 2150 3084 
Q 2853 3084 3261 2657 
Q 3669 2231 3669 1497 
Q 3669 778 3244 343 
Q 2819 -91 2113 -91 
Q 1303 -91 875 529 
Q 447 1150 447 2328 
Q 447 3434 972 4092 
Q 1497 4750 2381 4750 
Q 2619 4750 2861 4703 
Q 3103 4656 3366 4563 
z
" transform="scale(0.015625)"/>
       </defs>
       <use xlink:href="#DejaVuSans-36"/>
      </g>
     </g>
    </g>
    <g id="ytick_5">
     <g id="line2d_9">
      <g>
       <use xlink:href="#m5dc800b3c1" x="44.66" y="109.400176" style="stroke: #000000; stroke-width: 0.8"/>
      </g>
     </g>
     <g id="text_9">
      <!-- 8 -->
      <g transform="translate(31.2975 113.199394) scale(0.1 -0.1)">
       <defs>
        <path id="DejaVuSans-38" d="M 2034 2216 
Q 1584 2216 1326 1975 
Q 1069 1734 1069 1313 
Q 1069 891 1326 650 
Q 1584 409 2034 409 
Q 2484 409 2743 651 
Q 3003 894 3003 1313 
Q 3003 1734 2745 1975 
Q 2488 2216 2034 2216 
z
M 1403 2484 
Q 997 2584 770 2862 
Q 544 3141 544 3541 
Q 544 4100 942 4425 
Q 1341 4750 2034 4750 
Q 2731 4750 3128 4425 
Q 3525 4100 3525 3541 
Q 3525 3141 3298 2862 
Q 3072 2584 2669 2484 
Q 3125 2378 3379 2068 
Q 3634 1759 3634 1313 
Q 3634 634 3220 271 
Q 2806 -91 2034 -91 
Q 1263 -91 848 271 
Q 434 634 434 1313 
Q 434 1759 690 2068 
Q 947 2378 1403 2484 
z
M 1172 3481 
Q 1172 3119 1398 2916 
Q 1625 2713 2034 2713 
Q 2441 2713 2670 2916 
Q 2900 3119 2900 3481 
Q 2900 3844 2670 4047 
Q 2441 4250 2034 4250 
Q 1625 4250 1398 4047 
Q 1172 3844 1172 3481 
z
" transform="scale(0.015625)"/>
       </defs>
       <use xlink:href="#DejaVuSans-38"/>
      </g>
     </g>
    </g>
    <g id="ytick_6">
     <g id="line2d_10">
      <g>
       <use xlink:href="#m5dc800b3c1" x="44.66" y="64.761223" style="stroke: #000000; stroke-width: 0.8"/>
      </g>
     </g>
     <g id="text_10">
      <!-- 10 -->
      <g transform="translate(24.935 68.560442) scale(0.1 -0.1)">
       <defs>
        <path id="DejaVuSans-31" d="M 794 531 
L 1825 531 
L 1825 4091 
L 703 3866 
L 703 4441 
L 1819 4666 
L 2450 4666 
L 2450 531 
L 3481 531 
L 3481 0 
L 794 0 
L 794 531 
z
" transform="scale(0.015625)"/>
       </defs>
       <use xlink:href="#DejaVuSans-31"/>
       <use xlink:href="#DejaVuSans-30" x="63.623047"/>
      </g>
     </g>
    </g>
    <g id="text_11">
     <!-- Average BOLD Response -->
     <g transform="translate(18.855312 243.213724) rotate(-90) scale(0.1 -0.1)">
      <defs>
       <path id="DejaVuSans-41" d="M 2188 4044 
L 1331 1722 
L 3047 1722 
L 2188 4044 
z
M 1831 4666 
L 2547 4666 
L 4325 0 
L 3669 0 
L 3244 1197 
L 1141 1197 
L 716 0 
L 50 0 
L 1831 4666 
z
" transform="scale(0.015625)"/>
       <path id="DejaVuSans-76" d="M 191 3500 
L 800 3500 
L 1894 563 
L 2988 3500 
L 3597 3500 
L 2284 0 
L 1503 0 
L 191 3500 
z
" transform="scale(0.015625)"/>
       <path id="DejaVuSans-65" d="M 3597 1894 
L 3597 1613 
L 953 1613 
Q 991 1019 1311 708 
Q 1631 397 2203 397 
Q 2534 397 2845 478 
Q 3156 559 3463 722 
L 3463 178 
Q 3153 47 2828 -22 
Q 2503 -91 2169 -91 
Q 1331 -91 842 396 
Q 353 884 353 1716 
Q 353 2575 817 3079 
Q 1281 3584 2069 3584 
Q 2775 3584 3186 3129 
Q 3597 2675 3597 1894 
z
M 3022 2063 
Q 3016 2534 2758 2815 
Q 2500 3097 2075 3097 
Q 1594 3097 1305 2825 
Q 1016 2553 972 2059 
L 3022 2063 
z
" transform="scale(0.015625)"/>
       <path id="DejaVuSans-61" d="M 2194 1759 
Q 1497 1759 1228 1600 
Q 959 1441 959 1056 
Q 959 750 1161 570 
Q 1363 391 1709 391 
Q 2188 391 2477 730 
Q 2766 1069 2766 1631 
L 2766 1759 
L 2194 1759 
z
M 3341 1997 
L 3341 0 
L 2766 0 
L 2766 531 
Q 2569 213 2275 61 
Q 1981 -91 1556 -91 
Q 1019 -91 701 211 
Q 384 513 384 1019 
Q 384 1609 779 1909 
Q 1175 2209 1959 2209 
L 2766 2209 
L 2766 2266 
Q 2766 2663 2505 2880 
Q 2244 3097 1772 3097 
Q 1472 3097 1187 3025 
Q 903 2953 641 2809 
L 641 3341 
Q 956 3463 1253 3523 
Q 1550 3584 1831 3584 
Q 2591 3584 2966 3190 
Q 3341 2797 3341 1997 
z
" transform="scale(0.015625)"/>
       <path id="DejaVuSans-67" d="M 2906 1791 
Q 2906 2416 2648 2759 
Q 2391 3103 1925 3103 
Q 1463 3103 1205 2759 
Q 947 2416 947 1791 
Q 947 1169 1205 825 
Q 1463 481 1925 481 
Q 2391 481 2648 825 
Q 2906 1169 2906 1791 
z
M 3481 434 
Q 3481 -459 3084 -895 
Q 2688 -1331 1869 -1331 
Q 1566 -1331 1297 -1286 
Q 1028 -1241 775 -1147 
L 775 -588 
Q 1028 -725 1275 -790 
Q 1522 -856 1778 -856 
Q 2344 -856 2625 -561 
Q 2906 -266 2906 331 
L 2906 616 
Q 2728 306 2450 153 
Q 2172 0 1784 0 
Q 1141 0 747 490 
Q 353 981 353 1791 
Q 353 2603 747 3093 
Q 1141 3584 1784 3584 
Q 2172 3584 2450 3431 
Q 2728 3278 2906 2969 
L 2906 3500 
L 3481 3500 
L 3481 434 
z
" transform="scale(0.015625)"/>
       <path id="DejaVuSans-20" transform="scale(0.015625)"/>
       <path id="DejaVuSans-42" d="M 1259 2228 
L 1259 519 
L 2272 519 
Q 2781 519 3026 730 
Q 3272 941 3272 1375 
Q 3272 1813 3026 2020 
Q 2781 2228 2272 2228 
L 1259 2228 
z
M 1259 4147 
L 1259 2741 
L 2194 2741 
Q 2656 2741 2882 2914 
Q 3109 3088 3109 3444 
Q 3109 3797 2882 3972 
Q 2656 4147 2194 4147 
L 1259 4147 
z
M 628 4666 
L 2241 4666 
Q 2963 4666 3353 4366 
Q 3744 4066 3744 3513 
Q 3744 3084 3544 2831 
Q 3344 2578 2956 2516 
Q 3422 2416 3680 2098 
Q 3938 1781 3938 1306 
Q 3938 681 3513 340 
Q 3088 0 2303 0 
L 628 0 
L 628 4666 
z
" transform="scale(0.015625)"/>
       <path id="DejaVuSans-4f" d="M 2522 4238 
Q 1834 4238 1429 3725 
Q 1025 3213 1025 2328 
Q 1025 1447 1429 934 
Q 1834 422 2522 422 
Q 3209 422 3611 934 
Q 4013 1447 4013 2328 
Q 4013 3213 3611 3725 
Q 3209 4238 2522 4238 
z
M 2522 4750 
Q 3503 4750 4090 4092 
Q 4678 3434 4678 2328 
Q 4678 1225 4090 567 
Q 3503 -91 2522 -91 
Q 1538 -91 948 565 
Q 359 1222 359 2328 
Q 359 3434 948 4092 
Q 1538 4750 2522 4750 
z
" transform="scale(0.015625)"/>
       <path id="DejaVuSans-4c" d="M 628 4666 
L 1259 4666 
L 1259 531 
L 3531 531 
L 3531 0 
L 628 0 
L 628 4666 
z
" transform="scale(0.015625)"/>
       <path id="DejaVuSans-44" d="M 1259 4147 
L 1259 519 
L 2022 519 
Q 2988 519 3436 956 
Q 3884 1394 3884 2338 
Q 3884 3275 3436 3711 
Q 2988 4147 2022 4147 
L 1259 4147 
z
M 628 4666 
L 1925 4666 
Q 3281 4666 3915 4102 
Q 4550 3538 4550 2338 
Q 4550 1131 3912 565 
Q 3275 0 1925 0 
L 628 0 
L 628 4666 
z
" transform="scale(0.015625)"/>
       <path id="DejaVuSans-52" d="M 2841 2188 
Q 3044 2119 3236 1894 
Q 3428 1669 3622 1275 
L 4263 0 
L 3584 0 
L 2988 1197 
Q 2756 1666 2539 1819 
Q 2322 1972 1947 1972 
L 1259 1972 
L 1259 0 
L 628 0 
L 628 4666 
L 2053 4666 
Q 2853 4666 3247 4331 
Q 3641 3997 3641 3322 
Q 3641 2881 3436 2590 
Q 3231 2300 2841 2188 
z
M 1259 4147 
L 1259 2491 
L 2053 2491 
Q 2509 2491 2742 2702 
Q 2975 2913 2975 3322 
Q 2975 3731 2742 3939 
Q 2509 4147 2053 4147 
L 1259 4147 
z
" transform="scale(0.015625)"/>
       <path id="DejaVuSans-70" d="M 1159 525 
L 1159 -1331 
L 581 -1331 
L 581 3500 
L 1159 3500 
L 1159 2969 
Q 1341 3281 1617 3432 
Q 1894 3584 2278 3584 
Q 2916 3584 3314 3078 
Q 3713 2572 3713 1747 
Q 3713 922 3314 415 
Q 2916 -91 2278 -91 
Q 1894 -91 1617 61 
Q 1341 213 1159 525 
z
M 3116 1747 
Q 3116 2381 2855 2742 
Q 2594 3103 2138 3103 
Q 1681 3103 1420 2742 
Q 1159 2381 1159 1747 
Q 1159 1113 1420 752 
Q 1681 391 2138 391 
Q 2594 391 2855 752 
Q 3116 1113 3116 1747 
z
" transform="scale(0.015625)"/>
       <path id="DejaVuSans-6e" d="M 3513 2113 
L 3513 0 
L 2938 0 
L 2938 2094 
Q 2938 2591 2744 2837 
Q 2550 3084 2163 3084 
Q 1697 3084 1428 2787 
Q 1159 2491 1159 1978 
L 1159 0 
L 581 0 
L 581 3500 
L 1159 3500 
L 1159 2956 
Q 1366 3272 1645 3428 
Q 1925 3584 2291 3584 
Q 2894 3584 3203 3211 
Q 3513 2838 3513 2113 
z
" transform="scale(0.015625)"/>
      </defs>
      <use xlink:href="#DejaVuSans-41"/>
      <use xlink:href="#DejaVuSans-76" x="62.533203"/>
      <use xlink:href="#DejaVuSans-65" x="121.712891"/>
      <use xlink:href="#DejaVuSans-72" x="183.236328"/>
      <use xlink:href="#DejaVuSans-61" x="224.349609"/>
      <use xlink:href="#DejaVuSans-67" x="285.628906"/>
      <use xlink:href="#DejaVuSans-65" x="349.105469"/>
      <use xlink:href="#DejaVuSans-20" x="410.628906"/>
      <use xlink:href="#DejaVuSans-42" x="442.416016"/>
      <use xlink:href="#DejaVuSans-4f" x="509.269531"/>
      <use xlink:href="#DejaVuSans-4c" x="587.980469"/>
      <use xlink:href="#DejaVuSans-44" x="643.693359"/>
      <use xlink:href="#DejaVuSans-20" x="720.695312"/>
      <use xlink:href="#DejaVuSans-52" x="752.482422"/>
      <use xlink:href="#DejaVuSans-65" x="817.464844"/>
      <use xlink:href="#DejaVuSans-73" x="878.988281"/>
      <use xlink:href="#DejaVuSans-70" x="931.087891"/>
      <use xlink:href="#DejaVuSans-6f" x="994.564453"/>
      <use xlink:href="#DejaVuSans-6e" x="1055.746094"/>
      <use xlink:href="#DejaVuSans-73" x="1119.125"/>
      <use xlink:href="#DejaVuSans-65" x="1171.224609"/>
     </g>
    </g>
   </g>
   <g id="line2d_11">
    <path d="M 73.074019 227.549698 
L 102.216603 227.549698 
" clip-path="url(#pa2b7645bd8)" style="fill: none; stroke: #b2b2b2; stroke-width: 2; stroke-linecap: square"/>
   </g>
   <g id="line2d_12">
    <path d="M 145.930478 214.65015 
L 175.073062 214.65015 
" clip-path="url(#pa2b7645bd8)" style="fill: none; stroke: #9400d3; stroke-width: 2; stroke-linecap: square"/>
   </g>
   <g id="line2d_13">
    <path d="M 218.786938 201.012952 
L 247.929522 201.012952 
" clip-path="url(#pa2b7645bd8)" style="fill: none; stroke: #ffa500; stroke-width: 2; stroke-linecap: square"/>
   </g>
   <g id="line2d_14">
    <path d="M 291.643397 244.401386 
L 320.785981 244.401386 
" clip-path="url(#pa2b7645bd8)" style="fill: none; stroke: #ff0000; stroke-width: 2; stroke-linecap: square"/>
   </g>
   <g id="patch_3">
    <path d="M 44.66 316.10776 
L 44.66 47.04 
" style="fill: none; stroke: #000000; stroke-width: 0.8; stroke-linejoin: miter; stroke-linecap: square"/>
   </g>
   <g id="patch_4">
    <path d="M 349.2 316.10776 
L 349.2 47.04 
" style="fill: none; stroke: #000000; stroke-width: 0.8; stroke-linejoin: miter; stroke-linecap: square"/>
   </g>
   <g id="patch_5">
    <path d="M 44.66 316.10776 
L 349.2 316.10776 
" style="fill: none; stroke: #000000; stroke-width: 0.8; stroke-linejoin: miter; stroke-linecap: square"/>
   </g>
   <g id="patch_6">
    <path d="M 44.66 47.04 
L 349.2 47.04 
" style="fill: none; stroke: #000000; stroke-width: 0.8; stroke-linejoin: miter; stroke-linecap: square"/>
   </g>
   <g id="PathCollection_1">
    <defs>
     <path id="m65680db4ad" d="M 0 2.5 
C 0.663008 2.5 1.29895 2.236584 1.767767 1.767767 
C 2.236584 1.29895 2.5 0.663008 2.5 0 
C 2.5 -0.663008 2.236584 -1.29895 1.767767 -1.767767 
C 1.29895 -2.236584 0.663008 -2.5 0 -2.5 
C -0.663008 -2.5 -1.29895 -2.236584 -1.767767 -1.767767 
C -2.236584 -1.29895 -2.5 -0.663008 -2.5 0 
C -2.5 0.663008 -2.236584 1.29895 -1.767767 1.767767 
C -1.29895 2.236584 -0.663008 2.5 0 2.5 
z
"/>
    </defs>
    <g clip-path="url(#pa2b7645bd8)">
     <use xlink:href="#m65680db4ad" x="98.579744" y="256.115229" style="fill-opacity: 0.7"/>
     <use xlink:href="#m65680db4ad" x="84.751666" y="254.378752" style="fill-opacity: 0.7"/>
     <use xlink:href="#m65680db4ad" x="94.107947" y="258.734803" style="fill-opacity: 0.7"/>
     <use xlink:href="#m65680db4ad" x="66.048045" y="245.846231" style="fill-opacity: 0.7"/>
     <use xlink:href="#m65680db4ad" x="70.77799" y="240.145136" style="fill-opacity: 0.7"/>
     <use xlink:href="#m65680db4ad" x="97.408091" y="235.57312" style="fill-opacity: 0.7"/>
     <use xlink:href="#m65680db4ad" x="87.645311" y="233.909721" style="fill-opacity: 0.7"/>
     <use xlink:href="#m65680db4ad" x="69.723129" y="215.161772" style="fill-opacity: 0.7"/>
     <use xlink:href="#m65680db4ad" x="84.505663" y="219.550776" style="fill-opacity: 0.7"/>
     <use xlink:href="#m65680db4ad" x="72.897612" y="255.611343" style="fill-opacity: 0.7"/>
     <use xlink:href="#m65680db4ad" x="76.098215" y="248.72859" style="fill-opacity: 0.7"/>
     <use xlink:href="#m65680db4ad" x="90.07538" y="212.258839" style="fill-opacity: 0.7"/>
     <use xlink:href="#m65680db4ad" x="82.612398" y="187.798758" style="fill-opacity: 0.7"/>
     <use xlink:href="#m65680db4ad" x="89.354826" y="217.63459" style="fill-opacity: 0.7"/>
     <use xlink:href="#m65680db4ad" x="94.762052" y="195.218068" style="fill-opacity: 0.7"/>
     <use xlink:href="#m65680db4ad" x="82.885631" y="172.452649" style="fill-opacity: 0.7"/>
     <use xlink:href="#m65680db4ad" x="87.645311" y="228.843519" style="fill-opacity: 0.7"/>
     <use xlink:href="#m65680db4ad" x="101.357509" y="226.441657" style="fill-opacity: 0.7"/>
     <use xlink:href="#m65680db4ad" x="80.307951" y="251.716187" style="fill-opacity: 0.7"/>
     <use xlink:href="#m65680db4ad" x="82.424352" y="259.169785" style="fill-opacity: 0.7"/>
     <use xlink:href="#m65680db4ad" x="94.454983" y="253.021992" style="fill-opacity: 0.7"/>
     <use xlink:href="#m65680db4ad" x="92.298842" y="263.428567" style="fill-opacity: 0.7"/>
     <use xlink:href="#m65680db4ad" x="113.462012" y="251.298914" style="fill-opacity: 0.7"/>
     <use xlink:href="#m65680db4ad" x="58.502727" y="231.149895" style="fill-opacity: 0.7"/>
     <use xlink:href="#m65680db4ad" x="100.437272" y="216.728136" style="fill-opacity: 0.7"/>
     <use xlink:href="#m65680db4ad" x="82.590169" y="264.393718" style="fill-opacity: 0.7"/>
     <use xlink:href="#m65680db4ad" x="58.502727" y="231.973389" style="fill-opacity: 0.7"/>
     <use xlink:href="#m65680db4ad" x="62.425759" y="233.345618" style="fill-opacity: 0.7"/>
     <use xlink:href="#m65680db4ad" x="82.755146" y="198.83926" style="fill-opacity: 0.7"/>
     <use xlink:href="#m65680db4ad" x="106.956693" y="210.434867" style="fill-opacity: 0.7"/>
     <use xlink:href="#m65680db4ad" x="98.156711" y="249.476409" style="fill-opacity: 0.7"/>
     <use xlink:href="#m65680db4ad" x="67.661622" y="233.712298" style="fill-opacity: 0.7"/>
     <use xlink:href="#m65680db4ad" x="95.25128" y="217.506521" style="fill-opacity: 0.7"/>
     <use xlink:href="#m65680db4ad" x="97.906132" y="242.280695" style="fill-opacity: 0.7"/>
     <use xlink:href="#m65680db4ad" x="102.528321" y="234.468301" style="fill-opacity: 0.7"/>
     <use xlink:href="#m65680db4ad" x="87.645311" y="249.569158" style="fill-opacity: 0.7"/>
     <use xlink:href="#m65680db4ad" x="77.680968" y="236.539338" style="fill-opacity: 0.7"/>
     <use xlink:href="#m65680db4ad" x="112.853458" y="232.662294" style="fill-opacity: 0.7"/>
     <use xlink:href="#m65680db4ad" x="107.956059" y="245.885721" style="fill-opacity: 0.7"/>
     <use xlink:href="#m65680db4ad" x="107.710171" y="233.665283" style="fill-opacity: 0.7"/>
     <use xlink:href="#m65680db4ad" x="82.899126" y="226.70623" style="fill-opacity: 0.7"/>
     <use xlink:href="#m65680db4ad" x="103.072647" y="247.72132" style="fill-opacity: 0.7"/>
     <use xlink:href="#m65680db4ad" x="100.512241" y="211.390294" style="fill-opacity: 0.7"/>
     <use xlink:href="#m65680db4ad" x="80.849569" y="242.704964" style="fill-opacity: 0.7"/>
     <use xlink:href="#m65680db4ad" x="60.828527" y="245.308219" style="fill-opacity: 0.7"/>
     <use xlink:href="#m65680db4ad" x="92.747947" y="232.733383" style="fill-opacity: 0.7"/>
     <use xlink:href="#m65680db4ad" x="108.373584" y="252.529813" style="fill-opacity: 0.7"/>
     <use xlink:href="#m65680db4ad" x="72.816927" y="234.657667" style="fill-opacity: 0.7"/>
     <use xlink:href="#m65680db4ad" x="106.505446" y="225.460549" style="fill-opacity: 0.7"/>
     <use xlink:href="#m65680db4ad" x="87.645311" y="239.036113" style="fill-opacity: 0.7"/>
     <use xlink:href="#m65680db4ad" x="79.798837" y="217.335944" style="fill-opacity: 0.7"/>
     <use xlink:href="#m65680db4ad" x="116.787895" y="231.248319" style="fill-opacity: 0.7"/>
     <use xlink:href="#m65680db4ad" x="110.586938" y="214.219687" style="fill-opacity: 0.7"/>
     <use xlink:href="#m65680db4ad" x="77.669796" y="262.649943" style="fill-opacity: 0.7"/>
     <use xlink:href="#m65680db4ad" x="87.645311" y="259.694968" style="fill-opacity: 0.7"/>
     <use xlink:href="#m65680db4ad" x="73.376042" y="210.613192" style="fill-opacity: 0.7"/>
     <use xlink:href="#m65680db4ad" x="82.920395" y="236.856498" style="fill-opacity: 0.7"/>
     <use xlink:href="#m65680db4ad" x="92.719628" y="205.064357" style="fill-opacity: 0.7"/>
     <use xlink:href="#m65680db4ad" x="71.115045" y="247.154849" style="fill-opacity: 0.7"/>
     <use xlink:href="#m65680db4ad" x="63.555535" y="251.59677" style="fill-opacity: 0.7"/>
     <use xlink:href="#m65680db4ad" x="92.581099" y="227.139715" style="fill-opacity: 0.7"/>
     <use xlink:href="#m65680db4ad" x="87.645311" y="174.562544" style="fill-opacity: 0.7"/>
     <use xlink:href="#m65680db4ad" x="97.48943" y="262.678479" style="fill-opacity: 0.7"/>
     <use xlink:href="#m65680db4ad" x="103.405398" y="254.14595" style="fill-opacity: 0.7"/>
     <use xlink:href="#m65680db4ad" x="74.968231" y="215.377709" style="fill-opacity: 0.7"/>
     <use xlink:href="#m65680db4ad" x="92.704737" y="242.95949" style="fill-opacity: 0.7"/>
     <use xlink:href="#m65680db4ad" x="92.559841" y="221.799494" style="fill-opacity: 0.7"/>
     <use xlink:href="#m65680db4ad" x="103.120808" y="241.701655" style="fill-opacity: 0.7"/>
     <use xlink:href="#m65680db4ad" x="81.018036" y="211.573903" style="fill-opacity: 0.7"/>
     <use xlink:href="#m65680db4ad" x="105.443662" y="215.222724" style="fill-opacity: 0.7"/>
     <use xlink:href="#m65680db4ad" x="77.566654" y="204.172606" style="fill-opacity: 0.7"/>
     <use xlink:href="#m65680db4ad" x="98.620097" y="230.708183" style="fill-opacity: 0.7"/>
     <use xlink:href="#m65680db4ad" x="85.338421" y="214.414614" style="fill-opacity: 0.7"/>
     <use xlink:href="#m65680db4ad" x="87.645311" y="200.65848" style="fill-opacity: 0.7"/>
     <use xlink:href="#m65680db4ad" x="87.645311" y="244.294424" style="fill-opacity: 0.7"/>
     <use xlink:href="#m65680db4ad" x="113.205377" y="245.805113" style="fill-opacity: 0.7"/>
     <use xlink:href="#m65680db4ad" x="82.980886" y="247.274407" style="fill-opacity: 0.7"/>
     <use xlink:href="#m65680db4ad" x="116.787895" y="245.16985" style="fill-opacity: 0.7"/>
     <use xlink:href="#m65680db4ad" x="82.579071" y="181.241714" style="fill-opacity: 0.7"/>
     <use xlink:href="#m65680db4ad" x="92.164512" y="172.017829" style="fill-opacity: 0.7"/>
     <use xlink:href="#m65680db4ad" x="95.263337" y="211.492422" style="fill-opacity: 0.7"/>
     <use xlink:href="#m65680db4ad" x="78.090321" y="256.347992" style="fill-opacity: 0.7"/>
     <use xlink:href="#m65680db4ad" x="87.645311" y="206.347001" style="fill-opacity: 0.7"/>
     <use xlink:href="#m65680db4ad" x="89.931426" y="255.193905" style="fill-opacity: 0.7"/>
     <use xlink:href="#m65680db4ad" x="87.645311" y="189.221694" style="fill-opacity: 0.7"/>
     <use xlink:href="#m65680db4ad" x="92.82909" y="199.866834" style="fill-opacity: 0.7"/>
     <use xlink:href="#m65680db4ad" x="68.695821" y="252.613619" style="fill-opacity: 0.7"/>
     <use xlink:href="#m65680db4ad" x="92.636336" y="248.01816" style="fill-opacity: 0.7"/>
     <use xlink:href="#m65680db4ad" x="84.451612" y="193.597921" style="fill-opacity: 0.7"/>
     <use xlink:href="#m65680db4ad" x="80.753728" y="232.302159" style="fill-opacity: 0.7"/>
     <use xlink:href="#m65680db4ad" x="98.351883" y="191.569614" style="fill-opacity: 0.7"/>
     <use xlink:href="#m65680db4ad" x="87.645311" y="161.876634" style="fill-opacity: 0.7"/>
     <use xlink:href="#m65680db4ad" x="82.400562" y="206.123439" style="fill-opacity: 0.7"/>
     <use xlink:href="#m65680db4ad" x="92.755347" y="237.889281" style="fill-opacity: 0.7"/>
     <use xlink:href="#m65680db4ad" x="72.584862" y="225.602614" style="fill-opacity: 0.7"/>
     <use xlink:href="#m65680db4ad" x="79.353939" y="192.402229" style="fill-opacity: 0.7"/>
     <use xlink:href="#m65680db4ad" x="87.645311" y="182.552997" style="fill-opacity: 0.7"/>
     <use xlink:href="#m65680db4ad" x="77.819883" y="225.980048" style="fill-opacity: 0.7"/>
     <use xlink:href="#m65680db4ad" x="89.131934" y="195.863125" style="fill-opacity: 0.7"/>
     <use xlink:href="#m65680db4ad" x="87.645311" y="223.558151" style="fill-opacity: 0.7"/>
     <use xlink:href="#m65680db4ad" x="87.645311" y="265.743293" style="fill-opacity: 0.7"/>
     <use xlink:href="#m65680db4ad" x="75.968625" y="230.658881" style="fill-opacity: 0.7"/>
     <use xlink:href="#m65680db4ad" x="75.651269" y="242.005" style="fill-opacity: 0.7"/>
     <use xlink:href="#m65680db4ad" x="87.645311" y="145.06969" style="fill-opacity: 0.7"/>
    </g>
   </g>
   <g id="PathCollection_2">
    <g clip-path="url(#pa2b7645bd8)">
     <use xlink:href="#m65680db4ad" x="151.016446" y="247.566806" style="fill-opacity: 0.7"/>
     <use xlink:href="#m65680db4ad" x="158.623361" y="252.684401" style="fill-opacity: 0.7"/>
     <use xlink:href="#m65680db4ad" x="156.936625" y="211.044372" style="fill-opacity: 0.7"/>
     <use xlink:href="#m65680db4ad" x="189.644354" y="219.164252" style="fill-opacity: 0.7"/>
     <use xlink:href="#m65680db4ad" x="173.489552" y="223.309989" style="fill-opacity: 0.7"/>
     <use xlink:href="#m65680db4ad" x="153.354226" y="224.821297" style="fill-opacity: 0.7"/>
     <use xlink:href="#m65680db4ad" x="154.041124" y="215.215167" style="fill-opacity: 0.7"/>
     <use xlink:href="#m65680db4ad" x="153.041965" y="187.16677" style="fill-opacity: 0.7"/>
     <use xlink:href="#m65680db4ad" x="171.967961" y="208.338191" style="fill-opacity: 0.7"/>
     <use xlink:href="#m65680db4ad" x="160.50177" y="267.458953" style="fill-opacity: 0.7"/>
     <use xlink:href="#m65680db4ad" x="154.335307" y="243.572537" style="fill-opacity: 0.7"/>
     <use xlink:href="#m65680db4ad" x="153.567935" y="201.254176" style="fill-opacity: 0.7"/>
     <use xlink:href="#m65680db4ad" x="160.50177" y="160.60342" style="fill-opacity: 0.7"/>
     <use xlink:href="#m65680db4ad" x="164.684278" y="190.341962" style="fill-opacity: 0.7"/>
     <use xlink:href="#m65680db4ad" x="155.255798" y="160.407615" style="fill-opacity: 0.7"/>
     <use xlink:href="#m65680db4ad" x="151.257271" y="172.458471" style="fill-opacity: 0.7"/>
     <use xlink:href="#m65680db4ad" x="137.505559" y="230.172608" style="fill-opacity: 0.7"/>
     <use xlink:href="#m65680db4ad" x="131.359187" y="220.234993" style="fill-opacity: 0.7"/>
     <use xlink:href="#m65680db4ad" x="184.556518" y="238.399133" style="fill-opacity: 0.7"/>
     <use xlink:href="#m65680db4ad" x="179.306523" y="238.405838" style="fill-opacity: 0.7"/>
     <use xlink:href="#m65680db4ad" x="160.50177" y="257.353407" style="fill-opacity: 0.7"/>
     <use xlink:href="#m65680db4ad" x="147.198997" y="244.134323" style="fill-opacity: 0.7"/>
     <use xlink:href="#m65680db4ad" x="177.236057" y="243.836887" style="fill-opacity: 0.7"/>
     <use xlink:href="#m65680db4ad" x="143.164627" y="222.505646" style="fill-opacity: 0.7"/>
     <use xlink:href="#m65680db4ad" x="182.230444" y="230.54893" style="fill-opacity: 0.7"/>
     <use xlink:href="#m65680db4ad" x="183.843322" y="221.651427" style="fill-opacity: 0.7"/>
     <use xlink:href="#m65680db4ad" x="165.82604" y="208.37079" style="fill-opacity: 0.7"/>
     <use xlink:href="#m65680db4ad" x="147.552994" y="217.417973" style="fill-opacity: 0.7"/>
     <use xlink:href="#m65680db4ad" x="142.691587" y="185.590056" style="fill-opacity: 0.7"/>
     <use xlink:href="#m65680db4ad" x="150.302126" y="211.705234" style="fill-opacity: 0.7"/>
     <use xlink:href="#m65680db4ad" x="165.796159" y="215.80492" style="fill-opacity: 0.7"/>
     <use xlink:href="#m65680db4ad" x="155.781987" y="229.254574" style="fill-opacity: 0.7"/>
     <use xlink:href="#m65680db4ad" x="162.460334" y="236.725837" style="fill-opacity: 0.7"/>
     <use xlink:href="#m65680db4ad" x="136.244731" y="238.19385" style="fill-opacity: 0.7"/>
     <use xlink:href="#m65680db4ad" x="167.131168" y="234.442939" style="fill-opacity: 0.7"/>
     <use xlink:href="#m65680db4ad" x="167.657643" y="247.654986" style="fill-opacity: 0.7"/>
     <use xlink:href="#m65680db4ad" x="151.962118" y="239.112538" style="fill-opacity: 0.7"/>
     <use xlink:href="#m65680db4ad" x="177.147334" y="214.200774" style="fill-opacity: 0.7"/>
     <use xlink:href="#m65680db4ad" x="159.496213" y="262.551524" style="fill-opacity: 0.7"/>
     <use xlink:href="#m65680db4ad" x="148.34232" y="223.332626" style="fill-opacity: 0.7"/>
     <use xlink:href="#m65680db4ad" x="160.50177" y="231.444252" style="fill-opacity: 0.7"/>
     <use xlink:href="#m65680db4ad" x="157.252887" y="236.090528" style="fill-opacity: 0.7"/>
     <use xlink:href="#m65680db4ad" x="158.760848" y="201.989521" style="fill-opacity: 0.7"/>
     <use xlink:href="#m65680db4ad" x="157.671804" y="221.210902" style="fill-opacity: 0.7"/>
     <use xlink:href="#m65680db4ad" x="168.857041" y="239.377091" style="fill-opacity: 0.7"/>
     <use xlink:href="#m65680db4ad" x="147.579253" y="232.646373" style="fill-opacity: 0.7"/>
     <use xlink:href="#m65680db4ad" x="174.088351" y="238.955574" style="fill-opacity: 0.7"/>
     <use xlink:href="#m65680db4ad" x="169.787865" y="226.855612" style="fill-opacity: 0.7"/>
     <use xlink:href="#m65680db4ad" x="160.50177" y="206.706614" style="fill-opacity: 0.7"/>
     <use xlink:href="#m65680db4ad" x="132.789363" y="221.009738" style="fill-opacity: 0.7"/>
     <use xlink:href="#m65680db4ad" x="175.938309" y="205.066815" style="fill-opacity: 0.7"/>
     <use xlink:href="#m65680db4ad" x="165.351376" y="229.529083" style="fill-opacity: 0.7"/>
     <use xlink:href="#m65680db4ad" x="159.218103" y="216.046191" style="fill-opacity: 0.7"/>
     <use xlink:href="#m65680db4ad" x="163.358145" y="250.524297" style="fill-opacity: 0.7"/>
     <use xlink:href="#m65680db4ad" x="167.706441" y="184.113981" style="fill-opacity: 0.7"/>
     <use xlink:href="#m65680db4ad" x="142.720009" y="230.753495" style="fill-opacity: 0.7"/>
     <use xlink:href="#m65680db4ad" x="168.990132" y="220.39465" style="fill-opacity: 0.7"/>
     <use xlink:href="#m65680db4ad" x="160.50177" y="177.084057" style="fill-opacity: 0.7"/>
     <use xlink:href="#m65680db4ad" x="146.719886" y="238.840653" style="fill-opacity: 0.7"/>
     <use xlink:href="#m65680db4ad" x="172.145805" y="245.060924" style="fill-opacity: 0.7"/>
     <use xlink:href="#m65680db4ad" x="167.93353" y="203.791334" style="fill-opacity: 0.7"/>
     <use xlink:href="#m65680db4ad" x="157.264777" y="183.496286" style="fill-opacity: 0.7"/>
     <use xlink:href="#m65680db4ad" x="154.382306" y="261.420454" style="fill-opacity: 0.7"/>
     <use xlink:href="#m65680db4ad" x="160.780761" y="245.765384" style="fill-opacity: 0.7"/>
     <use xlink:href="#m65680db4ad" x="153.259229" y="207.573828" style="fill-opacity: 0.7"/>
     <use xlink:href="#m65680db4ad" x="189.029999" y="220.877193" style="fill-opacity: 0.7"/>
     <use xlink:href="#m65680db4ad" x="141.490226" y="238.400953" style="fill-opacity: 0.7"/>
     <use xlink:href="#m65680db4ad" x="172.056022" y="232.710676" style="fill-opacity: 0.7"/>
     <use xlink:href="#m65680db4ad" x="169.763818" y="189.078209" style="fill-opacity: 0.7"/>
     <use xlink:href="#m65680db4ad" x="143.989815" y="213.745898" style="fill-opacity: 0.7"/>
     <use xlink:href="#m65680db4ad" x="170.166715" y="213.034695" style="fill-opacity: 0.7"/>
     <use xlink:href="#m65680db4ad" x="159.570333" y="240.90009" style="fill-opacity: 0.7"/>
     <use xlink:href="#m65680db4ad" x="152.267065" y="181.964942" style="fill-opacity: 0.7"/>
     <use xlink:href="#m65680db4ad" x="160.50177" y="193.364047" style="fill-opacity: 0.7"/>
     <use xlink:href="#m65680db4ad" x="152.064885" y="219.974427" style="fill-opacity: 0.7"/>
     <use xlink:href="#m65680db4ad" x="177.280037" y="232.213819" style="fill-opacity: 0.7"/>
     <use xlink:href="#m65680db4ad" x="137.949313" y="221.931837" style="fill-opacity: 0.7"/>
     <use xlink:href="#m65680db4ad" x="156.218682" y="248.239729" style="fill-opacity: 0.7"/>
     <use xlink:href="#m65680db4ad" x="155.624767" y="175.233069" style="fill-opacity: 0.7"/>
     <use xlink:href="#m65680db4ad" x="160.50177" y="167.986736" style="fill-opacity: 0.7"/>
     <use xlink:href="#m65680db4ad" x="172.409227" y="201.177809" style="fill-opacity: 0.7"/>
     <use xlink:href="#m65680db4ad" x="178.655738" y="222.420127" style="fill-opacity: 0.7"/>
     <use xlink:href="#m65680db4ad" x="147.818169" y="186.667827" style="fill-opacity: 0.7"/>
     <use xlink:href="#m65680db4ad" x="160.50177" y="225.422299" style="fill-opacity: 0.7"/>
     <use xlink:href="#m65680db4ad" x="165.239994" y="151.029804" style="fill-opacity: 0.7"/>
     <use xlink:href="#m65680db4ad" x="155.286001" y="152.61302" style="fill-opacity: 0.7"/>
     <use xlink:href="#m65680db4ad" x="152.747933" y="233.523001" style="fill-opacity: 0.7"/>
     <use xlink:href="#m65680db4ad" x="147.158341" y="207.700802" style="fill-opacity: 0.7"/>
     <use xlink:href="#m65680db4ad" x="155.63418" y="166.113409" style="fill-opacity: 0.7"/>
     <use xlink:href="#m65680db4ad" x="165.429089" y="224.068604" style="fill-opacity: 0.7"/>
     <use xlink:href="#m65680db4ad" x="159.617425" y="188.435493" style="fill-opacity: 0.7"/>
     <use xlink:href="#m65680db4ad" x="160.50177" y="153.183057" style="fill-opacity: 0.7"/>
     <use xlink:href="#m65680db4ad" x="174.135489" y="186.309581" style="fill-opacity: 0.7"/>
     <use xlink:href="#m65680db4ad" x="164.763223" y="242.507391" style="fill-opacity: 0.7"/>
     <use xlink:href="#m65680db4ad" x="155.621112" y="191.521818" style="fill-opacity: 0.7"/>
     <use xlink:href="#m65680db4ad" x="160.50177" y="145.018105" style="fill-opacity: 0.7"/>
     <use xlink:href="#m65680db4ad" x="165.352549" y="175.171586" style="fill-opacity: 0.7"/>
     <use xlink:href="#m65680db4ad" x="162.027685" y="211.822432" style="fill-opacity: 0.7"/>
     <use xlink:href="#m65680db4ad" x="162.457867" y="184.230498" style="fill-opacity: 0.7"/>
     <use xlink:href="#m65680db4ad" x="173.439331" y="217.740406" style="fill-opacity: 0.7"/>
     <use xlink:href="#m65680db4ad" x="164.716275" y="262.018314" style="fill-opacity: 0.7"/>
     <use xlink:href="#m65680db4ad" x="162.664532" y="219.817983" style="fill-opacity: 0.7"/>
     <use xlink:href="#m65680db4ad" x="163.338794" y="199.5419" style="fill-opacity: 0.7"/>
     <use xlink:href="#m65680db4ad" x="160.50177" y="133.146207" style="fill-opacity: 0.7"/>
    </g>
   </g>
   <g id="PathCollection_3">
    <g clip-path="url(#pa2b7645bd8)">
     <use xlink:href="#m65680db4ad" x="233.35823" y="247.586391" style="fill-opacity: 0.7"/>
     <use xlink:href="#m65680db4ad" x="243.743359" y="229.273997" style="fill-opacity: 0.7"/>
     <use xlink:href="#m65680db4ad" x="233.35823" y="191.806618" style="fill-opacity: 0.7"/>
     <use xlink:href="#m65680db4ad" x="228.110153" y="172.120265" style="fill-opacity: 0.7"/>
     <use xlink:href="#m65680db4ad" x="236.713931" y="216.082658" style="fill-opacity: 0.7"/>
     <use xlink:href="#m65680db4ad" x="235.557054" y="225.808296" style="fill-opacity: 0.7"/>
     <use xlink:href="#m65680db4ad" x="250.634314" y="221.92908" style="fill-opacity: 0.7"/>
     <use xlink:href="#m65680db4ad" x="227.859091" y="151.643423" style="fill-opacity: 0.7"/>
     <use xlink:href="#m65680db4ad" x="230.587867" y="224.19495" style="fill-opacity: 0.7"/>
     <use xlink:href="#m65680db4ad" x="217.20617" y="238.224103" style="fill-opacity: 0.7"/>
     <use xlink:href="#m65680db4ad" x="254.850589" y="218.949859" style="fill-opacity: 0.7"/>
     <use xlink:href="#m65680db4ad" x="233.35823" y="148.432184" style="fill-opacity: 0.7"/>
     <use xlink:href="#m65680db4ad" x="233.35823" y="103.282017" style="fill-opacity: 0.7"/>
     <use xlink:href="#m65680db4ad" x="235.705893" y="143.959949" style="fill-opacity: 0.7"/>
     <use xlink:href="#m65680db4ad" x="233.35823" y="137.289166" style="fill-opacity: 0.7"/>
     <use xlink:href="#m65680db4ad" x="229.473252" y="133.926108" style="fill-opacity: 0.7"/>
     <use xlink:href="#m65680db4ad" x="220.385982" y="222.25966" style="fill-opacity: 0.7"/>
     <use xlink:href="#m65680db4ad" x="223.453537" y="200.061628" style="fill-opacity: 0.7"/>
     <use xlink:href="#m65680db4ad" x="240.519468" y="224.176149" style="fill-opacity: 0.7"/>
     <use xlink:href="#m65680db4ad" x="236.996334" y="241.098237" style="fill-opacity: 0.7"/>
     <use xlink:href="#m65680db4ad" x="239.250589" y="252.186512" style="fill-opacity: 0.7"/>
     <use xlink:href="#m65680db4ad" x="237.718968" y="256.969004" style="fill-opacity: 0.7"/>
     <use xlink:href="#m65680db4ad" x="212.222259" y="236.652492" style="fill-opacity: 0.7"/>
     <use xlink:href="#m65680db4ad" x="238.358289" y="235.723023" style="fill-opacity: 0.7"/>
     <use xlink:href="#m65680db4ad" x="238.013797" y="182.937711" style="fill-opacity: 0.7"/>
     <use xlink:href="#m65680db4ad" x="228.152797" y="229.698521" style="fill-opacity: 0.7"/>
     <use xlink:href="#m65680db4ad" x="216.004483" y="212.030184" style="fill-opacity: 0.7"/>
     <use xlink:href="#m65680db4ad" x="221.461571" y="195.43551" style="fill-opacity: 0.7"/>
     <use xlink:href="#m65680db4ad" x="228.918767" y="145.763194" style="fill-opacity: 0.7"/>
     <use xlink:href="#m65680db4ad" x="245.75186" y="223.766988" style="fill-opacity: 0.7"/>
     <use xlink:href="#m65680db4ad" x="248.013329" y="186.85035" style="fill-opacity: 0.7"/>
     <use xlink:href="#m65680db4ad" x="252.173432" y="237.104559" style="fill-opacity: 0.7"/>
     <use xlink:href="#m65680db4ad" x="223.797143" y="187.706645" style="fill-opacity: 0.7"/>
     <use xlink:href="#m65680db4ad" x="232.039839" y="242.746614" style="fill-opacity: 0.7"/>
     <use xlink:href="#m65680db4ad" x="216.256774" y="219.171808" style="fill-opacity: 0.7"/>
     <use xlink:href="#m65680db4ad" x="242.080169" y="239.850246" style="fill-opacity: 0.7"/>
     <use xlink:href="#m65680db4ad" x="233.35823" y="269.039053" style="fill-opacity: 0.7"/>
     <use xlink:href="#m65680db4ad" x="243.58938" y="249.371362" style="fill-opacity: 0.7"/>
     <use xlink:href="#m65680db4ad" x="233.35823" y="259.753227" style="fill-opacity: 0.7"/>
     <use xlink:href="#m65680db4ad" x="238.608101" y="230.31363" style="fill-opacity: 0.7"/>
     <use xlink:href="#m65680db4ad" x="244.146356" y="206.098226" style="fill-opacity: 0.7"/>
     <use xlink:href="#m65680db4ad" x="247.161684" y="238.593715" style="fill-opacity: 0.7"/>
     <use xlink:href="#m65680db4ad" x="238.546413" y="191.041595" style="fill-opacity: 0.7"/>
     <use xlink:href="#m65680db4ad" x="245.201751" y="195.698312" style="fill-opacity: 0.7"/>
     <use xlink:href="#m65680db4ad" x="233.35823" y="230.348634" style="fill-opacity: 0.7"/>
     <use xlink:href="#m65680db4ad" x="226.213098" y="214.367307" style="fill-opacity: 0.7"/>
     <use xlink:href="#m65680db4ad" x="224.047963" y="208.858563" style="fill-opacity: 0.7"/>
     <use xlink:href="#m65680db4ad" x="233.35823" y="197.465392" style="fill-opacity: 0.7"/>
     <use xlink:href="#m65680db4ad" x="221.095896" y="213.249833" style="fill-opacity: 0.7"/>
     <use xlink:href="#m65680db4ad" x="228.82558" y="257.2303" style="fill-opacity: 0.7"/>
     <use xlink:href="#m65680db4ad" x="228.257616" y="202.078186" style="fill-opacity: 0.7"/>
     <use xlink:href="#m65680db4ad" x="211.01825" y="218.841393" style="fill-opacity: 0.7"/>
     <use xlink:href="#m65680db4ad" x="251.472823" y="211.993962" style="fill-opacity: 0.7"/>
     <use xlink:href="#m65680db4ad" x="226.992806" y="252.544872" style="fill-opacity: 0.7"/>
     <use xlink:href="#m65680db4ad" x="230.592065" y="264.789381" style="fill-opacity: 0.7"/>
     <use xlink:href="#m65680db4ad" x="238.58695" y="197.015672" style="fill-opacity: 0.7"/>
     <use xlink:href="#m65680db4ad" x="241.118476" y="213.361699" style="fill-opacity: 0.7"/>
     <use xlink:href="#m65680db4ad" x="230.669273" y="155.866819" style="fill-opacity: 0.7"/>
     <use xlink:href="#m65680db4ad" x="231.779482" y="214.375342" style="fill-opacity: 0.7"/>
     <use xlink:href="#m65680db4ad" x="228.847503" y="234.689085" style="fill-opacity: 0.7"/>
     <use xlink:href="#m65680db4ad" x="228.266149" y="196.248276" style="fill-opacity: 0.7"/>
     <use xlink:href="#m65680db4ad" x="222.504381" y="178.916133" style="fill-opacity: 0.7"/>
     <use xlink:href="#m65680db4ad" x="227.46443" y="240.294693" style="fill-opacity: 0.7"/>
     <use xlink:href="#m65680db4ad" x="222.391252" y="239.007968" style="fill-opacity: 0.7"/>
     <use xlink:href="#m65680db4ad" x="238.601563" y="172.003695" style="fill-opacity: 0.7"/>
     <use xlink:href="#m65680db4ad" x="233.35823" y="203.262453" style="fill-opacity: 0.7"/>
     <use xlink:href="#m65680db4ad" x="243.215107" y="200.326506" style="fill-opacity: 0.7"/>
     <use xlink:href="#m65680db4ad" x="229.146891" y="210.049397" style="fill-opacity: 0.7"/>
     <use xlink:href="#m65680db4ad" x="242.092941" y="179.790084" style="fill-opacity: 0.7"/>
     <use xlink:href="#m65680db4ad" x="228.464717" y="189.995583" style="fill-opacity: 0.7"/>
     <use xlink:href="#m65680db4ad" x="243.043244" y="188.461184" style="fill-opacity: 0.7"/>
     <use xlink:href="#m65680db4ad" x="238.437437" y="246.321425" style="fill-opacity: 0.7"/>
     <use xlink:href="#m65680db4ad" x="234.537515" y="210.120879" style="fill-opacity: 0.7"/>
     <use xlink:href="#m65680db4ad" x="228.743483" y="163.109981" style="fill-opacity: 0.7"/>
     <use xlink:href="#m65680db4ad" x="248.41993" y="199.671981" style="fill-opacity: 0.7"/>
     <use xlink:href="#m65680db4ad" x="233.816588" y="220.252293" style="fill-opacity: 0.7"/>
     <use xlink:href="#m65680db4ad" x="223.197692" y="228.046355" style="fill-opacity: 0.7"/>
     <use xlink:href="#m65680db4ad" x="260.069474" y="218.406307" style="fill-opacity: 0.7"/>
     <use xlink:href="#m65680db4ad" x="223.149307" y="170.483803" style="fill-opacity: 0.7"/>
     <use xlink:href="#m65680db4ad" x="238.929774" y="130.801427" style="fill-opacity: 0.7"/>
     <use xlink:href="#m65680db4ad" x="233.35823" y="172.255599" style="fill-opacity: 0.7"/>
     <use xlink:href="#m65680db4ad" x="239.398782" y="208.232716" style="fill-opacity: 0.7"/>
     <use xlink:href="#m65680db4ad" x="235.076768" y="187.082086" style="fill-opacity: 0.7"/>
     <use xlink:href="#m65680db4ad" x="232.056555" y="182.992298" style="fill-opacity: 0.7"/>
     <use xlink:href="#m65680db4ad" x="235.331452" y="153.567931" style="fill-opacity: 0.7"/>
     <use xlink:href="#m65680db4ad" x="233.35823" y="108.573127" style="fill-opacity: 0.7"/>
     <use xlink:href="#m65680db4ad" x="242.591534" y="219.582055" style="fill-opacity: 0.7"/>
     <use xlink:href="#m65680db4ad" x="250.042466" y="193.762852" style="fill-opacity: 0.7"/>
     <use xlink:href="#m65680db4ad" x="233.35823" y="115.236854" style="fill-opacity: 0.7"/>
     <use xlink:href="#m65680db4ad" x="238.569397" y="202.655438" style="fill-opacity: 0.7"/>
     <use xlink:href="#m65680db4ad" x="238.599649" y="159.875445" style="fill-opacity: 0.7"/>
     <use xlink:href="#m65680db4ad" x="233.681701" y="130.936867" style="fill-opacity: 0.7"/>
     <use xlink:href="#m65680db4ad" x="226.134215" y="158.771238" style="fill-opacity: 0.7"/>
     <use xlink:href="#m65680db4ad" x="233.35823" y="237.247401" style="fill-opacity: 0.7"/>
     <use xlink:href="#m65680db4ad" x="243.512486" y="158.112505" style="fill-opacity: 0.7"/>
     <use xlink:href="#m65680db4ad" x="233.35823" y="123.836744" style="fill-opacity: 0.7"/>
     <use xlink:href="#m65680db4ad" x="233.35823" y="160.161203" style="fill-opacity: 0.7"/>
     <use xlink:href="#m65680db4ad" x="246.227821" y="212.21208" style="fill-opacity: 0.7"/>
     <use xlink:href="#m65680db4ad" x="233.35823" y="165.494096" style="fill-opacity: 0.7"/>
     <use xlink:href="#m65680db4ad" x="225.626508" y="222.559898" style="fill-opacity: 0.7"/>
     <use xlink:href="#m65680db4ad" x="233.35823" y="252.999249" style="fill-opacity: 0.7"/>
     <use xlink:href="#m65680db4ad" x="227.110912" y="181.314617" style="fill-opacity: 0.7"/>
     <use xlink:href="#m65680db4ad" x="228.909013" y="218.657732" style="fill-opacity: 0.7"/>
     <use xlink:href="#m65680db4ad" x="233.35823" y="89.972889" style="fill-opacity: 0.7"/>
    </g>
   </g>
   <g id="PathCollection_4">
    <g clip-path="url(#pa2b7645bd8)">
     <use xlink:href="#m65680db4ad" x="301.989357" y="283.874175" style="fill-opacity: 0.7"/>
     <use xlink:href="#m65680db4ad" x="306.214689" y="259.951996" style="fill-opacity: 0.7"/>
     <use xlink:href="#m65680db4ad" x="311.001637" y="269.025203" style="fill-opacity: 0.7"/>
     <use xlink:href="#m65680db4ad" x="315.952864" y="267.36253" style="fill-opacity: 0.7"/>
     <use xlink:href="#m65680db4ad" x="316.928901" y="247.763199" style="fill-opacity: 0.7"/>
     <use xlink:href="#m65680db4ad" x="332.016245" y="243.575911" style="fill-opacity: 0.7"/>
     <use xlink:href="#m65680db4ad" x="316.059384" y="262.064889" style="fill-opacity: 0.7"/>
     <use xlink:href="#m65680db4ad" x="308.860233" y="228.520682" style="fill-opacity: 0.7"/>
     <use xlink:href="#m65680db4ad" x="335.357273" y="249.566811" style="fill-opacity: 0.7"/>
     <use xlink:href="#m65680db4ad" x="296.116617" y="273.603436" style="fill-opacity: 0.7"/>
     <use xlink:href="#m65680db4ad" x="301.064024" y="275.276392" style="fill-opacity: 0.7"/>
     <use xlink:href="#m65680db4ad" x="311.451221" y="219.706373" style="fill-opacity: 0.7"/>
     <use xlink:href="#m65680db4ad" x="301.253552" y="248.409395" style="fill-opacity: 0.7"/>
     <use xlink:href="#m65680db4ad" x="300.968002" y="259.774398" style="fill-opacity: 0.7"/>
     <use xlink:href="#m65680db4ad" x="317.494412" y="241.589922" style="fill-opacity: 0.7"/>
     <use xlink:href="#m65680db4ad" x="301.945484" y="208.74617" style="fill-opacity: 0.7"/>
     <use xlink:href="#m65680db4ad" x="287.296833" y="251.7351" style="fill-opacity: 0.7"/>
     <use xlink:href="#m65680db4ad" x="300.968412" y="219.876018" style="fill-opacity: 0.7"/>
     <use xlink:href="#m65680db4ad" x="319.974317" y="251.945201" style="fill-opacity: 0.7"/>
     <use xlink:href="#m65680db4ad" x="306.214689" y="286.841735" style="fill-opacity: 0.7"/>
     <use xlink:href="#m65680db4ad" x="291.13216" y="262.060363" style="fill-opacity: 0.7"/>
     <use xlink:href="#m65680db4ad" x="285.998633" y="261.013002" style="fill-opacity: 0.7"/>
     <use xlink:href="#m65680db4ad" x="296.897429" y="245.618628" style="fill-opacity: 0.7"/>
     <use xlink:href="#m65680db4ad" x="335.357273" y="250.636206" style="fill-opacity: 0.7"/>
     <use xlink:href="#m65680db4ad" x="296.266732" y="268.469774" style="fill-opacity: 0.7"/>
     <use xlink:href="#m65680db4ad" x="294.290833" y="257.898301" style="fill-opacity: 0.7"/>
     <use xlink:href="#m65680db4ad" x="314.451463" y="282.13271" style="fill-opacity: 0.7"/>
     <use xlink:href="#m65680db4ad" x="309.242558" y="282.757085" style="fill-opacity: 0.7"/>
     <use xlink:href="#m65680db4ad" x="294.072787" y="227.849225" style="fill-opacity: 0.7"/>
     <use xlink:href="#m65680db4ad" x="290.696608" y="236.132083" style="fill-opacity: 0.7"/>
     <use xlink:href="#m65680db4ad" x="315.79596" y="272.39276" style="fill-opacity: 0.7"/>
     <use xlink:href="#m65680db4ad" x="298.78314" y="230.057246" style="fill-opacity: 0.7"/>
     <use xlink:href="#m65680db4ad" x="313.558552" y="226.289529" style="fill-opacity: 0.7"/>
     <use xlink:href="#m65680db4ad" x="277.347628" y="243.561221" style="fill-opacity: 0.7"/>
     <use xlink:href="#m65680db4ad" x="306.214689" y="250.045059" style="fill-opacity: 0.7"/>
     <use xlink:href="#m65680db4ad" x="325.195117" y="251.418584" style="fill-opacity: 0.7"/>
     <use xlink:href="#m65680db4ad" x="292.15836" y="247.915281" style="fill-opacity: 0.7"/>
     <use xlink:href="#m65680db4ad" x="277.072105" y="247.573601" style="fill-opacity: 0.7"/>
     <use xlink:href="#m65680db4ad" x="299.835639" y="253.260723" style="fill-opacity: 0.7"/>
     <use xlink:href="#m65680db4ad" x="301.723426" y="242.37276" style="fill-opacity: 0.7"/>
     <use xlink:href="#m65680db4ad" x="335.357273" y="247.742422" style="fill-opacity: 0.7"/>
     <use xlink:href="#m65680db4ad" x="329.89391" y="255.993591" style="fill-opacity: 0.7"/>
     <use xlink:href="#m65680db4ad" x="291.171785" y="216.528281" style="fill-opacity: 0.7"/>
     <use xlink:href="#m65680db4ad" x="306.214689" y="238.497595" style="fill-opacity: 0.7"/>
     <use xlink:href="#m65680db4ad" x="306.214689" y="271.078381" style="fill-opacity: 0.7"/>
     <use xlink:href="#m65680db4ad" x="306.214689" y="265.252203" style="fill-opacity: 0.7"/>
     <use xlink:href="#m65680db4ad" x="284.052034" y="256.119239" style="fill-opacity: 0.7"/>
     <use xlink:href="#m65680db4ad" x="331.200855" y="251.150998" style="fill-opacity: 0.7"/>
     <use xlink:href="#m65680db4ad" x="311.433065" y="237.949621" style="fill-opacity: 0.7"/>
     <use xlink:href="#m65680db4ad" x="312.604675" y="258.270523" style="fill-opacity: 0.7"/>
     <use xlink:href="#m65680db4ad" x="287.358758" y="245.889076" style="fill-opacity: 0.7"/>
     <use xlink:href="#m65680db4ad" x="332.153869" y="235.338011" style="fill-opacity: 0.7"/>
     <use xlink:href="#m65680db4ad" x="294.683704" y="252.298836" style="fill-opacity: 0.7"/>
     <use xlink:href="#m65680db4ad" x="304.688732" y="255.167862" style="fill-opacity: 0.7"/>
     <use xlink:href="#m65680db4ad" x="322.047864" y="246.653067" style="fill-opacity: 0.7"/>
     <use xlink:href="#m65680db4ad" x="327.134542" y="245.415628" style="fill-opacity: 0.7"/>
     <use xlink:href="#m65680db4ad" x="311.149218" y="248.657731" style="fill-opacity: 0.7"/>
     <use xlink:href="#m65680db4ad" x="306.214689" y="187.272591" style="fill-opacity: 0.7"/>
     <use xlink:href="#m65680db4ad" x="277.072105" y="249.468648" style="fill-opacity: 0.7"/>
     <use xlink:href="#m65680db4ad" x="310.902074" y="263.000286" style="fill-opacity: 0.7"/>
     <use xlink:href="#m65680db4ad" x="321.251684" y="216.12615" style="fill-opacity: 0.7"/>
     <use xlink:href="#m65680db4ad" x="309.191832" y="196.717951" style="fill-opacity: 0.7"/>
     <use xlink:href="#m65680db4ad" x="282.063311" y="251.339261" style="fill-opacity: 0.7"/>
     <use xlink:href="#m65680db4ad" x="306.214689" y="244.961951" style="fill-opacity: 0.7"/>
     <use xlink:href="#m65680db4ad" x="304.016901" y="230.450197" style="fill-opacity: 0.7"/>
     <use xlink:href="#m65680db4ad" x="277.072105" y="250.023433" style="fill-opacity: 0.7"/>
     <use xlink:href="#m65680db4ad" x="311.286638" y="274.953322" style="fill-opacity: 0.7"/>
     <use xlink:href="#m65680db4ad" x="317.635953" y="256.842353" style="fill-opacity: 0.7"/>
     <use xlink:href="#m65680db4ad" x="285.498438" y="235.431236" style="fill-opacity: 0.7"/>
     <use xlink:href="#m65680db4ad" x="326.923465" y="235.769612" style="fill-opacity: 0.7"/>
     <use xlink:href="#m65680db4ad" x="316.498079" y="236.634048" style="fill-opacity: 0.7"/>
     <use xlink:href="#m65680db4ad" x="312.986102" y="232.917502" style="fill-opacity: 0.7"/>
     <use xlink:href="#m65680db4ad" x="321.748014" y="236.609229" style="fill-opacity: 0.7"/>
     <use xlink:href="#m65680db4ad" x="289.168565" y="226.064659" style="fill-opacity: 0.7"/>
     <use xlink:href="#m65680db4ad" x="309.783174" y="253.959744" style="fill-opacity: 0.7"/>
     <use xlink:href="#m65680db4ad" x="300.979885" y="264.872049" style="fill-opacity: 0.7"/>
     <use xlink:href="#m65680db4ad" x="325.813689" y="259.139951" style="fill-opacity: 0.7"/>
     <use xlink:href="#m65680db4ad" x="317.262495" y="230.017043" style="fill-opacity: 0.7"/>
     <use xlink:href="#m65680db4ad" x="300.993516" y="186.74934" style="fill-opacity: 0.7"/>
     <use xlink:href="#m65680db4ad" x="301.164" y="199.471669" style="fill-opacity: 0.7"/>
     <use xlink:href="#m65680db4ad" x="306.214689" y="220.064283" style="fill-opacity: 0.7"/>
     <use xlink:href="#m65680db4ad" x="277.072105" y="251.067197" style="fill-opacity: 0.7"/>
     <use xlink:href="#m65680db4ad" x="302.70937" y="225.607749" style="fill-opacity: 0.7"/>
     <use xlink:href="#m65680db4ad" x="296.36251" y="262.492555" style="fill-opacity: 0.7"/>
     <use xlink:href="#m65680db4ad" x="306.214689" y="211.656219" style="fill-opacity: 0.7"/>
     <use xlink:href="#m65680db4ad" x="306.214689" y="200.836283" style="fill-opacity: 0.7"/>
     <use xlink:href="#m65680db4ad" x="301.080398" y="270.034425" style="fill-opacity: 0.7"/>
     <use xlink:href="#m65680db4ad" x="289.296025" y="256.35839" style="fill-opacity: 0.7"/>
     <use xlink:href="#m65680db4ad" x="295.836114" y="218.82321" style="fill-opacity: 0.7"/>
     <use xlink:href="#m65680db4ad" x="306.214689" y="276.244432" style="fill-opacity: 0.7"/>
     <use xlink:href="#m65680db4ad" x="321.164706" y="226.672131" style="fill-opacity: 0.7"/>
     <use xlink:href="#m65680db4ad" x="309.320965" y="207.625323" style="fill-opacity: 0.7"/>
     <use xlink:href="#m65680db4ad" x="285.98632" y="215.74672" style="fill-opacity: 0.7"/>
     <use xlink:href="#m65680db4ad" x="291.688655" y="270.917173" style="fill-opacity: 0.7"/>
     <use xlink:href="#m65680db4ad" x="282.591942" y="243.793845" style="fill-opacity: 0.7"/>
     <use xlink:href="#m65680db4ad" x="301.124655" y="237.272736" style="fill-opacity: 0.7"/>
     <use xlink:href="#m65680db4ad" x="316.398522" y="218.03313" style="fill-opacity: 0.7"/>
     <use xlink:href="#m65680db4ad" x="335.357273" y="247.447487" style="fill-opacity: 0.7"/>
     <use xlink:href="#m65680db4ad" x="295.89539" y="236.828795" style="fill-opacity: 0.7"/>
     <use xlink:href="#m65680db4ad" x="307.938268" y="233.774728" style="fill-opacity: 0.7"/>
     <use xlink:href="#m65680db4ad" x="321.294137" y="261.684102" style="fill-opacity: 0.7"/>
     <use xlink:href="#m65680db4ad" x="312.85418" y="243.928739" style="fill-opacity: 0.7"/>
     <use xlink:href="#m65680db4ad" x="314.738083" y="252.307046" style="fill-opacity: 0.7"/>
     <use xlink:href="#m65680db4ad" x="305.603146" y="193.068476" style="fill-opacity: 0.7"/>
    </g>
   </g>
   <g id="text_12">
    <!-- V1 tgt -->
    <g transform="translate(178.587812 41.04) scale(0.12 -0.12)">
     <defs>
      <path id="DejaVuSans-56" d="M 1831 0 
L 50 4666 
L 709 4666 
L 2188 738 
L 3669 4666 
L 4325 4666 
L 2547 0 
L 1831 0 
z
" transform="scale(0.015625)"/>
     </defs>
     <use xlink:href="#DejaVuSans-56"/>
     <use xlink:href="#DejaVuSans-31" x="68.408203"/>
     <use xlink:href="#DejaVuSans-20" x="132.03125"/>
     <use xlink:href="#DejaVuSans-74" x="163.818359"/>
     <use xlink:href="#DejaVuSans-67" x="203.027344"/>
     <use xlink:href="#DejaVuSans-74" x="266.503906"/>
    </g>
   </g>
  </g>
  <g id="text_13">
   <!-- pnr256 -->
   <g transform="translate(158.469375 16.318125) scale(0.12 -0.12)">
    <defs>
     <path id="DejaVuSans-35" d="M 691 4666 
L 3169 4666 
L 3169 4134 
L 1269 4134 
L 1269 2991 
Q 1406 3038 1543 3061 
Q 1681 3084 1819 3084 
Q 2600 3084 3056 2656 
Q 3513 2228 3513 1497 
Q 3513 744 3044 326 
Q 2575 -91 1722 -91 
Q 1428 -91 1123 -41 
Q 819 9 494 109 
L 494 744 
Q 775 591 1075 516 
Q 1375 441 1709 441 
Q 2250 441 2565 725 
Q 2881 1009 2881 1497 
Q 2881 1984 2565 2268 
Q 2250 2553 1709 2553 
Q 1456 2553 1204 2497 
Q 953 2441 691 2322 
L 691 4666 
z
" transform="scale(0.015625)"/>
    </defs>
    <use xlink:href="#DejaVuSans-70"/>
    <use xlink:href="#DejaVuSans-6e" x="63.476562"/>
    <use xlink:href="#DejaVuSans-72" x="126.855469"/>
    <use xlink:href="#DejaVuSans-32" x="167.96875"/>
    <use xlink:href="#DejaVuSans-35" x="231.591797"/>
    <use xlink:href="#DejaVuSans-36" x="295.214844"/>
   </g>
  </g>
 </g>
 <defs>
  <clipPath id="pa2b7645bd8">
   <rect x="44.66" y="47.04" width="304.54" height="269.06776"/>
  </clipPath>
 </defs>
</svg>
