<?xml version="1.0" encoding="utf-8" standalone="no"?>
<!DOCTYPE svg PUBLIC "-//W3C//DTD SVG 1.1//EN"
  "http://www.w3.org/Graphics/SVG/1.1/DTD/svg11.dtd">
<svg xmlns:xlink="http://www.w3.org/1999/xlink" width="360pt" height="360pt" viewBox="0 0 360 360" xmlns="http://www.w3.org/2000/svg" version="1.1">
 <metadata>
  <rdf:RDF xmlns:dc="http://purl.org/dc/elements/1.1/" xmlns:cc="http://creativecommons.org/ns#" xmlns:rdf="http://www.w3.org/1999/02/22-rdf-syntax-ns#">
   <cc:Work>
    <dc:type rdf:resource="http://purl.org/dc/dcmitype/StillImage"/>
    <dc:date>2026-05-29T13:02:53.106220</dc:date>
    <dc:format>image/svg+xml</dc:format>
    <dc:creator>
     <cc:Agent>
      <dc:title>Matplotlib v3.8.0, https://matplotlib.org/</dc:title>
     </cc:Agent>
    </dc:creator>
   </cc:Work>
  </rdf:RDF>
 </metadata>
 <defs>
  <style type="text/css">*{stroke-linejoin: round; stroke-linecap: butt}</style>
 </defs>
 <g id="figure_1">
  <g id="patch_1">
   <path d="M 0 360 
L 360 360 
L 360 0 
L 0 0 
z
" style="fill: #ffffff"/>
  </g>
  <g id="axes_1">
   <g id="patch_2">
    <path d="M 46.64 316.10776 
L 349.2 316.10776 
L 349.2 47.04 
L 46.64 47.04 
z
" style="fill: #ffffff"/>
   </g>
   <g id="PolyCollection_1">
    <defs>
     <path id="m9e8f313272" d="M 89.987092 -56.92157 
L 88.704583 -56.92157 
L 88.472377 -58.976171 
L 88.172001 -61.030772 
L 87.789398 -63.085374 
L 87.309611 -65.139975 
L 86.717385 -67.194576 
L 85.997986 -69.249178 
L 85.138203 -71.303779 
L 84.127503 -73.35838 
L 82.959283 -75.412981 
L 81.632113 -77.467583 
L 80.150874 -79.522184 
L 78.527661 -81.576785 
L 76.782329 -83.631387 
L 74.94258 -85.685988 
L 73.043498 -87.740589 
L 71.12651 -89.795191 
L 69.237772 -91.849792 
L 67.426076 -93.904393 
L 65.740377 -95.958994 
L 64.227139 -98.013596 
L 62.927688 -100.068197 
L 61.875801 -102.122798 
L 61.095724 -104.1774 
L 60.600783 -106.232001 
L 60.392727 -108.286602 
L 60.461826 -110.341204 
L 60.787732 -112.395805 
L 61.341 -114.450406 
L 62.085152 -116.505008 
L 62.979081 -118.559609 
L 63.979621 -120.61421 
L 65.044074 -122.668811 
L 66.132503 -124.723413 
L 67.20968 -126.778014 
L 68.246538 -128.832615 
L 69.221116 -130.887217 
L 70.118954 -132.941818 
L 70.932984 -134.996419 
L 71.662973 -137.051021 
L 72.314609 -139.105622 
L 72.898316 -141.160223 
L 73.427905 -143.214824 
L 73.919157 -145.269426 
L 74.388421 -147.324027 
L 74.851305 -149.378628 
L 75.321525 -151.43323 
L 75.809961 -153.487831 
L 76.323963 -155.542432 
L 76.866933 -157.597034 
L 77.438203 -159.651635 
L 78.033201 -161.706236 
L 78.643908 -163.760838 
L 79.25956 -165.815439 
L 79.867548 -167.87004 
L 80.454468 -169.924641 
L 81.007215 -171.979243 
L 81.514057 -174.033844 
L 81.965589 -176.088445 
L 82.355489 -178.143047 
L 82.681009 -180.197648 
L 82.943168 -182.252249 
L 83.146614 -184.306851 
L 83.299201 -186.361452 
L 83.411288 -188.416053 
L 83.494873 -190.470654 
L 83.562611 -192.525256 
L 83.626839 -194.579857 
L 83.698681 -196.634458 
L 83.787323 -198.68906 
L 83.899516 -200.743661 
L 84.03932 -202.798262 
L 84.208126 -204.852864 
L 84.404892 -206.907465 
L 84.626576 -208.962066 
L 84.868685 -211.016668 
L 85.125877 -213.071269 
L 85.392539 -215.12587 
L 85.663299 -217.180471 
L 85.933407 -219.235073 
L 86.198983 -221.289674 
L 86.457111 -223.344275 
L 86.705813 -225.398877 
L 86.943919 -227.453478 
L 87.170871 -229.508079 
L 87.386512 -231.562681 
L 87.590876 -233.617282 
L 87.784027 -235.671883 
L 87.965947 -237.726484 
L 88.136482 -239.781086 
L 88.295352 -241.835687 
L 88.442194 -243.890288 
L 88.576637 -245.94489 
L 88.698385 -247.999491 
L 88.80729 -250.054092 
L 88.903413 -252.108694 
L 88.987051 -254.163295 
L 89.058741 -256.217896 
L 89.119241 -258.272498 
L 89.169488 -260.327099 
L 89.522187 -260.327099 
L 89.522187 -260.327099 
L 89.572434 -258.272498 
L 89.632934 -256.217896 
L 89.704624 -254.163295 
L 89.788261 -252.108694 
L 89.884384 -250.054092 
L 89.99329 -247.999491 
L 90.115038 -245.94489 
L 90.249481 -243.890288 
L 90.396323 -241.835687 
L 90.555193 -239.781086 
L 90.725728 -237.726484 
L 90.907647 -235.671883 
L 91.100799 -233.617282 
L 91.305163 -231.562681 
L 91.520804 -229.508079 
L 91.747756 -227.453478 
L 91.985862 -225.398877 
L 92.234564 -223.344275 
L 92.492692 -221.289674 
L 92.758267 -219.235073 
L 93.028376 -217.180471 
L 93.299136 -215.12587 
L 93.565798 -213.071269 
L 93.822989 -211.016668 
L 94.065099 -208.962066 
L 94.286783 -206.907465 
L 94.483549 -204.852864 
L 94.652355 -202.798262 
L 94.792159 -200.743661 
L 94.904351 -198.68906 
L 94.992994 -196.634458 
L 95.064836 -194.579857 
L 95.129063 -192.525256 
L 95.196801 -190.470654 
L 95.280386 -188.416053 
L 95.392474 -186.361452 
L 95.54506 -184.306851 
L 95.748507 -182.252249 
L 96.010665 -180.197648 
L 96.336186 -178.143047 
L 96.726085 -176.088445 
L 97.177618 -174.033844 
L 97.68446 -171.979243 
L 98.237207 -169.924641 
L 98.824127 -167.87004 
L 99.432115 -165.815439 
L 100.047766 -163.760838 
L 100.658474 -161.706236 
L 101.253472 -159.651635 
L 101.824742 -157.597034 
L 102.367712 -155.542432 
L 102.881714 -153.487831 
L 103.370149 -151.43323 
L 103.840369 -149.378628 
L 104.303254 -147.324027 
L 104.772518 -145.269426 
L 105.26377 -143.214824 
L 105.793359 -141.160223 
L 106.377066 -139.105622 
L 107.028702 -137.051021 
L 107.758691 -134.996419 
L 108.572721 -132.941818 
L 109.470559 -130.887217 
L 110.445137 -128.832615 
L 111.481995 -126.778014 
L 112.559171 -124.723413 
L 113.647601 -122.668811 
L 114.712053 -120.61421 
L 115.712594 -118.559609 
L 116.606523 -116.505008 
L 117.350675 -114.450406 
L 117.903943 -112.395805 
L 118.229848 -110.341204 
L 118.298947 -108.286602 
L 118.090891 -106.232001 
L 117.595951 -104.1774 
L 116.815873 -102.122798 
L 115.763987 -100.068197 
L 114.464536 -98.013596 
L 112.951297 -95.958994 
L 111.265599 -93.904393 
L 109.453903 -91.849792 
L 107.565165 -89.795191 
L 105.648176 -87.740589 
L 103.749094 -85.685988 
L 101.909346 -83.631387 
L 100.164014 -81.576785 
L 98.540801 -79.522184 
L 97.059562 -77.467583 
L 95.732392 -75.412981 
L 94.564172 -73.35838 
L 93.553472 -71.303779 
L 92.693688 -69.249178 
L 91.97429 -67.194576 
L 91.382064 -65.139975 
L 90.902276 -63.085374 
L 90.519674 -61.030772 
L 90.219297 -58.976171 
L 89.987092 -56.92157 
z
" style="stroke: #3f3f3f; stroke-width: 1.25"/>
    </defs>
    <g clip-path="url(#p0a8abfb118)">
     <use xlink:href="#m9e8f313272" x="0" y="360" style="fill: #b2b2b2; stroke: #3f3f3f; stroke-width: 1.25"/>
    </g>
   </g>
   <g id="PolyCollection_2">
    <defs>
     <path id="md56001f457" d="M 162.898572 -56.617092 
L 160.558653 -56.617092 
L 160.226218 -58.823232 
L 159.82057 -61.029373 
L 159.331922 -63.235513 
L 158.750863 -65.441654 
L 158.068861 -67.647794 
L 157.278814 -69.853935 
L 156.375627 -72.060075 
L 155.356786 -74.266216 
L 154.222885 -76.472356 
L 152.978052 -78.678497 
L 151.630261 -80.884638 
L 150.191468 -83.090778 
L 148.67755 -85.296919 
L 147.108046 -87.503059 
L 145.505688 -89.7092 
L 143.895739 -91.91534 
L 142.305181 -94.121481 
L 140.761778 -96.327621 
L 139.293093 -98.533762 
L 137.925494 -100.739902 
L 136.683219 -102.946043 
L 135.58755 -105.152183 
L 134.65613 -107.358324 
L 133.902458 -109.564464 
L 133.335579 -111.770605 
L 132.959951 -113.976745 
L 132.775502 -116.182886 
L 132.777837 -118.389027 
L 132.958572 -120.595167 
L 133.305778 -122.801308 
L 133.804492 -125.007448 
L 134.437289 -127.213589 
L 135.184876 -129.419729 
L 136.026712 -131.62587 
L 136.941626 -133.83201 
L 137.908436 -136.038151 
L 138.90654 -138.244291 
L 139.916479 -140.450432 
L 140.920444 -142.656572 
L 141.902723 -144.862713 
L 142.850049 -147.068853 
L 143.751846 -149.274994 
L 144.600351 -151.481134 
L 145.390607 -153.687275 
L 146.12032 -155.893416 
L 146.789601 -158.099556 
L 147.400594 -160.305697 
L 147.957035 -162.511837 
L 148.463756 -164.717978 
L 148.926187 -166.924118 
L 149.349874 -169.130259 
L 149.740065 -171.336399 
L 150.101371 -173.54254 
L 150.437534 -175.74868 
L 150.7513 -177.954821 
L 151.044408 -180.160961 
L 151.317668 -182.367102 
L 151.571131 -184.573242 
L 151.804315 -186.779383 
L 152.016461 -188.985524 
L 152.206814 -191.191664 
L 152.374879 -193.397805 
L 152.520662 -195.603945 
L 152.644852 -197.810086 
L 152.748965 -200.016226 
L 152.835411 -202.222367 
L 152.907515 -204.428507 
L 152.969461 -206.634648 
L 153.026188 -208.840788 
L 153.083229 -211.046929 
L 153.146509 -213.253069 
L 153.222101 -215.45921 
L 153.315963 -217.66535 
L 153.433665 -219.871491 
L 153.580109 -222.077631 
L 153.759282 -224.283772 
L 153.974028 -226.489913 
L 154.225885 -228.696053 
L 154.514964 -230.902194 
L 154.839919 -233.108334 
L 155.19798 -235.314475 
L 155.585061 -237.520615 
L 155.99595 -239.726756 
L 156.424543 -241.932896 
L 156.864134 -244.139037 
L 157.30772 -246.345177 
L 157.748322 -248.551318 
L 158.179278 -250.757458 
L 158.594514 -252.963599 
L 158.988758 -255.169739 
L 159.357701 -257.37588 
L 159.698094 -259.582021 
L 160.007772 -261.788161 
L 160.285635 -263.994302 
L 160.53156 -266.200442 
L 160.746287 -268.406583 
L 160.931272 -270.612723 
L 161.088523 -272.818864 
L 161.220439 -275.025004 
L 162.236785 -275.025004 
L 162.236785 -275.025004 
L 162.368702 -272.818864 
L 162.525953 -270.612723 
L 162.710938 -268.406583 
L 162.925665 -266.200442 
L 163.17159 -263.994302 
L 163.449452 -261.788161 
L 163.759131 -259.582021 
L 164.099523 -257.37588 
L 164.468467 -255.169739 
L 164.862711 -252.963599 
L 165.277947 -250.757458 
L 165.708903 -248.551318 
L 166.149505 -246.345177 
L 166.593091 -244.139037 
L 167.032682 -241.932896 
L 167.461275 -239.726756 
L 167.872163 -237.520615 
L 168.259245 -235.314475 
L 168.617305 -233.108334 
L 168.942261 -230.902194 
L 169.23134 -228.696053 
L 169.483196 -226.489913 
L 169.697943 -224.283772 
L 169.877115 -222.077631 
L 170.02356 -219.871491 
L 170.141261 -217.66535 
L 170.235124 -215.45921 
L 170.310716 -213.253069 
L 170.373996 -211.046929 
L 170.431037 -208.840788 
L 170.487764 -206.634648 
L 170.549709 -204.428507 
L 170.621813 -202.222367 
L 170.70826 -200.016226 
L 170.812373 -197.810086 
L 170.936563 -195.603945 
L 171.082346 -193.397805 
L 171.250411 -191.191664 
L 171.440764 -188.985524 
L 171.65291 -186.779383 
L 171.886094 -184.573242 
L 172.139557 -182.367102 
L 172.412817 -180.160961 
L 172.705924 -177.954821 
L 173.019691 -175.74868 
L 173.355853 -173.54254 
L 173.71716 -171.336399 
L 174.107351 -169.130259 
L 174.531038 -166.924118 
L 174.993469 -164.717978 
L 175.50019 -162.511837 
L 176.056631 -160.305697 
L 176.667624 -158.099556 
L 177.336905 -155.893416 
L 178.066618 -153.687275 
L 178.856874 -151.481134 
L 179.705379 -149.274994 
L 180.607176 -147.068853 
L 181.554502 -144.862713 
L 182.536781 -142.656572 
L 183.540746 -140.450432 
L 184.550685 -138.244291 
L 185.548789 -136.038151 
L 186.515599 -133.83201 
L 187.430513 -131.62587 
L 188.272349 -129.419729 
L 189.019935 -127.213589 
L 189.652732 -125.007448 
L 190.151447 -122.801308 
L 190.498653 -120.595167 
L 190.679388 -118.389027 
L 190.681722 -116.182886 
L 190.497274 -113.976745 
L 190.121646 -111.770605 
L 189.554767 -109.564464 
L 188.801095 -107.358324 
L 187.869675 -105.152183 
L 186.774006 -102.946043 
L 185.531731 -100.739902 
L 184.164132 -98.533762 
L 182.695447 -96.327621 
L 181.152044 -94.121481 
L 179.561485 -91.91534 
L 177.951537 -89.7092 
L 176.349179 -87.503059 
L 174.779675 -85.296919 
L 173.265757 -83.090778 
L 171.826963 -80.884638 
L 170.479173 -78.678497 
L 169.23434 -76.472356 
L 168.100438 -74.266216 
L 167.081598 -72.060075 
L 166.178411 -69.853935 
L 165.388364 -67.647794 
L 164.706362 -65.441654 
L 164.125303 -63.235513 
L 163.636654 -61.029373 
L 163.231007 -58.823232 
L 162.898572 -56.617092 
z
" style="stroke: #3f3f3f; stroke-width: 1.25"/>
    </defs>
    <g clip-path="url(#p0a8abfb118)">
     <use xlink:href="#md56001f457" x="0" y="360" style="fill: #891ab9; stroke: #3f3f3f; stroke-width: 1.25"/>
    </g>
   </g>
   <g id="PolyCollection_3">
    <defs>
     <path id="md873de2f6e" d="M 235.672032 -56.122593 
L 232.550743 -56.122593 
L 232.120922 -58.593371 
L 231.60137 -61.06415 
L 230.981707 -63.534928 
L 230.252553 -66.005706 
L 229.406178 -68.476485 
L 228.437183 -70.947263 
L 227.343191 -73.418041 
L 226.125473 -75.88882 
L 224.789481 -78.359598 
L 223.345214 -80.830376 
L 221.807395 -83.301155 
L 220.195397 -85.771933 
L 218.532909 -88.242711 
L 216.847342 -90.71349 
L 215.168977 -93.184268 
L 213.529909 -95.655046 
L 211.962829 -98.125824 
L 210.499724 -100.596603 
L 209.170562 -103.067381 
L 208.002058 -105.538159 
L 207.016577 -108.008938 
L 206.231259 -110.479716 
L 205.657398 -112.950494 
L 205.300106 -115.421273 
L 205.158278 -117.892051 
L 205.224834 -120.362829 
L 205.487216 -122.833608 
L 205.928091 -125.304386 
L 206.526215 -127.775164 
L 207.257396 -130.245943 
L 208.095518 -132.716721 
L 209.013562 -135.187499 
L 209.984589 -137.658278 
L 210.982653 -140.129056 
L 211.983623 -142.599834 
L 212.965872 -145.070613 
L 213.910848 -147.541391 
L 214.803492 -150.012169 
L 215.632504 -152.482948 
L 216.39046 -154.953726 
L 217.073769 -157.424504 
L 217.682477 -159.895283 
L 218.219936 -162.366061 
L 218.692347 -164.836839 
L 219.108199 -167.307618 
L 219.477635 -169.778396 
L 219.811785 -172.249174 
L 220.12208 -174.719953 
L 220.419609 -177.190731 
L 220.714532 -179.661509 
L 221.015581 -182.132288 
L 221.329679 -184.603066 
L 221.661685 -187.073844 
L 222.014265 -189.544623 
L 222.3879 -192.015401 
L 222.781007 -194.486179 
L 223.190175 -196.956958 
L 223.610475 -199.427736 
L 224.035844 -201.898514 
L 224.459501 -204.369293 
L 224.874384 -206.840071 
L 225.273581 -209.310849 
L 225.650738 -211.781628 
L 226.000418 -214.252406 
L 226.318407 -216.723184 
L 226.601948 -219.193963 
L 226.849896 -221.664741 
L 227.062785 -224.135519 
L 227.242808 -226.606297 
L 227.393713 -229.077076 
L 227.520612 -231.547854 
L 227.629714 -234.018632 
L 227.728007 -236.489411 
L 227.822884 -238.960189 
L 227.921752 -241.430967 
L 228.031634 -243.901746 
L 228.158793 -246.372524 
L 228.308405 -248.843302 
L 228.484286 -251.314081 
L 228.688713 -253.784859 
L 228.922325 -256.255637 
L 229.184139 -258.726416 
L 229.471645 -261.197194 
L 229.781001 -263.667972 
L 230.107296 -266.138751 
L 230.444859 -268.609529 
L 230.787602 -271.080307 
L 231.129361 -273.551086 
L 231.464217 -276.021864 
L 231.786776 -278.492642 
L 232.092388 -280.963421 
L 232.377308 -283.434199 
L 232.638777 -285.904977 
L 232.875042 -288.375756 
L 233.085314 -290.846534 
L 233.269676 -293.317312 
L 233.428957 -295.788091 
L 233.564583 -298.258869 
L 233.678417 -300.729647 
L 234.544358 -300.729647 
L 234.544358 -300.729647 
L 234.658193 -298.258869 
L 234.793818 -295.788091 
L 234.953099 -293.317312 
L 235.137461 -290.846534 
L 235.347733 -288.375756 
L 235.583998 -285.904977 
L 235.845467 -283.434199 
L 236.130387 -280.963421 
L 236.435999 -278.492642 
L 236.758558 -276.021864 
L 237.093414 -273.551086 
L 237.435173 -271.080307 
L 237.777916 -268.609529 
L 238.115479 -266.138751 
L 238.441774 -263.667972 
L 238.751131 -261.197194 
L 239.038636 -258.726416 
L 239.30045 -256.255637 
L 239.534063 -253.784859 
L 239.738489 -251.314081 
L 239.91437 -248.843302 
L 240.063982 -246.372524 
L 240.191141 -243.901746 
L 240.301023 -241.430967 
L 240.399891 -238.960189 
L 240.494768 -236.489411 
L 240.593061 -234.018632 
L 240.702164 -231.547854 
L 240.829062 -229.077076 
L 240.979967 -226.606297 
L 241.159991 -224.135519 
L 241.372879 -221.664741 
L 241.620827 -219.193963 
L 241.904368 -216.723184 
L 242.222357 -214.252406 
L 242.572037 -211.781628 
L 242.949194 -209.310849 
L 243.348392 -206.840071 
L 243.763274 -204.369293 
L 244.186931 -201.898514 
L 244.6123 -199.427736 
L 245.032601 -196.956958 
L 245.441768 -194.486179 
L 245.834876 -192.015401 
L 246.20851 -189.544623 
L 246.56109 -187.073844 
L 246.893096 -184.603066 
L 247.207194 -182.132288 
L 247.508243 -179.661509 
L 247.803166 -177.190731 
L 248.100695 -174.719953 
L 248.410991 -172.249174 
L 248.74514 -169.778396 
L 249.114576 -167.307618 
L 249.530428 -164.836839 
L 250.002839 -162.366061 
L 250.540298 -159.895283 
L 251.149006 -157.424504 
L 251.832315 -154.953726 
L 252.590271 -152.482948 
L 253.419283 -150.012169 
L 254.311927 -147.541391 
L 255.256903 -145.070613 
L 256.239152 -142.599834 
L 257.240122 -140.129056 
L 258.238187 -137.658278 
L 259.209213 -135.187499 
L 260.127257 -132.716721 
L 260.965379 -130.245943 
L 261.69656 -127.775164 
L 262.294684 -125.304386 
L 262.735559 -122.833608 
L 262.997941 -120.362829 
L 263.064498 -117.892051 
L 262.922669 -115.421273 
L 262.565377 -112.950494 
L 261.991516 -110.479716 
L 261.206198 -108.008938 
L 260.220718 -105.538159 
L 259.052213 -103.067381 
L 257.723051 -100.596603 
L 256.259946 -98.125824 
L 254.692866 -95.655046 
L 253.053798 -93.184268 
L 251.375433 -90.71349 
L 249.689866 -88.242711 
L 248.027378 -85.771933 
L 246.41538 -83.301155 
L 244.877562 -80.830376 
L 243.433295 -78.359598 
L 242.097302 -75.88882 
L 240.879584 -73.418041 
L 239.785592 -70.947263 
L 238.816598 -68.476485 
L 237.970222 -66.005706 
L 237.241068 -63.534928 
L 236.621405 -61.06415 
L 236.101853 -58.593371 
L 235.672032 -56.122593 
z
" style="stroke: #3f3f3f; stroke-width: 1.25"/>
    </defs>
    <g clip-path="url(#p0a8abfb118)">
     <use xlink:href="#md873de2f6e" x="0" y="360" style="fill: #df9c20; stroke: #3f3f3f; stroke-width: 1.25"/>
    </g>
   </g>
   <g id="PolyCollection_4">
    <defs>
     <path id="mff6c42fde6" d="M 307.787262 -61.253455 
L 305.201064 -61.253455 
L 304.837216 -63.112952 
L 304.394644 -64.972449 
L 303.863278 -66.831946 
L 303.233596 -68.691443 
L 302.497159 -70.55094 
L 301.647203 -72.410437 
L 300.67925 -74.269934 
L 299.591702 -76.129431 
L 298.386379 -77.988928 
L 297.068954 -79.848425 
L 295.649249 -81.707922 
L 294.14135 -83.567419 
L 292.563514 -85.426916 
L 290.937865 -87.286412 
L 289.289854 -89.145909 
L 287.647531 -91.005406 
L 286.040632 -92.864903 
L 284.499536 -94.7244 
L 283.054147 -96.583897 
L 281.732754 -98.443394 
L 280.560944 -100.302891 
L 279.560602 -102.162388 
L 278.74908 -104.021885 
L 278.138553 -105.881382 
L 277.735604 -107.740879 
L 277.541053 -109.600376 
L 277.55003 -111.459873 
L 277.75229 -113.31937 
L 278.13274 -115.178867 
L 278.672164 -117.038364 
L 279.348088 -118.897861 
L 280.135776 -120.757358 
L 281.009275 -122.616855 
L 281.942493 -124.476352 
L 282.910239 -126.335849 
L 283.889196 -128.195346 
L 284.858761 -130.054843 
L 285.801731 -131.91434 
L 286.704783 -133.773837 
L 287.558734 -135.633333 
L 288.358559 -137.49283 
L 289.103174 -139.352327 
L 289.79499 -141.211824 
L 290.439286 -143.071321 
L 291.04342 -144.930818 
L 291.615966 -146.790315 
L 292.165811 -148.649812 
L 292.701305 -150.509309 
L 293.229508 -152.368806 
L 293.755591 -154.228303 
L 294.282446 -156.0878 
L 294.810501 -157.947297 
L 295.337765 -159.806794 
L 295.860074 -161.666291 
L 296.371505 -163.525788 
L 296.86493 -165.385285 
L 297.332628 -167.244782 
L 297.766925 -169.104279 
L 298.160804 -170.963776 
L 298.508431 -172.823273 
L 298.805582 -174.68277 
L 299.049936 -176.542267 
L 299.241231 -178.401764 
L 299.381289 -180.261261 
L 299.473923 -182.120758 
L 299.524735 -183.980254 
L 299.540842 -185.839751 
L 299.530537 -187.699248 
L 299.502925 -189.558745 
L 299.467534 -191.418242 
L 299.433932 -193.277739 
L 299.411359 -195.137236 
L 299.408378 -196.996733 
L 299.432569 -198.85623 
L 299.490261 -200.715727 
L 299.586318 -202.575224 
L 299.723986 -204.434721 
L 299.904795 -206.294218 
L 300.128548 -208.153715 
L 300.393366 -210.013212 
L 300.695815 -211.872709 
L 301.031097 -213.732206 
L 301.393299 -215.591703 
L 301.775685 -217.4512 
L 302.171023 -219.310697 
L 302.571913 -221.170194 
L 302.971114 -223.029691 
L 303.361839 -224.889188 
L 303.738006 -226.748685 
L 304.094438 -228.608182 
L 304.426992 -230.467679 
L 304.73263 -232.327175 
L 305.009417 -234.186672 
L 305.256473 -236.046169 
L 305.473869 -237.905666 
L 305.662491 -239.765163 
L 305.823887 -241.62466 
L 305.960095 -243.484157 
L 306.073487 -245.343654 
L 306.914838 -245.343654 
L 306.914838 -245.343654 
L 307.02823 -243.484157 
L 307.164439 -241.62466 
L 307.325834 -239.765163 
L 307.514457 -237.905666 
L 307.731852 -236.046169 
L 307.978909 -234.186672 
L 308.255696 -232.327175 
L 308.561333 -230.467679 
L 308.893887 -228.608182 
L 309.250319 -226.748685 
L 309.626486 -224.889188 
L 310.017211 -223.029691 
L 310.416412 -221.170194 
L 310.817302 -219.310697 
L 311.21264 -217.4512 
L 311.595026 -215.591703 
L 311.957228 -213.732206 
L 312.29251 -211.872709 
L 312.594959 -210.013212 
L 312.859777 -208.153715 
L 313.08353 -206.294218 
L 313.26434 -204.434721 
L 313.402007 -202.575224 
L 313.498065 -200.715727 
L 313.555756 -198.85623 
L 313.579947 -196.996733 
L 313.576966 -195.137236 
L 313.554393 -193.277739 
L 313.520792 -191.418242 
L 313.485401 -189.558745 
L 313.457789 -187.699248 
L 313.447484 -185.839751 
L 313.46359 -183.980254 
L 313.514402 -182.120758 
L 313.607036 -180.261261 
L 313.747094 -178.401764 
L 313.938389 -176.542267 
L 314.182743 -174.68277 
L 314.479894 -172.823273 
L 314.827522 -170.963776 
L 315.2214 -169.104279 
L 315.655698 -167.244782 
L 316.123395 -165.385285 
L 316.61682 -163.525788 
L 317.128252 -161.666291 
L 317.65056 -159.806794 
L 318.177824 -157.947297 
L 318.70588 -156.0878 
L 319.232735 -154.228303 
L 319.758818 -152.368806 
L 320.28702 -150.509309 
L 320.822514 -148.649812 
L 321.37236 -146.790315 
L 321.944905 -144.930818 
L 322.54904 -143.071321 
L 323.193335 -141.211824 
L 323.885152 -139.352327 
L 324.629766 -137.49283 
L 325.429591 -135.633333 
L 326.283543 -133.773837 
L 327.186595 -131.91434 
L 328.129565 -130.054843 
L 329.09913 -128.195346 
L 330.078086 -126.335849 
L 331.045833 -124.476352 
L 331.97905 -122.616855 
L 332.852549 -120.757358 
L 333.640237 -118.897861 
L 334.316162 -117.038364 
L 334.855585 -115.178867 
L 335.236036 -113.31937 
L 335.438296 -111.459873 
L 335.447273 -109.600376 
L 335.252721 -107.740879 
L 334.849772 -105.881382 
L 334.239245 -104.021885 
L 333.427723 -102.162388 
L 332.427382 -100.302891 
L 331.255571 -98.443394 
L 329.934179 -96.583897 
L 328.488789 -94.7244 
L 326.947693 -92.864903 
L 325.340794 -91.005406 
L 323.698472 -89.145909 
L 322.050461 -87.286412 
L 320.424811 -85.426916 
L 318.846976 -83.567419 
L 317.339076 -81.707922 
L 315.919371 -79.848425 
L 314.601946 -77.988928 
L 313.396623 -76.129431 
L 312.309075 -74.269934 
L 311.341123 -72.410437 
L 310.491167 -70.55094 
L 309.754729 -68.691443 
L 309.125047 -66.831946 
L 308.593682 -64.972449 
L 308.15111 -63.112952 
L 307.787262 -61.253455 
z
" style="stroke: #3f3f3f; stroke-width: 1.25"/>
    </defs>
    <g clip-path="url(#p0a8abfb118)">
     <use xlink:href="#mff6c42fde6" x="0" y="360" style="fill: #df2020; stroke: #3f3f3f; stroke-width: 1.25"/>
    </g>
   </g>
   <g id="matplotlib.axis_1">
    <g id="xtick_1">
     <g id="line2d_1">
      <defs>
       <path id="m6a0e7a3bd0" d="M 0 0 
L 0 3.5 
" style="stroke: #000000; stroke-width: 0.8"/>
      </defs>
      <g>
       <use xlink:href="#m6a0e7a3bd0" x="89.345837" y="316.10776" style="stroke: #000000; stroke-width: 0.8"/>
      </g>
     </g>
     <g id="text_1">
      <!-- sur -->
      <g transform="translate(76.803531 339.552412) rotate(-45) scale(0.1 -0.1)">
       <defs>
        <path id="DejaVuSans-73" d="M 2834 3397 
L 2834 2853 
Q 2591 2978 2328 3040 
Q 2066 3103 1784 3103 
Q 1356 3103 1142 2972 
Q 928 2841 928 2578 
Q 928 2378 1081 2264 
Q 1234 2150 1697 2047 
L 1894 2003 
Q 2506 1872 2764 1633 
Q 3022 1394 3022 966 
Q 3022 478 2636 193 
Q 2250 -91 1575 -91 
Q 1294 -91 989 -36 
Q 684 19 347 128 
L 347 722 
Q 666 556 975 473 
Q 1284 391 1588 391 
Q 1994 391 2212 530 
Q 2431 669 2431 922 
Q 2431 1156 2273 1281 
Q 2116 1406 1581 1522 
L 1381 1569 
Q 847 1681 609 1914 
Q 372 2147 372 2553 
Q 372 3047 722 3315 
Q 1072 3584 1716 3584 
Q 2034 3584 2315 3537 
Q 2597 3491 2834 3397 
z
" transform="scale(0.015625)"/>
        <path id="DejaVuSans-75" d="M 544 1381 
L 544 3500 
L 1119 3500 
L 1119 1403 
Q 1119 906 1312 657 
Q 1506 409 1894 409 
Q 2359 409 2629 706 
Q 2900 1003 2900 1516 
L 2900 3500 
L 3475 3500 
L 3475 0 
L 2900 0 
L 2900 538 
Q 2691 219 2414 64 
Q 2138 -91 1772 -91 
Q 1169 -91 856 284 
Q 544 659 544 1381 
z
M 1991 3584 
L 1991 3584 
z
" transform="scale(0.015625)"/>
        <path id="DejaVuSans-72" d="M 2631 2963 
Q 2534 3019 2420 3045 
Q 2306 3072 2169 3072 
Q 1681 3072 1420 2755 
Q 1159 2438 1159 1844 
L 1159 0 
L 581 0 
L 581 3500 
L 1159 3500 
L 1159 2956 
Q 1341 3275 1631 3429 
Q 1922 3584 2338 3584 
Q 2397 3584 2469 3576 
Q 2541 3569 2628 3553 
L 2631 2963 
z
" transform="scale(0.015625)"/>
       </defs>
       <use xlink:href="#DejaVuSans-73"/>
       <use xlink:href="#DejaVuSans-75" x="52.099609"/>
       <use xlink:href="#DejaVuSans-72" x="115.478516"/>
      </g>
     </g>
    </g>
    <g id="xtick_2">
     <g id="line2d_2">
      <g>
       <use xlink:href="#m6a0e7a3bd0" x="161.728612" y="316.10776" style="stroke: #000000; stroke-width: 0.8"/>
      </g>
     </g>
     <g id="text_2">
      <!-- iso90 -->
      <g transform="translate(141.285492 347.453225) rotate(-45) scale(0.1 -0.1)">
       <defs>
        <path id="DejaVuSans-69" d="M 603 3500 
L 1178 3500 
L 1178 0 
L 603 0 
L 603 3500 
z
M 603 4863 
L 1178 4863 
L 1178 4134 
L 603 4134 
L 603 4863 
z
" transform="scale(0.015625)"/>
        <path id="DejaVuSans-6f" d="M 1959 3097 
Q 1497 3097 1228 2736 
Q 959 2375 959 1747 
Q 959 1119 1226 758 
Q 1494 397 1959 397 
Q 2419 397 2687 759 
Q 2956 1122 2956 1747 
Q 2956 2369 2687 2733 
Q 2419 3097 1959 3097 
z
M 1959 3584 
Q 2709 3584 3137 3096 
Q 3566 2609 3566 1747 
Q 3566 888 3137 398 
Q 2709 -91 1959 -91 
Q 1206 -91 779 398 
Q 353 888 353 1747 
Q 353 2609 779 3096 
Q 1206 3584 1959 3584 
z
" transform="scale(0.015625)"/>
        <path id="DejaVuSans-39" d="M 703 97 
L 703 672 
Q 941 559 1184 500 
Q 1428 441 1663 441 
Q 2288 441 2617 861 
Q 2947 1281 2994 2138 
Q 2813 1869 2534 1725 
Q 2256 1581 1919 1581 
Q 1219 1581 811 2004 
Q 403 2428 403 3163 
Q 403 3881 828 4315 
Q 1253 4750 1959 4750 
Q 2769 4750 3195 4129 
Q 3622 3509 3622 2328 
Q 3622 1225 3098 567 
Q 2575 -91 1691 -91 
Q 1453 -91 1209 -44 
Q 966 3 703 97 
z
M 1959 2075 
Q 2384 2075 2632 2365 
Q 2881 2656 2881 3163 
Q 2881 3666 2632 3958 
Q 2384 4250 1959 4250 
Q 1534 4250 1286 3958 
Q 1038 3666 1038 3163 
Q 1038 2656 1286 2365 
Q 1534 2075 1959 2075 
z
" transform="scale(0.015625)"/>
        <path id="DejaVuSans-30" d="M 2034 4250 
Q 1547 4250 1301 3770 
Q 1056 3291 1056 2328 
Q 1056 1369 1301 889 
Q 1547 409 2034 409 
Q 2525 409 2770 889 
Q 3016 1369 3016 2328 
Q 3016 3291 2770 3770 
Q 2525 4250 2034 4250 
z
M 2034 4750 
Q 2819 4750 3233 4129 
Q 3647 3509 3647 2328 
Q 3647 1150 3233 529 
Q 2819 -91 2034 -91 
Q 1250 -91 836 529 
Q 422 1150 422 2328 
Q 422 3509 836 4129 
Q 1250 4750 2034 4750 
z
" transform="scale(0.015625)"/>
       </defs>
       <use xlink:href="#DejaVuSans-69"/>
       <use xlink:href="#DejaVuSans-73" x="27.783203"/>
       <use xlink:href="#DejaVuSans-6f" x="79.882812"/>
       <use xlink:href="#DejaVuSans-39" x="141.064453"/>
       <use xlink:href="#DejaVuSans-30" x="204.6875"/>
      </g>
     </g>
    </g>
    <g id="xtick_3">
     <g id="line2d_3">
      <g>
       <use xlink:href="#m6a0e7a3bd0" x="234.111388" y="316.10776" style="stroke: #000000; stroke-width: 0.8"/>
      </g>
     </g>
     <g id="text_3">
      <!-- orth -->
      <g transform="translate(218.153976 342.967517) rotate(-45) scale(0.1 -0.1)">
       <defs>
        <path id="DejaVuSans-74" d="M 1172 4494 
L 1172 3500 
L 2356 3500 
L 2356 3053 
L 1172 3053 
L 1172 1153 
Q 1172 725 1289 603 
Q 1406 481 1766 481 
L 2356 481 
L 2356 0 
L 1766 0 
Q 1100 0 847 248 
Q 594 497 594 1153 
L 594 3053 
L 172 3053 
L 172 3500 
L 594 3500 
L 594 4494 
L 1172 4494 
z
" transform="scale(0.015625)"/>
        <path id="DejaVuSans-68" d="M 3513 2113 
L 3513 0 
L 2938 0 
L 2938 2094 
Q 2938 2591 2744 2837 
Q 2550 3084 2163 3084 
Q 1697 3084 1428 2787 
Q 1159 2491 1159 1978 
L 1159 0 
L 581 0 
L 581 4863 
L 1159 4863 
L 1159 2956 
Q 1366 3272 1645 3428 
Q 1925 3584 2291 3584 
Q 2894 3584 3203 3211 
Q 3513 2838 3513 2113 
z
" transform="scale(0.015625)"/>
       </defs>
       <use xlink:href="#DejaVuSans-6f"/>
       <use xlink:href="#DejaVuSans-72" x="61.181641"/>
       <use xlink:href="#DejaVuSans-74" x="102.294922"/>
       <use xlink:href="#DejaVuSans-68" x="141.503906"/>
      </g>
     </g>
    </g>
    <g id="xtick_4">
     <g id="line2d_4">
      <g>
       <use xlink:href="#m6a0e7a3bd0" x="306.494163" y="316.10776" style="stroke: #000000; stroke-width: 0.8"/>
      </g>
     </g>
     <g id="text_4">
      <!-- iso0 -->
      <g transform="translate(290.55001 342.954258) rotate(-45) scale(0.1 -0.1)">
       <use xlink:href="#DejaVuSans-69"/>
       <use xlink:href="#DejaVuSans-73" x="27.783203"/>
       <use xlink:href="#DejaVuSans-6f" x="79.882812"/>
       <use xlink:href="#DejaVuSans-30" x="141.064453"/>
      </g>
     </g>
    </g>
   </g>
   <g id="matplotlib.axis_2">
    <g id="ytick_1">
     <g id="line2d_5">
      <defs>
       <path id="me9f62dfb8d" d="M 0 0 
L -3.5 0 
" style="stroke: #000000; stroke-width: 0.8"/>
      </defs>
      <g>
       <use xlink:href="#me9f62dfb8d" x="46.64" y="310.536543" style="stroke: #000000; stroke-width: 0.8"/>
      </g>
     </g>
     <g id="text_5">
      <!-- −5 -->
      <g transform="translate(24.897813 314.335762) scale(0.1 -0.1)">
       <defs>
        <path id="DejaVuSans-2212" d="M 678 2272 
L 4684 2272 
L 4684 1741 
L 678 1741 
L 678 2272 
z
" transform="scale(0.015625)"/>
        <path id="DejaVuSans-35" d="M 691 4666 
L 3169 4666 
L 3169 4134 
L 1269 4134 
L 1269 2991 
Q 1406 3038 1543 3061 
Q 1681 3084 1819 3084 
Q 2600 3084 3056 2656 
Q 3513 2228 3513 1497 
Q 3513 744 3044 326 
Q 2575 -91 1722 -91 
Q 1428 -91 1123 -41 
Q 819 9 494 109 
L 494 744 
Q 775 591 1075 516 
Q 1375 441 1709 441 
Q 2250 441 2565 725 
Q 2881 1009 2881 1497 
Q 2881 1984 2565 2268 
Q 2250 2553 1709 2553 
Q 1456 2553 1204 2497 
Q 953 2441 691 2322 
L 691 4666 
z
" transform="scale(0.015625)"/>
       </defs>
       <use xlink:href="#DejaVuSans-2212"/>
       <use xlink:href="#DejaVuSans-35" x="83.789062"/>
      </g>
     </g>
    </g>
    <g id="ytick_2">
     <g id="line2d_6">
      <g>
       <use xlink:href="#me9f62dfb8d" x="46.64" y="273.535134" style="stroke: #000000; stroke-width: 0.8"/>
      </g>
     </g>
     <g id="text_6">
      <!-- 0 -->
      <g transform="translate(33.2775 277.334352) scale(0.1 -0.1)">
       <use xlink:href="#DejaVuSans-30"/>
      </g>
     </g>
    </g>
    <g id="ytick_3">
     <g id="line2d_7">
      <g>
       <use xlink:href="#me9f62dfb8d" x="46.64" y="236.533724" style="stroke: #000000; stroke-width: 0.8"/>
      </g>
     </g>
     <g id="text_7">
      <!-- 5 -->
      <g transform="translate(33.2775 240.332943) scale(0.1 -0.1)">
       <use xlink:href="#DejaVuSans-35"/>
      </g>
     </g>
    </g>
    <g id="ytick_4">
     <g id="line2d_8">
      <g>
       <use xlink:href="#me9f62dfb8d" x="46.64" y="199.532315" style="stroke: #000000; stroke-width: 0.8"/>
      </g>
     </g>
     <g id="text_8">
      <!-- 10 -->
      <g transform="translate(26.915 203.331533) scale(0.1 -0.1)">
       <defs>
        <path id="DejaVuSans-31" d="M 794 531 
L 1825 531 
L 1825 4091 
L 703 3866 
L 703 4441 
L 1819 4666 
L 2450 4666 
L 2450 531 
L 3481 531 
L 3481 0 
L 794 0 
L 794 531 
z
" transform="scale(0.015625)"/>
       </defs>
       <use xlink:href="#DejaVuSans-31"/>
       <use xlink:href="#DejaVuSans-30" x="63.623047"/>
      </g>
     </g>
    </g>
    <g id="ytick_5">
     <g id="line2d_9">
      <g>
       <use xlink:href="#me9f62dfb8d" x="46.64" y="162.530905" style="stroke: #000000; stroke-width: 0.8"/>
      </g>
     </g>
     <g id="text_9">
      <!-- 15 -->
      <g transform="translate(26.915 166.330124) scale(0.1 -0.1)">
       <use xlink:href="#DejaVuSans-31"/>
       <use xlink:href="#DejaVuSans-35" x="63.623047"/>
      </g>
     </g>
    </g>
    <g id="ytick_6">
     <g id="line2d_10">
      <g>
       <use xlink:href="#me9f62dfb8d" x="46.64" y="125.529496" style="stroke: #000000; stroke-width: 0.8"/>
      </g>
     </g>
     <g id="text_10">
      <!-- 20 -->
      <g transform="translate(26.915 129.328714) scale(0.1 -0.1)">
       <defs>
        <path id="DejaVuSans-32" d="M 1228 531 
L 3431 531 
L 3431 0 
L 469 0 
L 469 531 
Q 828 903 1448 1529 
Q 2069 2156 2228 2338 
Q 2531 2678 2651 2914 
Q 2772 3150 2772 3378 
Q 2772 3750 2511 3984 
Q 2250 4219 1831 4219 
Q 1534 4219 1204 4116 
Q 875 4013 500 3803 
L 500 4441 
Q 881 4594 1212 4672 
Q 1544 4750 1819 4750 
Q 2544 4750 2975 4387 
Q 3406 4025 3406 3419 
Q 3406 3131 3298 2873 
Q 3191 2616 2906 2266 
Q 2828 2175 2409 1742 
Q 1991 1309 1228 531 
z
" transform="scale(0.015625)"/>
       </defs>
       <use xlink:href="#DejaVuSans-32"/>
       <use xlink:href="#DejaVuSans-30" x="63.623047"/>
      </g>
     </g>
    </g>
    <g id="ytick_7">
     <g id="line2d_11">
      <g>
       <use xlink:href="#me9f62dfb8d" x="46.64" y="88.528086" style="stroke: #000000; stroke-width: 0.8"/>
      </g>
     </g>
     <g id="text_11">
      <!-- 25 -->
      <g transform="translate(26.915 92.327305) scale(0.1 -0.1)">
       <use xlink:href="#DejaVuSans-32"/>
       <use xlink:href="#DejaVuSans-35" x="63.623047"/>
      </g>
     </g>
    </g>
    <g id="ytick_8">
     <g id="line2d_12">
      <g>
       <use xlink:href="#me9f62dfb8d" x="46.64" y="51.526677" style="stroke: #000000; stroke-width: 0.8"/>
      </g>
     </g>
     <g id="text_12">
      <!-- 30 -->
      <g transform="translate(26.915 55.325896) scale(0.1 -0.1)">
       <defs>
        <path id="DejaVuSans-33" d="M 2597 2516 
Q 3050 2419 3304 2112 
Q 3559 1806 3559 1356 
Q 3559 666 3084 287 
Q 2609 -91 1734 -91 
Q 1441 -91 1130 -33 
Q 819 25 488 141 
L 488 750 
Q 750 597 1062 519 
Q 1375 441 1716 441 
Q 2309 441 2620 675 
Q 2931 909 2931 1356 
Q 2931 1769 2642 2001 
Q 2353 2234 1838 2234 
L 1294 2234 
L 1294 2753 
L 1863 2753 
Q 2328 2753 2575 2939 
Q 2822 3125 2822 3475 
Q 2822 3834 2567 4026 
Q 2313 4219 1838 4219 
Q 1578 4219 1281 4162 
Q 984 4106 628 3988 
L 628 4550 
Q 988 4650 1302 4700 
Q 1616 4750 1894 4750 
Q 2613 4750 3031 4423 
Q 3450 4097 3450 3541 
Q 3450 3153 3228 2886 
Q 3006 2619 2597 2516 
z
" transform="scale(0.015625)"/>
       </defs>
       <use xlink:href="#DejaVuSans-33"/>
       <use xlink:href="#DejaVuSans-30" x="63.623047"/>
      </g>
     </g>
    </g>
    <g id="text_13">
     <!-- Average BOLD Response -->
     <g transform="translate(18.818125 243.213724) rotate(-90) scale(0.1 -0.1)">
      <defs>
       <path id="DejaVuSans-41" d="M 2188 4044 
L 1331 1722 
L 3047 1722 
L 2188 4044 
z
M 1831 4666 
L 2547 4666 
L 4325 0 
L 3669 0 
L 3244 1197 
L 1141 1197 
L 716 0 
L 50 0 
L 1831 4666 
z
" transform="scale(0.015625)"/>
       <path id="DejaVuSans-76" d="M 191 3500 
L 800 3500 
L 1894 563 
L 2988 3500 
L 3597 3500 
L 2284 0 
L 1503 0 
L 191 3500 
z
" transform="scale(0.015625)"/>
       <path id="DejaVuSans-65" d="M 3597 1894 
L 3597 1613 
L 953 1613 
Q 991 1019 1311 708 
Q 1631 397 2203 397 
Q 2534 397 2845 478 
Q 3156 559 3463 722 
L 3463 178 
Q 3153 47 2828 -22 
Q 2503 -91 2169 -91 
Q 1331 -91 842 396 
Q 353 884 353 1716 
Q 353 2575 817 3079 
Q 1281 3584 2069 3584 
Q 2775 3584 3186 3129 
Q 3597 2675 3597 1894 
z
M 3022 2063 
Q 3016 2534 2758 2815 
Q 2500 3097 2075 3097 
Q 1594 3097 1305 2825 
Q 1016 2553 972 2059 
L 3022 2063 
z
" transform="scale(0.015625)"/>
       <path id="DejaVuSans-61" d="M 2194 1759 
Q 1497 1759 1228 1600 
Q 959 1441 959 1056 
Q 959 750 1161 570 
Q 1363 391 1709 391 
Q 2188 391 2477 730 
Q 2766 1069 2766 1631 
L 2766 1759 
L 2194 1759 
z
M 3341 1997 
L 3341 0 
L 2766 0 
L 2766 531 
Q 2569 213 2275 61 
Q 1981 -91 1556 -91 
Q 1019 -91 701 211 
Q 384 513 384 1019 
Q 384 1609 779 1909 
Q 1175 2209 1959 2209 
L 2766 2209 
L 2766 2266 
Q 2766 2663 2505 2880 
Q 2244 3097 1772 3097 
Q 1472 3097 1187 3025 
Q 903 2953 641 2809 
L 641 3341 
Q 956 3463 1253 3523 
Q 1550 3584 1831 3584 
Q 2591 3584 2966 3190 
Q 3341 2797 3341 1997 
z
" transform="scale(0.015625)"/>
       <path id="DejaVuSans-67" d="M 2906 1791 
Q 2906 2416 2648 2759 
Q 2391 3103 1925 3103 
Q 1463 3103 1205 2759 
Q 947 2416 947 1791 
Q 947 1169 1205 825 
Q 1463 481 1925 481 
Q 2391 481 2648 825 
Q 2906 1169 2906 1791 
z
M 3481 434 
Q 3481 -459 3084 -895 
Q 2688 -1331 1869 -1331 
Q 1566 -1331 1297 -1286 
Q 1028 -1241 775 -1147 
L 775 -588 
Q 1028 -725 1275 -790 
Q 1522 -856 1778 -856 
Q 2344 -856 2625 -561 
Q 2906 -266 2906 331 
L 2906 616 
Q 2728 306 2450 153 
Q 2172 0 1784 0 
Q 1141 0 747 490 
Q 353 981 353 1791 
Q 353 2603 747 3093 
Q 1141 3584 1784 3584 
Q 2172 3584 2450 3431 
Q 2728 3278 2906 2969 
L 2906 3500 
L 3481 3500 
L 3481 434 
z
" transform="scale(0.015625)"/>
       <path id="DejaVuSans-20" transform="scale(0.015625)"/>
       <path id="DejaVuSans-42" d="M 1259 2228 
L 1259 519 
L 2272 519 
Q 2781 519 3026 730 
Q 3272 941 3272 1375 
Q 3272 1813 3026 2020 
Q 2781 2228 2272 2228 
L 1259 2228 
z
M 1259 4147 
L 1259 2741 
L 2194 2741 
Q 2656 2741 2882 2914 
Q 3109 3088 3109 3444 
Q 3109 3797 2882 3972 
Q 2656 4147 2194 4147 
L 1259 4147 
z
M 628 4666 
L 2241 4666 
Q 2963 4666 3353 4366 
Q 3744 4066 3744 3513 
Q 3744 3084 3544 2831 
Q 3344 2578 2956 2516 
Q 3422 2416 3680 2098 
Q 3938 1781 3938 1306 
Q 3938 681 3513 340 
Q 3088 0 2303 0 
L 628 0 
L 628 4666 
z
" transform="scale(0.015625)"/>
       <path id="DejaVuSans-4f" d="M 2522 4238 
Q 1834 4238 1429 3725 
Q 1025 3213 1025 2328 
Q 1025 1447 1429 934 
Q 1834 422 2522 422 
Q 3209 422 3611 934 
Q 4013 1447 4013 2328 
Q 4013 3213 3611 3725 
Q 3209 4238 2522 4238 
z
M 2522 4750 
Q 3503 4750 4090 4092 
Q 4678 3434 4678 2328 
Q 4678 1225 4090 567 
Q 3503 -91 2522 -91 
Q 1538 -91 948 565 
Q 359 1222 359 2328 
Q 359 3434 948 4092 
Q 1538 4750 2522 4750 
z
" transform="scale(0.015625)"/>
       <path id="DejaVuSans-4c" d="M 628 4666 
L 1259 4666 
L 1259 531 
L 3531 531 
L 3531 0 
L 628 0 
L 628 4666 
z
" transform="scale(0.015625)"/>
       <path id="DejaVuSans-44" d="M 1259 4147 
L 1259 519 
L 2022 519 
Q 2988 519 3436 956 
Q 3884 1394 3884 2338 
Q 3884 3275 3436 3711 
Q 2988 4147 2022 4147 
L 1259 4147 
z
M 628 4666 
L 1925 4666 
Q 3281 4666 3915 4102 
Q 4550 3538 4550 2338 
Q 4550 1131 3912 565 
Q 3275 0 1925 0 
L 628 0 
L 628 4666 
z
" transform="scale(0.015625)"/>
       <path id="DejaVuSans-52" d="M 2841 2188 
Q 3044 2119 3236 1894 
Q 3428 1669 3622 1275 
L 4263 0 
L 3584 0 
L 2988 1197 
Q 2756 1666 2539 1819 
Q 2322 1972 1947 1972 
L 1259 1972 
L 1259 0 
L 628 0 
L 628 4666 
L 2053 4666 
Q 2853 4666 3247 4331 
Q 3641 3997 3641 3322 
Q 3641 2881 3436 2590 
Q 3231 2300 2841 2188 
z
M 1259 4147 
L 1259 2491 
L 2053 2491 
Q 2509 2491 2742 2702 
Q 2975 2913 2975 3322 
Q 2975 3731 2742 3939 
Q 2509 4147 2053 4147 
L 1259 4147 
z
" transform="scale(0.015625)"/>
       <path id="DejaVuSans-70" d="M 1159 525 
L 1159 -1331 
L 581 -1331 
L 581 3500 
L 1159 3500 
L 1159 2969 
Q 1341 3281 1617 3432 
Q 1894 3584 2278 3584 
Q 2916 3584 3314 3078 
Q 3713 2572 3713 1747 
Q 3713 922 3314 415 
Q 2916 -91 2278 -91 
Q 1894 -91 1617 61 
Q 1341 213 1159 525 
z
M 3116 1747 
Q 3116 2381 2855 2742 
Q 2594 3103 2138 3103 
Q 1681 3103 1420 2742 
Q 1159 2381 1159 1747 
Q 1159 1113 1420 752 
Q 1681 391 2138 391 
Q 2594 391 2855 752 
Q 3116 1113 3116 1747 
z
" transform="scale(0.015625)"/>
       <path id="DejaVuSans-6e" d="M 3513 2113 
L 3513 0 
L 2938 0 
L 2938 2094 
Q 2938 2591 2744 2837 
Q 2550 3084 2163 3084 
Q 1697 3084 1428 2787 
Q 1159 2491 1159 1978 
L 1159 0 
L 581 0 
L 581 3500 
L 1159 3500 
L 1159 2956 
Q 1366 3272 1645 3428 
Q 1925 3584 2291 3584 
Q 2894 3584 3203 3211 
Q 3513 2838 3513 2113 
z
" transform="scale(0.015625)"/>
      </defs>
      <use xlink:href="#DejaVuSans-41"/>
      <use xlink:href="#DejaVuSans-76" x="62.533203"/>
      <use xlink:href="#DejaVuSans-65" x="121.712891"/>
      <use xlink:href="#DejaVuSans-72" x="183.236328"/>
      <use xlink:href="#DejaVuSans-61" x="224.349609"/>
      <use xlink:href="#DejaVuSans-67" x="285.628906"/>
      <use xlink:href="#DejaVuSans-65" x="349.105469"/>
      <use xlink:href="#DejaVuSans-20" x="410.628906"/>
      <use xlink:href="#DejaVuSans-42" x="442.416016"/>
      <use xlink:href="#DejaVuSans-4f" x="509.269531"/>
      <use xlink:href="#DejaVuSans-4c" x="587.980469"/>
      <use xlink:href="#DejaVuSans-44" x="643.693359"/>
      <use xlink:href="#DejaVuSans-20" x="720.695312"/>
      <use xlink:href="#DejaVuSans-52" x="752.482422"/>
      <use xlink:href="#DejaVuSans-65" x="817.464844"/>
      <use xlink:href="#DejaVuSans-73" x="878.988281"/>
      <use xlink:href="#DejaVuSans-70" x="931.087891"/>
      <use xlink:href="#DejaVuSans-6f" x="994.564453"/>
      <use xlink:href="#DejaVuSans-6e" x="1055.746094"/>
      <use xlink:href="#DejaVuSans-73" x="1119.125"/>
      <use xlink:href="#DejaVuSans-65" x="1171.224609"/>
     </g>
    </g>
   </g>
   <g id="line2d_13">
    <path d="M 74.869282 229.117783 
L 103.822392 229.117783 
" clip-path="url(#p0a8abfb118)" style="fill: none; stroke: #b2b2b2; stroke-width: 2; stroke-linecap: square"/>
   </g>
   <g id="line2d_14">
    <path d="M 147.252057 216.082057 
L 176.205167 216.082057 
" clip-path="url(#p0a8abfb118)" style="fill: none; stroke: #9400d3; stroke-width: 2; stroke-linecap: square"/>
   </g>
   <g id="line2d_15">
    <path d="M 219.634833 211.10838 
L 248.587943 211.10838 
" clip-path="url(#p0a8abfb118)" style="fill: none; stroke: #ffa500; stroke-width: 2; stroke-linecap: square"/>
   </g>
   <g id="line2d_16">
    <path d="M 292.017608 227.937267 
L 320.970718 227.937267 
" clip-path="url(#p0a8abfb118)" style="fill: none; stroke: #ff0000; stroke-width: 2; stroke-linecap: square"/>
   </g>
   <g id="patch_3">
    <path d="M 46.64 316.10776 
L 46.64 47.04 
" style="fill: none; stroke: #000000; stroke-width: 0.8; stroke-linejoin: miter; stroke-linecap: square"/>
   </g>
   <g id="patch_4">
    <path d="M 349.2 316.10776 
L 349.2 47.04 
" style="fill: none; stroke: #000000; stroke-width: 0.8; stroke-linejoin: miter; stroke-linecap: square"/>
   </g>
   <g id="patch_5">
    <path d="M 46.64 316.10776 
L 349.2 316.10776 
" style="fill: none; stroke: #000000; stroke-width: 0.8; stroke-linejoin: miter; stroke-linecap: square"/>
   </g>
   <g id="patch_6">
    <path d="M 46.64 47.04 
L 349.2 47.04 
" style="fill: none; stroke: #000000; stroke-width: 0.8; stroke-linejoin: miter; stroke-linecap: square"/>
   </g>
   <g id="PathCollection_1">
    <defs>
     <path id="m677634801f" d="M 0 2.5 
C 0.663008 2.5 1.29895 2.236584 1.767767 1.767767 
C 2.236584 1.29895 2.5 0.663008 2.5 0 
C 2.5 -0.663008 2.236584 -1.29895 1.767767 -1.767767 
C 1.29895 -2.236584 0.663008 -2.5 0 -2.5 
C -0.663008 -2.5 -1.29895 -2.236584 -1.767767 -1.767767 
C -2.236584 -1.29895 -2.5 -0.663008 -2.5 0 
C -2.5 0.663008 -2.236584 1.29895 -1.767767 1.767767 
C -1.29895 2.236584 -0.663008 2.5 0 2.5 
z
"/>
    </defs>
    <g clip-path="url(#p0a8abfb118)">
     <use xlink:href="#m677634801f" x="88.54554" y="252.430597" style="fill-opacity: 0.7"/>
     <use xlink:href="#m677634801f" x="87.949243" y="257.690094" style="fill-opacity: 0.7"/>
     <use xlink:href="#m677634801f" x="104.464898" y="258.593154" style="fill-opacity: 0.7"/>
     <use xlink:href="#m677634801f" x="79.364535" y="260.324783" style="fill-opacity: 0.7"/>
     <use xlink:href="#m677634801f" x="89.345837" y="231.503852" style="fill-opacity: 0.7"/>
     <use xlink:href="#m677634801f" x="84.370322" y="194.814418" style="fill-opacity: 0.7"/>
     <use xlink:href="#m677634801f" x="92.676887" y="255.515852" style="fill-opacity: 0.7"/>
     <use xlink:href="#m677634801f" x="89.345837" y="158.991526" style="fill-opacity: 0.7"/>
     <use xlink:href="#m677634801f" x="89.345837" y="225.769554" style="fill-opacity: 0.7"/>
     <use xlink:href="#m677634801f" x="77.953468" y="254.980785" style="fill-opacity: 0.7"/>
     <use xlink:href="#m677634801f" x="84.095872" y="262.491727" style="fill-opacity: 0.7"/>
     <use xlink:href="#m677634801f" x="94.545869" y="246.438006" style="fill-opacity: 0.7"/>
     <use xlink:href="#m677634801f" x="89.345837" y="270.263633" style="fill-opacity: 0.7"/>
     <use xlink:href="#m677634801f" x="96.50133" y="252.090438" style="fill-opacity: 0.7"/>
     <use xlink:href="#m677634801f" x="89.345837" y="212.961148" style="fill-opacity: 0.7"/>
     <use xlink:href="#m677634801f" x="89.345837" y="247.126213" style="fill-opacity: 0.7"/>
     <use xlink:href="#m677634801f" x="89.345837" y="168.2643" style="fill-opacity: 0.7"/>
     <use xlink:href="#m677634801f" x="84.212713" y="230.454704" style="fill-opacity: 0.7"/>
     <use xlink:href="#m677634801f" x="69.100278" y="258.342314" style="fill-opacity: 0.7"/>
     <use xlink:href="#m677634801f" x="84.429452" y="245.372267" style="fill-opacity: 0.7"/>
     <use xlink:href="#m677634801f" x="89.345837" y="240.396211" style="fill-opacity: 0.7"/>
     <use xlink:href="#m677634801f" x="74.306906" y="258.983687" style="fill-opacity: 0.7"/>
     <use xlink:href="#m677634801f" x="82.907738" y="256.635218" style="fill-opacity: 0.7"/>
     <use xlink:href="#m677634801f" x="89.345837" y="202.41451" style="fill-opacity: 0.7"/>
     <use xlink:href="#m677634801f" x="83.465374" y="251.169126" style="fill-opacity: 0.7"/>
     <use xlink:href="#m677634801f" x="94.018909" y="200.13577" style="fill-opacity: 0.7"/>
     <use xlink:href="#m677634801f" x="94.161381" y="260.518334" style="fill-opacity: 0.7"/>
     <use xlink:href="#m677634801f" x="84.095984" y="218.793207" style="fill-opacity: 0.7"/>
     <use xlink:href="#m677634801f" x="99.280531" y="244.27766" style="fill-opacity: 0.7"/>
     <use xlink:href="#m677634801f" x="86.136679" y="164.307183" style="fill-opacity: 0.7"/>
     <use xlink:href="#m677634801f" x="89.345837" y="262.509934" style="fill-opacity: 0.7"/>
     <use xlink:href="#m677634801f" x="79.348412" y="244.113992" style="fill-opacity: 0.7"/>
     <use xlink:href="#m677634801f" x="78.597008" y="249.297629" style="fill-opacity: 0.7"/>
     <use xlink:href="#m677634801f" x="99.316642" y="259.572747" style="fill-opacity: 0.7"/>
     <use xlink:href="#m677634801f" x="84.365544" y="200.832531" style="fill-opacity: 0.7"/>
     <use xlink:href="#m677634801f" x="94.459281" y="211.828179" style="fill-opacity: 0.7"/>
     <use xlink:href="#m677634801f" x="84.829371" y="237.847096" style="fill-opacity: 0.7"/>
     <use xlink:href="#m677634801f" x="86.409772" y="154.846532" style="fill-opacity: 0.7"/>
     <use xlink:href="#m677634801f" x="89.345837" y="218.830639" style="fill-opacity: 0.7"/>
     <use xlink:href="#m677634801f" x="89.345837" y="196.409975" style="fill-opacity: 0.7"/>
     <use xlink:href="#m677634801f" x="89.345837" y="132.487698" style="fill-opacity: 0.7"/>
     <use xlink:href="#m677634801f" x="84.139224" y="212.319668" style="fill-opacity: 0.7"/>
    </g>
   </g>
   <g id="PathCollection_2">
    <g clip-path="url(#p0a8abfb118)">
     <use xlink:href="#m677634801f" x="153.40992" y="257.210736" style="fill-opacity: 0.7"/>
     <use xlink:href="#m677634801f" x="163.730289" y="258.631827" style="fill-opacity: 0.7"/>
     <use xlink:href="#m677634801f" x="161.728612" y="263.254143" style="fill-opacity: 0.7"/>
     <use xlink:href="#m677634801f" x="161.728612" y="250.487236" style="fill-opacity: 0.7"/>
     <use xlink:href="#m677634801f" x="171.337481" y="224.64474" style="fill-opacity: 0.7"/>
     <use xlink:href="#m677634801f" x="159.994387" y="162.143034" style="fill-opacity: 0.7"/>
     <use xlink:href="#m677634801f" x="155.239621" y="234.362716" style="fill-opacity: 0.7"/>
     <use xlink:href="#m677634801f" x="158.884708" y="138.860838" style="fill-opacity: 0.7"/>
     <use xlink:href="#m677634801f" x="156.488869" y="228.295136" style="fill-opacity: 0.7"/>
     <use xlink:href="#m677634801f" x="156.926642" y="248.466128" style="fill-opacity: 0.7"/>
     <use xlink:href="#m677634801f" x="168.883619" y="257.676743" style="fill-opacity: 0.7"/>
     <use xlink:href="#m677634801f" x="166.687766" y="226.966411" style="fill-opacity: 0.7"/>
     <use xlink:href="#m677634801f" x="179.354586" y="256.982289" style="fill-opacity: 0.7"/>
     <use xlink:href="#m677634801f" x="159.781253" y="236.870947" style="fill-opacity: 0.7"/>
     <use xlink:href="#m677634801f" x="161.728612" y="202.014783" style="fill-opacity: 0.7"/>
     <use xlink:href="#m677634801f" x="161.728612" y="228.60752" style="fill-opacity: 0.7"/>
     <use xlink:href="#m677634801f" x="164.467723" y="125.103762" style="fill-opacity: 0.7"/>
     <use xlink:href="#m677634801f" x="162.801879" y="223.713116" style="fill-opacity: 0.7"/>
     <use xlink:href="#m677634801f" x="143.42395" y="254.903183" style="fill-opacity: 0.7"/>
     <use xlink:href="#m677634801f" x="163.507801" y="240.39287" style="fill-opacity: 0.7"/>
     <use xlink:href="#m677634801f" x="168.698844" y="239.645647" style="fill-opacity: 0.7"/>
     <use xlink:href="#m677634801f" x="148.162438" y="257.055909" style="fill-opacity: 0.7"/>
     <use xlink:href="#m677634801f" x="174.109455" y="257.19757" style="fill-opacity: 0.7"/>
     <use xlink:href="#m677634801f" x="161.728612" y="166.862364" style="fill-opacity: 0.7"/>
     <use xlink:href="#m677634801f" x="158.549807" y="220.780403" style="fill-opacity: 0.7"/>
     <use xlink:href="#m677634801f" x="156.584412" y="184.774533" style="fill-opacity: 0.7"/>
     <use xlink:href="#m677634801f" x="157.300928" y="260.567464" style="fill-opacity: 0.7"/>
     <use xlink:href="#m677634801f" x="161.728612" y="191.143713" style="fill-opacity: 0.7"/>
     <use xlink:href="#m677634801f" x="164.753306" y="235.265629" style="fill-opacity: 0.7"/>
     <use xlink:href="#m677634801f" x="161.728612" y="143.06371" style="fill-opacity: 0.7"/>
     <use xlink:href="#m677634801f" x="159.69494" y="255.433406" style="fill-opacity: 0.7"/>
     <use xlink:href="#m677634801f" x="161.728612" y="245.096994" style="fill-opacity: 0.7"/>
     <use xlink:href="#m677634801f" x="166.951204" y="244.586743" style="fill-opacity: 0.7"/>
     <use xlink:href="#m677634801f" x="156.903086" y="243.12743" style="fill-opacity: 0.7"/>
     <use xlink:href="#m677634801f" x="157.727111" y="198.77802" style="fill-opacity: 0.7"/>
     <use xlink:href="#m677634801f" x="161.728612" y="207.875035" style="fill-opacity: 0.7"/>
     <use xlink:href="#m677634801f" x="152.396221" y="225.163449" style="fill-opacity: 0.7"/>
     <use xlink:href="#m677634801f" x="159.227712" y="125.41206" style="fill-opacity: 0.7"/>
     <use xlink:href="#m677634801f" x="161.728612" y="185.773262" style="fill-opacity: 0.7"/>
     <use xlink:href="#m677634801f" x="161.728612" y="153.874381" style="fill-opacity: 0.7"/>
     <use xlink:href="#m677634801f" x="161.728612" y="129.808306" style="fill-opacity: 0.7"/>
     <use xlink:href="#m677634801f" x="166.824895" y="184.572203" style="fill-opacity: 0.7"/>
    </g>
   </g>
   <g id="PathCollection_3">
    <g clip-path="url(#p0a8abfb118)">
     <use xlink:href="#m677634801f" x="238.908798" y="249.214003" style="fill-opacity: 0.7"/>
     <use xlink:href="#m677634801f" x="244.380365" y="257.824248" style="fill-opacity: 0.7"/>
     <use xlink:href="#m677634801f" x="223.643908" y="258.908207" style="fill-opacity: 0.7"/>
     <use xlink:href="#m677634801f" x="228.871282" y="259.371904" style="fill-opacity: 0.7"/>
     <use xlink:href="#m677634801f" x="227.234264" y="217.138363" style="fill-opacity: 0.7"/>
     <use xlink:href="#m677634801f" x="233.527097" y="158.776111" style="fill-opacity: 0.7"/>
     <use xlink:href="#m677634801f" x="228.863932" y="237.986717" style="fill-opacity: 0.7"/>
     <use xlink:href="#m677634801f" x="234.111388" y="138.477547" style="fill-opacity: 0.7"/>
     <use xlink:href="#m677634801f" x="237.324256" y="219.867168" style="fill-opacity: 0.7"/>
     <use xlink:href="#m677634801f" x="234.111388" y="251.24491" style="fill-opacity: 0.7"/>
     <use xlink:href="#m677634801f" x="249.459331" y="256.558401" style="fill-opacity: 0.7"/>
     <use xlink:href="#m677634801f" x="239.2544" y="230.873822" style="fill-opacity: 0.7"/>
     <use xlink:href="#m677634801f" x="218.868859" y="256.830049" style="fill-opacity: 0.7"/>
     <use xlink:href="#m677634801f" x="244.16302" y="243.531999" style="fill-opacity: 0.7"/>
     <use xlink:href="#m677634801f" x="229.507048" y="188.381417" style="fill-opacity: 0.7"/>
     <use xlink:href="#m677634801f" x="228.92333" y="223.055753" style="fill-opacity: 0.7"/>
     <use xlink:href="#m677634801f" x="234.111388" y="103.469023" style="fill-opacity: 0.7"/>
     <use xlink:href="#m677634801f" x="232.21341" y="218.723613" style="fill-opacity: 0.7"/>
     <use xlink:href="#m677634801f" x="238.914012" y="243.629177" style="fill-opacity: 0.7"/>
     <use xlink:href="#m677634801f" x="234.111388" y="238.142362" style="fill-opacity: 0.7"/>
     <use xlink:href="#m677634801f" x="234.111388" y="231.878088" style="fill-opacity: 0.7"/>
     <use xlink:href="#m677634801f" x="229.13337" y="249.656449" style="fill-opacity: 0.7"/>
     <use xlink:href="#m677634801f" x="234.111388" y="245.648875" style="fill-opacity: 0.7"/>
     <use xlink:href="#m677634801f" x="234.111388" y="163.745049" style="fill-opacity: 0.7"/>
     <use xlink:href="#m677634801f" x="234.111388" y="212.027334" style="fill-opacity: 0.7"/>
     <use xlink:href="#m677634801f" x="234.111388" y="178.520601" style="fill-opacity: 0.7"/>
     <use xlink:href="#m677634801f" x="234.111388" y="259.678737" style="fill-opacity: 0.7"/>
     <use xlink:href="#m677634801f" x="234.111388" y="184.544982" style="fill-opacity: 0.7"/>
     <use xlink:href="#m677634801f" x="228.864684" y="231.700921" style="fill-opacity: 0.7"/>
     <use xlink:href="#m677634801f" x="234.111388" y="124.381741" style="fill-opacity: 0.7"/>
     <use xlink:href="#m677634801f" x="239.339327" y="259.220853" style="fill-opacity: 0.7"/>
     <use xlink:href="#m677634801f" x="221.964433" y="243.016607" style="fill-opacity: 0.7"/>
     <use xlink:href="#m677634801f" x="226.664931" y="245.243593" style="fill-opacity: 0.7"/>
     <use xlink:href="#m677634801f" x="244.134159" y="248.730163" style="fill-opacity: 0.7"/>
     <use xlink:href="#m677634801f" x="234.111388" y="190.783712" style="fill-opacity: 0.7"/>
     <use xlink:href="#m677634801f" x="234.111388" y="197.378816" style="fill-opacity: 0.7"/>
     <use xlink:href="#m677634801f" x="234.111388" y="223.821554" style="fill-opacity: 0.7"/>
     <use xlink:href="#m677634801f" x="229.527313" y="106.221728" style="fill-opacity: 0.7"/>
     <use xlink:href="#m677634801f" x="229.080681" y="177.090605" style="fill-opacity: 0.7"/>
     <use xlink:href="#m677634801f" x="238.760542" y="158.379348" style="fill-opacity: 0.7"/>
     <use xlink:href="#m677634801f" x="234.111388" y="108.658923" style="fill-opacity: 0.7"/>
     <use xlink:href="#m677634801f" x="236.786712" y="174.218502" style="fill-opacity: 0.7"/>
    </g>
   </g>
   <g id="PathCollection_4">
    <g clip-path="url(#p0a8abfb118)">
     <use xlink:href="#m677634801f" x="296.543948" y="251.541313" style="fill-opacity: 0.7"/>
     <use xlink:href="#m677634801f" x="316.377625" y="262.307602" style="fill-opacity: 0.7"/>
     <use xlink:href="#m677634801f" x="291.519621" y="261.658253" style="fill-opacity: 0.7"/>
     <use xlink:href="#m677634801f" x="296.339383" y="263.640577" style="fill-opacity: 0.7"/>
     <use xlink:href="#m677634801f" x="304.39325" y="227.642469" style="fill-opacity: 0.7"/>
     <use xlink:href="#m677634801f" x="306.494163" y="172.745208" style="fill-opacity: 0.7"/>
     <use xlink:href="#m677634801f" x="311.629918" y="245.75212" style="fill-opacity: 0.7"/>
     <use xlink:href="#m677634801f" x="306.494163" y="158.729306" style="fill-opacity: 0.7"/>
     <use xlink:href="#m677634801f" x="316.274233" y="234.877003" style="fill-opacity: 0.7"/>
     <use xlink:href="#m677634801f" x="301.297901" y="253.662886" style="fill-opacity: 0.7"/>
     <use xlink:href="#m677634801f" x="311.603199" y="264.387059" style="fill-opacity: 0.7"/>
     <use xlink:href="#m677634801f" x="321.385241" y="250.167312" style="fill-opacity: 0.7"/>
     <use xlink:href="#m677634801f" x="306.494163" y="265.537921" style="fill-opacity: 0.7"/>
     <use xlink:href="#m677634801f" x="306.494163" y="254.376448" style="fill-opacity: 0.7"/>
     <use xlink:href="#m677634801f" x="306.494163" y="211.099751" style="fill-opacity: 0.7"/>
     <use xlink:href="#m677634801f" x="301.540548" y="236.050129" style="fill-opacity: 0.7"/>
     <use xlink:href="#m677634801f" x="301.455775" y="147.864969" style="fill-opacity: 0.7"/>
     <use xlink:href="#m677634801f" x="311.733415" y="237.386572" style="fill-opacity: 0.7"/>
     <use xlink:href="#m677634801f" x="306.494163" y="259.437966" style="fill-opacity: 0.7"/>
     <use xlink:href="#m677634801f" x="316.142576" y="250.431521" style="fill-opacity: 0.7"/>
     <use xlink:href="#m677634801f" x="301.245029" y="246.698688" style="fill-opacity: 0.7"/>
     <use xlink:href="#m677634801f" x="306.494163" y="246.789524" style="fill-opacity: 0.7"/>
     <use xlink:href="#m677634801f" x="311.322856" y="252.413938" style="fill-opacity: 0.7"/>
     <use xlink:href="#m677634801f" x="308.460023" y="202.027606" style="fill-opacity: 0.7"/>
     <use xlink:href="#m677634801f" x="306.494163" y="237.706342" style="fill-opacity: 0.7"/>
     <use xlink:href="#m677634801f" x="311.308383" y="209.105249" style="fill-opacity: 0.7"/>
     <use xlink:href="#m677634801f" x="321.583002" y="261.657083" style="fill-opacity: 0.7"/>
     <use xlink:href="#m677634801f" x="315.528984" y="206.131589" style="fill-opacity: 0.7"/>
     <use xlink:href="#m677634801f" x="304.048019" y="242.365422" style="fill-opacity: 0.7"/>
     <use xlink:href="#m677634801f" x="303.119265" y="168.915195" style="fill-opacity: 0.7"/>
     <use xlink:href="#m677634801f" x="301.24562" y="265.420112" style="fill-opacity: 0.7"/>
     <use xlink:href="#m677634801f" x="296.684549" y="244.22167" style="fill-opacity: 0.7"/>
     <use xlink:href="#m677634801f" x="291.51923" y="250.092345" style="fill-opacity: 0.7"/>
     <use xlink:href="#m677634801f" x="311.438683" y="257.757285" style="fill-opacity: 0.7"/>
     <use xlink:href="#m677634801f" x="301.333623" y="210.180651" style="fill-opacity: 0.7"/>
     <use xlink:href="#m677634801f" x="308.729879" y="224.824299" style="fill-opacity: 0.7"/>
     <use xlink:href="#m677634801f" x="306.494163" y="232.224666" style="fill-opacity: 0.7"/>
     <use xlink:href="#m677634801f" x="302.28634" y="155.739266" style="fill-opacity: 0.7"/>
     <use xlink:href="#m677634801f" x="305.540193" y="206.182989" style="fill-opacity: 0.7"/>
     <use xlink:href="#m677634801f" x="306.494163" y="186.678191" style="fill-opacity: 0.7"/>
     <use xlink:href="#m677634801f" x="306.494163" y="149.270222" style="fill-opacity: 0.7"/>
     <use xlink:href="#m677634801f" x="296.795604" y="207.666495" style="fill-opacity: 0.7"/>
    </g>
   </g>
   <g id="text_14">
    <!-- V1 tgt -->
    <g transform="translate(179.577813 41.04) scale(0.12 -0.12)">
     <defs>
      <path id="DejaVuSans-56" d="M 1831 0 
L 50 4666 
L 709 4666 
L 2188 738 
L 3669 4666 
L 4325 4666 
L 2547 0 
L 1831 0 
z
" transform="scale(0.015625)"/>
     </defs>
     <use xlink:href="#DejaVuSans-56"/>
     <use xlink:href="#DejaVuSans-31" x="68.408203"/>
     <use xlink:href="#DejaVuSans-20" x="132.03125"/>
     <use xlink:href="#DejaVuSans-74" x="163.818359"/>
     <use xlink:href="#DejaVuSans-67" x="203.027344"/>
     <use xlink:href="#DejaVuSans-74" x="266.503906"/>
    </g>
   </g>
  </g>
  <g id="text_15">
   <!-- pnr668 -->
   <g transform="translate(158.469375 16.318125) scale(0.12 -0.12)">
    <defs>
     <path id="DejaVuSans-36" d="M 2113 2584 
Q 1688 2584 1439 2293 
Q 1191 2003 1191 1497 
Q 1191 994 1439 701 
Q 1688 409 2113 409 
Q 2538 409 2786 701 
Q 3034 994 3034 1497 
Q 3034 2003 2786 2293 
Q 2538 2584 2113 2584 
z
M 3366 4563 
L 3366 3988 
Q 3128 4100 2886 4159 
Q 2644 4219 2406 4219 
Q 1781 4219 1451 3797 
Q 1122 3375 1075 2522 
Q 1259 2794 1537 2939 
Q 1816 3084 2150 3084 
Q 2853 3084 3261 2657 
Q 3669 2231 3669 1497 
Q 3669 778 3244 343 
Q 2819 -91 2113 -91 
Q 1303 -91 875 529 
Q 447 1150 447 2328 
Q 447 3434 972 4092 
Q 1497 4750 2381 4750 
Q 2619 4750 2861 4703 
Q 3103 4656 3366 4563 
z
" transform="scale(0.015625)"/>
     <path id="DejaVuSans-38" d="M 2034 2216 
Q 1584 2216 1326 1975 
Q 1069 1734 1069 1313 
Q 1069 891 1326 650 
Q 1584 409 2034 409 
Q 2484 409 2743 651 
Q 3003 894 3003 1313 
Q 3003 1734 2745 1975 
Q 2488 2216 2034 2216 
z
M 1403 2484 
Q 997 2584 770 2862 
Q 544 3141 544 3541 
Q 544 4100 942 4425 
Q 1341 4750 2034 4750 
Q 2731 4750 3128 4425 
Q 3525 4100 3525 3541 
Q 3525 3141 3298 2862 
Q 3072 2584 2669 2484 
Q 3125 2378 3379 2068 
Q 3634 1759 3634 1313 
Q 3634 634 3220 271 
Q 2806 -91 2034 -91 
Q 1263 -91 848 271 
Q 434 634 434 1313 
Q 434 1759 690 2068 
Q 947 2378 1403 2484 
z
M 1172 3481 
Q 1172 3119 1398 2916 
Q 1625 2713 2034 2713 
Q 2441 2713 2670 2916 
Q 2900 3119 2900 3481 
Q 2900 3844 2670 4047 
Q 2441 4250 2034 4250 
Q 1625 4250 1398 4047 
Q 1172 3844 1172 3481 
z
" transform="scale(0.015625)"/>
    </defs>
    <use xlink:href="#DejaVuSans-70"/>
    <use xlink:href="#DejaVuSans-6e" x="63.476562"/>
    <use xlink:href="#DejaVuSans-72" x="126.855469"/>
    <use xlink:href="#DejaVuSans-36" x="167.96875"/>
    <use xlink:href="#DejaVuSans-36" x="231.591797"/>
    <use xlink:href="#DejaVuSans-38" x="295.214844"/>
   </g>
  </g>
 </g>
 <defs>
  <clipPath id="p0a8abfb118">
   <rect x="46.64" y="47.04" width="302.56" height="269.06776"/>
  </clipPath>
 </defs>
</svg>
