<?xml version="1.0" encoding="utf-8" standalone="no"?>
<!DOCTYPE svg PUBLIC "-//W3C//DTD SVG 1.1//EN"
  "http://www.w3.org/Graphics/SVG/1.1/DTD/svg11.dtd">
<svg xmlns:xlink="http://www.w3.org/1999/xlink" width="360pt" height="360pt" viewBox="0 0 360 360" xmlns="http://www.w3.org/2000/svg" version="1.1">
 <metadata>
  <rdf:RDF xmlns:dc="http://purl.org/dc/elements/1.1/" xmlns:cc="http://creativecommons.org/ns#" xmlns:rdf="http://www.w3.org/1999/02/22-rdf-syntax-ns#">
   <cc:Work>
    <dc:type rdf:resource="http://purl.org/dc/dcmitype/StillImage"/>
    <dc:date>2026-05-29T13:02:58.094273</dc:date>
    <dc:format>image/svg+xml</dc:format>
    <dc:creator>
     <cc:Agent>
      <dc:title>Matplotlib v3.8.0, https://matplotlib.org/</dc:title>
     </cc:Agent>
    </dc:creator>
   </cc:Work>
  </rdf:RDF>
 </metadata>
 <defs>
  <style type="text/css">*{stroke-linejoin: round; stroke-linecap: butt}</style>
 </defs>
 <g id="figure_1">
  <g id="patch_1">
   <path d="M 0 360 
L 360 360 
L 360 0 
L 0 0 
z
" style="fill: #ffffff"/>
  </g>
  <g id="axes_1">
   <g id="patch_2">
    <path d="M 46.64 316.10776 
L 349.2 316.10776 
L 349.2 47.04 
L 46.64 47.04 
z
" style="fill: #ffffff"/>
   </g>
   <g id="PolyCollection_1">
    <defs>
     <path id="m4df54d34d3" d="M 89.402159 -57.068465 
L 89.289516 -57.068465 
L 89.251668 -59.176602 
L 89.199939 -61.284739 
L 89.136382 -63.392877 
L 89.067198 -65.501014 
L 89.002349 -67.609151 
L 88.953434 -69.717289 
L 88.930308 -71.825426 
L 88.937701 -73.933563 
L 88.973271 -76.041701 
L 89.027912 -78.149838 
L 89.087953 -80.257975 
L 89.138082 -82.366113 
L 89.163736 -84.47425 
L 89.152535 -86.582387 
L 89.095307 -88.690525 
L 88.987677 -90.798662 
L 88.832589 -92.906799 
L 88.642823 -95.014937 
L 88.441396 -97.123074 
L 88.257759 -99.231211 
L 88.119211 -101.339349 
L 88.039446 -103.447486 
L 88.008046 -105.555623 
L 87.984896 -107.663761 
L 87.901582 -109.771898 
L 87.669252 -111.880036 
L 87.190548 -113.988173 
L 86.373184 -116.09631 
L 85.14375 -118.204448 
L 83.461101 -120.312585 
L 81.328109 -122.420722 
L 78.798974 -124.52886 
L 75.978464 -126.636997 
L 73.010994 -128.745134 
L 70.061465 -130.853272 
L 67.293932 -132.961409 
L 64.855187 -135.069546 
L 62.866797 -137.177684 
L 61.423083 -139.285821 
L 60.588852 -141.393958 
L 60.392727 -143.502096 
L 60.818416 -145.610233 
L 61.801804 -147.71837 
L 63.240947 -149.826508 
L 65.018433 -151.934645 
L 67.02654 -154.042782 
L 69.182307 -156.15092 
L 71.425233 -158.259057 
L 73.701253 -160.367194 
L 75.945322 -162.475332 
L 78.075235 -164.583469 
L 80.001465 -166.691607 
L 81.647596 -168.799744 
L 82.970207 -170.907881 
L 83.968724 -173.016019 
L 84.682289 -175.124156 
L 85.176981 -177.232293 
L 85.529349 -179.340431 
L 85.810985 -181.448568 
L 86.076437 -183.556705 
L 86.355402 -185.664843 
L 86.650295 -187.77298 
L 86.940526 -189.881117 
L 87.193608 -191.989255 
L 87.380452 -194.097392 
L 87.489493 -196.205529 
L 87.533803 -198.313667 
L 87.547918 -200.421804 
L 87.575682 -202.529941 
L 87.65449 -204.638079 
L 87.802751 -206.746216 
L 88.015442 -208.854353 
L 88.268595 -210.962491 
L 88.529598 -213.070628 
L 88.768316 -215.178765 
L 88.964766 -217.286903 
L 89.111498 -219.39504 
L 89.211462 -221.503177 
L 89.273583 -223.611315 
L 89.308309 -225.719452 
L 89.324471 -227.82759 
L 89.327783 -229.935727 
L 89.320637 -232.043864 
L 89.302743 -234.152002 
L 89.272356 -236.260139 
L 89.22793 -238.368276 
L 89.169987 -240.476414 
L 89.102664 -242.584551 
L 89.034205 -244.692688 
L 88.975769 -246.800826 
L 88.93862 -248.908963 
L 88.930622 -251.0171 
L 88.953533 -253.125238 
L 89.002378 -255.233375 
L 89.067206 -257.341512 
L 89.136384 -259.44965 
L 89.19994 -261.557787 
L 89.251668 -263.665924 
L 89.289516 -265.774062 
L 89.402159 -265.774062 
L 89.402159 -265.774062 
L 89.440007 -263.665924 
L 89.491735 -261.557787 
L 89.555291 -259.44965 
L 89.624469 -257.341512 
L 89.689297 -255.233375 
L 89.738141 -253.125238 
L 89.761052 -251.0171 
L 89.753054 -248.908963 
L 89.715905 -246.800826 
L 89.657469 -244.692688 
L 89.58901 -242.584551 
L 89.521688 -240.476414 
L 89.463744 -238.368276 
L 89.419319 -236.260139 
L 89.388932 -234.152002 
L 89.371038 -232.043864 
L 89.363891 -229.935727 
L 89.367204 -227.82759 
L 89.383366 -225.719452 
L 89.418091 -223.611315 
L 89.480213 -221.503177 
L 89.580177 -219.39504 
L 89.726909 -217.286903 
L 89.923359 -215.178765 
L 90.162077 -213.070628 
L 90.423079 -210.962491 
L 90.676232 -208.854353 
L 90.888924 -206.746216 
L 91.037185 -204.638079 
L 91.115993 -202.529941 
L 91.143756 -200.421804 
L 91.157872 -198.313667 
L 91.202181 -196.205529 
L 91.311222 -194.097392 
L 91.498066 -191.989255 
L 91.751148 -189.881117 
L 92.041379 -187.77298 
L 92.336273 -185.664843 
L 92.615238 -183.556705 
L 92.880689 -181.448568 
L 93.162326 -179.340431 
L 93.514694 -177.232293 
L 94.009386 -175.124156 
L 94.72295 -173.016019 
L 95.721468 -170.907881 
L 97.044079 -168.799744 
L 98.69021 -166.691607 
L 100.61644 -164.583469 
L 102.746353 -162.475332 
L 104.990422 -160.367194 
L 107.266442 -158.259057 
L 109.509367 -156.15092 
L 111.665135 -154.042782 
L 113.673241 -151.934645 
L 115.450728 -149.826508 
L 116.889871 -147.71837 
L 117.873258 -145.610233 
L 118.298947 -143.502096 
L 118.102823 -141.393958 
L 117.268592 -139.285821 
L 115.824877 -137.177684 
L 113.836488 -135.069546 
L 111.397743 -132.961409 
L 108.630209 -130.853272 
L 105.680681 -128.745134 
L 102.713211 -126.636997 
L 99.8927 -124.52886 
L 97.363565 -122.420722 
L 95.230573 -120.312585 
L 93.547925 -118.204448 
L 92.31849 -116.09631 
L 91.501127 -113.988173 
L 91.022423 -111.880036 
L 90.790092 -109.771898 
L 90.706779 -107.663761 
L 90.683629 -105.555623 
L 90.652229 -103.447486 
L 90.572463 -101.339349 
L 90.433916 -99.231211 
L 90.250279 -97.123074 
L 90.048852 -95.014937 
L 89.859086 -92.906799 
L 89.703998 -90.798662 
L 89.596368 -88.690525 
L 89.53914 -86.582387 
L 89.527939 -84.47425 
L 89.553593 -82.366113 
L 89.603722 -80.257975 
L 89.663763 -78.149838 
L 89.718403 -76.041701 
L 89.753974 -73.933563 
L 89.761366 -71.825426 
L 89.738241 -69.717289 
L 89.689326 -67.609151 
L 89.624477 -65.501014 
L 89.555293 -63.392877 
L 89.491735 -61.284739 
L 89.440007 -59.176602 
L 89.402159 -57.068465 
z
" style="stroke: #3f3f3f; stroke-width: 1.25"/>
    </defs>
    <g clip-path="url(#pa3b3d1438b)">
     <use xlink:href="#m4df54d34d3" x="0" y="360" style="fill: #b2b2b2; stroke: #3f3f3f; stroke-width: 1.25"/>
    </g>
   </g>
   <g id="PolyCollection_2">
    <defs>
     <path id="m89c48397c9" d="M 161.785589 -56.122593 
L 161.671636 -56.122593 
L 161.632883 -58.478831 
L 161.579268 -60.835069 
L 161.511943 -63.191307 
L 161.435548 -65.547545 
L 161.357547 -67.903783 
L 161.28599 -70.260022 
L 161.226356 -72.61626 
L 161.178959 -74.972498 
L 161.138358 -77.328736 
L 161.095345 -79.684974 
L 161.040775 -82.041212 
L 160.969609 -84.39745 
L 160.883629 -86.753688 
L 160.792017 -89.109926 
L 160.709781 -91.466164 
L 160.6544 -93.822403 
L 160.641173 -96.178641 
L 160.678051 -98.534879 
L 160.761131 -100.891117 
L 160.872075 -103.247355 
L 160.978062 -105.603593 
L 161.033787 -107.959831 
L 160.98438 -110.316069 
L 160.768509 -112.672307 
L 160.321978 -115.028545 
L 159.582677 -117.384783 
L 158.497214 -119.741022 
L 157.028325 -122.09726 
L 155.161556 -124.453498 
L 152.910456 -126.809736 
L 150.320843 -129.165974 
L 147.474796 -131.522212 
L 144.493071 -133.87845 
L 141.532066 -136.234688 
L 138.771145 -138.590926 
L 136.389782 -140.947164 
L 134.539833 -143.303403 
L 133.322153 -145.659641 
L 132.775502 -148.015879 
L 132.879982 -150.372117 
L 133.571038 -152.728355 
L 134.757246 -155.084593 
L 136.336225 -157.440831 
L 138.205811 -159.797069 
L 140.269793 -162.153307 
L 142.43875 -164.509545 
L 144.627897 -166.865784 
L 146.755515 -169.222022 
L 148.745871 -171.57826 
L 150.538023 -173.934498 
L 152.097335 -176.290736 
L 153.422978 -178.646974 
L 154.545315 -181.003212 
L 155.512083 -183.35945 
L 156.36861 -185.715688 
L 157.140914 -188.071926 
L 157.829264 -190.428165 
L 158.414612 -192.784403 
L 158.874249 -195.140641 
L 159.199035 -197.496879 
L 159.404227 -199.853117 
L 159.529013 -202.209355 
L 159.62501 -204.565593 
L 159.739024 -206.921831 
L 159.898018 -209.278069 
L 160.102986 -211.634307 
L 160.333898 -213.990545 
L 160.562281 -216.346784 
L 160.764704 -218.703022 
L 160.93087 -221.05926 
L 161.063855 -223.415498 
L 161.174316 -225.771736 
L 161.27309 -228.127974 
L 161.366144 -230.484212 
L 161.453576 -232.84045 
L 161.531781 -235.196688 
L 161.596666 -237.552926 
L 161.645984 -239.909165 
L 161.680002 -242.265403 
L 161.700778 -244.621641 
L 161.710815 -246.977879 
L 161.711833 -249.334117 
L 161.704054 -251.690355 
L 161.68615 -254.046593 
L 161.655914 -256.402831 
L 161.61158 -258.759069 
L 161.553533 -261.115307 
L 161.485836 -263.471546 
L 161.416732 -265.827784 
L 161.357477 -268.184022 
L 161.319513 -270.54026 
L 161.310904 -272.896498 
L 161.333549 -275.252736 
L 161.382507 -277.608974 
L 161.447746 -279.965212 
L 161.517488 -282.32145 
L 161.581609 -284.677688 
L 161.6338 -287.033927 
L 161.671969 -289.390165 
L 161.785256 -289.390165 
L 161.785256 -289.390165 
L 161.823424 -287.033927 
L 161.875616 -284.677688 
L 161.939737 -282.32145 
L 162.009479 -279.965212 
L 162.074718 -277.608974 
L 162.123676 -275.252736 
L 162.146321 -272.896498 
L 162.137711 -270.54026 
L 162.099748 -268.184022 
L 162.040493 -265.827784 
L 161.971389 -263.471546 
L 161.903692 -261.115307 
L 161.845645 -258.759069 
L 161.801311 -256.402831 
L 161.771075 -254.046593 
L 161.753171 -251.690355 
L 161.745391 -249.334117 
L 161.74641 -246.977879 
L 161.756447 -244.621641 
L 161.777222 -242.265403 
L 161.811241 -239.909165 
L 161.860559 -237.552926 
L 161.925444 -235.196688 
L 162.003649 -232.84045 
L 162.091081 -230.484212 
L 162.184135 -228.127974 
L 162.282909 -225.771736 
L 162.39337 -223.415498 
L 162.526355 -221.05926 
L 162.692521 -218.703022 
L 162.894943 -216.346784 
L 163.123327 -213.990545 
L 163.354239 -211.634307 
L 163.559207 -209.278069 
L 163.718201 -206.921831 
L 163.832215 -204.565593 
L 163.928212 -202.209355 
L 164.052998 -199.853117 
L 164.25819 -197.496879 
L 164.582975 -195.140641 
L 165.042613 -192.784403 
L 165.627961 -190.428165 
L 166.316311 -188.071926 
L 167.088615 -185.715688 
L 167.945142 -183.35945 
L 168.91191 -181.003212 
L 170.034247 -178.646974 
L 171.35989 -176.290736 
L 172.919202 -173.934498 
L 174.711354 -171.57826 
L 176.70171 -169.222022 
L 178.829328 -166.865784 
L 181.018475 -164.509545 
L 183.187432 -162.153307 
L 185.251414 -159.797069 
L 187.121 -157.440831 
L 188.699979 -155.084593 
L 189.886187 -152.728355 
L 190.577243 -150.372117 
L 190.681722 -148.015879 
L 190.135072 -145.659641 
L 188.917392 -143.303403 
L 187.067443 -140.947164 
L 184.68608 -138.590926 
L 181.925159 -136.234688 
L 178.964153 -133.87845 
L 175.982428 -131.522212 
L 173.136381 -129.165974 
L 170.546769 -126.809736 
L 168.295669 -124.453498 
L 166.4289 -122.09726 
L 164.960011 -119.741022 
L 163.874547 -117.384783 
L 163.135247 -115.028545 
L 162.688716 -112.672307 
L 162.472845 -110.316069 
L 162.423438 -107.959831 
L 162.479163 -105.603593 
L 162.58515 -103.247355 
L 162.696094 -100.891117 
L 162.779174 -98.534879 
L 162.816052 -96.178641 
L 162.802825 -93.822403 
L 162.747444 -91.466164 
L 162.665208 -89.109926 
L 162.573596 -86.753688 
L 162.487616 -84.39745 
L 162.41645 -82.041212 
L 162.36188 -79.684974 
L 162.318867 -77.328736 
L 162.278266 -74.972498 
L 162.230869 -72.61626 
L 162.171235 -70.260022 
L 162.099678 -67.903783 
L 162.021677 -65.547545 
L 161.945281 -63.191307 
L 161.877957 -60.835069 
L 161.824342 -58.478831 
L 161.785589 -56.122593 
z
" style="stroke: #3f3f3f; stroke-width: 1.25"/>
    </defs>
    <g clip-path="url(#pa3b3d1438b)">
     <use xlink:href="#m89c48397c9" x="0" y="360" style="fill: #891ab9; stroke: #3f3f3f; stroke-width: 1.25"/>
    </g>
   </g>
   <g id="PolyCollection_3">
    <defs>
     <path id="md6328a4eb3" d="M 234.163901 -62.299991 
L 234.058874 -62.299991 
L 234.023617 -64.708371 
L 233.974408 -67.116752 
L 233.911264 -69.525132 
L 233.836639 -71.933513 
L 233.754947 -74.341893 
L 233.671009 -76.750273 
L 233.588003 -79.158654 
L 233.506077 -81.567034 
L 233.422677 -83.975414 
L 233.334867 -86.383795 
L 233.242718 -88.792175 
L 233.151974 -91.200555 
L 233.074308 -93.608936 
L 233.024493 -96.017316 
L 233.015247 -98.425697 
L 233.051534 -100.834077 
L 233.126245 -103.242457 
L 233.218404 -105.650838 
L 233.293877 -108.059218 
L 233.307606 -110.467598 
L 233.20618 -112.875979 
L 232.930127 -115.284359 
L 232.41632 -117.692739 
L 231.60167 -120.10112 
L 230.429315 -122.5095 
L 228.857642 -124.917881 
L 226.871061 -127.326261 
L 224.490039 -129.734641 
L 221.777319 -132.143022 
L 218.837925 -134.551402 
L 215.81251 -136.959782 
L 212.865972 -139.368163 
L 210.174505 -141.776543 
L 207.913231 -144.184924 
L 206.243636 -146.593304 
L 205.297877 -149.001684 
L 205.158278 -151.410065 
L 205.835543 -153.818445 
L 207.254909 -156.226825 
L 209.260467 -158.635206 
L 211.641621 -161.043586 
L 214.17503 -163.451966 
L 216.66713 -165.860347 
L 218.982218 -168.268727 
L 221.049011 -170.677108 
L 222.849242 -173.085488 
L 224.398414 -175.493868 
L 225.728341 -177.902249 
L 226.875653 -180.310629 
L 227.875149 -182.719009 
L 228.755227 -185.12739 
L 229.534442 -187.53577 
L 230.220577 -189.94415 
L 230.813697 -192.352531 
L 231.312347 -194.760911 
L 231.719593 -197.169292 
L 232.045293 -199.577672 
L 232.303403 -201.986052 
L 232.506445 -204.394433 
L 232.661172 -206.802813 
L 232.768523 -209.211193 
L 232.828013 -211.619574 
L 232.843734 -214.027954 
L 232.828123 -216.436334 
L 232.801091 -218.844715 
L 232.784941 -221.253095 
L 232.797876 -223.661476 
L 232.849353 -226.069856 
L 232.939152 -228.478236 
L 233.059773 -230.886617 
L 233.20025 -233.294997 
L 233.34937 -235.703377 
L 233.497352 -238.111758 
L 233.636235 -240.520138 
L 233.759837 -242.928519 
L 233.863873 -245.336899 
L 233.94626 -247.745279 
L 234.007237 -250.15366 
L 234.048982 -252.56204 
L 234.074728 -254.97042 
L 234.087663 -257.378801 
L 234.08998 -259.787181 
L 234.082376 -262.195561 
L 234.064142 -264.603942 
L 234.033895 -267.012322 
L 233.990852 -269.420703 
L 233.936313 -271.829083 
L 233.874805 -274.237463 
L 233.814203 -276.645844 
L 233.764441 -279.054224 
L 233.734965 -281.462604 
L 233.731847 -283.870985 
L 233.755749 -286.279365 
L 233.801696 -288.687745 
L 233.860767 -291.096126 
L 233.922904 -293.504506 
L 233.979653 -295.912887 
L 234.025823 -298.321267 
L 234.059739 -300.729647 
L 234.163036 -300.729647 
L 234.163036 -300.729647 
L 234.196952 -298.321267 
L 234.243122 -295.912887 
L 234.299872 -293.504506 
L 234.362009 -291.096126 
L 234.421079 -288.687745 
L 234.467026 -286.279365 
L 234.490928 -283.870985 
L 234.48781 -281.462604 
L 234.458335 -279.054224 
L 234.408572 -276.645844 
L 234.34797 -274.237463 
L 234.286462 -271.829083 
L 234.231923 -269.420703 
L 234.18888 -267.012322 
L 234.158633 -264.603942 
L 234.140399 -262.195561 
L 234.132795 -259.787181 
L 234.135113 -257.378801 
L 234.148047 -254.97042 
L 234.173793 -252.56204 
L 234.215538 -250.15366 
L 234.276515 -247.745279 
L 234.358902 -245.336899 
L 234.462938 -242.928519 
L 234.58654 -240.520138 
L 234.725423 -238.111758 
L 234.873405 -235.703377 
L 235.022526 -233.294997 
L 235.163002 -230.886617 
L 235.283623 -228.478236 
L 235.373422 -226.069856 
L 235.424899 -223.661476 
L 235.437834 -221.253095 
L 235.421684 -218.844715 
L 235.394652 -216.436334 
L 235.379041 -214.027954 
L 235.394762 -211.619574 
L 235.454252 -209.211193 
L 235.561603 -206.802813 
L 235.71633 -204.394433 
L 235.919372 -201.986052 
L 236.177482 -199.577672 
L 236.503182 -197.169292 
L 236.910428 -194.760911 
L 237.409078 -192.352531 
L 238.002198 -189.94415 
L 238.688333 -187.53577 
L 239.467548 -185.12739 
L 240.347626 -182.719009 
L 241.347122 -180.310629 
L 242.494434 -177.902249 
L 243.824361 -175.493868 
L 245.373533 -173.085488 
L 247.173764 -170.677108 
L 249.240557 -168.268727 
L 251.555645 -165.860347 
L 254.047745 -163.451966 
L 256.581154 -161.043586 
L 258.962308 -158.635206 
L 260.967866 -156.226825 
L 262.387232 -153.818445 
L 263.064498 -151.410065 
L 262.924898 -149.001684 
L 261.979139 -146.593304 
L 260.309544 -144.184924 
L 258.04827 -141.776543 
L 255.356804 -139.368163 
L 252.410265 -136.959782 
L 249.38485 -134.551402 
L 246.445456 -132.143022 
L 243.732736 -129.734641 
L 241.351714 -127.326261 
L 239.365133 -124.917881 
L 237.793461 -122.5095 
L 236.621105 -120.10112 
L 235.806455 -117.692739 
L 235.292648 -115.284359 
L 235.016595 -112.875979 
L 234.915169 -110.467598 
L 234.928898 -108.059218 
L 235.004371 -105.650838 
L 235.09653 -103.242457 
L 235.171241 -100.834077 
L 235.207528 -98.425697 
L 235.198282 -96.017316 
L 235.148467 -93.608936 
L 235.070801 -91.200555 
L 234.980058 -88.792175 
L 234.887909 -86.383795 
L 234.800098 -83.975414 
L 234.716698 -81.567034 
L 234.634772 -79.158654 
L 234.551766 -76.750273 
L 234.467828 -74.341893 
L 234.386137 -71.933513 
L 234.311512 -69.525132 
L 234.248367 -67.116752 
L 234.199158 -64.708371 
L 234.163901 -62.299991 
z
" style="stroke: #3f3f3f; stroke-width: 1.25"/>
    </defs>
    <g clip-path="url(#pa3b3d1438b)">
     <use xlink:href="#md6328a4eb3" x="0" y="360" style="fill: #df9c20; stroke: #3f3f3f; stroke-width: 1.25"/>
    </g>
   </g>
   <g id="PolyCollection_4">
    <defs>
     <path id="mb24371c1c9" d="M 306.565811 -73.50057 
L 306.422514 -73.50057 
L 306.37124 -75.510796 
L 306.29583 -77.521023 
L 306.192718 -79.53125 
L 306.061742 -81.541476 
L 305.907422 -83.551703 
L 305.739246 -85.561929 
L 305.570698 -87.572156 
L 305.417216 -89.582383 
L 305.293679 -91.592609 
L 305.212091 -93.602836 
L 305.179872 -95.613062 
L 305.198748 -97.623289 
L 305.264021 -99.633516 
L 305.364025 -101.643742 
L 305.479842 -103.653969 
L 305.585481 -105.664195 
L 305.648568 -107.674422 
L 305.631335 -109.684649 
L 305.49145 -111.694875 
L 305.182526 -113.705102 
L 304.654766 -115.715328 
L 303.856922 -117.725555 
L 302.741016 -119.735782 
L 301.270549 -121.746008 
L 299.43141 -123.756235 
L 297.242771 -125.766461 
L 294.763948 -127.776688 
L 292.0934 -129.786915 
L 289.358094 -131.797141 
L 286.694997 -133.807368 
L 284.230224 -135.817595 
L 282.063462 -137.827821 
L 280.264041 -139.838048 
L 278.88008 -141.848274 
L 277.95508 -143.858501 
L 277.541053 -145.868728 
L 277.697527 -147.878954 
L 278.472694 -149.889181 
L 279.87352 -151.899407 
L 281.839643 -153.909634 
L 284.235988 -155.919861 
L 286.870516 -157.930087 
L 289.531383 -159.940314 
L 292.02897 -161.95054 
L 294.227587 -163.960767 
L 296.058306 -165.970994 
L 297.513578 -167.98122 
L 298.630663 -169.991447 
L 299.472198 -172.001673 
L 300.109695 -174.0119 
L 300.612117 -176.022127 
L 301.039076 -178.032353 
L 301.437237 -180.04258 
L 301.838606 -182.052806 
L 302.260086 -184.063033 
L 302.704313 -186.07326 
L 303.162072 -188.083486 
L 303.616212 -190.093713 
L 304.046355 -192.103939 
L 304.433243 -194.114166 
L 304.761888 -196.124393 
L 305.023463 -198.134619 
L 305.216438 -200.144846 
L 305.347223 -202.155072 
L 305.429941 -204.165299 
L 305.484525 -206.175526 
L 305.53283 -208.185752 
L 305.593539 -210.195979 
L 305.677661 -212.206205 
L 305.78641 -214.216432 
L 305.912287 -216.226659 
L 306.042742 -218.236885 
L 306.164744 -220.247112 
L 306.268497 -222.257338 
L 306.34921 -224.267565 
L 306.406884 -226.277792 
L 306.444786 -228.288018 
L 306.467547 -230.298245 
L 306.479573 -232.308471 
L 306.484051 -234.318698 
L 306.482532 -236.328925 
L 306.474915 -238.339151 
L 306.459728 -240.349378 
L 306.434714 -242.359604 
L 306.397775 -244.369831 
L 306.34823 -246.380058 
L 306.288078 -248.390284 
L 306.222772 -250.400511 
L 306.160905 -252.410737 
L 306.112573 -254.420964 
L 306.08674 -256.431191 
L 306.088537 -258.441417 
L 306.117601 -260.451644 
L 306.168193 -262.46187 
L 306.231045 -264.472097 
L 306.296122 -266.482324 
L 306.355171 -268.49255 
L 306.403202 -270.502777 
L 306.438655 -272.513003 
L 306.54967 -272.513003 
L 306.54967 -272.513003 
L 306.585124 -270.502777 
L 306.633155 -268.49255 
L 306.692203 -266.482324 
L 306.757281 -264.472097 
L 306.820133 -262.46187 
L 306.870724 -260.451644 
L 306.899788 -258.441417 
L 306.901586 -256.431191 
L 306.875753 -254.420964 
L 306.82742 -252.410737 
L 306.765553 -250.400511 
L 306.700247 -248.390284 
L 306.640096 -246.380058 
L 306.59055 -244.369831 
L 306.553612 -242.359604 
L 306.528597 -240.349378 
L 306.51341 -238.339151 
L 306.505793 -236.328925 
L 306.504275 -234.318698 
L 306.508753 -232.308471 
L 306.520778 -230.298245 
L 306.54354 -228.288018 
L 306.581442 -226.277792 
L 306.639115 -224.267565 
L 306.719828 -222.257338 
L 306.823581 -220.247112 
L 306.945584 -218.236885 
L 307.076038 -216.226659 
L 307.201915 -214.216432 
L 307.310664 -212.206205 
L 307.394786 -210.195979 
L 307.455495 -208.185752 
L 307.5038 -206.175526 
L 307.558385 -204.165299 
L 307.641102 -202.155072 
L 307.771887 -200.144846 
L 307.964862 -198.134619 
L 308.226438 -196.124393 
L 308.555082 -194.114166 
L 308.941971 -192.103939 
L 309.372114 -190.093713 
L 309.826253 -188.083486 
L 310.284012 -186.07326 
L 310.72824 -184.063033 
L 311.149719 -182.052806 
L 311.551088 -180.04258 
L 311.949249 -178.032353 
L 312.376209 -176.022127 
L 312.87863 -174.0119 
L 313.516128 -172.001673 
L 314.357663 -169.991447 
L 315.474748 -167.98122 
L 316.93002 -165.970994 
L 318.760738 -163.960767 
L 320.959355 -161.95054 
L 323.456943 -159.940314 
L 326.117809 -157.930087 
L 328.752337 -155.919861 
L 331.148682 -153.909634 
L 333.114806 -151.899407 
L 334.515631 -149.889181 
L 335.290798 -147.878954 
L 335.447273 -145.868728 
L 335.033245 -143.858501 
L 334.108245 -141.848274 
L 332.724285 -139.838048 
L 330.924863 -137.827821 
L 328.758101 -135.817595 
L 326.293329 -133.807368 
L 323.630231 -131.797141 
L 320.894925 -129.786915 
L 318.224378 -127.776688 
L 315.745555 -125.766461 
L 313.556915 -123.756235 
L 311.717776 -121.746008 
L 310.247309 -119.735782 
L 309.131403 -117.725555 
L 308.33356 -115.715328 
L 307.805799 -113.705102 
L 307.496876 -111.694875 
L 307.356991 -109.684649 
L 307.339757 -107.674422 
L 307.402845 -105.664195 
L 307.508483 -103.653969 
L 307.624301 -101.643742 
L 307.724304 -99.633516 
L 307.789577 -97.623289 
L 307.808453 -95.613062 
L 307.776234 -93.602836 
L 307.694647 -91.592609 
L 307.57111 -89.582383 
L 307.417628 -87.572156 
L 307.249079 -85.561929 
L 307.080903 -83.551703 
L 306.926584 -81.541476 
L 306.795608 -79.53125 
L 306.692495 -77.521023 
L 306.617085 -75.510796 
L 306.565811 -73.50057 
z
" style="stroke: #3f3f3f; stroke-width: 1.25"/>
    </defs>
    <g clip-path="url(#pa3b3d1438b)">
     <use xlink:href="#mb24371c1c9" x="0" y="360" style="fill: #df2020; stroke: #3f3f3f; stroke-width: 1.25"/>
    </g>
   </g>
   <g id="matplotlib.axis_1">
    <g id="xtick_1">
     <g id="line2d_1">
      <defs>
       <path id="m896952f6e9" d="M 0 0 
L 0 3.5 
" style="stroke: #000000; stroke-width: 0.8"/>
      </defs>
      <g>
       <use xlink:href="#m896952f6e9" x="89.345837" y="316.10776" style="stroke: #000000; stroke-width: 0.8"/>
      </g>
     </g>
     <g id="text_1">
      <!-- sur -->
      <g transform="translate(76.803531 339.552412) rotate(-45) scale(0.1 -0.1)">
       <defs>
        <path id="DejaVuSans-73" d="M 2834 3397 
L 2834 2853 
Q 2591 2978 2328 3040 
Q 2066 3103 1784 3103 
Q 1356 3103 1142 2972 
Q 928 2841 928 2578 
Q 928 2378 1081 2264 
Q 1234 2150 1697 2047 
L 1894 2003 
Q 2506 1872 2764 1633 
Q 3022 1394 3022 966 
Q 3022 478 2636 193 
Q 2250 -91 1575 -91 
Q 1294 -91 989 -36 
Q 684 19 347 128 
L 347 722 
Q 666 556 975 473 
Q 1284 391 1588 391 
Q 1994 391 2212 530 
Q 2431 669 2431 922 
Q 2431 1156 2273 1281 
Q 2116 1406 1581 1522 
L 1381 1569 
Q 847 1681 609 1914 
Q 372 2147 372 2553 
Q 372 3047 722 3315 
Q 1072 3584 1716 3584 
Q 2034 3584 2315 3537 
Q 2597 3491 2834 3397 
z
" transform="scale(0.015625)"/>
        <path id="DejaVuSans-75" d="M 544 1381 
L 544 3500 
L 1119 3500 
L 1119 1403 
Q 1119 906 1312 657 
Q 1506 409 1894 409 
Q 2359 409 2629 706 
Q 2900 1003 2900 1516 
L 2900 3500 
L 3475 3500 
L 3475 0 
L 2900 0 
L 2900 538 
Q 2691 219 2414 64 
Q 2138 -91 1772 -91 
Q 1169 -91 856 284 
Q 544 659 544 1381 
z
M 1991 3584 
L 1991 3584 
z
" transform="scale(0.015625)"/>
        <path id="DejaVuSans-72" d="M 2631 2963 
Q 2534 3019 2420 3045 
Q 2306 3072 2169 3072 
Q 1681 3072 1420 2755 
Q 1159 2438 1159 1844 
L 1159 0 
L 581 0 
L 581 3500 
L 1159 3500 
L 1159 2956 
Q 1341 3275 1631 3429 
Q 1922 3584 2338 3584 
Q 2397 3584 2469 3576 
Q 2541 3569 2628 3553 
L 2631 2963 
z
" transform="scale(0.015625)"/>
       </defs>
       <use xlink:href="#DejaVuSans-73"/>
       <use xlink:href="#DejaVuSans-75" x="52.099609"/>
       <use xlink:href="#DejaVuSans-72" x="115.478516"/>
      </g>
     </g>
    </g>
    <g id="xtick_2">
     <g id="line2d_2">
      <g>
       <use xlink:href="#m896952f6e9" x="161.728612" y="316.10776" style="stroke: #000000; stroke-width: 0.8"/>
      </g>
     </g>
     <g id="text_2">
      <!-- iso90 -->
      <g transform="translate(141.285492 347.453225) rotate(-45) scale(0.1 -0.1)">
       <defs>
        <path id="DejaVuSans-69" d="M 603 3500 
L 1178 3500 
L 1178 0 
L 603 0 
L 603 3500 
z
M 603 4863 
L 1178 4863 
L 1178 4134 
L 603 4134 
L 603 4863 
z
" transform="scale(0.015625)"/>
        <path id="DejaVuSans-6f" d="M 1959 3097 
Q 1497 3097 1228 2736 
Q 959 2375 959 1747 
Q 959 1119 1226 758 
Q 1494 397 1959 397 
Q 2419 397 2687 759 
Q 2956 1122 2956 1747 
Q 2956 2369 2687 2733 
Q 2419 3097 1959 3097 
z
M 1959 3584 
Q 2709 3584 3137 3096 
Q 3566 2609 3566 1747 
Q 3566 888 3137 398 
Q 2709 -91 1959 -91 
Q 1206 -91 779 398 
Q 353 888 353 1747 
Q 353 2609 779 3096 
Q 1206 3584 1959 3584 
z
" transform="scale(0.015625)"/>
        <path id="DejaVuSans-39" d="M 703 97 
L 703 672 
Q 941 559 1184 500 
Q 1428 441 1663 441 
Q 2288 441 2617 861 
Q 2947 1281 2994 2138 
Q 2813 1869 2534 1725 
Q 2256 1581 1919 1581 
Q 1219 1581 811 2004 
Q 403 2428 403 3163 
Q 403 3881 828 4315 
Q 1253 4750 1959 4750 
Q 2769 4750 3195 4129 
Q 3622 3509 3622 2328 
Q 3622 1225 3098 567 
Q 2575 -91 1691 -91 
Q 1453 -91 1209 -44 
Q 966 3 703 97 
z
M 1959 2075 
Q 2384 2075 2632 2365 
Q 2881 2656 2881 3163 
Q 2881 3666 2632 3958 
Q 2384 4250 1959 4250 
Q 1534 4250 1286 3958 
Q 1038 3666 1038 3163 
Q 1038 2656 1286 2365 
Q 1534 2075 1959 2075 
z
" transform="scale(0.015625)"/>
        <path id="DejaVuSans-30" d="M 2034 4250 
Q 1547 4250 1301 3770 
Q 1056 3291 1056 2328 
Q 1056 1369 1301 889 
Q 1547 409 2034 409 
Q 2525 409 2770 889 
Q 3016 1369 3016 2328 
Q 3016 3291 2770 3770 
Q 2525 4250 2034 4250 
z
M 2034 4750 
Q 2819 4750 3233 4129 
Q 3647 3509 3647 2328 
Q 3647 1150 3233 529 
Q 2819 -91 2034 -91 
Q 1250 -91 836 529 
Q 422 1150 422 2328 
Q 422 3509 836 4129 
Q 1250 4750 2034 4750 
z
" transform="scale(0.015625)"/>
       </defs>
       <use xlink:href="#DejaVuSans-69"/>
       <use xlink:href="#DejaVuSans-73" x="27.783203"/>
       <use xlink:href="#DejaVuSans-6f" x="79.882812"/>
       <use xlink:href="#DejaVuSans-39" x="141.064453"/>
       <use xlink:href="#DejaVuSans-30" x="204.6875"/>
      </g>
     </g>
    </g>
    <g id="xtick_3">
     <g id="line2d_3">
      <g>
       <use xlink:href="#m896952f6e9" x="234.111388" y="316.10776" style="stroke: #000000; stroke-width: 0.8"/>
      </g>
     </g>
     <g id="text_3">
      <!-- orth -->
      <g transform="translate(218.153976 342.967517) rotate(-45) scale(0.1 -0.1)">
       <defs>
        <path id="DejaVuSans-74" d="M 1172 4494 
L 1172 3500 
L 2356 3500 
L 2356 3053 
L 1172 3053 
L 1172 1153 
Q 1172 725 1289 603 
Q 1406 481 1766 481 
L 2356 481 
L 2356 0 
L 1766 0 
Q 1100 0 847 248 
Q 594 497 594 1153 
L 594 3053 
L 172 3053 
L 172 3500 
L 594 3500 
L 594 4494 
L 1172 4494 
z
" transform="scale(0.015625)"/>
        <path id="DejaVuSans-68" d="M 3513 2113 
L 3513 0 
L 2938 0 
L 2938 2094 
Q 2938 2591 2744 2837 
Q 2550 3084 2163 3084 
Q 1697 3084 1428 2787 
Q 1159 2491 1159 1978 
L 1159 0 
L 581 0 
L 581 4863 
L 1159 4863 
L 1159 2956 
Q 1366 3272 1645 3428 
Q 1925 3584 2291 3584 
Q 2894 3584 3203 3211 
Q 3513 2838 3513 2113 
z
" transform="scale(0.015625)"/>
       </defs>
       <use xlink:href="#DejaVuSans-6f"/>
       <use xlink:href="#DejaVuSans-72" x="61.181641"/>
       <use xlink:href="#DejaVuSans-74" x="102.294922"/>
       <use xlink:href="#DejaVuSans-68" x="141.503906"/>
      </g>
     </g>
    </g>
    <g id="xtick_4">
     <g id="line2d_4">
      <g>
       <use xlink:href="#m896952f6e9" x="306.494163" y="316.10776" style="stroke: #000000; stroke-width: 0.8"/>
      </g>
     </g>
     <g id="text_4">
      <!-- iso0 -->
      <g transform="translate(290.55001 342.954258) rotate(-45) scale(0.1 -0.1)">
       <use xlink:href="#DejaVuSans-69"/>
       <use xlink:href="#DejaVuSans-73" x="27.783203"/>
       <use xlink:href="#DejaVuSans-6f" x="79.882812"/>
       <use xlink:href="#DejaVuSans-30" x="141.064453"/>
      </g>
     </g>
    </g>
   </g>
   <g id="matplotlib.axis_2">
    <g id="ytick_1">
     <g id="line2d_5">
      <defs>
       <path id="m0d339c1212" d="M 0 0 
L -3.5 0 
" style="stroke: #000000; stroke-width: 0.8"/>
      </defs>
      <g>
       <use xlink:href="#m0d339c1212" x="46.64" y="284.437836" style="stroke: #000000; stroke-width: 0.8"/>
      </g>
     </g>
     <g id="text_5">
      <!-- −5 -->
      <g transform="translate(24.897813 288.237054) scale(0.1 -0.1)">
       <defs>
        <path id="DejaVuSans-2212" d="M 678 2272 
L 4684 2272 
L 4684 1741 
L 678 1741 
L 678 2272 
z
" transform="scale(0.015625)"/>
        <path id="DejaVuSans-35" d="M 691 4666 
L 3169 4666 
L 3169 4134 
L 1269 4134 
L 1269 2991 
Q 1406 3038 1543 3061 
Q 1681 3084 1819 3084 
Q 2600 3084 3056 2656 
Q 3513 2228 3513 1497 
Q 3513 744 3044 326 
Q 2575 -91 1722 -91 
Q 1428 -91 1123 -41 
Q 819 9 494 109 
L 494 744 
Q 775 591 1075 516 
Q 1375 441 1709 441 
Q 2250 441 2565 725 
Q 2881 1009 2881 1497 
Q 2881 1984 2565 2268 
Q 2250 2553 1709 2553 
Q 1456 2553 1204 2497 
Q 953 2441 691 2322 
L 691 4666 
z
" transform="scale(0.015625)"/>
       </defs>
       <use xlink:href="#DejaVuSans-2212"/>
       <use xlink:href="#DejaVuSans-35" x="83.789062"/>
      </g>
     </g>
    </g>
    <g id="ytick_2">
     <g id="line2d_6">
      <g>
       <use xlink:href="#m0d339c1212" x="46.64" y="245.26075" style="stroke: #000000; stroke-width: 0.8"/>
      </g>
     </g>
     <g id="text_6">
      <!-- 0 -->
      <g transform="translate(33.2775 249.059969) scale(0.1 -0.1)">
       <use xlink:href="#DejaVuSans-30"/>
      </g>
     </g>
    </g>
    <g id="ytick_3">
     <g id="line2d_7">
      <g>
       <use xlink:href="#m0d339c1212" x="46.64" y="206.083665" style="stroke: #000000; stroke-width: 0.8"/>
      </g>
     </g>
     <g id="text_7">
      <!-- 5 -->
      <g transform="translate(33.2775 209.882884) scale(0.1 -0.1)">
       <use xlink:href="#DejaVuSans-35"/>
      </g>
     </g>
    </g>
    <g id="ytick_4">
     <g id="line2d_8">
      <g>
       <use xlink:href="#m0d339c1212" x="46.64" y="166.90658" style="stroke: #000000; stroke-width: 0.8"/>
      </g>
     </g>
     <g id="text_8">
      <!-- 10 -->
      <g transform="translate(26.915 170.705798) scale(0.1 -0.1)">
       <defs>
        <path id="DejaVuSans-31" d="M 794 531 
L 1825 531 
L 1825 4091 
L 703 3866 
L 703 4441 
L 1819 4666 
L 2450 4666 
L 2450 531 
L 3481 531 
L 3481 0 
L 794 0 
L 794 531 
z
" transform="scale(0.015625)"/>
       </defs>
       <use xlink:href="#DejaVuSans-31"/>
       <use xlink:href="#DejaVuSans-30" x="63.623047"/>
      </g>
     </g>
    </g>
    <g id="ytick_5">
     <g id="line2d_9">
      <g>
       <use xlink:href="#m0d339c1212" x="46.64" y="127.729494" style="stroke: #000000; stroke-width: 0.8"/>
      </g>
     </g>
     <g id="text_9">
      <!-- 15 -->
      <g transform="translate(26.915 131.528713) scale(0.1 -0.1)">
       <use xlink:href="#DejaVuSans-31"/>
       <use xlink:href="#DejaVuSans-35" x="63.623047"/>
      </g>
     </g>
    </g>
    <g id="ytick_6">
     <g id="line2d_10">
      <g>
       <use xlink:href="#m0d339c1212" x="46.64" y="88.552409" style="stroke: #000000; stroke-width: 0.8"/>
      </g>
     </g>
     <g id="text_10">
      <!-- 20 -->
      <g transform="translate(26.915 92.351628) scale(0.1 -0.1)">
       <defs>
        <path id="DejaVuSans-32" d="M 1228 531 
L 3431 531 
L 3431 0 
L 469 0 
L 469 531 
Q 828 903 1448 1529 
Q 2069 2156 2228 2338 
Q 2531 2678 2651 2914 
Q 2772 3150 2772 3378 
Q 2772 3750 2511 3984 
Q 2250 4219 1831 4219 
Q 1534 4219 1204 4116 
Q 875 4013 500 3803 
L 500 4441 
Q 881 4594 1212 4672 
Q 1544 4750 1819 4750 
Q 2544 4750 2975 4387 
Q 3406 4025 3406 3419 
Q 3406 3131 3298 2873 
Q 3191 2616 2906 2266 
Q 2828 2175 2409 1742 
Q 1991 1309 1228 531 
z
" transform="scale(0.015625)"/>
       </defs>
       <use xlink:href="#DejaVuSans-32"/>
       <use xlink:href="#DejaVuSans-30" x="63.623047"/>
      </g>
     </g>
    </g>
    <g id="ytick_7">
     <g id="line2d_11">
      <g>
       <use xlink:href="#m0d339c1212" x="46.64" y="49.375323" style="stroke: #000000; stroke-width: 0.8"/>
      </g>
     </g>
     <g id="text_11">
      <!-- 25 -->
      <g transform="translate(26.915 53.174542) scale(0.1 -0.1)">
       <use xlink:href="#DejaVuSans-32"/>
       <use xlink:href="#DejaVuSans-35" x="63.623047"/>
      </g>
     </g>
    </g>
    <g id="text_12">
     <!-- Average BOLD Response -->
     <g transform="translate(18.818125 243.213724) rotate(-90) scale(0.1 -0.1)">
      <defs>
       <path id="DejaVuSans-41" d="M 2188 4044 
L 1331 1722 
L 3047 1722 
L 2188 4044 
z
M 1831 4666 
L 2547 4666 
L 4325 0 
L 3669 0 
L 3244 1197 
L 1141 1197 
L 716 0 
L 50 0 
L 1831 4666 
z
" transform="scale(0.015625)"/>
       <path id="DejaVuSans-76" d="M 191 3500 
L 800 3500 
L 1894 563 
L 2988 3500 
L 3597 3500 
L 2284 0 
L 1503 0 
L 191 3500 
z
" transform="scale(0.015625)"/>
       <path id="DejaVuSans-65" d="M 3597 1894 
L 3597 1613 
L 953 1613 
Q 991 1019 1311 708 
Q 1631 397 2203 397 
Q 2534 397 2845 478 
Q 3156 559 3463 722 
L 3463 178 
Q 3153 47 2828 -22 
Q 2503 -91 2169 -91 
Q 1331 -91 842 396 
Q 353 884 353 1716 
Q 353 2575 817 3079 
Q 1281 3584 2069 3584 
Q 2775 3584 3186 3129 
Q 3597 2675 3597 1894 
z
M 3022 2063 
Q 3016 2534 2758 2815 
Q 2500 3097 2075 3097 
Q 1594 3097 1305 2825 
Q 1016 2553 972 2059 
L 3022 2063 
z
" transform="scale(0.015625)"/>
       <path id="DejaVuSans-61" d="M 2194 1759 
Q 1497 1759 1228 1600 
Q 959 1441 959 1056 
Q 959 750 1161 570 
Q 1363 391 1709 391 
Q 2188 391 2477 730 
Q 2766 1069 2766 1631 
L 2766 1759 
L 2194 1759 
z
M 3341 1997 
L 3341 0 
L 2766 0 
L 2766 531 
Q 2569 213 2275 61 
Q 1981 -91 1556 -91 
Q 1019 -91 701 211 
Q 384 513 384 1019 
Q 384 1609 779 1909 
Q 1175 2209 1959 2209 
L 2766 2209 
L 2766 2266 
Q 2766 2663 2505 2880 
Q 2244 3097 1772 3097 
Q 1472 3097 1187 3025 
Q 903 2953 641 2809 
L 641 3341 
Q 956 3463 1253 3523 
Q 1550 3584 1831 3584 
Q 2591 3584 2966 3190 
Q 3341 2797 3341 1997 
z
" transform="scale(0.015625)"/>
       <path id="DejaVuSans-67" d="M 2906 1791 
Q 2906 2416 2648 2759 
Q 2391 3103 1925 3103 
Q 1463 3103 1205 2759 
Q 947 2416 947 1791 
Q 947 1169 1205 825 
Q 1463 481 1925 481 
Q 2391 481 2648 825 
Q 2906 1169 2906 1791 
z
M 3481 434 
Q 3481 -459 3084 -895 
Q 2688 -1331 1869 -1331 
Q 1566 -1331 1297 -1286 
Q 1028 -1241 775 -1147 
L 775 -588 
Q 1028 -725 1275 -790 
Q 1522 -856 1778 -856 
Q 2344 -856 2625 -561 
Q 2906 -266 2906 331 
L 2906 616 
Q 2728 306 2450 153 
Q 2172 0 1784 0 
Q 1141 0 747 490 
Q 353 981 353 1791 
Q 353 2603 747 3093 
Q 1141 3584 1784 3584 
Q 2172 3584 2450 3431 
Q 2728 3278 2906 2969 
L 2906 3500 
L 3481 3500 
L 3481 434 
z
" transform="scale(0.015625)"/>
       <path id="DejaVuSans-20" transform="scale(0.015625)"/>
       <path id="DejaVuSans-42" d="M 1259 2228 
L 1259 519 
L 2272 519 
Q 2781 519 3026 730 
Q 3272 941 3272 1375 
Q 3272 1813 3026 2020 
Q 2781 2228 2272 2228 
L 1259 2228 
z
M 1259 4147 
L 1259 2741 
L 2194 2741 
Q 2656 2741 2882 2914 
Q 3109 3088 3109 3444 
Q 3109 3797 2882 3972 
Q 2656 4147 2194 4147 
L 1259 4147 
z
M 628 4666 
L 2241 4666 
Q 2963 4666 3353 4366 
Q 3744 4066 3744 3513 
Q 3744 3084 3544 2831 
Q 3344 2578 2956 2516 
Q 3422 2416 3680 2098 
Q 3938 1781 3938 1306 
Q 3938 681 3513 340 
Q 3088 0 2303 0 
L 628 0 
L 628 4666 
z
" transform="scale(0.015625)"/>
       <path id="DejaVuSans-4f" d="M 2522 4238 
Q 1834 4238 1429 3725 
Q 1025 3213 1025 2328 
Q 1025 1447 1429 934 
Q 1834 422 2522 422 
Q 3209 422 3611 934 
Q 4013 1447 4013 2328 
Q 4013 3213 3611 3725 
Q 3209 4238 2522 4238 
z
M 2522 4750 
Q 3503 4750 4090 4092 
Q 4678 3434 4678 2328 
Q 4678 1225 4090 567 
Q 3503 -91 2522 -91 
Q 1538 -91 948 565 
Q 359 1222 359 2328 
Q 359 3434 948 4092 
Q 1538 4750 2522 4750 
z
" transform="scale(0.015625)"/>
       <path id="DejaVuSans-4c" d="M 628 4666 
L 1259 4666 
L 1259 531 
L 3531 531 
L 3531 0 
L 628 0 
L 628 4666 
z
" transform="scale(0.015625)"/>
       <path id="DejaVuSans-44" d="M 1259 4147 
L 1259 519 
L 2022 519 
Q 2988 519 3436 956 
Q 3884 1394 3884 2338 
Q 3884 3275 3436 3711 
Q 2988 4147 2022 4147 
L 1259 4147 
z
M 628 4666 
L 1925 4666 
Q 3281 4666 3915 4102 
Q 4550 3538 4550 2338 
Q 4550 1131 3912 565 
Q 3275 0 1925 0 
L 628 0 
L 628 4666 
z
" transform="scale(0.015625)"/>
       <path id="DejaVuSans-52" d="M 2841 2188 
Q 3044 2119 3236 1894 
Q 3428 1669 3622 1275 
L 4263 0 
L 3584 0 
L 2988 1197 
Q 2756 1666 2539 1819 
Q 2322 1972 1947 1972 
L 1259 1972 
L 1259 0 
L 628 0 
L 628 4666 
L 2053 4666 
Q 2853 4666 3247 4331 
Q 3641 3997 3641 3322 
Q 3641 2881 3436 2590 
Q 3231 2300 2841 2188 
z
M 1259 4147 
L 1259 2491 
L 2053 2491 
Q 2509 2491 2742 2702 
Q 2975 2913 2975 3322 
Q 2975 3731 2742 3939 
Q 2509 4147 2053 4147 
L 1259 4147 
z
" transform="scale(0.015625)"/>
       <path id="DejaVuSans-70" d="M 1159 525 
L 1159 -1331 
L 581 -1331 
L 581 3500 
L 1159 3500 
L 1159 2969 
Q 1341 3281 1617 3432 
Q 1894 3584 2278 3584 
Q 2916 3584 3314 3078 
Q 3713 2572 3713 1747 
Q 3713 922 3314 415 
Q 2916 -91 2278 -91 
Q 1894 -91 1617 61 
Q 1341 213 1159 525 
z
M 3116 1747 
Q 3116 2381 2855 2742 
Q 2594 3103 2138 3103 
Q 1681 3103 1420 2742 
Q 1159 2381 1159 1747 
Q 1159 1113 1420 752 
Q 1681 391 2138 391 
Q 2594 391 2855 752 
Q 3116 1113 3116 1747 
z
" transform="scale(0.015625)"/>
       <path id="DejaVuSans-6e" d="M 3513 2113 
L 3513 0 
L 2938 0 
L 2938 2094 
Q 2938 2591 2744 2837 
Q 2550 3084 2163 3084 
Q 1697 3084 1428 2787 
Q 1159 2491 1159 1978 
L 1159 0 
L 581 0 
L 581 3500 
L 1159 3500 
L 1159 2956 
Q 1366 3272 1645 3428 
Q 1925 3584 2291 3584 
Q 2894 3584 3203 3211 
Q 3513 2838 3513 2113 
z
" transform="scale(0.015625)"/>
      </defs>
      <use xlink:href="#DejaVuSans-41"/>
      <use xlink:href="#DejaVuSans-76" x="62.533203"/>
      <use xlink:href="#DejaVuSans-65" x="121.712891"/>
      <use xlink:href="#DejaVuSans-72" x="183.236328"/>
      <use xlink:href="#DejaVuSans-61" x="224.349609"/>
      <use xlink:href="#DejaVuSans-67" x="285.628906"/>
      <use xlink:href="#DejaVuSans-65" x="349.105469"/>
      <use xlink:href="#DejaVuSans-20" x="410.628906"/>
      <use xlink:href="#DejaVuSans-42" x="442.416016"/>
      <use xlink:href="#DejaVuSans-4f" x="509.269531"/>
      <use xlink:href="#DejaVuSans-4c" x="587.980469"/>
      <use xlink:href="#DejaVuSans-44" x="643.693359"/>
      <use xlink:href="#DejaVuSans-20" x="720.695312"/>
      <use xlink:href="#DejaVuSans-52" x="752.482422"/>
      <use xlink:href="#DejaVuSans-65" x="817.464844"/>
      <use xlink:href="#DejaVuSans-73" x="878.988281"/>
      <use xlink:href="#DejaVuSans-70" x="931.087891"/>
      <use xlink:href="#DejaVuSans-6f" x="994.564453"/>
      <use xlink:href="#DejaVuSans-6e" x="1055.746094"/>
      <use xlink:href="#DejaVuSans-73" x="1119.125"/>
      <use xlink:href="#DejaVuSans-65" x="1171.224609"/>
     </g>
    </g>
   </g>
   <g id="line2d_12">
    <path d="M 74.869282 212.145952 
L 103.822392 212.145952 
" clip-path="url(#pa3b3d1438b)" style="fill: none; stroke: #b2b2b2; stroke-width: 2; stroke-linecap: square"/>
   </g>
   <g id="line2d_13">
    <path d="M 147.252057 205.984928 
L 176.205167 205.984928 
" clip-path="url(#pa3b3d1438b)" style="fill: none; stroke: #9400d3; stroke-width: 2; stroke-linecap: square"/>
   </g>
   <g id="line2d_14">
    <path d="M 219.634833 204.100372 
L 248.587943 204.100372 
" clip-path="url(#pa3b3d1438b)" style="fill: none; stroke: #ffa500; stroke-width: 2; stroke-linecap: square"/>
   </g>
   <g id="line2d_15">
    <path d="M 292.017608 210.347446 
L 320.970718 210.347446 
" clip-path="url(#pa3b3d1438b)" style="fill: none; stroke: #ff0000; stroke-width: 2; stroke-linecap: square"/>
   </g>
   <g id="patch_3">
    <path d="M 46.64 316.10776 
L 46.64 47.04 
" style="fill: none; stroke: #000000; stroke-width: 0.8; stroke-linejoin: miter; stroke-linecap: square"/>
   </g>
   <g id="patch_4">
    <path d="M 349.2 316.10776 
L 349.2 47.04 
" style="fill: none; stroke: #000000; stroke-width: 0.8; stroke-linejoin: miter; stroke-linecap: square"/>
   </g>
   <g id="patch_5">
    <path d="M 46.64 316.10776 
L 349.2 316.10776 
" style="fill: none; stroke: #000000; stroke-width: 0.8; stroke-linejoin: miter; stroke-linecap: square"/>
   </g>
   <g id="patch_6">
    <path d="M 46.64 47.04 
L 349.2 47.04 
" style="fill: none; stroke: #000000; stroke-width: 0.8; stroke-linejoin: miter; stroke-linecap: square"/>
   </g>
   <g id="PathCollection_1">
    <defs>
     <path id="mde5a30339b" d="M 0 2.5 
C 0.663008 2.5 1.29895 2.236584 1.767767 1.767767 
C 2.236584 1.29895 2.5 0.663008 2.5 0 
C 2.5 -0.663008 2.236584 -1.29895 1.767767 -1.767767 
C 1.29895 -2.236584 0.663008 -2.5 0 -2.5 
C -0.663008 -2.5 -1.29895 -2.236584 -1.767767 -1.767767 
C -2.236584 -1.29895 -2.5 -0.663008 -2.5 0 
C -2.5 0.663008 -2.236584 1.29895 -1.767767 1.767767 
C -1.29895 2.236584 -0.663008 2.5 0 2.5 
z
"/>
    </defs>
    <g clip-path="url(#pa3b3d1438b)">
     <use xlink:href="#mde5a30339b" x="74.914862" y="202.685392" style="fill-opacity: 0.7"/>
     <use xlink:href="#mde5a30339b" x="84.252578" y="237.377186" style="fill-opacity: 0.7"/>
     <use xlink:href="#mde5a30339b" x="60.392727" y="226.683096" style="fill-opacity: 0.7"/>
     <use xlink:href="#mde5a30339b" x="113.666743" y="223.152016" style="fill-opacity: 0.7"/>
     <use xlink:href="#mde5a30339b" x="89.345837" y="180.045035" style="fill-opacity: 0.7"/>
     <use xlink:href="#mde5a30339b" x="118.298947" y="225.783863" style="fill-opacity: 0.7"/>
     <use xlink:href="#mde5a30339b" x="108.470785" y="201.835376" style="fill-opacity: 0.7"/>
     <use xlink:href="#mde5a30339b" x="118.298947" y="215.168834" style="fill-opacity: 0.7"/>
     <use xlink:href="#mde5a30339b" x="82.516921" y="209.295288" style="fill-opacity: 0.7"/>
     <use xlink:href="#mde5a30339b" x="60.392727" y="227.361015" style="fill-opacity: 0.7"/>
     <use xlink:href="#mde5a30339b" x="76.499398" y="232.280003" style="fill-opacity: 0.7"/>
     <use xlink:href="#mde5a30339b" x="86.632929" y="200.854062" style="fill-opacity: 0.7"/>
     <use xlink:href="#mde5a30339b" x="68.715916" y="219.220618" style="fill-opacity: 0.7"/>
     <use xlink:href="#mde5a30339b" x="93.350226" y="208.330772" style="fill-opacity: 0.7"/>
     <use xlink:href="#mde5a30339b" x="103.454042" y="219.981393" style="fill-opacity: 0.7"/>
     <use xlink:href="#mde5a30339b" x="113.716421" y="201.631546" style="fill-opacity: 0.7"/>
     <use xlink:href="#mde5a30339b" x="108.4233" y="223.401824" style="fill-opacity: 0.7"/>
     <use xlink:href="#mde5a30339b" x="107.135558" y="229.179401" style="fill-opacity: 0.7"/>
     <use xlink:href="#mde5a30339b" x="89.345837" y="158.818452" style="fill-opacity: 0.7"/>
     <use xlink:href="#mde5a30339b" x="64.390604" y="213.221833" style="fill-opacity: 0.7"/>
     <use xlink:href="#mde5a30339b" x="115.810864" y="212.210233" style="fill-opacity: 0.7"/>
     <use xlink:href="#mde5a30339b" x="118.298947" y="217.985742" style="fill-opacity: 0.7"/>
     <use xlink:href="#mde5a30339b" x="60.392727" y="200.384337" style="fill-opacity: 0.7"/>
     <use xlink:href="#mde5a30339b" x="87.744353" y="154.056762" style="fill-opacity: 0.7"/>
     <use xlink:href="#mde5a30339b" x="66.578817" y="229.005008" style="fill-opacity: 0.7"/>
     <use xlink:href="#mde5a30339b" x="69.375291" y="214.173931" style="fill-opacity: 0.7"/>
     <use xlink:href="#mde5a30339b" x="110.879266" y="213.925006" style="fill-opacity: 0.7"/>
     <use xlink:href="#mde5a30339b" x="65.922093" y="198.267609" style="fill-opacity: 0.7"/>
     <use xlink:href="#mde5a30339b" x="118.298947" y="212.63497" style="fill-opacity: 0.7"/>
     <use xlink:href="#mde5a30339b" x="99.313322" y="206.464606" style="fill-opacity: 0.7"/>
     <use xlink:href="#mde5a30339b" x="73.733964" y="216.961085" style="fill-opacity: 0.7"/>
     <use xlink:href="#mde5a30339b" x="96.235688" y="202.311239" style="fill-opacity: 0.7"/>
     <use xlink:href="#mde5a30339b" x="60.392727" y="225.67699" style="fill-opacity: 0.7"/>
     <use xlink:href="#mde5a30339b" x="65.640406" y="223.400141" style="fill-opacity: 0.7"/>
     <use xlink:href="#mde5a30339b" x="89.345837" y="287.658556" style="fill-opacity: 0.7"/>
     <use xlink:href="#mde5a30339b" x="118.298947" y="226.791169" style="fill-opacity: 0.7"/>
     <use xlink:href="#mde5a30339b" x="89.345837" y="109.498917" style="fill-opacity: 0.7"/>
     <use xlink:href="#mde5a30339b" x="92.993378" y="153.96039" style="fill-opacity: 0.7"/>
     <use xlink:href="#mde5a30339b" x="97.653715" y="211.194651" style="fill-opacity: 0.7"/>
     <use xlink:href="#mde5a30339b" x="118.298947" y="220.333797" style="fill-opacity: 0.7"/>
     <use xlink:href="#mde5a30339b" x="94.59561" y="179.998489" style="fill-opacity: 0.7"/>
     <use xlink:href="#mde5a30339b" x="98.052244" y="172.312334" style="fill-opacity: 0.7"/>
     <use xlink:href="#mde5a30339b" x="78.940573" y="199.273511" style="fill-opacity: 0.7"/>
     <use xlink:href="#mde5a30339b" x="84.828192" y="191.874215" style="fill-opacity: 0.7"/>
     <use xlink:href="#mde5a30339b" x="60.392727" y="215.145161" style="fill-opacity: 0.7"/>
     <use xlink:href="#mde5a30339b" x="70.875388" y="223.778055" style="fill-opacity: 0.7"/>
     <use xlink:href="#mde5a30339b" x="91.122616" y="203.445731" style="fill-opacity: 0.7"/>
     <use xlink:href="#mde5a30339b" x="88.887263" y="195.045293" style="fill-opacity: 0.7"/>
     <use xlink:href="#mde5a30339b" x="79.811449" y="228.343843" style="fill-opacity: 0.7"/>
     <use xlink:href="#mde5a30339b" x="93.432275" y="254.856354" style="fill-opacity: 0.7"/>
     <use xlink:href="#mde5a30339b" x="60.392727" y="221.314386" style="fill-opacity: 0.7"/>
     <use xlink:href="#mde5a30339b" x="118.298947" y="207.718828" style="fill-opacity: 0.7"/>
     <use xlink:href="#mde5a30339b" x="93.682482" y="193.009697" style="fill-opacity: 0.7"/>
     <use xlink:href="#mde5a30339b" x="86.12102" y="223.82796" style="fill-opacity: 0.7"/>
     <use xlink:href="#mde5a30339b" x="82.022036" y="203.321643" style="fill-opacity: 0.7"/>
     <use xlink:href="#mde5a30339b" x="68.112714" y="208.611272" style="fill-opacity: 0.7"/>
     <use xlink:href="#mde5a30339b" x="83.39086" y="196.921352" style="fill-opacity: 0.7"/>
     <use xlink:href="#mde5a30339b" x="63.584802" y="218.162587" style="fill-opacity: 0.7"/>
     <use xlink:href="#mde5a30339b" x="78.932971" y="217.656273" style="fill-opacity: 0.7"/>
     <use xlink:href="#mde5a30339b" x="83.413011" y="214.221917" style="fill-opacity: 0.7"/>
     <use xlink:href="#mde5a30339b" x="108.412648" y="218.338785" style="fill-opacity: 0.7"/>
     <use xlink:href="#mde5a30339b" x="82.476006" y="183.46162" style="fill-opacity: 0.7"/>
     <use xlink:href="#mde5a30339b" x="86.534851" y="205.876619" style="fill-opacity: 0.7"/>
     <use xlink:href="#mde5a30339b" x="92.691041" y="234.736255" style="fill-opacity: 0.7"/>
     <use xlink:href="#mde5a30339b" x="80.887991" y="223.426255" style="fill-opacity: 0.7"/>
     <use xlink:href="#mde5a30339b" x="99.652188" y="216.533247" style="fill-opacity: 0.7"/>
     <use xlink:href="#mde5a30339b" x="112.723538" y="208.166154" style="fill-opacity: 0.7"/>
     <use xlink:href="#mde5a30339b" x="69.775745" y="201.6632" style="fill-opacity: 0.7"/>
     <use xlink:href="#mde5a30339b" x="60.392727" y="207.808505" style="fill-opacity: 0.7"/>
     <use xlink:href="#mde5a30339b" x="60.392727" y="215.568652" style="fill-opacity: 0.7"/>
     <use xlink:href="#mde5a30339b" x="94.809342" y="218.349054" style="fill-opacity: 0.7"/>
     <use xlink:href="#mde5a30339b" x="89.345837" y="238.589823" style="fill-opacity: 0.7"/>
     <use xlink:href="#mde5a30339b" x="118.298947" y="198.75554" style="fill-opacity: 0.7"/>
     <use xlink:href="#mde5a30339b" x="112.361591" y="228.702185" style="fill-opacity: 0.7"/>
     <use xlink:href="#mde5a30339b" x="60.392727" y="208.064227" style="fill-opacity: 0.7"/>
     <use xlink:href="#mde5a30339b" x="60.392727" y="213.909771" style="fill-opacity: 0.7"/>
     <use xlink:href="#mde5a30339b" x="83.883742" y="219.320181" style="fill-opacity: 0.7"/>
     <use xlink:href="#mde5a30339b" x="60.398891" y="223.115986" style="fill-opacity: 0.7"/>
     <use xlink:href="#mde5a30339b" x="84.949361" y="229.089861" style="fill-opacity: 0.7"/>
     <use xlink:href="#mde5a30339b" x="71.552928" y="230.604533" style="fill-opacity: 0.7"/>
     <use xlink:href="#mde5a30339b" x="102.471977" y="231.475709" style="fill-opacity: 0.7"/>
     <use xlink:href="#mde5a30339b" x="114.037689" y="218.164513" style="fill-opacity: 0.7"/>
     <use xlink:href="#mde5a30339b" x="104.589863" y="214.911694" style="fill-opacity: 0.7"/>
     <use xlink:href="#mde5a30339b" x="97.860983" y="233.866401" style="fill-opacity: 0.7"/>
     <use xlink:href="#mde5a30339b" x="102.782731" y="210.217241" style="fill-opacity: 0.7"/>
     <use xlink:href="#mde5a30339b" x="103.520712" y="225.190458" style="fill-opacity: 0.7"/>
     <use xlink:href="#mde5a30339b" x="73.170041" y="209.953404" style="fill-opacity: 0.7"/>
     <use xlink:href="#mde5a30339b" x="107.951094" y="209.774951" style="fill-opacity: 0.7"/>
     <use xlink:href="#mde5a30339b" x="77.439752" y="212.862778" style="fill-opacity: 0.7"/>
     <use xlink:href="#mde5a30339b" x="60.392727" y="214.109205" style="fill-opacity: 0.7"/>
     <use xlink:href="#mde5a30339b" x="60.392727" y="219.961776" style="fill-opacity: 0.7"/>
     <use xlink:href="#mde5a30339b" x="89.345837" y="257.995389" style="fill-opacity: 0.7"/>
     <use xlink:href="#mde5a30339b" x="92.912914" y="213.342752" style="fill-opacity: 0.7"/>
     <use xlink:href="#mde5a30339b" x="63.756618" y="205.820467" style="fill-opacity: 0.7"/>
     <use xlink:href="#mde5a30339b" x="98.93954" y="227.632599" style="fill-opacity: 0.7"/>
     <use xlink:href="#mde5a30339b" x="84.153871" y="257.25401" style="fill-opacity: 0.7"/>
     <use xlink:href="#mde5a30339b" x="61.385518" y="228.272141" style="fill-opacity: 0.7"/>
     <use xlink:href="#mde5a30339b" x="87.479626" y="184.97536" style="fill-opacity: 0.7"/>
     <use xlink:href="#mde5a30339b" x="118.298947" y="200.494709" style="fill-opacity: 0.7"/>
     <use xlink:href="#mde5a30339b" x="94.302814" y="229.977714" style="fill-opacity: 0.7"/>
     <use xlink:href="#mde5a30339b" x="118.298947" y="221.281595" style="fill-opacity: 0.7"/>
     <use xlink:href="#mde5a30339b" x="118.298947" y="222.808346" style="fill-opacity: 0.7"/>
     <use xlink:href="#mde5a30339b" x="118.298947" y="227.218798" style="fill-opacity: 0.7"/>
     <use xlink:href="#mde5a30339b" x="60.392727" y="218.051885" style="fill-opacity: 0.7"/>
     <use xlink:href="#mde5a30339b" x="118.298947" y="214.666266" style="fill-opacity: 0.7"/>
     <use xlink:href="#mde5a30339b" x="118.298947" y="215.31566" style="fill-opacity: 0.7"/>
     <use xlink:href="#mde5a30339b" x="84.174282" y="157.957344" style="fill-opacity: 0.7"/>
     <use xlink:href="#mde5a30339b" x="94.186868" y="187.714056" style="fill-opacity: 0.7"/>
     <use xlink:href="#mde5a30339b" x="118.298947" y="209.720533" style="fill-opacity: 0.7"/>
     <use xlink:href="#mde5a30339b" x="89.345837" y="189.6488" style="fill-opacity: 0.7"/>
     <use xlink:href="#mde5a30339b" x="78.017669" y="206.71871" style="fill-opacity: 0.7"/>
     <use xlink:href="#mde5a30339b" x="75.018637" y="226.848799" style="fill-opacity: 0.7"/>
     <use xlink:href="#mde5a30339b" x="60.392727" y="215.239706" style="fill-opacity: 0.7"/>
     <use xlink:href="#mde5a30339b" x="60.392727" y="215.273201" style="fill-opacity: 0.7"/>
     <use xlink:href="#mde5a30339b" x="118.298947" y="207.977203" style="fill-opacity: 0.7"/>
     <use xlink:href="#mde5a30339b" x="98.72897" y="222.160701" style="fill-opacity: 0.7"/>
     <use xlink:href="#mde5a30339b" x="94.032216" y="224.394841" style="fill-opacity: 0.7"/>
     <use xlink:href="#mde5a30339b" x="93.050162" y="173.830681" style="fill-opacity: 0.7"/>
     <use xlink:href="#mde5a30339b" x="104.281821" y="204.849338" style="fill-opacity: 0.7"/>
     <use xlink:href="#mde5a30339b" x="60.392727" y="220.563567" style="fill-opacity: 0.7"/>
     <use xlink:href="#mde5a30339b" x="60.392727" y="200.956629" style="fill-opacity: 0.7"/>
     <use xlink:href="#mde5a30339b" x="90.108695" y="220.575758" style="fill-opacity: 0.7"/>
     <use xlink:href="#mde5a30339b" x="88.619121" y="210.465703" style="fill-opacity: 0.7"/>
     <use xlink:href="#mde5a30339b" x="118.298947" y="216.472148" style="fill-opacity: 0.7"/>
     <use xlink:href="#mde5a30339b" x="87.663886" y="233.294974" style="fill-opacity: 0.7"/>
     <use xlink:href="#mde5a30339b" x="75.897249" y="221.919315" style="fill-opacity: 0.7"/>
     <use xlink:href="#mde5a30339b" x="118.298947" y="219.832518" style="fill-opacity: 0.7"/>
     <use xlink:href="#mde5a30339b" x="60.392727" y="212.633296" style="fill-opacity: 0.7"/>
     <use xlink:href="#mde5a30339b" x="88.37458" y="215.856391" style="fill-opacity: 0.7"/>
     <use xlink:href="#mde5a30339b" x="92.544424" y="198.632581" style="fill-opacity: 0.7"/>
     <use xlink:href="#mde5a30339b" x="60.392727" y="227.105905" style="fill-opacity: 0.7"/>
     <use xlink:href="#mde5a30339b" x="117.585049" y="228.200051" style="fill-opacity: 0.7"/>
     <use xlink:href="#mde5a30339b" x="60.392727" y="198.152332" style="fill-opacity: 0.7"/>
     <use xlink:href="#mde5a30339b" x="118.298947" y="214.746008" style="fill-opacity: 0.7"/>
     <use xlink:href="#mde5a30339b" x="61.554973" y="201.281369" style="fill-opacity: 0.7"/>
     <use xlink:href="#mde5a30339b" x="118.298947" y="216.17819" style="fill-opacity: 0.7"/>
     <use xlink:href="#mde5a30339b" x="88.004198" y="175.211056" style="fill-opacity: 0.7"/>
     <use xlink:href="#mde5a30339b" x="81.692871" y="233.011748" style="fill-opacity: 0.7"/>
     <use xlink:href="#mde5a30339b" x="89.818597" y="227.37747" style="fill-opacity: 0.7"/>
     <use xlink:href="#mde5a30339b" x="101.219916" y="200.787766" style="fill-opacity: 0.7"/>
     <use xlink:href="#mde5a30339b" x="60.392727" y="216.30148" style="fill-opacity: 0.7"/>
     <use xlink:href="#mde5a30339b" x="118.298947" y="201.103114" style="fill-opacity: 0.7"/>
     <use xlink:href="#mde5a30339b" x="60.392727" y="210.994034" style="fill-opacity: 0.7"/>
     <use xlink:href="#mde5a30339b" x="83.147401" y="173.31249" style="fill-opacity: 0.7"/>
    </g>
   </g>
   <g id="PathCollection_2">
    <g clip-path="url(#pa3b3d1438b)">
     <use xlink:href="#mde5a30339b" x="157.080309" y="191.737578" style="fill-opacity: 0.7"/>
     <use xlink:href="#mde5a30339b" x="166.967366" y="231.999733" style="fill-opacity: 0.7"/>
     <use xlink:href="#mde5a30339b" x="177.309314" y="225.332154" style="fill-opacity: 0.7"/>
     <use xlink:href="#mde5a30339b" x="154.944648" y="221.162372" style="fill-opacity: 0.7"/>
     <use xlink:href="#mde5a30339b" x="161.728612" y="171.364142" style="fill-opacity: 0.7"/>
     <use xlink:href="#mde5a30339b" x="180.50316" y="219.854871" style="fill-opacity: 0.7"/>
     <use xlink:href="#mde5a30339b" x="162.713709" y="199.087683" style="fill-opacity: 0.7"/>
     <use xlink:href="#mde5a30339b" x="164.978227" y="221.104718" style="fill-opacity: 0.7"/>
     <use xlink:href="#mde5a30339b" x="139.505888" y="204.211476" style="fill-opacity: 0.7"/>
     <use xlink:href="#mde5a30339b" x="161.728612" y="232.326835" style="fill-opacity: 0.7"/>
     <use xlink:href="#mde5a30339b" x="156.488147" y="232.025631" style="fill-opacity: 0.7"/>
     <use xlink:href="#mde5a30339b" x="153.048162" y="195.189346" style="fill-opacity: 0.7"/>
     <use xlink:href="#mde5a30339b" x="143.154058" y="213.836773" style="fill-opacity: 0.7"/>
     <use xlink:href="#mde5a30339b" x="173.593936" y="205.432483" style="fill-opacity: 0.7"/>
     <use xlink:href="#mde5a30339b" x="190.681722" y="214.946662" style="fill-opacity: 0.7"/>
     <use xlink:href="#mde5a30339b" x="170.69131" y="189.42861" style="fill-opacity: 0.7"/>
     <use xlink:href="#mde5a30339b" x="170.22229" y="220.867011" style="fill-opacity: 0.7"/>
     <use xlink:href="#mde5a30339b" x="161.728612" y="226.999981" style="fill-opacity: 0.7"/>
     <use xlink:href="#mde5a30339b" x="161.728612" y="154.361368" style="fill-opacity: 0.7"/>
     <use xlink:href="#mde5a30339b" x="172.069445" y="225.642617" style="fill-opacity: 0.7"/>
     <use xlink:href="#mde5a30339b" x="161.728612" y="194.061812" style="fill-opacity: 0.7"/>
     <use xlink:href="#mde5a30339b" x="162.308327" y="214.286197" style="fill-opacity: 0.7"/>
     <use xlink:href="#mde5a30339b" x="190.681578" y="192.09439" style="fill-opacity: 0.7"/>
     <use xlink:href="#mde5a30339b" x="161.728612" y="135.499931" style="fill-opacity: 0.7"/>
     <use xlink:href="#mde5a30339b" x="146.064398" y="231.118228" style="fill-opacity: 0.7"/>
     <use xlink:href="#mde5a30339b" x="160.067311" y="222.256916" style="fill-opacity: 0.7"/>
     <use xlink:href="#mde5a30339b" x="139.819919" y="217.699029" style="fill-opacity: 0.7"/>
     <use xlink:href="#mde5a30339b" x="176.395733" y="197.090005" style="fill-opacity: 0.7"/>
     <use xlink:href="#mde5a30339b" x="158.714053" y="202.326513" style="fill-opacity: 0.7"/>
     <use xlink:href="#mde5a30339b" x="155.056347" y="205.953772" style="fill-opacity: 0.7"/>
     <use xlink:href="#mde5a30339b" x="132.775502" y="214.956163" style="fill-opacity: 0.7"/>
     <use xlink:href="#mde5a30339b" x="148.096548" y="200.421464" style="fill-opacity: 0.7"/>
     <use xlink:href="#mde5a30339b" x="151.368211" y="225.603945" style="fill-opacity: 0.7"/>
     <use xlink:href="#mde5a30339b" x="135.391261" y="215.013805" style="fill-opacity: 0.7"/>
     <use xlink:href="#mde5a30339b" x="161.728612" y="286.846561" style="fill-opacity: 0.7"/>
     <use xlink:href="#mde5a30339b" x="144.528487" y="219.910498" style="fill-opacity: 0.7"/>
     <use xlink:href="#mde5a30339b" x="161.728612" y="87.640682" style="fill-opacity: 0.7"/>
     <use xlink:href="#mde5a30339b" x="166.817042" y="153.130479" style="fill-opacity: 0.7"/>
     <use xlink:href="#mde5a30339b" x="142.225541" y="199.934661" style="fill-opacity: 0.7"/>
     <use xlink:href="#mde5a30339b" x="169.377886" y="212.031205" style="fill-opacity: 0.7"/>
     <use xlink:href="#mde5a30339b" x="152.131145" y="173.87698" style="fill-opacity: 0.7"/>
     <use xlink:href="#mde5a30339b" x="157.251428" y="174.981578" style="fill-opacity: 0.7"/>
     <use xlink:href="#mde5a30339b" x="156.649253" y="182.008395" style="fill-opacity: 0.7"/>
     <use xlink:href="#mde5a30339b" x="142.73872" y="193.300408" style="fill-opacity: 0.7"/>
     <use xlink:href="#mde5a30339b" x="181.358588" y="200.33512" style="fill-opacity: 0.7"/>
     <use xlink:href="#mde5a30339b" x="182.483503" y="224.485514" style="fill-opacity: 0.7"/>
     <use xlink:href="#mde5a30339b" x="135.987402" y="209.057627" style="fill-opacity: 0.7"/>
     <use xlink:href="#mde5a30339b" x="152.652249" y="189.051461" style="fill-opacity: 0.7"/>
     <use xlink:href="#mde5a30339b" x="151.314014" y="231.178684" style="fill-opacity: 0.7"/>
     <use xlink:href="#mde5a30339b" x="161.728612" y="261.948854" style="fill-opacity: 0.7"/>
     <use xlink:href="#mde5a30339b" x="136.992147" y="199.537292" style="fill-opacity: 0.7"/>
     <use xlink:href="#mde5a30339b" x="190.681722" y="200.172008" style="fill-opacity: 0.7"/>
     <use xlink:href="#mde5a30339b" x="171.112836" y="173.115337" style="fill-opacity: 0.7"/>
     <use xlink:href="#mde5a30339b" x="190.681722" y="218.531441" style="fill-opacity: 0.7"/>
     <use xlink:href="#mde5a30339b" x="167.477285" y="201.831117" style="fill-opacity: 0.7"/>
     <use xlink:href="#mde5a30339b" x="137.630748" y="192.145266" style="fill-opacity: 0.7"/>
     <use xlink:href="#mde5a30339b" x="161.728612" y="177.592791" style="fill-opacity: 0.7"/>
     <use xlink:href="#mde5a30339b" x="190.681722" y="206.884572" style="fill-opacity: 0.7"/>
     <use xlink:href="#mde5a30339b" x="174.334268" y="210.38252" style="fill-opacity: 0.7"/>
     <use xlink:href="#mde5a30339b" x="141.235765" y="209.182499" style="fill-opacity: 0.7"/>
     <use xlink:href="#mde5a30339b" x="132.775502" y="212.938773" style="fill-opacity: 0.7"/>
     <use xlink:href="#mde5a30339b" x="151.977891" y="179.726478" style="fill-opacity: 0.7"/>
     <use xlink:href="#mde5a30339b" x="186.302051" y="198.651621" style="fill-opacity: 0.7"/>
     <use xlink:href="#mde5a30339b" x="132.775502" y="217.368725" style="fill-opacity: 0.7"/>
     <use xlink:href="#mde5a30339b" x="187.600156" y="213.067628" style="fill-opacity: 0.7"/>
     <use xlink:href="#mde5a30339b" x="167.017142" y="216.49719" style="fill-opacity: 0.7"/>
     <use xlink:href="#mde5a30339b" x="146.893005" y="209.783563" style="fill-opacity: 0.7"/>
     <use xlink:href="#mde5a30339b" x="185.482973" y="192.792305" style="fill-opacity: 0.7"/>
     <use xlink:href="#mde5a30339b" x="190.681722" y="212.8355" style="fill-opacity: 0.7"/>
     <use xlink:href="#mde5a30339b" x="190.681722" y="207.000634" style="fill-opacity: 0.7"/>
     <use xlink:href="#mde5a30339b" x="190.681722" y="206.866873" style="fill-opacity: 0.7"/>
     <use xlink:href="#mde5a30339b" x="147.70101" y="215.999401" style="fill-opacity: 0.7"/>
     <use xlink:href="#mde5a30339b" x="190.681722" y="198.087643" style="fill-opacity: 0.7"/>
     <use xlink:href="#mde5a30339b" x="136.452264" y="221.626362" style="fill-opacity: 0.7"/>
     <use xlink:href="#mde5a30339b" x="144.75542" y="204.278238" style="fill-opacity: 0.7"/>
     <use xlink:href="#mde5a30339b" x="158.415157" y="217.510953" style="fill-opacity: 0.7"/>
     <use xlink:href="#mde5a30339b" x="168.861085" y="207.055489" style="fill-opacity: 0.7"/>
     <use xlink:href="#mde5a30339b" x="190.681722" y="216.34533" style="fill-opacity: 0.7"/>
     <use xlink:href="#mde5a30339b" x="140.985926" y="224.147636" style="fill-opacity: 0.7"/>
     <use xlink:href="#mde5a30339b" x="175.432003" y="220.248773" style="fill-opacity: 0.7"/>
     <use xlink:href="#mde5a30339b" x="172.214016" y="231.821151" style="fill-opacity: 0.7"/>
     <use xlink:href="#mde5a30339b" x="179.51699" y="209.584624" style="fill-opacity: 0.7"/>
     <use xlink:href="#mde5a30339b" x="152.038376" y="210.776807" style="fill-opacity: 0.7"/>
     <use xlink:href="#mde5a30339b" x="166.821615" y="225.786368" style="fill-opacity: 0.7"/>
     <use xlink:href="#mde5a30339b" x="171.527783" y="180.304964" style="fill-opacity: 0.7"/>
     <use xlink:href="#mde5a30339b" x="132.775502" y="218.968941" style="fill-opacity: 0.7"/>
     <use xlink:href="#mde5a30339b" x="190.681722" y="207.59714" style="fill-opacity: 0.7"/>
     <use xlink:href="#mde5a30339b" x="132.775502" y="206.969948" style="fill-opacity: 0.7"/>
     <use xlink:href="#mde5a30339b" x="132.775502" y="191.703433" style="fill-opacity: 0.7"/>
     <use xlink:href="#mde5a30339b" x="132.775502" y="206.868084" style="fill-opacity: 0.7"/>
     <use xlink:href="#mde5a30339b" x="164.655501" y="209.846619" style="fill-opacity: 0.7"/>
     <use xlink:href="#mde5a30339b" x="161.728612" y="271.687807" style="fill-opacity: 0.7"/>
     <use xlink:href="#mde5a30339b" x="153.292476" y="216.416486" style="fill-opacity: 0.7"/>
     <use xlink:href="#mde5a30339b" x="171.85053" y="194.587647" style="fill-opacity: 0.7"/>
     <use xlink:href="#mde5a30339b" x="185.361075" y="218.286478" style="fill-opacity: 0.7"/>
     <use xlink:href="#mde5a30339b" x="156.628781" y="260.761538" style="fill-opacity: 0.7"/>
     <use xlink:href="#mde5a30339b" x="146.151836" y="225.038952" style="fill-opacity: 0.7"/>
     <use xlink:href="#mde5a30339b" x="147.65853" y="187.508347" style="fill-opacity: 0.7"/>
     <use xlink:href="#mde5a30339b" x="161.00261" y="188.414048" style="fill-opacity: 0.7"/>
     <use xlink:href="#mde5a30339b" x="159.624256" y="208.418342" style="fill-opacity: 0.7"/>
     <use xlink:href="#mde5a30339b" x="190.681722" y="217.500544" style="fill-opacity: 0.7"/>
     <use xlink:href="#mde5a30339b" x="190.681722" y="218.066684" style="fill-opacity: 0.7"/>
     <use xlink:href="#mde5a30339b" x="132.775502" y="217.625024" style="fill-opacity: 0.7"/>
     <use xlink:href="#mde5a30339b" x="182.447439" y="214.025712" style="fill-opacity: 0.7"/>
     <use xlink:href="#mde5a30339b" x="132.775502" y="206.676659" style="fill-opacity: 0.7"/>
     <use xlink:href="#mde5a30339b" x="178.698474" y="204.645766" style="fill-opacity: 0.7"/>
     <use xlink:href="#mde5a30339b" x="151.820635" y="151.736488" style="fill-opacity: 0.7"/>
     <use xlink:href="#mde5a30339b" x="166.306212" y="180.824597" style="fill-opacity: 0.7"/>
     <use xlink:href="#mde5a30339b" x="132.775502" y="207.226481" style="fill-opacity: 0.7"/>
     <use xlink:href="#mde5a30339b" x="161.728612" y="183.272806" style="fill-opacity: 0.7"/>
     <use xlink:href="#mde5a30339b" x="165.613503" y="190.698663" style="fill-opacity: 0.7"/>
     <use xlink:href="#mde5a30339b" x="132.775502" y="212.649635" style="fill-opacity: 0.7"/>
     <use xlink:href="#mde5a30339b" x="190.681722" y="202.618319" style="fill-opacity: 0.7"/>
     <use xlink:href="#mde5a30339b" x="132.775502" y="198.119845" style="fill-opacity: 0.7"/>
     <use xlink:href="#mde5a30339b" x="132.775502" y="215.248955" style="fill-opacity: 0.7"/>
     <use xlink:href="#mde5a30339b" x="190.681722" y="219.15402" style="fill-opacity: 0.7"/>
     <use xlink:href="#mde5a30339b" x="149.726516" y="220.612291" style="fill-opacity: 0.7"/>
     <use xlink:href="#mde5a30339b" x="166.355859" y="175.230754" style="fill-opacity: 0.7"/>
     <use xlink:href="#mde5a30339b" x="190.681722" y="214.992312" style="fill-opacity: 0.7"/>
     <use xlink:href="#mde5a30339b" x="190.681722" y="212.459499" style="fill-opacity: 0.7"/>
     <use xlink:href="#mde5a30339b" x="175.915814" y="188.936442" style="fill-opacity: 0.7"/>
     <use xlink:href="#mde5a30339b" x="189.942131" y="208.618218" style="fill-opacity: 0.7"/>
     <use xlink:href="#mde5a30339b" x="153.092565" y="201.316736" style="fill-opacity: 0.7"/>
     <use xlink:href="#mde5a30339b" x="157.828446" y="197.256558" style="fill-opacity: 0.7"/>
     <use xlink:href="#mde5a30339b" x="177.405694" y="215.420001" style="fill-opacity: 0.7"/>
     <use xlink:href="#mde5a30339b" x="156.86219" y="212.750173" style="fill-opacity: 0.7"/>
     <use xlink:href="#mde5a30339b" x="132.775502" y="207.734946" style="fill-opacity: 0.7"/>
     <use xlink:href="#mde5a30339b" x="172.529912" y="200.473027" style="fill-opacity: 0.7"/>
     <use xlink:href="#mde5a30339b" x="184.694073" y="208.754187" style="fill-opacity: 0.7"/>
     <use xlink:href="#mde5a30339b" x="186.544716" y="204.075134" style="fill-opacity: 0.7"/>
     <use xlink:href="#mde5a30339b" x="177.38005" y="230.930485" style="fill-opacity: 0.7"/>
     <use xlink:href="#mde5a30339b" x="172.227869" y="216.24623" style="fill-opacity: 0.7"/>
     <use xlink:href="#mde5a30339b" x="147.876654" y="194.32798" style="fill-opacity: 0.7"/>
     <use xlink:href="#mde5a30339b" x="132.775502" y="218.471951" style="fill-opacity: 0.7"/>
     <use xlink:href="#mde5a30339b" x="167.040758" y="196.256186" style="fill-opacity: 0.7"/>
     <use xlink:href="#mde5a30339b" x="132.775502" y="201.690478" style="fill-opacity: 0.7"/>
     <use xlink:href="#mde5a30339b" x="161.728612" y="165.575791" style="fill-opacity: 0.7"/>
     <use xlink:href="#mde5a30339b" x="156.609612" y="225.890005" style="fill-opacity: 0.7"/>
     <use xlink:href="#mde5a30339b" x="187.452803" y="222.872484" style="fill-opacity: 0.7"/>
     <use xlink:href="#mde5a30339b" x="163.266339" y="204.817166" style="fill-opacity: 0.7"/>
     <use xlink:href="#mde5a30339b" x="149.819803" y="205.596014" style="fill-opacity: 0.7"/>
     <use xlink:href="#mde5a30339b" x="180.338153" y="193.788138" style="fill-opacity: 0.7"/>
     <use xlink:href="#mde5a30339b" x="134.485616" y="204.061119" style="fill-opacity: 0.7"/>
     <use xlink:href="#mde5a30339b" x="156.49082" y="154.020588" style="fill-opacity: 0.7"/>
    </g>
   </g>
   <g id="PathCollection_3">
    <g clip-path="url(#pa3b3d1438b)">
     <use xlink:href="#mde5a30339b" x="213.368158" y="186.886689" style="fill-opacity: 0.7"/>
     <use xlink:href="#mde5a30339b" x="234.111388" y="223.647715" style="fill-opacity: 0.7"/>
     <use xlink:href="#mde5a30339b" x="226.997299" y="228.454461" style="fill-opacity: 0.7"/>
     <use xlink:href="#mde5a30339b" x="223.857626" y="222.14323" style="fill-opacity: 0.7"/>
     <use xlink:href="#mde5a30339b" x="234.111388" y="177.437558" style="fill-opacity: 0.7"/>
     <use xlink:href="#mde5a30339b" x="231.106728" y="218.228852" style="fill-opacity: 0.7"/>
     <use xlink:href="#mde5a30339b" x="232.141598" y="194.164244" style="fill-opacity: 0.7"/>
     <use xlink:href="#mde5a30339b" x="213.739109" y="210.699183" style="fill-opacity: 0.7"/>
     <use xlink:href="#mde5a30339b" x="233.755837" y="198.922026" style="fill-opacity: 0.7"/>
     <use xlink:href="#mde5a30339b" x="249.534375" y="221.197195" style="fill-opacity: 0.7"/>
     <use xlink:href="#mde5a30339b" x="228.940431" y="222.783351" style="fill-opacity: 0.7"/>
     <use xlink:href="#mde5a30339b" x="222.985681" y="195.88039" style="fill-opacity: 0.7"/>
     <use xlink:href="#mde5a30339b" x="232.237579" y="209.488522" style="fill-opacity: 0.7"/>
     <use xlink:href="#mde5a30339b" x="223.498912" y="189.501231" style="fill-opacity: 0.7"/>
     <use xlink:href="#mde5a30339b" x="217.025936" y="206.6656" style="fill-opacity: 0.7"/>
     <use xlink:href="#mde5a30339b" x="246.219048" y="188.621068" style="fill-opacity: 0.7"/>
     <use xlink:href="#mde5a30339b" x="216.822982" y="226.205403" style="fill-opacity: 0.7"/>
     <use xlink:href="#mde5a30339b" x="246.340854" y="217.22862" style="fill-opacity: 0.7"/>
     <use xlink:href="#mde5a30339b" x="229.18997" y="138.807306" style="fill-opacity: 0.7"/>
     <use xlink:href="#mde5a30339b" x="205.158278" y="212.911346" style="fill-opacity: 0.7"/>
     <use xlink:href="#mde5a30339b" x="228.878405" y="202.890663" style="fill-opacity: 0.7"/>
     <use xlink:href="#mde5a30339b" x="234.111388" y="214.12777" style="fill-opacity: 0.7"/>
     <use xlink:href="#mde5a30339b" x="256.070003" y="192.158444" style="fill-opacity: 0.7"/>
     <use xlink:href="#mde5a30339b" x="234.111388" y="134.132483" style="fill-opacity: 0.7"/>
     <use xlink:href="#mde5a30339b" x="237.002093" y="229.2684" style="fill-opacity: 0.7"/>
     <use xlink:href="#mde5a30339b" x="254.379312" y="210.810358" style="fill-opacity: 0.7"/>
     <use xlink:href="#mde5a30339b" x="218.948721" y="211.318192" style="fill-opacity: 0.7"/>
     <use xlink:href="#mde5a30339b" x="251.10585" y="193.785784" style="fill-opacity: 0.7"/>
     <use xlink:href="#mde5a30339b" x="263.064498" y="204.16972" style="fill-opacity: 0.7"/>
     <use xlink:href="#mde5a30339b" x="223.643321" y="202.514019" style="fill-opacity: 0.7"/>
     <use xlink:href="#mde5a30339b" x="205.303519" y="214.964879" style="fill-opacity: 0.7"/>
     <use xlink:href="#mde5a30339b" x="227.265408" y="192.984395" style="fill-opacity: 0.7"/>
     <use xlink:href="#mde5a30339b" x="213.562621" y="220.78034" style="fill-opacity: 0.7"/>
     <use xlink:href="#mde5a30339b" x="261.970365" y="215.408565" style="fill-opacity: 0.7"/>
     <use xlink:href="#mde5a30339b" x="234.111388" y="279.908228" style="fill-opacity: 0.7"/>
     <use xlink:href="#mde5a30339b" x="231.869056" y="230.317938" style="fill-opacity: 0.7"/>
     <use xlink:href="#mde5a30339b" x="234.111388" y="77.062134" style="fill-opacity: 0.7"/>
     <use xlink:href="#mde5a30339b" x="234.111388" y="124.872894" style="fill-opacity: 0.7"/>
     <use xlink:href="#mde5a30339b" x="263.064498" y="198.837778" style="fill-opacity: 0.7"/>
     <use xlink:href="#mde5a30339b" x="244.393402" y="222.210887" style="fill-opacity: 0.7"/>
     <use xlink:href="#mde5a30339b" x="228.96499" y="169.889314" style="fill-opacity: 0.7"/>
     <use xlink:href="#mde5a30339b" x="230.759207" y="157.394572" style="fill-opacity: 0.7"/>
     <use xlink:href="#mde5a30339b" x="251.242105" y="187.166883" style="fill-opacity: 0.7"/>
     <use xlink:href="#mde5a30339b" x="238.215432" y="196.283655" style="fill-opacity: 0.7"/>
     <use xlink:href="#mde5a30339b" x="205.158278" y="201.474999" style="fill-opacity: 0.7"/>
     <use xlink:href="#mde5a30339b" x="239.350911" y="223.331994" style="fill-opacity: 0.7"/>
     <use xlink:href="#mde5a30339b" x="205.158278" y="206.362473" style="fill-opacity: 0.7"/>
     <use xlink:href="#mde5a30339b" x="244.47199" y="176.077837" style="fill-opacity: 0.7"/>
     <use xlink:href="#mde5a30339b" x="247.085059" y="226.503737" style="fill-opacity: 0.7"/>
     <use xlink:href="#mde5a30339b" x="231.042429" y="256.930012" style="fill-opacity: 0.7"/>
     <use xlink:href="#mde5a30339b" x="263.064498" y="205.755961" style="fill-opacity: 0.7"/>
     <use xlink:href="#mde5a30339b" x="212.089599" y="193.395028" style="fill-opacity: 0.7"/>
     <use xlink:href="#mde5a30339b" x="239.693021" y="183.633646" style="fill-opacity: 0.7"/>
     <use xlink:href="#mde5a30339b" x="263.064498" y="208.99728" style="fill-opacity: 0.7"/>
     <use xlink:href="#mde5a30339b" x="205.158278" y="206.946739" style="fill-opacity: 0.7"/>
     <use xlink:href="#mde5a30339b" x="234.56045" y="184.685246" style="fill-opacity: 0.7"/>
     <use xlink:href="#mde5a30339b" x="240.972216" y="188.794723" style="fill-opacity: 0.7"/>
     <use xlink:href="#mde5a30339b" x="261.863281" y="205.288011" style="fill-opacity: 0.7"/>
     <use xlink:href="#mde5a30339b" x="205.158278" y="209.15932" style="fill-opacity: 0.7"/>
     <use xlink:href="#mde5a30339b" x="263.064498" y="204.773702" style="fill-opacity: 0.7"/>
     <use xlink:href="#mde5a30339b" x="263.064498" y="217.193961" style="fill-opacity: 0.7"/>
     <use xlink:href="#mde5a30339b" x="249.604671" y="175.026719" style="fill-opacity: 0.7"/>
     <use xlink:href="#mde5a30339b" x="205.158278" y="207.453523" style="fill-opacity: 0.7"/>
     <use xlink:href="#mde5a30339b" x="241.988769" y="227.704766" style="fill-opacity: 0.7"/>
     <use xlink:href="#mde5a30339b" x="223.946705" y="212.84873" style="fill-opacity: 0.7"/>
     <use xlink:href="#mde5a30339b" x="244.168666" y="212.230349" style="fill-opacity: 0.7"/>
     <use xlink:href="#mde5a30339b" x="243.170561" y="200.179846" style="fill-opacity: 0.7"/>
     <use xlink:href="#mde5a30339b" x="236.369876" y="191.200493" style="fill-opacity: 0.7"/>
     <use xlink:href="#mde5a30339b" x="259.624088" y="210.587362" style="fill-opacity: 0.7"/>
     <use xlink:href="#mde5a30339b" x="233.84533" y="204.510314" style="fill-opacity: 0.7"/>
     <use xlink:href="#mde5a30339b" x="263.064498" y="209.52597" style="fill-opacity: 0.7"/>
     <use xlink:href="#mde5a30339b" x="263.064498" y="209.564703" style="fill-opacity: 0.7"/>
     <use xlink:href="#mde5a30339b" x="205.158278" y="204.761399" style="fill-opacity: 0.7"/>
     <use xlink:href="#mde5a30339b" x="252.262908" y="225.67764" style="fill-opacity: 0.7"/>
     <use xlink:href="#mde5a30339b" x="205.158278" y="209.020896" style="fill-opacity: 0.7"/>
     <use xlink:href="#mde5a30339b" x="263.064498" y="215.30962" style="fill-opacity: 0.7"/>
     <use xlink:href="#mde5a30339b" x="263.064498" y="209.060923" style="fill-opacity: 0.7"/>
     <use xlink:href="#mde5a30339b" x="228.92271" y="213.365793" style="fill-opacity: 0.7"/>
     <use xlink:href="#mde5a30339b" x="234.111388" y="234.838934" style="fill-opacity: 0.7"/>
     <use xlink:href="#mde5a30339b" x="220.726651" y="216.721898" style="fill-opacity: 0.7"/>
     <use xlink:href="#mde5a30339b" x="218.749366" y="221.554161" style="fill-opacity: 0.7"/>
     <use xlink:href="#mde5a30339b" x="246.367056" y="207.68982" style="fill-opacity: 0.7"/>
     <use xlink:href="#mde5a30339b" x="241.655963" y="205.483232" style="fill-opacity: 0.7"/>
     <use xlink:href="#mde5a30339b" x="222.031714" y="226.831087" style="fill-opacity: 0.7"/>
     <use xlink:href="#mde5a30339b" x="242.925923" y="194.075901" style="fill-opacity: 0.7"/>
     <use xlink:href="#mde5a30339b" x="251.529426" y="216.465993" style="fill-opacity: 0.7"/>
     <use xlink:href="#mde5a30339b" x="256.746103" y="206.405585" style="fill-opacity: 0.7"/>
     <use xlink:href="#mde5a30339b" x="219.521451" y="199.637362" style="fill-opacity: 0.7"/>
     <use xlink:href="#mde5a30339b" x="227.613015" y="198.038071" style="fill-opacity: 0.7"/>
     <use xlink:href="#mde5a30339b" x="205.158278" y="215.863016" style="fill-opacity: 0.7"/>
     <use xlink:href="#mde5a30339b" x="241.305431" y="217.942843" style="fill-opacity: 0.7"/>
     <use xlink:href="#mde5a30339b" x="234.111388" y="266.385981" style="fill-opacity: 0.7"/>
     <use xlink:href="#mde5a30339b" x="263.064498" y="204.959437" style="fill-opacity: 0.7"/>
     <use xlink:href="#mde5a30339b" x="253.929145" y="202.186285" style="fill-opacity: 0.7"/>
     <use xlink:href="#mde5a30339b" x="263.064498" y="214.626122" style="fill-opacity: 0.7"/>
     <use xlink:href="#mde5a30339b" x="234.111388" y="260.986752" style="fill-opacity: 0.7"/>
     <use xlink:href="#mde5a30339b" x="215.530729" y="216.006094" style="fill-opacity: 0.7"/>
     <use xlink:href="#mde5a30339b" x="223.756152" y="175.897317" style="fill-opacity: 0.7"/>
     <use xlink:href="#mde5a30339b" x="229.34351" y="184.125008" style="fill-opacity: 0.7"/>
     <use xlink:href="#mde5a30339b" x="251.486043" y="206.57979" style="fill-opacity: 0.7"/>
     <use xlink:href="#mde5a30339b" x="222.093632" y="207.314562" style="fill-opacity: 0.7"/>
     <use xlink:href="#mde5a30339b" x="249.268357" y="211.953469" style="fill-opacity: 0.7"/>
     <use xlink:href="#mde5a30339b" x="205.158278" y="218.817413" style="fill-opacity: 0.7"/>
     <use xlink:href="#mde5a30339b" x="225.915324" y="217.483905" style="fill-opacity: 0.7"/>
     <use xlink:href="#mde5a30339b" x="263.064498" y="206.544296" style="fill-opacity: 0.7"/>
     <use xlink:href="#mde5a30339b" x="259.973992" y="220.130728" style="fill-opacity: 0.7"/>
     <use xlink:href="#mde5a30339b" x="234.111388" y="140.548406" style="fill-opacity: 0.7"/>
     <use xlink:href="#mde5a30339b" x="228.884755" y="176.966332" style="fill-opacity: 0.7"/>
     <use xlink:href="#mde5a30339b" x="237.325102" y="208.254236" style="fill-opacity: 0.7"/>
     <use xlink:href="#mde5a30339b" x="239.22804" y="176.317806" style="fill-opacity: 0.7"/>
     <use xlink:href="#mde5a30339b" x="247.617932" y="197.522824" style="fill-opacity: 0.7"/>
     <use xlink:href="#mde5a30339b" x="205.158278" y="217.323718" style="fill-opacity: 0.7"/>
     <use xlink:href="#mde5a30339b" x="208.490891" y="210.568924" style="fill-opacity: 0.7"/>
     <use xlink:href="#mde5a30339b" x="209.31396" y="201.635712" style="fill-opacity: 0.7"/>
     <use xlink:href="#mde5a30339b" x="263.064498" y="209.242686" style="fill-opacity: 0.7"/>
     <use xlink:href="#mde5a30339b" x="236.186966" y="219.055059" style="fill-opacity: 0.7"/>
     <use xlink:href="#mde5a30339b" x="263.064498" y="218.484176" style="fill-opacity: 0.7"/>
     <use xlink:href="#mde5a30339b" x="234.111388" y="170.877724" style="fill-opacity: 0.7"/>
     <use xlink:href="#mde5a30339b" x="247.660902" y="202.844039" style="fill-opacity: 0.7"/>
     <use xlink:href="#mde5a30339b" x="208.350408" y="220.181525" style="fill-opacity: 0.7"/>
     <use xlink:href="#mde5a30339b" x="238.153583" y="201.65294" style="fill-opacity: 0.7"/>
     <use xlink:href="#mde5a30339b" x="205.158278" y="209.470293" style="fill-opacity: 0.7"/>
     <use xlink:href="#mde5a30339b" x="205.158278" y="205.087171" style="fill-opacity: 0.7"/>
     <use xlink:href="#mde5a30339b" x="211.671002" y="206.103471" style="fill-opacity: 0.7"/>
     <use xlink:href="#mde5a30339b" x="256.746537" y="215.907196" style="fill-opacity: 0.7"/>
     <use xlink:href="#mde5a30339b" x="205.158278" y="204.934199" style="fill-opacity: 0.7"/>
     <use xlink:href="#mde5a30339b" x="263.064498" y="204.480076" style="fill-opacity: 0.7"/>
     <use xlink:href="#mde5a30339b" x="227.195249" y="208.096153" style="fill-opacity: 0.7"/>
     <use xlink:href="#mde5a30339b" x="239.069204" y="213.419105" style="fill-opacity: 0.7"/>
     <use xlink:href="#mde5a30339b" x="231.715431" y="188.887434" style="fill-opacity: 0.7"/>
     <use xlink:href="#mde5a30339b" x="210.507814" y="215.623201" style="fill-opacity: 0.7"/>
     <use xlink:href="#mde5a30339b" x="205.158278" y="219.645221" style="fill-opacity: 0.7"/>
     <use xlink:href="#mde5a30339b" x="256.414174" y="186.30858" style="fill-opacity: 0.7"/>
     <use xlink:href="#mde5a30339b" x="205.158278" y="204.754038" style="fill-opacity: 0.7"/>
     <use xlink:href="#mde5a30339b" x="258.988192" y="200.850049" style="fill-opacity: 0.7"/>
     <use xlink:href="#mde5a30339b" x="214.939137" y="202.077557" style="fill-opacity: 0.7"/>
     <use xlink:href="#mde5a30339b" x="234.111388" y="161.242637" style="fill-opacity: 0.7"/>
     <use xlink:href="#mde5a30339b" x="263.064498" y="219.416886" style="fill-opacity: 0.7"/>
     <use xlink:href="#mde5a30339b" x="254.759638" y="220.712391" style="fill-opacity: 0.7"/>
     <use xlink:href="#mde5a30339b" x="216.953892" y="195.276109" style="fill-opacity: 0.7"/>
     <use xlink:href="#mde5a30339b" x="263.064498" y="205.238155" style="fill-opacity: 0.7"/>
     <use xlink:href="#mde5a30339b" x="218.396243" y="188.325025" style="fill-opacity: 0.7"/>
     <use xlink:href="#mde5a30339b" x="205.158278" y="201.590231" style="fill-opacity: 0.7"/>
     <use xlink:href="#mde5a30339b" x="235.626811" y="155.521277" style="fill-opacity: 0.7"/>
    </g>
   </g>
   <g id="PathCollection_4">
    <g clip-path="url(#pa3b3d1438b)">
     <use xlink:href="#mde5a30339b" x="277.541053" y="207.807724" style="fill-opacity: 0.7"/>
     <use xlink:href="#mde5a30339b" x="303.223621" y="223.981207" style="fill-opacity: 0.7"/>
     <use xlink:href="#mde5a30339b" x="306.494163" y="239.977757" style="fill-opacity: 0.7"/>
     <use xlink:href="#mde5a30339b" x="327.731284" y="228.648458" style="fill-opacity: 0.7"/>
     <use xlink:href="#mde5a30339b" x="316.792645" y="174.819336" style="fill-opacity: 0.7"/>
     <use xlink:href="#mde5a30339b" x="277.541053" y="222.81008" style="fill-opacity: 0.7"/>
     <use xlink:href="#mde5a30339b" x="281.558383" y="203.889593" style="fill-opacity: 0.7"/>
     <use xlink:href="#mde5a30339b" x="277.541053" y="218.416097" style="fill-opacity: 0.7"/>
     <use xlink:href="#mde5a30339b" x="289.555635" y="195.113692" style="fill-opacity: 0.7"/>
     <use xlink:href="#mde5a30339b" x="303.732253" y="235.725575" style="fill-opacity: 0.7"/>
     <use xlink:href="#mde5a30339b" x="295.156975" y="229.972129" style="fill-opacity: 0.7"/>
     <use xlink:href="#mde5a30339b" x="298.898035" y="210.672551" style="fill-opacity: 0.7"/>
     <use xlink:href="#mde5a30339b" x="318.198306" y="209.89191" style="fill-opacity: 0.7"/>
     <use xlink:href="#mde5a30339b" x="277.541053" y="211.287346" style="fill-opacity: 0.7"/>
     <use xlink:href="#mde5a30339b" x="277.541053" y="216.429516" style="fill-opacity: 0.7"/>
     <use xlink:href="#mde5a30339b" x="304.181394" y="194.218348" style="fill-opacity: 0.7"/>
     <use xlink:href="#mde5a30339b" x="312.14618" y="230.038253" style="fill-opacity: 0.7"/>
     <use xlink:href="#mde5a30339b" x="277.541053" y="222.342516" style="fill-opacity: 0.7"/>
     <use xlink:href="#mde5a30339b" x="303.186877" y="148.286891" style="fill-opacity: 0.7"/>
     <use xlink:href="#mde5a30339b" x="335.447273" y="217.162441" style="fill-opacity: 0.7"/>
     <use xlink:href="#mde5a30339b" x="306.494163" y="198.707044" style="fill-opacity: 0.7"/>
     <use xlink:href="#mde5a30339b" x="327.360974" y="213.52799" style="fill-opacity: 0.7"/>
     <use xlink:href="#mde5a30339b" x="299.17639" y="198.351252" style="fill-opacity: 0.7"/>
     <use xlink:href="#mde5a30339b" x="306.494163" y="152.170032" style="fill-opacity: 0.7"/>
     <use xlink:href="#mde5a30339b" x="322.644651" y="229.886065" style="fill-opacity: 0.7"/>
     <use xlink:href="#mde5a30339b" x="335.447273" y="221.283132" style="fill-opacity: 0.7"/>
     <use xlink:href="#mde5a30339b" x="335.447273" y="217.548115" style="fill-opacity: 0.7"/>
     <use xlink:href="#mde5a30339b" x="335.447273" y="209.501822" style="fill-opacity: 0.7"/>
     <use xlink:href="#mde5a30339b" x="313.89771" y="207.263794" style="fill-opacity: 0.7"/>
     <use xlink:href="#mde5a30339b" x="316.707825" y="201.102356" style="fill-opacity: 0.7"/>
     <use xlink:href="#mde5a30339b" x="332.726481" y="227.109689" style="fill-opacity: 0.7"/>
     <use xlink:href="#mde5a30339b" x="335.447273" y="206.455856" style="fill-opacity: 0.7"/>
     <use xlink:href="#mde5a30339b" x="277.541053" y="221.044367" style="fill-opacity: 0.7"/>
     <use xlink:href="#mde5a30339b" x="335.447273" y="216.44193" style="fill-opacity: 0.7"/>
     <use xlink:href="#mde5a30339b" x="306.494163" y="271.295616" style="fill-opacity: 0.7"/>
     <use xlink:href="#mde5a30339b" x="304.465308" y="230.44259" style="fill-opacity: 0.7"/>
     <use xlink:href="#mde5a30339b" x="306.494163" y="102.690811" style="fill-opacity: 0.7"/>
     <use xlink:href="#mde5a30339b" x="301.839069" y="164.382002" style="fill-opacity: 0.7"/>
     <use xlink:href="#mde5a30339b" x="292.552351" y="204.262005" style="fill-opacity: 0.7"/>
     <use xlink:href="#mde5a30339b" x="326.83873" y="218.50319" style="fill-opacity: 0.7"/>
     <use xlink:href="#mde5a30339b" x="300.707994" y="186.710683" style="fill-opacity: 0.7"/>
     <use xlink:href="#mde5a30339b" x="301.351472" y="175.493507" style="fill-opacity: 0.7"/>
     <use xlink:href="#mde5a30339b" x="294.778608" y="195.62039" style="fill-opacity: 0.7"/>
     <use xlink:href="#mde5a30339b" x="307.130639" y="204.711079" style="fill-opacity: 0.7"/>
     <use xlink:href="#mde5a30339b" x="324.207798" y="209.075703" style="fill-opacity: 0.7"/>
     <use xlink:href="#mde5a30339b" x="314.710903" y="225.675486" style="fill-opacity: 0.7"/>
     <use xlink:href="#mde5a30339b" x="320.050458" y="205.213399" style="fill-opacity: 0.7"/>
     <use xlink:href="#mde5a30339b" x="308.889963" y="192.32447" style="fill-opacity: 0.7"/>
     <use xlink:href="#mde5a30339b" x="307.738304" y="226.533185" style="fill-opacity: 0.7"/>
     <use xlink:href="#mde5a30339b" x="304.496782" y="257.170191" style="fill-opacity: 0.7"/>
     <use xlink:href="#mde5a30339b" x="277.541053" y="208.459433" style="fill-opacity: 0.7"/>
     <use xlink:href="#mde5a30339b" x="335.447273" y="210.100081" style="fill-opacity: 0.7"/>
     <use xlink:href="#mde5a30339b" x="301.766498" y="180.950866" style="fill-opacity: 0.7"/>
     <use xlink:href="#mde5a30339b" x="308.129097" y="215.228008" style="fill-opacity: 0.7"/>
     <use xlink:href="#mde5a30339b" x="335.447273" y="212.662192" style="fill-opacity: 0.7"/>
     <use xlink:href="#mde5a30339b" x="302.039085" y="202.542537" style="fill-opacity: 0.7"/>
     <use xlink:href="#mde5a30339b" x="319.857259" y="182.518187" style="fill-opacity: 0.7"/>
     <use xlink:href="#mde5a30339b" x="277.541053" y="217.430466" style="fill-opacity: 0.7"/>
     <use xlink:href="#mde5a30339b" x="277.541053" y="212.688159" style="fill-opacity: 0.7"/>
     <use xlink:href="#mde5a30339b" x="331.070144" y="210.117462" style="fill-opacity: 0.7"/>
     <use xlink:href="#mde5a30339b" x="277.541053" y="210.256688" style="fill-opacity: 0.7"/>
     <use xlink:href="#mde5a30339b" x="311.555688" y="175.171572" style="fill-opacity: 0.7"/>
     <use xlink:href="#mde5a30339b" x="293.731005" y="219.726179" style="fill-opacity: 0.7"/>
     <use xlink:href="#mde5a30339b" x="310.67939" y="222.47268" style="fill-opacity: 0.7"/>
     <use xlink:href="#mde5a30339b" x="335.447273" y="222.687939" style="fill-opacity: 0.7"/>
     <use xlink:href="#mde5a30339b" x="335.447273" y="223.465242" style="fill-opacity: 0.7"/>
     <use xlink:href="#mde5a30339b" x="328.238938" y="205.872471" style="fill-opacity: 0.7"/>
     <use xlink:href="#mde5a30339b" x="321.717244" y="195.314379" style="fill-opacity: 0.7"/>
     <use xlink:href="#mde5a30339b" x="335.447273" y="216.430538" style="fill-opacity: 0.7"/>
     <use xlink:href="#mde5a30339b" x="335.447273" y="208.2935" style="fill-opacity: 0.7"/>
     <use xlink:href="#mde5a30339b" x="306.253921" y="219.898193" style="fill-opacity: 0.7"/>
     <use xlink:href="#mde5a30339b" x="312.804443" y="217.900592" style="fill-opacity: 0.7"/>
     <use xlink:href="#mde5a30339b" x="335.447273" y="206.974932" style="fill-opacity: 0.7"/>
     <use xlink:href="#mde5a30339b" x="316.70321" y="221.049501" style="fill-opacity: 0.7"/>
     <use xlink:href="#mde5a30339b" x="307.422648" y="209.703339" style="fill-opacity: 0.7"/>
     <use xlink:href="#mde5a30339b" x="285.067453" y="227.497698" style="fill-opacity: 0.7"/>
     <use xlink:href="#mde5a30339b" x="281.379424" y="213.489099" style="fill-opacity: 0.7"/>
     <use xlink:href="#mde5a30339b" x="331.53683" y="216.779065" style="fill-opacity: 0.7"/>
     <use xlink:href="#mde5a30339b" x="335.447273" y="225.035911" style="fill-opacity: 0.7"/>
     <use xlink:href="#mde5a30339b" x="329.936177" y="222.874356" style="fill-opacity: 0.7"/>
     <use xlink:href="#mde5a30339b" x="299.962491" y="227.95868" style="fill-opacity: 0.7"/>
     <use xlink:href="#mde5a30339b" x="293.917982" y="209.089886" style="fill-opacity: 0.7"/>
     <use xlink:href="#mde5a30339b" x="335.447273" y="211.129543" style="fill-opacity: 0.7"/>
     <use xlink:href="#mde5a30339b" x="335.447273" y="220.988789" style="fill-opacity: 0.7"/>
     <use xlink:href="#mde5a30339b" x="288.682332" y="208.720463" style="fill-opacity: 0.7"/>
     <use xlink:href="#mde5a30339b" x="289.109799" y="224.28591" style="fill-opacity: 0.7"/>
     <use xlink:href="#mde5a30339b" x="303.583834" y="212.92746" style="fill-opacity: 0.7"/>
     <use xlink:href="#mde5a30339b" x="335.447273" y="207.223372" style="fill-opacity: 0.7"/>
     <use xlink:href="#mde5a30339b" x="335.447273" y="207.737789" style="fill-opacity: 0.7"/>
     <use xlink:href="#mde5a30339b" x="287.819273" y="219.439325" style="fill-opacity: 0.7"/>
     <use xlink:href="#mde5a30339b" x="321.693085" y="219.49515" style="fill-opacity: 0.7"/>
     <use xlink:href="#mde5a30339b" x="304.419067" y="266.702762" style="fill-opacity: 0.7"/>
     <use xlink:href="#mde5a30339b" x="311.543608" y="202.002531" style="fill-opacity: 0.7"/>
     <use xlink:href="#mde5a30339b" x="335.447273" y="206.149307" style="fill-opacity: 0.7"/>
     <use xlink:href="#mde5a30339b" x="277.541053" y="223.775014" style="fill-opacity: 0.7"/>
     <use xlink:href="#mde5a30339b" x="306.494163" y="261.794191" style="fill-opacity: 0.7"/>
     <use xlink:href="#mde5a30339b" x="317.396032" y="230.000709" style="fill-opacity: 0.7"/>
     <use xlink:href="#mde5a30339b" x="305.6541" y="188.387128" style="fill-opacity: 0.7"/>
     <use xlink:href="#mde5a30339b" x="310.769069" y="187.260419" style="fill-opacity: 0.7"/>
     <use xlink:href="#mde5a30339b" x="277.541053" y="201.045394" style="fill-opacity: 0.7"/>
     <use xlink:href="#mde5a30339b" x="283.428134" y="222.7477" style="fill-opacity: 0.7"/>
     <use xlink:href="#mde5a30339b" x="316.861417" y="214.727082" style="fill-opacity: 0.7"/>
     <use xlink:href="#mde5a30339b" x="279.957953" y="226.348704" style="fill-opacity: 0.7"/>
     <use xlink:href="#mde5a30339b" x="294.299873" y="225.039212" style="fill-opacity: 0.7"/>
     <use xlink:href="#mde5a30339b" x="312.105662" y="211.963489" style="fill-opacity: 0.7"/>
     <use xlink:href="#mde5a30339b" x="298.02473" y="205.68763" style="fill-opacity: 0.7"/>
     <use xlink:href="#mde5a30339b" x="306.494163" y="166.693877" style="fill-opacity: 0.7"/>
     <use xlink:href="#mde5a30339b" x="315.719528" y="185.595673" style="fill-opacity: 0.7"/>
     <use xlink:href="#mde5a30339b" x="335.203352" y="213.200454" style="fill-opacity: 0.7"/>
     <use xlink:href="#mde5a30339b" x="296.203028" y="184.143177" style="fill-opacity: 0.7"/>
     <use xlink:href="#mde5a30339b" x="299.196725" y="192.64892" style="fill-opacity: 0.7"/>
     <use xlink:href="#mde5a30339b" x="291.86657" y="213.892245" style="fill-opacity: 0.7"/>
     <use xlink:href="#mde5a30339b" x="286.629066" y="213.547467" style="fill-opacity: 0.7"/>
     <use xlink:href="#mde5a30339b" x="277.541053" y="209.773591" style="fill-opacity: 0.7"/>
     <use xlink:href="#mde5a30339b" x="277.541053" y="217.088947" style="fill-opacity: 0.7"/>
     <use xlink:href="#mde5a30339b" x="319.955038" y="225.43921" style="fill-opacity: 0.7"/>
     <use xlink:href="#mde5a30339b" x="299.309706" y="233.031234" style="fill-opacity: 0.7"/>
     <use xlink:href="#mde5a30339b" x="306.494163" y="183.125069" style="fill-opacity: 0.7"/>
     <use xlink:href="#mde5a30339b" x="334.698798" y="220.770491" style="fill-opacity: 0.7"/>
     <use xlink:href="#mde5a30339b" x="277.541053" y="206.568906" style="fill-opacity: 0.7"/>
     <use xlink:href="#mde5a30339b" x="316.516856" y="196.000132" style="fill-opacity: 0.7"/>
     <use xlink:href="#mde5a30339b" x="277.541053" y="206.506044" style="fill-opacity: 0.7"/>
     <use xlink:href="#mde5a30339b" x="277.541053" y="207.549111" style="fill-opacity: 0.7"/>
     <use xlink:href="#mde5a30339b" x="335.447273" y="208.528908" style="fill-opacity: 0.7"/>
     <use xlink:href="#mde5a30339b" x="277.541053" y="220.6398" style="fill-opacity: 0.7"/>
     <use xlink:href="#mde5a30339b" x="335.447273" y="210.947455" style="fill-opacity: 0.7"/>
     <use xlink:href="#mde5a30339b" x="277.541053" y="211.071639" style="fill-opacity: 0.7"/>
     <use xlink:href="#mde5a30339b" x="278.236568" y="207.860569" style="fill-opacity: 0.7"/>
     <use xlink:href="#mde5a30339b" x="325.03179" y="224.165335" style="fill-opacity: 0.7"/>
     <use xlink:href="#mde5a30339b" x="287.168826" y="203.932743" style="fill-opacity: 0.7"/>
     <use xlink:href="#mde5a30339b" x="289.949587" y="229.336378" style="fill-opacity: 0.7"/>
     <use xlink:href="#mde5a30339b" x="296.859132" y="215.438748" style="fill-opacity: 0.7"/>
     <use xlink:href="#mde5a30339b" x="332.601833" y="203.091317" style="fill-opacity: 0.7"/>
     <use xlink:href="#mde5a30339b" x="279.690294" y="219.236649" style="fill-opacity: 0.7"/>
     <use xlink:href="#mde5a30339b" x="302.929813" y="207.470048" style="fill-opacity: 0.7"/>
     <use xlink:href="#mde5a30339b" x="323.752288" y="201.667911" style="fill-opacity: 0.7"/>
     <use xlink:href="#mde5a30339b" x="306.494163" y="176.499267" style="fill-opacity: 0.7"/>
     <use xlink:href="#mde5a30339b" x="308.502954" y="233.63838" style="fill-opacity: 0.7"/>
     <use xlink:href="#mde5a30339b" x="298.567445" y="221.671308" style="fill-opacity: 0.7"/>
     <use xlink:href="#mde5a30339b" x="283.435062" y="208.559231" style="fill-opacity: 0.7"/>
     <use xlink:href="#mde5a30339b" x="301.612468" y="217.561575" style="fill-opacity: 0.7"/>
     <use xlink:href="#mde5a30339b" x="311.326753" y="196.753253" style="fill-opacity: 0.7"/>
     <use xlink:href="#mde5a30339b" x="321.976719" y="213.601746" style="fill-opacity: 0.7"/>
     <use xlink:href="#mde5a30339b" x="296.190362" y="174.577319" style="fill-opacity: 0.7"/>
    </g>
   </g>
   <g id="text_13">
    <!-- V1 tgt -->
    <g transform="translate(179.577813 41.04) scale(0.12 -0.12)">
     <defs>
      <path id="DejaVuSans-56" d="M 1831 0 
L 50 4666 
L 709 4666 
L 2188 738 
L 3669 4666 
L 4325 4666 
L 2547 0 
L 1831 0 
z
" transform="scale(0.015625)"/>
     </defs>
     <use xlink:href="#DejaVuSans-56"/>
     <use xlink:href="#DejaVuSans-31" x="68.408203"/>
     <use xlink:href="#DejaVuSans-20" x="132.03125"/>
     <use xlink:href="#DejaVuSans-74" x="163.818359"/>
     <use xlink:href="#DejaVuSans-67" x="203.027344"/>
     <use xlink:href="#DejaVuSans-74" x="266.503906"/>
    </g>
   </g>
  </g>
  <g id="text_14">
   <!-- pnr822 -->
   <g transform="translate(158.469375 16.318125) scale(0.12 -0.12)">
    <defs>
     <path id="DejaVuSans-38" d="M 2034 2216 
Q 1584 2216 1326 1975 
Q 1069 1734 1069 1313 
Q 1069 891 1326 650 
Q 1584 409 2034 409 
Q 2484 409 2743 651 
Q 3003 894 3003 1313 
Q 3003 1734 2745 1975 
Q 2488 2216 2034 2216 
z
M 1403 2484 
Q 997 2584 770 2862 
Q 544 3141 544 3541 
Q 544 4100 942 4425 
Q 1341 4750 2034 4750 
Q 2731 4750 3128 4425 
Q 3525 4100 3525 3541 
Q 3525 3141 3298 2862 
Q 3072 2584 2669 2484 
Q 3125 2378 3379 2068 
Q 3634 1759 3634 1313 
Q 3634 634 3220 271 
Q 2806 -91 2034 -91 
Q 1263 -91 848 271 
Q 434 634 434 1313 
Q 434 1759 690 2068 
Q 947 2378 1403 2484 
z
M 1172 3481 
Q 1172 3119 1398 2916 
Q 1625 2713 2034 2713 
Q 2441 2713 2670 2916 
Q 2900 3119 2900 3481 
Q 2900 3844 2670 4047 
Q 2441 4250 2034 4250 
Q 1625 4250 1398 4047 
Q 1172 3844 1172 3481 
z
" transform="scale(0.015625)"/>
    </defs>
    <use xlink:href="#DejaVuSans-70"/>
    <use xlink:href="#DejaVuSans-6e" x="63.476562"/>
    <use xlink:href="#DejaVuSans-72" x="126.855469"/>
    <use xlink:href="#DejaVuSans-38" x="167.96875"/>
    <use xlink:href="#DejaVuSans-32" x="231.591797"/>
    <use xlink:href="#DejaVuSans-32" x="295.214844"/>
   </g>
  </g>
 </g>
 <defs>
  <clipPath id="pa3b3d1438b">
   <rect x="46.64" y="47.04" width="302.56" height="269.06776"/>
  </clipPath>
 </defs>
</svg>
