<?xml version="1.0" encoding="utf-8" standalone="no"?>
<!DOCTYPE svg PUBLIC "-//W3C//DTD SVG 1.1//EN"
  "http://www.w3.org/Graphics/SVG/1.1/DTD/svg11.dtd">
<svg xmlns:xlink="http://www.w3.org/1999/xlink" width="360pt" height="432pt" viewBox="0 0 360 432" xmlns="http://www.w3.org/2000/svg" version="1.1">
 <metadata>
  <rdf:RDF xmlns:dc="http://purl.org/dc/elements/1.1/" xmlns:cc="http://creativecommons.org/ns#" xmlns:rdf="http://www.w3.org/1999/02/22-rdf-syntax-ns#">
   <cc:Work>
    <dc:type rdf:resource="http://purl.org/dc/dcmitype/StillImage"/>
    <dc:date>2024-09-16T16:10:47.380902</dc:date>
    <dc:format>image/svg+xml</dc:format>
    <dc:creator>
     <cc:Agent>
      <dc:title>Matplotlib v3.8.0, https://matplotlib.org/</dc:title>
     </cc:Agent>
    </dc:creator>
   </cc:Work>
  </rdf:RDF>
 </metadata>
 <defs>
  <style type="text/css">*{stroke-linejoin: round; stroke-linecap: butt}</style>
 </defs>
 <g id="figure_1">
  <g id="patch_1">
   <path d="M 0 432 
L 360 432 
L 360 0 
L 0 0 
z
" style="fill: #ffffff"/>
  </g>
  <g id="axes_1">
   <g id="patch_2">
    <path d="M 54 388.8 
L 306 388.8 
L 306 280.8 
L 54 280.8 
z
" style="fill: #ffffff"/>
   </g>
   <g id="PolyCollection_1">
    <defs>
     <path id="mcedb04b230" d="M 65.454545 -77.757016 
L 65.454545 -75.738949 
L 70.12987 -75.712424 
L 74.805195 -75.695045 
L 79.480519 -75.849896 
L 84.155844 -75.97064 
L 88.831169 -75.959918 
L 93.506494 -75.912778 
L 98.181818 -75.851676 
L 102.857143 -75.963234 
L 107.532468 -76.14185 
L 112.207792 -76.153031 
L 116.883117 -76.168834 
L 121.558442 -76.277588 
L 126.233766 -76.368974 
L 130.909091 -76.354676 
L 135.584416 -76.344559 
L 140.25974 -76.367366 
L 144.935065 -76.417006 
L 149.61039 -76.537066 
L 154.285714 -76.569772 
L 158.961039 -76.687249 
L 163.636364 -76.756795 
L 168.311688 -76.771805 
L 172.987013 -76.80526 
L 177.662338 -76.824743 
L 182.337662 -76.891058 
L 187.012987 -76.961341 
L 191.688312 -77.023946 
L 196.363636 -77.056316 
L 201.038961 -77.07602 
L 205.714286 -77.075804 
L 210.38961 -77.092097 
L 215.064935 -77.076294 
L 219.74026 -77.067676 
L 224.415584 -77.052456 
L 229.090909 -77.022715 
L 233.766234 -76.961029 
L 238.441558 -76.922031 
L 243.116883 -76.948163 
L 247.792208 -76.997599 
L 252.467532 -77.016481 
L 257.142857 -77.048654 
L 261.818182 -77.100884 
L 266.493506 -77.068662 
L 271.168831 -77.016478 
L 275.844156 -77.027139 
L 280.519481 -77.102312 
L 285.194805 -77.183827 
L 289.87013 -77.219968 
L 294.545455 -77.234019 
L 294.545455 -79.12514 
L 294.545455 -79.12514 
L 289.87013 -79.088296 
L 285.194805 -79.037029 
L 280.519481 -78.925247 
L 275.844156 -78.826633 
L 271.168831 -78.808535 
L 266.493506 -78.878664 
L 261.818182 -78.925379 
L 257.142857 -78.817139 
L 252.467532 -78.774095 
L 247.792208 -78.701178 
L 243.116883 -78.602997 
L 238.441558 -78.549978 
L 233.766234 -78.542953 
L 229.090909 -78.545422 
L 224.415584 -78.543314 
L 219.74026 -78.584059 
L 215.064935 -78.588577 
L 210.38961 -78.568144 
L 205.714286 -78.488459 
L 201.038961 -78.457861 
L 196.363636 -78.447236 
L 191.688312 -78.38501 
L 187.012987 -78.254031 
L 182.337662 -78.149965 
L 177.662338 -78.08205 
L 172.987013 -78.0852 
L 168.311688 -78.090519 
L 163.636364 -78.090375 
L 158.961039 -78.060759 
L 154.285714 -77.971354 
L 149.61039 -77.946018 
L 144.935065 -77.822523 
L 140.25974 -77.790952 
L 135.584416 -77.822291 
L 130.909091 -77.890578 
L 126.233766 -77.948161 
L 121.558442 -77.864181 
L 116.883117 -77.783574 
L 112.207792 -77.800233 
L 107.532468 -77.801082 
L 102.857143 -77.590502 
L 98.181818 -77.474139 
L 93.506494 -77.585558 
L 88.831169 -77.729873 
L 84.155844 -77.777173 
L 79.480519 -77.74198 
L 74.805195 -77.667644 
L 70.12987 -77.708678 
L 65.454545 -77.757016 
z
"/>
    </defs>
    <g clip-path="url(#pb5826bb6d6)">
     <use xlink:href="#mcedb04b230" x="0" y="432" style="fill: #ff0000; fill-opacity: 0.4"/>
    </g>
   </g>
   <g id="matplotlib.axis_1">
    <g id="xtick_1">
     <g id="line2d_1">
      <defs>
       <path id="m9acbef7db8" d="M 0 0 
L 0 3.5 
" style="stroke: #000000; stroke-width: 0.8"/>
      </defs>
      <g>
       <use xlink:href="#m9acbef7db8" x="65.454545" y="396.8" style="stroke: #000000; stroke-width: 0.8"/>
      </g>
     </g>
     <g id="text_1">
      <!-- 0 -->
      <g transform="translate(62.273295 411.398438) scale(0.1 -0.1)">
       <defs>
        <path id="DejaVuSans-30" d="M 2034 4250 
Q 1547 4250 1301 3770 
Q 1056 3291 1056 2328 
Q 1056 1369 1301 889 
Q 1547 409 2034 409 
Q 2525 409 2770 889 
Q 3016 1369 3016 2328 
Q 3016 3291 2770 3770 
Q 2525 4250 2034 4250 
z
M 2034 4750 
Q 2819 4750 3233 4129 
Q 3647 3509 3647 2328 
Q 3647 1150 3233 529 
Q 2819 -91 2034 -91 
Q 1250 -91 836 529 
Q 422 1150 422 2328 
Q 422 3509 836 4129 
Q 1250 4750 2034 4750 
z
" transform="scale(0.015625)"/>
       </defs>
       <use xlink:href="#DejaVuSans-30"/>
      </g>
     </g>
    </g>
    <g id="xtick_2">
     <g id="line2d_2">
      <g>
       <use xlink:href="#m9acbef7db8" x="122.727273" y="396.8" style="stroke: #000000; stroke-width: 0.8"/>
      </g>
     </g>
     <g id="text_2">
      <!-- 1 -->
      <g transform="translate(119.546023 411.398438) scale(0.1 -0.1)">
       <defs>
        <path id="DejaVuSans-31" d="M 794 531 
L 1825 531 
L 1825 4091 
L 703 3866 
L 703 4441 
L 1819 4666 
L 2450 4666 
L 2450 531 
L 3481 531 
L 3481 0 
L 794 0 
L 794 531 
z
" transform="scale(0.015625)"/>
       </defs>
       <use xlink:href="#DejaVuSans-31"/>
      </g>
     </g>
    </g>
    <g id="xtick_3">
     <g id="line2d_3">
      <g>
       <use xlink:href="#m9acbef7db8" x="180" y="396.8" style="stroke: #000000; stroke-width: 0.8"/>
      </g>
     </g>
     <g id="text_3">
      <!-- 2 -->
      <g transform="translate(176.81875 411.398438) scale(0.1 -0.1)">
       <defs>
        <path id="DejaVuSans-32" d="M 1228 531 
L 3431 531 
L 3431 0 
L 469 0 
L 469 531 
Q 828 903 1448 1529 
Q 2069 2156 2228 2338 
Q 2531 2678 2651 2914 
Q 2772 3150 2772 3378 
Q 2772 3750 2511 3984 
Q 2250 4219 1831 4219 
Q 1534 4219 1204 4116 
Q 875 4013 500 3803 
L 500 4441 
Q 881 4594 1212 4672 
Q 1544 4750 1819 4750 
Q 2544 4750 2975 4387 
Q 3406 4025 3406 3419 
Q 3406 3131 3298 2873 
Q 3191 2616 2906 2266 
Q 2828 2175 2409 1742 
Q 1991 1309 1228 531 
z
" transform="scale(0.015625)"/>
       </defs>
       <use xlink:href="#DejaVuSans-32"/>
      </g>
     </g>
    </g>
    <g id="xtick_4">
     <g id="line2d_4">
      <g>
       <use xlink:href="#m9acbef7db8" x="237.272727" y="396.8" style="stroke: #000000; stroke-width: 0.8"/>
      </g>
     </g>
     <g id="text_4">
      <!-- 3 -->
      <g transform="translate(234.091477 411.398438) scale(0.1 -0.1)">
       <defs>
        <path id="DejaVuSans-33" d="M 2597 2516 
Q 3050 2419 3304 2112 
Q 3559 1806 3559 1356 
Q 3559 666 3084 287 
Q 2609 -91 1734 -91 
Q 1441 -91 1130 -33 
Q 819 25 488 141 
L 488 750 
Q 750 597 1062 519 
Q 1375 441 1716 441 
Q 2309 441 2620 675 
Q 2931 909 2931 1356 
Q 2931 1769 2642 2001 
Q 2353 2234 1838 2234 
L 1294 2234 
L 1294 2753 
L 1863 2753 
Q 2328 2753 2575 2939 
Q 2822 3125 2822 3475 
Q 2822 3834 2567 4026 
Q 2313 4219 1838 4219 
Q 1578 4219 1281 4162 
Q 984 4106 628 3988 
L 628 4550 
Q 988 4650 1302 4700 
Q 1616 4750 1894 4750 
Q 2613 4750 3031 4423 
Q 3450 4097 3450 3541 
Q 3450 3153 3228 2886 
Q 3006 2619 2597 2516 
z
" transform="scale(0.015625)"/>
       </defs>
       <use xlink:href="#DejaVuSans-33"/>
      </g>
     </g>
    </g>
    <g id="xtick_5">
     <g id="line2d_5">
      <g>
       <use xlink:href="#m9acbef7db8" x="294.545455" y="396.8" style="stroke: #000000; stroke-width: 0.8"/>
      </g>
     </g>
     <g id="text_5">
      <!-- 4 -->
      <g transform="translate(291.364205 411.398438) scale(0.1 -0.1)">
       <defs>
        <path id="DejaVuSans-34" d="M 2419 4116 
L 825 1625 
L 2419 1625 
L 2419 4116 
z
M 2253 4666 
L 3047 4666 
L 3047 1625 
L 3713 1625 
L 3713 1100 
L 3047 1100 
L 3047 0 
L 2419 0 
L 2419 1100 
L 313 1100 
L 313 1709 
L 2253 4666 
z
" transform="scale(0.015625)"/>
       </defs>
       <use xlink:href="#DejaVuSans-34"/>
      </g>
     </g>
    </g>
    <g id="text_6">
     <!-- relative distance from ROI center ($\sigma$) -->
     <g transform="translate(69.72 426.59625) scale(0.12 -0.12)">
      <defs>
       <path id="DejaVuSans-72" d="M 2631 2963 
Q 2534 3019 2420 3045 
Q 2306 3072 2169 3072 
Q 1681 3072 1420 2755 
Q 1159 2438 1159 1844 
L 1159 0 
L 581 0 
L 581 3500 
L 1159 3500 
L 1159 2956 
Q 1341 3275 1631 3429 
Q 1922 3584 2338 3584 
Q 2397 3584 2469 3576 
Q 2541 3569 2628 3553 
L 2631 2963 
z
" transform="scale(0.015625)"/>
       <path id="DejaVuSans-65" d="M 3597 1894 
L 3597 1613 
L 953 1613 
Q 991 1019 1311 708 
Q 1631 397 2203 397 
Q 2534 397 2845 478 
Q 3156 559 3463 722 
L 3463 178 
Q 3153 47 2828 -22 
Q 2503 -91 2169 -91 
Q 1331 -91 842 396 
Q 353 884 353 1716 
Q 353 2575 817 3079 
Q 1281 3584 2069 3584 
Q 2775 3584 3186 3129 
Q 3597 2675 3597 1894 
z
M 3022 2063 
Q 3016 2534 2758 2815 
Q 2500 3097 2075 3097 
Q 1594 3097 1305 2825 
Q 1016 2553 972 2059 
L 3022 2063 
z
" transform="scale(0.015625)"/>
       <path id="DejaVuSans-6c" d="M 603 4863 
L 1178 4863 
L 1178 0 
L 603 0 
L 603 4863 
z
" transform="scale(0.015625)"/>
       <path id="DejaVuSans-61" d="M 2194 1759 
Q 1497 1759 1228 1600 
Q 959 1441 959 1056 
Q 959 750 1161 570 
Q 1363 391 1709 391 
Q 2188 391 2477 730 
Q 2766 1069 2766 1631 
L 2766 1759 
L 2194 1759 
z
M 3341 1997 
L 3341 0 
L 2766 0 
L 2766 531 
Q 2569 213 2275 61 
Q 1981 -91 1556 -91 
Q 1019 -91 701 211 
Q 384 513 384 1019 
Q 384 1609 779 1909 
Q 1175 2209 1959 2209 
L 2766 2209 
L 2766 2266 
Q 2766 2663 2505 2880 
Q 2244 3097 1772 3097 
Q 1472 3097 1187 3025 
Q 903 2953 641 2809 
L 641 3341 
Q 956 3463 1253 3523 
Q 1550 3584 1831 3584 
Q 2591 3584 2966 3190 
Q 3341 2797 3341 1997 
z
" transform="scale(0.015625)"/>
       <path id="DejaVuSans-74" d="M 1172 4494 
L 1172 3500 
L 2356 3500 
L 2356 3053 
L 1172 3053 
L 1172 1153 
Q 1172 725 1289 603 
Q 1406 481 1766 481 
L 2356 481 
L 2356 0 
L 1766 0 
Q 1100 0 847 248 
Q 594 497 594 1153 
L 594 3053 
L 172 3053 
L 172 3500 
L 594 3500 
L 594 4494 
L 1172 4494 
z
" transform="scale(0.015625)"/>
       <path id="DejaVuSans-69" d="M 603 3500 
L 1178 3500 
L 1178 0 
L 603 0 
L 603 3500 
z
M 603 4863 
L 1178 4863 
L 1178 4134 
L 603 4134 
L 603 4863 
z
" transform="scale(0.015625)"/>
       <path id="DejaVuSans-76" d="M 191 3500 
L 800 3500 
L 1894 563 
L 2988 3500 
L 3597 3500 
L 2284 0 
L 1503 0 
L 191 3500 
z
" transform="scale(0.015625)"/>
       <path id="DejaVuSans-20" transform="scale(0.015625)"/>
       <path id="DejaVuSans-64" d="M 2906 2969 
L 2906 4863 
L 3481 4863 
L 3481 0 
L 2906 0 
L 2906 525 
Q 2725 213 2448 61 
Q 2172 -91 1784 -91 
Q 1150 -91 751 415 
Q 353 922 353 1747 
Q 353 2572 751 3078 
Q 1150 3584 1784 3584 
Q 2172 3584 2448 3432 
Q 2725 3281 2906 2969 
z
M 947 1747 
Q 947 1113 1208 752 
Q 1469 391 1925 391 
Q 2381 391 2643 752 
Q 2906 1113 2906 1747 
Q 2906 2381 2643 2742 
Q 2381 3103 1925 3103 
Q 1469 3103 1208 2742 
Q 947 2381 947 1747 
z
" transform="scale(0.015625)"/>
       <path id="DejaVuSans-73" d="M 2834 3397 
L 2834 2853 
Q 2591 2978 2328 3040 
Q 2066 3103 1784 3103 
Q 1356 3103 1142 2972 
Q 928 2841 928 2578 
Q 928 2378 1081 2264 
Q 1234 2150 1697 2047 
L 1894 2003 
Q 2506 1872 2764 1633 
Q 3022 1394 3022 966 
Q 3022 478 2636 193 
Q 2250 -91 1575 -91 
Q 1294 -91 989 -36 
Q 684 19 347 128 
L 347 722 
Q 666 556 975 473 
Q 1284 391 1588 391 
Q 1994 391 2212 530 
Q 2431 669 2431 922 
Q 2431 1156 2273 1281 
Q 2116 1406 1581 1522 
L 1381 1569 
Q 847 1681 609 1914 
Q 372 2147 372 2553 
Q 372 3047 722 3315 
Q 1072 3584 1716 3584 
Q 2034 3584 2315 3537 
Q 2597 3491 2834 3397 
z
" transform="scale(0.015625)"/>
       <path id="DejaVuSans-6e" d="M 3513 2113 
L 3513 0 
L 2938 0 
L 2938 2094 
Q 2938 2591 2744 2837 
Q 2550 3084 2163 3084 
Q 1697 3084 1428 2787 
Q 1159 2491 1159 1978 
L 1159 0 
L 581 0 
L 581 3500 
L 1159 3500 
L 1159 2956 
Q 1366 3272 1645 3428 
Q 1925 3584 2291 3584 
Q 2894 3584 3203 3211 
Q 3513 2838 3513 2113 
z
" transform="scale(0.015625)"/>
       <path id="DejaVuSans-63" d="M 3122 3366 
L 3122 2828 
Q 2878 2963 2633 3030 
Q 2388 3097 2138 3097 
Q 1578 3097 1268 2742 
Q 959 2388 959 1747 
Q 959 1106 1268 751 
Q 1578 397 2138 397 
Q 2388 397 2633 464 
Q 2878 531 3122 666 
L 3122 134 
Q 2881 22 2623 -34 
Q 2366 -91 2075 -91 
Q 1284 -91 818 406 
Q 353 903 353 1747 
Q 353 2603 823 3093 
Q 1294 3584 2113 3584 
Q 2378 3584 2631 3529 
Q 2884 3475 3122 3366 
z
" transform="scale(0.015625)"/>
       <path id="DejaVuSans-66" d="M 2375 4863 
L 2375 4384 
L 1825 4384 
Q 1516 4384 1395 4259 
Q 1275 4134 1275 3809 
L 1275 3500 
L 2222 3500 
L 2222 3053 
L 1275 3053 
L 1275 0 
L 697 0 
L 697 3053 
L 147 3053 
L 147 3500 
L 697 3500 
L 697 3744 
Q 697 4328 969 4595 
Q 1241 4863 1831 4863 
L 2375 4863 
z
" transform="scale(0.015625)"/>
       <path id="DejaVuSans-6f" d="M 1959 3097 
Q 1497 3097 1228 2736 
Q 959 2375 959 1747 
Q 959 1119 1226 758 
Q 1494 397 1959 397 
Q 2419 397 2687 759 
Q 2956 1122 2956 1747 
Q 2956 2369 2687 2733 
Q 2419 3097 1959 3097 
z
M 1959 3584 
Q 2709 3584 3137 3096 
Q 3566 2609 3566 1747 
Q 3566 888 3137 398 
Q 2709 -91 1959 -91 
Q 1206 -91 779 398 
Q 353 888 353 1747 
Q 353 2609 779 3096 
Q 1206 3584 1959 3584 
z
" transform="scale(0.015625)"/>
       <path id="DejaVuSans-6d" d="M 3328 2828 
Q 3544 3216 3844 3400 
Q 4144 3584 4550 3584 
Q 5097 3584 5394 3201 
Q 5691 2819 5691 2113 
L 5691 0 
L 5113 0 
L 5113 2094 
Q 5113 2597 4934 2840 
Q 4756 3084 4391 3084 
Q 3944 3084 3684 2787 
Q 3425 2491 3425 1978 
L 3425 0 
L 2847 0 
L 2847 2094 
Q 2847 2600 2669 2842 
Q 2491 3084 2119 3084 
Q 1678 3084 1418 2786 
Q 1159 2488 1159 1978 
L 1159 0 
L 581 0 
L 581 3500 
L 1159 3500 
L 1159 2956 
Q 1356 3278 1631 3431 
Q 1906 3584 2284 3584 
Q 2666 3584 2933 3390 
Q 3200 3197 3328 2828 
z
" transform="scale(0.015625)"/>
       <path id="DejaVuSans-52" d="M 2841 2188 
Q 3044 2119 3236 1894 
Q 3428 1669 3622 1275 
L 4263 0 
L 3584 0 
L 2988 1197 
Q 2756 1666 2539 1819 
Q 2322 1972 1947 1972 
L 1259 1972 
L 1259 0 
L 628 0 
L 628 4666 
L 2053 4666 
Q 2853 4666 3247 4331 
Q 3641 3997 3641 3322 
Q 3641 2881 3436 2590 
Q 3231 2300 2841 2188 
z
M 1259 4147 
L 1259 2491 
L 2053 2491 
Q 2509 2491 2742 2702 
Q 2975 2913 2975 3322 
Q 2975 3731 2742 3939 
Q 2509 4147 2053 4147 
L 1259 4147 
z
" transform="scale(0.015625)"/>
       <path id="DejaVuSans-4f" d="M 2522 4238 
Q 1834 4238 1429 3725 
Q 1025 3213 1025 2328 
Q 1025 1447 1429 934 
Q 1834 422 2522 422 
Q 3209 422 3611 934 
Q 4013 1447 4013 2328 
Q 4013 3213 3611 3725 
Q 3209 4238 2522 4238 
z
M 2522 4750 
Q 3503 4750 4090 4092 
Q 4678 3434 4678 2328 
Q 4678 1225 4090 567 
Q 3503 -91 2522 -91 
Q 1538 -91 948 565 
Q 359 1222 359 2328 
Q 359 3434 948 4092 
Q 1538 4750 2522 4750 
z
" transform="scale(0.015625)"/>
       <path id="DejaVuSans-49" d="M 628 4666 
L 1259 4666 
L 1259 0 
L 628 0 
L 628 4666 
z
" transform="scale(0.015625)"/>
       <path id="DejaVuSans-28" d="M 1984 4856 
Q 1566 4138 1362 3434 
Q 1159 2731 1159 2009 
Q 1159 1288 1364 580 
Q 1569 -128 1984 -844 
L 1484 -844 
Q 1016 -109 783 600 
Q 550 1309 550 2009 
Q 550 2706 781 3412 
Q 1013 4119 1484 4856 
L 1984 4856 
z
" transform="scale(0.015625)"/>
       <path id="DejaVuSans-Oblique-3c3" d="M 2219 3044 
Q 1744 3044 1422 2700 
Q 1081 2341 969 1747 
Q 844 1119 1044 756 
Q 1241 397 1706 397 
Q 2166 397 2503 759 
Q 2844 1122 2966 1747 
Q 3075 2319 2881 2700 
Q 2700 3044 2219 3044 
z
M 2309 3503 
L 4219 3500 
L 4106 2925 
L 3463 2925 
Q 3706 2438 3575 1747 
Q 3406 888 2884 400 
Q 2359 -91 1609 -91 
Q 856 -91 525 400 
Q 194 888 363 1747 
Q 528 2609 1050 3097 
Q 1484 3503 2309 3503 
z
" transform="scale(0.015625)"/>
       <path id="DejaVuSans-29" d="M 513 4856 
L 1013 4856 
Q 1481 4119 1714 3412 
Q 1947 2706 1947 2009 
Q 1947 1309 1714 600 
Q 1481 -109 1013 -844 
L 513 -844 
Q 928 -128 1133 580 
Q 1338 1288 1338 2009 
Q 1338 2731 1133 3434 
Q 928 4138 513 4856 
z
" transform="scale(0.015625)"/>
      </defs>
      <use xlink:href="#DejaVuSans-72" transform="translate(0 0.015625)"/>
      <use xlink:href="#DejaVuSans-65" transform="translate(41.113281 0.015625)"/>
      <use xlink:href="#DejaVuSans-6c" transform="translate(102.636719 0.015625)"/>
      <use xlink:href="#DejaVuSans-61" transform="translate(130.419922 0.015625)"/>
      <use xlink:href="#DejaVuSans-74" transform="translate(191.699219 0.015625)"/>
      <use xlink:href="#DejaVuSans-69" transform="translate(230.908203 0.015625)"/>
      <use xlink:href="#DejaVuSans-76" transform="translate(258.691406 0.015625)"/>
      <use xlink:href="#DejaVuSans-65" transform="translate(317.871094 0.015625)"/>
      <use xlink:href="#DejaVuSans-20" transform="translate(379.394531 0.015625)"/>
      <use xlink:href="#DejaVuSans-64" transform="translate(411.181641 0.015625)"/>
      <use xlink:href="#DejaVuSans-69" transform="translate(474.658203 0.015625)"/>
      <use xlink:href="#DejaVuSans-73" transform="translate(502.441406 0.015625)"/>
      <use xlink:href="#DejaVuSans-74" transform="translate(554.541016 0.015625)"/>
      <use xlink:href="#DejaVuSans-61" transform="translate(593.75 0.015625)"/>
      <use xlink:href="#DejaVuSans-6e" transform="translate(655.029297 0.015625)"/>
      <use xlink:href="#DejaVuSans-63" transform="translate(718.408203 0.015625)"/>
      <use xlink:href="#DejaVuSans-65" transform="translate(773.388672 0.015625)"/>
      <use xlink:href="#DejaVuSans-20" transform="translate(834.912109 0.015625)"/>
      <use xlink:href="#DejaVuSans-66" transform="translate(866.699219 0.015625)"/>
      <use xlink:href="#DejaVuSans-72" transform="translate(901.904297 0.015625)"/>
      <use xlink:href="#DejaVuSans-6f" transform="translate(943.017578 0.015625)"/>
      <use xlink:href="#DejaVuSans-6d" transform="translate(1004.199219 0.015625)"/>
      <use xlink:href="#DejaVuSans-20" transform="translate(1101.611328 0.015625)"/>
      <use xlink:href="#DejaVuSans-52" transform="translate(1133.398438 0.015625)"/>
      <use xlink:href="#DejaVuSans-4f" transform="translate(1202.880859 0.015625)"/>
      <use xlink:href="#DejaVuSans-49" transform="translate(1281.591797 0.015625)"/>
      <use xlink:href="#DejaVuSans-20" transform="translate(1311.083984 0.015625)"/>
      <use xlink:href="#DejaVuSans-63" transform="translate(1342.871094 0.015625)"/>
      <use xlink:href="#DejaVuSans-65" transform="translate(1397.851562 0.015625)"/>
      <use xlink:href="#DejaVuSans-6e" transform="translate(1459.375 0.015625)"/>
      <use xlink:href="#DejaVuSans-74" transform="translate(1522.753906 0.015625)"/>
      <use xlink:href="#DejaVuSans-65" transform="translate(1561.962891 0.015625)"/>
      <use xlink:href="#DejaVuSans-72" transform="translate(1623.486328 0.015625)"/>
      <use xlink:href="#DejaVuSans-20" transform="translate(1664.599609 0.015625)"/>
      <use xlink:href="#DejaVuSans-28" transform="translate(1696.386719 0.015625)"/>
      <use xlink:href="#DejaVuSans-Oblique-3c3" transform="translate(1735.400391 0.015625)"/>
      <use xlink:href="#DejaVuSans-29" transform="translate(1798.779297 0.015625)"/>
     </g>
    </g>
   </g>
   <g id="matplotlib.axis_2">
    <g id="ytick_1">
     <g id="line2d_6">
      <defs>
       <path id="m7fc4a2e29a" d="M 0 0 
L -3.5 0 
" style="stroke: #000000; stroke-width: 0.8"/>
      </defs>
      <g>
       <use xlink:href="#m7fc4a2e29a" x="46" y="369.741176" style="stroke: #000000; stroke-width: 0.8"/>
      </g>
     </g>
     <g id="text_7">
      <!-- 0 -->
      <g transform="translate(32.6375 373.540395) scale(0.1 -0.1)">
       <use xlink:href="#DejaVuSans-30"/>
      </g>
     </g>
    </g>
    <g id="ytick_2">
     <g id="line2d_7">
      <g>
       <use xlink:href="#m7fc4a2e29a" x="46" y="337.976471" style="stroke: #000000; stroke-width: 0.8"/>
      </g>
     </g>
     <g id="text_8">
      <!-- 5 -->
      <g transform="translate(32.6375 341.775689) scale(0.1 -0.1)">
       <defs>
        <path id="DejaVuSans-35" d="M 691 4666 
L 3169 4666 
L 3169 4134 
L 1269 4134 
L 1269 2991 
Q 1406 3038 1543 3061 
Q 1681 3084 1819 3084 
Q 2600 3084 3056 2656 
Q 3513 2228 3513 1497 
Q 3513 744 3044 326 
Q 2575 -91 1722 -91 
Q 1428 -91 1123 -41 
Q 819 9 494 109 
L 494 744 
Q 775 591 1075 516 
Q 1375 441 1709 441 
Q 2250 441 2565 725 
Q 2881 1009 2881 1497 
Q 2881 1984 2565 2268 
Q 2250 2553 1709 2553 
Q 1456 2553 1204 2497 
Q 953 2441 691 2322 
L 691 4666 
z
" transform="scale(0.015625)"/>
       </defs>
       <use xlink:href="#DejaVuSans-35"/>
      </g>
     </g>
    </g>
    <g id="ytick_3">
     <g id="line2d_8">
      <g>
       <use xlink:href="#m7fc4a2e29a" x="46" y="306.211765" style="stroke: #000000; stroke-width: 0.8"/>
      </g>
     </g>
     <g id="text_9">
      <!-- 10 -->
      <g transform="translate(26.275 310.010983) scale(0.1 -0.1)">
       <use xlink:href="#DejaVuSans-31"/>
       <use xlink:href="#DejaVuSans-30" x="63.623047"/>
      </g>
     </g>
    </g>
    <g id="text_10">
     <!-- BOLD % change -->
     <g transform="translate(19.779375 383.094375) rotate(-90) scale(0.12 -0.12)">
      <defs>
       <path id="DejaVuSans-42" d="M 1259 2228 
L 1259 519 
L 2272 519 
Q 2781 519 3026 730 
Q 3272 941 3272 1375 
Q 3272 1813 3026 2020 
Q 2781 2228 2272 2228 
L 1259 2228 
z
M 1259 4147 
L 1259 2741 
L 2194 2741 
Q 2656 2741 2882 2914 
Q 3109 3088 3109 3444 
Q 3109 3797 2882 3972 
Q 2656 4147 2194 4147 
L 1259 4147 
z
M 628 4666 
L 2241 4666 
Q 2963 4666 3353 4366 
Q 3744 4066 3744 3513 
Q 3744 3084 3544 2831 
Q 3344 2578 2956 2516 
Q 3422 2416 3680 2098 
Q 3938 1781 3938 1306 
Q 3938 681 3513 340 
Q 3088 0 2303 0 
L 628 0 
L 628 4666 
z
" transform="scale(0.015625)"/>
       <path id="DejaVuSans-4c" d="M 628 4666 
L 1259 4666 
L 1259 531 
L 3531 531 
L 3531 0 
L 628 0 
L 628 4666 
z
" transform="scale(0.015625)"/>
       <path id="DejaVuSans-44" d="M 1259 4147 
L 1259 519 
L 2022 519 
Q 2988 519 3436 956 
Q 3884 1394 3884 2338 
Q 3884 3275 3436 3711 
Q 2988 4147 2022 4147 
L 1259 4147 
z
M 628 4666 
L 1925 4666 
Q 3281 4666 3915 4102 
Q 4550 3538 4550 2338 
Q 4550 1131 3912 565 
Q 3275 0 1925 0 
L 628 0 
L 628 4666 
z
" transform="scale(0.015625)"/>
       <path id="DejaVuSans-25" d="M 4653 2053 
Q 4381 2053 4226 1822 
Q 4072 1591 4072 1178 
Q 4072 772 4226 539 
Q 4381 306 4653 306 
Q 4919 306 5073 539 
Q 5228 772 5228 1178 
Q 5228 1588 5073 1820 
Q 4919 2053 4653 2053 
z
M 4653 2450 
Q 5147 2450 5437 2106 
Q 5728 1763 5728 1178 
Q 5728 594 5436 251 
Q 5144 -91 4653 -91 
Q 4153 -91 3862 251 
Q 3572 594 3572 1178 
Q 3572 1766 3864 2108 
Q 4156 2450 4653 2450 
z
M 1428 4353 
Q 1159 4353 1004 4120 
Q 850 3888 850 3481 
Q 850 3069 1003 2837 
Q 1156 2606 1428 2606 
Q 1700 2606 1854 2837 
Q 2009 3069 2009 3481 
Q 2009 3884 1853 4118 
Q 1697 4353 1428 4353 
z
M 4250 4750 
L 4750 4750 
L 1831 -91 
L 1331 -91 
L 4250 4750 
z
M 1428 4750 
Q 1922 4750 2215 4408 
Q 2509 4066 2509 3481 
Q 2509 2891 2217 2550 
Q 1925 2209 1428 2209 
Q 931 2209 642 2551 
Q 353 2894 353 3481 
Q 353 4063 643 4406 
Q 934 4750 1428 4750 
z
" transform="scale(0.015625)"/>
       <path id="DejaVuSans-68" d="M 3513 2113 
L 3513 0 
L 2938 0 
L 2938 2094 
Q 2938 2591 2744 2837 
Q 2550 3084 2163 3084 
Q 1697 3084 1428 2787 
Q 1159 2491 1159 1978 
L 1159 0 
L 581 0 
L 581 4863 
L 1159 4863 
L 1159 2956 
Q 1366 3272 1645 3428 
Q 1925 3584 2291 3584 
Q 2894 3584 3203 3211 
Q 3513 2838 3513 2113 
z
" transform="scale(0.015625)"/>
       <path id="DejaVuSans-67" d="M 2906 1791 
Q 2906 2416 2648 2759 
Q 2391 3103 1925 3103 
Q 1463 3103 1205 2759 
Q 947 2416 947 1791 
Q 947 1169 1205 825 
Q 1463 481 1925 481 
Q 2391 481 2648 825 
Q 2906 1169 2906 1791 
z
M 3481 434 
Q 3481 -459 3084 -895 
Q 2688 -1331 1869 -1331 
Q 1566 -1331 1297 -1286 
Q 1028 -1241 775 -1147 
L 775 -588 
Q 1028 -725 1275 -790 
Q 1522 -856 1778 -856 
Q 2344 -856 2625 -561 
Q 2906 -266 2906 331 
L 2906 616 
Q 2728 306 2450 153 
Q 2172 0 1784 0 
Q 1141 0 747 490 
Q 353 981 353 1791 
Q 353 2603 747 3093 
Q 1141 3584 1784 3584 
Q 2172 3584 2450 3431 
Q 2728 3278 2906 2969 
L 2906 3500 
L 3481 3500 
L 3481 434 
z
" transform="scale(0.015625)"/>
      </defs>
      <use xlink:href="#DejaVuSans-42"/>
      <use xlink:href="#DejaVuSans-4f" x="66.853516"/>
      <use xlink:href="#DejaVuSans-4c" x="145.564453"/>
      <use xlink:href="#DejaVuSans-44" x="201.277344"/>
      <use xlink:href="#DejaVuSans-20" x="278.279297"/>
      <use xlink:href="#DejaVuSans-25" x="310.066406"/>
      <use xlink:href="#DejaVuSans-20" x="405.085938"/>
      <use xlink:href="#DejaVuSans-63" x="436.873047"/>
      <use xlink:href="#DejaVuSans-68" x="491.853516"/>
      <use xlink:href="#DejaVuSans-61" x="555.232422"/>
      <use xlink:href="#DejaVuSans-6e" x="616.511719"/>
      <use xlink:href="#DejaVuSans-67" x="679.890625"/>
      <use xlink:href="#DejaVuSans-65" x="743.367188"/>
     </g>
    </g>
   </g>
   <g id="line2d_9">
    <path d="M 180 407.858824 
L 180 331.623529 
" clip-path="url(#pb5826bb6d6)" style="fill: none; stroke-dasharray: 5.55,2.4; stroke-dashoffset: 0; stroke: #4c4c4c; stroke-width: 1.5"/>
   </g>
   <g id="line2d_10">
    <path d="M 65.454545 369.741176 
L 294.545455 369.741176 
" clip-path="url(#pb5826bb6d6)" style="fill: none; stroke-dasharray: 5.55,2.4; stroke-dashoffset: 0; stroke: #4c4c4c; stroke-width: 1.5"/>
   </g>
   <g id="line2d_11">
    <path d="M 65.454545 355.252018 
L 70.12987 355.289449 
L 74.805195 355.318656 
L 79.480519 355.204062 
L 84.155844 355.126094 
L 88.831169 355.155104 
L 93.506494 355.250832 
L 98.181818 355.337092 
L 102.857143 355.223132 
L 107.532468 355.028534 
L 112.207792 355.023368 
L 116.883117 355.023796 
L 121.558442 354.929115 
L 126.233766 354.841433 
L 130.909091 354.877373 
L 135.584416 354.916575 
L 140.25974 354.920841 
L 144.935065 354.880235 
L 149.61039 354.758458 
L 154.285714 354.729437 
L 158.961039 354.625996 
L 163.636364 354.576415 
L 168.311688 354.568838 
L 172.987013 354.55477 
L 177.662338 354.546604 
L 182.337662 354.479489 
L 187.012987 354.392314 
L 191.688312 354.295522 
L 196.363636 354.248224 
L 201.038961 354.23306 
L 205.714286 354.217868 
L 210.38961 354.169879 
L 215.064935 354.167564 
L 219.74026 354.174133 
L 224.415584 354.202115 
L 229.090909 354.215932 
L 233.766234 354.248009 
L 238.441558 354.263996 
L 243.116883 354.22442 
L 247.792208 354.150612 
L 252.467532 354.104712 
L 257.142857 354.067104 
L 261.818182 353.986869 
L 266.493506 354.026337 
L 271.168831 354.087493 
L 275.844156 354.073114 
L 280.519481 353.98622 
L 285.194805 353.889572 
L 289.87013 353.845868 
L 294.545455 353.820421 
" clip-path="url(#pb5826bb6d6)" style="fill: none; stroke: #ff0000; stroke-width: 1.5; stroke-linecap: square"/>
   </g>
   <g id="line2d_12">
    <path d="M 65.454545 355.939748 
L 70.12987 355.939748 
L 74.805195 355.939748 
L 79.480519 355.939748 
L 84.155844 355.939748 
L 88.831169 356.105798 
L 93.506494 356.277978 
L 98.181818 356.392612 
L 102.857143 356.298149 
L 107.532468 355.823079 
L 112.207792 355.829176 
L 116.883117 355.912058 
L 121.558442 355.220966 
L 126.233766 354.461822 
L 130.909091 354.136325 
L 135.584416 353.598219 
L 140.25974 352.992072 
L 144.935065 352.629145 
L 149.61039 352.720795 
L 154.285714 352.690344 
L 158.961039 352.63254 
L 163.636364 352.51459 
L 168.311688 352.207619 
L 172.987013 351.916802 
L 177.662338 351.730709 
L 182.337662 351.788101 
L 187.012987 351.555979 
L 191.688312 351.298342 
L 196.363636 351.376706 
L 201.038961 351.54073 
L 205.714286 351.852946 
L 210.38961 351.818577 
L 215.064935 351.549343 
L 219.74026 350.959951 
L 224.415584 350.564835 
L 229.090909 349.895099 
L 233.766234 349.148214 
L 238.441558 348.525981 
L 243.116883 348.1407 
L 247.792208 347.795636 
L 252.467532 347.522987 
L 257.142857 347.803093 
L 261.818182 347.817995 
L 266.493506 348.132677 
L 271.168831 348.51072 
L 275.844156 348.696368 
L 280.519481 348.560856 
L 285.194805 348.411939 
L 289.87013 348.465099 
L 294.545455 348.541338 
" clip-path="url(#pb5826bb6d6)" style="fill: none; stroke: #ff0000; stroke-opacity: 0.2; stroke-width: 1.5; stroke-linecap: square"/>
   </g>
   <g id="line2d_13">
    <path d="M 65.454545 358.212843 
L 70.12987 358.212843 
L 74.805195 358.216247 
L 79.480519 358.085446 
L 84.155844 357.917508 
L 88.831169 357.806425 
L 93.506494 357.62696 
L 98.181818 358.058266 
L 102.857143 358.336385 
L 107.532468 358.430859 
L 112.207792 358.319178 
L 116.883117 358.154608 
L 121.558442 357.964017 
L 126.233766 357.792808 
L 130.909091 357.853609 
L 135.584416 358.139145 
L 140.25974 358.349721 
L 144.935065 358.520334 
L 149.61039 358.40193 
L 154.285714 358.376626 
L 158.961039 358.176284 
L 163.636364 357.931054 
L 168.311688 357.944212 
L 172.987013 357.730647 
L 177.662338 357.63301 
L 182.337662 357.525554 
L 187.012987 357.385761 
L 191.688312 357.32066 
L 196.363636 357.243469 
L 201.038961 357.263279 
L 205.714286 357.575231 
L 210.38961 357.982767 
L 215.064935 358.344422 
L 219.74026 358.511799 
L 224.415584 358.425768 
L 229.090909 358.338034 
L 233.766234 358.249125 
L 238.441558 358.012621 
L 243.116883 357.641936 
L 247.792208 357.527253 
L 252.467532 357.60846 
L 257.142857 357.749145 
L 261.818182 357.813087 
L 266.493506 357.948896 
L 271.168831 358.081743 
L 275.844156 358.109931 
L 280.519481 358.054279 
L 285.194805 357.881153 
L 289.87013 357.641534 
L 294.545455 357.541763 
" clip-path="url(#pb5826bb6d6)" style="fill: none; stroke: #ff0000; stroke-opacity: 0.2; stroke-width: 1.5; stroke-linecap: square"/>
   </g>
   <g id="line2d_14">
    <path d="M 65.454545 358.302038 
L 70.12987 358.302038 
L 74.805195 358.302038 
L 79.480519 358.183429 
L 84.155844 358.075279 
L 88.831169 358.162334 
L 93.506494 358.277213 
L 98.181818 358.193017 
L 102.857143 357.921587 
L 107.532468 357.684207 
L 112.207792 357.649158 
L 116.883117 357.55096 
L 121.558442 357.387479 
L 126.233766 357.236838 
L 130.909091 357.072382 
L 135.584416 356.899034 
L 140.25974 356.788136 
L 144.935065 356.823419 
L 149.61039 356.870192 
L 154.285714 356.99685 
L 158.961039 357.184007 
L 163.636364 357.421035 
L 168.311688 357.658541 
L 172.987013 357.698126 
L 177.662338 357.613101 
L 182.337662 357.455282 
L 187.012987 357.30821 
L 191.688312 357.216685 
L 196.363636 357.223125 
L 201.038961 357.213769 
L 205.714286 357.19722 
L 210.38961 357.174322 
L 215.064935 357.094627 
L 219.74026 357.085831 
L 224.415584 357.116995 
L 229.090909 357.266054 
L 233.766234 357.515271 
L 238.441558 357.703308 
L 243.116883 357.81939 
L 247.792208 358.021441 
L 252.467532 358.158648 
L 257.142857 358.112694 
L 261.818182 358.058103 
L 266.493506 357.908893 
L 271.168831 357.820561 
L 275.844156 357.775432 
L 280.519481 357.68104 
L 285.194805 357.666766 
L 289.87013 357.681093 
L 294.545455 357.683279 
" clip-path="url(#pb5826bb6d6)" style="fill: none; stroke: #ff0000; stroke-opacity: 0.2; stroke-width: 1.5; stroke-linecap: square"/>
   </g>
   <g id="line2d_15">
    <path d="M 65.454545 356.690265 
L 70.12987 356.690265 
L 74.805195 356.646301 
L 79.480519 356.394968 
L 84.155844 356.269518 
L 88.831169 356.288242 
L 93.506494 356.281634 
L 98.181818 356.25853 
L 102.857143 356.288754 
L 107.532468 356.278086 
L 112.207792 356.378403 
L 116.883117 356.17199 
L 121.558442 356.096207 
L 126.233766 356.114091 
L 130.909091 356.206658 
L 135.584416 356.314616 
L 140.25974 356.328597 
L 144.935065 356.099998 
L 149.61039 355.892827 
L 154.285714 355.79139 
L 158.961039 355.550891 
L 163.636364 355.269365 
L 168.311688 355.086241 
L 172.987013 354.992577 
L 177.662338 354.820022 
L 182.337662 354.668676 
L 187.012987 354.495768 
L 191.688312 354.578776 
L 196.363636 354.542313 
L 201.038961 354.607949 
L 205.714286 354.529764 
L 210.38961 354.399345 
L 215.064935 354.214693 
L 219.74026 354.139437 
L 224.415584 354.12211 
L 229.090909 354.121576 
L 233.766234 354.125323 
L 238.441558 354.291991 
L 243.116883 354.504299 
L 247.792208 354.541223 
L 252.467532 354.521703 
L 257.142857 354.717641 
L 261.818182 354.945899 
L 266.493506 355.144475 
L 271.168831 355.36226 
L 275.844156 355.538308 
L 280.519481 355.511795 
L 285.194805 355.389609 
L 289.87013 355.295886 
L 294.545455 355.171529 
" clip-path="url(#pb5826bb6d6)" style="fill: none; stroke: #ff0000; stroke-opacity: 0.2; stroke-width: 1.5; stroke-linecap: square"/>
   </g>
   <g id="line2d_16">
    <path d="M 65.454545 358.722809 
L 70.12987 358.722809 
L 74.805195 358.722809 
L 79.480519 357.791874 
L 84.155844 356.913018 
L 88.831169 356.726797 
L 93.506494 356.606796 
L 98.181818 356.620068 
L 102.857143 356.469884 
L 107.532468 356.285327 
L 112.207792 356.381777 
L 116.883117 356.392627 
L 121.558442 356.378995 
L 126.233766 356.320255 
L 130.909091 356.206013 
L 135.584416 355.921076 
L 140.25974 355.481064 
L 144.935065 355.039746 
L 149.61039 354.692695 
L 154.285714 354.476008 
L 158.961039 354.184689 
L 163.636364 353.857864 
L 168.311688 353.693322 
L 172.987013 353.69515 
L 177.662338 353.740373 
L 182.337662 353.568159 
L 187.012987 353.380346 
L 191.688312 353.066406 
L 196.363636 352.661763 
L 201.038961 352.440116 
L 205.714286 352.181278 
L 210.38961 351.838165 
L 215.064935 351.861001 
L 219.74026 351.785662 
L 224.415584 351.898381 
L 229.090909 352.021877 
L 233.766234 352.162947 
L 238.441558 352.259806 
L 243.116883 352.197332 
L 247.792208 352.1376 
L 252.467532 352.134935 
L 257.142857 352.043011 
L 261.818182 351.731023 
L 266.493506 351.629295 
L 271.168831 351.483944 
L 275.844156 351.272216 
L 280.519481 350.847393 
L 285.194805 350.584389 
L 289.87013 350.562774 
L 294.545455 350.755142 
" clip-path="url(#pb5826bb6d6)" style="fill: none; stroke: #ff0000; stroke-opacity: 0.2; stroke-width: 1.5; stroke-linecap: square"/>
   </g>
   <g id="line2d_17">
    <path d="M 65.454545 349.551137 
L 70.12987 349.551137 
L 74.805195 349.646977 
L 79.480519 349.828506 
L 84.155844 349.866392 
L 88.831169 349.624207 
L 93.506494 349.665909 
L 98.181818 349.66935 
L 102.857143 349.755804 
L 107.532468 349.905581 
L 112.207792 350.378475 
L 116.883117 351.007109 
L 121.558442 351.242324 
L 126.233766 350.916288 
L 130.909091 350.910345 
L 135.584416 350.687123 
L 140.25974 350.714164 
L 144.935065 350.599799 
L 149.61039 350.531899 
L 154.285714 350.693246 
L 158.961039 350.779228 
L 163.636364 351.091622 
L 168.311688 351.463426 
L 172.987013 352.118265 
L 177.662338 352.551786 
L 182.337662 352.74349 
L 187.012987 353.161858 
L 191.688312 353.365756 
L 196.363636 353.524141 
L 201.038961 353.786639 
L 205.714286 354.168816 
L 210.38961 354.621388 
L 215.064935 355.018449 
L 219.74026 354.93121 
L 224.415584 354.468493 
L 229.090909 354.27978 
L 233.766234 354.238426 
L 238.441558 353.952547 
L 243.116883 353.546312 
L 247.792208 353.078795 
L 252.467532 352.584144 
L 257.142857 352.088121 
L 261.818182 351.473079 
L 266.493506 351.62173 
L 271.168831 351.931511 
L 275.844156 352.093298 
L 280.519481 352.210532 
L 285.194805 352.345708 
L 289.87013 352.53882 
L 294.545455 352.302247 
" clip-path="url(#pb5826bb6d6)" style="fill: none; stroke: #ff0000; stroke-opacity: 0.2; stroke-width: 1.5; stroke-linecap: square"/>
   </g>
   <g id="line2d_18">
    <path d="M 65.454545 355.663716 
L 70.12987 355.663716 
L 74.805195 355.663716 
L 79.480519 355.663716 
L 84.155844 355.663716 
L 88.831169 355.828952 
L 93.506494 355.913833 
L 98.181818 355.795884 
L 102.857143 355.146838 
L 107.532468 354.686601 
L 112.207792 354.743681 
L 116.883117 354.785947 
L 121.558442 355.182529 
L 126.233766 355.734485 
L 130.909091 356.187349 
L 135.584416 356.258516 
L 140.25974 356.092579 
L 144.935065 355.89015 
L 149.61039 355.699604 
L 154.285714 355.59596 
L 158.961039 355.282777 
L 163.636364 355.248092 
L 168.311688 355.219342 
L 172.987013 355.28155 
L 177.662338 355.296672 
L 182.337662 355.24643 
L 187.012987 355.570478 
L 191.688312 355.993108 
L 196.363636 356.260035 
L 201.038961 356.188163 
L 205.714286 356.192526 
L 210.38961 355.978636 
L 215.064935 355.762153 
L 219.74026 355.467934 
L 224.415584 355.367783 
L 229.090909 355.409792 
L 233.766234 355.430291 
L 238.441558 355.37145 
L 243.116883 355.464624 
L 247.792208 355.541794 
L 252.467532 355.778516 
L 257.142857 355.924972 
L 261.818182 355.891923 
L 266.493506 355.795103 
L 271.168831 355.73391 
L 275.844156 355.689823 
L 280.519481 355.725454 
L 285.194805 355.803389 
L 289.87013 355.795737 
L 294.545455 355.648196 
" clip-path="url(#pb5826bb6d6)" style="fill: none; stroke: #ff0000; stroke-opacity: 0.2; stroke-width: 1.5; stroke-linecap: square"/>
   </g>
   <g id="line2d_19">
    <path d="M 65.454545 355.330731 
L 70.12987 355.357477 
L 74.805195 355.433098 
L 79.480519 355.607181 
L 84.155844 355.783386 
L 88.831169 355.846944 
L 93.506494 355.757563 
L 98.181818 355.549705 
L 102.857143 355.073016 
L 107.532468 354.803748 
L 112.207792 354.582562 
L 116.883117 354.523406 
L 121.558442 354.385038 
L 126.233766 354.311761 
L 130.909091 354.194537 
L 135.584416 354.29604 
L 140.25974 354.433673 
L 144.935065 354.639207 
L 149.61039 354.857569 
L 154.285714 355.049883 
L 158.961039 355.058331 
L 163.636364 355.030728 
L 168.311688 354.830653 
L 172.987013 354.587713 
L 177.662338 354.490984 
L 182.337662 354.470727 
L 187.012987 354.422463 
L 191.688312 354.508554 
L 196.363636 354.882771 
L 201.038961 355.085733 
L 205.714286 355.235572 
L 210.38961 355.352449 
L 215.064935 355.505252 
L 219.74026 355.814199 
L 224.415584 356.055085 
L 229.090909 356.287201 
L 233.766234 356.403459 
L 238.441558 356.544534 
L 243.116883 356.614614 
L 247.792208 356.461589 
L 252.467532 356.232191 
L 257.142857 356.071629 
L 261.818182 356.068424 
L 266.493506 356.055325 
L 271.168831 356.028735 
L 275.844156 355.979345 
L 280.519481 355.827114 
L 285.194805 355.66735 
L 289.87013 355.636708 
L 294.545455 355.684645 
" clip-path="url(#pb5826bb6d6)" style="fill: none; stroke: #ff0000; stroke-opacity: 0.2; stroke-width: 1.5; stroke-linecap: square"/>
   </g>
   <g id="line2d_20">
    <path d="M 65.454545 355.221174 
L 70.12987 355.221174 
L 74.805195 355.067115 
L 79.480519 354.653352 
L 84.155844 354.392661 
L 88.831169 354.393038 
L 93.506494 354.661634 
L 98.181818 354.83429 
L 102.857143 354.959725 
L 107.532468 354.960551 
L 112.207792 355.081444 
L 116.883117 355.291306 
L 121.558442 355.270656 
L 126.233766 355.198056 
L 130.909091 355.172845 
L 135.584416 355.060306 
L 140.25974 354.999626 
L 144.935065 355.041171 
L 149.61039 354.995919 
L 154.285714 354.894327 
L 158.961039 354.478091 
L 163.636364 354.230851 
L 168.311688 354.120047 
L 172.987013 354.004862 
L 177.662338 354.152382 
L 182.337662 354.342889 
L 187.012987 354.49893 
L 191.688312 354.315332 
L 196.363636 354.077027 
L 201.038961 353.715866 
L 205.714286 353.497675 
L 210.38961 353.328071 
L 215.064935 353.176203 
L 219.74026 353.171896 
L 224.415584 353.282981 
L 229.090909 353.166038 
L 233.766234 353.51323 
L 238.441558 353.884878 
L 243.116883 354.021974 
L 247.792208 354.08008 
L 252.467532 354.108861 
L 257.142857 354.243863 
L 261.818182 354.66309 
L 266.493506 355.138987 
L 271.168831 355.509224 
L 275.844156 355.727554 
L 280.519481 355.724657 
L 285.194805 355.687286 
L 289.87013 355.699669 
L 294.545455 355.900576 
" clip-path="url(#pb5826bb6d6)" style="fill: none; stroke: #ff0000; stroke-opacity: 0.2; stroke-width: 1.5; stroke-linecap: square"/>
   </g>
   <g id="line2d_21">
    <path d="M 65.454545 359.639994 
L 70.12987 359.639994 
L 74.805195 359.639994 
L 79.480519 359.529772 
L 84.155844 359.36019 
L 88.831169 359.133687 
L 93.506494 359.11431 
L 98.181818 359.238257 
L 102.857143 359.28209 
L 107.532468 359.239977 
L 112.207792 359.193341 
L 116.883117 359.228869 
L 121.558442 359.101575 
L 126.233766 358.980052 
L 130.909091 358.913194 
L 135.584416 358.883463 
L 140.25974 358.850142 
L 144.935065 358.70316 
L 149.61039 358.48902 
L 154.285714 358.415065 
L 158.961039 358.322281 
L 163.636364 358.244705 
L 168.311688 358.191461 
L 172.987013 358.131341 
L 177.662338 358.110174 
L 182.337662 358.055077 
L 187.012987 357.899496 
L 191.688312 357.794748 
L 196.363636 357.619229 
L 201.038961 357.447192 
L 205.714286 357.15279 
L 210.38961 356.9803 
L 215.064935 356.922386 
L 219.74026 356.948167 
L 224.415584 357.078585 
L 229.090909 357.195906 
L 233.766234 357.336104 
L 238.441558 357.492967 
L 243.116883 357.495819 
L 247.792208 357.47557 
L 252.467532 357.525502 
L 257.142857 357.464454 
L 261.818182 357.382342 
L 266.493506 357.277161 
L 271.168831 357.190185 
L 275.844156 357.034515 
L 280.519481 356.970524 
L 285.194805 356.978285 
L 289.87013 357.119242 
L 294.545455 357.327724 
" clip-path="url(#pb5826bb6d6)" style="fill: none; stroke: #ff0000; stroke-opacity: 0.2; stroke-width: 1.5; stroke-linecap: square"/>
   </g>
   <g id="line2d_22">
    <path d="M 65.454545 351.323699 
L 70.12987 351.74613 
L 74.805195 352.155951 
L 79.480519 352.424875 
L 84.155844 352.81032 
L 88.831169 353.108343 
L 93.506494 353.049497 
L 98.181818 352.595836 
L 102.857143 352.407016 
L 107.532468 352.131458 
L 112.207792 351.840189 
L 116.883117 351.322167 
L 121.558442 350.901411 
L 126.233766 350.838503 
L 130.909091 351.178387 
L 135.584416 351.562334 
L 140.25974 351.982114 
L 144.935065 352.158536 
L 149.61039 351.809765 
L 154.285714 351.956107 
L 158.961039 352.177674 
L 163.636364 352.331642 
L 168.311688 352.666737 
L 172.987013 352.934755 
L 177.662338 352.919757 
L 182.337662 352.826597 
L 187.012987 352.471756 
L 191.688312 351.834231 
L 196.363636 351.335811 
L 201.038961 351.259166 
L 205.714286 350.943872 
L 210.38961 350.54931 
L 215.064935 350.670808 
L 219.74026 351.263631 
L 224.415584 351.704248 
L 229.090909 352.023734 
L 233.766234 352.132952 
L 238.441558 352.23815 
L 243.116883 352.253201 
L 247.792208 352.177998 
L 252.467532 352.103163 
L 257.142857 351.823343 
L 261.818182 351.4635 
L 266.493506 351.333676 
L 271.168831 351.1854 
L 275.844156 350.779538 
L 280.519481 350.481963 
L 285.194805 350.169613 
L 289.87013 349.95964 
L 294.545455 350.00417 
" clip-path="url(#pb5826bb6d6)" style="fill: none; stroke: #ff0000; stroke-opacity: 0.2; stroke-width: 1.5; stroke-linecap: square"/>
   </g>
   <g id="line2d_23">
    <path d="M 65.454545 348.426056 
L 70.12987 348.426056 
L 74.805195 348.389873 
L 79.480519 348.345872 
L 84.155844 348.521386 
L 88.831169 348.836486 
L 93.506494 349.776658 
L 98.181818 350.839293 
L 102.857143 350.738337 
L 107.532468 350.112935 
L 112.207792 349.903033 
L 116.883117 349.944502 
L 121.558442 350.018189 
L 126.233766 350.192231 
L 130.909091 350.496835 
L 135.584416 351.379024 
L 140.25974 352.03821 
L 144.935065 352.418157 
L 149.61039 352.13928 
L 154.285714 351.817441 
L 158.961039 351.685159 
L 163.636364 351.745435 
L 168.311688 351.744452 
L 172.987013 351.565452 
L 177.662338 351.500276 
L 182.337662 351.062882 
L 187.012987 350.556725 
L 191.688312 350.253669 
L 196.363636 350.232298 
L 201.038961 350.248115 
L 205.714286 350.086733 
L 210.38961 350.015223 
L 215.064935 349.891436 
L 219.74026 350.009871 
L 224.415584 350.340113 
L 229.090909 350.586087 
L 233.766234 350.72076 
L 238.441558 350.889715 
L 243.116883 350.992837 
L 247.792208 350.968363 
L 252.467532 350.977437 
L 257.142857 350.763278 
L 261.818182 350.533959 
L 266.493506 350.329827 
L 271.168831 350.211722 
L 275.844156 350.181039 
L 280.519481 350.239035 
L 285.194805 350.089383 
L 289.87013 349.754212 
L 294.545455 349.284442 
" clip-path="url(#pb5826bb6d6)" style="fill: none; stroke: #ff0000; stroke-opacity: 0.2; stroke-width: 1.5; stroke-linecap: square"/>
   </g>
   <g id="patch_3">
    <path d="M 46 388.8 
L 46 280.8 
" style="fill: none; stroke: #000000; stroke-width: 0.8; stroke-linejoin: miter; stroke-linecap: square"/>
   </g>
   <g id="patch_4">
    <path d="M 54 396.8 
L 306 396.8 
" style="fill: none; stroke: #000000; stroke-width: 0.8; stroke-linejoin: miter; stroke-linecap: square"/>
   </g>
   <g id="legend_1">
    <g id="patch_5">
     <path d="M 246.53125 303.478125 
L 299 303.478125 
Q 301 303.478125 301 301.478125 
L 301 287.8 
Q 301 285.8 299 285.8 
L 246.53125 285.8 
Q 244.53125 285.8 244.53125 287.8 
L 244.53125 301.478125 
Q 244.53125 303.478125 246.53125 303.478125 
z
" style="fill: #ffffff; opacity: 0.8; stroke: #cccccc; stroke-linejoin: miter"/>
    </g>
    <g id="line2d_24">
     <path d="M 248.53125 293.898438 
L 258.53125 293.898438 
L 268.53125 293.898438 
" style="fill: none; stroke: #ff0000; stroke-width: 1.5; stroke-linecap: square"/>
    </g>
    <g id="text_11">
     <!-- iso0 -->
     <g transform="translate(276.53125 297.398438) scale(0.1 -0.1)">
      <use xlink:href="#DejaVuSans-69"/>
      <use xlink:href="#DejaVuSans-73" x="27.783203"/>
      <use xlink:href="#DejaVuSans-6f" x="79.882812"/>
      <use xlink:href="#DejaVuSans-30" x="141.064453"/>
     </g>
    </g>
   </g>
  </g>
  <g id="axes_2">
   <g id="patch_6">
    <path d="M 54 259.2 
L 306 259.2 
L 306 151.2 
L 54 151.2 
z
" style="fill: #ffffff"/>
   </g>
   <g id="PolyCollection_2">
    <defs>
     <path id="me4018116fa" d="M 65.454545 -214.725229 
L 65.454545 -210.356242 
L 70.12987 -210.299917 
L 74.805195 -210.141703 
L 79.480519 -209.918841 
L 84.155844 -209.895902 
L 88.831169 -209.928751 
L 93.506494 -209.957668 
L 98.181818 -210.059626 
L 102.857143 -210.106125 
L 107.532468 -210.17064 
L 112.207792 -210.300793 
L 116.883117 -210.457855 
L 121.558442 -210.594817 
L 126.233766 -210.724734 
L 130.909091 -210.82446 
L 135.584416 -210.934038 
L 140.25974 -211.095555 
L 144.935065 -211.177482 
L 149.61039 -211.235265 
L 154.285714 -211.311476 
L 158.961039 -211.340092 
L 163.636364 -211.3759 
L 168.311688 -211.401742 
L 172.987013 -211.401206 
L 177.662338 -211.433879 
L 182.337662 -211.453905 
L 187.012987 -211.477756 
L 191.688312 -211.513619 
L 196.363636 -211.530813 
L 201.038961 -211.483597 
L 205.714286 -211.464614 
L 210.38961 -211.530972 
L 215.064935 -211.525896 
L 219.74026 -211.532799 
L 224.415584 -211.599342 
L 229.090909 -211.638444 
L 233.766234 -211.665915 
L 238.441558 -211.633453 
L 243.116883 -211.608617 
L 247.792208 -211.609025 
L 252.467532 -211.612146 
L 257.142857 -211.541253 
L 261.818182 -211.437592 
L 266.493506 -211.347992 
L 271.168831 -211.205737 
L 275.844156 -211.094106 
L 280.519481 -210.948183 
L 285.194805 -210.790628 
L 289.87013 -210.634319 
L 294.545455 -210.489364 
L 294.545455 -213.446151 
L 294.545455 -213.446151 
L 289.87013 -213.669566 
L 285.194805 -213.899375 
L 280.519481 -214.141758 
L 275.844156 -214.418309 
L 271.168831 -214.711761 
L 266.493506 -215.014251 
L 261.818182 -215.214621 
L 257.142857 -215.424911 
L 252.467532 -215.580973 
L 247.792208 -215.504526 
L 243.116883 -215.360837 
L 238.441558 -215.26274 
L 233.766234 -215.140223 
L 229.090909 -214.987247 
L 224.415584 -214.784637 
L 219.74026 -214.539479 
L 215.064935 -214.441269 
L 210.38961 -214.364665 
L 205.714286 -214.215473 
L 201.038961 -214.195452 
L 196.363636 -214.232565 
L 191.688312 -214.223224 
L 187.012987 -214.205703 
L 182.337662 -214.204266 
L 177.662338 -214.210506 
L 172.987013 -214.232781 
L 168.311688 -214.336662 
L 163.636364 -214.362218 
L 158.961039 -214.396599 
L 154.285714 -214.535936 
L 149.61039 -214.611809 
L 144.935065 -214.735755 
L 140.25974 -214.652107 
L 135.584416 -214.462738 
L 130.909091 -214.275226 
L 126.233766 -214.226977 
L 121.558442 -214.238126 
L 116.883117 -214.134885 
L 112.207792 -213.94245 
L 107.532468 -213.793177 
L 102.857143 -213.702718 
L 98.181818 -213.640173 
L 93.506494 -213.598048 
L 88.831169 -213.613517 
L 84.155844 -213.586494 
L 79.480519 -213.751367 
L 74.805195 -214.201389 
L 70.12987 -214.594777 
L 65.454545 -214.725229 
z
"/>
    </defs>
    <g clip-path="url(#p3025f8b148)">
     <use xlink:href="#me4018116fa" x="0" y="432" style="fill: #ff0000; fill-opacity: 0.4"/>
    </g>
   </g>
   <g id="matplotlib.axis_3">
    <g id="xtick_6">
     <g id="line2d_25">
      <g>
       <use xlink:href="#m9acbef7db8" x="65.454545" y="267.2" style="stroke: #000000; stroke-width: 0.8"/>
      </g>
     </g>
    </g>
    <g id="xtick_7">
     <g id="line2d_26">
      <g>
       <use xlink:href="#m9acbef7db8" x="122.727273" y="267.2" style="stroke: #000000; stroke-width: 0.8"/>
      </g>
     </g>
    </g>
    <g id="xtick_8">
     <g id="line2d_27">
      <g>
       <use xlink:href="#m9acbef7db8" x="180" y="267.2" style="stroke: #000000; stroke-width: 0.8"/>
      </g>
     </g>
    </g>
    <g id="xtick_9">
     <g id="line2d_28">
      <g>
       <use xlink:href="#m9acbef7db8" x="237.272727" y="267.2" style="stroke: #000000; stroke-width: 0.8"/>
      </g>
     </g>
    </g>
    <g id="xtick_10">
     <g id="line2d_29">
      <g>
       <use xlink:href="#m9acbef7db8" x="294.545455" y="267.2" style="stroke: #000000; stroke-width: 0.8"/>
      </g>
     </g>
    </g>
   </g>
   <g id="matplotlib.axis_4">
    <g id="ytick_4">
     <g id="line2d_30">
      <g>
       <use xlink:href="#m7fc4a2e29a" x="46" y="240.141176" style="stroke: #000000; stroke-width: 0.8"/>
      </g>
     </g>
     <g id="text_12">
      <!-- 0 -->
      <g transform="translate(32.6375 243.940395) scale(0.1 -0.1)">
       <use xlink:href="#DejaVuSans-30"/>
      </g>
     </g>
    </g>
    <g id="ytick_5">
     <g id="line2d_31">
      <g>
       <use xlink:href="#m7fc4a2e29a" x="46" y="208.376471" style="stroke: #000000; stroke-width: 0.8"/>
      </g>
     </g>
     <g id="text_13">
      <!-- 5 -->
      <g transform="translate(32.6375 212.175689) scale(0.1 -0.1)">
       <use xlink:href="#DejaVuSans-35"/>
      </g>
     </g>
    </g>
    <g id="ytick_6">
     <g id="line2d_32">
      <g>
       <use xlink:href="#m7fc4a2e29a" x="46" y="176.611765" style="stroke: #000000; stroke-width: 0.8"/>
      </g>
     </g>
     <g id="text_14">
      <!-- 10 -->
      <g transform="translate(26.275 180.410983) scale(0.1 -0.1)">
       <use xlink:href="#DejaVuSans-31"/>
       <use xlink:href="#DejaVuSans-30" x="63.623047"/>
      </g>
     </g>
    </g>
    <g id="text_15">
     <!-- BOLD % change -->
     <g transform="translate(19.779375 253.494375) rotate(-90) scale(0.12 -0.12)">
      <use xlink:href="#DejaVuSans-42"/>
      <use xlink:href="#DejaVuSans-4f" x="66.853516"/>
      <use xlink:href="#DejaVuSans-4c" x="145.564453"/>
      <use xlink:href="#DejaVuSans-44" x="201.277344"/>
      <use xlink:href="#DejaVuSans-20" x="278.279297"/>
      <use xlink:href="#DejaVuSans-25" x="310.066406"/>
      <use xlink:href="#DejaVuSans-20" x="405.085938"/>
      <use xlink:href="#DejaVuSans-63" x="436.873047"/>
      <use xlink:href="#DejaVuSans-68" x="491.853516"/>
      <use xlink:href="#DejaVuSans-61" x="555.232422"/>
      <use xlink:href="#DejaVuSans-6e" x="616.511719"/>
      <use xlink:href="#DejaVuSans-67" x="679.890625"/>
      <use xlink:href="#DejaVuSans-65" x="743.367188"/>
     </g>
    </g>
   </g>
   <g id="line2d_33">
    <path d="M 180 278.258824 
L 180 202.023529 
" clip-path="url(#p3025f8b148)" style="fill: none; stroke-dasharray: 5.55,2.4; stroke-dashoffset: 0; stroke: #4c4c4c; stroke-width: 1.5"/>
   </g>
   <g id="line2d_34">
    <path d="M 65.454545 240.141176 
L 294.545455 240.141176 
" clip-path="url(#p3025f8b148)" style="fill: none; stroke-dasharray: 5.55,2.4; stroke-dashoffset: 0; stroke: #4c4c4c; stroke-width: 1.5"/>
   </g>
   <g id="line2d_35">
    <path d="M 65.454545 219.459265 
L 70.12987 219.552653 
L 74.805195 219.828454 
L 79.480519 220.164896 
L 84.155844 220.258802 
L 88.831169 220.228866 
L 93.506494 220.222142 
L 98.181818 220.1501 
L 102.857143 220.095579 
L 107.532468 220.018092 
L 112.207792 219.878378 
L 116.883117 219.70363 
L 121.558442 219.583528 
L 126.233766 219.524145 
L 130.909091 219.450157 
L 135.584416 219.301612 
L 140.25974 219.126169 
L 144.935065 219.043381 
L 149.61039 219.076463 
L 154.285714 219.076294 
L 158.961039 219.131654 
L 163.636364 219.130941 
L 168.311688 219.130798 
L 172.987013 219.183007 
L 177.662338 219.177807 
L 182.337662 219.170915 
L 187.012987 219.15827 
L 191.688312 219.131578 
L 196.363636 219.118311 
L 201.038961 219.160476 
L 205.714286 219.159956 
L 210.38961 219.052182 
L 215.064935 219.016418 
L 219.74026 218.963861 
L 224.415584 218.80801 
L 229.090909 218.687154 
L 233.766234 218.596931 
L 238.441558 218.551903 
L 243.116883 218.515273 
L 247.792208 218.443225 
L 252.467532 218.403441 
L 257.142857 218.516918 
L 261.818182 218.673893 
L 266.493506 218.818879 
L 271.168831 219.041251 
L 275.844156 219.243792 
L 280.519481 219.455029 
L 285.194805 219.654999 
L 289.87013 219.848057 
L 294.545455 220.032243 
" clip-path="url(#p3025f8b148)" style="fill: none; stroke: #ff0000; stroke-width: 1.5; stroke-linecap: square"/>
   </g>
   <g id="line2d_36">
    <path d="M 65.454545 221.877545 
L 70.12987 221.877545 
L 74.805195 221.877545 
L 79.480519 221.877545 
L 84.155844 221.525309 
L 88.831169 221.121988 
L 93.506494 220.852988 
L 98.181818 220.803157 
L 102.857143 221.255261 
L 107.532468 221.666436 
L 112.207792 221.815728 
L 116.883117 222.002305 
L 121.558442 222.026815 
L 126.233766 221.43132 
L 130.909091 220.91994 
L 135.584416 220.002951 
L 140.25974 218.491735 
L 144.935065 217.075125 
L 149.61039 215.69189 
L 154.285714 214.432815 
L 158.961039 213.528334 
L 163.636364 212.868375 
L 168.311688 212.341367 
L 172.987013 212.734359 
L 177.662338 213.269172 
L 182.337662 213.627338 
L 187.012987 213.896482 
L 191.688312 214.199278 
L 196.363636 214.227073 
L 201.038961 214.150654 
L 205.714286 213.670361 
L 210.38961 212.605693 
L 215.064935 211.738996 
L 219.74026 210.630712 
L 224.415584 208.795195 
L 229.090909 207.256688 
L 233.766234 206.092074 
L 238.441558 204.66639 
L 243.116883 203.451963 
L 247.792208 202.326788 
L 252.467532 201.847821 
L 257.142857 202.795149 
L 261.818182 203.921522 
L 266.493506 204.867628 
L 271.168831 206.193992 
L 275.844156 207.798769 
L 280.519481 209.126798 
L 285.194805 210.093219 
L 289.87013 210.768979 
L 294.545455 211.310421 
" clip-path="url(#p3025f8b148)" style="fill: none; stroke: #ff0000; stroke-opacity: 0.2; stroke-width: 1.5; stroke-linecap: square"/>
   </g>
   <g id="line2d_37">
    <path d="M 65.454545 228.221442 
L 70.12987 228.439492 
L 74.805195 228.671675 
L 79.480519 228.71885 
L 84.155844 228.895168 
L 88.831169 228.855818 
L 93.506494 228.825734 
L 98.181818 228.673339 
L 102.857143 228.476922 
L 107.532468 228.268377 
L 112.207792 228.171797 
L 116.883117 228.2943 
L 121.558442 228.350018 
L 126.233766 228.378715 
L 130.909091 228.397466 
L 135.584416 228.544264 
L 140.25974 228.736507 
L 144.935065 228.986737 
L 149.61039 229.137127 
L 154.285714 229.03899 
L 158.961039 228.931262 
L 163.636364 228.906395 
L 168.311688 229.000963 
L 172.987013 229.03044 
L 177.662338 229.128025 
L 182.337662 229.200192 
L 187.012987 229.258389 
L 191.688312 229.310173 
L 196.363636 229.356356 
L 201.038961 229.3661 
L 205.714286 229.326291 
L 210.38961 229.218138 
L 215.064935 229.167625 
L 219.74026 228.994586 
L 224.415584 228.860887 
L 229.090909 228.847849 
L 233.766234 228.812152 
L 238.441558 228.763381 
L 243.116883 228.659224 
L 247.792208 228.583717 
L 252.467532 228.663042 
L 257.142857 228.797556 
L 261.818182 229.022101 
L 266.493506 229.156138 
L 271.168831 229.135917 
L 275.844156 229.062082 
L 280.519481 229.124317 
L 285.194805 229.167984 
L 289.87013 229.233047 
L 294.545455 229.146639 
" clip-path="url(#p3025f8b148)" style="fill: none; stroke: #ff0000; stroke-opacity: 0.2; stroke-width: 1.5; stroke-linecap: square"/>
   </g>
   <g id="line2d_38">
    <path d="M 65.454545 226.821539 
L 70.12987 226.821539 
L 74.805195 226.787886 
L 79.480519 226.625131 
L 84.155844 226.410663 
L 88.831169 225.936394 
L 93.506494 225.359793 
L 98.181818 224.914674 
L 102.857143 224.980885 
L 107.532468 225.002011 
L 112.207792 224.734654 
L 116.883117 224.434161 
L 121.558442 224.150025 
L 126.233766 224.007072 
L 130.909091 223.976959 
L 135.584416 224.000637 
L 140.25974 223.867673 
L 144.935065 223.781118 
L 149.61039 223.676982 
L 154.285714 223.663456 
L 158.961039 223.643457 
L 163.636364 223.890638 
L 168.311688 224.10164 
L 172.987013 224.215041 
L 177.662338 224.283337 
L 182.337662 224.295191 
L 187.012987 224.216153 
L 191.688312 224.144134 
L 196.363636 224.125082 
L 201.038961 224.338063 
L 205.714286 224.586158 
L 210.38961 224.864945 
L 215.064935 225.15126 
L 219.74026 225.410214 
L 224.415584 225.631518 
L 229.090909 225.761473 
L 233.766234 225.904706 
L 238.441558 226.031702 
L 243.116883 226.056957 
L 247.792208 226.086297 
L 252.467532 226.115748 
L 257.142857 226.241037 
L 261.818182 226.310543 
L 266.493506 226.356913 
L 271.168831 226.264659 
L 275.844156 226.147401 
L 280.519481 226.059198 
L 285.194805 226.068187 
L 289.87013 226.124952 
L 294.545455 226.227878 
" clip-path="url(#p3025f8b148)" style="fill: none; stroke: #ff0000; stroke-opacity: 0.2; stroke-width: 1.5; stroke-linecap: square"/>
   </g>
   <g id="line2d_39">
    <path d="M 65.454545 222.170668 
L 70.12987 222.13598 
L 74.805195 222.10125 
L 79.480519 222.709276 
L 84.155844 223.173626 
L 88.831169 223.601311 
L 93.506494 223.821309 
L 98.181818 223.945892 
L 102.857143 224.147168 
L 107.532468 224.251068 
L 112.207792 224.199441 
L 116.883117 224.079664 
L 121.558442 223.884283 
L 126.233766 223.631597 
L 130.909091 223.341955 
L 135.584416 223.15625 
L 140.25974 222.947506 
L 144.935065 222.830252 
L 149.61039 222.715853 
L 154.285714 222.505328 
L 158.961039 222.109443 
L 163.636364 221.781063 
L 168.311688 221.460444 
L 172.987013 221.113962 
L 177.662338 220.888003 
L 182.337662 220.740213 
L 187.012987 220.523127 
L 191.688312 220.269998 
L 196.363636 220.086737 
L 201.038961 219.973661 
L 205.714286 219.893243 
L 210.38961 219.665977 
L 215.064935 219.591415 
L 219.74026 219.509949 
L 224.415584 219.477673 
L 229.090909 219.5408 
L 233.766234 219.524717 
L 238.441558 219.812148 
L 243.116883 220.169372 
L 247.792208 220.463546 
L 252.467532 220.516213 
L 257.142857 220.556704 
L 261.818182 220.699394 
L 266.493506 220.829381 
L 271.168831 220.995296 
L 275.844156 221.011606 
L 280.519481 221.099307 
L 285.194805 221.352201 
L 289.87013 221.433236 
L 294.545455 221.399871 
" clip-path="url(#p3025f8b148)" style="fill: none; stroke: #ff0000; stroke-opacity: 0.2; stroke-width: 1.5; stroke-linecap: square"/>
   </g>
   <g id="line2d_40">
    <path d="M 65.454545 216.178034 
L 70.12987 216.178034 
L 74.805195 216.1571 
L 79.480519 216.374876 
L 84.155844 216.365551 
L 88.831169 216.205057 
L 93.506494 216.574482 
L 98.181818 216.845204 
L 102.857143 216.960005 
L 107.532468 216.99156 
L 112.207792 217.269118 
L 116.883117 217.372486 
L 121.558442 217.470877 
L 126.233766 217.355379 
L 130.909091 216.995394 
L 135.584416 216.643331 
L 140.25974 216.339312 
L 144.935065 216.048042 
L 149.61039 215.850827 
L 154.285714 215.889337 
L 158.961039 216.361299 
L 163.636364 216.409433 
L 168.311688 216.202479 
L 172.987013 215.991998 
L 177.662338 215.745738 
L 182.337662 215.576081 
L 187.012987 215.350073 
L 191.688312 215.062547 
L 196.363636 214.629827 
L 201.038961 214.115236 
L 205.714286 213.904593 
L 210.38961 213.979605 
L 215.064935 214.333378 
L 219.74026 214.683034 
L 224.415584 214.740108 
L 229.090909 214.854485 
L 233.766234 215.023673 
L 238.441558 215.333789 
L 243.116883 215.539684 
L 247.792208 215.414572 
L 252.467532 215.257065 
L 257.142857 215.231849 
L 261.818182 215.190332 
L 266.493506 215.156173 
L 271.168831 215.101745 
L 275.844156 214.998343 
L 280.519481 214.903752 
L 285.194805 214.666582 
L 289.87013 214.608324 
L 294.545455 214.554475 
" clip-path="url(#p3025f8b148)" style="fill: none; stroke: #ff0000; stroke-opacity: 0.2; stroke-width: 1.5; stroke-linecap: square"/>
   </g>
   <g id="line2d_41">
    <path d="M 65.454545 213.122051 
L 70.12987 213.122051 
L 74.805195 213.447218 
L 79.480519 214.300071 
L 84.155844 214.703968 
L 88.831169 215.127745 
L 93.506494 215.56166 
L 98.181818 215.404488 
L 102.857143 215.03102 
L 107.532468 214.765929 
L 112.207792 214.508153 
L 116.883117 214.163341 
L 121.558442 213.878334 
L 126.233766 214.152019 
L 130.909091 214.546674 
L 135.584416 214.930722 
L 140.25974 214.991774 
L 144.935065 215.070401 
L 149.61039 215.01772 
L 154.285714 215.341901 
L 158.961039 215.521289 
L 163.636364 215.411584 
L 168.311688 215.801271 
L 172.987013 215.939926 
L 177.662338 215.774467 
L 182.337662 215.993669 
L 187.012987 216.131093 
L 191.688312 216.486418 
L 196.363636 216.790339 
L 201.038961 216.995788 
L 205.714286 217.383464 
L 210.38961 217.531509 
L 215.064935 217.910382 
L 219.74026 218.377216 
L 224.415584 218.409998 
L 229.090909 218.244736 
L 233.766234 218.145446 
L 238.441558 218.345763 
L 243.116883 218.443679 
L 247.792208 218.413617 
L 252.467532 218.509855 
L 257.142857 218.539283 
L 261.818182 218.575371 
L 266.493506 218.538764 
L 271.168831 218.773579 
L 275.844156 219.102833 
L 280.519481 219.47585 
L 285.194805 219.882914 
L 289.87013 220.18153 
L 294.545455 220.447868 
" clip-path="url(#p3025f8b148)" style="fill: none; stroke: #ff0000; stroke-opacity: 0.2; stroke-width: 1.5; stroke-linecap: square"/>
   </g>
   <g id="line2d_42">
    <path d="M 65.454545 204.090722 
L 70.12987 204.879475 
L 74.805195 207.282157 
L 79.480519 208.890482 
L 84.155844 209.619371 
L 88.831169 208.899707 
L 93.506494 208.006671 
L 98.181818 207.345684 
L 102.857143 206.211033 
L 107.532468 205.176314 
L 112.207792 204.511973 
L 116.883117 204.037499 
L 121.558442 204.09329 
L 126.233766 204.849481 
L 130.909091 204.890911 
L 135.584416 204.037592 
L 140.25974 203.852275 
L 144.935065 204.182711 
L 149.61039 206.148269 
L 154.285714 207.744182 
L 158.961039 209.404439 
L 163.636364 210.468946 
L 168.311688 211.421989 
L 172.987013 212.543867 
L 177.662338 213.13875 
L 182.337662 213.236639 
L 187.012987 213.447258 
L 191.688312 213.671742 
L 196.363636 214.548834 
L 201.038961 215.557931 
L 205.714286 216.1533 
L 210.38961 216.053069 
L 215.064935 215.830383 
L 219.74026 215.485641 
L 224.415584 214.877432 
L 229.090909 214.814259 
L 233.766234 214.558718 
L 238.441558 214.161326 
L 243.116883 214.000269 
L 247.792208 213.669165 
L 252.467532 213.623756 
L 257.142857 213.673918 
L 261.818182 213.853052 
L 266.493506 214.29605 
L 271.168831 214.883621 
L 275.844156 215.399207 
L 280.519481 215.905349 
L 285.194805 216.38969 
L 289.87013 216.664774 
L 294.545455 217.158773 
" clip-path="url(#p3025f8b148)" style="fill: none; stroke: #ff0000; stroke-opacity: 0.2; stroke-width: 1.5; stroke-linecap: square"/>
   </g>
   <g id="line2d_43">
    <path d="M 65.454545 222.313815 
L 70.12987 222.320086 
L 74.805195 222.376669 
L 79.480519 222.23589 
L 84.155844 222.340048 
L 88.831169 222.656169 
L 93.506494 222.905115 
L 98.181818 223.05931 
L 102.857143 223.172242 
L 107.532468 223.177492 
L 112.207792 223.166243 
L 116.883117 222.962786 
L 121.558442 222.652121 
L 126.233766 222.474807 
L 130.909091 222.367205 
L 135.584416 222.28978 
L 140.25974 222.269099 
L 144.935065 222.285053 
L 149.61039 222.248156 
L 154.285714 222.232919 
L 158.961039 222.234644 
L 163.636364 222.220783 
L 168.311688 222.22123 
L 172.987013 222.201228 
L 177.662338 222.210922 
L 182.337662 222.276577 
L 187.012987 222.350306 
L 191.688312 222.313148 
L 196.363636 222.358763 
L 201.038961 222.392825 
L 205.714286 222.328541 
L 210.38961 222.224474 
L 215.064935 222.125291 
L 219.74026 221.979198 
L 224.415584 221.832809 
L 229.090909 221.605324 
L 233.766234 221.469919 
L 238.441558 221.344265 
L 243.116883 221.174706 
L 247.792208 221.23974 
L 252.467532 221.300839 
L 257.142857 221.40739 
L 261.818182 221.373238 
L 266.493506 221.300165 
L 271.168831 221.386277 
L 275.844156 221.461087 
L 280.519481 221.569851 
L 285.194805 221.575385 
L 289.87013 221.626951 
L 294.545455 221.796165 
" clip-path="url(#p3025f8b148)" style="fill: none; stroke: #ff0000; stroke-opacity: 0.2; stroke-width: 1.5; stroke-linecap: square"/>
   </g>
   <g id="line2d_44">
    <path d="M 65.454545 216.137981 
L 70.12987 216.137981 
L 74.805195 216.137981 
L 79.480519 216.494809 
L 84.155844 216.945819 
L 88.831169 217.285476 
L 93.506494 217.810336 
L 98.181818 218.163436 
L 102.857143 218.254432 
L 107.532468 218.198898 
L 112.207792 218.173021 
L 116.883117 218.127308 
L 121.558442 218.296884 
L 126.233766 218.349071 
L 130.909091 218.474968 
L 135.584416 218.309812 
L 140.25974 218.181813 
L 144.935065 218.328951 
L 149.61039 218.411498 
L 154.285714 218.205787 
L 158.961039 217.938743 
L 163.636364 217.718686 
L 168.311688 217.493716 
L 172.987013 217.299172 
L 177.662338 217.122168 
L 182.337662 216.942204 
L 187.012987 216.699576 
L 191.688312 216.577039 
L 196.363636 216.539996 
L 201.038961 216.543087 
L 205.714286 216.535891 
L 210.38961 216.489879 
L 215.064935 216.355438 
L 219.74026 216.496705 
L 224.415584 216.881772 
L 229.090909 217.168879 
L 233.766234 217.339041 
L 238.441558 217.466468 
L 243.116883 217.506304 
L 247.792208 217.550837 
L 252.467532 217.457582 
L 257.142857 217.424161 
L 261.818182 217.580457 
L 266.493506 217.956328 
L 271.168831 218.296216 
L 275.844156 218.551399 
L 280.519481 218.781163 
L 285.194805 218.910166 
L 289.87013 218.911038 
L 294.545455 219.023207 
" clip-path="url(#p3025f8b148)" style="fill: none; stroke: #ff0000; stroke-opacity: 0.2; stroke-width: 1.5; stroke-linecap: square"/>
   </g>
   <g id="line2d_45">
    <path d="M 65.454545 227.071713 
L 70.12987 227.071713 
L 74.805195 227.161168 
L 79.480519 227.207557 
L 84.155844 227.245204 
L 88.831169 227.430272 
L 93.506494 227.331009 
L 98.181818 227.208498 
L 102.857143 227.008211 
L 107.532468 226.682132 
L 112.207792 226.303757 
L 116.883117 225.987173 
L 121.558442 225.62587 
L 126.233766 225.331348 
L 130.909091 225.234583 
L 135.584416 225.139557 
L 140.25974 225.007837 
L 144.935065 225.019244 
L 149.61039 224.99855 
L 154.285714 224.953301 
L 158.961039 224.877913 
L 163.636364 224.854477 
L 168.311688 224.753693 
L 172.987013 224.675429 
L 177.662338 224.5164 
L 182.337662 224.375076 
L 187.012987 224.273826 
L 191.688312 224.221965 
L 196.363636 224.217547 
L 201.038961 224.247934 
L 205.714286 224.294089 
L 210.38961 224.34859 
L 215.064935 224.453177 
L 219.74026 224.603665 
L 224.415584 224.831947 
L 229.090909 225.009881 
L 233.766234 225.132296 
L 238.441558 225.264395 
L 243.116883 225.329305 
L 247.792208 225.421921 
L 252.467532 225.509836 
L 257.142857 225.630591 
L 261.818182 225.716248 
L 266.493506 225.651198 
L 271.168831 225.702545 
L 275.844156 225.730935 
L 280.519481 225.824803 
L 285.194805 225.929889 
L 289.87013 226.034709 
L 294.545455 226.055333 
" clip-path="url(#p3025f8b148)" style="fill: none; stroke: #ff0000; stroke-opacity: 0.2; stroke-width: 1.5; stroke-linecap: square"/>
   </g>
   <g id="line2d_46">
    <path d="M 65.454545 227.051211 
L 70.12987 227.051211 
L 74.805195 227.051211 
L 79.480519 227.049086 
L 84.155844 226.117446 
L 88.831169 225.590439 
L 93.506494 225.014841 
L 98.181818 224.039346 
L 102.857143 223.049318 
L 107.532468 222.270316 
L 112.207792 221.556158 
L 116.883117 220.822404 
L 121.558442 220.495665 
L 126.233766 220.222292 
L 130.909091 219.873884 
L 135.584416 219.936736 
L 140.25974 220.255352 
L 144.935065 220.531667 
L 149.61039 220.581234 
L 154.285714 220.423094 
L 158.961039 220.256567 
L 163.636364 219.848133 
L 168.311688 219.310873 
L 172.987013 218.923277 
L 177.662338 218.377276 
L 182.337662 217.890005 
L 187.012987 217.787243 
L 191.688312 217.617407 
L 196.363636 217.31993 
L 201.038961 217.400152 
L 205.714286 217.483377 
L 210.38961 217.74822 
L 215.064935 218.148243 
L 219.74026 218.385118 
L 224.415584 218.51052 
L 229.090909 218.648494 
L 233.766234 218.705529 
L 238.441558 218.861289 
L 243.116883 219.108504 
L 247.792208 219.293059 
L 252.467532 219.170563 
L 257.142857 219.013874 
L 261.818182 218.908008 
L 266.493506 218.729271 
L 271.168831 218.7341 
L 275.844156 218.662958 
L 280.519481 218.539762 
L 285.194805 218.627024 
L 289.87013 218.937227 
L 294.545455 219.220024 
" clip-path="url(#p3025f8b148)" style="fill: none; stroke: #ff0000; stroke-opacity: 0.2; stroke-width: 1.5; stroke-linecap: square"/>
   </g>
   <g id="line2d_47">
    <path d="M 65.454545 208.454456 
L 70.12987 208.596728 
L 74.805195 208.889591 
L 79.480519 209.49518 
L 84.155844 209.76345 
L 88.831169 210.036017 
L 93.506494 210.601764 
L 98.181818 211.398178 
L 102.857143 212.600444 
L 107.532468 213.766567 
L 112.207792 214.130496 
L 116.883117 214.16013 
L 121.558442 214.078159 
L 126.233766 214.106635 
L 130.909091 214.381943 
L 135.584416 214.62771 
L 140.25974 214.573148 
L 144.935065 214.381271 
L 149.61039 214.439446 
L 154.285714 214.484417 
L 158.961039 214.772461 
L 163.636364 215.192783 
L 168.311688 215.459916 
L 172.987013 215.527381 
L 177.662338 215.679432 
L 182.337662 215.897792 
L 187.012987 215.965719 
L 191.688312 215.705089 
L 196.363636 215.219252 
L 201.038961 214.844274 
L 205.714286 214.360167 
L 210.38961 213.896082 
L 215.064935 213.391423 
L 219.74026 213.010296 
L 224.415584 212.846263 
L 229.090909 212.492982 
L 233.766234 212.454902 
L 238.441558 212.571925 
L 243.116883 212.743307 
L 247.792208 212.855437 
L 252.467532 212.868968 
L 257.142857 212.891501 
L 261.818182 212.936456 
L 266.493506 212.988534 
L 271.168831 213.027061 
L 275.844156 212.998889 
L 280.519481 213.050197 
L 285.194805 213.196743 
L 289.87013 213.651918 
L 294.545455 214.046257 
" clip-path="url(#p3025f8b148)" style="fill: none; stroke: #ff0000; stroke-opacity: 0.2; stroke-width: 1.5; stroke-linecap: square"/>
   </g>
   <g id="patch_7">
    <path d="M 46 259.2 
L 46 151.2 
" style="fill: none; stroke: #000000; stroke-width: 0.8; stroke-linejoin: miter; stroke-linecap: square"/>
   </g>
   <g id="patch_8">
    <path d="M 54 267.2 
L 306 267.2 
" style="fill: none; stroke: #000000; stroke-width: 0.8; stroke-linejoin: miter; stroke-linecap: square"/>
   </g>
  </g>
  <g id="axes_3">
   <g id="patch_9">
    <path d="M 54 129.6 
L 306 129.6 
L 306 21.6 
L 54 21.6 
z
" style="fill: #ffffff"/>
   </g>
   <g id="PolyCollection_3">
    <defs>
     <path id="m72ded4e701" d="M 65.454545 -354.61577 
L 65.454545 -347.542711 
L 70.12987 -347.559805 
L 74.805195 -347.456746 
L 79.480519 -347.461616 
L 84.155844 -347.483931 
L 88.831169 -347.415806 
L 93.506494 -347.144987 
L 98.181818 -346.910455 
L 102.857143 -346.68552 
L 107.532468 -346.615831 
L 112.207792 -346.673302 
L 116.883117 -346.743007 
L 121.558442 -346.921822 
L 126.233766 -347.227801 
L 130.909091 -347.495982 
L 135.584416 -347.797179 
L 140.25974 -348.053163 
L 144.935065 -348.309529 
L 149.61039 -348.378925 
L 154.285714 -348.439596 
L 158.961039 -348.522173 
L 163.636364 -348.655652 
L 168.311688 -348.873967 
L 172.987013 -349.106093 
L 177.662338 -349.362233 
L 182.337662 -349.479752 
L 187.012987 -349.449564 
L 191.688312 -349.423856 
L 196.363636 -349.391491 
L 201.038961 -349.428499 
L 205.714286 -349.402984 
L 210.38961 -349.382916 
L 215.064935 -349.407864 
L 219.74026 -349.446442 
L 224.415584 -349.465296 
L 229.090909 -349.348028 
L 233.766234 -349.260887 
L 238.441558 -349.16981 
L 243.116883 -349.12451 
L 247.792208 -349.090182 
L 252.467532 -349.037311 
L 257.142857 -348.991161 
L 261.818182 -348.997916 
L 266.493506 -348.893221 
L 271.168831 -348.815976 
L 275.844156 -348.660926 
L 280.519481 -348.435779 
L 285.194805 -348.239023 
L 289.87013 -348.045345 
L 294.545455 -347.962194 
L 294.545455 -353.354317 
L 294.545455 -353.354317 
L 289.87013 -353.465825 
L 285.194805 -353.756215 
L 280.519481 -353.97154 
L 275.844156 -354.228768 
L 271.168831 -354.374025 
L 266.493506 -354.47029 
L 261.818182 -354.576904 
L 257.142857 -354.455885 
L 252.467532 -354.458674 
L 247.792208 -354.474737 
L 243.116883 -354.524161 
L 238.441558 -354.607718 
L 233.766234 -354.715773 
L 229.090909 -354.897816 
L 224.415584 -355.128953 
L 219.74026 -355.132227 
L 215.064935 -355.093792 
L 210.38961 -355.062854 
L 205.714286 -355.100568 
L 201.038961 -355.018126 
L 196.363636 -354.801457 
L 191.688312 -354.625695 
L 187.012987 -354.426594 
L 182.337662 -354.363704 
L 177.662338 -354.122163 
L 172.987013 -353.765582 
L 168.311688 -353.438088 
L 163.636364 -353.167553 
L 158.961039 -353.116605 
L 154.285714 -353.102955 
L 149.61039 -353.127331 
L 144.935065 -353.201586 
L 140.25974 -352.998276 
L 135.584416 -352.80909 
L 130.909091 -352.625464 
L 126.233766 -352.564692 
L 121.558442 -352.343289 
L 116.883117 -352.434825 
L 112.207792 -352.869584 
L 107.532468 -353.239298 
L 102.857143 -353.438876 
L 98.181818 -353.693781 
L 93.506494 -354.093171 
L 88.831169 -354.563234 
L 84.155844 -354.61826 
L 79.480519 -354.592523 
L 74.805195 -354.536319 
L 70.12987 -354.636551 
L 65.454545 -354.61577 
z
"/>
    </defs>
    <g clip-path="url(#pa4d8fba307)">
     <use xlink:href="#m72ded4e701" x="0" y="432" style="fill: #ff0000; fill-opacity: 0.4"/>
    </g>
   </g>
   <g id="matplotlib.axis_5">
    <g id="xtick_11">
     <g id="line2d_48">
      <g>
       <use xlink:href="#m9acbef7db8" x="65.454545" y="137.6" style="stroke: #000000; stroke-width: 0.8"/>
      </g>
     </g>
    </g>
    <g id="xtick_12">
     <g id="line2d_49">
      <g>
       <use xlink:href="#m9acbef7db8" x="122.727273" y="137.6" style="stroke: #000000; stroke-width: 0.8"/>
      </g>
     </g>
    </g>
    <g id="xtick_13">
     <g id="line2d_50">
      <g>
       <use xlink:href="#m9acbef7db8" x="180" y="137.6" style="stroke: #000000; stroke-width: 0.8"/>
      </g>
     </g>
    </g>
    <g id="xtick_14">
     <g id="line2d_51">
      <g>
       <use xlink:href="#m9acbef7db8" x="237.272727" y="137.6" style="stroke: #000000; stroke-width: 0.8"/>
      </g>
     </g>
    </g>
    <g id="xtick_15">
     <g id="line2d_52">
      <g>
       <use xlink:href="#m9acbef7db8" x="294.545455" y="137.6" style="stroke: #000000; stroke-width: 0.8"/>
      </g>
     </g>
    </g>
   </g>
   <g id="matplotlib.axis_6">
    <g id="ytick_7">
     <g id="line2d_53">
      <g>
       <use xlink:href="#m7fc4a2e29a" x="46" y="110.541176" style="stroke: #000000; stroke-width: 0.8"/>
      </g>
     </g>
     <g id="text_16">
      <!-- 0 -->
      <g transform="translate(32.6375 114.340395) scale(0.1 -0.1)">
       <use xlink:href="#DejaVuSans-30"/>
      </g>
     </g>
    </g>
    <g id="ytick_8">
     <g id="line2d_54">
      <g>
       <use xlink:href="#m7fc4a2e29a" x="46" y="78.776471" style="stroke: #000000; stroke-width: 0.8"/>
      </g>
     </g>
     <g id="text_17">
      <!-- 5 -->
      <g transform="translate(32.6375 82.575689) scale(0.1 -0.1)">
       <use xlink:href="#DejaVuSans-35"/>
      </g>
     </g>
    </g>
    <g id="ytick_9">
     <g id="line2d_55">
      <g>
       <use xlink:href="#m7fc4a2e29a" x="46" y="47.011765" style="stroke: #000000; stroke-width: 0.8"/>
      </g>
     </g>
     <g id="text_18">
      <!-- 10 -->
      <g transform="translate(26.275 50.810983) scale(0.1 -0.1)">
       <use xlink:href="#DejaVuSans-31"/>
       <use xlink:href="#DejaVuSans-30" x="63.623047"/>
      </g>
     </g>
    </g>
    <g id="text_19">
     <!-- BOLD % change -->
     <g transform="translate(19.779375 123.894375) rotate(-90) scale(0.12 -0.12)">
      <use xlink:href="#DejaVuSans-42"/>
      <use xlink:href="#DejaVuSans-4f" x="66.853516"/>
      <use xlink:href="#DejaVuSans-4c" x="145.564453"/>
      <use xlink:href="#DejaVuSans-44" x="201.277344"/>
      <use xlink:href="#DejaVuSans-20" x="278.279297"/>
      <use xlink:href="#DejaVuSans-25" x="310.066406"/>
      <use xlink:href="#DejaVuSans-20" x="405.085938"/>
      <use xlink:href="#DejaVuSans-63" x="436.873047"/>
      <use xlink:href="#DejaVuSans-68" x="491.853516"/>
      <use xlink:href="#DejaVuSans-61" x="555.232422"/>
      <use xlink:href="#DejaVuSans-6e" x="616.511719"/>
      <use xlink:href="#DejaVuSans-67" x="679.890625"/>
      <use xlink:href="#DejaVuSans-65" x="743.367188"/>
     </g>
    </g>
   </g>
   <g id="line2d_56">
    <path d="M 180 148.658824 
L 180 72.423529 
" clip-path="url(#pa4d8fba307)" style="fill: none; stroke-dasharray: 5.55,2.4; stroke-dashoffset: 0; stroke: #4c4c4c; stroke-width: 1.5"/>
   </g>
   <g id="line2d_57">
    <path d="M 65.454545 110.541176 
L 294.545455 110.541176 
" clip-path="url(#pa4d8fba307)" style="fill: none; stroke-dasharray: 5.55,2.4; stroke-dashoffset: 0; stroke: #4c4c4c; stroke-width: 1.5"/>
   </g>
   <g id="line2d_58">
    <path d="M 65.454545 80.92076 
L 70.12987 80.901822 
L 74.805195 81.003468 
L 79.480519 80.972931 
L 84.155844 80.948905 
L 88.831169 81.01048 
L 93.506494 81.380921 
L 98.181818 81.697882 
L 102.857143 81.937802 
L 107.532468 82.072436 
L 112.207792 82.228557 
L 116.883117 82.411084 
L 121.558442 82.367445 
L 126.233766 82.103754 
L 130.909091 81.939277 
L 135.584416 81.696865 
L 140.25974 81.474281 
L 144.935065 81.244443 
L 149.61039 81.246872 
L 154.285714 81.228725 
L 158.961039 81.180611 
L 163.636364 81.088398 
L 168.311688 80.843973 
L 172.987013 80.564162 
L 177.662338 80.257802 
L 182.337662 80.078272 
L 187.012987 80.061921 
L 191.688312 79.975224 
L 196.363636 79.903526 
L 201.038961 79.776687 
L 205.714286 79.748224 
L 210.38961 79.777115 
L 215.064935 79.749172 
L 219.74026 79.710666 
L 224.415584 79.702875 
L 229.090909 79.877078 
L 233.766234 80.01167 
L 238.441558 80.111236 
L 243.116883 80.175664 
L 247.792208 80.217541 
L 252.467532 80.252008 
L 257.142857 80.276477 
L 261.818182 80.21259 
L 266.493506 80.318245 
L 271.168831 80.404999 
L 275.844156 80.555153 
L 280.519481 80.79634 
L 285.194805 81.002381 
L 289.87013 81.244415 
L 294.545455 81.341744 
" clip-path="url(#pa4d8fba307)" style="fill: none; stroke: #ff0000; stroke-width: 1.5; stroke-linecap: square"/>
   </g>
   <g id="line2d_59">
    <path d="M 65.454545 79.256734 
L 70.12987 79.256734 
L 74.805195 79.256734 
L 79.480519 78.940848 
L 84.155844 78.709065 
L 88.831169 78.972254 
L 93.506494 79.178944 
L 98.181818 79.573509 
L 102.857143 80.337308 
L 107.532468 80.302498 
L 112.207792 79.28273 
L 116.883117 78.798694 
L 121.558442 78.724339 
L 126.233766 78.822997 
L 130.909091 78.387392 
L 135.584416 76.812528 
L 140.25974 74.982462 
L 144.935065 73.493173 
L 149.61039 73.691642 
L 154.285714 74.460536 
L 158.961039 75.289198 
L 163.636364 74.859393 
L 168.311688 73.762467 
L 172.987013 71.922948 
L 177.662338 70.92498 
L 182.337662 69.666877 
L 187.012987 68.810079 
L 191.688312 66.038228 
L 196.363636 64.015091 
L 201.038961 62.732171 
L 205.714286 62.394533 
L 210.38961 63.166103 
L 215.064935 63.460201 
L 219.74026 63.896952 
L 224.415584 64.289533 
L 229.090909 65.311387 
L 233.766234 65.78191 
L 238.441558 65.614013 
L 243.116883 66.264379 
L 247.792208 66.955982 
L 252.467532 67.186208 
L 257.142857 67.559918 
L 261.818182 67.071193 
L 266.493506 66.514482 
L 271.168831 66.297352 
L 275.844156 65.649233 
L 280.519481 65.589302 
L 285.194805 65.782284 
L 289.87013 66.315143 
L 294.545455 66.390027 
" clip-path="url(#pa4d8fba307)" style="fill: none; stroke: #ff0000; stroke-opacity: 0.2; stroke-width: 1.5; stroke-linecap: square"/>
   </g>
   <g id="line2d_60">
    <path d="M 65.454545 94.609892 
L 70.12987 94.609892 
L 74.805195 94.634378 
L 79.480519 95.128671 
L 84.155844 95.300009 
L 88.831169 95.273326 
L 93.506494 95.758784 
L 98.181818 96.182706 
L 102.857143 96.43538 
L 107.532468 96.402037 
L 112.207792 96.031228 
L 116.883117 96.022612 
L 121.558442 96.097888 
L 126.233766 96.1214 
L 130.909091 96.072303 
L 135.584416 96.280009 
L 140.25974 96.676384 
L 144.935065 96.675823 
L 149.61039 96.693586 
L 154.285714 96.596342 
L 158.961039 96.576888 
L 163.636364 96.487128 
L 168.311688 96.723537 
L 172.987013 96.913347 
L 177.662338 96.96457 
L 182.337662 97.160907 
L 187.012987 97.321106 
L 191.688312 97.423926 
L 196.363636 97.543447 
L 201.038961 97.648665 
L 205.714286 97.757732 
L 210.38961 97.81212 
L 215.064935 97.830286 
L 219.74026 97.70298 
L 224.415584 97.461932 
L 229.090909 97.141816 
L 233.766234 96.931987 
L 238.441558 96.858751 
L 243.116883 96.816111 
L 247.792208 96.897376 
L 252.467532 97.06517 
L 257.142857 97.186593 
L 261.818182 97.368547 
L 266.493506 97.411699 
L 271.168831 97.415852 
L 275.844156 97.391374 
L 280.519481 97.522044 
L 285.194805 97.515212 
L 289.87013 97.323841 
L 294.545455 97.09234 
" clip-path="url(#pa4d8fba307)" style="fill: none; stroke: #ff0000; stroke-opacity: 0.2; stroke-width: 1.5; stroke-linecap: square"/>
   </g>
   <g id="line2d_61">
    <path d="M 65.454545 95.748652 
L 70.12987 95.748652 
L 74.805195 95.748652 
L 79.480519 95.600123 
L 84.155844 95.227966 
L 88.831169 95.16487 
L 93.506494 95.36117 
L 98.181818 95.36941 
L 102.857143 95.097991 
L 107.532468 94.668012 
L 112.207792 94.104408 
L 116.883117 93.546321 
L 121.558442 92.947768 
L 126.233766 92.347621 
L 130.909091 91.889498 
L 135.584416 91.348045 
L 140.25974 91.072925 
L 144.935065 91.25056 
L 149.61039 91.419947 
L 154.285714 91.563658 
L 158.961039 91.486856 
L 163.636364 91.276078 
L 168.311688 91.046509 
L 172.987013 90.741125 
L 177.662338 90.432461 
L 182.337662 90.282362 
L 187.012987 90.324153 
L 191.688312 90.569656 
L 196.363636 90.930165 
L 201.038961 91.315627 
L 205.714286 91.699915 
L 210.38961 92.013614 
L 215.064935 92.144397 
L 219.74026 92.34382 
L 224.415584 92.657655 
L 229.090909 93.022265 
L 233.766234 93.378867 
L 238.441558 93.731138 
L 243.116883 93.918363 
L 247.792208 94.132511 
L 252.467532 94.173552 
L 257.142857 94.099653 
L 261.818182 93.950408 
L 266.493506 93.914876 
L 271.168831 93.872874 
L 275.844156 93.893777 
L 280.519481 93.891788 
L 285.194805 93.949274 
L 289.87013 93.988351 
L 294.545455 94.092604 
" clip-path="url(#pa4d8fba307)" style="fill: none; stroke: #ff0000; stroke-opacity: 0.2; stroke-width: 1.5; stroke-linecap: square"/>
   </g>
   <g id="line2d_62">
    <path d="M 65.454545 76.201048 
L 70.12987 76.469132 
L 74.805195 76.99385 
L 79.480519 77.249465 
L 84.155844 77.869886 
L 88.831169 78.768188 
L 93.506494 79.340736 
L 98.181818 79.533997 
L 102.857143 79.718284 
L 107.532468 80.184636 
L 112.207792 80.472621 
L 116.883117 80.322611 
L 121.558442 80.109196 
L 126.233766 80.314019 
L 130.909091 80.402428 
L 135.584416 80.378731 
L 140.25974 80.410843 
L 144.935065 80.243392 
L 149.61039 80.416885 
L 154.285714 80.68783 
L 158.961039 80.654045 
L 163.636364 80.445128 
L 168.311688 80.272974 
L 172.987013 80.217917 
L 177.662338 79.998451 
L 182.337662 79.786089 
L 187.012987 79.688688 
L 191.688312 79.452028 
L 196.363636 79.16018 
L 201.038961 78.718028 
L 205.714286 78.437603 
L 210.38961 78.103238 
L 215.064935 77.650767 
L 219.74026 77.160263 
L 224.415584 77.338226 
L 229.090909 77.186451 
L 233.766234 77.165701 
L 238.441558 77.016155 
L 243.116883 76.779038 
L 247.792208 76.685448 
L 252.467532 76.847777 
L 257.142857 77.127426 
L 261.818182 77.055338 
L 266.493506 76.644451 
L 271.168831 76.172612 
L 275.844156 76.063682 
L 280.519481 75.869739 
L 285.194805 75.738516 
L 289.87013 76.04849 
L 294.545455 76.059558 
" clip-path="url(#pa4d8fba307)" style="fill: none; stroke: #ff0000; stroke-opacity: 0.2; stroke-width: 1.5; stroke-linecap: square"/>
   </g>
   <g id="line2d_63">
    <path d="M 65.454545 76.860687 
L 70.12987 76.860687 
L 74.805195 76.690535 
L 79.480519 76.137577 
L 84.155844 75.444863 
L 88.831169 74.976341 
L 93.506494 75.245902 
L 98.181818 75.915025 
L 102.857143 76.557927 
L 107.532468 76.925258 
L 112.207792 77.165179 
L 116.883117 77.452586 
L 121.558442 77.522937 
L 126.233766 77.347643 
L 130.909091 76.868798 
L 135.584416 76.322741 
L 140.25974 75.854159 
L 144.935065 75.34676 
L 149.61039 74.635396 
L 154.285714 73.938803 
L 158.961039 73.589561 
L 163.636364 73.251474 
L 168.311688 72.864085 
L 172.987013 72.433562 
L 177.662338 71.904946 
L 182.337662 71.405442 
L 187.012987 70.861874 
L 191.688312 70.436948 
L 196.363636 69.918895 
L 201.038961 69.787218 
L 205.714286 70.096558 
L 210.38961 70.280806 
L 215.064935 70.385021 
L 219.74026 70.552359 
L 224.415584 70.808404 
L 229.090909 71.213173 
L 233.766234 71.581181 
L 238.441558 71.887539 
L 243.116883 72.091264 
L 247.792208 72.284549 
L 252.467532 72.682737 
L 257.142857 72.84724 
L 261.818182 73.000524 
L 266.493506 73.47168 
L 271.168831 73.72601 
L 275.844156 73.839375 
L 280.519481 73.891795 
L 285.194805 73.907315 
L 289.87013 73.996726 
L 294.545455 74.028276 
" clip-path="url(#pa4d8fba307)" style="fill: none; stroke: #ff0000; stroke-opacity: 0.2; stroke-width: 1.5; stroke-linecap: square"/>
   </g>
   <g id="line2d_64">
    <path d="M 65.454545 83.35006 
L 70.12987 83.35006 
L 74.805195 83.671096 
L 79.480519 83.901291 
L 84.155844 84.021321 
L 88.831169 84.0973 
L 93.506494 83.607611 
L 98.181818 82.993978 
L 102.857143 83.25245 
L 107.532468 83.476902 
L 112.207792 83.679805 
L 116.883117 83.411036 
L 121.558442 83.28263 
L 126.233766 82.647881 
L 130.909091 82.397066 
L 135.584416 82.019548 
L 140.25974 81.172177 
L 144.935065 80.374779 
L 149.61039 79.539494 
L 154.285714 78.860842 
L 158.961039 78.062772 
L 163.636364 78.145795 
L 168.311688 77.744266 
L 172.987013 77.510017 
L 177.662338 77.77842 
L 182.337662 78.192065 
L 187.012987 79.069792 
L 191.688312 79.416643 
L 196.363636 79.205944 
L 201.038961 78.47028 
L 205.714286 77.939207 
L 210.38961 76.673468 
L 215.064935 76.120524 
L 219.74026 75.946447 
L 224.415584 75.799804 
L 229.090909 75.943896 
L 233.766234 76.070444 
L 238.441558 76.099115 
L 243.116883 75.801058 
L 247.792208 75.832711 
L 252.467532 75.554366 
L 257.142857 75.679556 
L 261.818182 76.172639 
L 266.493506 76.624365 
L 271.168831 76.827637 
L 275.844156 76.990217 
L 280.519481 77.314982 
L 285.194805 77.611783 
L 289.87013 77.900748 
L 294.545455 78.21849 
" clip-path="url(#pa4d8fba307)" style="fill: none; stroke: #ff0000; stroke-opacity: 0.2; stroke-width: 1.5; stroke-linecap: square"/>
   </g>
   <g id="line2d_65">
    <path d="M 65.454545 48.526102 
L 70.12987 48.526102 
L 74.805195 48.526102 
L 79.480519 48.526102 
L 84.155844 48.526102 
L 88.831169 48.260321 
L 93.506494 49.791915 
L 98.181818 50.924025 
L 102.857143 50.93318 
L 107.532468 51.600875 
L 112.207792 54.404689 
L 116.883117 57.876502 
L 121.558442 59.498054 
L 126.233766 59.655225 
L 130.909091 61.142305 
L 135.584416 62.405742 
L 140.25974 63.785482 
L 144.935065 65.133297 
L 149.61039 67.267152 
L 154.285714 68.636333 
L 158.961039 69.762181 
L 163.636364 71.492048 
L 168.311688 72.77728 
L 172.987013 74.024302 
L 177.662338 74.219276 
L 182.337662 74.389308 
L 187.012987 74.652305 
L 191.688312 75.588718 
L 196.363636 76.466626 
L 201.038961 76.793305 
L 205.714286 77.140598 
L 210.38961 77.635265 
L 215.064935 77.787457 
L 219.74026 77.694702 
L 224.415584 77.536082 
L 229.090909 78.098333 
L 233.766234 78.273668 
L 238.441558 78.768404 
L 243.116883 79.035637 
L 247.792208 78.866909 
L 252.467532 79.278776 
L 257.142857 79.365022 
L 261.818182 79.49658 
L 266.493506 79.70353 
L 271.168831 80.030811 
L 275.844156 80.810639 
L 280.519481 81.465084 
L 285.194805 82.194373 
L 289.87013 82.615061 
L 294.545455 82.933112 
" clip-path="url(#pa4d8fba307)" style="fill: none; stroke: #ff0000; stroke-opacity: 0.2; stroke-width: 1.5; stroke-linecap: square"/>
   </g>
   <g id="line2d_66">
    <path d="M 65.454545 88.910117 
L 70.12987 88.910117 
L 74.805195 89.100293 
L 79.480519 89.387666 
L 84.155844 89.783681 
L 88.831169 89.920638 
L 93.506494 90.082716 
L 98.181818 90.154492 
L 102.857143 90.168761 
L 107.532468 89.913972 
L 112.207792 89.589568 
L 116.883117 89.194875 
L 121.558442 88.688947 
L 126.233766 88.16327 
L 130.909091 87.683688 
L 135.584416 87.284833 
L 140.25974 86.8163 
L 144.935065 86.388777 
L 149.61039 86.101297 
L 154.285714 85.81 
L 158.961039 85.456336 
L 163.636364 85.02003 
L 168.311688 84.586187 
L 172.987013 84.225401 
L 177.662338 83.820524 
L 182.337662 83.727877 
L 187.012987 83.835913 
L 191.688312 84.151737 
L 196.363636 84.379011 
L 201.038961 84.442281 
L 205.714286 84.579654 
L 210.38961 84.57144 
L 215.064935 84.569712 
L 219.74026 84.547584 
L 224.415584 84.461317 
L 229.090909 84.441513 
L 233.766234 84.241401 
L 238.441558 84.249022 
L 243.116883 84.387024 
L 247.792208 84.473596 
L 252.467532 84.68967 
L 257.142857 84.96737 
L 261.818182 85.110849 
L 266.493506 85.159555 
L 271.168831 85.127377 
L 275.844156 85.120845 
L 280.519481 84.980025 
L 285.194805 85.133752 
L 289.87013 85.290966 
L 294.545455 85.322035 
" clip-path="url(#pa4d8fba307)" style="fill: none; stroke: #ff0000; stroke-opacity: 0.2; stroke-width: 1.5; stroke-linecap: square"/>
   </g>
   <g id="line2d_67">
    <path d="M 65.454545 77.366823 
L 70.12987 77.350645 
L 74.805195 76.701854 
L 79.480519 76.298162 
L 84.155844 76.053926 
L 88.831169 75.991992 
L 93.506494 76.191609 
L 98.181818 76.209338 
L 102.857143 76.099343 
L 107.532468 75.956642 
L 112.207792 76.273775 
L 116.883117 76.606379 
L 121.558442 76.908201 
L 126.233766 76.755517 
L 130.909091 77.038532 
L 135.584416 77.454596 
L 140.25974 77.714971 
L 144.935065 78.101532 
L 149.61039 78.613162 
L 154.285714 79.066796 
L 158.961039 79.615857 
L 163.636364 79.839923 
L 168.311688 80.042656 
L 172.987013 79.997463 
L 177.662338 79.865455 
L 182.337662 79.832672 
L 187.012987 79.762267 
L 191.688312 79.762066 
L 196.363636 79.809524 
L 201.038961 79.900361 
L 205.714286 80.077655 
L 210.38961 80.27686 
L 215.064935 80.132525 
L 219.74026 79.878528 
L 224.415584 79.77059 
L 229.090909 79.830912 
L 233.766234 79.837848 
L 238.441558 79.863877 
L 243.116883 79.873967 
L 247.792208 79.744436 
L 252.467532 79.572223 
L 257.142857 79.65453 
L 261.818182 79.819522 
L 266.493506 79.902563 
L 271.168831 79.873941 
L 275.844156 79.831391 
L 280.519481 80.088747 
L 285.194805 80.189486 
L 289.87013 80.321948 
L 294.545455 80.357948 
" clip-path="url(#pa4d8fba307)" style="fill: none; stroke: #ff0000; stroke-opacity: 0.2; stroke-width: 1.5; stroke-linecap: square"/>
   </g>
   <g id="line2d_68">
    <path d="M 65.454545 94.787146 
L 70.12987 94.806335 
L 74.805195 94.925678 
L 79.480519 94.991167 
L 84.155844 94.835218 
L 88.831169 94.549716 
L 93.506494 94.1671 
L 98.181818 93.791415 
L 102.857143 93.581772 
L 107.532468 93.321095 
L 112.207792 92.823699 
L 116.883117 92.059474 
L 121.558442 91.45402 
L 126.233766 90.977168 
L 130.909091 90.661829 
L 135.584416 90.519944 
L 140.25974 90.506079 
L 144.935065 90.675271 
L 149.61039 91.022565 
L 154.285714 91.150795 
L 158.961039 91.317493 
L 163.636364 91.36469 
L 168.311688 91.270142 
L 172.987013 91.153378 
L 177.662338 91.06403 
L 182.337662 91.07495 
L 187.012987 91.121229 
L 191.688312 91.356268 
L 196.363636 91.487934 
L 201.038961 91.602195 
L 205.714286 91.657005 
L 210.38961 91.519098 
L 215.064935 91.383276 
L 219.74026 91.229163 
L 224.415584 91.045277 
L 229.090909 91.042457 
L 233.766234 91.05808 
L 238.441558 91.12462 
L 243.116883 91.28108 
L 247.792208 91.424604 
L 252.467532 91.688407 
L 257.142857 91.939497 
L 261.818182 92.21819 
L 266.493506 92.473438 
L 271.168831 92.616893 
L 275.844156 92.714349 
L 280.519481 92.827134 
L 285.194805 92.904472 
L 289.87013 92.966927 
L 294.545455 92.979718 
" clip-path="url(#pa4d8fba307)" style="fill: none; stroke: #ff0000; stroke-opacity: 0.2; stroke-width: 1.5; stroke-linecap: square"/>
   </g>
   <g id="line2d_69">
    <path d="M 65.454545 79.669416 
L 70.12987 79.46761 
L 74.805195 79.359988 
L 79.480519 79.108425 
L 84.155844 78.915121 
L 88.831169 79.193328 
L 93.506494 80.936184 
L 98.181818 82.48972 
L 102.857143 83.511761 
L 107.532468 84.53618 
L 112.207792 85.572608 
L 116.883117 86.212514 
L 121.558442 85.970602 
L 126.233766 85.336834 
L 130.909091 84.664537 
L 135.584416 84.082999 
L 140.25974 83.592209 
L 144.935065 82.374114 
L 149.61039 80.918172 
L 154.285714 79.849166 
L 158.961039 78.458862 
L 163.636364 76.877087 
L 168.311688 75.376603 
L 172.987013 74.43819 
L 177.662338 73.398458 
L 182.337662 73.074877 
L 187.012987 73.063513 
L 191.688312 73.478767 
L 196.363636 74.592518 
L 201.038961 75.73885 
L 205.714286 76.332611 
L 210.38961 77.121043 
L 215.064935 77.887171 
L 219.74026 78.697319 
L 224.415584 78.881473 
L 229.090909 78.760862 
L 233.766234 78.618677 
L 238.441558 78.32442 
L 243.116883 77.769823 
L 247.792208 77.200852 
L 252.467532 76.414999 
L 257.142857 75.620905 
L 261.818182 74.798523 
L 266.493506 75.041987 
L 271.168831 75.617597 
L 275.844156 76.914815 
L 280.519481 78.238734 
L 285.194805 79.140016 
L 289.87013 79.742843 
L 294.545455 80.133925 
" clip-path="url(#pa4d8fba307)" style="fill: none; stroke: #ff0000; stroke-opacity: 0.2; stroke-width: 1.5; stroke-linecap: square"/>
   </g>
   <g id="line2d_70">
    <path d="M 65.454545 75.762437 
L 70.12987 75.465898 
L 74.805195 76.432455 
L 79.480519 76.40567 
L 84.155844 76.699698 
L 88.831169 76.957486 
L 93.506494 76.908377 
L 98.181818 77.236973 
L 102.857143 77.559467 
L 107.532468 77.581118 
L 112.207792 77.342377 
L 116.883117 77.429407 
L 121.558442 77.204752 
L 126.233766 76.755472 
L 130.909091 76.06295 
L 135.584416 75.452668 
L 140.25974 75.107378 
L 144.935065 74.875837 
L 149.61039 74.643164 
L 154.285714 74.123591 
L 158.961039 73.897282 
L 163.636364 74.001998 
L 168.311688 73.660964 
L 172.987013 73.192299 
L 177.662338 72.722055 
L 182.337662 72.345834 
L 187.012987 72.232131 
L 191.688312 72.027709 
L 196.363636 71.332977 
L 201.038961 70.171268 
L 205.714286 68.865617 
L 210.38961 68.152322 
L 215.064935 67.638723 
L 219.74026 66.87787 
L 224.415584 66.384212 
L 229.090909 66.531872 
L 233.766234 67.200275 
L 238.441558 67.797777 
L 243.116883 68.090229 
L 247.792208 68.111514 
L 252.467532 67.87021 
L 257.142857 67.270016 
L 261.818182 66.488771 
L 266.493506 66.956312 
L 271.168831 67.281036 
L 275.844156 67.442142 
L 280.519481 67.876711 
L 285.194805 67.962087 
L 289.87013 68.421938 
L 294.545455 68.492898 
" clip-path="url(#pa4d8fba307)" style="fill: none; stroke: #ff0000; stroke-opacity: 0.2; stroke-width: 1.5; stroke-linecap: square"/>
   </g>
   <g id="patch_10">
    <path d="M 46 129.6 
L 46 21.6 
" style="fill: none; stroke: #000000; stroke-width: 0.8; stroke-linejoin: miter; stroke-linecap: square"/>
   </g>
   <g id="patch_11">
    <path d="M 54 137.6 
L 306 137.6 
" style="fill: none; stroke: #000000; stroke-width: 0.8; stroke-linejoin: miter; stroke-linecap: square"/>
   </g>
  </g>
 </g>
 <defs>
  <clipPath id="pb5826bb6d6">
   <rect x="54" y="280.8" width="252" height="108"/>
  </clipPath>
  <clipPath id="p3025f8b148">
   <rect x="54" y="151.2" width="252" height="108"/>
  </clipPath>
  <clipPath id="pa4d8fba307">
   <rect x="54" y="21.6" width="252" height="108"/>
  </clipPath>
 </defs>
</svg>
