<?xml version="1.0" encoding="utf-8" standalone="no"?>
<!DOCTYPE svg PUBLIC "-//W3C//DTD SVG 1.1//EN"
  "http://www.w3.org/Graphics/SVG/1.1/DTD/svg11.dtd">
<svg xmlns:xlink="http://www.w3.org/1999/xlink" width="360pt" height="432pt" viewBox="0 0 360 432" xmlns="http://www.w3.org/2000/svg" version="1.1">
 <metadata>
  <rdf:RDF xmlns:dc="http://purl.org/dc/elements/1.1/" xmlns:cc="http://creativecommons.org/ns#" xmlns:rdf="http://www.w3.org/1999/02/22-rdf-syntax-ns#">
   <cc:Work>
    <dc:type rdf:resource="http://purl.org/dc/dcmitype/StillImage"/>
    <dc:date>2024-09-16T16:26:16.475055</dc:date>
    <dc:format>image/svg+xml</dc:format>
    <dc:creator>
     <cc:Agent>
      <dc:title>Matplotlib v3.8.0, https://matplotlib.org/</dc:title>
     </cc:Agent>
    </dc:creator>
   </cc:Work>
  </rdf:RDF>
 </metadata>
 <defs>
  <style type="text/css">*{stroke-linejoin: round; stroke-linecap: butt}</style>
 </defs>
 <g id="figure_1">
  <g id="patch_1">
   <path d="M 0 432 
L 360 432 
L 360 0 
L 0 0 
z
" style="fill: #ffffff"/>
  </g>
  <g id="axes_1">
   <g id="patch_2">
    <path d="M 54 388.8 
L 306 388.8 
L 306 280.8 
L 54 280.8 
z
" style="fill: #ffffff"/>
   </g>
   <g id="PolyCollection_1">
    <defs>
     <path id="m51079e7f00" d="M 65.454545 -87.214288 
L 65.454545 -84.923697 
L 70.12987 -84.923697 
L 74.805195 -84.946068 
L 79.480519 -85.275485 
L 84.155844 -85.557471 
L 88.831169 -85.474223 
L 93.506494 -85.455598 
L 98.181818 -85.479793 
L 102.857143 -85.628873 
L 107.532468 -85.790696 
L 112.207792 -85.785359 
L 116.883117 -85.8774 
L 121.558442 -86.076271 
L 126.233766 -86.298667 
L 130.909091 -86.4395 
L 135.584416 -86.576305 
L 140.25974 -86.765371 
L 144.935065 -86.90541 
L 149.61039 -87.067751 
L 154.285714 -87.102577 
L 158.961039 -87.173126 
L 163.636364 -87.27186 
L 168.311688 -87.324936 
L 172.987013 -87.391464 
L 177.662338 -87.467501 
L 182.337662 -87.596606 
L 187.012987 -87.775914 
L 191.688312 -87.930565 
L 196.363636 -88.08987 
L 201.038961 -88.122026 
L 205.714286 -88.152216 
L 210.38961 -88.179571 
L 215.064935 -88.127228 
L 219.74026 -88.093444 
L 224.415584 -88.061734 
L 229.090909 -88.009249 
L 233.766234 -87.909974 
L 238.441558 -87.755666 
L 243.116883 -87.71479 
L 247.792208 -87.673522 
L 252.467532 -87.615613 
L 257.142857 -87.506013 
L 261.818182 -87.42692 
L 266.493506 -87.267587 
L 271.168831 -87.130893 
L 275.844156 -87.065127 
L 280.519481 -87.079653 
L 285.194805 -87.138863 
L 289.87013 -87.192404 
L 294.545455 -87.243542 
L 294.545455 -91.111642 
L 294.545455 -91.111642 
L 289.87013 -91.088772 
L 285.194805 -91.127187 
L 280.519481 -91.12002 
L 275.844156 -91.138815 
L 271.168831 -91.356011 
L 266.493506 -91.674777 
L 261.818182 -91.988958 
L 257.142857 -92.107501 
L 252.467532 -92.319268 
L 247.792208 -92.284299 
L 243.116883 -92.206872 
L 238.441558 -92.13039 
L 233.766234 -91.968764 
L 229.090909 -91.73752 
L 224.415584 -91.531929 
L 219.74026 -91.335069 
L 215.064935 -91.102767 
L 210.38961 -90.96812 
L 205.714286 -90.838672 
L 201.038961 -90.840751 
L 196.363636 -90.872993 
L 191.688312 -90.777984 
L 187.012987 -90.596135 
L 182.337662 -90.471512 
L 177.662338 -90.448897 
L 172.987013 -90.387198 
L 168.311688 -90.266272 
L 163.636364 -90.09099 
L 158.961039 -89.862346 
L 154.285714 -89.733898 
L 149.61039 -89.619623 
L 144.935065 -89.433853 
L 140.25974 -89.25048 
L 135.584416 -88.990828 
L 130.909091 -88.873134 
L 126.233766 -88.66899 
L 121.558442 -88.239071 
L 116.883117 -87.874641 
L 112.207792 -87.735361 
L 107.532468 -87.697454 
L 102.857143 -87.544532 
L 98.181818 -87.45006 
L 93.506494 -87.435277 
L 88.831169 -87.367075 
L 84.155844 -87.413862 
L 79.480519 -87.342863 
L 74.805195 -87.239603 
L 70.12987 -87.214288 
L 65.454545 -87.214288 
z
"/>
    </defs>
    <g clip-path="url(#pb97733b627)">
     <use xlink:href="#m51079e7f00" x="0" y="432" style="fill: #ffa500; fill-opacity: 0.4"/>
    </g>
   </g>
   <g id="matplotlib.axis_1">
    <g id="xtick_1">
     <g id="line2d_1">
      <defs>
       <path id="m4284192eec" d="M 0 0 
L 0 3.5 
" style="stroke: #000000; stroke-width: 0.8"/>
      </defs>
      <g>
       <use xlink:href="#m4284192eec" x="65.454545" y="396.8" style="stroke: #000000; stroke-width: 0.8"/>
      </g>
     </g>
     <g id="text_1">
      <!-- 0 -->
      <g transform="translate(62.273295 411.398438) scale(0.1 -0.1)">
       <defs>
        <path id="DejaVuSans-30" d="M 2034 4250 
Q 1547 4250 1301 3770 
Q 1056 3291 1056 2328 
Q 1056 1369 1301 889 
Q 1547 409 2034 409 
Q 2525 409 2770 889 
Q 3016 1369 3016 2328 
Q 3016 3291 2770 3770 
Q 2525 4250 2034 4250 
z
M 2034 4750 
Q 2819 4750 3233 4129 
Q 3647 3509 3647 2328 
Q 3647 1150 3233 529 
Q 2819 -91 2034 -91 
Q 1250 -91 836 529 
Q 422 1150 422 2328 
Q 422 3509 836 4129 
Q 1250 4750 2034 4750 
z
" transform="scale(0.015625)"/>
       </defs>
       <use xlink:href="#DejaVuSans-30"/>
      </g>
     </g>
    </g>
    <g id="xtick_2">
     <g id="line2d_2">
      <g>
       <use xlink:href="#m4284192eec" x="122.727273" y="396.8" style="stroke: #000000; stroke-width: 0.8"/>
      </g>
     </g>
     <g id="text_2">
      <!-- 1 -->
      <g transform="translate(119.546023 411.398438) scale(0.1 -0.1)">
       <defs>
        <path id="DejaVuSans-31" d="M 794 531 
L 1825 531 
L 1825 4091 
L 703 3866 
L 703 4441 
L 1819 4666 
L 2450 4666 
L 2450 531 
L 3481 531 
L 3481 0 
L 794 0 
L 794 531 
z
" transform="scale(0.015625)"/>
       </defs>
       <use xlink:href="#DejaVuSans-31"/>
      </g>
     </g>
    </g>
    <g id="xtick_3">
     <g id="line2d_3">
      <g>
       <use xlink:href="#m4284192eec" x="180" y="396.8" style="stroke: #000000; stroke-width: 0.8"/>
      </g>
     </g>
     <g id="text_3">
      <!-- 2 -->
      <g transform="translate(176.81875 411.398438) scale(0.1 -0.1)">
       <defs>
        <path id="DejaVuSans-32" d="M 1228 531 
L 3431 531 
L 3431 0 
L 469 0 
L 469 531 
Q 828 903 1448 1529 
Q 2069 2156 2228 2338 
Q 2531 2678 2651 2914 
Q 2772 3150 2772 3378 
Q 2772 3750 2511 3984 
Q 2250 4219 1831 4219 
Q 1534 4219 1204 4116 
Q 875 4013 500 3803 
L 500 4441 
Q 881 4594 1212 4672 
Q 1544 4750 1819 4750 
Q 2544 4750 2975 4387 
Q 3406 4025 3406 3419 
Q 3406 3131 3298 2873 
Q 3191 2616 2906 2266 
Q 2828 2175 2409 1742 
Q 1991 1309 1228 531 
z
" transform="scale(0.015625)"/>
       </defs>
       <use xlink:href="#DejaVuSans-32"/>
      </g>
     </g>
    </g>
    <g id="xtick_4">
     <g id="line2d_4">
      <g>
       <use xlink:href="#m4284192eec" x="237.272727" y="396.8" style="stroke: #000000; stroke-width: 0.8"/>
      </g>
     </g>
     <g id="text_4">
      <!-- 3 -->
      <g transform="translate(234.091477 411.398438) scale(0.1 -0.1)">
       <defs>
        <path id="DejaVuSans-33" d="M 2597 2516 
Q 3050 2419 3304 2112 
Q 3559 1806 3559 1356 
Q 3559 666 3084 287 
Q 2609 -91 1734 -91 
Q 1441 -91 1130 -33 
Q 819 25 488 141 
L 488 750 
Q 750 597 1062 519 
Q 1375 441 1716 441 
Q 2309 441 2620 675 
Q 2931 909 2931 1356 
Q 2931 1769 2642 2001 
Q 2353 2234 1838 2234 
L 1294 2234 
L 1294 2753 
L 1863 2753 
Q 2328 2753 2575 2939 
Q 2822 3125 2822 3475 
Q 2822 3834 2567 4026 
Q 2313 4219 1838 4219 
Q 1578 4219 1281 4162 
Q 984 4106 628 3988 
L 628 4550 
Q 988 4650 1302 4700 
Q 1616 4750 1894 4750 
Q 2613 4750 3031 4423 
Q 3450 4097 3450 3541 
Q 3450 3153 3228 2886 
Q 3006 2619 2597 2516 
z
" transform="scale(0.015625)"/>
       </defs>
       <use xlink:href="#DejaVuSans-33"/>
      </g>
     </g>
    </g>
    <g id="xtick_5">
     <g id="line2d_5">
      <g>
       <use xlink:href="#m4284192eec" x="294.545455" y="396.8" style="stroke: #000000; stroke-width: 0.8"/>
      </g>
     </g>
     <g id="text_5">
      <!-- 4 -->
      <g transform="translate(291.364205 411.398438) scale(0.1 -0.1)">
       <defs>
        <path id="DejaVuSans-34" d="M 2419 4116 
L 825 1625 
L 2419 1625 
L 2419 4116 
z
M 2253 4666 
L 3047 4666 
L 3047 1625 
L 3713 1625 
L 3713 1100 
L 3047 1100 
L 3047 0 
L 2419 0 
L 2419 1100 
L 313 1100 
L 313 1709 
L 2253 4666 
z
" transform="scale(0.015625)"/>
       </defs>
       <use xlink:href="#DejaVuSans-34"/>
      </g>
     </g>
    </g>
    <g id="text_6">
     <!-- relative distance from ROI center ($\sigma$) -->
     <g transform="translate(69.72 426.59625) scale(0.12 -0.12)">
      <defs>
       <path id="DejaVuSans-72" d="M 2631 2963 
Q 2534 3019 2420 3045 
Q 2306 3072 2169 3072 
Q 1681 3072 1420 2755 
Q 1159 2438 1159 1844 
L 1159 0 
L 581 0 
L 581 3500 
L 1159 3500 
L 1159 2956 
Q 1341 3275 1631 3429 
Q 1922 3584 2338 3584 
Q 2397 3584 2469 3576 
Q 2541 3569 2628 3553 
L 2631 2963 
z
" transform="scale(0.015625)"/>
       <path id="DejaVuSans-65" d="M 3597 1894 
L 3597 1613 
L 953 1613 
Q 991 1019 1311 708 
Q 1631 397 2203 397 
Q 2534 397 2845 478 
Q 3156 559 3463 722 
L 3463 178 
Q 3153 47 2828 -22 
Q 2503 -91 2169 -91 
Q 1331 -91 842 396 
Q 353 884 353 1716 
Q 353 2575 817 3079 
Q 1281 3584 2069 3584 
Q 2775 3584 3186 3129 
Q 3597 2675 3597 1894 
z
M 3022 2063 
Q 3016 2534 2758 2815 
Q 2500 3097 2075 3097 
Q 1594 3097 1305 2825 
Q 1016 2553 972 2059 
L 3022 2063 
z
" transform="scale(0.015625)"/>
       <path id="DejaVuSans-6c" d="M 603 4863 
L 1178 4863 
L 1178 0 
L 603 0 
L 603 4863 
z
" transform="scale(0.015625)"/>
       <path id="DejaVuSans-61" d="M 2194 1759 
Q 1497 1759 1228 1600 
Q 959 1441 959 1056 
Q 959 750 1161 570 
Q 1363 391 1709 391 
Q 2188 391 2477 730 
Q 2766 1069 2766 1631 
L 2766 1759 
L 2194 1759 
z
M 3341 1997 
L 3341 0 
L 2766 0 
L 2766 531 
Q 2569 213 2275 61 
Q 1981 -91 1556 -91 
Q 1019 -91 701 211 
Q 384 513 384 1019 
Q 384 1609 779 1909 
Q 1175 2209 1959 2209 
L 2766 2209 
L 2766 2266 
Q 2766 2663 2505 2880 
Q 2244 3097 1772 3097 
Q 1472 3097 1187 3025 
Q 903 2953 641 2809 
L 641 3341 
Q 956 3463 1253 3523 
Q 1550 3584 1831 3584 
Q 2591 3584 2966 3190 
Q 3341 2797 3341 1997 
z
" transform="scale(0.015625)"/>
       <path id="DejaVuSans-74" d="M 1172 4494 
L 1172 3500 
L 2356 3500 
L 2356 3053 
L 1172 3053 
L 1172 1153 
Q 1172 725 1289 603 
Q 1406 481 1766 481 
L 2356 481 
L 2356 0 
L 1766 0 
Q 1100 0 847 248 
Q 594 497 594 1153 
L 594 3053 
L 172 3053 
L 172 3500 
L 594 3500 
L 594 4494 
L 1172 4494 
z
" transform="scale(0.015625)"/>
       <path id="DejaVuSans-69" d="M 603 3500 
L 1178 3500 
L 1178 0 
L 603 0 
L 603 3500 
z
M 603 4863 
L 1178 4863 
L 1178 4134 
L 603 4134 
L 603 4863 
z
" transform="scale(0.015625)"/>
       <path id="DejaVuSans-76" d="M 191 3500 
L 800 3500 
L 1894 563 
L 2988 3500 
L 3597 3500 
L 2284 0 
L 1503 0 
L 191 3500 
z
" transform="scale(0.015625)"/>
       <path id="DejaVuSans-20" transform="scale(0.015625)"/>
       <path id="DejaVuSans-64" d="M 2906 2969 
L 2906 4863 
L 3481 4863 
L 3481 0 
L 2906 0 
L 2906 525 
Q 2725 213 2448 61 
Q 2172 -91 1784 -91 
Q 1150 -91 751 415 
Q 353 922 353 1747 
Q 353 2572 751 3078 
Q 1150 3584 1784 3584 
Q 2172 3584 2448 3432 
Q 2725 3281 2906 2969 
z
M 947 1747 
Q 947 1113 1208 752 
Q 1469 391 1925 391 
Q 2381 391 2643 752 
Q 2906 1113 2906 1747 
Q 2906 2381 2643 2742 
Q 2381 3103 1925 3103 
Q 1469 3103 1208 2742 
Q 947 2381 947 1747 
z
" transform="scale(0.015625)"/>
       <path id="DejaVuSans-73" d="M 2834 3397 
L 2834 2853 
Q 2591 2978 2328 3040 
Q 2066 3103 1784 3103 
Q 1356 3103 1142 2972 
Q 928 2841 928 2578 
Q 928 2378 1081 2264 
Q 1234 2150 1697 2047 
L 1894 2003 
Q 2506 1872 2764 1633 
Q 3022 1394 3022 966 
Q 3022 478 2636 193 
Q 2250 -91 1575 -91 
Q 1294 -91 989 -36 
Q 684 19 347 128 
L 347 722 
Q 666 556 975 473 
Q 1284 391 1588 391 
Q 1994 391 2212 530 
Q 2431 669 2431 922 
Q 2431 1156 2273 1281 
Q 2116 1406 1581 1522 
L 1381 1569 
Q 847 1681 609 1914 
Q 372 2147 372 2553 
Q 372 3047 722 3315 
Q 1072 3584 1716 3584 
Q 2034 3584 2315 3537 
Q 2597 3491 2834 3397 
z
" transform="scale(0.015625)"/>
       <path id="DejaVuSans-6e" d="M 3513 2113 
L 3513 0 
L 2938 0 
L 2938 2094 
Q 2938 2591 2744 2837 
Q 2550 3084 2163 3084 
Q 1697 3084 1428 2787 
Q 1159 2491 1159 1978 
L 1159 0 
L 581 0 
L 581 3500 
L 1159 3500 
L 1159 2956 
Q 1366 3272 1645 3428 
Q 1925 3584 2291 3584 
Q 2894 3584 3203 3211 
Q 3513 2838 3513 2113 
z
" transform="scale(0.015625)"/>
       <path id="DejaVuSans-63" d="M 3122 3366 
L 3122 2828 
Q 2878 2963 2633 3030 
Q 2388 3097 2138 3097 
Q 1578 3097 1268 2742 
Q 959 2388 959 1747 
Q 959 1106 1268 751 
Q 1578 397 2138 397 
Q 2388 397 2633 464 
Q 2878 531 3122 666 
L 3122 134 
Q 2881 22 2623 -34 
Q 2366 -91 2075 -91 
Q 1284 -91 818 406 
Q 353 903 353 1747 
Q 353 2603 823 3093 
Q 1294 3584 2113 3584 
Q 2378 3584 2631 3529 
Q 2884 3475 3122 3366 
z
" transform="scale(0.015625)"/>
       <path id="DejaVuSans-66" d="M 2375 4863 
L 2375 4384 
L 1825 4384 
Q 1516 4384 1395 4259 
Q 1275 4134 1275 3809 
L 1275 3500 
L 2222 3500 
L 2222 3053 
L 1275 3053 
L 1275 0 
L 697 0 
L 697 3053 
L 147 3053 
L 147 3500 
L 697 3500 
L 697 3744 
Q 697 4328 969 4595 
Q 1241 4863 1831 4863 
L 2375 4863 
z
" transform="scale(0.015625)"/>
       <path id="DejaVuSans-6f" d="M 1959 3097 
Q 1497 3097 1228 2736 
Q 959 2375 959 1747 
Q 959 1119 1226 758 
Q 1494 397 1959 397 
Q 2419 397 2687 759 
Q 2956 1122 2956 1747 
Q 2956 2369 2687 2733 
Q 2419 3097 1959 3097 
z
M 1959 3584 
Q 2709 3584 3137 3096 
Q 3566 2609 3566 1747 
Q 3566 888 3137 398 
Q 2709 -91 1959 -91 
Q 1206 -91 779 398 
Q 353 888 353 1747 
Q 353 2609 779 3096 
Q 1206 3584 1959 3584 
z
" transform="scale(0.015625)"/>
       <path id="DejaVuSans-6d" d="M 3328 2828 
Q 3544 3216 3844 3400 
Q 4144 3584 4550 3584 
Q 5097 3584 5394 3201 
Q 5691 2819 5691 2113 
L 5691 0 
L 5113 0 
L 5113 2094 
Q 5113 2597 4934 2840 
Q 4756 3084 4391 3084 
Q 3944 3084 3684 2787 
Q 3425 2491 3425 1978 
L 3425 0 
L 2847 0 
L 2847 2094 
Q 2847 2600 2669 2842 
Q 2491 3084 2119 3084 
Q 1678 3084 1418 2786 
Q 1159 2488 1159 1978 
L 1159 0 
L 581 0 
L 581 3500 
L 1159 3500 
L 1159 2956 
Q 1356 3278 1631 3431 
Q 1906 3584 2284 3584 
Q 2666 3584 2933 3390 
Q 3200 3197 3328 2828 
z
" transform="scale(0.015625)"/>
       <path id="DejaVuSans-52" d="M 2841 2188 
Q 3044 2119 3236 1894 
Q 3428 1669 3622 1275 
L 4263 0 
L 3584 0 
L 2988 1197 
Q 2756 1666 2539 1819 
Q 2322 1972 1947 1972 
L 1259 1972 
L 1259 0 
L 628 0 
L 628 4666 
L 2053 4666 
Q 2853 4666 3247 4331 
Q 3641 3997 3641 3322 
Q 3641 2881 3436 2590 
Q 3231 2300 2841 2188 
z
M 1259 4147 
L 1259 2491 
L 2053 2491 
Q 2509 2491 2742 2702 
Q 2975 2913 2975 3322 
Q 2975 3731 2742 3939 
Q 2509 4147 2053 4147 
L 1259 4147 
z
" transform="scale(0.015625)"/>
       <path id="DejaVuSans-4f" d="M 2522 4238 
Q 1834 4238 1429 3725 
Q 1025 3213 1025 2328 
Q 1025 1447 1429 934 
Q 1834 422 2522 422 
Q 3209 422 3611 934 
Q 4013 1447 4013 2328 
Q 4013 3213 3611 3725 
Q 3209 4238 2522 4238 
z
M 2522 4750 
Q 3503 4750 4090 4092 
Q 4678 3434 4678 2328 
Q 4678 1225 4090 567 
Q 3503 -91 2522 -91 
Q 1538 -91 948 565 
Q 359 1222 359 2328 
Q 359 3434 948 4092 
Q 1538 4750 2522 4750 
z
" transform="scale(0.015625)"/>
       <path id="DejaVuSans-49" d="M 628 4666 
L 1259 4666 
L 1259 0 
L 628 0 
L 628 4666 
z
" transform="scale(0.015625)"/>
       <path id="DejaVuSans-28" d="M 1984 4856 
Q 1566 4138 1362 3434 
Q 1159 2731 1159 2009 
Q 1159 1288 1364 580 
Q 1569 -128 1984 -844 
L 1484 -844 
Q 1016 -109 783 600 
Q 550 1309 550 2009 
Q 550 2706 781 3412 
Q 1013 4119 1484 4856 
L 1984 4856 
z
" transform="scale(0.015625)"/>
       <path id="DejaVuSans-Oblique-3c3" d="M 2219 3044 
Q 1744 3044 1422 2700 
Q 1081 2341 969 1747 
Q 844 1119 1044 756 
Q 1241 397 1706 397 
Q 2166 397 2503 759 
Q 2844 1122 2966 1747 
Q 3075 2319 2881 2700 
Q 2700 3044 2219 3044 
z
M 2309 3503 
L 4219 3500 
L 4106 2925 
L 3463 2925 
Q 3706 2438 3575 1747 
Q 3406 888 2884 400 
Q 2359 -91 1609 -91 
Q 856 -91 525 400 
Q 194 888 363 1747 
Q 528 2609 1050 3097 
Q 1484 3503 2309 3503 
z
" transform="scale(0.015625)"/>
       <path id="DejaVuSans-29" d="M 513 4856 
L 1013 4856 
Q 1481 4119 1714 3412 
Q 1947 2706 1947 2009 
Q 1947 1309 1714 600 
Q 1481 -109 1013 -844 
L 513 -844 
Q 928 -128 1133 580 
Q 1338 1288 1338 2009 
Q 1338 2731 1133 3434 
Q 928 4138 513 4856 
z
" transform="scale(0.015625)"/>
      </defs>
      <use xlink:href="#DejaVuSans-72" transform="translate(0 0.015625)"/>
      <use xlink:href="#DejaVuSans-65" transform="translate(41.113281 0.015625)"/>
      <use xlink:href="#DejaVuSans-6c" transform="translate(102.636719 0.015625)"/>
      <use xlink:href="#DejaVuSans-61" transform="translate(130.419922 0.015625)"/>
      <use xlink:href="#DejaVuSans-74" transform="translate(191.699219 0.015625)"/>
      <use xlink:href="#DejaVuSans-69" transform="translate(230.908203 0.015625)"/>
      <use xlink:href="#DejaVuSans-76" transform="translate(258.691406 0.015625)"/>
      <use xlink:href="#DejaVuSans-65" transform="translate(317.871094 0.015625)"/>
      <use xlink:href="#DejaVuSans-20" transform="translate(379.394531 0.015625)"/>
      <use xlink:href="#DejaVuSans-64" transform="translate(411.181641 0.015625)"/>
      <use xlink:href="#DejaVuSans-69" transform="translate(474.658203 0.015625)"/>
      <use xlink:href="#DejaVuSans-73" transform="translate(502.441406 0.015625)"/>
      <use xlink:href="#DejaVuSans-74" transform="translate(554.541016 0.015625)"/>
      <use xlink:href="#DejaVuSans-61" transform="translate(593.75 0.015625)"/>
      <use xlink:href="#DejaVuSans-6e" transform="translate(655.029297 0.015625)"/>
      <use xlink:href="#DejaVuSans-63" transform="translate(718.408203 0.015625)"/>
      <use xlink:href="#DejaVuSans-65" transform="translate(773.388672 0.015625)"/>
      <use xlink:href="#DejaVuSans-20" transform="translate(834.912109 0.015625)"/>
      <use xlink:href="#DejaVuSans-66" transform="translate(866.699219 0.015625)"/>
      <use xlink:href="#DejaVuSans-72" transform="translate(901.904297 0.015625)"/>
      <use xlink:href="#DejaVuSans-6f" transform="translate(943.017578 0.015625)"/>
      <use xlink:href="#DejaVuSans-6d" transform="translate(1004.199219 0.015625)"/>
      <use xlink:href="#DejaVuSans-20" transform="translate(1101.611328 0.015625)"/>
      <use xlink:href="#DejaVuSans-52" transform="translate(1133.398438 0.015625)"/>
      <use xlink:href="#DejaVuSans-4f" transform="translate(1202.880859 0.015625)"/>
      <use xlink:href="#DejaVuSans-49" transform="translate(1281.591797 0.015625)"/>
      <use xlink:href="#DejaVuSans-20" transform="translate(1311.083984 0.015625)"/>
      <use xlink:href="#DejaVuSans-63" transform="translate(1342.871094 0.015625)"/>
      <use xlink:href="#DejaVuSans-65" transform="translate(1397.851562 0.015625)"/>
      <use xlink:href="#DejaVuSans-6e" transform="translate(1459.375 0.015625)"/>
      <use xlink:href="#DejaVuSans-74" transform="translate(1522.753906 0.015625)"/>
      <use xlink:href="#DejaVuSans-65" transform="translate(1561.962891 0.015625)"/>
      <use xlink:href="#DejaVuSans-72" transform="translate(1623.486328 0.015625)"/>
      <use xlink:href="#DejaVuSans-20" transform="translate(1664.599609 0.015625)"/>
      <use xlink:href="#DejaVuSans-28" transform="translate(1696.386719 0.015625)"/>
      <use xlink:href="#DejaVuSans-Oblique-3c3" transform="translate(1735.400391 0.015625)"/>
      <use xlink:href="#DejaVuSans-29" transform="translate(1798.779297 0.015625)"/>
     </g>
    </g>
   </g>
   <g id="matplotlib.axis_2">
    <g id="ytick_1">
     <g id="line2d_6">
      <defs>
       <path id="m2b12a767e2" d="M 0 0 
L -3.5 0 
" style="stroke: #000000; stroke-width: 0.8"/>
      </defs>
      <g>
       <use xlink:href="#m2b12a767e2" x="46" y="388.8" style="stroke: #000000; stroke-width: 0.8"/>
      </g>
     </g>
     <g id="text_7">
      <!-- −5 -->
      <g transform="translate(24.257812 392.599219) scale(0.1 -0.1)">
       <defs>
        <path id="DejaVuSans-2212" d="M 678 2272 
L 4684 2272 
L 4684 1741 
L 678 1741 
L 678 2272 
z
" transform="scale(0.015625)"/>
        <path id="DejaVuSans-35" d="M 691 4666 
L 3169 4666 
L 3169 4134 
L 1269 4134 
L 1269 2991 
Q 1406 3038 1543 3061 
Q 1681 3084 1819 3084 
Q 2600 3084 3056 2656 
Q 3513 2228 3513 1497 
Q 3513 744 3044 326 
Q 2575 -91 1722 -91 
Q 1428 -91 1123 -41 
Q 819 9 494 109 
L 494 744 
Q 775 591 1075 516 
Q 1375 441 1709 441 
Q 2250 441 2565 725 
Q 2881 1009 2881 1497 
Q 2881 1984 2565 2268 
Q 2250 2553 1709 2553 
Q 1456 2553 1204 2497 
Q 953 2441 691 2322 
L 691 4666 
z
" transform="scale(0.015625)"/>
       </defs>
       <use xlink:href="#DejaVuSans-2212"/>
       <use xlink:href="#DejaVuSans-35" x="83.789062"/>
      </g>
     </g>
    </g>
    <g id="ytick_2">
     <g id="line2d_7">
      <g>
       <use xlink:href="#m2b12a767e2" x="46" y="360.378947" style="stroke: #000000; stroke-width: 0.8"/>
      </g>
     </g>
     <g id="text_8">
      <!-- 0 -->
      <g transform="translate(32.6375 364.178166) scale(0.1 -0.1)">
       <use xlink:href="#DejaVuSans-30"/>
      </g>
     </g>
    </g>
    <g id="ytick_3">
     <g id="line2d_8">
      <g>
       <use xlink:href="#m2b12a767e2" x="46" y="331.957895" style="stroke: #000000; stroke-width: 0.8"/>
      </g>
     </g>
     <g id="text_9">
      <!-- 5 -->
      <g transform="translate(32.6375 335.757113) scale(0.1 -0.1)">
       <use xlink:href="#DejaVuSans-35"/>
      </g>
     </g>
    </g>
    <g id="ytick_4">
     <g id="line2d_9">
      <g>
       <use xlink:href="#m2b12a767e2" x="46" y="303.536842" style="stroke: #000000; stroke-width: 0.8"/>
      </g>
     </g>
     <g id="text_10">
      <!-- 10 -->
      <g transform="translate(26.275 307.336061) scale(0.1 -0.1)">
       <use xlink:href="#DejaVuSans-31"/>
       <use xlink:href="#DejaVuSans-30" x="63.623047"/>
      </g>
     </g>
    </g>
    <g id="text_11">
     <!-- BOLD % change -->
     <g transform="translate(17.762187 383.094375) rotate(-90) scale(0.12 -0.12)">
      <defs>
       <path id="DejaVuSans-42" d="M 1259 2228 
L 1259 519 
L 2272 519 
Q 2781 519 3026 730 
Q 3272 941 3272 1375 
Q 3272 1813 3026 2020 
Q 2781 2228 2272 2228 
L 1259 2228 
z
M 1259 4147 
L 1259 2741 
L 2194 2741 
Q 2656 2741 2882 2914 
Q 3109 3088 3109 3444 
Q 3109 3797 2882 3972 
Q 2656 4147 2194 4147 
L 1259 4147 
z
M 628 4666 
L 2241 4666 
Q 2963 4666 3353 4366 
Q 3744 4066 3744 3513 
Q 3744 3084 3544 2831 
Q 3344 2578 2956 2516 
Q 3422 2416 3680 2098 
Q 3938 1781 3938 1306 
Q 3938 681 3513 340 
Q 3088 0 2303 0 
L 628 0 
L 628 4666 
z
" transform="scale(0.015625)"/>
       <path id="DejaVuSans-4c" d="M 628 4666 
L 1259 4666 
L 1259 531 
L 3531 531 
L 3531 0 
L 628 0 
L 628 4666 
z
" transform="scale(0.015625)"/>
       <path id="DejaVuSans-44" d="M 1259 4147 
L 1259 519 
L 2022 519 
Q 2988 519 3436 956 
Q 3884 1394 3884 2338 
Q 3884 3275 3436 3711 
Q 2988 4147 2022 4147 
L 1259 4147 
z
M 628 4666 
L 1925 4666 
Q 3281 4666 3915 4102 
Q 4550 3538 4550 2338 
Q 4550 1131 3912 565 
Q 3275 0 1925 0 
L 628 0 
L 628 4666 
z
" transform="scale(0.015625)"/>
       <path id="DejaVuSans-25" d="M 4653 2053 
Q 4381 2053 4226 1822 
Q 4072 1591 4072 1178 
Q 4072 772 4226 539 
Q 4381 306 4653 306 
Q 4919 306 5073 539 
Q 5228 772 5228 1178 
Q 5228 1588 5073 1820 
Q 4919 2053 4653 2053 
z
M 4653 2450 
Q 5147 2450 5437 2106 
Q 5728 1763 5728 1178 
Q 5728 594 5436 251 
Q 5144 -91 4653 -91 
Q 4153 -91 3862 251 
Q 3572 594 3572 1178 
Q 3572 1766 3864 2108 
Q 4156 2450 4653 2450 
z
M 1428 4353 
Q 1159 4353 1004 4120 
Q 850 3888 850 3481 
Q 850 3069 1003 2837 
Q 1156 2606 1428 2606 
Q 1700 2606 1854 2837 
Q 2009 3069 2009 3481 
Q 2009 3884 1853 4118 
Q 1697 4353 1428 4353 
z
M 4250 4750 
L 4750 4750 
L 1831 -91 
L 1331 -91 
L 4250 4750 
z
M 1428 4750 
Q 1922 4750 2215 4408 
Q 2509 4066 2509 3481 
Q 2509 2891 2217 2550 
Q 1925 2209 1428 2209 
Q 931 2209 642 2551 
Q 353 2894 353 3481 
Q 353 4063 643 4406 
Q 934 4750 1428 4750 
z
" transform="scale(0.015625)"/>
       <path id="DejaVuSans-68" d="M 3513 2113 
L 3513 0 
L 2938 0 
L 2938 2094 
Q 2938 2591 2744 2837 
Q 2550 3084 2163 3084 
Q 1697 3084 1428 2787 
Q 1159 2491 1159 1978 
L 1159 0 
L 581 0 
L 581 4863 
L 1159 4863 
L 1159 2956 
Q 1366 3272 1645 3428 
Q 1925 3584 2291 3584 
Q 2894 3584 3203 3211 
Q 3513 2838 3513 2113 
z
" transform="scale(0.015625)"/>
       <path id="DejaVuSans-67" d="M 2906 1791 
Q 2906 2416 2648 2759 
Q 2391 3103 1925 3103 
Q 1463 3103 1205 2759 
Q 947 2416 947 1791 
Q 947 1169 1205 825 
Q 1463 481 1925 481 
Q 2391 481 2648 825 
Q 2906 1169 2906 1791 
z
M 3481 434 
Q 3481 -459 3084 -895 
Q 2688 -1331 1869 -1331 
Q 1566 -1331 1297 -1286 
Q 1028 -1241 775 -1147 
L 775 -588 
Q 1028 -725 1275 -790 
Q 1522 -856 1778 -856 
Q 2344 -856 2625 -561 
Q 2906 -266 2906 331 
L 2906 616 
Q 2728 306 2450 153 
Q 2172 0 1784 0 
Q 1141 0 747 490 
Q 353 981 353 1791 
Q 353 2603 747 3093 
Q 1141 3584 1784 3584 
Q 2172 3584 2450 3431 
Q 2728 3278 2906 2969 
L 2906 3500 
L 3481 3500 
L 3481 434 
z
" transform="scale(0.015625)"/>
      </defs>
      <use xlink:href="#DejaVuSans-42"/>
      <use xlink:href="#DejaVuSans-4f" x="66.853516"/>
      <use xlink:href="#DejaVuSans-4c" x="145.564453"/>
      <use xlink:href="#DejaVuSans-44" x="201.277344"/>
      <use xlink:href="#DejaVuSans-20" x="278.279297"/>
      <use xlink:href="#DejaVuSans-25" x="310.066406"/>
      <use xlink:href="#DejaVuSans-20" x="405.085938"/>
      <use xlink:href="#DejaVuSans-63" x="436.873047"/>
      <use xlink:href="#DejaVuSans-68" x="491.853516"/>
      <use xlink:href="#DejaVuSans-61" x="555.232422"/>
      <use xlink:href="#DejaVuSans-6e" x="616.511719"/>
      <use xlink:href="#DejaVuSans-67" x="679.890625"/>
      <use xlink:href="#DejaVuSans-65" x="743.367188"/>
     </g>
    </g>
   </g>
   <g id="line2d_10">
    <path d="M 180 394.484211 
L 180 326.273684 
" clip-path="url(#pb97733b627)" style="fill: none; stroke-dasharray: 5.55,2.4; stroke-dashoffset: 0; stroke: #4c4c4c; stroke-width: 1.5"/>
   </g>
   <g id="line2d_11">
    <path d="M 65.454545 360.378947 
L 294.545455 360.378947 
" clip-path="url(#pb97733b627)" style="fill: none; stroke-dasharray: 5.55,2.4; stroke-dashoffset: 0; stroke: #4c4c4c; stroke-width: 1.5"/>
   </g>
   <g id="line2d_12">
    <path d="M 65.454545 345.931008 
L 70.12987 345.931008 
L 74.805195 345.907165 
L 79.480519 345.690826 
L 84.155844 345.514333 
L 88.831169 345.579351 
L 93.506494 345.554563 
L 98.181818 345.535074 
L 102.857143 345.413298 
L 107.532468 345.255925 
L 112.207792 345.23964 
L 116.883117 345.12398 
L 121.558442 344.842329 
L 126.233766 344.516171 
L 130.909091 344.343683 
L 135.584416 344.216433 
L 140.25974 343.992074 
L 144.935065 343.830369 
L 149.61039 343.656313 
L 154.285714 343.581763 
L 158.961039 343.482264 
L 163.636364 343.318575 
L 168.311688 343.204396 
L 172.987013 343.110669 
L 177.662338 343.041801 
L 182.337662 342.965941 
L 187.012987 342.813975 
L 191.688312 342.645726 
L 196.363636 342.518569 
L 201.038961 342.518611 
L 205.714286 342.504556 
L 210.38961 342.426155 
L 215.064935 342.385002 
L 219.74026 342.285743 
L 224.415584 342.203169 
L 229.090909 342.126616 
L 233.766234 342.060631 
L 238.441558 342.056972 
L 243.116883 342.039169 
L 247.792208 342.021089 
L 252.467532 342.032559 
L 257.142857 342.193243 
L 261.818182 342.292061 
L 266.493506 342.528818 
L 271.168831 342.756548 
L 275.844156 342.898029 
L 280.519481 342.900164 
L 285.194805 342.866975 
L 289.87013 342.859412 
L 294.545455 342.822408 
" clip-path="url(#pb97733b627)" style="fill: none; stroke: #ffa500; stroke-width: 1.5; stroke-linecap: square"/>
   </g>
   <g id="line2d_13">
    <path d="M 65.454545 343.482635 
L 70.12987 343.482635 
L 74.805195 343.482635 
L 79.480519 343.482635 
L 84.155844 343.482635 
L 88.831169 343.383116 
L 93.506494 343.261106 
L 98.181818 343.10569 
L 102.857143 342.924411 
L 107.532468 342.806325 
L 112.207792 342.924656 
L 116.883117 342.922657 
L 121.558442 342.12586 
L 126.233766 341.157153 
L 130.909091 340.742004 
L 135.584416 340.32468 
L 140.25974 339.595998 
L 144.935065 339.257457 
L 149.61039 339.153168 
L 154.285714 338.958103 
L 158.961039 338.828756 
L 163.636364 338.54503 
L 168.311688 338.157789 
L 172.987013 338.021177 
L 177.662338 337.953346 
L 182.337662 338.047139 
L 187.012987 337.946964 
L 191.688312 337.682606 
L 196.363636 337.761697 
L 201.038961 337.92534 
L 205.714286 337.920382 
L 210.38961 337.511529 
L 215.064935 336.945162 
L 219.74026 336.209969 
L 224.415584 335.637312 
L 229.090909 335.030052 
L 233.766234 334.23737 
L 238.441558 333.484037 
L 243.116883 333.328725 
L 247.792208 333.197686 
L 252.467532 333.037179 
L 257.142857 333.488951 
L 261.818182 333.713328 
L 266.493506 334.212777 
L 271.168831 334.768509 
L 275.844156 335.25464 
L 280.519481 335.325586 
L 285.194805 335.477954 
L 289.87013 335.793249 
L 294.545455 335.918498 
" clip-path="url(#pb97733b627)" style="fill: none; stroke: #ffa500; stroke-opacity: 0.2; stroke-width: 1.5; stroke-linecap: square"/>
   </g>
   <g id="line2d_14">
    <path d="M 65.454545 342.757356 
L 70.12987 342.757356 
L 74.805195 342.750431 
L 79.480519 342.832134 
L 84.155844 342.975982 
L 88.831169 343.068732 
L 93.506494 342.892683 
L 98.181818 343.046445 
L 102.857143 343.086309 
L 107.532468 342.873065 
L 112.207792 342.5827 
L 116.883117 342.329455 
L 121.558442 342.097246 
L 126.233766 341.80105 
L 130.909091 341.660883 
L 135.584416 341.903742 
L 140.25974 342.119414 
L 144.935065 342.192972 
L 149.61039 341.938513 
L 154.285714 341.828161 
L 158.961039 341.724607 
L 163.636364 341.490249 
L 168.311688 341.516229 
L 172.987013 341.318695 
L 177.662338 341.289769 
L 182.337662 341.324161 
L 187.012987 341.245488 
L 191.688312 341.025484 
L 196.363636 340.823455 
L 201.038961 340.80368 
L 205.714286 340.971012 
L 210.38961 341.223268 
L 215.064935 341.481512 
L 219.74026 341.527266 
L 224.415584 341.343441 
L 229.090909 341.150889 
L 233.766234 341.037725 
L 238.441558 341.081516 
L 243.116883 340.805912 
L 247.792208 340.606048 
L 252.467532 340.576302 
L 257.142857 340.572781 
L 261.818182 340.59776 
L 266.493506 340.918831 
L 271.168831 341.20373 
L 275.844156 341.314672 
L 280.519481 341.469936 
L 285.194805 341.410965 
L 289.87013 341.167262 
L 294.545455 340.967082 
" clip-path="url(#pb97733b627)" style="fill: none; stroke: #ffa500; stroke-opacity: 0.2; stroke-width: 1.5; stroke-linecap: square"/>
   </g>
   <g id="line2d_15">
    <path d="M 65.454545 348.555864 
L 70.12987 348.555864 
L 74.805195 348.555864 
L 79.480519 348.407546 
L 84.155844 348.248651 
L 88.831169 348.302907 
L 93.506494 348.398772 
L 98.181818 348.351128 
L 102.857143 348.048195 
L 107.532468 347.777781 
L 112.207792 347.651613 
L 116.883117 347.578105 
L 121.558442 347.416944 
L 126.233766 347.297867 
L 130.909091 347.274483 
L 135.584416 347.171686 
L 140.25974 347.090701 
L 144.935065 347.213547 
L 149.61039 347.277039 
L 154.285714 347.397602 
L 158.961039 347.58868 
L 163.636364 347.84643 
L 168.311688 347.997512 
L 172.987013 347.981549 
L 177.662338 347.833649 
L 182.337662 347.61616 
L 187.012987 347.361378 
L 191.688312 347.201005 
L 196.363636 347.075741 
L 201.038961 347.01531 
L 205.714286 346.993603 
L 210.38961 347.096579 
L 215.064935 347.246521 
L 219.74026 347.447269 
L 224.415584 347.604751 
L 229.090909 347.83026 
L 233.766234 348.111068 
L 238.441558 348.364865 
L 243.116883 348.587983 
L 247.792208 348.89705 
L 252.467532 349.049813 
L 257.142857 349.135524 
L 261.818182 349.220374 
L 266.493506 349.181143 
L 271.168831 349.089187 
L 275.844156 349.042406 
L 280.519481 349.063915 
L 285.194805 349.082555 
L 289.87013 349.056662 
L 294.545455 349.07957 
" clip-path="url(#pb97733b627)" style="fill: none; stroke: #ffa500; stroke-opacity: 0.2; stroke-width: 1.5; stroke-linecap: square"/>
   </g>
   <g id="line2d_16">
    <path d="M 65.454545 345.794877 
L 70.12987 345.794877 
L 74.805195 345.682587 
L 79.480519 345.538807 
L 84.155844 345.481886 
L 88.831169 345.600967 
L 93.506494 345.653288 
L 98.181818 345.579137 
L 102.857143 345.502418 
L 107.532468 345.407354 
L 112.207792 345.458271 
L 116.883117 345.165416 
L 121.558442 344.958181 
L 126.233766 344.877404 
L 130.909091 344.873047 
L 135.584416 344.85854 
L 140.25974 344.822172 
L 144.935065 344.565116 
L 149.61039 344.256096 
L 154.285714 344.162594 
L 158.961039 343.950412 
L 163.636364 343.688458 
L 168.311688 343.506462 
L 172.987013 343.331948 
L 177.662338 343.19083 
L 182.337662 343.109501 
L 187.012987 343.016064 
L 191.688312 343.108017 
L 196.363636 343.049525 
L 201.038961 343.039374 
L 205.714286 342.956731 
L 210.38961 342.885451 
L 215.064935 342.812825 
L 219.74026 342.852731 
L 224.415584 342.907707 
L 229.090909 342.975563 
L 233.766234 343.145832 
L 238.441558 343.425062 
L 243.116883 343.542815 
L 247.792208 343.497893 
L 252.467532 343.525673 
L 257.142857 343.763702 
L 261.818182 344.053124 
L 266.493506 344.298263 
L 271.168831 344.588635 
L 275.844156 344.8174 
L 280.519481 344.859744 
L 285.194805 344.73353 
L 289.87013 344.590534 
L 294.545455 344.323715 
" clip-path="url(#pb97733b627)" style="fill: none; stroke: #ffa500; stroke-opacity: 0.2; stroke-width: 1.5; stroke-linecap: square"/>
   </g>
   <g id="line2d_17">
    <path d="M 65.454545 349.064306 
L 70.12987 349.064306 
L 74.805195 349.064306 
L 79.480519 348.193009 
L 84.155844 347.382513 
L 88.831169 347.541032 
L 93.506494 347.566964 
L 98.181818 347.592969 
L 102.857143 347.505157 
L 107.532468 347.415101 
L 112.207792 347.58096 
L 116.883117 347.624264 
L 121.558442 347.613414 
L 126.233766 347.447383 
L 130.909091 347.167999 
L 135.584416 346.82352 
L 140.25974 346.332088 
L 144.935065 345.922752 
L 149.61039 345.65675 
L 154.285714 345.562353 
L 158.961039 345.318865 
L 163.636364 345.022709 
L 168.311688 344.843989 
L 172.987013 344.899976 
L 177.662338 344.94141 
L 182.337662 344.732741 
L 187.012987 344.499983 
L 191.688312 344.211516 
L 196.363636 343.882425 
L 201.038961 343.809354 
L 205.714286 343.681052 
L 210.38961 343.413947 
L 215.064935 343.438991 
L 219.74026 343.391482 
L 224.415584 343.522632 
L 229.090909 343.646316 
L 233.766234 343.771158 
L 238.441558 343.929377 
L 243.116883 343.930411 
L 247.792208 343.90677 
L 252.467532 343.973831 
L 257.142857 344.005257 
L 261.818182 343.875719 
L 266.493506 344.033076 
L 271.168831 344.132681 
L 275.844156 344.061025 
L 280.519481 343.781638 
L 285.194805 343.629872 
L 289.87013 343.689351 
L 294.545455 343.823177 
" clip-path="url(#pb97733b627)" style="fill: none; stroke: #ffa500; stroke-opacity: 0.2; stroke-width: 1.5; stroke-linecap: square"/>
   </g>
   <g id="patch_3">
    <path d="M 46 388.8 
L 46 280.8 
" style="fill: none; stroke: #000000; stroke-width: 0.8; stroke-linejoin: miter; stroke-linecap: square"/>
   </g>
   <g id="patch_4">
    <path d="M 54 396.8 
L 306 396.8 
" style="fill: none; stroke: #000000; stroke-width: 0.8; stroke-linejoin: miter; stroke-linecap: square"/>
   </g>
   <g id="legend_1">
    <g id="patch_5">
     <path d="M 246.5125 303.478125 
L 299 303.478125 
Q 301 303.478125 301 301.478125 
L 301 287.8 
Q 301 285.8 299 285.8 
L 246.5125 285.8 
Q 244.5125 285.8 244.5125 287.8 
L 244.5125 301.478125 
Q 244.5125 303.478125 246.5125 303.478125 
z
" style="fill: #ffffff; opacity: 0.8; stroke: #cccccc; stroke-linejoin: miter"/>
    </g>
    <g id="line2d_18">
     <path d="M 248.5125 293.898438 
L 258.5125 293.898438 
L 268.5125 293.898438 
" style="fill: none; stroke: #ffa500; stroke-width: 1.5; stroke-linecap: square"/>
    </g>
    <g id="text_12">
     <!-- orth -->
     <g transform="translate(276.5125 297.398438) scale(0.1 -0.1)">
      <use xlink:href="#DejaVuSans-6f"/>
      <use xlink:href="#DejaVuSans-72" x="61.181641"/>
      <use xlink:href="#DejaVuSans-74" x="102.294922"/>
      <use xlink:href="#DejaVuSans-68" x="141.503906"/>
     </g>
    </g>
   </g>
  </g>
  <g id="axes_2">
   <g id="patch_6">
    <path d="M 54 259.2 
L 306 259.2 
L 306 151.2 
L 54 151.2 
z
" style="fill: #ffffff"/>
   </g>
   <g id="PolyCollection_2">
    <defs>
     <path id="m8402a4fd4a" d="M 65.454545 -223.689285 
L 65.454545 -220.659027 
L 70.12987 -220.61148 
L 74.805195 -220.598633 
L 79.480519 -220.530174 
L 84.155844 -220.524907 
L 88.831169 -220.620116 
L 93.506494 -220.71437 
L 98.181818 -220.747524 
L 102.857143 -220.572059 
L 107.532468 -220.467161 
L 112.207792 -220.521658 
L 116.883117 -220.557081 
L 121.558442 -220.631099 
L 126.233766 -220.879252 
L 130.909091 -221.100999 
L 135.584416 -221.279859 
L 140.25974 -221.515888 
L 144.935065 -221.611284 
L 149.61039 -221.692197 
L 154.285714 -221.73791 
L 158.961039 -221.830259 
L 163.636364 -221.913813 
L 168.311688 -222.02086 
L 172.987013 -222.127816 
L 177.662338 -222.224677 
L 182.337662 -222.282256 
L 187.012987 -222.329861 
L 191.688312 -222.346607 
L 196.363636 -222.427869 
L 201.038961 -222.451854 
L 205.714286 -222.41829 
L 210.38961 -222.445095 
L 215.064935 -222.332518 
L 219.74026 -222.203962 
L 224.415584 -222.178669 
L 229.090909 -222.112331 
L 233.766234 -222.040985 
L 238.441558 -221.895745 
L 243.116883 -221.747552 
L 247.792208 -221.659542 
L 252.467532 -221.54021 
L 257.142857 -221.330229 
L 261.818182 -221.107138 
L 266.493506 -220.945566 
L 271.168831 -220.818091 
L 275.844156 -220.748359 
L 280.519481 -220.64618 
L 285.194805 -220.543002 
L 289.87013 -220.472902 
L 294.545455 -220.47859 
L 294.545455 -226.647996 
L 294.545455 -226.647996 
L 289.87013 -226.863017 
L 285.194805 -227.245675 
L 280.519481 -227.814335 
L 275.844156 -228.522063 
L 271.168831 -229.301806 
L 266.493506 -230.059791 
L 261.818182 -230.652531 
L 257.142857 -231.321126 
L 252.467532 -231.839174 
L 247.792208 -231.713183 
L 243.116883 -231.317683 
L 238.441558 -230.86361 
L 233.766234 -230.393223 
L 229.090909 -229.931969 
L 224.415584 -229.344266 
L 219.74026 -228.649646 
L 215.064935 -228.326379 
L 210.38961 -228.069443 
L 205.714286 -227.65877 
L 201.038961 -227.451848 
L 196.363636 -227.273634 
L 191.688312 -227.078291 
L 187.012987 -227.049158 
L 182.337662 -227.028385 
L 177.662338 -227.01228 
L 172.987013 -226.990926 
L 168.311688 -226.95792 
L 163.636364 -226.558287 
L 158.961039 -226.152685 
L 154.285714 -225.829941 
L 149.61039 -225.342804 
L 144.935065 -224.778112 
L 140.25974 -224.188141 
L 135.584416 -223.388373 
L 130.909091 -222.899419 
L 126.233766 -222.503423 
L 121.558442 -222.178219 
L 116.883117 -222.246236 
L 112.207792 -222.363939 
L 107.532468 -222.468328 
L 102.857143 -222.670299 
L 98.181818 -222.996843 
L 93.506494 -223.22099 
L 88.831169 -223.396169 
L 84.155844 -223.378462 
L 79.480519 -223.429606 
L 74.805195 -223.636441 
L 70.12987 -223.645763 
L 65.454545 -223.689285 
z
"/>
    </defs>
    <g clip-path="url(#pce522219c6)">
     <use xlink:href="#m8402a4fd4a" x="0" y="432" style="fill: #ffa500; fill-opacity: 0.4"/>
    </g>
   </g>
   <g id="matplotlib.axis_3">
    <g id="xtick_6">
     <g id="line2d_19">
      <g>
       <use xlink:href="#m4284192eec" x="65.454545" y="267.2" style="stroke: #000000; stroke-width: 0.8"/>
      </g>
     </g>
    </g>
    <g id="xtick_7">
     <g id="line2d_20">
      <g>
       <use xlink:href="#m4284192eec" x="122.727273" y="267.2" style="stroke: #000000; stroke-width: 0.8"/>
      </g>
     </g>
    </g>
    <g id="xtick_8">
     <g id="line2d_21">
      <g>
       <use xlink:href="#m4284192eec" x="180" y="267.2" style="stroke: #000000; stroke-width: 0.8"/>
      </g>
     </g>
    </g>
    <g id="xtick_9">
     <g id="line2d_22">
      <g>
       <use xlink:href="#m4284192eec" x="237.272727" y="267.2" style="stroke: #000000; stroke-width: 0.8"/>
      </g>
     </g>
    </g>
    <g id="xtick_10">
     <g id="line2d_23">
      <g>
       <use xlink:href="#m4284192eec" x="294.545455" y="267.2" style="stroke: #000000; stroke-width: 0.8"/>
      </g>
     </g>
    </g>
   </g>
   <g id="matplotlib.axis_4">
    <g id="ytick_5">
     <g id="line2d_24">
      <g>
       <use xlink:href="#m2b12a767e2" x="46" y="259.2" style="stroke: #000000; stroke-width: 0.8"/>
      </g>
     </g>
     <g id="text_13">
      <!-- −5 -->
      <g transform="translate(24.257812 262.999219) scale(0.1 -0.1)">
       <use xlink:href="#DejaVuSans-2212"/>
       <use xlink:href="#DejaVuSans-35" x="83.789062"/>
      </g>
     </g>
    </g>
    <g id="ytick_6">
     <g id="line2d_25">
      <g>
       <use xlink:href="#m2b12a767e2" x="46" y="230.778947" style="stroke: #000000; stroke-width: 0.8"/>
      </g>
     </g>
     <g id="text_14">
      <!-- 0 -->
      <g transform="translate(32.6375 234.578166) scale(0.1 -0.1)">
       <use xlink:href="#DejaVuSans-30"/>
      </g>
     </g>
    </g>
    <g id="ytick_7">
     <g id="line2d_26">
      <g>
       <use xlink:href="#m2b12a767e2" x="46" y="202.357895" style="stroke: #000000; stroke-width: 0.8"/>
      </g>
     </g>
     <g id="text_15">
      <!-- 5 -->
      <g transform="translate(32.6375 206.157113) scale(0.1 -0.1)">
       <use xlink:href="#DejaVuSans-35"/>
      </g>
     </g>
    </g>
    <g id="ytick_8">
     <g id="line2d_27">
      <g>
       <use xlink:href="#m2b12a767e2" x="46" y="173.936842" style="stroke: #000000; stroke-width: 0.8"/>
      </g>
     </g>
     <g id="text_16">
      <!-- 10 -->
      <g transform="translate(26.275 177.736061) scale(0.1 -0.1)">
       <use xlink:href="#DejaVuSans-31"/>
       <use xlink:href="#DejaVuSans-30" x="63.623047"/>
      </g>
     </g>
    </g>
    <g id="text_17">
     <!-- BOLD % change -->
     <g transform="translate(17.762187 253.494375) rotate(-90) scale(0.12 -0.12)">
      <use xlink:href="#DejaVuSans-42"/>
      <use xlink:href="#DejaVuSans-4f" x="66.853516"/>
      <use xlink:href="#DejaVuSans-4c" x="145.564453"/>
      <use xlink:href="#DejaVuSans-44" x="201.277344"/>
      <use xlink:href="#DejaVuSans-20" x="278.279297"/>
      <use xlink:href="#DejaVuSans-25" x="310.066406"/>
      <use xlink:href="#DejaVuSans-20" x="405.085938"/>
      <use xlink:href="#DejaVuSans-63" x="436.873047"/>
      <use xlink:href="#DejaVuSans-68" x="491.853516"/>
      <use xlink:href="#DejaVuSans-61" x="555.232422"/>
      <use xlink:href="#DejaVuSans-6e" x="616.511719"/>
      <use xlink:href="#DejaVuSans-67" x="679.890625"/>
      <use xlink:href="#DejaVuSans-65" x="743.367188"/>
     </g>
    </g>
   </g>
   <g id="line2d_28">
    <path d="M 180 264.884211 
L 180 196.673684 
" clip-path="url(#pce522219c6)" style="fill: none; stroke-dasharray: 5.55,2.4; stroke-dashoffset: 0; stroke: #4c4c4c; stroke-width: 1.5"/>
   </g>
   <g id="line2d_29">
    <path d="M 65.454545 230.778947 
L 294.545455 230.778947 
" clip-path="url(#pce522219c6)" style="fill: none; stroke-dasharray: 5.55,2.4; stroke-dashoffset: 0; stroke: #4c4c4c; stroke-width: 1.5"/>
   </g>
   <g id="line2d_30">
    <path d="M 65.454545 209.825844 
L 70.12987 209.871379 
L 74.805195 209.882463 
L 79.480519 210.02011 
L 84.155844 210.048316 
L 88.831169 209.991857 
L 93.506494 210.03232 
L 98.181818 210.127817 
L 102.857143 210.378821 
L 107.532468 210.532255 
L 112.207792 210.557202 
L 116.883117 210.598342 
L 121.558442 210.595341 
L 126.233766 210.308662 
L 130.909091 209.999791 
L 135.584416 209.665884 
L 140.25974 209.147986 
L 144.935065 208.805302 
L 149.61039 208.4825 
L 154.285714 208.216075 
L 158.961039 208.008528 
L 163.636364 207.76395 
L 168.311688 207.51061 
L 172.987013 207.440629 
L 177.662338 207.381522 
L 182.337662 207.344679 
L 187.012987 207.31049 
L 191.688312 207.287551 
L 196.363636 207.149249 
L 201.038961 207.048149 
L 205.714286 206.96147 
L 210.38961 206.742731 
L 215.064935 206.670551 
L 219.74026 206.573196 
L 224.415584 206.238533 
L 229.090909 205.97785 
L 233.766234 205.782896 
L 238.441558 205.620323 
L 243.116883 205.467383 
L 247.792208 205.313638 
L 252.467532 205.310308 
L 257.142857 205.674323 
L 261.818182 206.120165 
L 266.493506 206.497321 
L 271.168831 206.940051 
L 275.844156 207.364789 
L 280.519481 207.769742 
L 285.194805 208.105662 
L 289.87013 208.33204 
L 294.545455 208.436707 
" clip-path="url(#pce522219c6)" style="fill: none; stroke: #ffa500; stroke-width: 1.5; stroke-linecap: square"/>
   </g>
   <g id="line2d_31">
    <path d="M 65.454545 207.131843 
L 70.12987 207.131843 
L 74.805195 207.131843 
L 79.480519 207.131843 
L 84.155844 206.838131 
L 88.831169 206.629153 
L 93.506494 206.793258 
L 98.181818 207.347493 
L 102.857143 208.302301 
L 107.532468 208.981778 
L 112.207792 208.998681 
L 116.883117 209.453589 
L 121.558442 209.815513 
L 126.233766 208.976838 
L 130.909091 208.205321 
L 135.584416 206.948738 
L 140.25974 204.73514 
L 144.935065 203.156253 
L 149.61039 201.603625 
L 154.285714 200.216171 
L 158.961039 199.289753 
L 163.636364 198.315041 
L 168.311688 197.454557 
L 172.987013 197.661849 
L 177.662338 197.884294 
L 182.337662 197.987533 
L 187.012987 198.095744 
L 191.688312 198.151503 
L 196.363636 197.855536 
L 201.038961 197.579417 
L 205.714286 197.021336 
L 210.38961 195.885646 
L 215.064935 194.897874 
L 219.74026 193.694329 
L 224.415584 191.656391 
L 229.090909 189.807182 
L 233.766234 188.320082 
L 238.441558 186.639274 
L 243.116883 185.000993 
L 247.792208 183.685901 
L 252.467532 183.117159 
L 257.142857 184.204209 
L 261.818182 185.672955 
L 266.493506 187.049079 
L 271.168831 188.93772 
L 275.844156 191.035978 
L 280.519481 192.898645 
L 285.194805 194.403622 
L 289.87013 195.405603 
L 294.545455 196.129208 
" clip-path="url(#pce522219c6)" style="fill: none; stroke: #ffa500; stroke-opacity: 0.2; stroke-width: 1.5; stroke-linecap: square"/>
   </g>
   <g id="line2d_32">
    <path d="M 65.454545 209.92712 
L 70.12987 210.180785 
L 74.805195 210.435799 
L 79.480519 210.45123 
L 84.155844 210.523217 
L 88.831169 210.343292 
L 93.506494 210.158323 
L 98.181818 209.918997 
L 102.857143 209.752389 
L 107.532468 209.651439 
L 112.207792 209.70638 
L 116.883117 209.779222 
L 121.558442 209.946874 
L 126.233766 210.049231 
L 130.909091 210.075274 
L 135.584416 210.157372 
L 140.25974 210.306263 
L 144.935065 210.549546 
L 149.61039 210.90807 
L 154.285714 211.048391 
L 158.961039 210.897254 
L 163.636364 210.665784 
L 168.311688 210.577815 
L 172.987013 210.534291 
L 177.662338 210.49382 
L 182.337662 210.49627 
L 187.012987 210.585723 
L 191.688312 210.811548 
L 196.363636 210.918962 
L 201.038961 210.897967 
L 205.714286 210.912275 
L 210.38961 210.745298 
L 215.064935 210.681427 
L 219.74026 210.535938 
L 224.415584 210.397419 
L 229.090909 210.388735 
L 233.766234 210.298314 
L 238.441558 210.150604 
L 243.116883 210.069241 
L 247.792208 210.060459 
L 252.467532 210.256923 
L 257.142857 210.501958 
L 261.818182 210.838403 
L 266.493506 211.077882 
L 271.168831 211.211658 
L 275.844156 211.274014 
L 280.519481 211.425409 
L 285.194805 211.500485 
L 289.87013 211.441396 
L 294.545455 211.143089 
" clip-path="url(#pce522219c6)" style="fill: none; stroke: #ffa500; stroke-opacity: 0.2; stroke-width: 1.5; stroke-linecap: square"/>
   </g>
   <g id="line2d_33">
    <path d="M 65.454545 216.219475 
L 70.12987 216.219475 
L 74.805195 216.177471 
L 79.480519 215.97433 
L 84.155844 215.74385 
L 88.831169 215.313751 
L 93.506494 214.75557 
L 98.181818 214.370209 
L 102.857143 214.424436 
L 107.532468 214.412269 
L 112.207792 214.11959 
L 116.883117 213.815073 
L 121.558442 213.458838 
L 126.233766 213.275035 
L 130.909091 213.222802 
L 135.584416 213.263144 
L 140.25974 213.185748 
L 144.935065 213.178278 
L 149.61039 213.081491 
L 154.285714 213.141998 
L 158.961039 213.159671 
L 163.636364 213.43835 
L 168.311688 213.648257 
L 172.987013 213.734588 
L 177.662338 213.75628 
L 182.337662 213.729476 
L 187.012987 213.734438 
L 191.688312 213.753605 
L 196.363636 213.753024 
L 201.038961 214.008909 
L 205.714286 214.302147 
L 210.38961 214.598701 
L 215.064935 214.971262 
L 219.74026 215.389389 
L 224.415584 215.735806 
L 229.090909 215.940699 
L 233.766234 216.124775 
L 238.441558 216.318056 
L 243.116883 216.408735 
L 247.792208 216.444213 
L 252.467532 216.57343 
L 257.142857 216.7698 
L 261.818182 216.863441 
L 266.493506 216.917743 
L 271.168831 216.86301 
L 275.844156 216.837252 
L 280.519481 216.867088 
L 285.194805 216.946671 
L 289.87013 217.010816 
L 294.545455 217.16745 
" clip-path="url(#pce522219c6)" style="fill: none; stroke: #ffa500; stroke-opacity: 0.2; stroke-width: 1.5; stroke-linecap: square"/>
   </g>
   <g id="line2d_34">
    <path d="M 65.454545 208.930505 
L 70.12987 208.904514 
L 74.805195 208.777493 
L 79.480519 209.377571 
L 84.155844 209.898765 
L 88.831169 210.530962 
L 93.506494 210.832967 
L 98.181818 211.092489 
L 102.857143 211.372363 
L 107.532468 211.50281 
L 112.207792 211.514344 
L 116.883117 211.508004 
L 121.558442 211.41099 
L 126.233766 211.186538 
L 130.909091 210.901533 
L 135.584416 210.752242 
L 140.25974 210.654524 
L 144.935065 210.631964 
L 149.61039 210.522674 
L 154.285714 210.378979 
L 158.961039 210.027941 
L 163.636364 209.706523 
L 168.311688 209.310262 
L 172.987013 208.845708 
L 177.662338 208.556182 
L 182.337662 208.376549 
L 187.012987 208.111185 
L 191.688312 207.827449 
L 196.363636 207.604936 
L 201.038961 207.477042 
L 205.714286 207.387545 
L 210.38961 207.134605 
L 215.064935 207.037403 
L 219.74026 207.0527 
L 224.415584 207.119254 
L 229.090909 207.293374 
L 233.766234 207.480325 
L 238.441558 207.917196 
L 243.116883 208.448148 
L 247.792208 208.899034 
L 252.467532 209.065466 
L 257.142857 209.188284 
L 261.818182 209.409602 
L 266.493506 209.584632 
L 271.168831 209.789623 
L 275.844156 209.76249 
L 280.519481 209.729351 
L 285.194805 209.905858 
L 289.87013 210.014715 
L 294.545455 209.985709 
" clip-path="url(#pce522219c6)" style="fill: none; stroke: #ffa500; stroke-opacity: 0.2; stroke-width: 1.5; stroke-linecap: square"/>
   </g>
   <g id="line2d_35">
    <path d="M 65.454545 206.920275 
L 70.12987 206.920275 
L 74.805195 206.889709 
L 79.480519 207.165574 
L 84.155844 207.237615 
L 88.831169 207.14213 
L 93.506494 207.621482 
L 98.181818 207.909895 
L 102.857143 208.042617 
L 107.532468 208.112981 
L 112.207792 208.447015 
L 116.883117 208.435818 
L 121.558442 208.344489 
L 126.233766 208.05567 
L 130.909091 207.594024 
L 135.584416 207.207923 
L 140.25974 206.858253 
L 144.935065 206.510469 
L 149.61039 206.29664 
L 154.285714 206.294836 
L 158.961039 206.668022 
L 163.636364 206.694052 
L 168.311688 206.562159 
L 172.987013 206.42671 
L 177.662338 206.217034 
L 182.337662 206.133568 
L 187.012987 206.025362 
L 191.688312 205.893652 
L 196.363636 205.613786 
L 201.038961 205.27741 
L 205.714286 205.184048 
L 210.38961 205.349406 
L 215.064935 205.764791 
L 219.74026 206.193624 
L 224.415584 206.283794 
L 229.090909 206.459258 
L 233.766234 206.690984 
L 238.441558 207.076484 
L 243.116883 207.409796 
L 247.792208 207.478581 
L 252.467532 207.53856 
L 257.142857 207.707363 
L 261.818182 207.816426 
L 266.493506 207.85727 
L 271.168831 207.898245 
L 275.844156 207.914211 
L 280.519481 207.928217 
L 285.194805 207.771673 
L 289.87013 207.787672 
L 294.545455 207.758079 
" clip-path="url(#pce522219c6)" style="fill: none; stroke: #ffa500; stroke-opacity: 0.2; stroke-width: 1.5; stroke-linecap: square"/>
   </g>
   <g id="patch_7">
    <path d="M 46 259.2 
L 46 151.2 
" style="fill: none; stroke: #000000; stroke-width: 0.8; stroke-linejoin: miter; stroke-linecap: square"/>
   </g>
   <g id="patch_8">
    <path d="M 54 267.2 
L 306 267.2 
" style="fill: none; stroke: #000000; stroke-width: 0.8; stroke-linejoin: miter; stroke-linecap: square"/>
   </g>
  </g>
  <g id="axes_3">
   <g id="patch_9">
    <path d="M 54 129.6 
L 306 129.6 
L 306 21.6 
L 54 21.6 
z
" style="fill: #ffffff"/>
   </g>
   <g id="PolyCollection_3">
    <defs>
     <path id="m45a5bc76df" d="M 65.454545 -368.380288 
L 65.454545 -360.308354 
L 70.12987 -360.27304 
L 74.805195 -360.231826 
L 79.480519 -360.27557 
L 84.155844 -360.341959 
L 88.831169 -360.11505 
L 93.506494 -359.545464 
L 98.181818 -359.074226 
L 102.857143 -358.654651 
L 107.532468 -358.454072 
L 112.207792 -358.569714 
L 116.883117 -358.76147 
L 121.558442 -358.970238 
L 126.233766 -359.162017 
L 130.909091 -359.489436 
L 135.584416 -359.958902 
L 140.25974 -360.212479 
L 144.935065 -360.395645 
L 149.61039 -360.309225 
L 154.285714 -360.199079 
L 158.961039 -360.236339 
L 163.636364 -360.474771 
L 168.311688 -360.74466 
L 172.987013 -361.004786 
L 177.662338 -361.226801 
L 182.337662 -361.414065 
L 187.012987 -361.485324 
L 191.688312 -361.655996 
L 196.363636 -361.670744 
L 201.038961 -361.64028 
L 205.714286 -361.41561 
L 210.38961 -361.107351 
L 215.064935 -360.92404 
L 219.74026 -360.712582 
L 224.415584 -360.342536 
L 229.090909 -360.031608 
L 233.766234 -359.704562 
L 238.441558 -359.440465 
L 243.116883 -359.219965 
L 247.792208 -358.925696 
L 252.467532 -358.65974 
L 257.142857 -358.453373 
L 261.818182 -358.392464 
L 266.493506 -358.335414 
L 271.168831 -358.318635 
L 275.844156 -358.374276 
L 280.519481 -358.420955 
L 285.194805 -358.420143 
L 289.87013 -358.335255 
L 294.545455 -358.362749 
L 294.545455 -369.3967 
L 294.545455 -369.3967 
L 289.87013 -369.400594 
L 285.194805 -369.657668 
L 280.519481 -369.750714 
L 275.844156 -369.714009 
L 271.168831 -369.543815 
L 266.493506 -369.555449 
L 261.818182 -369.459823 
L 257.142857 -369.366918 
L 252.467532 -369.74871 
L 247.792208 -370.15643 
L 243.116883 -370.650085 
L 238.441558 -371.037318 
L 233.766234 -371.167945 
L 229.090909 -371.621807 
L 224.415584 -372.316181 
L 219.74026 -372.861577 
L 215.064935 -373.162991 
L 210.38961 -373.35287 
L 205.714286 -373.800114 
L 201.038961 -373.737328 
L 196.363636 -373.174415 
L 191.688312 -372.339392 
L 187.012987 -371.210768 
L 182.337662 -370.680857 
L 177.662338 -369.995465 
L 172.987013 -369.353475 
L 168.311688 -368.486 
L 163.636364 -367.865894 
L 158.961039 -367.474852 
L 154.285714 -367.509834 
L 149.61039 -367.615595 
L 144.935065 -367.581171 
L 140.25974 -366.76581 
L 135.584416 -366.077855 
L 130.909091 -365.433405 
L 126.233766 -365.224939 
L 121.558442 -365.348959 
L 116.883117 -365.448312 
L 112.207792 -365.398085 
L 107.532468 -365.495053 
L 102.857143 -365.892925 
L 98.181818 -366.549445 
L 93.506494 -367.09104 
L 88.831169 -367.678432 
L 84.155844 -368.086745 
L 79.480519 -368.138121 
L 74.805195 -368.117233 
L 70.12987 -368.279027 
L 65.454545 -368.380288 
z
"/>
    </defs>
    <g clip-path="url(#p8224d190de)">
     <use xlink:href="#m45a5bc76df" x="0" y="432" style="fill: #ffa500; fill-opacity: 0.4"/>
    </g>
   </g>
   <g id="matplotlib.axis_5">
    <g id="xtick_11">
     <g id="line2d_36">
      <g>
       <use xlink:href="#m4284192eec" x="65.454545" y="137.6" style="stroke: #000000; stroke-width: 0.8"/>
      </g>
     </g>
    </g>
    <g id="xtick_12">
     <g id="line2d_37">
      <g>
       <use xlink:href="#m4284192eec" x="122.727273" y="137.6" style="stroke: #000000; stroke-width: 0.8"/>
      </g>
     </g>
    </g>
    <g id="xtick_13">
     <g id="line2d_38">
      <g>
       <use xlink:href="#m4284192eec" x="180" y="137.6" style="stroke: #000000; stroke-width: 0.8"/>
      </g>
     </g>
    </g>
    <g id="xtick_14">
     <g id="line2d_39">
      <g>
       <use xlink:href="#m4284192eec" x="237.272727" y="137.6" style="stroke: #000000; stroke-width: 0.8"/>
      </g>
     </g>
    </g>
    <g id="xtick_15">
     <g id="line2d_40">
      <g>
       <use xlink:href="#m4284192eec" x="294.545455" y="137.6" style="stroke: #000000; stroke-width: 0.8"/>
      </g>
     </g>
    </g>
   </g>
   <g id="matplotlib.axis_6">
    <g id="ytick_9">
     <g id="line2d_41">
      <g>
       <use xlink:href="#m2b12a767e2" x="46" y="129.6" style="stroke: #000000; stroke-width: 0.8"/>
      </g>
     </g>
     <g id="text_18">
      <!-- −5 -->
      <g transform="translate(24.257812 133.399219) scale(0.1 -0.1)">
       <use xlink:href="#DejaVuSans-2212"/>
       <use xlink:href="#DejaVuSans-35" x="83.789062"/>
      </g>
     </g>
    </g>
    <g id="ytick_10">
     <g id="line2d_42">
      <g>
       <use xlink:href="#m2b12a767e2" x="46" y="101.178947" style="stroke: #000000; stroke-width: 0.8"/>
      </g>
     </g>
     <g id="text_19">
      <!-- 0 -->
      <g transform="translate(32.6375 104.978166) scale(0.1 -0.1)">
       <use xlink:href="#DejaVuSans-30"/>
      </g>
     </g>
    </g>
    <g id="ytick_11">
     <g id="line2d_43">
      <g>
       <use xlink:href="#m2b12a767e2" x="46" y="72.757895" style="stroke: #000000; stroke-width: 0.8"/>
      </g>
     </g>
     <g id="text_20">
      <!-- 5 -->
      <g transform="translate(32.6375 76.557113) scale(0.1 -0.1)">
       <use xlink:href="#DejaVuSans-35"/>
      </g>
     </g>
    </g>
    <g id="ytick_12">
     <g id="line2d_44">
      <g>
       <use xlink:href="#m2b12a767e2" x="46" y="44.336842" style="stroke: #000000; stroke-width: 0.8"/>
      </g>
     </g>
     <g id="text_21">
      <!-- 10 -->
      <g transform="translate(26.275 48.136061) scale(0.1 -0.1)">
       <use xlink:href="#DejaVuSans-31"/>
       <use xlink:href="#DejaVuSans-30" x="63.623047"/>
      </g>
     </g>
    </g>
    <g id="text_22">
     <!-- BOLD % change -->
     <g transform="translate(17.762187 123.894375) rotate(-90) scale(0.12 -0.12)">
      <use xlink:href="#DejaVuSans-42"/>
      <use xlink:href="#DejaVuSans-4f" x="66.853516"/>
      <use xlink:href="#DejaVuSans-4c" x="145.564453"/>
      <use xlink:href="#DejaVuSans-44" x="201.277344"/>
      <use xlink:href="#DejaVuSans-20" x="278.279297"/>
      <use xlink:href="#DejaVuSans-25" x="310.066406"/>
      <use xlink:href="#DejaVuSans-20" x="405.085938"/>
      <use xlink:href="#DejaVuSans-63" x="436.873047"/>
      <use xlink:href="#DejaVuSans-68" x="491.853516"/>
      <use xlink:href="#DejaVuSans-61" x="555.232422"/>
      <use xlink:href="#DejaVuSans-6e" x="616.511719"/>
      <use xlink:href="#DejaVuSans-67" x="679.890625"/>
      <use xlink:href="#DejaVuSans-65" x="743.367188"/>
     </g>
    </g>
   </g>
   <g id="line2d_45">
    <path d="M 180 135.284211 
L 180 67.073684 
" clip-path="url(#p8224d190de)" style="fill: none; stroke-dasharray: 5.55,2.4; stroke-dashoffset: 0; stroke: #4c4c4c; stroke-width: 1.5"/>
   </g>
   <g id="line2d_46">
    <path d="M 65.454545 101.178947 
L 294.545455 101.178947 
" clip-path="url(#p8224d190de)" style="fill: none; stroke-dasharray: 5.55,2.4; stroke-dashoffset: 0; stroke: #4c4c4c; stroke-width: 1.5"/>
   </g>
   <g id="line2d_47">
    <path d="M 65.454545 67.655679 
L 70.12987 67.723967 
L 74.805195 67.82547 
L 79.480519 67.793155 
L 84.155844 67.785648 
L 88.831169 68.103259 
L 93.506494 68.681748 
L 98.181818 69.188165 
L 102.857143 69.726212 
L 107.532468 70.025437 
L 112.207792 70.0161 
L 116.883117 69.895109 
L 121.558442 69.840401 
L 126.233766 69.806522 
L 130.909091 69.53858 
L 135.584416 68.981621 
L 140.25974 68.510855 
L 144.935065 68.011592 
L 149.61039 68.03759 
L 154.285714 68.145544 
L 158.961039 68.144404 
L 163.636364 67.829667 
L 168.311688 67.38467 
L 172.987013 66.820869 
L 177.662338 66.388867 
L 182.337662 65.952539 
L 187.012987 65.651954 
L 191.688312 65.002306 
L 196.363636 64.577421 
L 201.038961 64.311196 
L 205.714286 64.392138 
L 210.38961 64.769889 
L 215.064935 64.956484 
L 219.74026 65.212921 
L 224.415584 65.670642 
L 229.090909 66.173292 
L 233.766234 66.563747 
L 238.441558 66.761108 
L 243.116883 67.064975 
L 247.792208 67.458937 
L 252.467532 67.795775 
L 257.142857 68.089854 
L 261.818182 68.073856 
L 266.493506 68.054569 
L 271.168831 68.068775 
L 275.844156 67.955857 
L 280.519481 67.914165 
L 285.194805 67.961094 
L 289.87013 68.132076 
L 294.545455 68.120276 
" clip-path="url(#p8224d190de)" style="fill: none; stroke: #ffa500; stroke-width: 1.5; stroke-linecap: square"/>
   </g>
   <g id="line2d_48">
    <path d="M 65.454545 62.485408 
L 70.12987 62.485408 
L 74.805195 62.485408 
L 79.480519 62.098468 
L 84.155844 61.655769 
L 88.831169 61.660472 
L 93.506494 61.664166 
L 98.181818 62.029739 
L 102.857143 63.05559 
L 107.532468 63.32239 
L 112.207792 63.36738 
L 116.883117 63.413428 
L 121.558442 64.208074 
L 126.233766 64.630761 
L 130.909091 64.222626 
L 135.584416 62.229861 
L 140.25974 59.994463 
L 144.935065 57.85529 
L 149.61039 58.005036 
L 154.285714 58.528026 
L 158.961039 58.92751 
L 163.636364 58.03933 
L 168.311688 56.374362 
L 172.987013 53.8314 
L 177.662338 52.217481 
L 182.337662 50.518325 
L 187.012987 49.153451 
L 191.688312 46.048403 
L 196.363636 43.744275 
L 201.038961 42.087402 
L 205.714286 41.436697 
L 210.38961 42.309296 
L 215.064935 42.613616 
L 219.74026 43.214456 
L 224.415584 44.021841 
L 229.090909 45.504039 
L 233.766234 46.203382 
L 238.441558 46.096854 
L 243.116883 46.952032 
L 247.792208 47.958963 
L 252.467532 48.457008 
L 257.142857 48.987159 
L 261.818182 48.436444 
L 266.493506 47.998936 
L 271.168831 48.120283 
L 275.844156 47.706039 
L 280.519481 47.828536 
L 285.194805 48.313133 
L 289.87013 48.912734 
L 294.545455 49.03048 
" clip-path="url(#p8224d190de)" style="fill: none; stroke: #ffa500; stroke-opacity: 0.2; stroke-width: 1.5; stroke-linecap: square"/>
   </g>
   <g id="line2d_49">
    <path d="M 65.454545 66.762763 
L 70.12987 66.762763 
L 74.805195 66.793882 
L 79.480519 67.422085 
L 84.155844 67.885974 
L 88.831169 68.599453 
L 93.506494 69.980443 
L 98.181818 71.162494 
L 102.857143 72.024377 
L 107.532468 72.455078 
L 112.207792 72.211907 
L 116.883117 71.997018 
L 121.558442 71.881286 
L 126.233766 71.908099 
L 130.909091 71.808842 
L 135.584416 72.07056 
L 140.25974 72.702616 
L 144.935065 72.934003 
L 149.61039 73.174078 
L 154.285714 73.324417 
L 158.961039 73.476227 
L 163.636364 73.549201 
L 168.311688 73.733433 
L 172.987013 74.173606 
L 177.662338 74.591797 
L 182.337662 74.829327 
L 187.012987 75.06437 
L 191.688312 75.141134 
L 196.363636 75.52052 
L 201.038961 75.76487 
L 205.714286 76.036964 
L 210.38961 76.36571 
L 215.064935 76.648856 
L 219.74026 76.811673 
L 224.415584 76.838339 
L 229.090909 76.684229 
L 233.766234 76.645364 
L 238.441558 76.793708 
L 243.116883 76.858031 
L 247.792208 77.028455 
L 252.467532 77.188416 
L 257.142857 77.324242 
L 261.818182 77.532969 
L 266.493506 77.722294 
L 271.168831 77.809951 
L 275.844156 77.598113 
L 280.519481 77.521791 
L 285.194805 77.397974 
L 289.87013 77.242789 
L 294.545455 76.835959 
" clip-path="url(#p8224d190de)" style="fill: none; stroke: #ffa500; stroke-opacity: 0.2; stroke-width: 1.5; stroke-linecap: square"/>
   </g>
   <g id="line2d_50">
    <path d="M 65.454545 84.450388 
L 70.12987 84.450388 
L 74.805195 84.450388 
L 79.480519 84.383862 
L 84.155844 84.217173 
L 88.831169 84.198291 
L 93.506494 84.514158 
L 98.181818 84.60951 
L 102.857143 84.517919 
L 107.532468 84.337854 
L 112.207792 83.951419 
L 116.883117 83.538408 
L 121.558442 82.842019 
L 126.233766 82.148579 
L 130.909091 81.591785 
L 135.584416 80.966154 
L 140.25974 80.659864 
L 144.935065 80.897322 
L 149.61039 81.159801 
L 154.285714 81.336099 
L 158.961039 81.154301 
L 163.636364 80.852367 
L 168.311688 80.55891 
L 172.987013 80.201248 
L 177.662338 79.813096 
L 182.337662 79.687773 
L 187.012987 79.748032 
L 191.688312 79.97235 
L 196.363636 80.295001 
L 201.038961 80.627302 
L 205.714286 81.021319 
L 210.38961 81.4436 
L 215.064935 81.685147 
L 219.74026 82.028092 
L 224.415584 82.468482 
L 229.090909 82.911452 
L 233.766234 83.403912 
L 238.441558 83.844727 
L 243.116883 84.166559 
L 247.792208 84.499647 
L 252.467532 84.586753 
L 257.142857 84.572576 
L 261.818182 84.503467 
L 266.493506 84.491268 
L 271.168831 84.506164 
L 275.844156 84.56622 
L 280.519481 84.596743 
L 285.194805 84.733207 
L 289.87013 84.857263 
L 294.545455 85.056429 
" clip-path="url(#p8224d190de)" style="fill: none; stroke: #ffa500; stroke-opacity: 0.2; stroke-width: 1.5; stroke-linecap: square"/>
   </g>
   <g id="line2d_51">
    <path d="M 65.454545 57.814896 
L 70.12987 58.156333 
L 74.805195 58.820067 
L 79.480519 59.127217 
L 84.155844 60.015162 
L 88.831169 61.412176 
L 93.506494 62.378332 
L 98.181818 62.676061 
L 102.857143 63.000001 
L 107.532468 63.631839 
L 112.207792 64.002426 
L 116.883117 63.851722 
L 121.558442 63.539311 
L 126.233766 63.894768 
L 130.909091 64.152648 
L 135.584416 64.260575 
L 140.25974 64.369813 
L 144.935065 64.166501 
L 149.61039 64.46363 
L 154.285714 64.873797 
L 158.961039 64.848352 
L 163.636364 64.619944 
L 168.311688 64.398128 
L 172.987013 64.331655 
L 177.662338 64.150734 
L 182.337662 63.988379 
L 187.012987 64.029511 
L 191.688312 63.956203 
L 196.363636 63.81962 
L 201.038961 63.53046 
L 205.714286 63.371801 
L 210.38961 63.165189 
L 215.064935 62.908326 
L 219.74026 62.594908 
L 224.415584 63.034317 
L 229.090909 63.068534 
L 233.766234 63.226644 
L 238.441558 63.206993 
L 243.116883 63.102496 
L 247.792208 63.263363 
L 252.467532 63.68042 
L 257.142857 64.205174 
L 261.818182 64.253293 
L 266.493506 63.877994 
L 271.168831 63.35661 
L 275.844156 63.119326 
L 280.519481 62.693419 
L 285.194805 62.299629 
L 289.87013 62.451951 
L 294.545455 62.371612 
" clip-path="url(#p8224d190de)" style="fill: none; stroke: #ffa500; stroke-opacity: 0.2; stroke-width: 1.5; stroke-linecap: square"/>
   </g>
   <g id="line2d_52">
    <path d="M 65.454545 66.764941 
L 70.12987 66.764941 
L 74.805195 66.577605 
L 79.480519 65.934142 
L 84.155844 65.154161 
L 88.831169 64.645903 
L 93.506494 64.871642 
L 98.181818 65.463021 
L 102.857143 66.033174 
L 107.532468 66.380027 
L 112.207792 66.547369 
L 116.883117 66.67497 
L 121.558442 66.731317 
L 126.233766 66.450404 
L 130.909091 65.916998 
L 135.584416 65.380955 
L 140.25974 64.82752 
L 144.935065 64.204843 
L 149.61039 63.385404 
L 154.285714 62.665379 
L 158.961039 62.315632 
L 163.636364 62.087496 
L 168.311688 61.858516 
L 172.987013 61.566439 
L 177.662338 61.171228 
L 182.337662 60.738892 
L 187.012987 60.264407 
L 191.688312 59.893439 
L 196.363636 59.507686 
L 201.038961 59.545946 
L 205.714286 60.093909 
L 210.38961 60.565653 
L 215.064935 60.926477 
L 219.74026 61.415474 
L 224.415584 61.990229 
L 229.090909 62.698208 
L 233.766234 63.339431 
L 238.441558 63.86326 
L 243.116883 64.245759 
L 247.792208 64.544258 
L 252.467532 65.066277 
L 257.142857 65.360119 
L 261.818182 65.643109 
L 266.493506 66.182351 
L 271.168831 66.550867 
L 275.844156 66.78959 
L 280.519481 66.930338 
L 285.194805 67.061528 
L 289.87013 67.195643 
L 294.545455 67.306897 
" clip-path="url(#p8224d190de)" style="fill: none; stroke: #ffa500; stroke-opacity: 0.2; stroke-width: 1.5; stroke-linecap: square"/>
   </g>
   <g id="patch_10">
    <path d="M 46 129.6 
L 46 21.6 
" style="fill: none; stroke: #000000; stroke-width: 0.8; stroke-linejoin: miter; stroke-linecap: square"/>
   </g>
   <g id="patch_11">
    <path d="M 54 137.6 
L 306 137.6 
" style="fill: none; stroke: #000000; stroke-width: 0.8; stroke-linejoin: miter; stroke-linecap: square"/>
   </g>
  </g>
 </g>
 <defs>
  <clipPath id="pb97733b627">
   <rect x="54" y="280.8" width="252" height="108"/>
  </clipPath>
  <clipPath id="pce522219c6">
   <rect x="54" y="151.2" width="252" height="108"/>
  </clipPath>
  <clipPath id="p8224d190de">
   <rect x="54" y="21.6" width="252" height="108"/>
  </clipPath>
 </defs>
</svg>
