<?xml version="1.0" encoding="utf-8" standalone="no"?>
<!DOCTYPE svg PUBLIC "-//W3C//DTD SVG 1.1//EN"
  "http://www.w3.org/Graphics/SVG/1.1/DTD/svg11.dtd">
<svg xmlns:xlink="http://www.w3.org/1999/xlink" width="360pt" height="432pt" viewBox="0 0 360 432" xmlns="http://www.w3.org/2000/svg" version="1.1">
 <metadata>
  <rdf:RDF xmlns:dc="http://purl.org/dc/elements/1.1/" xmlns:cc="http://creativecommons.org/ns#" xmlns:rdf="http://www.w3.org/1999/02/22-rdf-syntax-ns#">
   <cc:Work>
    <dc:type rdf:resource="http://purl.org/dc/dcmitype/StillImage"/>
    <dc:date>2024-09-16T16:10:29.270557</dc:date>
    <dc:format>image/svg+xml</dc:format>
    <dc:creator>
     <cc:Agent>
      <dc:title>Matplotlib v3.8.0, https://matplotlib.org/</dc:title>
     </cc:Agent>
    </dc:creator>
   </cc:Work>
  </rdf:RDF>
 </metadata>
 <defs>
  <style type="text/css">*{stroke-linejoin: round; stroke-linecap: butt}</style>
 </defs>
 <g id="figure_1">
  <g id="patch_1">
   <path d="M 0 432 
L 360 432 
L 360 0 
L 0 0 
z
" style="fill: #ffffff"/>
  </g>
  <g id="axes_1">
   <g id="patch_2">
    <path d="M 54 388.8 
L 306 388.8 
L 306 280.8 
L 54 280.8 
z
" style="fill: #ffffff"/>
   </g>
   <g id="PolyCollection_1">
    <defs>
     <path id="m7e9ef41776" d="M 65.454545 -77.542939 
L 65.454545 -75.171848 
L 70.12987 -75.159841 
L 74.805195 -75.172188 
L 79.480519 -75.32245 
L 84.155844 -75.420001 
L 88.831169 -75.455806 
L 93.506494 -75.444314 
L 98.181818 -75.471718 
L 102.857143 -75.596564 
L 107.532468 -75.774223 
L 112.207792 -75.864412 
L 116.883117 -75.923348 
L 121.558442 -76.080027 
L 126.233766 -76.264541 
L 130.909091 -76.354642 
L 135.584416 -76.452136 
L 140.25974 -76.556678 
L 144.935065 -76.642575 
L 149.61039 -76.800085 
L 154.285714 -76.909828 
L 158.961039 -77.11216 
L 163.636364 -77.276799 
L 168.311688 -77.397632 
L 172.987013 -77.49948 
L 177.662338 -77.589158 
L 182.337662 -77.745353 
L 187.012987 -77.918398 
L 191.688312 -78.084557 
L 196.363636 -78.194625 
L 201.038961 -78.305362 
L 205.714286 -78.382737 
L 210.38961 -78.424828 
L 215.064935 -78.426403 
L 219.74026 -78.419221 
L 224.415584 -78.423267 
L 229.090909 -78.406302 
L 233.766234 -78.360904 
L 238.441558 -78.358189 
L 243.116883 -78.42071 
L 247.792208 -78.458528 
L 252.467532 -78.435529 
L 257.142857 -78.425406 
L 261.818182 -78.436547 
L 266.493506 -78.315906 
L 271.168831 -78.207391 
L 275.844156 -78.162647 
L 280.519481 -78.170446 
L 285.194805 -78.178286 
L 289.87013 -78.189776 
L 294.545455 -78.196802 
L 294.545455 -80.528136 
L 294.545455 -80.528136 
L 289.87013 -80.535262 
L 285.194805 -80.523716 
L 280.519481 -80.470962 
L 275.844156 -80.413085 
L 271.168831 -80.458229 
L 266.493506 -80.616096 
L 261.818182 -80.763095 
L 257.142857 -80.681799 
L 252.467532 -80.634367 
L 247.792208 -80.600725 
L 243.116883 -80.506041 
L 238.441558 -80.408001 
L 233.766234 -80.324735 
L 229.090909 -80.289664 
L 224.415584 -80.285775 
L 219.74026 -80.30604 
L 215.064935 -80.336277 
L 210.38961 -80.301925 
L 205.714286 -80.17289 
L 201.038961 -80.057731 
L 196.363636 -79.939899 
L 191.688312 -79.759026 
L 187.012987 -79.488144 
L 182.337662 -79.249985 
L 177.662338 -79.063133 
L 172.987013 -78.973314 
L 168.311688 -78.911453 
L 163.636364 -78.846608 
L 158.961039 -78.745678 
L 154.285714 -78.626263 
L 149.61039 -78.593665 
L 144.935065 -78.472537 
L 140.25974 -78.479281 
L 135.584416 -78.465236 
L 130.909091 -78.460176 
L 126.233766 -78.45015 
L 121.558442 -78.269943 
L 116.883117 -78.06972 
L 112.207792 -77.970804 
L 107.532468 -77.821537 
L 102.857143 -77.591535 
L 98.181818 -77.423033 
L 93.506494 -77.409906 
L 88.831169 -77.487262 
L 84.155844 -77.539607 
L 79.480519 -77.56907 
L 74.805195 -77.505245 
L 70.12987 -77.512115 
L 65.454545 -77.542939 
z
"/>
    </defs>
    <g clip-path="url(#p13c713a687)">
     <use xlink:href="#m7e9ef41776" x="0" y="432" style="fill: #808080; fill-opacity: 0.4"/>
    </g>
   </g>
   <g id="matplotlib.axis_1">
    <g id="xtick_1">
     <g id="line2d_1">
      <defs>
       <path id="m39d2b8d129" d="M 0 0 
L 0 3.5 
" style="stroke: #000000; stroke-width: 0.8"/>
      </defs>
      <g>
       <use xlink:href="#m39d2b8d129" x="65.454545" y="396.8" style="stroke: #000000; stroke-width: 0.8"/>
      </g>
     </g>
     <g id="text_1">
      <!-- 0 -->
      <g transform="translate(62.273295 411.398438) scale(0.1 -0.1)">
       <defs>
        <path id="DejaVuSans-30" d="M 2034 4250 
Q 1547 4250 1301 3770 
Q 1056 3291 1056 2328 
Q 1056 1369 1301 889 
Q 1547 409 2034 409 
Q 2525 409 2770 889 
Q 3016 1369 3016 2328 
Q 3016 3291 2770 3770 
Q 2525 4250 2034 4250 
z
M 2034 4750 
Q 2819 4750 3233 4129 
Q 3647 3509 3647 2328 
Q 3647 1150 3233 529 
Q 2819 -91 2034 -91 
Q 1250 -91 836 529 
Q 422 1150 422 2328 
Q 422 3509 836 4129 
Q 1250 4750 2034 4750 
z
" transform="scale(0.015625)"/>
       </defs>
       <use xlink:href="#DejaVuSans-30"/>
      </g>
     </g>
    </g>
    <g id="xtick_2">
     <g id="line2d_2">
      <g>
       <use xlink:href="#m39d2b8d129" x="122.727273" y="396.8" style="stroke: #000000; stroke-width: 0.8"/>
      </g>
     </g>
     <g id="text_2">
      <!-- 1 -->
      <g transform="translate(119.546023 411.398438) scale(0.1 -0.1)">
       <defs>
        <path id="DejaVuSans-31" d="M 794 531 
L 1825 531 
L 1825 4091 
L 703 3866 
L 703 4441 
L 1819 4666 
L 2450 4666 
L 2450 531 
L 3481 531 
L 3481 0 
L 794 0 
L 794 531 
z
" transform="scale(0.015625)"/>
       </defs>
       <use xlink:href="#DejaVuSans-31"/>
      </g>
     </g>
    </g>
    <g id="xtick_3">
     <g id="line2d_3">
      <g>
       <use xlink:href="#m39d2b8d129" x="180" y="396.8" style="stroke: #000000; stroke-width: 0.8"/>
      </g>
     </g>
     <g id="text_3">
      <!-- 2 -->
      <g transform="translate(176.81875 411.398438) scale(0.1 -0.1)">
       <defs>
        <path id="DejaVuSans-32" d="M 1228 531 
L 3431 531 
L 3431 0 
L 469 0 
L 469 531 
Q 828 903 1448 1529 
Q 2069 2156 2228 2338 
Q 2531 2678 2651 2914 
Q 2772 3150 2772 3378 
Q 2772 3750 2511 3984 
Q 2250 4219 1831 4219 
Q 1534 4219 1204 4116 
Q 875 4013 500 3803 
L 500 4441 
Q 881 4594 1212 4672 
Q 1544 4750 1819 4750 
Q 2544 4750 2975 4387 
Q 3406 4025 3406 3419 
Q 3406 3131 3298 2873 
Q 3191 2616 2906 2266 
Q 2828 2175 2409 1742 
Q 1991 1309 1228 531 
z
" transform="scale(0.015625)"/>
       </defs>
       <use xlink:href="#DejaVuSans-32"/>
      </g>
     </g>
    </g>
    <g id="xtick_4">
     <g id="line2d_4">
      <g>
       <use xlink:href="#m39d2b8d129" x="237.272727" y="396.8" style="stroke: #000000; stroke-width: 0.8"/>
      </g>
     </g>
     <g id="text_4">
      <!-- 3 -->
      <g transform="translate(234.091477 411.398438) scale(0.1 -0.1)">
       <defs>
        <path id="DejaVuSans-33" d="M 2597 2516 
Q 3050 2419 3304 2112 
Q 3559 1806 3559 1356 
Q 3559 666 3084 287 
Q 2609 -91 1734 -91 
Q 1441 -91 1130 -33 
Q 819 25 488 141 
L 488 750 
Q 750 597 1062 519 
Q 1375 441 1716 441 
Q 2309 441 2620 675 
Q 2931 909 2931 1356 
Q 2931 1769 2642 2001 
Q 2353 2234 1838 2234 
L 1294 2234 
L 1294 2753 
L 1863 2753 
Q 2328 2753 2575 2939 
Q 2822 3125 2822 3475 
Q 2822 3834 2567 4026 
Q 2313 4219 1838 4219 
Q 1578 4219 1281 4162 
Q 984 4106 628 3988 
L 628 4550 
Q 988 4650 1302 4700 
Q 1616 4750 1894 4750 
Q 2613 4750 3031 4423 
Q 3450 4097 3450 3541 
Q 3450 3153 3228 2886 
Q 3006 2619 2597 2516 
z
" transform="scale(0.015625)"/>
       </defs>
       <use xlink:href="#DejaVuSans-33"/>
      </g>
     </g>
    </g>
    <g id="xtick_5">
     <g id="line2d_5">
      <g>
       <use xlink:href="#m39d2b8d129" x="294.545455" y="396.8" style="stroke: #000000; stroke-width: 0.8"/>
      </g>
     </g>
     <g id="text_5">
      <!-- 4 -->
      <g transform="translate(291.364205 411.398438) scale(0.1 -0.1)">
       <defs>
        <path id="DejaVuSans-34" d="M 2419 4116 
L 825 1625 
L 2419 1625 
L 2419 4116 
z
M 2253 4666 
L 3047 4666 
L 3047 1625 
L 3713 1625 
L 3713 1100 
L 3047 1100 
L 3047 0 
L 2419 0 
L 2419 1100 
L 313 1100 
L 313 1709 
L 2253 4666 
z
" transform="scale(0.015625)"/>
       </defs>
       <use xlink:href="#DejaVuSans-34"/>
      </g>
     </g>
    </g>
    <g id="text_6">
     <!-- relative distance from ROI center ($\sigma$) -->
     <g transform="translate(69.72 426.59625) scale(0.12 -0.12)">
      <defs>
       <path id="DejaVuSans-72" d="M 2631 2963 
Q 2534 3019 2420 3045 
Q 2306 3072 2169 3072 
Q 1681 3072 1420 2755 
Q 1159 2438 1159 1844 
L 1159 0 
L 581 0 
L 581 3500 
L 1159 3500 
L 1159 2956 
Q 1341 3275 1631 3429 
Q 1922 3584 2338 3584 
Q 2397 3584 2469 3576 
Q 2541 3569 2628 3553 
L 2631 2963 
z
" transform="scale(0.015625)"/>
       <path id="DejaVuSans-65" d="M 3597 1894 
L 3597 1613 
L 953 1613 
Q 991 1019 1311 708 
Q 1631 397 2203 397 
Q 2534 397 2845 478 
Q 3156 559 3463 722 
L 3463 178 
Q 3153 47 2828 -22 
Q 2503 -91 2169 -91 
Q 1331 -91 842 396 
Q 353 884 353 1716 
Q 353 2575 817 3079 
Q 1281 3584 2069 3584 
Q 2775 3584 3186 3129 
Q 3597 2675 3597 1894 
z
M 3022 2063 
Q 3016 2534 2758 2815 
Q 2500 3097 2075 3097 
Q 1594 3097 1305 2825 
Q 1016 2553 972 2059 
L 3022 2063 
z
" transform="scale(0.015625)"/>
       <path id="DejaVuSans-6c" d="M 603 4863 
L 1178 4863 
L 1178 0 
L 603 0 
L 603 4863 
z
" transform="scale(0.015625)"/>
       <path id="DejaVuSans-61" d="M 2194 1759 
Q 1497 1759 1228 1600 
Q 959 1441 959 1056 
Q 959 750 1161 570 
Q 1363 391 1709 391 
Q 2188 391 2477 730 
Q 2766 1069 2766 1631 
L 2766 1759 
L 2194 1759 
z
M 3341 1997 
L 3341 0 
L 2766 0 
L 2766 531 
Q 2569 213 2275 61 
Q 1981 -91 1556 -91 
Q 1019 -91 701 211 
Q 384 513 384 1019 
Q 384 1609 779 1909 
Q 1175 2209 1959 2209 
L 2766 2209 
L 2766 2266 
Q 2766 2663 2505 2880 
Q 2244 3097 1772 3097 
Q 1472 3097 1187 3025 
Q 903 2953 641 2809 
L 641 3341 
Q 956 3463 1253 3523 
Q 1550 3584 1831 3584 
Q 2591 3584 2966 3190 
Q 3341 2797 3341 1997 
z
" transform="scale(0.015625)"/>
       <path id="DejaVuSans-74" d="M 1172 4494 
L 1172 3500 
L 2356 3500 
L 2356 3053 
L 1172 3053 
L 1172 1153 
Q 1172 725 1289 603 
Q 1406 481 1766 481 
L 2356 481 
L 2356 0 
L 1766 0 
Q 1100 0 847 248 
Q 594 497 594 1153 
L 594 3053 
L 172 3053 
L 172 3500 
L 594 3500 
L 594 4494 
L 1172 4494 
z
" transform="scale(0.015625)"/>
       <path id="DejaVuSans-69" d="M 603 3500 
L 1178 3500 
L 1178 0 
L 603 0 
L 603 3500 
z
M 603 4863 
L 1178 4863 
L 1178 4134 
L 603 4134 
L 603 4863 
z
" transform="scale(0.015625)"/>
       <path id="DejaVuSans-76" d="M 191 3500 
L 800 3500 
L 1894 563 
L 2988 3500 
L 3597 3500 
L 2284 0 
L 1503 0 
L 191 3500 
z
" transform="scale(0.015625)"/>
       <path id="DejaVuSans-20" transform="scale(0.015625)"/>
       <path id="DejaVuSans-64" d="M 2906 2969 
L 2906 4863 
L 3481 4863 
L 3481 0 
L 2906 0 
L 2906 525 
Q 2725 213 2448 61 
Q 2172 -91 1784 -91 
Q 1150 -91 751 415 
Q 353 922 353 1747 
Q 353 2572 751 3078 
Q 1150 3584 1784 3584 
Q 2172 3584 2448 3432 
Q 2725 3281 2906 2969 
z
M 947 1747 
Q 947 1113 1208 752 
Q 1469 391 1925 391 
Q 2381 391 2643 752 
Q 2906 1113 2906 1747 
Q 2906 2381 2643 2742 
Q 2381 3103 1925 3103 
Q 1469 3103 1208 2742 
Q 947 2381 947 1747 
z
" transform="scale(0.015625)"/>
       <path id="DejaVuSans-73" d="M 2834 3397 
L 2834 2853 
Q 2591 2978 2328 3040 
Q 2066 3103 1784 3103 
Q 1356 3103 1142 2972 
Q 928 2841 928 2578 
Q 928 2378 1081 2264 
Q 1234 2150 1697 2047 
L 1894 2003 
Q 2506 1872 2764 1633 
Q 3022 1394 3022 966 
Q 3022 478 2636 193 
Q 2250 -91 1575 -91 
Q 1294 -91 989 -36 
Q 684 19 347 128 
L 347 722 
Q 666 556 975 473 
Q 1284 391 1588 391 
Q 1994 391 2212 530 
Q 2431 669 2431 922 
Q 2431 1156 2273 1281 
Q 2116 1406 1581 1522 
L 1381 1569 
Q 847 1681 609 1914 
Q 372 2147 372 2553 
Q 372 3047 722 3315 
Q 1072 3584 1716 3584 
Q 2034 3584 2315 3537 
Q 2597 3491 2834 3397 
z
" transform="scale(0.015625)"/>
       <path id="DejaVuSans-6e" d="M 3513 2113 
L 3513 0 
L 2938 0 
L 2938 2094 
Q 2938 2591 2744 2837 
Q 2550 3084 2163 3084 
Q 1697 3084 1428 2787 
Q 1159 2491 1159 1978 
L 1159 0 
L 581 0 
L 581 3500 
L 1159 3500 
L 1159 2956 
Q 1366 3272 1645 3428 
Q 1925 3584 2291 3584 
Q 2894 3584 3203 3211 
Q 3513 2838 3513 2113 
z
" transform="scale(0.015625)"/>
       <path id="DejaVuSans-63" d="M 3122 3366 
L 3122 2828 
Q 2878 2963 2633 3030 
Q 2388 3097 2138 3097 
Q 1578 3097 1268 2742 
Q 959 2388 959 1747 
Q 959 1106 1268 751 
Q 1578 397 2138 397 
Q 2388 397 2633 464 
Q 2878 531 3122 666 
L 3122 134 
Q 2881 22 2623 -34 
Q 2366 -91 2075 -91 
Q 1284 -91 818 406 
Q 353 903 353 1747 
Q 353 2603 823 3093 
Q 1294 3584 2113 3584 
Q 2378 3584 2631 3529 
Q 2884 3475 3122 3366 
z
" transform="scale(0.015625)"/>
       <path id="DejaVuSans-66" d="M 2375 4863 
L 2375 4384 
L 1825 4384 
Q 1516 4384 1395 4259 
Q 1275 4134 1275 3809 
L 1275 3500 
L 2222 3500 
L 2222 3053 
L 1275 3053 
L 1275 0 
L 697 0 
L 697 3053 
L 147 3053 
L 147 3500 
L 697 3500 
L 697 3744 
Q 697 4328 969 4595 
Q 1241 4863 1831 4863 
L 2375 4863 
z
" transform="scale(0.015625)"/>
       <path id="DejaVuSans-6f" d="M 1959 3097 
Q 1497 3097 1228 2736 
Q 959 2375 959 1747 
Q 959 1119 1226 758 
Q 1494 397 1959 397 
Q 2419 397 2687 759 
Q 2956 1122 2956 1747 
Q 2956 2369 2687 2733 
Q 2419 3097 1959 3097 
z
M 1959 3584 
Q 2709 3584 3137 3096 
Q 3566 2609 3566 1747 
Q 3566 888 3137 398 
Q 2709 -91 1959 -91 
Q 1206 -91 779 398 
Q 353 888 353 1747 
Q 353 2609 779 3096 
Q 1206 3584 1959 3584 
z
" transform="scale(0.015625)"/>
       <path id="DejaVuSans-6d" d="M 3328 2828 
Q 3544 3216 3844 3400 
Q 4144 3584 4550 3584 
Q 5097 3584 5394 3201 
Q 5691 2819 5691 2113 
L 5691 0 
L 5113 0 
L 5113 2094 
Q 5113 2597 4934 2840 
Q 4756 3084 4391 3084 
Q 3944 3084 3684 2787 
Q 3425 2491 3425 1978 
L 3425 0 
L 2847 0 
L 2847 2094 
Q 2847 2600 2669 2842 
Q 2491 3084 2119 3084 
Q 1678 3084 1418 2786 
Q 1159 2488 1159 1978 
L 1159 0 
L 581 0 
L 581 3500 
L 1159 3500 
L 1159 2956 
Q 1356 3278 1631 3431 
Q 1906 3584 2284 3584 
Q 2666 3584 2933 3390 
Q 3200 3197 3328 2828 
z
" transform="scale(0.015625)"/>
       <path id="DejaVuSans-52" d="M 2841 2188 
Q 3044 2119 3236 1894 
Q 3428 1669 3622 1275 
L 4263 0 
L 3584 0 
L 2988 1197 
Q 2756 1666 2539 1819 
Q 2322 1972 1947 1972 
L 1259 1972 
L 1259 0 
L 628 0 
L 628 4666 
L 2053 4666 
Q 2853 4666 3247 4331 
Q 3641 3997 3641 3322 
Q 3641 2881 3436 2590 
Q 3231 2300 2841 2188 
z
M 1259 4147 
L 1259 2491 
L 2053 2491 
Q 2509 2491 2742 2702 
Q 2975 2913 2975 3322 
Q 2975 3731 2742 3939 
Q 2509 4147 2053 4147 
L 1259 4147 
z
" transform="scale(0.015625)"/>
       <path id="DejaVuSans-4f" d="M 2522 4238 
Q 1834 4238 1429 3725 
Q 1025 3213 1025 2328 
Q 1025 1447 1429 934 
Q 1834 422 2522 422 
Q 3209 422 3611 934 
Q 4013 1447 4013 2328 
Q 4013 3213 3611 3725 
Q 3209 4238 2522 4238 
z
M 2522 4750 
Q 3503 4750 4090 4092 
Q 4678 3434 4678 2328 
Q 4678 1225 4090 567 
Q 3503 -91 2522 -91 
Q 1538 -91 948 565 
Q 359 1222 359 2328 
Q 359 3434 948 4092 
Q 1538 4750 2522 4750 
z
" transform="scale(0.015625)"/>
       <path id="DejaVuSans-49" d="M 628 4666 
L 1259 4666 
L 1259 0 
L 628 0 
L 628 4666 
z
" transform="scale(0.015625)"/>
       <path id="DejaVuSans-28" d="M 1984 4856 
Q 1566 4138 1362 3434 
Q 1159 2731 1159 2009 
Q 1159 1288 1364 580 
Q 1569 -128 1984 -844 
L 1484 -844 
Q 1016 -109 783 600 
Q 550 1309 550 2009 
Q 550 2706 781 3412 
Q 1013 4119 1484 4856 
L 1984 4856 
z
" transform="scale(0.015625)"/>
       <path id="DejaVuSans-Oblique-3c3" d="M 2219 3044 
Q 1744 3044 1422 2700 
Q 1081 2341 969 1747 
Q 844 1119 1044 756 
Q 1241 397 1706 397 
Q 2166 397 2503 759 
Q 2844 1122 2966 1747 
Q 3075 2319 2881 2700 
Q 2700 3044 2219 3044 
z
M 2309 3503 
L 4219 3500 
L 4106 2925 
L 3463 2925 
Q 3706 2438 3575 1747 
Q 3406 888 2884 400 
Q 2359 -91 1609 -91 
Q 856 -91 525 400 
Q 194 888 363 1747 
Q 528 2609 1050 3097 
Q 1484 3503 2309 3503 
z
" transform="scale(0.015625)"/>
       <path id="DejaVuSans-29" d="M 513 4856 
L 1013 4856 
Q 1481 4119 1714 3412 
Q 1947 2706 1947 2009 
Q 1947 1309 1714 600 
Q 1481 -109 1013 -844 
L 513 -844 
Q 928 -128 1133 580 
Q 1338 1288 1338 2009 
Q 1338 2731 1133 3434 
Q 928 4138 513 4856 
z
" transform="scale(0.015625)"/>
      </defs>
      <use xlink:href="#DejaVuSans-72" transform="translate(0 0.015625)"/>
      <use xlink:href="#DejaVuSans-65" transform="translate(41.113281 0.015625)"/>
      <use xlink:href="#DejaVuSans-6c" transform="translate(102.636719 0.015625)"/>
      <use xlink:href="#DejaVuSans-61" transform="translate(130.419922 0.015625)"/>
      <use xlink:href="#DejaVuSans-74" transform="translate(191.699219 0.015625)"/>
      <use xlink:href="#DejaVuSans-69" transform="translate(230.908203 0.015625)"/>
      <use xlink:href="#DejaVuSans-76" transform="translate(258.691406 0.015625)"/>
      <use xlink:href="#DejaVuSans-65" transform="translate(317.871094 0.015625)"/>
      <use xlink:href="#DejaVuSans-20" transform="translate(379.394531 0.015625)"/>
      <use xlink:href="#DejaVuSans-64" transform="translate(411.181641 0.015625)"/>
      <use xlink:href="#DejaVuSans-69" transform="translate(474.658203 0.015625)"/>
      <use xlink:href="#DejaVuSans-73" transform="translate(502.441406 0.015625)"/>
      <use xlink:href="#DejaVuSans-74" transform="translate(554.541016 0.015625)"/>
      <use xlink:href="#DejaVuSans-61" transform="translate(593.75 0.015625)"/>
      <use xlink:href="#DejaVuSans-6e" transform="translate(655.029297 0.015625)"/>
      <use xlink:href="#DejaVuSans-63" transform="translate(718.408203 0.015625)"/>
      <use xlink:href="#DejaVuSans-65" transform="translate(773.388672 0.015625)"/>
      <use xlink:href="#DejaVuSans-20" transform="translate(834.912109 0.015625)"/>
      <use xlink:href="#DejaVuSans-66" transform="translate(866.699219 0.015625)"/>
      <use xlink:href="#DejaVuSans-72" transform="translate(901.904297 0.015625)"/>
      <use xlink:href="#DejaVuSans-6f" transform="translate(943.017578 0.015625)"/>
      <use xlink:href="#DejaVuSans-6d" transform="translate(1004.199219 0.015625)"/>
      <use xlink:href="#DejaVuSans-20" transform="translate(1101.611328 0.015625)"/>
      <use xlink:href="#DejaVuSans-52" transform="translate(1133.398438 0.015625)"/>
      <use xlink:href="#DejaVuSans-4f" transform="translate(1202.880859 0.015625)"/>
      <use xlink:href="#DejaVuSans-49" transform="translate(1281.591797 0.015625)"/>
      <use xlink:href="#DejaVuSans-20" transform="translate(1311.083984 0.015625)"/>
      <use xlink:href="#DejaVuSans-63" transform="translate(1342.871094 0.015625)"/>
      <use xlink:href="#DejaVuSans-65" transform="translate(1397.851562 0.015625)"/>
      <use xlink:href="#DejaVuSans-6e" transform="translate(1459.375 0.015625)"/>
      <use xlink:href="#DejaVuSans-74" transform="translate(1522.753906 0.015625)"/>
      <use xlink:href="#DejaVuSans-65" transform="translate(1561.962891 0.015625)"/>
      <use xlink:href="#DejaVuSans-72" transform="translate(1623.486328 0.015625)"/>
      <use xlink:href="#DejaVuSans-20" transform="translate(1664.599609 0.015625)"/>
      <use xlink:href="#DejaVuSans-28" transform="translate(1696.386719 0.015625)"/>
      <use xlink:href="#DejaVuSans-Oblique-3c3" transform="translate(1735.400391 0.015625)"/>
      <use xlink:href="#DejaVuSans-29" transform="translate(1798.779297 0.015625)"/>
     </g>
    </g>
   </g>
   <g id="matplotlib.axis_2">
    <g id="ytick_1">
     <g id="line2d_6">
      <defs>
       <path id="m916761d48c" d="M 0 0 
L -3.5 0 
" style="stroke: #000000; stroke-width: 0.8"/>
      </defs>
      <g>
       <use xlink:href="#m916761d48c" x="46" y="369.741176" style="stroke: #000000; stroke-width: 0.8"/>
      </g>
     </g>
     <g id="text_7">
      <!-- 0 -->
      <g transform="translate(32.6375 373.540395) scale(0.1 -0.1)">
       <use xlink:href="#DejaVuSans-30"/>
      </g>
     </g>
    </g>
    <g id="ytick_2">
     <g id="line2d_7">
      <g>
       <use xlink:href="#m916761d48c" x="46" y="337.976471" style="stroke: #000000; stroke-width: 0.8"/>
      </g>
     </g>
     <g id="text_8">
      <!-- 5 -->
      <g transform="translate(32.6375 341.775689) scale(0.1 -0.1)">
       <defs>
        <path id="DejaVuSans-35" d="M 691 4666 
L 3169 4666 
L 3169 4134 
L 1269 4134 
L 1269 2991 
Q 1406 3038 1543 3061 
Q 1681 3084 1819 3084 
Q 2600 3084 3056 2656 
Q 3513 2228 3513 1497 
Q 3513 744 3044 326 
Q 2575 -91 1722 -91 
Q 1428 -91 1123 -41 
Q 819 9 494 109 
L 494 744 
Q 775 591 1075 516 
Q 1375 441 1709 441 
Q 2250 441 2565 725 
Q 2881 1009 2881 1497 
Q 2881 1984 2565 2268 
Q 2250 2553 1709 2553 
Q 1456 2553 1204 2497 
Q 953 2441 691 2322 
L 691 4666 
z
" transform="scale(0.015625)"/>
       </defs>
       <use xlink:href="#DejaVuSans-35"/>
      </g>
     </g>
    </g>
    <g id="ytick_3">
     <g id="line2d_8">
      <g>
       <use xlink:href="#m916761d48c" x="46" y="306.211765" style="stroke: #000000; stroke-width: 0.8"/>
      </g>
     </g>
     <g id="text_9">
      <!-- 10 -->
      <g transform="translate(26.275 310.010983) scale(0.1 -0.1)">
       <use xlink:href="#DejaVuSans-31"/>
       <use xlink:href="#DejaVuSans-30" x="63.623047"/>
      </g>
     </g>
    </g>
    <g id="text_10">
     <!-- BOLD % change -->
     <g transform="translate(19.779375 383.094375) rotate(-90) scale(0.12 -0.12)">
      <defs>
       <path id="DejaVuSans-42" d="M 1259 2228 
L 1259 519 
L 2272 519 
Q 2781 519 3026 730 
Q 3272 941 3272 1375 
Q 3272 1813 3026 2020 
Q 2781 2228 2272 2228 
L 1259 2228 
z
M 1259 4147 
L 1259 2741 
L 2194 2741 
Q 2656 2741 2882 2914 
Q 3109 3088 3109 3444 
Q 3109 3797 2882 3972 
Q 2656 4147 2194 4147 
L 1259 4147 
z
M 628 4666 
L 2241 4666 
Q 2963 4666 3353 4366 
Q 3744 4066 3744 3513 
Q 3744 3084 3544 2831 
Q 3344 2578 2956 2516 
Q 3422 2416 3680 2098 
Q 3938 1781 3938 1306 
Q 3938 681 3513 340 
Q 3088 0 2303 0 
L 628 0 
L 628 4666 
z
" transform="scale(0.015625)"/>
       <path id="DejaVuSans-4c" d="M 628 4666 
L 1259 4666 
L 1259 531 
L 3531 531 
L 3531 0 
L 628 0 
L 628 4666 
z
" transform="scale(0.015625)"/>
       <path id="DejaVuSans-44" d="M 1259 4147 
L 1259 519 
L 2022 519 
Q 2988 519 3436 956 
Q 3884 1394 3884 2338 
Q 3884 3275 3436 3711 
Q 2988 4147 2022 4147 
L 1259 4147 
z
M 628 4666 
L 1925 4666 
Q 3281 4666 3915 4102 
Q 4550 3538 4550 2338 
Q 4550 1131 3912 565 
Q 3275 0 1925 0 
L 628 0 
L 628 4666 
z
" transform="scale(0.015625)"/>
       <path id="DejaVuSans-25" d="M 4653 2053 
Q 4381 2053 4226 1822 
Q 4072 1591 4072 1178 
Q 4072 772 4226 539 
Q 4381 306 4653 306 
Q 4919 306 5073 539 
Q 5228 772 5228 1178 
Q 5228 1588 5073 1820 
Q 4919 2053 4653 2053 
z
M 4653 2450 
Q 5147 2450 5437 2106 
Q 5728 1763 5728 1178 
Q 5728 594 5436 251 
Q 5144 -91 4653 -91 
Q 4153 -91 3862 251 
Q 3572 594 3572 1178 
Q 3572 1766 3864 2108 
Q 4156 2450 4653 2450 
z
M 1428 4353 
Q 1159 4353 1004 4120 
Q 850 3888 850 3481 
Q 850 3069 1003 2837 
Q 1156 2606 1428 2606 
Q 1700 2606 1854 2837 
Q 2009 3069 2009 3481 
Q 2009 3884 1853 4118 
Q 1697 4353 1428 4353 
z
M 4250 4750 
L 4750 4750 
L 1831 -91 
L 1331 -91 
L 4250 4750 
z
M 1428 4750 
Q 1922 4750 2215 4408 
Q 2509 4066 2509 3481 
Q 2509 2891 2217 2550 
Q 1925 2209 1428 2209 
Q 931 2209 642 2551 
Q 353 2894 353 3481 
Q 353 4063 643 4406 
Q 934 4750 1428 4750 
z
" transform="scale(0.015625)"/>
       <path id="DejaVuSans-68" d="M 3513 2113 
L 3513 0 
L 2938 0 
L 2938 2094 
Q 2938 2591 2744 2837 
Q 2550 3084 2163 3084 
Q 1697 3084 1428 2787 
Q 1159 2491 1159 1978 
L 1159 0 
L 581 0 
L 581 4863 
L 1159 4863 
L 1159 2956 
Q 1366 3272 1645 3428 
Q 1925 3584 2291 3584 
Q 2894 3584 3203 3211 
Q 3513 2838 3513 2113 
z
" transform="scale(0.015625)"/>
       <path id="DejaVuSans-67" d="M 2906 1791 
Q 2906 2416 2648 2759 
Q 2391 3103 1925 3103 
Q 1463 3103 1205 2759 
Q 947 2416 947 1791 
Q 947 1169 1205 825 
Q 1463 481 1925 481 
Q 2391 481 2648 825 
Q 2906 1169 2906 1791 
z
M 3481 434 
Q 3481 -459 3084 -895 
Q 2688 -1331 1869 -1331 
Q 1566 -1331 1297 -1286 
Q 1028 -1241 775 -1147 
L 775 -588 
Q 1028 -725 1275 -790 
Q 1522 -856 1778 -856 
Q 2344 -856 2625 -561 
Q 2906 -266 2906 331 
L 2906 616 
Q 2728 306 2450 153 
Q 2172 0 1784 0 
Q 1141 0 747 490 
Q 353 981 353 1791 
Q 353 2603 747 3093 
Q 1141 3584 1784 3584 
Q 2172 3584 2450 3431 
Q 2728 3278 2906 2969 
L 2906 3500 
L 3481 3500 
L 3481 434 
z
" transform="scale(0.015625)"/>
      </defs>
      <use xlink:href="#DejaVuSans-42"/>
      <use xlink:href="#DejaVuSans-4f" x="66.853516"/>
      <use xlink:href="#DejaVuSans-4c" x="145.564453"/>
      <use xlink:href="#DejaVuSans-44" x="201.277344"/>
      <use xlink:href="#DejaVuSans-20" x="278.279297"/>
      <use xlink:href="#DejaVuSans-25" x="310.066406"/>
      <use xlink:href="#DejaVuSans-20" x="405.085938"/>
      <use xlink:href="#DejaVuSans-63" x="436.873047"/>
      <use xlink:href="#DejaVuSans-68" x="491.853516"/>
      <use xlink:href="#DejaVuSans-61" x="555.232422"/>
      <use xlink:href="#DejaVuSans-6e" x="616.511719"/>
      <use xlink:href="#DejaVuSans-67" x="679.890625"/>
      <use xlink:href="#DejaVuSans-65" x="743.367188"/>
     </g>
    </g>
   </g>
   <g id="line2d_9">
    <path d="M 180 407.858824 
L 180 331.623529 
" clip-path="url(#p13c713a687)" style="fill: none; stroke-dasharray: 5.55,2.4; stroke-dashoffset: 0; stroke: #4c4c4c; stroke-width: 1.5"/>
   </g>
   <g id="line2d_10">
    <path d="M 65.454545 369.741176 
L 294.545455 369.741176 
" clip-path="url(#p13c713a687)" style="fill: none; stroke-dasharray: 5.55,2.4; stroke-dashoffset: 0; stroke: #4c4c4c; stroke-width: 1.5"/>
   </g>
   <g id="line2d_11">
    <path d="M 65.454545 355.642606 
L 70.12987 355.664022 
L 74.805195 355.661284 
L 79.480519 355.55424 
L 84.155844 355.520196 
L 88.831169 355.528466 
L 93.506494 355.57289 
L 98.181818 355.552624 
L 102.857143 355.40595 
L 107.532468 355.20212 
L 112.207792 355.082392 
L 116.883117 355.003466 
L 121.558442 354.825015 
L 126.233766 354.642654 
L 130.909091 354.592591 
L 135.584416 354.541314 
L 140.25974 354.482021 
L 144.935065 354.442444 
L 149.61039 354.303125 
L 154.285714 354.231954 
L 158.961039 354.071081 
L 163.636364 353.938296 
L 168.311688 353.845458 
L 172.987013 353.763603 
L 177.662338 353.673855 
L 182.337662 353.502331 
L 187.012987 353.296729 
L 191.688312 353.078208 
L 196.363636 352.932738 
L 201.038961 352.818453 
L 205.714286 352.722187 
L 210.38961 352.636624 
L 215.064935 352.61866 
L 219.74026 352.63737 
L 224.415584 352.645479 
L 229.090909 352.652017 
L 233.766234 352.657181 
L 238.441558 352.616905 
L 243.116883 352.536624 
L 247.792208 352.470373 
L 252.467532 352.465052 
L 257.142857 352.446398 
L 261.818182 352.400179 
L 266.493506 352.533999 
L 271.168831 352.66719 
L 275.844156 352.712134 
L 280.519481 352.679296 
L 285.194805 352.648999 
L 289.87013 352.637481 
L 294.545455 352.637531 
" clip-path="url(#p13c713a687)" style="fill: none; stroke: #808080; stroke-width: 1.5; stroke-linecap: square"/>
   </g>
   <g id="line2d_12">
    <path d="M 65.454545 355.292022 
L 70.12987 355.292022 
L 74.805195 355.292022 
L 79.480519 355.292022 
L 84.155844 355.292022 
L 88.831169 355.173206 
L 93.506494 355.386686 
L 98.181818 355.583771 
L 102.857143 355.795141 
L 107.532468 355.773324 
L 112.207792 355.883279 
L 116.883117 355.94328 
L 121.558442 355.246422 
L 126.233766 354.398659 
L 130.909091 353.987208 
L 135.584416 353.361139 
L 140.25974 352.530538 
L 144.935065 351.942267 
L 149.61039 351.776778 
L 154.285714 351.608286 
L 158.961039 351.607087 
L 163.636364 351.635329 
L 168.311688 351.349259 
L 172.987013 351.197097 
L 177.662338 351.166924 
L 182.337662 351.178499 
L 187.012987 350.872966 
L 191.688312 350.186213 
L 196.363636 349.827951 
L 201.038961 349.5815 
L 205.714286 349.394683 
L 210.38961 348.875284 
L 215.064935 348.259151 
L 219.74026 347.449603 
L 224.415584 346.876759 
L 229.090909 346.313608 
L 233.766234 345.63117 
L 238.441558 344.877128 
L 243.116883 344.580709 
L 247.792208 344.179818 
L 252.467532 343.713606 
L 257.142857 343.625267 
L 261.818182 343.500501 
L 266.493506 343.886517 
L 271.168831 344.403437 
L 275.844156 344.736243 
L 280.519481 344.636477 
L 285.194805 344.603954 
L 289.87013 344.934826 
L 294.545455 345.234364 
" clip-path="url(#p13c713a687)" style="fill: none; stroke: #808080; stroke-opacity: 0.2; stroke-width: 1.5; stroke-linecap: square"/>
   </g>
   <g id="line2d_13">
    <path d="M 65.454545 355.014592 
L 70.12987 355.014592 
L 74.805195 355.016302 
L 79.480519 354.841592 
L 84.155844 354.640312 
L 88.831169 354.511415 
L 93.506494 354.241509 
L 98.181818 354.435945 
L 102.857143 354.57983 
L 107.532468 354.628824 
L 112.207792 354.415874 
L 116.883117 354.116477 
L 121.558442 353.746429 
L 126.233766 353.311826 
L 130.909091 353.018313 
L 135.584416 353.105551 
L 140.25974 353.199301 
L 144.935065 353.173951 
L 149.61039 352.90332 
L 154.285714 352.90517 
L 158.961039 352.789304 
L 163.636364 352.551583 
L 168.311688 352.566561 
L 172.987013 352.355772 
L 177.662338 352.232515 
L 182.337662 352.159827 
L 187.012987 352.029952 
L 191.688312 351.962484 
L 196.363636 351.785615 
L 201.038961 351.733396 
L 205.714286 351.991264 
L 210.38961 352.369548 
L 215.064935 352.586983 
L 219.74026 352.529427 
L 224.415584 352.314021 
L 229.090909 352.14873 
L 233.766234 352.015888 
L 238.441558 351.874172 
L 243.116883 351.698238 
L 247.792208 351.756703 
L 252.467532 351.99476 
L 257.142857 352.219991 
L 261.818182 352.42882 
L 266.493506 352.709345 
L 271.168831 352.942035 
L 275.844156 352.989553 
L 280.519481 352.90204 
L 285.194805 352.672585 
L 289.87013 352.379545 
L 294.545455 352.122691 
" clip-path="url(#p13c713a687)" style="fill: none; stroke: #808080; stroke-opacity: 0.2; stroke-width: 1.5; stroke-linecap: square"/>
   </g>
   <g id="line2d_14">
    <path d="M 65.454545 358.66333 
L 70.12987 358.66333 
L 74.805195 358.66333 
L 79.480519 358.609523 
L 84.155844 358.570126 
L 88.831169 358.575191 
L 93.506494 358.657542 
L 98.181818 358.702829 
L 102.857143 358.550191 
L 107.532468 358.428135 
L 112.207792 358.297286 
L 116.883117 358.186526 
L 121.558442 358.000813 
L 126.233766 357.853303 
L 130.909091 357.819744 
L 135.584416 357.710799 
L 140.25974 357.605079 
L 144.935065 357.661653 
L 149.61039 357.541318 
L 154.285714 357.350169 
L 158.961039 357.186788 
L 163.636364 357.192364 
L 168.311688 357.199288 
L 172.987013 357.148143 
L 177.662338 357.012267 
L 182.337662 356.810043 
L 187.012987 356.457534 
L 191.688312 356.256802 
L 196.363636 356.148706 
L 201.038961 356.099263 
L 205.714286 356.065785 
L 210.38961 356.137446 
L 215.064935 356.188108 
L 219.74026 356.24673 
L 224.415584 356.250172 
L 229.090909 356.352404 
L 233.766234 356.503432 
L 238.441558 356.641385 
L 243.116883 356.722818 
L 247.792208 356.871206 
L 252.467532 357.027813 
L 257.142857 357.171527 
L 261.818182 357.336848 
L 266.493506 357.425777 
L 271.168831 357.457249 
L 275.844156 357.575471 
L 280.519481 357.746196 
L 285.194805 357.905601 
L 289.87013 357.946032 
L 294.545455 357.988793 
" clip-path="url(#p13c713a687)" style="fill: none; stroke: #808080; stroke-opacity: 0.2; stroke-width: 1.5; stroke-linecap: square"/>
   </g>
   <g id="line2d_15">
    <path d="M 65.454545 358.045526 
L 70.12987 358.045526 
L 74.805195 357.941009 
L 79.480519 357.780662 
L 84.155844 357.771486 
L 88.831169 357.803025 
L 93.506494 357.755966 
L 98.181818 357.640648 
L 102.857143 357.555139 
L 107.532468 357.445455 
L 112.207792 357.527117 
L 116.883117 357.23472 
L 121.558442 356.970383 
L 126.233766 356.87966 
L 130.909091 356.883182 
L 135.584416 356.853459 
L 140.25974 356.750899 
L 144.935065 356.467258 
L 149.61039 356.172969 
L 154.285714 355.992861 
L 158.961039 355.626075 
L 163.636364 355.203775 
L 168.311688 354.906757 
L 172.987013 354.557282 
L 177.662338 354.169131 
L 182.337662 353.832709 
L 187.012987 353.523507 
L 191.688312 353.443961 
L 196.363636 353.304477 
L 201.038961 353.355027 
L 205.714286 353.312413 
L 210.38961 353.276796 
L 215.064935 353.152669 
L 219.74026 353.231966 
L 224.415584 353.459754 
L 229.090909 353.803067 
L 233.766234 354.173339 
L 238.441558 354.484286 
L 243.116883 354.453182 
L 247.792208 354.326894 
L 252.467532 354.214724 
L 257.142857 354.362672 
L 261.818182 354.526528 
L 266.493506 354.62771 
L 271.168831 354.76287 
L 275.844156 354.861746 
L 280.519481 354.778623 
L 285.194805 354.586352 
L 289.87013 354.377442 
L 294.545455 354.07501 
" clip-path="url(#p13c713a687)" style="fill: none; stroke: #808080; stroke-opacity: 0.2; stroke-width: 1.5; stroke-linecap: square"/>
   </g>
   <g id="line2d_16">
    <path d="M 65.454545 362.48865 
L 70.12987 362.48865 
L 74.805195 362.48865 
L 79.480519 361.755748 
L 84.155844 361.062845 
L 88.831169 360.877078 
L 93.506494 360.648175 
L 98.181818 360.446537 
L 102.857143 360.20772 
L 107.532468 359.956903 
L 112.207792 359.926304 
L 116.883117 359.793133 
L 121.558442 359.679121 
L 126.233766 359.380115 
L 130.909091 358.950292 
L 135.584416 358.507587 
L 140.25974 357.902283 
L 144.935065 357.23752 
L 149.61039 356.625856 
L 154.285714 356.080019 
L 158.961039 355.492814 
L 163.636364 354.936765 
L 168.311688 354.597288 
L 172.987013 354.486537 
L 177.662338 354.36852 
L 182.337662 354.068196 
L 187.012987 353.72664 
L 191.688312 353.323459 
L 196.363636 352.827524 
L 201.038961 352.587645 
L 205.714286 352.311017 
L 210.38961 351.897135 
L 215.064935 351.838831 
L 219.74026 351.684097 
L 224.415584 351.792057 
L 229.090909 351.943248 
L 233.766234 352.055967 
L 238.441558 352.017044 
L 243.116883 351.809486 
L 247.792208 351.773843 
L 252.467532 351.85526 
L 257.142857 351.89382 
L 261.818182 351.743033 
L 266.493506 351.861296 
L 271.168831 351.910658 
L 275.844156 351.787247 
L 280.519481 351.364713 
L 285.194805 351.041983 
L 289.87013 350.92551 
L 294.545455 350.985777 
" clip-path="url(#p13c713a687)" style="fill: none; stroke: #808080; stroke-opacity: 0.2; stroke-width: 1.5; stroke-linecap: square"/>
   </g>
   <g id="line2d_17">
    <path d="M 65.454545 350.336415 
L 70.12987 350.336415 
L 74.805195 350.423324 
L 79.480519 350.587938 
L 84.155844 350.65028 
L 88.831169 350.542112 
L 93.506494 350.703685 
L 98.181818 350.797592 
L 102.857143 350.728403 
L 107.532468 350.657531 
L 112.207792 350.842166 
L 116.883117 351.293811 
L 121.558442 351.491199 
L 126.233766 351.326414 
L 130.909091 351.486843 
L 135.584416 351.559999 
L 140.25974 351.748063 
L 144.935065 351.702154 
L 149.61039 351.797465 
L 154.285714 351.983969 
L 158.961039 352.01388 
L 163.636364 352.105732 
L 168.311688 352.309484 
L 172.987013 352.824577 
L 177.662338 353.079164 
L 182.337662 353.15794 
L 187.012987 353.529234 
L 191.688312 353.701348 
L 196.363636 353.985721 
L 201.038961 354.425571 
L 205.714286 354.929802 
L 210.38961 355.426075 
L 215.064935 355.821756 
L 219.74026 355.773344 
L 224.415584 355.23129 
L 229.090909 354.811092 
L 233.766234 354.50907 
L 238.441558 353.96868 
L 243.116883 353.470765 
L 247.792208 353.000076 
L 252.467532 352.540306 
L 257.142857 352.054942 
L 261.818182 351.507019 
L 266.493506 351.739027 
L 271.168831 352.12592 
L 275.844156 352.377367 
L 280.519481 352.71561 
L 285.194805 352.992828 
L 289.87013 353.211323 
L 294.545455 353.155067 
" clip-path="url(#p13c713a687)" style="fill: none; stroke: #808080; stroke-opacity: 0.2; stroke-width: 1.5; stroke-linecap: square"/>
   </g>
   <g id="line2d_18">
    <path d="M 65.454545 355.518593 
L 70.12987 355.518593 
L 74.805195 355.518593 
L 79.480519 355.518593 
L 84.155844 355.518593 
L 88.831169 355.610658 
L 93.506494 355.654733 
L 98.181818 355.547555 
L 102.857143 355.212623 
L 107.532468 354.913034 
L 112.207792 354.681125 
L 116.883117 354.634267 
L 121.558442 354.975738 
L 126.233766 355.201025 
L 130.909091 355.22396 
L 135.584416 354.960847 
L 140.25974 354.824289 
L 144.935065 354.9908 
L 149.61039 355.147536 
L 154.285714 355.148224 
L 158.961039 354.981793 
L 163.636364 354.969297 
L 168.311688 354.993516 
L 172.987013 355.120783 
L 177.662338 355.295579 
L 182.337662 355.348492 
L 187.012987 355.621224 
L 191.688312 356.063546 
L 196.363636 356.390906 
L 201.038961 356.100232 
L 205.714286 355.887104 
L 210.38961 355.735572 
L 215.064935 355.583062 
L 219.74026 355.30502 
L 224.415584 355.069552 
L 229.090909 354.91805 
L 233.766234 354.79897 
L 238.441558 354.52819 
L 243.116883 354.385594 
L 247.792208 354.415868 
L 252.467532 354.641104 
L 257.142857 354.88057 
L 261.818182 354.934152 
L 266.493506 354.907473 
L 271.168831 354.81973 
L 275.844156 354.66851 
L 280.519481 354.685343 
L 285.194805 354.81012 
L 289.87013 354.857702 
L 294.545455 354.732562 
" clip-path="url(#p13c713a687)" style="fill: none; stroke: #808080; stroke-opacity: 0.2; stroke-width: 1.5; stroke-linecap: square"/>
   </g>
   <g id="line2d_19">
    <path d="M 65.454545 353.806658 
L 70.12987 353.79964 
L 74.805195 353.779796 
L 79.480519 353.911505 
L 84.155844 353.903442 
L 88.831169 353.833857 
L 93.506494 353.658165 
L 98.181818 353.486554 
L 102.857143 353.217131 
L 107.532468 353.064349 
L 112.207792 352.947998 
L 116.883117 352.897808 
L 121.558442 352.717856 
L 126.233766 352.643937 
L 130.909091 352.521931 
L 135.584416 352.541646 
L 140.25974 352.663223 
L 144.935065 352.847505 
L 149.61039 352.910351 
L 154.285714 352.900822 
L 158.961039 352.79774 
L 163.636364 352.677639 
L 168.311688 352.348391 
L 172.987013 352.052575 
L 177.662338 351.924487 
L 182.337662 351.879887 
L 187.012987 351.808421 
L 191.688312 351.855854 
L 196.363636 352.214782 
L 201.038961 352.319575 
L 205.714286 352.322942 
L 210.38961 352.409473 
L 215.064935 352.616074 
L 219.74026 352.913559 
L 224.415584 353.088136 
L 229.090909 353.3086 
L 233.766234 353.294345 
L 238.441558 353.371784 
L 243.116883 353.37196 
L 247.792208 353.237155 
L 252.467532 353.126726 
L 257.142857 353.10466 
L 261.818182 353.145378 
L 266.493506 353.299053 
L 271.168831 353.412144 
L 275.844156 353.510675 
L 280.519481 353.422144 
L 285.194805 353.339309 
L 289.87013 353.203276 
L 294.545455 353.090672 
" clip-path="url(#p13c713a687)" style="fill: none; stroke: #808080; stroke-opacity: 0.2; stroke-width: 1.5; stroke-linecap: square"/>
   </g>
   <g id="line2d_20">
    <path d="M 65.454545 357.710025 
L 70.12987 357.710025 
L 74.805195 357.592629 
L 79.480519 357.277333 
L 84.155844 357.07868 
L 88.831169 357.052605 
L 93.506494 357.08986 
L 98.181818 357.129243 
L 102.857143 357.209258 
L 107.532468 357.158896 
L 112.207792 357.147601 
L 116.883117 357.348681 
L 121.558442 357.350152 
L 126.233766 357.236083 
L 130.909091 357.270514 
L 135.584416 357.296698 
L 140.25974 357.419479 
L 144.935065 357.658067 
L 149.61039 357.894552 
L 154.285714 357.943244 
L 158.961039 357.547326 
L 163.636364 357.249255 
L 168.311688 356.949171 
L 172.987013 356.652286 
L 177.662338 356.558229 
L 182.337662 356.519498 
L 187.012987 356.47036 
L 191.688312 356.153164 
L 196.363636 355.804198 
L 201.038961 355.409419 
L 205.714286 355.169785 
L 210.38961 355.03747 
L 215.064935 354.948086 
L 219.74026 355.12737 
L 224.415584 355.360441 
L 229.090909 355.287434 
L 233.766234 355.599258 
L 238.441558 355.919975 
L 243.116883 356.029876 
L 247.792208 356.124919 
L 252.467532 356.166051 
L 257.142857 356.231361 
L 261.818182 356.538821 
L 266.493506 356.955697 
L 271.168831 357.199901 
L 275.844156 357.388145 
L 280.519481 357.412134 
L 285.194805 357.443343 
L 289.87013 357.536636 
L 294.545455 357.757665 
" clip-path="url(#p13c713a687)" style="fill: none; stroke: #808080; stroke-opacity: 0.2; stroke-width: 1.5; stroke-linecap: square"/>
   </g>
   <g id="line2d_21">
    <path d="M 65.454545 361.432951 
L 70.12987 361.432951 
L 74.805195 361.432951 
L 79.480519 361.331131 
L 84.155844 361.164934 
L 88.831169 360.82435 
L 93.506494 360.834514 
L 98.181818 360.768551 
L 102.857143 360.641629 
L 107.532468 360.41415 
L 112.207792 360.277085 
L 116.883117 360.300104 
L 121.558442 360.188784 
L 126.233766 360.052533 
L 130.909091 359.906096 
L 135.584416 359.754391 
L 140.25974 359.645698 
L 144.935065 359.38861 
L 149.61039 359.041602 
L 154.285714 358.891078 
L 158.961039 358.772651 
L 163.636364 358.575498 
L 168.311688 358.38065 
L 172.987013 358.126733 
L 177.662338 357.983835 
L 182.337662 357.745892 
L 187.012987 357.423182 
L 191.688312 357.196652 
L 196.363636 357.007635 
L 201.038961 356.752447 
L 205.714286 356.475128 
L 210.38961 356.312212 
L 215.064935 356.201528 
L 219.74026 356.199412 
L 224.415584 356.326089 
L 229.090909 356.525708 
L 233.766234 356.713912 
L 238.441558 356.899325 
L 243.116883 357.014588 
L 247.792208 357.115174 
L 252.467532 357.245543 
L 257.142857 357.255771 
L 261.818182 357.117699 
L 266.493506 356.930173 
L 271.168831 356.822959 
L 275.844156 356.769506 
L 280.519481 356.887948 
L 285.194805 357.071089 
L 289.87013 357.257338 
L 294.545455 357.478955 
" clip-path="url(#p13c713a687)" style="fill: none; stroke: #808080; stroke-opacity: 0.2; stroke-width: 1.5; stroke-linecap: square"/>
   </g>
   <g id="line2d_22">
    <path d="M 65.454545 349.412334 
L 70.12987 349.676342 
L 74.805195 349.932469 
L 79.480519 350.10054 
L 84.155844 350.837737 
L 88.831169 351.449167 
L 93.506494 351.476202 
L 98.181818 350.595953 
L 102.857143 349.856684 
L 107.532468 349.095727 
L 112.207792 348.282089 
L 116.883117 347.46845 
L 121.558442 346.654351 
L 126.233766 346.391418 
L 130.909091 346.753071 
L 135.584416 347.069617 
L 140.25974 347.511867 
L 144.935065 348.133546 
L 149.61039 348.291313 
L 154.285714 348.97978 
L 158.961039 349.525821 
L 163.636364 349.894998 
L 168.311688 350.418403 
L 172.987013 350.696608 
L 177.662338 350.441987 
L 182.337662 349.967303 
L 187.012987 349.314081 
L 191.688312 348.43674 
L 196.363636 347.75655 
L 201.038961 347.423857 
L 205.714286 346.982068 
L 210.38961 346.381412 
L 215.064935 346.498666 
L 219.74026 347.309873 
L 224.415584 347.813046 
L 229.090909 348.074549 
L 233.766234 348.187996 
L 238.441558 348.216928 
L 243.116883 348.136599 
L 247.792208 348.03996 
L 252.467532 348.170215 
L 257.142857 347.829791 
L 261.818182 347.438369 
L 266.493506 347.46334 
L 271.168831 347.512403 
L 275.844156 347.212289 
L 280.519481 346.884097 
L 285.194805 346.720043 
L 289.87013 346.800757 
L 294.545455 347.239146 
" clip-path="url(#p13c713a687)" style="fill: none; stroke: #808080; stroke-opacity: 0.2; stroke-width: 1.5; stroke-linecap: square"/>
   </g>
   <g id="line2d_23">
    <path d="M 65.454545 349.990182 
L 70.12987 349.990182 
L 74.805195 349.854327 
L 79.480519 349.644292 
L 84.155844 349.751891 
L 88.831169 350.088927 
L 93.506494 350.76764 
L 98.181818 351.496316 
L 102.857143 351.317652 
L 107.532468 350.889111 
L 112.207792 350.760774 
L 116.883117 350.824336 
L 121.558442 350.878938 
L 126.233766 351.03688 
L 130.909091 351.289942 
L 135.584416 351.774033 
L 140.25974 351.983528 
L 144.935065 352.105996 
L 149.61039 351.534441 
L 154.285714 350.999828 
L 158.961039 350.511697 
L 163.636364 350.267322 
L 168.311688 350.126725 
L 172.987013 349.944846 
L 177.662338 349.853618 
L 182.337662 349.359685 
L 187.012987 348.783643 
L 191.688312 348.358278 
L 196.363636 348.138793 
L 201.038961 348.033508 
L 205.714286 347.824247 
L 210.38961 347.781062 
L 215.064935 347.729003 
L 219.74026 347.878033 
L 224.415584 348.164433 
L 229.090909 348.337714 
L 233.766234 348.402822 
L 238.441558 348.603961 
L 243.116883 348.765679 
L 247.792208 348.802862 
L 252.467532 348.884515 
L 257.142857 348.726402 
L 261.818182 348.584977 
L 266.493506 348.602581 
L 271.168831 348.636978 
L 275.844156 348.668856 
L 280.519481 348.716228 
L 285.194805 348.600781 
L 289.87013 348.219389 
L 294.545455 347.789668 
" clip-path="url(#p13c713a687)" style="fill: none; stroke: #808080; stroke-opacity: 0.2; stroke-width: 1.5; stroke-linecap: square"/>
   </g>
   <g id="patch_3">
    <path d="M 46 388.8 
L 46 280.8 
" style="fill: none; stroke: #000000; stroke-width: 0.8; stroke-linejoin: miter; stroke-linecap: square"/>
   </g>
   <g id="patch_4">
    <path d="M 54 396.8 
L 306 396.8 
" style="fill: none; stroke: #000000; stroke-width: 0.8; stroke-linejoin: miter; stroke-linecap: square"/>
   </g>
   <g id="legend_1">
    <g id="patch_5">
     <path d="M 251.342187 303.478125 
L 299 303.478125 
Q 301 303.478125 301 301.478125 
L 301 287.8 
Q 301 285.8 299 285.8 
L 251.342187 285.8 
Q 249.342187 285.8 249.342187 287.8 
L 249.342187 301.478125 
Q 249.342187 303.478125 251.342187 303.478125 
z
" style="fill: #ffffff; opacity: 0.8; stroke: #cccccc; stroke-linejoin: miter"/>
    </g>
    <g id="line2d_24">
     <path d="M 253.342187 293.898438 
L 263.342188 293.898438 
L 273.342188 293.898438 
" style="fill: none; stroke: #808080; stroke-width: 1.5; stroke-linecap: square"/>
    </g>
    <g id="text_11">
     <!-- sur -->
     <g transform="translate(281.342188 297.398438) scale(0.1 -0.1)">
      <defs>
       <path id="DejaVuSans-75" d="M 544 1381 
L 544 3500 
L 1119 3500 
L 1119 1403 
Q 1119 906 1312 657 
Q 1506 409 1894 409 
Q 2359 409 2629 706 
Q 2900 1003 2900 1516 
L 2900 3500 
L 3475 3500 
L 3475 0 
L 2900 0 
L 2900 538 
Q 2691 219 2414 64 
Q 2138 -91 1772 -91 
Q 1169 -91 856 284 
Q 544 659 544 1381 
z
M 1991 3584 
L 1991 3584 
z
" transform="scale(0.015625)"/>
      </defs>
      <use xlink:href="#DejaVuSans-73"/>
      <use xlink:href="#DejaVuSans-75" x="52.099609"/>
      <use xlink:href="#DejaVuSans-72" x="115.478516"/>
     </g>
    </g>
   </g>
  </g>
  <g id="axes_2">
   <g id="patch_6">
    <path d="M 54 259.2 
L 306 259.2 
L 306 151.2 
L 54 151.2 
z
" style="fill: #ffffff"/>
   </g>
   <g id="PolyCollection_2">
    <defs>
     <path id="mae5e6b4298" d="M 65.454545 -213.694804 
L 65.454545 -209.847695 
L 70.12987 -209.803429 
L 74.805195 -209.68032 
L 79.480519 -209.481708 
L 84.155844 -209.516503 
L 88.831169 -209.574922 
L 93.506494 -209.647811 
L 98.181818 -209.835646 
L 102.857143 -209.964993 
L 107.532468 -210.065859 
L 112.207792 -210.232397 
L 116.883117 -210.420734 
L 121.558442 -210.678217 
L 126.233766 -210.960817 
L 130.909091 -211.205518 
L 135.584416 -211.448874 
L 140.25974 -211.797522 
L 144.935065 -212.041623 
L 149.61039 -212.226986 
L 154.285714 -212.400795 
L 158.961039 -212.553079 
L 163.636364 -212.752047 
L 168.311688 -212.93935 
L 172.987013 -213.123427 
L 177.662338 -213.330734 
L 182.337662 -213.490653 
L 187.012987 -213.640402 
L 191.688312 -213.779157 
L 196.363636 -213.901539 
L 201.038961 -213.936353 
L 205.714286 -213.98491 
L 210.38961 -214.102578 
L 215.064935 -214.139057 
L 219.74026 -214.150416 
L 224.415584 -214.243794 
L 229.090909 -214.288841 
L 233.766234 -214.305873 
L 238.441558 -214.226256 
L 243.116883 -214.116669 
L 247.792208 -214.016623 
L 252.467532 -213.957266 
L 257.142857 -213.837615 
L 261.818182 -213.696655 
L 266.493506 -213.532338 
L 271.168831 -213.307302 
L 275.844156 -213.131993 
L 280.519481 -212.95395 
L 285.194805 -212.769747 
L 289.87013 -212.561325 
L 294.545455 -212.371936 
L 294.545455 -215.592688 
L 294.545455 -215.592688 
L 289.87013 -215.887066 
L 285.194805 -216.21916 
L 280.519481 -216.53042 
L 275.844156 -216.877286 
L 271.168831 -217.264564 
L 266.493506 -217.686644 
L 261.818182 -218.011441 
L 257.142857 -218.305689 
L 252.467532 -218.526235 
L 247.792208 -218.463713 
L 243.116883 -218.338225 
L 238.441558 -218.212817 
L 233.766234 -218.030211 
L 229.090909 -217.776967 
L 224.415584 -217.47218 
L 219.74026 -217.128828 
L 215.064935 -216.955787 
L 210.38961 -216.789521 
L 205.714286 -216.56494 
L 201.038961 -216.448705 
L 196.363636 -216.403998 
L 191.688312 -216.26835 
L 187.012987 -216.124966 
L 182.337662 -216.001426 
L 177.662338 -215.836272 
L 172.987013 -215.644312 
L 168.311688 -215.510427 
L 163.636364 -215.303902 
L 158.961039 -215.106279 
L 154.285714 -215.082883 
L 149.61039 -215.025484 
L 144.935065 -215.029528 
L 140.25974 -214.861806 
L 135.584416 -214.626917 
L 130.909091 -214.42359 
L 126.233766 -214.251953 
L 121.558442 -214.139273 
L 116.883117 -213.905055 
L 112.207792 -213.646867 
L 107.532468 -213.387699 
L 102.857143 -213.22808 
L 98.181818 -212.973605 
L 93.506494 -212.761852 
L 88.831169 -212.689697 
L 84.155844 -212.638247 
L 79.480519 -212.740712 
L 74.805195 -213.155022 
L 70.12987 -213.557508 
L 65.454545 -213.694804 
z
"/>
    </defs>
    <g clip-path="url(#p61bef78d49)">
     <use xlink:href="#mae5e6b4298" x="0" y="432" style="fill: #808080; fill-opacity: 0.4"/>
    </g>
   </g>
   <g id="matplotlib.axis_3">
    <g id="xtick_6">
     <g id="line2d_25">
      <g>
       <use xlink:href="#m39d2b8d129" x="65.454545" y="267.2" style="stroke: #000000; stroke-width: 0.8"/>
      </g>
     </g>
    </g>
    <g id="xtick_7">
     <g id="line2d_26">
      <g>
       <use xlink:href="#m39d2b8d129" x="122.727273" y="267.2" style="stroke: #000000; stroke-width: 0.8"/>
      </g>
     </g>
    </g>
    <g id="xtick_8">
     <g id="line2d_27">
      <g>
       <use xlink:href="#m39d2b8d129" x="180" y="267.2" style="stroke: #000000; stroke-width: 0.8"/>
      </g>
     </g>
    </g>
    <g id="xtick_9">
     <g id="line2d_28">
      <g>
       <use xlink:href="#m39d2b8d129" x="237.272727" y="267.2" style="stroke: #000000; stroke-width: 0.8"/>
      </g>
     </g>
    </g>
    <g id="xtick_10">
     <g id="line2d_29">
      <g>
       <use xlink:href="#m39d2b8d129" x="294.545455" y="267.2" style="stroke: #000000; stroke-width: 0.8"/>
      </g>
     </g>
    </g>
   </g>
   <g id="matplotlib.axis_4">
    <g id="ytick_4">
     <g id="line2d_30">
      <g>
       <use xlink:href="#m916761d48c" x="46" y="240.141176" style="stroke: #000000; stroke-width: 0.8"/>
      </g>
     </g>
     <g id="text_12">
      <!-- 0 -->
      <g transform="translate(32.6375 243.940395) scale(0.1 -0.1)">
       <use xlink:href="#DejaVuSans-30"/>
      </g>
     </g>
    </g>
    <g id="ytick_5">
     <g id="line2d_31">
      <g>
       <use xlink:href="#m916761d48c" x="46" y="208.376471" style="stroke: #000000; stroke-width: 0.8"/>
      </g>
     </g>
     <g id="text_13">
      <!-- 5 -->
      <g transform="translate(32.6375 212.175689) scale(0.1 -0.1)">
       <use xlink:href="#DejaVuSans-35"/>
      </g>
     </g>
    </g>
    <g id="ytick_6">
     <g id="line2d_32">
      <g>
       <use xlink:href="#m916761d48c" x="46" y="176.611765" style="stroke: #000000; stroke-width: 0.8"/>
      </g>
     </g>
     <g id="text_14">
      <!-- 10 -->
      <g transform="translate(26.275 180.410983) scale(0.1 -0.1)">
       <use xlink:href="#DejaVuSans-31"/>
       <use xlink:href="#DejaVuSans-30" x="63.623047"/>
      </g>
     </g>
    </g>
    <g id="text_15">
     <!-- BOLD % change -->
     <g transform="translate(19.779375 253.494375) rotate(-90) scale(0.12 -0.12)">
      <use xlink:href="#DejaVuSans-42"/>
      <use xlink:href="#DejaVuSans-4f" x="66.853516"/>
      <use xlink:href="#DejaVuSans-4c" x="145.564453"/>
      <use xlink:href="#DejaVuSans-44" x="201.277344"/>
      <use xlink:href="#DejaVuSans-20" x="278.279297"/>
      <use xlink:href="#DejaVuSans-25" x="310.066406"/>
      <use xlink:href="#DejaVuSans-20" x="405.085938"/>
      <use xlink:href="#DejaVuSans-63" x="436.873047"/>
      <use xlink:href="#DejaVuSans-68" x="491.853516"/>
      <use xlink:href="#DejaVuSans-61" x="555.232422"/>
      <use xlink:href="#DejaVuSans-6e" x="616.511719"/>
      <use xlink:href="#DejaVuSans-67" x="679.890625"/>
      <use xlink:href="#DejaVuSans-65" x="743.367188"/>
     </g>
    </g>
   </g>
   <g id="line2d_33">
    <path d="M 180 278.258824 
L 180 202.023529 
" clip-path="url(#p61bef78d49)" style="fill: none; stroke-dasharray: 5.55,2.4; stroke-dashoffset: 0; stroke: #4c4c4c; stroke-width: 1.5"/>
   </g>
   <g id="line2d_34">
    <path d="M 65.454545 240.141176 
L 294.545455 240.141176 
" clip-path="url(#p61bef78d49)" style="fill: none; stroke-dasharray: 5.55,2.4; stroke-dashoffset: 0; stroke: #4c4c4c; stroke-width: 1.5"/>
   </g>
   <g id="line2d_35">
    <path d="M 65.454545 220.22875 
L 70.12987 220.319531 
L 74.805195 220.582329 
L 79.480519 220.88879 
L 84.155844 220.922625 
L 88.831169 220.86769 
L 93.506494 220.795168 
L 98.181818 220.595375 
L 102.857143 220.403464 
L 107.532468 220.273221 
L 112.207792 220.060368 
L 116.883117 219.837105 
L 121.558442 219.591255 
L 126.233766 219.393615 
L 130.909091 219.185446 
L 135.584416 218.962104 
L 140.25974 218.670336 
L 144.935065 218.464424 
L 149.61039 218.373765 
L 154.285714 218.258161 
L 158.961039 218.170321 
L 163.636364 217.972025 
L 168.311688 217.775111 
L 172.987013 217.61613 
L 177.662338 217.416497 
L 182.337662 217.25396 
L 187.012987 217.117316 
L 191.688312 216.976246 
L 196.363636 216.847231 
L 201.038961 216.807471 
L 205.714286 216.725075 
L 210.38961 216.553951 
L 215.064935 216.452578 
L 219.74026 216.360378 
L 224.415584 216.142013 
L 229.090909 215.967096 
L 233.766234 215.831958 
L 238.441558 215.780463 
L 243.116883 215.772553 
L 247.792208 215.759832 
L 252.467532 215.75825 
L 257.142857 215.928348 
L 261.818182 216.145952 
L 266.493506 216.390509 
L 271.168831 216.714067 
L 275.844156 216.995361 
L 280.519481 217.257815 
L 285.194805 217.505546 
L 289.87013 217.775804 
L 294.545455 218.017688 
" clip-path="url(#p61bef78d49)" style="fill: none; stroke: #808080; stroke-width: 1.5; stroke-linecap: square"/>
   </g>
   <g id="line2d_36">
    <path d="M 65.454545 224.180698 
L 70.12987 224.180698 
L 74.805195 224.180698 
L 79.480519 224.180698 
L 84.155844 223.843432 
L 88.831169 223.547249 
L 93.506494 223.44406 
L 98.181818 223.228684 
L 102.857143 223.482706 
L 107.532468 223.718354 
L 112.207792 223.735266 
L 116.883117 224.196928 
L 121.558442 223.994147 
L 126.233766 222.900119 
L 130.909091 222.064351 
L 135.584416 220.945976 
L 140.25974 218.817179 
L 144.935065 217.033686 
L 149.61039 215.454323 
L 154.285714 214.148691 
L 158.961039 213.125652 
L 163.636364 212.082979 
L 168.311688 211.155419 
L 172.987013 211.362395 
L 177.662338 211.734919 
L 182.337662 211.994385 
L 187.012987 212.246009 
L 191.688312 212.449229 
L 196.363636 212.159572 
L 201.038961 211.79931 
L 205.714286 211.014496 
L 210.38961 209.617262 
L 215.064935 208.221545 
L 219.74026 206.684409 
L 224.415584 204.348652 
L 229.090909 202.208819 
L 233.766234 200.33374 
L 238.441558 198.335369 
L 243.116883 196.556862 
L 247.792208 194.94952 
L 252.467532 194.184528 
L 257.142857 195.151833 
L 261.818182 196.51845 
L 266.493506 197.899294 
L 271.168831 199.523901 
L 275.844156 201.32554 
L 280.519481 202.928837 
L 285.194805 204.252285 
L 289.87013 205.24059 
L 294.545455 205.992276 
" clip-path="url(#p61bef78d49)" style="fill: none; stroke: #808080; stroke-opacity: 0.2; stroke-width: 1.5; stroke-linecap: square"/>
   </g>
   <g id="line2d_37">
    <path d="M 65.454545 224.407425 
L 70.12987 224.58501 
L 74.805195 224.765189 
L 79.480519 224.748793 
L 84.155844 224.679927 
L 88.831169 224.449156 
L 93.506494 224.121089 
L 98.181818 223.703226 
L 102.857143 223.32772 
L 107.532468 223.046347 
L 112.207792 223.055263 
L 116.883117 223.148386 
L 121.558442 223.256097 
L 126.233766 223.244585 
L 130.909091 223.123927 
L 135.584416 223.148598 
L 140.25974 223.16807 
L 144.935065 223.230468 
L 149.61039 223.288777 
L 154.285714 223.253769 
L 158.961039 223.123796 
L 163.636364 222.991451 
L 168.311688 223.008425 
L 172.987013 223.010416 
L 177.662338 223.16253 
L 182.337662 223.284462 
L 187.012987 223.297056 
L 191.688312 223.415013 
L 196.363636 223.381586 
L 201.038961 223.309107 
L 205.714286 223.148507 
L 210.38961 222.884694 
L 215.064935 222.798794 
L 219.74026 222.550181 
L 224.415584 222.20868 
L 229.090909 222.13515 
L 233.766234 222.08545 
L 238.441558 222.028691 
L 243.116883 222.01794 
L 247.792208 222.108676 
L 252.467532 222.337919 
L 257.142857 222.493713 
L 261.818182 222.614249 
L 266.493506 222.710949 
L 271.168831 222.703824 
L 275.844156 222.566182 
L 280.519481 222.505698 
L 285.194805 222.444049 
L 289.87013 222.350668 
L 294.545455 222.056767 
" clip-path="url(#p61bef78d49)" style="fill: none; stroke: #808080; stroke-opacity: 0.2; stroke-width: 1.5; stroke-linecap: square"/>
   </g>
   <g id="line2d_38">
    <path d="M 65.454545 226.802008 
L 70.12987 226.802008 
L 74.805195 226.761444 
L 79.480519 226.565267 
L 84.155844 226.2741 
L 88.831169 225.938372 
L 93.506494 225.485188 
L 98.181818 225.225537 
L 102.857143 225.362069 
L 107.532468 225.425583 
L 112.207792 225.14587 
L 116.883117 224.829862 
L 121.558442 224.4982 
L 126.233766 224.258459 
L 130.909091 224.082292 
L 135.584416 223.884553 
L 140.25974 223.512904 
L 144.935065 223.281979 
L 149.61039 222.998424 
L 154.285714 222.817572 
L 158.961039 222.619995 
L 163.636364 222.718753 
L 168.311688 222.791149 
L 172.987013 222.761758 
L 177.662338 222.704207 
L 182.337662 222.601095 
L 187.012987 222.510884 
L 191.688312 222.456595 
L 196.363636 222.391112 
L 201.038961 222.535653 
L 205.714286 222.73967 
L 210.38961 223.025698 
L 215.064935 223.380146 
L 219.74026 223.737673 
L 224.415584 223.934811 
L 229.090909 224.071395 
L 233.766234 224.168628 
L 238.441558 224.263158 
L 243.116883 224.336916 
L 247.792208 224.397074 
L 252.467532 224.493427 
L 257.142857 224.66022 
L 261.818182 224.735202 
L 266.493506 224.803269 
L 271.168831 224.766566 
L 275.844156 224.78427 
L 280.519481 224.841369 
L 285.194805 224.95449 
L 289.87013 225.078924 
L 294.545455 225.2986 
" clip-path="url(#p61bef78d49)" style="fill: none; stroke: #808080; stroke-opacity: 0.2; stroke-width: 1.5; stroke-linecap: square"/>
   </g>
   <g id="line2d_39">
    <path d="M 65.454545 223.847484 
L 70.12987 223.825179 
L 74.805195 223.762009 
L 79.480519 224.133872 
L 84.155844 224.351841 
L 88.831169 224.617376 
L 93.506494 224.634832 
L 98.181818 224.715904 
L 102.857143 224.794964 
L 107.532468 224.808727 
L 112.207792 224.63819 
L 116.883117 224.453312 
L 121.558442 224.209395 
L 126.233766 223.86641 
L 130.909091 223.51968 
L 135.584416 223.240354 
L 140.25974 223.075044 
L 144.935065 222.92957 
L 149.61039 222.687667 
L 154.285714 222.392919 
L 158.961039 221.918147 
L 163.636364 221.473087 
L 168.311688 220.942744 
L 172.987013 220.348783 
L 177.662338 219.866427 
L 182.337662 219.490626 
L 187.012987 219.033569 
L 191.688312 218.604851 
L 196.363636 218.267092 
L 201.038961 218.109136 
L 205.714286 218.051052 
L 210.38961 217.797288 
L 215.064935 217.674933 
L 219.74026 217.561687 
L 224.415584 217.479324 
L 229.090909 217.542663 
L 233.766234 217.585 
L 238.441558 217.968223 
L 243.116883 218.523017 
L 247.792208 218.992898 
L 252.467532 219.019973 
L 257.142857 219.058901 
L 261.818182 219.257193 
L 266.493506 219.440442 
L 271.168831 219.641669 
L 275.844156 219.635499 
L 280.519481 219.621865 
L 285.194805 219.865368 
L 289.87013 220.05037 
L 294.545455 220.027863 
" clip-path="url(#p61bef78d49)" style="fill: none; stroke: #808080; stroke-opacity: 0.2; stroke-width: 1.5; stroke-linecap: square"/>
   </g>
   <g id="line2d_40">
    <path d="M 65.454545 220.162341 
L 70.12987 220.162341 
L 74.805195 220.139696 
L 79.480519 220.515303 
L 84.155844 220.711057 
L 88.831169 220.73484 
L 93.506494 221.175803 
L 98.181818 221.395123 
L 102.857143 221.324543 
L 107.532468 221.228454 
L 112.207792 221.444603 
L 116.883117 221.35965 
L 121.558442 221.08973 
L 126.233766 220.566121 
L 130.909091 219.894177 
L 135.584416 219.381751 
L 140.25974 218.835903 
L 144.935065 218.271991 
L 149.61039 217.780261 
L 154.285714 217.473063 
L 158.961039 217.628141 
L 163.636364 217.426272 
L 168.311688 217.024053 
L 172.987013 216.534951 
L 177.662338 216.024621 
L 182.337662 215.611868 
L 187.012987 215.210284 
L 191.688312 214.787006 
L 196.363636 214.287171 
L 201.038961 213.74186 
L 205.714286 213.407938 
L 210.38961 213.369091 
L 215.064935 213.603967 
L 219.74026 213.922691 
L 224.415584 213.944691 
L 229.090909 214.033115 
L 233.766234 214.169238 
L 238.441558 214.478677 
L 243.116883 214.719195 
L 247.792208 214.668202 
L 252.467532 214.638374 
L 257.142857 214.704792 
L 261.818182 214.708384 
L 266.493506 214.708571 
L 271.168831 214.715612 
L 275.844156 214.725705 
L 280.519481 214.638523 
L 285.194805 214.390421 
L 289.87013 214.350978 
L 294.545455 214.306466 
" clip-path="url(#p61bef78d49)" style="fill: none; stroke: #808080; stroke-opacity: 0.2; stroke-width: 1.5; stroke-linecap: square"/>
   </g>
   <g id="line2d_41">
    <path d="M 65.454545 215.998277 
L 70.12987 215.998277 
L 74.805195 216.347694 
L 79.480519 217.2771 
L 84.155844 217.660212 
L 88.831169 217.932351 
L 93.506494 218.163026 
L 98.181818 217.895314 
L 102.857143 217.468355 
L 107.532468 217.197318 
L 112.207792 216.887071 
L 116.883117 216.459764 
L 121.558442 216.007299 
L 126.233766 216.167029 
L 130.909091 216.466692 
L 135.584416 216.782084 
L 140.25974 216.728802 
L 144.935065 216.761023 
L 149.61039 216.731157 
L 154.285714 216.828428 
L 158.961039 216.822543 
L 163.636364 216.545765 
L 168.311688 216.738378 
L 172.987013 216.541343 
L 177.662338 216.00208 
L 182.337662 215.946085 
L 187.012987 215.871081 
L 191.688312 216.121253 
L 196.363636 216.365355 
L 201.038961 216.512016 
L 205.714286 216.874642 
L 210.38961 217.049261 
L 215.064935 217.420498 
L 219.74026 217.892674 
L 224.415584 217.927936 
L 229.090909 217.743885 
L 233.766234 217.695267 
L 238.441558 218.005857 
L 243.116883 218.261448 
L 247.792208 218.349936 
L 252.467532 218.484142 
L 257.142857 218.605756 
L 261.818182 218.701016 
L 266.493506 218.650253 
L 271.168831 218.93837 
L 275.844156 219.290092 
L 280.519481 219.652344 
L 285.194805 220.07622 
L 289.87013 220.364022 
L 294.545455 220.595521 
" clip-path="url(#p61bef78d49)" style="fill: none; stroke: #808080; stroke-opacity: 0.2; stroke-width: 1.5; stroke-linecap: square"/>
   </g>
   <g id="line2d_42">
    <path d="M 65.454545 204.556475 
L 70.12987 205.349387 
L 74.805195 207.764739 
L 79.480519 209.381545 
L 84.155844 210.221385 
L 88.831169 209.831477 
L 93.506494 209.17621 
L 98.181818 208.624551 
L 102.857143 207.304312 
L 107.532468 206.454218 
L 112.207792 205.542274 
L 116.883117 205.043602 
L 121.558442 205.098207 
L 126.233766 205.888243 
L 130.909091 205.953041 
L 135.584416 205.451825 
L 140.25974 205.591104 
L 144.935065 205.992399 
L 149.61039 207.684808 
L 154.285714 208.941469 
L 158.961039 210.307389 
L 163.636364 210.94576 
L 168.311688 211.518818 
L 172.987013 212.231234 
L 177.662338 212.573072 
L 182.337662 212.379886 
L 187.012987 212.266438 
L 191.688312 212.166395 
L 196.363636 212.86793 
L 201.038961 213.920845 
L 205.714286 214.510856 
L 210.38961 214.373697 
L 215.064935 214.068827 
L 219.74026 213.661835 
L 224.415584 213.048677 
L 229.090909 212.96626 
L 233.766234 212.63428 
L 238.441558 212.210654 
L 243.116883 212.137163 
L 247.792208 212.029234 
L 252.467532 212.009388 
L 257.142857 212.084108 
L 261.818182 212.227642 
L 266.493506 212.794026 
L 271.168831 213.52877 
L 275.844156 214.129993 
L 280.519481 214.668882 
L 285.194805 215.061754 
L 289.87013 215.188549 
L 294.545455 215.602443 
" clip-path="url(#p61bef78d49)" style="fill: none; stroke: #808080; stroke-opacity: 0.2; stroke-width: 1.5; stroke-linecap: square"/>
   </g>
   <g id="line2d_43">
    <path d="M 65.454545 219.433112 
L 70.12987 219.440741 
L 74.805195 219.421403 
L 79.480519 219.273534 
L 84.155844 219.419615 
L 88.831169 219.731092 
L 93.506494 219.973908 
L 98.181818 220.106724 
L 102.857143 220.223563 
L 107.532468 220.247989 
L 112.207792 220.258001 
L 116.883117 220.096216 
L 121.558442 219.793673 
L 126.233766 219.537432 
L 130.909091 219.294473 
L 135.584416 219.081971 
L 140.25974 218.908257 
L 144.935065 218.761501 
L 149.61039 218.525381 
L 154.285714 218.3663 
L 158.961039 218.142328 
L 163.636364 217.82845 
L 168.311688 217.554607 
L 172.987013 217.342235 
L 177.662338 217.172565 
L 182.337662 217.098682 
L 187.012987 217.028944 
L 191.688312 216.904619 
L 196.363636 216.919019 
L 201.038961 216.871454 
L 205.714286 216.701023 
L 210.38961 216.557952 
L 215.064935 216.472737 
L 219.74026 216.442472 
L 224.415584 216.419982 
L 229.090909 216.366693 
L 233.766234 216.355965 
L 238.441558 216.328843 
L 243.116883 216.187483 
L 247.792208 216.235431 
L 252.467532 216.295813 
L 257.142857 216.490858 
L 261.818182 216.604308 
L 266.493506 216.638369 
L 271.168831 216.831717 
L 275.844156 217.041105 
L 280.519481 217.267249 
L 285.194805 217.425964 
L 289.87013 217.684138 
L 294.545455 218.12021 
" clip-path="url(#p61bef78d49)" style="fill: none; stroke: #808080; stroke-opacity: 0.2; stroke-width: 1.5; stroke-linecap: square"/>
   </g>
   <g id="line2d_44">
    <path d="M 65.454545 221.824298 
L 70.12987 221.824298 
L 74.805195 221.824298 
L 79.480519 222.096085 
L 84.155844 222.421308 
L 88.831169 222.507259 
L 93.506494 222.674951 
L 98.181818 222.820611 
L 102.857143 222.842118 
L 107.532468 222.686769 
L 112.207792 222.57544 
L 116.883117 222.370266 
L 121.558442 222.344574 
L 126.233766 222.283513 
L 130.909091 222.278526 
L 135.584416 222.032349 
L 140.25974 221.797895 
L 144.935065 221.839374 
L 149.61039 221.805091 
L 154.285714 221.540641 
L 158.961039 221.25222 
L 163.636364 220.979042 
L 168.311688 220.66362 
L 172.987013 220.357085 
L 177.662338 219.993685 
L 182.337662 219.620349 
L 187.012987 219.291031 
L 191.688312 219.049122 
L 196.363636 218.859831 
L 201.038961 218.7059 
L 205.714286 218.644536 
L 210.38961 218.589729 
L 215.064935 218.444942 
L 219.74026 218.558432 
L 224.415584 218.88625 
L 229.090909 219.118623 
L 233.766234 219.307286 
L 238.441558 219.38685 
L 243.116883 219.413254 
L 247.792208 219.536096 
L 252.467532 219.576564 
L 257.142857 219.690847 
L 261.818182 219.898774 
L 266.493506 220.294723 
L 271.168831 220.638175 
L 275.844156 220.917012 
L 280.519481 221.197924 
L 285.194805 221.374896 
L 289.87013 221.508279 
L 294.545455 221.652718 
" clip-path="url(#p61bef78d49)" style="fill: none; stroke: #808080; stroke-opacity: 0.2; stroke-width: 1.5; stroke-linecap: square"/>
   </g>
   <g id="line2d_45">
    <path d="M 65.454545 229.661483 
L 70.12987 229.661483 
L 74.805195 229.751774 
L 79.480519 229.880708 
L 84.155844 229.911361 
L 88.831169 229.997924 
L 93.506494 229.820087 
L 98.181818 229.421975 
L 102.857143 228.961542 
L 107.532468 228.438529 
L 112.207792 227.903521 
L 116.883117 227.333589 
L 121.558442 226.765363 
L 126.233766 226.330784 
L 130.909091 226.042198 
L 135.584416 225.735701 
L 140.25974 225.407538 
L 144.935065 225.189102 
L 149.61039 225.10233 
L 154.285714 224.998875 
L 158.961039 224.847592 
L 163.636364 224.760208 
L 168.311688 224.598026 
L 172.987013 224.427184 
L 177.662338 224.119403 
L 182.337662 223.87767 
L 187.012987 223.677982 
L 191.688312 223.447986 
L 196.363636 223.34621 
L 201.038961 223.31691 
L 205.714286 223.321673 
L 210.38961 223.372155 
L 215.064935 223.440804 
L 219.74026 223.521789 
L 224.415584 223.656644 
L 229.090909 223.787623 
L 233.766234 223.939633 
L 238.441558 224.190538 
L 243.116883 224.397495 
L 247.792208 224.561037 
L 252.467532 224.664561 
L 257.142857 224.785893 
L 261.818182 224.930947 
L 266.493506 225.090868 
L 271.168831 225.310623 
L 275.844156 225.465192 
L 280.519481 225.666302 
L 285.194805 225.814417 
L 289.87013 225.961813 
L 294.545455 226.051862 
" clip-path="url(#p61bef78d49)" style="fill: none; stroke: #808080; stroke-opacity: 0.2; stroke-width: 1.5; stroke-linecap: square"/>
   </g>
   <g id="line2d_46">
    <path d="M 65.454545 220.979985 
L 70.12987 220.979985 
L 74.805195 220.979985 
L 79.480519 220.85328 
L 84.155844 219.292989 
L 88.831169 218.339788 
L 93.506494 217.571952 
L 98.181818 216.144554 
L 102.857143 214.94508 
L 107.532468 214.177487 
L 112.207792 213.393136 
L 116.883117 212.649769 
L 121.558442 212.189606 
L 126.233766 211.998609 
L 130.909091 211.798062 
L 135.584416 212.172145 
L 140.25974 212.860555 
L 144.935065 213.466294 
L 149.61039 213.846759 
L 154.285714 213.945527 
L 158.961039 213.858694 
L 163.636364 213.37699 
L 168.311688 212.687093 
L 172.987013 212.015667 
L 177.662338 211.16438 
L 182.337662 210.596187 
L 187.012987 210.465164 
L 191.688312 210.270187 
L 196.363636 210.031256 
L 201.038961 210.052344 
L 205.714286 210.050256 
L 210.38961 210.322337 
L 215.064935 210.780803 
L 219.74026 211.138725 
L 224.415584 211.512033 
L 229.090909 211.883725 
L 233.766234 212.152997 
L 238.441558 212.582379 
L 243.116883 212.96226 
L 247.792208 213.362013 
L 252.467532 213.420951 
L 257.142857 213.418477 
L 261.818182 213.525512 
L 266.493506 213.536229 
L 271.168831 213.692368 
L 275.844156 213.726823 
L 280.519481 213.602409 
L 285.194805 213.740289 
L 289.87013 214.398734 
L 294.545455 214.992423 
" clip-path="url(#p61bef78d49)" style="fill: none; stroke: #808080; stroke-opacity: 0.2; stroke-width: 1.5; stroke-linecap: square"/>
   </g>
   <g id="line2d_47">
    <path d="M 65.454545 210.89142 
L 70.12987 211.024968 
L 74.805195 211.289017 
L 79.480519 211.759292 
L 84.155844 212.284268 
L 88.831169 212.785401 
L 93.506494 213.300917 
L 98.181818 213.862294 
L 102.857143 214.804592 
L 107.532468 215.848877 
L 112.207792 216.145779 
L 116.883117 216.103918 
L 121.558442 215.848772 
L 126.233766 215.682076 
L 130.909091 215.707936 
L 135.584416 215.687948 
L 140.25974 215.340779 
L 144.935065 214.815707 
L 149.61039 214.580202 
L 154.285714 214.390679 
L 158.961039 214.397353 
L 163.636364 214.535546 
L 168.311688 214.619003 
L 172.987013 214.460509 
L 177.662338 214.480075 
L 182.337662 214.546229 
L 187.012987 214.509352 
L 191.688312 214.0427 
L 196.363636 213.290638 
L 201.038961 212.815118 
L 205.714286 212.23625 
L 210.38961 211.688245 
L 215.064935 211.122939 
L 219.74026 210.651963 
L 224.415584 210.336475 
L 229.090909 209.747202 
L 233.766234 209.556015 
L 238.441558 209.586322 
L 243.116883 209.757606 
L 247.792208 209.927869 
L 252.467532 209.973358 
L 257.142857 209.994778 
L 261.818182 210.029749 
L 266.493506 210.119116 
L 271.168831 210.277211 
L 275.844156 210.336917 
L 280.519481 210.502379 
L 285.194805 210.666402 
L 289.87013 211.132585 
L 294.545455 211.515104 
" clip-path="url(#p61bef78d49)" style="fill: none; stroke: #808080; stroke-opacity: 0.2; stroke-width: 1.5; stroke-linecap: square"/>
   </g>
   <g id="patch_7">
    <path d="M 46 259.2 
L 46 151.2 
" style="fill: none; stroke: #000000; stroke-width: 0.8; stroke-linejoin: miter; stroke-linecap: square"/>
   </g>
   <g id="patch_8">
    <path d="M 54 267.2 
L 306 267.2 
" style="fill: none; stroke: #000000; stroke-width: 0.8; stroke-linejoin: miter; stroke-linecap: square"/>
   </g>
  </g>
  <g id="axes_3">
   <g id="patch_9">
    <path d="M 54 129.6 
L 306 129.6 
L 306 21.6 
L 54 21.6 
z
" style="fill: #ffffff"/>
   </g>
   <g id="PolyCollection_3">
    <defs>
     <path id="m44348dcb34" d="M 65.454545 -354.379809 
L 65.454545 -347.464864 
L 70.12987 -347.426302 
L 74.805195 -347.257752 
L 79.480519 -347.263404 
L 84.155844 -347.293738 
L 88.831169 -347.293361 
L 93.506494 -347.068396 
L 98.181818 -346.890512 
L 102.857143 -346.722238 
L 107.532468 -346.726047 
L 112.207792 -346.886623 
L 116.883117 -347.071139 
L 121.558442 -347.477883 
L 126.233766 -348.062602 
L 130.909091 -348.677954 
L 135.584416 -349.323182 
L 140.25974 -349.825627 
L 144.935065 -350.282962 
L 149.61039 -350.518207 
L 154.285714 -350.725661 
L 158.961039 -350.944376 
L 163.636364 -351.235632 
L 168.311688 -351.661221 
L 172.987013 -352.082103 
L 177.662338 -352.537552 
L 182.337662 -352.865291 
L 187.012987 -352.966364 
L 191.688312 -353.057346 
L 196.363636 -353.126666 
L 201.038961 -353.268977 
L 205.714286 -353.325919 
L 210.38961 -353.379975 
L 215.064935 -353.409751 
L 219.74026 -353.440586 
L 224.415584 -353.425827 
L 229.090909 -353.256387 
L 233.766234 -353.06673 
L 238.441558 -352.883312 
L 243.116883 -352.739734 
L 247.792208 -352.593955 
L 252.467532 -352.451539 
L 257.142857 -352.344453 
L 261.818182 -352.310216 
L 266.493506 -352.161373 
L 271.168831 -352.017675 
L 275.844156 -351.826283 
L 280.519481 -351.580367 
L 285.194805 -351.329483 
L 289.87013 -351.112174 
L 294.545455 -351.00524 
L 294.545455 -356.920405 
L 294.545455 -356.920405 
L 289.87013 -357.054981 
L 285.194805 -357.386438 
L 280.519481 -357.669823 
L 275.844156 -357.948638 
L 271.168831 -358.13482 
L 266.493506 -358.293957 
L 261.818182 -358.418272 
L 257.142857 -358.295566 
L 252.467532 -358.357799 
L 247.792208 -358.448692 
L 243.116883 -358.574434 
L 238.441558 -358.707172 
L 233.766234 -358.857047 
L 229.090909 -359.147123 
L 224.415584 -359.445876 
L 219.74026 -359.495952 
L 215.064935 -359.508966 
L 210.38961 -359.498892 
L 205.714286 -359.492329 
L 201.038961 -359.354923 
L 196.363636 -359.117976 
L 191.688312 -358.922693 
L 187.012987 -358.601154 
L 182.337662 -358.362354 
L 177.662338 -357.836463 
L 172.987013 -357.145207 
L 168.311688 -356.525396 
L 163.636364 -355.912319 
L 158.961039 -355.51299 
L 154.285714 -355.234088 
L 149.61039 -355.008722 
L 144.935065 -354.762343 
L 140.25974 -354.16343 
L 135.584416 -353.634913 
L 130.909091 -353.042685 
L 126.233766 -352.597526 
L 121.558442 -352.125214 
L 116.883117 -352.071638 
L 112.207792 -352.514896 
L 107.532468 -352.866577 
L 102.857143 -352.981167 
L 98.181818 -353.196628 
L 93.506494 -353.57855 
L 88.831169 -354.037818 
L 84.155844 -354.005115 
L 79.480519 -354.020293 
L 74.805195 -354.056374 
L 70.12987 -354.287082 
L 65.454545 -354.379809 
z
"/>
    </defs>
    <g clip-path="url(#pf30557f17a)">
     <use xlink:href="#m44348dcb34" x="0" y="432" style="fill: #808080; fill-opacity: 0.4"/>
    </g>
   </g>
   <g id="matplotlib.axis_5">
    <g id="xtick_11">
     <g id="line2d_48">
      <g>
       <use xlink:href="#m39d2b8d129" x="65.454545" y="137.6" style="stroke: #000000; stroke-width: 0.8"/>
      </g>
     </g>
    </g>
    <g id="xtick_12">
     <g id="line2d_49">
      <g>
       <use xlink:href="#m39d2b8d129" x="122.727273" y="137.6" style="stroke: #000000; stroke-width: 0.8"/>
      </g>
     </g>
    </g>
    <g id="xtick_13">
     <g id="line2d_50">
      <g>
       <use xlink:href="#m39d2b8d129" x="180" y="137.6" style="stroke: #000000; stroke-width: 0.8"/>
      </g>
     </g>
    </g>
    <g id="xtick_14">
     <g id="line2d_51">
      <g>
       <use xlink:href="#m39d2b8d129" x="237.272727" y="137.6" style="stroke: #000000; stroke-width: 0.8"/>
      </g>
     </g>
    </g>
    <g id="xtick_15">
     <g id="line2d_52">
      <g>
       <use xlink:href="#m39d2b8d129" x="294.545455" y="137.6" style="stroke: #000000; stroke-width: 0.8"/>
      </g>
     </g>
    </g>
   </g>
   <g id="matplotlib.axis_6">
    <g id="ytick_7">
     <g id="line2d_53">
      <g>
       <use xlink:href="#m916761d48c" x="46" y="110.541176" style="stroke: #000000; stroke-width: 0.8"/>
      </g>
     </g>
     <g id="text_16">
      <!-- 0 -->
      <g transform="translate(32.6375 114.340395) scale(0.1 -0.1)">
       <use xlink:href="#DejaVuSans-30"/>
      </g>
     </g>
    </g>
    <g id="ytick_8">
     <g id="line2d_54">
      <g>
       <use xlink:href="#m916761d48c" x="46" y="78.776471" style="stroke: #000000; stroke-width: 0.8"/>
      </g>
     </g>
     <g id="text_17">
      <!-- 5 -->
      <g transform="translate(32.6375 82.575689) scale(0.1 -0.1)">
       <use xlink:href="#DejaVuSans-35"/>
      </g>
     </g>
    </g>
    <g id="ytick_9">
     <g id="line2d_55">
      <g>
       <use xlink:href="#m916761d48c" x="46" y="47.011765" style="stroke: #000000; stroke-width: 0.8"/>
      </g>
     </g>
     <g id="text_18">
      <!-- 10 -->
      <g transform="translate(26.275 50.810983) scale(0.1 -0.1)">
       <use xlink:href="#DejaVuSans-31"/>
       <use xlink:href="#DejaVuSans-30" x="63.623047"/>
      </g>
     </g>
    </g>
    <g id="text_19">
     <!-- BOLD % change -->
     <g transform="translate(19.779375 123.894375) rotate(-90) scale(0.12 -0.12)">
      <use xlink:href="#DejaVuSans-42"/>
      <use xlink:href="#DejaVuSans-4f" x="66.853516"/>
      <use xlink:href="#DejaVuSans-4c" x="145.564453"/>
      <use xlink:href="#DejaVuSans-44" x="201.277344"/>
      <use xlink:href="#DejaVuSans-20" x="278.279297"/>
      <use xlink:href="#DejaVuSans-25" x="310.066406"/>
      <use xlink:href="#DejaVuSans-20" x="405.085938"/>
      <use xlink:href="#DejaVuSans-63" x="436.873047"/>
      <use xlink:href="#DejaVuSans-68" x="491.853516"/>
      <use xlink:href="#DejaVuSans-61" x="555.232422"/>
      <use xlink:href="#DejaVuSans-6e" x="616.511719"/>
      <use xlink:href="#DejaVuSans-67" x="679.890625"/>
      <use xlink:href="#DejaVuSans-65" x="743.367188"/>
     </g>
    </g>
   </g>
   <g id="line2d_56">
    <path d="M 180 148.658824 
L 180 72.423529 
" clip-path="url(#pf30557f17a)" style="fill: none; stroke-dasharray: 5.55,2.4; stroke-dashoffset: 0; stroke: #4c4c4c; stroke-width: 1.5"/>
   </g>
   <g id="line2d_57">
    <path d="M 65.454545 110.541176 
L 294.545455 110.541176 
" clip-path="url(#pf30557f17a)" style="fill: none; stroke-dasharray: 5.55,2.4; stroke-dashoffset: 0; stroke: #4c4c4c; stroke-width: 1.5"/>
   </g>
   <g id="line2d_58">
    <path d="M 65.454545 81.077663 
L 70.12987 81.143308 
L 74.805195 81.342937 
L 79.480519 81.358152 
L 84.155844 81.350573 
L 88.831169 81.334411 
L 93.506494 81.676527 
L 98.181818 81.95643 
L 102.857143 82.148297 
L 107.532468 82.203688 
L 112.207792 82.29924 
L 116.883117 82.428612 
L 121.558442 82.198451 
L 126.233766 81.669936 
L 130.909091 81.139681 
L 135.584416 80.520953 
L 140.25974 80.005472 
L 144.935065 79.477348 
L 149.61039 79.236535 
L 154.285714 79.020126 
L 158.961039 78.771317 
L 163.636364 78.426024 
L 168.311688 77.906691 
L 172.987013 77.386345 
L 177.662338 76.812992 
L 182.337662 76.386178 
L 187.012987 76.216241 
L 191.688312 76.00998 
L 196.363636 75.877679 
L 201.038961 75.68805 
L 205.714286 75.590876 
L 210.38961 75.560566 
L 215.064935 75.540642 
L 219.74026 75.531731 
L 224.415584 75.564149 
L 229.090909 75.798245 
L 233.766234 76.038111 
L 238.441558 76.204758 
L 243.116883 76.342916 
L 247.792208 76.478676 
L 252.467532 76.595331 
L 257.142857 76.679991 
L 261.818182 76.635756 
L 266.493506 76.772335 
L 271.168831 76.923752 
L 275.844156 77.11254 
L 280.519481 77.374905 
L 285.194805 77.64204 
L 289.87013 77.916422 
L 294.545455 78.037178 
" clip-path="url(#pf30557f17a)" style="fill: none; stroke: #808080; stroke-width: 1.5; stroke-linecap: square"/>
   </g>
   <g id="line2d_59">
    <path d="M 65.454545 83.817759 
L 70.12987 83.817759 
L 74.805195 83.817759 
L 79.480519 83.316042 
L 84.155844 82.506944 
L 88.831169 82.237415 
L 93.506494 82.025745 
L 98.181818 82.052049 
L 102.857143 82.385151 
L 107.532468 82.036599 
L 112.207792 80.647959 
L 116.883117 80.138541 
L 121.558442 79.629752 
L 126.233766 78.971357 
L 130.909091 77.665349 
L 135.584416 75.17054 
L 140.25974 72.76693 
L 144.935065 70.667221 
L 149.61039 70.571788 
L 154.285714 71.276811 
L 158.961039 72.174716 
L 163.636364 71.587687 
L 168.311688 70.089327 
L 172.987013 67.820928 
L 177.662338 66.279874 
L 182.337662 64.2401 
L 187.012987 63.098998 
L 191.688312 60.191108 
L 196.363636 58.251727 
L 201.038961 57.002604 
L 205.714286 56.451633 
L 210.38961 56.792328 
L 215.064935 56.613572 
L 219.74026 56.794625 
L 224.415584 57.06541 
L 229.090909 58.3018 
L 233.766234 58.967827 
L 238.441558 58.438575 
L 243.116883 58.674775 
L 247.792208 59.063082 
L 252.467532 59.187414 
L 257.142857 59.478314 
L 261.818182 58.679335 
L 266.493506 57.877131 
L 271.168831 57.573509 
L 275.844156 56.735873 
L 280.519481 56.540058 
L 285.194805 56.843201 
L 289.87013 57.666527 
L 294.545455 57.831796 
" clip-path="url(#pf30557f17a)" style="fill: none; stroke: #808080; stroke-opacity: 0.2; stroke-width: 1.5; stroke-linecap: square"/>
   </g>
   <g id="line2d_60">
    <path d="M 65.454545 86.959102 
L 70.12987 86.959102 
L 74.805195 86.96322 
L 79.480519 87.046362 
L 84.155844 87.030477 
L 88.831169 87.084441 
L 93.506494 87.751335 
L 98.181818 88.237456 
L 102.857143 88.567411 
L 107.532468 88.683945 
L 112.207792 88.298555 
L 116.883117 88.22861 
L 121.558442 88.138338 
L 126.233766 88.086311 
L 130.909091 87.934344 
L 135.584416 87.958449 
L 140.25974 88.449015 
L 144.935065 88.707068 
L 149.61039 88.719876 
L 154.285714 88.768307 
L 158.961039 88.868606 
L 163.636364 88.919885 
L 168.311688 89.060986 
L 172.987013 89.361737 
L 177.662338 89.62113 
L 182.337662 89.882698 
L 187.012987 90.094339 
L 191.688312 90.30096 
L 196.363636 90.549972 
L 201.038961 90.668131 
L 205.714286 90.746887 
L 210.38961 90.844854 
L 215.064935 90.8281 
L 219.74026 90.587148 
L 224.415584 90.202161 
L 229.090909 89.764476 
L 233.766234 89.574001 
L 238.441558 89.582748 
L 243.116883 89.651523 
L 247.792208 89.938949 
L 252.467532 90.215065 
L 257.142857 90.297126 
L 261.818182 90.358214 
L 266.493506 90.333056 
L 271.168831 90.300397 
L 275.844156 90.127072 
L 280.519481 90.184762 
L 285.194805 90.122585 
L 289.87013 89.858913 
L 294.545455 89.401852 
" clip-path="url(#pf30557f17a)" style="fill: none; stroke: #808080; stroke-opacity: 0.2; stroke-width: 1.5; stroke-linecap: square"/>
   </g>
   <g id="line2d_61">
    <path d="M 65.454545 95.696104 
L 70.12987 95.696104 
L 74.805195 95.696104 
L 79.480519 95.629029 
L 84.155844 95.460963 
L 88.831169 95.351226 
L 93.506494 95.575605 
L 98.181818 95.564097 
L 102.857143 95.420831 
L 107.532468 95.141059 
L 112.207792 94.601553 
L 116.883117 93.978685 
L 121.558442 93.057423 
L 126.233766 92.079429 
L 130.909091 91.240644 
L 135.584416 90.410145 
L 140.25974 89.869693 
L 144.935065 89.827724 
L 149.61039 89.988005 
L 154.285714 90.110762 
L 158.961039 89.868382 
L 163.636364 89.511247 
L 168.311688 89.092221 
L 172.987013 88.572143 
L 177.662338 88.163087 
L 182.337662 88.012381 
L 187.012987 88.020215 
L 191.688312 88.158449 
L 196.363636 88.396775 
L 201.038961 88.634126 
L 205.714286 88.898534 
L 210.38961 89.17396 
L 215.064935 89.36448 
L 219.74026 89.665512 
L 224.415584 90.079969 
L 229.090909 90.508618 
L 233.766234 90.982747 
L 238.441558 91.45559 
L 243.116883 91.796803 
L 247.792208 92.174626 
L 252.467532 92.290682 
L 257.142857 92.316435 
L 261.818182 92.25505 
L 266.493506 92.254027 
L 271.168831 92.278327 
L 275.844156 92.358801 
L 280.519481 92.357276 
L 285.194805 92.471303 
L 289.87013 92.599487 
L 294.545455 92.832029 
" clip-path="url(#pf30557f17a)" style="fill: none; stroke: #808080; stroke-opacity: 0.2; stroke-width: 1.5; stroke-linecap: square"/>
   </g>
   <g id="line2d_62">
    <path d="M 65.454545 79.530253 
L 70.12987 79.764169 
L 74.805195 80.213611 
L 79.480519 80.477724 
L 84.155844 80.998265 
L 88.831169 81.772275 
L 93.506494 82.225926 
L 98.181818 82.276422 
L 102.857143 82.307064 
L 107.532468 82.531809 
L 112.207792 82.555558 
L 116.883117 82.24587 
L 121.558442 81.744185 
L 126.233766 81.74289 
L 130.909091 81.483395 
L 135.584416 81.116482 
L 140.25974 80.834294 
L 144.935065 80.338303 
L 149.61039 80.313452 
L 154.285714 80.447317 
L 158.961039 80.266656 
L 163.636364 79.827312 
L 168.311688 79.435136 
L 172.987013 79.20403 
L 177.662338 78.760639 
L 182.337662 78.294731 
L 187.012987 78.017514 
L 191.688312 77.592603 
L 196.363636 77.078021 
L 201.038961 76.429271 
L 205.714286 75.905226 
L 210.38961 75.370433 
L 215.064935 74.808978 
L 219.74026 74.243264 
L 224.415584 74.551758 
L 229.090909 74.478909 
L 233.766234 74.525504 
L 238.441558 74.443199 
L 243.116883 74.306917 
L 247.792208 74.424481 
L 252.467532 74.888727 
L 257.142857 75.467141 
L 261.818182 75.533864 
L 266.493506 75.174656 
L 271.168831 74.714389 
L 275.844156 74.447491 
L 280.519481 73.987813 
L 285.194805 73.597818 
L 289.87013 73.71999 
L 294.545455 73.668669 
" clip-path="url(#pf30557f17a)" style="fill: none; stroke: #808080; stroke-opacity: 0.2; stroke-width: 1.5; stroke-linecap: square"/>
   </g>
   <g id="line2d_63">
    <path d="M 65.454545 85.159898 
L 70.12987 85.159898 
L 74.805195 85.002294 
L 79.480519 84.442392 
L 84.155844 83.692825 
L 88.831169 83.102918 
L 93.506494 83.249763 
L 98.181818 83.694899 
L 102.857143 83.97487 
L 107.532468 84.007148 
L 112.207792 83.903178 
L 116.883117 83.716456 
L 121.558442 83.27086 
L 126.233766 82.510782 
L 130.909091 81.488491 
L 135.584416 80.440433 
L 140.25974 79.47042 
L 144.935065 78.45231 
L 149.61039 77.193686 
L 154.285714 75.94181 
L 158.961039 75.047069 
L 163.636364 74.136017 
L 168.311688 73.197548 
L 172.987013 72.278536 
L 177.662338 71.290112 
L 182.337662 70.368031 
L 187.012987 69.473166 
L 191.688312 68.691547 
L 196.363636 67.890875 
L 201.038961 67.575942 
L 205.714286 67.79058 
L 210.38961 67.89553 
L 215.064935 67.994098 
L 219.74026 68.239499 
L 224.415584 68.647149 
L 229.090909 69.181005 
L 233.766234 69.724095 
L 238.441558 70.157112 
L 243.116883 70.430496 
L 247.792208 70.697526 
L 252.467532 71.196679 
L 257.142857 71.399455 
L 261.818182 71.551039 
L 266.493506 71.991055 
L 271.168831 72.275158 
L 275.844156 72.475699 
L 280.519481 72.660806 
L 285.194805 72.777631 
L 289.87013 72.869491 
L 294.545455 72.970129 
" clip-path="url(#pf30557f17a)" style="fill: none; stroke: #808080; stroke-opacity: 0.2; stroke-width: 1.5; stroke-linecap: square"/>
   </g>
   <g id="line2d_64">
    <path d="M 65.454545 85.238407 
L 70.12987 85.238407 
L 74.805195 85.697045 
L 79.480519 86.036103 
L 84.155844 86.344238 
L 88.831169 86.539289 
L 93.506494 86.152895 
L 98.181818 85.552132 
L 102.857143 85.879056 
L 107.532468 86.102393 
L 112.207792 86.270615 
L 116.883117 85.819173 
L 121.558442 85.48368 
L 126.233766 84.620214 
L 130.909091 83.950806 
L 135.584416 83.287453 
L 140.25974 82.227522 
L 144.935065 81.265324 
L 149.61039 80.391807 
L 154.285714 79.669702 
L 158.961039 78.860053 
L 163.636364 78.757921 
L 168.311688 78.255003 
L 172.987013 77.974427 
L 177.662338 78.134424 
L 182.337662 78.414478 
L 187.012987 79.173107 
L 191.688312 79.236101 
L 196.363636 78.750343 
L 201.038961 77.80306 
L 205.714286 76.968933 
L 210.38961 75.336044 
L 215.064935 74.70408 
L 219.74026 74.311271 
L 224.415584 74.051138 
L 229.090909 74.18853 
L 233.766234 74.413086 
L 238.441558 74.457746 
L 243.116883 74.207337 
L 247.792208 74.28096 
L 252.467532 74.04733 
L 257.142857 74.284949 
L 261.818182 74.97115 
L 266.493506 75.630033 
L 271.168831 76.061052 
L 275.844156 76.332045 
L 280.519481 76.821144 
L 285.194805 77.340554 
L 289.87013 77.750161 
L 294.545455 78.164432 
" clip-path="url(#pf30557f17a)" style="fill: none; stroke: #808080; stroke-opacity: 0.2; stroke-width: 1.5; stroke-linecap: square"/>
   </g>
   <g id="line2d_65">
    <path d="M 65.454545 51.880219 
L 70.12987 51.880219 
L 74.805195 51.880219 
L 79.480519 51.880219 
L 84.155844 51.880219 
L 88.831169 51.133853 
L 93.506494 51.995637 
L 98.181818 52.656451 
L 102.857143 52.533413 
L 107.532468 52.858033 
L 112.207792 55.877178 
L 116.883117 59.662774 
L 121.558442 61.536983 
L 126.233766 61.635821 
L 130.909091 62.703043 
L 135.584416 63.489749 
L 140.25974 64.361308 
L 144.935065 65.122459 
L 149.61039 66.83546 
L 154.285714 68.219435 
L 158.961039 69.239725 
L 163.636364 70.623305 
L 168.311688 71.683516 
L 172.987013 72.727516 
L 177.662338 72.504434 
L 182.337662 72.495774 
L 187.012987 72.83553 
L 191.688312 73.714845 
L 196.363636 74.525276 
L 201.038961 74.755373 
L 205.714286 75.010163 
L 210.38961 75.398365 
L 215.064935 75.565288 
L 219.74026 75.381911 
L 224.415584 75.049675 
L 229.090909 75.57571 
L 233.766234 75.832239 
L 238.441558 76.435218 
L 243.116883 76.676584 
L 247.792208 76.617688 
L 252.467532 76.954017 
L 257.142857 76.813485 
L 261.818182 76.902239 
L 266.493506 77.13752 
L 271.168831 77.505415 
L 275.844156 78.432579 
L 280.519481 79.184108 
L 285.194805 80.055496 
L 289.87013 80.539605 
L 294.545455 80.965065 
" clip-path="url(#pf30557f17a)" style="fill: none; stroke: #808080; stroke-opacity: 0.2; stroke-width: 1.5; stroke-linecap: square"/>
   </g>
   <g id="line2d_66">
    <path d="M 65.454545 84.767006 
L 70.12987 84.767006 
L 74.805195 84.987309 
L 79.480519 85.431462 
L 84.155844 85.987311 
L 88.831169 86.238839 
L 93.506494 86.515285 
L 98.181818 86.658394 
L 102.857143 86.676276 
L 107.532468 86.39974 
L 112.207792 86.009093 
L 116.883117 85.523901 
L 121.558442 84.890577 
L 126.233766 84.191802 
L 130.909091 83.447438 
L 135.584416 82.677612 
L 140.25974 81.86815 
L 144.935065 81.131135 
L 149.61039 80.473352 
L 154.285714 79.803031 
L 158.961039 79.07086 
L 163.636364 78.182196 
L 168.311688 77.264575 
L 172.987013 76.527796 
L 177.662338 75.777421 
L 182.337662 75.358988 
L 187.012987 75.210913 
L 191.688312 75.39045 
L 196.363636 75.577161 
L 201.038961 75.666035 
L 205.714286 75.898307 
L 210.38961 76.038274 
L 215.064935 76.263066 
L 219.74026 76.492596 
L 224.415584 76.564706 
L 229.090909 76.719852 
L 233.766234 76.632523 
L 238.441558 76.784882 
L 243.116883 77.122967 
L 247.792208 77.309319 
L 252.467532 77.605299 
L 257.142857 77.897089 
L 261.818182 78.061216 
L 266.493506 78.204831 
L 271.168831 78.317314 
L 275.844156 78.439587 
L 280.519481 78.380632 
L 285.194805 78.702921 
L 289.87013 79.047238 
L 294.545455 79.218507 
" clip-path="url(#pf30557f17a)" style="fill: none; stroke: #808080; stroke-opacity: 0.2; stroke-width: 1.5; stroke-linecap: square"/>
   </g>
   <g id="line2d_67">
    <path d="M 65.454545 81.927256 
L 70.12987 81.921253 
L 74.805195 81.680534 
L 79.480519 81.530753 
L 84.155844 81.440135 
L 88.831169 81.249721 
L 93.506494 81.03524 
L 98.181818 80.830119 
L 102.857143 80.555377 
L 107.532468 80.315113 
L 112.207792 80.592909 
L 116.883117 80.935527 
L 121.558442 81.118613 
L 126.233766 80.792764 
L 130.909091 80.957128 
L 135.584416 81.23455 
L 140.25974 81.43783 
L 144.935065 81.719206 
L 149.61039 82.05475 
L 154.285714 82.213515 
L 158.961039 82.514394 
L 163.636364 82.582625 
L 168.311688 82.690164 
L 172.987013 82.597002 
L 177.662338 82.327536 
L 182.337662 82.089454 
L 187.012987 81.905001 
L 191.688312 81.869923 
L 196.363636 81.875075 
L 201.038961 81.977595 
L 205.714286 82.166274 
L 210.38961 82.302402 
L 215.064935 82.15722 
L 219.74026 81.909309 
L 224.415584 81.766584 
L 229.090909 81.717098 
L 233.766234 81.624244 
L 238.441558 81.661342 
L 243.116883 81.74212 
L 247.792208 81.737589 
L 252.467532 81.670187 
L 257.142857 81.804021 
L 261.818182 82.019034 
L 266.493506 82.224846 
L 271.168831 82.39038 
L 275.844156 82.527726 
L 280.519481 82.874454 
L 285.194805 83.026116 
L 289.87013 83.120545 
L 294.545455 83.071656 
" clip-path="url(#pf30557f17a)" style="fill: none; stroke: #808080; stroke-opacity: 0.2; stroke-width: 1.5; stroke-linecap: square"/>
   </g>
   <g id="line2d_68">
    <path d="M 65.454545 97.820498 
L 70.12987 97.760829 
L 74.805195 97.74227 
L 79.480519 97.529039 
L 84.155844 97.26603 
L 88.831169 96.865192 
L 93.506494 96.467943 
L 98.181818 96.140356 
L 102.857143 95.891385 
L 107.532468 95.5059 
L 112.207792 94.91595 
L 116.883117 94.030541 
L 121.558442 93.148873 
L 126.233766 92.307764 
L 130.909091 91.639539 
L 135.584416 91.221972 
L 140.25974 91.130584 
L 144.935065 91.269057 
L 149.61039 91.493156 
L 154.285714 91.410255 
L 158.961039 91.356867 
L 163.636364 91.155446 
L 168.311688 90.712162 
L 172.987013 90.161645 
L 177.662338 89.682393 
L 182.337662 89.382846 
L 187.012987 89.254989 
L 191.688312 89.458845 
L 196.363636 89.597464 
L 201.038961 89.710207 
L 205.714286 89.844778 
L 210.38961 89.73621 
L 215.064935 89.639629 
L 219.74026 89.601358 
L 224.415584 89.555195 
L 229.090909 89.655132 
L 233.766234 89.738108 
L 238.441558 89.864524 
L 243.116883 90.125313 
L 247.792208 90.258296 
L 252.467532 90.497031 
L 257.142857 90.716589 
L 261.818182 90.972887 
L 266.493506 91.206328 
L 271.168831 91.370897 
L 275.844156 91.414097 
L 280.519481 91.563864 
L 285.194805 91.73439 
L 289.87013 91.857675 
L 294.545455 91.972244 
" clip-path="url(#pf30557f17a)" style="fill: none; stroke: #808080; stroke-opacity: 0.2; stroke-width: 1.5; stroke-linecap: square"/>
   </g>
   <g id="line2d_69">
    <path d="M 65.454545 65.615765 
L 70.12987 66.572674 
L 74.805195 67.269136 
L 79.480519 67.633983 
L 84.155844 67.766346 
L 88.831169 68.140123 
L 93.506494 70.60709 
L 98.181818 72.84516 
L 102.857143 74.081081 
L 107.532468 75.102573 
L 112.207792 76.288759 
L 116.883117 77.251101 
L 121.558442 77.18425 
L 126.233766 76.705671 
L 130.909091 75.858865 
L 135.584416 74.933597 
L 140.25974 74.004951 
L 144.935065 72.204672 
L 149.61039 70.306305 
L 154.285714 68.625599 
L 158.961039 66.530414 
L 163.636364 64.317287 
L 168.311688 62.267077 
L 172.987013 60.837331 
L 177.662338 59.252817 
L 182.337662 58.714181 
L 187.012987 58.453271 
L 191.688312 58.815519 
L 196.363636 60.228565 
L 201.038961 61.573163 
L 205.714286 62.376803 
L 210.38961 63.634195 
L 215.064935 65.002564 
L 219.74026 66.39559 
L 224.415584 66.985729 
L 229.090909 67.109288 
L 233.766234 67.56216 
L 238.441558 67.699818 
L 243.116883 67.562908 
L 247.792208 67.445581 
L 252.467532 67.149565 
L 257.142857 66.967086 
L 261.818182 66.482087 
L 266.493506 66.94534 
L 271.168831 67.655737 
L 275.844156 69.202329 
L 280.519481 70.57602 
L 285.194805 71.562985 
L 289.87013 72.052448 
L 294.545455 72.328464 
" clip-path="url(#pf30557f17a)" style="fill: none; stroke: #808080; stroke-opacity: 0.2; stroke-width: 1.5; stroke-linecap: square"/>
   </g>
   <g id="line2d_70">
    <path d="M 65.454545 74.519694 
L 70.12987 74.182276 
L 74.805195 75.165743 
L 79.480519 75.344709 
L 84.155844 75.833124 
L 88.831169 76.297637 
L 93.506494 76.51586 
L 98.181818 76.969625 
L 102.857143 77.507654 
L 107.532468 77.759943 
L 112.207792 77.629576 
L 116.883117 77.612159 
L 121.558442 77.177883 
L 126.233766 76.394428 
L 130.909091 75.307129 
L 135.584416 74.310451 
L 140.25974 73.644959 
L 144.935065 73.023695 
L 149.61039 72.496787 
L 154.285714 71.754963 
L 158.961039 71.458057 
L 163.636364 71.511362 
L 168.311688 71.132578 
L 172.987013 70.573045 
L 177.662338 69.962039 
L 182.337662 69.380469 
L 187.012987 69.057847 
L 191.688312 68.699415 
L 196.363636 67.810892 
L 201.038961 66.461094 
L 205.714286 65.032395 
L 210.38961 64.204199 
L 215.064935 63.546622 
L 219.74026 62.758688 
L 224.415584 62.250313 
L 229.090909 62.378523 
L 233.766234 62.880801 
L 238.441558 63.476345 
L 243.116883 63.817251 
L 247.792208 63.796018 
L 252.467532 63.441975 
L 257.142857 62.718198 
L 261.818182 61.842954 
L 266.493506 62.289197 
L 271.168831 62.642454 
L 275.844156 62.857178 
L 280.519481 63.367923 
L 285.194805 63.469473 
L 289.87013 63.914987 
L 294.545455 64.021287 
" clip-path="url(#pf30557f17a)" style="fill: none; stroke: #808080; stroke-opacity: 0.2; stroke-width: 1.5; stroke-linecap: square"/>
   </g>
   <g id="patch_10">
    <path d="M 46 129.6 
L 46 21.6 
" style="fill: none; stroke: #000000; stroke-width: 0.8; stroke-linejoin: miter; stroke-linecap: square"/>
   </g>
   <g id="patch_11">
    <path d="M 54 137.6 
L 306 137.6 
" style="fill: none; stroke: #000000; stroke-width: 0.8; stroke-linejoin: miter; stroke-linecap: square"/>
   </g>
  </g>
 </g>
 <defs>
  <clipPath id="p13c713a687">
   <rect x="54" y="280.8" width="252" height="108"/>
  </clipPath>
  <clipPath id="p61bef78d49">
   <rect x="54" y="151.2" width="252" height="108"/>
  </clipPath>
  <clipPath id="pf30557f17a">
   <rect x="54" y="21.6" width="252" height="108"/>
  </clipPath>
 </defs>
</svg>
