<?xml version="1.0" encoding="utf-8" standalone="no"?>
<!DOCTYPE svg PUBLIC "-//W3C//DTD SVG 1.1//EN"
  "http://www.w3.org/Graphics/SVG/1.1/DTD/svg11.dtd">
<svg xmlns:xlink="http://www.w3.org/1999/xlink" width="360pt" height="432pt" viewBox="0 0 360 432" xmlns="http://www.w3.org/2000/svg" version="1.1">
 <metadata>
  <rdf:RDF xmlns:dc="http://purl.org/dc/elements/1.1/" xmlns:cc="http://creativecommons.org/ns#" xmlns:rdf="http://www.w3.org/1999/02/22-rdf-syntax-ns#">
   <cc:Work>
    <dc:type rdf:resource="http://purl.org/dc/dcmitype/StillImage"/>
    <dc:date>2024-09-16T16:20:50.721825</dc:date>
    <dc:format>image/svg+xml</dc:format>
    <dc:creator>
     <cc:Agent>
      <dc:title>Matplotlib v3.8.0, https://matplotlib.org/</dc:title>
     </cc:Agent>
    </dc:creator>
   </cc:Work>
  </rdf:RDF>
 </metadata>
 <defs>
  <style type="text/css">*{stroke-linejoin: round; stroke-linecap: butt}</style>
 </defs>
 <g id="figure_1">
  <g id="patch_1">
   <path d="M 0 432 
L 360 432 
L 360 0 
L 0 0 
z
" style="fill: #ffffff"/>
  </g>
  <g id="axes_1">
   <g id="patch_2">
    <path d="M 54 388.8 
L 306 388.8 
L 306 280.8 
L 54 280.8 
z
" style="fill: #ffffff"/>
   </g>
   <g id="PolyCollection_1">
    <defs>
     <path id="m48bb67cfc5" d="M 65.454545 -79.464808 
L 65.454545 -62.37829 
L 70.12987 -62.37829 
L 74.805195 -62.168127 
L 79.480519 -62.660744 
L 84.155844 -62.893264 
L 88.831169 -62.300238 
L 93.506494 -61.939152 
L 98.181818 -62.530771 
L 102.857143 -62.375048 
L 107.532468 -60.953468 
L 112.207792 -60.056334 
L 116.883117 -58.805859 
L 121.558442 -58.192166 
L 126.233766 -58.236406 
L 130.909091 -59.169005 
L 135.584416 -59.6749 
L 140.25974 -60.451744 
L 144.935065 -60.088479 
L 149.61039 -58.504369 
L 154.285714 -57.605715 
L 158.961039 -56.429425 
L 163.636364 -55.866266 
L 168.311688 -55.104245 
L 172.987013 -54.561187 
L 177.662338 -53.642597 
L 182.337662 -52.322557 
L 187.012987 -50.913154 
L 191.688312 -50.283292 
L 196.363636 -49.695584 
L 201.038961 -48.710495 
L 205.714286 -48.02832 
L 210.38961 -47.759322 
L 215.064935 -46.978994 
L 219.74026 -46.313203 
L 224.415584 -45.445763 
L 229.090909 -44.993751 
L 233.766234 -44.395736 
L 238.441558 -42.343637 
L 243.116883 -39.971093 
L 247.792208 -38.643557 
L 252.467532 -38.571897 
L 257.142857 -38.492122 
L 261.818182 -36.252738 
L 266.493506 -35.957927 
L 271.168831 -36.143822 
L 275.844156 -35.448101 
L 280.519481 -34.834171 
L 285.194805 -34.885323 
L 289.87013 -33.989532 
L 294.545455 -32.059101 
L 294.545455 -43.751001 
L 294.545455 -43.751001 
L 289.87013 -43.824581 
L 285.194805 -45.374751 
L 280.519481 -45.257248 
L 275.844156 -46.020511 
L 271.168831 -47.178325 
L 266.493506 -46.655071 
L 261.818182 -46.714249 
L 257.142857 -48.480112 
L 252.467532 -47.838431 
L 247.792208 -47.640019 
L 243.116883 -49.368579 
L 238.441558 -52.001983 
L 233.766234 -53.926508 
L 229.090909 -54.394572 
L 224.415584 -55.079634 
L 219.74026 -55.761789 
L 215.064935 -56.080572 
L 210.38961 -56.947241 
L 205.714286 -56.905185 
L 201.038961 -57.723043 
L 196.363636 -58.574506 
L 191.688312 -59.77687 
L 187.012987 -60.473619 
L 182.337662 -61.751568 
L 177.662338 -63.209026 
L 172.987013 -63.587513 
L 168.311688 -64.240499 
L 163.636364 -64.7818 
L 158.961039 -65.613681 
L 154.285714 -67.409984 
L 149.61039 -68.201334 
L 144.935065 -69.96745 
L 140.25974 -71.382738 
L 135.584416 -70.727356 
L 130.909091 -70.280066 
L 126.233766 -68.770947 
L 121.558442 -67.90645 
L 116.883117 -68.652222 
L 112.207792 -70.383492 
L 107.532468 -71.968572 
L 102.857143 -73.77524 
L 98.181818 -73.314906 
L 93.506494 -73.72118 
L 88.831169 -75.006728 
L 84.155844 -77.645174 
L 79.480519 -78.587525 
L 74.805195 -79.423658 
L 70.12987 -79.464808 
L 65.454545 -79.464808 
z
"/>
    </defs>
    <g clip-path="url(#pfe320fe2be)">
     <use xlink:href="#m48bb67cfc5" x="0" y="432" style="fill: #ffd700; fill-opacity: 0.4"/>
    </g>
   </g>
   <g id="PolyCollection_2">
    <defs>
     <path id="m4f5d1a944f" d="M 65.454545 -64.51639 
L 65.454545 -48.09473 
L 70.12987 -48.09473 
L 74.805195 -47.558083 
L 79.480519 -47.792128 
L 84.155844 -47.483069 
L 88.831169 -46.99228 
L 93.506494 -46.628628 
L 98.181818 -47.334895 
L 102.857143 -47.577079 
L 107.532468 -46.808665 
L 112.207792 -46.216816 
L 116.883117 -45.657719 
L 121.558442 -45.88823 
L 126.233766 -46.805032 
L 130.909091 -48.570811 
L 135.584416 -49.363375 
L 140.25974 -50.213659 
L 144.935065 -49.836422 
L 149.61039 -48.086353 
L 154.285714 -47.214231 
L 158.961039 -46.196099 
L 163.636364 -46.240342 
L 168.311688 -46.252403 
L 172.987013 -46.545377 
L 177.662338 -47.010987 
L 182.337662 -46.88238 
L 187.012987 -46.863179 
L 191.688312 -47.900443 
L 196.363636 -48.390673 
L 201.038961 -48.765036 
L 205.714286 -49.389802 
L 210.38961 -50.22123 
L 215.064935 -50.493837 
L 219.74026 -50.999468 
L 224.415584 -51.367889 
L 229.090909 -51.853342 
L 233.766234 -52.214734 
L 238.441558 -51.787558 
L 243.116883 -51.202167 
L 247.792208 -51.410436 
L 252.467532 -52.789005 
L 257.142857 -54.115807 
L 261.818182 -53.524052 
L 266.493506 -54.063953 
L 271.168831 -54.757052 
L 275.844156 -54.483839 
L 280.519481 -54.073909 
L 285.194805 -54.204702 
L 289.87013 -53.855243 
L 294.545455 -53.332321 
L 294.545455 -65.553937 
L 294.545455 -65.553937 
L 289.87013 -65.493383 
L 285.194805 -66.286348 
L 280.519481 -65.336096 
L 275.844156 -65.781282 
L 271.168831 -66.309628 
L 266.493506 -64.674254 
L 261.818182 -63.691065 
L 257.142857 -65.351348 
L 252.467532 -63.434108 
L 247.792208 -61.824082 
L 243.116883 -62.1169 
L 238.441558 -63.038135 
L 233.766234 -63.016432 
L 229.090909 -61.923959 
L 224.415584 -61.094147 
L 219.74026 -60.182063 
L 215.064935 -58.672432 
L 210.38961 -57.761644 
L 205.714286 -56.836015 
L 201.038961 -56.297994 
L 196.363636 -55.948334 
L 191.688312 -55.516784 
L 187.012987 -54.59901 
L 182.337662 -54.658256 
L 177.662338 -55.058523 
L 172.987013 -54.903804 
L 168.311688 -55.021341 
L 163.636364 -55.192958 
L 158.961039 -55.191455 
L 154.285714 -55.997173 
L 149.61039 -56.431192 
L 144.935065 -57.666003 
L 140.25974 -58.331685 
L 135.584416 -57.642286 
L 130.909091 -57.029524 
L 126.233766 -54.953997 
L 121.558442 -53.593335 
L 116.883117 -53.894815 
L 112.207792 -55.041572 
L 107.532468 -56.064069 
L 102.857143 -57.094383 
L 98.181818 -56.562736 
L 93.506494 -57.641472 
L 88.831169 -59.516871 
L 84.155844 -62.427855 
L 79.480519 -63.423977 
L 74.805195 -64.329592 
L 70.12987 -64.51639 
L 65.454545 -64.51639 
z
"/>
    </defs>
    <g clip-path="url(#pfe320fe2be)">
     <use xlink:href="#m4f5d1a944f" x="0" y="432" style="fill: #800080; fill-opacity: 0.4"/>
    </g>
   </g>
   <g id="PolyCollection_3">
    <defs>
     <path id="md52310ae86" d="M 65.454545 -61.256551 
L 65.454545 -54.375427 
L 70.12987 -54.375427 
L 74.805195 -54.769413 
L 79.480519 -55.096433 
L 84.155844 -55.721334 
L 88.831169 -56.335907 
L 93.506494 -57.205371 
L 98.181818 -57.839972 
L 102.857143 -57.770179 
L 107.532468 -57.204849 
L 112.207792 -56.866894 
L 116.883117 -56.170051 
L 121.558442 -55.404884 
L 126.233766 -54.508859 
L 130.909091 -53.630019 
L 135.584416 -53.351804 
L 140.25974 -53.23433 
L 144.935065 -52.904548 
L 149.61039 -52.630794 
L 154.285714 -52.17589 
L 158.961039 -51.33519 
L 163.636364 -50.343884 
L 168.311688 -49.410338 
L 172.987013 -48.548893 
L 177.662338 -47.530045 
L 182.337662 -46.400164 
L 187.012987 -45.137394 
L 191.688312 -43.518507 
L 196.363636 -42.106957 
L 201.038961 -40.736277 
L 205.714286 -39.383251 
L 210.38961 -38.319147 
L 215.064935 -36.786421 
L 219.74026 -35.29525 
L 224.415584 -33.827784 
L 229.090909 -32.527131 
L 233.766234 -31.205857 
L 238.441558 -29.296835 
L 243.116883 -27.361892 
L 247.792208 -25.64112 
L 252.467532 -23.807968 
L 257.142857 -22.08946 
L 261.818182 -21.001823 
L 266.493506 -19.911804 
L 271.168831 -18.974862 
L 275.844156 -18.567484 
L 280.519481 -18.330959 
L 285.194805 -17.833879 
L 289.87013 -17.134621 
L 294.545455 -16.249843 
L 294.545455 -27.074 
L 294.545455 -27.074 
L 289.87013 -27.730866 
L 285.194805 -28.335144 
L 280.519481 -28.750455 
L 275.844156 -29.036008 
L 271.168831 -29.680604 
L 266.493506 -30.362987 
L 261.818182 -31.150048 
L 257.142857 -31.815619 
L 252.467532 -32.779247 
L 247.792208 -33.807938 
L 243.116883 -35.058712 
L 238.441558 -36.623092 
L 233.766234 -38.28522 
L 229.090909 -39.48389 
L 224.415584 -40.635578 
L 219.74026 -41.998212 
L 215.064935 -43.506877 
L 210.38961 -44.804543 
L 205.714286 -45.724437 
L 201.038961 -47.034232 
L 196.363636 -48.224125 
L 191.688312 -49.524429 
L 187.012987 -51.187191 
L 182.337662 -52.533325 
L 177.662338 -53.652068 
L 172.987013 -54.550625 
L 168.311688 -55.060662 
L 163.636364 -55.270881 
L 158.961039 -55.720361 
L 154.285714 -56.028405 
L 149.61039 -55.957364 
L 144.935065 -56.048955 
L 140.25974 -56.454807 
L 135.584416 -56.444791 
L 130.909091 -56.618716 
L 126.233766 -57.139465 
L 121.558442 -57.612167 
L 116.883117 -58.135496 
L 112.207792 -58.714543 
L 107.532468 -59.244457 
L 102.857143 -60.108648 
L 98.181818 -60.508075 
L 93.506494 -60.584861 
L 88.831169 -60.861908 
L 84.155844 -61.30618 
L 79.480519 -61.335731 
L 74.805195 -61.334697 
L 70.12987 -61.256551 
L 65.454545 -61.256551 
z
"/>
    </defs>
    <g clip-path="url(#pfe320fe2be)">
     <use xlink:href="#md52310ae86" x="0" y="432" style="fill: #ff7f50; fill-opacity: 0.4"/>
    </g>
   </g>
   <g id="matplotlib.axis_1">
    <g id="xtick_1">
     <g id="line2d_1">
      <defs>
       <path id="mb2b7edefdf" d="M 0 0 
L 0 3.5 
" style="stroke: #000000; stroke-width: 0.8"/>
      </defs>
      <g>
       <use xlink:href="#mb2b7edefdf" x="65.454545" y="396.8" style="stroke: #000000; stroke-width: 0.8"/>
      </g>
     </g>
     <g id="text_1">
      <!-- 0 -->
      <g transform="translate(62.273295 411.398438) scale(0.1 -0.1)">
       <defs>
        <path id="DejaVuSans-30" d="M 2034 4250 
Q 1547 4250 1301 3770 
Q 1056 3291 1056 2328 
Q 1056 1369 1301 889 
Q 1547 409 2034 409 
Q 2525 409 2770 889 
Q 3016 1369 3016 2328 
Q 3016 3291 2770 3770 
Q 2525 4250 2034 4250 
z
M 2034 4750 
Q 2819 4750 3233 4129 
Q 3647 3509 3647 2328 
Q 3647 1150 3233 529 
Q 2819 -91 2034 -91 
Q 1250 -91 836 529 
Q 422 1150 422 2328 
Q 422 3509 836 4129 
Q 1250 4750 2034 4750 
z
" transform="scale(0.015625)"/>
       </defs>
       <use xlink:href="#DejaVuSans-30"/>
      </g>
     </g>
    </g>
    <g id="xtick_2">
     <g id="line2d_2">
      <g>
       <use xlink:href="#mb2b7edefdf" x="122.727273" y="396.8" style="stroke: #000000; stroke-width: 0.8"/>
      </g>
     </g>
     <g id="text_2">
      <!-- 1 -->
      <g transform="translate(119.546023 411.398438) scale(0.1 -0.1)">
       <defs>
        <path id="DejaVuSans-31" d="M 794 531 
L 1825 531 
L 1825 4091 
L 703 3866 
L 703 4441 
L 1819 4666 
L 2450 4666 
L 2450 531 
L 3481 531 
L 3481 0 
L 794 0 
L 794 531 
z
" transform="scale(0.015625)"/>
       </defs>
       <use xlink:href="#DejaVuSans-31"/>
      </g>
     </g>
    </g>
    <g id="xtick_3">
     <g id="line2d_3">
      <g>
       <use xlink:href="#mb2b7edefdf" x="180" y="396.8" style="stroke: #000000; stroke-width: 0.8"/>
      </g>
     </g>
     <g id="text_3">
      <!-- 2 -->
      <g transform="translate(176.81875 411.398438) scale(0.1 -0.1)">
       <defs>
        <path id="DejaVuSans-32" d="M 1228 531 
L 3431 531 
L 3431 0 
L 469 0 
L 469 531 
Q 828 903 1448 1529 
Q 2069 2156 2228 2338 
Q 2531 2678 2651 2914 
Q 2772 3150 2772 3378 
Q 2772 3750 2511 3984 
Q 2250 4219 1831 4219 
Q 1534 4219 1204 4116 
Q 875 4013 500 3803 
L 500 4441 
Q 881 4594 1212 4672 
Q 1544 4750 1819 4750 
Q 2544 4750 2975 4387 
Q 3406 4025 3406 3419 
Q 3406 3131 3298 2873 
Q 3191 2616 2906 2266 
Q 2828 2175 2409 1742 
Q 1991 1309 1228 531 
z
" transform="scale(0.015625)"/>
       </defs>
       <use xlink:href="#DejaVuSans-32"/>
      </g>
     </g>
    </g>
    <g id="xtick_4">
     <g id="line2d_4">
      <g>
       <use xlink:href="#mb2b7edefdf" x="237.272727" y="396.8" style="stroke: #000000; stroke-width: 0.8"/>
      </g>
     </g>
     <g id="text_4">
      <!-- 3 -->
      <g transform="translate(234.091477 411.398438) scale(0.1 -0.1)">
       <defs>
        <path id="DejaVuSans-33" d="M 2597 2516 
Q 3050 2419 3304 2112 
Q 3559 1806 3559 1356 
Q 3559 666 3084 287 
Q 2609 -91 1734 -91 
Q 1441 -91 1130 -33 
Q 819 25 488 141 
L 488 750 
Q 750 597 1062 519 
Q 1375 441 1716 441 
Q 2309 441 2620 675 
Q 2931 909 2931 1356 
Q 2931 1769 2642 2001 
Q 2353 2234 1838 2234 
L 1294 2234 
L 1294 2753 
L 1863 2753 
Q 2328 2753 2575 2939 
Q 2822 3125 2822 3475 
Q 2822 3834 2567 4026 
Q 2313 4219 1838 4219 
Q 1578 4219 1281 4162 
Q 984 4106 628 3988 
L 628 4550 
Q 988 4650 1302 4700 
Q 1616 4750 1894 4750 
Q 2613 4750 3031 4423 
Q 3450 4097 3450 3541 
Q 3450 3153 3228 2886 
Q 3006 2619 2597 2516 
z
" transform="scale(0.015625)"/>
       </defs>
       <use xlink:href="#DejaVuSans-33"/>
      </g>
     </g>
    </g>
    <g id="xtick_5">
     <g id="line2d_5">
      <g>
       <use xlink:href="#mb2b7edefdf" x="294.545455" y="396.8" style="stroke: #000000; stroke-width: 0.8"/>
      </g>
     </g>
     <g id="text_5">
      <!-- 4 -->
      <g transform="translate(291.364205 411.398438) scale(0.1 -0.1)">
       <defs>
        <path id="DejaVuSans-34" d="M 2419 4116 
L 825 1625 
L 2419 1625 
L 2419 4116 
z
M 2253 4666 
L 3047 4666 
L 3047 1625 
L 3713 1625 
L 3713 1100 
L 3047 1100 
L 3047 0 
L 2419 0 
L 2419 1100 
L 313 1100 
L 313 1709 
L 2253 4666 
z
" transform="scale(0.015625)"/>
       </defs>
       <use xlink:href="#DejaVuSans-34"/>
      </g>
     </g>
    </g>
    <g id="text_6">
     <!-- relative distance from ROI center ($\sigma$) -->
     <g transform="translate(69.72 426.59625) scale(0.12 -0.12)">
      <defs>
       <path id="DejaVuSans-72" d="M 2631 2963 
Q 2534 3019 2420 3045 
Q 2306 3072 2169 3072 
Q 1681 3072 1420 2755 
Q 1159 2438 1159 1844 
L 1159 0 
L 581 0 
L 581 3500 
L 1159 3500 
L 1159 2956 
Q 1341 3275 1631 3429 
Q 1922 3584 2338 3584 
Q 2397 3584 2469 3576 
Q 2541 3569 2628 3553 
L 2631 2963 
z
" transform="scale(0.015625)"/>
       <path id="DejaVuSans-65" d="M 3597 1894 
L 3597 1613 
L 953 1613 
Q 991 1019 1311 708 
Q 1631 397 2203 397 
Q 2534 397 2845 478 
Q 3156 559 3463 722 
L 3463 178 
Q 3153 47 2828 -22 
Q 2503 -91 2169 -91 
Q 1331 -91 842 396 
Q 353 884 353 1716 
Q 353 2575 817 3079 
Q 1281 3584 2069 3584 
Q 2775 3584 3186 3129 
Q 3597 2675 3597 1894 
z
M 3022 2063 
Q 3016 2534 2758 2815 
Q 2500 3097 2075 3097 
Q 1594 3097 1305 2825 
Q 1016 2553 972 2059 
L 3022 2063 
z
" transform="scale(0.015625)"/>
       <path id="DejaVuSans-6c" d="M 603 4863 
L 1178 4863 
L 1178 0 
L 603 0 
L 603 4863 
z
" transform="scale(0.015625)"/>
       <path id="DejaVuSans-61" d="M 2194 1759 
Q 1497 1759 1228 1600 
Q 959 1441 959 1056 
Q 959 750 1161 570 
Q 1363 391 1709 391 
Q 2188 391 2477 730 
Q 2766 1069 2766 1631 
L 2766 1759 
L 2194 1759 
z
M 3341 1997 
L 3341 0 
L 2766 0 
L 2766 531 
Q 2569 213 2275 61 
Q 1981 -91 1556 -91 
Q 1019 -91 701 211 
Q 384 513 384 1019 
Q 384 1609 779 1909 
Q 1175 2209 1959 2209 
L 2766 2209 
L 2766 2266 
Q 2766 2663 2505 2880 
Q 2244 3097 1772 3097 
Q 1472 3097 1187 3025 
Q 903 2953 641 2809 
L 641 3341 
Q 956 3463 1253 3523 
Q 1550 3584 1831 3584 
Q 2591 3584 2966 3190 
Q 3341 2797 3341 1997 
z
" transform="scale(0.015625)"/>
       <path id="DejaVuSans-74" d="M 1172 4494 
L 1172 3500 
L 2356 3500 
L 2356 3053 
L 1172 3053 
L 1172 1153 
Q 1172 725 1289 603 
Q 1406 481 1766 481 
L 2356 481 
L 2356 0 
L 1766 0 
Q 1100 0 847 248 
Q 594 497 594 1153 
L 594 3053 
L 172 3053 
L 172 3500 
L 594 3500 
L 594 4494 
L 1172 4494 
z
" transform="scale(0.015625)"/>
       <path id="DejaVuSans-69" d="M 603 3500 
L 1178 3500 
L 1178 0 
L 603 0 
L 603 3500 
z
M 603 4863 
L 1178 4863 
L 1178 4134 
L 603 4134 
L 603 4863 
z
" transform="scale(0.015625)"/>
       <path id="DejaVuSans-76" d="M 191 3500 
L 800 3500 
L 1894 563 
L 2988 3500 
L 3597 3500 
L 2284 0 
L 1503 0 
L 191 3500 
z
" transform="scale(0.015625)"/>
       <path id="DejaVuSans-20" transform="scale(0.015625)"/>
       <path id="DejaVuSans-64" d="M 2906 2969 
L 2906 4863 
L 3481 4863 
L 3481 0 
L 2906 0 
L 2906 525 
Q 2725 213 2448 61 
Q 2172 -91 1784 -91 
Q 1150 -91 751 415 
Q 353 922 353 1747 
Q 353 2572 751 3078 
Q 1150 3584 1784 3584 
Q 2172 3584 2448 3432 
Q 2725 3281 2906 2969 
z
M 947 1747 
Q 947 1113 1208 752 
Q 1469 391 1925 391 
Q 2381 391 2643 752 
Q 2906 1113 2906 1747 
Q 2906 2381 2643 2742 
Q 2381 3103 1925 3103 
Q 1469 3103 1208 2742 
Q 947 2381 947 1747 
z
" transform="scale(0.015625)"/>
       <path id="DejaVuSans-73" d="M 2834 3397 
L 2834 2853 
Q 2591 2978 2328 3040 
Q 2066 3103 1784 3103 
Q 1356 3103 1142 2972 
Q 928 2841 928 2578 
Q 928 2378 1081 2264 
Q 1234 2150 1697 2047 
L 1894 2003 
Q 2506 1872 2764 1633 
Q 3022 1394 3022 966 
Q 3022 478 2636 193 
Q 2250 -91 1575 -91 
Q 1294 -91 989 -36 
Q 684 19 347 128 
L 347 722 
Q 666 556 975 473 
Q 1284 391 1588 391 
Q 1994 391 2212 530 
Q 2431 669 2431 922 
Q 2431 1156 2273 1281 
Q 2116 1406 1581 1522 
L 1381 1569 
Q 847 1681 609 1914 
Q 372 2147 372 2553 
Q 372 3047 722 3315 
Q 1072 3584 1716 3584 
Q 2034 3584 2315 3537 
Q 2597 3491 2834 3397 
z
" transform="scale(0.015625)"/>
       <path id="DejaVuSans-6e" d="M 3513 2113 
L 3513 0 
L 2938 0 
L 2938 2094 
Q 2938 2591 2744 2837 
Q 2550 3084 2163 3084 
Q 1697 3084 1428 2787 
Q 1159 2491 1159 1978 
L 1159 0 
L 581 0 
L 581 3500 
L 1159 3500 
L 1159 2956 
Q 1366 3272 1645 3428 
Q 1925 3584 2291 3584 
Q 2894 3584 3203 3211 
Q 3513 2838 3513 2113 
z
" transform="scale(0.015625)"/>
       <path id="DejaVuSans-63" d="M 3122 3366 
L 3122 2828 
Q 2878 2963 2633 3030 
Q 2388 3097 2138 3097 
Q 1578 3097 1268 2742 
Q 959 2388 959 1747 
Q 959 1106 1268 751 
Q 1578 397 2138 397 
Q 2388 397 2633 464 
Q 2878 531 3122 666 
L 3122 134 
Q 2881 22 2623 -34 
Q 2366 -91 2075 -91 
Q 1284 -91 818 406 
Q 353 903 353 1747 
Q 353 2603 823 3093 
Q 1294 3584 2113 3584 
Q 2378 3584 2631 3529 
Q 2884 3475 3122 3366 
z
" transform="scale(0.015625)"/>
       <path id="DejaVuSans-66" d="M 2375 4863 
L 2375 4384 
L 1825 4384 
Q 1516 4384 1395 4259 
Q 1275 4134 1275 3809 
L 1275 3500 
L 2222 3500 
L 2222 3053 
L 1275 3053 
L 1275 0 
L 697 0 
L 697 3053 
L 147 3053 
L 147 3500 
L 697 3500 
L 697 3744 
Q 697 4328 969 4595 
Q 1241 4863 1831 4863 
L 2375 4863 
z
" transform="scale(0.015625)"/>
       <path id="DejaVuSans-6f" d="M 1959 3097 
Q 1497 3097 1228 2736 
Q 959 2375 959 1747 
Q 959 1119 1226 758 
Q 1494 397 1959 397 
Q 2419 397 2687 759 
Q 2956 1122 2956 1747 
Q 2956 2369 2687 2733 
Q 2419 3097 1959 3097 
z
M 1959 3584 
Q 2709 3584 3137 3096 
Q 3566 2609 3566 1747 
Q 3566 888 3137 398 
Q 2709 -91 1959 -91 
Q 1206 -91 779 398 
Q 353 888 353 1747 
Q 353 2609 779 3096 
Q 1206 3584 1959 3584 
z
" transform="scale(0.015625)"/>
       <path id="DejaVuSans-6d" d="M 3328 2828 
Q 3544 3216 3844 3400 
Q 4144 3584 4550 3584 
Q 5097 3584 5394 3201 
Q 5691 2819 5691 2113 
L 5691 0 
L 5113 0 
L 5113 2094 
Q 5113 2597 4934 2840 
Q 4756 3084 4391 3084 
Q 3944 3084 3684 2787 
Q 3425 2491 3425 1978 
L 3425 0 
L 2847 0 
L 2847 2094 
Q 2847 2600 2669 2842 
Q 2491 3084 2119 3084 
Q 1678 3084 1418 2786 
Q 1159 2488 1159 1978 
L 1159 0 
L 581 0 
L 581 3500 
L 1159 3500 
L 1159 2956 
Q 1356 3278 1631 3431 
Q 1906 3584 2284 3584 
Q 2666 3584 2933 3390 
Q 3200 3197 3328 2828 
z
" transform="scale(0.015625)"/>
       <path id="DejaVuSans-52" d="M 2841 2188 
Q 3044 2119 3236 1894 
Q 3428 1669 3622 1275 
L 4263 0 
L 3584 0 
L 2988 1197 
Q 2756 1666 2539 1819 
Q 2322 1972 1947 1972 
L 1259 1972 
L 1259 0 
L 628 0 
L 628 4666 
L 2053 4666 
Q 2853 4666 3247 4331 
Q 3641 3997 3641 3322 
Q 3641 2881 3436 2590 
Q 3231 2300 2841 2188 
z
M 1259 4147 
L 1259 2491 
L 2053 2491 
Q 2509 2491 2742 2702 
Q 2975 2913 2975 3322 
Q 2975 3731 2742 3939 
Q 2509 4147 2053 4147 
L 1259 4147 
z
" transform="scale(0.015625)"/>
       <path id="DejaVuSans-4f" d="M 2522 4238 
Q 1834 4238 1429 3725 
Q 1025 3213 1025 2328 
Q 1025 1447 1429 934 
Q 1834 422 2522 422 
Q 3209 422 3611 934 
Q 4013 1447 4013 2328 
Q 4013 3213 3611 3725 
Q 3209 4238 2522 4238 
z
M 2522 4750 
Q 3503 4750 4090 4092 
Q 4678 3434 4678 2328 
Q 4678 1225 4090 567 
Q 3503 -91 2522 -91 
Q 1538 -91 948 565 
Q 359 1222 359 2328 
Q 359 3434 948 4092 
Q 1538 4750 2522 4750 
z
" transform="scale(0.015625)"/>
       <path id="DejaVuSans-49" d="M 628 4666 
L 1259 4666 
L 1259 0 
L 628 0 
L 628 4666 
z
" transform="scale(0.015625)"/>
       <path id="DejaVuSans-28" d="M 1984 4856 
Q 1566 4138 1362 3434 
Q 1159 2731 1159 2009 
Q 1159 1288 1364 580 
Q 1569 -128 1984 -844 
L 1484 -844 
Q 1016 -109 783 600 
Q 550 1309 550 2009 
Q 550 2706 781 3412 
Q 1013 4119 1484 4856 
L 1984 4856 
z
" transform="scale(0.015625)"/>
       <path id="DejaVuSans-Oblique-3c3" d="M 2219 3044 
Q 1744 3044 1422 2700 
Q 1081 2341 969 1747 
Q 844 1119 1044 756 
Q 1241 397 1706 397 
Q 2166 397 2503 759 
Q 2844 1122 2966 1747 
Q 3075 2319 2881 2700 
Q 2700 3044 2219 3044 
z
M 2309 3503 
L 4219 3500 
L 4106 2925 
L 3463 2925 
Q 3706 2438 3575 1747 
Q 3406 888 2884 400 
Q 2359 -91 1609 -91 
Q 856 -91 525 400 
Q 194 888 363 1747 
Q 528 2609 1050 3097 
Q 1484 3503 2309 3503 
z
" transform="scale(0.015625)"/>
       <path id="DejaVuSans-29" d="M 513 4856 
L 1013 4856 
Q 1481 4119 1714 3412 
Q 1947 2706 1947 2009 
Q 1947 1309 1714 600 
Q 1481 -109 1013 -844 
L 513 -844 
Q 928 -128 1133 580 
Q 1338 1288 1338 2009 
Q 1338 2731 1133 3434 
Q 928 4138 513 4856 
z
" transform="scale(0.015625)"/>
      </defs>
      <use xlink:href="#DejaVuSans-72" transform="translate(0 0.015625)"/>
      <use xlink:href="#DejaVuSans-65" transform="translate(41.113281 0.015625)"/>
      <use xlink:href="#DejaVuSans-6c" transform="translate(102.636719 0.015625)"/>
      <use xlink:href="#DejaVuSans-61" transform="translate(130.419922 0.015625)"/>
      <use xlink:href="#DejaVuSans-74" transform="translate(191.699219 0.015625)"/>
      <use xlink:href="#DejaVuSans-69" transform="translate(230.908203 0.015625)"/>
      <use xlink:href="#DejaVuSans-76" transform="translate(258.691406 0.015625)"/>
      <use xlink:href="#DejaVuSans-65" transform="translate(317.871094 0.015625)"/>
      <use xlink:href="#DejaVuSans-20" transform="translate(379.394531 0.015625)"/>
      <use xlink:href="#DejaVuSans-64" transform="translate(411.181641 0.015625)"/>
      <use xlink:href="#DejaVuSans-69" transform="translate(474.658203 0.015625)"/>
      <use xlink:href="#DejaVuSans-73" transform="translate(502.441406 0.015625)"/>
      <use xlink:href="#DejaVuSans-74" transform="translate(554.541016 0.015625)"/>
      <use xlink:href="#DejaVuSans-61" transform="translate(593.75 0.015625)"/>
      <use xlink:href="#DejaVuSans-6e" transform="translate(655.029297 0.015625)"/>
      <use xlink:href="#DejaVuSans-63" transform="translate(718.408203 0.015625)"/>
      <use xlink:href="#DejaVuSans-65" transform="translate(773.388672 0.015625)"/>
      <use xlink:href="#DejaVuSans-20" transform="translate(834.912109 0.015625)"/>
      <use xlink:href="#DejaVuSans-66" transform="translate(866.699219 0.015625)"/>
      <use xlink:href="#DejaVuSans-72" transform="translate(901.904297 0.015625)"/>
      <use xlink:href="#DejaVuSans-6f" transform="translate(943.017578 0.015625)"/>
      <use xlink:href="#DejaVuSans-6d" transform="translate(1004.199219 0.015625)"/>
      <use xlink:href="#DejaVuSans-20" transform="translate(1101.611328 0.015625)"/>
      <use xlink:href="#DejaVuSans-52" transform="translate(1133.398438 0.015625)"/>
      <use xlink:href="#DejaVuSans-4f" transform="translate(1202.880859 0.015625)"/>
      <use xlink:href="#DejaVuSans-49" transform="translate(1281.591797 0.015625)"/>
      <use xlink:href="#DejaVuSans-20" transform="translate(1311.083984 0.015625)"/>
      <use xlink:href="#DejaVuSans-63" transform="translate(1342.871094 0.015625)"/>
      <use xlink:href="#DejaVuSans-65" transform="translate(1397.851562 0.015625)"/>
      <use xlink:href="#DejaVuSans-6e" transform="translate(1459.375 0.015625)"/>
      <use xlink:href="#DejaVuSans-74" transform="translate(1522.753906 0.015625)"/>
      <use xlink:href="#DejaVuSans-65" transform="translate(1561.962891 0.015625)"/>
      <use xlink:href="#DejaVuSans-72" transform="translate(1623.486328 0.015625)"/>
      <use xlink:href="#DejaVuSans-20" transform="translate(1664.599609 0.015625)"/>
      <use xlink:href="#DejaVuSans-28" transform="translate(1696.386719 0.015625)"/>
      <use xlink:href="#DejaVuSans-Oblique-3c3" transform="translate(1735.400391 0.015625)"/>
      <use xlink:href="#DejaVuSans-29" transform="translate(1798.779297 0.015625)"/>
     </g>
    </g>
   </g>
   <g id="matplotlib.axis_2">
    <g id="ytick_1">
     <g id="line2d_6">
      <defs>
       <path id="m56234c8c0d" d="M 0 0 
L -3.5 0 
" style="stroke: #000000; stroke-width: 0.8"/>
      </defs>
      <g>
       <use xlink:href="#m56234c8c0d" x="46" y="388.8" style="stroke: #000000; stroke-width: 0.8"/>
      </g>
     </g>
     <g id="text_7">
      <!-- 0 -->
      <g transform="translate(32.6375 392.599219) scale(0.1 -0.1)">
       <use xlink:href="#DejaVuSans-30"/>
      </g>
     </g>
    </g>
    <g id="ytick_2">
     <g id="line2d_7">
      <g>
       <use xlink:href="#m56234c8c0d" x="46" y="352.8" style="stroke: #000000; stroke-width: 0.8"/>
      </g>
     </g>
     <g id="text_8">
      <!-- 2 -->
      <g transform="translate(32.6375 356.599219) scale(0.1 -0.1)">
       <use xlink:href="#DejaVuSans-32"/>
      </g>
     </g>
    </g>
    <g id="ytick_3">
     <g id="line2d_8">
      <g>
       <use xlink:href="#m56234c8c0d" x="46" y="316.8" style="stroke: #000000; stroke-width: 0.8"/>
      </g>
     </g>
     <g id="text_9">
      <!-- 4 -->
      <g transform="translate(32.6375 320.599219) scale(0.1 -0.1)">
       <use xlink:href="#DejaVuSans-34"/>
      </g>
     </g>
    </g>
    <g id="ytick_4">
     <g id="line2d_9">
      <g>
       <use xlink:href="#m56234c8c0d" x="46" y="280.8" style="stroke: #000000; stroke-width: 0.8"/>
      </g>
     </g>
     <g id="text_10">
      <!-- 6 -->
      <g transform="translate(32.6375 284.599219) scale(0.1 -0.1)">
       <defs>
        <path id="DejaVuSans-36" d="M 2113 2584 
Q 1688 2584 1439 2293 
Q 1191 2003 1191 1497 
Q 1191 994 1439 701 
Q 1688 409 2113 409 
Q 2538 409 2786 701 
Q 3034 994 3034 1497 
Q 3034 2003 2786 2293 
Q 2538 2584 2113 2584 
z
M 3366 4563 
L 3366 3988 
Q 3128 4100 2886 4159 
Q 2644 4219 2406 4219 
Q 1781 4219 1451 3797 
Q 1122 3375 1075 2522 
Q 1259 2794 1537 2939 
Q 1816 3084 2150 3084 
Q 2853 3084 3261 2657 
Q 3669 2231 3669 1497 
Q 3669 778 3244 343 
Q 2819 -91 2113 -91 
Q 1303 -91 875 529 
Q 447 1150 447 2328 
Q 447 3434 972 4092 
Q 1497 4750 2381 4750 
Q 2619 4750 2861 4703 
Q 3103 4656 3366 4563 
z
" transform="scale(0.015625)"/>
       </defs>
       <use xlink:href="#DejaVuSans-36"/>
      </g>
     </g>
    </g>
    <g id="text_11">
     <!-- BOLD % change -->
     <g transform="translate(26.141875 383.094375) rotate(-90) scale(0.12 -0.12)">
      <defs>
       <path id="DejaVuSans-42" d="M 1259 2228 
L 1259 519 
L 2272 519 
Q 2781 519 3026 730 
Q 3272 941 3272 1375 
Q 3272 1813 3026 2020 
Q 2781 2228 2272 2228 
L 1259 2228 
z
M 1259 4147 
L 1259 2741 
L 2194 2741 
Q 2656 2741 2882 2914 
Q 3109 3088 3109 3444 
Q 3109 3797 2882 3972 
Q 2656 4147 2194 4147 
L 1259 4147 
z
M 628 4666 
L 2241 4666 
Q 2963 4666 3353 4366 
Q 3744 4066 3744 3513 
Q 3744 3084 3544 2831 
Q 3344 2578 2956 2516 
Q 3422 2416 3680 2098 
Q 3938 1781 3938 1306 
Q 3938 681 3513 340 
Q 3088 0 2303 0 
L 628 0 
L 628 4666 
z
" transform="scale(0.015625)"/>
       <path id="DejaVuSans-4c" d="M 628 4666 
L 1259 4666 
L 1259 531 
L 3531 531 
L 3531 0 
L 628 0 
L 628 4666 
z
" transform="scale(0.015625)"/>
       <path id="DejaVuSans-44" d="M 1259 4147 
L 1259 519 
L 2022 519 
Q 2988 519 3436 956 
Q 3884 1394 3884 2338 
Q 3884 3275 3436 3711 
Q 2988 4147 2022 4147 
L 1259 4147 
z
M 628 4666 
L 1925 4666 
Q 3281 4666 3915 4102 
Q 4550 3538 4550 2338 
Q 4550 1131 3912 565 
Q 3275 0 1925 0 
L 628 0 
L 628 4666 
z
" transform="scale(0.015625)"/>
       <path id="DejaVuSans-25" d="M 4653 2053 
Q 4381 2053 4226 1822 
Q 4072 1591 4072 1178 
Q 4072 772 4226 539 
Q 4381 306 4653 306 
Q 4919 306 5073 539 
Q 5228 772 5228 1178 
Q 5228 1588 5073 1820 
Q 4919 2053 4653 2053 
z
M 4653 2450 
Q 5147 2450 5437 2106 
Q 5728 1763 5728 1178 
Q 5728 594 5436 251 
Q 5144 -91 4653 -91 
Q 4153 -91 3862 251 
Q 3572 594 3572 1178 
Q 3572 1766 3864 2108 
Q 4156 2450 4653 2450 
z
M 1428 4353 
Q 1159 4353 1004 4120 
Q 850 3888 850 3481 
Q 850 3069 1003 2837 
Q 1156 2606 1428 2606 
Q 1700 2606 1854 2837 
Q 2009 3069 2009 3481 
Q 2009 3884 1853 4118 
Q 1697 4353 1428 4353 
z
M 4250 4750 
L 4750 4750 
L 1831 -91 
L 1331 -91 
L 4250 4750 
z
M 1428 4750 
Q 1922 4750 2215 4408 
Q 2509 4066 2509 3481 
Q 2509 2891 2217 2550 
Q 1925 2209 1428 2209 
Q 931 2209 642 2551 
Q 353 2894 353 3481 
Q 353 4063 643 4406 
Q 934 4750 1428 4750 
z
" transform="scale(0.015625)"/>
       <path id="DejaVuSans-68" d="M 3513 2113 
L 3513 0 
L 2938 0 
L 2938 2094 
Q 2938 2591 2744 2837 
Q 2550 3084 2163 3084 
Q 1697 3084 1428 2787 
Q 1159 2491 1159 1978 
L 1159 0 
L 581 0 
L 581 4863 
L 1159 4863 
L 1159 2956 
Q 1366 3272 1645 3428 
Q 1925 3584 2291 3584 
Q 2894 3584 3203 3211 
Q 3513 2838 3513 2113 
z
" transform="scale(0.015625)"/>
       <path id="DejaVuSans-67" d="M 2906 1791 
Q 2906 2416 2648 2759 
Q 2391 3103 1925 3103 
Q 1463 3103 1205 2759 
Q 947 2416 947 1791 
Q 947 1169 1205 825 
Q 1463 481 1925 481 
Q 2391 481 2648 825 
Q 2906 1169 2906 1791 
z
M 3481 434 
Q 3481 -459 3084 -895 
Q 2688 -1331 1869 -1331 
Q 1566 -1331 1297 -1286 
Q 1028 -1241 775 -1147 
L 775 -588 
Q 1028 -725 1275 -790 
Q 1522 -856 1778 -856 
Q 2344 -856 2625 -561 
Q 2906 -266 2906 331 
L 2906 616 
Q 2728 306 2450 153 
Q 2172 0 1784 0 
Q 1141 0 747 490 
Q 353 981 353 1791 
Q 353 2603 747 3093 
Q 1141 3584 1784 3584 
Q 2172 3584 2450 3431 
Q 2728 3278 2906 2969 
L 2906 3500 
L 3481 3500 
L 3481 434 
z
" transform="scale(0.015625)"/>
      </defs>
      <use xlink:href="#DejaVuSans-42"/>
      <use xlink:href="#DejaVuSans-4f" x="66.853516"/>
      <use xlink:href="#DejaVuSans-4c" x="145.564453"/>
      <use xlink:href="#DejaVuSans-44" x="201.277344"/>
      <use xlink:href="#DejaVuSans-20" x="278.279297"/>
      <use xlink:href="#DejaVuSans-25" x="310.066406"/>
      <use xlink:href="#DejaVuSans-20" x="405.085938"/>
      <use xlink:href="#DejaVuSans-63" x="436.873047"/>
      <use xlink:href="#DejaVuSans-68" x="491.853516"/>
      <use xlink:href="#DejaVuSans-61" x="555.232422"/>
      <use xlink:href="#DejaVuSans-6e" x="616.511719"/>
      <use xlink:href="#DejaVuSans-67" x="679.890625"/>
      <use xlink:href="#DejaVuSans-65" x="743.367188"/>
     </g>
    </g>
   </g>
   <g id="line2d_10">
    <path d="M 180 388.8 
L 180 280.8 
" clip-path="url(#pfe320fe2be)" style="fill: none; stroke-dasharray: 5.55,2.4; stroke-dashoffset: 0; stroke: #4c4c4c; stroke-width: 1.5"/>
   </g>
   <g id="line2d_11">
    <path d="M 65.454545 361.078451 
L 70.12987 361.078451 
L 74.805195 361.204107 
L 79.480519 361.375865 
L 84.155844 361.730781 
L 88.831169 363.346517 
L 93.506494 364.169834 
L 98.181818 364.077161 
L 102.857143 363.924856 
L 107.532468 365.53898 
L 112.207792 366.780087 
L 116.883117 368.27096 
L 121.558442 368.950692 
L 126.233766 368.496324 
L 130.909091 367.275465 
L 135.584416 366.798872 
L 140.25974 366.082759 
L 144.935065 366.972036 
L 149.61039 368.647149 
L 154.285714 369.492151 
L 158.961039 370.978447 
L 163.636364 371.675967 
L 168.311688 372.327628 
L 172.987013 372.92565 
L 177.662338 373.574188 
L 182.337662 374.962937 
L 187.012987 376.306613 
L 191.688312 376.969919 
L 196.363636 377.864955 
L 201.038961 378.783231 
L 205.714286 379.533247 
L 210.38961 379.646718 
L 215.064935 380.470217 
L 219.74026 380.962504 
L 224.415584 381.737301 
L 229.090909 382.305839 
L 233.766234 382.838878 
L 238.441558 384.82719 
L 243.116883 387.330164 
L 247.792208 388.858212 
L 252.467532 388.794836 
L 257.142857 388.513883 
L 261.818182 390.516506 
L 266.493506 390.693501 
L 271.168831 390.338927 
L 275.844156 391.265694 
L 280.519481 391.954291 
L 285.194805 391.869963 
L 289.87013 393.092943 
L 294.545455 394.094949 
" clip-path="url(#pfe320fe2be)" style="fill: none; stroke: #ffd700; stroke-width: 1.5; stroke-linecap: square"/>
   </g>
   <g id="line2d_12">
    <path d="M 180 388.8 
L 180 280.8 
" clip-path="url(#pfe320fe2be)" style="fill: none; stroke-dasharray: 5.55,2.4; stroke-dashoffset: 0; stroke: #4c4c4c; stroke-width: 1.5"/>
   </g>
   <g id="line2d_13">
    <path d="M 65.454545 375.69444 
L 70.12987 375.69444 
L 74.805195 376.056162 
L 79.480519 376.391947 
L 84.155844 377.044538 
L 88.831169 378.745425 
L 93.506494 379.86495 
L 98.181818 380.051185 
L 102.857143 379.664269 
L 107.532468 380.563633 
L 112.207792 381.370806 
L 116.883117 382.223733 
L 121.558442 382.259218 
L 126.233766 381.120486 
L 130.909091 379.199833 
L 135.584416 378.49717 
L 140.25974 377.727328 
L 144.935065 378.248787 
L 149.61039 379.741228 
L 154.285714 380.394298 
L 158.961039 381.306223 
L 163.636364 381.28335 
L 168.311688 381.363128 
L 172.987013 381.275409 
L 177.662338 380.965245 
L 182.337662 381.229682 
L 187.012987 381.268906 
L 191.688312 380.291386 
L 196.363636 379.830497 
L 201.038961 379.468485 
L 205.714286 378.887091 
L 210.38961 378.008563 
L 215.064935 377.416866 
L 219.74026 376.409235 
L 224.415584 375.768982 
L 229.090909 375.111349 
L 233.766234 374.384417 
L 238.441558 374.587153 
L 243.116883 375.340466 
L 247.792208 375.382741 
L 252.467532 373.888443 
L 257.142857 372.266422 
L 261.818182 373.392442 
L 266.493506 372.630896 
L 271.168831 371.46666 
L 275.844156 371.867439 
L 280.519481 372.294997 
L 285.194805 371.754475 
L 289.87013 372.325687 
L 294.545455 372.556871 
" clip-path="url(#pfe320fe2be)" style="fill: none; stroke: #800080; stroke-width: 1.5; stroke-linecap: square"/>
   </g>
   <g id="line2d_14">
    <path d="M 180 388.8 
L 180 280.8 
" clip-path="url(#pfe320fe2be)" style="fill: none; stroke-dasharray: 5.55,2.4; stroke-dashoffset: 0; stroke: #4c4c4c; stroke-width: 1.5"/>
   </g>
   <g id="line2d_15">
    <path d="M 65.454545 374.184011 
L 70.12987 374.184011 
L 74.805195 373.947945 
L 79.480519 373.783918 
L 84.155844 373.486243 
L 88.831169 373.401093 
L 93.506494 373.104884 
L 98.181818 372.825977 
L 102.857143 373.060587 
L 107.532468 373.775347 
L 112.207792 374.209281 
L 116.883117 374.847227 
L 121.558442 375.491475 
L 126.233766 376.175838 
L 130.909091 376.875632 
L 135.584416 377.101703 
L 140.25974 377.155431 
L 144.935065 377.523249 
L 149.61039 377.705921 
L 154.285714 377.897853 
L 158.961039 378.472225 
L 163.636364 379.192617 
L 168.311688 379.7645 
L 172.987013 380.450241 
L 177.662338 381.408943 
L 182.337662 382.533255 
L 187.012987 383.837707 
L 191.688312 385.478532 
L 196.363636 386.834459 
L 201.038961 388.114746 
L 205.714286 389.446156 
L 210.38961 390.438155 
L 215.064935 391.853351 
L 219.74026 393.353269 
L 224.415584 394.768319 
L 229.090909 395.994489 
L 233.766234 397.254461 
L 238.441558 399.040037 
L 243.116883 400.789698 
L 247.792208 402.275471 
L 252.467532 403.706393 
L 257.142857 405.04746 
L 261.818182 405.924065 
L 266.493506 406.862605 
L 271.168831 407.672267 
L 275.844156 408.198254 
L 280.519481 408.459293 
L 285.194805 408.915488 
L 289.87013 409.567257 
L 294.545455 410.338078 
" clip-path="url(#pfe320fe2be)" style="fill: none; stroke: #ff7f50; stroke-width: 1.5; stroke-linecap: square"/>
   </g>
   <g id="patch_3">
    <path d="M 46 388.8 
L 46 280.8 
" style="fill: none; stroke: #000000; stroke-width: 0.8; stroke-linejoin: miter; stroke-linecap: square"/>
   </g>
   <g id="patch_4">
    <path d="M 54 396.8 
L 306 396.8 
" style="fill: none; stroke: #000000; stroke-width: 0.8; stroke-linejoin: miter; stroke-linecap: square"/>
   </g>
  </g>
  <g id="axes_2">
   <g id="patch_5">
    <path d="M 54 259.2 
L 306 259.2 
L 306 151.2 
L 54 151.2 
z
" style="fill: #ffffff"/>
   </g>
   <g id="PolyCollection_4">
    <defs>
     <path id="m78a2f84432" d="M 65.454545 -224.389271 
L 65.454545 -201.606189 
L 70.12987 -202.155837 
L 74.805195 -202.94044 
L 79.480519 -202.53445 
L 84.155844 -201.996225 
L 88.831169 -202.625751 
L 93.506494 -201.469771 
L 98.181818 -200.095565 
L 102.857143 -199.29147 
L 107.532468 -198.814443 
L 112.207792 -199.725939 
L 116.883117 -199.908282 
L 121.558442 -199.668497 
L 126.233766 -199.359161 
L 130.909091 -198.118162 
L 135.584416 -196.892136 
L 140.25974 -196.495678 
L 144.935065 -196.719235 
L 149.61039 -196.826716 
L 154.285714 -197.019034 
L 158.961039 -196.419591 
L 163.636364 -195.463319 
L 168.311688 -194.057466 
L 172.987013 -192.141277 
L 177.662338 -190.345763 
L 182.337662 -188.237224 
L 187.012987 -185.809528 
L 191.688312 -184.554251 
L 196.363636 -183.149595 
L 201.038961 -181.525736 
L 205.714286 -180.658789 
L 210.38961 -180.042215 
L 215.064935 -178.701555 
L 219.74026 -177.938147 
L 224.415584 -178.215785 
L 229.090909 -177.99736 
L 233.766234 -177.857366 
L 238.441558 -177.877229 
L 243.116883 -177.76869 
L 247.792208 -176.976361 
L 252.467532 -175.592118 
L 257.142857 -174.49505 
L 261.818182 -173.561694 
L 266.493506 -172.022231 
L 271.168831 -170.244259 
L 275.844156 -167.801602 
L 280.519481 -165.125609 
L 285.194805 -163.007858 
L 289.87013 -161.381116 
L 294.545455 -159.106254 
L 294.545455 -176.255841 
L 294.545455 -176.255841 
L 289.87013 -182.357871 
L 285.194805 -186.520324 
L 280.519481 -190.715308 
L 275.844156 -196.704511 
L 271.168831 -202.919276 
L 266.493506 -206.921905 
L 261.818182 -209.541446 
L 257.142857 -210.48731 
L 252.467532 -210.930828 
L 247.792208 -211.469007 
L 243.116883 -209.544464 
L 238.441558 -206.578695 
L 233.766234 -202.830949 
L 229.090909 -200.160244 
L 224.415584 -198.92751 
L 219.74026 -196.793879 
L 215.064935 -195.738284 
L 210.38961 -195.227188 
L 205.714286 -194.784155 
L 201.038961 -195.327993 
L 196.363636 -196.795066 
L 191.688312 -197.760847 
L 187.012987 -198.670422 
L 182.337662 -200.34771 
L 177.662338 -201.744489 
L 172.987013 -203.412194 
L 168.311688 -205.734018 
L 163.636364 -206.749843 
L 158.961039 -207.882378 
L 154.285714 -208.994016 
L 149.61039 -209.312166 
L 144.935065 -209.800436 
L 140.25974 -209.950374 
L 135.584416 -210.753671 
L 130.909091 -212.026161 
L 126.233766 -213.386943 
L 121.558442 -213.69305 
L 116.883117 -214.469515 
L 112.207792 -215.70417 
L 107.532468 -215.949398 
L 102.857143 -215.914168 
L 98.181818 -216.658083 
L 93.506494 -219.988158 
L 88.831169 -223.06574 
L 84.155844 -222.772389 
L 79.480519 -223.644612 
L 74.805195 -225.129933 
L 70.12987 -224.754406 
L 65.454545 -224.389271 
z
"/>
    </defs>
    <g clip-path="url(#p765a38b105)">
     <use xlink:href="#m78a2f84432" x="0" y="432" style="fill: #ffd700; fill-opacity: 0.4"/>
    </g>
   </g>
   <g id="PolyCollection_5">
    <defs>
     <path id="m03b1197606" d="M 65.454545 -191.789437 
L 65.454545 -173.247538 
L 70.12987 -173.643982 
L 74.805195 -174.041446 
L 79.480519 -174.172046 
L 84.155844 -174.300004 
L 88.831169 -175.782855 
L 93.506494 -175.040505 
L 98.181818 -173.521764 
L 102.857143 -172.844599 
L 107.532468 -172.640485 
L 112.207792 -173.874515 
L 116.883117 -173.98216 
L 121.558442 -173.663915 
L 126.233766 -173.967257 
L 130.909091 -173.529507 
L 135.584416 -173.505524 
L 140.25974 -175.041847 
L 144.935065 -176.977964 
L 149.61039 -178.31605 
L 154.285714 -179.720829 
L 158.961039 -180.340752 
L 163.636364 -180.982451 
L 168.311688 -181.279783 
L 172.987013 -180.938144 
L 177.662338 -180.392168 
L 182.337662 -179.643402 
L 187.012987 -178.669973 
L 191.688312 -179.102396 
L 196.363636 -179.96889 
L 201.038961 -181.061087 
L 205.714286 -183.347706 
L 210.38961 -185.853663 
L 215.064935 -187.319884 
L 219.74026 -189.443982 
L 224.415584 -192.15923 
L 229.090909 -194.045582 
L 233.766234 -195.542804 
L 238.441558 -197.173967 
L 243.116883 -198.602407 
L 247.792208 -199.302296 
L 252.467532 -199.193172 
L 257.142857 -198.791277 
L 261.818182 -198.641197 
L 266.493506 -198.034788 
L 271.168831 -197.275916 
L 275.844156 -196.08965 
L 280.519481 -194.488529 
L 285.194805 -193.237262 
L 289.87013 -192.438495 
L 294.545455 -191.211402 
L 294.545455 -209.484454 
L 294.545455 -209.484454 
L 289.87013 -215.405897 
L 285.194805 -218.264841 
L 280.519481 -221.281682 
L 275.844156 -226.395801 
L 271.168831 -232.247868 
L 266.493506 -236.287541 
L 261.818182 -238.610652 
L 257.142857 -239.679498 
L 252.467532 -240.213385 
L 247.792208 -239.171985 
L 243.116883 -235.071555 
L 238.441558 -229.231823 
L 233.766234 -222.416396 
L 229.090909 -216.401247 
L 224.415584 -211.477579 
L 219.74026 -206.410982 
L 215.064935 -202.975367 
L 210.38961 -200.06608 
L 205.714286 -197.26305 
L 201.038961 -195.532487 
L 196.363636 -194.224542 
L 191.688312 -192.944202 
L 187.012987 -192.12094 
L 182.337662 -191.697648 
L 177.662338 -191.183981 
L 172.987013 -190.852818 
L 168.311688 -191.196076 
L 163.636364 -190.904776 
L 158.961039 -190.451188 
L 154.285714 -190.343207 
L 149.61039 -189.456295 
L 144.935065 -188.843491 
L 140.25974 -187.911432 
L 135.584416 -187.727777 
L 130.909091 -188.105153 
L 126.233766 -188.924167 
L 121.558442 -188.53109 
L 116.883117 -188.583123 
L 112.207792 -189.376023 
L 107.532468 -189.054043 
L 102.857143 -188.151649 
L 98.181818 -187.739274 
L 93.506494 -189.638711 
L 88.831169 -191.58891 
L 84.155844 -190.810552 
L 79.480519 -191.400477 
L 74.805195 -192.626439 
L 70.12987 -192.21911 
L 65.454545 -191.789437 
z
"/>
    </defs>
    <g clip-path="url(#p765a38b105)">
     <use xlink:href="#m03b1197606" x="0" y="432" style="fill: #800080; fill-opacity: 0.4"/>
    </g>
   </g>
   <g id="PolyCollection_6">
    <defs>
     <path id="m2006bab6c2" d="M 65.454545 -208.631802 
L 65.454545 -197.926683 
L 70.12987 -197.967906 
L 74.805195 -198.138997 
L 79.480519 -197.692525 
L 84.155844 -197.293328 
L 88.831169 -197.004977 
L 93.506494 -196.952219 
L 98.181818 -196.879201 
L 102.857143 -196.651933 
L 107.532468 -196.5191 
L 112.207792 -196.256282 
L 116.883117 -196.00756 
L 121.558442 -195.60775 
L 126.233766 -194.979888 
L 130.909091 -194.343518 
L 135.584416 -193.30575 
L 140.25974 -192.226988 
L 144.935065 -191.329337 
L 149.61039 -190.51506 
L 154.285714 -189.4667 
L 158.961039 -188.272533 
L 163.636364 -186.564525 
L 168.311688 -184.551469 
L 172.987013 -182.448332 
L 177.662338 -180.404598 
L 182.337662 -178.37859 
L 187.012987 -176.302723 
L 191.688312 -174.259565 
L 196.363636 -171.85567 
L 201.038961 -169.096295 
L 205.714286 -166.406762 
L 210.38961 -163.522323 
L 215.064935 -160.71467 
L 219.74026 -157.691567 
L 224.415584 -154.511655 
L 229.090909 -151.019376 
L 233.766234 -148.006847 
L 238.441558 -145.25398 
L 243.116883 -142.700912 
L 247.792208 -140.684534 
L 252.467532 -139.1895 
L 257.142857 -139.192163 
L 261.818182 -138.94523 
L 266.493506 -138.309762 
L 271.168831 -137.823217 
L 275.844156 -136.910377 
L 280.519481 -135.885419 
L 285.194805 -134.798105 
L 289.87013 -133.578076 
L 294.545455 -132.881135 
L 294.545455 -147.385104 
L 294.545455 -147.385104 
L 289.87013 -147.916519 
L 285.194805 -148.827975 
L 280.519481 -149.785287 
L 275.844156 -150.710285 
L 271.168831 -151.416534 
L 266.493506 -151.912045 
L 261.818182 -152.506061 
L 257.142857 -152.919422 
L 252.467532 -153.526889 
L 247.792208 -154.886553 
L 243.116883 -156.53828 
L 238.441558 -158.396156 
L 233.766234 -160.32227 
L 229.090909 -162.291399 
L 224.415584 -164.594832 
L 219.74026 -166.785496 
L 215.064935 -169.029919 
L 210.38961 -171.427338 
L 205.714286 -174.025427 
L 201.038961 -176.763861 
L 196.363636 -179.495559 
L 191.688312 -181.608936 
L 187.012987 -182.986315 
L 182.337662 -184.465294 
L 177.662338 -185.709506 
L 172.987013 -186.914178 
L 168.311688 -188.364157 
L 163.636364 -189.36141 
L 158.961039 -190.837496 
L 154.285714 -192.082315 
L 149.61039 -193.451476 
L 144.935065 -194.968879 
L 140.25974 -196.865784 
L 135.584416 -198.706756 
L 130.909091 -199.766145 
L 126.233766 -200.474792 
L 121.558442 -201.158793 
L 116.883117 -201.404956 
L 112.207792 -201.523289 
L 107.532468 -202.150213 
L 102.857143 -203.157458 
L 98.181818 -204.21341 
L 93.506494 -205.426496 
L 88.831169 -206.91475 
L 84.155844 -207.964731 
L 79.480519 -208.514016 
L 74.805195 -208.863491 
L 70.12987 -208.679244 
L 65.454545 -208.631802 
z
"/>
    </defs>
    <g clip-path="url(#p765a38b105)">
     <use xlink:href="#m2006bab6c2" x="0" y="432" style="fill: #ff7f50; fill-opacity: 0.4"/>
    </g>
   </g>
   <g id="matplotlib.axis_3">
    <g id="xtick_6">
     <g id="line2d_16">
      <g>
       <use xlink:href="#mb2b7edefdf" x="65.454545" y="267.2" style="stroke: #000000; stroke-width: 0.8"/>
      </g>
     </g>
    </g>
    <g id="xtick_7">
     <g id="line2d_17">
      <g>
       <use xlink:href="#mb2b7edefdf" x="122.727273" y="267.2" style="stroke: #000000; stroke-width: 0.8"/>
      </g>
     </g>
    </g>
    <g id="xtick_8">
     <g id="line2d_18">
      <g>
       <use xlink:href="#mb2b7edefdf" x="180" y="267.2" style="stroke: #000000; stroke-width: 0.8"/>
      </g>
     </g>
    </g>
    <g id="xtick_9">
     <g id="line2d_19">
      <g>
       <use xlink:href="#mb2b7edefdf" x="237.272727" y="267.2" style="stroke: #000000; stroke-width: 0.8"/>
      </g>
     </g>
    </g>
    <g id="xtick_10">
     <g id="line2d_20">
      <g>
       <use xlink:href="#mb2b7edefdf" x="294.545455" y="267.2" style="stroke: #000000; stroke-width: 0.8"/>
      </g>
     </g>
    </g>
   </g>
   <g id="matplotlib.axis_4">
    <g id="ytick_5">
     <g id="line2d_21">
      <g>
       <use xlink:href="#m56234c8c0d" x="46" y="259.2" style="stroke: #000000; stroke-width: 0.8"/>
      </g>
     </g>
     <g id="text_12">
      <!-- 0 -->
      <g transform="translate(32.6375 262.999219) scale(0.1 -0.1)">
       <use xlink:href="#DejaVuSans-30"/>
      </g>
     </g>
    </g>
    <g id="ytick_6">
     <g id="line2d_22">
      <g>
       <use xlink:href="#m56234c8c0d" x="46" y="223.2" style="stroke: #000000; stroke-width: 0.8"/>
      </g>
     </g>
     <g id="text_13">
      <!-- 2 -->
      <g transform="translate(32.6375 226.999219) scale(0.1 -0.1)">
       <use xlink:href="#DejaVuSans-32"/>
      </g>
     </g>
    </g>
    <g id="ytick_7">
     <g id="line2d_23">
      <g>
       <use xlink:href="#m56234c8c0d" x="46" y="187.2" style="stroke: #000000; stroke-width: 0.8"/>
      </g>
     </g>
     <g id="text_14">
      <!-- 4 -->
      <g transform="translate(32.6375 190.999219) scale(0.1 -0.1)">
       <use xlink:href="#DejaVuSans-34"/>
      </g>
     </g>
    </g>
    <g id="ytick_8">
     <g id="line2d_24">
      <g>
       <use xlink:href="#m56234c8c0d" x="46" y="151.2" style="stroke: #000000; stroke-width: 0.8"/>
      </g>
     </g>
     <g id="text_15">
      <!-- 6 -->
      <g transform="translate(32.6375 154.999219) scale(0.1 -0.1)">
       <use xlink:href="#DejaVuSans-36"/>
      </g>
     </g>
    </g>
    <g id="text_16">
     <!-- BOLD % change -->
     <g transform="translate(26.141875 253.494375) rotate(-90) scale(0.12 -0.12)">
      <use xlink:href="#DejaVuSans-42"/>
      <use xlink:href="#DejaVuSans-4f" x="66.853516"/>
      <use xlink:href="#DejaVuSans-4c" x="145.564453"/>
      <use xlink:href="#DejaVuSans-44" x="201.277344"/>
      <use xlink:href="#DejaVuSans-20" x="278.279297"/>
      <use xlink:href="#DejaVuSans-25" x="310.066406"/>
      <use xlink:href="#DejaVuSans-20" x="405.085938"/>
      <use xlink:href="#DejaVuSans-63" x="436.873047"/>
      <use xlink:href="#DejaVuSans-68" x="491.853516"/>
      <use xlink:href="#DejaVuSans-61" x="555.232422"/>
      <use xlink:href="#DejaVuSans-6e" x="616.511719"/>
      <use xlink:href="#DejaVuSans-67" x="679.890625"/>
      <use xlink:href="#DejaVuSans-65" x="743.367188"/>
     </g>
    </g>
   </g>
   <g id="line2d_25">
    <path d="M 180 259.2 
L 180 151.2 
" clip-path="url(#p765a38b105)" style="fill: none; stroke-dasharray: 5.55,2.4; stroke-dashoffset: 0; stroke: #4c4c4c; stroke-width: 1.5"/>
   </g>
   <g id="line2d_26">
    <path d="M 65.454545 219.00227 
L 70.12987 218.544878 
L 74.805195 217.964813 
L 79.480519 218.910469 
L 84.155844 219.615693 
L 88.831169 219.154255 
L 93.506494 221.271036 
L 98.181818 223.623176 
L 102.857143 224.397181 
L 107.532468 224.618079 
L 112.207792 224.284946 
L 116.883117 224.811101 
L 121.558442 225.319226 
L 126.233766 225.626948 
L 130.909091 226.927839 
L 135.584416 228.177097 
L 140.25974 228.776974 
L 144.935065 228.740164 
L 149.61039 228.930559 
L 154.285714 228.993475 
L 158.961039 229.849016 
L 163.636364 230.893419 
L 168.311688 232.104258 
L 172.987013 234.223264 
L 177.662338 235.954874 
L 182.337662 237.707533 
L 187.012987 239.760025 
L 191.688312 240.842451 
L 196.363636 242.027669 
L 201.038961 243.573136 
L 205.714286 244.278528 
L 210.38961 244.365298 
L 215.064935 244.78008 
L 219.74026 244.633987 
L 224.415584 243.428352 
L 229.090909 242.921198 
L 233.766234 241.655842 
L 238.441558 239.772038 
L 243.116883 238.343423 
L 247.792208 237.777316 
L 252.467532 238.738527 
L 257.142857 239.50882 
L 261.818182 240.44843 
L 266.493506 242.527932 
L 271.168831 245.418233 
L 275.844156 249.746944 
L 280.519481 254.079542 
L 285.194805 257.235909 
L 289.87013 260.130506 
L 294.545455 264.318953 
" clip-path="url(#p765a38b105)" style="fill: none; stroke: #ffd700; stroke-width: 1.5; stroke-linecap: square"/>
   </g>
   <g id="line2d_27">
    <path d="M 180 259.2 
L 180 151.2 
" clip-path="url(#p765a38b105)" style="fill: none; stroke-dasharray: 5.55,2.4; stroke-dashoffset: 0; stroke: #4c4c4c; stroke-width: 1.5"/>
   </g>
   <g id="line2d_28">
    <path d="M 65.454545 249.481512 
L 70.12987 249.068454 
L 74.805195 248.666057 
L 79.480519 249.213739 
L 84.155844 249.444722 
L 88.831169 248.314118 
L 93.506494 249.660392 
L 98.181818 251.369481 
L 102.857143 251.501876 
L 107.532468 251.152736 
L 112.207792 250.374731 
L 116.883117 250.717359 
L 121.558442 250.902497 
L 126.233766 250.554288 
L 130.909091 251.18267 
L 135.584416 251.383349 
L 140.25974 250.523361 
L 144.935065 249.089272 
L 149.61039 248.113827 
L 154.285714 246.967982 
L 158.961039 246.60403 
L 163.636364 246.056387 
L 168.311688 245.762071 
L 172.987013 246.104519 
L 177.662338 246.211926 
L 182.337662 246.329475 
L 187.012987 246.604543 
L 191.688312 245.976701 
L 196.363636 244.903284 
L 201.038961 243.703213 
L 205.714286 241.694622 
L 210.38961 239.040128 
L 215.064935 236.852374 
L 219.74026 234.072518 
L 224.415584 230.181596 
L 229.090909 226.776586 
L 233.766234 223.0204 
L 238.441558 218.797105 
L 243.116883 215.163019 
L 247.792208 212.76286 
L 252.467532 212.296722 
L 257.142857 212.764612 
L 261.818182 213.374075 
L 266.493506 214.838835 
L 271.168831 217.238108 
L 275.844156 220.757275 
L 280.519481 224.114895 
L 285.194805 226.248949 
L 289.87013 228.077804 
L 294.545455 231.652072 
" clip-path="url(#p765a38b105)" style="fill: none; stroke: #800080; stroke-width: 1.5; stroke-linecap: square"/>
   </g>
   <g id="line2d_29">
    <path d="M 180 259.2 
L 180 151.2 
" clip-path="url(#p765a38b105)" style="fill: none; stroke-dasharray: 5.55,2.4; stroke-dashoffset: 0; stroke: #4c4c4c; stroke-width: 1.5"/>
   </g>
   <g id="line2d_30">
    <path d="M 65.454545 228.720757 
L 70.12987 228.676425 
L 74.805195 228.498756 
L 79.480519 228.89673 
L 84.155844 229.37097 
L 88.831169 230.040136 
L 93.506494 230.810643 
L 98.181818 231.453695 
L 102.857143 232.095304 
L 107.532468 232.665343 
L 112.207792 233.110214 
L 116.883117 233.293742 
L 121.558442 233.616729 
L 126.233766 234.27266 
L 130.909091 234.945168 
L 135.584416 235.993747 
L 140.25974 237.453614 
L 144.935065 238.850892 
L 149.61039 240.016732 
L 154.285714 241.225493 
L 158.961039 242.444985 
L 163.636364 244.037033 
L 168.311688 245.542187 
L 172.987013 247.318745 
L 177.662338 248.942948 
L 182.337662 250.578058 
L 187.012987 252.355481 
L 191.688312 254.06575 
L 196.363636 256.324386 
L 201.038961 259.069922 
L 205.714286 261.783905 
L 210.38961 264.52517 
L 215.064935 267.127706 
L 219.74026 269.761469 
L 224.415584 272.446757 
L 229.090909 275.344613 
L 233.766234 277.835442 
L 238.441558 280.174932 
L 243.116883 282.380404 
L 247.792208 284.214456 
L 252.467532 285.641805 
L 257.142857 285.944207 
L 261.818182 286.274355 
L 266.493506 286.889097 
L 271.168831 287.380125 
L 275.844156 288.189669 
L 280.519481 289.164647 
L 285.194805 290.18696 
L 289.87013 291.252702 
L 294.545455 291.866881 
" clip-path="url(#p765a38b105)" style="fill: none; stroke: #ff7f50; stroke-width: 1.5; stroke-linecap: square"/>
   </g>
   <g id="patch_6">
    <path d="M 46 259.2 
L 46 151.2 
" style="fill: none; stroke: #000000; stroke-width: 0.8; stroke-linejoin: miter; stroke-linecap: square"/>
   </g>
   <g id="patch_7">
    <path d="M 54 267.2 
L 306 267.2 
" style="fill: none; stroke: #000000; stroke-width: 0.8; stroke-linejoin: miter; stroke-linecap: square"/>
   </g>
   <g id="text_17">
    <!-- ctr_unwarp -->
    <g style="fill: #ffd700" transform="translate(265.909091 160.2) scale(0.11 -0.11)">
     <defs>
      <path id="DejaVuSans-5f" d="M 3263 -1063 
L 3263 -1509 
L -63 -1509 
L -63 -1063 
L 3263 -1063 
z
" transform="scale(0.015625)"/>
      <path id="DejaVuSans-75" d="M 544 1381 
L 544 3500 
L 1119 3500 
L 1119 1403 
Q 1119 906 1312 657 
Q 1506 409 1894 409 
Q 2359 409 2629 706 
Q 2900 1003 2900 1516 
L 2900 3500 
L 3475 3500 
L 3475 0 
L 2900 0 
L 2900 538 
Q 2691 219 2414 64 
Q 2138 -91 1772 -91 
Q 1169 -91 856 284 
Q 544 659 544 1381 
z
M 1991 3584 
L 1991 3584 
z
" transform="scale(0.015625)"/>
      <path id="DejaVuSans-77" d="M 269 3500 
L 844 3500 
L 1563 769 
L 2278 3500 
L 2956 3500 
L 3675 769 
L 4391 3500 
L 4966 3500 
L 4050 0 
L 3372 0 
L 2619 2869 
L 1863 0 
L 1184 0 
L 269 3500 
z
" transform="scale(0.015625)"/>
      <path id="DejaVuSans-70" d="M 1159 525 
L 1159 -1331 
L 581 -1331 
L 581 3500 
L 1159 3500 
L 1159 2969 
Q 1341 3281 1617 3432 
Q 1894 3584 2278 3584 
Q 2916 3584 3314 3078 
Q 3713 2572 3713 1747 
Q 3713 922 3314 415 
Q 2916 -91 2278 -91 
Q 1894 -91 1617 61 
Q 1341 213 1159 525 
z
M 3116 1747 
Q 3116 2381 2855 2742 
Q 2594 3103 2138 3103 
Q 1681 3103 1420 2742 
Q 1159 2381 1159 1747 
Q 1159 1113 1420 752 
Q 1681 391 2138 391 
Q 2594 391 2855 752 
Q 3116 1113 3116 1747 
z
" transform="scale(0.015625)"/>
     </defs>
     <use xlink:href="#DejaVuSans-63"/>
     <use xlink:href="#DejaVuSans-74" x="54.980469"/>
     <use xlink:href="#DejaVuSans-72" x="94.189453"/>
     <use xlink:href="#DejaVuSans-5f" x="135.302734"/>
     <use xlink:href="#DejaVuSans-75" x="185.302734"/>
     <use xlink:href="#DejaVuSans-6e" x="248.681641"/>
     <use xlink:href="#DejaVuSans-77" x="312.060547"/>
     <use xlink:href="#DejaVuSans-61" x="393.847656"/>
     <use xlink:href="#DejaVuSans-72" x="455.126953"/>
     <use xlink:href="#DejaVuSans-70" x="496.240234"/>
    </g>
   </g>
   <g id="text_18">
    <!-- sur_unwarp -->
    <g style="fill: #800080" transform="translate(265.909091 172.8) scale(0.11 -0.11)">
     <use xlink:href="#DejaVuSans-73"/>
     <use xlink:href="#DejaVuSans-75" x="52.099609"/>
     <use xlink:href="#DejaVuSans-72" x="115.478516"/>
     <use xlink:href="#DejaVuSans-5f" x="156.591797"/>
     <use xlink:href="#DejaVuSans-75" x="206.591797"/>
     <use xlink:href="#DejaVuSans-6e" x="269.970703"/>
     <use xlink:href="#DejaVuSans-77" x="333.349609"/>
     <use xlink:href="#DejaVuSans-61" x="415.136719"/>
     <use xlink:href="#DejaVuSans-72" x="476.416016"/>
     <use xlink:href="#DejaVuSans-70" x="517.529297"/>
    </g>
   </g>
   <g id="text_19">
    <!-- ctr-sur_unwarp -->
    <g style="fill: #ff7f50" transform="translate(265.909091 185.4) scale(0.11 -0.11)">
     <defs>
      <path id="DejaVuSans-2d" d="M 313 2009 
L 1997 2009 
L 1997 1497 
L 313 1497 
L 313 2009 
z
" transform="scale(0.015625)"/>
     </defs>
     <use xlink:href="#DejaVuSans-63"/>
     <use xlink:href="#DejaVuSans-74" x="54.980469"/>
     <use xlink:href="#DejaVuSans-72" x="94.189453"/>
     <use xlink:href="#DejaVuSans-2d" x="128.927734"/>
     <use xlink:href="#DejaVuSans-73" x="165.011719"/>
     <use xlink:href="#DejaVuSans-75" x="217.111328"/>
     <use xlink:href="#DejaVuSans-72" x="280.490234"/>
     <use xlink:href="#DejaVuSans-5f" x="321.603516"/>
     <use xlink:href="#DejaVuSans-75" x="371.603516"/>
     <use xlink:href="#DejaVuSans-6e" x="434.982422"/>
     <use xlink:href="#DejaVuSans-77" x="498.361328"/>
     <use xlink:href="#DejaVuSans-61" x="580.148438"/>
     <use xlink:href="#DejaVuSans-72" x="641.427734"/>
     <use xlink:href="#DejaVuSans-70" x="682.541016"/>
    </g>
   </g>
  </g>
  <g id="axes_3">
   <g id="patch_8">
    <path d="M 54 129.6 
L 306 129.6 
L 306 21.6 
L 54 21.6 
z
" style="fill: #ffffff"/>
   </g>
   <g id="PolyCollection_7">
    <defs>
     <path id="m81d243a225" d="M 65.454545 -355.211413 
L 65.454545 -331.625399 
L 70.12987 -331.49448 
L 74.805195 -331.53439 
L 79.480519 -331.468567 
L 84.155844 -331.661262 
L 88.831169 -333.073167 
L 93.506494 -334.069527 
L 98.181818 -335.120929 
L 102.857143 -335.732563 
L 107.532468 -336.291724 
L 112.207792 -334.179121 
L 116.883117 -332.879054 
L 121.558442 -330.179396 
L 126.233766 -328.556488 
L 130.909091 -326.432172 
L 135.584416 -324.933152 
L 140.25974 -321.187462 
L 144.935065 -318.154446 
L 149.61039 -315.810397 
L 154.285714 -313.967534 
L 158.961039 -310.884076 
L 163.636364 -306.686591 
L 168.311688 -300.272039 
L 172.987013 -293.679377 
L 177.662338 -284.493652 
L 182.337662 -282.779875 
L 187.012987 -290.756987 
L 191.688312 -294.963391 
L 196.363636 -297.846646 
L 201.038961 -298.577528 
L 205.714286 -298.9298 
L 210.38961 -299.451185 
L 215.064935 -298.796052 
L 219.74026 -297.79696 
L 224.415584 -296.850837 
L 229.090909 -296.906138 
L 233.766234 -295.91165 
L 238.441558 -294.537087 
L 243.116883 -292.599311 
L 247.792208 -290.920177 
L 252.467532 -290.492695 
L 257.142857 -289.239063 
L 261.818182 -287.865112 
L 266.493506 -286.607165 
L 271.168831 -285.222949 
L 275.844156 -282.389906 
L 280.519481 -281.528484 
L 285.194805 -281.150261 
L 289.87013 -281.331444 
L 294.545455 -280.770706 
L 294.545455 -296.070086 
L 294.545455 -296.070086 
L 289.87013 -297.415275 
L 285.194805 -298.386365 
L 280.519481 -299.796648 
L 275.844156 -301.684913 
L 271.168831 -303.976232 
L 266.493506 -304.955016 
L 261.818182 -305.429241 
L 257.142857 -306.426733 
L 252.467532 -307.156578 
L 247.792208 -307.709318 
L 243.116883 -309.650462 
L 238.441558 -311.472813 
L 233.766234 -313.108651 
L 229.090909 -314.533741 
L 224.415584 -314.554695 
L 219.74026 -315.263609 
L 215.064935 -316.062179 
L 210.38961 -316.295534 
L 205.714286 -315.926401 
L 201.038961 -315.867795 
L 196.363636 -316.769381 
L 191.688312 -317.304088 
L 187.012987 -318.725079 
L 182.337662 -318.146807 
L 177.662338 -320.431045 
L 172.987013 -323.253458 
L 168.311688 -325.391649 
L 163.636364 -329.125177 
L 158.961039 -331.776044 
L 154.285714 -334.357649 
L 149.61039 -336.283385 
L 144.935065 -339.029001 
L 140.25974 -341.961189 
L 135.584416 -344.509335 
L 130.909091 -344.976466 
L 126.233766 -346.098474 
L 121.558442 -347.879696 
L 116.883117 -351.410166 
L 112.207792 -353.068383 
L 107.532468 -356.190063 
L 102.857143 -356.053541 
L 98.181818 -356.422741 
L 93.506494 -357.056649 
L 88.831169 -357.439941 
L 84.155844 -356.70935 
L 79.480519 -355.833693 
L 74.805195 -355.484592 
L 70.12987 -355.155336 
L 65.454545 -355.211413 
z
"/>
    </defs>
    <g clip-path="url(#p8f05f5cf4a)">
     <use xlink:href="#m81d243a225" x="0" y="432" style="fill: #ffd700; fill-opacity: 0.4"/>
    </g>
   </g>
   <g id="PolyCollection_8">
    <defs>
     <path id="m0c16151a30" d="M 65.454545 -302.576297 
L 65.454545 -276.652279 
L 70.12987 -276.66384 
L 74.805195 -277.230957 
L 79.480519 -277.556421 
L 84.155844 -279.595963 
L 88.831169 -282.765811 
L 93.506494 -285.437219 
L 98.181818 -287.816775 
L 102.857143 -290.394096 
L 107.532468 -292.692996 
L 112.207792 -292.666727 
L 116.883117 -292.214046 
L 121.558442 -290.689563 
L 126.233766 -290.610878 
L 130.909091 -290.838767 
L 135.584416 -292.060236 
L 140.25974 -291.247832 
L 144.935065 -290.91423 
L 149.61039 -290.642798 
L 154.285714 -290.816176 
L 158.961039 -289.719051 
L 163.636364 -287.945821 
L 168.311688 -284.848564 
L 172.987013 -281.457032 
L 177.662338 -275.490337 
L 182.337662 -277.312653 
L 187.012987 -288.034913 
L 191.688312 -294.938596 
L 196.363636 -300.891836 
L 201.038961 -305.104867 
L 205.714286 -308.751223 
L 210.38961 -312.056811 
L 215.064935 -314.896072 
L 219.74026 -316.607463 
L 224.415584 -317.838798 
L 229.090909 -319.467475 
L 233.766234 -320.293034 
L 238.441558 -320.758241 
L 243.116883 -320.405823 
L 247.792208 -319.735702 
L 252.467532 -320.20009 
L 257.142857 -320.384284 
L 261.818182 -320.531925 
L 266.493506 -320.846837 
L 271.168831 -321.033744 
L 275.844156 -319.719746 
L 280.519481 -320.4095 
L 285.194805 -321.021293 
L 289.87013 -321.74903 
L 294.545455 -321.912793 
L 294.545455 -341.033881 
L 294.545455 -341.033881 
L 289.87013 -341.183534 
L 285.194805 -341.195764 
L 280.519481 -341.205944 
L 275.844156 -341.444691 
L 271.168831 -342.930138 
L 266.493506 -343.214462 
L 261.818182 -342.48915 
L 257.142857 -341.982201 
L 252.467532 -341.550429 
L 247.792208 -340.579057 
L 243.116883 -340.969181 
L 238.441558 -341.061208 
L 233.766234 -340.269945 
L 229.090909 -338.985891 
L 224.415584 -337.090806 
L 219.74026 -335.67073 
L 215.064935 -333.92782 
L 210.38961 -331.407365 
L 205.714286 -329.044353 
L 201.038961 -327.319038 
L 196.363636 -325.530194 
L 191.688312 -323.140743 
L 187.012987 -321.637156 
L 182.337662 -317.958036 
L 177.662338 -316.784763 
L 172.987013 -316.21842 
L 168.311688 -314.111522 
L 163.636364 -313.841823 
L 158.961039 -313.379801 
L 154.285714 -313.081192 
L 149.61039 -312.224747 
L 144.935065 -312.711502 
L 140.25974 -312.596953 
L 135.584416 -312.527583 
L 130.909091 -309.981584 
L 126.233766 -308.58425 
L 121.558442 -308.077755 
L 116.883117 -309.750715 
L 112.207792 -310.313861 
L 107.532468 -311.702792 
L 102.857143 -310.189558 
L 98.181818 -308.820077 
L 93.506494 -308.092904 
L 88.831169 -306.9493 
L 84.155844 -305.063276 
L 79.480519 -303.554949 
L 74.805195 -302.896306 
L 70.12987 -302.577705 
L 65.454545 -302.576297 
z
"/>
    </defs>
    <g clip-path="url(#p8f05f5cf4a)">
     <use xlink:href="#m0c16151a30" x="0" y="432" style="fill: #800080; fill-opacity: 0.4"/>
    </g>
   </g>
   <g id="PolyCollection_9">
    <defs>
     <path id="m9fd5a5c3f5" d="M 65.454545 -365.052916 
L 65.454545 -347.355321 
L 70.12987 -347.316766 
L 74.805195 -347.221386 
L 79.480519 -346.966166 
L 84.155844 -346.023671 
L 88.831169 -344.908993 
L 93.506494 -343.496045 
L 98.181818 -342.176875 
L 102.857143 -340.393374 
L 107.532468 -339.112825 
L 112.207792 -337.482532 
L 116.883117 -336.681379 
L 121.558442 -335.393653 
L 126.233766 -333.749028 
L 130.909091 -331.483169 
L 135.584416 -328.7762 
L 140.25974 -326.177592 
L 144.935065 -323.377227 
L 149.61039 -321.76999 
L 154.285714 -319.952233 
L 158.961039 -317.973148 
L 163.636364 -315.461693 
L 168.311688 -311.629202 
L 172.987013 -307.579416 
L 177.662338 -303.89746 
L 182.337662 -299.78987 
L 187.012987 -296.557976 
L 191.688312 -293.605324 
L 196.363636 -290.320935 
L 201.038961 -286.645018 
L 205.714286 -283.781642 
L 210.38961 -281.031655 
L 215.064935 -277.311372 
L 219.74026 -274.439038 
L 224.415584 -272.037591 
L 229.090909 -270.236839 
L 233.766234 -267.987143 
L 238.441558 -265.93483 
L 243.116883 -264.295106 
L 247.792208 -263.127888 
L 252.467532 -262.173125 
L 257.142857 -261.079645 
L 261.818182 -259.616065 
L 266.493506 -258.025183 
L 271.168831 -256.626935 
L 275.844156 -255.231475 
L 280.519481 -253.468569 
L 285.194805 -252.11129 
L 289.87013 -251.325855 
L 294.545455 -250.263016 
L 294.545455 -268.431102 
L 294.545455 -268.431102 
L 289.87013 -269.2883 
L 285.194805 -270.00828 
L 280.519481 -271.04112 
L 275.844156 -272.478907 
L 271.168831 -273.408364 
L 266.493506 -274.275698 
L 261.818182 -275.457214 
L 257.142857 -277.019666 
L 252.467532 -278.525631 
L 247.792208 -279.986848 
L 243.116883 -281.379663 
L 238.441558 -283.055621 
L 233.766234 -285.27018 
L 229.090909 -287.549676 
L 224.415584 -289.238338 
L 219.74026 -291.143338 
L 215.064935 -293.522967 
L 210.38961 -296.050887 
L 205.714286 -298.078984 
L 201.038961 -300.1764 
L 196.363636 -302.673062 
L 191.688312 -305.382817 
L 187.012987 -308.052021 
L 182.337662 -310.666124 
L 177.662338 -313.552137 
L 172.987013 -316.477968 
L 168.311688 -319.8744 
L 163.636364 -323.362431 
L 158.961039 -326.388121 
L 154.285714 -329.275581 
L 149.61039 -332.256248 
L 144.935065 -334.980489 
L 140.25974 -337.926275 
L 135.584416 -340.878469 
L 130.909091 -343.905119 
L 126.233766 -346.510805 
L 121.558442 -348.698122 
L 116.883117 -350.443081 
L 112.207792 -351.584385 
L 107.532468 -353.773174 
L 102.857143 -355.609078 
L 98.181818 -357.529944 
L 93.506494 -358.900009 
L 88.831169 -360.689005 
L 84.155844 -362.487703 
L 79.480519 -364.024725 
L 74.805195 -364.470333 
L 70.12987 -364.891506 
L 65.454545 -365.052916 
z
"/>
    </defs>
    <g clip-path="url(#p8f05f5cf4a)">
     <use xlink:href="#m9fd5a5c3f5" x="0" y="432" style="fill: #ff7f50; fill-opacity: 0.4"/>
    </g>
   </g>
   <g id="matplotlib.axis_5">
    <g id="xtick_11">
     <g id="line2d_31">
      <g>
       <use xlink:href="#mb2b7edefdf" x="65.454545" y="137.6" style="stroke: #000000; stroke-width: 0.8"/>
      </g>
     </g>
    </g>
    <g id="xtick_12">
     <g id="line2d_32">
      <g>
       <use xlink:href="#mb2b7edefdf" x="122.727273" y="137.6" style="stroke: #000000; stroke-width: 0.8"/>
      </g>
     </g>
    </g>
    <g id="xtick_13">
     <g id="line2d_33">
      <g>
       <use xlink:href="#mb2b7edefdf" x="180" y="137.6" style="stroke: #000000; stroke-width: 0.8"/>
      </g>
     </g>
    </g>
    <g id="xtick_14">
     <g id="line2d_34">
      <g>
       <use xlink:href="#mb2b7edefdf" x="237.272727" y="137.6" style="stroke: #000000; stroke-width: 0.8"/>
      </g>
     </g>
    </g>
    <g id="xtick_15">
     <g id="line2d_35">
      <g>
       <use xlink:href="#mb2b7edefdf" x="294.545455" y="137.6" style="stroke: #000000; stroke-width: 0.8"/>
      </g>
     </g>
    </g>
   </g>
   <g id="matplotlib.axis_6">
    <g id="ytick_9">
     <g id="line2d_36">
      <g>
       <use xlink:href="#m56234c8c0d" x="46" y="129.6" style="stroke: #000000; stroke-width: 0.8"/>
      </g>
     </g>
     <g id="text_20">
      <!-- 0 -->
      <g transform="translate(32.6375 133.399219) scale(0.1 -0.1)">
       <use xlink:href="#DejaVuSans-30"/>
      </g>
     </g>
    </g>
    <g id="ytick_10">
     <g id="line2d_37">
      <g>
       <use xlink:href="#m56234c8c0d" x="46" y="93.6" style="stroke: #000000; stroke-width: 0.8"/>
      </g>
     </g>
     <g id="text_21">
      <!-- 2 -->
      <g transform="translate(32.6375 97.399219) scale(0.1 -0.1)">
       <use xlink:href="#DejaVuSans-32"/>
      </g>
     </g>
    </g>
    <g id="ytick_11">
     <g id="line2d_38">
      <g>
       <use xlink:href="#m56234c8c0d" x="46" y="57.6" style="stroke: #000000; stroke-width: 0.8"/>
      </g>
     </g>
     <g id="text_22">
      <!-- 4 -->
      <g transform="translate(32.6375 61.399219) scale(0.1 -0.1)">
       <use xlink:href="#DejaVuSans-34"/>
      </g>
     </g>
    </g>
    <g id="ytick_12">
     <g id="line2d_39">
      <g>
       <use xlink:href="#m56234c8c0d" x="46" y="21.6" style="stroke: #000000; stroke-width: 0.8"/>
      </g>
     </g>
     <g id="text_23">
      <!-- 6 -->
      <g transform="translate(32.6375 25.399219) scale(0.1 -0.1)">
       <use xlink:href="#DejaVuSans-36"/>
      </g>
     </g>
    </g>
    <g id="text_24">
     <!-- BOLD % change -->
     <g transform="translate(26.141875 123.894375) rotate(-90) scale(0.12 -0.12)">
      <use xlink:href="#DejaVuSans-42"/>
      <use xlink:href="#DejaVuSans-4f" x="66.853516"/>
      <use xlink:href="#DejaVuSans-4c" x="145.564453"/>
      <use xlink:href="#DejaVuSans-44" x="201.277344"/>
      <use xlink:href="#DejaVuSans-20" x="278.279297"/>
      <use xlink:href="#DejaVuSans-25" x="310.066406"/>
      <use xlink:href="#DejaVuSans-20" x="405.085938"/>
      <use xlink:href="#DejaVuSans-63" x="436.873047"/>
      <use xlink:href="#DejaVuSans-68" x="491.853516"/>
      <use xlink:href="#DejaVuSans-61" x="555.232422"/>
      <use xlink:href="#DejaVuSans-6e" x="616.511719"/>
      <use xlink:href="#DejaVuSans-67" x="679.890625"/>
      <use xlink:href="#DejaVuSans-65" x="743.367188"/>
     </g>
    </g>
   </g>
   <g id="line2d_40">
    <path d="M 180 129.6 
L 180 21.6 
" clip-path="url(#p8f05f5cf4a)" style="fill: none; stroke-dasharray: 5.55,2.4; stroke-dashoffset: 0; stroke: #4c4c4c; stroke-width: 1.5"/>
   </g>
   <g id="line2d_41">
    <path d="M 65.454545 88.581594 
L 70.12987 88.675092 
L 74.805195 88.490509 
L 79.480519 88.34887 
L 84.155844 87.814694 
L 88.831169 86.743446 
L 93.506494 86.436912 
L 98.181818 86.228165 
L 102.857143 86.106948 
L 107.532468 85.759107 
L 112.207792 88.376248 
L 116.883117 89.85539 
L 121.558442 92.970454 
L 126.233766 94.672519 
L 130.909091 96.295681 
L 135.584416 97.278756 
L 140.25974 100.425674 
L 144.935065 103.408276 
L 149.61039 105.953109 
L 154.285714 107.837409 
L 158.961039 110.66994 
L 163.636364 114.094116 
L 168.311688 119.168156 
L 172.987013 123.533582 
L 177.662338 129.537652 
L 182.337662 131.536659 
L 187.012987 127.258967 
L 191.688312 125.86626 
L 196.363636 124.691987 
L 201.038961 124.777339 
L 205.714286 124.5719 
L 210.38961 124.126641 
L 215.064935 124.570885 
L 219.74026 125.469716 
L 224.415584 126.297234 
L 229.090909 126.28006 
L 233.766234 127.489849 
L 238.441558 128.99505 
L 243.116883 130.875113 
L 247.792208 132.685252 
L 252.467532 133.175363 
L 257.142857 134.167102 
L 261.818182 135.352824 
L 266.493506 136.21891 
L 271.168831 137.40041 
L 275.844156 139.96259 
L 280.519481 141.337434 
L 285.194805 142.231687 
L 289.87013 142.62664 
L 294.545455 143.579604 
" clip-path="url(#p8f05f5cf4a)" style="fill: none; stroke: #ffd700; stroke-width: 1.5; stroke-linecap: square"/>
   </g>
   <g id="line2d_42">
    <path d="M 180 129.6 
L 180 21.6 
" clip-path="url(#p8f05f5cf4a)" style="fill: none; stroke-dasharray: 5.55,2.4; stroke-dashoffset: 0; stroke: #4c4c4c; stroke-width: 1.5"/>
   </g>
   <g id="line2d_43">
    <path d="M 65.454545 142.385712 
L 70.12987 142.379227 
L 74.805195 141.936368 
L 79.480519 141.444315 
L 84.155844 139.670381 
L 88.831169 137.142444 
L 93.506494 135.234938 
L 98.181818 133.681574 
L 102.857143 131.708173 
L 107.532468 129.802106 
L 112.207792 130.509706 
L 116.883117 131.01762 
L 121.558442 132.616341 
L 126.233766 132.402436 
L 130.909091 131.589825 
L 135.584416 129.706091 
L 140.25974 130.077608 
L 144.935065 130.187134 
L 149.61039 130.566227 
L 154.285714 130.051316 
L 158.961039 130.450574 
L 163.636364 131.106178 
L 168.311688 132.519957 
L 172.987013 133.162274 
L 177.662338 135.86245 
L 182.337662 134.364656 
L 187.012987 127.163966 
L 191.688312 122.960331 
L 196.363636 118.788985 
L 201.038961 115.788048 
L 205.714286 113.102212 
L 210.38961 110.267912 
L 215.064935 107.588054 
L 219.74026 105.860904 
L 224.415584 104.535198 
L 229.090909 102.773317 
L 233.766234 101.718511 
L 238.441558 101.090275 
L 243.116883 101.312498 
L 247.792208 101.842621 
L 252.467532 101.124741 
L 257.142857 100.816757 
L 261.818182 100.489463 
L 266.493506 99.969351 
L 271.168831 100.018059 
L 275.844156 101.417781 
L 280.519481 101.192278 
L 285.194805 100.891472 
L 289.87013 100.533718 
L 294.545455 100.526663 
" clip-path="url(#p8f05f5cf4a)" style="fill: none; stroke: #800080; stroke-width: 1.5; stroke-linecap: square"/>
   </g>
   <g id="line2d_44">
    <path d="M 180 129.6 
L 180 21.6 
" clip-path="url(#p8f05f5cf4a)" style="fill: none; stroke-dasharray: 5.55,2.4; stroke-dashoffset: 0; stroke: #4c4c4c; stroke-width: 1.5"/>
   </g>
   <g id="line2d_45">
    <path d="M 65.454545 75.795881 
L 70.12987 75.895864 
L 74.805195 76.15414 
L 79.480519 76.504554 
L 84.155844 77.744313 
L 88.831169 79.201001 
L 93.506494 80.801973 
L 98.181818 82.146591 
L 102.857143 83.998774 
L 107.532468 85.557 
L 112.207792 87.466542 
L 116.883117 88.43777 
L 121.558442 89.954113 
L 126.233766 91.870083 
L 130.909091 94.305856 
L 135.584416 97.172665 
L 140.25974 99.948067 
L 144.935065 102.821142 
L 149.61039 104.986881 
L 154.285714 107.386093 
L 158.961039 109.819366 
L 163.636364 112.587938 
L 168.311688 116.248199 
L 172.987013 119.971308 
L 177.662338 123.275202 
L 182.337662 126.772003 
L 187.012987 129.695002 
L 191.688312 132.50593 
L 196.363636 135.503001 
L 201.038961 138.589291 
L 205.714286 141.069687 
L 210.38961 143.458729 
L 215.064935 146.58283 
L 219.74026 149.208812 
L 224.415584 151.362035 
L 229.090909 153.106743 
L 233.766234 155.371339 
L 238.441558 157.504775 
L 243.116883 159.162616 
L 247.792208 160.442632 
L 252.467532 161.650622 
L 257.142857 162.950344 
L 261.818182 164.463361 
L 266.493506 165.849559 
L 271.168831 166.98235 
L 275.844156 168.144809 
L 280.519481 169.745156 
L 285.194805 170.940215 
L 289.87013 171.692922 
L 294.545455 172.652941 
" clip-path="url(#p8f05f5cf4a)" style="fill: none; stroke: #ff7f50; stroke-width: 1.5; stroke-linecap: square"/>
   </g>
   <g id="patch_9">
    <path d="M 46 129.6 
L 46 21.6 
" style="fill: none; stroke: #000000; stroke-width: 0.8; stroke-linejoin: miter; stroke-linecap: square"/>
   </g>
   <g id="patch_10">
    <path d="M 54 137.6 
L 306 137.6 
" style="fill: none; stroke: #000000; stroke-width: 0.8; stroke-linejoin: miter; stroke-linecap: square"/>
   </g>
  </g>
 </g>
 <defs>
  <clipPath id="pfe320fe2be">
   <rect x="54" y="280.8" width="252" height="108"/>
  </clipPath>
  <clipPath id="p765a38b105">
   <rect x="54" y="151.2" width="252" height="108"/>
  </clipPath>
  <clipPath id="p8f05f5cf4a">
   <rect x="54" y="21.6" width="252" height="108"/>
  </clipPath>
 </defs>
</svg>
