<?xml version="1.0" encoding="utf-8" standalone="no"?>
<!DOCTYPE svg PUBLIC "-//W3C//DTD SVG 1.1//EN"
  "http://www.w3.org/Graphics/SVG/1.1/DTD/svg11.dtd">
<svg xmlns:xlink="http://www.w3.org/1999/xlink" width="360pt" height="432pt" viewBox="0 0 360 432" xmlns="http://www.w3.org/2000/svg" version="1.1">
 <metadata>
  <rdf:RDF xmlns:dc="http://purl.org/dc/elements/1.1/" xmlns:cc="http://creativecommons.org/ns#" xmlns:rdf="http://www.w3.org/1999/02/22-rdf-syntax-ns#">
   <cc:Work>
    <dc:type rdf:resource="http://purl.org/dc/dcmitype/StillImage"/>
    <dc:date>2024-09-16T16:11:01.633359</dc:date>
    <dc:format>image/svg+xml</dc:format>
    <dc:creator>
     <cc:Agent>
      <dc:title>Matplotlib v3.8.0, https://matplotlib.org/</dc:title>
     </cc:Agent>
    </dc:creator>
   </cc:Work>
  </rdf:RDF>
 </metadata>
 <defs>
  <style type="text/css">*{stroke-linejoin: round; stroke-linecap: butt}</style>
 </defs>
 <g id="figure_1">
  <g id="patch_1">
   <path d="M 0 432 
L 360 432 
L 360 0 
L 0 0 
z
" style="fill: #ffffff"/>
  </g>
  <g id="axes_1">
   <g id="patch_2">
    <path d="M 54 388.8 
L 306 388.8 
L 306 280.8 
L 54 280.8 
z
" style="fill: #ffffff"/>
   </g>
   <g id="PolyCollection_1">
    <defs>
     <path id="m5c87bf17ff" d="M 65.454545 -79.952585 
L 65.454545 -77.980892 
L 70.12987 -78.035184 
L 74.805195 -78.091106 
L 79.480519 -78.281824 
L 84.155844 -78.420087 
L 88.831169 -78.418652 
L 93.506494 -78.392721 
L 98.181818 -78.437705 
L 102.857143 -78.595738 
L 107.532468 -78.806618 
L 112.207792 -78.843147 
L 116.883117 -78.814999 
L 121.558442 -78.888284 
L 126.233766 -79.01489 
L 130.909091 -79.019695 
L 135.584416 -79.058916 
L 140.25974 -79.131304 
L 144.935065 -79.214716 
L 149.61039 -79.346587 
L 154.285714 -79.433999 
L 158.961039 -79.63332 
L 163.636364 -79.761834 
L 168.311688 -79.815944 
L 172.987013 -79.813378 
L 177.662338 -79.780283 
L 182.337662 -79.83802 
L 187.012987 -79.915851 
L 191.688312 -79.980245 
L 196.363636 -79.977261 
L 201.038961 -80.00123 
L 205.714286 -80.024134 
L 210.38961 -80.032148 
L 215.064935 -79.997396 
L 219.74026 -79.95046 
L 224.415584 -79.888699 
L 229.090909 -79.806278 
L 233.766234 -79.639225 
L 238.441558 -79.507967 
L 243.116883 -79.440531 
L 247.792208 -79.384524 
L 252.467532 -79.307815 
L 257.142857 -79.283223 
L 261.818182 -79.260113 
L 266.493506 -79.101103 
L 271.168831 -78.943136 
L 275.844156 -78.877723 
L 280.519481 -78.900366 
L 285.194805 -78.938293 
L 289.87013 -78.893733 
L 294.545455 -78.842476 
L 294.545455 -80.8723 
L 294.545455 -80.8723 
L 289.87013 -80.924259 
L 285.194805 -80.942062 
L 280.519481 -80.84853 
L 275.844156 -80.801036 
L 271.168831 -80.880641 
L 266.493506 -81.079141 
L 261.818182 -81.279785 
L 257.142857 -81.250034 
L 252.467532 -81.261366 
L 247.792208 -81.300188 
L 243.116883 -81.301229 
L 238.441558 -81.347783 
L 233.766234 -81.392867 
L 229.090909 -81.477011 
L 224.415584 -81.517531 
L 219.74026 -81.575118 
L 215.064935 -81.614135 
L 210.38961 -81.617783 
L 205.714286 -81.567935 
L 201.038961 -81.545817 
L 196.363636 -81.581738 
L 191.688312 -81.579012 
L 187.012987 -81.439301 
L 182.337662 -81.29169 
L 177.662338 -81.210062 
L 172.987013 -81.244417 
L 168.311688 -81.255995 
L 163.636364 -81.215689 
L 158.961039 -81.103362 
L 154.285714 -80.936031 
L 149.61039 -80.874984 
L 144.935065 -80.803916 
L 140.25974 -80.849957 
L 135.584416 -80.924258 
L 130.909091 -81.035656 
L 126.233766 -81.123876 
L 121.558442 -80.981394 
L 116.883117 -80.852586 
L 112.207792 -80.797259 
L 107.532468 -80.660531 
L 102.857143 -80.312397 
L 98.181818 -80.075755 
L 93.506494 -80.083424 
L 88.831169 -80.202539 
L 84.155844 -80.246177 
L 79.480519 -80.240105 
L 74.805195 -80.126911 
L 70.12987 -80.032796 
L 65.454545 -79.952585 
z
"/>
    </defs>
    <g clip-path="url(#p40ab6012cf)">
     <use xlink:href="#m5c87bf17ff" x="0" y="432" style="fill: #800080; fill-opacity: 0.4"/>
    </g>
   </g>
   <g id="matplotlib.axis_1">
    <g id="xtick_1">
     <g id="line2d_1">
      <defs>
       <path id="mdcef42568c" d="M 0 0 
L 0 3.5 
" style="stroke: #000000; stroke-width: 0.8"/>
      </defs>
      <g>
       <use xlink:href="#mdcef42568c" x="65.454545" y="396.8" style="stroke: #000000; stroke-width: 0.8"/>
      </g>
     </g>
     <g id="text_1">
      <!-- 0 -->
      <g transform="translate(62.273295 411.398438) scale(0.1 -0.1)">
       <defs>
        <path id="DejaVuSans-30" d="M 2034 4250 
Q 1547 4250 1301 3770 
Q 1056 3291 1056 2328 
Q 1056 1369 1301 889 
Q 1547 409 2034 409 
Q 2525 409 2770 889 
Q 3016 1369 3016 2328 
Q 3016 3291 2770 3770 
Q 2525 4250 2034 4250 
z
M 2034 4750 
Q 2819 4750 3233 4129 
Q 3647 3509 3647 2328 
Q 3647 1150 3233 529 
Q 2819 -91 2034 -91 
Q 1250 -91 836 529 
Q 422 1150 422 2328 
Q 422 3509 836 4129 
Q 1250 4750 2034 4750 
z
" transform="scale(0.015625)"/>
       </defs>
       <use xlink:href="#DejaVuSans-30"/>
      </g>
     </g>
    </g>
    <g id="xtick_2">
     <g id="line2d_2">
      <g>
       <use xlink:href="#mdcef42568c" x="122.727273" y="396.8" style="stroke: #000000; stroke-width: 0.8"/>
      </g>
     </g>
     <g id="text_2">
      <!-- 1 -->
      <g transform="translate(119.546023 411.398438) scale(0.1 -0.1)">
       <defs>
        <path id="DejaVuSans-31" d="M 794 531 
L 1825 531 
L 1825 4091 
L 703 3866 
L 703 4441 
L 1819 4666 
L 2450 4666 
L 2450 531 
L 3481 531 
L 3481 0 
L 794 0 
L 794 531 
z
" transform="scale(0.015625)"/>
       </defs>
       <use xlink:href="#DejaVuSans-31"/>
      </g>
     </g>
    </g>
    <g id="xtick_3">
     <g id="line2d_3">
      <g>
       <use xlink:href="#mdcef42568c" x="180" y="396.8" style="stroke: #000000; stroke-width: 0.8"/>
      </g>
     </g>
     <g id="text_3">
      <!-- 2 -->
      <g transform="translate(176.81875 411.398438) scale(0.1 -0.1)">
       <defs>
        <path id="DejaVuSans-32" d="M 1228 531 
L 3431 531 
L 3431 0 
L 469 0 
L 469 531 
Q 828 903 1448 1529 
Q 2069 2156 2228 2338 
Q 2531 2678 2651 2914 
Q 2772 3150 2772 3378 
Q 2772 3750 2511 3984 
Q 2250 4219 1831 4219 
Q 1534 4219 1204 4116 
Q 875 4013 500 3803 
L 500 4441 
Q 881 4594 1212 4672 
Q 1544 4750 1819 4750 
Q 2544 4750 2975 4387 
Q 3406 4025 3406 3419 
Q 3406 3131 3298 2873 
Q 3191 2616 2906 2266 
Q 2828 2175 2409 1742 
Q 1991 1309 1228 531 
z
" transform="scale(0.015625)"/>
       </defs>
       <use xlink:href="#DejaVuSans-32"/>
      </g>
     </g>
    </g>
    <g id="xtick_4">
     <g id="line2d_4">
      <g>
       <use xlink:href="#mdcef42568c" x="237.272727" y="396.8" style="stroke: #000000; stroke-width: 0.8"/>
      </g>
     </g>
     <g id="text_4">
      <!-- 3 -->
      <g transform="translate(234.091477 411.398438) scale(0.1 -0.1)">
       <defs>
        <path id="DejaVuSans-33" d="M 2597 2516 
Q 3050 2419 3304 2112 
Q 3559 1806 3559 1356 
Q 3559 666 3084 287 
Q 2609 -91 1734 -91 
Q 1441 -91 1130 -33 
Q 819 25 488 141 
L 488 750 
Q 750 597 1062 519 
Q 1375 441 1716 441 
Q 2309 441 2620 675 
Q 2931 909 2931 1356 
Q 2931 1769 2642 2001 
Q 2353 2234 1838 2234 
L 1294 2234 
L 1294 2753 
L 1863 2753 
Q 2328 2753 2575 2939 
Q 2822 3125 2822 3475 
Q 2822 3834 2567 4026 
Q 2313 4219 1838 4219 
Q 1578 4219 1281 4162 
Q 984 4106 628 3988 
L 628 4550 
Q 988 4650 1302 4700 
Q 1616 4750 1894 4750 
Q 2613 4750 3031 4423 
Q 3450 4097 3450 3541 
Q 3450 3153 3228 2886 
Q 3006 2619 2597 2516 
z
" transform="scale(0.015625)"/>
       </defs>
       <use xlink:href="#DejaVuSans-33"/>
      </g>
     </g>
    </g>
    <g id="xtick_5">
     <g id="line2d_5">
      <g>
       <use xlink:href="#mdcef42568c" x="294.545455" y="396.8" style="stroke: #000000; stroke-width: 0.8"/>
      </g>
     </g>
     <g id="text_5">
      <!-- 4 -->
      <g transform="translate(291.364205 411.398438) scale(0.1 -0.1)">
       <defs>
        <path id="DejaVuSans-34" d="M 2419 4116 
L 825 1625 
L 2419 1625 
L 2419 4116 
z
M 2253 4666 
L 3047 4666 
L 3047 1625 
L 3713 1625 
L 3713 1100 
L 3047 1100 
L 3047 0 
L 2419 0 
L 2419 1100 
L 313 1100 
L 313 1709 
L 2253 4666 
z
" transform="scale(0.015625)"/>
       </defs>
       <use xlink:href="#DejaVuSans-34"/>
      </g>
     </g>
    </g>
    <g id="text_6">
     <!-- relative distance from ROI center ($\sigma$) -->
     <g transform="translate(69.72 426.59625) scale(0.12 -0.12)">
      <defs>
       <path id="DejaVuSans-72" d="M 2631 2963 
Q 2534 3019 2420 3045 
Q 2306 3072 2169 3072 
Q 1681 3072 1420 2755 
Q 1159 2438 1159 1844 
L 1159 0 
L 581 0 
L 581 3500 
L 1159 3500 
L 1159 2956 
Q 1341 3275 1631 3429 
Q 1922 3584 2338 3584 
Q 2397 3584 2469 3576 
Q 2541 3569 2628 3553 
L 2631 2963 
z
" transform="scale(0.015625)"/>
       <path id="DejaVuSans-65" d="M 3597 1894 
L 3597 1613 
L 953 1613 
Q 991 1019 1311 708 
Q 1631 397 2203 397 
Q 2534 397 2845 478 
Q 3156 559 3463 722 
L 3463 178 
Q 3153 47 2828 -22 
Q 2503 -91 2169 -91 
Q 1331 -91 842 396 
Q 353 884 353 1716 
Q 353 2575 817 3079 
Q 1281 3584 2069 3584 
Q 2775 3584 3186 3129 
Q 3597 2675 3597 1894 
z
M 3022 2063 
Q 3016 2534 2758 2815 
Q 2500 3097 2075 3097 
Q 1594 3097 1305 2825 
Q 1016 2553 972 2059 
L 3022 2063 
z
" transform="scale(0.015625)"/>
       <path id="DejaVuSans-6c" d="M 603 4863 
L 1178 4863 
L 1178 0 
L 603 0 
L 603 4863 
z
" transform="scale(0.015625)"/>
       <path id="DejaVuSans-61" d="M 2194 1759 
Q 1497 1759 1228 1600 
Q 959 1441 959 1056 
Q 959 750 1161 570 
Q 1363 391 1709 391 
Q 2188 391 2477 730 
Q 2766 1069 2766 1631 
L 2766 1759 
L 2194 1759 
z
M 3341 1997 
L 3341 0 
L 2766 0 
L 2766 531 
Q 2569 213 2275 61 
Q 1981 -91 1556 -91 
Q 1019 -91 701 211 
Q 384 513 384 1019 
Q 384 1609 779 1909 
Q 1175 2209 1959 2209 
L 2766 2209 
L 2766 2266 
Q 2766 2663 2505 2880 
Q 2244 3097 1772 3097 
Q 1472 3097 1187 3025 
Q 903 2953 641 2809 
L 641 3341 
Q 956 3463 1253 3523 
Q 1550 3584 1831 3584 
Q 2591 3584 2966 3190 
Q 3341 2797 3341 1997 
z
" transform="scale(0.015625)"/>
       <path id="DejaVuSans-74" d="M 1172 4494 
L 1172 3500 
L 2356 3500 
L 2356 3053 
L 1172 3053 
L 1172 1153 
Q 1172 725 1289 603 
Q 1406 481 1766 481 
L 2356 481 
L 2356 0 
L 1766 0 
Q 1100 0 847 248 
Q 594 497 594 1153 
L 594 3053 
L 172 3053 
L 172 3500 
L 594 3500 
L 594 4494 
L 1172 4494 
z
" transform="scale(0.015625)"/>
       <path id="DejaVuSans-69" d="M 603 3500 
L 1178 3500 
L 1178 0 
L 603 0 
L 603 3500 
z
M 603 4863 
L 1178 4863 
L 1178 4134 
L 603 4134 
L 603 4863 
z
" transform="scale(0.015625)"/>
       <path id="DejaVuSans-76" d="M 191 3500 
L 800 3500 
L 1894 563 
L 2988 3500 
L 3597 3500 
L 2284 0 
L 1503 0 
L 191 3500 
z
" transform="scale(0.015625)"/>
       <path id="DejaVuSans-20" transform="scale(0.015625)"/>
       <path id="DejaVuSans-64" d="M 2906 2969 
L 2906 4863 
L 3481 4863 
L 3481 0 
L 2906 0 
L 2906 525 
Q 2725 213 2448 61 
Q 2172 -91 1784 -91 
Q 1150 -91 751 415 
Q 353 922 353 1747 
Q 353 2572 751 3078 
Q 1150 3584 1784 3584 
Q 2172 3584 2448 3432 
Q 2725 3281 2906 2969 
z
M 947 1747 
Q 947 1113 1208 752 
Q 1469 391 1925 391 
Q 2381 391 2643 752 
Q 2906 1113 2906 1747 
Q 2906 2381 2643 2742 
Q 2381 3103 1925 3103 
Q 1469 3103 1208 2742 
Q 947 2381 947 1747 
z
" transform="scale(0.015625)"/>
       <path id="DejaVuSans-73" d="M 2834 3397 
L 2834 2853 
Q 2591 2978 2328 3040 
Q 2066 3103 1784 3103 
Q 1356 3103 1142 2972 
Q 928 2841 928 2578 
Q 928 2378 1081 2264 
Q 1234 2150 1697 2047 
L 1894 2003 
Q 2506 1872 2764 1633 
Q 3022 1394 3022 966 
Q 3022 478 2636 193 
Q 2250 -91 1575 -91 
Q 1294 -91 989 -36 
Q 684 19 347 128 
L 347 722 
Q 666 556 975 473 
Q 1284 391 1588 391 
Q 1994 391 2212 530 
Q 2431 669 2431 922 
Q 2431 1156 2273 1281 
Q 2116 1406 1581 1522 
L 1381 1569 
Q 847 1681 609 1914 
Q 372 2147 372 2553 
Q 372 3047 722 3315 
Q 1072 3584 1716 3584 
Q 2034 3584 2315 3537 
Q 2597 3491 2834 3397 
z
" transform="scale(0.015625)"/>
       <path id="DejaVuSans-6e" d="M 3513 2113 
L 3513 0 
L 2938 0 
L 2938 2094 
Q 2938 2591 2744 2837 
Q 2550 3084 2163 3084 
Q 1697 3084 1428 2787 
Q 1159 2491 1159 1978 
L 1159 0 
L 581 0 
L 581 3500 
L 1159 3500 
L 1159 2956 
Q 1366 3272 1645 3428 
Q 1925 3584 2291 3584 
Q 2894 3584 3203 3211 
Q 3513 2838 3513 2113 
z
" transform="scale(0.015625)"/>
       <path id="DejaVuSans-63" d="M 3122 3366 
L 3122 2828 
Q 2878 2963 2633 3030 
Q 2388 3097 2138 3097 
Q 1578 3097 1268 2742 
Q 959 2388 959 1747 
Q 959 1106 1268 751 
Q 1578 397 2138 397 
Q 2388 397 2633 464 
Q 2878 531 3122 666 
L 3122 134 
Q 2881 22 2623 -34 
Q 2366 -91 2075 -91 
Q 1284 -91 818 406 
Q 353 903 353 1747 
Q 353 2603 823 3093 
Q 1294 3584 2113 3584 
Q 2378 3584 2631 3529 
Q 2884 3475 3122 3366 
z
" transform="scale(0.015625)"/>
       <path id="DejaVuSans-66" d="M 2375 4863 
L 2375 4384 
L 1825 4384 
Q 1516 4384 1395 4259 
Q 1275 4134 1275 3809 
L 1275 3500 
L 2222 3500 
L 2222 3053 
L 1275 3053 
L 1275 0 
L 697 0 
L 697 3053 
L 147 3053 
L 147 3500 
L 697 3500 
L 697 3744 
Q 697 4328 969 4595 
Q 1241 4863 1831 4863 
L 2375 4863 
z
" transform="scale(0.015625)"/>
       <path id="DejaVuSans-6f" d="M 1959 3097 
Q 1497 3097 1228 2736 
Q 959 2375 959 1747 
Q 959 1119 1226 758 
Q 1494 397 1959 397 
Q 2419 397 2687 759 
Q 2956 1122 2956 1747 
Q 2956 2369 2687 2733 
Q 2419 3097 1959 3097 
z
M 1959 3584 
Q 2709 3584 3137 3096 
Q 3566 2609 3566 1747 
Q 3566 888 3137 398 
Q 2709 -91 1959 -91 
Q 1206 -91 779 398 
Q 353 888 353 1747 
Q 353 2609 779 3096 
Q 1206 3584 1959 3584 
z
" transform="scale(0.015625)"/>
       <path id="DejaVuSans-6d" d="M 3328 2828 
Q 3544 3216 3844 3400 
Q 4144 3584 4550 3584 
Q 5097 3584 5394 3201 
Q 5691 2819 5691 2113 
L 5691 0 
L 5113 0 
L 5113 2094 
Q 5113 2597 4934 2840 
Q 4756 3084 4391 3084 
Q 3944 3084 3684 2787 
Q 3425 2491 3425 1978 
L 3425 0 
L 2847 0 
L 2847 2094 
Q 2847 2600 2669 2842 
Q 2491 3084 2119 3084 
Q 1678 3084 1418 2786 
Q 1159 2488 1159 1978 
L 1159 0 
L 581 0 
L 581 3500 
L 1159 3500 
L 1159 2956 
Q 1356 3278 1631 3431 
Q 1906 3584 2284 3584 
Q 2666 3584 2933 3390 
Q 3200 3197 3328 2828 
z
" transform="scale(0.015625)"/>
       <path id="DejaVuSans-52" d="M 2841 2188 
Q 3044 2119 3236 1894 
Q 3428 1669 3622 1275 
L 4263 0 
L 3584 0 
L 2988 1197 
Q 2756 1666 2539 1819 
Q 2322 1972 1947 1972 
L 1259 1972 
L 1259 0 
L 628 0 
L 628 4666 
L 2053 4666 
Q 2853 4666 3247 4331 
Q 3641 3997 3641 3322 
Q 3641 2881 3436 2590 
Q 3231 2300 2841 2188 
z
M 1259 4147 
L 1259 2491 
L 2053 2491 
Q 2509 2491 2742 2702 
Q 2975 2913 2975 3322 
Q 2975 3731 2742 3939 
Q 2509 4147 2053 4147 
L 1259 4147 
z
" transform="scale(0.015625)"/>
       <path id="DejaVuSans-4f" d="M 2522 4238 
Q 1834 4238 1429 3725 
Q 1025 3213 1025 2328 
Q 1025 1447 1429 934 
Q 1834 422 2522 422 
Q 3209 422 3611 934 
Q 4013 1447 4013 2328 
Q 4013 3213 3611 3725 
Q 3209 4238 2522 4238 
z
M 2522 4750 
Q 3503 4750 4090 4092 
Q 4678 3434 4678 2328 
Q 4678 1225 4090 567 
Q 3503 -91 2522 -91 
Q 1538 -91 948 565 
Q 359 1222 359 2328 
Q 359 3434 948 4092 
Q 1538 4750 2522 4750 
z
" transform="scale(0.015625)"/>
       <path id="DejaVuSans-49" d="M 628 4666 
L 1259 4666 
L 1259 0 
L 628 0 
L 628 4666 
z
" transform="scale(0.015625)"/>
       <path id="DejaVuSans-28" d="M 1984 4856 
Q 1566 4138 1362 3434 
Q 1159 2731 1159 2009 
Q 1159 1288 1364 580 
Q 1569 -128 1984 -844 
L 1484 -844 
Q 1016 -109 783 600 
Q 550 1309 550 2009 
Q 550 2706 781 3412 
Q 1013 4119 1484 4856 
L 1984 4856 
z
" transform="scale(0.015625)"/>
       <path id="DejaVuSans-Oblique-3c3" d="M 2219 3044 
Q 1744 3044 1422 2700 
Q 1081 2341 969 1747 
Q 844 1119 1044 756 
Q 1241 397 1706 397 
Q 2166 397 2503 759 
Q 2844 1122 2966 1747 
Q 3075 2319 2881 2700 
Q 2700 3044 2219 3044 
z
M 2309 3503 
L 4219 3500 
L 4106 2925 
L 3463 2925 
Q 3706 2438 3575 1747 
Q 3406 888 2884 400 
Q 2359 -91 1609 -91 
Q 856 -91 525 400 
Q 194 888 363 1747 
Q 528 2609 1050 3097 
Q 1484 3503 2309 3503 
z
" transform="scale(0.015625)"/>
       <path id="DejaVuSans-29" d="M 513 4856 
L 1013 4856 
Q 1481 4119 1714 3412 
Q 1947 2706 1947 2009 
Q 1947 1309 1714 600 
Q 1481 -109 1013 -844 
L 513 -844 
Q 928 -128 1133 580 
Q 1338 1288 1338 2009 
Q 1338 2731 1133 3434 
Q 928 4138 513 4856 
z
" transform="scale(0.015625)"/>
      </defs>
      <use xlink:href="#DejaVuSans-72" transform="translate(0 0.015625)"/>
      <use xlink:href="#DejaVuSans-65" transform="translate(41.113281 0.015625)"/>
      <use xlink:href="#DejaVuSans-6c" transform="translate(102.636719 0.015625)"/>
      <use xlink:href="#DejaVuSans-61" transform="translate(130.419922 0.015625)"/>
      <use xlink:href="#DejaVuSans-74" transform="translate(191.699219 0.015625)"/>
      <use xlink:href="#DejaVuSans-69" transform="translate(230.908203 0.015625)"/>
      <use xlink:href="#DejaVuSans-76" transform="translate(258.691406 0.015625)"/>
      <use xlink:href="#DejaVuSans-65" transform="translate(317.871094 0.015625)"/>
      <use xlink:href="#DejaVuSans-20" transform="translate(379.394531 0.015625)"/>
      <use xlink:href="#DejaVuSans-64" transform="translate(411.181641 0.015625)"/>
      <use xlink:href="#DejaVuSans-69" transform="translate(474.658203 0.015625)"/>
      <use xlink:href="#DejaVuSans-73" transform="translate(502.441406 0.015625)"/>
      <use xlink:href="#DejaVuSans-74" transform="translate(554.541016 0.015625)"/>
      <use xlink:href="#DejaVuSans-61" transform="translate(593.75 0.015625)"/>
      <use xlink:href="#DejaVuSans-6e" transform="translate(655.029297 0.015625)"/>
      <use xlink:href="#DejaVuSans-63" transform="translate(718.408203 0.015625)"/>
      <use xlink:href="#DejaVuSans-65" transform="translate(773.388672 0.015625)"/>
      <use xlink:href="#DejaVuSans-20" transform="translate(834.912109 0.015625)"/>
      <use xlink:href="#DejaVuSans-66" transform="translate(866.699219 0.015625)"/>
      <use xlink:href="#DejaVuSans-72" transform="translate(901.904297 0.015625)"/>
      <use xlink:href="#DejaVuSans-6f" transform="translate(943.017578 0.015625)"/>
      <use xlink:href="#DejaVuSans-6d" transform="translate(1004.199219 0.015625)"/>
      <use xlink:href="#DejaVuSans-20" transform="translate(1101.611328 0.015625)"/>
      <use xlink:href="#DejaVuSans-52" transform="translate(1133.398438 0.015625)"/>
      <use xlink:href="#DejaVuSans-4f" transform="translate(1202.880859 0.015625)"/>
      <use xlink:href="#DejaVuSans-49" transform="translate(1281.591797 0.015625)"/>
      <use xlink:href="#DejaVuSans-20" transform="translate(1311.083984 0.015625)"/>
      <use xlink:href="#DejaVuSans-63" transform="translate(1342.871094 0.015625)"/>
      <use xlink:href="#DejaVuSans-65" transform="translate(1397.851562 0.015625)"/>
      <use xlink:href="#DejaVuSans-6e" transform="translate(1459.375 0.015625)"/>
      <use xlink:href="#DejaVuSans-74" transform="translate(1522.753906 0.015625)"/>
      <use xlink:href="#DejaVuSans-65" transform="translate(1561.962891 0.015625)"/>
      <use xlink:href="#DejaVuSans-72" transform="translate(1623.486328 0.015625)"/>
      <use xlink:href="#DejaVuSans-20" transform="translate(1664.599609 0.015625)"/>
      <use xlink:href="#DejaVuSans-28" transform="translate(1696.386719 0.015625)"/>
      <use xlink:href="#DejaVuSans-Oblique-3c3" transform="translate(1735.400391 0.015625)"/>
      <use xlink:href="#DejaVuSans-29" transform="translate(1798.779297 0.015625)"/>
     </g>
    </g>
   </g>
   <g id="matplotlib.axis_2">
    <g id="ytick_1">
     <g id="line2d_6">
      <defs>
       <path id="me9035937e8" d="M 0 0 
L -3.5 0 
" style="stroke: #000000; stroke-width: 0.8"/>
      </defs>
      <g>
       <use xlink:href="#me9035937e8" x="46" y="369.741176" style="stroke: #000000; stroke-width: 0.8"/>
      </g>
     </g>
     <g id="text_7">
      <!-- 0 -->
      <g transform="translate(32.6375 373.540395) scale(0.1 -0.1)">
       <use xlink:href="#DejaVuSans-30"/>
      </g>
     </g>
    </g>
    <g id="ytick_2">
     <g id="line2d_7">
      <g>
       <use xlink:href="#me9035937e8" x="46" y="337.976471" style="stroke: #000000; stroke-width: 0.8"/>
      </g>
     </g>
     <g id="text_8">
      <!-- 5 -->
      <g transform="translate(32.6375 341.775689) scale(0.1 -0.1)">
       <defs>
        <path id="DejaVuSans-35" d="M 691 4666 
L 3169 4666 
L 3169 4134 
L 1269 4134 
L 1269 2991 
Q 1406 3038 1543 3061 
Q 1681 3084 1819 3084 
Q 2600 3084 3056 2656 
Q 3513 2228 3513 1497 
Q 3513 744 3044 326 
Q 2575 -91 1722 -91 
Q 1428 -91 1123 -41 
Q 819 9 494 109 
L 494 744 
Q 775 591 1075 516 
Q 1375 441 1709 441 
Q 2250 441 2565 725 
Q 2881 1009 2881 1497 
Q 2881 1984 2565 2268 
Q 2250 2553 1709 2553 
Q 1456 2553 1204 2497 
Q 953 2441 691 2322 
L 691 4666 
z
" transform="scale(0.015625)"/>
       </defs>
       <use xlink:href="#DejaVuSans-35"/>
      </g>
     </g>
    </g>
    <g id="ytick_3">
     <g id="line2d_8">
      <g>
       <use xlink:href="#me9035937e8" x="46" y="306.211765" style="stroke: #000000; stroke-width: 0.8"/>
      </g>
     </g>
     <g id="text_9">
      <!-- 10 -->
      <g transform="translate(26.275 310.010983) scale(0.1 -0.1)">
       <use xlink:href="#DejaVuSans-31"/>
       <use xlink:href="#DejaVuSans-30" x="63.623047"/>
      </g>
     </g>
    </g>
    <g id="text_10">
     <!-- BOLD % change -->
     <g transform="translate(19.779375 383.094375) rotate(-90) scale(0.12 -0.12)">
      <defs>
       <path id="DejaVuSans-42" d="M 1259 2228 
L 1259 519 
L 2272 519 
Q 2781 519 3026 730 
Q 3272 941 3272 1375 
Q 3272 1813 3026 2020 
Q 2781 2228 2272 2228 
L 1259 2228 
z
M 1259 4147 
L 1259 2741 
L 2194 2741 
Q 2656 2741 2882 2914 
Q 3109 3088 3109 3444 
Q 3109 3797 2882 3972 
Q 2656 4147 2194 4147 
L 1259 4147 
z
M 628 4666 
L 2241 4666 
Q 2963 4666 3353 4366 
Q 3744 4066 3744 3513 
Q 3744 3084 3544 2831 
Q 3344 2578 2956 2516 
Q 3422 2416 3680 2098 
Q 3938 1781 3938 1306 
Q 3938 681 3513 340 
Q 3088 0 2303 0 
L 628 0 
L 628 4666 
z
" transform="scale(0.015625)"/>
       <path id="DejaVuSans-4c" d="M 628 4666 
L 1259 4666 
L 1259 531 
L 3531 531 
L 3531 0 
L 628 0 
L 628 4666 
z
" transform="scale(0.015625)"/>
       <path id="DejaVuSans-44" d="M 1259 4147 
L 1259 519 
L 2022 519 
Q 2988 519 3436 956 
Q 3884 1394 3884 2338 
Q 3884 3275 3436 3711 
Q 2988 4147 2022 4147 
L 1259 4147 
z
M 628 4666 
L 1925 4666 
Q 3281 4666 3915 4102 
Q 4550 3538 4550 2338 
Q 4550 1131 3912 565 
Q 3275 0 1925 0 
L 628 0 
L 628 4666 
z
" transform="scale(0.015625)"/>
       <path id="DejaVuSans-25" d="M 4653 2053 
Q 4381 2053 4226 1822 
Q 4072 1591 4072 1178 
Q 4072 772 4226 539 
Q 4381 306 4653 306 
Q 4919 306 5073 539 
Q 5228 772 5228 1178 
Q 5228 1588 5073 1820 
Q 4919 2053 4653 2053 
z
M 4653 2450 
Q 5147 2450 5437 2106 
Q 5728 1763 5728 1178 
Q 5728 594 5436 251 
Q 5144 -91 4653 -91 
Q 4153 -91 3862 251 
Q 3572 594 3572 1178 
Q 3572 1766 3864 2108 
Q 4156 2450 4653 2450 
z
M 1428 4353 
Q 1159 4353 1004 4120 
Q 850 3888 850 3481 
Q 850 3069 1003 2837 
Q 1156 2606 1428 2606 
Q 1700 2606 1854 2837 
Q 2009 3069 2009 3481 
Q 2009 3884 1853 4118 
Q 1697 4353 1428 4353 
z
M 4250 4750 
L 4750 4750 
L 1831 -91 
L 1331 -91 
L 4250 4750 
z
M 1428 4750 
Q 1922 4750 2215 4408 
Q 2509 4066 2509 3481 
Q 2509 2891 2217 2550 
Q 1925 2209 1428 2209 
Q 931 2209 642 2551 
Q 353 2894 353 3481 
Q 353 4063 643 4406 
Q 934 4750 1428 4750 
z
" transform="scale(0.015625)"/>
       <path id="DejaVuSans-68" d="M 3513 2113 
L 3513 0 
L 2938 0 
L 2938 2094 
Q 2938 2591 2744 2837 
Q 2550 3084 2163 3084 
Q 1697 3084 1428 2787 
Q 1159 2491 1159 1978 
L 1159 0 
L 581 0 
L 581 4863 
L 1159 4863 
L 1159 2956 
Q 1366 3272 1645 3428 
Q 1925 3584 2291 3584 
Q 2894 3584 3203 3211 
Q 3513 2838 3513 2113 
z
" transform="scale(0.015625)"/>
       <path id="DejaVuSans-67" d="M 2906 1791 
Q 2906 2416 2648 2759 
Q 2391 3103 1925 3103 
Q 1463 3103 1205 2759 
Q 947 2416 947 1791 
Q 947 1169 1205 825 
Q 1463 481 1925 481 
Q 2391 481 2648 825 
Q 2906 1169 2906 1791 
z
M 3481 434 
Q 3481 -459 3084 -895 
Q 2688 -1331 1869 -1331 
Q 1566 -1331 1297 -1286 
Q 1028 -1241 775 -1147 
L 775 -588 
Q 1028 -725 1275 -790 
Q 1522 -856 1778 -856 
Q 2344 -856 2625 -561 
Q 2906 -266 2906 331 
L 2906 616 
Q 2728 306 2450 153 
Q 2172 0 1784 0 
Q 1141 0 747 490 
Q 353 981 353 1791 
Q 353 2603 747 3093 
Q 1141 3584 1784 3584 
Q 2172 3584 2450 3431 
Q 2728 3278 2906 2969 
L 2906 3500 
L 3481 3500 
L 3481 434 
z
" transform="scale(0.015625)"/>
      </defs>
      <use xlink:href="#DejaVuSans-42"/>
      <use xlink:href="#DejaVuSans-4f" x="66.853516"/>
      <use xlink:href="#DejaVuSans-4c" x="145.564453"/>
      <use xlink:href="#DejaVuSans-44" x="201.277344"/>
      <use xlink:href="#DejaVuSans-20" x="278.279297"/>
      <use xlink:href="#DejaVuSans-25" x="310.066406"/>
      <use xlink:href="#DejaVuSans-20" x="405.085938"/>
      <use xlink:href="#DejaVuSans-63" x="436.873047"/>
      <use xlink:href="#DejaVuSans-68" x="491.853516"/>
      <use xlink:href="#DejaVuSans-61" x="555.232422"/>
      <use xlink:href="#DejaVuSans-6e" x="616.511719"/>
      <use xlink:href="#DejaVuSans-67" x="679.890625"/>
      <use xlink:href="#DejaVuSans-65" x="743.367188"/>
     </g>
    </g>
   </g>
   <g id="line2d_9">
    <path d="M 180 407.858824 
L 180 331.623529 
" clip-path="url(#p40ab6012cf)" style="fill: none; stroke-dasharray: 5.55,2.4; stroke-dashoffset: 0; stroke: #4c4c4c; stroke-width: 1.5"/>
   </g>
   <g id="line2d_10">
    <path d="M 65.454545 369.741176 
L 294.545455 369.741176 
" clip-path="url(#p40ab6012cf)" style="fill: none; stroke-dasharray: 5.55,2.4; stroke-dashoffset: 0; stroke: #4c4c4c; stroke-width: 1.5"/>
   </g>
   <g id="line2d_11">
    <path d="M 65.454545 353.033261 
L 70.12987 352.96601 
L 74.805195 352.890991 
L 79.480519 352.739036 
L 84.155844 352.666868 
L 88.831169 352.689404 
L 93.506494 352.761927 
L 98.181818 352.74327 
L 102.857143 352.545933 
L 107.532468 352.266426 
L 112.207792 352.179797 
L 116.883117 352.166207 
L 121.558442 352.065161 
L 126.233766 351.930617 
L 130.909091 351.972324 
L 135.584416 352.008413 
L 140.25974 352.009369 
L 144.935065 351.990684 
L 149.61039 351.889215 
L 154.285714 351.814985 
L 158.961039 351.631659 
L 163.636364 351.511238 
L 168.311688 351.46403 
L 172.987013 351.471103 
L 177.662338 351.504828 
L 182.337662 351.435145 
L 187.012987 351.322424 
L 191.688312 351.220372 
L 196.363636 351.2205 
L 201.038961 351.226476 
L 205.714286 351.203965 
L 210.38961 351.175034 
L 215.064935 351.194234 
L 219.74026 351.237211 
L 224.415584 351.296885 
L 229.090909 351.358356 
L 233.766234 351.483954 
L 238.441558 351.572125 
L 243.116883 351.62912 
L 247.792208 351.657644 
L 252.467532 351.715409 
L 257.142857 351.733371 
L 261.818182 351.730051 
L 266.493506 351.909878 
L 271.168831 352.088111 
L 275.844156 352.160621 
L 280.519481 352.125552 
L 285.194805 352.059822 
L 289.87013 352.091004 
L 294.545455 352.142612 
" clip-path="url(#p40ab6012cf)" style="fill: none; stroke: #800080; stroke-width: 1.5; stroke-linecap: square"/>
   </g>
   <g id="line2d_12">
    <path d="M 65.454545 352.514273 
L 70.12987 352.514273 
L 74.805195 352.514273 
L 79.480519 352.514273 
L 84.155844 352.514273 
L 88.831169 352.294497 
L 93.506494 352.453735 
L 98.181818 352.573515 
L 102.857143 352.845671 
L 107.532468 352.70755 
L 112.207792 353.047359 
L 116.883117 353.362339 
L 121.558442 353.092183 
L 126.233766 352.525547 
L 130.909091 352.15279 
L 135.584416 351.611988 
L 140.25974 350.880097 
L 144.935065 350.389132 
L 149.61039 350.347069 
L 154.285714 350.14124 
L 158.961039 349.701972 
L 163.636364 349.218951 
L 168.311688 348.588544 
L 172.987013 348.210167 
L 177.662338 348.102522 
L 182.337662 348.007665 
L 187.012987 347.686118 
L 191.688312 347.283269 
L 196.363636 347.234348 
L 201.038961 347.282958 
L 205.714286 347.35907 
L 210.38961 346.997544 
L 215.064935 346.568634 
L 219.74026 346.023147 
L 224.415584 345.672875 
L 229.090909 345.275115 
L 233.766234 344.85015 
L 238.441558 344.487824 
L 243.116883 344.632993 
L 247.792208 344.611601 
L 252.467532 344.471502 
L 257.142857 344.870769 
L 261.818182 345.014882 
L 266.493506 345.603067 
L 271.168831 346.196866 
L 275.844156 346.567175 
L 280.519481 346.479283 
L 285.194805 346.376659 
L 289.87013 346.59944 
L 294.545455 346.947366 
" clip-path="url(#p40ab6012cf)" style="fill: none; stroke: #800080; stroke-opacity: 0.2; stroke-width: 1.5; stroke-linecap: square"/>
   </g>
   <g id="line2d_13">
    <path d="M 65.454545 352.242623 
L 70.12987 352.242623 
L 74.805195 352.244731 
L 79.480519 352.432416 
L 84.155844 352.616615 
L 88.831169 352.729032 
L 93.506494 352.489222 
L 98.181818 352.567224 
L 102.857143 352.672891 
L 107.532468 352.669244 
L 112.207792 352.390412 
L 116.883117 352.15152 
L 121.558442 351.795185 
L 126.233766 351.379797 
L 130.909091 351.265067 
L 135.584416 351.477313 
L 140.25974 351.621773 
L 144.935065 351.549227 
L 149.61039 351.275258 
L 154.285714 351.139208 
L 158.961039 350.973604 
L 163.636364 350.867461 
L 168.311688 350.930416 
L 172.987013 350.836312 
L 177.662338 350.901191 
L 182.337662 350.904036 
L 187.012987 350.792624 
L 191.688312 350.662664 
L 196.363636 350.574241 
L 201.038961 350.597196 
L 205.714286 350.933214 
L 210.38961 351.394061 
L 215.064935 351.618347 
L 219.74026 351.666966 
L 224.415584 351.383319 
L 229.090909 351.092531 
L 233.766234 350.855006 
L 238.441558 350.81661 
L 243.116883 350.784471 
L 247.792208 350.75776 
L 252.467532 350.894551 
L 257.142857 350.940469 
L 261.818182 350.964628 
L 266.493506 351.042049 
L 271.168831 351.145983 
L 275.844156 351.074623 
L 280.519481 350.965427 
L 285.194805 350.603686 
L 289.87013 350.272654 
L 294.545455 350.129231 
" clip-path="url(#p40ab6012cf)" style="fill: none; stroke: #800080; stroke-opacity: 0.2; stroke-width: 1.5; stroke-linecap: square"/>
   </g>
   <g id="line2d_14">
    <path d="M 65.454545 355.852254 
L 70.12987 355.852254 
L 74.805195 355.852254 
L 79.480519 355.813228 
L 84.155844 355.839455 
L 88.831169 356.068822 
L 93.506494 356.265733 
L 98.181818 356.091363 
L 102.857143 355.653937 
L 107.532468 355.233326 
L 112.207792 355.075261 
L 116.883117 355.008639 
L 121.558442 354.815443 
L 126.233766 354.641143 
L 130.909091 354.692799 
L 135.584416 354.7003 
L 140.25974 354.760555 
L 144.935065 354.941997 
L 149.61039 354.969213 
L 154.285714 354.965348 
L 158.961039 355.009101 
L 163.636364 355.184686 
L 168.311688 355.286726 
L 172.987013 355.264964 
L 177.662338 355.096951 
L 182.337662 354.795027 
L 187.012987 354.399373 
L 191.688312 354.190867 
L 196.363636 354.075496 
L 201.038961 353.957959 
L 205.714286 353.873987 
L 210.38961 353.963352 
L 215.064935 354.100758 
L 219.74026 354.287899 
L 224.415584 354.494124 
L 229.090909 354.824351 
L 233.766234 355.230992 
L 238.441558 355.584939 
L 243.116883 355.856527 
L 247.792208 356.228569 
L 252.467532 356.395924 
L 257.142857 356.452471 
L 261.818182 356.50187 
L 266.493506 356.410091 
L 271.168831 356.391242 
L 275.844156 356.434067 
L 280.519481 356.584306 
L 285.194805 356.755656 
L 289.87013 356.868449 
L 294.545455 356.911462 
" clip-path="url(#p40ab6012cf)" style="fill: none; stroke: #800080; stroke-opacity: 0.2; stroke-width: 1.5; stroke-linecap: square"/>
   </g>
   <g id="line2d_15">
    <path d="M 65.454545 355.36095 
L 70.12987 355.36095 
L 74.805195 355.380876 
L 79.480519 355.280924 
L 84.155844 355.141371 
L 88.831169 355.096866 
L 93.506494 354.966323 
L 98.181818 354.770051 
L 102.857143 354.675418 
L 107.532468 354.638589 
L 112.207792 354.769078 
L 116.883117 354.491722 
L 121.558442 354.209871 
L 126.233766 354.19079 
L 130.909091 354.315369 
L 135.584416 354.3496 
L 140.25974 354.260922 
L 144.935065 353.873801 
L 149.61039 353.498456 
L 154.285714 353.281751 
L 158.961039 352.899286 
L 163.636364 352.488303 
L 168.311688 352.235088 
L 172.987013 352.038136 
L 177.662338 351.778757 
L 182.337662 351.562986 
L 187.012987 351.295868 
L 191.688312 351.217434 
L 196.363636 351.037359 
L 201.038961 350.989549 
L 205.714286 350.991402 
L 210.38961 351.101585 
L 215.064935 351.227949 
L 219.74026 351.459937 
L 224.415584 351.771798 
L 229.090909 352.11488 
L 233.766234 352.542488 
L 238.441558 352.886618 
L 243.116883 352.906678 
L 247.792208 352.902684 
L 252.467532 352.872754 
L 257.142857 353.127651 
L 261.818182 353.39137 
L 266.493506 353.587503 
L 271.168831 353.821116 
L 275.844156 354.003289 
L 280.519481 353.869268 
L 285.194805 353.670526 
L 289.87013 353.712694 
L 294.545455 353.665057 
" clip-path="url(#p40ab6012cf)" style="fill: none; stroke: #800080; stroke-opacity: 0.2; stroke-width: 1.5; stroke-linecap: square"/>
   </g>
   <g id="line2d_16">
    <path d="M 65.454545 359.623689 
L 70.12987 359.623689 
L 74.805195 359.623689 
L 79.480519 358.584955 
L 84.155844 357.612645 
L 88.831169 357.456411 
L 93.506494 357.276833 
L 98.181818 357.094405 
L 102.857143 356.868011 
L 107.532468 356.584793 
L 112.207792 356.417957 
L 116.883117 356.19751 
L 121.558442 355.996925 
L 126.233766 355.710486 
L 130.909091 355.40626 
L 135.584416 355.066983 
L 140.25974 354.555957 
L 144.935065 354.034806 
L 149.61039 353.621965 
L 154.285714 353.322566 
L 158.961039 352.874112 
L 163.636364 352.442832 
L 168.311688 352.223048 
L 172.987013 352.286665 
L 177.662338 352.371542 
L 182.337662 352.20433 
L 187.012987 351.985145 
L 191.688312 351.632564 
L 196.363636 351.213396 
L 201.038961 351.071597 
L 205.714286 350.806041 
L 210.38961 350.460793 
L 215.064935 350.558189 
L 219.74026 350.541485 
L 224.415584 350.747813 
L 229.090909 350.95308 
L 233.766234 351.189607 
L 238.441558 351.380609 
L 243.116883 351.304497 
L 247.792208 351.269568 
L 252.467532 351.337484 
L 257.142857 351.391176 
L 261.818182 351.242236 
L 266.493506 351.405665 
L 271.168831 351.494146 
L 275.844156 351.380808 
L 280.519481 350.995704 
L 285.194805 350.687709 
L 289.87013 350.657707 
L 294.545455 350.745939 
" clip-path="url(#p40ab6012cf)" style="fill: none; stroke: #800080; stroke-opacity: 0.2; stroke-width: 1.5; stroke-linecap: square"/>
   </g>
   <g id="line2d_17">
    <path d="M 65.454545 349.13252 
L 70.12987 349.13252 
L 74.805195 349.173883 
L 79.480519 349.25223 
L 84.155844 349.236409 
L 88.831169 349.003759 
L 93.506494 349.220302 
L 98.181818 349.401103 
L 102.857143 349.486999 
L 107.532468 349.317199 
L 112.207792 349.429751 
L 116.883117 349.815718 
L 121.558442 350.025923 
L 126.233766 349.917902 
L 130.909091 349.950693 
L 135.584416 349.82401 
L 140.25974 349.994109 
L 144.935065 349.831679 
L 149.61039 349.677475 
L 154.285714 349.630243 
L 158.961039 349.514743 
L 163.636364 349.683768 
L 168.311688 349.971351 
L 172.987013 350.567292 
L 177.662338 350.947765 
L 182.337662 351.041259 
L 187.012987 351.343876 
L 191.688312 351.439955 
L 196.363636 351.75942 
L 201.038961 352.28088 
L 205.714286 352.817813 
L 210.38961 353.335571 
L 215.064935 353.68504 
L 219.74026 353.56423 
L 224.415584 352.995609 
L 229.090909 352.746348 
L 233.766234 352.720763 
L 238.441558 352.4588 
L 243.116883 352.131935 
L 247.792208 351.734735 
L 252.467532 351.354411 
L 257.142857 350.938411 
L 261.818182 350.36017 
L 266.493506 350.668951 
L 271.168831 351.120564 
L 275.844156 351.342293 
L 280.519481 351.551345 
L 285.194805 351.736362 
L 289.87013 351.984122 
L 294.545455 351.897753 
" clip-path="url(#p40ab6012cf)" style="fill: none; stroke: #800080; stroke-opacity: 0.2; stroke-width: 1.5; stroke-linecap: square"/>
   </g>
   <g id="line2d_18">
    <path d="M 65.454545 352.24356 
L 70.12987 352.24356 
L 74.805195 352.24356 
L 79.480519 352.24356 
L 84.155844 352.24356 
L 88.831169 352.52326 
L 93.506494 352.741692 
L 98.181818 352.804279 
L 102.857143 352.432991 
L 107.532468 352.067121 
L 112.207792 352.061705 
L 116.883117 352.500004 
L 121.558442 353.227344 
L 126.233766 353.717172 
L 130.909091 354.027395 
L 135.584416 353.888657 
L 140.25974 353.631971 
L 144.935065 353.509967 
L 149.61039 353.395124 
L 154.285714 353.308752 
L 158.961039 352.905832 
L 163.636364 352.606763 
L 168.311688 352.687381 
L 172.987013 352.942291 
L 177.662338 353.23598 
L 182.337662 353.352247 
L 187.012987 353.769988 
L 191.688312 354.328241 
L 196.363636 354.655788 
L 201.038961 354.3121 
L 205.714286 354.020358 
L 210.38961 353.607817 
L 215.064935 353.202856 
L 219.74026 352.775009 
L 224.415584 352.669119 
L 229.090909 352.733766 
L 233.766234 352.829596 
L 238.441558 352.839843 
L 243.116883 352.938795 
L 247.792208 353.134063 
L 252.467532 353.447864 
L 257.142857 353.598954 
L 261.818182 353.696707 
L 266.493506 353.731824 
L 271.168831 353.718809 
L 275.844156 353.716065 
L 280.519481 353.800426 
L 285.194805 354.007863 
L 289.87013 354.176737 
L 294.545455 354.190315 
" clip-path="url(#p40ab6012cf)" style="fill: none; stroke: #800080; stroke-opacity: 0.2; stroke-width: 1.5; stroke-linecap: square"/>
   </g>
   <g id="line2d_19">
    <path d="M 65.454545 352.191785 
L 70.12987 352.239263 
L 74.805195 352.373504 
L 79.480519 352.519604 
L 84.155844 352.562623 
L 88.831169 352.517289 
L 93.506494 352.285165 
L 98.181818 352.044805 
L 102.857143 351.444197 
L 107.532468 351.062867 
L 112.207792 350.730876 
L 116.883117 350.566742 
L 121.558442 350.294526 
L 126.233766 350.205229 
L 130.909091 350.094279 
L 135.584416 350.159621 
L 140.25974 350.326902 
L 144.935065 350.565833 
L 149.61039 350.753899 
L 154.285714 350.955219 
L 158.961039 350.969955 
L 163.636364 350.978293 
L 168.311688 350.772305 
L 172.987013 350.552826 
L 177.662338 350.507931 
L 182.337662 350.58102 
L 187.012987 350.623378 
L 191.688312 350.831731 
L 196.363636 351.352259 
L 201.038961 351.572722 
L 205.714286 351.662891 
L 210.38961 351.822629 
L 215.064935 352.015622 
L 219.74026 352.339835 
L 224.415584 352.57294 
L 229.090909 352.761236 
L 233.766234 352.757569 
L 238.441558 352.829097 
L 243.116883 352.890642 
L 247.792208 352.818594 
L 252.467532 352.770239 
L 257.142857 352.672417 
L 261.818182 352.634967 
L 266.493506 352.772533 
L 271.168831 352.94764 
L 275.844156 353.085365 
L 280.519481 353.042314 
L 285.194805 353.019139 
L 289.87013 353.020209 
L 294.545455 353.066854 
" clip-path="url(#p40ab6012cf)" style="fill: none; stroke: #800080; stroke-opacity: 0.2; stroke-width: 1.5; stroke-linecap: square"/>
   </g>
   <g id="line2d_20">
    <path d="M 65.454545 354.544419 
L 70.12987 354.544419 
L 74.805195 354.379062 
L 79.480519 353.934957 
L 84.155844 353.655148 
L 88.831169 353.726361 
L 93.506494 353.932526 
L 98.181818 354.060209 
L 102.857143 354.256659 
L 107.532468 354.358756 
L 112.207792 354.595794 
L 116.883117 354.988573 
L 121.558442 355.075284 
L 126.233766 355.052485 
L 130.909091 355.181803 
L 135.584416 355.16635 
L 140.25974 355.151736 
L 144.935065 355.296164 
L 149.61039 355.343665 
L 154.285714 355.303802 
L 158.961039 354.934502 
L 163.636364 354.712904 
L 168.311688 354.469402 
L 172.987013 354.274422 
L 177.662338 354.355362 
L 182.337662 354.556001 
L 187.012987 354.697226 
L 191.688312 354.545492 
L 196.363636 354.367938 
L 201.038961 354.091683 
L 205.714286 353.953951 
L 210.38961 353.775259 
L 215.064935 353.637541 
L 219.74026 353.744758 
L 224.415584 353.944964 
L 229.090909 353.825382 
L 233.766234 354.177751 
L 238.441558 354.481819 
L 243.116883 354.665964 
L 247.792208 354.864285 
L 252.467532 355.047503 
L 257.142857 355.166134 
L 261.818182 355.606235 
L 266.493506 356.170261 
L 271.168831 356.592389 
L 275.844156 356.814909 
L 280.519481 356.81331 
L 285.194805 356.82126 
L 289.87013 356.905343 
L 294.545455 357.050382 
" clip-path="url(#p40ab6012cf)" style="fill: none; stroke: #800080; stroke-opacity: 0.2; stroke-width: 1.5; stroke-linecap: square"/>
   </g>
   <g id="line2d_21">
    <path d="M 65.454545 355.718075 
L 70.12987 355.718075 
L 74.805195 355.718075 
L 79.480519 355.709621 
L 84.155844 355.510644 
L 88.831169 355.239498 
L 93.506494 355.200724 
L 98.181818 355.246512 
L 102.857143 355.311951 
L 107.532468 355.453772 
L 112.207792 355.588976 
L 116.883117 355.782314 
L 121.558442 355.816931 
L 126.233766 355.676492 
L 130.909091 355.482018 
L 135.584416 355.313103 
L 140.25974 355.182159 
L 144.935065 354.947221 
L 149.61039 354.678219 
L 154.285714 354.587907 
L 158.961039 354.605978 
L 163.636364 354.651097 
L 168.311688 354.688044 
L 172.987013 354.68334 
L 177.662338 354.724538 
L 182.337662 354.660344 
L 187.012987 354.541822 
L 191.688312 354.470745 
L 196.363636 354.368318 
L 201.038961 354.233575 
L 205.714286 354.086785 
L 210.38961 354.027683 
L 215.064935 354.036351 
L 219.74026 354.105708 
L 224.415584 354.379426 
L 229.090909 354.649903 
L 233.766234 354.92165 
L 238.441558 355.236865 
L 243.116883 355.504665 
L 247.792208 355.746665 
L 252.467532 355.947769 
L 257.142857 356.087339 
L 261.818182 356.15017 
L 266.493506 356.107078 
L 271.168831 356.053099 
L 275.844156 355.949317 
L 280.519481 355.946653 
L 285.194805 355.960156 
L 289.87013 356.037159 
L 294.545455 356.218358 
" clip-path="url(#p40ab6012cf)" style="fill: none; stroke: #800080; stroke-opacity: 0.2; stroke-width: 1.5; stroke-linecap: square"/>
   </g>
   <g id="line2d_22">
    <path d="M 65.454545 351.216265 
L 70.12987 350.361771 
L 74.805195 349.532782 
L 79.480519 348.988802 
L 84.155844 349.219093 
L 88.831169 349.481468 
L 93.506494 349.314556 
L 98.181818 348.369891 
L 102.857143 347.318414 
L 107.532468 346.189288 
L 112.207792 345.422284 
L 116.883117 344.590687 
L 121.558442 343.917885 
L 126.233766 343.537322 
L 130.909091 344.111636 
L 135.584416 344.80557 
L 140.25974 345.539204 
L 144.935065 346.410968 
L 149.61039 347.038763 
L 154.285714 347.561417 
L 158.961039 347.913022 
L 163.636364 348.070736 
L 168.311688 348.441967 
L 172.987013 348.768466 
L 177.662338 348.6544 
L 182.337662 348.370923 
L 187.012987 347.921216 
L 191.688312 347.499998 
L 196.363636 347.594554 
L 201.038961 347.995064 
L 205.714286 347.730958 
L 210.38961 347.381529 
L 215.064935 347.466364 
L 219.74026 347.941803 
L 224.415584 348.117961 
L 229.090909 348.22177 
L 233.766234 348.514837 
L 238.441558 348.583075 
L 243.116883 348.57221 
L 247.792208 348.390796 
L 252.467532 348.419626 
L 257.142857 348.068701 
L 261.818182 347.860825 
L 266.493506 348.129449 
L 271.168831 348.202339 
L 275.844156 347.994562 
L 280.519481 347.69037 
L 285.194805 347.427273 
L 289.87013 347.497229 
L 294.545455 347.843458 
" clip-path="url(#p40ab6012cf)" style="fill: none; stroke: #800080; stroke-opacity: 0.2; stroke-width: 1.5; stroke-linecap: square"/>
   </g>
   <g id="line2d_23">
    <path d="M 65.454545 345.758725 
L 70.12987 345.758725 
L 74.805195 345.655207 
L 79.480519 345.593857 
L 84.155844 345.850577 
L 88.831169 346.135587 
L 93.506494 346.996317 
L 98.181818 347.895887 
L 102.857143 347.584051 
L 107.532468 346.9146 
L 112.207792 346.628113 
L 116.883117 346.538721 
L 121.558442 346.51443 
L 126.233766 346.613038 
L 130.909091 346.987787 
L 135.584416 347.737456 
L 140.25974 348.207045 
L 144.935065 348.537409 
L 149.61039 348.071468 
L 154.285714 347.582369 
L 158.961039 347.277801 
L 163.636364 347.229066 
L 168.311688 347.274094 
L 172.987013 347.228349 
L 177.662338 347.380993 
L 182.337662 347.185903 
L 187.012987 346.812455 
L 191.688312 346.541501 
L 196.363636 346.412889 
L 201.038961 346.332432 
L 205.714286 346.211115 
L 210.38961 346.232589 
L 215.064935 346.213162 
L 219.74026 346.395756 
L 224.415584 346.812677 
L 229.090909 347.101906 
L 233.766234 347.217044 
L 238.441558 347.2794 
L 243.116883 347.360063 
L 247.792208 347.432408 
L 252.467532 347.625283 
L 257.142857 347.485964 
L 261.818182 347.33655 
L 266.493506 347.290065 
L 271.168831 347.373142 
L 275.844156 347.564972 
L 280.519481 347.768217 
L 285.194805 347.65158 
L 289.87013 347.360308 
L 294.545455 347.045165 
" clip-path="url(#p40ab6012cf)" style="fill: none; stroke: #800080; stroke-opacity: 0.2; stroke-width: 1.5; stroke-linecap: square"/>
   </g>
   <g id="patch_3">
    <path d="M 46 388.8 
L 46 280.8 
" style="fill: none; stroke: #000000; stroke-width: 0.8; stroke-linejoin: miter; stroke-linecap: square"/>
   </g>
   <g id="patch_4">
    <path d="M 54 396.8 
L 306 396.8 
" style="fill: none; stroke: #000000; stroke-width: 0.8; stroke-linejoin: miter; stroke-linecap: square"/>
   </g>
   <g id="legend_1">
    <g id="patch_5">
     <path d="M 240.16875 303.478125 
L 299 303.478125 
Q 301 303.478125 301 301.478125 
L 301 287.8 
Q 301 285.8 299 285.8 
L 240.16875 285.8 
Q 238.16875 285.8 238.16875 287.8 
L 238.16875 301.478125 
Q 238.16875 303.478125 240.16875 303.478125 
z
" style="fill: #ffffff; opacity: 0.8; stroke: #cccccc; stroke-linejoin: miter"/>
    </g>
    <g id="line2d_24">
     <path d="M 242.16875 293.898438 
L 252.16875 293.898438 
L 262.16875 293.898438 
" style="fill: none; stroke: #800080; stroke-width: 1.5; stroke-linecap: square"/>
    </g>
    <g id="text_11">
     <!-- iso90 -->
     <g transform="translate(270.16875 297.398438) scale(0.1 -0.1)">
      <defs>
       <path id="DejaVuSans-39" d="M 703 97 
L 703 672 
Q 941 559 1184 500 
Q 1428 441 1663 441 
Q 2288 441 2617 861 
Q 2947 1281 2994 2138 
Q 2813 1869 2534 1725 
Q 2256 1581 1919 1581 
Q 1219 1581 811 2004 
Q 403 2428 403 3163 
Q 403 3881 828 4315 
Q 1253 4750 1959 4750 
Q 2769 4750 3195 4129 
Q 3622 3509 3622 2328 
Q 3622 1225 3098 567 
Q 2575 -91 1691 -91 
Q 1453 -91 1209 -44 
Q 966 3 703 97 
z
M 1959 2075 
Q 2384 2075 2632 2365 
Q 2881 2656 2881 3163 
Q 2881 3666 2632 3958 
Q 2384 4250 1959 4250 
Q 1534 4250 1286 3958 
Q 1038 3666 1038 3163 
Q 1038 2656 1286 2365 
Q 1534 2075 1959 2075 
z
" transform="scale(0.015625)"/>
      </defs>
      <use xlink:href="#DejaVuSans-69"/>
      <use xlink:href="#DejaVuSans-73" x="27.783203"/>
      <use xlink:href="#DejaVuSans-6f" x="79.882812"/>
      <use xlink:href="#DejaVuSans-39" x="141.064453"/>
      <use xlink:href="#DejaVuSans-30" x="204.6875"/>
     </g>
    </g>
   </g>
  </g>
  <g id="axes_2">
   <g id="patch_6">
    <path d="M 54 259.2 
L 306 259.2 
L 306 151.2 
L 54 151.2 
z
" style="fill: #ffffff"/>
   </g>
   <g id="PolyCollection_2">
    <defs>
     <path id="m0bdbc77f09" d="M 65.454545 -219.950568 
L 65.454545 -214.742342 
L 70.12987 -214.68839 
L 74.805195 -214.537604 
L 79.480519 -214.274876 
L 84.155844 -214.192166 
L 88.831169 -214.181281 
L 93.506494 -214.191029 
L 98.181818 -214.30704 
L 102.857143 -214.334868 
L 107.532468 -214.393781 
L 112.207792 -214.554045 
L 116.883117 -214.741714 
L 121.558442 -214.941752 
L 126.233766 -215.138602 
L 130.909091 -215.307095 
L 135.584416 -215.488913 
L 140.25974 -215.731923 
L 144.935065 -215.867022 
L 149.61039 -215.947384 
L 154.285714 -216.043297 
L 158.961039 -216.105486 
L 163.636364 -216.185223 
L 168.311688 -216.260926 
L 172.987013 -216.298898 
L 177.662338 -216.373923 
L 182.337662 -216.42887 
L 187.012987 -216.456315 
L 191.688312 -216.484563 
L 196.363636 -216.507177 
L 201.038961 -216.427188 
L 205.714286 -216.342021 
L 210.38961 -216.295389 
L 215.064935 -216.163588 
L 219.74026 -216.021963 
L 224.415584 -215.94029 
L 229.090909 -215.86961 
L 233.766234 -215.816945 
L 238.441558 -215.680788 
L 243.116883 -215.527745 
L 247.792208 -215.411259 
L 252.467532 -215.313688 
L 257.142857 -215.135529 
L 261.818182 -214.914672 
L 266.493506 -214.718649 
L 271.168831 -214.473226 
L 275.844156 -214.239807 
L 280.519481 -213.974128 
L 285.194805 -213.718401 
L 289.87013 -213.483164 
L 294.545455 -213.267899 
L 294.545455 -216.123177 
L 294.545455 -216.123177 
L 289.87013 -216.448044 
L 285.194805 -216.786986 
L 280.519481 -217.156463 
L 275.844156 -217.590814 
L 271.168831 -218.048573 
L 266.493506 -218.516113 
L 261.818182 -218.881792 
L 257.142857 -219.280677 
L 252.467532 -219.596098 
L 247.792208 -219.609054 
L 243.116883 -219.527182 
L 238.441558 -219.468865 
L 233.766234 -219.371863 
L 229.090909 -219.232658 
L 224.415584 -219.079872 
L 219.74026 -218.909351 
L 215.064935 -218.895053 
L 210.38961 -218.907098 
L 205.714286 -218.851178 
L 201.038961 -218.891654 
L 196.363636 -218.979948 
L 191.688312 -218.95079 
L 187.012987 -218.905189 
L 182.337662 -218.885881 
L 177.662338 -218.845154 
L 172.987013 -218.840905 
L 168.311688 -218.946793 
L 163.636364 -218.946416 
L 158.961039 -218.948062 
L 154.285714 -219.093152 
L 149.61039 -219.196693 
L 144.935065 -219.423193 
L 140.25974 -219.38896 
L 135.584416 -219.247297 
L 130.909091 -219.027359 
L 126.233766 -218.920646 
L 121.558442 -218.965354 
L 116.883117 -218.846186 
L 112.207792 -218.577819 
L 107.532468 -218.326314 
L 102.857143 -218.200492 
L 98.181818 -218.103825 
L 93.506494 -217.998465 
L 88.831169 -217.98513 
L 84.155844 -218.035462 
L 79.480519 -218.385834 
L 74.805195 -219.039324 
L 70.12987 -219.719722 
L 65.454545 -219.950568 
z
"/>
    </defs>
    <g clip-path="url(#pe433516aaa)">
     <use xlink:href="#m0bdbc77f09" x="0" y="432" style="fill: #800080; fill-opacity: 0.4"/>
    </g>
   </g>
   <g id="matplotlib.axis_3">
    <g id="xtick_6">
     <g id="line2d_25">
      <g>
       <use xlink:href="#mdcef42568c" x="65.454545" y="267.2" style="stroke: #000000; stroke-width: 0.8"/>
      </g>
     </g>
    </g>
    <g id="xtick_7">
     <g id="line2d_26">
      <g>
       <use xlink:href="#mdcef42568c" x="122.727273" y="267.2" style="stroke: #000000; stroke-width: 0.8"/>
      </g>
     </g>
    </g>
    <g id="xtick_8">
     <g id="line2d_27">
      <g>
       <use xlink:href="#mdcef42568c" x="180" y="267.2" style="stroke: #000000; stroke-width: 0.8"/>
      </g>
     </g>
    </g>
    <g id="xtick_9">
     <g id="line2d_28">
      <g>
       <use xlink:href="#mdcef42568c" x="237.272727" y="267.2" style="stroke: #000000; stroke-width: 0.8"/>
      </g>
     </g>
    </g>
    <g id="xtick_10">
     <g id="line2d_29">
      <g>
       <use xlink:href="#mdcef42568c" x="294.545455" y="267.2" style="stroke: #000000; stroke-width: 0.8"/>
      </g>
     </g>
    </g>
   </g>
   <g id="matplotlib.axis_4">
    <g id="ytick_4">
     <g id="line2d_30">
      <g>
       <use xlink:href="#me9035937e8" x="46" y="240.141176" style="stroke: #000000; stroke-width: 0.8"/>
      </g>
     </g>
     <g id="text_12">
      <!-- 0 -->
      <g transform="translate(32.6375 243.940395) scale(0.1 -0.1)">
       <use xlink:href="#DejaVuSans-30"/>
      </g>
     </g>
    </g>
    <g id="ytick_5">
     <g id="line2d_31">
      <g>
       <use xlink:href="#me9035937e8" x="46" y="208.376471" style="stroke: #000000; stroke-width: 0.8"/>
      </g>
     </g>
     <g id="text_13">
      <!-- 5 -->
      <g transform="translate(32.6375 212.175689) scale(0.1 -0.1)">
       <use xlink:href="#DejaVuSans-35"/>
      </g>
     </g>
    </g>
    <g id="ytick_6">
     <g id="line2d_32">
      <g>
       <use xlink:href="#me9035937e8" x="46" y="176.611765" style="stroke: #000000; stroke-width: 0.8"/>
      </g>
     </g>
     <g id="text_14">
      <!-- 10 -->
      <g transform="translate(26.275 180.410983) scale(0.1 -0.1)">
       <use xlink:href="#DejaVuSans-31"/>
       <use xlink:href="#DejaVuSans-30" x="63.623047"/>
      </g>
     </g>
    </g>
    <g id="text_15">
     <!-- BOLD % change -->
     <g transform="translate(19.779375 253.494375) rotate(-90) scale(0.12 -0.12)">
      <use xlink:href="#DejaVuSans-42"/>
      <use xlink:href="#DejaVuSans-4f" x="66.853516"/>
      <use xlink:href="#DejaVuSans-4c" x="145.564453"/>
      <use xlink:href="#DejaVuSans-44" x="201.277344"/>
      <use xlink:href="#DejaVuSans-20" x="278.279297"/>
      <use xlink:href="#DejaVuSans-25" x="310.066406"/>
      <use xlink:href="#DejaVuSans-20" x="405.085938"/>
      <use xlink:href="#DejaVuSans-63" x="436.873047"/>
      <use xlink:href="#DejaVuSans-68" x="491.853516"/>
      <use xlink:href="#DejaVuSans-61" x="555.232422"/>
      <use xlink:href="#DejaVuSans-6e" x="616.511719"/>
      <use xlink:href="#DejaVuSans-67" x="679.890625"/>
      <use xlink:href="#DejaVuSans-65" x="743.367188"/>
     </g>
    </g>
   </g>
   <g id="line2d_33">
    <path d="M 180 278.258824 
L 180 202.023529 
" clip-path="url(#pe433516aaa)" style="fill: none; stroke-dasharray: 5.55,2.4; stroke-dashoffset: 0; stroke: #4c4c4c; stroke-width: 1.5"/>
   </g>
   <g id="line2d_34">
    <path d="M 65.454545 240.141176 
L 294.545455 240.141176 
" clip-path="url(#pe433516aaa)" style="fill: none; stroke-dasharray: 5.55,2.4; stroke-dashoffset: 0; stroke: #4c4c4c; stroke-width: 1.5"/>
   </g>
   <g id="line2d_35">
    <path d="M 65.454545 214.653545 
L 70.12987 214.795944 
L 74.805195 215.211536 
L 79.480519 215.669645 
L 84.155844 215.886186 
L 88.831169 215.916795 
L 93.506494 215.905253 
L 98.181818 215.794568 
L 102.857143 215.73232 
L 107.532468 215.639952 
L 112.207792 215.434068 
L 116.883117 215.20605 
L 121.558442 215.046447 
L 126.233766 214.970376 
L 130.909091 214.832773 
L 135.584416 214.631895 
L 140.25974 214.439559 
L 144.935065 214.354892 
L 149.61039 214.427962 
L 154.285714 214.431775 
L 158.961039 214.473226 
L 163.636364 214.434181 
L 168.311688 214.39614 
L 172.987013 214.430098 
L 177.662338 214.390461 
L 182.337662 214.342625 
L 187.012987 214.319248 
L 191.688312 214.282324 
L 196.363636 214.256438 
L 201.038961 214.340579 
L 205.714286 214.4034 
L 210.38961 214.398756 
L 215.064935 214.470679 
L 219.74026 214.534343 
L 224.415584 214.489919 
L 229.090909 214.448866 
L 233.766234 214.405596 
L 238.441558 214.425173 
L 243.116883 214.472537 
L 247.792208 214.489844 
L 252.467532 214.545107 
L 257.142857 214.791897 
L 261.818182 215.101768 
L 266.493506 215.382619 
L 271.168831 215.739101 
L 275.844156 216.084689 
L 280.519481 216.434704 
L 285.194805 216.747306 
L 289.87013 217.034396 
L 294.545455 217.304462 
" clip-path="url(#pe433516aaa)" style="fill: none; stroke: #800080; stroke-width: 1.5; stroke-linecap: square"/>
   </g>
   <g id="line2d_36">
    <path d="M 65.454545 219.757765 
L 70.12987 219.757765 
L 74.805195 219.757765 
L 79.480519 219.757765 
L 84.155844 219.671756 
L 88.831169 219.725385 
L 93.506494 219.568514 
L 98.181818 219.19007 
L 102.857143 219.703715 
L 107.532468 220.080214 
L 112.207792 220.079745 
L 116.883117 220.182844 
L 121.558442 219.908426 
L 126.233766 218.871974 
L 130.909091 218.000454 
L 135.584416 216.807346 
L 140.25974 214.859831 
L 144.935065 213.360048 
L 149.61039 212.043617 
L 154.285714 210.684644 
L 158.961039 209.658888 
L 163.636364 208.84502 
L 168.311688 208.329614 
L 172.987013 208.77897 
L 177.662338 209.207641 
L 182.337662 209.448286 
L 187.012987 209.556541 
L 191.688312 209.523009 
L 196.363636 209.195066 
L 201.038961 208.932942 
L 205.714286 208.435124 
L 210.38961 207.41946 
L 215.064935 206.468212 
L 219.74026 205.3198 
L 224.415584 203.397401 
L 229.090909 201.704412 
L 233.766234 200.261095 
L 238.441558 198.62714 
L 243.116883 197.058781 
L 247.792208 195.755695 
L 252.467532 195.339496 
L 257.142857 196.793987 
L 261.818182 198.56309 
L 266.493506 200.010948 
L 271.168831 201.864963 
L 275.844156 203.80004 
L 280.519481 205.378949 
L 285.194805 206.557999 
L 289.87013 207.396889 
L 294.545455 208.104602 
" clip-path="url(#pe433516aaa)" style="fill: none; stroke: #800080; stroke-opacity: 0.2; stroke-width: 1.5; stroke-linecap: square"/>
   </g>
   <g id="line2d_37">
    <path d="M 65.454545 220.736849 
L 70.12987 220.8928 
L 74.805195 221.064154 
L 79.480519 221.039873 
L 84.155844 221.087629 
L 88.831169 220.880671 
L 93.506494 220.514013 
L 98.181818 220.057573 
L 102.857143 219.589555 
L 107.532468 219.309169 
L 112.207792 219.338426 
L 116.883117 219.557739 
L 121.558442 219.718313 
L 126.233766 219.849508 
L 130.909091 219.930121 
L 135.584416 220.024562 
L 140.25974 220.146666 
L 144.935065 220.338619 
L 149.61039 220.637804 
L 154.285714 220.744096 
L 158.961039 220.705712 
L 163.636364 220.58883 
L 168.311688 220.546402 
L 172.987013 220.46504 
L 177.662338 220.433944 
L 182.337662 220.373529 
L 187.012987 220.494746 
L 191.688312 220.648278 
L 196.363636 220.704025 
L 201.038961 220.641006 
L 205.714286 220.626697 
L 210.38961 220.610624 
L 215.064935 220.704238 
L 219.74026 220.596314 
L 224.415584 220.493419 
L 229.090909 220.457794 
L 233.766234 220.272631 
L 238.441558 220.054611 
L 243.116883 219.92364 
L 247.792208 219.961569 
L 252.467532 220.113764 
L 257.142857 220.250372 
L 261.818182 220.550903 
L 266.493506 220.757316 
L 271.168831 220.801298 
L 275.844156 220.7645 
L 280.519481 220.823098 
L 285.194805 220.84599 
L 289.87013 220.809894 
L 294.545455 220.562942 
" clip-path="url(#pe433516aaa)" style="fill: none; stroke: #800080; stroke-opacity: 0.2; stroke-width: 1.5; stroke-linecap: square"/>
   </g>
   <g id="line2d_38">
    <path d="M 65.454545 223.664202 
L 70.12987 223.664202 
L 74.805195 223.612774 
L 79.480519 223.36406 
L 84.155844 223.052063 
L 88.831169 222.547124 
L 93.506494 222.042745 
L 98.181818 221.671017 
L 102.857143 221.774389 
L 107.532468 221.770304 
L 112.207792 221.440993 
L 116.883117 221.180222 
L 121.558442 220.951105 
L 126.233766 220.920331 
L 130.909091 221.000833 
L 135.584416 221.051399 
L 140.25974 220.863054 
L 144.935065 220.740092 
L 149.61039 220.602117 
L 154.285714 220.587786 
L 158.961039 220.56992 
L 163.636364 220.87847 
L 168.311688 221.100721 
L 172.987013 221.218675 
L 177.662338 221.213562 
L 182.337662 221.139545 
L 187.012987 221.069048 
L 191.688312 221.03099 
L 196.363636 221.0103 
L 201.038961 221.297136 
L 205.714286 221.586777 
L 210.38961 221.90355 
L 215.064935 222.268483 
L 219.74026 222.68729 
L 224.415584 223.004632 
L 229.090909 223.204071 
L 233.766234 223.354932 
L 238.441558 223.534522 
L 243.116883 223.64021 
L 247.792208 223.694727 
L 252.467532 223.8155 
L 257.142857 224.01869 
L 261.818182 224.099429 
L 266.493506 224.126532 
L 271.168831 224.057141 
L 275.844156 224.005463 
L 280.519481 224.01649 
L 285.194805 224.130644 
L 289.87013 224.250513 
L 294.545455 224.478457 
" clip-path="url(#pe433516aaa)" style="fill: none; stroke: #800080; stroke-opacity: 0.2; stroke-width: 1.5; stroke-linecap: square"/>
   </g>
   <g id="line2d_39">
    <path d="M 65.454545 218.03853 
L 70.12987 218.019486 
L 74.805195 217.978645 
L 79.480519 218.662904 
L 84.155844 219.179097 
L 88.831169 219.759495 
L 93.506494 220.074925 
L 98.181818 220.410175 
L 102.857143 220.674103 
L 107.532468 220.742835 
L 112.207792 220.679894 
L 116.883117 220.622149 
L 121.558442 220.492219 
L 126.233766 220.267688 
L 130.909091 219.93696 
L 135.584416 219.631795 
L 140.25974 219.470601 
L 144.935065 219.325402 
L 149.61039 219.122324 
L 154.285714 218.864201 
L 158.961039 218.390373 
L 163.636364 217.968045 
L 168.311688 217.475931 
L 172.987013 216.934679 
L 177.662338 216.609181 
L 182.337662 216.393357 
L 187.012987 216.101432 
L 191.688312 215.777617 
L 196.363636 215.529394 
L 201.038961 215.447239 
L 205.714286 215.460742 
L 210.38961 215.220332 
L 215.064935 215.087167 
L 219.74026 214.998121 
L 224.415584 215.050211 
L 229.090909 215.228721 
L 233.766234 215.407883 
L 238.441558 215.941122 
L 243.116883 216.576351 
L 247.792208 217.076084 
L 252.467532 217.183233 
L 257.142857 217.376297 
L 261.818182 217.718545 
L 266.493506 217.99563 
L 271.168831 218.181302 
L 275.844156 218.189463 
L 280.519481 218.219599 
L 285.194805 218.483504 
L 289.87013 218.60393 
L 294.545455 218.536193 
" clip-path="url(#pe433516aaa)" style="fill: none; stroke: #800080; stroke-opacity: 0.2; stroke-width: 1.5; stroke-linecap: square"/>
   </g>
   <g id="line2d_40">
    <path d="M 65.454545 214.049168 
L 70.12987 214.049168 
L 74.805195 214.028927 
L 79.480519 214.433023 
L 84.155844 214.519442 
L 88.831169 214.407847 
L 93.506494 214.876212 
L 98.181818 215.220708 
L 102.857143 215.230222 
L 107.532468 215.175409 
L 112.207792 215.460074 
L 116.883117 215.535101 
L 121.558442 215.470815 
L 126.233766 215.123419 
L 130.909091 214.573228 
L 135.584416 214.037689 
L 140.25974 213.556044 
L 144.935065 213.150911 
L 149.61039 212.915375 
L 154.285714 212.959889 
L 158.961039 213.461762 
L 163.636364 213.541898 
L 168.311688 213.280316 
L 172.987013 212.933446 
L 177.662338 212.636464 
L 182.337662 212.488479 
L 187.012987 212.356091 
L 191.688312 212.203355 
L 196.363636 211.889786 
L 201.038961 211.538297 
L 205.714286 211.438761 
L 210.38961 211.627454 
L 215.064935 212.066536 
L 219.74026 212.537107 
L 224.415584 212.723618 
L 229.090909 213.034898 
L 233.766234 213.382018 
L 238.441558 213.874965 
L 243.116883 214.205516 
L 247.792208 214.203399 
L 252.467532 214.167956 
L 257.142857 214.252394 
L 261.818182 214.259852 
L 266.493506 214.258501 
L 271.168831 214.289151 
L 275.844156 214.305888 
L 280.519481 214.268496 
L 285.194805 214.001312 
L 289.87013 213.938976 
L 294.545455 213.928719 
" clip-path="url(#pe433516aaa)" style="fill: none; stroke: #800080; stroke-opacity: 0.2; stroke-width: 1.5; stroke-linecap: square"/>
   </g>
   <g id="line2d_41">
    <path d="M 65.454545 210.434749 
L 70.12987 210.434749 
L 74.805195 210.786867 
L 79.480519 211.733859 
L 84.155844 212.249936 
L 88.831169 212.631789 
L 93.506494 213.035031 
L 98.181818 212.854884 
L 102.857143 212.539459 
L 107.532468 212.37114 
L 112.207792 212.19611 
L 116.883117 211.83646 
L 121.558442 211.453342 
L 126.233766 211.651194 
L 130.909091 212.043607 
L 135.584416 212.453841 
L 140.25974 212.570922 
L 144.935065 212.740512 
L 149.61039 212.785986 
L 154.285714 212.972468 
L 158.961039 212.989735 
L 163.636364 212.692537 
L 168.311688 212.912544 
L 172.987013 212.867726 
L 177.662338 212.487203 
L 182.337662 212.632599 
L 187.012987 212.749936 
L 191.688312 213.166288 
L 196.363636 213.514578 
L 201.038961 213.696617 
L 205.714286 214.13415 
L 210.38961 214.383995 
L 215.064935 214.963158 
L 219.74026 215.631704 
L 224.415584 215.836546 
L 229.090909 215.8079 
L 233.766234 215.915712 
L 238.441558 216.282489 
L 243.116883 216.563418 
L 247.792208 216.713849 
L 252.467532 216.881821 
L 257.142857 216.971916 
L 261.818182 217.008626 
L 266.493506 216.933295 
L 271.168831 217.22194 
L 275.844156 217.68368 
L 280.519481 218.243861 
L 285.194805 218.817153 
L 289.87013 219.200451 
L 294.545455 219.546163 
" clip-path="url(#pe433516aaa)" style="fill: none; stroke: #800080; stroke-opacity: 0.2; stroke-width: 1.5; stroke-linecap: square"/>
   </g>
   <g id="line2d_42">
    <path d="M 65.454545 190.309186 
L 70.12987 191.608696 
L 74.805195 195.567237 
L 79.480519 198.217033 
L 84.155844 199.888706 
L 88.831169 199.645156 
L 93.506494 198.842816 
L 98.181818 198.275044 
L 102.857143 197.317646 
L 107.532468 196.335204 
L 112.207792 195.340891 
L 116.883117 194.676092 
L 121.558442 195.009357 
L 126.233766 196.277076 
L 130.909091 196.361438 
L 135.584416 195.71089 
L 140.25974 196.150115 
L 144.935065 196.953594 
L 149.61039 199.460937 
L 154.285714 201.314768 
L 158.961039 203.199299 
L 163.636364 204.336824 
L 168.311688 205.406141 
L 172.987013 206.768866 
L 177.662338 207.416576 
L 182.337662 207.346597 
L 187.012987 207.354791 
L 191.688312 207.362908 
L 196.363636 208.160482 
L 201.038961 209.201716 
L 205.714286 209.791397 
L 210.38961 209.827226 
L 215.064935 209.786028 
L 219.74026 209.587302 
L 224.415584 209.059973 
L 229.090909 209.178836 
L 233.766234 208.890742 
L 238.441558 208.472047 
L 243.116883 208.368945 
L 247.792208 208.116694 
L 252.467532 208.097353 
L 257.142857 208.051559 
L 261.818182 208.255083 
L 266.493506 208.938814 
L 271.168831 209.839249 
L 275.844156 210.746162 
L 280.519481 211.535303 
L 285.194805 212.282316 
L 289.87013 212.696707 
L 294.545455 213.45295 
" clip-path="url(#pe433516aaa)" style="fill: none; stroke: #800080; stroke-opacity: 0.2; stroke-width: 1.5; stroke-linecap: square"/>
   </g>
   <g id="line2d_43">
    <path d="M 65.454545 215.290416 
L 70.12987 215.300809 
L 74.805195 215.396272 
L 79.480519 215.308999 
L 84.155844 215.590966 
L 88.831169 216.04642 
L 93.506494 216.342883 
L 98.181818 216.515291 
L 102.857143 216.696378 
L 107.532468 216.805349 
L 112.207792 216.808405 
L 116.883117 216.597513 
L 121.558442 216.230179 
L 126.233766 215.993412 
L 130.909091 215.733203 
L 135.584416 215.583474 
L 140.25974 215.526057 
L 144.935065 215.475778 
L 149.61039 215.298438 
L 154.285714 215.162817 
L 158.961039 215.036655 
L 163.636364 214.814776 
L 168.311688 214.656854 
L 172.987013 214.593632 
L 177.662338 214.600314 
L 182.337662 214.717719 
L 187.012987 214.801844 
L 191.688312 214.803821 
L 196.363636 214.908769 
L 201.038961 214.973346 
L 205.714286 214.969088 
L 210.38961 214.960477 
L 215.064935 215.020567 
L 219.74026 215.078348 
L 224.415584 215.129332 
L 229.090909 215.06447 
L 233.766234 215.029008 
L 238.441558 214.994833 
L 243.116883 214.871719 
L 247.792208 214.966312 
L 252.467532 215.099816 
L 257.142857 215.362051 
L 261.818182 215.485242 
L 266.493506 215.536248 
L 271.168831 215.795389 
L 275.844156 216.139853 
L 280.519481 216.475832 
L 285.194805 216.743587 
L 289.87013 217.077582 
L 294.545455 217.518389 
" clip-path="url(#pe433516aaa)" style="fill: none; stroke: #800080; stroke-opacity: 0.2; stroke-width: 1.5; stroke-linecap: square"/>
   </g>
   <g id="line2d_44">
    <path d="M 65.454545 215.783414 
L 70.12987 215.783414 
L 74.805195 215.783414 
L 79.480519 216.155405 
L 84.155844 216.636262 
L 88.831169 216.835883 
L 93.506494 217.028078 
L 98.181818 217.197284 
L 102.857143 217.123677 
L 107.532468 216.865092 
L 112.207792 216.721552 
L 116.883117 216.543762 
L 121.558442 216.677503 
L 126.233766 216.846252 
L 130.909091 217.101701 
L 135.584416 217.010211 
L 140.25974 216.86977 
L 144.935065 216.997647 
L 149.61039 217.097995 
L 154.285714 216.889393 
L 158.961039 216.657892 
L 163.636364 216.492271 
L 168.311688 216.259381 
L 172.987013 216.13256 
L 177.662338 216.00059 
L 182.337662 215.781154 
L 187.012987 215.632633 
L 191.688312 215.60791 
L 196.363636 215.640417 
L 201.038961 215.667626 
L 205.714286 215.677563 
L 210.38961 215.63885 
L 215.064935 215.495365 
L 219.74026 215.651562 
L 224.415584 216.088355 
L 229.090909 216.467884 
L 233.766234 216.787871 
L 238.441558 217.039305 
L 243.116883 217.229654 
L 247.792208 217.476648 
L 252.467532 217.622215 
L 257.142857 217.850054 
L 261.818182 218.250913 
L 266.493506 218.828965 
L 271.168831 219.34071 
L 275.844156 219.777883 
L 280.519481 220.144039 
L 285.194805 220.367344 
L 289.87013 220.459945 
L 294.545455 220.587611 
" clip-path="url(#pe433516aaa)" style="fill: none; stroke: #800080; stroke-opacity: 0.2; stroke-width: 1.5; stroke-linecap: square"/>
   </g>
   <g id="line2d_45">
    <path d="M 65.454545 224.004412 
L 70.12987 224.004412 
L 74.805195 224.008785 
L 79.480519 224.072146 
L 84.155844 224.03527 
L 88.831169 223.939882 
L 93.506494 223.78864 
L 98.181818 223.604306 
L 102.857143 223.288983 
L 107.532468 222.735051 
L 112.207792 222.091887 
L 116.883117 221.51936 
L 121.558442 220.801148 
L 126.233766 220.145659 
L 130.909091 219.744088 
L 135.584416 219.48519 
L 140.25974 219.290059 
L 144.935065 219.305252 
L 149.61039 219.33326 
L 154.285714 219.377426 
L 158.961039 219.416829 
L 163.636364 219.497305 
L 168.311688 219.564814 
L 172.987013 219.637216 
L 177.662338 219.59946 
L 182.337662 219.618478 
L 187.012987 219.617922 
L 191.688312 219.62375 
L 196.363636 219.746015 
L 201.038961 219.951232 
L 205.714286 220.12018 
L 210.38961 220.374889 
L 215.064935 220.627243 
L 219.74026 220.860774 
L 224.415584 221.173911 
L 229.090909 221.415726 
L 233.766234 221.622008 
L 238.441558 221.915439 
L 243.116883 222.169949 
L 247.792208 222.445359 
L 252.467532 222.712932 
L 257.142857 222.952818 
L 261.818182 223.135702 
L 266.493506 223.238052 
L 271.168831 223.464393 
L 275.844156 223.619279 
L 280.519481 223.860219 
L 285.194805 224.098575 
L 289.87013 224.365168 
L 294.545455 224.505124 
" clip-path="url(#pe433516aaa)" style="fill: none; stroke: #800080; stroke-opacity: 0.2; stroke-width: 1.5; stroke-linecap: square"/>
   </g>
   <g id="line2d_46">
    <path d="M 65.454545 219.152313 
L 70.12987 219.152313 
L 74.805195 219.152313 
L 79.480519 219.118709 
L 84.155844 218.073888 
L 88.831169 217.470753 
L 93.506494 217.022514 
L 98.181818 216.089031 
L 102.857143 215.161439 
L 107.532468 214.533175 
L 112.207792 213.834056 
L 116.883117 213.126219 
L 121.558442 212.805372 
L 126.233766 212.601387 
L 130.909091 212.247046 
L 135.584416 212.263768 
L 140.25974 212.58116 
L 144.935065 212.85253 
L 149.61039 212.955129 
L 154.285714 212.887933 
L 158.961039 212.835396 
L 163.636364 212.617624 
L 168.311688 212.15543 
L 172.987013 211.813494 
L 177.662338 211.377014 
L 182.337662 210.954547 
L 187.012987 210.849235 
L 191.688312 210.711585 
L 196.363636 210.421572 
L 201.038961 210.719326 
L 205.714286 211.059196 
L 210.38961 211.689915 
L 215.064935 212.454089 
L 219.74026 213.14436 
L 224.415584 213.78786 
L 229.090909 214.206743 
L 233.766234 214.428298 
L 238.441558 214.826704 
L 243.116883 215.299443 
L 247.792208 215.526817 
L 252.467532 215.507869 
L 257.142857 215.586711 
L 261.818182 215.807401 
L 266.493506 215.776992 
L 271.168831 215.701159 
L 275.844156 215.607131 
L 280.519481 215.619072 
L 285.194805 215.690022 
L 289.87013 216.005463 
L 294.545455 216.207718 
" clip-path="url(#pe433516aaa)" style="fill: none; stroke: #800080; stroke-opacity: 0.2; stroke-width: 1.5; stroke-linecap: square"/>
   </g>
   <g id="line2d_47">
    <path d="M 65.454545 204.621537 
L 70.12987 204.883516 
L 74.805195 205.401279 
L 79.480519 206.171962 
L 84.155844 206.649214 
L 88.831169 207.111131 
L 93.506494 207.726668 
L 98.181818 208.449428 
L 102.857143 209.68827 
L 107.532468 210.956482 
L 112.207792 211.216785 
L 116.883117 211.09514 
L 121.558442 211.039585 
L 126.233766 211.096612 
L 130.909091 211.3206 
L 135.584416 211.522574 
L 140.25974 211.390425 
L 144.935065 211.018323 
L 149.61039 210.882558 
L 154.285714 210.735883 
L 158.961039 210.756249 
L 163.636364 210.936566 
L 168.311688 211.065534 
L 172.987013 211.016878 
L 177.662338 211.103585 
L 182.337662 211.217206 
L 187.012987 211.246758 
L 191.688312 210.928375 
L 196.363636 210.356848 
L 201.038961 210.020465 
L 205.714286 209.54113 
L 210.38961 209.128305 
L 215.064935 208.707065 
L 219.74026 208.319435 
L 224.415584 208.133769 
L 229.090909 207.614942 
L 233.766234 207.514952 
L 238.441558 207.538905 
L 243.116883 207.762815 
L 247.792208 207.94097 
L 252.467532 207.999328 
L 257.142857 208.035914 
L 261.818182 208.086426 
L 266.493506 208.190141 
L 271.168831 208.312513 
L 275.844156 208.376932 
L 280.519481 208.631496 
L 285.194805 208.94923 
L 289.87013 209.607235 
L 294.545455 210.224679 
" clip-path="url(#pe433516aaa)" style="fill: none; stroke: #800080; stroke-opacity: 0.2; stroke-width: 1.5; stroke-linecap: square"/>
   </g>
   <g id="patch_7">
    <path d="M 46 259.2 
L 46 151.2 
" style="fill: none; stroke: #000000; stroke-width: 0.8; stroke-linejoin: miter; stroke-linecap: square"/>
   </g>
   <g id="patch_8">
    <path d="M 54 267.2 
L 306 267.2 
" style="fill: none; stroke: #000000; stroke-width: 0.8; stroke-linejoin: miter; stroke-linecap: square"/>
   </g>
  </g>
  <g id="axes_3">
   <g id="patch_9">
    <path d="M 54 129.6 
L 306 129.6 
L 306 21.6 
L 54 21.6 
z
" style="fill: #ffffff"/>
   </g>
   <g id="PolyCollection_3">
    <defs>
     <path id="m0f9d41e7eb" d="M 65.454545 -362.203128 
L 65.454545 -354.108696 
L 70.12987 -354.0395 
L 74.805195 -353.813666 
L 79.480519 -353.779661 
L 84.155844 -353.761591 
L 88.831169 -353.622809 
L 93.506494 -353.298112 
L 98.181818 -353.022438 
L 102.857143 -352.763412 
L 107.532468 -352.695883 
L 112.207792 -352.818706 
L 116.883117 -352.985404 
L 121.558442 -353.33464 
L 126.233766 -353.812916 
L 130.909091 -354.289303 
L 135.584416 -354.774282 
L 140.25974 -355.200209 
L 144.935065 -355.535823 
L 149.61039 -355.607188 
L 154.285714 -355.642166 
L 158.961039 -355.710192 
L 163.636364 -355.859195 
L 168.311688 -356.133176 
L 172.987013 -356.398541 
L 177.662338 -356.693874 
L 182.337662 -356.841118 
L 187.012987 -356.756241 
L 191.688312 -356.636586 
L 196.363636 -356.473139 
L 201.038961 -356.392678 
L 205.714286 -356.244615 
L 210.38961 -356.119713 
L 215.064935 -356.017915 
L 219.74026 -355.900681 
L 224.415584 -355.74371 
L 229.090909 -355.481297 
L 233.766234 -355.203532 
L 238.441558 -354.89104 
L 243.116883 -354.629133 
L 247.792208 -354.394748 
L 252.467532 -354.170664 
L 257.142857 -353.981183 
L 261.818182 -353.868063 
L 266.493506 -353.659867 
L 271.168831 -353.467324 
L 275.844156 -353.209291 
L 280.519481 -352.894656 
L 285.194805 -352.580599 
L 289.87013 -352.283486 
L 294.545455 -352.111152 
L 294.545455 -357.48561 
L 294.545455 -357.48561 
L 289.87013 -357.697756 
L 285.194805 -358.101135 
L 280.519481 -358.458759 
L 275.844156 -358.828719 
L 271.168831 -359.102758 
L 266.493506 -359.318076 
L 261.818182 -359.501108 
L 257.142857 -359.460971 
L 252.467532 -359.613999 
L 247.792208 -359.846524 
L 243.116883 -360.095617 
L 238.441558 -360.384977 
L 233.766234 -360.699457 
L 229.090909 -361.048176 
L 224.415584 -361.42145 
L 219.74026 -361.611415 
L 215.064935 -361.717572 
L 210.38961 -361.808835 
L 205.714286 -361.952359 
L 201.038961 -361.983073 
L 196.363636 -361.906225 
L 191.688312 -361.908652 
L 187.012987 -361.810679 
L 182.337662 -361.75593 
L 177.662338 -361.472517 
L 172.987013 -361.012601 
L 168.311688 -360.665791 
L 163.636364 -360.331106 
L 158.961039 -360.2106 
L 154.285714 -360.189011 
L 149.61039 -360.277458 
L 144.935065 -360.433937 
L 140.25974 -360.206554 
L 135.584416 -359.945186 
L 130.909091 -359.700602 
L 126.233766 -359.549442 
L 121.558442 -359.189714 
L 116.883117 -359.151672 
L 112.207792 -359.612701 
L 107.532468 -359.988806 
L 102.857143 -360.213848 
L 98.181818 -360.509099 
L 93.506494 -361.015355 
L 88.831169 -361.683703 
L 84.155844 -361.793357 
L 79.480519 -361.825239 
L 74.805195 -361.860022 
L 70.12987 -362.103833 
L 65.454545 -362.203128 
z
"/>
    </defs>
    <g clip-path="url(#p4b7e5372f2)">
     <use xlink:href="#m0f9d41e7eb" x="0" y="432" style="fill: #800080; fill-opacity: 0.4"/>
    </g>
   </g>
   <g id="matplotlib.axis_5">
    <g id="xtick_11">
     <g id="line2d_48">
      <g>
       <use xlink:href="#mdcef42568c" x="65.454545" y="137.6" style="stroke: #000000; stroke-width: 0.8"/>
      </g>
     </g>
    </g>
    <g id="xtick_12">
     <g id="line2d_49">
      <g>
       <use xlink:href="#mdcef42568c" x="122.727273" y="137.6" style="stroke: #000000; stroke-width: 0.8"/>
      </g>
     </g>
    </g>
    <g id="xtick_13">
     <g id="line2d_50">
      <g>
       <use xlink:href="#mdcef42568c" x="180" y="137.6" style="stroke: #000000; stroke-width: 0.8"/>
      </g>
     </g>
    </g>
    <g id="xtick_14">
     <g id="line2d_51">
      <g>
       <use xlink:href="#mdcef42568c" x="237.272727" y="137.6" style="stroke: #000000; stroke-width: 0.8"/>
      </g>
     </g>
    </g>
    <g id="xtick_15">
     <g id="line2d_52">
      <g>
       <use xlink:href="#mdcef42568c" x="294.545455" y="137.6" style="stroke: #000000; stroke-width: 0.8"/>
      </g>
     </g>
    </g>
   </g>
   <g id="matplotlib.axis_6">
    <g id="ytick_7">
     <g id="line2d_53">
      <g>
       <use xlink:href="#me9035937e8" x="46" y="110.541176" style="stroke: #000000; stroke-width: 0.8"/>
      </g>
     </g>
     <g id="text_16">
      <!-- 0 -->
      <g transform="translate(32.6375 114.340395) scale(0.1 -0.1)">
       <use xlink:href="#DejaVuSans-30"/>
      </g>
     </g>
    </g>
    <g id="ytick_8">
     <g id="line2d_54">
      <g>
       <use xlink:href="#me9035937e8" x="46" y="78.776471" style="stroke: #000000; stroke-width: 0.8"/>
      </g>
     </g>
     <g id="text_17">
      <!-- 5 -->
      <g transform="translate(32.6375 82.575689) scale(0.1 -0.1)">
       <use xlink:href="#DejaVuSans-35"/>
      </g>
     </g>
    </g>
    <g id="ytick_9">
     <g id="line2d_55">
      <g>
       <use xlink:href="#me9035937e8" x="46" y="47.011765" style="stroke: #000000; stroke-width: 0.8"/>
      </g>
     </g>
     <g id="text_18">
      <!-- 10 -->
      <g transform="translate(26.275 50.810983) scale(0.1 -0.1)">
       <use xlink:href="#DejaVuSans-31"/>
       <use xlink:href="#DejaVuSans-30" x="63.623047"/>
      </g>
     </g>
    </g>
    <g id="text_19">
     <!-- BOLD % change -->
     <g transform="translate(19.779375 123.894375) rotate(-90) scale(0.12 -0.12)">
      <use xlink:href="#DejaVuSans-42"/>
      <use xlink:href="#DejaVuSans-4f" x="66.853516"/>
      <use xlink:href="#DejaVuSans-4c" x="145.564453"/>
      <use xlink:href="#DejaVuSans-44" x="201.277344"/>
      <use xlink:href="#DejaVuSans-20" x="278.279297"/>
      <use xlink:href="#DejaVuSans-25" x="310.066406"/>
      <use xlink:href="#DejaVuSans-20" x="405.085938"/>
      <use xlink:href="#DejaVuSans-63" x="436.873047"/>
      <use xlink:href="#DejaVuSans-68" x="491.853516"/>
      <use xlink:href="#DejaVuSans-61" x="555.232422"/>
      <use xlink:href="#DejaVuSans-6e" x="616.511719"/>
      <use xlink:href="#DejaVuSans-67" x="679.890625"/>
      <use xlink:href="#DejaVuSans-65" x="743.367188"/>
     </g>
    </g>
   </g>
   <g id="line2d_56">
    <path d="M 180 148.658824 
L 180 72.423529 
" clip-path="url(#p4b7e5372f2)" style="fill: none; stroke-dasharray: 5.55,2.4; stroke-dashoffset: 0; stroke: #4c4c4c; stroke-width: 1.5"/>
   </g>
   <g id="line2d_57">
    <path d="M 65.454545 110.541176 
L 294.545455 110.541176 
" clip-path="url(#p4b7e5372f2)" style="fill: none; stroke-dasharray: 5.55,2.4; stroke-dashoffset: 0; stroke: #4c4c4c; stroke-width: 1.5"/>
   </g>
   <g id="line2d_58">
    <path d="M 65.454545 73.844088 
L 70.12987 73.928333 
L 74.805195 74.163156 
L 79.480519 74.19755 
L 84.155844 74.222526 
L 88.831169 74.346744 
L 93.506494 74.843266 
L 98.181818 75.234231 
L 102.857143 75.51137 
L 107.532468 75.657656 
L 112.207792 75.784297 
L 116.883117 75.931462 
L 121.558442 75.737823 
L 126.233766 75.318821 
L 130.909091 75.005047 
L 135.584416 74.640266 
L 140.25974 74.296618 
L 144.935065 74.01512 
L 149.61039 74.057677 
L 154.285714 74.084412 
L 158.961039 74.039604 
L 163.636364 73.904849 
L 168.311688 73.600516 
L 172.987013 73.294429 
L 177.662338 72.916804 
L 182.337662 72.701476 
L 187.012987 72.71654 
L 191.688312 72.727381 
L 196.363636 72.810318 
L 201.038961 72.812125 
L 205.714286 72.901513 
L 210.38961 73.035726 
L 215.064935 73.132256 
L 219.74026 73.243952 
L 224.415584 73.41742 
L 229.090909 73.735264 
L 233.766234 74.048505 
L 238.441558 74.361992 
L 243.116883 74.637625 
L 247.792208 74.879364 
L 252.467532 75.107669 
L 257.142857 75.278923 
L 261.818182 75.315415 
L 266.493506 75.511029 
L 271.168831 75.714959 
L 275.844156 75.980995 
L 280.519481 76.323292 
L 285.194805 76.659133 
L 289.87013 77.009379 
L 294.545455 77.201619 
" clip-path="url(#p4b7e5372f2)" style="fill: none; stroke: #800080; stroke-width: 1.5; stroke-linecap: square"/>
   </g>
   <g id="line2d_59">
    <path d="M 65.454545 73.531567 
L 70.12987 73.531567 
L 74.805195 73.531567 
L 79.480519 73.124981 
L 84.155844 72.787963 
L 88.831169 73.447007 
L 93.506494 73.964575 
L 98.181818 74.498763 
L 102.857143 75.243348 
L 107.532468 75.368007 
L 112.207792 73.950083 
L 116.883117 73.373205 
L 121.558442 72.97554 
L 126.233766 72.775776 
L 130.909091 72.033711 
L 135.584416 70.726177 
L 140.25974 68.831133 
L 144.935065 67.478427 
L 149.61039 67.875693 
L 154.285714 68.883894 
L 158.961039 70.033265 
L 163.636364 69.76551 
L 168.311688 69.021854 
L 172.987013 67.553304 
L 177.662338 66.278971 
L 182.337662 64.450049 
L 187.012987 63.036032 
L 191.688312 59.980094 
L 196.363636 57.85332 
L 201.038961 56.25656 
L 205.714286 55.632424 
L 210.38961 56.163451 
L 215.064935 56.24499 
L 219.74026 56.598131 
L 224.415584 57.208083 
L 229.090909 58.378452 
L 233.766234 58.899539 
L 238.441558 58.777275 
L 243.116883 59.454082 
L 247.792208 60.268257 
L 252.467532 60.790409 
L 257.142857 61.202779 
L 261.818182 60.518941 
L 266.493506 59.92282 
L 271.168831 59.98152 
L 275.844156 59.652364 
L 280.519481 59.939321 
L 285.194805 60.678153 
L 289.87013 61.65554 
L 294.545455 62.04068 
" clip-path="url(#p4b7e5372f2)" style="fill: none; stroke: #800080; stroke-opacity: 0.2; stroke-width: 1.5; stroke-linecap: square"/>
   </g>
   <g id="line2d_60">
    <path d="M 65.454545 79.731029 
L 70.12987 79.731029 
L 74.805195 79.752331 
L 79.480519 80.182358 
L 84.155844 80.408522 
L 88.831169 80.85287 
L 93.506494 81.963541 
L 98.181818 82.946196 
L 102.857143 83.62842 
L 107.532468 83.99113 
L 112.207792 83.68155 
L 116.883117 83.454302 
L 121.558442 83.220637 
L 126.233766 82.943084 
L 130.909091 82.663482 
L 135.584416 82.646315 
L 140.25974 83.073662 
L 144.935065 83.309218 
L 149.61039 83.520152 
L 154.285714 83.808317 
L 158.961039 84.170674 
L 163.636364 84.477596 
L 168.311688 84.805804 
L 172.987013 85.277141 
L 177.662338 85.693168 
L 182.337662 85.939692 
L 187.012987 86.251227 
L 191.688312 86.423484 
L 196.363636 86.721741 
L 201.038961 86.909989 
L 205.714286 87.058726 
L 210.38961 87.217267 
L 215.064935 87.264996 
L 219.74026 87.136431 
L 224.415584 86.847064 
L 229.090909 86.519846 
L 233.766234 86.567667 
L 238.441558 86.72462 
L 243.116883 86.837687 
L 247.792208 87.051869 
L 252.467532 87.163455 
L 257.142857 87.182646 
L 261.818182 87.273349 
L 266.493506 87.333994 
L 271.168831 87.324459 
L 275.844156 87.213651 
L 280.519481 87.318682 
L 285.194805 87.365717 
L 289.87013 87.280575 
L 294.545455 86.912014 
" clip-path="url(#p4b7e5372f2)" style="fill: none; stroke: #800080; stroke-opacity: 0.2; stroke-width: 1.5; stroke-linecap: square"/>
   </g>
   <g id="line2d_61">
    <path d="M 65.454545 91.832207 
L 70.12987 91.832207 
L 74.805195 91.832207 
L 79.480519 91.756314 
L 84.155844 91.566154 
L 88.831169 91.721969 
L 93.506494 92.191921 
L 98.181818 92.392354 
L 102.857143 92.283534 
L 107.532468 91.937375 
L 112.207792 91.39486 
L 116.883117 90.710551 
L 121.558442 89.831932 
L 126.233766 89.012081 
L 130.909091 88.216914 
L 135.584416 87.377521 
L 140.25974 86.911408 
L 144.935065 87.082201 
L 149.61039 87.360002 
L 154.285714 87.566585 
L 158.961039 87.440692 
L 163.636364 87.122258 
L 168.311688 86.703401 
L 172.987013 86.111343 
L 177.662338 85.520919 
L 182.337662 85.368095 
L 187.012987 85.491728 
L 191.688312 85.821284 
L 196.363636 86.264786 
L 201.038961 86.742047 
L 205.714286 87.218692 
L 210.38961 87.67814 
L 215.064935 87.955281 
L 219.74026 88.333681 
L 224.415584 88.824833 
L 229.090909 89.316927 
L 233.766234 89.782586 
L 238.441558 90.292909 
L 243.116883 90.717301 
L 247.792208 91.142568 
L 252.467532 91.252092 
L 257.142857 91.217059 
L 261.818182 91.147611 
L 266.493506 91.193378 
L 271.168831 91.263948 
L 275.844156 91.355633 
L 280.519481 91.32683 
L 285.194805 91.413377 
L 289.87013 91.546645 
L 294.545455 91.809155 
" clip-path="url(#p4b7e5372f2)" style="fill: none; stroke: #800080; stroke-opacity: 0.2; stroke-width: 1.5; stroke-linecap: square"/>
   </g>
   <g id="line2d_62">
    <path d="M 65.454545 69.520085 
L 70.12987 69.827831 
L 74.805195 70.462592 
L 79.480519 70.755468 
L 84.155844 71.550524 
L 88.831169 72.648245 
L 93.506494 73.292273 
L 98.181818 73.270986 
L 102.857143 73.340498 
L 107.532468 73.690945 
L 112.207792 73.786811 
L 116.883117 73.455798 
L 121.558442 72.945903 
L 126.233766 72.962519 
L 130.909091 72.810604 
L 135.584416 72.600436 
L 140.25974 72.527337 
L 144.935065 72.166624 
L 149.61039 72.415211 
L 154.285714 72.808284 
L 158.961039 72.779513 
L 163.636364 72.548102 
L 168.311688 72.350849 
L 172.987013 72.350639 
L 177.662338 72.225207 
L 182.337662 72.076301 
L 187.012987 72.157234 
L 191.688312 72.117198 
L 196.363636 71.925783 
L 201.038961 71.450778 
L 205.714286 71.138406 
L 210.38961 70.781225 
L 215.064935 70.354724 
L 219.74026 69.883979 
L 224.415584 70.467083 
L 229.090909 70.642685 
L 233.766234 70.953373 
L 238.441558 71.067624 
L 243.116883 71.017053 
L 247.792208 71.185388 
L 252.467532 71.732954 
L 257.142857 72.450107 
L 261.818182 72.572629 
L 266.493506 72.257605 
L 271.168831 71.859175 
L 275.844156 71.610369 
L 280.519481 71.129754 
L 285.194805 70.755847 
L 289.87013 70.890135 
L 294.545455 70.846281 
" clip-path="url(#p4b7e5372f2)" style="fill: none; stroke: #800080; stroke-opacity: 0.2; stroke-width: 1.5; stroke-linecap: square"/>
   </g>
   <g id="line2d_63">
    <path d="M 65.454545 73.620369 
L 70.12987 73.620369 
L 74.805195 73.420963 
L 79.480519 72.781492 
L 84.155844 72.011638 
L 88.831169 71.494736 
L 93.506494 71.800451 
L 98.181818 72.489556 
L 102.857143 73.140689 
L 107.532468 73.493203 
L 112.207792 73.70664 
L 116.883117 73.835349 
L 121.558442 73.779374 
L 126.233766 73.303341 
L 130.909091 72.532253 
L 135.584416 71.813347 
L 140.25974 71.164671 
L 144.935065 70.550983 
L 149.61039 69.708659 
L 154.285714 68.928099 
L 158.961039 68.561268 
L 163.636364 68.219817 
L 168.311688 67.832726 
L 172.987013 67.340624 
L 177.662338 66.705522 
L 182.337662 66.134221 
L 187.012987 65.54799 
L 191.688312 65.187037 
L 196.363636 64.808858 
L 201.038961 64.902489 
L 205.714286 65.459575 
L 210.38961 65.921377 
L 215.064935 66.296737 
L 219.74026 66.849653 
L 224.415584 67.469618 
L 229.090909 68.195139 
L 233.766234 68.833747 
L 238.441558 69.355893 
L 243.116883 69.761609 
L 247.792208 70.038423 
L 252.467532 70.5579 
L 257.142857 70.789092 
L 261.818182 70.992728 
L 266.493506 71.508325 
L 271.168831 71.796159 
L 275.844156 72.045662 
L 280.519481 72.270314 
L 285.194805 72.377018 
L 289.87013 72.537875 
L 294.545455 72.661499 
" clip-path="url(#p4b7e5372f2)" style="fill: none; stroke: #800080; stroke-opacity: 0.2; stroke-width: 1.5; stroke-linecap: square"/>
   </g>
   <g id="line2d_64">
    <path d="M 65.454545 79.749695 
L 70.12987 79.749695 
L 74.805195 80.177496 
L 79.480519 80.488536 
L 84.155844 80.705994 
L 88.831169 80.843646 
L 93.506494 80.263646 
L 98.181818 79.622047 
L 102.857143 79.895897 
L 107.532468 80.226038 
L 112.207792 80.550015 
L 116.883117 80.18 
L 121.558442 79.865143 
L 126.233766 79.196243 
L 130.909091 78.833479 
L 135.584416 78.339486 
L 140.25974 77.366027 
L 144.935065 76.320765 
L 149.61039 75.333869 
L 154.285714 74.604909 
L 158.961039 73.668031 
L 163.636364 73.746885 
L 168.311688 73.363494 
L 172.987013 73.223239 
L 177.662338 73.675226 
L 182.337662 74.165547 
L 187.012987 75.314898 
L 191.688312 75.849759 
L 196.363636 75.715454 
L 201.038961 75.013268 
L 205.714286 74.441821 
L 210.38961 73.031305 
L 215.064935 72.516602 
L 219.74026 72.390151 
L 224.415584 72.250561 
L 229.090909 72.387506 
L 233.766234 72.609548 
L 238.441558 72.692903 
L 243.116883 72.522169 
L 247.792208 72.697348 
L 252.467532 72.509159 
L 257.142857 72.83867 
L 261.818182 73.592605 
L 266.493506 74.200797 
L 271.168831 74.546186 
L 275.844156 74.771187 
L 280.519481 75.261825 
L 285.194805 75.714757 
L 289.87013 76.037853 
L 294.545455 76.411276 
" clip-path="url(#p4b7e5372f2)" style="fill: none; stroke: #800080; stroke-opacity: 0.2; stroke-width: 1.5; stroke-linecap: square"/>
   </g>
   <g id="line2d_65">
    <path d="M 65.454545 34.027437 
L 70.12987 34.027437 
L 74.805195 34.027437 
L 79.480519 34.027437 
L 84.155844 34.027437 
L 88.831169 33.688879 
L 93.506494 35.904997 
L 98.181818 37.341454 
L 102.857143 37.530028 
L 107.532468 38.44378 
L 112.207792 41.582028 
L 116.883117 45.459859 
L 121.558442 47.048981 
L 126.233766 47.246292 
L 130.909091 49.248694 
L 135.584416 50.911691 
L 140.25974 52.529833 
L 144.935065 54.322829 
L 149.61039 57.296112 
L 154.285714 59.525016 
L 158.961039 60.984138 
L 163.636364 62.559257 
L 168.311688 63.738508 
L 172.987013 64.837567 
L 177.662338 64.676731 
L 182.337662 64.862866 
L 187.012987 65.206414 
L 191.688312 66.203058 
L 196.363636 67.349892 
L 201.038961 68.116338 
L 205.714286 68.804859 
L 210.38961 69.51401 
L 215.064935 69.82955 
L 219.74026 69.812413 
L 224.415584 69.647073 
L 229.090909 70.193261 
L 233.766234 70.259971 
L 238.441558 70.955794 
L 243.116883 71.337092 
L 247.792208 71.188524 
L 252.467532 71.822243 
L 257.142857 72.001734 
L 261.818182 72.298776 
L 266.493506 72.634633 
L 271.168831 72.992345 
L 275.844156 73.937596 
L 280.519481 74.830406 
L 285.194805 75.722528 
L 289.87013 76.359791 
L 294.545455 76.869154 
" clip-path="url(#p4b7e5372f2)" style="fill: none; stroke: #800080; stroke-opacity: 0.2; stroke-width: 1.5; stroke-linecap: square"/>
   </g>
   <g id="line2d_66">
    <path d="M 65.454545 80.800869 
L 70.12987 80.800869 
L 74.805195 80.991835 
L 79.480519 81.275574 
L 84.155844 81.752499 
L 88.831169 81.893923 
L 93.506494 82.044031 
L 98.181818 82.040295 
L 102.857143 81.963959 
L 107.532468 81.63256 
L 112.207792 81.213768 
L 116.883117 80.702491 
L 121.558442 80.091789 
L 126.233766 79.428386 
L 130.909091 78.71284 
L 135.584416 77.951888 
L 140.25974 77.127693 
L 144.935065 76.39575 
L 149.61039 75.818372 
L 154.285714 75.255088 
L 158.961039 74.666606 
L 163.636364 73.938698 
L 168.311688 73.164666 
L 172.987013 72.54946 
L 177.662338 71.953348 
L 182.337662 71.724751 
L 187.012987 71.865663 
L 191.688312 72.349323 
L 196.363636 72.779751 
L 201.038961 73.08358 
L 205.714286 73.557562 
L 210.38961 73.862505 
L 215.064935 74.183179 
L 219.74026 74.535536 
L 224.415584 74.762369 
L 229.090909 74.992543 
L 233.766234 74.947852 
L 238.441558 75.183554 
L 243.116883 75.625289 
L 247.792208 75.939145 
L 252.467532 76.389047 
L 257.142857 76.885203 
L 261.818182 77.216227 
L 266.493506 77.407978 
L 271.168831 77.565418 
L 275.844156 77.728183 
L 280.519481 77.689424 
L 285.194805 78.077894 
L 289.87013 78.52138 
L 294.545455 78.803101 
" clip-path="url(#p4b7e5372f2)" style="fill: none; stroke: #800080; stroke-opacity: 0.2; stroke-width: 1.5; stroke-linecap: square"/>
   </g>
   <g id="line2d_67">
    <path d="M 65.454545 76.078102 
L 70.12987 76.078177 
L 74.805195 76.081179 
L 79.480519 76.083047 
L 84.155844 76.084177 
L 88.831169 75.960177 
L 93.506494 75.505207 
L 98.181818 75.107828 
L 102.857143 74.753758 
L 107.532468 74.467628 
L 112.207792 74.962791 
L 116.883117 75.354069 
L 121.558442 75.548167 
L 126.233766 75.034784 
L 130.909091 75.009206 
L 135.584416 75.013227 
L 140.25974 75.019419 
L 144.935065 75.318771 
L 149.61039 75.800959 
L 154.285714 76.192449 
L 158.961039 76.700689 
L 163.636364 76.892253 
L 168.311688 77.117019 
L 172.987013 77.229411 
L 177.662338 77.199108 
L 182.337662 77.252388 
L 187.012987 77.343342 
L 191.688312 77.558648 
L 196.363636 77.776749 
L 201.038961 78.074422 
L 205.714286 78.399977 
L 210.38961 78.658375 
L 215.064935 78.686849 
L 219.74026 78.672004 
L 224.415584 78.779041 
L 229.090909 78.935145 
L 233.766234 79.008807 
L 238.441558 79.187988 
L 243.116883 79.39296 
L 247.792208 79.553367 
L 252.467532 79.656389 
L 257.142857 80.048174 
L 261.818182 80.508326 
L 266.493506 80.810863 
L 271.168831 81.007845 
L 275.844156 81.141871 
L 280.519481 81.547525 
L 285.194805 81.739923 
L 289.87013 81.875636 
L 294.545455 81.936453 
" clip-path="url(#p4b7e5372f2)" style="fill: none; stroke: #800080; stroke-opacity: 0.2; stroke-width: 1.5; stroke-linecap: square"/>
   </g>
   <g id="line2d_68">
    <path d="M 65.454545 89.451223 
L 70.12987 89.424666 
L 74.805195 89.451206 
L 79.480519 89.285271 
L 84.155844 88.880954 
L 88.831169 88.255964 
L 93.506494 87.593401 
L 98.181818 87.079773 
L 102.857143 86.840244 
L 107.532468 86.550971 
L 112.207792 86.081618 
L 116.883117 85.314315 
L 121.558442 84.721251 
L 126.233766 84.30831 
L 130.909091 84.070485 
L 135.584416 84.129274 
L 140.25974 84.236962 
L 144.935065 84.536079 
L 149.61039 84.983697 
L 154.285714 85.111051 
L 158.961039 85.227638 
L 163.636364 85.123641 
L 168.311688 84.920631 
L 172.987013 84.698794 
L 177.662338 84.531634 
L 182.337662 84.528858 
L 187.012987 84.643324 
L 191.688312 85.160522 
L 196.363636 85.560914 
L 201.038961 85.843572 
L 205.714286 86.105249 
L 210.38961 86.133138 
L 215.064935 86.170546 
L 219.74026 86.268756 
L 224.415584 86.280778 
L 229.090909 86.464368 
L 233.766234 86.692362 
L 238.441558 86.987357 
L 243.116883 87.382267 
L 247.792208 87.645074 
L 252.467532 87.97801 
L 257.142857 88.302004 
L 261.818182 88.720697 
L 266.493506 89.135863 
L 271.168831 89.501911 
L 275.844156 89.796941 
L 280.519481 90.123201 
L 285.194805 90.444934 
L 289.87013 90.689116 
L 294.545455 90.838991 
" clip-path="url(#p4b7e5372f2)" style="fill: none; stroke: #800080; stroke-opacity: 0.2; stroke-width: 1.5; stroke-linecap: square"/>
   </g>
   <g id="line2d_69">
    <path d="M 65.454545 66.117755 
L 70.12987 67.216449 
L 74.805195 68.012746 
L 79.480519 68.51814 
L 84.155844 68.452518 
L 88.831169 68.687671 
L 93.506494 71.118262 
L 98.181818 73.423509 
L 102.857143 74.811347 
L 107.532468 75.608182 
L 112.207792 76.55005 
L 116.883117 77.483893 
L 121.558442 77.324561 
L 126.233766 76.766634 
L 130.909091 76.03765 
L 135.584416 75.074722 
L 140.25974 74.195939 
L 144.935065 72.629467 
L 149.61039 70.922088 
L 154.285714 69.376289 
L 158.961039 67.508382 
L 163.636364 65.57138 
L 168.311688 63.712023 
L 172.987013 62.518326 
L 177.662338 61.255231 
L 182.337662 61.051739 
L 187.012987 61.071873 
L 191.688312 61.671063 
L 196.363636 63.250696 
L 201.038961 64.768721 
L 205.714286 65.711933 
L 210.38961 66.8966 
L 215.064935 68.036163 
L 219.74026 69.12559 
L 224.415584 69.516851 
L 229.090909 69.593151 
L 233.766234 70.105337 
L 238.441558 70.48014 
L 243.116883 70.461732 
L 247.792208 70.500901 
L 252.467532 70.294252 
L 257.142857 69.947412 
L 261.818182 69.267388 
L 266.493506 69.508581 
L 271.168831 70.095347 
L 275.844156 71.635561 
L 280.519481 73.053889 
L 285.194805 74.133604 
L 289.87013 74.730044 
L 294.545455 75.095596 
" clip-path="url(#p4b7e5372f2)" style="fill: none; stroke: #800080; stroke-opacity: 0.2; stroke-width: 1.5; stroke-linecap: square"/>
   </g>
   <g id="line2d_70">
    <path d="M 65.454545 71.668713 
L 70.12987 71.299707 
L 74.805195 72.216308 
L 79.480519 72.09198 
L 84.155844 72.44193 
L 88.831169 72.665839 
L 93.506494 72.476891 
L 98.181818 72.598014 
L 102.857143 72.704715 
L 107.532468 72.48205 
L 112.207792 71.951347 
L 116.883117 71.853711 
L 121.558442 71.5006 
L 126.233766 70.848407 
L 130.909091 69.89125 
L 135.584416 69.099105 
L 140.25974 68.575335 
L 144.935065 68.070325 
L 149.61039 67.657308 
L 154.285714 66.952959 
L 158.961039 66.734352 
L 163.636364 66.892796 
L 168.311688 66.47522 
L 172.987013 65.843297 
L 177.662338 65.286588 
L 182.337662 64.863204 
L 187.012987 64.668754 
L 191.688312 64.407101 
L 196.363636 63.715871 
L 201.038961 62.583731 
L 205.714286 61.288931 
L 210.38961 60.571319 
L 215.064935 60.04746 
L 219.74026 59.3211 
L 224.415584 58.955684 
L 229.090909 59.204141 
L 233.766234 59.921271 
L 238.441558 60.637844 
L 243.116883 61.142256 
L 247.792208 61.341504 
L 252.467532 61.146113 
L 257.142857 60.482194 
L 261.818182 59.675698 
L 266.493506 60.217506 
L 271.168831 60.645197 
L 275.844156 60.882917 
L 280.519481 61.388335 
L 285.194805 61.48584 
L 289.87013 61.98796 
L 294.545455 62.195229 
" clip-path="url(#p4b7e5372f2)" style="fill: none; stroke: #800080; stroke-opacity: 0.2; stroke-width: 1.5; stroke-linecap: square"/>
   </g>
   <g id="patch_10">
    <path d="M 46 129.6 
L 46 21.6 
" style="fill: none; stroke: #000000; stroke-width: 0.8; stroke-linejoin: miter; stroke-linecap: square"/>
   </g>
   <g id="patch_11">
    <path d="M 54 137.6 
L 306 137.6 
" style="fill: none; stroke: #000000; stroke-width: 0.8; stroke-linejoin: miter; stroke-linecap: square"/>
   </g>
  </g>
 </g>
 <defs>
  <clipPath id="p40ab6012cf">
   <rect x="54" y="280.8" width="252" height="108"/>
  </clipPath>
  <clipPath id="pe433516aaa">
   <rect x="54" y="151.2" width="252" height="108"/>
  </clipPath>
  <clipPath id="p4b7e5372f2">
   <rect x="54" y="21.6" width="252" height="108"/>
  </clipPath>
 </defs>
</svg>
