<?xml version="1.0" encoding="utf-8" standalone="no"?>
<!DOCTYPE svg PUBLIC "-//W3C//DTD SVG 1.1//EN"
  "http://www.w3.org/Graphics/SVG/1.1/DTD/svg11.dtd">
<svg xmlns:xlink="http://www.w3.org/1999/xlink" width="360pt" height="432pt" viewBox="0 0 360 432" xmlns="http://www.w3.org/2000/svg" version="1.1">
 <metadata>
  <rdf:RDF xmlns:dc="http://purl.org/dc/elements/1.1/" xmlns:cc="http://creativecommons.org/ns#" xmlns:rdf="http://www.w3.org/1999/02/22-rdf-syntax-ns#">
   <cc:Work>
    <dc:type rdf:resource="http://purl.org/dc/dcmitype/StillImage"/>
    <dc:date>2024-09-16T16:20:50.382998</dc:date>
    <dc:format>image/svg+xml</dc:format>
    <dc:creator>
     <cc:Agent>
      <dc:title>Matplotlib v3.8.0, https://matplotlib.org/</dc:title>
     </cc:Agent>
    </dc:creator>
   </cc:Work>
  </rdf:RDF>
 </metadata>
 <defs>
  <style type="text/css">*{stroke-linejoin: round; stroke-linecap: butt}</style>
 </defs>
 <g id="figure_1">
  <g id="patch_1">
   <path d="M 0 432 
L 360 432 
L 360 0 
L 0 0 
z
" style="fill: #ffffff"/>
  </g>
  <g id="axes_1">
   <g id="patch_2">
    <path d="M 54 388.8 
L 306 388.8 
L 306 280.8 
L 54 280.8 
z
" style="fill: #ffffff"/>
   </g>
   <g id="PolyCollection_1">
    <defs>
     <path id="m06d2232be3" d="M 65.454545 -80.184614 
L 65.454545 -73.310717 
L 70.12987 -73.310717 
L 74.805195 -73.370437 
L 79.480519 -74.274234 
L 84.155844 -75.033492 
L 88.831169 -75.259753 
L 93.506494 -75.438048 
L 98.181818 -75.550138 
L 102.857143 -75.825785 
L 107.532468 -76.210425 
L 112.207792 -76.285712 
L 116.883117 -76.695446 
L 121.558442 -77.443012 
L 126.233766 -78.280325 
L 130.909091 -78.890078 
L 135.584416 -79.547813 
L 140.25974 -80.393408 
L 144.935065 -81.210049 
L 149.61039 -82.107015 
L 154.285714 -82.831584 
L 158.961039 -83.686929 
L 163.636364 -84.420742 
L 168.311688 -84.888534 
L 172.987013 -85.347505 
L 177.662338 -85.85055 
L 182.337662 -86.467097 
L 187.012987 -87.336409 
L 191.688312 -88.007712 
L 196.363636 -88.642862 
L 201.038961 -88.867467 
L 205.714286 -88.991931 
L 210.38961 -89.054486 
L 215.064935 -89.092594 
L 219.74026 -89.218828 
L 224.415584 -89.210435 
L 229.090909 -88.965679 
L 233.766234 -88.663869 
L 238.441558 -88.507219 
L 243.116883 -88.708852 
L 247.792208 -88.704245 
L 252.467532 -88.516766 
L 257.142857 -88.143734 
L 261.818182 -87.859524 
L 266.493506 -87.436245 
L 271.168831 -87.09004 
L 275.844156 -86.917347 
L 280.519481 -87.111906 
L 285.194805 -87.411851 
L 289.87013 -87.707453 
L 294.545455 -87.952068 
L 294.545455 -98.52041 
L 294.545455 -98.52041 
L 289.87013 -98.587413 
L 285.194805 -98.602944 
L 280.519481 -98.202972 
L 275.844156 -97.805691 
L 271.168831 -98.170212 
L 266.493506 -98.918359 
L 261.818182 -99.599982 
L 257.142857 -99.613218 
L 252.467532 -99.769582 
L 247.792208 -99.466161 
L 243.116883 -99.058124 
L 238.441558 -98.546231 
L 233.766234 -97.839029 
L 229.090909 -97.331791 
L 224.415584 -96.937767 
L 219.74026 -96.420438 
L 215.064935 -95.544898 
L 210.38961 -94.981811 
L 205.714286 -94.456219 
L 201.038961 -94.261459 
L 196.363636 -93.876961 
L 191.688312 -93.062981 
L 187.012987 -92.104912 
L 182.337662 -91.343726 
L 177.662338 -90.940178 
L 172.987013 -90.541686 
L 168.311688 -90.00976 
L 163.636364 -89.4568 
L 158.961039 -88.850729 
L 154.285714 -88.307043 
L 149.61039 -87.803377 
L 144.935065 -87.042948 
L 140.25974 -86.153412 
L 135.584416 -85.241847 
L 130.909091 -84.630017 
L 126.233766 -83.919636 
L 121.558442 -82.694732 
L 116.883117 -81.593867 
L 112.207792 -81.124447 
L 107.532468 -80.992583 
L 102.857143 -80.861124 
L 98.181818 -80.998835 
L 93.506494 -81.246757 
L 88.831169 -81.141676 
L 84.155844 -80.918144 
L 79.480519 -80.608945 
L 74.805195 -80.241408 
L 70.12987 -80.184614 
L 65.454545 -80.184614 
z
"/>
    </defs>
    <g clip-path="url(#pc0b62dfcda)">
     <use xlink:href="#m06d2232be3" x="0" y="432" style="fill: #b2b2b2; fill-opacity: 0.4"/>
    </g>
   </g>
   <g id="PolyCollection_2">
    <defs>
     <path id="m759a85f9da" d="M 65.454545 -79.029016 
L 65.454545 -76.320921 
L 70.12987 -76.320921 
L 74.805195 -76.334024 
L 79.480519 -77.333285 
L 84.155844 -78.150591 
L 88.831169 -78.207336 
L 93.506494 -78.243895 
L 98.181818 -77.935989 
L 102.857143 -78.003288 
L 107.532468 -78.330275 
L 112.207792 -78.380791 
L 116.883117 -78.66736 
L 121.558442 -79.179834 
L 126.233766 -79.599124 
L 130.909091 -79.724134 
L 135.584416 -79.750706 
L 140.25974 -79.931815 
L 144.935065 -80.155271 
L 149.61039 -80.49524 
L 154.285714 -80.582748 
L 158.961039 -80.889977 
L 163.636364 -81.226939 
L 168.311688 -81.246978 
L 172.987013 -81.506639 
L 177.662338 -81.77221 
L 182.337662 -82.136697 
L 187.012987 -82.594444 
L 191.688312 -82.858256 
L 196.363636 -83.073673 
L 201.038961 -83.066942 
L 205.714286 -82.859002 
L 210.38961 -82.701071 
L 215.064935 -82.607477 
L 219.74026 -82.685459 
L 224.415584 -82.808453 
L 229.090909 -82.873308 
L 233.766234 -82.839233 
L 238.441558 -82.860744 
L 243.116883 -83.035887 
L 247.792208 -83.01647 
L 252.467532 -82.889543 
L 257.142857 -82.694718 
L 261.818182 -82.677177 
L 266.493506 -82.55487 
L 271.168831 -82.370535 
L 275.844156 -82.314436 
L 280.519481 -82.629992 
L 285.194805 -82.9849 
L 289.87013 -83.228416 
L 294.545455 -83.308294 
L 294.545455 -92.639582 
L 294.545455 -92.639582 
L 289.87013 -92.772346 
L 285.194805 -92.690064 
L 280.519481 -92.227263 
L 275.844156 -91.707674 
L 271.168831 -91.802339 
L 266.493506 -92.178996 
L 261.818182 -92.507901 
L 257.142857 -92.422956 
L 252.467532 -92.770826 
L 247.792208 -92.557291 
L 243.116883 -92.219967 
L 238.441558 -91.839722 
L 233.766234 -91.399769 
L 229.090909 -90.865033 
L 224.415584 -90.379714 
L 219.74026 -90.100835 
L 215.064935 -89.519893 
L 210.38961 -89.257329 
L 205.714286 -88.959701 
L 201.038961 -89.058436 
L 196.363636 -89.072635 
L 191.688312 -88.796759 
L 187.012987 -88.32935 
L 182.337662 -87.790095 
L 177.662338 -87.55228 
L 172.987013 -87.255619 
L 168.311688 -86.884429 
L 163.636364 -86.446631 
L 158.961039 -85.951157 
L 154.285714 -85.575205 
L 149.61039 -85.382529 
L 144.935065 -85.117067 
L 140.25974 -84.403316 
L 135.584416 -83.527591 
L 130.909091 -82.870882 
L 126.233766 -82.484954 
L 121.558442 -81.632813 
L 116.883117 -80.859431 
L 112.207792 -80.720492 
L 107.532468 -80.834626 
L 102.857143 -80.239984 
L 98.181818 -80.071852 
L 93.506494 -80.276114 
L 88.831169 -80.291121 
L 84.155844 -80.318994 
L 79.480519 -79.685189 
L 74.805195 -79.06188 
L 70.12987 -79.029016 
L 65.454545 -79.029016 
z
"/>
    </defs>
    <g clip-path="url(#pc0b62dfcda)">
     <use xlink:href="#m759a85f9da" x="0" y="432" style="fill: #ff0000; fill-opacity: 0.4"/>
    </g>
   </g>
   <g id="PolyCollection_3">
    <defs>
     <path id="mf171b896c9" d="M 65.454545 -88.027662 
L 65.454545 -81.23271 
L 70.12987 -81.23271 
L 74.805195 -81.220327 
L 79.480519 -82.27069 
L 84.155844 -83.214 
L 88.831169 -83.244942 
L 93.506494 -83.367724 
L 98.181818 -83.728727 
L 102.857143 -84.215031 
L 107.532468 -84.849488 
L 112.207792 -84.999157 
L 116.883117 -85.355953 
L 121.558442 -86.025501 
L 126.233766 -86.722277 
L 130.909091 -87.024163 
L 135.584416 -87.399298 
L 140.25974 -87.957396 
L 144.935065 -88.593767 
L 149.61039 -89.228304 
L 154.285714 -89.674785 
L 158.961039 -90.336055 
L 163.636364 -90.844258 
L 168.311688 -91.132072 
L 172.987013 -91.345095 
L 177.662338 -91.592674 
L 182.337662 -92.127239 
L 187.012987 -92.903757 
L 191.688312 -93.49937 
L 196.363636 -94.030566 
L 201.038961 -94.23635 
L 205.714286 -94.269281 
L 210.38961 -94.078872 
L 215.064935 -93.736097 
L 219.74026 -93.467117 
L 224.415584 -93.188866 
L 229.090909 -92.771185 
L 233.766234 -92.167328 
L 238.441558 -91.567254 
L 243.116883 -91.357303 
L 247.792208 -91.062505 
L 252.467532 -90.8357 
L 257.142857 -90.503495 
L 261.818182 -90.327492 
L 266.493506 -90.060592 
L 271.168831 -89.724114 
L 275.844156 -89.594272 
L 280.519481 -89.821829 
L 285.194805 -90.158158 
L 289.87013 -90.152401 
L 294.545455 -90.096236 
L 294.545455 -98.651501 
L 294.545455 -98.651501 
L 289.87013 -98.921863 
L 285.194805 -98.93504 
L 280.519481 -98.364985 
L 275.844156 -97.951104 
L 271.168831 -98.28662 
L 266.493506 -99.084583 
L 261.818182 -99.875524 
L 257.142857 -100.076298 
L 252.467532 -100.662455 
L 247.792208 -100.664621 
L 243.116883 -100.692843 
L 238.441558 -100.855266 
L 233.766234 -100.808665 
L 229.090909 -100.667531 
L 224.415584 -100.465216 
L 219.74026 -100.289525 
L 215.064935 -99.913509 
L 210.38961 -99.748148 
L 205.714286 -99.505177 
L 201.038961 -99.611156 
L 196.363636 -99.549948 
L 191.688312 -99.115593 
L 187.012987 -98.382564 
L 182.337662 -97.668845 
L 177.662338 -97.322902 
L 172.987013 -97.133828 
L 168.311688 -96.635596 
L 163.636364 -95.859878 
L 158.961039 -94.944794 
L 154.285714 -94.02842 
L 149.61039 -93.498139 
L 144.935065 -92.912075 
L 140.25974 -92.086059 
L 135.584416 -91.367027 
L 130.909091 -91.032582 
L 126.233766 -90.636925 
L 121.558442 -89.676947 
L 116.883117 -88.870753 
L 112.207792 -88.6741 
L 107.532468 -88.672542 
L 102.857143 -88.306917 
L 98.181818 -88.361842 
L 93.506494 -88.320183 
L 88.831169 -88.223346 
L 84.155844 -88.165058 
L 79.480519 -88.086741 
L 74.805195 -88.015074 
L 70.12987 -88.027662 
L 65.454545 -88.027662 
z
"/>
    </defs>
    <g clip-path="url(#pc0b62dfcda)">
     <use xlink:href="#mf171b896c9" x="0" y="432" style="fill: #9400d3; fill-opacity: 0.4"/>
    </g>
   </g>
   <g id="PolyCollection_4">
    <defs>
     <path id="mf27b73243e" d="M 65.454545 -92.578579 
L 65.454545 -85.325039 
L 70.12987 -85.325039 
L 74.805195 -85.395881 
L 79.480519 -86.439035 
L 84.155844 -87.331992 
L 88.831169 -87.068372 
L 93.506494 -87.009392 
L 98.181818 -87.08601 
L 102.857143 -87.558096 
L 107.532468 -88.070537 
L 112.207792 -88.053637 
L 116.883117 -88.345101 
L 121.558442 -88.974857 
L 126.233766 -89.679112 
L 130.909091 -90.125083 
L 135.584416 -90.5583 
L 140.25974 -91.157008 
L 144.935065 -91.600464 
L 149.61039 -92.114545 
L 154.285714 -92.224826 
L 158.961039 -92.448231 
L 163.636364 -92.760889 
L 168.311688 -92.928962 
L 172.987013 -93.139635 
L 177.662338 -93.38042 
L 182.337662 -93.789253 
L 187.012987 -94.357062 
L 191.688312 -94.846788 
L 196.363636 -95.351255 
L 201.038961 -95.453083 
L 205.714286 -95.548683 
L 210.38961 -95.635307 
L 215.064935 -95.469556 
L 219.74026 -95.362574 
L 224.415584 -95.262159 
L 229.090909 -95.095954 
L 233.766234 -94.781585 
L 238.441558 -94.292944 
L 243.116883 -94.163502 
L 247.792208 -94.032821 
L 252.467532 -93.849441 
L 257.142857 -93.502373 
L 261.818182 -93.251915 
L 266.493506 -92.74736 
L 271.168831 -92.314495 
L 275.844156 -92.106237 
L 280.519481 -92.152234 
L 285.194805 -92.339732 
L 289.87013 -92.509281 
L 294.545455 -92.671215 
L 294.545455 -104.920199 
L 294.545455 -104.920199 
L 289.87013 -104.847778 
L 285.194805 -104.969426 
L 280.519481 -104.94673 
L 275.844156 -105.006248 
L 271.168831 -105.694033 
L 266.493506 -106.70346 
L 261.818182 -107.698366 
L 257.142857 -108.073753 
L 252.467532 -108.744349 
L 247.792208 -108.633613 
L 243.116883 -108.388427 
L 238.441558 -108.146236 
L 233.766234 -107.63442 
L 229.090909 -106.902145 
L 224.415584 -106.251107 
L 219.74026 -105.627718 
L 215.064935 -104.892096 
L 210.38961 -104.465712 
L 205.714286 -104.055796 
L 201.038961 -104.062377 
L 196.363636 -104.164477 
L 191.688312 -103.863615 
L 187.012987 -103.287761 
L 182.337662 -102.893123 
L 177.662338 -102.821508 
L 172.987013 -102.626127 
L 168.311688 -102.243195 
L 163.636364 -101.688136 
L 158.961039 -100.964096 
L 154.285714 -100.557344 
L 149.61039 -100.195471 
L 144.935065 -99.607202 
L 140.25974 -99.026521 
L 135.584416 -98.204289 
L 130.909091 -97.83159 
L 126.233766 -97.185136 
L 121.558442 -95.823725 
L 116.883117 -94.669696 
L 112.207792 -94.228643 
L 107.532468 -94.108604 
L 102.857143 -93.62435 
L 98.181818 -93.32519 
L 93.506494 -93.278379 
L 88.831169 -93.062405 
L 84.155844 -93.210563 
L 79.480519 -92.985732 
L 74.805195 -92.658743 
L 70.12987 -92.578579 
L 65.454545 -92.578579 
z
"/>
    </defs>
    <g clip-path="url(#pc0b62dfcda)">
     <use xlink:href="#mf27b73243e" x="0" y="432" style="fill: #ffa500; fill-opacity: 0.4"/>
    </g>
   </g>
   <g id="matplotlib.axis_1">
    <g id="xtick_1">
     <g id="line2d_1">
      <defs>
       <path id="m8d52c5a8d5" d="M 0 0 
L 0 3.5 
" style="stroke: #000000; stroke-width: 0.8"/>
      </defs>
      <g>
       <use xlink:href="#m8d52c5a8d5" x="65.454545" y="396.8" style="stroke: #000000; stroke-width: 0.8"/>
      </g>
     </g>
     <g id="text_1">
      <!-- 0 -->
      <g transform="translate(62.273295 411.398438) scale(0.1 -0.1)">
       <defs>
        <path id="DejaVuSans-30" d="M 2034 4250 
Q 1547 4250 1301 3770 
Q 1056 3291 1056 2328 
Q 1056 1369 1301 889 
Q 1547 409 2034 409 
Q 2525 409 2770 889 
Q 3016 1369 3016 2328 
Q 3016 3291 2770 3770 
Q 2525 4250 2034 4250 
z
M 2034 4750 
Q 2819 4750 3233 4129 
Q 3647 3509 3647 2328 
Q 3647 1150 3233 529 
Q 2819 -91 2034 -91 
Q 1250 -91 836 529 
Q 422 1150 422 2328 
Q 422 3509 836 4129 
Q 1250 4750 2034 4750 
z
" transform="scale(0.015625)"/>
       </defs>
       <use xlink:href="#DejaVuSans-30"/>
      </g>
     </g>
    </g>
    <g id="xtick_2">
     <g id="line2d_2">
      <g>
       <use xlink:href="#m8d52c5a8d5" x="122.727273" y="396.8" style="stroke: #000000; stroke-width: 0.8"/>
      </g>
     </g>
     <g id="text_2">
      <!-- 1 -->
      <g transform="translate(119.546023 411.398438) scale(0.1 -0.1)">
       <defs>
        <path id="DejaVuSans-31" d="M 794 531 
L 1825 531 
L 1825 4091 
L 703 3866 
L 703 4441 
L 1819 4666 
L 2450 4666 
L 2450 531 
L 3481 531 
L 3481 0 
L 794 0 
L 794 531 
z
" transform="scale(0.015625)"/>
       </defs>
       <use xlink:href="#DejaVuSans-31"/>
      </g>
     </g>
    </g>
    <g id="xtick_3">
     <g id="line2d_3">
      <g>
       <use xlink:href="#m8d52c5a8d5" x="180" y="396.8" style="stroke: #000000; stroke-width: 0.8"/>
      </g>
     </g>
     <g id="text_3">
      <!-- 2 -->
      <g transform="translate(176.81875 411.398438) scale(0.1 -0.1)">
       <defs>
        <path id="DejaVuSans-32" d="M 1228 531 
L 3431 531 
L 3431 0 
L 469 0 
L 469 531 
Q 828 903 1448 1529 
Q 2069 2156 2228 2338 
Q 2531 2678 2651 2914 
Q 2772 3150 2772 3378 
Q 2772 3750 2511 3984 
Q 2250 4219 1831 4219 
Q 1534 4219 1204 4116 
Q 875 4013 500 3803 
L 500 4441 
Q 881 4594 1212 4672 
Q 1544 4750 1819 4750 
Q 2544 4750 2975 4387 
Q 3406 4025 3406 3419 
Q 3406 3131 3298 2873 
Q 3191 2616 2906 2266 
Q 2828 2175 2409 1742 
Q 1991 1309 1228 531 
z
" transform="scale(0.015625)"/>
       </defs>
       <use xlink:href="#DejaVuSans-32"/>
      </g>
     </g>
    </g>
    <g id="xtick_4">
     <g id="line2d_4">
      <g>
       <use xlink:href="#m8d52c5a8d5" x="237.272727" y="396.8" style="stroke: #000000; stroke-width: 0.8"/>
      </g>
     </g>
     <g id="text_4">
      <!-- 3 -->
      <g transform="translate(234.091477 411.398438) scale(0.1 -0.1)">
       <defs>
        <path id="DejaVuSans-33" d="M 2597 2516 
Q 3050 2419 3304 2112 
Q 3559 1806 3559 1356 
Q 3559 666 3084 287 
Q 2609 -91 1734 -91 
Q 1441 -91 1130 -33 
Q 819 25 488 141 
L 488 750 
Q 750 597 1062 519 
Q 1375 441 1716 441 
Q 2309 441 2620 675 
Q 2931 909 2931 1356 
Q 2931 1769 2642 2001 
Q 2353 2234 1838 2234 
L 1294 2234 
L 1294 2753 
L 1863 2753 
Q 2328 2753 2575 2939 
Q 2822 3125 2822 3475 
Q 2822 3834 2567 4026 
Q 2313 4219 1838 4219 
Q 1578 4219 1281 4162 
Q 984 4106 628 3988 
L 628 4550 
Q 988 4650 1302 4700 
Q 1616 4750 1894 4750 
Q 2613 4750 3031 4423 
Q 3450 4097 3450 3541 
Q 3450 3153 3228 2886 
Q 3006 2619 2597 2516 
z
" transform="scale(0.015625)"/>
       </defs>
       <use xlink:href="#DejaVuSans-33"/>
      </g>
     </g>
    </g>
    <g id="xtick_5">
     <g id="line2d_5">
      <g>
       <use xlink:href="#m8d52c5a8d5" x="294.545455" y="396.8" style="stroke: #000000; stroke-width: 0.8"/>
      </g>
     </g>
     <g id="text_5">
      <!-- 4 -->
      <g transform="translate(291.364205 411.398438) scale(0.1 -0.1)">
       <defs>
        <path id="DejaVuSans-34" d="M 2419 4116 
L 825 1625 
L 2419 1625 
L 2419 4116 
z
M 2253 4666 
L 3047 4666 
L 3047 1625 
L 3713 1625 
L 3713 1100 
L 3047 1100 
L 3047 0 
L 2419 0 
L 2419 1100 
L 313 1100 
L 313 1709 
L 2253 4666 
z
" transform="scale(0.015625)"/>
       </defs>
       <use xlink:href="#DejaVuSans-34"/>
      </g>
     </g>
    </g>
    <g id="text_6">
     <!-- relative distance from ROI center ($\sigma$) -->
     <g transform="translate(69.72 426.59625) scale(0.12 -0.12)">
      <defs>
       <path id="DejaVuSans-72" d="M 2631 2963 
Q 2534 3019 2420 3045 
Q 2306 3072 2169 3072 
Q 1681 3072 1420 2755 
Q 1159 2438 1159 1844 
L 1159 0 
L 581 0 
L 581 3500 
L 1159 3500 
L 1159 2956 
Q 1341 3275 1631 3429 
Q 1922 3584 2338 3584 
Q 2397 3584 2469 3576 
Q 2541 3569 2628 3553 
L 2631 2963 
z
" transform="scale(0.015625)"/>
       <path id="DejaVuSans-65" d="M 3597 1894 
L 3597 1613 
L 953 1613 
Q 991 1019 1311 708 
Q 1631 397 2203 397 
Q 2534 397 2845 478 
Q 3156 559 3463 722 
L 3463 178 
Q 3153 47 2828 -22 
Q 2503 -91 2169 -91 
Q 1331 -91 842 396 
Q 353 884 353 1716 
Q 353 2575 817 3079 
Q 1281 3584 2069 3584 
Q 2775 3584 3186 3129 
Q 3597 2675 3597 1894 
z
M 3022 2063 
Q 3016 2534 2758 2815 
Q 2500 3097 2075 3097 
Q 1594 3097 1305 2825 
Q 1016 2553 972 2059 
L 3022 2063 
z
" transform="scale(0.015625)"/>
       <path id="DejaVuSans-6c" d="M 603 4863 
L 1178 4863 
L 1178 0 
L 603 0 
L 603 4863 
z
" transform="scale(0.015625)"/>
       <path id="DejaVuSans-61" d="M 2194 1759 
Q 1497 1759 1228 1600 
Q 959 1441 959 1056 
Q 959 750 1161 570 
Q 1363 391 1709 391 
Q 2188 391 2477 730 
Q 2766 1069 2766 1631 
L 2766 1759 
L 2194 1759 
z
M 3341 1997 
L 3341 0 
L 2766 0 
L 2766 531 
Q 2569 213 2275 61 
Q 1981 -91 1556 -91 
Q 1019 -91 701 211 
Q 384 513 384 1019 
Q 384 1609 779 1909 
Q 1175 2209 1959 2209 
L 2766 2209 
L 2766 2266 
Q 2766 2663 2505 2880 
Q 2244 3097 1772 3097 
Q 1472 3097 1187 3025 
Q 903 2953 641 2809 
L 641 3341 
Q 956 3463 1253 3523 
Q 1550 3584 1831 3584 
Q 2591 3584 2966 3190 
Q 3341 2797 3341 1997 
z
" transform="scale(0.015625)"/>
       <path id="DejaVuSans-74" d="M 1172 4494 
L 1172 3500 
L 2356 3500 
L 2356 3053 
L 1172 3053 
L 1172 1153 
Q 1172 725 1289 603 
Q 1406 481 1766 481 
L 2356 481 
L 2356 0 
L 1766 0 
Q 1100 0 847 248 
Q 594 497 594 1153 
L 594 3053 
L 172 3053 
L 172 3500 
L 594 3500 
L 594 4494 
L 1172 4494 
z
" transform="scale(0.015625)"/>
       <path id="DejaVuSans-69" d="M 603 3500 
L 1178 3500 
L 1178 0 
L 603 0 
L 603 3500 
z
M 603 4863 
L 1178 4863 
L 1178 4134 
L 603 4134 
L 603 4863 
z
" transform="scale(0.015625)"/>
       <path id="DejaVuSans-76" d="M 191 3500 
L 800 3500 
L 1894 563 
L 2988 3500 
L 3597 3500 
L 2284 0 
L 1503 0 
L 191 3500 
z
" transform="scale(0.015625)"/>
       <path id="DejaVuSans-20" transform="scale(0.015625)"/>
       <path id="DejaVuSans-64" d="M 2906 2969 
L 2906 4863 
L 3481 4863 
L 3481 0 
L 2906 0 
L 2906 525 
Q 2725 213 2448 61 
Q 2172 -91 1784 -91 
Q 1150 -91 751 415 
Q 353 922 353 1747 
Q 353 2572 751 3078 
Q 1150 3584 1784 3584 
Q 2172 3584 2448 3432 
Q 2725 3281 2906 2969 
z
M 947 1747 
Q 947 1113 1208 752 
Q 1469 391 1925 391 
Q 2381 391 2643 752 
Q 2906 1113 2906 1747 
Q 2906 2381 2643 2742 
Q 2381 3103 1925 3103 
Q 1469 3103 1208 2742 
Q 947 2381 947 1747 
z
" transform="scale(0.015625)"/>
       <path id="DejaVuSans-73" d="M 2834 3397 
L 2834 2853 
Q 2591 2978 2328 3040 
Q 2066 3103 1784 3103 
Q 1356 3103 1142 2972 
Q 928 2841 928 2578 
Q 928 2378 1081 2264 
Q 1234 2150 1697 2047 
L 1894 2003 
Q 2506 1872 2764 1633 
Q 3022 1394 3022 966 
Q 3022 478 2636 193 
Q 2250 -91 1575 -91 
Q 1294 -91 989 -36 
Q 684 19 347 128 
L 347 722 
Q 666 556 975 473 
Q 1284 391 1588 391 
Q 1994 391 2212 530 
Q 2431 669 2431 922 
Q 2431 1156 2273 1281 
Q 2116 1406 1581 1522 
L 1381 1569 
Q 847 1681 609 1914 
Q 372 2147 372 2553 
Q 372 3047 722 3315 
Q 1072 3584 1716 3584 
Q 2034 3584 2315 3537 
Q 2597 3491 2834 3397 
z
" transform="scale(0.015625)"/>
       <path id="DejaVuSans-6e" d="M 3513 2113 
L 3513 0 
L 2938 0 
L 2938 2094 
Q 2938 2591 2744 2837 
Q 2550 3084 2163 3084 
Q 1697 3084 1428 2787 
Q 1159 2491 1159 1978 
L 1159 0 
L 581 0 
L 581 3500 
L 1159 3500 
L 1159 2956 
Q 1366 3272 1645 3428 
Q 1925 3584 2291 3584 
Q 2894 3584 3203 3211 
Q 3513 2838 3513 2113 
z
" transform="scale(0.015625)"/>
       <path id="DejaVuSans-63" d="M 3122 3366 
L 3122 2828 
Q 2878 2963 2633 3030 
Q 2388 3097 2138 3097 
Q 1578 3097 1268 2742 
Q 959 2388 959 1747 
Q 959 1106 1268 751 
Q 1578 397 2138 397 
Q 2388 397 2633 464 
Q 2878 531 3122 666 
L 3122 134 
Q 2881 22 2623 -34 
Q 2366 -91 2075 -91 
Q 1284 -91 818 406 
Q 353 903 353 1747 
Q 353 2603 823 3093 
Q 1294 3584 2113 3584 
Q 2378 3584 2631 3529 
Q 2884 3475 3122 3366 
z
" transform="scale(0.015625)"/>
       <path id="DejaVuSans-66" d="M 2375 4863 
L 2375 4384 
L 1825 4384 
Q 1516 4384 1395 4259 
Q 1275 4134 1275 3809 
L 1275 3500 
L 2222 3500 
L 2222 3053 
L 1275 3053 
L 1275 0 
L 697 0 
L 697 3053 
L 147 3053 
L 147 3500 
L 697 3500 
L 697 3744 
Q 697 4328 969 4595 
Q 1241 4863 1831 4863 
L 2375 4863 
z
" transform="scale(0.015625)"/>
       <path id="DejaVuSans-6f" d="M 1959 3097 
Q 1497 3097 1228 2736 
Q 959 2375 959 1747 
Q 959 1119 1226 758 
Q 1494 397 1959 397 
Q 2419 397 2687 759 
Q 2956 1122 2956 1747 
Q 2956 2369 2687 2733 
Q 2419 3097 1959 3097 
z
M 1959 3584 
Q 2709 3584 3137 3096 
Q 3566 2609 3566 1747 
Q 3566 888 3137 398 
Q 2709 -91 1959 -91 
Q 1206 -91 779 398 
Q 353 888 353 1747 
Q 353 2609 779 3096 
Q 1206 3584 1959 3584 
z
" transform="scale(0.015625)"/>
       <path id="DejaVuSans-6d" d="M 3328 2828 
Q 3544 3216 3844 3400 
Q 4144 3584 4550 3584 
Q 5097 3584 5394 3201 
Q 5691 2819 5691 2113 
L 5691 0 
L 5113 0 
L 5113 2094 
Q 5113 2597 4934 2840 
Q 4756 3084 4391 3084 
Q 3944 3084 3684 2787 
Q 3425 2491 3425 1978 
L 3425 0 
L 2847 0 
L 2847 2094 
Q 2847 2600 2669 2842 
Q 2491 3084 2119 3084 
Q 1678 3084 1418 2786 
Q 1159 2488 1159 1978 
L 1159 0 
L 581 0 
L 581 3500 
L 1159 3500 
L 1159 2956 
Q 1356 3278 1631 3431 
Q 1906 3584 2284 3584 
Q 2666 3584 2933 3390 
Q 3200 3197 3328 2828 
z
" transform="scale(0.015625)"/>
       <path id="DejaVuSans-52" d="M 2841 2188 
Q 3044 2119 3236 1894 
Q 3428 1669 3622 1275 
L 4263 0 
L 3584 0 
L 2988 1197 
Q 2756 1666 2539 1819 
Q 2322 1972 1947 1972 
L 1259 1972 
L 1259 0 
L 628 0 
L 628 4666 
L 2053 4666 
Q 2853 4666 3247 4331 
Q 3641 3997 3641 3322 
Q 3641 2881 3436 2590 
Q 3231 2300 2841 2188 
z
M 1259 4147 
L 1259 2491 
L 2053 2491 
Q 2509 2491 2742 2702 
Q 2975 2913 2975 3322 
Q 2975 3731 2742 3939 
Q 2509 4147 2053 4147 
L 1259 4147 
z
" transform="scale(0.015625)"/>
       <path id="DejaVuSans-4f" d="M 2522 4238 
Q 1834 4238 1429 3725 
Q 1025 3213 1025 2328 
Q 1025 1447 1429 934 
Q 1834 422 2522 422 
Q 3209 422 3611 934 
Q 4013 1447 4013 2328 
Q 4013 3213 3611 3725 
Q 3209 4238 2522 4238 
z
M 2522 4750 
Q 3503 4750 4090 4092 
Q 4678 3434 4678 2328 
Q 4678 1225 4090 567 
Q 3503 -91 2522 -91 
Q 1538 -91 948 565 
Q 359 1222 359 2328 
Q 359 3434 948 4092 
Q 1538 4750 2522 4750 
z
" transform="scale(0.015625)"/>
       <path id="DejaVuSans-49" d="M 628 4666 
L 1259 4666 
L 1259 0 
L 628 0 
L 628 4666 
z
" transform="scale(0.015625)"/>
       <path id="DejaVuSans-28" d="M 1984 4856 
Q 1566 4138 1362 3434 
Q 1159 2731 1159 2009 
Q 1159 1288 1364 580 
Q 1569 -128 1984 -844 
L 1484 -844 
Q 1016 -109 783 600 
Q 550 1309 550 2009 
Q 550 2706 781 3412 
Q 1013 4119 1484 4856 
L 1984 4856 
z
" transform="scale(0.015625)"/>
       <path id="DejaVuSans-Oblique-3c3" d="M 2219 3044 
Q 1744 3044 1422 2700 
Q 1081 2341 969 1747 
Q 844 1119 1044 756 
Q 1241 397 1706 397 
Q 2166 397 2503 759 
Q 2844 1122 2966 1747 
Q 3075 2319 2881 2700 
Q 2700 3044 2219 3044 
z
M 2309 3503 
L 4219 3500 
L 4106 2925 
L 3463 2925 
Q 3706 2438 3575 1747 
Q 3406 888 2884 400 
Q 2359 -91 1609 -91 
Q 856 -91 525 400 
Q 194 888 363 1747 
Q 528 2609 1050 3097 
Q 1484 3503 2309 3503 
z
" transform="scale(0.015625)"/>
       <path id="DejaVuSans-29" d="M 513 4856 
L 1013 4856 
Q 1481 4119 1714 3412 
Q 1947 2706 1947 2009 
Q 1947 1309 1714 600 
Q 1481 -109 1013 -844 
L 513 -844 
Q 928 -128 1133 580 
Q 1338 1288 1338 2009 
Q 1338 2731 1133 3434 
Q 928 4138 513 4856 
z
" transform="scale(0.015625)"/>
      </defs>
      <use xlink:href="#DejaVuSans-72" transform="translate(0 0.015625)"/>
      <use xlink:href="#DejaVuSans-65" transform="translate(41.113281 0.015625)"/>
      <use xlink:href="#DejaVuSans-6c" transform="translate(102.636719 0.015625)"/>
      <use xlink:href="#DejaVuSans-61" transform="translate(130.419922 0.015625)"/>
      <use xlink:href="#DejaVuSans-74" transform="translate(191.699219 0.015625)"/>
      <use xlink:href="#DejaVuSans-69" transform="translate(230.908203 0.015625)"/>
      <use xlink:href="#DejaVuSans-76" transform="translate(258.691406 0.015625)"/>
      <use xlink:href="#DejaVuSans-65" transform="translate(317.871094 0.015625)"/>
      <use xlink:href="#DejaVuSans-20" transform="translate(379.394531 0.015625)"/>
      <use xlink:href="#DejaVuSans-64" transform="translate(411.181641 0.015625)"/>
      <use xlink:href="#DejaVuSans-69" transform="translate(474.658203 0.015625)"/>
      <use xlink:href="#DejaVuSans-73" transform="translate(502.441406 0.015625)"/>
      <use xlink:href="#DejaVuSans-74" transform="translate(554.541016 0.015625)"/>
      <use xlink:href="#DejaVuSans-61" transform="translate(593.75 0.015625)"/>
      <use xlink:href="#DejaVuSans-6e" transform="translate(655.029297 0.015625)"/>
      <use xlink:href="#DejaVuSans-63" transform="translate(718.408203 0.015625)"/>
      <use xlink:href="#DejaVuSans-65" transform="translate(773.388672 0.015625)"/>
      <use xlink:href="#DejaVuSans-20" transform="translate(834.912109 0.015625)"/>
      <use xlink:href="#DejaVuSans-66" transform="translate(866.699219 0.015625)"/>
      <use xlink:href="#DejaVuSans-72" transform="translate(901.904297 0.015625)"/>
      <use xlink:href="#DejaVuSans-6f" transform="translate(943.017578 0.015625)"/>
      <use xlink:href="#DejaVuSans-6d" transform="translate(1004.199219 0.015625)"/>
      <use xlink:href="#DejaVuSans-20" transform="translate(1101.611328 0.015625)"/>
      <use xlink:href="#DejaVuSans-52" transform="translate(1133.398438 0.015625)"/>
      <use xlink:href="#DejaVuSans-4f" transform="translate(1202.880859 0.015625)"/>
      <use xlink:href="#DejaVuSans-49" transform="translate(1281.591797 0.015625)"/>
      <use xlink:href="#DejaVuSans-20" transform="translate(1311.083984 0.015625)"/>
      <use xlink:href="#DejaVuSans-63" transform="translate(1342.871094 0.015625)"/>
      <use xlink:href="#DejaVuSans-65" transform="translate(1397.851562 0.015625)"/>
      <use xlink:href="#DejaVuSans-6e" transform="translate(1459.375 0.015625)"/>
      <use xlink:href="#DejaVuSans-74" transform="translate(1522.753906 0.015625)"/>
      <use xlink:href="#DejaVuSans-65" transform="translate(1561.962891 0.015625)"/>
      <use xlink:href="#DejaVuSans-72" transform="translate(1623.486328 0.015625)"/>
      <use xlink:href="#DejaVuSans-20" transform="translate(1664.599609 0.015625)"/>
      <use xlink:href="#DejaVuSans-28" transform="translate(1696.386719 0.015625)"/>
      <use xlink:href="#DejaVuSans-Oblique-3c3" transform="translate(1735.400391 0.015625)"/>
      <use xlink:href="#DejaVuSans-29" transform="translate(1798.779297 0.015625)"/>
     </g>
    </g>
   </g>
   <g id="matplotlib.axis_2">
    <g id="ytick_1">
     <g id="line2d_6">
      <defs>
       <path id="m464d9e7721" d="M 0 0 
L -3.5 0 
" style="stroke: #000000; stroke-width: 0.8"/>
      </defs>
      <g>
       <use xlink:href="#m464d9e7721" x="46" y="388.8" style="stroke: #000000; stroke-width: 0.8"/>
      </g>
     </g>
     <g id="text_7">
      <!-- 0 -->
      <g transform="translate(32.6375 392.599219) scale(0.1 -0.1)">
       <use xlink:href="#DejaVuSans-30"/>
      </g>
     </g>
    </g>
    <g id="ytick_2">
     <g id="line2d_7">
      <g>
       <use xlink:href="#m464d9e7721" x="46" y="352.8" style="stroke: #000000; stroke-width: 0.8"/>
      </g>
     </g>
     <g id="text_8">
      <!-- 2 -->
      <g transform="translate(32.6375 356.599219) scale(0.1 -0.1)">
       <use xlink:href="#DejaVuSans-32"/>
      </g>
     </g>
    </g>
    <g id="ytick_3">
     <g id="line2d_8">
      <g>
       <use xlink:href="#m464d9e7721" x="46" y="316.8" style="stroke: #000000; stroke-width: 0.8"/>
      </g>
     </g>
     <g id="text_9">
      <!-- 4 -->
      <g transform="translate(32.6375 320.599219) scale(0.1 -0.1)">
       <use xlink:href="#DejaVuSans-34"/>
      </g>
     </g>
    </g>
    <g id="ytick_4">
     <g id="line2d_9">
      <g>
       <use xlink:href="#m464d9e7721" x="46" y="280.8" style="stroke: #000000; stroke-width: 0.8"/>
      </g>
     </g>
     <g id="text_10">
      <!-- 6 -->
      <g transform="translate(32.6375 284.599219) scale(0.1 -0.1)">
       <defs>
        <path id="DejaVuSans-36" d="M 2113 2584 
Q 1688 2584 1439 2293 
Q 1191 2003 1191 1497 
Q 1191 994 1439 701 
Q 1688 409 2113 409 
Q 2538 409 2786 701 
Q 3034 994 3034 1497 
Q 3034 2003 2786 2293 
Q 2538 2584 2113 2584 
z
M 3366 4563 
L 3366 3988 
Q 3128 4100 2886 4159 
Q 2644 4219 2406 4219 
Q 1781 4219 1451 3797 
Q 1122 3375 1075 2522 
Q 1259 2794 1537 2939 
Q 1816 3084 2150 3084 
Q 2853 3084 3261 2657 
Q 3669 2231 3669 1497 
Q 3669 778 3244 343 
Q 2819 -91 2113 -91 
Q 1303 -91 875 529 
Q 447 1150 447 2328 
Q 447 3434 972 4092 
Q 1497 4750 2381 4750 
Q 2619 4750 2861 4703 
Q 3103 4656 3366 4563 
z
" transform="scale(0.015625)"/>
       </defs>
       <use xlink:href="#DejaVuSans-36"/>
      </g>
     </g>
    </g>
    <g id="text_11">
     <!-- BOLD % change -->
     <g transform="translate(26.141875 383.094375) rotate(-90) scale(0.12 -0.12)">
      <defs>
       <path id="DejaVuSans-42" d="M 1259 2228 
L 1259 519 
L 2272 519 
Q 2781 519 3026 730 
Q 3272 941 3272 1375 
Q 3272 1813 3026 2020 
Q 2781 2228 2272 2228 
L 1259 2228 
z
M 1259 4147 
L 1259 2741 
L 2194 2741 
Q 2656 2741 2882 2914 
Q 3109 3088 3109 3444 
Q 3109 3797 2882 3972 
Q 2656 4147 2194 4147 
L 1259 4147 
z
M 628 4666 
L 2241 4666 
Q 2963 4666 3353 4366 
Q 3744 4066 3744 3513 
Q 3744 3084 3544 2831 
Q 3344 2578 2956 2516 
Q 3422 2416 3680 2098 
Q 3938 1781 3938 1306 
Q 3938 681 3513 340 
Q 3088 0 2303 0 
L 628 0 
L 628 4666 
z
" transform="scale(0.015625)"/>
       <path id="DejaVuSans-4c" d="M 628 4666 
L 1259 4666 
L 1259 531 
L 3531 531 
L 3531 0 
L 628 0 
L 628 4666 
z
" transform="scale(0.015625)"/>
       <path id="DejaVuSans-44" d="M 1259 4147 
L 1259 519 
L 2022 519 
Q 2988 519 3436 956 
Q 3884 1394 3884 2338 
Q 3884 3275 3436 3711 
Q 2988 4147 2022 4147 
L 1259 4147 
z
M 628 4666 
L 1925 4666 
Q 3281 4666 3915 4102 
Q 4550 3538 4550 2338 
Q 4550 1131 3912 565 
Q 3275 0 1925 0 
L 628 0 
L 628 4666 
z
" transform="scale(0.015625)"/>
       <path id="DejaVuSans-25" d="M 4653 2053 
Q 4381 2053 4226 1822 
Q 4072 1591 4072 1178 
Q 4072 772 4226 539 
Q 4381 306 4653 306 
Q 4919 306 5073 539 
Q 5228 772 5228 1178 
Q 5228 1588 5073 1820 
Q 4919 2053 4653 2053 
z
M 4653 2450 
Q 5147 2450 5437 2106 
Q 5728 1763 5728 1178 
Q 5728 594 5436 251 
Q 5144 -91 4653 -91 
Q 4153 -91 3862 251 
Q 3572 594 3572 1178 
Q 3572 1766 3864 2108 
Q 4156 2450 4653 2450 
z
M 1428 4353 
Q 1159 4353 1004 4120 
Q 850 3888 850 3481 
Q 850 3069 1003 2837 
Q 1156 2606 1428 2606 
Q 1700 2606 1854 2837 
Q 2009 3069 2009 3481 
Q 2009 3884 1853 4118 
Q 1697 4353 1428 4353 
z
M 4250 4750 
L 4750 4750 
L 1831 -91 
L 1331 -91 
L 4250 4750 
z
M 1428 4750 
Q 1922 4750 2215 4408 
Q 2509 4066 2509 3481 
Q 2509 2891 2217 2550 
Q 1925 2209 1428 2209 
Q 931 2209 642 2551 
Q 353 2894 353 3481 
Q 353 4063 643 4406 
Q 934 4750 1428 4750 
z
" transform="scale(0.015625)"/>
       <path id="DejaVuSans-68" d="M 3513 2113 
L 3513 0 
L 2938 0 
L 2938 2094 
Q 2938 2591 2744 2837 
Q 2550 3084 2163 3084 
Q 1697 3084 1428 2787 
Q 1159 2491 1159 1978 
L 1159 0 
L 581 0 
L 581 4863 
L 1159 4863 
L 1159 2956 
Q 1366 3272 1645 3428 
Q 1925 3584 2291 3584 
Q 2894 3584 3203 3211 
Q 3513 2838 3513 2113 
z
" transform="scale(0.015625)"/>
       <path id="DejaVuSans-67" d="M 2906 1791 
Q 2906 2416 2648 2759 
Q 2391 3103 1925 3103 
Q 1463 3103 1205 2759 
Q 947 2416 947 1791 
Q 947 1169 1205 825 
Q 1463 481 1925 481 
Q 2391 481 2648 825 
Q 2906 1169 2906 1791 
z
M 3481 434 
Q 3481 -459 3084 -895 
Q 2688 -1331 1869 -1331 
Q 1566 -1331 1297 -1286 
Q 1028 -1241 775 -1147 
L 775 -588 
Q 1028 -725 1275 -790 
Q 1522 -856 1778 -856 
Q 2344 -856 2625 -561 
Q 2906 -266 2906 331 
L 2906 616 
Q 2728 306 2450 153 
Q 2172 0 1784 0 
Q 1141 0 747 490 
Q 353 981 353 1791 
Q 353 2603 747 3093 
Q 1141 3584 1784 3584 
Q 2172 3584 2450 3431 
Q 2728 3278 2906 2969 
L 2906 3500 
L 3481 3500 
L 3481 434 
z
" transform="scale(0.015625)"/>
      </defs>
      <use xlink:href="#DejaVuSans-42"/>
      <use xlink:href="#DejaVuSans-4f" x="66.853516"/>
      <use xlink:href="#DejaVuSans-4c" x="145.564453"/>
      <use xlink:href="#DejaVuSans-44" x="201.277344"/>
      <use xlink:href="#DejaVuSans-20" x="278.279297"/>
      <use xlink:href="#DejaVuSans-25" x="310.066406"/>
      <use xlink:href="#DejaVuSans-20" x="405.085938"/>
      <use xlink:href="#DejaVuSans-63" x="436.873047"/>
      <use xlink:href="#DejaVuSans-68" x="491.853516"/>
      <use xlink:href="#DejaVuSans-61" x="555.232422"/>
      <use xlink:href="#DejaVuSans-6e" x="616.511719"/>
      <use xlink:href="#DejaVuSans-67" x="679.890625"/>
      <use xlink:href="#DejaVuSans-65" x="743.367188"/>
     </g>
    </g>
   </g>
   <g id="line2d_10">
    <path d="M 180 388.8 
L 180 280.8 
" clip-path="url(#pc0b62dfcda)" style="fill: none; stroke-dasharray: 5.55,2.4; stroke-dashoffset: 0; stroke: #4c4c4c; stroke-width: 1.5"/>
   </g>
   <g id="line2d_11">
    <path d="M 65.454545 355.252334 
L 70.12987 355.252334 
L 74.805195 355.194077 
L 79.480519 354.55841 
L 84.155844 354.024182 
L 88.831169 353.799285 
L 93.506494 353.657597 
L 98.181818 353.725514 
L 102.857143 353.656546 
L 107.532468 353.398496 
L 112.207792 353.29492 
L 116.883117 352.855344 
L 121.558442 351.931128 
L 126.233766 350.900019 
L 130.909091 350.239952 
L 135.584416 349.60517 
L 140.25974 348.72659 
L 144.935065 347.873502 
L 149.61039 347.044804 
L 154.285714 346.430686 
L 158.961039 345.731171 
L 163.636364 345.061229 
L 168.311688 344.550853 
L 172.987013 344.055405 
L 177.662338 343.604636 
L 182.337662 343.094588 
L 187.012987 342.279339 
L 191.688312 341.464654 
L 196.363636 340.740088 
L 201.038961 340.435537 
L 205.714286 340.275925 
L 210.38961 339.981852 
L 215.064935 339.681254 
L 219.74026 339.180367 
L 224.415584 338.925899 
L 229.090909 338.851265 
L 233.766234 338.748551 
L 238.441558 338.473275 
L 243.116883 338.116512 
L 247.792208 337.914797 
L 252.467532 337.856826 
L 257.142857 338.121524 
L 261.818182 338.270247 
L 266.493506 338.822698 
L 271.168831 339.369874 
L 275.844156 339.638481 
L 280.519481 339.342561 
L 285.194805 338.992602 
L 289.87013 338.852567 
L 294.545455 338.763761 
" clip-path="url(#pc0b62dfcda)" style="fill: none; stroke: #b2b2b2; stroke-width: 1.5; stroke-linecap: square"/>
   </g>
   <g id="line2d_12">
    <path d="M 180 388.8 
L 180 280.8 
" clip-path="url(#pc0b62dfcda)" style="fill: none; stroke-dasharray: 5.55,2.4; stroke-dashoffset: 0; stroke: #4c4c4c; stroke-width: 1.5"/>
   </g>
   <g id="line2d_13">
    <path d="M 65.454545 354.325031 
L 70.12987 354.325031 
L 74.805195 354.302048 
L 79.480519 353.490763 
L 84.155844 352.765207 
L 88.831169 352.750772 
L 93.506494 352.739995 
L 98.181818 352.99608 
L 102.857143 352.878364 
L 107.532468 352.417549 
L 112.207792 352.449359 
L 116.883117 352.236604 
L 121.558442 351.593676 
L 126.233766 350.957961 
L 130.909091 350.702492 
L 135.584416 350.360851 
L 140.25974 349.832434 
L 144.935065 349.363831 
L 149.61039 349.061116 
L 154.285714 348.921023 
L 158.961039 348.579433 
L 163.636364 348.163215 
L 168.311688 347.934297 
L 172.987013 347.618871 
L 177.662338 347.337755 
L 182.337662 347.036604 
L 187.012987 346.538103 
L 191.688312 346.172492 
L 196.363636 345.926846 
L 201.038961 345.937311 
L 205.714286 346.090648 
L 210.38961 346.0208 
L 215.064935 345.936315 
L 219.74026 345.606853 
L 224.415584 345.405917 
L 229.090909 345.13083 
L 233.766234 344.880499 
L 238.441558 344.649767 
L 243.116883 344.372073 
L 247.792208 344.21312 
L 252.467532 344.169816 
L 257.142857 344.441163 
L 261.818182 344.407461 
L 266.493506 344.633067 
L 271.168831 344.913563 
L 275.844156 344.988945 
L 280.519481 344.571373 
L 285.194805 344.162518 
L 289.87013 343.999619 
L 294.545455 344.026062 
" clip-path="url(#pc0b62dfcda)" style="fill: none; stroke: #ff0000; stroke-width: 1.5; stroke-linecap: square"/>
   </g>
   <g id="line2d_14">
    <path d="M 180 388.8 
L 180 280.8 
" clip-path="url(#pc0b62dfcda)" style="fill: none; stroke-dasharray: 5.55,2.4; stroke-dashoffset: 0; stroke: #4c4c4c; stroke-width: 1.5"/>
   </g>
   <g id="line2d_15">
    <path d="M 65.454545 347.369814 
L 70.12987 347.369814 
L 74.805195 347.3823 
L 79.480519 346.821284 
L 84.155844 346.310471 
L 88.831169 346.265856 
L 93.506494 346.156046 
L 98.181818 345.954716 
L 102.857143 345.739026 
L 107.532468 345.238985 
L 112.207792 345.163372 
L 116.883117 344.886647 
L 121.558442 344.148776 
L 126.233766 343.320399 
L 130.909091 342.971628 
L 135.584416 342.616838 
L 140.25974 341.978273 
L 144.935065 341.247079 
L 149.61039 340.636778 
L 154.285714 340.148398 
L 158.961039 339.359576 
L 163.636364 338.647932 
L 168.311688 338.116166 
L 172.987013 337.760539 
L 177.662338 337.542212 
L 182.337662 337.101958 
L 187.012987 336.356839 
L 191.688312 335.692519 
L 196.363636 335.209743 
L 201.038961 335.076247 
L 205.714286 335.112771 
L 210.38961 335.08649 
L 215.064935 335.175197 
L 219.74026 335.121679 
L 224.415584 335.172959 
L 229.090909 335.280642 
L 233.766234 335.512004 
L 238.441558 335.78874 
L 243.116883 335.974927 
L 247.792208 336.136437 
L 252.467532 336.250922 
L 257.142857 336.710103 
L 261.818182 336.898492 
L 266.493506 337.427412 
L 271.168831 337.994633 
L 275.844156 338.227312 
L 280.519481 337.906593 
L 285.194805 337.453401 
L 289.87013 337.462868 
L 294.545455 337.626131 
" clip-path="url(#pc0b62dfcda)" style="fill: none; stroke: #9400d3; stroke-width: 1.5; stroke-linecap: square"/>
   </g>
   <g id="line2d_16">
    <path d="M 180 388.8 
L 180 280.8 
" clip-path="url(#pc0b62dfcda)" style="fill: none; stroke-dasharray: 5.55,2.4; stroke-dashoffset: 0; stroke: #4c4c4c; stroke-width: 1.5"/>
   </g>
   <g id="line2d_17">
    <path d="M 65.454545 343.048191 
L 70.12987 343.048191 
L 74.805195 342.972688 
L 79.480519 342.287617 
L 84.155844 341.728722 
L 88.831169 341.934611 
L 93.506494 341.856115 
L 98.181818 341.7944 
L 102.857143 341.408777 
L 107.532468 340.91043 
L 112.207792 340.85886 
L 116.883117 340.492602 
L 121.558442 339.600709 
L 126.233766 338.567876 
L 130.909091 338.021663 
L 135.584416 337.618706 
L 140.25974 336.908236 
L 144.935065 336.396167 
L 149.61039 335.844992 
L 154.285714 335.608915 
L 158.961039 335.293837 
L 163.636364 334.775488 
L 168.311688 334.413921 
L 172.987013 334.117119 
L 177.662338 333.899036 
L 182.337662 333.658812 
L 187.012987 333.177588 
L 191.688312 332.644799 
L 196.363636 332.242134 
L 201.038961 332.24227 
L 205.714286 332.197761 
L 210.38961 331.94949 
L 215.064935 331.819174 
L 219.74026 331.504854 
L 224.415584 331.243367 
L 229.090909 331.00095 
L 233.766234 330.791997 
L 238.441558 330.78041 
L 243.116883 330.724035 
L 247.792208 330.666783 
L 252.467532 330.703105 
L 257.142857 331.211937 
L 261.818182 331.52486 
L 266.493506 332.27459 
L 271.168831 332.995736 
L 275.844156 333.443758 
L 280.519481 333.450518 
L 285.194805 333.345421 
L 289.87013 333.32147 
L 294.545455 333.204293 
" clip-path="url(#pc0b62dfcda)" style="fill: none; stroke: #ffa500; stroke-width: 1.5; stroke-linecap: square"/>
   </g>
   <g id="patch_3">
    <path d="M 46 388.8 
L 46 280.8 
" style="fill: none; stroke: #000000; stroke-width: 0.8; stroke-linejoin: miter; stroke-linecap: square"/>
   </g>
   <g id="patch_4">
    <path d="M 54 396.8 
L 306 396.8 
" style="fill: none; stroke: #000000; stroke-width: 0.8; stroke-linejoin: miter; stroke-linecap: square"/>
   </g>
  </g>
  <g id="axes_2">
   <g id="patch_5">
    <path d="M 54 259.2 
L 306 259.2 
L 306 151.2 
L 54 151.2 
z
" style="fill: #ffffff"/>
   </g>
   <g id="PolyCollection_5">
    <defs>
     <path id="m0a025d1295" d="M 65.454545 -221.574925 
L 65.454545 -216.171792 
L 70.12987 -216.070994 
L 74.805195 -216.027114 
L 79.480519 -215.960317 
L 84.155844 -216.30401 
L 88.831169 -216.73503 
L 93.506494 -217.329578 
L 98.181818 -217.825598 
L 102.857143 -217.728938 
L 107.532468 -217.681714 
L 112.207792 -218.010676 
L 116.883117 -218.088735 
L 121.558442 -218.647088 
L 126.233766 -219.825006 
L 130.909091 -220.807454 
L 135.584416 -221.716194 
L 140.25974 -222.914836 
L 144.935065 -223.726307 
L 149.61039 -224.542355 
L 154.285714 -225.25376 
L 158.961039 -225.933369 
L 163.636364 -226.497287 
L 168.311688 -227.087432 
L 172.987013 -227.69631 
L 177.662338 -228.090034 
L 182.337662 -228.428455 
L 187.012987 -228.876017 
L 191.688312 -229.184033 
L 196.363636 -229.700742 
L 201.038961 -230.004568 
L 205.714286 -230.297764 
L 210.38961 -230.733299 
L 215.064935 -230.740537 
L 219.74026 -230.815689 
L 224.415584 -231.281786 
L 229.090909 -231.402627 
L 233.766234 -231.470129 
L 238.441558 -231.229035 
L 243.116883 -230.851069 
L 247.792208 -230.59465 
L 252.467532 -230.412614 
L 257.142857 -230.020419 
L 261.818182 -229.619003 
L 266.493506 -229.246316 
L 271.168831 -228.990783 
L 275.844156 -228.898576 
L 280.519481 -228.778474 
L 285.194805 -228.536953 
L 289.87013 -228.275292 
L 294.545455 -228.241902 
L 294.545455 -245.451863 
L 294.545455 -245.451863 
L 289.87013 -246.110308 
L 285.194805 -247.168886 
L 280.519481 -248.480396 
L 275.844156 -250.059269 
L 271.168831 -251.877434 
L 266.493506 -253.649488 
L 261.818182 -255.23639 
L 257.142857 -256.834194 
L 252.467532 -258.02327 
L 247.792208 -257.340131 
L 243.116883 -255.907811 
L 238.441558 -254.486964 
L 233.766234 -252.808874 
L 229.090909 -251.007413 
L 224.415584 -248.946567 
L 219.74026 -246.533451 
L 215.064935 -245.222826 
L 210.38961 -244.080131 
L 205.714286 -242.625684 
L 201.038961 -241.634358 
L 196.363636 -240.81452 
L 191.688312 -239.94158 
L 187.012987 -239.586472 
L 182.337662 -239.258117 
L 177.662338 -239.018235 
L 172.987013 -238.81628 
L 168.311688 -238.401205 
L 163.636364 -236.984499 
L 158.961039 -235.595469 
L 154.285714 -234.382092 
L 149.61039 -232.686933 
L 144.935065 -230.626307 
L 140.25974 -228.421517 
L 135.584416 -226.002411 
L 130.909091 -224.550197 
L 126.233766 -223.09454 
L 121.558442 -221.765666 
L 116.883117 -221.258043 
L 112.207792 -221.300907 
L 107.532468 -221.393826 
L 102.857143 -221.273459 
L 98.181818 -221.203465 
L 93.506494 -221.027987 
L 88.831169 -221.139712 
L 84.155844 -220.920919 
L 79.480519 -220.943225 
L 74.805195 -221.482646 
L 70.12987 -221.499739 
L 65.454545 -221.574925 
z
"/>
    </defs>
    <g clip-path="url(#pe14ca78056)">
     <use xlink:href="#m0a025d1295" x="0" y="432" style="fill: #b2b2b2; fill-opacity: 0.4"/>
    </g>
   </g>
   <g id="PolyCollection_6">
    <defs>
     <path id="mde221eb350" d="M 65.454545 -226.600122 
L 65.454545 -215.828086 
L 70.12987 -215.654376 
L 74.805195 -215.496242 
L 79.480519 -215.228778 
L 84.155844 -215.148063 
L 88.831169 -215.497462 
L 93.506494 -215.86424 
L 98.181818 -216.212463 
L 102.857143 -216.006582 
L 107.532468 -215.925829 
L 112.207792 -216.117785 
L 116.883117 -216.175904 
L 121.558442 -216.401686 
L 126.233766 -216.921091 
L 130.909091 -217.393797 
L 135.584416 -217.809392 
L 140.25974 -218.486495 
L 144.935065 -218.926788 
L 149.61039 -219.393994 
L 154.285714 -219.952526 
L 158.961039 -220.371029 
L 163.636364 -220.549489 
L 168.311688 -220.693388 
L 172.987013 -220.784025 
L 177.662338 -220.739179 
L 182.337662 -220.717509 
L 187.012987 -220.848423 
L 191.688312 -221.002901 
L 196.363636 -221.201272 
L 201.038961 -221.276798 
L 205.714286 -221.379696 
L 210.38961 -221.670298 
L 215.064935 -221.643178 
L 219.74026 -221.778433 
L 224.415584 -222.099732 
L 229.090909 -222.20698 
L 233.766234 -222.256223 
L 238.441558 -222.10684 
L 243.116883 -222.032258 
L 247.792208 -222.09695 
L 252.467532 -222.110424 
L 257.142857 -221.767484 
L 261.818182 -221.304348 
L 266.493506 -220.956101 
L 271.168831 -220.768518 
L 275.844156 -220.696321 
L 280.519481 -220.458262 
L 285.194805 -220.16212 
L 289.87013 -219.892787 
L 294.545455 -219.811283 
L 294.545455 -236.930862 
L 294.545455 -236.930862 
L 289.87013 -237.38287 
L 285.194805 -238.043284 
L 280.519481 -238.919916 
L 275.844156 -240.149717 
L 271.168831 -241.580992 
L 266.493506 -242.895501 
L 261.818182 -243.932574 
L 257.142857 -245.193914 
L 252.467532 -246.236368 
L 247.792208 -245.711475 
L 243.116883 -244.640249 
L 238.441558 -243.738094 
L 233.766234 -242.738814 
L 229.090909 -241.763553 
L 224.415584 -240.460838 
L 219.74026 -238.829273 
L 215.064935 -238.109793 
L 210.38961 -237.684097 
L 205.714286 -236.788905 
L 201.038961 -236.253659 
L 196.363636 -235.783642 
L 191.688312 -235.34615 
L 187.012987 -235.208124 
L 182.337662 -235.118275 
L 177.662338 -235.237975 
L 172.987013 -235.452069 
L 168.311688 -235.518798 
L 163.636364 -234.813819 
L 158.961039 -234.17867 
L 154.285714 -233.513559 
L 149.61039 -232.323636 
L 144.935065 -230.922433 
L 140.25974 -229.479741 
L 135.584416 -227.930184 
L 130.909091 -226.89026 
L 126.233766 -226.034282 
L 121.558442 -225.332028 
L 116.883117 -225.216791 
L 112.207792 -225.266046 
L 107.532468 -225.470792 
L 102.857143 -225.797143 
L 98.181818 -226.314301 
L 93.506494 -226.37688 
L 88.831169 -226.419228 
L 84.155844 -226.032244 
L 79.480519 -226.024786 
L 74.805195 -226.562242 
L 70.12987 -226.566023 
L 65.454545 -226.600122 
z
"/>
    </defs>
    <g clip-path="url(#pe14ca78056)">
     <use xlink:href="#mde221eb350" x="0" y="432" style="fill: #ff0000; fill-opacity: 0.4"/>
    </g>
   </g>
   <g id="PolyCollection_7">
    <defs>
     <path id="m225c430609" d="M 65.454545 -236.019371 
L 65.454545 -227.967914 
L 70.12987 -227.86921 
L 74.805195 -227.81804 
L 79.480519 -227.673309 
L 84.155844 -227.690351 
L 88.831169 -227.927306 
L 93.506494 -228.46271 
L 98.181818 -229.041194 
L 102.857143 -228.761924 
L 107.532468 -228.647632 
L 112.207792 -228.921812 
L 116.883117 -228.973268 
L 121.558442 -229.333823 
L 126.233766 -230.080819 
L 130.909091 -230.701663 
L 135.584416 -231.412366 
L 140.25974 -232.385756 
L 144.935065 -232.970567 
L 149.61039 -233.378231 
L 154.285714 -233.759348 
L 158.961039 -234.131505 
L 163.636364 -234.352437 
L 168.311688 -234.708095 
L 172.987013 -235.080921 
L 177.662338 -235.345697 
L 182.337662 -235.595385 
L 187.012987 -235.753627 
L 191.688312 -235.906225 
L 196.363636 -236.201336 
L 201.038961 -236.237255 
L 205.714286 -236.134902 
L 210.38961 -236.144271 
L 215.064935 -235.822896 
L 219.74026 -235.578669 
L 224.415584 -235.551765 
L 229.090909 -235.371613 
L 233.766234 -235.266811 
L 238.441558 -234.861477 
L 243.116883 -234.43943 
L 247.792208 -234.166409 
L 252.467532 -233.945821 
L 257.142857 -233.380758 
L 261.818182 -232.709287 
L 266.493506 -232.218609 
L 271.168831 -231.918647 
L 275.844156 -231.761683 
L 280.519481 -231.517413 
L 285.194805 -231.20079 
L 289.87013 -230.951064 
L 294.545455 -230.86458 
L 294.545455 -245.176385 
L 294.545455 -245.176385 
L 289.87013 -245.782039 
L 285.194805 -246.643834 
L 280.519481 -247.815072 
L 275.844156 -249.430916 
L 271.168831 -251.394985 
L 266.493506 -253.412609 
L 261.818182 -255.139985 
L 257.142857 -257.301936 
L 252.467532 -259.084903 
L 247.792208 -258.783254 
L 243.116883 -257.702138 
L 238.441558 -256.568516 
L 233.766234 -255.430822 
L 229.090909 -254.247839 
L 224.415584 -252.889716 
L 219.74026 -251.197547 
L 215.064935 -250.436518 
L 210.38961 -249.903452 
L 205.714286 -249.043916 
L 201.038961 -248.59191 
L 196.363636 -248.092951 
L 191.688312 -247.419425 
L 187.012987 -247.1248 
L 182.337662 -246.982325 
L 177.662338 -246.940072 
L 172.987013 -246.944161 
L 168.311688 -246.861189 
L 163.636364 -245.982331 
L 158.961039 -245.110285 
L 154.285714 -244.287953 
L 149.61039 -242.991034 
L 144.935065 -241.592351 
L 140.25974 -239.931888 
L 135.584416 -237.894472 
L 130.909091 -236.464529 
L 126.233766 -235.281871 
L 121.558442 -234.319849 
L 116.883117 -234.071604 
L 112.207792 -234.212505 
L 107.532468 -234.39738 
L 102.857143 -234.403161 
L 98.181818 -234.602657 
L 93.506494 -234.584026 
L 88.831169 -234.84277 
L 84.155844 -234.864998 
L 79.480519 -235.168049 
L 74.805195 -235.947393 
L 70.12987 -235.962913 
L 65.454545 -236.019371 
z
"/>
    </defs>
    <g clip-path="url(#pe14ca78056)">
     <use xlink:href="#m225c430609" x="0" y="432" style="fill: #9400d3; fill-opacity: 0.4"/>
    </g>
   </g>
   <g id="PolyCollection_8">
    <defs>
     <path id="m9d5877201a" d="M 65.454545 -243.949402 
L 65.454545 -234.353587 
L 70.12987 -234.20302 
L 74.805195 -234.162337 
L 79.480519 -233.945552 
L 84.155844 -233.928873 
L 88.831169 -234.230368 
L 93.506494 -234.528837 
L 98.181818 -234.633826 
L 102.857143 -234.078186 
L 107.532468 -233.74601 
L 112.207792 -233.918582 
L 116.883117 -234.030757 
L 121.558442 -234.265148 
L 126.233766 -235.050966 
L 130.909091 -235.753164 
L 135.584416 -236.319552 
L 140.25974 -237.066978 
L 144.935065 -237.369065 
L 149.61039 -237.625289 
L 154.285714 -237.770047 
L 158.961039 -238.062487 
L 163.636364 -238.327075 
L 168.311688 -238.666058 
L 172.987013 -239.00475 
L 177.662338 -239.311476 
L 182.337662 -239.493812 
L 187.012987 -239.644561 
L 191.688312 -239.697588 
L 196.363636 -239.954918 
L 201.038961 -240.030871 
L 205.714286 -239.924585 
L 210.38961 -240.009468 
L 215.064935 -239.652974 
L 219.74026 -239.245879 
L 224.415584 -239.165785 
L 229.090909 -238.955715 
L 233.766234 -238.729787 
L 238.441558 -238.26986 
L 243.116883 -237.800581 
L 247.792208 -237.521883 
L 252.467532 -237.144 
L 257.142857 -236.479058 
L 261.818182 -235.772603 
L 266.493506 -235.26096 
L 271.168831 -234.85729 
L 275.844156 -234.636469 
L 280.519481 -234.312903 
L 285.194805 -233.986171 
L 289.87013 -233.764191 
L 294.545455 -233.782201 
L 294.545455 -253.318655 
L 294.545455 -253.318655 
L 289.87013 -253.999553 
L 285.194805 -255.211304 
L 280.519481 -257.012062 
L 275.844156 -259.2532 
L 271.168831 -261.722387 
L 266.493506 -264.122671 
L 261.818182 -265.999683 
L 257.142857 -268.116898 
L 252.467532 -269.757385 
L 247.792208 -269.358411 
L 243.116883 -268.105997 
L 238.441558 -266.668097 
L 233.766234 -265.178539 
L 229.090909 -263.717903 
L 224.415584 -261.856841 
L 219.74026 -259.657213 
L 215.064935 -258.633535 
L 210.38961 -257.819901 
L 205.714286 -256.519438 
L 201.038961 -255.864186 
L 196.363636 -255.29984 
L 191.688312 -254.681255 
L 187.012987 -254.588999 
L 182.337662 -254.52322 
L 177.662338 -254.472219 
L 172.987013 -254.404598 
L 168.311688 -254.300079 
L 163.636364 -253.034575 
L 158.961039 -251.750169 
L 154.285714 -250.728146 
L 149.61039 -249.185545 
L 144.935065 -247.397355 
L 140.25974 -245.529114 
L 135.584416 -242.996516 
L 130.909091 -241.448161 
L 126.233766 -240.194173 
L 121.558442 -239.164361 
L 116.883117 -239.379747 
L 112.207792 -239.752473 
L 107.532468 -240.083039 
L 102.857143 -240.722614 
L 98.181818 -241.756668 
L 93.506494 -242.466469 
L 88.831169 -243.021201 
L 84.155844 -242.965129 
L 79.480519 -243.127087 
L 74.805195 -243.782064 
L 70.12987 -243.811582 
L 65.454545 -243.949402 
z
"/>
    </defs>
    <g clip-path="url(#pe14ca78056)">
     <use xlink:href="#m9d5877201a" x="0" y="432" style="fill: #ffa500; fill-opacity: 0.4"/>
    </g>
   </g>
   <g id="matplotlib.axis_3">
    <g id="xtick_6">
     <g id="line2d_18">
      <g>
       <use xlink:href="#m8d52c5a8d5" x="65.454545" y="267.2" style="stroke: #000000; stroke-width: 0.8"/>
      </g>
     </g>
    </g>
    <g id="xtick_7">
     <g id="line2d_19">
      <g>
       <use xlink:href="#m8d52c5a8d5" x="122.727273" y="267.2" style="stroke: #000000; stroke-width: 0.8"/>
      </g>
     </g>
    </g>
    <g id="xtick_8">
     <g id="line2d_20">
      <g>
       <use xlink:href="#m8d52c5a8d5" x="180" y="267.2" style="stroke: #000000; stroke-width: 0.8"/>
      </g>
     </g>
    </g>
    <g id="xtick_9">
     <g id="line2d_21">
      <g>
       <use xlink:href="#m8d52c5a8d5" x="237.272727" y="267.2" style="stroke: #000000; stroke-width: 0.8"/>
      </g>
     </g>
    </g>
    <g id="xtick_10">
     <g id="line2d_22">
      <g>
       <use xlink:href="#m8d52c5a8d5" x="294.545455" y="267.2" style="stroke: #000000; stroke-width: 0.8"/>
      </g>
     </g>
    </g>
   </g>
   <g id="matplotlib.axis_4">
    <g id="ytick_5">
     <g id="line2d_23">
      <g>
       <use xlink:href="#m464d9e7721" x="46" y="259.2" style="stroke: #000000; stroke-width: 0.8"/>
      </g>
     </g>
     <g id="text_12">
      <!-- 0 -->
      <g transform="translate(32.6375 262.999219) scale(0.1 -0.1)">
       <use xlink:href="#DejaVuSans-30"/>
      </g>
     </g>
    </g>
    <g id="ytick_6">
     <g id="line2d_24">
      <g>
       <use xlink:href="#m464d9e7721" x="46" y="223.2" style="stroke: #000000; stroke-width: 0.8"/>
      </g>
     </g>
     <g id="text_13">
      <!-- 2 -->
      <g transform="translate(32.6375 226.999219) scale(0.1 -0.1)">
       <use xlink:href="#DejaVuSans-32"/>
      </g>
     </g>
    </g>
    <g id="ytick_7">
     <g id="line2d_25">
      <g>
       <use xlink:href="#m464d9e7721" x="46" y="187.2" style="stroke: #000000; stroke-width: 0.8"/>
      </g>
     </g>
     <g id="text_14">
      <!-- 4 -->
      <g transform="translate(32.6375 190.999219) scale(0.1 -0.1)">
       <use xlink:href="#DejaVuSans-34"/>
      </g>
     </g>
    </g>
    <g id="ytick_8">
     <g id="line2d_26">
      <g>
       <use xlink:href="#m464d9e7721" x="46" y="151.2" style="stroke: #000000; stroke-width: 0.8"/>
      </g>
     </g>
     <g id="text_15">
      <!-- 6 -->
      <g transform="translate(32.6375 154.999219) scale(0.1 -0.1)">
       <use xlink:href="#DejaVuSans-36"/>
      </g>
     </g>
    </g>
    <g id="text_16">
     <!-- BOLD % change -->
     <g transform="translate(26.141875 253.494375) rotate(-90) scale(0.12 -0.12)">
      <use xlink:href="#DejaVuSans-42"/>
      <use xlink:href="#DejaVuSans-4f" x="66.853516"/>
      <use xlink:href="#DejaVuSans-4c" x="145.564453"/>
      <use xlink:href="#DejaVuSans-44" x="201.277344"/>
      <use xlink:href="#DejaVuSans-20" x="278.279297"/>
      <use xlink:href="#DejaVuSans-25" x="310.066406"/>
      <use xlink:href="#DejaVuSans-20" x="405.085938"/>
      <use xlink:href="#DejaVuSans-63" x="436.873047"/>
      <use xlink:href="#DejaVuSans-68" x="491.853516"/>
      <use xlink:href="#DejaVuSans-61" x="555.232422"/>
      <use xlink:href="#DejaVuSans-6e" x="616.511719"/>
      <use xlink:href="#DejaVuSans-67" x="679.890625"/>
      <use xlink:href="#DejaVuSans-65" x="743.367188"/>
     </g>
    </g>
   </g>
   <g id="line2d_27">
    <path d="M 180 259.2 
L 180 151.2 
" clip-path="url(#pe14ca78056)" style="fill: none; stroke-dasharray: 5.55,2.4; stroke-dashoffset: 0; stroke: #4c4c4c; stroke-width: 1.5"/>
   </g>
   <g id="line2d_28">
    <path d="M 65.454545 213.126642 
L 70.12987 213.214634 
L 74.805195 213.24512 
L 79.480519 213.548229 
L 84.155844 213.387535 
L 88.831169 213.062629 
L 93.506494 212.821217 
L 98.181818 212.485468 
L 102.857143 212.498801 
L 107.532468 212.46223 
L 112.207792 212.344208 
L 116.883117 212.326611 
L 121.558442 211.793623 
L 126.233766 210.540227 
L 130.909091 209.321175 
L 135.584416 208.140698 
L 140.25974 206.331824 
L 144.935065 204.823693 
L 149.61039 203.385356 
L 154.285714 202.182074 
L 158.961039 201.235581 
L 163.636364 200.259107 
L 168.311688 199.255681 
L 172.987013 198.743705 
L 177.662338 198.445865 
L 182.337662 198.156714 
L 187.012987 197.768755 
L 191.688312 197.437194 
L 196.363636 196.742369 
L 201.038961 196.180537 
L 205.714286 195.538276 
L 210.38961 194.593285 
L 215.064935 194.018319 
L 219.74026 193.32543 
L 224.415584 191.885823 
L 229.090909 190.79498 
L 233.766234 189.860499 
L 238.441558 189.142 
L 243.116883 188.62056 
L 247.792208 188.032609 
L 252.467532 187.782058 
L 257.142857 188.572694 
L 261.818182 189.572304 
L 266.493506 190.552098 
L 271.168831 191.565891 
L 275.844156 192.521077 
L 280.519481 193.370565 
L 285.194805 194.147081 
L 289.87013 194.8072 
L 294.545455 195.153118 
" clip-path="url(#pe14ca78056)" style="fill: none; stroke: #b2b2b2; stroke-width: 1.5; stroke-linecap: square"/>
   </g>
   <g id="line2d_29">
    <path d="M 180 259.2 
L 180 151.2 
" clip-path="url(#pe14ca78056)" style="fill: none; stroke-dasharray: 5.55,2.4; stroke-dashoffset: 0; stroke: #4c4c4c; stroke-width: 1.5"/>
   </g>
   <g id="line2d_30">
    <path d="M 65.454545 210.785896 
L 70.12987 210.889801 
L 74.805195 210.970758 
L 79.480519 211.373218 
L 84.155844 211.409847 
L 88.831169 211.041655 
L 93.506494 210.87944 
L 98.181818 210.736618 
L 102.857143 211.098137 
L 107.532468 211.30169 
L 112.207792 211.308085 
L 116.883117 211.303652 
L 121.558442 211.133143 
L 126.233766 210.522313 
L 130.909091 209.857971 
L 135.584416 209.130212 
L 140.25974 208.016882 
L 144.935065 207.07539 
L 149.61039 206.141185 
L 154.285714 205.266958 
L 158.961039 204.72515 
L 163.636364 204.318346 
L 168.311688 203.893907 
L 172.987013 203.881953 
L 177.662338 204.011423 
L 182.337662 204.082108 
L 187.012987 203.971727 
L 191.688312 203.825475 
L 196.363636 203.507543 
L 201.038961 203.234771 
L 205.714286 202.9157 
L 210.38961 202.322803 
L 215.064935 202.123515 
L 219.74026 201.696147 
L 224.415584 200.719715 
L 229.090909 200.014734 
L 233.766234 199.502482 
L 238.441558 199.077533 
L 243.116883 198.663746 
L 247.792208 198.095787 
L 252.467532 197.826604 
L 257.142857 198.519301 
L 261.818182 199.381539 
L 266.493506 200.074199 
L 271.168831 200.825245 
L 275.844156 201.576981 
L 280.519481 202.310911 
L 285.194805 202.897298 
L 289.87013 203.362172 
L 294.545455 203.628927 
" clip-path="url(#pe14ca78056)" style="fill: none; stroke: #ff0000; stroke-width: 1.5; stroke-linecap: square"/>
   </g>
   <g id="line2d_31">
    <path d="M 180 259.2 
L 180 151.2 
" clip-path="url(#pe14ca78056)" style="fill: none; stroke-dasharray: 5.55,2.4; stroke-dashoffset: 0; stroke: #4c4c4c; stroke-width: 1.5"/>
   </g>
   <g id="line2d_32">
    <path d="M 65.454545 200.006358 
L 70.12987 200.083938 
L 74.805195 200.117284 
L 79.480519 200.579321 
L 84.155844 200.722326 
L 88.831169 200.614962 
L 93.506494 200.476632 
L 98.181818 200.178074 
L 102.857143 200.417457 
L 107.532468 200.477494 
L 112.207792 200.432841 
L 116.883117 200.477564 
L 121.558442 200.173164 
L 126.233766 199.318655 
L 130.909091 198.416904 
L 135.584416 197.346581 
L 140.25974 195.841178 
L 144.935065 194.718541 
L 149.61039 193.815367 
L 154.285714 192.976349 
L 158.961039 192.379105 
L 163.636364 191.832616 
L 168.311688 191.215358 
L 172.987013 190.987459 
L 177.662338 190.857116 
L 182.337662 190.711145 
L 187.012987 190.560787 
L 191.688312 190.337175 
L 196.363636 189.852857 
L 201.038961 189.585418 
L 205.714286 189.410591 
L 210.38961 188.976138 
L 215.064935 188.870293 
L 219.74026 188.611892 
L 224.415584 187.77926 
L 229.090909 187.190274 
L 233.766234 186.651183 
L 238.441558 186.285004 
L 243.116883 185.929216 
L 247.792208 185.525168 
L 252.467532 185.484638 
L 257.142857 186.658653 
L 261.818182 188.075364 
L 266.493506 189.184391 
L 271.168831 190.343184 
L 275.844156 191.403701 
L 280.519481 192.333758 
L 285.194805 193.077688 
L 289.87013 193.633448 
L 294.545455 193.979517 
" clip-path="url(#pe14ca78056)" style="fill: none; stroke: #9400d3; stroke-width: 1.5; stroke-linecap: square"/>
   </g>
   <g id="line2d_33">
    <path d="M 180 259.2 
L 180 151.2 
" clip-path="url(#pe14ca78056)" style="fill: none; stroke-dasharray: 5.55,2.4; stroke-dashoffset: 0; stroke: #4c4c4c; stroke-width: 1.5"/>
   </g>
   <g id="line2d_34">
    <path d="M 65.454545 192.848506 
L 70.12987 192.992699 
L 74.805195 193.027799 
L 79.480519 193.46368 
L 84.155844 193.552999 
L 88.831169 193.374215 
L 93.506494 193.502347 
L 98.181818 193.804753 
L 102.857143 194.5996 
L 107.532468 195.085475 
L 112.207792 195.164472 
L 116.883117 195.294748 
L 121.558442 195.285245 
L 126.233766 194.377431 
L 130.909091 193.399337 
L 135.584416 192.341966 
L 140.25974 190.701954 
L 144.935065 189.61679 
L 149.61039 188.594583 
L 154.285714 187.750904 
L 158.961039 187.093672 
L 163.636364 186.319175 
L 168.311688 185.516932 
L 172.987013 185.295326 
L 177.662338 185.108152 
L 182.337662 184.991484 
L 187.012987 184.88322 
L 191.688312 184.810579 
L 196.363636 184.372621 
L 201.038961 184.052471 
L 205.714286 183.777989 
L 210.38961 183.085316 
L 215.064935 182.856746 
L 219.74026 182.548454 
L 224.415584 181.488687 
L 229.090909 180.663191 
L 233.766234 180.045837 
L 238.441558 179.531022 
L 243.116883 179.046711 
L 247.792208 178.559853 
L 252.467532 178.549308 
L 257.142857 179.702022 
L 261.818182 181.113857 
L 266.493506 182.308184 
L 271.168831 183.710162 
L 275.844156 185.055165 
L 280.519481 186.337517 
L 285.194805 187.401262 
L 289.87013 188.118128 
L 294.545455 188.449572 
" clip-path="url(#pe14ca78056)" style="fill: none; stroke: #ffa500; stroke-width: 1.5; stroke-linecap: square"/>
   </g>
   <g id="patch_6">
    <path d="M 46 259.2 
L 46 151.2 
" style="fill: none; stroke: #000000; stroke-width: 0.8; stroke-linejoin: miter; stroke-linecap: square"/>
   </g>
   <g id="patch_7">
    <path d="M 54 267.2 
L 306 267.2 
" style="fill: none; stroke: #000000; stroke-width: 0.8; stroke-linejoin: miter; stroke-linecap: square"/>
   </g>
   <g id="text_17">
    <!-- sur -->
    <g style="fill: #b2b2b2" transform="translate(265.909091 160.2) scale(0.11 -0.11)">
     <defs>
      <path id="DejaVuSans-75" d="M 544 1381 
L 544 3500 
L 1119 3500 
L 1119 1403 
Q 1119 906 1312 657 
Q 1506 409 1894 409 
Q 2359 409 2629 706 
Q 2900 1003 2900 1516 
L 2900 3500 
L 3475 3500 
L 3475 0 
L 2900 0 
L 2900 538 
Q 2691 219 2414 64 
Q 2138 -91 1772 -91 
Q 1169 -91 856 284 
Q 544 659 544 1381 
z
M 1991 3584 
L 1991 3584 
z
" transform="scale(0.015625)"/>
     </defs>
     <use xlink:href="#DejaVuSans-73"/>
     <use xlink:href="#DejaVuSans-75" x="52.099609"/>
     <use xlink:href="#DejaVuSans-72" x="115.478516"/>
    </g>
   </g>
   <g id="text_18">
    <!-- iso0 -->
    <g style="fill: #ff0000" transform="translate(265.909091 172.8) scale(0.11 -0.11)">
     <use xlink:href="#DejaVuSans-69"/>
     <use xlink:href="#DejaVuSans-73" x="27.783203"/>
     <use xlink:href="#DejaVuSans-6f" x="79.882812"/>
     <use xlink:href="#DejaVuSans-30" x="141.064453"/>
    </g>
   </g>
   <g id="text_19">
    <!-- iso90 -->
    <g style="fill: #9400d3" transform="translate(265.909091 185.4) scale(0.11 -0.11)">
     <defs>
      <path id="DejaVuSans-39" d="M 703 97 
L 703 672 
Q 941 559 1184 500 
Q 1428 441 1663 441 
Q 2288 441 2617 861 
Q 2947 1281 2994 2138 
Q 2813 1869 2534 1725 
Q 2256 1581 1919 1581 
Q 1219 1581 811 2004 
Q 403 2428 403 3163 
Q 403 3881 828 4315 
Q 1253 4750 1959 4750 
Q 2769 4750 3195 4129 
Q 3622 3509 3622 2328 
Q 3622 1225 3098 567 
Q 2575 -91 1691 -91 
Q 1453 -91 1209 -44 
Q 966 3 703 97 
z
M 1959 2075 
Q 2384 2075 2632 2365 
Q 2881 2656 2881 3163 
Q 2881 3666 2632 3958 
Q 2384 4250 1959 4250 
Q 1534 4250 1286 3958 
Q 1038 3666 1038 3163 
Q 1038 2656 1286 2365 
Q 1534 2075 1959 2075 
z
" transform="scale(0.015625)"/>
     </defs>
     <use xlink:href="#DejaVuSans-69"/>
     <use xlink:href="#DejaVuSans-73" x="27.783203"/>
     <use xlink:href="#DejaVuSans-6f" x="79.882812"/>
     <use xlink:href="#DejaVuSans-39" x="141.064453"/>
     <use xlink:href="#DejaVuSans-30" x="204.6875"/>
    </g>
   </g>
   <g id="text_20">
    <!-- orth -->
    <g style="fill: #ffa500" transform="translate(265.909091 198) scale(0.11 -0.11)">
     <use xlink:href="#DejaVuSans-6f"/>
     <use xlink:href="#DejaVuSans-72" x="61.181641"/>
     <use xlink:href="#DejaVuSans-74" x="102.294922"/>
     <use xlink:href="#DejaVuSans-68" x="141.503906"/>
    </g>
   </g>
  </g>
  <g id="axes_3">
   <g id="patch_8">
    <path d="M 54 129.6 
L 306 129.6 
L 306 21.6 
L 54 21.6 
z
" style="fill: #ffffff"/>
   </g>
   <g id="PolyCollection_9">
    <defs>
     <path id="ma3c5503aa6" d="M 65.454545 -378.026593 
L 65.454545 -364.521876 
L 70.12987 -364.463244 
L 74.805195 -364.423913 
L 79.480519 -364.862726 
L 84.155844 -365.571864 
L 88.831169 -365.753105 
L 93.506494 -364.947889 
L 98.181818 -364.423896 
L 102.857143 -364.099725 
L 107.532468 -364.331488 
L 112.207792 -365.614888 
L 116.883117 -366.640231 
L 121.558442 -368.159349 
L 126.233766 -369.674164 
L 130.909091 -371.481639 
L 135.584416 -373.418032 
L 140.25974 -374.542584 
L 144.935065 -375.458177 
L 149.61039 -375.889844 
L 154.285714 -376.029357 
L 158.961039 -376.372212 
L 163.636364 -377.330393 
L 168.311688 -378.469346 
L 172.987013 -379.625586 
L 177.662338 -380.683905 
L 182.337662 -381.617097 
L 187.012987 -382.152854 
L 191.688312 -382.985995 
L 196.363636 -383.557353 
L 201.038961 -383.99517 
L 205.714286 -384.025365 
L 210.38961 -383.907941 
L 215.064935 -384.066519 
L 219.74026 -384.191296 
L 224.415584 -383.783988 
L 229.090909 -383.368073 
L 233.766234 -382.738576 
L 238.441558 -382.28293 
L 243.116883 -381.83682 
L 247.792208 -381.019733 
L 252.467532 -380.213033 
L 257.142857 -379.681763 
L 261.818182 -379.730202 
L 266.493506 -379.883485 
L 271.168831 -380.048823 
L 275.844156 -380.306613 
L 280.519481 -380.43917 
L 285.194805 -380.479767 
L 289.87013 -380.337101 
L 294.545455 -380.453383 
L 294.545455 -412.481545 
L 294.545455 -412.481545 
L 289.87013 -412.586569 
L 285.194805 -413.466021 
L 280.519481 -413.599352 
L 275.844156 -413.262459 
L 271.168831 -412.390493 
L 266.493506 -412.002599 
L 261.818182 -411.308628 
L 257.142857 -410.698636 
L 252.467532 -411.504591 
L 247.792208 -412.375114 
L 243.116883 -413.187931 
L 238.441558 -413.629549 
L 233.766234 -413.517359 
L 229.090909 -414.632478 
L 224.415584 -416.130039 
L 219.74026 -416.87465 
L 215.064935 -416.909688 
L 210.38961 -416.538006 
L 205.714286 -416.742727 
L 201.038961 -416.186746 
L 196.363636 -414.519627 
L 191.688312 -411.954716 
L 187.012987 -408.515683 
L 182.337662 -406.678569 
L 177.662338 -403.852608 
L 172.987013 -401.372056 
L 168.311688 -398.405405 
L 163.636364 -396.023172 
L 158.961039 -394.438968 
L 154.285714 -394.419636 
L 149.61039 -394.285109 
L 144.935065 -393.350181 
L 140.25974 -390.415016 
L 135.584416 -387.339779 
L 130.909091 -383.931176 
L 126.233766 -381.682963 
L 121.558442 -380.421353 
L 116.883117 -379.143853 
L 112.207792 -378.244069 
L 107.532468 -376.814544 
L 102.857143 -376.75757 
L 98.181818 -377.374525 
L 93.506494 -377.979955 
L 88.831169 -378.625517 
L 84.155844 -378.646732 
L 79.480519 -377.970851 
L 74.805195 -377.524034 
L 70.12987 -377.82012 
L 65.454545 -378.026593 
z
"/>
    </defs>
    <g clip-path="url(#p10791bb556)">
     <use xlink:href="#ma3c5503aa6" x="0" y="432" style="fill: #b2b2b2; fill-opacity: 0.4"/>
    </g>
   </g>
   <g id="PolyCollection_10">
    <defs>
     <path id="m37f9892b80" d="M 65.454545 -387.17956 
L 65.454545 -364.986492 
L 70.12987 -364.898587 
L 74.805195 -364.75862 
L 79.480519 -364.683941 
L 84.155844 -364.945759 
L 88.831169 -364.710313 
L 93.506494 -363.724905 
L 98.181818 -362.916398 
L 102.857143 -362.356917 
L 107.532468 -362.475791 
L 112.207792 -363.491604 
L 116.883117 -364.116573 
L 121.558442 -364.634146 
L 126.233766 -365.037932 
L 130.909091 -365.722666 
L 135.584416 -366.686232 
L 140.25974 -367.252717 
L 144.935065 -367.808586 
L 149.61039 -367.753686 
L 154.285714 -367.580499 
L 158.961039 -367.508468 
L 163.636364 -368.10194 
L 168.311688 -368.618937 
L 172.987013 -369.408049 
L 177.662338 -370.172208 
L 182.337662 -370.734221 
L 187.012987 -371.018154 
L 191.688312 -371.730538 
L 196.363636 -372.172182 
L 201.038961 -372.359995 
L 205.714286 -372.070732 
L 210.38961 -371.704119 
L 215.064935 -371.710599 
L 219.74026 -371.749594 
L 224.415584 -371.435117 
L 229.090909 -371.102194 
L 233.766234 -370.754367 
L 238.441558 -370.528335 
L 243.116883 -370.284378 
L 247.792208 -369.82624 
L 252.467532 -369.356561 
L 257.142857 -369.019716 
L 261.818182 -369.081695 
L 266.493506 -369.220418 
L 271.168831 -369.419955 
L 275.844156 -369.586197 
L 280.519481 -369.551355 
L 285.194805 -369.51609 
L 289.87013 -369.349228 
L 294.545455 -369.434192 
L 294.545455 -399.747962 
L 294.545455 -399.747962 
L 289.87013 -399.821881 
L 285.194805 -400.538961 
L 280.519481 -400.648689 
L 275.844156 -400.53137 
L 271.168831 -399.964052 
L 266.493506 -399.628102 
L 261.818182 -399.212828 
L 257.142857 -398.850011 
L 252.467532 -399.493936 
L 247.792208 -400.157112 
L 243.116883 -400.930579 
L 238.441558 -401.549722 
L 233.766234 -401.627367 
L 229.090909 -402.372701 
L 224.415584 -403.535034 
L 219.74026 -404.239849 
L 215.064935 -404.489306 
L 210.38961 -404.603216 
L 205.714286 -405.358082 
L 201.038961 -405.278069 
L 196.363636 -403.91767 
L 191.688312 -401.692571 
L 187.012987 -398.908493 
L 182.337662 -397.723877 
L 177.662338 -396.105663 
L 172.987013 -394.5992 
L 168.311688 -392.622214 
L 163.636364 -391.269632 
L 158.961039 -390.415446 
L 154.285714 -390.739374 
L 149.61039 -391.007864 
L 144.935065 -390.780412 
L 140.25974 -389.084273 
L 135.584416 -387.219441 
L 130.909091 -385.374193 
L 126.233766 -384.547896 
L 121.558442 -384.443443 
L 116.883117 -384.121559 
L 112.207792 -383.711409 
L 107.532468 -383.110774 
L 102.857143 -383.609941 
L 98.181818 -384.832335 
L 93.506494 -385.938154 
L 88.831169 -386.914044 
L 84.155844 -387.362214 
L 79.480519 -387.051816 
L 74.805195 -386.674011 
L 70.12987 -386.963636 
L 65.454545 -387.17956 
z
"/>
    </defs>
    <g clip-path="url(#p10791bb556)">
     <use xlink:href="#m37f9892b80" x="0" y="432" style="fill: #ff0000; fill-opacity: 0.4"/>
    </g>
   </g>
   <g id="PolyCollection_11">
    <defs>
     <path id="mac2f8e7624" d="M 65.454545 -405.492544 
L 65.454545 -385.707498 
L 70.12987 -385.613389 
L 74.805195 -385.484526 
L 79.480519 -385.625765 
L 84.155844 -385.834593 
L 88.831169 -384.88802 
L 93.506494 -383.097264 
L 98.181818 -381.772495 
L 102.857143 -380.842154 
L 107.532468 -380.629586 
L 112.207792 -381.842488 
L 116.883117 -382.974826 
L 121.558442 -384.365189 
L 126.233766 -385.625755 
L 130.909091 -387.221976 
L 135.584416 -388.836987 
L 140.25974 -389.802267 
L 144.935065 -390.231117 
L 149.61039 -389.889881 
L 154.285714 -389.242945 
L 158.961039 -388.8063 
L 163.636364 -389.145515 
L 168.311688 -389.7135 
L 172.987013 -390.47662 
L 177.662338 -391.287851 
L 182.337662 -391.996791 
L 187.012987 -392.162939 
L 191.688312 -392.649706 
L 196.363636 -392.743401 
L 201.038961 -392.737705 
L 205.714286 -392.276746 
L 210.38961 -391.636004 
L 215.064935 -391.400512 
L 219.74026 -391.107674 
L 224.415584 -390.246446 
L 229.090909 -389.442815 
L 233.766234 -388.455589 
L 238.441558 -387.616045 
L 243.116883 -386.846023 
L 247.792208 -385.912543 
L 252.467532 -385.128171 
L 257.142857 -384.618266 
L 261.818182 -384.603878 
L 266.493506 -384.552841 
L 271.168831 -384.540121 
L 275.844156 -384.611811 
L 280.519481 -384.608114 
L 285.194805 -384.454364 
L 289.87013 -384.057783 
L 294.545455 -383.990796 
L 294.545455 -411.703624 
L 294.545455 -411.703624 
L 289.87013 -412.043344 
L 285.194805 -413.143509 
L 280.519481 -413.675664 
L 275.844156 -413.793486 
L 271.168831 -413.471249 
L 266.493506 -413.468887 
L 261.818182 -413.090163 
L 257.142857 -412.694492 
L 252.467532 -413.708778 
L 247.792208 -414.976084 
L 243.116883 -416.194548 
L 238.441558 -417.203193 
L 233.766234 -417.702577 
L 229.090909 -418.96373 
L 224.415584 -420.694648 
L 219.74026 -422.116868 
L 215.064935 -422.600529 
L 210.38961 -422.767675 
L 205.714286 -423.547722 
L 201.038961 -423.365517 
L 196.363636 -421.87218 
L 191.688312 -419.750652 
L 187.012987 -416.888288 
L 182.337662 -415.372403 
L 177.662338 -413.298524 
L 172.987013 -411.605923 
L 168.311688 -410.009916 
L 163.636364 -408.970097 
L 158.961039 -408.343566 
L 154.285714 -409.029185 
L 149.61039 -409.646439 
L 144.935065 -409.636437 
L 140.25974 -407.888426 
L 135.584416 -405.844044 
L 130.909091 -403.953464 
L 126.233766 -402.444537 
L 121.558442 -401.714306 
L 116.883117 -400.752075 
L 112.207792 -399.968243 
L 107.532468 -398.958999 
L 102.857143 -399.703158 
L 98.181818 -401.083269 
L 93.506494 -402.461606 
L 88.831169 -404.125176 
L 84.155844 -405.263967 
L 79.480519 -405.160206 
L 74.805195 -404.849193 
L 70.12987 -405.237875 
L 65.454545 -405.492544 
z
"/>
    </defs>
    <g clip-path="url(#p10791bb556)">
     <use xlink:href="#mac2f8e7624" x="0" y="432" style="fill: #9400d3; fill-opacity: 0.4"/>
    </g>
   </g>
   <g id="PolyCollection_12">
    <defs>
     <path id="m3bb1d5cf3a" d="M 65.454545 -421.337577 
L 65.454545 -395.776455 
L 70.12987 -395.664626 
L 74.805195 -395.534117 
L 79.480519 -395.672639 
L 84.155844 -395.882871 
L 88.831169 -395.164325 
L 93.506494 -393.360635 
L 98.181818 -391.868381 
L 102.857143 -390.539728 
L 107.532468 -389.90456 
L 112.207792 -390.270762 
L 116.883117 -390.877987 
L 121.558442 -391.539087 
L 126.233766 -392.146387 
L 130.909091 -393.183213 
L 135.584416 -394.669857 
L 140.25974 -395.472851 
L 144.935065 -396.052876 
L 149.61039 -395.779212 
L 154.285714 -395.430415 
L 158.961039 -395.548407 
L 163.636364 -396.303443 
L 168.311688 -397.158091 
L 172.987013 -397.981823 
L 177.662338 -398.68487 
L 182.337662 -399.277871 
L 187.012987 -399.503527 
L 191.688312 -400.043989 
L 196.363636 -400.09069 
L 201.038961 -399.994219 
L 205.714286 -399.282764 
L 210.38961 -398.306612 
L 215.064935 -397.726128 
L 219.74026 -397.056509 
L 224.415584 -395.884696 
L 229.090909 -394.900091 
L 233.766234 -393.864447 
L 238.441558 -393.02814 
L 243.116883 -392.329888 
L 247.792208 -391.398037 
L 252.467532 -390.555844 
L 257.142857 -389.902349 
L 261.818182 -389.709471 
L 266.493506 -389.528811 
L 271.168831 -389.475678 
L 275.844156 -389.651875 
L 280.519481 -389.799692 
L 285.194805 -389.797121 
L 289.87013 -389.528306 
L 294.545455 -389.615372 
L 294.545455 -424.556216 
L 294.545455 -424.556216 
L 289.87013 -424.568546 
L 285.194805 -425.382616 
L 280.519481 -425.677261 
L 275.844156 -425.561028 
L 271.168831 -425.022081 
L 266.493506 -425.05892 
L 261.818182 -424.756105 
L 257.142857 -424.461909 
L 252.467532 -425.670916 
L 247.792208 -426.962028 
L 243.116883 -428.525269 
L 238.441558 -429.751508 
L 233.766234 -430.165158 
L 229.090909 -431.60239 
L 224.415584 -433.80124 
L 219.74026 -435.528328 
L 215.064935 -436.482804 
L 210.38961 -437.084088 
L 205.714286 -438.500362 
L 201.038961 -438.301539 
L 196.363636 -436.51898 
L 191.688312 -433.874741 
L 187.012987 -430.300765 
L 182.337662 -428.622714 
L 177.662338 -426.452305 
L 172.987013 -424.419338 
L 168.311688 -421.672332 
L 163.636364 -419.708664 
L 158.961039 -418.470365 
L 154.285714 -418.58114 
L 149.61039 -418.916052 
L 144.935065 -418.807043 
L 140.25974 -416.225065 
L 135.584416 -414.046542 
L 130.909091 -412.005782 
L 126.233766 -411.345639 
L 121.558442 -411.738371 
L 116.883117 -412.052988 
L 112.207792 -411.893937 
L 107.532468 -412.201002 
L 102.857143 -413.460928 
L 98.181818 -415.539908 
L 93.506494 -417.25496 
L 88.831169 -419.115034 
L 84.155844 -420.408026 
L 79.480519 -420.570715 
L 74.805195 -420.504572 
L 70.12987 -421.016918 
L 65.454545 -421.337577 
z
"/>
    </defs>
    <g clip-path="url(#p10791bb556)">
     <use xlink:href="#m3bb1d5cf3a" x="0" y="432" style="fill: #ffa500; fill-opacity: 0.4"/>
    </g>
   </g>
   <g id="matplotlib.axis_5">
    <g id="xtick_11">
     <g id="line2d_35">
      <g>
       <use xlink:href="#m8d52c5a8d5" x="65.454545" y="137.6" style="stroke: #000000; stroke-width: 0.8"/>
      </g>
     </g>
    </g>
    <g id="xtick_12">
     <g id="line2d_36">
      <g>
       <use xlink:href="#m8d52c5a8d5" x="122.727273" y="137.6" style="stroke: #000000; stroke-width: 0.8"/>
      </g>
     </g>
    </g>
    <g id="xtick_13">
     <g id="line2d_37">
      <g>
       <use xlink:href="#m8d52c5a8d5" x="180" y="137.6" style="stroke: #000000; stroke-width: 0.8"/>
      </g>
     </g>
    </g>
    <g id="xtick_14">
     <g id="line2d_38">
      <g>
       <use xlink:href="#m8d52c5a8d5" x="237.272727" y="137.6" style="stroke: #000000; stroke-width: 0.8"/>
      </g>
     </g>
    </g>
    <g id="xtick_15">
     <g id="line2d_39">
      <g>
       <use xlink:href="#m8d52c5a8d5" x="294.545455" y="137.6" style="stroke: #000000; stroke-width: 0.8"/>
      </g>
     </g>
    </g>
   </g>
   <g id="matplotlib.axis_6">
    <g id="ytick_9">
     <g id="line2d_40">
      <g>
       <use xlink:href="#m464d9e7721" x="46" y="129.6" style="stroke: #000000; stroke-width: 0.8"/>
      </g>
     </g>
     <g id="text_21">
      <!-- 0 -->
      <g transform="translate(32.6375 133.399219) scale(0.1 -0.1)">
       <use xlink:href="#DejaVuSans-30"/>
      </g>
     </g>
    </g>
    <g id="ytick_10">
     <g id="line2d_41">
      <g>
       <use xlink:href="#m464d9e7721" x="46" y="93.6" style="stroke: #000000; stroke-width: 0.8"/>
      </g>
     </g>
     <g id="text_22">
      <!-- 2 -->
      <g transform="translate(32.6375 97.399219) scale(0.1 -0.1)">
       <use xlink:href="#DejaVuSans-32"/>
      </g>
     </g>
    </g>
    <g id="ytick_11">
     <g id="line2d_42">
      <g>
       <use xlink:href="#m464d9e7721" x="46" y="57.6" style="stroke: #000000; stroke-width: 0.8"/>
      </g>
     </g>
     <g id="text_23">
      <!-- 4 -->
      <g transform="translate(32.6375 61.399219) scale(0.1 -0.1)">
       <use xlink:href="#DejaVuSans-34"/>
      </g>
     </g>
    </g>
    <g id="ytick_12">
     <g id="line2d_43">
      <g>
       <use xlink:href="#m464d9e7721" x="46" y="21.6" style="stroke: #000000; stroke-width: 0.8"/>
      </g>
     </g>
     <g id="text_24">
      <!-- 6 -->
      <g transform="translate(32.6375 25.399219) scale(0.1 -0.1)">
       <use xlink:href="#DejaVuSans-36"/>
      </g>
     </g>
    </g>
    <g id="text_25">
     <!-- BOLD % change -->
     <g transform="translate(26.141875 123.894375) rotate(-90) scale(0.12 -0.12)">
      <use xlink:href="#DejaVuSans-42"/>
      <use xlink:href="#DejaVuSans-4f" x="66.853516"/>
      <use xlink:href="#DejaVuSans-4c" x="145.564453"/>
      <use xlink:href="#DejaVuSans-44" x="201.277344"/>
      <use xlink:href="#DejaVuSans-20" x="278.279297"/>
      <use xlink:href="#DejaVuSans-25" x="310.066406"/>
      <use xlink:href="#DejaVuSans-20" x="405.085938"/>
      <use xlink:href="#DejaVuSans-63" x="436.873047"/>
      <use xlink:href="#DejaVuSans-68" x="491.853516"/>
      <use xlink:href="#DejaVuSans-61" x="555.232422"/>
      <use xlink:href="#DejaVuSans-6e" x="616.511719"/>
      <use xlink:href="#DejaVuSans-67" x="679.890625"/>
      <use xlink:href="#DejaVuSans-65" x="743.367188"/>
     </g>
    </g>
   </g>
   <g id="line2d_44">
    <path d="M 180 129.6 
L 180 21.6 
" clip-path="url(#p10791bb556)" style="fill: none; stroke-dasharray: 5.55,2.4; stroke-dashoffset: 0; stroke: #4c4c4c; stroke-width: 1.5"/>
   </g>
   <g id="line2d_45">
    <path d="M 65.454545 60.725766 
L 70.12987 60.858318 
L 74.805195 61.026027 
L 79.480519 60.583212 
L 84.155844 59.890702 
L 88.831169 59.810689 
L 93.506494 60.536078 
L 98.181818 61.100789 
L 102.857143 61.571353 
L 107.532468 61.426984 
L 112.207792 60.070522 
L 116.883117 59.107958 
L 121.558442 57.709649 
L 126.233766 56.321436 
L 130.909091 54.293593 
L 135.584416 51.621095 
L 140.25974 49.5212 
L 144.935065 47.595821 
L 149.61039 46.912524 
L 154.285714 46.775503 
L 158.961039 46.59441 
L 163.636364 45.323218 
L 168.311688 43.562624 
L 172.987013 41.501179 
L 177.662338 39.731744 
L 182.337662 37.852167 
L 187.012987 36.665732 
L 191.688312 34.529645 
L 196.363636 32.96151 
L 201.038961 31.909042 
L 205.714286 31.615954 
L 210.38961 31.777026 
L 215.064935 31.511896 
L 219.74026 31.467027 
L 224.415584 32.042987 
L 229.090909 32.999725 
L 233.766234 33.872032 
L 238.441558 34.04376 
L 243.116883 34.487625 
L 247.792208 35.302576 
L 252.467532 36.141188 
L 257.142857 36.8098 
L 261.818182 36.480585 
L 266.493506 36.056958 
L 271.168831 35.780342 
L 275.844156 35.215464 
L 280.519481 34.980739 
L 285.194805 35.027106 
L 289.87013 35.538165 
L 294.545455 35.532536 
" clip-path="url(#p10791bb556)" style="fill: none; stroke: #b2b2b2; stroke-width: 1.5; stroke-linecap: square"/>
   </g>
   <g id="line2d_46">
    <path d="M 180 129.6 
L 180 21.6 
" clip-path="url(#p10791bb556)" style="fill: none; stroke-dasharray: 5.55,2.4; stroke-dashoffset: 0; stroke: #4c4c4c; stroke-width: 1.5"/>
   </g>
   <g id="line2d_47">
    <path d="M 65.454545 55.916974 
L 70.12987 56.068889 
L 74.805195 56.283684 
L 79.480519 56.132122 
L 84.155844 55.846014 
L 88.831169 56.187822 
L 93.506494 57.168471 
L 98.181818 58.125634 
L 102.857143 59.016571 
L 107.532468 59.206717 
L 112.207792 58.398494 
L 116.883117 57.880934 
L 121.558442 57.461206 
L 126.233766 57.207086 
L 130.909091 56.45157 
L 135.584416 55.047164 
L 140.25974 53.831505 
L 144.935065 52.705501 
L 149.61039 52.619225 
L 154.285714 52.840063 
L 158.961039 53.038043 
L 163.636364 52.314214 
L 168.311688 51.379425 
L 172.987013 49.996376 
L 177.662338 48.861064 
L 182.337662 47.770951 
L 187.012987 47.036677 
L 191.688312 45.288445 
L 196.363636 43.955074 
L 201.038961 43.180968 
L 205.714286 43.285593 
L 210.38961 43.846333 
L 215.064935 43.900047 
L 219.74026 44.005279 
L 224.415584 44.514924 
L 229.090909 45.262552 
L 233.766234 45.809133 
L 238.441558 45.960971 
L 243.116883 46.392521 
L 247.792208 47.008324 
L 252.467532 47.574751 
L 257.142857 48.065136 
L 261.818182 47.852739 
L 266.493506 47.57574 
L 271.168831 47.307997 
L 275.844156 46.941216 
L 280.519481 46.899978 
L 285.194805 46.972474 
L 289.87013 47.414445 
L 294.545455 47.408923 
" clip-path="url(#p10791bb556)" style="fill: none; stroke: #ff0000; stroke-width: 1.5; stroke-linecap: square"/>
   </g>
   <g id="line2d_48">
    <path d="M 180 129.6 
L 180 21.6 
" clip-path="url(#p10791bb556)" style="fill: none; stroke-dasharray: 5.55,2.4; stroke-dashoffset: 0; stroke: #4c4c4c; stroke-width: 1.5"/>
   </g>
   <g id="line2d_49">
    <path d="M 65.454545 36.399979 
L 70.12987 36.574368 
L 74.805195 36.833141 
L 79.480519 36.607014 
L 84.155844 36.45072 
L 88.831169 37.493402 
L 93.506494 39.220565 
L 98.181818 40.572118 
L 102.857143 41.727344 
L 107.532468 42.205708 
L 112.207792 41.094635 
L 116.883117 40.13655 
L 121.558442 38.960252 
L 126.233766 37.964854 
L 130.909091 36.41228 
L 135.584416 34.659485 
L 140.25974 33.154653 
L 144.935065 32.066223 
L 149.61039 32.23184 
L 154.285714 32.863935 
L 158.961039 33.425067 
L 163.636364 32.942194 
L 168.311688 32.138292 
L 172.987013 30.958728 
L 177.662338 29.706812 
L 182.337662 28.315403 
L 187.012987 27.474386 
L 191.688312 25.799821 
L 196.363636 24.69221 
L 201.038961 23.948389 
L 205.714286 24.087766 
L 210.38961 24.798161 
L 215.064935 24.999479 
L 219.74026 25.387729 
L 224.415584 26.529453 
L 229.090909 27.796728 
L 233.766234 28.920917 
L 238.441558 29.590381 
L 243.116883 30.479715 
L 247.792208 31.555687 
L 252.467532 32.581526 
L 257.142857 33.343621 
L 261.818182 33.15298 
L 266.493506 32.989136 
L 271.168831 32.994315 
L 275.844156 32.797352 
L 280.519481 32.858111 
L 285.194805 33.201064 
L 289.87013 33.949436 
L 294.545455 34.15279 
" clip-path="url(#p10791bb556)" style="fill: none; stroke: #9400d3; stroke-width: 1.5; stroke-linecap: square"/>
   </g>
   <g id="line2d_50">
    <path d="M 180 129.6 
L 180 21.6 
" clip-path="url(#p10791bb556)" style="fill: none; stroke-dasharray: 5.55,2.4; stroke-dashoffset: 0; stroke: #4c4c4c; stroke-width: 1.5"/>
   </g>
   <g id="line2d_51">
    <path d="M 65.454545 23.442984 
L 70.12987 23.659228 
L 74.805195 23.980656 
L 79.480519 23.878323 
L 84.155844 23.854551 
L 88.831169 24.86032 
L 93.506494 26.692203 
L 98.181818 28.295856 
L 102.857143 29.999672 
L 107.532468 30.947219 
L 112.207792 30.91765 
L 116.883117 30.534513 
L 121.558442 30.361271 
L 126.233766 30.253987 
L 130.909091 29.405503 
L 135.584416 27.6418 
L 140.25974 26.151042 
L 144.935065 24.570041 
L 149.61039 24.652368 
L 154.285714 24.994222 
L 158.961039 24.990614 
L 163.636364 23.993947 
L 168.311688 22.584788 
L 172.987013 20.799419 
L 177.662338 19.431412 
L 182.337662 18.049708 
L 187.012987 17.097854 
L 191.688312 15.040635 
L 196.363636 13.695165 
L 201.038961 12.852121 
L 205.714286 13.108437 
L 210.38961 14.30465 
L 215.064935 14.895534 
L 219.74026 15.707582 
L 224.415584 17.157032 
L 229.090909 18.748759 
L 233.766234 19.985197 
L 238.441558 20.610176 
L 243.116883 21.572422 
L 247.792208 22.819968 
L 252.467532 23.88662 
L 257.142857 24.817871 
L 261.818182 24.767212 
L 266.493506 24.706134 
L 271.168831 24.751121 
L 275.844156 24.393549 
L 280.519481 24.261524 
L 285.194805 24.410132 
L 289.87013 24.951574 
L 294.545455 24.914206 
" clip-path="url(#p10791bb556)" style="fill: none; stroke: #ffa500; stroke-width: 1.5; stroke-linecap: square"/>
   </g>
   <g id="patch_9">
    <path d="M 46 129.6 
L 46 21.6 
" style="fill: none; stroke: #000000; stroke-width: 0.8; stroke-linejoin: miter; stroke-linecap: square"/>
   </g>
   <g id="patch_10">
    <path d="M 54 137.6 
L 306 137.6 
" style="fill: none; stroke: #000000; stroke-width: 0.8; stroke-linejoin: miter; stroke-linecap: square"/>
   </g>
  </g>
 </g>
 <defs>
  <clipPath id="pc0b62dfcda">
   <rect x="54" y="280.8" width="252" height="108"/>
  </clipPath>
  <clipPath id="pe14ca78056">
   <rect x="54" y="151.2" width="252" height="108"/>
  </clipPath>
  <clipPath id="p10791bb556">
   <rect x="54" y="21.6" width="252" height="108"/>
  </clipPath>
 </defs>
</svg>
