<?xml version="1.0" encoding="utf-8" standalone="no"?>
<!DOCTYPE svg PUBLIC "-//W3C//DTD SVG 1.1//EN"
  "http://www.w3.org/Graphics/SVG/1.1/DTD/svg11.dtd">
<svg xmlns:xlink="http://www.w3.org/1999/xlink" width="432pt" height="288pt" viewBox="0 0 432 288" xmlns="http://www.w3.org/2000/svg" version="1.1">
 <metadata>
  <rdf:RDF xmlns:dc="http://purl.org/dc/elements/1.1/" xmlns:cc="http://creativecommons.org/ns#" xmlns:rdf="http://www.w3.org/1999/02/22-rdf-syntax-ns#">
   <cc:Work>
    <dc:type rdf:resource="http://purl.org/dc/dcmitype/StillImage"/>
    <dc:date>2024-09-19T13:36:51.380962</dc:date>
    <dc:format>image/svg+xml</dc:format>
    <dc:creator>
     <cc:Agent>
      <dc:title>Matplotlib v3.8.0, https://matplotlib.org/</dc:title>
     </cc:Agent>
    </dc:creator>
   </cc:Work>
  </rdf:RDF>
 </metadata>
 <defs>
  <style type="text/css">*{stroke-linejoin: round; stroke-linecap: butt}</style>
 </defs>
 <g id="figure_1">
  <g id="patch_1">
   <path d="M 0 288 
L 432 288 
L 432 0 
L 0 0 
z
" style="fill: #ffffff"/>
  </g>
  <g id="axes_1">
   <g id="patch_2">
    <path d="M 302.4 230.4 
L 410.4 230.4 
L 410.4 28.8 
L 302.4 28.8 
z
" style="fill: #ffffff"/>
   </g>
   <g id="PolyCollection_1">
    <defs>
     <path id="m55f9f027b1" d="M 363.900787 -61.476923 
L 357.974657 -61.476923 
L 370.929619 -93.784615 
L 369.269858 -126.092308 
L 379.172346 -158.4 
L 379.292375 -190.707692 
L 373.496304 -223.015385 
L 365.793931 -255.323077 
L 378.395145 -255.323077 
L 378.395145 -255.323077 
L 385.841062 -223.015385 
L 384.829501 -190.707692 
L 385.899971 -158.4 
L 373.47279 -126.092308 
L 377.334402 -93.784615 
L 363.900787 -61.476923 
z
"/>
    </defs>
    <g clip-path="url(#p18387400c4)">
     <use xlink:href="#m55f9f027b1" x="0" y="288" style="fill: #ff7f50; fill-opacity: 0.4"/>
    </g>
   </g>
   <g id="matplotlib.axis_1">
    <g id="xtick_1">
     <g id="line2d_1">
      <defs>
       <path id="mf9dc14086d" d="M 0 0 
L 0 3.5 
" style="stroke: #000000; stroke-width: 0.8"/>
      </defs>
      <g>
       <use xlink:href="#mf9dc14086d" x="348.685714" y="238.4" style="stroke: #000000; stroke-width: 0.8"/>
      </g>
     </g>
     <g id="text_1">
      <!-- 0 -->
      <g transform="translate(345.504464 252.998437) scale(0.1 -0.1)">
       <defs>
        <path id="DejaVuSans-30" d="M 2034 4250 
Q 1547 4250 1301 3770 
Q 1056 3291 1056 2328 
Q 1056 1369 1301 889 
Q 1547 409 2034 409 
Q 2525 409 2770 889 
Q 3016 1369 3016 2328 
Q 3016 3291 2770 3770 
Q 2525 4250 2034 4250 
z
M 2034 4750 
Q 2819 4750 3233 4129 
Q 3647 3509 3647 2328 
Q 3647 1150 3233 529 
Q 2819 -91 2034 -91 
Q 1250 -91 836 529 
Q 422 1150 422 2328 
Q 422 3509 836 4129 
Q 1250 4750 2034 4750 
z
" transform="scale(0.015625)"/>
       </defs>
       <use xlink:href="#DejaVuSans-30"/>
      </g>
     </g>
    </g>
    <g id="xtick_2">
     <g id="line2d_2">
      <g>
       <use xlink:href="#mf9dc14086d" x="410.4" y="238.4" style="stroke: #000000; stroke-width: 0.8"/>
      </g>
     </g>
     <g id="text_2">
      <!-- 2 -->
      <g transform="translate(407.21875 252.998437) scale(0.1 -0.1)">
       <defs>
        <path id="DejaVuSans-32" d="M 1228 531 
L 3431 531 
L 3431 0 
L 469 0 
L 469 531 
Q 828 903 1448 1529 
Q 2069 2156 2228 2338 
Q 2531 2678 2651 2914 
Q 2772 3150 2772 3378 
Q 2772 3750 2511 3984 
Q 2250 4219 1831 4219 
Q 1534 4219 1204 4116 
Q 875 4013 500 3803 
L 500 4441 
Q 881 4594 1212 4672 
Q 1544 4750 1819 4750 
Q 2544 4750 2975 4387 
Q 3406 4025 3406 3419 
Q 3406 3131 3298 2873 
Q 3191 2616 2906 2266 
Q 2828 2175 2409 1742 
Q 1991 1309 1228 531 
z
" transform="scale(0.015625)"/>
       </defs>
       <use xlink:href="#DejaVuSans-32"/>
      </g>
     </g>
    </g>
    <g id="text_3">
     <!-- $\Delta$ BOLD % -->
     <g transform="translate(320.84 269.715937) scale(0.14 -0.14)">
      <defs>
       <path id="DejaVuSans-394" d="M 2188 4044 
L 906 525 
L 3472 525 
L 2188 4044 
z
M 50 0 
L 1831 4666 
L 2547 4666 
L 4325 0 
L 50 0 
z
" transform="scale(0.015625)"/>
       <path id="DejaVuSans-20" transform="scale(0.015625)"/>
       <path id="DejaVuSans-42" d="M 1259 2228 
L 1259 519 
L 2272 519 
Q 2781 519 3026 730 
Q 3272 941 3272 1375 
Q 3272 1813 3026 2020 
Q 2781 2228 2272 2228 
L 1259 2228 
z
M 1259 4147 
L 1259 2741 
L 2194 2741 
Q 2656 2741 2882 2914 
Q 3109 3088 3109 3444 
Q 3109 3797 2882 3972 
Q 2656 4147 2194 4147 
L 1259 4147 
z
M 628 4666 
L 2241 4666 
Q 2963 4666 3353 4366 
Q 3744 4066 3744 3513 
Q 3744 3084 3544 2831 
Q 3344 2578 2956 2516 
Q 3422 2416 3680 2098 
Q 3938 1781 3938 1306 
Q 3938 681 3513 340 
Q 3088 0 2303 0 
L 628 0 
L 628 4666 
z
" transform="scale(0.015625)"/>
       <path id="DejaVuSans-4f" d="M 2522 4238 
Q 1834 4238 1429 3725 
Q 1025 3213 1025 2328 
Q 1025 1447 1429 934 
Q 1834 422 2522 422 
Q 3209 422 3611 934 
Q 4013 1447 4013 2328 
Q 4013 3213 3611 3725 
Q 3209 4238 2522 4238 
z
M 2522 4750 
Q 3503 4750 4090 4092 
Q 4678 3434 4678 2328 
Q 4678 1225 4090 567 
Q 3503 -91 2522 -91 
Q 1538 -91 948 565 
Q 359 1222 359 2328 
Q 359 3434 948 4092 
Q 1538 4750 2522 4750 
z
" transform="scale(0.015625)"/>
       <path id="DejaVuSans-4c" d="M 628 4666 
L 1259 4666 
L 1259 531 
L 3531 531 
L 3531 0 
L 628 0 
L 628 4666 
z
" transform="scale(0.015625)"/>
       <path id="DejaVuSans-44" d="M 1259 4147 
L 1259 519 
L 2022 519 
Q 2988 519 3436 956 
Q 3884 1394 3884 2338 
Q 3884 3275 3436 3711 
Q 2988 4147 2022 4147 
L 1259 4147 
z
M 628 4666 
L 1925 4666 
Q 3281 4666 3915 4102 
Q 4550 3538 4550 2338 
Q 4550 1131 3912 565 
Q 3275 0 1925 0 
L 628 0 
L 628 4666 
z
" transform="scale(0.015625)"/>
       <path id="DejaVuSans-25" d="M 4653 2053 
Q 4381 2053 4226 1822 
Q 4072 1591 4072 1178 
Q 4072 772 4226 539 
Q 4381 306 4653 306 
Q 4919 306 5073 539 
Q 5228 772 5228 1178 
Q 5228 1588 5073 1820 
Q 4919 2053 4653 2053 
z
M 4653 2450 
Q 5147 2450 5437 2106 
Q 5728 1763 5728 1178 
Q 5728 594 5436 251 
Q 5144 -91 4653 -91 
Q 4153 -91 3862 251 
Q 3572 594 3572 1178 
Q 3572 1766 3864 2108 
Q 4156 2450 4653 2450 
z
M 1428 4353 
Q 1159 4353 1004 4120 
Q 850 3888 850 3481 
Q 850 3069 1003 2837 
Q 1156 2606 1428 2606 
Q 1700 2606 1854 2837 
Q 2009 3069 2009 3481 
Q 2009 3884 1853 4118 
Q 1697 4353 1428 4353 
z
M 4250 4750 
L 4750 4750 
L 1831 -91 
L 1331 -91 
L 4250 4750 
z
M 1428 4750 
Q 1922 4750 2215 4408 
Q 2509 4066 2509 3481 
Q 2509 2891 2217 2550 
Q 1925 2209 1428 2209 
Q 931 2209 642 2551 
Q 353 2894 353 3481 
Q 353 4063 643 4406 
Q 934 4750 1428 4750 
z
" transform="scale(0.015625)"/>
      </defs>
      <use xlink:href="#DejaVuSans-394" transform="translate(0 0.78125)"/>
      <use xlink:href="#DejaVuSans-20" transform="translate(68.408203 0.78125)"/>
      <use xlink:href="#DejaVuSans-42" transform="translate(100.195312 0.78125)"/>
      <use xlink:href="#DejaVuSans-4f" transform="translate(168.798828 0.78125)"/>
      <use xlink:href="#DejaVuSans-4c" transform="translate(247.509766 0.78125)"/>
      <use xlink:href="#DejaVuSans-44" transform="translate(303.222656 0.78125)"/>
      <use xlink:href="#DejaVuSans-20" transform="translate(380.224609 0.78125)"/>
      <use xlink:href="#DejaVuSans-25" transform="translate(412.011719 0.78125)"/>
     </g>
    </g>
   </g>
   <g id="matplotlib.axis_2">
    <g id="ytick_1">
     <g id="line2d_3">
      <defs>
       <path id="m61353c5260" d="M 0 0 
L -3.5 0 
" style="stroke: #000000; stroke-width: 0.8"/>
      </defs>
      <g>
       <use xlink:href="#m61353c5260" x="294.4" y="226.523077" style="stroke: #000000; stroke-width: 0.8"/>
      </g>
     </g>
    </g>
    <g id="ytick_2">
     <g id="line2d_4">
      <g>
       <use xlink:href="#m61353c5260" x="294.4" y="187.753846" style="stroke: #000000; stroke-width: 0.8"/>
      </g>
     </g>
    </g>
    <g id="ytick_3">
     <g id="line2d_5">
      <g>
       <use xlink:href="#m61353c5260" x="294.4" y="148.984615" style="stroke: #000000; stroke-width: 0.8"/>
      </g>
     </g>
    </g>
    <g id="ytick_4">
     <g id="line2d_6">
      <g>
       <use xlink:href="#m61353c5260" x="294.4" y="110.215385" style="stroke: #000000; stroke-width: 0.8"/>
      </g>
     </g>
    </g>
    <g id="ytick_5">
     <g id="line2d_7">
      <g>
       <use xlink:href="#m61353c5260" x="294.4" y="71.446154" style="stroke: #000000; stroke-width: 0.8"/>
      </g>
     </g>
    </g>
    <g id="ytick_6">
     <g id="line2d_8">
      <g>
       <use xlink:href="#m61353c5260" x="294.4" y="32.676923" style="stroke: #000000; stroke-width: 0.8"/>
      </g>
     </g>
    </g>
   </g>
   <g id="line2d_9">
    <path d="M 348.685714 226.523077 
L 348.685714 32.676923 
" clip-path="url(#p18387400c4)" style="fill: none; stroke-dasharray: 5.55,2.4; stroke-dashoffset: 0; stroke: #808080; stroke-width: 1.5"/>
   </g>
   <g id="line2d_10">
    <path d="M 360.937722 226.523077 
L 374.132011 194.215385 
L 371.371324 161.907692 
L 382.536159 129.6 
L 382.060938 97.292308 
L 379.668683 64.984615 
L 372.094538 32.676923 
" clip-path="url(#p18387400c4)" style="fill: none; stroke: #ff7f50; stroke-width: 1.5; stroke-linecap: square"/>
   </g>
   <g id="line2d_11">
    <defs>
     <path id="m567d26b508" d="M 2.896197 -1.24666 
L 0.591984 -0.001028 
L 2.896197 1.252826 
L 2.524152 1.881809 
L 0.365879 0.578623 
L 0.365879 3 
L -0.365879 3 
L -0.365879 0.578623 
L -2.524152 1.881809 
L -2.896197 1.252826 
L -0.589928 -0.001028 
L -2.896197 -1.24666 
L -2.524152 -1.881809 
L -0.365879 -0.578623 
L -0.365879 -3 
L 0.365879 -3 
L 0.365879 -0.578623 
L 2.524152 -1.881809 
L 2.896197 -1.24666 
z
" style="stroke: #000000"/>
    </defs>
    <g clip-path="url(#p18387400c4)">
     <use xlink:href="#m567d26b508" x="367.902999" y="226.523077" style="stroke: #000000"/>
     <use xlink:href="#m567d26b508" x="381.410639" y="194.215385" style="stroke: #000000"/>
     <use xlink:href="#m567d26b508" x="377.208503" y="161.907692" style="stroke: #000000"/>
     <use xlink:href="#m567d26b508" x="390.026138" y="129.6" style="stroke: #000000"/>
     <use xlink:href="#m567d26b508" x="388.771553" y="97.292308" style="stroke: #000000"/>
     <use xlink:href="#m567d26b508" x="390.835938" y="64.984615" style="stroke: #000000"/>
     <use xlink:href="#m567d26b508" x="383.429684" y="32.676923" style="stroke: #000000"/>
    </g>
   </g>
   <g id="line2d_12">
    <path d="M 345.245151 226.523077 
L 391.520859 194.215385 
L 362.556917 161.907692 
L 403.868506 129.6 
L 391.858572 97.292308 
L 351.338533 64.984615 
L 353.58068 32.676923 
" clip-path="url(#p18387400c4)" style="fill: none; stroke: #ff7f50; stroke-opacity: 0.3; stroke-width: 1.5; stroke-linecap: square"/>
   </g>
   <g id="line2d_13">
    <path d="M 348.492084 226.523077 
L 373.229024 194.215385 
L 360.755092 161.907692 
L 368.3126 129.6 
L 374.9603 97.292308 
L 378.453371 64.984615 
L 367.508568 32.676923 
" clip-path="url(#p18387400c4)" style="fill: none; stroke: #ff7f50; stroke-opacity: 0.3; stroke-width: 1.5; stroke-linecap: square"/>
   </g>
   <g id="line2d_14">
    <path d="M 363.245262 226.523077 
L 374.335279 194.215385 
L 368.627127 161.907692 
L 374.808906 129.6 
L 366.010961 97.292308 
L 352.949417 64.984615 
L 356.185464 32.676923 
" clip-path="url(#p18387400c4)" style="fill: none; stroke: #ff7f50; stroke-opacity: 0.3; stroke-width: 1.5; stroke-linecap: square"/>
   </g>
   <g id="line2d_15">
    <path d="M 357.27717 226.523077 
L 360.179449 194.215385 
L 367.585611 161.907692 
L 364.585054 129.6 
L 398.427036 97.292308 
L 428.434534 64.984615 
L 392.686217 32.676923 
" clip-path="url(#p18387400c4)" style="fill: none; stroke: #ff7f50; stroke-opacity: 0.3; stroke-width: 1.5; stroke-linecap: square"/>
   </g>
   <g id="line2d_16">
    <path d="M 372.094804 226.523077 
L 372.968283 194.215385 
L 376.282048 161.907692 
L 382.778466 129.6 
L 378.010381 97.292308 
L 390.188756 64.984615 
L 419.126551 32.676923 
" clip-path="url(#p18387400c4)" style="fill: none; stroke: #ff7f50; stroke-opacity: 0.3; stroke-width: 1.5; stroke-linecap: square"/>
   </g>
   <g id="line2d_17">
    <path d="M 376.362481 226.523077 
L 351.309977 194.215385 
L 365.618632 161.907692 
L 373.20206 129.6 
L 371.728557 97.292308 
L 352.704747 64.984615 
L 373.492477 32.676923 
" clip-path="url(#p18387400c4)" style="fill: none; stroke: #ff7f50; stroke-opacity: 0.3; stroke-width: 1.5; stroke-linecap: square"/>
   </g>
   <g id="line2d_18">
    <path d="M 350.041317 226.523077 
L 381.951437 194.215385 
L 382.147322 161.907692 
L 401.090252 129.6 
L 382.9022 97.292308 
L 397.906384 64.984615 
L 336.590976 32.676923 
" clip-path="url(#p18387400c4)" style="fill: none; stroke: #ff7f50; stroke-opacity: 0.3; stroke-width: 1.5; stroke-linecap: square"/>
   </g>
   <g id="line2d_19">
    <path d="M 363.10144 226.523077 
L 366.620694 194.215385 
L 365.710342 161.907692 
L 377.35143 129.6 
L 387.267542 97.292308 
L 376.134832 64.984615 
L 370.765656 32.676923 
" clip-path="url(#p18387400c4)" style="fill: none; stroke: #ff7f50; stroke-opacity: 0.3; stroke-width: 1.5; stroke-linecap: square"/>
   </g>
   <g id="line2d_20">
    <path d="M 356.850362 226.523077 
L 374.836761 194.215385 
L 380.881712 161.907692 
L 382.784192 129.6 
L 388.466821 97.292308 
L 384.348415 64.984615 
L 356.645165 32.676923 
" clip-path="url(#p18387400c4)" style="fill: none; stroke: #ff7f50; stroke-opacity: 0.3; stroke-width: 1.5; stroke-linecap: square"/>
   </g>
   <g id="line2d_21">
    <path d="M 378.999317 226.523077 
L 370.032833 194.215385 
L 376.30265 161.907692 
L 382.530346 129.6 
L 377.34286 97.292308 
L 377.754416 64.984615 
L 364.268744 32.676923 
" clip-path="url(#p18387400c4)" style="fill: none; stroke: #ff7f50; stroke-opacity: 0.3; stroke-width: 1.5; stroke-linecap: square"/>
   </g>
   <g id="line2d_22">
    <path d="M 362.315792 226.523077 
L 382.715725 194.215385 
L 381.210034 161.907692 
L 385.500076 129.6 
L 373.606513 97.292308 
L 369.475891 64.984615 
L 402.084223 32.676923 
" clip-path="url(#p18387400c4)" style="fill: none; stroke: #ff7f50; stroke-opacity: 0.3; stroke-width: 1.5; stroke-linecap: square"/>
   </g>
   <g id="line2d_23">
    <path d="M 357.227486 226.523077 
L 389.883806 194.215385 
L 368.778402 161.907692 
L 393.622018 129.6 
L 394.149516 97.292308 
L 396.3349 64.984615 
L 372.199738 32.676923 
" clip-path="url(#p18387400c4)" style="fill: none; stroke: #ff7f50; stroke-opacity: 0.3; stroke-width: 1.5; stroke-linecap: square"/>
   </g>
   <g id="patch_3">
    <path d="M 294.4 230.4 
L 294.4 28.8 
" style="fill: none; stroke: #000000; stroke-width: 0.8; stroke-linejoin: miter; stroke-linecap: square"/>
   </g>
   <g id="patch_4">
    <path d="M 302.4 238.4 
L 410.4 238.4 
" style="fill: none; stroke: #000000; stroke-width: 0.8; stroke-linejoin: miter; stroke-linecap: square"/>
   </g>
   <g id="text_4">
    <!-- ctr-sur -->
    <g style="fill: #ff7f50" transform="translate(384.171429 216.830769) scale(0.12 -0.12)">
     <defs>
      <path id="DejaVuSans-63" d="M 3122 3366 
L 3122 2828 
Q 2878 2963 2633 3030 
Q 2388 3097 2138 3097 
Q 1578 3097 1268 2742 
Q 959 2388 959 1747 
Q 959 1106 1268 751 
Q 1578 397 2138 397 
Q 2388 397 2633 464 
Q 2878 531 3122 666 
L 3122 134 
Q 2881 22 2623 -34 
Q 2366 -91 2075 -91 
Q 1284 -91 818 406 
Q 353 903 353 1747 
Q 353 2603 823 3093 
Q 1294 3584 2113 3584 
Q 2378 3584 2631 3529 
Q 2884 3475 3122 3366 
z
" transform="scale(0.015625)"/>
      <path id="DejaVuSans-74" d="M 1172 4494 
L 1172 3500 
L 2356 3500 
L 2356 3053 
L 1172 3053 
L 1172 1153 
Q 1172 725 1289 603 
Q 1406 481 1766 481 
L 2356 481 
L 2356 0 
L 1766 0 
Q 1100 0 847 248 
Q 594 497 594 1153 
L 594 3053 
L 172 3053 
L 172 3500 
L 594 3500 
L 594 4494 
L 1172 4494 
z
" transform="scale(0.015625)"/>
      <path id="DejaVuSans-72" d="M 2631 2963 
Q 2534 3019 2420 3045 
Q 2306 3072 2169 3072 
Q 1681 3072 1420 2755 
Q 1159 2438 1159 1844 
L 1159 0 
L 581 0 
L 581 3500 
L 1159 3500 
L 1159 2956 
Q 1341 3275 1631 3429 
Q 1922 3584 2338 3584 
Q 2397 3584 2469 3576 
Q 2541 3569 2628 3553 
L 2631 2963 
z
" transform="scale(0.015625)"/>
      <path id="DejaVuSans-2d" d="M 313 2009 
L 1997 2009 
L 1997 1497 
L 313 1497 
L 313 2009 
z
" transform="scale(0.015625)"/>
      <path id="DejaVuSans-73" d="M 2834 3397 
L 2834 2853 
Q 2591 2978 2328 3040 
Q 2066 3103 1784 3103 
Q 1356 3103 1142 2972 
Q 928 2841 928 2578 
Q 928 2378 1081 2264 
Q 1234 2150 1697 2047 
L 1894 2003 
Q 2506 1872 2764 1633 
Q 3022 1394 3022 966 
Q 3022 478 2636 193 
Q 2250 -91 1575 -91 
Q 1294 -91 989 -36 
Q 684 19 347 128 
L 347 722 
Q 666 556 975 473 
Q 1284 391 1588 391 
Q 1994 391 2212 530 
Q 2431 669 2431 922 
Q 2431 1156 2273 1281 
Q 2116 1406 1581 1522 
L 1381 1569 
Q 847 1681 609 1914 
Q 372 2147 372 2553 
Q 372 3047 722 3315 
Q 1072 3584 1716 3584 
Q 2034 3584 2315 3537 
Q 2597 3491 2834 3397 
z
" transform="scale(0.015625)"/>
      <path id="DejaVuSans-75" d="M 544 1381 
L 544 3500 
L 1119 3500 
L 1119 1403 
Q 1119 906 1312 657 
Q 1506 409 1894 409 
Q 2359 409 2629 706 
Q 2900 1003 2900 1516 
L 2900 3500 
L 3475 3500 
L 3475 0 
L 2900 0 
L 2900 538 
Q 2691 219 2414 64 
Q 2138 -91 1772 -91 
Q 1169 -91 856 284 
Q 544 659 544 1381 
z
M 1991 3584 
L 1991 3584 
z
" transform="scale(0.015625)"/>
     </defs>
     <use xlink:href="#DejaVuSans-63"/>
     <use xlink:href="#DejaVuSans-74" x="54.980469"/>
     <use xlink:href="#DejaVuSans-72" x="94.189453"/>
     <use xlink:href="#DejaVuSans-2d" x="128.927734"/>
     <use xlink:href="#DejaVuSans-73" x="165.011719"/>
     <use xlink:href="#DejaVuSans-75" x="217.111328"/>
     <use xlink:href="#DejaVuSans-72" x="280.490234"/>
    </g>
   </g>
  </g>
 </g>
 <defs>
  <clipPath id="p18387400c4">
   <rect x="302.4" y="28.8" width="108" height="201.6"/>
  </clipPath>
 </defs>
</svg>
