<?xml version="1.0" encoding="utf-8" standalone="no"?>
<!DOCTYPE svg PUBLIC "-//W3C//DTD SVG 1.1//EN"
  "http://www.w3.org/Graphics/SVG/1.1/DTD/svg11.dtd">
<svg xmlns:xlink="http://www.w3.org/1999/xlink" width="360pt" height="432pt" viewBox="0 0 360 432" xmlns="http://www.w3.org/2000/svg" version="1.1">
 <metadata>
  <rdf:RDF xmlns:dc="http://purl.org/dc/elements/1.1/" xmlns:cc="http://creativecommons.org/ns#" xmlns:rdf="http://www.w3.org/1999/02/22-rdf-syntax-ns#">
   <cc:Work>
    <dc:type rdf:resource="http://purl.org/dc/dcmitype/StillImage"/>
    <dc:date>2024-09-16T16:34:36.647248</dc:date>
    <dc:format>image/svg+xml</dc:format>
    <dc:creator>
     <cc:Agent>
      <dc:title>Matplotlib v3.8.0, https://matplotlib.org/</dc:title>
     </cc:Agent>
    </dc:creator>
   </cc:Work>
  </rdf:RDF>
 </metadata>
 <defs>
  <style type="text/css">*{stroke-linejoin: round; stroke-linecap: butt}</style>
 </defs>
 <g id="figure_1">
  <g id="patch_1">
   <path d="M 0 432 
L 360 432 
L 360 0 
L 0 0 
z
" style="fill: #ffffff"/>
  </g>
  <g id="axes_1">
   <g id="patch_2">
    <path d="M 54 388.8 
L 306 388.8 
L 306 280.8 
L 54 280.8 
z
" style="fill: #ffffff"/>
   </g>
   <g id="PolyCollection_1">
    <defs>
     <path id="m3a316a8945" d="M 65.454545 -107.927319 
L 65.454545 -95.580043 
L 70.12987 -95.580043 
L 74.805195 -95.687253 
L 79.480519 -95.657009 
L 84.155844 -95.641047 
L 88.831169 -95.093078 
L 93.506494 -95.008479 
L 98.181818 -95.317899 
L 102.857143 -95.650005 
L 107.532468 -95.578571 
L 112.207792 -95.603338 
L 116.883117 -95.776423 
L 121.558442 -96.184228 
L 126.233766 -96.830477 
L 130.909091 -97.261683 
L 135.584416 -97.440271 
L 140.25974 -97.817642 
L 144.935065 -97.795157 
L 149.61039 -98.063677 
L 154.285714 -98.047434 
L 158.961039 -98.003135 
L 163.636364 -98.095591 
L 168.311688 -98.377105 
L 172.987013 -98.392268 
L 177.662338 -98.394892 
L 182.337662 -98.471938 
L 187.012987 -98.623005 
L 191.688312 -98.847463 
L 196.363636 -99.095473 
L 201.038961 -99.038029 
L 205.714286 -99.155041 
L 210.38961 -99.15887 
L 215.064935 -98.915219 
L 219.74026 -98.559345 
L 224.415584 -98.380557 
L 229.090909 -98.152802 
L 233.766234 -97.914171 
L 238.441558 -97.44262 
L 243.116883 -97.069744 
L 247.792208 -96.818283 
L 252.467532 -96.558546 
L 257.142857 -95.936784 
L 261.818182 -95.144991 
L 266.493506 -94.153412 
L 271.168831 -93.361693 
L 275.844156 -92.752731 
L 280.519481 -92.034381 
L 285.194805 -91.561997 
L 289.87013 -91.337934 
L 294.545455 -91.576414 
L 294.545455 -110.110661 
L 294.545455 -110.110661 
L 289.87013 -109.77466 
L 285.194805 -110.106393 
L 280.519481 -110.849038 
L 275.844156 -111.828017 
L 271.168831 -112.709615 
L 266.493506 -113.680493 
L 261.818182 -114.785413 
L 257.142857 -115.380121 
L 252.467532 -115.708298 
L 247.792208 -115.767064 
L 243.116883 -115.922405 
L 238.441558 -116.434808 
L 233.766234 -116.839836 
L 229.090909 -116.766716 
L 224.415584 -116.669642 
L 219.74026 -116.24865 
L 215.064935 -115.953344 
L 210.38961 -115.526368 
L 205.714286 -114.81651 
L 201.038961 -114.142135 
L 196.363636 -114.043377 
L 191.688312 -113.663312 
L 187.012987 -113.219054 
L 182.337662 -113.43923 
L 177.662338 -113.759982 
L 172.987013 -114.014741 
L 168.311688 -114.104397 
L 163.636364 -113.855318 
L 158.961039 -113.539252 
L 154.285714 -113.600998 
L 149.61039 -113.200819 
L 144.935065 -112.475499 
L 140.25974 -112.279152 
L 135.584416 -111.928311 
L 130.909091 -111.861632 
L 126.233766 -111.129862 
L 121.558442 -110.187641 
L 116.883117 -109.599588 
L 112.207792 -109.158656 
L 107.532468 -108.849908 
L 102.857143 -108.628343 
L 98.181818 -107.888819 
L 93.506494 -106.927045 
L 88.831169 -106.571563 
L 84.155844 -106.904893 
L 79.480519 -107.555577 
L 74.805195 -108.030187 
L 70.12987 -107.927319 
L 65.454545 -107.927319 
z
"/>
    </defs>
    <g clip-path="url(#pd177571a54)">
     <use xlink:href="#m3a316a8945" x="0" y="432" style="fill: #00ffff; fill-opacity: 0.4"/>
    </g>
   </g>
   <g id="matplotlib.axis_1">
    <g id="xtick_1">
     <g id="line2d_1">
      <defs>
       <path id="m58e909bf84" d="M 0 0 
L 0 3.5 
" style="stroke: #000000; stroke-width: 0.8"/>
      </defs>
      <g>
       <use xlink:href="#m58e909bf84" x="65.454545" y="396.8" style="stroke: #000000; stroke-width: 0.8"/>
      </g>
     </g>
     <g id="text_1">
      <!-- 0 -->
      <g transform="translate(62.273295 411.398438) scale(0.1 -0.1)">
       <defs>
        <path id="DejaVuSans-30" d="M 2034 4250 
Q 1547 4250 1301 3770 
Q 1056 3291 1056 2328 
Q 1056 1369 1301 889 
Q 1547 409 2034 409 
Q 2525 409 2770 889 
Q 3016 1369 3016 2328 
Q 3016 3291 2770 3770 
Q 2525 4250 2034 4250 
z
M 2034 4750 
Q 2819 4750 3233 4129 
Q 3647 3509 3647 2328 
Q 3647 1150 3233 529 
Q 2819 -91 2034 -91 
Q 1250 -91 836 529 
Q 422 1150 422 2328 
Q 422 3509 836 4129 
Q 1250 4750 2034 4750 
z
" transform="scale(0.015625)"/>
       </defs>
       <use xlink:href="#DejaVuSans-30"/>
      </g>
     </g>
    </g>
    <g id="xtick_2">
     <g id="line2d_2">
      <g>
       <use xlink:href="#m58e909bf84" x="122.727273" y="396.8" style="stroke: #000000; stroke-width: 0.8"/>
      </g>
     </g>
     <g id="text_2">
      <!-- 1 -->
      <g transform="translate(119.546023 411.398438) scale(0.1 -0.1)">
       <defs>
        <path id="DejaVuSans-31" d="M 794 531 
L 1825 531 
L 1825 4091 
L 703 3866 
L 703 4441 
L 1819 4666 
L 2450 4666 
L 2450 531 
L 3481 531 
L 3481 0 
L 794 0 
L 794 531 
z
" transform="scale(0.015625)"/>
       </defs>
       <use xlink:href="#DejaVuSans-31"/>
      </g>
     </g>
    </g>
    <g id="xtick_3">
     <g id="line2d_3">
      <g>
       <use xlink:href="#m58e909bf84" x="180" y="396.8" style="stroke: #000000; stroke-width: 0.8"/>
      </g>
     </g>
     <g id="text_3">
      <!-- 2 -->
      <g transform="translate(176.81875 411.398438) scale(0.1 -0.1)">
       <defs>
        <path id="DejaVuSans-32" d="M 1228 531 
L 3431 531 
L 3431 0 
L 469 0 
L 469 531 
Q 828 903 1448 1529 
Q 2069 2156 2228 2338 
Q 2531 2678 2651 2914 
Q 2772 3150 2772 3378 
Q 2772 3750 2511 3984 
Q 2250 4219 1831 4219 
Q 1534 4219 1204 4116 
Q 875 4013 500 3803 
L 500 4441 
Q 881 4594 1212 4672 
Q 1544 4750 1819 4750 
Q 2544 4750 2975 4387 
Q 3406 4025 3406 3419 
Q 3406 3131 3298 2873 
Q 3191 2616 2906 2266 
Q 2828 2175 2409 1742 
Q 1991 1309 1228 531 
z
" transform="scale(0.015625)"/>
       </defs>
       <use xlink:href="#DejaVuSans-32"/>
      </g>
     </g>
    </g>
    <g id="xtick_4">
     <g id="line2d_4">
      <g>
       <use xlink:href="#m58e909bf84" x="237.272727" y="396.8" style="stroke: #000000; stroke-width: 0.8"/>
      </g>
     </g>
     <g id="text_4">
      <!-- 3 -->
      <g transform="translate(234.091477 411.398438) scale(0.1 -0.1)">
       <defs>
        <path id="DejaVuSans-33" d="M 2597 2516 
Q 3050 2419 3304 2112 
Q 3559 1806 3559 1356 
Q 3559 666 3084 287 
Q 2609 -91 1734 -91 
Q 1441 -91 1130 -33 
Q 819 25 488 141 
L 488 750 
Q 750 597 1062 519 
Q 1375 441 1716 441 
Q 2309 441 2620 675 
Q 2931 909 2931 1356 
Q 2931 1769 2642 2001 
Q 2353 2234 1838 2234 
L 1294 2234 
L 1294 2753 
L 1863 2753 
Q 2328 2753 2575 2939 
Q 2822 3125 2822 3475 
Q 2822 3834 2567 4026 
Q 2313 4219 1838 4219 
Q 1578 4219 1281 4162 
Q 984 4106 628 3988 
L 628 4550 
Q 988 4650 1302 4700 
Q 1616 4750 1894 4750 
Q 2613 4750 3031 4423 
Q 3450 4097 3450 3541 
Q 3450 3153 3228 2886 
Q 3006 2619 2597 2516 
z
" transform="scale(0.015625)"/>
       </defs>
       <use xlink:href="#DejaVuSans-33"/>
      </g>
     </g>
    </g>
    <g id="xtick_5">
     <g id="line2d_5">
      <g>
       <use xlink:href="#m58e909bf84" x="294.545455" y="396.8" style="stroke: #000000; stroke-width: 0.8"/>
      </g>
     </g>
     <g id="text_5">
      <!-- 4 -->
      <g transform="translate(291.364205 411.398438) scale(0.1 -0.1)">
       <defs>
        <path id="DejaVuSans-34" d="M 2419 4116 
L 825 1625 
L 2419 1625 
L 2419 4116 
z
M 2253 4666 
L 3047 4666 
L 3047 1625 
L 3713 1625 
L 3713 1100 
L 3047 1100 
L 3047 0 
L 2419 0 
L 2419 1100 
L 313 1100 
L 313 1709 
L 2253 4666 
z
" transform="scale(0.015625)"/>
       </defs>
       <use xlink:href="#DejaVuSans-34"/>
      </g>
     </g>
    </g>
    <g id="text_6">
     <!-- relative distance from ROI center ($\sigma$) -->
     <g transform="translate(69.72 426.59625) scale(0.12 -0.12)">
      <defs>
       <path id="DejaVuSans-72" d="M 2631 2963 
Q 2534 3019 2420 3045 
Q 2306 3072 2169 3072 
Q 1681 3072 1420 2755 
Q 1159 2438 1159 1844 
L 1159 0 
L 581 0 
L 581 3500 
L 1159 3500 
L 1159 2956 
Q 1341 3275 1631 3429 
Q 1922 3584 2338 3584 
Q 2397 3584 2469 3576 
Q 2541 3569 2628 3553 
L 2631 2963 
z
" transform="scale(0.015625)"/>
       <path id="DejaVuSans-65" d="M 3597 1894 
L 3597 1613 
L 953 1613 
Q 991 1019 1311 708 
Q 1631 397 2203 397 
Q 2534 397 2845 478 
Q 3156 559 3463 722 
L 3463 178 
Q 3153 47 2828 -22 
Q 2503 -91 2169 -91 
Q 1331 -91 842 396 
Q 353 884 353 1716 
Q 353 2575 817 3079 
Q 1281 3584 2069 3584 
Q 2775 3584 3186 3129 
Q 3597 2675 3597 1894 
z
M 3022 2063 
Q 3016 2534 2758 2815 
Q 2500 3097 2075 3097 
Q 1594 3097 1305 2825 
Q 1016 2553 972 2059 
L 3022 2063 
z
" transform="scale(0.015625)"/>
       <path id="DejaVuSans-6c" d="M 603 4863 
L 1178 4863 
L 1178 0 
L 603 0 
L 603 4863 
z
" transform="scale(0.015625)"/>
       <path id="DejaVuSans-61" d="M 2194 1759 
Q 1497 1759 1228 1600 
Q 959 1441 959 1056 
Q 959 750 1161 570 
Q 1363 391 1709 391 
Q 2188 391 2477 730 
Q 2766 1069 2766 1631 
L 2766 1759 
L 2194 1759 
z
M 3341 1997 
L 3341 0 
L 2766 0 
L 2766 531 
Q 2569 213 2275 61 
Q 1981 -91 1556 -91 
Q 1019 -91 701 211 
Q 384 513 384 1019 
Q 384 1609 779 1909 
Q 1175 2209 1959 2209 
L 2766 2209 
L 2766 2266 
Q 2766 2663 2505 2880 
Q 2244 3097 1772 3097 
Q 1472 3097 1187 3025 
Q 903 2953 641 2809 
L 641 3341 
Q 956 3463 1253 3523 
Q 1550 3584 1831 3584 
Q 2591 3584 2966 3190 
Q 3341 2797 3341 1997 
z
" transform="scale(0.015625)"/>
       <path id="DejaVuSans-74" d="M 1172 4494 
L 1172 3500 
L 2356 3500 
L 2356 3053 
L 1172 3053 
L 1172 1153 
Q 1172 725 1289 603 
Q 1406 481 1766 481 
L 2356 481 
L 2356 0 
L 1766 0 
Q 1100 0 847 248 
Q 594 497 594 1153 
L 594 3053 
L 172 3053 
L 172 3500 
L 594 3500 
L 594 4494 
L 1172 4494 
z
" transform="scale(0.015625)"/>
       <path id="DejaVuSans-69" d="M 603 3500 
L 1178 3500 
L 1178 0 
L 603 0 
L 603 3500 
z
M 603 4863 
L 1178 4863 
L 1178 4134 
L 603 4134 
L 603 4863 
z
" transform="scale(0.015625)"/>
       <path id="DejaVuSans-76" d="M 191 3500 
L 800 3500 
L 1894 563 
L 2988 3500 
L 3597 3500 
L 2284 0 
L 1503 0 
L 191 3500 
z
" transform="scale(0.015625)"/>
       <path id="DejaVuSans-20" transform="scale(0.015625)"/>
       <path id="DejaVuSans-64" d="M 2906 2969 
L 2906 4863 
L 3481 4863 
L 3481 0 
L 2906 0 
L 2906 525 
Q 2725 213 2448 61 
Q 2172 -91 1784 -91 
Q 1150 -91 751 415 
Q 353 922 353 1747 
Q 353 2572 751 3078 
Q 1150 3584 1784 3584 
Q 2172 3584 2448 3432 
Q 2725 3281 2906 2969 
z
M 947 1747 
Q 947 1113 1208 752 
Q 1469 391 1925 391 
Q 2381 391 2643 752 
Q 2906 1113 2906 1747 
Q 2906 2381 2643 2742 
Q 2381 3103 1925 3103 
Q 1469 3103 1208 2742 
Q 947 2381 947 1747 
z
" transform="scale(0.015625)"/>
       <path id="DejaVuSans-73" d="M 2834 3397 
L 2834 2853 
Q 2591 2978 2328 3040 
Q 2066 3103 1784 3103 
Q 1356 3103 1142 2972 
Q 928 2841 928 2578 
Q 928 2378 1081 2264 
Q 1234 2150 1697 2047 
L 1894 2003 
Q 2506 1872 2764 1633 
Q 3022 1394 3022 966 
Q 3022 478 2636 193 
Q 2250 -91 1575 -91 
Q 1294 -91 989 -36 
Q 684 19 347 128 
L 347 722 
Q 666 556 975 473 
Q 1284 391 1588 391 
Q 1994 391 2212 530 
Q 2431 669 2431 922 
Q 2431 1156 2273 1281 
Q 2116 1406 1581 1522 
L 1381 1569 
Q 847 1681 609 1914 
Q 372 2147 372 2553 
Q 372 3047 722 3315 
Q 1072 3584 1716 3584 
Q 2034 3584 2315 3537 
Q 2597 3491 2834 3397 
z
" transform="scale(0.015625)"/>
       <path id="DejaVuSans-6e" d="M 3513 2113 
L 3513 0 
L 2938 0 
L 2938 2094 
Q 2938 2591 2744 2837 
Q 2550 3084 2163 3084 
Q 1697 3084 1428 2787 
Q 1159 2491 1159 1978 
L 1159 0 
L 581 0 
L 581 3500 
L 1159 3500 
L 1159 2956 
Q 1366 3272 1645 3428 
Q 1925 3584 2291 3584 
Q 2894 3584 3203 3211 
Q 3513 2838 3513 2113 
z
" transform="scale(0.015625)"/>
       <path id="DejaVuSans-63" d="M 3122 3366 
L 3122 2828 
Q 2878 2963 2633 3030 
Q 2388 3097 2138 3097 
Q 1578 3097 1268 2742 
Q 959 2388 959 1747 
Q 959 1106 1268 751 
Q 1578 397 2138 397 
Q 2388 397 2633 464 
Q 2878 531 3122 666 
L 3122 134 
Q 2881 22 2623 -34 
Q 2366 -91 2075 -91 
Q 1284 -91 818 406 
Q 353 903 353 1747 
Q 353 2603 823 3093 
Q 1294 3584 2113 3584 
Q 2378 3584 2631 3529 
Q 2884 3475 3122 3366 
z
" transform="scale(0.015625)"/>
       <path id="DejaVuSans-66" d="M 2375 4863 
L 2375 4384 
L 1825 4384 
Q 1516 4384 1395 4259 
Q 1275 4134 1275 3809 
L 1275 3500 
L 2222 3500 
L 2222 3053 
L 1275 3053 
L 1275 0 
L 697 0 
L 697 3053 
L 147 3053 
L 147 3500 
L 697 3500 
L 697 3744 
Q 697 4328 969 4595 
Q 1241 4863 1831 4863 
L 2375 4863 
z
" transform="scale(0.015625)"/>
       <path id="DejaVuSans-6f" d="M 1959 3097 
Q 1497 3097 1228 2736 
Q 959 2375 959 1747 
Q 959 1119 1226 758 
Q 1494 397 1959 397 
Q 2419 397 2687 759 
Q 2956 1122 2956 1747 
Q 2956 2369 2687 2733 
Q 2419 3097 1959 3097 
z
M 1959 3584 
Q 2709 3584 3137 3096 
Q 3566 2609 3566 1747 
Q 3566 888 3137 398 
Q 2709 -91 1959 -91 
Q 1206 -91 779 398 
Q 353 888 353 1747 
Q 353 2609 779 3096 
Q 1206 3584 1959 3584 
z
" transform="scale(0.015625)"/>
       <path id="DejaVuSans-6d" d="M 3328 2828 
Q 3544 3216 3844 3400 
Q 4144 3584 4550 3584 
Q 5097 3584 5394 3201 
Q 5691 2819 5691 2113 
L 5691 0 
L 5113 0 
L 5113 2094 
Q 5113 2597 4934 2840 
Q 4756 3084 4391 3084 
Q 3944 3084 3684 2787 
Q 3425 2491 3425 1978 
L 3425 0 
L 2847 0 
L 2847 2094 
Q 2847 2600 2669 2842 
Q 2491 3084 2119 3084 
Q 1678 3084 1418 2786 
Q 1159 2488 1159 1978 
L 1159 0 
L 581 0 
L 581 3500 
L 1159 3500 
L 1159 2956 
Q 1356 3278 1631 3431 
Q 1906 3584 2284 3584 
Q 2666 3584 2933 3390 
Q 3200 3197 3328 2828 
z
" transform="scale(0.015625)"/>
       <path id="DejaVuSans-52" d="M 2841 2188 
Q 3044 2119 3236 1894 
Q 3428 1669 3622 1275 
L 4263 0 
L 3584 0 
L 2988 1197 
Q 2756 1666 2539 1819 
Q 2322 1972 1947 1972 
L 1259 1972 
L 1259 0 
L 628 0 
L 628 4666 
L 2053 4666 
Q 2853 4666 3247 4331 
Q 3641 3997 3641 3322 
Q 3641 2881 3436 2590 
Q 3231 2300 2841 2188 
z
M 1259 4147 
L 1259 2491 
L 2053 2491 
Q 2509 2491 2742 2702 
Q 2975 2913 2975 3322 
Q 2975 3731 2742 3939 
Q 2509 4147 2053 4147 
L 1259 4147 
z
" transform="scale(0.015625)"/>
       <path id="DejaVuSans-4f" d="M 2522 4238 
Q 1834 4238 1429 3725 
Q 1025 3213 1025 2328 
Q 1025 1447 1429 934 
Q 1834 422 2522 422 
Q 3209 422 3611 934 
Q 4013 1447 4013 2328 
Q 4013 3213 3611 3725 
Q 3209 4238 2522 4238 
z
M 2522 4750 
Q 3503 4750 4090 4092 
Q 4678 3434 4678 2328 
Q 4678 1225 4090 567 
Q 3503 -91 2522 -91 
Q 1538 -91 948 565 
Q 359 1222 359 2328 
Q 359 3434 948 4092 
Q 1538 4750 2522 4750 
z
" transform="scale(0.015625)"/>
       <path id="DejaVuSans-49" d="M 628 4666 
L 1259 4666 
L 1259 0 
L 628 0 
L 628 4666 
z
" transform="scale(0.015625)"/>
       <path id="DejaVuSans-28" d="M 1984 4856 
Q 1566 4138 1362 3434 
Q 1159 2731 1159 2009 
Q 1159 1288 1364 580 
Q 1569 -128 1984 -844 
L 1484 -844 
Q 1016 -109 783 600 
Q 550 1309 550 2009 
Q 550 2706 781 3412 
Q 1013 4119 1484 4856 
L 1984 4856 
z
" transform="scale(0.015625)"/>
       <path id="DejaVuSans-Oblique-3c3" d="M 2219 3044 
Q 1744 3044 1422 2700 
Q 1081 2341 969 1747 
Q 844 1119 1044 756 
Q 1241 397 1706 397 
Q 2166 397 2503 759 
Q 2844 1122 2966 1747 
Q 3075 2319 2881 2700 
Q 2700 3044 2219 3044 
z
M 2309 3503 
L 4219 3500 
L 4106 2925 
L 3463 2925 
Q 3706 2438 3575 1747 
Q 3406 888 2884 400 
Q 2359 -91 1609 -91 
Q 856 -91 525 400 
Q 194 888 363 1747 
Q 528 2609 1050 3097 
Q 1484 3503 2309 3503 
z
" transform="scale(0.015625)"/>
       <path id="DejaVuSans-29" d="M 513 4856 
L 1013 4856 
Q 1481 4119 1714 3412 
Q 1947 2706 1947 2009 
Q 1947 1309 1714 600 
Q 1481 -109 1013 -844 
L 513 -844 
Q 928 -128 1133 580 
Q 1338 1288 1338 2009 
Q 1338 2731 1133 3434 
Q 928 4138 513 4856 
z
" transform="scale(0.015625)"/>
      </defs>
      <use xlink:href="#DejaVuSans-72" transform="translate(0 0.015625)"/>
      <use xlink:href="#DejaVuSans-65" transform="translate(41.113281 0.015625)"/>
      <use xlink:href="#DejaVuSans-6c" transform="translate(102.636719 0.015625)"/>
      <use xlink:href="#DejaVuSans-61" transform="translate(130.419922 0.015625)"/>
      <use xlink:href="#DejaVuSans-74" transform="translate(191.699219 0.015625)"/>
      <use xlink:href="#DejaVuSans-69" transform="translate(230.908203 0.015625)"/>
      <use xlink:href="#DejaVuSans-76" transform="translate(258.691406 0.015625)"/>
      <use xlink:href="#DejaVuSans-65" transform="translate(317.871094 0.015625)"/>
      <use xlink:href="#DejaVuSans-20" transform="translate(379.394531 0.015625)"/>
      <use xlink:href="#DejaVuSans-64" transform="translate(411.181641 0.015625)"/>
      <use xlink:href="#DejaVuSans-69" transform="translate(474.658203 0.015625)"/>
      <use xlink:href="#DejaVuSans-73" transform="translate(502.441406 0.015625)"/>
      <use xlink:href="#DejaVuSans-74" transform="translate(554.541016 0.015625)"/>
      <use xlink:href="#DejaVuSans-61" transform="translate(593.75 0.015625)"/>
      <use xlink:href="#DejaVuSans-6e" transform="translate(655.029297 0.015625)"/>
      <use xlink:href="#DejaVuSans-63" transform="translate(718.408203 0.015625)"/>
      <use xlink:href="#DejaVuSans-65" transform="translate(773.388672 0.015625)"/>
      <use xlink:href="#DejaVuSans-20" transform="translate(834.912109 0.015625)"/>
      <use xlink:href="#DejaVuSans-66" transform="translate(866.699219 0.015625)"/>
      <use xlink:href="#DejaVuSans-72" transform="translate(901.904297 0.015625)"/>
      <use xlink:href="#DejaVuSans-6f" transform="translate(943.017578 0.015625)"/>
      <use xlink:href="#DejaVuSans-6d" transform="translate(1004.199219 0.015625)"/>
      <use xlink:href="#DejaVuSans-20" transform="translate(1101.611328 0.015625)"/>
      <use xlink:href="#DejaVuSans-52" transform="translate(1133.398438 0.015625)"/>
      <use xlink:href="#DejaVuSans-4f" transform="translate(1202.880859 0.015625)"/>
      <use xlink:href="#DejaVuSans-49" transform="translate(1281.591797 0.015625)"/>
      <use xlink:href="#DejaVuSans-20" transform="translate(1311.083984 0.015625)"/>
      <use xlink:href="#DejaVuSans-63" transform="translate(1342.871094 0.015625)"/>
      <use xlink:href="#DejaVuSans-65" transform="translate(1397.851562 0.015625)"/>
      <use xlink:href="#DejaVuSans-6e" transform="translate(1459.375 0.015625)"/>
      <use xlink:href="#DejaVuSans-74" transform="translate(1522.753906 0.015625)"/>
      <use xlink:href="#DejaVuSans-65" transform="translate(1561.962891 0.015625)"/>
      <use xlink:href="#DejaVuSans-72" transform="translate(1623.486328 0.015625)"/>
      <use xlink:href="#DejaVuSans-20" transform="translate(1664.599609 0.015625)"/>
      <use xlink:href="#DejaVuSans-28" transform="translate(1696.386719 0.015625)"/>
      <use xlink:href="#DejaVuSans-Oblique-3c3" transform="translate(1735.400391 0.015625)"/>
      <use xlink:href="#DejaVuSans-29" transform="translate(1798.779297 0.015625)"/>
     </g>
    </g>
   </g>
   <g id="matplotlib.axis_2">
    <g id="ytick_1">
     <g id="line2d_6">
      <defs>
       <path id="me9b883239b" d="M 0 0 
L -3.5 0 
" style="stroke: #000000; stroke-width: 0.8"/>
      </defs>
      <g>
       <use xlink:href="#me9b883239b" x="46" y="388.8" style="stroke: #000000; stroke-width: 0.8"/>
      </g>
     </g>
     <g id="text_7">
      <!-- −1 -->
      <g transform="translate(24.257812 392.599219) scale(0.1 -0.1)">
       <defs>
        <path id="DejaVuSans-2212" d="M 678 2272 
L 4684 2272 
L 4684 1741 
L 678 1741 
L 678 2272 
z
" transform="scale(0.015625)"/>
       </defs>
       <use xlink:href="#DejaVuSans-2212"/>
       <use xlink:href="#DejaVuSans-31" x="83.789062"/>
      </g>
     </g>
    </g>
    <g id="ytick_2">
     <g id="line2d_7">
      <g>
       <use xlink:href="#me9b883239b" x="46" y="352.8" style="stroke: #000000; stroke-width: 0.8"/>
      </g>
     </g>
     <g id="text_8">
      <!-- 0 -->
      <g transform="translate(32.6375 356.599219) scale(0.1 -0.1)">
       <use xlink:href="#DejaVuSans-30"/>
      </g>
     </g>
    </g>
    <g id="ytick_3">
     <g id="line2d_8">
      <g>
       <use xlink:href="#me9b883239b" x="46" y="316.8" style="stroke: #000000; stroke-width: 0.8"/>
      </g>
     </g>
     <g id="text_9">
      <!-- 1 -->
      <g transform="translate(32.6375 320.599219) scale(0.1 -0.1)">
       <use xlink:href="#DejaVuSans-31"/>
      </g>
     </g>
    </g>
    <g id="ytick_4">
     <g id="line2d_9">
      <g>
       <use xlink:href="#me9b883239b" x="46" y="280.8" style="stroke: #000000; stroke-width: 0.8"/>
      </g>
     </g>
     <g id="text_10">
      <!-- 2 -->
      <g transform="translate(32.6375 284.599219) scale(0.1 -0.1)">
       <use xlink:href="#DejaVuSans-32"/>
      </g>
     </g>
    </g>
    <g id="text_11">
     <!-- $\Delta$ BOLD % change -->
     <g transform="translate(17.737812 389.22) rotate(-90) scale(0.12 -0.12)">
      <defs>
       <path id="DejaVuSans-394" d="M 2188 4044 
L 906 525 
L 3472 525 
L 2188 4044 
z
M 50 0 
L 1831 4666 
L 2547 4666 
L 4325 0 
L 50 0 
z
" transform="scale(0.015625)"/>
       <path id="DejaVuSans-42" d="M 1259 2228 
L 1259 519 
L 2272 519 
Q 2781 519 3026 730 
Q 3272 941 3272 1375 
Q 3272 1813 3026 2020 
Q 2781 2228 2272 2228 
L 1259 2228 
z
M 1259 4147 
L 1259 2741 
L 2194 2741 
Q 2656 2741 2882 2914 
Q 3109 3088 3109 3444 
Q 3109 3797 2882 3972 
Q 2656 4147 2194 4147 
L 1259 4147 
z
M 628 4666 
L 2241 4666 
Q 2963 4666 3353 4366 
Q 3744 4066 3744 3513 
Q 3744 3084 3544 2831 
Q 3344 2578 2956 2516 
Q 3422 2416 3680 2098 
Q 3938 1781 3938 1306 
Q 3938 681 3513 340 
Q 3088 0 2303 0 
L 628 0 
L 628 4666 
z
" transform="scale(0.015625)"/>
       <path id="DejaVuSans-4c" d="M 628 4666 
L 1259 4666 
L 1259 531 
L 3531 531 
L 3531 0 
L 628 0 
L 628 4666 
z
" transform="scale(0.015625)"/>
       <path id="DejaVuSans-44" d="M 1259 4147 
L 1259 519 
L 2022 519 
Q 2988 519 3436 956 
Q 3884 1394 3884 2338 
Q 3884 3275 3436 3711 
Q 2988 4147 2022 4147 
L 1259 4147 
z
M 628 4666 
L 1925 4666 
Q 3281 4666 3915 4102 
Q 4550 3538 4550 2338 
Q 4550 1131 3912 565 
Q 3275 0 1925 0 
L 628 0 
L 628 4666 
z
" transform="scale(0.015625)"/>
       <path id="DejaVuSans-25" d="M 4653 2053 
Q 4381 2053 4226 1822 
Q 4072 1591 4072 1178 
Q 4072 772 4226 539 
Q 4381 306 4653 306 
Q 4919 306 5073 539 
Q 5228 772 5228 1178 
Q 5228 1588 5073 1820 
Q 4919 2053 4653 2053 
z
M 4653 2450 
Q 5147 2450 5437 2106 
Q 5728 1763 5728 1178 
Q 5728 594 5436 251 
Q 5144 -91 4653 -91 
Q 4153 -91 3862 251 
Q 3572 594 3572 1178 
Q 3572 1766 3864 2108 
Q 4156 2450 4653 2450 
z
M 1428 4353 
Q 1159 4353 1004 4120 
Q 850 3888 850 3481 
Q 850 3069 1003 2837 
Q 1156 2606 1428 2606 
Q 1700 2606 1854 2837 
Q 2009 3069 2009 3481 
Q 2009 3884 1853 4118 
Q 1697 4353 1428 4353 
z
M 4250 4750 
L 4750 4750 
L 1831 -91 
L 1331 -91 
L 4250 4750 
z
M 1428 4750 
Q 1922 4750 2215 4408 
Q 2509 4066 2509 3481 
Q 2509 2891 2217 2550 
Q 1925 2209 1428 2209 
Q 931 2209 642 2551 
Q 353 2894 353 3481 
Q 353 4063 643 4406 
Q 934 4750 1428 4750 
z
" transform="scale(0.015625)"/>
       <path id="DejaVuSans-68" d="M 3513 2113 
L 3513 0 
L 2938 0 
L 2938 2094 
Q 2938 2591 2744 2837 
Q 2550 3084 2163 3084 
Q 1697 3084 1428 2787 
Q 1159 2491 1159 1978 
L 1159 0 
L 581 0 
L 581 4863 
L 1159 4863 
L 1159 2956 
Q 1366 3272 1645 3428 
Q 1925 3584 2291 3584 
Q 2894 3584 3203 3211 
Q 3513 2838 3513 2113 
z
" transform="scale(0.015625)"/>
       <path id="DejaVuSans-67" d="M 2906 1791 
Q 2906 2416 2648 2759 
Q 2391 3103 1925 3103 
Q 1463 3103 1205 2759 
Q 947 2416 947 1791 
Q 947 1169 1205 825 
Q 1463 481 1925 481 
Q 2391 481 2648 825 
Q 2906 1169 2906 1791 
z
M 3481 434 
Q 3481 -459 3084 -895 
Q 2688 -1331 1869 -1331 
Q 1566 -1331 1297 -1286 
Q 1028 -1241 775 -1147 
L 775 -588 
Q 1028 -725 1275 -790 
Q 1522 -856 1778 -856 
Q 2344 -856 2625 -561 
Q 2906 -266 2906 331 
L 2906 616 
Q 2728 306 2450 153 
Q 2172 0 1784 0 
Q 1141 0 747 490 
Q 353 981 353 1791 
Q 353 2603 747 3093 
Q 1141 3584 1784 3584 
Q 2172 3584 2450 3431 
Q 2728 3278 2906 2969 
L 2906 3500 
L 3481 3500 
L 3481 434 
z
" transform="scale(0.015625)"/>
      </defs>
      <use xlink:href="#DejaVuSans-394" transform="translate(0 0.015625)"/>
      <use xlink:href="#DejaVuSans-20" transform="translate(68.408203 0.015625)"/>
      <use xlink:href="#DejaVuSans-42" transform="translate(100.195312 0.015625)"/>
      <use xlink:href="#DejaVuSans-4f" transform="translate(168.798828 0.015625)"/>
      <use xlink:href="#DejaVuSans-4c" transform="translate(247.509766 0.015625)"/>
      <use xlink:href="#DejaVuSans-44" transform="translate(303.222656 0.015625)"/>
      <use xlink:href="#DejaVuSans-20" transform="translate(380.224609 0.015625)"/>
      <use xlink:href="#DejaVuSans-25" transform="translate(412.011719 0.015625)"/>
      <use xlink:href="#DejaVuSans-20" transform="translate(507.03125 0.015625)"/>
      <use xlink:href="#DejaVuSans-63" transform="translate(538.818359 0.015625)"/>
      <use xlink:href="#DejaVuSans-68" transform="translate(593.798828 0.015625)"/>
      <use xlink:href="#DejaVuSans-61" transform="translate(657.177734 0.015625)"/>
      <use xlink:href="#DejaVuSans-6e" transform="translate(718.457031 0.015625)"/>
      <use xlink:href="#DejaVuSans-67" transform="translate(781.835938 0.015625)"/>
      <use xlink:href="#DejaVuSans-65" transform="translate(845.3125 0.015625)"/>
     </g>
    </g>
   </g>
   <g id="line2d_10">
    <path d="M 180 388.8 
L 180 136.8 
" clip-path="url(#pd177571a54)" style="fill: none; stroke-dasharray: 5.55,2.4; stroke-dashoffset: 0; stroke: #4c4c4c; stroke-width: 1.5"/>
   </g>
   <g id="LineCollection_1">
    <path d="M 65.454545 352.8 
L 294.545455 352.8 
" clip-path="url(#pd177571a54)" style="fill: none; stroke-dasharray: 5.55,2.4; stroke-dashoffset: 0; stroke: #4c4c4c; stroke-width: 1.5"/>
   </g>
   <g id="line2d_11">
    <path d="M 65.454545 330.246319 
L 70.12987 330.246319 
L 74.805195 330.14128 
L 79.480519 330.393707 
L 84.155844 330.72703 
L 88.831169 331.16768 
L 93.506494 331.032238 
L 98.181818 330.396641 
L 102.857143 329.860826 
L 107.532468 329.785761 
L 112.207792 329.619003 
L 116.883117 329.311995 
L 121.558442 328.814065 
L 126.233766 328.01983 
L 130.909091 327.438342 
L 135.584416 327.315709 
L 140.25974 326.951603 
L 144.935065 326.864672 
L 149.61039 326.367752 
L 154.285714 326.175784 
L 158.961039 326.228807 
L 163.636364 326.024546 
L 168.311688 325.759249 
L 172.987013 325.796496 
L 177.662338 325.922563 
L 182.337662 326.044416 
L 187.012987 326.078971 
L 191.688312 325.744613 
L 196.363636 325.430575 
L 201.038961 325.409918 
L 205.714286 325.014225 
L 210.38961 324.657381 
L 215.064935 324.565718 
L 219.74026 324.596002 
L 224.415584 324.474901 
L 229.090909 324.540241 
L 233.766234 324.622997 
L 238.441558 325.061286 
L 243.116883 325.503925 
L 247.792208 325.707327 
L 252.467532 325.866578 
L 257.142857 326.341547 
L 261.818182 327.034798 
L 266.493506 328.083047 
L 271.168831 328.964346 
L 275.844156 329.709626 
L 280.519481 330.55829 
L 285.194805 331.165805 
L 289.87013 331.443703 
L 294.545455 331.156462 
" clip-path="url(#pd177571a54)" style="fill: none; stroke: #00ffff; stroke-width: 1.5; stroke-linecap: square"/>
   </g>
   <g id="line2d_12">
    <defs>
     <path id="m79ea9fd5be" d="M 2.896197 -1.24666 
L 0.591984 -0.001028 
L 2.896197 1.252826 
L 2.524152 1.881809 
L 0.365879 0.578623 
L 0.365879 3 
L -0.365879 3 
L -0.365879 0.578623 
L -2.524152 1.881809 
L -2.896197 1.252826 
L -0.589928 -0.001028 
L -2.896197 -1.24666 
L -2.524152 -1.881809 
L -0.365879 -0.578623 
L -0.365879 -3 
L 0.365879 -3 
L 0.365879 -0.578623 
L 2.524152 -1.881809 
L 2.896197 -1.24666 
z
" style="stroke: #000000"/>
    </defs>
    <g clip-path="url(#pd177571a54)">
     <use xlink:href="#m79ea9fd5be" x="151.363636" y="288" style="stroke: #000000"/>
     <use xlink:href="#m79ea9fd5be" x="208.636364" y="288" style="stroke: #000000"/>
     <use xlink:href="#m79ea9fd5be" x="265.909091" y="288" style="stroke: #000000"/>
    </g>
   </g>
   <g id="LineCollection_2">
    <path d="M 65.454545 388.8 
L 65.454545 280.8 
" clip-path="url(#pd177571a54)" style="fill: none; stroke-dasharray: 1.5,2.475; stroke-dashoffset: 0; stroke: #1f77b4; stroke-opacity: 0.3; stroke-width: 1.5"/>
    <path d="M 122.727273 388.8 
L 122.727273 280.8 
" clip-path="url(#pd177571a54)" style="fill: none; stroke-dasharray: 1.5,2.475; stroke-dashoffset: 0; stroke: #1f77b4; stroke-opacity: 0.3; stroke-width: 1.5"/>
    <path d="M 180 388.8 
L 180 280.8 
" clip-path="url(#pd177571a54)" style="fill: none; stroke-dasharray: 1.5,2.475; stroke-dashoffset: 0; stroke: #1f77b4; stroke-opacity: 0.3; stroke-width: 1.5"/>
    <path d="M 237.272727 388.8 
L 237.272727 280.8 
" clip-path="url(#pd177571a54)" style="fill: none; stroke-dasharray: 1.5,2.475; stroke-dashoffset: 0; stroke: #1f77b4; stroke-opacity: 0.3; stroke-width: 1.5"/>
    <path d="M 294.545455 388.8 
L 294.545455 280.8 
" clip-path="url(#pd177571a54)" style="fill: none; stroke-dasharray: 1.5,2.475; stroke-dashoffset: 0; stroke: #1f77b4; stroke-opacity: 0.3; stroke-width: 1.5"/>
   </g>
   <g id="LineCollection_3">
    <path d="M 94.090909 346.842451 
L 94.090909 334.716974 
" clip-path="url(#pd177571a54)" style="fill: none; stroke: #1f77b4; stroke-width: 1.5"/>
    <path d="M 151.363636 334.437186 
L 151.363636 327.448662 
" clip-path="url(#pd177571a54)" style="fill: none; stroke: #1f77b4; stroke-width: 1.5"/>
    <path d="M 208.636364 334.766809 
L 208.636364 327.123747 
" clip-path="url(#pd177571a54)" style="fill: none; stroke: #1f77b4; stroke-width: 1.5"/>
    <path d="M 265.909091 339.953808 
L 265.909091 330.746101 
" clip-path="url(#pd177571a54)" style="fill: none; stroke: #1f77b4; stroke-width: 1.5"/>
   </g>
   <g id="line2d_13">
    <defs>
     <path id="m1a64b25d90" d="M 0 3 
C 0.795609 3 1.55874 2.683901 2.12132 2.12132 
C 2.683901 1.55874 3 0.795609 3 0 
C 3 -0.795609 2.683901 -1.55874 2.12132 -2.12132 
C 1.55874 -2.683901 0.795609 -3 0 -3 
C -0.795609 -3 -1.55874 -2.683901 -2.12132 -2.12132 
C -2.683901 -1.55874 -3 -0.795609 -3 0 
C -3 0.795609 -2.683901 1.55874 -2.12132 2.12132 
C -1.55874 2.683901 -0.795609 3 0 3 
z
" style="stroke: #1f77b4"/>
    </defs>
    <g clip-path="url(#pd177571a54)">
     <use xlink:href="#m1a64b25d90" x="94.090909" y="340.779713" style="fill: #1f77b4; stroke: #1f77b4"/>
     <use xlink:href="#m1a64b25d90" x="151.363636" y="330.942924" style="fill: #1f77b4; stroke: #1f77b4"/>
     <use xlink:href="#m1a64b25d90" x="208.636364" y="330.945278" style="fill: #1f77b4; stroke: #1f77b4"/>
     <use xlink:href="#m1a64b25d90" x="265.909091" y="335.349955" style="fill: #1f77b4; stroke: #1f77b4"/>
    </g>
   </g>
   <g id="patch_3">
    <path d="M 46 388.8 
L 46 280.8 
" style="fill: none; stroke: #000000; stroke-width: 0.8; stroke-linejoin: miter; stroke-linecap: square"/>
   </g>
   <g id="patch_4">
    <path d="M 54 396.8 
L 306 396.8 
" style="fill: none; stroke: #000000; stroke-width: 0.8; stroke-linejoin: miter; stroke-linecap: square"/>
   </g>
  </g>
  <g id="axes_2">
   <g id="patch_5">
    <path d="M 54 259.2 
L 306 259.2 
L 306 151.2 
L 54 151.2 
z
" style="fill: #ffffff"/>
   </g>
   <g id="PolyCollection_2">
    <defs>
     <path id="m413f73dfdb" d="M 65.454545 -252.964698 
L 65.454545 -236.384863 
L 70.12987 -236.355554 
L 74.805195 -236.499923 
L 79.480519 -236.393422 
L 84.155844 -236.19191 
L 88.831169 -235.701021 
L 93.506494 -235.005365 
L 98.181818 -234.089788 
L 102.857143 -233.27313 
L 107.532468 -232.79869 
L 112.207792 -232.762551 
L 116.883117 -232.540385 
L 121.558442 -232.47845 
L 126.233766 -233.290459 
L 130.909091 -234.014773 
L 135.584416 -234.62237 
L 140.25974 -235.515065 
L 144.935065 -235.738243 
L 149.61039 -236.04472 
L 154.285714 -236.060698 
L 158.961039 -236.201229 
L 163.636364 -236.566905 
L 168.311688 -236.971163 
L 172.987013 -237.268294 
L 177.662338 -237.698729 
L 182.337662 -237.898331 
L 187.012987 -237.764222 
L 191.688312 -237.514695 
L 196.363636 -237.540672 
L 201.038961 -237.373126 
L 205.714286 -237.137257 
L 210.38961 -237.087388 
L 215.064935 -236.867389 
L 219.74026 -236.301472 
L 224.415584 -236.057397 
L 229.090909 -235.842297 
L 233.766234 -235.569032 
L 238.441558 -235.234335 
L 243.116883 -234.771376 
L 247.792208 -234.232723 
L 252.467532 -233.4611 
L 257.142857 -232.626975 
L 261.818182 -231.853648 
L 266.493506 -231.280889 
L 271.168831 -230.535635 
L 275.844156 -229.82577 
L 280.519481 -229.173568 
L 285.194805 -228.611108 
L 289.87013 -228.22542 
L 294.545455 -228.037815 
L 294.545455 -250.279607 
L 294.545455 -250.279607 
L 289.87013 -250.350754 
L 285.194805 -250.973033 
L 280.519481 -252.320006 
L 275.844156 -253.861493 
L 271.168831 -255.524698 
L 266.493506 -257.38317 
L 261.818182 -258.817078 
L 257.142857 -260.24214 
L 252.467532 -261.248085 
L 247.792208 -261.511015 
L 243.116883 -261.296764 
L 238.441558 -260.551711 
L 233.766234 -259.857546 
L 229.090909 -259.163873 
L 224.415584 -258.466715 
L 219.74026 -257.8893 
L 215.064935 -257.799687 
L 210.38961 -257.46256 
L 205.714286 -257.013586 
L 201.038961 -256.956075 
L 196.363636 -256.599016 
L 191.688312 -256.144888 
L 187.012987 -256.189806 
L 182.337662 -256.064166 
L 177.662338 -255.514352 
L 172.987013 -254.678214 
L 168.311688 -254.136737 
L 163.636364 -253.029778 
L 158.961039 -251.924682 
L 154.285714 -251.603519 
L 149.61039 -251.741687 
L 144.935065 -251.696155 
L 140.25974 -251.344646 
L 135.584416 -250.130614 
L 130.909091 -249.419764 
L 126.233766 -248.889073 
L 121.558442 -248.51314 
L 116.883117 -249.095231 
L 112.207792 -249.411899 
L 107.532468 -249.666167 
L 102.857143 -250.321019 
L 98.181818 -251.237671 
L 93.506494 -252.103007 
L 88.831169 -252.568739 
L 84.155844 -252.83548 
L 79.480519 -252.844729 
L 74.805195 -252.87191 
L 70.12987 -252.832854 
L 65.454545 -252.964698 
z
"/>
    </defs>
    <g clip-path="url(#p6458d2c97e)">
     <use xlink:href="#m413f73dfdb" x="0" y="432" style="fill: #00ffff; fill-opacity: 0.4"/>
    </g>
   </g>
   <g id="matplotlib.axis_3">
    <g id="xtick_6">
     <g id="line2d_14">
      <g>
       <use xlink:href="#m58e909bf84" x="65.454545" y="267.2" style="stroke: #000000; stroke-width: 0.8"/>
      </g>
     </g>
    </g>
    <g id="xtick_7">
     <g id="line2d_15">
      <g>
       <use xlink:href="#m58e909bf84" x="122.727273" y="267.2" style="stroke: #000000; stroke-width: 0.8"/>
      </g>
     </g>
    </g>
    <g id="xtick_8">
     <g id="line2d_16">
      <g>
       <use xlink:href="#m58e909bf84" x="180" y="267.2" style="stroke: #000000; stroke-width: 0.8"/>
      </g>
     </g>
    </g>
    <g id="xtick_9">
     <g id="line2d_17">
      <g>
       <use xlink:href="#m58e909bf84" x="237.272727" y="267.2" style="stroke: #000000; stroke-width: 0.8"/>
      </g>
     </g>
    </g>
    <g id="xtick_10">
     <g id="line2d_18">
      <g>
       <use xlink:href="#m58e909bf84" x="294.545455" y="267.2" style="stroke: #000000; stroke-width: 0.8"/>
      </g>
     </g>
    </g>
   </g>
   <g id="matplotlib.axis_4">
    <g id="ytick_5">
     <g id="line2d_19">
      <g>
       <use xlink:href="#me9b883239b" x="46" y="259.2" style="stroke: #000000; stroke-width: 0.8"/>
      </g>
     </g>
     <g id="text_12">
      <!-- −1 -->
      <g transform="translate(24.257812 262.999219) scale(0.1 -0.1)">
       <use xlink:href="#DejaVuSans-2212"/>
       <use xlink:href="#DejaVuSans-31" x="83.789062"/>
      </g>
     </g>
    </g>
    <g id="ytick_6">
     <g id="line2d_20">
      <g>
       <use xlink:href="#me9b883239b" x="46" y="223.2" style="stroke: #000000; stroke-width: 0.8"/>
      </g>
     </g>
     <g id="text_13">
      <!-- 0 -->
      <g transform="translate(32.6375 226.999219) scale(0.1 -0.1)">
       <use xlink:href="#DejaVuSans-30"/>
      </g>
     </g>
    </g>
    <g id="ytick_7">
     <g id="line2d_21">
      <g>
       <use xlink:href="#me9b883239b" x="46" y="187.2" style="stroke: #000000; stroke-width: 0.8"/>
      </g>
     </g>
     <g id="text_14">
      <!-- 1 -->
      <g transform="translate(32.6375 190.999219) scale(0.1 -0.1)">
       <use xlink:href="#DejaVuSans-31"/>
      </g>
     </g>
    </g>
    <g id="ytick_8">
     <g id="line2d_22">
      <g>
       <use xlink:href="#me9b883239b" x="46" y="151.2" style="stroke: #000000; stroke-width: 0.8"/>
      </g>
     </g>
     <g id="text_15">
      <!-- 2 -->
      <g transform="translate(32.6375 154.999219) scale(0.1 -0.1)">
       <use xlink:href="#DejaVuSans-32"/>
      </g>
     </g>
    </g>
    <g id="text_16">
     <!-- $\Delta$ BOLD % change -->
     <g transform="translate(17.737812 259.62) rotate(-90) scale(0.12 -0.12)">
      <use xlink:href="#DejaVuSans-394" transform="translate(0 0.015625)"/>
      <use xlink:href="#DejaVuSans-20" transform="translate(68.408203 0.015625)"/>
      <use xlink:href="#DejaVuSans-42" transform="translate(100.195312 0.015625)"/>
      <use xlink:href="#DejaVuSans-4f" transform="translate(168.798828 0.015625)"/>
      <use xlink:href="#DejaVuSans-4c" transform="translate(247.509766 0.015625)"/>
      <use xlink:href="#DejaVuSans-44" transform="translate(303.222656 0.015625)"/>
      <use xlink:href="#DejaVuSans-20" transform="translate(380.224609 0.015625)"/>
      <use xlink:href="#DejaVuSans-25" transform="translate(412.011719 0.015625)"/>
      <use xlink:href="#DejaVuSans-20" transform="translate(507.03125 0.015625)"/>
      <use xlink:href="#DejaVuSans-63" transform="translate(538.818359 0.015625)"/>
      <use xlink:href="#DejaVuSans-68" transform="translate(593.798828 0.015625)"/>
      <use xlink:href="#DejaVuSans-61" transform="translate(657.177734 0.015625)"/>
      <use xlink:href="#DejaVuSans-6e" transform="translate(718.457031 0.015625)"/>
      <use xlink:href="#DejaVuSans-67" transform="translate(781.835938 0.015625)"/>
      <use xlink:href="#DejaVuSans-65" transform="translate(845.3125 0.015625)"/>
     </g>
    </g>
   </g>
   <g id="line2d_23">
    <path d="M 180 259.2 
L 180 7.2 
" clip-path="url(#p6458d2c97e)" style="fill: none; stroke-dasharray: 5.55,2.4; stroke-dashoffset: 0; stroke: #4c4c4c; stroke-width: 1.5"/>
   </g>
   <g id="LineCollection_4">
    <path d="M 65.454545 223.2 
L 294.545455 223.2 
" clip-path="url(#p6458d2c97e)" style="fill: none; stroke-dasharray: 5.55,2.4; stroke-dashoffset: 0; stroke: #4c4c4c; stroke-width: 1.5"/>
   </g>
   <g id="line2d_24">
    <path d="M 65.454545 187.32522 
L 70.12987 187.405796 
L 74.805195 187.314084 
L 79.480519 187.380925 
L 84.155844 187.486305 
L 88.831169 187.86512 
L 93.506494 188.445814 
L 98.181818 189.336271 
L 102.857143 190.202926 
L 107.532468 190.767572 
L 112.207792 190.912775 
L 116.883117 191.182192 
L 121.558442 191.504205 
L 126.233766 190.910234 
L 130.909091 190.282732 
L 135.584416 189.623508 
L 140.25974 188.570144 
L 144.935065 188.282801 
L 149.61039 188.106796 
L 154.285714 188.167892 
L 158.961039 187.937044 
L 163.636364 187.201659 
L 168.311688 186.44605 
L 172.987013 186.026746 
L 177.662338 185.39346 
L 182.337662 185.018751 
L 187.012987 185.022986 
L 191.688312 185.170209 
L 196.363636 184.930156 
L 201.038961 184.8354 
L 205.714286 184.924579 
L 210.38961 184.725026 
L 215.064935 184.666462 
L 219.74026 184.904614 
L 224.415584 184.737944 
L 229.090909 184.496915 
L 233.766234 184.286711 
L 238.441558 184.106977 
L 243.116883 183.96593 
L 247.792208 184.128131 
L 252.467532 184.645407 
L 257.142857 185.565442 
L 261.818182 186.664637 
L 266.493506 187.667971 
L 271.168831 188.969833 
L 275.844156 190.156369 
L 280.519481 191.253213 
L 285.194805 192.207929 
L 289.87013 192.711913 
L 294.545455 192.841289 
" clip-path="url(#p6458d2c97e)" style="fill: none; stroke: #00ffff; stroke-width: 1.5; stroke-linecap: square"/>
   </g>
   <g id="line2d_25">
    <g clip-path="url(#p6458d2c97e)">
     <use xlink:href="#m79ea9fd5be" x="94.090909" y="158.4" style="stroke: #000000"/>
     <use xlink:href="#m79ea9fd5be" x="151.363636" y="158.4" style="stroke: #000000"/>
     <use xlink:href="#m79ea9fd5be" x="208.636364" y="158.4" style="stroke: #000000"/>
     <use xlink:href="#m79ea9fd5be" x="265.909091" y="158.4" style="stroke: #000000"/>
    </g>
   </g>
   <g id="LineCollection_5">
    <path d="M 65.454545 259.2 
L 65.454545 151.2 
" clip-path="url(#p6458d2c97e)" style="fill: none; stroke-dasharray: 1.5,2.475; stroke-dashoffset: 0; stroke: #1f77b4; stroke-opacity: 0.3; stroke-width: 1.5"/>
    <path d="M 122.727273 259.2 
L 122.727273 151.2 
" clip-path="url(#p6458d2c97e)" style="fill: none; stroke-dasharray: 1.5,2.475; stroke-dashoffset: 0; stroke: #1f77b4; stroke-opacity: 0.3; stroke-width: 1.5"/>
    <path d="M 180 259.2 
L 180 151.2 
" clip-path="url(#p6458d2c97e)" style="fill: none; stroke-dasharray: 1.5,2.475; stroke-dashoffset: 0; stroke: #1f77b4; stroke-opacity: 0.3; stroke-width: 1.5"/>
    <path d="M 237.272727 259.2 
L 237.272727 151.2 
" clip-path="url(#p6458d2c97e)" style="fill: none; stroke-dasharray: 1.5,2.475; stroke-dashoffset: 0; stroke: #1f77b4; stroke-opacity: 0.3; stroke-width: 1.5"/>
    <path d="M 294.545455 259.2 
L 294.545455 151.2 
" clip-path="url(#p6458d2c97e)" style="fill: none; stroke-dasharray: 1.5,2.475; stroke-dashoffset: 0; stroke: #1f77b4; stroke-opacity: 0.3; stroke-width: 1.5"/>
   </g>
   <g id="LineCollection_6">
    <path d="M 94.090909 191.879735 
L 94.090909 176.937906 
" clip-path="url(#p6458d2c97e)" style="fill: none; stroke: #1f77b4; stroke-width: 1.5"/>
    <path d="M 151.363636 194.855259 
L 151.363636 185.044653 
" clip-path="url(#p6458d2c97e)" style="fill: none; stroke: #1f77b4; stroke-width: 1.5"/>
    <path d="M 208.636364 193.346461 
L 208.636364 183.408807 
" clip-path="url(#p6458d2c97e)" style="fill: none; stroke: #1f77b4; stroke-width: 1.5"/>
    <path d="M 265.909091 202.935012 
L 265.909091 189.677299 
" clip-path="url(#p6458d2c97e)" style="fill: none; stroke: #1f77b4; stroke-width: 1.5"/>
   </g>
   <g id="line2d_26">
    <g clip-path="url(#p6458d2c97e)">
     <use xlink:href="#m1a64b25d90" x="94.090909" y="184.40882" style="fill: #1f77b4; stroke: #1f77b4"/>
     <use xlink:href="#m1a64b25d90" x="151.363636" y="189.949956" style="fill: #1f77b4; stroke: #1f77b4"/>
     <use xlink:href="#m1a64b25d90" x="208.636364" y="188.377634" style="fill: #1f77b4; stroke: #1f77b4"/>
     <use xlink:href="#m1a64b25d90" x="265.909091" y="196.306156" style="fill: #1f77b4; stroke: #1f77b4"/>
    </g>
   </g>
   <g id="patch_6">
    <path d="M 46 259.2 
L 46 151.2 
" style="fill: none; stroke: #000000; stroke-width: 0.8; stroke-linejoin: miter; stroke-linecap: square"/>
   </g>
   <g id="patch_7">
    <path d="M 54 267.2 
L 306 267.2 
" style="fill: none; stroke: #000000; stroke-width: 0.8; stroke-linejoin: miter; stroke-linecap: square"/>
   </g>
   <g id="text_17">
    <!-- dsi -->
    <g style="fill: #00ffff" transform="translate(265.909091 75.6) scale(0.11 -0.11)">
     <use xlink:href="#DejaVuSans-64"/>
     <use xlink:href="#DejaVuSans-73" x="63.476562"/>
     <use xlink:href="#DejaVuSans-69" x="115.576172"/>
    </g>
   </g>
  </g>
  <g id="axes_3">
   <g id="patch_8">
    <path d="M 54 129.6 
L 306 129.6 
L 306 21.6 
L 54 21.6 
z
" style="fill: #ffffff"/>
   </g>
   <g id="PolyCollection_3">
    <defs>
     <path id="m6f230d6883" d="M 65.454545 -420.598168 
L 65.454545 -386.097794 
L 70.12987 -385.991285 
L 74.805195 -385.846235 
L 79.480519 -385.969682 
L 84.155844 -385.754338 
L 88.831169 -385.194272 
L 93.506494 -384.29065 
L 98.181818 -383.663479 
L 102.857143 -382.578869 
L 107.532468 -381.398616 
L 112.207792 -380.047957 
L 116.883117 -379.641152 
L 121.558442 -379.109177 
L 126.233766 -379.012797 
L 130.909091 -379.32731 
L 135.584416 -380.266951 
L 140.25974 -381.163732 
L 144.935065 -382.195268 
L 149.61039 -382.063998 
L 154.285714 -382.020427 
L 158.961039 -382.596733 
L 163.636364 -383.185532 
L 168.311688 -383.890565 
L 172.987013 -384.545152 
L 177.662338 -384.953932 
L 182.337662 -385.234861 
L 187.012987 -385.332993 
L 191.688312 -385.514779 
L 196.363636 -385.293908 
L 201.038961 -385.051088 
L 205.714286 -384.379583 
L 210.38961 -383.120675 
L 215.064935 -381.966359 
L 219.74026 -380.545254 
L 224.415584 -378.835027 
L 229.090909 -377.379188 
L 233.766234 -375.988186 
L 238.441558 -374.946479 
L 243.116883 -373.925145 
L 247.792208 -372.838476 
L 252.467532 -371.9278 
L 257.142857 -371.077572 
L 261.818182 -370.560177 
L 266.493506 -370.167804 
L 271.168831 -369.702248 
L 275.844156 -369.589364 
L 280.519481 -369.701104 
L 285.194805 -369.545631 
L 289.87013 -369.332802 
L 294.545455 -369.180923 
L 294.545455 -397.597945 
L 294.545455 -397.597945 
L 289.87013 -397.318685 
L 285.194805 -397.503739 
L 280.519481 -397.652714 
L 275.844156 -397.401306 
L 271.168831 -397.325256 
L 266.493506 -398.110617 
L 261.818182 -398.58193 
L 257.142857 -398.711488 
L 252.467532 -399.624728 
L 247.792208 -400.714949 
L 243.116883 -402.155253 
L 238.441558 -403.256702 
L 233.766234 -404.107557 
L 229.090909 -405.475984 
L 224.415584 -407.396543 
L 219.74026 -409.445533 
L 215.064935 -410.851694 
L 210.38961 -411.846056 
L 205.714286 -413.129041 
L 201.038961 -413.064302 
L 196.363636 -412.545727 
L 191.688312 -412.276461 
L 187.012987 -411.222297 
L 182.337662 -410.450112 
L 177.662338 -409.564676 
L 172.987013 -409.042673 
L 168.311688 -408.08798 
L 163.636364 -406.895536 
L 158.961039 -406.392983 
L 154.285714 -406.162938 
L 149.61039 -406.60343 
L 144.935065 -407.146574 
L 140.25974 -406.358118 
L 135.584416 -406.154502 
L 130.909091 -405.656961 
L 126.233766 -405.599598 
L 121.558442 -406.090564 
L 116.883117 -406.544535 
L 112.207792 -406.675415 
L 107.532468 -408.439379 
L 102.857143 -410.288728 
L 98.181818 -412.455633 
L 93.506494 -414.414422 
L 88.831169 -416.915732 
L 84.155844 -419.011511 
L 79.480519 -419.845513 
L 74.805195 -420.16588 
L 70.12987 -420.447359 
L 65.454545 -420.598168 
z
"/>
    </defs>
    <g clip-path="url(#p93ea5d4654)">
     <use xlink:href="#m6f230d6883" x="0" y="432" style="fill: #00ffff; fill-opacity: 0.4"/>
    </g>
   </g>
   <g id="matplotlib.axis_5">
    <g id="xtick_11">
     <g id="line2d_27">
      <g>
       <use xlink:href="#m58e909bf84" x="65.454545" y="137.6" style="stroke: #000000; stroke-width: 0.8"/>
      </g>
     </g>
    </g>
    <g id="xtick_12">
     <g id="line2d_28">
      <g>
       <use xlink:href="#m58e909bf84" x="122.727273" y="137.6" style="stroke: #000000; stroke-width: 0.8"/>
      </g>
     </g>
    </g>
    <g id="xtick_13">
     <g id="line2d_29">
      <g>
       <use xlink:href="#m58e909bf84" x="180" y="137.6" style="stroke: #000000; stroke-width: 0.8"/>
      </g>
     </g>
    </g>
    <g id="xtick_14">
     <g id="line2d_30">
      <g>
       <use xlink:href="#m58e909bf84" x="237.272727" y="137.6" style="stroke: #000000; stroke-width: 0.8"/>
      </g>
     </g>
    </g>
    <g id="xtick_15">
     <g id="line2d_31">
      <g>
       <use xlink:href="#m58e909bf84" x="294.545455" y="137.6" style="stroke: #000000; stroke-width: 0.8"/>
      </g>
     </g>
    </g>
   </g>
   <g id="matplotlib.axis_6">
    <g id="ytick_9">
     <g id="line2d_32">
      <g>
       <use xlink:href="#me9b883239b" x="46" y="129.6" style="stroke: #000000; stroke-width: 0.8"/>
      </g>
     </g>
     <g id="text_18">
      <!-- −1 -->
      <g transform="translate(24.257812 133.399219) scale(0.1 -0.1)">
       <use xlink:href="#DejaVuSans-2212"/>
       <use xlink:href="#DejaVuSans-31" x="83.789062"/>
      </g>
     </g>
    </g>
    <g id="ytick_10">
     <g id="line2d_33">
      <g>
       <use xlink:href="#me9b883239b" x="46" y="93.6" style="stroke: #000000; stroke-width: 0.8"/>
      </g>
     </g>
     <g id="text_19">
      <!-- 0 -->
      <g transform="translate(32.6375 97.399219) scale(0.1 -0.1)">
       <use xlink:href="#DejaVuSans-30"/>
      </g>
     </g>
    </g>
    <g id="ytick_11">
     <g id="line2d_34">
      <g>
       <use xlink:href="#me9b883239b" x="46" y="57.6" style="stroke: #000000; stroke-width: 0.8"/>
      </g>
     </g>
     <g id="text_20">
      <!-- 1 -->
      <g transform="translate(32.6375 61.399219) scale(0.1 -0.1)">
       <use xlink:href="#DejaVuSans-31"/>
      </g>
     </g>
    </g>
    <g id="ytick_12">
     <g id="line2d_35">
      <g>
       <use xlink:href="#me9b883239b" x="46" y="21.6" style="stroke: #000000; stroke-width: 0.8"/>
      </g>
     </g>
     <g id="text_21">
      <!-- 2 -->
      <g transform="translate(32.6375 25.399219) scale(0.1 -0.1)">
       <use xlink:href="#DejaVuSans-32"/>
      </g>
     </g>
    </g>
    <g id="text_22">
     <!-- $\Delta$ BOLD % change -->
     <g transform="translate(17.737812 130.02) rotate(-90) scale(0.12 -0.12)">
      <use xlink:href="#DejaVuSans-394" transform="translate(0 0.015625)"/>
      <use xlink:href="#DejaVuSans-20" transform="translate(68.408203 0.015625)"/>
      <use xlink:href="#DejaVuSans-42" transform="translate(100.195312 0.015625)"/>
      <use xlink:href="#DejaVuSans-4f" transform="translate(168.798828 0.015625)"/>
      <use xlink:href="#DejaVuSans-4c" transform="translate(247.509766 0.015625)"/>
      <use xlink:href="#DejaVuSans-44" transform="translate(303.222656 0.015625)"/>
      <use xlink:href="#DejaVuSans-20" transform="translate(380.224609 0.015625)"/>
      <use xlink:href="#DejaVuSans-25" transform="translate(412.011719 0.015625)"/>
      <use xlink:href="#DejaVuSans-20" transform="translate(507.03125 0.015625)"/>
      <use xlink:href="#DejaVuSans-63" transform="translate(538.818359 0.015625)"/>
      <use xlink:href="#DejaVuSans-68" transform="translate(593.798828 0.015625)"/>
      <use xlink:href="#DejaVuSans-61" transform="translate(657.177734 0.015625)"/>
      <use xlink:href="#DejaVuSans-6e" transform="translate(718.457031 0.015625)"/>
      <use xlink:href="#DejaVuSans-67" transform="translate(781.835938 0.015625)"/>
      <use xlink:href="#DejaVuSans-65" transform="translate(845.3125 0.015625)"/>
     </g>
    </g>
   </g>
   <g id="line2d_36">
    <path d="M 180 129.6 
L 180 -1 
" clip-path="url(#p93ea5d4654)" style="fill: none; stroke-dasharray: 5.55,2.4; stroke-dashoffset: 0; stroke: #4c4c4c; stroke-width: 1.5"/>
   </g>
   <g id="LineCollection_7">
    <path d="M 65.454545 93.6 
L 294.545455 93.6 
" clip-path="url(#p93ea5d4654)" style="fill: none; stroke-dasharray: 5.55,2.4; stroke-dashoffset: 0; stroke: #4c4c4c; stroke-width: 1.5"/>
   </g>
   <g id="line2d_37">
    <path d="M 65.454545 28.652019 
L 70.12987 28.780678 
L 74.805195 28.993942 
L 79.480519 29.092403 
L 84.155844 29.617075 
L 88.831169 30.944998 
L 93.506494 32.647464 
L 98.181818 33.940444 
L 102.857143 35.566202 
L 107.532468 37.081002 
L 112.207792 38.638314 
L 116.883117 38.907157 
L 121.558442 39.40013 
L 126.233766 39.693802 
L 130.909091 39.507865 
L 135.584416 38.789274 
L 140.25974 38.239075 
L 144.935065 37.329079 
L 149.61039 37.666286 
L 154.285714 37.908317 
L 158.961039 37.505142 
L 163.636364 36.959466 
L 168.311688 36.010728 
L 172.987013 35.206087 
L 177.662338 34.740696 
L 182.337662 34.157513 
L 187.012987 33.722355 
L 191.688312 33.10438 
L 196.363636 33.080182 
L 201.038961 32.942305 
L 205.714286 33.245688 
L 210.38961 34.516635 
L 215.064935 35.590973 
L 219.74026 37.004606 
L 224.415584 38.884215 
L 229.090909 40.572414 
L 233.766234 41.952129 
L 238.441558 42.89841 
L 243.116883 43.959801 
L 247.792208 45.223288 
L 252.467532 46.223736 
L 257.142857 47.10547 
L 261.818182 47.428947 
L 266.493506 47.860789 
L 271.168831 48.486248 
L 275.844156 48.504665 
L 280.519481 48.323091 
L 285.194805 48.475315 
L 289.87013 48.674257 
L 294.545455 48.610566 
" clip-path="url(#p93ea5d4654)" style="fill: none; stroke: #00ffff; stroke-width: 1.5; stroke-linecap: square"/>
   </g>
   <g id="line2d_38">
    <g clip-path="url(#p93ea5d4654)">
     <use xlink:href="#m79ea9fd5be" x="94.090909" y="28.8" style="stroke: #000000"/>
     <use xlink:href="#m79ea9fd5be" x="151.363636" y="28.8" style="stroke: #000000"/>
     <use xlink:href="#m79ea9fd5be" x="208.636364" y="28.8" style="stroke: #000000"/>
     <use xlink:href="#m79ea9fd5be" x="265.909091" y="28.8" style="stroke: #000000"/>
    </g>
   </g>
   <g id="LineCollection_8">
    <path d="M 65.454545 129.6 
L 65.454545 21.6 
" clip-path="url(#p93ea5d4654)" style="fill: none; stroke-dasharray: 1.5,2.475; stroke-dashoffset: 0; stroke: #1f77b4; stroke-opacity: 0.3; stroke-width: 1.5"/>
    <path d="M 122.727273 129.6 
L 122.727273 21.6 
" clip-path="url(#p93ea5d4654)" style="fill: none; stroke-dasharray: 1.5,2.475; stroke-dashoffset: 0; stroke: #1f77b4; stroke-opacity: 0.3; stroke-width: 1.5"/>
    <path d="M 180 129.6 
L 180 21.6 
" clip-path="url(#p93ea5d4654)" style="fill: none; stroke-dasharray: 1.5,2.475; stroke-dashoffset: 0; stroke: #1f77b4; stroke-opacity: 0.3; stroke-width: 1.5"/>
    <path d="M 237.272727 129.6 
L 237.272727 21.6 
" clip-path="url(#p93ea5d4654)" style="fill: none; stroke-dasharray: 1.5,2.475; stroke-dashoffset: 0; stroke: #1f77b4; stroke-opacity: 0.3; stroke-width: 1.5"/>
    <path d="M 294.545455 129.6 
L 294.545455 21.6 
" clip-path="url(#p93ea5d4654)" style="fill: none; stroke-dasharray: 1.5,2.475; stroke-dashoffset: 0; stroke: #1f77b4; stroke-opacity: 0.3; stroke-width: 1.5"/>
   </g>
   <g id="LineCollection_9">
    <path d="M 94.090909 42.974378 
L 94.090909 20.094778 
" clip-path="url(#p93ea5d4654)" style="fill: none; stroke: #1f77b4; stroke-width: 1.5"/>
    <path d="M 151.363636 48.309919 
L 151.363636 34.246153 
" clip-path="url(#p93ea5d4654)" style="fill: none; stroke: #1f77b4; stroke-width: 1.5"/>
    <path d="M 208.636364 45.889628 
L 208.636364 31.568133 
" clip-path="url(#p93ea5d4654)" style="fill: none; stroke: #1f77b4; stroke-width: 1.5"/>
    <path d="M 265.909091 62.182205 
L 265.909091 47.691686 
" clip-path="url(#p93ea5d4654)" style="fill: none; stroke: #1f77b4; stroke-width: 1.5"/>
   </g>
   <g id="line2d_39">
    <g clip-path="url(#p93ea5d4654)">
     <use xlink:href="#m1a64b25d90" x="94.090909" y="31.534578" style="fill: #1f77b4; stroke: #1f77b4"/>
     <use xlink:href="#m1a64b25d90" x="151.363636" y="41.278036" style="fill: #1f77b4; stroke: #1f77b4"/>
     <use xlink:href="#m1a64b25d90" x="208.636364" y="38.728881" style="fill: #1f77b4; stroke: #1f77b4"/>
     <use xlink:href="#m1a64b25d90" x="265.909091" y="54.936946" style="fill: #1f77b4; stroke: #1f77b4"/>
    </g>
   </g>
   <g id="patch_9">
    <path d="M 46 129.6 
L 46 21.6 
" style="fill: none; stroke: #000000; stroke-width: 0.8; stroke-linejoin: miter; stroke-linecap: square"/>
   </g>
   <g id="patch_10">
    <path d="M 54 137.6 
L 306 137.6 
" style="fill: none; stroke: #000000; stroke-width: 0.8; stroke-linejoin: miter; stroke-linecap: square"/>
   </g>
  </g>
 </g>
 <defs>
  <clipPath id="pd177571a54">
   <rect x="54" y="280.8" width="252" height="108"/>
  </clipPath>
  <clipPath id="p6458d2c97e">
   <rect x="54" y="151.2" width="252" height="108"/>
  </clipPath>
  <clipPath id="p93ea5d4654">
   <rect x="54" y="21.6" width="252" height="108"/>
  </clipPath>
 </defs>
</svg>
