<?xml version="1.0" encoding="utf-8" standalone="no"?>
<!DOCTYPE svg PUBLIC "-//W3C//DTD SVG 1.1//EN"
  "http://www.w3.org/Graphics/SVG/1.1/DTD/svg11.dtd">
<svg xmlns:xlink="http://www.w3.org/1999/xlink" width="360pt" height="432pt" viewBox="0 0 360 432" xmlns="http://www.w3.org/2000/svg" version="1.1">
 <metadata>
  <rdf:RDF xmlns:dc="http://purl.org/dc/elements/1.1/" xmlns:cc="http://creativecommons.org/ns#" xmlns:rdf="http://www.w3.org/1999/02/22-rdf-syntax-ns#">
   <cc:Work>
    <dc:type rdf:resource="http://purl.org/dc/dcmitype/StillImage"/>
    <dc:date>2024-05-15T09:26:15.316548</dc:date>
    <dc:format>image/svg+xml</dc:format>
    <dc:creator>
     <cc:Agent>
      <dc:title>Matplotlib v3.8.0, https://matplotlib.org/</dc:title>
     </cc:Agent>
    </dc:creator>
   </cc:Work>
  </rdf:RDF>
 </metadata>
 <defs>
  <style type="text/css">*{stroke-linejoin: round; stroke-linecap: butt}</style>
 </defs>
 <g id="figure_1">
  <g id="patch_1">
   <path d="M 0 432 
L 360 432 
L 360 0 
L 0 0 
z
" style="fill: #ffffff"/>
  </g>
  <g id="axes_1">
   <g id="patch_2">
    <path d="M 54 388.8 
L 306 388.8 
L 306 280.8 
L 54 280.8 
z
" style="fill: #ffffff"/>
   </g>
   <g id="PolyCollection_1">
    <defs>
     <path id="meb3ec5e53b" d="M 65.454545 -80.216389 
L 65.454545 -78.247385 
L 70.12987 -78.247385 
L 74.805195 -78.246994 
L 79.480519 -78.846657 
L 84.155844 -79.307365 
L 88.831169 -79.241394 
L 93.506494 -79.138585 
L 98.181818 -78.875796 
L 102.857143 -78.828308 
L 107.532468 -78.950689 
L 112.207792 -78.982024 
L 116.883117 -79.17715 
L 121.558442 -79.440488 
L 126.233766 -79.704605 
L 130.909091 -79.812697 
L 135.584416 -79.794118 
L 140.25974 -79.872592 
L 144.935065 -80.036364 
L 149.61039 -80.241724 
L 154.285714 -80.299961 
L 158.961039 -80.483117 
L 163.636364 -80.67454 
L 168.311688 -80.636727 
L 172.987013 -80.783309 
L 177.662338 -80.967314 
L 182.337662 -81.163798 
L 187.012987 -81.440754 
L 191.688312 -81.594703 
L 196.363636 -81.727513 
L 201.038961 -81.74762 
L 205.714286 -81.661143 
L 210.38961 -81.525904 
L 215.064935 -81.495324 
L 219.74026 -81.55632 
L 224.415584 -81.631325 
L 229.090909 -81.668587 
L 233.766234 -81.716062 
L 238.441558 -81.815902 
L 243.116883 -81.939712 
L 247.792208 -81.956591 
L 252.467532 -81.912113 
L 257.142857 -81.75465 
L 261.818182 -81.716136 
L 266.493506 -81.60981 
L 271.168831 -81.484676 
L 275.844156 -81.452089 
L 280.519481 -81.598818 
L 285.194805 -81.819812 
L 289.87013 -81.918622 
L 294.545455 -81.879563 
L 294.545455 -88.913595 
L 294.545455 -88.913595 
L 289.87013 -89.191222 
L 285.194805 -89.261074 
L 280.519481 -88.995265 
L 275.844156 -88.706811 
L 271.168831 -88.766262 
L 266.493506 -88.999809 
L 261.818182 -89.203288 
L 257.142857 -89.120884 
L 252.467532 -89.348106 
L 247.792208 -89.128109 
L 243.116883 -88.845538 
L 238.441558 -88.491686 
L 233.766234 -87.985283 
L 229.090909 -87.460263 
L 224.415584 -87.109153 
L 219.74026 -86.927618 
L 215.064935 -86.539005 
L 210.38961 -86.327242 
L 205.714286 -86.180363 
L 201.038961 -86.269604 
L 196.363636 -86.242112 
L 191.688312 -86.07488 
L 187.012987 -85.794635 
L 182.337662 -85.419791 
L 177.662338 -85.200786 
L 172.987013 -84.875641 
L 168.311688 -84.48664 
L 163.636364 -84.062908 
L 158.961039 -83.664376 
L 154.285714 -83.313802 
L 149.61039 -83.054025 
L 144.935065 -82.981786 
L 140.25974 -82.625889 
L 135.584416 -82.170732 
L 130.909091 -81.791189 
L 126.233766 -81.503432 
L 121.558442 -81.019172 
L 116.883117 -80.539919 
L 112.207792 -80.526911 
L 107.532468 -80.640587 
L 102.857143 -80.290446 
L 98.181818 -80.282175 
L 93.506494 -80.58981 
L 88.831169 -80.734945 
L 84.155844 -80.860805 
L 79.480519 -80.541455 
L 74.805195 -80.216763 
L 70.12987 -80.216389 
L 65.454545 -80.216389 
z
"/>
    </defs>
    <g clip-path="url(#peb139a9f9e)">
     <use xlink:href="#meb3ec5e53b" x="0" y="432" style="fill: #ff0000; fill-opacity: 0.4"/>
    </g>
   </g>
   <g id="matplotlib.axis_1">
    <g id="xtick_1">
     <g id="line2d_1">
      <defs>
       <path id="m7fd0859b34" d="M 0 0 
L 0 3.5 
" style="stroke: #000000; stroke-width: 0.8"/>
      </defs>
      <g>
       <use xlink:href="#m7fd0859b34" x="65.454545" y="396.8" style="stroke: #000000; stroke-width: 0.8"/>
      </g>
     </g>
     <g id="text_1">
      <!-- 0 -->
      <g transform="translate(62.273295 411.398438) scale(0.1 -0.1)">
       <defs>
        <path id="DejaVuSans-30" d="M 2034 4250 
Q 1547 4250 1301 3770 
Q 1056 3291 1056 2328 
Q 1056 1369 1301 889 
Q 1547 409 2034 409 
Q 2525 409 2770 889 
Q 3016 1369 3016 2328 
Q 3016 3291 2770 3770 
Q 2525 4250 2034 4250 
z
M 2034 4750 
Q 2819 4750 3233 4129 
Q 3647 3509 3647 2328 
Q 3647 1150 3233 529 
Q 2819 -91 2034 -91 
Q 1250 -91 836 529 
Q 422 1150 422 2328 
Q 422 3509 836 4129 
Q 1250 4750 2034 4750 
z
" transform="scale(0.015625)"/>
       </defs>
       <use xlink:href="#DejaVuSans-30"/>
      </g>
     </g>
    </g>
    <g id="xtick_2">
     <g id="line2d_2">
      <g>
       <use xlink:href="#m7fd0859b34" x="122.727273" y="396.8" style="stroke: #000000; stroke-width: 0.8"/>
      </g>
     </g>
     <g id="text_2">
      <!-- 1 -->
      <g transform="translate(119.546023 411.398438) scale(0.1 -0.1)">
       <defs>
        <path id="DejaVuSans-31" d="M 794 531 
L 1825 531 
L 1825 4091 
L 703 3866 
L 703 4441 
L 1819 4666 
L 2450 4666 
L 2450 531 
L 3481 531 
L 3481 0 
L 794 0 
L 794 531 
z
" transform="scale(0.015625)"/>
       </defs>
       <use xlink:href="#DejaVuSans-31"/>
      </g>
     </g>
    </g>
    <g id="xtick_3">
     <g id="line2d_3">
      <g>
       <use xlink:href="#m7fd0859b34" x="180" y="396.8" style="stroke: #000000; stroke-width: 0.8"/>
      </g>
     </g>
     <g id="text_3">
      <!-- 2 -->
      <g transform="translate(176.81875 411.398438) scale(0.1 -0.1)">
       <defs>
        <path id="DejaVuSans-32" d="M 1228 531 
L 3431 531 
L 3431 0 
L 469 0 
L 469 531 
Q 828 903 1448 1529 
Q 2069 2156 2228 2338 
Q 2531 2678 2651 2914 
Q 2772 3150 2772 3378 
Q 2772 3750 2511 3984 
Q 2250 4219 1831 4219 
Q 1534 4219 1204 4116 
Q 875 4013 500 3803 
L 500 4441 
Q 881 4594 1212 4672 
Q 1544 4750 1819 4750 
Q 2544 4750 2975 4387 
Q 3406 4025 3406 3419 
Q 3406 3131 3298 2873 
Q 3191 2616 2906 2266 
Q 2828 2175 2409 1742 
Q 1991 1309 1228 531 
z
" transform="scale(0.015625)"/>
       </defs>
       <use xlink:href="#DejaVuSans-32"/>
      </g>
     </g>
    </g>
    <g id="xtick_4">
     <g id="line2d_4">
      <g>
       <use xlink:href="#m7fd0859b34" x="237.272727" y="396.8" style="stroke: #000000; stroke-width: 0.8"/>
      </g>
     </g>
     <g id="text_4">
      <!-- 3 -->
      <g transform="translate(234.091477 411.398438) scale(0.1 -0.1)">
       <defs>
        <path id="DejaVuSans-33" d="M 2597 2516 
Q 3050 2419 3304 2112 
Q 3559 1806 3559 1356 
Q 3559 666 3084 287 
Q 2609 -91 1734 -91 
Q 1441 -91 1130 -33 
Q 819 25 488 141 
L 488 750 
Q 750 597 1062 519 
Q 1375 441 1716 441 
Q 2309 441 2620 675 
Q 2931 909 2931 1356 
Q 2931 1769 2642 2001 
Q 2353 2234 1838 2234 
L 1294 2234 
L 1294 2753 
L 1863 2753 
Q 2328 2753 2575 2939 
Q 2822 3125 2822 3475 
Q 2822 3834 2567 4026 
Q 2313 4219 1838 4219 
Q 1578 4219 1281 4162 
Q 984 4106 628 3988 
L 628 4550 
Q 988 4650 1302 4700 
Q 1616 4750 1894 4750 
Q 2613 4750 3031 4423 
Q 3450 4097 3450 3541 
Q 3450 3153 3228 2886 
Q 3006 2619 2597 2516 
z
" transform="scale(0.015625)"/>
       </defs>
       <use xlink:href="#DejaVuSans-33"/>
      </g>
     </g>
    </g>
    <g id="xtick_5">
     <g id="line2d_5">
      <g>
       <use xlink:href="#m7fd0859b34" x="294.545455" y="396.8" style="stroke: #000000; stroke-width: 0.8"/>
      </g>
     </g>
     <g id="text_5">
      <!-- 4 -->
      <g transform="translate(291.364205 411.398438) scale(0.1 -0.1)">
       <defs>
        <path id="DejaVuSans-34" d="M 2419 4116 
L 825 1625 
L 2419 1625 
L 2419 4116 
z
M 2253 4666 
L 3047 4666 
L 3047 1625 
L 3713 1625 
L 3713 1100 
L 3047 1100 
L 3047 0 
L 2419 0 
L 2419 1100 
L 313 1100 
L 313 1709 
L 2253 4666 
z
" transform="scale(0.015625)"/>
       </defs>
       <use xlink:href="#DejaVuSans-34"/>
      </g>
     </g>
    </g>
    <g id="text_6">
     <!-- relative distance from ROI center ($\sigma$) -->
     <g transform="translate(69.72 426.59625) scale(0.12 -0.12)">
      <defs>
       <path id="DejaVuSans-72" d="M 2631 2963 
Q 2534 3019 2420 3045 
Q 2306 3072 2169 3072 
Q 1681 3072 1420 2755 
Q 1159 2438 1159 1844 
L 1159 0 
L 581 0 
L 581 3500 
L 1159 3500 
L 1159 2956 
Q 1341 3275 1631 3429 
Q 1922 3584 2338 3584 
Q 2397 3584 2469 3576 
Q 2541 3569 2628 3553 
L 2631 2963 
z
" transform="scale(0.015625)"/>
       <path id="DejaVuSans-65" d="M 3597 1894 
L 3597 1613 
L 953 1613 
Q 991 1019 1311 708 
Q 1631 397 2203 397 
Q 2534 397 2845 478 
Q 3156 559 3463 722 
L 3463 178 
Q 3153 47 2828 -22 
Q 2503 -91 2169 -91 
Q 1331 -91 842 396 
Q 353 884 353 1716 
Q 353 2575 817 3079 
Q 1281 3584 2069 3584 
Q 2775 3584 3186 3129 
Q 3597 2675 3597 1894 
z
M 3022 2063 
Q 3016 2534 2758 2815 
Q 2500 3097 2075 3097 
Q 1594 3097 1305 2825 
Q 1016 2553 972 2059 
L 3022 2063 
z
" transform="scale(0.015625)"/>
       <path id="DejaVuSans-6c" d="M 603 4863 
L 1178 4863 
L 1178 0 
L 603 0 
L 603 4863 
z
" transform="scale(0.015625)"/>
       <path id="DejaVuSans-61" d="M 2194 1759 
Q 1497 1759 1228 1600 
Q 959 1441 959 1056 
Q 959 750 1161 570 
Q 1363 391 1709 391 
Q 2188 391 2477 730 
Q 2766 1069 2766 1631 
L 2766 1759 
L 2194 1759 
z
M 3341 1997 
L 3341 0 
L 2766 0 
L 2766 531 
Q 2569 213 2275 61 
Q 1981 -91 1556 -91 
Q 1019 -91 701 211 
Q 384 513 384 1019 
Q 384 1609 779 1909 
Q 1175 2209 1959 2209 
L 2766 2209 
L 2766 2266 
Q 2766 2663 2505 2880 
Q 2244 3097 1772 3097 
Q 1472 3097 1187 3025 
Q 903 2953 641 2809 
L 641 3341 
Q 956 3463 1253 3523 
Q 1550 3584 1831 3584 
Q 2591 3584 2966 3190 
Q 3341 2797 3341 1997 
z
" transform="scale(0.015625)"/>
       <path id="DejaVuSans-74" d="M 1172 4494 
L 1172 3500 
L 2356 3500 
L 2356 3053 
L 1172 3053 
L 1172 1153 
Q 1172 725 1289 603 
Q 1406 481 1766 481 
L 2356 481 
L 2356 0 
L 1766 0 
Q 1100 0 847 248 
Q 594 497 594 1153 
L 594 3053 
L 172 3053 
L 172 3500 
L 594 3500 
L 594 4494 
L 1172 4494 
z
" transform="scale(0.015625)"/>
       <path id="DejaVuSans-69" d="M 603 3500 
L 1178 3500 
L 1178 0 
L 603 0 
L 603 3500 
z
M 603 4863 
L 1178 4863 
L 1178 4134 
L 603 4134 
L 603 4863 
z
" transform="scale(0.015625)"/>
       <path id="DejaVuSans-76" d="M 191 3500 
L 800 3500 
L 1894 563 
L 2988 3500 
L 3597 3500 
L 2284 0 
L 1503 0 
L 191 3500 
z
" transform="scale(0.015625)"/>
       <path id="DejaVuSans-20" transform="scale(0.015625)"/>
       <path id="DejaVuSans-64" d="M 2906 2969 
L 2906 4863 
L 3481 4863 
L 3481 0 
L 2906 0 
L 2906 525 
Q 2725 213 2448 61 
Q 2172 -91 1784 -91 
Q 1150 -91 751 415 
Q 353 922 353 1747 
Q 353 2572 751 3078 
Q 1150 3584 1784 3584 
Q 2172 3584 2448 3432 
Q 2725 3281 2906 2969 
z
M 947 1747 
Q 947 1113 1208 752 
Q 1469 391 1925 391 
Q 2381 391 2643 752 
Q 2906 1113 2906 1747 
Q 2906 2381 2643 2742 
Q 2381 3103 1925 3103 
Q 1469 3103 1208 2742 
Q 947 2381 947 1747 
z
" transform="scale(0.015625)"/>
       <path id="DejaVuSans-73" d="M 2834 3397 
L 2834 2853 
Q 2591 2978 2328 3040 
Q 2066 3103 1784 3103 
Q 1356 3103 1142 2972 
Q 928 2841 928 2578 
Q 928 2378 1081 2264 
Q 1234 2150 1697 2047 
L 1894 2003 
Q 2506 1872 2764 1633 
Q 3022 1394 3022 966 
Q 3022 478 2636 193 
Q 2250 -91 1575 -91 
Q 1294 -91 989 -36 
Q 684 19 347 128 
L 347 722 
Q 666 556 975 473 
Q 1284 391 1588 391 
Q 1994 391 2212 530 
Q 2431 669 2431 922 
Q 2431 1156 2273 1281 
Q 2116 1406 1581 1522 
L 1381 1569 
Q 847 1681 609 1914 
Q 372 2147 372 2553 
Q 372 3047 722 3315 
Q 1072 3584 1716 3584 
Q 2034 3584 2315 3537 
Q 2597 3491 2834 3397 
z
" transform="scale(0.015625)"/>
       <path id="DejaVuSans-6e" d="M 3513 2113 
L 3513 0 
L 2938 0 
L 2938 2094 
Q 2938 2591 2744 2837 
Q 2550 3084 2163 3084 
Q 1697 3084 1428 2787 
Q 1159 2491 1159 1978 
L 1159 0 
L 581 0 
L 581 3500 
L 1159 3500 
L 1159 2956 
Q 1366 3272 1645 3428 
Q 1925 3584 2291 3584 
Q 2894 3584 3203 3211 
Q 3513 2838 3513 2113 
z
" transform="scale(0.015625)"/>
       <path id="DejaVuSans-63" d="M 3122 3366 
L 3122 2828 
Q 2878 2963 2633 3030 
Q 2388 3097 2138 3097 
Q 1578 3097 1268 2742 
Q 959 2388 959 1747 
Q 959 1106 1268 751 
Q 1578 397 2138 397 
Q 2388 397 2633 464 
Q 2878 531 3122 666 
L 3122 134 
Q 2881 22 2623 -34 
Q 2366 -91 2075 -91 
Q 1284 -91 818 406 
Q 353 903 353 1747 
Q 353 2603 823 3093 
Q 1294 3584 2113 3584 
Q 2378 3584 2631 3529 
Q 2884 3475 3122 3366 
z
" transform="scale(0.015625)"/>
       <path id="DejaVuSans-66" d="M 2375 4863 
L 2375 4384 
L 1825 4384 
Q 1516 4384 1395 4259 
Q 1275 4134 1275 3809 
L 1275 3500 
L 2222 3500 
L 2222 3053 
L 1275 3053 
L 1275 0 
L 697 0 
L 697 3053 
L 147 3053 
L 147 3500 
L 697 3500 
L 697 3744 
Q 697 4328 969 4595 
Q 1241 4863 1831 4863 
L 2375 4863 
z
" transform="scale(0.015625)"/>
       <path id="DejaVuSans-6f" d="M 1959 3097 
Q 1497 3097 1228 2736 
Q 959 2375 959 1747 
Q 959 1119 1226 758 
Q 1494 397 1959 397 
Q 2419 397 2687 759 
Q 2956 1122 2956 1747 
Q 2956 2369 2687 2733 
Q 2419 3097 1959 3097 
z
M 1959 3584 
Q 2709 3584 3137 3096 
Q 3566 2609 3566 1747 
Q 3566 888 3137 398 
Q 2709 -91 1959 -91 
Q 1206 -91 779 398 
Q 353 888 353 1747 
Q 353 2609 779 3096 
Q 1206 3584 1959 3584 
z
" transform="scale(0.015625)"/>
       <path id="DejaVuSans-6d" d="M 3328 2828 
Q 3544 3216 3844 3400 
Q 4144 3584 4550 3584 
Q 5097 3584 5394 3201 
Q 5691 2819 5691 2113 
L 5691 0 
L 5113 0 
L 5113 2094 
Q 5113 2597 4934 2840 
Q 4756 3084 4391 3084 
Q 3944 3084 3684 2787 
Q 3425 2491 3425 1978 
L 3425 0 
L 2847 0 
L 2847 2094 
Q 2847 2600 2669 2842 
Q 2491 3084 2119 3084 
Q 1678 3084 1418 2786 
Q 1159 2488 1159 1978 
L 1159 0 
L 581 0 
L 581 3500 
L 1159 3500 
L 1159 2956 
Q 1356 3278 1631 3431 
Q 1906 3584 2284 3584 
Q 2666 3584 2933 3390 
Q 3200 3197 3328 2828 
z
" transform="scale(0.015625)"/>
       <path id="DejaVuSans-52" d="M 2841 2188 
Q 3044 2119 3236 1894 
Q 3428 1669 3622 1275 
L 4263 0 
L 3584 0 
L 2988 1197 
Q 2756 1666 2539 1819 
Q 2322 1972 1947 1972 
L 1259 1972 
L 1259 0 
L 628 0 
L 628 4666 
L 2053 4666 
Q 2853 4666 3247 4331 
Q 3641 3997 3641 3322 
Q 3641 2881 3436 2590 
Q 3231 2300 2841 2188 
z
M 1259 4147 
L 1259 2491 
L 2053 2491 
Q 2509 2491 2742 2702 
Q 2975 2913 2975 3322 
Q 2975 3731 2742 3939 
Q 2509 4147 2053 4147 
L 1259 4147 
z
" transform="scale(0.015625)"/>
       <path id="DejaVuSans-4f" d="M 2522 4238 
Q 1834 4238 1429 3725 
Q 1025 3213 1025 2328 
Q 1025 1447 1429 934 
Q 1834 422 2522 422 
Q 3209 422 3611 934 
Q 4013 1447 4013 2328 
Q 4013 3213 3611 3725 
Q 3209 4238 2522 4238 
z
M 2522 4750 
Q 3503 4750 4090 4092 
Q 4678 3434 4678 2328 
Q 4678 1225 4090 567 
Q 3503 -91 2522 -91 
Q 1538 -91 948 565 
Q 359 1222 359 2328 
Q 359 3434 948 4092 
Q 1538 4750 2522 4750 
z
" transform="scale(0.015625)"/>
       <path id="DejaVuSans-49" d="M 628 4666 
L 1259 4666 
L 1259 0 
L 628 0 
L 628 4666 
z
" transform="scale(0.015625)"/>
       <path id="DejaVuSans-28" d="M 1984 4856 
Q 1566 4138 1362 3434 
Q 1159 2731 1159 2009 
Q 1159 1288 1364 580 
Q 1569 -128 1984 -844 
L 1484 -844 
Q 1016 -109 783 600 
Q 550 1309 550 2009 
Q 550 2706 781 3412 
Q 1013 4119 1484 4856 
L 1984 4856 
z
" transform="scale(0.015625)"/>
       <path id="DejaVuSans-Oblique-3c3" d="M 2219 3044 
Q 1744 3044 1422 2700 
Q 1081 2341 969 1747 
Q 844 1119 1044 756 
Q 1241 397 1706 397 
Q 2166 397 2503 759 
Q 2844 1122 2966 1747 
Q 3075 2319 2881 2700 
Q 2700 3044 2219 3044 
z
M 2309 3503 
L 4219 3500 
L 4106 2925 
L 3463 2925 
Q 3706 2438 3575 1747 
Q 3406 888 2884 400 
Q 2359 -91 1609 -91 
Q 856 -91 525 400 
Q 194 888 363 1747 
Q 528 2609 1050 3097 
Q 1484 3503 2309 3503 
z
" transform="scale(0.015625)"/>
       <path id="DejaVuSans-29" d="M 513 4856 
L 1013 4856 
Q 1481 4119 1714 3412 
Q 1947 2706 1947 2009 
Q 1947 1309 1714 600 
Q 1481 -109 1013 -844 
L 513 -844 
Q 928 -128 1133 580 
Q 1338 1288 1338 2009 
Q 1338 2731 1133 3434 
Q 928 4138 513 4856 
z
" transform="scale(0.015625)"/>
      </defs>
      <use xlink:href="#DejaVuSans-72" transform="translate(0 0.015625)"/>
      <use xlink:href="#DejaVuSans-65" transform="translate(41.113281 0.015625)"/>
      <use xlink:href="#DejaVuSans-6c" transform="translate(102.636719 0.015625)"/>
      <use xlink:href="#DejaVuSans-61" transform="translate(130.419922 0.015625)"/>
      <use xlink:href="#DejaVuSans-74" transform="translate(191.699219 0.015625)"/>
      <use xlink:href="#DejaVuSans-69" transform="translate(230.908203 0.015625)"/>
      <use xlink:href="#DejaVuSans-76" transform="translate(258.691406 0.015625)"/>
      <use xlink:href="#DejaVuSans-65" transform="translate(317.871094 0.015625)"/>
      <use xlink:href="#DejaVuSans-20" transform="translate(379.394531 0.015625)"/>
      <use xlink:href="#DejaVuSans-64" transform="translate(411.181641 0.015625)"/>
      <use xlink:href="#DejaVuSans-69" transform="translate(474.658203 0.015625)"/>
      <use xlink:href="#DejaVuSans-73" transform="translate(502.441406 0.015625)"/>
      <use xlink:href="#DejaVuSans-74" transform="translate(554.541016 0.015625)"/>
      <use xlink:href="#DejaVuSans-61" transform="translate(593.75 0.015625)"/>
      <use xlink:href="#DejaVuSans-6e" transform="translate(655.029297 0.015625)"/>
      <use xlink:href="#DejaVuSans-63" transform="translate(718.408203 0.015625)"/>
      <use xlink:href="#DejaVuSans-65" transform="translate(773.388672 0.015625)"/>
      <use xlink:href="#DejaVuSans-20" transform="translate(834.912109 0.015625)"/>
      <use xlink:href="#DejaVuSans-66" transform="translate(866.699219 0.015625)"/>
      <use xlink:href="#DejaVuSans-72" transform="translate(901.904297 0.015625)"/>
      <use xlink:href="#DejaVuSans-6f" transform="translate(943.017578 0.015625)"/>
      <use xlink:href="#DejaVuSans-6d" transform="translate(1004.199219 0.015625)"/>
      <use xlink:href="#DejaVuSans-20" transform="translate(1101.611328 0.015625)"/>
      <use xlink:href="#DejaVuSans-52" transform="translate(1133.398438 0.015625)"/>
      <use xlink:href="#DejaVuSans-4f" transform="translate(1202.880859 0.015625)"/>
      <use xlink:href="#DejaVuSans-49" transform="translate(1281.591797 0.015625)"/>
      <use xlink:href="#DejaVuSans-20" transform="translate(1311.083984 0.015625)"/>
      <use xlink:href="#DejaVuSans-63" transform="translate(1342.871094 0.015625)"/>
      <use xlink:href="#DejaVuSans-65" transform="translate(1397.851562 0.015625)"/>
      <use xlink:href="#DejaVuSans-6e" transform="translate(1459.375 0.015625)"/>
      <use xlink:href="#DejaVuSans-74" transform="translate(1522.753906 0.015625)"/>
      <use xlink:href="#DejaVuSans-65" transform="translate(1561.962891 0.015625)"/>
      <use xlink:href="#DejaVuSans-72" transform="translate(1623.486328 0.015625)"/>
      <use xlink:href="#DejaVuSans-20" transform="translate(1664.599609 0.015625)"/>
      <use xlink:href="#DejaVuSans-28" transform="translate(1696.386719 0.015625)"/>
      <use xlink:href="#DejaVuSans-Oblique-3c3" transform="translate(1735.400391 0.015625)"/>
      <use xlink:href="#DejaVuSans-29" transform="translate(1798.779297 0.015625)"/>
     </g>
    </g>
   </g>
   <g id="matplotlib.axis_2">
    <g id="ytick_1">
     <g id="line2d_6">
      <defs>
       <path id="m157dc0c5c0" d="M 0 0 
L -3.5 0 
" style="stroke: #000000; stroke-width: 0.8"/>
      </defs>
      <g>
       <use xlink:href="#m157dc0c5c0" x="46" y="376.094118" style="stroke: #000000; stroke-width: 0.8"/>
      </g>
     </g>
     <g id="text_7">
      <!-- 0 -->
      <g transform="translate(32.6375 379.893336) scale(0.1 -0.1)">
       <use xlink:href="#DejaVuSans-30"/>
      </g>
     </g>
    </g>
    <g id="ytick_2">
     <g id="line2d_7">
      <g>
       <use xlink:href="#m157dc0c5c0" x="46" y="350.682353" style="stroke: #000000; stroke-width: 0.8"/>
      </g>
     </g>
     <g id="text_8">
      <!-- 2 -->
      <g transform="translate(32.6375 354.481572) scale(0.1 -0.1)">
       <use xlink:href="#DejaVuSans-32"/>
      </g>
     </g>
    </g>
    <g id="ytick_3">
     <g id="line2d_8">
      <g>
       <use xlink:href="#m157dc0c5c0" x="46" y="325.270588" style="stroke: #000000; stroke-width: 0.8"/>
      </g>
     </g>
     <g id="text_9">
      <!-- 4 -->
      <g transform="translate(32.6375 329.069807) scale(0.1 -0.1)">
       <use xlink:href="#DejaVuSans-34"/>
      </g>
     </g>
    </g>
    <g id="ytick_4">
     <g id="line2d_9">
      <g>
       <use xlink:href="#m157dc0c5c0" x="46" y="299.858824" style="stroke: #000000; stroke-width: 0.8"/>
      </g>
     </g>
     <g id="text_10">
      <!-- 6 -->
      <g transform="translate(32.6375 303.658042) scale(0.1 -0.1)">
       <defs>
        <path id="DejaVuSans-36" d="M 2113 2584 
Q 1688 2584 1439 2293 
Q 1191 2003 1191 1497 
Q 1191 994 1439 701 
Q 1688 409 2113 409 
Q 2538 409 2786 701 
Q 3034 994 3034 1497 
Q 3034 2003 2786 2293 
Q 2538 2584 2113 2584 
z
M 3366 4563 
L 3366 3988 
Q 3128 4100 2886 4159 
Q 2644 4219 2406 4219 
Q 1781 4219 1451 3797 
Q 1122 3375 1075 2522 
Q 1259 2794 1537 2939 
Q 1816 3084 2150 3084 
Q 2853 3084 3261 2657 
Q 3669 2231 3669 1497 
Q 3669 778 3244 343 
Q 2819 -91 2113 -91 
Q 1303 -91 875 529 
Q 447 1150 447 2328 
Q 447 3434 972 4092 
Q 1497 4750 2381 4750 
Q 2619 4750 2861 4703 
Q 3103 4656 3366 4563 
z
" transform="scale(0.015625)"/>
       </defs>
       <use xlink:href="#DejaVuSans-36"/>
      </g>
     </g>
    </g>
    <g id="text_11">
     <!-- BOLD % change -->
     <g transform="translate(26.141875 383.094375) rotate(-90) scale(0.12 -0.12)">
      <defs>
       <path id="DejaVuSans-42" d="M 1259 2228 
L 1259 519 
L 2272 519 
Q 2781 519 3026 730 
Q 3272 941 3272 1375 
Q 3272 1813 3026 2020 
Q 2781 2228 2272 2228 
L 1259 2228 
z
M 1259 4147 
L 1259 2741 
L 2194 2741 
Q 2656 2741 2882 2914 
Q 3109 3088 3109 3444 
Q 3109 3797 2882 3972 
Q 2656 4147 2194 4147 
L 1259 4147 
z
M 628 4666 
L 2241 4666 
Q 2963 4666 3353 4366 
Q 3744 4066 3744 3513 
Q 3744 3084 3544 2831 
Q 3344 2578 2956 2516 
Q 3422 2416 3680 2098 
Q 3938 1781 3938 1306 
Q 3938 681 3513 340 
Q 3088 0 2303 0 
L 628 0 
L 628 4666 
z
" transform="scale(0.015625)"/>
       <path id="DejaVuSans-4c" d="M 628 4666 
L 1259 4666 
L 1259 531 
L 3531 531 
L 3531 0 
L 628 0 
L 628 4666 
z
" transform="scale(0.015625)"/>
       <path id="DejaVuSans-44" d="M 1259 4147 
L 1259 519 
L 2022 519 
Q 2988 519 3436 956 
Q 3884 1394 3884 2338 
Q 3884 3275 3436 3711 
Q 2988 4147 2022 4147 
L 1259 4147 
z
M 628 4666 
L 1925 4666 
Q 3281 4666 3915 4102 
Q 4550 3538 4550 2338 
Q 4550 1131 3912 565 
Q 3275 0 1925 0 
L 628 0 
L 628 4666 
z
" transform="scale(0.015625)"/>
       <path id="DejaVuSans-25" d="M 4653 2053 
Q 4381 2053 4226 1822 
Q 4072 1591 4072 1178 
Q 4072 772 4226 539 
Q 4381 306 4653 306 
Q 4919 306 5073 539 
Q 5228 772 5228 1178 
Q 5228 1588 5073 1820 
Q 4919 2053 4653 2053 
z
M 4653 2450 
Q 5147 2450 5437 2106 
Q 5728 1763 5728 1178 
Q 5728 594 5436 251 
Q 5144 -91 4653 -91 
Q 4153 -91 3862 251 
Q 3572 594 3572 1178 
Q 3572 1766 3864 2108 
Q 4156 2450 4653 2450 
z
M 1428 4353 
Q 1159 4353 1004 4120 
Q 850 3888 850 3481 
Q 850 3069 1003 2837 
Q 1156 2606 1428 2606 
Q 1700 2606 1854 2837 
Q 2009 3069 2009 3481 
Q 2009 3884 1853 4118 
Q 1697 4353 1428 4353 
z
M 4250 4750 
L 4750 4750 
L 1831 -91 
L 1331 -91 
L 4250 4750 
z
M 1428 4750 
Q 1922 4750 2215 4408 
Q 2509 4066 2509 3481 
Q 2509 2891 2217 2550 
Q 1925 2209 1428 2209 
Q 931 2209 642 2551 
Q 353 2894 353 3481 
Q 353 4063 643 4406 
Q 934 4750 1428 4750 
z
" transform="scale(0.015625)"/>
       <path id="DejaVuSans-68" d="M 3513 2113 
L 3513 0 
L 2938 0 
L 2938 2094 
Q 2938 2591 2744 2837 
Q 2550 3084 2163 3084 
Q 1697 3084 1428 2787 
Q 1159 2491 1159 1978 
L 1159 0 
L 581 0 
L 581 4863 
L 1159 4863 
L 1159 2956 
Q 1366 3272 1645 3428 
Q 1925 3584 2291 3584 
Q 2894 3584 3203 3211 
Q 3513 2838 3513 2113 
z
" transform="scale(0.015625)"/>
       <path id="DejaVuSans-67" d="M 2906 1791 
Q 2906 2416 2648 2759 
Q 2391 3103 1925 3103 
Q 1463 3103 1205 2759 
Q 947 2416 947 1791 
Q 947 1169 1205 825 
Q 1463 481 1925 481 
Q 2391 481 2648 825 
Q 2906 1169 2906 1791 
z
M 3481 434 
Q 3481 -459 3084 -895 
Q 2688 -1331 1869 -1331 
Q 1566 -1331 1297 -1286 
Q 1028 -1241 775 -1147 
L 775 -588 
Q 1028 -725 1275 -790 
Q 1522 -856 1778 -856 
Q 2344 -856 2625 -561 
Q 2906 -266 2906 331 
L 2906 616 
Q 2728 306 2450 153 
Q 2172 0 1784 0 
Q 1141 0 747 490 
Q 353 981 353 1791 
Q 353 2603 747 3093 
Q 1141 3584 1784 3584 
Q 2172 3584 2450 3431 
Q 2728 3278 2906 2969 
L 2906 3500 
L 3481 3500 
L 3481 434 
z
" transform="scale(0.015625)"/>
      </defs>
      <use xlink:href="#DejaVuSans-42"/>
      <use xlink:href="#DejaVuSans-4f" x="66.853516"/>
      <use xlink:href="#DejaVuSans-4c" x="145.564453"/>
      <use xlink:href="#DejaVuSans-44" x="201.277344"/>
      <use xlink:href="#DejaVuSans-20" x="278.279297"/>
      <use xlink:href="#DejaVuSans-25" x="310.066406"/>
      <use xlink:href="#DejaVuSans-20" x="405.085938"/>
      <use xlink:href="#DejaVuSans-63" x="436.873047"/>
      <use xlink:href="#DejaVuSans-68" x="491.853516"/>
      <use xlink:href="#DejaVuSans-61" x="555.232422"/>
      <use xlink:href="#DejaVuSans-6e" x="616.511719"/>
      <use xlink:href="#DejaVuSans-67" x="679.890625"/>
      <use xlink:href="#DejaVuSans-65" x="743.367188"/>
     </g>
    </g>
   </g>
   <g id="line2d_10">
    <path d="M 180 388.8 
L 180 280.8 
" clip-path="url(#peb139a9f9e)" style="fill: none; stroke-dasharray: 5.55,2.4; stroke-dashoffset: 0; stroke: #4c4c4c; stroke-width: 1.5"/>
   </g>
   <g id="LineCollection_1">
    <path d="M 65.454545 376.094118 
L 294.545455 376.094118 
" clip-path="url(#peb139a9f9e)" style="fill: none; stroke-dasharray: 5.55,2.4; stroke-dashoffset: 0; stroke: #4c4c4c; stroke-width: 1.5"/>
   </g>
   <g id="line2d_11">
    <path d="M 65.454545 352.768113 
L 70.12987 352.768113 
L 74.805195 352.768122 
L 79.480519 352.305944 
L 84.155844 351.915915 
L 88.831169 352.011831 
L 93.506494 352.135803 
L 98.181818 352.421014 
L 102.857143 352.440623 
L 107.532468 352.204362 
L 112.207792 352.245533 
L 116.883117 352.141465 
L 121.558442 351.77017 
L 126.233766 351.395982 
L 130.909091 351.198057 
L 135.584416 351.017575 
L 140.25974 350.75076 
L 144.935065 350.490925 
L 149.61039 350.352125 
L 154.285714 350.193118 
L 158.961039 349.926254 
L 163.636364 349.631276 
L 168.311688 349.438316 
L 172.987013 349.170525 
L 177.662338 348.91595 
L 182.337662 348.708206 
L 187.012987 348.382306 
L 191.688312 348.165209 
L 196.363636 348.015188 
L 201.038961 347.991388 
L 205.714286 348.079247 
L 210.38961 348.073427 
L 215.064935 347.982835 
L 219.74026 347.758031 
L 224.415584 347.629761 
L 229.090909 347.435575 
L 233.766234 347.149328 
L 238.441558 346.846206 
L 243.116883 346.607375 
L 247.792208 346.45765 
L 252.467532 346.36989 
L 257.142857 346.562233 
L 261.818182 346.540288 
L 266.493506 346.69519 
L 271.168831 346.874531 
L 275.844156 346.92055 
L 280.519481 346.702959 
L 285.194805 346.459557 
L 289.87013 346.445078 
L 294.545455 346.603421 
" clip-path="url(#peb139a9f9e)" style="fill: none; stroke: #ff0000; stroke-width: 1.5; stroke-linecap: square"/>
   </g>
   <g id="line2d_12">
    <defs>
     <path id="m54570f9a97" d="M 2.896197 -1.24666 
L 0.591984 -0.001028 
L 2.896197 1.252826 
L 2.524152 1.881809 
L 0.365879 0.578623 
L 0.365879 3 
L -0.365879 3 
L -0.365879 0.578623 
L -2.524152 1.881809 
L -2.896197 1.252826 
L -0.589928 -0.001028 
L -2.896197 -1.24666 
L -2.524152 -1.881809 
L -0.365879 -0.578623 
L -0.365879 -3 
L 0.365879 -3 
L 0.365879 -0.578623 
L 2.524152 -1.881809 
L 2.896197 -1.24666 
z
" style="stroke: #000000"/>
    </defs>
    <g clip-path="url(#peb139a9f9e)">
     <use xlink:href="#m54570f9a97" x="103.636364" y="289.694118" style="stroke: #000000"/>
     <use xlink:href="#m54570f9a97" x="180" y="289.694118" style="stroke: #000000"/>
     <use xlink:href="#m54570f9a97" x="256.363636" y="289.694118" style="stroke: #000000"/>
    </g>
   </g>
   <g id="LineCollection_2">
    <path d="M 65.454545 388.8 
L 65.454545 350.682353 
" clip-path="url(#peb139a9f9e)" style="fill: none; stroke-dasharray: 1.5,2.475; stroke-dashoffset: 0; stroke: #1f77b4; stroke-opacity: 0.3; stroke-width: 1.5"/>
    <path d="M 141.818182 388.8 
L 141.818182 350.682353 
" clip-path="url(#peb139a9f9e)" style="fill: none; stroke-dasharray: 1.5,2.475; stroke-dashoffset: 0; stroke: #1f77b4; stroke-opacity: 0.3; stroke-width: 1.5"/>
    <path d="M 218.181818 388.8 
L 218.181818 350.682353 
" clip-path="url(#peb139a9f9e)" style="fill: none; stroke-dasharray: 1.5,2.475; stroke-dashoffset: 0; stroke: #1f77b4; stroke-opacity: 0.3; stroke-width: 1.5"/>
    <path d="M 294.545455 388.8 
L 294.545455 350.682353 
" clip-path="url(#peb139a9f9e)" style="fill: none; stroke-dasharray: 1.5,2.475; stroke-dashoffset: 0; stroke: #1f77b4; stroke-opacity: 0.3; stroke-width: 1.5"/>
   </g>
   <g id="LineCollection_3">
    <path d="M 103.636364 350.973826 
L 103.636364 347.113691 
" clip-path="url(#peb139a9f9e)" style="fill: none; stroke: #1f77b4; stroke-width: 1.5"/>
    <path d="M 180 349.407504 
L 180 346.893599 
" clip-path="url(#peb139a9f9e)" style="fill: none; stroke: #1f77b4; stroke-width: 1.5"/>
    <path d="M 256.363636 348.869298 
L 256.363636 345.573873 
" clip-path="url(#peb139a9f9e)" style="fill: none; stroke: #1f77b4; stroke-width: 1.5"/>
   </g>
   <g id="line2d_13">
    <defs>
     <path id="m5bc88f036f" d="M 0 3 
C 0.795609 3 1.55874 2.683901 2.12132 2.12132 
C 2.683901 1.55874 3 0.795609 3 0 
C 3 -0.795609 2.683901 -1.55874 2.12132 -2.12132 
C 1.55874 -2.683901 0.795609 -3 0 -3 
C -0.795609 -3 -1.55874 -2.683901 -2.12132 -2.12132 
C -2.683901 -1.55874 -3 -0.795609 -3 0 
C -3 0.795609 -2.683901 1.55874 -2.12132 2.12132 
C -1.55874 2.683901 -0.795609 3 0 3 
z
" style="stroke: #1f77b4"/>
    </defs>
    <g clip-path="url(#peb139a9f9e)">
     <use xlink:href="#m5bc88f036f" x="103.636364" y="349.043758" style="fill: #1f77b4; stroke: #1f77b4"/>
     <use xlink:href="#m5bc88f036f" x="180" y="348.150552" style="fill: #1f77b4; stroke: #1f77b4"/>
     <use xlink:href="#m5bc88f036f" x="256.363636" y="347.221585" style="fill: #1f77b4; stroke: #1f77b4"/>
    </g>
   </g>
   <g id="patch_3">
    <path d="M 46 388.8 
L 46 280.8 
" style="fill: none; stroke: #000000; stroke-width: 0.8; stroke-linejoin: miter; stroke-linecap: square"/>
   </g>
   <g id="patch_4">
    <path d="M 54 396.8 
L 306 396.8 
" style="fill: none; stroke: #000000; stroke-width: 0.8; stroke-linejoin: miter; stroke-linecap: square"/>
   </g>
  </g>
  <g id="axes_2">
   <g id="patch_5">
    <path d="M 54 259.2 
L 306 259.2 
L 306 151.2 
L 54 151.2 
z
" style="fill: #ffffff"/>
   </g>
   <g id="PolyCollection_2">
    <defs>
     <path id="mc91525ad50" d="M 65.454545 -221.00526 
L 65.454545 -213.961403 
L 70.12987 -213.834766 
L 74.805195 -213.685286 
L 79.480519 -213.432396 
L 84.155844 -213.285833 
L 88.831169 -213.377068 
L 93.506494 -213.584406 
L 98.181818 -214.012277 
L 102.857143 -214.134022 
L 107.532468 -214.30852 
L 112.207792 -214.59377 
L 116.883117 -214.718773 
L 121.558442 -214.895831 
L 126.233766 -215.271213 
L 130.909091 -215.56462 
L 135.584416 -215.853982 
L 140.25974 -216.278216 
L 144.935065 -216.524558 
L 149.61039 -216.803315 
L 154.285714 -217.188153 
L 158.961039 -217.497307 
L 163.636364 -217.645705 
L 168.311688 -217.77879 
L 172.987013 -217.868326 
L 177.662338 -217.859247 
L 182.337662 -217.863966 
L 187.012987 -218.014989 
L 191.688312 -218.118814 
L 196.363636 -218.245534 
L 201.038961 -218.2898 
L 205.714286 -218.31195 
L 210.38961 -218.431695 
L 215.064935 -218.323353 
L 219.74026 -218.312514 
L 224.415584 -218.415727 
L 229.090909 -218.508779 
L 233.766234 -218.539269 
L 238.441558 -218.511679 
L 243.116883 -218.492061 
L 247.792208 -218.522201 
L 252.467532 -218.453495 
L 257.142857 -218.328302 
L 261.818182 -218.105186 
L 266.493506 -217.91407 
L 271.168831 -217.816113 
L 275.844156 -217.789301 
L 280.519481 -217.668438 
L 285.194805 -217.480578 
L 289.87013 -217.300363 
L 294.545455 -217.245981 
L 294.545455 -229.33586 
L 294.545455 -229.33586 
L 289.87013 -229.624331 
L 285.194805 -230.048623 
L 280.519481 -230.570632 
L 275.844156 -231.288738 
L 271.168831 -232.139946 
L 266.493506 -232.798287 
L 261.818182 -233.164094 
L 257.142857 -233.577813 
L 252.467532 -234.037066 
L 247.792208 -234.072148 
L 243.116883 -233.603421 
L 238.441558 -233.156072 
L 233.766234 -232.55594 
L 229.090909 -231.983153 
L 224.415584 -231.190413 
L 219.74026 -230.262777 
L 215.064935 -229.89609 
L 210.38961 -229.685553 
L 205.714286 -229.157569 
L 201.038961 -228.811699 
L 196.363636 -228.437836 
L 191.688312 -228.155348 
L 187.012987 -228.146599 
L 182.337662 -228.089345 
L 177.662338 -228.136237 
L 172.987013 -228.17817 
L 168.311688 -228.044461 
L 163.636364 -227.510239 
L 158.961039 -227.014435 
L 154.285714 -226.474536 
L 149.61039 -225.61947 
L 144.935065 -224.63209 
L 140.25974 -223.686773 
L 135.584416 -222.739618 
L 130.909091 -222.088253 
L 126.233766 -221.547967 
L 121.558442 -221.065767 
L 116.883117 -220.985535 
L 112.207792 -220.971537 
L 107.532468 -220.947501 
L 102.857143 -220.855125 
L 98.181818 -220.892791 
L 93.506494 -220.617884 
L 88.831169 -220.468083 
L 84.155844 -220.35619 
L 79.480519 -220.473247 
L 74.805195 -220.923325 
L 70.12987 -220.970731 
L 65.454545 -221.00526 
z
"/>
    </defs>
    <g clip-path="url(#p5e96a0257f)">
     <use xlink:href="#mc91525ad50" x="0" y="432" style="fill: #ff0000; fill-opacity: 0.4"/>
    </g>
   </g>
   <g id="matplotlib.axis_3">
    <g id="xtick_6">
     <g id="line2d_14">
      <g>
       <use xlink:href="#m7fd0859b34" x="65.454545" y="267.2" style="stroke: #000000; stroke-width: 0.8"/>
      </g>
     </g>
    </g>
    <g id="xtick_7">
     <g id="line2d_15">
      <g>
       <use xlink:href="#m7fd0859b34" x="122.727273" y="267.2" style="stroke: #000000; stroke-width: 0.8"/>
      </g>
     </g>
    </g>
    <g id="xtick_8">
     <g id="line2d_16">
      <g>
       <use xlink:href="#m7fd0859b34" x="180" y="267.2" style="stroke: #000000; stroke-width: 0.8"/>
      </g>
     </g>
    </g>
    <g id="xtick_9">
     <g id="line2d_17">
      <g>
       <use xlink:href="#m7fd0859b34" x="237.272727" y="267.2" style="stroke: #000000; stroke-width: 0.8"/>
      </g>
     </g>
    </g>
    <g id="xtick_10">
     <g id="line2d_18">
      <g>
       <use xlink:href="#m7fd0859b34" x="294.545455" y="267.2" style="stroke: #000000; stroke-width: 0.8"/>
      </g>
     </g>
    </g>
   </g>
   <g id="matplotlib.axis_4">
    <g id="ytick_5">
     <g id="line2d_19">
      <g>
       <use xlink:href="#m157dc0c5c0" x="46" y="246.494118" style="stroke: #000000; stroke-width: 0.8"/>
      </g>
     </g>
     <g id="text_12">
      <!-- 0 -->
      <g transform="translate(32.6375 250.293336) scale(0.1 -0.1)">
       <use xlink:href="#DejaVuSans-30"/>
      </g>
     </g>
    </g>
    <g id="ytick_6">
     <g id="line2d_20">
      <g>
       <use xlink:href="#m157dc0c5c0" x="46" y="221.082353" style="stroke: #000000; stroke-width: 0.8"/>
      </g>
     </g>
     <g id="text_13">
      <!-- 2 -->
      <g transform="translate(32.6375 224.881572) scale(0.1 -0.1)">
       <use xlink:href="#DejaVuSans-32"/>
      </g>
     </g>
    </g>
    <g id="ytick_7">
     <g id="line2d_21">
      <g>
       <use xlink:href="#m157dc0c5c0" x="46" y="195.670588" style="stroke: #000000; stroke-width: 0.8"/>
      </g>
     </g>
     <g id="text_14">
      <!-- 4 -->
      <g transform="translate(32.6375 199.469807) scale(0.1 -0.1)">
       <use xlink:href="#DejaVuSans-34"/>
      </g>
     </g>
    </g>
    <g id="ytick_8">
     <g id="line2d_22">
      <g>
       <use xlink:href="#m157dc0c5c0" x="46" y="170.258824" style="stroke: #000000; stroke-width: 0.8"/>
      </g>
     </g>
     <g id="text_15">
      <!-- 6 -->
      <g transform="translate(32.6375 174.058042) scale(0.1 -0.1)">
       <use xlink:href="#DejaVuSans-36"/>
      </g>
     </g>
    </g>
    <g id="text_16">
     <!-- BOLD % change -->
     <g transform="translate(26.141875 253.494375) rotate(-90) scale(0.12 -0.12)">
      <use xlink:href="#DejaVuSans-42"/>
      <use xlink:href="#DejaVuSans-4f" x="66.853516"/>
      <use xlink:href="#DejaVuSans-4c" x="145.564453"/>
      <use xlink:href="#DejaVuSans-44" x="201.277344"/>
      <use xlink:href="#DejaVuSans-20" x="278.279297"/>
      <use xlink:href="#DejaVuSans-25" x="310.066406"/>
      <use xlink:href="#DejaVuSans-20" x="405.085938"/>
      <use xlink:href="#DejaVuSans-63" x="436.873047"/>
      <use xlink:href="#DejaVuSans-68" x="491.853516"/>
      <use xlink:href="#DejaVuSans-61" x="555.232422"/>
      <use xlink:href="#DejaVuSans-6e" x="616.511719"/>
      <use xlink:href="#DejaVuSans-67" x="679.890625"/>
      <use xlink:href="#DejaVuSans-65" x="743.367188"/>
     </g>
    </g>
   </g>
   <g id="line2d_23">
    <path d="M 180 259.2 
L 180 151.2 
" clip-path="url(#p5e96a0257f)" style="fill: none; stroke-dasharray: 5.55,2.4; stroke-dashoffset: 0; stroke: #4c4c4c; stroke-width: 1.5"/>
   </g>
   <g id="LineCollection_4">
    <path d="M 65.454545 246.494118 
L 294.545455 246.494118 
" clip-path="url(#p5e96a0257f)" style="fill: none; stroke-dasharray: 5.55,2.4; stroke-dashoffset: 0; stroke: #4c4c4c; stroke-width: 1.5"/>
   </g>
   <g id="line2d_24">
    <path d="M 65.454545 214.516668 
L 70.12987 214.597252 
L 74.805195 214.695694 
L 79.480519 215.047179 
L 84.155844 215.178989 
L 88.831169 215.077425 
L 93.506494 214.898855 
L 98.181818 214.547466 
L 102.857143 214.505426 
L 107.532468 214.37199 
L 112.207792 214.217347 
L 116.883117 214.147846 
L 121.558442 214.019201 
L 126.233766 213.59041 
L 130.909091 213.173564 
L 135.584416 212.7032 
L 140.25974 212.017505 
L 144.935065 211.421676 
L 149.61039 210.788607 
L 154.285714 210.168655 
L 158.961039 209.744129 
L 163.636364 209.422028 
L 168.311688 209.088375 
L 172.987013 208.976752 
L 177.662338 209.002258 
L 182.337662 209.023345 
L 187.012987 208.919206 
L 191.688312 208.862919 
L 196.363636 208.658315 
L 201.038961 208.449251 
L 205.714286 208.265241 
L 210.38961 207.941376 
L 215.064935 207.890278 
L 219.74026 207.712354 
L 224.415584 207.19693 
L 229.090909 206.754034 
L 233.766234 206.452396 
L 238.441558 206.166125 
L 243.116883 205.952259 
L 247.792208 205.702826 
L 252.467532 205.754719 
L 257.142857 206.046942 
L 261.818182 206.36536 
L 266.493506 206.643822 
L 271.168831 207.02197 
L 275.844156 207.46098 
L 280.519481 207.880465 
L 285.194805 208.235399 
L 289.87013 208.537653 
L 294.545455 208.709079 
" clip-path="url(#p5e96a0257f)" style="fill: none; stroke: #ff0000; stroke-width: 1.5; stroke-linecap: square"/>
   </g>
   <g id="line2d_25">
    <g clip-path="url(#p5e96a0257f)">
     <use xlink:href="#m54570f9a97" x="103.636364" y="160.094118" style="stroke: #000000"/>
     <use xlink:href="#m54570f9a97" x="180" y="160.094118" style="stroke: #000000"/>
     <use xlink:href="#m54570f9a97" x="256.363636" y="160.094118" style="stroke: #000000"/>
    </g>
   </g>
   <g id="LineCollection_5">
    <path d="M 65.454545 259.2 
L 65.454545 221.082353 
" clip-path="url(#p5e96a0257f)" style="fill: none; stroke-dasharray: 1.5,2.475; stroke-dashoffset: 0; stroke: #1f77b4; stroke-opacity: 0.3; stroke-width: 1.5"/>
    <path d="M 141.818182 259.2 
L 141.818182 221.082353 
" clip-path="url(#p5e96a0257f)" style="fill: none; stroke-dasharray: 1.5,2.475; stroke-dashoffset: 0; stroke: #1f77b4; stroke-opacity: 0.3; stroke-width: 1.5"/>
    <path d="M 218.181818 259.2 
L 218.181818 221.082353 
" clip-path="url(#p5e96a0257f)" style="fill: none; stroke-dasharray: 1.5,2.475; stroke-dashoffset: 0; stroke: #1f77b4; stroke-opacity: 0.3; stroke-width: 1.5"/>
    <path d="M 294.545455 259.2 
L 294.545455 221.082353 
" clip-path="url(#p5e96a0257f)" style="fill: none; stroke-dasharray: 1.5,2.475; stroke-dashoffset: 0; stroke: #1f77b4; stroke-opacity: 0.3; stroke-width: 1.5"/>
   </g>
   <g id="LineCollection_6">
    <path d="M 103.636364 213.185386 
L 103.636364 205.27556 
" clip-path="url(#p5e96a0257f)" style="fill: none; stroke: #1f77b4; stroke-width: 1.5"/>
    <path d="M 180 209.202086 
L 180 203.807182 
" clip-path="url(#p5e96a0257f)" style="fill: none; stroke: #1f77b4; stroke-width: 1.5"/>
    <path d="M 256.363636 209.241615 
L 256.363636 202.612861 
" clip-path="url(#p5e96a0257f)" style="fill: none; stroke: #1f77b4; stroke-width: 1.5"/>
   </g>
   <g id="line2d_26">
    <g clip-path="url(#p5e96a0257f)">
     <use xlink:href="#m5bc88f036f" x="103.636364" y="209.230473" style="fill: #1f77b4; stroke: #1f77b4"/>
     <use xlink:href="#m5bc88f036f" x="180" y="206.504634" style="fill: #1f77b4; stroke: #1f77b4"/>
     <use xlink:href="#m5bc88f036f" x="256.363636" y="205.927238" style="fill: #1f77b4; stroke: #1f77b4"/>
    </g>
   </g>
   <g id="patch_6">
    <path d="M 46 259.2 
L 46 151.2 
" style="fill: none; stroke: #000000; stroke-width: 0.8; stroke-linejoin: miter; stroke-linecap: square"/>
   </g>
   <g id="patch_7">
    <path d="M 54 267.2 
L 306 267.2 
" style="fill: none; stroke: #000000; stroke-width: 0.8; stroke-linejoin: miter; stroke-linecap: square"/>
   </g>
   <g id="text_17">
    <!-- iso0 -->
    <g style="fill: #ff0000" transform="translate(265.909091 185.505882) scale(0.11 -0.11)">
     <use xlink:href="#DejaVuSans-69"/>
     <use xlink:href="#DejaVuSans-73" x="27.783203"/>
     <use xlink:href="#DejaVuSans-6f" x="79.882812"/>
     <use xlink:href="#DejaVuSans-30" x="141.064453"/>
    </g>
   </g>
  </g>
  <g id="axes_3">
   <g id="patch_8">
    <path d="M 54 129.6 
L 306 129.6 
L 306 21.6 
L 54 21.6 
z
" style="fill: #ffffff"/>
   </g>
   <g id="PolyCollection_3">
    <defs>
     <path id="m9f5618ab8a" d="M 65.454545 -371.816392 
L 65.454545 -357.443983 
L 70.12987 -357.376016 
L 74.805195 -357.247751 
L 79.480519 -357.109865 
L 84.155844 -357.218399 
L 88.831169 -356.943574 
L 93.506494 -356.140177 
L 98.181818 -355.49726 
L 102.857143 -354.999277 
L 107.532468 -354.834053 
L 112.207792 -355.399136 
L 116.883117 -355.586195 
L 121.558442 -355.780996 
L 126.233766 -355.833805 
L 130.909091 -356.156397 
L 135.584416 -357.059791 
L 140.25974 -357.536422 
L 144.935065 -357.776516 
L 149.61039 -358.038311 
L 154.285714 -358.174882 
L 158.961039 -358.241038 
L 163.636364 -358.79087 
L 168.311688 -359.448044 
L 172.987013 -360.199429 
L 177.662338 -360.906228 
L 182.337662 -361.304544 
L 187.012987 -361.659073 
L 191.688312 -362.021955 
L 196.363636 -362.272757 
L 201.038961 -362.359955 
L 205.714286 -362.065478 
L 210.38961 -361.681754 
L 215.064935 -361.459549 
L 219.74026 -361.395507 
L 224.415584 -361.261163 
L 229.090909 -360.995302 
L 233.766234 -360.720802 
L 238.441558 -360.515782 
L 243.116883 -360.238269 
L 247.792208 -359.800369 
L 252.467532 -359.513643 
L 257.142857 -359.37113 
L 261.818182 -359.489929 
L 266.493506 -359.55291 
L 271.168831 -359.746643 
L 275.844156 -359.882323 
L 280.519481 -359.792622 
L 285.194805 -359.734962 
L 289.87013 -359.550805 
L 294.545455 -359.631725 
L 294.545455 -379.257887 
L 294.545455 -379.257887 
L 289.87013 -379.414946 
L 285.194805 -380.25858 
L 280.519481 -380.553511 
L 275.844156 -380.685776 
L 271.168831 -380.36384 
L 266.493506 -380.101324 
L 261.818182 -379.963482 
L 257.142857 -379.691127 
L 252.467532 -379.960754 
L 247.792208 -380.313525 
L 243.116883 -380.911443 
L 238.441558 -381.374271 
L 233.766234 -381.314143 
L 229.090909 -381.770997 
L 224.415584 -382.56632 
L 219.74026 -382.793827 
L 215.064935 -382.927806 
L 210.38961 -383.452253 
L 205.714286 -384.117461 
L 201.038961 -384.608935 
L 196.363636 -384.173911 
L 191.688312 -383.091966 
L 187.012987 -381.567052 
L 182.337662 -380.315134 
L 177.662338 -379.119217 
L 172.987013 -377.466106 
L 168.311688 -375.644698 
L 163.636364 -374.426431 
L 158.961039 -373.655543 
L 154.285714 -373.530673 
L 149.61039 -373.134298 
L 144.935065 -372.309416 
L 140.25974 -371.688348 
L 135.584416 -370.646296 
L 130.909091 -369.365318 
L 126.233766 -368.88854 
L 121.558442 -368.790341 
L 116.883117 -368.336658 
L 112.207792 -368.135374 
L 107.532468 -367.803451 
L 102.857143 -368.331177 
L 98.181818 -369.216675 
L 93.506494 -369.957942 
L 88.831169 -370.768838 
L 84.155844 -371.431564 
L 79.480519 -371.43733 
L 74.805195 -371.364209 
L 70.12987 -371.645329 
L 65.454545 -371.816392 
z
"/>
    </defs>
    <g clip-path="url(#pe92d38ae09)">
     <use xlink:href="#m9f5618ab8a" x="0" y="432" style="fill: #ff0000; fill-opacity: 0.4"/>
    </g>
   </g>
   <g id="matplotlib.axis_5">
    <g id="xtick_11">
     <g id="line2d_27">
      <g>
       <use xlink:href="#m7fd0859b34" x="65.454545" y="137.6" style="stroke: #000000; stroke-width: 0.8"/>
      </g>
     </g>
    </g>
    <g id="xtick_12">
     <g id="line2d_28">
      <g>
       <use xlink:href="#m7fd0859b34" x="122.727273" y="137.6" style="stroke: #000000; stroke-width: 0.8"/>
      </g>
     </g>
    </g>
    <g id="xtick_13">
     <g id="line2d_29">
      <g>
       <use xlink:href="#m7fd0859b34" x="180" y="137.6" style="stroke: #000000; stroke-width: 0.8"/>
      </g>
     </g>
    </g>
    <g id="xtick_14">
     <g id="line2d_30">
      <g>
       <use xlink:href="#m7fd0859b34" x="237.272727" y="137.6" style="stroke: #000000; stroke-width: 0.8"/>
      </g>
     </g>
    </g>
    <g id="xtick_15">
     <g id="line2d_31">
      <g>
       <use xlink:href="#m7fd0859b34" x="294.545455" y="137.6" style="stroke: #000000; stroke-width: 0.8"/>
      </g>
     </g>
    </g>
   </g>
   <g id="matplotlib.axis_6">
    <g id="ytick_9">
     <g id="line2d_32">
      <g>
       <use xlink:href="#m157dc0c5c0" x="46" y="116.894118" style="stroke: #000000; stroke-width: 0.8"/>
      </g>
     </g>
     <g id="text_18">
      <!-- 0 -->
      <g transform="translate(32.6375 120.693336) scale(0.1 -0.1)">
       <use xlink:href="#DejaVuSans-30"/>
      </g>
     </g>
    </g>
    <g id="ytick_10">
     <g id="line2d_33">
      <g>
       <use xlink:href="#m157dc0c5c0" x="46" y="91.482353" style="stroke: #000000; stroke-width: 0.8"/>
      </g>
     </g>
     <g id="text_19">
      <!-- 2 -->
      <g transform="translate(32.6375 95.281572) scale(0.1 -0.1)">
       <use xlink:href="#DejaVuSans-32"/>
      </g>
     </g>
    </g>
    <g id="ytick_11">
     <g id="line2d_34">
      <g>
       <use xlink:href="#m157dc0c5c0" x="46" y="66.070588" style="stroke: #000000; stroke-width: 0.8"/>
      </g>
     </g>
     <g id="text_20">
      <!-- 4 -->
      <g transform="translate(32.6375 69.869807) scale(0.1 -0.1)">
       <use xlink:href="#DejaVuSans-34"/>
      </g>
     </g>
    </g>
    <g id="ytick_12">
     <g id="line2d_35">
      <g>
       <use xlink:href="#m157dc0c5c0" x="46" y="40.658824" style="stroke: #000000; stroke-width: 0.8"/>
      </g>
     </g>
     <g id="text_21">
      <!-- 6 -->
      <g transform="translate(32.6375 44.458042) scale(0.1 -0.1)">
       <use xlink:href="#DejaVuSans-36"/>
      </g>
     </g>
    </g>
    <g id="text_22">
     <!-- BOLD % change -->
     <g transform="translate(26.141875 123.894375) rotate(-90) scale(0.12 -0.12)">
      <use xlink:href="#DejaVuSans-42"/>
      <use xlink:href="#DejaVuSans-4f" x="66.853516"/>
      <use xlink:href="#DejaVuSans-4c" x="145.564453"/>
      <use xlink:href="#DejaVuSans-44" x="201.277344"/>
      <use xlink:href="#DejaVuSans-20" x="278.279297"/>
      <use xlink:href="#DejaVuSans-25" x="310.066406"/>
      <use xlink:href="#DejaVuSans-20" x="405.085938"/>
      <use xlink:href="#DejaVuSans-63" x="436.873047"/>
      <use xlink:href="#DejaVuSans-68" x="491.853516"/>
      <use xlink:href="#DejaVuSans-61" x="555.232422"/>
      <use xlink:href="#DejaVuSans-6e" x="616.511719"/>
      <use xlink:href="#DejaVuSans-67" x="679.890625"/>
      <use xlink:href="#DejaVuSans-65" x="743.367188"/>
     </g>
    </g>
   </g>
   <g id="line2d_36">
    <path d="M 180 129.6 
L 180 21.6 
" clip-path="url(#pe92d38ae09)" style="fill: none; stroke-dasharray: 5.55,2.4; stroke-dashoffset: 0; stroke: #4c4c4c; stroke-width: 1.5"/>
   </g>
   <g id="LineCollection_7">
    <path d="M 65.454545 116.894118 
L 294.545455 116.894118 
" clip-path="url(#pe92d38ae09)" style="fill: none; stroke-dasharray: 5.55,2.4; stroke-dashoffset: 0; stroke: #4c4c4c; stroke-width: 1.5"/>
   </g>
   <g id="line2d_37">
    <path d="M 65.454545 67.369813 
L 70.12987 67.489328 
L 74.805195 67.69402 
L 79.480519 67.726403 
L 84.155844 67.675018 
L 88.831169 68.143794 
L 93.506494 68.950941 
L 98.181818 69.643033 
L 102.857143 70.334773 
L 107.532468 70.681248 
L 112.207792 70.232745 
L 116.883117 70.038574 
L 121.558442 69.714332 
L 126.233766 69.638828 
L 130.909091 69.239142 
L 135.584416 68.146957 
L 140.25974 67.387615 
L 144.935065 66.957034 
L 149.61039 66.413695 
L 154.285714 66.147223 
L 158.961039 66.051709 
L 163.636364 65.39135 
L 168.311688 64.453629 
L 172.987013 63.167232 
L 177.662338 61.987278 
L 182.337662 61.190161 
L 187.012987 60.386938 
L 191.688312 59.44304 
L 196.363636 58.776666 
L 201.038961 58.515555 
L 205.714286 58.908531 
L 210.38961 59.432996 
L 215.064935 59.806322 
L 219.74026 59.905333 
L 224.415584 60.086259 
L 229.090909 60.616851 
L 233.766234 60.982527 
L 238.441558 61.054974 
L 243.116883 61.425144 
L 247.792208 61.943053 
L 252.467532 62.262802 
L 257.142857 62.468871 
L 261.818182 62.273294 
L 266.493506 62.172883 
L 271.168831 61.944758 
L 275.844156 61.715951 
L 280.519481 61.826934 
L 285.194805 62.003229 
L 289.87013 62.517125 
L 294.545455 62.555194 
" clip-path="url(#pe92d38ae09)" style="fill: none; stroke: #ff0000; stroke-width: 1.5; stroke-linecap: square"/>
   </g>
   <g id="line2d_38">
    <g clip-path="url(#pe92d38ae09)">
     <use xlink:href="#m54570f9a97" x="103.636364" y="30.494118" style="stroke: #000000"/>
     <use xlink:href="#m54570f9a97" x="180" y="30.494118" style="stroke: #000000"/>
     <use xlink:href="#m54570f9a97" x="256.363636" y="30.494118" style="stroke: #000000"/>
    </g>
   </g>
   <g id="LineCollection_8">
    <path d="M 65.454545 129.6 
L 65.454545 91.482353 
" clip-path="url(#pe92d38ae09)" style="fill: none; stroke-dasharray: 1.5,2.475; stroke-dashoffset: 0; stroke: #1f77b4; stroke-opacity: 0.3; stroke-width: 1.5"/>
    <path d="M 141.818182 129.6 
L 141.818182 91.482353 
" clip-path="url(#pe92d38ae09)" style="fill: none; stroke-dasharray: 1.5,2.475; stroke-dashoffset: 0; stroke: #1f77b4; stroke-opacity: 0.3; stroke-width: 1.5"/>
    <path d="M 218.181818 129.6 
L 218.181818 91.482353 
" clip-path="url(#pe92d38ae09)" style="fill: none; stroke-dasharray: 1.5,2.475; stroke-dashoffset: 0; stroke: #1f77b4; stroke-opacity: 0.3; stroke-width: 1.5"/>
    <path d="M 294.545455 129.6 
L 294.545455 91.482353 
" clip-path="url(#pe92d38ae09)" style="fill: none; stroke-dasharray: 1.5,2.475; stroke-dashoffset: 0; stroke: #1f77b4; stroke-opacity: 0.3; stroke-width: 1.5"/>
   </g>
   <g id="LineCollection_9">
    <path d="M 103.636364 68.788663 
L 103.636364 51.911018 
" clip-path="url(#pe92d38ae09)" style="fill: none; stroke: #1f77b4; stroke-width: 1.5"/>
    <path d="M 180 64.854161 
L 180 55.964669 
" clip-path="url(#pe92d38ae09)" style="fill: none; stroke: #1f77b4; stroke-width: 1.5"/>
    <path d="M 256.363636 65.367605 
L 256.363636 54.823502 
" clip-path="url(#pe92d38ae09)" style="fill: none; stroke: #1f77b4; stroke-width: 1.5"/>
   </g>
   <g id="line2d_39">
    <g clip-path="url(#pe92d38ae09)">
     <use xlink:href="#m5bc88f036f" x="103.636364" y="60.349841" style="fill: #1f77b4; stroke: #1f77b4"/>
     <use xlink:href="#m5bc88f036f" x="180" y="60.409415" style="fill: #1f77b4; stroke: #1f77b4"/>
     <use xlink:href="#m5bc88f036f" x="256.363636" y="60.095553" style="fill: #1f77b4; stroke: #1f77b4"/>
    </g>
   </g>
   <g id="patch_9">
    <path d="M 46 129.6 
L 46 21.6 
" style="fill: none; stroke: #000000; stroke-width: 0.8; stroke-linejoin: miter; stroke-linecap: square"/>
   </g>
   <g id="patch_10">
    <path d="M 54 137.6 
L 306 137.6 
" style="fill: none; stroke: #000000; stroke-width: 0.8; stroke-linejoin: miter; stroke-linecap: square"/>
   </g>
  </g>
 </g>
 <defs>
  <clipPath id="peb139a9f9e">
   <rect x="54" y="280.8" width="252" height="108"/>
  </clipPath>
  <clipPath id="p5e96a0257f">
   <rect x="54" y="151.2" width="252" height="108"/>
  </clipPath>
  <clipPath id="pe92d38ae09">
   <rect x="54" y="21.6" width="252" height="108"/>
  </clipPath>
 </defs>
</svg>
