<?xml version="1.0" encoding="utf-8" standalone="no"?>
<!DOCTYPE svg PUBLIC "-//W3C//DTD SVG 1.1//EN"
  "http://www.w3.org/Graphics/SVG/1.1/DTD/svg11.dtd">
<svg xmlns:xlink="http://www.w3.org/1999/xlink" width="360pt" height="432pt" viewBox="0 0 360 432" xmlns="http://www.w3.org/2000/svg" version="1.1">
 <metadata>
  <rdf:RDF xmlns:dc="http://purl.org/dc/elements/1.1/" xmlns:cc="http://creativecommons.org/ns#" xmlns:rdf="http://www.w3.org/1999/02/22-rdf-syntax-ns#">
   <cc:Work>
    <dc:type rdf:resource="http://purl.org/dc/dcmitype/StillImage"/>
    <dc:date>2024-05-15T09:26:15.547966</dc:date>
    <dc:format>image/svg+xml</dc:format>
    <dc:creator>
     <cc:Agent>
      <dc:title>Matplotlib v3.8.0, https://matplotlib.org/</dc:title>
     </cc:Agent>
    </dc:creator>
   </cc:Work>
  </rdf:RDF>
 </metadata>
 <defs>
  <style type="text/css">*{stroke-linejoin: round; stroke-linecap: butt}</style>
 </defs>
 <g id="figure_1">
  <g id="patch_1">
   <path d="M 0 432 
L 360 432 
L 360 0 
L 0 0 
z
" style="fill: #ffffff"/>
  </g>
  <g id="axes_1">
   <g id="patch_2">
    <path d="M 54 388.8 
L 306 388.8 
L 306 280.8 
L 54 280.8 
z
" style="fill: #ffffff"/>
   </g>
   <g id="PolyCollection_1">
    <defs>
     <path id="ma2954aec6e" d="M 65.454545 -86.580361 
L 65.454545 -81.732816 
L 70.12987 -81.732816 
L 74.805195 -81.711905 
L 79.480519 -82.310929 
L 84.155844 -82.796748 
L 88.831169 -82.694495 
L 93.506494 -82.628535 
L 98.181818 -82.768625 
L 102.857143 -82.925951 
L 107.532468 -83.187641 
L 112.207792 -83.232252 
L 116.883117 -83.390287 
L 121.558442 -83.770742 
L 126.233766 -84.123999 
L 130.909091 -84.336885 
L 135.584416 -84.600285 
L 140.25974 -84.966387 
L 144.935065 -85.451114 
L 149.61039 -85.865146 
L 154.285714 -86.214928 
L 158.961039 -86.687606 
L 163.636364 -87.054693 
L 168.311688 -87.240714 
L 172.987013 -87.352894 
L 177.662338 -87.575667 
L 182.337662 -87.888956 
L 187.012987 -88.318182 
L 191.688312 -88.615021 
L 196.363636 -88.900705 
L 201.038961 -89.018022 
L 205.714286 -89.058453 
L 210.38961 -88.884026 
L 215.064935 -88.634807 
L 219.74026 -88.388613 
L 224.415584 -88.13393 
L 229.090909 -87.852737 
L 233.766234 -87.679968 
L 238.441558 -87.493639 
L 243.116883 -87.4062 
L 247.792208 -87.245247 
L 252.467532 -87.15375 
L 257.142857 -86.892896 
L 261.818182 -86.728091 
L 266.493506 -86.505916 
L 271.168831 -86.308523 
L 275.844156 -86.261993 
L 280.519481 -86.416246 
L 285.194805 -86.710643 
L 289.87013 -86.69179 
L 294.545455 -86.512709 
L 294.545455 -93.282652 
L 294.545455 -93.282652 
L 289.87013 -93.621278 
L 285.194805 -93.728331 
L 280.519481 -93.361327 
L 275.844156 -93.111511 
L 271.168831 -93.311155 
L 266.493506 -93.830445 
L 261.818182 -94.3574 
L 257.142857 -94.478249 
L 252.467532 -94.856595 
L 247.792208 -94.765629 
L 243.116883 -94.709603 
L 238.441558 -94.729409 
L 233.766234 -94.484881 
L 229.090909 -94.124508 
L 224.415584 -93.934582 
L 219.74026 -93.831727 
L 215.064935 -93.568244 
L 210.38961 -93.375475 
L 205.714286 -93.208522 
L 201.038961 -93.205032 
L 196.363636 -93.073954 
L 191.688312 -92.824021 
L 187.012987 -92.436072 
L 182.337662 -92.021522 
L 177.662338 -91.784966 
L 172.987013 -91.552448 
L 168.311688 -91.155319 
L 163.636364 -90.619926 
L 158.961039 -90.054486 
L 154.285714 -89.426499 
L 149.61039 -88.983407 
L 144.935065 -88.650316 
L 140.25974 -88.142317 
L 135.584416 -87.661912 
L 130.909091 -87.382187 
L 126.233766 -87.143622 
L 121.558442 -86.617057 
L 116.883117 -86.196029 
L 112.207792 -86.206484 
L 107.532468 -86.317085 
L 102.857143 -86.235503 
L 98.181818 -86.422307 
L 93.506494 -86.503057 
L 88.831169 -86.554399 
L 84.155844 -86.586092 
L 79.480519 -86.580171 
L 74.805195 -86.562939 
L 70.12987 -86.580361 
L 65.454545 -86.580361 
z
"/>
    </defs>
    <g clip-path="url(#p15381f2f07)">
     <use xlink:href="#ma2954aec6e" x="0" y="432" style="fill: #9400d3; fill-opacity: 0.4"/>
    </g>
   </g>
   <g id="matplotlib.axis_1">
    <g id="xtick_1">
     <g id="line2d_1">
      <defs>
       <path id="ma0556b94e9" d="M 0 0 
L 0 3.5 
" style="stroke: #000000; stroke-width: 0.8"/>
      </defs>
      <g>
       <use xlink:href="#ma0556b94e9" x="65.454545" y="396.8" style="stroke: #000000; stroke-width: 0.8"/>
      </g>
     </g>
     <g id="text_1">
      <!-- 0 -->
      <g transform="translate(62.273295 411.398438) scale(0.1 -0.1)">
       <defs>
        <path id="DejaVuSans-30" d="M 2034 4250 
Q 1547 4250 1301 3770 
Q 1056 3291 1056 2328 
Q 1056 1369 1301 889 
Q 1547 409 2034 409 
Q 2525 409 2770 889 
Q 3016 1369 3016 2328 
Q 3016 3291 2770 3770 
Q 2525 4250 2034 4250 
z
M 2034 4750 
Q 2819 4750 3233 4129 
Q 3647 3509 3647 2328 
Q 3647 1150 3233 529 
Q 2819 -91 2034 -91 
Q 1250 -91 836 529 
Q 422 1150 422 2328 
Q 422 3509 836 4129 
Q 1250 4750 2034 4750 
z
" transform="scale(0.015625)"/>
       </defs>
       <use xlink:href="#DejaVuSans-30"/>
      </g>
     </g>
    </g>
    <g id="xtick_2">
     <g id="line2d_2">
      <g>
       <use xlink:href="#ma0556b94e9" x="122.727273" y="396.8" style="stroke: #000000; stroke-width: 0.8"/>
      </g>
     </g>
     <g id="text_2">
      <!-- 1 -->
      <g transform="translate(119.546023 411.398438) scale(0.1 -0.1)">
       <defs>
        <path id="DejaVuSans-31" d="M 794 531 
L 1825 531 
L 1825 4091 
L 703 3866 
L 703 4441 
L 1819 4666 
L 2450 4666 
L 2450 531 
L 3481 531 
L 3481 0 
L 794 0 
L 794 531 
z
" transform="scale(0.015625)"/>
       </defs>
       <use xlink:href="#DejaVuSans-31"/>
      </g>
     </g>
    </g>
    <g id="xtick_3">
     <g id="line2d_3">
      <g>
       <use xlink:href="#ma0556b94e9" x="180" y="396.8" style="stroke: #000000; stroke-width: 0.8"/>
      </g>
     </g>
     <g id="text_3">
      <!-- 2 -->
      <g transform="translate(176.81875 411.398438) scale(0.1 -0.1)">
       <defs>
        <path id="DejaVuSans-32" d="M 1228 531 
L 3431 531 
L 3431 0 
L 469 0 
L 469 531 
Q 828 903 1448 1529 
Q 2069 2156 2228 2338 
Q 2531 2678 2651 2914 
Q 2772 3150 2772 3378 
Q 2772 3750 2511 3984 
Q 2250 4219 1831 4219 
Q 1534 4219 1204 4116 
Q 875 4013 500 3803 
L 500 4441 
Q 881 4594 1212 4672 
Q 1544 4750 1819 4750 
Q 2544 4750 2975 4387 
Q 3406 4025 3406 3419 
Q 3406 3131 3298 2873 
Q 3191 2616 2906 2266 
Q 2828 2175 2409 1742 
Q 1991 1309 1228 531 
z
" transform="scale(0.015625)"/>
       </defs>
       <use xlink:href="#DejaVuSans-32"/>
      </g>
     </g>
    </g>
    <g id="xtick_4">
     <g id="line2d_4">
      <g>
       <use xlink:href="#ma0556b94e9" x="237.272727" y="396.8" style="stroke: #000000; stroke-width: 0.8"/>
      </g>
     </g>
     <g id="text_4">
      <!-- 3 -->
      <g transform="translate(234.091477 411.398438) scale(0.1 -0.1)">
       <defs>
        <path id="DejaVuSans-33" d="M 2597 2516 
Q 3050 2419 3304 2112 
Q 3559 1806 3559 1356 
Q 3559 666 3084 287 
Q 2609 -91 1734 -91 
Q 1441 -91 1130 -33 
Q 819 25 488 141 
L 488 750 
Q 750 597 1062 519 
Q 1375 441 1716 441 
Q 2309 441 2620 675 
Q 2931 909 2931 1356 
Q 2931 1769 2642 2001 
Q 2353 2234 1838 2234 
L 1294 2234 
L 1294 2753 
L 1863 2753 
Q 2328 2753 2575 2939 
Q 2822 3125 2822 3475 
Q 2822 3834 2567 4026 
Q 2313 4219 1838 4219 
Q 1578 4219 1281 4162 
Q 984 4106 628 3988 
L 628 4550 
Q 988 4650 1302 4700 
Q 1616 4750 1894 4750 
Q 2613 4750 3031 4423 
Q 3450 4097 3450 3541 
Q 3450 3153 3228 2886 
Q 3006 2619 2597 2516 
z
" transform="scale(0.015625)"/>
       </defs>
       <use xlink:href="#DejaVuSans-33"/>
      </g>
     </g>
    </g>
    <g id="xtick_5">
     <g id="line2d_5">
      <g>
       <use xlink:href="#ma0556b94e9" x="294.545455" y="396.8" style="stroke: #000000; stroke-width: 0.8"/>
      </g>
     </g>
     <g id="text_5">
      <!-- 4 -->
      <g transform="translate(291.364205 411.398438) scale(0.1 -0.1)">
       <defs>
        <path id="DejaVuSans-34" d="M 2419 4116 
L 825 1625 
L 2419 1625 
L 2419 4116 
z
M 2253 4666 
L 3047 4666 
L 3047 1625 
L 3713 1625 
L 3713 1100 
L 3047 1100 
L 3047 0 
L 2419 0 
L 2419 1100 
L 313 1100 
L 313 1709 
L 2253 4666 
z
" transform="scale(0.015625)"/>
       </defs>
       <use xlink:href="#DejaVuSans-34"/>
      </g>
     </g>
    </g>
    <g id="text_6">
     <!-- relative distance from ROI center ($\sigma$) -->
     <g transform="translate(69.72 426.59625) scale(0.12 -0.12)">
      <defs>
       <path id="DejaVuSans-72" d="M 2631 2963 
Q 2534 3019 2420 3045 
Q 2306 3072 2169 3072 
Q 1681 3072 1420 2755 
Q 1159 2438 1159 1844 
L 1159 0 
L 581 0 
L 581 3500 
L 1159 3500 
L 1159 2956 
Q 1341 3275 1631 3429 
Q 1922 3584 2338 3584 
Q 2397 3584 2469 3576 
Q 2541 3569 2628 3553 
L 2631 2963 
z
" transform="scale(0.015625)"/>
       <path id="DejaVuSans-65" d="M 3597 1894 
L 3597 1613 
L 953 1613 
Q 991 1019 1311 708 
Q 1631 397 2203 397 
Q 2534 397 2845 478 
Q 3156 559 3463 722 
L 3463 178 
Q 3153 47 2828 -22 
Q 2503 -91 2169 -91 
Q 1331 -91 842 396 
Q 353 884 353 1716 
Q 353 2575 817 3079 
Q 1281 3584 2069 3584 
Q 2775 3584 3186 3129 
Q 3597 2675 3597 1894 
z
M 3022 2063 
Q 3016 2534 2758 2815 
Q 2500 3097 2075 3097 
Q 1594 3097 1305 2825 
Q 1016 2553 972 2059 
L 3022 2063 
z
" transform="scale(0.015625)"/>
       <path id="DejaVuSans-6c" d="M 603 4863 
L 1178 4863 
L 1178 0 
L 603 0 
L 603 4863 
z
" transform="scale(0.015625)"/>
       <path id="DejaVuSans-61" d="M 2194 1759 
Q 1497 1759 1228 1600 
Q 959 1441 959 1056 
Q 959 750 1161 570 
Q 1363 391 1709 391 
Q 2188 391 2477 730 
Q 2766 1069 2766 1631 
L 2766 1759 
L 2194 1759 
z
M 3341 1997 
L 3341 0 
L 2766 0 
L 2766 531 
Q 2569 213 2275 61 
Q 1981 -91 1556 -91 
Q 1019 -91 701 211 
Q 384 513 384 1019 
Q 384 1609 779 1909 
Q 1175 2209 1959 2209 
L 2766 2209 
L 2766 2266 
Q 2766 2663 2505 2880 
Q 2244 3097 1772 3097 
Q 1472 3097 1187 3025 
Q 903 2953 641 2809 
L 641 3341 
Q 956 3463 1253 3523 
Q 1550 3584 1831 3584 
Q 2591 3584 2966 3190 
Q 3341 2797 3341 1997 
z
" transform="scale(0.015625)"/>
       <path id="DejaVuSans-74" d="M 1172 4494 
L 1172 3500 
L 2356 3500 
L 2356 3053 
L 1172 3053 
L 1172 1153 
Q 1172 725 1289 603 
Q 1406 481 1766 481 
L 2356 481 
L 2356 0 
L 1766 0 
Q 1100 0 847 248 
Q 594 497 594 1153 
L 594 3053 
L 172 3053 
L 172 3500 
L 594 3500 
L 594 4494 
L 1172 4494 
z
" transform="scale(0.015625)"/>
       <path id="DejaVuSans-69" d="M 603 3500 
L 1178 3500 
L 1178 0 
L 603 0 
L 603 3500 
z
M 603 4863 
L 1178 4863 
L 1178 4134 
L 603 4134 
L 603 4863 
z
" transform="scale(0.015625)"/>
       <path id="DejaVuSans-76" d="M 191 3500 
L 800 3500 
L 1894 563 
L 2988 3500 
L 3597 3500 
L 2284 0 
L 1503 0 
L 191 3500 
z
" transform="scale(0.015625)"/>
       <path id="DejaVuSans-20" transform="scale(0.015625)"/>
       <path id="DejaVuSans-64" d="M 2906 2969 
L 2906 4863 
L 3481 4863 
L 3481 0 
L 2906 0 
L 2906 525 
Q 2725 213 2448 61 
Q 2172 -91 1784 -91 
Q 1150 -91 751 415 
Q 353 922 353 1747 
Q 353 2572 751 3078 
Q 1150 3584 1784 3584 
Q 2172 3584 2448 3432 
Q 2725 3281 2906 2969 
z
M 947 1747 
Q 947 1113 1208 752 
Q 1469 391 1925 391 
Q 2381 391 2643 752 
Q 2906 1113 2906 1747 
Q 2906 2381 2643 2742 
Q 2381 3103 1925 3103 
Q 1469 3103 1208 2742 
Q 947 2381 947 1747 
z
" transform="scale(0.015625)"/>
       <path id="DejaVuSans-73" d="M 2834 3397 
L 2834 2853 
Q 2591 2978 2328 3040 
Q 2066 3103 1784 3103 
Q 1356 3103 1142 2972 
Q 928 2841 928 2578 
Q 928 2378 1081 2264 
Q 1234 2150 1697 2047 
L 1894 2003 
Q 2506 1872 2764 1633 
Q 3022 1394 3022 966 
Q 3022 478 2636 193 
Q 2250 -91 1575 -91 
Q 1294 -91 989 -36 
Q 684 19 347 128 
L 347 722 
Q 666 556 975 473 
Q 1284 391 1588 391 
Q 1994 391 2212 530 
Q 2431 669 2431 922 
Q 2431 1156 2273 1281 
Q 2116 1406 1581 1522 
L 1381 1569 
Q 847 1681 609 1914 
Q 372 2147 372 2553 
Q 372 3047 722 3315 
Q 1072 3584 1716 3584 
Q 2034 3584 2315 3537 
Q 2597 3491 2834 3397 
z
" transform="scale(0.015625)"/>
       <path id="DejaVuSans-6e" d="M 3513 2113 
L 3513 0 
L 2938 0 
L 2938 2094 
Q 2938 2591 2744 2837 
Q 2550 3084 2163 3084 
Q 1697 3084 1428 2787 
Q 1159 2491 1159 1978 
L 1159 0 
L 581 0 
L 581 3500 
L 1159 3500 
L 1159 2956 
Q 1366 3272 1645 3428 
Q 1925 3584 2291 3584 
Q 2894 3584 3203 3211 
Q 3513 2838 3513 2113 
z
" transform="scale(0.015625)"/>
       <path id="DejaVuSans-63" d="M 3122 3366 
L 3122 2828 
Q 2878 2963 2633 3030 
Q 2388 3097 2138 3097 
Q 1578 3097 1268 2742 
Q 959 2388 959 1747 
Q 959 1106 1268 751 
Q 1578 397 2138 397 
Q 2388 397 2633 464 
Q 2878 531 3122 666 
L 3122 134 
Q 2881 22 2623 -34 
Q 2366 -91 2075 -91 
Q 1284 -91 818 406 
Q 353 903 353 1747 
Q 353 2603 823 3093 
Q 1294 3584 2113 3584 
Q 2378 3584 2631 3529 
Q 2884 3475 3122 3366 
z
" transform="scale(0.015625)"/>
       <path id="DejaVuSans-66" d="M 2375 4863 
L 2375 4384 
L 1825 4384 
Q 1516 4384 1395 4259 
Q 1275 4134 1275 3809 
L 1275 3500 
L 2222 3500 
L 2222 3053 
L 1275 3053 
L 1275 0 
L 697 0 
L 697 3053 
L 147 3053 
L 147 3500 
L 697 3500 
L 697 3744 
Q 697 4328 969 4595 
Q 1241 4863 1831 4863 
L 2375 4863 
z
" transform="scale(0.015625)"/>
       <path id="DejaVuSans-6f" d="M 1959 3097 
Q 1497 3097 1228 2736 
Q 959 2375 959 1747 
Q 959 1119 1226 758 
Q 1494 397 1959 397 
Q 2419 397 2687 759 
Q 2956 1122 2956 1747 
Q 2956 2369 2687 2733 
Q 2419 3097 1959 3097 
z
M 1959 3584 
Q 2709 3584 3137 3096 
Q 3566 2609 3566 1747 
Q 3566 888 3137 398 
Q 2709 -91 1959 -91 
Q 1206 -91 779 398 
Q 353 888 353 1747 
Q 353 2609 779 3096 
Q 1206 3584 1959 3584 
z
" transform="scale(0.015625)"/>
       <path id="DejaVuSans-6d" d="M 3328 2828 
Q 3544 3216 3844 3400 
Q 4144 3584 4550 3584 
Q 5097 3584 5394 3201 
Q 5691 2819 5691 2113 
L 5691 0 
L 5113 0 
L 5113 2094 
Q 5113 2597 4934 2840 
Q 4756 3084 4391 3084 
Q 3944 3084 3684 2787 
Q 3425 2491 3425 1978 
L 3425 0 
L 2847 0 
L 2847 2094 
Q 2847 2600 2669 2842 
Q 2491 3084 2119 3084 
Q 1678 3084 1418 2786 
Q 1159 2488 1159 1978 
L 1159 0 
L 581 0 
L 581 3500 
L 1159 3500 
L 1159 2956 
Q 1356 3278 1631 3431 
Q 1906 3584 2284 3584 
Q 2666 3584 2933 3390 
Q 3200 3197 3328 2828 
z
" transform="scale(0.015625)"/>
       <path id="DejaVuSans-52" d="M 2841 2188 
Q 3044 2119 3236 1894 
Q 3428 1669 3622 1275 
L 4263 0 
L 3584 0 
L 2988 1197 
Q 2756 1666 2539 1819 
Q 2322 1972 1947 1972 
L 1259 1972 
L 1259 0 
L 628 0 
L 628 4666 
L 2053 4666 
Q 2853 4666 3247 4331 
Q 3641 3997 3641 3322 
Q 3641 2881 3436 2590 
Q 3231 2300 2841 2188 
z
M 1259 4147 
L 1259 2491 
L 2053 2491 
Q 2509 2491 2742 2702 
Q 2975 2913 2975 3322 
Q 2975 3731 2742 3939 
Q 2509 4147 2053 4147 
L 1259 4147 
z
" transform="scale(0.015625)"/>
       <path id="DejaVuSans-4f" d="M 2522 4238 
Q 1834 4238 1429 3725 
Q 1025 3213 1025 2328 
Q 1025 1447 1429 934 
Q 1834 422 2522 422 
Q 3209 422 3611 934 
Q 4013 1447 4013 2328 
Q 4013 3213 3611 3725 
Q 3209 4238 2522 4238 
z
M 2522 4750 
Q 3503 4750 4090 4092 
Q 4678 3434 4678 2328 
Q 4678 1225 4090 567 
Q 3503 -91 2522 -91 
Q 1538 -91 948 565 
Q 359 1222 359 2328 
Q 359 3434 948 4092 
Q 1538 4750 2522 4750 
z
" transform="scale(0.015625)"/>
       <path id="DejaVuSans-49" d="M 628 4666 
L 1259 4666 
L 1259 0 
L 628 0 
L 628 4666 
z
" transform="scale(0.015625)"/>
       <path id="DejaVuSans-28" d="M 1984 4856 
Q 1566 4138 1362 3434 
Q 1159 2731 1159 2009 
Q 1159 1288 1364 580 
Q 1569 -128 1984 -844 
L 1484 -844 
Q 1016 -109 783 600 
Q 550 1309 550 2009 
Q 550 2706 781 3412 
Q 1013 4119 1484 4856 
L 1984 4856 
z
" transform="scale(0.015625)"/>
       <path id="DejaVuSans-Oblique-3c3" d="M 2219 3044 
Q 1744 3044 1422 2700 
Q 1081 2341 969 1747 
Q 844 1119 1044 756 
Q 1241 397 1706 397 
Q 2166 397 2503 759 
Q 2844 1122 2966 1747 
Q 3075 2319 2881 2700 
Q 2700 3044 2219 3044 
z
M 2309 3503 
L 4219 3500 
L 4106 2925 
L 3463 2925 
Q 3706 2438 3575 1747 
Q 3406 888 2884 400 
Q 2359 -91 1609 -91 
Q 856 -91 525 400 
Q 194 888 363 1747 
Q 528 2609 1050 3097 
Q 1484 3503 2309 3503 
z
" transform="scale(0.015625)"/>
       <path id="DejaVuSans-29" d="M 513 4856 
L 1013 4856 
Q 1481 4119 1714 3412 
Q 1947 2706 1947 2009 
Q 1947 1309 1714 600 
Q 1481 -109 1013 -844 
L 513 -844 
Q 928 -128 1133 580 
Q 1338 1288 1338 2009 
Q 1338 2731 1133 3434 
Q 928 4138 513 4856 
z
" transform="scale(0.015625)"/>
      </defs>
      <use xlink:href="#DejaVuSans-72" transform="translate(0 0.015625)"/>
      <use xlink:href="#DejaVuSans-65" transform="translate(41.113281 0.015625)"/>
      <use xlink:href="#DejaVuSans-6c" transform="translate(102.636719 0.015625)"/>
      <use xlink:href="#DejaVuSans-61" transform="translate(130.419922 0.015625)"/>
      <use xlink:href="#DejaVuSans-74" transform="translate(191.699219 0.015625)"/>
      <use xlink:href="#DejaVuSans-69" transform="translate(230.908203 0.015625)"/>
      <use xlink:href="#DejaVuSans-76" transform="translate(258.691406 0.015625)"/>
      <use xlink:href="#DejaVuSans-65" transform="translate(317.871094 0.015625)"/>
      <use xlink:href="#DejaVuSans-20" transform="translate(379.394531 0.015625)"/>
      <use xlink:href="#DejaVuSans-64" transform="translate(411.181641 0.015625)"/>
      <use xlink:href="#DejaVuSans-69" transform="translate(474.658203 0.015625)"/>
      <use xlink:href="#DejaVuSans-73" transform="translate(502.441406 0.015625)"/>
      <use xlink:href="#DejaVuSans-74" transform="translate(554.541016 0.015625)"/>
      <use xlink:href="#DejaVuSans-61" transform="translate(593.75 0.015625)"/>
      <use xlink:href="#DejaVuSans-6e" transform="translate(655.029297 0.015625)"/>
      <use xlink:href="#DejaVuSans-63" transform="translate(718.408203 0.015625)"/>
      <use xlink:href="#DejaVuSans-65" transform="translate(773.388672 0.015625)"/>
      <use xlink:href="#DejaVuSans-20" transform="translate(834.912109 0.015625)"/>
      <use xlink:href="#DejaVuSans-66" transform="translate(866.699219 0.015625)"/>
      <use xlink:href="#DejaVuSans-72" transform="translate(901.904297 0.015625)"/>
      <use xlink:href="#DejaVuSans-6f" transform="translate(943.017578 0.015625)"/>
      <use xlink:href="#DejaVuSans-6d" transform="translate(1004.199219 0.015625)"/>
      <use xlink:href="#DejaVuSans-20" transform="translate(1101.611328 0.015625)"/>
      <use xlink:href="#DejaVuSans-52" transform="translate(1133.398438 0.015625)"/>
      <use xlink:href="#DejaVuSans-4f" transform="translate(1202.880859 0.015625)"/>
      <use xlink:href="#DejaVuSans-49" transform="translate(1281.591797 0.015625)"/>
      <use xlink:href="#DejaVuSans-20" transform="translate(1311.083984 0.015625)"/>
      <use xlink:href="#DejaVuSans-63" transform="translate(1342.871094 0.015625)"/>
      <use xlink:href="#DejaVuSans-65" transform="translate(1397.851562 0.015625)"/>
      <use xlink:href="#DejaVuSans-6e" transform="translate(1459.375 0.015625)"/>
      <use xlink:href="#DejaVuSans-74" transform="translate(1522.753906 0.015625)"/>
      <use xlink:href="#DejaVuSans-65" transform="translate(1561.962891 0.015625)"/>
      <use xlink:href="#DejaVuSans-72" transform="translate(1623.486328 0.015625)"/>
      <use xlink:href="#DejaVuSans-20" transform="translate(1664.599609 0.015625)"/>
      <use xlink:href="#DejaVuSans-28" transform="translate(1696.386719 0.015625)"/>
      <use xlink:href="#DejaVuSans-Oblique-3c3" transform="translate(1735.400391 0.015625)"/>
      <use xlink:href="#DejaVuSans-29" transform="translate(1798.779297 0.015625)"/>
     </g>
    </g>
   </g>
   <g id="matplotlib.axis_2">
    <g id="ytick_1">
     <g id="line2d_6">
      <defs>
       <path id="m28c1e980f0" d="M 0 0 
L -3.5 0 
" style="stroke: #000000; stroke-width: 0.8"/>
      </defs>
      <g>
       <use xlink:href="#m28c1e980f0" x="46" y="376.094118" style="stroke: #000000; stroke-width: 0.8"/>
      </g>
     </g>
     <g id="text_7">
      <!-- 0 -->
      <g transform="translate(32.6375 379.893336) scale(0.1 -0.1)">
       <use xlink:href="#DejaVuSans-30"/>
      </g>
     </g>
    </g>
    <g id="ytick_2">
     <g id="line2d_7">
      <g>
       <use xlink:href="#m28c1e980f0" x="46" y="350.682353" style="stroke: #000000; stroke-width: 0.8"/>
      </g>
     </g>
     <g id="text_8">
      <!-- 2 -->
      <g transform="translate(32.6375 354.481572) scale(0.1 -0.1)">
       <use xlink:href="#DejaVuSans-32"/>
      </g>
     </g>
    </g>
    <g id="ytick_3">
     <g id="line2d_8">
      <g>
       <use xlink:href="#m28c1e980f0" x="46" y="325.270588" style="stroke: #000000; stroke-width: 0.8"/>
      </g>
     </g>
     <g id="text_9">
      <!-- 4 -->
      <g transform="translate(32.6375 329.069807) scale(0.1 -0.1)">
       <use xlink:href="#DejaVuSans-34"/>
      </g>
     </g>
    </g>
    <g id="ytick_4">
     <g id="line2d_9">
      <g>
       <use xlink:href="#m28c1e980f0" x="46" y="299.858824" style="stroke: #000000; stroke-width: 0.8"/>
      </g>
     </g>
     <g id="text_10">
      <!-- 6 -->
      <g transform="translate(32.6375 303.658042) scale(0.1 -0.1)">
       <defs>
        <path id="DejaVuSans-36" d="M 2113 2584 
Q 1688 2584 1439 2293 
Q 1191 2003 1191 1497 
Q 1191 994 1439 701 
Q 1688 409 2113 409 
Q 2538 409 2786 701 
Q 3034 994 3034 1497 
Q 3034 2003 2786 2293 
Q 2538 2584 2113 2584 
z
M 3366 4563 
L 3366 3988 
Q 3128 4100 2886 4159 
Q 2644 4219 2406 4219 
Q 1781 4219 1451 3797 
Q 1122 3375 1075 2522 
Q 1259 2794 1537 2939 
Q 1816 3084 2150 3084 
Q 2853 3084 3261 2657 
Q 3669 2231 3669 1497 
Q 3669 778 3244 343 
Q 2819 -91 2113 -91 
Q 1303 -91 875 529 
Q 447 1150 447 2328 
Q 447 3434 972 4092 
Q 1497 4750 2381 4750 
Q 2619 4750 2861 4703 
Q 3103 4656 3366 4563 
z
" transform="scale(0.015625)"/>
       </defs>
       <use xlink:href="#DejaVuSans-36"/>
      </g>
     </g>
    </g>
    <g id="text_11">
     <!-- BOLD % change -->
     <g transform="translate(26.141875 383.094375) rotate(-90) scale(0.12 -0.12)">
      <defs>
       <path id="DejaVuSans-42" d="M 1259 2228 
L 1259 519 
L 2272 519 
Q 2781 519 3026 730 
Q 3272 941 3272 1375 
Q 3272 1813 3026 2020 
Q 2781 2228 2272 2228 
L 1259 2228 
z
M 1259 4147 
L 1259 2741 
L 2194 2741 
Q 2656 2741 2882 2914 
Q 3109 3088 3109 3444 
Q 3109 3797 2882 3972 
Q 2656 4147 2194 4147 
L 1259 4147 
z
M 628 4666 
L 2241 4666 
Q 2963 4666 3353 4366 
Q 3744 4066 3744 3513 
Q 3744 3084 3544 2831 
Q 3344 2578 2956 2516 
Q 3422 2416 3680 2098 
Q 3938 1781 3938 1306 
Q 3938 681 3513 340 
Q 3088 0 2303 0 
L 628 0 
L 628 4666 
z
" transform="scale(0.015625)"/>
       <path id="DejaVuSans-4c" d="M 628 4666 
L 1259 4666 
L 1259 531 
L 3531 531 
L 3531 0 
L 628 0 
L 628 4666 
z
" transform="scale(0.015625)"/>
       <path id="DejaVuSans-44" d="M 1259 4147 
L 1259 519 
L 2022 519 
Q 2988 519 3436 956 
Q 3884 1394 3884 2338 
Q 3884 3275 3436 3711 
Q 2988 4147 2022 4147 
L 1259 4147 
z
M 628 4666 
L 1925 4666 
Q 3281 4666 3915 4102 
Q 4550 3538 4550 2338 
Q 4550 1131 3912 565 
Q 3275 0 1925 0 
L 628 0 
L 628 4666 
z
" transform="scale(0.015625)"/>
       <path id="DejaVuSans-25" d="M 4653 2053 
Q 4381 2053 4226 1822 
Q 4072 1591 4072 1178 
Q 4072 772 4226 539 
Q 4381 306 4653 306 
Q 4919 306 5073 539 
Q 5228 772 5228 1178 
Q 5228 1588 5073 1820 
Q 4919 2053 4653 2053 
z
M 4653 2450 
Q 5147 2450 5437 2106 
Q 5728 1763 5728 1178 
Q 5728 594 5436 251 
Q 5144 -91 4653 -91 
Q 4153 -91 3862 251 
Q 3572 594 3572 1178 
Q 3572 1766 3864 2108 
Q 4156 2450 4653 2450 
z
M 1428 4353 
Q 1159 4353 1004 4120 
Q 850 3888 850 3481 
Q 850 3069 1003 2837 
Q 1156 2606 1428 2606 
Q 1700 2606 1854 2837 
Q 2009 3069 2009 3481 
Q 2009 3884 1853 4118 
Q 1697 4353 1428 4353 
z
M 4250 4750 
L 4750 4750 
L 1831 -91 
L 1331 -91 
L 4250 4750 
z
M 1428 4750 
Q 1922 4750 2215 4408 
Q 2509 4066 2509 3481 
Q 2509 2891 2217 2550 
Q 1925 2209 1428 2209 
Q 931 2209 642 2551 
Q 353 2894 353 3481 
Q 353 4063 643 4406 
Q 934 4750 1428 4750 
z
" transform="scale(0.015625)"/>
       <path id="DejaVuSans-68" d="M 3513 2113 
L 3513 0 
L 2938 0 
L 2938 2094 
Q 2938 2591 2744 2837 
Q 2550 3084 2163 3084 
Q 1697 3084 1428 2787 
Q 1159 2491 1159 1978 
L 1159 0 
L 581 0 
L 581 4863 
L 1159 4863 
L 1159 2956 
Q 1366 3272 1645 3428 
Q 1925 3584 2291 3584 
Q 2894 3584 3203 3211 
Q 3513 2838 3513 2113 
z
" transform="scale(0.015625)"/>
       <path id="DejaVuSans-67" d="M 2906 1791 
Q 2906 2416 2648 2759 
Q 2391 3103 1925 3103 
Q 1463 3103 1205 2759 
Q 947 2416 947 1791 
Q 947 1169 1205 825 
Q 1463 481 1925 481 
Q 2391 481 2648 825 
Q 2906 1169 2906 1791 
z
M 3481 434 
Q 3481 -459 3084 -895 
Q 2688 -1331 1869 -1331 
Q 1566 -1331 1297 -1286 
Q 1028 -1241 775 -1147 
L 775 -588 
Q 1028 -725 1275 -790 
Q 1522 -856 1778 -856 
Q 2344 -856 2625 -561 
Q 2906 -266 2906 331 
L 2906 616 
Q 2728 306 2450 153 
Q 2172 0 1784 0 
Q 1141 0 747 490 
Q 353 981 353 1791 
Q 353 2603 747 3093 
Q 1141 3584 1784 3584 
Q 2172 3584 2450 3431 
Q 2728 3278 2906 2969 
L 2906 3500 
L 3481 3500 
L 3481 434 
z
" transform="scale(0.015625)"/>
      </defs>
      <use xlink:href="#DejaVuSans-42"/>
      <use xlink:href="#DejaVuSans-4f" x="66.853516"/>
      <use xlink:href="#DejaVuSans-4c" x="145.564453"/>
      <use xlink:href="#DejaVuSans-44" x="201.277344"/>
      <use xlink:href="#DejaVuSans-20" x="278.279297"/>
      <use xlink:href="#DejaVuSans-25" x="310.066406"/>
      <use xlink:href="#DejaVuSans-20" x="405.085938"/>
      <use xlink:href="#DejaVuSans-63" x="436.873047"/>
      <use xlink:href="#DejaVuSans-68" x="491.853516"/>
      <use xlink:href="#DejaVuSans-61" x="555.232422"/>
      <use xlink:href="#DejaVuSans-6e" x="616.511719"/>
      <use xlink:href="#DejaVuSans-67" x="679.890625"/>
      <use xlink:href="#DejaVuSans-65" x="743.367188"/>
     </g>
    </g>
   </g>
   <g id="line2d_10">
    <path d="M 180 388.8 
L 180 280.8 
" clip-path="url(#p15381f2f07)" style="fill: none; stroke-dasharray: 5.55,2.4; stroke-dashoffset: 0; stroke: #4c4c4c; stroke-width: 1.5"/>
   </g>
   <g id="LineCollection_1">
    <path d="M 65.454545 376.094118 
L 294.545455 376.094118 
" clip-path="url(#p15381f2f07)" style="fill: none; stroke-dasharray: 5.55,2.4; stroke-dashoffset: 0; stroke: #4c4c4c; stroke-width: 1.5"/>
   </g>
   <g id="line2d_11">
    <path d="M 65.454545 347.843412 
L 70.12987 347.843412 
L 74.805195 347.862578 
L 79.480519 347.55445 
L 84.155844 347.30858 
L 88.831169 347.375553 
L 93.506494 347.434204 
L 98.181818 347.404534 
L 102.857143 347.419273 
L 107.532468 347.247637 
L 112.207792 347.280632 
L 116.883117 347.206842 
L 121.558442 346.8061 
L 126.233766 346.36619 
L 130.909091 346.140464 
L 135.584416 345.868902 
L 140.25974 345.445648 
L 144.935065 344.949285 
L 149.61039 344.575723 
L 154.285714 344.179287 
L 158.961039 343.628954 
L 163.636364 343.162691 
L 168.311688 342.801984 
L 172.987013 342.547329 
L 177.662338 342.319684 
L 182.337662 342.044761 
L 187.012987 341.622873 
L 191.688312 341.280479 
L 196.363636 341.01267 
L 201.038961 340.888473 
L 205.714286 340.866512 
L 210.38961 340.870249 
L 215.064935 340.898475 
L 219.74026 340.88983 
L 224.415584 340.965744 
L 229.090909 341.011377 
L 233.766234 340.917575 
L 238.441558 340.888476 
L 243.116883 340.942098 
L 247.792208 340.994562 
L 252.467532 340.994828 
L 257.142857 341.314428 
L 261.818182 341.457255 
L 266.493506 341.83182 
L 271.168831 342.190161 
L 275.844156 342.313248 
L 280.519481 342.111214 
L 285.194805 341.780513 
L 289.87013 341.843466 
L 294.545455 342.102319 
" clip-path="url(#p15381f2f07)" style="fill: none; stroke: #9400d3; stroke-width: 1.5; stroke-linecap: square"/>
   </g>
   <g id="line2d_12">
    <defs>
     <path id="m2bcfabd23d" d="M 2.896197 -1.24666 
L 0.591984 -0.001028 
L 2.896197 1.252826 
L 2.524152 1.881809 
L 0.365879 0.578623 
L 0.365879 3 
L -0.365879 3 
L -0.365879 0.578623 
L -2.524152 1.881809 
L -2.896197 1.252826 
L -0.589928 -0.001028 
L -2.896197 -1.24666 
L -2.524152 -1.881809 
L -0.365879 -0.578623 
L -0.365879 -3 
L 0.365879 -3 
L 0.365879 -0.578623 
L 2.524152 -1.881809 
L 2.896197 -1.24666 
z
" style="stroke: #000000"/>
    </defs>
    <g clip-path="url(#p15381f2f07)">
     <use xlink:href="#m2bcfabd23d" x="103.636364" y="289.694118" style="stroke: #000000"/>
     <use xlink:href="#m2bcfabd23d" x="180" y="289.694118" style="stroke: #000000"/>
     <use xlink:href="#m2bcfabd23d" x="256.363636" y="289.694118" style="stroke: #000000"/>
    </g>
   </g>
   <g id="LineCollection_2">
    <path d="M 65.454545 388.8 
L 65.454545 350.682353 
" clip-path="url(#p15381f2f07)" style="fill: none; stroke-dasharray: 1.5,2.475; stroke-dashoffset: 0; stroke: #1f77b4; stroke-opacity: 0.3; stroke-width: 1.5"/>
    <path d="M 141.818182 388.8 
L 141.818182 350.682353 
" clip-path="url(#p15381f2f07)" style="fill: none; stroke-dasharray: 1.5,2.475; stroke-dashoffset: 0; stroke: #1f77b4; stroke-opacity: 0.3; stroke-width: 1.5"/>
    <path d="M 218.181818 388.8 
L 218.181818 350.682353 
" clip-path="url(#p15381f2f07)" style="fill: none; stroke-dasharray: 1.5,2.475; stroke-dashoffset: 0; stroke: #1f77b4; stroke-opacity: 0.3; stroke-width: 1.5"/>
    <path d="M 294.545455 388.8 
L 294.545455 350.682353 
" clip-path="url(#p15381f2f07)" style="fill: none; stroke-dasharray: 1.5,2.475; stroke-dashoffset: 0; stroke: #1f77b4; stroke-opacity: 0.3; stroke-width: 1.5"/>
   </g>
   <g id="LineCollection_3">
    <path d="M 103.636364 346.316642 
L 103.636364 342.815135 
" clip-path="url(#p15381f2f07)" style="fill: none; stroke: #1f77b4; stroke-width: 1.5"/>
    <path d="M 180 343.947121 
L 180 341.031416 
" clip-path="url(#p15381f2f07)" style="fill: none; stroke: #1f77b4; stroke-width: 1.5"/>
    <path d="M 256.363636 344.432464 
L 256.363636 340.777568 
" clip-path="url(#p15381f2f07)" style="fill: none; stroke: #1f77b4; stroke-width: 1.5"/>
   </g>
   <g id="line2d_13">
    <defs>
     <path id="mafc488f955" d="M 0 3 
C 0.795609 3 1.55874 2.683901 2.12132 2.12132 
C 2.683901 1.55874 3 0.795609 3 0 
C 3 -0.795609 2.683901 -1.55874 2.12132 -2.12132 
C 1.55874 -2.683901 0.795609 -3 0 -3 
C -0.795609 -3 -1.55874 -2.683901 -2.12132 -2.12132 
C -2.683901 -1.55874 -3 -0.795609 -3 0 
C -3 0.795609 -2.683901 1.55874 -2.12132 2.12132 
C -1.55874 2.683901 -0.795609 3 0 3 
z
" style="stroke: #1f77b4"/>
    </defs>
    <g clip-path="url(#p15381f2f07)">
     <use xlink:href="#mafc488f955" x="103.636364" y="344.565889" style="fill: #1f77b4; stroke: #1f77b4"/>
     <use xlink:href="#mafc488f955" x="180" y="342.489268" style="fill: #1f77b4; stroke: #1f77b4"/>
     <use xlink:href="#mafc488f955" x="256.363636" y="342.605016" style="fill: #1f77b4; stroke: #1f77b4"/>
    </g>
   </g>
   <g id="patch_3">
    <path d="M 46 388.8 
L 46 280.8 
" style="fill: none; stroke: #000000; stroke-width: 0.8; stroke-linejoin: miter; stroke-linecap: square"/>
   </g>
   <g id="patch_4">
    <path d="M 54 396.8 
L 306 396.8 
" style="fill: none; stroke: #000000; stroke-width: 0.8; stroke-linejoin: miter; stroke-linecap: square"/>
   </g>
  </g>
  <g id="axes_2">
   <g id="patch_5">
    <path d="M 54 259.2 
L 306 259.2 
L 306 151.2 
L 54 151.2 
z
" style="fill: #ffffff"/>
   </g>
   <g id="PolyCollection_2">
    <defs>
     <path id="mdab439a20f" d="M 65.454545 -227.376788 
L 65.454545 -222.087137 
L 70.12987 -222.013505 
L 74.805195 -221.933155 
L 79.480519 -221.735717 
L 84.155844 -221.614173 
L 88.831169 -221.571791 
L 93.506494 -221.831562 
L 98.181818 -222.436346 
L 102.857143 -222.509677 
L 107.532468 -222.649623 
L 112.207792 -222.977349 
L 116.883117 -223.111508 
L 121.558442 -223.400383 
L 126.233766 -223.957354 
L 130.909091 -224.384279 
L 135.584416 -224.909985 
L 140.25974 -225.606358 
L 144.935065 -226.000602 
L 149.61039 -226.272166 
L 154.285714 -226.56578 
L 158.961039 -226.834434 
L 163.636364 -227.008297 
L 168.311688 -227.306069 
L 172.987013 -227.645411 
L 177.662338 -227.893739 
L 182.337662 -228.040084 
L 187.012987 -228.098469 
L 191.688312 -228.150142 
L 196.363636 -228.330367 
L 201.038961 -228.38851 
L 205.714286 -228.312744 
L 210.38961 -228.250639 
L 215.064935 -227.954527 
L 219.74026 -227.674656 
L 224.415584 -227.546543 
L 229.090909 -227.427361 
L 233.766234 -227.319216 
L 238.441558 -227.089406 
L 243.116883 -226.770634 
L 247.792208 -226.494215 
L 252.467532 -226.192874 
L 257.142857 -225.856864 
L 261.818182 -225.464703 
L 266.493506 -225.216333 
L 271.168831 -225.105024 
L 275.844156 -225.051749 
L 280.519481 -224.967163 
L 285.194805 -224.790705 
L 289.87013 -224.621202 
L 294.545455 -224.561183 
L 294.545455 -235.001071 
L 294.545455 -235.001071 
L 289.87013 -235.378829 
L 285.194805 -235.908265 
L 280.519481 -236.579898 
L 275.844156 -237.505946 
L 271.168831 -238.660385 
L 266.493506 -239.717108 
L 261.818182 -240.459664 
L 257.142857 -241.410652 
L 252.467532 -242.309037 
L 247.792208 -242.623244 
L 243.116883 -242.259908 
L 238.441558 -241.740542 
L 233.766234 -241.096972 
L 229.090909 -240.407433 
L 224.415584 -239.589457 
L 219.74026 -238.636676 
L 215.064935 -238.273624 
L 210.38961 -238.026427 
L 205.714286 -237.554323 
L 201.038961 -237.273196 
L 196.363636 -236.864472 
L 191.688312 -236.413154 
L 187.012987 -236.330286 
L 182.337662 -236.259459 
L 177.662338 -236.187079 
L 172.987013 -236.015355 
L 168.311688 -235.674817 
L 163.636364 -235.060646 
L 158.961039 -234.495704 
L 154.285714 -233.927994 
L 149.61039 -233.036587 
L 144.935065 -232.060408 
L 140.25974 -230.96828 
L 135.584416 -229.648632 
L 130.909091 -228.709297 
L 126.233766 -227.895538 
L 121.558442 -227.139897 
L 116.883117 -226.889095 
L 112.207792 -226.889292 
L 107.532468 -226.843624 
L 102.857143 -226.546204 
L 98.181818 -226.388555 
L 93.506494 -226.089573 
L 88.831169 -226.114972 
L 84.155844 -226.27683 
L 79.480519 -226.621851 
L 74.805195 -227.24883 
L 70.12987 -227.32037 
L 65.454545 -227.376788 
z
"/>
    </defs>
    <g clip-path="url(#pf2575f01c3)">
     <use xlink:href="#mdab439a20f" x="0" y="432" style="fill: #9400d3; fill-opacity: 0.4"/>
    </g>
   </g>
   <g id="matplotlib.axis_3">
    <g id="xtick_6">
     <g id="line2d_14">
      <g>
       <use xlink:href="#ma0556b94e9" x="65.454545" y="267.2" style="stroke: #000000; stroke-width: 0.8"/>
      </g>
     </g>
    </g>
    <g id="xtick_7">
     <g id="line2d_15">
      <g>
       <use xlink:href="#ma0556b94e9" x="122.727273" y="267.2" style="stroke: #000000; stroke-width: 0.8"/>
      </g>
     </g>
    </g>
    <g id="xtick_8">
     <g id="line2d_16">
      <g>
       <use xlink:href="#ma0556b94e9" x="180" y="267.2" style="stroke: #000000; stroke-width: 0.8"/>
      </g>
     </g>
    </g>
    <g id="xtick_9">
     <g id="line2d_17">
      <g>
       <use xlink:href="#ma0556b94e9" x="237.272727" y="267.2" style="stroke: #000000; stroke-width: 0.8"/>
      </g>
     </g>
    </g>
    <g id="xtick_10">
     <g id="line2d_18">
      <g>
       <use xlink:href="#ma0556b94e9" x="294.545455" y="267.2" style="stroke: #000000; stroke-width: 0.8"/>
      </g>
     </g>
    </g>
   </g>
   <g id="matplotlib.axis_4">
    <g id="ytick_5">
     <g id="line2d_19">
      <g>
       <use xlink:href="#m28c1e980f0" x="46" y="246.494118" style="stroke: #000000; stroke-width: 0.8"/>
      </g>
     </g>
     <g id="text_12">
      <!-- 0 -->
      <g transform="translate(32.6375 250.293336) scale(0.1 -0.1)">
       <use xlink:href="#DejaVuSans-30"/>
      </g>
     </g>
    </g>
    <g id="ytick_6">
     <g id="line2d_20">
      <g>
       <use xlink:href="#m28c1e980f0" x="46" y="221.082353" style="stroke: #000000; stroke-width: 0.8"/>
      </g>
     </g>
     <g id="text_13">
      <!-- 2 -->
      <g transform="translate(32.6375 224.881572) scale(0.1 -0.1)">
       <use xlink:href="#DejaVuSans-32"/>
      </g>
     </g>
    </g>
    <g id="ytick_7">
     <g id="line2d_21">
      <g>
       <use xlink:href="#m28c1e980f0" x="46" y="195.670588" style="stroke: #000000; stroke-width: 0.8"/>
      </g>
     </g>
     <g id="text_14">
      <!-- 4 -->
      <g transform="translate(32.6375 199.469807) scale(0.1 -0.1)">
       <use xlink:href="#DejaVuSans-34"/>
      </g>
     </g>
    </g>
    <g id="ytick_8">
     <g id="line2d_22">
      <g>
       <use xlink:href="#m28c1e980f0" x="46" y="170.258824" style="stroke: #000000; stroke-width: 0.8"/>
      </g>
     </g>
     <g id="text_15">
      <!-- 6 -->
      <g transform="translate(32.6375 174.058042) scale(0.1 -0.1)">
       <use xlink:href="#DejaVuSans-36"/>
      </g>
     </g>
    </g>
    <g id="text_16">
     <!-- BOLD % change -->
     <g transform="translate(26.141875 253.494375) rotate(-90) scale(0.12 -0.12)">
      <use xlink:href="#DejaVuSans-42"/>
      <use xlink:href="#DejaVuSans-4f" x="66.853516"/>
      <use xlink:href="#DejaVuSans-4c" x="145.564453"/>
      <use xlink:href="#DejaVuSans-44" x="201.277344"/>
      <use xlink:href="#DejaVuSans-20" x="278.279297"/>
      <use xlink:href="#DejaVuSans-25" x="310.066406"/>
      <use xlink:href="#DejaVuSans-20" x="405.085938"/>
      <use xlink:href="#DejaVuSans-63" x="436.873047"/>
      <use xlink:href="#DejaVuSans-68" x="491.853516"/>
      <use xlink:href="#DejaVuSans-61" x="555.232422"/>
      <use xlink:href="#DejaVuSans-6e" x="616.511719"/>
      <use xlink:href="#DejaVuSans-67" x="679.890625"/>
      <use xlink:href="#DejaVuSans-65" x="743.367188"/>
     </g>
    </g>
   </g>
   <g id="line2d_23">
    <path d="M 180 259.2 
L 180 151.2 
" clip-path="url(#pf2575f01c3)" style="fill: none; stroke-dasharray: 5.55,2.4; stroke-dashoffset: 0; stroke: #4c4c4c; stroke-width: 1.5"/>
   </g>
   <g id="LineCollection_4">
    <path d="M 65.454545 246.494118 
L 294.545455 246.494118 
" clip-path="url(#pf2575f01c3)" style="fill: none; stroke-dasharray: 5.55,2.4; stroke-dashoffset: 0; stroke: #4c4c4c; stroke-width: 1.5"/>
   </g>
   <g id="line2d_24">
    <path d="M 65.454545 207.268038 
L 70.12987 207.333062 
L 74.805195 207.409007 
L 79.480519 207.821216 
L 84.155844 208.054498 
L 88.831169 208.156618 
L 93.506494 208.039433 
L 98.181818 207.58755 
L 102.857143 207.472059 
L 107.532468 207.253377 
L 112.207792 207.06668 
L 116.883117 206.999698 
L 121.558442 206.72986 
L 126.233766 206.073554 
L 130.909091 205.453212 
L 135.584416 204.720692 
L 140.25974 203.712681 
L 144.935065 202.969495 
L 149.61039 202.345624 
L 154.285714 201.753113 
L 158.961039 201.334931 
L 163.636364 200.965529 
L 168.311688 200.509557 
L 172.987013 200.169617 
L 177.662338 199.959591 
L 182.337662 199.850229 
L 187.012987 199.785623 
L 191.688312 199.718352 
L 196.363636 199.402581 
L 201.038961 199.169147 
L 205.714286 199.066466 
L 210.38961 198.861467 
L 215.064935 198.885924 
L 219.74026 198.844334 
L 224.415584 198.432 
L 229.090909 198.082603 
L 233.766234 197.791906 
L 238.441558 197.585026 
L 243.116883 197.484729 
L 247.792208 197.44127 
L 252.467532 197.749044 
L 257.142857 198.366242 
L 261.818182 199.037816 
L 266.493506 199.53328 
L 271.168831 200.117295 
L 275.844156 200.721153 
L 280.519481 201.22647 
L 285.194805 201.650515 
L 289.87013 201.999985 
L 294.545455 202.218873 
" clip-path="url(#pf2575f01c3)" style="fill: none; stroke: #9400d3; stroke-width: 1.5; stroke-linecap: square"/>
   </g>
   <g id="line2d_25">
    <g clip-path="url(#pf2575f01c3)">
     <use xlink:href="#m2bcfabd23d" x="103.636364" y="160.094118" style="stroke: #000000"/>
     <use xlink:href="#m2bcfabd23d" x="180" y="160.094118" style="stroke: #000000"/>
     <use xlink:href="#m2bcfabd23d" x="256.363636" y="160.094118" style="stroke: #000000"/>
    </g>
   </g>
   <g id="LineCollection_5">
    <path d="M 65.454545 259.2 
L 65.454545 221.082353 
" clip-path="url(#pf2575f01c3)" style="fill: none; stroke-dasharray: 1.5,2.475; stroke-dashoffset: 0; stroke: #1f77b4; stroke-opacity: 0.3; stroke-width: 1.5"/>
    <path d="M 141.818182 259.2 
L 141.818182 221.082353 
" clip-path="url(#pf2575f01c3)" style="fill: none; stroke-dasharray: 1.5,2.475; stroke-dashoffset: 0; stroke: #1f77b4; stroke-opacity: 0.3; stroke-width: 1.5"/>
    <path d="M 218.181818 259.2 
L 218.181818 221.082353 
" clip-path="url(#pf2575f01c3)" style="fill: none; stroke-dasharray: 1.5,2.475; stroke-dashoffset: 0; stroke: #1f77b4; stroke-opacity: 0.3; stroke-width: 1.5"/>
    <path d="M 294.545455 259.2 
L 294.545455 221.082353 
" clip-path="url(#pf2575f01c3)" style="fill: none; stroke-dasharray: 1.5,2.475; stroke-dashoffset: 0; stroke: #1f77b4; stroke-opacity: 0.3; stroke-width: 1.5"/>
   </g>
   <g id="LineCollection_6">
    <path d="M 103.636364 205.272031 
L 103.636364 196.962095 
" clip-path="url(#pf2575f01c3)" style="fill: none; stroke: #1f77b4; stroke-width: 1.5"/>
    <path d="M 180 199.683491 
L 180 194.728929 
" clip-path="url(#pf2575f01c3)" style="fill: none; stroke: #1f77b4; stroke-width: 1.5"/>
    <path d="M 256.363636 202.089977 
L 256.363636 195.36012 
" clip-path="url(#pf2575f01c3)" style="fill: none; stroke: #1f77b4; stroke-width: 1.5"/>
   </g>
   <g id="line2d_26">
    <g clip-path="url(#pf2575f01c3)">
     <use xlink:href="#mafc488f955" x="103.636364" y="201.117063" style="fill: #1f77b4; stroke: #1f77b4"/>
     <use xlink:href="#mafc488f955" x="180" y="197.20621" style="fill: #1f77b4; stroke: #1f77b4"/>
     <use xlink:href="#mafc488f955" x="256.363636" y="198.725048" style="fill: #1f77b4; stroke: #1f77b4"/>
    </g>
   </g>
   <g id="patch_6">
    <path d="M 46 259.2 
L 46 151.2 
" style="fill: none; stroke: #000000; stroke-width: 0.8; stroke-linejoin: miter; stroke-linecap: square"/>
   </g>
   <g id="patch_7">
    <path d="M 54 267.2 
L 306 267.2 
" style="fill: none; stroke: #000000; stroke-width: 0.8; stroke-linejoin: miter; stroke-linecap: square"/>
   </g>
   <g id="text_17">
    <!-- iso90 -->
    <g style="fill: #9400d3" transform="translate(265.909091 194.4) scale(0.11 -0.11)">
     <defs>
      <path id="DejaVuSans-39" d="M 703 97 
L 703 672 
Q 941 559 1184 500 
Q 1428 441 1663 441 
Q 2288 441 2617 861 
Q 2947 1281 2994 2138 
Q 2813 1869 2534 1725 
Q 2256 1581 1919 1581 
Q 1219 1581 811 2004 
Q 403 2428 403 3163 
Q 403 3881 828 4315 
Q 1253 4750 1959 4750 
Q 2769 4750 3195 4129 
Q 3622 3509 3622 2328 
Q 3622 1225 3098 567 
Q 2575 -91 1691 -91 
Q 1453 -91 1209 -44 
Q 966 3 703 97 
z
M 1959 2075 
Q 2384 2075 2632 2365 
Q 2881 2656 2881 3163 
Q 2881 3666 2632 3958 
Q 2384 4250 1959 4250 
Q 1534 4250 1286 3958 
Q 1038 3666 1038 3163 
Q 1038 2656 1286 2365 
Q 1534 2075 1959 2075 
z
" transform="scale(0.015625)"/>
     </defs>
     <use xlink:href="#DejaVuSans-69"/>
     <use xlink:href="#DejaVuSans-73" x="27.783203"/>
     <use xlink:href="#DejaVuSans-6f" x="79.882812"/>
     <use xlink:href="#DejaVuSans-39" x="141.064453"/>
     <use xlink:href="#DejaVuSans-30" x="204.6875"/>
    </g>
   </g>
  </g>
  <g id="axes_3">
   <g id="patch_8">
    <path d="M 54 129.6 
L 306 129.6 
L 306 21.6 
L 54 21.6 
z
" style="fill: #ffffff"/>
   </g>
   <g id="PolyCollection_3">
    <defs>
     <path id="mf15b48c76f" d="M 65.454545 -384.229361 
L 65.454545 -371.490701 
L 70.12987 -371.416716 
L 74.805195 -371.289022 
L 79.480519 -371.275271 
L 84.155844 -371.290059 
L 88.831169 -370.487301 
L 93.506494 -369.084005 
L 98.181818 -368.042226 
L 102.857143 -367.294212 
L 107.532468 -366.997119 
L 112.207792 -367.830251 
L 116.883117 -368.362111 
L 121.558442 -369.122732 
L 126.233766 -369.583552 
L 130.909091 -370.348287 
L 135.584416 -371.710033 
L 140.25974 -372.490304 
L 144.935065 -372.550863 
L 149.61039 -372.67847 
L 154.285714 -372.599893 
L 158.961039 -372.478439 
L 163.636364 -372.973973 
L 168.311688 -373.678895 
L 172.987013 -374.402528 
L 177.662338 -375.143299 
L 182.337662 -375.628551 
L 187.012987 -375.891229 
L 191.688312 -376.145124 
L 196.363636 -376.233714 
L 201.038961 -376.206085 
L 205.714286 -375.798632 
L 210.38961 -375.222233 
L 215.064935 -374.764407 
L 219.74026 -374.419741 
L 224.415584 -373.888439 
L 229.090909 -373.277096 
L 233.766234 -372.582002 
L 238.441558 -371.968645 
L 243.116883 -371.343088 
L 247.792208 -370.591714 
L 252.467532 -370.099766 
L 257.142857 -369.886084 
L 261.818182 -369.91149 
L 266.493506 -369.814502 
L 271.168831 -369.875368 
L 275.844156 -369.967748 
L 280.519481 -369.907949 
L 285.194805 -369.786276 
L 289.87013 -369.440415 
L 294.545455 -369.404508 
L 294.545455 -387.343493 
L 294.545455 -387.343493 
L 289.87013 -387.7544 
L 285.194805 -388.863378 
L 280.519481 -389.383281 
L 275.844156 -389.599233 
L 271.168831 -389.353182 
L 266.493506 -389.279112 
L 261.818182 -389.153899 
L 257.142857 -388.816372 
L 252.467532 -389.196432 
L 247.792208 -389.840936 
L 243.116883 -390.723094 
L 238.441558 -391.507059 
L 233.766234 -391.753242 
L 229.090909 -392.589073 
L 224.415584 -393.821023 
L 219.74026 -394.55223 
L 215.064935 -394.895848 
L 210.38961 -395.708314 
L 205.714286 -396.574232 
L 201.038961 -397.075217 
L 196.363636 -396.577631 
L 191.688312 -395.549117 
L 187.012987 -393.948554 
L 182.337662 -392.557594 
L 177.662338 -391.178349 
L 172.987013 -389.455517 
L 168.311688 -387.744713 
L 163.636364 -386.58591 
L 158.961039 -385.732099 
L 154.285714 -385.564433 
L 149.61039 -385.087967 
L 144.935065 -384.257257 
L 140.25974 -383.605475 
L 135.584416 -382.391052 
L 130.909091 -380.966817 
L 126.233766 -380.157779 
L 121.558442 -379.788467 
L 116.883117 -379.019911 
L 112.207792 -378.599524 
L 107.532468 -378.013 
L 102.857143 -378.707159 
L 98.181818 -379.771146 
L 93.506494 -380.836286 
L 88.831169 -382.233754 
L 84.155844 -383.456339 
L 79.480519 -383.642388 
L 74.805195 -383.663853 
L 70.12987 -384.027278 
L 65.454545 -384.229361 
z
"/>
    </defs>
    <g clip-path="url(#p2d2915613c)">
     <use xlink:href="#mf15b48c76f" x="0" y="432" style="fill: #9400d3; fill-opacity: 0.4"/>
    </g>
   </g>
   <g id="matplotlib.axis_5">
    <g id="xtick_11">
     <g id="line2d_27">
      <g>
       <use xlink:href="#ma0556b94e9" x="65.454545" y="137.6" style="stroke: #000000; stroke-width: 0.8"/>
      </g>
     </g>
    </g>
    <g id="xtick_12">
     <g id="line2d_28">
      <g>
       <use xlink:href="#ma0556b94e9" x="122.727273" y="137.6" style="stroke: #000000; stroke-width: 0.8"/>
      </g>
     </g>
    </g>
    <g id="xtick_13">
     <g id="line2d_29">
      <g>
       <use xlink:href="#ma0556b94e9" x="180" y="137.6" style="stroke: #000000; stroke-width: 0.8"/>
      </g>
     </g>
    </g>
    <g id="xtick_14">
     <g id="line2d_30">
      <g>
       <use xlink:href="#ma0556b94e9" x="237.272727" y="137.6" style="stroke: #000000; stroke-width: 0.8"/>
      </g>
     </g>
    </g>
    <g id="xtick_15">
     <g id="line2d_31">
      <g>
       <use xlink:href="#ma0556b94e9" x="294.545455" y="137.6" style="stroke: #000000; stroke-width: 0.8"/>
      </g>
     </g>
    </g>
   </g>
   <g id="matplotlib.axis_6">
    <g id="ytick_9">
     <g id="line2d_32">
      <g>
       <use xlink:href="#m28c1e980f0" x="46" y="116.894118" style="stroke: #000000; stroke-width: 0.8"/>
      </g>
     </g>
     <g id="text_18">
      <!-- 0 -->
      <g transform="translate(32.6375 120.693336) scale(0.1 -0.1)">
       <use xlink:href="#DejaVuSans-30"/>
      </g>
     </g>
    </g>
    <g id="ytick_10">
     <g id="line2d_33">
      <g>
       <use xlink:href="#m28c1e980f0" x="46" y="91.482353" style="stroke: #000000; stroke-width: 0.8"/>
      </g>
     </g>
     <g id="text_19">
      <!-- 2 -->
      <g transform="translate(32.6375 95.281572) scale(0.1 -0.1)">
       <use xlink:href="#DejaVuSans-32"/>
      </g>
     </g>
    </g>
    <g id="ytick_11">
     <g id="line2d_34">
      <g>
       <use xlink:href="#m28c1e980f0" x="46" y="66.070588" style="stroke: #000000; stroke-width: 0.8"/>
      </g>
     </g>
     <g id="text_20">
      <!-- 4 -->
      <g transform="translate(32.6375 69.869807) scale(0.1 -0.1)">
       <use xlink:href="#DejaVuSans-34"/>
      </g>
     </g>
    </g>
    <g id="ytick_12">
     <g id="line2d_35">
      <g>
       <use xlink:href="#m28c1e980f0" x="46" y="40.658824" style="stroke: #000000; stroke-width: 0.8"/>
      </g>
     </g>
     <g id="text_21">
      <!-- 6 -->
      <g transform="translate(32.6375 44.458042) scale(0.1 -0.1)">
       <use xlink:href="#DejaVuSans-36"/>
      </g>
     </g>
    </g>
    <g id="text_22">
     <!-- BOLD % change -->
     <g transform="translate(26.141875 123.894375) rotate(-90) scale(0.12 -0.12)">
      <use xlink:href="#DejaVuSans-42"/>
      <use xlink:href="#DejaVuSans-4f" x="66.853516"/>
      <use xlink:href="#DejaVuSans-4c" x="145.564453"/>
      <use xlink:href="#DejaVuSans-44" x="201.277344"/>
      <use xlink:href="#DejaVuSans-20" x="278.279297"/>
      <use xlink:href="#DejaVuSans-25" x="310.066406"/>
      <use xlink:href="#DejaVuSans-20" x="405.085938"/>
      <use xlink:href="#DejaVuSans-63" x="436.873047"/>
      <use xlink:href="#DejaVuSans-68" x="491.853516"/>
      <use xlink:href="#DejaVuSans-61" x="555.232422"/>
      <use xlink:href="#DejaVuSans-6e" x="616.511719"/>
      <use xlink:href="#DejaVuSans-67" x="679.890625"/>
      <use xlink:href="#DejaVuSans-65" x="743.367188"/>
     </g>
    </g>
   </g>
   <g id="line2d_36">
    <path d="M 180 129.6 
L 180 21.6 
" clip-path="url(#p2d2915613c)" style="fill: none; stroke-dasharray: 5.55,2.4; stroke-dashoffset: 0; stroke: #4c4c4c; stroke-width: 1.5"/>
   </g>
   <g id="LineCollection_7">
    <path d="M 65.454545 116.894118 
L 294.545455 116.894118 
" clip-path="url(#p2d2915613c)" style="fill: none; stroke-dasharray: 5.55,2.4; stroke-dashoffset: 0; stroke: #4c4c4c; stroke-width: 1.5"/>
   </g>
   <g id="line2d_37">
    <path d="M 65.454545 54.139969 
L 70.12987 54.278003 
L 74.805195 54.523563 
L 79.480519 54.54117 
L 84.155844 54.626801 
L 88.831169 55.639472 
L 93.506494 57.039854 
L 98.181818 58.093314 
L 102.857143 58.999315 
L 107.532468 59.494941 
L 112.207792 58.785113 
L 116.883117 58.308989 
L 121.558442 57.544401 
L 126.233766 57.129334 
L 130.909091 56.342448 
L 135.584416 54.949458 
L 140.25974 53.952111 
L 144.935065 53.59594 
L 149.61039 53.116782 
L 154.285714 52.917837 
L 158.961039 52.894731 
L 163.636364 52.220059 
L 168.311688 51.288196 
L 172.987013 50.070977 
L 177.662338 48.839176 
L 182.337662 47.906927 
L 187.012987 47.080109 
L 191.688312 46.15288 
L 196.363636 45.594328 
L 201.038961 45.359349 
L 205.714286 45.813568 
L 210.38961 46.534726 
L 215.064935 47.169873 
L 219.74026 47.514014 
L 224.415584 48.145269 
L 229.090909 49.066916 
L 233.766234 49.832378 
L 238.441558 50.262148 
L 243.116883 50.966909 
L 247.792208 51.783675 
L 252.467532 52.351901 
L 257.142857 52.648772 
L 261.818182 52.467306 
L 266.493506 52.453193 
L 271.168831 52.385725 
L 275.844156 52.21651 
L 280.519481 52.354385 
L 285.194805 52.675173 
L 289.87013 53.402593 
L 294.545455 53.626 
" clip-path="url(#p2d2915613c)" style="fill: none; stroke: #9400d3; stroke-width: 1.5; stroke-linecap: square"/>
   </g>
   <g id="line2d_38">
    <g clip-path="url(#p2d2915613c)">
     <use xlink:href="#m2bcfabd23d" x="103.636364" y="30.494118" style="stroke: #000000"/>
     <use xlink:href="#m2bcfabd23d" x="180" y="30.494118" style="stroke: #000000"/>
     <use xlink:href="#m2bcfabd23d" x="256.363636" y="30.494118" style="stroke: #000000"/>
    </g>
   </g>
   <g id="LineCollection_8">
    <path d="M 65.454545 129.6 
L 65.454545 91.482353 
" clip-path="url(#p2d2915613c)" style="fill: none; stroke-dasharray: 1.5,2.475; stroke-dashoffset: 0; stroke: #1f77b4; stroke-opacity: 0.3; stroke-width: 1.5"/>
    <path d="M 141.818182 129.6 
L 141.818182 91.482353 
" clip-path="url(#p2d2915613c)" style="fill: none; stroke-dasharray: 1.5,2.475; stroke-dashoffset: 0; stroke: #1f77b4; stroke-opacity: 0.3; stroke-width: 1.5"/>
    <path d="M 218.181818 129.6 
L 218.181818 91.482353 
" clip-path="url(#p2d2915613c)" style="fill: none; stroke-dasharray: 1.5,2.475; stroke-dashoffset: 0; stroke: #1f77b4; stroke-opacity: 0.3; stroke-width: 1.5"/>
    <path d="M 294.545455 129.6 
L 294.545455 91.482353 
" clip-path="url(#p2d2915613c)" style="fill: none; stroke-dasharray: 1.5,2.475; stroke-dashoffset: 0; stroke: #1f77b4; stroke-opacity: 0.3; stroke-width: 1.5"/>
   </g>
   <g id="LineCollection_9">
    <path d="M 103.636364 57.183699 
L 103.636364 37.691101 
" clip-path="url(#p2d2915613c)" style="fill: none; stroke: #1f77b4; stroke-width: 1.5"/>
    <path d="M 180 50.929002 
L 180 41.841965 
" clip-path="url(#p2d2915613c)" style="fill: none; stroke: #1f77b4; stroke-width: 1.5"/>
    <path d="M 256.363636 55.332793 
L 256.363636 44.836676 
" clip-path="url(#p2d2915613c)" style="fill: none; stroke: #1f77b4; stroke-width: 1.5"/>
   </g>
   <g id="line2d_39">
    <g clip-path="url(#p2d2915613c)">
     <use xlink:href="#mafc488f955" x="103.636364" y="47.4374" style="fill: #1f77b4; stroke: #1f77b4"/>
     <use xlink:href="#mafc488f955" x="180" y="46.385484" style="fill: #1f77b4; stroke: #1f77b4"/>
     <use xlink:href="#mafc488f955" x="256.363636" y="50.084735" style="fill: #1f77b4; stroke: #1f77b4"/>
    </g>
   </g>
   <g id="patch_9">
    <path d="M 46 129.6 
L 46 21.6 
" style="fill: none; stroke: #000000; stroke-width: 0.8; stroke-linejoin: miter; stroke-linecap: square"/>
   </g>
   <g id="patch_10">
    <path d="M 54 137.6 
L 306 137.6 
" style="fill: none; stroke: #000000; stroke-width: 0.8; stroke-linejoin: miter; stroke-linecap: square"/>
   </g>
  </g>
 </g>
 <defs>
  <clipPath id="p15381f2f07">
   <rect x="54" y="280.8" width="252" height="108"/>
  </clipPath>
  <clipPath id="pf2575f01c3">
   <rect x="54" y="151.2" width="252" height="108"/>
  </clipPath>
  <clipPath id="p2d2915613c">
   <rect x="54" y="21.6" width="252" height="108"/>
  </clipPath>
 </defs>
</svg>
