<?xml version="1.0" encoding="utf-8" standalone="no"?>
<!DOCTYPE svg PUBLIC "-//W3C//DTD SVG 1.1//EN"
  "http://www.w3.org/Graphics/SVG/1.1/DTD/svg11.dtd">
<svg xmlns:xlink="http://www.w3.org/1999/xlink" width="360pt" height="432pt" viewBox="0 0 360 432" xmlns="http://www.w3.org/2000/svg" version="1.1">
 <metadata>
  <rdf:RDF xmlns:dc="http://purl.org/dc/elements/1.1/" xmlns:cc="http://creativecommons.org/ns#" xmlns:rdf="http://www.w3.org/1999/02/22-rdf-syntax-ns#">
   <cc:Work>
    <dc:type rdf:resource="http://purl.org/dc/dcmitype/StillImage"/>
    <dc:date>2024-05-15T09:26:15.783631</dc:date>
    <dc:format>image/svg+xml</dc:format>
    <dc:creator>
     <cc:Agent>
      <dc:title>Matplotlib v3.8.0, https://matplotlib.org/</dc:title>
     </cc:Agent>
    </dc:creator>
   </cc:Work>
  </rdf:RDF>
 </metadata>
 <defs>
  <style type="text/css">*{stroke-linejoin: round; stroke-linecap: butt}</style>
 </defs>
 <g id="figure_1">
  <g id="patch_1">
   <path d="M 0 432 
L 360 432 
L 360 0 
L 0 0 
z
" style="fill: #ffffff"/>
  </g>
  <g id="axes_1">
   <g id="patch_2">
    <path d="M 54 388.8 
L 306 388.8 
L 306 280.8 
L 54 280.8 
z
" style="fill: #ffffff"/>
   </g>
   <g id="PolyCollection_1">
    <defs>
     <path id="mec6601e6a6" d="M 65.454545 -89.471959 
L 65.454545 -84.190666 
L 70.12987 -84.190666 
L 74.805195 -84.208168 
L 79.480519 -84.784843 
L 84.155844 -85.28457 
L 88.831169 -85.028682 
L 93.506494 -84.857249 
L 98.181818 -84.877435 
L 102.857143 -85.055958 
L 107.532468 -85.276102 
L 112.207792 -85.234233 
L 116.883117 -85.389207 
L 121.558442 -85.743217 
L 126.233766 -86.101954 
L 130.909091 -86.338421 
L 135.584416 -86.580984 
L 140.25974 -86.946255 
L 144.935065 -87.265026 
L 149.61039 -87.583484 
L 154.285714 -87.726519 
L 158.961039 -87.935661 
L 163.636364 -88.167933 
L 168.311688 -88.264961 
L 172.987013 -88.381685 
L 177.662338 -88.595391 
L 182.337662 -88.834323 
L 187.012987 -89.16561 
L 191.688312 -89.39648 
L 196.363636 -89.714118 
L 201.038961 -89.785747 
L 205.714286 -89.834378 
L 210.38961 -89.791904 
L 215.064935 -89.597617 
L 219.74026 -89.436341 
L 224.415584 -89.351922 
L 229.090909 -89.281064 
L 233.766234 -89.298941 
L 238.441558 -89.232352 
L 243.116883 -89.244527 
L 247.792208 -89.199625 
L 252.467532 -89.144707 
L 257.142857 -88.884787 
L 261.818182 -88.683821 
L 266.493506 -88.325439 
L 271.168831 -88.08472 
L 275.844156 -88.043308 
L 280.519481 -88.121731 
L 285.194805 -88.319067 
L 289.87013 -88.413302 
L 294.545455 -88.407978 
L 294.545455 -97.717858 
L 294.545455 -97.717858 
L 289.87013 -97.841697 
L 285.194805 -98.038678 
L 280.519481 -98.042601 
L 275.844156 -98.086852 
L 271.168831 -98.492826 
L 266.493506 -99.162662 
L 261.818182 -99.826607 
L 257.142857 -100.063908 
L 252.467532 -100.496902 
L 247.792208 -100.334594 
L 243.116883 -100.086176 
L 238.441558 -99.774939 
L 233.766234 -99.137926 
L 229.090909 -98.351495 
L 224.415584 -97.813626 
L 219.74026 -97.374515 
L 215.064935 -96.88962 
L 210.38961 -96.596368 
L 205.714286 -96.32737 
L 201.038961 -96.250056 
L 196.363636 -96.211676 
L 191.688312 -95.994405 
L 187.012987 -95.666238 
L 182.337662 -95.396207 
L 177.662338 -95.280802 
L 172.987013 -94.956211 
L 168.311688 -94.500423 
L 163.636364 -94.081324 
L 158.961039 -93.618825 
L 154.285714 -93.265751 
L 149.61039 -92.904691 
L 144.935065 -92.668562 
L 140.25974 -92.403441 
L 135.584416 -91.91325 
L 130.909091 -91.696549 
L 126.233766 -91.324834 
L 121.558442 -90.585292 
L 116.883117 -89.947475 
L 112.207792 -89.824459 
L 107.532468 -89.900337 
L 102.857143 -89.726792 
L 98.181818 -89.647566 
L 93.506494 -89.699453 
L 88.831169 -89.658318 
L 84.155844 -89.807702 
L 79.480519 -89.665115 
L 74.805195 -89.487616 
L 70.12987 -89.471959 
L 65.454545 -89.471959 
z
"/>
    </defs>
    <g clip-path="url(#p408d3b8255)">
     <use xlink:href="#mec6601e6a6" x="0" y="432" style="fill: #ffa500; fill-opacity: 0.4"/>
    </g>
   </g>
   <g id="matplotlib.axis_1">
    <g id="xtick_1">
     <g id="line2d_1">
      <defs>
       <path id="ma71e4fd7c8" d="M 0 0 
L 0 3.5 
" style="stroke: #000000; stroke-width: 0.8"/>
      </defs>
      <g>
       <use xlink:href="#ma71e4fd7c8" x="65.454545" y="396.8" style="stroke: #000000; stroke-width: 0.8"/>
      </g>
     </g>
     <g id="text_1">
      <!-- 0 -->
      <g transform="translate(62.273295 411.398438) scale(0.1 -0.1)">
       <defs>
        <path id="DejaVuSans-30" d="M 2034 4250 
Q 1547 4250 1301 3770 
Q 1056 3291 1056 2328 
Q 1056 1369 1301 889 
Q 1547 409 2034 409 
Q 2525 409 2770 889 
Q 3016 1369 3016 2328 
Q 3016 3291 2770 3770 
Q 2525 4250 2034 4250 
z
M 2034 4750 
Q 2819 4750 3233 4129 
Q 3647 3509 3647 2328 
Q 3647 1150 3233 529 
Q 2819 -91 2034 -91 
Q 1250 -91 836 529 
Q 422 1150 422 2328 
Q 422 3509 836 4129 
Q 1250 4750 2034 4750 
z
" transform="scale(0.015625)"/>
       </defs>
       <use xlink:href="#DejaVuSans-30"/>
      </g>
     </g>
    </g>
    <g id="xtick_2">
     <g id="line2d_2">
      <g>
       <use xlink:href="#ma71e4fd7c8" x="122.727273" y="396.8" style="stroke: #000000; stroke-width: 0.8"/>
      </g>
     </g>
     <g id="text_2">
      <!-- 1 -->
      <g transform="translate(119.546023 411.398438) scale(0.1 -0.1)">
       <defs>
        <path id="DejaVuSans-31" d="M 794 531 
L 1825 531 
L 1825 4091 
L 703 3866 
L 703 4441 
L 1819 4666 
L 2450 4666 
L 2450 531 
L 3481 531 
L 3481 0 
L 794 0 
L 794 531 
z
" transform="scale(0.015625)"/>
       </defs>
       <use xlink:href="#DejaVuSans-31"/>
      </g>
     </g>
    </g>
    <g id="xtick_3">
     <g id="line2d_3">
      <g>
       <use xlink:href="#ma71e4fd7c8" x="180" y="396.8" style="stroke: #000000; stroke-width: 0.8"/>
      </g>
     </g>
     <g id="text_3">
      <!-- 2 -->
      <g transform="translate(176.81875 411.398438) scale(0.1 -0.1)">
       <defs>
        <path id="DejaVuSans-32" d="M 1228 531 
L 3431 531 
L 3431 0 
L 469 0 
L 469 531 
Q 828 903 1448 1529 
Q 2069 2156 2228 2338 
Q 2531 2678 2651 2914 
Q 2772 3150 2772 3378 
Q 2772 3750 2511 3984 
Q 2250 4219 1831 4219 
Q 1534 4219 1204 4116 
Q 875 4013 500 3803 
L 500 4441 
Q 881 4594 1212 4672 
Q 1544 4750 1819 4750 
Q 2544 4750 2975 4387 
Q 3406 4025 3406 3419 
Q 3406 3131 3298 2873 
Q 3191 2616 2906 2266 
Q 2828 2175 2409 1742 
Q 1991 1309 1228 531 
z
" transform="scale(0.015625)"/>
       </defs>
       <use xlink:href="#DejaVuSans-32"/>
      </g>
     </g>
    </g>
    <g id="xtick_4">
     <g id="line2d_4">
      <g>
       <use xlink:href="#ma71e4fd7c8" x="237.272727" y="396.8" style="stroke: #000000; stroke-width: 0.8"/>
      </g>
     </g>
     <g id="text_4">
      <!-- 3 -->
      <g transform="translate(234.091477 411.398438) scale(0.1 -0.1)">
       <defs>
        <path id="DejaVuSans-33" d="M 2597 2516 
Q 3050 2419 3304 2112 
Q 3559 1806 3559 1356 
Q 3559 666 3084 287 
Q 2609 -91 1734 -91 
Q 1441 -91 1130 -33 
Q 819 25 488 141 
L 488 750 
Q 750 597 1062 519 
Q 1375 441 1716 441 
Q 2309 441 2620 675 
Q 2931 909 2931 1356 
Q 2931 1769 2642 2001 
Q 2353 2234 1838 2234 
L 1294 2234 
L 1294 2753 
L 1863 2753 
Q 2328 2753 2575 2939 
Q 2822 3125 2822 3475 
Q 2822 3834 2567 4026 
Q 2313 4219 1838 4219 
Q 1578 4219 1281 4162 
Q 984 4106 628 3988 
L 628 4550 
Q 988 4650 1302 4700 
Q 1616 4750 1894 4750 
Q 2613 4750 3031 4423 
Q 3450 4097 3450 3541 
Q 3450 3153 3228 2886 
Q 3006 2619 2597 2516 
z
" transform="scale(0.015625)"/>
       </defs>
       <use xlink:href="#DejaVuSans-33"/>
      </g>
     </g>
    </g>
    <g id="xtick_5">
     <g id="line2d_5">
      <g>
       <use xlink:href="#ma71e4fd7c8" x="294.545455" y="396.8" style="stroke: #000000; stroke-width: 0.8"/>
      </g>
     </g>
     <g id="text_5">
      <!-- 4 -->
      <g transform="translate(291.364205 411.398438) scale(0.1 -0.1)">
       <defs>
        <path id="DejaVuSans-34" d="M 2419 4116 
L 825 1625 
L 2419 1625 
L 2419 4116 
z
M 2253 4666 
L 3047 4666 
L 3047 1625 
L 3713 1625 
L 3713 1100 
L 3047 1100 
L 3047 0 
L 2419 0 
L 2419 1100 
L 313 1100 
L 313 1709 
L 2253 4666 
z
" transform="scale(0.015625)"/>
       </defs>
       <use xlink:href="#DejaVuSans-34"/>
      </g>
     </g>
    </g>
    <g id="text_6">
     <!-- relative distance from ROI center ($\sigma$) -->
     <g transform="translate(69.72 426.59625) scale(0.12 -0.12)">
      <defs>
       <path id="DejaVuSans-72" d="M 2631 2963 
Q 2534 3019 2420 3045 
Q 2306 3072 2169 3072 
Q 1681 3072 1420 2755 
Q 1159 2438 1159 1844 
L 1159 0 
L 581 0 
L 581 3500 
L 1159 3500 
L 1159 2956 
Q 1341 3275 1631 3429 
Q 1922 3584 2338 3584 
Q 2397 3584 2469 3576 
Q 2541 3569 2628 3553 
L 2631 2963 
z
" transform="scale(0.015625)"/>
       <path id="DejaVuSans-65" d="M 3597 1894 
L 3597 1613 
L 953 1613 
Q 991 1019 1311 708 
Q 1631 397 2203 397 
Q 2534 397 2845 478 
Q 3156 559 3463 722 
L 3463 178 
Q 3153 47 2828 -22 
Q 2503 -91 2169 -91 
Q 1331 -91 842 396 
Q 353 884 353 1716 
Q 353 2575 817 3079 
Q 1281 3584 2069 3584 
Q 2775 3584 3186 3129 
Q 3597 2675 3597 1894 
z
M 3022 2063 
Q 3016 2534 2758 2815 
Q 2500 3097 2075 3097 
Q 1594 3097 1305 2825 
Q 1016 2553 972 2059 
L 3022 2063 
z
" transform="scale(0.015625)"/>
       <path id="DejaVuSans-6c" d="M 603 4863 
L 1178 4863 
L 1178 0 
L 603 0 
L 603 4863 
z
" transform="scale(0.015625)"/>
       <path id="DejaVuSans-61" d="M 2194 1759 
Q 1497 1759 1228 1600 
Q 959 1441 959 1056 
Q 959 750 1161 570 
Q 1363 391 1709 391 
Q 2188 391 2477 730 
Q 2766 1069 2766 1631 
L 2766 1759 
L 2194 1759 
z
M 3341 1997 
L 3341 0 
L 2766 0 
L 2766 531 
Q 2569 213 2275 61 
Q 1981 -91 1556 -91 
Q 1019 -91 701 211 
Q 384 513 384 1019 
Q 384 1609 779 1909 
Q 1175 2209 1959 2209 
L 2766 2209 
L 2766 2266 
Q 2766 2663 2505 2880 
Q 2244 3097 1772 3097 
Q 1472 3097 1187 3025 
Q 903 2953 641 2809 
L 641 3341 
Q 956 3463 1253 3523 
Q 1550 3584 1831 3584 
Q 2591 3584 2966 3190 
Q 3341 2797 3341 1997 
z
" transform="scale(0.015625)"/>
       <path id="DejaVuSans-74" d="M 1172 4494 
L 1172 3500 
L 2356 3500 
L 2356 3053 
L 1172 3053 
L 1172 1153 
Q 1172 725 1289 603 
Q 1406 481 1766 481 
L 2356 481 
L 2356 0 
L 1766 0 
Q 1100 0 847 248 
Q 594 497 594 1153 
L 594 3053 
L 172 3053 
L 172 3500 
L 594 3500 
L 594 4494 
L 1172 4494 
z
" transform="scale(0.015625)"/>
       <path id="DejaVuSans-69" d="M 603 3500 
L 1178 3500 
L 1178 0 
L 603 0 
L 603 3500 
z
M 603 4863 
L 1178 4863 
L 1178 4134 
L 603 4134 
L 603 4863 
z
" transform="scale(0.015625)"/>
       <path id="DejaVuSans-76" d="M 191 3500 
L 800 3500 
L 1894 563 
L 2988 3500 
L 3597 3500 
L 2284 0 
L 1503 0 
L 191 3500 
z
" transform="scale(0.015625)"/>
       <path id="DejaVuSans-20" transform="scale(0.015625)"/>
       <path id="DejaVuSans-64" d="M 2906 2969 
L 2906 4863 
L 3481 4863 
L 3481 0 
L 2906 0 
L 2906 525 
Q 2725 213 2448 61 
Q 2172 -91 1784 -91 
Q 1150 -91 751 415 
Q 353 922 353 1747 
Q 353 2572 751 3078 
Q 1150 3584 1784 3584 
Q 2172 3584 2448 3432 
Q 2725 3281 2906 2969 
z
M 947 1747 
Q 947 1113 1208 752 
Q 1469 391 1925 391 
Q 2381 391 2643 752 
Q 2906 1113 2906 1747 
Q 2906 2381 2643 2742 
Q 2381 3103 1925 3103 
Q 1469 3103 1208 2742 
Q 947 2381 947 1747 
z
" transform="scale(0.015625)"/>
       <path id="DejaVuSans-73" d="M 2834 3397 
L 2834 2853 
Q 2591 2978 2328 3040 
Q 2066 3103 1784 3103 
Q 1356 3103 1142 2972 
Q 928 2841 928 2578 
Q 928 2378 1081 2264 
Q 1234 2150 1697 2047 
L 1894 2003 
Q 2506 1872 2764 1633 
Q 3022 1394 3022 966 
Q 3022 478 2636 193 
Q 2250 -91 1575 -91 
Q 1294 -91 989 -36 
Q 684 19 347 128 
L 347 722 
Q 666 556 975 473 
Q 1284 391 1588 391 
Q 1994 391 2212 530 
Q 2431 669 2431 922 
Q 2431 1156 2273 1281 
Q 2116 1406 1581 1522 
L 1381 1569 
Q 847 1681 609 1914 
Q 372 2147 372 2553 
Q 372 3047 722 3315 
Q 1072 3584 1716 3584 
Q 2034 3584 2315 3537 
Q 2597 3491 2834 3397 
z
" transform="scale(0.015625)"/>
       <path id="DejaVuSans-6e" d="M 3513 2113 
L 3513 0 
L 2938 0 
L 2938 2094 
Q 2938 2591 2744 2837 
Q 2550 3084 2163 3084 
Q 1697 3084 1428 2787 
Q 1159 2491 1159 1978 
L 1159 0 
L 581 0 
L 581 3500 
L 1159 3500 
L 1159 2956 
Q 1366 3272 1645 3428 
Q 1925 3584 2291 3584 
Q 2894 3584 3203 3211 
Q 3513 2838 3513 2113 
z
" transform="scale(0.015625)"/>
       <path id="DejaVuSans-63" d="M 3122 3366 
L 3122 2828 
Q 2878 2963 2633 3030 
Q 2388 3097 2138 3097 
Q 1578 3097 1268 2742 
Q 959 2388 959 1747 
Q 959 1106 1268 751 
Q 1578 397 2138 397 
Q 2388 397 2633 464 
Q 2878 531 3122 666 
L 3122 134 
Q 2881 22 2623 -34 
Q 2366 -91 2075 -91 
Q 1284 -91 818 406 
Q 353 903 353 1747 
Q 353 2603 823 3093 
Q 1294 3584 2113 3584 
Q 2378 3584 2631 3529 
Q 2884 3475 3122 3366 
z
" transform="scale(0.015625)"/>
       <path id="DejaVuSans-66" d="M 2375 4863 
L 2375 4384 
L 1825 4384 
Q 1516 4384 1395 4259 
Q 1275 4134 1275 3809 
L 1275 3500 
L 2222 3500 
L 2222 3053 
L 1275 3053 
L 1275 0 
L 697 0 
L 697 3053 
L 147 3053 
L 147 3500 
L 697 3500 
L 697 3744 
Q 697 4328 969 4595 
Q 1241 4863 1831 4863 
L 2375 4863 
z
" transform="scale(0.015625)"/>
       <path id="DejaVuSans-6f" d="M 1959 3097 
Q 1497 3097 1228 2736 
Q 959 2375 959 1747 
Q 959 1119 1226 758 
Q 1494 397 1959 397 
Q 2419 397 2687 759 
Q 2956 1122 2956 1747 
Q 2956 2369 2687 2733 
Q 2419 3097 1959 3097 
z
M 1959 3584 
Q 2709 3584 3137 3096 
Q 3566 2609 3566 1747 
Q 3566 888 3137 398 
Q 2709 -91 1959 -91 
Q 1206 -91 779 398 
Q 353 888 353 1747 
Q 353 2609 779 3096 
Q 1206 3584 1959 3584 
z
" transform="scale(0.015625)"/>
       <path id="DejaVuSans-6d" d="M 3328 2828 
Q 3544 3216 3844 3400 
Q 4144 3584 4550 3584 
Q 5097 3584 5394 3201 
Q 5691 2819 5691 2113 
L 5691 0 
L 5113 0 
L 5113 2094 
Q 5113 2597 4934 2840 
Q 4756 3084 4391 3084 
Q 3944 3084 3684 2787 
Q 3425 2491 3425 1978 
L 3425 0 
L 2847 0 
L 2847 2094 
Q 2847 2600 2669 2842 
Q 2491 3084 2119 3084 
Q 1678 3084 1418 2786 
Q 1159 2488 1159 1978 
L 1159 0 
L 581 0 
L 581 3500 
L 1159 3500 
L 1159 2956 
Q 1356 3278 1631 3431 
Q 1906 3584 2284 3584 
Q 2666 3584 2933 3390 
Q 3200 3197 3328 2828 
z
" transform="scale(0.015625)"/>
       <path id="DejaVuSans-52" d="M 2841 2188 
Q 3044 2119 3236 1894 
Q 3428 1669 3622 1275 
L 4263 0 
L 3584 0 
L 2988 1197 
Q 2756 1666 2539 1819 
Q 2322 1972 1947 1972 
L 1259 1972 
L 1259 0 
L 628 0 
L 628 4666 
L 2053 4666 
Q 2853 4666 3247 4331 
Q 3641 3997 3641 3322 
Q 3641 2881 3436 2590 
Q 3231 2300 2841 2188 
z
M 1259 4147 
L 1259 2491 
L 2053 2491 
Q 2509 2491 2742 2702 
Q 2975 2913 2975 3322 
Q 2975 3731 2742 3939 
Q 2509 4147 2053 4147 
L 1259 4147 
z
" transform="scale(0.015625)"/>
       <path id="DejaVuSans-4f" d="M 2522 4238 
Q 1834 4238 1429 3725 
Q 1025 3213 1025 2328 
Q 1025 1447 1429 934 
Q 1834 422 2522 422 
Q 3209 422 3611 934 
Q 4013 1447 4013 2328 
Q 4013 3213 3611 3725 
Q 3209 4238 2522 4238 
z
M 2522 4750 
Q 3503 4750 4090 4092 
Q 4678 3434 4678 2328 
Q 4678 1225 4090 567 
Q 3503 -91 2522 -91 
Q 1538 -91 948 565 
Q 359 1222 359 2328 
Q 359 3434 948 4092 
Q 1538 4750 2522 4750 
z
" transform="scale(0.015625)"/>
       <path id="DejaVuSans-49" d="M 628 4666 
L 1259 4666 
L 1259 0 
L 628 0 
L 628 4666 
z
" transform="scale(0.015625)"/>
       <path id="DejaVuSans-28" d="M 1984 4856 
Q 1566 4138 1362 3434 
Q 1159 2731 1159 2009 
Q 1159 1288 1364 580 
Q 1569 -128 1984 -844 
L 1484 -844 
Q 1016 -109 783 600 
Q 550 1309 550 2009 
Q 550 2706 781 3412 
Q 1013 4119 1484 4856 
L 1984 4856 
z
" transform="scale(0.015625)"/>
       <path id="DejaVuSans-Oblique-3c3" d="M 2219 3044 
Q 1744 3044 1422 2700 
Q 1081 2341 969 1747 
Q 844 1119 1044 756 
Q 1241 397 1706 397 
Q 2166 397 2503 759 
Q 2844 1122 2966 1747 
Q 3075 2319 2881 2700 
Q 2700 3044 2219 3044 
z
M 2309 3503 
L 4219 3500 
L 4106 2925 
L 3463 2925 
Q 3706 2438 3575 1747 
Q 3406 888 2884 400 
Q 2359 -91 1609 -91 
Q 856 -91 525 400 
Q 194 888 363 1747 
Q 528 2609 1050 3097 
Q 1484 3503 2309 3503 
z
" transform="scale(0.015625)"/>
       <path id="DejaVuSans-29" d="M 513 4856 
L 1013 4856 
Q 1481 4119 1714 3412 
Q 1947 2706 1947 2009 
Q 1947 1309 1714 600 
Q 1481 -109 1013 -844 
L 513 -844 
Q 928 -128 1133 580 
Q 1338 1288 1338 2009 
Q 1338 2731 1133 3434 
Q 928 4138 513 4856 
z
" transform="scale(0.015625)"/>
      </defs>
      <use xlink:href="#DejaVuSans-72" transform="translate(0 0.015625)"/>
      <use xlink:href="#DejaVuSans-65" transform="translate(41.113281 0.015625)"/>
      <use xlink:href="#DejaVuSans-6c" transform="translate(102.636719 0.015625)"/>
      <use xlink:href="#DejaVuSans-61" transform="translate(130.419922 0.015625)"/>
      <use xlink:href="#DejaVuSans-74" transform="translate(191.699219 0.015625)"/>
      <use xlink:href="#DejaVuSans-69" transform="translate(230.908203 0.015625)"/>
      <use xlink:href="#DejaVuSans-76" transform="translate(258.691406 0.015625)"/>
      <use xlink:href="#DejaVuSans-65" transform="translate(317.871094 0.015625)"/>
      <use xlink:href="#DejaVuSans-20" transform="translate(379.394531 0.015625)"/>
      <use xlink:href="#DejaVuSans-64" transform="translate(411.181641 0.015625)"/>
      <use xlink:href="#DejaVuSans-69" transform="translate(474.658203 0.015625)"/>
      <use xlink:href="#DejaVuSans-73" transform="translate(502.441406 0.015625)"/>
      <use xlink:href="#DejaVuSans-74" transform="translate(554.541016 0.015625)"/>
      <use xlink:href="#DejaVuSans-61" transform="translate(593.75 0.015625)"/>
      <use xlink:href="#DejaVuSans-6e" transform="translate(655.029297 0.015625)"/>
      <use xlink:href="#DejaVuSans-63" transform="translate(718.408203 0.015625)"/>
      <use xlink:href="#DejaVuSans-65" transform="translate(773.388672 0.015625)"/>
      <use xlink:href="#DejaVuSans-20" transform="translate(834.912109 0.015625)"/>
      <use xlink:href="#DejaVuSans-66" transform="translate(866.699219 0.015625)"/>
      <use xlink:href="#DejaVuSans-72" transform="translate(901.904297 0.015625)"/>
      <use xlink:href="#DejaVuSans-6f" transform="translate(943.017578 0.015625)"/>
      <use xlink:href="#DejaVuSans-6d" transform="translate(1004.199219 0.015625)"/>
      <use xlink:href="#DejaVuSans-20" transform="translate(1101.611328 0.015625)"/>
      <use xlink:href="#DejaVuSans-52" transform="translate(1133.398438 0.015625)"/>
      <use xlink:href="#DejaVuSans-4f" transform="translate(1202.880859 0.015625)"/>
      <use xlink:href="#DejaVuSans-49" transform="translate(1281.591797 0.015625)"/>
      <use xlink:href="#DejaVuSans-20" transform="translate(1311.083984 0.015625)"/>
      <use xlink:href="#DejaVuSans-63" transform="translate(1342.871094 0.015625)"/>
      <use xlink:href="#DejaVuSans-65" transform="translate(1397.851562 0.015625)"/>
      <use xlink:href="#DejaVuSans-6e" transform="translate(1459.375 0.015625)"/>
      <use xlink:href="#DejaVuSans-74" transform="translate(1522.753906 0.015625)"/>
      <use xlink:href="#DejaVuSans-65" transform="translate(1561.962891 0.015625)"/>
      <use xlink:href="#DejaVuSans-72" transform="translate(1623.486328 0.015625)"/>
      <use xlink:href="#DejaVuSans-20" transform="translate(1664.599609 0.015625)"/>
      <use xlink:href="#DejaVuSans-28" transform="translate(1696.386719 0.015625)"/>
      <use xlink:href="#DejaVuSans-Oblique-3c3" transform="translate(1735.400391 0.015625)"/>
      <use xlink:href="#DejaVuSans-29" transform="translate(1798.779297 0.015625)"/>
     </g>
    </g>
   </g>
   <g id="matplotlib.axis_2">
    <g id="ytick_1">
     <g id="line2d_6">
      <defs>
       <path id="m90d4b739a8" d="M 0 0 
L -3.5 0 
" style="stroke: #000000; stroke-width: 0.8"/>
      </defs>
      <g>
       <use xlink:href="#m90d4b739a8" x="46" y="376.094118" style="stroke: #000000; stroke-width: 0.8"/>
      </g>
     </g>
     <g id="text_7">
      <!-- 0 -->
      <g transform="translate(32.6375 379.893336) scale(0.1 -0.1)">
       <use xlink:href="#DejaVuSans-30"/>
      </g>
     </g>
    </g>
    <g id="ytick_2">
     <g id="line2d_7">
      <g>
       <use xlink:href="#m90d4b739a8" x="46" y="350.682353" style="stroke: #000000; stroke-width: 0.8"/>
      </g>
     </g>
     <g id="text_8">
      <!-- 2 -->
      <g transform="translate(32.6375 354.481572) scale(0.1 -0.1)">
       <use xlink:href="#DejaVuSans-32"/>
      </g>
     </g>
    </g>
    <g id="ytick_3">
     <g id="line2d_8">
      <g>
       <use xlink:href="#m90d4b739a8" x="46" y="325.270588" style="stroke: #000000; stroke-width: 0.8"/>
      </g>
     </g>
     <g id="text_9">
      <!-- 4 -->
      <g transform="translate(32.6375 329.069807) scale(0.1 -0.1)">
       <use xlink:href="#DejaVuSans-34"/>
      </g>
     </g>
    </g>
    <g id="ytick_4">
     <g id="line2d_9">
      <g>
       <use xlink:href="#m90d4b739a8" x="46" y="299.858824" style="stroke: #000000; stroke-width: 0.8"/>
      </g>
     </g>
     <g id="text_10">
      <!-- 6 -->
      <g transform="translate(32.6375 303.658042) scale(0.1 -0.1)">
       <defs>
        <path id="DejaVuSans-36" d="M 2113 2584 
Q 1688 2584 1439 2293 
Q 1191 2003 1191 1497 
Q 1191 994 1439 701 
Q 1688 409 2113 409 
Q 2538 409 2786 701 
Q 3034 994 3034 1497 
Q 3034 2003 2786 2293 
Q 2538 2584 2113 2584 
z
M 3366 4563 
L 3366 3988 
Q 3128 4100 2886 4159 
Q 2644 4219 2406 4219 
Q 1781 4219 1451 3797 
Q 1122 3375 1075 2522 
Q 1259 2794 1537 2939 
Q 1816 3084 2150 3084 
Q 2853 3084 3261 2657 
Q 3669 2231 3669 1497 
Q 3669 778 3244 343 
Q 2819 -91 2113 -91 
Q 1303 -91 875 529 
Q 447 1150 447 2328 
Q 447 3434 972 4092 
Q 1497 4750 2381 4750 
Q 2619 4750 2861 4703 
Q 3103 4656 3366 4563 
z
" transform="scale(0.015625)"/>
       </defs>
       <use xlink:href="#DejaVuSans-36"/>
      </g>
     </g>
    </g>
    <g id="text_11">
     <!-- BOLD % change -->
     <g transform="translate(26.141875 383.094375) rotate(-90) scale(0.12 -0.12)">
      <defs>
       <path id="DejaVuSans-42" d="M 1259 2228 
L 1259 519 
L 2272 519 
Q 2781 519 3026 730 
Q 3272 941 3272 1375 
Q 3272 1813 3026 2020 
Q 2781 2228 2272 2228 
L 1259 2228 
z
M 1259 4147 
L 1259 2741 
L 2194 2741 
Q 2656 2741 2882 2914 
Q 3109 3088 3109 3444 
Q 3109 3797 2882 3972 
Q 2656 4147 2194 4147 
L 1259 4147 
z
M 628 4666 
L 2241 4666 
Q 2963 4666 3353 4366 
Q 3744 4066 3744 3513 
Q 3744 3084 3544 2831 
Q 3344 2578 2956 2516 
Q 3422 2416 3680 2098 
Q 3938 1781 3938 1306 
Q 3938 681 3513 340 
Q 3088 0 2303 0 
L 628 0 
L 628 4666 
z
" transform="scale(0.015625)"/>
       <path id="DejaVuSans-4c" d="M 628 4666 
L 1259 4666 
L 1259 531 
L 3531 531 
L 3531 0 
L 628 0 
L 628 4666 
z
" transform="scale(0.015625)"/>
       <path id="DejaVuSans-44" d="M 1259 4147 
L 1259 519 
L 2022 519 
Q 2988 519 3436 956 
Q 3884 1394 3884 2338 
Q 3884 3275 3436 3711 
Q 2988 4147 2022 4147 
L 1259 4147 
z
M 628 4666 
L 1925 4666 
Q 3281 4666 3915 4102 
Q 4550 3538 4550 2338 
Q 4550 1131 3912 565 
Q 3275 0 1925 0 
L 628 0 
L 628 4666 
z
" transform="scale(0.015625)"/>
       <path id="DejaVuSans-25" d="M 4653 2053 
Q 4381 2053 4226 1822 
Q 4072 1591 4072 1178 
Q 4072 772 4226 539 
Q 4381 306 4653 306 
Q 4919 306 5073 539 
Q 5228 772 5228 1178 
Q 5228 1588 5073 1820 
Q 4919 2053 4653 2053 
z
M 4653 2450 
Q 5147 2450 5437 2106 
Q 5728 1763 5728 1178 
Q 5728 594 5436 251 
Q 5144 -91 4653 -91 
Q 4153 -91 3862 251 
Q 3572 594 3572 1178 
Q 3572 1766 3864 2108 
Q 4156 2450 4653 2450 
z
M 1428 4353 
Q 1159 4353 1004 4120 
Q 850 3888 850 3481 
Q 850 3069 1003 2837 
Q 1156 2606 1428 2606 
Q 1700 2606 1854 2837 
Q 2009 3069 2009 3481 
Q 2009 3884 1853 4118 
Q 1697 4353 1428 4353 
z
M 4250 4750 
L 4750 4750 
L 1831 -91 
L 1331 -91 
L 4250 4750 
z
M 1428 4750 
Q 1922 4750 2215 4408 
Q 2509 4066 2509 3481 
Q 2509 2891 2217 2550 
Q 1925 2209 1428 2209 
Q 931 2209 642 2551 
Q 353 2894 353 3481 
Q 353 4063 643 4406 
Q 934 4750 1428 4750 
z
" transform="scale(0.015625)"/>
       <path id="DejaVuSans-68" d="M 3513 2113 
L 3513 0 
L 2938 0 
L 2938 2094 
Q 2938 2591 2744 2837 
Q 2550 3084 2163 3084 
Q 1697 3084 1428 2787 
Q 1159 2491 1159 1978 
L 1159 0 
L 581 0 
L 581 4863 
L 1159 4863 
L 1159 2956 
Q 1366 3272 1645 3428 
Q 1925 3584 2291 3584 
Q 2894 3584 3203 3211 
Q 3513 2838 3513 2113 
z
" transform="scale(0.015625)"/>
       <path id="DejaVuSans-67" d="M 2906 1791 
Q 2906 2416 2648 2759 
Q 2391 3103 1925 3103 
Q 1463 3103 1205 2759 
Q 947 2416 947 1791 
Q 947 1169 1205 825 
Q 1463 481 1925 481 
Q 2391 481 2648 825 
Q 2906 1169 2906 1791 
z
M 3481 434 
Q 3481 -459 3084 -895 
Q 2688 -1331 1869 -1331 
Q 1566 -1331 1297 -1286 
Q 1028 -1241 775 -1147 
L 775 -588 
Q 1028 -725 1275 -790 
Q 1522 -856 1778 -856 
Q 2344 -856 2625 -561 
Q 2906 -266 2906 331 
L 2906 616 
Q 2728 306 2450 153 
Q 2172 0 1784 0 
Q 1141 0 747 490 
Q 353 981 353 1791 
Q 353 2603 747 3093 
Q 1141 3584 1784 3584 
Q 2172 3584 2450 3431 
Q 2728 3278 2906 2969 
L 2906 3500 
L 3481 3500 
L 3481 434 
z
" transform="scale(0.015625)"/>
      </defs>
      <use xlink:href="#DejaVuSans-42"/>
      <use xlink:href="#DejaVuSans-4f" x="66.853516"/>
      <use xlink:href="#DejaVuSans-4c" x="145.564453"/>
      <use xlink:href="#DejaVuSans-44" x="201.277344"/>
      <use xlink:href="#DejaVuSans-20" x="278.279297"/>
      <use xlink:href="#DejaVuSans-25" x="310.066406"/>
      <use xlink:href="#DejaVuSans-20" x="405.085938"/>
      <use xlink:href="#DejaVuSans-63" x="436.873047"/>
      <use xlink:href="#DejaVuSans-68" x="491.853516"/>
      <use xlink:href="#DejaVuSans-61" x="555.232422"/>
      <use xlink:href="#DejaVuSans-6e" x="616.511719"/>
      <use xlink:href="#DejaVuSans-67" x="679.890625"/>
      <use xlink:href="#DejaVuSans-65" x="743.367188"/>
     </g>
    </g>
   </g>
   <g id="line2d_10">
    <path d="M 180 388.8 
L 180 280.8 
" clip-path="url(#p408d3b8255)" style="fill: none; stroke-dasharray: 5.55,2.4; stroke-dashoffset: 0; stroke: #4c4c4c; stroke-width: 1.5"/>
   </g>
   <g id="LineCollection_1">
    <path d="M 65.454545 376.094118 
L 294.545455 376.094118 
" clip-path="url(#p408d3b8255)" style="fill: none; stroke-dasharray: 5.55,2.4; stroke-dashoffset: 0; stroke: #4c4c4c; stroke-width: 1.5"/>
   </g>
   <g id="line2d_11">
    <path d="M 65.454545 345.168688 
L 70.12987 345.168688 
L 74.805195 345.152108 
L 79.480519 344.775021 
L 84.155844 344.453864 
L 88.831169 344.6565 
L 93.506494 344.721649 
L 98.181818 344.7375 
L 102.857143 344.608625 
L 107.532468 344.41178 
L 112.207792 344.470654 
L 116.883117 344.331659 
L 121.558442 343.835745 
L 126.233766 343.286606 
L 130.909091 342.982515 
L 135.584416 342.752883 
L 140.25974 342.325152 
L 144.935065 342.033206 
L 149.61039 341.755913 
L 154.285714 341.503865 
L 158.961039 341.222757 
L 163.636364 340.875372 
L 168.311688 340.617308 
L 172.987013 340.331052 
L 177.662338 340.061904 
L 182.337662 339.884735 
L 187.012987 339.584076 
L 191.688312 339.304558 
L 196.363636 339.037103 
L 201.038961 338.982099 
L 205.714286 338.919126 
L 210.38961 338.805864 
L 215.064935 338.756381 
L 219.74026 338.594572 
L 224.415584 338.417226 
L 229.090909 338.18372 
L 233.766234 337.781567 
L 238.441558 337.496355 
L 243.116883 337.334649 
L 247.792208 337.232891 
L 252.467532 337.179195 
L 257.142857 337.525652 
L 261.818182 337.744786 
L 266.493506 338.25595 
L 271.168831 338.711227 
L 275.844156 338.93492 
L 280.519481 338.917834 
L 285.194805 338.821127 
L 289.87013 338.872501 
L 294.545455 338.937082 
" clip-path="url(#p408d3b8255)" style="fill: none; stroke: #ffa500; stroke-width: 1.5; stroke-linecap: square"/>
   </g>
   <g id="line2d_12">
    <defs>
     <path id="m940156b402" d="M 2.896197 -1.24666 
L 0.591984 -0.001028 
L 2.896197 1.252826 
L 2.524152 1.881809 
L 0.365879 0.578623 
L 0.365879 3 
L -0.365879 3 
L -0.365879 0.578623 
L -2.524152 1.881809 
L -2.896197 1.252826 
L -0.589928 -0.001028 
L -2.896197 -1.24666 
L -2.524152 -1.881809 
L -0.365879 -0.578623 
L -0.365879 -3 
L 0.365879 -3 
L 0.365879 -0.578623 
L 2.524152 -1.881809 
L 2.896197 -1.24666 
z
" style="stroke: #000000"/>
    </defs>
    <g clip-path="url(#p408d3b8255)">
     <use xlink:href="#m940156b402" x="103.636364" y="289.694118" style="stroke: #000000"/>
     <use xlink:href="#m940156b402" x="180" y="289.694118" style="stroke: #000000"/>
     <use xlink:href="#m940156b402" x="256.363636" y="289.694118" style="stroke: #000000"/>
    </g>
   </g>
   <g id="LineCollection_2">
    <path d="M 65.454545 388.8 
L 65.454545 350.682353 
" clip-path="url(#p408d3b8255)" style="fill: none; stroke-dasharray: 1.5,2.475; stroke-dashoffset: 0; stroke: #1f77b4; stroke-opacity: 0.3; stroke-width: 1.5"/>
    <path d="M 141.818182 388.8 
L 141.818182 350.682353 
" clip-path="url(#p408d3b8255)" style="fill: none; stroke-dasharray: 1.5,2.475; stroke-dashoffset: 0; stroke: #1f77b4; stroke-opacity: 0.3; stroke-width: 1.5"/>
    <path d="M 218.181818 388.8 
L 218.181818 350.682353 
" clip-path="url(#p408d3b8255)" style="fill: none; stroke-dasharray: 1.5,2.475; stroke-dashoffset: 0; stroke: #1f77b4; stroke-opacity: 0.3; stroke-width: 1.5"/>
    <path d="M 294.545455 388.8 
L 294.545455 350.682353 
" clip-path="url(#p408d3b8255)" style="fill: none; stroke-dasharray: 1.5,2.475; stroke-dashoffset: 0; stroke: #1f77b4; stroke-opacity: 0.3; stroke-width: 1.5"/>
   </g>
   <g id="LineCollection_3">
    <path d="M 103.636364 345.327279 
L 103.636364 342.058348 
" clip-path="url(#p408d3b8255)" style="fill: none; stroke: #1f77b4; stroke-width: 1.5"/>
    <path d="M 180 342.393922 
L 180 339.262275 
" clip-path="url(#p408d3b8255)" style="fill: none; stroke: #1f77b4; stroke-width: 1.5"/>
    <path d="M 256.363636 343.259686 
L 256.363636 338.565756 
" clip-path="url(#p408d3b8255)" style="fill: none; stroke: #1f77b4; stroke-width: 1.5"/>
   </g>
   <g id="line2d_13">
    <defs>
     <path id="mabca3e68a9" d="M 0 3 
C 0.795609 3 1.55874 2.683901 2.12132 2.12132 
C 2.683901 1.55874 3 0.795609 3 0 
C 3 -0.795609 2.683901 -1.55874 2.12132 -2.12132 
C 1.55874 -2.683901 0.795609 -3 0 -3 
C -0.795609 -3 -1.55874 -2.683901 -2.12132 -2.12132 
C -2.683901 -1.55874 -3 -0.795609 -3 0 
C -3 0.795609 -2.683901 1.55874 -2.12132 2.12132 
C -1.55874 2.683901 -0.795609 3 0 3 
z
" style="stroke: #1f77b4"/>
    </defs>
    <g clip-path="url(#p408d3b8255)">
     <use xlink:href="#mabca3e68a9" x="103.636364" y="343.692814" style="fill: #1f77b4; stroke: #1f77b4"/>
     <use xlink:href="#mabca3e68a9" x="180" y="340.828098" style="fill: #1f77b4; stroke: #1f77b4"/>
     <use xlink:href="#mabca3e68a9" x="256.363636" y="340.912721" style="fill: #1f77b4; stroke: #1f77b4"/>
    </g>
   </g>
   <g id="patch_3">
    <path d="M 46 388.8 
L 46 280.8 
" style="fill: none; stroke: #000000; stroke-width: 0.8; stroke-linejoin: miter; stroke-linecap: square"/>
   </g>
   <g id="patch_4">
    <path d="M 54 396.8 
L 306 396.8 
" style="fill: none; stroke: #000000; stroke-width: 0.8; stroke-linejoin: miter; stroke-linecap: square"/>
   </g>
  </g>
  <g id="axes_2">
   <g id="patch_5">
    <path d="M 54 259.2 
L 306 259.2 
L 306 151.2 
L 54 151.2 
z
" style="fill: #ffffff"/>
   </g>
   <g id="PolyCollection_2">
    <defs>
     <path id="m3a42035453" d="M 65.454545 -232.938622 
L 65.454545 -226.34786 
L 70.12987 -226.234333 
L 74.805195 -226.148692 
L 79.480519 -225.857152 
L 84.155844 -225.667101 
L 88.831169 -225.650769 
L 93.506494 -225.832223 
L 98.181818 -226.072372 
L 102.857143 -225.984319 
L 107.532468 -226.009039 
L 112.207792 -226.246409 
L 116.883117 -226.380597 
L 121.558442 -226.545306 
L 126.233766 -227.073332 
L 130.909091 -227.491553 
L 135.584416 -227.902476 
L 140.25974 -228.475523 
L 144.935065 -228.71814 
L 149.61039 -228.905871 
L 154.285714 -229.087536 
L 158.961039 -229.390478 
L 163.636364 -229.655428 
L 168.311688 -229.95577 
L 172.987013 -230.269683 
L 177.662338 -230.546 
L 182.337662 -230.614693 
L 187.012987 -230.670527 
L 191.688312 -230.696148 
L 196.363636 -230.844392 
L 201.038961 -230.925007 
L 205.714286 -230.855194 
L 210.38961 -230.834567 
L 215.064935 -230.517763 
L 219.74026 -230.153801 
L 224.415584 -229.970687 
L 229.090909 -229.852076 
L 233.766234 -229.704635 
L 238.441558 -229.46026 
L 243.116883 -229.143155 
L 247.792208 -228.877476 
L 252.467532 -228.42165 
L 257.142857 -227.95774 
L 261.818182 -227.4941 
L 266.493506 -227.194771 
L 271.168831 -226.983425 
L 275.844156 -226.904231 
L 280.519481 -226.79253 
L 285.194805 -226.629359 
L 289.87013 -226.480354 
L 294.545455 -226.480853 
L 294.545455 -240.557544 
L 294.545455 -240.557544 
L 289.87013 -241.00795 
L 285.194805 -241.772341 
L 280.519481 -242.861081 
L 275.844156 -244.190441 
L 271.168831 -245.661036 
L 266.493506 -246.963276 
L 261.818182 -247.774294 
L 257.142857 -248.662449 
L 252.467532 -249.552793 
L 247.792208 -249.888023 
L 243.116883 -249.434935 
L 238.441558 -248.716833 
L 233.766234 -247.850822 
L 229.090909 -246.983021 
L 224.415584 -245.821276 
L 219.74026 -244.5314 
L 215.064935 -243.964898 
L 210.38961 -243.516026 
L 205.714286 -242.731169 
L 201.038961 -242.297006 
L 196.363636 -241.832534 
L 191.688312 -241.376308 
L 187.012987 -241.363826 
L 182.337662 -241.329644 
L 177.662338 -241.245692 
L 172.987013 -240.98111 
L 168.311688 -240.589668 
L 163.636364 -239.689366 
L 158.961039 -238.770983 
L 154.285714 -237.945712 
L 149.61039 -236.904864 
L 144.935065 -235.760754 
L 140.25974 -234.585514 
L 135.584416 -232.970548 
L 130.909091 -232.027619 
L 126.233766 -231.233972 
L 121.558442 -230.479364 
L 116.883117 -230.569864 
L 112.207792 -230.752743 
L 107.532468 -230.818758 
L 102.857143 -230.981026 
L 98.181818 -231.40392 
L 93.506494 -231.621317 
L 88.831169 -231.849734 
L 84.155844 -231.963634 
L 79.480519 -232.202272 
L 74.805195 -232.732072 
L 70.12987 -232.823949 
L 65.454545 -232.938622 
z
"/>
    </defs>
    <g clip-path="url(#pea64387236)">
     <use xlink:href="#m3a42035453" x="0" y="432" style="fill: #ffa500; fill-opacity: 0.4"/>
    </g>
   </g>
   <g id="matplotlib.axis_3">
    <g id="xtick_6">
     <g id="line2d_14">
      <g>
       <use xlink:href="#ma71e4fd7c8" x="65.454545" y="267.2" style="stroke: #000000; stroke-width: 0.8"/>
      </g>
     </g>
    </g>
    <g id="xtick_7">
     <g id="line2d_15">
      <g>
       <use xlink:href="#ma71e4fd7c8" x="122.727273" y="267.2" style="stroke: #000000; stroke-width: 0.8"/>
      </g>
     </g>
    </g>
    <g id="xtick_8">
     <g id="line2d_16">
      <g>
       <use xlink:href="#ma71e4fd7c8" x="180" y="267.2" style="stroke: #000000; stroke-width: 0.8"/>
      </g>
     </g>
    </g>
    <g id="xtick_9">
     <g id="line2d_17">
      <g>
       <use xlink:href="#ma71e4fd7c8" x="237.272727" y="267.2" style="stroke: #000000; stroke-width: 0.8"/>
      </g>
     </g>
    </g>
    <g id="xtick_10">
     <g id="line2d_18">
      <g>
       <use xlink:href="#ma71e4fd7c8" x="294.545455" y="267.2" style="stroke: #000000; stroke-width: 0.8"/>
      </g>
     </g>
    </g>
   </g>
   <g id="matplotlib.axis_4">
    <g id="ytick_5">
     <g id="line2d_19">
      <g>
       <use xlink:href="#m90d4b739a8" x="46" y="246.494118" style="stroke: #000000; stroke-width: 0.8"/>
      </g>
     </g>
     <g id="text_12">
      <!-- 0 -->
      <g transform="translate(32.6375 250.293336) scale(0.1 -0.1)">
       <use xlink:href="#DejaVuSans-30"/>
      </g>
     </g>
    </g>
    <g id="ytick_6">
     <g id="line2d_20">
      <g>
       <use xlink:href="#m90d4b739a8" x="46" y="221.082353" style="stroke: #000000; stroke-width: 0.8"/>
      </g>
     </g>
     <g id="text_13">
      <!-- 2 -->
      <g transform="translate(32.6375 224.881572) scale(0.1 -0.1)">
       <use xlink:href="#DejaVuSans-32"/>
      </g>
     </g>
    </g>
    <g id="ytick_7">
     <g id="line2d_21">
      <g>
       <use xlink:href="#m90d4b739a8" x="46" y="195.670588" style="stroke: #000000; stroke-width: 0.8"/>
      </g>
     </g>
     <g id="text_14">
      <!-- 4 -->
      <g transform="translate(32.6375 199.469807) scale(0.1 -0.1)">
       <use xlink:href="#DejaVuSans-34"/>
      </g>
     </g>
    </g>
    <g id="ytick_8">
     <g id="line2d_22">
      <g>
       <use xlink:href="#m90d4b739a8" x="46" y="170.258824" style="stroke: #000000; stroke-width: 0.8"/>
      </g>
     </g>
     <g id="text_15">
      <!-- 6 -->
      <g transform="translate(32.6375 174.058042) scale(0.1 -0.1)">
       <use xlink:href="#DejaVuSans-36"/>
      </g>
     </g>
    </g>
    <g id="text_16">
     <!-- BOLD % change -->
     <g transform="translate(26.141875 253.494375) rotate(-90) scale(0.12 -0.12)">
      <use xlink:href="#DejaVuSans-42"/>
      <use xlink:href="#DejaVuSans-4f" x="66.853516"/>
      <use xlink:href="#DejaVuSans-4c" x="145.564453"/>
      <use xlink:href="#DejaVuSans-44" x="201.277344"/>
      <use xlink:href="#DejaVuSans-20" x="278.279297"/>
      <use xlink:href="#DejaVuSans-25" x="310.066406"/>
      <use xlink:href="#DejaVuSans-20" x="405.085938"/>
      <use xlink:href="#DejaVuSans-63" x="436.873047"/>
      <use xlink:href="#DejaVuSans-68" x="491.853516"/>
      <use xlink:href="#DejaVuSans-61" x="555.232422"/>
      <use xlink:href="#DejaVuSans-6e" x="616.511719"/>
      <use xlink:href="#DejaVuSans-67" x="679.890625"/>
      <use xlink:href="#DejaVuSans-65" x="743.367188"/>
     </g>
    </g>
   </g>
   <g id="line2d_23">
    <path d="M 180 259.2 
L 180 151.2 
" clip-path="url(#pea64387236)" style="fill: none; stroke-dasharray: 5.55,2.4; stroke-dashoffset: 0; stroke: #4c4c4c; stroke-width: 1.5"/>
   </g>
   <g id="LineCollection_4">
    <path d="M 65.454545 246.494118 
L 294.545455 246.494118 
" clip-path="url(#pea64387236)" style="fill: none; stroke-dasharray: 5.55,2.4; stroke-dashoffset: 0; stroke: #4c4c4c; stroke-width: 1.5"/>
   </g>
   <g id="line2d_24">
    <path d="M 65.454545 202.356759 
L 70.12987 202.470859 
L 74.805195 202.559618 
L 79.480519 202.970288 
L 84.155844 203.184633 
L 88.831169 203.249748 
L 93.506494 203.27323 
L 98.181818 203.261854 
L 102.857143 203.517327 
L 107.532468 203.586102 
L 112.207792 203.500424 
L 116.883117 203.52477 
L 121.558442 203.487665 
L 126.233766 202.846348 
L 130.909091 202.240414 
L 135.584416 201.563488 
L 140.25974 200.469482 
L 144.935065 199.760553 
L 149.61039 199.094633 
L 154.285714 198.483376 
L 158.961039 197.91927 
L 163.636364 197.327603 
L 168.311688 196.727281 
L 172.987013 196.374603 
L 177.662338 196.104154 
L 182.337662 196.027831 
L 187.012987 195.982824 
L 191.688312 195.963772 
L 196.363636 195.661537 
L 201.038961 195.388993 
L 205.714286 195.206819 
L 210.38961 194.824703 
L 215.064935 194.758669 
L 219.74026 194.6574 
L 224.415584 194.104019 
L 229.090909 193.582452 
L 233.766234 193.222272 
L 238.441558 192.911454 
L 243.116883 192.710955 
L 247.792208 192.617251 
L 252.467532 193.012778 
L 257.142857 193.689906 
L 261.818182 194.365803 
L 266.493506 194.920976 
L 271.168831 195.67777 
L 275.844156 196.452664 
L 280.519481 197.173194 
L 285.194805 197.79915 
L 289.87013 198.255848 
L 294.545455 198.480801 
" clip-path="url(#pea64387236)" style="fill: none; stroke: #ffa500; stroke-width: 1.5; stroke-linecap: square"/>
   </g>
   <g id="line2d_25">
    <g clip-path="url(#pea64387236)">
     <use xlink:href="#m940156b402" x="103.636364" y="160.094118" style="stroke: #000000"/>
     <use xlink:href="#m940156b402" x="180" y="160.094118" style="stroke: #000000"/>
     <use xlink:href="#m940156b402" x="256.363636" y="160.094118" style="stroke: #000000"/>
    </g>
   </g>
   <g id="LineCollection_5">
    <path d="M 65.454545 259.2 
L 65.454545 221.082353 
" clip-path="url(#pea64387236)" style="fill: none; stroke-dasharray: 1.5,2.475; stroke-dashoffset: 0; stroke: #1f77b4; stroke-opacity: 0.3; stroke-width: 1.5"/>
    <path d="M 141.818182 259.2 
L 141.818182 221.082353 
" clip-path="url(#pea64387236)" style="fill: none; stroke-dasharray: 1.5,2.475; stroke-dashoffset: 0; stroke: #1f77b4; stroke-opacity: 0.3; stroke-width: 1.5"/>
    <path d="M 218.181818 259.2 
L 218.181818 221.082353 
" clip-path="url(#pea64387236)" style="fill: none; stroke-dasharray: 1.5,2.475; stroke-dashoffset: 0; stroke: #1f77b4; stroke-opacity: 0.3; stroke-width: 1.5"/>
    <path d="M 294.545455 259.2 
L 294.545455 221.082353 
" clip-path="url(#pea64387236)" style="fill: none; stroke-dasharray: 1.5,2.475; stroke-dashoffset: 0; stroke: #1f77b4; stroke-opacity: 0.3; stroke-width: 1.5"/>
   </g>
   <g id="LineCollection_6">
    <path d="M 103.636364 202.024093 
L 103.636364 193.372669 
" clip-path="url(#pea64387236)" style="fill: none; stroke: #1f77b4; stroke-width: 1.5"/>
    <path d="M 180 197.451912 
L 180 191.855445 
" clip-path="url(#pea64387236)" style="fill: none; stroke: #1f77b4; stroke-width: 1.5"/>
    <path d="M 256.363636 200.616195 
L 256.363636 192.020545 
" clip-path="url(#pea64387236)" style="fill: none; stroke: #1f77b4; stroke-width: 1.5"/>
   </g>
   <g id="line2d_26">
    <g clip-path="url(#pea64387236)">
     <use xlink:href="#mabca3e68a9" x="103.636364" y="197.698381" style="fill: #1f77b4; stroke: #1f77b4"/>
     <use xlink:href="#mabca3e68a9" x="180" y="194.653678" style="fill: #1f77b4; stroke: #1f77b4"/>
     <use xlink:href="#mabca3e68a9" x="256.363636" y="196.31837" style="fill: #1f77b4; stroke: #1f77b4"/>
    </g>
   </g>
   <g id="patch_6">
    <path d="M 46 259.2 
L 46 151.2 
" style="fill: none; stroke: #000000; stroke-width: 0.8; stroke-linejoin: miter; stroke-linecap: square"/>
   </g>
   <g id="patch_7">
    <path d="M 54 267.2 
L 306 267.2 
" style="fill: none; stroke: #000000; stroke-width: 0.8; stroke-linejoin: miter; stroke-linecap: square"/>
   </g>
   <g id="text_17">
    <!-- orth -->
    <g style="fill: #ffa500" transform="translate(265.909091 203.294118) scale(0.11 -0.11)">
     <use xlink:href="#DejaVuSans-6f"/>
     <use xlink:href="#DejaVuSans-72" x="61.181641"/>
     <use xlink:href="#DejaVuSans-74" x="102.294922"/>
     <use xlink:href="#DejaVuSans-68" x="141.503906"/>
    </g>
   </g>
  </g>
  <g id="axes_3">
   <g id="patch_8">
    <path d="M 54 129.6 
L 306 129.6 
L 306 21.6 
L 54 21.6 
z
" style="fill: #ffffff"/>
   </g>
   <g id="PolyCollection_3">
    <defs>
     <path id="me1db277c75" d="M 65.454545 -394.754046 
L 65.454545 -378.380103 
L 70.12987 -378.289114 
L 74.805195 -378.144882 
L 79.480519 -378.10955 
L 84.155844 -378.131606 
L 88.831169 -377.341529 
L 93.506494 -375.824224 
L 98.181818 -374.60987 
L 102.857143 -373.545148 
L 107.532468 -373.001013 
L 112.207792 -373.105857 
L 116.883117 -373.178196 
L 121.558442 -373.557947 
L 126.233766 -373.67548 
L 130.909091 -374.246368 
L 135.584416 -375.684543 
L 140.25974 -376.422603 
L 144.935065 -376.723575 
L 149.61039 -376.971304 
L 154.285714 -377.062951 
L 158.961039 -377.221959 
L 163.636364 -377.88227 
L 168.311688 -378.663437 
L 172.987013 -379.300132 
L 177.662338 -379.910708 
L 182.337662 -380.329513 
L 187.012987 -380.581657 
L 191.688312 -380.895054 
L 196.363636 -380.999363 
L 201.038961 -380.966021 
L 205.714286 -380.444946 
L 210.38961 -379.72314 
L 215.064935 -379.117353 
L 219.74026 -378.541261 
L 224.415584 -377.845243 
L 229.090909 -377.12833 
L 233.766234 -376.365744 
L 238.441558 -375.729279 
L 243.116883 -375.145911 
L 247.792208 -374.362001 
L 252.467532 -373.817505 
L 257.142857 -373.473091 
L 261.818182 -373.349826 
L 266.493506 -373.143583 
L 271.168831 -373.165706 
L 275.844156 -373.306631 
L 280.519481 -373.324739 
L 285.194805 -373.330171 
L 289.87013 -373.146066 
L 294.545455 -373.26568 
L 294.545455 -395.58642 
L 294.545455 -395.58642 
L 289.87013 -395.896519 
L 285.194805 -397.006665 
L 280.519481 -397.560071 
L 275.844156 -397.837383 
L 271.168831 -397.593129 
L 266.493506 -397.494687 
L 261.818182 -397.439764 
L 257.142857 -397.182376 
L 252.467532 -397.747951 
L 247.792208 -398.426926 
L 243.116883 -399.50134 
L 238.441558 -400.285904 
L 233.766234 -400.279859 
L 229.090909 -401.097351 
L 224.415584 -402.508323 
L 219.74026 -403.270254 
L 215.064935 -403.857912 
L 210.38961 -404.834435 
L 205.714286 -405.960874 
L 201.038961 -406.574636 
L 196.363636 -405.993733 
L 191.688312 -404.630379 
L 187.012987 -402.511158 
L 182.337662 -400.881481 
L 177.662338 -399.321797 
L 172.987013 -397.207254 
L 168.311688 -394.925873 
L 163.636364 -393.346229 
L 158.961039 -392.239764 
L 154.285714 -391.818348 
L 149.61039 -391.171774 
L 144.935065 -390.06022 
L 140.25974 -388.947039 
L 135.584416 -387.699864 
L 130.909091 -386.161751 
L 126.233766 -385.651186 
L 121.558442 -385.804047 
L 116.883117 -385.535796 
L 112.207792 -385.673864 
L 107.532468 -386.064097 
L 102.857143 -387.232781 
L 98.181818 -388.923038 
L 93.506494 -390.402741 
L 88.831169 -392.064255 
L 84.155844 -393.436532 
L 79.480519 -393.784605 
L 74.805195 -394.030957 
L 70.12987 -394.499938 
L 65.454545 -394.754046 
z
"/>
    </defs>
    <g clip-path="url(#p2e3672728b)">
     <use xlink:href="#me1db277c75" x="0" y="432" style="fill: #ffa500; fill-opacity: 0.4"/>
    </g>
   </g>
   <g id="matplotlib.axis_5">
    <g id="xtick_11">
     <g id="line2d_27">
      <g>
       <use xlink:href="#ma71e4fd7c8" x="65.454545" y="137.6" style="stroke: #000000; stroke-width: 0.8"/>
      </g>
     </g>
    </g>
    <g id="xtick_12">
     <g id="line2d_28">
      <g>
       <use xlink:href="#ma71e4fd7c8" x="122.727273" y="137.6" style="stroke: #000000; stroke-width: 0.8"/>
      </g>
     </g>
    </g>
    <g id="xtick_13">
     <g id="line2d_29">
      <g>
       <use xlink:href="#ma71e4fd7c8" x="180" y="137.6" style="stroke: #000000; stroke-width: 0.8"/>
      </g>
     </g>
    </g>
    <g id="xtick_14">
     <g id="line2d_30">
      <g>
       <use xlink:href="#ma71e4fd7c8" x="237.272727" y="137.6" style="stroke: #000000; stroke-width: 0.8"/>
      </g>
     </g>
    </g>
    <g id="xtick_15">
     <g id="line2d_31">
      <g>
       <use xlink:href="#ma71e4fd7c8" x="294.545455" y="137.6" style="stroke: #000000; stroke-width: 0.8"/>
      </g>
     </g>
    </g>
   </g>
   <g id="matplotlib.axis_6">
    <g id="ytick_9">
     <g id="line2d_32">
      <g>
       <use xlink:href="#m90d4b739a8" x="46" y="116.894118" style="stroke: #000000; stroke-width: 0.8"/>
      </g>
     </g>
     <g id="text_18">
      <!-- 0 -->
      <g transform="translate(32.6375 120.693336) scale(0.1 -0.1)">
       <use xlink:href="#DejaVuSans-30"/>
      </g>
     </g>
    </g>
    <g id="ytick_10">
     <g id="line2d_33">
      <g>
       <use xlink:href="#m90d4b739a8" x="46" y="91.482353" style="stroke: #000000; stroke-width: 0.8"/>
      </g>
     </g>
     <g id="text_19">
      <!-- 2 -->
      <g transform="translate(32.6375 95.281572) scale(0.1 -0.1)">
       <use xlink:href="#DejaVuSans-32"/>
      </g>
     </g>
    </g>
    <g id="ytick_11">
     <g id="line2d_34">
      <g>
       <use xlink:href="#m90d4b739a8" x="46" y="66.070588" style="stroke: #000000; stroke-width: 0.8"/>
      </g>
     </g>
     <g id="text_20">
      <!-- 4 -->
      <g transform="translate(32.6375 69.869807) scale(0.1 -0.1)">
       <use xlink:href="#DejaVuSans-34"/>
      </g>
     </g>
    </g>
    <g id="ytick_12">
     <g id="line2d_35">
      <g>
       <use xlink:href="#m90d4b739a8" x="46" y="40.658824" style="stroke: #000000; stroke-width: 0.8"/>
      </g>
     </g>
     <g id="text_21">
      <!-- 6 -->
      <g transform="translate(32.6375 44.458042) scale(0.1 -0.1)">
       <use xlink:href="#DejaVuSans-36"/>
      </g>
     </g>
    </g>
    <g id="text_22">
     <!-- BOLD % change -->
     <g transform="translate(26.141875 123.894375) rotate(-90) scale(0.12 -0.12)">
      <use xlink:href="#DejaVuSans-42"/>
      <use xlink:href="#DejaVuSans-4f" x="66.853516"/>
      <use xlink:href="#DejaVuSans-4c" x="145.564453"/>
      <use xlink:href="#DejaVuSans-44" x="201.277344"/>
      <use xlink:href="#DejaVuSans-20" x="278.279297"/>
      <use xlink:href="#DejaVuSans-25" x="310.066406"/>
      <use xlink:href="#DejaVuSans-20" x="405.085938"/>
      <use xlink:href="#DejaVuSans-63" x="436.873047"/>
      <use xlink:href="#DejaVuSans-68" x="491.853516"/>
      <use xlink:href="#DejaVuSans-61" x="555.232422"/>
      <use xlink:href="#DejaVuSans-6e" x="616.511719"/>
      <use xlink:href="#DejaVuSans-67" x="679.890625"/>
      <use xlink:href="#DejaVuSans-65" x="743.367188"/>
     </g>
    </g>
   </g>
   <g id="line2d_36">
    <path d="M 180 129.6 
L 180 21.6 
" clip-path="url(#p2e3672728b)" style="fill: none; stroke-dasharray: 5.55,2.4; stroke-dashoffset: 0; stroke: #4c4c4c; stroke-width: 1.5"/>
   </g>
   <g id="LineCollection_7">
    <path d="M 65.454545 116.894118 
L 294.545455 116.894118 
" clip-path="url(#p2e3672728b)" style="fill: none; stroke-dasharray: 5.55,2.4; stroke-dashoffset: 0; stroke: #4c4c4c; stroke-width: 1.5"/>
   </g>
   <g id="line2d_37">
    <path d="M 65.454545 45.432926 
L 70.12987 45.605474 
L 74.805195 45.91208 
L 79.480519 46.052923 
L 84.155844 46.215931 
L 88.831169 47.297108 
L 93.506494 48.886517 
L 98.181818 50.233546 
L 102.857143 51.611036 
L 107.532468 52.467445 
L 112.207792 52.61014 
L 116.883117 52.643004 
L 121.558442 52.319003 
L 126.233766 52.336667 
L 130.909091 51.79594 
L 135.584416 50.307796 
L 140.25974 49.315179 
L 144.935065 48.608102 
L 149.61039 47.928461 
L 154.285714 47.55935 
L 158.961039 47.269138 
L 163.636364 46.38575 
L 168.311688 45.205345 
L 172.987013 43.746307 
L 177.662338 42.383747 
L 182.337662 41.394503 
L 187.012987 40.453593 
L 191.688312 39.237283 
L 196.363636 38.503452 
L 201.038961 38.229672 
L 205.714286 38.79709 
L 210.38961 39.721212 
L 215.064935 40.512367 
L 219.74026 41.094242 
L 224.415584 41.823217 
L 229.090909 42.88716 
L 233.766234 43.677198 
L 238.441558 43.992408 
L 243.116883 44.676375 
L 247.792208 45.605537 
L 252.467532 46.217272 
L 257.142857 46.672266 
L 261.818182 46.605205 
L 266.493506 46.680865 
L 271.168831 46.620582 
L 275.844156 46.427993 
L 280.519481 46.557595 
L 285.194805 46.831582 
L 289.87013 47.478708 
L 294.545455 47.57395 
" clip-path="url(#p2e3672728b)" style="fill: none; stroke: #ffa500; stroke-width: 1.5; stroke-linecap: square"/>
   </g>
   <g id="line2d_38">
    <g clip-path="url(#p2e3672728b)">
     <use xlink:href="#m940156b402" x="103.636364" y="30.494118" style="stroke: #000000"/>
     <use xlink:href="#m940156b402" x="180" y="30.494118" style="stroke: #000000"/>
     <use xlink:href="#m940156b402" x="256.363636" y="30.494118" style="stroke: #000000"/>
    </g>
   </g>
   <g id="LineCollection_8">
    <path d="M 65.454545 129.6 
L 65.454545 91.482353 
" clip-path="url(#p2e3672728b)" style="fill: none; stroke-dasharray: 1.5,2.475; stroke-dashoffset: 0; stroke: #1f77b4; stroke-opacity: 0.3; stroke-width: 1.5"/>
    <path d="M 141.818182 129.6 
L 141.818182 91.482353 
" clip-path="url(#p2e3672728b)" style="fill: none; stroke-dasharray: 1.5,2.475; stroke-dashoffset: 0; stroke: #1f77b4; stroke-opacity: 0.3; stroke-width: 1.5"/>
    <path d="M 218.181818 129.6 
L 218.181818 91.482353 
" clip-path="url(#p2e3672728b)" style="fill: none; stroke-dasharray: 1.5,2.475; stroke-dashoffset: 0; stroke: #1f77b4; stroke-opacity: 0.3; stroke-width: 1.5"/>
    <path d="M 294.545455 129.6 
L 294.545455 91.482353 
" clip-path="url(#p2e3672728b)" style="fill: none; stroke-dasharray: 1.5,2.475; stroke-dashoffset: 0; stroke: #1f77b4; stroke-opacity: 0.3; stroke-width: 1.5"/>
   </g>
   <g id="LineCollection_9">
    <path d="M 103.636364 50.776992 
L 103.636364 28.970007 
" clip-path="url(#p2e3672728b)" style="fill: none; stroke: #1f77b4; stroke-width: 1.5"/>
    <path d="M 180 47.050216 
L 180 37.113215 
" clip-path="url(#p2e3672728b)" style="fill: none; stroke: #1f77b4; stroke-width: 1.5"/>
    <path d="M 256.363636 52.260156 
L 256.363636 40.131331 
" clip-path="url(#p2e3672728b)" style="fill: none; stroke: #1f77b4; stroke-width: 1.5"/>
   </g>
   <g id="line2d_39">
    <g clip-path="url(#p2e3672728b)">
     <use xlink:href="#mabca3e68a9" x="103.636364" y="39.8735" style="fill: #1f77b4; stroke: #1f77b4"/>
     <use xlink:href="#mabca3e68a9" x="180" y="42.081715" style="fill: #1f77b4; stroke: #1f77b4"/>
     <use xlink:href="#mabca3e68a9" x="256.363636" y="46.195743" style="fill: #1f77b4; stroke: #1f77b4"/>
    </g>
   </g>
   <g id="patch_9">
    <path d="M 46 129.6 
L 46 21.6 
" style="fill: none; stroke: #000000; stroke-width: 0.8; stroke-linejoin: miter; stroke-linecap: square"/>
   </g>
   <g id="patch_10">
    <path d="M 54 137.6 
L 306 137.6 
" style="fill: none; stroke: #000000; stroke-width: 0.8; stroke-linejoin: miter; stroke-linecap: square"/>
   </g>
  </g>
 </g>
 <defs>
  <clipPath id="p408d3b8255">
   <rect x="54" y="280.8" width="252" height="108"/>
  </clipPath>
  <clipPath id="pea64387236">
   <rect x="54" y="151.2" width="252" height="108"/>
  </clipPath>
  <clipPath id="p2e3672728b">
   <rect x="54" y="21.6" width="252" height="108"/>
  </clipPath>
 </defs>
</svg>
