<?xml version="1.0" encoding="utf-8" standalone="no"?>
<!DOCTYPE svg PUBLIC "-//W3C//DTD SVG 1.1//EN"
  "http://www.w3.org/Graphics/SVG/1.1/DTD/svg11.dtd">
<svg xmlns:xlink="http://www.w3.org/1999/xlink" width="360pt" height="432pt" viewBox="0 0 360 432" xmlns="http://www.w3.org/2000/svg" version="1.1">
 <metadata>
  <rdf:RDF xmlns:dc="http://purl.org/dc/elements/1.1/" xmlns:cc="http://creativecommons.org/ns#" xmlns:rdf="http://www.w3.org/1999/02/22-rdf-syntax-ns#">
   <cc:Work>
    <dc:type rdf:resource="http://purl.org/dc/dcmitype/StillImage"/>
    <dc:date>2024-05-15T09:26:15.052680</dc:date>
    <dc:format>image/svg+xml</dc:format>
    <dc:creator>
     <cc:Agent>
      <dc:title>Matplotlib v3.8.0, https://matplotlib.org/</dc:title>
     </cc:Agent>
    </dc:creator>
   </cc:Work>
  </rdf:RDF>
 </metadata>
 <defs>
  <style type="text/css">*{stroke-linejoin: round; stroke-linecap: butt}</style>
 </defs>
 <g id="figure_1">
  <g id="patch_1">
   <path d="M 0 432 
L 360 432 
L 360 0 
L 0 0 
z
" style="fill: #ffffff"/>
  </g>
  <g id="axes_1">
   <g id="patch_2">
    <path d="M 54 388.8 
L 306 388.8 
L 306 280.8 
L 54 280.8 
z
" style="fill: #ffffff"/>
   </g>
   <g id="PolyCollection_1">
    <defs>
     <path id="m168391f7d8" d="M 65.454545 -80.762213 
L 65.454545 -75.749958 
L 70.12987 -75.749958 
L 74.805195 -75.76288 
L 79.480519 -76.280095 
L 84.155844 -76.786106 
L 88.831169 -76.884254 
L 93.506494 -76.883782 
L 98.181818 -76.896098 
L 102.857143 -77.065927 
L 107.532468 -77.24713 
L 112.207792 -77.294978 
L 116.883117 -77.516101 
L 121.558442 -77.938199 
L 126.233766 -78.407836 
L 130.909091 -78.829465 
L 135.584416 -79.25639 
L 140.25974 -79.81059 
L 144.935065 -80.418344 
L 149.61039 -80.996344 
L 154.285714 -81.517037 
L 158.961039 -82.12288 
L 163.636364 -82.610378 
L 168.311688 -82.960028 
L 172.987013 -83.352611 
L 177.662338 -83.774785 
L 182.337662 -84.218109 
L 187.012987 -84.807255 
L 191.688312 -85.214386 
L 196.363636 -85.577939 
L 201.038961 -85.69931 
L 205.714286 -85.769599 
L 210.38961 -85.757063 
L 215.064935 -85.745879 
L 219.74026 -85.716547 
L 224.415584 -85.636731 
L 229.090909 -85.47368 
L 233.766234 -85.464057 
L 238.441558 -85.555067 
L 243.116883 -85.693485 
L 247.792208 -85.662304 
L 252.467532 -85.569909 
L 257.142857 -85.2847 
L 261.818182 -85.054169 
L 266.493506 -84.769073 
L 271.168831 -84.59664 
L 275.844156 -84.534752 
L 280.519481 -84.65422 
L 285.194805 -84.922041 
L 289.87013 -85.077683 
L 294.545455 -85.074785 
L 294.545455 -93.121258 
L 294.545455 -93.121258 
L 289.87013 -93.362376 
L 285.194805 -93.481184 
L 280.519481 -93.22513 
L 275.844156 -92.99622 
L 271.168831 -93.22427 
L 266.493506 -93.708063 
L 261.818182 -94.157665 
L 257.142857 -94.16081 
L 252.467532 -94.249008 
L 247.792208 -93.966972 
L 243.116883 -93.635327 
L 238.441558 -93.224222 
L 233.766234 -92.541399 
L 229.090909 -91.963524 
L 224.415584 -91.646164 
L 219.74026 -91.323071 
L 215.064935 -90.766288 
L 210.38961 -90.340817 
L 205.714286 -90.01231 
L 201.038961 -89.851082 
L 196.363636 -89.535504 
L 191.688312 -89.013097 
L 187.012987 -88.365577 
L 182.337662 -87.804255 
L 177.662338 -87.424468 
L 172.987013 -86.952564 
L 168.311688 -86.372616 
L 163.636364 -85.974865 
L 158.961039 -85.57733 
L 154.285714 -85.158167 
L 149.61039 -84.728536 
L 144.935065 -84.29003 
L 140.25974 -83.716922 
L 135.584416 -83.104372 
L 130.909091 -82.708576 
L 126.233766 -82.239413 
L 121.558442 -81.549319 
L 116.883117 -80.958539 
L 112.207792 -80.800961 
L 107.532468 -80.83591 
L 102.857143 -80.899218 
L 98.181818 -81.0892 
L 93.506494 -81.352508 
L 88.831169 -81.381608 
L 84.155844 -81.249031 
L 79.480519 -80.991794 
L 74.805195 -80.769806 
L 70.12987 -80.762213 
L 65.454545 -80.762213 
z
"/>
    </defs>
    <g clip-path="url(#paff18c41c2)">
     <use xlink:href="#m168391f7d8" x="0" y="432" style="fill: #b2b2b2; fill-opacity: 0.4"/>
    </g>
   </g>
   <g id="matplotlib.axis_1">
    <g id="xtick_1">
     <g id="line2d_1">
      <defs>
       <path id="m87e5b751e7" d="M 0 0 
L 0 3.5 
" style="stroke: #000000; stroke-width: 0.8"/>
      </defs>
      <g>
       <use xlink:href="#m87e5b751e7" x="65.454545" y="396.8" style="stroke: #000000; stroke-width: 0.8"/>
      </g>
     </g>
     <g id="text_1">
      <!-- 0 -->
      <g transform="translate(62.273295 411.398438) scale(0.1 -0.1)">
       <defs>
        <path id="DejaVuSans-30" d="M 2034 4250 
Q 1547 4250 1301 3770 
Q 1056 3291 1056 2328 
Q 1056 1369 1301 889 
Q 1547 409 2034 409 
Q 2525 409 2770 889 
Q 3016 1369 3016 2328 
Q 3016 3291 2770 3770 
Q 2525 4250 2034 4250 
z
M 2034 4750 
Q 2819 4750 3233 4129 
Q 3647 3509 3647 2328 
Q 3647 1150 3233 529 
Q 2819 -91 2034 -91 
Q 1250 -91 836 529 
Q 422 1150 422 2328 
Q 422 3509 836 4129 
Q 1250 4750 2034 4750 
z
" transform="scale(0.015625)"/>
       </defs>
       <use xlink:href="#DejaVuSans-30"/>
      </g>
     </g>
    </g>
    <g id="xtick_2">
     <g id="line2d_2">
      <g>
       <use xlink:href="#m87e5b751e7" x="122.727273" y="396.8" style="stroke: #000000; stroke-width: 0.8"/>
      </g>
     </g>
     <g id="text_2">
      <!-- 1 -->
      <g transform="translate(119.546023 411.398438) scale(0.1 -0.1)">
       <defs>
        <path id="DejaVuSans-31" d="M 794 531 
L 1825 531 
L 1825 4091 
L 703 3866 
L 703 4441 
L 1819 4666 
L 2450 4666 
L 2450 531 
L 3481 531 
L 3481 0 
L 794 0 
L 794 531 
z
" transform="scale(0.015625)"/>
       </defs>
       <use xlink:href="#DejaVuSans-31"/>
      </g>
     </g>
    </g>
    <g id="xtick_3">
     <g id="line2d_3">
      <g>
       <use xlink:href="#m87e5b751e7" x="180" y="396.8" style="stroke: #000000; stroke-width: 0.8"/>
      </g>
     </g>
     <g id="text_3">
      <!-- 2 -->
      <g transform="translate(176.81875 411.398438) scale(0.1 -0.1)">
       <defs>
        <path id="DejaVuSans-32" d="M 1228 531 
L 3431 531 
L 3431 0 
L 469 0 
L 469 531 
Q 828 903 1448 1529 
Q 2069 2156 2228 2338 
Q 2531 2678 2651 2914 
Q 2772 3150 2772 3378 
Q 2772 3750 2511 3984 
Q 2250 4219 1831 4219 
Q 1534 4219 1204 4116 
Q 875 4013 500 3803 
L 500 4441 
Q 881 4594 1212 4672 
Q 1544 4750 1819 4750 
Q 2544 4750 2975 4387 
Q 3406 4025 3406 3419 
Q 3406 3131 3298 2873 
Q 3191 2616 2906 2266 
Q 2828 2175 2409 1742 
Q 1991 1309 1228 531 
z
" transform="scale(0.015625)"/>
       </defs>
       <use xlink:href="#DejaVuSans-32"/>
      </g>
     </g>
    </g>
    <g id="xtick_4">
     <g id="line2d_4">
      <g>
       <use xlink:href="#m87e5b751e7" x="237.272727" y="396.8" style="stroke: #000000; stroke-width: 0.8"/>
      </g>
     </g>
     <g id="text_4">
      <!-- 3 -->
      <g transform="translate(234.091477 411.398438) scale(0.1 -0.1)">
       <defs>
        <path id="DejaVuSans-33" d="M 2597 2516 
Q 3050 2419 3304 2112 
Q 3559 1806 3559 1356 
Q 3559 666 3084 287 
Q 2609 -91 1734 -91 
Q 1441 -91 1130 -33 
Q 819 25 488 141 
L 488 750 
Q 750 597 1062 519 
Q 1375 441 1716 441 
Q 2309 441 2620 675 
Q 2931 909 2931 1356 
Q 2931 1769 2642 2001 
Q 2353 2234 1838 2234 
L 1294 2234 
L 1294 2753 
L 1863 2753 
Q 2328 2753 2575 2939 
Q 2822 3125 2822 3475 
Q 2822 3834 2567 4026 
Q 2313 4219 1838 4219 
Q 1578 4219 1281 4162 
Q 984 4106 628 3988 
L 628 4550 
Q 988 4650 1302 4700 
Q 1616 4750 1894 4750 
Q 2613 4750 3031 4423 
Q 3450 4097 3450 3541 
Q 3450 3153 3228 2886 
Q 3006 2619 2597 2516 
z
" transform="scale(0.015625)"/>
       </defs>
       <use xlink:href="#DejaVuSans-33"/>
      </g>
     </g>
    </g>
    <g id="xtick_5">
     <g id="line2d_5">
      <g>
       <use xlink:href="#m87e5b751e7" x="294.545455" y="396.8" style="stroke: #000000; stroke-width: 0.8"/>
      </g>
     </g>
     <g id="text_5">
      <!-- 4 -->
      <g transform="translate(291.364205 411.398438) scale(0.1 -0.1)">
       <defs>
        <path id="DejaVuSans-34" d="M 2419 4116 
L 825 1625 
L 2419 1625 
L 2419 4116 
z
M 2253 4666 
L 3047 4666 
L 3047 1625 
L 3713 1625 
L 3713 1100 
L 3047 1100 
L 3047 0 
L 2419 0 
L 2419 1100 
L 313 1100 
L 313 1709 
L 2253 4666 
z
" transform="scale(0.015625)"/>
       </defs>
       <use xlink:href="#DejaVuSans-34"/>
      </g>
     </g>
    </g>
    <g id="text_6">
     <!-- relative distance from ROI center ($\sigma$) -->
     <g transform="translate(69.72 426.59625) scale(0.12 -0.12)">
      <defs>
       <path id="DejaVuSans-72" d="M 2631 2963 
Q 2534 3019 2420 3045 
Q 2306 3072 2169 3072 
Q 1681 3072 1420 2755 
Q 1159 2438 1159 1844 
L 1159 0 
L 581 0 
L 581 3500 
L 1159 3500 
L 1159 2956 
Q 1341 3275 1631 3429 
Q 1922 3584 2338 3584 
Q 2397 3584 2469 3576 
Q 2541 3569 2628 3553 
L 2631 2963 
z
" transform="scale(0.015625)"/>
       <path id="DejaVuSans-65" d="M 3597 1894 
L 3597 1613 
L 953 1613 
Q 991 1019 1311 708 
Q 1631 397 2203 397 
Q 2534 397 2845 478 
Q 3156 559 3463 722 
L 3463 178 
Q 3153 47 2828 -22 
Q 2503 -91 2169 -91 
Q 1331 -91 842 396 
Q 353 884 353 1716 
Q 353 2575 817 3079 
Q 1281 3584 2069 3584 
Q 2775 3584 3186 3129 
Q 3597 2675 3597 1894 
z
M 3022 2063 
Q 3016 2534 2758 2815 
Q 2500 3097 2075 3097 
Q 1594 3097 1305 2825 
Q 1016 2553 972 2059 
L 3022 2063 
z
" transform="scale(0.015625)"/>
       <path id="DejaVuSans-6c" d="M 603 4863 
L 1178 4863 
L 1178 0 
L 603 0 
L 603 4863 
z
" transform="scale(0.015625)"/>
       <path id="DejaVuSans-61" d="M 2194 1759 
Q 1497 1759 1228 1600 
Q 959 1441 959 1056 
Q 959 750 1161 570 
Q 1363 391 1709 391 
Q 2188 391 2477 730 
Q 2766 1069 2766 1631 
L 2766 1759 
L 2194 1759 
z
M 3341 1997 
L 3341 0 
L 2766 0 
L 2766 531 
Q 2569 213 2275 61 
Q 1981 -91 1556 -91 
Q 1019 -91 701 211 
Q 384 513 384 1019 
Q 384 1609 779 1909 
Q 1175 2209 1959 2209 
L 2766 2209 
L 2766 2266 
Q 2766 2663 2505 2880 
Q 2244 3097 1772 3097 
Q 1472 3097 1187 3025 
Q 903 2953 641 2809 
L 641 3341 
Q 956 3463 1253 3523 
Q 1550 3584 1831 3584 
Q 2591 3584 2966 3190 
Q 3341 2797 3341 1997 
z
" transform="scale(0.015625)"/>
       <path id="DejaVuSans-74" d="M 1172 4494 
L 1172 3500 
L 2356 3500 
L 2356 3053 
L 1172 3053 
L 1172 1153 
Q 1172 725 1289 603 
Q 1406 481 1766 481 
L 2356 481 
L 2356 0 
L 1766 0 
Q 1100 0 847 248 
Q 594 497 594 1153 
L 594 3053 
L 172 3053 
L 172 3500 
L 594 3500 
L 594 4494 
L 1172 4494 
z
" transform="scale(0.015625)"/>
       <path id="DejaVuSans-69" d="M 603 3500 
L 1178 3500 
L 1178 0 
L 603 0 
L 603 3500 
z
M 603 4863 
L 1178 4863 
L 1178 4134 
L 603 4134 
L 603 4863 
z
" transform="scale(0.015625)"/>
       <path id="DejaVuSans-76" d="M 191 3500 
L 800 3500 
L 1894 563 
L 2988 3500 
L 3597 3500 
L 2284 0 
L 1503 0 
L 191 3500 
z
" transform="scale(0.015625)"/>
       <path id="DejaVuSans-20" transform="scale(0.015625)"/>
       <path id="DejaVuSans-64" d="M 2906 2969 
L 2906 4863 
L 3481 4863 
L 3481 0 
L 2906 0 
L 2906 525 
Q 2725 213 2448 61 
Q 2172 -91 1784 -91 
Q 1150 -91 751 415 
Q 353 922 353 1747 
Q 353 2572 751 3078 
Q 1150 3584 1784 3584 
Q 2172 3584 2448 3432 
Q 2725 3281 2906 2969 
z
M 947 1747 
Q 947 1113 1208 752 
Q 1469 391 1925 391 
Q 2381 391 2643 752 
Q 2906 1113 2906 1747 
Q 2906 2381 2643 2742 
Q 2381 3103 1925 3103 
Q 1469 3103 1208 2742 
Q 947 2381 947 1747 
z
" transform="scale(0.015625)"/>
       <path id="DejaVuSans-73" d="M 2834 3397 
L 2834 2853 
Q 2591 2978 2328 3040 
Q 2066 3103 1784 3103 
Q 1356 3103 1142 2972 
Q 928 2841 928 2578 
Q 928 2378 1081 2264 
Q 1234 2150 1697 2047 
L 1894 2003 
Q 2506 1872 2764 1633 
Q 3022 1394 3022 966 
Q 3022 478 2636 193 
Q 2250 -91 1575 -91 
Q 1294 -91 989 -36 
Q 684 19 347 128 
L 347 722 
Q 666 556 975 473 
Q 1284 391 1588 391 
Q 1994 391 2212 530 
Q 2431 669 2431 922 
Q 2431 1156 2273 1281 
Q 2116 1406 1581 1522 
L 1381 1569 
Q 847 1681 609 1914 
Q 372 2147 372 2553 
Q 372 3047 722 3315 
Q 1072 3584 1716 3584 
Q 2034 3584 2315 3537 
Q 2597 3491 2834 3397 
z
" transform="scale(0.015625)"/>
       <path id="DejaVuSans-6e" d="M 3513 2113 
L 3513 0 
L 2938 0 
L 2938 2094 
Q 2938 2591 2744 2837 
Q 2550 3084 2163 3084 
Q 1697 3084 1428 2787 
Q 1159 2491 1159 1978 
L 1159 0 
L 581 0 
L 581 3500 
L 1159 3500 
L 1159 2956 
Q 1366 3272 1645 3428 
Q 1925 3584 2291 3584 
Q 2894 3584 3203 3211 
Q 3513 2838 3513 2113 
z
" transform="scale(0.015625)"/>
       <path id="DejaVuSans-63" d="M 3122 3366 
L 3122 2828 
Q 2878 2963 2633 3030 
Q 2388 3097 2138 3097 
Q 1578 3097 1268 2742 
Q 959 2388 959 1747 
Q 959 1106 1268 751 
Q 1578 397 2138 397 
Q 2388 397 2633 464 
Q 2878 531 3122 666 
L 3122 134 
Q 2881 22 2623 -34 
Q 2366 -91 2075 -91 
Q 1284 -91 818 406 
Q 353 903 353 1747 
Q 353 2603 823 3093 
Q 1294 3584 2113 3584 
Q 2378 3584 2631 3529 
Q 2884 3475 3122 3366 
z
" transform="scale(0.015625)"/>
       <path id="DejaVuSans-66" d="M 2375 4863 
L 2375 4384 
L 1825 4384 
Q 1516 4384 1395 4259 
Q 1275 4134 1275 3809 
L 1275 3500 
L 2222 3500 
L 2222 3053 
L 1275 3053 
L 1275 0 
L 697 0 
L 697 3053 
L 147 3053 
L 147 3500 
L 697 3500 
L 697 3744 
Q 697 4328 969 4595 
Q 1241 4863 1831 4863 
L 2375 4863 
z
" transform="scale(0.015625)"/>
       <path id="DejaVuSans-6f" d="M 1959 3097 
Q 1497 3097 1228 2736 
Q 959 2375 959 1747 
Q 959 1119 1226 758 
Q 1494 397 1959 397 
Q 2419 397 2687 759 
Q 2956 1122 2956 1747 
Q 2956 2369 2687 2733 
Q 2419 3097 1959 3097 
z
M 1959 3584 
Q 2709 3584 3137 3096 
Q 3566 2609 3566 1747 
Q 3566 888 3137 398 
Q 2709 -91 1959 -91 
Q 1206 -91 779 398 
Q 353 888 353 1747 
Q 353 2609 779 3096 
Q 1206 3584 1959 3584 
z
" transform="scale(0.015625)"/>
       <path id="DejaVuSans-6d" d="M 3328 2828 
Q 3544 3216 3844 3400 
Q 4144 3584 4550 3584 
Q 5097 3584 5394 3201 
Q 5691 2819 5691 2113 
L 5691 0 
L 5113 0 
L 5113 2094 
Q 5113 2597 4934 2840 
Q 4756 3084 4391 3084 
Q 3944 3084 3684 2787 
Q 3425 2491 3425 1978 
L 3425 0 
L 2847 0 
L 2847 2094 
Q 2847 2600 2669 2842 
Q 2491 3084 2119 3084 
Q 1678 3084 1418 2786 
Q 1159 2488 1159 1978 
L 1159 0 
L 581 0 
L 581 3500 
L 1159 3500 
L 1159 2956 
Q 1356 3278 1631 3431 
Q 1906 3584 2284 3584 
Q 2666 3584 2933 3390 
Q 3200 3197 3328 2828 
z
" transform="scale(0.015625)"/>
       <path id="DejaVuSans-52" d="M 2841 2188 
Q 3044 2119 3236 1894 
Q 3428 1669 3622 1275 
L 4263 0 
L 3584 0 
L 2988 1197 
Q 2756 1666 2539 1819 
Q 2322 1972 1947 1972 
L 1259 1972 
L 1259 0 
L 628 0 
L 628 4666 
L 2053 4666 
Q 2853 4666 3247 4331 
Q 3641 3997 3641 3322 
Q 3641 2881 3436 2590 
Q 3231 2300 2841 2188 
z
M 1259 4147 
L 1259 2491 
L 2053 2491 
Q 2509 2491 2742 2702 
Q 2975 2913 2975 3322 
Q 2975 3731 2742 3939 
Q 2509 4147 2053 4147 
L 1259 4147 
z
" transform="scale(0.015625)"/>
       <path id="DejaVuSans-4f" d="M 2522 4238 
Q 1834 4238 1429 3725 
Q 1025 3213 1025 2328 
Q 1025 1447 1429 934 
Q 1834 422 2522 422 
Q 3209 422 3611 934 
Q 4013 1447 4013 2328 
Q 4013 3213 3611 3725 
Q 3209 4238 2522 4238 
z
M 2522 4750 
Q 3503 4750 4090 4092 
Q 4678 3434 4678 2328 
Q 4678 1225 4090 567 
Q 3503 -91 2522 -91 
Q 1538 -91 948 565 
Q 359 1222 359 2328 
Q 359 3434 948 4092 
Q 1538 4750 2522 4750 
z
" transform="scale(0.015625)"/>
       <path id="DejaVuSans-49" d="M 628 4666 
L 1259 4666 
L 1259 0 
L 628 0 
L 628 4666 
z
" transform="scale(0.015625)"/>
       <path id="DejaVuSans-28" d="M 1984 4856 
Q 1566 4138 1362 3434 
Q 1159 2731 1159 2009 
Q 1159 1288 1364 580 
Q 1569 -128 1984 -844 
L 1484 -844 
Q 1016 -109 783 600 
Q 550 1309 550 2009 
Q 550 2706 781 3412 
Q 1013 4119 1484 4856 
L 1984 4856 
z
" transform="scale(0.015625)"/>
       <path id="DejaVuSans-Oblique-3c3" d="M 2219 3044 
Q 1744 3044 1422 2700 
Q 1081 2341 969 1747 
Q 844 1119 1044 756 
Q 1241 397 1706 397 
Q 2166 397 2503 759 
Q 2844 1122 2966 1747 
Q 3075 2319 2881 2700 
Q 2700 3044 2219 3044 
z
M 2309 3503 
L 4219 3500 
L 4106 2925 
L 3463 2925 
Q 3706 2438 3575 1747 
Q 3406 888 2884 400 
Q 2359 -91 1609 -91 
Q 856 -91 525 400 
Q 194 888 363 1747 
Q 528 2609 1050 3097 
Q 1484 3503 2309 3503 
z
" transform="scale(0.015625)"/>
       <path id="DejaVuSans-29" d="M 513 4856 
L 1013 4856 
Q 1481 4119 1714 3412 
Q 1947 2706 1947 2009 
Q 1947 1309 1714 600 
Q 1481 -109 1013 -844 
L 513 -844 
Q 928 -128 1133 580 
Q 1338 1288 1338 2009 
Q 1338 2731 1133 3434 
Q 928 4138 513 4856 
z
" transform="scale(0.015625)"/>
      </defs>
      <use xlink:href="#DejaVuSans-72" transform="translate(0 0.015625)"/>
      <use xlink:href="#DejaVuSans-65" transform="translate(41.113281 0.015625)"/>
      <use xlink:href="#DejaVuSans-6c" transform="translate(102.636719 0.015625)"/>
      <use xlink:href="#DejaVuSans-61" transform="translate(130.419922 0.015625)"/>
      <use xlink:href="#DejaVuSans-74" transform="translate(191.699219 0.015625)"/>
      <use xlink:href="#DejaVuSans-69" transform="translate(230.908203 0.015625)"/>
      <use xlink:href="#DejaVuSans-76" transform="translate(258.691406 0.015625)"/>
      <use xlink:href="#DejaVuSans-65" transform="translate(317.871094 0.015625)"/>
      <use xlink:href="#DejaVuSans-20" transform="translate(379.394531 0.015625)"/>
      <use xlink:href="#DejaVuSans-64" transform="translate(411.181641 0.015625)"/>
      <use xlink:href="#DejaVuSans-69" transform="translate(474.658203 0.015625)"/>
      <use xlink:href="#DejaVuSans-73" transform="translate(502.441406 0.015625)"/>
      <use xlink:href="#DejaVuSans-74" transform="translate(554.541016 0.015625)"/>
      <use xlink:href="#DejaVuSans-61" transform="translate(593.75 0.015625)"/>
      <use xlink:href="#DejaVuSans-6e" transform="translate(655.029297 0.015625)"/>
      <use xlink:href="#DejaVuSans-63" transform="translate(718.408203 0.015625)"/>
      <use xlink:href="#DejaVuSans-65" transform="translate(773.388672 0.015625)"/>
      <use xlink:href="#DejaVuSans-20" transform="translate(834.912109 0.015625)"/>
      <use xlink:href="#DejaVuSans-66" transform="translate(866.699219 0.015625)"/>
      <use xlink:href="#DejaVuSans-72" transform="translate(901.904297 0.015625)"/>
      <use xlink:href="#DejaVuSans-6f" transform="translate(943.017578 0.015625)"/>
      <use xlink:href="#DejaVuSans-6d" transform="translate(1004.199219 0.015625)"/>
      <use xlink:href="#DejaVuSans-20" transform="translate(1101.611328 0.015625)"/>
      <use xlink:href="#DejaVuSans-52" transform="translate(1133.398438 0.015625)"/>
      <use xlink:href="#DejaVuSans-4f" transform="translate(1202.880859 0.015625)"/>
      <use xlink:href="#DejaVuSans-49" transform="translate(1281.591797 0.015625)"/>
      <use xlink:href="#DejaVuSans-20" transform="translate(1311.083984 0.015625)"/>
      <use xlink:href="#DejaVuSans-63" transform="translate(1342.871094 0.015625)"/>
      <use xlink:href="#DejaVuSans-65" transform="translate(1397.851562 0.015625)"/>
      <use xlink:href="#DejaVuSans-6e" transform="translate(1459.375 0.015625)"/>
      <use xlink:href="#DejaVuSans-74" transform="translate(1522.753906 0.015625)"/>
      <use xlink:href="#DejaVuSans-65" transform="translate(1561.962891 0.015625)"/>
      <use xlink:href="#DejaVuSans-72" transform="translate(1623.486328 0.015625)"/>
      <use xlink:href="#DejaVuSans-20" transform="translate(1664.599609 0.015625)"/>
      <use xlink:href="#DejaVuSans-28" transform="translate(1696.386719 0.015625)"/>
      <use xlink:href="#DejaVuSans-Oblique-3c3" transform="translate(1735.400391 0.015625)"/>
      <use xlink:href="#DejaVuSans-29" transform="translate(1798.779297 0.015625)"/>
     </g>
    </g>
   </g>
   <g id="matplotlib.axis_2">
    <g id="ytick_1">
     <g id="line2d_6">
      <defs>
       <path id="m7015458af0" d="M 0 0 
L -3.5 0 
" style="stroke: #000000; stroke-width: 0.8"/>
      </defs>
      <g>
       <use xlink:href="#m7015458af0" x="46" y="376.094118" style="stroke: #000000; stroke-width: 0.8"/>
      </g>
     </g>
     <g id="text_7">
      <!-- 0 -->
      <g transform="translate(32.6375 379.893336) scale(0.1 -0.1)">
       <use xlink:href="#DejaVuSans-30"/>
      </g>
     </g>
    </g>
    <g id="ytick_2">
     <g id="line2d_7">
      <g>
       <use xlink:href="#m7015458af0" x="46" y="350.682353" style="stroke: #000000; stroke-width: 0.8"/>
      </g>
     </g>
     <g id="text_8">
      <!-- 2 -->
      <g transform="translate(32.6375 354.481572) scale(0.1 -0.1)">
       <use xlink:href="#DejaVuSans-32"/>
      </g>
     </g>
    </g>
    <g id="ytick_3">
     <g id="line2d_8">
      <g>
       <use xlink:href="#m7015458af0" x="46" y="325.270588" style="stroke: #000000; stroke-width: 0.8"/>
      </g>
     </g>
     <g id="text_9">
      <!-- 4 -->
      <g transform="translate(32.6375 329.069807) scale(0.1 -0.1)">
       <use xlink:href="#DejaVuSans-34"/>
      </g>
     </g>
    </g>
    <g id="ytick_4">
     <g id="line2d_9">
      <g>
       <use xlink:href="#m7015458af0" x="46" y="299.858824" style="stroke: #000000; stroke-width: 0.8"/>
      </g>
     </g>
     <g id="text_10">
      <!-- 6 -->
      <g transform="translate(32.6375 303.658042) scale(0.1 -0.1)">
       <defs>
        <path id="DejaVuSans-36" d="M 2113 2584 
Q 1688 2584 1439 2293 
Q 1191 2003 1191 1497 
Q 1191 994 1439 701 
Q 1688 409 2113 409 
Q 2538 409 2786 701 
Q 3034 994 3034 1497 
Q 3034 2003 2786 2293 
Q 2538 2584 2113 2584 
z
M 3366 4563 
L 3366 3988 
Q 3128 4100 2886 4159 
Q 2644 4219 2406 4219 
Q 1781 4219 1451 3797 
Q 1122 3375 1075 2522 
Q 1259 2794 1537 2939 
Q 1816 3084 2150 3084 
Q 2853 3084 3261 2657 
Q 3669 2231 3669 1497 
Q 3669 778 3244 343 
Q 2819 -91 2113 -91 
Q 1303 -91 875 529 
Q 447 1150 447 2328 
Q 447 3434 972 4092 
Q 1497 4750 2381 4750 
Q 2619 4750 2861 4703 
Q 3103 4656 3366 4563 
z
" transform="scale(0.015625)"/>
       </defs>
       <use xlink:href="#DejaVuSans-36"/>
      </g>
     </g>
    </g>
    <g id="text_11">
     <!-- BOLD % change -->
     <g transform="translate(26.141875 383.094375) rotate(-90) scale(0.12 -0.12)">
      <defs>
       <path id="DejaVuSans-42" d="M 1259 2228 
L 1259 519 
L 2272 519 
Q 2781 519 3026 730 
Q 3272 941 3272 1375 
Q 3272 1813 3026 2020 
Q 2781 2228 2272 2228 
L 1259 2228 
z
M 1259 4147 
L 1259 2741 
L 2194 2741 
Q 2656 2741 2882 2914 
Q 3109 3088 3109 3444 
Q 3109 3797 2882 3972 
Q 2656 4147 2194 4147 
L 1259 4147 
z
M 628 4666 
L 2241 4666 
Q 2963 4666 3353 4366 
Q 3744 4066 3744 3513 
Q 3744 3084 3544 2831 
Q 3344 2578 2956 2516 
Q 3422 2416 3680 2098 
Q 3938 1781 3938 1306 
Q 3938 681 3513 340 
Q 3088 0 2303 0 
L 628 0 
L 628 4666 
z
" transform="scale(0.015625)"/>
       <path id="DejaVuSans-4c" d="M 628 4666 
L 1259 4666 
L 1259 531 
L 3531 531 
L 3531 0 
L 628 0 
L 628 4666 
z
" transform="scale(0.015625)"/>
       <path id="DejaVuSans-44" d="M 1259 4147 
L 1259 519 
L 2022 519 
Q 2988 519 3436 956 
Q 3884 1394 3884 2338 
Q 3884 3275 3436 3711 
Q 2988 4147 2022 4147 
L 1259 4147 
z
M 628 4666 
L 1925 4666 
Q 3281 4666 3915 4102 
Q 4550 3538 4550 2338 
Q 4550 1131 3912 565 
Q 3275 0 1925 0 
L 628 0 
L 628 4666 
z
" transform="scale(0.015625)"/>
       <path id="DejaVuSans-25" d="M 4653 2053 
Q 4381 2053 4226 1822 
Q 4072 1591 4072 1178 
Q 4072 772 4226 539 
Q 4381 306 4653 306 
Q 4919 306 5073 539 
Q 5228 772 5228 1178 
Q 5228 1588 5073 1820 
Q 4919 2053 4653 2053 
z
M 4653 2450 
Q 5147 2450 5437 2106 
Q 5728 1763 5728 1178 
Q 5728 594 5436 251 
Q 5144 -91 4653 -91 
Q 4153 -91 3862 251 
Q 3572 594 3572 1178 
Q 3572 1766 3864 2108 
Q 4156 2450 4653 2450 
z
M 1428 4353 
Q 1159 4353 1004 4120 
Q 850 3888 850 3481 
Q 850 3069 1003 2837 
Q 1156 2606 1428 2606 
Q 1700 2606 1854 2837 
Q 2009 3069 2009 3481 
Q 2009 3884 1853 4118 
Q 1697 4353 1428 4353 
z
M 4250 4750 
L 4750 4750 
L 1831 -91 
L 1331 -91 
L 4250 4750 
z
M 1428 4750 
Q 1922 4750 2215 4408 
Q 2509 4066 2509 3481 
Q 2509 2891 2217 2550 
Q 1925 2209 1428 2209 
Q 931 2209 642 2551 
Q 353 2894 353 3481 
Q 353 4063 643 4406 
Q 934 4750 1428 4750 
z
" transform="scale(0.015625)"/>
       <path id="DejaVuSans-68" d="M 3513 2113 
L 3513 0 
L 2938 0 
L 2938 2094 
Q 2938 2591 2744 2837 
Q 2550 3084 2163 3084 
Q 1697 3084 1428 2787 
Q 1159 2491 1159 1978 
L 1159 0 
L 581 0 
L 581 4863 
L 1159 4863 
L 1159 2956 
Q 1366 3272 1645 3428 
Q 1925 3584 2291 3584 
Q 2894 3584 3203 3211 
Q 3513 2838 3513 2113 
z
" transform="scale(0.015625)"/>
       <path id="DejaVuSans-67" d="M 2906 1791 
Q 2906 2416 2648 2759 
Q 2391 3103 1925 3103 
Q 1463 3103 1205 2759 
Q 947 2416 947 1791 
Q 947 1169 1205 825 
Q 1463 481 1925 481 
Q 2391 481 2648 825 
Q 2906 1169 2906 1791 
z
M 3481 434 
Q 3481 -459 3084 -895 
Q 2688 -1331 1869 -1331 
Q 1566 -1331 1297 -1286 
Q 1028 -1241 775 -1147 
L 775 -588 
Q 1028 -725 1275 -790 
Q 1522 -856 1778 -856 
Q 2344 -856 2625 -561 
Q 2906 -266 2906 331 
L 2906 616 
Q 2728 306 2450 153 
Q 2172 0 1784 0 
Q 1141 0 747 490 
Q 353 981 353 1791 
Q 353 2603 747 3093 
Q 1141 3584 1784 3584 
Q 2172 3584 2450 3431 
Q 2728 3278 2906 2969 
L 2906 3500 
L 3481 3500 
L 3481 434 
z
" transform="scale(0.015625)"/>
      </defs>
      <use xlink:href="#DejaVuSans-42"/>
      <use xlink:href="#DejaVuSans-4f" x="66.853516"/>
      <use xlink:href="#DejaVuSans-4c" x="145.564453"/>
      <use xlink:href="#DejaVuSans-44" x="201.277344"/>
      <use xlink:href="#DejaVuSans-20" x="278.279297"/>
      <use xlink:href="#DejaVuSans-25" x="310.066406"/>
      <use xlink:href="#DejaVuSans-20" x="405.085938"/>
      <use xlink:href="#DejaVuSans-63" x="436.873047"/>
      <use xlink:href="#DejaVuSans-68" x="491.853516"/>
      <use xlink:href="#DejaVuSans-61" x="555.232422"/>
      <use xlink:href="#DejaVuSans-6e" x="616.511719"/>
      <use xlink:href="#DejaVuSans-67" x="679.890625"/>
      <use xlink:href="#DejaVuSans-65" x="743.367188"/>
     </g>
    </g>
   </g>
   <g id="line2d_10">
    <path d="M 180 388.8 
L 180 280.8 
" clip-path="url(#paff18c41c2)" style="fill: none; stroke-dasharray: 5.55,2.4; stroke-dashoffset: 0; stroke: #4c4c4c; stroke-width: 1.5"/>
   </g>
   <g id="LineCollection_1">
    <path d="M 65.454545 376.094118 
L 294.545455 376.094118 
" clip-path="url(#paff18c41c2)" style="fill: none; stroke-dasharray: 5.55,2.4; stroke-dashoffset: 0; stroke: #4c4c4c; stroke-width: 1.5"/>
   </g>
   <g id="line2d_11">
    <path d="M 65.454545 353.743914 
L 70.12987 353.743914 
L 74.805195 353.733657 
L 79.480519 353.364055 
L 84.155844 352.982432 
L 88.831169 352.867069 
L 93.506494 352.881855 
L 98.181818 353.007351 
L 102.857143 353.017428 
L 107.532468 352.95848 
L 112.207792 352.95203 
L 116.883117 352.76268 
L 121.558442 352.256241 
L 126.233766 351.676376 
L 130.909091 351.230979 
L 135.584416 350.819619 
L 140.25974 350.236244 
L 144.935065 349.645813 
L 149.61039 349.13756 
L 154.285714 348.662398 
L 158.961039 348.149895 
L 163.636364 347.707378 
L 168.311688 347.333678 
L 172.987013 346.847413 
L 177.662338 346.400374 
L 182.337662 345.988818 
L 187.012987 345.413584 
L 191.688312 344.886259 
L 196.363636 344.443279 
L 201.038961 344.224804 
L 205.714286 344.109045 
L 210.38961 343.95106 
L 215.064935 343.743916 
L 219.74026 343.480191 
L 224.415584 343.358552 
L 229.090909 343.281398 
L 233.766234 342.997272 
L 238.441558 342.610356 
L 243.116883 342.335594 
L 247.792208 342.185362 
L 252.467532 342.090541 
L 257.142857 342.277245 
L 261.818182 342.394083 
L 266.493506 342.761432 
L 271.168831 343.089545 
L 275.844156 343.234514 
L 280.519481 343.060325 
L 285.194805 342.798388 
L 289.87013 342.77997 
L 294.545455 342.901979 
" clip-path="url(#paff18c41c2)" style="fill: none; stroke: #b2b2b2; stroke-width: 1.5; stroke-linecap: square"/>
   </g>
   <g id="line2d_12">
    <defs>
     <path id="m0e8c515ade" d="M 2.896197 -1.24666 
L 0.591984 -0.001028 
L 2.896197 1.252826 
L 2.524152 1.881809 
L 0.365879 0.578623 
L 0.365879 3 
L -0.365879 3 
L -0.365879 0.578623 
L -2.524152 1.881809 
L -2.896197 1.252826 
L -0.589928 -0.001028 
L -2.896197 -1.24666 
L -2.524152 -1.881809 
L -0.365879 -0.578623 
L -0.365879 -3 
L 0.365879 -3 
L 0.365879 -0.578623 
L 2.524152 -1.881809 
L 2.896197 -1.24666 
z
" style="stroke: #000000"/>
    </defs>
    <g clip-path="url(#paff18c41c2)">
     <use xlink:href="#m0e8c515ade" x="103.636364" y="289.694118" style="stroke: #000000"/>
     <use xlink:href="#m0e8c515ade" x="180" y="289.694118" style="stroke: #000000"/>
     <use xlink:href="#m0e8c515ade" x="256.363636" y="289.694118" style="stroke: #000000"/>
    </g>
   </g>
   <g id="LineCollection_2">
    <path d="M 65.454545 388.8 
L 65.454545 350.682353 
" clip-path="url(#paff18c41c2)" style="fill: none; stroke-dasharray: 1.5,2.475; stroke-dashoffset: 0; stroke: #1f77b4; stroke-opacity: 0.3; stroke-width: 1.5"/>
    <path d="M 141.818182 388.8 
L 141.818182 350.682353 
" clip-path="url(#paff18c41c2)" style="fill: none; stroke-dasharray: 1.5,2.475; stroke-dashoffset: 0; stroke: #1f77b4; stroke-opacity: 0.3; stroke-width: 1.5"/>
    <path d="M 218.181818 388.8 
L 218.181818 350.682353 
" clip-path="url(#paff18c41c2)" style="fill: none; stroke-dasharray: 1.5,2.475; stroke-dashoffset: 0; stroke: #1f77b4; stroke-opacity: 0.3; stroke-width: 1.5"/>
    <path d="M 294.545455 388.8 
L 294.545455 350.682353 
" clip-path="url(#paff18c41c2)" style="fill: none; stroke-dasharray: 1.5,2.475; stroke-dashoffset: 0; stroke: #1f77b4; stroke-opacity: 0.3; stroke-width: 1.5"/>
   </g>
   <g id="LineCollection_3">
    <path d="M 103.636364 351.980619 
L 103.636364 347.750127 
" clip-path="url(#paff18c41c2)" style="fill: none; stroke: #1f77b4; stroke-width: 1.5"/>
    <path d="M 180 348.49573 
L 180 345.449404 
" clip-path="url(#paff18c41c2)" style="fill: none; stroke: #1f77b4; stroke-width: 1.5"/>
    <path d="M 256.363636 346.330481 
L 256.363636 342.166793 
" clip-path="url(#paff18c41c2)" style="fill: none; stroke: #1f77b4; stroke-width: 1.5"/>
   </g>
   <g id="line2d_13">
    <defs>
     <path id="m6ff6f4fa2b" d="M 0 3 
C 0.795609 3 1.55874 2.683901 2.12132 2.12132 
C 2.683901 1.55874 3 0.795609 3 0 
C 3 -0.795609 2.683901 -1.55874 2.12132 -2.12132 
C 1.55874 -2.683901 0.795609 -3 0 -3 
C -0.795609 -3 -1.55874 -2.683901 -2.12132 -2.12132 
C -2.683901 -1.55874 -3 -0.795609 -3 0 
C -3 0.795609 -2.683901 1.55874 -2.12132 2.12132 
C -1.55874 2.683901 -0.795609 3 0 3 
z
" style="stroke: #1f77b4"/>
    </defs>
    <g clip-path="url(#paff18c41c2)">
     <use xlink:href="#m6ff6f4fa2b" x="103.636364" y="349.865373" style="fill: #1f77b4; stroke: #1f77b4"/>
     <use xlink:href="#m6ff6f4fa2b" x="180" y="346.972567" style="fill: #1f77b4; stroke: #1f77b4"/>
     <use xlink:href="#m6ff6f4fa2b" x="256.363636" y="344.248637" style="fill: #1f77b4; stroke: #1f77b4"/>
    </g>
   </g>
   <g id="patch_3">
    <path d="M 46 388.8 
L 46 280.8 
" style="fill: none; stroke: #000000; stroke-width: 0.8; stroke-linejoin: miter; stroke-linecap: square"/>
   </g>
   <g id="patch_4">
    <path d="M 54 396.8 
L 306 396.8 
" style="fill: none; stroke: #000000; stroke-width: 0.8; stroke-linejoin: miter; stroke-linecap: square"/>
   </g>
  </g>
  <g id="axes_2">
   <g id="patch_5">
    <path d="M 54 259.2 
L 306 259.2 
L 306 151.2 
L 54 151.2 
z
" style="fill: #ffffff"/>
   </g>
   <g id="PolyCollection_2">
    <defs>
     <path id="m4e1c4d74d5" d="M 65.454545 -217.746997 
L 65.454545 -214.065546 
L 70.12987 -213.990959 
L 74.805195 -213.91605 
L 79.480519 -213.785513 
L 84.155844 -213.896406 
L 88.831169 -213.976843 
L 93.506494 -214.266389 
L 98.181818 -214.796813 
L 102.857143 -214.968995 
L 107.532468 -215.158286 
L 112.207792 -215.495272 
L 116.883117 -215.650557 
L 121.558442 -216.050632 
L 126.233766 -216.861395 
L 130.909091 -217.529723 
L 135.584416 -218.217664 
L 140.25974 -219.048358 
L 144.935065 -219.582921 
L 149.61039 -220.13635 
L 154.285714 -220.682122 
L 158.961039 -221.218001 
L 163.636364 -221.669022 
L 168.311688 -222.160016 
L 172.987013 -222.670376 
L 177.662338 -222.99561 
L 182.337662 -223.235055 
L 187.012987 -223.591255 
L 191.688312 -223.854621 
L 196.363636 -224.194614 
L 201.038961 -224.417381 
L 205.714286 -224.579936 
L 210.38961 -224.782428 
L 215.064935 -224.682095 
L 219.74026 -224.591352 
L 224.415584 -224.751717 
L 229.090909 -224.843066 
L 233.766234 -224.88174 
L 238.441558 -224.776508 
L 243.116883 -224.527696 
L 247.792208 -224.311111 
L 252.467532 -224.054418 
L 257.142857 -223.816083 
L 261.818182 -223.563039 
L 266.493506 -223.344961 
L 271.168831 -223.199865 
L 275.844156 -223.168633 
L 280.519481 -223.160245 
L 285.194805 -223.019736 
L 289.87013 -222.818386 
L 294.545455 -222.760556 
L 294.545455 -235.179359 
L 294.545455 -235.179359 
L 289.87013 -235.624726 
L 285.194805 -236.316883 
L 280.519481 -237.109196 
L 275.844156 -238.024546 
L 271.168831 -239.094961 
L 266.493506 -240.019371 
L 261.818182 -240.689374 
L 257.142857 -241.266328 
L 252.467532 -241.842085 
L 247.792208 -241.871917 
L 243.116883 -241.225101 
L 238.441558 -240.480393 
L 233.766234 -239.463198 
L 229.090909 -238.352212 
L 224.415584 -237.065711 
L 219.74026 -235.644098 
L 215.064935 -234.899246 
L 210.38961 -234.216134 
L 205.714286 -233.311998 
L 201.038961 -232.649723 
L 196.363636 -232.010061 
L 191.688312 -231.410081 
L 187.012987 -231.203748 
L 182.337662 -230.936805 
L 177.662338 -230.686213 
L 172.987013 -230.352551 
L 168.311688 -229.777854 
L 163.636364 -228.760853 
L 158.961039 -227.775158 
L 154.285714 -226.842728 
L 149.61039 -225.683336 
L 144.935065 -224.343312 
L 140.25974 -222.957665 
L 135.584416 -221.446404 
L 130.909091 -220.520287 
L 126.233766 -219.560686 
L 121.558442 -218.609826 
L 116.883117 -218.21949 
L 112.207792 -218.162133 
L 107.532468 -218.063827 
L 102.857143 -217.715336 
L 98.181818 -217.40677 
L 93.506494 -217.032252 
L 88.831169 -217.01518 
L 84.155844 -217.026506 
L 79.480519 -217.167472 
L 74.805195 -217.615586 
L 70.12987 -217.678513 
L 65.454545 -217.746997 
z
"/>
    </defs>
    <g clip-path="url(#p0efc8d68d8)">
     <use xlink:href="#m4e1c4d74d5" x="0" y="432" style="fill: #b2b2b2; fill-opacity: 0.4"/>
    </g>
   </g>
   <g id="matplotlib.axis_3">
    <g id="xtick_6">
     <g id="line2d_14">
      <g>
       <use xlink:href="#m87e5b751e7" x="65.454545" y="267.2" style="stroke: #000000; stroke-width: 0.8"/>
      </g>
     </g>
    </g>
    <g id="xtick_7">
     <g id="line2d_15">
      <g>
       <use xlink:href="#m87e5b751e7" x="122.727273" y="267.2" style="stroke: #000000; stroke-width: 0.8"/>
      </g>
     </g>
    </g>
    <g id="xtick_8">
     <g id="line2d_16">
      <g>
       <use xlink:href="#m87e5b751e7" x="180" y="267.2" style="stroke: #000000; stroke-width: 0.8"/>
      </g>
     </g>
    </g>
    <g id="xtick_9">
     <g id="line2d_17">
      <g>
       <use xlink:href="#m87e5b751e7" x="237.272727" y="267.2" style="stroke: #000000; stroke-width: 0.8"/>
      </g>
     </g>
    </g>
    <g id="xtick_10">
     <g id="line2d_18">
      <g>
       <use xlink:href="#m87e5b751e7" x="294.545455" y="267.2" style="stroke: #000000; stroke-width: 0.8"/>
      </g>
     </g>
    </g>
   </g>
   <g id="matplotlib.axis_4">
    <g id="ytick_5">
     <g id="line2d_19">
      <g>
       <use xlink:href="#m7015458af0" x="46" y="246.494118" style="stroke: #000000; stroke-width: 0.8"/>
      </g>
     </g>
     <g id="text_12">
      <!-- 0 -->
      <g transform="translate(32.6375 250.293336) scale(0.1 -0.1)">
       <use xlink:href="#DejaVuSans-30"/>
      </g>
     </g>
    </g>
    <g id="ytick_6">
     <g id="line2d_20">
      <g>
       <use xlink:href="#m7015458af0" x="46" y="221.082353" style="stroke: #000000; stroke-width: 0.8"/>
      </g>
     </g>
     <g id="text_13">
      <!-- 2 -->
      <g transform="translate(32.6375 224.881572) scale(0.1 -0.1)">
       <use xlink:href="#DejaVuSans-32"/>
      </g>
     </g>
    </g>
    <g id="ytick_7">
     <g id="line2d_21">
      <g>
       <use xlink:href="#m7015458af0" x="46" y="195.670588" style="stroke: #000000; stroke-width: 0.8"/>
      </g>
     </g>
     <g id="text_14">
      <!-- 4 -->
      <g transform="translate(32.6375 199.469807) scale(0.1 -0.1)">
       <use xlink:href="#DejaVuSans-34"/>
      </g>
     </g>
    </g>
    <g id="ytick_8">
     <g id="line2d_22">
      <g>
       <use xlink:href="#m7015458af0" x="46" y="170.258824" style="stroke: #000000; stroke-width: 0.8"/>
      </g>
     </g>
     <g id="text_15">
      <!-- 6 -->
      <g transform="translate(32.6375 174.058042) scale(0.1 -0.1)">
       <use xlink:href="#DejaVuSans-36"/>
      </g>
     </g>
    </g>
    <g id="text_16">
     <!-- BOLD % change -->
     <g transform="translate(26.141875 253.494375) rotate(-90) scale(0.12 -0.12)">
      <use xlink:href="#DejaVuSans-42"/>
      <use xlink:href="#DejaVuSans-4f" x="66.853516"/>
      <use xlink:href="#DejaVuSans-4c" x="145.564453"/>
      <use xlink:href="#DejaVuSans-44" x="201.277344"/>
      <use xlink:href="#DejaVuSans-20" x="278.279297"/>
      <use xlink:href="#DejaVuSans-25" x="310.066406"/>
      <use xlink:href="#DejaVuSans-20" x="405.085938"/>
      <use xlink:href="#DejaVuSans-63" x="436.873047"/>
      <use xlink:href="#DejaVuSans-68" x="491.853516"/>
      <use xlink:href="#DejaVuSans-61" x="555.232422"/>
      <use xlink:href="#DejaVuSans-6e" x="616.511719"/>
      <use xlink:href="#DejaVuSans-67" x="679.890625"/>
      <use xlink:href="#DejaVuSans-65" x="743.367188"/>
     </g>
    </g>
   </g>
   <g id="line2d_23">
    <path d="M 180 259.2 
L 180 151.2 
" clip-path="url(#p0efc8d68d8)" style="fill: none; stroke-dasharray: 5.55,2.4; stroke-dashoffset: 0; stroke: #4c4c4c; stroke-width: 1.5"/>
   </g>
   <g id="LineCollection_4">
    <path d="M 65.454545 246.494118 
L 294.545455 246.494118 
" clip-path="url(#p0efc8d68d8)" style="fill: none; stroke-dasharray: 5.55,2.4; stroke-dashoffset: 0; stroke: #4c4c4c; stroke-width: 1.5"/>
   </g>
   <g id="line2d_24">
    <path d="M 65.454545 216.093729 
L 70.12987 216.165264 
L 74.805195 216.234182 
L 79.480519 216.523508 
L 84.155844 216.538544 
L 88.831169 216.503988 
L 93.506494 216.35068 
L 98.181818 215.898209 
L 102.857143 215.657835 
L 107.532468 215.388943 
L 112.207792 215.171298 
L 116.883117 215.064977 
L 121.558442 214.669771 
L 126.233766 213.788959 
L 130.909091 212.974995 
L 135.584416 212.167966 
L 140.25974 210.996988 
L 144.935065 210.036883 
L 149.61039 209.090157 
L 154.285714 208.237575 
L 158.961039 207.50342 
L 163.636364 206.785063 
L 168.311688 206.031065 
L 172.987013 205.488537 
L 177.662338 205.159089 
L 182.337662 204.91407 
L 187.012987 204.602499 
L 191.688312 204.367649 
L 196.363636 203.897662 
L 201.038961 203.466448 
L 205.714286 203.054033 
L 210.38961 202.500719 
L 215.064935 202.20933 
L 219.74026 201.882275 
L 224.415584 201.091286 
L 229.090909 200.402361 
L 233.766234 199.827531 
L 238.441558 199.371549 
L 243.116883 199.123602 
L 247.792208 198.908486 
L 252.467532 199.051748 
L 257.142857 199.458794 
L 261.818182 199.873793 
L 266.493506 200.317834 
L 271.168831 200.852587 
L 275.844156 201.403411 
L 280.519481 201.865279 
L 285.194805 202.33169 
L 289.87013 202.778444 
L 294.545455 203.030043 
" clip-path="url(#p0efc8d68d8)" style="fill: none; stroke: #b2b2b2; stroke-width: 1.5; stroke-linecap: square"/>
   </g>
   <g id="line2d_25">
    <g clip-path="url(#p0efc8d68d8)">
     <use xlink:href="#m0e8c515ade" x="103.636364" y="160.094118" style="stroke: #000000"/>
     <use xlink:href="#m0e8c515ade" x="180" y="160.094118" style="stroke: #000000"/>
     <use xlink:href="#m0e8c515ade" x="256.363636" y="160.094118" style="stroke: #000000"/>
    </g>
   </g>
   <g id="LineCollection_5">
    <path d="M 65.454545 259.2 
L 65.454545 221.082353 
" clip-path="url(#p0efc8d68d8)" style="fill: none; stroke-dasharray: 1.5,2.475; stroke-dashoffset: 0; stroke: #1f77b4; stroke-opacity: 0.3; stroke-width: 1.5"/>
    <path d="M 141.818182 259.2 
L 141.818182 221.082353 
" clip-path="url(#p0efc8d68d8)" style="fill: none; stroke-dasharray: 1.5,2.475; stroke-dashoffset: 0; stroke: #1f77b4; stroke-opacity: 0.3; stroke-width: 1.5"/>
    <path d="M 218.181818 259.2 
L 218.181818 221.082353 
" clip-path="url(#p0efc8d68d8)" style="fill: none; stroke-dasharray: 1.5,2.475; stroke-dashoffset: 0; stroke: #1f77b4; stroke-opacity: 0.3; stroke-width: 1.5"/>
    <path d="M 294.545455 259.2 
L 294.545455 221.082353 
" clip-path="url(#p0efc8d68d8)" style="fill: none; stroke-dasharray: 1.5,2.475; stroke-dashoffset: 0; stroke: #1f77b4; stroke-opacity: 0.3; stroke-width: 1.5"/>
   </g>
   <g id="LineCollection_6">
    <path d="M 103.636364 213.936754 
L 103.636364 207.123794 
" clip-path="url(#p0efc8d68d8)" style="fill: none; stroke: #1f77b4; stroke-width: 1.5"/>
    <path d="M 180 206.411598 
L 180 201.810153 
" clip-path="url(#p0efc8d68d8)" style="fill: none; stroke: #1f77b4; stroke-width: 1.5"/>
    <path d="M 256.363636 204.598382 
L 256.363636 197.293768 
" clip-path="url(#p0efc8d68d8)" style="fill: none; stroke: #1f77b4; stroke-width: 1.5"/>
   </g>
   <g id="line2d_26">
    <g clip-path="url(#p0efc8d68d8)">
     <use xlink:href="#m6ff6f4fa2b" x="103.636364" y="210.530274" style="fill: #1f77b4; stroke: #1f77b4"/>
     <use xlink:href="#m6ff6f4fa2b" x="180" y="204.110875" style="fill: #1f77b4; stroke: #1f77b4"/>
     <use xlink:href="#m6ff6f4fa2b" x="256.363636" y="200.946075" style="fill: #1f77b4; stroke: #1f77b4"/>
    </g>
   </g>
   <g id="patch_6">
    <path d="M 46 259.2 
L 46 151.2 
" style="fill: none; stroke: #000000; stroke-width: 0.8; stroke-linejoin: miter; stroke-linecap: square"/>
   </g>
   <g id="patch_7">
    <path d="M 54 267.2 
L 306 267.2 
" style="fill: none; stroke: #000000; stroke-width: 0.8; stroke-linejoin: miter; stroke-linecap: square"/>
   </g>
   <g id="text_17">
    <!-- sur -->
    <g style="fill: #b2b2b2" transform="translate(265.909091 176.611765) scale(0.11 -0.11)">
     <defs>
      <path id="DejaVuSans-75" d="M 544 1381 
L 544 3500 
L 1119 3500 
L 1119 1403 
Q 1119 906 1312 657 
Q 1506 409 1894 409 
Q 2359 409 2629 706 
Q 2900 1003 2900 1516 
L 2900 3500 
L 3475 3500 
L 3475 0 
L 2900 0 
L 2900 538 
Q 2691 219 2414 64 
Q 2138 -91 1772 -91 
Q 1169 -91 856 284 
Q 544 659 544 1381 
z
M 1991 3584 
L 1991 3584 
z
" transform="scale(0.015625)"/>
     </defs>
     <use xlink:href="#DejaVuSans-73"/>
     <use xlink:href="#DejaVuSans-75" x="52.099609"/>
     <use xlink:href="#DejaVuSans-72" x="115.478516"/>
    </g>
   </g>
  </g>
  <g id="axes_3">
   <g id="patch_8">
    <path d="M 54 129.6 
L 306 129.6 
L 306 21.6 
L 54 21.6 
z
" style="fill: #ffffff"/>
   </g>
   <g id="PolyCollection_3">
    <defs>
     <path id="m0f7f69ce58" d="M 65.454545 -365.698723 
L 65.454545 -357.415263 
L 70.12987 -357.374687 
L 74.805195 -357.333963 
L 79.480519 -357.580348 
L 84.155844 -358.008332 
L 88.831169 -357.881846 
L 93.506494 -357.109306 
L 98.181818 -356.636703 
L 102.857143 -356.345098 
L 107.532468 -356.454992 
L 112.207792 -357.348029 
L 116.883117 -357.857363 
L 121.558442 -358.645661 
L 126.233766 -359.268358 
L 130.909091 -360.267933 
L 135.584416 -361.801865 
L 140.25974 -362.516467 
L 144.935065 -362.868844 
L 149.61039 -363.310093 
L 154.285714 -363.628034 
L 158.961039 -363.982914 
L 163.636364 -364.817354 
L 168.311688 -365.842776 
L 172.987013 -366.767311 
L 177.662338 -367.665646 
L 182.337662 -368.348024 
L 187.012987 -368.89906 
L 191.688312 -369.478467 
L 196.363636 -369.959557 
L 201.038961 -370.288309 
L 205.714286 -370.260232 
L 210.38961 -370.038996 
L 215.064935 -369.895839 
L 219.74026 -369.845002 
L 224.415584 -369.629848 
L 229.090909 -369.278404 
L 233.766234 -368.781193 
L 238.441558 -368.378588 
L 243.116883 -367.950296 
L 247.792208 -367.274542 
L 252.467532 -366.79097 
L 257.142857 -366.601097 
L 261.818182 -366.729168 
L 266.493506 -366.842414 
L 271.168831 -367.034342 
L 275.844156 -367.217596 
L 280.519481 -367.26956 
L 285.194805 -367.307923 
L 289.87013 -367.174145 
L 294.545455 -367.277615 
L 294.545455 -387.646665 
L 294.545455 -387.646665 
L 289.87013 -387.991965 
L 285.194805 -389.057185 
L 280.519481 -389.373252 
L 275.844156 -389.321011 
L 271.168831 -388.918079 
L 266.493506 -388.610382 
L 261.818182 -388.222789 
L 257.142857 -387.704995 
L 252.467532 -387.935996 
L 247.792208 -388.284833 
L 243.116883 -388.862591 
L 238.441558 -389.253466 
L 233.766234 -389.080039 
L 229.090909 -389.815218 
L 224.415584 -390.832191 
L 219.74026 -391.045606 
L 215.064935 -391.061512 
L 210.38961 -391.41053 
L 205.714286 -391.80415 
L 201.038961 -391.967023 
L 196.363636 -391.283352 
L 191.688312 -389.855042 
L 187.012987 -387.727946 
L 182.337662 -385.916542 
L 177.662338 -383.98996 
L 172.987013 -381.614402 
L 168.311688 -379.051747 
L 163.636364 -377.120129 
L 158.961039 -375.680837 
L 154.285714 -375.0693 
L 149.61039 -374.113637 
L 144.935065 -372.591458 
L 140.25974 -371.309483 
L 135.584416 -369.600315 
L 130.909091 -367.40681 
L 126.233766 -366.176463 
L 121.558442 -365.545705 
L 116.883117 -364.676385 
L 112.207792 -364.164918 
L 107.532468 -363.299895 
L 102.857143 -363.429231 
L 98.181818 -363.953549 
L 93.506494 -364.484422 
L 88.831169 -365.161653 
L 84.155844 -365.582991 
L 79.480519 -365.360302 
L 74.805195 -365.244521 
L 70.12987 -365.531708 
L 65.454545 -365.698723 
z
"/>
    </defs>
    <g clip-path="url(#p1e6cb6a3e7)">
     <use xlink:href="#m0f7f69ce58" x="0" y="432" style="fill: #b2b2b2; fill-opacity: 0.4"/>
    </g>
   </g>
   <g id="matplotlib.axis_5">
    <g id="xtick_11">
     <g id="line2d_27">
      <g>
       <use xlink:href="#m87e5b751e7" x="65.454545" y="137.6" style="stroke: #000000; stroke-width: 0.8"/>
      </g>
     </g>
    </g>
    <g id="xtick_12">
     <g id="line2d_28">
      <g>
       <use xlink:href="#m87e5b751e7" x="122.727273" y="137.6" style="stroke: #000000; stroke-width: 0.8"/>
      </g>
     </g>
    </g>
    <g id="xtick_13">
     <g id="line2d_29">
      <g>
       <use xlink:href="#m87e5b751e7" x="180" y="137.6" style="stroke: #000000; stroke-width: 0.8"/>
      </g>
     </g>
    </g>
    <g id="xtick_14">
     <g id="line2d_30">
      <g>
       <use xlink:href="#m87e5b751e7" x="237.272727" y="137.6" style="stroke: #000000; stroke-width: 0.8"/>
      </g>
     </g>
    </g>
    <g id="xtick_15">
     <g id="line2d_31">
      <g>
       <use xlink:href="#m87e5b751e7" x="294.545455" y="137.6" style="stroke: #000000; stroke-width: 0.8"/>
      </g>
     </g>
    </g>
   </g>
   <g id="matplotlib.axis_6">
    <g id="ytick_9">
     <g id="line2d_32">
      <g>
       <use xlink:href="#m7015458af0" x="46" y="116.894118" style="stroke: #000000; stroke-width: 0.8"/>
      </g>
     </g>
     <g id="text_18">
      <!-- 0 -->
      <g transform="translate(32.6375 120.693336) scale(0.1 -0.1)">
       <use xlink:href="#DejaVuSans-30"/>
      </g>
     </g>
    </g>
    <g id="ytick_10">
     <g id="line2d_33">
      <g>
       <use xlink:href="#m7015458af0" x="46" y="91.482353" style="stroke: #000000; stroke-width: 0.8"/>
      </g>
     </g>
     <g id="text_19">
      <!-- 2 -->
      <g transform="translate(32.6375 95.281572) scale(0.1 -0.1)">
       <use xlink:href="#DejaVuSans-32"/>
      </g>
     </g>
    </g>
    <g id="ytick_11">
     <g id="line2d_34">
      <g>
       <use xlink:href="#m7015458af0" x="46" y="66.070588" style="stroke: #000000; stroke-width: 0.8"/>
      </g>
     </g>
     <g id="text_20">
      <!-- 4 -->
      <g transform="translate(32.6375 69.869807) scale(0.1 -0.1)">
       <use xlink:href="#DejaVuSans-34"/>
      </g>
     </g>
    </g>
    <g id="ytick_12">
     <g id="line2d_35">
      <g>
       <use xlink:href="#m7015458af0" x="46" y="40.658824" style="stroke: #000000; stroke-width: 0.8"/>
      </g>
     </g>
     <g id="text_21">
      <!-- 6 -->
      <g transform="translate(32.6375 44.458042) scale(0.1 -0.1)">
       <use xlink:href="#DejaVuSans-36"/>
      </g>
     </g>
    </g>
    <g id="text_22">
     <!-- BOLD % change -->
     <g transform="translate(26.141875 123.894375) rotate(-90) scale(0.12 -0.12)">
      <use xlink:href="#DejaVuSans-42"/>
      <use xlink:href="#DejaVuSans-4f" x="66.853516"/>
      <use xlink:href="#DejaVuSans-4c" x="145.564453"/>
      <use xlink:href="#DejaVuSans-44" x="201.277344"/>
      <use xlink:href="#DejaVuSans-20" x="278.279297"/>
      <use xlink:href="#DejaVuSans-25" x="310.066406"/>
      <use xlink:href="#DejaVuSans-20" x="405.085938"/>
      <use xlink:href="#DejaVuSans-63" x="436.873047"/>
      <use xlink:href="#DejaVuSans-68" x="491.853516"/>
      <use xlink:href="#DejaVuSans-61" x="555.232422"/>
      <use xlink:href="#DejaVuSans-6e" x="616.511719"/>
      <use xlink:href="#DejaVuSans-67" x="679.890625"/>
      <use xlink:href="#DejaVuSans-65" x="743.367188"/>
     </g>
    </g>
   </g>
   <g id="line2d_36">
    <path d="M 180 129.6 
L 180 21.6 
" clip-path="url(#p1e6cb6a3e7)" style="fill: none; stroke-dasharray: 5.55,2.4; stroke-dashoffset: 0; stroke: #4c4c4c; stroke-width: 1.5"/>
   </g>
   <g id="LineCollection_7">
    <path d="M 65.454545 116.894118 
L 294.545455 116.894118 
" clip-path="url(#p1e6cb6a3e7)" style="fill: none; stroke-dasharray: 5.55,2.4; stroke-dashoffset: 0; stroke: #4c4c4c; stroke-width: 1.5"/>
   </g>
   <g id="line2d_37">
    <path d="M 65.454545 70.443007 
L 70.12987 70.546802 
L 74.805195 70.710758 
L 79.480519 70.529675 
L 84.155844 70.204338 
L 88.831169 70.478251 
L 93.506494 71.203136 
L 98.181818 71.704874 
L 102.857143 72.112836 
L 107.532468 72.122556 
L 112.207792 71.243526 
L 116.883117 70.733126 
L 121.558442 69.904317 
L 126.233766 69.277589 
L 130.909091 68.162628 
L 135.584416 66.29891 
L 140.25974 65.087025 
L 144.935065 64.269849 
L 149.61039 63.288135 
L 154.285714 62.651333 
L 158.961039 62.168125 
L 163.636364 61.031258 
L 168.311688 59.552738 
L 172.987013 57.809143 
L 177.662338 56.172197 
L 182.337662 54.867717 
L 187.012987 53.686497 
L 191.688312 52.333245 
L 196.363636 51.378545 
L 201.038961 50.872334 
L 205.714286 50.967809 
L 210.38961 51.275237 
L 215.064935 51.521325 
L 219.74026 51.554696 
L 224.415584 51.768981 
L 229.090909 52.453189 
L 233.766234 53.069384 
L 238.441558 53.183973 
L 243.116883 53.593556 
L 247.792208 54.220312 
L 252.467532 54.636517 
L 257.142857 54.846954 
L 261.818182 54.524022 
L 266.493506 54.273602 
L 271.168831 54.02379 
L 275.844156 53.730697 
L 280.519481 53.678594 
L 285.194805 53.817446 
L 289.87013 54.416945 
L 294.545455 54.53786 
" clip-path="url(#p1e6cb6a3e7)" style="fill: none; stroke: #b2b2b2; stroke-width: 1.5; stroke-linecap: square"/>
   </g>
   <g id="line2d_38">
    <g clip-path="url(#p1e6cb6a3e7)">
     <use xlink:href="#m0e8c515ade" x="103.636364" y="30.494118" style="stroke: #000000"/>
     <use xlink:href="#m0e8c515ade" x="180" y="30.494118" style="stroke: #000000"/>
     <use xlink:href="#m0e8c515ade" x="256.363636" y="30.494118" style="stroke: #000000"/>
    </g>
   </g>
   <g id="LineCollection_8">
    <path d="M 65.454545 129.6 
L 65.454545 91.482353 
" clip-path="url(#p1e6cb6a3e7)" style="fill: none; stroke-dasharray: 1.5,2.475; stroke-dashoffset: 0; stroke: #1f77b4; stroke-opacity: 0.3; stroke-width: 1.5"/>
    <path d="M 141.818182 129.6 
L 141.818182 91.482353 
" clip-path="url(#p1e6cb6a3e7)" style="fill: none; stroke-dasharray: 1.5,2.475; stroke-dashoffset: 0; stroke: #1f77b4; stroke-opacity: 0.3; stroke-width: 1.5"/>
    <path d="M 218.181818 129.6 
L 218.181818 91.482353 
" clip-path="url(#p1e6cb6a3e7)" style="fill: none; stroke-dasharray: 1.5,2.475; stroke-dashoffset: 0; stroke: #1f77b4; stroke-opacity: 0.3; stroke-width: 1.5"/>
    <path d="M 294.545455 129.6 
L 294.545455 91.482353 
" clip-path="url(#p1e6cb6a3e7)" style="fill: none; stroke-dasharray: 1.5,2.475; stroke-dashoffset: 0; stroke: #1f77b4; stroke-opacity: 0.3; stroke-width: 1.5"/>
   </g>
   <g id="LineCollection_9">
    <path d="M 103.636364 69.623303 
L 103.636364 53.913273 
" clip-path="url(#p1e6cb6a3e7)" style="fill: none; stroke: #1f77b4; stroke-width: 1.5"/>
    <path d="M 180 60.291171 
L 180 51.030548 
" clip-path="url(#p1e6cb6a3e7)" style="fill: none; stroke: #1f77b4; stroke-width: 1.5"/>
    <path d="M 256.363636 58.583413 
L 256.363636 47.144809 
" clip-path="url(#p1e6cb6a3e7)" style="fill: none; stroke: #1f77b4; stroke-width: 1.5"/>
   </g>
   <g id="line2d_39">
    <g clip-path="url(#p1e6cb6a3e7)">
     <use xlink:href="#m6ff6f4fa2b" x="103.636364" y="61.768288" style="fill: #1f77b4; stroke: #1f77b4"/>
     <use xlink:href="#m6ff6f4fa2b" x="180" y="55.660859" style="fill: #1f77b4; stroke: #1f77b4"/>
     <use xlink:href="#m6ff6f4fa2b" x="256.363636" y="52.864111" style="fill: #1f77b4; stroke: #1f77b4"/>
    </g>
   </g>
   <g id="patch_9">
    <path d="M 46 129.6 
L 46 21.6 
" style="fill: none; stroke: #000000; stroke-width: 0.8; stroke-linejoin: miter; stroke-linecap: square"/>
   </g>
   <g id="patch_10">
    <path d="M 54 137.6 
L 306 137.6 
" style="fill: none; stroke: #000000; stroke-width: 0.8; stroke-linejoin: miter; stroke-linecap: square"/>
   </g>
  </g>
 </g>
 <defs>
  <clipPath id="paff18c41c2">
   <rect x="54" y="280.8" width="252" height="108"/>
  </clipPath>
  <clipPath id="p0efc8d68d8">
   <rect x="54" y="151.2" width="252" height="108"/>
  </clipPath>
  <clipPath id="p1e6cb6a3e7">
   <rect x="54" y="21.6" width="252" height="108"/>
  </clipPath>
 </defs>
</svg>
